<?xml version="1.0" encoding="UTF-8" standalone="no"?>
<!DOCTYPE svg PUBLIC "-//W3C//DTD SVG 1.1//EN"
"http://www.w3.org/Graphics/SVG/1.1/DTD/svg11.dtd">
<svg viewBox="0 0 641 910" version="1.1" xmlns="http://www.w3.org/2000/svg" xmlns:xlink="http://www.w3.org/1999/xlink">
<defs>
<clipPath id="c0_72"><path d="M0,909.8V0H641.7V909.8Z"/></clipPath>
<clipPath id="c1_72"><path d="M0,908.6V0H641.7V908.6Z"/></clipPath>
<style type="text/css"><![CDATA[
.g0_72{
fill: #FFFFFF;
}
.g1_72{
}
]]></style>
</defs>
<path d="M0,0H641.7V909.8H0V0Z" class="g0_72"/>
<path d="M0,0H641.7V909.8H0V0Z" class="g0_72"/>
<g clip-path="url(#c0_72)">
<path d="M0,-59136.4H641.7V47309.2H0V-59136.4Z" class="g0_72"/>
</g>
<path d="M0,0H641.7V908.6H0V0Z" class="g0_72"/>
<path d="M19.5,60.7H602.7v1.2H19.5V60.7Z" class="g1_72"/>
<g clip-path="url(#c1_72)">
<path d="M0,61.9H641.7V909.8H0V61.9Z" class="g0_72"/>
<g fill="#000000" >
<use xlink:href="#f5_bh" transform="matrix(14,0,0,14,205.4,82.5)" />
<use xlink:href="#f5_cv" transform="matrix(14,0,0,14,223.8,82.5)" />
<use xlink:href="#f5_bo" transform="matrix(14,0,0,14,230.3,82.5)" />
<use xlink:href="#f5_d8" transform="matrix(14,0,0,14,246.5,82.5)" />
<use xlink:href="#f5_pd" transform="matrix(14,0,0,14,252.9,82.5)" />
<use xlink:href="#f5_bh" transform="matrix(14,0,0,14,262.8,82.5)" />
<use xlink:href="#f5_cv" transform="matrix(14,0,0,14,281.3,82.5)" />
<use xlink:href="#f5_bo" transform="matrix(14,0,0,14,287.7,82.5)" />
<use xlink:href="#f5_d8" transform="matrix(14,0,0,14,303.9,82.5)" />
<use xlink:href="#f5_ap" transform="matrix(14,0,0,14,316,82.5)" />
<use xlink:href="#f5_ch" transform="matrix(14,0,0,14,328.5,82.5)" />
<use xlink:href="#f5_d4" transform="matrix(14,0,0,14,341.7,82.5)" />
<use xlink:href="#f5_c1" transform="matrix(14,0,0,14,347.4,82.5)" />
<use xlink:href="#f5_d4" transform="matrix(14,0,0,14,357.3,82.5)" />
<use xlink:href="#f5_bb" transform="matrix(14,0,0,14,363.3,82.5)" />
<use xlink:href="#f5_cw" transform="matrix(14,0,0,14,377.9,82.5)" />
<use xlink:href="#f5_c3" transform="matrix(14,0,0,14,377.5,82.5)" />
<use xlink:href="#f5_ct" transform="matrix(14,0,0,14,393.8,82.5)" />
<use xlink:href="#f5_c3" transform="matrix(14,0,0,14,400.3,82.5)" />
<use xlink:href="#f6_bh" transform="matrix(14,0,0,14,164.2,151.3)" />
<use xlink:href="#f6_cv" transform="matrix(14,0,0,14,180.9,151.3)" />
<use xlink:href="#f6_bo" transform="matrix(14,0,0,14,186.6,151.3)" />
<use xlink:href="#f6_d8" transform="matrix(14,0,0,14,200.9,151.3)" />
<use xlink:href="#f6_pd" transform="matrix(14,0,0,14,206.5,151.3)" />
<use xlink:href="#f6_bh" transform="matrix(14,0,0,14,214.1,151.3)" />
<use xlink:href="#f6_cv" transform="matrix(14,0,0,14,230.9,151.3)" />
<use xlink:href="#f6_bo" transform="matrix(14,0,0,14,236.5,151.3)" />
<use xlink:href="#f6_d8" transform="matrix(14,0,0,14,250.9,151.3)" />
<use xlink:href="#f6_pd" transform="matrix(14,0,0,14,256.5,151.3)" />
<use xlink:href="#f6_bh" transform="matrix(14,0,0,14,264,151.3)" />
<use xlink:href="#f6_cv" transform="matrix(14,0,0,14,280.8,151.3)" />
<use xlink:href="#f6_bo" transform="matrix(14,0,0,14,286.4,151.3)" />
<use xlink:href="#f6_d8" transform="matrix(14,0,0,14,300.8,151.3)" />
<use xlink:href="#f6_pd" transform="matrix(14,0,0,14,306.4,151.3)" />
<use xlink:href="#f6_bh" transform="matrix(14,0,0,14,314,151.3)" />
<use xlink:href="#f6_cv" transform="matrix(14,0,0,14,330.7,151.3)" />
<use xlink:href="#f6_bo" transform="matrix(14,0,0,14,336.4,151.3)" />
<use xlink:href="#f6_d8" transform="matrix(14,0,0,14,350.7,151.3)" />
<use xlink:href="#f6_pd" transform="matrix(14,0,0,14,356.4,151.3)" />
<use xlink:href="#f6_bh" transform="matrix(14,0,0,14,363.9,151.3)" />
<use xlink:href="#f6_cv" transform="matrix(14,0,0,14,380.7,151.3)" />
<use xlink:href="#f6_bo" transform="matrix(14,0,0,14,386.3,151.3)" />
<use xlink:href="#f6_d8" transform="matrix(14,0,0,14,400.7,151.3)" />
<use xlink:href="#f6_pd" transform="matrix(14,0,0,14,406.3,151.3)" />
<use xlink:href="#f6_bh" transform="matrix(14,0,0,14,413.8,151.3)" />
<use xlink:href="#f6_cv" transform="matrix(14,0,0,14,430.6,151.3)" />
<use xlink:href="#f6_bo" transform="matrix(14,0,0,14,436.2,151.3)" />
<use xlink:href="#f6_d8" transform="matrix(14,0,0,14,450.6,151.3)" />
<use xlink:href="#f6_bh" transform="matrix(14,0,0,14,151.6,185.6)" />
<use xlink:href="#f6_cv" transform="matrix(14,0,0,14,168.3,185.6)" />
<use xlink:href="#f6_bo" transform="matrix(14,0,0,14,174,185.6)" />
<use xlink:href="#f6_d8" transform="matrix(14,0,0,14,188.3,185.6)" />
<use xlink:href="#f6_pd" transform="matrix(14,0,0,14,193.9,185.6)" />
<use xlink:href="#f6_bh" transform="matrix(14,0,0,14,201.5,185.6)" />
<use xlink:href="#f6_cv" transform="matrix(14,0,0,14,218.3,185.6)" />
<use xlink:href="#f6_bo" transform="matrix(14,0,0,14,223.9,185.6)" />
<use xlink:href="#f6_d8" transform="matrix(14,0,0,14,238.3,185.6)" />
<use xlink:href="#f6_ap" transform="matrix(14,0,0,14,249.5,185.6)" />
<use xlink:href="#f6_ch" transform="matrix(14,0,0,14,260.9,185.6)" />
<use xlink:href="#f6_d4" transform="matrix(14,0,0,14,273.5,185.6)" />
<use xlink:href="#f6_c1" transform="matrix(14,0,0,14,279.3,185.6)" />
<use xlink:href="#f6_d4" transform="matrix(14,0,0,14,287.2,185.6)" />
<use xlink:href="#f6_bb" transform="matrix(14,0,0,14,293.3,185.6)" />
<use xlink:href="#f6_cw" transform="matrix(14,0,0,14,306.5,185.5)" />
<use xlink:href="#f6_c3" transform="matrix(14,0,0,14,305.9,185.6)" />
<use xlink:href="#f6_ct" transform="matrix(14,0,0,14,320.6,185.6)" />
<use xlink:href="#f6_c3" transform="matrix(14,0,0,14,326.2,185.6)" />
<use xlink:href="#f6_k" transform="matrix(14,0,0,14,341,185.6)" />
<use xlink:href="#f6_by" transform="matrix(14,0,0,14,346.2,185.6)" />
<use xlink:href="#f6_d4" transform="matrix(14,0,0,14,360.3,185.6)" />
<use xlink:href="#f6_n1" transform="matrix(14,0,0,14,360.1,185.6)" />
<use xlink:href="#f6_bq" transform="matrix(14,0,0,14,378.9,185.6)" />
<use xlink:href="#f6_ct" transform="matrix(14,0,0,14,392.1,185.6)" />
<use xlink:href="#f6_c1" transform="matrix(14,0,0,14,397.8,185.6)" />
<use xlink:href="#f6_ct" transform="matrix(14,0,0,14,406.1,185.6)" />
<use xlink:href="#f6_bz" transform="matrix(14,0,0,14,417.4,185.6)" />
<use xlink:href="#f6_dj" transform="matrix(14,0,0,14,424.9,186.1)" />
<use xlink:href="#f6_br" transform="matrix(14,0,0,14,430.8,185.6)" />
<use xlink:href="#f6_nr" transform="matrix(14,0,0,14,442.4,185.6)" />
<use xlink:href="#f6_c1" transform="matrix(14,0,0,14,448.1,185.6)" />
<use xlink:href="#f6_c0" transform="matrix(14,0,0,14,456.4,185.6)" />
<use xlink:href="#f6_d4" transform="matrix(14,0,0,14,469.1,185.6)" />
<use xlink:href="#f6_bz" transform="matrix(14,0,0,14,159.6,220)" />
<use xlink:href="#f6_dj" transform="matrix(14,0,0,14,167,220.4)" />
<use xlink:href="#f6_br" transform="matrix(14,0,0,14,172.9,220)" />
<use xlink:href="#f6_nr" transform="matrix(14,0,0,14,184.6,220)" />
<use xlink:href="#f6_c1" transform="matrix(14,0,0,14,190.2,220)" />
<use xlink:href="#f6_c0" transform="matrix(14,0,0,14,198.6,220)" />
<use xlink:href="#f6_d4" transform="matrix(14,0,0,14,211.3,220)" />
<use xlink:href="#f6_br" transform="matrix(14,0,0,14,216.8,220)" />
<use xlink:href="#f6_ct" transform="matrix(14,0,0,14,228.5,220)" />
<use xlink:href="#f6_br" transform="matrix(14,0,0,14,234.1,220)" />
<use xlink:href="#f6_ct" transform="matrix(14,0,0,14,245.8,220)" />
<use xlink:href="#f6_bz" transform="matrix(14,0,0,14,257.1,220)" />
<use xlink:href="#f6_dj" transform="matrix(14,0,0,14,264.5,220.4)" />
<use xlink:href="#f6_br" transform="matrix(14,0,0,14,270.4,220)" />
<use xlink:href="#f6_nr" transform="matrix(14,0,0,14,282.1,220)" />
<use xlink:href="#f6_c1" transform="matrix(14,0,0,14,287.7,220)" />
<use xlink:href="#f6_c0" transform="matrix(14,0,0,14,296.1,220)" />
<use xlink:href="#f6_d4" transform="matrix(14,0,0,14,308.7,220)" />
<use xlink:href="#f6_pd" transform="matrix(14,0,0,14,314.3,220)" />
<use xlink:href="#f6_n8" transform="matrix(14,0,0,14,321.8,220)" />
<use xlink:href="#f6_bh" transform="matrix(14,0,0,14,349.2,220)" />
<use xlink:href="#f6_cv" transform="matrix(14,0,0,14,366,220)" />
<use xlink:href="#f6_bo" transform="matrix(14,0,0,14,371.6,220)" />
<use xlink:href="#f6_d8" transform="matrix(14,0,0,14,386,220)" />
<use xlink:href="#f6_bh" transform="matrix(14,0,0,14,397.3,220)" />
<use xlink:href="#f6_cv" transform="matrix(14,0,0,14,414.1,220)" />
<use xlink:href="#f6_bo" transform="matrix(14,0,0,14,419.7,220)" />
<use xlink:href="#f6_d8" transform="matrix(14,0,0,14,434.1,220)" />
<use xlink:href="#f6_pc" transform="matrix(14,0,0,14,439.7,220)" />
<use xlink:href="#f6_pc" transform="matrix(14,0,0,14,444,220)" />
<use xlink:href="#f6_pc" transform="matrix(14,0,0,14,448.2,220)" />
<use xlink:href="#f6_pc" transform="matrix(14,0,0,14,452.5,220)" />
<use xlink:href="#f6_pc" transform="matrix(14,0,0,14,456.8,220)" />
<use xlink:href="#f6_bz" transform="matrix(14,0,0,14,210,288.8)" />
<use xlink:href="#f6_ct" transform="matrix(14,0,0,14,223.3,288.8)" />
<use xlink:href="#f6_c1" transform="matrix(14,0,0,14,229,288.8)" />
<use xlink:href="#f6_ct" transform="matrix(14,0,0,14,237.3,288.8)" />
<use xlink:href="#f6_by" transform="matrix(14,0,0,14,248.6,288.8)" />
<use xlink:href="#f6_d4" transform="matrix(14,0,0,14,262.7,288.8)" />
<use xlink:href="#f6_n0" transform="matrix(14,0,0,14,262.6,288.8)" />
<use xlink:href="#f6_bg" transform="matrix(14,0,0,14,275.7,288.8)" />
<use xlink:href="#f6_cv" transform="matrix(14,0,0,14,290,288.8)" />
<use xlink:href="#f6_c1" transform="matrix(14,0,0,14,301.3,288.8)" />
<use xlink:href="#f6_cv" transform="matrix(14,0,0,14,309.7,288.8)" />
<use xlink:href="#f6_cb" transform="matrix(14,0,0,14,320.9,288.8)" />
<use xlink:href="#f6_cx" transform="matrix(14,0,0,14,335.8,288.7)" />
<use xlink:href="#f6_c1" transform="matrix(14,0,0,14,335.8,288.8)" />
<use xlink:href="#f6_bp" transform="matrix(14,0,0,14,344.2,288.8)" />
<use xlink:href="#f6_li" transform="matrix(14,0,0,14,362.2,288.8)" />
<use xlink:href="#f6_c0" transform="matrix(14,0,0,14,368.4,288.8)" />
<use xlink:href="#f6_ct" transform="matrix(14,0,0,14,380.9,288.8)" />
<use xlink:href="#f6_c1" transform="matrix(14,0,0,14,386.5,288.8)" />
<use xlink:href="#f6_cv" transform="matrix(14,0,0,14,394.9,288.8)" />
<use xlink:href="#f6_k" transform="matrix(14,0,0,14,406.2,288.8)" />
<use xlink:href="#f6_bz" transform="matrix(14,0,0,14,211.1,323.1)" />
<use xlink:href="#f6_ct" transform="matrix(14,0,0,14,224.5,323.1)" />
<use xlink:href="#f6_c1" transform="matrix(14,0,0,14,230.1,323.1)" />
<use xlink:href="#f6_ct" transform="matrix(14,0,0,14,238.5,323.1)" />
<use xlink:href="#f6_by" transform="matrix(14,0,0,14,249.8,323.1)" />
<use xlink:href="#f6_d4" transform="matrix(14,0,0,14,263.9,323.1)" />
<use xlink:href="#f6_n0" transform="matrix(14,0,0,14,263.7,323.1)" />
<use xlink:href="#f6_bg" transform="matrix(14,0,0,14,276.9,323.1)" />
<use xlink:href="#f6_cv" transform="matrix(14,0,0,14,291.1,323.1)" />
<use xlink:href="#f6_c1" transform="matrix(14,0,0,14,302.4,323.1)" />
<use xlink:href="#f6_cv" transform="matrix(14,0,0,14,310.8,323.1)" />
<use xlink:href="#f6_bz" transform="matrix(14,0,0,14,322.1,323.1)" />
<use xlink:href="#f6_cx" transform="matrix(14,0,0,14,335.4,323)" />
<use xlink:href="#f6_c1" transform="matrix(14,0,0,14,335.4,323.1)" />
<use xlink:href="#f6_bp" transform="matrix(14,0,0,14,343.8,323.1)" />
<use xlink:href="#f6_li" transform="matrix(14,0,0,14,367.4,323.1)" />
<use xlink:href="#f6_c0" transform="matrix(14,0,0,14,373.6,323.1)" />
<use xlink:href="#f6_ct" transform="matrix(14,0,0,14,386.2,323.1)" />
<use xlink:href="#f6_c1" transform="matrix(14,0,0,14,391.8,323.1)" />
<use xlink:href="#f6_cv" transform="matrix(14,0,0,14,400.2,323.1)" />
<use xlink:href="#f6_k" transform="matrix(14,0,0,14,405.8,323.1)" />
<use xlink:href="#f6_bx" transform="matrix(14,0,0,14,176.8,357.5)" />
<use xlink:href="#f6_bg" transform="matrix(14,0,0,14,189.1,357.5)" />
<use xlink:href="#f6_d4" transform="matrix(14,0,0,14,203.4,357.5)" />
<use xlink:href="#f6_bm" transform="matrix(14,0,0,14,209,357.5)" />
<use xlink:href="#f6_bz" transform="matrix(14,0,0,14,221.7,357.5)" />
<use xlink:href="#f6_n1" transform="matrix(14,0,0,14,235,357.5)" />
<use xlink:href="#f6_bm" transform="matrix(14,0,0,14,253.8,357.5)" />
<use xlink:href="#f6_bz" transform="matrix(14,0,0,14,266.5,357.5)" />
<use xlink:href="#f6_bm" transform="matrix(14,0,0,14,285.5,357.5)" />
<use xlink:href="#f6_bz" transform="matrix(14,0,0,14,298.2,357.5)" />
<use xlink:href="#f6_k" transform="matrix(14,0,0,14,317.2,357.5)" />
<use xlink:href="#f6_by" transform="matrix(14,0,0,14,322.4,357.5)" />
<use xlink:href="#f6_d4" transform="matrix(14,0,0,14,336.5,357.5)" />
<use xlink:href="#f6_n1" transform="matrix(14,0,0,14,336.3,357.5)" />
<use xlink:href="#f6_bq" transform="matrix(14,0,0,14,355.2,357.5)" />
<use xlink:href="#f6_d8" transform="matrix(14,0,0,14,368.3,357.5)" />
<use xlink:href="#f6_c1" transform="matrix(14,0,0,14,374,357.5)" />
<use xlink:href="#f6_ct" transform="matrix(14,0,0,14,382.3,357.5)" />
<use xlink:href="#f6_bz" transform="matrix(14,0,0,14,393.6,357.5)" />
<use xlink:href="#f6_dj" transform="matrix(14,0,0,14,401.1,357.9)" />
<use xlink:href="#f6_br" transform="matrix(14,0,0,14,407,357.5)" />
<use xlink:href="#f6_nr" transform="matrix(14,0,0,14,418.6,357.5)" />
<use xlink:href="#f6_c1" transform="matrix(14,0,0,14,424.3,357.5)" />
<use xlink:href="#f6_c0" transform="matrix(14,0,0,14,432.6,357.5)" />
<use xlink:href="#f6_d4" transform="matrix(14,0,0,14,445.3,357.5)" />
<use xlink:href="#f6_bz" transform="matrix(14,0,0,14,161.9,391.9)" />
<use xlink:href="#f6_dj" transform="matrix(14,0,0,14,169.3,392.3)" />
<use xlink:href="#f6_br" transform="matrix(14,0,0,14,175.2,391.9)" />
<use xlink:href="#f6_nr" transform="matrix(14,0,0,14,186.9,391.9)" />
<use xlink:href="#f6_c1" transform="matrix(14,0,0,14,192.5,391.9)" />
<use xlink:href="#f6_c0" transform="matrix(14,0,0,14,200.9,391.9)" />
<use xlink:href="#f6_d4" transform="matrix(14,0,0,14,213.6,391.9)" />
<use xlink:href="#f6_br" transform="matrix(14,0,0,14,219.1,391.9)" />
<use xlink:href="#f6_ct" transform="matrix(14,0,0,14,230.8,391.9)" />
<use xlink:href="#f6_br" transform="matrix(14,0,0,14,236.4,391.9)" />
<use xlink:href="#f6_ct" transform="matrix(14,0,0,14,248.1,391.9)" />
<use xlink:href="#f6_bz" transform="matrix(14,0,0,14,259.3,391.9)" />
<use xlink:href="#f6_dj" transform="matrix(14,0,0,14,266.8,392.3)" />
<use xlink:href="#f6_br" transform="matrix(14,0,0,14,272.7,391.9)" />
<use xlink:href="#f6_nr" transform="matrix(14,0,0,14,284.4,391.9)" />
<use xlink:href="#f6_c1" transform="matrix(14,0,0,14,290,391.9)" />
<use xlink:href="#f6_c0" transform="matrix(14,0,0,14,298.4,391.9)" />
<use xlink:href="#f6_d4" transform="matrix(14,0,0,14,311,391.9)" />
<use xlink:href="#f6_pd" transform="matrix(14,0,0,14,316.6,391.9)" />
<use xlink:href="#f6_n8" transform="matrix(14,0,0,14,324.1,391.9)" />
<use xlink:href="#f6_bh" transform="matrix(14,0,0,14,351.5,391.9)" />
<use xlink:href="#f6_cv" transform="matrix(14,0,0,14,368.3,391.9)" />
<use xlink:href="#f6_bo" transform="matrix(14,0,0,14,373.9,391.9)" />
<use xlink:href="#f6_d8" transform="matrix(14,0,0,14,388.3,391.9)" />
<use xlink:href="#f6_bh" transform="matrix(14,0,0,14,399.6,391.9)" />
<use xlink:href="#f6_cv" transform="matrix(14,0,0,14,416.4,391.9)" />
<use xlink:href="#f6_bo" transform="matrix(14,0,0,14,422,391.9)" />
<use xlink:href="#f6_d8" transform="matrix(14,0,0,14,436.3,391.9)" />
<use xlink:href="#f6_pc" transform="matrix(14,0,0,14,442,391.9)" />
<use xlink:href="#f6_pc" transform="matrix(14,0,0,14,446.2,391.9)" />
<use xlink:href="#f6_pc" transform="matrix(14,0,0,14,450.5,391.9)" />
<use xlink:href="#f6_pc" transform="matrix(14,0,0,14,454.8,391.9)" />
<use xlink:href="#f6_cb" transform="matrix(14,0,0,14,204.3,460.6)" />
<use xlink:href="#f6_d8" transform="matrix(14,0,0,14,219.1,460.6)" />
<use xlink:href="#f6_bt" transform="matrix(14,0,0,14,224.8,460.6)" />
<use xlink:href="#f6_ct" transform="matrix(14,0,0,14,236.5,460.6)" />
<use xlink:href="#f6_n1" transform="matrix(14,0,0,14,247.8,460.6)" />
<use xlink:href="#f6_bv" transform="matrix(14,0,0,14,260.9,460.6)" />
<use xlink:href="#f6_ct" transform="matrix(14,0,0,14,272.8,460.6)" />
<use xlink:href="#f6_c1" transform="matrix(14,0,0,14,284.1,460.6)" />
<use xlink:href="#f6_cv" transform="matrix(14,0,0,14,292.4,460.6)" />
<use xlink:href="#f6_k" transform="matrix(14,0,0,14,303.7,460.6)" />
<use xlink:href="#f6_al" transform="matrix(14,0,0,14,308.9,460.6)" />
<use xlink:href="#f6_dj" transform="matrix(14,0,0,14,321.9,461.1)" />
<use xlink:href="#f6_bb" transform="matrix(14,0,0,14,324.8,460.6)" />
<use xlink:href="#f6_cv" transform="matrix(14,0,0,14,337.4,460.6)" />
<use xlink:href="#f6_c0" transform="matrix(14,0,0,14,343,460.6)" />
<use xlink:href="#f6_ct" transform="matrix(14,0,0,14,355.6,460.6)" />
<use xlink:href="#f6_c1" transform="matrix(14,0,0,14,366.9,460.6)" />
<use xlink:href="#f6_be" transform="matrix(14,0,0,14,375.3,460.6)" />
<use xlink:href="#f6_ct" transform="matrix(14,0,0,14,389.2,460.6)" />
<use xlink:href="#f6_aq" transform="matrix(14,0,0,14,394.9,460.6)" />
<use xlink:href="#f6_k" transform="matrix(14,0,0,14,410.6,460.6)" />
<use xlink:href="#f6_bz" transform="matrix(14,0,0,14,211.1,495)" />
<use xlink:href="#f6_d4" transform="matrix(14,0,0,14,224.6,495)" />
<use xlink:href="#f6_c7" transform="matrix(14,0,0,14,224.5,495)" />
<use xlink:href="#f6_ct" transform="matrix(14,0,0,14,236.6,495)" />
<use xlink:href="#f6_bz" transform="matrix(14,0,0,14,247.8,495)" />
<use xlink:href="#f6_b9" transform="matrix(14,0,0,14,261.2,495)" />
<use xlink:href="#f6_d8" transform="matrix(14,0,0,14,276.7,495)" />
<use xlink:href="#f6_bo" transform="matrix(14,0,0,14,282.3,495)" />
<use xlink:href="#f6_ct" transform="matrix(14,0,0,14,296.7,495)" />
<use xlink:href="#f6_k" transform="matrix(14,0,0,14,308,495)" />
<use xlink:href="#f6_be" transform="matrix(14,0,0,14,313.2,495)" />
<use xlink:href="#f6_c1" transform="matrix(14,0,0,14,327.2,495)" />
<use xlink:href="#f6_bo" transform="matrix(14,0,0,14,335.5,495)" />
<use xlink:href="#f6_d4" transform="matrix(14,0,0,14,350,495)" />
<use xlink:href="#f6_be" transform="matrix(14,0,0,14,355.6,495)" />
<use xlink:href="#f6_ci" transform="matrix(14,0,0,14,369.5,495)" />
<use xlink:href="#f6_ct" transform="matrix(14,0,0,14,381.5,495)" />
<use xlink:href="#f6_ap" transform="matrix(14,0,0,14,387.1,495)" />
<use xlink:href="#f6_k" transform="matrix(14,0,0,14,404.1,495)" />
<use xlink:href="#f6_by" transform="matrix(14,0,0,14,174.5,529.4)" />
<use xlink:href="#f6_l1" transform="matrix(14,0,0,14,188.4,529.4)" />
<use xlink:href="#f6_bp" transform="matrix(14,0,0,14,200.3,529.4)" />
<use xlink:href="#f6_d8" transform="matrix(14,0,0,14,212.6,529.4)" />
<use xlink:href="#f6_bg" transform="matrix(14,0,0,14,223.9,529.4)" />
<use xlink:href="#f6_d8" transform="matrix(14,0,0,14,238.2,529.4)" />
<use xlink:href="#f6_c7" transform="matrix(14,0,0,14,243.8,529.4)" />
<use xlink:href="#f6_d4" transform="matrix(14,0,0,14,256,529.4)" />
<use xlink:href="#f6_cc" transform="matrix(14,0,0,14,261.5,529.4)" />
<use xlink:href="#f6_d5" transform="matrix(14,0,0,14,273.5,529.4)" />
<use xlink:href="#f6_c7" transform="matrix(14,0,0,14,278.8,529.4)" />
<use xlink:href="#f6_ct" transform="matrix(14,0,0,14,290.9,529.4)" />
<use xlink:href="#f6_bk" transform="matrix(14,0,0,14,296.5,529.4)" />
<use xlink:href="#f6_k" transform="matrix(14,0,0,14,308.1,529.4)" />
<use xlink:href="#f6_by" transform="matrix(14,0,0,14,318.9,529.4)" />
<use xlink:href="#f6_d4" transform="matrix(14,0,0,14,333,529.4)" />
<use xlink:href="#f6_n1" transform="matrix(14,0,0,14,332.9,529.4)" />
<use xlink:href="#f6_bq" transform="matrix(14,0,0,14,351.7,529.4)" />
<use xlink:href="#f6_ct" transform="matrix(14,0,0,14,364.9,529.4)" />
<use xlink:href="#f6_c1" transform="matrix(14,0,0,14,370.5,529.4)" />
<use xlink:href="#f6_ct" transform="matrix(14,0,0,14,378.9,529.4)" />
<use xlink:href="#f6_bz" transform="matrix(14,0,0,14,390.2,529.4)" />
<use xlink:href="#f6_dj" transform="matrix(14,0,0,14,397.6,529.8)" />
<use xlink:href="#f6_cu" transform="matrix(14,0,0,14,403.5,529.4)" />
<use xlink:href="#f6_br" transform="matrix(14,0,0,14,409.1,529.4)" />
<use xlink:href="#f6_nr" transform="matrix(14,0,0,14,420.8,529.4)" />
<use xlink:href="#f6_c1" transform="matrix(14,0,0,14,426.4,529.4)" />
<use xlink:href="#f6_c0" transform="matrix(14,0,0,14,434.8,529.4)" />
<use xlink:href="#f6_d4" transform="matrix(14,0,0,14,447.5,529.4)" />
<use xlink:href="#f6_bz" transform="matrix(14,0,0,14,161.9,563.8)" />
<use xlink:href="#f6_dj" transform="matrix(14,0,0,14,169.3,564.2)" />
<use xlink:href="#f6_br" transform="matrix(14,0,0,14,175.2,563.8)" />
<use xlink:href="#f6_nr" transform="matrix(14,0,0,14,186.9,563.8)" />
<use xlink:href="#f6_c1" transform="matrix(14,0,0,14,192.5,563.8)" />
<use xlink:href="#f6_c0" transform="matrix(14,0,0,14,200.9,563.8)" />
<use xlink:href="#f6_d4" transform="matrix(14,0,0,14,213.6,563.8)" />
<use xlink:href="#f6_br" transform="matrix(14,0,0,14,219.1,563.8)" />
<use xlink:href="#f6_ct" transform="matrix(14,0,0,14,230.8,563.8)" />
<use xlink:href="#f6_br" transform="matrix(14,0,0,14,236.4,563.8)" />
<use xlink:href="#f6_ct" transform="matrix(14,0,0,14,248.1,563.8)" />
<use xlink:href="#f6_bz" transform="matrix(14,0,0,14,259.3,563.8)" />
<use xlink:href="#f6_dj" transform="matrix(14,0,0,14,266.8,564.2)" />
<use xlink:href="#f6_br" transform="matrix(14,0,0,14,272.7,563.8)" />
<use xlink:href="#f6_nr" transform="matrix(14,0,0,14,284.4,563.8)" />
<use xlink:href="#f6_c1" transform="matrix(14,0,0,14,290,563.8)" />
<use xlink:href="#f6_c0" transform="matrix(14,0,0,14,298.4,563.8)" />
<use xlink:href="#f6_d4" transform="matrix(14,0,0,14,311,563.8)" />
<use xlink:href="#f6_pd" transform="matrix(14,0,0,14,316.6,563.8)" />
<use xlink:href="#f6_n8" transform="matrix(14,0,0,14,324.1,563.8)" />
<use xlink:href="#f6_bh" transform="matrix(14,0,0,14,351.5,563.8)" />
<use xlink:href="#f6_cv" transform="matrix(14,0,0,14,368.3,563.8)" />
<use xlink:href="#f6_bo" transform="matrix(14,0,0,14,373.9,563.8)" />
<use xlink:href="#f6_d8" transform="matrix(14,0,0,14,388.3,563.8)" />
<use xlink:href="#f6_bh" transform="matrix(14,0,0,14,399.6,563.8)" />
<use xlink:href="#f6_cv" transform="matrix(14,0,0,14,416.4,563.8)" />
<use xlink:href="#f6_bo" transform="matrix(14,0,0,14,422,563.8)" />
<use xlink:href="#f6_d8" transform="matrix(14,0,0,14,436.3,563.8)" />
<use xlink:href="#f6_pc" transform="matrix(14,0,0,14,442,563.8)" />
<use xlink:href="#f6_pc" transform="matrix(14,0,0,14,446.2,563.8)" />
<use xlink:href="#f6_pc" transform="matrix(14,0,0,14,450.5,563.8)" />
<use xlink:href="#f6_pc" transform="matrix(14,0,0,14,454.8,563.8)" />
<use xlink:href="#f6_cu" transform="matrix(14,0,0,14,203.1,632.5)" />
<use xlink:href="#f6_br" transform="matrix(14,0,0,14,208.7,632.5)" />
<use xlink:href="#f6_bt" transform="matrix(14,0,0,14,220.4,632.5)" />
<use xlink:href="#f6_mv" transform="matrix(14,0,0,14,237.8,632.5)" />
<use xlink:href="#f6_nv" transform="matrix(14,0,0,14,249.6,632.5)" />
<use xlink:href="#f6_ba" transform="matrix(14,0,0,14,255.2,632.5)" />
<use xlink:href="#f6_c0" transform="matrix(14,0,0,14,271.9,632.5)" />
<use xlink:href="#f6_d8" transform="matrix(14,0,0,14,284.5,632.5)" />
<use xlink:href="#f6_c1" transform="matrix(14,0,0,14,295.7,632.5)" />
<use xlink:href="#f6_ct" transform="matrix(14,0,0,14,304.1,632.5)" />
<use xlink:href="#f6_k" transform="matrix(14,0,0,14,315.4,632.5)" />
<use xlink:href="#f6_bz" transform="matrix(14,0,0,14,320.6,632.5)" />
<use xlink:href="#f6_ct" transform="matrix(14,0,0,14,334,632.5)" />
<use xlink:href="#f6_nu" transform="matrix(14,0,0,14,339.6,632.5)" />
<use xlink:href="#f6_c3" transform="matrix(14,0,0,14,345.2,632.5)" />
<use xlink:href="#f6_b9" transform="matrix(14,0,0,14,359.9,632.5)" />
<use xlink:href="#f6_by" transform="matrix(14,0,0,14,381.1,632.5)" />
<use xlink:href="#f6_d4" transform="matrix(14,0,0,14,395.2,632.5)" />
<use xlink:href="#f6_n1" transform="matrix(14,0,0,14,395,632.5)" />
<use xlink:href="#f6_k" transform="matrix(14,0,0,14,413.9,632.5)" />
<use xlink:href="#f6_bv" transform="matrix(14,0,0,14,218,666.9)" />
<use xlink:href="#f6_ct" transform="matrix(14,0,0,14,229.9,666.9)" />
<use xlink:href="#f6_c1" transform="matrix(14,0,0,14,235.5,666.9)" />
<use xlink:href="#f6_cb" transform="matrix(14,0,0,14,243.9,666.9)" />
<use xlink:href="#f6_bt" transform="matrix(14,0,0,14,258.8,666.9)" />
<use xlink:href="#f6_ct" transform="matrix(14,0,0,14,270.5,666.9)" />
<use xlink:href="#f6_no" transform="matrix(14,0,0,14,276.1,666.9)" />
<use xlink:href="#f6_bq" transform="matrix(14,0,0,14,276.1,666.9)" />
<use xlink:href="#f6_c1" transform="matrix(14,0,0,14,294.9,666.9)" />
<use xlink:href="#f6_ct" transform="matrix(14,0,0,14,303.3,666.9)" />
<use xlink:href="#f6_k" transform="matrix(14,0,0,14,308.9,666.9)" />
<use xlink:href="#f6_bv" transform="matrix(14,0,0,14,319.8,666.9)" />
<use xlink:href="#f6_ct" transform="matrix(14,0,0,14,331.7,666.9)" />
<use xlink:href="#f6_c0" transform="matrix(14,0,0,14,337.3,666.9)" />
<use xlink:href="#f6_b9" transform="matrix(14,0,0,14,349.9,666.9)" />
<use xlink:href="#f6_by" transform="matrix(14,0,0,14,371,666.9)" />
<use xlink:href="#f6_d4" transform="matrix(14,0,0,14,385.1,666.9)" />
<use xlink:href="#f6_n1" transform="matrix(14,0,0,14,385,666.9)" />
<use xlink:href="#f6_k" transform="matrix(14,0,0,14,398.1,666.9)" />
<use xlink:href="#f6_bh" transform="matrix(14,0,0,14,167.6,701.3)" />
<use xlink:href="#f6_ct" transform="matrix(14,0,0,14,184.4,701.3)" />
<use xlink:href="#f6_c3" transform="matrix(14,0,0,14,190,701.3)" />
<use xlink:href="#f6_c1" transform="matrix(14,0,0,14,204.7,701.3)" />
<use xlink:href="#f6_bb" transform="matrix(14,0,0,14,218.8,701.3)" />
<use xlink:href="#f6_ct" transform="matrix(14,0,0,14,231.4,701.3)" />
<use xlink:href="#f6_bg" transform="matrix(14,0,0,14,237,701.3)" />
<use xlink:href="#f6_d4" transform="matrix(14,0,0,14,251.4,701.3)" />
<use xlink:href="#f6_bh" transform="matrix(14,0,0,14,256.9,701.3)" />
<use xlink:href="#f6_bt" transform="matrix(14,0,0,14,273.7,701.3)" />
<use xlink:href="#f6_bh" transform="matrix(14,0,0,14,291.1,701.3)" />
<use xlink:href="#f6_bt" transform="matrix(14,0,0,14,307.9,701.3)" />
<use xlink:href="#f6_k" transform="matrix(14,0,0,14,325.2,701.3)" />
<use xlink:href="#f6_by" transform="matrix(14,0,0,14,330.4,701.3)" />
<use xlink:href="#f6_d4" transform="matrix(14,0,0,14,344.5,701.3)" />
<use xlink:href="#f6_n1" transform="matrix(14,0,0,14,344.4,701.3)" />
<use xlink:href="#f6_bq" transform="matrix(14,0,0,14,363.2,701.3)" />
<use xlink:href="#f6_d8" transform="matrix(14,0,0,14,376.4,701.3)" />
<use xlink:href="#f6_c1" transform="matrix(14,0,0,14,382,701.3)" />
<use xlink:href="#f6_ct" transform="matrix(14,0,0,14,390.4,701.3)" />
<use xlink:href="#f6_bz" transform="matrix(14,0,0,14,401.7,701.3)" />
<use xlink:href="#f6_dj" transform="matrix(14,0,0,14,409.2,701.7)" />
<use xlink:href="#f6_br" transform="matrix(14,0,0,14,415,701.3)" />
<use xlink:href="#f6_nr" transform="matrix(14,0,0,14,426.7,701.3)" />
<use xlink:href="#f6_c1" transform="matrix(14,0,0,14,432.3,701.3)" />
<use xlink:href="#f6_c0" transform="matrix(14,0,0,14,440.7,701.3)" />
<use xlink:href="#f6_d4" transform="matrix(14,0,0,14,453.4,701.3)" />
<use xlink:href="#f6_bz" transform="matrix(14,0,0,14,161.9,735.6)" />
<use xlink:href="#f6_dj" transform="matrix(14,0,0,14,169.3,736.1)" />
<use xlink:href="#f6_br" transform="matrix(14,0,0,14,175.2,735.6)" />
<use xlink:href="#f6_nr" transform="matrix(14,0,0,14,186.9,735.6)" />
<use xlink:href="#f6_c1" transform="matrix(14,0,0,14,192.5,735.6)" />
<use xlink:href="#f6_c0" transform="matrix(14,0,0,14,200.9,735.6)" />
<use xlink:href="#f6_d4" transform="matrix(14,0,0,14,213.6,735.6)" />
<use xlink:href="#f6_br" transform="matrix(14,0,0,14,219.1,735.6)" />
<use xlink:href="#f6_ct" transform="matrix(14,0,0,14,230.8,735.6)" />
<use xlink:href="#f6_br" transform="matrix(14,0,0,14,236.4,735.6)" />
<use xlink:href="#f6_ct" transform="matrix(14,0,0,14,248.1,735.6)" />
<use xlink:href="#f6_bz" transform="matrix(14,0,0,14,259.3,735.6)" />
<use xlink:href="#f6_dj" transform="matrix(14,0,0,14,266.8,736.1)" />
<use xlink:href="#f6_br" transform="matrix(14,0,0,14,272.7,735.6)" />
<use xlink:href="#f6_nr" transform="matrix(14,0,0,14,284.4,735.6)" />
<use xlink:href="#f6_c1" transform="matrix(14,0,0,14,290,735.6)" />
<use xlink:href="#f6_c0" transform="matrix(14,0,0,14,298.4,735.6)" />
<use xlink:href="#f6_d4" transform="matrix(14,0,0,14,311,735.6)" />
<use xlink:href="#f6_pd" transform="matrix(14,0,0,14,316.6,735.6)" />
<use xlink:href="#f6_n8" transform="matrix(14,0,0,14,324.1,735.6)" />
<use xlink:href="#f6_bh" transform="matrix(14,0,0,14,351.5,735.6)" />
<use xlink:href="#f6_cv" transform="matrix(14,0,0,14,368.3,735.6)" />
<use xlink:href="#f6_bo" transform="matrix(14,0,0,14,373.9,735.6)" />
<use xlink:href="#f6_d8" transform="matrix(14,0,0,14,388.3,735.6)" />
<use xlink:href="#f6_bh" transform="matrix(14,0,0,14,399.6,735.6)" />
<use xlink:href="#f6_cv" transform="matrix(14,0,0,14,416.4,735.6)" />
<use xlink:href="#f6_bo" transform="matrix(14,0,0,14,422,735.6)" />
<use xlink:href="#f6_d8" transform="matrix(14,0,0,14,436.3,735.6)" />
<use xlink:href="#f6_pc" transform="matrix(14,0,0,14,442,735.6)" />
<use xlink:href="#f6_pc" transform="matrix(14,0,0,14,446.2,735.6)" />
<use xlink:href="#f6_pc" transform="matrix(14,0,0,14,450.5,735.6)" />
<use xlink:href="#f6_pc" transform="matrix(14,0,0,14,454.8,735.6)" />
<use xlink:href="#f7_4r" transform="matrix(9,0,0,9,290.2,795.2)" />
<use xlink:href="#f8_q" transform="matrix(9,0,0,9,303,795.2)" />
<use xlink:href="#f8_q" transform="matrix(9,0,0,9,310.7,795.2)" />
<use xlink:href="#f7_4r" transform="matrix(9,0,0,9,321.3,795.2)" />
</g>
</g>
<image preserveAspectRatio="none" x="22" y="801" width="581" height="86" xlink:href="img/1.png"/>
<path d="M205.1,83.6h212v1.2h-212V83.6Z" class="g1_72"/>
<image preserveAspectRatio="none" x="202" y="14" width="217" height="26" xlink:href="img/2.png"/>
<defs>
<path d="M284,413l313,62c0,0,109,-44,211,-44c0,0,96,0,150,43V822H646L749,749V539H380c0,0,-123,0,-123,-73c0,0,0,-26,27,-53ZM510,-393L316,-91c0,0,-96,26,-214,108l54,206l113,-1L362,84l31,-1c0,0,99,0,183,56c0,0,84,57,87,125L417,200c0,0,-162,48,-264,141c0,0,-103,94,-103,195c0,0,0,84,73,142c0,0,73,57,207,57H529v87H0L-86,937l32,64H1317l86,-115l-33,-64H1100l102,-73V-31l-70,-34L958,29V249l-44,-5c0,0,-32,0,-83,11c0,0,12,-41,12,-81c0,0,0,-127,-102,-193c0,0,-102,-67,-235,-82L694,-260L510,-393Z"
id="f5_bh"
transform="scale(0.001,-0.001)"/>

<path d="M277,-65L102,29V822H0L-86,937l32,64H110c0,0,-50,142,-110,226c0,0,-60,84,-149,84c0,0,-59,0,-97,-37c0,0,-39,-36,-39,-91c0,0,0,-57,42,-115l-95,-50c0,0,-145,116,-145,267c0,0,0,108,75,179c0,0,76,70,195,70c0,0,179,0,297,-150c0,0,119,-150,189,-383H463L548,886L516,822H244L347,749V-31L277,-65Z"
id="f5_cv"
transform="scale(0.001,-0.001)"/>

<path d="M356,367c0,0,79,0,79,99V822H199l96,-73V393c0,0,23,-26,61,-26ZM969,-65L794,29V822H568L672,749V460c0,0,0,-142,-61,-209c0,0,-61,-66,-159,-66c0,0,-136,0,-261,116C191,301,66,417,61,550V822H-22l-87,115l32,64H1153l86,-115l-32,-64H937l102,-73V-31L969,-65Z"
id="f5_bo"
transform="scale(0.001,-0.001)"/>

<path d="M277,-65L102,29V822H0L-86,937l32,64H86L18,1111c0,0,-67,122,-168,122c0,0,-81,0,-202,-80l-128,250c0,0,122,77,232,77c0,0,196,0,356,-250L252,1001H463L548,886L516,822H244L347,749V-31L277,-65Z"
id="f5_d8"
transform="scale(0.001,-0.001)"/>

<path d="M136,339L50,477l33,64H547L633,403L600,339Z"
id="f5_pd"
transform="scale(0.001,-0.001)"/>

<path d="M509,-66c0,0,-306,0,-513,457l128,70c0,0,72,-152,148,-233c0,0,76,-81,173,-81c0,0,73,0,118,43c0,0,45,44,45,103c0,0,0,90,-79,123L374,322L231,538c0,0,87,79,218,87c0,0,60,41,60,99c0,0,0,57,-55,98H0L-86,937l32,64H891L976,886L944,822H651c0,0,76,-72,76,-159c0,0,0,-84,-62,-148c0,0,79,-52,121,-128c0,0,42,-75,42,-156c0,0,0,-127,-90,-213c0,0,-90,-84,-229,-84Z"
id="f5_ap"
transform="scale(0.001,-0.001)"/>

<path d="M550,-407c0,0,-38,15,-87,52c0,0,-49,37,-73,72c0,0,56,113,129,157c0,0,84,-32,156,-124c0,0,-17,-44,-52,-88c0,0,-35,-44,-73,-69Zm23,306c0,0,-296,0,-555,382l104,86c0,0,167,-260,381,-260c0,0,87,0,151,46c0,0,64,46,63,113L489,194c0,0,-167,54,-273,152c0,0,-106,99,-106,206c0,0,0,87,72,142c0,0,72,55,211,55H588v73H0L-86,937l32,64H949l85,-115l-32,-64H706L808,749V545H445c0,0,-127,0,-127,-64c0,0,0,-35,38,-62l278,64c0,0,125,-43,193,-130c0,0,67,-87,67,-182c0,0,0,-116,-91,-194c0,0,-91,-78,-230,-78Z"
id="f5_ch"
transform="scale(0.001,-0.001)"/>

<path d="M-289,908l-132,216c0,0,-70,120,-169,120c0,0,-83,0,-200,-80l-130,249c0,0,125,78,234,78c0,0,187,0,349,-241L-159,969L-289,908Z"
id="f5_d4"
transform="scale(0.001,-0.001)"/>

<path d="M545,-97L35,405L87,542H295c0,0,1,5,1,280H0L-86,937l32,64H729L814,886L782,822H445L550,749V547c0,0,0,-75,-41,-127c0,0,-41,-52,-129,-111L709,110V41L545,-97Z"
id="f5_c1"
transform="scale(0.001,-0.001)"/>

<path d="M831,-65L657,29V822H332L434,749V200L341,150c0,0,-93,32,-190,121c0,0,-96,90,-125,175l52,83H196l-5,293H0L-86,937l32,64H1016l86,-115l-33,-64H799L901,749V-31L831,-65Z"
id="f5_bb"
transform="scale(0.001,-0.001)"/>

<path d="M-272,-497c0,0,-249,0,-541,361l105,97c0,0,154,-169,229,-220c0,0,75,-50,145,-50c0,0,68,0,110,38c0,0,43,38,43,90c0,0,0,49,-41,86L-367,-234L-517,-89c0,0,38,66,99,102c0,0,62,37,129,37c0,0,113,0,200,-92c0,0,87,-93,87,-209c0,0,0,-105,-77,-176c0,0,-77,-70,-193,-70Z"
id="f5_cw"
transform="scale(0.001,-0.001)"/>

<path d="M472,-77C472,-77,28,171,28,448c0,0,0,116,77,191c0,0,77,74,188,74c0,0,51,0,95,-18L527,574c0,0,104,114,277,117V822H0L-86,937l32,64H1164l86,-115l-32,-64H946l102,-73V-31L978,-65L804,29V526c0,0,-130,-78,-133,-294L611,196L431,309c0,0,0,97,33,174c0,0,-22,10,-53,10c0,0,-52,0,-90,-36c0,0,-38,-37,-38,-99c0,0,0,-80,68,-150c0,0,69,-70,214,-161L472,-77Z"
id="f5_c3"
transform="scale(0.001,-0.001)"/>

<path d="M277,-65L102,29V822H0L-86,937l32,64H463L548,886L516,822H244L347,749V-31L277,-65Z"
id="f5_ct"
transform="scale(0.001,-0.001)"/>

<path d="M252,385l310,78l22,-9c0,0,107,-43,200,-43c0,0,91,0,151,41V822H603l66,-58V585H373c0,0,-184,0,-184,-99c0,0,0,-48,63,-101ZM483,-305L295,-10c0,0,-90,22,-156,74l41,170h66L351,63c0,0,126,4,207,62c0,0,82,58,82,139c0,0,0,37,-18,71L365,266c0,0,-110,15,-197,102c0,0,-87,87,-87,176c0,0,0,69,59,117c0,0,59,48,172,48H550V822H0l-45,76l14,31H1199l46,-76l-14,-31H996l66,-58V-39l-37,-10L935,8V318c0,0,-41,-15,-78,-15c0,0,-52,0,-131,30c0,0,32,-55,32,-111c0,0,0,-109,-98,-179c0,0,-98,-69,-254,-69L599,-216L483,-305Z"
id="f6_bh"
transform="scale(0.001,-0.001)"/>

<path d="M228,-49L138,8V822H0l-45,76l14,31H138c0,0,-109,342,-284,342c0,0,-62,0,-102,-40c0,0,-40,-39,-40,-93c0,0,0,-61,51,-134l-42,-32c0,0,-128,113,-128,226c0,0,0,79,60,136c0,0,61,56,154,56c0,0,137,0,249,-125c0,0,112,-125,169,-336H402l46,-76L434,822H199l65,-58V-39L228,-49Z"
id="f6_cv"
transform="scale(0.001,-0.001)"/>

<path d="M342,324c0,0,45,0,75,34c0,0,31,33,31,100V822H165l66,-58V390c0,0,32,-66,111,-66ZM853,-49L762,8V822H509l65,-58V455c0,0,0,-134,-51,-185c0,0,-52,-52,-127,-52c0,0,-98,0,-195,99c0,0,-97,99,-97,209V822H0l-45,76l14,31H1027l46,-76l-14,-31H823l66,-58V-39L853,-49Z"
id="f6_bo"
transform="scale(0.001,-0.001)"/>

<path d="M228,-49L138,8V822H0l-45,76l14,31H119L-33,1144c0,0,-70,92,-157,92c0,0,-69,0,-159,-58l-72,118c0,0,89,73,181,73c0,0,140,0,257,-170L205,929H402l46,-76L434,822H199l65,-58V-39L228,-49Z"
id="f6_d8"
transform="scale(0.001,-0.001)"/>

<path d="M92,380L46,457l14,30H448l45,-76L480,380Z"
id="f6_pd"
transform="scale(0.001,-0.001)"/>

<path d="M471,-26c0,0,-259,0,-448,396l70,43C93,413,240,98,442,98c0,0,79,0,132,46c0,0,54,45,54,120c0,0,0,61,-38,116c0,0,-38,54,-107,72L322,370L255,492c0,0,66,53,156,56c0,0,128,51,128,153c0,0,0,77,-65,121H0l-45,76l14,31H813l46,-76L845,822H578c0,0,76,-66,76,-157c0,0,0,-95,-87,-156c0,0,84,-48,131,-123c0,0,48,-76,48,-158c0,0,0,-109,-78,-182c0,0,-78,-72,-197,-72Z"
id="f6_ap"
transform="scale(0.001,-0.001)"/>

<path d="M547,-285c0,0,-66,25,-102,80c0,0,32,69,82,101c0,0,55,-20,99,-80c0,0,-26,-67,-79,-101Zm1,228c0,0,-122,0,-243,81c0,0,-122,81,-252,280l57,41C110,345,283,64,498,64c0,0,92,0,153,49c0,0,61,49,61,121c0,0,0,46,-28,84L440,237c0,0,-73,11,-139,55c0,0,-66,44,-105,105c0,0,-40,61,-40,119c0,0,0,72,62,125c0,0,62,53,184,53H625V822H0l-45,76l14,31H906l46,-76L938,822H678l66,-58V562H431c0,0,-164,0,-164,-99c0,0,0,-55,57,-102l261,82c0,0,104,-21,172,-98c0,0,68,-78,68,-171c0,0,0,-99,-76,-166c0,0,-77,-65,-201,-65Z"
id="f6_ch"
transform="scale(0.001,-0.001)"/>

<path d="M-214,863l-199,281c0,0,-70,92,-157,92c0,0,-69,0,-159,-58l-72,118c0,0,89,73,180,73c0,0,141,0,258,-170L-155,901l-59,-38Z"
id="f6_d4"
transform="scale(0.001,-0.001)"/>

<path d="M527,-71L52,414l34,92H277c0,0,12,32,12,72V822H0l-45,76l14,31H599l46,-76L631,822H350l66,-55V564c0,0,0,-96,-152,-248L610,34L611,8L527,-71Z"
id="f6_c1"
transform="scale(0.001,-0.001)"/>

<path d="M727,-49L637,8V822H278l66,-58V226L270,196c0,0,-64,36,-122,98c0,0,-58,62,-79,122l43,59H217V822H0l-45,76l14,31H901l46,-76L933,822H698l66,-58V-39L727,-49Z"
id="f6_bb"
transform="scale(0.001,-0.001)"/>

<path d="M-234,-413c0,0,-210,0,-488,322l54,49c0,0,119,-128,209,-193c0,0,90,-65,177,-65c0,0,72,0,113,40c0,0,42,39,42,91c0,0,0,75,-78,106L-323,-181l-90,98c0,0,63,95,167,95c0,0,90,0,155,-69c0,0,66,-70,66,-164c0,0,0,-85,-60,-139c0,0,-61,-53,-149,-53Z"
id="f6_cw"
transform="scale(0.001,-0.001)"/>

<path d="M413,-59C413,-59,53,193,53,416c0,0,0,97,66,164c0,0,66,66,156,66c0,0,61,0,110,-30L487,507c0,0,92,126,257,126l35,-2V822H0l-45,76l14,31H1043l46,-76l-13,-31H840l66,-58V-39L869,-49L779,8V547c0,0,-101,-5,-165,-90c0,0,-64,-86,-70,-222L507,225l-90,73c0,0,5,79,35,151c0,0,-59,66,-128,66c0,0,-57,0,-100,-38c0,0,-44,-39,-44,-109c0,0,0,-165,284,-360L413,-59Z"
id="f6_c3"
transform="scale(0.001,-0.001)"/>

<path d="M228,-49L138,8V822H0l-45,76l14,31H402l46,-76L434,822H199l65,-58V-39L228,-49Z"
id="f6_ct"
transform="scale(0.001,-0.001)"/>

<path d="M108,-222l-44,58c0,0,96,81,104,164L89,61c0,0,12,83,93,122c0,0,50,-15,79,-55c0,0,29,-39,29,-90c0,0,0,-69,-48,-142c0,0,-48,-72,-134,-118Z"
id="f6_k"
transform="scale(0.001,-0.001)"/>

<path d="M823,-49L733,8V339H445V191L371,160c0,0,-56,36,-120,105c0,0,-63,70,-89,131l41,59H313V735c0,0,0,99,-55,140c0,0,-3,1,-8,1c-16,0,-48,-3,-71,-23c0,0,-31,-26,-31,-66c0,0,0,-69,81,-113L189,620C189,620,31,720,31,828c0,0,0,61,45,99c0,0,46,37,109,37c0,0,96,0,173,-86c0,0,76,-87,79,-194V455H733V822H556l-46,76l14,31H998l45,-76l-13,-31H794l66,-58V-39L823,-49Z"
id="f6_by"
transform="scale(0.001,-0.001)"/>

<path d="M527,-71L52,414l34,92H277c0,0,12,32,12,72V822H0l-45,76l14,31H940l45,-76L972,822H350l66,-55V553c0,0,24,52,77,83c0,0,52,30,112,30c0,0,87,0,171,-76c0,0,84,-75,222,-304L938,244L828,411c0,0,-95,134,-195,134c0,0,-63,0,-100,-35c0,0,-36,-36,-36,-87c0,0,0,-50,42,-87l152,99L755,315c0,0,-71,-61,-148,-61c0,0,-80,0,-146,66c0,0,-65,67,-65,164c0,0,-34,-70,-132,-168L610,34L611,8L527,-71Z"
id="f6_n1"
transform="scale(0.001,-0.001)"/>

<path d="M768,-49L678,8V202c0,0,-73,-58,-172,-58c0,0,-123,0,-240,94c0,0,-118,94,-179,237l20,55c0,0,134,12,215,70c0,0,81,57,81,141c0,0,0,90,-67,134l-26,3c0,0,-46,0,-74,-29c0,0,-28,-30,-28,-68c0,0,0,-55,82,-109L252,620C252,620,93,720,93,820c0,0,0,65,47,104c0,0,46,40,114,40c0,0,99,0,179,-83c0,0,80,-83,82,-197c0,0,0,-93,-79,-165c0,0,-78,-73,-199,-97c0,0,29,-104,88,-158c0,0,42,-16,92,-16c0,0,78,0,151,38c0,0,74,38,110,111V822H553l-46,76l14,31H943l45,-76L975,822H739l66,-58V-39L768,-49Z"
id="f6_bq"
transform="scale(0.001,-0.001)"/>

<path d="M689,445V822H286l65,-58l8,-319ZM779,-49L689,8V328H370V180L296,150c0,0,-56,35,-120,104c0,0,-63,70,-89,131l41,60H238L223,822H0l-45,76l14,31H953l46,-76L985,822H750l66,-58V-39L779,-49Z"
id="f6_bz"
transform="scale(0.001,-0.001)"/>

<path d="M0,1062c0,0,-26,11,-60,36c0,0,-34,26,-51,49c0,0,39,81,91,110c0,0,60,-23,106,-85c0,0,-28,-70,-86,-110Z"
id="f6_dj"
transform="scale(0.001,-0.001)"/>

<path d="M675,-274L602,21C602,21,550,3,498,3C498,3,347,3,210,118C210,118,73,232,73,373c0,0,0,113,84,184c0,0,84,71,222,72H524V822H0l-45,76l14,31H834l46,-76L866,822H585l66,-58V504l-3,2l3,-3H408c0,0,-95,0,-154,-53c0,0,-58,-53,-58,-132c0,0,0,-49,27,-100c0,0,28,-50,83,-84c0,0,44,-15,96,-15c0,0,91,0,160,46L535,303l101,48L773,188c0,0,-8,-28,-34,-66c0,0,-27,-38,-62,-64L813,-221L675,-274Z"
id="f6_br"
transform="scale(0.001,-0.001)"/>

<path d="M228,-49L138,8V822H0l-45,76l14,31H133c0,0,-93,95,-93,206c0,0,0,96,68,159c0,0,68,63,179,63c0,0,118,0,228,-81c0,0,110,-80,258,-262L720,970L588,1109c0,0,-133,133,-253,133c0,0,-78,0,-127,-46c0,0,-49,-46,-49,-119c0,0,0,-69,56,-148H402l46,-76L434,822H199l65,-58V-39L228,-49Z"
id="f6_nr"
transform="scale(0.001,-0.001)"/>

<path d="M374,248c0,0,77,0,149,36c0,0,71,37,110,107V822H284c0,0,138,-96,138,-208c0,0,0,-151,-228,-192c0,0,29,-104,89,-158c0,0,41,-16,91,-16ZM723,-49L633,8V200c0,0,-69,-56,-170,-56c0,0,-122,0,-240,94c0,0,-118,94,-179,237l20,55c0,0,133,17,187,44c0,0,55,28,55,84c0,0,0,45,-30,81c0,0,-30,36,-99,83H0l-45,76l14,31H897l46,-76L929,822H694l65,-58V-39L723,-49Z"
id="f6_c0"
transform="scale(0.001,-0.001)"/>

<path d="M634,-49L249,296c0,0,-1,0,-3,0c-11,0,-48,1,-90,15c0,0,-51,16,-67,36l49,165l50,12l84,-98c0,0,125,31,191,104c0,0,66,73,66,165c0,0,0,109,-95,170c0,0,-2,0,-6,0C397,865,262,858,121,738L46,848c0,0,52,47,127,82c0,0,75,34,152,34c0,0,130,0,226,-94c0,0,95,-94,95,-218c0,0,0,-107,-77,-199c0,0,-77,-92,-216,-134L697,26L698,0L634,-49Z"
id="f6_n8"
transform="scale(0.001,-0.001)"/>

<path d="M226,-49c0,0,-66,24,-102,78c0,0,32,69,82,101c0,0,55,-20,100,-80c0,0,-26,-66,-80,-99Z"
id="f6_pc"
transform="scale(0.001,-0.001)"/>

<path d="M527,-71L52,414l34,92H277c0,0,12,32,12,72V822H0l-45,76l14,31H940l45,-76L972,822H350l66,-55V570c0,0,146,98,247,98c0,0,95,0,167,-73c0,0,71,-72,71,-167c0,0,0,-77,-53,-142c0,0,-54,-64,-159,-136l-89,99c0,0,100,70,152,121c0,0,52,52,52,105c0,0,0,34,-23,60c0,0,-22,26,-72,26c0,0,-139,0,-434,-252L610,34L611,8L527,-71Z"
id="f6_n0"
transform="scale(0.001,-0.001)"/>

<path d="M845,-49L755,8V513H497c0,0,61,-45,93,-110c0,0,33,-64,33,-128c0,0,0,-90,-58,-144c0,0,-59,-53,-143,-53c0,0,-133,0,-234,139C188,217,87,356,20,596l76,24c0,0,60,-201,127,-306c0,0,67,-105,160,-105c0,0,57,0,91,36c0,0,33,36,33,91c0,0,0,84,-73,159L295,558v71H755V822H0l-45,76l14,31H1019l46,-76l-14,-31H816l66,-58V-39L845,-49Z"
id="f6_bg"
transform="scale(0.001,-0.001)"/>

<path d="M799,475V822H350l66,-55V564c0,0,0,-43,-25,-89ZM527,-71L52,414l34,92H277c0,0,12,32,12,72V822H0l-45,76l14,31H1063l46,-76l-14,-31H860l66,-58V-39L889,-49L799,8V370H315L264,316L610,34L611,8L527,-71Z"
id="f6_cb"
transform="scale(0.001,-0.001)"/>

<path d="M108,-433L-59,-214c0,0,-99,119,-191,119c0,0,-59,0,-96,-35c0,0,-36,-34,-36,-81c0,0,0,-49,42,-83l152,95l64,-116c0,0,-71,-58,-148,-58c0,0,-80,0,-146,63c0,0,-65,64,-65,144c0,0,0,77,62,131c0,0,61,53,142,53c0,0,138,0,296,-205L165,-393l-57,-40Z"
id="f6_cx"
transform="scale(0.001,-0.001)"/>

<path d="M347,-57C347,-57,66,211,66,394c0,0,0,98,74,164c0,0,74,65,225,65H616V822H0l-45,76l14,31H880l46,-76L912,822H677l66,-58V-39L706,-49L616,8V500H428c0,0,-239,0,-239,-161c0,0,0,-136,214,-343L347,-57Z"
id="f6_bp"
transform="scale(0.001,-0.001)"/>

<path d="M180,220c0,0,-105,99,-162,238l63,72H556l40,-85L574,414H254V249L180,220ZM0,822l-45,76l14,31H471l45,-76L503,822Z"
id="f6_li"
transform="scale(0.001,-0.001)"/>

<path d="M348,229c0,0,57,0,106,17L263,559c0,0,-95,-50,-95,-162c0,0,0,-75,52,-136c0,0,49,-32,128,-32Zm170,48c0,0,61,38,96,91V504c0,0,-131,80,-244,80l-35,-2L518,277ZM704,-49L614,8V193c0,0,-84,-65,-192,-65c0,0,-139,0,-255,98c0,0,-115,98,-115,226c0,0,0,106,77,175c0,0,77,70,189,70c0,0,38,0,75,-9L614,578V822H0l-45,76l14,31H878l46,-76L911,822H675l66,-58V-39L704,-49Z"
id="f6_bx"
transform="scale(0.001,-0.001)"/>

<path d="M548,-57c0,0,-122,0,-243,81c0,0,-122,81,-252,280l57,41C110,345,283,64,498,64c0,0,92,0,153,49c0,0,61,49,61,121c0,0,0,46,-28,84L440,237c0,0,-73,11,-139,55c0,0,-66,44,-105,105c0,0,-40,61,-40,119c0,0,0,72,62,125c0,0,62,53,184,53H625V822H0l-45,76l14,31H906l46,-76L938,822H678l66,-58V562H431c0,0,-164,0,-164,-99c0,0,0,-55,57,-102l261,82c0,0,104,-21,172,-98c0,0,68,-78,68,-171c0,0,0,-99,-76,-166c0,0,-77,-65,-201,-65Z"
id="f6_bm"
transform="scale(0.001,-0.001)"/>

<path d="M663,-49L573,8V445H299V280L226,251c0,0,-105,99,-162,238l63,72H573V822H0l-45,76l14,31H837l46,-76L869,822H634l66,-58V-39L663,-49Z"
id="f6_bt"
transform="scale(0.001,-0.001)"/>

<path d="M388,325c0,0,58,0,112,31c0,0,53,31,84,86V822H165l69,-58V408c0,0,47,-83,154,-83ZM674,-49L584,8V257c0,0,-61,-51,-141,-51c0,0,-125,0,-232,109c0,0,-107,108,-107,243V822H0l-45,76l14,31H848l46,-76L880,822H645l65,-58V-39L674,-49Z"
id="f6_bv"
transform="scale(0.001,-0.001)"/>

<path d="M959,-49L869,8V367c0,0,-32,-13,-64,-13c0,0,-50,0,-110,25c0,0,23,-52,23,-109c0,0,0,-103,-70,-170c0,0,-70,-66,-182,-66c0,0,-110,0,-222,82c0,0,-111,83,-213,293l68,42c0,0,72,-155,152,-231c0,0,81,-76,178,-76c0,0,83,0,131,49c0,0,48,48,48,117c0,0,0,54,-30,100c0,0,-31,47,-91,65L325,391L257,512c0,0,68,53,156,56c0,0,140,72,140,179c0,0,0,69,-52,99c0,0,-4,1,-11,1c-19,0,-66,-4,-123,-30c0,0,-78,-35,-142,-96L150,823c0,0,119,117,253,117c0,0,98,0,175,-71c0,0,77,-70,77,-159c0,0,0,-103,-94,-180c0,0,39,-23,73,-56c0,0,52,-22,109,-22c0,0,77,0,126,38V822H727l-46,76l14,31h439l45,-76l-13,-31H930l66,-58V-39L959,-49Z"
id="f6_al"
transform="scale(0.001,-0.001)"/>

<path d="M825,-49L735,8V217c0,0,-86,-72,-197,-72c0,0,-130,0,-238,91c0,0,-107,91,-107,204c0,0,0,55,27,105H55L12,616l14,30H574l46,-76L607,539H396c0,0,-78,-49,-78,-162c0,0,0,-70,40,-111c0,0,39,-15,94,-15c0,0,84,0,163,41c0,0,79,41,120,121V822H0l-45,76l14,31H999l46,-76l-14,-31H796l66,-58V-39L825,-49Z"
id="f6_be"
transform="scale(0.001,-0.001)"/>

<path d="M471,-26c0,0,-259,0,-448,396l70,43C93,413,240,98,442,98c0,0,79,0,132,46c0,0,54,45,54,120c0,0,0,61,-38,116c0,0,-38,54,-107,72L322,370L255,492c0,0,66,53,156,56c0,0,128,51,128,153c0,0,0,77,-65,121H0l-45,76l14,31H1123l46,-76l-14,-31H578c0,0,76,-66,76,-157c0,0,0,-95,-87,-156c0,0,52,-29,84,-64c0,0,131,134,243,134c0,0,93,0,158,-70c0,0,65,-71,65,-167c0,0,0,-142,-177,-272L851,170c0,0,173,129,173,230c0,0,0,34,-23,57c0,0,-23,23,-63,23c0,0,-104,0,-215,-141c0,0,23,-55,23,-111c0,0,0,-109,-78,-182c0,0,-78,-72,-197,-72Z"
id="f6_aq"
transform="scale(0.001,-0.001)"/>

<path d="M325,240c0,0,77,0,154,35c0,0,77,35,120,99V500c0,0,-118,73,-222,73c0,0,-97,0,-151,-54c0,0,-53,-53,-53,-128c0,0,0,-73,49,-125c0,0,38,-26,103,-26ZM689,-49L599,8V199c0,0,-73,-65,-179,-65c0,0,-134,0,-252,96c0,0,-118,95,-118,221c0,0,0,102,78,171c0,0,78,69,190,69c0,0,38,0,75,-10L599,582V822H0l-45,76l14,31H863l46,-76L895,822H660l66,-58V-39L689,-49Z"
id="f6_c7"
transform="scale(0.001,-0.001)"/>

<path d="M283,260c0,0,122,0,209,113V513c0,0,-90,51,-160,51c0,0,-80,0,-129,-50c0,0,-49,-50,-49,-118c0,0,0,-60,35,-110c0,0,45,-26,94,-26ZM582,-49L492,8V211c0,0,-63,-54,-141,-54c0,0,-113,0,-213,92c0,0,-100,92,-100,205c0,0,0,93,69,157c0,0,69,64,162,64c0,0,32,0,64,-9L492,590V822H0l-45,76l14,31H1108l45,-76l-13,-31H553l66,-58V524c0,0,91,89,192,89c0,0,98,0,171,-79c0,0,72,-79,72,-186c0,0,0,-178,-224,-330L736,124c0,0,219,153,219,269c0,0,0,44,-26,75c0,0,-26,32,-81,32c0,0,-109,0,-229,-155V-39L582,-49Z"
id="f6_b9"
transform="scale(0.001,-0.001)"/>

<path d="M526,-266c0,0,-66,24,-103,79c0,0,32,69,83,101c0,0,55,-20,99,-80c0,0,-26,-67,-79,-100ZM570,78c0,0,66,17,105,54c0,0,40,38,40,88c0,0,0,40,-23,66c0,0,-23,26,-58,26c0,0,-40,0,-71,-33c0,0,-31,-33,-31,-90c0,0,0,-55,38,-111ZM538,-45c0,0,-182,0,-322,128C216,83,76,211,76,368c0,0,0,122,91,201c0,0,90,79,238,79H564V822H0l-45,76l14,31H853l45,-76L885,822H617l66,-58V521H420c0,0,-99,0,-162,-57c0,0,-62,-58,-62,-146c0,0,0,-121,105,-208c0,0,118,-41,188,-41l29,1l-69,46c0,0,-36,55,-36,115c0,0,0,73,48,123c0,0,49,49,123,49c0,0,87,0,151,-74c0,0,64,-74,64,-162c0,0,0,-94,-71,-153c0,0,-71,-59,-190,-59Z"
id="f6_ci"
transform="scale(0.001,-0.001)"/>

<path d="M283,260c0,0,122,0,209,113V513c0,0,-90,51,-160,51c0,0,-80,0,-129,-50c0,0,-49,-50,-49,-118c0,0,0,-60,35,-110c0,0,45,-26,94,-26ZM582,-49L492,8V211c0,0,-63,-54,-141,-54c0,0,-113,0,-214,92c0,0,-102,92,-102,206c0,0,0,93,69,157c0,0,69,63,163,63c0,0,34,0,66,-9L492,590V822H0l-45,76l14,31H909l46,-76L941,822H553l66,-58V521c0,0,93,104,192,104c0,0,63,0,120,-42c0,0,57,-42,82,-106L964,431l-5,9c0,0,-38,72,-110,72c0,0,-51,0,-105,-41c0,0,-53,-42,-125,-129V-39L582,-49Z"
id="f6_l1"
transform="scale(0.001,-0.001)"/>

<path d="M688,-243c0,0,-256,53,-408,173c0,0,-152,119,-152,270c0,0,0,101,68,171c0,0,-101,84,-101,179c0,0,0,64,53,112c0,0,54,47,191,47H587V822H0l-45,76l14,31H830l45,-76L862,822H640l66,-58V585H362c0,0,-159,-1,-159,-92c0,0,0,-41,46,-80c0,0,76,47,183,47c0,0,135,0,230,-76c0,0,96,-75,96,-187C758,197,758,67,629,2L545,104c0,0,49,30,81,75c0,0,32,44,32,82c0,0,0,16,-4,26c0,0,-64,58,-167,58c0,0,-97,0,-166,-50v-2c0,0,-67,-52,-67,-131c0,0,0,-116,132,-199c0,0,132,-84,334,-132l-32,-74Z"
id="f6_cc"
transform="scale(0.001,-0.001)"/>

<path d="M-214,860l-227,219c0,0,-73,70,-148,70c0,0,-67,0,-160,-58l-72,117c0,0,83,71,176,71c0,0,120,0,232,-124L-221,940l-102,294c0,0,-64,179,-189,179c0,0,-60,0,-133,-33l-60,125c0,0,84,47,164,47c0,0,200,0,281,-276L-150,901l-23,-15l-41,-26Z"
id="f6_d5"
transform="scale(0.001,-0.001)"/>

<path d="M487,-7c0,0,-88,0,-185,46c0,0,-97,47,-163,130c0,0,-66,83,-66,185c0,0,0,109,80,177c0,0,79,68,234,68H504V822H0l-45,76l14,31H827l45,-76L859,822H565l66,-58V474l-3,1l3,-3H396c0,0,-100,0,-152,-47c0,0,-53,-48,-53,-119c0,0,0,-104,93,-178c0,0,60,-20,118,-20c0,0,81,0,156,36c0,0,76,35,123,99l92,-99C773,144,723,70,645,31C645,31,567,-7,487,-7Z"
id="f6_bk"
transform="scale(0.001,-0.001)"/>

<path d="M228,-49L138,8V822H0l-45,76l14,31H134c0,0,-91,92,-91,191c0,0,0,105,85,170c0,0,84,65,219,65c0,0,128,0,293,-76c0,0,165,-77,362,-263L958,966c0,0,-177,143,-303,210c0,0,-125,68,-244,68c0,0,-107,0,-175,-50c0,0,-68,-50,-68,-131c0,0,0,-61,49,-134H402l46,-76L434,822H199l65,-58V-39L228,-49Z"
id="f6_cu"
transform="scale(0.001,-0.001)"/>

<path d="M652,-518c0,0,-209,0,-487,322l53,49c0,0,120,-129,210,-193c0,0,90,-65,177,-65c0,0,72,0,113,39c0,0,41,40,41,92c0,0,0,75,-78,105L564,-286l-90,98c0,0,62,96,169,96L605,37C605,37,552,18,498,18c0,0,-151,0,-288,115C210,133,73,248,73,388c0,0,0,113,84,184c0,0,84,71,222,73H524V822H0l-45,76l14,31H842l46,-76L874,822H567l84,-73V519l-3,2l3,-3H408c0,0,-93,0,-153,-52c0,0,-59,-52,-59,-128c0,0,0,-121,110,-188c0,0,53,-17,105,-17c0,0,92,0,153,43L535,318l101,49L773,203c0,0,-20,-67,-87,-122l61,-204c0,0,52,-32,83,-87c0,0,32,-55,32,-116c0,0,0,-85,-61,-139c0,0,-60,-53,-149,-53Z"
id="f6_mv"
transform="scale(0.001,-0.001)"/>

<path d="M228,-49L138,8V822H0l-45,76l14,31H134c0,0,-90,95,-90,199c0,0,0,111,99,177c0,0,98,67,271,67c0,0,202,0,439,-91c0,0,238,-91,475,-263l-48,-49c0,0,-469,288,-812,288c0,0,-138,0,-220,-49c0,0,-83,-50,-83,-142c0,0,0,-64,50,-137H402l46,-76L434,822H199l65,-58V-39L228,-49Z"
id="f6_nv"
transform="scale(0.001,-0.001)"/>

<path d="M761,293c0,0,127,0,169,94V532c0,0,-68,46,-145,46c0,0,-76,0,-121,-46c0,0,-45,-45,-45,-107c0,0,0,-61,44,-110c0,0,47,-22,98,-22ZM657,67c0,0,166,0,273,107v55c0,0,-45,-36,-111,-36c0,0,-110,0,-207,90c0,0,-97,90,-97,194c0,0,0,85,66,148c0,0,65,63,155,63l48,-5L930,603V822H376l62,-55V579c0,0,0,-60,-23,-102c0,0,-24,-42,-148,-190c0,0,66,-104,175,-162c0,0,108,-58,215,-58ZM1021,-49L930,8V53c0,0,-105,-83,-264,-83c0,0,-177,0,-339,128C327,98,165,226,90,429l34,77H296c0,0,19,39,19,102l-2,214H0l-45,76l14,31H1195l46,-76l-14,-31H992l65,-58V-39l-36,-10Z"
id="f6_ba"
transform="scale(0.001,-0.001)"/>

<path d="M228,-49L138,8V822H0l-45,76l14,31H134c0,0,-91,93,-91,200c0,0,0,109,92,174c0,0,93,66,253,66c0,0,186,0,398,-89c0,0,212,-90,430,-264l-49,-47c0,0,-424,285,-727,285c0,0,-125,0,-201,-49c0,0,-76,-48,-76,-137c0,0,0,-67,52,-139H402l46,-76L434,822H199l65,-58V-39L228,-49Z"
id="f6_nu"
transform="scale(0.001,-0.001)"/>

<path d="M0,822l-45,76l14,31H61l46,-76L93,822Z"
id="f6_no"
transform="scale(0.001,-0.001)"/>

<path d="M725,307c0,0,-95,0,-218,78c0,0,-123,78,-188,78c0,0,-54,0,-95,-34c0,0,-41,-34,-73,-100L93,362c0,0,38,88,101,146c0,0,63,59,148,59c0,0,90,0,214,-78c0,0,124,-79,188,-79c0,0,63,0,106,34c0,0,42,33,85,104l60,-40c0,0,-32,-66,-101,-134c0,0,-70,-67,-169,-67Z"
id="f7_4r"
transform="scale(0.001,-0.001)"/>

<path d="M435,92c0,0,85,0,146,69c0,0,60,68,60,186c0,0,0,114,-60,179c0,0,-60,66,-152,66c0,0,-90,0,-154,-66c0,0,-63,-65,-63,-171c0,0,0,-70,30,-133c0,0,29,-64,82,-97c0,0,52,-33,111,-33Zm2,-110c0,0,-168,0,-273,123C164,105,58,228,58,512c0,0,0,317,117,461c0,0,102,125,275,125c0,0,129,0,211,-72c0,0,82,-72,99,-200L626,815c0,0,-18,79,-51,115c0,0,-54,58,-134,58c0,0,-64,0,-112,-36c0,0,-63,-46,-99,-135c0,0,-37,-89,-38,-253c0,0,48,74,118,110c0,0,70,36,147,36c0,0,134,0,228,-99c0,0,94,-99,94,-256c0,0,0,-103,-44,-191C735,164,691,75,613,28c0,0,-77,-46,-176,-46Z"
id="f8_q"
transform="scale(0.001,-0.001)"/>


</defs>
</svg>