<?xml version="1.0" encoding="UTF-8" standalone="no"?>
<!DOCTYPE svg PUBLIC "-//W3C//DTD SVG 1.1//EN"
"http://www.w3.org/Graphics/SVG/1.1/DTD/svg11.dtd">
<svg viewBox="0 0 641 910" version="1.1" xmlns="http://www.w3.org/2000/svg" xmlns:xlink="http://www.w3.org/1999/xlink">
<defs>
<clipPath id="c0_117"><path d="M0,909.8V0H641.7V909.8Z"/></clipPath>
<clipPath id="c1_117"><path d="M0,908.6V0H641.7V908.6Z"/></clipPath>
<style type="text/css"><![CDATA[
.g0_117{
fill: #FFFFFF;
}
.g1_117{
}
]]></style>
</defs>
<path d="M0,0H641.7V909.8H0V0Z" class="g0_117"/>
<path d="M0,0H641.7V909.8H0V0Z" class="g0_117"/>
<g clip-path="url(#c0_117)">
<path d="M0,-100077H641.7V6368.5H0V-100077Z" class="g0_117"/>
</g>
<path d="M0,0H641.7V908.6H0V0Z" class="g0_117"/>
<path d="M19.5,60.7H602.7v1.2H19.5V60.7Z" class="g1_117"/>
<g clip-path="url(#c1_117)">
<path d="M0,61.9H641.7V909.8H0V61.9Z" class="g0_117"/>
<g fill="#000000" >
<use xlink:href="#f6_ay" transform="matrix(14,0,0,14,148.1,107.7)" />
<use xlink:href="#f6_c8" transform="matrix(14,0,0,14,165.6,107.7)" />
<use xlink:href="#f6_cv" transform="matrix(14,0,0,14,181.5,107.7)" />
<use xlink:href="#f6_c1" transform="matrix(14,0,0,14,187.1,107.7)" />
<use xlink:href="#f6_bv" transform="matrix(14,0,0,14,195.5,107.7)" />
<use xlink:href="#f6_cw" transform="matrix(14,0,0,14,207.9,107.6)" />
<use xlink:href="#f6_c1" transform="matrix(14,0,0,14,207.4,107.7)" />
<use xlink:href="#f6_cb" transform="matrix(14,0,0,14,221.4,107.7)" />
<use xlink:href="#f6_d8" transform="matrix(14,0,0,14,236.3,107.7)" />
<use xlink:href="#f6_cc" transform="matrix(14,0,0,14,241.9,107.7)" />
<use xlink:href="#f6_ct" transform="matrix(14,0,0,14,253.5,107.7)" />
<use xlink:href="#f6_bz" transform="matrix(14,0,0,14,259.1,107.7)" />
<use xlink:href="#f6_bo" transform="matrix(14,0,0,14,272.5,107.7)" />
<use xlink:href="#f6_d8" transform="matrix(14,0,0,14,286.9,107.7)" />
<use xlink:href="#f6_k" transform="matrix(14,0,0,14,292.5,107.7)" />
<use xlink:href="#f6_j8" transform="matrix(14,0,0,14,303.4,107.7)" />
<use xlink:href="#f6_ct" transform="matrix(14,0,0,14,323.2,107.7)" />
<use xlink:href="#f6_al" transform="matrix(14,0,0,14,334.4,107.7)" />
<use xlink:href="#f6_dj" transform="matrix(14,0,0,14,347.4,108.1)" />
<use xlink:href="#f6_bp" transform="matrix(14,0,0,14,350.3,107.7)" />
<use xlink:href="#f6_nr" transform="matrix(14,0,0,14,362.6,107.7)" />
<use xlink:href="#f6_c1" transform="matrix(14,0,0,14,368.2,107.7)" />
<use xlink:href="#f6_nm" transform="matrix(14,0,0,14,376.6,107.7)" />
<use xlink:href="#f6_eq" transform="matrix(14,0,0,14,376.6,107.7)" />
<use xlink:href="#f6_bv" transform="matrix(14,0,0,14,397.2,107.7)" />
<use xlink:href="#f6_ct" transform="matrix(14,0,0,14,409.1,107.7)" />
<use xlink:href="#f6_c1" transform="matrix(14,0,0,14,414.7,107.7)" />
<use xlink:href="#f6_cb" transform="matrix(14,0,0,14,423.1,107.7)" />
<use xlink:href="#f6_bt" transform="matrix(14,0,0,14,438,107.7)" />
<use xlink:href="#f6_ct" transform="matrix(14,0,0,14,449.7,107.7)" />
<use xlink:href="#f6_no" transform="matrix(14,0,0,14,455.3,107.7)" />
<use xlink:href="#f6_bq" transform="matrix(14,0,0,14,455.3,107.7)" />
<use xlink:href="#f6_k" transform="matrix(14,0,0,14,468.5,107.7)" />
<use xlink:href="#f6_bv" transform="matrix(14,0,0,14,80.5,140.9)" />
<use xlink:href="#f6_cx" transform="matrix(14,0,0,14,92.3,140.8)" />
<use xlink:href="#f6_c7" transform="matrix(14,0,0,14,92.4,140.9)" />
<use xlink:href="#f6_dr" transform="matrix(14,0,0,14,104.9,140.9)" />
<use xlink:href="#f6_am" transform="matrix(14,0,0,14,110.1,140.9)" />
<use xlink:href="#f6_b9" transform="matrix(14,0,0,14,131.6,140.9)" />
<use xlink:href="#f6_ct" transform="matrix(14,0,0,14,147.1,140.9)" />
<use xlink:href="#f6_c8" transform="matrix(14,0,0,14,152.7,140.9)" />
<use xlink:href="#f6_bz" transform="matrix(14,0,0,14,174.3,140.9)" />
<use xlink:href="#f6_ct" transform="matrix(14,0,0,14,187.6,140.9)" />
<use xlink:href="#f6_dj" transform="matrix(14,0,0,14,187.8,141.4)" />
<use xlink:href="#f6_al" transform="matrix(14,0,0,14,198.9,140.9)" />
<use xlink:href="#f6_nl" transform="matrix(14,0,0,14,214.7,140.9)" />
<use xlink:href="#f6_bs" transform="matrix(14,0,0,14,214.7,140.9)" />
<use xlink:href="#f6_c1" transform="matrix(14,0,0,14,228.7,140.9)" />
<use xlink:href="#f6_cb" transform="matrix(14,0,0,14,242.8,140.9)" />
<use xlink:href="#f6_ct" transform="matrix(14,0,0,14,257.7,140.9)" />
<use xlink:href="#f6_bp" transform="matrix(14,0,0,14,263.3,140.9)" />
<use xlink:href="#f6_cc" transform="matrix(14,0,0,14,281.3,140.9)" />
<use xlink:href="#f6_ct" transform="matrix(14,0,0,14,292.9,140.9)" />
<use xlink:href="#f6_no" transform="matrix(14,0,0,14,298.5,140.9)" />
<use xlink:href="#f6_bq" transform="matrix(14,0,0,14,298.5,140.9)" />
<use xlink:href="#f6_k" transform="matrix(14,0,0,14,311.7,140.9)" />
<use xlink:href="#f6_al" transform="matrix(14,0,0,14,322.6,140.9)" />
<use xlink:href="#f6_cu" transform="matrix(14,0,0,14,338.4,140.9)" />
<use xlink:href="#f6_bp" transform="matrix(14,0,0,14,344,140.9)" />
<use xlink:href="#f6_bz" transform="matrix(14,0,0,14,362,140.9)" />
<use xlink:href="#f6_cx" transform="matrix(14,0,0,14,375.3,140.8)" />
<use xlink:href="#f6_cu" transform="matrix(14,0,0,14,375.4,140.9)" />
<use xlink:href="#f6_on" transform="matrix(14,0,0,14,389.4,140.9)" />
<use xlink:href="#f6_bp" transform="matrix(14,0,0,14,381,140.9)" />
<use xlink:href="#f6_bf" transform="matrix(14,0,0,14,399,140.9)" />
<use xlink:href="#f6_d4" transform="matrix(14,0,0,14,413.4,140.9)" />
<use xlink:href="#f6_e6" transform="matrix(14,0,0,14,420.3,140.9)" />
<use xlink:href="#f6_ct" transform="matrix(14,0,0,14,432.4,140.9)" />
<use xlink:href="#f6_be" transform="matrix(14,0,0,14,438,140.9)" />
<use xlink:href="#f6_cu" transform="matrix(14,0,0,14,452,140.9)" />
<use xlink:href="#f6_bt" transform="matrix(14,0,0,14,457.6,140.9)" />
<use xlink:href="#f6_c7" transform="matrix(14,0,0,14,469.4,140.9)" />
<use xlink:href="#f6_ct" transform="matrix(14,0,0,14,481.4,140.9)" />
<use xlink:href="#f6_bp" transform="matrix(14,0,0,14,487.1,140.9)" />
<use xlink:href="#f6_c3" transform="matrix(14,0,0,14,505,140.9)" />
<use xlink:href="#f6_ct" transform="matrix(14,0,0,14,519.7,140.9)" />
<use xlink:href="#f6_c3" transform="matrix(14,0,0,14,525.4,140.9)" />
<use xlink:href="#f6_cb" transform="matrix(14,0,0,14,251.2,166.1)" />
<use xlink:href="#f6_bt" transform="matrix(14,0,0,14,266.1,166.1)" />
<use xlink:href="#f6_d4" transform="matrix(14,0,0,14,278,166.1)" />
<use xlink:href="#f6_bm" transform="matrix(14,0,0,14,277.8,166.1)" />
<use xlink:href="#f6_d8" transform="matrix(14,0,0,14,290.5,166.1)" />
<use xlink:href="#f6_pc" transform="matrix(14,0,0,14,296.1,166.1)" />
<use xlink:href="#f6_pc" transform="matrix(14,0,0,14,300.4,166.1)" />
<use xlink:href="#f6_cb" transform="matrix(14,0,0,14,304.7,166.1)" />
<use xlink:href="#f6_bt" transform="matrix(14,0,0,14,319.6,166.1)" />
<use xlink:href="#f6_d4" transform="matrix(14,0,0,14,331.4,166.1)" />
<use xlink:href="#f6_bm" transform="matrix(14,0,0,14,331.3,166.1)" />
<use xlink:href="#f6_d8" transform="matrix(14,0,0,14,344,166.1)" />
<use xlink:href="#f6_pc" transform="matrix(14,0,0,14,349.6,166.1)" />
<use xlink:href="#f6_pc" transform="matrix(14,0,0,14,353.9,166.1)" />
<use xlink:href="#f6_t" transform="matrix(14,0,0,14,358.1,166.1)" />
<use xlink:href="#f6_ay" transform="matrix(14,0,0,14,125.2,224.6)" />
<use xlink:href="#f6_by" transform="matrix(14,0,0,14,142.7,224.6)" />
<use xlink:href="#f6_ct" transform="matrix(14,0,0,14,156.7,224.6)" />
<use xlink:href="#f6_c1" transform="matrix(14,0,0,14,162.3,224.6)" />
<use xlink:href="#f6_bp" transform="matrix(14,0,0,14,170.7,224.6)" />
<use xlink:href="#f6_bt" transform="matrix(14,0,0,14,188.7,224.6)" />
<use xlink:href="#f6_ct" transform="matrix(14,0,0,14,200.4,224.6)" />
<use xlink:href="#f6_b9" transform="matrix(14,0,0,14,211.7,224.6)" />
<use xlink:href="#f6_bo" transform="matrix(14,0,0,14,227.2,224.6)" />
<use xlink:href="#f6_pd" transform="matrix(14,0,0,14,241.5,224.6)" />
<use xlink:href="#f6_b9" transform="matrix(14,0,0,14,249.1,224.6)" />
<use xlink:href="#f6_bo" transform="matrix(14,0,0,14,264.6,224.6)" />
<use xlink:href="#f6_bz" transform="matrix(14,0,0,14,284.6,224.6)" />
<use xlink:href="#f6_ct" transform="matrix(14,0,0,14,297.9,224.6)" />
<use xlink:href="#f6_dj" transform="matrix(14,0,0,14,298.2,225)" />
<use xlink:href="#f6_k" transform="matrix(14,0,0,14,303.6,224.6)" />
<use xlink:href="#f6_al" transform="matrix(14,0,0,14,314.5,224.6)" />
<use xlink:href="#f6_bt" transform="matrix(14,0,0,14,330.3,224.6)" />
<use xlink:href="#f6_d4" transform="matrix(14,0,0,14,342.2,224.6)" />
<use xlink:href="#f6_bg" transform="matrix(14,0,0,14,347.7,224.6)" />
<use xlink:href="#f6_bt" transform="matrix(14,0,0,14,361.9,224.6)" />
<use xlink:href="#f6_pd" transform="matrix(14,0,0,14,373.7,224.6)" />
<use xlink:href="#f6_bg" transform="matrix(14,0,0,14,381.2,224.6)" />
<use xlink:href="#f6_bt" transform="matrix(14,0,0,14,395.5,224.6)" />
<use xlink:href="#f6_bz" transform="matrix(14,0,0,14,412.8,224.6)" />
<use xlink:href="#f6_ct" transform="matrix(14,0,0,14,426.2,224.6)" />
<use xlink:href="#f6_dj" transform="matrix(14,0,0,14,426.4,225)" />
<use xlink:href="#f6_bf" transform="matrix(14,0,0,14,437.5,224.6)" />
<use xlink:href="#f6_d4" transform="matrix(14,0,0,14,451.9,224.6)" />
<use xlink:href="#f6_c7" transform="matrix(14,0,0,14,458.9,224.6)" />
<use xlink:href="#f6_ct" transform="matrix(14,0,0,14,470.9,224.6)" />
<use xlink:href="#f6_cb" transform="matrix(14,0,0,14,476.6,224.6)" />
<use xlink:href="#f6_k" transform="matrix(14,0,0,14,491.4,224.6)" />
<use xlink:href="#f6_a" transform="matrix(14,0,0,14,74.8,257.8)" />
<use xlink:href="#f6_bp" transform="matrix(14,0,0,14,82.1,257.8)" />
<use xlink:href="#f6_ct" transform="matrix(14,0,0,14,94.4,257.8)" />
<use xlink:href="#f6_ax" transform="matrix(14,0,0,14,105.7,257.8)" />
<use xlink:href="#f6_c3" transform="matrix(14,0,0,14,117.6,257.8)" />
<use xlink:href="#f6_ct" transform="matrix(14,0,0,14,132.3,257.8)" />
<use xlink:href="#f6_be" transform="matrix(14,0,0,14,143.6,257.8)" />
<use xlink:href="#f6_c1" transform="matrix(14,0,0,14,157.6,257.8)" />
<use xlink:href="#f6_bo" transform="matrix(14,0,0,14,165.9,257.8)" />
<use xlink:href="#f6_d4" transform="matrix(14,0,0,14,180.4,257.8)" />
<use xlink:href="#f6_be" transform="matrix(14,0,0,14,186,257.8)" />
<use xlink:href="#f6_cw" transform="matrix(14,0,0,14,200.5,257.7)" />
<use xlink:href="#f6_bz" transform="matrix(14,0,0,14,199.9,257.8)" />
<use xlink:href="#f6_d4" transform="matrix(14,0,0,14,213.4,257.8)" />
<use xlink:href="#f6_k" transform="matrix(14,0,0,14,213.3,257.8)" />
<use xlink:href="#f6_al" transform="matrix(14,0,0,14,224.2,257.8)" />
<use xlink:href="#f6_bt" transform="matrix(14,0,0,14,240,257.8)" />
<use xlink:href="#f6_d4" transform="matrix(14,0,0,14,251.9,257.8)" />
<use xlink:href="#f6_bt" transform="matrix(14,0,0,14,257.4,257.8)" />
<use xlink:href="#f6_bz" transform="matrix(14,0,0,14,269.1,257.8)" />
<use xlink:href="#f6_bt" transform="matrix(14,0,0,14,282.5,257.8)" />
<use xlink:href="#f6_b9" transform="matrix(14,0,0,14,305.5,257.8)" />
<use xlink:href="#f6_c1" transform="matrix(14,0,0,14,321,257.8)" />
<use xlink:href="#f6_oz" transform="matrix(14,0,0,14,329,257.8)" />
<use xlink:href="#f6_bz" transform="matrix(14,0,0,14,335,257.8)" />
<use xlink:href="#f6_dj" transform="matrix(14,0,0,14,342.5,258.2)" />
<use xlink:href="#f6_bm" transform="matrix(14,0,0,14,348.4,257.8)" />
<use xlink:href="#f6_c3" transform="matrix(14,0,0,14,361.1,257.8)" />
<use xlink:href="#f6_c3" transform="matrix(14,0,0,14,381.4,257.8)" />
<use xlink:href="#f6_ct" transform="matrix(14,0,0,14,396.1,257.8)" />
<use xlink:href="#f6_c3" transform="matrix(14,0,0,14,401.8,257.8)" />
<use xlink:href="#f6_cb" transform="matrix(14,0,0,14,427.8,257.8)" />
<use xlink:href="#f6_bt" transform="matrix(14,0,0,14,442.7,257.8)" />
<use xlink:href="#f6_d4" transform="matrix(14,0,0,14,454.5,257.8)" />
<use xlink:href="#f6_bm" transform="matrix(14,0,0,14,454.4,257.8)" />
<use xlink:href="#f6_d8" transform="matrix(14,0,0,14,467.1,257.8)" />
<use xlink:href="#f6_pc" transform="matrix(14,0,0,14,472.7,257.8)" />
<use xlink:href="#f6_pc" transform="matrix(14,0,0,14,477,257.8)" />
<use xlink:href="#f6_cb" transform="matrix(14,0,0,14,481.2,257.8)" />
<use xlink:href="#f6_bt" transform="matrix(14,0,0,14,496.1,257.8)" />
<use xlink:href="#f6_d4" transform="matrix(14,0,0,14,508,257.8)" />
<use xlink:href="#f6_bm" transform="matrix(14,0,0,14,507.8,257.8)" />
<use xlink:href="#f6_d8" transform="matrix(14,0,0,14,520.5,257.8)" />
<use xlink:href="#f6_pc" transform="matrix(14,0,0,14,526.1,257.8)" />
<use xlink:href="#f6_pc" transform="matrix(14,0,0,14,530.4,257.8)" />
<use xlink:href="#f6_u" transform="matrix(14,0,0,14,534.7,257.8)" />
<use xlink:href="#f7_4r" transform="matrix(9,0,0,9,286.8,795.2)" />
<use xlink:href="#f8_l" transform="matrix(9,0,0,9,299.6,795.2)" />
<use xlink:href="#f8_l" transform="matrix(9,0,0,9,307.2,795.2)" />
<use xlink:href="#f8_l" transform="matrix(9,0,0,9,314.9,795.2)" />
<use xlink:href="#f7_4r" transform="matrix(9,0,0,9,325.6,795.2)" />
</g>
</g>
<image preserveAspectRatio="none" x="22" y="801" width="581" height="86" xlink:href="img/1.png"/>
<image preserveAspectRatio="none" x="202" y="14" width="217" height="26" xlink:href="img/2.png"/>
<defs>
<path d="M830,-253l-123,66c0,0,31,47,31,78c0,0,0,44,-64,84L353,130c0,0,-234,113,-234,325V822H0l-45,76l14,31H600L448,1144c0,0,-71,92,-158,92c0,0,-68,0,-159,-58L60,1296c0,0,88,73,180,73c0,0,140,0,258,-170L686,929H848l46,-76L880,822H655l68,-58V561c0,0,0,-176,-41,-241c0,0,-40,-65,-161,-106l-49,82l124,69V822H180l66,-58V283L646,92c0,0,126,-60,176,-110c0,0,50,-51,50,-115c0,0,0,-62,-42,-120Z"
id="f6_ay"
transform="scale(0.001,-0.001)"/>

<path d="M513,460c0,0,61,81,61,179c0,0,0,87,-45,143c0,0,-45,57,-116,57c0,0,-63,0,-102,-43c0,0,-39,-43,-39,-110c0,0,0,-90,68,-151c0,0,68,-61,173,-75ZM581,-83L278,167l-41,-4c0,0,-99,0,-130,37l47,168l51,12l78,-79c0,0,110,40,183,105c0,0,-141,23,-231,107c0,0,-90,84,-90,193c0,0,0,69,37,116H0l-45,76l14,31H1134l45,-76l-13,-31H930l66,-58V-39L959,-49L869,8V822H588c0,0,51,-44,75,-109c0,0,25,-64,25,-122c0,0,0,-105,-81,-213c0,0,-80,-108,-240,-176L658,18l2,-25L581,-83Z"
id="f6_c8"
transform="scale(0.001,-0.001)"/>

<path d="M228,-49L138,8V822H0l-45,76l14,31H138c0,0,-109,342,-284,342c0,0,-62,0,-102,-40c0,0,-40,-39,-40,-93c0,0,0,-61,51,-134l-42,-32c0,0,-128,113,-128,226c0,0,0,79,60,136c0,0,61,56,154,56c0,0,137,0,249,-125c0,0,112,-125,169,-336H402l46,-76L434,822H199l65,-58V-39L228,-49Z"
id="f6_cv"
transform="scale(0.001,-0.001)"/>

<path d="M527,-71L52,414l34,92H277c0,0,12,32,12,72V822H0l-45,76l14,31H599l46,-76L631,822H350l66,-55V564c0,0,0,-96,-152,-248L610,34L611,8L527,-71Z"
id="f6_c1"
transform="scale(0.001,-0.001)"/>

<path d="M388,325c0,0,58,0,112,31c0,0,53,31,84,86V822H165l69,-58V408c0,0,47,-83,154,-83ZM674,-49L584,8V257c0,0,-61,-51,-141,-51c0,0,-125,0,-232,109c0,0,-107,108,-107,243V822H0l-45,76l14,31H848l46,-76L880,822H645l65,-58V-39L674,-49Z"
id="f6_bv"
transform="scale(0.001,-0.001)"/>

<path d="M-234,-413c0,0,-210,0,-488,322l54,49c0,0,119,-128,209,-193c0,0,90,-65,177,-65c0,0,72,0,113,40c0,0,42,39,42,91c0,0,0,75,-78,106L-323,-181l-90,98c0,0,63,95,167,95c0,0,90,0,155,-69c0,0,66,-70,66,-164c0,0,0,-85,-60,-139c0,0,-61,-53,-149,-53Z"
id="f6_cw"
transform="scale(0.001,-0.001)"/>

<path d="M799,475V822H350l66,-55V564c0,0,0,-43,-25,-89ZM527,-71L52,414l34,92H277c0,0,12,32,12,72V822H0l-45,76l14,31H1063l46,-76l-14,-31H860l66,-58V-39L889,-49L799,8V370H315L264,316L610,34L611,8L527,-71Z"
id="f6_cb"
transform="scale(0.001,-0.001)"/>

<path d="M228,-49L138,8V822H0l-45,76l14,31H119L-33,1144c0,0,-70,92,-157,92c0,0,-69,0,-159,-58l-72,118c0,0,89,73,181,73c0,0,140,0,257,-170L205,929H402l46,-76L434,822H199l65,-58V-39L228,-49Z"
id="f6_d8"
transform="scale(0.001,-0.001)"/>

<path d="M688,-243c0,0,-256,53,-408,173c0,0,-152,119,-152,270c0,0,0,101,68,171c0,0,-101,84,-101,179c0,0,0,64,53,112c0,0,54,47,191,47H587V822H0l-45,76l14,31H830l45,-76L862,822H640l66,-58V585H362c0,0,-159,-1,-159,-92c0,0,0,-41,46,-80c0,0,76,47,183,47c0,0,135,0,230,-76c0,0,96,-75,96,-187C758,197,758,67,629,2L545,104c0,0,49,30,81,75c0,0,32,44,32,82c0,0,0,16,-4,26c0,0,-64,58,-167,58c0,0,-97,0,-166,-50v-2c0,0,-67,-52,-67,-131c0,0,0,-116,132,-199c0,0,132,-84,334,-132l-32,-74Z"
id="f6_cc"
transform="scale(0.001,-0.001)"/>

<path d="M228,-49L138,8V822H0l-45,76l14,31H402l46,-76L434,822H199l65,-58V-39L228,-49Z"
id="f6_ct"
transform="scale(0.001,-0.001)"/>

<path d="M689,445V822H286l65,-58l8,-319ZM779,-49L689,8V328H370V180L296,150c0,0,-56,35,-120,104c0,0,-63,70,-89,131l41,60H238L223,822H0l-45,76l14,31H953l46,-76L985,822H750l66,-58V-39L779,-49Z"
id="f6_bz"
transform="scale(0.001,-0.001)"/>

<path d="M342,324c0,0,45,0,75,34c0,0,31,33,31,100V822H165l66,-58V390c0,0,32,-66,111,-66ZM853,-49L762,8V822H509l65,-58V455c0,0,0,-134,-51,-185c0,0,-52,-52,-127,-52c0,0,-98,0,-195,99c0,0,-97,99,-97,209V822H0l-45,76l14,31H1027l46,-76l-14,-31H823l66,-58V-39L853,-49Z"
id="f6_bo"
transform="scale(0.001,-0.001)"/>

<path d="M108,-222l-44,58c0,0,96,81,104,164L89,61c0,0,12,83,93,122c0,0,50,-15,79,-55c0,0,29,-39,29,-90c0,0,0,-69,-48,-142c0,0,-48,-72,-134,-118Z"
id="f6_k"
transform="scale(0.001,-0.001)"/>

<path d="M892,248c0,0,77,0,148,36c0,0,72,37,110,107V822H802c0,0,138,-96,138,-208c0,0,0,-151,-228,-192c0,0,29,-104,89,-158c0,0,41,-16,91,-16ZM347,-57C347,-57,73,203,73,373c0,0,0,110,87,181c0,0,86,71,227,71c0,0,137,0,268,-84c0,0,91,17,130,43c0,0,38,26,38,74c0,0,0,45,-29,81c0,0,-30,36,-99,83H0l-45,76l14,31H1415l46,-76l-14,-31H1212l65,-58V-39l-36,-10L1150,8V200c0,0,-68,-56,-169,-56c0,0,-122,0,-235,90c0,0,-113,90,-176,223c0,0,-77,43,-161,43c0,0,-85,0,-148,-47c0,0,-62,-47,-62,-129c0,0,0,-127,204,-328L347,-57Z"
id="f6_j8"
transform="scale(0.001,-0.001)"/>

<path d="M959,-49L869,8V367c0,0,-32,-13,-64,-13c0,0,-50,0,-110,25c0,0,23,-52,23,-109c0,0,0,-103,-70,-170c0,0,-70,-66,-182,-66c0,0,-110,0,-222,82c0,0,-111,83,-213,293l68,42c0,0,72,-155,152,-231c0,0,81,-76,178,-76c0,0,83,0,131,49c0,0,48,48,48,117c0,0,0,54,-30,100c0,0,-31,47,-91,65L325,391L257,512c0,0,68,53,156,56c0,0,140,72,140,179c0,0,0,69,-52,99c0,0,-4,1,-11,1c-19,0,-66,-4,-123,-30c0,0,-78,-35,-142,-96L150,823c0,0,119,117,253,117c0,0,98,0,175,-71c0,0,77,-70,77,-159c0,0,0,-103,-94,-180c0,0,39,-23,73,-56c0,0,52,-22,109,-22c0,0,77,0,126,38V822H727l-46,76l14,31h439l45,-76l-13,-31H930l66,-58V-39L959,-49Z"
id="f6_al"
transform="scale(0.001,-0.001)"/>

<path d="M0,1062c0,0,-26,11,-60,36c0,0,-34,26,-51,49c0,0,39,81,91,110c0,0,60,-23,106,-85c0,0,-28,-70,-86,-110Z"
id="f6_dj"
transform="scale(0.001,-0.001)"/>

<path d="M347,-57C347,-57,66,211,66,394c0,0,0,98,74,164c0,0,74,65,225,65H616V822H0l-45,76l14,31H880l46,-76L912,822H677l66,-58V-39L706,-49L616,8V500H428c0,0,-239,0,-239,-161c0,0,0,-136,214,-343L347,-57Z"
id="f6_bp"
transform="scale(0.001,-0.001)"/>

<path d="M228,-49L138,8V822H0l-45,76l14,31H133c0,0,-93,95,-93,206c0,0,0,96,68,159c0,0,68,63,179,63c0,0,118,0,228,-81c0,0,110,-80,258,-262L720,970L588,1109c0,0,-133,133,-253,133c0,0,-78,0,-127,-46c0,0,-49,-46,-49,-119c0,0,0,-69,56,-148H402l46,-76L434,822H199l65,-58V-39L228,-49Z"
id="f6_nr"
transform="scale(0.001,-0.001)"/>

<path d="M0,822l-45,76l14,31H110l46,-76L142,822Z"
id="f6_nm"
transform="scale(0.001,-0.001)"/>

<path d="M332,567c0,0,149,88,149,206c0,0,0,35,-15,69c0,0,-41,27,-83,27c0,0,-55,0,-95,-41c0,0,-40,-41,-40,-105c0,0,0,-94,84,-156ZM610,-324L533,-17c0,0,-50,-17,-101,-17c0,0,-136,0,-254,101C178,67,60,170,60,283c0,0,0,67,51,126c0,0,51,59,159,126c0,0,-137,114,-137,233c0,0,0,83,57,140c0,0,58,56,143,56c0,0,99,0,173,-78c0,0,75,-78,75,-174c0,0,0,-113,-126,-205c0,0,89,-24,200,-24l150,9V822H652l-45,76l13,31h449l46,-76l-13,-31H866l66,-58V-39L895,-49L805,8V370l-62,-3c0,0,-182,0,-353,90c0,0,-117,-64,-168,-119c0,0,-51,-55,-51,-121c0,0,0,-49,37,-102c0,0,52,-34,130,-34c0,0,76,0,143,32L460,220l101,49L692,130c0,0,-14,-47,-87,-110L747,-271L610,-324Z"
id="f6_eq"
transform="scale(0.001,-0.001)"/>

<path d="M663,-49L573,8V445H299V280L226,251c0,0,-105,99,-162,238l63,72H573V822H0l-45,76l14,31H837l46,-76L869,822H634l66,-58V-39L663,-49Z"
id="f6_bt"
transform="scale(0.001,-0.001)"/>

<path d="M0,822l-45,76l14,31H61l46,-76L93,822Z"
id="f6_no"
transform="scale(0.001,-0.001)"/>

<path d="M768,-49L678,8V202c0,0,-73,-58,-172,-58c0,0,-123,0,-240,94c0,0,-118,94,-179,237l20,55c0,0,134,12,215,70c0,0,81,57,81,141c0,0,0,90,-67,134l-26,3c0,0,-46,0,-74,-29c0,0,-28,-30,-28,-68c0,0,0,-55,82,-109L252,620C252,620,93,720,93,820c0,0,0,65,47,104c0,0,46,40,114,40c0,0,99,0,179,-83c0,0,80,-83,82,-197c0,0,0,-93,-79,-165c0,0,-78,-73,-199,-97c0,0,29,-104,88,-158c0,0,42,-16,92,-16c0,0,78,0,151,38c0,0,74,38,110,111V822H553l-46,76l14,31H943l45,-76L975,822H739l66,-58V-39L768,-49Z"
id="f6_bq"
transform="scale(0.001,-0.001)"/>

<path d="M108,-433L-59,-214c0,0,-99,119,-191,119c0,0,-59,0,-96,-35c0,0,-36,-34,-36,-81c0,0,0,-49,42,-83l152,95l64,-116c0,0,-71,-58,-148,-58c0,0,-80,0,-146,63c0,0,-65,64,-65,144c0,0,0,77,62,131c0,0,61,53,142,53c0,0,138,0,296,-205L165,-393l-57,-40Z"
id="f6_cx"
transform="scale(0.001,-0.001)"/>

<path d="M325,240c0,0,77,0,154,35c0,0,77,35,120,99V500c0,0,-118,73,-222,73c0,0,-97,0,-151,-54c0,0,-53,-53,-53,-128c0,0,0,-73,49,-125c0,0,38,-26,103,-26ZM689,-49L599,8V199c0,0,-73,-65,-179,-65c0,0,-134,0,-252,96c0,0,-118,95,-118,221c0,0,0,102,78,171c0,0,78,69,190,69c0,0,38,0,75,-10L599,582V822H0l-45,76l14,31H863l46,-76L895,822H660l66,-58V-39L689,-49Z"
id="f6_c7"
transform="scale(0.001,-0.001)"/>

<path d="M-239,897c0,0,-82,61,-132,137c0,0,-50,75,-50,150c0,0,0,78,52,133c0,0,52,55,141,55c0,0,98,0,176,-64l-23,-69c0,0,-52,32,-104,32c0,0,-57,0,-95,-36c0,0,-38,-36,-38,-95c0,0,0,-115,117,-217l-44,-26Z"
id="f6_dr"
transform="scale(0.001,-0.001)"/>

<path d="M959,-49L869,8V367c0,0,-32,-13,-64,-13c0,0,-50,0,-110,25c0,0,23,-52,23,-109c0,0,0,-103,-70,-170c0,0,-70,-66,-182,-66c0,0,-110,0,-222,82c0,0,-111,83,-213,293l68,42c0,0,72,-155,152,-231c0,0,81,-76,178,-76c0,0,83,0,131,49c0,0,48,48,48,117c0,0,0,54,-30,100c0,0,-31,47,-91,65L325,391L257,512c0,0,68,53,156,56c0,0,140,72,140,179c0,0,0,69,-52,99c0,0,-4,1,-11,1c-19,0,-66,-4,-123,-30c0,0,-78,-35,-142,-96L150,823c0,0,119,117,253,117c0,0,98,0,175,-71c0,0,77,-70,77,-159c0,0,0,-103,-94,-180c0,0,39,-23,73,-56c0,0,52,-22,109,-22c0,0,77,0,126,38V822H727l-46,76l14,31h840l46,-76l-13,-31H1332l66,-58V-39l-37,-10L1271,8V822H930l66,-58V-39L959,-49Z"
id="f6_am"
transform="scale(0.001,-0.001)"/>

<path d="M283,260c0,0,122,0,209,113V513c0,0,-90,51,-160,51c0,0,-80,0,-129,-50c0,0,-49,-50,-49,-118c0,0,0,-60,35,-110c0,0,45,-26,94,-26ZM582,-49L492,8V211c0,0,-63,-54,-141,-54c0,0,-113,0,-213,92c0,0,-100,92,-100,205c0,0,0,93,69,157c0,0,69,64,162,64c0,0,32,0,64,-9L492,590V822H0l-45,76l14,31H1108l45,-76l-13,-31H553l66,-58V524c0,0,91,89,192,89c0,0,98,0,171,-79c0,0,72,-79,72,-186c0,0,0,-178,-224,-330L736,124c0,0,219,153,219,269c0,0,0,44,-26,75c0,0,-26,32,-81,32c0,0,-109,0,-229,-155V-39L582,-49Z"
id="f6_b9"
transform="scale(0.001,-0.001)"/>

<path d="M0,822l-45,76l14,31H38L84,853L70,822Z"
id="f6_nl"
transform="scale(0.001,-0.001)"/>

<path d="M827,-49L736,8V205c0,0,-84,-84,-209,-84c0,0,-130,0,-237,91c0,0,-108,92,-108,196c0,0,0,79,61,137C243,545,66,672,66,791c0,0,0,75,52,124c0,0,53,49,134,49c0,0,164,0,260,-237L451,694c0,0,-55,114,-119,163l-31,5c0,0,-44,0,-77,-32c0,0,-33,-31,-33,-78c0,0,0,-86,113,-165c0,0,60,27,133,27l67,-4l75,-89L564,490l-51,7H493c0,0,-90,0,-142,-43c0,0,-52,-43,-52,-104c0,0,0,-60,51,-109c0,0,33,-16,84,-16c0,0,89,0,177,47c0,0,89,47,125,137V822H567l-46,76l14,31h466l46,-76l-14,-31H798l65,-58V-39L827,-49Z"
id="f6_bs"
transform="scale(0.001,-0.001)"/>

<path d="M228,-49L138,8V822H0l-45,76l14,31H134c0,0,-91,92,-91,191c0,0,0,105,85,170c0,0,84,65,219,65c0,0,128,0,293,-76c0,0,165,-77,362,-263L958,966c0,0,-177,143,-303,210c0,0,-125,68,-244,68c0,0,-107,0,-175,-50c0,0,-68,-50,-68,-131c0,0,0,-61,49,-134H402l46,-76L434,822H199l65,-58V-39L228,-49Z"
id="f6_cu"
transform="scale(0.001,-0.001)"/>

<path d="M-10,1013c0,0,-122,70,-122,189c0,0,0,74,53,125c0,0,53,51,137,51c0,0,87,0,164,-73l-23,-61c0,0,-49,36,-109,36c0,0,-61,0,-98,-39c0,0,-38,-39,-38,-97c0,0,0,-55,46,-128l-10,-3Z"
id="f6_on"
transform="scale(0.001,-0.001)"/>

<path d="M900,298c0,0,32,73,32,159c0,0,0,110,-38,160c0,0,-40,31,-81,31c0,0,-48,0,-80,-35c0,0,-33,-35,-33,-89c0,0,0,-118,200,-226ZM588,-60c0,0,-154,0,-274,93c0,0,-120,94,-120,207c0,0,0,50,28,92C222,332,61,440,61,552c0,0,0,71,56,122c0,0,56,50,169,50H417l64,-98L463,600H333c0,0,-157,-1,-157,-99c0,0,0,-59,88,-124c0,0,68,52,164,52c0,0,38,0,79,-9l71,-88L558,299c0,0,-46,10,-81,10c0,0,-75,0,-116,-36c0,0,-40,-36,-40,-88c0,0,0,-78,73,-130c0,0,54,-17,109,-17c0,0,114,0,211,54c0,0,97,53,154,145c0,0,-156,96,-223,173c0,0,-67,77,-67,155c0,0,0,72,48,124c0,0,48,52,126,55v78H0l-45,76l14,31H1123l46,-76l-14,-31H805l66,-58V717c0,0,76,-40,124,-124c0,0,47,-84,47,-193c0,0,0,-188,-133,-324C909,76,776,-60,588,-60Z"
id="f6_bf"
transform="scale(0.001,-0.001)"/>

<path d="M-214,863l-199,281c0,0,-70,92,-157,92c0,0,-69,0,-159,-58l-72,118c0,0,89,73,180,73c0,0,141,0,258,-170L-155,901l-59,-38Z"
id="f6_d4"
transform="scale(0.001,-0.001)"/>

<path d="M396,318c0,0,123,0,203,108V822H180l66,-58V408c0,0,49,-90,150,-90ZM176,-66L79,9L379,228c0,0,-106,23,-181,119c0,0,-76,96,-79,198V822H0l-45,76l14,31H863l46,-76L895,822H660l66,-58V-39L689,-49L599,8V269L176,-66Z"
id="f6_e6"
transform="scale(0.001,-0.001)"/>

<path d="M825,-49L735,8V217c0,0,-86,-72,-197,-72c0,0,-130,0,-238,91c0,0,-107,91,-107,204c0,0,0,55,27,105H55L12,616l14,30H574l46,-76L607,539H396c0,0,-78,-49,-78,-162c0,0,0,-70,40,-111c0,0,39,-15,94,-15c0,0,84,0,163,41c0,0,79,41,120,121V822H0l-45,76l14,31H999l46,-76l-14,-31H796l66,-58V-39L825,-49Z"
id="f6_be"
transform="scale(0.001,-0.001)"/>

<path d="M413,-59C413,-59,53,193,53,416c0,0,0,97,66,164c0,0,66,66,156,66c0,0,61,0,110,-30L487,507c0,0,92,126,257,126l35,-2V822H0l-45,76l14,31H1043l46,-76l-13,-31H840l66,-58V-39L869,-49L779,8V547c0,0,-101,-5,-165,-90c0,0,-64,-86,-70,-222L507,225l-90,73c0,0,5,79,35,151c0,0,-59,66,-128,66c0,0,-57,0,-100,-38c0,0,-44,-39,-44,-109c0,0,0,-165,284,-360L413,-59Z"
id="f6_c3"
transform="scale(0.001,-0.001)"/>

<path d="M548,-57c0,0,-122,0,-243,81c0,0,-122,81,-252,280l57,41C110,345,283,64,498,64c0,0,92,0,153,49c0,0,61,49,61,121c0,0,0,46,-28,84L440,237c0,0,-73,11,-139,55c0,0,-66,44,-105,105c0,0,-40,61,-40,119c0,0,0,72,62,125c0,0,62,53,184,53H625V822H0l-45,76l14,31H906l46,-76L938,822H678l66,-58V562H431c0,0,-164,0,-164,-99c0,0,0,-55,57,-102l261,82c0,0,104,-21,172,-98c0,0,68,-78,68,-171c0,0,0,-99,-76,-166c0,0,-77,-65,-201,-65Z"
id="f6_bm"
transform="scale(0.001,-0.001)"/>

<path d="M226,-49c0,0,-66,24,-102,78c0,0,32,69,82,101c0,0,55,-20,100,-80c0,0,-26,-66,-80,-99Z"
id="f6_pc"
transform="scale(0.001,-0.001)"/>

<path d="M416,-30c0,0,-83,0,-175,30C241,0,148,29,75,78l59,125C134,203,296,93,463,93l82,8c0,0,75,67,75,157c0,0,0,104,-70,158c0,0,-70,53,-171,53c0,0,-86,0,-177,-35l-75,66l53,493H700l1,-69c0,0,0,-96,-13,-178l-88,-2L584,872L278,886L248,570c0,0,55,27,149,27c0,0,155,0,255,-84c0,0,100,-85,100,-224c0,0,0,-139,-95,-229c0,0,-95,-90,-241,-90Z"
id="f6_t"
transform="scale(0.001,-0.001)"/>

<path d="M823,-49L733,8V339H445V191L371,160c0,0,-56,36,-120,105c0,0,-63,70,-89,131l41,59H313V735c0,0,0,99,-55,140c0,0,-3,1,-8,1c-16,0,-48,-3,-71,-23c0,0,-31,-26,-31,-66c0,0,0,-69,81,-113L189,620C189,620,31,720,31,828c0,0,0,61,45,99c0,0,46,37,109,37c0,0,96,0,173,-86c0,0,76,-87,79,-194V455H733V822H556l-46,76l14,31H998l45,-76l-13,-31H794l66,-58V-39L823,-49Z"
id="f6_by"
transform="scale(0.001,-0.001)"/>

<path d="M92,380L46,457l14,30H448l45,-76L480,380Z"
id="f6_pd"
transform="scale(0.001,-0.001)"/>

<path d="M845,-49L755,8V513H497c0,0,61,-45,93,-110c0,0,33,-64,33,-128c0,0,0,-90,-58,-144c0,0,-59,-53,-143,-53c0,0,-133,0,-234,139C188,217,87,356,20,596l76,24c0,0,60,-201,127,-306c0,0,67,-105,160,-105c0,0,57,0,91,36c0,0,33,36,33,91c0,0,0,84,-73,159L295,558v71H755V822H0l-45,76l14,31H1019l46,-76l-14,-31H816l66,-58V-39L845,-49Z"
id="f6_bg"
transform="scale(0.001,-0.001)"/>

<path d="M144,694L43,726c0,0,50,136,64,304l41,30l110,-24l-1,-14c0,0,-29,-186,-113,-328Zm256,0L299,726c0,0,51,136,65,304l41,30l110,-24l-2,-14c0,0,-29,-186,-113,-328Z"
id="f6_a"
transform="scale(0.001,-0.001)"/>

<path d="M830,-253l-123,66c0,0,31,47,31,78c0,0,0,44,-64,84L353,130c0,0,-234,113,-234,325V822H0l-45,76l14,31H848l46,-76L880,822H655l68,-58V561c0,0,0,-176,-41,-241c0,0,-40,-65,-161,-106l-49,82l124,69V822H180l66,-58V283L646,92c0,0,126,-60,176,-110c0,0,50,-51,50,-115c0,0,0,-62,-42,-120Z"
id="f6_ax"
transform="scale(0.001,-0.001)"/>

<path d="M-91,1001c0,0,-27,10,-61,36c0,0,-33,26,-50,49c0,0,38,81,90,110c0,0,61,-23,107,-85c0,0,-28,-71,-86,-110ZM-214,863l-199,281c0,0,-70,92,-157,92c0,0,-69,0,-159,-58l-72,118c0,0,89,73,180,73c0,0,141,0,258,-170L-155,901l-59,-38Z"
id="f6_oz"
transform="scale(0.001,-0.001)"/>

<path d="M431,-30c0,0,-162,0,-266,120C165,90,61,211,61,399c0,0,0,140,63,278c0,0,62,137,198,233c0,0,136,95,343,104l1,-154H440c0,0,-110,-50,-172,-178c0,0,-62,-127,-62,-273c0,0,0,-148,67,-243c0,0,68,-96,195,-96l25,2c0,0,117,59,117,205c0,0,0,88,-43,152c0,0,-43,64,-116,64c0,0,-72,0,-155,-59l-35,63c0,0,121,103,246,103c0,0,106,0,177,-87c0,0,71,-88,71,-214c0,0,0,-139,-92,-234c0,0,-92,-95,-232,-95Z"
id="f6_u"
transform="scale(0.001,-0.001)"/>

<path d="M725,307c0,0,-95,0,-218,78c0,0,-123,78,-188,78c0,0,-54,0,-95,-34c0,0,-41,-34,-73,-100L93,362c0,0,38,88,101,146c0,0,63,59,148,59c0,0,90,0,214,-78c0,0,124,-79,188,-79c0,0,63,0,106,34c0,0,42,33,85,104l60,-40c0,0,-32,-66,-101,-134c0,0,-70,-67,-169,-67Z"
id="f7_4r"
transform="scale(0.001,-0.001)"/>

<path d="M435,0V856c0,0,-48,-47,-127,-93c0,0,-79,-46,-142,-69V824c0,0,113,52,197,128c0,0,85,75,120,146h86V0Z"
id="f8_l"
transform="scale(0.001,-0.001)"/>


</defs>
</svg>