<?xml version="1.0" encoding="UTF-8" standalone="no"?>
<!DOCTYPE svg PUBLIC "-//W3C//DTD SVG 1.1//EN"
"http://www.w3.org/Graphics/SVG/1.1/DTD/svg11.dtd">
<svg viewBox="0 0 641 910" version="1.1" xmlns="http://www.w3.org/2000/svg" xmlns:xlink="http://www.w3.org/1999/xlink">
<defs>
<clipPath id="c0_107"><path d="M0,909.8V0H641.7V909.8Z"/></clipPath>
<clipPath id="c1_107"><path d="M0,908.6V0H641.7V908.6Z"/></clipPath>
<style type="text/css"><![CDATA[
.g0_107{
fill: #FFFFFF;
}
.g1_107{
}
]]></style>
</defs>
<path d="M0,0H641.7V909.8H0V0Z" class="g0_107"/>
<path d="M0,0H641.7V909.8H0V0Z" class="g0_107"/>
<g clip-path="url(#c0_107)">
<path d="M0,-90979.1H641.7V15466.5H0V-90979.1Z" class="g0_107"/>
</g>
<path d="M0,0H641.7V908.6H0V0Z" class="g0_107"/>
<path d="M19.5,60.7H602.7v1.2H19.5V60.7Z" class="g1_107"/>
<g clip-path="url(#c1_107)">
<path d="M0,61.9H641.7V909.8H0V61.9Z" class="g0_107"/>
<g fill="#000000" >
<use xlink:href="#f5_bt" transform="matrix(14,0,0,14,190.5,103.1)" />
<use xlink:href="#f5_ct" transform="matrix(14,0,0,14,203.6,103.1)" />
<use xlink:href="#f5_b9" transform="matrix(14,0,0,14,210,103.1)" />
<use xlink:href="#f5_d8" transform="matrix(14,0,0,14,227.5,103.1)" />
<use xlink:href="#f5_ch" transform="matrix(14,0,0,14,233.9,103.1)" />
<use xlink:href="#f5_ct" transform="matrix(14,0,0,14,247.2,103.1)" />
<use xlink:href="#f5_by" transform="matrix(14,0,0,14,259.3,103.1)" />
<use xlink:href="#f5_d5" transform="matrix(14,0,0,14,274.3,103.1)" />
<use xlink:href="#f5_n1" transform="matrix(14,0,0,14,274.3,103.1)" />
<use xlink:href="#f5_bg" transform="matrix(14,0,0,14,291.4,103.1)" />
<use xlink:href="#f5_cv" transform="matrix(14,0,0,14,307.3,103.1)" />
<use xlink:href="#f5_c1" transform="matrix(14,0,0,14,319.4,103.1)" />
<use xlink:href="#f5_d8" transform="matrix(14,0,0,14,329.6,103.1)" />
<use xlink:href="#f5_bv" transform="matrix(14,0,0,14,341.8,103.1)" />
<use xlink:href="#f5_c1" transform="matrix(14,0,0,14,354.9,103.1)" />
<use xlink:href="#f5_be" transform="matrix(14,0,0,14,365.1,103.1)" />
<use xlink:href="#f5_d8" transform="matrix(14,0,0,14,380.4,103.1)" />
<use xlink:href="#f5_by" transform="matrix(14,0,0,14,392.5,103.1)" />
<use xlink:href="#f5_ct" transform="matrix(14,0,0,14,407.5,103.1)" />
<use xlink:href="#f5_c1" transform="matrix(14,0,0,14,414,103.1)" />
<use xlink:href="#f5_cv" transform="matrix(14,0,0,14,424.2,103.1)" />
<use xlink:href="#f6_bt" transform="matrix(14,0,0,14,193.9,162.7)" />
<use xlink:href="#f6_ct" transform="matrix(14,0,0,14,205.7,162.7)" />
<use xlink:href="#f6_b9" transform="matrix(14,0,0,14,211.3,162.7)" />
<use xlink:href="#f6_d8" transform="matrix(14,0,0,14,226.8,162.7)" />
<use xlink:href="#f6_ch" transform="matrix(14,0,0,14,232.4,162.7)" />
<use xlink:href="#f6_ct" transform="matrix(14,0,0,14,245.1,162.7)" />
<use xlink:href="#f6_by" transform="matrix(14,0,0,14,256.4,162.7)" />
<use xlink:href="#f6_d5" transform="matrix(14,0,0,14,270.5,162.7)" />
<use xlink:href="#f6_n1" transform="matrix(14,0,0,14,270.3,162.7)" />
<use xlink:href="#f6_bg" transform="matrix(14,0,0,14,283.5,162.7)" />
<use xlink:href="#f6_cv" transform="matrix(14,0,0,14,297.7,162.7)" />
<use xlink:href="#f6_c1" transform="matrix(14,0,0,14,309,162.7)" />
<use xlink:href="#f6_d8" transform="matrix(14,0,0,14,317.4,162.7)" />
<use xlink:href="#f6_bv" transform="matrix(14,0,0,14,328.7,162.7)" />
<use xlink:href="#f6_c1" transform="matrix(14,0,0,14,340.6,162.7)" />
<use xlink:href="#f6_be" transform="matrix(14,0,0,14,348.9,162.7)" />
<use xlink:href="#f6_d8" transform="matrix(14,0,0,14,362.9,162.7)" />
<use xlink:href="#f6_by" transform="matrix(14,0,0,14,374.2,162.7)" />
<use xlink:href="#f6_ct" transform="matrix(14,0,0,14,388.2,162.7)" />
<use xlink:href="#f6_c1" transform="matrix(14,0,0,14,393.8,162.7)" />
<use xlink:href="#f6_cv" transform="matrix(14,0,0,14,402.2,162.7)" />
<use xlink:href="#f6_pd" transform="matrix(14,0,0,14,407.8,162.7)" />
<use xlink:href="#f6_q" transform="matrix(14,0,0,14,415.3,162.7)" />
<use xlink:href="#f6_bx" transform="matrix(14,0,0,14,137.8,187.9)" />
<use xlink:href="#f6_bk" transform="matrix(14,0,0,14,150.1,187.9)" />
<use xlink:href="#f6_cw" transform="matrix(14,0,0,14,161.4,187.8)" />
<use xlink:href="#f6_b9" transform="matrix(14,0,0,14,161.7,187.9)" />
<use xlink:href="#f6_by" transform="matrix(14,0,0,14,182.8,187.9)" />
<use xlink:href="#f6_d4" transform="matrix(14,0,0,14,196.9,187.9)" />
<use xlink:href="#f6_n1" transform="matrix(14,0,0,14,196.8,187.9)" />
<use xlink:href="#f6_bg" transform="matrix(14,0,0,14,215.6,187.9)" />
<use xlink:href="#f6_ct" transform="matrix(14,0,0,14,229.9,187.9)" />
<use xlink:href="#f6_bt" transform="matrix(14,0,0,14,235.5,187.9)" />
<use xlink:href="#f6_d4" transform="matrix(14,0,0,14,247.3,187.9)" />
<use xlink:href="#f6_mv" transform="matrix(14,0,0,14,258.5,187.9)" />
<use xlink:href="#f6_cu" transform="matrix(14,0,0,14,270.3,187.9)" />
<use xlink:href="#f6_bt" transform="matrix(14,0,0,14,275.9,187.9)" />
<use xlink:href="#f6_c0" transform="matrix(14,0,0,14,287.6,187.9)" />
<use xlink:href="#f6_ct" transform="matrix(14,0,0,14,300.2,187.9)" />
<use xlink:href="#f6_cb" transform="matrix(14,0,0,14,311.5,187.9)" />
<use xlink:href="#f6_ct" transform="matrix(14,0,0,14,326.3,187.9)" />
<use xlink:href="#f6_c1" transform="matrix(14,0,0,14,332,187.9)" />
<use xlink:href="#f6_cv" transform="matrix(14,0,0,14,340.4,187.9)" />
<use xlink:href="#f6_k" transform="matrix(14,0,0,14,346,187.9)" />
<use xlink:href="#f6_ap" transform="matrix(14,0,0,14,356.9,187.9)" />
<use xlink:href="#f6_bt" transform="matrix(14,0,0,14,368.2,187.9)" />
<use xlink:href="#f6_c1" transform="matrix(14,0,0,14,379.9,187.9)" />
<use xlink:href="#f6_cv" transform="matrix(14,0,0,14,388.3,187.9)" />
<use xlink:href="#f6_c3" transform="matrix(14,0,0,14,399.6,187.9)" />
<use xlink:href="#f6_cv" transform="matrix(14,0,0,14,414.3,187.9)" />
<use xlink:href="#f6_c3" transform="matrix(14,0,0,14,419.9,187.9)" />
<use xlink:href="#f6_ct" transform="matrix(14,0,0,14,434.6,187.9)" />
<use xlink:href="#f6_li" transform="matrix(14,0,0,14,445.9,187.9)" />
<use xlink:href="#f6_c0" transform="matrix(14,0,0,14,452.1,187.9)" />
<use xlink:href="#f6_ct" transform="matrix(14,0,0,14,464.7,187.9)" />
<use xlink:href="#f6_c1" transform="matrix(14,0,0,14,470.3,187.9)" />
<use xlink:href="#f6_cv" transform="matrix(14,0,0,14,478.7,187.9)" />
<use xlink:href="#f6_bt" transform="matrix(14,0,0,14,173.3,238.3)" />
<use xlink:href="#f6_ct" transform="matrix(14,0,0,14,185,238.3)" />
<use xlink:href="#f6_b9" transform="matrix(14,0,0,14,190.7,238.3)" />
<use xlink:href="#f6_d8" transform="matrix(14,0,0,14,206.2,238.3)" />
<use xlink:href="#f6_ch" transform="matrix(14,0,0,14,211.8,238.3)" />
<use xlink:href="#f6_ct" transform="matrix(14,0,0,14,224.5,238.3)" />
<use xlink:href="#f6_by" transform="matrix(14,0,0,14,235.7,238.3)" />
<use xlink:href="#f6_d4" transform="matrix(14,0,0,14,249.8,238.3)" />
<use xlink:href="#f6_n1" transform="matrix(14,0,0,14,249.7,238.3)" />
<use xlink:href="#f6_bg" transform="matrix(14,0,0,14,268.5,238.3)" />
<use xlink:href="#f6_cv" transform="matrix(14,0,0,14,282.8,238.3)" />
<use xlink:href="#f6_c1" transform="matrix(14,0,0,14,294.1,238.3)" />
<use xlink:href="#f6_d8" transform="matrix(14,0,0,14,302.4,238.3)" />
<use xlink:href="#f6_bt" transform="matrix(14,0,0,14,313.7,238.3)" />
<use xlink:href="#f6_ct" transform="matrix(14,0,0,14,325.4,238.3)" />
<use xlink:href="#f6_b9" transform="matrix(14,0,0,14,331.1,238.3)" />
<use xlink:href="#f6_d8" transform="matrix(14,0,0,14,346.6,238.3)" />
<use xlink:href="#f6_ch" transform="matrix(14,0,0,14,352.2,238.3)" />
<use xlink:href="#f6_ct" transform="matrix(14,0,0,14,364.9,238.3)" />
<use xlink:href="#f6_by" transform="matrix(14,0,0,14,376.1,238.3)" />
<use xlink:href="#f6_d4" transform="matrix(14,0,0,14,390.2,238.3)" />
<use xlink:href="#f6_n1" transform="matrix(14,0,0,14,390.1,238.3)" />
<use xlink:href="#f6_bg" transform="matrix(14,0,0,14,408.9,238.3)" />
<use xlink:href="#f6_cv" transform="matrix(14,0,0,14,423.2,238.3)" />
<use xlink:href="#f6_c1" transform="matrix(14,0,0,14,434.5,238.3)" />
<use xlink:href="#f6_d8" transform="matrix(14,0,0,14,442.8,238.3)" />
<use xlink:href="#f6_b9" transform="matrix(14,0,0,14,120.6,288.8)" />
<use xlink:href="#f6_d8" transform="matrix(14,0,0,14,136.1,288.8)" />
<use xlink:href="#f6_ao" transform="matrix(14,0,0,14,141.7,288.8)" />
<use xlink:href="#f6_b9" transform="matrix(14,0,0,14,158.9,288.8)" />
<use xlink:href="#f6_d4" transform="matrix(14,0,0,14,170,288.8)" />
<use xlink:href="#f6_c8" transform="matrix(14,0,0,14,174.4,288.8)" />
<use xlink:href="#f6_c1" transform="matrix(14,0,0,14,190.3,288.8)" />
<use xlink:href="#f6_b9" transform="matrix(14,0,0,14,204.3,288.8)" />
<use xlink:href="#f6_oc" transform="matrix(14,0,0,14,219.8,288.8)" />
<use xlink:href="#f6_bv" transform="matrix(14,0,0,14,231.1,288.8)" />
<use xlink:href="#f6_cx" transform="matrix(14,0,0,14,242.9,288.6)" />
<use xlink:href="#f6_bg" transform="matrix(14,0,0,14,243,288.8)" />
<use xlink:href="#f6_ct" transform="matrix(14,0,0,14,257.2,288.8)" />
<use xlink:href="#f6_b9" transform="matrix(14,0,0,14,268.5,288.8)" />
<use xlink:href="#f6_c1" transform="matrix(14,0,0,14,284,288.8)" />
<use xlink:href="#f6_ct" transform="matrix(14,0,0,14,292.4,288.8)" />
<use xlink:href="#f6_c7" transform="matrix(14,0,0,14,298,288.8)" />
<use xlink:href="#f6_d4" transform="matrix(14,0,0,14,310.2,288.8)" />
<use xlink:href="#f6_k" transform="matrix(14,0,0,14,310.1,288.8)" />
<use xlink:href="#f6_bw" transform="matrix(14,0,0,14,315.3,288.8)" />
<use xlink:href="#f6_cx" transform="matrix(14,0,0,14,326.3,288.6)" />
<use xlink:href="#f6_c3" transform="matrix(14,0,0,14,331.4,288.8)" />
<use xlink:href="#f6_bx" transform="matrix(14,0,0,14,351.8,288.8)" />
<use xlink:href="#f6_c1" transform="matrix(14,0,0,14,364.1,288.8)" />
<use xlink:href="#f6_ba" transform="matrix(14,0,0,14,372.4,288.8)" />
<use xlink:href="#f6_c1" transform="matrix(14,0,0,14,394.8,288.8)" />
<use xlink:href="#f6_cv" transform="matrix(14,0,0,14,403.2,288.8)" />
<use xlink:href="#f6_am" transform="matrix(14,0,0,14,414.5,288.8)" />
<use xlink:href="#f6_dj" transform="matrix(14,0,0,14,430.5,289.2)" />
<use xlink:href="#f6_bb" transform="matrix(14,0,0,14,436,288.8)" />
<use xlink:href="#f6_cv" transform="matrix(14,0,0,14,448.6,288.8)" />
<use xlink:href="#f6_c1" transform="matrix(14,0,0,14,459.9,288.8)" />
<use xlink:href="#f6_be" transform="matrix(14,0,0,14,468.2,288.8)" />
<use xlink:href="#f6_ct" transform="matrix(14,0,0,14,482.2,288.8)" />
<use xlink:href="#f6_c7" transform="matrix(14,0,0,14,487.9,288.8)" />
<use xlink:href="#f6_d4" transform="matrix(14,0,0,14,500.1,288.8)" />
<use xlink:href="#f6_b9" transform="matrix(14,0,0,14,125.2,314)" />
<use xlink:href="#f6_d8" transform="matrix(14,0,0,14,140.7,314)" />
<use xlink:href="#f6_ao" transform="matrix(14,0,0,14,146.3,314)" />
<use xlink:href="#f6_an" transform="matrix(14,0,0,14,163.5,314)" />
<use xlink:href="#f6_e1" transform="matrix(14,0,0,14,175,314)" />
<use xlink:href="#f6_c1" transform="matrix(14,0,0,14,192.7,314)" />
<use xlink:href="#f6_d8" transform="matrix(14,0,0,14,201.1,314)" />
<use xlink:href="#f6_bk" transform="matrix(14,0,0,14,212.4,314)" />
<use xlink:href="#f6_cv" transform="matrix(14,0,0,14,223.9,314)" />
<use xlink:href="#f6_b9" transform="matrix(14,0,0,14,229.6,314)" />
<use xlink:href="#f6_d8" transform="matrix(14,0,0,14,245.1,314)" />
<use xlink:href="#f6_c3" transform="matrix(14,0,0,14,256.3,314)" />
<use xlink:href="#f6_bb" transform="matrix(14,0,0,14,271.1,314)" />
<use xlink:href="#f6_ct" transform="matrix(14,0,0,14,283.7,314)" />
<use xlink:href="#f6_c7" transform="matrix(14,0,0,14,289.3,314)" />
<use xlink:href="#f6_d4" transform="matrix(14,0,0,14,301.5,314)" />
<use xlink:href="#f6_k" transform="matrix(14,0,0,14,307,314)" />
<use xlink:href="#f6_bp" transform="matrix(14,0,0,14,312.2,314)" />
<use xlink:href="#f6_d4" transform="matrix(14,0,0,14,324.7,314)" />
<use xlink:href="#f6_c3" transform="matrix(14,0,0,14,324.6,314)" />
<use xlink:href="#f6_bs" transform="matrix(14,0,0,14,344.9,314)" />
<use xlink:href="#f6_ct" transform="matrix(14,0,0,14,358.9,314)" />
<use xlink:href="#f6_c1" transform="matrix(14,0,0,14,364.6,314)" />
<use xlink:href="#f6_cb" transform="matrix(14,0,0,14,378.6,314)" />
<use xlink:href="#f6_cx" transform="matrix(14,0,0,14,393.4,313.9)" />
<use xlink:href="#f6_dj" transform="matrix(14,0,0,14,387.2,314.4)" />
<use xlink:href="#f6_b9" transform="matrix(14,0,0,14,399.1,314)" />
<use xlink:href="#f6_d8" transform="matrix(14,0,0,14,414.6,314)" />
<use xlink:href="#f6_ao" transform="matrix(14,0,0,14,420.3,314)" />
<use xlink:href="#f6_bt" transform="matrix(14,0,0,14,437.4,314)" />
<use xlink:href="#f6_cc" transform="matrix(14,0,0,14,449.1,314)" />
<use xlink:href="#f6_c1" transform="matrix(14,0,0,14,460.8,314)" />
<use xlink:href="#f6_ct" transform="matrix(14,0,0,14,469.1,314)" />
<use xlink:href="#f6_c7" transform="matrix(14,0,0,14,474.8,314)" />
<use xlink:href="#f6_d4" transform="matrix(14,0,0,14,487,314)" />
<use xlink:href="#f6_ng" transform="matrix(14,0,0,14,486.8,314)" />
<use xlink:href="#f6_ef" transform="matrix(14,0,0,14,151.6,339.2)" />
<use xlink:href="#f6_cv" transform="matrix(14,0,0,14,165.7,339.2)" />
<use xlink:href="#f6_bw" transform="matrix(14,0,0,14,171.4,339.2)" />
<use xlink:href="#f6_c3" transform="matrix(14,0,0,14,187.5,339.2)" />
<use xlink:href="#f6_k" transform="matrix(14,0,0,14,202.2,339.2)" />
<use xlink:href="#f6_bz" transform="matrix(14,0,0,14,213.1,339.2)" />
<use xlink:href="#f6_ct" transform="matrix(14,0,0,14,226.4,339.2)" />
<use xlink:href="#f6_bp" transform="matrix(14,0,0,14,232,339.2)" />
<use xlink:href="#f6_c1" transform="matrix(14,0,0,14,244.3,339.2)" />
<use xlink:href="#f6_k" transform="matrix(14,0,0,14,252.7,339.2)" />
<use xlink:href="#f6_cb" transform="matrix(14,0,0,14,257.9,339.2)" />
<use xlink:href="#f6_cw" transform="matrix(14,0,0,14,273.3,339.1)" />
<use xlink:href="#f6_ba" transform="matrix(14,0,0,14,272.8,339.2)" />
<use xlink:href="#f6_bm" transform="matrix(14,0,0,14,289.5,339.2)" />
<use xlink:href="#f6_cv" transform="matrix(14,0,0,14,302.2,339.2)" />
<use xlink:href="#f6_k" transform="matrix(14,0,0,14,307.8,339.2)" />
<use xlink:href="#f6_bt" transform="matrix(14,0,0,14,318.7,339.2)" />
<use xlink:href="#f6_d4" transform="matrix(14,0,0,14,330.5,339.2)" />
<use xlink:href="#f6_c7" transform="matrix(14,0,0,14,330.4,339.2)" />
<use xlink:href="#f6_d4" transform="matrix(14,0,0,14,342.6,339.2)" />
<use xlink:href="#f6_gj" transform="matrix(14,0,0,14,342.5,339.2)" />
<use xlink:href="#f6_k" transform="matrix(14,0,0,14,356.9,339.2)" />
<use xlink:href="#f6_by" transform="matrix(14,0,0,14,362.1,339.2)" />
<use xlink:href="#f6_d8" transform="matrix(14,0,0,14,376.1,339.2)" />
<use xlink:href="#f6_bb" transform="matrix(14,0,0,14,381.7,339.2)" />
<use xlink:href="#f6_c3" transform="matrix(14,0,0,14,400,339.2)" />
<use xlink:href="#f6_bb" transform="matrix(14,0,0,14,414.7,339.2)" />
<use xlink:href="#f6_ct" transform="matrix(14,0,0,14,427.3,339.2)" />
<use xlink:href="#f6_c7" transform="matrix(14,0,0,14,432.9,339.2)" />
<use xlink:href="#f6_d4" transform="matrix(14,0,0,14,445.1,339.2)" />
<use xlink:href="#f6_pd" transform="matrix(14,0,0,14,450.7,339.2)" />
<use xlink:href="#f6_n8" transform="matrix(14,0,0,14,458.2,339.2)" />
<use xlink:href="#f6_by" transform="matrix(14,0,0,14,181.3,364.4)" />
<use xlink:href="#f6_d4" transform="matrix(14,0,0,14,195.4,364.4)" />
<use xlink:href="#f6_n1" transform="matrix(14,0,0,14,195.3,364.4)" />
<use xlink:href="#f6_by" transform="matrix(14,0,0,14,214.1,364.4)" />
<use xlink:href="#f6_o0" transform="matrix(14,0,0,14,228.1,364.4)" />
<use xlink:href="#f6_l1" transform="matrix(14,0,0,14,233.7,364.4)" />
<use xlink:href="#f6_bp" transform="matrix(14,0,0,14,245.6,364.4)" />
<use xlink:href="#f6_c1" transform="matrix(14,0,0,14,257.9,364.4)" />
<use xlink:href="#f6_ct" transform="matrix(14,0,0,14,266.3,364.4)" />
<use xlink:href="#f6_c3" transform="matrix(14,0,0,14,277.5,364.4)" />
<use xlink:href="#f6_ct" transform="matrix(14,0,0,14,292.2,364.4)" />
<use xlink:href="#f6_bm" transform="matrix(14,0,0,14,297.9,364.4)" />
<use xlink:href="#f6_cx" transform="matrix(14,0,0,14,309,365.2)" />
<use xlink:href="#f6_cb" transform="matrix(14,0,0,14,316.2,364.4)" />
<use xlink:href="#f6_cw" transform="matrix(14,0,0,14,331.6,364.3)" />
<use xlink:href="#f6_cc" transform="matrix(14,0,0,14,336.8,364.4)" />
<use xlink:href="#f6_d8" transform="matrix(14,0,0,14,348.4,364.4)" />
<use xlink:href="#f6_c7" transform="matrix(14,0,0,14,354,364.4)" />
<use xlink:href="#f6_d4" transform="matrix(14,0,0,14,366.2,364.4)" />
<use xlink:href="#f6_cc" transform="matrix(14,0,0,14,371.7,364.4)" />
<use xlink:href="#f6_d8" transform="matrix(14,0,0,14,383.3,364.4)" />
<use xlink:href="#f6_c7" transform="matrix(14,0,0,14,389,364.4)" />
<use xlink:href="#f6_d4" transform="matrix(14,0,0,14,401.2,364.4)" />
<use xlink:href="#f6_c1" transform="matrix(14,0,0,14,406.7,364.4)" />
<use xlink:href="#f6_ct" transform="matrix(14,0,0,14,415.1,364.4)" />
<use xlink:href="#f6_bg" transform="matrix(14,0,0,14,420.7,364.4)" />
<use xlink:href="#f6_cv" transform="matrix(14,0,0,14,435,364.4)" />
<use xlink:href="#f6_ax" transform="matrix(14,0,0,14,126.3,414.8)" />
<use xlink:href="#f6_b9" transform="matrix(14,0,0,14,138.2,414.8)" />
<use xlink:href="#f6_cc" transform="matrix(14,0,0,14,159.4,414.8)" />
<use xlink:href="#f6_ct" transform="matrix(14,0,0,14,171,414.8)" />
<use xlink:href="#f6_no" transform="matrix(14,0,0,14,176.6,414.8)" />
<use xlink:href="#f6_bq" transform="matrix(14,0,0,14,176.6,414.8)" />
<use xlink:href="#f6_bz" transform="matrix(14,0,0,14,195.5,414.8)" />
<use xlink:href="#f6_oz" transform="matrix(14,0,0,14,208.9,414.8)" />
<use xlink:href="#f6_ba" transform="matrix(14,0,0,14,214.5,414.8)" />
<use xlink:href="#f6_ch" transform="matrix(14,0,0,14,231.2,414.8)" />
<use xlink:href="#f6_bb" transform="matrix(14,0,0,14,243.9,414.8)" />
<use xlink:href="#f6_c1" transform="matrix(14,0,0,14,262.1,414.8)" />
<use xlink:href="#f6_bo" transform="matrix(14,0,0,14,270.5,414.8)" />
<use xlink:href="#f6_b9" transform="matrix(14,0,0,14,284.9,414.8)" />
<use xlink:href="#f6_d4" transform="matrix(14,0,0,14,296,414.8)" />
<use xlink:href="#f6_k" transform="matrix(14,0,0,14,300.4,414.8)" />
<use xlink:href="#f6_mw" transform="matrix(14,0,0,14,311.3,414.8)" />
<use xlink:href="#f6_bg" transform="matrix(14,0,0,14,323,414.8)" />
<use xlink:href="#f6_d4" transform="matrix(14,0,0,14,337.4,414.8)" />
<use xlink:href="#f6_cc" transform="matrix(14,0,0,14,343,414.8)" />
<use xlink:href="#f6_ct" transform="matrix(14,0,0,14,354.6,414.8)" />
<use xlink:href="#f6_no" transform="matrix(14,0,0,14,360.2,414.8)" />
<use xlink:href="#f6_bq" transform="matrix(14,0,0,14,360.2,414.8)" />
<use xlink:href="#f6_bz" transform="matrix(14,0,0,14,379,414.8)" />
<use xlink:href="#f6_oz" transform="matrix(14,0,0,14,392.5,414.8)" />
<use xlink:href="#f6_cu" transform="matrix(14,0,0,14,398,414.8)" />
<use xlink:href="#f6_e1" transform="matrix(14,0,0,14,403.7,414.8)" />
<use xlink:href="#f6_c8" transform="matrix(14,0,0,14,415.7,414.8)" />
<use xlink:href="#f6_cx" transform="matrix(14,0,0,14,431.5,416.2)" />
<use xlink:href="#f6_c3" transform="matrix(14,0,0,14,431.6,414.8)" />
<use xlink:href="#f6_bg" transform="matrix(14,0,0,14,452,414.8)" />
<use xlink:href="#f6_bz" transform="matrix(14,0,0,14,466.2,414.8)" />
<use xlink:href="#f6_b9" transform="matrix(14,0,0,14,479.6,414.8)" />
<use xlink:href="#f6_d4" transform="matrix(14,0,0,14,490.7,414.8)" />
<use xlink:href="#f6_bp" transform="matrix(14,0,0,14,90.8,440)" />
<use xlink:href="#f6_cv" transform="matrix(14,0,0,14,103.1,440)" />
<use xlink:href="#f6_bg" transform="matrix(14,0,0,14,108.8,440)" />
<use xlink:href="#f6_d4" transform="matrix(14,0,0,14,123.2,440)" />
<use xlink:href="#f6_cc" transform="matrix(14,0,0,14,128.7,440)" />
<use xlink:href="#f6_ct" transform="matrix(14,0,0,14,140.3,440)" />
<use xlink:href="#f6_no" transform="matrix(14,0,0,14,145.9,440)" />
<use xlink:href="#f6_bq" transform="matrix(14,0,0,14,145.9,440)" />
<use xlink:href="#f6_bz" transform="matrix(14,0,0,14,164.8,440)" />
<use xlink:href="#f6_oz" transform="matrix(14,0,0,14,178.2,440)" />
<use xlink:href="#f6_ba" transform="matrix(14,0,0,14,183.8,440)" />
<use xlink:href="#f6_ll" transform="matrix(14,0,0,14,200.5,440)" />
<use xlink:href="#f6_bv" transform="matrix(14,0,0,14,206.7,440)" />
<use xlink:href="#f6_c1" transform="matrix(14,0,0,14,218.6,440)" />
<use xlink:href="#f6_ba" transform="matrix(14,0,0,14,232.6,440)" />
<use xlink:href="#f6_ch" transform="matrix(14,0,0,14,249.3,440)" />
<use xlink:href="#f6_b9" transform="matrix(14,0,0,14,262,440)" />
<use xlink:href="#f6_d4" transform="matrix(14,0,0,14,273.2,440)" />
<use xlink:href="#f6_k" transform="matrix(14,0,0,14,277.5,440)" />
<use xlink:href="#f6_cc" transform="matrix(14,0,0,14,282.7,440)" />
<use xlink:href="#f6_ct" transform="matrix(14,0,0,14,294.3,440)" />
<use xlink:href="#f6_no" transform="matrix(14,0,0,14,300,440)" />
<use xlink:href="#f6_bq" transform="matrix(14,0,0,14,300,440)" />
<use xlink:href="#f6_be" transform="matrix(14,0,0,14,318.8,440)" />
<use xlink:href="#f6_d8" transform="matrix(14,0,0,14,332.8,440)" />
<use xlink:href="#f6_no" transform="matrix(14,0,0,14,338.4,440)" />
<use xlink:href="#f6_bq" transform="matrix(14,0,0,14,338.4,440)" />
<use xlink:href="#f6_d4" transform="matrix(14,0,0,14,351.6,440)" />
<use xlink:href="#f6_bz" transform="matrix(14,0,0,14,357.3,440)" />
<use xlink:href="#f6_oz" transform="matrix(14,0,0,14,370.7,440)" />
<use xlink:href="#f6_bm" transform="matrix(14,0,0,14,376.3,440)" />
<use xlink:href="#f6_bz" transform="matrix(14,0,0,14,388.9,440)" />
<use xlink:href="#f6_n1" transform="matrix(14,0,0,14,402.3,440)" />
<use xlink:href="#f6_bm" transform="matrix(14,0,0,14,421.1,440)" />
<use xlink:href="#f6_bz" transform="matrix(14,0,0,14,433.8,440)" />
<use xlink:href="#f6_bm" transform="matrix(14,0,0,14,452.8,440)" />
<use xlink:href="#f6_bz" transform="matrix(14,0,0,14,465.5,440)" />
<use xlink:href="#f6_bm" transform="matrix(14,0,0,14,484.5,440)" />
<use xlink:href="#f6_bz" transform="matrix(14,0,0,14,497.1,440)" />
<use xlink:href="#f6_b9" transform="matrix(14,0,0,14,510.5,440)" />
<use xlink:href="#f6_d4" transform="matrix(14,0,0,14,521.6,440)" />
<use xlink:href="#f6_k" transform="matrix(14,0,0,14,526,440)" />
<use xlink:href="#f6_bz" transform="matrix(14,0,0,14,155,465.2)" />
<use xlink:href="#f6_d4" transform="matrix(14,0,0,14,168.5,465.2)" />
<use xlink:href="#f6_c7" transform="matrix(14,0,0,14,168.3,465.2)" />
<use xlink:href="#f6_ct" transform="matrix(14,0,0,14,180.4,465.2)" />
<use xlink:href="#f6_c1" transform="matrix(14,0,0,14,191.7,465.2)" />
<use xlink:href="#f6_ct" transform="matrix(14,0,0,14,200.1,465.2)" />
<use xlink:href="#f6_bo" transform="matrix(14,0,0,14,205.7,465.2)" />
<use xlink:href="#f6_ct" transform="matrix(14,0,0,14,220.1,465.2)" />
<use xlink:href="#f6_bt" transform="matrix(14,0,0,14,231.4,465.2)" />
<use xlink:href="#f6_d4" transform="matrix(14,0,0,14,243.2,465.2)" />
<use xlink:href="#f6_bg" transform="matrix(14,0,0,14,248.7,465.2)" />
<use xlink:href="#f6_bb" transform="matrix(14,0,0,14,263,465.2)" />
<use xlink:href="#f6_ct" transform="matrix(14,0,0,14,275.6,465.2)" />
<use xlink:href="#f6_c7" transform="matrix(14,0,0,14,281.2,465.2)" />
<use xlink:href="#f6_cv" transform="matrix(14,0,0,14,293.3,465.2)" />
<use xlink:href="#f6_k" transform="matrix(14,0,0,14,298.9,465.2)" />
<use xlink:href="#f6_bw" transform="matrix(14,0,0,14,309.8,465.2)" />
<use xlink:href="#f6_d9" transform="matrix(14,0,0,14,325.9,465.2)" />
<use xlink:href="#f6_bg" transform="matrix(14,0,0,14,331.5,465.2)" />
<use xlink:href="#f6_by" transform="matrix(14,0,0,14,351.4,465.2)" />
<use xlink:href="#f6_bz" transform="matrix(14,0,0,14,365.4,465.2)" />
<use xlink:href="#f6_c1" transform="matrix(14,0,0,14,378.7,465.2)" />
<use xlink:href="#f6_d8" transform="matrix(14,0,0,14,387.1,465.2)" />
<use xlink:href="#f6_c1" transform="matrix(14,0,0,14,398.4,465.2)" />
<use xlink:href="#f6_cv" transform="matrix(14,0,0,14,406.8,465.2)" />
<use xlink:href="#f6_ap" transform="matrix(14,0,0,14,418.1,465.2)" />
<use xlink:href="#f6_ch" transform="matrix(14,0,0,14,429.5,465.2)" />
<use xlink:href="#f6_ct" transform="matrix(14,0,0,14,442.1,465.2)" />
<use xlink:href="#f6_c7" transform="matrix(14,0,0,14,447.7,465.2)" />
<use xlink:href="#f6_cv" transform="matrix(14,0,0,14,459.8,465.2)" />
<use xlink:href="#f6_cb" transform="matrix(14,0,0,14,187.1,490.4)" />
<use xlink:href="#f6_d4" transform="matrix(14,0,0,14,202.1,490.4)" />
<use xlink:href="#f6_bt" transform="matrix(14,0,0,14,202,490.4)" />
<use xlink:href="#f6_ct" transform="matrix(14,0,0,14,213.7,490.4)" />
<use xlink:href="#f6_bv" transform="matrix(14,0,0,14,225,490.4)" />
<use xlink:href="#f6_c3" transform="matrix(14,0,0,14,236.8,490.4)" />
<use xlink:href="#f6_bz" transform="matrix(14,0,0,14,257.2,490.4)" />
<use xlink:href="#f6_oz" transform="matrix(14,0,0,14,270.7,490.4)" />
<use xlink:href="#f6_bx" transform="matrix(14,0,0,14,276.2,490.4)" />
<use xlink:href="#f6_ct" transform="matrix(14,0,0,14,288.5,490.4)" />
<use xlink:href="#f6_cu" transform="matrix(14,0,0,14,294.1,490.4)" />
<use xlink:href="#f6_c7" transform="matrix(14,0,0,14,299.7,490.4)" />
<use xlink:href="#f6_cb" transform="matrix(14,0,0,14,311.8,490.4)" />
<use xlink:href="#f6_cv" transform="matrix(14,0,0,14,326.7,490.4)" />
<use xlink:href="#f6_c1" transform="matrix(14,0,0,14,338,490.4)" />
<use xlink:href="#f6_cv" transform="matrix(14,0,0,14,346.4,490.4)" />
<use xlink:href="#f6_mw" transform="matrix(14,0,0,14,357.6,490.4)" />
<use xlink:href="#f6_c1" transform="matrix(14,0,0,14,369.4,490.4)" />
<use xlink:href="#f6_by" transform="matrix(14,0,0,14,383.5,490.4)" />
<use xlink:href="#f6_bb" transform="matrix(14,0,0,14,397.4,490.4)" />
<use xlink:href="#f6_ct" transform="matrix(14,0,0,14,410,490.4)" />
<use xlink:href="#f6_c7" transform="matrix(14,0,0,14,415.7,490.4)" />
<use xlink:href="#f6_cv" transform="matrix(14,0,0,14,427.7,490.4)" />
<use xlink:href="#f7_4r" transform="matrix(9,0,0,9,286.8,795.2)" />
<use xlink:href="#f8_l" transform="matrix(9,0,0,9,299.6,795.2)" />
<use xlink:href="#f8_k" transform="matrix(9,0,0,9,307.2,795.2)" />
<use xlink:href="#f8_l" transform="matrix(9,0,0,9,314.9,795.2)" />
<use xlink:href="#f7_4r" transform="matrix(9,0,0,9,325.6,795.2)" />
</g>
</g>
<image preserveAspectRatio="none" x="22" y="801" width="581" height="86" xlink:href="img/1.png"/>
<path d="M191.4,104.3H430.8v1.1H191.4v-1.1Z" class="g1_107"/>
<image preserveAspectRatio="none" x="202" y="14" width="217" height="26" xlink:href="img/2.png"/>
<defs>
<path d="M746,-65L571,29V419H376V260L275,212c0,0,-87,48,-160,148c0,0,-72,100,-91,193l57,84H571V822H0L-86,937l32,64H930l88,-115L985,822H713L816,749V-31L746,-65Z"
id="f5_bt"
transform="scale(0.001,-0.001)"/>

<path d="M277,-65L102,29V822H0L-86,937l32,64H463L548,886L516,822H244L347,749V-31L277,-65Z"
id="f5_ct"
transform="scale(0.001,-0.001)"/>

<path d="M300,310c13,0,56,2,103,25c0,0,58,27,100,81V523c0,0,-46,16,-83,16c0,0,-69,0,-111,-45c0,0,-42,-45,-42,-104c0,0,0,-45,28,-80c0,0,2,0,5,0ZM677,-65L503,29V144c0,0,-32,-11,-75,-11c0,0,-147,0,-272,98c0,0,-125,99,-125,233c0,0,0,110,75,185c0,0,76,74,195,74l67,-6L503,646V822H0L-86,937l32,64H1245l86,-115l-32,-64H645L747,749V622c0,0,81,58,165,58c0,0,122,0,213,-99c0,0,91,-98,91,-230c0,0,0,-204,-253,-371L791,157c0,0,110,83,164,139c0,0,53,55,53,106c0,0,0,55,-53,55c0,0,-83,0,-208,-145V-31L677,-65Z"
id="f5_b9"
transform="scale(0.001,-0.001)"/>

<path d="M277,-65L102,29V822H0L-86,937l32,64H86L18,1111c0,0,-67,122,-168,122c0,0,-81,0,-202,-80l-128,250c0,0,122,77,232,77c0,0,196,0,356,-250L252,1001H463L548,886L516,822H244L347,749V-31L277,-65Z"
id="f5_d8"
transform="scale(0.001,-0.001)"/>

<path d="M550,-407c0,0,-38,15,-87,52c0,0,-49,37,-73,72c0,0,56,113,129,157c0,0,84,-32,156,-124c0,0,-17,-44,-52,-88c0,0,-35,-44,-73,-69Zm23,306c0,0,-296,0,-555,382l104,86c0,0,167,-260,381,-260c0,0,87,0,151,46c0,0,64,46,63,113L489,194c0,0,-167,54,-273,152c0,0,-106,99,-106,206c0,0,0,87,72,142c0,0,72,55,211,55H588v73H0L-86,937l32,64H949l85,-115l-32,-64H706L808,749V545H445c0,0,-127,0,-127,-64c0,0,0,-35,38,-62l278,64c0,0,125,-43,193,-130c0,0,67,-87,67,-182c0,0,0,-116,-91,-194c0,0,-91,-78,-230,-78Z"
id="f5_ch"
transform="scale(0.001,-0.001)"/>

<path d="M874,-65L700,29V309H513V173L422,122c0,0,-90,31,-191,129c0,0,-100,97,-127,184l52,81H277l-2,240c0,0,0,77,-26,109c0,0,-1,0,-2,0c-8,0,-44,-1,-70,-22c0,0,-29,-24,-29,-61c0,0,0,-53,64,-101L125,610c0,0,-174,117,-174,238c0,0,0,78,57,133c0,0,59,55,146,55c0,0,132,0,244,-112c0,0,112,-113,112,-246V516H700V822H655L570,937l32,64h458l86,-115l-32,-64H842L944,749V-31L874,-65Z"
id="f5_by"
transform="scale(0.001,-0.001)"/>

<path d="M-272,872l-211,214c0,0,-64,61,-138,61c0,0,-70,0,-195,-74l-115,204c0,0,121,86,223,86c0,0,133,0,266,-155l156,-190l-84,209c0,0,-49,119,-100,170c0,0,-50,51,-129,51c0,0,-66,0,-165,-36l-92,243c0,0,105,41,189,41c0,0,240,0,375,-344L-143,923L-272,872Z"
id="f5_d5"
transform="scale(0.001,-0.001)"/>

<path d="M545,-97L35,405L87,542H295c0,0,1,5,1,280H0L-86,937l32,64H1218l87,-115l-32,-64H445L550,749V600c0,0,37,57,100,92c0,0,63,35,138,35c0,0,135,0,243,-111c0,0,109,-112,229,-318L1143,215c0,0,-125,201,-185,258c0,0,-60,57,-124,57c0,0,-59,0,-99,-36c0,0,-40,-36,-40,-81c0,0,0,-33,23,-60L888,466L1004,295c0,0,-95,-89,-190,-89c0,0,-97,0,-185,69c0,0,-88,69,-108,163c0,0,-34,-58,-141,-129L709,110V41L545,-97Z"
id="f5_n1"
transform="scale(0.001,-0.001)"/>

<path d="M952,-65L778,29V474H600c0,0,94,-91,94,-202c0,0,0,-98,-66,-163c0,0,-66,-65,-171,-65c0,0,-165,0,-280,155C177,199,63,354,-7,616l152,50c0,0,67,-223,120,-299c0,0,53,-77,122,-77c0,0,47,0,73,29c0,0,26,28,26,71c0,0,0,79,-73,128L298,559V681H778V822H0L-86,937l32,64H1137l85,-115l-32,-64H920l102,-73V-31L952,-65Z"
id="f5_bg"
transform="scale(0.001,-0.001)"/>

<path d="M277,-65L102,29V822H0L-86,937l32,64H110c0,0,-50,142,-110,226c0,0,-60,84,-149,84c0,0,-59,0,-97,-37c0,0,-39,-36,-39,-91c0,0,0,-57,42,-115l-95,-50c0,0,-145,116,-145,267c0,0,0,108,75,179c0,0,76,70,195,70c0,0,179,0,297,-150c0,0,119,-150,189,-383H463L548,886L516,822H244L347,749V-31L277,-65Z"
id="f5_cv"
transform="scale(0.001,-0.001)"/>

<path d="M545,-97L35,405L87,542H295c0,0,1,5,1,280H0L-86,937l32,64H729L814,886L782,822H445L550,749V547c0,0,0,-75,-41,-127c0,0,-41,-52,-129,-111L709,110V41L545,-97Z"
id="f5_c1"
transform="scale(0.001,-0.001)"/>

<path d="M394,379c0,0,57,0,107,30c0,0,51,29,77,86V822H214L318,749V403c0,0,29,-24,76,-24ZM752,-65L578,29V188c0,0,-43,-18,-89,-18c0,0,-138,0,-282,130C207,300,63,431,60,567V822H0L-86,937l32,64H937l87,-115L992,822H720L822,749V-31L752,-65Z"
id="f5_bv"
transform="scale(0.001,-0.001)"/>

<path d="M911,-65L736,29V136c0,0,-59,-28,-134,-28c0,0,-159,0,-296,101c0,0,-136,101,-136,233c0,0,0,47,21,90H60L-22,648L9,712H578L671,574L639,510H492c0,0,-87,-58,-87,-157c0,0,0,-26,9,-52l50,-5c0,0,78,0,156,44c0,0,77,43,116,111V822H0L-86,937l32,64H1095l86,-115l-32,-64H878L981,749V-31L911,-65Z"
id="f5_be"
transform="scale(0.001,-0.001)"/>

<path d="M663,-49L573,8V445H299V280L226,251c0,0,-105,99,-162,238l63,72H573V822H0l-45,76l14,31H837l46,-76L869,822H634l66,-58V-39L663,-49Z"
id="f6_bt"
transform="scale(0.001,-0.001)"/>

<path d="M228,-49L138,8V822H0l-45,76l14,31H402l46,-76L434,822H199l65,-58V-39L228,-49Z"
id="f6_ct"
transform="scale(0.001,-0.001)"/>

<path d="M283,260c0,0,122,0,209,113V513c0,0,-90,51,-160,51c0,0,-80,0,-129,-50c0,0,-49,-50,-49,-118c0,0,0,-60,35,-110c0,0,45,-26,94,-26ZM582,-49L492,8V211c0,0,-63,-54,-141,-54c0,0,-113,0,-213,92c0,0,-100,92,-100,205c0,0,0,93,69,157c0,0,69,64,162,64c0,0,32,0,64,-9L492,590V822H0l-45,76l14,31H1108l45,-76l-13,-31H553l66,-58V524c0,0,91,89,192,89c0,0,98,0,171,-79c0,0,72,-79,72,-186c0,0,0,-178,-224,-330L736,124c0,0,219,153,219,269c0,0,0,44,-26,75c0,0,-26,32,-81,32c0,0,-109,0,-229,-155V-39L582,-49Z"
id="f6_b9"
transform="scale(0.001,-0.001)"/>

<path d="M228,-49L138,8V822H0l-45,76l14,31H119L-33,1144c0,0,-70,92,-157,92c0,0,-69,0,-159,-58l-72,118c0,0,89,73,181,73c0,0,140,0,257,-170L205,929H402l46,-76L434,822H199l65,-58V-39L228,-49Z"
id="f6_d8"
transform="scale(0.001,-0.001)"/>

<path d="M547,-285c0,0,-66,25,-102,80c0,0,32,69,82,101c0,0,55,-20,99,-80c0,0,-26,-67,-79,-101Zm1,228c0,0,-122,0,-243,81c0,0,-122,81,-252,280l57,41C110,345,283,64,498,64c0,0,92,0,153,49c0,0,61,49,61,121c0,0,0,46,-28,84L440,237c0,0,-73,11,-139,55c0,0,-66,44,-105,105c0,0,-40,61,-40,119c0,0,0,72,62,125c0,0,62,53,184,53H625V822H0l-45,76l14,31H906l46,-76L938,822H678l66,-58V562H431c0,0,-164,0,-164,-99c0,0,0,-55,57,-102l261,82c0,0,104,-21,172,-98c0,0,68,-78,68,-171c0,0,0,-99,-76,-166c0,0,-77,-65,-201,-65Z"
id="f6_ch"
transform="scale(0.001,-0.001)"/>

<path d="M823,-49L733,8V339H445V191L371,160c0,0,-56,36,-120,105c0,0,-63,70,-89,131l41,59H313V735c0,0,0,99,-55,140c0,0,-3,1,-8,1c-16,0,-48,-3,-71,-23c0,0,-31,-26,-31,-66c0,0,0,-69,81,-113L189,620C189,620,31,720,31,828c0,0,0,61,45,99c0,0,46,37,109,37c0,0,96,0,173,-86c0,0,76,-87,79,-194V455H733V822H556l-46,76l14,31H998l45,-76l-13,-31H794l66,-58V-39L823,-49Z"
id="f6_by"
transform="scale(0.001,-0.001)"/>

<path d="M-214,860l-227,219c0,0,-73,70,-148,70c0,0,-67,0,-160,-58l-72,117c0,0,83,71,176,71c0,0,120,0,232,-124L-221,940l-102,294c0,0,-64,179,-189,179c0,0,-60,0,-133,-33l-60,125c0,0,84,47,164,47c0,0,200,0,281,-276L-150,901l-23,-15l-41,-26Z"
id="f6_d5"
transform="scale(0.001,-0.001)"/>

<path d="M527,-71L52,414l34,92H277c0,0,12,32,12,72V822H0l-45,76l14,31H940l45,-76L972,822H350l66,-55V553c0,0,24,52,77,83c0,0,52,30,112,30c0,0,87,0,171,-76c0,0,84,-75,222,-304L938,244L828,411c0,0,-95,134,-195,134c0,0,-63,0,-100,-35c0,0,-36,-36,-36,-87c0,0,0,-50,42,-87l152,99L755,315c0,0,-71,-61,-148,-61c0,0,-80,0,-146,66c0,0,-65,67,-65,164c0,0,-34,-70,-132,-168L610,34L611,8L527,-71Z"
id="f6_n1"
transform="scale(0.001,-0.001)"/>

<path d="M845,-49L755,8V513H497c0,0,61,-45,93,-110c0,0,33,-64,33,-128c0,0,0,-90,-58,-144c0,0,-59,-53,-143,-53c0,0,-133,0,-234,139C188,217,87,356,20,596l76,24c0,0,60,-201,127,-306c0,0,67,-105,160,-105c0,0,57,0,91,36c0,0,33,36,33,91c0,0,0,84,-73,159L295,558v71H755V822H0l-45,76l14,31H1019l46,-76l-14,-31H816l66,-58V-39L845,-49Z"
id="f6_bg"
transform="scale(0.001,-0.001)"/>

<path d="M228,-49L138,8V822H0l-45,76l14,31H138c0,0,-109,342,-284,342c0,0,-62,0,-102,-40c0,0,-40,-39,-40,-93c0,0,0,-61,51,-134l-42,-32c0,0,-128,113,-128,226c0,0,0,79,60,136c0,0,61,56,154,56c0,0,137,0,249,-125c0,0,112,-125,169,-336H402l46,-76L434,822H199l65,-58V-39L228,-49Z"
id="f6_cv"
transform="scale(0.001,-0.001)"/>

<path d="M527,-71L52,414l34,92H277c0,0,12,32,12,72V822H0l-45,76l14,31H599l46,-76L631,822H350l66,-55V564c0,0,0,-96,-152,-248L610,34L611,8L527,-71Z"
id="f6_c1"
transform="scale(0.001,-0.001)"/>

<path d="M388,325c0,0,58,0,112,31c0,0,53,31,84,86V822H165l69,-58V408c0,0,47,-83,154,-83ZM674,-49L584,8V257c0,0,-61,-51,-141,-51c0,0,-125,0,-232,109c0,0,-107,108,-107,243V822H0l-45,76l14,31H848l46,-76L880,822H645l65,-58V-39L674,-49Z"
id="f6_bv"
transform="scale(0.001,-0.001)"/>

<path d="M825,-49L735,8V217c0,0,-86,-72,-197,-72c0,0,-130,0,-238,91c0,0,-107,91,-107,204c0,0,0,55,27,105H55L12,616l14,30H574l46,-76L607,539H396c0,0,-78,-49,-78,-162c0,0,0,-70,40,-111c0,0,39,-15,94,-15c0,0,84,0,163,41c0,0,79,41,120,121V822H0l-45,76l14,31H999l46,-76l-14,-31H796l66,-58V-39L825,-49Z"
id="f6_be"
transform="scale(0.001,-0.001)"/>

<path d="M92,380L46,457l14,30H448l45,-76L480,380Z"
id="f6_pd"
transform="scale(0.001,-0.001)"/>

<path d="M95,0L67,98L422,497c0,0,130,154,130,259c0,0,0,63,-40,111c0,0,-40,48,-121,48c0,0,-75,0,-171,-29L193,695l-88,2c0,0,-13,82,-13,165l1,65c0,0,159,97,315,97c0,0,122,0,207,-78c0,0,85,-77,85,-193c0,0,0,-67,-34,-133c0,0,-33,-67,-165,-217L237,121l4,-14l373,21l49,136l83,-12C746,252,732,99,704,0Z"
id="f6_q"
transform="scale(0.001,-0.001)"/>

<path d="M348,229c0,0,57,0,106,17L263,559c0,0,-95,-50,-95,-162c0,0,0,-75,52,-136c0,0,49,-32,128,-32Zm170,48c0,0,61,38,96,91V504c0,0,-131,80,-244,80l-35,-2L518,277ZM704,-49L614,8V193c0,0,-84,-65,-192,-65c0,0,-139,0,-255,98c0,0,-115,98,-115,226c0,0,0,106,77,175c0,0,77,70,189,70c0,0,38,0,75,-9L614,578V822H0l-45,76l14,31H878l46,-76L911,822H675l66,-58V-39L704,-49Z"
id="f6_bx"
transform="scale(0.001,-0.001)"/>

<path d="M487,-7c0,0,-88,0,-185,46c0,0,-97,47,-163,130c0,0,-66,83,-66,185c0,0,0,109,80,177c0,0,79,68,234,68H504V822H0l-45,76l14,31H827l45,-76L859,822H565l66,-58V474l-3,1l3,-3H396c0,0,-100,0,-152,-47c0,0,-53,-48,-53,-119c0,0,0,-104,93,-178c0,0,60,-20,118,-20c0,0,81,0,156,36c0,0,76,35,123,99l92,-99C773,144,723,70,645,31C645,31,567,-7,487,-7Z"
id="f6_bk"
transform="scale(0.001,-0.001)"/>

<path d="M-234,-413c0,0,-210,0,-488,322l54,49c0,0,119,-128,209,-193c0,0,90,-65,177,-65c0,0,72,0,113,40c0,0,42,39,42,91c0,0,0,75,-78,106L-323,-181l-90,98c0,0,63,95,167,95c0,0,90,0,155,-69c0,0,66,-70,66,-164c0,0,0,-85,-60,-139c0,0,-61,-53,-149,-53Z"
id="f6_cw"
transform="scale(0.001,-0.001)"/>

<path d="M-214,863l-199,281c0,0,-70,92,-157,92c0,0,-69,0,-159,-58l-72,118c0,0,89,73,180,73c0,0,141,0,258,-170L-155,901l-59,-38Z"
id="f6_d4"
transform="scale(0.001,-0.001)"/>

<path d="M652,-518c0,0,-209,0,-487,322l53,49c0,0,120,-129,210,-193c0,0,90,-65,177,-65c0,0,72,0,113,39c0,0,41,40,41,92c0,0,0,75,-78,105L564,-286l-90,98c0,0,62,96,169,96L605,37C605,37,552,18,498,18c0,0,-151,0,-288,115C210,133,73,248,73,388c0,0,0,113,84,184c0,0,84,71,222,73H524V822H0l-45,76l14,31H842l46,-76L874,822H567l84,-73V519l-3,2l3,-3H408c0,0,-93,0,-153,-52c0,0,-59,-52,-59,-128c0,0,0,-121,110,-188c0,0,53,-17,105,-17c0,0,92,0,153,43L535,318l101,49L773,203c0,0,-20,-67,-87,-122l61,-204c0,0,52,-32,83,-87c0,0,32,-55,32,-116c0,0,0,-85,-61,-139c0,0,-60,-53,-149,-53Z"
id="f6_mv"
transform="scale(0.001,-0.001)"/>

<path d="M228,-49L138,8V822H0l-45,76l14,31H134c0,0,-91,92,-91,191c0,0,0,105,85,170c0,0,84,65,219,65c0,0,128,0,293,-76c0,0,165,-77,362,-263L958,966c0,0,-177,143,-303,210c0,0,-125,68,-244,68c0,0,-107,0,-175,-50c0,0,-68,-50,-68,-131c0,0,0,-61,49,-134H402l46,-76L434,822H199l65,-58V-39L228,-49Z"
id="f6_cu"
transform="scale(0.001,-0.001)"/>

<path d="M374,248c0,0,77,0,149,36c0,0,71,37,110,107V822H284c0,0,138,-96,138,-208c0,0,0,-151,-228,-192c0,0,29,-104,89,-158c0,0,41,-16,91,-16ZM723,-49L633,8V200c0,0,-69,-56,-170,-56c0,0,-122,0,-240,94c0,0,-118,94,-179,237l20,55c0,0,133,17,187,44c0,0,55,28,55,84c0,0,0,45,-30,81c0,0,-30,36,-99,83H0l-45,76l14,31H897l46,-76L929,822H694l65,-58V-39L723,-49Z"
id="f6_c0"
transform="scale(0.001,-0.001)"/>

<path d="M799,475V822H350l66,-55V564c0,0,0,-43,-25,-89ZM527,-71L52,414l34,92H277c0,0,12,32,12,72V822H0l-45,76l14,31H1063l46,-76l-14,-31H860l66,-58V-39L889,-49L799,8V370H315L264,316L610,34L611,8L527,-71Z"
id="f6_cb"
transform="scale(0.001,-0.001)"/>

<path d="M108,-222l-44,58c0,0,96,81,104,164L89,61c0,0,12,83,93,122c0,0,50,-15,79,-55c0,0,29,-39,29,-90c0,0,0,-69,-48,-142c0,0,-48,-72,-134,-118Z"
id="f6_k"
transform="scale(0.001,-0.001)"/>

<path d="M471,-26c0,0,-259,0,-448,396l70,43C93,413,240,98,442,98c0,0,79,0,132,46c0,0,54,45,54,120c0,0,0,61,-38,116c0,0,-38,54,-107,72L322,370L255,492c0,0,66,53,156,56c0,0,128,51,128,153c0,0,0,77,-65,121H0l-45,76l14,31H813l46,-76L845,822H578c0,0,76,-66,76,-157c0,0,0,-95,-87,-156c0,0,84,-48,131,-123c0,0,48,-76,48,-158c0,0,0,-109,-78,-182c0,0,-78,-72,-197,-72Z"
id="f6_ap"
transform="scale(0.001,-0.001)"/>

<path d="M413,-59C413,-59,53,193,53,416c0,0,0,97,66,164c0,0,66,66,156,66c0,0,61,0,110,-30L487,507c0,0,92,126,257,126l35,-2V822H0l-45,76l14,31H1043l46,-76l-13,-31H840l66,-58V-39L869,-49L779,8V547c0,0,-101,-5,-165,-90c0,0,-64,-86,-70,-222L507,225l-90,73c0,0,5,79,35,151c0,0,-59,66,-128,66c0,0,-57,0,-100,-38c0,0,-44,-39,-44,-109c0,0,0,-165,284,-360L413,-59Z"
id="f6_c3"
transform="scale(0.001,-0.001)"/>

<path d="M180,220c0,0,-105,99,-162,238l63,72H556l40,-85L574,414H254V249L180,220ZM0,822l-45,76l14,31H471l45,-76L503,822Z"
id="f6_li"
transform="scale(0.001,-0.001)"/>

<path d="M483,-305L295,-10c0,0,-90,22,-156,74l41,170h66L351,63c0,0,126,4,207,62c0,0,82,58,82,139c0,0,0,37,-18,71L365,266c0,0,-110,15,-197,102c0,0,-87,87,-87,176c0,0,0,69,59,117c0,0,59,48,172,48H550V822H0l-45,76l14,31H550c0,0,-142,122,-142,255c0,0,0,78,52,133c0,0,52,55,140,55c0,0,98,0,176,-64l-23,-69c0,0,-53,32,-104,32c0,0,-56,0,-94,-36c0,0,-39,-36,-39,-95c0,0,0,-109,112,-211H822l46,-76L854,822H603l66,-58V585H373c0,0,-184,0,-184,-99c0,0,0,-48,63,-101l310,78c0,0,86,-34,141,-99c0,0,55,-65,55,-142c0,0,0,-109,-98,-179c0,0,-98,-69,-254,-69L599,-216L483,-305Z"
id="f6_ao"
transform="scale(0.001,-0.001)"/>

<path d="M513,460c0,0,61,81,61,179c0,0,0,87,-45,143c0,0,-45,57,-116,57c0,0,-63,0,-102,-43c0,0,-39,-43,-39,-110c0,0,0,-90,68,-151c0,0,68,-61,173,-75ZM581,-83L278,167l-41,-4c0,0,-99,0,-130,37l47,168l51,12l78,-79c0,0,110,40,183,105c0,0,-141,23,-231,107c0,0,-90,84,-90,193c0,0,0,69,37,116H0l-45,76l14,31H1134l45,-76l-13,-31H930l66,-58V-39L959,-49L869,8V822H588c0,0,51,-44,75,-109c0,0,25,-64,25,-122c0,0,0,-105,-81,-213c0,0,-80,-108,-240,-176L658,18l2,-25L581,-83Z"
id="f6_c8"
transform="scale(0.001,-0.001)"/>

<path d="M228,-49L138,8V822H0l-45,76l14,31H134c0,0,-231,362,-445,362c0,0,-87,0,-135,-49c0,0,-48,-49,-48,-116c0,0,0,-73,43,-122l-45,-32c0,0,-119,108,-119,223c0,0,0,94,74,155c0,0,73,60,181,60c0,0,161,0,316,-134c0,0,154,-133,267,-347H402l46,-76L434,822H199l65,-58V-39L228,-49Z"
id="f6_oc"
transform="scale(0.001,-0.001)"/>

<path d="M108,-433L-59,-214c0,0,-99,119,-191,119c0,0,-59,0,-96,-35c0,0,-36,-34,-36,-81c0,0,0,-49,42,-83l152,95l64,-116c0,0,-71,-58,-148,-58c0,0,-80,0,-146,63c0,0,-65,64,-65,144c0,0,0,77,62,131c0,0,61,53,142,53c0,0,138,0,296,-205L165,-393l-57,-40Z"
id="f6_cx"
transform="scale(0.001,-0.001)"/>

<path d="M325,240c0,0,77,0,154,35c0,0,77,35,120,99V500c0,0,-118,73,-222,73c0,0,-97,0,-151,-54c0,0,-53,-53,-53,-128c0,0,0,-73,49,-125c0,0,38,-26,103,-26ZM689,-49L599,8V199c0,0,-73,-65,-179,-65c0,0,-134,0,-252,96c0,0,-118,95,-118,221c0,0,0,102,78,171c0,0,78,69,190,69c0,0,38,0,75,-10L599,582V822H0l-45,76l14,31H863l46,-76L895,822H660l66,-58V-39L689,-49Z"
id="f6_c7"
transform="scale(0.001,-0.001)"/>

<path d="M368,344c0,0,90,0,155,73V822H150l67,-58V438c0,0,46,-94,151,-94ZM613,-49L523,8V251c0,0,-48,-28,-103,-28c0,0,-122,0,-227,112C193,335,89,448,89,590V822H0l-45,76l14,31H1150l46,-76l-13,-31H584l65,-58V533c0,0,101,95,211,95c0,0,98,0,170,-79c0,0,73,-78,73,-185c0,0,0,-179,-225,-330L785,139c0,0,219,153,219,269c0,0,0,43,-26,75c0,0,-26,32,-80,32c0,0,-120,0,-249,-159V-39L613,-49Z"
id="f6_bw"
transform="scale(0.001,-0.001)"/>

<path d="M761,293c0,0,127,0,169,94V532c0,0,-68,46,-145,46c0,0,-76,0,-121,-46c0,0,-45,-45,-45,-107c0,0,0,-61,44,-110c0,0,47,-22,98,-22ZM657,67c0,0,166,0,273,107v55c0,0,-45,-36,-111,-36c0,0,-110,0,-207,90c0,0,-97,90,-97,194c0,0,0,85,66,148c0,0,65,63,155,63l48,-5L930,603V822H376l62,-55V579c0,0,0,-60,-23,-102c0,0,-24,-42,-148,-190c0,0,66,-104,175,-162c0,0,108,-58,215,-58ZM1021,-49L930,8V53c0,0,-105,-83,-264,-83c0,0,-177,0,-339,128C327,98,165,226,90,429l34,77H296c0,0,19,39,19,102l-2,214H0l-45,76l14,31H1195l46,-76l-14,-31H992l65,-58V-39l-36,-10Z"
id="f6_ba"
transform="scale(0.001,-0.001)"/>

<path d="M959,-49L869,8V367c0,0,-32,-13,-64,-13c0,0,-50,0,-110,25c0,0,23,-52,23,-109c0,0,0,-103,-70,-170c0,0,-70,-66,-182,-66c0,0,-110,0,-222,82c0,0,-111,83,-213,293l68,42c0,0,72,-155,152,-231c0,0,81,-76,178,-76c0,0,83,0,131,49c0,0,48,48,48,117c0,0,0,54,-30,100c0,0,-31,47,-91,65L325,391L257,512c0,0,68,53,156,56c0,0,140,72,140,179c0,0,0,69,-52,99c0,0,-4,1,-11,1c-19,0,-66,-4,-123,-30c0,0,-78,-35,-142,-96L150,823c0,0,119,117,253,117c0,0,98,0,175,-71c0,0,77,-70,77,-159c0,0,0,-103,-94,-180c0,0,39,-23,73,-56c0,0,52,-22,109,-22c0,0,77,0,126,38V822H727l-46,76l14,31h840l46,-76l-13,-31H1332l66,-58V-39l-37,-10L1271,8V822H930l66,-58V-39L959,-49Z"
id="f6_am"
transform="scale(0.001,-0.001)"/>

<path d="M0,1062c0,0,-26,11,-60,36c0,0,-34,26,-51,49c0,0,39,81,91,110c0,0,60,-23,106,-85c0,0,-28,-70,-86,-110Z"
id="f6_dj"
transform="scale(0.001,-0.001)"/>

<path d="M727,-49L637,8V822H278l66,-58V226L270,196c0,0,-64,36,-122,98c0,0,-58,62,-79,122l43,59H217V822H0l-45,76l14,31H901l46,-76L933,822H698l66,-58V-39L727,-49Z"
id="f6_bb"
transform="scale(0.001,-0.001)"/>

<path d="M483,-305L295,-10c0,0,-90,22,-156,74l41,170h66L351,63c0,0,126,4,207,62c0,0,82,58,82,139c0,0,0,37,-18,71L365,266c0,0,-110,15,-197,102c0,0,-87,87,-87,176c0,0,0,69,59,117c0,0,59,48,172,48H550V822H0l-45,76l14,31H822l46,-76L854,822H603l66,-58V585H373c0,0,-184,0,-184,-99c0,0,0,-48,63,-101l310,78c0,0,86,-34,141,-99c0,0,55,-65,55,-142c0,0,0,-109,-98,-179c0,0,-98,-69,-254,-69L599,-216L483,-305Z"
id="f6_an"
transform="scale(0.001,-0.001)"/>

<path d="M688,-49L597,8V335L248,81l-92,81L532,425l-81,76c0,0,-80,70,-133,70c0,0,-81,0,-194,-96L38,584c0,0,109,105,223,105c0,0,103,0,213,-107L597,457V822H0l-45,76l14,31H862l46,-76L894,822H658l66,-58V-39L688,-49Z"
id="f6_e1"
transform="scale(0.001,-0.001)"/>

<path d="M347,-57C347,-57,66,211,66,394c0,0,0,98,74,164c0,0,74,65,225,65H616V822H0l-45,76l14,31H880l46,-76L912,822H677l66,-58V-39L706,-49L616,8V500H428c0,0,-239,0,-239,-161c0,0,0,-136,214,-343L347,-57Z"
id="f6_bp"
transform="scale(0.001,-0.001)"/>

<path d="M827,-49L736,8V205c0,0,-84,-84,-209,-84c0,0,-130,0,-237,91c0,0,-108,92,-108,196c0,0,0,79,61,137C243,545,66,672,66,791c0,0,0,75,52,124c0,0,53,49,134,49c0,0,164,0,260,-237L451,694c0,0,-55,114,-119,163l-31,5c0,0,-44,0,-77,-32c0,0,-33,-31,-33,-78c0,0,0,-86,113,-165c0,0,60,27,133,27l67,-4l75,-89L564,490l-51,7H493c0,0,-90,0,-142,-43c0,0,-52,-43,-52,-104c0,0,0,-60,51,-109c0,0,33,-16,84,-16c0,0,89,0,177,47c0,0,89,47,125,137V822H567l-46,76l14,31h466l46,-76l-14,-31H798l65,-58V-39L827,-49Z"
id="f6_bs"
transform="scale(0.001,-0.001)"/>

<path d="M688,-243c0,0,-256,53,-408,173c0,0,-152,119,-152,270c0,0,0,101,68,171c0,0,-101,84,-101,179c0,0,0,64,53,112c0,0,54,47,191,47H587V822H0l-45,76l14,31H830l45,-76L862,822H640l66,-58V585H362c0,0,-159,-1,-159,-92c0,0,0,-41,46,-80c0,0,76,47,183,47c0,0,135,0,230,-76c0,0,96,-75,96,-187C758,197,758,67,629,2L545,104c0,0,49,30,81,75c0,0,32,44,32,82c0,0,0,16,-4,26c0,0,-64,58,-167,58c0,0,-97,0,-166,-50v-2c0,0,-67,-52,-67,-131c0,0,0,-116,132,-199c0,0,132,-84,334,-132l-32,-74Z"
id="f6_cc"
transform="scale(0.001,-0.001)"/>

<path d="M426,-68L339,5V953l37,11l87,-73V-57L426,-68Z"
id="f6_ng"
transform="scale(0.001,-0.001)"/>

<path d="M319,561c0,0,66,46,103,105c0,0,36,60,36,113c0,0,0,28,-9,48c0,0,-35,41,-88,41c0,0,-51,0,-89,-39c0,0,-38,-39,-38,-103c0,0,0,-95,85,-165ZM840,-49L750,8V342L362,31l-89,85L608,370c0,0,-121,15,-241,78L105,272L20,364L260,519c0,0,-144,118,-144,246c0,0,0,81,57,140c0,0,56,59,140,59c0,0,96,0,171,-79c0,0,75,-78,75,-168c0,0,0,-117,-130,-219c0,0,110,-40,257,-40l64,2V822H628l-46,76l14,31h418l46,-76l-13,-31H811l66,-58V-39L840,-49Z"
id="f6_ef"
transform="scale(0.001,-0.001)"/>

<path d="M689,445V822H286l65,-58l8,-319ZM779,-49L689,8V328H370V180L296,150c0,0,-56,35,-120,104c0,0,-63,70,-89,131l41,60H238L223,822H0l-45,76l14,31H953l46,-76L985,822H750l66,-58V-39L779,-49Z"
id="f6_bz"
transform="scale(0.001,-0.001)"/>

<path d="M548,-57c0,0,-122,0,-243,81c0,0,-122,81,-252,280l57,41C110,345,283,64,498,64c0,0,92,0,153,49c0,0,61,49,61,121c0,0,0,46,-28,84L440,237c0,0,-73,11,-139,55c0,0,-66,44,-105,105c0,0,-40,61,-40,119c0,0,0,72,62,125c0,0,62,53,184,53H625V822H0l-45,76l14,31H906l46,-76L938,822H678l66,-58V562H431c0,0,-164,0,-164,-99c0,0,0,-55,57,-102l261,82c0,0,104,-21,172,-98c0,0,68,-78,68,-171c0,0,0,-99,-76,-166c0,0,-77,-65,-201,-65Z"
id="f6_bm"
transform="scale(0.001,-0.001)"/>

<path d="M458,105c0,0,86,0,176,42c0,0,90,42,133,114V822H484l66,-58V600H318c0,0,-167,0,-167,-96c0,0,0,-61,100,-124c0,0,74,78,235,78l79,-4l60,-98L607,324l-57,4H529c0,0,-103,0,-152,-34c0,0,-49,-34,-49,-85c0,0,0,-46,34,-82c0,0,38,-22,96,-22ZM857,-75l-90,58V84C767,84,671,3,550,3C550,3,425,3,315,89c0,0,-109,87,-109,186c0,0,0,24,11,57c0,0,-83,41,-131,100c0,0,-49,58,-49,123c0,0,0,67,55,118c0,0,55,51,175,51H431v98H0l-45,76l14,31H1031l46,-76l-14,-31H828l66,-58V-65L857,-75Z"
id="f6_gj"
transform="scale(0.001,-0.001)"/>

<path d="M634,-49L249,296c0,0,-1,0,-3,0c-11,0,-48,1,-90,15c0,0,-51,16,-67,36l49,165l50,12l84,-98c0,0,125,31,191,104c0,0,66,73,66,165c0,0,0,109,-95,170c0,0,-2,0,-6,0C397,865,262,858,121,738L46,848c0,0,52,47,127,82c0,0,75,34,152,34c0,0,130,0,226,-94c0,0,95,-94,95,-218c0,0,0,-107,-77,-199c0,0,-77,-92,-216,-134L697,26L698,0L634,-49Z"
id="f6_n8"
transform="scale(0.001,-0.001)"/>

<path d="M228,-49L138,8V822H0l-45,76l14,31H134c0,0,-85,93,-85,192c0,0,0,124,129,195c0,0,129,71,364,71c0,0,285,0,647,-97c0,0,363,-97,692,-271l-42,-50c0,0,-313,137,-644,221c0,0,-332,84,-595,84c0,0,-198,0,-314,-55c0,0,-115,-55,-115,-163c0,0,0,-60,44,-127H402l46,-76L434,822H199l65,-58V-39L228,-49Z"
id="f6_o0"
transform="scale(0.001,-0.001)"/>

<path d="M283,260c0,0,122,0,209,113V513c0,0,-90,51,-160,51c0,0,-80,0,-129,-50c0,0,-49,-50,-49,-118c0,0,0,-60,35,-110c0,0,45,-26,94,-26ZM582,-49L492,8V211c0,0,-63,-54,-141,-54c0,0,-113,0,-214,92c0,0,-102,92,-102,206c0,0,0,93,69,157c0,0,69,63,163,63c0,0,34,0,66,-9L492,590V822H0l-45,76l14,31H909l46,-76L941,822H553l66,-58V521c0,0,93,104,192,104c0,0,63,0,120,-42c0,0,57,-42,82,-106L964,431l-5,9c0,0,-38,72,-110,72c0,0,-51,0,-105,-41c0,0,-53,-42,-125,-129V-39L582,-49Z"
id="f6_l1"
transform="scale(0.001,-0.001)"/>

<path d="M830,-253l-123,66c0,0,31,47,31,78c0,0,0,44,-64,84L353,130c0,0,-234,113,-234,325V822H0l-45,76l14,31H848l46,-76L880,822H655l68,-58V561c0,0,0,-176,-41,-241c0,0,-40,-65,-161,-106l-49,82l124,69V822H180l66,-58V283L646,92c0,0,126,-60,176,-110c0,0,50,-51,50,-115c0,0,0,-62,-42,-120Z"
id="f6_ax"
transform="scale(0.001,-0.001)"/>

<path d="M0,822l-45,76l14,31H61l46,-76L93,822Z"
id="f6_no"
transform="scale(0.001,-0.001)"/>

<path d="M768,-49L678,8V202c0,0,-73,-58,-172,-58c0,0,-123,0,-240,94c0,0,-118,94,-179,237l20,55c0,0,134,12,215,70c0,0,81,57,81,141c0,0,0,90,-67,134l-26,3c0,0,-46,0,-74,-29c0,0,-28,-30,-28,-68c0,0,0,-55,82,-109L252,620C252,620,93,720,93,820c0,0,0,65,47,104c0,0,46,40,114,40c0,0,99,0,179,-83c0,0,80,-83,82,-197c0,0,0,-93,-79,-165c0,0,-78,-73,-199,-97c0,0,29,-104,88,-158c0,0,42,-16,92,-16c0,0,78,0,151,38c0,0,74,38,110,111V822H553l-46,76l14,31H943l45,-76L975,822H739l66,-58V-39L768,-49Z"
id="f6_bq"
transform="scale(0.001,-0.001)"/>

<path d="M-91,1001c0,0,-27,10,-61,36c0,0,-33,26,-50,49c0,0,38,81,90,110c0,0,61,-23,107,-85c0,0,-28,-71,-86,-110ZM-214,863l-199,281c0,0,-70,92,-157,92c0,0,-69,0,-159,-58l-72,118c0,0,89,73,180,73c0,0,141,0,258,-170L-155,901l-59,-38Z"
id="f6_oz"
transform="scale(0.001,-0.001)"/>

<path d="M342,324c0,0,45,0,75,34c0,0,31,33,31,100V822H165l66,-58V390c0,0,32,-66,111,-66ZM853,-49L762,8V822H509l65,-58V455c0,0,0,-134,-51,-185c0,0,-52,-52,-127,-52c0,0,-98,0,-195,99c0,0,-97,99,-97,209V822H0l-45,76l14,31H1027l46,-76l-14,-31H823l66,-58V-39L853,-49Z"
id="f6_bo"
transform="scale(0.001,-0.001)"/>

<path d="M953,-525L785,-306c0,0,-99,119,-191,119c0,0,-59,0,-96,-34c0,0,-37,-35,-37,-82c0,0,0,-49,43,-83l151,95l65,-116c0,0,-71,-58,-149,-58c0,0,-79,0,-145,63c0,0,-65,64,-65,145c0,0,0,76,61,130c0,0,62,55,143,55c0,0,40,0,77,-14L605,37C605,37,552,18,498,18c0,0,-151,0,-288,115C210,133,73,248,73,388c0,0,0,113,84,184c0,0,84,71,222,73H524V822H0l-45,76l14,31H842l46,-76L874,822H567l84,-73V519l-3,2l3,-3H408c0,0,-93,0,-153,-52c0,0,-59,-52,-59,-128c0,0,0,-121,110,-188c0,0,53,-17,105,-17c0,0,92,0,153,43L535,318l101,49L773,203c0,0,-20,-67,-87,-122l75,-247c0,0,81,-76,249,-319l-57,-40Z"
id="f6_mw"
transform="scale(0.001,-0.001)"/>

<path d="M438,206c0,0,-119,0,-226,109c0,0,-108,108,-108,243V822H0l-45,76l14,31H542l46,-76L574,822H165l66,-58V408c0,0,46,-86,151,-86c0,0,61,0,119,32c0,0,58,33,95,91L669,338c0,0,-44,-66,-108,-99c0,0,-63,-33,-123,-33Z"
id="f6_ll"
transform="scale(0.001,-0.001)"/>

<path d="M228,-49L138,8V822H0l-45,76l14,31H70L-65,1033c0,0,-90,65,-157,65c0,0,-67,0,-151,-53l-72,118c0,0,78,65,163,65c0,0,116,0,246,-120L153,930L46,1201c0,0,-71,166,-187,166c0,0,-52,0,-128,-33l-60,125c0,0,78,46,159,46c0,0,193,0,283,-271L215,929H402l46,-76L434,822H199l65,-58V-39L228,-49Z"
id="f6_d9"
transform="scale(0.001,-0.001)"/>

<path d="M725,307c0,0,-95,0,-218,78c0,0,-123,78,-188,78c0,0,-54,0,-95,-34c0,0,-41,-34,-73,-100L93,362c0,0,38,88,101,146c0,0,63,59,148,59c0,0,90,0,214,-78c0,0,124,-79,188,-79c0,0,63,0,106,34c0,0,42,33,85,104l60,-40c0,0,-32,-66,-101,-134c0,0,-70,-67,-169,-67Z"
id="f7_4r"
transform="scale(0.001,-0.001)"/>

<path d="M435,0V856c0,0,-48,-47,-127,-93c0,0,-79,-46,-142,-69V824c0,0,113,52,197,128c0,0,85,75,120,146h86V0Z"
id="f8_l"
transform="scale(0.001,-0.001)"/>

<path d="M420,92c0,0,92,0,155,89c0,0,64,89,64,358c0,0,0,270,-63,359c0,0,-63,89,-158,89c0,0,-92,0,-147,-79c0,0,-70,-100,-70,-369c0,0,0,-269,63,-358c0,0,63,-89,156,-89Zm0,-110c0,0,-158,0,-248,112C172,94,64,231,64,539c0,0,0,194,39,313c0,0,40,118,119,182c0,0,79,64,198,64c0,0,88,0,155,-35c0,0,66,-36,109,-103c0,0,43,-66,68,-162c0,0,24,-96,24,-259c0,0,0,-192,-39,-311C737,228,697,110,619,46c0,0,-79,-64,-199,-64Z"
id="f8_k"
transform="scale(0.001,-0.001)"/>


</defs>
</svg>