<?xml version="1.0" encoding="UTF-8" standalone="no"?>
<!DOCTYPE svg PUBLIC "-//W3C//DTD SVG 1.1//EN"
"http://www.w3.org/Graphics/SVG/1.1/DTD/svg11.dtd">
<svg viewBox="0 0 641 910" version="1.1" xmlns="http://www.w3.org/2000/svg" xmlns:xlink="http://www.w3.org/1999/xlink">
<defs>
<clipPath id="c0_67"><path d="M0,909.8V0H641.7V909.8Z"/></clipPath>
<clipPath id="c1_67"><path d="M0,908.6V0H641.7V908.6Z"/></clipPath>
<style type="text/css"><![CDATA[
.g0_67{
fill: #FFFFFF;
}
.g1_67{
}
]]></style>
</defs>
<path d="M0,0H641.7V909.8H0V0Z" class="g0_67"/>
<path d="M0,0H641.7V909.8H0V0Z" class="g0_67"/>
<g clip-path="url(#c0_67)">
<path d="M0,-54587.4H641.7V51858.1H0V-54587.4Z" class="g0_67"/>
</g>
<path d="M0,0H641.7V908.6H0V0Z" class="g0_67"/>
<path d="M19.5,60.7H602.7v1.2H19.5V60.7Z" class="g1_67"/>
<g clip-path="url(#c1_67)">
<path d="M0,61.9H641.7V909.8H0V61.9Z" class="g0_67"/>
<g fill="#000000" >
<use xlink:href="#f5_b1" transform="matrix(14,0,0,14,193.9,82.5)" />
<use xlink:href="#f5_by" transform="matrix(14,0,0,14,224.5,82.5)" />
<use xlink:href="#f5_d4" transform="matrix(14,0,0,14,239.4,82.5)" />
<use xlink:href="#f5_n1" transform="matrix(14,0,0,14,239.4,82.5)" />
<use xlink:href="#f5_bg" transform="matrix(14,0,0,14,262.1,82.5)" />
<use xlink:href="#f5_cv" transform="matrix(14,0,0,14,278,82.5)" />
<use xlink:href="#f5_bq" transform="matrix(14,0,0,14,290.2,82.5)" />
<use xlink:href="#f5_ct" transform="matrix(14,0,0,14,304.6,82.5)" />
<use xlink:href="#f5_c1" transform="matrix(14,0,0,14,311.1,82.5)" />
<use xlink:href="#f5_d8" transform="matrix(14,0,0,14,321.2,82.5)" />
<use xlink:href="#f5_by" transform="matrix(14,0,0,14,333.4,82.5)" />
<use xlink:href="#f5_l1" transform="matrix(14,0,0,14,348.4,82.5)" />
<use xlink:href="#f5_bp" transform="matrix(14,0,0,14,361.3,82.5)" />
<use xlink:href="#f5_bx" transform="matrix(14,0,0,14,380.4,82.5)" />
<use xlink:href="#f5_bt" transform="matrix(14,0,0,14,394.1,82.5)" />
<use xlink:href="#f5_cw" transform="matrix(14,0,0,14,407.5,82.5)" />
<use xlink:href="#f5_bz" transform="matrix(14,0,0,14,412.8,82.5)" />
<use xlink:href="#f5_p3" transform="matrix(14,0,0,14,427.4,82.5)" />
<use xlink:href="#f6_b1" transform="matrix(14,0,0,14,202,144.4)" />
<use xlink:href="#f6_by" transform="matrix(14,0,0,14,229.1,144.4)" />
<use xlink:href="#f6_d4" transform="matrix(14,0,0,14,243.2,144.4)" />
<use xlink:href="#f6_n1" transform="matrix(14,0,0,14,243.1,144.4)" />
<use xlink:href="#f6_bg" transform="matrix(14,0,0,14,261.9,144.4)" />
<use xlink:href="#f6_cv" transform="matrix(14,0,0,14,276.1,144.4)" />
<use xlink:href="#f6_bq" transform="matrix(14,0,0,14,287.4,144.4)" />
<use xlink:href="#f6_ct" transform="matrix(14,0,0,14,300.6,144.4)" />
<use xlink:href="#f6_c1" transform="matrix(14,0,0,14,306.2,144.4)" />
<use xlink:href="#f6_d8" transform="matrix(14,0,0,14,314.6,144.4)" />
<use xlink:href="#f6_by" transform="matrix(14,0,0,14,325.9,144.4)" />
<use xlink:href="#f6_l1" transform="matrix(14,0,0,14,339.9,144.4)" />
<use xlink:href="#f6_bp" transform="matrix(14,0,0,14,351.7,144.4)" />
<use xlink:href="#f6_bx" transform="matrix(14,0,0,14,369.7,144.4)" />
<use xlink:href="#f6_bt" transform="matrix(14,0,0,14,382,144.4)" />
<use xlink:href="#f6_cw" transform="matrix(14,0,0,14,394.3,144.3)" />
<use xlink:href="#f6_bz" transform="matrix(14,0,0,14,399.4,144.4)" />
<use xlink:href="#f6_p3" transform="matrix(14,0,0,14,412.9,144.4)" />
<use xlink:href="#f6_k" transform="matrix(14,0,0,14,412.7,144.4)" />
<use xlink:href="#f6_bq" transform="matrix(14,0,0,14,164.2,178.8)" />
<use xlink:href="#f6_ct" transform="matrix(14,0,0,14,177.3,178.8)" />
<use xlink:href="#f6_c1" transform="matrix(14,0,0,14,183,178.8)" />
<use xlink:href="#f6_d8" transform="matrix(14,0,0,14,191.3,178.8)" />
<use xlink:href="#f6_cb" transform="matrix(14,0,0,14,202.6,178.8)" />
<use xlink:href="#f6_d4" transform="matrix(14,0,0,14,217.6,178.8)" />
<use xlink:href="#f6_c7" transform="matrix(14,0,0,14,217.5,178.8)" />
<use xlink:href="#f6_b9" transform="matrix(14,0,0,14,229.6,178.8)" />
<use xlink:href="#f6_bx" transform="matrix(14,0,0,14,250.8,178.8)" />
<use xlink:href="#f6_bt" transform="matrix(14,0,0,14,263,178.8)" />
<use xlink:href="#f6_cw" transform="matrix(14,0,0,14,275.3,178.6)" />
<use xlink:href="#f6_bz" transform="matrix(14,0,0,14,280.4,178.8)" />
<use xlink:href="#f6_p3" transform="matrix(14,0,0,14,293.9,178.8)" />
<use xlink:href="#f6_cc" transform="matrix(14,0,0,14,299.4,178.8)" />
<use xlink:href="#f6_c1" transform="matrix(14,0,0,14,311,178.8)" />
<use xlink:href="#f6_bv" transform="matrix(14,0,0,14,319.4,178.8)" />
<use xlink:href="#f6_c3" transform="matrix(14,0,0,14,331.3,178.8)" />
<use xlink:href="#f6_bp" transform="matrix(14,0,0,14,351.7,178.8)" />
<use xlink:href="#f6_d4" transform="matrix(14,0,0,14,364.1,178.8)" />
<use xlink:href="#f6_c1" transform="matrix(14,0,0,14,364,178.8)" />
<use xlink:href="#f6_d4" transform="matrix(14,0,0,14,371.9,178.8)" />
<use xlink:href="#f6_cb" transform="matrix(14,0,0,14,378,178.8)" />
<use xlink:href="#f6_ct" transform="matrix(14,0,0,14,392.9,178.8)" />
<use xlink:href="#f6_no" transform="matrix(14,0,0,14,398.5,178.8)" />
<use xlink:href="#f6_bq" transform="matrix(14,0,0,14,398.5,178.8)" />
<use xlink:href="#f6_c1" transform="matrix(14,0,0,14,417.4,178.8)" />
<use xlink:href="#f6_n5" transform="matrix(14,0,0,14,425.7,178.8)" />
<use xlink:href="#f6_dj" transform="matrix(14,0,0,14,434.6,179.2)" />
<use xlink:href="#f6_bz" transform="matrix(14,0,0,14,443,178.8)" />
<use xlink:href="#f6_p3" transform="matrix(14,0,0,14,456.5,178.8)" />
<use xlink:href="#f6_cb" transform="matrix(14,0,0,14,145.8,247.5)" />
<use xlink:href="#f6_ct" transform="matrix(14,0,0,14,160.7,247.5)" />
<use xlink:href="#f6_c7" transform="matrix(14,0,0,14,166.3,247.5)" />
<use xlink:href="#f6_bt" transform="matrix(14,0,0,14,178.4,247.5)" />
<use xlink:href="#f6_b9" transform="matrix(14,0,0,14,195.8,247.5)" />
<use xlink:href="#f6_ct" transform="matrix(14,0,0,14,211.3,247.5)" />
<use xlink:href="#f6_bz" transform="matrix(14,0,0,14,222.6,247.5)" />
<use xlink:href="#f6_cc" transform="matrix(14,0,0,14,235.9,247.5)" />
<use xlink:href="#f6_cv" transform="matrix(14,0,0,14,247.5,247.5)" />
<use xlink:href="#f6_bt" transform="matrix(14,0,0,14,253.1,247.5)" />
<use xlink:href="#f6_ct" transform="matrix(14,0,0,14,264.9,247.5)" />
<use xlink:href="#f6_cc" transform="matrix(14,0,0,14,276.1,247.5)" />
<use xlink:href="#f6_d8" transform="matrix(14,0,0,14,287.7,247.5)" />
<use xlink:href="#f6_bb" transform="matrix(14,0,0,14,293.4,247.5)" />
<use xlink:href="#f6_ct" transform="matrix(14,0,0,14,306,247.5)" />
<use xlink:href="#f6_ap" transform="matrix(14,0,0,14,317.3,247.5)" />
<use xlink:href="#f6_cb" transform="matrix(14,0,0,14,328.6,247.5)" />
<use xlink:href="#f6_bz" transform="matrix(14,0,0,14,343.5,247.5)" />
<use xlink:href="#f6_d4" transform="matrix(14,0,0,14,357,247.5)" />
<use xlink:href="#f6_cc" transform="matrix(14,0,0,14,362.5,247.5)" />
<use xlink:href="#f6_d8" transform="matrix(14,0,0,14,374.1,247.5)" />
<use xlink:href="#f6_bb" transform="matrix(14,0,0,14,379.8,247.5)" />
<use xlink:href="#f6_cv" transform="matrix(14,0,0,14,392.4,247.5)" />
<use xlink:href="#f6_c1" transform="matrix(14,0,0,14,403.7,247.5)" />
<use xlink:href="#f6_ct" transform="matrix(14,0,0,14,412,247.5)" />
<use xlink:href="#f6_ba" transform="matrix(14,0,0,14,417.7,247.5)" />
<use xlink:href="#f6_cv" transform="matrix(14,0,0,14,434.4,247.5)" />
<use xlink:href="#f6_pd" transform="matrix(14,0,0,14,445.7,247.5)" />
<use xlink:href="#f6_g" transform="matrix(14,0,0,14,453.2,247.5)" />
<use xlink:href="#f6_n8" transform="matrix(14,0,0,14,459.1,247.5)" />
<use xlink:href="#f6_h" transform="matrix(14,0,0,14,469.5,247.5)" />
<use xlink:href="#f6_bp" transform="matrix(14,0,0,14,204.3,281.9)" />
<use xlink:href="#f6_cx" transform="matrix(14,0,0,14,216.5,281.8)" />
<use xlink:href="#f6_c1" transform="matrix(14,0,0,14,222.2,281.9)" />
<use xlink:href="#f6_ct" transform="matrix(14,0,0,14,230.6,281.9)" />
<use xlink:href="#f6_ba" transform="matrix(14,0,0,14,236.2,281.9)" />
<use xlink:href="#f6_cv" transform="matrix(14,0,0,14,253,281.9)" />
<use xlink:href="#f6_k" transform="matrix(14,0,0,14,258.6,281.9)" />
<use xlink:href="#f6_bp" transform="matrix(14,0,0,14,269.5,281.9)" />
<use xlink:href="#f6_d4" transform="matrix(14,0,0,14,281.9,281.9)" />
<use xlink:href="#f6_c1" transform="matrix(14,0,0,14,281.8,281.9)" />
<use xlink:href="#f6_cv" transform="matrix(14,0,0,14,290.2,281.9)" />
<use xlink:href="#f6_bm" transform="matrix(14,0,0,14,301.4,281.9)" />
<use xlink:href="#f6_d8" transform="matrix(14,0,0,14,314.1,281.9)" />
<use xlink:href="#f6_c1" transform="matrix(14,0,0,14,319.7,281.9)" />
<use xlink:href="#f6_bx" transform="matrix(14,0,0,14,333.8,281.9)" />
<use xlink:href="#f6_bt" transform="matrix(14,0,0,14,346.1,281.9)" />
<use xlink:href="#f6_cw" transform="matrix(14,0,0,14,358.3,281.8)" />
<use xlink:href="#f6_bz" transform="matrix(14,0,0,14,363.5,281.9)" />
<use xlink:href="#f6_p3" transform="matrix(14,0,0,14,376.9,281.9)" />
<use xlink:href="#f6_pd" transform="matrix(14,0,0,14,388.1,281.9)" />
<use xlink:href="#f6_g" transform="matrix(14,0,0,14,395.7,281.9)" />
<use xlink:href="#f6_n8" transform="matrix(14,0,0,14,401.6,281.9)" />
<use xlink:href="#f6_h" transform="matrix(14,0,0,14,412,281.9)" />
<use xlink:href="#f6_cc" transform="matrix(14,0,0,14,231.8,316.3)" />
<use xlink:href="#f6_c1" transform="matrix(14,0,0,14,243.4,316.3)" />
<use xlink:href="#f6_bv" transform="matrix(14,0,0,14,251.7,316.3)" />
<use xlink:href="#f6_c3" transform="matrix(14,0,0,14,263.6,316.3)" />
<use xlink:href="#f6_bp" transform="matrix(14,0,0,14,284,316.3)" />
<use xlink:href="#f6_d4" transform="matrix(14,0,0,14,296.4,316.3)" />
<use xlink:href="#f6_c1" transform="matrix(14,0,0,14,296.3,316.3)" />
<use xlink:href="#f6_d4" transform="matrix(14,0,0,14,304.3,316.3)" />
<use xlink:href="#f6_cb" transform="matrix(14,0,0,14,310.3,316.3)" />
<use xlink:href="#f6_ct" transform="matrix(14,0,0,14,325.2,316.3)" />
<use xlink:href="#f6_no" transform="matrix(14,0,0,14,330.8,316.3)" />
<use xlink:href="#f6_bq" transform="matrix(14,0,0,14,330.8,316.3)" />
<use xlink:href="#f6_c1" transform="matrix(14,0,0,14,349.7,316.3)" />
<use xlink:href="#f6_n5" transform="matrix(14,0,0,14,358.1,316.3)" />
<use xlink:href="#f6_dj" transform="matrix(14,0,0,14,367,316.7)" />
<use xlink:href="#f6_bz" transform="matrix(14,0,0,14,375.4,316.3)" />
<use xlink:href="#f6_p3" transform="matrix(14,0,0,14,388.8,316.3)" />
<use xlink:href="#f6_by" transform="matrix(14,0,0,14,158.4,385)" />
<use xlink:href="#f6_ct" transform="matrix(14,0,0,14,172.4,385)" />
<use xlink:href="#f6_br" transform="matrix(14,0,0,14,178,385)" />
<use xlink:href="#f6_c7" transform="matrix(14,0,0,14,189.7,385)" />
<use xlink:href="#f6_b9" transform="matrix(14,0,0,14,207.4,385)" />
<use xlink:href="#f6_ct" transform="matrix(14,0,0,14,222.9,385)" />
<use xlink:href="#f6_bz" transform="matrix(14,0,0,14,234.2,385)" />
<use xlink:href="#f6_cc" transform="matrix(14,0,0,14,247.5,385)" />
<use xlink:href="#f6_cv" transform="matrix(14,0,0,14,259.2,385)" />
<use xlink:href="#f6_bt" transform="matrix(14,0,0,14,264.8,385)" />
<use xlink:href="#f6_ct" transform="matrix(14,0,0,14,276.5,385)" />
<use xlink:href="#f6_cc" transform="matrix(14,0,0,14,287.8,385)" />
<use xlink:href="#f6_d8" transform="matrix(14,0,0,14,299.4,385)" />
<use xlink:href="#f6_bb" transform="matrix(14,0,0,14,305,385)" />
<use xlink:href="#f6_ct" transform="matrix(14,0,0,14,317.6,385)" />
<use xlink:href="#f6_ap" transform="matrix(14,0,0,14,328.9,385)" />
<use xlink:href="#f6_cb" transform="matrix(14,0,0,14,340.3,385)" />
<use xlink:href="#f6_bz" transform="matrix(14,0,0,14,355.2,385)" />
<use xlink:href="#f6_d4" transform="matrix(14,0,0,14,368.6,385)" />
<use xlink:href="#f6_cc" transform="matrix(14,0,0,14,374.2,385)" />
<use xlink:href="#f6_d8" transform="matrix(14,0,0,14,385.8,385)" />
<use xlink:href="#f6_bb" transform="matrix(14,0,0,14,391.4,385)" />
<use xlink:href="#f6_cv" transform="matrix(14,0,0,14,404,385)" />
<use xlink:href="#f6_bx" transform="matrix(14,0,0,14,415.3,385)" />
<use xlink:href="#f6_ct" transform="matrix(14,0,0,14,427.6,385)" />
<use xlink:href="#f6_nr" transform="matrix(14,0,0,14,433.2,385)" />
<use xlink:href="#f6_c1" transform="matrix(14,0,0,14,438.8,385)" />
<use xlink:href="#f6_c8" transform="matrix(14,0,0,14,447.2,385)" />
<use xlink:href="#f6_bp" transform="matrix(14,0,0,14,203.1,419.4)" />
<use xlink:href="#f6_cx" transform="matrix(14,0,0,14,215.4,419.3)" />
<use xlink:href="#f6_bx" transform="matrix(14,0,0,14,221.1,419.4)" />
<use xlink:href="#f6_ct" transform="matrix(14,0,0,14,233.4,419.4)" />
<use xlink:href="#f6_br" transform="matrix(14,0,0,14,239,419.4)" />
<use xlink:href="#f6_c3" transform="matrix(14,0,0,14,250.7,419.4)" />
<use xlink:href="#f6_bp" transform="matrix(14,0,0,14,271.1,419.4)" />
<use xlink:href="#f6_d4" transform="matrix(14,0,0,14,283.5,419.4)" />
<use xlink:href="#f6_c1" transform="matrix(14,0,0,14,283.4,419.4)" />
<use xlink:href="#f6_cv" transform="matrix(14,0,0,14,291.7,419.4)" />
<use xlink:href="#f6_bx" transform="matrix(14,0,0,14,303,419.4)" />
<use xlink:href="#f6_cx" transform="matrix(14,0,0,14,315.3,419.3)" />
<use xlink:href="#f6_lj" transform="matrix(14,0,0,14,315.3,419.4)" />
<use xlink:href="#f6_br" transform="matrix(14,0,0,14,321.1,419.4)" />
<use xlink:href="#f6_bx" transform="matrix(14,0,0,14,338.5,419.4)" />
<use xlink:href="#f6_bt" transform="matrix(14,0,0,14,350.7,419.4)" />
<use xlink:href="#f6_cw" transform="matrix(14,0,0,14,363,419.3)" />
<use xlink:href="#f6_bz" transform="matrix(14,0,0,14,368.1,419.4)" />
<use xlink:href="#f6_p3" transform="matrix(14,0,0,14,381.6,419.4)" />
<use xlink:href="#f6_pd" transform="matrix(14,0,0,14,387.1,419.4)" />
<use xlink:href="#f6_g" transform="matrix(14,0,0,14,394.7,419.4)" />
<use xlink:href="#f6_n8" transform="matrix(14,0,0,14,400.6,419.4)" />
<use xlink:href="#f6_h" transform="matrix(14,0,0,14,411,419.4)" />
<use xlink:href="#f6_cc" transform="matrix(14,0,0,14,222.6,453.8)" />
<use xlink:href="#f6_c1" transform="matrix(14,0,0,14,234.2,453.8)" />
<use xlink:href="#f6_bv" transform="matrix(14,0,0,14,242.6,453.8)" />
<use xlink:href="#f6_c3" transform="matrix(14,0,0,14,254.4,453.8)" />
<use xlink:href="#f6_bp" transform="matrix(14,0,0,14,274.8,453.8)" />
<use xlink:href="#f6_d4" transform="matrix(14,0,0,14,287.3,453.8)" />
<use xlink:href="#f6_c1" transform="matrix(14,0,0,14,287.1,453.8)" />
<use xlink:href="#f6_d4" transform="matrix(14,0,0,14,295.1,453.8)" />
<use xlink:href="#f6_cb" transform="matrix(14,0,0,14,301.2,453.8)" />
<use xlink:href="#f6_ct" transform="matrix(14,0,0,14,316.1,453.8)" />
<use xlink:href="#f6_no" transform="matrix(14,0,0,14,321.7,453.8)" />
<use xlink:href="#f6_bq" transform="matrix(14,0,0,14,321.7,453.8)" />
<use xlink:href="#f6_c1" transform="matrix(14,0,0,14,340.5,453.8)" />
<use xlink:href="#f6_n5" transform="matrix(14,0,0,14,348.9,453.8)" />
<use xlink:href="#f6_dj" transform="matrix(14,0,0,14,357.8,454.2)" />
<use xlink:href="#f6_bz" transform="matrix(14,0,0,14,366.2,453.8)" />
<use xlink:href="#f6_p3" transform="matrix(14,0,0,14,379.7,453.8)" />
<use xlink:href="#f6_8l" transform="matrix(14,0,0,14,379.5,453.8)" />
<use xlink:href="#f6_b9" transform="matrix(14,0,0,14,149.3,488.1)" />
<use xlink:href="#f6_ct" transform="matrix(14,0,0,14,164.8,488.1)" />
<use xlink:href="#f6_cu" transform="matrix(14,0,0,14,170.4,488.1)" />
<use xlink:href="#f6_on" transform="matrix(14,0,0,14,184.4,488.1)" />
<use xlink:href="#f6_bp" transform="matrix(14,0,0,14,176,488.1)" />
<use xlink:href="#f6_b9" transform="matrix(14,0,0,14,188.3,488.1)" />
<use xlink:href="#f6_b9" transform="matrix(14,0,0,14,209.5,488.1)" />
<use xlink:href="#f6_ct" transform="matrix(14,0,0,14,225,488.1)" />
<use xlink:href="#f6_bz" transform="matrix(14,0,0,14,236.3,488.1)" />
<use xlink:href="#f6_cc" transform="matrix(14,0,0,14,249.6,488.1)" />
<use xlink:href="#f6_cv" transform="matrix(14,0,0,14,261.2,488.1)" />
<use xlink:href="#f6_bt" transform="matrix(14,0,0,14,266.8,488.1)" />
<use xlink:href="#f6_ct" transform="matrix(14,0,0,14,278.6,488.1)" />
<use xlink:href="#f6_cc" transform="matrix(14,0,0,14,289.8,488.1)" />
<use xlink:href="#f6_d8" transform="matrix(14,0,0,14,301.4,488.1)" />
<use xlink:href="#f6_bb" transform="matrix(14,0,0,14,307.1,488.1)" />
<use xlink:href="#f6_ct" transform="matrix(14,0,0,14,319.7,488.1)" />
<use xlink:href="#f6_ap" transform="matrix(14,0,0,14,331,488.1)" />
<use xlink:href="#f6_cb" transform="matrix(14,0,0,14,342.3,488.1)" />
<use xlink:href="#f6_bz" transform="matrix(14,0,0,14,357.2,488.1)" />
<use xlink:href="#f6_d4" transform="matrix(14,0,0,14,370.7,488.1)" />
<use xlink:href="#f6_cc" transform="matrix(14,0,0,14,376.2,488.1)" />
<use xlink:href="#f6_d8" transform="matrix(14,0,0,14,387.8,488.1)" />
<use xlink:href="#f6_bb" transform="matrix(14,0,0,14,393.5,488.1)" />
<use xlink:href="#f6_cv" transform="matrix(14,0,0,14,406.1,488.1)" />
<use xlink:href="#f6_cu" transform="matrix(14,0,0,14,417.4,488.1)" />
<use xlink:href="#f6_br" transform="matrix(14,0,0,14,423,488.1)" />
<use xlink:href="#f6_c7" transform="matrix(14,0,0,14,434.6,488.1)" />
<use xlink:href="#f6_ct" transform="matrix(14,0,0,14,446.7,488.1)" />
<use xlink:href="#f6_c3" transform="matrix(14,0,0,14,452.3,488.1)" />
<use xlink:href="#f6_cv" transform="matrix(14,0,0,14,467.1,488.1)" />
<use xlink:href="#f6_bp" transform="matrix(14,0,0,14,198.5,522.5)" />
<use xlink:href="#f6_cx" transform="matrix(14,0,0,14,210.8,522.4)" />
<use xlink:href="#f6_br" transform="matrix(14,0,0,14,216.5,522.5)" />
<use xlink:href="#f6_ob" transform="matrix(14,0,0,14,228.2,522.5)" />
<use xlink:href="#f6_bv" transform="matrix(14,0,0,14,233.8,522.5)" />
<use xlink:href="#f6_b9" transform="matrix(14,0,0,14,245.7,522.5)" />
<use xlink:href="#f6_bp" transform="matrix(14,0,0,14,266.8,522.5)" />
<use xlink:href="#f6_d4" transform="matrix(14,0,0,14,279.3,522.5)" />
<use xlink:href="#f6_c1" transform="matrix(14,0,0,14,279.1,522.5)" />
<use xlink:href="#f6_cv" transform="matrix(14,0,0,14,287.5,522.5)" />
<use xlink:href="#f6_iz" transform="matrix(14,0,0,14,298.8,522.5)" />
<use xlink:href="#f6_d8" transform="matrix(14,0,0,14,321,522.5)" />
<use xlink:href="#f6_bp" transform="matrix(14,0,0,14,326.7,522.5)" />
<use xlink:href="#f6_bx" transform="matrix(14,0,0,14,344.6,522.5)" />
<use xlink:href="#f6_bt" transform="matrix(14,0,0,14,356.9,522.5)" />
<use xlink:href="#f6_cw" transform="matrix(14,0,0,14,369.2,522.4)" />
<use xlink:href="#f6_bz" transform="matrix(14,0,0,14,374.3,522.5)" />
<use xlink:href="#f6_p3" transform="matrix(14,0,0,14,387.8,522.5)" />
<use xlink:href="#f6_pd" transform="matrix(14,0,0,14,393.3,522.5)" />
<use xlink:href="#f6_g" transform="matrix(14,0,0,14,400.9,522.5)" />
<use xlink:href="#f6_n8" transform="matrix(14,0,0,14,406.7,522.5)" />
<use xlink:href="#f6_h" transform="matrix(14,0,0,14,417.2,522.5)" />
<use xlink:href="#f6_cc" transform="matrix(14,0,0,14,222.6,556.9)" />
<use xlink:href="#f6_c1" transform="matrix(14,0,0,14,234.2,556.9)" />
<use xlink:href="#f6_bv" transform="matrix(14,0,0,14,242.6,556.9)" />
<use xlink:href="#f6_c3" transform="matrix(14,0,0,14,254.4,556.9)" />
<use xlink:href="#f6_bp" transform="matrix(14,0,0,14,274.8,556.9)" />
<use xlink:href="#f6_d4" transform="matrix(14,0,0,14,287.3,556.9)" />
<use xlink:href="#f6_c1" transform="matrix(14,0,0,14,287.1,556.9)" />
<use xlink:href="#f6_d4" transform="matrix(14,0,0,14,295.1,556.9)" />
<use xlink:href="#f6_cb" transform="matrix(14,0,0,14,301.2,556.9)" />
<use xlink:href="#f6_ct" transform="matrix(14,0,0,14,316.1,556.9)" />
<use xlink:href="#f6_no" transform="matrix(14,0,0,14,321.7,556.9)" />
<use xlink:href="#f6_bq" transform="matrix(14,0,0,14,321.7,556.9)" />
<use xlink:href="#f6_c1" transform="matrix(14,0,0,14,340.5,556.9)" />
<use xlink:href="#f6_n5" transform="matrix(14,0,0,14,348.9,556.9)" />
<use xlink:href="#f6_dj" transform="matrix(14,0,0,14,357.8,557.3)" />
<use xlink:href="#f6_bz" transform="matrix(14,0,0,14,366.2,556.9)" />
<use xlink:href="#f6_p3" transform="matrix(14,0,0,14,379.7,556.9)" />
<use xlink:href="#f6_8l" transform="matrix(14,0,0,14,379.5,556.9)" />
<use xlink:href="#f6_bw" transform="matrix(14,0,0,14,161.9,591.3)" />
<use xlink:href="#f6_ct" transform="matrix(14,0,0,14,178,591.3)" />
<use xlink:href="#f6_bb" transform="matrix(14,0,0,14,183.6,591.3)" />
<use xlink:href="#f6_cw" transform="matrix(14,0,0,14,196.7,591.1)" />
<use xlink:href="#f6_bt" transform="matrix(14,0,0,14,196.2,591.3)" />
<use xlink:href="#f6_b9" transform="matrix(14,0,0,14,213.6,591.3)" />
<use xlink:href="#f6_ct" transform="matrix(14,0,0,14,229.1,591.3)" />
<use xlink:href="#f6_bz" transform="matrix(14,0,0,14,240.4,591.3)" />
<use xlink:href="#f6_cc" transform="matrix(14,0,0,14,253.7,591.3)" />
<use xlink:href="#f6_cv" transform="matrix(14,0,0,14,265.3,591.3)" />
<use xlink:href="#f6_bt" transform="matrix(14,0,0,14,270.9,591.3)" />
<use xlink:href="#f6_ct" transform="matrix(14,0,0,14,282.6,591.3)" />
<use xlink:href="#f6_cc" transform="matrix(14,0,0,14,293.9,591.3)" />
<use xlink:href="#f6_d8" transform="matrix(14,0,0,14,305.5,591.3)" />
<use xlink:href="#f6_bb" transform="matrix(14,0,0,14,311.2,591.3)" />
<use xlink:href="#f6_ct" transform="matrix(14,0,0,14,323.8,591.3)" />
<use xlink:href="#f6_ap" transform="matrix(14,0,0,14,335.1,591.3)" />
<use xlink:href="#f6_cb" transform="matrix(14,0,0,14,346.4,591.3)" />
<use xlink:href="#f6_bz" transform="matrix(14,0,0,14,361.3,591.3)" />
<use xlink:href="#f6_d4" transform="matrix(14,0,0,14,374.8,591.3)" />
<use xlink:href="#f6_cc" transform="matrix(14,0,0,14,380.3,591.3)" />
<use xlink:href="#f6_d8" transform="matrix(14,0,0,14,391.9,591.3)" />
<use xlink:href="#f6_bb" transform="matrix(14,0,0,14,397.5,591.3)" />
<use xlink:href="#f6_cv" transform="matrix(14,0,0,14,410.2,591.3)" />
<use xlink:href="#f6_cc" transform="matrix(14,0,0,14,421.4,591.3)" />
<use xlink:href="#f6_d8" transform="matrix(14,0,0,14,433.1,591.3)" />
<use xlink:href="#f6_c3" transform="matrix(14,0,0,14,438.7,591.3)" />
<use xlink:href="#f6_cv" transform="matrix(14,0,0,14,453.4,591.3)" />
<use xlink:href="#f6_bp" transform="matrix(14,0,0,14,212.3,625.6)" />
<use xlink:href="#f6_cx" transform="matrix(14,0,0,14,224.6,625.5)" />
<use xlink:href="#f6_cu" transform="matrix(14,0,0,14,230.3,625.6)" />
<use xlink:href="#f6_bv" transform="matrix(14,0,0,14,235.9,625.6)" />
<use xlink:href="#f6_be" transform="matrix(14,0,0,14,247.7,625.6)" />
<use xlink:href="#f6_b9" transform="matrix(14,0,0,14,261.7,625.6)" />
<use xlink:href="#f6_ct" transform="matrix(14,0,0,14,277.2,625.6)" />
<use xlink:href="#f6_c1" transform="matrix(14,0,0,14,282.8,625.6)" />
<use xlink:href="#f6_cv" transform="matrix(14,0,0,14,291.2,625.6)" />
<use xlink:href="#f6_bp" transform="matrix(14,0,0,14,302.5,625.6)" />
<use xlink:href="#f6_d4" transform="matrix(14,0,0,14,315,625.6)" />
<use xlink:href="#f6_c1" transform="matrix(14,0,0,14,314.8,625.6)" />
<use xlink:href="#f6_ct" transform="matrix(14,0,0,14,323.2,625.6)" />
<use xlink:href="#f6_c1" transform="matrix(14,0,0,14,334.5,625.6)" />
<use xlink:href="#f6_dj" transform="matrix(14,0,0,14,339.3,626.1)" />
<use xlink:href="#f6_bb" transform="matrix(14,0,0,14,342.9,625.6)" />
<use xlink:href="#f6_bx" transform="matrix(14,0,0,14,361.2,625.6)" />
<use xlink:href="#f6_bt" transform="matrix(14,0,0,14,373.4,625.6)" />
<use xlink:href="#f6_d8" transform="matrix(14,0,0,14,385.2,625.6)" />
<use xlink:href="#f6_bz" transform="matrix(14,0,0,14,396.4,625.6)" />
<use xlink:href="#f6_p3" transform="matrix(14,0,0,14,409.9,625.6)" />
<use xlink:href="#f6_cc" transform="matrix(14,0,0,14,231.8,660)" />
<use xlink:href="#f6_c1" transform="matrix(14,0,0,14,243.4,660)" />
<use xlink:href="#f6_bv" transform="matrix(14,0,0,14,251.7,660)" />
<use xlink:href="#f6_c3" transform="matrix(14,0,0,14,263.6,660)" />
<use xlink:href="#f6_bp" transform="matrix(14,0,0,14,284,660)" />
<use xlink:href="#f6_d4" transform="matrix(14,0,0,14,296.4,660)" />
<use xlink:href="#f6_c1" transform="matrix(14,0,0,14,296.3,660)" />
<use xlink:href="#f6_d4" transform="matrix(14,0,0,14,304.3,660)" />
<use xlink:href="#f6_cb" transform="matrix(14,0,0,14,310.3,660)" />
<use xlink:href="#f6_ct" transform="matrix(14,0,0,14,325.2,660)" />
<use xlink:href="#f6_no" transform="matrix(14,0,0,14,330.8,660)" />
<use xlink:href="#f6_bq" transform="matrix(14,0,0,14,330.8,660)" />
<use xlink:href="#f6_c1" transform="matrix(14,0,0,14,349.7,660)" />
<use xlink:href="#f6_n5" transform="matrix(14,0,0,14,358.1,660)" />
<use xlink:href="#f6_dj" transform="matrix(14,0,0,14,367,660.4)" />
<use xlink:href="#f6_bz" transform="matrix(14,0,0,14,375.4,660)" />
<use xlink:href="#f6_p3" transform="matrix(14,0,0,14,388.8,660)" />
<use xlink:href="#f6_b1" transform="matrix(14,0,0,14,211.9,694.4)" />
<use xlink:href="#f6_by" transform="matrix(14,0,0,14,239,694.4)" />
<use xlink:href="#f6_d4" transform="matrix(14,0,0,14,253.1,694.4)" />
<use xlink:href="#f6_n1" transform="matrix(14,0,0,14,253,694.4)" />
<use xlink:href="#f6_bg" transform="matrix(14,0,0,14,271.8,694.4)" />
<use xlink:href="#f6_cv" transform="matrix(14,0,0,14,286.1,694.4)" />
<use xlink:href="#f6_bq" transform="matrix(14,0,0,14,297.4,694.4)" />
<use xlink:href="#f6_ct" transform="matrix(14,0,0,14,310.6,694.4)" />
<use xlink:href="#f6_c1" transform="matrix(14,0,0,14,316.2,694.4)" />
<use xlink:href="#f6_d8" transform="matrix(14,0,0,14,324.6,694.4)" />
<use xlink:href="#f6_by" transform="matrix(14,0,0,14,335.8,694.4)" />
<use xlink:href="#f6_l1" transform="matrix(14,0,0,14,349.8,694.4)" />
<use xlink:href="#f6_bp" transform="matrix(14,0,0,14,361.7,694.4)" />
<use xlink:href="#f6_bx" transform="matrix(14,0,0,14,379.6,694.4)" />
<use xlink:href="#f6_bt" transform="matrix(14,0,0,14,391.9,694.4)" />
<use xlink:href="#f6_cw" transform="matrix(14,0,0,14,404.2,694.3)" />
<use xlink:href="#f6_bz" transform="matrix(14,0,0,14,409.3,694.4)" />
<use xlink:href="#f6_p3" transform="matrix(14,0,0,14,422.8,694.4)" />
<use xlink:href="#f6_8l" transform="matrix(14,0,0,14,422.7,694.4)" />
<use xlink:href="#f7_4r" transform="matrix(9,0,0,9,290.2,795.2)" />
<use xlink:href="#f8_q" transform="matrix(9,0,0,9,303,795.2)" />
<use xlink:href="#f8_l" transform="matrix(9,0,0,9,310.7,795.2)" />
<use xlink:href="#f7_4r" transform="matrix(9,0,0,9,321.3,795.2)" />
</g>
</g>
<image preserveAspectRatio="none" x="22" y="801" width="581" height="86" xlink:href="img/1.png"/>
<path d="M194.8,83.6H427.4v1.2H194.8V83.6Z" class="g1_67"/>
<image preserveAspectRatio="none" x="202" y="14" width="217" height="26" xlink:href="img/2.png"/>
<defs>
<path d="M1128,-65L953,29V322c0,0,-23,-9,-52,-9c0,0,-47,0,-102,25c0,0,11,-42,11,-83c0,0,0,-116,-78,-192c0,0,-78,-76,-203,-76c0,0,-129,0,-261,94c0,0,-132,95,-244,339l123,78c0,0,70,-150,146,-225c0,0,75,-76,168,-76c0,0,72,0,113,40c0,0,42,40,42,90c0,0,0,84,-77,115L387,350L249,556c0,0,86,77,199,83c0,0,119,73,119,163c0,0,0,25,-15,40c0,0,-4,0,-10,0c-19,0,-67,-3,-124,-33c0,0,-76,-39,-146,-106L142,872c0,0,61,65,140,107c0,0,79,42,158,42c0,0,121,0,216,-91c0,0,96,-91,96,-197c0,0,0,-96,-84,-186c0,0,62,-46,142,-46c0,0,88,0,143,52V822H834L749,937l32,64h617l-67,110c0,0,-69,122,-170,122c0,0,-81,0,-202,-80L831,1403c0,0,122,77,232,77c0,0,196,0,358,-250l143,-229h211l86,-115l-32,-64H1557l102,-73V-31l-70,-34L1415,29V822H1095l103,-73V-31l-70,-34Z"
id="f5_b1"
transform="scale(0.001,-0.001)"/>

<path d="M874,-65L700,29V309H513V173L422,122c0,0,-90,31,-191,129c0,0,-100,97,-127,184l52,81H277l-2,240c0,0,0,77,-26,109c0,0,-1,0,-2,0c-8,0,-44,-1,-70,-22c0,0,-29,-24,-29,-61c0,0,0,-53,64,-101L125,610c0,0,-174,117,-174,238c0,0,0,78,57,133c0,0,59,55,146,55c0,0,132,0,244,-112c0,0,112,-113,112,-246V516H700V822H655L570,937l32,64h458l86,-115l-32,-64H842L944,749V-31L874,-65Z"
id="f5_by"
transform="scale(0.001,-0.001)"/>

<path d="M-289,908l-132,216c0,0,-70,120,-169,120c0,0,-83,0,-200,-80l-130,249c0,0,125,78,234,78c0,0,187,0,349,-241L-159,969L-289,908Z"
id="f5_d4"
transform="scale(0.001,-0.001)"/>

<path d="M545,-97L35,405L87,542H295c0,0,1,5,1,280H0L-86,937l32,64H1218l87,-115l-32,-64H445L550,749V600c0,0,37,57,100,92c0,0,63,35,138,35c0,0,135,0,243,-111c0,0,109,-112,229,-318L1143,215c0,0,-125,201,-185,258c0,0,-60,57,-124,57c0,0,-59,0,-99,-36c0,0,-40,-36,-40,-81c0,0,0,-33,23,-60L888,466L1004,295c0,0,-95,-89,-190,-89c0,0,-97,0,-185,69c0,0,-88,69,-108,163c0,0,-34,-58,-141,-129L709,110V41L545,-97Z"
id="f5_n1"
transform="scale(0.001,-0.001)"/>

<path d="M952,-65L778,29V474H600c0,0,94,-91,94,-202c0,0,0,-98,-66,-163c0,0,-66,-65,-171,-65c0,0,-165,0,-280,155C177,199,63,354,-7,616l152,50c0,0,67,-223,120,-299c0,0,53,-77,122,-77c0,0,47,0,73,29c0,0,26,28,26,71c0,0,0,79,-73,128L298,559V681H778V822H0L-86,937l32,64H1137l85,-115l-32,-64H920l102,-73V-31L952,-65Z"
id="f5_bg"
transform="scale(0.001,-0.001)"/>

<path d="M277,-65L102,29V822H0L-86,937l32,64H110c0,0,-50,142,-110,226c0,0,-60,84,-149,84c0,0,-59,0,-97,-37c0,0,-39,-36,-39,-91c0,0,0,-57,42,-115l-95,-50c0,0,-145,116,-145,267c0,0,0,108,75,179c0,0,76,70,195,70c0,0,179,0,297,-150c0,0,119,-150,189,-383H463L548,886L516,822H244L347,749V-31L277,-65Z"
id="f5_cv"
transform="scale(0.001,-0.001)"/>

<path d="M842,-65L668,29V141c0,0,-66,-33,-142,-33c0,0,-146,0,-279,109c0,0,-134,108,-209,287l29,78c0,0,324,35,324,203c0,0,0,46,-27,80c0,0,-13,6,-29,6c0,0,-32,0,-57,-23c0,0,-24,-23,-24,-60c0,0,0,-49,45,-91L211,636C211,636,49,746,49,857c0,0,0,73,59,126c0,0,60,53,146,53c0,0,128,0,236,-109c0,0,107,-110,107,-239c0,0,0,-98,-74,-182c0,0,-75,-83,-222,-119c0,0,20,-51,52,-95c0,0,1,0,4,0c20,0,102,2,181,39c0,0,90,42,130,121V822H636L550,937l32,64h445l85,-115l-32,-64H810L912,749V-31L842,-65Z"
id="f5_bq"
transform="scale(0.001,-0.001)"/>

<path d="M277,-65L102,29V822H0L-86,937l32,64H463L548,886L516,822H244L347,749V-31L277,-65Z"
id="f5_ct"
transform="scale(0.001,-0.001)"/>

<path d="M545,-97L35,405L87,542H295c0,0,1,5,1,280H0L-86,937l32,64H729L814,886L782,822H445L550,749V547c0,0,0,-75,-41,-127c0,0,-41,-52,-129,-111L709,110V41L545,-97Z"
id="f5_c1"
transform="scale(0.001,-0.001)"/>

<path d="M277,-65L102,29V822H0L-86,937l32,64H86L18,1111c0,0,-67,122,-168,122c0,0,-81,0,-202,-80l-128,250c0,0,122,77,232,77c0,0,196,0,356,-250L252,1001H463L548,886L516,822H244L347,749V-31L277,-65Z"
id="f5_d8"
transform="scale(0.001,-0.001)"/>

<path d="M300,310c13,0,56,2,103,25c0,0,58,27,100,81V523c0,0,-46,16,-83,16c0,0,-69,0,-110,-42c0,0,-41,-42,-41,-101c0,0,0,-46,26,-86c0,0,2,0,5,0ZM677,-65L503,29V144c0,0,-32,-11,-74,-11c0,0,-143,0,-272,102C157,235,29,336,29,469c0,0,0,105,76,180c0,0,75,75,190,75c0,0,41,0,73,-7L503,646V822H0L-86,937l32,64H966l87,-115l-32,-64H645L747,749V611c0,0,73,57,154,57c0,0,144,0,236,-159L1022,393l-18,18c0,0,-25,31,-60,31c0,0,-73,0,-197,-144V-31L677,-65Z"
id="f5_l1"
transform="scale(0.001,-0.001)"/>

<path d="M342,-69c0,0,-146,139,-224,256c0,0,-78,117,-78,226c0,0,0,120,90,193c0,0,90,72,243,72H599V822H0L-86,937l32,64H959l86,-115l-32,-64H741L843,749V-31L773,-65L599,29V445H448c0,0,-81,0,-123,-34c0,0,-42,-34,-42,-90c0,0,0,-54,43,-118c0,0,44,-64,143,-163L342,-69Z"
id="f5_bp"
transform="scale(0.001,-0.001)"/>

<path d="M393,278c0,0,45,0,93,17L336,515c0,0,-56,-51,-56,-124c0,0,0,-53,32,-98c0,0,38,-15,81,-15Zm178,61c0,0,34,29,52,57V510c0,0,-85,46,-162,46l-32,-1L571,339ZM798,-65L623,29v95c0,0,-55,-25,-123,-25c0,0,-100,0,-209,51c0,0,-109,50,-183,137c0,0,-73,87,-73,191c0,0,0,115,85,194c0,0,85,80,212,80c0,0,41,0,84,-9L623,643V822H0L-86,937l32,64H982l86,-115l-32,-64H765L868,749V-31L798,-65Z"
id="f5_bx"
transform="scale(0.001,-0.001)"/>

<path d="M746,-65L571,29V419H376V260L275,212c0,0,-87,48,-160,148c0,0,-72,100,-91,193l57,84H571V822H0L-86,937l32,64H930l88,-115L985,822H713L816,749V-31L746,-65Z"
id="f5_bt"
transform="scale(0.001,-0.001)"/>

<path d="M-272,-497c0,0,-249,0,-541,361l105,97c0,0,154,-169,229,-220c0,0,75,-50,145,-50c0,0,68,0,110,38c0,0,43,38,43,90c0,0,0,49,-41,86L-367,-234L-517,-89c0,0,38,66,99,102c0,0,62,37,129,37c0,0,113,0,200,-92c0,0,87,-93,87,-209c0,0,0,-105,-77,-176c0,0,-77,-70,-193,-70Z"
id="f5_cw"
transform="scale(0.001,-0.001)"/>

<path d="M686,512V822H333L435,749l2,-237ZM860,-65L686,29V298H440V168L348,118c0,0,-90,30,-190,128c0,0,-100,98,-127,183l52,83H203L189,822H0L-86,937l32,64H1045l86,-115l-33,-64H828L930,749V-31L860,-65Z"
id="f5_bz"
transform="scale(0.001,-0.001)"/>

<path d="M-39,1071c0,0,-38,14,-84,50c0,0,-47,36,-73,71c0,0,55,110,127,152c0,0,80,-32,150,-119c0,0,-15,-41,-50,-85c0,0,-35,-45,-70,-69ZM-272,872l-211,214c0,0,-64,61,-138,61c0,0,-70,0,-195,-74l-115,204c0,0,121,86,223,86c0,0,133,0,266,-155l156,-190l-84,209c0,0,-49,119,-100,170c0,0,-50,51,-129,51c0,0,-66,0,-165,-36l-92,243c0,0,105,41,189,41c0,0,240,0,375,-344L-143,923L-272,872Z"
id="f5_p3"
transform="scale(0.001,-0.001)"/>

<path d="M959,-49L869,8V367c0,0,-32,-13,-64,-13c0,0,-50,0,-110,25c0,0,23,-52,23,-109c0,0,0,-103,-70,-170c0,0,-70,-66,-182,-66c0,0,-110,0,-222,82c0,0,-111,83,-213,293l68,42c0,0,72,-155,152,-231c0,0,81,-76,178,-76c0,0,83,0,131,49c0,0,48,48,48,117c0,0,0,54,-30,100c0,0,-31,47,-91,65L325,391L257,512c0,0,68,53,156,56c0,0,140,72,140,179c0,0,0,69,-52,99c0,0,-4,1,-11,1c-19,0,-66,-4,-123,-30c0,0,-78,-35,-142,-96L150,823c0,0,119,117,253,117c0,0,98,0,175,-71c0,0,77,-70,77,-159c0,0,0,-103,-94,-180c0,0,39,-23,73,-56c0,0,52,-22,109,-22c0,0,77,0,126,38V822H727l-46,76l14,31h558l-153,215c0,0,-70,92,-157,92c0,0,-69,0,-159,-58l-72,118c0,0,89,73,180,73c0,0,141,0,258,-170L1338,929h197l46,-76l-13,-31H1332l66,-58V-39l-37,-10L1271,8V822H930l66,-58V-39L959,-49Z"
id="f6_b1"
transform="scale(0.001,-0.001)"/>

<path d="M823,-49L733,8V339H445V191L371,160c0,0,-56,36,-120,105c0,0,-63,70,-89,131l41,59H313V735c0,0,0,99,-55,140c0,0,-3,1,-8,1c-16,0,-48,-3,-71,-23c0,0,-31,-26,-31,-66c0,0,0,-69,81,-113L189,620C189,620,31,720,31,828c0,0,0,61,45,99c0,0,46,37,109,37c0,0,96,0,173,-86c0,0,76,-87,79,-194V455H733V822H556l-46,76l14,31H998l45,-76l-13,-31H794l66,-58V-39L823,-49Z"
id="f6_by"
transform="scale(0.001,-0.001)"/>

<path d="M-214,863l-199,281c0,0,-70,92,-157,92c0,0,-69,0,-159,-58l-72,118c0,0,89,73,180,73c0,0,141,0,258,-170L-155,901l-59,-38Z"
id="f6_d4"
transform="scale(0.001,-0.001)"/>

<path d="M527,-71L52,414l34,92H277c0,0,12,32,12,72V822H0l-45,76l14,31H940l45,-76L972,822H350l66,-55V553c0,0,24,52,77,83c0,0,52,30,112,30c0,0,87,0,171,-76c0,0,84,-75,222,-304L938,244L828,411c0,0,-95,134,-195,134c0,0,-63,0,-100,-35c0,0,-36,-36,-36,-87c0,0,0,-50,42,-87l152,99L755,315c0,0,-71,-61,-148,-61c0,0,-80,0,-146,66c0,0,-65,67,-65,164c0,0,-34,-70,-132,-168L610,34L611,8L527,-71Z"
id="f6_n1"
transform="scale(0.001,-0.001)"/>

<path d="M845,-49L755,8V513H497c0,0,61,-45,93,-110c0,0,33,-64,33,-128c0,0,0,-90,-58,-144c0,0,-59,-53,-143,-53c0,0,-133,0,-234,139C188,217,87,356,20,596l76,24c0,0,60,-201,127,-306c0,0,67,-105,160,-105c0,0,57,0,91,36c0,0,33,36,33,91c0,0,0,84,-73,159L295,558v71H755V822H0l-45,76l14,31H1019l46,-76l-14,-31H816l66,-58V-39L845,-49Z"
id="f6_bg"
transform="scale(0.001,-0.001)"/>

<path d="M228,-49L138,8V822H0l-45,76l14,31H138c0,0,-109,342,-284,342c0,0,-62,0,-102,-40c0,0,-40,-39,-40,-93c0,0,0,-61,51,-134l-42,-32c0,0,-128,113,-128,226c0,0,0,79,60,136c0,0,61,56,154,56c0,0,137,0,249,-125c0,0,112,-125,169,-336H402l46,-76L434,822H199l65,-58V-39L228,-49Z"
id="f6_cv"
transform="scale(0.001,-0.001)"/>

<path d="M768,-49L678,8V202c0,0,-73,-58,-172,-58c0,0,-123,0,-240,94c0,0,-118,94,-179,237l20,55c0,0,134,12,215,70c0,0,81,57,81,141c0,0,0,90,-67,134l-26,3c0,0,-46,0,-74,-29c0,0,-28,-30,-28,-68c0,0,0,-55,82,-109L252,620C252,620,93,720,93,820c0,0,0,65,47,104c0,0,46,40,114,40c0,0,99,0,179,-83c0,0,80,-83,82,-197c0,0,0,-93,-79,-165c0,0,-78,-73,-199,-97c0,0,29,-104,88,-158c0,0,42,-16,92,-16c0,0,78,0,151,38c0,0,74,38,110,111V822H553l-46,76l14,31H943l45,-76L975,822H739l66,-58V-39L768,-49Z"
id="f6_bq"
transform="scale(0.001,-0.001)"/>

<path d="M228,-49L138,8V822H0l-45,76l14,31H402l46,-76L434,822H199l65,-58V-39L228,-49Z"
id="f6_ct"
transform="scale(0.001,-0.001)"/>

<path d="M527,-71L52,414l34,92H277c0,0,12,32,12,72V822H0l-45,76l14,31H599l46,-76L631,822H350l66,-55V564c0,0,0,-96,-152,-248L610,34L611,8L527,-71Z"
id="f6_c1"
transform="scale(0.001,-0.001)"/>

<path d="M228,-49L138,8V822H0l-45,76l14,31H119L-33,1144c0,0,-70,92,-157,92c0,0,-69,0,-159,-58l-72,118c0,0,89,73,181,73c0,0,140,0,257,-170L205,929H402l46,-76L434,822H199l65,-58V-39L228,-49Z"
id="f6_d8"
transform="scale(0.001,-0.001)"/>

<path d="M283,260c0,0,122,0,209,113V513c0,0,-90,51,-160,51c0,0,-80,0,-129,-50c0,0,-49,-50,-49,-118c0,0,0,-60,35,-110c0,0,45,-26,94,-26ZM582,-49L492,8V211c0,0,-63,-54,-141,-54c0,0,-113,0,-214,92c0,0,-102,92,-102,206c0,0,0,93,69,157c0,0,69,63,163,63c0,0,34,0,66,-9L492,590V822H0l-45,76l14,31H909l46,-76L941,822H553l66,-58V521c0,0,93,104,192,104c0,0,63,0,120,-42c0,0,57,-42,82,-106L964,431l-5,9c0,0,-38,72,-110,72c0,0,-51,0,-105,-41c0,0,-53,-42,-125,-129V-39L582,-49Z"
id="f6_l1"
transform="scale(0.001,-0.001)"/>

<path d="M347,-57C347,-57,66,211,66,394c0,0,0,98,74,164c0,0,74,65,225,65H616V822H0l-45,76l14,31H880l46,-76L912,822H677l66,-58V-39L706,-49L616,8V500H428c0,0,-239,0,-239,-161c0,0,0,-136,214,-343L347,-57Z"
id="f6_bp"
transform="scale(0.001,-0.001)"/>

<path d="M348,229c0,0,57,0,106,17L263,559c0,0,-95,-50,-95,-162c0,0,0,-75,52,-136c0,0,49,-32,128,-32Zm170,48c0,0,61,38,96,91V504c0,0,-131,80,-244,80l-35,-2L518,277ZM704,-49L614,8V193c0,0,-84,-65,-192,-65c0,0,-139,0,-255,98c0,0,-115,98,-115,226c0,0,0,106,77,175c0,0,77,70,189,70c0,0,38,0,75,-9L614,578V822H0l-45,76l14,31H878l46,-76L911,822H675l66,-58V-39L704,-49Z"
id="f6_bx"
transform="scale(0.001,-0.001)"/>

<path d="M663,-49L573,8V445H299V280L226,251c0,0,-105,99,-162,238l63,72H573V822H0l-45,76l14,31H837l46,-76L869,822H634l66,-58V-39L663,-49Z"
id="f6_bt"
transform="scale(0.001,-0.001)"/>

<path d="M-234,-413c0,0,-210,0,-488,322l54,49c0,0,119,-128,209,-193c0,0,90,-65,177,-65c0,0,72,0,113,40c0,0,42,39,42,91c0,0,0,75,-78,106L-323,-181l-90,98c0,0,63,95,167,95c0,0,90,0,155,-69c0,0,66,-70,66,-164c0,0,0,-85,-60,-139c0,0,-61,-53,-149,-53Z"
id="f6_cw"
transform="scale(0.001,-0.001)"/>

<path d="M689,445V822H286l65,-58l8,-319ZM779,-49L689,8V328H370V180L296,150c0,0,-56,35,-120,104c0,0,-63,70,-89,131l41,60H238L223,822H0l-45,76l14,31H953l46,-76L985,822H750l66,-58V-39L779,-49Z"
id="f6_bz"
transform="scale(0.001,-0.001)"/>

<path d="M-40,1030c0,0,-28,10,-61,36c0,0,-34,26,-51,49c0,0,38,81,90,110c0,0,61,-23,106,-85c0,0,-27,-71,-84,-110ZM-214,860l-227,219c0,0,-73,70,-148,70c0,0,-67,0,-160,-58l-72,117c0,0,83,71,176,71c0,0,120,0,232,-124L-221,940l-102,294c0,0,-64,179,-189,179c0,0,-60,0,-133,-33l-60,125c0,0,84,47,164,47c0,0,200,0,281,-276L-150,901l-23,-15l-41,-26Z"
id="f6_p3"
transform="scale(0.001,-0.001)"/>

<path d="M108,-222l-44,58c0,0,96,81,104,164L89,61c0,0,12,83,93,122c0,0,50,-15,79,-55c0,0,29,-39,29,-90c0,0,0,-69,-48,-142c0,0,-48,-72,-134,-118Z"
id="f6_k"
transform="scale(0.001,-0.001)"/>

<path d="M799,475V822H350l66,-55V564c0,0,0,-43,-25,-89ZM527,-71L52,414l34,92H277c0,0,12,32,12,72V822H0l-45,76l14,31H1063l46,-76l-14,-31H860l66,-58V-39L889,-49L799,8V370H315L264,316L610,34L611,8L527,-71Z"
id="f6_cb"
transform="scale(0.001,-0.001)"/>

<path d="M325,240c0,0,77,0,154,35c0,0,77,35,120,99V500c0,0,-118,73,-222,73c0,0,-97,0,-151,-54c0,0,-53,-53,-53,-128c0,0,0,-73,49,-125c0,0,38,-26,103,-26ZM689,-49L599,8V199c0,0,-73,-65,-179,-65c0,0,-134,0,-252,96c0,0,-118,95,-118,221c0,0,0,102,78,171c0,0,78,69,190,69c0,0,38,0,75,-10L599,582V822H0l-45,76l14,31H863l46,-76L895,822H660l66,-58V-39L689,-49Z"
id="f6_c7"
transform="scale(0.001,-0.001)"/>

<path d="M283,260c0,0,122,0,209,113V513c0,0,-90,51,-160,51c0,0,-80,0,-129,-50c0,0,-49,-50,-49,-118c0,0,0,-60,35,-110c0,0,45,-26,94,-26ZM582,-49L492,8V211c0,0,-63,-54,-141,-54c0,0,-113,0,-213,92c0,0,-100,92,-100,205c0,0,0,93,69,157c0,0,69,64,162,64c0,0,32,0,64,-9L492,590V822H0l-45,76l14,31H1108l45,-76l-13,-31H553l66,-58V524c0,0,91,89,192,89c0,0,98,0,171,-79c0,0,72,-79,72,-186c0,0,0,-178,-224,-330L736,124c0,0,219,153,219,269c0,0,0,44,-26,75c0,0,-26,32,-81,32c0,0,-109,0,-229,-155V-39L582,-49Z"
id="f6_b9"
transform="scale(0.001,-0.001)"/>

<path d="M688,-243c0,0,-256,53,-408,173c0,0,-152,119,-152,270c0,0,0,101,68,171c0,0,-101,84,-101,179c0,0,0,64,53,112c0,0,54,47,191,47H587V822H0l-45,76l14,31H830l45,-76L862,822H640l66,-58V585H362c0,0,-159,-1,-159,-92c0,0,0,-41,46,-80c0,0,76,47,183,47c0,0,135,0,230,-76c0,0,96,-75,96,-187C758,197,758,67,629,2L545,104c0,0,49,30,81,75c0,0,32,44,32,82c0,0,0,16,-4,26c0,0,-64,58,-167,58c0,0,-97,0,-166,-50v-2c0,0,-67,-52,-67,-131c0,0,0,-116,132,-199c0,0,132,-84,334,-132l-32,-74Z"
id="f6_cc"
transform="scale(0.001,-0.001)"/>

<path d="M388,325c0,0,58,0,112,31c0,0,53,31,84,86V822H165l69,-58V408c0,0,47,-83,154,-83ZM674,-49L584,8V257c0,0,-61,-51,-141,-51c0,0,-125,0,-232,109c0,0,-107,108,-107,243V822H0l-45,76l14,31H848l46,-76L880,822H645l65,-58V-39L674,-49Z"
id="f6_bv"
transform="scale(0.001,-0.001)"/>

<path d="M413,-59C413,-59,53,193,53,416c0,0,0,97,66,164c0,0,66,66,156,66c0,0,61,0,110,-30L487,507c0,0,92,126,257,126l35,-2V822H0l-45,76l14,31H1043l46,-76l-13,-31H840l66,-58V-39L869,-49L779,8V547c0,0,-101,-5,-165,-90c0,0,-64,-86,-70,-222L507,225l-90,73c0,0,5,79,35,151c0,0,-59,66,-128,66c0,0,-57,0,-100,-38c0,0,-44,-39,-44,-109c0,0,0,-165,284,-360L413,-59Z"
id="f6_c3"
transform="scale(0.001,-0.001)"/>

<path d="M0,822l-45,76l14,31H61l46,-76L93,822Z"
id="f6_no"
transform="scale(0.001,-0.001)"/>

<path d="M819,-521L651,-303c0,0,-99,119,-191,119c0,0,-60,0,-96,-34c0,0,-37,-35,-37,-82c0,0,0,-49,43,-82l151,94l64,-116c0,0,-70,-58,-148,-58c0,0,-79,0,-145,64c0,0,-66,63,-66,144c0,0,0,98,90,151c0,0,-203,131,-203,306c0,0,0,101,69,170c0,0,-103,88,-103,179c0,0,0,64,57,110c0,0,57,47,196,47H571V822H0l-45,76l14,31H830l45,-76L862,822H625l66,-58V585H364c0,0,-176,0,-176,-96c0,0,0,-41,44,-76c0,0,81,47,185,47c0,0,135,0,230,-76c0,0,96,-75,96,-187C743,197,743,67,614,2L530,104c0,0,49,30,81,75c0,0,32,44,32,82c0,0,0,16,-4,26c0,0,-65,58,-167,58c0,0,-98,0,-166,-50v-2c0,0,-68,-52,-68,-131c0,0,0,-134,188,-231c0,0,84,0,164,-62c0,0,79,-62,195,-222l90,-129l-56,-39Z"
id="f6_n5"
transform="scale(0.001,-0.001)"/>

<path d="M0,1062c0,0,-26,11,-60,36c0,0,-34,26,-51,49c0,0,39,81,91,110c0,0,60,-23,106,-85c0,0,-28,-70,-86,-110Z"
id="f6_dj"
transform="scale(0.001,-0.001)"/>

<path d="M727,-49L637,8V822H278l66,-58V226L270,196c0,0,-64,36,-122,98c0,0,-58,62,-79,122l43,59H217V822H0l-45,76l14,31H901l46,-76L933,822H698l66,-58V-39L727,-49Z"
id="f6_bb"
transform="scale(0.001,-0.001)"/>

<path d="M471,-26c0,0,-259,0,-448,396l70,43C93,413,240,98,442,98c0,0,79,0,132,46c0,0,54,45,54,120c0,0,0,61,-38,116c0,0,-38,54,-107,72L322,370L255,492c0,0,66,53,156,56c0,0,128,51,128,153c0,0,0,77,-65,121H0l-45,76l14,31H813l46,-76L845,822H578c0,0,76,-66,76,-157c0,0,0,-95,-87,-156c0,0,84,-48,131,-123c0,0,48,-76,48,-158c0,0,0,-109,-78,-182c0,0,-78,-72,-197,-72Z"
id="f6_ap"
transform="scale(0.001,-0.001)"/>

<path d="M761,293c0,0,127,0,169,94V532c0,0,-68,46,-145,46c0,0,-76,0,-121,-46c0,0,-45,-45,-45,-107c0,0,0,-61,44,-110c0,0,47,-22,98,-22ZM657,67c0,0,166,0,273,107v55c0,0,-45,-36,-111,-36c0,0,-110,0,-207,90c0,0,-97,90,-97,194c0,0,0,85,66,148c0,0,65,63,155,63l48,-5L930,603V822H376l62,-55V579c0,0,0,-60,-23,-102c0,0,-24,-42,-148,-190c0,0,66,-104,175,-162c0,0,108,-58,215,-58ZM1021,-49L930,8V53c0,0,-105,-83,-264,-83c0,0,-177,0,-339,128C327,98,165,226,90,429l34,77H296c0,0,19,39,19,102l-2,214H0l-45,76l14,31H1195l46,-76l-14,-31H992l65,-58V-39l-36,-10Z"
id="f6_ba"
transform="scale(0.001,-0.001)"/>

<path d="M92,380L46,457l14,30H448l45,-76L480,380Z"
id="f6_pd"
transform="scale(0.001,-0.001)"/>

<path d="M290,-236c0,0,-253,348,-253,685c0,0,0,342,270,669l80,-39c0,0,-207,-311,-207,-622c0,0,0,-326,193,-652l-83,-41Z"
id="f6_g"
transform="scale(0.001,-0.001)"/>

<path d="M634,-49L249,296c0,0,-1,0,-3,0c-11,0,-48,1,-90,15c0,0,-51,16,-67,36l49,165l50,12l84,-98c0,0,125,31,191,104c0,0,66,73,66,165c0,0,0,109,-95,170c0,0,-2,0,-6,0C397,865,262,858,121,738L46,848c0,0,52,47,127,82c0,0,75,34,152,34c0,0,130,0,226,-94c0,0,95,-94,95,-218c0,0,0,-107,-77,-199c0,0,-77,-92,-216,-134L697,26L698,0L634,-49Z"
id="f6_n8"
transform="scale(0.001,-0.001)"/>

<path d="M130,-236l-83,41c0,0,193,326,193,652c0,0,0,311,-206,622l79,39c0,0,270,-327,270,-669c0,0,0,-337,-253,-685Z"
id="f6_h"
transform="scale(0.001,-0.001)"/>

<path d="M108,-433L-59,-214c0,0,-99,119,-191,119c0,0,-59,0,-96,-35c0,0,-36,-34,-36,-81c0,0,0,-49,42,-83l152,95l64,-116c0,0,-71,-58,-148,-58c0,0,-80,0,-146,63c0,0,-65,64,-65,144c0,0,0,77,62,131c0,0,61,53,142,53c0,0,138,0,296,-205L165,-393l-57,-40Z"
id="f6_cx"
transform="scale(0.001,-0.001)"/>

<path d="M548,-57c0,0,-122,0,-243,81c0,0,-122,81,-252,280l57,41C110,345,283,64,498,64c0,0,92,0,153,49c0,0,61,49,61,121c0,0,0,46,-28,84L440,237c0,0,-73,11,-139,55c0,0,-66,44,-105,105c0,0,-40,61,-40,119c0,0,0,72,62,125c0,0,62,53,184,53H625V822H0l-45,76l14,31H906l46,-76L938,822H678l66,-58V562H431c0,0,-164,0,-164,-99c0,0,0,-55,57,-102l261,82c0,0,104,-21,172,-98c0,0,68,-78,68,-171c0,0,0,-99,-76,-166c0,0,-77,-65,-201,-65Z"
id="f6_bm"
transform="scale(0.001,-0.001)"/>

<path d="M675,-274L602,21C602,21,550,3,498,3C498,3,347,3,210,118C210,118,73,232,73,373c0,0,0,113,84,184c0,0,84,71,222,72H524V822H0l-45,76l14,31H834l46,-76L866,822H585l66,-58V504l-3,2l3,-3H408c0,0,-95,0,-154,-53c0,0,-58,-53,-58,-132c0,0,0,-49,27,-100c0,0,28,-50,83,-84c0,0,44,-15,96,-15c0,0,91,0,160,46L535,303l101,48L773,188c0,0,-8,-28,-34,-66c0,0,-27,-38,-62,-64L813,-221L675,-274Z"
id="f6_br"
transform="scale(0.001,-0.001)"/>

<path d="M228,-49L138,8V822H0l-45,76l14,31H133c0,0,-93,95,-93,206c0,0,0,96,68,159c0,0,68,63,179,63c0,0,118,0,228,-81c0,0,110,-80,258,-262L720,970L588,1109c0,0,-133,133,-253,133c0,0,-78,0,-127,-46c0,0,-49,-46,-49,-119c0,0,0,-69,56,-148H402l46,-76L434,822H199l65,-58V-39L228,-49Z"
id="f6_nr"
transform="scale(0.001,-0.001)"/>

<path d="M513,460c0,0,61,81,61,179c0,0,0,87,-45,143c0,0,-45,57,-116,57c0,0,-63,0,-102,-43c0,0,-39,-43,-39,-110c0,0,0,-90,68,-151c0,0,68,-61,173,-75ZM581,-83L278,167l-41,-4c0,0,-99,0,-130,37l47,168l51,12l78,-79c0,0,110,40,183,105c0,0,-141,23,-231,107c0,0,-90,84,-90,193c0,0,0,69,37,116H0l-45,76l14,31H1134l45,-76l-13,-31H930l66,-58V-39L959,-49L869,8V822H588c0,0,51,-44,75,-109c0,0,25,-64,25,-122c0,0,0,-105,-81,-213c0,0,-80,-108,-240,-176L658,18l2,-25L581,-83Z"
id="f6_c8"
transform="scale(0.001,-0.001)"/>

<path d="M180,196c0,0,-105,99,-162,238l63,72H573l40,-86L591,390H254V225L180,196ZM0,822l-45,76l14,31H409l46,-76L442,822Z"
id="f6_lj"
transform="scale(0.001,-0.001)"/>

<path d="M254,-26c0,0,-84,16,-116,92c0,0,13,84,97,127c0,0,100,-36,112,-110C347,83,324,6,254,-26Zm458,0c0,0,-84,16,-116,92c0,0,14,84,98,127c0,0,99,-37,111,-110C805,83,782,6,712,-26Zm458,0c0,0,-84,16,-116,92c0,0,14,84,98,127c0,0,99,-36,111,-110c0,0,-22,-77,-93,-109Z"
id="f6_8l"
transform="scale(0.001,-0.001)"/>

<path d="M228,-49L138,8V822H0l-45,76l14,31H134c0,0,-91,92,-91,191c0,0,0,105,85,170c0,0,84,65,219,65c0,0,128,0,293,-76c0,0,165,-77,362,-263L958,966c0,0,-177,143,-303,210c0,0,-125,68,-244,68c0,0,-107,0,-175,-50c0,0,-68,-50,-68,-131c0,0,0,-61,49,-134H402l46,-76L434,822H199l65,-58V-39L228,-49Z"
id="f6_cu"
transform="scale(0.001,-0.001)"/>

<path d="M-10,1013c0,0,-122,70,-122,189c0,0,0,74,53,125c0,0,53,51,137,51c0,0,87,0,164,-73l-23,-61c0,0,-49,36,-109,36c0,0,-61,0,-98,-39c0,0,-38,-39,-38,-97c0,0,0,-55,46,-128l-10,-3Z"
id="f6_on"
transform="scale(0.001,-0.001)"/>

<path d="M228,-49L138,8V822H0l-45,76l14,31H136c0,0,-173,353,-364,353c0,0,-75,0,-119,-44c0,0,-45,-45,-45,-106c0,0,0,-69,48,-128l-43,-32c0,0,-124,113,-124,224c0,0,0,87,67,146c0,0,68,59,167,59c0,0,150,0,283,-130c0,0,135,-130,219,-342H402l46,-76L434,822H199l65,-58V-39L228,-49Z"
id="f6_ob"
transform="scale(0.001,-0.001)"/>

<path d="M1066,248c0,0,77,0,149,36c0,0,71,37,110,107V822H976c0,0,138,-96,138,-208c0,0,0,-151,-228,-192c0,0,29,-104,89,-158c0,0,41,-16,91,-16ZM1415,-49L1325,8V200c0,0,-69,-56,-170,-56c0,0,-121,0,-238,91c0,0,-116,92,-178,233c0,0,-22,19,-51,25c0,0,-28,5,-191,5c0,0,61,-47,93,-111c0,0,33,-63,33,-126c0,0,0,-85,-58,-142c0,0,-59,-56,-148,-56c0,0,-130,0,-230,139C187,202,87,341,20,581l76,24c0,0,60,-202,127,-306c0,0,67,-105,160,-105c0,0,57,0,91,36c0,0,33,36,33,91c0,0,0,84,-73,159L295,542v72H542c0,0,112,0,168,-14c0,0,55,-15,97,-62c0,0,102,15,146,42c0,0,45,27,45,78c0,0,0,45,-30,81c0,0,-30,36,-99,83H0l-45,76l14,31H1589l46,-76l-14,-31H1386l65,-58V-39l-36,-10Z"
id="f6_iz"
transform="scale(0.001,-0.001)"/>

<path d="M368,344c0,0,90,0,155,73V822H150l67,-58V438c0,0,46,-94,151,-94ZM613,-49L523,8V251c0,0,-48,-28,-103,-28c0,0,-122,0,-227,112C193,335,89,448,89,590V822H0l-45,76l14,31H1150l46,-76l-13,-31H584l65,-58V533c0,0,101,95,211,95c0,0,98,0,170,-79c0,0,73,-78,73,-185c0,0,0,-179,-225,-330L785,139c0,0,219,153,219,269c0,0,0,43,-26,75c0,0,-26,32,-80,32c0,0,-120,0,-249,-159V-39L613,-49Z"
id="f6_bw"
transform="scale(0.001,-0.001)"/>

<path d="M825,-49L735,8V217c0,0,-86,-72,-197,-72c0,0,-130,0,-238,91c0,0,-107,91,-107,204c0,0,0,55,27,105H55L12,616l14,30H574l46,-76L607,539H396c0,0,-78,-49,-78,-162c0,0,0,-70,40,-111c0,0,39,-15,94,-15c0,0,84,0,163,41c0,0,79,41,120,121V822H0l-45,76l14,31H999l46,-76l-14,-31H796l66,-58V-39L825,-49Z"
id="f6_be"
transform="scale(0.001,-0.001)"/>

<path d="M725,307c0,0,-95,0,-218,78c0,0,-123,78,-188,78c0,0,-54,0,-95,-34c0,0,-41,-34,-73,-100L93,362c0,0,38,88,101,146c0,0,63,59,148,59c0,0,90,0,214,-78c0,0,124,-79,188,-79c0,0,63,0,106,34c0,0,42,33,85,104l60,-40c0,0,-32,-66,-101,-134c0,0,-70,-67,-169,-67Z"
id="f7_4r"
transform="scale(0.001,-0.001)"/>

<path d="M435,92c0,0,85,0,146,69c0,0,60,68,60,186c0,0,0,114,-60,179c0,0,-60,66,-152,66c0,0,-90,0,-154,-66c0,0,-63,-65,-63,-171c0,0,0,-70,30,-133c0,0,29,-64,82,-97c0,0,52,-33,111,-33Zm2,-110c0,0,-168,0,-273,123C164,105,58,228,58,512c0,0,0,317,117,461c0,0,102,125,275,125c0,0,129,0,211,-72c0,0,82,-72,99,-200L626,815c0,0,-18,79,-51,115c0,0,-54,58,-134,58c0,0,-64,0,-112,-36c0,0,-63,-46,-99,-135c0,0,-37,-89,-38,-253c0,0,48,74,118,110c0,0,70,36,147,36c0,0,134,0,228,-99c0,0,94,-99,94,-256c0,0,0,-103,-44,-191C735,164,691,75,613,28c0,0,-77,-46,-176,-46Z"
id="f8_q"
transform="scale(0.001,-0.001)"/>

<path d="M435,0V856c0,0,-48,-47,-127,-93c0,0,-79,-46,-142,-69V824c0,0,113,52,197,128c0,0,85,75,120,146h86V0Z"
id="f8_l"
transform="scale(0.001,-0.001)"/>


</defs>
</svg>