<?xml version="1.0" encoding="UTF-8" standalone="no"?>
<!DOCTYPE svg PUBLIC "-//W3C//DTD SVG 1.1//EN"
"http://www.w3.org/Graphics/SVG/1.1/DTD/svg11.dtd">
<svg viewBox="0 0 641 910" version="1.1" xmlns="http://www.w3.org/2000/svg" xmlns:xlink="http://www.w3.org/1999/xlink">
<defs>
<clipPath id="c0_12"><path d="M0,909.8V0H641.7V909.8Z"/></clipPath>
<clipPath id="c1_12"><path d="M0,908.6V0H641.7V908.6Z"/></clipPath>
<style type="text/css"><![CDATA[
.g0_12{
fill: #FFFFFF;
}
.g1_12{
}
]]></style>
</defs>
<path d="M0,0H641.7V909.8H0V0Z" class="g0_12"/>
<path d="M0,0H641.7V909.8H0V0Z" class="g0_12"/>
<g clip-path="url(#c0_12)">
<path d="M0,-4548.9H641.7V101896.7H0V-4548.9Z" class="g0_12"/>
</g>
<path d="M0,0H641.7V908.6H0V0Z" class="g0_12"/>
<path d="M19.5,60.7H602.7v1.2H19.5V60.7Z" class="g1_12"/>
<g clip-path="url(#c1_12)">
<path d="M0,61.9H641.7V909.8H0V61.9Z" class="g0_12"/>
</g>
<path d="M19.5,61.9H602.7V88.2H19.5V61.9Z" class="g0_12"/>
<path d="M19.5,87.1H602.7v26.3H19.5V87.1Z" class="g0_12"/>
<path d="M19.5,112.3H602.7v26.3H19.5V112.3Z" class="g0_12"/>
<path d="M19.5,137.5H602.7v26.4H19.5V137.5Z" class="g0_12"/>
<path d="M19.5,162.7H602.7v26.4H19.5V162.7Z" class="g0_12"/>
<path d="M19.5,187.9H602.7v26.4H19.5V187.9Z" class="g0_12"/>
<g clip-path="url(#c1_12)">
<g fill="#222222" >
<use xlink:href="#f6_nh" transform="matrix(14,0,0,14,273,82.5)" />
<use xlink:href="#f6_br" transform="matrix(14,0,0,14,293.6,82.5)" />
<use xlink:href="#f6_d8" transform="matrix(14,0,0,14,305.3,82.5)" />
<use xlink:href="#f6_cc" transform="matrix(14,0,0,14,310.9,82.5)" />
<use xlink:href="#f6_ct" transform="matrix(14,0,0,14,322.5,82.5)" />
<use xlink:href="#f6_nh" transform="matrix(14,0,0,14,333.8,82.5)" />
<use xlink:href="#f6_by" transform="matrix(14,0,0,14,176.8,107.7)" />
<use xlink:href="#f6_d5" transform="matrix(14,0,0,14,190.9,107.7)" />
<use xlink:href="#f6_n0" transform="matrix(14,0,0,14,190.7,107.7)" />
<use xlink:href="#f6_be" transform="matrix(14,0,0,14,209.5,107.7)" />
<use xlink:href="#f6_ct" transform="matrix(14,0,0,14,223.5,107.7)" />
<use xlink:href="#f6_c3" transform="matrix(14,0,0,14,229.1,107.7)" />
<use xlink:href="#f6_cv" transform="matrix(14,0,0,14,243.8,107.7)" />
<use xlink:href="#f6_cb" transform="matrix(14,0,0,14,249.5,107.7)" />
<use xlink:href="#f6_ct" transform="matrix(14,0,0,14,264.3,107.7)" />
<use xlink:href="#f6_bv" transform="matrix(14,0,0,14,275.6,107.7)" />
<use xlink:href="#f6_bn" transform="matrix(14,0,0,14,287.5,107.7)" />
<use xlink:href="#f6_d4" transform="matrix(14,0,0,14,299.2,107.7)" />
<use xlink:href="#f6_k" transform="matrix(14,0,0,14,299.4,107.7)" />
<use xlink:href="#f6_bz" transform="matrix(14,0,0,14,310.3,107.7)" />
<use xlink:href="#f6_bt" transform="matrix(14,0,0,14,323.6,107.7)" />
<use xlink:href="#f6_bz" transform="matrix(14,0,0,14,341,107.7)" />
<use xlink:href="#f6_oz" transform="matrix(14,0,0,14,354.5,107.7)" />
<use xlink:href="#f6_ef" transform="matrix(14,0,0,14,360,107.7)" />
<use xlink:href="#f6_ge" transform="matrix(14,0,0,14,374.2,107.7)" />
<use xlink:href="#f6_ct" transform="matrix(14,0,0,14,389.4,107.7)" />
<use xlink:href="#f6_bs" transform="matrix(14,0,0,14,400.6,107.7)" />
<use xlink:href="#f6_ct" transform="matrix(14,0,0,14,414.6,107.7)" />
<use xlink:href="#f6_c1" transform="matrix(14,0,0,14,420.3,107.7)" />
<use xlink:href="#f6_ng" transform="matrix(14,0,0,14,434.3,107.7)" />
<use xlink:href="#f6_b9" transform="matrix(14,0,0,14,141.2,132.9)" />
<use xlink:href="#f6_kf" transform="matrix(14,0,0,14,156.7,132.9)" />
<use xlink:href="#f6_b9" transform="matrix(14,0,0,14,174.4,132.9)" />
<use xlink:href="#f6_bk" transform="matrix(14,0,0,14,189.9,132.9)" />
<use xlink:href="#f6_d4" transform="matrix(14,0,0,14,200.9,132.9)" />
<use xlink:href="#f6_bz" transform="matrix(14,0,0,14,207.2,132.9)" />
<use xlink:href="#f6_cu" transform="matrix(14,0,0,14,220.5,132.9)" />
<use xlink:href="#f6_cc" transform="matrix(14,0,0,14,226.1,132.9)" />
<use xlink:href="#f6_bz" transform="matrix(14,0,0,14,237.7,132.9)" />
<use xlink:href="#f6_ct" transform="matrix(14,0,0,14,251.1,132.9)" />
<use xlink:href="#f6_bx" transform="matrix(14,0,0,14,262.4,132.9)" />
<use xlink:href="#f6_bn" transform="matrix(14,0,0,14,274.7,132.9)" />
<use xlink:href="#f6_d4" transform="matrix(14,0,0,14,286.4,132.9)" />
<use xlink:href="#f6_k" transform="matrix(14,0,0,14,286.6,132.9)" />
<use xlink:href="#f6_cb" transform="matrix(14,0,0,14,297.5,132.9)" />
<use xlink:href="#f6_dj" transform="matrix(14,0,0,14,306,133.3)" />
<use xlink:href="#f6_bv" transform="matrix(14,0,0,14,312.3,132.9)" />
<use xlink:href="#f6_br" transform="matrix(14,0,0,14,324.2,132.9)" />
<use xlink:href="#f6_ct" transform="matrix(14,0,0,14,335.9,132.9)" />
<use xlink:href="#f6_cc" transform="matrix(14,0,0,14,347.2,132.9)" />
<use xlink:href="#f6_d8" transform="matrix(14,0,0,14,358.8,132.9)" />
<use xlink:href="#f6_bp" transform="matrix(14,0,0,14,364.4,132.9)" />
<use xlink:href="#f6_al" transform="matrix(14,0,0,14,382.4,132.9)" />
<use xlink:href="#f6_bv" transform="matrix(14,0,0,14,398.2,132.9)" />
<use xlink:href="#f6_ct" transform="matrix(14,0,0,14,410.1,132.9)" />
<use xlink:href="#f6_c1" transform="matrix(14,0,0,14,415.7,132.9)" />
<use xlink:href="#f6_nh" transform="matrix(14,0,0,14,429.8,132.9)" />
<use xlink:href="#f6_n9" transform="matrix(14,0,0,14,444.7,132.9)" />
<use xlink:href="#f6_nf" transform="matrix(14,0,0,14,455.8,132.9)" />
<use xlink:href="#f6_nh" transform="matrix(14,0,0,14,465.4,132.9)" />
<use xlink:href="#f6_nu" transform="matrix(14,0,0,14,150.4,158.1)" />
<use xlink:href="#f6_bg" transform="matrix(14,0,0,14,156,158.1)" />
<use xlink:href="#f6_bt" transform="matrix(14,0,0,14,170.3,158.1)" />
<use xlink:href="#f6_b9" transform="matrix(14,0,0,14,187.7,158.1)" />
<use xlink:href="#f6_ct" transform="matrix(14,0,0,14,203.2,158.1)" />
<use xlink:href="#f6_nw" transform="matrix(14,0,0,14,208.8,158.1)" />
<use xlink:href="#f6_li" transform="matrix(14,0,0,14,214.4,158.1)" />
<use xlink:href="#f6_bp" transform="matrix(14,0,0,14,220.6,158.1)" />
<use xlink:href="#f6_bb" transform="matrix(14,0,0,14,238.6,158.1)" />
<use xlink:href="#f6_cw" transform="matrix(14,0,0,14,251.7,158)" />
<use xlink:href="#f6_n0" transform="matrix(14,0,0,14,251.2,158.1)" />
<use xlink:href="#f6_c1" transform="matrix(14,0,0,14,264.3,158.1)" />
<use xlink:href="#f6_ct" transform="matrix(14,0,0,14,272.7,158.1)" />
<use xlink:href="#f6_bg" transform="matrix(14,0,0,14,278.3,158.1)" />
<use xlink:href="#f6_b9" transform="matrix(14,0,0,14,298.3,158.1)" />
<use xlink:href="#f6_d4" transform="matrix(14,0,0,14,309.4,158.1)" />
<use xlink:href="#f6_k" transform="matrix(14,0,0,14,313.8,158.1)" />
<use xlink:href="#f6_nv" transform="matrix(14,0,0,14,319,158.1)" />
<use xlink:href="#f6_c8" transform="matrix(14,0,0,14,324.6,158.1)" />
<use xlink:href="#f6_m0" transform="matrix(14,0,0,14,340.5,158.1)" />
<use xlink:href="#f6_c0" transform="matrix(14,0,0,14,346.7,158.1)" />
<use xlink:href="#f6_bz" transform="matrix(14,0,0,14,364.9,158.1)" />
<use xlink:href="#f6_nu" transform="matrix(14,0,0,14,378.3,158.1)" />
<use xlink:href="#f6_bo" transform="matrix(14,0,0,14,383.9,158.1)" />
<use xlink:href="#f6_e6" transform="matrix(14,0,0,14,398.3,158.1)" />
<use xlink:href="#f6_by" transform="matrix(14,0,0,14,410.3,158.1)" />
<use xlink:href="#f6_c1" transform="matrix(14,0,0,14,430,158.1)" />
<use xlink:href="#f6_ct" transform="matrix(14,0,0,14,438.3,158.1)" />
<use xlink:href="#f6_c0" transform="matrix(14,0,0,14,444,158.1)" />
<use xlink:href="#f6_ng" transform="matrix(14,0,0,14,462.2,158.1)" />
<use xlink:href="#f6_by" transform="matrix(14,0,0,14,149.3,183.3)" />
<use xlink:href="#f6_d5" transform="matrix(14,0,0,14,163.4,183.3)" />
<use xlink:href="#f6_c1" transform="matrix(14,0,0,14,163.2,183.3)" />
<use xlink:href="#f6_c7" transform="matrix(14,0,0,14,171.6,183.3)" />
<use xlink:href="#f6_b9" transform="matrix(14,0,0,14,189.3,183.3)" />
<use xlink:href="#f6_d4" transform="matrix(14,0,0,14,200.5,183.3)" />
<use xlink:href="#f6_cb" transform="matrix(14,0,0,14,210.5,183.3)" />
<use xlink:href="#f6_ct" transform="matrix(14,0,0,14,225.4,183.3)" />
<use xlink:href="#f6_cu" transform="matrix(14,0,0,14,231,183.3)" />
<use xlink:href="#f6_bt" transform="matrix(14,0,0,14,236.6,183.3)" />
<use xlink:href="#f6_nl" transform="matrix(14,0,0,14,248.3,183.3)" />
<use xlink:href="#f6_lh" transform="matrix(14,0,0,14,248.3,183.3)" />
<use xlink:href="#f6_c0" transform="matrix(14,0,0,14,257.6,183.3)" />
<use xlink:href="#f6_bz" transform="matrix(14,0,0,14,275.8,183.3)" />
<use xlink:href="#f6_oz" transform="matrix(14,0,0,14,289.3,183.3)" />
<use xlink:href="#f6_k" transform="matrix(14,0,0,14,289.1,183.3)" />
<use xlink:href="#f6_c0" transform="matrix(14,0,0,14,294.3,183.3)" />
<use xlink:href="#f6_d4" transform="matrix(14,0,0,14,307,183.3)" />
<use xlink:href="#f6_be" transform="matrix(14,0,0,14,312.6,183.3)" />
<use xlink:href="#f6_ct" transform="matrix(14,0,0,14,326.5,183.3)" />
<use xlink:href="#f6_c3" transform="matrix(14,0,0,14,332.2,183.3)" />
<use xlink:href="#f6_cv" transform="matrix(14,0,0,14,346.9,183.3)" />
<use xlink:href="#f6_cb" transform="matrix(14,0,0,14,352.5,183.3)" />
<use xlink:href="#f6_ct" transform="matrix(14,0,0,14,367.4,183.3)" />
<use xlink:href="#f6_bb" transform="matrix(14,0,0,14,378.7,183.3)" />
<use xlink:href="#f6_ct" transform="matrix(14,0,0,14,391.3,183.3)" />
<use xlink:href="#f6_c0" transform="matrix(14,0,0,14,396.9,183.3)" />
<use xlink:href="#f6_nh" transform="matrix(14,0,0,14,415.1,183.3)" />
<use xlink:href="#f6_na" transform="matrix(14,0,0,14,435.7,183.3)" />
<use xlink:href="#f6_n6" transform="matrix(14,0,0,14,446.1,183.3)" />
<use xlink:href="#f6_nh" transform="matrix(14,0,0,14,456,183.3)" />
</g>
<g fill="#000000" >
<use xlink:href="#f7_4r" transform="matrix(9,0,0,9,293.6,795.2)" />
<use xlink:href="#f8_q" transform="matrix(9,0,0,9,306.5,795.2)" />
<use xlink:href="#f7_4r" transform="matrix(9,0,0,9,317.1,795.2)" />
</g>
</g>
<image preserveAspectRatio="none" x="22" y="801" width="581" height="86" xlink:href="img/1.png"/>
<image preserveAspectRatio="none" x="202" y="14" width="217" height="26" xlink:href="img/2.png"/>
<defs>
<path d="M426,-68L339,5V953l37,11l87,-73V-57L426,-68Zm397,0L736,5V953l37,11l87,-73V-57L823,-68Z"
id="f6_nh"
transform="scale(0.001,-0.001)"/>

<path d="M675,-274L602,21C602,21,550,3,498,3C498,3,347,3,210,118C210,118,73,232,73,373c0,0,0,113,84,184c0,0,84,71,222,72H524V822H0l-45,76l14,31H834l46,-76L866,822H585l66,-58V504l-3,2l3,-3H408c0,0,-95,0,-154,-53c0,0,-58,-53,-58,-132c0,0,0,-49,27,-100c0,0,28,-50,83,-84c0,0,44,-15,96,-15c0,0,91,0,160,46L535,303l101,48L773,188c0,0,-8,-28,-34,-66c0,0,-27,-38,-62,-64L813,-221L675,-274Z"
id="f6_br"
transform="scale(0.001,-0.001)"/>

<path d="M228,-49L138,8V822H0l-45,76l14,31H119L-33,1144c0,0,-70,92,-157,92c0,0,-69,0,-159,-58l-72,118c0,0,89,73,181,73c0,0,140,0,257,-170L205,929H402l46,-76L434,822H199l65,-58V-39L228,-49Z"
id="f6_d8"
transform="scale(0.001,-0.001)"/>

<path d="M688,-243c0,0,-256,53,-408,173c0,0,-152,119,-152,270c0,0,0,101,68,171c0,0,-101,84,-101,179c0,0,0,64,53,112c0,0,54,47,191,47H587V822H0l-45,76l14,31H830l45,-76L862,822H640l66,-58V585H362c0,0,-159,-1,-159,-92c0,0,0,-41,46,-80c0,0,76,47,183,47c0,0,135,0,230,-76c0,0,96,-75,96,-187C758,197,758,67,629,2L545,104c0,0,49,30,81,75c0,0,32,44,32,82c0,0,0,16,-4,26c0,0,-64,58,-167,58c0,0,-97,0,-166,-50v-2c0,0,-67,-52,-67,-131c0,0,0,-116,132,-199c0,0,132,-84,334,-132l-32,-74Z"
id="f6_cc"
transform="scale(0.001,-0.001)"/>

<path d="M228,-49L138,8V822H0l-45,76l14,31H402l46,-76L434,822H199l65,-58V-39L228,-49Z"
id="f6_ct"
transform="scale(0.001,-0.001)"/>

<path d="M823,-49L733,8V339H445V191L371,160c0,0,-56,36,-120,105c0,0,-63,70,-89,131l41,59H313V735c0,0,0,99,-55,140c0,0,-3,1,-8,1c-16,0,-48,-3,-71,-23c0,0,-31,-26,-31,-66c0,0,0,-69,81,-113L189,620C189,620,31,720,31,828c0,0,0,61,45,99c0,0,46,37,109,37c0,0,96,0,173,-86c0,0,76,-87,79,-194V455H733V822H556l-46,76l14,31H998l45,-76l-13,-31H794l66,-58V-39L823,-49Z"
id="f6_by"
transform="scale(0.001,-0.001)"/>

<path d="M-214,860l-227,219c0,0,-73,70,-148,70c0,0,-67,0,-160,-58l-72,117c0,0,83,71,176,71c0,0,120,0,232,-124L-221,940l-102,294c0,0,-64,179,-189,179c0,0,-60,0,-133,-33l-60,125c0,0,84,47,164,47c0,0,200,0,281,-276L-150,901l-23,-15l-41,-26Z"
id="f6_d5"
transform="scale(0.001,-0.001)"/>

<path d="M527,-71L52,414l34,92H277c0,0,12,32,12,72V822H0l-45,76l14,31H940l45,-76L972,822H350l66,-55V570c0,0,146,98,247,98c0,0,95,0,167,-73c0,0,71,-72,71,-167c0,0,0,-77,-53,-142c0,0,-54,-64,-159,-136l-89,99c0,0,100,70,152,121c0,0,52,52,52,105c0,0,0,34,-23,60c0,0,-22,26,-72,26c0,0,-139,0,-434,-252L610,34L611,8L527,-71Z"
id="f6_n0"
transform="scale(0.001,-0.001)"/>

<path d="M825,-49L735,8V217c0,0,-86,-72,-197,-72c0,0,-130,0,-238,91c0,0,-107,91,-107,204c0,0,0,55,27,105H55L12,616l14,30H574l46,-76L607,539H396c0,0,-78,-49,-78,-162c0,0,0,-70,40,-111c0,0,39,-15,94,-15c0,0,84,0,163,41c0,0,79,41,120,121V822H0l-45,76l14,31H999l46,-76l-14,-31H796l66,-58V-39L825,-49Z"
id="f6_be"
transform="scale(0.001,-0.001)"/>

<path d="M413,-59C413,-59,53,193,53,416c0,0,0,97,66,164c0,0,66,66,156,66c0,0,61,0,110,-30L487,507c0,0,92,126,257,126l35,-2V822H0l-45,76l14,31H1043l46,-76l-13,-31H840l66,-58V-39L869,-49L779,8V547c0,0,-101,-5,-165,-90c0,0,-64,-86,-70,-222L507,225l-90,73c0,0,5,79,35,151c0,0,-59,66,-128,66c0,0,-57,0,-100,-38c0,0,-44,-39,-44,-109c0,0,0,-165,284,-360L413,-59Z"
id="f6_c3"
transform="scale(0.001,-0.001)"/>

<path d="M228,-49L138,8V822H0l-45,76l14,31H138c0,0,-109,342,-284,342c0,0,-62,0,-102,-40c0,0,-40,-39,-40,-93c0,0,0,-61,51,-134l-42,-32c0,0,-128,113,-128,226c0,0,0,79,60,136c0,0,61,56,154,56c0,0,137,0,249,-125c0,0,112,-125,169,-336H402l46,-76L434,822H199l65,-58V-39L228,-49Z"
id="f6_cv"
transform="scale(0.001,-0.001)"/>

<path d="M799,475V822H350l66,-55V564c0,0,0,-43,-25,-89ZM527,-71L52,414l34,92H277c0,0,12,32,12,72V822H0l-45,76l14,31H1063l46,-76l-14,-31H860l66,-58V-39L889,-49L799,8V370H315L264,316L610,34L611,8L527,-71Z"
id="f6_cb"
transform="scale(0.001,-0.001)"/>

<path d="M388,325c0,0,58,0,112,31c0,0,53,31,84,86V822H165l69,-58V408c0,0,47,-83,154,-83ZM674,-49L584,8V257c0,0,-61,-51,-141,-51c0,0,-125,0,-232,109c0,0,-107,108,-107,243V822H0l-45,76l14,31H848l46,-76L880,822H645l65,-58V-39L674,-49Z"
id="f6_bv"
transform="scale(0.001,-0.001)"/>

<path d="M570,78c0,0,66,17,105,54c0,0,40,38,40,88c0,0,0,40,-23,66c0,0,-23,26,-58,26c0,0,-40,0,-71,-33c0,0,-31,-33,-31,-90c0,0,0,-55,38,-111ZM538,-45c0,0,-182,0,-322,128C216,83,76,211,76,368c0,0,0,122,91,201c0,0,90,79,238,79H564V822H0l-45,76l14,31H853l45,-76L885,822H617l66,-58V521H420c0,0,-99,0,-162,-57c0,0,-62,-58,-62,-146c0,0,0,-121,105,-208c0,0,118,-41,188,-41l29,1l-69,46c0,0,-36,55,-36,115c0,0,0,73,48,123c0,0,49,49,123,49c0,0,87,0,151,-74c0,0,64,-74,64,-162c0,0,0,-94,-71,-153c0,0,-71,-59,-190,-59Z"
id="f6_bn"
transform="scale(0.001,-0.001)"/>

<path d="M-214,863l-199,281c0,0,-70,92,-157,92c0,0,-69,0,-159,-58l-72,118c0,0,89,73,180,73c0,0,141,0,258,-170L-155,901l-59,-38Z"
id="f6_d4"
transform="scale(0.001,-0.001)"/>

<path d="M108,-222l-44,58c0,0,96,81,104,164L89,61c0,0,12,83,93,122c0,0,50,-15,79,-55c0,0,29,-39,29,-90c0,0,0,-69,-48,-142c0,0,-48,-72,-134,-118Z"
id="f6_k"
transform="scale(0.001,-0.001)"/>

<path d="M689,445V822H286l65,-58l8,-319ZM779,-49L689,8V328H370V180L296,150c0,0,-56,35,-120,104c0,0,-63,70,-89,131l41,60H238L223,822H0l-45,76l14,31H953l46,-76L985,822H750l66,-58V-39L779,-49Z"
id="f6_bz"
transform="scale(0.001,-0.001)"/>

<path d="M663,-49L573,8V445H299V280L226,251c0,0,-105,99,-162,238l63,72H573V822H0l-45,76l14,31H837l46,-76L869,822H634l66,-58V-39L663,-49Z"
id="f6_bt"
transform="scale(0.001,-0.001)"/>

<path d="M-91,1001c0,0,-27,10,-61,36c0,0,-33,26,-50,49c0,0,38,81,90,110c0,0,61,-23,107,-85c0,0,-28,-71,-86,-110ZM-214,863l-199,281c0,0,-70,92,-157,92c0,0,-69,0,-159,-58l-72,118c0,0,89,73,180,73c0,0,141,0,258,-170L-155,901l-59,-38Z"
id="f6_oz"
transform="scale(0.001,-0.001)"/>

<path d="M319,561c0,0,66,46,103,105c0,0,36,60,36,113c0,0,0,28,-9,48c0,0,-35,41,-88,41c0,0,-51,0,-89,-39c0,0,-38,-39,-38,-103c0,0,0,-95,85,-165ZM840,-49L750,8V342L362,31l-89,85L608,370c0,0,-121,15,-241,78L105,272L20,364L260,519c0,0,-144,118,-144,246c0,0,0,81,57,140c0,0,56,59,140,59c0,0,96,0,171,-79c0,0,75,-78,75,-168c0,0,0,-117,-130,-219c0,0,110,-40,257,-40l64,2V822H628l-46,76l14,31h418l46,-76l-13,-31H811l66,-58V-39L840,-49Z"
id="f6_ef"
transform="scale(0.001,-0.001)"/>

<path d="M915,-274L842,21L784,6c0,0,-37,-120,-114,-190c0,0,-77,-70,-178,-70c0,0,-96,0,-175,51c0,0,-79,51,-80,122c0,0,-119,32,-179,89C58,8,-1,67,-1,138c0,0,0,64,44,104c0,0,44,41,104,41c0,0,91,0,207,-123L315,110c0,0,-78,69,-122,84c0,0,-75,-23,-75,-92c0,0,0,-39,36,-72c0,0,35,-32,100,-46c0,0,35,69,122,89L497,24l-4,-40c0,0,-59,-6,-95,-37c0,0,-36,-32,-36,-68c0,0,0,-41,46,-63c0,0,67,3,141,62c0,0,74,59,102,137c0,0,-136,32,-237,135c0,0,-101,104,-101,223c0,0,0,113,84,184c0,0,84,71,222,72H764V822H0l-45,76l14,31H1074l46,-76l-14,-31H825l66,-58V504l-3,2l3,-3H648c0,0,-95,0,-154,-53c0,0,-59,-53,-59,-132c0,0,0,-49,28,-100c0,0,27,-50,82,-84c0,0,45,-15,97,-15c0,0,91,0,160,46L775,303l100,48L1013,188c0,0,-8,-28,-34,-66c0,0,-27,-38,-62,-64l136,-279L915,-274Z"
id="f6_ge"
transform="scale(0.001,-0.001)"/>

<path d="M827,-49L736,8V205c0,0,-84,-84,-209,-84c0,0,-130,0,-237,91c0,0,-108,92,-108,196c0,0,0,79,61,137C243,545,66,672,66,791c0,0,0,75,52,124c0,0,53,49,134,49c0,0,164,0,260,-237L451,694c0,0,-55,114,-119,163l-31,5c0,0,-44,0,-77,-32c0,0,-33,-31,-33,-78c0,0,0,-86,113,-165c0,0,60,27,133,27l67,-4l75,-89L564,490l-51,7H493c0,0,-90,0,-142,-43c0,0,-52,-43,-52,-104c0,0,0,-60,51,-109c0,0,33,-16,84,-16c0,0,89,0,177,47c0,0,89,47,125,137V822H567l-46,76l14,31h466l46,-76l-14,-31H798l65,-58V-39L827,-49Z"
id="f6_bs"
transform="scale(0.001,-0.001)"/>

<path d="M527,-71L52,414l34,92H277c0,0,12,32,12,72V822H0l-45,76l14,31H599l46,-76L631,822H350l66,-55V564c0,0,0,-96,-152,-248L610,34L611,8L527,-71Z"
id="f6_c1"
transform="scale(0.001,-0.001)"/>

<path d="M426,-68L339,5V953l37,11l87,-73V-57L426,-68Z"
id="f6_ng"
transform="scale(0.001,-0.001)"/>

<path d="M283,260c0,0,122,0,209,113V513c0,0,-90,51,-160,51c0,0,-80,0,-129,-50c0,0,-49,-50,-49,-118c0,0,0,-60,35,-110c0,0,45,-26,94,-26ZM582,-49L492,8V211c0,0,-63,-54,-141,-54c0,0,-113,0,-213,92c0,0,-100,92,-100,205c0,0,0,93,69,157c0,0,69,64,162,64c0,0,32,0,64,-9L492,590V822H0l-45,76l14,31H1108l45,-76l-13,-31H553l66,-58V524c0,0,91,89,192,89c0,0,98,0,171,-79c0,0,72,-79,72,-186c0,0,0,-178,-224,-330L736,124c0,0,219,153,219,269c0,0,0,44,-26,75c0,0,-26,32,-81,32c0,0,-109,0,-229,-155V-39L582,-49Z"
id="f6_b9"
transform="scale(0.001,-0.001)"/>

<path d="M397,351c0,0,87,0,142,49L228,768V438c0,0,47,-87,169,-87ZM585,466c0,0,18,47,18,105V822H280L585,466ZM506,-188c0,0,-141,0,-257,88c0,0,-116,89,-116,202c0,0,0,126,122,202c0,0,-154,116,-154,293V822H-2l-46,76l14,31H860l46,-76L892,822H675l55,-49V603c0,0,0,-261,-221,-337L382,223C382,223,252,171,252,63c0,0,0,-77,55,-123c0,0,44,-21,107,-21c0,0,86,0,171,40c0,0,86,40,135,105l91,-98c0,0,-52,-72,-135,-113c0,0,-83,-41,-170,-41Z"
id="f6_kf"
transform="scale(0.001,-0.001)"/>

<path d="M487,-7c0,0,-88,0,-185,46c0,0,-97,47,-163,130c0,0,-66,83,-66,185c0,0,0,109,80,177c0,0,79,68,234,68H504V822H0l-45,76l14,31H827l45,-76L859,822H565l66,-58V474l-3,1l3,-3H396c0,0,-100,0,-152,-47c0,0,-53,-48,-53,-119c0,0,0,-104,93,-178c0,0,60,-20,118,-20c0,0,81,0,156,36c0,0,76,35,123,99l92,-99C773,144,723,70,645,31C645,31,567,-7,487,-7Z"
id="f6_bk"
transform="scale(0.001,-0.001)"/>

<path d="M228,-49L138,8V822H0l-45,76l14,31H134c0,0,-91,92,-91,191c0,0,0,105,85,170c0,0,84,65,219,65c0,0,128,0,293,-76c0,0,165,-77,362,-263L958,966c0,0,-177,143,-303,210c0,0,-125,68,-244,68c0,0,-107,0,-175,-50c0,0,-68,-50,-68,-131c0,0,0,-61,49,-134H402l46,-76L434,822H199l65,-58V-39L228,-49Z"
id="f6_cu"
transform="scale(0.001,-0.001)"/>

<path d="M348,229c0,0,57,0,106,17L263,559c0,0,-95,-50,-95,-162c0,0,0,-75,52,-136c0,0,49,-32,128,-32Zm170,48c0,0,61,38,96,91V504c0,0,-131,80,-244,80l-35,-2L518,277ZM704,-49L614,8V193c0,0,-84,-65,-192,-65c0,0,-139,0,-255,98c0,0,-115,98,-115,226c0,0,0,106,77,175c0,0,77,70,189,70c0,0,38,0,75,-9L614,578V822H0l-45,76l14,31H878l46,-76L911,822H675l66,-58V-39L704,-49Z"
id="f6_bx"
transform="scale(0.001,-0.001)"/>

<path d="M0,1062c0,0,-26,11,-60,36c0,0,-34,26,-51,49c0,0,39,81,91,110c0,0,60,-23,106,-85c0,0,-28,-70,-86,-110Z"
id="f6_dj"
transform="scale(0.001,-0.001)"/>

<path d="M347,-57C347,-57,66,211,66,394c0,0,0,98,74,164c0,0,74,65,225,65H616V822H0l-45,76l14,31H880l46,-76L912,822H677l66,-58V-39L706,-49L616,8V500H428c0,0,-239,0,-239,-161c0,0,0,-136,214,-343L347,-57Z"
id="f6_bp"
transform="scale(0.001,-0.001)"/>

<path d="M959,-49L869,8V367c0,0,-32,-13,-64,-13c0,0,-50,0,-110,25c0,0,23,-52,23,-109c0,0,0,-103,-70,-170c0,0,-70,-66,-182,-66c0,0,-110,0,-222,82c0,0,-111,83,-213,293l68,42c0,0,72,-155,152,-231c0,0,81,-76,178,-76c0,0,83,0,131,49c0,0,48,48,48,117c0,0,0,54,-30,100c0,0,-31,47,-91,65L325,391L257,512c0,0,68,53,156,56c0,0,140,72,140,179c0,0,0,69,-52,99c0,0,-4,1,-11,1c-19,0,-66,-4,-123,-30c0,0,-78,-35,-142,-96L150,823c0,0,119,117,253,117c0,0,98,0,175,-71c0,0,77,-70,77,-159c0,0,0,-103,-94,-180c0,0,39,-23,73,-56c0,0,52,-22,109,-22c0,0,77,0,126,38V822H727l-46,76l14,31h439l45,-76l-13,-31H930l66,-58V-39L959,-49Z"
id="f6_al"
transform="scale(0.001,-0.001)"/>

<path d="M516,-207L290,58c0,0,-44,5,-99,32c0,0,-55,28,-75,51l58,140l51,12L312,165l49,-3c0,0,100,0,168,47c0,0,67,48,67,118c0,0,0,53,-44,98c0,0,-43,44,-129,65L232,413L165,536c0,0,78,51,176,51c6,0,11,0,17,0c0,0,161,50,161,168c0,0,0,79,-65,114l-20,2c0,0,-69,0,-155,-37c0,0,-86,-36,-151,-93L53,848c0,0,51,49,130,82c0,0,80,34,159,34c0,0,118,0,203,-75c0,0,84,-75,84,-172c0,0,0,-110,-116,-181c0,0,97,-46,148,-112c0,0,51,-66,51,-137c0,0,0,-99,-88,-165c0,0,-88,-65,-237,-65L578,-132l1,-26l-63,-49Z"
id="f6_n9"
transform="scale(0.001,-0.001)"/>

<path d="M225,542c0,0,68,40,110,97c0,0,42,56,42,108c0,0,0,44,-28,79c0,0,-28,34,-79,34c0,0,-53,0,-91,-42c0,0,-38,-42,-38,-103c0,0,0,-76,84,-173ZM628,-54L510,5c0,0,29,33,29,67c0,0,0,44,-52,96L174,483c0,0,-73,73,-114,137c0,0,-42,63,-42,136c0,0,0,87,60,148c0,0,60,60,144,60c0,0,99,0,180,-89c0,0,81,-90,81,-187c0,0,0,-133,-167,-237L559,217c0,0,110,-105,110,-180c0,0,0,-41,-41,-91Z"
id="f6_nf"
transform="scale(0.001,-0.001)"/>

<path d="M228,-49L138,8V822H0l-45,76l14,31H134c0,0,-91,93,-91,200c0,0,0,109,92,174c0,0,93,66,253,66c0,0,186,0,398,-89c0,0,212,-90,430,-264l-49,-47c0,0,-424,285,-727,285c0,0,-125,0,-201,-49c0,0,-76,-48,-76,-137c0,0,0,-67,52,-139H402l46,-76L434,822H199l65,-58V-39L228,-49Z"
id="f6_nu"
transform="scale(0.001,-0.001)"/>

<path d="M845,-49L755,8V513H497c0,0,61,-45,93,-110c0,0,33,-64,33,-128c0,0,0,-90,-58,-144c0,0,-59,-53,-143,-53c0,0,-133,0,-234,139C188,217,87,356,20,596l76,24c0,0,60,-201,127,-306c0,0,67,-105,160,-105c0,0,57,0,91,36c0,0,33,36,33,91c0,0,0,84,-73,159L295,558v71H755V822H0l-45,76l14,31H1019l46,-76l-14,-31H816l66,-58V-39L845,-49Z"
id="f6_bg"
transform="scale(0.001,-0.001)"/>

<path d="M228,-49L138,8V822H0l-45,76l14,31H134c0,0,-88,93,-88,197c0,0,0,115,104,182c0,0,105,67,290,67c0,0,218,0,481,-92c0,0,263,-93,517,-265l-46,-49c0,0,-237,134,-470,213c0,0,-233,78,-427,78c0,0,-150,0,-239,-50c0,0,-89,-50,-89,-145c0,0,0,-64,48,-136H402l46,-76L434,822H199l65,-58V-39L228,-49Z"
id="f6_nw"
transform="scale(0.001,-0.001)"/>

<path d="M180,220c0,0,-105,99,-162,238l63,72H556l40,-85L574,414H254V249L180,220ZM0,822l-45,76l14,31H471l45,-76L503,822Z"
id="f6_li"
transform="scale(0.001,-0.001)"/>

<path d="M727,-49L637,8V822H278l66,-58V226L270,196c0,0,-64,36,-122,98c0,0,-58,62,-79,122l43,59H217V822H0l-45,76l14,31H901l46,-76L933,822H698l66,-58V-39L727,-49Z"
id="f6_bb"
transform="scale(0.001,-0.001)"/>

<path d="M-234,-413c0,0,-210,0,-488,322l54,49c0,0,119,-128,209,-193c0,0,90,-65,177,-65c0,0,72,0,113,40c0,0,42,39,42,91c0,0,0,75,-78,106L-323,-181l-90,98c0,0,63,95,167,95c0,0,90,0,155,-69c0,0,66,-70,66,-164c0,0,0,-85,-60,-139c0,0,-61,-53,-149,-53Z"
id="f6_cw"
transform="scale(0.001,-0.001)"/>

<path d="M228,-49L138,8V822H0l-45,76l14,31H134c0,0,-90,95,-90,199c0,0,0,111,99,177c0,0,98,67,271,67c0,0,202,0,439,-91c0,0,238,-91,475,-263l-48,-49c0,0,-469,288,-812,288c0,0,-138,0,-220,-49c0,0,-83,-50,-83,-142c0,0,0,-64,50,-137H402l46,-76L434,822H199l65,-58V-39L228,-49Z"
id="f6_nv"
transform="scale(0.001,-0.001)"/>

<path d="M513,460c0,0,61,81,61,179c0,0,0,87,-45,143c0,0,-45,57,-116,57c0,0,-63,0,-102,-43c0,0,-39,-43,-39,-110c0,0,0,-90,68,-151c0,0,68,-61,173,-75ZM581,-83L278,167l-41,-4c0,0,-99,0,-130,37l47,168l51,12l78,-79c0,0,110,40,183,105c0,0,-141,23,-231,107c0,0,-90,84,-90,193c0,0,0,69,37,116H0l-45,76l14,31H1134l45,-76l-13,-31H930l66,-58V-39L959,-49L869,8V822H588c0,0,51,-44,75,-109c0,0,25,-64,25,-122c0,0,0,-105,-81,-213c0,0,-80,-108,-240,-176L658,18l2,-25L581,-83Z"
id="f6_c8"
transform="scale(0.001,-0.001)"/>

<path d="M382,322c0,0,86,0,154,57L231,762V408c0,0,46,-86,151,-86ZM438,206c0,0,-119,0,-226,109c0,0,-108,108,-108,243V822H0l-45,76l14,31H558l45,-76L590,822H280L669,338c0,0,-44,-66,-108,-99c0,0,-63,-33,-123,-33Z"
id="f6_m0"
transform="scale(0.001,-0.001)"/>

<path d="M374,248c0,0,77,0,149,36c0,0,71,37,110,107V822H284c0,0,138,-96,138,-208c0,0,0,-151,-228,-192c0,0,29,-104,89,-158c0,0,41,-16,91,-16ZM723,-49L633,8V200c0,0,-69,-56,-170,-56c0,0,-122,0,-240,94c0,0,-118,94,-179,237l20,55c0,0,133,17,187,44c0,0,55,28,55,84c0,0,0,45,-30,81c0,0,-30,36,-99,83H0l-45,76l14,31H897l46,-76L929,822H694l65,-58V-39L723,-49Z"
id="f6_c0"
transform="scale(0.001,-0.001)"/>

<path d="M342,324c0,0,45,0,75,34c0,0,31,33,31,100V822H165l66,-58V390c0,0,32,-66,111,-66ZM853,-49L762,8V822H509l65,-58V455c0,0,0,-134,-51,-185c0,0,-52,-52,-127,-52c0,0,-98,0,-195,99c0,0,-97,99,-97,209V822H0l-45,76l14,31H1027l46,-76l-14,-31H823l66,-58V-39L853,-49Z"
id="f6_bo"
transform="scale(0.001,-0.001)"/>

<path d="M396,318c0,0,123,0,203,108V822H180l66,-58V408c0,0,49,-90,150,-90ZM176,-66L79,9L379,228c0,0,-106,23,-181,119c0,0,-76,96,-79,198V822H0l-45,76l14,31H863l46,-76L895,822H660l66,-58V-39L689,-49L599,8V269L176,-66Z"
id="f6_e6"
transform="scale(0.001,-0.001)"/>

<path d="M325,240c0,0,77,0,154,35c0,0,77,35,120,99V500c0,0,-118,73,-222,73c0,0,-97,0,-151,-54c0,0,-53,-53,-53,-128c0,0,0,-73,49,-125c0,0,38,-26,103,-26ZM689,-49L599,8V199c0,0,-73,-65,-179,-65c0,0,-134,0,-252,96c0,0,-118,95,-118,221c0,0,0,102,78,171c0,0,78,69,190,69c0,0,38,0,75,-10L599,582V822H0l-45,76l14,31H863l46,-76L895,822H660l66,-58V-39L689,-49Z"
id="f6_c7"
transform="scale(0.001,-0.001)"/>

<path d="M0,822l-45,76l14,31H38L84,853L70,822Z"
id="f6_nl"
transform="scale(0.001,-0.001)"/>

<path d="M567,822l-46,76l14,31H726l46,-76L758,822ZM518,122c0,0,-115,0,-225,93c0,0,-111,94,-111,193c0,0,0,79,61,137C243,545,66,672,66,791c0,0,0,75,52,124c0,0,53,49,134,49c0,0,164,0,260,-237L451,694c0,0,-55,114,-119,163l-31,5c0,0,-44,0,-77,-32c0,0,-33,-31,-33,-78c0,0,0,-86,113,-165c0,0,60,27,133,27l67,-4l75,-89L564,490l-51,7H493c0,0,-90,0,-142,-43c0,0,-52,-43,-52,-104c0,0,0,-60,51,-109c0,0,37,-13,82,-13c0,0,104,0,197,59c0,0,94,60,127,148l95,-87c0,0,-43,-94,-140,-160c0,0,-97,-66,-193,-66Z"
id="f6_lh"
transform="scale(0.001,-0.001)"/>

<path d="M397,102c0,0,52,0,85,36c0,0,33,35,33,87c0,0,0,88,-110,221C405,446,296,307,296,217c0,0,0,-61,39,-101c0,0,35,-14,62,-14ZM451,3C451,3,351,3,268,88c0,0,-83,85,-83,182c0,0,0,107,131,274c0,0,-146,153,-346,324l61,69L81,891L373,610c0,0,87,99,318,330l82,-92C773,848,550,623,461,516c0,0,173,-188,173,-322c0,0,0,-87,-53,-139C581,55,527,3,451,3Z"
id="f6_na"
transform="scale(0.001,-0.001)"/>

<path d="M335,269c0,0,85,0,138,59c0,0,53,60,53,143c0,0,0,87,-58,155c0,0,-54,26,-106,26c0,0,-79,0,-134,-60c0,0,-55,-60,-55,-147c0,0,0,-86,58,-155c0,0,53,-21,104,-21ZM396,163c0,0,-123,0,-229,105C167,268,61,373,61,506c0,0,0,107,74,179c0,0,74,73,174,73c0,0,122,0,223,-107c0,0,101,-107,101,-242c0,0,0,-105,-70,-175c0,0,-70,-71,-167,-71Z"
id="f6_n6"
transform="scale(0.001,-0.001)"/>

<path d="M725,307c0,0,-95,0,-218,78c0,0,-123,78,-188,78c0,0,-54,0,-95,-34c0,0,-41,-34,-73,-100L93,362c0,0,38,88,101,146c0,0,63,59,148,59c0,0,90,0,214,-78c0,0,124,-79,188,-79c0,0,63,0,106,34c0,0,42,33,85,104l60,-40c0,0,-32,-66,-101,-134c0,0,-70,-67,-169,-67Z"
id="f7_4r"
transform="scale(0.001,-0.001)"/>

<path d="M435,92c0,0,85,0,146,69c0,0,60,68,60,186c0,0,0,114,-60,179c0,0,-60,66,-152,66c0,0,-90,0,-154,-66c0,0,-63,-65,-63,-171c0,0,0,-70,30,-133c0,0,29,-64,82,-97c0,0,52,-33,111,-33Zm2,-110c0,0,-168,0,-273,123C164,105,58,228,58,512c0,0,0,317,117,461c0,0,102,125,275,125c0,0,129,0,211,-72c0,0,82,-72,99,-200L626,815c0,0,-18,79,-51,115c0,0,-54,58,-134,58c0,0,-64,0,-112,-36c0,0,-63,-46,-99,-135c0,0,-37,-89,-38,-253c0,0,48,74,118,110c0,0,70,36,147,36c0,0,134,0,228,-99c0,0,94,-99,94,-256c0,0,0,-103,-44,-191C735,164,691,75,613,28c0,0,-77,-46,-176,-46Z"
id="f8_q"
transform="scale(0.001,-0.001)"/>


</defs>
</svg>