<?xml version="1.0" encoding="UTF-8" standalone="no"?>
<!DOCTYPE svg PUBLIC "-//W3C//DTD SVG 1.1//EN"
"http://www.w3.org/Graphics/SVG/1.1/DTD/svg11.dtd">
<svg viewBox="0 0 641 910" version="1.1" xmlns="http://www.w3.org/2000/svg" xmlns:xlink="http://www.w3.org/1999/xlink">
<defs>
<clipPath id="c0_122"><path d="M0,909.8V0H641.7V909.8Z"/></clipPath>
<clipPath id="c1_122"><path d="M0,908.6V0H641.7V908.6Z"/></clipPath>
<style type="text/css"><![CDATA[
.g0_122{
fill: #FFFFFF;
}
.g1_122{
}
]]></style>
</defs>
<path d="M0,0H641.7V909.8H0V0Z" class="g0_122"/>
<path d="M0,0H641.7V909.8H0V0Z" class="g0_122"/>
<g clip-path="url(#c0_122)">
<path d="M0,-104625.9H641.7V1819.6H0V-104625.9Z" class="g0_122"/>
</g>
<path d="M0,0H641.7V908.6H0V0Z" class="g0_122"/>
<path d="M19.5,60.7H602.7v1.2H19.5V60.7Z" class="g1_122"/>
<g clip-path="url(#c1_122)">
<path d="M0,61.9H641.7V909.8H0V61.9Z" class="g0_122"/>
<g fill="#000000" >
<use xlink:href="#f5_c7" transform="matrix(14,0,0,14,286.8,96.3)" />
<use xlink:href="#f5_nl" transform="matrix(14,0,0,14,300.4,96.3)" />
<use xlink:href="#f5_bs" transform="matrix(14,0,0,14,300.4,96.3)" />
<use xlink:href="#f5_ct" transform="matrix(14,0,0,14,315.6,96.3)" />
<use xlink:href="#f5_ao" transform="matrix(14,0,0,14,322.1,96.3)" />
<use xlink:href="#f6_c1" transform="matrix(14,0,0,14,143.5,129.5)" />
<use xlink:href="#f6_bg" transform="matrix(14,0,0,14,151.9,129.5)" />
<use xlink:href="#f6_ct" transform="matrix(14,0,0,14,166.2,129.5)" />
<use xlink:href="#f6_am" transform="matrix(14,0,0,14,177.5,129.5)" />
<use xlink:href="#f6_bv" transform="matrix(14,0,0,14,198.9,129.5)" />
<use xlink:href="#f6_d8" transform="matrix(14,0,0,14,210.8,129.5)" />
<use xlink:href="#f6_cc" transform="matrix(14,0,0,14,222.1,129.5)" />
<use xlink:href="#f6_c7" transform="matrix(14,0,0,14,233.7,129.5)" />
<use xlink:href="#f6_d4" transform="matrix(14,0,0,14,245.9,129.5)" />
<use xlink:href="#f6_br" transform="matrix(14,0,0,14,251.4,129.5)" />
<use xlink:href="#f6_ct" transform="matrix(14,0,0,14,263.1,129.5)" />
<use xlink:href="#f6_br" transform="matrix(14,0,0,14,268.7,129.5)" />
<use xlink:href="#f6_ct" transform="matrix(14,0,0,14,280.4,129.5)" />
<use xlink:href="#f6_k" transform="matrix(14,0,0,14,286,129.5)" />
<use xlink:href="#f6_al" transform="matrix(14,0,0,14,296.9,129.5)" />
<use xlink:href="#f6_bz" transform="matrix(14,0,0,14,312.8,129.5)" />
<use xlink:href="#f6_ct" transform="matrix(14,0,0,14,326.1,129.5)" />
<use xlink:href="#f6_c1" transform="matrix(14,0,0,14,331.7,129.5)" />
<use xlink:href="#f6_cv" transform="matrix(14,0,0,14,340.1,129.5)" />
<use xlink:href="#f6_c7" transform="matrix(14,0,0,14,351.4,129.5)" />
<use xlink:href="#f6_ct" transform="matrix(14,0,0,14,363.5,129.5)" />
<use xlink:href="#f6_bp" transform="matrix(14,0,0,14,369.1,129.5)" />
<use xlink:href="#f6_bq" transform="matrix(14,0,0,14,387.1,129.5)" />
<use xlink:href="#f6_ao" transform="matrix(14,0,0,14,400.3,129.5)" />
<use xlink:href="#f6_bv" transform="matrix(14,0,0,14,417.4,129.5)" />
<use xlink:href="#f6_cx" transform="matrix(14,0,0,14,429.3,129.4)" />
<use xlink:href="#f6_c1" transform="matrix(14,0,0,14,429.3,129.5)" />
<use xlink:href="#f6_cv" transform="matrix(14,0,0,14,437.7,129.5)" />
<use xlink:href="#f6_g" transform="matrix(14,0,0,14,449,129.5)" />
<use xlink:href="#f6_q" transform="matrix(14,0,0,14,454.8,129.5)" />
<use xlink:href="#f6_h" transform="matrix(14,0,0,14,466.5,129.5)" />
<use xlink:href="#f6_k" transform="matrix(14,0,0,14,472.4,129.5)" />
<use xlink:href="#f6_al" transform="matrix(14,0,0,14,118.3,162.7)" />
<use xlink:href="#f6_nl" transform="matrix(14,0,0,14,134.2,162.7)" />
<use xlink:href="#f6_bs" transform="matrix(14,0,0,14,134.2,162.7)" />
<use xlink:href="#f6_cx" transform="matrix(14,0,0,14,148.2,162.7)" />
<use xlink:href="#f6_c1" transform="matrix(14,0,0,14,148.2,162.7)" />
<use xlink:href="#f6_cv" transform="matrix(14,0,0,14,156.6,162.7)" />
<use xlink:href="#f6_c7" transform="matrix(14,0,0,14,167.9,162.7)" />
<use xlink:href="#f6_ct" transform="matrix(14,0,0,14,179.9,162.7)" />
<use xlink:href="#f6_bp" transform="matrix(14,0,0,14,185.6,162.7)" />
<use xlink:href="#f6_bf" transform="matrix(14,0,0,14,203.5,162.7)" />
<use xlink:href="#f6_d4" transform="matrix(14,0,0,14,217.9,162.7)" />
<use xlink:href="#f6_bp" transform="matrix(14,0,0,14,224.9,162.7)" />
<use xlink:href="#f6_d8" transform="matrix(14,0,0,14,237.2,162.7)" />
<use xlink:href="#f6_c0" transform="matrix(14,0,0,14,242.8,162.7)" />
<use xlink:href="#f6_d4" transform="matrix(14,0,0,14,255.5,162.7)" />
<use xlink:href="#f6_k" transform="matrix(14,0,0,14,255.4,162.7)" />
<use xlink:href="#f6_am" transform="matrix(14,0,0,14,266.3,162.7)" />
<use xlink:href="#f6_bz" transform="matrix(14,0,0,14,293.4,162.7)" />
<use xlink:href="#f6_cw" transform="matrix(14,0,0,14,307.3,162.6)" />
<use xlink:href="#f6_c3" transform="matrix(14,0,0,14,306.8,162.7)" />
<use xlink:href="#f6_ct" transform="matrix(14,0,0,14,321.5,162.7)" />
<use xlink:href="#f6_b9" transform="matrix(14,0,0,14,327.1,162.7)" />
<use xlink:href="#f6_ct" transform="matrix(14,0,0,14,342.6,162.7)" />
<use xlink:href="#f6_bp" transform="matrix(14,0,0,14,348.2,162.7)" />
<use xlink:href="#f6_bq" transform="matrix(14,0,0,14,366.2,162.7)" />
<use xlink:href="#f6_ao" transform="matrix(14,0,0,14,379.4,162.7)" />
<use xlink:href="#f6_bv" transform="matrix(14,0,0,14,396.5,162.7)" />
<use xlink:href="#f6_cx" transform="matrix(14,0,0,14,408.4,162.6)" />
<use xlink:href="#f6_c1" transform="matrix(14,0,0,14,408.4,162.7)" />
<use xlink:href="#f6_cv" transform="matrix(14,0,0,14,416.8,162.7)" />
<use xlink:href="#f6_k" transform="matrix(14,0,0,14,422.4,162.7)" />
<use xlink:href="#f6_al" transform="matrix(14,0,0,14,433.3,162.7)" />
<use xlink:href="#f6_bz" transform="matrix(14,0,0,14,449.2,162.7)" />
<use xlink:href="#f6_ct" transform="matrix(14,0,0,14,462.5,162.7)" />
<use xlink:href="#f6_c1" transform="matrix(14,0,0,14,468.1,162.7)" />
<use xlink:href="#f6_cv" transform="matrix(14,0,0,14,476.5,162.7)" />
<use xlink:href="#f6_8l" transform="matrix(14,0,0,14,482.1,162.7)" />
<use xlink:href="#f6_b9" transform="matrix(14,0,0,14,151.6,221.1)" />
<use xlink:href="#f6_c0" transform="matrix(14,0,0,14,167.1,221.1)" />
<use xlink:href="#f6_ct" transform="matrix(14,0,0,14,179.6,221.1)" />
<use xlink:href="#f6_dr" transform="matrix(14,0,0,14,185.8,221.1)" />
<use xlink:href="#f6_b9" transform="matrix(14,0,0,14,190.9,221.1)" />
<use xlink:href="#f6_ct" transform="matrix(14,0,0,14,206.4,221.1)" />
<use xlink:href="#f6_bz" transform="matrix(14,0,0,14,212,221.1)" />
<use xlink:href="#f6_bo" transform="matrix(14,0,0,14,225.3,221.1)" />
<use xlink:href="#f6_bp" transform="matrix(14,0,0,14,245.4,221.1)" />
<use xlink:href="#f6_bz" transform="matrix(14,0,0,14,257.7,221.1)" />
<use xlink:href="#f6_d4" transform="matrix(14,0,0,14,271.2,221.1)" />
<use xlink:href="#f6_b1" transform="matrix(14,0,0,14,276.7,221.1)" />
<use xlink:href="#f6_c7" transform="matrix(14,0,0,14,298.2,221.1)" />
<use xlink:href="#f6_ct" transform="matrix(14,0,0,14,310.3,221.1)" />
<use xlink:href="#f6_k" transform="matrix(14,0,0,14,315.9,221.1)" />
<use xlink:href="#f6_al" transform="matrix(14,0,0,14,326.8,221.1)" />
<use xlink:href="#f6_bz" transform="matrix(14,0,0,14,342.6,221.1)" />
<use xlink:href="#f6_d4" transform="matrix(14,0,0,14,356.1,221.1)" />
<use xlink:href="#f6_bp" transform="matrix(14,0,0,14,361.6,221.1)" />
<use xlink:href="#f6_ct" transform="matrix(14,0,0,14,373.9,221.1)" />
<use xlink:href="#f6_c1" transform="matrix(14,0,0,14,379.6,221.1)" />
<use xlink:href="#f6_ct" transform="matrix(14,0,0,14,387.9,221.1)" />
<use xlink:href="#f6_bx" transform="matrix(14,0,0,14,399.2,221.1)" />
<use xlink:href="#f6_bt" transform="matrix(14,0,0,14,411.5,221.1)" />
<use xlink:href="#f6_cv" transform="matrix(14,0,0,14,423.2,221.1)" />
<use xlink:href="#f6_bx" transform="matrix(14,0,0,14,434.5,221.1)" />
<use xlink:href="#f6_d4" transform="matrix(14,0,0,14,446.9,221.1)" />
<use xlink:href="#f6_bl" transform="matrix(14,0,0,14,446.8,221.1)" />
<use xlink:href="#f6_ct" transform="matrix(14,0,0,14,459.2,221.1)" />
<use xlink:href="#f6_k" transform="matrix(14,0,0,14,464.8,221.1)" />
<use xlink:href="#f6_bp" transform="matrix(14,0,0,14,156.1,254.4)" />
<use xlink:href="#f6_bz" transform="matrix(14,0,0,14,168.5,254.4)" />
<use xlink:href="#f6_ct" transform="matrix(14,0,0,14,181.8,254.4)" />
<use xlink:href="#f6_c1" transform="matrix(14,0,0,14,187.4,254.4)" />
<use xlink:href="#f6_cv" transform="matrix(14,0,0,14,195.8,254.4)" />
<use xlink:href="#f6_e6" transform="matrix(14,0,0,14,207.1,254.4)" />
<use xlink:href="#f6_cv" transform="matrix(14,0,0,14,219.2,254.4)" />
<use xlink:href="#f6_bp" transform="matrix(14,0,0,14,224.8,254.4)" />
<use xlink:href="#f6_bz" transform="matrix(14,0,0,14,237.1,254.4)" />
<use xlink:href="#f6_ct" transform="matrix(14,0,0,14,250.4,254.4)" />
<use xlink:href="#f6_dj" transform="matrix(14,0,0,14,250.6,254.8)" />
<use xlink:href="#f6_bc" transform="matrix(14,0,0,14,261.7,254.4)" />
<use xlink:href="#f6_ct" transform="matrix(14,0,0,14,275.6,254.4)" />
<use xlink:href="#f6_c0" transform="matrix(14,0,0,14,281.2,254.4)" />
<use xlink:href="#f6_c3" transform="matrix(14,0,0,14,293.8,254.4)" />
<use xlink:href="#f6_k" transform="matrix(14,0,0,14,308.5,254.4)" />
<use xlink:href="#f6_al" transform="matrix(14,0,0,14,319.4,254.4)" />
<use xlink:href="#f6_bz" transform="matrix(14,0,0,14,335.2,254.4)" />
<use xlink:href="#f6_d4" transform="matrix(14,0,0,14,348.7,254.4)" />
<use xlink:href="#f6_bc" transform="matrix(14,0,0,14,354.2,254.4)" />
<use xlink:href="#f6_d4" transform="matrix(14,0,0,14,368.3,254.4)" />
<use xlink:href="#f6_c3" transform="matrix(14,0,0,14,368.1,254.4)" />
<use xlink:href="#f6_ct" transform="matrix(14,0,0,14,382.8,254.4)" />
<use xlink:href="#f6_bx" transform="matrix(14,0,0,14,394.1,254.4)" />
<use xlink:href="#f6_bt" transform="matrix(14,0,0,14,406.4,254.4)" />
<use xlink:href="#f6_cv" transform="matrix(14,0,0,14,418.1,254.4)" />
<use xlink:href="#f6_bx" transform="matrix(14,0,0,14,429.4,254.4)" />
<use xlink:href="#f6_d4" transform="matrix(14,0,0,14,441.8,254.4)" />
<use xlink:href="#f6_bl" transform="matrix(14,0,0,14,441.7,254.4)" />
<use xlink:href="#f6_ct" transform="matrix(14,0,0,14,454.1,254.4)" />
<use xlink:href="#f6_k" transform="matrix(14,0,0,14,459.7,254.4)" />
<use xlink:href="#f6_bp" transform="matrix(14,0,0,14,97.7,287.6)" />
<use xlink:href="#f6_bz" transform="matrix(14,0,0,14,110,287.6)" />
<use xlink:href="#f6_d4" transform="matrix(14,0,0,14,123.5,287.6)" />
<use xlink:href="#f6_am" transform="matrix(14,0,0,14,129,287.6)" />
<use xlink:href="#f6_nl" transform="matrix(14,0,0,14,150.5,287.6)" />
<use xlink:href="#f6_bs" transform="matrix(14,0,0,14,150.5,287.6)" />
<use xlink:href="#f6_ct" transform="matrix(14,0,0,14,164.5,287.6)" />
<use xlink:href="#f6_c1" transform="matrix(14,0,0,14,170.1,287.6)" />
<use xlink:href="#f6_bq" transform="matrix(14,0,0,14,184.2,287.6)" />
<use xlink:href="#f6_ao" transform="matrix(14,0,0,14,197.4,287.6)" />
<use xlink:href="#f6_bx" transform="matrix(14,0,0,14,214.5,287.6)" />
<use xlink:href="#f6_d4" transform="matrix(14,0,0,14,226.9,287.6)" />
<use xlink:href="#f6_bl" transform="matrix(14,0,0,14,226.8,287.6)" />
<use xlink:href="#f6_ct" transform="matrix(14,0,0,14,239.2,287.6)" />
<use xlink:href="#f6_k" transform="matrix(14,0,0,14,244.8,287.6)" />
<use xlink:href="#f6_al" transform="matrix(14,0,0,14,255.7,287.6)" />
<use xlink:href="#f6_bz" transform="matrix(14,0,0,14,271.5,287.6)" />
<use xlink:href="#f6_d4" transform="matrix(14,0,0,14,285,287.6)" />
<use xlink:href="#f6_c3" transform="matrix(14,0,0,14,290.5,287.6)" />
<use xlink:href="#f6_ct" transform="matrix(14,0,0,14,305.2,287.6)" />
<use xlink:href="#f6_be" transform="matrix(14,0,0,14,310.9,287.6)" />
<use xlink:href="#f6_ct" transform="matrix(14,0,0,14,324.9,287.6)" />
<use xlink:href="#f6_c1" transform="matrix(14,0,0,14,330.5,287.6)" />
<use xlink:href="#f6_bq" transform="matrix(14,0,0,14,344.5,287.6)" />
<use xlink:href="#f6_ao" transform="matrix(14,0,0,14,357.7,287.6)" />
<use xlink:href="#f6_bx" transform="matrix(14,0,0,14,374.9,287.6)" />
<use xlink:href="#f6_d4" transform="matrix(14,0,0,14,387.3,287.6)" />
<use xlink:href="#f6_bl" transform="matrix(14,0,0,14,387.2,287.6)" />
<use xlink:href="#f6_ct" transform="matrix(14,0,0,14,399.5,287.6)" />
<use xlink:href="#f6_pc" transform="matrix(14,0,0,14,405.1,287.6)" />
<use xlink:href="#f6_pc" transform="matrix(14,0,0,14,409.4,287.6)" />
<use xlink:href="#f6_pc" transform="matrix(14,0,0,14,413.7,287.6)" />
<use xlink:href="#f6_al" transform="matrix(14,0,0,14,418,287.6)" />
<use xlink:href="#f6_bz" transform="matrix(14,0,0,14,433.8,287.6)" />
<use xlink:href="#f6_ct" transform="matrix(14,0,0,14,447.2,287.6)" />
<use xlink:href="#f6_c1" transform="matrix(14,0,0,14,452.8,287.6)" />
<use xlink:href="#f6_cv" transform="matrix(14,0,0,14,461.2,287.6)" />
<use xlink:href="#f6_c7" transform="matrix(14,0,0,14,472.5,287.6)" />
<use xlink:href="#f6_ct" transform="matrix(14,0,0,14,484.5,287.6)" />
<use xlink:href="#f6_bp" transform="matrix(14,0,0,14,490.2,287.6)" />
<use xlink:href="#f6_pc" transform="matrix(14,0,0,14,502.5,287.6)" />
<use xlink:href="#f6_pc" transform="matrix(14,0,0,14,506.7,287.6)" />
<use xlink:href="#f6_pc" transform="matrix(14,0,0,14,511,287.6)" />
<use xlink:href="#f6_p" transform="matrix(14,0,0,14,515.3,287.6)" />
<use xlink:href="#f6_bp" transform="matrix(14,0,0,14,143.5,346)" />
<use xlink:href="#f6_bz" transform="matrix(14,0,0,14,155.8,346)" />
<use xlink:href="#f6_d4" transform="matrix(14,0,0,14,169.3,346)" />
<use xlink:href="#f6_cb" transform="matrix(14,0,0,14,174.9,346)" />
<use xlink:href="#f6_c1" transform="matrix(14,0,0,14,189.7,346)" />
<use xlink:href="#f6_cv" transform="matrix(14,0,0,14,198.1,346)" />
<use xlink:href="#f6_bp" transform="matrix(14,0,0,14,203.7,346)" />
<use xlink:href="#f6_ct" transform="matrix(14,0,0,14,216,346)" />
<use xlink:href="#f6_bp" transform="matrix(14,0,0,14,227.3,346)" />
<use xlink:href="#f6_bo" transform="matrix(14,0,0,14,239.6,346)" />
<use xlink:href="#f6_cv" transform="matrix(14,0,0,14,254,346)" />
<use xlink:href="#f6_c3" transform="matrix(14,0,0,14,265.3,346)" />
<use xlink:href="#f6_cc" transform="matrix(14,0,0,14,280,346)" />
<use xlink:href="#f6_d4" transform="matrix(14,0,0,14,292,346)" />
<use xlink:href="#f6_c1" transform="matrix(14,0,0,14,291.6,346)" />
<use xlink:href="#f6_d8" transform="matrix(14,0,0,14,300,346)" />
<use xlink:href="#f6_k" transform="matrix(14,0,0,14,305.6,346)" />
<use xlink:href="#f6_bp" transform="matrix(14,0,0,14,316.5,346)" />
<use xlink:href="#f6_bz" transform="matrix(14,0,0,14,328.8,346)" />
<use xlink:href="#f6_d4" transform="matrix(14,0,0,14,342.3,346)" />
<use xlink:href="#f6_cb" transform="matrix(14,0,0,14,347.8,346)" />
<use xlink:href="#f6_ct" transform="matrix(14,0,0,14,362.7,346)" />
<use xlink:href="#f6_bb" transform="matrix(14,0,0,14,368.3,346)" />
<use xlink:href="#f6_c1" transform="matrix(14,0,0,14,380.9,346)" />
<use xlink:href="#f6_bc" transform="matrix(14,0,0,14,395,346)" />
<use xlink:href="#f6_bo" transform="matrix(14,0,0,14,408.9,346)" />
<use xlink:href="#f6_d8" transform="matrix(14,0,0,14,423.2,346)" />
<use xlink:href="#f6_bb" transform="matrix(14,0,0,14,434.5,346)" />
<use xlink:href="#f6_cc" transform="matrix(14,0,0,14,447.1,346)" />
<use xlink:href="#f6_d4" transform="matrix(14,0,0,14,459.1,346)" />
<use xlink:href="#f6_c1" transform="matrix(14,0,0,14,458.7,346)" />
<use xlink:href="#f6_d8" transform="matrix(14,0,0,14,467.1,346)" />
<use xlink:href="#f6_k" transform="matrix(14,0,0,14,472.7,346)" />
<use xlink:href="#f6_bp" transform="matrix(14,0,0,14,137.8,379.3)" />
<use xlink:href="#f6_bz" transform="matrix(14,0,0,14,150.1,379.3)" />
<use xlink:href="#f6_ct" transform="matrix(14,0,0,14,163.5,379.3)" />
<use xlink:href="#f6_c1" transform="matrix(14,0,0,14,169.1,379.3)" />
<use xlink:href="#f6_ct" transform="matrix(14,0,0,14,177.5,379.3)" />
<use xlink:href="#f6_ki" transform="matrix(14,0,0,14,188.7,379.3)" />
<use xlink:href="#f6_cv" transform="matrix(14,0,0,14,210.7,379.3)" />
<use xlink:href="#f6_bp" transform="matrix(14,0,0,14,216.3,379.3)" />
<use xlink:href="#f6_bt" transform="matrix(14,0,0,14,234.3,379.3)" />
<use xlink:href="#f6_ct" transform="matrix(14,0,0,14,246,379.3)" />
<use xlink:href="#f6_bv" transform="matrix(14,0,0,14,257.3,379.3)" />
<use xlink:href="#f6_cw" transform="matrix(14,0,0,14,269.7,379.2)" />
<use xlink:href="#f6_m0" transform="matrix(14,0,0,14,269.2,379.3)" />
<use xlink:href="#f6_bv" transform="matrix(14,0,0,14,275.8,379.3)" />
<use xlink:href="#f6_d8" transform="matrix(14,0,0,14,287.7,379.3)" />
<use xlink:href="#f6_dj" transform="matrix(14,0,0,14,292,380.1)" />
<use xlink:href="#f6_k" transform="matrix(14,0,0,14,293.3,379.3)" />
<use xlink:href="#f6_al" transform="matrix(14,0,0,14,304.2,379.3)" />
<use xlink:href="#f6_bt" transform="matrix(14,0,0,14,320,379.3)" />
<use xlink:href="#f6_d4" transform="matrix(14,0,0,14,331.9,379.3)" />
<use xlink:href="#f6_bh" transform="matrix(14,0,0,14,337.4,379.3)" />
<use xlink:href="#f6_ct" transform="matrix(14,0,0,14,354.2,379.3)" />
<use xlink:href="#f6_b9" transform="matrix(14,0,0,14,359.8,379.3)" />
<use xlink:href="#f6_c3" transform="matrix(14,0,0,14,375.3,379.3)" />
<use xlink:href="#f6_by" transform="matrix(14,0,0,14,395.7,379.3)" />
<use xlink:href="#f6_cv" transform="matrix(14,0,0,14,409.7,379.3)" />
<use xlink:href="#f6_bt" transform="matrix(14,0,0,14,415.3,379.3)" />
<use xlink:href="#f6_d8" transform="matrix(14,0,0,14,427,379.3)" />
<use xlink:href="#f6_be" transform="matrix(14,0,0,14,438.3,379.3)" />
<use xlink:href="#f6_cc" transform="matrix(14,0,0,14,452.3,379.3)" />
<use xlink:href="#f6_d4" transform="matrix(14,0,0,14,464.2,379.3)" />
<use xlink:href="#f6_c1" transform="matrix(14,0,0,14,463.9,379.3)" />
<use xlink:href="#f6_d8" transform="matrix(14,0,0,14,472.2,379.3)" />
<use xlink:href="#f6_k" transform="matrix(14,0,0,14,477.9,379.3)" />
<use xlink:href="#f6_bp" transform="matrix(14,0,0,14,100,412.5)" />
<use xlink:href="#f6_bz" transform="matrix(14,0,0,14,112.3,412.5)" />
<use xlink:href="#f6_ct" transform="matrix(14,0,0,14,125.6,412.5)" />
<use xlink:href="#f6_c1" transform="matrix(14,0,0,14,131.3,412.5)" />
<use xlink:href="#f6_ct" transform="matrix(14,0,0,14,139.6,412.5)" />
<use xlink:href="#f6_bz" transform="matrix(14,0,0,14,150.9,412.5)" />
<use xlink:href="#f6_cw" transform="matrix(14,0,0,14,164.8,412.4)" />
<use xlink:href="#f6_ba" transform="matrix(14,0,0,14,164.3,412.5)" />
<use xlink:href="#f6_bt" transform="matrix(14,0,0,14,186.7,412.5)" />
<use xlink:href="#f6_d4" transform="matrix(14,0,0,14,198.5,412.5)" />
<use xlink:href="#f6_bg" transform="matrix(14,0,0,14,204,412.5)" />
<use xlink:href="#f6_d8" transform="matrix(14,0,0,14,218.3,412.5)" />
<use xlink:href="#f6_c0" transform="matrix(14,0,0,14,223.9,412.5)" />
<use xlink:href="#f6_cw" transform="matrix(14,0,0,14,237,412.4)" />
<use xlink:href="#f6_k" transform="matrix(14,0,0,14,236.5,412.5)" />
<use xlink:href="#f6_cc" transform="matrix(14,0,0,14,247.3,412.5)" />
<use xlink:href="#f6_c7" transform="matrix(14,0,0,14,259,412.5)" />
<use xlink:href="#f6_d4" transform="matrix(14,0,0,14,271.2,412.5)" />
<use xlink:href="#f6_bw" transform="matrix(14,0,0,14,276.7,412.5)" />
<use xlink:href="#f6_c1" transform="matrix(14,0,0,14,292.8,412.5)" />
<use xlink:href="#f6_cv" transform="matrix(14,0,0,14,301.2,412.5)" />
<use xlink:href="#f6_c0" transform="matrix(14,0,0,14,306.8,412.5)" />
<use xlink:href="#f6_ct" transform="matrix(14,0,0,14,319.3,412.5)" />
<use xlink:href="#f6_br" transform="matrix(14,0,0,14,325,412.5)" />
<use xlink:href="#f6_bq" transform="matrix(14,0,0,14,342.3,412.5)" />
<use xlink:href="#f6_ao" transform="matrix(14,0,0,14,355.5,412.5)" />
<use xlink:href="#f6_bv" transform="matrix(14,0,0,14,372.7,412.5)" />
<use xlink:href="#f6_cx" transform="matrix(14,0,0,14,384.5,412.4)" />
<use xlink:href="#f6_c1" transform="matrix(14,0,0,14,384.5,412.5)" />
<use xlink:href="#f6_cv" transform="matrix(14,0,0,14,392.9,412.5)" />
<use xlink:href="#f6_pc" transform="matrix(14,0,0,14,398.5,412.5)" />
<use xlink:href="#f6_pc" transform="matrix(14,0,0,14,402.8,412.5)" />
<use xlink:href="#f6_pc" transform="matrix(14,0,0,14,407.1,412.5)" />
<use xlink:href="#f6_al" transform="matrix(14,0,0,14,411.3,412.5)" />
<use xlink:href="#f6_bz" transform="matrix(14,0,0,14,427.2,412.5)" />
<use xlink:href="#f6_ct" transform="matrix(14,0,0,14,440.5,412.5)" />
<use xlink:href="#f6_c1" transform="matrix(14,0,0,14,446.2,412.5)" />
<use xlink:href="#f6_cv" transform="matrix(14,0,0,14,454.6,412.5)" />
<use xlink:href="#f6_c7" transform="matrix(14,0,0,14,465.8,412.5)" />
<use xlink:href="#f6_ct" transform="matrix(14,0,0,14,477.9,412.5)" />
<use xlink:href="#f6_bp" transform="matrix(14,0,0,14,483.5,412.5)" />
<use xlink:href="#f6_pc" transform="matrix(14,0,0,14,495.9,412.5)" />
<use xlink:href="#f6_pc" transform="matrix(14,0,0,14,500.1,412.5)" />
<use xlink:href="#f6_pc" transform="matrix(14,0,0,14,504.4,412.5)" />
<use xlink:href="#f6_q" transform="matrix(14,0,0,14,508.7,412.5)" />
<use xlink:href="#f6_ki" transform="matrix(14,0,0,14,151.6,470.9)" />
<use xlink:href="#f6_c1" transform="matrix(14,0,0,14,173.5,470.9)" />
<use xlink:href="#f6_bo" transform="matrix(14,0,0,14,181.9,470.9)" />
<use xlink:href="#f6_bp" transform="matrix(14,0,0,14,201.9,470.9)" />
<use xlink:href="#f6_ct" transform="matrix(14,0,0,14,214.3,470.9)" />
<use xlink:href="#f6_n0" transform="matrix(14,0,0,14,219.9,470.9)" />
<use xlink:href="#f6_dj" transform="matrix(14,0,0,14,224.5,471.4)" />
<use xlink:href="#f6_cc" transform="matrix(14,0,0,14,238.7,470.9)" />
<use xlink:href="#f6_bz" transform="matrix(14,0,0,14,250.3,470.9)" />
<use xlink:href="#f6_d4" transform="matrix(14,0,0,14,263.8,470.9)" />
<use xlink:href="#f6_c8" transform="matrix(14,0,0,14,263.6,470.9)" />
<use xlink:href="#f6_ct" transform="matrix(14,0,0,14,279.5,470.9)" />
<use xlink:href="#f6_br" transform="matrix(14,0,0,14,290.8,470.9)" />
<use xlink:href="#f6_d4" transform="matrix(14,0,0,14,302,470.9)" />
<use xlink:href="#f6_k" transform="matrix(14,0,0,14,302.5,470.9)" />
<use xlink:href="#f6_bz" transform="matrix(14,0,0,14,313.3,470.9)" />
<use xlink:href="#f6_c1" transform="matrix(14,0,0,14,326.7,470.9)" />
<use xlink:href="#f6_bo" transform="matrix(14,0,0,14,335.1,470.9)" />
<use xlink:href="#f6_bk" transform="matrix(14,0,0,14,355.1,470.9)" />
<use xlink:href="#f6_ct" transform="matrix(14,0,0,14,366.6,470.9)" />
<use xlink:href="#f6_c5" transform="matrix(14,0,0,14,372.3,470.9)" />
<use xlink:href="#f6_d4" transform="matrix(14,0,0,14,386.3,470.9)" />
<use xlink:href="#f6_cb" transform="matrix(14,0,0,14,393.3,470.9)" />
<use xlink:href="#f6_bz" transform="matrix(14,0,0,14,408.2,470.9)" />
<use xlink:href="#f6_ct" transform="matrix(14,0,0,14,421.5,470.9)" />
<use xlink:href="#f6_nt" transform="matrix(14,0,0,14,427.1,470.9)" />
<use xlink:href="#f6_nl" transform="matrix(14,0,0,14,432.7,470.9)" />
<use xlink:href="#f6_bs" transform="matrix(14,0,0,14,432.7,470.9)" />
<use xlink:href="#f6_br" transform="matrix(14,0,0,14,452.4,470.9)" />
<use xlink:href="#f6_d4" transform="matrix(14,0,0,14,463.6,470.9)" />
<use xlink:href="#f6_k" transform="matrix(14,0,0,14,464.1,470.9)" />
<use xlink:href="#f6_c1" transform="matrix(14,0,0,14,141.2,504.2)" />
<use xlink:href="#f6_cc" transform="matrix(14,0,0,14,149.6,504.2)" />
<use xlink:href="#f6_d4" transform="matrix(14,0,0,14,161.6,504.2)" />
<use xlink:href="#f6_cu" transform="matrix(14,0,0,14,166.9,504.2)" />
<use xlink:href="#f6_bt" transform="matrix(14,0,0,14,172.5,504.2)" />
<use xlink:href="#f6_c3" transform="matrix(14,0,0,14,184.2,504.2)" />
<use xlink:href="#f6_p0" transform="matrix(14,0,0,14,199.1,504.2)" />
<use xlink:href="#f6_bv" transform="matrix(14,0,0,14,198.9,504.2)" />
<use xlink:href="#f6_bp" transform="matrix(14,0,0,14,210.8,504.2)" />
<use xlink:href="#f6_ct" transform="matrix(14,0,0,14,223.1,504.2)" />
<use xlink:href="#f6_cb" transform="matrix(14,0,0,14,234.4,504.2)" />
<use xlink:href="#f6_cw" transform="matrix(14,0,0,14,249.8,504.1)" />
<use xlink:href="#f6_ba" transform="matrix(14,0,0,14,249.3,504.2)" />
<use xlink:href="#f6_bz" transform="matrix(14,0,0,14,271.7,504.2)" />
<use xlink:href="#f6_ct" transform="matrix(14,0,0,14,285,504.2)" />
<use xlink:href="#f6_dj" transform="matrix(14,0,0,14,285.2,504.6)" />
<use xlink:href="#f6_k" transform="matrix(14,0,0,14,290.6,504.2)" />
<use xlink:href="#f6_al" transform="matrix(14,0,0,14,301.5,504.2)" />
<use xlink:href="#f6_bt" transform="matrix(14,0,0,14,317.4,504.2)" />
<use xlink:href="#f6_d4" transform="matrix(14,0,0,14,329.2,504.2)" />
<use xlink:href="#f6_mv" transform="matrix(14,0,0,14,334.7,504.2)" />
<use xlink:href="#f6_dk" transform="matrix(14,0,0,14,346.5,504.2)" />
<use xlink:href="#f6_ba" transform="matrix(14,0,0,14,351.1,504.2)" />
<use xlink:href="#f6_bz" transform="matrix(14,0,0,14,373.5,504.2)" />
<use xlink:href="#f6_ct" transform="matrix(14,0,0,14,386.8,504.2)" />
<use xlink:href="#f6_dj" transform="matrix(14,0,0,14,387,504.6)" />
<use xlink:href="#f6_cu" transform="matrix(14,0,0,14,398.1,504.2)" />
<use xlink:href="#f6_br" transform="matrix(14,0,0,14,403.7,504.2)" />
<use xlink:href="#f6_c3" transform="matrix(14,0,0,14,415.4,504.2)" />
<use xlink:href="#f6_ct" transform="matrix(14,0,0,14,430.1,504.2)" />
<use xlink:href="#f6_cb" transform="matrix(14,0,0,14,435.7,504.2)" />
<use xlink:href="#f6_d8" transform="matrix(14,0,0,14,450.6,504.2)" />
<use xlink:href="#f6_br" transform="matrix(14,0,0,14,461.9,504.2)" />
<use xlink:href="#f6_d4" transform="matrix(14,0,0,14,473.1,504.2)" />
<use xlink:href="#f6_k" transform="matrix(14,0,0,14,473.6,504.2)" />
<use xlink:href="#f6_bw" transform="matrix(14,0,0,14,93.1,537.4)" />
<use xlink:href="#f6_l1" transform="matrix(14,0,0,14,109.2,537.4)" />
<use xlink:href="#f6_bp" transform="matrix(14,0,0,14,121.1,537.4)" />
<use xlink:href="#f6_bg" transform="matrix(14,0,0,14,139.1,537.4)" />
<use xlink:href="#f6_d8" transform="matrix(14,0,0,14,153.3,537.4)" />
<use xlink:href="#f6_am" transform="matrix(14,0,0,14,164.6,537.4)" />
<use xlink:href="#f6_bk" transform="matrix(14,0,0,14,186.1,537.4)" />
<use xlink:href="#f6_c3" transform="matrix(14,0,0,14,197.6,537.4)" />
<use xlink:href="#f6_am" transform="matrix(14,0,0,14,218,537.4)" />
<use xlink:href="#f6_bv" transform="matrix(14,0,0,14,239.5,537.4)" />
<use xlink:href="#f6_d8" transform="matrix(14,0,0,14,251.4,537.4)" />
<use xlink:href="#f6_k" transform="matrix(14,0,0,14,257,537.4)" />
<use xlink:href="#f6_al" transform="matrix(14,0,0,14,267.9,537.4)" />
<use xlink:href="#f6_bz" transform="matrix(14,0,0,14,283.7,537.4)" />
<use xlink:href="#f6_ct" transform="matrix(14,0,0,14,297.1,537.4)" />
<use xlink:href="#f6_c1" transform="matrix(14,0,0,14,302.7,537.4)" />
<use xlink:href="#f6_cv" transform="matrix(14,0,0,14,311.1,537.4)" />
<use xlink:href="#f6_bz" transform="matrix(14,0,0,14,322.4,537.4)" />
<use xlink:href="#f6_ct" transform="matrix(14,0,0,14,335.7,537.4)" />
<use xlink:href="#f6_dj" transform="matrix(14,0,0,14,335.9,537.8)" />
<use xlink:href="#f6_bb" transform="matrix(14,0,0,14,341.3,537.4)" />
<use xlink:href="#f6_bo" transform="matrix(14,0,0,14,353.9,537.4)" />
<use xlink:href="#f6_cv" transform="matrix(14,0,0,14,368.3,537.4)" />
<use xlink:href="#f6_bv" transform="matrix(14,0,0,14,379.6,537.4)" />
<use xlink:href="#f6_cx" transform="matrix(14,0,0,14,391.4,537.3)" />
<use xlink:href="#f6_c1" transform="matrix(14,0,0,14,391.5,537.4)" />
<use xlink:href="#f6_cv" transform="matrix(14,0,0,14,399.8,537.4)" />
<use xlink:href="#f6_pc" transform="matrix(14,0,0,14,405.5,537.4)" />
<use xlink:href="#f6_pc" transform="matrix(14,0,0,14,409.7,537.4)" />
<use xlink:href="#f6_pc" transform="matrix(14,0,0,14,414,537.4)" />
<use xlink:href="#f6_al" transform="matrix(14,0,0,14,418.3,537.4)" />
<use xlink:href="#f6_bz" transform="matrix(14,0,0,14,434.1,537.4)" />
<use xlink:href="#f6_ct" transform="matrix(14,0,0,14,447.5,537.4)" />
<use xlink:href="#f6_c1" transform="matrix(14,0,0,14,453.1,537.4)" />
<use xlink:href="#f6_cv" transform="matrix(14,0,0,14,461.5,537.4)" />
<use xlink:href="#f6_c7" transform="matrix(14,0,0,14,472.8,537.4)" />
<use xlink:href="#f6_ct" transform="matrix(14,0,0,14,484.8,537.4)" />
<use xlink:href="#f6_bp" transform="matrix(14,0,0,14,490.5,537.4)" />
<use xlink:href="#f6_pc" transform="matrix(14,0,0,14,502.8,537.4)" />
<use xlink:href="#f6_pc" transform="matrix(14,0,0,14,507.1,537.4)" />
<use xlink:href="#f6_pc" transform="matrix(14,0,0,14,511.3,537.4)" />
<use xlink:href="#f6_r" transform="matrix(14,0,0,14,515.6,537.4)" />
<use xlink:href="#f6_al" transform="matrix(14,0,0,14,156.1,595.8)" />
<use xlink:href="#f6_bz" transform="matrix(14,0,0,14,172,595.8)" />
<use xlink:href="#f6_d4" transform="matrix(14,0,0,14,185.5,595.8)" />
<use xlink:href="#f6_bp" transform="matrix(14,0,0,14,191,595.8)" />
<use xlink:href="#f6_d8" transform="matrix(14,0,0,14,203.3,595.8)" />
<use xlink:href="#f6_c1" transform="matrix(14,0,0,14,214.6,595.8)" />
<use xlink:href="#f6_ct" transform="matrix(14,0,0,14,223,595.8)" />
<use xlink:href="#f6_bp" transform="matrix(14,0,0,14,228.6,595.8)" />
<use xlink:href="#f6_bt" transform="matrix(14,0,0,14,246.6,595.8)" />
<use xlink:href="#f6_d4" transform="matrix(14,0,0,14,258.4,595.8)" />
<use xlink:href="#f6_cu" transform="matrix(14,0,0,14,264,595.8)" />
<use xlink:href="#f6_br" transform="matrix(14,0,0,14,269.6,595.8)" />
<use xlink:href="#f6_c7" transform="matrix(14,0,0,14,281.3,595.8)" />
<use xlink:href="#f6_cb" transform="matrix(14,0,0,14,293.3,595.8)" />
<use xlink:href="#f6_k" transform="matrix(14,0,0,14,308.2,595.8)" />
<use xlink:href="#f6_bp" transform="matrix(14,0,0,14,319.1,595.8)" />
<use xlink:href="#f6_bz" transform="matrix(14,0,0,14,331.4,595.8)" />
<use xlink:href="#f6_ct" transform="matrix(14,0,0,14,344.7,595.8)" />
<use xlink:href="#f6_c1" transform="matrix(14,0,0,14,350.4,595.8)" />
<use xlink:href="#f6_ct" transform="matrix(14,0,0,14,358.7,595.8)" />
<use xlink:href="#f6_bb" transform="matrix(14,0,0,14,370,595.8)" />
<use xlink:href="#f6_cw" transform="matrix(14,0,0,14,383.2,595.7)" />
<use xlink:href="#f6_bo" transform="matrix(14,0,0,14,382.6,595.8)" />
<use xlink:href="#f6_c3" transform="matrix(14,0,0,14,397,595.8)" />
<use xlink:href="#f6_ct" transform="matrix(14,0,0,14,411.7,595.8)" />
<use xlink:href="#f6_bg" transform="matrix(14,0,0,14,423,595.8)" />
<use xlink:href="#f6_ct" transform="matrix(14,0,0,14,437.3,595.8)" />
<use xlink:href="#f6_bp" transform="matrix(14,0,0,14,442.9,595.8)" />
<use xlink:href="#f6_ct" transform="matrix(14,0,0,14,455.2,595.8)" />
<use xlink:href="#f6_k" transform="matrix(14,0,0,14,460.8,595.8)" />
<use xlink:href="#f6_bp" transform="matrix(14,0,0,14,143.5,629.1)" />
<use xlink:href="#f6_d8" transform="matrix(14,0,0,14,155.8,629.1)" />
<use xlink:href="#f6_c0" transform="matrix(14,0,0,14,161.5,629.1)" />
<use xlink:href="#f6_d4" transform="matrix(14,0,0,14,174.1,629.1)" />
<use xlink:href="#f6_c8" transform="matrix(14,0,0,14,179.7,629.1)" />
<use xlink:href="#f6_ct" transform="matrix(14,0,0,14,195.5,629.1)" />
<use xlink:href="#f6_bg" transform="matrix(14,0,0,14,201.2,629.1)" />
<use xlink:href="#f6_d4" transform="matrix(14,0,0,14,215.6,629.1)" />
<use xlink:href="#f6_am" transform="matrix(14,0,0,14,221.1,629.1)" />
<use xlink:href="#f6_mv" transform="matrix(14,0,0,14,248.2,629.1)" />
<use xlink:href="#f6_cu" transform="matrix(14,0,0,14,260,629.1)" />
<use xlink:href="#f6_bt" transform="matrix(14,0,0,14,265.6,629.1)" />
<use xlink:href="#f6_c0" transform="matrix(14,0,0,14,277.4,629.1)" />
<use xlink:href="#f6_ct" transform="matrix(14,0,0,14,289.9,629.1)" />
<use xlink:href="#f6_bz" transform="matrix(14,0,0,14,295.5,629.1)" />
<use xlink:href="#f6_ct" transform="matrix(14,0,0,14,308.9,629.1)" />
<use xlink:href="#f6_dj" transform="matrix(14,0,0,14,309.1,629.5)" />
<use xlink:href="#f6_k" transform="matrix(14,0,0,14,314.5,629.1)" />
<use xlink:href="#f6_mv" transform="matrix(14,0,0,14,325.4,629.1)" />
<use xlink:href="#f6_dk" transform="matrix(14,0,0,14,337.1,629.1)" />
<use xlink:href="#f6_ba" transform="matrix(14,0,0,14,341.7,629.1)" />
<use xlink:href="#f6_d8" transform="matrix(14,0,0,14,358.4,629.1)" />
<use xlink:href="#f6_dj" transform="matrix(14,0,0,14,362.7,629.9)" />
<use xlink:href="#f6_bt" transform="matrix(14,0,0,14,364.1,629.1)" />
<use xlink:href="#f6_ct" transform="matrix(14,0,0,14,375.8,629.1)" />
<use xlink:href="#f6_c7" transform="matrix(14,0,0,14,387.1,629.1)" />
<use xlink:href="#f6_cv" transform="matrix(14,0,0,14,399.1,629.1)" />
<use xlink:href="#f6_bp" transform="matrix(14,0,0,14,404.8,629.1)" />
<use xlink:href="#f6_c1" transform="matrix(14,0,0,14,417.1,629.1)" />
<use xlink:href="#f6_ct" transform="matrix(14,0,0,14,425.5,629.1)" />
<use xlink:href="#f6_c7" transform="matrix(14,0,0,14,436.7,629.1)" />
<use xlink:href="#f6_ct" transform="matrix(14,0,0,14,448.8,629.1)" />
<use xlink:href="#f6_bp" transform="matrix(14,0,0,14,454.4,629.1)" />
<use xlink:href="#f6_ct" transform="matrix(14,0,0,14,466.8,629.1)" />
<use xlink:href="#f6_k" transform="matrix(14,0,0,14,472.4,629.1)" />
<use xlink:href="#f6_bp" transform="matrix(14,0,0,14,111.5,662.3)" />
<use xlink:href="#f6_bz" transform="matrix(14,0,0,14,123.8,662.3)" />
<use xlink:href="#f6_d4" transform="matrix(14,0,0,14,137.2,662.3)" />
<use xlink:href="#f6_bz" transform="matrix(14,0,0,14,142.8,662.3)" />
<use xlink:href="#f6_d8" transform="matrix(14,0,0,14,156.1,662.3)" />
<use xlink:href="#f6_nm" transform="matrix(14,0,0,14,161.7,662.3)" />
<use xlink:href="#f6_eq" transform="matrix(14,0,0,14,161.7,662.3)" />
<use xlink:href="#f6_d4" transform="matrix(14,0,0,14,176.7,662.3)" />
<use xlink:href="#f6_bg" transform="matrix(14,0,0,14,182.4,662.3)" />
<use xlink:href="#f6_br" transform="matrix(14,0,0,14,196.6,662.3)" />
<use xlink:href="#f6_d4" transform="matrix(14,0,0,14,207.8,662.3)" />
<use xlink:href="#f6_bx" transform="matrix(14,0,0,14,214,662.3)" />
<use xlink:href="#f6_d4" transform="matrix(14,0,0,14,226.4,662.3)" />
<use xlink:href="#f6_bl" transform="matrix(14,0,0,14,226.2,662.3)" />
<use xlink:href="#f6_ct" transform="matrix(14,0,0,14,238.6,662.3)" />
<use xlink:href="#f6_k" transform="matrix(14,0,0,14,244.2,662.3)" />
<use xlink:href="#f6_al" transform="matrix(14,0,0,14,255.1,662.3)" />
<use xlink:href="#f6_bz" transform="matrix(14,0,0,14,271,662.3)" />
<use xlink:href="#f6_d4" transform="matrix(14,0,0,14,284.4,662.3)" />
<use xlink:href="#f6_cb" transform="matrix(14,0,0,14,290,662.3)" />
<use xlink:href="#f6_dj" transform="matrix(14,0,0,14,298.5,662.7)" />
<use xlink:href="#f6_cb" transform="matrix(14,0,0,14,304.8,662.3)" />
<use xlink:href="#f6_ct" transform="matrix(14,0,0,14,319.7,662.3)" />
<use xlink:href="#f6_c1" transform="matrix(14,0,0,14,325.3,662.3)" />
<use xlink:href="#f6_bz" transform="matrix(14,0,0,14,333.7,662.3)" />
<use xlink:href="#f6_ct" transform="matrix(14,0,0,14,347.1,662.3)" />
<use xlink:href="#f6_bv" transform="matrix(14,0,0,14,358.4,662.3)" />
<use xlink:href="#f6_d4" transform="matrix(14,0,0,14,370.3,662.3)" />
<use xlink:href="#f6_bk" transform="matrix(14,0,0,14,370.2,662.3)" />
<use xlink:href="#f6_ct" transform="matrix(14,0,0,14,381.8,662.3)" />
<use xlink:href="#f6_pc" transform="matrix(14,0,0,14,387.4,662.3)" />
<use xlink:href="#f6_pc" transform="matrix(14,0,0,14,391.7,662.3)" />
<use xlink:href="#f6_pc" transform="matrix(14,0,0,14,396,662.3)" />
<use xlink:href="#f6_al" transform="matrix(14,0,0,14,400.2,662.3)" />
<use xlink:href="#f6_bz" transform="matrix(14,0,0,14,416.1,662.3)" />
<use xlink:href="#f6_ct" transform="matrix(14,0,0,14,429.4,662.3)" />
<use xlink:href="#f6_c1" transform="matrix(14,0,0,14,435.1,662.3)" />
<use xlink:href="#f6_cv" transform="matrix(14,0,0,14,443.4,662.3)" />
<use xlink:href="#f6_c7" transform="matrix(14,0,0,14,454.7,662.3)" />
<use xlink:href="#f6_ct" transform="matrix(14,0,0,14,466.8,662.3)" />
<use xlink:href="#f6_bp" transform="matrix(14,0,0,14,472.4,662.3)" />
<use xlink:href="#f6_pc" transform="matrix(14,0,0,14,484.7,662.3)" />
<use xlink:href="#f6_pc" transform="matrix(14,0,0,14,489,662.3)" />
<use xlink:href="#f6_pc" transform="matrix(14,0,0,14,493.3,662.3)" />
<use xlink:href="#f6_s" transform="matrix(14,0,0,14,497.6,662.3)" />
<use xlink:href="#f7_4r" transform="matrix(9,0,0,9,286.8,795.2)" />
<use xlink:href="#f8_l" transform="matrix(9,0,0,9,299.6,795.2)" />
<use xlink:href="#f8_l" transform="matrix(9,0,0,9,307.2,795.2)" />
<use xlink:href="#f8_q" transform="matrix(9,0,0,9,314.9,795.2)" />
<use xlink:href="#f7_4r" transform="matrix(9,0,0,9,325.6,795.2)" />
</g>
</g>
<image preserveAspectRatio="none" x="22" y="801" width="581" height="86" xlink:href="img/1.png"/>
<path d="M287.6,97.4h47v1.1h-47V97.4Z" class="g1_122"/>
<image preserveAspectRatio="none" x="202" y="14" width="217" height="26" xlink:href="img/2.png"/>
<defs>
<path d="M371,296c0,0,71,0,139,34c0,0,69,34,109,92v90c0,0,-72,36,-148,36c0,0,-84,0,-131,-47c0,0,-47,-47,-47,-111c0,0,0,-49,28,-89l50,-5ZM793,-65L619,29V134c0,0,-55,-27,-122,-27c0,0,-98,0,-207,48c0,0,-108,48,-182,132c0,0,-73,84,-73,188c0,0,0,113,83,191c0,0,84,78,212,78c0,0,41,0,84,-9L619,643V822H0L-86,937l32,64H978l85,-115l-32,-64H761L863,749V-31L793,-65Z"
id="f5_c7"
transform="scale(0.001,-0.001)"/>

<path d="M0,822L-86,937l32,64H9L95,886L63,822Z"
id="f5_nl"
transform="scale(0.001,-0.001)"/>

<path d="M895,-65L721,29V134c0,0,-66,-32,-148,-32c0,0,-156,0,-289,105c0,0,-133,105,-133,231c0,0,0,72,48,136C199,574,28,695,28,836c0,0,0,88,65,149c0,0,66,60,167,60c0,0,99,0,172,-61c0,0,72,-61,139,-180L477,729c0,0,-55,87,-92,119l-26,3c0,0,-43,0,-73,-28c0,0,-29,-29,-29,-73c0,0,0,-50,41,-95c0,0,67,33,150,33c0,0,45,0,93,-10L642,519L610,457l-51,3c0,0,-82,0,-130,-35c0,0,-49,-35,-49,-83c0,0,0,-26,16,-47c0,0,18,-6,46,-6c0,0,77,0,161,46c0,0,83,47,118,119V822H678L593,937l32,64h455l87,-115l-32,-64H863L966,749V-31L895,-65Z"
id="f5_bs"
transform="scale(0.001,-0.001)"/>

<path d="M277,-65L102,29V822H0L-86,937l32,64H463L548,886L516,822H244L347,749V-31L277,-65Z"
id="f5_ct"
transform="scale(0.001,-0.001)"/>

<path d="M510,-393L316,-91c0,0,-96,26,-214,108l54,206l113,-1L362,84l31,-1c0,0,99,0,183,56c0,0,84,57,87,125L417,200c0,0,-162,48,-264,141c0,0,-103,94,-103,195c0,0,0,84,73,142c0,0,73,57,207,57H529v87H0L-86,937l32,64H490c0,0,-126,131,-126,258c0,0,0,99,71,166c0,0,72,68,178,68c0,0,68,0,132,-29c0,0,63,-28,101,-72L813,1276c0,0,-52,26,-106,26c0,0,-62,0,-106,-35c0,0,-43,-36,-43,-101c0,0,0,-75,75,-165H892L979,886L947,822H646L749,749V539H380c0,0,-123,0,-123,-73c0,0,0,-26,27,-53l312,62c0,0,119,-43,183,-124c0,0,64,-82,64,-177c0,0,0,-127,-102,-193c0,0,-102,-67,-235,-82L694,-260L510,-393Z"
id="f5_ao"
transform="scale(0.001,-0.001)"/>

<path d="M527,-71L52,414l34,92H277c0,0,12,32,12,72V822H0l-45,76l14,31H599l46,-76L631,822H350l66,-55V564c0,0,0,-96,-152,-248L610,34L611,8L527,-71Z"
id="f6_c1"
transform="scale(0.001,-0.001)"/>

<path d="M845,-49L755,8V513H497c0,0,61,-45,93,-110c0,0,33,-64,33,-128c0,0,0,-90,-58,-144c0,0,-59,-53,-143,-53c0,0,-133,0,-234,139C188,217,87,356,20,596l76,24c0,0,60,-201,127,-306c0,0,67,-105,160,-105c0,0,57,0,91,36c0,0,33,36,33,91c0,0,0,84,-73,159L295,558v71H755V822H0l-45,76l14,31H1019l46,-76l-14,-31H816l66,-58V-39L845,-49Z"
id="f6_bg"
transform="scale(0.001,-0.001)"/>

<path d="M228,-49L138,8V822H0l-45,76l14,31H402l46,-76L434,822H199l65,-58V-39L228,-49Z"
id="f6_ct"
transform="scale(0.001,-0.001)"/>

<path d="M959,-49L869,8V367c0,0,-32,-13,-64,-13c0,0,-50,0,-110,25c0,0,23,-52,23,-109c0,0,0,-103,-70,-170c0,0,-70,-66,-182,-66c0,0,-110,0,-222,82c0,0,-111,83,-213,293l68,42c0,0,72,-155,152,-231c0,0,81,-76,178,-76c0,0,83,0,131,49c0,0,48,48,48,117c0,0,0,54,-30,100c0,0,-31,47,-91,65L325,391L257,512c0,0,68,53,156,56c0,0,140,72,140,179c0,0,0,69,-52,99c0,0,-4,1,-11,1c-19,0,-66,-4,-123,-30c0,0,-78,-35,-142,-96L150,823c0,0,119,117,253,117c0,0,98,0,175,-71c0,0,77,-70,77,-159c0,0,0,-103,-94,-180c0,0,39,-23,73,-56c0,0,52,-22,109,-22c0,0,77,0,126,38V822H727l-46,76l14,31h840l46,-76l-13,-31H1332l66,-58V-39l-37,-10L1271,8V822H930l66,-58V-39L959,-49Z"
id="f6_am"
transform="scale(0.001,-0.001)"/>

<path d="M388,325c0,0,58,0,112,31c0,0,53,31,84,86V822H165l69,-58V408c0,0,47,-83,154,-83ZM674,-49L584,8V257c0,0,-61,-51,-141,-51c0,0,-125,0,-232,109c0,0,-107,108,-107,243V822H0l-45,76l14,31H848l46,-76L880,822H645l65,-58V-39L674,-49Z"
id="f6_bv"
transform="scale(0.001,-0.001)"/>

<path d="M228,-49L138,8V822H0l-45,76l14,31H119L-33,1144c0,0,-70,92,-157,92c0,0,-69,0,-159,-58l-72,118c0,0,89,73,181,73c0,0,140,0,257,-170L205,929H402l46,-76L434,822H199l65,-58V-39L228,-49Z"
id="f6_d8"
transform="scale(0.001,-0.001)"/>

<path d="M688,-243c0,0,-256,53,-408,173c0,0,-152,119,-152,270c0,0,0,101,68,171c0,0,-101,84,-101,179c0,0,0,64,53,112c0,0,54,47,191,47H587V822H0l-45,76l14,31H830l45,-76L862,822H640l66,-58V585H362c0,0,-159,-1,-159,-92c0,0,0,-41,46,-80c0,0,76,47,183,47c0,0,135,0,230,-76c0,0,96,-75,96,-187C758,197,758,67,629,2L545,104c0,0,49,30,81,75c0,0,32,44,32,82c0,0,0,16,-4,26c0,0,-64,58,-167,58c0,0,-97,0,-166,-50v-2c0,0,-67,-52,-67,-131c0,0,0,-116,132,-199c0,0,132,-84,334,-132l-32,-74Z"
id="f6_cc"
transform="scale(0.001,-0.001)"/>

<path d="M325,240c0,0,77,0,154,35c0,0,77,35,120,99V500c0,0,-118,73,-222,73c0,0,-97,0,-151,-54c0,0,-53,-53,-53,-128c0,0,0,-73,49,-125c0,0,38,-26,103,-26ZM689,-49L599,8V199c0,0,-73,-65,-179,-65c0,0,-134,0,-252,96c0,0,-118,95,-118,221c0,0,0,102,78,171c0,0,78,69,190,69c0,0,38,0,75,-10L599,582V822H0l-45,76l14,31H863l46,-76L895,822H660l66,-58V-39L689,-49Z"
id="f6_c7"
transform="scale(0.001,-0.001)"/>

<path d="M-214,863l-199,281c0,0,-70,92,-157,92c0,0,-69,0,-159,-58l-72,118c0,0,89,73,180,73c0,0,141,0,258,-170L-155,901l-59,-38Z"
id="f6_d4"
transform="scale(0.001,-0.001)"/>

<path d="M675,-274L602,21C602,21,550,3,498,3C498,3,347,3,210,118C210,118,73,232,73,373c0,0,0,113,84,184c0,0,84,71,222,72H524V822H0l-45,76l14,31H834l46,-76L866,822H585l66,-58V504l-3,2l3,-3H408c0,0,-95,0,-154,-53c0,0,-58,-53,-58,-132c0,0,0,-49,27,-100c0,0,28,-50,83,-84c0,0,44,-15,96,-15c0,0,91,0,160,46L535,303l101,48L773,188c0,0,-8,-28,-34,-66c0,0,-27,-38,-62,-64L813,-221L675,-274Z"
id="f6_br"
transform="scale(0.001,-0.001)"/>

<path d="M108,-222l-44,58c0,0,96,81,104,164L89,61c0,0,12,83,93,122c0,0,50,-15,79,-55c0,0,29,-39,29,-90c0,0,0,-69,-48,-142c0,0,-48,-72,-134,-118Z"
id="f6_k"
transform="scale(0.001,-0.001)"/>

<path d="M959,-49L869,8V367c0,0,-32,-13,-64,-13c0,0,-50,0,-110,25c0,0,23,-52,23,-109c0,0,0,-103,-70,-170c0,0,-70,-66,-182,-66c0,0,-110,0,-222,82c0,0,-111,83,-213,293l68,42c0,0,72,-155,152,-231c0,0,81,-76,178,-76c0,0,83,0,131,49c0,0,48,48,48,117c0,0,0,54,-30,100c0,0,-31,47,-91,65L325,391L257,512c0,0,68,53,156,56c0,0,140,72,140,179c0,0,0,69,-52,99c0,0,-4,1,-11,1c-19,0,-66,-4,-123,-30c0,0,-78,-35,-142,-96L150,823c0,0,119,117,253,117c0,0,98,0,175,-71c0,0,77,-70,77,-159c0,0,0,-103,-94,-180c0,0,39,-23,73,-56c0,0,52,-22,109,-22c0,0,77,0,126,38V822H727l-46,76l14,31h439l45,-76l-13,-31H930l66,-58V-39L959,-49Z"
id="f6_al"
transform="scale(0.001,-0.001)"/>

<path d="M689,445V822H286l65,-58l8,-319ZM779,-49L689,8V328H370V180L296,150c0,0,-56,35,-120,104c0,0,-63,70,-89,131l41,60H238L223,822H0l-45,76l14,31H953l46,-76L985,822H750l66,-58V-39L779,-49Z"
id="f6_bz"
transform="scale(0.001,-0.001)"/>

<path d="M228,-49L138,8V822H0l-45,76l14,31H138c0,0,-109,342,-284,342c0,0,-62,0,-102,-40c0,0,-40,-39,-40,-93c0,0,0,-61,51,-134l-42,-32c0,0,-128,113,-128,226c0,0,0,79,60,136c0,0,61,56,154,56c0,0,137,0,249,-125c0,0,112,-125,169,-336H402l46,-76L434,822H199l65,-58V-39L228,-49Z"
id="f6_cv"
transform="scale(0.001,-0.001)"/>

<path d="M347,-57C347,-57,66,211,66,394c0,0,0,98,74,164c0,0,74,65,225,65H616V822H0l-45,76l14,31H880l46,-76L912,822H677l66,-58V-39L706,-49L616,8V500H428c0,0,-239,0,-239,-161c0,0,0,-136,214,-343L347,-57Z"
id="f6_bp"
transform="scale(0.001,-0.001)"/>

<path d="M768,-49L678,8V202c0,0,-73,-58,-172,-58c0,0,-123,0,-240,94c0,0,-118,94,-179,237l20,55c0,0,134,12,215,70c0,0,81,57,81,141c0,0,0,90,-67,134l-26,3c0,0,-46,0,-74,-29c0,0,-28,-30,-28,-68c0,0,0,-55,82,-109L252,620C252,620,93,720,93,820c0,0,0,65,47,104c0,0,46,40,114,40c0,0,99,0,179,-83c0,0,80,-83,82,-197c0,0,0,-93,-79,-165c0,0,-78,-73,-199,-97c0,0,29,-104,88,-158c0,0,42,-16,92,-16c0,0,78,0,151,38c0,0,74,38,110,111V822H553l-46,76l14,31H943l45,-76L975,822H739l66,-58V-39L768,-49Z"
id="f6_bq"
transform="scale(0.001,-0.001)"/>

<path d="M483,-305L295,-10c0,0,-90,22,-156,74l41,170h66L351,63c0,0,126,4,207,62c0,0,82,58,82,139c0,0,0,37,-18,71L365,266c0,0,-110,15,-197,102c0,0,-87,87,-87,176c0,0,0,69,59,117c0,0,59,48,172,48H550V822H0l-45,76l14,31H550c0,0,-142,122,-142,255c0,0,0,78,52,133c0,0,52,55,140,55c0,0,98,0,176,-64l-23,-69c0,0,-53,32,-104,32c0,0,-56,0,-94,-36c0,0,-39,-36,-39,-95c0,0,0,-109,112,-211H822l46,-76L854,822H603l66,-58V585H373c0,0,-184,0,-184,-99c0,0,0,-48,63,-101l310,78c0,0,86,-34,141,-99c0,0,55,-65,55,-142c0,0,0,-109,-98,-179c0,0,-98,-69,-254,-69L599,-216L483,-305Z"
id="f6_ao"
transform="scale(0.001,-0.001)"/>

<path d="M108,-433L-59,-214c0,0,-99,119,-191,119c0,0,-59,0,-96,-35c0,0,-36,-34,-36,-81c0,0,0,-49,42,-83l152,95l64,-116c0,0,-71,-58,-148,-58c0,0,-80,0,-146,63c0,0,-65,64,-65,144c0,0,0,77,62,131c0,0,61,53,142,53c0,0,138,0,296,-205L165,-393l-57,-40Z"
id="f6_cx"
transform="scale(0.001,-0.001)"/>

<path d="M290,-236c0,0,-253,348,-253,685c0,0,0,342,270,669l80,-39c0,0,-207,-311,-207,-622c0,0,0,-326,193,-652l-83,-41Z"
id="f6_g"
transform="scale(0.001,-0.001)"/>

<path d="M95,0L67,98L422,497c0,0,130,154,130,259c0,0,0,63,-40,111c0,0,-40,48,-121,48c0,0,-75,0,-171,-29L193,695l-88,2c0,0,-13,82,-13,165l1,65c0,0,159,97,315,97c0,0,122,0,207,-78c0,0,85,-77,85,-193c0,0,0,-67,-34,-133c0,0,-33,-67,-165,-217L237,121l4,-14l373,21l49,136l83,-12C746,252,732,99,704,0Z"
id="f6_q"
transform="scale(0.001,-0.001)"/>

<path d="M130,-236l-83,41c0,0,193,326,193,652c0,0,0,311,-206,622l79,39c0,0,270,-327,270,-669c0,0,0,-337,-253,-685Z"
id="f6_h"
transform="scale(0.001,-0.001)"/>

<path d="M0,822l-45,76l14,31H38L84,853L70,822Z"
id="f6_nl"
transform="scale(0.001,-0.001)"/>

<path d="M827,-49L736,8V205c0,0,-84,-84,-209,-84c0,0,-130,0,-237,91c0,0,-108,92,-108,196c0,0,0,79,61,137C243,545,66,672,66,791c0,0,0,75,52,124c0,0,53,49,134,49c0,0,164,0,260,-237L451,694c0,0,-55,114,-119,163l-31,5c0,0,-44,0,-77,-32c0,0,-33,-31,-33,-78c0,0,0,-86,113,-165c0,0,60,27,133,27l67,-4l75,-89L564,490l-51,7H493c0,0,-90,0,-142,-43c0,0,-52,-43,-52,-104c0,0,0,-60,51,-109c0,0,33,-16,84,-16c0,0,89,0,177,47c0,0,89,47,125,137V822H567l-46,76l14,31h466l46,-76l-14,-31H798l65,-58V-39L827,-49Z"
id="f6_bs"
transform="scale(0.001,-0.001)"/>

<path d="M900,298c0,0,32,73,32,159c0,0,0,110,-38,160c0,0,-40,31,-81,31c0,0,-48,0,-80,-35c0,0,-33,-35,-33,-89c0,0,0,-118,200,-226ZM588,-60c0,0,-154,0,-274,93c0,0,-120,94,-120,207c0,0,0,50,28,92C222,332,61,440,61,552c0,0,0,71,56,122c0,0,56,50,169,50H417l64,-98L463,600H333c0,0,-157,-1,-157,-99c0,0,0,-59,88,-124c0,0,68,52,164,52c0,0,38,0,79,-9l71,-88L558,299c0,0,-46,10,-81,10c0,0,-75,0,-116,-36c0,0,-40,-36,-40,-88c0,0,0,-78,73,-130c0,0,54,-17,109,-17c0,0,114,0,211,54c0,0,97,53,154,145c0,0,-156,96,-223,173c0,0,-67,77,-67,155c0,0,0,72,48,124c0,0,48,52,126,55v78H0l-45,76l14,31H1123l46,-76l-14,-31H805l66,-58V717c0,0,76,-40,124,-124c0,0,47,-84,47,-193c0,0,0,-188,-133,-324C909,76,776,-60,588,-60Z"
id="f6_bf"
transform="scale(0.001,-0.001)"/>

<path d="M374,248c0,0,77,0,149,36c0,0,71,37,110,107V822H284c0,0,138,-96,138,-208c0,0,0,-151,-228,-192c0,0,29,-104,89,-158c0,0,41,-16,91,-16ZM723,-49L633,8V200c0,0,-69,-56,-170,-56c0,0,-122,0,-240,94c0,0,-118,94,-179,237l20,55c0,0,133,17,187,44c0,0,55,28,55,84c0,0,0,45,-30,81c0,0,-30,36,-99,83H0l-45,76l14,31H897l46,-76L929,822H694l65,-58V-39L723,-49Z"
id="f6_c0"
transform="scale(0.001,-0.001)"/>

<path d="M-234,-413c0,0,-210,0,-488,322l54,49c0,0,119,-128,209,-193c0,0,90,-65,177,-65c0,0,72,0,113,40c0,0,42,39,42,91c0,0,0,75,-78,106L-323,-181l-90,98c0,0,63,95,167,95c0,0,90,0,155,-69c0,0,66,-70,66,-164c0,0,0,-85,-60,-139c0,0,-61,-53,-149,-53Z"
id="f6_cw"
transform="scale(0.001,-0.001)"/>

<path d="M413,-59C413,-59,53,193,53,416c0,0,0,97,66,164c0,0,66,66,156,66c0,0,61,0,110,-30L487,507c0,0,92,126,257,126l35,-2V822H0l-45,76l14,31H1043l46,-76l-13,-31H840l66,-58V-39L869,-49L779,8V547c0,0,-101,-5,-165,-90c0,0,-64,-86,-70,-222L507,225l-90,73c0,0,5,79,35,151c0,0,-59,66,-128,66c0,0,-57,0,-100,-38c0,0,-44,-39,-44,-109c0,0,0,-165,284,-360L413,-59Z"
id="f6_c3"
transform="scale(0.001,-0.001)"/>

<path d="M283,260c0,0,122,0,209,113V513c0,0,-90,51,-160,51c0,0,-80,0,-129,-50c0,0,-49,-50,-49,-118c0,0,0,-60,35,-110c0,0,45,-26,94,-26ZM582,-49L492,8V211c0,0,-63,-54,-141,-54c0,0,-113,0,-213,92c0,0,-100,92,-100,205c0,0,0,93,69,157c0,0,69,64,162,64c0,0,32,0,64,-9L492,590V822H0l-45,76l14,31H1108l45,-76l-13,-31H553l66,-58V524c0,0,91,89,192,89c0,0,98,0,171,-79c0,0,72,-79,72,-186c0,0,0,-178,-224,-330L736,124c0,0,219,153,219,269c0,0,0,44,-26,75c0,0,-26,32,-81,32c0,0,-109,0,-229,-155V-39L582,-49Z"
id="f6_b9"
transform="scale(0.001,-0.001)"/>

<path d="M254,-26c0,0,-84,16,-116,92c0,0,13,84,97,127c0,0,100,-36,112,-110C347,83,324,6,254,-26Zm458,0c0,0,-84,16,-116,92c0,0,14,84,98,127c0,0,99,-37,111,-110C805,83,782,6,712,-26Zm458,0c0,0,-84,16,-116,92c0,0,14,84,98,127c0,0,99,-36,111,-110c0,0,-22,-77,-93,-109Z"
id="f6_8l"
transform="scale(0.001,-0.001)"/>

<path d="M-239,897c0,0,-82,61,-132,137c0,0,-50,75,-50,150c0,0,0,78,52,133c0,0,52,55,141,55c0,0,98,0,176,-64l-23,-69c0,0,-52,32,-104,32c0,0,-57,0,-95,-36c0,0,-38,-36,-38,-95c0,0,0,-115,117,-217l-44,-26Z"
id="f6_dr"
transform="scale(0.001,-0.001)"/>

<path d="M342,324c0,0,45,0,75,34c0,0,31,33,31,100V822H165l66,-58V390c0,0,32,-66,111,-66ZM853,-49L762,8V822H509l65,-58V455c0,0,0,-134,-51,-185c0,0,-52,-52,-127,-52c0,0,-98,0,-195,99c0,0,-97,99,-97,209V822H0l-45,76l14,31H1027l46,-76l-14,-31H823l66,-58V-39L853,-49Z"
id="f6_bo"
transform="scale(0.001,-0.001)"/>

<path d="M959,-49L869,8V367c0,0,-32,-13,-64,-13c0,0,-50,0,-110,25c0,0,23,-52,23,-109c0,0,0,-103,-70,-170c0,0,-70,-66,-182,-66c0,0,-110,0,-222,82c0,0,-111,83,-213,293l68,42c0,0,72,-155,152,-231c0,0,81,-76,178,-76c0,0,83,0,131,49c0,0,48,48,48,117c0,0,0,54,-30,100c0,0,-31,47,-91,65L325,391L257,512c0,0,68,53,156,56c0,0,140,72,140,179c0,0,0,69,-52,99c0,0,-4,1,-11,1c-19,0,-66,-4,-123,-30c0,0,-78,-35,-142,-96L150,823c0,0,119,117,253,117c0,0,98,0,175,-71c0,0,77,-70,77,-159c0,0,0,-103,-94,-180c0,0,39,-23,73,-56c0,0,52,-22,109,-22c0,0,77,0,126,38V822H727l-46,76l14,31h558l-153,215c0,0,-70,92,-157,92c0,0,-69,0,-159,-58l-72,118c0,0,89,73,180,73c0,0,141,0,258,-170L1338,929h197l46,-76l-13,-31H1332l66,-58V-39l-37,-10L1271,8V822H930l66,-58V-39L959,-49Z"
id="f6_b1"
transform="scale(0.001,-0.001)"/>

<path d="M348,229c0,0,57,0,106,17L263,559c0,0,-95,-50,-95,-162c0,0,0,-75,52,-136c0,0,49,-32,128,-32Zm170,48c0,0,61,38,96,91V504c0,0,-131,80,-244,80l-35,-2L518,277ZM704,-49L614,8V193c0,0,-84,-65,-192,-65c0,0,-139,0,-255,98c0,0,-115,98,-115,226c0,0,0,106,77,175c0,0,77,70,189,70c0,0,38,0,75,-9L614,578V822H0l-45,76l14,31H878l46,-76L911,822H675l66,-58V-39L704,-49Z"
id="f6_bx"
transform="scale(0.001,-0.001)"/>

<path d="M663,-49L573,8V445H299V280L226,251c0,0,-105,99,-162,238l63,72H573V822H0l-45,76l14,31H837l46,-76L869,822H634l66,-58V-39L663,-49Z"
id="f6_bt"
transform="scale(0.001,-0.001)"/>

<path d="M449,79c0,0,103,0,168,61c0,0,66,60,66,149c0,0,0,93,-84,186H420c0,0,-107,0,-164,-50c0,0,-57,-51,-57,-126c0,0,0,-108,99,-184c0,0,81,-36,151,-36Zm67,-96c0,0,-168,0,-301,109C215,92,81,202,81,350c0,0,0,114,83,182c0,0,84,68,229,68H507V822H0l-45,76l14,31H883l46,-76L915,822H568l66,-58V532c0,0,87,-64,130,-144c0,0,43,-79,43,-157c0,0,0,-109,-81,-179c0,0,-81,-69,-210,-69Z"
id="f6_bl"
transform="scale(0.001,-0.001)"/>

<path d="M396,318c0,0,123,0,203,108V822H180l66,-58V408c0,0,49,-90,150,-90ZM176,-66L79,9L379,228c0,0,-106,23,-181,119c0,0,-76,96,-79,198V822H0l-45,76l14,31H863l46,-76L895,822H660l66,-58V-39L689,-49L599,8V269L176,-66Z"
id="f6_e6"
transform="scale(0.001,-0.001)"/>

<path d="M0,1062c0,0,-26,11,-60,36c0,0,-34,26,-51,49c0,0,39,81,91,110c0,0,60,-23,106,-85c0,0,-28,-70,-86,-110Z"
id="f6_dj"
transform="scale(0.001,-0.001)"/>

<path d="M434,225c0,0,84,0,169,42c0,0,85,43,126,126V822H267c0,0,-64,-49,-64,-115c0,0,0,-79,90,-126c0,0,60,35,144,35l67,-6l75,-89L564,490l-51,7H493c0,0,-90,0,-142,-43c0,0,-52,-43,-52,-104c0,0,0,-60,51,-109c0,0,33,-16,84,-16ZM819,-49L729,8V197c0,0,-83,-76,-202,-76c0,0,-130,0,-237,91c0,0,-108,92,-108,196c0,0,0,72,53,128c0,0,-75,42,-115,97c0,0,-41,56,-41,113c0,0,0,38,22,76H0l-45,76l14,31H993l46,-76l-14,-31H790l66,-58V-39L819,-49Z"
id="f6_bc"
transform="scale(0.001,-0.001)"/>

<path d="M825,-49L735,8V217c0,0,-86,-72,-197,-72c0,0,-130,0,-238,91c0,0,-107,91,-107,204c0,0,0,55,27,105H55L12,616l14,30H574l46,-76L607,539H396c0,0,-78,-49,-78,-162c0,0,0,-70,40,-111c0,0,39,-15,94,-15c0,0,84,0,163,41c0,0,79,41,120,121V822H0l-45,76l14,31H999l46,-76l-14,-31H796l66,-58V-39L825,-49Z"
id="f6_be"
transform="scale(0.001,-0.001)"/>

<path d="M226,-49c0,0,-66,24,-102,78c0,0,32,69,82,101c0,0,55,-20,100,-80c0,0,-26,-66,-80,-99Z"
id="f6_pc"
transform="scale(0.001,-0.001)"/>

<path d="M67,0L58,52c0,0,105,40,209,64V851L81,762L38,831l294,193l71,-39V99L591,73L582,0Z"
id="f6_p"
transform="scale(0.001,-0.001)"/>

<path d="M799,475V822H350l66,-55V564c0,0,0,-43,-25,-89ZM527,-71L52,414l34,92H277c0,0,12,32,12,72V822H0l-45,76l14,31H1063l46,-76l-14,-31H860l66,-58V-39L889,-49L799,8V370H315L264,316L610,34L611,8L527,-71Z"
id="f6_cb"
transform="scale(0.001,-0.001)"/>

<path d="M727,-49L637,8V822H278l66,-58V226L270,196c0,0,-64,36,-122,98c0,0,-58,62,-79,122l43,59H217V822H0l-45,76l14,31H901l46,-76L933,822H698l66,-58V-39L727,-49Z"
id="f6_bb"
transform="scale(0.001,-0.001)"/>

<path d="M856,445L840,822H350l66,-55V564c0,0,0,-31,-11,-57c0,0,231,0,284,-12c0,0,54,-12,92,-50Zm450,0V822H903l66,-58l7,-319ZM527,-71L52,414l34,92H277c0,0,12,32,12,72V822H0l-45,76l14,31H1571l45,-76l-13,-31H1367l66,-58V-39l-37,-10L1306,8V328H987V180L914,150c0,0,-54,33,-114,98c0,0,-61,65,-90,125c0,0,-32,18,-105,18H335L264,316L610,34L611,8L527,-71Z"
id="f6_ki"
transform="scale(0.001,-0.001)"/>

<path d="M382,322c0,0,86,0,154,57L231,762V408c0,0,46,-86,151,-86ZM438,206c0,0,-119,0,-226,109c0,0,-108,108,-108,243V822H0l-45,76l14,31H558l45,-76L590,822H280L669,338c0,0,-44,-66,-108,-99c0,0,-63,-33,-123,-33Z"
id="f6_m0"
transform="scale(0.001,-0.001)"/>

<path d="M252,385l310,78l22,-9c0,0,107,-43,200,-43c0,0,91,0,151,41V822H603l66,-58V585H373c0,0,-184,0,-184,-99c0,0,0,-48,63,-101ZM483,-305L295,-10c0,0,-90,22,-156,74l41,170h66L351,63c0,0,126,4,207,62c0,0,82,58,82,139c0,0,0,37,-18,71L365,266c0,0,-110,15,-197,102c0,0,-87,87,-87,176c0,0,0,69,59,117c0,0,59,48,172,48H550V822H0l-45,76l14,31H1199l46,-76l-14,-31H996l66,-58V-39l-37,-10L935,8V318c0,0,-41,-15,-78,-15c0,0,-52,0,-131,30c0,0,32,-55,32,-111c0,0,0,-109,-98,-179c0,0,-98,-69,-254,-69L599,-216L483,-305Z"
id="f6_bh"
transform="scale(0.001,-0.001)"/>

<path d="M823,-49L733,8V339H445V191L371,160c0,0,-56,36,-120,105c0,0,-63,70,-89,131l41,59H313V735c0,0,0,99,-55,140c0,0,-3,1,-8,1c-16,0,-48,-3,-71,-23c0,0,-31,-26,-31,-66c0,0,0,-69,81,-113L189,620C189,620,31,720,31,828c0,0,0,61,45,99c0,0,46,37,109,37c0,0,96,0,173,-86c0,0,76,-87,79,-194V455H733V822H556l-46,76l14,31H998l45,-76l-13,-31H794l66,-58V-39L823,-49Z"
id="f6_by"
transform="scale(0.001,-0.001)"/>

<path d="M761,293c0,0,127,0,169,94V532c0,0,-68,46,-145,46c0,0,-76,0,-121,-46c0,0,-45,-45,-45,-107c0,0,0,-61,44,-110c0,0,47,-22,98,-22ZM657,67c0,0,166,0,273,107v55c0,0,-45,-36,-111,-36c0,0,-110,0,-207,90c0,0,-97,90,-97,194c0,0,0,85,66,148c0,0,65,63,155,63l48,-5L930,603V822H376l62,-55V579c0,0,0,-60,-23,-102c0,0,-24,-42,-148,-190c0,0,66,-104,175,-162c0,0,108,-58,215,-58ZM1021,-49L930,8V53c0,0,-105,-83,-264,-83c0,0,-177,0,-339,128C327,98,165,226,90,429l34,77H296c0,0,19,39,19,102l-2,214H0l-45,76l14,31H1195l46,-76l-14,-31H992l65,-58V-39l-36,-10Z"
id="f6_ba"
transform="scale(0.001,-0.001)"/>

<path d="M368,344c0,0,90,0,155,73V822H150l67,-58V438c0,0,46,-94,151,-94ZM613,-49L523,8V251c0,0,-48,-28,-103,-28c0,0,-122,0,-227,112C193,335,89,448,89,590V822H0l-45,76l14,31H1150l46,-76l-13,-31H584l65,-58V533c0,0,101,95,211,95c0,0,98,0,170,-79c0,0,73,-78,73,-185c0,0,0,-179,-225,-330L785,139c0,0,219,153,219,269c0,0,0,43,-26,75c0,0,-26,32,-80,32c0,0,-120,0,-249,-159V-39L613,-49Z"
id="f6_bw"
transform="scale(0.001,-0.001)"/>

<path d="M527,-71L52,414l34,92H277c0,0,12,32,12,72V822H0l-45,76l14,31H940l45,-76L972,822H350l66,-55V570c0,0,146,98,247,98c0,0,95,0,167,-73c0,0,71,-72,71,-167c0,0,0,-77,-53,-142c0,0,-54,-64,-159,-136l-89,99c0,0,100,70,152,121c0,0,52,52,52,105c0,0,0,34,-23,60c0,0,-22,26,-72,26c0,0,-139,0,-434,-252L610,34L611,8L527,-71Z"
id="f6_n0"
transform="scale(0.001,-0.001)"/>

<path d="M513,460c0,0,61,81,61,179c0,0,0,87,-45,143c0,0,-45,57,-116,57c0,0,-63,0,-102,-43c0,0,-39,-43,-39,-110c0,0,0,-90,68,-151c0,0,68,-61,173,-75ZM581,-83L278,167l-41,-4c0,0,-99,0,-130,37l47,168l51,12l78,-79c0,0,110,40,183,105c0,0,-141,23,-231,107c0,0,-90,84,-90,193c0,0,0,69,37,116H0l-45,76l14,31H1134l45,-76l-13,-31H930l66,-58V-39L959,-49L869,8V822H588c0,0,51,-44,75,-109c0,0,25,-64,25,-122c0,0,0,-105,-81,-213c0,0,-80,-108,-240,-176L658,18l2,-25L581,-83Z"
id="f6_c8"
transform="scale(0.001,-0.001)"/>

<path d="M487,-7c0,0,-88,0,-185,46c0,0,-97,47,-163,130c0,0,-66,83,-66,185c0,0,0,109,80,177c0,0,79,68,234,68H504V822H0l-45,76l14,31H827l45,-76L859,822H565l66,-58V474l-3,1l3,-3H396c0,0,-100,0,-152,-47c0,0,-53,-48,-53,-119c0,0,0,-104,93,-178c0,0,60,-20,118,-20c0,0,81,0,156,36c0,0,76,35,123,99l92,-99C773,144,723,70,645,31C645,31,567,-7,487,-7Z"
id="f6_bk"
transform="scale(0.001,-0.001)"/>

<path d="M306,75c0,0,82,0,155,150l74,163c0,0,-109,142,-199,142c0,0,-69,0,-116,-66c0,0,-47,-67,-47,-160c0,0,0,-82,38,-145c0,0,38,-63,95,-84Zm452,32c0,0,87,0,134,66c0,0,48,67,48,154c0,0,0,82,-43,155c0,0,-43,73,-113,88c0,0,-40,-25,-84,-116L588,214c0,0,80,-107,170,-107ZM787,-7c0,0,-55,0,-113,30L555,153C555,153,460,-5,339,-5c0,0,-110,0,-195,109c0,0,-86,110,-86,250c0,0,0,126,71,209c0,0,71,83,172,83c0,0,67,0,113,-29L567,455c0,0,73,153,148,185V822H0l-45,76l14,31H1097l46,-76l-14,-31H776l66,-58V631c0,0,81,-40,142,-134c0,0,61,-94,61,-211c0,0,0,-126,-74,-210C971,76,897,-7,787,-7Z"
id="f6_c5"
transform="scale(0.001,-0.001)"/>

<path d="M228,-49L138,8V822H0l-45,76l14,31H134c0,0,-91,93,-91,202c0,0,0,105,85,170c0,0,86,65,236,65c0,0,340,0,742,-350l-50,-46c0,0,-182,135,-340,208c0,0,-158,73,-302,73c0,0,-113,0,-183,-48c0,0,-69,-48,-69,-132c0,0,0,-63,53,-142H402l46,-76L434,822H199l65,-58V-39L228,-49Z"
id="f6_nt"
transform="scale(0.001,-0.001)"/>

<path d="M228,-49L138,8V822H0l-45,76l14,31H134c0,0,-91,92,-91,191c0,0,0,105,85,170c0,0,84,65,219,65c0,0,128,0,293,-76c0,0,165,-77,362,-263L958,966c0,0,-177,143,-303,210c0,0,-125,68,-244,68c0,0,-107,0,-175,-50c0,0,-68,-50,-68,-131c0,0,0,-61,49,-134H402l46,-76L434,822H199l65,-58V-39L228,-49Z"
id="f6_cu"
transform="scale(0.001,-0.001)"/>

<path d="M-214,863l-199,281c0,0,-70,92,-157,92c0,0,-69,0,-159,-58l-72,118c0,0,89,73,180,73c0,0,136,0,251,-159l59,-84l-3,34c0,0,0,76,53,127c0,0,53,51,129,51c0,0,93,0,163,-91L5,1195c0,0,-51,33,-102,33c0,0,-62,0,-101,-38c0,0,-39,-38,-39,-102c0,0,0,-83,96,-197l-20,-28Z"
id="f6_p0"
transform="scale(0.001,-0.001)"/>

<path d="M652,-518c0,0,-209,0,-487,322l53,49c0,0,120,-129,210,-193c0,0,90,-65,177,-65c0,0,72,0,113,39c0,0,41,40,41,92c0,0,0,75,-78,105L564,-286l-90,98c0,0,62,96,169,96L605,37C605,37,552,18,498,18c0,0,-151,0,-288,115C210,133,73,248,73,388c0,0,0,113,84,184c0,0,84,71,222,73H524V822H0l-45,76l14,31H842l46,-76L874,822H567l84,-73V519l-3,2l3,-3H408c0,0,-93,0,-153,-52c0,0,-59,-52,-59,-128c0,0,0,-121,110,-188c0,0,53,-17,105,-17c0,0,92,0,153,43L535,318l101,49L773,203c0,0,-20,-67,-87,-122l61,-204c0,0,52,-32,83,-87c0,0,32,-55,32,-116c0,0,0,-85,-61,-139c0,0,-60,-53,-149,-53Z"
id="f6_mv"
transform="scale(0.001,-0.001)"/>

<path d="M163,118c0,0,-65,24,-102,79c0,0,32,69,83,101c0,0,55,-20,99,-80c0,0,-26,-67,-80,-100Zm0,382c0,0,-65,24,-102,79c0,0,32,69,83,101c0,0,55,-20,99,-80c0,0,-26,-67,-80,-100Z"
id="f6_dk"
transform="scale(0.001,-0.001)"/>

<path d="M283,260c0,0,122,0,209,113V513c0,0,-90,51,-160,51c0,0,-80,0,-129,-50c0,0,-49,-50,-49,-118c0,0,0,-60,35,-110c0,0,45,-26,94,-26ZM582,-49L492,8V211c0,0,-63,-54,-141,-54c0,0,-113,0,-214,92c0,0,-102,92,-102,206c0,0,0,93,69,157c0,0,69,63,163,63c0,0,34,0,66,-9L492,590V822H0l-45,76l14,31H909l46,-76L941,822H553l66,-58V521c0,0,93,104,192,104c0,0,63,0,120,-42c0,0,57,-42,82,-106L964,431l-5,9c0,0,-38,72,-110,72c0,0,-51,0,-105,-41c0,0,-53,-42,-125,-129V-39L582,-49Z"
id="f6_l1"
transform="scale(0.001,-0.001)"/>

<path d="M387,-28c0,0,-158,0,-295,71l27,137c0,0,168,-84,329,-84c0,0,47,0,85,9c0,0,57,62,57,141c0,0,0,82,-66,140c0,0,-66,57,-188,57L228,438l-3,104h26c0,0,145,5,212,67c0,0,67,62,67,146c0,0,0,75,-51,123c0,0,-51,49,-143,49c0,0,-50,0,-105,-16L203,743l-88,1c0,0,-14,83,-14,139l1,58c0,0,120,83,280,83c0,0,128,0,211,-71c0,0,82,-71,82,-177c0,0,0,-73,-45,-137c0,0,-45,-65,-132,-98c0,0,96,-22,163,-103c0,0,66,-80,66,-178c0,0,0,-126,-94,-207c0,0,-95,-81,-246,-81Z"
id="f6_r"
transform="scale(0.001,-0.001)"/>

<path d="M0,822l-45,76l14,31H110l46,-76L142,822Z"
id="f6_nm"
transform="scale(0.001,-0.001)"/>

<path d="M332,567c0,0,149,88,149,206c0,0,0,35,-15,69c0,0,-41,27,-83,27c0,0,-55,0,-95,-41c0,0,-40,-41,-40,-105c0,0,0,-94,84,-156ZM610,-324L533,-17c0,0,-50,-17,-101,-17c0,0,-136,0,-254,101C178,67,60,170,60,283c0,0,0,67,51,126c0,0,51,59,159,126c0,0,-137,114,-137,233c0,0,0,83,57,140c0,0,58,56,143,56c0,0,99,0,173,-78c0,0,75,-78,75,-174c0,0,0,-113,-126,-205c0,0,89,-24,200,-24l150,9V822H652l-45,76l13,31h449l46,-76l-13,-31H866l66,-58V-39L895,-49L805,8V370l-62,-3c0,0,-182,0,-353,90c0,0,-117,-64,-168,-119c0,0,-51,-55,-51,-121c0,0,0,-49,37,-102c0,0,52,-34,130,-34c0,0,76,0,143,32L460,220l101,49L692,130c0,0,-14,-47,-87,-110L747,-271L610,-324Z"
id="f6_eq"
transform="scale(0.001,-0.001)"/>

<path d="M188,365l310,9V738l18,139L188,365ZM338,0L328,52l170,55V267H73L38,354l478,670l118,-16V377l176,5l1,-76L768,267H634V90L761,73L752,0Z"
id="f6_s"
transform="scale(0.001,-0.001)"/>

<path d="M725,307c0,0,-95,0,-218,78c0,0,-123,78,-188,78c0,0,-54,0,-95,-34c0,0,-41,-34,-73,-100L93,362c0,0,38,88,101,146c0,0,63,59,148,59c0,0,90,0,214,-78c0,0,124,-79,188,-79c0,0,63,0,106,34c0,0,42,33,85,104l60,-40c0,0,-32,-66,-101,-134c0,0,-70,-67,-169,-67Z"
id="f7_4r"
transform="scale(0.001,-0.001)"/>

<path d="M435,0V856c0,0,-48,-47,-127,-93c0,0,-79,-46,-142,-69V824c0,0,113,52,197,128c0,0,85,75,120,146h86V0Z"
id="f8_l"
transform="scale(0.001,-0.001)"/>

<path d="M435,92c0,0,85,0,146,69c0,0,60,68,60,186c0,0,0,114,-60,179c0,0,-60,66,-152,66c0,0,-90,0,-154,-66c0,0,-63,-65,-63,-171c0,0,0,-70,30,-133c0,0,29,-64,82,-97c0,0,52,-33,111,-33Zm2,-110c0,0,-168,0,-273,123C164,105,58,228,58,512c0,0,0,317,117,461c0,0,102,125,275,125c0,0,129,0,211,-72c0,0,82,-72,99,-200L626,815c0,0,-18,79,-51,115c0,0,-54,58,-134,58c0,0,-64,0,-112,-36c0,0,-63,-46,-99,-135c0,0,-37,-89,-38,-253c0,0,48,74,118,110c0,0,70,36,147,36c0,0,134,0,228,-99c0,0,94,-99,94,-256c0,0,0,-103,-44,-191C735,164,691,75,613,28c0,0,-77,-46,-176,-46Z"
id="f8_q"
transform="scale(0.001,-0.001)"/>


</defs>
</svg>