<?xml version="1.0" encoding="UTF-8" standalone="no"?>
<!DOCTYPE svg PUBLIC "-//W3C//DTD SVG 1.1//EN"
"http://www.w3.org/Graphics/SVG/1.1/DTD/svg11.dtd">
<svg viewBox="0 0 641 910" version="1.1" xmlns="http://www.w3.org/2000/svg" xmlns:xlink="http://www.w3.org/1999/xlink">
<defs>
<clipPath id="c0_51"><path d="M0,909.8V0H641.7V909.8Z"/></clipPath>
<clipPath id="c1_51"><path d="M0,908.6V0H641.7V908.6Z"/></clipPath>
<style type="text/css"><![CDATA[
.g0_51{
fill: #FFFFFF;
}
.g1_51{
}
]]></style>
</defs>
<path d="M0,0H641.7V909.8H0V0Z" class="g0_51"/>
<path d="M0,0H641.7V909.8H0V0Z" class="g0_51"/>
<g clip-path="url(#c0_51)">
<path d="M0,-40030.7H641.7V66414.8H0V-40030.7Z" class="g0_51"/>
</g>
<path d="M0,0H641.7V908.6H0V0Z" class="g0_51"/>
<path d="M19.5,60.7H602.7v1.2H19.5V60.7Z" class="g1_51"/>
<g clip-path="url(#c1_51)">
<path d="M0,61.9H641.7V909.8H0V61.9Z" class="g0_51"/>
</g>
<path d="M19.5,61.9H602.7V110H19.5V61.9Z" class="g0_51"/>
<path d="M19.5,108.9H602.7v26.3H19.5V108.9Z" class="g0_51"/>
<path d="M19.5,134.1H602.7v26.3H19.5V134.1Z" class="g0_51"/>
<path d="M19.5,159.3H602.7v26.3H19.5V159.3Z" class="g0_51"/>
<path d="M19.5,209.7H602.7V236H19.5V209.7Z" class="g0_51"/>
<path d="M19.5,234.9H602.7v26.4H19.5V234.9Z" class="g0_51"/>
<path d="M19.5,285.3H602.7v26.4H19.5V285.3Z" class="g0_51"/>
<path d="M19.5,310.5H602.7v26.4H19.5V310.5Z" class="g0_51"/>
<path d="M19.5,360.9H602.7v26.4H19.5V360.9Z" class="g0_51"/>
<path d="M19.5,386.1H602.7v26.4H19.5V386.1Z" class="g0_51"/>
<path d="M19.5,436.6H602.7v26.3H19.5V436.6Z" class="g0_51"/>
<path d="M19.5,461.8H602.7v26.3H19.5V461.8Z" class="g0_51"/>
<g clip-path="url(#c1_51)">
<g fill="#000000" >
<use xlink:href="#f5_by" transform="matrix(14,0,0,14,228.3,96.3)" />
<use xlink:href="#f5_ct" transform="matrix(14,0,0,14,243.3,96.3)" />
<use xlink:href="#f5_ba" transform="matrix(14,0,0,14,249.8,96.3)" />
<use xlink:href="#f5_c1" transform="matrix(14,0,0,14,268.7,96.3)" />
<use xlink:href="#f5_cv" transform="matrix(14,0,0,14,278.9,96.3)" />
<use xlink:href="#f5_c0" transform="matrix(14,0,0,14,285.4,96.3)" />
<use xlink:href="#f5_ct" transform="matrix(14,0,0,14,299.5,96.3)" />
<use xlink:href="#f5_bm" transform="matrix(14,0,0,14,311.6,96.3)" />
<use xlink:href="#f5_cw" transform="matrix(14,0,0,14,323.3,97.7)" />
<use xlink:href="#f5_dj" transform="matrix(14,0,0,14,321,96.4)" />
<use xlink:href="#f5_bb" transform="matrix(14,0,0,14,324.9,96.3)" />
<use xlink:href="#f5_nr" transform="matrix(14,0,0,14,339.1,96.3)" />
<use xlink:href="#f5_c1" transform="matrix(14,0,0,14,345.6,96.3)" />
<use xlink:href="#f5_c0" transform="matrix(14,0,0,14,355.8,96.3)" />
<use xlink:href="#f5_ct" transform="matrix(14,0,0,14,369.8,96.3)" />
<use xlink:href="#f5_c1" transform="matrix(14,0,0,14,382,96.3)" />
<use xlink:href="#f5_d4" transform="matrix(14,0,0,14,391.9,96.3)" />
</g>
<g fill="#222222" >
<use xlink:href="#f6_by" transform="matrix(14,0,0,14,169.9,154.7)" />
<use xlink:href="#f6_ct" transform="matrix(14,0,0,14,183.8,154.7)" />
<use xlink:href="#f6_ba" transform="matrix(14,0,0,14,189.5,154.7)" />
<use xlink:href="#f6_c1" transform="matrix(14,0,0,14,206.2,154.7)" />
<use xlink:href="#f6_cv" transform="matrix(14,0,0,14,214.6,154.7)" />
<use xlink:href="#f6_c0" transform="matrix(14,0,0,14,220.2,154.7)" />
<use xlink:href="#f6_ct" transform="matrix(14,0,0,14,232.7,154.7)" />
<use xlink:href="#f6_bm" transform="matrix(14,0,0,14,244,154.7)" />
<use xlink:href="#f6_cw" transform="matrix(14,0,0,14,255.7,155.5)" />
<use xlink:href="#f6_dj" transform="matrix(14,0,0,14,253.4,155.1)" />
<use xlink:href="#f6_bb" transform="matrix(14,0,0,14,256.7,154.7)" />
<use xlink:href="#f6_nr" transform="matrix(14,0,0,14,269.3,154.7)" />
<use xlink:href="#f6_c1" transform="matrix(14,0,0,14,274.9,154.7)" />
<use xlink:href="#f6_c0" transform="matrix(14,0,0,14,283.3,154.7)" />
<use xlink:href="#f6_ct" transform="matrix(14,0,0,14,295.9,154.7)" />
<use xlink:href="#f6_c1" transform="matrix(14,0,0,14,307.1,154.7)" />
<use xlink:href="#f6_d4" transform="matrix(14,0,0,14,315.1,154.7)" />
<use xlink:href="#f6_k" transform="matrix(14,0,0,14,321.2,154.7)" />
<use xlink:href="#f6_by" transform="matrix(14,0,0,14,326.4,154.7)" />
<use xlink:href="#f6_d4" transform="matrix(14,0,0,14,340.5,154.7)" />
<use xlink:href="#f6_n1" transform="matrix(14,0,0,14,340.4,154.7)" />
<use xlink:href="#f6_bq" transform="matrix(14,0,0,14,359.2,154.7)" />
<use xlink:href="#f6_d8" transform="matrix(14,0,0,14,372.4,154.7)" />
<use xlink:href="#f6_c1" transform="matrix(14,0,0,14,378,154.7)" />
<use xlink:href="#f6_ct" transform="matrix(14,0,0,14,386.4,154.7)" />
<use xlink:href="#f6_bs" transform="matrix(14,0,0,14,397.7,154.7)" />
<use xlink:href="#f6_d8" transform="matrix(14,0,0,14,411.7,154.7)" />
<use xlink:href="#f6_bz" transform="matrix(14,0,0,14,417.3,154.7)" />
<use xlink:href="#f6_c1" transform="matrix(14,0,0,14,436.3,154.7)" />
<use xlink:href="#f6_ct" transform="matrix(14,0,0,14,444.7,154.7)" />
<use xlink:href="#f6_bh" transform="matrix(14,0,0,14,143.5,179.9)" />
<use xlink:href="#f6_cv" transform="matrix(14,0,0,14,160.3,179.9)" />
<use xlink:href="#f6_bt" transform="matrix(14,0,0,14,165.9,179.9)" />
<use xlink:href="#f6_cv" transform="matrix(14,0,0,14,177.7,179.9)" />
<use xlink:href="#f6_bh" transform="matrix(14,0,0,14,188.9,179.9)" />
<use xlink:href="#f6_cv" transform="matrix(14,0,0,14,205.7,179.9)" />
<use xlink:href="#f6_bt" transform="matrix(14,0,0,14,211.3,179.9)" />
<use xlink:href="#f6_cv" transform="matrix(14,0,0,14,223.1,179.9)" />
<use xlink:href="#f6_ap" transform="matrix(14,0,0,14,234.3,179.9)" />
<use xlink:href="#f6_ch" transform="matrix(14,0,0,14,245.7,179.9)" />
<use xlink:href="#f6_d4" transform="matrix(14,0,0,14,258.3,179.9)" />
<use xlink:href="#f6_bx" transform="matrix(14,0,0,14,264.1,179.9)" />
<use xlink:href="#f6_ct" transform="matrix(14,0,0,14,276.3,179.9)" />
<use xlink:href="#f6_c3" transform="matrix(14,0,0,14,282,179.9)" />
<use xlink:href="#f6_cx" transform="matrix(14,0,0,14,296.6,179.8)" />
<use xlink:href="#f6_c1" transform="matrix(14,0,0,14,302.3,179.9)" />
<use xlink:href="#f6_d4" transform="matrix(14,0,0,14,310.3,179.9)" />
<use xlink:href="#f6_bp" transform="matrix(14,0,0,14,310.7,179.9)" />
<use xlink:href="#f6_k" transform="matrix(14,0,0,14,328.7,179.9)" />
<use xlink:href="#f6_by" transform="matrix(14,0,0,14,333.9,179.9)" />
<use xlink:href="#f6_d4" transform="matrix(14,0,0,14,348,179.9)" />
<use xlink:href="#f6_n1" transform="matrix(14,0,0,14,347.9,179.9)" />
<use xlink:href="#f6_cb" transform="matrix(14,0,0,14,366.7,179.9)" />
<use xlink:href="#f6_cw" transform="matrix(14,0,0,14,382.1,179.8)" />
<use xlink:href="#f6_ba" transform="matrix(14,0,0,14,381.6,179.9)" />
<use xlink:href="#f6_br" transform="matrix(14,0,0,14,398.3,179.9)" />
<use xlink:href="#f6_ct" transform="matrix(14,0,0,14,410,179.9)" />
<use xlink:href="#f6_ao" transform="matrix(14,0,0,14,415.6,179.9)" />
<use xlink:href="#f6_b1" transform="matrix(14,0,0,14,432.7,179.9)" />
<use xlink:href="#f6_ng" transform="matrix(14,0,0,14,459.9,179.9)" />
<use xlink:href="#f6_ng" transform="matrix(14,0,0,14,469.3,179.9)" />
<use xlink:href="#f6_bz" transform="matrix(14,0,0,14,189.4,230.3)" />
<use xlink:href="#f6_ct" transform="matrix(14,0,0,14,202.7,230.3)" />
<use xlink:href="#f6_c3" transform="matrix(14,0,0,14,208.3,230.3)" />
<use xlink:href="#f6_ct" transform="matrix(14,0,0,14,223,230.3)" />
<use xlink:href="#f6_bg" transform="matrix(14,0,0,14,234.3,230.3)" />
<use xlink:href="#f6_bv" transform="matrix(14,0,0,14,248.6,230.3)" />
<use xlink:href="#f6_bp" transform="matrix(14,0,0,14,260.4,230.3)" />
<use xlink:href="#f6_ct" transform="matrix(14,0,0,14,272.8,230.3)" />
<use xlink:href="#f6_c1" transform="matrix(14,0,0,14,284,230.3)" />
<use xlink:href="#f6_d4" transform="matrix(14,0,0,14,292,230.3)" />
<use xlink:href="#f6_by" transform="matrix(14,0,0,14,298.1,230.3)" />
<use xlink:href="#f6_d4" transform="matrix(14,0,0,14,312.2,230.3)" />
<use xlink:href="#f6_n1" transform="matrix(14,0,0,14,312,230.3)" />
<use xlink:href="#f6_bq" transform="matrix(14,0,0,14,330.9,230.3)" />
<use xlink:href="#f6_d8" transform="matrix(14,0,0,14,344.1,230.3)" />
<use xlink:href="#f6_c1" transform="matrix(14,0,0,14,349.7,230.3)" />
<use xlink:href="#f6_ct" transform="matrix(14,0,0,14,358.1,230.3)" />
<use xlink:href="#f6_bt" transform="matrix(14,0,0,14,369.3,230.3)" />
<use xlink:href="#f6_d8" transform="matrix(14,0,0,14,381.1,230.3)" />
<use xlink:href="#f6_bz" transform="matrix(14,0,0,14,386.7,230.3)" />
<use xlink:href="#f6_c1" transform="matrix(14,0,0,14,405.7,230.3)" />
<use xlink:href="#f6_cv" transform="matrix(14,0,0,14,414.1,230.3)" />
<use xlink:href="#f6_k" transform="matrix(14,0,0,14,425.3,230.3)" />
<use xlink:href="#f6_bs" transform="matrix(14,0,0,14,152.7,255.5)" />
<use xlink:href="#f6_cv" transform="matrix(14,0,0,14,166.7,255.5)" />
<use xlink:href="#f6_c1" transform="matrix(14,0,0,14,172.3,255.5)" />
<use xlink:href="#f6_d4" transform="matrix(14,0,0,14,180.3,255.5)" />
<use xlink:href="#f6_bs" transform="matrix(14,0,0,14,186.4,255.5)" />
<use xlink:href="#f6_cv" transform="matrix(14,0,0,14,200.4,255.5)" />
<use xlink:href="#f6_c1" transform="matrix(14,0,0,14,206,255.5)" />
<use xlink:href="#f6_d4" transform="matrix(14,0,0,14,214,255.5)" />
<use xlink:href="#f6_cc" transform="matrix(14,0,0,14,220,255.5)" />
<use xlink:href="#f6_d8" transform="matrix(14,0,0,14,231.6,255.5)" />
<use xlink:href="#f6_c7" transform="matrix(14,0,0,14,237.3,255.5)" />
<use xlink:href="#f6_bv" transform="matrix(14,0,0,14,255,255.5)" />
<use xlink:href="#f6_cx" transform="matrix(14,0,0,14,266.8,255.4)" />
<use xlink:href="#f6_c1" transform="matrix(14,0,0,14,266.9,255.5)" />
<use xlink:href="#f6_ct" transform="matrix(14,0,0,14,275.3,255.5)" />
<use xlink:href="#f6_b9" transform="matrix(14,0,0,14,286.5,255.5)" />
<use xlink:href="#f6_ct" transform="matrix(14,0,0,14,302,255.5)" />
<use xlink:href="#f6_bg" transform="matrix(14,0,0,14,307.7,255.5)" />
<use xlink:href="#f6_k" transform="matrix(14,0,0,14,327.6,255.5)" />
<use xlink:href="#f6_by" transform="matrix(14,0,0,14,332.8,255.5)" />
<use xlink:href="#f6_d4" transform="matrix(14,0,0,14,346.9,255.5)" />
<use xlink:href="#f6_n1" transform="matrix(14,0,0,14,346.8,255.5)" />
<use xlink:href="#f6_bz" transform="matrix(14,0,0,14,365.6,255.5)" />
<use xlink:href="#f6_bp" transform="matrix(14,0,0,14,378.9,255.5)" />
<use xlink:href="#f6_c7" transform="matrix(14,0,0,14,391.2,255.5)" />
<use xlink:href="#f6_ct" transform="matrix(14,0,0,14,403.3,255.5)" />
<use xlink:href="#f6_c3" transform="matrix(14,0,0,14,408.9,255.5)" />
<use xlink:href="#f6_d8" transform="matrix(14,0,0,14,423.6,255.5)" />
<use xlink:href="#f6_dj" transform="matrix(14,0,0,14,427.9,256.4)" />
<use xlink:href="#f6_c1" transform="matrix(14,0,0,14,434.9,255.5)" />
<use xlink:href="#f6_d4" transform="matrix(14,0,0,14,442.9,255.5)" />
<use xlink:href="#f6_ng" transform="matrix(14,0,0,14,449,255.5)" />
<use xlink:href="#f6_ng" transform="matrix(14,0,0,14,458.3,255.5)" />
<use xlink:href="#f6_bg" transform="matrix(14,0,0,14,193.9,305.9)" />
<use xlink:href="#f6_ct" transform="matrix(14,0,0,14,208.2,305.9)" />
<use xlink:href="#f6_bp" transform="matrix(14,0,0,14,213.8,305.9)" />
<use xlink:href="#f6_br" transform="matrix(14,0,0,14,231.8,305.9)" />
<use xlink:href="#f6_d4" transform="matrix(14,0,0,14,243,305.9)" />
<use xlink:href="#f6_c7" transform="matrix(14,0,0,14,243.5,305.9)" />
<use xlink:href="#f6_bt" transform="matrix(14,0,0,14,255.6,305.9)" />
<use xlink:href="#f6_bt" transform="matrix(14,0,0,14,267.3,305.9)" />
<use xlink:href="#f6_d4" transform="matrix(14,0,0,14,279.1,305.9)" />
<use xlink:href="#f6_c1" transform="matrix(14,0,0,14,284.7,305.9)" />
<use xlink:href="#f6_d4" transform="matrix(14,0,0,14,292.6,305.9)" />
<use xlink:href="#f6_am" transform="matrix(14,0,0,14,298.7,305.9)" />
<use xlink:href="#f6_ao" transform="matrix(14,0,0,14,320.2,305.9)" />
<use xlink:href="#f6_bq" transform="matrix(14,0,0,14,337.3,305.9)" />
<use xlink:href="#f6_d8" transform="matrix(14,0,0,14,350.5,305.9)" />
<use xlink:href="#f6_c1" transform="matrix(14,0,0,14,356.2,305.9)" />
<use xlink:href="#f6_ct" transform="matrix(14,0,0,14,364.5,305.9)" />
<use xlink:href="#f6_b1" transform="matrix(14,0,0,14,375.8,305.9)" />
<use xlink:href="#f6_dj" transform="matrix(14,0,0,14,395.7,306.8)" />
<use xlink:href="#f6_bb" transform="matrix(14,0,0,14,397.3,305.9)" />
<use xlink:href="#f6_bt" transform="matrix(14,0,0,14,409.9,305.9)" />
<use xlink:href="#f6_d4" transform="matrix(14,0,0,14,421.8,305.9)" />
<use xlink:href="#f6_k" transform="matrix(14,0,0,14,421.6,305.9)" />
<use xlink:href="#f6_c1" transform="matrix(14,0,0,14,149.3,331.1)" />
<use xlink:href="#f6_ba" transform="matrix(14,0,0,14,157.6,331.1)" />
<use xlink:href="#f6_d8" transform="matrix(14,0,0,14,174.4,331.1)" />
<use xlink:href="#f6_bq" transform="matrix(14,0,0,14,185.6,331.1)" />
<use xlink:href="#f6_d4" transform="matrix(14,0,0,14,199,331.1)" />
<use xlink:href="#f6_bk" transform="matrix(14,0,0,14,204.5,331.1)" />
<use xlink:href="#f6_ct" transform="matrix(14,0,0,14,216.1,331.1)" />
<use xlink:href="#f6_bx" transform="matrix(14,0,0,14,221.7,331.1)" />
<use xlink:href="#f6_nr" transform="matrix(14,0,0,14,234,331.1)" />
<use xlink:href="#f6_c1" transform="matrix(14,0,0,14,239.6,331.1)" />
<use xlink:href="#f6_c0" transform="matrix(14,0,0,14,248,331.1)" />
<use xlink:href="#f6_ct" transform="matrix(14,0,0,14,260.5,331.1)" />
<use xlink:href="#f6_c1" transform="matrix(14,0,0,14,271.8,331.1)" />
<use xlink:href="#f6_cv" transform="matrix(14,0,0,14,280.2,331.1)" />
<use xlink:href="#f6_c3" transform="matrix(14,0,0,14,291.5,331.1)" />
<use xlink:href="#f6_ct" transform="matrix(14,0,0,14,306.2,331.1)" />
<use xlink:href="#f6_bg" transform="matrix(14,0,0,14,311.8,331.1)" />
<use xlink:href="#f6_k" transform="matrix(14,0,0,14,331.7,331.1)" />
<use xlink:href="#f6_by" transform="matrix(14,0,0,14,337,331.1)" />
<use xlink:href="#f6_d4" transform="matrix(14,0,0,14,351,331.1)" />
<use xlink:href="#f6_n1" transform="matrix(14,0,0,14,350.9,331.1)" />
<use xlink:href="#f6_cu" transform="matrix(14,0,0,14,369.7,331.1)" />
<use xlink:href="#f6_br" transform="matrix(14,0,0,14,375.3,331.1)" />
<use xlink:href="#f6_c3" transform="matrix(14,0,0,14,387,331.1)" />
<use xlink:href="#f6_c7" transform="matrix(14,0,0,14,401.7,331.1)" />
<use xlink:href="#f6_ct" transform="matrix(14,0,0,14,413.8,331.1)" />
<use xlink:href="#f6_c3" transform="matrix(14,0,0,14,419.4,331.1)" />
<use xlink:href="#f6_d8" transform="matrix(14,0,0,14,434.1,331.1)" />
<use xlink:href="#f6_c1" transform="matrix(14,0,0,14,445.4,331.1)" />
<use xlink:href="#f6_d4" transform="matrix(14,0,0,14,453.4,331.1)" />
<use xlink:href="#f6_ng" transform="matrix(14,0,0,14,453.8,331.1)" />
<use xlink:href="#f6_ng" transform="matrix(14,0,0,14,463.2,331.1)" />
<use xlink:href="#f6_bt" transform="matrix(14,0,0,14,176.8,381.6)" />
<use xlink:href="#f6_d8" transform="matrix(14,0,0,14,188.5,381.6)" />
<use xlink:href="#f6_bx" transform="matrix(14,0,0,14,194.1,381.6)" />
<use xlink:href="#f6_bp" transform="matrix(14,0,0,14,206.4,381.6)" />
<use xlink:href="#f6_bt" transform="matrix(14,0,0,14,224.4,381.6)" />
<use xlink:href="#f6_d4" transform="matrix(14,0,0,14,236.2,381.6)" />
<use xlink:href="#f6_bt" transform="matrix(14,0,0,14,241.7,381.6)" />
<use xlink:href="#f6_bb" transform="matrix(14,0,0,14,253.5,381.6)" />
<use xlink:href="#f6_ct" transform="matrix(14,0,0,14,266.1,381.6)" />
<use xlink:href="#f6_ch" transform="matrix(14,0,0,14,271.7,381.6)" />
<use xlink:href="#f6_ct" transform="matrix(14,0,0,14,284.4,381.6)" />
<use xlink:href="#f6_c1" transform="matrix(14,0,0,14,295.7,381.6)" />
<use xlink:href="#f6_d4" transform="matrix(14,0,0,14,303.6,381.6)" />
<use xlink:href="#f6_k" transform="matrix(14,0,0,14,309.7,381.6)" />
<use xlink:href="#f6_bx" transform="matrix(14,0,0,14,314.9,381.6)" />
<use xlink:href="#f6_ct" transform="matrix(14,0,0,14,327.2,381.6)" />
<use xlink:href="#f6_bg" transform="matrix(14,0,0,14,332.8,381.6)" />
<use xlink:href="#f6_d4" transform="matrix(14,0,0,14,347.2,381.6)" />
<use xlink:href="#f6_bq" transform="matrix(14,0,0,14,352.8,381.6)" />
<use xlink:href="#f6_d8" transform="matrix(14,0,0,14,365.9,381.6)" />
<use xlink:href="#f6_c1" transform="matrix(14,0,0,14,371.6,381.6)" />
<use xlink:href="#f6_ct" transform="matrix(14,0,0,14,380,381.6)" />
<use xlink:href="#f6_b1" transform="matrix(14,0,0,14,391.2,381.6)" />
<use xlink:href="#f6_dj" transform="matrix(14,0,0,14,411.1,382.5)" />
<use xlink:href="#f6_bb" transform="matrix(14,0,0,14,412.7,381.6)" />
<use xlink:href="#f6_bo" transform="matrix(14,0,0,14,425.3,381.6)" />
<use xlink:href="#f6_d4" transform="matrix(14,0,0,14,439.8,381.6)" />
<use xlink:href="#f6_k" transform="matrix(14,0,0,14,439.7,381.6)" />
<use xlink:href="#f6_ap" transform="matrix(14,0,0,14,149.3,406.8)" />
<use xlink:href="#f6_by" transform="matrix(14,0,0,14,160.6,406.8)" />
<use xlink:href="#f6_cv" transform="matrix(14,0,0,14,174.6,406.8)" />
<use xlink:href="#f6_ap" transform="matrix(14,0,0,14,185.9,406.8)" />
<use xlink:href="#f6_by" transform="matrix(14,0,0,14,197.3,406.8)" />
<use xlink:href="#f6_cv" transform="matrix(14,0,0,14,211.2,406.8)" />
<use xlink:href="#f6_bg" transform="matrix(14,0,0,14,222.5,406.8)" />
<use xlink:href="#f6_d8" transform="matrix(14,0,0,14,236.8,406.8)" />
<use xlink:href="#f6_aq" transform="matrix(14,0,0,14,242.4,406.8)" />
<use xlink:href="#f6_bq" transform="matrix(14,0,0,14,263.8,406.8)" />
<use xlink:href="#f6_d8" transform="matrix(14,0,0,14,276.9,406.8)" />
<use xlink:href="#f6_c1" transform="matrix(14,0,0,14,282.6,406.8)" />
<use xlink:href="#f6_cv" transform="matrix(14,0,0,14,290.9,406.8)" />
<use xlink:href="#f6_c7" transform="matrix(14,0,0,14,302.2,406.8)" />
<use xlink:href="#f6_ct" transform="matrix(14,0,0,14,314.3,406.8)" />
<use xlink:href="#f6_bk" transform="matrix(14,0,0,14,319.9,406.8)" />
<use xlink:href="#f6_k" transform="matrix(14,0,0,14,337.2,406.8)" />
<use xlink:href="#f6_by" transform="matrix(14,0,0,14,342.4,406.8)" />
<use xlink:href="#f6_d4" transform="matrix(14,0,0,14,356.5,406.8)" />
<use xlink:href="#f6_n1" transform="matrix(14,0,0,14,356.3,406.8)" />
<use xlink:href="#f6_c1" transform="matrix(14,0,0,14,375.2,406.8)" />
<use xlink:href="#f6_ba" transform="matrix(14,0,0,14,383.5,406.8)" />
<use xlink:href="#f6_c7" transform="matrix(14,0,0,14,400.2,406.8)" />
<use xlink:href="#f6_ct" transform="matrix(14,0,0,14,412.3,406.8)" />
<use xlink:href="#f6_c3" transform="matrix(14,0,0,14,417.9,406.8)" />
<use xlink:href="#f6_d8" transform="matrix(14,0,0,14,432.7,406.8)" />
<use xlink:href="#f6_dj" transform="matrix(14,0,0,14,437,407.6)" />
<use xlink:href="#f6_c1" transform="matrix(14,0,0,14,443.9,406.8)" />
<use xlink:href="#f6_d4" transform="matrix(14,0,0,14,451.9,406.8)" />
<use xlink:href="#f6_ng" transform="matrix(14,0,0,14,452.3,406.8)" />
<use xlink:href="#f6_ng" transform="matrix(14,0,0,14,461.7,406.8)" />
<use xlink:href="#f6_bv" transform="matrix(14,0,0,14,193.9,457.2)" />
<use xlink:href="#f6_c1" transform="matrix(14,0,0,14,205.8,457.2)" />
<use xlink:href="#f6_ct" transform="matrix(14,0,0,14,214.2,457.2)" />
<use xlink:href="#f6_bt" transform="matrix(14,0,0,14,219.8,457.2)" />
<use xlink:href="#f6_d4" transform="matrix(14,0,0,14,231.7,457.2)" />
<use xlink:href="#f6_bv" transform="matrix(14,0,0,14,237.2,457.2)" />
<use xlink:href="#f6_nl" transform="matrix(14,0,0,14,249.1,457.2)" />
<use xlink:href="#f6_bs" transform="matrix(14,0,0,14,249.1,457.2)" />
<use xlink:href="#f6_ct" transform="matrix(14,0,0,14,263.1,457.2)" />
<use xlink:href="#f6_c1" transform="matrix(14,0,0,14,268.7,457.2)" />
<use xlink:href="#f6_d4" transform="matrix(14,0,0,14,276.7,457.2)" />
<use xlink:href="#f6_c1" transform="matrix(14,0,0,14,282.7,457.2)" />
<use xlink:href="#f6_d4" transform="matrix(14,0,0,14,290.7,457.2)" />
<use xlink:href="#f6_by" transform="matrix(14,0,0,14,296.8,457.2)" />
<use xlink:href="#f6_d4" transform="matrix(14,0,0,14,310.9,457.2)" />
<use xlink:href="#f6_n1" transform="matrix(14,0,0,14,310.7,457.2)" />
<use xlink:href="#f6_bg" transform="matrix(14,0,0,14,329.5,457.2)" />
<use xlink:href="#f6_d8" transform="matrix(14,0,0,14,343.8,457.2)" />
<use xlink:href="#f6_c7" transform="matrix(14,0,0,14,349.4,457.2)" />
<use xlink:href="#f6_cx" transform="matrix(14,0,0,14,361.5,457.1)" />
<use xlink:href="#f6_c7" transform="matrix(14,0,0,14,367.2,457.2)" />
<use xlink:href="#f6_ct" transform="matrix(14,0,0,14,379.2,457.2)" />
<use xlink:href="#f6_bk" transform="matrix(14,0,0,14,384.9,457.2)" />
<use xlink:href="#f6_bg" transform="matrix(14,0,0,14,402.1,457.2)" />
<use xlink:href="#f6_cv" transform="matrix(14,0,0,14,416.4,457.2)" />
<use xlink:href="#f6_k" transform="matrix(14,0,0,14,422,457.2)" />
<use xlink:href="#f6_b9" transform="matrix(14,0,0,14,161.9,482.4)" />
<use xlink:href="#f6_d8" transform="matrix(14,0,0,14,177.4,482.4)" />
<use xlink:href="#f6_ao" transform="matrix(14,0,0,14,183,482.4)" />
<use xlink:href="#f6_bq" transform="matrix(14,0,0,14,200.2,482.4)" />
<use xlink:href="#f6_d8" transform="matrix(14,0,0,14,213.3,482.4)" />
<use xlink:href="#f6_c1" transform="matrix(14,0,0,14,219,482.4)" />
<use xlink:href="#f6_cv" transform="matrix(14,0,0,14,227.3,482.4)" />
<use xlink:href="#f6_b9" transform="matrix(14,0,0,14,238.6,482.4)" />
<use xlink:href="#f6_n1" transform="matrix(14,0,0,14,254.1,482.4)" />
<use xlink:href="#f6_bz" transform="matrix(14,0,0,14,272.9,482.4)" />
<use xlink:href="#f6_bt" transform="matrix(14,0,0,14,286.3,482.4)" />
<use xlink:href="#f6_c7" transform="matrix(14,0,0,14,298,482.4)" />
<use xlink:href="#f6_ct" transform="matrix(14,0,0,14,310.1,482.4)" />
<use xlink:href="#f6_c1" transform="matrix(14,0,0,14,315.7,482.4)" />
<use xlink:href="#f6_k" transform="matrix(14,0,0,14,324.1,482.4)" />
<use xlink:href="#f6_by" transform="matrix(14,0,0,14,329.3,482.4)" />
<use xlink:href="#f6_d4" transform="matrix(14,0,0,14,343.4,482.4)" />
<use xlink:href="#f6_n1" transform="matrix(14,0,0,14,343.3,482.4)" />
<use xlink:href="#f6_bz" transform="matrix(14,0,0,14,362.1,482.4)" />
<use xlink:href="#f6_bp" transform="matrix(14,0,0,14,375.4,482.4)" />
<use xlink:href="#f6_c7" transform="matrix(14,0,0,14,387.7,482.4)" />
<use xlink:href="#f6_ct" transform="matrix(14,0,0,14,399.8,482.4)" />
<use xlink:href="#f6_c3" transform="matrix(14,0,0,14,405.4,482.4)" />
<use xlink:href="#f6_d8" transform="matrix(14,0,0,14,420.1,482.4)" />
<use xlink:href="#f6_dj" transform="matrix(14,0,0,14,424.4,483.3)" />
<use xlink:href="#f6_c1" transform="matrix(14,0,0,14,431.4,482.4)" />
<use xlink:href="#f6_d4" transform="matrix(14,0,0,14,439.4,482.4)" />
<use xlink:href="#f6_ng" transform="matrix(14,0,0,14,439.8,482.4)" />
<use xlink:href="#f6_ng" transform="matrix(14,0,0,14,449.2,482.4)" />
</g>
<g fill="#000000" >
<use xlink:href="#f7_4r" transform="matrix(9,0,0,9,290.2,795.2)" />
<use xlink:href="#f8_o" transform="matrix(9,0,0,9,303,795.2)" />
<use xlink:href="#f8_p" transform="matrix(9,0,0,9,310.7,795.2)" />
<use xlink:href="#f7_4r" transform="matrix(9,0,0,9,321.3,795.2)" />
</g>
</g>
<image preserveAspectRatio="none" x="22" y="801" width="581" height="86" xlink:href="img/1.png"/>
<path d="M229.2,97.4H393v1.1H229.2V97.4Z" class="g1_51"/>
<image preserveAspectRatio="none" x="202" y="14" width="217" height="26" xlink:href="img/2.png"/>
<defs>
<path d="M874,-65L700,29V309H513V173L422,122c0,0,-90,31,-191,129c0,0,-100,97,-127,184l52,81H277l-2,240c0,0,0,77,-26,109c0,0,-1,0,-2,0c-8,0,-44,-1,-70,-22c0,0,-29,-24,-29,-61c0,0,0,-53,64,-101L125,610c0,0,-174,117,-174,238c0,0,0,78,57,133c0,0,59,55,146,55c0,0,132,0,244,-112c0,0,112,-113,112,-246V516H700V822H655L570,937l32,64h458l86,-115l-32,-64H842L944,749V-31L874,-65Z"
id="f5_by"
transform="scale(0.001,-0.001)"/>

<path d="M277,-65L102,29V822H0L-86,937l32,64H463L548,886L516,822H244L347,749V-31L277,-65Z"
id="f5_ct"
transform="scale(0.001,-0.001)"/>

<path d="M827,354c0,0,102,0,166,84V548c0,0,-46,19,-87,19c0,0,-67,0,-106,-41c0,0,-39,-42,-39,-95c0,0,0,-43,24,-72l42,-5ZM712,107c0,0,168,0,281,81v17c0,0,-29,-9,-69,-9c0,0,-140,0,-256,88c0,0,-115,89,-115,213c0,0,0,99,70,171c0,0,69,71,173,71l64,-7L993,651V822H440L544,749V550c0,0,0,-66,-28,-111c0,0,-27,-45,-96,-95L342,287c0,0,58,-87,158,-133c0,0,99,-47,212,-47ZM733,-71c0,0,-215,0,-405,134C328,63,139,197,44,420L96,542l203,-1l4,14V822H0L-86,937l32,64H1354l85,-115l-32,-64H1135l103,-73V-31l-71,-34L1033,8c0,0,-122,-79,-300,-79Z"
id="f5_ba"
transform="scale(0.001,-0.001)"/>

<path d="M545,-97L35,405L87,542H295c0,0,1,5,1,280H0L-86,937l32,64H729L814,886L782,822H445L550,749V547c0,0,0,-75,-41,-127c0,0,-41,-52,-129,-111L709,110V41L545,-97Z"
id="f5_c1"
transform="scale(0.001,-0.001)"/>

<path d="M277,-65L102,29V822H0L-86,937l32,64H110c0,0,-50,142,-110,226c0,0,-60,84,-149,84c0,0,-59,0,-97,-37c0,0,-39,-36,-39,-91c0,0,0,-57,42,-115l-95,-50c0,0,-145,116,-145,267c0,0,0,108,75,179c0,0,76,70,195,70c0,0,179,0,297,-150c0,0,119,-150,189,-383H463L548,886L516,822H244L347,749V-31L277,-65Z"
id="f5_cv"
transform="scale(0.001,-0.001)"/>

<path d="M368,290c0,0,83,0,161,44c0,0,78,43,116,117V822H382c0,0,136,-107,136,-225c0,0,0,-74,-55,-131c0,0,-55,-57,-165,-83c0,0,15,-48,44,-91l26,-2ZM819,-65L645,29V139c0,0,-60,-31,-130,-31c0,0,-145,0,-279,109c0,0,-134,108,-208,287l29,78c0,0,128,15,181,43c0,0,54,27,54,73c0,0,0,61,-96,124H0L-86,937l32,64H1004l87,-115l-32,-64H787L889,749V-31L819,-65Z"
id="f5_c0"
transform="scale(0.001,-0.001)"/>

<path d="M573,-101c0,0,-296,0,-555,382l104,86c0,0,167,-260,381,-260c0,0,87,0,151,46c0,0,64,46,63,113L489,194c0,0,-167,54,-273,152c0,0,-106,99,-106,206c0,0,0,87,72,142c0,0,72,55,211,55H588v73H0L-86,937l32,64H949l85,-115l-32,-64H706L808,749V545H445c0,0,-127,0,-127,-64c0,0,0,-35,38,-62l278,64c0,0,125,-43,193,-130c0,0,67,-87,67,-182c0,0,0,-116,-91,-194c0,0,-91,-78,-230,-78Z"
id="f5_bm"
transform="scale(0.001,-0.001)"/>

<path d="M-272,-497c0,0,-249,0,-541,361l105,97c0,0,154,-169,229,-220c0,0,75,-50,145,-50c0,0,68,0,110,38c0,0,43,38,43,90c0,0,0,49,-41,86L-367,-234L-517,-89c0,0,38,66,99,102c0,0,62,37,129,37c0,0,113,0,200,-92c0,0,87,-93,87,-209c0,0,0,-105,-77,-176c0,0,-77,-70,-193,-70Z"
id="f5_cw"
transform="scale(0.001,-0.001)"/>

<path d="M0,1102c0,0,-40,16,-91,55c0,0,-52,39,-79,76c0,0,59,119,137,165c0,0,42,-15,89,-54c0,0,46,-39,74,-76c0,0,-17,-44,-54,-92c0,0,-38,-48,-76,-74Z"
id="f5_dj"
transform="scale(0.001,-0.001)"/>

<path d="M831,-65L657,29V822H332L434,749V200L341,150c0,0,-93,32,-190,121c0,0,-96,90,-125,175l52,83H196l-5,293H0L-86,937l32,64H1016l86,-115l-33,-64H799L901,749V-31L831,-65Z"
id="f5_bb"
transform="scale(0.001,-0.001)"/>

<path d="M289,-65L115,29V822H0L-86,937l32,64H116c0,0,-99,102,-99,229c0,0,0,128,92,210c0,0,93,82,236,82c0,0,135,0,271,-93c0,0,136,-92,321,-312l-91,-90c0,0,-140,143,-233,209c0,0,-92,66,-187,66c0,0,-85,0,-140,-52c0,0,-55,-51,-55,-129c0,0,0,-64,36,-120H463L548,886L516,822H257L359,749V-31L289,-65Z"
id="f5_nr"
transform="scale(0.001,-0.001)"/>

<path d="M-289,908l-132,216c0,0,-70,120,-169,120c0,0,-83,0,-200,-80l-130,249c0,0,125,78,234,78c0,0,187,0,349,-241L-159,969L-289,908Z"
id="f5_d4"
transform="scale(0.001,-0.001)"/>

<path d="M823,-49L733,8V339H445V191L371,160c0,0,-56,36,-120,105c0,0,-63,70,-89,131l41,59H313V735c0,0,0,99,-55,140c0,0,-3,1,-8,1c-16,0,-48,-3,-71,-23c0,0,-31,-26,-31,-66c0,0,0,-69,81,-113L189,620C189,620,31,720,31,828c0,0,0,61,45,99c0,0,46,37,109,37c0,0,96,0,173,-86c0,0,76,-87,79,-194V455H733V822H556l-46,76l14,31H998l45,-76l-13,-31H794l66,-58V-39L823,-49Z"
id="f6_by"
transform="scale(0.001,-0.001)"/>

<path d="M228,-49L138,8V822H0l-45,76l14,31H402l46,-76L434,822H199l65,-58V-39L228,-49Z"
id="f6_ct"
transform="scale(0.001,-0.001)"/>

<path d="M761,293c0,0,127,0,169,94V532c0,0,-68,46,-145,46c0,0,-76,0,-121,-46c0,0,-45,-45,-45,-107c0,0,0,-61,44,-110c0,0,47,-22,98,-22ZM657,67c0,0,166,0,273,107v55c0,0,-45,-36,-111,-36c0,0,-110,0,-207,90c0,0,-97,90,-97,194c0,0,0,85,66,148c0,0,65,63,155,63l48,-5L930,603V822H376l62,-55V579c0,0,0,-60,-23,-102c0,0,-24,-42,-148,-190c0,0,66,-104,175,-162c0,0,108,-58,215,-58ZM1021,-49L930,8V53c0,0,-105,-83,-264,-83c0,0,-177,0,-339,128C327,98,165,226,90,429l34,77H296c0,0,19,39,19,102l-2,214H0l-45,76l14,31H1195l46,-76l-14,-31H992l65,-58V-39l-36,-10Z"
id="f6_ba"
transform="scale(0.001,-0.001)"/>

<path d="M527,-71L52,414l34,92H277c0,0,12,32,12,72V822H0l-45,76l14,31H599l46,-76L631,822H350l66,-55V564c0,0,0,-96,-152,-248L610,34L611,8L527,-71Z"
id="f6_c1"
transform="scale(0.001,-0.001)"/>

<path d="M228,-49L138,8V822H0l-45,76l14,31H138c0,0,-109,342,-284,342c0,0,-62,0,-102,-40c0,0,-40,-39,-40,-93c0,0,0,-61,51,-134l-42,-32c0,0,-128,113,-128,226c0,0,0,79,60,136c0,0,61,56,154,56c0,0,137,0,249,-125c0,0,112,-125,169,-336H402l46,-76L434,822H199l65,-58V-39L228,-49Z"
id="f6_cv"
transform="scale(0.001,-0.001)"/>

<path d="M374,248c0,0,77,0,149,36c0,0,71,37,110,107V822H284c0,0,138,-96,138,-208c0,0,0,-151,-228,-192c0,0,29,-104,89,-158c0,0,41,-16,91,-16ZM723,-49L633,8V200c0,0,-69,-56,-170,-56c0,0,-122,0,-240,94c0,0,-118,94,-179,237l20,55c0,0,133,17,187,44c0,0,55,28,55,84c0,0,0,45,-30,81c0,0,-30,36,-99,83H0l-45,76l14,31H897l46,-76L929,822H694l65,-58V-39L723,-49Z"
id="f6_c0"
transform="scale(0.001,-0.001)"/>

<path d="M548,-57c0,0,-122,0,-243,81c0,0,-122,81,-252,280l57,41C110,345,283,64,498,64c0,0,92,0,153,49c0,0,61,49,61,121c0,0,0,46,-28,84L440,237c0,0,-73,11,-139,55c0,0,-66,44,-105,105c0,0,-40,61,-40,119c0,0,0,72,62,125c0,0,62,53,184,53H625V822H0l-45,76l14,31H906l46,-76L938,822H678l66,-58V562H431c0,0,-164,0,-164,-99c0,0,0,-55,57,-102l261,82c0,0,104,-21,172,-98c0,0,68,-78,68,-171c0,0,0,-99,-76,-166c0,0,-77,-65,-201,-65Z"
id="f6_bm"
transform="scale(0.001,-0.001)"/>

<path d="M-234,-413c0,0,-210,0,-488,322l54,49c0,0,119,-128,209,-193c0,0,90,-65,177,-65c0,0,72,0,113,40c0,0,42,39,42,91c0,0,0,75,-78,106L-323,-181l-90,98c0,0,63,95,167,95c0,0,90,0,155,-69c0,0,66,-70,66,-164c0,0,0,-85,-60,-139c0,0,-61,-53,-149,-53Z"
id="f6_cw"
transform="scale(0.001,-0.001)"/>

<path d="M0,1062c0,0,-26,11,-60,36c0,0,-34,26,-51,49c0,0,39,81,91,110c0,0,60,-23,106,-85c0,0,-28,-70,-86,-110Z"
id="f6_dj"
transform="scale(0.001,-0.001)"/>

<path d="M727,-49L637,8V822H278l66,-58V226L270,196c0,0,-64,36,-122,98c0,0,-58,62,-79,122l43,59H217V822H0l-45,76l14,31H901l46,-76L933,822H698l66,-58V-39L727,-49Z"
id="f6_bb"
transform="scale(0.001,-0.001)"/>

<path d="M228,-49L138,8V822H0l-45,76l14,31H133c0,0,-93,95,-93,206c0,0,0,96,68,159c0,0,68,63,179,63c0,0,118,0,228,-81c0,0,110,-80,258,-262L720,970L588,1109c0,0,-133,133,-253,133c0,0,-78,0,-127,-46c0,0,-49,-46,-49,-119c0,0,0,-69,56,-148H402l46,-76L434,822H199l65,-58V-39L228,-49Z"
id="f6_nr"
transform="scale(0.001,-0.001)"/>

<path d="M-214,863l-199,281c0,0,-70,92,-157,92c0,0,-69,0,-159,-58l-72,118c0,0,89,73,180,73c0,0,141,0,258,-170L-155,901l-59,-38Z"
id="f6_d4"
transform="scale(0.001,-0.001)"/>

<path d="M108,-222l-44,58c0,0,96,81,104,164L89,61c0,0,12,83,93,122c0,0,50,-15,79,-55c0,0,29,-39,29,-90c0,0,0,-69,-48,-142c0,0,-48,-72,-134,-118Z"
id="f6_k"
transform="scale(0.001,-0.001)"/>

<path d="M527,-71L52,414l34,92H277c0,0,12,32,12,72V822H0l-45,76l14,31H940l45,-76L972,822H350l66,-55V553c0,0,24,52,77,83c0,0,52,30,112,30c0,0,87,0,171,-76c0,0,84,-75,222,-304L938,244L828,411c0,0,-95,134,-195,134c0,0,-63,0,-100,-35c0,0,-36,-36,-36,-87c0,0,0,-50,42,-87l152,99L755,315c0,0,-71,-61,-148,-61c0,0,-80,0,-146,66c0,0,-65,67,-65,164c0,0,-34,-70,-132,-168L610,34L611,8L527,-71Z"
id="f6_n1"
transform="scale(0.001,-0.001)"/>

<path d="M768,-49L678,8V202c0,0,-73,-58,-172,-58c0,0,-123,0,-240,94c0,0,-118,94,-179,237l20,55c0,0,134,12,215,70c0,0,81,57,81,141c0,0,0,90,-67,134l-26,3c0,0,-46,0,-74,-29c0,0,-28,-30,-28,-68c0,0,0,-55,82,-109L252,620C252,620,93,720,93,820c0,0,0,65,47,104c0,0,46,40,114,40c0,0,99,0,179,-83c0,0,80,-83,82,-197c0,0,0,-93,-79,-165c0,0,-78,-73,-199,-97c0,0,29,-104,88,-158c0,0,42,-16,92,-16c0,0,78,0,151,38c0,0,74,38,110,111V822H553l-46,76l14,31H943l45,-76L975,822H739l66,-58V-39L768,-49Z"
id="f6_bq"
transform="scale(0.001,-0.001)"/>

<path d="M228,-49L138,8V822H0l-45,76l14,31H119L-33,1144c0,0,-70,92,-157,92c0,0,-69,0,-159,-58l-72,118c0,0,89,73,181,73c0,0,140,0,257,-170L205,929H402l46,-76L434,822H199l65,-58V-39L228,-49Z"
id="f6_d8"
transform="scale(0.001,-0.001)"/>

<path d="M827,-49L736,8V205c0,0,-84,-84,-209,-84c0,0,-130,0,-237,91c0,0,-108,92,-108,196c0,0,0,79,61,137C243,545,66,672,66,791c0,0,0,75,52,124c0,0,53,49,134,49c0,0,164,0,260,-237L451,694c0,0,-55,114,-119,163l-31,5c0,0,-44,0,-77,-32c0,0,-33,-31,-33,-78c0,0,0,-86,113,-165c0,0,60,27,133,27l67,-4l75,-89L564,490l-51,7H493c0,0,-90,0,-142,-43c0,0,-52,-43,-52,-104c0,0,0,-60,51,-109c0,0,33,-16,84,-16c0,0,89,0,177,47c0,0,89,47,125,137V822H567l-46,76l14,31h466l46,-76l-14,-31H798l65,-58V-39L827,-49Z"
id="f6_bs"
transform="scale(0.001,-0.001)"/>

<path d="M689,445V822H286l65,-58l8,-319ZM779,-49L689,8V328H370V180L296,150c0,0,-56,35,-120,104c0,0,-63,70,-89,131l41,60H238L223,822H0l-45,76l14,31H953l46,-76L985,822H750l66,-58V-39L779,-49Z"
id="f6_bz"
transform="scale(0.001,-0.001)"/>

<path d="M252,385l310,78l22,-9c0,0,107,-43,200,-43c0,0,91,0,151,41V822H603l66,-58V585H373c0,0,-184,0,-184,-99c0,0,0,-48,63,-101ZM483,-305L295,-10c0,0,-90,22,-156,74l41,170h66L351,63c0,0,126,4,207,62c0,0,82,58,82,139c0,0,0,37,-18,71L365,266c0,0,-110,15,-197,102c0,0,-87,87,-87,176c0,0,0,69,59,117c0,0,59,48,172,48H550V822H0l-45,76l14,31H1199l46,-76l-14,-31H996l66,-58V-39l-37,-10L935,8V318c0,0,-41,-15,-78,-15c0,0,-52,0,-131,30c0,0,32,-55,32,-111c0,0,0,-109,-98,-179c0,0,-98,-69,-254,-69L599,-216L483,-305Z"
id="f6_bh"
transform="scale(0.001,-0.001)"/>

<path d="M663,-49L573,8V445H299V280L226,251c0,0,-105,99,-162,238l63,72H573V822H0l-45,76l14,31H837l46,-76L869,822H634l66,-58V-39L663,-49Z"
id="f6_bt"
transform="scale(0.001,-0.001)"/>

<path d="M471,-26c0,0,-259,0,-448,396l70,43C93,413,240,98,442,98c0,0,79,0,132,46c0,0,54,45,54,120c0,0,0,61,-38,116c0,0,-38,54,-107,72L322,370L255,492c0,0,66,53,156,56c0,0,128,51,128,153c0,0,0,77,-65,121H0l-45,76l14,31H813l46,-76L845,822H578c0,0,76,-66,76,-157c0,0,0,-95,-87,-156c0,0,84,-48,131,-123c0,0,48,-76,48,-158c0,0,0,-109,-78,-182c0,0,-78,-72,-197,-72Z"
id="f6_ap"
transform="scale(0.001,-0.001)"/>

<path d="M547,-285c0,0,-66,25,-102,80c0,0,32,69,82,101c0,0,55,-20,99,-80c0,0,-26,-67,-79,-101Zm1,228c0,0,-122,0,-243,81c0,0,-122,81,-252,280l57,41C110,345,283,64,498,64c0,0,92,0,153,49c0,0,61,49,61,121c0,0,0,46,-28,84L440,237c0,0,-73,11,-139,55c0,0,-66,44,-105,105c0,0,-40,61,-40,119c0,0,0,72,62,125c0,0,62,53,184,53H625V822H0l-45,76l14,31H906l46,-76L938,822H678l66,-58V562H431c0,0,-164,0,-164,-99c0,0,0,-55,57,-102l261,82c0,0,104,-21,172,-98c0,0,68,-78,68,-171c0,0,0,-99,-76,-166c0,0,-77,-65,-201,-65Z"
id="f6_ch"
transform="scale(0.001,-0.001)"/>

<path d="M348,229c0,0,57,0,106,17L263,559c0,0,-95,-50,-95,-162c0,0,0,-75,52,-136c0,0,49,-32,128,-32Zm170,48c0,0,61,38,96,91V504c0,0,-131,80,-244,80l-35,-2L518,277ZM704,-49L614,8V193c0,0,-84,-65,-192,-65c0,0,-139,0,-255,98c0,0,-115,98,-115,226c0,0,0,106,77,175c0,0,77,70,189,70c0,0,38,0,75,-9L614,578V822H0l-45,76l14,31H878l46,-76L911,822H675l66,-58V-39L704,-49Z"
id="f6_bx"
transform="scale(0.001,-0.001)"/>

<path d="M413,-59C413,-59,53,193,53,416c0,0,0,97,66,164c0,0,66,66,156,66c0,0,61,0,110,-30L487,507c0,0,92,126,257,126l35,-2V822H0l-45,76l14,31H1043l46,-76l-13,-31H840l66,-58V-39L869,-49L779,8V547c0,0,-101,-5,-165,-90c0,0,-64,-86,-70,-222L507,225l-90,73c0,0,5,79,35,151c0,0,-59,66,-128,66c0,0,-57,0,-100,-38c0,0,-44,-39,-44,-109c0,0,0,-165,284,-360L413,-59Z"
id="f6_c3"
transform="scale(0.001,-0.001)"/>

<path d="M108,-433L-59,-214c0,0,-99,119,-191,119c0,0,-59,0,-96,-35c0,0,-36,-34,-36,-81c0,0,0,-49,42,-83l152,95l64,-116c0,0,-71,-58,-148,-58c0,0,-80,0,-146,63c0,0,-65,64,-65,144c0,0,0,77,62,131c0,0,61,53,142,53c0,0,138,0,296,-205L165,-393l-57,-40Z"
id="f6_cx"
transform="scale(0.001,-0.001)"/>

<path d="M347,-57C347,-57,66,211,66,394c0,0,0,98,74,164c0,0,74,65,225,65H616V822H0l-45,76l14,31H880l46,-76L912,822H677l66,-58V-39L706,-49L616,8V500H428c0,0,-239,0,-239,-161c0,0,0,-136,214,-343L347,-57Z"
id="f6_bp"
transform="scale(0.001,-0.001)"/>

<path d="M799,475V822H350l66,-55V564c0,0,0,-43,-25,-89ZM527,-71L52,414l34,92H277c0,0,12,32,12,72V822H0l-45,76l14,31H1063l46,-76l-14,-31H860l66,-58V-39L889,-49L799,8V370H315L264,316L610,34L611,8L527,-71Z"
id="f6_cb"
transform="scale(0.001,-0.001)"/>

<path d="M675,-274L602,21C602,21,550,3,498,3C498,3,347,3,210,118C210,118,73,232,73,373c0,0,0,113,84,184c0,0,84,71,222,72H524V822H0l-45,76l14,31H834l46,-76L866,822H585l66,-58V504l-3,2l3,-3H408c0,0,-95,0,-154,-53c0,0,-58,-53,-58,-132c0,0,0,-49,27,-100c0,0,28,-50,83,-84c0,0,44,-15,96,-15c0,0,91,0,160,46L535,303l101,48L773,188c0,0,-8,-28,-34,-66c0,0,-27,-38,-62,-64L813,-221L675,-274Z"
id="f6_br"
transform="scale(0.001,-0.001)"/>

<path d="M483,-305L295,-10c0,0,-90,22,-156,74l41,170h66L351,63c0,0,126,4,207,62c0,0,82,58,82,139c0,0,0,37,-18,71L365,266c0,0,-110,15,-197,102c0,0,-87,87,-87,176c0,0,0,69,59,117c0,0,59,48,172,48H550V822H0l-45,76l14,31H550c0,0,-142,122,-142,255c0,0,0,78,52,133c0,0,52,55,140,55c0,0,98,0,176,-64l-23,-69c0,0,-53,32,-104,32c0,0,-56,0,-94,-36c0,0,-39,-36,-39,-95c0,0,0,-109,112,-211H822l46,-76L854,822H603l66,-58V585H373c0,0,-184,0,-184,-99c0,0,0,-48,63,-101l310,78c0,0,86,-34,141,-99c0,0,55,-65,55,-142c0,0,0,-109,-98,-179c0,0,-98,-69,-254,-69L599,-216L483,-305Z"
id="f6_ao"
transform="scale(0.001,-0.001)"/>

<path d="M959,-49L869,8V367c0,0,-32,-13,-64,-13c0,0,-50,0,-110,25c0,0,23,-52,23,-109c0,0,0,-103,-70,-170c0,0,-70,-66,-182,-66c0,0,-110,0,-222,82c0,0,-111,83,-213,293l68,42c0,0,72,-155,152,-231c0,0,81,-76,178,-76c0,0,83,0,131,49c0,0,48,48,48,117c0,0,0,54,-30,100c0,0,-31,47,-91,65L325,391L257,512c0,0,68,53,156,56c0,0,140,72,140,179c0,0,0,69,-52,99c0,0,-4,1,-11,1c-19,0,-66,-4,-123,-30c0,0,-78,-35,-142,-96L150,823c0,0,119,117,253,117c0,0,98,0,175,-71c0,0,77,-70,77,-159c0,0,0,-103,-94,-180c0,0,39,-23,73,-56c0,0,52,-22,109,-22c0,0,77,0,126,38V822H727l-46,76l14,31h558l-153,215c0,0,-70,92,-157,92c0,0,-69,0,-159,-58l-72,118c0,0,89,73,180,73c0,0,141,0,258,-170L1338,929h197l46,-76l-13,-31H1332l66,-58V-39l-37,-10L1271,8V822H930l66,-58V-39L959,-49Z"
id="f6_b1"
transform="scale(0.001,-0.001)"/>

<path d="M426,-68L339,5V953l37,11l87,-73V-57L426,-68Z"
id="f6_ng"
transform="scale(0.001,-0.001)"/>

<path d="M845,-49L755,8V513H497c0,0,61,-45,93,-110c0,0,33,-64,33,-128c0,0,0,-90,-58,-144c0,0,-59,-53,-143,-53c0,0,-133,0,-234,139C188,217,87,356,20,596l76,24c0,0,60,-201,127,-306c0,0,67,-105,160,-105c0,0,57,0,91,36c0,0,33,36,33,91c0,0,0,84,-73,159L295,558v71H755V822H0l-45,76l14,31H1019l46,-76l-14,-31H816l66,-58V-39L845,-49Z"
id="f6_bg"
transform="scale(0.001,-0.001)"/>

<path d="M388,325c0,0,58,0,112,31c0,0,53,31,84,86V822H165l69,-58V408c0,0,47,-83,154,-83ZM674,-49L584,8V257c0,0,-61,-51,-141,-51c0,0,-125,0,-232,109c0,0,-107,108,-107,243V822H0l-45,76l14,31H848l46,-76L880,822H645l65,-58V-39L674,-49Z"
id="f6_bv"
transform="scale(0.001,-0.001)"/>

<path d="M688,-243c0,0,-256,53,-408,173c0,0,-152,119,-152,270c0,0,0,101,68,171c0,0,-101,84,-101,179c0,0,0,64,53,112c0,0,54,47,191,47H587V822H0l-45,76l14,31H830l45,-76L862,822H640l66,-58V585H362c0,0,-159,-1,-159,-92c0,0,0,-41,46,-80c0,0,76,47,183,47c0,0,135,0,230,-76c0,0,96,-75,96,-187C758,197,758,67,629,2L545,104c0,0,49,30,81,75c0,0,32,44,32,82c0,0,0,16,-4,26c0,0,-64,58,-167,58c0,0,-97,0,-166,-50v-2c0,0,-67,-52,-67,-131c0,0,0,-116,132,-199c0,0,132,-84,334,-132l-32,-74Z"
id="f6_cc"
transform="scale(0.001,-0.001)"/>

<path d="M325,240c0,0,77,0,154,35c0,0,77,35,120,99V500c0,0,-118,73,-222,73c0,0,-97,0,-151,-54c0,0,-53,-53,-53,-128c0,0,0,-73,49,-125c0,0,38,-26,103,-26ZM689,-49L599,8V199c0,0,-73,-65,-179,-65c0,0,-134,0,-252,96c0,0,-118,95,-118,221c0,0,0,102,78,171c0,0,78,69,190,69c0,0,38,0,75,-10L599,582V822H0l-45,76l14,31H863l46,-76L895,822H660l66,-58V-39L689,-49Z"
id="f6_c7"
transform="scale(0.001,-0.001)"/>

<path d="M283,260c0,0,122,0,209,113V513c0,0,-90,51,-160,51c0,0,-80,0,-129,-50c0,0,-49,-50,-49,-118c0,0,0,-60,35,-110c0,0,45,-26,94,-26ZM582,-49L492,8V211c0,0,-63,-54,-141,-54c0,0,-113,0,-213,92c0,0,-100,92,-100,205c0,0,0,93,69,157c0,0,69,64,162,64c0,0,32,0,64,-9L492,590V822H0l-45,76l14,31H1108l45,-76l-13,-31H553l66,-58V524c0,0,91,89,192,89c0,0,98,0,171,-79c0,0,72,-79,72,-186c0,0,0,-178,-224,-330L736,124c0,0,219,153,219,269c0,0,0,44,-26,75c0,0,-26,32,-81,32c0,0,-109,0,-229,-155V-39L582,-49Z"
id="f6_b9"
transform="scale(0.001,-0.001)"/>

<path d="M959,-49L869,8V367c0,0,-32,-13,-64,-13c0,0,-50,0,-110,25c0,0,23,-52,23,-109c0,0,0,-103,-70,-170c0,0,-70,-66,-182,-66c0,0,-110,0,-222,82c0,0,-111,83,-213,293l68,42c0,0,72,-155,152,-231c0,0,81,-76,178,-76c0,0,83,0,131,49c0,0,48,48,48,117c0,0,0,54,-30,100c0,0,-31,47,-91,65L325,391L257,512c0,0,68,53,156,56c0,0,140,72,140,179c0,0,0,69,-52,99c0,0,-4,1,-11,1c-19,0,-66,-4,-123,-30c0,0,-78,-35,-142,-96L150,823c0,0,119,117,253,117c0,0,98,0,175,-71c0,0,77,-70,77,-159c0,0,0,-103,-94,-180c0,0,39,-23,73,-56c0,0,52,-22,109,-22c0,0,77,0,126,38V822H727l-46,76l14,31h840l46,-76l-13,-31H1332l66,-58V-39l-37,-10L1271,8V822H930l66,-58V-39L959,-49Z"
id="f6_am"
transform="scale(0.001,-0.001)"/>

<path d="M487,-7c0,0,-88,0,-185,46c0,0,-97,47,-163,130c0,0,-66,83,-66,185c0,0,0,109,80,177c0,0,79,68,234,68H504V822H0l-45,76l14,31H827l45,-76L859,822H565l66,-58V474l-3,1l3,-3H396c0,0,-100,0,-152,-47c0,0,-53,-48,-53,-119c0,0,0,-104,93,-178c0,0,60,-20,118,-20c0,0,81,0,156,36c0,0,76,35,123,99l92,-99C773,144,723,70,645,31C645,31,567,-7,487,-7Z"
id="f6_bk"
transform="scale(0.001,-0.001)"/>

<path d="M228,-49L138,8V822H0l-45,76l14,31H134c0,0,-91,92,-91,191c0,0,0,105,85,170c0,0,84,65,219,65c0,0,128,0,293,-76c0,0,165,-77,362,-263L958,966c0,0,-177,143,-303,210c0,0,-125,68,-244,68c0,0,-107,0,-175,-50c0,0,-68,-50,-68,-131c0,0,0,-61,49,-134H402l46,-76L434,822H199l65,-58V-39L228,-49Z"
id="f6_cu"
transform="scale(0.001,-0.001)"/>

<path d="M342,324c0,0,45,0,75,34c0,0,31,33,31,100V822H165l66,-58V390c0,0,32,-66,111,-66ZM853,-49L762,8V822H509l65,-58V455c0,0,0,-134,-51,-185c0,0,-52,-52,-127,-52c0,0,-98,0,-195,99c0,0,-97,99,-97,209V822H0l-45,76l14,31H1027l46,-76l-14,-31H823l66,-58V-39L853,-49Z"
id="f6_bo"
transform="scale(0.001,-0.001)"/>

<path d="M471,-26c0,0,-259,0,-448,396l70,43C93,413,240,98,442,98c0,0,79,0,132,46c0,0,54,45,54,120c0,0,0,61,-38,116c0,0,-38,54,-107,72L322,370L255,492c0,0,66,53,156,56c0,0,128,51,128,153c0,0,0,77,-65,121H0l-45,76l14,31H1123l46,-76l-14,-31H578c0,0,76,-66,76,-157c0,0,0,-95,-87,-156c0,0,52,-29,84,-64c0,0,131,134,243,134c0,0,93,0,158,-70c0,0,65,-71,65,-167c0,0,0,-142,-177,-272L851,170c0,0,173,129,173,230c0,0,0,34,-23,57c0,0,-23,23,-63,23c0,0,-104,0,-215,-141c0,0,23,-55,23,-111c0,0,0,-109,-78,-182c0,0,-78,-72,-197,-72Z"
id="f6_aq"
transform="scale(0.001,-0.001)"/>

<path d="M0,822l-45,76l14,31H38L84,853L70,822Z"
id="f6_nl"
transform="scale(0.001,-0.001)"/>

<path d="M725,307c0,0,-95,0,-218,78c0,0,-123,78,-188,78c0,0,-54,0,-95,-34c0,0,-41,-34,-73,-100L93,362c0,0,38,88,101,146c0,0,63,59,148,59c0,0,90,0,214,-78c0,0,124,-79,188,-79c0,0,63,0,106,34c0,0,42,33,85,104l60,-40c0,0,-32,-66,-101,-134c0,0,-70,-67,-169,-67Z"
id="f7_4r"
transform="scale(0.001,-0.001)"/>

<path d="M494,385V878L152,385ZM494,0V262H20V385l498,708H628V385H775V262H628V0Z"
id="f8_o"
transform="scale(0.001,-0.001)"/>

<path d="M415,-18c0,0,-149,0,-244,83c0,0,-94,84,-107,222l140,11c0,0,16,-103,73,-154c0,0,56,-52,137,-52c0,0,98,0,165,73c0,0,66,73,66,194c0,0,0,115,-64,182c0,0,-64,66,-169,66c0,0,-65,0,-117,-29c0,0,-52,-30,-82,-77L87,517l106,562H736V951H300L241,657c0,0,99,69,207,69c0,0,143,0,242,-100c0,0,98,-99,98,-255c0,0,0,-149,-86,-257C702,114,597,-18,415,-18Z"
id="f8_p"
transform="scale(0.001,-0.001)"/>


</defs>
</svg>