<?xml version="1.0" encoding="UTF-8" standalone="no"?>
<!DOCTYPE svg PUBLIC "-//W3C//DTD SVG 1.1//EN"
"http://www.w3.org/Graphics/SVG/1.1/DTD/svg11.dtd">
<svg viewBox="0 0 641 910" version="1.1" xmlns="http://www.w3.org/2000/svg" xmlns:xlink="http://www.w3.org/1999/xlink">
<defs>
<clipPath id="c0_103"><path d="M0,909.8V0H641.7V909.8Z"/></clipPath>
<clipPath id="c1_103"><path d="M0,908.6V0H641.7V908.6Z"/></clipPath>
<style type="text/css"><![CDATA[
.g0_103{
fill: #FFFFFF;
}
.g1_103{
}
]]></style>
</defs>
<path d="M0,0H641.7V909.8H0V0Z" class="g0_103"/>
<path d="M0,0H641.7V909.8H0V0Z" class="g0_103"/>
<g clip-path="url(#c0_103)">
<path d="M0,-87339.9H641.7V19105.6H0V-87339.9Z" class="g0_103"/>
</g>
<path d="M0,0H641.7V908.6H0V0Z" class="g0_103"/>
<path d="M19.5,60.7H602.7v1.2H19.5V60.7Z" class="g1_103"/>
<g clip-path="url(#c1_103)">
<path d="M0,61.9H641.7V909.8H0V61.9Z" class="g0_103"/>
<g fill="#000000" >
<use xlink:href="#f5_br" transform="matrix(14,0,0,14,235.2,82.5)" />
<use xlink:href="#f5_ob" transform="matrix(14,0,0,14,248.2,82.5)" />
<use xlink:href="#f5_c7" transform="matrix(14,0,0,14,254.7,82.5)" />
<use xlink:href="#f5_ct" transform="matrix(14,0,0,14,268.4,82.5)" />
<use xlink:href="#f5_bt" transform="matrix(14,0,0,14,274.8,82.5)" />
<use xlink:href="#f5_ct" transform="matrix(14,0,0,14,287.9,82.5)" />
<use xlink:href="#f5_bp" transform="matrix(14,0,0,14,305.7,82.5)" />
<use xlink:href="#f5_d4" transform="matrix(14,0,0,14,319.1,82.5)" />
<use xlink:href="#f5_c1" transform="matrix(14,0,0,14,319.1,82.5)" />
<use xlink:href="#f5_ct" transform="matrix(14,0,0,14,329.3,82.5)" />
<use xlink:href="#f5_am" transform="matrix(14,0,0,14,341.4,82.5)" />
<use xlink:href="#f5_c0" transform="matrix(14,0,0,14,366.3,82.5)" />
<use xlink:href="#f5_ct" transform="matrix(14,0,0,14,380.3,82.5)" />
<use xlink:href="#f6_br" transform="matrix(14,0,0,14,142.4,151.3)" />
<use xlink:href="#f6_ob" transform="matrix(14,0,0,14,154.1,151.3)" />
<use xlink:href="#f6_c7" transform="matrix(14,0,0,14,159.7,151.3)" />
<use xlink:href="#f6_ct" transform="matrix(14,0,0,14,171.8,151.3)" />
<use xlink:href="#f6_bt" transform="matrix(14,0,0,14,177.4,151.3)" />
<use xlink:href="#f6_ct" transform="matrix(14,0,0,14,189.1,151.3)" />
<use xlink:href="#f6_bp" transform="matrix(14,0,0,14,206,151.3)" />
<use xlink:href="#f6_d4" transform="matrix(14,0,0,14,218.5,151.3)" />
<use xlink:href="#f6_c1" transform="matrix(14,0,0,14,218.4,151.3)" />
<use xlink:href="#f6_ct" transform="matrix(14,0,0,14,226.7,151.3)" />
<use xlink:href="#f6_am" transform="matrix(14,0,0,14,238,151.3)" />
<use xlink:href="#f6_c0" transform="matrix(14,0,0,14,259.5,151.3)" />
<use xlink:href="#f6_ct" transform="matrix(14,0,0,14,272.1,151.3)" />
<use xlink:href="#f6_br" transform="matrix(14,0,0,14,283.3,151.3)" />
<use xlink:href="#f6_ct" transform="matrix(14,0,0,14,295,151.3)" />
<use xlink:href="#f6_br" transform="matrix(14,0,0,14,300.6,151.3)" />
<use xlink:href="#f6_ct" transform="matrix(14,0,0,14,312.3,151.3)" />
<use xlink:href="#f6_bp" transform="matrix(14,0,0,14,329.3,151.3)" />
<use xlink:href="#f6_d4" transform="matrix(14,0,0,14,341.7,151.3)" />
<use xlink:href="#f6_c1" transform="matrix(14,0,0,14,341.6,151.3)" />
<use xlink:href="#f6_cv" transform="matrix(14,0,0,14,350,151.3)" />
<use xlink:href="#f6_bt" transform="matrix(14,0,0,14,366.9,151.3)" />
<use xlink:href="#f6_bb" transform="matrix(14,0,0,14,378.6,151.3)" />
<use xlink:href="#f6_c1" transform="matrix(14,0,0,14,391.2,151.3)" />
<use xlink:href="#f6_cv" transform="matrix(14,0,0,14,399.6,151.3)" />
<use xlink:href="#f6_bz" transform="matrix(14,0,0,14,416.6,151.3)" />
<use xlink:href="#f6_oz" transform="matrix(14,0,0,14,430,151.3)" />
<use xlink:href="#f6_8l" transform="matrix(14,0,0,14,435.6,151.3)" />
<use xlink:href="#f6_pc" transform="matrix(14,0,0,14,455.4,151.3)" />
<use xlink:href="#f6_pd" transform="matrix(14,0,0,14,459.7,151.3)" />
<use xlink:href="#f6_q" transform="matrix(14,0,0,14,467.2,151.3)" />
<use xlink:href="#f6_br" transform="matrix(14,0,0,14,142.4,185.6)" />
<use xlink:href="#f6_ob" transform="matrix(14,0,0,14,154.1,185.6)" />
<use xlink:href="#f6_c7" transform="matrix(14,0,0,14,159.7,185.6)" />
<use xlink:href="#f6_ct" transform="matrix(14,0,0,14,171.8,185.6)" />
<use xlink:href="#f6_bt" transform="matrix(14,0,0,14,177.4,185.6)" />
<use xlink:href="#f6_ct" transform="matrix(14,0,0,14,189.1,185.6)" />
<use xlink:href="#f6_bp" transform="matrix(14,0,0,14,206,185.6)" />
<use xlink:href="#f6_d4" transform="matrix(14,0,0,14,218.5,185.6)" />
<use xlink:href="#f6_c1" transform="matrix(14,0,0,14,218.4,185.6)" />
<use xlink:href="#f6_ct" transform="matrix(14,0,0,14,226.7,185.6)" />
<use xlink:href="#f6_am" transform="matrix(14,0,0,14,238,185.6)" />
<use xlink:href="#f6_c0" transform="matrix(14,0,0,14,259.5,185.6)" />
<use xlink:href="#f6_ct" transform="matrix(14,0,0,14,272.1,185.6)" />
<use xlink:href="#f6_br" transform="matrix(14,0,0,14,283.3,185.6)" />
<use xlink:href="#f6_ct" transform="matrix(14,0,0,14,295,185.6)" />
<use xlink:href="#f6_br" transform="matrix(14,0,0,14,300.6,185.6)" />
<use xlink:href="#f6_ct" transform="matrix(14,0,0,14,312.3,185.6)" />
<use xlink:href="#f6_bp" transform="matrix(14,0,0,14,329.3,185.6)" />
<use xlink:href="#f6_d4" transform="matrix(14,0,0,14,341.7,185.6)" />
<use xlink:href="#f6_c1" transform="matrix(14,0,0,14,341.6,185.6)" />
<use xlink:href="#f6_cv" transform="matrix(14,0,0,14,350,185.6)" />
<use xlink:href="#f6_bt" transform="matrix(14,0,0,14,366.9,185.6)" />
<use xlink:href="#f6_bb" transform="matrix(14,0,0,14,378.6,185.6)" />
<use xlink:href="#f6_c1" transform="matrix(14,0,0,14,391.2,185.6)" />
<use xlink:href="#f6_cv" transform="matrix(14,0,0,14,399.6,185.6)" />
<use xlink:href="#f6_bz" transform="matrix(14,0,0,14,416.6,185.6)" />
<use xlink:href="#f6_oz" transform="matrix(14,0,0,14,430,185.6)" />
<use xlink:href="#f6_8l" transform="matrix(14,0,0,14,435.6,185.6)" />
<use xlink:href="#f6_pc" transform="matrix(14,0,0,14,455.4,185.6)" />
<use xlink:href="#f6_pd" transform="matrix(14,0,0,14,459.7,185.6)" />
<use xlink:href="#f6_q" transform="matrix(14,0,0,14,467.2,185.6)" />
<use xlink:href="#f6_bt" transform="matrix(14,0,0,14,128.6,254.4)" />
<use xlink:href="#f6_bg" transform="matrix(14,0,0,14,140.4,254.4)" />
<use xlink:href="#f6_c1" transform="matrix(14,0,0,14,154.6,254.4)" />
<use xlink:href="#f6_ct" transform="matrix(14,0,0,14,163,254.4)" />
<use xlink:href="#f6_bt" transform="matrix(14,0,0,14,168.6,254.4)" />
<use xlink:href="#f6_ct" transform="matrix(14,0,0,14,180.3,254.4)" />
<use xlink:href="#f6_cu" transform="matrix(14,0,0,14,191.6,254.4)" />
<use xlink:href="#f6_br" transform="matrix(14,0,0,14,197.2,254.4)" />
<use xlink:href="#f6_c3" transform="matrix(14,0,0,14,208.9,254.4)" />
<use xlink:href="#f6_b9" transform="matrix(14,0,0,14,229.3,254.4)" />
<use xlink:href="#f6_ct" transform="matrix(14,0,0,14,244.8,254.4)" />
<use xlink:href="#f6_c3" transform="matrix(14,0,0,14,256.1,254.4)" />
<use xlink:href="#f6_ct" transform="matrix(14,0,0,14,270.8,254.4)" />
<use xlink:href="#f6_c0" transform="matrix(14,0,0,14,276.4,254.4)" />
<use xlink:href="#f6_ct" transform="matrix(14,0,0,14,288.9,254.4)" />
<use xlink:href="#f6_pd" transform="matrix(14,0,0,14,300.2,254.4)" />
<use xlink:href="#f6_q" transform="matrix(14,0,0,14,313.4,254.4)" />
<use xlink:href="#f6_br" transform="matrix(14,0,0,14,330.8,254.4)" />
<use xlink:href="#f6_ct" transform="matrix(14,0,0,14,342.4,254.4)" />
<use xlink:href="#f6_br" transform="matrix(14,0,0,14,348.1,254.4)" />
<use xlink:href="#f6_ct" transform="matrix(14,0,0,14,359.7,254.4)" />
<use xlink:href="#f6_bp" transform="matrix(14,0,0,14,371,254.4)" />
<use xlink:href="#f6_d4" transform="matrix(14,0,0,14,383.5,254.4)" />
<use xlink:href="#f6_c1" transform="matrix(14,0,0,14,383.3,254.4)" />
<use xlink:href="#f6_cv" transform="matrix(14,0,0,14,391.7,254.4)" />
<use xlink:href="#f6_bt" transform="matrix(14,0,0,14,403,254.4)" />
<use xlink:href="#f6_bb" transform="matrix(14,0,0,14,414.7,254.4)" />
<use xlink:href="#f6_c1" transform="matrix(14,0,0,14,427.3,254.4)" />
<use xlink:href="#f6_cv" transform="matrix(14,0,0,14,435.7,254.4)" />
<use xlink:href="#f6_bz" transform="matrix(14,0,0,14,452.6,254.4)" />
<use xlink:href="#f6_oz" transform="matrix(14,0,0,14,466.1,254.4)" />
<use xlink:href="#f6_8l" transform="matrix(14,0,0,14,471.7,254.4)" />
<use xlink:href="#f6_br" transform="matrix(14,0,0,14,142.4,288.8)" />
<use xlink:href="#f6_ob" transform="matrix(14,0,0,14,154.1,288.8)" />
<use xlink:href="#f6_c7" transform="matrix(14,0,0,14,159.7,288.8)" />
<use xlink:href="#f6_ct" transform="matrix(14,0,0,14,171.8,288.8)" />
<use xlink:href="#f6_bt" transform="matrix(14,0,0,14,177.4,288.8)" />
<use xlink:href="#f6_ct" transform="matrix(14,0,0,14,189.1,288.8)" />
<use xlink:href="#f6_bp" transform="matrix(14,0,0,14,206,288.8)" />
<use xlink:href="#f6_d4" transform="matrix(14,0,0,14,218.5,288.8)" />
<use xlink:href="#f6_c1" transform="matrix(14,0,0,14,218.4,288.8)" />
<use xlink:href="#f6_ct" transform="matrix(14,0,0,14,226.7,288.8)" />
<use xlink:href="#f6_am" transform="matrix(14,0,0,14,238,288.8)" />
<use xlink:href="#f6_c0" transform="matrix(14,0,0,14,259.5,288.8)" />
<use xlink:href="#f6_ct" transform="matrix(14,0,0,14,272.1,288.8)" />
<use xlink:href="#f6_br" transform="matrix(14,0,0,14,283.3,288.8)" />
<use xlink:href="#f6_ct" transform="matrix(14,0,0,14,295,288.8)" />
<use xlink:href="#f6_br" transform="matrix(14,0,0,14,300.6,288.8)" />
<use xlink:href="#f6_ct" transform="matrix(14,0,0,14,312.3,288.8)" />
<use xlink:href="#f6_bp" transform="matrix(14,0,0,14,329.3,288.8)" />
<use xlink:href="#f6_d4" transform="matrix(14,0,0,14,341.7,288.8)" />
<use xlink:href="#f6_c1" transform="matrix(14,0,0,14,341.6,288.8)" />
<use xlink:href="#f6_cv" transform="matrix(14,0,0,14,350,288.8)" />
<use xlink:href="#f6_bt" transform="matrix(14,0,0,14,366.9,288.8)" />
<use xlink:href="#f6_bb" transform="matrix(14,0,0,14,378.6,288.8)" />
<use xlink:href="#f6_c1" transform="matrix(14,0,0,14,391.2,288.8)" />
<use xlink:href="#f6_cv" transform="matrix(14,0,0,14,399.6,288.8)" />
<use xlink:href="#f6_bz" transform="matrix(14,0,0,14,416.6,288.8)" />
<use xlink:href="#f6_oz" transform="matrix(14,0,0,14,430,288.8)" />
<use xlink:href="#f6_8l" transform="matrix(14,0,0,14,435.6,288.8)" />
<use xlink:href="#f6_pc" transform="matrix(14,0,0,14,455.4,288.8)" />
<use xlink:href="#f6_pd" transform="matrix(14,0,0,14,459.7,288.8)" />
<use xlink:href="#f6_q" transform="matrix(14,0,0,14,467.2,288.8)" />
<use xlink:href="#f6_bz" transform="matrix(14,0,0,14,156.1,323.1)" />
<use xlink:href="#f6_p3" transform="matrix(14,0,0,14,169.6,323.1)" />
<use xlink:href="#f6_br" transform="matrix(14,0,0,14,175.1,323.1)" />
<use xlink:href="#f6_ob" transform="matrix(14,0,0,14,186.8,323.1)" />
<use xlink:href="#f6_c7" transform="matrix(14,0,0,14,192.4,323.1)" />
<use xlink:href="#f6_ct" transform="matrix(14,0,0,14,204.5,323.1)" />
<use xlink:href="#f6_bt" transform="matrix(14,0,0,14,210.1,323.1)" />
<use xlink:href="#f6_ct" transform="matrix(14,0,0,14,221.9,323.1)" />
<use xlink:href="#f6_k" transform="matrix(14,0,0,14,227.5,323.1)" />
<use xlink:href="#f6_bz" transform="matrix(14,0,0,14,238.4,323.1)" />
<use xlink:href="#f6_p3" transform="matrix(14,0,0,14,251.8,323.1)" />
<use xlink:href="#f6_br" transform="matrix(14,0,0,14,257.4,323.1)" />
<use xlink:href="#f6_ob" transform="matrix(14,0,0,14,269,323.1)" />
<use xlink:href="#f6_c7" transform="matrix(14,0,0,14,274.7,323.1)" />
<use xlink:href="#f6_ct" transform="matrix(14,0,0,14,286.7,323.1)" />
<use xlink:href="#f6_bt" transform="matrix(14,0,0,14,292.4,323.1)" />
<use xlink:href="#f6_ct" transform="matrix(14,0,0,14,304.1,323.1)" />
<use xlink:href="#f6_bz" transform="matrix(14,0,0,14,315.4,323.1)" />
<use xlink:href="#f6_p3" transform="matrix(14,0,0,14,328.8,323.1)" />
<use xlink:href="#f6_br" transform="matrix(14,0,0,14,334.4,323.1)" />
<use xlink:href="#f6_ob" transform="matrix(14,0,0,14,346,323.1)" />
<use xlink:href="#f6_c7" transform="matrix(14,0,0,14,351.7,323.1)" />
<use xlink:href="#f6_ct" transform="matrix(14,0,0,14,363.7,323.1)" />
<use xlink:href="#f6_bt" transform="matrix(14,0,0,14,369.4,323.1)" />
<use xlink:href="#f6_ct" transform="matrix(14,0,0,14,381.1,323.1)" />
<use xlink:href="#f6_cc" transform="matrix(14,0,0,14,392.4,323.1)" />
<use xlink:href="#f6_d8" transform="matrix(14,0,0,14,404,323.1)" />
<use xlink:href="#f6_bb" transform="matrix(14,0,0,14,415.2,323.1)" />
<use xlink:href="#f6_c0" transform="matrix(14,0,0,14,427.9,323.1)" />
<use xlink:href="#f6_ct" transform="matrix(14,0,0,14,440.4,323.1)" />
<use xlink:href="#f6_pd" transform="matrix(14,0,0,14,446,323.1)" />
<use xlink:href="#f6_q" transform="matrix(14,0,0,14,453.6,323.1)" />
<use xlink:href="#f6_bz" transform="matrix(14,0,0,14,164.2,357.5)" />
<use xlink:href="#f6_p3" transform="matrix(14,0,0,14,177.6,357.5)" />
<use xlink:href="#f6_bz" transform="matrix(14,0,0,14,188.8,357.5)" />
<use xlink:href="#f6_m1" transform="matrix(14,0,0,14,202.2,357.5)" />
<use xlink:href="#f6_bp" transform="matrix(14,0,0,14,211.1,357.5)" />
<use xlink:href="#f6_ct" transform="matrix(14,0,0,14,223.4,357.5)" />
<use xlink:href="#f6_bt" transform="matrix(14,0,0,14,229,357.5)" />
<use xlink:href="#f6_ct" transform="matrix(14,0,0,14,240.7,357.5)" />
<use xlink:href="#f6_bz" transform="matrix(14,0,0,14,252,357.5)" />
<use xlink:href="#f6_m1" transform="matrix(14,0,0,14,265.3,357.5)" />
<use xlink:href="#f6_bp" transform="matrix(14,0,0,14,274.2,357.5)" />
<use xlink:href="#f6_ct" transform="matrix(14,0,0,14,286.5,357.5)" />
<use xlink:href="#f6_bt" transform="matrix(14,0,0,14,292.2,357.5)" />
<use xlink:href="#f6_ct" transform="matrix(14,0,0,14,303.9,357.5)" />
<use xlink:href="#f6_bz" transform="matrix(14,0,0,14,320.8,357.5)" />
<use xlink:href="#f6_m1" transform="matrix(14,0,0,14,334.2,357.5)" />
<use xlink:href="#f6_bp" transform="matrix(14,0,0,14,343.1,357.5)" />
<use xlink:href="#f6_ct" transform="matrix(14,0,0,14,355.4,357.5)" />
<use xlink:href="#f6_bt" transform="matrix(14,0,0,14,361,357.5)" />
<use xlink:href="#f6_ct" transform="matrix(14,0,0,14,372.7,357.5)" />
<use xlink:href="#f6_cc" transform="matrix(14,0,0,14,384,357.5)" />
<use xlink:href="#f6_d8" transform="matrix(14,0,0,14,395.6,357.5)" />
<use xlink:href="#f6_bb" transform="matrix(14,0,0,14,406.9,357.5)" />
<use xlink:href="#f6_c0" transform="matrix(14,0,0,14,419.5,357.5)" />
<use xlink:href="#f6_ct" transform="matrix(14,0,0,14,432.1,357.5)" />
<use xlink:href="#f6_pd" transform="matrix(14,0,0,14,437.7,357.5)" />
<use xlink:href="#f6_q" transform="matrix(14,0,0,14,445.2,357.5)" />
<use xlink:href="#f6_c0" transform="matrix(14,0,0,14,176.8,426.3)" />
<use xlink:href="#f6_cx" transform="matrix(14,0,0,14,189.3,426.1)" />
<use xlink:href="#f6_di" transform="matrix(14,0,0,14,187.6,426.7)" />
<use xlink:href="#f6_bp" transform="matrix(14,0,0,14,195,426.3)" />
<use xlink:href="#f6_d8" transform="matrix(14,0,0,14,207.3,426.3)" />
<use xlink:href="#f6_cc" transform="matrix(14,0,0,14,218.6,426.3)" />
<use xlink:href="#f6_cg" transform="matrix(14,0,0,14,230.2,426.3)" />
<use xlink:href="#f6_ct" transform="matrix(14,0,0,14,244.4,426.3)" />
<use xlink:href="#f6_c1" transform="matrix(14,0,0,14,250.1,426.3)" />
<use xlink:href="#f6_d8" transform="matrix(14,0,0,14,258.4,426.3)" />
<use xlink:href="#f6_bz" transform="matrix(14,0,0,14,269.7,426.3)" />
<use xlink:href="#f6_dj" transform="matrix(14,0,0,14,277.2,426.7)" />
<use xlink:href="#f6_bg" transform="matrix(14,0,0,14,283.1,426.3)" />
<use xlink:href="#f6_c1" transform="matrix(14,0,0,14,297.3,426.3)" />
<use xlink:href="#f6_br" transform="matrix(14,0,0,14,311.4,426.3)" />
<use xlink:href="#f6_d4" transform="matrix(14,0,0,14,322.6,426.3)" />
<use xlink:href="#f6_ba" transform="matrix(14,0,0,14,323,426.3)" />
<use xlink:href="#f6_d4" transform="matrix(14,0,0,14,339.9,426.3)" />
<use xlink:href="#f6_cc" transform="matrix(14,0,0,14,345.4,426.3)" />
<use xlink:href="#f6_p3" transform="matrix(14,0,0,14,357.4,426.3)" />
<use xlink:href="#f6_cc" transform="matrix(14,0,0,14,362.7,426.3)" />
<use xlink:href="#f6_cb" transform="matrix(14,0,0,14,374.3,426.3)" />
<use xlink:href="#f6_cv" transform="matrix(14,0,0,14,389.2,426.3)" />
<use xlink:href="#f6_dj" transform="matrix(14,0,0,14,393.8,427.1)" />
<use xlink:href="#f6_bz" transform="matrix(14,0,0,14,400.5,426.3)" />
<use xlink:href="#f6_p3" transform="matrix(14,0,0,14,413.9,426.3)" />
<use xlink:href="#f6_bt" transform="matrix(14,0,0,14,413.8,426.3)" />
<use xlink:href="#f6_d4" transform="matrix(14,0,0,14,425.7,426.3)" />
<use xlink:href="#f6_pd" transform="matrix(14,0,0,14,425.5,426.3)" />
<use xlink:href="#f6_q" transform="matrix(14,0,0,14,433.1,426.3)" />
<use xlink:href="#f6_cu" transform="matrix(14,0,0,14,109.2,460.6)" />
<use xlink:href="#f6_br" transform="matrix(14,0,0,14,114.8,460.6)" />
<use xlink:href="#f6_c3" transform="matrix(14,0,0,14,126.5,460.6)" />
<use xlink:href="#f6_bt" transform="matrix(14,0,0,14,146.8,460.6)" />
<use xlink:href="#f6_d4" transform="matrix(14,0,0,14,158.7,460.6)" />
<use xlink:href="#f6_cb" transform="matrix(14,0,0,14,164.2,460.6)" />
<use xlink:href="#f6_cw" transform="matrix(14,0,0,14,179.6,460.5)" />
<use xlink:href="#f6_b9" transform="matrix(14,0,0,14,179.1,460.6)" />
<use xlink:href="#f6_cx" transform="matrix(14,0,0,14,189.6,460.5)" />
<use xlink:href="#f6_bt" transform="matrix(14,0,0,14,194.6,460.6)" />
<use xlink:href="#f6_bv" transform="matrix(14,0,0,14,212,460.6)" />
<use xlink:href="#f6_ct" transform="matrix(14,0,0,14,223.8,460.6)" />
<use xlink:href="#f6_c0" transform="matrix(14,0,0,14,229.4,460.6)" />
<use xlink:href="#f6_ct" transform="matrix(14,0,0,14,242,460.6)" />
<use xlink:href="#f6_c1" transform="matrix(14,0,0,14,253.3,460.6)" />
<use xlink:href="#f6_d4" transform="matrix(14,0,0,14,261.3,460.6)" />
<use xlink:href="#f6_br" transform="matrix(14,0,0,14,267.3,460.6)" />
<use xlink:href="#f6_ct" transform="matrix(14,0,0,14,279,460.6)" />
<use xlink:href="#f6_br" transform="matrix(14,0,0,14,284.6,460.6)" />
<use xlink:href="#f6_ct" transform="matrix(14,0,0,14,296.3,460.6)" />
<use xlink:href="#f6_pd" transform="matrix(14,0,0,14,307.6,460.6)" />
<use xlink:href="#f6_q" transform="matrix(14,0,0,14,320.8,460.6)" />
<use xlink:href="#f6_k" transform="matrix(14,0,0,14,332.4,460.6)" />
<use xlink:href="#f6_br" transform="matrix(14,0,0,14,337.7,460.6)" />
<use xlink:href="#f6_ct" transform="matrix(14,0,0,14,349.3,460.6)" />
<use xlink:href="#f6_br" transform="matrix(14,0,0,14,355,460.6)" />
<use xlink:href="#f6_ct" transform="matrix(14,0,0,14,366.6,460.6)" />
<use xlink:href="#f6_bp" transform="matrix(14,0,0,14,377.9,460.6)" />
<use xlink:href="#f6_d4" transform="matrix(14,0,0,14,390.4,460.6)" />
<use xlink:href="#f6_c1" transform="matrix(14,0,0,14,390.2,460.6)" />
<use xlink:href="#f6_cv" transform="matrix(14,0,0,14,398.6,460.6)" />
<use xlink:href="#f6_bt" transform="matrix(14,0,0,14,409.9,460.6)" />
<use xlink:href="#f6_bb" transform="matrix(14,0,0,14,421.6,460.6)" />
<use xlink:href="#f6_c1" transform="matrix(14,0,0,14,434.2,460.6)" />
<use xlink:href="#f6_cv" transform="matrix(14,0,0,14,442.6,460.6)" />
<use xlink:href="#f6_bz" transform="matrix(14,0,0,14,453.9,460.6)" />
<use xlink:href="#f6_oz" transform="matrix(14,0,0,14,467.4,460.6)" />
<use xlink:href="#f6_8l" transform="matrix(14,0,0,14,472.9,460.6)" />
<use xlink:href="#f6_8l" transform="matrix(14,0,0,14,492.7,460.6)" />
<use xlink:href="#f6_bt" transform="matrix(14,0,0,14,128.6,495)" />
<use xlink:href="#f6_bg" transform="matrix(14,0,0,14,140.4,495)" />
<use xlink:href="#f6_c1" transform="matrix(14,0,0,14,154.6,495)" />
<use xlink:href="#f6_ct" transform="matrix(14,0,0,14,163,495)" />
<use xlink:href="#f6_bt" transform="matrix(14,0,0,14,168.6,495)" />
<use xlink:href="#f6_ct" transform="matrix(14,0,0,14,180.3,495)" />
<use xlink:href="#f6_cu" transform="matrix(14,0,0,14,191.6,495)" />
<use xlink:href="#f6_br" transform="matrix(14,0,0,14,197.2,495)" />
<use xlink:href="#f6_c3" transform="matrix(14,0,0,14,208.9,495)" />
<use xlink:href="#f6_b9" transform="matrix(14,0,0,14,229.3,495)" />
<use xlink:href="#f6_ct" transform="matrix(14,0,0,14,244.8,495)" />
<use xlink:href="#f6_c3" transform="matrix(14,0,0,14,256.1,495)" />
<use xlink:href="#f6_ct" transform="matrix(14,0,0,14,270.8,495)" />
<use xlink:href="#f6_c0" transform="matrix(14,0,0,14,276.4,495)" />
<use xlink:href="#f6_ct" transform="matrix(14,0,0,14,288.9,495)" />
<use xlink:href="#f6_pd" transform="matrix(14,0,0,14,300.2,495)" />
<use xlink:href="#f6_q" transform="matrix(14,0,0,14,313.4,495)" />
<use xlink:href="#f6_br" transform="matrix(14,0,0,14,330.8,495)" />
<use xlink:href="#f6_ct" transform="matrix(14,0,0,14,342.4,495)" />
<use xlink:href="#f6_br" transform="matrix(14,0,0,14,348.1,495)" />
<use xlink:href="#f6_ct" transform="matrix(14,0,0,14,359.7,495)" />
<use xlink:href="#f6_bp" transform="matrix(14,0,0,14,371,495)" />
<use xlink:href="#f6_d4" transform="matrix(14,0,0,14,383.5,495)" />
<use xlink:href="#f6_c1" transform="matrix(14,0,0,14,383.3,495)" />
<use xlink:href="#f6_cv" transform="matrix(14,0,0,14,391.7,495)" />
<use xlink:href="#f6_bt" transform="matrix(14,0,0,14,403,495)" />
<use xlink:href="#f6_bb" transform="matrix(14,0,0,14,414.7,495)" />
<use xlink:href="#f6_c1" transform="matrix(14,0,0,14,427.3,495)" />
<use xlink:href="#f6_cv" transform="matrix(14,0,0,14,435.7,495)" />
<use xlink:href="#f6_bz" transform="matrix(14,0,0,14,452.6,495)" />
<use xlink:href="#f6_oz" transform="matrix(14,0,0,14,466.1,495)" />
<use xlink:href="#f6_8l" transform="matrix(14,0,0,14,471.7,495)" />
<use xlink:href="#f6_bz" transform="matrix(14,0,0,14,157.3,529.4)" />
<use xlink:href="#f6_p3" transform="matrix(14,0,0,14,170.8,529.4)" />
<use xlink:href="#f6_br" transform="matrix(14,0,0,14,176.3,529.4)" />
<use xlink:href="#f6_ob" transform="matrix(14,0,0,14,188,529.4)" />
<use xlink:href="#f6_c7" transform="matrix(14,0,0,14,193.6,529.4)" />
<use xlink:href="#f6_ct" transform="matrix(14,0,0,14,205.7,529.4)" />
<use xlink:href="#f6_bt" transform="matrix(14,0,0,14,211.3,529.4)" />
<use xlink:href="#f6_ct" transform="matrix(14,0,0,14,223,529.4)" />
<use xlink:href="#f6_cc" transform="matrix(14,0,0,14,234.3,529.4)" />
<use xlink:href="#f6_d8" transform="matrix(14,0,0,14,245.9,529.4)" />
<use xlink:href="#f6_bb" transform="matrix(14,0,0,14,257.2,529.4)" />
<use xlink:href="#f6_c0" transform="matrix(14,0,0,14,269.8,529.4)" />
<use xlink:href="#f6_ct" transform="matrix(14,0,0,14,282.3,529.4)" />
<use xlink:href="#f6_c1" transform="matrix(14,0,0,14,293.6,529.4)" />
<use xlink:href="#f6_d4" transform="matrix(14,0,0,14,301.6,529.4)" />
<use xlink:href="#f6_bz" transform="matrix(14,0,0,14,307.7,529.4)" />
<use xlink:href="#f6_p3" transform="matrix(14,0,0,14,321.1,529.4)" />
<use xlink:href="#f6_br" transform="matrix(14,0,0,14,332.3,529.4)" />
<use xlink:href="#f6_ob" transform="matrix(14,0,0,14,344,529.4)" />
<use xlink:href="#f6_c7" transform="matrix(14,0,0,14,349.6,529.4)" />
<use xlink:href="#f6_ct" transform="matrix(14,0,0,14,361.7,529.4)" />
<use xlink:href="#f6_bt" transform="matrix(14,0,0,14,367.3,529.4)" />
<use xlink:href="#f6_ct" transform="matrix(14,0,0,14,379,529.4)" />
<use xlink:href="#f6_cc" transform="matrix(14,0,0,14,390.3,529.4)" />
<use xlink:href="#f6_d8" transform="matrix(14,0,0,14,401.9,529.4)" />
<use xlink:href="#f6_bb" transform="matrix(14,0,0,14,413.2,529.4)" />
<use xlink:href="#f6_c0" transform="matrix(14,0,0,14,425.8,529.4)" />
<use xlink:href="#f6_ct" transform="matrix(14,0,0,14,438.4,529.4)" />
<use xlink:href="#f6_pd" transform="matrix(14,0,0,14,444,529.4)" />
<use xlink:href="#f6_q" transform="matrix(14,0,0,14,451.6,529.4)" />
<use xlink:href="#f6_br" transform="matrix(14,0,0,14,165.3,598.1)" />
<use xlink:href="#f6_ct" transform="matrix(14,0,0,14,177,598.1)" />
<use xlink:href="#f6_br" transform="matrix(14,0,0,14,182.6,598.1)" />
<use xlink:href="#f6_ct" transform="matrix(14,0,0,14,194.3,598.1)" />
<use xlink:href="#f6_b9" transform="matrix(14,0,0,14,205.6,598.1)" />
<use xlink:href="#f6_d8" transform="matrix(14,0,0,14,221.1,598.1)" />
<use xlink:href="#f6_by" transform="matrix(14,0,0,14,232.3,598.1)" />
<use xlink:href="#f6_cx" transform="matrix(14,0,0,14,246.3,598)" />
<use xlink:href="#f6_c3" transform="matrix(14,0,0,14,246.3,598.1)" />
<use xlink:href="#f6_b9" transform="matrix(14,0,0,14,261,598.1)" />
<use xlink:href="#f6_c1" transform="matrix(14,0,0,14,276.5,598.1)" />
<use xlink:href="#f6_b9" transform="matrix(14,0,0,14,290.6,598.1)" />
<use xlink:href="#f6_cc" transform="matrix(14,0,0,14,306.1,598.1)" />
<use xlink:href="#f6_cv" transform="matrix(14,0,0,14,317.7,598.1)" />
<use xlink:href="#f6_b8" transform="matrix(14,0,0,14,328.9,598.1)" />
<use xlink:href="#f6_c1" transform="matrix(14,0,0,14,350.4,598.1)" />
<use xlink:href="#f6_b9" transform="matrix(14,0,0,14,364.5,598.1)" />
<use xlink:href="#f6_d5" transform="matrix(14,0,0,14,375.6,598.1)" />
<use xlink:href="#f6_cb" transform="matrix(14,0,0,14,380,598.1)" />
<use xlink:href="#f6_d4" transform="matrix(14,0,0,14,395,598.1)" />
<use xlink:href="#f6_bg" transform="matrix(14,0,0,14,400.5,598.1)" />
<use xlink:href="#f6_ct" transform="matrix(14,0,0,14,414.8,598.1)" />
<use xlink:href="#f6_aq" transform="matrix(14,0,0,14,420.4,598.1)" />
<use xlink:href="#f6_pd" transform="matrix(14,0,0,14,436.1,598.1)" />
<use xlink:href="#f6_q" transform="matrix(14,0,0,14,443.7,598.1)" />
<use xlink:href="#f6_cb" transform="matrix(14,0,0,14,119.5,632.5)" />
<use xlink:href="#f6_bx" transform="matrix(14,0,0,14,134.3,632.5)" />
<use xlink:href="#f6_b9" transform="matrix(14,0,0,14,152.3,632.5)" />
<use xlink:href="#f6_cw" transform="matrix(14,0,0,14,163.4,632.4)" />
<use xlink:href="#f6_bf" transform="matrix(14,0,0,14,167.8,632.5)" />
<use xlink:href="#f6_bp" transform="matrix(14,0,0,14,189.2,632.5)" />
<use xlink:href="#f6_d8" transform="matrix(14,0,0,14,201.5,632.5)" />
<use xlink:href="#f6_c0" transform="matrix(14,0,0,14,212.8,632.5)" />
<use xlink:href="#f6_cc" transform="matrix(14,0,0,14,225.3,632.5)" />
<use xlink:href="#f6_cv" transform="matrix(14,0,0,14,236.9,632.5)" />
<use xlink:href="#f6_bv" transform="matrix(14,0,0,14,248.2,632.5)" />
<use xlink:href="#f6_ct" transform="matrix(14,0,0,14,260.1,632.5)" />
<use xlink:href="#f6_c0" transform="matrix(14,0,0,14,265.7,632.5)" />
<use xlink:href="#f6_ct" transform="matrix(14,0,0,14,278.3,632.5)" />
<use xlink:href="#f6_c1" transform="matrix(14,0,0,14,295.2,632.5)" />
<use xlink:href="#f6_d4" transform="matrix(14,0,0,14,303.2,632.5)" />
<use xlink:href="#f6_br" transform="matrix(14,0,0,14,309.3,632.5)" />
<use xlink:href="#f6_ct" transform="matrix(14,0,0,14,320.9,632.5)" />
<use xlink:href="#f6_br" transform="matrix(14,0,0,14,326.5,632.5)" />
<use xlink:href="#f6_ct" transform="matrix(14,0,0,14,338.2,632.5)" />
<use xlink:href="#f6_pd" transform="matrix(14,0,0,14,343.8,632.5)" />
<use xlink:href="#f6_n8" transform="matrix(14,0,0,14,351.4,632.5)" />
<use xlink:href="#f6_br" transform="matrix(14,0,0,14,373.1,632.5)" />
<use xlink:href="#f6_ct" transform="matrix(14,0,0,14,384.8,632.5)" />
<use xlink:href="#f6_br" transform="matrix(14,0,0,14,390.4,632.5)" />
<use xlink:href="#f6_ct" transform="matrix(14,0,0,14,402.1,632.5)" />
<use xlink:href="#f6_bp" transform="matrix(14,0,0,14,413.4,632.5)" />
<use xlink:href="#f6_d4" transform="matrix(14,0,0,14,425.8,632.5)" />
<use xlink:href="#f6_c1" transform="matrix(14,0,0,14,425.7,632.5)" />
<use xlink:href="#f6_cv" transform="matrix(14,0,0,14,434.1,632.5)" />
<use xlink:href="#f6_bt" transform="matrix(14,0,0,14,445.4,632.5)" />
<use xlink:href="#f6_bb" transform="matrix(14,0,0,14,457.1,632.5)" />
<use xlink:href="#f6_c1" transform="matrix(14,0,0,14,469.7,632.5)" />
<use xlink:href="#f6_cv" transform="matrix(14,0,0,14,478.1,632.5)" />
<use xlink:href="#f6_bz" transform="matrix(14,0,0,14,489.4,632.5)" />
<use xlink:href="#f6_d4" transform="matrix(14,0,0,14,502.8,632.5)" />
<use xlink:href="#f6_bt" transform="matrix(14,0,0,14,128.6,666.9)" />
<use xlink:href="#f6_bg" transform="matrix(14,0,0,14,140.4,666.9)" />
<use xlink:href="#f6_c1" transform="matrix(14,0,0,14,154.6,666.9)" />
<use xlink:href="#f6_ct" transform="matrix(14,0,0,14,163,666.9)" />
<use xlink:href="#f6_bt" transform="matrix(14,0,0,14,168.6,666.9)" />
<use xlink:href="#f6_ct" transform="matrix(14,0,0,14,180.3,666.9)" />
<use xlink:href="#f6_cu" transform="matrix(14,0,0,14,191.6,666.9)" />
<use xlink:href="#f6_br" transform="matrix(14,0,0,14,197.2,666.9)" />
<use xlink:href="#f6_c3" transform="matrix(14,0,0,14,208.9,666.9)" />
<use xlink:href="#f6_b9" transform="matrix(14,0,0,14,229.3,666.9)" />
<use xlink:href="#f6_ct" transform="matrix(14,0,0,14,244.8,666.9)" />
<use xlink:href="#f6_c3" transform="matrix(14,0,0,14,256.1,666.9)" />
<use xlink:href="#f6_ct" transform="matrix(14,0,0,14,270.8,666.9)" />
<use xlink:href="#f6_c0" transform="matrix(14,0,0,14,276.4,666.9)" />
<use xlink:href="#f6_ct" transform="matrix(14,0,0,14,288.9,666.9)" />
<use xlink:href="#f6_pd" transform="matrix(14,0,0,14,300.2,666.9)" />
<use xlink:href="#f6_q" transform="matrix(14,0,0,14,313.4,666.9)" />
<use xlink:href="#f6_br" transform="matrix(14,0,0,14,330.8,666.9)" />
<use xlink:href="#f6_ct" transform="matrix(14,0,0,14,342.4,666.9)" />
<use xlink:href="#f6_br" transform="matrix(14,0,0,14,348.1,666.9)" />
<use xlink:href="#f6_ct" transform="matrix(14,0,0,14,359.7,666.9)" />
<use xlink:href="#f6_bp" transform="matrix(14,0,0,14,371,666.9)" />
<use xlink:href="#f6_d4" transform="matrix(14,0,0,14,383.5,666.9)" />
<use xlink:href="#f6_c1" transform="matrix(14,0,0,14,383.3,666.9)" />
<use xlink:href="#f6_cv" transform="matrix(14,0,0,14,391.7,666.9)" />
<use xlink:href="#f6_bt" transform="matrix(14,0,0,14,403,666.9)" />
<use xlink:href="#f6_bb" transform="matrix(14,0,0,14,414.7,666.9)" />
<use xlink:href="#f6_c1" transform="matrix(14,0,0,14,427.3,666.9)" />
<use xlink:href="#f6_cv" transform="matrix(14,0,0,14,435.7,666.9)" />
<use xlink:href="#f6_bz" transform="matrix(14,0,0,14,452.6,666.9)" />
<use xlink:href="#f6_oz" transform="matrix(14,0,0,14,466.1,666.9)" />
<use xlink:href="#f6_8l" transform="matrix(14,0,0,14,471.7,666.9)" />
<use xlink:href="#f6_bz" transform="matrix(14,0,0,14,156.1,701.3)" />
<use xlink:href="#f6_p3" transform="matrix(14,0,0,14,169.6,701.3)" />
<use xlink:href="#f6_br" transform="matrix(14,0,0,14,175.1,701.3)" />
<use xlink:href="#f6_ob" transform="matrix(14,0,0,14,186.8,701.3)" />
<use xlink:href="#f6_c7" transform="matrix(14,0,0,14,192.4,701.3)" />
<use xlink:href="#f6_ct" transform="matrix(14,0,0,14,204.5,701.3)" />
<use xlink:href="#f6_bt" transform="matrix(14,0,0,14,210.1,701.3)" />
<use xlink:href="#f6_ct" transform="matrix(14,0,0,14,221.9,701.3)" />
<use xlink:href="#f6_k" transform="matrix(14,0,0,14,227.5,701.3)" />
<use xlink:href="#f6_bz" transform="matrix(14,0,0,14,238.4,701.3)" />
<use xlink:href="#f6_p3" transform="matrix(14,0,0,14,251.8,701.3)" />
<use xlink:href="#f6_br" transform="matrix(14,0,0,14,257.4,701.3)" />
<use xlink:href="#f6_ob" transform="matrix(14,0,0,14,269,701.3)" />
<use xlink:href="#f6_c7" transform="matrix(14,0,0,14,274.7,701.3)" />
<use xlink:href="#f6_ct" transform="matrix(14,0,0,14,286.7,701.3)" />
<use xlink:href="#f6_bt" transform="matrix(14,0,0,14,292.4,701.3)" />
<use xlink:href="#f6_ct" transform="matrix(14,0,0,14,304.1,701.3)" />
<use xlink:href="#f6_bz" transform="matrix(14,0,0,14,315.4,701.3)" />
<use xlink:href="#f6_p3" transform="matrix(14,0,0,14,328.8,701.3)" />
<use xlink:href="#f6_br" transform="matrix(14,0,0,14,334.4,701.3)" />
<use xlink:href="#f6_ob" transform="matrix(14,0,0,14,346,701.3)" />
<use xlink:href="#f6_c7" transform="matrix(14,0,0,14,351.7,701.3)" />
<use xlink:href="#f6_ct" transform="matrix(14,0,0,14,363.7,701.3)" />
<use xlink:href="#f6_bt" transform="matrix(14,0,0,14,369.4,701.3)" />
<use xlink:href="#f6_ct" transform="matrix(14,0,0,14,381.1,701.3)" />
<use xlink:href="#f6_cc" transform="matrix(14,0,0,14,392.4,701.3)" />
<use xlink:href="#f6_d8" transform="matrix(14,0,0,14,404,701.3)" />
<use xlink:href="#f6_bb" transform="matrix(14,0,0,14,415.2,701.3)" />
<use xlink:href="#f6_c0" transform="matrix(14,0,0,14,427.9,701.3)" />
<use xlink:href="#f6_ct" transform="matrix(14,0,0,14,440.4,701.3)" />
<use xlink:href="#f6_pd" transform="matrix(14,0,0,14,446,701.3)" />
<use xlink:href="#f6_q" transform="matrix(14,0,0,14,453.6,701.3)" />
<use xlink:href="#f7_4r" transform="matrix(9,0,0,9,290.2,795.2)" />
<use xlink:href="#f8_t" transform="matrix(9,0,0,9,303,795.2)" />
<use xlink:href="#f8_r" transform="matrix(9,0,0,9,310.7,795.2)" />
<use xlink:href="#f7_4r" transform="matrix(9,0,0,9,321.3,795.2)" />
</g>
</g>
<image preserveAspectRatio="none" x="22" y="801" width="581" height="86" xlink:href="img/1.png"/>
<path d="M234.9,83.6H387.3v1.2H234.9V83.6Z" class="g1_103"/>
<image preserveAspectRatio="none" x="202" y="14" width="217" height="26" xlink:href="img/2.png"/>
<defs>
<path d="M700,-327L637,-39c0,0,-43,-9,-85,-9c0,0,-109,0,-228,58c0,0,-119,59,-199,160c0,0,-79,102,-79,220c0,0,0,134,95,216c0,0,94,82,252,85H516V822H0L-86,937l32,64H929l85,-115L982,822H645L747,749V468l2,-4H478c0,0,-98,0,-148,-45c0,0,-50,-46,-50,-110c0,0,0,-68,53,-121c0,0,46,-20,99,-20c0,0,74,0,141,35L555,332l154,56L897,154C897,154,862,87,785,34L933,-233L700,-327Z"
id="f5_br"
transform="scale(0.001,-0.001)"/>

<path d="M277,-65L102,29V822H0L-86,937l32,64H101c0,0,-90,165,-173,246c0,0,-83,82,-174,82c0,0,-77,0,-124,-46c0,0,-48,-47,-48,-110c0,0,0,-52,36,-105l-97,-50c0,0,-143,114,-143,268c0,0,0,113,85,191c0,0,86,77,219,77c0,0,188,0,333,-152c0,0,147,-152,258,-401H463L548,886L516,822H244L347,749V-31L277,-65Z"
id="f5_ob"
transform="scale(0.001,-0.001)"/>

<path d="M371,296c0,0,71,0,139,34c0,0,69,34,109,92v90c0,0,-72,36,-148,36c0,0,-84,0,-131,-47c0,0,-47,-47,-47,-111c0,0,0,-49,28,-89l50,-5ZM793,-65L619,29V134c0,0,-55,-27,-122,-27c0,0,-98,0,-207,48c0,0,-108,48,-182,132c0,0,-73,84,-73,188c0,0,0,113,83,191c0,0,84,78,212,78c0,0,41,0,84,-9L619,643V822H0L-86,937l32,64H978l85,-115l-32,-64H761L863,749V-31L793,-65Z"
id="f5_c7"
transform="scale(0.001,-0.001)"/>

<path d="M277,-65L102,29V822H0L-86,937l32,64H463L548,886L516,822H244L347,749V-31L277,-65Z"
id="f5_ct"
transform="scale(0.001,-0.001)"/>

<path d="M746,-65L571,29V419H376V260L275,212c0,0,-87,48,-160,148c0,0,-72,100,-91,193l57,84H571V822H0L-86,937l32,64H930l88,-115L985,822H713L816,749V-31L746,-65Z"
id="f5_bt"
transform="scale(0.001,-0.001)"/>

<path d="M342,-69c0,0,-146,139,-224,256c0,0,-78,117,-78,226c0,0,0,120,90,193c0,0,90,72,243,72H599V822H0L-86,937l32,64H959l86,-115l-32,-64H741L843,749V-31L773,-65L599,29V445H448c0,0,-81,0,-123,-34c0,0,-42,-34,-42,-90c0,0,0,-54,43,-118c0,0,44,-64,143,-163L342,-69Z"
id="f5_bp"
transform="scale(0.001,-0.001)"/>

<path d="M-289,908l-132,216c0,0,-70,120,-169,120c0,0,-83,0,-200,-80l-130,249c0,0,125,78,234,78c0,0,187,0,349,-241L-159,969L-289,908Z"
id="f5_d4"
transform="scale(0.001,-0.001)"/>

<path d="M545,-97L35,405L87,542H295c0,0,1,5,1,280H0L-86,937l32,64H729L814,886L782,822H445L550,749V547c0,0,0,-75,-41,-127c0,0,-41,-52,-129,-111L709,110V41L545,-97Z"
id="f5_c1"
transform="scale(0.001,-0.001)"/>

<path d="M1128,-65L953,29V322c0,0,-23,-9,-52,-9c0,0,-47,0,-102,25c0,0,11,-42,11,-83c0,0,0,-116,-78,-192c0,0,-78,-76,-203,-76c0,0,-129,0,-261,94c0,0,-132,95,-244,339l123,78c0,0,70,-150,146,-225c0,0,75,-76,168,-76c0,0,72,0,113,40c0,0,42,40,42,90c0,0,0,84,-77,115L387,350L249,556c0,0,86,77,199,83c0,0,119,73,119,163c0,0,0,25,-15,40c0,0,-4,0,-10,0c-19,0,-67,-3,-124,-33c0,0,-76,-39,-146,-106L142,872c0,0,61,65,140,107c0,0,79,42,158,42c0,0,121,0,216,-91c0,0,96,-91,96,-197c0,0,0,-96,-84,-186c0,0,62,-46,142,-46c0,0,88,0,143,52V822H834L749,937l32,64h994l86,-115l-32,-64H1557l102,-73V-31l-70,-34L1415,29V822H1095l103,-73V-31l-70,-34Z"
id="f5_am"
transform="scale(0.001,-0.001)"/>

<path d="M368,290c0,0,83,0,161,44c0,0,78,43,116,117V822H382c0,0,136,-107,136,-225c0,0,0,-74,-55,-131c0,0,-55,-57,-165,-83c0,0,15,-48,44,-91l26,-2ZM819,-65L645,29V139c0,0,-60,-31,-130,-31c0,0,-145,0,-279,109c0,0,-134,108,-208,287l29,78c0,0,128,15,181,43c0,0,54,27,54,73c0,0,0,61,-96,124H0L-86,937l32,64H1004l87,-115l-32,-64H787L889,749V-31L819,-65Z"
id="f5_c0"
transform="scale(0.001,-0.001)"/>

<path d="M675,-274L602,21C602,21,550,3,498,3C498,3,347,3,210,118C210,118,73,232,73,373c0,0,0,113,84,184c0,0,84,71,222,72H524V822H0l-45,76l14,31H834l46,-76L866,822H585l66,-58V504l-3,2l3,-3H408c0,0,-95,0,-154,-53c0,0,-58,-53,-58,-132c0,0,0,-49,27,-100c0,0,28,-50,83,-84c0,0,44,-15,96,-15c0,0,91,0,160,46L535,303l101,48L773,188c0,0,-8,-28,-34,-66c0,0,-27,-38,-62,-64L813,-221L675,-274Z"
id="f6_br"
transform="scale(0.001,-0.001)"/>

<path d="M228,-49L138,8V822H0l-45,76l14,31H136c0,0,-173,353,-364,353c0,0,-75,0,-119,-44c0,0,-45,-45,-45,-106c0,0,0,-69,48,-128l-43,-32c0,0,-124,113,-124,224c0,0,0,87,67,146c0,0,68,59,167,59c0,0,150,0,283,-130c0,0,135,-130,219,-342H402l46,-76L434,822H199l65,-58V-39L228,-49Z"
id="f6_ob"
transform="scale(0.001,-0.001)"/>

<path d="M325,240c0,0,77,0,154,35c0,0,77,35,120,99V500c0,0,-118,73,-222,73c0,0,-97,0,-151,-54c0,0,-53,-53,-53,-128c0,0,0,-73,49,-125c0,0,38,-26,103,-26ZM689,-49L599,8V199c0,0,-73,-65,-179,-65c0,0,-134,0,-252,96c0,0,-118,95,-118,221c0,0,0,102,78,171c0,0,78,69,190,69c0,0,38,0,75,-10L599,582V822H0l-45,76l14,31H863l46,-76L895,822H660l66,-58V-39L689,-49Z"
id="f6_c7"
transform="scale(0.001,-0.001)"/>

<path d="M228,-49L138,8V822H0l-45,76l14,31H402l46,-76L434,822H199l65,-58V-39L228,-49Z"
id="f6_ct"
transform="scale(0.001,-0.001)"/>

<path d="M663,-49L573,8V445H299V280L226,251c0,0,-105,99,-162,238l63,72H573V822H0l-45,76l14,31H837l46,-76L869,822H634l66,-58V-39L663,-49Z"
id="f6_bt"
transform="scale(0.001,-0.001)"/>

<path d="M347,-57C347,-57,66,211,66,394c0,0,0,98,74,164c0,0,74,65,225,65H616V822H0l-45,76l14,31H880l46,-76L912,822H677l66,-58V-39L706,-49L616,8V500H428c0,0,-239,0,-239,-161c0,0,0,-136,214,-343L347,-57Z"
id="f6_bp"
transform="scale(0.001,-0.001)"/>

<path d="M-214,863l-199,281c0,0,-70,92,-157,92c0,0,-69,0,-159,-58l-72,118c0,0,89,73,180,73c0,0,141,0,258,-170L-155,901l-59,-38Z"
id="f6_d4"
transform="scale(0.001,-0.001)"/>

<path d="M527,-71L52,414l34,92H277c0,0,12,32,12,72V822H0l-45,76l14,31H599l46,-76L631,822H350l66,-55V564c0,0,0,-96,-152,-248L610,34L611,8L527,-71Z"
id="f6_c1"
transform="scale(0.001,-0.001)"/>

<path d="M959,-49L869,8V367c0,0,-32,-13,-64,-13c0,0,-50,0,-110,25c0,0,23,-52,23,-109c0,0,0,-103,-70,-170c0,0,-70,-66,-182,-66c0,0,-110,0,-222,82c0,0,-111,83,-213,293l68,42c0,0,72,-155,152,-231c0,0,81,-76,178,-76c0,0,83,0,131,49c0,0,48,48,48,117c0,0,0,54,-30,100c0,0,-31,47,-91,65L325,391L257,512c0,0,68,53,156,56c0,0,140,72,140,179c0,0,0,69,-52,99c0,0,-4,1,-11,1c-19,0,-66,-4,-123,-30c0,0,-78,-35,-142,-96L150,823c0,0,119,117,253,117c0,0,98,0,175,-71c0,0,77,-70,77,-159c0,0,0,-103,-94,-180c0,0,39,-23,73,-56c0,0,52,-22,109,-22c0,0,77,0,126,38V822H727l-46,76l14,31h840l46,-76l-13,-31H1332l66,-58V-39l-37,-10L1271,8V822H930l66,-58V-39L959,-49Z"
id="f6_am"
transform="scale(0.001,-0.001)"/>

<path d="M374,248c0,0,77,0,149,36c0,0,71,37,110,107V822H284c0,0,138,-96,138,-208c0,0,0,-151,-228,-192c0,0,29,-104,89,-158c0,0,41,-16,91,-16ZM723,-49L633,8V200c0,0,-69,-56,-170,-56c0,0,-122,0,-240,94c0,0,-118,94,-179,237l20,55c0,0,133,17,187,44c0,0,55,28,55,84c0,0,0,45,-30,81c0,0,-30,36,-99,83H0l-45,76l14,31H897l46,-76L929,822H694l65,-58V-39L723,-49Z"
id="f6_c0"
transform="scale(0.001,-0.001)"/>

<path d="M228,-49L138,8V822H0l-45,76l14,31H138c0,0,-109,342,-284,342c0,0,-62,0,-102,-40c0,0,-40,-39,-40,-93c0,0,0,-61,51,-134l-42,-32c0,0,-128,113,-128,226c0,0,0,79,60,136c0,0,61,56,154,56c0,0,137,0,249,-125c0,0,112,-125,169,-336H402l46,-76L434,822H199l65,-58V-39L228,-49Z"
id="f6_cv"
transform="scale(0.001,-0.001)"/>

<path d="M727,-49L637,8V822H278l66,-58V226L270,196c0,0,-64,36,-122,98c0,0,-58,62,-79,122l43,59H217V822H0l-45,76l14,31H901l46,-76L933,822H698l66,-58V-39L727,-49Z"
id="f6_bb"
transform="scale(0.001,-0.001)"/>

<path d="M689,445V822H286l65,-58l8,-319ZM779,-49L689,8V328H370V180L296,150c0,0,-56,35,-120,104c0,0,-63,70,-89,131l41,60H238L223,822H0l-45,76l14,31H953l46,-76L985,822H750l66,-58V-39L779,-49Z"
id="f6_bz"
transform="scale(0.001,-0.001)"/>

<path d="M-91,1001c0,0,-27,10,-61,36c0,0,-33,26,-50,49c0,0,38,81,90,110c0,0,61,-23,107,-85c0,0,-28,-71,-86,-110ZM-214,863l-199,281c0,0,-70,92,-157,92c0,0,-69,0,-159,-58l-72,118c0,0,89,73,180,73c0,0,141,0,258,-170L-155,901l-59,-38Z"
id="f6_oz"
transform="scale(0.001,-0.001)"/>

<path d="M254,-26c0,0,-84,16,-116,92c0,0,13,84,97,127c0,0,100,-36,112,-110C347,83,324,6,254,-26Zm458,0c0,0,-84,16,-116,92c0,0,14,84,98,127c0,0,99,-37,111,-110C805,83,782,6,712,-26Zm458,0c0,0,-84,16,-116,92c0,0,14,84,98,127c0,0,99,-36,111,-110c0,0,-22,-77,-93,-109Z"
id="f6_8l"
transform="scale(0.001,-0.001)"/>

<path d="M226,-49c0,0,-66,24,-102,78c0,0,32,69,82,101c0,0,55,-20,100,-80c0,0,-26,-66,-80,-99Z"
id="f6_pc"
transform="scale(0.001,-0.001)"/>

<path d="M92,380L46,457l14,30H448l45,-76L480,380Z"
id="f6_pd"
transform="scale(0.001,-0.001)"/>

<path d="M95,0L67,98L422,497c0,0,130,154,130,259c0,0,0,63,-40,111c0,0,-40,48,-121,48c0,0,-75,0,-171,-29L193,695l-88,2c0,0,-13,82,-13,165l1,65c0,0,159,97,315,97c0,0,122,0,207,-78c0,0,85,-77,85,-193c0,0,0,-67,-34,-133c0,0,-33,-67,-165,-217L237,121l4,-14l373,21l49,136l83,-12C746,252,732,99,704,0Z"
id="f6_q"
transform="scale(0.001,-0.001)"/>

<path d="M845,-49L755,8V513H497c0,0,61,-45,93,-110c0,0,33,-64,33,-128c0,0,0,-90,-58,-144c0,0,-59,-53,-143,-53c0,0,-133,0,-234,139C188,217,87,356,20,596l76,24c0,0,60,-201,127,-306c0,0,67,-105,160,-105c0,0,57,0,91,36c0,0,33,36,33,91c0,0,0,84,-73,159L295,558v71H755V822H0l-45,76l14,31H1019l46,-76l-14,-31H816l66,-58V-39L845,-49Z"
id="f6_bg"
transform="scale(0.001,-0.001)"/>

<path d="M228,-49L138,8V822H0l-45,76l14,31H134c0,0,-91,92,-91,191c0,0,0,105,85,170c0,0,84,65,219,65c0,0,128,0,293,-76c0,0,165,-77,362,-263L958,966c0,0,-177,143,-303,210c0,0,-125,68,-244,68c0,0,-107,0,-175,-50c0,0,-68,-50,-68,-131c0,0,0,-61,49,-134H402l46,-76L434,822H199l65,-58V-39L228,-49Z"
id="f6_cu"
transform="scale(0.001,-0.001)"/>

<path d="M413,-59C413,-59,53,193,53,416c0,0,0,97,66,164c0,0,66,66,156,66c0,0,61,0,110,-30L487,507c0,0,92,126,257,126l35,-2V822H0l-45,76l14,31H1043l46,-76l-13,-31H840l66,-58V-39L869,-49L779,8V547c0,0,-101,-5,-165,-90c0,0,-64,-86,-70,-222L507,225l-90,73c0,0,5,79,35,151c0,0,-59,66,-128,66c0,0,-57,0,-100,-38c0,0,-44,-39,-44,-109c0,0,0,-165,284,-360L413,-59Z"
id="f6_c3"
transform="scale(0.001,-0.001)"/>

<path d="M283,260c0,0,122,0,209,113V513c0,0,-90,51,-160,51c0,0,-80,0,-129,-50c0,0,-49,-50,-49,-118c0,0,0,-60,35,-110c0,0,45,-26,94,-26ZM582,-49L492,8V211c0,0,-63,-54,-141,-54c0,0,-113,0,-213,92c0,0,-100,92,-100,205c0,0,0,93,69,157c0,0,69,64,162,64c0,0,32,0,64,-9L492,590V822H0l-45,76l14,31H1108l45,-76l-13,-31H553l66,-58V524c0,0,91,89,192,89c0,0,98,0,171,-79c0,0,72,-79,72,-186c0,0,0,-178,-224,-330L736,124c0,0,219,153,219,269c0,0,0,44,-26,75c0,0,-26,32,-81,32c0,0,-109,0,-229,-155V-39L582,-49Z"
id="f6_b9"
transform="scale(0.001,-0.001)"/>

<path d="M-40,1030c0,0,-28,10,-61,36c0,0,-34,26,-51,49c0,0,38,81,90,110c0,0,61,-23,106,-85c0,0,-27,-71,-84,-110ZM-214,860l-227,219c0,0,-73,70,-148,70c0,0,-67,0,-160,-58l-72,117c0,0,83,71,176,71c0,0,120,0,232,-124L-221,940l-102,294c0,0,-64,179,-189,179c0,0,-60,0,-133,-33l-60,125c0,0,84,47,164,47c0,0,200,0,281,-276L-150,901l-23,-15l-41,-26Z"
id="f6_p3"
transform="scale(0.001,-0.001)"/>

<path d="M108,-222l-44,58c0,0,96,81,104,164L89,61c0,0,12,83,93,122c0,0,50,-15,79,-55c0,0,29,-39,29,-90c0,0,0,-69,-48,-142c0,0,-48,-72,-134,-118Z"
id="f6_k"
transform="scale(0.001,-0.001)"/>

<path d="M688,-243c0,0,-256,53,-408,173c0,0,-152,119,-152,270c0,0,0,101,68,171c0,0,-101,84,-101,179c0,0,0,64,53,112c0,0,54,47,191,47H587V822H0l-45,76l14,31H830l45,-76L862,822H640l66,-58V585H362c0,0,-159,-1,-159,-92c0,0,0,-41,46,-80c0,0,76,47,183,47c0,0,135,0,230,-76c0,0,96,-75,96,-187C758,197,758,67,629,2L545,104c0,0,49,30,81,75c0,0,32,44,32,82c0,0,0,16,-4,26c0,0,-64,58,-167,58c0,0,-97,0,-166,-50v-2c0,0,-67,-52,-67,-131c0,0,0,-116,132,-199c0,0,132,-84,334,-132l-32,-74Z"
id="f6_cc"
transform="scale(0.001,-0.001)"/>

<path d="M228,-49L138,8V822H0l-45,76l14,31H119L-33,1144c0,0,-70,92,-157,92c0,0,-69,0,-159,-58l-72,118c0,0,89,73,181,73c0,0,140,0,257,-170L205,929H402l46,-76L434,822H199l65,-58V-39L228,-49Z"
id="f6_d8"
transform="scale(0.001,-0.001)"/>

<path d="M527,-71L52,414l34,92H277c0,0,12,32,12,72V822H0l-45,76l14,31H654l46,-76L686,822H350l66,-55V564c0,0,0,-43,-25,-89H782L798,370H315L264,316L610,34L611,8L527,-71Z"
id="f6_m1"
transform="scale(0.001,-0.001)"/>

<path d="M108,-433L-59,-214c0,0,-99,119,-191,119c0,0,-59,0,-96,-35c0,0,-36,-34,-36,-81c0,0,0,-49,42,-83l152,95l64,-116c0,0,-71,-58,-148,-58c0,0,-80,0,-146,63c0,0,-65,64,-65,144c0,0,0,77,62,131c0,0,61,53,142,53c0,0,138,0,296,-205L165,-393l-57,-40Z"
id="f6_cx"
transform="scale(0.001,-0.001)"/>

<path d="M-233,1021c0,0,-84,0,-168,55c0,0,-84,56,-146,162l51,50c0,0,95,-162,219,-162c0,0,125,0,160,157L-7,1234c0,0,-21,-103,-81,-158c0,0,-61,-55,-145,-55Zm-41,201c0,0,-66,25,-102,80c0,0,32,68,82,101c0,0,55,-20,99,-80c0,0,-26,-67,-79,-101Z"
id="f6_di"
transform="scale(0.001,-0.001)"/>

<path d="M480,-156c0,0,-66,24,-103,79c0,0,32,69,83,100c0,0,55,-20,99,-79c0,0,-26,-67,-79,-100ZM845,-49L755,8V513H497c0,0,61,-45,93,-110c0,0,33,-64,33,-128c0,0,0,-90,-58,-144c0,0,-59,-53,-143,-53c0,0,-133,0,-234,139C188,217,87,356,20,596l76,24c0,0,60,-201,127,-306c0,0,67,-105,160,-105c0,0,57,0,91,36c0,0,33,36,33,91c0,0,0,84,-73,159L295,558v71H755V822H0l-45,76l14,31H1019l46,-76l-14,-31H816l66,-58V-39L845,-49Z"
id="f6_cg"
transform="scale(0.001,-0.001)"/>

<path d="M0,1062c0,0,-26,11,-60,36c0,0,-34,26,-51,49c0,0,39,81,91,110c0,0,60,-23,106,-85c0,0,-28,-70,-86,-110Z"
id="f6_dj"
transform="scale(0.001,-0.001)"/>

<path d="M761,293c0,0,127,0,169,94V532c0,0,-68,46,-145,46c0,0,-76,0,-121,-46c0,0,-45,-45,-45,-107c0,0,0,-61,44,-110c0,0,47,-22,98,-22ZM657,67c0,0,166,0,273,107v55c0,0,-45,-36,-111,-36c0,0,-110,0,-207,90c0,0,-97,90,-97,194c0,0,0,85,66,148c0,0,65,63,155,63l48,-5L930,603V822H376l62,-55V579c0,0,0,-60,-23,-102c0,0,-24,-42,-148,-190c0,0,66,-104,175,-162c0,0,108,-58,215,-58ZM1021,-49L930,8V53c0,0,-105,-83,-264,-83c0,0,-177,0,-339,128C327,98,165,226,90,429l34,77H296c0,0,19,39,19,102l-2,214H0l-45,76l14,31H1195l46,-76l-14,-31H992l65,-58V-39l-36,-10Z"
id="f6_ba"
transform="scale(0.001,-0.001)"/>

<path d="M799,475V822H350l66,-55V564c0,0,0,-43,-25,-89ZM527,-71L52,414l34,92H277c0,0,12,32,12,72V822H0l-45,76l14,31H1063l46,-76l-14,-31H860l66,-58V-39L889,-49L799,8V370H315L264,316L610,34L611,8L527,-71Z"
id="f6_cb"
transform="scale(0.001,-0.001)"/>

<path d="M-234,-413c0,0,-210,0,-488,322l54,49c0,0,119,-128,209,-193c0,0,90,-65,177,-65c0,0,72,0,113,40c0,0,42,39,42,91c0,0,0,75,-78,106L-323,-181l-90,98c0,0,63,95,167,95c0,0,90,0,155,-69c0,0,66,-70,66,-164c0,0,0,-85,-60,-139c0,0,-61,-53,-149,-53Z"
id="f6_cw"
transform="scale(0.001,-0.001)"/>

<path d="M388,325c0,0,58,0,112,31c0,0,53,31,84,86V822H165l69,-58V408c0,0,47,-83,154,-83ZM674,-49L584,8V257c0,0,-61,-51,-141,-51c0,0,-125,0,-232,109c0,0,-107,108,-107,243V822H0l-45,76l14,31H848l46,-76L880,822H645l65,-58V-39L674,-49Z"
id="f6_bv"
transform="scale(0.001,-0.001)"/>

<path d="M823,-49L733,8V339H445V191L371,160c0,0,-56,36,-120,105c0,0,-63,70,-89,131l41,59H313V735c0,0,0,99,-55,140c0,0,-3,1,-8,1c-16,0,-48,-3,-71,-23c0,0,-31,-26,-31,-66c0,0,0,-69,81,-113L189,620C189,620,31,720,31,828c0,0,0,61,45,99c0,0,46,37,109,37c0,0,96,0,173,-86c0,0,76,-87,79,-194V455H733V822H556l-46,76l14,31H998l45,-76l-13,-31H794l66,-58V-39L823,-49Z"
id="f6_by"
transform="scale(0.001,-0.001)"/>

<path d="M959,-49L869,8V367c0,0,-32,-13,-64,-13c0,0,-50,0,-110,25c0,0,23,-52,23,-109c0,0,0,-103,-70,-170c0,0,-70,-66,-182,-66c0,0,-110,0,-222,82c0,0,-111,83,-213,293l68,42c0,0,72,-155,152,-231c0,0,81,-76,178,-76c0,0,83,0,131,49c0,0,48,48,48,117c0,0,0,54,-30,100c0,0,-31,47,-91,65L325,391L257,512c0,0,68,53,156,56c0,0,140,72,140,179c0,0,0,69,-52,99c0,0,-4,1,-11,1c-19,0,-66,-4,-123,-30c0,0,-78,-35,-142,-96L150,823c0,0,119,117,253,117c0,0,98,0,175,-71c0,0,77,-70,77,-159c0,0,0,-103,-94,-180c0,0,39,-23,73,-56c0,0,52,-22,109,-22c0,0,77,0,126,38V822H727l-46,76l14,31h509l-136,104c0,0,-90,65,-157,65c0,0,-68,0,-152,-53l-71,118c0,0,77,65,163,65c0,0,116,0,246,-120L1286,930l-107,271c0,0,-71,166,-187,166c0,0,-52,0,-129,-33l-59,125c0,0,78,46,159,46c0,0,194,0,284,-271L1349,929h186l46,-76l-13,-31H1332l66,-58V-39l-37,-10L1271,8V822H930l66,-58V-39L959,-49Z"
id="f6_b8"
transform="scale(0.001,-0.001)"/>

<path d="M-214,860l-227,219c0,0,-73,70,-148,70c0,0,-67,0,-160,-58l-72,117c0,0,83,71,176,71c0,0,120,0,232,-124L-221,940l-102,294c0,0,-64,179,-189,179c0,0,-60,0,-133,-33l-60,125c0,0,84,47,164,47c0,0,200,0,281,-276L-150,901l-23,-15l-41,-26Z"
id="f6_d5"
transform="scale(0.001,-0.001)"/>

<path d="M471,-26c0,0,-259,0,-448,396l70,43C93,413,240,98,442,98c0,0,79,0,132,46c0,0,54,45,54,120c0,0,0,61,-38,116c0,0,-38,54,-107,72L322,370L255,492c0,0,66,53,156,56c0,0,128,51,128,153c0,0,0,77,-65,121H0l-45,76l14,31H1123l46,-76l-14,-31H578c0,0,76,-66,76,-157c0,0,0,-95,-87,-156c0,0,52,-29,84,-64c0,0,131,134,243,134c0,0,93,0,158,-70c0,0,65,-71,65,-167c0,0,0,-142,-177,-272L851,170c0,0,173,129,173,230c0,0,0,34,-23,57c0,0,-23,23,-63,23c0,0,-104,0,-215,-141c0,0,23,-55,23,-111c0,0,0,-109,-78,-182c0,0,-78,-72,-197,-72Z"
id="f6_aq"
transform="scale(0.001,-0.001)"/>

<path d="M348,229c0,0,57,0,106,17L263,559c0,0,-95,-50,-95,-162c0,0,0,-75,52,-136c0,0,49,-32,128,-32Zm170,48c0,0,61,38,96,91V504c0,0,-131,80,-244,80l-35,-2L518,277ZM704,-49L614,8V193c0,0,-84,-65,-192,-65c0,0,-139,0,-255,98c0,0,-115,98,-115,226c0,0,0,106,77,175c0,0,77,70,189,70c0,0,38,0,75,-9L614,578V822H0l-45,76l14,31H878l46,-76L911,822H675l66,-58V-39L704,-49Z"
id="f6_bx"
transform="scale(0.001,-0.001)"/>

<path d="M900,298c0,0,32,73,32,159c0,0,0,110,-38,160c0,0,-40,31,-81,31c0,0,-48,0,-80,-35c0,0,-33,-35,-33,-89c0,0,0,-118,200,-226ZM588,-60c0,0,-154,0,-274,93c0,0,-120,94,-120,207c0,0,0,50,28,92C222,332,61,440,61,552c0,0,0,71,56,122c0,0,56,50,169,50H417l64,-98L463,600H333c0,0,-157,-1,-157,-99c0,0,0,-59,88,-124c0,0,68,52,164,52c0,0,38,0,79,-9l71,-88L558,299c0,0,-46,10,-81,10c0,0,-75,0,-116,-36c0,0,-40,-36,-40,-88c0,0,0,-78,73,-130c0,0,54,-17,109,-17c0,0,114,0,211,54c0,0,97,53,154,145c0,0,-156,96,-223,173c0,0,-67,77,-67,155c0,0,0,72,48,124c0,0,48,52,126,55v78H0l-45,76l14,31H1123l46,-76l-14,-31H805l66,-58V717c0,0,76,-40,124,-124c0,0,47,-84,47,-193c0,0,0,-188,-133,-324C909,76,776,-60,588,-60Z"
id="f6_bf"
transform="scale(0.001,-0.001)"/>

<path d="M634,-49L249,296c0,0,-1,0,-3,0c-11,0,-48,1,-90,15c0,0,-51,16,-67,36l49,165l50,12l84,-98c0,0,125,31,191,104c0,0,66,73,66,165c0,0,0,109,-95,170c0,0,-2,0,-6,0C397,865,262,858,121,738L46,848c0,0,52,47,127,82c0,0,75,34,152,34c0,0,130,0,226,-94c0,0,95,-94,95,-218c0,0,0,-107,-77,-199c0,0,-77,-92,-216,-134L697,26L698,0L634,-49Z"
id="f6_n8"
transform="scale(0.001,-0.001)"/>

<path d="M725,307c0,0,-95,0,-218,78c0,0,-123,78,-188,78c0,0,-54,0,-95,-34c0,0,-41,-34,-73,-100L93,362c0,0,38,88,101,146c0,0,63,59,148,59c0,0,90,0,214,-78c0,0,124,-79,188,-79c0,0,63,0,106,34c0,0,42,33,85,104l60,-40c0,0,-32,-66,-101,-134c0,0,-70,-67,-169,-67Z"
id="f7_4r"
transform="scale(0.001,-0.001)"/>

<path d="M420,489c0,0,93,0,153,65c0,0,60,65,60,181c0,0,0,116,-62,184c0,0,-61,68,-148,68c0,0,-90,0,-156,-74c0,0,-66,-73,-66,-189c0,0,0,-105,63,-170c0,0,63,-65,156,-65ZM391,-18c0,0,-128,0,-209,71c0,0,-82,71,-98,200l129,12c0,0,17,-91,63,-132c0,0,46,-41,118,-41c0,0,62,0,109,28c0,0,47,29,76,76c0,0,30,47,50,128c0,0,20,80,20,164c0,0,0,9,-1,27c0,0,-40,-65,-110,-105c0,0,-69,-39,-151,-39c0,0,-135,0,-229,98c0,0,-94,99,-94,260c0,0,0,166,98,268c0,0,98,101,245,101c0,0,107,0,195,-57c0,0,89,-58,134,-164c0,0,46,-106,46,-308c0,0,0,-209,-45,-334C737,235,691,111,602,46c0,0,-90,-64,-211,-64Z"
id="f8_t"
transform="scale(0.001,-0.001)"/>

<path d="M225,0c0,0,2,129,51,312c0,0,48,183,139,352c0,0,91,170,193,286H72v129H780V975C780,975,676,864,573,680C573,680,470,495,414,301C414,301,374,163,363,0Z"
id="f8_r"
transform="scale(0.001,-0.001)"/>


</defs>
</svg>