<?xml version="1.0" encoding="UTF-8" standalone="no"?>
<!DOCTYPE svg PUBLIC "-//W3C//DTD SVG 1.1//EN"
"http://www.w3.org/Graphics/SVG/1.1/DTD/svg11.dtd">
<svg viewBox="0 0 641 910" version="1.1" xmlns="http://www.w3.org/2000/svg" xmlns:xlink="http://www.w3.org/1999/xlink">
<defs>
<clipPath id="c0_74"><path d="M0,909.8V0H641.7V909.8Z"/></clipPath>
<clipPath id="c1_74"><path d="M0,908.6V0H641.7V908.6Z"/></clipPath>
<style type="text/css"><![CDATA[
.g0_74{
fill: #FFFFFF;
}
.g1_74{
}
]]></style>
</defs>
<path d="M0,0H641.7V909.8H0V0Z" class="g0_74"/>
<path d="M0,0H641.7V909.8H0V0Z" class="g0_74"/>
<g clip-path="url(#c0_74)">
<path d="M0,-60955.9H641.7V45489.6H0V-60955.9Z" class="g0_74"/>
</g>
<path d="M0,0H641.7V908.6H0V0Z" class="g0_74"/>
<path d="M19.5,60.7H602.7v1.2H19.5V60.7Z" class="g1_74"/>
<g clip-path="url(#c1_74)">
<path d="M0,61.9H641.7V909.8H0V61.9Z" class="g0_74"/>
<g fill="#000000" >
<use xlink:href="#f5_be" transform="matrix(14,0,0,14,254.7,82.5)" />
<use xlink:href="#f5_ct" transform="matrix(14,0,0,14,270,82.5)" />
<use xlink:href="#f5_c3" transform="matrix(14,0,0,14,276.5,82.5)" />
<use xlink:href="#f5_d8" transform="matrix(14,0,0,14,292.8,82.5)" />
<use xlink:href="#f5_c1" transform="matrix(14,0,0,14,304.9,82.5)" />
<use xlink:href="#f5_d4" transform="matrix(14,0,0,14,314.8,82.5)" />
<use xlink:href="#f5_be" transform="matrix(14,0,0,14,320.8,82.5)" />
<use xlink:href="#f5_ct" transform="matrix(14,0,0,14,336.1,82.5)" />
<use xlink:href="#f5_c3" transform="matrix(14,0,0,14,342.6,82.5)" />
<use xlink:href="#f5_d8" transform="matrix(14,0,0,14,358.9,82.5)" />
<use xlink:href="#f6_be" transform="matrix(14,0,0,14,133.2,116.9)" />
<use xlink:href="#f6_ct" transform="matrix(14,0,0,14,147.2,116.9)" />
<use xlink:href="#f6_c3" transform="matrix(14,0,0,14,152.8,116.9)" />
<use xlink:href="#f6_d8" transform="matrix(14,0,0,14,167.5,116.9)" />
<use xlink:href="#f6_bg" transform="matrix(14,0,0,14,178.8,116.9)" />
<use xlink:href="#f6_cv" transform="matrix(14,0,0,14,193.1,116.9)" />
<use xlink:href="#f6_be" transform="matrix(14,0,0,14,204.4,116.9)" />
<use xlink:href="#f6_ct" transform="matrix(14,0,0,14,218.3,116.9)" />
<use xlink:href="#f6_c3" transform="matrix(14,0,0,14,224,116.9)" />
<use xlink:href="#f6_d8" transform="matrix(14,0,0,14,238.7,116.9)" />
<use xlink:href="#f6_b1" transform="matrix(14,0,0,14,250,116.9)" />
<use xlink:href="#f6_pc" transform="matrix(14,0,0,14,271.4,116.9)" />
<use xlink:href="#f6_pc" transform="matrix(14,0,0,14,275.7,116.9)" />
<use xlink:href="#f6_k" transform="matrix(14,0,0,14,285.7,116.9)" />
<use xlink:href="#f6_be" transform="matrix(14,0,0,14,296.5,116.9)" />
<use xlink:href="#f6_ct" transform="matrix(14,0,0,14,310.5,116.9)" />
<use xlink:href="#f6_c3" transform="matrix(14,0,0,14,316.1,116.9)" />
<use xlink:href="#f6_d8" transform="matrix(14,0,0,14,330.9,116.9)" />
<use xlink:href="#f6_bg" transform="matrix(14,0,0,14,342.1,116.9)" />
<use xlink:href="#f6_cv" transform="matrix(14,0,0,14,356.4,116.9)" />
<use xlink:href="#f6_bt" transform="matrix(14,0,0,14,367.7,116.9)" />
<use xlink:href="#f6_ct" transform="matrix(14,0,0,14,379.4,116.9)" />
<use xlink:href="#f6_b9" transform="matrix(14,0,0,14,385,116.9)" />
<use xlink:href="#f6_d8" transform="matrix(14,0,0,14,400.5,116.9)" />
<use xlink:href="#f6_ch" transform="matrix(14,0,0,14,406.1,116.9)" />
<use xlink:href="#f6_ct" transform="matrix(14,0,0,14,418.8,116.9)" />
<use xlink:href="#f6_bg" transform="matrix(14,0,0,14,424.4,116.9)" />
<use xlink:href="#f6_cv" transform="matrix(14,0,0,14,438.7,116.9)" />
<use xlink:href="#f6_bg" transform="matrix(14,0,0,14,450,116.9)" />
<use xlink:href="#f6_ct" transform="matrix(14,0,0,14,464.2,116.9)" />
<use xlink:href="#f6_c7" transform="matrix(14,0,0,14,469.9,116.9)" />
<use xlink:href="#f6_ct" transform="matrix(14,0,0,14,481.9,116.9)" />
<use xlink:href="#f6_dj" transform="matrix(14,0,0,14,482.2,117.3)" />
<use xlink:href="#f6_be" transform="matrix(14,0,0,14,218,151.3)" />
<use xlink:href="#f6_ct" transform="matrix(14,0,0,14,232,151.3)" />
<use xlink:href="#f6_c3" transform="matrix(14,0,0,14,237.6,151.3)" />
<use xlink:href="#f6_d8" transform="matrix(14,0,0,14,252.3,151.3)" />
<use xlink:href="#f6_be" transform="matrix(14,0,0,14,263.6,151.3)" />
<use xlink:href="#f6_ct" transform="matrix(14,0,0,14,277.6,151.3)" />
<use xlink:href="#f6_c3" transform="matrix(14,0,0,14,283.2,151.3)" />
<use xlink:href="#f6_d8" transform="matrix(14,0,0,14,297.9,151.3)" />
<use xlink:href="#f6_by" transform="matrix(14,0,0,14,309.2,151.3)" />
<use xlink:href="#f6_d4" transform="matrix(14,0,0,14,323.3,151.3)" />
<use xlink:href="#f6_n1" transform="matrix(14,0,0,14,323.2,151.3)" />
<use xlink:href="#f6_c1" transform="matrix(14,0,0,14,342,151.3)" />
<use xlink:href="#f6_d4" transform="matrix(14,0,0,14,350,151.3)" />
<use xlink:href="#f6_br" transform="matrix(14,0,0,14,356,151.3)" />
<use xlink:href="#f6_c1" transform="matrix(14,0,0,14,367.7,151.3)" />
<use xlink:href="#f6_bx" transform="matrix(14,0,0,14,376.1,151.3)" />
<use xlink:href="#f6_ct" transform="matrix(14,0,0,14,388.4,151.3)" />
<use xlink:href="#f6_c1" transform="matrix(14,0,0,14,394,151.3)" />
<use xlink:href="#f6_bz" transform="matrix(14,0,0,14,129.8,220)" />
<use xlink:href="#f6_d4" transform="matrix(14,0,0,14,143.3,220)" />
<use xlink:href="#f6_c7" transform="matrix(14,0,0,14,143.1,220)" />
<use xlink:href="#f6_ct" transform="matrix(14,0,0,14,155.2,220)" />
<use xlink:href="#f6_bt" transform="matrix(14,0,0,14,160.8,220)" />
<use xlink:href="#f6_bb" transform="matrix(14,0,0,14,172.5,220)" />
<use xlink:href="#f6_c1" transform="matrix(14,0,0,14,185.1,220)" />
<use xlink:href="#f6_bz" transform="matrix(14,0,0,14,199.2,220)" />
<use xlink:href="#f6_d4" transform="matrix(14,0,0,14,212.7,220)" />
<use xlink:href="#f6_c1" transform="matrix(14,0,0,14,218.2,220)" />
<use xlink:href="#f6_ct" transform="matrix(14,0,0,14,226.6,220)" />
<use xlink:href="#f6_bg" transform="matrix(14,0,0,14,232.2,220)" />
<use xlink:href="#f6_b9" transform="matrix(14,0,0,14,252.1,220)" />
<use xlink:href="#f6_c1" transform="matrix(14,0,0,14,267.6,220)" />
<use xlink:href="#f6_d4" transform="matrix(14,0,0,14,275.6,220)" />
<use xlink:href="#f6_cc" transform="matrix(14,0,0,14,281.7,220)" />
<use xlink:href="#f6_d5" transform="matrix(14,0,0,14,293.6,220)" />
<use xlink:href="#f6_k" transform="matrix(14,0,0,14,293.3,220)" />
<use xlink:href="#f6_bv" transform="matrix(14,0,0,14,298.5,220)" />
<use xlink:href="#f6_cw" transform="matrix(14,0,0,14,310.9,219.9)" />
<use xlink:href="#f6_c1" transform="matrix(14,0,0,14,310.4,220)" />
<use xlink:href="#f6_ct" transform="matrix(14,0,0,14,318.7,220)" />
<use xlink:href="#f6_bo" transform="matrix(14,0,0,14,324.4,220)" />
<use xlink:href="#f6_cb" transform="matrix(14,0,0,14,344.4,220)" />
<use xlink:href="#f6_bx" transform="matrix(14,0,0,14,359.3,220)" />
<use xlink:href="#f6_c1" transform="matrix(14,0,0,14,371.6,220)" />
<use xlink:href="#f6_ct" transform="matrix(14,0,0,14,379.9,220)" />
<use xlink:href="#f6_b9" transform="matrix(14,0,0,14,391.2,220)" />
<use xlink:href="#f6_ct" transform="matrix(14,0,0,14,406.7,220)" />
<use xlink:href="#f6_bg" transform="matrix(14,0,0,14,412.3,220)" />
<use xlink:href="#f6_b9" transform="matrix(14,0,0,14,432.3,220)" />
<use xlink:href="#f6_c1" transform="matrix(14,0,0,14,447.8,220)" />
<use xlink:href="#f6_d4" transform="matrix(14,0,0,14,455.7,220)" />
<use xlink:href="#f6_cc" transform="matrix(14,0,0,14,461.8,220)" />
<use xlink:href="#f6_d5" transform="matrix(14,0,0,14,473.8,220)" />
<use xlink:href="#f6_pd" transform="matrix(14,0,0,14,473.4,220)" />
<use xlink:href="#f6_n8" transform="matrix(14,0,0,14,481,220)" />
<use xlink:href="#f6_bv" transform="matrix(14,0,0,14,128.6,254.4)" />
<use xlink:href="#f6_c3" transform="matrix(14,0,0,14,140.5,254.4)" />
<use xlink:href="#f6_bv" transform="matrix(14,0,0,14,160.9,254.4)" />
<use xlink:href="#f6_c3" transform="matrix(14,0,0,14,172.7,254.4)" />
<use xlink:href="#f6_cu" transform="matrix(14,0,0,14,193.1,254.4)" />
<use xlink:href="#f6_br" transform="matrix(14,0,0,14,198.7,254.4)" />
<use xlink:href="#f6_ba" transform="matrix(14,0,0,14,210.4,254.4)" />
<use xlink:href="#f6_ct" transform="matrix(14,0,0,14,227.1,254.4)" />
<use xlink:href="#f6_c7" transform="matrix(14,0,0,14,232.7,254.4)" />
<use xlink:href="#f6_d4" transform="matrix(14,0,0,14,245,254.4)" />
<use xlink:href="#f6_be" transform="matrix(14,0,0,14,250.5,254.4)" />
<use xlink:href="#f6_bz" transform="matrix(14,0,0,14,264.5,254.4)" />
<use xlink:href="#f6_ld" transform="matrix(14,0,0,14,277.8,254.4)" />
<use xlink:href="#f6_b9" transform="matrix(14,0,0,14,284.9,254.4)" />
<use xlink:href="#f6_ct" transform="matrix(14,0,0,14,300.4,254.4)" />
<use xlink:href="#f6_c1" transform="matrix(14,0,0,14,306,254.4)" />
<use xlink:href="#f6_k" transform="matrix(14,0,0,14,314.4,254.4)" />
<use xlink:href="#f6_al" transform="matrix(14,0,0,14,319.6,254.4)" />
<use xlink:href="#f6_c1" transform="matrix(14,0,0,14,335.5,254.4)" />
<use xlink:href="#f6_d4" transform="matrix(14,0,0,14,343.4,254.4)" />
<use xlink:href="#f6_pc" transform="matrix(14,0,0,14,343.8,254.4)" />
<use xlink:href="#f6_pc" transform="matrix(14,0,0,14,348.1,254.4)" />
<use xlink:href="#f6_be" transform="matrix(14,0,0,14,358.1,254.4)" />
<use xlink:href="#f6_ct" transform="matrix(14,0,0,14,372,254.4)" />
<use xlink:href="#f6_c3" transform="matrix(14,0,0,14,377.7,254.4)" />
<use xlink:href="#f6_d8" transform="matrix(14,0,0,14,392.4,254.4)" />
<use xlink:href="#f6_c1" transform="matrix(14,0,0,14,403.7,254.4)" />
<use xlink:href="#f6_d4" transform="matrix(14,0,0,14,411.6,254.4)" />
<use xlink:href="#f6_be" transform="matrix(14,0,0,14,417.7,254.4)" />
<use xlink:href="#f6_ct" transform="matrix(14,0,0,14,431.7,254.4)" />
<use xlink:href="#f6_c3" transform="matrix(14,0,0,14,437.3,254.4)" />
<use xlink:href="#f6_d8" transform="matrix(14,0,0,14,452,254.4)" />
<use xlink:href="#f6_k" transform="matrix(14,0,0,14,457.6,254.4)" />
<use xlink:href="#f6_pc" transform="matrix(14,0,0,14,462.8,254.4)" />
<use xlink:href="#f6_pc" transform="matrix(14,0,0,14,467.1,254.4)" />
<use xlink:href="#f6_pc" transform="matrix(14,0,0,14,471.4,254.4)" />
<use xlink:href="#f6_pc" transform="matrix(14,0,0,14,475.7,254.4)" />
<use xlink:href="#f6_pc" transform="matrix(14,0,0,14,479.9,254.4)" />
<use xlink:href="#f6_pc" transform="matrix(14,0,0,14,484.2,254.4)" />
<use xlink:href="#f6_pc" transform="matrix(14,0,0,14,488.5,254.4)" />
<use xlink:href="#f6_b9" transform="matrix(14,0,0,14,112.6,323.1)" />
<use xlink:href="#f6_oc" transform="matrix(14,0,0,14,128.1,323.1)" />
<use xlink:href="#f6_cu" transform="matrix(14,0,0,14,133.7,323.1)" />
<use xlink:href="#f6_on" transform="matrix(14,0,0,14,147.7,323.1)" />
<use xlink:href="#f6_bp" transform="matrix(14,0,0,14,139.3,323.1)" />
<use xlink:href="#f6_c1" transform="matrix(14,0,0,14,151.7,323.1)" />
<use xlink:href="#f6_j7" transform="matrix(14,0,0,14,160,323.1)" />
<use xlink:href="#f6_bq" transform="matrix(14,0,0,14,178.8,323.1)" />
<use xlink:href="#f6_d8" transform="matrix(14,0,0,14,191.9,323.1)" />
<use xlink:href="#f6_c1" transform="matrix(14,0,0,14,197.6,323.1)" />
<use xlink:href="#f6_cv" transform="matrix(14,0,0,14,205.9,323.1)" />
<use xlink:href="#f6_c1" transform="matrix(14,0,0,14,217.2,323.1)" />
<use xlink:href="#f6_be" transform="matrix(14,0,0,14,225.6,323.1)" />
<use xlink:href="#f6_bt" transform="matrix(14,0,0,14,239.6,323.1)" />
<use xlink:href="#f6_ct" transform="matrix(14,0,0,14,251.3,323.1)" />
<use xlink:href="#f6_cu" transform="matrix(14,0,0,14,262.6,323.1)" />
<use xlink:href="#f6_b9" transform="matrix(14,0,0,14,268.2,323.1)" />
<use xlink:href="#f6_li" transform="matrix(14,0,0,14,283.7,323.1)" />
<use xlink:href="#f6_cc" transform="matrix(14,0,0,14,289.1,323.1)" />
<use xlink:href="#f6_cv" transform="matrix(14,0,0,14,300.7,323.1)" />
<use xlink:href="#f6_k" transform="matrix(14,0,0,14,306.3,323.1)" />
<use xlink:href="#f6_bc" transform="matrix(14,0,0,14,311.5,323.1)" />
<use xlink:href="#f6_c1" transform="matrix(14,0,0,14,325.4,323.1)" />
<use xlink:href="#f6_pd" transform="matrix(14,0,0,14,339.4,323.1)" />
<use xlink:href="#f6_bc" transform="matrix(14,0,0,14,352.7,323.1)" />
<use xlink:href="#f6_c1" transform="matrix(14,0,0,14,366.6,323.1)" />
<use xlink:href="#f6_bq" transform="matrix(14,0,0,14,380.6,323.1)" />
<use xlink:href="#f6_d4" transform="matrix(14,0,0,14,393.9,323.1)" />
<use xlink:href="#f6_ap" transform="matrix(14,0,0,14,399.5,323.1)" />
<use xlink:href="#f6_ge" transform="matrix(14,0,0,14,410.8,323.1)" />
<use xlink:href="#f6_ct" transform="matrix(14,0,0,14,426,323.1)" />
<use xlink:href="#f6_c1" transform="matrix(14,0,0,14,431.6,323.1)" />
<use xlink:href="#f6_cu" transform="matrix(14,0,0,14,445.6,323.1)" />
<use xlink:href="#f6_b9" transform="matrix(14,0,0,14,451.2,323.1)" />
<use xlink:href="#f6_c0" transform="matrix(14,0,0,14,466.7,323.1)" />
<use xlink:href="#f6_d8" transform="matrix(14,0,0,14,479.3,323.1)" />
<use xlink:href="#f6_pd" transform="matrix(14,0,0,14,490.6,323.1)" />
<use xlink:href="#f6_n8" transform="matrix(14,0,0,14,498.1,323.1)" />
<use xlink:href="#f6_bv" transform="matrix(14,0,0,14,132.1,357.5)" />
<use xlink:href="#f6_ct" transform="matrix(14,0,0,14,143.9,357.5)" />
<use xlink:href="#f6_nn" transform="matrix(14,0,0,14,149.6,357.5)" />
<use xlink:href="#f6_ke" transform="matrix(14,0,0,14,149.6,357.5)" />
<use xlink:href="#f6_dr" transform="matrix(14,0,0,14,163.8,357.5)" />
<use xlink:href="#f6_bt" transform="matrix(14,0,0,14,163.8,357.5)" />
<use xlink:href="#f6_ct" transform="matrix(14,0,0,14,175.5,357.5)" />
<use xlink:href="#f6_no" transform="matrix(14,0,0,14,181.1,357.5)" />
<use xlink:href="#f6_bq" transform="matrix(14,0,0,14,181.1,357.5)" />
<use xlink:href="#f6_b9" transform="matrix(14,0,0,14,199.9,357.5)" />
<use xlink:href="#f6_d4" transform="matrix(14,0,0,14,211.1,357.5)" />
<use xlink:href="#f6_be" transform="matrix(14,0,0,14,221.1,357.5)" />
<use xlink:href="#f6_c1" transform="matrix(14,0,0,14,235.1,357.5)" />
<use xlink:href="#f6_bo" transform="matrix(14,0,0,14,243.5,357.5)" />
<use xlink:href="#f6_d8" transform="matrix(14,0,0,14,257.8,357.5)" />
<use xlink:href="#f6_dj" transform="matrix(14,0,0,14,262.1,358.4)" />
<use xlink:href="#f6_bz" transform="matrix(14,0,0,14,269.1,357.5)" />
<use xlink:href="#f6_oz" transform="matrix(14,0,0,14,282.6,357.5)" />
<use xlink:href="#f6_bq" transform="matrix(14,0,0,14,288.1,357.5)" />
<use xlink:href="#f6_d4" transform="matrix(14,0,0,14,301.4,357.5)" />
<use xlink:href="#f6_cu" transform="matrix(14,0,0,14,307,357.5)" />
<use xlink:href="#f6_bt" transform="matrix(14,0,0,14,312.6,357.5)" />
<use xlink:href="#f6_c8" transform="matrix(14,0,0,14,324.3,357.5)" />
<use xlink:href="#f6_cu" transform="matrix(14,0,0,14,340.2,357.5)" />
<use xlink:href="#f6_br" transform="matrix(14,0,0,14,345.8,357.5)" />
<use xlink:href="#f6_bt" transform="matrix(14,0,0,14,357.5,357.5)" />
<use xlink:href="#f6_by" transform="matrix(14,0,0,14,374.9,357.5)" />
<use xlink:href="#f6_o0" transform="matrix(14,0,0,14,388.8,357.5)" />
<use xlink:href="#f6_l1" transform="matrix(14,0,0,14,394.4,357.5)" />
<use xlink:href="#f6_bp" transform="matrix(14,0,0,14,406.3,357.5)" />
<use xlink:href="#f6_b9" transform="matrix(14,0,0,14,424.3,357.5)" />
<use xlink:href="#f6_c1" transform="matrix(14,0,0,14,439.8,357.5)" />
<use xlink:href="#f6_bp" transform="matrix(14,0,0,14,448.2,357.5)" />
<use xlink:href="#f6_ct" transform="matrix(14,0,0,14,460.5,357.5)" />
<use xlink:href="#f6_cc" transform="matrix(14,0,0,14,471.8,357.5)" />
<use xlink:href="#f6_d8" transform="matrix(14,0,0,14,483.4,357.5)" />
<use xlink:href="#f6_bx" transform="matrix(14,0,0,14,105.7,391.9)" />
<use xlink:href="#f6_ct" transform="matrix(14,0,0,14,118,391.9)" />
<use xlink:href="#f6_bx" transform="matrix(14,0,0,14,123.6,391.9)" />
<use xlink:href="#f6_cv" transform="matrix(14,0,0,14,135.9,391.9)" />
<use xlink:href="#f6_c8" transform="matrix(14,0,0,14,147.2,391.9)" />
<use xlink:href="#f6_ct" transform="matrix(14,0,0,14,163.1,391.9)" />
<use xlink:href="#f6_cc" transform="matrix(14,0,0,14,168.7,391.9)" />
<use xlink:href="#f6_bt" transform="matrix(14,0,0,14,186,391.9)" />
<use xlink:href="#f6_ao" transform="matrix(14,0,0,14,197.7,391.9)" />
<use xlink:href="#f6_bw" transform="matrix(14,0,0,14,214.9,391.9)" />
<use xlink:href="#f6_d9" transform="matrix(14,0,0,14,230.9,391.9)" />
<use xlink:href="#f6_bg" transform="matrix(14,0,0,14,236.6,391.9)" />
<use xlink:href="#f6_by" transform="matrix(14,0,0,14,256.5,391.9)" />
<use xlink:href="#f6_bb" transform="matrix(14,0,0,14,270.5,391.9)" />
<use xlink:href="#f6_ct" transform="matrix(14,0,0,14,283.1,391.9)" />
<use xlink:href="#f6_ao" transform="matrix(14,0,0,14,288.7,391.9)" />
<use xlink:href="#f6_pd" transform="matrix(14,0,0,14,300.2,391.9)" />
<use xlink:href="#f6_n8" transform="matrix(14,0,0,14,307.7,391.9)" />
<use xlink:href="#f6_k" transform="matrix(14,0,0,14,318.1,391.9)" />
<use xlink:href="#f6_bt" transform="matrix(14,0,0,14,323.4,391.9)" />
<use xlink:href="#f6_ct" transform="matrix(14,0,0,14,335.1,391.9)" />
<use xlink:href="#f6_b9" transform="matrix(14,0,0,14,340.7,391.9)" />
<use xlink:href="#f6_d8" transform="matrix(14,0,0,14,356.2,391.9)" />
<use xlink:href="#f6_ch" transform="matrix(14,0,0,14,361.8,391.9)" />
<use xlink:href="#f6_ct" transform="matrix(14,0,0,14,374.5,391.9)" />
<use xlink:href="#f6_bp" transform="matrix(14,0,0,14,385.8,391.9)" />
<use xlink:href="#f6_cv" transform="matrix(14,0,0,14,398.1,391.9)" />
<use xlink:href="#f6_c1" transform="matrix(14,0,0,14,403.7,391.9)" />
<use xlink:href="#f6_no" transform="matrix(14,0,0,14,412.1,391.9)" />
<use xlink:href="#f6_bq" transform="matrix(14,0,0,14,412.1,391.9)" />
<use xlink:href="#f6_bt" transform="matrix(14,0,0,14,431,391.9)" />
<use xlink:href="#f6_d4" transform="matrix(14,0,0,14,442.8,391.9)" />
<use xlink:href="#f6_bx" transform="matrix(14,0,0,14,448.3,391.9)" />
<use xlink:href="#f6_be" transform="matrix(14,0,0,14,460.6,391.9)" />
<use xlink:href="#f6_ct" transform="matrix(14,0,0,14,474.6,391.9)" />
<use xlink:href="#f6_c0" transform="matrix(14,0,0,14,480.2,391.9)" />
<use xlink:href="#f6_d8" transform="matrix(14,0,0,14,492.8,391.9)" />
<use xlink:href="#f6_pd" transform="matrix(14,0,0,14,498.4,391.9)" />
<use xlink:href="#f6_n8" transform="matrix(14,0,0,14,505.9,391.9)" />
<use xlink:href="#f6_bq" transform="matrix(14,0,0,14,240.9,426.3)" />
<use xlink:href="#f6_ct" transform="matrix(14,0,0,14,254.1,426.3)" />
<use xlink:href="#f6_bt" transform="matrix(14,0,0,14,259.7,426.3)" />
<use xlink:href="#f6_d4" transform="matrix(14,0,0,14,271.6,426.3)" />
<use xlink:href="#f6_b9" transform="matrix(14,0,0,14,277.1,426.3)" />
<use xlink:href="#f6_n1" transform="matrix(14,0,0,14,292.6,426.3)" />
<use xlink:href="#f6_bz" transform="matrix(14,0,0,14,311.4,426.3)" />
<use xlink:href="#f6_oz" transform="matrix(14,0,0,14,324.9,426.3)" />
<use xlink:href="#f6_bz" transform="matrix(14,0,0,14,330.4,426.3)" />
<use xlink:href="#f6_bt" transform="matrix(14,0,0,14,343.8,426.3)" />
<use xlink:href="#f6_cw" transform="matrix(14,0,0,14,356,426.1)" />
<use xlink:href="#f6_cc" transform="matrix(14,0,0,14,355.5,426.3)" />
<use xlink:href="#f6_ct" transform="matrix(14,0,0,14,367.1,426.3)" />
<use xlink:href="#f6_c1" transform="matrix(14,0,0,14,372.7,426.3)" />
<use xlink:href="#f6_al" transform="matrix(14,0,0,14,226,460.6)" />
<use xlink:href="#f6_c1" transform="matrix(14,0,0,14,241.9,460.6)" />
<use xlink:href="#f6_d4" transform="matrix(14,0,0,14,249.9,460.6)" />
<use xlink:href="#f6_pc" transform="matrix(14,0,0,14,250.3,460.6)" />
<use xlink:href="#f6_pc" transform="matrix(14,0,0,14,254.6,460.6)" />
<use xlink:href="#f6_be" transform="matrix(14,0,0,14,264.5,460.6)" />
<use xlink:href="#f6_ct" transform="matrix(14,0,0,14,278.5,460.6)" />
<use xlink:href="#f6_c3" transform="matrix(14,0,0,14,284.1,460.6)" />
<use xlink:href="#f6_d8" transform="matrix(14,0,0,14,298.8,460.6)" />
<use xlink:href="#f6_c1" transform="matrix(14,0,0,14,310.1,460.6)" />
<use xlink:href="#f6_d4" transform="matrix(14,0,0,14,318.1,460.6)" />
<use xlink:href="#f6_be" transform="matrix(14,0,0,14,324.1,460.6)" />
<use xlink:href="#f6_ct" transform="matrix(14,0,0,14,338.1,460.6)" />
<use xlink:href="#f6_c3" transform="matrix(14,0,0,14,343.7,460.6)" />
<use xlink:href="#f6_d8" transform="matrix(14,0,0,14,358.4,460.6)" />
<use xlink:href="#f6_pc" transform="matrix(14,0,0,14,364.1,460.6)" />
<use xlink:href="#f6_pc" transform="matrix(14,0,0,14,368.3,460.6)" />
<use xlink:href="#f6_pc" transform="matrix(14,0,0,14,372.6,460.6)" />
<use xlink:href="#f6_pc" transform="matrix(14,0,0,14,376.9,460.6)" />
<use xlink:href="#f6_pc" transform="matrix(14,0,0,14,381.2,460.6)" />
<use xlink:href="#f6_pc" transform="matrix(14,0,0,14,385.4,460.6)" />
<use xlink:href="#f6_pc" transform="matrix(14,0,0,14,389.7,460.6)" />
<use xlink:href="#f6_bp" transform="matrix(14,0,0,14,118.3,554.6)" />
<use xlink:href="#f6_cv" transform="matrix(14,0,0,14,130.6,554.6)" />
<use xlink:href="#f6_bt" transform="matrix(14,0,0,14,136.3,554.6)" />
<use xlink:href="#f6_c3" transform="matrix(14,0,0,14,153.6,554.6)" />
<use xlink:href="#f6_d8" transform="matrix(14,0,0,14,168.3,554.6)" />
<use xlink:href="#f6_b9" transform="matrix(14,0,0,14,174,554.6)" />
<use xlink:href="#f6_bz" transform="matrix(14,0,0,14,195.1,554.6)" />
<use xlink:href="#f6_oz" transform="matrix(14,0,0,14,208.6,554.6)" />
<use xlink:href="#f6_bp" transform="matrix(14,0,0,14,214.1,554.6)" />
<use xlink:href="#f6_cv" transform="matrix(14,0,0,14,226.4,554.6)" />
<use xlink:href="#f6_c1" transform="matrix(14,0,0,14,232.1,554.6)" />
<use xlink:href="#f6_no" transform="matrix(14,0,0,14,240.5,554.6)" />
<use xlink:href="#f6_bq" transform="matrix(14,0,0,14,240.5,554.6)" />
<use xlink:href="#f6_c1" transform="matrix(14,0,0,14,259.3,554.6)" />
<use xlink:href="#f6_cv" transform="matrix(14,0,0,14,267.7,554.6)" />
<use xlink:href="#f6_bz" transform="matrix(14,0,0,14,279,554.6)" />
<use xlink:href="#f6_cu" transform="matrix(14,0,0,14,292.3,554.6)" />
<use xlink:href="#f6_cc" transform="matrix(14,0,0,14,297.9,554.6)" />
<use xlink:href="#f6_bz" transform="matrix(14,0,0,14,309.5,554.6)" />
<use xlink:href="#f6_ct" transform="matrix(14,0,0,14,322.9,554.6)" />
<use xlink:href="#f6_bg" transform="matrix(14,0,0,14,334.2,554.6)" />
<use xlink:href="#f6_bb" transform="matrix(14,0,0,14,348.4,554.6)" />
<use xlink:href="#f6_bz" transform="matrix(14,0,0,14,366.7,554.6)" />
<use xlink:href="#f6_oz" transform="matrix(14,0,0,14,380.2,554.6)" />
<use xlink:href="#f6_bq" transform="matrix(14,0,0,14,385.7,554.6)" />
<use xlink:href="#f6_d8" transform="matrix(14,0,0,14,398.9,554.6)" />
<use xlink:href="#f6_c1" transform="matrix(14,0,0,14,404.5,554.6)" />
<use xlink:href="#f6_cv" transform="matrix(14,0,0,14,412.9,554.6)" />
<use xlink:href="#f6_by" transform="matrix(14,0,0,14,424.2,554.6)" />
<use xlink:href="#f6_ct" transform="matrix(14,0,0,14,438.1,554.6)" />
<use xlink:href="#f6_c1" transform="matrix(14,0,0,14,443.8,554.6)" />
<use xlink:href="#f6_cv" transform="matrix(14,0,0,14,452.1,554.6)" />
<use xlink:href="#f6_b1" transform="matrix(14,0,0,14,463.4,554.6)" />
<use xlink:href="#f6_pd" transform="matrix(14,0,0,14,484.9,554.6)" />
<use xlink:href="#f6_n8" transform="matrix(14,0,0,14,492.5,554.6)" />
<use xlink:href="#f6_bn" transform="matrix(14,0,0,14,156.1,589)" />
<use xlink:href="#f6_d8" transform="matrix(14,0,0,14,168.1,589)" />
<use xlink:href="#f6_c3" transform="matrix(14,0,0,14,173.7,589)" />
<use xlink:href="#f6_bt" transform="matrix(14,0,0,14,194.1,589)" />
<use xlink:href="#f6_bb" transform="matrix(14,0,0,14,205.8,589)" />
<use xlink:href="#f6_ct" transform="matrix(14,0,0,14,218.4,589)" />
<use xlink:href="#f6_ch" transform="matrix(14,0,0,14,224,589)" />
<use xlink:href="#f6_ct" transform="matrix(14,0,0,14,236.7,589)" />
<use xlink:href="#f6_bx" transform="matrix(14,0,0,14,248,589)" />
<use xlink:href="#f6_ct" transform="matrix(14,0,0,14,260.3,589)" />
<use xlink:href="#f6_bg" transform="matrix(14,0,0,14,265.9,589)" />
<use xlink:href="#f6_d4" transform="matrix(14,0,0,14,280.3,589)" />
<use xlink:href="#f6_bq" transform="matrix(14,0,0,14,285.8,589)" />
<use xlink:href="#f6_d8" transform="matrix(14,0,0,14,299,589)" />
<use xlink:href="#f6_c1" transform="matrix(14,0,0,14,304.6,589)" />
<use xlink:href="#f6_d4" transform="matrix(14,0,0,14,312.6,589)" />
<use xlink:href="#f6_bg" transform="matrix(14,0,0,14,318.7,589)" />
<use xlink:href="#f6_ct" transform="matrix(14,0,0,14,332.9,589)" />
<use xlink:href="#f6_c3" transform="matrix(14,0,0,14,338.5,589)" />
<use xlink:href="#f6_c1" transform="matrix(14,0,0,14,353.3,589)" />
<use xlink:href="#f6_c1" transform="matrix(14,0,0,14,367.3,589)" />
<use xlink:href="#f6_d8" transform="matrix(14,0,0,14,375.7,589)" />
<use xlink:href="#f6_bg" transform="matrix(14,0,0,14,387,589)" />
<use xlink:href="#f6_bt" transform="matrix(14,0,0,14,401.2,589)" />
<use xlink:href="#f6_b9" transform="matrix(14,0,0,14,412.9,589)" />
<use xlink:href="#f6_ct" transform="matrix(14,0,0,14,428.4,589)" />
<use xlink:href="#f6_c1" transform="matrix(14,0,0,14,434.1,589)" />
<use xlink:href="#f6_cc" transform="matrix(14,0,0,14,448.1,589)" />
<use xlink:href="#f6_d8" transform="matrix(14,0,0,14,459.7,589)" />
<use xlink:href="#f6_c1" transform="matrix(14,0,0,14,151.6,623.3)" />
<use xlink:href="#f6_cu" transform="matrix(14,0,0,14,159.9,623.3)" />
<use xlink:href="#f6_c7" transform="matrix(14,0,0,14,165.6,623.3)" />
<use xlink:href="#f6_c7" transform="matrix(14,0,0,14,177.6,623.3)" />
<use xlink:href="#f6_ct" transform="matrix(14,0,0,14,189.7,623.3)" />
<use xlink:href="#f6_c1" transform="matrix(14,0,0,14,195.3,623.3)" />
<use xlink:href="#f6_bz" transform="matrix(14,0,0,14,209.4,623.3)" />
<use xlink:href="#f6_oz" transform="matrix(14,0,0,14,222.8,623.3)" />
<use xlink:href="#f6_c3" transform="matrix(14,0,0,14,228.4,623.3)" />
<use xlink:href="#f6_ct" transform="matrix(14,0,0,14,243.1,623.3)" />
<use xlink:href="#f6_bb" transform="matrix(14,0,0,14,248.7,623.3)" />
<use xlink:href="#f6_d4" transform="matrix(14,0,0,14,261.5,623.3)" />
<use xlink:href="#f6_bz" transform="matrix(14,0,0,14,267,623.3)" />
<use xlink:href="#f6_d4" transform="matrix(14,0,0,14,280.5,623.3)" />
<use xlink:href="#f6_c3" transform="matrix(14,0,0,14,280.3,623.3)" />
<use xlink:href="#f6_d8" transform="matrix(14,0,0,14,295,623.3)" />
<use xlink:href="#f6_by" transform="matrix(14,0,0,14,306.3,623.3)" />
<use xlink:href="#f6_l1" transform="matrix(14,0,0,14,320.3,623.3)" />
<use xlink:href="#f6_bp" transform="matrix(14,0,0,14,332.1,623.3)" />
<use xlink:href="#f6_d8" transform="matrix(14,0,0,14,344.5,623.3)" />
<use xlink:href="#f6_c1" transform="matrix(14,0,0,14,355.7,623.3)" />
<use xlink:href="#f6_d8" transform="matrix(14,0,0,14,364.1,623.3)" />
<use xlink:href="#f6_am" transform="matrix(14,0,0,14,375.4,623.3)" />
<use xlink:href="#f6_c7" transform="matrix(14,0,0,14,396.9,623.3)" />
<use xlink:href="#f6_d4" transform="matrix(14,0,0,14,409.1,623.3)" />
<use xlink:href="#f6_cc" transform="matrix(14,0,0,14,414.6,623.3)" />
<use xlink:href="#f6_d4" transform="matrix(14,0,0,14,426.6,623.3)" />
<use xlink:href="#f6_bk" transform="matrix(14,0,0,14,431.9,623.3)" />
<use xlink:href="#f6_d8" transform="matrix(14,0,0,14,443.5,623.3)" />
<use xlink:href="#f6_c3" transform="matrix(14,0,0,14,449.1,623.3)" />
<use xlink:href="#f6_d8" transform="matrix(14,0,0,14,463.8,623.3)" />
<use xlink:href="#f6_b9" transform="matrix(14,0,0,14,238.6,657.7)" />
<use xlink:href="#f6_c1" transform="matrix(14,0,0,14,254.1,657.7)" />
<use xlink:href="#f6_d4" transform="matrix(14,0,0,14,262.1,657.7)" />
<use xlink:href="#f6_cc" transform="matrix(14,0,0,14,268.2,657.7)" />
<use xlink:href="#f6_d4" transform="matrix(14,0,0,14,280.1,657.7)" />
<use xlink:href="#f6_bg" transform="matrix(14,0,0,14,285.5,657.7)" />
<use xlink:href="#f6_c0" transform="matrix(14,0,0,14,299.7,657.7)" />
<use xlink:href="#f6_pd" transform="matrix(14,0,0,14,317.9,657.7)" />
<use xlink:href="#f6_bg" transform="matrix(14,0,0,14,325.5,657.7)" />
<use xlink:href="#f6_c0" transform="matrix(14,0,0,14,339.7,657.7)" />
<use xlink:href="#f6_b9" transform="matrix(14,0,0,14,352.3,657.7)" />
<use xlink:href="#f6_ct" transform="matrix(14,0,0,14,367.8,657.7)" />
<use xlink:href="#f6_c1" transform="matrix(14,0,0,14,373.4,657.7)" />
<use xlink:href="#f6_al" transform="matrix(14,0,0,14,226,692.1)" />
<use xlink:href="#f6_c1" transform="matrix(14,0,0,14,241.9,692.1)" />
<use xlink:href="#f6_d4" transform="matrix(14,0,0,14,249.9,692.1)" />
<use xlink:href="#f6_pc" transform="matrix(14,0,0,14,250.3,692.1)" />
<use xlink:href="#f6_pc" transform="matrix(14,0,0,14,254.6,692.1)" />
<use xlink:href="#f6_be" transform="matrix(14,0,0,14,264.5,692.1)" />
<use xlink:href="#f6_ct" transform="matrix(14,0,0,14,278.5,692.1)" />
<use xlink:href="#f6_c3" transform="matrix(14,0,0,14,284.1,692.1)" />
<use xlink:href="#f6_d8" transform="matrix(14,0,0,14,298.8,692.1)" />
<use xlink:href="#f6_c1" transform="matrix(14,0,0,14,310.1,692.1)" />
<use xlink:href="#f6_d4" transform="matrix(14,0,0,14,318.1,692.1)" />
<use xlink:href="#f6_be" transform="matrix(14,0,0,14,324.1,692.1)" />
<use xlink:href="#f6_ct" transform="matrix(14,0,0,14,338.1,692.1)" />
<use xlink:href="#f6_c3" transform="matrix(14,0,0,14,343.7,692.1)" />
<use xlink:href="#f6_d8" transform="matrix(14,0,0,14,358.4,692.1)" />
<use xlink:href="#f6_pc" transform="matrix(14,0,0,14,364.1,692.1)" />
<use xlink:href="#f6_pc" transform="matrix(14,0,0,14,368.3,692.1)" />
<use xlink:href="#f6_pc" transform="matrix(14,0,0,14,372.6,692.1)" />
<use xlink:href="#f6_pc" transform="matrix(14,0,0,14,376.9,692.1)" />
<use xlink:href="#f6_pc" transform="matrix(14,0,0,14,381.2,692.1)" />
<use xlink:href="#f6_pc" transform="matrix(14,0,0,14,385.4,692.1)" />
<use xlink:href="#f6_pc" transform="matrix(14,0,0,14,389.7,692.1)" />
<use xlink:href="#f7_4r" transform="matrix(9,0,0,9,290.2,795.2)" />
<use xlink:href="#f8_q" transform="matrix(9,0,0,9,303,795.2)" />
<use xlink:href="#f8_s" transform="matrix(9,0,0,9,310.7,795.2)" />
<use xlink:href="#f7_4r" transform="matrix(9,0,0,9,321.3,795.2)" />
</g>
</g>
<image preserveAspectRatio="none" x="22" y="801" width="581" height="86" xlink:href="img/1.png"/>
<path d="M255.5,83.6H366.7v1.2H255.5V83.6Z" class="g1_74"/>
<image preserveAspectRatio="none" x="202" y="14" width="217" height="26" xlink:href="img/2.png"/>
<defs>
<path d="M911,-65L736,29V136c0,0,-59,-28,-134,-28c0,0,-159,0,-296,101c0,0,-136,101,-136,233c0,0,0,47,21,90H60L-22,648L9,712H578L671,574L639,510H492c0,0,-87,-58,-87,-157c0,0,0,-26,9,-52l50,-5c0,0,78,0,156,44c0,0,77,43,116,111V822H0L-86,937l32,64H1095l86,-115l-32,-64H878L981,749V-31L911,-65Z"
id="f5_be"
transform="scale(0.001,-0.001)"/>

<path d="M277,-65L102,29V822H0L-86,937l32,64H463L548,886L516,822H244L347,749V-31L277,-65Z"
id="f5_ct"
transform="scale(0.001,-0.001)"/>

<path d="M472,-77C472,-77,28,171,28,448c0,0,0,116,77,191c0,0,77,74,188,74c0,0,51,0,95,-18L527,574c0,0,104,114,277,117V822H0L-86,937l32,64H1164l86,-115l-32,-64H946l102,-73V-31L978,-65L804,29V526c0,0,-130,-78,-133,-294L611,196L431,309c0,0,0,97,33,174c0,0,-22,10,-53,10c0,0,-52,0,-90,-36c0,0,-38,-37,-38,-99c0,0,0,-80,68,-150c0,0,69,-70,214,-161L472,-77Z"
id="f5_c3"
transform="scale(0.001,-0.001)"/>

<path d="M277,-65L102,29V822H0L-86,937l32,64H86L18,1111c0,0,-67,122,-168,122c0,0,-81,0,-202,-80l-128,250c0,0,122,77,232,77c0,0,196,0,356,-250L252,1001H463L548,886L516,822H244L347,749V-31L277,-65Z"
id="f5_d8"
transform="scale(0.001,-0.001)"/>

<path d="M545,-97L35,405L87,542H295c0,0,1,5,1,280H0L-86,937l32,64H729L814,886L782,822H445L550,749V547c0,0,0,-75,-41,-127c0,0,-41,-52,-129,-111L709,110V41L545,-97Z"
id="f5_c1"
transform="scale(0.001,-0.001)"/>

<path d="M-289,908l-132,216c0,0,-70,120,-169,120c0,0,-83,0,-200,-80l-130,249c0,0,125,78,234,78c0,0,187,0,349,-241L-159,969L-289,908Z"
id="f5_d4"
transform="scale(0.001,-0.001)"/>

<path d="M825,-49L735,8V217c0,0,-86,-72,-197,-72c0,0,-130,0,-238,91c0,0,-107,91,-107,204c0,0,0,55,27,105H55L12,616l14,30H574l46,-76L607,539H396c0,0,-78,-49,-78,-162c0,0,0,-70,40,-111c0,0,39,-15,94,-15c0,0,84,0,163,41c0,0,79,41,120,121V822H0l-45,76l14,31H999l46,-76l-14,-31H796l66,-58V-39L825,-49Z"
id="f6_be"
transform="scale(0.001,-0.001)"/>

<path d="M228,-49L138,8V822H0l-45,76l14,31H402l46,-76L434,822H199l65,-58V-39L228,-49Z"
id="f6_ct"
transform="scale(0.001,-0.001)"/>

<path d="M413,-59C413,-59,53,193,53,416c0,0,0,97,66,164c0,0,66,66,156,66c0,0,61,0,110,-30L487,507c0,0,92,126,257,126l35,-2V822H0l-45,76l14,31H1043l46,-76l-13,-31H840l66,-58V-39L869,-49L779,8V547c0,0,-101,-5,-165,-90c0,0,-64,-86,-70,-222L507,225l-90,73c0,0,5,79,35,151c0,0,-59,66,-128,66c0,0,-57,0,-100,-38c0,0,-44,-39,-44,-109c0,0,0,-165,284,-360L413,-59Z"
id="f6_c3"
transform="scale(0.001,-0.001)"/>

<path d="M228,-49L138,8V822H0l-45,76l14,31H119L-33,1144c0,0,-70,92,-157,92c0,0,-69,0,-159,-58l-72,118c0,0,89,73,181,73c0,0,140,0,257,-170L205,929H402l46,-76L434,822H199l65,-58V-39L228,-49Z"
id="f6_d8"
transform="scale(0.001,-0.001)"/>

<path d="M845,-49L755,8V513H497c0,0,61,-45,93,-110c0,0,33,-64,33,-128c0,0,0,-90,-58,-144c0,0,-59,-53,-143,-53c0,0,-133,0,-234,139C188,217,87,356,20,596l76,24c0,0,60,-201,127,-306c0,0,67,-105,160,-105c0,0,57,0,91,36c0,0,33,36,33,91c0,0,0,84,-73,159L295,558v71H755V822H0l-45,76l14,31H1019l46,-76l-14,-31H816l66,-58V-39L845,-49Z"
id="f6_bg"
transform="scale(0.001,-0.001)"/>

<path d="M228,-49L138,8V822H0l-45,76l14,31H138c0,0,-109,342,-284,342c0,0,-62,0,-102,-40c0,0,-40,-39,-40,-93c0,0,0,-61,51,-134l-42,-32c0,0,-128,113,-128,226c0,0,0,79,60,136c0,0,61,56,154,56c0,0,137,0,249,-125c0,0,112,-125,169,-336H402l46,-76L434,822H199l65,-58V-39L228,-49Z"
id="f6_cv"
transform="scale(0.001,-0.001)"/>

<path d="M959,-49L869,8V367c0,0,-32,-13,-64,-13c0,0,-50,0,-110,25c0,0,23,-52,23,-109c0,0,0,-103,-70,-170c0,0,-70,-66,-182,-66c0,0,-110,0,-222,82c0,0,-111,83,-213,293l68,42c0,0,72,-155,152,-231c0,0,81,-76,178,-76c0,0,83,0,131,49c0,0,48,48,48,117c0,0,0,54,-30,100c0,0,-31,47,-91,65L325,391L257,512c0,0,68,53,156,56c0,0,140,72,140,179c0,0,0,69,-52,99c0,0,-4,1,-11,1c-19,0,-66,-4,-123,-30c0,0,-78,-35,-142,-96L150,823c0,0,119,117,253,117c0,0,98,0,175,-71c0,0,77,-70,77,-159c0,0,0,-103,-94,-180c0,0,39,-23,73,-56c0,0,52,-22,109,-22c0,0,77,0,126,38V822H727l-46,76l14,31h558l-153,215c0,0,-70,92,-157,92c0,0,-69,0,-159,-58l-72,118c0,0,89,73,180,73c0,0,141,0,258,-170L1338,929h197l46,-76l-13,-31H1332l66,-58V-39l-37,-10L1271,8V822H930l66,-58V-39L959,-49Z"
id="f6_b1"
transform="scale(0.001,-0.001)"/>

<path d="M226,-49c0,0,-66,24,-102,78c0,0,32,69,82,101c0,0,55,-20,100,-80c0,0,-26,-66,-80,-99Z"
id="f6_pc"
transform="scale(0.001,-0.001)"/>

<path d="M108,-222l-44,58c0,0,96,81,104,164L89,61c0,0,12,83,93,122c0,0,50,-15,79,-55c0,0,29,-39,29,-90c0,0,0,-69,-48,-142c0,0,-48,-72,-134,-118Z"
id="f6_k"
transform="scale(0.001,-0.001)"/>

<path d="M663,-49L573,8V445H299V280L226,251c0,0,-105,99,-162,238l63,72H573V822H0l-45,76l14,31H837l46,-76L869,822H634l66,-58V-39L663,-49Z"
id="f6_bt"
transform="scale(0.001,-0.001)"/>

<path d="M283,260c0,0,122,0,209,113V513c0,0,-90,51,-160,51c0,0,-80,0,-129,-50c0,0,-49,-50,-49,-118c0,0,0,-60,35,-110c0,0,45,-26,94,-26ZM582,-49L492,8V211c0,0,-63,-54,-141,-54c0,0,-113,0,-213,92c0,0,-100,92,-100,205c0,0,0,93,69,157c0,0,69,64,162,64c0,0,32,0,64,-9L492,590V822H0l-45,76l14,31H1108l45,-76l-13,-31H553l66,-58V524c0,0,91,89,192,89c0,0,98,0,171,-79c0,0,72,-79,72,-186c0,0,0,-178,-224,-330L736,124c0,0,219,153,219,269c0,0,0,44,-26,75c0,0,-26,32,-81,32c0,0,-109,0,-229,-155V-39L582,-49Z"
id="f6_b9"
transform="scale(0.001,-0.001)"/>

<path d="M547,-285c0,0,-66,25,-102,80c0,0,32,69,82,101c0,0,55,-20,99,-80c0,0,-26,-67,-79,-101Zm1,228c0,0,-122,0,-243,81c0,0,-122,81,-252,280l57,41C110,345,283,64,498,64c0,0,92,0,153,49c0,0,61,49,61,121c0,0,0,46,-28,84L440,237c0,0,-73,11,-139,55c0,0,-66,44,-105,105c0,0,-40,61,-40,119c0,0,0,72,62,125c0,0,62,53,184,53H625V822H0l-45,76l14,31H906l46,-76L938,822H678l66,-58V562H431c0,0,-164,0,-164,-99c0,0,0,-55,57,-102l261,82c0,0,104,-21,172,-98c0,0,68,-78,68,-171c0,0,0,-99,-76,-166c0,0,-77,-65,-201,-65Z"
id="f6_ch"
transform="scale(0.001,-0.001)"/>

<path d="M325,240c0,0,77,0,154,35c0,0,77,35,120,99V500c0,0,-118,73,-222,73c0,0,-97,0,-151,-54c0,0,-53,-53,-53,-128c0,0,0,-73,49,-125c0,0,38,-26,103,-26ZM689,-49L599,8V199c0,0,-73,-65,-179,-65c0,0,-134,0,-252,96c0,0,-118,95,-118,221c0,0,0,102,78,171c0,0,78,69,190,69c0,0,38,0,75,-10L599,582V822H0l-45,76l14,31H863l46,-76L895,822H660l66,-58V-39L689,-49Z"
id="f6_c7"
transform="scale(0.001,-0.001)"/>

<path d="M0,1062c0,0,-26,11,-60,36c0,0,-34,26,-51,49c0,0,39,81,91,110c0,0,60,-23,106,-85c0,0,-28,-70,-86,-110Z"
id="f6_dj"
transform="scale(0.001,-0.001)"/>

<path d="M823,-49L733,8V339H445V191L371,160c0,0,-56,36,-120,105c0,0,-63,70,-89,131l41,59H313V735c0,0,0,99,-55,140c0,0,-3,1,-8,1c-16,0,-48,-3,-71,-23c0,0,-31,-26,-31,-66c0,0,0,-69,81,-113L189,620C189,620,31,720,31,828c0,0,0,61,45,99c0,0,46,37,109,37c0,0,96,0,173,-86c0,0,76,-87,79,-194V455H733V822H556l-46,76l14,31H998l45,-76l-13,-31H794l66,-58V-39L823,-49Z"
id="f6_by"
transform="scale(0.001,-0.001)"/>

<path d="M-214,863l-199,281c0,0,-70,92,-157,92c0,0,-69,0,-159,-58l-72,118c0,0,89,73,180,73c0,0,141,0,258,-170L-155,901l-59,-38Z"
id="f6_d4"
transform="scale(0.001,-0.001)"/>

<path d="M527,-71L52,414l34,92H277c0,0,12,32,12,72V822H0l-45,76l14,31H940l45,-76L972,822H350l66,-55V553c0,0,24,52,77,83c0,0,52,30,112,30c0,0,87,0,171,-76c0,0,84,-75,222,-304L938,244L828,411c0,0,-95,134,-195,134c0,0,-63,0,-100,-35c0,0,-36,-36,-36,-87c0,0,0,-50,42,-87l152,99L755,315c0,0,-71,-61,-148,-61c0,0,-80,0,-146,66c0,0,-65,67,-65,164c0,0,-34,-70,-132,-168L610,34L611,8L527,-71Z"
id="f6_n1"
transform="scale(0.001,-0.001)"/>

<path d="M527,-71L52,414l34,92H277c0,0,12,32,12,72V822H0l-45,76l14,31H599l46,-76L631,822H350l66,-55V564c0,0,0,-96,-152,-248L610,34L611,8L527,-71Z"
id="f6_c1"
transform="scale(0.001,-0.001)"/>

<path d="M675,-274L602,21C602,21,550,3,498,3C498,3,347,3,210,118C210,118,73,232,73,373c0,0,0,113,84,184c0,0,84,71,222,72H524V822H0l-45,76l14,31H834l46,-76L866,822H585l66,-58V504l-3,2l3,-3H408c0,0,-95,0,-154,-53c0,0,-58,-53,-58,-132c0,0,0,-49,27,-100c0,0,28,-50,83,-84c0,0,44,-15,96,-15c0,0,91,0,160,46L535,303l101,48L773,188c0,0,-8,-28,-34,-66c0,0,-27,-38,-62,-64L813,-221L675,-274Z"
id="f6_br"
transform="scale(0.001,-0.001)"/>

<path d="M348,229c0,0,57,0,106,17L263,559c0,0,-95,-50,-95,-162c0,0,0,-75,52,-136c0,0,49,-32,128,-32Zm170,48c0,0,61,38,96,91V504c0,0,-131,80,-244,80l-35,-2L518,277ZM704,-49L614,8V193c0,0,-84,-65,-192,-65c0,0,-139,0,-255,98c0,0,-115,98,-115,226c0,0,0,106,77,175c0,0,77,70,189,70c0,0,38,0,75,-9L614,578V822H0l-45,76l14,31H878l46,-76L911,822H675l66,-58V-39L704,-49Z"
id="f6_bx"
transform="scale(0.001,-0.001)"/>

<path d="M689,445V822H286l65,-58l8,-319ZM779,-49L689,8V328H370V180L296,150c0,0,-56,35,-120,104c0,0,-63,70,-89,131l41,60H238L223,822H0l-45,76l14,31H953l46,-76L985,822H750l66,-58V-39L779,-49Z"
id="f6_bz"
transform="scale(0.001,-0.001)"/>

<path d="M727,-49L637,8V822H278l66,-58V226L270,196c0,0,-64,36,-122,98c0,0,-58,62,-79,122l43,59H217V822H0l-45,76l14,31H901l46,-76L933,822H698l66,-58V-39L727,-49Z"
id="f6_bb"
transform="scale(0.001,-0.001)"/>

<path d="M688,-243c0,0,-256,53,-408,173c0,0,-152,119,-152,270c0,0,0,101,68,171c0,0,-101,84,-101,179c0,0,0,64,53,112c0,0,54,47,191,47H587V822H0l-45,76l14,31H830l45,-76L862,822H640l66,-58V585H362c0,0,-159,-1,-159,-92c0,0,0,-41,46,-80c0,0,76,47,183,47c0,0,135,0,230,-76c0,0,96,-75,96,-187C758,197,758,67,629,2L545,104c0,0,49,30,81,75c0,0,32,44,32,82c0,0,0,16,-4,26c0,0,-64,58,-167,58c0,0,-97,0,-166,-50v-2c0,0,-67,-52,-67,-131c0,0,0,-116,132,-199c0,0,132,-84,334,-132l-32,-74Z"
id="f6_cc"
transform="scale(0.001,-0.001)"/>

<path d="M-214,860l-227,219c0,0,-73,70,-148,70c0,0,-67,0,-160,-58l-72,117c0,0,83,71,176,71c0,0,120,0,232,-124L-221,940l-102,294c0,0,-64,179,-189,179c0,0,-60,0,-133,-33l-60,125c0,0,84,47,164,47c0,0,200,0,281,-276L-150,901l-23,-15l-41,-26Z"
id="f6_d5"
transform="scale(0.001,-0.001)"/>

<path d="M388,325c0,0,58,0,112,31c0,0,53,31,84,86V822H165l69,-58V408c0,0,47,-83,154,-83ZM674,-49L584,8V257c0,0,-61,-51,-141,-51c0,0,-125,0,-232,109c0,0,-107,108,-107,243V822H0l-45,76l14,31H848l46,-76L880,822H645l65,-58V-39L674,-49Z"
id="f6_bv"
transform="scale(0.001,-0.001)"/>

<path d="M-234,-413c0,0,-210,0,-488,322l54,49c0,0,119,-128,209,-193c0,0,90,-65,177,-65c0,0,72,0,113,40c0,0,42,39,42,91c0,0,0,75,-78,106L-323,-181l-90,98c0,0,63,95,167,95c0,0,90,0,155,-69c0,0,66,-70,66,-164c0,0,0,-85,-60,-139c0,0,-61,-53,-149,-53Z"
id="f6_cw"
transform="scale(0.001,-0.001)"/>

<path d="M342,324c0,0,45,0,75,34c0,0,31,33,31,100V822H165l66,-58V390c0,0,32,-66,111,-66ZM853,-49L762,8V822H509l65,-58V455c0,0,0,-134,-51,-185c0,0,-52,-52,-127,-52c0,0,-98,0,-195,99c0,0,-97,99,-97,209V822H0l-45,76l14,31H1027l46,-76l-14,-31H823l66,-58V-39L853,-49Z"
id="f6_bo"
transform="scale(0.001,-0.001)"/>

<path d="M799,475V822H350l66,-55V564c0,0,0,-43,-25,-89ZM527,-71L52,414l34,92H277c0,0,12,32,12,72V822H0l-45,76l14,31H1063l46,-76l-14,-31H860l66,-58V-39L889,-49L799,8V370H315L264,316L610,34L611,8L527,-71Z"
id="f6_cb"
transform="scale(0.001,-0.001)"/>

<path d="M92,380L46,457l14,30H448l45,-76L480,380Z"
id="f6_pd"
transform="scale(0.001,-0.001)"/>

<path d="M634,-49L249,296c0,0,-1,0,-3,0c-11,0,-48,1,-90,15c0,0,-51,16,-67,36l49,165l50,12l84,-98c0,0,125,31,191,104c0,0,66,73,66,165c0,0,0,109,-95,170c0,0,-2,0,-6,0C397,865,262,858,121,738L46,848c0,0,52,47,127,82c0,0,75,34,152,34c0,0,130,0,226,-94c0,0,95,-94,95,-218c0,0,0,-107,-77,-199c0,0,-77,-92,-216,-134L697,26L698,0L634,-49Z"
id="f6_n8"
transform="scale(0.001,-0.001)"/>

<path d="M228,-49L138,8V822H0l-45,76l14,31H134c0,0,-91,92,-91,191c0,0,0,105,85,170c0,0,84,65,219,65c0,0,128,0,293,-76c0,0,165,-77,362,-263L958,966c0,0,-177,143,-303,210c0,0,-125,68,-244,68c0,0,-107,0,-175,-50c0,0,-68,-50,-68,-131c0,0,0,-61,49,-134H402l46,-76L434,822H199l65,-58V-39L228,-49Z"
id="f6_cu"
transform="scale(0.001,-0.001)"/>

<path d="M761,293c0,0,127,0,169,94V532c0,0,-68,46,-145,46c0,0,-76,0,-121,-46c0,0,-45,-45,-45,-107c0,0,0,-61,44,-110c0,0,47,-22,98,-22ZM657,67c0,0,166,0,273,107v55c0,0,-45,-36,-111,-36c0,0,-110,0,-207,90c0,0,-97,90,-97,194c0,0,0,85,66,148c0,0,65,63,155,63l48,-5L930,603V822H376l62,-55V579c0,0,0,-60,-23,-102c0,0,-24,-42,-148,-190c0,0,66,-104,175,-162c0,0,108,-58,215,-58ZM1021,-49L930,8V53c0,0,-105,-83,-264,-83c0,0,-177,0,-339,128C327,98,165,226,90,429l34,77H296c0,0,19,39,19,102l-2,214H0l-45,76l14,31H1195l46,-76l-14,-31H992l65,-58V-39l-36,-10Z"
id="f6_ba"
transform="scale(0.001,-0.001)"/>

<path d="M347,-57C347,-57,73,203,73,373c0,0,0,110,87,181c0,0,86,71,227,71c0,0,143,0,285,-95L626,420c0,0,-103,80,-217,80c0,0,-85,0,-148,-47c0,0,-62,-47,-62,-129c0,0,0,-127,204,-328L347,-57ZM0,822l-45,76l14,31H536l46,-76L568,822Z"
id="f6_ld"
transform="scale(0.001,-0.001)"/>

<path d="M959,-49L869,8V367c0,0,-32,-13,-64,-13c0,0,-50,0,-110,25c0,0,23,-52,23,-109c0,0,0,-103,-70,-170c0,0,-70,-66,-182,-66c0,0,-110,0,-222,82c0,0,-111,83,-213,293l68,42c0,0,72,-155,152,-231c0,0,81,-76,178,-76c0,0,83,0,131,49c0,0,48,48,48,117c0,0,0,54,-30,100c0,0,-31,47,-91,65L325,391L257,512c0,0,68,53,156,56c0,0,140,72,140,179c0,0,0,69,-52,99c0,0,-4,1,-11,1c-19,0,-66,-4,-123,-30c0,0,-78,-35,-142,-96L150,823c0,0,119,117,253,117c0,0,98,0,175,-71c0,0,77,-70,77,-159c0,0,0,-103,-94,-180c0,0,39,-23,73,-56c0,0,52,-22,109,-22c0,0,77,0,126,38V822H727l-46,76l14,31h439l45,-76l-13,-31H930l66,-58V-39L959,-49Z"
id="f6_al"
transform="scale(0.001,-0.001)"/>

<path d="M228,-49L138,8V822H0l-45,76l14,31H134c0,0,-231,362,-445,362c0,0,-87,0,-135,-49c0,0,-48,-49,-48,-116c0,0,0,-73,43,-122l-45,-32c0,0,-119,108,-119,223c0,0,0,94,74,155c0,0,73,60,181,60c0,0,161,0,316,-134c0,0,154,-133,267,-347H402l46,-76L434,822H199l65,-58V-39L228,-49Z"
id="f6_oc"
transform="scale(0.001,-0.001)"/>

<path d="M-10,1013c0,0,-122,70,-122,189c0,0,0,74,53,125c0,0,53,51,137,51c0,0,87,0,164,-73l-23,-61c0,0,-49,36,-109,36c0,0,-61,0,-98,-39c0,0,-38,-39,-38,-97c0,0,0,-55,46,-128l-10,-3Z"
id="f6_on"
transform="scale(0.001,-0.001)"/>

<path d="M347,-57C347,-57,66,211,66,394c0,0,0,98,74,164c0,0,74,65,225,65H616V822H0l-45,76l14,31H880l46,-76L912,822H677l66,-58V-39L706,-49L616,8V500H428c0,0,-239,0,-239,-161c0,0,0,-136,214,-343L347,-57Z"
id="f6_bp"
transform="scale(0.001,-0.001)"/>

<path d="M332,-57C332,-57,66,176,66,370c0,0,0,107,79,181c0,0,80,74,251,74H669V822H0l-45,76l14,31H933l46,-76L966,822H730l66,-58V-39L759,-49L669,8V380L503,270l70,-97L529,112c0,0,-109,19,-214,77l-2,89L654,500H446c0,0,-247,-5,-247,-182c0,0,0,-148,194,-323L332,-57Z"
id="f6_j7"
transform="scale(0.001,-0.001)"/>

<path d="M768,-49L678,8V202c0,0,-73,-58,-172,-58c0,0,-123,0,-240,94c0,0,-118,94,-179,237l20,55c0,0,134,12,215,70c0,0,81,57,81,141c0,0,0,90,-67,134l-26,3c0,0,-46,0,-74,-29c0,0,-28,-30,-28,-68c0,0,0,-55,82,-109L252,620C252,620,93,720,93,820c0,0,0,65,47,104c0,0,46,40,114,40c0,0,99,0,179,-83c0,0,80,-83,82,-197c0,0,0,-93,-79,-165c0,0,-78,-73,-199,-97c0,0,29,-104,88,-158c0,0,42,-16,92,-16c0,0,78,0,151,38c0,0,74,38,110,111V822H553l-46,76l14,31H943l45,-76L975,822H739l66,-58V-39L768,-49Z"
id="f6_bq"
transform="scale(0.001,-0.001)"/>

<path d="M180,220c0,0,-105,99,-162,238l63,72H556l40,-85L574,414H254V249L180,220ZM0,822l-45,76l14,31H471l45,-76L503,822Z"
id="f6_li"
transform="scale(0.001,-0.001)"/>

<path d="M434,225c0,0,84,0,169,42c0,0,85,43,126,126V822H267c0,0,-64,-49,-64,-115c0,0,0,-79,90,-126c0,0,60,35,144,35l67,-6l75,-89L564,490l-51,7H493c0,0,-90,0,-142,-43c0,0,-52,-43,-52,-104c0,0,0,-60,51,-109c0,0,33,-16,84,-16ZM819,-49L729,8V197c0,0,-83,-76,-202,-76c0,0,-130,0,-237,91c0,0,-108,92,-108,196c0,0,0,72,53,128c0,0,-75,42,-115,97c0,0,-41,56,-41,113c0,0,0,38,22,76H0l-45,76l14,31H993l46,-76l-14,-31H790l66,-58V-39L819,-49Z"
id="f6_bc"
transform="scale(0.001,-0.001)"/>

<path d="M471,-26c0,0,-259,0,-448,396l70,43C93,413,240,98,442,98c0,0,79,0,132,46c0,0,54,45,54,120c0,0,0,61,-38,116c0,0,-38,54,-107,72L322,370L255,492c0,0,66,53,156,56c0,0,128,51,128,153c0,0,0,77,-65,121H0l-45,76l14,31H813l46,-76L845,822H578c0,0,76,-66,76,-157c0,0,0,-95,-87,-156c0,0,84,-48,131,-123c0,0,48,-76,48,-158c0,0,0,-109,-78,-182c0,0,-78,-72,-197,-72Z"
id="f6_ap"
transform="scale(0.001,-0.001)"/>

<path d="M915,-274L842,21L784,6c0,0,-37,-120,-114,-190c0,0,-77,-70,-178,-70c0,0,-96,0,-175,51c0,0,-79,51,-80,122c0,0,-119,32,-179,89C58,8,-1,67,-1,138c0,0,0,64,44,104c0,0,44,41,104,41c0,0,91,0,207,-123L315,110c0,0,-78,69,-122,84c0,0,-75,-23,-75,-92c0,0,0,-39,36,-72c0,0,35,-32,100,-46c0,0,35,69,122,89L497,24l-4,-40c0,0,-59,-6,-95,-37c0,0,-36,-32,-36,-68c0,0,0,-41,46,-63c0,0,67,3,141,62c0,0,74,59,102,137c0,0,-136,32,-237,135c0,0,-101,104,-101,223c0,0,0,113,84,184c0,0,84,71,222,72H764V822H0l-45,76l14,31H1074l46,-76l-14,-31H825l66,-58V504l-3,2l3,-3H648c0,0,-95,0,-154,-53c0,0,-59,-53,-59,-132c0,0,0,-49,28,-100c0,0,27,-50,82,-84c0,0,45,-15,97,-15c0,0,91,0,160,46L775,303l100,48L1013,188c0,0,-8,-28,-34,-66c0,0,-27,-38,-62,-64l136,-279L915,-274Z"
id="f6_ge"
transform="scale(0.001,-0.001)"/>

<path d="M374,248c0,0,77,0,149,36c0,0,71,37,110,107V822H284c0,0,138,-96,138,-208c0,0,0,-151,-228,-192c0,0,29,-104,89,-158c0,0,41,-16,91,-16ZM723,-49L633,8V200c0,0,-69,-56,-170,-56c0,0,-122,0,-240,94c0,0,-118,94,-179,237l20,55c0,0,133,17,187,44c0,0,55,28,55,84c0,0,0,45,-30,81c0,0,-30,36,-99,83H0l-45,76l14,31H897l46,-76L929,822H694l65,-58V-39L723,-49Z"
id="f6_c0"
transform="scale(0.001,-0.001)"/>

<path d="M0,822l-45,76l14,31H93l46,-76L125,822Z"
id="f6_nn"
transform="scale(0.001,-0.001)"/>

<path d="M500,44c0,0,78,0,152,57c0,0,75,56,98,134V350c0,0,-130,0,-223,-64c0,0,-93,-63,-93,-148c0,0,0,-54,43,-92l23,-2ZM321,561c0,0,66,46,101,105c0,0,36,60,36,113c0,0,0,28,-9,48c0,0,-35,41,-87,41c0,0,-50,0,-89,-38c0,0,-39,-39,-39,-100c0,0,0,-94,87,-169ZM840,-111l-90,59V32c0,0,-69,-68,-156,-68c0,0,-97,0,-187,64c0,0,-89,64,-89,146c0,0,0,61,48,123c0,0,48,62,141,94c0,0,-69,20,-140,57L105,272L20,364L260,519c0,0,-144,118,-144,246c0,0,0,81,57,140c0,0,56,59,140,59c0,0,96,0,171,-79c0,0,75,-78,75,-168c0,0,0,-118,-133,-222c0,0,107,-44,232,-44l92,6V822H628l-46,76l14,31h418l46,-76l-13,-31H811l66,-58V-100l-37,-11Z"
id="f6_ke"
transform="scale(0.001,-0.001)"/>

<path d="M-239,897c0,0,-82,61,-132,137c0,0,-50,75,-50,150c0,0,0,78,52,133c0,0,52,55,141,55c0,0,98,0,176,-64l-23,-69c0,0,-52,32,-104,32c0,0,-57,0,-95,-36c0,0,-38,-36,-38,-95c0,0,0,-115,117,-217l-44,-26Z"
id="f6_dr"
transform="scale(0.001,-0.001)"/>

<path d="M0,822l-45,76l14,31H61l46,-76L93,822Z"
id="f6_no"
transform="scale(0.001,-0.001)"/>

<path d="M-91,1001c0,0,-27,10,-61,36c0,0,-33,26,-50,49c0,0,38,81,90,110c0,0,61,-23,107,-85c0,0,-28,-71,-86,-110ZM-214,863l-199,281c0,0,-70,92,-157,92c0,0,-69,0,-159,-58l-72,118c0,0,89,73,180,73c0,0,141,0,258,-170L-155,901l-59,-38Z"
id="f6_oz"
transform="scale(0.001,-0.001)"/>

<path d="M513,460c0,0,61,81,61,179c0,0,0,87,-45,143c0,0,-45,57,-116,57c0,0,-63,0,-102,-43c0,0,-39,-43,-39,-110c0,0,0,-90,68,-151c0,0,68,-61,173,-75ZM581,-83L278,167l-41,-4c0,0,-99,0,-130,37l47,168l51,12l78,-79c0,0,110,40,183,105c0,0,-141,23,-231,107c0,0,-90,84,-90,193c0,0,0,69,37,116H0l-45,76l14,31H1134l45,-76l-13,-31H930l66,-58V-39L959,-49L869,8V822H588c0,0,51,-44,75,-109c0,0,25,-64,25,-122c0,0,0,-105,-81,-213c0,0,-80,-108,-240,-176L658,18l2,-25L581,-83Z"
id="f6_c8"
transform="scale(0.001,-0.001)"/>

<path d="M228,-49L138,8V822H0l-45,76l14,31H134c0,0,-85,93,-85,192c0,0,0,124,129,195c0,0,129,71,364,71c0,0,285,0,647,-97c0,0,363,-97,692,-271l-42,-50c0,0,-313,137,-644,221c0,0,-332,84,-595,84c0,0,-198,0,-314,-55c0,0,-115,-55,-115,-163c0,0,0,-60,44,-127H402l46,-76L434,822H199l65,-58V-39L228,-49Z"
id="f6_o0"
transform="scale(0.001,-0.001)"/>

<path d="M283,260c0,0,122,0,209,113V513c0,0,-90,51,-160,51c0,0,-80,0,-129,-50c0,0,-49,-50,-49,-118c0,0,0,-60,35,-110c0,0,45,-26,94,-26ZM582,-49L492,8V211c0,0,-63,-54,-141,-54c0,0,-113,0,-214,92c0,0,-102,92,-102,206c0,0,0,93,69,157c0,0,69,63,163,63c0,0,34,0,66,-9L492,590V822H0l-45,76l14,31H909l46,-76L941,822H553l66,-58V521c0,0,93,104,192,104c0,0,63,0,120,-42c0,0,57,-42,82,-106L964,431l-5,9c0,0,-38,72,-110,72c0,0,-51,0,-105,-41c0,0,-53,-42,-125,-129V-39L582,-49Z"
id="f6_l1"
transform="scale(0.001,-0.001)"/>

<path d="M483,-305L295,-10c0,0,-90,22,-156,74l41,170h66L351,63c0,0,126,4,207,62c0,0,82,58,82,139c0,0,0,37,-18,71L365,266c0,0,-110,15,-197,102c0,0,-87,87,-87,176c0,0,0,69,59,117c0,0,59,48,172,48H550V822H0l-45,76l14,31H550c0,0,-142,122,-142,255c0,0,0,78,52,133c0,0,52,55,140,55c0,0,98,0,176,-64l-23,-69c0,0,-53,32,-104,32c0,0,-56,0,-94,-36c0,0,-39,-36,-39,-95c0,0,0,-109,112,-211H822l46,-76L854,822H603l66,-58V585H373c0,0,-184,0,-184,-99c0,0,0,-48,63,-101l310,78c0,0,86,-34,141,-99c0,0,55,-65,55,-142c0,0,0,-109,-98,-179c0,0,-98,-69,-254,-69L599,-216L483,-305Z"
id="f6_ao"
transform="scale(0.001,-0.001)"/>

<path d="M368,344c0,0,90,0,155,73V822H150l67,-58V438c0,0,46,-94,151,-94ZM613,-49L523,8V251c0,0,-48,-28,-103,-28c0,0,-122,0,-227,112C193,335,89,448,89,590V822H0l-45,76l14,31H1150l46,-76l-13,-31H584l65,-58V533c0,0,101,95,211,95c0,0,98,0,170,-79c0,0,73,-78,73,-185c0,0,0,-179,-225,-330L785,139c0,0,219,153,219,269c0,0,0,43,-26,75c0,0,-26,32,-80,32c0,0,-120,0,-249,-159V-39L613,-49Z"
id="f6_bw"
transform="scale(0.001,-0.001)"/>

<path d="M228,-49L138,8V822H0l-45,76l14,31H70L-65,1033c0,0,-90,65,-157,65c0,0,-67,0,-151,-53l-72,118c0,0,78,65,163,65c0,0,116,0,246,-120L153,930L46,1201c0,0,-71,166,-187,166c0,0,-52,0,-128,-33l-60,125c0,0,78,46,159,46c0,0,193,0,283,-271L215,929H402l46,-76L434,822H199l65,-58V-39L228,-49Z"
id="f6_d9"
transform="scale(0.001,-0.001)"/>

<path d="M570,78c0,0,66,17,105,54c0,0,40,38,40,88c0,0,0,40,-23,66c0,0,-23,26,-58,26c0,0,-40,0,-71,-33c0,0,-31,-33,-31,-90c0,0,0,-55,38,-111ZM538,-45c0,0,-182,0,-322,128C216,83,76,211,76,368c0,0,0,122,91,201c0,0,90,79,238,79H564V822H0l-45,76l14,31H853l45,-76L885,822H617l66,-58V521H420c0,0,-99,0,-162,-57c0,0,-62,-58,-62,-146c0,0,0,-121,105,-208c0,0,118,-41,188,-41l29,1l-69,46c0,0,-36,55,-36,115c0,0,0,73,48,123c0,0,49,49,123,49c0,0,87,0,151,-74c0,0,64,-74,64,-162c0,0,0,-94,-71,-153c0,0,-71,-59,-190,-59Z"
id="f6_bn"
transform="scale(0.001,-0.001)"/>

<path d="M959,-49L869,8V367c0,0,-32,-13,-64,-13c0,0,-50,0,-110,25c0,0,23,-52,23,-109c0,0,0,-103,-70,-170c0,0,-70,-66,-182,-66c0,0,-110,0,-222,82c0,0,-111,83,-213,293l68,42c0,0,72,-155,152,-231c0,0,81,-76,178,-76c0,0,83,0,131,49c0,0,48,48,48,117c0,0,0,54,-30,100c0,0,-31,47,-91,65L325,391L257,512c0,0,68,53,156,56c0,0,140,72,140,179c0,0,0,69,-52,99c0,0,-4,1,-11,1c-19,0,-66,-4,-123,-30c0,0,-78,-35,-142,-96L150,823c0,0,119,117,253,117c0,0,98,0,175,-71c0,0,77,-70,77,-159c0,0,0,-103,-94,-180c0,0,39,-23,73,-56c0,0,52,-22,109,-22c0,0,77,0,126,38V822H727l-46,76l14,31h840l46,-76l-13,-31H1332l66,-58V-39l-37,-10L1271,8V822H930l66,-58V-39L959,-49Z"
id="f6_am"
transform="scale(0.001,-0.001)"/>

<path d="M487,-7c0,0,-88,0,-185,46c0,0,-97,47,-163,130c0,0,-66,83,-66,185c0,0,0,109,80,177c0,0,79,68,234,68H504V822H0l-45,76l14,31H827l45,-76L859,822H565l66,-58V474l-3,1l3,-3H396c0,0,-100,0,-152,-47c0,0,-53,-48,-53,-119c0,0,0,-104,93,-178c0,0,60,-20,118,-20c0,0,81,0,156,36c0,0,76,35,123,99l92,-99C773,144,723,70,645,31C645,31,567,-7,487,-7Z"
id="f6_bk"
transform="scale(0.001,-0.001)"/>

<path d="M725,307c0,0,-95,0,-218,78c0,0,-123,78,-188,78c0,0,-54,0,-95,-34c0,0,-41,-34,-73,-100L93,362c0,0,38,88,101,146c0,0,63,59,148,59c0,0,90,0,214,-78c0,0,124,-79,188,-79c0,0,63,0,106,34c0,0,42,33,85,104l60,-40c0,0,-32,-66,-101,-134c0,0,-70,-67,-169,-67Z"
id="f7_4r"
transform="scale(0.001,-0.001)"/>

<path d="M435,92c0,0,85,0,146,69c0,0,60,68,60,186c0,0,0,114,-60,179c0,0,-60,66,-152,66c0,0,-90,0,-154,-66c0,0,-63,-65,-63,-171c0,0,0,-70,30,-133c0,0,29,-64,82,-97c0,0,52,-33,111,-33Zm2,-110c0,0,-168,0,-273,123C164,105,58,228,58,512c0,0,0,317,117,461c0,0,102,125,275,125c0,0,129,0,211,-72c0,0,82,-72,99,-200L626,815c0,0,-18,79,-51,115c0,0,-54,58,-134,58c0,0,-64,0,-112,-36c0,0,-63,-46,-99,-135c0,0,-37,-89,-38,-253c0,0,48,74,118,110c0,0,70,36,147,36c0,0,134,0,228,-99c0,0,94,-99,94,-256c0,0,0,-103,-44,-191C735,164,691,75,613,28c0,0,-77,-46,-176,-46Z"
id="f8_q"
transform="scale(0.001,-0.001)"/>

<path d="M423,92c0,0,97,0,159,62c0,0,62,62,62,157c0,0,0,97,-64,160c0,0,-64,64,-161,64c0,0,-96,0,-158,-63c0,0,-62,-62,-62,-156c0,0,0,-58,27,-111c0,0,27,-54,81,-84c0,0,54,-29,116,-29Zm0,552c0,0,78,0,127,49c0,0,49,49,49,120c0,0,0,74,-50,124c0,0,-51,51,-128,51c0,0,-77,0,-127,-50c0,0,-51,-49,-51,-118c0,0,0,-77,50,-126c0,0,50,-50,130,-50ZM422,-18c0,0,-162,0,-261,95c0,0,-99,96,-99,239c0,0,0,107,54,179c0,0,54,72,154,98c0,0,-84,31,-124,87c0,0,-40,57,-40,136c0,0,0,119,85,201c0,0,86,81,229,81c0,0,143,0,230,-83c0,0,87,-83,87,-203c0,0,0,-76,-40,-132c0,0,-39,-56,-121,-87c0,0,101,-33,154,-106c0,0,52,-73,52,-174c0,0,0,-141,-99,-236c0,0,-99,-95,-261,-95Z"
id="f8_s"
transform="scale(0.001,-0.001)"/>


</defs>
</svg>