<?xml version="1.0" encoding="UTF-8" standalone="no"?>
<!DOCTYPE svg PUBLIC "-//W3C//DTD SVG 1.1//EN"
"http://www.w3.org/Graphics/SVG/1.1/DTD/svg11.dtd">
<svg viewBox="0 0 641 910" version="1.1" xmlns="http://www.w3.org/2000/svg" xmlns:xlink="http://www.w3.org/1999/xlink">
<defs>
<clipPath id="c0_28"><path d="M0,909.8V0H641.7V909.8Z"/></clipPath>
<clipPath id="c1_28"><path d="M0,908.6V0H641.7V908.6Z"/></clipPath>
<style type="text/css"><![CDATA[
.g0_28{
fill: #FFFFFF;
}
.g1_28{
}
]]></style>
</defs>
<path d="M0,0H641.7V909.8H0V0Z" class="g0_28"/>
<path d="M0,0H641.7V909.8H0V0Z" class="g0_28"/>
<g clip-path="url(#c0_28)">
<path d="M0,-19105.5H641.7V87340H0V-19105.5Z" class="g0_28"/>
</g>
<path d="M0,0H641.7V908.6H0V0Z" class="g0_28"/>
<path d="M19.5,60.7H602.7v1.2H19.5V60.7Z" class="g1_28"/>
<g clip-path="url(#c1_28)">
<path d="M0,61.9H641.7V909.8H0V61.9Z" class="g0_28"/>
<g fill="#000000" >
<use xlink:href="#f6_by" transform="matrix(14,0,0,14,204.3,91.7)" />
<use xlink:href="#f6_o0" transform="matrix(14,0,0,14,218.2,91.7)" />
<use xlink:href="#f6_l1" transform="matrix(14,0,0,14,223.8,91.7)" />
<use xlink:href="#f6_bp" transform="matrix(14,0,0,14,235.7,91.7)" />
<use xlink:href="#f6_bt" transform="matrix(14,0,0,14,253.7,91.7)" />
<use xlink:href="#f6_d4" transform="matrix(14,0,0,14,265.5,91.7)" />
<use xlink:href="#f6_by" transform="matrix(14,0,0,14,271.1,91.7)" />
<use xlink:href="#f6_ct" transform="matrix(14,0,0,14,285,91.7)" />
<use xlink:href="#f6_c7" transform="matrix(14,0,0,14,290.6,91.7)" />
<use xlink:href="#f6_bq" transform="matrix(14,0,0,14,308.4,91.7)" />
<use xlink:href="#f6_cv" transform="matrix(14,0,0,14,321.6,91.7)" />
<use xlink:href="#f6_bt" transform="matrix(14,0,0,14,332.9,91.7)" />
<use xlink:href="#f6_bz" transform="matrix(14,0,0,14,344.6,91.7)" />
<use xlink:href="#f6_bt" transform="matrix(14,0,0,14,357.9,91.7)" />
<use xlink:href="#f6_b9" transform="matrix(14,0,0,14,375.3,91.7)" />
<use xlink:href="#f6_c1" transform="matrix(14,0,0,14,390.8,91.7)" />
<use xlink:href="#f6_bp" transform="matrix(14,0,0,14,399.2,91.7)" />
<use xlink:href="#f6_ct" transform="matrix(14,0,0,14,411.5,91.7)" />
<use xlink:href="#f6_bz" transform="matrix(14,0,0,14,183.6,126)" />
<use xlink:href="#f6_m1" transform="matrix(14,0,0,14,197,126)" />
<use xlink:href="#f6_bp" transform="matrix(14,0,0,14,205.9,126)" />
<use xlink:href="#f6_b9" transform="matrix(14,0,0,14,218.2,126)" />
<use xlink:href="#f6_al" transform="matrix(14,0,0,14,239.3,126)" />
<use xlink:href="#f6_bz" transform="matrix(14,0,0,14,255.2,126)" />
<use xlink:href="#f6_ct" transform="matrix(14,0,0,14,268.5,126)" />
<use xlink:href="#f6_n1" transform="matrix(14,0,0,14,274.2,126)" />
<use xlink:href="#f6_bp" transform="matrix(14,0,0,14,293,126)" />
<use xlink:href="#f6_ct" transform="matrix(14,0,0,14,305.3,126)" />
<use xlink:href="#f6_c1" transform="matrix(14,0,0,14,310.9,126)" />
<use xlink:href="#f6_ct" transform="matrix(14,0,0,14,319.3,126)" />
<use xlink:href="#f6_be" transform="matrix(14,0,0,14,330.6,126)" />
<use xlink:href="#f6_c1" transform="matrix(14,0,0,14,344.6,126)" />
<use xlink:href="#f6_bo" transform="matrix(14,0,0,14,352.9,126)" />
<use xlink:href="#f6_d8" transform="matrix(14,0,0,14,367.3,126)" />
<use xlink:href="#f6_dj" transform="matrix(14,0,0,14,371.6,126.9)" />
<use xlink:href="#f6_bz" transform="matrix(14,0,0,14,372.9,126)" />
<use xlink:href="#f6_ct" transform="matrix(14,0,0,14,386.3,126)" />
<use xlink:href="#f6_dj" transform="matrix(14,0,0,14,386.5,126.5)" />
<use xlink:href="#f6_bs" transform="matrix(14,0,0,14,397.6,126)" />
<use xlink:href="#f6_c1" transform="matrix(14,0,0,14,411.6,126)" />
<use xlink:href="#f6_bp" transform="matrix(14,0,0,14,419.9,126)" />
<use xlink:href="#f6_ct" transform="matrix(14,0,0,14,432.3,126)" />
<use xlink:href="#f6_am" transform="matrix(14,0,0,14,198.5,160.4)" />
<use xlink:href="#f6_j5" transform="matrix(14,0,0,14,220,160.4)" />
<use xlink:href="#f6_cw" transform="matrix(14,0,0,14,234,161.2)" />
<use xlink:href="#f6_c1" transform="matrix(14,0,0,14,233.5,160.4)" />
<use xlink:href="#f6_bp" transform="matrix(14,0,0,14,247.6,160.4)" />
<use xlink:href="#f6_cw" transform="matrix(14,0,0,14,260.4,160.3)" />
<use xlink:href="#f6_bz" transform="matrix(14,0,0,14,259.9,160.4)" />
<use xlink:href="#f6_cb" transform="matrix(14,0,0,14,278.9,160.4)" />
<use xlink:href="#f6_dj" transform="matrix(14,0,0,14,287.4,160.8)" />
<use xlink:href="#f6_bb" transform="matrix(14,0,0,14,293.7,160.4)" />
<use xlink:href="#f6_b9" transform="matrix(14,0,0,14,312,160.4)" />
<use xlink:href="#f6_c1" transform="matrix(14,0,0,14,327.5,160.4)" />
<use xlink:href="#f6_bp" transform="matrix(14,0,0,14,335.9,160.4)" />
<use xlink:href="#f6_ct" transform="matrix(14,0,0,14,348.2,160.4)" />
<use xlink:href="#f6_c7" transform="matrix(14,0,0,14,359.5,160.4)" />
<use xlink:href="#f6_ct" transform="matrix(14,0,0,14,371.6,160.4)" />
<use xlink:href="#f6_bp" transform="matrix(14,0,0,14,377.2,160.4)" />
<use xlink:href="#f6_c3" transform="matrix(14,0,0,14,389.5,160.4)" />
<use xlink:href="#f6_bm" transform="matrix(14,0,0,14,404.2,160.4)" />
<use xlink:href="#f6_cv" transform="matrix(14,0,0,14,416.9,160.4)" />
<use xlink:href="#f6_br" transform="matrix(14,0,0,14,204.3,194.8)" />
<use xlink:href="#f6_c8" transform="matrix(14,0,0,14,215.9,194.8)" />
<use xlink:href="#f6_dr" transform="matrix(14,0,0,14,232.2,194.8)" />
<use xlink:href="#f6_bt" transform="matrix(14,0,0,14,231.8,194.8)" />
<use xlink:href="#f6_b9" transform="matrix(14,0,0,14,249.2,194.8)" />
<use xlink:href="#f6_c1" transform="matrix(14,0,0,14,264.7,194.8)" />
<use xlink:href="#f6_c7" transform="matrix(14,0,0,14,273.1,194.8)" />
<use xlink:href="#f6_ct" transform="matrix(14,0,0,14,285.1,194.8)" />
<use xlink:href="#f6_bt" transform="matrix(14,0,0,14,296.4,194.8)" />
<use xlink:href="#f6_d4" transform="matrix(14,0,0,14,308.3,194.8)" />
<use xlink:href="#f6_bp" transform="matrix(14,0,0,14,313.8,194.8)" />
<use xlink:href="#f6_c3" transform="matrix(14,0,0,14,326.1,194.8)" />
<use xlink:href="#f6_cb" transform="matrix(14,0,0,14,340.8,194.8)" />
<use xlink:href="#f6_d4" transform="matrix(14,0,0,14,355.8,194.8)" />
<use xlink:href="#f6_am" transform="matrix(14,0,0,14,361.4,194.8)" />
<use xlink:href="#f6_dj" transform="matrix(14,0,0,14,377.4,195.2)" />
<use xlink:href="#f6_ba" transform="matrix(14,0,0,14,382.8,194.8)" />
<use xlink:href="#f6_ch" transform="matrix(14,0,0,14,399.6,194.8)" />
<use xlink:href="#f6_cv" transform="matrix(14,0,0,14,412.2,194.8)" />
<use xlink:href="#f6_aq" transform="matrix(14,0,0,14,242.1,229.2)" />
<use xlink:href="#f6_dj" transform="matrix(14,0,0,14,249.6,229.6)" />
<use xlink:href="#f6_be" transform="matrix(14,0,0,14,257.8,229.2)" />
<use xlink:href="#f6_ct" transform="matrix(14,0,0,14,271.8,229.2)" />
<use xlink:href="#f6_al" transform="matrix(14,0,0,14,283.1,229.2)" />
<use xlink:href="#f6_lq" transform="matrix(14,0,0,14,298.9,229.2)" />
<use xlink:href="#f6_bx" transform="matrix(14,0,0,14,307.1,229.2)" />
<use xlink:href="#f6_c1" transform="matrix(14,0,0,14,319.4,229.2)" />
<use xlink:href="#f6_bq" transform="matrix(14,0,0,14,333.4,229.2)" />
<use xlink:href="#f6_cv" transform="matrix(14,0,0,14,346.6,229.2)" />
<use xlink:href="#f6_pc" transform="matrix(14,0,0,14,352.2,229.2)" />
<use xlink:href="#f6_pc" transform="matrix(14,0,0,14,356.5,229.2)" />
<use xlink:href="#f6_pc" transform="matrix(14,0,0,14,360.8,229.2)" />
<use xlink:href="#f6_pc" transform="matrix(14,0,0,14,365.1,229.2)" />
<use xlink:href="#f6_pc" transform="matrix(14,0,0,14,369.3,229.2)" />
<use xlink:href="#f6_pc" transform="matrix(14,0,0,14,373.6,229.2)" />
<use xlink:href="#f7_4r" transform="matrix(9,0,0,9,290.2,795.2)" />
<use xlink:href="#f8_m" transform="matrix(9,0,0,9,303,795.2)" />
<use xlink:href="#f8_m" transform="matrix(9,0,0,9,310.7,795.2)" />
<use xlink:href="#f7_4r" transform="matrix(9,0,0,9,321.3,795.2)" />
</g>
</g>
<image preserveAspectRatio="none" x="22" y="801" width="581" height="86" xlink:href="img/1.png"/>
<image preserveAspectRatio="none" x="202" y="14" width="217" height="26" xlink:href="img/2.png"/>
<defs>
<path d="M823,-49L733,8V339H445V191L371,160c0,0,-56,36,-120,105c0,0,-63,70,-89,131l41,59H313V735c0,0,0,99,-55,140c0,0,-3,1,-8,1c-16,0,-48,-3,-71,-23c0,0,-31,-26,-31,-66c0,0,0,-69,81,-113L189,620C189,620,31,720,31,828c0,0,0,61,45,99c0,0,46,37,109,37c0,0,96,0,173,-86c0,0,76,-87,79,-194V455H733V822H556l-46,76l14,31H998l45,-76l-13,-31H794l66,-58V-39L823,-49Z"
id="f6_by"
transform="scale(0.001,-0.001)"/>

<path d="M228,-49L138,8V822H0l-45,76l14,31H134c0,0,-85,93,-85,192c0,0,0,124,129,195c0,0,129,71,364,71c0,0,285,0,647,-97c0,0,363,-97,692,-271l-42,-50c0,0,-313,137,-644,221c0,0,-332,84,-595,84c0,0,-198,0,-314,-55c0,0,-115,-55,-115,-163c0,0,0,-60,44,-127H402l46,-76L434,822H199l65,-58V-39L228,-49Z"
id="f6_o0"
transform="scale(0.001,-0.001)"/>

<path d="M283,260c0,0,122,0,209,113V513c0,0,-90,51,-160,51c0,0,-80,0,-129,-50c0,0,-49,-50,-49,-118c0,0,0,-60,35,-110c0,0,45,-26,94,-26ZM582,-49L492,8V211c0,0,-63,-54,-141,-54c0,0,-113,0,-214,92c0,0,-102,92,-102,206c0,0,0,93,69,157c0,0,69,63,163,63c0,0,34,0,66,-9L492,590V822H0l-45,76l14,31H909l46,-76L941,822H553l66,-58V521c0,0,93,104,192,104c0,0,63,0,120,-42c0,0,57,-42,82,-106L964,431l-5,9c0,0,-38,72,-110,72c0,0,-51,0,-105,-41c0,0,-53,-42,-125,-129V-39L582,-49Z"
id="f6_l1"
transform="scale(0.001,-0.001)"/>

<path d="M347,-57C347,-57,66,211,66,394c0,0,0,98,74,164c0,0,74,65,225,65H616V822H0l-45,76l14,31H880l46,-76L912,822H677l66,-58V-39L706,-49L616,8V500H428c0,0,-239,0,-239,-161c0,0,0,-136,214,-343L347,-57Z"
id="f6_bp"
transform="scale(0.001,-0.001)"/>

<path d="M663,-49L573,8V445H299V280L226,251c0,0,-105,99,-162,238l63,72H573V822H0l-45,76l14,31H837l46,-76L869,822H634l66,-58V-39L663,-49Z"
id="f6_bt"
transform="scale(0.001,-0.001)"/>

<path d="M-214,863l-199,281c0,0,-70,92,-157,92c0,0,-69,0,-159,-58l-72,118c0,0,89,73,180,73c0,0,141,0,258,-170L-155,901l-59,-38Z"
id="f6_d4"
transform="scale(0.001,-0.001)"/>

<path d="M228,-49L138,8V822H0l-45,76l14,31H402l46,-76L434,822H199l65,-58V-39L228,-49Z"
id="f6_ct"
transform="scale(0.001,-0.001)"/>

<path d="M325,240c0,0,77,0,154,35c0,0,77,35,120,99V500c0,0,-118,73,-222,73c0,0,-97,0,-151,-54c0,0,-53,-53,-53,-128c0,0,0,-73,49,-125c0,0,38,-26,103,-26ZM689,-49L599,8V199c0,0,-73,-65,-179,-65c0,0,-134,0,-252,96c0,0,-118,95,-118,221c0,0,0,102,78,171c0,0,78,69,190,69c0,0,38,0,75,-10L599,582V822H0l-45,76l14,31H863l46,-76L895,822H660l66,-58V-39L689,-49Z"
id="f6_c7"
transform="scale(0.001,-0.001)"/>

<path d="M768,-49L678,8V202c0,0,-73,-58,-172,-58c0,0,-123,0,-240,94c0,0,-118,94,-179,237l20,55c0,0,134,12,215,70c0,0,81,57,81,141c0,0,0,90,-67,134l-26,3c0,0,-46,0,-74,-29c0,0,-28,-30,-28,-68c0,0,0,-55,82,-109L252,620C252,620,93,720,93,820c0,0,0,65,47,104c0,0,46,40,114,40c0,0,99,0,179,-83c0,0,80,-83,82,-197c0,0,0,-93,-79,-165c0,0,-78,-73,-199,-97c0,0,29,-104,88,-158c0,0,42,-16,92,-16c0,0,78,0,151,38c0,0,74,38,110,111V822H553l-46,76l14,31H943l45,-76L975,822H739l66,-58V-39L768,-49Z"
id="f6_bq"
transform="scale(0.001,-0.001)"/>

<path d="M228,-49L138,8V822H0l-45,76l14,31H138c0,0,-109,342,-284,342c0,0,-62,0,-102,-40c0,0,-40,-39,-40,-93c0,0,0,-61,51,-134l-42,-32c0,0,-128,113,-128,226c0,0,0,79,60,136c0,0,61,56,154,56c0,0,137,0,249,-125c0,0,112,-125,169,-336H402l46,-76L434,822H199l65,-58V-39L228,-49Z"
id="f6_cv"
transform="scale(0.001,-0.001)"/>

<path d="M689,445V822H286l65,-58l8,-319ZM779,-49L689,8V328H370V180L296,150c0,0,-56,35,-120,104c0,0,-63,70,-89,131l41,60H238L223,822H0l-45,76l14,31H953l46,-76L985,822H750l66,-58V-39L779,-49Z"
id="f6_bz"
transform="scale(0.001,-0.001)"/>

<path d="M283,260c0,0,122,0,209,113V513c0,0,-90,51,-160,51c0,0,-80,0,-129,-50c0,0,-49,-50,-49,-118c0,0,0,-60,35,-110c0,0,45,-26,94,-26ZM582,-49L492,8V211c0,0,-63,-54,-141,-54c0,0,-113,0,-213,92c0,0,-100,92,-100,205c0,0,0,93,69,157c0,0,69,64,162,64c0,0,32,0,64,-9L492,590V822H0l-45,76l14,31H1108l45,-76l-13,-31H553l66,-58V524c0,0,91,89,192,89c0,0,98,0,171,-79c0,0,72,-79,72,-186c0,0,0,-178,-224,-330L736,124c0,0,219,153,219,269c0,0,0,44,-26,75c0,0,-26,32,-81,32c0,0,-109,0,-229,-155V-39L582,-49Z"
id="f6_b9"
transform="scale(0.001,-0.001)"/>

<path d="M527,-71L52,414l34,92H277c0,0,12,32,12,72V822H0l-45,76l14,31H599l46,-76L631,822H350l66,-55V564c0,0,0,-96,-152,-248L610,34L611,8L527,-71Z"
id="f6_c1"
transform="scale(0.001,-0.001)"/>

<path d="M527,-71L52,414l34,92H277c0,0,12,32,12,72V822H0l-45,76l14,31H654l46,-76L686,822H350l66,-55V564c0,0,0,-43,-25,-89H782L798,370H315L264,316L610,34L611,8L527,-71Z"
id="f6_m1"
transform="scale(0.001,-0.001)"/>

<path d="M959,-49L869,8V367c0,0,-32,-13,-64,-13c0,0,-50,0,-110,25c0,0,23,-52,23,-109c0,0,0,-103,-70,-170c0,0,-70,-66,-182,-66c0,0,-110,0,-222,82c0,0,-111,83,-213,293l68,42c0,0,72,-155,152,-231c0,0,81,-76,178,-76c0,0,83,0,131,49c0,0,48,48,48,117c0,0,0,54,-30,100c0,0,-31,47,-91,65L325,391L257,512c0,0,68,53,156,56c0,0,140,72,140,179c0,0,0,69,-52,99c0,0,-4,1,-11,1c-19,0,-66,-4,-123,-30c0,0,-78,-35,-142,-96L150,823c0,0,119,117,253,117c0,0,98,0,175,-71c0,0,77,-70,77,-159c0,0,0,-103,-94,-180c0,0,39,-23,73,-56c0,0,52,-22,109,-22c0,0,77,0,126,38V822H727l-46,76l14,31h439l45,-76l-13,-31H930l66,-58V-39L959,-49Z"
id="f6_al"
transform="scale(0.001,-0.001)"/>

<path d="M527,-71L52,414l34,92H277c0,0,12,32,12,72V822H0l-45,76l14,31H940l45,-76L972,822H350l66,-55V553c0,0,24,52,77,83c0,0,52,30,112,30c0,0,87,0,171,-76c0,0,84,-75,222,-304L938,244L828,411c0,0,-95,134,-195,134c0,0,-63,0,-100,-35c0,0,-36,-36,-36,-87c0,0,0,-50,42,-87l152,99L755,315c0,0,-71,-61,-148,-61c0,0,-80,0,-146,66c0,0,-65,67,-65,164c0,0,-34,-70,-132,-168L610,34L611,8L527,-71Z"
id="f6_n1"
transform="scale(0.001,-0.001)"/>

<path d="M825,-49L735,8V217c0,0,-86,-72,-197,-72c0,0,-130,0,-238,91c0,0,-107,91,-107,204c0,0,0,55,27,105H55L12,616l14,30H574l46,-76L607,539H396c0,0,-78,-49,-78,-162c0,0,0,-70,40,-111c0,0,39,-15,94,-15c0,0,84,0,163,41c0,0,79,41,120,121V822H0l-45,76l14,31H999l46,-76l-14,-31H796l66,-58V-39L825,-49Z"
id="f6_be"
transform="scale(0.001,-0.001)"/>

<path d="M342,324c0,0,45,0,75,34c0,0,31,33,31,100V822H165l66,-58V390c0,0,32,-66,111,-66ZM853,-49L762,8V822H509l65,-58V455c0,0,0,-134,-51,-185c0,0,-52,-52,-127,-52c0,0,-98,0,-195,99c0,0,-97,99,-97,209V822H0l-45,76l14,31H1027l46,-76l-14,-31H823l66,-58V-39L853,-49Z"
id="f6_bo"
transform="scale(0.001,-0.001)"/>

<path d="M228,-49L138,8V822H0l-45,76l14,31H119L-33,1144c0,0,-70,92,-157,92c0,0,-69,0,-159,-58l-72,118c0,0,89,73,181,73c0,0,140,0,257,-170L205,929H402l46,-76L434,822H199l65,-58V-39L228,-49Z"
id="f6_d8"
transform="scale(0.001,-0.001)"/>

<path d="M0,1062c0,0,-26,11,-60,36c0,0,-34,26,-51,49c0,0,39,81,91,110c0,0,60,-23,106,-85c0,0,-28,-70,-86,-110Z"
id="f6_dj"
transform="scale(0.001,-0.001)"/>

<path d="M827,-49L736,8V205c0,0,-84,-84,-209,-84c0,0,-130,0,-237,91c0,0,-108,92,-108,196c0,0,0,79,61,137C243,545,66,672,66,791c0,0,0,75,52,124c0,0,53,49,134,49c0,0,164,0,260,-237L451,694c0,0,-55,114,-119,163l-31,5c0,0,-44,0,-77,-32c0,0,-33,-31,-33,-78c0,0,0,-86,113,-165c0,0,60,27,133,27l67,-4l75,-89L564,490l-51,7H493c0,0,-90,0,-142,-43c0,0,-52,-43,-52,-104c0,0,0,-60,51,-109c0,0,33,-16,84,-16c0,0,89,0,177,47c0,0,89,47,125,137V822H567l-46,76l14,31h466l46,-76l-14,-31H798l65,-58V-39L827,-49Z"
id="f6_bs"
transform="scale(0.001,-0.001)"/>

<path d="M959,-49L869,8V367c0,0,-32,-13,-64,-13c0,0,-50,0,-110,25c0,0,23,-52,23,-109c0,0,0,-103,-70,-170c0,0,-70,-66,-182,-66c0,0,-110,0,-222,82c0,0,-111,83,-213,293l68,42c0,0,72,-155,152,-231c0,0,81,-76,178,-76c0,0,83,0,131,49c0,0,48,48,48,117c0,0,0,54,-30,100c0,0,-31,47,-91,65L325,391L257,512c0,0,68,53,156,56c0,0,140,72,140,179c0,0,0,69,-52,99c0,0,-4,1,-11,1c-19,0,-66,-4,-123,-30c0,0,-78,-35,-142,-96L150,823c0,0,119,117,253,117c0,0,98,0,175,-71c0,0,77,-70,77,-159c0,0,0,-103,-94,-180c0,0,39,-23,73,-56c0,0,52,-22,109,-22c0,0,77,0,126,38V822H727l-46,76l14,31h840l46,-76l-13,-31H1332l66,-58V-39l-37,-10L1271,8V822H930l66,-58V-39L959,-49Z"
id="f6_am"
transform="scale(0.001,-0.001)"/>

<path d="M438,-57c0,0,-264,248,-264,428c0,0,0,74,43,130H57L11,578l13,30H700V822H0l-45,76l14,31H964l46,-76L996,822H761l66,-58V-39L790,-49L700,8V498H519c0,0,-229,0,-229,-159c0,0,0,-145,205,-343L438,-57Z"
id="f6_j5"
transform="scale(0.001,-0.001)"/>

<path d="M-234,-413c0,0,-210,0,-488,322l54,49c0,0,119,-128,209,-193c0,0,90,-65,177,-65c0,0,72,0,113,40c0,0,42,39,42,91c0,0,0,75,-78,106L-323,-181l-90,98c0,0,63,95,167,95c0,0,90,0,155,-69c0,0,66,-70,66,-164c0,0,0,-85,-60,-139c0,0,-61,-53,-149,-53Z"
id="f6_cw"
transform="scale(0.001,-0.001)"/>

<path d="M799,475V822H350l66,-55V564c0,0,0,-43,-25,-89ZM527,-71L52,414l34,92H277c0,0,12,32,12,72V822H0l-45,76l14,31H1063l46,-76l-14,-31H860l66,-58V-39L889,-49L799,8V370H315L264,316L610,34L611,8L527,-71Z"
id="f6_cb"
transform="scale(0.001,-0.001)"/>

<path d="M727,-49L637,8V822H278l66,-58V226L270,196c0,0,-64,36,-122,98c0,0,-58,62,-79,122l43,59H217V822H0l-45,76l14,31H901l46,-76L933,822H698l66,-58V-39L727,-49Z"
id="f6_bb"
transform="scale(0.001,-0.001)"/>

<path d="M413,-59C413,-59,53,193,53,416c0,0,0,97,66,164c0,0,66,66,156,66c0,0,61,0,110,-30L487,507c0,0,92,126,257,126l35,-2V822H0l-45,76l14,31H1043l46,-76l-13,-31H840l66,-58V-39L869,-49L779,8V547c0,0,-101,-5,-165,-90c0,0,-64,-86,-70,-222L507,225l-90,73c0,0,5,79,35,151c0,0,-59,66,-128,66c0,0,-57,0,-100,-38c0,0,-44,-39,-44,-109c0,0,0,-165,284,-360L413,-59Z"
id="f6_c3"
transform="scale(0.001,-0.001)"/>

<path d="M548,-57c0,0,-122,0,-243,81c0,0,-122,81,-252,280l57,41C110,345,283,64,498,64c0,0,92,0,153,49c0,0,61,49,61,121c0,0,0,46,-28,84L440,237c0,0,-73,11,-139,55c0,0,-66,44,-105,105c0,0,-40,61,-40,119c0,0,0,72,62,125c0,0,62,53,184,53H625V822H0l-45,76l14,31H906l46,-76L938,822H678l66,-58V562H431c0,0,-164,0,-164,-99c0,0,0,-55,57,-102l261,82c0,0,104,-21,172,-98c0,0,68,-78,68,-171c0,0,0,-99,-76,-166c0,0,-77,-65,-201,-65Z"
id="f6_bm"
transform="scale(0.001,-0.001)"/>

<path d="M675,-274L602,21C602,21,550,3,498,3C498,3,347,3,210,118C210,118,73,232,73,373c0,0,0,113,84,184c0,0,84,71,222,72H524V822H0l-45,76l14,31H834l46,-76L866,822H585l66,-58V504l-3,2l3,-3H408c0,0,-95,0,-154,-53c0,0,-58,-53,-58,-132c0,0,0,-49,27,-100c0,0,28,-50,83,-84c0,0,44,-15,96,-15c0,0,91,0,160,46L535,303l101,48L773,188c0,0,-8,-28,-34,-66c0,0,-27,-38,-62,-64L813,-221L675,-274Z"
id="f6_br"
transform="scale(0.001,-0.001)"/>

<path d="M513,460c0,0,61,81,61,179c0,0,0,87,-45,143c0,0,-45,57,-116,57c0,0,-63,0,-102,-43c0,0,-39,-43,-39,-110c0,0,0,-90,68,-151c0,0,68,-61,173,-75ZM581,-83L278,167l-41,-4c0,0,-99,0,-130,37l47,168l51,12l78,-79c0,0,110,40,183,105c0,0,-141,23,-231,107c0,0,-90,84,-90,193c0,0,0,69,37,116H0l-45,76l14,31H1134l45,-76l-13,-31H930l66,-58V-39L959,-49L869,8V822H588c0,0,51,-44,75,-109c0,0,25,-64,25,-122c0,0,0,-105,-81,-213c0,0,-80,-108,-240,-176L658,18l2,-25L581,-83Z"
id="f6_c8"
transform="scale(0.001,-0.001)"/>

<path d="M-239,897c0,0,-82,61,-132,137c0,0,-50,75,-50,150c0,0,0,78,52,133c0,0,52,55,141,55c0,0,98,0,176,-64l-23,-69c0,0,-52,32,-104,32c0,0,-57,0,-95,-36c0,0,-38,-36,-38,-95c0,0,0,-115,117,-217l-44,-26Z"
id="f6_dr"
transform="scale(0.001,-0.001)"/>

<path d="M761,293c0,0,127,0,169,94V532c0,0,-68,46,-145,46c0,0,-76,0,-121,-46c0,0,-45,-45,-45,-107c0,0,0,-61,44,-110c0,0,47,-22,98,-22ZM657,67c0,0,166,0,273,107v55c0,0,-45,-36,-111,-36c0,0,-110,0,-207,90c0,0,-97,90,-97,194c0,0,0,85,66,148c0,0,65,63,155,63l48,-5L930,603V822H376l62,-55V579c0,0,0,-60,-23,-102c0,0,-24,-42,-148,-190c0,0,66,-104,175,-162c0,0,108,-58,215,-58ZM1021,-49L930,8V53c0,0,-105,-83,-264,-83c0,0,-177,0,-339,128C327,98,165,226,90,429l34,77H296c0,0,19,39,19,102l-2,214H0l-45,76l14,31H1195l46,-76l-14,-31H992l65,-58V-39l-36,-10Z"
id="f6_ba"
transform="scale(0.001,-0.001)"/>

<path d="M547,-285c0,0,-66,25,-102,80c0,0,32,69,82,101c0,0,55,-20,99,-80c0,0,-26,-67,-79,-101Zm1,228c0,0,-122,0,-243,81c0,0,-122,81,-252,280l57,41C110,345,283,64,498,64c0,0,92,0,153,49c0,0,61,49,61,121c0,0,0,46,-28,84L440,237c0,0,-73,11,-139,55c0,0,-66,44,-105,105c0,0,-40,61,-40,119c0,0,0,72,62,125c0,0,62,53,184,53H625V822H0l-45,76l14,31H906l46,-76L938,822H678l66,-58V562H431c0,0,-164,0,-164,-99c0,0,0,-55,57,-102l261,82c0,0,104,-21,172,-98c0,0,68,-78,68,-171c0,0,0,-99,-76,-166c0,0,-77,-65,-201,-65Z"
id="f6_ch"
transform="scale(0.001,-0.001)"/>

<path d="M471,-26c0,0,-259,0,-448,396l70,43C93,413,240,98,442,98c0,0,79,0,132,46c0,0,54,45,54,120c0,0,0,61,-38,116c0,0,-38,54,-107,72L322,370L255,492c0,0,66,53,156,56c0,0,128,51,128,153c0,0,0,77,-65,121H0l-45,76l14,31H1123l46,-76l-14,-31H578c0,0,76,-66,76,-157c0,0,0,-95,-87,-156c0,0,52,-29,84,-64c0,0,131,134,243,134c0,0,93,0,158,-70c0,0,65,-71,65,-167c0,0,0,-142,-177,-272L851,170c0,0,173,129,173,230c0,0,0,34,-23,57c0,0,-23,23,-63,23c0,0,-104,0,-215,-141c0,0,23,-55,23,-111c0,0,0,-109,-78,-182c0,0,-78,-72,-197,-72Z"
id="f6_aq"
transform="scale(0.001,-0.001)"/>

<path d="M266,150c0,0,-57,35,-120,104c0,0,-63,70,-89,131l41,60H211L194,822H0l-45,76l14,31H587l46,-76L619,822H255l66,-58l7,-319H688L721,328H339V180L266,150Z"
id="f6_lq"
transform="scale(0.001,-0.001)"/>

<path d="M348,229c0,0,57,0,106,17L263,559c0,0,-95,-50,-95,-162c0,0,0,-75,52,-136c0,0,49,-32,128,-32Zm170,48c0,0,61,38,96,91V504c0,0,-131,80,-244,80l-35,-2L518,277ZM704,-49L614,8V193c0,0,-84,-65,-192,-65c0,0,-139,0,-255,98c0,0,-115,98,-115,226c0,0,0,106,77,175c0,0,77,70,189,70c0,0,38,0,75,-9L614,578V822H0l-45,76l14,31H878l46,-76L911,822H675l66,-58V-39L704,-49Z"
id="f6_bx"
transform="scale(0.001,-0.001)"/>

<path d="M226,-49c0,0,-66,24,-102,78c0,0,32,69,82,101c0,0,55,-20,100,-80c0,0,-26,-66,-80,-99Z"
id="f6_pc"
transform="scale(0.001,-0.001)"/>

<path d="M725,307c0,0,-95,0,-218,78c0,0,-123,78,-188,78c0,0,-54,0,-95,-34c0,0,-41,-34,-73,-100L93,362c0,0,38,88,101,146c0,0,63,59,148,59c0,0,90,0,214,-78c0,0,124,-79,188,-79c0,0,63,0,106,34c0,0,42,33,85,104l60,-40c0,0,-32,-66,-101,-134c0,0,-70,-67,-169,-67Z"
id="f7_4r"
transform="scale(0.001,-0.001)"/>

<path d="M46,0c0,0,-2,48,16,93c0,0,27,74,88,146c0,0,61,71,176,165c0,0,178,146,241,232c0,0,63,85,63,161c0,0,0,80,-57,135c0,0,-58,55,-149,55c0,0,-98,0,-156,-59c0,0,-58,-58,-59,-160L71,782c0,0,15,154,107,235c0,0,93,81,249,81c0,0,157,0,249,-87c0,0,92,-88,92,-217c0,0,0,-65,-27,-129c0,0,-27,-63,-89,-133c0,0,-62,-70,-207,-193C445,339,324,238,290,202c0,0,-35,-36,-57,-73H770V0Z"
id="f8_m"
transform="scale(0.001,-0.001)"/>


</defs>
</svg>