<?xml version="1.0" encoding="UTF-8" standalone="no"?>
<!DOCTYPE svg PUBLIC "-//W3C//DTD SVG 1.1//EN"
"http://www.w3.org/Graphics/SVG/1.1/DTD/svg11.dtd">
<svg viewBox="0 0 641 910" version="1.1" xmlns="http://www.w3.org/2000/svg" xmlns:xlink="http://www.w3.org/1999/xlink">
<defs>
<clipPath id="c0_19"><path d="M0,909.8V0H641.7V909.8Z"/></clipPath>
<clipPath id="c1_19"><path d="M0,908.6V0H641.7V908.6Z"/></clipPath>
<style type="text/css"><![CDATA[
.g0_19{
fill: #FFFFFF;
}
.g1_19{
}
]]></style>
</defs>
<path d="M0,0H641.7V909.8H0V0Z" class="g0_19"/>
<path d="M0,0H641.7V909.8H0V0Z" class="g0_19"/>
<g clip-path="url(#c0_19)">
<path d="M0,-10917.4H641.7V95528.1H0V-10917.4Z" class="g0_19"/>
</g>
<path d="M0,0H641.7V908.6H0V0Z" class="g0_19"/>
<path d="M19.5,60.7H602.7v1.2H19.5V60.7Z" class="g1_19"/>
<g clip-path="url(#c1_19)">
<path d="M0,61.9H641.7V909.8H0V61.9Z" class="g0_19"/>
<g fill="#000000" >
<use xlink:href="#f5_bv" transform="matrix(14,0,0,14,240.9,96.3)" />
<use xlink:href="#f5_ct" transform="matrix(14,0,0,14,254.1,96.3)" />
<use xlink:href="#f5_c1" transform="matrix(14,0,0,14,260.5,96.3)" />
<use xlink:href="#f5_cb" transform="matrix(14,0,0,14,270.7,96.3)" />
<use xlink:href="#f5_ll" transform="matrix(14,0,0,14,293.1,96.3)" />
<use xlink:href="#f5_c0" transform="matrix(14,0,0,14,300,96.3)" />
<use xlink:href="#f5_ct" transform="matrix(14,0,0,14,314,96.3)" />
<use xlink:href="#f5_c1" transform="matrix(14,0,0,14,320.5,96.3)" />
<use xlink:href="#f5_d8" transform="matrix(14,0,0,14,330.7,96.3)" />
<use xlink:href="#f5_c3" transform="matrix(14,0,0,14,342.8,96.3)" />
<use xlink:href="#f5_ct" transform="matrix(14,0,0,14,359.1,96.3)" />
<use xlink:href="#f5_bb" transform="matrix(14,0,0,14,365.6,96.3)" />
<use xlink:href="#f5_d4" transform="matrix(14,0,0,14,379.8,96.3)" />
<use xlink:href="#f6_bv" transform="matrix(14,0,0,14,175.6,154.7)" />
<use xlink:href="#f6_ct" transform="matrix(14,0,0,14,187.5,154.7)" />
<use xlink:href="#f6_c1" transform="matrix(14,0,0,14,193.1,154.7)" />
<use xlink:href="#f6_cb" transform="matrix(14,0,0,14,201.5,154.7)" />
<use xlink:href="#f6_ll" transform="matrix(14,0,0,14,222,154.7)" />
<use xlink:href="#f6_c0" transform="matrix(14,0,0,14,228.5,154.7)" />
<use xlink:href="#f6_ct" transform="matrix(14,0,0,14,241,154.7)" />
<use xlink:href="#f6_c1" transform="matrix(14,0,0,14,246.6,154.7)" />
<use xlink:href="#f6_d8" transform="matrix(14,0,0,14,255,154.7)" />
<use xlink:href="#f6_c3" transform="matrix(14,0,0,14,266.3,154.7)" />
<use xlink:href="#f6_ct" transform="matrix(14,0,0,14,281,154.7)" />
<use xlink:href="#f6_bb" transform="matrix(14,0,0,14,286.6,154.7)" />
<use xlink:href="#f6_d4" transform="matrix(14,0,0,14,299.4,154.7)" />
<use xlink:href="#f6_bt" transform="matrix(14,0,0,14,304.9,154.7)" />
<use xlink:href="#f6_ct" transform="matrix(14,0,0,14,316.6,154.7)" />
<use xlink:href="#f6_b9" transform="matrix(14,0,0,14,322.2,154.7)" />
<use xlink:href="#f6_d8" transform="matrix(14,0,0,14,337.7,154.7)" />
<use xlink:href="#f6_ch" transform="matrix(14,0,0,14,343.4,154.7)" />
<use xlink:href="#f6_ct" transform="matrix(14,0,0,14,356,154.7)" />
<use xlink:href="#f6_ll" transform="matrix(14,0,0,14,367.3,154.7)" />
<use xlink:href="#f6_c0" transform="matrix(14,0,0,14,373.8,154.7)" />
<use xlink:href="#f6_ct" transform="matrix(14,0,0,14,386.3,154.7)" />
<use xlink:href="#f6_c1" transform="matrix(14,0,0,14,391.9,154.7)" />
<use xlink:href="#f6_d8" transform="matrix(14,0,0,14,400.3,154.7)" />
<use xlink:href="#f6_c3" transform="matrix(14,0,0,14,411.6,154.7)" />
<use xlink:href="#f6_ct" transform="matrix(14,0,0,14,426.3,154.7)" />
<use xlink:href="#f6_bb" transform="matrix(14,0,0,14,431.9,154.7)" />
<use xlink:href="#f6_d4" transform="matrix(14,0,0,14,444.7,154.7)" />
<use xlink:href="#f6_bq" transform="matrix(14,0,0,14,112.6,179.9)" />
<use xlink:href="#f6_ct" transform="matrix(14,0,0,14,125.8,179.9)" />
<use xlink:href="#f6_c1" transform="matrix(14,0,0,14,131.4,179.9)" />
<use xlink:href="#f6_cv" transform="matrix(14,0,0,14,139.8,179.9)" />
<use xlink:href="#f6_bx" transform="matrix(14,0,0,14,151.1,179.9)" />
<use xlink:href="#f6_b9" transform="matrix(14,0,0,14,163.4,179.9)" />
<use xlink:href="#f6_c3" transform="matrix(14,0,0,14,178.9,179.9)" />
<use xlink:href="#f6_bm" transform="matrix(14,0,0,14,193.6,179.9)" />
<use xlink:href="#f6_cv" transform="matrix(14,0,0,14,206.2,179.9)" />
<use xlink:href="#f6_bh" transform="matrix(14,0,0,14,217.5,179.9)" />
<use xlink:href="#f6_ct" transform="matrix(14,0,0,14,234.3,179.9)" />
<use xlink:href="#f6_ch" transform="matrix(14,0,0,14,239.9,179.9)" />
<use xlink:href="#f6_cv" transform="matrix(14,0,0,14,252.6,179.9)" />
<use xlink:href="#f6_bz" transform="matrix(14,0,0,14,263.9,179.9)" />
<use xlink:href="#f6_oz" transform="matrix(14,0,0,14,277.4,179.9)" />
<use xlink:href="#f6_bb" transform="matrix(14,0,0,14,282.9,179.9)" />
<use xlink:href="#f6_d4" transform="matrix(14,0,0,14,295.6,179.9)" />
<use xlink:href="#f6_c3" transform="matrix(14,0,0,14,295.5,179.9)" />
<use xlink:href="#f6_d8" transform="matrix(14,0,0,14,310.2,179.9)" />
<use xlink:href="#f6_by" transform="matrix(14,0,0,14,321.5,179.9)" />
<use xlink:href="#f6_cx" transform="matrix(14,0,0,14,335.4,179.8)" />
<use xlink:href="#f6_ls" transform="matrix(14,0,0,14,335.5,179.9)" />
<use xlink:href="#f6_c0" transform="matrix(14,0,0,14,345.4,179.9)" />
<use xlink:href="#f6_d8" transform="matrix(14,0,0,14,357.9,179.9)" />
<use xlink:href="#f6_bz" transform="matrix(14,0,0,14,369.2,179.9)" />
<use xlink:href="#f6_ct" transform="matrix(14,0,0,14,382.5,179.9)" />
<use xlink:href="#f6_c1" transform="matrix(14,0,0,14,388.2,179.9)" />
<use xlink:href="#f6_ct" transform="matrix(14,0,0,14,396.5,179.9)" />
<use xlink:href="#f6_bv" transform="matrix(14,0,0,14,407.8,179.9)" />
<use xlink:href="#f6_ct" transform="matrix(14,0,0,14,419.7,179.9)" />
<use xlink:href="#f6_c1" transform="matrix(14,0,0,14,425.3,179.9)" />
<use xlink:href="#f6_cb" transform="matrix(14,0,0,14,433.7,179.9)" />
<use xlink:href="#f6_bg" transform="matrix(14,0,0,14,454.2,179.9)" />
<use xlink:href="#f6_cv" transform="matrix(14,0,0,14,468.5,179.9)" />
<use xlink:href="#f6_pd" transform="matrix(14,0,0,14,479.8,179.9)" />
<use xlink:href="#f6_g" transform="matrix(14,0,0,14,487.3,179.9)" />
<use xlink:href="#f6_n8" transform="matrix(14,0,0,14,493.2,179.9)" />
<use xlink:href="#f6_h" transform="matrix(14,0,0,14,503.6,179.9)" />
<use xlink:href="#f6_bz" transform="matrix(14,0,0,14,218,205.1)" />
<use xlink:href="#f6_d5" transform="matrix(14,0,0,14,231.5,205.1)" />
<use xlink:href="#f6_bb" transform="matrix(14,0,0,14,237,205.1)" />
<use xlink:href="#f6_d4" transform="matrix(14,0,0,14,249.8,205.1)" />
<use xlink:href="#f6_c3" transform="matrix(14,0,0,14,249.6,205.1)" />
<use xlink:href="#f6_d8" transform="matrix(14,0,0,14,264.3,205.1)" />
<use xlink:href="#f6_b9" transform="matrix(14,0,0,14,275.6,205.1)" />
<use xlink:href="#f6_an" transform="matrix(14,0,0,14,291.1,205.1)" />
<use xlink:href="#f6_c0" transform="matrix(14,0,0,14,302.6,205.1)" />
<use xlink:href="#f6_ct" transform="matrix(14,0,0,14,315.2,205.1)" />
<use xlink:href="#f6_bv" transform="matrix(14,0,0,14,326.5,205.1)" />
<use xlink:href="#f6_ct" transform="matrix(14,0,0,14,338.3,205.1)" />
<use xlink:href="#f6_c7" transform="matrix(14,0,0,14,343.9,205.1)" />
<use xlink:href="#f6_c3" transform="matrix(14,0,0,14,356,205.1)" />
<use xlink:href="#f6_ct" transform="matrix(14,0,0,14,370.7,205.1)" />
<use xlink:href="#f6_pc" transform="matrix(14,0,0,14,382,205.1)" />
<use xlink:href="#f6_pc" transform="matrix(14,0,0,14,386.3,205.1)" />
<use xlink:href="#f6_pc" transform="matrix(14,0,0,14,390.6,205.1)" />
<use xlink:href="#f6_pc" transform="matrix(14,0,0,14,394.8,205.1)" />
<use xlink:href="#f6_pc" transform="matrix(14,0,0,14,399.1,205.1)" />
<use xlink:href="#f6_al" transform="matrix(14,0,0,14,158.4,255.5)" />
<use xlink:href="#f6_bx" transform="matrix(14,0,0,14,174.3,255.5)" />
<use xlink:href="#f6_bm" transform="matrix(14,0,0,14,192.2,255.5)" />
<use xlink:href="#f6_c1" transform="matrix(14,0,0,14,204.9,255.5)" />
<use xlink:href="#f6_c3" transform="matrix(14,0,0,14,219,255.5)" />
<use xlink:href="#f6_ct" transform="matrix(14,0,0,14,233.7,255.5)" />
<use xlink:href="#f6_bb" transform="matrix(14,0,0,14,239.3,255.5)" />
<use xlink:href="#f6_d4" transform="matrix(14,0,0,14,252,255.5)" />
<use xlink:href="#f6_bf" transform="matrix(14,0,0,14,257.6,255.5)" />
<use xlink:href="#f6_d4" transform="matrix(14,0,0,14,272,255.5)" />
<use xlink:href="#f6_bz" transform="matrix(14,0,0,14,279,255.5)" />
<use xlink:href="#f6_ct" transform="matrix(14,0,0,14,292.3,255.5)" />
<use xlink:href="#f6_bt" transform="matrix(14,0,0,14,297.9,255.5)" />
<use xlink:href="#f6_d4" transform="matrix(14,0,0,14,309.8,255.5)" />
<use xlink:href="#f6_bx" transform="matrix(14,0,0,14,315.3,255.5)" />
<use xlink:href="#f6_ct" transform="matrix(14,0,0,14,327.6,255.5)" />
<use xlink:href="#f6_c1" transform="matrix(14,0,0,14,333.2,255.5)" />
<use xlink:href="#f6_bx" transform="matrix(14,0,0,14,347.3,255.5)" />
<use xlink:href="#f6_ct" transform="matrix(14,0,0,14,359.5,255.5)" />
<use xlink:href="#f6_c1" transform="matrix(14,0,0,14,365.2,255.5)" />
<use xlink:href="#f6_bv" transform="matrix(14,0,0,14,379.2,255.5)" />
<use xlink:href="#f6_cw" transform="matrix(14,0,0,14,391.6,255.4)" />
<use xlink:href="#f6_b9" transform="matrix(14,0,0,14,391.1,255.5)" />
<use xlink:href="#f6_ct" transform="matrix(14,0,0,14,406.6,255.5)" />
<use xlink:href="#f6_n1" transform="matrix(14,0,0,14,412.2,255.5)" />
<use xlink:href="#f6_bq" transform="matrix(14,0,0,14,431,255.5)" />
<use xlink:href="#f6_ct" transform="matrix(14,0,0,14,444.2,255.5)" />
<use xlink:href="#f6_bt" transform="matrix(14,0,0,14,449.8,255.5)" />
<use xlink:href="#f6_d4" transform="matrix(14,0,0,14,461.7,255.5)" />
<use xlink:href="#f6_bq" transform="matrix(14,0,0,14,110.3,280.7)" />
<use xlink:href="#f6_ct" transform="matrix(14,0,0,14,123.5,280.7)" />
<use xlink:href="#f6_c1" transform="matrix(14,0,0,14,129.1,280.7)" />
<use xlink:href="#f6_ct" transform="matrix(14,0,0,14,137.5,280.7)" />
<use xlink:href="#f6_bv" transform="matrix(14,0,0,14,148.8,280.7)" />
<use xlink:href="#f6_c7" transform="matrix(14,0,0,14,160.6,280.7)" />
<use xlink:href="#f6_dr" transform="matrix(14,0,0,14,173.2,280.7)" />
<use xlink:href="#f6_bp" transform="matrix(14,0,0,14,172.7,280.7)" />
<use xlink:href="#f6_c1" transform="matrix(14,0,0,14,190.7,280.7)" />
<use xlink:href="#f6_cv" transform="matrix(14,0,0,14,199.1,280.7)" />
<use xlink:href="#f6_ba" transform="matrix(14,0,0,14,210.4,280.7)" />
<use xlink:href="#f6_cv" transform="matrix(14,0,0,14,227.1,280.7)" />
<use xlink:href="#f6_bt" transform="matrix(14,0,0,14,232.7,280.7)" />
<use xlink:href="#f6_d8" transform="matrix(14,0,0,14,244.4,280.7)" />
<use xlink:href="#f6_bz" transform="matrix(14,0,0,14,255.7,280.7)" />
<use xlink:href="#f6_d5" transform="matrix(14,0,0,14,269.2,280.7)" />
<use xlink:href="#f6_nu" transform="matrix(14,0,0,14,274.7,280.7)" />
<use xlink:href="#f6_ol" transform="matrix(14,0,0,14,291.7,280.4)" />
<use xlink:href="#f6_cb" transform="matrix(14,0,0,14,280.3,280.7)" />
<use xlink:href="#f6_cc" transform="matrix(14,0,0,14,295.2,280.7)" />
<use xlink:href="#f6_k" transform="matrix(14,0,0,14,306.8,280.7)" />
<use xlink:href="#f6_bs" transform="matrix(14,0,0,14,317.7,280.7)" />
<use xlink:href="#f6_bm" transform="matrix(14,0,0,14,331.7,280.7)" />
<use xlink:href="#f6_cx" transform="matrix(14,0,0,14,342.8,281.5)" />
<use xlink:href="#f6_b9" transform="matrix(14,0,0,14,344.4,280.7)" />
<use xlink:href="#f6_d4" transform="matrix(14,0,0,14,355.5,280.7)" />
<use xlink:href="#f6_lq" transform="matrix(14,0,0,14,365.5,280.7)" />
<use xlink:href="#f6_cc" transform="matrix(14,0,0,14,372.2,280.7)" />
<use xlink:href="#f6_ct" transform="matrix(14,0,0,14,383.8,280.7)" />
<use xlink:href="#f6_c1" transform="matrix(14,0,0,14,389.4,280.7)" />
<use xlink:href="#f6_ct" transform="matrix(14,0,0,14,397.8,280.7)" />
<use xlink:href="#f6_bv" transform="matrix(14,0,0,14,409.1,280.7)" />
<use xlink:href="#f6_ct" transform="matrix(14,0,0,14,421,280.7)" />
<use xlink:href="#f6_c1" transform="matrix(14,0,0,14,426.6,280.7)" />
<use xlink:href="#f6_cb" transform="matrix(14,0,0,14,435,280.7)" />
<use xlink:href="#f6_bg" transform="matrix(14,0,0,14,455.5,280.7)" />
<use xlink:href="#f6_cv" transform="matrix(14,0,0,14,469.8,280.7)" />
<use xlink:href="#f6_pd" transform="matrix(14,0,0,14,481.1,280.7)" />
<use xlink:href="#f6_g" transform="matrix(14,0,0,14,488.6,280.7)" />
<use xlink:href="#f6_n8" transform="matrix(14,0,0,14,494.5,280.7)" />
<use xlink:href="#f6_h" transform="matrix(14,0,0,14,504.9,280.7)" />
<use xlink:href="#f6_bz" transform="matrix(14,0,0,14,218,305.9)" />
<use xlink:href="#f6_d5" transform="matrix(14,0,0,14,231.5,305.9)" />
<use xlink:href="#f6_bb" transform="matrix(14,0,0,14,237,305.9)" />
<use xlink:href="#f6_d4" transform="matrix(14,0,0,14,249.8,305.9)" />
<use xlink:href="#f6_c3" transform="matrix(14,0,0,14,249.6,305.9)" />
<use xlink:href="#f6_d8" transform="matrix(14,0,0,14,264.3,305.9)" />
<use xlink:href="#f6_b9" transform="matrix(14,0,0,14,275.6,305.9)" />
<use xlink:href="#f6_an" transform="matrix(14,0,0,14,291.1,305.9)" />
<use xlink:href="#f6_c0" transform="matrix(14,0,0,14,302.6,305.9)" />
<use xlink:href="#f6_ct" transform="matrix(14,0,0,14,315.2,305.9)" />
<use xlink:href="#f6_bv" transform="matrix(14,0,0,14,326.5,305.9)" />
<use xlink:href="#f6_ct" transform="matrix(14,0,0,14,338.3,305.9)" />
<use xlink:href="#f6_c7" transform="matrix(14,0,0,14,343.9,305.9)" />
<use xlink:href="#f6_c3" transform="matrix(14,0,0,14,356,305.9)" />
<use xlink:href="#f6_ct" transform="matrix(14,0,0,14,370.7,305.9)" />
<use xlink:href="#f6_pc" transform="matrix(14,0,0,14,382,305.9)" />
<use xlink:href="#f6_pc" transform="matrix(14,0,0,14,386.3,305.9)" />
<use xlink:href="#f6_pc" transform="matrix(14,0,0,14,390.6,305.9)" />
<use xlink:href="#f6_pc" transform="matrix(14,0,0,14,394.8,305.9)" />
<use xlink:href="#f6_pc" transform="matrix(14,0,0,14,399.1,305.9)" />
<use xlink:href="#f6_bq" transform="matrix(14,0,0,14,149.3,356.4)" />
<use xlink:href="#f6_d4" transform="matrix(14,0,0,14,162.6,356.4)" />
<use xlink:href="#f6_c1" transform="matrix(14,0,0,14,168.1,356.4)" />
<use xlink:href="#f6_ct" transform="matrix(14,0,0,14,176.5,356.4)" />
<use xlink:href="#f6_bb" transform="matrix(14,0,0,14,182.1,356.4)" />
<use xlink:href="#f6_gk" transform="matrix(14,0,0,14,200.4,356.4)" />
<use xlink:href="#f6_d4" transform="matrix(14,0,0,14,211.9,356.4)" />
<use xlink:href="#f6_ca" transform="matrix(14,0,0,14,212.2,356.4)" />
<use xlink:href="#f6_bt" transform="matrix(14,0,0,14,230.1,356.4)" />
<use xlink:href="#f6_d4" transform="matrix(14,0,0,14,242,356.4)" />
<use xlink:href="#f6_j8" transform="matrix(14,0,0,14,247.5,356.4)" />
<use xlink:href="#f6_ct" transform="matrix(14,0,0,14,267.3,356.4)" />
<use xlink:href="#f6_l4" transform="matrix(14,0,0,14,272.9,356.4)" />
<use xlink:href="#f6_c0" transform="matrix(14,0,0,14,279.1,356.4)" />
<use xlink:href="#f6_ct" transform="matrix(14,0,0,14,291.7,356.4)" />
<use xlink:href="#f6_k" transform="matrix(14,0,0,14,297.3,356.4)" />
<use xlink:href="#f6_bz" transform="matrix(14,0,0,14,308.2,356.4)" />
<use xlink:href="#f6_d5" transform="matrix(14,0,0,14,321.6,356.4)" />
<use xlink:href="#f6_am" transform="matrix(14,0,0,14,327.2,356.4)" />
<use xlink:href="#f6_c7" transform="matrix(14,0,0,14,348.7,356.4)" />
<use xlink:href="#f6_ct" transform="matrix(14,0,0,14,360.7,356.4)" />
<use xlink:href="#f6_by" transform="matrix(14,0,0,14,372,356.4)" />
<use xlink:href="#f6_ct" transform="matrix(14,0,0,14,386,356.4)" />
<use xlink:href="#f6_l4" transform="matrix(14,0,0,14,391.6,356.4)" />
<use xlink:href="#f6_c0" transform="matrix(14,0,0,14,397.8,356.4)" />
<use xlink:href="#f6_ct" transform="matrix(14,0,0,14,410.4,356.4)" />
<use xlink:href="#f6_by" transform="matrix(14,0,0,14,421.6,356.4)" />
<use xlink:href="#f6_ct" transform="matrix(14,0,0,14,435.6,356.4)" />
<use xlink:href="#f6_l4" transform="matrix(14,0,0,14,441.2,356.4)" />
<use xlink:href="#f6_c0" transform="matrix(14,0,0,14,447.4,356.4)" />
<use xlink:href="#f6_ct" transform="matrix(14,0,0,14,460,356.4)" />
<use xlink:href="#f6_k" transform="matrix(14,0,0,14,465.6,356.4)" />
<use xlink:href="#f6_bq" transform="matrix(14,0,0,14,111.5,381.6)" />
<use xlink:href="#f6_ct" transform="matrix(14,0,0,14,124.6,381.6)" />
<use xlink:href="#f6_c1" transform="matrix(14,0,0,14,130.3,381.6)" />
<use xlink:href="#f6_ct" transform="matrix(14,0,0,14,138.6,381.6)" />
<use xlink:href="#f6_bv" transform="matrix(14,0,0,14,149.9,381.6)" />
<use xlink:href="#f6_c7" transform="matrix(14,0,0,14,161.8,381.6)" />
<use xlink:href="#f6_dr" transform="matrix(14,0,0,14,174.3,381.6)" />
<use xlink:href="#f6_bp" transform="matrix(14,0,0,14,173.9,381.6)" />
<use xlink:href="#f6_c1" transform="matrix(14,0,0,14,191.8,381.6)" />
<use xlink:href="#f6_cv" transform="matrix(14,0,0,14,200.2,381.6)" />
<use xlink:href="#f6_by" transform="matrix(14,0,0,14,211.5,381.6)" />
<use xlink:href="#f6_ct" transform="matrix(14,0,0,14,225.5,381.6)" />
<use xlink:href="#f6_bk" transform="matrix(14,0,0,14,231.1,381.6)" />
<use xlink:href="#f6_ct" transform="matrix(14,0,0,14,242.7,381.6)" />
<use xlink:href="#f6_c1" transform="matrix(14,0,0,14,253.9,381.6)" />
<use xlink:href="#f6_cv" transform="matrix(14,0,0,14,262.3,381.6)" />
<use xlink:href="#f6_bl" transform="matrix(14,0,0,14,273.6,381.6)" />
<use xlink:href="#f6_d8" transform="matrix(14,0,0,14,286,381.6)" />
<use xlink:href="#f6_b9" transform="matrix(14,0,0,14,291.6,381.6)" />
<use xlink:href="#f6_c1" transform="matrix(14,0,0,14,307.1,381.6)" />
<use xlink:href="#f6_k" transform="matrix(14,0,0,14,315.5,381.6)" />
<use xlink:href="#f6_c3" transform="matrix(14,0,0,14,326.4,381.6)" />
<use xlink:href="#f6_ct" transform="matrix(14,0,0,14,341.1,381.6)" />
<use xlink:href="#f6_bb" transform="matrix(14,0,0,14,346.7,381.6)" />
<use xlink:href="#f6_d4" transform="matrix(14,0,0,14,359.4,381.6)" />
<use xlink:href="#f6_lq" transform="matrix(14,0,0,14,365,381.6)" />
<use xlink:href="#f6_cc" transform="matrix(14,0,0,14,371.6,381.6)" />
<use xlink:href="#f6_ct" transform="matrix(14,0,0,14,383.2,381.6)" />
<use xlink:href="#f6_c1" transform="matrix(14,0,0,14,388.9,381.6)" />
<use xlink:href="#f6_ct" transform="matrix(14,0,0,14,397.2,381.6)" />
<use xlink:href="#f6_bv" transform="matrix(14,0,0,14,408.5,381.6)" />
<use xlink:href="#f6_ct" transform="matrix(14,0,0,14,420.4,381.6)" />
<use xlink:href="#f6_c1" transform="matrix(14,0,0,14,426,381.6)" />
<use xlink:href="#f6_cb" transform="matrix(14,0,0,14,434.4,381.6)" />
<use xlink:href="#f6_bg" transform="matrix(14,0,0,14,454.9,381.6)" />
<use xlink:href="#f6_cv" transform="matrix(14,0,0,14,469.2,381.6)" />
<use xlink:href="#f6_pd" transform="matrix(14,0,0,14,480.5,381.6)" />
<use xlink:href="#f6_g" transform="matrix(14,0,0,14,488,381.6)" />
<use xlink:href="#f6_n8" transform="matrix(14,0,0,14,493.9,381.6)" />
<use xlink:href="#f6_h" transform="matrix(14,0,0,14,504.3,381.6)" />
<use xlink:href="#f6_bz" transform="matrix(14,0,0,14,218,406.8)" />
<use xlink:href="#f6_d5" transform="matrix(14,0,0,14,231.5,406.8)" />
<use xlink:href="#f6_bb" transform="matrix(14,0,0,14,237,406.8)" />
<use xlink:href="#f6_d4" transform="matrix(14,0,0,14,249.8,406.8)" />
<use xlink:href="#f6_c3" transform="matrix(14,0,0,14,249.6,406.8)" />
<use xlink:href="#f6_d8" transform="matrix(14,0,0,14,264.3,406.8)" />
<use xlink:href="#f6_b9" transform="matrix(14,0,0,14,275.6,406.8)" />
<use xlink:href="#f6_an" transform="matrix(14,0,0,14,291.1,406.8)" />
<use xlink:href="#f6_c0" transform="matrix(14,0,0,14,302.6,406.8)" />
<use xlink:href="#f6_ct" transform="matrix(14,0,0,14,315.2,406.8)" />
<use xlink:href="#f6_bv" transform="matrix(14,0,0,14,326.5,406.8)" />
<use xlink:href="#f6_ct" transform="matrix(14,0,0,14,338.3,406.8)" />
<use xlink:href="#f6_c7" transform="matrix(14,0,0,14,343.9,406.8)" />
<use xlink:href="#f6_c3" transform="matrix(14,0,0,14,356,406.8)" />
<use xlink:href="#f6_ct" transform="matrix(14,0,0,14,370.7,406.8)" />
<use xlink:href="#f6_pc" transform="matrix(14,0,0,14,382,406.8)" />
<use xlink:href="#f6_pc" transform="matrix(14,0,0,14,386.3,406.8)" />
<use xlink:href="#f6_pc" transform="matrix(14,0,0,14,390.6,406.8)" />
<use xlink:href="#f6_pc" transform="matrix(14,0,0,14,394.8,406.8)" />
<use xlink:href="#f6_pc" transform="matrix(14,0,0,14,399.1,406.8)" />
<use xlink:href="#f6_bz" transform="matrix(14,0,0,14,134.4,457.2)" />
<use xlink:href="#f6_d5" transform="matrix(14,0,0,14,147.8,457.2)" />
<use xlink:href="#f6_mw" transform="matrix(14,0,0,14,153.4,457.2)" />
<use xlink:href="#f6_c1" transform="matrix(14,0,0,14,165.1,457.2)" />
<use xlink:href="#f6_br" transform="matrix(14,0,0,14,179.2,457.2)" />
<use xlink:href="#f6_d4" transform="matrix(14,0,0,14,190.4,457.2)" />
<use xlink:href="#f6_c8" transform="matrix(14,0,0,14,190.9,457.2)" />
<use xlink:href="#f6_bq" transform="matrix(14,0,0,14,212.4,457.2)" />
<use xlink:href="#f6_cv" transform="matrix(14,0,0,14,225.6,457.2)" />
<use xlink:href="#f6_am" transform="matrix(14,0,0,14,242.5,457.2)" />
<use xlink:href="#f6_cu" transform="matrix(14,0,0,14,264,457.2)" />
<use xlink:href="#f6_c7" transform="matrix(14,0,0,14,269.6,457.2)" />
<use xlink:href="#f6_c0" transform="matrix(14,0,0,14,281.7,457.2)" />
<use xlink:href="#f6_ct" transform="matrix(14,0,0,14,294.3,457.2)" />
<use xlink:href="#f6_bq" transform="matrix(14,0,0,14,305.6,457.2)" />
<use xlink:href="#f6_ct" transform="matrix(14,0,0,14,318.7,457.2)" />
<use xlink:href="#f6_c1" transform="matrix(14,0,0,14,324.4,457.2)" />
<use xlink:href="#f6_ct" transform="matrix(14,0,0,14,332.7,457.2)" />
<use xlink:href="#f6_aq" transform="matrix(14,0,0,14,349.7,457.2)" />
<use xlink:href="#f6_dj" transform="matrix(14,0,0,14,357.2,457.6)" />
<use xlink:href="#f6_be" transform="matrix(14,0,0,14,365.4,457.2)" />
<use xlink:href="#f6_ct" transform="matrix(14,0,0,14,379.4,457.2)" />
<use xlink:href="#f6_br" transform="matrix(14,0,0,14,390.7,457.2)" />
<use xlink:href="#f6_d4" transform="matrix(14,0,0,14,401.9,457.2)" />
<use xlink:href="#f6_l3" transform="matrix(14,0,0,14,402.3,457.2)" />
<use xlink:href="#f6_c0" transform="matrix(14,0,0,14,415.3,457.2)" />
<use xlink:href="#f6_ct" transform="matrix(14,0,0,14,427.9,457.2)" />
<use xlink:href="#f6_bz" transform="matrix(14,0,0,14,439.2,457.2)" />
<use xlink:href="#f6_ct" transform="matrix(14,0,0,14,452.5,457.2)" />
<use xlink:href="#f6_ls" transform="matrix(14,0,0,14,458.1,457.2)" />
<use xlink:href="#f6_c0" transform="matrix(14,0,0,14,468,457.2)" />
<use xlink:href="#f6_ct" transform="matrix(14,0,0,14,480.6,457.2)" />
<use xlink:href="#f6_bq" transform="matrix(14,0,0,14,92,482.4)" />
<use xlink:href="#f6_ct" transform="matrix(14,0,0,14,105.2,482.4)" />
<use xlink:href="#f6_c1" transform="matrix(14,0,0,14,110.8,482.4)" />
<use xlink:href="#f6_d8" transform="matrix(14,0,0,14,119.2,482.4)" />
<use xlink:href="#f6_be" transform="matrix(14,0,0,14,130.4,482.4)" />
<use xlink:href="#f6_g9" transform="matrix(14,0,0,14,144.4,482.4)" />
<use xlink:href="#f6_d8" transform="matrix(14,0,0,14,168.7,482.4)" />
<use xlink:href="#f6_be" transform="matrix(14,0,0,14,185.6,482.4)" />
<use xlink:href="#f6_g9" transform="matrix(14,0,0,14,199.6,482.4)" />
<use xlink:href="#f6_d8" transform="matrix(14,0,0,14,223.9,482.4)" />
<use xlink:href="#f6_be" transform="matrix(14,0,0,14,235.2,482.4)" />
<use xlink:href="#f6_ci" transform="matrix(14,0,0,14,249.2,482.4)" />
<use xlink:href="#f6_ct" transform="matrix(14,0,0,14,261.1,482.4)" />
<use xlink:href="#f6_c7" transform="matrix(14,0,0,14,266.7,482.4)" />
<use xlink:href="#f6_d8" transform="matrix(14,0,0,14,278.8,482.4)" />
<use xlink:href="#f6_ll" transform="matrix(14,0,0,14,290.1,482.4)" />
<use xlink:href="#f6_c0" transform="matrix(14,0,0,14,296.5,482.4)" />
<use xlink:href="#f6_ct" transform="matrix(14,0,0,14,309.1,482.4)" />
<use xlink:href="#f6_c1" transform="matrix(14,0,0,14,314.7,482.4)" />
<use xlink:href="#f6_d8" transform="matrix(14,0,0,14,323.1,482.4)" />
<use xlink:href="#f6_c3" transform="matrix(14,0,0,14,334.3,482.4)" />
<use xlink:href="#f6_ct" transform="matrix(14,0,0,14,349.1,482.4)" />
<use xlink:href="#f6_l4" transform="matrix(14,0,0,14,354.7,482.4)" />
<use xlink:href="#f6_c0" transform="matrix(14,0,0,14,360.9,482.4)" />
<use xlink:href="#f6_d8" transform="matrix(14,0,0,14,373.4,482.4)" />
<use xlink:href="#f6_lq" transform="matrix(14,0,0,14,384.7,482.4)" />
<use xlink:href="#f6_cc" transform="matrix(14,0,0,14,391.4,482.4)" />
<use xlink:href="#f6_ct" transform="matrix(14,0,0,14,403,482.4)" />
<use xlink:href="#f6_c1" transform="matrix(14,0,0,14,408.6,482.4)" />
<use xlink:href="#f6_ct" transform="matrix(14,0,0,14,417,482.4)" />
<use xlink:href="#f6_bv" transform="matrix(14,0,0,14,428.3,482.4)" />
<use xlink:href="#f6_ct" transform="matrix(14,0,0,14,440.1,482.4)" />
<use xlink:href="#f6_c1" transform="matrix(14,0,0,14,445.8,482.4)" />
<use xlink:href="#f6_cb" transform="matrix(14,0,0,14,454.1,482.4)" />
<use xlink:href="#f6_bg" transform="matrix(14,0,0,14,474.7,482.4)" />
<use xlink:href="#f6_cv" transform="matrix(14,0,0,14,488.9,482.4)" />
<use xlink:href="#f6_pd" transform="matrix(14,0,0,14,500.2,482.4)" />
<use xlink:href="#f6_g" transform="matrix(14,0,0,14,507.8,482.4)" />
<use xlink:href="#f6_n8" transform="matrix(14,0,0,14,513.7,482.4)" />
<use xlink:href="#f6_h" transform="matrix(14,0,0,14,524.1,482.4)" />
<use xlink:href="#f6_bz" transform="matrix(14,0,0,14,218,507.6)" />
<use xlink:href="#f6_d5" transform="matrix(14,0,0,14,231.5,507.6)" />
<use xlink:href="#f6_bb" transform="matrix(14,0,0,14,237,507.6)" />
<use xlink:href="#f6_d4" transform="matrix(14,0,0,14,249.8,507.6)" />
<use xlink:href="#f6_c3" transform="matrix(14,0,0,14,249.6,507.6)" />
<use xlink:href="#f6_d8" transform="matrix(14,0,0,14,264.3,507.6)" />
<use xlink:href="#f6_b9" transform="matrix(14,0,0,14,275.6,507.6)" />
<use xlink:href="#f6_an" transform="matrix(14,0,0,14,291.1,507.6)" />
<use xlink:href="#f6_c0" transform="matrix(14,0,0,14,302.6,507.6)" />
<use xlink:href="#f6_ct" transform="matrix(14,0,0,14,315.2,507.6)" />
<use xlink:href="#f6_bv" transform="matrix(14,0,0,14,326.5,507.6)" />
<use xlink:href="#f6_ct" transform="matrix(14,0,0,14,338.3,507.6)" />
<use xlink:href="#f6_c7" transform="matrix(14,0,0,14,343.9,507.6)" />
<use xlink:href="#f6_c3" transform="matrix(14,0,0,14,356,507.6)" />
<use xlink:href="#f6_ct" transform="matrix(14,0,0,14,370.7,507.6)" />
<use xlink:href="#f6_pc" transform="matrix(14,0,0,14,382,507.6)" />
<use xlink:href="#f6_pc" transform="matrix(14,0,0,14,386.3,507.6)" />
<use xlink:href="#f6_pc" transform="matrix(14,0,0,14,390.6,507.6)" />
<use xlink:href="#f6_pc" transform="matrix(14,0,0,14,394.8,507.6)" />
<use xlink:href="#f6_pc" transform="matrix(14,0,0,14,399.1,507.6)" />
<use xlink:href="#f6_bq" transform="matrix(14,0,0,14,156.1,558)" />
<use xlink:href="#f6_d4" transform="matrix(14,0,0,14,169.5,558)" />
<use xlink:href="#f6_bh" transform="matrix(14,0,0,14,175,558)" />
<use xlink:href="#f6_of" transform="matrix(14,0,0,14,191.8,557.9)" />
<use xlink:href="#f6_bl" transform="matrix(14,0,0,14,191.8,558)" />
<use xlink:href="#f6_bx" transform="matrix(14,0,0,14,209.8,558)" />
<use xlink:href="#f6_d8" transform="matrix(14,0,0,14,222.1,558)" />
<use xlink:href="#f6_c3" transform="matrix(14,0,0,14,227.7,558)" />
<use xlink:href="#f6_bt" transform="matrix(14,0,0,14,242.4,558)" />
<use xlink:href="#f6_d8" transform="matrix(14,0,0,14,254.1,558)" />
<use xlink:href="#f6_dj" transform="matrix(14,0,0,14,258.4,558.9)" />
<use xlink:href="#f6_bf" transform="matrix(14,0,0,14,265.4,558)" />
<use xlink:href="#f6_d8" transform="matrix(14,0,0,14,281.1,558)" />
<use xlink:href="#f6_bm" transform="matrix(14,0,0,14,286.8,558)" />
<use xlink:href="#f6_d8" transform="matrix(14,0,0,14,299.4,558)" />
<use xlink:href="#f6_k" transform="matrix(14,0,0,14,305,558)" />
<use xlink:href="#f6_bq" transform="matrix(14,0,0,14,315.9,558)" />
<use xlink:href="#f6_d4" transform="matrix(14,0,0,14,329.3,558)" />
<use xlink:href="#f6_bv" transform="matrix(14,0,0,14,334.8,558)" />
<use xlink:href="#f6_cx" transform="matrix(14,0,0,14,346.6,557.9)" />
<use xlink:href="#f6_bg" transform="matrix(14,0,0,14,346.6,558)" />
<use xlink:href="#f6_ct" transform="matrix(14,0,0,14,360.9,558)" />
<use xlink:href="#f6_b9" transform="matrix(14,0,0,14,372.2,558)" />
<use xlink:href="#f6_c1" transform="matrix(14,0,0,14,387.7,558)" />
<use xlink:href="#f6_c7" transform="matrix(14,0,0,14,396.1,558)" />
<use xlink:href="#f6_ct" transform="matrix(14,0,0,14,408.2,558)" />
<use xlink:href="#f6_br" transform="matrix(14,0,0,14,419.4,558)" />
<use xlink:href="#f6_d8" transform="matrix(14,0,0,14,431.1,558)" />
<use xlink:href="#f6_ch" transform="matrix(14,0,0,14,436.7,558)" />
<use xlink:href="#f6_d8" transform="matrix(14,0,0,14,449.4,558)" />
<use xlink:href="#f6_k" transform="matrix(14,0,0,14,460.7,558)" />
<use xlink:href="#f6_bq" transform="matrix(14,0,0,14,97.7,583.2)" />
<use xlink:href="#f6_ct" transform="matrix(14,0,0,14,110.9,583.2)" />
<use xlink:href="#f6_c1" transform="matrix(14,0,0,14,116.5,583.2)" />
<use xlink:href="#f6_ct" transform="matrix(14,0,0,14,124.9,583.2)" />
<use xlink:href="#f6_bv" transform="matrix(14,0,0,14,136.2,583.2)" />
<use xlink:href="#f6_c7" transform="matrix(14,0,0,14,148,583.2)" />
<use xlink:href="#f6_dr" transform="matrix(14,0,0,14,160.6,583.2)" />
<use xlink:href="#f6_bp" transform="matrix(14,0,0,14,160.1,583.2)" />
<use xlink:href="#f6_c1" transform="matrix(14,0,0,14,178.1,583.2)" />
<use xlink:href="#f6_ct" transform="matrix(14,0,0,14,186.5,583.2)" />
<use xlink:href="#f6_bv" transform="matrix(14,0,0,14,197.8,583.2)" />
<use xlink:href="#f6_cc" transform="matrix(14,0,0,14,209.6,583.2)" />
<use xlink:href="#f6_ct" transform="matrix(14,0,0,14,221.2,583.2)" />
<use xlink:href="#f6_ch" transform="matrix(14,0,0,14,226.9,583.2)" />
<use xlink:href="#f6_d8" transform="matrix(14,0,0,14,239.5,583.2)" />
<use xlink:href="#f6_bz" transform="matrix(14,0,0,14,250.8,583.2)" />
<use xlink:href="#f6_oz" transform="matrix(14,0,0,14,264.3,583.2)" />
<use xlink:href="#f6_bb" transform="matrix(14,0,0,14,269.8,583.2)" />
<use xlink:href="#f6_d4" transform="matrix(14,0,0,14,282.6,583.2)" />
<use xlink:href="#f6_c3" transform="matrix(14,0,0,14,282.4,583.2)" />
<use xlink:href="#f6_d8" transform="matrix(14,0,0,14,297.1,583.2)" />
<use xlink:href="#f6_k" transform="matrix(14,0,0,14,308.4,583.2)" />
<use xlink:href="#f6_nt" transform="matrix(14,0,0,14,319.3,583.2)" />
<use xlink:href="#f6_bz" transform="matrix(14,0,0,14,324.9,583.2)" />
<use xlink:href="#f6_c3" transform="matrix(14,0,0,14,338.3,583.2)" />
<use xlink:href="#f6_cb" transform="matrix(14,0,0,14,353,583.2)" />
<use xlink:href="#f6_cv" transform="matrix(14,0,0,14,367.9,583.2)" />
<use xlink:href="#f6_lq" transform="matrix(14,0,0,14,379.1,583.2)" />
<use xlink:href="#f6_cc" transform="matrix(14,0,0,14,385.8,583.2)" />
<use xlink:href="#f6_ct" transform="matrix(14,0,0,14,397.4,583.2)" />
<use xlink:href="#f6_c1" transform="matrix(14,0,0,14,403,583.2)" />
<use xlink:href="#f6_ct" transform="matrix(14,0,0,14,411.4,583.2)" />
<use xlink:href="#f6_bv" transform="matrix(14,0,0,14,422.7,583.2)" />
<use xlink:href="#f6_ct" transform="matrix(14,0,0,14,434.6,583.2)" />
<use xlink:href="#f6_c1" transform="matrix(14,0,0,14,440.2,583.2)" />
<use xlink:href="#f6_cb" transform="matrix(14,0,0,14,448.6,583.2)" />
<use xlink:href="#f6_bg" transform="matrix(14,0,0,14,469.1,583.2)" />
<use xlink:href="#f6_cv" transform="matrix(14,0,0,14,483.4,583.2)" />
<use xlink:href="#f6_pd" transform="matrix(14,0,0,14,494.7,583.2)" />
<use xlink:href="#f6_g" transform="matrix(14,0,0,14,502.2,583.2)" />
<use xlink:href="#f6_n8" transform="matrix(14,0,0,14,508.1,583.2)" />
<use xlink:href="#f6_h" transform="matrix(14,0,0,14,518.5,583.2)" />
<use xlink:href="#f6_bz" transform="matrix(14,0,0,14,218,608.4)" />
<use xlink:href="#f6_d5" transform="matrix(14,0,0,14,231.5,608.4)" />
<use xlink:href="#f6_bb" transform="matrix(14,0,0,14,237,608.4)" />
<use xlink:href="#f6_d4" transform="matrix(14,0,0,14,249.8,608.4)" />
<use xlink:href="#f6_c3" transform="matrix(14,0,0,14,249.6,608.4)" />
<use xlink:href="#f6_d8" transform="matrix(14,0,0,14,264.3,608.4)" />
<use xlink:href="#f6_b9" transform="matrix(14,0,0,14,275.6,608.4)" />
<use xlink:href="#f6_an" transform="matrix(14,0,0,14,291.1,608.4)" />
<use xlink:href="#f6_c0" transform="matrix(14,0,0,14,302.6,608.4)" />
<use xlink:href="#f6_ct" transform="matrix(14,0,0,14,315.2,608.4)" />
<use xlink:href="#f6_bv" transform="matrix(14,0,0,14,326.5,608.4)" />
<use xlink:href="#f6_ct" transform="matrix(14,0,0,14,338.3,608.4)" />
<use xlink:href="#f6_c7" transform="matrix(14,0,0,14,343.9,608.4)" />
<use xlink:href="#f6_c3" transform="matrix(14,0,0,14,356,608.4)" />
<use xlink:href="#f6_ct" transform="matrix(14,0,0,14,370.7,608.4)" />
<use xlink:href="#f6_pc" transform="matrix(14,0,0,14,382,608.4)" />
<use xlink:href="#f6_pc" transform="matrix(14,0,0,14,386.3,608.4)" />
<use xlink:href="#f6_pc" transform="matrix(14,0,0,14,390.6,608.4)" />
<use xlink:href="#f6_pc" transform="matrix(14,0,0,14,394.8,608.4)" />
<use xlink:href="#f6_pc" transform="matrix(14,0,0,14,399.1,608.4)" />
<use xlink:href="#f7_4r" transform="matrix(9,0,0,9,290.2,795.2)" />
<use xlink:href="#f8_l" transform="matrix(9,0,0,9,303,795.2)" />
<use xlink:href="#f8_n" transform="matrix(9,0,0,9,310.7,795.2)" />
<use xlink:href="#f7_4r" transform="matrix(9,0,0,9,321.3,795.2)" />
</g>
</g>
<image preserveAspectRatio="none" x="22" y="801" width="581" height="86" xlink:href="img/1.png"/>
<path d="M241.8,97.4H380.4v1.1H241.8V97.4Z" class="g1_19"/>
<image preserveAspectRatio="none" x="202" y="14" width="217" height="26" xlink:href="img/2.png"/>
<defs>
<path d="M394,379c0,0,57,0,107,30c0,0,51,29,77,86V822H214L318,749V403c0,0,29,-24,76,-24ZM752,-65L578,29V188c0,0,-43,-18,-89,-18c0,0,-138,0,-282,130C207,300,63,431,60,567V822H0L-86,937l32,64H937l87,-115L992,822H720L822,749V-31L752,-65Z"
id="f5_bv"
transform="scale(0.001,-0.001)"/>

<path d="M277,-65L102,29V822H0L-86,937l32,64H463L548,886L516,822H244L347,749V-31L277,-65Z"
id="f5_ct"
transform="scale(0.001,-0.001)"/>

<path d="M545,-97L35,405L87,542H295c0,0,1,5,1,280H0L-86,937l32,64H729L814,886L782,822H445L550,749V547c0,0,0,-75,-41,-127c0,0,-41,-52,-129,-111L709,110V41L545,-97Z"
id="f5_c1"
transform="scale(0.001,-0.001)"/>

<path d="M833,530V822H434L539,749V530ZM533,-97L23,405L75,542H284c0,0,2,5,2,280H-10L-97,937l32,64H1193l86,-115l-32,-64H975l102,-73V-31l-70,-34L833,29V333H405L370,309L697,110V41L533,-97Z"
id="f5_cb"
transform="scale(0.001,-0.001)"/>

<path d="M503,170c0,0,-153,0,-298,130C205,300,60,431,60,578V822H0L-86,937l32,64H562L649,886L617,822H214L318,749V403c0,0,30,-29,81,-29c0,0,59,0,118,38c0,0,59,37,93,100L770,333C770,333,666,170,503,170Z"
id="f5_ll"
transform="scale(0.001,-0.001)"/>

<path d="M368,290c0,0,83,0,161,44c0,0,78,43,116,117V822H382c0,0,136,-107,136,-225c0,0,0,-74,-55,-131c0,0,-55,-57,-165,-83c0,0,15,-48,44,-91l26,-2ZM819,-65L645,29V139c0,0,-60,-31,-130,-31c0,0,-145,0,-279,109c0,0,-134,108,-208,287l29,78c0,0,128,15,181,43c0,0,54,27,54,73c0,0,0,61,-96,124H0L-86,937l32,64H1004l87,-115l-32,-64H787L889,749V-31L819,-65Z"
id="f5_c0"
transform="scale(0.001,-0.001)"/>

<path d="M277,-65L102,29V822H0L-86,937l32,64H86L18,1111c0,0,-67,122,-168,122c0,0,-81,0,-202,-80l-128,250c0,0,122,77,232,77c0,0,196,0,356,-250L252,1001H463L548,886L516,822H244L347,749V-31L277,-65Z"
id="f5_d8"
transform="scale(0.001,-0.001)"/>

<path d="M472,-77C472,-77,28,171,28,448c0,0,0,116,77,191c0,0,77,74,188,74c0,0,51,0,95,-18L527,574c0,0,104,114,277,117V822H0L-86,937l32,64H1164l86,-115l-32,-64H946l102,-73V-31L978,-65L804,29V526c0,0,-130,-78,-133,-294L611,196L431,309c0,0,0,97,33,174c0,0,-22,10,-53,10c0,0,-52,0,-90,-36c0,0,-38,-37,-38,-99c0,0,0,-80,68,-150c0,0,69,-70,214,-161L472,-77Z"
id="f5_c3"
transform="scale(0.001,-0.001)"/>

<path d="M831,-65L657,29V822H332L434,749V200L341,150c0,0,-93,32,-190,121c0,0,-96,90,-125,175l52,83H196l-5,293H0L-86,937l32,64H1016l86,-115l-33,-64H799L901,749V-31L831,-65Z"
id="f5_bb"
transform="scale(0.001,-0.001)"/>

<path d="M-289,908l-132,216c0,0,-70,120,-169,120c0,0,-83,0,-200,-80l-130,249c0,0,125,78,234,78c0,0,187,0,349,-241L-159,969L-289,908Z"
id="f5_d4"
transform="scale(0.001,-0.001)"/>

<path d="M388,325c0,0,58,0,112,31c0,0,53,31,84,86V822H165l69,-58V408c0,0,47,-83,154,-83ZM674,-49L584,8V257c0,0,-61,-51,-141,-51c0,0,-125,0,-232,109c0,0,-107,108,-107,243V822H0l-45,76l14,31H848l46,-76L880,822H645l65,-58V-39L674,-49Z"
id="f6_bv"
transform="scale(0.001,-0.001)"/>

<path d="M228,-49L138,8V822H0l-45,76l14,31H402l46,-76L434,822H199l65,-58V-39L228,-49Z"
id="f6_ct"
transform="scale(0.001,-0.001)"/>

<path d="M527,-71L52,414l34,92H277c0,0,12,32,12,72V822H0l-45,76l14,31H599l46,-76L631,822H350l66,-55V564c0,0,0,-96,-152,-248L610,34L611,8L527,-71Z"
id="f6_c1"
transform="scale(0.001,-0.001)"/>

<path d="M799,475V822H350l66,-55V564c0,0,0,-43,-25,-89ZM527,-71L52,414l34,92H277c0,0,12,32,12,72V822H0l-45,76l14,31H1063l46,-76l-14,-31H860l66,-58V-39L889,-49L799,8V370H315L264,316L610,34L611,8L527,-71Z"
id="f6_cb"
transform="scale(0.001,-0.001)"/>

<path d="M438,206c0,0,-119,0,-226,109c0,0,-108,108,-108,243V822H0l-45,76l14,31H542l46,-76L574,822H165l66,-58V408c0,0,46,-86,151,-86c0,0,61,0,119,32c0,0,58,33,95,91L669,338c0,0,-44,-66,-108,-99c0,0,-63,-33,-123,-33Z"
id="f6_ll"
transform="scale(0.001,-0.001)"/>

<path d="M374,248c0,0,77,0,149,36c0,0,71,37,110,107V822H284c0,0,138,-96,138,-208c0,0,0,-151,-228,-192c0,0,29,-104,89,-158c0,0,41,-16,91,-16ZM723,-49L633,8V200c0,0,-69,-56,-170,-56c0,0,-122,0,-240,94c0,0,-118,94,-179,237l20,55c0,0,133,17,187,44c0,0,55,28,55,84c0,0,0,45,-30,81c0,0,-30,36,-99,83H0l-45,76l14,31H897l46,-76L929,822H694l65,-58V-39L723,-49Z"
id="f6_c0"
transform="scale(0.001,-0.001)"/>

<path d="M228,-49L138,8V822H0l-45,76l14,31H119L-33,1144c0,0,-70,92,-157,92c0,0,-69,0,-159,-58l-72,118c0,0,89,73,181,73c0,0,140,0,257,-170L205,929H402l46,-76L434,822H199l65,-58V-39L228,-49Z"
id="f6_d8"
transform="scale(0.001,-0.001)"/>

<path d="M413,-59C413,-59,53,193,53,416c0,0,0,97,66,164c0,0,66,66,156,66c0,0,61,0,110,-30L487,507c0,0,92,126,257,126l35,-2V822H0l-45,76l14,31H1043l46,-76l-13,-31H840l66,-58V-39L869,-49L779,8V547c0,0,-101,-5,-165,-90c0,0,-64,-86,-70,-222L507,225l-90,73c0,0,5,79,35,151c0,0,-59,66,-128,66c0,0,-57,0,-100,-38c0,0,-44,-39,-44,-109c0,0,0,-165,284,-360L413,-59Z"
id="f6_c3"
transform="scale(0.001,-0.001)"/>

<path d="M727,-49L637,8V822H278l66,-58V226L270,196c0,0,-64,36,-122,98c0,0,-58,62,-79,122l43,59H217V822H0l-45,76l14,31H901l46,-76L933,822H698l66,-58V-39L727,-49Z"
id="f6_bb"
transform="scale(0.001,-0.001)"/>

<path d="M-214,863l-199,281c0,0,-70,92,-157,92c0,0,-69,0,-159,-58l-72,118c0,0,89,73,180,73c0,0,141,0,258,-170L-155,901l-59,-38Z"
id="f6_d4"
transform="scale(0.001,-0.001)"/>

<path d="M663,-49L573,8V445H299V280L226,251c0,0,-105,99,-162,238l63,72H573V822H0l-45,76l14,31H837l46,-76L869,822H634l66,-58V-39L663,-49Z"
id="f6_bt"
transform="scale(0.001,-0.001)"/>

<path d="M283,260c0,0,122,0,209,113V513c0,0,-90,51,-160,51c0,0,-80,0,-129,-50c0,0,-49,-50,-49,-118c0,0,0,-60,35,-110c0,0,45,-26,94,-26ZM582,-49L492,8V211c0,0,-63,-54,-141,-54c0,0,-113,0,-213,92c0,0,-100,92,-100,205c0,0,0,93,69,157c0,0,69,64,162,64c0,0,32,0,64,-9L492,590V822H0l-45,76l14,31H1108l45,-76l-13,-31H553l66,-58V524c0,0,91,89,192,89c0,0,98,0,171,-79c0,0,72,-79,72,-186c0,0,0,-178,-224,-330L736,124c0,0,219,153,219,269c0,0,0,44,-26,75c0,0,-26,32,-81,32c0,0,-109,0,-229,-155V-39L582,-49Z"
id="f6_b9"
transform="scale(0.001,-0.001)"/>

<path d="M547,-285c0,0,-66,25,-102,80c0,0,32,69,82,101c0,0,55,-20,99,-80c0,0,-26,-67,-79,-101Zm1,228c0,0,-122,0,-243,81c0,0,-122,81,-252,280l57,41C110,345,283,64,498,64c0,0,92,0,153,49c0,0,61,49,61,121c0,0,0,46,-28,84L440,237c0,0,-73,11,-139,55c0,0,-66,44,-105,105c0,0,-40,61,-40,119c0,0,0,72,62,125c0,0,62,53,184,53H625V822H0l-45,76l14,31H906l46,-76L938,822H678l66,-58V562H431c0,0,-164,0,-164,-99c0,0,0,-55,57,-102l261,82c0,0,104,-21,172,-98c0,0,68,-78,68,-171c0,0,0,-99,-76,-166c0,0,-77,-65,-201,-65Z"
id="f6_ch"
transform="scale(0.001,-0.001)"/>

<path d="M768,-49L678,8V202c0,0,-73,-58,-172,-58c0,0,-123,0,-240,94c0,0,-118,94,-179,237l20,55c0,0,134,12,215,70c0,0,81,57,81,141c0,0,0,90,-67,134l-26,3c0,0,-46,0,-74,-29c0,0,-28,-30,-28,-68c0,0,0,-55,82,-109L252,620C252,620,93,720,93,820c0,0,0,65,47,104c0,0,46,40,114,40c0,0,99,0,179,-83c0,0,80,-83,82,-197c0,0,0,-93,-79,-165c0,0,-78,-73,-199,-97c0,0,29,-104,88,-158c0,0,42,-16,92,-16c0,0,78,0,151,38c0,0,74,38,110,111V822H553l-46,76l14,31H943l45,-76L975,822H739l66,-58V-39L768,-49Z"
id="f6_bq"
transform="scale(0.001,-0.001)"/>

<path d="M228,-49L138,8V822H0l-45,76l14,31H138c0,0,-109,342,-284,342c0,0,-62,0,-102,-40c0,0,-40,-39,-40,-93c0,0,0,-61,51,-134l-42,-32c0,0,-128,113,-128,226c0,0,0,79,60,136c0,0,61,56,154,56c0,0,137,0,249,-125c0,0,112,-125,169,-336H402l46,-76L434,822H199l65,-58V-39L228,-49Z"
id="f6_cv"
transform="scale(0.001,-0.001)"/>

<path d="M348,229c0,0,57,0,106,17L263,559c0,0,-95,-50,-95,-162c0,0,0,-75,52,-136c0,0,49,-32,128,-32Zm170,48c0,0,61,38,96,91V504c0,0,-131,80,-244,80l-35,-2L518,277ZM704,-49L614,8V193c0,0,-84,-65,-192,-65c0,0,-139,0,-255,98c0,0,-115,98,-115,226c0,0,0,106,77,175c0,0,77,70,189,70c0,0,38,0,75,-9L614,578V822H0l-45,76l14,31H878l46,-76L911,822H675l66,-58V-39L704,-49Z"
id="f6_bx"
transform="scale(0.001,-0.001)"/>

<path d="M548,-57c0,0,-122,0,-243,81c0,0,-122,81,-252,280l57,41C110,345,283,64,498,64c0,0,92,0,153,49c0,0,61,49,61,121c0,0,0,46,-28,84L440,237c0,0,-73,11,-139,55c0,0,-66,44,-105,105c0,0,-40,61,-40,119c0,0,0,72,62,125c0,0,62,53,184,53H625V822H0l-45,76l14,31H906l46,-76L938,822H678l66,-58V562H431c0,0,-164,0,-164,-99c0,0,0,-55,57,-102l261,82c0,0,104,-21,172,-98c0,0,68,-78,68,-171c0,0,0,-99,-76,-166c0,0,-77,-65,-201,-65Z"
id="f6_bm"
transform="scale(0.001,-0.001)"/>

<path d="M252,385l310,78l22,-9c0,0,107,-43,200,-43c0,0,91,0,151,41V822H603l66,-58V585H373c0,0,-184,0,-184,-99c0,0,0,-48,63,-101ZM483,-305L295,-10c0,0,-90,22,-156,74l41,170h66L351,63c0,0,126,4,207,62c0,0,82,58,82,139c0,0,0,37,-18,71L365,266c0,0,-110,15,-197,102c0,0,-87,87,-87,176c0,0,0,69,59,117c0,0,59,48,172,48H550V822H0l-45,76l14,31H1199l46,-76l-14,-31H996l66,-58V-39l-37,-10L935,8V318c0,0,-41,-15,-78,-15c0,0,-52,0,-131,30c0,0,32,-55,32,-111c0,0,0,-109,-98,-179c0,0,-98,-69,-254,-69L599,-216L483,-305Z"
id="f6_bh"
transform="scale(0.001,-0.001)"/>

<path d="M689,445V822H286l65,-58l8,-319ZM779,-49L689,8V328H370V180L296,150c0,0,-56,35,-120,104c0,0,-63,70,-89,131l41,60H238L223,822H0l-45,76l14,31H953l46,-76L985,822H750l66,-58V-39L779,-49Z"
id="f6_bz"
transform="scale(0.001,-0.001)"/>

<path d="M-91,1001c0,0,-27,10,-61,36c0,0,-33,26,-50,49c0,0,38,81,90,110c0,0,61,-23,107,-85c0,0,-28,-71,-86,-110ZM-214,863l-199,281c0,0,-70,92,-157,92c0,0,-69,0,-159,-58l-72,118c0,0,89,73,180,73c0,0,141,0,258,-170L-155,901l-59,-38Z"
id="f6_oz"
transform="scale(0.001,-0.001)"/>

<path d="M823,-49L733,8V339H445V191L371,160c0,0,-56,36,-120,105c0,0,-63,70,-89,131l41,59H313V735c0,0,0,99,-55,140c0,0,-3,1,-8,1c-16,0,-48,-3,-71,-23c0,0,-31,-26,-31,-66c0,0,0,-69,81,-113L189,620C189,620,31,720,31,828c0,0,0,61,45,99c0,0,46,37,109,37c0,0,96,0,173,-86c0,0,76,-87,79,-194V455H733V822H556l-46,76l14,31H998l45,-76l-13,-31H794l66,-58V-39L823,-49Z"
id="f6_by"
transform="scale(0.001,-0.001)"/>

<path d="M108,-433L-59,-214c0,0,-99,119,-191,119c0,0,-59,0,-96,-35c0,0,-36,-34,-36,-81c0,0,0,-49,42,-83l152,95l64,-116c0,0,-71,-58,-148,-58c0,0,-80,0,-146,63c0,0,-65,64,-65,144c0,0,0,77,62,131c0,0,61,53,142,53c0,0,138,0,296,-205L165,-393l-57,-40Z"
id="f6_cx"
transform="scale(0.001,-0.001)"/>

<path d="M413,-59C413,-59,53,193,53,416c0,0,0,97,66,164c0,0,66,66,156,66c0,0,61,0,110,-30l89,-93c0,0,74,108,204,108c0,0,112,0,181,-98L810,483c0,0,-54,56,-107,56c0,0,-75,0,-120,-78c0,0,-45,-78,-39,-226L507,225l-90,73c0,0,-1,95,28,171c0,0,-57,46,-123,46c0,0,-61,0,-99,-42c0,0,-38,-42,-38,-111c0,0,0,-93,71,-176c0,0,71,-84,208,-178L413,-59ZM0,822l-45,76l14,31H768l46,-76L801,822Z"
id="f6_ls"
transform="scale(0.001,-0.001)"/>

<path d="M845,-49L755,8V513H497c0,0,61,-45,93,-110c0,0,33,-64,33,-128c0,0,0,-90,-58,-144c0,0,-59,-53,-143,-53c0,0,-133,0,-234,139C188,217,87,356,20,596l76,24c0,0,60,-201,127,-306c0,0,67,-105,160,-105c0,0,57,0,91,36c0,0,33,36,33,91c0,0,0,84,-73,159L295,558v71H755V822H0l-45,76l14,31H1019l46,-76l-14,-31H816l66,-58V-39L845,-49Z"
id="f6_bg"
transform="scale(0.001,-0.001)"/>

<path d="M92,380L46,457l14,30H448l45,-76L480,380Z"
id="f6_pd"
transform="scale(0.001,-0.001)"/>

<path d="M290,-236c0,0,-253,348,-253,685c0,0,0,342,270,669l80,-39c0,0,-207,-311,-207,-622c0,0,0,-326,193,-652l-83,-41Z"
id="f6_g"
transform="scale(0.001,-0.001)"/>

<path d="M634,-49L249,296c0,0,-1,0,-3,0c-11,0,-48,1,-90,15c0,0,-51,16,-67,36l49,165l50,12l84,-98c0,0,125,31,191,104c0,0,66,73,66,165c0,0,0,109,-95,170c0,0,-2,0,-6,0C397,865,262,858,121,738L46,848c0,0,52,47,127,82c0,0,75,34,152,34c0,0,130,0,226,-94c0,0,95,-94,95,-218c0,0,0,-107,-77,-199c0,0,-77,-92,-216,-134L697,26L698,0L634,-49Z"
id="f6_n8"
transform="scale(0.001,-0.001)"/>

<path d="M130,-236l-83,41c0,0,193,326,193,652c0,0,0,311,-206,622l79,39c0,0,270,-327,270,-669c0,0,0,-337,-253,-685Z"
id="f6_h"
transform="scale(0.001,-0.001)"/>

<path d="M-214,860l-227,219c0,0,-73,70,-148,70c0,0,-67,0,-160,-58l-72,117c0,0,83,71,176,71c0,0,120,0,232,-124L-221,940l-102,294c0,0,-64,179,-189,179c0,0,-60,0,-133,-33l-60,125c0,0,84,47,164,47c0,0,200,0,281,-276L-150,901l-23,-15l-41,-26Z"
id="f6_d5"
transform="scale(0.001,-0.001)"/>

<path d="M483,-305L295,-10c0,0,-90,22,-156,74l41,170h66L351,63c0,0,126,4,207,62c0,0,82,58,82,139c0,0,0,37,-18,71L365,266c0,0,-110,15,-197,102c0,0,-87,87,-87,176c0,0,0,69,59,117c0,0,59,48,172,48H550V822H0l-45,76l14,31H822l46,-76L854,822H603l66,-58V585H373c0,0,-184,0,-184,-99c0,0,0,-48,63,-101l310,78c0,0,86,-34,141,-99c0,0,55,-65,55,-142c0,0,0,-109,-98,-179c0,0,-98,-69,-254,-69L599,-216L483,-305Z"
id="f6_an"
transform="scale(0.001,-0.001)"/>

<path d="M325,240c0,0,77,0,154,35c0,0,77,35,120,99V500c0,0,-118,73,-222,73c0,0,-97,0,-151,-54c0,0,-53,-53,-53,-128c0,0,0,-73,49,-125c0,0,38,-26,103,-26ZM689,-49L599,8V199c0,0,-73,-65,-179,-65c0,0,-134,0,-252,96c0,0,-118,95,-118,221c0,0,0,102,78,171c0,0,78,69,190,69c0,0,38,0,75,-10L599,582V822H0l-45,76l14,31H863l46,-76L895,822H660l66,-58V-39L689,-49Z"
id="f6_c7"
transform="scale(0.001,-0.001)"/>

<path d="M226,-49c0,0,-66,24,-102,78c0,0,32,69,82,101c0,0,55,-20,100,-80c0,0,-26,-66,-80,-99Z"
id="f6_pc"
transform="scale(0.001,-0.001)"/>

<path d="M959,-49L869,8V367c0,0,-32,-13,-64,-13c0,0,-50,0,-110,25c0,0,23,-52,23,-109c0,0,0,-103,-70,-170c0,0,-70,-66,-182,-66c0,0,-110,0,-222,82c0,0,-111,83,-213,293l68,42c0,0,72,-155,152,-231c0,0,81,-76,178,-76c0,0,83,0,131,49c0,0,48,48,48,117c0,0,0,54,-30,100c0,0,-31,47,-91,65L325,391L257,512c0,0,68,53,156,56c0,0,140,72,140,179c0,0,0,69,-52,99c0,0,-4,1,-11,1c-19,0,-66,-4,-123,-30c0,0,-78,-35,-142,-96L150,823c0,0,119,117,253,117c0,0,98,0,175,-71c0,0,77,-70,77,-159c0,0,0,-103,-94,-180c0,0,39,-23,73,-56c0,0,52,-22,109,-22c0,0,77,0,126,38V822H727l-46,76l14,31h439l45,-76l-13,-31H930l66,-58V-39L959,-49Z"
id="f6_al"
transform="scale(0.001,-0.001)"/>

<path d="M900,298c0,0,32,73,32,159c0,0,0,110,-38,160c0,0,-40,31,-81,31c0,0,-48,0,-80,-35c0,0,-33,-35,-33,-89c0,0,0,-118,200,-226ZM588,-60c0,0,-154,0,-274,93c0,0,-120,94,-120,207c0,0,0,50,28,92C222,332,61,440,61,552c0,0,0,71,56,122c0,0,56,50,169,50H417l64,-98L463,600H333c0,0,-157,-1,-157,-99c0,0,0,-59,88,-124c0,0,68,52,164,52c0,0,38,0,79,-9l71,-88L558,299c0,0,-46,10,-81,10c0,0,-75,0,-116,-36c0,0,-40,-36,-40,-88c0,0,0,-78,73,-130c0,0,54,-17,109,-17c0,0,114,0,211,54c0,0,97,53,154,145c0,0,-156,96,-223,173c0,0,-67,77,-67,155c0,0,0,72,48,124c0,0,48,52,126,55v78H0l-45,76l14,31H1123l46,-76l-14,-31H805l66,-58V717c0,0,76,-40,124,-124c0,0,47,-84,47,-193c0,0,0,-188,-133,-324C909,76,776,-60,588,-60Z"
id="f6_bf"
transform="scale(0.001,-0.001)"/>

<path d="M-234,-413c0,0,-210,0,-488,322l54,49c0,0,119,-128,209,-193c0,0,90,-65,177,-65c0,0,72,0,113,40c0,0,42,39,42,91c0,0,0,75,-78,106L-323,-181l-90,98c0,0,63,95,167,95c0,0,90,0,155,-69c0,0,66,-70,66,-164c0,0,0,-85,-60,-139c0,0,-61,-53,-149,-53Z"
id="f6_cw"
transform="scale(0.001,-0.001)"/>

<path d="M527,-71L52,414l34,92H277c0,0,12,32,12,72V822H0l-45,76l14,31H940l45,-76L972,822H350l66,-55V553c0,0,24,52,77,83c0,0,52,30,112,30c0,0,87,0,171,-76c0,0,84,-75,222,-304L938,244L828,411c0,0,-95,134,-195,134c0,0,-63,0,-100,-35c0,0,-36,-36,-36,-87c0,0,0,-50,42,-87l152,99L755,315c0,0,-71,-61,-148,-61c0,0,-80,0,-146,66c0,0,-65,67,-65,164c0,0,-34,-70,-132,-168L610,34L611,8L527,-71Z"
id="f6_n1"
transform="scale(0.001,-0.001)"/>

<path d="M-239,897c0,0,-82,61,-132,137c0,0,-50,75,-50,150c0,0,0,78,52,133c0,0,52,55,141,55c0,0,98,0,176,-64l-23,-69c0,0,-52,32,-104,32c0,0,-57,0,-95,-36c0,0,-38,-36,-38,-95c0,0,0,-115,117,-217l-44,-26Z"
id="f6_dr"
transform="scale(0.001,-0.001)"/>

<path d="M347,-57C347,-57,66,211,66,394c0,0,0,98,74,164c0,0,74,65,225,65H616V822H0l-45,76l14,31H880l46,-76L912,822H677l66,-58V-39L706,-49L616,8V500H428c0,0,-239,0,-239,-161c0,0,0,-136,214,-343L347,-57Z"
id="f6_bp"
transform="scale(0.001,-0.001)"/>

<path d="M761,293c0,0,127,0,169,94V532c0,0,-68,46,-145,46c0,0,-76,0,-121,-46c0,0,-45,-45,-45,-107c0,0,0,-61,44,-110c0,0,47,-22,98,-22ZM657,67c0,0,166,0,273,107v55c0,0,-45,-36,-111,-36c0,0,-110,0,-207,90c0,0,-97,90,-97,194c0,0,0,85,66,148c0,0,65,63,155,63l48,-5L930,603V822H376l62,-55V579c0,0,0,-60,-23,-102c0,0,-24,-42,-148,-190c0,0,66,-104,175,-162c0,0,108,-58,215,-58ZM1021,-49L930,8V53c0,0,-105,-83,-264,-83c0,0,-177,0,-339,128C327,98,165,226,90,429l34,77H296c0,0,19,39,19,102l-2,214H0l-45,76l14,31H1195l46,-76l-14,-31H992l65,-58V-39l-36,-10Z"
id="f6_ba"
transform="scale(0.001,-0.001)"/>

<path d="M228,-49L138,8V822H0l-45,76l14,31H134c0,0,-91,93,-91,200c0,0,0,109,92,174c0,0,93,66,253,66c0,0,186,0,398,-89c0,0,212,-90,430,-264l-49,-47c0,0,-424,285,-727,285c0,0,-125,0,-201,-49c0,0,-76,-48,-76,-137c0,0,0,-67,52,-139H402l46,-76L434,822H199l65,-58V-39L228,-49Z"
id="f6_nu"
transform="scale(0.001,-0.001)"/>

<path d="M46,1082c0,0,-69,29,-106,81c0,0,34,75,84,105c0,0,57,-23,103,-81c0,0,-31,-72,-81,-105Z"
id="f6_ol"
transform="scale(0.001,-0.001)"/>

<path d="M688,-243c0,0,-256,53,-408,173c0,0,-152,119,-152,270c0,0,0,101,68,171c0,0,-101,84,-101,179c0,0,0,64,53,112c0,0,54,47,191,47H587V822H0l-45,76l14,31H830l45,-76L862,822H640l66,-58V585H362c0,0,-159,-1,-159,-92c0,0,0,-41,46,-80c0,0,76,47,183,47c0,0,135,0,230,-76c0,0,96,-75,96,-187C758,197,758,67,629,2L545,104c0,0,49,30,81,75c0,0,32,44,32,82c0,0,0,16,-4,26c0,0,-64,58,-167,58c0,0,-97,0,-166,-50v-2c0,0,-67,-52,-67,-131c0,0,0,-116,132,-199c0,0,132,-84,334,-132l-32,-74Z"
id="f6_cc"
transform="scale(0.001,-0.001)"/>

<path d="M108,-222l-44,58c0,0,96,81,104,164L89,61c0,0,12,83,93,122c0,0,50,-15,79,-55c0,0,29,-39,29,-90c0,0,0,-69,-48,-142c0,0,-48,-72,-134,-118Z"
id="f6_k"
transform="scale(0.001,-0.001)"/>

<path d="M827,-49L736,8V205c0,0,-84,-84,-209,-84c0,0,-130,0,-237,91c0,0,-108,92,-108,196c0,0,0,79,61,137C243,545,66,672,66,791c0,0,0,75,52,124c0,0,53,49,134,49c0,0,164,0,260,-237L451,694c0,0,-55,114,-119,163l-31,5c0,0,-44,0,-77,-32c0,0,-33,-31,-33,-78c0,0,0,-86,113,-165c0,0,60,27,133,27l67,-4l75,-89L564,490l-51,7H493c0,0,-90,0,-142,-43c0,0,-52,-43,-52,-104c0,0,0,-60,51,-109c0,0,33,-16,84,-16c0,0,89,0,177,47c0,0,89,47,125,137V822H567l-46,76l14,31h466l46,-76l-14,-31H798l65,-58V-39L827,-49Z"
id="f6_bs"
transform="scale(0.001,-0.001)"/>

<path d="M266,150c0,0,-57,35,-120,104c0,0,-63,70,-89,131l41,60H211L194,822H0l-45,76l14,31H587l46,-76L619,822H255l66,-58l7,-319H688L721,328H339V180L266,150Z"
id="f6_lq"
transform="scale(0.001,-0.001)"/>

<path d="M373,-262c13,0,88,3,157,58c0,0,77,60,95,145L597,43C597,43,309,2,309,-158c0,0,0,-70,62,-104c0,0,1,0,2,0ZM710,-386l-41,159c0,0,-70,-107,-208,-107c0,0,-108,0,-187,65c0,0,-78,64,-78,151c0,0,0,55,33,101c0,0,34,45,87,67L273,72c0,0,-84,47,-142,130c0,0,-58,82,-58,172c0,0,0,110,82,181c0,0,82,71,218,74H524V822H0l-45,76l14,31H842l46,-76L874,822H585l66,-58V504l-3,2l3,-3H408c0,0,-95,0,-154,-53c0,0,-58,-53,-58,-132c0,0,0,-49,27,-100c0,0,28,-50,83,-84c0,0,48,-16,108,-16c0,0,90,0,150,39L535,303l101,48L773,188c0,0,-14,-49,-98,-119L823,-338L710,-386Z"
id="f6_gk"
transform="scale(0.001,-0.001)"/>

<path d="M413,313c0,0,91,0,145,58L231,782V408c0,0,47,-95,182,-95ZM603,438l11,28V822H295L603,438ZM704,-49L614,8V254c0,0,-61,-57,-151,-57c0,0,-138,0,-248,110c0,0,-111,110,-111,252V822H0l-45,76l14,31H878l46,-76L911,822H675l66,-58V-39L704,-49Z"
id="f6_ca"
transform="scale(0.001,-0.001)"/>

<path d="M892,248c0,0,77,0,148,36c0,0,72,37,110,107V822H802c0,0,138,-96,138,-208c0,0,0,-151,-228,-192c0,0,29,-104,89,-158c0,0,41,-16,91,-16ZM347,-57C347,-57,73,203,73,373c0,0,0,110,87,181c0,0,86,71,227,71c0,0,137,0,268,-84c0,0,91,17,130,43c0,0,38,26,38,74c0,0,0,45,-29,81c0,0,-30,36,-99,83H0l-45,76l14,31H1415l46,-76l-14,-31H1212l65,-58V-39l-36,-10L1150,8V200c0,0,-68,-56,-169,-56c0,0,-122,0,-235,90c0,0,-113,90,-176,223c0,0,-77,43,-161,43c0,0,-85,0,-148,-47c0,0,-62,-47,-62,-129c0,0,0,-127,204,-328L347,-57Z"
id="f6_j8"
transform="scale(0.001,-0.001)"/>

<path d="M270,196c0,0,-64,36,-122,98c0,0,-58,62,-79,122l43,59H217V822H0l-45,76l14,31H489l46,-76L521,822H278l66,-58V226L270,196Z"
id="f6_l4"
transform="scale(0.001,-0.001)"/>

<path d="M959,-49L869,8V367c0,0,-32,-13,-64,-13c0,0,-50,0,-110,25c0,0,23,-52,23,-109c0,0,0,-103,-70,-170c0,0,-70,-66,-182,-66c0,0,-110,0,-222,82c0,0,-111,83,-213,293l68,42c0,0,72,-155,152,-231c0,0,81,-76,178,-76c0,0,83,0,131,49c0,0,48,48,48,117c0,0,0,54,-30,100c0,0,-31,47,-91,65L325,391L257,512c0,0,68,53,156,56c0,0,140,72,140,179c0,0,0,69,-52,99c0,0,-4,1,-11,1c-19,0,-66,-4,-123,-30c0,0,-78,-35,-142,-96L150,823c0,0,119,117,253,117c0,0,98,0,175,-71c0,0,77,-70,77,-159c0,0,0,-103,-94,-180c0,0,39,-23,73,-56c0,0,52,-22,109,-22c0,0,77,0,126,38V822H727l-46,76l14,31h840l46,-76l-13,-31H1332l66,-58V-39l-37,-10L1271,8V822H930l66,-58V-39L959,-49Z"
id="f6_am"
transform="scale(0.001,-0.001)"/>

<path d="M487,-7c0,0,-88,0,-185,46c0,0,-97,47,-163,130c0,0,-66,83,-66,185c0,0,0,109,80,177c0,0,79,68,234,68H504V822H0l-45,76l14,31H827l45,-76L859,822H565l66,-58V474l-3,1l3,-3H396c0,0,-100,0,-152,-47c0,0,-53,-48,-53,-119c0,0,0,-104,93,-178c0,0,60,-20,118,-20c0,0,81,0,156,36c0,0,76,35,123,99l92,-99C773,144,723,70,645,31C645,31,567,-7,487,-7Z"
id="f6_bk"
transform="scale(0.001,-0.001)"/>

<path d="M449,79c0,0,103,0,168,61c0,0,66,60,66,149c0,0,0,93,-84,186H420c0,0,-107,0,-164,-50c0,0,-57,-51,-57,-126c0,0,0,-108,99,-184c0,0,81,-36,151,-36Zm67,-96c0,0,-168,0,-301,109C215,92,81,202,81,350c0,0,0,114,83,182c0,0,84,68,229,68H507V822H0l-45,76l14,31H883l46,-76L915,822H568l66,-58V532c0,0,87,-64,130,-144c0,0,43,-79,43,-157c0,0,0,-109,-81,-179c0,0,-81,-69,-210,-69Z"
id="f6_bl"
transform="scale(0.001,-0.001)"/>

<path d="M953,-525L785,-306c0,0,-99,119,-191,119c0,0,-59,0,-96,-34c0,0,-37,-35,-37,-82c0,0,0,-49,43,-83l151,95l65,-116c0,0,-71,-58,-149,-58c0,0,-79,0,-145,63c0,0,-65,64,-65,145c0,0,0,76,61,130c0,0,62,55,143,55c0,0,40,0,77,-14L605,37C605,37,552,18,498,18c0,0,-151,0,-288,115C210,133,73,248,73,388c0,0,0,113,84,184c0,0,84,71,222,73H524V822H0l-45,76l14,31H842l46,-76L874,822H567l84,-73V519l-3,2l3,-3H408c0,0,-93,0,-153,-52c0,0,-59,-52,-59,-128c0,0,0,-121,110,-188c0,0,53,-17,105,-17c0,0,92,0,153,43L535,318l101,49L773,203c0,0,-20,-67,-87,-122l75,-247c0,0,81,-76,249,-319l-57,-40Z"
id="f6_mw"
transform="scale(0.001,-0.001)"/>

<path d="M675,-274L602,21C602,21,550,3,498,3C498,3,347,3,210,118C210,118,73,232,73,373c0,0,0,113,84,184c0,0,84,71,222,72H524V822H0l-45,76l14,31H834l46,-76L866,822H585l66,-58V504l-3,2l3,-3H408c0,0,-95,0,-154,-53c0,0,-58,-53,-58,-132c0,0,0,-49,27,-100c0,0,28,-50,83,-84c0,0,44,-15,96,-15c0,0,91,0,160,46L535,303l101,48L773,188c0,0,-8,-28,-34,-66c0,0,-27,-38,-62,-64L813,-221L675,-274Z"
id="f6_br"
transform="scale(0.001,-0.001)"/>

<path d="M513,460c0,0,61,81,61,179c0,0,0,87,-45,143c0,0,-45,57,-116,57c0,0,-63,0,-102,-43c0,0,-39,-43,-39,-110c0,0,0,-90,68,-151c0,0,68,-61,173,-75ZM581,-83L278,167l-41,-4c0,0,-99,0,-130,37l47,168l51,12l78,-79c0,0,110,40,183,105c0,0,-141,23,-231,107c0,0,-90,84,-90,193c0,0,0,69,37,116H0l-45,76l14,31H1134l45,-76l-13,-31H930l66,-58V-39L959,-49L869,8V822H588c0,0,51,-44,75,-109c0,0,25,-64,25,-122c0,0,0,-105,-81,-213c0,0,-80,-108,-240,-176L658,18l2,-25L581,-83Z"
id="f6_c8"
transform="scale(0.001,-0.001)"/>

<path d="M228,-49L138,8V822H0l-45,76l14,31H134c0,0,-91,92,-91,191c0,0,0,105,85,170c0,0,84,65,219,65c0,0,128,0,293,-76c0,0,165,-77,362,-263L958,966c0,0,-177,143,-303,210c0,0,-125,68,-244,68c0,0,-107,0,-175,-50c0,0,-68,-50,-68,-131c0,0,0,-61,49,-134H402l46,-76L434,822H199l65,-58V-39L228,-49Z"
id="f6_cu"
transform="scale(0.001,-0.001)"/>

<path d="M471,-26c0,0,-259,0,-448,396l70,43C93,413,240,98,442,98c0,0,79,0,132,46c0,0,54,45,54,120c0,0,0,61,-38,116c0,0,-38,54,-107,72L322,370L255,492c0,0,66,53,156,56c0,0,128,51,128,153c0,0,0,77,-65,121H0l-45,76l14,31H1123l46,-76l-14,-31H578c0,0,76,-66,76,-157c0,0,0,-95,-87,-156c0,0,52,-29,84,-64c0,0,131,134,243,134c0,0,93,0,158,-70c0,0,65,-71,65,-167c0,0,0,-142,-177,-272L851,170c0,0,173,129,173,230c0,0,0,34,-23,57c0,0,-23,23,-63,23c0,0,-104,0,-215,-141c0,0,23,-55,23,-111c0,0,0,-109,-78,-182c0,0,-78,-72,-197,-72Z"
id="f6_aq"
transform="scale(0.001,-0.001)"/>

<path d="M0,1062c0,0,-26,11,-60,36c0,0,-34,26,-51,49c0,0,39,81,91,110c0,0,60,-23,106,-85c0,0,-28,-70,-86,-110Z"
id="f6_dj"
transform="scale(0.001,-0.001)"/>

<path d="M825,-49L735,8V217c0,0,-86,-72,-197,-72c0,0,-130,0,-238,91c0,0,-107,91,-107,204c0,0,0,55,27,105H55L12,616l14,30H574l46,-76L607,539H396c0,0,-78,-49,-78,-162c0,0,0,-70,40,-111c0,0,39,-15,94,-15c0,0,84,0,163,41c0,0,79,41,120,121V822H0l-45,76l14,31H999l46,-76l-14,-31H796l66,-58V-39L825,-49Z"
id="f6_be"
transform="scale(0.001,-0.001)"/>

<path d="M756,299c0,0,75,0,129,52c0,0,55,51,55,123l-3,30c0,0,-13,46,-63,74c0,0,-51,29,-101,29c0,0,-70,0,-118,-51c0,0,-47,-50,-47,-116c0,0,0,-67,50,-113c0,0,46,-24,92,-28Zm64,-87c0,0,-128,0,-220,82c0,0,-91,82,-91,180c0,0,0,99,64,162c0,0,64,62,159,62c0,0,128,0,212,-83c0,0,84,-83,84,-192c0,0,0,-91,-62,-151c0,0,-63,-60,-146,-60ZM666,-30c0,0,-182,0,-341,126C325,96,165,223,90,429l34,77H296c0,0,19,39,19,102l-2,214H0l-45,76l14,31H981l46,-76l-14,-31H376l62,-55V579c0,0,0,-60,-23,-102c0,0,-24,-42,-148,-190c0,0,57,-107,152,-154c0,0,94,-47,203,-47c0,0,99,0,185,32L836,0c0,0,-75,-30,-170,-30Z"
id="f6_l3"
transform="scale(0.001,-0.001)"/>

<path d="M570,78c0,0,66,17,105,54c0,0,40,38,40,88c0,0,0,40,-23,66c0,0,-23,26,-58,26c0,0,-40,0,-71,-33c0,0,-31,-33,-31,-90c0,0,0,-55,38,-111Zm657,111c0,0,72,0,139,39c0,0,67,39,104,113V822H617l66,-58V701h342c0,0,99,-3,190,-78c0,0,90,-75,90,-152c0,0,0,-58,-61,-101c0,0,-60,-43,-168,-54c0,0,15,-59,44,-98c0,0,46,-29,107,-29ZM1560,-80l-90,58V147c0,0,-69,-64,-158,-64c0,0,-116,0,-219,78c0,0,-103,79,-166,216l20,55c0,0,243,8,243,89c0,0,0,37,-53,47c0,0,-54,11,-181,11H683V521H420c0,0,-99,0,-162,-57c0,0,-62,-58,-62,-146c0,0,0,-121,105,-208c0,0,118,-41,188,-41l29,1l-69,46c0,0,-36,55,-36,115c0,0,0,73,48,123c0,0,49,49,123,49c0,0,87,0,151,-74c0,0,64,-74,64,-162c0,0,0,-94,-71,-153c0,0,-71,-59,-190,-59c0,0,-182,0,-322,128C216,83,76,211,76,368c0,0,0,122,91,201c0,0,90,79,238,79H564V822H0l-45,76l14,31H1734l46,-76l-14,-31H1531l66,-58V-69l-37,-11Z"
id="f6_g9"
transform="scale(0.001,-0.001)"/>

<path d="M526,-266c0,0,-66,24,-103,79c0,0,32,69,83,101c0,0,55,-20,99,-80c0,0,-26,-67,-79,-100ZM570,78c0,0,66,17,105,54c0,0,40,38,40,88c0,0,0,40,-23,66c0,0,-23,26,-58,26c0,0,-40,0,-71,-33c0,0,-31,-33,-31,-90c0,0,0,-55,38,-111ZM538,-45c0,0,-182,0,-322,128C216,83,76,211,76,368c0,0,0,122,91,201c0,0,90,79,238,79H564V822H0l-45,76l14,31H853l45,-76L885,822H617l66,-58V521H420c0,0,-99,0,-162,-57c0,0,-62,-58,-62,-146c0,0,0,-121,105,-208c0,0,118,-41,188,-41l29,1l-69,46c0,0,-36,55,-36,115c0,0,0,73,48,123c0,0,49,49,123,49c0,0,87,0,151,-74c0,0,64,-74,64,-162c0,0,0,-94,-71,-153c0,0,-71,-59,-190,-59Z"
id="f6_ci"
transform="scale(0.001,-0.001)"/>

<path d="M61,-393c0,0,-156,214,-210,261c0,0,-55,47,-110,47c0,0,-53,0,-85,-29c0,0,-32,-30,-32,-71c0,0,0,-48,38,-80l137,87l58,-107c0,0,-67,-52,-134,-52c0,0,-73,0,-134,60c0,0,-60,60,-60,133c0,0,0,67,56,117c0,0,55,50,130,50c0,0,78,0,160,-69c0,0,82,-71,246,-309L61,-393Z"
id="f6_of"
transform="scale(0.001,-0.001)"/>

<path d="M228,-49L138,8V822H0l-45,76l14,31H134c0,0,-91,93,-91,202c0,0,0,105,85,170c0,0,86,65,236,65c0,0,340,0,742,-350l-50,-46c0,0,-182,135,-340,208c0,0,-158,73,-302,73c0,0,-113,0,-183,-48c0,0,-69,-48,-69,-132c0,0,0,-63,53,-142H402l46,-76L434,822H199l65,-58V-39L228,-49Z"
id="f6_nt"
transform="scale(0.001,-0.001)"/>

<path d="M725,307c0,0,-95,0,-218,78c0,0,-123,78,-188,78c0,0,-54,0,-95,-34c0,0,-41,-34,-73,-100L93,362c0,0,38,88,101,146c0,0,63,59,148,59c0,0,90,0,214,-78c0,0,124,-79,188,-79c0,0,63,0,106,34c0,0,42,33,85,104l60,-40c0,0,-32,-66,-101,-134c0,0,-70,-67,-169,-67Z"
id="f7_4r"
transform="scale(0.001,-0.001)"/>

<path d="M435,0V856c0,0,-48,-47,-127,-93c0,0,-79,-46,-142,-69V824c0,0,113,52,197,128c0,0,85,75,120,146h86V0Z"
id="f8_l"
transform="scale(0.001,-0.001)"/>

<path d="M412,-18c0,0,-144,0,-239,85c0,0,-95,86,-108,222l133,18c0,0,24,-114,79,-164c0,0,55,-50,135,-50c0,0,96,0,161,65c0,0,65,66,65,163c0,0,0,92,-61,152c0,0,-60,60,-153,60c0,0,-38,0,-95,-15l15,119c0,0,13,-2,21,-2c0,0,86,0,155,45c0,0,69,44,69,137c0,0,0,74,-50,122c0,0,-50,49,-129,49c0,0,-79,0,-131,-50c0,0,-52,-49,-67,-147L78,815c0,0,25,135,112,209c0,0,87,74,217,74c0,0,89,0,164,-38c0,0,76,-39,116,-105c0,0,40,-66,40,-141c0,0,0,-70,-39,-129c0,0,-38,-58,-112,-92c0,0,97,-22,151,-93c0,0,53,-70,53,-176c0,0,0,-143,-104,-243c0,0,-105,-99,-264,-99Z"
id="f8_n"
transform="scale(0.001,-0.001)"/>


</defs>
</svg>