<?xml version="1.0" encoding="UTF-8" standalone="no"?>
<!DOCTYPE svg PUBLIC "-//W3C//DTD SVG 1.1//EN"
"http://www.w3.org/Graphics/SVG/1.1/DTD/svg11.dtd">
<svg viewBox="0 0 641 910" version="1.1" xmlns="http://www.w3.org/2000/svg" xmlns:xlink="http://www.w3.org/1999/xlink">
<defs>
<clipPath id="c0_65"><path d="M0,909.8V0H641.7V909.8Z"/></clipPath>
<clipPath id="c1_65"><path d="M0,908.6V0H641.7V908.6Z"/></clipPath>
<style type="text/css"><![CDATA[
.g0_65{
fill: #FFFFFF;
}
.g1_65{
}
]]></style>
</defs>
<path d="M0,0H641.7V909.8H0V0Z" class="g0_65"/>
<path d="M0,0H641.7V909.8H0V0Z" class="g0_65"/>
<g clip-path="url(#c0_65)">
<path d="M0,-52767.8H641.7V53677.7H0V-52767.8Z" class="g0_65"/>
</g>
<path d="M0,0H641.7V908.6H0V0Z" class="g0_65"/>
<path d="M19.5,60.7H602.7v1.2H19.5V60.7Z" class="g1_65"/>
<g clip-path="url(#c1_65)">
<path d="M0,61.9H641.7V909.8H0V61.9Z" class="g0_65"/>
<g fill="#000000" >
<use xlink:href="#f5_bz" transform="matrix(14,0,0,14,226,82.5)" />
<use xlink:href="#f5_d4" transform="matrix(14,0,0,14,240.6,82.5)" />
<use xlink:href="#f5_c1" transform="matrix(14,0,0,14,240.7,82.5)" />
<use xlink:href="#f5_d4" transform="matrix(14,0,0,14,250.5,82.5)" />
<use xlink:href="#f5_bc" transform="matrix(14,0,0,14,256.5,82.5)" />
<use xlink:href="#f5_c1" transform="matrix(14,0,0,14,271.7,82.5)" />
<use xlink:href="#f5_b9" transform="matrix(14,0,0,14,287.5,82.5)" />
<use xlink:href="#f5_d4" transform="matrix(14,0,0,14,300.3,82.5)" />
<use xlink:href="#f5_am" transform="matrix(14,0,0,14,310.6,82.5)" />
<use xlink:href="#f5_bb" transform="matrix(14,0,0,14,335.5,82.5)" />
<use xlink:href="#f5_d4" transform="matrix(14,0,0,14,349.6,82.5)" />
<use xlink:href="#f5_br" transform="matrix(14,0,0,14,355.3,82.5)" />
<use xlink:href="#f5_ct" transform="matrix(14,0,0,14,368.3,82.5)" />
<use xlink:href="#f5_br" transform="matrix(14,0,0,14,374.8,82.5)" />
<use xlink:href="#f5_ct" transform="matrix(14,0,0,14,387.8,82.5)" />
</g>
<g fill="#222222" >
<use xlink:href="#f6_bz" transform="matrix(14,0,0,14,147,116.9)" />
<use xlink:href="#f6_d4" transform="matrix(14,0,0,14,160.4,116.9)" />
<use xlink:href="#f6_c1" transform="matrix(14,0,0,14,160.3,116.9)" />
<use xlink:href="#f6_d4" transform="matrix(14,0,0,14,168.3,116.9)" />
<use xlink:href="#f6_bc" transform="matrix(14,0,0,14,174.4,116.9)" />
<use xlink:href="#f6_c1" transform="matrix(14,0,0,14,188.2,116.9)" />
<use xlink:href="#f6_b9" transform="matrix(14,0,0,14,202.3,116.9)" />
<use xlink:href="#f6_d4" transform="matrix(14,0,0,14,213.4,116.9)" />
<use xlink:href="#f6_am" transform="matrix(14,0,0,14,223.5,116.9)" />
<use xlink:href="#f6_bb" transform="matrix(14,0,0,14,244.9,116.9)" />
<use xlink:href="#f6_d4" transform="matrix(14,0,0,14,257.7,116.9)" />
<use xlink:href="#f6_br" transform="matrix(14,0,0,14,263.2,116.9)" />
<use xlink:href="#f6_ct" transform="matrix(14,0,0,14,274.9,116.9)" />
<use xlink:href="#f6_br" transform="matrix(14,0,0,14,280.5,116.9)" />
<use xlink:href="#f6_ct" transform="matrix(14,0,0,14,292.2,116.9)" />
<use xlink:href="#f6_bp" transform="matrix(14,0,0,14,303.5,116.9)" />
<use xlink:href="#f6_d4" transform="matrix(14,0,0,14,315.9,116.9)" />
<use xlink:href="#f6_c1" transform="matrix(14,0,0,14,315.8,116.9)" />
<use xlink:href="#f6_ct" transform="matrix(14,0,0,14,324.2,116.9)" />
<use xlink:href="#f6_ax" transform="matrix(14,0,0,14,335.5,116.9)" />
<use xlink:href="#f6_b9" transform="matrix(14,0,0,14,347.3,116.9)" />
<use xlink:href="#f6_bz" transform="matrix(14,0,0,14,368.5,116.9)" />
<use xlink:href="#f6_dj" transform="matrix(14,0,0,14,375.9,117.3)" />
<use xlink:href="#f6_cu" transform="matrix(14,0,0,14,381.8,116.9)" />
<use xlink:href="#f6_br" transform="matrix(14,0,0,14,387.4,116.9)" />
<use xlink:href="#f6_c1" transform="matrix(14,0,0,14,399.1,116.9)" />
<use xlink:href="#f6_bx" transform="matrix(14,0,0,14,413.2,116.9)" />
<use xlink:href="#f6_bt" transform="matrix(14,0,0,14,425.4,116.9)" />
<use xlink:href="#f6_bg" transform="matrix(14,0,0,14,442.8,116.9)" />
<use xlink:href="#f6_ct" transform="matrix(14,0,0,14,457.1,116.9)" />
<use xlink:href="#f6_ax" transform="matrix(14,0,0,14,462.7,116.9)" />
<use xlink:href="#f6_bg" transform="matrix(14,0,0,14,158.4,151.3)" />
<use xlink:href="#f6_bx" transform="matrix(14,0,0,14,172.7,151.3)" />
<use xlink:href="#f6_nv" transform="matrix(14,0,0,14,190.6,151.3)" />
<use xlink:href="#f6_ba" transform="matrix(14,0,0,14,196.3,151.3)" />
<use xlink:href="#f6_ch" transform="matrix(14,0,0,14,213,151.3)" />
<use xlink:href="#f6_b9" transform="matrix(14,0,0,14,225.7,151.3)" />
<use xlink:href="#f6_oc" transform="matrix(14,0,0,14,241.2,151.3)" />
<use xlink:href="#f6_ba" transform="matrix(14,0,0,14,252.4,151.3)" />
<use xlink:href="#f6_d8" transform="matrix(14,0,0,14,269.2,151.3)" />
<use xlink:href="#f6_c3" transform="matrix(14,0,0,14,274.8,151.3)" />
<use xlink:href="#f6_cx" transform="matrix(14,0,0,14,289.5,151.1)" />
<use xlink:href="#f6_di" transform="matrix(14,0,0,14,289.7,151.7)" />
<use xlink:href="#f6_bp" transform="matrix(14,0,0,14,295.2,151.3)" />
<use xlink:href="#f6_d8" transform="matrix(14,0,0,14,307.5,151.3)" />
<use xlink:href="#f6_bp" transform="matrix(14,0,0,14,318.8,151.3)" />
<use xlink:href="#f6_d4" transform="matrix(14,0,0,14,331.2,151.3)" />
<use xlink:href="#f6_c1" transform="matrix(14,0,0,14,331.1,151.3)" />
<use xlink:href="#f6_ct" transform="matrix(14,0,0,14,339.4,151.3)" />
<use xlink:href="#f6_br" transform="matrix(14,0,0,14,350.7,151.3)" />
<use xlink:href="#f6_c8" transform="matrix(14,0,0,14,362.4,151.3)" />
<use xlink:href="#f6_dr" transform="matrix(14,0,0,14,378.7,151.3)" />
<use xlink:href="#f6_bt" transform="matrix(14,0,0,14,378.3,151.3)" />
<use xlink:href="#f6_cc" transform="matrix(14,0,0,14,395.6,151.3)" />
<use xlink:href="#f6_d8" transform="matrix(14,0,0,14,407.3,151.3)" />
<use xlink:href="#f6_bg" transform="matrix(14,0,0,14,418.5,151.3)" />
<use xlink:href="#f6_ct" transform="matrix(14,0,0,14,432.8,151.3)" />
<use xlink:href="#f6_ax" transform="matrix(14,0,0,14,438.4,151.3)" />
<use xlink:href="#f6_2s" transform="matrix(14,0,0,14,456,151.3)" />
<use xlink:href="#f6_bg" transform="matrix(14,0,0,14,161.9,220)" />
<use xlink:href="#f6_bx" transform="matrix(14,0,0,14,176.1,220)" />
<use xlink:href="#f6_am" transform="matrix(14,0,0,14,194.1,220)" />
<use xlink:href="#f6_c1" transform="matrix(14,0,0,14,215.6,220)" />
<use xlink:href="#f6_bp" transform="matrix(14,0,0,14,223.9,220)" />
<use xlink:href="#f6_cv" transform="matrix(14,0,0,14,236.3,220)" />
<use xlink:href="#f6_cc" transform="matrix(14,0,0,14,247.5,220)" />
<use xlink:href="#f6_d8" transform="matrix(14,0,0,14,259.2,220)" />
<use xlink:href="#f6_bp" transform="matrix(14,0,0,14,270.4,220)" />
<use xlink:href="#f6_d4" transform="matrix(14,0,0,14,282.9,220)" />
<use xlink:href="#f6_c1" transform="matrix(14,0,0,14,282.8,220)" />
<use xlink:href="#f6_cv" transform="matrix(14,0,0,14,291.1,220)" />
<use xlink:href="#f6_bp" transform="matrix(14,0,0,14,302.4,220)" />
<use xlink:href="#f6_d8" transform="matrix(14,0,0,14,314.7,220)" />
<use xlink:href="#f6_bz" transform="matrix(14,0,0,14,326,220)" />
<use xlink:href="#f6_cw" transform="matrix(14,0,0,14,339.9,219.9)" />
<use xlink:href="#f6_bh" transform="matrix(14,0,0,14,339.4,220)" />
<use xlink:href="#f6_d4" transform="matrix(14,0,0,14,356.3,220)" />
<use xlink:href="#f6_bc" transform="matrix(14,0,0,14,361.8,220)" />
<use xlink:href="#f6_dj" transform="matrix(14,0,0,14,369.2,220.4)" />
<use xlink:href="#f6_bk" transform="matrix(14,0,0,14,375.7,220)" />
<use xlink:href="#f6_cv" transform="matrix(14,0,0,14,387.3,220)" />
<use xlink:href="#f6_cb" transform="matrix(14,0,0,14,398.6,220)" />
<use xlink:href="#f6_cw" transform="matrix(14,0,0,14,414,219.9)" />
<use xlink:href="#f6_bt" transform="matrix(14,0,0,14,413.4,220)" />
<use xlink:href="#f6_ct" transform="matrix(14,0,0,14,425.1,220)" />
<use xlink:href="#f6_ao" transform="matrix(14,0,0,14,430.8,220)" />
<use xlink:href="#f6_br" transform="matrix(14,0,0,14,447.9,220)" />
<use xlink:href="#f6_d4" transform="matrix(14,0,0,14,459.2,220)" />
<use xlink:href="#f6_bz" transform="matrix(14,0,0,14,165.3,254.4)" />
<use xlink:href="#f6_cw" transform="matrix(14,0,0,14,179.2,254.3)" />
<use xlink:href="#f6_bh" transform="matrix(14,0,0,14,178.6,254.4)" />
<use xlink:href="#f6_d4" transform="matrix(14,0,0,14,195.6,254.4)" />
<use xlink:href="#f6_c1" transform="matrix(14,0,0,14,201.1,254.4)" />
<use xlink:href="#f6_d8" transform="matrix(14,0,0,14,209.5,254.4)" />
<use xlink:href="#f6_bg" transform="matrix(14,0,0,14,215.1,254.4)" />
<use xlink:href="#f6_cb" transform="matrix(14,0,0,14,235,254.4)" />
<use xlink:href="#f6_c7" transform="matrix(14,0,0,14,249.9,254.4)" />
<use xlink:href="#f6_d4" transform="matrix(14,0,0,14,262.1,254.4)" />
<use xlink:href="#f6_c1" transform="matrix(14,0,0,14,262,254.4)" />
<use xlink:href="#f6_d4" transform="matrix(14,0,0,14,269.9,254.4)" />
<use xlink:href="#f6_br" transform="matrix(14,0,0,14,276,254.4)" />
<use xlink:href="#f6_ct" transform="matrix(14,0,0,14,287.7,254.4)" />
<use xlink:href="#f6_br" transform="matrix(14,0,0,14,293.3,254.4)" />
<use xlink:href="#f6_ct" transform="matrix(14,0,0,14,305,254.4)" />
<use xlink:href="#f6_bp" transform="matrix(14,0,0,14,316.3,254.4)" />
<use xlink:href="#f6_d4" transform="matrix(14,0,0,14,328.7,254.4)" />
<use xlink:href="#f6_c1" transform="matrix(14,0,0,14,328.6,254.4)" />
<use xlink:href="#f6_cv" transform="matrix(14,0,0,14,337,254.4)" />
<use xlink:href="#f6_bz" transform="matrix(14,0,0,14,348.2,254.4)" />
<use xlink:href="#f6_cx" transform="matrix(14,0,0,14,361.5,254.3)" />
<use xlink:href="#f6_c1" transform="matrix(14,0,0,14,361.6,254.4)" />
<use xlink:href="#f6_bp" transform="matrix(14,0,0,14,370,254.4)" />
<use xlink:href="#f6_cu" transform="matrix(14,0,0,14,387.9,254.4)" />
<use xlink:href="#f6_br" transform="matrix(14,0,0,14,393.6,254.4)" />
<use xlink:href="#f6_ba" transform="matrix(14,0,0,14,405.2,254.4)" />
<use xlink:href="#f6_ct" transform="matrix(14,0,0,14,422,254.4)" />
<use xlink:href="#f6_ao" transform="matrix(14,0,0,14,427.6,254.4)" />
<use xlink:href="#f6_br" transform="matrix(14,0,0,14,444.7,254.4)" />
<use xlink:href="#f6_d4" transform="matrix(14,0,0,14,456,254.4)" />
<use xlink:href="#f6_bg" transform="matrix(14,0,0,14,145.8,288.8)" />
<use xlink:href="#f6_bx" transform="matrix(14,0,0,14,160.1,288.8)" />
<use xlink:href="#f6_by" transform="matrix(14,0,0,14,178,288.8)" />
<use xlink:href="#f6_bg" transform="matrix(14,0,0,14,192,288.8)" />
<use xlink:href="#f6_bt" transform="matrix(14,0,0,14,206.3,288.8)" />
<use xlink:href="#f6_b9" transform="matrix(14,0,0,14,223.6,288.8)" />
<use xlink:href="#f6_c1" transform="matrix(14,0,0,14,239.1,288.8)" />
<use xlink:href="#f6_d4" transform="matrix(14,0,0,14,247.1,288.8)" />
<use xlink:href="#f6_bb" transform="matrix(14,0,0,14,247.5,288.8)" />
<use xlink:href="#f6_ct" transform="matrix(14,0,0,14,260.1,288.8)" />
<use xlink:href="#f6_b9" transform="matrix(14,0,0,14,271.4,288.8)" />
<use xlink:href="#f6_d8" transform="matrix(14,0,0,14,286.9,288.8)" />
<use xlink:href="#f6_ao" transform="matrix(14,0,0,14,292.5,288.8)" />
<use xlink:href="#f6_bz" transform="matrix(14,0,0,14,309.7,288.8)" />
<use xlink:href="#f6_cw" transform="matrix(14,0,0,14,323.6,288.6)" />
<use xlink:href="#f6_bh" transform="matrix(14,0,0,14,323,288.8)" />
<use xlink:href="#f6_b9" transform="matrix(14,0,0,14,339.8,288.8)" />
<use xlink:href="#f6_d8" transform="matrix(14,0,0,14,355.3,288.8)" />
<use xlink:href="#f6_by" transform="matrix(14,0,0,14,366.6,288.8)" />
<use xlink:href="#f6_cv" transform="matrix(14,0,0,14,380.6,288.8)" />
<use xlink:href="#f6_cb" transform="matrix(14,0,0,14,397.5,288.8)" />
<use xlink:href="#f6_cw" transform="matrix(14,0,0,14,412.9,288.7)" />
<use xlink:href="#f6_bt" transform="matrix(14,0,0,14,412.4,288.8)" />
<use xlink:href="#f6_ct" transform="matrix(14,0,0,14,424.1,288.8)" />
<use xlink:href="#f6_ao" transform="matrix(14,0,0,14,429.7,288.8)" />
<use xlink:href="#f6_br" transform="matrix(14,0,0,14,446.9,288.8)" />
<use xlink:href="#f6_d4" transform="matrix(14,0,0,14,458.1,288.8)" />
<use xlink:href="#f6_2s" transform="matrix(14,0,0,14,469.9,288.8)" />
<use xlink:href="#f6_bz" transform="matrix(14,0,0,14,165.3,357.5)" />
<use xlink:href="#f6_d5" transform="matrix(14,0,0,14,178.8,357.5)" />
<use xlink:href="#f6_am" transform="matrix(14,0,0,14,184.3,357.5)" />
<use xlink:href="#f6_bp" transform="matrix(14,0,0,14,205.8,357.5)" />
<use xlink:href="#f6_d4" transform="matrix(14,0,0,14,218.2,357.5)" />
<use xlink:href="#f6_bg" transform="matrix(14,0,0,14,223.8,357.5)" />
<use xlink:href="#f6_ct" transform="matrix(14,0,0,14,238,357.5)" />
<use xlink:href="#f6_bp" transform="matrix(14,0,0,14,243.7,357.5)" />
<use xlink:href="#f6_d4" transform="matrix(14,0,0,14,256.1,357.5)" />
<use xlink:href="#f6_br" transform="matrix(14,0,0,14,261.6,357.5)" />
<use xlink:href="#f6_ct" transform="matrix(14,0,0,14,273.3,357.5)" />
<use xlink:href="#f6_br" transform="matrix(14,0,0,14,278.9,357.5)" />
<use xlink:href="#f6_ct" transform="matrix(14,0,0,14,290.6,357.5)" />
<use xlink:href="#f6_bp" transform="matrix(14,0,0,14,301.9,357.5)" />
<use xlink:href="#f6_cw" transform="matrix(14,0,0,14,314.7,357.4)" />
<use xlink:href="#f6_bh" transform="matrix(14,0,0,14,314.2,357.5)" />
<use xlink:href="#f6_b9" transform="matrix(14,0,0,14,331,357.5)" />
<use xlink:href="#f6_d8" transform="matrix(14,0,0,14,346.5,357.5)" />
<use xlink:href="#f6_e6" transform="matrix(14,0,0,14,357.8,357.5)" />
<use xlink:href="#f6_bo" transform="matrix(14,0,0,14,369.8,357.5)" />
<use xlink:href="#f6_ct" transform="matrix(14,0,0,14,384.2,357.5)" />
<use xlink:href="#f6_bz" transform="matrix(14,0,0,14,389.8,357.5)" />
<use xlink:href="#f6_b9" transform="matrix(14,0,0,14,408.8,357.5)" />
<use xlink:href="#f6_n1" transform="matrix(14,0,0,14,424.3,357.5)" />
<use xlink:href="#f6_di" transform="matrix(14,0,0,14,432.6,357.9)" />
<use xlink:href="#f6_bb" transform="matrix(14,0,0,14,437.5,357.5)" />
<use xlink:href="#f6_ct" transform="matrix(14,0,0,14,450.1,357.5)" />
<use xlink:href="#f6_bg" transform="matrix(14,0,0,14,165.3,391.9)" />
<use xlink:href="#f6_d8" transform="matrix(14,0,0,14,179.6,391.9)" />
<use xlink:href="#f6_bz" transform="matrix(14,0,0,14,190.8,391.9)" />
<use xlink:href="#f6_d4" transform="matrix(14,0,0,14,204.3,391.9)" />
<use xlink:href="#f6_c1" transform="matrix(14,0,0,14,204.2,391.9)" />
<use xlink:href="#f6_d4" transform="matrix(14,0,0,14,212.2,391.9)" />
<use xlink:href="#f6_c3" transform="matrix(14,0,0,14,218.2,391.9)" />
<use xlink:href="#f6_ct" transform="matrix(14,0,0,14,232.9,391.9)" />
<use xlink:href="#f6_c0" transform="matrix(14,0,0,14,238.6,391.9)" />
<use xlink:href="#f6_b9" transform="matrix(14,0,0,14,251.1,391.9)" />
<use xlink:href="#f6_cc" transform="matrix(14,0,0,14,272.3,391.9)" />
<use xlink:href="#f6_d8" transform="matrix(14,0,0,14,283.9,391.9)" />
<use xlink:href="#f6_bb" transform="matrix(14,0,0,14,289.5,391.9)" />
<use xlink:href="#f6_ct" transform="matrix(14,0,0,14,302.1,391.9)" />
<use xlink:href="#f6_c7" transform="matrix(14,0,0,14,313.4,391.9)" />
<use xlink:href="#f6_d8" transform="matrix(14,0,0,14,325.5,391.9)" />
<use xlink:href="#f6_bp" transform="matrix(14,0,0,14,336.8,391.9)" />
<use xlink:href="#f6_d4" transform="matrix(14,0,0,14,349.2,391.9)" />
<use xlink:href="#f6_c1" transform="matrix(14,0,0,14,349.1,391.9)" />
<use xlink:href="#f6_ct" transform="matrix(14,0,0,14,357.5,391.9)" />
<use xlink:href="#f6_b9" transform="matrix(14,0,0,14,368.7,391.9)" />
<use xlink:href="#f6_ct" transform="matrix(14,0,0,14,384.2,391.9)" />
<use xlink:href="#f6_bz" transform="matrix(14,0,0,14,389.9,391.9)" />
<use xlink:href="#f6_b9" transform="matrix(14,0,0,14,408.9,391.9)" />
<use xlink:href="#f6_n1" transform="matrix(14,0,0,14,424.4,391.9)" />
<use xlink:href="#f6_dj" transform="matrix(14,0,0,14,429,392.3)" />
<use xlink:href="#f6_bb" transform="matrix(14,0,0,14,437.5,391.9)" />
<use xlink:href="#f6_ct" transform="matrix(14,0,0,14,450.1,391.9)" />
<use xlink:href="#f6_bp" transform="matrix(14,0,0,14,157.3,426.3)" />
<use xlink:href="#f6_d4" transform="matrix(14,0,0,14,169.7,426.3)" />
<use xlink:href="#f6_c1" transform="matrix(14,0,0,14,169.6,426.3)" />
<use xlink:href="#f6_cv" transform="matrix(14,0,0,14,178,426.3)" />
<use xlink:href="#f6_cb" transform="matrix(14,0,0,14,189.3,426.3)" />
<use xlink:href="#f6_d4" transform="matrix(14,0,0,14,204.3,426.3)" />
<use xlink:href="#f6_c7" transform="matrix(14,0,0,14,204.1,426.3)" />
<use xlink:href="#f6_ct" transform="matrix(14,0,0,14,216.2,426.3)" />
<use xlink:href="#f6_b9" transform="matrix(14,0,0,14,227.5,426.3)" />
<use xlink:href="#f6_c1" transform="matrix(14,0,0,14,243,426.3)" />
<use xlink:href="#f6_bt" transform="matrix(14,0,0,14,251.4,426.3)" />
<use xlink:href="#f6_d4" transform="matrix(14,0,0,14,263.2,426.3)" />
<use xlink:href="#f6_cb" transform="matrix(14,0,0,14,268.8,426.3)" />
<use xlink:href="#f6_d4" transform="matrix(14,0,0,14,283.8,426.3)" />
<use xlink:href="#f6_bz" transform="matrix(14,0,0,14,289.3,426.3)" />
<use xlink:href="#f6_d4" transform="matrix(14,0,0,14,302.8,426.3)" />
<use xlink:href="#f6_c1" transform="matrix(14,0,0,14,302.6,426.3)" />
<use xlink:href="#f6_cv" transform="matrix(14,0,0,14,311,426.3)" />
<use xlink:href="#f6_cu" transform="matrix(14,0,0,14,322.3,426.3)" />
<use xlink:href="#f6_b9" transform="matrix(14,0,0,14,327.9,426.3)" />
<use xlink:href="#f6_ki" transform="matrix(14,0,0,14,343.4,426.3)" />
<use xlink:href="#f6_bp" transform="matrix(14,0,0,14,365.4,426.3)" />
<use xlink:href="#f6_ba" transform="matrix(14,0,0,14,383.4,426.3)" />
<use xlink:href="#f6_cw" transform="matrix(14,0,0,14,400.6,427.1)" />
<use xlink:href="#f6_c3" transform="matrix(14,0,0,14,400.1,426.3)" />
<use xlink:href="#f6_bg" transform="matrix(14,0,0,14,420.5,426.3)" />
<use xlink:href="#f6_ct" transform="matrix(14,0,0,14,434.7,426.3)" />
<use xlink:href="#f6_ax" transform="matrix(14,0,0,14,440.4,426.3)" />
<use xlink:href="#f6_2s" transform="matrix(14,0,0,14,457.9,426.3)" />
<use xlink:href="#f6_bz" transform="matrix(14,0,0,14,173.3,495)" />
<use xlink:href="#f6_d4" transform="matrix(14,0,0,14,186.8,495)" />
<use xlink:href="#f6_c1" transform="matrix(14,0,0,14,186.7,495)" />
<use xlink:href="#f6_d4" transform="matrix(14,0,0,14,194.6,495)" />
<use xlink:href="#f6_br" transform="matrix(14,0,0,14,200.7,495)" />
<use xlink:href="#f6_ct" transform="matrix(14,0,0,14,212.4,495)" />
<use xlink:href="#f6_br" transform="matrix(14,0,0,14,218,495)" />
<use xlink:href="#f6_ct" transform="matrix(14,0,0,14,229.7,495)" />
<use xlink:href="#f6_bp" transform="matrix(14,0,0,14,241,495)" />
<use xlink:href="#f6_d4" transform="matrix(14,0,0,14,253.4,495)" />
<use xlink:href="#f6_c1" transform="matrix(14,0,0,14,253.3,495)" />
<use xlink:href="#f6_ct" transform="matrix(14,0,0,14,261.7,495)" />
<use xlink:href="#f6_bv" transform="matrix(14,0,0,14,272.9,495)" />
<use xlink:href="#f6_lt" transform="matrix(14,0,0,14,284.8,495)" />
<use xlink:href="#f6_c3" transform="matrix(14,0,0,14,295.1,495)" />
<use xlink:href="#f6_ct" transform="matrix(14,0,0,14,309.8,495)" />
<use xlink:href="#f6_b9" transform="matrix(14,0,0,14,321.1,495)" />
<use xlink:href="#f6_by" transform="matrix(14,0,0,14,336.6,495)" />
<use xlink:href="#f6_cv" transform="matrix(14,0,0,14,350.6,495)" />
<use xlink:href="#f6_bt" transform="matrix(14,0,0,14,361.9,495)" />
<use xlink:href="#f6_cc" transform="matrix(14,0,0,14,373.6,495)" />
<use xlink:href="#f6_cv" transform="matrix(14,0,0,14,385.2,495)" />
<use xlink:href="#f6_dj" transform="matrix(14,0,0,14,389.9,495.9)" />
<use xlink:href="#f6_bf" transform="matrix(14,0,0,14,396.5,495)" />
<use xlink:href="#f6_d8" transform="matrix(14,0,0,14,412.2,495)" />
<use xlink:href="#f6_bm" transform="matrix(14,0,0,14,417.8,495)" />
<use xlink:href="#f6_cx" transform="matrix(14,0,0,14,429,495.8)" />
<use xlink:href="#f6_dj" transform="matrix(14,0,0,14,427.2,495.4)" />
<use xlink:href="#f6_bb" transform="matrix(14,0,0,14,430.5,495)" />
<use xlink:href="#f6_ct" transform="matrix(14,0,0,14,443.1,495)" />
<use xlink:href="#f6_bz" transform="matrix(14,0,0,14,172.2,529.4)" />
<use xlink:href="#f6_d5" transform="matrix(14,0,0,14,185.6,529.4)" />
<use xlink:href="#f6_b9" transform="matrix(14,0,0,14,191.2,529.4)" />
<use xlink:href="#f6_by" transform="matrix(14,0,0,14,206.7,529.4)" />
<use xlink:href="#f6_cv" transform="matrix(14,0,0,14,220.6,529.4)" />
<use xlink:href="#f6_bp" transform="matrix(14,0,0,14,231.9,529.4)" />
<use xlink:href="#f6_d4" transform="matrix(14,0,0,14,244.4,529.4)" />
<use xlink:href="#f6_c1" transform="matrix(14,0,0,14,244.2,529.4)" />
<use xlink:href="#f6_d4" transform="matrix(14,0,0,14,252.2,529.4)" />
<use xlink:href="#f6_br" transform="matrix(14,0,0,14,258.3,529.4)" />
<use xlink:href="#f6_c1" transform="matrix(14,0,0,14,270,529.4)" />
<use xlink:href="#f6_cb" transform="matrix(14,0,0,14,284,529.4)" />
<use xlink:href="#f6_d4" transform="matrix(14,0,0,14,299,529.4)" />
<use xlink:href="#f6_c0" transform="matrix(14,0,0,14,304.5,529.4)" />
<use xlink:href="#f6_cc" transform="matrix(14,0,0,14,317.1,529.4)" />
<use xlink:href="#f6_bz" transform="matrix(14,0,0,14,334.4,529.4)" />
<use xlink:href="#f6_cw" transform="matrix(14,0,0,14,348.2,529.3)" />
<use xlink:href="#f6_di" transform="matrix(14,0,0,14,345.5,529.8)" />
<use xlink:href="#f6_cc" transform="matrix(14,0,0,14,347.7,529.4)" />
<use xlink:href="#f6_bt" transform="matrix(14,0,0,14,365,529.4)" />
<use xlink:href="#f6_cc" transform="matrix(14,0,0,14,376.7,529.4)" />
<use xlink:href="#f6_cv" transform="matrix(14,0,0,14,388.3,529.4)" />
<use xlink:href="#f6_dj" transform="matrix(14,0,0,14,393,530.3)" />
<use xlink:href="#f6_bz" transform="matrix(14,0,0,14,399.6,529.4)" />
<use xlink:href="#f6_d8" transform="matrix(14,0,0,14,412.9,529.4)" />
<use xlink:href="#f6_bm" transform="matrix(14,0,0,14,418.5,529.4)" />
<use xlink:href="#f6_cx" transform="matrix(14,0,0,14,429.7,530.2)" />
<use xlink:href="#f6_di" transform="matrix(14,0,0,14,431.2,529.8)" />
<use xlink:href="#f6_bb" transform="matrix(14,0,0,14,431.2,529.4)" />
<use xlink:href="#f6_ct" transform="matrix(14,0,0,14,443.8,529.4)" />
<use xlink:href="#f6_bp" transform="matrix(14,0,0,14,151.6,563.8)" />
<use xlink:href="#f6_d4" transform="matrix(14,0,0,14,164,563.8)" />
<use xlink:href="#f6_c1" transform="matrix(14,0,0,14,163.9,563.8)" />
<use xlink:href="#f6_d4" transform="matrix(14,0,0,14,171.8,563.8)" />
<use xlink:href="#f6_be" transform="matrix(14,0,0,14,177.9,563.8)" />
<use xlink:href="#f6_c1" transform="matrix(14,0,0,14,191.9,563.8)" />
<use xlink:href="#f6_bo" transform="matrix(14,0,0,14,200.3,563.8)" />
<use xlink:href="#f6_d8" transform="matrix(14,0,0,14,214.6,563.8)" />
<use xlink:href="#f6_dj" transform="matrix(14,0,0,14,218.9,564.6)" />
<use xlink:href="#f6_bz" transform="matrix(14,0,0,14,225.9,563.8)" />
<use xlink:href="#f6_oz" transform="matrix(14,0,0,14,239.4,563.8)" />
<use xlink:href="#f6_c1" transform="matrix(14,0,0,14,244.9,563.8)" />
<use xlink:href="#f6_cc" transform="matrix(14,0,0,14,253.3,563.8)" />
<use xlink:href="#f6_b9" transform="matrix(14,0,0,14,270.6,563.8)" />
<use xlink:href="#f6_c1" transform="matrix(14,0,0,14,286.1,563.8)" />
<use xlink:href="#f6_bz" transform="matrix(14,0,0,14,300.1,563.8)" />
<use xlink:href="#f6_d4" transform="matrix(14,0,0,14,313.6,563.8)" />
<use xlink:href="#f6_c1" transform="matrix(14,0,0,14,313.5,563.8)" />
<use xlink:href="#f6_cv" transform="matrix(14,0,0,14,321.8,563.8)" />
<use xlink:href="#f6_bp" transform="matrix(14,0,0,14,333.1,563.8)" />
<use xlink:href="#f6_cd" transform="matrix(14,0,0,14,345.4,563.8)" />
<use xlink:href="#f6_br" transform="matrix(14,0,0,14,360.9,563.8)" />
<use xlink:href="#f6_ob" transform="matrix(14,0,0,14,372.6,563.8)" />
<use xlink:href="#f6_c1" transform="matrix(14,0,0,14,378.2,563.8)" />
<use xlink:href="#f6_bx" transform="matrix(14,0,0,14,392.3,563.8)" />
<use xlink:href="#f6_br" transform="matrix(14,0,0,14,404.6,563.8)" />
<use xlink:href="#f6_c3" transform="matrix(14,0,0,14,416.2,563.8)" />
<use xlink:href="#f6_bg" transform="matrix(14,0,0,14,436.6,563.8)" />
<use xlink:href="#f6_ct" transform="matrix(14,0,0,14,450.9,563.8)" />
<use xlink:href="#f6_ax" transform="matrix(14,0,0,14,456.5,563.8)" />
<use xlink:href="#f6_bt" transform="matrix(14,0,0,14,158.4,632.5)" />
<use xlink:href="#f6_bg" transform="matrix(14,0,0,14,170.1,632.5)" />
<use xlink:href="#f6_br" transform="matrix(14,0,0,14,184.4,632.5)" />
<use xlink:href="#f6_ob" transform="matrix(14,0,0,14,196.1,632.5)" />
<use xlink:href="#f6_b9" transform="matrix(14,0,0,14,201.7,632.5)" />
<use xlink:href="#f6_c1" transform="matrix(14,0,0,14,222.9,632.5)" />
<use xlink:href="#f6_cc" transform="matrix(14,0,0,14,231.2,632.5)" />
<use xlink:href="#f6_oz" transform="matrix(14,0,0,14,243.2,632.5)" />
<use xlink:href="#f6_bb" transform="matrix(14,0,0,14,242.8,632.5)" />
<use xlink:href="#f6_d4" transform="matrix(14,0,0,14,255.6,632.5)" />
<use xlink:href="#f6_br" transform="matrix(14,0,0,14,261.1,632.5)" />
<use xlink:href="#f6_d8" transform="matrix(14,0,0,14,272.8,632.5)" />
<use xlink:href="#f6_bt" transform="matrix(14,0,0,14,278.4,632.5)" />
<use xlink:href="#f6_d8" transform="matrix(14,0,0,14,290.1,632.5)" />
<use xlink:href="#f6_dj" transform="matrix(14,0,0,14,294.4,633.4)" />
<use xlink:href="#f6_b8" transform="matrix(14,0,0,14,301.4,632.5)" />
<use xlink:href="#f6_c1" transform="matrix(14,0,0,14,322.9,632.5)" />
<use xlink:href="#f6_am" transform="matrix(14,0,0,14,336.9,632.5)" />
<use xlink:href="#f6_bt" transform="matrix(14,0,0,14,358.4,632.5)" />
<use xlink:href="#f6_ct" transform="matrix(14,0,0,14,370.1,632.5)" />
<use xlink:href="#f6_bg" transform="matrix(14,0,0,14,381.4,632.5)" />
<use xlink:href="#f6_ct" transform="matrix(14,0,0,14,395.7,632.5)" />
<use xlink:href="#f6_bt" transform="matrix(14,0,0,14,401.3,632.5)" />
<use xlink:href="#f6_ct" transform="matrix(14,0,0,14,413,632.5)" />
<use xlink:href="#f6_c1" transform="matrix(14,0,0,14,424.3,632.5)" />
<use xlink:href="#f6_cc" transform="matrix(14,0,0,14,432.7,632.5)" />
<use xlink:href="#f6_d4" transform="matrix(14,0,0,14,444.6,632.5)" />
<use xlink:href="#f6_bb" transform="matrix(14,0,0,14,444.3,632.5)" />
<use xlink:href="#f6_ct" transform="matrix(14,0,0,14,456.9,632.5)" />
<use xlink:href="#f6_cc" transform="matrix(14,0,0,14,144.7,666.9)" />
<use xlink:href="#f6_bz" transform="matrix(14,0,0,14,156.3,666.9)" />
<use xlink:href="#f6_br" transform="matrix(14,0,0,14,175.3,666.9)" />
<use xlink:href="#f6_d8" transform="matrix(14,0,0,14,187,666.9)" />
<use xlink:href="#f6_bt" transform="matrix(14,0,0,14,192.6,666.9)" />
<use xlink:href="#f6_d8" transform="matrix(14,0,0,14,204.3,666.9)" />
<use xlink:href="#f6_dj" transform="matrix(14,0,0,14,208.6,667.7)" />
<use xlink:href="#f6_b9" transform="matrix(14,0,0,14,215.6,666.9)" />
<use xlink:href="#f6_ct" transform="matrix(14,0,0,14,231.1,666.9)" />
<use xlink:href="#f6_bz" transform="matrix(14,0,0,14,242.4,666.9)" />
<use xlink:href="#f6_d4" transform="matrix(14,0,0,14,255.8,666.9)" />
<use xlink:href="#f6_c1" transform="matrix(14,0,0,14,255.7,666.9)" />
<use xlink:href="#f6_d4" transform="matrix(14,0,0,14,263.7,666.9)" />
<use xlink:href="#f6_br" transform="matrix(14,0,0,14,269.8,666.9)" />
<use xlink:href="#f6_ct" transform="matrix(14,0,0,14,281.4,666.9)" />
<use xlink:href="#f6_br" transform="matrix(14,0,0,14,287,666.9)" />
<use xlink:href="#f6_ct" transform="matrix(14,0,0,14,298.7,666.9)" />
<use xlink:href="#f6_bx" transform="matrix(14,0,0,14,310,666.9)" />
<use xlink:href="#f6_cb" transform="matrix(14,0,0,14,322.3,666.9)" />
<use xlink:href="#f6_ax" transform="matrix(14,0,0,14,342.8,666.9)" />
<use xlink:href="#f6_b9" transform="matrix(14,0,0,14,354.7,666.9)" />
<use xlink:href="#f6_ns" transform="matrix(14,0,0,14,375.9,666.9)" />
<use xlink:href="#f6_bl" transform="matrix(14,0,0,14,381.5,666.9)" />
<use xlink:href="#f6_b9" transform="matrix(14,0,0,14,393.8,666.9)" />
<use xlink:href="#f6_ct" transform="matrix(14,0,0,14,409.3,666.9)" />
<use xlink:href="#f6_bt" transform="matrix(14,0,0,14,415,666.9)" />
<use xlink:href="#f6_ct" transform="matrix(14,0,0,14,426.7,666.9)" />
<use xlink:href="#f6_c1" transform="matrix(14,0,0,14,438,666.9)" />
<use xlink:href="#f6_cc" transform="matrix(14,0,0,14,446.4,666.9)" />
<use xlink:href="#f6_d4" transform="matrix(14,0,0,14,458.3,666.9)" />
<use xlink:href="#f6_bb" transform="matrix(14,0,0,14,458,666.9)" />
<use xlink:href="#f6_ct" transform="matrix(14,0,0,14,470.6,666.9)" />
<use xlink:href="#f6_cb" transform="matrix(14,0,0,14,155,701.3)" />
<use xlink:href="#f6_br" transform="matrix(14,0,0,14,169.9,701.3)" />
<use xlink:href="#f6_ct" transform="matrix(14,0,0,14,181.5,701.3)" />
<use xlink:href="#f6_cb" transform="matrix(14,0,0,14,192.8,701.3)" />
<use xlink:href="#f6_ct" transform="matrix(14,0,0,14,207.7,701.3)" />
<use xlink:href="#f6_no" transform="matrix(14,0,0,14,213.3,701.3)" />
<use xlink:href="#f6_bq" transform="matrix(14,0,0,14,213.3,701.3)" />
<use xlink:href="#f6_c1" transform="matrix(14,0,0,14,232.2,701.3)" />
<use xlink:href="#f6_cc" transform="matrix(14,0,0,14,240.6,701.3)" />
<use xlink:href="#f6_d4" transform="matrix(14,0,0,14,252.5,701.3)" />
<use xlink:href="#f6_cc" transform="matrix(14,0,0,14,257.8,701.3)" />
<use xlink:href="#f6_bz" transform="matrix(14,0,0,14,269.4,701.3)" />
<use xlink:href="#f6_br" transform="matrix(14,0,0,14,288.4,701.3)" />
<use xlink:href="#f6_d8" transform="matrix(14,0,0,14,300.1,701.3)" />
<use xlink:href="#f6_bt" transform="matrix(14,0,0,14,305.7,701.3)" />
<use xlink:href="#f6_d8" transform="matrix(14,0,0,14,317.5,701.3)" />
<use xlink:href="#f6_dj" transform="matrix(14,0,0,14,321.8,702.1)" />
<use xlink:href="#f6_bg" transform="matrix(14,0,0,14,328.7,701.3)" />
<use xlink:href="#f6_ls" transform="matrix(14,0,0,14,343,701.3)" />
<use xlink:href="#f6_br" transform="matrix(14,0,0,14,351.6,701.3)" />
<use xlink:href="#f6_ob" transform="matrix(14,0,0,14,363.3,701.3)" />
<use xlink:href="#f6_c7" transform="matrix(14,0,0,14,374.6,701.3)" />
<use xlink:href="#f6_d8" transform="matrix(14,0,0,14,386.7,701.3)" />
<use xlink:href="#f6_cu" transform="matrix(14,0,0,14,397.9,701.3)" />
<use xlink:href="#f6_br" transform="matrix(14,0,0,14,403.6,701.3)" />
<use xlink:href="#f6_bt" transform="matrix(14,0,0,14,415.2,701.3)" />
<use xlink:href="#f6_am" transform="matrix(14,0,0,14,432.6,701.3)" />
<use xlink:href="#f6_ax" transform="matrix(14,0,0,14,454.1,701.3)" />
</g>
<g fill="#000000" >
<use xlink:href="#f7_4r" transform="matrix(9,0,0,9,290.2,795.2)" />
<use xlink:href="#f8_p" transform="matrix(9,0,0,9,303,795.2)" />
<use xlink:href="#f8_t" transform="matrix(9,0,0,9,310.7,795.2)" />
<use xlink:href="#f7_4r" transform="matrix(9,0,0,9,321.3,795.2)" />
</g>
</g>
<image preserveAspectRatio="none" x="22" y="801" width="581" height="86" xlink:href="img/1.png"/>
<path d="M226.9,83.6H395.3v1.2H226.9V83.6Z" class="g1_65"/>
<image preserveAspectRatio="none" x="202" y="14" width="217" height="26" xlink:href="img/2.png"/>
<defs>
<path d="M686,512V822H333L435,749l2,-237ZM860,-65L686,29V298H440V168L348,118c0,0,-90,30,-190,128c0,0,-100,98,-127,183l52,83H203L189,822H0L-86,937l32,64H1045l86,-115l-33,-64H828L930,749V-31L860,-65Z"
id="f5_bz"
transform="scale(0.001,-0.001)"/>

<path d="M-289,908l-132,216c0,0,-70,120,-169,120c0,0,-83,0,-200,-80l-130,249c0,0,125,78,234,78c0,0,187,0,349,-241L-159,969L-289,908Z"
id="f5_d4"
transform="scale(0.001,-0.001)"/>

<path d="M545,-97L35,405L87,542H295c0,0,1,5,1,280H0L-86,937l32,64H729L814,886L782,822H445L550,749V547c0,0,0,-75,-41,-127c0,0,-41,-52,-129,-111L709,110V41L545,-97Z"
id="f5_c1"
transform="scale(0.001,-0.001)"/>

<path d="M446,289c0,0,75,0,157,45c0,0,81,45,120,114V822H327c0,0,-58,-40,-58,-102c0,0,0,-37,21,-71c0,0,69,39,164,39c0,0,44,0,91,-10L646,519L614,457l-50,3c0,0,-83,0,-131,-35c0,0,-48,-35,-48,-83c0,0,0,-26,15,-47l46,-6ZM897,-65L723,29V133c0,0,-66,-31,-145,-31c0,0,-156,0,-289,105c0,0,-133,105,-133,231c0,0,0,66,38,123c0,0,-171,99,-171,227l3,34H-22l-87,115l32,64H1082l87,-115l-32,-64H865L967,749V-31L897,-65Z"
id="f5_bc"
transform="scale(0.001,-0.001)"/>

<path d="M300,310c13,0,56,2,103,25c0,0,58,27,100,81V523c0,0,-46,16,-83,16c0,0,-69,0,-111,-45c0,0,-42,-45,-42,-104c0,0,0,-45,28,-80c0,0,2,0,5,0ZM677,-65L503,29V144c0,0,-32,-11,-75,-11c0,0,-147,0,-272,98c0,0,-125,99,-125,233c0,0,0,110,75,185c0,0,76,74,195,74l67,-6L503,646V822H0L-86,937l32,64H1245l86,-115l-32,-64H645L747,749V622c0,0,81,58,165,58c0,0,122,0,213,-99c0,0,91,-98,91,-230c0,0,0,-204,-253,-371L791,157c0,0,110,83,164,139c0,0,53,55,53,106c0,0,0,55,-53,55c0,0,-83,0,-208,-145V-31L677,-65Z"
id="f5_b9"
transform="scale(0.001,-0.001)"/>

<path d="M1128,-65L953,29V322c0,0,-23,-9,-52,-9c0,0,-47,0,-102,25c0,0,11,-42,11,-83c0,0,0,-116,-78,-192c0,0,-78,-76,-203,-76c0,0,-129,0,-261,94c0,0,-132,95,-244,339l123,78c0,0,70,-150,146,-225c0,0,75,-76,168,-76c0,0,72,0,113,40c0,0,42,40,42,90c0,0,0,84,-77,115L387,350L249,556c0,0,86,77,199,83c0,0,119,73,119,163c0,0,0,25,-15,40c0,0,-4,0,-10,0c-19,0,-67,-3,-124,-33c0,0,-76,-39,-146,-106L142,872c0,0,61,65,140,107c0,0,79,42,158,42c0,0,121,0,216,-91c0,0,96,-91,96,-197c0,0,0,-96,-84,-186c0,0,62,-46,142,-46c0,0,88,0,143,52V822H834L749,937l32,64h994l86,-115l-32,-64H1557l102,-73V-31l-70,-34L1415,29V822H1095l103,-73V-31l-70,-34Z"
id="f5_am"
transform="scale(0.001,-0.001)"/>

<path d="M831,-65L657,29V822H332L434,749V200L341,150c0,0,-93,32,-190,121c0,0,-96,90,-125,175l52,83H196l-5,293H0L-86,937l32,64H1016l86,-115l-33,-64H799L901,749V-31L831,-65Z"
id="f5_bb"
transform="scale(0.001,-0.001)"/>

<path d="M700,-327L637,-39c0,0,-43,-9,-85,-9c0,0,-109,0,-228,58c0,0,-119,59,-199,160c0,0,-79,102,-79,220c0,0,0,134,95,216c0,0,94,82,252,85H516V822H0L-86,937l32,64H929l85,-115L982,822H645L747,749V468l2,-4H478c0,0,-98,0,-148,-45c0,0,-50,-46,-50,-110c0,0,0,-68,53,-121c0,0,46,-20,99,-20c0,0,74,0,141,35L555,332l154,56L897,154C897,154,862,87,785,34L933,-233L700,-327Z"
id="f5_br"
transform="scale(0.001,-0.001)"/>

<path d="M277,-65L102,29V822H0L-86,937l32,64H463L548,886L516,822H244L347,749V-31L277,-65Z"
id="f5_ct"
transform="scale(0.001,-0.001)"/>

<path d="M689,445V822H286l65,-58l8,-319ZM779,-49L689,8V328H370V180L296,150c0,0,-56,35,-120,104c0,0,-63,70,-89,131l41,60H238L223,822H0l-45,76l14,31H953l46,-76L985,822H750l66,-58V-39L779,-49Z"
id="f6_bz"
transform="scale(0.001,-0.001)"/>

<path d="M-214,863l-199,281c0,0,-70,92,-157,92c0,0,-69,0,-159,-58l-72,118c0,0,89,73,180,73c0,0,141,0,258,-170L-155,901l-59,-38Z"
id="f6_d4"
transform="scale(0.001,-0.001)"/>

<path d="M527,-71L52,414l34,92H277c0,0,12,32,12,72V822H0l-45,76l14,31H599l46,-76L631,822H350l66,-55V564c0,0,0,-96,-152,-248L610,34L611,8L527,-71Z"
id="f6_c1"
transform="scale(0.001,-0.001)"/>

<path d="M434,225c0,0,84,0,169,42c0,0,85,43,126,126V822H267c0,0,-64,-49,-64,-115c0,0,0,-79,90,-126c0,0,60,35,144,35l67,-6l75,-89L564,490l-51,7H493c0,0,-90,0,-142,-43c0,0,-52,-43,-52,-104c0,0,0,-60,51,-109c0,0,33,-16,84,-16ZM819,-49L729,8V197c0,0,-83,-76,-202,-76c0,0,-130,0,-237,91c0,0,-108,92,-108,196c0,0,0,72,53,128c0,0,-75,42,-115,97c0,0,-41,56,-41,113c0,0,0,38,22,76H0l-45,76l14,31H993l46,-76l-14,-31H790l66,-58V-39L819,-49Z"
id="f6_bc"
transform="scale(0.001,-0.001)"/>

<path d="M283,260c0,0,122,0,209,113V513c0,0,-90,51,-160,51c0,0,-80,0,-129,-50c0,0,-49,-50,-49,-118c0,0,0,-60,35,-110c0,0,45,-26,94,-26ZM582,-49L492,8V211c0,0,-63,-54,-141,-54c0,0,-113,0,-213,92c0,0,-100,92,-100,205c0,0,0,93,69,157c0,0,69,64,162,64c0,0,32,0,64,-9L492,590V822H0l-45,76l14,31H1108l45,-76l-13,-31H553l66,-58V524c0,0,91,89,192,89c0,0,98,0,171,-79c0,0,72,-79,72,-186c0,0,0,-178,-224,-330L736,124c0,0,219,153,219,269c0,0,0,44,-26,75c0,0,-26,32,-81,32c0,0,-109,0,-229,-155V-39L582,-49Z"
id="f6_b9"
transform="scale(0.001,-0.001)"/>

<path d="M959,-49L869,8V367c0,0,-32,-13,-64,-13c0,0,-50,0,-110,25c0,0,23,-52,23,-109c0,0,0,-103,-70,-170c0,0,-70,-66,-182,-66c0,0,-110,0,-222,82c0,0,-111,83,-213,293l68,42c0,0,72,-155,152,-231c0,0,81,-76,178,-76c0,0,83,0,131,49c0,0,48,48,48,117c0,0,0,54,-30,100c0,0,-31,47,-91,65L325,391L257,512c0,0,68,53,156,56c0,0,140,72,140,179c0,0,0,69,-52,99c0,0,-4,1,-11,1c-19,0,-66,-4,-123,-30c0,0,-78,-35,-142,-96L150,823c0,0,119,117,253,117c0,0,98,0,175,-71c0,0,77,-70,77,-159c0,0,0,-103,-94,-180c0,0,39,-23,73,-56c0,0,52,-22,109,-22c0,0,77,0,126,38V822H727l-46,76l14,31h840l46,-76l-13,-31H1332l66,-58V-39l-37,-10L1271,8V822H930l66,-58V-39L959,-49Z"
id="f6_am"
transform="scale(0.001,-0.001)"/>

<path d="M727,-49L637,8V822H278l66,-58V226L270,196c0,0,-64,36,-122,98c0,0,-58,62,-79,122l43,59H217V822H0l-45,76l14,31H901l46,-76L933,822H698l66,-58V-39L727,-49Z"
id="f6_bb"
transform="scale(0.001,-0.001)"/>

<path d="M675,-274L602,21C602,21,550,3,498,3C498,3,347,3,210,118C210,118,73,232,73,373c0,0,0,113,84,184c0,0,84,71,222,72H524V822H0l-45,76l14,31H834l46,-76L866,822H585l66,-58V504l-3,2l3,-3H408c0,0,-95,0,-154,-53c0,0,-58,-53,-58,-132c0,0,0,-49,27,-100c0,0,28,-50,83,-84c0,0,44,-15,96,-15c0,0,91,0,160,46L535,303l101,48L773,188c0,0,-8,-28,-34,-66c0,0,-27,-38,-62,-64L813,-221L675,-274Z"
id="f6_br"
transform="scale(0.001,-0.001)"/>

<path d="M228,-49L138,8V822H0l-45,76l14,31H402l46,-76L434,822H199l65,-58V-39L228,-49Z"
id="f6_ct"
transform="scale(0.001,-0.001)"/>

<path d="M347,-57C347,-57,66,211,66,394c0,0,0,98,74,164c0,0,74,65,225,65H616V822H0l-45,76l14,31H880l46,-76L912,822H677l66,-58V-39L706,-49L616,8V500H428c0,0,-239,0,-239,-161c0,0,0,-136,214,-343L347,-57Z"
id="f6_bp"
transform="scale(0.001,-0.001)"/>

<path d="M830,-253l-123,66c0,0,31,47,31,78c0,0,0,44,-64,84L353,130c0,0,-234,113,-234,325V822H0l-45,76l14,31H848l46,-76L880,822H655l68,-58V561c0,0,0,-176,-41,-241c0,0,-40,-65,-161,-106l-49,82l124,69V822H180l66,-58V283L646,92c0,0,126,-60,176,-110c0,0,50,-51,50,-115c0,0,0,-62,-42,-120Z"
id="f6_ax"
transform="scale(0.001,-0.001)"/>

<path d="M0,1062c0,0,-26,11,-60,36c0,0,-34,26,-51,49c0,0,39,81,91,110c0,0,60,-23,106,-85c0,0,-28,-70,-86,-110Z"
id="f6_dj"
transform="scale(0.001,-0.001)"/>

<path d="M228,-49L138,8V822H0l-45,76l14,31H134c0,0,-91,92,-91,191c0,0,0,105,85,170c0,0,84,65,219,65c0,0,128,0,293,-76c0,0,165,-77,362,-263L958,966c0,0,-177,143,-303,210c0,0,-125,68,-244,68c0,0,-107,0,-175,-50c0,0,-68,-50,-68,-131c0,0,0,-61,49,-134H402l46,-76L434,822H199l65,-58V-39L228,-49Z"
id="f6_cu"
transform="scale(0.001,-0.001)"/>

<path d="M348,229c0,0,57,0,106,17L263,559c0,0,-95,-50,-95,-162c0,0,0,-75,52,-136c0,0,49,-32,128,-32Zm170,48c0,0,61,38,96,91V504c0,0,-131,80,-244,80l-35,-2L518,277ZM704,-49L614,8V193c0,0,-84,-65,-192,-65c0,0,-139,0,-255,98c0,0,-115,98,-115,226c0,0,0,106,77,175c0,0,77,70,189,70c0,0,38,0,75,-9L614,578V822H0l-45,76l14,31H878l46,-76L911,822H675l66,-58V-39L704,-49Z"
id="f6_bx"
transform="scale(0.001,-0.001)"/>

<path d="M663,-49L573,8V445H299V280L226,251c0,0,-105,99,-162,238l63,72H573V822H0l-45,76l14,31H837l46,-76L869,822H634l66,-58V-39L663,-49Z"
id="f6_bt"
transform="scale(0.001,-0.001)"/>

<path d="M845,-49L755,8V513H497c0,0,61,-45,93,-110c0,0,33,-64,33,-128c0,0,0,-90,-58,-144c0,0,-59,-53,-143,-53c0,0,-133,0,-234,139C188,217,87,356,20,596l76,24c0,0,60,-201,127,-306c0,0,67,-105,160,-105c0,0,57,0,91,36c0,0,33,36,33,91c0,0,0,84,-73,159L295,558v71H755V822H0l-45,76l14,31H1019l46,-76l-14,-31H816l66,-58V-39L845,-49Z"
id="f6_bg"
transform="scale(0.001,-0.001)"/>

<path d="M228,-49L138,8V822H0l-45,76l14,31H134c0,0,-90,95,-90,199c0,0,0,111,99,177c0,0,98,67,271,67c0,0,202,0,439,-91c0,0,238,-91,475,-263l-48,-49c0,0,-469,288,-812,288c0,0,-138,0,-220,-49c0,0,-83,-50,-83,-142c0,0,0,-64,50,-137H402l46,-76L434,822H199l65,-58V-39L228,-49Z"
id="f6_nv"
transform="scale(0.001,-0.001)"/>

<path d="M761,293c0,0,127,0,169,94V532c0,0,-68,46,-145,46c0,0,-76,0,-121,-46c0,0,-45,-45,-45,-107c0,0,0,-61,44,-110c0,0,47,-22,98,-22ZM657,67c0,0,166,0,273,107v55c0,0,-45,-36,-111,-36c0,0,-110,0,-207,90c0,0,-97,90,-97,194c0,0,0,85,66,148c0,0,65,63,155,63l48,-5L930,603V822H376l62,-55V579c0,0,0,-60,-23,-102c0,0,-24,-42,-148,-190c0,0,66,-104,175,-162c0,0,108,-58,215,-58ZM1021,-49L930,8V53c0,0,-105,-83,-264,-83c0,0,-177,0,-339,128C327,98,165,226,90,429l34,77H296c0,0,19,39,19,102l-2,214H0l-45,76l14,31H1195l46,-76l-14,-31H992l65,-58V-39l-36,-10Z"
id="f6_ba"
transform="scale(0.001,-0.001)"/>

<path d="M547,-285c0,0,-66,25,-102,80c0,0,32,69,82,101c0,0,55,-20,99,-80c0,0,-26,-67,-79,-101Zm1,228c0,0,-122,0,-243,81c0,0,-122,81,-252,280l57,41C110,345,283,64,498,64c0,0,92,0,153,49c0,0,61,49,61,121c0,0,0,46,-28,84L440,237c0,0,-73,11,-139,55c0,0,-66,44,-105,105c0,0,-40,61,-40,119c0,0,0,72,62,125c0,0,62,53,184,53H625V822H0l-45,76l14,31H906l46,-76L938,822H678l66,-58V562H431c0,0,-164,0,-164,-99c0,0,0,-55,57,-102l261,82c0,0,104,-21,172,-98c0,0,68,-78,68,-171c0,0,0,-99,-76,-166c0,0,-77,-65,-201,-65Z"
id="f6_ch"
transform="scale(0.001,-0.001)"/>

<path d="M228,-49L138,8V822H0l-45,76l14,31H134c0,0,-231,362,-445,362c0,0,-87,0,-135,-49c0,0,-48,-49,-48,-116c0,0,0,-73,43,-122l-45,-32c0,0,-119,108,-119,223c0,0,0,94,74,155c0,0,73,60,181,60c0,0,161,0,316,-134c0,0,154,-133,267,-347H402l46,-76L434,822H199l65,-58V-39L228,-49Z"
id="f6_oc"
transform="scale(0.001,-0.001)"/>

<path d="M228,-49L138,8V822H0l-45,76l14,31H119L-33,1144c0,0,-70,92,-157,92c0,0,-69,0,-159,-58l-72,118c0,0,89,73,181,73c0,0,140,0,257,-170L205,929H402l46,-76L434,822H199l65,-58V-39L228,-49Z"
id="f6_d8"
transform="scale(0.001,-0.001)"/>

<path d="M413,-59C413,-59,53,193,53,416c0,0,0,97,66,164c0,0,66,66,156,66c0,0,61,0,110,-30L487,507c0,0,92,126,257,126l35,-2V822H0l-45,76l14,31H1043l46,-76l-13,-31H840l66,-58V-39L869,-49L779,8V547c0,0,-101,-5,-165,-90c0,0,-64,-86,-70,-222L507,225l-90,73c0,0,5,79,35,151c0,0,-59,66,-128,66c0,0,-57,0,-100,-38c0,0,-44,-39,-44,-109c0,0,0,-165,284,-360L413,-59Z"
id="f6_c3"
transform="scale(0.001,-0.001)"/>

<path d="M108,-433L-59,-214c0,0,-99,119,-191,119c0,0,-59,0,-96,-35c0,0,-36,-34,-36,-81c0,0,0,-49,42,-83l152,95l64,-116c0,0,-71,-58,-148,-58c0,0,-80,0,-146,63c0,0,-65,64,-65,144c0,0,0,77,62,131c0,0,61,53,142,53c0,0,138,0,296,-205L165,-393l-57,-40Z"
id="f6_cx"
transform="scale(0.001,-0.001)"/>

<path d="M-233,1021c0,0,-84,0,-168,55c0,0,-84,56,-146,162l51,50c0,0,95,-162,219,-162c0,0,125,0,160,157L-7,1234c0,0,-21,-103,-81,-158c0,0,-61,-55,-145,-55Zm-41,201c0,0,-66,25,-102,80c0,0,32,68,82,101c0,0,55,-20,99,-80c0,0,-26,-67,-79,-101Z"
id="f6_di"
transform="scale(0.001,-0.001)"/>

<path d="M513,460c0,0,61,81,61,179c0,0,0,87,-45,143c0,0,-45,57,-116,57c0,0,-63,0,-102,-43c0,0,-39,-43,-39,-110c0,0,0,-90,68,-151c0,0,68,-61,173,-75ZM581,-83L278,167l-41,-4c0,0,-99,0,-130,37l47,168l51,12l78,-79c0,0,110,40,183,105c0,0,-141,23,-231,107c0,0,-90,84,-90,193c0,0,0,69,37,116H0l-45,76l14,31H1134l45,-76l-13,-31H930l66,-58V-39L959,-49L869,8V822H588c0,0,51,-44,75,-109c0,0,25,-64,25,-122c0,0,0,-105,-81,-213c0,0,-80,-108,-240,-176L658,18l2,-25L581,-83Z"
id="f6_c8"
transform="scale(0.001,-0.001)"/>

<path d="M-239,897c0,0,-82,61,-132,137c0,0,-50,75,-50,150c0,0,0,78,52,133c0,0,52,55,141,55c0,0,98,0,176,-64l-23,-69c0,0,-52,32,-104,32c0,0,-57,0,-95,-36c0,0,-38,-36,-38,-95c0,0,0,-115,117,-217l-44,-26Z"
id="f6_dr"
transform="scale(0.001,-0.001)"/>

<path d="M688,-243c0,0,-256,53,-408,173c0,0,-152,119,-152,270c0,0,0,101,68,171c0,0,-101,84,-101,179c0,0,0,64,53,112c0,0,54,47,191,47H587V822H0l-45,76l14,31H830l45,-76L862,822H640l66,-58V585H362c0,0,-159,-1,-159,-92c0,0,0,-41,46,-80c0,0,76,47,183,47c0,0,135,0,230,-76c0,0,96,-75,96,-187C758,197,758,67,629,2L545,104c0,0,49,30,81,75c0,0,32,44,32,82c0,0,0,16,-4,26c0,0,-64,58,-167,58c0,0,-97,0,-166,-50v-2c0,0,-67,-52,-67,-131c0,0,0,-116,132,-199c0,0,132,-84,334,-132l-32,-74Z"
id="f6_cc"
transform="scale(0.001,-0.001)"/>

<path d="M163,-343V1123H281V-343Z"
id="f6_2s"
transform="scale(0.001,-0.001)"/>

<path d="M228,-49L138,8V822H0l-45,76l14,31H138c0,0,-109,342,-284,342c0,0,-62,0,-102,-40c0,0,-40,-39,-40,-93c0,0,0,-61,51,-134l-42,-32c0,0,-128,113,-128,226c0,0,0,79,60,136c0,0,61,56,154,56c0,0,137,0,249,-125c0,0,112,-125,169,-336H402l46,-76L434,822H199l65,-58V-39L228,-49Z"
id="f6_cv"
transform="scale(0.001,-0.001)"/>

<path d="M-234,-413c0,0,-210,0,-488,322l54,49c0,0,119,-128,209,-193c0,0,90,-65,177,-65c0,0,72,0,113,40c0,0,42,39,42,91c0,0,0,75,-78,106L-323,-181l-90,98c0,0,63,95,167,95c0,0,90,0,155,-69c0,0,66,-70,66,-164c0,0,0,-85,-60,-139c0,0,-61,-53,-149,-53Z"
id="f6_cw"
transform="scale(0.001,-0.001)"/>

<path d="M252,385l310,78l22,-9c0,0,107,-43,200,-43c0,0,91,0,151,41V822H603l66,-58V585H373c0,0,-184,0,-184,-99c0,0,0,-48,63,-101ZM483,-305L295,-10c0,0,-90,22,-156,74l41,170h66L351,63c0,0,126,4,207,62c0,0,82,58,82,139c0,0,0,37,-18,71L365,266c0,0,-110,15,-197,102c0,0,-87,87,-87,176c0,0,0,69,59,117c0,0,59,48,172,48H550V822H0l-45,76l14,31H1199l46,-76l-14,-31H996l66,-58V-39l-37,-10L935,8V318c0,0,-41,-15,-78,-15c0,0,-52,0,-131,30c0,0,32,-55,32,-111c0,0,0,-109,-98,-179c0,0,-98,-69,-254,-69L599,-216L483,-305Z"
id="f6_bh"
transform="scale(0.001,-0.001)"/>

<path d="M487,-7c0,0,-88,0,-185,46c0,0,-97,47,-163,130c0,0,-66,83,-66,185c0,0,0,109,80,177c0,0,79,68,234,68H504V822H0l-45,76l14,31H827l45,-76L859,822H565l66,-58V474l-3,1l3,-3H396c0,0,-100,0,-152,-47c0,0,-53,-48,-53,-119c0,0,0,-104,93,-178c0,0,60,-20,118,-20c0,0,81,0,156,36c0,0,76,35,123,99l92,-99C773,144,723,70,645,31C645,31,567,-7,487,-7Z"
id="f6_bk"
transform="scale(0.001,-0.001)"/>

<path d="M799,475V822H350l66,-55V564c0,0,0,-43,-25,-89ZM527,-71L52,414l34,92H277c0,0,12,32,12,72V822H0l-45,76l14,31H1063l46,-76l-14,-31H860l66,-58V-39L889,-49L799,8V370H315L264,316L610,34L611,8L527,-71Z"
id="f6_cb"
transform="scale(0.001,-0.001)"/>

<path d="M483,-305L295,-10c0,0,-90,22,-156,74l41,170h66L351,63c0,0,126,4,207,62c0,0,82,58,82,139c0,0,0,37,-18,71L365,266c0,0,-110,15,-197,102c0,0,-87,87,-87,176c0,0,0,69,59,117c0,0,59,48,172,48H550V822H0l-45,76l14,31H550c0,0,-142,122,-142,255c0,0,0,78,52,133c0,0,52,55,140,55c0,0,98,0,176,-64l-23,-69c0,0,-53,32,-104,32c0,0,-56,0,-94,-36c0,0,-39,-36,-39,-95c0,0,0,-109,112,-211H822l46,-76L854,822H603l66,-58V585H373c0,0,-184,0,-184,-99c0,0,0,-48,63,-101l310,78c0,0,86,-34,141,-99c0,0,55,-65,55,-142c0,0,0,-109,-98,-179c0,0,-98,-69,-254,-69L599,-216L483,-305Z"
id="f6_ao"
transform="scale(0.001,-0.001)"/>

<path d="M325,240c0,0,77,0,154,35c0,0,77,35,120,99V500c0,0,-118,73,-222,73c0,0,-97,0,-151,-54c0,0,-53,-53,-53,-128c0,0,0,-73,49,-125c0,0,38,-26,103,-26ZM689,-49L599,8V199c0,0,-73,-65,-179,-65c0,0,-134,0,-252,96c0,0,-118,95,-118,221c0,0,0,102,78,171c0,0,78,69,190,69c0,0,38,0,75,-10L599,582V822H0l-45,76l14,31H863l46,-76L895,822H660l66,-58V-39L689,-49Z"
id="f6_c7"
transform="scale(0.001,-0.001)"/>

<path d="M823,-49L733,8V339H445V191L371,160c0,0,-56,36,-120,105c0,0,-63,70,-89,131l41,59H313V735c0,0,0,99,-55,140c0,0,-3,1,-8,1c-16,0,-48,-3,-71,-23c0,0,-31,-26,-31,-66c0,0,0,-69,81,-113L189,620C189,620,31,720,31,828c0,0,0,61,45,99c0,0,46,37,109,37c0,0,96,0,173,-86c0,0,76,-87,79,-194V455H733V822H556l-46,76l14,31H998l45,-76l-13,-31H794l66,-58V-39L823,-49Z"
id="f6_by"
transform="scale(0.001,-0.001)"/>

<path d="M-214,860l-227,219c0,0,-73,70,-148,70c0,0,-67,0,-160,-58l-72,117c0,0,83,71,176,71c0,0,120,0,232,-124L-221,940l-102,294c0,0,-64,179,-189,179c0,0,-60,0,-133,-33l-60,125c0,0,84,47,164,47c0,0,200,0,281,-276L-150,901l-23,-15l-41,-26Z"
id="f6_d5"
transform="scale(0.001,-0.001)"/>

<path d="M396,318c0,0,123,0,203,108V822H180l66,-58V408c0,0,49,-90,150,-90ZM176,-66L79,9L379,228c0,0,-106,23,-181,119c0,0,-76,96,-79,198V822H0l-45,76l14,31H863l46,-76L895,822H660l66,-58V-39L689,-49L599,8V269L176,-66Z"
id="f6_e6"
transform="scale(0.001,-0.001)"/>

<path d="M342,324c0,0,45,0,75,34c0,0,31,33,31,100V822H165l66,-58V390c0,0,32,-66,111,-66ZM853,-49L762,8V822H509l65,-58V455c0,0,0,-134,-51,-185c0,0,-52,-52,-127,-52c0,0,-98,0,-195,99c0,0,-97,99,-97,209V822H0l-45,76l14,31H1027l46,-76l-14,-31H823l66,-58V-39L853,-49Z"
id="f6_bo"
transform="scale(0.001,-0.001)"/>

<path d="M527,-71L52,414l34,92H277c0,0,12,32,12,72V822H0l-45,76l14,31H940l45,-76L972,822H350l66,-55V553c0,0,24,52,77,83c0,0,52,30,112,30c0,0,87,0,171,-76c0,0,84,-75,222,-304L938,244L828,411c0,0,-95,134,-195,134c0,0,-63,0,-100,-35c0,0,-36,-36,-36,-87c0,0,0,-50,42,-87l152,99L755,315c0,0,-71,-61,-148,-61c0,0,-80,0,-146,66c0,0,-65,67,-65,164c0,0,-34,-70,-132,-168L610,34L611,8L527,-71Z"
id="f6_n1"
transform="scale(0.001,-0.001)"/>

<path d="M374,248c0,0,77,0,149,36c0,0,71,37,110,107V822H284c0,0,138,-96,138,-208c0,0,0,-151,-228,-192c0,0,29,-104,89,-158c0,0,41,-16,91,-16ZM723,-49L633,8V200c0,0,-69,-56,-170,-56c0,0,-122,0,-240,94c0,0,-118,94,-179,237l20,55c0,0,133,17,187,44c0,0,55,28,55,84c0,0,0,45,-30,81c0,0,-30,36,-99,83H0l-45,76l14,31H897l46,-76L929,822H694l65,-58V-39L723,-49Z"
id="f6_c0"
transform="scale(0.001,-0.001)"/>

<path d="M856,445L840,822H350l66,-55V564c0,0,0,-31,-11,-57c0,0,231,0,284,-12c0,0,54,-12,92,-50Zm450,0V822H903l66,-58l7,-319ZM527,-71L52,414l34,92H277c0,0,12,32,12,72V822H0l-45,76l14,31H1571l45,-76l-13,-31H1367l66,-58V-39l-37,-10L1306,8V328H987V180L914,150c0,0,-54,33,-114,98c0,0,-61,65,-90,125c0,0,-32,18,-105,18H335L264,316L610,34L611,8L527,-71Z"
id="f6_ki"
transform="scale(0.001,-0.001)"/>

<path d="M388,325c0,0,58,0,112,31c0,0,53,31,84,86V822H165l69,-58V408c0,0,47,-83,154,-83ZM674,-49L584,8V257c0,0,-61,-51,-141,-51c0,0,-125,0,-232,109c0,0,-107,108,-107,243V822H0l-45,76l14,31H848l46,-76L880,822H645l65,-58V-39L674,-49Z"
id="f6_bv"
transform="scale(0.001,-0.001)"/>

<path d="M413,-59C413,-59,53,193,53,416c0,0,0,97,66,164c0,0,66,66,156,66c0,0,61,0,110,-30l92,-98c0,0,75,107,198,107c0,0,75,0,142,-50c0,0,68,-49,103,-149L863,394c0,0,-61,136,-154,136c0,0,-75,0,-122,-82c0,0,-48,-81,-43,-213L507,225l-90,73c0,0,-1,96,31,170c0,0,-58,47,-126,47c0,0,-61,0,-99,-42c0,0,-38,-42,-38,-111c0,0,0,-93,71,-176c0,0,71,-84,208,-178L413,-59ZM0,822l-45,76l14,31H759l46,-76L791,822Z"
id="f6_lt"
transform="scale(0.001,-0.001)"/>

<path d="M900,298c0,0,32,73,32,159c0,0,0,110,-38,160c0,0,-40,31,-81,31c0,0,-48,0,-80,-35c0,0,-33,-35,-33,-89c0,0,0,-118,200,-226ZM588,-60c0,0,-154,0,-274,93c0,0,-120,94,-120,207c0,0,0,50,28,92C222,332,61,440,61,552c0,0,0,71,56,122c0,0,56,50,169,50H417l64,-98L463,600H333c0,0,-157,-1,-157,-99c0,0,0,-59,88,-124c0,0,68,52,164,52c0,0,38,0,79,-9l71,-88L558,299c0,0,-46,10,-81,10c0,0,-75,0,-116,-36c0,0,-40,-36,-40,-88c0,0,0,-78,73,-130c0,0,54,-17,109,-17c0,0,114,0,211,54c0,0,97,53,154,145c0,0,-156,96,-223,173c0,0,-67,77,-67,155c0,0,0,72,48,124c0,0,48,52,126,55v78H0l-45,76l14,31H1123l46,-76l-14,-31H805l66,-58V717c0,0,76,-40,124,-124c0,0,47,-84,47,-193c0,0,0,-188,-133,-324C909,76,776,-60,588,-60Z"
id="f6_bf"
transform="scale(0.001,-0.001)"/>

<path d="M548,-57c0,0,-122,0,-243,81c0,0,-122,81,-252,280l57,41C110,345,283,64,498,64c0,0,92,0,153,49c0,0,61,49,61,121c0,0,0,46,-28,84L440,237c0,0,-73,11,-139,55c0,0,-66,44,-105,105c0,0,-40,61,-40,119c0,0,0,72,62,125c0,0,62,53,184,53H625V822H0l-45,76l14,31H906l46,-76L938,822H678l66,-58V562H431c0,0,-164,0,-164,-99c0,0,0,-55,57,-102l261,82c0,0,104,-21,172,-98c0,0,68,-78,68,-171c0,0,0,-99,-76,-166c0,0,-77,-65,-201,-65Z"
id="f6_bm"
transform="scale(0.001,-0.001)"/>

<path d="M825,-49L735,8V217c0,0,-86,-72,-197,-72c0,0,-130,0,-238,91c0,0,-107,91,-107,204c0,0,0,55,27,105H55L12,616l14,30H574l46,-76L607,539H396c0,0,-78,-49,-78,-162c0,0,0,-70,40,-111c0,0,39,-15,94,-15c0,0,84,0,163,41c0,0,79,41,120,121V822H0l-45,76l14,31H999l46,-76l-14,-31H796l66,-58V-39L825,-49Z"
id="f6_be"
transform="scale(0.001,-0.001)"/>

<path d="M-91,1001c0,0,-27,10,-61,36c0,0,-33,26,-50,49c0,0,38,81,90,110c0,0,61,-23,107,-85c0,0,-28,-71,-86,-110ZM-214,863l-199,281c0,0,-70,92,-157,92c0,0,-69,0,-159,-58l-72,118c0,0,89,73,180,73c0,0,141,0,258,-170L-155,901l-59,-38Z"
id="f6_oz"
transform="scale(0.001,-0.001)"/>

<path d="M275,-115c0,0,-66,24,-102,79c0,0,32,68,82,100c0,0,55,-20,99,-78c0,0,-26,-67,-79,-101Zm8,375c0,0,122,0,209,113V513c0,0,-90,51,-160,51c0,0,-80,0,-129,-50c0,0,-49,-50,-49,-118c0,0,0,-60,35,-110c0,0,45,-26,94,-26ZM582,-49L492,8V211c0,0,-63,-54,-141,-54c0,0,-113,0,-213,92c0,0,-100,92,-100,205c0,0,0,93,69,157c0,0,69,64,162,64c0,0,32,0,64,-9L492,590V822H0l-45,76l14,31H1108l45,-76l-13,-31H553l66,-58V524c0,0,91,89,192,89c0,0,98,0,171,-79c0,0,72,-79,72,-186c0,0,0,-178,-224,-330L736,124c0,0,219,153,219,269c0,0,0,44,-26,75c0,0,-26,32,-81,32c0,0,-109,0,-229,-155V-39L582,-49Z"
id="f6_cd"
transform="scale(0.001,-0.001)"/>

<path d="M228,-49L138,8V822H0l-45,76l14,31H136c0,0,-173,353,-364,353c0,0,-75,0,-119,-44c0,0,-45,-45,-45,-106c0,0,0,-69,48,-128l-43,-32c0,0,-124,113,-124,224c0,0,0,87,67,146c0,0,68,59,167,59c0,0,150,0,283,-130c0,0,135,-130,219,-342H402l46,-76L434,822H199l65,-58V-39L228,-49Z"
id="f6_ob"
transform="scale(0.001,-0.001)"/>

<path d="M959,-49L869,8V367c0,0,-32,-13,-64,-13c0,0,-50,0,-110,25c0,0,23,-52,23,-109c0,0,0,-103,-70,-170c0,0,-70,-66,-182,-66c0,0,-110,0,-222,82c0,0,-111,83,-213,293l68,42c0,0,72,-155,152,-231c0,0,81,-76,178,-76c0,0,83,0,131,49c0,0,48,48,48,117c0,0,0,54,-30,100c0,0,-31,47,-91,65L325,391L257,512c0,0,68,53,156,56c0,0,140,72,140,179c0,0,0,69,-52,99c0,0,-4,1,-11,1c-19,0,-66,-4,-123,-30c0,0,-78,-35,-142,-96L150,823c0,0,119,117,253,117c0,0,98,0,175,-71c0,0,77,-70,77,-159c0,0,0,-103,-94,-180c0,0,39,-23,73,-56c0,0,52,-22,109,-22c0,0,77,0,126,38V822H727l-46,76l14,31h509l-136,104c0,0,-90,65,-157,65c0,0,-68,0,-152,-53l-71,118c0,0,77,65,163,65c0,0,116,0,246,-120L1286,930l-107,271c0,0,-71,166,-187,166c0,0,-52,0,-129,-33l-59,125c0,0,78,46,159,46c0,0,194,0,284,-271L1349,929h186l46,-76l-13,-31H1332l66,-58V-39l-37,-10L1271,8V822H930l66,-58V-39L959,-49Z"
id="f6_b8"
transform="scale(0.001,-0.001)"/>

<path d="M228,-49L138,8V822H0l-45,76l14,31H134c0,0,-93,95,-93,205c0,0,0,99,74,162c0,0,74,64,198,64c0,0,136,0,271,-84c0,0,136,-83,301,-262L833,970c0,0,-147,138,-254,206c0,0,-107,69,-217,69c0,0,-90,0,-146,-46c0,0,-56,-47,-56,-123c0,0,0,-66,55,-147H402l46,-76L434,822H199l65,-58V-39L228,-49Z"
id="f6_ns"
transform="scale(0.001,-0.001)"/>

<path d="M449,79c0,0,103,0,168,61c0,0,66,60,66,149c0,0,0,93,-84,186H420c0,0,-107,0,-164,-50c0,0,-57,-51,-57,-126c0,0,0,-108,99,-184c0,0,81,-36,151,-36Zm67,-96c0,0,-168,0,-301,109C215,92,81,202,81,350c0,0,0,114,83,182c0,0,84,68,229,68H507V822H0l-45,76l14,31H883l46,-76L915,822H568l66,-58V532c0,0,87,-64,130,-144c0,0,43,-79,43,-157c0,0,0,-109,-81,-179c0,0,-81,-69,-210,-69Z"
id="f6_bl"
transform="scale(0.001,-0.001)"/>

<path d="M0,822l-45,76l14,31H61l46,-76L93,822Z"
id="f6_no"
transform="scale(0.001,-0.001)"/>

<path d="M768,-49L678,8V202c0,0,-73,-58,-172,-58c0,0,-123,0,-240,94c0,0,-118,94,-179,237l20,55c0,0,134,12,215,70c0,0,81,57,81,141c0,0,0,90,-67,134l-26,3c0,0,-46,0,-74,-29c0,0,-28,-30,-28,-68c0,0,0,-55,82,-109L252,620C252,620,93,720,93,820c0,0,0,65,47,104c0,0,46,40,114,40c0,0,99,0,179,-83c0,0,80,-83,82,-197c0,0,0,-93,-79,-165c0,0,-78,-73,-199,-97c0,0,29,-104,88,-158c0,0,42,-16,92,-16c0,0,78,0,151,38c0,0,74,38,110,111V822H553l-46,76l14,31H943l45,-76L975,822H739l66,-58V-39L768,-49Z"
id="f6_bq"
transform="scale(0.001,-0.001)"/>

<path d="M413,-59C413,-59,53,193,53,416c0,0,0,97,66,164c0,0,66,66,156,66c0,0,61,0,110,-30l89,-93c0,0,74,108,204,108c0,0,112,0,181,-98L810,483c0,0,-54,56,-107,56c0,0,-75,0,-120,-78c0,0,-45,-78,-39,-226L507,225l-90,73c0,0,-1,95,28,171c0,0,-57,46,-123,46c0,0,-61,0,-99,-42c0,0,-38,-42,-38,-111c0,0,0,-93,71,-176c0,0,71,-84,208,-178L413,-59ZM0,822l-45,76l14,31H768l46,-76L801,822Z"
id="f6_ls"
transform="scale(0.001,-0.001)"/>

<path d="M725,307c0,0,-95,0,-218,78c0,0,-123,78,-188,78c0,0,-54,0,-95,-34c0,0,-41,-34,-73,-100L93,362c0,0,38,88,101,146c0,0,63,59,148,59c0,0,90,0,214,-78c0,0,124,-79,188,-79c0,0,63,0,106,34c0,0,42,33,85,104l60,-40c0,0,-32,-66,-101,-134c0,0,-70,-67,-169,-67Z"
id="f7_4r"
transform="scale(0.001,-0.001)"/>

<path d="M415,-18c0,0,-149,0,-244,83c0,0,-94,84,-107,222l140,11c0,0,16,-103,73,-154c0,0,56,-52,137,-52c0,0,98,0,165,73c0,0,66,73,66,194c0,0,0,115,-64,182c0,0,-64,66,-169,66c0,0,-65,0,-117,-29c0,0,-52,-30,-82,-77L87,517l106,562H736V951H300L241,657c0,0,99,69,207,69c0,0,143,0,242,-100c0,0,98,-99,98,-255c0,0,0,-149,-86,-257C702,114,597,-18,415,-18Z"
id="f8_p"
transform="scale(0.001,-0.001)"/>

<path d="M420,489c0,0,93,0,153,65c0,0,60,65,60,181c0,0,0,116,-62,184c0,0,-61,68,-148,68c0,0,-90,0,-156,-74c0,0,-66,-73,-66,-189c0,0,0,-105,63,-170c0,0,63,-65,156,-65ZM391,-18c0,0,-128,0,-209,71c0,0,-82,71,-98,200l129,12c0,0,17,-91,63,-132c0,0,46,-41,118,-41c0,0,62,0,109,28c0,0,47,29,76,76c0,0,30,47,50,128c0,0,20,80,20,164c0,0,0,9,-1,27c0,0,-40,-65,-110,-105c0,0,-69,-39,-151,-39c0,0,-135,0,-229,98c0,0,-94,99,-94,260c0,0,0,166,98,268c0,0,98,101,245,101c0,0,107,0,195,-57c0,0,89,-58,134,-164c0,0,46,-106,46,-308c0,0,0,-209,-45,-334C737,235,691,111,602,46c0,0,-90,-64,-211,-64Z"
id="f8_t"
transform="scale(0.001,-0.001)"/>


</defs>
</svg>