<?xml version="1.0" encoding="UTF-8" standalone="no"?>
<!DOCTYPE svg PUBLIC "-//W3C//DTD SVG 1.1//EN"
"http://www.w3.org/Graphics/SVG/1.1/DTD/svg11.dtd">
<svg viewBox="0 0 641 910" version="1.1" xmlns="http://www.w3.org/2000/svg" xmlns:xlink="http://www.w3.org/1999/xlink">
<defs>
<clipPath id="c0_97"><path d="M0,909.8V0H641.7V909.8Z"/></clipPath>
<clipPath id="c1_97"><path d="M0,908.6V0H641.7V908.6Z"/></clipPath>
<style type="text/css"><![CDATA[
.g0_97{
fill: #FFFFFF;
}
.g1_97{
}
]]></style>
</defs>
<path d="M0,0H641.7V909.8H0V0Z" class="g0_97"/>
<path d="M0,0H641.7V909.8H0V0Z" class="g0_97"/>
<g clip-path="url(#c0_97)">
<path d="M0,-81881.2H641.7V24564.4H0V-81881.2Z" class="g0_97"/>
</g>
<path d="M0,0H641.7V908.6H0V0Z" class="g0_97"/>
<path d="M19.5,60.7H602.7v1.2H19.5V60.7Z" class="g1_97"/>
<g clip-path="url(#c1_97)">
<path d="M0,61.9H641.7V909.8H0V61.9Z" class="g0_97"/>
<g fill="#000000" >
<use xlink:href="#f6_bv" transform="matrix(14,0,0,14,151.6,82.5)" />
<use xlink:href="#f6_ct" transform="matrix(14,0,0,14,163.4,82.5)" />
<use xlink:href="#f6_nn" transform="matrix(14,0,0,14,169,82.5)" />
<use xlink:href="#f6_ke" transform="matrix(14,0,0,14,169,82.5)" />
<use xlink:href="#f6_dr" transform="matrix(14,0,0,14,183.2,82.5)" />
<use xlink:href="#f6_bt" transform="matrix(14,0,0,14,183.2,82.5)" />
<use xlink:href="#f6_ct" transform="matrix(14,0,0,14,194.9,82.5)" />
<use xlink:href="#f6_no" transform="matrix(14,0,0,14,200.6,82.5)" />
<use xlink:href="#f6_bq" transform="matrix(14,0,0,14,200.6,82.5)" />
<use xlink:href="#f6_c1" transform="matrix(14,0,0,14,219.4,82.5)" />
<use xlink:href="#f6_d8" transform="matrix(14,0,0,14,227.8,82.5)" />
<use xlink:href="#f6_bv" transform="matrix(14,0,0,14,239.1,82.5)" />
<use xlink:href="#f6_ct" transform="matrix(14,0,0,14,251,82.5)" />
<use xlink:href="#f6_c0" transform="matrix(14,0,0,14,256.6,82.5)" />
<use xlink:href="#f6_b9" transform="matrix(14,0,0,14,269.1,82.5)" />
<use xlink:href="#f6_by" transform="matrix(14,0,0,14,290.3,82.5)" />
<use xlink:href="#f6_d5" transform="matrix(14,0,0,14,304.4,82.5)" />
<use xlink:href="#f6_n1" transform="matrix(14,0,0,14,304.2,82.5)" />
<use xlink:href="#f6_b9" transform="matrix(14,0,0,14,323.1,82.5)" />
<use xlink:href="#f6_c3" transform="matrix(14,0,0,14,338.6,82.5)" />
<use xlink:href="#f6_cv" transform="matrix(14,0,0,14,353.3,82.5)" />
<use xlink:href="#f6_c0" transform="matrix(14,0,0,14,358.9,82.5)" />
<use xlink:href="#f6_cw" transform="matrix(14,0,0,14,372,82.4)" />
<use xlink:href="#f6_bb" transform="matrix(14,0,0,14,371.4,82.5)" />
<use xlink:href="#f6_c1" transform="matrix(14,0,0,14,389.7,82.5)" />
<use xlink:href="#f6_d8" transform="matrix(14,0,0,14,398.1,82.5)" />
<use xlink:href="#f6_al" transform="matrix(14,0,0,14,409.4,82.5)" />
<use xlink:href="#f6_c7" transform="matrix(14,0,0,14,425.2,82.5)" />
<use xlink:href="#f6_bp" transform="matrix(14,0,0,14,437.3,82.5)" />
<use xlink:href="#f6_ct" transform="matrix(14,0,0,14,449.6,82.5)" />
<use xlink:href="#f6_c1" transform="matrix(14,0,0,14,455.3,82.5)" />
<use xlink:href="#f6_cv" transform="matrix(14,0,0,14,463.6,82.5)" />
<use xlink:href="#f6_by" transform="matrix(14,0,0,14,161.9,115.7)" />
<use xlink:href="#f6_d5" transform="matrix(14,0,0,14,176,115.7)" />
<use xlink:href="#f6_n0" transform="matrix(14,0,0,14,175.8,115.7)" />
<use xlink:href="#f6_bt" transform="matrix(14,0,0,14,189,115.7)" />
<use xlink:href="#f6_ct" transform="matrix(14,0,0,14,200.7,115.7)" />
<use xlink:href="#f6_no" transform="matrix(14,0,0,14,206.3,115.7)" />
<use xlink:href="#f6_bq" transform="matrix(14,0,0,14,206.3,115.7)" />
<use xlink:href="#f6_c1" transform="matrix(14,0,0,14,225.2,115.7)" />
<use xlink:href="#f6_ct" transform="matrix(14,0,0,14,233.5,115.7)" />
<use xlink:href="#f6_be" transform="matrix(14,0,0,14,244.8,115.7)" />
<use xlink:href="#f6_bz" transform="matrix(14,0,0,14,258.8,115.7)" />
<use xlink:href="#f6_ld" transform="matrix(14,0,0,14,272.2,115.7)" />
<use xlink:href="#f6_b9" transform="matrix(14,0,0,14,279.2,115.7)" />
<use xlink:href="#f6_ct" transform="matrix(14,0,0,14,294.7,115.7)" />
<use xlink:href="#f6_c1" transform="matrix(14,0,0,14,300.3,115.7)" />
<use xlink:href="#f6_bt" transform="matrix(14,0,0,14,314.4,115.7)" />
<use xlink:href="#f6_d4" transform="matrix(14,0,0,14,326.2,115.7)" />
<use xlink:href="#f6_bg" transform="matrix(14,0,0,14,331.8,115.7)" />
<use xlink:href="#f6_ct" transform="matrix(14,0,0,14,346,115.7)" />
<use xlink:href="#f6_bo" transform="matrix(14,0,0,14,351.7,115.7)" />
<use xlink:href="#f6_d4" transform="matrix(14,0,0,14,366.1,115.7)" />
<use xlink:href="#f6_mv" transform="matrix(14,0,0,14,371.7,115.7)" />
<use xlink:href="#f6_cu" transform="matrix(14,0,0,14,383.5,115.7)" />
<use xlink:href="#f6_bt" transform="matrix(14,0,0,14,389.1,115.7)" />
<use xlink:href="#f6_c0" transform="matrix(14,0,0,14,400.8,115.7)" />
<use xlink:href="#f6_ct" transform="matrix(14,0,0,14,413.3,115.7)" />
<use xlink:href="#f6_cb" transform="matrix(14,0,0,14,424.6,115.7)" />
<use xlink:href="#f6_ct" transform="matrix(14,0,0,14,439.5,115.7)" />
<use xlink:href="#f6_c1" transform="matrix(14,0,0,14,445.1,115.7)" />
<use xlink:href="#f6_cv" transform="matrix(14,0,0,14,453.5,115.7)" />
<use xlink:href="#f6_bx" transform="matrix(14,0,0,14,202,149)" />
<use xlink:href="#f6_ct" transform="matrix(14,0,0,14,214.3,149)" />
<use xlink:href="#f6_bp" transform="matrix(14,0,0,14,219.9,149)" />
<use xlink:href="#f6_ct" transform="matrix(14,0,0,14,232.2,149)" />
<use xlink:href="#f6_b9" transform="matrix(14,0,0,14,243.5,149)" />
<use xlink:href="#f6_c1" transform="matrix(14,0,0,14,259,149)" />
<use xlink:href="#f6_d4" transform="matrix(14,0,0,14,267,149)" />
<use xlink:href="#f6_cc" transform="matrix(14,0,0,14,273,149)" />
<use xlink:href="#f6_d5" transform="matrix(14,0,0,14,285,149)" />
<use xlink:href="#f6_c3" transform="matrix(14,0,0,14,290.3,149)" />
<use xlink:href="#f6_cw" transform="matrix(14,0,0,14,305.5,148.9)" />
<use xlink:href="#f6_bb" transform="matrix(14,0,0,14,305,149)" />
<use xlink:href="#f6_ct" transform="matrix(14,0,0,14,317.6,149)" />
<use xlink:href="#f6_c0" transform="matrix(14,0,0,14,323.2,149)" />
<use xlink:href="#f6_ct" transform="matrix(14,0,0,14,335.8,149)" />
<use xlink:href="#f6_bc" transform="matrix(14,0,0,14,347.1,149)" />
<use xlink:href="#f6_c1" transform="matrix(14,0,0,14,361,149)" />
<use xlink:href="#f6_pd" transform="matrix(14,0,0,14,369.4,149)" />
<use xlink:href="#f6_bc" transform="matrix(14,0,0,14,376.9,149)" />
<use xlink:href="#f6_c1" transform="matrix(14,0,0,14,390.8,149)" />
<use xlink:href="#f6_c1" transform="matrix(14,0,0,14,404.8,149)" />
<use xlink:href="#f6_cv" transform="matrix(14,0,0,14,413.2,149)" />
<use xlink:href="#f6_bz" transform="matrix(14,0,0,14,188.2,182.2)" />
<use xlink:href="#f6_bt" transform="matrix(14,0,0,14,201.6,182.2)" />
<use xlink:href="#f6_d4" transform="matrix(14,0,0,14,213.4,182.2)" />
<use xlink:href="#f6_bt" transform="matrix(14,0,0,14,218.9,182.2)" />
<use xlink:href="#f6_ct" transform="matrix(14,0,0,14,230.7,182.2)" />
<use xlink:href="#f6_b9" transform="matrix(14,0,0,14,236.3,182.2)" />
<use xlink:href="#f6_d8" transform="matrix(14,0,0,14,251.8,182.2)" />
<use xlink:href="#f6_bm" transform="matrix(14,0,0,14,257.4,182.2)" />
<use xlink:href="#f6_ct" transform="matrix(14,0,0,14,270.1,182.2)" />
<use xlink:href="#f6_c3" transform="matrix(14,0,0,14,281.4,182.2)" />
<use xlink:href="#f6_d4" transform="matrix(14,0,0,14,296.2,182.2)" />
<use xlink:href="#f6_be" transform="matrix(14,0,0,14,301.7,182.2)" />
<use xlink:href="#f6_ct" transform="matrix(14,0,0,14,315.7,182.2)" />
<use xlink:href="#f6_c3" transform="matrix(14,0,0,14,321.3,182.2)" />
<use xlink:href="#f6_d8" transform="matrix(14,0,0,14,336,182.2)" />
<use xlink:href="#f6_lq" transform="matrix(14,0,0,14,347.3,182.2)" />
<use xlink:href="#f6_cc" transform="matrix(14,0,0,14,354,182.2)" />
<use xlink:href="#f6_ct" transform="matrix(14,0,0,14,365.6,182.2)" />
<use xlink:href="#f6_c1" transform="matrix(14,0,0,14,371.2,182.2)" />
<use xlink:href="#f6_d4" transform="matrix(14,0,0,14,379.2,182.2)" />
<use xlink:href="#f6_bg" transform="matrix(14,0,0,14,385.3,182.2)" />
<use xlink:href="#f6_be" transform="matrix(14,0,0,14,399.5,182.2)" />
<use xlink:href="#f6_bb" transform="matrix(14,0,0,14,413.5,182.2)" />
<use xlink:href="#f6_cv" transform="matrix(14,0,0,14,426.1,182.2)" />
<use xlink:href="#f7_4r" transform="matrix(9,0,0,9,290.2,795.2)" />
<use xlink:href="#f8_t" transform="matrix(9,0,0,9,303,795.2)" />
<use xlink:href="#f8_l" transform="matrix(9,0,0,9,310.7,795.2)" />
<use xlink:href="#f7_4r" transform="matrix(9,0,0,9,321.3,795.2)" />
</g>
</g>
<image preserveAspectRatio="none" x="22" y="801" width="581" height="86" xlink:href="img/1.png"/>
<image preserveAspectRatio="none" x="202" y="14" width="217" height="26" xlink:href="img/2.png"/>
<defs>
<path d="M388,325c0,0,58,0,112,31c0,0,53,31,84,86V822H165l69,-58V408c0,0,47,-83,154,-83ZM674,-49L584,8V257c0,0,-61,-51,-141,-51c0,0,-125,0,-232,109c0,0,-107,108,-107,243V822H0l-45,76l14,31H848l46,-76L880,822H645l65,-58V-39L674,-49Z"
id="f6_bv"
transform="scale(0.001,-0.001)"/>

<path d="M228,-49L138,8V822H0l-45,76l14,31H402l46,-76L434,822H199l65,-58V-39L228,-49Z"
id="f6_ct"
transform="scale(0.001,-0.001)"/>

<path d="M0,822l-45,76l14,31H93l46,-76L125,822Z"
id="f6_nn"
transform="scale(0.001,-0.001)"/>

<path d="M500,44c0,0,78,0,152,57c0,0,75,56,98,134V350c0,0,-130,0,-223,-64c0,0,-93,-63,-93,-148c0,0,0,-54,43,-92l23,-2ZM321,561c0,0,66,46,101,105c0,0,36,60,36,113c0,0,0,28,-9,48c0,0,-35,41,-87,41c0,0,-50,0,-89,-38c0,0,-39,-39,-39,-100c0,0,0,-94,87,-169ZM840,-111l-90,59V32c0,0,-69,-68,-156,-68c0,0,-97,0,-187,64c0,0,-89,64,-89,146c0,0,0,61,48,123c0,0,48,62,141,94c0,0,-69,20,-140,57L105,272L20,364L260,519c0,0,-144,118,-144,246c0,0,0,81,57,140c0,0,56,59,140,59c0,0,96,0,171,-79c0,0,75,-78,75,-168c0,0,0,-118,-133,-222c0,0,107,-44,232,-44l92,6V822H628l-46,76l14,31h418l46,-76l-13,-31H811l66,-58V-100l-37,-11Z"
id="f6_ke"
transform="scale(0.001,-0.001)"/>

<path d="M-239,897c0,0,-82,61,-132,137c0,0,-50,75,-50,150c0,0,0,78,52,133c0,0,52,55,141,55c0,0,98,0,176,-64l-23,-69c0,0,-52,32,-104,32c0,0,-57,0,-95,-36c0,0,-38,-36,-38,-95c0,0,0,-115,117,-217l-44,-26Z"
id="f6_dr"
transform="scale(0.001,-0.001)"/>

<path d="M663,-49L573,8V445H299V280L226,251c0,0,-105,99,-162,238l63,72H573V822H0l-45,76l14,31H837l46,-76L869,822H634l66,-58V-39L663,-49Z"
id="f6_bt"
transform="scale(0.001,-0.001)"/>

<path d="M0,822l-45,76l14,31H61l46,-76L93,822Z"
id="f6_no"
transform="scale(0.001,-0.001)"/>

<path d="M768,-49L678,8V202c0,0,-73,-58,-172,-58c0,0,-123,0,-240,94c0,0,-118,94,-179,237l20,55c0,0,134,12,215,70c0,0,81,57,81,141c0,0,0,90,-67,134l-26,3c0,0,-46,0,-74,-29c0,0,-28,-30,-28,-68c0,0,0,-55,82,-109L252,620C252,620,93,720,93,820c0,0,0,65,47,104c0,0,46,40,114,40c0,0,99,0,179,-83c0,0,80,-83,82,-197c0,0,0,-93,-79,-165c0,0,-78,-73,-199,-97c0,0,29,-104,88,-158c0,0,42,-16,92,-16c0,0,78,0,151,38c0,0,74,38,110,111V822H553l-46,76l14,31H943l45,-76L975,822H739l66,-58V-39L768,-49Z"
id="f6_bq"
transform="scale(0.001,-0.001)"/>

<path d="M527,-71L52,414l34,92H277c0,0,12,32,12,72V822H0l-45,76l14,31H599l46,-76L631,822H350l66,-55V564c0,0,0,-96,-152,-248L610,34L611,8L527,-71Z"
id="f6_c1"
transform="scale(0.001,-0.001)"/>

<path d="M228,-49L138,8V822H0l-45,76l14,31H119L-33,1144c0,0,-70,92,-157,92c0,0,-69,0,-159,-58l-72,118c0,0,89,73,181,73c0,0,140,0,257,-170L205,929H402l46,-76L434,822H199l65,-58V-39L228,-49Z"
id="f6_d8"
transform="scale(0.001,-0.001)"/>

<path d="M374,248c0,0,77,0,149,36c0,0,71,37,110,107V822H284c0,0,138,-96,138,-208c0,0,0,-151,-228,-192c0,0,29,-104,89,-158c0,0,41,-16,91,-16ZM723,-49L633,8V200c0,0,-69,-56,-170,-56c0,0,-122,0,-240,94c0,0,-118,94,-179,237l20,55c0,0,133,17,187,44c0,0,55,28,55,84c0,0,0,45,-30,81c0,0,-30,36,-99,83H0l-45,76l14,31H897l46,-76L929,822H694l65,-58V-39L723,-49Z"
id="f6_c0"
transform="scale(0.001,-0.001)"/>

<path d="M283,260c0,0,122,0,209,113V513c0,0,-90,51,-160,51c0,0,-80,0,-129,-50c0,0,-49,-50,-49,-118c0,0,0,-60,35,-110c0,0,45,-26,94,-26ZM582,-49L492,8V211c0,0,-63,-54,-141,-54c0,0,-113,0,-213,92c0,0,-100,92,-100,205c0,0,0,93,69,157c0,0,69,64,162,64c0,0,32,0,64,-9L492,590V822H0l-45,76l14,31H1108l45,-76l-13,-31H553l66,-58V524c0,0,91,89,192,89c0,0,98,0,171,-79c0,0,72,-79,72,-186c0,0,0,-178,-224,-330L736,124c0,0,219,153,219,269c0,0,0,44,-26,75c0,0,-26,32,-81,32c0,0,-109,0,-229,-155V-39L582,-49Z"
id="f6_b9"
transform="scale(0.001,-0.001)"/>

<path d="M823,-49L733,8V339H445V191L371,160c0,0,-56,36,-120,105c0,0,-63,70,-89,131l41,59H313V735c0,0,0,99,-55,140c0,0,-3,1,-8,1c-16,0,-48,-3,-71,-23c0,0,-31,-26,-31,-66c0,0,0,-69,81,-113L189,620C189,620,31,720,31,828c0,0,0,61,45,99c0,0,46,37,109,37c0,0,96,0,173,-86c0,0,76,-87,79,-194V455H733V822H556l-46,76l14,31H998l45,-76l-13,-31H794l66,-58V-39L823,-49Z"
id="f6_by"
transform="scale(0.001,-0.001)"/>

<path d="M-214,860l-227,219c0,0,-73,70,-148,70c0,0,-67,0,-160,-58l-72,117c0,0,83,71,176,71c0,0,120,0,232,-124L-221,940l-102,294c0,0,-64,179,-189,179c0,0,-60,0,-133,-33l-60,125c0,0,84,47,164,47c0,0,200,0,281,-276L-150,901l-23,-15l-41,-26Z"
id="f6_d5"
transform="scale(0.001,-0.001)"/>

<path d="M527,-71L52,414l34,92H277c0,0,12,32,12,72V822H0l-45,76l14,31H940l45,-76L972,822H350l66,-55V553c0,0,24,52,77,83c0,0,52,30,112,30c0,0,87,0,171,-76c0,0,84,-75,222,-304L938,244L828,411c0,0,-95,134,-195,134c0,0,-63,0,-100,-35c0,0,-36,-36,-36,-87c0,0,0,-50,42,-87l152,99L755,315c0,0,-71,-61,-148,-61c0,0,-80,0,-146,66c0,0,-65,67,-65,164c0,0,-34,-70,-132,-168L610,34L611,8L527,-71Z"
id="f6_n1"
transform="scale(0.001,-0.001)"/>

<path d="M413,-59C413,-59,53,193,53,416c0,0,0,97,66,164c0,0,66,66,156,66c0,0,61,0,110,-30L487,507c0,0,92,126,257,126l35,-2V822H0l-45,76l14,31H1043l46,-76l-13,-31H840l66,-58V-39L869,-49L779,8V547c0,0,-101,-5,-165,-90c0,0,-64,-86,-70,-222L507,225l-90,73c0,0,5,79,35,151c0,0,-59,66,-128,66c0,0,-57,0,-100,-38c0,0,-44,-39,-44,-109c0,0,0,-165,284,-360L413,-59Z"
id="f6_c3"
transform="scale(0.001,-0.001)"/>

<path d="M228,-49L138,8V822H0l-45,76l14,31H138c0,0,-109,342,-284,342c0,0,-62,0,-102,-40c0,0,-40,-39,-40,-93c0,0,0,-61,51,-134l-42,-32c0,0,-128,113,-128,226c0,0,0,79,60,136c0,0,61,56,154,56c0,0,137,0,249,-125c0,0,112,-125,169,-336H402l46,-76L434,822H199l65,-58V-39L228,-49Z"
id="f6_cv"
transform="scale(0.001,-0.001)"/>

<path d="M-234,-413c0,0,-210,0,-488,322l54,49c0,0,119,-128,209,-193c0,0,90,-65,177,-65c0,0,72,0,113,40c0,0,42,39,42,91c0,0,0,75,-78,106L-323,-181l-90,98c0,0,63,95,167,95c0,0,90,0,155,-69c0,0,66,-70,66,-164c0,0,0,-85,-60,-139c0,0,-61,-53,-149,-53Z"
id="f6_cw"
transform="scale(0.001,-0.001)"/>

<path d="M727,-49L637,8V822H278l66,-58V226L270,196c0,0,-64,36,-122,98c0,0,-58,62,-79,122l43,59H217V822H0l-45,76l14,31H901l46,-76L933,822H698l66,-58V-39L727,-49Z"
id="f6_bb"
transform="scale(0.001,-0.001)"/>

<path d="M959,-49L869,8V367c0,0,-32,-13,-64,-13c0,0,-50,0,-110,25c0,0,23,-52,23,-109c0,0,0,-103,-70,-170c0,0,-70,-66,-182,-66c0,0,-110,0,-222,82c0,0,-111,83,-213,293l68,42c0,0,72,-155,152,-231c0,0,81,-76,178,-76c0,0,83,0,131,49c0,0,48,48,48,117c0,0,0,54,-30,100c0,0,-31,47,-91,65L325,391L257,512c0,0,68,53,156,56c0,0,140,72,140,179c0,0,0,69,-52,99c0,0,-4,1,-11,1c-19,0,-66,-4,-123,-30c0,0,-78,-35,-142,-96L150,823c0,0,119,117,253,117c0,0,98,0,175,-71c0,0,77,-70,77,-159c0,0,0,-103,-94,-180c0,0,39,-23,73,-56c0,0,52,-22,109,-22c0,0,77,0,126,38V822H727l-46,76l14,31h439l45,-76l-13,-31H930l66,-58V-39L959,-49Z"
id="f6_al"
transform="scale(0.001,-0.001)"/>

<path d="M325,240c0,0,77,0,154,35c0,0,77,35,120,99V500c0,0,-118,73,-222,73c0,0,-97,0,-151,-54c0,0,-53,-53,-53,-128c0,0,0,-73,49,-125c0,0,38,-26,103,-26ZM689,-49L599,8V199c0,0,-73,-65,-179,-65c0,0,-134,0,-252,96c0,0,-118,95,-118,221c0,0,0,102,78,171c0,0,78,69,190,69c0,0,38,0,75,-10L599,582V822H0l-45,76l14,31H863l46,-76L895,822H660l66,-58V-39L689,-49Z"
id="f6_c7"
transform="scale(0.001,-0.001)"/>

<path d="M347,-57C347,-57,66,211,66,394c0,0,0,98,74,164c0,0,74,65,225,65H616V822H0l-45,76l14,31H880l46,-76L912,822H677l66,-58V-39L706,-49L616,8V500H428c0,0,-239,0,-239,-161c0,0,0,-136,214,-343L347,-57Z"
id="f6_bp"
transform="scale(0.001,-0.001)"/>

<path d="M527,-71L52,414l34,92H277c0,0,12,32,12,72V822H0l-45,76l14,31H940l45,-76L972,822H350l66,-55V570c0,0,146,98,247,98c0,0,95,0,167,-73c0,0,71,-72,71,-167c0,0,0,-77,-53,-142c0,0,-54,-64,-159,-136l-89,99c0,0,100,70,152,121c0,0,52,52,52,105c0,0,0,34,-23,60c0,0,-22,26,-72,26c0,0,-139,0,-434,-252L610,34L611,8L527,-71Z"
id="f6_n0"
transform="scale(0.001,-0.001)"/>

<path d="M825,-49L735,8V217c0,0,-86,-72,-197,-72c0,0,-130,0,-238,91c0,0,-107,91,-107,204c0,0,0,55,27,105H55L12,616l14,30H574l46,-76L607,539H396c0,0,-78,-49,-78,-162c0,0,0,-70,40,-111c0,0,39,-15,94,-15c0,0,84,0,163,41c0,0,79,41,120,121V822H0l-45,76l14,31H999l46,-76l-14,-31H796l66,-58V-39L825,-49Z"
id="f6_be"
transform="scale(0.001,-0.001)"/>

<path d="M689,445V822H286l65,-58l8,-319ZM779,-49L689,8V328H370V180L296,150c0,0,-56,35,-120,104c0,0,-63,70,-89,131l41,60H238L223,822H0l-45,76l14,31H953l46,-76L985,822H750l66,-58V-39L779,-49Z"
id="f6_bz"
transform="scale(0.001,-0.001)"/>

<path d="M347,-57C347,-57,73,203,73,373c0,0,0,110,87,181c0,0,86,71,227,71c0,0,143,0,285,-95L626,420c0,0,-103,80,-217,80c0,0,-85,0,-148,-47c0,0,-62,-47,-62,-129c0,0,0,-127,204,-328L347,-57ZM0,822l-45,76l14,31H536l46,-76L568,822Z"
id="f6_ld"
transform="scale(0.001,-0.001)"/>

<path d="M-214,863l-199,281c0,0,-70,92,-157,92c0,0,-69,0,-159,-58l-72,118c0,0,89,73,180,73c0,0,141,0,258,-170L-155,901l-59,-38Z"
id="f6_d4"
transform="scale(0.001,-0.001)"/>

<path d="M845,-49L755,8V513H497c0,0,61,-45,93,-110c0,0,33,-64,33,-128c0,0,0,-90,-58,-144c0,0,-59,-53,-143,-53c0,0,-133,0,-234,139C188,217,87,356,20,596l76,24c0,0,60,-201,127,-306c0,0,67,-105,160,-105c0,0,57,0,91,36c0,0,33,36,33,91c0,0,0,84,-73,159L295,558v71H755V822H0l-45,76l14,31H1019l46,-76l-14,-31H816l66,-58V-39L845,-49Z"
id="f6_bg"
transform="scale(0.001,-0.001)"/>

<path d="M342,324c0,0,45,0,75,34c0,0,31,33,31,100V822H165l66,-58V390c0,0,32,-66,111,-66ZM853,-49L762,8V822H509l65,-58V455c0,0,0,-134,-51,-185c0,0,-52,-52,-127,-52c0,0,-98,0,-195,99c0,0,-97,99,-97,209V822H0l-45,76l14,31H1027l46,-76l-14,-31H823l66,-58V-39L853,-49Z"
id="f6_bo"
transform="scale(0.001,-0.001)"/>

<path d="M652,-518c0,0,-209,0,-487,322l53,49c0,0,120,-129,210,-193c0,0,90,-65,177,-65c0,0,72,0,113,39c0,0,41,40,41,92c0,0,0,75,-78,105L564,-286l-90,98c0,0,62,96,169,96L605,37C605,37,552,18,498,18c0,0,-151,0,-288,115C210,133,73,248,73,388c0,0,0,113,84,184c0,0,84,71,222,73H524V822H0l-45,76l14,31H842l46,-76L874,822H567l84,-73V519l-3,2l3,-3H408c0,0,-93,0,-153,-52c0,0,-59,-52,-59,-128c0,0,0,-121,110,-188c0,0,53,-17,105,-17c0,0,92,0,153,43L535,318l101,49L773,203c0,0,-20,-67,-87,-122l61,-204c0,0,52,-32,83,-87c0,0,32,-55,32,-116c0,0,0,-85,-61,-139c0,0,-60,-53,-149,-53Z"
id="f6_mv"
transform="scale(0.001,-0.001)"/>

<path d="M228,-49L138,8V822H0l-45,76l14,31H134c0,0,-91,92,-91,191c0,0,0,105,85,170c0,0,84,65,219,65c0,0,128,0,293,-76c0,0,165,-77,362,-263L958,966c0,0,-177,143,-303,210c0,0,-125,68,-244,68c0,0,-107,0,-175,-50c0,0,-68,-50,-68,-131c0,0,0,-61,49,-134H402l46,-76L434,822H199l65,-58V-39L228,-49Z"
id="f6_cu"
transform="scale(0.001,-0.001)"/>

<path d="M799,475V822H350l66,-55V564c0,0,0,-43,-25,-89ZM527,-71L52,414l34,92H277c0,0,12,32,12,72V822H0l-45,76l14,31H1063l46,-76l-14,-31H860l66,-58V-39L889,-49L799,8V370H315L264,316L610,34L611,8L527,-71Z"
id="f6_cb"
transform="scale(0.001,-0.001)"/>

<path d="M348,229c0,0,57,0,106,17L263,559c0,0,-95,-50,-95,-162c0,0,0,-75,52,-136c0,0,49,-32,128,-32Zm170,48c0,0,61,38,96,91V504c0,0,-131,80,-244,80l-35,-2L518,277ZM704,-49L614,8V193c0,0,-84,-65,-192,-65c0,0,-139,0,-255,98c0,0,-115,98,-115,226c0,0,0,106,77,175c0,0,77,70,189,70c0,0,38,0,75,-9L614,578V822H0l-45,76l14,31H878l46,-76L911,822H675l66,-58V-39L704,-49Z"
id="f6_bx"
transform="scale(0.001,-0.001)"/>

<path d="M688,-243c0,0,-256,53,-408,173c0,0,-152,119,-152,270c0,0,0,101,68,171c0,0,-101,84,-101,179c0,0,0,64,53,112c0,0,54,47,191,47H587V822H0l-45,76l14,31H830l45,-76L862,822H640l66,-58V585H362c0,0,-159,-1,-159,-92c0,0,0,-41,46,-80c0,0,76,47,183,47c0,0,135,0,230,-76c0,0,96,-75,96,-187C758,197,758,67,629,2L545,104c0,0,49,30,81,75c0,0,32,44,32,82c0,0,0,16,-4,26c0,0,-64,58,-167,58c0,0,-97,0,-166,-50v-2c0,0,-67,-52,-67,-131c0,0,0,-116,132,-199c0,0,132,-84,334,-132l-32,-74Z"
id="f6_cc"
transform="scale(0.001,-0.001)"/>

<path d="M434,225c0,0,84,0,169,42c0,0,85,43,126,126V822H267c0,0,-64,-49,-64,-115c0,0,0,-79,90,-126c0,0,60,35,144,35l67,-6l75,-89L564,490l-51,7H493c0,0,-90,0,-142,-43c0,0,-52,-43,-52,-104c0,0,0,-60,51,-109c0,0,33,-16,84,-16ZM819,-49L729,8V197c0,0,-83,-76,-202,-76c0,0,-130,0,-237,91c0,0,-108,92,-108,196c0,0,0,72,53,128c0,0,-75,42,-115,97c0,0,-41,56,-41,113c0,0,0,38,22,76H0l-45,76l14,31H993l46,-76l-14,-31H790l66,-58V-39L819,-49Z"
id="f6_bc"
transform="scale(0.001,-0.001)"/>

<path d="M92,380L46,457l14,30H448l45,-76L480,380Z"
id="f6_pd"
transform="scale(0.001,-0.001)"/>

<path d="M548,-57c0,0,-122,0,-243,81c0,0,-122,81,-252,280l57,41C110,345,283,64,498,64c0,0,92,0,153,49c0,0,61,49,61,121c0,0,0,46,-28,84L440,237c0,0,-73,11,-139,55c0,0,-66,44,-105,105c0,0,-40,61,-40,119c0,0,0,72,62,125c0,0,62,53,184,53H625V822H0l-45,76l14,31H906l46,-76L938,822H678l66,-58V562H431c0,0,-164,0,-164,-99c0,0,0,-55,57,-102l261,82c0,0,104,-21,172,-98c0,0,68,-78,68,-171c0,0,0,-99,-76,-166c0,0,-77,-65,-201,-65Z"
id="f6_bm"
transform="scale(0.001,-0.001)"/>

<path d="M266,150c0,0,-57,35,-120,104c0,0,-63,70,-89,131l41,60H211L194,822H0l-45,76l14,31H587l46,-76L619,822H255l66,-58l7,-319H688L721,328H339V180L266,150Z"
id="f6_lq"
transform="scale(0.001,-0.001)"/>

<path d="M725,307c0,0,-95,0,-218,78c0,0,-123,78,-188,78c0,0,-54,0,-95,-34c0,0,-41,-34,-73,-100L93,362c0,0,38,88,101,146c0,0,63,59,148,59c0,0,90,0,214,-78c0,0,124,-79,188,-79c0,0,63,0,106,34c0,0,42,33,85,104l60,-40c0,0,-32,-66,-101,-134c0,0,-70,-67,-169,-67Z"
id="f7_4r"
transform="scale(0.001,-0.001)"/>

<path d="M420,489c0,0,93,0,153,65c0,0,60,65,60,181c0,0,0,116,-62,184c0,0,-61,68,-148,68c0,0,-90,0,-156,-74c0,0,-66,-73,-66,-189c0,0,0,-105,63,-170c0,0,63,-65,156,-65ZM391,-18c0,0,-128,0,-209,71c0,0,-82,71,-98,200l129,12c0,0,17,-91,63,-132c0,0,46,-41,118,-41c0,0,62,0,109,28c0,0,47,29,76,76c0,0,30,47,50,128c0,0,20,80,20,164c0,0,0,9,-1,27c0,0,-40,-65,-110,-105c0,0,-69,-39,-151,-39c0,0,-135,0,-229,98c0,0,-94,99,-94,260c0,0,0,166,98,268c0,0,98,101,245,101c0,0,107,0,195,-57c0,0,89,-58,134,-164c0,0,46,-106,46,-308c0,0,0,-209,-45,-334C737,235,691,111,602,46c0,0,-90,-64,-211,-64Z"
id="f8_t"
transform="scale(0.001,-0.001)"/>

<path d="M435,0V856c0,0,-48,-47,-127,-93c0,0,-79,-46,-142,-69V824c0,0,113,52,197,128c0,0,85,75,120,146h86V0Z"
id="f8_l"
transform="scale(0.001,-0.001)"/>


</defs>
</svg>