<?xml version="1.0" encoding="UTF-8" standalone="no"?>
<!DOCTYPE svg PUBLIC "-//W3C//DTD SVG 1.1//EN"
"http://www.w3.org/Graphics/SVG/1.1/DTD/svg11.dtd">
<svg viewBox="0 0 641 910" version="1.1" xmlns="http://www.w3.org/2000/svg" xmlns:xlink="http://www.w3.org/1999/xlink">
<defs>
<clipPath id="c0_98"><path d="M0,909.8V0H641.7V909.8Z"/></clipPath>
<clipPath id="c1_98"><path d="M0,908.6V0H641.7V908.6Z"/></clipPath>
<style type="text/css"><![CDATA[
.g0_98{
fill: #FFFFFF;
}
.g1_98{
}
]]></style>
</defs>
<path d="M0,0H641.7V909.8H0V0Z" class="g0_98"/>
<path d="M0,0H641.7V909.8H0V0Z" class="g0_98"/>
<g clip-path="url(#c0_98)">
<path d="M0,-82790.9H641.7V23654.6H0V-82790.9Z" class="g0_98"/>
</g>
<path d="M0,0H641.7V908.6H0V0Z" class="g0_98"/>
<path d="M19.5,60.7H602.7v1.2H19.5V60.7Z" class="g1_98"/>
<g clip-path="url(#c1_98)">
<path d="M0,61.9H641.7V909.8H0V61.9Z" class="g0_98"/>
<g fill="#000000" >
<use xlink:href="#f5_bz" transform="matrix(14,0,0,14,226,96.3)" />
<use xlink:href="#f5_ct" transform="matrix(14,0,0,14,240.7,96.3)" />
<use xlink:href="#f5_no" transform="matrix(14,0,0,14,247.1,96.3)" />
<use xlink:href="#f5_bq" transform="matrix(14,0,0,14,247.1,96.3)" />
<use xlink:href="#f5_d4" transform="matrix(14,0,0,14,261.5,96.3)" />
<use xlink:href="#f5_bp" transform="matrix(14,0,0,14,267.2,96.3)" />
<use xlink:href="#f5_d8" transform="matrix(14,0,0,14,280.6,96.3)" />
<use xlink:href="#f5_be" transform="matrix(14,0,0,14,292.8,96.3)" />
<use xlink:href="#f5_c1" transform="matrix(14,0,0,14,308.1,96.3)" />
<use xlink:href="#f5_c7" transform="matrix(14,0,0,14,318.3,96.3)" />
<use xlink:href="#f5_cv" transform="matrix(14,0,0,14,332,96.3)" />
<use xlink:href="#f5_mv" transform="matrix(14,0,0,14,344.1,96.3)" />
<use xlink:href="#f5_nl" transform="matrix(14,0,0,14,357.3,96.3)" />
<use xlink:href="#f5_bs" transform="matrix(14,0,0,14,357.3,96.3)" />
<use xlink:href="#f5_c1" transform="matrix(14,0,0,14,378.1,96.3)" />
<use xlink:href="#f5_cv" transform="matrix(14,0,0,14,388.3,96.3)" />
<use xlink:href="#f6_bz" transform="matrix(14,0,0,14,130.9,154.7)" />
<use xlink:href="#f6_ct" transform="matrix(14,0,0,14,144.3,154.7)" />
<use xlink:href="#f6_no" transform="matrix(14,0,0,14,149.9,154.7)" />
<use xlink:href="#f6_bq" transform="matrix(14,0,0,14,149.9,154.7)" />
<use xlink:href="#f6_d4" transform="matrix(14,0,0,14,163.1,154.7)" />
<use xlink:href="#f6_bp" transform="matrix(14,0,0,14,168.7,154.7)" />
<use xlink:href="#f6_d8" transform="matrix(14,0,0,14,181.1,154.7)" />
<use xlink:href="#f6_be" transform="matrix(14,0,0,14,192.3,154.7)" />
<use xlink:href="#f6_c1" transform="matrix(14,0,0,14,206.3,154.7)" />
<use xlink:href="#f6_c7" transform="matrix(14,0,0,14,214.7,154.7)" />
<use xlink:href="#f6_cv" transform="matrix(14,0,0,14,226.8,154.7)" />
<use xlink:href="#f6_mv" transform="matrix(14,0,0,14,238.1,154.7)" />
<use xlink:href="#f6_nl" transform="matrix(14,0,0,14,249.8,154.7)" />
<use xlink:href="#f6_bs" transform="matrix(14,0,0,14,249.8,154.7)" />
<use xlink:href="#f6_c1" transform="matrix(14,0,0,14,269.5,154.7)" />
<use xlink:href="#f6_cv" transform="matrix(14,0,0,14,277.9,154.7)" />
<use xlink:href="#f6_k" transform="matrix(14,0,0,14,283.5,154.7)" />
<use xlink:href="#f6_bz" transform="matrix(14,0,0,14,294.4,154.7)" />
<use xlink:href="#f6_ct" transform="matrix(14,0,0,14,307.7,154.7)" />
<use xlink:href="#f6_c1" transform="matrix(14,0,0,14,313.4,154.7)" />
<use xlink:href="#f6_d4" transform="matrix(14,0,0,14,321.3,154.7)" />
<use xlink:href="#f6_bg" transform="matrix(14,0,0,14,327.4,154.7)" />
<use xlink:href="#f6_ct" transform="matrix(14,0,0,14,341.7,154.7)" />
<use xlink:href="#f6_bo" transform="matrix(14,0,0,14,347.3,154.7)" />
<use xlink:href="#f6_d8" transform="matrix(14,0,0,14,361.7,154.7)" />
<use xlink:href="#f6_cc" transform="matrix(14,0,0,14,372.9,154.7)" />
<use xlink:href="#f6_d5" transform="matrix(14,0,0,14,384.9,154.7)" />
<use xlink:href="#f6_by" transform="matrix(14,0,0,14,390.2,154.7)" />
<use xlink:href="#f6_d5" transform="matrix(14,0,0,14,404.3,154.7)" />
<use xlink:href="#f6_n0" transform="matrix(14,0,0,14,404.2,154.7)" />
<use xlink:href="#f6_bg" transform="matrix(14,0,0,14,417.3,154.7)" />
<use xlink:href="#f6_cv" transform="matrix(14,0,0,14,431.6,154.7)" />
<use xlink:href="#f6_c1" transform="matrix(14,0,0,14,442.9,154.7)" />
<use xlink:href="#f6_d4" transform="matrix(14,0,0,14,450.8,154.7)" />
<use xlink:href="#f6_br" transform="matrix(14,0,0,14,456.9,154.7)" />
<use xlink:href="#f6_d4" transform="matrix(14,0,0,14,468.1,154.7)" />
<use xlink:href="#f6_c7" transform="matrix(14,0,0,14,468.6,154.7)" />
<use xlink:href="#f6_c1" transform="matrix(14,0,0,14,480.7,154.7)" />
<use xlink:href="#f6_d4" transform="matrix(14,0,0,14,488.6,154.7)" />
<use xlink:href="#f6_c1" transform="matrix(14,0,0,14,100,187.9)" />
<use xlink:href="#f6_ct" transform="matrix(14,0,0,14,108.4,187.9)" />
<use xlink:href="#f6_bp" transform="matrix(14,0,0,14,114,187.9)" />
<use xlink:href="#f6_al" transform="matrix(14,0,0,14,132,187.9)" />
<use xlink:href="#f6_dj" transform="matrix(14,0,0,14,145,188.3)" />
<use xlink:href="#f6_bs" transform="matrix(14,0,0,14,147.8,187.9)" />
<use xlink:href="#f6_ct" transform="matrix(14,0,0,14,161.8,187.9)" />
<use xlink:href="#f6_c1" transform="matrix(14,0,0,14,167.5,187.9)" />
<use xlink:href="#f6_cv" transform="matrix(14,0,0,14,175.8,187.9)" />
<use xlink:href="#f6_bb" transform="matrix(14,0,0,14,187.1,187.9)" />
<use xlink:href="#f6_d4" transform="matrix(14,0,0,14,199.9,187.9)" />
<use xlink:href="#f6_c3" transform="matrix(14,0,0,14,199.7,187.9)" />
<use xlink:href="#f6_d8" transform="matrix(14,0,0,14,214.4,187.9)" />
<use xlink:href="#f6_nt" transform="matrix(14,0,0,14,225.7,187.9)" />
<use xlink:href="#f6_be" transform="matrix(14,0,0,14,231.4,187.9)" />
<use xlink:href="#f6_b9" transform="matrix(14,0,0,14,245.3,187.9)" />
<use xlink:href="#f6_bo" transform="matrix(14,0,0,14,260.8,187.9)" />
<use xlink:href="#f6_d8" transform="matrix(14,0,0,14,275.2,187.9)" />
<use xlink:href="#f6_k" transform="matrix(14,0,0,14,280.8,187.9)" />
<use xlink:href="#f6_bg" transform="matrix(14,0,0,14,291.7,187.9)" />
<use xlink:href="#f6_ct" transform="matrix(14,0,0,14,306,187.9)" />
<use xlink:href="#f6_bz" transform="matrix(14,0,0,14,311.6,187.9)" />
<use xlink:href="#f6_cv" transform="matrix(14,0,0,14,324.9,187.9)" />
<use xlink:href="#f6_br" transform="matrix(14,0,0,14,336.2,187.9)" />
<use xlink:href="#f6_c1" transform="matrix(14,0,0,14,347.9,187.9)" />
<use xlink:href="#f6_bv" transform="matrix(14,0,0,14,356.3,187.9)" />
<use xlink:href="#f6_cw" transform="matrix(14,0,0,14,368.7,187.8)" />
<use xlink:href="#f6_b1" transform="matrix(14,0,0,14,373.8,187.9)" />
<use xlink:href="#f6_c7" transform="matrix(14,0,0,14,400.9,187.9)" />
<use xlink:href="#f6_bt" transform="matrix(14,0,0,14,413,187.9)" />
<use xlink:href="#f6_bz" transform="matrix(14,0,0,14,430.4,187.9)" />
<use xlink:href="#f6_d4" transform="matrix(14,0,0,14,443.9,187.9)" />
<use xlink:href="#f6_ax" transform="matrix(14,0,0,14,449.4,187.9)" />
<use xlink:href="#f6_b9" transform="matrix(14,0,0,14,461.3,187.9)" />
<use xlink:href="#f6_c3" transform="matrix(14,0,0,14,476.8,187.9)" />
<use xlink:href="#f6_cv" transform="matrix(14,0,0,14,491.5,187.9)" />
<use xlink:href="#f6_pd" transform="matrix(14,0,0,14,502.8,187.9)" />
<use xlink:href="#f6_q" transform="matrix(14,0,0,14,510.3,187.9)" />
<use xlink:href="#f6_br" transform="matrix(14,0,0,14,129.8,246.4)" />
<use xlink:href="#f6_c1" transform="matrix(14,0,0,14,141.5,246.4)" />
<use xlink:href="#f6_bv" transform="matrix(14,0,0,14,149.8,246.4)" />
<use xlink:href="#f6_d4" transform="matrix(14,0,0,14,161.8,246.4)" />
<use xlink:href="#f6_bz" transform="matrix(14,0,0,14,167.4,246.4)" />
<use xlink:href="#f6_bp" transform="matrix(14,0,0,14,180.7,246.4)" />
<use xlink:href="#f6_cv" transform="matrix(14,0,0,14,193,246.4)" />
<use xlink:href="#f6_ax" transform="matrix(14,0,0,14,204.3,246.4)" />
<use xlink:href="#f6_bz" transform="matrix(14,0,0,14,221.8,246.4)" />
<use xlink:href="#f6_ct" transform="matrix(14,0,0,14,235.2,246.4)" />
<use xlink:href="#f6_bt" transform="matrix(14,0,0,14,240.8,246.4)" />
<use xlink:href="#f6_ct" transform="matrix(14,0,0,14,252.5,246.4)" />
<use xlink:href="#f6_bb" transform="matrix(14,0,0,14,263.8,246.4)" />
<use xlink:href="#f6_cw" transform="matrix(14,0,0,14,276.9,246.2)" />
<use xlink:href="#f6_bg" transform="matrix(14,0,0,14,276.4,246.4)" />
<use xlink:href="#f6_c1" transform="matrix(14,0,0,14,290.7,246.4)" />
<use xlink:href="#f6_cv" transform="matrix(14,0,0,14,299,246.4)" />
<use xlink:href="#f6_k" transform="matrix(14,0,0,14,304.7,246.4)" />
<use xlink:href="#f6_bp" transform="matrix(14,0,0,14,315.5,246.4)" />
<use xlink:href="#f6_cw" transform="matrix(14,0,0,14,328.4,246.2)" />
<use xlink:href="#f6_bn" transform="matrix(14,0,0,14,333.5,246.4)" />
<use xlink:href="#f6_d8" transform="matrix(14,0,0,14,345.5,246.4)" />
<use xlink:href="#f6_c3" transform="matrix(14,0,0,14,351.1,246.4)" />
<use xlink:href="#f6_ct" transform="matrix(14,0,0,14,365.8,246.4)" />
<use xlink:href="#f6_c1" transform="matrix(14,0,0,14,377.1,246.4)" />
<use xlink:href="#f6_d4" transform="matrix(14,0,0,14,385,246.4)" />
<use xlink:href="#f6_bn" transform="matrix(14,0,0,14,391.1,246.4)" />
<use xlink:href="#f6_bz" transform="matrix(14,0,0,14,403,246.4)" />
<use xlink:href="#f6_b9" transform="matrix(14,0,0,14,416.4,246.4)" />
<use xlink:href="#f6_d4" transform="matrix(14,0,0,14,427.5,246.4)" />
<use xlink:href="#f6_am" transform="matrix(14,0,0,14,437.5,246.4)" />
<use xlink:href="#f6_c7" transform="matrix(14,0,0,14,459,246.4)" />
<use xlink:href="#f6_bg" transform="matrix(14,0,0,14,471.1,246.4)" />
<use xlink:href="#f6_d4" transform="matrix(14,0,0,14,485.5,246.4)" />
<use xlink:href="#f6_k" transform="matrix(14,0,0,14,485.4,246.4)" />
<use xlink:href="#f6_bp" transform="matrix(14,0,0,14,136.7,279.6)" />
<use xlink:href="#f6_cw" transform="matrix(14,0,0,14,149.5,279.5)" />
<use xlink:href="#f6_cb" transform="matrix(14,0,0,14,154.6,279.6)" />
<use xlink:href="#f6_ct" transform="matrix(14,0,0,14,169.5,279.6)" />
<use xlink:href="#f6_cb" transform="matrix(14,0,0,14,175.1,279.6)" />
<use xlink:href="#f6_cx" transform="matrix(14,0,0,14,190,279.5)" />
<use xlink:href="#f6_c1" transform="matrix(14,0,0,14,195.7,279.6)" />
<use xlink:href="#f6_d4" transform="matrix(14,0,0,14,203.7,279.6)" />
<use xlink:href="#f6_bf" transform="matrix(14,0,0,14,209.7,279.6)" />
<use xlink:href="#f6_ct" transform="matrix(14,0,0,14,225.4,279.6)" />
<use xlink:href="#f6_bt" transform="matrix(14,0,0,14,231.1,279.6)" />
<use xlink:href="#f6_d4" transform="matrix(14,0,0,14,242.9,279.6)" />
<use xlink:href="#f6_am" transform="matrix(14,0,0,14,248.4,279.6)" />
<use xlink:href="#f6_c7" transform="matrix(14,0,0,14,269.9,279.6)" />
<use xlink:href="#f6_bg" transform="matrix(14,0,0,14,282,279.6)" />
<use xlink:href="#f6_d4" transform="matrix(14,0,0,14,296.4,279.6)" />
<use xlink:href="#f6_k" transform="matrix(14,0,0,14,296.3,279.6)" />
<use xlink:href="#f6_bp" transform="matrix(14,0,0,14,307.1,279.6)" />
<use xlink:href="#f6_cw" transform="matrix(14,0,0,14,320,279.5)" />
<use xlink:href="#f6_bx" transform="matrix(14,0,0,14,325.1,279.6)" />
<use xlink:href="#f6_ct" transform="matrix(14,0,0,14,337.4,279.6)" />
<use xlink:href="#f6_ao" transform="matrix(14,0,0,14,343,279.6)" />
<use xlink:href="#f6_cb" transform="matrix(14,0,0,14,354.5,279.6)" />
<use xlink:href="#f6_ct" transform="matrix(14,0,0,14,369.4,279.6)" />
<use xlink:href="#f6_bt" transform="matrix(14,0,0,14,380.7,279.6)" />
<use xlink:href="#f6_d4" transform="matrix(14,0,0,14,392.5,279.6)" />
<use xlink:href="#f6_c3" transform="matrix(14,0,0,14,398.1,279.6)" />
<use xlink:href="#f6_ct" transform="matrix(14,0,0,14,412.8,279.6)" />
<use xlink:href="#f6_c1" transform="matrix(14,0,0,14,418.4,279.6)" />
<use xlink:href="#f6_ct" transform="matrix(14,0,0,14,426.8,279.6)" />
<use xlink:href="#f6_c3" transform="matrix(14,0,0,14,438.1,279.6)" />
<use xlink:href="#f6_ct" transform="matrix(14,0,0,14,452.8,279.6)" />
<use xlink:href="#f6_c7" transform="matrix(14,0,0,14,458.4,279.6)" />
<use xlink:href="#f6_bg" transform="matrix(14,0,0,14,470.5,279.6)" />
<use xlink:href="#f6_d4" transform="matrix(14,0,0,14,484.9,279.6)" />
<use xlink:href="#f6_bp" transform="matrix(14,0,0,14,119.5,338)" />
<use xlink:href="#f6_cw" transform="matrix(14,0,0,14,132.3,337.9)" />
<use xlink:href="#f6_bc" transform="matrix(14,0,0,14,137.4,338)" />
<use xlink:href="#f6_cv" transform="matrix(14,0,0,14,151.3,338)" />
<use xlink:href="#f6_by" transform="matrix(14,0,0,14,162.6,338)" />
<use xlink:href="#f6_c1" transform="matrix(14,0,0,14,176.6,338)" />
<use xlink:href="#f6_cu" transform="matrix(14,0,0,14,190.6,338)" />
<use xlink:href="#f6_br" transform="matrix(14,0,0,14,196.3,338)" />
<use xlink:href="#f6_c7" transform="matrix(14,0,0,14,207.9,338)" />
<use xlink:href="#f6_c3" transform="matrix(14,0,0,14,220,338)" />
<use xlink:href="#f6_d8" transform="matrix(14,0,0,14,234.7,338)" />
<use xlink:href="#f6_cb" transform="matrix(14,0,0,14,246,338)" />
<use xlink:href="#f6_bg" transform="matrix(14,0,0,14,260.9,338)" />
<use xlink:href="#f6_d8" transform="matrix(14,0,0,14,275.1,338)" />
<use xlink:href="#f6_c7" transform="matrix(14,0,0,14,280.8,338)" />
<use xlink:href="#f6_bg" transform="matrix(14,0,0,14,292.8,338)" />
<use xlink:href="#f6_d4" transform="matrix(14,0,0,14,307.2,338)" />
<use xlink:href="#f6_k" transform="matrix(14,0,0,14,307.1,338)" />
<use xlink:href="#f6_bp" transform="matrix(14,0,0,14,318,338)" />
<use xlink:href="#f6_cw" transform="matrix(14,0,0,14,330.8,337.9)" />
<use xlink:href="#f6_bz" transform="matrix(14,0,0,14,336,338)" />
<use xlink:href="#f6_d8" transform="matrix(14,0,0,14,349.3,338)" />
<use xlink:href="#f6_j8" transform="matrix(14,0,0,14,354.9,338)" />
<use xlink:href="#f6_ct" transform="matrix(14,0,0,14,374.7,338)" />
<use xlink:href="#f6_c1" transform="matrix(14,0,0,14,386,338)" />
<use xlink:href="#f6_ct" transform="matrix(14,0,0,14,394.4,338)" />
<use xlink:href="#f6_am" transform="matrix(14,0,0,14,405.7,338)" />
<use xlink:href="#f6_b9" transform="matrix(14,0,0,14,427.1,338)" />
<use xlink:href="#f6_ct" transform="matrix(14,0,0,14,442.6,338)" />
<use xlink:href="#f6_c3" transform="matrix(14,0,0,14,453.9,338)" />
<use xlink:href="#f6_ct" transform="matrix(14,0,0,14,468.6,338)" />
<use xlink:href="#f6_c7" transform="matrix(14,0,0,14,474.3,338)" />
<use xlink:href="#f6_bg" transform="matrix(14,0,0,14,486.3,338)" />
<use xlink:href="#f6_d4" transform="matrix(14,0,0,14,500.7,338)" />
<use xlink:href="#f6_bp" transform="matrix(14,0,0,14,132.1,371.3)" />
<use xlink:href="#f6_cw" transform="matrix(14,0,0,14,144.9,371.1)" />
<use xlink:href="#f6_bv" transform="matrix(14,0,0,14,150.1,371.3)" />
<use xlink:href="#f6_ct" transform="matrix(14,0,0,14,161.9,371.3)" />
<use xlink:href="#f6_c7" transform="matrix(14,0,0,14,167.5,371.3)" />
<use xlink:href="#f6_ct" transform="matrix(14,0,0,14,179.6,371.3)" />
<use xlink:href="#f6_b1" transform="matrix(14,0,0,14,190.9,371.3)" />
<use xlink:href="#f6_bv" transform="matrix(14,0,0,14,218.1,371.3)" />
<use xlink:href="#f6_bm" transform="matrix(14,0,0,14,229.9,371.3)" />
<use xlink:href="#f6_bp" transform="matrix(14,0,0,14,242.6,371.3)" />
<use xlink:href="#f6_cv" transform="matrix(14,0,0,14,254.9,371.3)" />
<use xlink:href="#f6_am" transform="matrix(14,0,0,14,266.2,371.3)" />
<use xlink:href="#f6_c7" transform="matrix(14,0,0,14,287.7,371.3)" />
<use xlink:href="#f6_bg" transform="matrix(14,0,0,14,299.8,371.3)" />
<use xlink:href="#f6_d4" transform="matrix(14,0,0,14,314.1,371.3)" />
<use xlink:href="#f6_bp" transform="matrix(14,0,0,14,319.7,371.3)" />
<use xlink:href="#f6_cw" transform="matrix(14,0,0,14,332.5,371.1)" />
<use xlink:href="#f6_bq" transform="matrix(14,0,0,14,337.7,371.3)" />
<use xlink:href="#f6_ct" transform="matrix(14,0,0,14,350.8,371.3)" />
<use xlink:href="#f6_c3" transform="matrix(14,0,0,14,356.5,371.3)" />
<use xlink:href="#f6_cv" transform="matrix(14,0,0,14,371.2,371.3)" />
<use xlink:href="#f6_c1" transform="matrix(14,0,0,14,382.5,371.3)" />
<use xlink:href="#f6_d4" transform="matrix(14,0,0,14,390.4,371.3)" />
<use xlink:href="#f6_c1" transform="matrix(14,0,0,14,396.5,371.3)" />
<use xlink:href="#f6_bo" transform="matrix(14,0,0,14,404.9,371.3)" />
<use xlink:href="#f6_b9" transform="matrix(14,0,0,14,419.3,371.3)" />
<use xlink:href="#f6_d4" transform="matrix(14,0,0,14,430.4,371.3)" />
<use xlink:href="#f6_am" transform="matrix(14,0,0,14,440.4,371.3)" />
<use xlink:href="#f6_c7" transform="matrix(14,0,0,14,461.9,371.3)" />
<use xlink:href="#f6_bg" transform="matrix(14,0,0,14,474,371.3)" />
<use xlink:href="#f6_d4" transform="matrix(14,0,0,14,488.4,371.3)" />
<use xlink:href="#f6_bp" transform="matrix(14,0,0,14,121.8,429.7)" />
<use xlink:href="#f6_cw" transform="matrix(14,0,0,14,134.6,429.6)" />
<use xlink:href="#f6_c3" transform="matrix(14,0,0,14,139.7,429.7)" />
<use xlink:href="#f6_be" transform="matrix(14,0,0,14,154.4,429.7)" />
<use xlink:href="#f6_b9" transform="matrix(14,0,0,14,168.4,429.7)" />
<use xlink:href="#f6_ct" transform="matrix(14,0,0,14,183.9,429.7)" />
<use xlink:href="#f6_b1" transform="matrix(14,0,0,14,189.5,429.7)" />
<use xlink:href="#f6_b9" transform="matrix(14,0,0,14,216.7,429.7)" />
<use xlink:href="#f6_c1" transform="matrix(14,0,0,14,232.2,429.7)" />
<use xlink:href="#f6_bp" transform="matrix(14,0,0,14,240.6,429.7)" />
<use xlink:href="#f6_cv" transform="matrix(14,0,0,14,252.9,429.7)" />
<use xlink:href="#f6_am" transform="matrix(14,0,0,14,264.2,429.7)" />
<use xlink:href="#f6_c7" transform="matrix(14,0,0,14,285.7,429.7)" />
<use xlink:href="#f6_bg" transform="matrix(14,0,0,14,297.7,429.7)" />
<use xlink:href="#f6_d4" transform="matrix(14,0,0,14,312.1,429.7)" />
<use xlink:href="#f6_k" transform="matrix(14,0,0,14,312,429.7)" />
<use xlink:href="#f6_bv" transform="matrix(14,0,0,14,322.9,429.7)" />
<use xlink:href="#f6_c1" transform="matrix(14,0,0,14,334.7,429.7)" />
<use xlink:href="#f6_cv" transform="matrix(14,0,0,14,343.1,429.7)" />
<use xlink:href="#f6_aq" transform="matrix(14,0,0,14,354.4,429.7)" />
<use xlink:href="#f6_bp" transform="matrix(14,0,0,14,370.1,429.7)" />
<use xlink:href="#f6_ct" transform="matrix(14,0,0,14,382.4,429.7)" />
<use xlink:href="#f6_c1" transform="matrix(14,0,0,14,388.1,429.7)" />
<use xlink:href="#f6_d8" transform="matrix(14,0,0,14,396.4,429.7)" />
<use xlink:href="#f6_be" transform="matrix(14,0,0,14,407.7,429.7)" />
<use xlink:href="#f6_c1" transform="matrix(14,0,0,14,421.7,429.7)" />
<use xlink:href="#f6_c7" transform="matrix(14,0,0,14,430.1,429.7)" />
<use xlink:href="#f6_cv" transform="matrix(14,0,0,14,442.2,429.7)" />
<use xlink:href="#f6_mw" transform="matrix(14,0,0,14,453.4,429.7)" />
<use xlink:href="#f6_nl" transform="matrix(14,0,0,14,465.2,429.7)" />
<use xlink:href="#f6_bs" transform="matrix(14,0,0,14,465.2,429.7)" />
<use xlink:href="#f6_c1" transform="matrix(14,0,0,14,484.9,429.7)" />
<use xlink:href="#f6_cv" transform="matrix(14,0,0,14,493.3,429.7)" />
<use xlink:href="#f6_bg" transform="matrix(14,0,0,14,117.2,462.9)" />
<use xlink:href="#f6_ct" transform="matrix(14,0,0,14,131.4,462.9)" />
<use xlink:href="#f6_bz" transform="matrix(14,0,0,14,137.1,462.9)" />
<use xlink:href="#f6_cv" transform="matrix(14,0,0,14,150.4,462.9)" />
<use xlink:href="#f6_bv" transform="matrix(14,0,0,14,161.7,462.9)" />
<use xlink:href="#f6_c1" transform="matrix(14,0,0,14,173.6,462.9)" />
<use xlink:href="#f6_cv" transform="matrix(14,0,0,14,181.9,462.9)" />
<use xlink:href="#f6_bt" transform="matrix(14,0,0,14,193.2,462.9)" />
<use xlink:href="#f6_d4" transform="matrix(14,0,0,14,205.1,462.9)" />
<use xlink:href="#f6_c1" transform="matrix(14,0,0,14,210.6,462.9)" />
<use xlink:href="#f6_ct" transform="matrix(14,0,0,14,219,462.9)" />
<use xlink:href="#f6_dj" transform="matrix(14,0,0,14,219.2,463.3)" />
<use xlink:href="#f6_bs" transform="matrix(14,0,0,14,224.6,462.9)" />
<use xlink:href="#f6_ct" transform="matrix(14,0,0,14,238.6,462.9)" />
<use xlink:href="#f6_c7" transform="matrix(14,0,0,14,244.2,462.9)" />
<use xlink:href="#f6_d8" transform="matrix(14,0,0,14,256.3,462.9)" />
<use xlink:href="#f6_ba" transform="matrix(14,0,0,14,267.6,462.9)" />
<use xlink:href="#f6_cv" transform="matrix(14,0,0,14,284.3,462.9)" />
<use xlink:href="#f6_c1" transform="matrix(14,0,0,14,289.9,462.9)" />
<use xlink:href="#f6_bt" transform="matrix(14,0,0,14,304,462.9)" />
<use xlink:href="#f6_d4" transform="matrix(14,0,0,14,315.8,462.9)" />
<use xlink:href="#f6_k" transform="matrix(14,0,0,14,315.7,462.9)" />
<use xlink:href="#f6_bv" transform="matrix(14,0,0,14,326.6,462.9)" />
<use xlink:href="#f6_c1" transform="matrix(14,0,0,14,338.4,462.9)" />
<use xlink:href="#f6_ct" transform="matrix(14,0,0,14,346.8,462.9)" />
<use xlink:href="#f6_bx" transform="matrix(14,0,0,14,358.1,462.9)" />
<use xlink:href="#f6_cw" transform="matrix(14,0,0,14,370.9,462.8)" />
<use xlink:href="#f6_c3" transform="matrix(14,0,0,14,370.4,462.9)" />
<use xlink:href="#f6_ct" transform="matrix(14,0,0,14,385.1,462.9)" />
<use xlink:href="#f6_c7" transform="matrix(14,0,0,14,390.7,462.9)" />
<use xlink:href="#f6_ct" transform="matrix(14,0,0,14,402.8,462.9)" />
<use xlink:href="#f6_bg" transform="matrix(14,0,0,14,414.1,462.9)" />
<use xlink:href="#f6_ct" transform="matrix(14,0,0,14,428.3,462.9)" />
<use xlink:href="#f6_bz" transform="matrix(14,0,0,14,434,462.9)" />
<use xlink:href="#f6_cv" transform="matrix(14,0,0,14,447.3,462.9)" />
<use xlink:href="#f6_bg" transform="matrix(14,0,0,14,458.6,462.9)" />
<use xlink:href="#f6_ct" transform="matrix(14,0,0,14,472.8,462.9)" />
<use xlink:href="#f6_bp" transform="matrix(14,0,0,14,478.5,462.9)" />
<use xlink:href="#f6_n1" transform="matrix(14,0,0,14,490.8,462.9)" />
<use xlink:href="#f6_bg" transform="matrix(14,0,0,14,124.1,521.4)" />
<use xlink:href="#f6_ct" transform="matrix(14,0,0,14,138.3,521.4)" />
<use xlink:href="#f6_bz" transform="matrix(14,0,0,14,143.9,521.4)" />
<use xlink:href="#f6_cv" transform="matrix(14,0,0,14,157.3,521.4)" />
<use xlink:href="#f6_bv" transform="matrix(14,0,0,14,168.6,521.4)" />
<use xlink:href="#f6_c1" transform="matrix(14,0,0,14,180.4,521.4)" />
<use xlink:href="#f6_cv" transform="matrix(14,0,0,14,188.8,521.4)" />
<use xlink:href="#f6_bt" transform="matrix(14,0,0,14,200.1,521.4)" />
<use xlink:href="#f6_d4" transform="matrix(14,0,0,14,211.9,521.4)" />
<use xlink:href="#f6_c7" transform="matrix(14,0,0,14,217.5,521.4)" />
<use xlink:href="#f6_bv" transform="matrix(14,0,0,14,229.5,521.4)" />
<use xlink:href="#f6_c1" transform="matrix(14,0,0,14,241.4,521.4)" />
<use xlink:href="#f6_ct" transform="matrix(14,0,0,14,249.8,521.4)" />
<use xlink:href="#f6_b1" transform="matrix(14,0,0,14,255.4,521.4)" />
<use xlink:href="#f6_ba" transform="matrix(14,0,0,14,282.6,521.4)" />
<use xlink:href="#f6_cv" transform="matrix(14,0,0,14,299.3,521.4)" />
<use xlink:href="#f6_c1" transform="matrix(14,0,0,14,304.9,521.4)" />
<use xlink:href="#f6_c1" transform="matrix(14,0,0,14,318.9,521.4)" />
<use xlink:href="#f6_ct" transform="matrix(14,0,0,14,327.3,521.4)" />
<use xlink:href="#f6_k" transform="matrix(14,0,0,14,332.9,521.4)" />
<use xlink:href="#f6_bz" transform="matrix(14,0,0,14,343.8,521.4)" />
<use xlink:href="#f6_ct" transform="matrix(14,0,0,14,357.2,521.4)" />
<use xlink:href="#f6_no" transform="matrix(14,0,0,14,362.8,521.4)" />
<use xlink:href="#f6_bq" transform="matrix(14,0,0,14,362.8,521.4)" />
<use xlink:href="#f6_d4" transform="matrix(14,0,0,14,376,521.4)" />
<use xlink:href="#f6_bp" transform="matrix(14,0,0,14,381.6,521.4)" />
<use xlink:href="#f6_d8" transform="matrix(14,0,0,14,394,521.4)" />
<use xlink:href="#f6_be" transform="matrix(14,0,0,14,405.2,521.4)" />
<use xlink:href="#f6_c1" transform="matrix(14,0,0,14,419.2,521.4)" />
<use xlink:href="#f6_c7" transform="matrix(14,0,0,14,427.6,521.4)" />
<use xlink:href="#f6_cv" transform="matrix(14,0,0,14,439.7,521.4)" />
<use xlink:href="#f6_mv" transform="matrix(14,0,0,14,451,521.4)" />
<use xlink:href="#f6_nl" transform="matrix(14,0,0,14,462.8,521.4)" />
<use xlink:href="#f6_bs" transform="matrix(14,0,0,14,462.8,521.4)" />
<use xlink:href="#f6_c1" transform="matrix(14,0,0,14,482.4,521.4)" />
<use xlink:href="#f6_cv" transform="matrix(14,0,0,14,490.8,521.4)" />
<use xlink:href="#f6_bz" transform="matrix(14,0,0,14,213.4,554.6)" />
<use xlink:href="#f6_ct" transform="matrix(14,0,0,14,226.8,554.6)" />
<use xlink:href="#f6_c1" transform="matrix(14,0,0,14,232.4,554.6)" />
<use xlink:href="#f6_d4" transform="matrix(14,0,0,14,240.4,554.6)" />
<use xlink:href="#f6_bg" transform="matrix(14,0,0,14,246.4,554.6)" />
<use xlink:href="#f6_ct" transform="matrix(14,0,0,14,260.7,554.6)" />
<use xlink:href="#f6_bo" transform="matrix(14,0,0,14,266.3,554.6)" />
<use xlink:href="#f6_d8" transform="matrix(14,0,0,14,280.7,554.6)" />
<use xlink:href="#f6_cc" transform="matrix(14,0,0,14,292,554.6)" />
<use xlink:href="#f6_d5" transform="matrix(14,0,0,14,303.9,554.6)" />
<use xlink:href="#f6_by" transform="matrix(14,0,0,14,309.2,554.6)" />
<use xlink:href="#f6_d5" transform="matrix(14,0,0,14,323.3,554.6)" />
<use xlink:href="#f6_n0" transform="matrix(14,0,0,14,323.2,554.6)" />
<use xlink:href="#f6_bg" transform="matrix(14,0,0,14,336.3,554.6)" />
<use xlink:href="#f6_cv" transform="matrix(14,0,0,14,350.6,554.6)" />
<use xlink:href="#f6_c1" transform="matrix(14,0,0,14,361.9,554.6)" />
<use xlink:href="#f6_d4" transform="matrix(14,0,0,14,369.9,554.6)" />
<use xlink:href="#f6_br" transform="matrix(14,0,0,14,375.9,554.6)" />
<use xlink:href="#f6_d4" transform="matrix(14,0,0,14,387.2,554.6)" />
<use xlink:href="#f6_c7" transform="matrix(14,0,0,14,387.6,554.6)" />
<use xlink:href="#f6_c1" transform="matrix(14,0,0,14,399.7,554.6)" />
<use xlink:href="#f6_d4" transform="matrix(14,0,0,14,407.7,554.6)" />
<use xlink:href="#f7_4r" transform="matrix(9,0,0,9,290.2,795.2)" />
<use xlink:href="#f8_t" transform="matrix(9,0,0,9,303,795.2)" />
<use xlink:href="#f8_m" transform="matrix(9,0,0,9,310.7,795.2)" />
<use xlink:href="#f7_4r" transform="matrix(9,0,0,9,321.3,795.2)" />
</g>
</g>
<image preserveAspectRatio="none" x="22" y="801" width="581" height="86" xlink:href="img/1.png"/>
<path d="M226.9,97.4H395.3v1.1H226.9V97.4Z" class="g1_98"/>
<image preserveAspectRatio="none" x="202" y="14" width="217" height="26" xlink:href="img/2.png"/>
<defs>
<path d="M686,512V822H333L435,749l2,-237ZM860,-65L686,29V298H440V168L348,118c0,0,-90,30,-190,128c0,0,-100,98,-127,183l52,83H203L189,822H0L-86,937l32,64H1045l86,-115l-33,-64H828L930,749V-31L860,-65Z"
id="f5_bz"
transform="scale(0.001,-0.001)"/>

<path d="M277,-65L102,29V822H0L-86,937l32,64H463L548,886L516,822H244L347,749V-31L277,-65Z"
id="f5_ct"
transform="scale(0.001,-0.001)"/>

<path d="M0,822L-86,937l32,64H15L101,886L69,822Z"
id="f5_no"
transform="scale(0.001,-0.001)"/>

<path d="M842,-65L668,29V141c0,0,-66,-33,-142,-33c0,0,-146,0,-279,109c0,0,-134,108,-209,287l29,78c0,0,324,35,324,203c0,0,0,46,-27,80c0,0,-13,6,-29,6c0,0,-32,0,-57,-23c0,0,-24,-23,-24,-60c0,0,0,-49,45,-91L211,636C211,636,49,746,49,857c0,0,0,73,59,126c0,0,60,53,146,53c0,0,128,0,236,-109c0,0,107,-110,107,-239c0,0,0,-98,-74,-182c0,0,-75,-83,-222,-119c0,0,20,-51,52,-95c0,0,1,0,4,0c20,0,102,2,181,39c0,0,90,42,130,121V822H636L550,937l32,64h445l85,-115l-32,-64H810L912,749V-31L842,-65Z"
id="f5_bq"
transform="scale(0.001,-0.001)"/>

<path d="M-289,908l-132,216c0,0,-70,120,-169,120c0,0,-83,0,-200,-80l-130,249c0,0,125,78,234,78c0,0,187,0,349,-241L-159,969L-289,908Z"
id="f5_d4"
transform="scale(0.001,-0.001)"/>

<path d="M342,-69c0,0,-146,139,-224,256c0,0,-78,117,-78,226c0,0,0,120,90,193c0,0,90,72,243,72H599V822H0L-86,937l32,64H959l86,-115l-32,-64H741L843,749V-31L773,-65L599,29V445H448c0,0,-81,0,-123,-34c0,0,-42,-34,-42,-90c0,0,0,-54,43,-118c0,0,44,-64,143,-163L342,-69Z"
id="f5_bp"
transform="scale(0.001,-0.001)"/>

<path d="M277,-65L102,29V822H0L-86,937l32,64H86L18,1111c0,0,-67,122,-168,122c0,0,-81,0,-202,-80l-128,250c0,0,122,77,232,77c0,0,196,0,356,-250L252,1001H463L548,886L516,822H244L347,749V-31L277,-65Z"
id="f5_d8"
transform="scale(0.001,-0.001)"/>

<path d="M911,-65L736,29V136c0,0,-59,-28,-134,-28c0,0,-159,0,-296,101c0,0,-136,101,-136,233c0,0,0,47,21,90H60L-22,648L9,712H578L671,574L639,510H492c0,0,-87,-58,-87,-157c0,0,0,-26,9,-52l50,-5c0,0,78,0,156,44c0,0,77,43,116,111V822H0L-86,937l32,64H1095l86,-115l-32,-64H878L981,749V-31L911,-65Z"
id="f5_be"
transform="scale(0.001,-0.001)"/>

<path d="M545,-97L35,405L87,542H295c0,0,1,5,1,280H0L-86,937l32,64H729L814,886L782,822H445L550,749V547c0,0,0,-75,-41,-127c0,0,-41,-52,-129,-111L709,110V41L545,-97Z"
id="f5_c1"
transform="scale(0.001,-0.001)"/>

<path d="M371,296c0,0,71,0,139,34c0,0,69,34,109,92v90c0,0,-72,36,-148,36c0,0,-84,0,-131,-47c0,0,-47,-47,-47,-111c0,0,0,-49,28,-89l50,-5ZM793,-65L619,29V134c0,0,-55,-27,-122,-27c0,0,-98,0,-207,48c0,0,-108,48,-182,132c0,0,-73,84,-73,188c0,0,0,113,83,191c0,0,84,78,212,78c0,0,41,0,84,-9L619,643V822H0L-86,937l32,64H978l85,-115l-32,-64H761L863,749V-31L793,-65Z"
id="f5_c7"
transform="scale(0.001,-0.001)"/>

<path d="M277,-65L102,29V822H0L-86,937l32,64H110c0,0,-50,142,-110,226c0,0,-60,84,-149,84c0,0,-59,0,-97,-37c0,0,-39,-36,-39,-91c0,0,0,-57,42,-115l-95,-50c0,0,-145,116,-145,267c0,0,0,108,75,179c0,0,76,70,195,70c0,0,179,0,297,-150c0,0,119,-150,189,-383H463L548,886L516,822H244L347,749V-31L277,-65Z"
id="f5_cv"
transform="scale(0.001,-0.001)"/>

<path d="M721,-654c0,0,-249,0,-541,360l106,98c0,0,154,-170,229,-220c0,0,75,-50,145,-50c0,0,67,0,110,38c0,0,43,38,43,90c0,0,0,49,-41,85L626,-392L477,-246c0,0,70,119,191,137l-17,75c0,0,-46,-9,-89,-9c0,0,-108,0,-227,58c0,0,-120,58,-199,159c0,0,-79,101,-79,219c0,0,0,134,94,216c0,0,95,82,252,85H529V822H0L-86,937l32,64H943l85,-115L996,822H649L759,744V468H495c0,0,-98,0,-149,-46c0,0,-51,-45,-51,-109c0,0,0,-75,49,-120c0,0,49,-23,105,-23c0,0,64,0,136,30L565,335l155,58L908,159C908,159,877,95,799,40l75,-210c0,0,118,-98,118,-238c0,0,0,-106,-78,-176c0,0,-77,-70,-193,-70Z"
id="f5_mv"
transform="scale(0.001,-0.001)"/>

<path d="M0,822L-86,937l32,64H9L95,886L63,822Z"
id="f5_nl"
transform="scale(0.001,-0.001)"/>

<path d="M895,-65L721,29V134c0,0,-66,-32,-148,-32c0,0,-156,0,-289,105c0,0,-133,105,-133,231c0,0,0,72,48,136C199,574,28,695,28,836c0,0,0,88,65,149c0,0,66,60,167,60c0,0,99,0,172,-61c0,0,72,-61,139,-180L477,729c0,0,-55,87,-92,119l-26,3c0,0,-43,0,-73,-28c0,0,-29,-29,-29,-73c0,0,0,-50,41,-95c0,0,67,33,150,33c0,0,45,0,93,-10L642,519L610,457l-51,3c0,0,-82,0,-130,-35c0,0,-49,-35,-49,-83c0,0,0,-26,16,-47c0,0,18,-6,46,-6c0,0,77,0,161,46c0,0,83,47,118,119V822H678L593,937l32,64h455l87,-115l-32,-64H863L966,749V-31L895,-65Z"
id="f5_bs"
transform="scale(0.001,-0.001)"/>

<path d="M689,445V822H286l65,-58l8,-319ZM779,-49L689,8V328H370V180L296,150c0,0,-56,35,-120,104c0,0,-63,70,-89,131l41,60H238L223,822H0l-45,76l14,31H953l46,-76L985,822H750l66,-58V-39L779,-49Z"
id="f6_bz"
transform="scale(0.001,-0.001)"/>

<path d="M228,-49L138,8V822H0l-45,76l14,31H402l46,-76L434,822H199l65,-58V-39L228,-49Z"
id="f6_ct"
transform="scale(0.001,-0.001)"/>

<path d="M0,822l-45,76l14,31H61l46,-76L93,822Z"
id="f6_no"
transform="scale(0.001,-0.001)"/>

<path d="M768,-49L678,8V202c0,0,-73,-58,-172,-58c0,0,-123,0,-240,94c0,0,-118,94,-179,237l20,55c0,0,134,12,215,70c0,0,81,57,81,141c0,0,0,90,-67,134l-26,3c0,0,-46,0,-74,-29c0,0,-28,-30,-28,-68c0,0,0,-55,82,-109L252,620C252,620,93,720,93,820c0,0,0,65,47,104c0,0,46,40,114,40c0,0,99,0,179,-83c0,0,80,-83,82,-197c0,0,0,-93,-79,-165c0,0,-78,-73,-199,-97c0,0,29,-104,88,-158c0,0,42,-16,92,-16c0,0,78,0,151,38c0,0,74,38,110,111V822H553l-46,76l14,31H943l45,-76L975,822H739l66,-58V-39L768,-49Z"
id="f6_bq"
transform="scale(0.001,-0.001)"/>

<path d="M-214,863l-199,281c0,0,-70,92,-157,92c0,0,-69,0,-159,-58l-72,118c0,0,89,73,180,73c0,0,141,0,258,-170L-155,901l-59,-38Z"
id="f6_d4"
transform="scale(0.001,-0.001)"/>

<path d="M347,-57C347,-57,66,211,66,394c0,0,0,98,74,164c0,0,74,65,225,65H616V822H0l-45,76l14,31H880l46,-76L912,822H677l66,-58V-39L706,-49L616,8V500H428c0,0,-239,0,-239,-161c0,0,0,-136,214,-343L347,-57Z"
id="f6_bp"
transform="scale(0.001,-0.001)"/>

<path d="M228,-49L138,8V822H0l-45,76l14,31H119L-33,1144c0,0,-70,92,-157,92c0,0,-69,0,-159,-58l-72,118c0,0,89,73,181,73c0,0,140,0,257,-170L205,929H402l46,-76L434,822H199l65,-58V-39L228,-49Z"
id="f6_d8"
transform="scale(0.001,-0.001)"/>

<path d="M825,-49L735,8V217c0,0,-86,-72,-197,-72c0,0,-130,0,-238,91c0,0,-107,91,-107,204c0,0,0,55,27,105H55L12,616l14,30H574l46,-76L607,539H396c0,0,-78,-49,-78,-162c0,0,0,-70,40,-111c0,0,39,-15,94,-15c0,0,84,0,163,41c0,0,79,41,120,121V822H0l-45,76l14,31H999l46,-76l-14,-31H796l66,-58V-39L825,-49Z"
id="f6_be"
transform="scale(0.001,-0.001)"/>

<path d="M527,-71L52,414l34,92H277c0,0,12,32,12,72V822H0l-45,76l14,31H599l46,-76L631,822H350l66,-55V564c0,0,0,-96,-152,-248L610,34L611,8L527,-71Z"
id="f6_c1"
transform="scale(0.001,-0.001)"/>

<path d="M325,240c0,0,77,0,154,35c0,0,77,35,120,99V500c0,0,-118,73,-222,73c0,0,-97,0,-151,-54c0,0,-53,-53,-53,-128c0,0,0,-73,49,-125c0,0,38,-26,103,-26ZM689,-49L599,8V199c0,0,-73,-65,-179,-65c0,0,-134,0,-252,96c0,0,-118,95,-118,221c0,0,0,102,78,171c0,0,78,69,190,69c0,0,38,0,75,-10L599,582V822H0l-45,76l14,31H863l46,-76L895,822H660l66,-58V-39L689,-49Z"
id="f6_c7"
transform="scale(0.001,-0.001)"/>

<path d="M228,-49L138,8V822H0l-45,76l14,31H138c0,0,-109,342,-284,342c0,0,-62,0,-102,-40c0,0,-40,-39,-40,-93c0,0,0,-61,51,-134l-42,-32c0,0,-128,113,-128,226c0,0,0,79,60,136c0,0,61,56,154,56c0,0,137,0,249,-125c0,0,112,-125,169,-336H402l46,-76L434,822H199l65,-58V-39L228,-49Z"
id="f6_cv"
transform="scale(0.001,-0.001)"/>

<path d="M652,-518c0,0,-209,0,-487,322l53,49c0,0,120,-129,210,-193c0,0,90,-65,177,-65c0,0,72,0,113,39c0,0,41,40,41,92c0,0,0,75,-78,105L564,-286l-90,98c0,0,62,96,169,96L605,37C605,37,552,18,498,18c0,0,-151,0,-288,115C210,133,73,248,73,388c0,0,0,113,84,184c0,0,84,71,222,73H524V822H0l-45,76l14,31H842l46,-76L874,822H567l84,-73V519l-3,2l3,-3H408c0,0,-93,0,-153,-52c0,0,-59,-52,-59,-128c0,0,0,-121,110,-188c0,0,53,-17,105,-17c0,0,92,0,153,43L535,318l101,49L773,203c0,0,-20,-67,-87,-122l61,-204c0,0,52,-32,83,-87c0,0,32,-55,32,-116c0,0,0,-85,-61,-139c0,0,-60,-53,-149,-53Z"
id="f6_mv"
transform="scale(0.001,-0.001)"/>

<path d="M0,822l-45,76l14,31H38L84,853L70,822Z"
id="f6_nl"
transform="scale(0.001,-0.001)"/>

<path d="M827,-49L736,8V205c0,0,-84,-84,-209,-84c0,0,-130,0,-237,91c0,0,-108,92,-108,196c0,0,0,79,61,137C243,545,66,672,66,791c0,0,0,75,52,124c0,0,53,49,134,49c0,0,164,0,260,-237L451,694c0,0,-55,114,-119,163l-31,5c0,0,-44,0,-77,-32c0,0,-33,-31,-33,-78c0,0,0,-86,113,-165c0,0,60,27,133,27l67,-4l75,-89L564,490l-51,7H493c0,0,-90,0,-142,-43c0,0,-52,-43,-52,-104c0,0,0,-60,51,-109c0,0,33,-16,84,-16c0,0,89,0,177,47c0,0,89,47,125,137V822H567l-46,76l14,31h466l46,-76l-14,-31H798l65,-58V-39L827,-49Z"
id="f6_bs"
transform="scale(0.001,-0.001)"/>

<path d="M108,-222l-44,58c0,0,96,81,104,164L89,61c0,0,12,83,93,122c0,0,50,-15,79,-55c0,0,29,-39,29,-90c0,0,0,-69,-48,-142c0,0,-48,-72,-134,-118Z"
id="f6_k"
transform="scale(0.001,-0.001)"/>

<path d="M845,-49L755,8V513H497c0,0,61,-45,93,-110c0,0,33,-64,33,-128c0,0,0,-90,-58,-144c0,0,-59,-53,-143,-53c0,0,-133,0,-234,139C188,217,87,356,20,596l76,24c0,0,60,-201,127,-306c0,0,67,-105,160,-105c0,0,57,0,91,36c0,0,33,36,33,91c0,0,0,84,-73,159L295,558v71H755V822H0l-45,76l14,31H1019l46,-76l-14,-31H816l66,-58V-39L845,-49Z"
id="f6_bg"
transform="scale(0.001,-0.001)"/>

<path d="M342,324c0,0,45,0,75,34c0,0,31,33,31,100V822H165l66,-58V390c0,0,32,-66,111,-66ZM853,-49L762,8V822H509l65,-58V455c0,0,0,-134,-51,-185c0,0,-52,-52,-127,-52c0,0,-98,0,-195,99c0,0,-97,99,-97,209V822H0l-45,76l14,31H1027l46,-76l-14,-31H823l66,-58V-39L853,-49Z"
id="f6_bo"
transform="scale(0.001,-0.001)"/>

<path d="M688,-243c0,0,-256,53,-408,173c0,0,-152,119,-152,270c0,0,0,101,68,171c0,0,-101,84,-101,179c0,0,0,64,53,112c0,0,54,47,191,47H587V822H0l-45,76l14,31H830l45,-76L862,822H640l66,-58V585H362c0,0,-159,-1,-159,-92c0,0,0,-41,46,-80c0,0,76,47,183,47c0,0,135,0,230,-76c0,0,96,-75,96,-187C758,197,758,67,629,2L545,104c0,0,49,30,81,75c0,0,32,44,32,82c0,0,0,16,-4,26c0,0,-64,58,-167,58c0,0,-97,0,-166,-50v-2c0,0,-67,-52,-67,-131c0,0,0,-116,132,-199c0,0,132,-84,334,-132l-32,-74Z"
id="f6_cc"
transform="scale(0.001,-0.001)"/>

<path d="M-214,860l-227,219c0,0,-73,70,-148,70c0,0,-67,0,-160,-58l-72,117c0,0,83,71,176,71c0,0,120,0,232,-124L-221,940l-102,294c0,0,-64,179,-189,179c0,0,-60,0,-133,-33l-60,125c0,0,84,47,164,47c0,0,200,0,281,-276L-150,901l-23,-15l-41,-26Z"
id="f6_d5"
transform="scale(0.001,-0.001)"/>

<path d="M823,-49L733,8V339H445V191L371,160c0,0,-56,36,-120,105c0,0,-63,70,-89,131l41,59H313V735c0,0,0,99,-55,140c0,0,-3,1,-8,1c-16,0,-48,-3,-71,-23c0,0,-31,-26,-31,-66c0,0,0,-69,81,-113L189,620C189,620,31,720,31,828c0,0,0,61,45,99c0,0,46,37,109,37c0,0,96,0,173,-86c0,0,76,-87,79,-194V455H733V822H556l-46,76l14,31H998l45,-76l-13,-31H794l66,-58V-39L823,-49Z"
id="f6_by"
transform="scale(0.001,-0.001)"/>

<path d="M527,-71L52,414l34,92H277c0,0,12,32,12,72V822H0l-45,76l14,31H940l45,-76L972,822H350l66,-55V570c0,0,146,98,247,98c0,0,95,0,167,-73c0,0,71,-72,71,-167c0,0,0,-77,-53,-142c0,0,-54,-64,-159,-136l-89,99c0,0,100,70,152,121c0,0,52,52,52,105c0,0,0,34,-23,60c0,0,-22,26,-72,26c0,0,-139,0,-434,-252L610,34L611,8L527,-71Z"
id="f6_n0"
transform="scale(0.001,-0.001)"/>

<path d="M675,-274L602,21C602,21,550,3,498,3C498,3,347,3,210,118C210,118,73,232,73,373c0,0,0,113,84,184c0,0,84,71,222,72H524V822H0l-45,76l14,31H834l46,-76L866,822H585l66,-58V504l-3,2l3,-3H408c0,0,-95,0,-154,-53c0,0,-58,-53,-58,-132c0,0,0,-49,27,-100c0,0,28,-50,83,-84c0,0,44,-15,96,-15c0,0,91,0,160,46L535,303l101,48L773,188c0,0,-8,-28,-34,-66c0,0,-27,-38,-62,-64L813,-221L675,-274Z"
id="f6_br"
transform="scale(0.001,-0.001)"/>

<path d="M959,-49L869,8V367c0,0,-32,-13,-64,-13c0,0,-50,0,-110,25c0,0,23,-52,23,-109c0,0,0,-103,-70,-170c0,0,-70,-66,-182,-66c0,0,-110,0,-222,82c0,0,-111,83,-213,293l68,42c0,0,72,-155,152,-231c0,0,81,-76,178,-76c0,0,83,0,131,49c0,0,48,48,48,117c0,0,0,54,-30,100c0,0,-31,47,-91,65L325,391L257,512c0,0,68,53,156,56c0,0,140,72,140,179c0,0,0,69,-52,99c0,0,-4,1,-11,1c-19,0,-66,-4,-123,-30c0,0,-78,-35,-142,-96L150,823c0,0,119,117,253,117c0,0,98,0,175,-71c0,0,77,-70,77,-159c0,0,0,-103,-94,-180c0,0,39,-23,73,-56c0,0,52,-22,109,-22c0,0,77,0,126,38V822H727l-46,76l14,31h439l45,-76l-13,-31H930l66,-58V-39L959,-49Z"
id="f6_al"
transform="scale(0.001,-0.001)"/>

<path d="M0,1062c0,0,-26,11,-60,36c0,0,-34,26,-51,49c0,0,39,81,91,110c0,0,60,-23,106,-85c0,0,-28,-70,-86,-110Z"
id="f6_dj"
transform="scale(0.001,-0.001)"/>

<path d="M727,-49L637,8V822H278l66,-58V226L270,196c0,0,-64,36,-122,98c0,0,-58,62,-79,122l43,59H217V822H0l-45,76l14,31H901l46,-76L933,822H698l66,-58V-39L727,-49Z"
id="f6_bb"
transform="scale(0.001,-0.001)"/>

<path d="M413,-59C413,-59,53,193,53,416c0,0,0,97,66,164c0,0,66,66,156,66c0,0,61,0,110,-30L487,507c0,0,92,126,257,126l35,-2V822H0l-45,76l14,31H1043l46,-76l-13,-31H840l66,-58V-39L869,-49L779,8V547c0,0,-101,-5,-165,-90c0,0,-64,-86,-70,-222L507,225l-90,73c0,0,5,79,35,151c0,0,-59,66,-128,66c0,0,-57,0,-100,-38c0,0,-44,-39,-44,-109c0,0,0,-165,284,-360L413,-59Z"
id="f6_c3"
transform="scale(0.001,-0.001)"/>

<path d="M228,-49L138,8V822H0l-45,76l14,31H134c0,0,-91,93,-91,202c0,0,0,105,85,170c0,0,86,65,236,65c0,0,340,0,742,-350l-50,-46c0,0,-182,135,-340,208c0,0,-158,73,-302,73c0,0,-113,0,-183,-48c0,0,-69,-48,-69,-132c0,0,0,-63,53,-142H402l46,-76L434,822H199l65,-58V-39L228,-49Z"
id="f6_nt"
transform="scale(0.001,-0.001)"/>

<path d="M283,260c0,0,122,0,209,113V513c0,0,-90,51,-160,51c0,0,-80,0,-129,-50c0,0,-49,-50,-49,-118c0,0,0,-60,35,-110c0,0,45,-26,94,-26ZM582,-49L492,8V211c0,0,-63,-54,-141,-54c0,0,-113,0,-213,92c0,0,-100,92,-100,205c0,0,0,93,69,157c0,0,69,64,162,64c0,0,32,0,64,-9L492,590V822H0l-45,76l14,31H1108l45,-76l-13,-31H553l66,-58V524c0,0,91,89,192,89c0,0,98,0,171,-79c0,0,72,-79,72,-186c0,0,0,-178,-224,-330L736,124c0,0,219,153,219,269c0,0,0,44,-26,75c0,0,-26,32,-81,32c0,0,-109,0,-229,-155V-39L582,-49Z"
id="f6_b9"
transform="scale(0.001,-0.001)"/>

<path d="M388,325c0,0,58,0,112,31c0,0,53,31,84,86V822H165l69,-58V408c0,0,47,-83,154,-83ZM674,-49L584,8V257c0,0,-61,-51,-141,-51c0,0,-125,0,-232,109c0,0,-107,108,-107,243V822H0l-45,76l14,31H848l46,-76L880,822H645l65,-58V-39L674,-49Z"
id="f6_bv"
transform="scale(0.001,-0.001)"/>

<path d="M-234,-413c0,0,-210,0,-488,322l54,49c0,0,119,-128,209,-193c0,0,90,-65,177,-65c0,0,72,0,113,40c0,0,42,39,42,91c0,0,0,75,-78,106L-323,-181l-90,98c0,0,63,95,167,95c0,0,90,0,155,-69c0,0,66,-70,66,-164c0,0,0,-85,-60,-139c0,0,-61,-53,-149,-53Z"
id="f6_cw"
transform="scale(0.001,-0.001)"/>

<path d="M959,-49L869,8V367c0,0,-32,-13,-64,-13c0,0,-50,0,-110,25c0,0,23,-52,23,-109c0,0,0,-103,-70,-170c0,0,-70,-66,-182,-66c0,0,-110,0,-222,82c0,0,-111,83,-213,293l68,42c0,0,72,-155,152,-231c0,0,81,-76,178,-76c0,0,83,0,131,49c0,0,48,48,48,117c0,0,0,54,-30,100c0,0,-31,47,-91,65L325,391L257,512c0,0,68,53,156,56c0,0,140,72,140,179c0,0,0,69,-52,99c0,0,-4,1,-11,1c-19,0,-66,-4,-123,-30c0,0,-78,-35,-142,-96L150,823c0,0,119,117,253,117c0,0,98,0,175,-71c0,0,77,-70,77,-159c0,0,0,-103,-94,-180c0,0,39,-23,73,-56c0,0,52,-22,109,-22c0,0,77,0,126,38V822H727l-46,76l14,31h558l-153,215c0,0,-70,92,-157,92c0,0,-69,0,-159,-58l-72,118c0,0,89,73,180,73c0,0,141,0,258,-170L1338,929h197l46,-76l-13,-31H1332l66,-58V-39l-37,-10L1271,8V822H930l66,-58V-39L959,-49Z"
id="f6_b1"
transform="scale(0.001,-0.001)"/>

<path d="M663,-49L573,8V445H299V280L226,251c0,0,-105,99,-162,238l63,72H573V822H0l-45,76l14,31H837l46,-76L869,822H634l66,-58V-39L663,-49Z"
id="f6_bt"
transform="scale(0.001,-0.001)"/>

<path d="M830,-253l-123,66c0,0,31,47,31,78c0,0,0,44,-64,84L353,130c0,0,-234,113,-234,325V822H0l-45,76l14,31H848l46,-76L880,822H655l68,-58V561c0,0,0,-176,-41,-241c0,0,-40,-65,-161,-106l-49,82l124,69V822H180l66,-58V283L646,92c0,0,126,-60,176,-110c0,0,50,-51,50,-115c0,0,0,-62,-42,-120Z"
id="f6_ax"
transform="scale(0.001,-0.001)"/>

<path d="M92,380L46,457l14,30H448l45,-76L480,380Z"
id="f6_pd"
transform="scale(0.001,-0.001)"/>

<path d="M95,0L67,98L422,497c0,0,130,154,130,259c0,0,0,63,-40,111c0,0,-40,48,-121,48c0,0,-75,0,-171,-29L193,695l-88,2c0,0,-13,82,-13,165l1,65c0,0,159,97,315,97c0,0,122,0,207,-78c0,0,85,-77,85,-193c0,0,0,-67,-34,-133c0,0,-33,-67,-165,-217L237,121l4,-14l373,21l49,136l83,-12C746,252,732,99,704,0Z"
id="f6_q"
transform="scale(0.001,-0.001)"/>

<path d="M570,78c0,0,66,17,105,54c0,0,40,38,40,88c0,0,0,40,-23,66c0,0,-23,26,-58,26c0,0,-40,0,-71,-33c0,0,-31,-33,-31,-90c0,0,0,-55,38,-111ZM538,-45c0,0,-182,0,-322,128C216,83,76,211,76,368c0,0,0,122,91,201c0,0,90,79,238,79H564V822H0l-45,76l14,31H853l45,-76L885,822H617l66,-58V521H420c0,0,-99,0,-162,-57c0,0,-62,-58,-62,-146c0,0,0,-121,105,-208c0,0,118,-41,188,-41l29,1l-69,46c0,0,-36,55,-36,115c0,0,0,73,48,123c0,0,49,49,123,49c0,0,87,0,151,-74c0,0,64,-74,64,-162c0,0,0,-94,-71,-153c0,0,-71,-59,-190,-59Z"
id="f6_bn"
transform="scale(0.001,-0.001)"/>

<path d="M959,-49L869,8V367c0,0,-32,-13,-64,-13c0,0,-50,0,-110,25c0,0,23,-52,23,-109c0,0,0,-103,-70,-170c0,0,-70,-66,-182,-66c0,0,-110,0,-222,82c0,0,-111,83,-213,293l68,42c0,0,72,-155,152,-231c0,0,81,-76,178,-76c0,0,83,0,131,49c0,0,48,48,48,117c0,0,0,54,-30,100c0,0,-31,47,-91,65L325,391L257,512c0,0,68,53,156,56c0,0,140,72,140,179c0,0,0,69,-52,99c0,0,-4,1,-11,1c-19,0,-66,-4,-123,-30c0,0,-78,-35,-142,-96L150,823c0,0,119,117,253,117c0,0,98,0,175,-71c0,0,77,-70,77,-159c0,0,0,-103,-94,-180c0,0,39,-23,73,-56c0,0,52,-22,109,-22c0,0,77,0,126,38V822H727l-46,76l14,31h840l46,-76l-13,-31H1332l66,-58V-39l-37,-10L1271,8V822H930l66,-58V-39L959,-49Z"
id="f6_am"
transform="scale(0.001,-0.001)"/>

<path d="M799,475V822H350l66,-55V564c0,0,0,-43,-25,-89ZM527,-71L52,414l34,92H277c0,0,12,32,12,72V822H0l-45,76l14,31H1063l46,-76l-14,-31H860l66,-58V-39L889,-49L799,8V370H315L264,316L610,34L611,8L527,-71Z"
id="f6_cb"
transform="scale(0.001,-0.001)"/>

<path d="M108,-433L-59,-214c0,0,-99,119,-191,119c0,0,-59,0,-96,-35c0,0,-36,-34,-36,-81c0,0,0,-49,42,-83l152,95l64,-116c0,0,-71,-58,-148,-58c0,0,-80,0,-146,63c0,0,-65,64,-65,144c0,0,0,77,62,131c0,0,61,53,142,53c0,0,138,0,296,-205L165,-393l-57,-40Z"
id="f6_cx"
transform="scale(0.001,-0.001)"/>

<path d="M900,298c0,0,32,73,32,159c0,0,0,110,-38,160c0,0,-40,31,-81,31c0,0,-48,0,-80,-35c0,0,-33,-35,-33,-89c0,0,0,-118,200,-226ZM588,-60c0,0,-154,0,-274,93c0,0,-120,94,-120,207c0,0,0,50,28,92C222,332,61,440,61,552c0,0,0,71,56,122c0,0,56,50,169,50H417l64,-98L463,600H333c0,0,-157,-1,-157,-99c0,0,0,-59,88,-124c0,0,68,52,164,52c0,0,38,0,79,-9l71,-88L558,299c0,0,-46,10,-81,10c0,0,-75,0,-116,-36c0,0,-40,-36,-40,-88c0,0,0,-78,73,-130c0,0,54,-17,109,-17c0,0,114,0,211,54c0,0,97,53,154,145c0,0,-156,96,-223,173c0,0,-67,77,-67,155c0,0,0,72,48,124c0,0,48,52,126,55v78H0l-45,76l14,31H1123l46,-76l-14,-31H805l66,-58V717c0,0,76,-40,124,-124c0,0,47,-84,47,-193c0,0,0,-188,-133,-324C909,76,776,-60,588,-60Z"
id="f6_bf"
transform="scale(0.001,-0.001)"/>

<path d="M348,229c0,0,57,0,106,17L263,559c0,0,-95,-50,-95,-162c0,0,0,-75,52,-136c0,0,49,-32,128,-32Zm170,48c0,0,61,38,96,91V504c0,0,-131,80,-244,80l-35,-2L518,277ZM704,-49L614,8V193c0,0,-84,-65,-192,-65c0,0,-139,0,-255,98c0,0,-115,98,-115,226c0,0,0,106,77,175c0,0,77,70,189,70c0,0,38,0,75,-9L614,578V822H0l-45,76l14,31H878l46,-76L911,822H675l66,-58V-39L704,-49Z"
id="f6_bx"
transform="scale(0.001,-0.001)"/>

<path d="M483,-305L295,-10c0,0,-90,22,-156,74l41,170h66L351,63c0,0,126,4,207,62c0,0,82,58,82,139c0,0,0,37,-18,71L365,266c0,0,-110,15,-197,102c0,0,-87,87,-87,176c0,0,0,69,59,117c0,0,59,48,172,48H550V822H0l-45,76l14,31H550c0,0,-142,122,-142,255c0,0,0,78,52,133c0,0,52,55,140,55c0,0,98,0,176,-64l-23,-69c0,0,-53,32,-104,32c0,0,-56,0,-94,-36c0,0,-39,-36,-39,-95c0,0,0,-109,112,-211H822l46,-76L854,822H603l66,-58V585H373c0,0,-184,0,-184,-99c0,0,0,-48,63,-101l310,78c0,0,86,-34,141,-99c0,0,55,-65,55,-142c0,0,0,-109,-98,-179c0,0,-98,-69,-254,-69L599,-216L483,-305Z"
id="f6_ao"
transform="scale(0.001,-0.001)"/>

<path d="M434,225c0,0,84,0,169,42c0,0,85,43,126,126V822H267c0,0,-64,-49,-64,-115c0,0,0,-79,90,-126c0,0,60,35,144,35l67,-6l75,-89L564,490l-51,7H493c0,0,-90,0,-142,-43c0,0,-52,-43,-52,-104c0,0,0,-60,51,-109c0,0,33,-16,84,-16ZM819,-49L729,8V197c0,0,-83,-76,-202,-76c0,0,-130,0,-237,91c0,0,-108,92,-108,196c0,0,0,72,53,128c0,0,-75,42,-115,97c0,0,-41,56,-41,113c0,0,0,38,22,76H0l-45,76l14,31H993l46,-76l-14,-31H790l66,-58V-39L819,-49Z"
id="f6_bc"
transform="scale(0.001,-0.001)"/>

<path d="M228,-49L138,8V822H0l-45,76l14,31H134c0,0,-91,92,-91,191c0,0,0,105,85,170c0,0,84,65,219,65c0,0,128,0,293,-76c0,0,165,-77,362,-263L958,966c0,0,-177,143,-303,210c0,0,-125,68,-244,68c0,0,-107,0,-175,-50c0,0,-68,-50,-68,-131c0,0,0,-61,49,-134H402l46,-76L434,822H199l65,-58V-39L228,-49Z"
id="f6_cu"
transform="scale(0.001,-0.001)"/>

<path d="M892,248c0,0,77,0,148,36c0,0,72,37,110,107V822H802c0,0,138,-96,138,-208c0,0,0,-151,-228,-192c0,0,29,-104,89,-158c0,0,41,-16,91,-16ZM347,-57C347,-57,73,203,73,373c0,0,0,110,87,181c0,0,86,71,227,71c0,0,137,0,268,-84c0,0,91,17,130,43c0,0,38,26,38,74c0,0,0,45,-29,81c0,0,-30,36,-99,83H0l-45,76l14,31H1415l46,-76l-14,-31H1212l65,-58V-39l-36,-10L1150,8V200c0,0,-68,-56,-169,-56c0,0,-122,0,-235,90c0,0,-113,90,-176,223c0,0,-77,43,-161,43c0,0,-85,0,-148,-47c0,0,-62,-47,-62,-129c0,0,0,-127,204,-328L347,-57Z"
id="f6_j8"
transform="scale(0.001,-0.001)"/>

<path d="M548,-57c0,0,-122,0,-243,81c0,0,-122,81,-252,280l57,41C110,345,283,64,498,64c0,0,92,0,153,49c0,0,61,49,61,121c0,0,0,46,-28,84L440,237c0,0,-73,11,-139,55c0,0,-66,44,-105,105c0,0,-40,61,-40,119c0,0,0,72,62,125c0,0,62,53,184,53H625V822H0l-45,76l14,31H906l46,-76L938,822H678l66,-58V562H431c0,0,-164,0,-164,-99c0,0,0,-55,57,-102l261,82c0,0,104,-21,172,-98c0,0,68,-78,68,-171c0,0,0,-99,-76,-166c0,0,-77,-65,-201,-65Z"
id="f6_bm"
transform="scale(0.001,-0.001)"/>

<path d="M471,-26c0,0,-259,0,-448,396l70,43C93,413,240,98,442,98c0,0,79,0,132,46c0,0,54,45,54,120c0,0,0,61,-38,116c0,0,-38,54,-107,72L322,370L255,492c0,0,66,53,156,56c0,0,128,51,128,153c0,0,0,77,-65,121H0l-45,76l14,31H1123l46,-76l-14,-31H578c0,0,76,-66,76,-157c0,0,0,-95,-87,-156c0,0,52,-29,84,-64c0,0,131,134,243,134c0,0,93,0,158,-70c0,0,65,-71,65,-167c0,0,0,-142,-177,-272L851,170c0,0,173,129,173,230c0,0,0,34,-23,57c0,0,-23,23,-63,23c0,0,-104,0,-215,-141c0,0,23,-55,23,-111c0,0,0,-109,-78,-182c0,0,-78,-72,-197,-72Z"
id="f6_aq"
transform="scale(0.001,-0.001)"/>

<path d="M953,-525L785,-306c0,0,-99,119,-191,119c0,0,-59,0,-96,-34c0,0,-37,-35,-37,-82c0,0,0,-49,43,-83l151,95l65,-116c0,0,-71,-58,-149,-58c0,0,-79,0,-145,63c0,0,-65,64,-65,145c0,0,0,76,61,130c0,0,62,55,143,55c0,0,40,0,77,-14L605,37C605,37,552,18,498,18c0,0,-151,0,-288,115C210,133,73,248,73,388c0,0,0,113,84,184c0,0,84,71,222,73H524V822H0l-45,76l14,31H842l46,-76L874,822H567l84,-73V519l-3,2l3,-3H408c0,0,-93,0,-153,-52c0,0,-59,-52,-59,-128c0,0,0,-121,110,-188c0,0,53,-17,105,-17c0,0,92,0,153,43L535,318l101,49L773,203c0,0,-20,-67,-87,-122l75,-247c0,0,81,-76,249,-319l-57,-40Z"
id="f6_mw"
transform="scale(0.001,-0.001)"/>

<path d="M761,293c0,0,127,0,169,94V532c0,0,-68,46,-145,46c0,0,-76,0,-121,-46c0,0,-45,-45,-45,-107c0,0,0,-61,44,-110c0,0,47,-22,98,-22ZM657,67c0,0,166,0,273,107v55c0,0,-45,-36,-111,-36c0,0,-110,0,-207,90c0,0,-97,90,-97,194c0,0,0,85,66,148c0,0,65,63,155,63l48,-5L930,603V822H376l62,-55V579c0,0,0,-60,-23,-102c0,0,-24,-42,-148,-190c0,0,66,-104,175,-162c0,0,108,-58,215,-58ZM1021,-49L930,8V53c0,0,-105,-83,-264,-83c0,0,-177,0,-339,128C327,98,165,226,90,429l34,77H296c0,0,19,39,19,102l-2,214H0l-45,76l14,31H1195l46,-76l-14,-31H992l65,-58V-39l-36,-10Z"
id="f6_ba"
transform="scale(0.001,-0.001)"/>

<path d="M527,-71L52,414l34,92H277c0,0,12,32,12,72V822H0l-45,76l14,31H940l45,-76L972,822H350l66,-55V553c0,0,24,52,77,83c0,0,52,30,112,30c0,0,87,0,171,-76c0,0,84,-75,222,-304L938,244L828,411c0,0,-95,134,-195,134c0,0,-63,0,-100,-35c0,0,-36,-36,-36,-87c0,0,0,-50,42,-87l152,99L755,315c0,0,-71,-61,-148,-61c0,0,-80,0,-146,66c0,0,-65,67,-65,164c0,0,-34,-70,-132,-168L610,34L611,8L527,-71Z"
id="f6_n1"
transform="scale(0.001,-0.001)"/>

<path d="M725,307c0,0,-95,0,-218,78c0,0,-123,78,-188,78c0,0,-54,0,-95,-34c0,0,-41,-34,-73,-100L93,362c0,0,38,88,101,146c0,0,63,59,148,59c0,0,90,0,214,-78c0,0,124,-79,188,-79c0,0,63,0,106,34c0,0,42,33,85,104l60,-40c0,0,-32,-66,-101,-134c0,0,-70,-67,-169,-67Z"
id="f7_4r"
transform="scale(0.001,-0.001)"/>

<path d="M420,489c0,0,93,0,153,65c0,0,60,65,60,181c0,0,0,116,-62,184c0,0,-61,68,-148,68c0,0,-90,0,-156,-74c0,0,-66,-73,-66,-189c0,0,0,-105,63,-170c0,0,63,-65,156,-65ZM391,-18c0,0,-128,0,-209,71c0,0,-82,71,-98,200l129,12c0,0,17,-91,63,-132c0,0,46,-41,118,-41c0,0,62,0,109,28c0,0,47,29,76,76c0,0,30,47,50,128c0,0,20,80,20,164c0,0,0,9,-1,27c0,0,-40,-65,-110,-105c0,0,-69,-39,-151,-39c0,0,-135,0,-229,98c0,0,-94,99,-94,260c0,0,0,166,98,268c0,0,98,101,245,101c0,0,107,0,195,-57c0,0,89,-58,134,-164c0,0,46,-106,46,-308c0,0,0,-209,-45,-334C737,235,691,111,602,46c0,0,-90,-64,-211,-64Z"
id="f8_t"
transform="scale(0.001,-0.001)"/>

<path d="M46,0c0,0,-2,48,16,93c0,0,27,74,88,146c0,0,61,71,176,165c0,0,178,146,241,232c0,0,63,85,63,161c0,0,0,80,-57,135c0,0,-58,55,-149,55c0,0,-98,0,-156,-59c0,0,-58,-58,-59,-160L71,782c0,0,15,154,107,235c0,0,93,81,249,81c0,0,157,0,249,-87c0,0,92,-88,92,-217c0,0,0,-65,-27,-129c0,0,-27,-63,-89,-133c0,0,-62,-70,-207,-193C445,339,324,238,290,202c0,0,-35,-36,-57,-73H770V0Z"
id="f8_m"
transform="scale(0.001,-0.001)"/>


</defs>
</svg>