<?xml version="1.0" encoding="UTF-8" standalone="no"?>
<!DOCTYPE svg PUBLIC "-//W3C//DTD SVG 1.1//EN"
"http://www.w3.org/Graphics/SVG/1.1/DTD/svg11.dtd">
<svg viewBox="0 0 641 910" version="1.1" xmlns="http://www.w3.org/2000/svg" xmlns:xlink="http://www.w3.org/1999/xlink">
<defs>
<clipPath id="c0_9"><path d="M0,909.8V0H641.7V909.8Z"/></clipPath>
<clipPath id="c1_9"><path d="M0,908.6V0H641.7V908.6Z"/></clipPath>
<style type="text/css"><![CDATA[
.g0_9{
fill: #FFFFFF;
}
.g1_9{
}
]]></style>
</defs>
<path d="M0,0H641.7V909.8H0V0Z" class="g0_9"/>
<path d="M0,0H641.7V909.8H0V0Z" class="g0_9"/>
<g clip-path="url(#c0_9)">
<path d="M0,-1819.5H641.7V104626H0V-1819.5Z" class="g0_9"/>
</g>
<path d="M0,0H641.7V908.6H0V0Z" class="g0_9"/>
<path d="M19.5,60.7H602.7v1.2H19.5V60.7Z" class="g1_9"/>
<g clip-path="url(#c1_9)">
<path d="M0,61.9H641.7V909.8H0V61.9Z" class="g0_9"/>
</g>
<path d="M19.5,61.9H602.7v47H19.5v-47Z" class="g0_9"/>
<path d="M19.5,107.7H602.7v26.4H19.5V107.7Z" class="g0_9"/>
<path d="M19.5,132.9H602.7v26.4H19.5V132.9Z" class="g0_9"/>
<path d="M19.5,158.1H602.7v26.4H19.5V158.1Z" class="g0_9"/>
<path d="M19.5,183.3H602.7v26.4H19.5V183.3Z" class="g0_9"/>
<path d="M19.5,208.5H602.7v26.4H19.5V208.5Z" class="g0_9"/>
<path d="M19.5,233.8H602.7v26.3H19.5V233.8Z" class="g0_9"/>
<path d="M19.5,259H602.7v26.3H19.5V259Z" class="g0_9"/>
<path d="M19.5,284.2H602.7v26.3H19.5V284.2Z" class="g0_9"/>
<path d="M19.5,309.4H602.7v26.3H19.5V309.4Z" class="g0_9"/>
<path d="M19.5,334.6H602.7v26.3H19.5V334.6Z" class="g0_9"/>
<path d="M19.5,359.8H602.7v26.3H19.5V359.8Z" class="g0_9"/>
<path d="M19.5,385H602.7v26.4H19.5V385Z" class="g0_9"/>
<path d="M19.5,410.2H602.7v26.4H19.5V410.2Z" class="g0_9"/>
<path d="M19.5,435.4H602.7v26.4H19.5V435.4Z" class="g0_9"/>
<path d="M19.5,460.6H602.7V487H19.5V460.6Z" class="g0_9"/>
<path d="M19.5,485.8H602.7v26.4H19.5V485.8Z" class="g0_9"/>
<path d="M19.5,511H602.7v26.4H19.5V511Z" class="g0_9"/>
<path d="M19.5,536.3H602.7v26.3H19.5V536.3Z" class="g0_9"/>
<path d="M19.5,561.5H602.7v26.3H19.5V561.5Z" class="g0_9"/>
<path d="M19.5,586.7H602.7V613H19.5V586.7Z" class="g0_9"/>
<path d="M19.5,611.9H602.7v26.3H19.5V611.9Z" class="g0_9"/>
<path d="M19.5,637.1H602.7v26.3H19.5V637.1Z" class="g0_9"/>
<path d="M19.5,662.3H602.7v26.3H19.5V662.3Z" class="g0_9"/>
<path d="M19.5,687.5H602.7v56.1H19.5V687.5Z" class="g0_9"/>
<g clip-path="url(#c1_9)">
<g fill="#000000" >
<use xlink:href="#f5_bt" transform="matrix(14,0,0,14,167.6,94)" />
<use xlink:href="#f5_c7" transform="matrix(14,0,0,14,180.6,94)" />
<use xlink:href="#f5_b9" transform="matrix(14,0,0,14,194.3,94)" />
<use xlink:href="#f5_ct" transform="matrix(14,0,0,14,211.7,94)" />
<use xlink:href="#f5_c1" transform="matrix(14,0,0,14,218.2,94)" />
<use xlink:href="#f5_bg" transform="matrix(14,0,0,14,234.1,94)" />
<use xlink:href="#f5_bv" transform="matrix(14,0,0,14,250,94)" />
<use xlink:href="#f5_bt" transform="matrix(14,0,0,14,263.1,94)" />
<use xlink:href="#f5_d4" transform="matrix(14,0,0,14,276.1,94)" />
<use xlink:href="#f5_cb" transform="matrix(14,0,0,14,281.8,94)" />
<use xlink:href="#f5_d4" transform="matrix(14,0,0,14,298.5,94)" />
<use xlink:href="#f5_cb" transform="matrix(14,0,0,14,304.2,94)" />
<use xlink:href="#f5_ct" transform="matrix(14,0,0,14,320.9,94)" />
<use xlink:href="#f5_c1" transform="matrix(14,0,0,14,327.3,94)" />
<use xlink:href="#f5_d4" transform="matrix(14,0,0,14,337.2,94)" />
<use xlink:href="#f5_cb" transform="matrix(14,0,0,14,343.2,94)" />
<use xlink:href="#f5_cw" transform="matrix(14,0,0,14,360.3,94.4)" />
<use xlink:href="#f5_ba" transform="matrix(14,0,0,14,359.9,94)" />
<use xlink:href="#f5_cu" transform="matrix(14,0,0,14,384.5,94)" />
<use xlink:href="#f5_bz" transform="matrix(14,0,0,14,391,94)" />
<use xlink:href="#f5_c3" transform="matrix(14,0,0,14,405.6,94)" />
<use xlink:href="#f5_bp" transform="matrix(14,0,0,14,421.9,94)" />
<use xlink:href="#f5_d4" transform="matrix(14,0,0,14,435.3,94)" />
<use xlink:href="#f5_cc" transform="matrix(14,0,0,14,441,94)" />
<use xlink:href="#f5_d5" transform="matrix(14,0,0,14,453.9,94)" />
</g>
<g fill="#222222" >
<use xlink:href="#f6_bt" transform="matrix(14,0,0,14,179.1,153.5)" />
<use xlink:href="#f6_c7" transform="matrix(14,0,0,14,190.8,153.5)" />
<use xlink:href="#f6_b9" transform="matrix(14,0,0,14,202.8,153.5)" />
<use xlink:href="#f6_ct" transform="matrix(14,0,0,14,218.3,153.5)" />
<use xlink:href="#f6_c1" transform="matrix(14,0,0,14,224,153.5)" />
<use xlink:href="#f6_bg" transform="matrix(14,0,0,14,238,153.5)" />
<use xlink:href="#f6_bv" transform="matrix(14,0,0,14,252.3,153.5)" />
<use xlink:href="#f6_bt" transform="matrix(14,0,0,14,264.1,153.5)" />
<use xlink:href="#f6_d4" transform="matrix(14,0,0,14,276,153.5)" />
<use xlink:href="#f6_cb" transform="matrix(14,0,0,14,281.5,153.5)" />
<use xlink:href="#f6_d4" transform="matrix(14,0,0,14,296.5,153.5)" />
<use xlink:href="#f6_cb" transform="matrix(14,0,0,14,302.1,153.5)" />
<use xlink:href="#f6_ct" transform="matrix(14,0,0,14,316.9,153.5)" />
<use xlink:href="#f6_c1" transform="matrix(14,0,0,14,322.6,153.5)" />
<use xlink:href="#f6_d4" transform="matrix(14,0,0,14,330.5,153.5)" />
<use xlink:href="#f6_cb" transform="matrix(14,0,0,14,336.6,153.5)" />
<use xlink:href="#f6_cw" transform="matrix(14,0,0,14,352,153.5)" />
<use xlink:href="#f6_ba" transform="matrix(14,0,0,14,351.5,153.5)" />
<use xlink:href="#f6_nt" transform="matrix(14,0,0,14,373.9,153.5)" />
<use xlink:href="#f6_bz" transform="matrix(14,0,0,14,379.5,153.5)" />
<use xlink:href="#f6_c3" transform="matrix(14,0,0,14,392.8,153.5)" />
<use xlink:href="#f6_bp" transform="matrix(14,0,0,14,407.5,153.5)" />
<use xlink:href="#f6_d4" transform="matrix(14,0,0,14,420,153.5)" />
<use xlink:href="#f6_cc" transform="matrix(14,0,0,14,425.5,153.5)" />
<use xlink:href="#f6_d5" transform="matrix(14,0,0,14,437.5,153.5)" />
<use xlink:href="#f6_k" transform="matrix(14,0,0,14,437.1,153.5)" />
<use xlink:href="#f6_bg" transform="matrix(14,0,0,14,156.1,178.8)" />
<use xlink:href="#f6_cv" transform="matrix(14,0,0,14,170.4,178.8)" />
<use xlink:href="#f6_c7" transform="matrix(14,0,0,14,176,178.8)" />
<use xlink:href="#f6_bt" transform="matrix(14,0,0,14,188.1,178.8)" />
<use xlink:href="#f6_bz" transform="matrix(14,0,0,14,205.5,178.8)" />
<use xlink:href="#f6_oz" transform="matrix(14,0,0,14,218.9,178.8)" />
<use xlink:href="#f6_k" transform="matrix(14,0,0,14,218.8,178.8)" />
<use xlink:href="#f6_bp" transform="matrix(14,0,0,14,229.7,178.8)" />
<use xlink:href="#f6_bt" transform="matrix(14,0,0,14,242,178.8)" />
<use xlink:href="#f6_bz" transform="matrix(14,0,0,14,259.4,178.8)" />
<use xlink:href="#f6_bt" transform="matrix(14,0,0,14,272.7,178.8)" />
<use xlink:href="#f6_b9" transform="matrix(14,0,0,14,290.1,178.8)" />
<use xlink:href="#f6_d4" transform="matrix(14,0,0,14,301.2,178.8)" />
<use xlink:href="#f6_k" transform="matrix(14,0,0,14,305.6,178.8)" />
<use xlink:href="#f6_cb" transform="matrix(14,0,0,14,316.5,178.8)" />
<use xlink:href="#f6_ct" transform="matrix(14,0,0,14,331.4,178.8)" />
<use xlink:href="#f6_c1" transform="matrix(14,0,0,14,337,178.8)" />
<use xlink:href="#f6_d4" transform="matrix(14,0,0,14,345,178.8)" />
<use xlink:href="#f6_mv" transform="matrix(14,0,0,14,356.7,178.8)" />
<use xlink:href="#f6_dk" transform="matrix(14,0,0,14,368.5,178.8)" />
<use xlink:href="#f6_ba" transform="matrix(14,0,0,14,373,178.8)" />
<use xlink:href="#f6_nt" transform="matrix(14,0,0,14,395.4,178.8)" />
<use xlink:href="#f6_bz" transform="matrix(14,0,0,14,401.1,178.8)" />
<use xlink:href="#f6_bk" transform="matrix(14,0,0,14,414.4,178.8)" />
<use xlink:href="#f6_bp" transform="matrix(14,0,0,14,426,178.8)" />
<use xlink:href="#f6_d4" transform="matrix(14,0,0,14,438.4,178.8)" />
<use xlink:href="#f6_cc" transform="matrix(14,0,0,14,443.9,178.8)" />
<use xlink:href="#f6_d5" transform="matrix(14,0,0,14,455.9,178.8)" />
<use xlink:href="#f6_ng" transform="matrix(14,0,0,14,455.5,178.8)" />
<use xlink:href="#f6_bz" transform="matrix(14,0,0,14,117.2,204)" />
<use xlink:href="#f6_bt" transform="matrix(14,0,0,14,130.5,204)" />
<use xlink:href="#f6_ap" transform="matrix(14,0,0,14,147.9,204)" />
<use xlink:href="#f6_bv" transform="matrix(14,0,0,14,159.3,204)" />
<use xlink:href="#f6_c7" transform="matrix(14,0,0,14,171.1,204)" />
<use xlink:href="#f6_bt" transform="matrix(14,0,0,14,183.2,204)" />
<use xlink:href="#f6_bz" transform="matrix(14,0,0,14,200.6,204)" />
<use xlink:href="#f6_oz" transform="matrix(14,0,0,14,214.1,204)" />
<use xlink:href="#f6_ba" transform="matrix(14,0,0,14,219.6,204)" />
<use xlink:href="#f6_cw" transform="matrix(14,0,0,14,236.9,204.8)" />
<use xlink:href="#f6_nv" transform="matrix(14,0,0,14,236.3,204)" />
<use xlink:href="#f6_c8" transform="matrix(14,0,0,14,241.9,204)" />
<use xlink:href="#f6_c0" transform="matrix(14,0,0,14,257.8,204)" />
<use xlink:href="#f6_d8" transform="matrix(14,0,0,14,270.3,204)" />
<use xlink:href="#f6_dj" transform="matrix(14,0,0,14,274.6,204.8)" />
<use xlink:href="#f6_b9" transform="matrix(14,0,0,14,281.6,204)" />
<use xlink:href="#f6_d4" transform="matrix(14,0,0,14,292.8,204)" />
<use xlink:href="#f6_k" transform="matrix(14,0,0,14,297.1,204)" />
<use xlink:href="#f6_bw" transform="matrix(14,0,0,14,308,204)" />
<use xlink:href="#f6_cx" transform="matrix(14,0,0,14,319,203.9)" />
<use xlink:href="#f6_c3" transform="matrix(14,0,0,14,324.1,204)" />
<use xlink:href="#f6_nv" transform="matrix(14,0,0,14,344.5,204)" />
<use xlink:href="#f6_ba" transform="matrix(14,0,0,14,350.1,204)" />
<use xlink:href="#f6_c3" transform="matrix(14,0,0,14,366.8,204)" />
<use xlink:href="#f6_bp" transform="matrix(14,0,0,14,381.5,204)" />
<use xlink:href="#f6_d4" transform="matrix(14,0,0,14,394,204)" />
<use xlink:href="#f6_cc" transform="matrix(14,0,0,14,399.5,204)" />
<use xlink:href="#f6_d5" transform="matrix(14,0,0,14,411.5,204)" />
<use xlink:href="#f6_ng" transform="matrix(14,0,0,14,416.8,204)" />
<use xlink:href="#f6_bt" transform="matrix(14,0,0,14,431.8,204)" />
<use xlink:href="#f6_c7" transform="matrix(14,0,0,14,443.5,204)" />
<use xlink:href="#f6_b9" transform="matrix(14,0,0,14,455.6,204)" />
<use xlink:href="#f6_ct" transform="matrix(14,0,0,14,471.1,204)" />
<use xlink:href="#f6_c1" transform="matrix(14,0,0,14,476.7,204)" />
<use xlink:href="#f6_ng" transform="matrix(14,0,0,14,485.1,204)" />
<use xlink:href="#f6_ng" transform="matrix(14,0,0,14,494.5,204)" />
<use xlink:href="#f6_al" transform="matrix(14,0,0,14,149.3,254.4)" />
<use xlink:href="#f6_bm" transform="matrix(14,0,0,14,165.1,254.4)" />
<use xlink:href="#f6_cb" transform="matrix(14,0,0,14,177.8,254.4)" />
<use xlink:href="#f6_bl" transform="matrix(14,0,0,14,192.7,254.4)" />
<use xlink:href="#f6_al" transform="matrix(14,0,0,14,210.7,254.4)" />
<use xlink:href="#f6_nm" transform="matrix(14,0,0,14,226.6,254.4)" />
<use xlink:href="#f6_eq" transform="matrix(14,0,0,14,226.6,254.4)" />
<use xlink:href="#f6_c1" transform="matrix(14,0,0,14,241.5,254.4)" />
<use xlink:href="#f6_cc" transform="matrix(14,0,0,14,255.6,254.4)" />
<use xlink:href="#f6_d5" transform="matrix(14,0,0,14,267.5,254.4)" />
<use xlink:href="#f6_an" transform="matrix(14,0,0,14,272.8,254.4)" />
<use xlink:href="#f6_cb" transform="matrix(14,0,0,14,284.3,254.4)" />
<use xlink:href="#f6_b9" transform="matrix(14,0,0,14,299.2,254.4)" />
<use xlink:href="#f6_d4" transform="matrix(14,0,0,14,310.4,254.4)" />
<use xlink:href="#f6_k" transform="matrix(14,0,0,14,314.7,254.4)" />
<use xlink:href="#f6_cc" transform="matrix(14,0,0,14,325.6,254.4)" />
<use xlink:href="#f6_ct" transform="matrix(14,0,0,14,337.2,254.4)" />
<use xlink:href="#f6_dj" transform="matrix(14,0,0,14,337.4,254.8)" />
<use xlink:href="#f6_an" transform="matrix(14,0,0,14,348.5,254.4)" />
<use xlink:href="#f6_cb" transform="matrix(14,0,0,14,360,254.4)" />
<use xlink:href="#f6_b9" transform="matrix(14,0,0,14,374.9,254.4)" />
<use xlink:href="#f6_d4" transform="matrix(14,0,0,14,386,254.4)" />
<use xlink:href="#f6_k" transform="matrix(14,0,0,14,390.4,254.4)" />
<use xlink:href="#f6_cc" transform="matrix(14,0,0,14,401.3,254.4)" />
<use xlink:href="#f6_ct" transform="matrix(14,0,0,14,412.9,254.4)" />
<use xlink:href="#f6_dj" transform="matrix(14,0,0,14,413.1,254.8)" />
<use xlink:href="#f6_an" transform="matrix(14,0,0,14,424.1,254.4)" />
<use xlink:href="#f6_cb" transform="matrix(14,0,0,14,435.6,254.4)" />
<use xlink:href="#f6_b9" transform="matrix(14,0,0,14,450.5,254.4)" />
<use xlink:href="#f6_d4" transform="matrix(14,0,0,14,461.7,254.4)" />
<use xlink:href="#f6_k" transform="matrix(14,0,0,14,466,254.4)" />
<use xlink:href="#f6_bg" transform="matrix(14,0,0,14,173.3,279.6)" />
<use xlink:href="#f6_d8" transform="matrix(14,0,0,14,187.6,279.6)" />
<use xlink:href="#f6_lh" transform="matrix(14,0,0,14,198.9,279.6)" />
<use xlink:href="#f6_c0" transform="matrix(14,0,0,14,208.1,279.6)" />
<use xlink:href="#f6_ct" transform="matrix(14,0,0,14,220.7,279.6)" />
<use xlink:href="#f6_bp" transform="matrix(14,0,0,14,226.3,279.6)" />
<use xlink:href="#f6_ct" transform="matrix(14,0,0,14,238.6,279.6)" />
<use xlink:href="#f6_cc" transform="matrix(14,0,0,14,249.9,279.6)" />
<use xlink:href="#f6_d5" transform="matrix(14,0,0,14,261.8,279.6)" />
<use xlink:href="#f6_mv" transform="matrix(14,0,0,14,267.1,279.6)" />
<use xlink:href="#f6_dk" transform="matrix(14,0,0,14,278.9,279.6)" />
<use xlink:href="#f6_ba" transform="matrix(14,0,0,14,283.5,279.6)" />
<use xlink:href="#f6_bk" transform="matrix(14,0,0,14,305.9,279.6)" />
<use xlink:href="#f6_c3" transform="matrix(14,0,0,14,317.4,279.6)" />
<use xlink:href="#f6_bg" transform="matrix(14,0,0,14,337.8,279.6)" />
<use xlink:href="#f6_ct" transform="matrix(14,0,0,14,352.1,279.6)" />
<use xlink:href="#f6_bp" transform="matrix(14,0,0,14,357.7,279.6)" />
<use xlink:href="#f6_d4" transform="matrix(14,0,0,14,370.1,279.6)" />
<use xlink:href="#f6_ap" transform="matrix(14,0,0,14,375.7,279.6)" />
<use xlink:href="#f6_cb" transform="matrix(14,0,0,14,387.1,279.6)" />
<use xlink:href="#f6_b9" transform="matrix(14,0,0,14,401.9,279.6)" />
<use xlink:href="#f6_d4" transform="matrix(14,0,0,14,413.1,279.6)" />
<use xlink:href="#f6_k" transform="matrix(14,0,0,14,417.4,279.6)" />
<use xlink:href="#f6_pd" transform="matrix(14,0,0,14,428.3,279.6)" />
<use xlink:href="#f6_q" transform="matrix(14,0,0,14,435.9,279.6)" />
<use xlink:href="#f6_bv" transform="matrix(14,0,0,14,156.1,304.8)" />
<use xlink:href="#f6_c1" transform="matrix(14,0,0,14,168,304.8)" />
<use xlink:href="#f6_bz" transform="matrix(14,0,0,14,176.4,304.8)" />
<use xlink:href="#f6_d4" transform="matrix(14,0,0,14,189.9,304.8)" />
<use xlink:href="#f6_kf" transform="matrix(14,0,0,14,189.7,304.8)" />
<use xlink:href="#f6_cv" transform="matrix(14,0,0,14,201.8,304.8)" />
<use xlink:href="#f6_bv" transform="matrix(14,0,0,14,213,304.8)" />
<use xlink:href="#f6_ct" transform="matrix(14,0,0,14,224.9,304.8)" />
<use xlink:href="#f6_dj" transform="matrix(14,0,0,14,225.1,305.2)" />
<use xlink:href="#f6_be" transform="matrix(14,0,0,14,230.5,304.8)" />
<use xlink:href="#f6_cc" transform="matrix(14,0,0,14,250.2,304.8)" />
<use xlink:href="#f6_d5" transform="matrix(14,0,0,14,262.1,304.8)" />
<use xlink:href="#f6_bv" transform="matrix(14,0,0,14,267.4,304.8)" />
<use xlink:href="#f6_ct" transform="matrix(14,0,0,14,279.3,304.8)" />
<use xlink:href="#f6_c7" transform="matrix(14,0,0,14,284.9,304.8)" />
<use xlink:href="#f6_bt" transform="matrix(14,0,0,14,297,304.8)" />
<use xlink:href="#f6_k" transform="matrix(14,0,0,14,308.7,304.8)" />
<use xlink:href="#f6_cc" transform="matrix(14,0,0,14,319.6,304.8)" />
<use xlink:href="#f6_ct" transform="matrix(14,0,0,14,331.2,304.8)" />
<use xlink:href="#f6_di" transform="matrix(14,0,0,14,334.7,305.2)" />
<use xlink:href="#f6_bv" transform="matrix(14,0,0,14,342.5,304.8)" />
<use xlink:href="#f6_ct" transform="matrix(14,0,0,14,354.4,304.8)" />
<use xlink:href="#f6_c7" transform="matrix(14,0,0,14,360,304.8)" />
<use xlink:href="#f6_bt" transform="matrix(14,0,0,14,372.1,304.8)" />
<use xlink:href="#f6_k" transform="matrix(14,0,0,14,383.8,304.8)" />
<use xlink:href="#f6_cc" transform="matrix(14,0,0,14,394.7,304.8)" />
<use xlink:href="#f6_ct" transform="matrix(14,0,0,14,406.3,304.8)" />
<use xlink:href="#f6_di" transform="matrix(14,0,0,14,409.8,305.2)" />
<use xlink:href="#f6_bv" transform="matrix(14,0,0,14,417.6,304.8)" />
<use xlink:href="#f6_ct" transform="matrix(14,0,0,14,429.4,304.8)" />
<use xlink:href="#f6_c7" transform="matrix(14,0,0,14,435,304.8)" />
<use xlink:href="#f6_bt" transform="matrix(14,0,0,14,447.1,304.8)" />
<use xlink:href="#f6_k" transform="matrix(14,0,0,14,458.8,304.8)" />
<use xlink:href="#f6_bt" transform="matrix(14,0,0,14,171,330)" />
<use xlink:href="#f6_c7" transform="matrix(14,0,0,14,182.7,330)" />
<use xlink:href="#f6_bv" transform="matrix(14,0,0,14,194.8,330)" />
<use xlink:href="#f6_br" transform="matrix(14,0,0,14,206.7,330)" />
<use xlink:href="#f6_by" transform="matrix(14,0,0,14,224,330)" />
<use xlink:href="#f6_cv" transform="matrix(14,0,0,14,238,330)" />
<use xlink:href="#f6_cc" transform="matrix(14,0,0,14,249.3,330)" />
<use xlink:href="#f6_d5" transform="matrix(14,0,0,14,261.2,330)" />
<use xlink:href="#f6_bv" transform="matrix(14,0,0,14,266.5,330)" />
<use xlink:href="#f6_cu" transform="matrix(14,0,0,14,278.4,330)" />
<use xlink:href="#f6_c7" transform="matrix(14,0,0,14,284,330)" />
<use xlink:href="#f6_e1" transform="matrix(14,0,0,14,296.1,330)" />
<use xlink:href="#f6_k" transform="matrix(14,0,0,14,308.2,330)" />
<use xlink:href="#f6_cc" transform="matrix(14,0,0,14,313.4,330)" />
<use xlink:href="#f6_ct" transform="matrix(14,0,0,14,325,330)" />
<use xlink:href="#f6_di" transform="matrix(14,0,0,14,328.5,330.4)" />
<use xlink:href="#f6_bz" transform="matrix(14,0,0,14,336.3,330)" />
<use xlink:href="#f6_bt" transform="matrix(14,0,0,14,349.6,330)" />
<use xlink:href="#f6_by" transform="matrix(14,0,0,14,367,330)" />
<use xlink:href="#f6_ct" transform="matrix(14,0,0,14,381,330)" />
<use xlink:href="#f6_c7" transform="matrix(14,0,0,14,386.6,330)" />
<use xlink:href="#f6_bt" transform="matrix(14,0,0,14,398.7,330)" />
<use xlink:href="#f6_pd" transform="matrix(14,0,0,14,416,330)" />
<use xlink:href="#f6_q" transform="matrix(14,0,0,14,423.6,330)" />
<use xlink:href="#f6_ng" transform="matrix(14,0,0,14,440.9,330)" />
<use xlink:href="#f6_bg" transform="matrix(14,0,0,14,132.1,355.2)" />
<use xlink:href="#f6_ct" transform="matrix(14,0,0,14,146.3,355.2)" />
<use xlink:href="#f6_bv" transform="matrix(14,0,0,14,152,355.2)" />
<use xlink:href="#f6_bg" transform="matrix(14,0,0,14,169.5,355.2)" />
<use xlink:href="#f6_bv" transform="matrix(14,0,0,14,183.7,355.2)" />
<use xlink:href="#f6_d8" transform="matrix(14,0,0,14,195.6,355.2)" />
<use xlink:href="#f6_k" transform="matrix(14,0,0,14,201.2,355.2)" />
<use xlink:href="#f6_bg" transform="matrix(14,0,0,14,212.1,355.2)" />
<use xlink:href="#f6_bv" transform="matrix(14,0,0,14,226.4,355.2)" />
<use xlink:href="#f6_bp" transform="matrix(14,0,0,14,238.2,355.2)" />
<use xlink:href="#f6_d4" transform="matrix(14,0,0,14,250.7,355.2)" />
<use xlink:href="#f6_c1" transform="matrix(14,0,0,14,256.2,355.2)" />
<use xlink:href="#f6_cc" transform="matrix(14,0,0,14,264.6,355.2)" />
<use xlink:href="#f6_d8" transform="matrix(14,0,0,14,276.2,355.2)" />
<use xlink:href="#f6_k" transform="matrix(14,0,0,14,281.8,355.2)" />
<use xlink:href="#f6_bx" transform="matrix(14,0,0,14,292.7,355.2)" />
<use xlink:href="#f6_dj" transform="matrix(14,0,0,14,302.1,355.6)" />
<use xlink:href="#f6_bs" transform="matrix(14,0,0,14,305,355.2)" />
<use xlink:href="#f6_bt" transform="matrix(14,0,0,14,319,355.2)" />
<use xlink:href="#f6_b9" transform="matrix(14,0,0,14,336.4,355.2)" />
<use xlink:href="#f6_bk" transform="matrix(14,0,0,14,351.9,355.2)" />
<use xlink:href="#f6_bp" transform="matrix(14,0,0,14,363.4,355.2)" />
<use xlink:href="#f6_d4" transform="matrix(14,0,0,14,375.9,355.2)" />
<use xlink:href="#f6_cc" transform="matrix(14,0,0,14,381.4,355.2)" />
<use xlink:href="#f6_d5" transform="matrix(14,0,0,14,393.4,355.2)" />
<use xlink:href="#f6_ng" transform="matrix(14,0,0,14,398.7,355.2)" />
<use xlink:href="#f6_ng" transform="matrix(14,0,0,14,408.1,355.2)" />
<use xlink:href="#f6_bt" transform="matrix(14,0,0,14,417.4,355.2)" />
<use xlink:href="#f6_c7" transform="matrix(14,0,0,14,429.1,355.2)" />
<use xlink:href="#f6_b9" transform="matrix(14,0,0,14,441.2,355.2)" />
<use xlink:href="#f6_ct" transform="matrix(14,0,0,14,456.7,355.2)" />
<use xlink:href="#f6_c1" transform="matrix(14,0,0,14,462.3,355.2)" />
<use xlink:href="#f6_ng" transform="matrix(14,0,0,14,470.7,355.2)" />
<use xlink:href="#f6_ng" transform="matrix(14,0,0,14,480.1,355.2)" />
<use xlink:href="#f6_bv" transform="matrix(14,0,0,14,159.6,405.6)" />
<use xlink:href="#f6_ct" transform="matrix(14,0,0,14,171.4,405.6)" />
<use xlink:href="#f6_bv" transform="matrix(14,0,0,14,177.1,405.6)" />
<use xlink:href="#f6_d8" transform="matrix(14,0,0,14,188.9,405.6)" />
<use xlink:href="#f6_dj" transform="matrix(14,0,0,14,193.2,406.5)" />
<use xlink:href="#f6_cb" transform="matrix(14,0,0,14,200.2,405.6)" />
<use xlink:href="#f6_d4" transform="matrix(14,0,0,14,215.2,405.6)" />
<use xlink:href="#f6_bx" transform="matrix(14,0,0,14,220.8,405.6)" />
<use xlink:href="#f6_be" transform="matrix(14,0,0,14,233,405.6)" />
<use xlink:href="#f6_b9" transform="matrix(14,0,0,14,247,405.6)" />
<use xlink:href="#f6_c1" transform="matrix(14,0,0,14,262.5,405.6)" />
<use xlink:href="#f6_c1" transform="matrix(14,0,0,14,276.6,405.6)" />
<use xlink:href="#f6_cc" transform="matrix(14,0,0,14,285,405.6)" />
<use xlink:href="#f6_bt" transform="matrix(14,0,0,14,296.6,405.6)" />
<use xlink:href="#f6_ct" transform="matrix(14,0,0,14,308.3,405.6)" />
<use xlink:href="#f6_k" transform="matrix(14,0,0,14,313.9,405.6)" />
<use xlink:href="#f6_cc" transform="matrix(14,0,0,14,324.8,405.6)" />
<use xlink:href="#f6_ct" transform="matrix(14,0,0,14,336.4,405.6)" />
<use xlink:href="#f6_dj" transform="matrix(14,0,0,14,336.6,406.1)" />
<use xlink:href="#f6_c1" transform="matrix(14,0,0,14,347.7,405.6)" />
<use xlink:href="#f6_cc" transform="matrix(14,0,0,14,356.1,405.6)" />
<use xlink:href="#f6_bt" transform="matrix(14,0,0,14,367.7,405.6)" />
<use xlink:href="#f6_ct" transform="matrix(14,0,0,14,379.4,405.6)" />
<use xlink:href="#f6_k" transform="matrix(14,0,0,14,385,405.6)" />
<use xlink:href="#f6_cc" transform="matrix(14,0,0,14,395.9,405.6)" />
<use xlink:href="#f6_ct" transform="matrix(14,0,0,14,407.5,405.6)" />
<use xlink:href="#f6_dj" transform="matrix(14,0,0,14,407.7,406.1)" />
<use xlink:href="#f6_c1" transform="matrix(14,0,0,14,418.8,405.6)" />
<use xlink:href="#f6_cc" transform="matrix(14,0,0,14,427.1,405.6)" />
<use xlink:href="#f6_bt" transform="matrix(14,0,0,14,438.8,405.6)" />
<use xlink:href="#f6_ct" transform="matrix(14,0,0,14,450.5,405.6)" />
<use xlink:href="#f6_k" transform="matrix(14,0,0,14,456.1,405.6)" />
<use xlink:href="#f6_mv" transform="matrix(14,0,0,14,181.3,430.8)" />
<use xlink:href="#f6_dk" transform="matrix(14,0,0,14,193.1,430.8)" />
<use xlink:href="#f6_ba" transform="matrix(14,0,0,14,197.7,430.8)" />
<use xlink:href="#f6_am" transform="matrix(14,0,0,14,220.1,430.8)" />
<use xlink:href="#f6_c0" transform="matrix(14,0,0,14,241.6,430.8)" />
<use xlink:href="#f6_d4" transform="matrix(14,0,0,14,254.2,430.8)" />
<use xlink:href="#f6_bp" transform="matrix(14,0,0,14,259.8,430.8)" />
<use xlink:href="#f6_d8" transform="matrix(14,0,0,14,272.1,430.8)" />
<use xlink:href="#f6_cc" transform="matrix(14,0,0,14,283.4,430.8)" />
<use xlink:href="#f6_di" transform="matrix(14,0,0,14,295.4,431.3)" />
<use xlink:href="#f6_cb" transform="matrix(14,0,0,14,295,430.8)" />
<use xlink:href="#f6_bp" transform="matrix(14,0,0,14,309.9,430.8)" />
<use xlink:href="#f6_d4" transform="matrix(14,0,0,14,322.3,430.8)" />
<use xlink:href="#f6_cc" transform="matrix(14,0,0,14,327.8,430.8)" />
<use xlink:href="#f6_di" transform="matrix(14,0,0,14,339.8,431.3)" />
<use xlink:href="#f6_cb" transform="matrix(14,0,0,14,339.4,430.8)" />
<use xlink:href="#f6_bp" transform="matrix(14,0,0,14,354.3,430.8)" />
<use xlink:href="#f6_d4" transform="matrix(14,0,0,14,366.8,430.8)" />
<use xlink:href="#f6_cb" transform="matrix(14,0,0,14,372.3,430.8)" />
<use xlink:href="#f6_cc" transform="matrix(14,0,0,14,387.2,430.8)" />
<use xlink:href="#f6_bt" transform="matrix(14,0,0,14,398.8,430.8)" />
<use xlink:href="#f6_ct" transform="matrix(14,0,0,14,410.5,430.8)" />
<use xlink:href="#f6_k" transform="matrix(14,0,0,14,416.1,430.8)" />
<use xlink:href="#f6_pd" transform="matrix(14,0,0,14,421.3,430.8)" />
<use xlink:href="#f6_q" transform="matrix(14,0,0,14,428.9,430.8)" />
<use xlink:href="#f6_bt" transform="matrix(14,0,0,14,176.8,456)" />
<use xlink:href="#f6_c7" transform="matrix(14,0,0,14,188.5,456)" />
<use xlink:href="#f6_b9" transform="matrix(14,0,0,14,200.6,456)" />
<use xlink:href="#f6_ct" transform="matrix(14,0,0,14,216.1,456)" />
<use xlink:href="#f6_c1" transform="matrix(14,0,0,14,221.7,456)" />
<use xlink:href="#f6_b9" transform="matrix(14,0,0,14,235.7,456)" />
<use xlink:href="#f6_c1" transform="matrix(14,0,0,14,251.2,456)" />
<use xlink:href="#f6_oz" transform="matrix(14,0,0,14,259.2,456)" />
<use xlink:href="#f6_bb" transform="matrix(14,0,0,14,259.6,456)" />
<use xlink:href="#f6_ct" transform="matrix(14,0,0,14,272.2,456)" />
<use xlink:href="#f6_c1" transform="matrix(14,0,0,14,283.5,456)" />
<use xlink:href="#f6_nm" transform="matrix(14,0,0,14,291.9,456)" />
<use xlink:href="#f6_eq" transform="matrix(14,0,0,14,291.9,456)" />
<use xlink:href="#f6_ct" transform="matrix(14,0,0,14,306.8,456)" />
<use xlink:href="#f6_k" transform="matrix(14,0,0,14,312.5,456)" />
<use xlink:href="#f6_cc" transform="matrix(14,0,0,14,323.3,456)" />
<use xlink:href="#f6_ct" transform="matrix(14,0,0,14,335,456)" />
<use xlink:href="#f6_di" transform="matrix(14,0,0,14,338.4,456.5)" />
<use xlink:href="#f6_c1" transform="matrix(14,0,0,14,346.2,456)" />
<use xlink:href="#f6_nm" transform="matrix(14,0,0,14,354.6,456)" />
<use xlink:href="#f6_eq" transform="matrix(14,0,0,14,354.6,456)" />
<use xlink:href="#f6_ct" transform="matrix(14,0,0,14,369.6,456)" />
<use xlink:href="#f6_k" transform="matrix(14,0,0,14,375.2,456)" />
<use xlink:href="#f6_cc" transform="matrix(14,0,0,14,386.1,456)" />
<use xlink:href="#f6_ct" transform="matrix(14,0,0,14,397.7,456)" />
<use xlink:href="#f6_di" transform="matrix(14,0,0,14,401.2,456.5)" />
<use xlink:href="#f6_c1" transform="matrix(14,0,0,14,409,456)" />
<use xlink:href="#f6_nm" transform="matrix(14,0,0,14,417.4,456)" />
<use xlink:href="#f6_eq" transform="matrix(14,0,0,14,417.4,456)" />
<use xlink:href="#f6_ct" transform="matrix(14,0,0,14,432.3,456)" />
<use xlink:href="#f6_k" transform="matrix(14,0,0,14,437.9,456)" />
<use xlink:href="#f6_c0" transform="matrix(14,0,0,14,173.3,481.3)" />
<use xlink:href="#f6_d4" transform="matrix(14,0,0,14,186,481.3)" />
<use xlink:href="#f6_al" transform="matrix(14,0,0,14,191.5,481.3)" />
<use xlink:href="#f6_nr" transform="matrix(14,0,0,14,207.4,481.3)" />
<use xlink:href="#f6_c1" transform="matrix(14,0,0,14,213,481.3)" />
<use xlink:href="#f6_cc" transform="matrix(14,0,0,14,221.4,481.3)" />
<use xlink:href="#f6_dj" transform="matrix(14,0,0,14,230.3,481.7)" />
<use xlink:href="#f6_bp" transform="matrix(14,0,0,14,233,481.3)" />
<use xlink:href="#f6_cc" transform="matrix(14,0,0,14,251,481.3)" />
<use xlink:href="#f6_d5" transform="matrix(14,0,0,14,262.9,481.3)" />
<use xlink:href="#f6_e6" transform="matrix(14,0,0,14,268.3,481.3)" />
<use xlink:href="#f6_cb" transform="matrix(14,0,0,14,280.3,481.3)" />
<use xlink:href="#f6_jj" transform="matrix(14,0,0,14,295.2,481.3)" />
<use xlink:href="#f6_bp" transform="matrix(14,0,0,14,308.1,481.3)" />
<use xlink:href="#f6_ct" transform="matrix(14,0,0,14,320.4,481.3)" />
<use xlink:href="#f6_b9" transform="matrix(14,0,0,14,331.7,481.3)" />
<use xlink:href="#f6_ct" transform="matrix(14,0,0,14,347.2,481.3)" />
<use xlink:href="#f6_bt" transform="matrix(14,0,0,14,358.5,481.3)" />
<use xlink:href="#f6_il" transform="matrix(14,0,0,14,370.2,481.3)" />
<use xlink:href="#f6_ct" transform="matrix(14,0,0,14,397.4,481.3)" />
<use xlink:href="#f6_k" transform="matrix(14,0,0,14,403,481.3)" />
<use xlink:href="#f6_pd" transform="matrix(14,0,0,14,413.9,481.3)" />
<use xlink:href="#f6_q" transform="matrix(14,0,0,14,421.5,481.3)" />
<use xlink:href="#f6_ng" transform="matrix(14,0,0,14,438.8,481.3)" />
<use xlink:href="#f6_bg" transform="matrix(14,0,0,14,130.9,506.5)" />
<use xlink:href="#f6_ct" transform="matrix(14,0,0,14,145.2,506.5)" />
<use xlink:href="#f6_bv" transform="matrix(14,0,0,14,150.8,506.5)" />
<use xlink:href="#f6_bg" transform="matrix(14,0,0,14,168.3,506.5)" />
<use xlink:href="#f6_bv" transform="matrix(14,0,0,14,182.6,506.5)" />
<use xlink:href="#f6_d8" transform="matrix(14,0,0,14,194.5,506.5)" />
<use xlink:href="#f6_k" transform="matrix(14,0,0,14,200.1,506.5)" />
<use xlink:href="#f6_bg" transform="matrix(14,0,0,14,211,506.5)" />
<use xlink:href="#f6_bv" transform="matrix(14,0,0,14,225.2,506.5)" />
<use xlink:href="#f6_bp" transform="matrix(14,0,0,14,237.1,506.5)" />
<use xlink:href="#f6_d4" transform="matrix(14,0,0,14,249.5,506.5)" />
<use xlink:href="#f6_c1" transform="matrix(14,0,0,14,255.1,506.5)" />
<use xlink:href="#f6_cc" transform="matrix(14,0,0,14,263.4,506.5)" />
<use xlink:href="#f6_d8" transform="matrix(14,0,0,14,275.1,506.5)" />
<use xlink:href="#f6_k" transform="matrix(14,0,0,14,280.7,506.5)" />
<use xlink:href="#f6_bx" transform="matrix(14,0,0,14,291.6,506.5)" />
<use xlink:href="#f6_dj" transform="matrix(14,0,0,14,301,506.9)" />
<use xlink:href="#f6_bs" transform="matrix(14,0,0,14,303.8,506.5)" />
<use xlink:href="#f6_bt" transform="matrix(14,0,0,14,317.8,506.5)" />
<use xlink:href="#f6_b9" transform="matrix(14,0,0,14,335.2,506.5)" />
<use xlink:href="#f6_bk" transform="matrix(14,0,0,14,350.7,506.5)" />
<use xlink:href="#f6_bp" transform="matrix(14,0,0,14,362.3,506.5)" />
<use xlink:href="#f6_d4" transform="matrix(14,0,0,14,374.7,506.5)" />
<use xlink:href="#f6_cc" transform="matrix(14,0,0,14,380.3,506.5)" />
<use xlink:href="#f6_d5" transform="matrix(14,0,0,14,392.2,506.5)" />
<use xlink:href="#f6_ng" transform="matrix(14,0,0,14,397.5,506.5)" />
<use xlink:href="#f6_bt" transform="matrix(14,0,0,14,412.6,506.5)" />
<use xlink:href="#f6_c7" transform="matrix(14,0,0,14,424.3,506.5)" />
<use xlink:href="#f6_b9" transform="matrix(14,0,0,14,436.4,506.5)" />
<use xlink:href="#f6_ct" transform="matrix(14,0,0,14,451.9,506.5)" />
<use xlink:href="#f6_c1" transform="matrix(14,0,0,14,457.5,506.5)" />
<use xlink:href="#f6_ng" transform="matrix(14,0,0,14,471.5,506.5)" />
<use xlink:href="#f6_ng" transform="matrix(14,0,0,14,480.9,506.5)" />
<use xlink:href="#f6_bg" transform="matrix(14,0,0,14,177.9,556.9)" />
<use xlink:href="#f6_bx" transform="matrix(14,0,0,14,192.2,556.9)" />
<use xlink:href="#f6_b9" transform="matrix(14,0,0,14,210.1,556.9)" />
<use xlink:href="#f6_d8" transform="matrix(14,0,0,14,225.6,556.9)" />
<use xlink:href="#f6_ao" transform="matrix(14,0,0,14,231.2,556.9)" />
<use xlink:href="#f6_cc" transform="matrix(14,0,0,14,248.4,556.9)" />
<use xlink:href="#f6_bz" transform="matrix(14,0,0,14,260,556.9)" />
<use xlink:href="#f6_cb" transform="matrix(14,0,0,14,273.4,556.9)" />
<use xlink:href="#f6_d4" transform="matrix(14,0,0,14,288.4,556.9)" />
<use xlink:href="#f6_n1" transform="matrix(14,0,0,14,293.9,556.9)" />
<use xlink:href="#f6_bl" transform="matrix(14,0,0,14,307,556.9)" />
<use xlink:href="#f6_oz" transform="matrix(14,0,0,14,318,556.9)" />
<use xlink:href="#f6_k" transform="matrix(14,0,0,14,319.4,556.9)" />
<use xlink:href="#f6_cc" transform="matrix(14,0,0,14,330.3,556.9)" />
<use xlink:href="#f6_ct" transform="matrix(14,0,0,14,341.9,556.9)" />
<use xlink:href="#f6_di" transform="matrix(14,0,0,14,345.4,557.3)" />
<use xlink:href="#f6_n1" transform="matrix(14,0,0,14,353.2,556.9)" />
<use xlink:href="#f6_bl" transform="matrix(14,0,0,14,366.3,556.9)" />
<use xlink:href="#f6_oz" transform="matrix(14,0,0,14,377.3,556.9)" />
<use xlink:href="#f6_k" transform="matrix(14,0,0,14,378.7,556.9)" />
<use xlink:href="#f6_cc" transform="matrix(14,0,0,14,389.6,556.9)" />
<use xlink:href="#f6_ct" transform="matrix(14,0,0,14,401.2,556.9)" />
<use xlink:href="#f6_di" transform="matrix(14,0,0,14,404.7,557.3)" />
<use xlink:href="#f6_n1" transform="matrix(14,0,0,14,412.5,556.9)" />
<use xlink:href="#f6_bl" transform="matrix(14,0,0,14,425.6,556.9)" />
<use xlink:href="#f6_oz" transform="matrix(14,0,0,14,436.6,556.9)" />
<use xlink:href="#f6_k" transform="matrix(14,0,0,14,438,556.9)" />
<use xlink:href="#f6_cu" transform="matrix(14,0,0,14,188.2,582.1)" />
<use xlink:href="#f6_br" transform="matrix(14,0,0,14,193.8,582.1)" />
<use xlink:href="#f6_c3" transform="matrix(14,0,0,14,205.5,582.1)" />
<use xlink:href="#f6_bk" transform="matrix(14,0,0,14,225.9,582.1)" />
<use xlink:href="#f6_cx" transform="matrix(14,0,0,14,236.6,582)" />
<use xlink:href="#f6_bk" transform="matrix(14,0,0,14,237.5,582.1)" />
<use xlink:href="#f6_d4" transform="matrix(14,0,0,14,248.4,582.1)" />
<use xlink:href="#f6_b8" transform="matrix(14,0,0,14,254.7,582.1)" />
<use xlink:href="#f6_c1" transform="matrix(14,0,0,14,276.2,582.1)" />
<use xlink:href="#f6_nr" transform="matrix(14,0,0,14,290.2,582.1)" />
<use xlink:href="#f6_c1" transform="matrix(14,0,0,14,295.8,582.1)" />
<use xlink:href="#f6_ly" transform="matrix(14,0,0,14,304.2,582.1)" />
<use xlink:href="#f6_bp" transform="matrix(14,0,0,14,314.9,582.1)" />
<use xlink:href="#f6_ct" transform="matrix(14,0,0,14,327.3,582.1)" />
<use xlink:href="#f6_b9" transform="matrix(14,0,0,14,338.5,582.1)" />
<use xlink:href="#f6_d8" transform="matrix(14,0,0,14,354,582.1)" />
<use xlink:href="#f6_ao" transform="matrix(14,0,0,14,359.7,582.1)" />
<use xlink:href="#f6_bf" transform="matrix(14,0,0,14,376.8,582.1)" />
<use xlink:href="#f6_cx" transform="matrix(14,0,0,14,388.8,582.7)" />
<use xlink:href="#f6_bk" transform="matrix(14,0,0,14,392.5,582.1)" />
<use xlink:href="#f6_d4" transform="matrix(14,0,0,14,403.5,582.1)" />
<use xlink:href="#f6_k" transform="matrix(14,0,0,14,404.1,582.1)" />
<use xlink:href="#f6_pd" transform="matrix(14,0,0,14,415,582.1)" />
<use xlink:href="#f6_n8" transform="matrix(14,0,0,14,422.5,582.1)" />
<use xlink:href="#f6_bz" transform="matrix(14,0,0,14,153.8,607.3)" />
<use xlink:href="#f6_bt" transform="matrix(14,0,0,14,167.2,607.3)" />
<use xlink:href="#f6_bz" transform="matrix(14,0,0,14,184.6,607.3)" />
<use xlink:href="#f6_oz" transform="matrix(14,0,0,14,198,607.3)" />
<use xlink:href="#f6_bt" transform="matrix(14,0,0,14,203.6,607.3)" />
<use xlink:href="#f6_ct" transform="matrix(14,0,0,14,215.3,607.3)" />
<use xlink:href="#f6_ap" transform="matrix(14,0,0,14,226.6,607.3)" />
<use xlink:href="#f6_br" transform="matrix(14,0,0,14,237.9,607.3)" />
<use xlink:href="#f6_ct" transform="matrix(14,0,0,14,249.6,607.3)" />
<use xlink:href="#f6_cb" transform="matrix(14,0,0,14,255.2,607.3)" />
<use xlink:href="#f6_cv" transform="matrix(14,0,0,14,270.1,607.3)" />
<use xlink:href="#f6_c3" transform="matrix(14,0,0,14,281.4,607.3)" />
<use xlink:href="#f6_ct" transform="matrix(14,0,0,14,296.1,607.3)" />
<use xlink:href="#f6_bt" transform="matrix(14,0,0,14,301.7,607.3)" />
<use xlink:href="#f6_ct" transform="matrix(14,0,0,14,313.4,607.3)" />
<use xlink:href="#f6_k" transform="matrix(14,0,0,14,319.1,607.3)" />
<use xlink:href="#f6_bt" transform="matrix(14,0,0,14,329.9,607.3)" />
<use xlink:href="#f6_ct" transform="matrix(14,0,0,14,341.7,607.3)" />
<use xlink:href="#f6_c3" transform="matrix(14,0,0,14,353,607.3)" />
<use xlink:href="#f6_ct" transform="matrix(14,0,0,14,367.7,607.3)" />
<use xlink:href="#f6_bt" transform="matrix(14,0,0,14,373.3,607.3)" />
<use xlink:href="#f6_ct" transform="matrix(14,0,0,14,385,607.3)" />
<use xlink:href="#f6_k" transform="matrix(14,0,0,14,390.6,607.3)" />
<use xlink:href="#f6_bt" transform="matrix(14,0,0,14,401.5,607.3)" />
<use xlink:href="#f6_ct" transform="matrix(14,0,0,14,413.2,607.3)" />
<use xlink:href="#f6_c3" transform="matrix(14,0,0,14,424.5,607.3)" />
<use xlink:href="#f6_ct" transform="matrix(14,0,0,14,439.2,607.3)" />
<use xlink:href="#f6_bt" transform="matrix(14,0,0,14,444.8,607.3)" />
<use xlink:href="#f6_ct" transform="matrix(14,0,0,14,456.5,607.3)" />
<use xlink:href="#f6_k" transform="matrix(14,0,0,14,462.2,607.3)" />
<use xlink:href="#f6_bv" transform="matrix(14,0,0,14,176.8,632.5)" />
<use xlink:href="#f6_c1" transform="matrix(14,0,0,14,188.6,632.5)" />
<use xlink:href="#f6_bz" transform="matrix(14,0,0,14,197,632.5)" />
<use xlink:href="#f6_d4" transform="matrix(14,0,0,14,210.5,632.5)" />
<use xlink:href="#f6_kf" transform="matrix(14,0,0,14,210.3,632.5)" />
<use xlink:href="#f6_cv" transform="matrix(14,0,0,14,222.4,632.5)" />
<use xlink:href="#f6_cb" transform="matrix(14,0,0,14,233.7,632.5)" />
<use xlink:href="#f6_d4" transform="matrix(14,0,0,14,248.7,632.5)" />
<use xlink:href="#f6_cu" transform="matrix(14,0,0,14,254.2,632.5)" />
<use xlink:href="#f6_br" transform="matrix(14,0,0,14,259.8,632.5)" />
<use xlink:href="#f6_c3" transform="matrix(14,0,0,14,271.5,632.5)" />
<use xlink:href="#f6_b9" transform="matrix(14,0,0,14,291.9,632.5)" />
<use xlink:href="#f6_ct" transform="matrix(14,0,0,14,307.4,632.5)" />
<use xlink:href="#f6_bt" transform="matrix(14,0,0,14,318.7,632.5)" />
<use xlink:href="#f6_ct" transform="matrix(14,0,0,14,330.4,632.5)" />
<use xlink:href="#f6_bp" transform="matrix(14,0,0,14,336,632.5)" />
<use xlink:href="#f6_ct" transform="matrix(14,0,0,14,348.3,632.5)" />
<use xlink:href="#f6_k" transform="matrix(14,0,0,14,353.9,632.5)" />
<use xlink:href="#f6_c3" transform="matrix(14,0,0,14,364.8,632.5)" />
<use xlink:href="#f6_bb" transform="matrix(14,0,0,14,379.5,632.5)" />
<use xlink:href="#f6_ct" transform="matrix(14,0,0,14,392.1,632.5)" />
<use xlink:href="#f6_bt" transform="matrix(14,0,0,14,397.8,632.5)" />
<use xlink:href="#f6_ct" transform="matrix(14,0,0,14,409.5,632.5)" />
<use xlink:href="#f6_k" transform="matrix(14,0,0,14,415.1,632.5)" />
<use xlink:href="#f6_pd" transform="matrix(14,0,0,14,426,632.5)" />
<use xlink:href="#f6_q" transform="matrix(14,0,0,14,433.5,632.5)" />
<use xlink:href="#f6_bg" transform="matrix(14,0,0,14,135.5,657.7)" />
<use xlink:href="#f6_ct" transform="matrix(14,0,0,14,149.8,657.7)" />
<use xlink:href="#f6_bv" transform="matrix(14,0,0,14,155.4,657.7)" />
<use xlink:href="#f6_bg" transform="matrix(14,0,0,14,172.9,657.7)" />
<use xlink:href="#f6_bv" transform="matrix(14,0,0,14,187.2,657.7)" />
<use xlink:href="#f6_d8" transform="matrix(14,0,0,14,199,657.7)" />
<use xlink:href="#f6_k" transform="matrix(14,0,0,14,204.7,657.7)" />
<use xlink:href="#f6_bg" transform="matrix(14,0,0,14,215.5,657.7)" />
<use xlink:href="#f6_bv" transform="matrix(14,0,0,14,229.8,657.7)" />
<use xlink:href="#f6_bp" transform="matrix(14,0,0,14,241.7,657.7)" />
<use xlink:href="#f6_d4" transform="matrix(14,0,0,14,254.1,657.7)" />
<use xlink:href="#f6_c1" transform="matrix(14,0,0,14,259.6,657.7)" />
<use xlink:href="#f6_cc" transform="matrix(14,0,0,14,268,657.7)" />
<use xlink:href="#f6_d8" transform="matrix(14,0,0,14,279.6,657.7)" />
<use xlink:href="#f6_k" transform="matrix(14,0,0,14,285.3,657.7)" />
<use xlink:href="#f6_bx" transform="matrix(14,0,0,14,296.1,657.7)" />
<use xlink:href="#f6_dj" transform="matrix(14,0,0,14,305.5,658.1)" />
<use xlink:href="#f6_bs" transform="matrix(14,0,0,14,308.4,657.7)" />
<use xlink:href="#f6_bt" transform="matrix(14,0,0,14,322.4,657.7)" />
<use xlink:href="#f6_b9" transform="matrix(14,0,0,14,339.8,657.7)" />
<use xlink:href="#f6_bk" transform="matrix(14,0,0,14,355.3,657.7)" />
<use xlink:href="#f6_bp" transform="matrix(14,0,0,14,366.9,657.7)" />
<use xlink:href="#f6_d4" transform="matrix(14,0,0,14,379.3,657.7)" />
<use xlink:href="#f6_cc" transform="matrix(14,0,0,14,384.9,657.7)" />
<use xlink:href="#f6_d5" transform="matrix(14,0,0,14,396.8,657.7)" />
<use xlink:href="#f6_ng" transform="matrix(14,0,0,14,402.1,657.7)" />
<use xlink:href="#f6_bt" transform="matrix(14,0,0,14,417.2,657.7)" />
<use xlink:href="#f6_c7" transform="matrix(14,0,0,14,428.9,657.7)" />
<use xlink:href="#f6_b9" transform="matrix(14,0,0,14,440.9,657.7)" />
<use xlink:href="#f6_ct" transform="matrix(14,0,0,14,456.4,657.7)" />
<use xlink:href="#f6_c1" transform="matrix(14,0,0,14,462.1,657.7)" />
<use xlink:href="#f6_ng" transform="matrix(14,0,0,14,476.1,657.7)" />
</g>
<g fill="#000000" >
<use xlink:href="#f7_4r" transform="matrix(9,0,0,9,293.6,795.2)" />
<use xlink:href="#f8_n" transform="matrix(9,0,0,9,306.5,795.2)" />
<use xlink:href="#f7_4r" transform="matrix(9,0,0,9,317.1,795.2)" />
</g>
</g>
<image preserveAspectRatio="none" x="22" y="801" width="581" height="86" xlink:href="img/1.png"/>
<path d="M168.4,95.1H453.8v1.2H168.4V95.1Z" class="g1_9"/>
<image preserveAspectRatio="none" x="202" y="14" width="217" height="26" xlink:href="img/2.png"/>
<defs>
<path d="M746,-65L571,29V419H376V260L275,212c0,0,-87,48,-160,148c0,0,-72,100,-91,193l57,84H571V822H0L-86,937l32,64H930l88,-115L985,822H713L816,749V-31L746,-65Z"
id="f5_bt"
transform="scale(0.001,-0.001)"/>

<path d="M371,296c0,0,71,0,139,34c0,0,69,34,109,92v90c0,0,-72,36,-148,36c0,0,-84,0,-131,-47c0,0,-47,-47,-47,-111c0,0,0,-49,28,-89l50,-5ZM793,-65L619,29V134c0,0,-55,-27,-122,-27c0,0,-98,0,-207,48c0,0,-108,48,-182,132c0,0,-73,84,-73,188c0,0,0,113,83,191c0,0,84,78,212,78c0,0,41,0,84,-9L619,643V822H0L-86,937l32,64H978l85,-115l-32,-64H761L863,749V-31L793,-65Z"
id="f5_c7"
transform="scale(0.001,-0.001)"/>

<path d="M300,310c13,0,56,2,103,25c0,0,58,27,100,81V523c0,0,-46,16,-83,16c0,0,-69,0,-111,-45c0,0,-42,-45,-42,-104c0,0,0,-45,28,-80c0,0,2,0,5,0ZM677,-65L503,29V144c0,0,-32,-11,-75,-11c0,0,-147,0,-272,98c0,0,-125,99,-125,233c0,0,0,110,75,185c0,0,76,74,195,74l67,-6L503,646V822H0L-86,937l32,64H1245l86,-115l-32,-64H645L747,749V622c0,0,81,58,165,58c0,0,122,0,213,-99c0,0,91,-98,91,-230c0,0,0,-204,-253,-371L791,157c0,0,110,83,164,139c0,0,53,55,53,106c0,0,0,55,-53,55c0,0,-83,0,-208,-145V-31L677,-65Z"
id="f5_b9"
transform="scale(0.001,-0.001)"/>

<path d="M277,-65L102,29V822H0L-86,937l32,64H463L548,886L516,822H244L347,749V-31L277,-65Z"
id="f5_ct"
transform="scale(0.001,-0.001)"/>

<path d="M545,-97L35,405L87,542H295c0,0,1,5,1,280H0L-86,937l32,64H729L814,886L782,822H445L550,749V547c0,0,0,-75,-41,-127c0,0,-41,-52,-129,-111L709,110V41L545,-97Z"
id="f5_c1"
transform="scale(0.001,-0.001)"/>

<path d="M952,-65L778,29V474H600c0,0,94,-91,94,-202c0,0,0,-98,-66,-163c0,0,-66,-65,-171,-65c0,0,-165,0,-280,155C177,199,63,354,-7,616l152,50c0,0,67,-223,120,-299c0,0,53,-77,122,-77c0,0,47,0,73,29c0,0,26,28,26,71c0,0,0,79,-73,128L298,559V681H778V822H0L-86,937l32,64H1137l85,-115l-32,-64H920l102,-73V-31L952,-65Z"
id="f5_bg"
transform="scale(0.001,-0.001)"/>

<path d="M394,379c0,0,57,0,107,30c0,0,51,29,77,86V822H214L318,749V403c0,0,29,-24,76,-24ZM752,-65L578,29V188c0,0,-43,-18,-89,-18c0,0,-138,0,-282,130C207,300,63,431,60,567V822H0L-86,937l32,64H937l87,-115L992,822H720L822,749V-31L752,-65Z"
id="f5_bv"
transform="scale(0.001,-0.001)"/>

<path d="M-289,908l-132,216c0,0,-70,120,-169,120c0,0,-83,0,-200,-80l-130,249c0,0,125,78,234,78c0,0,187,0,349,-241L-159,969L-289,908Z"
id="f5_d4"
transform="scale(0.001,-0.001)"/>

<path d="M833,530V822H434L539,749V530ZM533,-97L23,405L75,542H284c0,0,2,5,2,280H-10L-97,937l32,64H1193l86,-115l-32,-64H975l102,-73V-31l-70,-34L833,29V333H405L370,309L697,110V41L533,-97Z"
id="f5_cb"
transform="scale(0.001,-0.001)"/>

<path d="M-272,-497c0,0,-249,0,-541,361l105,97c0,0,154,-169,229,-220c0,0,75,-50,145,-50c0,0,68,0,110,38c0,0,43,38,43,90c0,0,0,49,-41,86L-367,-234L-517,-89c0,0,38,66,99,102c0,0,62,37,129,37c0,0,113,0,200,-92c0,0,87,-93,87,-209c0,0,0,-105,-77,-176c0,0,-77,-70,-193,-70Z"
id="f5_cw"
transform="scale(0.001,-0.001)"/>

<path d="M827,354c0,0,102,0,166,84V548c0,0,-46,19,-87,19c0,0,-67,0,-106,-41c0,0,-39,-42,-39,-95c0,0,0,-43,24,-72l42,-5ZM712,107c0,0,168,0,281,81v17c0,0,-29,-9,-69,-9c0,0,-140,0,-256,88c0,0,-115,89,-115,213c0,0,0,99,70,171c0,0,69,71,173,71l64,-7L993,651V822H440L544,749V550c0,0,0,-66,-28,-111c0,0,-27,-45,-96,-95L342,287c0,0,58,-87,158,-133c0,0,99,-47,212,-47ZM733,-71c0,0,-215,0,-405,134C328,63,139,197,44,420L96,542l203,-1l4,14V822H0L-86,937l32,64H1354l85,-115l-32,-64H1135l103,-73V-31l-71,-34L1033,8c0,0,-122,-79,-300,-79Z"
id="f5_ba"
transform="scale(0.001,-0.001)"/>

<path d="M289,-65L115,29V822H0L-86,937l32,64H115c0,0,-98,102,-98,224c0,0,0,133,101,215c0,0,102,82,262,82c0,0,155,0,359,-94c0,0,205,-94,437,-311l-76,-98c0,0,-354,281,-617,281c0,0,-113,0,-187,-48c0,0,-73,-48,-73,-134c0,0,0,-53,41,-117H463L548,886L516,822H257L359,749V-31L289,-65Z"
id="f5_cu"
transform="scale(0.001,-0.001)"/>

<path d="M686,512V822H333L435,749l2,-237ZM860,-65L686,29V298H440V168L348,118c0,0,-90,30,-190,128c0,0,-100,98,-127,183l52,83H203L189,822H0L-86,937l32,64H1045l86,-115l-33,-64H828L930,749V-31L860,-65Z"
id="f5_bz"
transform="scale(0.001,-0.001)"/>

<path d="M472,-77C472,-77,28,171,28,448c0,0,0,116,77,191c0,0,77,74,188,74c0,0,51,0,95,-18L527,574c0,0,104,114,277,117V822H0L-86,937l32,64H1164l86,-115l-32,-64H946l102,-73V-31L978,-65L804,29V526c0,0,-130,-78,-133,-294L611,196L431,309c0,0,0,97,33,174c0,0,-22,10,-53,10c0,0,-52,0,-90,-36c0,0,-38,-37,-38,-99c0,0,0,-80,68,-150c0,0,69,-70,214,-161L472,-77Z"
id="f5_c3"
transform="scale(0.001,-0.001)"/>

<path d="M342,-69c0,0,-146,139,-224,256c0,0,-78,117,-78,226c0,0,0,120,90,193c0,0,90,72,243,72H599V822H0L-86,937l32,64H959l86,-115l-32,-64H741L843,749V-31L773,-65L599,29V445H448c0,0,-81,0,-123,-34c0,0,-42,-34,-42,-90c0,0,0,-54,43,-118c0,0,44,-64,143,-163L342,-69Z"
id="f5_bp"
transform="scale(0.001,-0.001)"/>

<path d="M756,-314c0,0,-304,57,-481,187C275,-127,98,2,98,170c0,0,0,117,82,197c0,0,-110,91,-110,195c0,0,0,74,64,127c0,0,63,54,188,54H567v79H0L-86,937l32,64H906L992,886L959,822H684L787,749V535H383c0,0,-110,0,-110,-67c0,0,0,-19,10,-36c0,0,78,32,174,32c0,0,162,0,277,-87c0,0,115,-87,115,-214c0,0,0,-143,-142,-228L518,76c0,0,125,94,145,173c0,0,-55,26,-113,26c0,0,-84,0,-144,-45c0,0,-59,-45,-59,-118c0,0,0,-107,121,-166c0,0,120,-60,336,-105L756,-314Z"
id="f5_cc"
transform="scale(0.001,-0.001)"/>

<path d="M-272,872l-211,214c0,0,-64,61,-138,61c0,0,-70,0,-195,-74l-115,204c0,0,121,86,223,86c0,0,133,0,266,-155l156,-190l-84,209c0,0,-49,119,-100,170c0,0,-50,51,-129,51c0,0,-66,0,-165,-36l-92,243c0,0,105,41,189,41c0,0,240,0,375,-344L-143,923L-272,872Z"
id="f5_d5"
transform="scale(0.001,-0.001)"/>

<path d="M663,-49L573,8V445H299V280L226,251c0,0,-105,99,-162,238l63,72H573V822H0l-45,76l14,31H837l46,-76L869,822H634l66,-58V-39L663,-49Z"
id="f6_bt"
transform="scale(0.001,-0.001)"/>

<path d="M325,240c0,0,77,0,154,35c0,0,77,35,120,99V500c0,0,-118,73,-222,73c0,0,-97,0,-151,-54c0,0,-53,-53,-53,-128c0,0,0,-73,49,-125c0,0,38,-26,103,-26ZM689,-49L599,8V199c0,0,-73,-65,-179,-65c0,0,-134,0,-252,96c0,0,-118,95,-118,221c0,0,0,102,78,171c0,0,78,69,190,69c0,0,38,0,75,-10L599,582V822H0l-45,76l14,31H863l46,-76L895,822H660l66,-58V-39L689,-49Z"
id="f6_c7"
transform="scale(0.001,-0.001)"/>

<path d="M283,260c0,0,122,0,209,113V513c0,0,-90,51,-160,51c0,0,-80,0,-129,-50c0,0,-49,-50,-49,-118c0,0,0,-60,35,-110c0,0,45,-26,94,-26ZM582,-49L492,8V211c0,0,-63,-54,-141,-54c0,0,-113,0,-213,92c0,0,-100,92,-100,205c0,0,0,93,69,157c0,0,69,64,162,64c0,0,32,0,64,-9L492,590V822H0l-45,76l14,31H1108l45,-76l-13,-31H553l66,-58V524c0,0,91,89,192,89c0,0,98,0,171,-79c0,0,72,-79,72,-186c0,0,0,-178,-224,-330L736,124c0,0,219,153,219,269c0,0,0,44,-26,75c0,0,-26,32,-81,32c0,0,-109,0,-229,-155V-39L582,-49Z"
id="f6_b9"
transform="scale(0.001,-0.001)"/>

<path d="M228,-49L138,8V822H0l-45,76l14,31H402l46,-76L434,822H199l65,-58V-39L228,-49Z"
id="f6_ct"
transform="scale(0.001,-0.001)"/>

<path d="M527,-71L52,414l34,92H277c0,0,12,32,12,72V822H0l-45,76l14,31H599l46,-76L631,822H350l66,-55V564c0,0,0,-96,-152,-248L610,34L611,8L527,-71Z"
id="f6_c1"
transform="scale(0.001,-0.001)"/>

<path d="M845,-49L755,8V513H497c0,0,61,-45,93,-110c0,0,33,-64,33,-128c0,0,0,-90,-58,-144c0,0,-59,-53,-143,-53c0,0,-133,0,-234,139C188,217,87,356,20,596l76,24c0,0,60,-201,127,-306c0,0,67,-105,160,-105c0,0,57,0,91,36c0,0,33,36,33,91c0,0,0,84,-73,159L295,558v71H755V822H0l-45,76l14,31H1019l46,-76l-14,-31H816l66,-58V-39L845,-49Z"
id="f6_bg"
transform="scale(0.001,-0.001)"/>

<path d="M388,325c0,0,58,0,112,31c0,0,53,31,84,86V822H165l69,-58V408c0,0,47,-83,154,-83ZM674,-49L584,8V257c0,0,-61,-51,-141,-51c0,0,-125,0,-232,109c0,0,-107,108,-107,243V822H0l-45,76l14,31H848l46,-76L880,822H645l65,-58V-39L674,-49Z"
id="f6_bv"
transform="scale(0.001,-0.001)"/>

<path d="M-214,863l-199,281c0,0,-70,92,-157,92c0,0,-69,0,-159,-58l-72,118c0,0,89,73,180,73c0,0,141,0,258,-170L-155,901l-59,-38Z"
id="f6_d4"
transform="scale(0.001,-0.001)"/>

<path d="M799,475V822H350l66,-55V564c0,0,0,-43,-25,-89ZM527,-71L52,414l34,92H277c0,0,12,32,12,72V822H0l-45,76l14,31H1063l46,-76l-14,-31H860l66,-58V-39L889,-49L799,8V370H315L264,316L610,34L611,8L527,-71Z"
id="f6_cb"
transform="scale(0.001,-0.001)"/>

<path d="M-234,-413c0,0,-210,0,-488,322l54,49c0,0,119,-128,209,-193c0,0,90,-65,177,-65c0,0,72,0,113,40c0,0,42,39,42,91c0,0,0,75,-78,106L-323,-181l-90,98c0,0,63,95,167,95c0,0,90,0,155,-69c0,0,66,-70,66,-164c0,0,0,-85,-60,-139c0,0,-61,-53,-149,-53Z"
id="f6_cw"
transform="scale(0.001,-0.001)"/>

<path d="M761,293c0,0,127,0,169,94V532c0,0,-68,46,-145,46c0,0,-76,0,-121,-46c0,0,-45,-45,-45,-107c0,0,0,-61,44,-110c0,0,47,-22,98,-22ZM657,67c0,0,166,0,273,107v55c0,0,-45,-36,-111,-36c0,0,-110,0,-207,90c0,0,-97,90,-97,194c0,0,0,85,66,148c0,0,65,63,155,63l48,-5L930,603V822H376l62,-55V579c0,0,0,-60,-23,-102c0,0,-24,-42,-148,-190c0,0,66,-104,175,-162c0,0,108,-58,215,-58ZM1021,-49L930,8V53c0,0,-105,-83,-264,-83c0,0,-177,0,-339,128C327,98,165,226,90,429l34,77H296c0,0,19,39,19,102l-2,214H0l-45,76l14,31H1195l46,-76l-14,-31H992l65,-58V-39l-36,-10Z"
id="f6_ba"
transform="scale(0.001,-0.001)"/>

<path d="M228,-49L138,8V822H0l-45,76l14,31H134c0,0,-91,93,-91,202c0,0,0,105,85,170c0,0,86,65,236,65c0,0,340,0,742,-350l-50,-46c0,0,-182,135,-340,208c0,0,-158,73,-302,73c0,0,-113,0,-183,-48c0,0,-69,-48,-69,-132c0,0,0,-63,53,-142H402l46,-76L434,822H199l65,-58V-39L228,-49Z"
id="f6_nt"
transform="scale(0.001,-0.001)"/>

<path d="M689,445V822H286l65,-58l8,-319ZM779,-49L689,8V328H370V180L296,150c0,0,-56,35,-120,104c0,0,-63,70,-89,131l41,60H238L223,822H0l-45,76l14,31H953l46,-76L985,822H750l66,-58V-39L779,-49Z"
id="f6_bz"
transform="scale(0.001,-0.001)"/>

<path d="M413,-59C413,-59,53,193,53,416c0,0,0,97,66,164c0,0,66,66,156,66c0,0,61,0,110,-30L487,507c0,0,92,126,257,126l35,-2V822H0l-45,76l14,31H1043l46,-76l-13,-31H840l66,-58V-39L869,-49L779,8V547c0,0,-101,-5,-165,-90c0,0,-64,-86,-70,-222L507,225l-90,73c0,0,5,79,35,151c0,0,-59,66,-128,66c0,0,-57,0,-100,-38c0,0,-44,-39,-44,-109c0,0,0,-165,284,-360L413,-59Z"
id="f6_c3"
transform="scale(0.001,-0.001)"/>

<path d="M347,-57C347,-57,66,211,66,394c0,0,0,98,74,164c0,0,74,65,225,65H616V822H0l-45,76l14,31H880l46,-76L912,822H677l66,-58V-39L706,-49L616,8V500H428c0,0,-239,0,-239,-161c0,0,0,-136,214,-343L347,-57Z"
id="f6_bp"
transform="scale(0.001,-0.001)"/>

<path d="M688,-243c0,0,-256,53,-408,173c0,0,-152,119,-152,270c0,0,0,101,68,171c0,0,-101,84,-101,179c0,0,0,64,53,112c0,0,54,47,191,47H587V822H0l-45,76l14,31H830l45,-76L862,822H640l66,-58V585H362c0,0,-159,-1,-159,-92c0,0,0,-41,46,-80c0,0,76,47,183,47c0,0,135,0,230,-76c0,0,96,-75,96,-187C758,197,758,67,629,2L545,104c0,0,49,30,81,75c0,0,32,44,32,82c0,0,0,16,-4,26c0,0,-64,58,-167,58c0,0,-97,0,-166,-50v-2c0,0,-67,-52,-67,-131c0,0,0,-116,132,-199c0,0,132,-84,334,-132l-32,-74Z"
id="f6_cc"
transform="scale(0.001,-0.001)"/>

<path d="M-214,860l-227,219c0,0,-73,70,-148,70c0,0,-67,0,-160,-58l-72,117c0,0,83,71,176,71c0,0,120,0,232,-124L-221,940l-102,294c0,0,-64,179,-189,179c0,0,-60,0,-133,-33l-60,125c0,0,84,47,164,47c0,0,200,0,281,-276L-150,901l-23,-15l-41,-26Z"
id="f6_d5"
transform="scale(0.001,-0.001)"/>

<path d="M108,-222l-44,58c0,0,96,81,104,164L89,61c0,0,12,83,93,122c0,0,50,-15,79,-55c0,0,29,-39,29,-90c0,0,0,-69,-48,-142c0,0,-48,-72,-134,-118Z"
id="f6_k"
transform="scale(0.001,-0.001)"/>

<path d="M228,-49L138,8V822H0l-45,76l14,31H138c0,0,-109,342,-284,342c0,0,-62,0,-102,-40c0,0,-40,-39,-40,-93c0,0,0,-61,51,-134l-42,-32c0,0,-128,113,-128,226c0,0,0,79,60,136c0,0,61,56,154,56c0,0,137,0,249,-125c0,0,112,-125,169,-336H402l46,-76L434,822H199l65,-58V-39L228,-49Z"
id="f6_cv"
transform="scale(0.001,-0.001)"/>

<path d="M-91,1001c0,0,-27,10,-61,36c0,0,-33,26,-50,49c0,0,38,81,90,110c0,0,61,-23,107,-85c0,0,-28,-71,-86,-110ZM-214,863l-199,281c0,0,-70,92,-157,92c0,0,-69,0,-159,-58l-72,118c0,0,89,73,180,73c0,0,141,0,258,-170L-155,901l-59,-38Z"
id="f6_oz"
transform="scale(0.001,-0.001)"/>

<path d="M652,-518c0,0,-209,0,-487,322l53,49c0,0,120,-129,210,-193c0,0,90,-65,177,-65c0,0,72,0,113,39c0,0,41,40,41,92c0,0,0,75,-78,105L564,-286l-90,98c0,0,62,96,169,96L605,37C605,37,552,18,498,18c0,0,-151,0,-288,115C210,133,73,248,73,388c0,0,0,113,84,184c0,0,84,71,222,73H524V822H0l-45,76l14,31H842l46,-76L874,822H567l84,-73V519l-3,2l3,-3H408c0,0,-93,0,-153,-52c0,0,-59,-52,-59,-128c0,0,0,-121,110,-188c0,0,53,-17,105,-17c0,0,92,0,153,43L535,318l101,49L773,203c0,0,-20,-67,-87,-122l61,-204c0,0,52,-32,83,-87c0,0,32,-55,32,-116c0,0,0,-85,-61,-139c0,0,-60,-53,-149,-53Z"
id="f6_mv"
transform="scale(0.001,-0.001)"/>

<path d="M163,118c0,0,-65,24,-102,79c0,0,32,69,83,101c0,0,55,-20,99,-80c0,0,-26,-67,-80,-100Zm0,382c0,0,-65,24,-102,79c0,0,32,69,83,101c0,0,55,-20,99,-80c0,0,-26,-67,-80,-100Z"
id="f6_dk"
transform="scale(0.001,-0.001)"/>

<path d="M487,-7c0,0,-88,0,-185,46c0,0,-97,47,-163,130c0,0,-66,83,-66,185c0,0,0,109,80,177c0,0,79,68,234,68H504V822H0l-45,76l14,31H827l45,-76L859,822H565l66,-58V474l-3,1l3,-3H396c0,0,-100,0,-152,-47c0,0,-53,-48,-53,-119c0,0,0,-104,93,-178c0,0,60,-20,118,-20c0,0,81,0,156,36c0,0,76,35,123,99l92,-99C773,144,723,70,645,31C645,31,567,-7,487,-7Z"
id="f6_bk"
transform="scale(0.001,-0.001)"/>

<path d="M426,-68L339,5V953l37,11l87,-73V-57L426,-68Z"
id="f6_ng"
transform="scale(0.001,-0.001)"/>

<path d="M471,-26c0,0,-259,0,-448,396l70,43C93,413,240,98,442,98c0,0,79,0,132,46c0,0,54,45,54,120c0,0,0,61,-38,116c0,0,-38,54,-107,72L322,370L255,492c0,0,66,53,156,56c0,0,128,51,128,153c0,0,0,77,-65,121H0l-45,76l14,31H813l46,-76L845,822H578c0,0,76,-66,76,-157c0,0,0,-95,-87,-156c0,0,84,-48,131,-123c0,0,48,-76,48,-158c0,0,0,-109,-78,-182c0,0,-78,-72,-197,-72Z"
id="f6_ap"
transform="scale(0.001,-0.001)"/>

<path d="M228,-49L138,8V822H0l-45,76l14,31H134c0,0,-90,95,-90,199c0,0,0,111,99,177c0,0,98,67,271,67c0,0,202,0,439,-91c0,0,238,-91,475,-263l-48,-49c0,0,-469,288,-812,288c0,0,-138,0,-220,-49c0,0,-83,-50,-83,-142c0,0,0,-64,50,-137H402l46,-76L434,822H199l65,-58V-39L228,-49Z"
id="f6_nv"
transform="scale(0.001,-0.001)"/>

<path d="M513,460c0,0,61,81,61,179c0,0,0,87,-45,143c0,0,-45,57,-116,57c0,0,-63,0,-102,-43c0,0,-39,-43,-39,-110c0,0,0,-90,68,-151c0,0,68,-61,173,-75ZM581,-83L278,167l-41,-4c0,0,-99,0,-130,37l47,168l51,12l78,-79c0,0,110,40,183,105c0,0,-141,23,-231,107c0,0,-90,84,-90,193c0,0,0,69,37,116H0l-45,76l14,31H1134l45,-76l-13,-31H930l66,-58V-39L959,-49L869,8V822H588c0,0,51,-44,75,-109c0,0,25,-64,25,-122c0,0,0,-105,-81,-213c0,0,-80,-108,-240,-176L658,18l2,-25L581,-83Z"
id="f6_c8"
transform="scale(0.001,-0.001)"/>

<path d="M374,248c0,0,77,0,149,36c0,0,71,37,110,107V822H284c0,0,138,-96,138,-208c0,0,0,-151,-228,-192c0,0,29,-104,89,-158c0,0,41,-16,91,-16ZM723,-49L633,8V200c0,0,-69,-56,-170,-56c0,0,-122,0,-240,94c0,0,-118,94,-179,237l20,55c0,0,133,17,187,44c0,0,55,28,55,84c0,0,0,45,-30,81c0,0,-30,36,-99,83H0l-45,76l14,31H897l46,-76L929,822H694l65,-58V-39L723,-49Z"
id="f6_c0"
transform="scale(0.001,-0.001)"/>

<path d="M228,-49L138,8V822H0l-45,76l14,31H119L-33,1144c0,0,-70,92,-157,92c0,0,-69,0,-159,-58l-72,118c0,0,89,73,181,73c0,0,140,0,257,-170L205,929H402l46,-76L434,822H199l65,-58V-39L228,-49Z"
id="f6_d8"
transform="scale(0.001,-0.001)"/>

<path d="M0,1062c0,0,-26,11,-60,36c0,0,-34,26,-51,49c0,0,39,81,91,110c0,0,60,-23,106,-85c0,0,-28,-70,-86,-110Z"
id="f6_dj"
transform="scale(0.001,-0.001)"/>

<path d="M368,344c0,0,90,0,155,73V822H150l67,-58V438c0,0,46,-94,151,-94ZM613,-49L523,8V251c0,0,-48,-28,-103,-28c0,0,-122,0,-227,112C193,335,89,448,89,590V822H0l-45,76l14,31H1150l46,-76l-13,-31H584l65,-58V533c0,0,101,95,211,95c0,0,98,0,170,-79c0,0,73,-78,73,-185c0,0,0,-179,-225,-330L785,139c0,0,219,153,219,269c0,0,0,43,-26,75c0,0,-26,32,-80,32c0,0,-120,0,-249,-159V-39L613,-49Z"
id="f6_bw"
transform="scale(0.001,-0.001)"/>

<path d="M108,-433L-59,-214c0,0,-99,119,-191,119c0,0,-59,0,-96,-35c0,0,-36,-34,-36,-81c0,0,0,-49,42,-83l152,95l64,-116c0,0,-71,-58,-148,-58c0,0,-80,0,-146,63c0,0,-65,64,-65,144c0,0,0,77,62,131c0,0,61,53,142,53c0,0,138,0,296,-205L165,-393l-57,-40Z"
id="f6_cx"
transform="scale(0.001,-0.001)"/>

<path d="M959,-49L869,8V367c0,0,-32,-13,-64,-13c0,0,-50,0,-110,25c0,0,23,-52,23,-109c0,0,0,-103,-70,-170c0,0,-70,-66,-182,-66c0,0,-110,0,-222,82c0,0,-111,83,-213,293l68,42c0,0,72,-155,152,-231c0,0,81,-76,178,-76c0,0,83,0,131,49c0,0,48,48,48,117c0,0,0,54,-30,100c0,0,-31,47,-91,65L325,391L257,512c0,0,68,53,156,56c0,0,140,72,140,179c0,0,0,69,-52,99c0,0,-4,1,-11,1c-19,0,-66,-4,-123,-30c0,0,-78,-35,-142,-96L150,823c0,0,119,117,253,117c0,0,98,0,175,-71c0,0,77,-70,77,-159c0,0,0,-103,-94,-180c0,0,39,-23,73,-56c0,0,52,-22,109,-22c0,0,77,0,126,38V822H727l-46,76l14,31h439l45,-76l-13,-31H930l66,-58V-39L959,-49Z"
id="f6_al"
transform="scale(0.001,-0.001)"/>

<path d="M548,-57c0,0,-122,0,-243,81c0,0,-122,81,-252,280l57,41C110,345,283,64,498,64c0,0,92,0,153,49c0,0,61,49,61,121c0,0,0,46,-28,84L440,237c0,0,-73,11,-139,55c0,0,-66,44,-105,105c0,0,-40,61,-40,119c0,0,0,72,62,125c0,0,62,53,184,53H625V822H0l-45,76l14,31H906l46,-76L938,822H678l66,-58V562H431c0,0,-164,0,-164,-99c0,0,0,-55,57,-102l261,82c0,0,104,-21,172,-98c0,0,68,-78,68,-171c0,0,0,-99,-76,-166c0,0,-77,-65,-201,-65Z"
id="f6_bm"
transform="scale(0.001,-0.001)"/>

<path d="M449,79c0,0,103,0,168,61c0,0,66,60,66,149c0,0,0,93,-84,186H420c0,0,-107,0,-164,-50c0,0,-57,-51,-57,-126c0,0,0,-108,99,-184c0,0,81,-36,151,-36Zm67,-96c0,0,-168,0,-301,109C215,92,81,202,81,350c0,0,0,114,83,182c0,0,84,68,229,68H507V822H0l-45,76l14,31H883l46,-76L915,822H568l66,-58V532c0,0,87,-64,130,-144c0,0,43,-79,43,-157c0,0,0,-109,-81,-179c0,0,-81,-69,-210,-69Z"
id="f6_bl"
transform="scale(0.001,-0.001)"/>

<path d="M0,822l-45,76l14,31H110l46,-76L142,822Z"
id="f6_nm"
transform="scale(0.001,-0.001)"/>

<path d="M332,567c0,0,149,88,149,206c0,0,0,35,-15,69c0,0,-41,27,-83,27c0,0,-55,0,-95,-41c0,0,-40,-41,-40,-105c0,0,0,-94,84,-156ZM610,-324L533,-17c0,0,-50,-17,-101,-17c0,0,-136,0,-254,101C178,67,60,170,60,283c0,0,0,67,51,126c0,0,51,59,159,126c0,0,-137,114,-137,233c0,0,0,83,57,140c0,0,58,56,143,56c0,0,99,0,173,-78c0,0,75,-78,75,-174c0,0,0,-113,-126,-205c0,0,89,-24,200,-24l150,9V822H652l-45,76l13,31h449l46,-76l-13,-31H866l66,-58V-39L895,-49L805,8V370l-62,-3c0,0,-182,0,-353,90c0,0,-117,-64,-168,-119c0,0,-51,-55,-51,-121c0,0,0,-49,37,-102c0,0,52,-34,130,-34c0,0,76,0,143,32L460,220l101,49L692,130c0,0,-14,-47,-87,-110L747,-271L610,-324Z"
id="f6_eq"
transform="scale(0.001,-0.001)"/>

<path d="M483,-305L295,-10c0,0,-90,22,-156,74l41,170h66L351,63c0,0,126,4,207,62c0,0,82,58,82,139c0,0,0,37,-18,71L365,266c0,0,-110,15,-197,102c0,0,-87,87,-87,176c0,0,0,69,59,117c0,0,59,48,172,48H550V822H0l-45,76l14,31H822l46,-76L854,822H603l66,-58V585H373c0,0,-184,0,-184,-99c0,0,0,-48,63,-101l310,78c0,0,86,-34,141,-99c0,0,55,-65,55,-142c0,0,0,-109,-98,-179c0,0,-98,-69,-254,-69L599,-216L483,-305Z"
id="f6_an"
transform="scale(0.001,-0.001)"/>

<path d="M567,822l-46,76l14,31H726l46,-76L758,822ZM518,122c0,0,-115,0,-225,93c0,0,-111,94,-111,193c0,0,0,79,61,137C243,545,66,672,66,791c0,0,0,75,52,124c0,0,53,49,134,49c0,0,164,0,260,-237L451,694c0,0,-55,114,-119,163l-31,5c0,0,-44,0,-77,-32c0,0,-33,-31,-33,-78c0,0,0,-86,113,-165c0,0,60,27,133,27l67,-4l75,-89L564,490l-51,7H493c0,0,-90,0,-142,-43c0,0,-52,-43,-52,-104c0,0,0,-60,51,-109c0,0,37,-13,82,-13c0,0,104,0,197,59c0,0,94,60,127,148l95,-87c0,0,-43,-94,-140,-160c0,0,-97,-66,-193,-66Z"
id="f6_lh"
transform="scale(0.001,-0.001)"/>

<path d="M92,380L46,457l14,30H448l45,-76L480,380Z"
id="f6_pd"
transform="scale(0.001,-0.001)"/>

<path d="M95,0L67,98L422,497c0,0,130,154,130,259c0,0,0,63,-40,111c0,0,-40,48,-121,48c0,0,-75,0,-171,-29L193,695l-88,2c0,0,-13,82,-13,165l1,65c0,0,159,97,315,97c0,0,122,0,207,-78c0,0,85,-77,85,-193c0,0,0,-67,-34,-133c0,0,-33,-67,-165,-217L237,121l4,-14l373,21l49,136l83,-12C746,252,732,99,704,0Z"
id="f6_q"
transform="scale(0.001,-0.001)"/>

<path d="M397,351c0,0,87,0,142,49L228,768V438c0,0,47,-87,169,-87ZM585,466c0,0,18,47,18,105V822H280L585,466ZM506,-188c0,0,-141,0,-257,88c0,0,-116,89,-116,202c0,0,0,126,122,202c0,0,-154,116,-154,293V822H-2l-46,76l14,31H860l46,-76L892,822H675l55,-49V603c0,0,0,-261,-221,-337L382,223C382,223,252,171,252,63c0,0,0,-77,55,-123c0,0,44,-21,107,-21c0,0,86,0,171,40c0,0,86,40,135,105l91,-98c0,0,-52,-72,-135,-113c0,0,-83,-41,-170,-41Z"
id="f6_kf"
transform="scale(0.001,-0.001)"/>

<path d="M825,-49L735,8V217c0,0,-86,-72,-197,-72c0,0,-130,0,-238,91c0,0,-107,91,-107,204c0,0,0,55,27,105H55L12,616l14,30H574l46,-76L607,539H396c0,0,-78,-49,-78,-162c0,0,0,-70,40,-111c0,0,39,-15,94,-15c0,0,84,0,163,41c0,0,79,41,120,121V822H0l-45,76l14,31H999l46,-76l-14,-31H796l66,-58V-39L825,-49Z"
id="f6_be"
transform="scale(0.001,-0.001)"/>

<path d="M-233,1021c0,0,-84,0,-168,55c0,0,-84,56,-146,162l51,50c0,0,95,-162,219,-162c0,0,125,0,160,157L-7,1234c0,0,-21,-103,-81,-158c0,0,-61,-55,-145,-55Zm-41,201c0,0,-66,25,-102,80c0,0,32,68,82,101c0,0,55,-20,99,-80c0,0,-26,-67,-79,-101Z"
id="f6_di"
transform="scale(0.001,-0.001)"/>

<path d="M675,-274L602,21C602,21,550,3,498,3C498,3,347,3,210,118C210,118,73,232,73,373c0,0,0,113,84,184c0,0,84,71,222,72H524V822H0l-45,76l14,31H834l46,-76L866,822H585l66,-58V504l-3,2l3,-3H408c0,0,-95,0,-154,-53c0,0,-58,-53,-58,-132c0,0,0,-49,27,-100c0,0,28,-50,83,-84c0,0,44,-15,96,-15c0,0,91,0,160,46L535,303l101,48L773,188c0,0,-8,-28,-34,-66c0,0,-27,-38,-62,-64L813,-221L675,-274Z"
id="f6_br"
transform="scale(0.001,-0.001)"/>

<path d="M823,-49L733,8V339H445V191L371,160c0,0,-56,36,-120,105c0,0,-63,70,-89,131l41,59H313V735c0,0,0,99,-55,140c0,0,-3,1,-8,1c-16,0,-48,-3,-71,-23c0,0,-31,-26,-31,-66c0,0,0,-69,81,-113L189,620C189,620,31,720,31,828c0,0,0,61,45,99c0,0,46,37,109,37c0,0,96,0,173,-86c0,0,76,-87,79,-194V455H733V822H556l-46,76l14,31H998l45,-76l-13,-31H794l66,-58V-39L823,-49Z"
id="f6_by"
transform="scale(0.001,-0.001)"/>

<path d="M228,-49L138,8V822H0l-45,76l14,31H134c0,0,-91,92,-91,191c0,0,0,105,85,170c0,0,84,65,219,65c0,0,128,0,293,-76c0,0,165,-77,362,-263L958,966c0,0,-177,143,-303,210c0,0,-125,68,-244,68c0,0,-107,0,-175,-50c0,0,-68,-50,-68,-131c0,0,0,-61,49,-134H402l46,-76L434,822H199l65,-58V-39L228,-49Z"
id="f6_cu"
transform="scale(0.001,-0.001)"/>

<path d="M688,-49L597,8V335L248,81l-92,81L532,425l-81,76c0,0,-80,70,-133,70c0,0,-81,0,-194,-96L38,584c0,0,109,105,223,105c0,0,103,0,213,-107L597,457V822H0l-45,76l14,31H862l46,-76L894,822H658l66,-58V-39L688,-49Z"
id="f6_e1"
transform="scale(0.001,-0.001)"/>

<path d="M348,229c0,0,57,0,106,17L263,559c0,0,-95,-50,-95,-162c0,0,0,-75,52,-136c0,0,49,-32,128,-32Zm170,48c0,0,61,38,96,91V504c0,0,-131,80,-244,80l-35,-2L518,277ZM704,-49L614,8V193c0,0,-84,-65,-192,-65c0,0,-139,0,-255,98c0,0,-115,98,-115,226c0,0,0,106,77,175c0,0,77,70,189,70c0,0,38,0,75,-9L614,578V822H0l-45,76l14,31H878l46,-76L911,822H675l66,-58V-39L704,-49Z"
id="f6_bx"
transform="scale(0.001,-0.001)"/>

<path d="M827,-49L736,8V205c0,0,-84,-84,-209,-84c0,0,-130,0,-237,91c0,0,-108,92,-108,196c0,0,0,79,61,137C243,545,66,672,66,791c0,0,0,75,52,124c0,0,53,49,134,49c0,0,164,0,260,-237L451,694c0,0,-55,114,-119,163l-31,5c0,0,-44,0,-77,-32c0,0,-33,-31,-33,-78c0,0,0,-86,113,-165c0,0,60,27,133,27l67,-4l75,-89L564,490l-51,7H493c0,0,-90,0,-142,-43c0,0,-52,-43,-52,-104c0,0,0,-60,51,-109c0,0,33,-16,84,-16c0,0,89,0,177,47c0,0,89,47,125,137V822H567l-46,76l14,31h466l46,-76l-14,-31H798l65,-58V-39L827,-49Z"
id="f6_bs"
transform="scale(0.001,-0.001)"/>

<path d="M959,-49L869,8V367c0,0,-32,-13,-64,-13c0,0,-50,0,-110,25c0,0,23,-52,23,-109c0,0,0,-103,-70,-170c0,0,-70,-66,-182,-66c0,0,-110,0,-222,82c0,0,-111,83,-213,293l68,42c0,0,72,-155,152,-231c0,0,81,-76,178,-76c0,0,83,0,131,49c0,0,48,48,48,117c0,0,0,54,-30,100c0,0,-31,47,-91,65L325,391L257,512c0,0,68,53,156,56c0,0,140,72,140,179c0,0,0,69,-52,99c0,0,-4,1,-11,1c-19,0,-66,-4,-123,-30c0,0,-78,-35,-142,-96L150,823c0,0,119,117,253,117c0,0,98,0,175,-71c0,0,77,-70,77,-159c0,0,0,-103,-94,-180c0,0,39,-23,73,-56c0,0,52,-22,109,-22c0,0,77,0,126,38V822H727l-46,76l14,31h840l46,-76l-13,-31H1332l66,-58V-39l-37,-10L1271,8V822H930l66,-58V-39L959,-49Z"
id="f6_am"
transform="scale(0.001,-0.001)"/>

<path d="M727,-49L637,8V822H278l66,-58V226L270,196c0,0,-64,36,-122,98c0,0,-58,62,-79,122l43,59H217V822H0l-45,76l14,31H901l46,-76L933,822H698l66,-58V-39L727,-49Z"
id="f6_bb"
transform="scale(0.001,-0.001)"/>

<path d="M228,-49L138,8V822H0l-45,76l14,31H133c0,0,-93,95,-93,206c0,0,0,96,68,159c0,0,68,63,179,63c0,0,118,0,228,-81c0,0,110,-80,258,-262L720,970L588,1109c0,0,-133,133,-253,133c0,0,-78,0,-127,-46c0,0,-49,-46,-49,-119c0,0,0,-69,56,-148H402l46,-76L434,822H199l65,-58V-39L228,-49Z"
id="f6_nr"
transform="scale(0.001,-0.001)"/>

<path d="M396,318c0,0,123,0,203,108V822H180l66,-58V408c0,0,49,-90,150,-90ZM176,-66L79,9L379,228c0,0,-106,23,-181,119c0,0,-76,96,-79,198V822H0l-45,76l14,31H863l46,-76L895,822H660l66,-58V-39L689,-49L599,8V269L176,-66Z"
id="f6_e6"
transform="scale(0.001,-0.001)"/>

<path d="M749,-49L658,8V324L402,157L472,47L429,-17c0,0,-50,9,-117,40c0,0,-66,32,-109,69l-4,84L603,429c0,0,-85,116,-249,116l-93,-6V371L188,342c0,0,-90,84,-153,243l54,72c0,0,136,20,203,20c0,0,107,0,195,-45c0,0,87,-45,171,-161V822H0l-45,76l14,31H923l46,-76L955,822H720l65,-58V-39L749,-49Z"
id="f6_jj"
transform="scale(0.001,-0.001)"/>

<path d="M298,260c0,0,122,0,209,113V513c0,0,-90,51,-160,51c0,0,-80,0,-129,-50c0,0,-48,-50,-48,-118c0,0,0,-60,35,-110c0,0,44,-26,93,-26Zm794,41c0,0,110,40,184,105c0,0,-141,23,-231,107c0,0,-90,84,-90,193c0,0,0,69,37,116H568l66,-58V469c0,0,81,69,170,69c0,0,149,0,288,-237Zm231,159c0,0,61,81,61,179c0,0,0,87,-45,143c0,0,-45,57,-117,57c0,0,-62,0,-101,-43c0,0,-39,-43,-39,-110c0,0,0,-90,68,-151c0,0,68,-61,173,-75Zm67,-543L1088,167l-41,-4c0,0,-100,0,-130,37l44,156c0,0,-50,67,-122,67c0,0,-51,0,-96,-27c0,0,-45,-28,-109,-89V-39L597,-49L507,8V211c0,0,-62,-54,-140,-54c0,0,-113,0,-215,92c0,0,-102,92,-102,206c0,0,0,93,69,157c0,0,69,63,164,63c0,0,33,0,65,-9L507,590V822H0l-45,76l14,31H1943l46,-76l-14,-31H1740l66,-58V-39l-37,-10L1679,8V822H1398c0,0,50,-44,75,-109c0,0,24,-64,24,-122c0,0,0,-105,-80,-213c0,0,-80,-108,-241,-176L1468,18l2,-25l-80,-76Z"
id="f6_il"
transform="scale(0.001,-0.001)"/>

<path d="M483,-305L295,-10c0,0,-90,22,-156,74l41,170h66L351,63c0,0,126,4,207,62c0,0,82,58,82,139c0,0,0,37,-18,71L365,266c0,0,-110,15,-197,102c0,0,-87,87,-87,176c0,0,0,69,59,117c0,0,59,48,172,48H550V822H0l-45,76l14,31H550c0,0,-142,122,-142,255c0,0,0,78,52,133c0,0,52,55,140,55c0,0,98,0,176,-64l-23,-69c0,0,-53,32,-104,32c0,0,-56,0,-94,-36c0,0,-39,-36,-39,-95c0,0,0,-109,112,-211H822l46,-76L854,822H603l66,-58V585H373c0,0,-184,0,-184,-99c0,0,0,-48,63,-101l310,78c0,0,86,-34,141,-99c0,0,55,-65,55,-142c0,0,0,-109,-98,-179c0,0,-98,-69,-254,-69L599,-216L483,-305Z"
id="f6_ao"
transform="scale(0.001,-0.001)"/>

<path d="M527,-71L52,414l34,92H277c0,0,12,32,12,72V822H0l-45,76l14,31H940l45,-76L972,822H350l66,-55V553c0,0,24,52,77,83c0,0,52,30,112,30c0,0,87,0,171,-76c0,0,84,-75,222,-304L938,244L828,411c0,0,-95,134,-195,134c0,0,-63,0,-100,-35c0,0,-36,-36,-36,-87c0,0,0,-50,42,-87l152,99L755,315c0,0,-71,-61,-148,-61c0,0,-80,0,-146,66c0,0,-65,67,-65,164c0,0,-34,-70,-132,-168L610,34L611,8L527,-71Z"
id="f6_n1"
transform="scale(0.001,-0.001)"/>

<path d="M959,-49L869,8V367c0,0,-32,-13,-64,-13c0,0,-50,0,-110,25c0,0,23,-52,23,-109c0,0,0,-103,-70,-170c0,0,-70,-66,-182,-66c0,0,-110,0,-222,82c0,0,-111,83,-213,293l68,42c0,0,72,-155,152,-231c0,0,81,-76,178,-76c0,0,83,0,131,49c0,0,48,48,48,117c0,0,0,54,-30,100c0,0,-31,47,-91,65L325,391L257,512c0,0,68,53,156,56c0,0,140,72,140,179c0,0,0,69,-52,99c0,0,-4,1,-11,1c-19,0,-66,-4,-123,-30c0,0,-78,-35,-142,-96L150,823c0,0,119,117,253,117c0,0,98,0,175,-71c0,0,77,-70,77,-159c0,0,0,-103,-94,-180c0,0,39,-23,73,-56c0,0,52,-22,109,-22c0,0,77,0,126,38V822H727l-46,76l14,31h509l-136,104c0,0,-90,65,-157,65c0,0,-68,0,-152,-53l-71,118c0,0,77,65,163,65c0,0,116,0,246,-120L1286,930l-107,271c0,0,-71,166,-187,166c0,0,-52,0,-129,-33l-59,125c0,0,78,46,159,46c0,0,194,0,284,-271L1349,929h186l46,-76l-13,-31H1332l66,-58V-39l-37,-10L1271,8V822H930l66,-58V-39L959,-49Z"
id="f6_b8"
transform="scale(0.001,-0.001)"/>

<path d="M513,460c0,0,61,81,61,179c0,0,0,87,-45,143c0,0,-45,57,-116,57c0,0,-63,0,-102,-43c0,0,-39,-43,-39,-110c0,0,0,-90,68,-151c0,0,68,-61,173,-75ZM581,-83L278,167l-41,-4c0,0,-99,0,-130,37l47,168l51,12l78,-79c0,0,110,40,183,105c0,0,-141,23,-231,107c0,0,-90,84,-90,193c0,0,0,69,37,116H0l-45,76l14,31H798l45,-76L830,822H588c0,0,51,-44,75,-109c0,0,25,-64,25,-122c0,0,0,-105,-81,-213c0,0,-80,-108,-240,-176L658,18l2,-25L581,-83Z"
id="f6_ly"
transform="scale(0.001,-0.001)"/>

<path d="M900,298c0,0,32,73,32,159c0,0,0,110,-38,160c0,0,-40,31,-81,31c0,0,-48,0,-80,-35c0,0,-33,-35,-33,-89c0,0,0,-118,200,-226ZM588,-60c0,0,-154,0,-274,93c0,0,-120,94,-120,207c0,0,0,50,28,92C222,332,61,440,61,552c0,0,0,71,56,122c0,0,56,50,169,50H417l64,-98L463,600H333c0,0,-157,-1,-157,-99c0,0,0,-59,88,-124c0,0,68,52,164,52c0,0,38,0,79,-9l71,-88L558,299c0,0,-46,10,-81,10c0,0,-75,0,-116,-36c0,0,-40,-36,-40,-88c0,0,0,-78,73,-130c0,0,54,-17,109,-17c0,0,114,0,211,54c0,0,97,53,154,145c0,0,-156,96,-223,173c0,0,-67,77,-67,155c0,0,0,72,48,124c0,0,48,52,126,55v78H0l-45,76l14,31H1123l46,-76l-14,-31H805l66,-58V717c0,0,76,-40,124,-124c0,0,47,-84,47,-193c0,0,0,-188,-133,-324C909,76,776,-60,588,-60Z"
id="f6_bf"
transform="scale(0.001,-0.001)"/>

<path d="M634,-49L249,296c0,0,-1,0,-3,0c-11,0,-48,1,-90,15c0,0,-51,16,-67,36l49,165l50,12l84,-98c0,0,125,31,191,104c0,0,66,73,66,165c0,0,0,109,-95,170c0,0,-2,0,-6,0C397,865,262,858,121,738L46,848c0,0,52,47,127,82c0,0,75,34,152,34c0,0,130,0,226,-94c0,0,95,-94,95,-218c0,0,0,-107,-77,-199c0,0,-77,-92,-216,-134L697,26L698,0L634,-49Z"
id="f6_n8"
transform="scale(0.001,-0.001)"/>

<path d="M725,307c0,0,-95,0,-218,78c0,0,-123,78,-188,78c0,0,-54,0,-95,-34c0,0,-41,-34,-73,-100L93,362c0,0,38,88,101,146c0,0,63,59,148,59c0,0,90,0,214,-78c0,0,124,-79,188,-79c0,0,63,0,106,34c0,0,42,33,85,104l60,-40c0,0,-32,-66,-101,-134c0,0,-70,-67,-169,-67Z"
id="f7_4r"
transform="scale(0.001,-0.001)"/>

<path d="M412,-18c0,0,-144,0,-239,85c0,0,-95,86,-108,222l133,18c0,0,24,-114,79,-164c0,0,55,-50,135,-50c0,0,96,0,161,65c0,0,65,66,65,163c0,0,0,92,-61,152c0,0,-60,60,-153,60c0,0,-38,0,-95,-15l15,119c0,0,13,-2,21,-2c0,0,86,0,155,45c0,0,69,44,69,137c0,0,0,74,-50,122c0,0,-50,49,-129,49c0,0,-79,0,-131,-50c0,0,-52,-49,-67,-147L78,815c0,0,25,135,112,209c0,0,87,74,217,74c0,0,89,0,164,-38c0,0,76,-39,116,-105c0,0,40,-66,40,-141c0,0,0,-70,-39,-129c0,0,-38,-58,-112,-92c0,0,97,-22,151,-93c0,0,53,-70,53,-176c0,0,0,-143,-104,-243c0,0,-105,-99,-264,-99Z"
id="f8_n"
transform="scale(0.001,-0.001)"/>


</defs>
</svg>