<?xml version="1.0" encoding="UTF-8" standalone="no"?>
<!DOCTYPE svg PUBLIC "-//W3C//DTD SVG 1.1//EN"
"http://www.w3.org/Graphics/SVG/1.1/DTD/svg11.dtd">
<svg viewBox="0 0 641 910" version="1.1" xmlns="http://www.w3.org/2000/svg" xmlns:xlink="http://www.w3.org/1999/xlink">
<defs>
<clipPath id="c0_78"><path d="M0,909.8V0H641.7V909.8Z"/></clipPath>
<clipPath id="c1_78"><path d="M0,908.6V0H641.7V908.6Z"/></clipPath>
<style type="text/css"><![CDATA[
.g0_78{
fill: #FFFFFF;
}
.g1_78{
}
]]></style>
</defs>
<path d="M0,0H641.7V909.8H0V0Z" class="g0_78"/>
<path d="M0,0H641.7V909.8H0V0Z" class="g0_78"/>
<g clip-path="url(#c0_78)">
<path d="M0,-64595.1H641.7V41850.4H0V-64595.1Z" class="g0_78"/>
</g>
<path d="M0,0H641.7V908.6H0V0Z" class="g0_78"/>
<path d="M19.5,60.7H602.7v1.2H19.5V60.7Z" class="g1_78"/>
<g clip-path="url(#c1_78)">
<path d="M0,61.9H641.7V909.8H0V61.9Z" class="g0_78"/>
<g fill="#000000" >
<use xlink:href="#f5_by" transform="matrix(14,0,0,14,251.2,82.5)" />
<use xlink:href="#f5_d4" transform="matrix(14,0,0,14,266.2,82.5)" />
<use xlink:href="#f5_n1" transform="matrix(14,0,0,14,266.2,82.5)" />
<use xlink:href="#f5_bt" transform="matrix(14,0,0,14,288.9,82.5)" />
<use xlink:href="#f5_c7" transform="matrix(14,0,0,14,302,82.5)" />
<use xlink:href="#f5_cb" transform="matrix(14,0,0,14,315.7,82.5)" />
<use xlink:href="#f5_nr" transform="matrix(14,0,0,14,332.3,82.5)" />
<use xlink:href="#f5_c1" transform="matrix(14,0,0,14,338.8,82.5)" />
<use xlink:href="#f5_c0" transform="matrix(14,0,0,14,349,82.5)" />
<use xlink:href="#f5_d8" transform="matrix(14,0,0,14,363.1,82.5)" />
<use xlink:href="#f6_al" transform="matrix(14,0,0,14,136.7,116.9)" />
<use xlink:href="#f6_c1" transform="matrix(14,0,0,14,152.5,116.9)" />
<use xlink:href="#f6_d4" transform="matrix(14,0,0,14,160.5,116.9)" />
<use xlink:href="#f6_bh" transform="matrix(14,0,0,14,166.6,116.9)" />
<use xlink:href="#f6_cv" transform="matrix(14,0,0,14,183.3,116.9)" />
<use xlink:href="#f6_bo" transform="matrix(14,0,0,14,189,116.9)" />
<use xlink:href="#f6_ct" transform="matrix(14,0,0,14,203.3,116.9)" />
<use xlink:href="#f6_c1" transform="matrix(14,0,0,14,214.6,116.9)" />
<use xlink:href="#f6_d4" transform="matrix(14,0,0,14,222.6,116.9)" />
<use xlink:href="#f6_pd" transform="matrix(14,0,0,14,223,116.9)" />
<use xlink:href="#f6_bh" transform="matrix(14,0,0,14,236.2,116.9)" />
<use xlink:href="#f6_cv" transform="matrix(14,0,0,14,253,116.9)" />
<use xlink:href="#f6_bo" transform="matrix(14,0,0,14,258.6,116.9)" />
<use xlink:href="#f6_ct" transform="matrix(14,0,0,14,273,116.9)" />
<use xlink:href="#f6_bc" transform="matrix(14,0,0,14,284.3,116.9)" />
<use xlink:href="#f6_cw" transform="matrix(14,0,0,14,298.7,116.8)" />
<use xlink:href="#f6_di" transform="matrix(14,0,0,14,295.6,117.3)" />
<use xlink:href="#f6_bc" transform="matrix(14,0,0,14,298.2,116.9)" />
<use xlink:href="#f6_c1" transform="matrix(14,0,0,14,312.1,116.9)" />
<use xlink:href="#f6_ct" transform="matrix(14,0,0,14,320.4,116.9)" />
<use xlink:href="#f6_bz" transform="matrix(14,0,0,14,331.7,116.9)" />
<use xlink:href="#f6_ct" transform="matrix(14,0,0,14,345.1,116.9)" />
<use xlink:href="#f6_bp" transform="matrix(14,0,0,14,350.7,116.9)" />
<use xlink:href="#f6_ct" transform="matrix(14,0,0,14,363,116.9)" />
<use xlink:href="#f6_c1" transform="matrix(14,0,0,14,374.3,116.9)" />
<use xlink:href="#f6_d4" transform="matrix(14,0,0,14,382.3,116.9)" />
<use xlink:href="#f6_nt" transform="matrix(14,0,0,14,388.3,116.9)" />
<use xlink:href="#f6_bz" transform="matrix(14,0,0,14,394,116.9)" />
<use xlink:href="#f6_lj" transform="matrix(14,0,0,14,407.3,116.9)" />
<use xlink:href="#f6_br" transform="matrix(14,0,0,14,413.1,116.9)" />
<use xlink:href="#f6_c1" transform="matrix(14,0,0,14,424.8,116.9)" />
<use xlink:href="#f6_bx" transform="matrix(14,0,0,14,438.8,116.9)" />
<use xlink:href="#f6_ct" transform="matrix(14,0,0,14,451.1,116.9)" />
<use xlink:href="#f6_bg" transform="matrix(14,0,0,14,456.7,116.9)" />
<use xlink:href="#f6_d4" transform="matrix(14,0,0,14,471.1,116.9)" />
<use xlink:href="#f6_c1" transform="matrix(14,0,0,14,476.6,116.9)" />
<use xlink:href="#f6_d4" transform="matrix(14,0,0,14,484.6,116.9)" />
<use xlink:href="#f6_al" transform="matrix(14,0,0,14,167.6,151.3)" />
<use xlink:href="#f6_c1" transform="matrix(14,0,0,14,183.5,151.3)" />
<use xlink:href="#f6_d4" transform="matrix(14,0,0,14,191.4,151.3)" />
<use xlink:href="#f6_bz" transform="matrix(14,0,0,14,197.5,151.3)" />
<use xlink:href="#f6_d8" transform="matrix(14,0,0,14,210.8,151.3)" />
<use xlink:href="#f6_bk" transform="matrix(14,0,0,14,216.5,151.3)" />
<use xlink:href="#f6_ct" transform="matrix(14,0,0,14,228,151.3)" />
<use xlink:href="#f6_c1" transform="matrix(14,0,0,14,239.3,151.3)" />
<use xlink:href="#f6_d4" transform="matrix(14,0,0,14,247.3,151.3)" />
<use xlink:href="#f6_bz" transform="matrix(14,0,0,14,253.4,151.3)" />
<use xlink:href="#f6_d8" transform="matrix(14,0,0,14,266.7,151.3)" />
<use xlink:href="#f6_bk" transform="matrix(14,0,0,14,272.3,151.3)" />
<use xlink:href="#f6_ct" transform="matrix(14,0,0,14,283.9,151.3)" />
<use xlink:href="#f6_bc" transform="matrix(14,0,0,14,300.8,151.3)" />
<use xlink:href="#f6_cw" transform="matrix(14,0,0,14,315.3,151.1)" />
<use xlink:href="#f6_di" transform="matrix(14,0,0,14,312.1,151.7)" />
<use xlink:href="#f6_bc" transform="matrix(14,0,0,14,314.7,151.3)" />
<use xlink:href="#f6_c1" transform="matrix(14,0,0,14,328.6,151.3)" />
<use xlink:href="#f6_ct" transform="matrix(14,0,0,14,337,151.3)" />
<use xlink:href="#f6_by" transform="matrix(14,0,0,14,348.3,151.3)" />
<use xlink:href="#f6_d4" transform="matrix(14,0,0,14,362.4,151.3)" />
<use xlink:href="#f6_n1" transform="matrix(14,0,0,14,362.3,151.3)" />
<use xlink:href="#f6_c1" transform="matrix(14,0,0,14,381.1,151.3)" />
<use xlink:href="#f6_d4" transform="matrix(14,0,0,14,389,151.3)" />
<use xlink:href="#f6_bx" transform="matrix(14,0,0,14,395.1,151.3)" />
<use xlink:href="#f6_ct" transform="matrix(14,0,0,14,407.4,151.3)" />
<use xlink:href="#f6_bg" transform="matrix(14,0,0,14,413,151.3)" />
<use xlink:href="#f6_d4" transform="matrix(14,0,0,14,427.4,151.3)" />
<use xlink:href="#f6_b1" transform="matrix(14,0,0,14,432.9,151.3)" />
<use xlink:href="#f6_b9" transform="matrix(14,0,0,14,240.9,185.6)" />
<use xlink:href="#f6_d4" transform="matrix(14,0,0,14,252.1,185.6)" />
<use xlink:href="#f6_by" transform="matrix(14,0,0,14,262.1,185.6)" />
<use xlink:href="#f6_d4" transform="matrix(14,0,0,14,276.2,185.6)" />
<use xlink:href="#f6_n1" transform="matrix(14,0,0,14,276.1,185.6)" />
<use xlink:href="#f6_bt" transform="matrix(14,0,0,14,294.9,185.6)" />
<use xlink:href="#f6_c7" transform="matrix(14,0,0,14,306.6,185.6)" />
<use xlink:href="#f6_cb" transform="matrix(14,0,0,14,318.7,185.6)" />
<use xlink:href="#f6_nr" transform="matrix(14,0,0,14,333.5,185.6)" />
<use xlink:href="#f6_c1" transform="matrix(14,0,0,14,339.2,185.6)" />
<use xlink:href="#f6_c0" transform="matrix(14,0,0,14,347.5,185.6)" />
<use xlink:href="#f6_d8" transform="matrix(14,0,0,14,360.1,185.6)" />
<use xlink:href="#f6_pc" transform="matrix(14,0,0,14,371.4,185.6)" />
<use xlink:href="#f6_pc" transform="matrix(14,0,0,14,375.6,185.6)" />
<use xlink:href="#f6_g" transform="matrix(14,0,0,14,93.1,220)" />
<use xlink:href="#f6_nu" transform="matrix(14,0,0,14,99,220)" />
<use xlink:href="#f6_bg" transform="matrix(14,0,0,14,104.6,220)" />
<use xlink:href="#f6_c0" transform="matrix(14,0,0,14,118.9,220)" />
<use xlink:href="#f6_d8" transform="matrix(14,0,0,14,131.4,220)" />
<use xlink:href="#f6_c1" transform="matrix(14,0,0,14,142.7,220)" />
<use xlink:href="#f6_ct" transform="matrix(14,0,0,14,151.1,220)" />
<use xlink:href="#f6_bg" transform="matrix(14,0,0,14,156.7,220)" />
<use xlink:href="#f6_by" transform="matrix(14,0,0,14,176.6,220)" />
<use xlink:href="#f6_d4" transform="matrix(14,0,0,14,190.7,220)" />
<use xlink:href="#f6_n1" transform="matrix(14,0,0,14,190.6,220)" />
<use xlink:href="#f6_bt" transform="matrix(14,0,0,14,209.4,220)" />
<use xlink:href="#f6_c7" transform="matrix(14,0,0,14,221.1,220)" />
<use xlink:href="#f6_cb" transform="matrix(14,0,0,14,233.2,220)" />
<use xlink:href="#f6_nr" transform="matrix(14,0,0,14,248.1,220)" />
<use xlink:href="#f6_c1" transform="matrix(14,0,0,14,253.7,220)" />
<use xlink:href="#f6_c0" transform="matrix(14,0,0,14,262.1,220)" />
<use xlink:href="#f6_d8" transform="matrix(14,0,0,14,274.6,220)" />
<use xlink:href="#f6_cc" transform="matrix(14,0,0,14,285.9,220)" />
<use xlink:href="#f6_d9" transform="matrix(14,0,0,14,297.5,220)" />
<use xlink:href="#f6_c3" transform="matrix(14,0,0,14,303.1,220)" />
<use xlink:href="#f6_d4" transform="matrix(14,0,0,14,318,220)" />
<use xlink:href="#f6_cc" transform="matrix(14,0,0,14,323.5,220)" />
<use xlink:href="#f6_d9" transform="matrix(14,0,0,14,335.1,220)" />
<use xlink:href="#f6_c3" transform="matrix(14,0,0,14,340.7,220)" />
<use xlink:href="#f6_d4" transform="matrix(14,0,0,14,355.6,220)" />
<use xlink:href="#f6_b1" transform="matrix(14,0,0,14,361.1,220)" />
<use xlink:href="#f6_by" transform="matrix(14,0,0,14,388.3,220)" />
<use xlink:href="#f6_d4" transform="matrix(14,0,0,14,402.4,220)" />
<use xlink:href="#f6_n1" transform="matrix(14,0,0,14,402.2,220)" />
<use xlink:href="#f6_bg" transform="matrix(14,0,0,14,421,220)" />
<use xlink:href="#f6_cv" transform="matrix(14,0,0,14,435.3,220)" />
<use xlink:href="#f6_bt" transform="matrix(14,0,0,14,446.6,220)" />
<use xlink:href="#f6_c7" transform="matrix(14,0,0,14,458.3,220)" />
<use xlink:href="#f6_cb" transform="matrix(14,0,0,14,470.4,220)" />
<use xlink:href="#f6_nr" transform="matrix(14,0,0,14,485.3,220)" />
<use xlink:href="#f6_c1" transform="matrix(14,0,0,14,490.9,220)" />
<use xlink:href="#f6_c0" transform="matrix(14,0,0,14,499.3,220)" />
<use xlink:href="#f6_d8" transform="matrix(14,0,0,14,511.8,220)" />
<use xlink:href="#f6_h" transform="matrix(14,0,0,14,523.1,220)" />
<use xlink:href="#f6_nt" transform="matrix(14,0,0,14,129.8,254.4)" />
<use xlink:href="#f6_bz" transform="matrix(14,0,0,14,135.4,254.4)" />
<use xlink:href="#f6_lj" transform="matrix(14,0,0,14,148.7,254.4)" />
<use xlink:href="#f6_br" transform="matrix(14,0,0,14,154.5,254.4)" />
<use xlink:href="#f6_c1" transform="matrix(14,0,0,14,166.2,254.4)" />
<use xlink:href="#f6_bz" transform="matrix(14,0,0,14,180.3,254.4)" />
<use xlink:href="#f6_oz" transform="matrix(14,0,0,14,193.7,254.4)" />
<use xlink:href="#f6_by" transform="matrix(14,0,0,14,199.3,254.4)" />
<use xlink:href="#f6_d8" transform="matrix(14,0,0,14,213.2,254.4)" />
<use xlink:href="#f6_bv" transform="matrix(14,0,0,14,218.8,254.4)" />
<use xlink:href="#f6_ct" transform="matrix(14,0,0,14,230.7,254.4)" />
<use xlink:href="#f6_c7" transform="matrix(14,0,0,14,242,254.4)" />
<use xlink:href="#f6_ct" transform="matrix(14,0,0,14,254.1,254.4)" />
<use xlink:href="#f6_bk" transform="matrix(14,0,0,14,259.7,254.4)" />
<use xlink:href="#f6_bg" transform="matrix(14,0,0,14,276.9,254.4)" />
<use xlink:href="#f6_d8" transform="matrix(14,0,0,14,291.2,254.4)" />
<use xlink:href="#f6_c7" transform="matrix(14,0,0,14,296.8,254.4)" />
<use xlink:href="#f6_d4" transform="matrix(14,0,0,14,309,254.4)" />
<use xlink:href="#f6_b1" transform="matrix(14,0,0,14,314.5,254.4)" />
<use xlink:href="#f6_pc" transform="matrix(14,0,0,14,336,254.4)" />
<use xlink:href="#f6_pc" transform="matrix(14,0,0,14,340.3,254.4)" />
<use xlink:href="#f6_pc" transform="matrix(14,0,0,14,344.6,254.4)" />
<use xlink:href="#f6_pc" transform="matrix(14,0,0,14,348.9,254.4)" />
<use xlink:href="#f6_pc" transform="matrix(14,0,0,14,353.1,254.4)" />
<use xlink:href="#f6_pc" transform="matrix(14,0,0,14,357.4,254.4)" />
<use xlink:href="#f6_b9" transform="matrix(14,0,0,14,367.3,254.4)" />
<use xlink:href="#f6_d4" transform="matrix(14,0,0,14,378.5,254.4)" />
<use xlink:href="#f6_by" transform="matrix(14,0,0,14,388.5,254.4)" />
<use xlink:href="#f6_d4" transform="matrix(14,0,0,14,402.6,254.4)" />
<use xlink:href="#f6_n1" transform="matrix(14,0,0,14,402.5,254.4)" />
<use xlink:href="#f6_bt" transform="matrix(14,0,0,14,421.3,254.4)" />
<use xlink:href="#f6_c7" transform="matrix(14,0,0,14,433,254.4)" />
<use xlink:href="#f6_cb" transform="matrix(14,0,0,14,445.1,254.4)" />
<use xlink:href="#f6_nr" transform="matrix(14,0,0,14,460,254.4)" />
<use xlink:href="#f6_c1" transform="matrix(14,0,0,14,465.6,254.4)" />
<use xlink:href="#f6_c0" transform="matrix(14,0,0,14,474,254.4)" />
<use xlink:href="#f6_d8" transform="matrix(14,0,0,14,486.5,254.4)" />
<use xlink:href="#f6_bv" transform="matrix(14,0,0,14,135.5,323.1)" />
<use xlink:href="#f6_d4" transform="matrix(14,0,0,14,147.5,323.1)" />
<use xlink:href="#f6_cc" transform="matrix(14,0,0,14,147.4,323.1)" />
<use xlink:href="#f6_c3" transform="matrix(14,0,0,14,159,323.1)" />
<use xlink:href="#f6_d8" transform="matrix(14,0,0,14,173.7,323.1)" />
<use xlink:href="#f6_bm" transform="matrix(14,0,0,14,179.3,323.1)" />
<use xlink:href="#f6_d8" transform="matrix(14,0,0,14,192,323.1)" />
<use xlink:href="#f6_b9" transform="matrix(14,0,0,14,203.3,323.1)" />
<use xlink:href="#f6_ct" transform="matrix(14,0,0,14,218.8,323.1)" />
<use xlink:href="#f6_bb" transform="matrix(14,0,0,14,224.4,323.1)" />
<use xlink:href="#f6_cu" transform="matrix(14,0,0,14,237,323.1)" />
<use xlink:href="#f6_br" transform="matrix(14,0,0,14,242.6,323.1)" />
<use xlink:href="#f6_c0" transform="matrix(14,0,0,14,254.3,323.1)" />
<use xlink:href="#f6_d8" transform="matrix(14,0,0,14,266.9,323.1)" />
<use xlink:href="#f6_nu" transform="matrix(14,0,0,14,278.1,323.1)" />
<use xlink:href="#f6_c3" transform="matrix(14,0,0,14,283.8,323.1)" />
<use xlink:href="#f6_ba" transform="matrix(14,0,0,14,298.5,323.1)" />
<use xlink:href="#f6_bt" transform="matrix(14,0,0,14,315.2,323.1)" />
<use xlink:href="#f6_d4" transform="matrix(14,0,0,14,327,323.1)" />
<use xlink:href="#f6_c8" transform="matrix(14,0,0,14,332.6,323.1)" />
<use xlink:href="#f6_dj" transform="matrix(14,0,0,14,342.8,323.6)" />
<use xlink:href="#f6_ba" transform="matrix(14,0,0,14,348.4,323.1)" />
<use xlink:href="#f6_d4" transform="matrix(14,0,0,14,365.3,323.1)" />
<use xlink:href="#f6_ke" transform="matrix(14,0,0,14,365.1,323.1)" />
<use xlink:href="#f6_c1" transform="matrix(14,0,0,14,379.3,323.1)" />
<use xlink:href="#f6_bg" transform="matrix(14,0,0,14,393.4,323.1)" />
<use xlink:href="#f6_cv" transform="matrix(14,0,0,14,407.6,323.1)" />
<use xlink:href="#f6_bz" transform="matrix(14,0,0,14,418.9,323.1)" />
<use xlink:href="#f6_oz" transform="matrix(14,0,0,14,432.4,323.1)" />
<use xlink:href="#f6_by" transform="matrix(14,0,0,14,437.9,323.1)" />
<use xlink:href="#f6_d4" transform="matrix(14,0,0,14,452,323.1)" />
<use xlink:href="#f6_bg" transform="matrix(14,0,0,14,451.9,323.1)" />
<use xlink:href="#f6_ct" transform="matrix(14,0,0,14,466.2,323.1)" />
<use xlink:href="#f6_c1" transform="matrix(14,0,0,14,477.4,323.1)" />
<use xlink:href="#f6_d4" transform="matrix(14,0,0,14,485.4,323.1)" />
<use xlink:href="#f6_c8" transform="matrix(14,0,0,14,179.1,357.5)" />
<use xlink:href="#f6_dj" transform="matrix(14,0,0,14,189.3,357.9)" />
<use xlink:href="#f6_ba" transform="matrix(14,0,0,14,194.9,357.5)" />
<use xlink:href="#f6_d4" transform="matrix(14,0,0,14,211.8,357.5)" />
<use xlink:href="#f6_ke" transform="matrix(14,0,0,14,211.6,357.5)" />
<use xlink:href="#f6_c1" transform="matrix(14,0,0,14,225.8,357.5)" />
<use xlink:href="#f6_bt" transform="matrix(14,0,0,14,239.9,357.5)" />
<use xlink:href="#f6_ct" transform="matrix(14,0,0,14,251.6,357.5)" />
<use xlink:href="#f6_bv" transform="matrix(14,0,0,14,262.9,357.5)" />
<use xlink:href="#f6_ct" transform="matrix(14,0,0,14,274.7,357.5)" />
<use xlink:href="#f6_c1" transform="matrix(14,0,0,14,280.4,357.5)" />
<use xlink:href="#f6_cb" transform="matrix(14,0,0,14,288.7,357.5)" />
<use xlink:href="#f6_br" transform="matrix(14,0,0,14,309.3,357.5)" />
<use xlink:href="#f6_ct" transform="matrix(14,0,0,14,321,357.5)" />
<use xlink:href="#f6_br" transform="matrix(14,0,0,14,326.6,357.5)" />
<use xlink:href="#f6_ct" transform="matrix(14,0,0,14,338.2,357.5)" />
<use xlink:href="#f6_am" transform="matrix(14,0,0,14,349.5,357.5)" />
<use xlink:href="#f6_c0" transform="matrix(14,0,0,14,371,357.5)" />
<use xlink:href="#f6_ct" transform="matrix(14,0,0,14,383.6,357.5)" />
<use xlink:href="#f6_nr" transform="matrix(14,0,0,14,394.9,357.5)" />
<use xlink:href="#f6_c1" transform="matrix(14,0,0,14,400.5,357.5)" />
<use xlink:href="#f6_bg" transform="matrix(14,0,0,14,408.9,357.5)" />
<use xlink:href="#f6_d8" transform="matrix(14,0,0,14,423.1,357.5)" />
<use xlink:href="#f6_c1" transform="matrix(14,0,0,14,434.4,357.5)" />
<use xlink:href="#f6_d4" transform="matrix(14,0,0,14,442.4,357.5)" />
<use xlink:href="#f6_b9" transform="matrix(14,0,0,14,238.6,391.9)" />
<use xlink:href="#f6_d4" transform="matrix(14,0,0,14,249.8,391.9)" />
<use xlink:href="#f6_by" transform="matrix(14,0,0,14,259.8,391.9)" />
<use xlink:href="#f6_d4" transform="matrix(14,0,0,14,273.9,391.9)" />
<use xlink:href="#f6_n1" transform="matrix(14,0,0,14,273.8,391.9)" />
<use xlink:href="#f6_bt" transform="matrix(14,0,0,14,292.6,391.9)" />
<use xlink:href="#f6_c7" transform="matrix(14,0,0,14,304.3,391.9)" />
<use xlink:href="#f6_cb" transform="matrix(14,0,0,14,316.4,391.9)" />
<use xlink:href="#f6_nr" transform="matrix(14,0,0,14,331.2,391.9)" />
<use xlink:href="#f6_c1" transform="matrix(14,0,0,14,336.9,391.9)" />
<use xlink:href="#f6_c0" transform="matrix(14,0,0,14,345.2,391.9)" />
<use xlink:href="#f6_d8" transform="matrix(14,0,0,14,357.8,391.9)" />
<use xlink:href="#f6_pc" transform="matrix(14,0,0,14,369.1,391.9)" />
<use xlink:href="#f6_pc" transform="matrix(14,0,0,14,373.4,391.9)" />
<use xlink:href="#f6_pc" transform="matrix(14,0,0,14,377.6,391.9)" />
<use xlink:href="#f6_mw" transform="matrix(14,0,0,14,143.5,460.6)" />
<use xlink:href="#f6_bg" transform="matrix(14,0,0,14,155.3,460.6)" />
<use xlink:href="#f6_d8" transform="matrix(14,0,0,14,169.6,460.6)" />
<use xlink:href="#f6_bm" transform="matrix(14,0,0,14,175.2,460.6)" />
<use xlink:href="#f6_d8" transform="matrix(14,0,0,14,187.9,460.6)" />
<use xlink:href="#f6_b9" transform="matrix(14,0,0,14,199.2,460.6)" />
<use xlink:href="#f6_ct" transform="matrix(14,0,0,14,214.7,460.6)" />
<use xlink:href="#f6_bb" transform="matrix(14,0,0,14,220.3,460.6)" />
<use xlink:href="#f6_cu" transform="matrix(14,0,0,14,232.9,460.6)" />
<use xlink:href="#f6_br" transform="matrix(14,0,0,14,238.5,460.6)" />
<use xlink:href="#f6_c0" transform="matrix(14,0,0,14,250.2,460.6)" />
<use xlink:href="#f6_d8" transform="matrix(14,0,0,14,262.7,460.6)" />
<use xlink:href="#f6_nu" transform="matrix(14,0,0,14,274,460.6)" />
<use xlink:href="#f6_c3" transform="matrix(14,0,0,14,279.6,460.6)" />
<use xlink:href="#f6_ba" transform="matrix(14,0,0,14,294.3,460.6)" />
<use xlink:href="#f6_bt" transform="matrix(14,0,0,14,311.1,460.6)" />
<use xlink:href="#f6_d4" transform="matrix(14,0,0,14,322.9,460.6)" />
<use xlink:href="#f6_al" transform="matrix(14,0,0,14,328.4,460.6)" />
<use xlink:href="#f6_l4" transform="matrix(14,0,0,14,344.3,460.6)" />
<use xlink:href="#f6_c3" transform="matrix(14,0,0,14,351.1,460.6)" />
<use xlink:href="#f6_d8" transform="matrix(14,0,0,14,365.9,460.6)" />
<use xlink:href="#f6_bm" transform="matrix(14,0,0,14,371.5,460.6)" />
<use xlink:href="#f6_bg" transform="matrix(14,0,0,14,384.2,460.6)" />
<use xlink:href="#f6_cv" transform="matrix(14,0,0,14,398.4,460.6)" />
<use xlink:href="#f6_bz" transform="matrix(14,0,0,14,409.7,460.6)" />
<use xlink:href="#f6_oz" transform="matrix(14,0,0,14,423.2,460.6)" />
<use xlink:href="#f6_by" transform="matrix(14,0,0,14,428.7,460.6)" />
<use xlink:href="#f6_d4" transform="matrix(14,0,0,14,442.8,460.6)" />
<use xlink:href="#f6_bg" transform="matrix(14,0,0,14,442.7,460.6)" />
<use xlink:href="#f6_ct" transform="matrix(14,0,0,14,456.9,460.6)" />
<use xlink:href="#f6_c1" transform="matrix(14,0,0,14,468.2,460.6)" />
<use xlink:href="#f6_d4" transform="matrix(14,0,0,14,476.2,460.6)" />
<use xlink:href="#f6_al" transform="matrix(14,0,0,14,174.5,495)" />
<use xlink:href="#f6_l4" transform="matrix(14,0,0,14,190.3,495)" />
<use xlink:href="#f6_c3" transform="matrix(14,0,0,14,197.2,495)" />
<use xlink:href="#f6_d8" transform="matrix(14,0,0,14,211.9,495)" />
<use xlink:href="#f6_bm" transform="matrix(14,0,0,14,217.5,495)" />
<use xlink:href="#f6_bt" transform="matrix(14,0,0,14,235.8,495)" />
<use xlink:href="#f6_ct" transform="matrix(14,0,0,14,247.6,495)" />
<use xlink:href="#f6_bz" transform="matrix(14,0,0,14,258.8,495)" />
<use xlink:href="#f6_nu" transform="matrix(14,0,0,14,272.2,495)" />
<use xlink:href="#f6_bo" transform="matrix(14,0,0,14,277.8,495)" />
<use xlink:href="#f6_by" transform="matrix(14,0,0,14,292.2,495)" />
<use xlink:href="#f6_e3" transform="matrix(14,0,0,14,306.1,495)" />
<use xlink:href="#f6_bg" transform="matrix(14,0,0,14,318.2,495)" />
<use xlink:href="#f6_cv" transform="matrix(14,0,0,14,332.5,495)" />
<use xlink:href="#f6_c7" transform="matrix(14,0,0,14,343.8,495)" />
<use xlink:href="#f6_d4" transform="matrix(14,0,0,14,356,495)" />
<use xlink:href="#f6_bb" transform="matrix(14,0,0,14,355.8,495)" />
<use xlink:href="#f6_ct" transform="matrix(14,0,0,14,368.4,495)" />
<use xlink:href="#f6_am" transform="matrix(14,0,0,14,379.7,495)" />
<use xlink:href="#f6_ao" transform="matrix(14,0,0,14,401.2,495)" />
<use xlink:href="#f6_bg" transform="matrix(14,0,0,14,412.7,495)" />
<use xlink:href="#f6_d8" transform="matrix(14,0,0,14,427,495)" />
<use xlink:href="#f6_c1" transform="matrix(14,0,0,14,438.3,495)" />
<use xlink:href="#f6_d4" transform="matrix(14,0,0,14,446.2,495)" />
<use xlink:href="#f6_b9" transform="matrix(14,0,0,14,242.1,529.4)" />
<use xlink:href="#f6_d4" transform="matrix(14,0,0,14,253.2,529.4)" />
<use xlink:href="#f6_by" transform="matrix(14,0,0,14,263.2,529.4)" />
<use xlink:href="#f6_d4" transform="matrix(14,0,0,14,277.3,529.4)" />
<use xlink:href="#f6_n1" transform="matrix(14,0,0,14,277.2,529.4)" />
<use xlink:href="#f6_bt" transform="matrix(14,0,0,14,296,529.4)" />
<use xlink:href="#f6_c7" transform="matrix(14,0,0,14,307.7,529.4)" />
<use xlink:href="#f6_cb" transform="matrix(14,0,0,14,319.8,529.4)" />
<use xlink:href="#f6_nr" transform="matrix(14,0,0,14,334.7,529.4)" />
<use xlink:href="#f6_c1" transform="matrix(14,0,0,14,340.3,529.4)" />
<use xlink:href="#f6_c0" transform="matrix(14,0,0,14,348.7,529.4)" />
<use xlink:href="#f6_d8" transform="matrix(14,0,0,14,361.2,529.4)" />
<use xlink:href="#f6_pc" transform="matrix(14,0,0,14,366.9,529.4)" />
<use xlink:href="#f6_pc" transform="matrix(14,0,0,14,371.1,529.4)" />
<use xlink:href="#f6_pc" transform="matrix(14,0,0,14,375.4,529.4)" />
<use xlink:href="#f6_cu" transform="matrix(14,0,0,14,128.6,598.1)" />
<use xlink:href="#f6_bp" transform="matrix(14,0,0,14,134.3,598.1)" />
<use xlink:href="#f6_bg" transform="matrix(14,0,0,14,146.6,598.1)" />
<use xlink:href="#f6_d8" transform="matrix(14,0,0,14,160.8,598.1)" />
<use xlink:href="#f6_ch" transform="matrix(14,0,0,14,166.5,598.1)" />
<use xlink:href="#f6_d8" transform="matrix(14,0,0,14,179.1,598.1)" />
<use xlink:href="#f6_b9" transform="matrix(14,0,0,14,190.4,598.1)" />
<use xlink:href="#f6_ct" transform="matrix(14,0,0,14,205.9,598.1)" />
<use xlink:href="#f6_bb" transform="matrix(14,0,0,14,211.5,598.1)" />
<use xlink:href="#f6_cu" transform="matrix(14,0,0,14,224.2,598.1)" />
<use xlink:href="#f6_br" transform="matrix(14,0,0,14,229.8,598.1)" />
<use xlink:href="#f6_c0" transform="matrix(14,0,0,14,241.4,598.1)" />
<use xlink:href="#f6_d8" transform="matrix(14,0,0,14,254,598.1)" />
<use xlink:href="#f6_nu" transform="matrix(14,0,0,14,265.3,598.1)" />
<use xlink:href="#f6_c3" transform="matrix(14,0,0,14,270.9,598.1)" />
<use xlink:href="#f6_ba" transform="matrix(14,0,0,14,285.6,598.1)" />
<use xlink:href="#f6_bt" transform="matrix(14,0,0,14,302.3,598.1)" />
<use xlink:href="#f6_d4" transform="matrix(14,0,0,14,314.2,598.1)" />
<use xlink:href="#f6_bz" transform="matrix(14,0,0,14,319.7,598.1)" />
<use xlink:href="#f6_ct" transform="matrix(14,0,0,14,333,598.1)" />
<use xlink:href="#f6_ap" transform="matrix(14,0,0,14,338.7,598.1)" />
<use xlink:href="#f6_ch" transform="matrix(14,0,0,14,350,598.1)" />
<use xlink:href="#f6_cv" transform="matrix(14,0,0,14,362.7,598.1)" />
<use xlink:href="#f6_bt" transform="matrix(14,0,0,14,374,598.1)" />
<use xlink:href="#f6_bb" transform="matrix(14,0,0,14,385.7,598.1)" />
<use xlink:href="#f6_c1" transform="matrix(14,0,0,14,398.3,598.1)" />
<use xlink:href="#f6_bz" transform="matrix(14,0,0,14,412.4,598.1)" />
<use xlink:href="#f6_oz" transform="matrix(14,0,0,14,425.8,598.1)" />
<use xlink:href="#f6_by" transform="matrix(14,0,0,14,431.4,598.1)" />
<use xlink:href="#f6_d4" transform="matrix(14,0,0,14,445.5,598.1)" />
<use xlink:href="#f6_bg" transform="matrix(14,0,0,14,445.3,598.1)" />
<use xlink:href="#f6_ct" transform="matrix(14,0,0,14,459.6,598.1)" />
<use xlink:href="#f6_b1" transform="matrix(14,0,0,14,470.9,598.1)" />
<use xlink:href="#f6_bz" transform="matrix(14,0,0,14,148.1,632.5)" />
<use xlink:href="#f6_ct" transform="matrix(14,0,0,14,161.5,632.5)" />
<use xlink:href="#f6_ap" transform="matrix(14,0,0,14,167.1,632.5)" />
<use xlink:href="#f6_ch" transform="matrix(14,0,0,14,178.5,632.5)" />
<use xlink:href="#f6_cv" transform="matrix(14,0,0,14,191.1,632.5)" />
<use xlink:href="#f6_bt" transform="matrix(14,0,0,14,202.4,632.5)" />
<use xlink:href="#f6_bb" transform="matrix(14,0,0,14,214.1,632.5)" />
<use xlink:href="#f6_c1" transform="matrix(14,0,0,14,226.7,632.5)" />
<use xlink:href="#f6_c1" transform="matrix(14,0,0,14,240.8,632.5)" />
<use xlink:href="#f6_ct" transform="matrix(14,0,0,14,249.2,632.5)" />
<use xlink:href="#f6_bc" transform="matrix(14,0,0,14,260.5,632.5)" />
<use xlink:href="#f6_dj" transform="matrix(14,0,0,14,267.8,632.9)" />
<use xlink:href="#f6_bk" transform="matrix(14,0,0,14,274.3,632.5)" />
<use xlink:href="#f6_ct" transform="matrix(14,0,0,14,285.9,632.5)" />
<use xlink:href="#f6_b9" transform="matrix(14,0,0,14,291.5,632.5)" />
<use xlink:href="#f6_bo" transform="matrix(14,0,0,14,307,632.5)" />
<use xlink:href="#f6_dr" transform="matrix(14,0,0,14,321.9,632.5)" />
<use xlink:href="#f6_bg" transform="matrix(14,0,0,14,327.1,632.5)" />
<use xlink:href="#f6_cv" transform="matrix(14,0,0,14,341.3,632.5)" />
<use xlink:href="#f6_c7" transform="matrix(14,0,0,14,352.6,632.5)" />
<use xlink:href="#f6_d4" transform="matrix(14,0,0,14,364.8,632.5)" />
<use xlink:href="#f6_bb" transform="matrix(14,0,0,14,364.7,632.5)" />
<use xlink:href="#f6_ct" transform="matrix(14,0,0,14,377.3,632.5)" />
<use xlink:href="#f6_am" transform="matrix(14,0,0,14,388.6,632.5)" />
<use xlink:href="#f6_ao" transform="matrix(14,0,0,14,410.1,632.5)" />
<use xlink:href="#f6_bg" transform="matrix(14,0,0,14,427.2,632.5)" />
<use xlink:href="#f6_d8" transform="matrix(14,0,0,14,441.5,632.5)" />
<use xlink:href="#f6_c1" transform="matrix(14,0,0,14,452.8,632.5)" />
<use xlink:href="#f6_d4" transform="matrix(14,0,0,14,460.8,632.5)" />
<use xlink:href="#f6_k" transform="matrix(14,0,0,14,466.8,632.5)" />
<use xlink:href="#f6_b9" transform="matrix(14,0,0,14,236.3,666.9)" />
<use xlink:href="#f6_d4" transform="matrix(14,0,0,14,247.5,666.9)" />
<use xlink:href="#f6_by" transform="matrix(14,0,0,14,257.5,666.9)" />
<use xlink:href="#f6_d4" transform="matrix(14,0,0,14,271.6,666.9)" />
<use xlink:href="#f6_n1" transform="matrix(14,0,0,14,271.5,666.9)" />
<use xlink:href="#f6_bt" transform="matrix(14,0,0,14,290.3,666.9)" />
<use xlink:href="#f6_c7" transform="matrix(14,0,0,14,302,666.9)" />
<use xlink:href="#f6_cb" transform="matrix(14,0,0,14,314.1,666.9)" />
<use xlink:href="#f6_nr" transform="matrix(14,0,0,14,329,666.9)" />
<use xlink:href="#f6_c1" transform="matrix(14,0,0,14,334.6,666.9)" />
<use xlink:href="#f6_c0" transform="matrix(14,0,0,14,343,666.9)" />
<use xlink:href="#f6_d8" transform="matrix(14,0,0,14,355.5,666.9)" />
<use xlink:href="#f6_pc" transform="matrix(14,0,0,14,366.8,666.9)" />
<use xlink:href="#f6_pc" transform="matrix(14,0,0,14,371.1,666.9)" />
<use xlink:href="#f6_pc" transform="matrix(14,0,0,14,375.3,666.9)" />
<use xlink:href="#f6_pc" transform="matrix(14,0,0,14,379.6,666.9)" />
<use xlink:href="#f7_4r" transform="matrix(9,0,0,9,290.2,795.2)" />
<use xlink:href="#f8_r" transform="matrix(9,0,0,9,303,795.2)" />
<use xlink:href="#f8_m" transform="matrix(9,0,0,9,310.7,795.2)" />
<use xlink:href="#f7_4r" transform="matrix(9,0,0,9,321.3,795.2)" />
</g>
</g>
<image preserveAspectRatio="none" x="22" y="801" width="581" height="86" xlink:href="img/1.png"/>
<path d="M252.1,83.6h118v1.2h-118V83.6Z" class="g1_78"/>
<image preserveAspectRatio="none" x="202" y="14" width="217" height="26" xlink:href="img/2.png"/>
<defs>
<path d="M874,-65L700,29V309H513V173L422,122c0,0,-90,31,-191,129c0,0,-100,97,-127,184l52,81H277l-2,240c0,0,0,77,-26,109c0,0,-1,0,-2,0c-8,0,-44,-1,-70,-22c0,0,-29,-24,-29,-61c0,0,0,-53,64,-101L125,610c0,0,-174,117,-174,238c0,0,0,78,57,133c0,0,59,55,146,55c0,0,132,0,244,-112c0,0,112,-113,112,-246V516H700V822H655L570,937l32,64h458l86,-115l-32,-64H842L944,749V-31L874,-65Z"
id="f5_by"
transform="scale(0.001,-0.001)"/>

<path d="M-289,908l-132,216c0,0,-70,120,-169,120c0,0,-83,0,-200,-80l-130,249c0,0,125,78,234,78c0,0,187,0,349,-241L-159,969L-289,908Z"
id="f5_d4"
transform="scale(0.001,-0.001)"/>

<path d="M545,-97L35,405L87,542H295c0,0,1,5,1,280H0L-86,937l32,64H1218l87,-115l-32,-64H445L550,749V600c0,0,37,57,100,92c0,0,63,35,138,35c0,0,135,0,243,-111c0,0,109,-112,229,-318L1143,215c0,0,-125,201,-185,258c0,0,-60,57,-124,57c0,0,-59,0,-99,-36c0,0,-40,-36,-40,-81c0,0,0,-33,23,-60L888,466L1004,295c0,0,-95,-89,-190,-89c0,0,-97,0,-185,69c0,0,-88,69,-108,163c0,0,-34,-58,-141,-129L709,110V41L545,-97Z"
id="f5_n1"
transform="scale(0.001,-0.001)"/>

<path d="M746,-65L571,29V419H376V260L275,212c0,0,-87,48,-160,148c0,0,-72,100,-91,193l57,84H571V822H0L-86,937l32,64H930l88,-115L985,822H713L816,749V-31L746,-65Z"
id="f5_bt"
transform="scale(0.001,-0.001)"/>

<path d="M371,296c0,0,71,0,139,34c0,0,69,34,109,92v90c0,0,-72,36,-148,36c0,0,-84,0,-131,-47c0,0,-47,-47,-47,-111c0,0,0,-49,28,-89l50,-5ZM793,-65L619,29V134c0,0,-55,-27,-122,-27c0,0,-98,0,-207,48c0,0,-108,48,-182,132c0,0,-73,84,-73,188c0,0,0,113,83,191c0,0,84,78,212,78c0,0,41,0,84,-9L619,643V822H0L-86,937l32,64H978l85,-115l-32,-64H761L863,749V-31L793,-65Z"
id="f5_c7"
transform="scale(0.001,-0.001)"/>

<path d="M833,530V822H434L539,749V530ZM533,-97L23,405L75,542H284c0,0,2,5,2,280H-10L-97,937l32,64H1193l86,-115l-32,-64H975l102,-73V-31l-70,-34L833,29V333H405L370,309L697,110V41L533,-97Z"
id="f5_cb"
transform="scale(0.001,-0.001)"/>

<path d="M289,-65L115,29V822H0L-86,937l32,64H116c0,0,-99,102,-99,229c0,0,0,128,92,210c0,0,93,82,236,82c0,0,135,0,271,-93c0,0,136,-92,321,-312l-91,-90c0,0,-140,143,-233,209c0,0,-92,66,-187,66c0,0,-85,0,-140,-52c0,0,-55,-51,-55,-129c0,0,0,-64,36,-120H463L548,886L516,822H257L359,749V-31L289,-65Z"
id="f5_nr"
transform="scale(0.001,-0.001)"/>

<path d="M545,-97L35,405L87,542H295c0,0,1,5,1,280H0L-86,937l32,64H729L814,886L782,822H445L550,749V547c0,0,0,-75,-41,-127c0,0,-41,-52,-129,-111L709,110V41L545,-97Z"
id="f5_c1"
transform="scale(0.001,-0.001)"/>

<path d="M368,290c0,0,83,0,161,44c0,0,78,43,116,117V822H382c0,0,136,-107,136,-225c0,0,0,-74,-55,-131c0,0,-55,-57,-165,-83c0,0,15,-48,44,-91l26,-2ZM819,-65L645,29V139c0,0,-60,-31,-130,-31c0,0,-145,0,-279,109c0,0,-134,108,-208,287l29,78c0,0,128,15,181,43c0,0,54,27,54,73c0,0,0,61,-96,124H0L-86,937l32,64H1004l87,-115l-32,-64H787L889,749V-31L819,-65Z"
id="f5_c0"
transform="scale(0.001,-0.001)"/>

<path d="M277,-65L102,29V822H0L-86,937l32,64H86L18,1111c0,0,-67,122,-168,122c0,0,-81,0,-202,-80l-128,250c0,0,122,77,232,77c0,0,196,0,356,-250L252,1001H463L548,886L516,822H244L347,749V-31L277,-65Z"
id="f5_d8"
transform="scale(0.001,-0.001)"/>

<path d="M959,-49L869,8V367c0,0,-32,-13,-64,-13c0,0,-50,0,-110,25c0,0,23,-52,23,-109c0,0,0,-103,-70,-170c0,0,-70,-66,-182,-66c0,0,-110,0,-222,82c0,0,-111,83,-213,293l68,42c0,0,72,-155,152,-231c0,0,81,-76,178,-76c0,0,83,0,131,49c0,0,48,48,48,117c0,0,0,54,-30,100c0,0,-31,47,-91,65L325,391L257,512c0,0,68,53,156,56c0,0,140,72,140,179c0,0,0,69,-52,99c0,0,-4,1,-11,1c-19,0,-66,-4,-123,-30c0,0,-78,-35,-142,-96L150,823c0,0,119,117,253,117c0,0,98,0,175,-71c0,0,77,-70,77,-159c0,0,0,-103,-94,-180c0,0,39,-23,73,-56c0,0,52,-22,109,-22c0,0,77,0,126,38V822H727l-46,76l14,31h439l45,-76l-13,-31H930l66,-58V-39L959,-49Z"
id="f6_al"
transform="scale(0.001,-0.001)"/>

<path d="M527,-71L52,414l34,92H277c0,0,12,32,12,72V822H0l-45,76l14,31H599l46,-76L631,822H350l66,-55V564c0,0,0,-96,-152,-248L610,34L611,8L527,-71Z"
id="f6_c1"
transform="scale(0.001,-0.001)"/>

<path d="M-214,863l-199,281c0,0,-70,92,-157,92c0,0,-69,0,-159,-58l-72,118c0,0,89,73,180,73c0,0,141,0,258,-170L-155,901l-59,-38Z"
id="f6_d4"
transform="scale(0.001,-0.001)"/>

<path d="M252,385l310,78l22,-9c0,0,107,-43,200,-43c0,0,91,0,151,41V822H603l66,-58V585H373c0,0,-184,0,-184,-99c0,0,0,-48,63,-101ZM483,-305L295,-10c0,0,-90,22,-156,74l41,170h66L351,63c0,0,126,4,207,62c0,0,82,58,82,139c0,0,0,37,-18,71L365,266c0,0,-110,15,-197,102c0,0,-87,87,-87,176c0,0,0,69,59,117c0,0,59,48,172,48H550V822H0l-45,76l14,31H1199l46,-76l-14,-31H996l66,-58V-39l-37,-10L935,8V318c0,0,-41,-15,-78,-15c0,0,-52,0,-131,30c0,0,32,-55,32,-111c0,0,0,-109,-98,-179c0,0,-98,-69,-254,-69L599,-216L483,-305Z"
id="f6_bh"
transform="scale(0.001,-0.001)"/>

<path d="M228,-49L138,8V822H0l-45,76l14,31H138c0,0,-109,342,-284,342c0,0,-62,0,-102,-40c0,0,-40,-39,-40,-93c0,0,0,-61,51,-134l-42,-32c0,0,-128,113,-128,226c0,0,0,79,60,136c0,0,61,56,154,56c0,0,137,0,249,-125c0,0,112,-125,169,-336H402l46,-76L434,822H199l65,-58V-39L228,-49Z"
id="f6_cv"
transform="scale(0.001,-0.001)"/>

<path d="M342,324c0,0,45,0,75,34c0,0,31,33,31,100V822H165l66,-58V390c0,0,32,-66,111,-66ZM853,-49L762,8V822H509l65,-58V455c0,0,0,-134,-51,-185c0,0,-52,-52,-127,-52c0,0,-98,0,-195,99c0,0,-97,99,-97,209V822H0l-45,76l14,31H1027l46,-76l-14,-31H823l66,-58V-39L853,-49Z"
id="f6_bo"
transform="scale(0.001,-0.001)"/>

<path d="M228,-49L138,8V822H0l-45,76l14,31H402l46,-76L434,822H199l65,-58V-39L228,-49Z"
id="f6_ct"
transform="scale(0.001,-0.001)"/>

<path d="M92,380L46,457l14,30H448l45,-76L480,380Z"
id="f6_pd"
transform="scale(0.001,-0.001)"/>

<path d="M434,225c0,0,84,0,169,42c0,0,85,43,126,126V822H267c0,0,-64,-49,-64,-115c0,0,0,-79,90,-126c0,0,60,35,144,35l67,-6l75,-89L564,490l-51,7H493c0,0,-90,0,-142,-43c0,0,-52,-43,-52,-104c0,0,0,-60,51,-109c0,0,33,-16,84,-16ZM819,-49L729,8V197c0,0,-83,-76,-202,-76c0,0,-130,0,-237,91c0,0,-108,92,-108,196c0,0,0,72,53,128c0,0,-75,42,-115,97c0,0,-41,56,-41,113c0,0,0,38,22,76H0l-45,76l14,31H993l46,-76l-14,-31H790l66,-58V-39L819,-49Z"
id="f6_bc"
transform="scale(0.001,-0.001)"/>

<path d="M-234,-413c0,0,-210,0,-488,322l54,49c0,0,119,-128,209,-193c0,0,90,-65,177,-65c0,0,72,0,113,40c0,0,42,39,42,91c0,0,0,75,-78,106L-323,-181l-90,98c0,0,63,95,167,95c0,0,90,0,155,-69c0,0,66,-70,66,-164c0,0,0,-85,-60,-139c0,0,-61,-53,-149,-53Z"
id="f6_cw"
transform="scale(0.001,-0.001)"/>

<path d="M-233,1021c0,0,-84,0,-168,55c0,0,-84,56,-146,162l51,50c0,0,95,-162,219,-162c0,0,125,0,160,157L-7,1234c0,0,-21,-103,-81,-158c0,0,-61,-55,-145,-55Zm-41,201c0,0,-66,25,-102,80c0,0,32,68,82,101c0,0,55,-20,99,-80c0,0,-26,-67,-79,-101Z"
id="f6_di"
transform="scale(0.001,-0.001)"/>

<path d="M689,445V822H286l65,-58l8,-319ZM779,-49L689,8V328H370V180L296,150c0,0,-56,35,-120,104c0,0,-63,70,-89,131l41,60H238L223,822H0l-45,76l14,31H953l46,-76L985,822H750l66,-58V-39L779,-49Z"
id="f6_bz"
transform="scale(0.001,-0.001)"/>

<path d="M347,-57C347,-57,66,211,66,394c0,0,0,98,74,164c0,0,74,65,225,65H616V822H0l-45,76l14,31H880l46,-76L912,822H677l66,-58V-39L706,-49L616,8V500H428c0,0,-239,0,-239,-161c0,0,0,-136,214,-343L347,-57Z"
id="f6_bp"
transform="scale(0.001,-0.001)"/>

<path d="M228,-49L138,8V822H0l-45,76l14,31H134c0,0,-91,93,-91,202c0,0,0,105,85,170c0,0,86,65,236,65c0,0,340,0,742,-350l-50,-46c0,0,-182,135,-340,208c0,0,-158,73,-302,73c0,0,-113,0,-183,-48c0,0,-69,-48,-69,-132c0,0,0,-63,53,-142H402l46,-76L434,822H199l65,-58V-39L228,-49Z"
id="f6_nt"
transform="scale(0.001,-0.001)"/>

<path d="M180,196c0,0,-105,99,-162,238l63,72H573l40,-86L591,390H254V225L180,196ZM0,822l-45,76l14,31H409l46,-76L442,822Z"
id="f6_lj"
transform="scale(0.001,-0.001)"/>

<path d="M675,-274L602,21C602,21,550,3,498,3C498,3,347,3,210,118C210,118,73,232,73,373c0,0,0,113,84,184c0,0,84,71,222,72H524V822H0l-45,76l14,31H834l46,-76L866,822H585l66,-58V504l-3,2l3,-3H408c0,0,-95,0,-154,-53c0,0,-58,-53,-58,-132c0,0,0,-49,27,-100c0,0,28,-50,83,-84c0,0,44,-15,96,-15c0,0,91,0,160,46L535,303l101,48L773,188c0,0,-8,-28,-34,-66c0,0,-27,-38,-62,-64L813,-221L675,-274Z"
id="f6_br"
transform="scale(0.001,-0.001)"/>

<path d="M348,229c0,0,57,0,106,17L263,559c0,0,-95,-50,-95,-162c0,0,0,-75,52,-136c0,0,49,-32,128,-32Zm170,48c0,0,61,38,96,91V504c0,0,-131,80,-244,80l-35,-2L518,277ZM704,-49L614,8V193c0,0,-84,-65,-192,-65c0,0,-139,0,-255,98c0,0,-115,98,-115,226c0,0,0,106,77,175c0,0,77,70,189,70c0,0,38,0,75,-9L614,578V822H0l-45,76l14,31H878l46,-76L911,822H675l66,-58V-39L704,-49Z"
id="f6_bx"
transform="scale(0.001,-0.001)"/>

<path d="M845,-49L755,8V513H497c0,0,61,-45,93,-110c0,0,33,-64,33,-128c0,0,0,-90,-58,-144c0,0,-59,-53,-143,-53c0,0,-133,0,-234,139C188,217,87,356,20,596l76,24c0,0,60,-201,127,-306c0,0,67,-105,160,-105c0,0,57,0,91,36c0,0,33,36,33,91c0,0,0,84,-73,159L295,558v71H755V822H0l-45,76l14,31H1019l46,-76l-14,-31H816l66,-58V-39L845,-49Z"
id="f6_bg"
transform="scale(0.001,-0.001)"/>

<path d="M228,-49L138,8V822H0l-45,76l14,31H119L-33,1144c0,0,-70,92,-157,92c0,0,-69,0,-159,-58l-72,118c0,0,89,73,181,73c0,0,140,0,257,-170L205,929H402l46,-76L434,822H199l65,-58V-39L228,-49Z"
id="f6_d8"
transform="scale(0.001,-0.001)"/>

<path d="M487,-7c0,0,-88,0,-185,46c0,0,-97,47,-163,130c0,0,-66,83,-66,185c0,0,0,109,80,177c0,0,79,68,234,68H504V822H0l-45,76l14,31H827l45,-76L859,822H565l66,-58V474l-3,1l3,-3H396c0,0,-100,0,-152,-47c0,0,-53,-48,-53,-119c0,0,0,-104,93,-178c0,0,60,-20,118,-20c0,0,81,0,156,36c0,0,76,35,123,99l92,-99C773,144,723,70,645,31C645,31,567,-7,487,-7Z"
id="f6_bk"
transform="scale(0.001,-0.001)"/>

<path d="M823,-49L733,8V339H445V191L371,160c0,0,-56,36,-120,105c0,0,-63,70,-89,131l41,59H313V735c0,0,0,99,-55,140c0,0,-3,1,-8,1c-16,0,-48,-3,-71,-23c0,0,-31,-26,-31,-66c0,0,0,-69,81,-113L189,620C189,620,31,720,31,828c0,0,0,61,45,99c0,0,46,37,109,37c0,0,96,0,173,-86c0,0,76,-87,79,-194V455H733V822H556l-46,76l14,31H998l45,-76l-13,-31H794l66,-58V-39L823,-49Z"
id="f6_by"
transform="scale(0.001,-0.001)"/>

<path d="M527,-71L52,414l34,92H277c0,0,12,32,12,72V822H0l-45,76l14,31H940l45,-76L972,822H350l66,-55V553c0,0,24,52,77,83c0,0,52,30,112,30c0,0,87,0,171,-76c0,0,84,-75,222,-304L938,244L828,411c0,0,-95,134,-195,134c0,0,-63,0,-100,-35c0,0,-36,-36,-36,-87c0,0,0,-50,42,-87l152,99L755,315c0,0,-71,-61,-148,-61c0,0,-80,0,-146,66c0,0,-65,67,-65,164c0,0,-34,-70,-132,-168L610,34L611,8L527,-71Z"
id="f6_n1"
transform="scale(0.001,-0.001)"/>

<path d="M959,-49L869,8V367c0,0,-32,-13,-64,-13c0,0,-50,0,-110,25c0,0,23,-52,23,-109c0,0,0,-103,-70,-170c0,0,-70,-66,-182,-66c0,0,-110,0,-222,82c0,0,-111,83,-213,293l68,42c0,0,72,-155,152,-231c0,0,81,-76,178,-76c0,0,83,0,131,49c0,0,48,48,48,117c0,0,0,54,-30,100c0,0,-31,47,-91,65L325,391L257,512c0,0,68,53,156,56c0,0,140,72,140,179c0,0,0,69,-52,99c0,0,-4,1,-11,1c-19,0,-66,-4,-123,-30c0,0,-78,-35,-142,-96L150,823c0,0,119,117,253,117c0,0,98,0,175,-71c0,0,77,-70,77,-159c0,0,0,-103,-94,-180c0,0,39,-23,73,-56c0,0,52,-22,109,-22c0,0,77,0,126,38V822H727l-46,76l14,31h558l-153,215c0,0,-70,92,-157,92c0,0,-69,0,-159,-58l-72,118c0,0,89,73,180,73c0,0,141,0,258,-170L1338,929h197l46,-76l-13,-31H1332l66,-58V-39l-37,-10L1271,8V822H930l66,-58V-39L959,-49Z"
id="f6_b1"
transform="scale(0.001,-0.001)"/>

<path d="M283,260c0,0,122,0,209,113V513c0,0,-90,51,-160,51c0,0,-80,0,-129,-50c0,0,-49,-50,-49,-118c0,0,0,-60,35,-110c0,0,45,-26,94,-26ZM582,-49L492,8V211c0,0,-63,-54,-141,-54c0,0,-113,0,-213,92c0,0,-100,92,-100,205c0,0,0,93,69,157c0,0,69,64,162,64c0,0,32,0,64,-9L492,590V822H0l-45,76l14,31H1108l45,-76l-13,-31H553l66,-58V524c0,0,91,89,192,89c0,0,98,0,171,-79c0,0,72,-79,72,-186c0,0,0,-178,-224,-330L736,124c0,0,219,153,219,269c0,0,0,44,-26,75c0,0,-26,32,-81,32c0,0,-109,0,-229,-155V-39L582,-49Z"
id="f6_b9"
transform="scale(0.001,-0.001)"/>

<path d="M663,-49L573,8V445H299V280L226,251c0,0,-105,99,-162,238l63,72H573V822H0l-45,76l14,31H837l46,-76L869,822H634l66,-58V-39L663,-49Z"
id="f6_bt"
transform="scale(0.001,-0.001)"/>

<path d="M325,240c0,0,77,0,154,35c0,0,77,35,120,99V500c0,0,-118,73,-222,73c0,0,-97,0,-151,-54c0,0,-53,-53,-53,-128c0,0,0,-73,49,-125c0,0,38,-26,103,-26ZM689,-49L599,8V199c0,0,-73,-65,-179,-65c0,0,-134,0,-252,96c0,0,-118,95,-118,221c0,0,0,102,78,171c0,0,78,69,190,69c0,0,38,0,75,-10L599,582V822H0l-45,76l14,31H863l46,-76L895,822H660l66,-58V-39L689,-49Z"
id="f6_c7"
transform="scale(0.001,-0.001)"/>

<path d="M799,475V822H350l66,-55V564c0,0,0,-43,-25,-89ZM527,-71L52,414l34,92H277c0,0,12,32,12,72V822H0l-45,76l14,31H1063l46,-76l-14,-31H860l66,-58V-39L889,-49L799,8V370H315L264,316L610,34L611,8L527,-71Z"
id="f6_cb"
transform="scale(0.001,-0.001)"/>

<path d="M228,-49L138,8V822H0l-45,76l14,31H133c0,0,-93,95,-93,206c0,0,0,96,68,159c0,0,68,63,179,63c0,0,118,0,228,-81c0,0,110,-80,258,-262L720,970L588,1109c0,0,-133,133,-253,133c0,0,-78,0,-127,-46c0,0,-49,-46,-49,-119c0,0,0,-69,56,-148H402l46,-76L434,822H199l65,-58V-39L228,-49Z"
id="f6_nr"
transform="scale(0.001,-0.001)"/>

<path d="M374,248c0,0,77,0,149,36c0,0,71,37,110,107V822H284c0,0,138,-96,138,-208c0,0,0,-151,-228,-192c0,0,29,-104,89,-158c0,0,41,-16,91,-16ZM723,-49L633,8V200c0,0,-69,-56,-170,-56c0,0,-122,0,-240,94c0,0,-118,94,-179,237l20,55c0,0,133,17,187,44c0,0,55,28,55,84c0,0,0,45,-30,81c0,0,-30,36,-99,83H0l-45,76l14,31H897l46,-76L929,822H694l65,-58V-39L723,-49Z"
id="f6_c0"
transform="scale(0.001,-0.001)"/>

<path d="M226,-49c0,0,-66,24,-102,78c0,0,32,69,82,101c0,0,55,-20,100,-80c0,0,-26,-66,-80,-99Z"
id="f6_pc"
transform="scale(0.001,-0.001)"/>

<path d="M290,-236c0,0,-253,348,-253,685c0,0,0,342,270,669l80,-39c0,0,-207,-311,-207,-622c0,0,0,-326,193,-652l-83,-41Z"
id="f6_g"
transform="scale(0.001,-0.001)"/>

<path d="M228,-49L138,8V822H0l-45,76l14,31H134c0,0,-91,93,-91,200c0,0,0,109,92,174c0,0,93,66,253,66c0,0,186,0,398,-89c0,0,212,-90,430,-264l-49,-47c0,0,-424,285,-727,285c0,0,-125,0,-201,-49c0,0,-76,-48,-76,-137c0,0,0,-67,52,-139H402l46,-76L434,822H199l65,-58V-39L228,-49Z"
id="f6_nu"
transform="scale(0.001,-0.001)"/>

<path d="M688,-243c0,0,-256,53,-408,173c0,0,-152,119,-152,270c0,0,0,101,68,171c0,0,-101,84,-101,179c0,0,0,64,53,112c0,0,54,47,191,47H587V822H0l-45,76l14,31H830l45,-76L862,822H640l66,-58V585H362c0,0,-159,-1,-159,-92c0,0,0,-41,46,-80c0,0,76,47,183,47c0,0,135,0,230,-76c0,0,96,-75,96,-187C758,197,758,67,629,2L545,104c0,0,49,30,81,75c0,0,32,44,32,82c0,0,0,16,-4,26c0,0,-64,58,-167,58c0,0,-97,0,-166,-50v-2c0,0,-67,-52,-67,-131c0,0,0,-116,132,-199c0,0,132,-84,334,-132l-32,-74Z"
id="f6_cc"
transform="scale(0.001,-0.001)"/>

<path d="M228,-49L138,8V822H0l-45,76l14,31H70L-65,1033c0,0,-90,65,-157,65c0,0,-67,0,-151,-53l-72,118c0,0,78,65,163,65c0,0,116,0,246,-120L153,930L46,1201c0,0,-71,166,-187,166c0,0,-52,0,-128,-33l-60,125c0,0,78,46,159,46c0,0,193,0,283,-271L215,929H402l46,-76L434,822H199l65,-58V-39L228,-49Z"
id="f6_d9"
transform="scale(0.001,-0.001)"/>

<path d="M413,-59C413,-59,53,193,53,416c0,0,0,97,66,164c0,0,66,66,156,66c0,0,61,0,110,-30L487,507c0,0,92,126,257,126l35,-2V822H0l-45,76l14,31H1043l46,-76l-13,-31H840l66,-58V-39L869,-49L779,8V547c0,0,-101,-5,-165,-90c0,0,-64,-86,-70,-222L507,225l-90,73c0,0,5,79,35,151c0,0,-59,66,-128,66c0,0,-57,0,-100,-38c0,0,-44,-39,-44,-109c0,0,0,-165,284,-360L413,-59Z"
id="f6_c3"
transform="scale(0.001,-0.001)"/>

<path d="M130,-236l-83,41c0,0,193,326,193,652c0,0,0,311,-206,622l79,39c0,0,270,-327,270,-669c0,0,0,-337,-253,-685Z"
id="f6_h"
transform="scale(0.001,-0.001)"/>

<path d="M-91,1001c0,0,-27,10,-61,36c0,0,-33,26,-50,49c0,0,38,81,90,110c0,0,61,-23,107,-85c0,0,-28,-71,-86,-110ZM-214,863l-199,281c0,0,-70,92,-157,92c0,0,-69,0,-159,-58l-72,118c0,0,89,73,180,73c0,0,141,0,258,-170L-155,901l-59,-38Z"
id="f6_oz"
transform="scale(0.001,-0.001)"/>

<path d="M388,325c0,0,58,0,112,31c0,0,53,31,84,86V822H165l69,-58V408c0,0,47,-83,154,-83ZM674,-49L584,8V257c0,0,-61,-51,-141,-51c0,0,-125,0,-232,109c0,0,-107,108,-107,243V822H0l-45,76l14,31H848l46,-76L880,822H645l65,-58V-39L674,-49Z"
id="f6_bv"
transform="scale(0.001,-0.001)"/>

<path d="M548,-57c0,0,-122,0,-243,81c0,0,-122,81,-252,280l57,41C110,345,283,64,498,64c0,0,92,0,153,49c0,0,61,49,61,121c0,0,0,46,-28,84L440,237c0,0,-73,11,-139,55c0,0,-66,44,-105,105c0,0,-40,61,-40,119c0,0,0,72,62,125c0,0,62,53,184,53H625V822H0l-45,76l14,31H906l46,-76L938,822H678l66,-58V562H431c0,0,-164,0,-164,-99c0,0,0,-55,57,-102l261,82c0,0,104,-21,172,-98c0,0,68,-78,68,-171c0,0,0,-99,-76,-166c0,0,-77,-65,-201,-65Z"
id="f6_bm"
transform="scale(0.001,-0.001)"/>

<path d="M727,-49L637,8V822H278l66,-58V226L270,196c0,0,-64,36,-122,98c0,0,-58,62,-79,122l43,59H217V822H0l-45,76l14,31H901l46,-76L933,822H698l66,-58V-39L727,-49Z"
id="f6_bb"
transform="scale(0.001,-0.001)"/>

<path d="M228,-49L138,8V822H0l-45,76l14,31H134c0,0,-91,92,-91,191c0,0,0,105,85,170c0,0,84,65,219,65c0,0,128,0,293,-76c0,0,165,-77,362,-263L958,966c0,0,-177,143,-303,210c0,0,-125,68,-244,68c0,0,-107,0,-175,-50c0,0,-68,-50,-68,-131c0,0,0,-61,49,-134H402l46,-76L434,822H199l65,-58V-39L228,-49Z"
id="f6_cu"
transform="scale(0.001,-0.001)"/>

<path d="M761,293c0,0,127,0,169,94V532c0,0,-68,46,-145,46c0,0,-76,0,-121,-46c0,0,-45,-45,-45,-107c0,0,0,-61,44,-110c0,0,47,-22,98,-22ZM657,67c0,0,166,0,273,107v55c0,0,-45,-36,-111,-36c0,0,-110,0,-207,90c0,0,-97,90,-97,194c0,0,0,85,66,148c0,0,65,63,155,63l48,-5L930,603V822H376l62,-55V579c0,0,0,-60,-23,-102c0,0,-24,-42,-148,-190c0,0,66,-104,175,-162c0,0,108,-58,215,-58ZM1021,-49L930,8V53c0,0,-105,-83,-264,-83c0,0,-177,0,-339,128C327,98,165,226,90,429l34,77H296c0,0,19,39,19,102l-2,214H0l-45,76l14,31H1195l46,-76l-14,-31H992l65,-58V-39l-36,-10Z"
id="f6_ba"
transform="scale(0.001,-0.001)"/>

<path d="M513,460c0,0,61,81,61,179c0,0,0,87,-45,143c0,0,-45,57,-116,57c0,0,-63,0,-102,-43c0,0,-39,-43,-39,-110c0,0,0,-90,68,-151c0,0,68,-61,173,-75ZM581,-83L278,167l-41,-4c0,0,-99,0,-130,37l47,168l51,12l78,-79c0,0,110,40,183,105c0,0,-141,23,-231,107c0,0,-90,84,-90,193c0,0,0,69,37,116H0l-45,76l14,31H1134l45,-76l-13,-31H930l66,-58V-39L959,-49L869,8V822H588c0,0,51,-44,75,-109c0,0,25,-64,25,-122c0,0,0,-105,-81,-213c0,0,-80,-108,-240,-176L658,18l2,-25L581,-83Z"
id="f6_c8"
transform="scale(0.001,-0.001)"/>

<path d="M0,1062c0,0,-26,11,-60,36c0,0,-34,26,-51,49c0,0,39,81,91,110c0,0,60,-23,106,-85c0,0,-28,-70,-86,-110Z"
id="f6_dj"
transform="scale(0.001,-0.001)"/>

<path d="M500,44c0,0,78,0,152,57c0,0,75,56,98,134V350c0,0,-130,0,-223,-64c0,0,-93,-63,-93,-148c0,0,0,-54,43,-92l23,-2ZM321,561c0,0,66,46,101,105c0,0,36,60,36,113c0,0,0,28,-9,48c0,0,-35,41,-87,41c0,0,-50,0,-89,-38c0,0,-39,-39,-39,-100c0,0,0,-94,87,-169ZM840,-111l-90,59V32c0,0,-69,-68,-156,-68c0,0,-97,0,-187,64c0,0,-89,64,-89,146c0,0,0,61,48,123c0,0,48,62,141,94c0,0,-69,20,-140,57L105,272L20,364L260,519c0,0,-144,118,-144,246c0,0,0,81,57,140c0,0,56,59,140,59c0,0,96,0,171,-79c0,0,75,-78,75,-168c0,0,0,-118,-133,-222c0,0,107,-44,232,-44l92,6V822H628l-46,76l14,31h418l46,-76l-13,-31H811l66,-58V-100l-37,-11Z"
id="f6_ke"
transform="scale(0.001,-0.001)"/>

<path d="M959,-49L869,8V367c0,0,-32,-13,-64,-13c0,0,-50,0,-110,25c0,0,23,-52,23,-109c0,0,0,-103,-70,-170c0,0,-70,-66,-182,-66c0,0,-110,0,-222,82c0,0,-111,83,-213,293l68,42c0,0,72,-155,152,-231c0,0,81,-76,178,-76c0,0,83,0,131,49c0,0,48,48,48,117c0,0,0,54,-30,100c0,0,-31,47,-91,65L325,391L257,512c0,0,68,53,156,56c0,0,140,72,140,179c0,0,0,69,-52,99c0,0,-4,1,-11,1c-19,0,-66,-4,-123,-30c0,0,-78,-35,-142,-96L150,823c0,0,119,117,253,117c0,0,98,0,175,-71c0,0,77,-70,77,-159c0,0,0,-103,-94,-180c0,0,39,-23,73,-56c0,0,52,-22,109,-22c0,0,77,0,126,38V822H727l-46,76l14,31h840l46,-76l-13,-31H1332l66,-58V-39l-37,-10L1271,8V822H930l66,-58V-39L959,-49Z"
id="f6_am"
transform="scale(0.001,-0.001)"/>

<path d="M953,-525L785,-306c0,0,-99,119,-191,119c0,0,-59,0,-96,-34c0,0,-37,-35,-37,-82c0,0,0,-49,43,-83l151,95l65,-116c0,0,-71,-58,-149,-58c0,0,-79,0,-145,63c0,0,-65,64,-65,145c0,0,0,76,61,130c0,0,62,55,143,55c0,0,40,0,77,-14L605,37C605,37,552,18,498,18c0,0,-151,0,-288,115C210,133,73,248,73,388c0,0,0,113,84,184c0,0,84,71,222,73H524V822H0l-45,76l14,31H842l46,-76L874,822H567l84,-73V519l-3,2l3,-3H408c0,0,-93,0,-153,-52c0,0,-59,-52,-59,-128c0,0,0,-121,110,-188c0,0,53,-17,105,-17c0,0,92,0,153,43L535,318l101,49L773,203c0,0,-20,-67,-87,-122l75,-247c0,0,81,-76,249,-319l-57,-40Z"
id="f6_mw"
transform="scale(0.001,-0.001)"/>

<path d="M270,196c0,0,-64,36,-122,98c0,0,-58,62,-79,122l43,59H217V822H0l-45,76l14,31H489l46,-76L521,822H278l66,-58V226L270,196Z"
id="f6_l4"
transform="scale(0.001,-0.001)"/>

<path d="M717,-303L633,35L234,-230l-84,77L437,24c0,0,-144,23,-243,128c0,0,-99,105,-99,222c0,0,0,112,84,183c0,0,84,71,221,72H545V822H21l-44,76l13,31H863l46,-76L895,822H607l65,-58V504l-3,2l3,-3H429c0,0,-94,0,-153,-53c0,0,-59,-53,-59,-132c0,0,0,-49,27,-100c0,0,28,-50,83,-84c0,0,44,-15,95,-15c0,0,90,0,162,46L556,303l101,48L794,188c0,0,-13,-49,-96,-118L854,-250L717,-303Z"
id="f6_e3"
transform="scale(0.001,-0.001)"/>

<path d="M483,-305L295,-10c0,0,-90,22,-156,74l41,170h66L351,63c0,0,126,4,207,62c0,0,82,58,82,139c0,0,0,37,-18,71L365,266c0,0,-110,15,-197,102c0,0,-87,87,-87,176c0,0,0,69,59,117c0,0,59,48,172,48H550V822H0l-45,76l14,31H550c0,0,-142,122,-142,255c0,0,0,78,52,133c0,0,52,55,140,55c0,0,98,0,176,-64l-23,-69c0,0,-53,32,-104,32c0,0,-56,0,-94,-36c0,0,-39,-36,-39,-95c0,0,0,-109,112,-211H822l46,-76L854,822H603l66,-58V585H373c0,0,-184,0,-184,-99c0,0,0,-48,63,-101l310,78c0,0,86,-34,141,-99c0,0,55,-65,55,-142c0,0,0,-109,-98,-179c0,0,-98,-69,-254,-69L599,-216L483,-305Z"
id="f6_ao"
transform="scale(0.001,-0.001)"/>

<path d="M547,-285c0,0,-66,25,-102,80c0,0,32,69,82,101c0,0,55,-20,99,-80c0,0,-26,-67,-79,-101Zm1,228c0,0,-122,0,-243,81c0,0,-122,81,-252,280l57,41C110,345,283,64,498,64c0,0,92,0,153,49c0,0,61,49,61,121c0,0,0,46,-28,84L440,237c0,0,-73,11,-139,55c0,0,-66,44,-105,105c0,0,-40,61,-40,119c0,0,0,72,62,125c0,0,62,53,184,53H625V822H0l-45,76l14,31H906l46,-76L938,822H678l66,-58V562H431c0,0,-164,0,-164,-99c0,0,0,-55,57,-102l261,82c0,0,104,-21,172,-98c0,0,68,-78,68,-171c0,0,0,-99,-76,-166c0,0,-77,-65,-201,-65Z"
id="f6_ch"
transform="scale(0.001,-0.001)"/>

<path d="M471,-26c0,0,-259,0,-448,396l70,43C93,413,240,98,442,98c0,0,79,0,132,46c0,0,54,45,54,120c0,0,0,61,-38,116c0,0,-38,54,-107,72L322,370L255,492c0,0,66,53,156,56c0,0,128,51,128,153c0,0,0,77,-65,121H0l-45,76l14,31H813l46,-76L845,822H578c0,0,76,-66,76,-157c0,0,0,-95,-87,-156c0,0,84,-48,131,-123c0,0,48,-76,48,-158c0,0,0,-109,-78,-182c0,0,-78,-72,-197,-72Z"
id="f6_ap"
transform="scale(0.001,-0.001)"/>

<path d="M-239,897c0,0,-82,61,-132,137c0,0,-50,75,-50,150c0,0,0,78,52,133c0,0,52,55,141,55c0,0,98,0,176,-64l-23,-69c0,0,-52,32,-104,32c0,0,-57,0,-95,-36c0,0,-38,-36,-38,-95c0,0,0,-115,117,-217l-44,-26Z"
id="f6_dr"
transform="scale(0.001,-0.001)"/>

<path d="M108,-222l-44,58c0,0,96,81,104,164L89,61c0,0,12,83,93,122c0,0,50,-15,79,-55c0,0,29,-39,29,-90c0,0,0,-69,-48,-142c0,0,-48,-72,-134,-118Z"
id="f6_k"
transform="scale(0.001,-0.001)"/>

<path d="M725,307c0,0,-95,0,-218,78c0,0,-123,78,-188,78c0,0,-54,0,-95,-34c0,0,-41,-34,-73,-100L93,362c0,0,38,88,101,146c0,0,63,59,148,59c0,0,90,0,214,-78c0,0,124,-79,188,-79c0,0,63,0,106,34c0,0,42,33,85,104l60,-40c0,0,-32,-66,-101,-134c0,0,-70,-67,-169,-67Z"
id="f7_4r"
transform="scale(0.001,-0.001)"/>

<path d="M225,0c0,0,2,129,51,312c0,0,48,183,139,352c0,0,91,170,193,286H72v129H780V975C780,975,676,864,573,680C573,680,470,495,414,301C414,301,374,163,363,0Z"
id="f8_r"
transform="scale(0.001,-0.001)"/>

<path d="M46,0c0,0,-2,48,16,93c0,0,27,74,88,146c0,0,61,71,176,165c0,0,178,146,241,232c0,0,63,85,63,161c0,0,0,80,-57,135c0,0,-58,55,-149,55c0,0,-98,0,-156,-59c0,0,-58,-58,-59,-160L71,782c0,0,15,154,107,235c0,0,93,81,249,81c0,0,157,0,249,-87c0,0,92,-88,92,-217c0,0,0,-65,-27,-129c0,0,-27,-63,-89,-133c0,0,-62,-70,-207,-193C445,339,324,238,290,202c0,0,-35,-36,-57,-73H770V0Z"
id="f8_m"
transform="scale(0.001,-0.001)"/>


</defs>
</svg>