<?xml version="1.0" encoding="UTF-8" standalone="no"?>
<!DOCTYPE svg PUBLIC "-//W3C//DTD SVG 1.1//EN"
"http://www.w3.org/Graphics/SVG/1.1/DTD/svg11.dtd">
<svg viewBox="0 0 641 910" version="1.1" xmlns="http://www.w3.org/2000/svg" xmlns:xlink="http://www.w3.org/1999/xlink">
<defs>
<clipPath id="c0_43"><path d="M0,909.8V0H641.7V909.8Z"/></clipPath>
<clipPath id="c1_43"><path d="M0,908.6V0H641.7V908.6Z"/></clipPath>
<style type="text/css"><![CDATA[
.g0_43{
fill: #FFFFFF;
}
.g1_43{
}
]]></style>
</defs>
<path d="M0,0H641.7V909.8H0V0Z" class="g0_43"/>
<path d="M0,0H641.7V909.8H0V0Z" class="g0_43"/>
<g clip-path="url(#c0_43)">
<path d="M0,-32752.4H641.7V73693.1H0V-32752.4Z" class="g0_43"/>
</g>
<path d="M0,0H641.7V908.6H0V0Z" class="g0_43"/>
<path d="M19.5,60.7H602.7v1.2H19.5V60.7Z" class="g1_43"/>
<g clip-path="url(#c1_43)">
<path d="M0,61.9H641.7V909.8H0V61.9Z" class="g0_43"/>
<g fill="#000000" >
<use xlink:href="#f5_bz" transform="matrix(14,0,0,14,243.2,96.3)" />
<use xlink:href="#f5_d4" transform="matrix(14,0,0,14,257.8,96.3)" />
<use xlink:href="#f5_c1" transform="matrix(14,0,0,14,257.8,96.3)" />
<use xlink:href="#f5_d4" transform="matrix(14,0,0,14,267.7,96.3)" />
<use xlink:href="#f5_br" transform="matrix(14,0,0,14,273.7,96.3)" />
<use xlink:href="#f5_d8" transform="matrix(14,0,0,14,286.7,96.3)" />
<use xlink:href="#f5_bt" transform="matrix(14,0,0,14,293.2,96.3)" />
<use xlink:href="#f5_d8" transform="matrix(14,0,0,14,306.2,96.3)" />
<use xlink:href="#f5_dj" transform="matrix(14,0,0,14,311.4,96.5)" />
<use xlink:href="#f5_cc" transform="matrix(14,0,0,14,318.4,96.3)" />
<use xlink:href="#f5_ct" transform="matrix(14,0,0,14,331,96.3)" />
<use xlink:href="#f5_no" transform="matrix(14,0,0,14,337.5,96.3)" />
<use xlink:href="#f5_bq" transform="matrix(14,0,0,14,337.5,96.3)" />
<use xlink:href="#f5_d8" transform="matrix(14,0,0,14,351.9,96.3)" />
<use xlink:href="#f5_dj" transform="matrix(14,0,0,14,357,96.5)" />
<use xlink:href="#f5_bz" transform="matrix(14,0,0,14,364,96.3)" />
<use xlink:href="#f5_oz" transform="matrix(14,0,0,14,378.6,96.3)" />
<use xlink:href="#f6_bz" transform="matrix(14,0,0,14,193.9,154.7)" />
<use xlink:href="#f6_d4" transform="matrix(14,0,0,14,207.4,154.7)" />
<use xlink:href="#f6_c1" transform="matrix(14,0,0,14,207.3,154.7)" />
<use xlink:href="#f6_d4" transform="matrix(14,0,0,14,215.3,154.7)" />
<use xlink:href="#f6_br" transform="matrix(14,0,0,14,221.3,154.7)" />
<use xlink:href="#f6_d8" transform="matrix(14,0,0,14,233,154.7)" />
<use xlink:href="#f6_bt" transform="matrix(14,0,0,14,238.6,154.7)" />
<use xlink:href="#f6_d8" transform="matrix(14,0,0,14,250.3,154.7)" />
<use xlink:href="#f6_dj" transform="matrix(14,0,0,14,254.6,155.5)" />
<use xlink:href="#f6_cc" transform="matrix(14,0,0,14,261.6,154.7)" />
<use xlink:href="#f6_ct" transform="matrix(14,0,0,14,273.2,154.7)" />
<use xlink:href="#f6_no" transform="matrix(14,0,0,14,278.9,154.7)" />
<use xlink:href="#f6_bq" transform="matrix(14,0,0,14,278.9,154.7)" />
<use xlink:href="#f6_d8" transform="matrix(14,0,0,14,292,154.7)" />
<use xlink:href="#f6_dj" transform="matrix(14,0,0,14,296.3,155.5)" />
<use xlink:href="#f6_bz" transform="matrix(14,0,0,14,303.3,154.7)" />
<use xlink:href="#f6_oz" transform="matrix(14,0,0,14,316.8,154.7)" />
<use xlink:href="#f6_ay" transform="matrix(14,0,0,14,322.3,154.7)" />
<use xlink:href="#f6_cb" transform="matrix(14,0,0,14,334.2,154.7)" />
<use xlink:href="#f6_cv" transform="matrix(14,0,0,14,349.1,154.7)" />
<use xlink:href="#f6_c3" transform="matrix(14,0,0,14,360.4,154.7)" />
<use xlink:href="#f6_b9" transform="matrix(14,0,0,14,375.1,154.7)" />
<use xlink:href="#f6_oc" transform="matrix(14,0,0,14,390.6,154.7)" />
<use xlink:href="#f6_c1" transform="matrix(14,0,0,14,396.2,154.7)" />
<use xlink:href="#f6_cc" transform="matrix(14,0,0,14,410.2,154.7)" />
<use xlink:href="#f6_d5" transform="matrix(14,0,0,14,422.2,154.7)" />
<use xlink:href="#f6_k" transform="matrix(14,0,0,14,421.8,154.7)" />
<use xlink:href="#f6_br" transform="matrix(14,0,0,14,179.1,187.9)" />
<use xlink:href="#f6_ct" transform="matrix(14,0,0,14,190.7,187.9)" />
<use xlink:href="#f6_br" transform="matrix(14,0,0,14,196.3,187.9)" />
<use xlink:href="#f6_ct" transform="matrix(14,0,0,14,208,187.9)" />
<use xlink:href="#f6_cb" transform="matrix(14,0,0,14,219.3,187.9)" />
<use xlink:href="#f6_d4" transform="matrix(14,0,0,14,234.3,187.9)" />
<use xlink:href="#f6_nt" transform="matrix(14,0,0,14,239.9,187.9)" />
<use xlink:href="#f6_bz" transform="matrix(14,0,0,14,245.5,187.9)" />
<use xlink:href="#f6_c3" transform="matrix(14,0,0,14,258.8,187.9)" />
<use xlink:href="#f6_bt" transform="matrix(14,0,0,14,273.5,187.9)" />
<use xlink:href="#f6_cc" transform="matrix(14,0,0,14,290.9,187.9)" />
<use xlink:href="#f6_d8" transform="matrix(14,0,0,14,302.5,187.9)" />
<use xlink:href="#f6_bb" transform="matrix(14,0,0,14,308.1,187.9)" />
<use xlink:href="#f6_ct" transform="matrix(14,0,0,14,320.7,187.9)" />
<use xlink:href="#f6_bz" transform="matrix(14,0,0,14,332,187.9)" />
<use xlink:href="#f6_d4" transform="matrix(14,0,0,14,345.5,187.9)" />
<use xlink:href="#f6_c1" transform="matrix(14,0,0,14,345.4,187.9)" />
<use xlink:href="#f6_cv" transform="matrix(14,0,0,14,353.7,187.9)" />
<use xlink:href="#f6_bp" transform="matrix(14,0,0,14,365,187.9)" />
<use xlink:href="#f6_b9" transform="matrix(14,0,0,14,377.3,187.9)" />
<use xlink:href="#f6_br" transform="matrix(14,0,0,14,392.8,187.9)" />
<use xlink:href="#f6_ob" transform="matrix(14,0,0,14,404.5,187.9)" />
<use xlink:href="#f6_c1" transform="matrix(14,0,0,14,410.1,187.9)" />
<use xlink:href="#f6_cc" transform="matrix(14,0,0,14,424.2,187.9)" />
<use xlink:href="#f6_d5" transform="matrix(14,0,0,14,436.1,187.9)" />
<use xlink:href="#f6_k" transform="matrix(14,0,0,14,435.8,187.9)" />
<use xlink:href="#f6_nu" transform="matrix(14,0,0,14,143.5,221.1)" />
<use xlink:href="#f6_c3" transform="matrix(14,0,0,14,149.2,221.1)" />
<use xlink:href="#f6_ba" transform="matrix(14,0,0,14,163.9,221.1)" />
<use xlink:href="#f6_ct" transform="matrix(14,0,0,14,180.6,221.1)" />
<use xlink:href="#f6_cc" transform="matrix(14,0,0,14,191.9,221.1)" />
<use xlink:href="#f6_d5" transform="matrix(14,0,0,14,203.8,221.1)" />
<use xlink:href="#f6_ay" transform="matrix(14,0,0,14,209.1,221.1)" />
<use xlink:href="#f6_cb" transform="matrix(14,0,0,14,221,221.1)" />
<use xlink:href="#f6_ct" transform="matrix(14,0,0,14,235.9,221.1)" />
<use xlink:href="#f6_c3" transform="matrix(14,0,0,14,247.2,221.1)" />
<use xlink:href="#f6_d4" transform="matrix(14,0,0,14,262,221.1)" />
<use xlink:href="#f6_ba" transform="matrix(14,0,0,14,261.9,221.1)" />
<use xlink:href="#f6_br" transform="matrix(14,0,0,14,284.3,221.1)" />
<use xlink:href="#f6_ct" transform="matrix(14,0,0,14,295.9,221.1)" />
<use xlink:href="#f6_br" transform="matrix(14,0,0,14,301.6,221.1)" />
<use xlink:href="#f6_ct" transform="matrix(14,0,0,14,313.2,221.1)" />
<use xlink:href="#f6_k" transform="matrix(14,0,0,14,318.8,221.1)" />
<use xlink:href="#f6_nu" transform="matrix(14,0,0,14,329.7,221.1)" />
<use xlink:href="#f6_c3" transform="matrix(14,0,0,14,335.3,221.1)" />
<use xlink:href="#f6_ba" transform="matrix(14,0,0,14,350.1,221.1)" />
<use xlink:href="#f6_ct" transform="matrix(14,0,0,14,366.8,221.1)" />
<use xlink:href="#f6_cc" transform="matrix(14,0,0,14,378.1,221.1)" />
<use xlink:href="#f6_d5" transform="matrix(14,0,0,14,390,221.1)" />
<use xlink:href="#f6_ay" transform="matrix(14,0,0,14,395.3,221.1)" />
<use xlink:href="#f6_cb" transform="matrix(14,0,0,14,407.2,221.1)" />
<use xlink:href="#f6_ct" transform="matrix(14,0,0,14,422.1,221.1)" />
<use xlink:href="#f6_c3" transform="matrix(14,0,0,14,433.4,221.1)" />
<use xlink:href="#f6_d4" transform="matrix(14,0,0,14,448.2,221.1)" />
<use xlink:href="#f6_ba" transform="matrix(14,0,0,14,448.1,221.1)" />
<use xlink:href="#f6_pc" transform="matrix(14,0,0,14,464.8,221.1)" />
<use xlink:href="#f6_pc" transform="matrix(14,0,0,14,469.1,221.1)" />
<use xlink:href="#f6_pc" transform="matrix(14,0,0,14,473.3,221.1)" />
<use xlink:href="#f6_pc" transform="matrix(14,0,0,14,269.6,254.4)" />
<use xlink:href="#f6_pc" transform="matrix(14,0,0,14,273.9,254.4)" />
<use xlink:href="#f6_pc" transform="matrix(14,0,0,14,278.1,254.4)" />
<use xlink:href="#f6_al" transform="matrix(14,0,0,14,282.4,254.4)" />
<use xlink:href="#f6_li" transform="matrix(14,0,0,14,298.3,254.4)" />
<use xlink:href="#f6_bp" transform="matrix(14,0,0,14,304.5,254.4)" />
<use xlink:href="#f6_c1" transform="matrix(14,0,0,14,316.8,254.4)" />
<use xlink:href="#f6_ct" transform="matrix(14,0,0,14,325.2,254.4)" />
<use xlink:href="#f6_8l" transform="matrix(14,0,0,14,330.8,254.4)" />
<use xlink:href="#f6_nu" transform="matrix(14,0,0,14,168.7,287.6)" />
<use xlink:href="#f6_c3" transform="matrix(14,0,0,14,174.4,287.6)" />
<use xlink:href="#f6_ba" transform="matrix(14,0,0,14,189.1,287.6)" />
<use xlink:href="#f6_bp" transform="matrix(14,0,0,14,205.8,287.6)" />
<use xlink:href="#f6_ct" transform="matrix(14,0,0,14,218.1,287.6)" />
<use xlink:href="#f6_cc" transform="matrix(14,0,0,14,229.4,287.6)" />
<use xlink:href="#f6_d5" transform="matrix(14,0,0,14,241.3,287.6)" />
<use xlink:href="#f6_nu" transform="matrix(14,0,0,14,246.7,287.6)" />
<use xlink:href="#f6_c3" transform="matrix(14,0,0,14,252.3,287.6)" />
<use xlink:href="#f6_ba" transform="matrix(14,0,0,14,267,287.6)" />
<use xlink:href="#f6_bt" transform="matrix(14,0,0,14,283.7,287.6)" />
<use xlink:href="#f6_d4" transform="matrix(14,0,0,14,295.6,287.6)" />
<use xlink:href="#f6_c7" transform="matrix(14,0,0,14,295.4,287.6)" />
<use xlink:href="#f6_ct" transform="matrix(14,0,0,14,307.5,287.6)" />
<use xlink:href="#f6_c3" transform="matrix(14,0,0,14,313.1,287.6)" />
<use xlink:href="#f6_ct" transform="matrix(14,0,0,14,327.8,287.6)" />
<use xlink:href="#f6_cb" transform="matrix(14,0,0,14,339.1,287.6)" />
<use xlink:href="#f6_d8" transform="matrix(14,0,0,14,354,287.6)" />
<use xlink:href="#f6_be" transform="matrix(14,0,0,14,359.6,287.6)" />
<use xlink:href="#f6_cb" transform="matrix(14,0,0,14,379.3,287.6)" />
<use xlink:href="#f6_bz" transform="matrix(14,0,0,14,394.1,287.6)" />
<use xlink:href="#f6_bh" transform="matrix(14,0,0,14,407.5,287.6)" />
<use xlink:href="#f6_b9" transform="matrix(14,0,0,14,424.3,287.6)" />
<use xlink:href="#f6_c1" transform="matrix(14,0,0,14,439.8,287.6)" />
<use xlink:href="#f6_k" transform="matrix(14,0,0,14,448.1,287.6)" />
<use xlink:href="#f6_nt" transform="matrix(14,0,0,14,171,320.8)" />
<use xlink:href="#f6_bz" transform="matrix(14,0,0,14,176.7,320.8)" />
<use xlink:href="#f6_c3" transform="matrix(14,0,0,14,190,320.8)" />
<use xlink:href="#f6_bt" transform="matrix(14,0,0,14,204.7,320.8)" />
<use xlink:href="#f6_ct" transform="matrix(14,0,0,14,216.4,320.8)" />
<use xlink:href="#f6_cu" transform="matrix(14,0,0,14,227.7,320.8)" />
<use xlink:href="#f6_bx" transform="matrix(14,0,0,14,233.3,320.8)" />
<use xlink:href="#f6_bf" transform="matrix(14,0,0,14,245.6,320.8)" />
<use xlink:href="#f6_ch" transform="matrix(14,0,0,14,261.3,320.8)" />
<use xlink:href="#f6_bt" transform="matrix(14,0,0,14,274,320.8)" />
<use xlink:href="#f6_ct" transform="matrix(14,0,0,14,285.7,320.8)" />
<use xlink:href="#f6_br" transform="matrix(14,0,0,14,297,320.8)" />
<use xlink:href="#f6_ct" transform="matrix(14,0,0,14,308.7,320.8)" />
<use xlink:href="#f6_br" transform="matrix(14,0,0,14,314.3,320.8)" />
<use xlink:href="#f6_ct" transform="matrix(14,0,0,14,326,320.8)" />
<use xlink:href="#f6_cc" transform="matrix(14,0,0,14,337.3,320.8)" />
<use xlink:href="#f6_d8" transform="matrix(14,0,0,14,348.9,320.8)" />
<use xlink:href="#f6_bb" transform="matrix(14,0,0,14,354.5,320.8)" />
<use xlink:href="#f6_ct" transform="matrix(14,0,0,14,367.1,320.8)" />
<use xlink:href="#f6_cb" transform="matrix(14,0,0,14,378.4,320.8)" />
<use xlink:href="#f6_bz" transform="matrix(14,0,0,14,393.3,320.8)" />
<use xlink:href="#f6_c0" transform="matrix(14,0,0,14,406.6,320.8)" />
<use xlink:href="#f6_bv" transform="matrix(14,0,0,14,424.8,320.8)" />
<use xlink:href="#f6_c1" transform="matrix(14,0,0,14,436.7,320.8)" />
<use xlink:href="#f6_k" transform="matrix(14,0,0,14,445.1,320.8)" />
<use xlink:href="#f6_an" transform="matrix(14,0,0,14,149.3,354.1)" />
<use xlink:href="#f6_cb" transform="matrix(14,0,0,14,160.8,354.1)" />
<use xlink:href="#f6_bz" transform="matrix(14,0,0,14,175.6,354.1)" />
<use xlink:href="#f6_oz" transform="matrix(14,0,0,14,189.1,354.1)" />
<use xlink:href="#f6_nt" transform="matrix(14,0,0,14,194.6,354.1)" />
<use xlink:href="#f6_bz" transform="matrix(14,0,0,14,200.3,354.1)" />
<use xlink:href="#f6_bt" transform="matrix(14,0,0,14,213.6,354.1)" />
<use xlink:href="#f6_bt" transform="matrix(14,0,0,14,231,354.1)" />
<use xlink:href="#f6_bz" transform="matrix(14,0,0,14,248.4,354.1)" />
<use xlink:href="#f6_d4" transform="matrix(14,0,0,14,261.8,354.1)" />
<use xlink:href="#f6_ba" transform="matrix(14,0,0,14,261.7,354.1)" />
<use xlink:href="#f6_k" transform="matrix(14,0,0,14,278.4,354.1)" />
<use xlink:href="#f6_br" transform="matrix(14,0,0,14,289.3,354.1)" />
<use xlink:href="#f6_ct" transform="matrix(14,0,0,14,301,354.1)" />
<use xlink:href="#f6_br" transform="matrix(14,0,0,14,306.6,354.1)" />
<use xlink:href="#f6_ct" transform="matrix(14,0,0,14,318.3,354.1)" />
<use xlink:href="#f6_an" transform="matrix(14,0,0,14,329.6,354.1)" />
<use xlink:href="#f6_cb" transform="matrix(14,0,0,14,341.1,354.1)" />
<use xlink:href="#f6_bz" transform="matrix(14,0,0,14,355.9,354.1)" />
<use xlink:href="#f6_oz" transform="matrix(14,0,0,14,369.4,354.1)" />
<use xlink:href="#f6_nt" transform="matrix(14,0,0,14,374.9,354.1)" />
<use xlink:href="#f6_bz" transform="matrix(14,0,0,14,380.6,354.1)" />
<use xlink:href="#f6_bt" transform="matrix(14,0,0,14,393.9,354.1)" />
<use xlink:href="#f6_bt" transform="matrix(14,0,0,14,411.3,354.1)" />
<use xlink:href="#f6_bz" transform="matrix(14,0,0,14,428.7,354.1)" />
<use xlink:href="#f6_d4" transform="matrix(14,0,0,14,442.1,354.1)" />
<use xlink:href="#f6_ba" transform="matrix(14,0,0,14,442,354.1)" />
<use xlink:href="#f6_pc" transform="matrix(14,0,0,14,458.7,354.1)" />
<use xlink:href="#f6_pc" transform="matrix(14,0,0,14,463,354.1)" />
<use xlink:href="#f6_pc" transform="matrix(14,0,0,14,467.3,354.1)" />
<use xlink:href="#f6_bz" transform="matrix(14,0,0,14,238.6,387.3)" />
<use xlink:href="#f6_d4" transform="matrix(14,0,0,14,252.1,387.3)" />
<use xlink:href="#f6_c1" transform="matrix(14,0,0,14,252,387.3)" />
<use xlink:href="#f6_d4" transform="matrix(14,0,0,14,260,387.3)" />
<use xlink:href="#f6_br" transform="matrix(14,0,0,14,266,387.3)" />
<use xlink:href="#f6_d8" transform="matrix(14,0,0,14,277.7,387.3)" />
<use xlink:href="#f6_bt" transform="matrix(14,0,0,14,283.3,387.3)" />
<use xlink:href="#f6_d8" transform="matrix(14,0,0,14,295,387.3)" />
<use xlink:href="#f6_dj" transform="matrix(14,0,0,14,299.3,388.1)" />
<use xlink:href="#f6_cc" transform="matrix(14,0,0,14,306.3,387.3)" />
<use xlink:href="#f6_ct" transform="matrix(14,0,0,14,317.9,387.3)" />
<use xlink:href="#f6_no" transform="matrix(14,0,0,14,323.5,387.3)" />
<use xlink:href="#f6_bq" transform="matrix(14,0,0,14,323.5,387.3)" />
<use xlink:href="#f6_d8" transform="matrix(14,0,0,14,336.7,387.3)" />
<use xlink:href="#f6_dj" transform="matrix(14,0,0,14,341,388.1)" />
<use xlink:href="#f6_bz" transform="matrix(14,0,0,14,348,387.3)" />
<use xlink:href="#f6_oz" transform="matrix(14,0,0,14,361.5,387.3)" />
<use xlink:href="#f6_pc" transform="matrix(14,0,0,14,361.4,387.3)" />
<use xlink:href="#f6_pc" transform="matrix(14,0,0,14,365.6,387.3)" />
<use xlink:href="#f6_pc" transform="matrix(14,0,0,14,369.9,387.3)" />
<use xlink:href="#f6_p" transform="matrix(14,0,0,14,374.2,387.3)" />
<use xlink:href="#f6_cu" transform="matrix(14,0,0,14,164.2,420.5)" />
<use xlink:href="#f6_b9" transform="matrix(14,0,0,14,169.8,420.5)" />
<use xlink:href="#f6_ki" transform="matrix(14,0,0,14,185.3,420.5)" />
<use xlink:href="#f6_bp" transform="matrix(14,0,0,14,207.3,420.5)" />
<use xlink:href="#f6_b9" transform="matrix(14,0,0,14,225.2,420.5)" />
<use xlink:href="#f6_ct" transform="matrix(14,0,0,14,240.7,420.5)" />
<use xlink:href="#f6_c3" transform="matrix(14,0,0,14,252,420.5)" />
<use xlink:href="#f6_d4" transform="matrix(14,0,0,14,266.9,420.5)" />
<use xlink:href="#f6_ba" transform="matrix(14,0,0,14,266.7,420.5)" />
<use xlink:href="#f6_b9" transform="matrix(14,0,0,14,289.1,420.5)" />
<use xlink:href="#f6_d8" transform="matrix(14,0,0,14,304.6,420.5)" />
<use xlink:href="#f6_ao" transform="matrix(14,0,0,14,310.2,420.5)" />
<use xlink:href="#f6_nt" transform="matrix(14,0,0,14,327.4,420.5)" />
<use xlink:href="#f6_bz" transform="matrix(14,0,0,14,333,420.5)" />
<use xlink:href="#f6_bk" transform="matrix(14,0,0,14,346.4,420.5)" />
<use xlink:href="#f6_ct" transform="matrix(14,0,0,14,357.9,420.5)" />
<use xlink:href="#f6_bt" transform="matrix(14,0,0,14,369.2,420.5)" />
<use xlink:href="#f6_cc" transform="matrix(14,0,0,14,380.9,420.5)" />
<use xlink:href="#f6_cv" transform="matrix(14,0,0,14,392.5,420.5)" />
<use xlink:href="#f6_dj" transform="matrix(14,0,0,14,397.2,421.4)" />
<use xlink:href="#f6_bv" transform="matrix(14,0,0,14,403.8,420.5)" />
<use xlink:href="#f6_ct" transform="matrix(14,0,0,14,415.7,420.5)" />
<use xlink:href="#f6_c0" transform="matrix(14,0,0,14,421.3,420.5)" />
<use xlink:href="#f6_d4" transform="matrix(14,0,0,14,434,420.5)" />
<use xlink:href="#f6_bb" transform="matrix(14,0,0,14,433.8,420.5)" />
<use xlink:href="#f6_ct" transform="matrix(14,0,0,14,446.5,420.5)" />
<use xlink:href="#f6_k" transform="matrix(14,0,0,14,452.1,420.5)" />
<use xlink:href="#f6_b9" transform="matrix(14,0,0,14,179.1,453.8)" />
<use xlink:href="#f6_d5" transform="matrix(14,0,0,14,190.2,453.8)" />
<use xlink:href="#f6_cb" transform="matrix(14,0,0,14,194.6,453.8)" />
<use xlink:href="#f6_d4" transform="matrix(14,0,0,14,209.6,453.8)" />
<use xlink:href="#f6_nt" transform="matrix(14,0,0,14,215.1,453.8)" />
<use xlink:href="#f6_bz" transform="matrix(14,0,0,14,220.7,453.8)" />
<use xlink:href="#f6_c3" transform="matrix(14,0,0,14,234.1,453.8)" />
<use xlink:href="#f6_bt" transform="matrix(14,0,0,14,248.8,453.8)" />
<use xlink:href="#f6_cc" transform="matrix(14,0,0,14,266.1,453.8)" />
<use xlink:href="#f6_d8" transform="matrix(14,0,0,14,277.8,453.8)" />
<use xlink:href="#f6_bb" transform="matrix(14,0,0,14,283.4,453.8)" />
<use xlink:href="#f6_ct" transform="matrix(14,0,0,14,296,453.8)" />
<use xlink:href="#f6_cb" transform="matrix(14,0,0,14,307.3,453.8)" />
<use xlink:href="#f6_bz" transform="matrix(14,0,0,14,322.2,453.8)" />
<use xlink:href="#f6_c0" transform="matrix(14,0,0,14,335.5,453.8)" />
<use xlink:href="#f6_cc" transform="matrix(14,0,0,14,353.7,453.8)" />
<use xlink:href="#f6_cv" transform="matrix(14,0,0,14,365.3,453.8)" />
<use xlink:href="#f6_bx" transform="matrix(14,0,0,14,376.6,453.8)" />
<use xlink:href="#f6_bp" transform="matrix(14,0,0,14,388.9,453.8)" />
<use xlink:href="#f6_ct" transform="matrix(14,0,0,14,401.2,453.8)" />
<use xlink:href="#f6_c0" transform="matrix(14,0,0,14,406.8,453.8)" />
<use xlink:href="#f6_d4" transform="matrix(14,0,0,14,419.5,453.8)" />
<use xlink:href="#f6_bb" transform="matrix(14,0,0,14,419.4,453.8)" />
<use xlink:href="#f6_ct" transform="matrix(14,0,0,14,432,453.8)" />
<use xlink:href="#f6_k" transform="matrix(14,0,0,14,437.6,453.8)" />
<use xlink:href="#f6_nt" transform="matrix(14,0,0,14,151.6,487)" />
<use xlink:href="#f6_bz" transform="matrix(14,0,0,14,157.2,487)" />
<use xlink:href="#f6_bk" transform="matrix(14,0,0,14,170.5,487)" />
<use xlink:href="#f6_bp" transform="matrix(14,0,0,14,182.1,487)" />
<use xlink:href="#f6_cv" transform="matrix(14,0,0,14,194.4,487)" />
<use xlink:href="#f6_bt" transform="matrix(14,0,0,14,205.7,487)" />
<use xlink:href="#f6_cc" transform="matrix(14,0,0,14,217.4,487)" />
<use xlink:href="#f6_cv" transform="matrix(14,0,0,14,229,487)" />
<use xlink:href="#f6_dj" transform="matrix(14,0,0,14,233.7,487.9)" />
<use xlink:href="#f6_cc" transform="matrix(14,0,0,14,240.3,487)" />
<use xlink:href="#f6_d5" transform="matrix(14,0,0,14,252.2,487)" />
<use xlink:href="#f6_c1" transform="matrix(14,0,0,14,257.6,487)" />
<use xlink:href="#f6_d4" transform="matrix(14,0,0,14,265.5,487)" />
<use xlink:href="#f6_ba" transform="matrix(14,0,0,14,265.9,487)" />
<use xlink:href="#f6_k" transform="matrix(14,0,0,14,282.7,487)" />
<use xlink:href="#f6_br" transform="matrix(14,0,0,14,293.5,487)" />
<use xlink:href="#f6_ct" transform="matrix(14,0,0,14,305.2,487)" />
<use xlink:href="#f6_br" transform="matrix(14,0,0,14,310.8,487)" />
<use xlink:href="#f6_ct" transform="matrix(14,0,0,14,322.5,487)" />
<use xlink:href="#f6_nt" transform="matrix(14,0,0,14,333.8,487)" />
<use xlink:href="#f6_bz" transform="matrix(14,0,0,14,339.4,487)" />
<use xlink:href="#f6_bk" transform="matrix(14,0,0,14,352.8,487)" />
<use xlink:href="#f6_bp" transform="matrix(14,0,0,14,364.3,487)" />
<use xlink:href="#f6_cv" transform="matrix(14,0,0,14,376.6,487)" />
<use xlink:href="#f6_bt" transform="matrix(14,0,0,14,387.9,487)" />
<use xlink:href="#f6_cc" transform="matrix(14,0,0,14,399.6,487)" />
<use xlink:href="#f6_cv" transform="matrix(14,0,0,14,411.2,487)" />
<use xlink:href="#f6_dj" transform="matrix(14,0,0,14,415.9,487.9)" />
<use xlink:href="#f6_cc" transform="matrix(14,0,0,14,422.5,487)" />
<use xlink:href="#f6_d5" transform="matrix(14,0,0,14,434.5,487)" />
<use xlink:href="#f6_c1" transform="matrix(14,0,0,14,439.8,487)" />
<use xlink:href="#f6_d4" transform="matrix(14,0,0,14,447.8,487)" />
<use xlink:href="#f6_ba" transform="matrix(14,0,0,14,448.2,487)" />
<use xlink:href="#f6_k" transform="matrix(14,0,0,14,464.9,487)" />
<use xlink:href="#f6_bz" transform="matrix(14,0,0,14,236.3,520.2)" />
<use xlink:href="#f6_d4" transform="matrix(14,0,0,14,249.8,520.2)" />
<use xlink:href="#f6_c1" transform="matrix(14,0,0,14,249.7,520.2)" />
<use xlink:href="#f6_d4" transform="matrix(14,0,0,14,257.7,520.2)" />
<use xlink:href="#f6_br" transform="matrix(14,0,0,14,263.7,520.2)" />
<use xlink:href="#f6_d8" transform="matrix(14,0,0,14,275.4,520.2)" />
<use xlink:href="#f6_bt" transform="matrix(14,0,0,14,281,520.2)" />
<use xlink:href="#f6_d8" transform="matrix(14,0,0,14,292.7,520.2)" />
<use xlink:href="#f6_dj" transform="matrix(14,0,0,14,297,521.1)" />
<use xlink:href="#f6_cc" transform="matrix(14,0,0,14,304,520.2)" />
<use xlink:href="#f6_ct" transform="matrix(14,0,0,14,315.6,520.2)" />
<use xlink:href="#f6_no" transform="matrix(14,0,0,14,321.3,520.2)" />
<use xlink:href="#f6_bq" transform="matrix(14,0,0,14,321.3,520.2)" />
<use xlink:href="#f6_d8" transform="matrix(14,0,0,14,334.4,520.2)" />
<use xlink:href="#f6_dj" transform="matrix(14,0,0,14,338.7,521.1)" />
<use xlink:href="#f6_bz" transform="matrix(14,0,0,14,345.7,520.2)" />
<use xlink:href="#f6_oz" transform="matrix(14,0,0,14,359.2,520.2)" />
<use xlink:href="#f6_pc" transform="matrix(14,0,0,14,359.1,520.2)" />
<use xlink:href="#f6_pc" transform="matrix(14,0,0,14,363.3,520.2)" />
<use xlink:href="#f6_pc" transform="matrix(14,0,0,14,367.6,520.2)" />
<use xlink:href="#f6_q" transform="matrix(14,0,0,14,371.9,520.2)" />
<use xlink:href="#f6_bt" transform="matrix(14,0,0,14,191.7,578.6)" />
<use xlink:href="#f6_ct" transform="matrix(14,0,0,14,203.4,578.6)" />
<use xlink:href="#f6_c7" transform="matrix(14,0,0,14,214.7,578.6)" />
<use xlink:href="#f6_d8" transform="matrix(14,0,0,14,226.7,578.6)" />
<use xlink:href="#f6_cu" transform="matrix(14,0,0,14,238,578.6)" />
<use xlink:href="#f6_br" transform="matrix(14,0,0,14,243.6,578.6)" />
<use xlink:href="#f6_bt" transform="matrix(14,0,0,14,255.3,578.6)" />
<use xlink:href="#f6_c1" transform="matrix(14,0,0,14,272.7,578.6)" />
<use xlink:href="#f6_cc" transform="matrix(14,0,0,14,281.1,578.6)" />
<use xlink:href="#f6_oz" transform="matrix(14,0,0,14,293,578.6)" />
<use xlink:href="#f6_bb" transform="matrix(14,0,0,14,292.7,578.6)" />
<use xlink:href="#f6_d4" transform="matrix(14,0,0,14,305.4,578.6)" />
<use xlink:href="#f6_k" transform="matrix(14,0,0,14,305.3,578.6)" />
<use xlink:href="#f6_bt" transform="matrix(14,0,0,14,316.2,578.6)" />
<use xlink:href="#f6_ct" transform="matrix(14,0,0,14,327.9,578.6)" />
<use xlink:href="#f6_c0" transform="matrix(14,0,0,14,339.2,578.6)" />
<use xlink:href="#f6_d4" transform="matrix(14,0,0,14,351.9,578.6)" />
<use xlink:href="#f6_cu" transform="matrix(14,0,0,14,357.4,578.6)" />
<use xlink:href="#f6_br" transform="matrix(14,0,0,14,363,578.6)" />
<use xlink:href="#f6_bt" transform="matrix(14,0,0,14,374.7,578.6)" />
<use xlink:href="#f6_c1" transform="matrix(14,0,0,14,392.1,578.6)" />
<use xlink:href="#f6_cc" transform="matrix(14,0,0,14,400.4,578.6)" />
<use xlink:href="#f6_oz" transform="matrix(14,0,0,14,412.4,578.6)" />
<use xlink:href="#f6_bb" transform="matrix(14,0,0,14,412.1,578.6)" />
<use xlink:href="#f6_d4" transform="matrix(14,0,0,14,424.8,578.6)" />
<use xlink:href="#f6_k" transform="matrix(14,0,0,14,424.7,578.6)" />
<use xlink:href="#f6_br" transform="matrix(14,0,0,14,190.5,611.9)" />
<use xlink:href="#f6_ct" transform="matrix(14,0,0,14,202.2,611.9)" />
<use xlink:href="#f6_br" transform="matrix(14,0,0,14,207.8,611.9)" />
<use xlink:href="#f6_ct" transform="matrix(14,0,0,14,219.5,611.9)" />
<use xlink:href="#f6_bp" transform="matrix(14,0,0,14,230.8,611.9)" />
<use xlink:href="#f6_cw" transform="matrix(14,0,0,14,243.6,611.8)" />
<use xlink:href="#f6_bz" transform="matrix(14,0,0,14,243.1,611.9)" />
<use xlink:href="#f6_br" transform="matrix(14,0,0,14,262.1,611.9)" />
<use xlink:href="#f6_d4" transform="matrix(14,0,0,14,273.3,611.9)" />
<use xlink:href="#f6_ba" transform="matrix(14,0,0,14,273.8,611.9)" />
<use xlink:href="#f6_c3" transform="matrix(14,0,0,14,296.1,611.9)" />
<use xlink:href="#f6_d4" transform="matrix(14,0,0,14,311,611.9)" />
<use xlink:href="#f6_bt" transform="matrix(14,0,0,14,310.8,611.9)" />
<use xlink:href="#f6_ct" transform="matrix(14,0,0,14,322.6,611.9)" />
<use xlink:href="#f6_bg" transform="matrix(14,0,0,14,333.8,611.9)" />
<use xlink:href="#f6_ls" transform="matrix(14,0,0,14,348.1,611.9)" />
<use xlink:href="#f6_br" transform="matrix(14,0,0,14,356.7,611.9)" />
<use xlink:href="#f6_ob" transform="matrix(14,0,0,14,368.4,611.9)" />
<use xlink:href="#f6_nt" transform="matrix(14,0,0,14,379.7,611.9)" />
<use xlink:href="#f6_bz" transform="matrix(14,0,0,14,385.3,611.9)" />
<use xlink:href="#f6_c3" transform="matrix(14,0,0,14,398.6,611.9)" />
<use xlink:href="#f6_oz" transform="matrix(14,0,0,14,413.5,611.9)" />
<use xlink:href="#f6_bb" transform="matrix(14,0,0,14,413.3,611.9)" />
<use xlink:href="#f6_d4" transform="matrix(14,0,0,14,426.1,611.9)" />
<use xlink:href="#f6_k" transform="matrix(14,0,0,14,426,611.9)" />
<use xlink:href="#f6_an" transform="matrix(14,0,0,14,156.1,645.1)" />
<use xlink:href="#f6_bt" transform="matrix(14,0,0,14,167.6,645.1)" />
<use xlink:href="#f6_cc" transform="matrix(14,0,0,14,185,645.1)" />
<use xlink:href="#f6_ct" transform="matrix(14,0,0,14,196.6,645.1)" />
<use xlink:href="#f6_no" transform="matrix(14,0,0,14,202.2,645.1)" />
<use xlink:href="#f6_bq" transform="matrix(14,0,0,14,202.2,645.1)" />
<use xlink:href="#f6_d8" transform="matrix(14,0,0,14,215.4,645.1)" />
<use xlink:href="#f6_dj" transform="matrix(14,0,0,14,219.7,646)" />
<use xlink:href="#f6_b9" transform="matrix(14,0,0,14,226.7,645.1)" />
<use xlink:href="#f6_d8" transform="matrix(14,0,0,14,242.2,645.1)" />
<use xlink:href="#f6_br" transform="matrix(14,0,0,14,253.5,645.1)" />
<use xlink:href="#f6_d4" transform="matrix(14,0,0,14,264.7,645.1)" />
<use xlink:href="#f6_ba" transform="matrix(14,0,0,14,265.2,645.1)" />
<use xlink:href="#f6_br" transform="matrix(14,0,0,14,287.6,645.1)" />
<use xlink:href="#f6_ct" transform="matrix(14,0,0,14,299.2,645.1)" />
<use xlink:href="#f6_br" transform="matrix(14,0,0,14,304.9,645.1)" />
<use xlink:href="#f6_ct" transform="matrix(14,0,0,14,316.5,645.1)" />
<use xlink:href="#f6_k" transform="matrix(14,0,0,14,322.2,645.1)" />
<use xlink:href="#f6_an" transform="matrix(14,0,0,14,333,645.1)" />
<use xlink:href="#f6_bt" transform="matrix(14,0,0,14,344.5,645.1)" />
<use xlink:href="#f6_cc" transform="matrix(14,0,0,14,361.9,645.1)" />
<use xlink:href="#f6_ct" transform="matrix(14,0,0,14,373.5,645.1)" />
<use xlink:href="#f6_no" transform="matrix(14,0,0,14,379.1,645.1)" />
<use xlink:href="#f6_bq" transform="matrix(14,0,0,14,379.1,645.1)" />
<use xlink:href="#f6_d8" transform="matrix(14,0,0,14,392.3,645.1)" />
<use xlink:href="#f6_dj" transform="matrix(14,0,0,14,396.6,646)" />
<use xlink:href="#f6_b9" transform="matrix(14,0,0,14,403.6,645.1)" />
<use xlink:href="#f6_d8" transform="matrix(14,0,0,14,419.1,645.1)" />
<use xlink:href="#f6_br" transform="matrix(14,0,0,14,430.4,645.1)" />
<use xlink:href="#f6_d4" transform="matrix(14,0,0,14,441.6,645.1)" />
<use xlink:href="#f6_ba" transform="matrix(14,0,0,14,442.1,645.1)" />
<use xlink:href="#f6_k" transform="matrix(14,0,0,14,458.8,645.1)" />
<use xlink:href="#f6_bz" transform="matrix(14,0,0,14,237.5,678.3)" />
<use xlink:href="#f6_d4" transform="matrix(14,0,0,14,251,678.3)" />
<use xlink:href="#f6_c1" transform="matrix(14,0,0,14,250.8,678.3)" />
<use xlink:href="#f6_d4" transform="matrix(14,0,0,14,258.8,678.3)" />
<use xlink:href="#f6_br" transform="matrix(14,0,0,14,264.9,678.3)" />
<use xlink:href="#f6_d8" transform="matrix(14,0,0,14,276.5,678.3)" />
<use xlink:href="#f6_bt" transform="matrix(14,0,0,14,282.2,678.3)" />
<use xlink:href="#f6_d8" transform="matrix(14,0,0,14,293.9,678.3)" />
<use xlink:href="#f6_dj" transform="matrix(14,0,0,14,298.2,679.2)" />
<use xlink:href="#f6_cc" transform="matrix(14,0,0,14,305.2,678.3)" />
<use xlink:href="#f6_ct" transform="matrix(14,0,0,14,316.8,678.3)" />
<use xlink:href="#f6_no" transform="matrix(14,0,0,14,322.4,678.3)" />
<use xlink:href="#f6_bq" transform="matrix(14,0,0,14,322.4,678.3)" />
<use xlink:href="#f6_d8" transform="matrix(14,0,0,14,335.6,678.3)" />
<use xlink:href="#f6_dj" transform="matrix(14,0,0,14,339.9,679.2)" />
<use xlink:href="#f6_bz" transform="matrix(14,0,0,14,346.9,678.3)" />
<use xlink:href="#f6_oz" transform="matrix(14,0,0,14,360.3,678.3)" />
<use xlink:href="#f6_pc" transform="matrix(14,0,0,14,360.2,678.3)" />
<use xlink:href="#f6_pc" transform="matrix(14,0,0,14,364.5,678.3)" />
<use xlink:href="#f6_pc" transform="matrix(14,0,0,14,368.8,678.3)" />
<use xlink:href="#f6_r" transform="matrix(14,0,0,14,373,678.3)" />
<use xlink:href="#f7_4r" transform="matrix(9,0,0,9,290.2,795.2)" />
<use xlink:href="#f8_n" transform="matrix(9,0,0,9,303,795.2)" />
<use xlink:href="#f8_r" transform="matrix(9,0,0,9,310.7,795.2)" />
<use xlink:href="#f7_4r" transform="matrix(9,0,0,9,321.3,795.2)" />
</g>
</g>
<image preserveAspectRatio="none" x="22" y="801" width="581" height="86" xlink:href="img/1.png"/>
<path d="M242.9,97.4H379.3v1.1H242.9V97.4Z" class="g1_43"/>
<image preserveAspectRatio="none" x="202" y="14" width="217" height="26" xlink:href="img/2.png"/>
<defs>
<path d="M686,512V822H333L435,749l2,-237ZM860,-65L686,29V298H440V168L348,118c0,0,-90,30,-190,128c0,0,-100,98,-127,183l52,83H203L189,822H0L-86,937l32,64H1045l86,-115l-33,-64H828L930,749V-31L860,-65Z"
id="f5_bz"
transform="scale(0.001,-0.001)"/>

<path d="M-289,908l-132,216c0,0,-70,120,-169,120c0,0,-83,0,-200,-80l-130,249c0,0,125,78,234,78c0,0,187,0,349,-241L-159,969L-289,908Z"
id="f5_d4"
transform="scale(0.001,-0.001)"/>

<path d="M545,-97L35,405L87,542H295c0,0,1,5,1,280H0L-86,937l32,64H729L814,886L782,822H445L550,749V547c0,0,0,-75,-41,-127c0,0,-41,-52,-129,-111L709,110V41L545,-97Z"
id="f5_c1"
transform="scale(0.001,-0.001)"/>

<path d="M700,-327L637,-39c0,0,-43,-9,-85,-9c0,0,-109,0,-228,58c0,0,-119,59,-199,160c0,0,-79,102,-79,220c0,0,0,134,95,216c0,0,94,82,252,85H516V822H0L-86,937l32,64H929l85,-115L982,822H645L747,749V468l2,-4H478c0,0,-98,0,-148,-45c0,0,-50,-46,-50,-110c0,0,0,-68,53,-121c0,0,46,-20,99,-20c0,0,74,0,141,35L555,332l154,56L897,154C897,154,862,87,785,34L933,-233L700,-327Z"
id="f5_br"
transform="scale(0.001,-0.001)"/>

<path d="M277,-65L102,29V822H0L-86,937l32,64H86L18,1111c0,0,-67,122,-168,122c0,0,-81,0,-202,-80l-128,250c0,0,122,77,232,77c0,0,196,0,356,-250L252,1001H463L548,886L516,822H244L347,749V-31L277,-65Z"
id="f5_d8"
transform="scale(0.001,-0.001)"/>

<path d="M746,-65L571,29V419H376V260L275,212c0,0,-87,48,-160,148c0,0,-72,100,-91,193l57,84H571V822H0L-86,937l32,64H930l88,-115L985,822H713L816,749V-31L746,-65Z"
id="f5_bt"
transform="scale(0.001,-0.001)"/>

<path d="M0,1102c0,0,-40,16,-91,55c0,0,-52,39,-79,76c0,0,59,119,137,165c0,0,42,-15,89,-54c0,0,46,-39,74,-76c0,0,-17,-44,-54,-92c0,0,-38,-48,-76,-74Z"
id="f5_dj"
transform="scale(0.001,-0.001)"/>

<path d="M756,-314c0,0,-304,57,-481,187C275,-127,98,2,98,170c0,0,0,117,82,197c0,0,-110,91,-110,195c0,0,0,74,64,127c0,0,63,54,188,54H567v79H0L-86,937l32,64H906L992,886L959,822H684L787,749V535H383c0,0,-110,0,-110,-67c0,0,0,-19,10,-36c0,0,78,32,174,32c0,0,162,0,277,-87c0,0,115,-87,115,-214c0,0,0,-143,-142,-228L518,76c0,0,125,94,145,173c0,0,-55,26,-113,26c0,0,-84,0,-144,-45c0,0,-59,-45,-59,-118c0,0,0,-107,121,-166c0,0,120,-60,336,-105L756,-314Z"
id="f5_cc"
transform="scale(0.001,-0.001)"/>

<path d="M277,-65L102,29V822H0L-86,937l32,64H463L548,886L516,822H244L347,749V-31L277,-65Z"
id="f5_ct"
transform="scale(0.001,-0.001)"/>

<path d="M0,822L-86,937l32,64H15L101,886L69,822Z"
id="f5_no"
transform="scale(0.001,-0.001)"/>

<path d="M842,-65L668,29V141c0,0,-66,-33,-142,-33c0,0,-146,0,-279,109c0,0,-134,108,-209,287l29,78c0,0,324,35,324,203c0,0,0,46,-27,80c0,0,-13,6,-29,6c0,0,-32,0,-57,-23c0,0,-24,-23,-24,-60c0,0,0,-49,45,-91L211,636C211,636,49,746,49,857c0,0,0,73,59,126c0,0,60,53,146,53c0,0,128,0,236,-109c0,0,107,-110,107,-239c0,0,0,-98,-74,-182c0,0,-75,-83,-222,-119c0,0,20,-51,52,-95c0,0,1,0,4,0c20,0,102,2,181,39c0,0,90,42,130,121V822H636L550,937l32,64h445l85,-115l-32,-64H810L912,749V-31L842,-65Z"
id="f5_bq"
transform="scale(0.001,-0.001)"/>

<path d="M-88,1086c0,0,-41,17,-92,56c0,0,-51,39,-79,76c0,0,60,119,138,165c0,0,43,-16,89,-55c0,0,46,-39,73,-75c0,0,-17,-45,-53,-93c0,0,-37,-48,-76,-74ZM-289,908l-132,216c0,0,-70,120,-169,120c0,0,-83,0,-200,-80l-130,249c0,0,125,78,234,78c0,0,187,0,349,-241L-159,969L-289,908Z"
id="f5_oz"
transform="scale(0.001,-0.001)"/>

<path d="M689,445V822H286l65,-58l8,-319ZM779,-49L689,8V328H370V180L296,150c0,0,-56,35,-120,104c0,0,-63,70,-89,131l41,60H238L223,822H0l-45,76l14,31H953l46,-76L985,822H750l66,-58V-39L779,-49Z"
id="f6_bz"
transform="scale(0.001,-0.001)"/>

<path d="M-214,863l-199,281c0,0,-70,92,-157,92c0,0,-69,0,-159,-58l-72,118c0,0,89,73,180,73c0,0,141,0,258,-170L-155,901l-59,-38Z"
id="f6_d4"
transform="scale(0.001,-0.001)"/>

<path d="M527,-71L52,414l34,92H277c0,0,12,32,12,72V822H0l-45,76l14,31H599l46,-76L631,822H350l66,-55V564c0,0,0,-96,-152,-248L610,34L611,8L527,-71Z"
id="f6_c1"
transform="scale(0.001,-0.001)"/>

<path d="M675,-274L602,21C602,21,550,3,498,3C498,3,347,3,210,118C210,118,73,232,73,373c0,0,0,113,84,184c0,0,84,71,222,72H524V822H0l-45,76l14,31H834l46,-76L866,822H585l66,-58V504l-3,2l3,-3H408c0,0,-95,0,-154,-53c0,0,-58,-53,-58,-132c0,0,0,-49,27,-100c0,0,28,-50,83,-84c0,0,44,-15,96,-15c0,0,91,0,160,46L535,303l101,48L773,188c0,0,-8,-28,-34,-66c0,0,-27,-38,-62,-64L813,-221L675,-274Z"
id="f6_br"
transform="scale(0.001,-0.001)"/>

<path d="M228,-49L138,8V822H0l-45,76l14,31H119L-33,1144c0,0,-70,92,-157,92c0,0,-69,0,-159,-58l-72,118c0,0,89,73,181,73c0,0,140,0,257,-170L205,929H402l46,-76L434,822H199l65,-58V-39L228,-49Z"
id="f6_d8"
transform="scale(0.001,-0.001)"/>

<path d="M663,-49L573,8V445H299V280L226,251c0,0,-105,99,-162,238l63,72H573V822H0l-45,76l14,31H837l46,-76L869,822H634l66,-58V-39L663,-49Z"
id="f6_bt"
transform="scale(0.001,-0.001)"/>

<path d="M0,1062c0,0,-26,11,-60,36c0,0,-34,26,-51,49c0,0,39,81,91,110c0,0,60,-23,106,-85c0,0,-28,-70,-86,-110Z"
id="f6_dj"
transform="scale(0.001,-0.001)"/>

<path d="M688,-243c0,0,-256,53,-408,173c0,0,-152,119,-152,270c0,0,0,101,68,171c0,0,-101,84,-101,179c0,0,0,64,53,112c0,0,54,47,191,47H587V822H0l-45,76l14,31H830l45,-76L862,822H640l66,-58V585H362c0,0,-159,-1,-159,-92c0,0,0,-41,46,-80c0,0,76,47,183,47c0,0,135,0,230,-76c0,0,96,-75,96,-187C758,197,758,67,629,2L545,104c0,0,49,30,81,75c0,0,32,44,32,82c0,0,0,16,-4,26c0,0,-64,58,-167,58c0,0,-97,0,-166,-50v-2c0,0,-67,-52,-67,-131c0,0,0,-116,132,-199c0,0,132,-84,334,-132l-32,-74Z"
id="f6_cc"
transform="scale(0.001,-0.001)"/>

<path d="M228,-49L138,8V822H0l-45,76l14,31H402l46,-76L434,822H199l65,-58V-39L228,-49Z"
id="f6_ct"
transform="scale(0.001,-0.001)"/>

<path d="M0,822l-45,76l14,31H61l46,-76L93,822Z"
id="f6_no"
transform="scale(0.001,-0.001)"/>

<path d="M768,-49L678,8V202c0,0,-73,-58,-172,-58c0,0,-123,0,-240,94c0,0,-118,94,-179,237l20,55c0,0,134,12,215,70c0,0,81,57,81,141c0,0,0,90,-67,134l-26,3c0,0,-46,0,-74,-29c0,0,-28,-30,-28,-68c0,0,0,-55,82,-109L252,620C252,620,93,720,93,820c0,0,0,65,47,104c0,0,46,40,114,40c0,0,99,0,179,-83c0,0,80,-83,82,-197c0,0,0,-93,-79,-165c0,0,-78,-73,-199,-97c0,0,29,-104,88,-158c0,0,42,-16,92,-16c0,0,78,0,151,38c0,0,74,38,110,111V822H553l-46,76l14,31H943l45,-76L975,822H739l66,-58V-39L768,-49Z"
id="f6_bq"
transform="scale(0.001,-0.001)"/>

<path d="M-91,1001c0,0,-27,10,-61,36c0,0,-33,26,-50,49c0,0,38,81,90,110c0,0,61,-23,107,-85c0,0,-28,-71,-86,-110ZM-214,863l-199,281c0,0,-70,92,-157,92c0,0,-69,0,-159,-58l-72,118c0,0,89,73,180,73c0,0,141,0,258,-170L-155,901l-59,-38Z"
id="f6_oz"
transform="scale(0.001,-0.001)"/>

<path d="M830,-253l-123,66c0,0,31,47,31,78c0,0,0,44,-64,84L353,130c0,0,-234,113,-234,325V822H0l-45,76l14,31H600L448,1144c0,0,-71,92,-158,92c0,0,-68,0,-159,-58L60,1296c0,0,88,73,180,73c0,0,140,0,258,-170L686,929H848l46,-76L880,822H655l68,-58V561c0,0,0,-176,-41,-241c0,0,-40,-65,-161,-106l-49,82l124,69V822H180l66,-58V283L646,92c0,0,126,-60,176,-110c0,0,50,-51,50,-115c0,0,0,-62,-42,-120Z"
id="f6_ay"
transform="scale(0.001,-0.001)"/>

<path d="M799,475V822H350l66,-55V564c0,0,0,-43,-25,-89ZM527,-71L52,414l34,92H277c0,0,12,32,12,72V822H0l-45,76l14,31H1063l46,-76l-14,-31H860l66,-58V-39L889,-49L799,8V370H315L264,316L610,34L611,8L527,-71Z"
id="f6_cb"
transform="scale(0.001,-0.001)"/>

<path d="M228,-49L138,8V822H0l-45,76l14,31H138c0,0,-109,342,-284,342c0,0,-62,0,-102,-40c0,0,-40,-39,-40,-93c0,0,0,-61,51,-134l-42,-32c0,0,-128,113,-128,226c0,0,0,79,60,136c0,0,61,56,154,56c0,0,137,0,249,-125c0,0,112,-125,169,-336H402l46,-76L434,822H199l65,-58V-39L228,-49Z"
id="f6_cv"
transform="scale(0.001,-0.001)"/>

<path d="M413,-59C413,-59,53,193,53,416c0,0,0,97,66,164c0,0,66,66,156,66c0,0,61,0,110,-30L487,507c0,0,92,126,257,126l35,-2V822H0l-45,76l14,31H1043l46,-76l-13,-31H840l66,-58V-39L869,-49L779,8V547c0,0,-101,-5,-165,-90c0,0,-64,-86,-70,-222L507,225l-90,73c0,0,5,79,35,151c0,0,-59,66,-128,66c0,0,-57,0,-100,-38c0,0,-44,-39,-44,-109c0,0,0,-165,284,-360L413,-59Z"
id="f6_c3"
transform="scale(0.001,-0.001)"/>

<path d="M283,260c0,0,122,0,209,113V513c0,0,-90,51,-160,51c0,0,-80,0,-129,-50c0,0,-49,-50,-49,-118c0,0,0,-60,35,-110c0,0,45,-26,94,-26ZM582,-49L492,8V211c0,0,-63,-54,-141,-54c0,0,-113,0,-213,92c0,0,-100,92,-100,205c0,0,0,93,69,157c0,0,69,64,162,64c0,0,32,0,64,-9L492,590V822H0l-45,76l14,31H1108l45,-76l-13,-31H553l66,-58V524c0,0,91,89,192,89c0,0,98,0,171,-79c0,0,72,-79,72,-186c0,0,0,-178,-224,-330L736,124c0,0,219,153,219,269c0,0,0,44,-26,75c0,0,-26,32,-81,32c0,0,-109,0,-229,-155V-39L582,-49Z"
id="f6_b9"
transform="scale(0.001,-0.001)"/>

<path d="M228,-49L138,8V822H0l-45,76l14,31H134c0,0,-231,362,-445,362c0,0,-87,0,-135,-49c0,0,-48,-49,-48,-116c0,0,0,-73,43,-122l-45,-32c0,0,-119,108,-119,223c0,0,0,94,74,155c0,0,73,60,181,60c0,0,161,0,316,-134c0,0,154,-133,267,-347H402l46,-76L434,822H199l65,-58V-39L228,-49Z"
id="f6_oc"
transform="scale(0.001,-0.001)"/>

<path d="M-214,860l-227,219c0,0,-73,70,-148,70c0,0,-67,0,-160,-58l-72,117c0,0,83,71,176,71c0,0,120,0,232,-124L-221,940l-102,294c0,0,-64,179,-189,179c0,0,-60,0,-133,-33l-60,125c0,0,84,47,164,47c0,0,200,0,281,-276L-150,901l-23,-15l-41,-26Z"
id="f6_d5"
transform="scale(0.001,-0.001)"/>

<path d="M108,-222l-44,58c0,0,96,81,104,164L89,61c0,0,12,83,93,122c0,0,50,-15,79,-55c0,0,29,-39,29,-90c0,0,0,-69,-48,-142c0,0,-48,-72,-134,-118Z"
id="f6_k"
transform="scale(0.001,-0.001)"/>

<path d="M228,-49L138,8V822H0l-45,76l14,31H134c0,0,-91,93,-91,202c0,0,0,105,85,170c0,0,86,65,236,65c0,0,340,0,742,-350l-50,-46c0,0,-182,135,-340,208c0,0,-158,73,-302,73c0,0,-113,0,-183,-48c0,0,-69,-48,-69,-132c0,0,0,-63,53,-142H402l46,-76L434,822H199l65,-58V-39L228,-49Z"
id="f6_nt"
transform="scale(0.001,-0.001)"/>

<path d="M727,-49L637,8V822H278l66,-58V226L270,196c0,0,-64,36,-122,98c0,0,-58,62,-79,122l43,59H217V822H0l-45,76l14,31H901l46,-76L933,822H698l66,-58V-39L727,-49Z"
id="f6_bb"
transform="scale(0.001,-0.001)"/>

<path d="M347,-57C347,-57,66,211,66,394c0,0,0,98,74,164c0,0,74,65,225,65H616V822H0l-45,76l14,31H880l46,-76L912,822H677l66,-58V-39L706,-49L616,8V500H428c0,0,-239,0,-239,-161c0,0,0,-136,214,-343L347,-57Z"
id="f6_bp"
transform="scale(0.001,-0.001)"/>

<path d="M228,-49L138,8V822H0l-45,76l14,31H136c0,0,-173,353,-364,353c0,0,-75,0,-119,-44c0,0,-45,-45,-45,-106c0,0,0,-69,48,-128l-43,-32c0,0,-124,113,-124,224c0,0,0,87,67,146c0,0,68,59,167,59c0,0,150,0,283,-130c0,0,135,-130,219,-342H402l46,-76L434,822H199l65,-58V-39L228,-49Z"
id="f6_ob"
transform="scale(0.001,-0.001)"/>

<path d="M228,-49L138,8V822H0l-45,76l14,31H134c0,0,-91,93,-91,200c0,0,0,109,92,174c0,0,93,66,253,66c0,0,186,0,398,-89c0,0,212,-90,430,-264l-49,-47c0,0,-424,285,-727,285c0,0,-125,0,-201,-49c0,0,-76,-48,-76,-137c0,0,0,-67,52,-139H402l46,-76L434,822H199l65,-58V-39L228,-49Z"
id="f6_nu"
transform="scale(0.001,-0.001)"/>

<path d="M761,293c0,0,127,0,169,94V532c0,0,-68,46,-145,46c0,0,-76,0,-121,-46c0,0,-45,-45,-45,-107c0,0,0,-61,44,-110c0,0,47,-22,98,-22ZM657,67c0,0,166,0,273,107v55c0,0,-45,-36,-111,-36c0,0,-110,0,-207,90c0,0,-97,90,-97,194c0,0,0,85,66,148c0,0,65,63,155,63l48,-5L930,603V822H376l62,-55V579c0,0,0,-60,-23,-102c0,0,-24,-42,-148,-190c0,0,66,-104,175,-162c0,0,108,-58,215,-58ZM1021,-49L930,8V53c0,0,-105,-83,-264,-83c0,0,-177,0,-339,128C327,98,165,226,90,429l34,77H296c0,0,19,39,19,102l-2,214H0l-45,76l14,31H1195l46,-76l-14,-31H992l65,-58V-39l-36,-10Z"
id="f6_ba"
transform="scale(0.001,-0.001)"/>

<path d="M226,-49c0,0,-66,24,-102,78c0,0,32,69,82,101c0,0,55,-20,100,-80c0,0,-26,-66,-80,-99Z"
id="f6_pc"
transform="scale(0.001,-0.001)"/>

<path d="M959,-49L869,8V367c0,0,-32,-13,-64,-13c0,0,-50,0,-110,25c0,0,23,-52,23,-109c0,0,0,-103,-70,-170c0,0,-70,-66,-182,-66c0,0,-110,0,-222,82c0,0,-111,83,-213,293l68,42c0,0,72,-155,152,-231c0,0,81,-76,178,-76c0,0,83,0,131,49c0,0,48,48,48,117c0,0,0,54,-30,100c0,0,-31,47,-91,65L325,391L257,512c0,0,68,53,156,56c0,0,140,72,140,179c0,0,0,69,-52,99c0,0,-4,1,-11,1c-19,0,-66,-4,-123,-30c0,0,-78,-35,-142,-96L150,823c0,0,119,117,253,117c0,0,98,0,175,-71c0,0,77,-70,77,-159c0,0,0,-103,-94,-180c0,0,39,-23,73,-56c0,0,52,-22,109,-22c0,0,77,0,126,38V822H727l-46,76l14,31h439l45,-76l-13,-31H930l66,-58V-39L959,-49Z"
id="f6_al"
transform="scale(0.001,-0.001)"/>

<path d="M180,220c0,0,-105,99,-162,238l63,72H556l40,-85L574,414H254V249L180,220ZM0,822l-45,76l14,31H471l45,-76L503,822Z"
id="f6_li"
transform="scale(0.001,-0.001)"/>

<path d="M254,-26c0,0,-84,16,-116,92c0,0,13,84,97,127c0,0,100,-36,112,-110C347,83,324,6,254,-26Zm458,0c0,0,-84,16,-116,92c0,0,14,84,98,127c0,0,99,-37,111,-110C805,83,782,6,712,-26Zm458,0c0,0,-84,16,-116,92c0,0,14,84,98,127c0,0,99,-36,111,-110c0,0,-22,-77,-93,-109Z"
id="f6_8l"
transform="scale(0.001,-0.001)"/>

<path d="M325,240c0,0,77,0,154,35c0,0,77,35,120,99V500c0,0,-118,73,-222,73c0,0,-97,0,-151,-54c0,0,-53,-53,-53,-128c0,0,0,-73,49,-125c0,0,38,-26,103,-26ZM689,-49L599,8V199c0,0,-73,-65,-179,-65c0,0,-134,0,-252,96c0,0,-118,95,-118,221c0,0,0,102,78,171c0,0,78,69,190,69c0,0,38,0,75,-10L599,582V822H0l-45,76l14,31H863l46,-76L895,822H660l66,-58V-39L689,-49Z"
id="f6_c7"
transform="scale(0.001,-0.001)"/>

<path d="M825,-49L735,8V217c0,0,-86,-72,-197,-72c0,0,-130,0,-238,91c0,0,-107,91,-107,204c0,0,0,55,27,105H55L12,616l14,30H574l46,-76L607,539H396c0,0,-78,-49,-78,-162c0,0,0,-70,40,-111c0,0,39,-15,94,-15c0,0,84,0,163,41c0,0,79,41,120,121V822H0l-45,76l14,31H999l46,-76l-14,-31H796l66,-58V-39L825,-49Z"
id="f6_be"
transform="scale(0.001,-0.001)"/>

<path d="M252,385l310,78l22,-9c0,0,107,-43,200,-43c0,0,91,0,151,41V822H603l66,-58V585H373c0,0,-184,0,-184,-99c0,0,0,-48,63,-101ZM483,-305L295,-10c0,0,-90,22,-156,74l41,170h66L351,63c0,0,126,4,207,62c0,0,82,58,82,139c0,0,0,37,-18,71L365,266c0,0,-110,15,-197,102c0,0,-87,87,-87,176c0,0,0,69,59,117c0,0,59,48,172,48H550V822H0l-45,76l14,31H1199l46,-76l-14,-31H996l66,-58V-39l-37,-10L935,8V318c0,0,-41,-15,-78,-15c0,0,-52,0,-131,30c0,0,32,-55,32,-111c0,0,0,-109,-98,-179c0,0,-98,-69,-254,-69L599,-216L483,-305Z"
id="f6_bh"
transform="scale(0.001,-0.001)"/>

<path d="M228,-49L138,8V822H0l-45,76l14,31H134c0,0,-91,92,-91,191c0,0,0,105,85,170c0,0,84,65,219,65c0,0,128,0,293,-76c0,0,165,-77,362,-263L958,966c0,0,-177,143,-303,210c0,0,-125,68,-244,68c0,0,-107,0,-175,-50c0,0,-68,-50,-68,-131c0,0,0,-61,49,-134H402l46,-76L434,822H199l65,-58V-39L228,-49Z"
id="f6_cu"
transform="scale(0.001,-0.001)"/>

<path d="M348,229c0,0,57,0,106,17L263,559c0,0,-95,-50,-95,-162c0,0,0,-75,52,-136c0,0,49,-32,128,-32Zm170,48c0,0,61,38,96,91V504c0,0,-131,80,-244,80l-35,-2L518,277ZM704,-49L614,8V193c0,0,-84,-65,-192,-65c0,0,-139,0,-255,98c0,0,-115,98,-115,226c0,0,0,106,77,175c0,0,77,70,189,70c0,0,38,0,75,-9L614,578V822H0l-45,76l14,31H878l46,-76L911,822H675l66,-58V-39L704,-49Z"
id="f6_bx"
transform="scale(0.001,-0.001)"/>

<path d="M900,298c0,0,32,73,32,159c0,0,0,110,-38,160c0,0,-40,31,-81,31c0,0,-48,0,-80,-35c0,0,-33,-35,-33,-89c0,0,0,-118,200,-226ZM588,-60c0,0,-154,0,-274,93c0,0,-120,94,-120,207c0,0,0,50,28,92C222,332,61,440,61,552c0,0,0,71,56,122c0,0,56,50,169,50H417l64,-98L463,600H333c0,0,-157,-1,-157,-99c0,0,0,-59,88,-124c0,0,68,52,164,52c0,0,38,0,79,-9l71,-88L558,299c0,0,-46,10,-81,10c0,0,-75,0,-116,-36c0,0,-40,-36,-40,-88c0,0,0,-78,73,-130c0,0,54,-17,109,-17c0,0,114,0,211,54c0,0,97,53,154,145c0,0,-156,96,-223,173c0,0,-67,77,-67,155c0,0,0,72,48,124c0,0,48,52,126,55v78H0l-45,76l14,31H1123l46,-76l-14,-31H805l66,-58V717c0,0,76,-40,124,-124c0,0,47,-84,47,-193c0,0,0,-188,-133,-324C909,76,776,-60,588,-60Z"
id="f6_bf"
transform="scale(0.001,-0.001)"/>

<path d="M547,-285c0,0,-66,25,-102,80c0,0,32,69,82,101c0,0,55,-20,99,-80c0,0,-26,-67,-79,-101Zm1,228c0,0,-122,0,-243,81c0,0,-122,81,-252,280l57,41C110,345,283,64,498,64c0,0,92,0,153,49c0,0,61,49,61,121c0,0,0,46,-28,84L440,237c0,0,-73,11,-139,55c0,0,-66,44,-105,105c0,0,-40,61,-40,119c0,0,0,72,62,125c0,0,62,53,184,53H625V822H0l-45,76l14,31H906l46,-76L938,822H678l66,-58V562H431c0,0,-164,0,-164,-99c0,0,0,-55,57,-102l261,82c0,0,104,-21,172,-98c0,0,68,-78,68,-171c0,0,0,-99,-76,-166c0,0,-77,-65,-201,-65Z"
id="f6_ch"
transform="scale(0.001,-0.001)"/>

<path d="M374,248c0,0,77,0,149,36c0,0,71,37,110,107V822H284c0,0,138,-96,138,-208c0,0,0,-151,-228,-192c0,0,29,-104,89,-158c0,0,41,-16,91,-16ZM723,-49L633,8V200c0,0,-69,-56,-170,-56c0,0,-122,0,-240,94c0,0,-118,94,-179,237l20,55c0,0,133,17,187,44c0,0,55,28,55,84c0,0,0,45,-30,81c0,0,-30,36,-99,83H0l-45,76l14,31H897l46,-76L929,822H694l65,-58V-39L723,-49Z"
id="f6_c0"
transform="scale(0.001,-0.001)"/>

<path d="M388,325c0,0,58,0,112,31c0,0,53,31,84,86V822H165l69,-58V408c0,0,47,-83,154,-83ZM674,-49L584,8V257c0,0,-61,-51,-141,-51c0,0,-125,0,-232,109c0,0,-107,108,-107,243V822H0l-45,76l14,31H848l46,-76L880,822H645l65,-58V-39L674,-49Z"
id="f6_bv"
transform="scale(0.001,-0.001)"/>

<path d="M483,-305L295,-10c0,0,-90,22,-156,74l41,170h66L351,63c0,0,126,4,207,62c0,0,82,58,82,139c0,0,0,37,-18,71L365,266c0,0,-110,15,-197,102c0,0,-87,87,-87,176c0,0,0,69,59,117c0,0,59,48,172,48H550V822H0l-45,76l14,31H822l46,-76L854,822H603l66,-58V585H373c0,0,-184,0,-184,-99c0,0,0,-48,63,-101l310,78c0,0,86,-34,141,-99c0,0,55,-65,55,-142c0,0,0,-109,-98,-179c0,0,-98,-69,-254,-69L599,-216L483,-305Z"
id="f6_an"
transform="scale(0.001,-0.001)"/>

<path d="M67,0L58,52c0,0,105,40,209,64V851L81,762L38,831l294,193l71,-39V99L591,73L582,0Z"
id="f6_p"
transform="scale(0.001,-0.001)"/>

<path d="M856,445L840,822H350l66,-55V564c0,0,0,-31,-11,-57c0,0,231,0,284,-12c0,0,54,-12,92,-50Zm450,0V822H903l66,-58l7,-319ZM527,-71L52,414l34,92H277c0,0,12,32,12,72V822H0l-45,76l14,31H1571l45,-76l-13,-31H1367l66,-58V-39l-37,-10L1306,8V328H987V180L914,150c0,0,-54,33,-114,98c0,0,-61,65,-90,125c0,0,-32,18,-105,18H335L264,316L610,34L611,8L527,-71Z"
id="f6_ki"
transform="scale(0.001,-0.001)"/>

<path d="M483,-305L295,-10c0,0,-90,22,-156,74l41,170h66L351,63c0,0,126,4,207,62c0,0,82,58,82,139c0,0,0,37,-18,71L365,266c0,0,-110,15,-197,102c0,0,-87,87,-87,176c0,0,0,69,59,117c0,0,59,48,172,48H550V822H0l-45,76l14,31H550c0,0,-142,122,-142,255c0,0,0,78,52,133c0,0,52,55,140,55c0,0,98,0,176,-64l-23,-69c0,0,-53,32,-104,32c0,0,-56,0,-94,-36c0,0,-39,-36,-39,-95c0,0,0,-109,112,-211H822l46,-76L854,822H603l66,-58V585H373c0,0,-184,0,-184,-99c0,0,0,-48,63,-101l310,78c0,0,86,-34,141,-99c0,0,55,-65,55,-142c0,0,0,-109,-98,-179c0,0,-98,-69,-254,-69L599,-216L483,-305Z"
id="f6_ao"
transform="scale(0.001,-0.001)"/>

<path d="M487,-7c0,0,-88,0,-185,46c0,0,-97,47,-163,130c0,0,-66,83,-66,185c0,0,0,109,80,177c0,0,79,68,234,68H504V822H0l-45,76l14,31H827l45,-76L859,822H565l66,-58V474l-3,1l3,-3H396c0,0,-100,0,-152,-47c0,0,-53,-48,-53,-119c0,0,0,-104,93,-178c0,0,60,-20,118,-20c0,0,81,0,156,36c0,0,76,35,123,99l92,-99C773,144,723,70,645,31C645,31,567,-7,487,-7Z"
id="f6_bk"
transform="scale(0.001,-0.001)"/>

<path d="M95,0L67,98L422,497c0,0,130,154,130,259c0,0,0,63,-40,111c0,0,-40,48,-121,48c0,0,-75,0,-171,-29L193,695l-88,2c0,0,-13,82,-13,165l1,65c0,0,159,97,315,97c0,0,122,0,207,-78c0,0,85,-77,85,-193c0,0,0,-67,-34,-133c0,0,-33,-67,-165,-217L237,121l4,-14l373,21l49,136l83,-12C746,252,732,99,704,0Z"
id="f6_q"
transform="scale(0.001,-0.001)"/>

<path d="M-234,-413c0,0,-210,0,-488,322l54,49c0,0,119,-128,209,-193c0,0,90,-65,177,-65c0,0,72,0,113,40c0,0,42,39,42,91c0,0,0,75,-78,106L-323,-181l-90,98c0,0,63,95,167,95c0,0,90,0,155,-69c0,0,66,-70,66,-164c0,0,0,-85,-60,-139c0,0,-61,-53,-149,-53Z"
id="f6_cw"
transform="scale(0.001,-0.001)"/>

<path d="M845,-49L755,8V513H497c0,0,61,-45,93,-110c0,0,33,-64,33,-128c0,0,0,-90,-58,-144c0,0,-59,-53,-143,-53c0,0,-133,0,-234,139C188,217,87,356,20,596l76,24c0,0,60,-201,127,-306c0,0,67,-105,160,-105c0,0,57,0,91,36c0,0,33,36,33,91c0,0,0,84,-73,159L295,558v71H755V822H0l-45,76l14,31H1019l46,-76l-14,-31H816l66,-58V-39L845,-49Z"
id="f6_bg"
transform="scale(0.001,-0.001)"/>

<path d="M413,-59C413,-59,53,193,53,416c0,0,0,97,66,164c0,0,66,66,156,66c0,0,61,0,110,-30l89,-93c0,0,74,108,204,108c0,0,112,0,181,-98L810,483c0,0,-54,56,-107,56c0,0,-75,0,-120,-78c0,0,-45,-78,-39,-226L507,225l-90,73c0,0,-1,95,28,171c0,0,-57,46,-123,46c0,0,-61,0,-99,-42c0,0,-38,-42,-38,-111c0,0,0,-93,71,-176c0,0,71,-84,208,-178L413,-59ZM0,822l-45,76l14,31H768l46,-76L801,822Z"
id="f6_ls"
transform="scale(0.001,-0.001)"/>

<path d="M387,-28c0,0,-158,0,-295,71l27,137c0,0,168,-84,329,-84c0,0,47,0,85,9c0,0,57,62,57,141c0,0,0,82,-66,140c0,0,-66,57,-188,57L228,438l-3,104h26c0,0,145,5,212,67c0,0,67,62,67,146c0,0,0,75,-51,123c0,0,-51,49,-143,49c0,0,-50,0,-105,-16L203,743l-88,1c0,0,-14,83,-14,139l1,58c0,0,120,83,280,83c0,0,128,0,211,-71c0,0,82,-71,82,-177c0,0,0,-73,-45,-137c0,0,-45,-65,-132,-98c0,0,96,-22,163,-103c0,0,66,-80,66,-178c0,0,0,-126,-94,-207c0,0,-95,-81,-246,-81Z"
id="f6_r"
transform="scale(0.001,-0.001)"/>

<path d="M725,307c0,0,-95,0,-218,78c0,0,-123,78,-188,78c0,0,-54,0,-95,-34c0,0,-41,-34,-73,-100L93,362c0,0,38,88,101,146c0,0,63,59,148,59c0,0,90,0,214,-78c0,0,124,-79,188,-79c0,0,63,0,106,34c0,0,42,33,85,104l60,-40c0,0,-32,-66,-101,-134c0,0,-70,-67,-169,-67Z"
id="f7_4r"
transform="scale(0.001,-0.001)"/>

<path d="M412,-18c0,0,-144,0,-239,85c0,0,-95,86,-108,222l133,18c0,0,24,-114,79,-164c0,0,55,-50,135,-50c0,0,96,0,161,65c0,0,65,66,65,163c0,0,0,92,-61,152c0,0,-60,60,-153,60c0,0,-38,0,-95,-15l15,119c0,0,13,-2,21,-2c0,0,86,0,155,45c0,0,69,44,69,137c0,0,0,74,-50,122c0,0,-50,49,-129,49c0,0,-79,0,-131,-50c0,0,-52,-49,-67,-147L78,815c0,0,25,135,112,209c0,0,87,74,217,74c0,0,89,0,164,-38c0,0,76,-39,116,-105c0,0,40,-66,40,-141c0,0,0,-70,-39,-129c0,0,-38,-58,-112,-92c0,0,97,-22,151,-93c0,0,53,-70,53,-176c0,0,0,-143,-104,-243c0,0,-105,-99,-264,-99Z"
id="f8_n"
transform="scale(0.001,-0.001)"/>

<path d="M225,0c0,0,2,129,51,312c0,0,48,183,139,352c0,0,91,170,193,286H72v129H780V975C780,975,676,864,573,680C573,680,470,495,414,301C414,301,374,163,363,0Z"
id="f8_r"
transform="scale(0.001,-0.001)"/>


</defs>
</svg>