<?xml version="1.0" encoding="UTF-8" standalone="no"?>
<!DOCTYPE svg PUBLIC "-//W3C//DTD SVG 1.1//EN"
"http://www.w3.org/Graphics/SVG/1.1/DTD/svg11.dtd">
<svg viewBox="0 0 641 910" version="1.1" xmlns="http://www.w3.org/2000/svg" xmlns:xlink="http://www.w3.org/1999/xlink">
<defs>
<clipPath id="c0_32"><path d="M0,909.8V0H641.7V909.8Z"/></clipPath>
<clipPath id="c1_32"><path d="M0,908.6V0H641.7V908.6Z"/></clipPath>
<style type="text/css"><![CDATA[
.g0_32{
fill: #FFFFFF;
}
.g1_32{
}
]]></style>
</defs>
<path d="M0,0H641.7V909.8H0V0Z" class="g0_32"/>
<path d="M0,0H641.7V909.8H0V0Z" class="g0_32"/>
<g clip-path="url(#c0_32)">
<path d="M0,-22744.7H641.7V83700.8H0V-22744.7Z" class="g0_32"/>
</g>
<path d="M0,0H641.7V908.6H0V0Z" class="g0_32"/>
<path d="M19.5,60.7H602.7v1.2H19.5V60.7Z" class="g1_32"/>
<g clip-path="url(#c1_32)">
<path d="M0,61.9H641.7V909.8H0V61.9Z" class="g0_32"/>
<g fill="#000000" >
<use xlink:href="#f5_by" transform="matrix(14,0,0,14,244.4,82.5)" />
<use xlink:href="#f5_nz" transform="matrix(14,0,0,14,259.4,82.5)" />
<use xlink:href="#f5_l1" transform="matrix(14,0,0,14,265.8,82.5)" />
<use xlink:href="#f5_bp" transform="matrix(14,0,0,14,278.7,82.5)" />
<use xlink:href="#f5_b9" transform="matrix(14,0,0,14,297.8,82.5)" />
<use xlink:href="#f5_oc" transform="matrix(14,0,0,14,315.3,82.5)" />
<use xlink:href="#f5_cc" transform="matrix(14,0,0,14,327.4,82.5)" />
<use xlink:href="#f5_d5" transform="matrix(14,0,0,14,340.3,82.5)" />
<use xlink:href="#f5_c1" transform="matrix(14,0,0,14,345.7,82.5)" />
<use xlink:href="#f5_ct" transform="matrix(14,0,0,14,355.9,82.5)" />
<use xlink:href="#f5_bp" transform="matrix(14,0,0,14,362.4,82.5)" />
<use xlink:href="#f6_by" transform="matrix(14,0,0,14,156.1,116.9)" />
<use xlink:href="#f6_o0" transform="matrix(14,0,0,14,170.1,116.9)" />
<use xlink:href="#f6_l1" transform="matrix(14,0,0,14,175.7,116.9)" />
<use xlink:href="#f6_bp" transform="matrix(14,0,0,14,187.6,116.9)" />
<use xlink:href="#f6_b9" transform="matrix(14,0,0,14,205.6,116.9)" />
<use xlink:href="#f6_oc" transform="matrix(14,0,0,14,221.1,116.9)" />
<use xlink:href="#f6_cc" transform="matrix(14,0,0,14,232.3,116.9)" />
<use xlink:href="#f6_d5" transform="matrix(14,0,0,14,244.3,116.9)" />
<use xlink:href="#f6_c1" transform="matrix(14,0,0,14,249.6,116.9)" />
<use xlink:href="#f6_ct" transform="matrix(14,0,0,14,258,116.9)" />
<use xlink:href="#f6_bp" transform="matrix(14,0,0,14,263.6,116.9)" />
<use xlink:href="#f6_k" transform="matrix(14,0,0,14,275.9,116.9)" />
<use xlink:href="#f6_br" transform="matrix(14,0,0,14,286.8,116.9)" />
<use xlink:href="#f6_ct" transform="matrix(14,0,0,14,298.5,116.9)" />
<use xlink:href="#f6_br" transform="matrix(14,0,0,14,304.1,116.9)" />
<use xlink:href="#f6_ct" transform="matrix(14,0,0,14,315.8,116.9)" />
<use xlink:href="#f6_am" transform="matrix(14,0,0,14,327.1,116.9)" />
<use xlink:href="#f6_bg" transform="matrix(14,0,0,14,348.6,116.9)" />
<use xlink:href="#f6_bq" transform="matrix(14,0,0,14,368.5,116.9)" />
<use xlink:href="#f6_ct" transform="matrix(14,0,0,14,381.7,116.9)" />
<use xlink:href="#f6_bt" transform="matrix(14,0,0,14,387.3,116.9)" />
<use xlink:href="#f6_d4" transform="matrix(14,0,0,14,399.1,116.9)" />
<use xlink:href="#f6_am" transform="matrix(14,0,0,14,404.7,116.9)" />
<use xlink:href="#f6_bt" transform="matrix(14,0,0,14,426.1,116.9)" />
<use xlink:href="#f6_d8" transform="matrix(14,0,0,14,437.9,116.9)" />
<use xlink:href="#f6_cc" transform="matrix(14,0,0,14,449.2,116.9)" />
<use xlink:href="#f6_d5" transform="matrix(14,0,0,14,461.1,116.9)" />
<use xlink:href="#f6_k" transform="matrix(14,0,0,14,460.8,116.9)" />
<use xlink:href="#f6_bq" transform="matrix(14,0,0,14,167.6,142.1)" />
<use xlink:href="#f6_ct" transform="matrix(14,0,0,14,180.8,142.1)" />
<use xlink:href="#f6_bt" transform="matrix(14,0,0,14,186.4,142.1)" />
<use xlink:href="#f6_d4" transform="matrix(14,0,0,14,198.3,142.1)" />
<use xlink:href="#f6_b9" transform="matrix(14,0,0,14,203.8,142.1)" />
<use xlink:href="#f6_ct" transform="matrix(14,0,0,14,219.3,142.1)" />
<use xlink:href="#f6_oh" transform="matrix(14,0,0,14,222.2,142.5)" />
<use xlink:href="#f6_c3" transform="matrix(14,0,0,14,224.9,142.1)" />
<use xlink:href="#f6_cu" transform="matrix(14,0,0,14,245.3,142.1)" />
<use xlink:href="#f6_bt" transform="matrix(14,0,0,14,250.9,142.1)" />
<use xlink:href="#f6_by" transform="matrix(14,0,0,14,262.6,142.1)" />
<use xlink:href="#f6_ct" transform="matrix(14,0,0,14,276.6,142.1)" />
<use xlink:href="#f6_bt" transform="matrix(14,0,0,14,282.2,142.1)" />
<use xlink:href="#f6_d8" transform="matrix(14,0,0,14,293.9,142.1)" />
<use xlink:href="#f6_cc" transform="matrix(14,0,0,14,305.2,142.1)" />
<use xlink:href="#f6_d5" transform="matrix(14,0,0,14,317.2,142.1)" />
<use xlink:href="#f6_k" transform="matrix(14,0,0,14,316.8,142.1)" />
<use xlink:href="#f6_by" transform="matrix(14,0,0,14,327.7,142.1)" />
<use xlink:href="#f6_o0" transform="matrix(14,0,0,14,341.6,142.1)" />
<use xlink:href="#f6_l1" transform="matrix(14,0,0,14,347.3,142.1)" />
<use xlink:href="#f6_bp" transform="matrix(14,0,0,14,359.1,142.1)" />
<use xlink:href="#f6_b9" transform="matrix(14,0,0,14,377.1,142.1)" />
<use xlink:href="#f6_oc" transform="matrix(14,0,0,14,392.6,142.1)" />
<use xlink:href="#f6_cc" transform="matrix(14,0,0,14,403.9,142.1)" />
<use xlink:href="#f6_d5" transform="matrix(14,0,0,14,415.8,142.1)" />
<use xlink:href="#f6_c1" transform="matrix(14,0,0,14,421.2,142.1)" />
<use xlink:href="#f6_ct" transform="matrix(14,0,0,14,429.5,142.1)" />
<use xlink:href="#f6_bp" transform="matrix(14,0,0,14,435.2,142.1)" />
<use xlink:href="#f6_k" transform="matrix(14,0,0,14,447.5,142.1)" />
<use xlink:href="#f6_br" transform="matrix(14,0,0,14,135.5,201.7)" />
<use xlink:href="#f6_c1" transform="matrix(14,0,0,14,147.2,201.7)" />
<use xlink:href="#f6_bx" transform="matrix(14,0,0,14,155.6,201.7)" />
<use xlink:href="#f6_ct" transform="matrix(14,0,0,14,167.9,201.7)" />
<use xlink:href="#f6_c1" transform="matrix(14,0,0,14,173.5,201.7)" />
<use xlink:href="#f6_e6" transform="matrix(14,0,0,14,187.5,201.7)" />
<use xlink:href="#f6_by" transform="matrix(14,0,0,14,199.6,201.7)" />
<use xlink:href="#f6_cw" transform="matrix(14,0,0,14,214.1,201.6)" />
<use xlink:href="#f6_c7" transform="matrix(14,0,0,14,213.6,201.7)" />
<use xlink:href="#f6_c1" transform="matrix(14,0,0,14,225.6,201.7)" />
<use xlink:href="#f6_ay" transform="matrix(14,0,0,14,239.7,201.7)" />
<use xlink:href="#f6_cb" transform="matrix(14,0,0,14,251.5,201.7)" />
<use xlink:href="#f6_d8" transform="matrix(14,0,0,14,266.4,201.7)" />
<use xlink:href="#f6_cb" transform="matrix(14,0,0,14,277.7,201.7)" />
<use xlink:href="#f6_iz" transform="matrix(14,0,0,14,292.6,201.7)" />
<use xlink:href="#f6_d8" transform="matrix(14,0,0,14,314.8,201.7)" />
<use xlink:href="#f6_ll" transform="matrix(14,0,0,14,326.1,201.7)" />
<use xlink:href="#f6_c0" transform="matrix(14,0,0,14,332.5,201.7)" />
<use xlink:href="#f6_ct" transform="matrix(14,0,0,14,345.1,201.7)" />
<use xlink:href="#f6_c1" transform="matrix(14,0,0,14,350.7,201.7)" />
<use xlink:href="#f6_d8" transform="matrix(14,0,0,14,359.1,201.7)" />
<use xlink:href="#f6_k" transform="matrix(14,0,0,14,364.7,201.7)" />
<use xlink:href="#f6_br" transform="matrix(14,0,0,14,375.6,201.7)" />
<use xlink:href="#f6_c0" transform="matrix(14,0,0,14,387.3,201.7)" />
<use xlink:href="#f6_ct" transform="matrix(14,0,0,14,399.8,201.7)" />
<use xlink:href="#f6_c3" transform="matrix(14,0,0,14,405.4,201.7)" />
<use xlink:href="#f6_cw" transform="matrix(14,0,0,14,420.7,201.6)" />
<use xlink:href="#f6_am" transform="matrix(14,0,0,14,425.8,201.7)" />
<use xlink:href="#f6_bv" transform="matrix(14,0,0,14,447.3,201.7)" />
<use xlink:href="#f6_b9" transform="matrix(14,0,0,14,459.2,201.7)" />
<use xlink:href="#f6_d8" transform="matrix(14,0,0,14,474.7,201.7)" />
<use xlink:href="#f6_k" transform="matrix(14,0,0,14,480.3,201.7)" />
<use xlink:href="#f6_cb" transform="matrix(14,0,0,14,113.7,226.9)" />
<use xlink:href="#f6_d4" transform="matrix(14,0,0,14,128.8,226.9)" />
<use xlink:href="#f6_c7" transform="matrix(14,0,0,14,128.6,226.9)" />
<use xlink:href="#f6_ct" transform="matrix(14,0,0,14,140.7,226.9)" />
<use xlink:href="#f6_bz" transform="matrix(14,0,0,14,152,226.9)" />
<use xlink:href="#f6_oz" transform="matrix(14,0,0,14,165.5,226.9)" />
<use xlink:href="#f6_br" transform="matrix(14,0,0,14,171,226.9)" />
<use xlink:href="#f6_ct" transform="matrix(14,0,0,14,182.7,226.9)" />
<use xlink:href="#f6_br" transform="matrix(14,0,0,14,188.3,226.9)" />
<use xlink:href="#f6_ct" transform="matrix(14,0,0,14,200,226.9)" />
<use xlink:href="#f6_cb" transform="matrix(14,0,0,14,211.2,226.9)" />
<use xlink:href="#f6_bb" transform="matrix(14,0,0,14,226.1,226.9)" />
<use xlink:href="#f6_c3" transform="matrix(14,0,0,14,238.7,226.9)" />
<use xlink:href="#f6_ct" transform="matrix(14,0,0,14,253.4,226.9)" />
<use xlink:href="#f6_ba" transform="matrix(14,0,0,14,264.7,226.9)" />
<use xlink:href="#f6_ch" transform="matrix(14,0,0,14,281.4,226.9)" />
<use xlink:href="#f6_ct" transform="matrix(14,0,0,14,294.1,226.9)" />
<use xlink:href="#f6_cc" transform="matrix(14,0,0,14,305.4,226.9)" />
<use xlink:href="#f6_d5" transform="matrix(14,0,0,14,317.4,226.9)" />
<use xlink:href="#f6_am" transform="matrix(14,0,0,14,322.7,226.9)" />
<use xlink:href="#f6_bg" transform="matrix(14,0,0,14,344.2,226.9)" />
<use xlink:href="#f6_k" transform="matrix(14,0,0,14,358.4,226.9)" />
<use xlink:href="#f6_n5" transform="matrix(14,0,0,14,369.3,226.9)" />
<use xlink:href="#f6_di" transform="matrix(14,0,0,14,381.3,227.3)" />
<use xlink:href="#f6_b9" transform="matrix(14,0,0,14,380.9,226.9)" />
<use xlink:href="#f6_cw" transform="matrix(14,0,0,14,392,226.8)" />
<use xlink:href="#f6_bz" transform="matrix(14,0,0,14,396.4,226.9)" />
<use xlink:href="#f6_bx" transform="matrix(14,0,0,14,415.4,226.9)" />
<use xlink:href="#f6_cb" transform="matrix(14,0,0,14,427.7,226.9)" />
<use xlink:href="#f6_am" transform="matrix(14,0,0,14,448.2,226.9)" />
<use xlink:href="#f6_bv" transform="matrix(14,0,0,14,469.7,226.9)" />
<use xlink:href="#f6_b9" transform="matrix(14,0,0,14,481.6,226.9)" />
<use xlink:href="#f6_d8" transform="matrix(14,0,0,14,497.1,226.9)" />
<use xlink:href="#f6_k" transform="matrix(14,0,0,14,502.7,226.9)" />
<use xlink:href="#f6_cb" transform="matrix(14,0,0,14,252.4,252.1)" />
<use xlink:href="#f6_d4" transform="matrix(14,0,0,14,267.4,252.1)" />
<use xlink:href="#f6_c7" transform="matrix(14,0,0,14,267.3,252.1)" />
<use xlink:href="#f6_ct" transform="matrix(14,0,0,14,279.3,252.1)" />
<use xlink:href="#f6_bz" transform="matrix(14,0,0,14,290.6,252.1)" />
<use xlink:href="#f6_oz" transform="matrix(14,0,0,14,304.1,252.1)" />
<use xlink:href="#f6_bq" transform="matrix(14,0,0,14,309.6,252.1)" />
<use xlink:href="#f6_ct" transform="matrix(14,0,0,14,322.8,252.1)" />
<use xlink:href="#f6_c1" transform="matrix(14,0,0,14,328.4,252.1)" />
<use xlink:href="#f6_cv" transform="matrix(14,0,0,14,336.8,252.1)" />
<use xlink:href="#f6_8l" transform="matrix(14,0,0,14,348.1,252.1)" />
<use xlink:href="#f6_cb" transform="matrix(14,0,0,14,164.2,286.5)" />
<use xlink:href="#f6_d4" transform="matrix(14,0,0,14,179.2,286.5)" />
<use xlink:href="#f6_c7" transform="matrix(14,0,0,14,179,286.5)" />
<use xlink:href="#f6_ct" transform="matrix(14,0,0,14,191.1,286.5)" />
<use xlink:href="#f6_bz" transform="matrix(14,0,0,14,202.4,286.5)" />
<use xlink:href="#f6_oz" transform="matrix(14,0,0,14,215.9,286.5)" />
<use xlink:href="#f6_bq" transform="matrix(14,0,0,14,221.4,286.5)" />
<use xlink:href="#f6_ct" transform="matrix(14,0,0,14,234.6,286.5)" />
<use xlink:href="#f6_c1" transform="matrix(14,0,0,14,240.2,286.5)" />
<use xlink:href="#f6_cv" transform="matrix(14,0,0,14,248.6,286.5)" />
<use xlink:href="#f6_k" transform="matrix(14,0,0,14,254.2,286.5)" />
<use xlink:href="#f6_lq" transform="matrix(14,0,0,14,265.1,286.5)" />
<use xlink:href="#f6_cc" transform="matrix(14,0,0,14,271.8,286.5)" />
<use xlink:href="#f6_ct" transform="matrix(14,0,0,14,283.4,286.5)" />
<use xlink:href="#f6_bt" transform="matrix(14,0,0,14,289,286.5)" />
<use xlink:href="#f6_d4" transform="matrix(14,0,0,14,300.8,286.5)" />
<use xlink:href="#f6_am" transform="matrix(14,0,0,14,306.4,286.5)" />
<use xlink:href="#f6_bg" transform="matrix(14,0,0,14,327.9,286.5)" />
<use xlink:href="#f6_cu" transform="matrix(14,0,0,14,347.8,286.5)" />
<use xlink:href="#f6_bx" transform="matrix(14,0,0,14,353.4,286.5)" />
<use xlink:href="#f6_ir" transform="matrix(14,0,0,14,365.7,286.5)" />
<use xlink:href="#f6_bg" transform="matrix(14,0,0,14,396.3,286.5)" />
<use xlink:href="#f6_ct" transform="matrix(14,0,0,14,410.6,286.5)" />
<use xlink:href="#f6_bt" transform="matrix(14,0,0,14,416.2,286.5)" />
<use xlink:href="#f6_d8" transform="matrix(14,0,0,14,427.9,286.5)" />
<use xlink:href="#f6_cc" transform="matrix(14,0,0,14,439.2,286.5)" />
<use xlink:href="#f6_d5" transform="matrix(14,0,0,14,451.2,286.5)" />
<use xlink:href="#f6_k" transform="matrix(14,0,0,14,450.8,286.5)" />
<use xlink:href="#f6_bq" transform="matrix(14,0,0,14,163,311.7)" />
<use xlink:href="#f6_ct" transform="matrix(14,0,0,14,176.2,311.7)" />
<use xlink:href="#f6_bt" transform="matrix(14,0,0,14,181.8,311.7)" />
<use xlink:href="#f6_d4" transform="matrix(14,0,0,14,193.7,311.7)" />
<use xlink:href="#f6_2j" transform="matrix(14,0,0,14,199.2,311.7)" />
<use xlink:href="#f6_b9" transform="matrix(14,0,0,14,208.2,311.7)" />
<use xlink:href="#f6_ct" transform="matrix(14,0,0,14,223.7,311.7)" />
<use xlink:href="#f6_oh" transform="matrix(14,0,0,14,226.6,312.1)" />
<use xlink:href="#f6_c3" transform="matrix(14,0,0,14,229.3,311.7)" />
<use xlink:href="#f6_cu" transform="matrix(14,0,0,14,249.7,311.7)" />
<use xlink:href="#f6_bt" transform="matrix(14,0,0,14,255.3,311.7)" />
<use xlink:href="#f6_by" transform="matrix(14,0,0,14,267,311.7)" />
<use xlink:href="#f6_ct" transform="matrix(14,0,0,14,280.9,311.7)" />
<use xlink:href="#f6_bt" transform="matrix(14,0,0,14,286.6,311.7)" />
<use xlink:href="#f6_d8" transform="matrix(14,0,0,14,298.3,311.7)" />
<use xlink:href="#f6_cc" transform="matrix(14,0,0,14,309.6,311.7)" />
<use xlink:href="#f6_d5" transform="matrix(14,0,0,14,321.5,311.7)" />
<use xlink:href="#f6_k" transform="matrix(14,0,0,14,321.2,311.7)" />
<use xlink:href="#f6_by" transform="matrix(14,0,0,14,332.1,311.7)" />
<use xlink:href="#f6_o0" transform="matrix(14,0,0,14,346,311.7)" />
<use xlink:href="#f6_l1" transform="matrix(14,0,0,14,351.6,311.7)" />
<use xlink:href="#f6_bp" transform="matrix(14,0,0,14,363.5,311.7)" />
<use xlink:href="#f6_b9" transform="matrix(14,0,0,14,381.5,311.7)" />
<use xlink:href="#f6_oc" transform="matrix(14,0,0,14,397,311.7)" />
<use xlink:href="#f6_cc" transform="matrix(14,0,0,14,408.3,311.7)" />
<use xlink:href="#f6_d5" transform="matrix(14,0,0,14,420.2,311.7)" />
<use xlink:href="#f6_c1" transform="matrix(14,0,0,14,425.5,311.7)" />
<use xlink:href="#f6_ct" transform="matrix(14,0,0,14,433.9,311.7)" />
<use xlink:href="#f6_bp" transform="matrix(14,0,0,14,439.5,311.7)" />
<use xlink:href="#f6_k" transform="matrix(14,0,0,14,451.9,311.7)" />
<use xlink:href="#f6_by" transform="matrix(14,0,0,14,240.9,336.9)" />
<use xlink:href="#f6_o0" transform="matrix(14,0,0,14,254.9,336.9)" />
<use xlink:href="#f6_l1" transform="matrix(14,0,0,14,260.5,336.9)" />
<use xlink:href="#f6_bp" transform="matrix(14,0,0,14,272.4,336.9)" />
<use xlink:href="#f6_b9" transform="matrix(14,0,0,14,290.4,336.9)" />
<use xlink:href="#f6_oc" transform="matrix(14,0,0,14,305.9,336.9)" />
<use xlink:href="#f6_cc" transform="matrix(14,0,0,14,317.1,336.9)" />
<use xlink:href="#f6_d5" transform="matrix(14,0,0,14,329.1,336.9)" />
<use xlink:href="#f6_c1" transform="matrix(14,0,0,14,334.4,336.9)" />
<use xlink:href="#f6_ct" transform="matrix(14,0,0,14,342.8,336.9)" />
<use xlink:href="#f6_bp" transform="matrix(14,0,0,14,348.4,336.9)" />
<use xlink:href="#f6_8l" transform="matrix(14,0,0,14,360.7,336.9)" />
<use xlink:href="#f6_by" transform="matrix(14,0,0,14,101.1,371.3)" />
<use xlink:href="#f6_o0" transform="matrix(14,0,0,14,115.1,371.3)" />
<use xlink:href="#f6_l1" transform="matrix(14,0,0,14,120.7,371.3)" />
<use xlink:href="#f6_bp" transform="matrix(14,0,0,14,132.6,371.3)" />
<use xlink:href="#f6_b9" transform="matrix(14,0,0,14,150.6,371.3)" />
<use xlink:href="#f6_oc" transform="matrix(14,0,0,14,166.1,371.3)" />
<use xlink:href="#f6_cc" transform="matrix(14,0,0,14,177.3,371.3)" />
<use xlink:href="#f6_d5" transform="matrix(14,0,0,14,189.3,371.3)" />
<use xlink:href="#f6_bp" transform="matrix(14,0,0,14,194.6,371.3)" />
<use xlink:href="#f6_d5" transform="matrix(14,0,0,14,207.1,371.3)" />
<use xlink:href="#f6_c0" transform="matrix(14,0,0,14,206.9,371.3)" />
<use xlink:href="#f6_ct" transform="matrix(14,0,0,14,219.5,371.3)" />
<use xlink:href="#f6_c1" transform="matrix(14,0,0,14,225.1,371.3)" />
<use xlink:href="#f6_cv" transform="matrix(14,0,0,14,233.5,371.3)" />
<use xlink:href="#f6_k" transform="matrix(14,0,0,14,239.1,371.3)" />
<use xlink:href="#f6_by" transform="matrix(14,0,0,14,250,371.3)" />
<use xlink:href="#f6_o0" transform="matrix(14,0,0,14,263.9,371.3)" />
<use xlink:href="#f6_l1" transform="matrix(14,0,0,14,269.6,371.3)" />
<use xlink:href="#f6_bp" transform="matrix(14,0,0,14,281.4,371.3)" />
<use xlink:href="#f6_b9" transform="matrix(14,0,0,14,299.4,371.3)" />
<use xlink:href="#f6_c1" transform="matrix(14,0,0,14,314.9,371.3)" />
<use xlink:href="#f6_ct" transform="matrix(14,0,0,14,323.3,371.3)" />
<use xlink:href="#f6_bg" transform="matrix(14,0,0,14,334.6,371.3)" />
<use xlink:href="#f6_bz" transform="matrix(14,0,0,14,348.8,371.3)" />
<use xlink:href="#f6_b9" transform="matrix(14,0,0,14,362.2,371.3)" />
<use xlink:href="#f6_c1" transform="matrix(14,0,0,14,377.7,371.3)" />
<use xlink:href="#f6_k" transform="matrix(14,0,0,14,386,371.3)" />
<use xlink:href="#f6_e6" transform="matrix(14,0,0,14,396.9,371.3)" />
<use xlink:href="#f6_by" transform="matrix(14,0,0,14,409,371.3)" />
<use xlink:href="#f6_cw" transform="matrix(14,0,0,14,423.5,371.1)" />
<use xlink:href="#f6_ik" transform="matrix(14,0,0,14,428.6,371.3)" />
<use xlink:href="#f6_cx" transform="matrix(14,0,0,14,453.6,371.1)" />
<use xlink:href="#f6_di" transform="matrix(14,0,0,14,451.9,371.7)" />
<use xlink:href="#f6_br" transform="matrix(14,0,0,14,459.3,371.3)" />
<use xlink:href="#f6_d4" transform="matrix(14,0,0,14,470.6,371.3)" />
<use xlink:href="#f6_c1" transform="matrix(14,0,0,14,471,371.3)" />
<use xlink:href="#f6_b9" transform="matrix(14,0,0,14,485,371.3)" />
<use xlink:href="#f6_c1" transform="matrix(14,0,0,14,500.5,371.3)" />
<use xlink:href="#f6_d8" transform="matrix(14,0,0,14,508.9,371.3)" />
<use xlink:href="#f6_k" transform="matrix(14,0,0,14,514.5,371.3)" />
<use xlink:href="#f6_c7" transform="matrix(14,0,0,14,119.5,396.5)" />
<use xlink:href="#f6_ct" transform="matrix(14,0,0,14,131.5,396.5)" />
<use xlink:href="#f6_br" transform="matrix(14,0,0,14,137.2,396.5)" />
<use xlink:href="#f6_d8" transform="matrix(14,0,0,14,148.8,396.5)" />
<use xlink:href="#f6_dj" transform="matrix(14,0,0,14,153.1,397.3)" />
<use xlink:href="#f6_bq" transform="matrix(14,0,0,14,160.1,396.5)" />
<use xlink:href="#f6_ct" transform="matrix(14,0,0,14,173.3,396.5)" />
<use xlink:href="#f6_c1" transform="matrix(14,0,0,14,178.9,396.5)" />
<use xlink:href="#f6_d8" transform="matrix(14,0,0,14,187.3,396.5)" />
<use xlink:href="#f6_br" transform="matrix(14,0,0,14,198.6,396.5)" />
<use xlink:href="#f6_ct" transform="matrix(14,0,0,14,210.3,396.5)" />
<use xlink:href="#f6_br" transform="matrix(14,0,0,14,215.9,396.5)" />
<use xlink:href="#f6_ct" transform="matrix(14,0,0,14,227.6,396.5)" />
<use xlink:href="#f6_k" transform="matrix(14,0,0,14,233.2,396.5)" />
<use xlink:href="#f6_by" transform="matrix(14,0,0,14,244.1,396.5)" />
<use xlink:href="#f6_o0" transform="matrix(14,0,0,14,258,396.5)" />
<use xlink:href="#f6_l1" transform="matrix(14,0,0,14,263.7,396.5)" />
<use xlink:href="#f6_bp" transform="matrix(14,0,0,14,275.5,396.5)" />
<use xlink:href="#f6_bz" transform="matrix(14,0,0,14,293.5,396.5)" />
<use xlink:href="#f6_oz" transform="matrix(14,0,0,14,307,396.5)" />
<use xlink:href="#f6_am" transform="matrix(14,0,0,14,312.5,396.5)" />
<use xlink:href="#f6_bt" transform="matrix(14,0,0,14,334,396.5)" />
<use xlink:href="#f6_d4" transform="matrix(14,0,0,14,345.8,396.5)" />
<use xlink:href="#f6_b9" transform="matrix(14,0,0,14,351.4,396.5)" />
<use xlink:href="#f6_oc" transform="matrix(14,0,0,14,366.9,396.5)" />
<use xlink:href="#f6_bc" transform="matrix(14,0,0,14,378.2,396.5)" />
<use xlink:href="#f6_bt" transform="matrix(14,0,0,14,392,396.5)" />
<use xlink:href="#f6_cv" transform="matrix(14,0,0,14,403.8,396.5)" />
<use xlink:href="#f6_ik" transform="matrix(14,0,0,14,415.1,396.5)" />
<use xlink:href="#f6_cx" transform="matrix(14,0,0,14,440,396.4)" />
<use xlink:href="#f6_di" transform="matrix(14,0,0,14,438.3,396.9)" />
<use xlink:href="#f6_br" transform="matrix(14,0,0,14,445.7,396.5)" />
<use xlink:href="#f6_d4" transform="matrix(14,0,0,14,457,396.5)" />
<use xlink:href="#f6_c1" transform="matrix(14,0,0,14,457.4,396.5)" />
<use xlink:href="#f6_b9" transform="matrix(14,0,0,14,471.5,396.5)" />
<use xlink:href="#f6_c1" transform="matrix(14,0,0,14,487,396.5)" />
<use xlink:href="#f6_d8" transform="matrix(14,0,0,14,495.3,396.5)" />
<use xlink:href="#f6_by" transform="matrix(14,0,0,14,248.9,421.7)" />
<use xlink:href="#f6_bg" transform="matrix(14,0,0,14,262.9,421.7)" />
<use xlink:href="#f6_bt" transform="matrix(14,0,0,14,277.2,421.7)" />
<use xlink:href="#f6_ct" transform="matrix(14,0,0,14,288.9,421.7)" />
<use xlink:href="#f6_cb" transform="matrix(14,0,0,14,300.2,421.7)" />
<use xlink:href="#f6_cx" transform="matrix(14,0,0,14,315,421.6)" />
<use xlink:href="#f6_bq" transform="matrix(14,0,0,14,320.7,421.7)" />
<use xlink:href="#f6_ct" transform="matrix(14,0,0,14,333.9,421.7)" />
<use xlink:href="#f6_bt" transform="matrix(14,0,0,14,339.5,421.7)" />
<use xlink:href="#f6_d4" transform="matrix(14,0,0,14,351.4,421.7)" />
<use xlink:href="#f6_8l" transform="matrix(14,0,0,14,351.2,421.7)" />
<use xlink:href="#f6_by" transform="matrix(14,0,0,14,174.5,456)" />
<use xlink:href="#f6_bg" transform="matrix(14,0,0,14,188.4,456)" />
<use xlink:href="#f6_bt" transform="matrix(14,0,0,14,202.7,456)" />
<use xlink:href="#f6_ct" transform="matrix(14,0,0,14,214.4,456)" />
<use xlink:href="#f6_cb" transform="matrix(14,0,0,14,225.7,456)" />
<use xlink:href="#f6_cx" transform="matrix(14,0,0,14,240.5,456)" />
<use xlink:href="#f6_bq" transform="matrix(14,0,0,14,246.2,456)" />
<use xlink:href="#f6_ct" transform="matrix(14,0,0,14,259.4,456)" />
<use xlink:href="#f6_bt" transform="matrix(14,0,0,14,265,456)" />
<use xlink:href="#f6_d4" transform="matrix(14,0,0,14,276.9,456)" />
<use xlink:href="#f6_k" transform="matrix(14,0,0,14,276.8,456)" />
<use xlink:href="#f6_lq" transform="matrix(14,0,0,14,287.6,456)" />
<use xlink:href="#f6_cc" transform="matrix(14,0,0,14,294.3,456)" />
<use xlink:href="#f6_ct" transform="matrix(14,0,0,14,305.9,456)" />
<use xlink:href="#f6_bt" transform="matrix(14,0,0,14,311.5,456)" />
<use xlink:href="#f6_d4" transform="matrix(14,0,0,14,323.4,456)" />
<use xlink:href="#f6_am" transform="matrix(14,0,0,14,328.9,456)" />
<use xlink:href="#f6_bg" transform="matrix(14,0,0,14,350.4,456)" />
<use xlink:href="#f6_nr" transform="matrix(14,0,0,14,370.3,456)" />
<use xlink:href="#f6_c1" transform="matrix(14,0,0,14,375.9,456)" />
<use xlink:href="#f6_bh" transform="matrix(14,0,0,14,384.3,456)" />
<use xlink:href="#f6_ct" transform="matrix(14,0,0,14,401.1,456)" />
<use xlink:href="#f6_bt" transform="matrix(14,0,0,14,406.7,456)" />
<use xlink:href="#f6_d8" transform="matrix(14,0,0,14,418.4,456)" />
<use xlink:href="#f6_cc" transform="matrix(14,0,0,14,429.7,456)" />
<use xlink:href="#f6_d5" transform="matrix(14,0,0,14,441.7,456)" />
<use xlink:href="#f6_k" transform="matrix(14,0,0,14,441.3,456)" />
<use xlink:href="#f6_bq" transform="matrix(14,0,0,14,167.6,481.3)" />
<use xlink:href="#f6_ct" transform="matrix(14,0,0,14,180.8,481.3)" />
<use xlink:href="#f6_bt" transform="matrix(14,0,0,14,186.4,481.3)" />
<use xlink:href="#f6_d4" transform="matrix(14,0,0,14,198.3,481.3)" />
<use xlink:href="#f6_b9" transform="matrix(14,0,0,14,203.8,481.3)" />
<use xlink:href="#f6_ct" transform="matrix(14,0,0,14,219.3,481.3)" />
<use xlink:href="#f6_oh" transform="matrix(14,0,0,14,222.2,481.7)" />
<use xlink:href="#f6_c3" transform="matrix(14,0,0,14,224.9,481.3)" />
<use xlink:href="#f6_cu" transform="matrix(14,0,0,14,245.3,481.3)" />
<use xlink:href="#f6_bt" transform="matrix(14,0,0,14,250.9,481.3)" />
<use xlink:href="#f6_by" transform="matrix(14,0,0,14,262.6,481.3)" />
<use xlink:href="#f6_ct" transform="matrix(14,0,0,14,276.6,481.3)" />
<use xlink:href="#f6_bt" transform="matrix(14,0,0,14,282.2,481.3)" />
<use xlink:href="#f6_d8" transform="matrix(14,0,0,14,293.9,481.3)" />
<use xlink:href="#f6_cc" transform="matrix(14,0,0,14,305.2,481.3)" />
<use xlink:href="#f6_d5" transform="matrix(14,0,0,14,317.2,481.3)" />
<use xlink:href="#f6_k" transform="matrix(14,0,0,14,316.8,481.3)" />
<use xlink:href="#f6_by" transform="matrix(14,0,0,14,327.7,481.3)" />
<use xlink:href="#f6_o0" transform="matrix(14,0,0,14,341.6,481.3)" />
<use xlink:href="#f6_l1" transform="matrix(14,0,0,14,347.3,481.3)" />
<use xlink:href="#f6_bp" transform="matrix(14,0,0,14,359.1,481.3)" />
<use xlink:href="#f6_b9" transform="matrix(14,0,0,14,377.1,481.3)" />
<use xlink:href="#f6_oc" transform="matrix(14,0,0,14,392.6,481.3)" />
<use xlink:href="#f6_cc" transform="matrix(14,0,0,14,403.9,481.3)" />
<use xlink:href="#f6_d5" transform="matrix(14,0,0,14,415.8,481.3)" />
<use xlink:href="#f6_c1" transform="matrix(14,0,0,14,421.2,481.3)" />
<use xlink:href="#f6_ct" transform="matrix(14,0,0,14,429.5,481.3)" />
<use xlink:href="#f6_bp" transform="matrix(14,0,0,14,435.2,481.3)" />
<use xlink:href="#f6_k" transform="matrix(14,0,0,14,447.5,481.3)" />
<use xlink:href="#f6_by" transform="matrix(14,0,0,14,240.9,506.5)" />
<use xlink:href="#f6_o0" transform="matrix(14,0,0,14,254.9,506.5)" />
<use xlink:href="#f6_l1" transform="matrix(14,0,0,14,260.5,506.5)" />
<use xlink:href="#f6_bp" transform="matrix(14,0,0,14,272.4,506.5)" />
<use xlink:href="#f6_b9" transform="matrix(14,0,0,14,290.4,506.5)" />
<use xlink:href="#f6_oc" transform="matrix(14,0,0,14,305.9,506.5)" />
<use xlink:href="#f6_cc" transform="matrix(14,0,0,14,317.1,506.5)" />
<use xlink:href="#f6_d5" transform="matrix(14,0,0,14,329.1,506.5)" />
<use xlink:href="#f6_c1" transform="matrix(14,0,0,14,334.4,506.5)" />
<use xlink:href="#f6_ct" transform="matrix(14,0,0,14,342.8,506.5)" />
<use xlink:href="#f6_bp" transform="matrix(14,0,0,14,348.4,506.5)" />
<use xlink:href="#f6_8l" transform="matrix(14,0,0,14,360.7,506.5)" />
<use xlink:href="#f6_bg" transform="matrix(14,0,0,14,102.3,575.2)" />
<use xlink:href="#f6_d8" transform="matrix(14,0,0,14,116.5,575.2)" />
<use xlink:href="#f6_b9" transform="matrix(14,0,0,14,127.8,575.2)" />
<use xlink:href="#f6_cw" transform="matrix(14,0,0,14,138.9,575.1)" />
<use xlink:href="#f6_bf" transform="matrix(14,0,0,14,143.3,575.2)" />
<use xlink:href="#f6_bx" transform="matrix(14,0,0,14,164.7,575.2)" />
<use xlink:href="#f6_bt" transform="matrix(14,0,0,14,177,575.2)" />
<use xlink:href="#f6_c0" transform="matrix(14,0,0,14,188.7,575.2)" />
<use xlink:href="#f6_d8" transform="matrix(14,0,0,14,201.3,575.2)" />
<use xlink:href="#f6_lq" transform="matrix(14,0,0,14,212.5,575.2)" />
<use xlink:href="#f6_cc" transform="matrix(14,0,0,14,219.2,575.2)" />
<use xlink:href="#f6_ct" transform="matrix(14,0,0,14,230.8,575.2)" />
<use xlink:href="#f6_cb" transform="matrix(14,0,0,14,236.4,575.2)" />
<use xlink:href="#f6_cw" transform="matrix(14,0,0,14,251.9,575.1)" />
<use xlink:href="#f6_k" transform="matrix(14,0,0,14,251.3,575.2)" />
<use xlink:href="#f6_al" transform="matrix(14,0,0,14,262.2,575.2)" />
<use xlink:href="#f6_bv" transform="matrix(14,0,0,14,278.1,575.2)" />
<use xlink:href="#f6_dr" transform="matrix(14,0,0,14,290.4,575.2)" />
<use xlink:href="#f6_bo" transform="matrix(14,0,0,14,289.9,575.2)" />
<use xlink:href="#f6_e6" transform="matrix(14,0,0,14,310,575.2)" />
<use xlink:href="#f6_by" transform="matrix(14,0,0,14,322,575.2)" />
<use xlink:href="#f6_cw" transform="matrix(14,0,0,14,336.5,575.1)" />
<use xlink:href="#f6_cb" transform="matrix(14,0,0,14,341.7,575.2)" />
<use xlink:href="#f6_ct" transform="matrix(14,0,0,14,356.5,575.2)" />
<use xlink:href="#f6_c1" transform="matrix(14,0,0,14,362.2,575.2)" />
<use xlink:href="#f6_d8" transform="matrix(14,0,0,14,370.5,575.2)" />
<use xlink:href="#f6_br" transform="matrix(14,0,0,14,381.8,575.2)" />
<use xlink:href="#f6_ct" transform="matrix(14,0,0,14,393.5,575.2)" />
<use xlink:href="#f6_br" transform="matrix(14,0,0,14,399.1,575.2)" />
<use xlink:href="#f6_ct" transform="matrix(14,0,0,14,410.8,575.2)" />
<use xlink:href="#f6_m1" transform="matrix(14,0,0,14,422.1,575.2)" />
<use xlink:href="#f6_c7" transform="matrix(14,0,0,14,430.9,575.2)" />
<use xlink:href="#f6_cv" transform="matrix(14,0,0,14,442.9,575.2)" />
<use xlink:href="#f6_b9" transform="matrix(14,0,0,14,448.6,575.2)" />
<use xlink:href="#f6_ct" transform="matrix(14,0,0,14,464.1,575.2)" />
<use xlink:href="#f6_c1" transform="matrix(14,0,0,14,469.7,575.2)" />
<use xlink:href="#f6_b9" transform="matrix(14,0,0,14,483.7,575.2)" />
<use xlink:href="#f6_c1" transform="matrix(14,0,0,14,499.2,575.2)" />
<use xlink:href="#f6_d8" transform="matrix(14,0,0,14,507.6,575.2)" />
<use xlink:href="#f6_k" transform="matrix(14,0,0,14,513.2,575.2)" />
<use xlink:href="#f6_bt" transform="matrix(14,0,0,14,111.5,600.4)" />
<use xlink:href="#f6_ct" transform="matrix(14,0,0,14,123.2,600.4)" />
<use xlink:href="#f6_br" transform="matrix(14,0,0,14,128.8,600.4)" />
<use xlink:href="#f6_ct" transform="matrix(14,0,0,14,140.5,600.4)" />
<use xlink:href="#f6_bt" transform="matrix(14,0,0,14,146.1,600.4)" />
<use xlink:href="#f6_cb" transform="matrix(14,0,0,14,163.5,600.4)" />
<use xlink:href="#f6_cx" transform="matrix(14,0,0,14,178.3,600.3)" />
<use xlink:href="#f6_cf" transform="matrix(14,0,0,14,184,600.4)" />
<use xlink:href="#f6_c3" transform="matrix(14,0,0,14,196.6,600.4)" />
<use xlink:href="#f6_bp" transform="matrix(14,0,0,14,211.3,600.4)" />
<use xlink:href="#f6_cv" transform="matrix(14,0,0,14,223.6,600.4)" />
<use xlink:href="#f6_cc" transform="matrix(14,0,0,14,234.9,600.4)" />
<use xlink:href="#f6_d8" transform="matrix(14,0,0,14,246.5,600.4)" />
<use xlink:href="#f6_bp" transform="matrix(14,0,0,14,252.2,600.4)" />
<use xlink:href="#f6_cv" transform="matrix(14,0,0,14,264.5,600.4)" />
<use xlink:href="#f6_cc" transform="matrix(14,0,0,14,275.8,600.4)" />
<use xlink:href="#f6_cv" transform="matrix(14,0,0,14,287.4,600.4)" />
<use xlink:href="#f6_am" transform="matrix(14,0,0,14,298.6,600.4)" />
<use xlink:href="#f6_ao" transform="matrix(14,0,0,14,320.1,600.4)" />
<use xlink:href="#f6_cc" transform="matrix(14,0,0,14,337.3,600.4)" />
<use xlink:href="#f6_d5" transform="matrix(14,0,0,14,349.2,600.4)" />
<use xlink:href="#f6_k" transform="matrix(14,0,0,14,348.9,600.4)" />
<use xlink:href="#f6_br" transform="matrix(14,0,0,14,359.8,600.4)" />
<use xlink:href="#f6_ct" transform="matrix(14,0,0,14,371.5,600.4)" />
<use xlink:href="#f6_br" transform="matrix(14,0,0,14,377.1,600.4)" />
<use xlink:href="#f6_ct" transform="matrix(14,0,0,14,388.8,600.4)" />
<use xlink:href="#f6_bz" transform="matrix(14,0,0,14,400,600.4)" />
<use xlink:href="#f6_bp" transform="matrix(14,0,0,14,413.4,600.4)" />
<use xlink:href="#f6_lh" transform="matrix(14,0,0,14,431.4,600.4)" />
<use xlink:href="#f6_c0" transform="matrix(14,0,0,14,440.6,600.4)" />
<use xlink:href="#f6_ct" transform="matrix(14,0,0,14,453.1,600.4)" />
<use xlink:href="#f6_bt" transform="matrix(14,0,0,14,458.8,600.4)" />
<use xlink:href="#f6_bs" transform="matrix(14,0,0,14,476.1,600.4)" />
<use xlink:href="#f6_c1" transform="matrix(14,0,0,14,490.1,600.4)" />
<use xlink:href="#f6_d8" transform="matrix(14,0,0,14,498.5,600.4)" />
<use xlink:href="#f6_k" transform="matrix(14,0,0,14,504.1,600.4)" />
<use xlink:href="#f6_by" transform="matrix(14,0,0,14,248.9,634.8)" />
<use xlink:href="#f6_l1" transform="matrix(14,0,0,14,262.9,634.8)" />
<use xlink:href="#f6_bp" transform="matrix(14,0,0,14,274.8,634.8)" />
<use xlink:href="#f6_c0" transform="matrix(14,0,0,14,292.8,634.8)" />
<use xlink:href="#f6_d8" transform="matrix(14,0,0,14,305.3,634.8)" />
<use xlink:href="#f6_br" transform="matrix(14,0,0,14,316.6,634.8)" />
<use xlink:href="#f6_ct" transform="matrix(14,0,0,14,328.3,634.8)" />
<use xlink:href="#f6_br" transform="matrix(14,0,0,14,333.9,634.8)" />
<use xlink:href="#f6_ct" transform="matrix(14,0,0,14,345.6,634.8)" />
<use xlink:href="#f6_8l" transform="matrix(14,0,0,14,351.2,634.8)" />
<use xlink:href="#f6_by" transform="matrix(14,0,0,14,184.8,669.2)" />
<use xlink:href="#f6_l1" transform="matrix(14,0,0,14,198.7,669.2)" />
<use xlink:href="#f6_bp" transform="matrix(14,0,0,14,210.6,669.2)" />
<use xlink:href="#f6_c0" transform="matrix(14,0,0,14,228.6,669.2)" />
<use xlink:href="#f6_d8" transform="matrix(14,0,0,14,241.1,669.2)" />
<use xlink:href="#f6_br" transform="matrix(14,0,0,14,252.4,669.2)" />
<use xlink:href="#f6_ct" transform="matrix(14,0,0,14,264.1,669.2)" />
<use xlink:href="#f6_br" transform="matrix(14,0,0,14,269.7,669.2)" />
<use xlink:href="#f6_ct" transform="matrix(14,0,0,14,281.4,669.2)" />
<use xlink:href="#f6_bq" transform="matrix(14,0,0,14,292.7,669.2)" />
<use xlink:href="#f6_ct" transform="matrix(14,0,0,14,305.9,669.2)" />
<use xlink:href="#f6_c1" transform="matrix(14,0,0,14,311.5,669.2)" />
<use xlink:href="#f6_d8" transform="matrix(14,0,0,14,319.9,669.2)" />
<use xlink:href="#f6_br" transform="matrix(14,0,0,14,331.2,669.2)" />
<use xlink:href="#f6_ct" transform="matrix(14,0,0,14,342.8,669.2)" />
<use xlink:href="#f6_cb" transform="matrix(14,0,0,14,348.4,669.2)" />
<use xlink:href="#f6_bv" transform="matrix(14,0,0,14,369,669.2)" />
<use xlink:href="#f6_cw" transform="matrix(14,0,0,14,381.4,669.1)" />
<use xlink:href="#f6_c1" transform="matrix(14,0,0,14,380.9,669.2)" />
<use xlink:href="#f6_ct" transform="matrix(14,0,0,14,389.2,669.2)" />
<use xlink:href="#f6_bo" transform="matrix(14,0,0,14,394.9,669.2)" />
<use xlink:href="#f6_d8" transform="matrix(14,0,0,14,409.2,669.2)" />
<use xlink:href="#f6_cc" transform="matrix(14,0,0,14,420.5,669.2)" />
<use xlink:href="#f6_d5" transform="matrix(14,0,0,14,432.5,669.2)" />
<use xlink:href="#f6_k" transform="matrix(14,0,0,14,432.1,669.2)" />
<use xlink:href="#f6_bq" transform="matrix(14,0,0,14,167.6,694.4)" />
<use xlink:href="#f6_ct" transform="matrix(14,0,0,14,180.8,694.4)" />
<use xlink:href="#f6_bt" transform="matrix(14,0,0,14,186.4,694.4)" />
<use xlink:href="#f6_d4" transform="matrix(14,0,0,14,198.3,694.4)" />
<use xlink:href="#f6_b9" transform="matrix(14,0,0,14,203.8,694.4)" />
<use xlink:href="#f6_ct" transform="matrix(14,0,0,14,219.3,694.4)" />
<use xlink:href="#f6_oh" transform="matrix(14,0,0,14,222.2,694.8)" />
<use xlink:href="#f6_c3" transform="matrix(14,0,0,14,224.9,694.4)" />
<use xlink:href="#f6_cu" transform="matrix(14,0,0,14,245.3,694.4)" />
<use xlink:href="#f6_bt" transform="matrix(14,0,0,14,250.9,694.4)" />
<use xlink:href="#f6_by" transform="matrix(14,0,0,14,262.6,694.4)" />
<use xlink:href="#f6_ct" transform="matrix(14,0,0,14,276.6,694.4)" />
<use xlink:href="#f6_bt" transform="matrix(14,0,0,14,282.2,694.4)" />
<use xlink:href="#f6_d8" transform="matrix(14,0,0,14,293.9,694.4)" />
<use xlink:href="#f6_cc" transform="matrix(14,0,0,14,305.2,694.4)" />
<use xlink:href="#f6_d5" transform="matrix(14,0,0,14,317.2,694.4)" />
<use xlink:href="#f6_k" transform="matrix(14,0,0,14,316.8,694.4)" />
<use xlink:href="#f6_by" transform="matrix(14,0,0,14,327.7,694.4)" />
<use xlink:href="#f6_o0" transform="matrix(14,0,0,14,341.6,694.4)" />
<use xlink:href="#f6_l1" transform="matrix(14,0,0,14,347.3,694.4)" />
<use xlink:href="#f6_bp" transform="matrix(14,0,0,14,359.1,694.4)" />
<use xlink:href="#f6_b9" transform="matrix(14,0,0,14,377.1,694.4)" />
<use xlink:href="#f6_oc" transform="matrix(14,0,0,14,392.6,694.4)" />
<use xlink:href="#f6_cc" transform="matrix(14,0,0,14,403.9,694.4)" />
<use xlink:href="#f6_d5" transform="matrix(14,0,0,14,415.8,694.4)" />
<use xlink:href="#f6_c1" transform="matrix(14,0,0,14,421.2,694.4)" />
<use xlink:href="#f6_ct" transform="matrix(14,0,0,14,429.5,694.4)" />
<use xlink:href="#f6_bp" transform="matrix(14,0,0,14,435.2,694.4)" />
<use xlink:href="#f6_k" transform="matrix(14,0,0,14,447.5,694.4)" />
<use xlink:href="#f6_by" transform="matrix(14,0,0,14,156.1,719.6)" />
<use xlink:href="#f6_o0" transform="matrix(14,0,0,14,170.1,719.6)" />
<use xlink:href="#f6_l1" transform="matrix(14,0,0,14,175.7,719.6)" />
<use xlink:href="#f6_bp" transform="matrix(14,0,0,14,187.6,719.6)" />
<use xlink:href="#f6_b9" transform="matrix(14,0,0,14,205.6,719.6)" />
<use xlink:href="#f6_oc" transform="matrix(14,0,0,14,221.1,719.6)" />
<use xlink:href="#f6_cc" transform="matrix(14,0,0,14,232.3,719.6)" />
<use xlink:href="#f6_d5" transform="matrix(14,0,0,14,244.3,719.6)" />
<use xlink:href="#f6_c1" transform="matrix(14,0,0,14,249.6,719.6)" />
<use xlink:href="#f6_ct" transform="matrix(14,0,0,14,258,719.6)" />
<use xlink:href="#f6_bp" transform="matrix(14,0,0,14,263.6,719.6)" />
<use xlink:href="#f6_k" transform="matrix(14,0,0,14,275.9,719.6)" />
<use xlink:href="#f6_br" transform="matrix(14,0,0,14,286.8,719.6)" />
<use xlink:href="#f6_ct" transform="matrix(14,0,0,14,298.5,719.6)" />
<use xlink:href="#f6_br" transform="matrix(14,0,0,14,304.1,719.6)" />
<use xlink:href="#f6_ct" transform="matrix(14,0,0,14,315.8,719.6)" />
<use xlink:href="#f6_am" transform="matrix(14,0,0,14,327.1,719.6)" />
<use xlink:href="#f6_bg" transform="matrix(14,0,0,14,348.6,719.6)" />
<use xlink:href="#f6_bq" transform="matrix(14,0,0,14,368.5,719.6)" />
<use xlink:href="#f6_ct" transform="matrix(14,0,0,14,381.7,719.6)" />
<use xlink:href="#f6_bt" transform="matrix(14,0,0,14,387.3,719.6)" />
<use xlink:href="#f6_d4" transform="matrix(14,0,0,14,399.1,719.6)" />
<use xlink:href="#f6_am" transform="matrix(14,0,0,14,404.7,719.6)" />
<use xlink:href="#f6_bt" transform="matrix(14,0,0,14,426.1,719.6)" />
<use xlink:href="#f6_d8" transform="matrix(14,0,0,14,437.9,719.6)" />
<use xlink:href="#f6_cc" transform="matrix(14,0,0,14,449.2,719.6)" />
<use xlink:href="#f6_d5" transform="matrix(14,0,0,14,461.1,719.6)" />
<use xlink:href="#f6_k" transform="matrix(14,0,0,14,460.8,719.6)" />
<use xlink:href="#f6_bq" transform="matrix(14,0,0,14,167.6,744.8)" />
<use xlink:href="#f6_ct" transform="matrix(14,0,0,14,180.8,744.8)" />
<use xlink:href="#f6_bt" transform="matrix(14,0,0,14,186.4,744.8)" />
<use xlink:href="#f6_d4" transform="matrix(14,0,0,14,198.3,744.8)" />
<use xlink:href="#f6_b9" transform="matrix(14,0,0,14,203.8,744.8)" />
<use xlink:href="#f6_ct" transform="matrix(14,0,0,14,219.3,744.8)" />
<use xlink:href="#f6_oh" transform="matrix(14,0,0,14,222.2,745.2)" />
<use xlink:href="#f6_c3" transform="matrix(14,0,0,14,224.9,744.8)" />
<use xlink:href="#f6_cu" transform="matrix(14,0,0,14,245.3,744.8)" />
<use xlink:href="#f6_bt" transform="matrix(14,0,0,14,250.9,744.8)" />
<use xlink:href="#f6_by" transform="matrix(14,0,0,14,262.6,744.8)" />
<use xlink:href="#f6_ct" transform="matrix(14,0,0,14,276.6,744.8)" />
<use xlink:href="#f6_bt" transform="matrix(14,0,0,14,282.2,744.8)" />
<use xlink:href="#f6_d8" transform="matrix(14,0,0,14,293.9,744.8)" />
<use xlink:href="#f6_cc" transform="matrix(14,0,0,14,305.2,744.8)" />
<use xlink:href="#f6_d5" transform="matrix(14,0,0,14,317.2,744.8)" />
<use xlink:href="#f6_k" transform="matrix(14,0,0,14,316.8,744.8)" />
<use xlink:href="#f6_by" transform="matrix(14,0,0,14,327.7,744.8)" />
<use xlink:href="#f6_o0" transform="matrix(14,0,0,14,341.6,744.8)" />
<use xlink:href="#f6_l1" transform="matrix(14,0,0,14,347.3,744.8)" />
<use xlink:href="#f6_bp" transform="matrix(14,0,0,14,359.1,744.8)" />
<use xlink:href="#f6_b9" transform="matrix(14,0,0,14,377.1,744.8)" />
<use xlink:href="#f6_oc" transform="matrix(14,0,0,14,392.6,744.8)" />
<use xlink:href="#f6_cc" transform="matrix(14,0,0,14,403.9,744.8)" />
<use xlink:href="#f6_d5" transform="matrix(14,0,0,14,415.8,744.8)" />
<use xlink:href="#f6_c1" transform="matrix(14,0,0,14,421.2,744.8)" />
<use xlink:href="#f6_ct" transform="matrix(14,0,0,14,429.5,744.8)" />
<use xlink:href="#f6_bp" transform="matrix(14,0,0,14,435.2,744.8)" />
<use xlink:href="#f6_k" transform="matrix(14,0,0,14,447.5,744.8)" />
<use xlink:href="#f7_4r" transform="matrix(9,0,0,9,290.2,795.2)" />
<use xlink:href="#f8_m" transform="matrix(9,0,0,9,303,795.2)" />
<use xlink:href="#f8_q" transform="matrix(9,0,0,9,310.7,795.2)" />
<use xlink:href="#f7_4r" transform="matrix(9,0,0,9,321.3,795.2)" />
</g>
</g>
<image preserveAspectRatio="none" x="22" y="801" width="581" height="86" xlink:href="img/1.png"/>
<path d="M245.2,83.6H377v1.2H245.2V83.6Z" class="g1_32"/>
<image preserveAspectRatio="none" x="202" y="14" width="217" height="26" xlink:href="img/2.png"/>
<defs>
<path d="M874,-65L700,29V309H513V173L422,122c0,0,-90,31,-191,129c0,0,-100,97,-127,184l52,81H277l-2,240c0,0,0,77,-26,109c0,0,-1,0,-2,0c-8,0,-44,-1,-70,-22c0,0,-29,-24,-29,-61c0,0,0,-53,64,-101L125,610c0,0,-174,117,-174,238c0,0,0,78,57,133c0,0,59,55,146,55c0,0,132,0,244,-112c0,0,112,-113,112,-246V516H700V822H655L570,937l32,64h458l86,-115l-32,-64H842L944,749V-31L874,-65Z"
id="f5_by"
transform="scale(0.001,-0.001)"/>

<path d="M289,-65L115,29V822H0L-86,937l32,64H118c0,0,-86,101,-86,209c0,0,0,154,155,244c0,0,155,89,429,89c0,0,272,0,625,-101c0,0,352,-101,785,-302l-67,-107c0,0,-760,301,-1221,301c0,0,-225,0,-358,-67c0,0,-132,-66,-132,-181c0,0,0,-43,21,-85H463L548,886L516,822H257L359,749V-31L289,-65Z"
id="f5_nz"
transform="scale(0.001,-0.001)"/>

<path d="M300,310c13,0,56,2,103,25c0,0,58,27,100,81V523c0,0,-46,16,-83,16c0,0,-69,0,-110,-42c0,0,-41,-42,-41,-101c0,0,0,-46,26,-86c0,0,2,0,5,0ZM677,-65L503,29V144c0,0,-32,-11,-74,-11c0,0,-143,0,-272,102C157,235,29,336,29,469c0,0,0,105,76,180c0,0,75,75,190,75c0,0,41,0,73,-7L503,646V822H0L-86,937l32,64H966l87,-115l-32,-64H645L747,749V611c0,0,73,57,154,57c0,0,144,0,236,-159L1022,393l-18,18c0,0,-25,31,-60,31c0,0,-73,0,-197,-144V-31L677,-65Z"
id="f5_l1"
transform="scale(0.001,-0.001)"/>

<path d="M342,-69c0,0,-146,139,-224,256c0,0,-78,117,-78,226c0,0,0,120,90,193c0,0,90,72,243,72H599V822H0L-86,937l32,64H959l86,-115l-32,-64H741L843,749V-31L773,-65L599,29V445H448c0,0,-81,0,-123,-34c0,0,-42,-34,-42,-90c0,0,0,-54,43,-118c0,0,44,-64,143,-163L342,-69Z"
id="f5_bp"
transform="scale(0.001,-0.001)"/>

<path d="M300,310c13,0,56,2,103,25c0,0,58,27,100,81V523c0,0,-46,16,-83,16c0,0,-69,0,-111,-45c0,0,-42,-45,-42,-104c0,0,0,-45,28,-80c0,0,2,0,5,0ZM677,-65L503,29V144c0,0,-32,-11,-75,-11c0,0,-147,0,-272,98c0,0,-125,99,-125,233c0,0,0,110,75,185c0,0,76,74,195,74l67,-6L503,646V822H0L-86,937l32,64H1245l86,-115l-32,-64H645L747,749V622c0,0,81,58,165,58c0,0,122,0,213,-99c0,0,91,-98,91,-230c0,0,0,-204,-253,-371L791,157c0,0,110,83,164,139c0,0,53,55,53,106c0,0,0,55,-53,55c0,0,-83,0,-208,-145V-31L677,-65Z"
id="f5_b9"
transform="scale(0.001,-0.001)"/>

<path d="M277,-65L102,29V822H0L-86,937l32,64H92c0,0,-225,348,-438,348c0,0,-88,0,-146,-54c0,0,-59,-54,-59,-129c0,0,0,-51,26,-98l-96,-50c0,0,-140,116,-140,268c0,0,0,126,95,207c0,0,96,81,242,81c0,0,199,0,375,-155c0,0,174,-156,321,-418H463L548,886L516,822H244L347,749V-31L277,-65Z"
id="f5_oc"
transform="scale(0.001,-0.001)"/>

<path d="M756,-314c0,0,-304,57,-481,187C275,-127,98,2,98,170c0,0,0,117,82,197c0,0,-110,91,-110,195c0,0,0,74,64,127c0,0,63,54,188,54H567v79H0L-86,937l32,64H906L992,886L959,822H684L787,749V535H383c0,0,-110,0,-110,-67c0,0,0,-19,10,-36c0,0,78,32,174,32c0,0,162,0,277,-87c0,0,115,-87,115,-214c0,0,0,-143,-142,-228L518,76c0,0,125,94,145,173c0,0,-55,26,-113,26c0,0,-84,0,-144,-45c0,0,-59,-45,-59,-118c0,0,0,-107,121,-166c0,0,120,-60,336,-105L756,-314Z"
id="f5_cc"
transform="scale(0.001,-0.001)"/>

<path d="M-272,872l-211,214c0,0,-64,61,-138,61c0,0,-70,0,-195,-74l-115,204c0,0,121,86,223,86c0,0,133,0,266,-155l156,-190l-84,209c0,0,-49,119,-100,170c0,0,-50,51,-129,51c0,0,-66,0,-165,-36l-92,243c0,0,105,41,189,41c0,0,240,0,375,-344L-143,923L-272,872Z"
id="f5_d5"
transform="scale(0.001,-0.001)"/>

<path d="M545,-97L35,405L87,542H295c0,0,1,5,1,280H0L-86,937l32,64H729L814,886L782,822H445L550,749V547c0,0,0,-75,-41,-127c0,0,-41,-52,-129,-111L709,110V41L545,-97Z"
id="f5_c1"
transform="scale(0.001,-0.001)"/>

<path d="M277,-65L102,29V822H0L-86,937l32,64H463L548,886L516,822H244L347,749V-31L277,-65Z"
id="f5_ct"
transform="scale(0.001,-0.001)"/>

<path d="M823,-49L733,8V339H445V191L371,160c0,0,-56,36,-120,105c0,0,-63,70,-89,131l41,59H313V735c0,0,0,99,-55,140c0,0,-3,1,-8,1c-16,0,-48,-3,-71,-23c0,0,-31,-26,-31,-66c0,0,0,-69,81,-113L189,620C189,620,31,720,31,828c0,0,0,61,45,99c0,0,46,37,109,37c0,0,96,0,173,-86c0,0,76,-87,79,-194V455H733V822H556l-46,76l14,31H998l45,-76l-13,-31H794l66,-58V-39L823,-49Z"
id="f6_by"
transform="scale(0.001,-0.001)"/>

<path d="M228,-49L138,8V822H0l-45,76l14,31H134c0,0,-85,93,-85,192c0,0,0,124,129,195c0,0,129,71,364,71c0,0,285,0,647,-97c0,0,363,-97,692,-271l-42,-50c0,0,-313,137,-644,221c0,0,-332,84,-595,84c0,0,-198,0,-314,-55c0,0,-115,-55,-115,-163c0,0,0,-60,44,-127H402l46,-76L434,822H199l65,-58V-39L228,-49Z"
id="f6_o0"
transform="scale(0.001,-0.001)"/>

<path d="M283,260c0,0,122,0,209,113V513c0,0,-90,51,-160,51c0,0,-80,0,-129,-50c0,0,-49,-50,-49,-118c0,0,0,-60,35,-110c0,0,45,-26,94,-26ZM582,-49L492,8V211c0,0,-63,-54,-141,-54c0,0,-113,0,-214,92c0,0,-102,92,-102,206c0,0,0,93,69,157c0,0,69,63,163,63c0,0,34,0,66,-9L492,590V822H0l-45,76l14,31H909l46,-76L941,822H553l66,-58V521c0,0,93,104,192,104c0,0,63,0,120,-42c0,0,57,-42,82,-106L964,431l-5,9c0,0,-38,72,-110,72c0,0,-51,0,-105,-41c0,0,-53,-42,-125,-129V-39L582,-49Z"
id="f6_l1"
transform="scale(0.001,-0.001)"/>

<path d="M347,-57C347,-57,66,211,66,394c0,0,0,98,74,164c0,0,74,65,225,65H616V822H0l-45,76l14,31H880l46,-76L912,822H677l66,-58V-39L706,-49L616,8V500H428c0,0,-239,0,-239,-161c0,0,0,-136,214,-343L347,-57Z"
id="f6_bp"
transform="scale(0.001,-0.001)"/>

<path d="M283,260c0,0,122,0,209,113V513c0,0,-90,51,-160,51c0,0,-80,0,-129,-50c0,0,-49,-50,-49,-118c0,0,0,-60,35,-110c0,0,45,-26,94,-26ZM582,-49L492,8V211c0,0,-63,-54,-141,-54c0,0,-113,0,-213,92c0,0,-100,92,-100,205c0,0,0,93,69,157c0,0,69,64,162,64c0,0,32,0,64,-9L492,590V822H0l-45,76l14,31H1108l45,-76l-13,-31H553l66,-58V524c0,0,91,89,192,89c0,0,98,0,171,-79c0,0,72,-79,72,-186c0,0,0,-178,-224,-330L736,124c0,0,219,153,219,269c0,0,0,44,-26,75c0,0,-26,32,-81,32c0,0,-109,0,-229,-155V-39L582,-49Z"
id="f6_b9"
transform="scale(0.001,-0.001)"/>

<path d="M228,-49L138,8V822H0l-45,76l14,31H134c0,0,-231,362,-445,362c0,0,-87,0,-135,-49c0,0,-48,-49,-48,-116c0,0,0,-73,43,-122l-45,-32c0,0,-119,108,-119,223c0,0,0,94,74,155c0,0,73,60,181,60c0,0,161,0,316,-134c0,0,154,-133,267,-347H402l46,-76L434,822H199l65,-58V-39L228,-49Z"
id="f6_oc"
transform="scale(0.001,-0.001)"/>

<path d="M688,-243c0,0,-256,53,-408,173c0,0,-152,119,-152,270c0,0,0,101,68,171c0,0,-101,84,-101,179c0,0,0,64,53,112c0,0,54,47,191,47H587V822H0l-45,76l14,31H830l45,-76L862,822H640l66,-58V585H362c0,0,-159,-1,-159,-92c0,0,0,-41,46,-80c0,0,76,47,183,47c0,0,135,0,230,-76c0,0,96,-75,96,-187C758,197,758,67,629,2L545,104c0,0,49,30,81,75c0,0,32,44,32,82c0,0,0,16,-4,26c0,0,-64,58,-167,58c0,0,-97,0,-166,-50v-2c0,0,-67,-52,-67,-131c0,0,0,-116,132,-199c0,0,132,-84,334,-132l-32,-74Z"
id="f6_cc"
transform="scale(0.001,-0.001)"/>

<path d="M-214,860l-227,219c0,0,-73,70,-148,70c0,0,-67,0,-160,-58l-72,117c0,0,83,71,176,71c0,0,120,0,232,-124L-221,940l-102,294c0,0,-64,179,-189,179c0,0,-60,0,-133,-33l-60,125c0,0,84,47,164,47c0,0,200,0,281,-276L-150,901l-23,-15l-41,-26Z"
id="f6_d5"
transform="scale(0.001,-0.001)"/>

<path d="M527,-71L52,414l34,92H277c0,0,12,32,12,72V822H0l-45,76l14,31H599l46,-76L631,822H350l66,-55V564c0,0,0,-96,-152,-248L610,34L611,8L527,-71Z"
id="f6_c1"
transform="scale(0.001,-0.001)"/>

<path d="M228,-49L138,8V822H0l-45,76l14,31H402l46,-76L434,822H199l65,-58V-39L228,-49Z"
id="f6_ct"
transform="scale(0.001,-0.001)"/>

<path d="M108,-222l-44,58c0,0,96,81,104,164L89,61c0,0,12,83,93,122c0,0,50,-15,79,-55c0,0,29,-39,29,-90c0,0,0,-69,-48,-142c0,0,-48,-72,-134,-118Z"
id="f6_k"
transform="scale(0.001,-0.001)"/>

<path d="M675,-274L602,21C602,21,550,3,498,3C498,3,347,3,210,118C210,118,73,232,73,373c0,0,0,113,84,184c0,0,84,71,222,72H524V822H0l-45,76l14,31H834l46,-76L866,822H585l66,-58V504l-3,2l3,-3H408c0,0,-95,0,-154,-53c0,0,-58,-53,-58,-132c0,0,0,-49,27,-100c0,0,28,-50,83,-84c0,0,44,-15,96,-15c0,0,91,0,160,46L535,303l101,48L773,188c0,0,-8,-28,-34,-66c0,0,-27,-38,-62,-64L813,-221L675,-274Z"
id="f6_br"
transform="scale(0.001,-0.001)"/>

<path d="M959,-49L869,8V367c0,0,-32,-13,-64,-13c0,0,-50,0,-110,25c0,0,23,-52,23,-109c0,0,0,-103,-70,-170c0,0,-70,-66,-182,-66c0,0,-110,0,-222,82c0,0,-111,83,-213,293l68,42c0,0,72,-155,152,-231c0,0,81,-76,178,-76c0,0,83,0,131,49c0,0,48,48,48,117c0,0,0,54,-30,100c0,0,-31,47,-91,65L325,391L257,512c0,0,68,53,156,56c0,0,140,72,140,179c0,0,0,69,-52,99c0,0,-4,1,-11,1c-19,0,-66,-4,-123,-30c0,0,-78,-35,-142,-96L150,823c0,0,119,117,253,117c0,0,98,0,175,-71c0,0,77,-70,77,-159c0,0,0,-103,-94,-180c0,0,39,-23,73,-56c0,0,52,-22,109,-22c0,0,77,0,126,38V822H727l-46,76l14,31h840l46,-76l-13,-31H1332l66,-58V-39l-37,-10L1271,8V822H930l66,-58V-39L959,-49Z"
id="f6_am"
transform="scale(0.001,-0.001)"/>

<path d="M845,-49L755,8V513H497c0,0,61,-45,93,-110c0,0,33,-64,33,-128c0,0,0,-90,-58,-144c0,0,-59,-53,-143,-53c0,0,-133,0,-234,139C188,217,87,356,20,596l76,24c0,0,60,-201,127,-306c0,0,67,-105,160,-105c0,0,57,0,91,36c0,0,33,36,33,91c0,0,0,84,-73,159L295,558v71H755V822H0l-45,76l14,31H1019l46,-76l-14,-31H816l66,-58V-39L845,-49Z"
id="f6_bg"
transform="scale(0.001,-0.001)"/>

<path d="M768,-49L678,8V202c0,0,-73,-58,-172,-58c0,0,-123,0,-240,94c0,0,-118,94,-179,237l20,55c0,0,134,12,215,70c0,0,81,57,81,141c0,0,0,90,-67,134l-26,3c0,0,-46,0,-74,-29c0,0,-28,-30,-28,-68c0,0,0,-55,82,-109L252,620C252,620,93,720,93,820c0,0,0,65,47,104c0,0,46,40,114,40c0,0,99,0,179,-83c0,0,80,-83,82,-197c0,0,0,-93,-79,-165c0,0,-78,-73,-199,-97c0,0,29,-104,88,-158c0,0,42,-16,92,-16c0,0,78,0,151,38c0,0,74,38,110,111V822H553l-46,76l14,31H943l45,-76L975,822H739l66,-58V-39L768,-49Z"
id="f6_bq"
transform="scale(0.001,-0.001)"/>

<path d="M663,-49L573,8V445H299V280L226,251c0,0,-105,99,-162,238l63,72H573V822H0l-45,76l14,31H837l46,-76L869,822H634l66,-58V-39L663,-49Z"
id="f6_bt"
transform="scale(0.001,-0.001)"/>

<path d="M-214,863l-199,281c0,0,-70,92,-157,92c0,0,-69,0,-159,-58l-72,118c0,0,89,73,180,73c0,0,141,0,258,-170L-155,901l-59,-38Z"
id="f6_d4"
transform="scale(0.001,-0.001)"/>

<path d="M228,-49L138,8V822H0l-45,76l14,31H119L-33,1144c0,0,-70,92,-157,92c0,0,-69,0,-159,-58l-72,118c0,0,89,73,181,73c0,0,140,0,257,-170L205,929H402l46,-76L434,822H199l65,-58V-39L228,-49Z"
id="f6_d8"
transform="scale(0.001,-0.001)"/>

<path d="M-294,1036c0,0,-84,0,-168,56c0,0,-84,55,-147,161l52,50c0,0,95,-162,219,-162c0,0,125,0,160,158l110,-49c0,0,-21,-104,-81,-159c0,0,-61,-55,-145,-55Z"
id="f6_oh"
transform="scale(0.001,-0.001)"/>

<path d="M413,-59C413,-59,53,193,53,416c0,0,0,97,66,164c0,0,66,66,156,66c0,0,61,0,110,-30L487,507c0,0,92,126,257,126l35,-2V822H0l-45,76l14,31H1043l46,-76l-13,-31H840l66,-58V-39L869,-49L779,8V547c0,0,-101,-5,-165,-90c0,0,-64,-86,-70,-222L507,225l-90,73c0,0,5,79,35,151c0,0,-59,66,-128,66c0,0,-57,0,-100,-38c0,0,-44,-39,-44,-109c0,0,0,-165,284,-360L413,-59Z"
id="f6_c3"
transform="scale(0.001,-0.001)"/>

<path d="M228,-49L138,8V822H0l-45,76l14,31H134c0,0,-91,92,-91,191c0,0,0,105,85,170c0,0,84,65,219,65c0,0,128,0,293,-76c0,0,165,-77,362,-263L958,966c0,0,-177,143,-303,210c0,0,-125,68,-244,68c0,0,-107,0,-175,-50c0,0,-68,-50,-68,-131c0,0,0,-61,49,-134H402l46,-76L434,822H199l65,-58V-39L228,-49Z"
id="f6_cu"
transform="scale(0.001,-0.001)"/>

<path d="M348,229c0,0,57,0,106,17L263,559c0,0,-95,-50,-95,-162c0,0,0,-75,52,-136c0,0,49,-32,128,-32Zm170,48c0,0,61,38,96,91V504c0,0,-131,80,-244,80l-35,-2L518,277ZM704,-49L614,8V193c0,0,-84,-65,-192,-65c0,0,-139,0,-255,98c0,0,-115,98,-115,226c0,0,0,106,77,175c0,0,77,70,189,70c0,0,38,0,75,-9L614,578V822H0l-45,76l14,31H878l46,-76L911,822H675l66,-58V-39L704,-49Z"
id="f6_bx"
transform="scale(0.001,-0.001)"/>

<path d="M396,318c0,0,123,0,203,108V822H180l66,-58V408c0,0,49,-90,150,-90ZM176,-66L79,9L379,228c0,0,-106,23,-181,119c0,0,-76,96,-79,198V822H0l-45,76l14,31H863l46,-76L895,822H660l66,-58V-39L689,-49L599,8V269L176,-66Z"
id="f6_e6"
transform="scale(0.001,-0.001)"/>

<path d="M-234,-413c0,0,-210,0,-488,322l54,49c0,0,119,-128,209,-193c0,0,90,-65,177,-65c0,0,72,0,113,40c0,0,42,39,42,91c0,0,0,75,-78,106L-323,-181l-90,98c0,0,63,95,167,95c0,0,90,0,155,-69c0,0,66,-70,66,-164c0,0,0,-85,-60,-139c0,0,-61,-53,-149,-53Z"
id="f6_cw"
transform="scale(0.001,-0.001)"/>

<path d="M325,240c0,0,77,0,154,35c0,0,77,35,120,99V500c0,0,-118,73,-222,73c0,0,-97,0,-151,-54c0,0,-53,-53,-53,-128c0,0,0,-73,49,-125c0,0,38,-26,103,-26ZM689,-49L599,8V199c0,0,-73,-65,-179,-65c0,0,-134,0,-252,96c0,0,-118,95,-118,221c0,0,0,102,78,171c0,0,78,69,190,69c0,0,38,0,75,-10L599,582V822H0l-45,76l14,31H863l46,-76L895,822H660l66,-58V-39L689,-49Z"
id="f6_c7"
transform="scale(0.001,-0.001)"/>

<path d="M830,-253l-123,66c0,0,31,47,31,78c0,0,0,44,-64,84L353,130c0,0,-234,113,-234,325V822H0l-45,76l14,31H600L448,1144c0,0,-71,92,-158,92c0,0,-68,0,-159,-58L60,1296c0,0,88,73,180,73c0,0,140,0,258,-170L686,929H848l46,-76L880,822H655l68,-58V561c0,0,0,-176,-41,-241c0,0,-40,-65,-161,-106l-49,82l124,69V822H180l66,-58V283L646,92c0,0,126,-60,176,-110c0,0,50,-51,50,-115c0,0,0,-62,-42,-120Z"
id="f6_ay"
transform="scale(0.001,-0.001)"/>

<path d="M799,475V822H350l66,-55V564c0,0,0,-43,-25,-89ZM527,-71L52,414l34,92H277c0,0,12,32,12,72V822H0l-45,76l14,31H1063l46,-76l-14,-31H860l66,-58V-39L889,-49L799,8V370H315L264,316L610,34L611,8L527,-71Z"
id="f6_cb"
transform="scale(0.001,-0.001)"/>

<path d="M1066,248c0,0,77,0,149,36c0,0,71,37,110,107V822H976c0,0,138,-96,138,-208c0,0,0,-151,-228,-192c0,0,29,-104,89,-158c0,0,41,-16,91,-16ZM1415,-49L1325,8V200c0,0,-69,-56,-170,-56c0,0,-121,0,-238,91c0,0,-116,92,-178,233c0,0,-22,19,-51,25c0,0,-28,5,-191,5c0,0,61,-47,93,-111c0,0,33,-63,33,-126c0,0,0,-85,-58,-142c0,0,-59,-56,-148,-56c0,0,-130,0,-230,139C187,202,87,341,20,581l76,24c0,0,60,-202,127,-306c0,0,67,-105,160,-105c0,0,57,0,91,36c0,0,33,36,33,91c0,0,0,84,-73,159L295,542v72H542c0,0,112,0,168,-14c0,0,55,-15,97,-62c0,0,102,15,146,42c0,0,45,27,45,78c0,0,0,45,-30,81c0,0,-30,36,-99,83H0l-45,76l14,31H1589l46,-76l-14,-31H1386l65,-58V-39l-36,-10Z"
id="f6_iz"
transform="scale(0.001,-0.001)"/>

<path d="M438,206c0,0,-119,0,-226,109c0,0,-108,108,-108,243V822H0l-45,76l14,31H542l46,-76L574,822H165l66,-58V408c0,0,46,-86,151,-86c0,0,61,0,119,32c0,0,58,33,95,91L669,338c0,0,-44,-66,-108,-99c0,0,-63,-33,-123,-33Z"
id="f6_ll"
transform="scale(0.001,-0.001)"/>

<path d="M374,248c0,0,77,0,149,36c0,0,71,37,110,107V822H284c0,0,138,-96,138,-208c0,0,0,-151,-228,-192c0,0,29,-104,89,-158c0,0,41,-16,91,-16ZM723,-49L633,8V200c0,0,-69,-56,-170,-56c0,0,-122,0,-240,94c0,0,-118,94,-179,237l20,55c0,0,133,17,187,44c0,0,55,28,55,84c0,0,0,45,-30,81c0,0,-30,36,-99,83H0l-45,76l14,31H897l46,-76L929,822H694l65,-58V-39L723,-49Z"
id="f6_c0"
transform="scale(0.001,-0.001)"/>

<path d="M388,325c0,0,58,0,112,31c0,0,53,31,84,86V822H165l69,-58V408c0,0,47,-83,154,-83ZM674,-49L584,8V257c0,0,-61,-51,-141,-51c0,0,-125,0,-232,109c0,0,-107,108,-107,243V822H0l-45,76l14,31H848l46,-76L880,822H645l65,-58V-39L674,-49Z"
id="f6_bv"
transform="scale(0.001,-0.001)"/>

<path d="M689,445V822H286l65,-58l8,-319ZM779,-49L689,8V328H370V180L296,150c0,0,-56,35,-120,104c0,0,-63,70,-89,131l41,60H238L223,822H0l-45,76l14,31H953l46,-76L985,822H750l66,-58V-39L779,-49Z"
id="f6_bz"
transform="scale(0.001,-0.001)"/>

<path d="M-91,1001c0,0,-27,10,-61,36c0,0,-33,26,-50,49c0,0,38,81,90,110c0,0,61,-23,107,-85c0,0,-28,-71,-86,-110ZM-214,863l-199,281c0,0,-70,92,-157,92c0,0,-69,0,-159,-58l-72,118c0,0,89,73,180,73c0,0,141,0,258,-170L-155,901l-59,-38Z"
id="f6_oz"
transform="scale(0.001,-0.001)"/>

<path d="M727,-49L637,8V822H278l66,-58V226L270,196c0,0,-64,36,-122,98c0,0,-58,62,-79,122l43,59H217V822H0l-45,76l14,31H901l46,-76L933,822H698l66,-58V-39L727,-49Z"
id="f6_bb"
transform="scale(0.001,-0.001)"/>

<path d="M761,293c0,0,127,0,169,94V532c0,0,-68,46,-145,46c0,0,-76,0,-121,-46c0,0,-45,-45,-45,-107c0,0,0,-61,44,-110c0,0,47,-22,98,-22ZM657,67c0,0,166,0,273,107v55c0,0,-45,-36,-111,-36c0,0,-110,0,-207,90c0,0,-97,90,-97,194c0,0,0,85,66,148c0,0,65,63,155,63l48,-5L930,603V822H376l62,-55V579c0,0,0,-60,-23,-102c0,0,-24,-42,-148,-190c0,0,66,-104,175,-162c0,0,108,-58,215,-58ZM1021,-49L930,8V53c0,0,-105,-83,-264,-83c0,0,-177,0,-339,128C327,98,165,226,90,429l34,77H296c0,0,19,39,19,102l-2,214H0l-45,76l14,31H1195l46,-76l-14,-31H992l65,-58V-39l-36,-10Z"
id="f6_ba"
transform="scale(0.001,-0.001)"/>

<path d="M547,-285c0,0,-66,25,-102,80c0,0,32,69,82,101c0,0,55,-20,99,-80c0,0,-26,-67,-79,-101Zm1,228c0,0,-122,0,-243,81c0,0,-122,81,-252,280l57,41C110,345,283,64,498,64c0,0,92,0,153,49c0,0,61,49,61,121c0,0,0,46,-28,84L440,237c0,0,-73,11,-139,55c0,0,-66,44,-105,105c0,0,-40,61,-40,119c0,0,0,72,62,125c0,0,62,53,184,53H625V822H0l-45,76l14,31H906l46,-76L938,822H678l66,-58V562H431c0,0,-164,0,-164,-99c0,0,0,-55,57,-102l261,82c0,0,104,-21,172,-98c0,0,68,-78,68,-171c0,0,0,-99,-76,-166c0,0,-77,-65,-201,-65Z"
id="f6_ch"
transform="scale(0.001,-0.001)"/>

<path d="M819,-521L651,-303c0,0,-99,119,-191,119c0,0,-60,0,-96,-34c0,0,-37,-35,-37,-82c0,0,0,-49,43,-82l151,94l64,-116c0,0,-70,-58,-148,-58c0,0,-79,0,-145,64c0,0,-66,63,-66,144c0,0,0,98,90,151c0,0,-203,131,-203,306c0,0,0,101,69,170c0,0,-103,88,-103,179c0,0,0,64,57,110c0,0,57,47,196,47H571V822H0l-45,76l14,31H830l45,-76L862,822H625l66,-58V585H364c0,0,-176,0,-176,-96c0,0,0,-41,44,-76c0,0,81,47,185,47c0,0,135,0,230,-76c0,0,96,-75,96,-187C743,197,743,67,614,2L530,104c0,0,49,30,81,75c0,0,32,44,32,82c0,0,0,16,-4,26c0,0,-65,58,-167,58c0,0,-98,0,-166,-50v-2c0,0,-68,-52,-68,-131c0,0,0,-134,188,-231c0,0,84,0,164,-62c0,0,79,-62,195,-222l90,-129l-56,-39Z"
id="f6_n5"
transform="scale(0.001,-0.001)"/>

<path d="M-233,1021c0,0,-84,0,-168,55c0,0,-84,56,-146,162l51,50c0,0,95,-162,219,-162c0,0,125,0,160,157L-7,1234c0,0,-21,-103,-81,-158c0,0,-61,-55,-145,-55Zm-41,201c0,0,-66,25,-102,80c0,0,32,68,82,101c0,0,55,-20,99,-80c0,0,-26,-67,-79,-101Z"
id="f6_di"
transform="scale(0.001,-0.001)"/>

<path d="M228,-49L138,8V822H0l-45,76l14,31H138c0,0,-109,342,-284,342c0,0,-62,0,-102,-40c0,0,-40,-39,-40,-93c0,0,0,-61,51,-134l-42,-32c0,0,-128,113,-128,226c0,0,0,79,60,136c0,0,61,56,154,56c0,0,137,0,249,-125c0,0,112,-125,169,-336H402l46,-76L434,822H199l65,-58V-39L228,-49Z"
id="f6_cv"
transform="scale(0.001,-0.001)"/>

<path d="M254,-26c0,0,-84,16,-116,92c0,0,13,84,97,127c0,0,100,-36,112,-110C347,83,324,6,254,-26Zm458,0c0,0,-84,16,-116,92c0,0,14,84,98,127c0,0,99,-37,111,-110C805,83,782,6,712,-26Zm458,0c0,0,-84,16,-116,92c0,0,14,84,98,127c0,0,99,-36,111,-110c0,0,-22,-77,-93,-109Z"
id="f6_8l"
transform="scale(0.001,-0.001)"/>

<path d="M266,150c0,0,-57,35,-120,104c0,0,-63,70,-89,131l41,60H211L194,822H0l-45,76l14,31H587l46,-76L619,822H255l66,-58l7,-319H688L721,328H339V180L266,150Z"
id="f6_lq"
transform="scale(0.001,-0.001)"/>

<path d="M1561,298c0,0,32,73,32,159c0,0,0,110,-38,160c0,0,-39,31,-81,31c0,0,-47,0,-80,-35c0,0,-33,-35,-33,-89c0,0,0,-118,200,-226ZM1250,-60c0,0,-155,0,-275,93c0,0,-119,94,-119,207c0,0,0,50,27,92l-20,13c0,0,-59,-105,-145,-152c0,0,-85,-48,-176,-48c0,0,-136,0,-243,92c0,0,-106,91,-106,203c0,0,0,55,27,105H55L12,616l14,30H574l46,-76L607,539H396c0,0,-78,-49,-78,-162c0,0,0,-70,40,-111c0,0,50,-22,110,-22c0,0,87,0,169,46c0,0,83,46,135,138c0,0,-49,58,-49,124c0,0,0,71,55,122c0,0,56,50,169,50h132l64,-98l-19,-26H995c0,0,-158,-1,-158,-99c0,0,0,-59,89,-124c0,0,67,52,163,52c0,0,39,0,80,-9l70,-88l-20,-33c0,0,-46,10,-81,10c0,0,-75,0,-115,-36c0,0,-41,-36,-41,-88c0,0,0,-78,74,-130c0,0,53,-17,108,-17c0,0,115,0,212,54c0,0,97,53,153,145c0,0,-156,96,-223,173c0,0,-67,77,-67,155c0,0,0,72,48,124c0,0,48,52,126,55v78H0l-45,76l14,31H1784l46,-76l-13,-31H1467l65,-58V717c0,0,77,-40,124,-124c0,0,47,-84,47,-193c0,0,0,-188,-132,-324c0,0,-133,-136,-321,-136Z"
id="f6_ir"
transform="scale(0.001,-0.001)"/>

<path d="M309,-30c0,0,-127,0,-271,79L95,183C95,183,238,86,397,64c0,0,41,37,41,89c0,0,0,52,-38,84c0,0,-38,32,-150,82c0,0,-112,49,-151,96c0,0,-39,46,-39,112c0,0,0,96,81,157c0,0,82,62,209,62c0,0,107,0,195,-46c0,0,5,-112,-26,-197H437L426,620c0,0,-76,34,-160,34l-29,-2c0,0,-49,-30,-49,-87c0,0,0,-49,40,-78c0,0,39,-29,122,-65l90,-42c0,0,131,-68,131,-189c0,0,0,-98,-73,-160c0,0,-73,-61,-189,-61Z"
id="f6_2j"
transform="scale(0.001,-0.001)"/>

<path d="M283,260c0,0,122,0,209,113V513c0,0,-90,51,-160,51c0,0,-80,0,-129,-50c0,0,-49,-50,-49,-118c0,0,0,-60,35,-110c0,0,45,-26,94,-26ZM619,521c0,0,93,104,192,104c0,0,98,0,170,-92c0,0,117,17,167,45c0,0,50,27,50,80c0,0,0,45,-30,81c0,0,-30,36,-99,83H553l66,-58V521ZM1267,248c0,0,76,0,148,36c0,0,72,37,110,107V822H1176c0,0,138,-96,138,-208c0,0,0,-151,-228,-192c0,0,29,-104,89,-158c0,0,41,-16,92,-16ZM582,-49L492,8V211c0,0,-63,-54,-141,-54c0,0,-113,0,-214,92c0,0,-102,92,-102,206c0,0,0,93,69,157c0,0,69,63,163,63c0,0,34,0,66,-9L492,590V822H0l-45,76l14,31H1789l46,-76l-14,-31H1586l66,-58V-39l-37,-10L1525,8V200c0,0,-69,-56,-170,-56c0,0,-121,0,-238,92c0,0,-118,92,-179,235c0,0,-35,41,-89,41c0,0,-51,0,-105,-41c0,0,-53,-42,-125,-129V-39L582,-49Z"
id="f6_ik"
transform="scale(0.001,-0.001)"/>

<path d="M108,-433L-59,-214c0,0,-99,119,-191,119c0,0,-59,0,-96,-35c0,0,-36,-34,-36,-81c0,0,0,-49,42,-83l152,95l64,-116c0,0,-71,-58,-148,-58c0,0,-80,0,-146,63c0,0,-65,64,-65,144c0,0,0,77,62,131c0,0,61,53,142,53c0,0,138,0,296,-205L165,-393l-57,-40Z"
id="f6_cx"
transform="scale(0.001,-0.001)"/>

<path d="M0,1062c0,0,-26,11,-60,36c0,0,-34,26,-51,49c0,0,39,81,91,110c0,0,60,-23,106,-85c0,0,-28,-70,-86,-110Z"
id="f6_dj"
transform="scale(0.001,-0.001)"/>

<path d="M434,225c0,0,84,0,169,42c0,0,85,43,126,126V822H267c0,0,-64,-49,-64,-115c0,0,0,-79,90,-126c0,0,60,35,144,35l67,-6l75,-89L564,490l-51,7H493c0,0,-90,0,-142,-43c0,0,-52,-43,-52,-104c0,0,0,-60,51,-109c0,0,33,-16,84,-16ZM819,-49L729,8V197c0,0,-83,-76,-202,-76c0,0,-130,0,-237,91c0,0,-108,92,-108,196c0,0,0,72,53,128c0,0,-75,42,-115,97c0,0,-41,56,-41,113c0,0,0,38,22,76H0l-45,76l14,31H993l46,-76l-14,-31H790l66,-58V-39L819,-49Z"
id="f6_bc"
transform="scale(0.001,-0.001)"/>

<path d="M228,-49L138,8V822H0l-45,76l14,31H133c0,0,-93,95,-93,206c0,0,0,96,68,159c0,0,68,63,179,63c0,0,118,0,228,-81c0,0,110,-80,258,-262L720,970L588,1109c0,0,-133,133,-253,133c0,0,-78,0,-127,-46c0,0,-49,-46,-49,-119c0,0,0,-69,56,-148H402l46,-76L434,822H199l65,-58V-39L228,-49Z"
id="f6_nr"
transform="scale(0.001,-0.001)"/>

<path d="M252,385l310,78l22,-9c0,0,107,-43,200,-43c0,0,91,0,151,41V822H603l66,-58V585H373c0,0,-184,0,-184,-99c0,0,0,-48,63,-101ZM483,-305L295,-10c0,0,-90,22,-156,74l41,170h66L351,63c0,0,126,4,207,62c0,0,82,58,82,139c0,0,0,37,-18,71L365,266c0,0,-110,15,-197,102c0,0,-87,87,-87,176c0,0,0,69,59,117c0,0,59,48,172,48H550V822H0l-45,76l14,31H1199l46,-76l-14,-31H996l66,-58V-39l-37,-10L935,8V318c0,0,-41,-15,-78,-15c0,0,-52,0,-131,30c0,0,32,-55,32,-111c0,0,0,-109,-98,-179c0,0,-98,-69,-254,-69L599,-216L483,-305Z"
id="f6_bh"
transform="scale(0.001,-0.001)"/>

<path d="M900,298c0,0,32,73,32,159c0,0,0,110,-38,160c0,0,-40,31,-81,31c0,0,-48,0,-80,-35c0,0,-33,-35,-33,-89c0,0,0,-118,200,-226ZM588,-60c0,0,-154,0,-274,93c0,0,-120,94,-120,207c0,0,0,50,28,92C222,332,61,440,61,552c0,0,0,71,56,122c0,0,56,50,169,50H417l64,-98L463,600H333c0,0,-157,-1,-157,-99c0,0,0,-59,88,-124c0,0,68,52,164,52c0,0,38,0,79,-9l71,-88L558,299c0,0,-46,10,-81,10c0,0,-75,0,-116,-36c0,0,-40,-36,-40,-88c0,0,0,-78,73,-130c0,0,54,-17,109,-17c0,0,114,0,211,54c0,0,97,53,154,145c0,0,-156,96,-223,173c0,0,-67,77,-67,155c0,0,0,72,48,124c0,0,48,52,126,55v78H0l-45,76l14,31H1123l46,-76l-14,-31H805l66,-58V717c0,0,76,-40,124,-124c0,0,47,-84,47,-193c0,0,0,-188,-133,-324C909,76,776,-60,588,-60Z"
id="f6_bf"
transform="scale(0.001,-0.001)"/>

<path d="M959,-49L869,8V367c0,0,-32,-13,-64,-13c0,0,-50,0,-110,25c0,0,23,-52,23,-109c0,0,0,-103,-70,-170c0,0,-70,-66,-182,-66c0,0,-110,0,-222,82c0,0,-111,83,-213,293l68,42c0,0,72,-155,152,-231c0,0,81,-76,178,-76c0,0,83,0,131,49c0,0,48,48,48,117c0,0,0,54,-30,100c0,0,-31,47,-91,65L325,391L257,512c0,0,68,53,156,56c0,0,140,72,140,179c0,0,0,69,-52,99c0,0,-4,1,-11,1c-19,0,-66,-4,-123,-30c0,0,-78,-35,-142,-96L150,823c0,0,119,117,253,117c0,0,98,0,175,-71c0,0,77,-70,77,-159c0,0,0,-103,-94,-180c0,0,39,-23,73,-56c0,0,52,-22,109,-22c0,0,77,0,126,38V822H727l-46,76l14,31h439l45,-76l-13,-31H930l66,-58V-39L959,-49Z"
id="f6_al"
transform="scale(0.001,-0.001)"/>

<path d="M-239,897c0,0,-82,61,-132,137c0,0,-50,75,-50,150c0,0,0,78,52,133c0,0,52,55,141,55c0,0,98,0,176,-64l-23,-69c0,0,-52,32,-104,32c0,0,-57,0,-95,-36c0,0,-38,-36,-38,-95c0,0,0,-115,117,-217l-44,-26Z"
id="f6_dr"
transform="scale(0.001,-0.001)"/>

<path d="M342,324c0,0,45,0,75,34c0,0,31,33,31,100V822H165l66,-58V390c0,0,32,-66,111,-66ZM853,-49L762,8V822H509l65,-58V455c0,0,0,-134,-51,-185c0,0,-52,-52,-127,-52c0,0,-98,0,-195,99c0,0,-97,99,-97,209V822H0l-45,76l14,31H1027l46,-76l-14,-31H823l66,-58V-39L853,-49Z"
id="f6_bo"
transform="scale(0.001,-0.001)"/>

<path d="M527,-71L52,414l34,92H277c0,0,12,32,12,72V822H0l-45,76l14,31H654l46,-76L686,822H350l66,-55V564c0,0,0,-43,-25,-89H782L798,370H315L264,316L610,34L611,8L527,-71Z"
id="f6_m1"
transform="scale(0.001,-0.001)"/>

<path d="M406,-107c0,0,-65,24,-102,79c0,0,32,68,83,100c0,0,55,-20,99,-79c0,0,-26,-67,-80,-100Zm321,58L637,8V822H278l66,-58V226L270,196c0,0,-64,36,-122,98c0,0,-58,62,-79,122l43,59H217V822H0l-45,76l14,31H901l46,-76L933,822H698l66,-58V-39L727,-49Z"
id="f6_cf"
transform="scale(0.001,-0.001)"/>

<path d="M483,-305L295,-10c0,0,-90,22,-156,74l41,170h66L351,63c0,0,126,4,207,62c0,0,82,58,82,139c0,0,0,37,-18,71L365,266c0,0,-110,15,-197,102c0,0,-87,87,-87,176c0,0,0,69,59,117c0,0,59,48,172,48H550V822H0l-45,76l14,31H550c0,0,-142,122,-142,255c0,0,0,78,52,133c0,0,52,55,140,55c0,0,98,0,176,-64l-23,-69c0,0,-53,32,-104,32c0,0,-56,0,-94,-36c0,0,-39,-36,-39,-95c0,0,0,-109,112,-211H822l46,-76L854,822H603l66,-58V585H373c0,0,-184,0,-184,-99c0,0,0,-48,63,-101l310,78c0,0,86,-34,141,-99c0,0,55,-65,55,-142c0,0,0,-109,-98,-179c0,0,-98,-69,-254,-69L599,-216L483,-305Z"
id="f6_ao"
transform="scale(0.001,-0.001)"/>

<path d="M567,822l-46,76l14,31H726l46,-76L758,822ZM518,122c0,0,-115,0,-225,93c0,0,-111,94,-111,193c0,0,0,79,61,137C243,545,66,672,66,791c0,0,0,75,52,124c0,0,53,49,134,49c0,0,164,0,260,-237L451,694c0,0,-55,114,-119,163l-31,5c0,0,-44,0,-77,-32c0,0,-33,-31,-33,-78c0,0,0,-86,113,-165c0,0,60,27,133,27l67,-4l75,-89L564,490l-51,7H493c0,0,-90,0,-142,-43c0,0,-52,-43,-52,-104c0,0,0,-60,51,-109c0,0,37,-13,82,-13c0,0,104,0,197,59c0,0,94,60,127,148l95,-87c0,0,-43,-94,-140,-160c0,0,-97,-66,-193,-66Z"
id="f6_lh"
transform="scale(0.001,-0.001)"/>

<path d="M827,-49L736,8V205c0,0,-84,-84,-209,-84c0,0,-130,0,-237,91c0,0,-108,92,-108,196c0,0,0,79,61,137C243,545,66,672,66,791c0,0,0,75,52,124c0,0,53,49,134,49c0,0,164,0,260,-237L451,694c0,0,-55,114,-119,163l-31,5c0,0,-44,0,-77,-32c0,0,-33,-31,-33,-78c0,0,0,-86,113,-165c0,0,60,27,133,27l67,-4l75,-89L564,490l-51,7H493c0,0,-90,0,-142,-43c0,0,-52,-43,-52,-104c0,0,0,-60,51,-109c0,0,33,-16,84,-16c0,0,89,0,177,47c0,0,89,47,125,137V822H567l-46,76l14,31h466l46,-76l-14,-31H798l65,-58V-39L827,-49Z"
id="f6_bs"
transform="scale(0.001,-0.001)"/>

<path d="M725,307c0,0,-95,0,-218,78c0,0,-123,78,-188,78c0,0,-54,0,-95,-34c0,0,-41,-34,-73,-100L93,362c0,0,38,88,101,146c0,0,63,59,148,59c0,0,90,0,214,-78c0,0,124,-79,188,-79c0,0,63,0,106,34c0,0,42,33,85,104l60,-40c0,0,-32,-66,-101,-134c0,0,-70,-67,-169,-67Z"
id="f7_4r"
transform="scale(0.001,-0.001)"/>

<path d="M46,0c0,0,-2,48,16,93c0,0,27,74,88,146c0,0,61,71,176,165c0,0,178,146,241,232c0,0,63,85,63,161c0,0,0,80,-57,135c0,0,-58,55,-149,55c0,0,-98,0,-156,-59c0,0,-58,-58,-59,-160L71,782c0,0,15,154,107,235c0,0,93,81,249,81c0,0,157,0,249,-87c0,0,92,-88,92,-217c0,0,0,-65,-27,-129c0,0,-27,-63,-89,-133c0,0,-62,-70,-207,-193C445,339,324,238,290,202c0,0,-35,-36,-57,-73H770V0Z"
id="f8_m"
transform="scale(0.001,-0.001)"/>

<path d="M435,92c0,0,85,0,146,69c0,0,60,68,60,186c0,0,0,114,-60,179c0,0,-60,66,-152,66c0,0,-90,0,-154,-66c0,0,-63,-65,-63,-171c0,0,0,-70,30,-133c0,0,29,-64,82,-97c0,0,52,-33,111,-33Zm2,-110c0,0,-168,0,-273,123C164,105,58,228,58,512c0,0,0,317,117,461c0,0,102,125,275,125c0,0,129,0,211,-72c0,0,82,-72,99,-200L626,815c0,0,-18,79,-51,115c0,0,-54,58,-134,58c0,0,-64,0,-112,-36c0,0,-63,-46,-99,-135c0,0,-37,-89,-38,-253c0,0,48,74,118,110c0,0,70,36,147,36c0,0,134,0,228,-99c0,0,94,-99,94,-256c0,0,0,-103,-44,-191C735,164,691,75,613,28c0,0,-77,-46,-176,-46Z"
id="f8_q"
transform="scale(0.001,-0.001)"/>


</defs>
</svg>