<?xml version="1.0" encoding="UTF-8" standalone="no"?>
<!DOCTYPE svg PUBLIC "-//W3C//DTD SVG 1.1//EN"
"http://www.w3.org/Graphics/SVG/1.1/DTD/svg11.dtd">
<svg viewBox="0 0 641 910" version="1.1" xmlns="http://www.w3.org/2000/svg" xmlns:xlink="http://www.w3.org/1999/xlink">
<defs>
<clipPath id="c0_29"><path d="M0,909.8V0H641.7V909.8Z"/></clipPath>
<clipPath id="c1_29"><path d="M0,908.6V0H641.7V908.6Z"/></clipPath>
<style type="text/css"><![CDATA[
.g0_29{
fill: #FFFFFF;
}
.g1_29{
}
]]></style>
</defs>
<path d="M0,0H641.7V909.8H0V0Z" class="g0_29"/>
<path d="M0,0H641.7V909.8H0V0Z" class="g0_29"/>
<g clip-path="url(#c0_29)">
<path d="M0,-20015.3H641.7V86430.2H0V-20015.3Z" class="g0_29"/>
</g>
<path d="M0,0H641.7V908.6H0V0Z" class="g0_29"/>
<path d="M19.5,60.7H602.7v1.2H19.5V60.7Z" class="g1_29"/>
<g clip-path="url(#c1_29)">
<path d="M0,61.9H641.7V909.8H0V61.9Z" class="g0_29"/>
</g>
<path d="M160.4,121.5H461.8v25.2H160.4V121.5Z" class="g0_29"/>
<path d="M19.5,146.7H602.7V173H19.5V146.7Z" class="g0_29"/>
<path d="M169.6,146.7h283v25.2h-283V146.7Z" class="g0_29"/>
<path d="M19.5,171.9H602.7v26.3H19.5V171.9Z" class="g0_29"/>
<path d="M19.5,197.1H602.7v26.3H19.5V197.1Z" class="g0_29"/>
<path d="M19.5,222.3H602.7v26.3H19.5V222.3Z" class="g0_29"/>
<path d="M19.5,247.5H602.7v26.4H19.5V247.5Z" class="g0_29"/>
<path d="M19.5,272.7H602.7v26.4H19.5V272.7Z" class="g0_29"/>
<path d="M19.5,297.9H602.7v26.4H19.5V297.9Z" class="g0_29"/>
<path d="M228,297.9H394.2v25.2H228V297.9Z" class="g0_29"/>
<path d="M19.5,323.1H602.7v26.4H19.5V323.1Z" class="g0_29"/>
<path d="M19.5,348.3H602.7v26.4H19.5V348.3Z" class="g0_29"/>
<path d="M19.5,373.5H602.7v26.4H19.5V373.5Z" class="g0_29"/>
<path d="M153.5,373.5h29.8v25.3H153.5V373.5Z" class="g0_29"/>
<path d="M19.5,398.8H602.7v26.3H19.5V398.8Z" class="g0_29"/>
<path d="M19.5,424H602.7v26.3H19.5V424Z" class="g0_29"/>
<path d="M19.5,449.2H602.7v26.3H19.5V449.2Z" class="g0_29"/>
<path d="M19.5,474.4H602.7v26.3H19.5V474.4Z" class="g0_29"/>
<path d="M167.3,474.4h29.8v25.2H167.3V474.4Z" class="g0_29"/>
<path d="M19.5,499.6H602.7v26.3H19.5V499.6Z" class="g0_29"/>
<path d="M19.5,524.8H602.7v56.1H19.5V524.8Z" class="g0_29"/>
<g clip-path="url(#c1_29)">
<g fill="#000000" >
<use xlink:href="#f5_am" transform="matrix(14,0,0,14,219.2,82.5)" />
<use xlink:href="#f5_c7" transform="matrix(14,0,0,14,244,82.5)" />
<use xlink:href="#f5_d8" transform="matrix(14,0,0,14,257.7,82.5)" />
<use xlink:href="#f5_am" transform="matrix(14,0,0,14,269.8,82.5)" />
<use xlink:href="#f5_c7" transform="matrix(14,0,0,14,294.7,82.5)" />
<use xlink:href="#f5_d8" transform="matrix(14,0,0,14,308.3,82.5)" />
<use xlink:href="#f5_bv" transform="matrix(14,0,0,14,320.5,82.5)" />
<use xlink:href="#f5_ct" transform="matrix(14,0,0,14,333.6,82.5)" />
<use xlink:href="#f5_c1" transform="matrix(14,0,0,14,340.1,82.5)" />
<use xlink:href="#f5_cb" transform="matrix(14,0,0,14,350.3,82.5)" />
<use xlink:href="#f5_bt" transform="matrix(14,0,0,14,367,82.5)" />
<use xlink:href="#f5_ct" transform="matrix(14,0,0,14,380,82.5)" />
<use xlink:href="#f5_no" transform="matrix(14,0,0,14,386.5,82.5)" />
<use xlink:href="#f5_bq" transform="matrix(14,0,0,14,386.5,82.5)" />
</g>
<g fill="#222222" >
<use xlink:href="#f6_am" transform="matrix(14,0,0,14,159.6,142.1)" />
<use xlink:href="#f6_c7" transform="matrix(14,0,0,14,181.1,142.1)" />
<use xlink:href="#f6_d8" transform="matrix(14,0,0,14,193.1,142.1)" />
<use xlink:href="#f6_am" transform="matrix(14,0,0,14,204.4,142.1)" />
<use xlink:href="#f6_c7" transform="matrix(14,0,0,14,225.9,142.1)" />
<use xlink:href="#f6_d8" transform="matrix(14,0,0,14,238,142.1)" />
<use xlink:href="#f6_bv" transform="matrix(14,0,0,14,249.3,142.1)" />
<use xlink:href="#f6_ct" transform="matrix(14,0,0,14,261.1,142.1)" />
<use xlink:href="#f6_c1" transform="matrix(14,0,0,14,266.8,142.1)" />
<use xlink:href="#f6_cb" transform="matrix(14,0,0,14,275.1,142.1)" />
<use xlink:href="#f6_bt" transform="matrix(14,0,0,14,290,142.1)" />
<use xlink:href="#f6_ct" transform="matrix(14,0,0,14,301.7,142.1)" />
<use xlink:href="#f6_no" transform="matrix(14,0,0,14,307.4,142.1)" />
<use xlink:href="#f6_bq" transform="matrix(14,0,0,14,307.4,142.1)" />
<use xlink:href="#f6_bq" transform="matrix(14,0,0,14,331.9,142.1)" />
<use xlink:href="#f6_ct" transform="matrix(14,0,0,14,345.1,142.1)" />
<use xlink:href="#f6_c1" transform="matrix(14,0,0,14,350.7,142.1)" />
<use xlink:href="#f6_cv" transform="matrix(14,0,0,14,359.1,142.1)" />
<use xlink:href="#f6_b9" transform="matrix(14,0,0,14,376,142.1)" />
<use xlink:href="#f6_n1" transform="matrix(14,0,0,14,391.5,142.1)" />
<use xlink:href="#f6_bz" transform="matrix(14,0,0,14,410.3,142.1)" />
<use xlink:href="#f6_bt" transform="matrix(14,0,0,14,423.7,142.1)" />
<use xlink:href="#f6_cw" transform="matrix(14,0,0,14,435.9,142)" />
<use xlink:href="#f6_cc" transform="matrix(14,0,0,14,435.4,142.1)" />
<use xlink:href="#f6_ct" transform="matrix(14,0,0,14,447,142.1)" />
<use xlink:href="#f6_c1" transform="matrix(14,0,0,14,452.6,142.1)" />
<use xlink:href="#f6_am" transform="matrix(14,0,0,14,168.7,167.3)" />
<use xlink:href="#f6_c7" transform="matrix(14,0,0,14,190.2,167.3)" />
<use xlink:href="#f6_d8" transform="matrix(14,0,0,14,202.3,167.3)" />
<use xlink:href="#f6_am" transform="matrix(14,0,0,14,213.6,167.3)" />
<use xlink:href="#f6_c7" transform="matrix(14,0,0,14,235.1,167.3)" />
<use xlink:href="#f6_d8" transform="matrix(14,0,0,14,247.2,167.3)" />
<use xlink:href="#f6_br" transform="matrix(14,0,0,14,258.4,167.3)" />
<use xlink:href="#f6_ob" transform="matrix(14,0,0,14,270.1,167.3)" />
<use xlink:href="#f6_bt" transform="matrix(14,0,0,14,275.7,167.3)" />
<use xlink:href="#f6_ct" transform="matrix(14,0,0,14,287.4,167.3)" />
<use xlink:href="#f6_bt" transform="matrix(14,0,0,14,293.1,167.3)" />
<use xlink:href="#f6_ct" transform="matrix(14,0,0,14,304.8,167.3)" />
<use xlink:href="#f6_no" transform="matrix(14,0,0,14,310.4,167.3)" />
<use xlink:href="#f6_bq" transform="matrix(14,0,0,14,310.4,167.3)" />
<use xlink:href="#f6_bq" transform="matrix(14,0,0,14,329.3,167.3)" />
<use xlink:href="#f6_ct" transform="matrix(14,0,0,14,342.5,167.3)" />
<use xlink:href="#f6_c1" transform="matrix(14,0,0,14,348.1,167.3)" />
<use xlink:href="#f6_cv" transform="matrix(14,0,0,14,356.5,167.3)" />
<use xlink:href="#f6_b9" transform="matrix(14,0,0,14,367.7,167.3)" />
<use xlink:href="#f6_n1" transform="matrix(14,0,0,14,383.2,167.3)" />
<use xlink:href="#f6_bz" transform="matrix(14,0,0,14,402,167.3)" />
<use xlink:href="#f6_bt" transform="matrix(14,0,0,14,415.4,167.3)" />
<use xlink:href="#f6_cw" transform="matrix(14,0,0,14,427.6,167.2)" />
<use xlink:href="#f6_cc" transform="matrix(14,0,0,14,427.1,167.3)" />
<use xlink:href="#f6_ct" transform="matrix(14,0,0,14,438.7,167.3)" />
<use xlink:href="#f6_c1" transform="matrix(14,0,0,14,444.3,167.3)" />
<use xlink:href="#f6_bz" transform="matrix(14,0,0,14,168.7,192.5)" />
<use xlink:href="#f6_ct" transform="matrix(14,0,0,14,182.1,192.5)" />
<use xlink:href="#f6_c1" transform="matrix(14,0,0,14,187.7,192.5)" />
<use xlink:href="#f6_ct" transform="matrix(14,0,0,14,196.1,192.5)" />
<use xlink:href="#f6_bz" transform="matrix(14,0,0,14,207.4,192.5)" />
<use xlink:href="#f6_bt" transform="matrix(14,0,0,14,220.7,192.5)" />
<use xlink:href="#f6_ch" transform="matrix(14,0,0,14,232.4,192.5)" />
<use xlink:href="#f6_ct" transform="matrix(14,0,0,14,245.1,192.5)" />
<use xlink:href="#f6_bz" transform="matrix(14,0,0,14,262.1,192.5)" />
<use xlink:href="#f6_oz" transform="matrix(14,0,0,14,275.5,192.5)" />
<use xlink:href="#f6_c3" transform="matrix(14,0,0,14,281.1,192.5)" />
<use xlink:href="#f6_ct" transform="matrix(14,0,0,14,295.8,192.5)" />
<use xlink:href="#f6_bb" transform="matrix(14,0,0,14,301.4,192.5)" />
<use xlink:href="#f6_cv" transform="matrix(14,0,0,14,314,192.5)" />
<use xlink:href="#f6_ax" transform="matrix(14,0,0,14,330.9,192.5)" />
<use xlink:href="#f6_b9" transform="matrix(14,0,0,14,342.8,192.5)" />
<use xlink:href="#f6_am" transform="matrix(14,0,0,14,364,192.5)" />
<use xlink:href="#f6_cb" transform="matrix(14,0,0,14,385.5,192.5)" />
<use xlink:href="#f6_bg" transform="matrix(14,0,0,14,406,192.5)" />
<use xlink:href="#f6_cv" transform="matrix(14,0,0,14,420.3,192.5)" />
<use xlink:href="#f6_8l" transform="matrix(14,0,0,14,431.5,192.5)" />
<use xlink:href="#f6_bz" transform="matrix(14,0,0,14,175.6,217.7)" />
<use xlink:href="#f6_ct" transform="matrix(14,0,0,14,189,217.7)" />
<use xlink:href="#f6_c1" transform="matrix(14,0,0,14,194.6,217.7)" />
<use xlink:href="#f6_d4" transform="matrix(14,0,0,14,202.6,217.7)" />
<use xlink:href="#f6_am" transform="matrix(14,0,0,14,208.6,217.7)" />
<use xlink:href="#f6_dj" transform="matrix(14,0,0,14,224.7,218.1)" />
<use xlink:href="#f6_bb" transform="matrix(14,0,0,14,230.1,217.7)" />
<use xlink:href="#f6_cu" transform="matrix(14,0,0,14,242.7,217.7)" />
<use xlink:href="#f6_bt" transform="matrix(14,0,0,14,248.3,217.7)" />
<use xlink:href="#f6_c0" transform="matrix(14,0,0,14,260.1,217.7)" />
<use xlink:href="#f6_d4" transform="matrix(14,0,0,14,272.7,217.7)" />
<use xlink:href="#f6_bv" transform="matrix(14,0,0,14,278.3,217.7)" />
<use xlink:href="#f6_nl" transform="matrix(14,0,0,14,290.1,217.7)" />
<use xlink:href="#f6_bs" transform="matrix(14,0,0,14,290.1,217.7)" />
<use xlink:href="#f6_ct" transform="matrix(14,0,0,14,304.1,217.7)" />
<use xlink:href="#f6_c1" transform="matrix(14,0,0,14,309.8,217.7)" />
<use xlink:href="#f6_d8" transform="matrix(14,0,0,14,318.1,217.7)" />
<use xlink:href="#f6_bv" transform="matrix(14,0,0,14,329.4,217.7)" />
<use xlink:href="#f6_ct" transform="matrix(14,0,0,14,341.3,217.7)" />
<use xlink:href="#f6_c1" transform="matrix(14,0,0,14,346.9,217.7)" />
<use xlink:href="#f6_cb" transform="matrix(14,0,0,14,355.3,217.7)" />
<use xlink:href="#f6_bt" transform="matrix(14,0,0,14,370.2,217.7)" />
<use xlink:href="#f6_ct" transform="matrix(14,0,0,14,381.9,217.7)" />
<use xlink:href="#f6_no" transform="matrix(14,0,0,14,387.5,217.7)" />
<use xlink:href="#f6_bq" transform="matrix(14,0,0,14,387.5,217.7)" />
<use xlink:href="#f6_bg" transform="matrix(14,0,0,14,406.4,217.7)" />
<use xlink:href="#f6_cv" transform="matrix(14,0,0,14,420.6,217.7)" />
<use xlink:href="#f6_pd" transform="matrix(14,0,0,14,426.2,217.7)" />
<use xlink:href="#f6_q" transform="matrix(14,0,0,14,433.8,217.7)" />
<use xlink:href="#f6_bq" transform="matrix(14,0,0,14,160.7,268.1)" />
<use xlink:href="#f6_ct" transform="matrix(14,0,0,14,173.9,268.1)" />
<use xlink:href="#f6_c1" transform="matrix(14,0,0,14,179.5,268.1)" />
<use xlink:href="#f6_cv" transform="matrix(14,0,0,14,187.9,268.1)" />
<use xlink:href="#f6_bz" transform="matrix(14,0,0,14,199.2,268.1)" />
<use xlink:href="#f6_cw" transform="matrix(14,0,0,14,213.1,268)" />
<use xlink:href="#f6_cu" transform="matrix(14,0,0,14,212.5,268.1)" />
<use xlink:href="#f6_on" transform="matrix(14,0,0,14,226.6,268.1)" />
<use xlink:href="#f6_bp" transform="matrix(14,0,0,14,218.2,268.1)" />
<use xlink:href="#f6_bz" transform="matrix(14,0,0,14,236.1,268.1)" />
<use xlink:href="#f6_bt" transform="matrix(14,0,0,14,249.5,268.1)" />
<use xlink:href="#f6_cw" transform="matrix(14,0,0,14,261.7,268)" />
<use xlink:href="#f6_cc" transform="matrix(14,0,0,14,261.2,268.1)" />
<use xlink:href="#f6_ct" transform="matrix(14,0,0,14,272.8,268.1)" />
<use xlink:href="#f6_c1" transform="matrix(14,0,0,14,278.4,268.1)" />
<use xlink:href="#f6_k" transform="matrix(14,0,0,14,292.5,268.1)" />
<use xlink:href="#f6_ap" transform="matrix(14,0,0,14,297.7,268.1)" />
<use xlink:href="#f6_bt" transform="matrix(14,0,0,14,309.1,268.1)" />
<use xlink:href="#f6_bv" transform="matrix(14,0,0,14,320.8,268.1)" />
<use xlink:href="#f6_c1" transform="matrix(14,0,0,14,332.6,268.1)" />
<use xlink:href="#f6_cc" transform="matrix(14,0,0,14,346.7,268.1)" />
<use xlink:href="#f6_cv" transform="matrix(14,0,0,14,358.3,268.1)" />
<use xlink:href="#f6_c1" transform="matrix(14,0,0,14,363.9,268.1)" />
<use xlink:href="#f6_ct" transform="matrix(14,0,0,14,372.3,268.1)" />
<use xlink:href="#f6_bg" transform="matrix(14,0,0,14,383.6,268.1)" />
<use xlink:href="#f6_g6" transform="matrix(14,0,0,14,397.8,268.1)" />
<use xlink:href="#f6_d8" transform="matrix(14,0,0,14,422.7,268.1)" />
<use xlink:href="#f6_cc" transform="matrix(14,0,0,14,434,268.1)" />
<use xlink:href="#f6_ct" transform="matrix(14,0,0,14,445.6,268.1)" />
<use xlink:href="#f6_c1" transform="matrix(14,0,0,14,451.2,268.1)" />
<use xlink:href="#f6_b1" transform="matrix(14,0,0,14,179.1,293.3)" />
<use xlink:href="#f6_pc" transform="matrix(14,0,0,14,200.5,293.3)" />
<use xlink:href="#f6_pc" transform="matrix(14,0,0,14,204.8,293.3)" />
<use xlink:href="#f6_bq" transform="matrix(14,0,0,14,214.8,293.3)" />
<use xlink:href="#f6_ct" transform="matrix(14,0,0,14,227.9,293.3)" />
<use xlink:href="#f6_c1" transform="matrix(14,0,0,14,233.6,293.3)" />
<use xlink:href="#f6_d4" transform="matrix(14,0,0,14,241.5,293.3)" />
<use xlink:href="#f6_bb" transform="matrix(14,0,0,14,247.6,293.3)" />
<use xlink:href="#f6_c3" transform="matrix(14,0,0,14,260.2,293.3)" />
<use xlink:href="#f6_d4" transform="matrix(14,0,0,14,275.1,293.3)" />
<use xlink:href="#f6_bz" transform="matrix(14,0,0,14,280.6,293.3)" />
<use xlink:href="#f6_oz" transform="matrix(14,0,0,14,294.1,293.3)" />
<use xlink:href="#f6_bt" transform="matrix(14,0,0,14,305.3,293.3)" />
<use xlink:href="#f6_c7" transform="matrix(14,0,0,14,317,293.3)" />
<use xlink:href="#f6_c3" transform="matrix(14,0,0,14,329.1,293.3)" />
<use xlink:href="#f6_ct" transform="matrix(14,0,0,14,343.8,293.3)" />
<use xlink:href="#f6_ba" transform="matrix(14,0,0,14,349.4,293.3)" />
<use xlink:href="#f6_cc" transform="matrix(14,0,0,14,371.8,293.3)" />
<use xlink:href="#f6_ct" transform="matrix(14,0,0,14,383.4,293.3)" />
<use xlink:href="#f6_c1" transform="matrix(14,0,0,14,389,293.3)" />
<use xlink:href="#f6_bg" transform="matrix(14,0,0,14,403,293.3)" />
<use xlink:href="#f6_cv" transform="matrix(14,0,0,14,417.3,293.3)" />
<use xlink:href="#f6_pd" transform="matrix(14,0,0,14,422.9,293.3)" />
<use xlink:href="#f6_q" transform="matrix(14,0,0,14,430.5,293.3)" />
<use xlink:href="#f6_bz" transform="matrix(14,0,0,14,227.2,318.5)" />
<use xlink:href="#f6_ct" transform="matrix(14,0,0,14,240.5,318.5)" />
<use xlink:href="#f6_c1" transform="matrix(14,0,0,14,246.1,318.5)" />
<use xlink:href="#f6_d4" transform="matrix(14,0,0,14,254.1,318.5)" />
<use xlink:href="#f6_am" transform="matrix(14,0,0,14,260.2,318.5)" />
<use xlink:href="#f6_dj" transform="matrix(14,0,0,14,276.2,319)" />
<use xlink:href="#f6_bb" transform="matrix(14,0,0,14,281.7,318.5)" />
<use xlink:href="#f6_cu" transform="matrix(14,0,0,14,294.3,318.5)" />
<use xlink:href="#f6_bt" transform="matrix(14,0,0,14,299.9,318.5)" />
<use xlink:href="#f6_c0" transform="matrix(14,0,0,14,311.6,318.5)" />
<use xlink:href="#f6_d4" transform="matrix(14,0,0,14,324.3,318.5)" />
<use xlink:href="#f6_bv" transform="matrix(14,0,0,14,329.8,318.5)" />
<use xlink:href="#f6_nl" transform="matrix(14,0,0,14,341.7,318.5)" />
<use xlink:href="#f6_bs" transform="matrix(14,0,0,14,341.7,318.5)" />
<use xlink:href="#f6_ct" transform="matrix(14,0,0,14,355.7,318.5)" />
<use xlink:href="#f6_c1" transform="matrix(14,0,0,14,361.3,318.5)" />
<use xlink:href="#f6_d8" transform="matrix(14,0,0,14,369.7,318.5)" />
<use xlink:href="#f6_pc" transform="matrix(14,0,0,14,381,318.5)" />
<use xlink:href="#f6_pc" transform="matrix(14,0,0,14,385.3,318.5)" />
<use xlink:href="#f6_pc" transform="matrix(14,0,0,14,389.5,318.5)" />
<use xlink:href="#f6_bq" transform="matrix(14,0,0,14,141.2,369)" />
<use xlink:href="#f6_ct" transform="matrix(14,0,0,14,154.4,369)" />
<use xlink:href="#f6_c1" transform="matrix(14,0,0,14,160.1,369)" />
<use xlink:href="#f6_cv" transform="matrix(14,0,0,14,168.4,369)" />
<use xlink:href="#f6_am" transform="matrix(14,0,0,14,179.7,369)" />
<use xlink:href="#f6_dj" transform="matrix(14,0,0,14,195.8,369.4)" />
<use xlink:href="#f6_bb" transform="matrix(14,0,0,14,201.2,369)" />
<use xlink:href="#f6_cv" transform="matrix(14,0,0,14,213.8,369)" />
<use xlink:href="#f6_c3" transform="matrix(14,0,0,14,225.1,369)" />
<use xlink:href="#f6_ct" transform="matrix(14,0,0,14,239.8,369)" />
<use xlink:href="#f6_c3" transform="matrix(14,0,0,14,245.4,369)" />
<use xlink:href="#f6_bz" transform="matrix(14,0,0,14,260.1,369)" />
<use xlink:href="#f6_c3" transform="matrix(14,0,0,14,279.1,369)" />
<use xlink:href="#f6_ct" transform="matrix(14,0,0,14,293.9,369)" />
<use xlink:href="#f6_c3" transform="matrix(14,0,0,14,299.5,369)" />
<use xlink:href="#f6_k" transform="matrix(14,0,0,14,319.8,369)" />
<use xlink:href="#f6_ap" transform="matrix(14,0,0,14,325.1,369)" />
<use xlink:href="#f6_bt" transform="matrix(14,0,0,14,336.4,369)" />
<use xlink:href="#f6_bv" transform="matrix(14,0,0,14,348.1,369)" />
<use xlink:href="#f6_c1" transform="matrix(14,0,0,14,360,369)" />
<use xlink:href="#f6_bw" transform="matrix(14,0,0,14,374.1,369)" />
<use xlink:href="#f6_cx" transform="matrix(14,0,0,14,385,368.9)" />
<use xlink:href="#f6_c3" transform="matrix(14,0,0,14,390.2,369)" />
<use xlink:href="#f6_d8" transform="matrix(14,0,0,14,404.9,369)" />
<use xlink:href="#f6_b9" transform="matrix(14,0,0,14,416.1,369)" />
<use xlink:href="#f6_oc" transform="matrix(14,0,0,14,431.6,369)" />
<use xlink:href="#f6_bx" transform="matrix(14,0,0,14,442.9,369)" />
<use xlink:href="#f6_cc" transform="matrix(14,0,0,14,455.2,369)" />
<use xlink:href="#f6_ct" transform="matrix(14,0,0,14,466.8,369)" />
<use xlink:href="#f6_c1" transform="matrix(14,0,0,14,472.5,369)" />
<use xlink:href="#f6_b1" transform="matrix(14,0,0,14,152.7,394.2)" />
<use xlink:href="#f6_pc" transform="matrix(14,0,0,14,174.2,394.2)" />
<use xlink:href="#f6_pc" transform="matrix(14,0,0,14,178.5,394.2)" />
<use xlink:href="#f6_bq" transform="matrix(14,0,0,14,188.4,394.2)" />
<use xlink:href="#f6_ct" transform="matrix(14,0,0,14,201.6,394.2)" />
<use xlink:href="#f6_c1" transform="matrix(14,0,0,14,207.2,394.2)" />
<use xlink:href="#f6_d8" transform="matrix(14,0,0,14,215.6,394.2)" />
<use xlink:href="#f6_bz" transform="matrix(14,0,0,14,226.9,394.2)" />
<use xlink:href="#f6_cw" transform="matrix(14,0,0,14,240.8,394.1)" />
<use xlink:href="#f6_ba" transform="matrix(14,0,0,14,240.2,394.2)" />
<use xlink:href="#f6_bm" transform="matrix(14,0,0,14,256.9,394.2)" />
<use xlink:href="#f6_d8" transform="matrix(14,0,0,14,269.6,394.2)" />
<use xlink:href="#f6_cc" transform="matrix(14,0,0,14,280.9,394.2)" />
<use xlink:href="#f6_d4" transform="matrix(14,0,0,14,292.8,394.2)" />
<use xlink:href="#f6_bv" transform="matrix(14,0,0,14,298.2,394.2)" />
<use xlink:href="#f6_cx" transform="matrix(14,0,0,14,310,394.1)" />
<use xlink:href="#f6_bt" transform="matrix(14,0,0,14,310,394.2)" />
<use xlink:href="#f6_bz" transform="matrix(14,0,0,14,321.7,394.2)" />
<use xlink:href="#f6_bg" transform="matrix(14,0,0,14,340.8,394.2)" />
<use xlink:href="#f6_cv" transform="matrix(14,0,0,14,355,394.2)" />
<use xlink:href="#f6_c1" transform="matrix(14,0,0,14,366.3,394.2)" />
<use xlink:href="#f6_d8" transform="matrix(14,0,0,14,374.7,394.2)" />
<use xlink:href="#f6_be" transform="matrix(14,0,0,14,386,394.2)" />
<use xlink:href="#f6_ct" transform="matrix(14,0,0,14,399.9,394.2)" />
<use xlink:href="#f6_di" transform="matrix(14,0,0,14,403.4,394.6)" />
<use xlink:href="#f6_br" transform="matrix(14,0,0,14,405.6,394.2)" />
<use xlink:href="#f6_bg" transform="matrix(14,0,0,14,422.9,394.2)" />
<use xlink:href="#f6_cv" transform="matrix(14,0,0,14,437.2,394.2)" />
<use xlink:href="#f6_pd" transform="matrix(14,0,0,14,448.4,394.2)" />
<use xlink:href="#f6_q" transform="matrix(14,0,0,14,456,394.2)" />
<use xlink:href="#f6_bz" transform="matrix(14,0,0,14,227.2,419.4)" />
<use xlink:href="#f6_ct" transform="matrix(14,0,0,14,240.5,419.4)" />
<use xlink:href="#f6_c1" transform="matrix(14,0,0,14,246.1,419.4)" />
<use xlink:href="#f6_d4" transform="matrix(14,0,0,14,254.1,419.4)" />
<use xlink:href="#f6_am" transform="matrix(14,0,0,14,260.2,419.4)" />
<use xlink:href="#f6_dj" transform="matrix(14,0,0,14,276.2,419.8)" />
<use xlink:href="#f6_bb" transform="matrix(14,0,0,14,281.7,419.4)" />
<use xlink:href="#f6_cu" transform="matrix(14,0,0,14,294.3,419.4)" />
<use xlink:href="#f6_bt" transform="matrix(14,0,0,14,299.9,419.4)" />
<use xlink:href="#f6_c0" transform="matrix(14,0,0,14,311.6,419.4)" />
<use xlink:href="#f6_d4" transform="matrix(14,0,0,14,324.3,419.4)" />
<use xlink:href="#f6_bv" transform="matrix(14,0,0,14,329.8,419.4)" />
<use xlink:href="#f6_nl" transform="matrix(14,0,0,14,341.7,419.4)" />
<use xlink:href="#f6_bs" transform="matrix(14,0,0,14,341.7,419.4)" />
<use xlink:href="#f6_ct" transform="matrix(14,0,0,14,355.7,419.4)" />
<use xlink:href="#f6_c1" transform="matrix(14,0,0,14,361.3,419.4)" />
<use xlink:href="#f6_d8" transform="matrix(14,0,0,14,369.7,419.4)" />
<use xlink:href="#f6_pc" transform="matrix(14,0,0,14,381,419.4)" />
<use xlink:href="#f6_pc" transform="matrix(14,0,0,14,385.3,419.4)" />
<use xlink:href="#f6_pc" transform="matrix(14,0,0,14,389.5,419.4)" />
<use xlink:href="#f6_bt" transform="matrix(14,0,0,14,152.7,469.8)" />
<use xlink:href="#f6_ct" transform="matrix(14,0,0,14,164.4,469.8)" />
<use xlink:href="#f6_bb" transform="matrix(14,0,0,14,170,469.8)" />
<use xlink:href="#f6_al" transform="matrix(14,0,0,14,188.3,469.8)" />
<use xlink:href="#f6_nt" transform="matrix(14,0,0,14,204.2,469.8)" />
<use xlink:href="#f6_ip" transform="matrix(14,0,0,14,209.8,469.8)" />
<use xlink:href="#f6_cb" transform="matrix(14,0,0,14,228.1,469.8)" />
<use xlink:href="#f6_d4" transform="matrix(14,0,0,14,243.1,469.8)" />
<use xlink:href="#f6_bx" transform="matrix(14,0,0,14,248.6,469.8)" />
<use xlink:href="#f6_be" transform="matrix(14,0,0,14,260.9,469.8)" />
<use xlink:href="#f6_ct" transform="matrix(14,0,0,14,274.9,469.8)" />
<use xlink:href="#f6_c0" transform="matrix(14,0,0,14,280.5,469.8)" />
<use xlink:href="#f6_ct" transform="matrix(14,0,0,14,293.1,469.8)" />
<use xlink:href="#f6_k" transform="matrix(14,0,0,14,304.3,469.8)" />
<use xlink:href="#f6_c0" transform="matrix(14,0,0,14,309.6,469.8)" />
<use xlink:href="#f6_d8" transform="matrix(14,0,0,14,322.1,469.8)" />
<use xlink:href="#f6_bb" transform="matrix(14,0,0,14,327.7,469.8)" />
<use xlink:href="#f6_cv" transform="matrix(14,0,0,14,340.3,469.8)" />
<use xlink:href="#f6_b9" transform="matrix(14,0,0,14,351.6,469.8)" />
<use xlink:href="#f6_bz" transform="matrix(14,0,0,14,367.1,469.8)" />
<use xlink:href="#f6_bl" transform="matrix(14,0,0,14,380.5,469.8)" />
<use xlink:href="#f6_b9" transform="matrix(14,0,0,14,398.5,469.8)" />
<use xlink:href="#f6_d8" transform="matrix(14,0,0,14,414,469.8)" />
<use xlink:href="#f6_cc" transform="matrix(14,0,0,14,425.3,469.8)" />
<use xlink:href="#f6_c1" transform="matrix(14,0,0,14,436.9,469.8)" />
<use xlink:href="#f6_ct" transform="matrix(14,0,0,14,445.3,469.8)" />
<use xlink:href="#f6_c0" transform="matrix(14,0,0,14,450.9,469.8)" />
<use xlink:href="#f6_ct" transform="matrix(14,0,0,14,463.4,469.8)" />
<use xlink:href="#f6_b1" transform="matrix(14,0,0,14,166.4,495)" />
<use xlink:href="#f6_pc" transform="matrix(14,0,0,14,187.9,495)" />
<use xlink:href="#f6_pc" transform="matrix(14,0,0,14,192.2,495)" />
<use xlink:href="#f6_bq" transform="matrix(14,0,0,14,202.1,495)" />
<use xlink:href="#f6_ct" transform="matrix(14,0,0,14,215.3,495)" />
<use xlink:href="#f6_c1" transform="matrix(14,0,0,14,221,495)" />
<use xlink:href="#f6_cv" transform="matrix(14,0,0,14,229.3,495)" />
<use xlink:href="#f6_mv" transform="matrix(14,0,0,14,240.6,495)" />
<use xlink:href="#f6_cu" transform="matrix(14,0,0,14,252.4,495)" />
<use xlink:href="#f6_bt" transform="matrix(14,0,0,14,258,495)" />
<use xlink:href="#f6_c0" transform="matrix(14,0,0,14,269.7,495)" />
<use xlink:href="#f6_ct" transform="matrix(14,0,0,14,282.3,495)" />
<use xlink:href="#f6_bz" transform="matrix(14,0,0,14,293.6,495)" />
<use xlink:href="#f6_oz" transform="matrix(14,0,0,14,307,495)" />
<use xlink:href="#f6_bg" transform="matrix(14,0,0,14,312.6,495)" />
<use xlink:href="#f6_c0" transform="matrix(14,0,0,14,326.8,495)" />
<use xlink:href="#f6_pd" transform="matrix(14,0,0,14,339.4,495)" />
<use xlink:href="#f6_bg" transform="matrix(14,0,0,14,346.9,495)" />
<use xlink:href="#f6_c0" transform="matrix(14,0,0,14,361.2,495)" />
<use xlink:href="#f6_b9" transform="matrix(14,0,0,14,373.7,495)" />
<use xlink:href="#f6_ct" transform="matrix(14,0,0,14,389.2,495)" />
<use xlink:href="#f6_c1" transform="matrix(14,0,0,14,394.9,495)" />
<use xlink:href="#f6_bg" transform="matrix(14,0,0,14,408.9,495)" />
<use xlink:href="#f6_cv" transform="matrix(14,0,0,14,423.2,495)" />
<use xlink:href="#f6_pd" transform="matrix(14,0,0,14,434.5,495)" />
<use xlink:href="#f6_q" transform="matrix(14,0,0,14,442,495)" />
<use xlink:href="#f6_bz" transform="matrix(14,0,0,14,227.2,520.2)" />
<use xlink:href="#f6_ct" transform="matrix(14,0,0,14,240.5,520.2)" />
<use xlink:href="#f6_c1" transform="matrix(14,0,0,14,246.1,520.2)" />
<use xlink:href="#f6_d4" transform="matrix(14,0,0,14,254.1,520.2)" />
<use xlink:href="#f6_am" transform="matrix(14,0,0,14,260.2,520.2)" />
<use xlink:href="#f6_dj" transform="matrix(14,0,0,14,276.2,520.6)" />
<use xlink:href="#f6_bb" transform="matrix(14,0,0,14,281.7,520.2)" />
<use xlink:href="#f6_cu" transform="matrix(14,0,0,14,294.3,520.2)" />
<use xlink:href="#f6_bt" transform="matrix(14,0,0,14,299.9,520.2)" />
<use xlink:href="#f6_c0" transform="matrix(14,0,0,14,311.6,520.2)" />
<use xlink:href="#f6_d4" transform="matrix(14,0,0,14,324.3,520.2)" />
<use xlink:href="#f6_bv" transform="matrix(14,0,0,14,329.8,520.2)" />
<use xlink:href="#f6_nl" transform="matrix(14,0,0,14,341.7,520.2)" />
<use xlink:href="#f6_bs" transform="matrix(14,0,0,14,341.7,520.2)" />
<use xlink:href="#f6_ct" transform="matrix(14,0,0,14,355.7,520.2)" />
<use xlink:href="#f6_c1" transform="matrix(14,0,0,14,361.3,520.2)" />
<use xlink:href="#f6_d8" transform="matrix(14,0,0,14,369.7,520.2)" />
<use xlink:href="#f6_pc" transform="matrix(14,0,0,14,381,520.2)" />
<use xlink:href="#f6_pc" transform="matrix(14,0,0,14,385.3,520.2)" />
<use xlink:href="#f6_pc" transform="matrix(14,0,0,14,389.5,520.2)" />
</g>
<g fill="#000000" >
<use xlink:href="#f7_4r" transform="matrix(9,0,0,9,290.2,795.2)" />
<use xlink:href="#f8_m" transform="matrix(9,0,0,9,303,795.2)" />
<use xlink:href="#f8_n" transform="matrix(9,0,0,9,310.7,795.2)" />
<use xlink:href="#f7_4r" transform="matrix(9,0,0,9,321.3,795.2)" />
</g>
</g>
<image preserveAspectRatio="none" x="22" y="801" width="581" height="86" xlink:href="img/1.png"/>
<path d="M220,83.6H402.2v1.2H220V83.6Z" class="g1_29"/>
<image preserveAspectRatio="none" x="202" y="14" width="217" height="26" xlink:href="img/2.png"/>
<defs>
<path d="M1128,-65L953,29V322c0,0,-23,-9,-52,-9c0,0,-47,0,-102,25c0,0,11,-42,11,-83c0,0,0,-116,-78,-192c0,0,-78,-76,-203,-76c0,0,-129,0,-261,94c0,0,-132,95,-244,339l123,78c0,0,70,-150,146,-225c0,0,75,-76,168,-76c0,0,72,0,113,40c0,0,42,40,42,90c0,0,0,84,-77,115L387,350L249,556c0,0,86,77,199,83c0,0,119,73,119,163c0,0,0,25,-15,40c0,0,-4,0,-10,0c-19,0,-67,-3,-124,-33c0,0,-76,-39,-146,-106L142,872c0,0,61,65,140,107c0,0,79,42,158,42c0,0,121,0,216,-91c0,0,96,-91,96,-197c0,0,0,-96,-84,-186c0,0,62,-46,142,-46c0,0,88,0,143,52V822H834L749,937l32,64h994l86,-115l-32,-64H1557l102,-73V-31l-70,-34L1415,29V822H1095l103,-73V-31l-70,-34Z"
id="f5_am"
transform="scale(0.001,-0.001)"/>

<path d="M371,296c0,0,71,0,139,34c0,0,69,34,109,92v90c0,0,-72,36,-148,36c0,0,-84,0,-131,-47c0,0,-47,-47,-47,-111c0,0,0,-49,28,-89l50,-5ZM793,-65L619,29V134c0,0,-55,-27,-122,-27c0,0,-98,0,-207,48c0,0,-108,48,-182,132c0,0,-73,84,-73,188c0,0,0,113,83,191c0,0,84,78,212,78c0,0,41,0,84,-9L619,643V822H0L-86,937l32,64H978l85,-115l-32,-64H761L863,749V-31L793,-65Z"
id="f5_c7"
transform="scale(0.001,-0.001)"/>

<path d="M277,-65L102,29V822H0L-86,937l32,64H86L18,1111c0,0,-67,122,-168,122c0,0,-81,0,-202,-80l-128,250c0,0,122,77,232,77c0,0,196,0,356,-250L252,1001H463L548,886L516,822H244L347,749V-31L277,-65Z"
id="f5_d8"
transform="scale(0.001,-0.001)"/>

<path d="M394,379c0,0,57,0,107,30c0,0,51,29,77,86V822H214L318,749V403c0,0,29,-24,76,-24ZM752,-65L578,29V188c0,0,-43,-18,-89,-18c0,0,-138,0,-282,130C207,300,63,431,60,567V822H0L-86,937l32,64H937l87,-115L992,822H720L822,749V-31L752,-65Z"
id="f5_bv"
transform="scale(0.001,-0.001)"/>

<path d="M277,-65L102,29V822H0L-86,937l32,64H463L548,886L516,822H244L347,749V-31L277,-65Z"
id="f5_ct"
transform="scale(0.001,-0.001)"/>

<path d="M545,-97L35,405L87,542H295c0,0,1,5,1,280H0L-86,937l32,64H729L814,886L782,822H445L550,749V547c0,0,0,-75,-41,-127c0,0,-41,-52,-129,-111L709,110V41L545,-97Z"
id="f5_c1"
transform="scale(0.001,-0.001)"/>

<path d="M833,530V822H434L539,749V530ZM533,-97L23,405L75,542H284c0,0,2,5,2,280H-10L-97,937l32,64H1193l86,-115l-32,-64H975l102,-73V-31l-70,-34L833,29V333H405L370,309L697,110V41L533,-97Z"
id="f5_cb"
transform="scale(0.001,-0.001)"/>

<path d="M746,-65L571,29V419H376V260L275,212c0,0,-87,48,-160,148c0,0,-72,100,-91,193l57,84H571V822H0L-86,937l32,64H930l88,-115L985,822H713L816,749V-31L746,-65Z"
id="f5_bt"
transform="scale(0.001,-0.001)"/>

<path d="M0,822L-86,937l32,64H15L101,886L69,822Z"
id="f5_no"
transform="scale(0.001,-0.001)"/>

<path d="M842,-65L668,29V141c0,0,-66,-33,-142,-33c0,0,-146,0,-279,109c0,0,-134,108,-209,287l29,78c0,0,324,35,324,203c0,0,0,46,-27,80c0,0,-13,6,-29,6c0,0,-32,0,-57,-23c0,0,-24,-23,-24,-60c0,0,0,-49,45,-91L211,636C211,636,49,746,49,857c0,0,0,73,59,126c0,0,60,53,146,53c0,0,128,0,236,-109c0,0,107,-110,107,-239c0,0,0,-98,-74,-182c0,0,-75,-83,-222,-119c0,0,20,-51,52,-95c0,0,1,0,4,0c20,0,102,2,181,39c0,0,90,42,130,121V822H636L550,937l32,64h445l85,-115l-32,-64H810L912,749V-31L842,-65Z"
id="f5_bq"
transform="scale(0.001,-0.001)"/>

<path d="M959,-49L869,8V367c0,0,-32,-13,-64,-13c0,0,-50,0,-110,25c0,0,23,-52,23,-109c0,0,0,-103,-70,-170c0,0,-70,-66,-182,-66c0,0,-110,0,-222,82c0,0,-111,83,-213,293l68,42c0,0,72,-155,152,-231c0,0,81,-76,178,-76c0,0,83,0,131,49c0,0,48,48,48,117c0,0,0,54,-30,100c0,0,-31,47,-91,65L325,391L257,512c0,0,68,53,156,56c0,0,140,72,140,179c0,0,0,69,-52,99c0,0,-4,1,-11,1c-19,0,-66,-4,-123,-30c0,0,-78,-35,-142,-96L150,823c0,0,119,117,253,117c0,0,98,0,175,-71c0,0,77,-70,77,-159c0,0,0,-103,-94,-180c0,0,39,-23,73,-56c0,0,52,-22,109,-22c0,0,77,0,126,38V822H727l-46,76l14,31h840l46,-76l-13,-31H1332l66,-58V-39l-37,-10L1271,8V822H930l66,-58V-39L959,-49Z"
id="f6_am"
transform="scale(0.001,-0.001)"/>

<path d="M325,240c0,0,77,0,154,35c0,0,77,35,120,99V500c0,0,-118,73,-222,73c0,0,-97,0,-151,-54c0,0,-53,-53,-53,-128c0,0,0,-73,49,-125c0,0,38,-26,103,-26ZM689,-49L599,8V199c0,0,-73,-65,-179,-65c0,0,-134,0,-252,96c0,0,-118,95,-118,221c0,0,0,102,78,171c0,0,78,69,190,69c0,0,38,0,75,-10L599,582V822H0l-45,76l14,31H863l46,-76L895,822H660l66,-58V-39L689,-49Z"
id="f6_c7"
transform="scale(0.001,-0.001)"/>

<path d="M228,-49L138,8V822H0l-45,76l14,31H119L-33,1144c0,0,-70,92,-157,92c0,0,-69,0,-159,-58l-72,118c0,0,89,73,181,73c0,0,140,0,257,-170L205,929H402l46,-76L434,822H199l65,-58V-39L228,-49Z"
id="f6_d8"
transform="scale(0.001,-0.001)"/>

<path d="M388,325c0,0,58,0,112,31c0,0,53,31,84,86V822H165l69,-58V408c0,0,47,-83,154,-83ZM674,-49L584,8V257c0,0,-61,-51,-141,-51c0,0,-125,0,-232,109c0,0,-107,108,-107,243V822H0l-45,76l14,31H848l46,-76L880,822H645l65,-58V-39L674,-49Z"
id="f6_bv"
transform="scale(0.001,-0.001)"/>

<path d="M228,-49L138,8V822H0l-45,76l14,31H402l46,-76L434,822H199l65,-58V-39L228,-49Z"
id="f6_ct"
transform="scale(0.001,-0.001)"/>

<path d="M527,-71L52,414l34,92H277c0,0,12,32,12,72V822H0l-45,76l14,31H599l46,-76L631,822H350l66,-55V564c0,0,0,-96,-152,-248L610,34L611,8L527,-71Z"
id="f6_c1"
transform="scale(0.001,-0.001)"/>

<path d="M799,475V822H350l66,-55V564c0,0,0,-43,-25,-89ZM527,-71L52,414l34,92H277c0,0,12,32,12,72V822H0l-45,76l14,31H1063l46,-76l-14,-31H860l66,-58V-39L889,-49L799,8V370H315L264,316L610,34L611,8L527,-71Z"
id="f6_cb"
transform="scale(0.001,-0.001)"/>

<path d="M663,-49L573,8V445H299V280L226,251c0,0,-105,99,-162,238l63,72H573V822H0l-45,76l14,31H837l46,-76L869,822H634l66,-58V-39L663,-49Z"
id="f6_bt"
transform="scale(0.001,-0.001)"/>

<path d="M0,822l-45,76l14,31H61l46,-76L93,822Z"
id="f6_no"
transform="scale(0.001,-0.001)"/>

<path d="M768,-49L678,8V202c0,0,-73,-58,-172,-58c0,0,-123,0,-240,94c0,0,-118,94,-179,237l20,55c0,0,134,12,215,70c0,0,81,57,81,141c0,0,0,90,-67,134l-26,3c0,0,-46,0,-74,-29c0,0,-28,-30,-28,-68c0,0,0,-55,82,-109L252,620C252,620,93,720,93,820c0,0,0,65,47,104c0,0,46,40,114,40c0,0,99,0,179,-83c0,0,80,-83,82,-197c0,0,0,-93,-79,-165c0,0,-78,-73,-199,-97c0,0,29,-104,88,-158c0,0,42,-16,92,-16c0,0,78,0,151,38c0,0,74,38,110,111V822H553l-46,76l14,31H943l45,-76L975,822H739l66,-58V-39L768,-49Z"
id="f6_bq"
transform="scale(0.001,-0.001)"/>

<path d="M228,-49L138,8V822H0l-45,76l14,31H138c0,0,-109,342,-284,342c0,0,-62,0,-102,-40c0,0,-40,-39,-40,-93c0,0,0,-61,51,-134l-42,-32c0,0,-128,113,-128,226c0,0,0,79,60,136c0,0,61,56,154,56c0,0,137,0,249,-125c0,0,112,-125,169,-336H402l46,-76L434,822H199l65,-58V-39L228,-49Z"
id="f6_cv"
transform="scale(0.001,-0.001)"/>

<path d="M283,260c0,0,122,0,209,113V513c0,0,-90,51,-160,51c0,0,-80,0,-129,-50c0,0,-49,-50,-49,-118c0,0,0,-60,35,-110c0,0,45,-26,94,-26ZM582,-49L492,8V211c0,0,-63,-54,-141,-54c0,0,-113,0,-213,92c0,0,-100,92,-100,205c0,0,0,93,69,157c0,0,69,64,162,64c0,0,32,0,64,-9L492,590V822H0l-45,76l14,31H1108l45,-76l-13,-31H553l66,-58V524c0,0,91,89,192,89c0,0,98,0,171,-79c0,0,72,-79,72,-186c0,0,0,-178,-224,-330L736,124c0,0,219,153,219,269c0,0,0,44,-26,75c0,0,-26,32,-81,32c0,0,-109,0,-229,-155V-39L582,-49Z"
id="f6_b9"
transform="scale(0.001,-0.001)"/>

<path d="M527,-71L52,414l34,92H277c0,0,12,32,12,72V822H0l-45,76l14,31H940l45,-76L972,822H350l66,-55V553c0,0,24,52,77,83c0,0,52,30,112,30c0,0,87,0,171,-76c0,0,84,-75,222,-304L938,244L828,411c0,0,-95,134,-195,134c0,0,-63,0,-100,-35c0,0,-36,-36,-36,-87c0,0,0,-50,42,-87l152,99L755,315c0,0,-71,-61,-148,-61c0,0,-80,0,-146,66c0,0,-65,67,-65,164c0,0,-34,-70,-132,-168L610,34L611,8L527,-71Z"
id="f6_n1"
transform="scale(0.001,-0.001)"/>

<path d="M689,445V822H286l65,-58l8,-319ZM779,-49L689,8V328H370V180L296,150c0,0,-56,35,-120,104c0,0,-63,70,-89,131l41,60H238L223,822H0l-45,76l14,31H953l46,-76L985,822H750l66,-58V-39L779,-49Z"
id="f6_bz"
transform="scale(0.001,-0.001)"/>

<path d="M-234,-413c0,0,-210,0,-488,322l54,49c0,0,119,-128,209,-193c0,0,90,-65,177,-65c0,0,72,0,113,40c0,0,42,39,42,91c0,0,0,75,-78,106L-323,-181l-90,98c0,0,63,95,167,95c0,0,90,0,155,-69c0,0,66,-70,66,-164c0,0,0,-85,-60,-139c0,0,-61,-53,-149,-53Z"
id="f6_cw"
transform="scale(0.001,-0.001)"/>

<path d="M688,-243c0,0,-256,53,-408,173c0,0,-152,119,-152,270c0,0,0,101,68,171c0,0,-101,84,-101,179c0,0,0,64,53,112c0,0,54,47,191,47H587V822H0l-45,76l14,31H830l45,-76L862,822H640l66,-58V585H362c0,0,-159,-1,-159,-92c0,0,0,-41,46,-80c0,0,76,47,183,47c0,0,135,0,230,-76c0,0,96,-75,96,-187C758,197,758,67,629,2L545,104c0,0,49,30,81,75c0,0,32,44,32,82c0,0,0,16,-4,26c0,0,-64,58,-167,58c0,0,-97,0,-166,-50v-2c0,0,-67,-52,-67,-131c0,0,0,-116,132,-199c0,0,132,-84,334,-132l-32,-74Z"
id="f6_cc"
transform="scale(0.001,-0.001)"/>

<path d="M675,-274L602,21C602,21,550,3,498,3C498,3,347,3,210,118C210,118,73,232,73,373c0,0,0,113,84,184c0,0,84,71,222,72H524V822H0l-45,76l14,31H834l46,-76L866,822H585l66,-58V504l-3,2l3,-3H408c0,0,-95,0,-154,-53c0,0,-58,-53,-58,-132c0,0,0,-49,27,-100c0,0,28,-50,83,-84c0,0,44,-15,96,-15c0,0,91,0,160,46L535,303l101,48L773,188c0,0,-8,-28,-34,-66c0,0,-27,-38,-62,-64L813,-221L675,-274Z"
id="f6_br"
transform="scale(0.001,-0.001)"/>

<path d="M228,-49L138,8V822H0l-45,76l14,31H136c0,0,-173,353,-364,353c0,0,-75,0,-119,-44c0,0,-45,-45,-45,-106c0,0,0,-69,48,-128l-43,-32c0,0,-124,113,-124,224c0,0,0,87,67,146c0,0,68,59,167,59c0,0,150,0,283,-130c0,0,135,-130,219,-342H402l46,-76L434,822H199l65,-58V-39L228,-49Z"
id="f6_ob"
transform="scale(0.001,-0.001)"/>

<path d="M547,-285c0,0,-66,25,-102,80c0,0,32,69,82,101c0,0,55,-20,99,-80c0,0,-26,-67,-79,-101Zm1,228c0,0,-122,0,-243,81c0,0,-122,81,-252,280l57,41C110,345,283,64,498,64c0,0,92,0,153,49c0,0,61,49,61,121c0,0,0,46,-28,84L440,237c0,0,-73,11,-139,55c0,0,-66,44,-105,105c0,0,-40,61,-40,119c0,0,0,72,62,125c0,0,62,53,184,53H625V822H0l-45,76l14,31H906l46,-76L938,822H678l66,-58V562H431c0,0,-164,0,-164,-99c0,0,0,-55,57,-102l261,82c0,0,104,-21,172,-98c0,0,68,-78,68,-171c0,0,0,-99,-76,-166c0,0,-77,-65,-201,-65Z"
id="f6_ch"
transform="scale(0.001,-0.001)"/>

<path d="M-91,1001c0,0,-27,10,-61,36c0,0,-33,26,-50,49c0,0,38,81,90,110c0,0,61,-23,107,-85c0,0,-28,-71,-86,-110ZM-214,863l-199,281c0,0,-70,92,-157,92c0,0,-69,0,-159,-58l-72,118c0,0,89,73,180,73c0,0,141,0,258,-170L-155,901l-59,-38Z"
id="f6_oz"
transform="scale(0.001,-0.001)"/>

<path d="M413,-59C413,-59,53,193,53,416c0,0,0,97,66,164c0,0,66,66,156,66c0,0,61,0,110,-30L487,507c0,0,92,126,257,126l35,-2V822H0l-45,76l14,31H1043l46,-76l-13,-31H840l66,-58V-39L869,-49L779,8V547c0,0,-101,-5,-165,-90c0,0,-64,-86,-70,-222L507,225l-90,73c0,0,5,79,35,151c0,0,-59,66,-128,66c0,0,-57,0,-100,-38c0,0,-44,-39,-44,-109c0,0,0,-165,284,-360L413,-59Z"
id="f6_c3"
transform="scale(0.001,-0.001)"/>

<path d="M727,-49L637,8V822H278l66,-58V226L270,196c0,0,-64,36,-122,98c0,0,-58,62,-79,122l43,59H217V822H0l-45,76l14,31H901l46,-76L933,822H698l66,-58V-39L727,-49Z"
id="f6_bb"
transform="scale(0.001,-0.001)"/>

<path d="M830,-253l-123,66c0,0,31,47,31,78c0,0,0,44,-64,84L353,130c0,0,-234,113,-234,325V822H0l-45,76l14,31H848l46,-76L880,822H655l68,-58V561c0,0,0,-176,-41,-241c0,0,-40,-65,-161,-106l-49,82l124,69V822H180l66,-58V283L646,92c0,0,126,-60,176,-110c0,0,50,-51,50,-115c0,0,0,-62,-42,-120Z"
id="f6_ax"
transform="scale(0.001,-0.001)"/>

<path d="M845,-49L755,8V513H497c0,0,61,-45,93,-110c0,0,33,-64,33,-128c0,0,0,-90,-58,-144c0,0,-59,-53,-143,-53c0,0,-133,0,-234,139C188,217,87,356,20,596l76,24c0,0,60,-201,127,-306c0,0,67,-105,160,-105c0,0,57,0,91,36c0,0,33,36,33,91c0,0,0,84,-73,159L295,558v71H755V822H0l-45,76l14,31H1019l46,-76l-14,-31H816l66,-58V-39L845,-49Z"
id="f6_bg"
transform="scale(0.001,-0.001)"/>

<path d="M254,-26c0,0,-84,16,-116,92c0,0,13,84,97,127c0,0,100,-36,112,-110C347,83,324,6,254,-26Zm458,0c0,0,-84,16,-116,92c0,0,14,84,98,127c0,0,99,-37,111,-110C805,83,782,6,712,-26Zm458,0c0,0,-84,16,-116,92c0,0,14,84,98,127c0,0,99,-36,111,-110c0,0,-22,-77,-93,-109Z"
id="f6_8l"
transform="scale(0.001,-0.001)"/>

<path d="M-214,863l-199,281c0,0,-70,92,-157,92c0,0,-69,0,-159,-58l-72,118c0,0,89,73,180,73c0,0,141,0,258,-170L-155,901l-59,-38Z"
id="f6_d4"
transform="scale(0.001,-0.001)"/>

<path d="M0,1062c0,0,-26,11,-60,36c0,0,-34,26,-51,49c0,0,39,81,91,110c0,0,60,-23,106,-85c0,0,-28,-70,-86,-110Z"
id="f6_dj"
transform="scale(0.001,-0.001)"/>

<path d="M228,-49L138,8V822H0l-45,76l14,31H134c0,0,-91,92,-91,191c0,0,0,105,85,170c0,0,84,65,219,65c0,0,128,0,293,-76c0,0,165,-77,362,-263L958,966c0,0,-177,143,-303,210c0,0,-125,68,-244,68c0,0,-107,0,-175,-50c0,0,-68,-50,-68,-131c0,0,0,-61,49,-134H402l46,-76L434,822H199l65,-58V-39L228,-49Z"
id="f6_cu"
transform="scale(0.001,-0.001)"/>

<path d="M374,248c0,0,77,0,149,36c0,0,71,37,110,107V822H284c0,0,138,-96,138,-208c0,0,0,-151,-228,-192c0,0,29,-104,89,-158c0,0,41,-16,91,-16ZM723,-49L633,8V200c0,0,-69,-56,-170,-56c0,0,-122,0,-240,94c0,0,-118,94,-179,237l20,55c0,0,133,17,187,44c0,0,55,28,55,84c0,0,0,45,-30,81c0,0,-30,36,-99,83H0l-45,76l14,31H897l46,-76L929,822H694l65,-58V-39L723,-49Z"
id="f6_c0"
transform="scale(0.001,-0.001)"/>

<path d="M0,822l-45,76l14,31H38L84,853L70,822Z"
id="f6_nl"
transform="scale(0.001,-0.001)"/>

<path d="M827,-49L736,8V205c0,0,-84,-84,-209,-84c0,0,-130,0,-237,91c0,0,-108,92,-108,196c0,0,0,79,61,137C243,545,66,672,66,791c0,0,0,75,52,124c0,0,53,49,134,49c0,0,164,0,260,-237L451,694c0,0,-55,114,-119,163l-31,5c0,0,-44,0,-77,-32c0,0,-33,-31,-33,-78c0,0,0,-86,113,-165c0,0,60,27,133,27l67,-4l75,-89L564,490l-51,7H493c0,0,-90,0,-142,-43c0,0,-52,-43,-52,-104c0,0,0,-60,51,-109c0,0,33,-16,84,-16c0,0,89,0,177,47c0,0,89,47,125,137V822H567l-46,76l14,31h466l46,-76l-14,-31H798l65,-58V-39L827,-49Z"
id="f6_bs"
transform="scale(0.001,-0.001)"/>

<path d="M92,380L46,457l14,30H448l45,-76L480,380Z"
id="f6_pd"
transform="scale(0.001,-0.001)"/>

<path d="M95,0L67,98L422,497c0,0,130,154,130,259c0,0,0,63,-40,111c0,0,-40,48,-121,48c0,0,-75,0,-171,-29L193,695l-88,2c0,0,-13,82,-13,165l1,65c0,0,159,97,315,97c0,0,122,0,207,-78c0,0,85,-77,85,-193c0,0,0,-67,-34,-133c0,0,-33,-67,-165,-217L237,121l4,-14l373,21l49,136l83,-12C746,252,732,99,704,0Z"
id="f6_q"
transform="scale(0.001,-0.001)"/>

<path d="M-10,1013c0,0,-122,70,-122,189c0,0,0,74,53,125c0,0,53,51,137,51c0,0,87,0,164,-73l-23,-61c0,0,-49,36,-109,36c0,0,-61,0,-98,-39c0,0,-38,-39,-38,-97c0,0,0,-55,46,-128l-10,-3Z"
id="f6_on"
transform="scale(0.001,-0.001)"/>

<path d="M347,-57C347,-57,66,211,66,394c0,0,0,98,74,164c0,0,74,65,225,65H616V822H0l-45,76l14,31H880l46,-76L912,822H677l66,-58V-39L706,-49L616,8V500H428c0,0,-239,0,-239,-161c0,0,0,-136,214,-343L347,-57Z"
id="f6_bp"
transform="scale(0.001,-0.001)"/>

<path d="M108,-222l-44,58c0,0,96,81,104,164L89,61c0,0,12,83,93,122c0,0,50,-15,79,-55c0,0,29,-39,29,-90c0,0,0,-69,-48,-142c0,0,-48,-72,-134,-118Z"
id="f6_k"
transform="scale(0.001,-0.001)"/>

<path d="M471,-26c0,0,-259,0,-448,396l70,43C93,413,240,98,442,98c0,0,79,0,132,46c0,0,54,45,54,120c0,0,0,61,-38,116c0,0,-38,54,-107,72L322,370L255,492c0,0,66,53,156,56c0,0,128,51,128,153c0,0,0,77,-65,121H0l-45,76l14,31H813l46,-76L845,822H578c0,0,76,-66,76,-157c0,0,0,-95,-87,-156c0,0,84,-48,131,-123c0,0,48,-76,48,-158c0,0,0,-109,-78,-182c0,0,-78,-72,-197,-72Z"
id="f6_ap"
transform="scale(0.001,-0.001)"/>

<path d="M1260,193c0,0,77,0,149,36c0,0,71,37,110,107V822H678l66,-58V692h330c0,0,99,-3,189,-78c0,0,91,-75,91,-153c0,0,0,-58,-61,-100c0,0,-60,-43,-169,-54c0,0,16,-59,45,-98c0,0,41,-16,91,-16ZM1609,-80l-90,58V145c0,0,-69,-56,-173,-56c0,0,-115,0,-210,74c0,0,-96,74,-160,205l20,55c0,0,243,8,243,89c0,0,0,36,-53,47c0,0,-54,11,-181,11H428c0,0,-72,0,-118,-27c0,0,-46,-27,-46,-74c0,0,0,-50,60,-93l261,82c0,0,104,-23,170,-99c0,0,67,-76,67,-166c0,0,0,-101,-79,-167c0,0,-80,-65,-198,-65c0,0,-258,0,-492,358l57,42C110,361,283,79,497,79c0,0,91,0,152,51c0,0,61,50,61,122c0,0,0,46,-26,81L440,252c0,0,-110,15,-197,102c0,0,-87,86,-87,175c0,0,0,68,59,116c0,0,58,49,172,49H625V822H0l-45,76l14,31H1783l46,-76l-14,-31H1580l65,-58V-69l-36,-11Z"
id="f6_g6"
transform="scale(0.001,-0.001)"/>

<path d="M959,-49L869,8V367c0,0,-32,-13,-64,-13c0,0,-50,0,-110,25c0,0,23,-52,23,-109c0,0,0,-103,-70,-170c0,0,-70,-66,-182,-66c0,0,-110,0,-222,82c0,0,-111,83,-213,293l68,42c0,0,72,-155,152,-231c0,0,81,-76,178,-76c0,0,83,0,131,49c0,0,48,48,48,117c0,0,0,54,-30,100c0,0,-31,47,-91,65L325,391L257,512c0,0,68,53,156,56c0,0,140,72,140,179c0,0,0,69,-52,99c0,0,-4,1,-11,1c-19,0,-66,-4,-123,-30c0,0,-78,-35,-142,-96L150,823c0,0,119,117,253,117c0,0,98,0,175,-71c0,0,77,-70,77,-159c0,0,0,-103,-94,-180c0,0,39,-23,73,-56c0,0,52,-22,109,-22c0,0,77,0,126,38V822H727l-46,76l14,31h558l-153,215c0,0,-70,92,-157,92c0,0,-69,0,-159,-58l-72,118c0,0,89,73,180,73c0,0,141,0,258,-170L1338,929h197l46,-76l-13,-31H1332l66,-58V-39l-37,-10L1271,8V822H930l66,-58V-39L959,-49Z"
id="f6_b1"
transform="scale(0.001,-0.001)"/>

<path d="M226,-49c0,0,-66,24,-102,78c0,0,32,69,82,101c0,0,55,-20,100,-80c0,0,-26,-66,-80,-99Z"
id="f6_pc"
transform="scale(0.001,-0.001)"/>

<path d="M761,293c0,0,127,0,169,94V532c0,0,-68,46,-145,46c0,0,-76,0,-121,-46c0,0,-45,-45,-45,-107c0,0,0,-61,44,-110c0,0,47,-22,98,-22ZM657,67c0,0,166,0,273,107v55c0,0,-45,-36,-111,-36c0,0,-110,0,-207,90c0,0,-97,90,-97,194c0,0,0,85,66,148c0,0,65,63,155,63l48,-5L930,603V822H376l62,-55V579c0,0,0,-60,-23,-102c0,0,-24,-42,-148,-190c0,0,66,-104,175,-162c0,0,108,-58,215,-58ZM1021,-49L930,8V53c0,0,-105,-83,-264,-83c0,0,-177,0,-339,128C327,98,165,226,90,429l34,77H296c0,0,19,39,19,102l-2,214H0l-45,76l14,31H1195l46,-76l-14,-31H992l65,-58V-39l-36,-10Z"
id="f6_ba"
transform="scale(0.001,-0.001)"/>

<path d="M368,344c0,0,90,0,155,73V822H150l67,-58V438c0,0,46,-94,151,-94ZM613,-49L523,8V251c0,0,-48,-28,-103,-28c0,0,-122,0,-227,112C193,335,89,448,89,590V822H0l-45,76l14,31H1150l46,-76l-13,-31H584l65,-58V533c0,0,101,95,211,95c0,0,98,0,170,-79c0,0,73,-78,73,-185c0,0,0,-179,-225,-330L785,139c0,0,219,153,219,269c0,0,0,43,-26,75c0,0,-26,32,-80,32c0,0,-120,0,-249,-159V-39L613,-49Z"
id="f6_bw"
transform="scale(0.001,-0.001)"/>

<path d="M108,-433L-59,-214c0,0,-99,119,-191,119c0,0,-59,0,-96,-35c0,0,-36,-34,-36,-81c0,0,0,-49,42,-83l152,95l64,-116c0,0,-71,-58,-148,-58c0,0,-80,0,-146,63c0,0,-65,64,-65,144c0,0,0,77,62,131c0,0,61,53,142,53c0,0,138,0,296,-205L165,-393l-57,-40Z"
id="f6_cx"
transform="scale(0.001,-0.001)"/>

<path d="M228,-49L138,8V822H0l-45,76l14,31H134c0,0,-231,362,-445,362c0,0,-87,0,-135,-49c0,0,-48,-49,-48,-116c0,0,0,-73,43,-122l-45,-32c0,0,-119,108,-119,223c0,0,0,94,74,155c0,0,73,60,181,60c0,0,161,0,316,-134c0,0,154,-133,267,-347H402l46,-76L434,822H199l65,-58V-39L228,-49Z"
id="f6_oc"
transform="scale(0.001,-0.001)"/>

<path d="M348,229c0,0,57,0,106,17L263,559c0,0,-95,-50,-95,-162c0,0,0,-75,52,-136c0,0,49,-32,128,-32Zm170,48c0,0,61,38,96,91V504c0,0,-131,80,-244,80l-35,-2L518,277ZM704,-49L614,8V193c0,0,-84,-65,-192,-65c0,0,-139,0,-255,98c0,0,-115,98,-115,226c0,0,0,106,77,175c0,0,77,70,189,70c0,0,38,0,75,-9L614,578V822H0l-45,76l14,31H878l46,-76L911,822H675l66,-58V-39L704,-49Z"
id="f6_bx"
transform="scale(0.001,-0.001)"/>

<path d="M548,-57c0,0,-122,0,-243,81c0,0,-122,81,-252,280l57,41C110,345,283,64,498,64c0,0,92,0,153,49c0,0,61,49,61,121c0,0,0,46,-28,84L440,237c0,0,-73,11,-139,55c0,0,-66,44,-105,105c0,0,-40,61,-40,119c0,0,0,72,62,125c0,0,62,53,184,53H625V822H0l-45,76l14,31H906l46,-76L938,822H678l66,-58V562H431c0,0,-164,0,-164,-99c0,0,0,-55,57,-102l261,82c0,0,104,-21,172,-98c0,0,68,-78,68,-171c0,0,0,-99,-76,-166c0,0,-77,-65,-201,-65Z"
id="f6_bm"
transform="scale(0.001,-0.001)"/>

<path d="M825,-49L735,8V217c0,0,-86,-72,-197,-72c0,0,-130,0,-238,91c0,0,-107,91,-107,204c0,0,0,55,27,105H55L12,616l14,30H574l46,-76L607,539H396c0,0,-78,-49,-78,-162c0,0,0,-70,40,-111c0,0,39,-15,94,-15c0,0,84,0,163,41c0,0,79,41,120,121V822H0l-45,76l14,31H999l46,-76l-14,-31H796l66,-58V-39L825,-49Z"
id="f6_be"
transform="scale(0.001,-0.001)"/>

<path d="M-233,1021c0,0,-84,0,-168,55c0,0,-84,56,-146,162l51,50c0,0,95,-162,219,-162c0,0,125,0,160,157L-7,1234c0,0,-21,-103,-81,-158c0,0,-61,-55,-145,-55Zm-41,201c0,0,-66,25,-102,80c0,0,32,68,82,101c0,0,55,-20,99,-80c0,0,-26,-67,-79,-101Z"
id="f6_di"
transform="scale(0.001,-0.001)"/>

<path d="M959,-49L869,8V367c0,0,-32,-13,-64,-13c0,0,-50,0,-110,25c0,0,23,-52,23,-109c0,0,0,-103,-70,-170c0,0,-70,-66,-182,-66c0,0,-110,0,-222,82c0,0,-111,83,-213,293l68,42c0,0,72,-155,152,-231c0,0,81,-76,178,-76c0,0,83,0,131,49c0,0,48,48,48,117c0,0,0,54,-30,100c0,0,-31,47,-91,65L325,391L257,512c0,0,68,53,156,56c0,0,140,72,140,179c0,0,0,69,-52,99c0,0,-4,1,-11,1c-19,0,-66,-4,-123,-30c0,0,-78,-35,-142,-96L150,823c0,0,119,117,253,117c0,0,98,0,175,-71c0,0,77,-70,77,-159c0,0,0,-103,-94,-180c0,0,39,-23,73,-56c0,0,52,-22,109,-22c0,0,77,0,126,38V822H727l-46,76l14,31h439l45,-76l-13,-31H930l66,-58V-39L959,-49Z"
id="f6_al"
transform="scale(0.001,-0.001)"/>

<path d="M228,-49L138,8V822H0l-45,76l14,31H134c0,0,-91,93,-91,202c0,0,0,105,85,170c0,0,86,65,236,65c0,0,340,0,742,-350l-50,-46c0,0,-182,135,-340,208c0,0,-158,73,-302,73c0,0,-113,0,-183,-48c0,0,-69,-48,-69,-132c0,0,0,-63,53,-142H402l46,-76L434,822H199l65,-58V-39L228,-49Z"
id="f6_nt"
transform="scale(0.001,-0.001)"/>

<path d="M455,-130c0,0,-122,21,-214,81l-1,87L637,335V822H278l66,-58V257L270,226c0,0,-64,37,-122,99c0,0,-58,62,-79,121l43,60H217V822H0l-45,76l14,31H901l46,-76L933,822H698l66,-58V-39L727,-49L637,8V196L434,41L500,-69l-45,-61Z"
id="f6_ip"
transform="scale(0.001,-0.001)"/>

<path d="M449,79c0,0,103,0,168,61c0,0,66,60,66,149c0,0,0,93,-84,186H420c0,0,-107,0,-164,-50c0,0,-57,-51,-57,-126c0,0,0,-108,99,-184c0,0,81,-36,151,-36Zm67,-96c0,0,-168,0,-301,109C215,92,81,202,81,350c0,0,0,114,83,182c0,0,84,68,229,68H507V822H0l-45,76l14,31H883l46,-76L915,822H568l66,-58V532c0,0,87,-64,130,-144c0,0,43,-79,43,-157c0,0,0,-109,-81,-179c0,0,-81,-69,-210,-69Z"
id="f6_bl"
transform="scale(0.001,-0.001)"/>

<path d="M652,-518c0,0,-209,0,-487,322l53,49c0,0,120,-129,210,-193c0,0,90,-65,177,-65c0,0,72,0,113,39c0,0,41,40,41,92c0,0,0,75,-78,105L564,-286l-90,98c0,0,62,96,169,96L605,37C605,37,552,18,498,18c0,0,-151,0,-288,115C210,133,73,248,73,388c0,0,0,113,84,184c0,0,84,71,222,73H524V822H0l-45,76l14,31H842l46,-76L874,822H567l84,-73V519l-3,2l3,-3H408c0,0,-93,0,-153,-52c0,0,-59,-52,-59,-128c0,0,0,-121,110,-188c0,0,53,-17,105,-17c0,0,92,0,153,43L535,318l101,49L773,203c0,0,-20,-67,-87,-122l61,-204c0,0,52,-32,83,-87c0,0,32,-55,32,-116c0,0,0,-85,-61,-139c0,0,-60,-53,-149,-53Z"
id="f6_mv"
transform="scale(0.001,-0.001)"/>

<path d="M725,307c0,0,-95,0,-218,78c0,0,-123,78,-188,78c0,0,-54,0,-95,-34c0,0,-41,-34,-73,-100L93,362c0,0,38,88,101,146c0,0,63,59,148,59c0,0,90,0,214,-78c0,0,124,-79,188,-79c0,0,63,0,106,34c0,0,42,33,85,104l60,-40c0,0,-32,-66,-101,-134c0,0,-70,-67,-169,-67Z"
id="f7_4r"
transform="scale(0.001,-0.001)"/>

<path d="M46,0c0,0,-2,48,16,93c0,0,27,74,88,146c0,0,61,71,176,165c0,0,178,146,241,232c0,0,63,85,63,161c0,0,0,80,-57,135c0,0,-58,55,-149,55c0,0,-98,0,-156,-59c0,0,-58,-58,-59,-160L71,782c0,0,15,154,107,235c0,0,93,81,249,81c0,0,157,0,249,-87c0,0,92,-88,92,-217c0,0,0,-65,-27,-129c0,0,-27,-63,-89,-133c0,0,-62,-70,-207,-193C445,339,324,238,290,202c0,0,-35,-36,-57,-73H770V0Z"
id="f8_m"
transform="scale(0.001,-0.001)"/>

<path d="M412,-18c0,0,-144,0,-239,85c0,0,-95,86,-108,222l133,18c0,0,24,-114,79,-164c0,0,55,-50,135,-50c0,0,96,0,161,65c0,0,65,66,65,163c0,0,0,92,-61,152c0,0,-60,60,-153,60c0,0,-38,0,-95,-15l15,119c0,0,13,-2,21,-2c0,0,86,0,155,45c0,0,69,44,69,137c0,0,0,74,-50,122c0,0,-50,49,-129,49c0,0,-79,0,-131,-50c0,0,-52,-49,-67,-147L78,815c0,0,25,135,112,209c0,0,87,74,217,74c0,0,89,0,164,-38c0,0,76,-39,116,-105c0,0,40,-66,40,-141c0,0,0,-70,-39,-129c0,0,-38,-58,-112,-92c0,0,97,-22,151,-93c0,0,53,-70,53,-176c0,0,0,-143,-104,-243c0,0,-105,-99,-264,-99Z"
id="f8_n"
transform="scale(0.001,-0.001)"/>


</defs>
</svg>