<?xml version="1.0" encoding="UTF-8" standalone="no"?>
<!DOCTYPE svg PUBLIC "-//W3C//DTD SVG 1.1//EN"
"http://www.w3.org/Graphics/SVG/1.1/DTD/svg11.dtd">
<svg viewBox="0 0 641 910" version="1.1" xmlns="http://www.w3.org/2000/svg" xmlns:xlink="http://www.w3.org/1999/xlink">
<defs>
<clipPath id="c0_7"><path d="M0,909.8V0H641.7V909.8Z"/></clipPath>
<clipPath id="c1_7"><path d="M0,908.6V0H641.7V908.6Z"/></clipPath>
<style type="text/css"><![CDATA[
.g0_7{
fill: #FFFFFF;
}
.g1_7{
}
]]></style>
</defs>
<path d="M0,0H641.7V909.8H0V0Z" class="g0_7"/>
<path d="M0,0H641.7V909.8H0V0Z" class="g0_7"/>
<g clip-path="url(#c0_7)">
<path d="M0,0H641.7V106445.6H0V0Z" class="g0_7"/>
</g>
<path d="M0,0H641.7V908.6H0V0Z" class="g0_7"/>
<path d="M19.5,60.7H602.7v1.2H19.5V60.7Z" class="g1_7"/>
<g clip-path="url(#c1_7)">
<path d="M0,61.9H641.7V909.8H0V61.9Z" class="g0_7"/>
<g fill="#000000" >
<use xlink:href="#f5_c8" transform="matrix(14,0,0,14,238.6,103.1)" />
<use xlink:href="#f5_ct" transform="matrix(14,0,0,14,256.3,103.1)" />
<use xlink:href="#f5_nn" transform="matrix(14,0,0,14,262.8,103.1)" />
<use xlink:href="#f5_ke" transform="matrix(14,0,0,14,262.8,103.1)" />
<use xlink:href="#f5_bp" transform="matrix(14,0,0,14,279.1,103.1)" />
<use xlink:href="#f5_bf" transform="matrix(14,0,0,14,298.2,103.1)" />
<use xlink:href="#f5_d4" transform="matrix(14,0,0,14,314,103.1)" />
<use xlink:href="#f5_bt" transform="matrix(14,0,0,14,320.7,103.1)" />
<use xlink:href="#f5_c7" transform="matrix(14,0,0,14,333.7,103.1)" />
<use xlink:href="#f5_b9" transform="matrix(14,0,0,14,347.4,103.1)" />
<use xlink:href="#f5_ct" transform="matrix(14,0,0,14,364.8,103.1)" />
<use xlink:href="#f5_c1" transform="matrix(14,0,0,14,371.3,103.1)" />
<use xlink:href="#f6_nu" transform="matrix(14,0,0,14,120.6,170.7)" />
<use xlink:href="#f6_cb" transform="matrix(14,0,0,14,126.2,170.7)" />
<use xlink:href="#f6_ge" transform="matrix(14,0,0,14,141.1,170.7)" />
<use xlink:href="#f6_nt" transform="matrix(14,0,0,14,156.3,170.7)" />
<use xlink:href="#f6_bb" transform="matrix(14,0,0,14,161.9,170.7)" />
<use xlink:href="#f6_c1" transform="matrix(14,0,0,14,174.5,170.7)" />
<use xlink:href="#f6_cv" transform="matrix(14,0,0,14,182.9,170.7)" />
<use xlink:href="#f6_bt" transform="matrix(14,0,0,14,188.5,170.7)" />
<use xlink:href="#f6_ct" transform="matrix(14,0,0,14,200.2,170.7)" />
<use xlink:href="#f6_nv" transform="matrix(14,0,0,14,211.5,170.7)" />
<use xlink:href="#f6_c8" transform="matrix(14,0,0,14,217.1,170.7)" />
<use xlink:href="#f6_ba" transform="matrix(14,0,0,14,233,170.7)" />
<use xlink:href="#f6_c1" transform="matrix(14,0,0,14,249.7,170.7)" />
<use xlink:href="#f6_d8" transform="matrix(14,0,0,14,258.1,170.7)" />
<use xlink:href="#f6_bx" transform="matrix(14,0,0,14,269.4,170.7)" />
<use xlink:href="#f6_d8" transform="matrix(14,0,0,14,281.6,170.7)" />
<use xlink:href="#f6_c3" transform="matrix(14,0,0,14,287.3,170.7)" />
<use xlink:href="#f6_d4" transform="matrix(14,0,0,14,302.1,170.7)" />
<use xlink:href="#f6_8l" transform="matrix(14,0,0,14,302,170.7)" />
<use xlink:href="#f6_nq" transform="matrix(14,0,0,14,327.5,170.7)" />
<use xlink:href="#f6_bt" transform="matrix(14,0,0,14,354.2,170.7)" />
<use xlink:href="#f6_bz" transform="matrix(14,0,0,14,365.9,170.7)" />
<use xlink:href="#f6_d8" transform="matrix(14,0,0,14,379.2,170.7)" />
<use xlink:href="#f6_al" transform="matrix(14,0,0,14,390.5,170.7)" />
<use xlink:href="#f6_nr" transform="matrix(14,0,0,14,406.4,170.7)" />
<use xlink:href="#f6_c1" transform="matrix(14,0,0,14,412,170.7)" />
<use xlink:href="#f6_cc" transform="matrix(14,0,0,14,420.4,170.7)" />
<use xlink:href="#f6_dj" transform="matrix(14,0,0,14,429.2,171.2)" />
<use xlink:href="#f6_bp" transform="matrix(14,0,0,14,432,170.7)" />
<use xlink:href="#f6_ct" transform="matrix(14,0,0,14,444.3,170.7)" />
<use xlink:href="#f6_bo" transform="matrix(14,0,0,14,449.9,170.7)" />
<use xlink:href="#f6_dj" transform="matrix(14,0,0,14,461.4,171.2)" />
<use xlink:href="#f6_pc" transform="matrix(14,0,0,14,464.3,170.7)" />
<use xlink:href="#f6_pc" transform="matrix(14,0,0,14,468.5,170.7)" />
<use xlink:href="#f6_pc" transform="matrix(14,0,0,14,472.8,170.7)" />
<use xlink:href="#f6_g" transform="matrix(14,0,0,14,477.1,170.7)" />
<use xlink:href="#f6_q" transform="matrix(14,0,0,14,483,170.7)" />
<use xlink:href="#f6_h" transform="matrix(14,0,0,14,494.6,170.7)" />
<use xlink:href="#f6_am" transform="matrix(14,0,0,14,128.6,204)" />
<use xlink:href="#f6_br" transform="matrix(14,0,0,14,150.1,204)" />
<use xlink:href="#f6_d4" transform="matrix(14,0,0,14,161.3,204)" />
<use xlink:href="#f6_ke" transform="matrix(14,0,0,14,161.8,204)" />
<use xlink:href="#f6_c1" transform="matrix(14,0,0,14,176,204)" />
<use xlink:href="#f6_bt" transform="matrix(14,0,0,14,190,204)" />
<use xlink:href="#f6_cv" transform="matrix(14,0,0,14,201.7,204)" />
<use xlink:href="#f6_fa" transform="matrix(14,0,0,14,213,204)" />
<use xlink:href="#f6_bg" transform="matrix(14,0,0,14,234.6,204)" />
<use xlink:href="#f6_ct" transform="matrix(14,0,0,14,248.8,204)" />
<use xlink:href="#f6_b1" transform="matrix(14,0,0,14,254.4,204)" />
<use xlink:href="#f6_bx" transform="matrix(14,0,0,14,281.6,204)" />
<use xlink:href="#f6_d8" transform="matrix(14,0,0,14,293.9,204)" />
<use xlink:href="#f6_c3" transform="matrix(14,0,0,14,299.5,204)" />
<use xlink:href="#f6_d4" transform="matrix(14,0,0,14,314.3,204)" />
<use xlink:href="#f6_pc" transform="matrix(14,0,0,14,314.2,204)" />
<use xlink:href="#f6_pc" transform="matrix(14,0,0,14,318.5,204)" />
<use xlink:href="#f6_pc" transform="matrix(14,0,0,14,322.8,204)" />
<use xlink:href="#f6_nq" transform="matrix(14,0,0,14,332.7,204)" />
<use xlink:href="#f6_bt" transform="matrix(14,0,0,14,359.4,204)" />
<use xlink:href="#f6_bz" transform="matrix(14,0,0,14,371.1,204)" />
<use xlink:href="#f6_d8" transform="matrix(14,0,0,14,384.5,204)" />
<use xlink:href="#f6_nu" transform="matrix(14,0,0,14,395.7,204)" />
<use xlink:href="#f6_cb" transform="matrix(14,0,0,14,401.4,204)" />
<use xlink:href="#f6_ge" transform="matrix(14,0,0,14,416.2,204)" />
<use xlink:href="#f6_ct" transform="matrix(14,0,0,14,431.4,204)" />
<use xlink:href="#f6_bo" transform="matrix(14,0,0,14,437,204)" />
<use xlink:href="#f6_dj" transform="matrix(14,0,0,14,448.5,204.4)" />
<use xlink:href="#f6_pc" transform="matrix(14,0,0,14,457,204)" />
<use xlink:href="#f6_pc" transform="matrix(14,0,0,14,461.3,204)" />
<use xlink:href="#f6_pc" transform="matrix(14,0,0,14,465.6,204)" />
<use xlink:href="#f6_g" transform="matrix(14,0,0,14,469.9,204)" />
<use xlink:href="#f6_q" transform="matrix(14,0,0,14,475.7,204)" />
<use xlink:href="#f6_h" transform="matrix(14,0,0,14,487.4,204)" />
<use xlink:href="#f6_bm" transform="matrix(14,0,0,14,121.8,237.2)" />
<use xlink:href="#f6_cx" transform="matrix(14,0,0,14,132.9,238)" />
<use xlink:href="#f6_dj" transform="matrix(14,0,0,14,131.1,237.6)" />
<use xlink:href="#f6_bb" transform="matrix(14,0,0,14,134.4,237.2)" />
<use xlink:href="#f6_c1" transform="matrix(14,0,0,14,147.1,237.2)" />
<use xlink:href="#f6_be" transform="matrix(14,0,0,14,161.1,237.2)" />
<use xlink:href="#f6_ci" transform="matrix(14,0,0,14,175.1,237.2)" />
<use xlink:href="#f6_bp" transform="matrix(14,0,0,14,187,237.2)" />
<use xlink:href="#f6_ct" transform="matrix(14,0,0,14,199.3,237.2)" />
<use xlink:href="#f6_c0" transform="matrix(14,0,0,14,210.6,237.2)" />
<use xlink:href="#f6_ct" transform="matrix(14,0,0,14,223.2,237.2)" />
<use xlink:href="#f6_cu" transform="matrix(14,0,0,14,228.8,237.2)" />
<use xlink:href="#f6_e1" transform="matrix(14,0,0,14,234.4,237.2)" />
<use xlink:href="#f6_b9" transform="matrix(14,0,0,14,246.5,237.2)" />
<use xlink:href="#f6_bx" transform="matrix(14,0,0,14,267.6,237.2)" />
<use xlink:href="#f6_d8" transform="matrix(14,0,0,14,279.9,237.2)" />
<use xlink:href="#f6_c3" transform="matrix(14,0,0,14,285.5,237.2)" />
<use xlink:href="#f6_d4" transform="matrix(14,0,0,14,300.4,237.2)" />
<use xlink:href="#f6_pc" transform="matrix(14,0,0,14,300.2,237.2)" />
<use xlink:href="#f6_pc" transform="matrix(14,0,0,14,304.5,237.2)" />
<use xlink:href="#f6_pc" transform="matrix(14,0,0,14,308.8,237.2)" />
<use xlink:href="#f6_nq" transform="matrix(14,0,0,14,318.7,237.2)" />
<use xlink:href="#f6_bt" transform="matrix(14,0,0,14,345.4,237.2)" />
<use xlink:href="#f6_bz" transform="matrix(14,0,0,14,357.1,237.2)" />
<use xlink:href="#f6_d8" transform="matrix(14,0,0,14,370.5,237.2)" />
<use xlink:href="#f6_am" transform="matrix(14,0,0,14,381.8,237.2)" />
<use xlink:href="#f6_c0" transform="matrix(14,0,0,14,403.3,237.2)" />
<use xlink:href="#f6_nr" transform="matrix(14,0,0,14,415.8,237.2)" />
<use xlink:href="#f6_c1" transform="matrix(14,0,0,14,421.4,237.2)" />
<use xlink:href="#f6_c0" transform="matrix(14,0,0,14,429.8,237.2)" />
<use xlink:href="#f6_ct" transform="matrix(14,0,0,14,442.4,237.2)" />
<use xlink:href="#f6_bo" transform="matrix(14,0,0,14,448,237.2)" />
<use xlink:href="#f6_dj" transform="matrix(14,0,0,14,459.5,237.6)" />
<use xlink:href="#f6_pc" transform="matrix(14,0,0,14,462.3,237.2)" />
<use xlink:href="#f6_pc" transform="matrix(14,0,0,14,466.6,237.2)" />
<use xlink:href="#f6_pc" transform="matrix(14,0,0,14,470.9,237.2)" />
<use xlink:href="#f6_g" transform="matrix(14,0,0,14,475.2,237.2)" />
<use xlink:href="#f6_q" transform="matrix(14,0,0,14,481,237.2)" />
<use xlink:href="#f6_h" transform="matrix(14,0,0,14,492.7,237.2)" />
<use xlink:href="#f6_c1" transform="matrix(14,0,0,14,116,270.4)" />
<use xlink:href="#f6_ct" transform="matrix(14,0,0,14,124.4,270.4)" />
<use xlink:href="#f6_c0" transform="matrix(14,0,0,14,130,270.4)" />
<use xlink:href="#f6_bo" transform="matrix(14,0,0,14,142.6,270.4)" />
<use xlink:href="#f6_bv" transform="matrix(14,0,0,14,162.6,270.4)" />
<use xlink:href="#f6_bb" transform="matrix(14,0,0,14,174.5,270.4)" />
<use xlink:href="#f6_c3" transform="matrix(14,0,0,14,187.1,270.4)" />
<use xlink:href="#f6_d4" transform="matrix(14,0,0,14,201.9,270.4)" />
<use xlink:href="#f6_br" transform="matrix(14,0,0,14,207.5,270.4)" />
<use xlink:href="#f6_c8" transform="matrix(14,0,0,14,219.1,270.4)" />
<use xlink:href="#f6_dr" transform="matrix(14,0,0,14,235.4,270.4)" />
<use xlink:href="#f6_bt" transform="matrix(14,0,0,14,235,270.4)" />
<use xlink:href="#f6_b9" transform="matrix(14,0,0,14,252.4,270.4)" />
<use xlink:href="#f6_c1" transform="matrix(14,0,0,14,267.9,270.4)" />
<use xlink:href="#f6_bp" transform="matrix(14,0,0,14,276.3,270.4)" />
<use xlink:href="#f6_ct" transform="matrix(14,0,0,14,288.6,270.4)" />
<use xlink:href="#f6_pc" transform="matrix(14,0,0,14,294.2,270.4)" />
<use xlink:href="#f6_pc" transform="matrix(14,0,0,14,298.5,270.4)" />
<use xlink:href="#f6_pc" transform="matrix(14,0,0,14,302.7,270.4)" />
<use xlink:href="#f6_nq" transform="matrix(14,0,0,14,312.7,270.4)" />
<use xlink:href="#f6_bt" transform="matrix(14,0,0,14,345,270.4)" />
<use xlink:href="#f6_bz" transform="matrix(14,0,0,14,356.8,270.4)" />
<use xlink:href="#f6_d8" transform="matrix(14,0,0,14,370.1,270.4)" />
<use xlink:href="#f6_ap" transform="matrix(14,0,0,14,381.4,270.4)" />
<use xlink:href="#f6_c7" transform="matrix(14,0,0,14,392.8,270.4)" />
<use xlink:href="#f6_l7" transform="matrix(14,0,0,14,404.8,270.4)" />
<use xlink:href="#f6_bh" transform="matrix(14,0,0,14,413.7,270.4)" />
<use xlink:href="#f6_ct" transform="matrix(14,0,0,14,430.4,270.4)" />
<use xlink:href="#f6_c0" transform="matrix(14,0,0,14,436.1,270.4)" />
<use xlink:href="#f6_ct" transform="matrix(14,0,0,14,448.6,270.4)" />
<use xlink:href="#f6_bo" transform="matrix(14,0,0,14,454.2,270.4)" />
<use xlink:href="#f6_dj" transform="matrix(14,0,0,14,465.7,270.8)" />
<use xlink:href="#f6_pc" transform="matrix(14,0,0,14,468.6,270.4)" />
<use xlink:href="#f6_pc" transform="matrix(14,0,0,14,472.9,270.4)" />
<use xlink:href="#f6_pc" transform="matrix(14,0,0,14,477.2,270.4)" />
<use xlink:href="#f6_g" transform="matrix(14,0,0,14,481.4,270.4)" />
<use xlink:href="#f6_q" transform="matrix(14,0,0,14,487.3,270.4)" />
<use xlink:href="#f6_h" transform="matrix(14,0,0,14,499,270.4)" />
<use xlink:href="#f6_am" transform="matrix(14,0,0,14,122.9,303.6)" />
<use xlink:href="#f6_br" transform="matrix(14,0,0,14,144.4,303.6)" />
<use xlink:href="#f6_d4" transform="matrix(14,0,0,14,155.6,303.6)" />
<use xlink:href="#f6_ke" transform="matrix(14,0,0,14,156.1,303.6)" />
<use xlink:href="#f6_c1" transform="matrix(14,0,0,14,170.3,303.6)" />
<use xlink:href="#f6_bt" transform="matrix(14,0,0,14,178.6,303.6)" />
<use xlink:href="#f6_cx" transform="matrix(14,0,0,14,190.3,303.5)" />
<use xlink:href="#f6_dj" transform="matrix(14,0,0,14,187.5,304.1)" />
<use xlink:href="#f6_bz" transform="matrix(14,0,0,14,196,303.6)" />
<use xlink:href="#f6_cw" transform="matrix(14,0,0,14,209.9,303.5)" />
<use xlink:href="#f6_dj" transform="matrix(14,0,0,14,203.5,304.1)" />
<use xlink:href="#f6_ba" transform="matrix(14,0,0,14,209.4,303.6)" />
<use xlink:href="#f6_bm" transform="matrix(14,0,0,14,226.1,303.6)" />
<use xlink:href="#f6_cw" transform="matrix(14,0,0,14,237.8,304.5)" />
<use xlink:href="#f6_bg" transform="matrix(14,0,0,14,244.4,303.6)" />
<use xlink:href="#f6_d8" transform="matrix(14,0,0,14,258.7,303.6)" />
<use xlink:href="#f6_bp" transform="matrix(14,0,0,14,264.3,303.6)" />
<use xlink:href="#f6_ct" transform="matrix(14,0,0,14,276.6,303.6)" />
<use xlink:href="#f6_pc" transform="matrix(14,0,0,14,282.2,303.6)" />
<use xlink:href="#f6_pc" transform="matrix(14,0,0,14,286.5,303.6)" />
<use xlink:href="#f6_pc" transform="matrix(14,0,0,14,290.8,303.6)" />
<use xlink:href="#f6_bt" transform="matrix(14,0,0,14,300.7,303.6)" />
<use xlink:href="#f6_bz" transform="matrix(14,0,0,14,312.4,303.6)" />
<use xlink:href="#f6_d8" transform="matrix(14,0,0,14,325.8,303.6)" />
<use xlink:href="#f6_c3" transform="matrix(14,0,0,14,337.1,303.6)" />
<use xlink:href="#f6_d8" transform="matrix(14,0,0,14,351.8,303.6)" />
<use xlink:href="#f6_ax" transform="matrix(14,0,0,14,357.4,303.6)" />
<use xlink:href="#f6_cb" transform="matrix(14,0,0,14,374.9,303.6)" />
<use xlink:href="#f6_lx" transform="matrix(14,0,0,14,389.8,303.6)" />
<use xlink:href="#f6_c7" transform="matrix(14,0,0,14,397.5,303.6)" />
<use xlink:href="#f6_cb" transform="matrix(14,0,0,14,415.2,303.6)" />
<use xlink:href="#f6_ct" transform="matrix(14,0,0,14,430.1,303.6)" />
<use xlink:href="#f6_n5" transform="matrix(14,0,0,14,435.7,303.6)" />
<use xlink:href="#f6_bo" transform="matrix(14,0,0,14,447.3,303.6)" />
<use xlink:href="#f6_dj" transform="matrix(14,0,0,14,458.8,304.1)" />
<use xlink:href="#f6_pc" transform="matrix(14,0,0,14,461.7,303.6)" />
<use xlink:href="#f6_pc" transform="matrix(14,0,0,14,465.9,303.6)" />
<use xlink:href="#f6_pc" transform="matrix(14,0,0,14,470.2,303.6)" />
<use xlink:href="#f6_g" transform="matrix(14,0,0,14,474.5,303.6)" />
<use xlink:href="#f6_q" transform="matrix(14,0,0,14,480.4,303.6)" />
<use xlink:href="#f6_h" transform="matrix(14,0,0,14,492,303.6)" />
<use xlink:href="#f6_br" transform="matrix(14,0,0,14,127.5,380.4)" />
<use xlink:href="#f6_c8" transform="matrix(14,0,0,14,139.2,380.4)" />
<use xlink:href="#f6_dr" transform="matrix(14,0,0,14,155.5,380.4)" />
<use xlink:href="#f6_bt" transform="matrix(14,0,0,14,155,380.4)" />
<use xlink:href="#f6_b9" transform="matrix(14,0,0,14,172.4,380.4)" />
<use xlink:href="#f6_c1" transform="matrix(14,0,0,14,187.9,380.4)" />
<use xlink:href="#f6_bp" transform="matrix(14,0,0,14,196.3,380.4)" />
<use xlink:href="#f6_ct" transform="matrix(14,0,0,14,208.6,380.4)" />
<use xlink:href="#f6_cb" transform="matrix(14,0,0,14,219.9,380.4)" />
<use xlink:href="#f6_ct" transform="matrix(14,0,0,14,234.8,380.4)" />
<use xlink:href="#f6_n5" transform="matrix(14,0,0,14,240.4,380.4)" />
<use xlink:href="#f6_bx" transform="matrix(14,0,0,14,257.7,380.4)" />
<use xlink:href="#f6_d8" transform="matrix(14,0,0,14,269.9,380.4)" />
<use xlink:href="#f6_c3" transform="matrix(14,0,0,14,275.6,380.4)" />
<use xlink:href="#f6_d8" transform="matrix(14,0,0,14,290.3,380.4)" />
<use xlink:href="#f6_pc" transform="matrix(14,0,0,14,295.9,380.4)" />
<use xlink:href="#f6_pc" transform="matrix(14,0,0,14,300.2,380.4)" />
<use xlink:href="#f6_pc" transform="matrix(14,0,0,14,304.5,380.4)" />
<use xlink:href="#f6_ay" transform="matrix(14,0,0,14,314.4,380.4)" />
<use xlink:href="#f6_cb" transform="matrix(14,0,0,14,326.3,380.4)" />
<use xlink:href="#f6_d8" transform="matrix(14,0,0,14,341.1,380.4)" />
<use xlink:href="#f6_bv" transform="matrix(14,0,0,14,352.4,380.4)" />
<use xlink:href="#f6_dj" transform="matrix(14,0,0,14,358.6,380.8)" />
<use xlink:href="#f6_be" transform="matrix(14,0,0,14,364.3,380.4)" />
<use xlink:href="#f6_bt" transform="matrix(14,0,0,14,383.9,380.4)" />
<use xlink:href="#f6_bz" transform="matrix(14,0,0,14,395.6,380.4)" />
<use xlink:href="#f6_cw" transform="matrix(14,0,0,14,409.5,380.3)" />
<use xlink:href="#f6_l1" transform="matrix(14,0,0,14,409,380.4)" />
<use xlink:href="#f6_b9" transform="matrix(14,0,0,14,421.5,380.4)" />
<use xlink:href="#f6_ct" transform="matrix(14,0,0,14,437,380.4)" />
<use xlink:href="#f6_c1" transform="matrix(14,0,0,14,442.6,380.4)" />
<use xlink:href="#f6_d8" transform="matrix(14,0,0,14,451,380.4)" />
<use xlink:href="#f6_pc" transform="matrix(14,0,0,14,456.6,380.4)" />
<use xlink:href="#f6_pc" transform="matrix(14,0,0,14,460.9,380.4)" />
<use xlink:href="#f6_pc" transform="matrix(14,0,0,14,465.2,380.4)" />
<use xlink:href="#f6_g" transform="matrix(14,0,0,14,469.4,380.4)" />
<use xlink:href="#f6_q" transform="matrix(14,0,0,14,475.3,380.4)" />
<use xlink:href="#f6_h" transform="matrix(14,0,0,14,487,380.4)" />
<use xlink:href="#f6_bt" transform="matrix(14,0,0,14,120.6,413.6)" />
<use xlink:href="#f6_c7" transform="matrix(14,0,0,14,132.3,413.6)" />
<use xlink:href="#f6_bv" transform="matrix(14,0,0,14,144.4,413.6)" />
<use xlink:href="#f6_br" transform="matrix(14,0,0,14,156.3,413.6)" />
<use xlink:href="#f6_bt" transform="matrix(14,0,0,14,173.6,413.6)" />
<use xlink:href="#f6_cv" transform="matrix(14,0,0,14,185.3,413.6)" />
<use xlink:href="#f6_bz" transform="matrix(14,0,0,14,196.6,413.6)" />
<use xlink:href="#f6_cu" transform="matrix(14,0,0,14,210,413.6)" />
<use xlink:href="#f6_cc" transform="matrix(14,0,0,14,215.6,413.6)" />
<use xlink:href="#f6_bz" transform="matrix(14,0,0,14,227.2,413.6)" />
<use xlink:href="#f6_ct" transform="matrix(14,0,0,14,240.5,413.6)" />
<use xlink:href="#f6_bb" transform="matrix(14,0,0,14,251.8,413.6)" />
<use xlink:href="#f6_ct" transform="matrix(14,0,0,14,264.4,413.6)" />
<use xlink:href="#f6_c7" transform="matrix(14,0,0,14,270,413.6)" />
<use xlink:href="#f6_d8" transform="matrix(14,0,0,14,282.1,413.6)" />
<use xlink:href="#f6_bp" transform="matrix(14,0,0,14,293.4,413.6)" />
<use xlink:href="#f6_d8" transform="matrix(14,0,0,14,305.7,413.6)" />
<use xlink:href="#f6_k" transform="matrix(14,0,0,14,311.3,413.6)" />
<use xlink:href="#f6_cb" transform="matrix(14,0,0,14,322.2,413.6)" />
<use xlink:href="#f6_lx" transform="matrix(14,0,0,14,337.1,413.6)" />
<use xlink:href="#f6_c7" transform="matrix(14,0,0,14,344.8,413.6)" />
<use xlink:href="#f6_bv" transform="matrix(14,0,0,14,362.5,413.6)" />
<use xlink:href="#f6_ct" transform="matrix(14,0,0,14,374.4,413.6)" />
<use xlink:href="#f6_c7" transform="matrix(14,0,0,14,380,413.6)" />
<use xlink:href="#f6_ll" transform="matrix(14,0,0,14,392.1,413.6)" />
<use xlink:href="#f6_bv" transform="matrix(14,0,0,14,398.3,413.6)" />
<use xlink:href="#f6_bo" transform="matrix(14,0,0,14,410.1,413.6)" />
<use xlink:href="#f6_ct" transform="matrix(14,0,0,14,424.5,413.6)" />
<use xlink:href="#f6_cb" transform="matrix(14,0,0,14,430.1,413.6)" />
<use xlink:href="#f6_bo" transform="matrix(14,0,0,14,445,413.6)" />
<use xlink:href="#f6_d8" transform="matrix(14,0,0,14,459.4,413.6)" />
<use xlink:href="#f6_pc" transform="matrix(14,0,0,14,465,413.6)" />
<use xlink:href="#f6_pc" transform="matrix(14,0,0,14,469.3,413.6)" />
<use xlink:href="#f6_pc" transform="matrix(14,0,0,14,473.6,413.6)" />
<use xlink:href="#f6_g" transform="matrix(14,0,0,14,477.8,413.6)" />
<use xlink:href="#f6_q" transform="matrix(14,0,0,14,483.7,413.6)" />
<use xlink:href="#f6_h" transform="matrix(14,0,0,14,495.4,413.6)" />
<use xlink:href="#f6_cb" transform="matrix(14,0,0,14,129.8,446.9)" />
<use xlink:href="#f6_d4" transform="matrix(14,0,0,14,144.8,446.9)" />
<use xlink:href="#f6_bl" transform="matrix(14,0,0,14,144.7,446.9)" />
<use xlink:href="#f6_cb" transform="matrix(14,0,0,14,162.7,446.9)" />
<use xlink:href="#f6_cw" transform="matrix(14,0,0,14,178.1,446.8)" />
<use xlink:href="#f6_br" transform="matrix(14,0,0,14,177.6,446.9)" />
<use xlink:href="#f6_c8" transform="matrix(14,0,0,14,189.2,446.9)" />
<use xlink:href="#f6_dr" transform="matrix(14,0,0,14,205.5,446.9)" />
<use xlink:href="#f6_bt" transform="matrix(14,0,0,14,205.1,446.9)" />
<use xlink:href="#f6_bt" transform="matrix(14,0,0,14,222.5,446.9)" />
<use xlink:href="#f6_cw" transform="matrix(14,0,0,14,234.7,446.8)" />
<use xlink:href="#f6_dj" transform="matrix(14,0,0,14,231.3,447.3)" />
<use xlink:href="#f6_bz" transform="matrix(14,0,0,14,239.9,446.9)" />
<use xlink:href="#f6_bt" transform="matrix(14,0,0,14,253.2,446.9)" />
<use xlink:href="#f6_bx" transform="matrix(14,0,0,14,270.6,446.9)" />
<use xlink:href="#f6_d8" transform="matrix(14,0,0,14,282.9,446.9)" />
<use xlink:href="#f6_c3" transform="matrix(14,0,0,14,288.5,446.9)" />
<use xlink:href="#f6_d4" transform="matrix(14,0,0,14,303.3,446.9)" />
<use xlink:href="#f6_k" transform="matrix(14,0,0,14,303.2,446.9)" />
<use xlink:href="#f6_bz" transform="matrix(14,0,0,14,314.1,446.9)" />
<use xlink:href="#f6_dj" transform="matrix(14,0,0,14,321.5,447.3)" />
<use xlink:href="#f6_bb" transform="matrix(14,0,0,14,327.4,446.9)" />
<use xlink:href="#f6_c3" transform="matrix(14,0,0,14,340,446.9)" />
<use xlink:href="#f6_ct" transform="matrix(14,0,0,14,354.7,446.9)" />
<use xlink:href="#f6_bo" transform="matrix(14,0,0,14,360.4,446.9)" />
<use xlink:href="#f6_dj" transform="matrix(14,0,0,14,371.8,447.3)" />
<use xlink:href="#f6_be" transform="matrix(14,0,0,14,380.4,446.9)" />
<use xlink:href="#f6_cb" transform="matrix(14,0,0,14,400,446.9)" />
<use xlink:href="#f6_lx" transform="matrix(14,0,0,14,414.9,446.9)" />
<use xlink:href="#f6_c7" transform="matrix(14,0,0,14,422.6,446.9)" />
<use xlink:href="#f6_d4" transform="matrix(14,0,0,14,434.8,446.9)" />
<use xlink:href="#f6_nu" transform="matrix(14,0,0,14,434.6,446.9)" />
<use xlink:href="#f6_ol" transform="matrix(14,0,0,14,451.7,446.6)" />
<use xlink:href="#f6_cb" transform="matrix(14,0,0,14,440.3,446.9)" />
<use xlink:href="#f6_pc" transform="matrix(14,0,0,14,455.1,446.9)" />
<use xlink:href="#f6_pc" transform="matrix(14,0,0,14,459.4,446.9)" />
<use xlink:href="#f6_pc" transform="matrix(14,0,0,14,463.7,446.9)" />
<use xlink:href="#f6_g" transform="matrix(14,0,0,14,468,446.9)" />
<use xlink:href="#f6_q" transform="matrix(14,0,0,14,473.8,446.9)" />
<use xlink:href="#f6_h" transform="matrix(14,0,0,14,485.5,446.9)" />
<use xlink:href="#f6_bs" transform="matrix(14,0,0,14,124.1,480.1)" />
<use xlink:href="#f6_jj" transform="matrix(14,0,0,14,138.1,480.1)" />
<use xlink:href="#f6_ct" transform="matrix(14,0,0,14,151,480.1)" />
<use xlink:href="#f6_bg" transform="matrix(14,0,0,14,162.3,480.1)" />
<use xlink:href="#f6_c0" transform="matrix(14,0,0,14,176.5,480.1)" />
<use xlink:href="#f6_bt" transform="matrix(14,0,0,14,194.7,480.1)" />
<use xlink:href="#f6_d8" transform="matrix(14,0,0,14,206.4,480.1)" />
<use xlink:href="#f6_al" transform="matrix(14,0,0,14,217.7,480.1)" />
<use xlink:href="#f6_bo" transform="matrix(14,0,0,14,233.6,480.1)" />
<use xlink:href="#f6_bb" transform="matrix(14,0,0,14,248,480.1)" />
<use xlink:href="#f6_ct" transform="matrix(14,0,0,14,260.6,480.1)" />
<use xlink:href="#f6_c1" transform="matrix(14,0,0,14,266.2,480.1)" />
<use xlink:href="#f6_bx" transform="matrix(14,0,0,14,280.2,480.1)" />
<use xlink:href="#f6_d8" transform="matrix(14,0,0,14,292.5,480.1)" />
<use xlink:href="#f6_c3" transform="matrix(14,0,0,14,298.1,480.1)" />
<use xlink:href="#f6_d4" transform="matrix(14,0,0,14,313,480.1)" />
<use xlink:href="#f6_k" transform="matrix(14,0,0,14,312.9,480.1)" />
<use xlink:href="#f6_bv" transform="matrix(14,0,0,14,323.7,480.1)" />
<use xlink:href="#f6_ci" transform="matrix(14,0,0,14,335.6,480.1)" />
<use xlink:href="#f6_bz" transform="matrix(14,0,0,14,347.5,480.1)" />
<use xlink:href="#f6_dj" transform="matrix(14,0,0,14,355,480.5)" />
<use xlink:href="#f6_cc" transform="matrix(14,0,0,14,366.5,480.1)" />
<use xlink:href="#f6_c7" transform="matrix(14,0,0,14,378.1,480.1)" />
<use xlink:href="#f6_an" transform="matrix(14,0,0,14,390.2,480.1)" />
<use xlink:href="#f6_bz" transform="matrix(14,0,0,14,407.4,480.1)" />
<use xlink:href="#f6_dj" transform="matrix(14,0,0,14,414.8,480.5)" />
<use xlink:href="#f6_bb" transform="matrix(14,0,0,14,420.7,480.1)" />
<use xlink:href="#f6_c3" transform="matrix(14,0,0,14,433.3,480.1)" />
<use xlink:href="#f6_bz" transform="matrix(14,0,0,14,448,480.1)" />
<use xlink:href="#f6_dg" transform="matrix(14,0,0,14,460.7,479.8)" />
<use xlink:href="#f6_pc" transform="matrix(14,0,0,14,461.4,480.1)" />
<use xlink:href="#f6_pc" transform="matrix(14,0,0,14,465.7,480.1)" />
<use xlink:href="#f6_pc" transform="matrix(14,0,0,14,469.9,480.1)" />
<use xlink:href="#f6_g" transform="matrix(14,0,0,14,474.2,480.1)" />
<use xlink:href="#f6_q" transform="matrix(14,0,0,14,480.1,480.1)" />
<use xlink:href="#f6_h" transform="matrix(14,0,0,14,491.7,480.1)" />
<use xlink:href="#f6_bv" transform="matrix(14,0,0,14,145.8,513.3)" />
<use xlink:href="#f6_ci" transform="matrix(14,0,0,14,157.7,513.3)" />
<use xlink:href="#f6_bz" transform="matrix(14,0,0,14,169.6,513.3)" />
<use xlink:href="#f6_dj" transform="matrix(14,0,0,14,177.1,513.8)" />
<use xlink:href="#f6_cc" transform="matrix(14,0,0,14,188.6,513.3)" />
<use xlink:href="#f6_c7" transform="matrix(14,0,0,14,200.2,513.3)" />
<use xlink:href="#f6_an" transform="matrix(14,0,0,14,212.3,513.3)" />
<use xlink:href="#f6_bz" transform="matrix(14,0,0,14,229.5,513.3)" />
<use xlink:href="#f6_dj" transform="matrix(14,0,0,14,236.9,513.8)" />
<use xlink:href="#f6_bb" transform="matrix(14,0,0,14,242.8,513.3)" />
<use xlink:href="#f6_c3" transform="matrix(14,0,0,14,255.4,513.3)" />
<use xlink:href="#f6_bz" transform="matrix(14,0,0,14,270.1,513.3)" />
<use xlink:href="#f6_dg" transform="matrix(14,0,0,14,282.8,513)" />
<use xlink:href="#f6_pc" transform="matrix(14,0,0,14,283.5,513.3)" />
<use xlink:href="#f6_pc" transform="matrix(14,0,0,14,287.7,513.3)" />
<use xlink:href="#f6_pc" transform="matrix(14,0,0,14,292,513.3)" />
<use xlink:href="#f6_bv" transform="matrix(14,0,0,14,302,513.3)" />
<use xlink:href="#f6_ci" transform="matrix(14,0,0,14,313.8,513.3)" />
<use xlink:href="#f6_bz" transform="matrix(14,0,0,14,325.8,513.3)" />
<use xlink:href="#f6_dj" transform="matrix(14,0,0,14,333.2,513.8)" />
<use xlink:href="#f6_cc" transform="matrix(14,0,0,14,344.8,513.3)" />
<use xlink:href="#f6_c7" transform="matrix(14,0,0,14,356.4,513.3)" />
<use xlink:href="#f6_an" transform="matrix(14,0,0,14,368.4,513.3)" />
<use xlink:href="#f6_bz" transform="matrix(14,0,0,14,385.6,513.3)" />
<use xlink:href="#f6_dj" transform="matrix(14,0,0,14,393.1,513.8)" />
<use xlink:href="#f6_bb" transform="matrix(14,0,0,14,398.9,513.3)" />
<use xlink:href="#f6_c3" transform="matrix(14,0,0,14,411.6,513.3)" />
<use xlink:href="#f6_bz" transform="matrix(14,0,0,14,426.3,513.3)" />
<use xlink:href="#f6_dg" transform="matrix(14,0,0,14,438.9,513)" />
<use xlink:href="#f6_pc" transform="matrix(14,0,0,14,439.6,513.3)" />
<use xlink:href="#f6_pc" transform="matrix(14,0,0,14,443.9,513.3)" />
<use xlink:href="#f6_pc" transform="matrix(14,0,0,14,448.2,513.3)" />
<use xlink:href="#f6_g" transform="matrix(14,0,0,14,452.4,513.3)" />
<use xlink:href="#f6_q" transform="matrix(14,0,0,14,458.3,513.3)" />
<use xlink:href="#f6_h" transform="matrix(14,0,0,14,470,513.3)" />
<use xlink:href="#f7_4r" transform="matrix(9,0,0,9,293.6,795.2)" />
<use xlink:href="#f8_l" transform="matrix(9,0,0,9,306.5,795.2)" />
<use xlink:href="#f7_4r" transform="matrix(9,0,0,9,317.1,795.2)" />
</g>
</g>
<image preserveAspectRatio="none" x="22" y="801" width="581" height="86" xlink:href="img/1.png"/>
<path d="M239.5,104.3H382.7v1.1H239.5v-1.1Z" class="g1_7"/>
<image preserveAspectRatio="none" x="202" y="14" width="217" height="26" xlink:href="img/2.png"/>
<defs>
<path d="M524,523c0,0,46,71,46,155c0,0,0,75,-33,112c0,0,-33,37,-80,37c0,0,-44,0,-73,-33c0,0,-28,-33,-28,-82c0,0,0,-63,44,-115c0,0,43,-53,124,-74Zm78,-644L284,133c0,0,-133,3,-206,67l66,214l73,15l81,-75c0,0,76,28,134,71c0,0,-142,36,-230,119c0,0,-89,82,-89,183c0,0,0,48,20,95H0L-86,937l32,64H1265l86,-115l-33,-64H1048l102,-73V-31l-70,-34L906,29V822H692c0,0,90,-105,90,-237c0,0,0,-113,-82,-220c0,0,-81,-107,-228,-168L741,99L752,29L602,-121Z"
id="f5_c8"
transform="scale(0.001,-0.001)"/>

<path d="M277,-65L102,29V822H0L-86,937l32,64H463L548,886L516,822H244L347,749V-31L277,-65Z"
id="f5_ct"
transform="scale(0.001,-0.001)"/>

<path d="M0,822L-86,937l32,64H67L153,886L121,822Z"
id="f5_nn"
transform="scale(0.001,-0.001)"/>

<path d="M585,55c15,0,71,3,128,48c0,0,68,53,89,129v61c0,0,-102,-1,-179,-55c0,0,-78,-53,-78,-119c0,0,0,-40,36,-64c0,0,1,0,4,0ZM362,642c0,0,131,94,131,174l-3,20c0,0,-26,21,-55,21c0,0,-41,0,-71,-36c0,0,-31,-36,-31,-88c0,0,0,-47,29,-91ZM976,-240l-174,93v70c0,0,-63,-35,-144,-35c0,0,-132,0,-236,79c0,0,-104,77,-104,183c0,0,0,78,59,143c0,0,58,65,159,100l-79,29L174,238L-1,413L240,561c0,0,-135,128,-135,247c0,0,0,92,72,160c0,0,72,68,174,68c0,0,123,0,214,-95c0,0,90,-95,90,-214c0,0,0,-110,-84,-209c0,0,45,-11,104,-11c0,0,66,0,127,16V822H770L684,937l33,64h444l86,-115l-32,-64H944l103,-73V-207l-71,-33Z"
id="f5_ke"
transform="scale(0.001,-0.001)"/>

<path d="M342,-69c0,0,-146,139,-224,256c0,0,-78,117,-78,226c0,0,0,120,90,193c0,0,90,72,243,72H599V822H0L-86,937l32,64H959l86,-115l-32,-64H741L843,749V-31L773,-65L599,29V445H448c0,0,-81,0,-123,-34c0,0,-42,-34,-42,-90c0,0,0,-54,43,-118c0,0,44,-64,143,-163L342,-69Z"
id="f5_bp"
transform="scale(0.001,-0.001)"/>

<path d="M923,312c0,0,35,73,35,151c0,0,0,95,-32,130c0,0,-18,6,-37,6c0,0,-40,0,-63,-30c0,0,-24,-30,-24,-74c0,0,0,-119,121,-183ZM634,-120c0,0,-179,0,-315,103c0,0,-137,101,-137,234c0,0,0,49,24,98C206,315,28,420,28,561c0,0,0,79,61,136c0,0,61,58,178,58H420L521,607L487,544H370c0,0,-129,0,-129,-72c0,0,0,-38,48,-72c0,0,73,43,163,43c0,0,54,0,101,-12L655,270L607,208c0,0,-45,15,-84,15c0,0,-52,0,-85,-26c0,0,-32,-26,-32,-64c0,0,0,-43,29,-66c0,0,36,-9,71,-9c0,0,113,0,207,45c0,0,94,45,156,122c0,0,-125,62,-204,149c0,0,-78,87,-78,178c0,0,0,74,54,133c0,0,54,59,135,73v64H0L-86,937l32,64H1202l87,-115l-32,-64H894L996,749V698c0,0,72,-53,114,-140c0,0,42,-87,42,-187c0,0,0,-125,-67,-239c0,0,-67,-114,-187,-182c0,0,-119,-70,-264,-70Z"
id="f5_bf"
transform="scale(0.001,-0.001)"/>

<path d="M-289,908l-132,216c0,0,-70,120,-169,120c0,0,-83,0,-200,-80l-130,249c0,0,125,78,234,78c0,0,187,0,349,-241L-159,969L-289,908Z"
id="f5_d4"
transform="scale(0.001,-0.001)"/>

<path d="M746,-65L571,29V419H376V260L275,212c0,0,-87,48,-160,148c0,0,-72,100,-91,193l57,84H571V822H0L-86,937l32,64H930l88,-115L985,822H713L816,749V-31L746,-65Z"
id="f5_bt"
transform="scale(0.001,-0.001)"/>

<path d="M371,296c0,0,71,0,139,34c0,0,69,34,109,92v90c0,0,-72,36,-148,36c0,0,-84,0,-131,-47c0,0,-47,-47,-47,-111c0,0,0,-49,28,-89l50,-5ZM793,-65L619,29V134c0,0,-55,-27,-122,-27c0,0,-98,0,-207,48c0,0,-108,48,-182,132c0,0,-73,84,-73,188c0,0,0,113,83,191c0,0,84,78,212,78c0,0,41,0,84,-9L619,643V822H0L-86,937l32,64H978l85,-115l-32,-64H761L863,749V-31L793,-65Z"
id="f5_c7"
transform="scale(0.001,-0.001)"/>

<path d="M300,310c13,0,56,2,103,25c0,0,58,27,100,81V523c0,0,-46,16,-83,16c0,0,-69,0,-111,-45c0,0,-42,-45,-42,-104c0,0,0,-45,28,-80c0,0,2,0,5,0ZM677,-65L503,29V144c0,0,-32,-11,-75,-11c0,0,-147,0,-272,98c0,0,-125,99,-125,233c0,0,0,110,75,185c0,0,76,74,195,74l67,-6L503,646V822H0L-86,937l32,64H1245l86,-115l-32,-64H645L747,749V622c0,0,81,58,165,58c0,0,122,0,213,-99c0,0,91,-98,91,-230c0,0,0,-204,-253,-371L791,157c0,0,110,83,164,139c0,0,53,55,53,106c0,0,0,55,-53,55c0,0,-83,0,-208,-145V-31L677,-65Z"
id="f5_b9"
transform="scale(0.001,-0.001)"/>

<path d="M545,-97L35,405L87,542H295c0,0,1,5,1,280H0L-86,937l32,64H729L814,886L782,822H445L550,749V547c0,0,0,-75,-41,-127c0,0,-41,-52,-129,-111L709,110V41L545,-97Z"
id="f5_c1"
transform="scale(0.001,-0.001)"/>

<path d="M228,-49L138,8V822H0l-45,76l14,31H134c0,0,-91,93,-91,200c0,0,0,109,92,174c0,0,93,66,253,66c0,0,186,0,398,-89c0,0,212,-90,430,-264l-49,-47c0,0,-424,285,-727,285c0,0,-125,0,-201,-49c0,0,-76,-48,-76,-137c0,0,0,-67,52,-139H402l46,-76L434,822H199l65,-58V-39L228,-49Z"
id="f6_nu"
transform="scale(0.001,-0.001)"/>

<path d="M799,475V822H350l66,-55V564c0,0,0,-43,-25,-89ZM527,-71L52,414l34,92H277c0,0,12,32,12,72V822H0l-45,76l14,31H1063l46,-76l-14,-31H860l66,-58V-39L889,-49L799,8V370H315L264,316L610,34L611,8L527,-71Z"
id="f6_cb"
transform="scale(0.001,-0.001)"/>

<path d="M915,-274L842,21L784,6c0,0,-37,-120,-114,-190c0,0,-77,-70,-178,-70c0,0,-96,0,-175,51c0,0,-79,51,-80,122c0,0,-119,32,-179,89C58,8,-1,67,-1,138c0,0,0,64,44,104c0,0,44,41,104,41c0,0,91,0,207,-123L315,110c0,0,-78,69,-122,84c0,0,-75,-23,-75,-92c0,0,0,-39,36,-72c0,0,35,-32,100,-46c0,0,35,69,122,89L497,24l-4,-40c0,0,-59,-6,-95,-37c0,0,-36,-32,-36,-68c0,0,0,-41,46,-63c0,0,67,3,141,62c0,0,74,59,102,137c0,0,-136,32,-237,135c0,0,-101,104,-101,223c0,0,0,113,84,184c0,0,84,71,222,72H764V822H0l-45,76l14,31H1074l46,-76l-14,-31H825l66,-58V504l-3,2l3,-3H648c0,0,-95,0,-154,-53c0,0,-59,-53,-59,-132c0,0,0,-49,28,-100c0,0,27,-50,82,-84c0,0,45,-15,97,-15c0,0,91,0,160,46L775,303l100,48L1013,188c0,0,-8,-28,-34,-66c0,0,-27,-38,-62,-64l136,-279L915,-274Z"
id="f6_ge"
transform="scale(0.001,-0.001)"/>

<path d="M228,-49L138,8V822H0l-45,76l14,31H134c0,0,-91,93,-91,202c0,0,0,105,85,170c0,0,86,65,236,65c0,0,340,0,742,-350l-50,-46c0,0,-182,135,-340,208c0,0,-158,73,-302,73c0,0,-113,0,-183,-48c0,0,-69,-48,-69,-132c0,0,0,-63,53,-142H402l46,-76L434,822H199l65,-58V-39L228,-49Z"
id="f6_nt"
transform="scale(0.001,-0.001)"/>

<path d="M727,-49L637,8V822H278l66,-58V226L270,196c0,0,-64,36,-122,98c0,0,-58,62,-79,122l43,59H217V822H0l-45,76l14,31H901l46,-76L933,822H698l66,-58V-39L727,-49Z"
id="f6_bb"
transform="scale(0.001,-0.001)"/>

<path d="M527,-71L52,414l34,92H277c0,0,12,32,12,72V822H0l-45,76l14,31H599l46,-76L631,822H350l66,-55V564c0,0,0,-96,-152,-248L610,34L611,8L527,-71Z"
id="f6_c1"
transform="scale(0.001,-0.001)"/>

<path d="M228,-49L138,8V822H0l-45,76l14,31H138c0,0,-109,342,-284,342c0,0,-62,0,-102,-40c0,0,-40,-39,-40,-93c0,0,0,-61,51,-134l-42,-32c0,0,-128,113,-128,226c0,0,0,79,60,136c0,0,61,56,154,56c0,0,137,0,249,-125c0,0,112,-125,169,-336H402l46,-76L434,822H199l65,-58V-39L228,-49Z"
id="f6_cv"
transform="scale(0.001,-0.001)"/>

<path d="M663,-49L573,8V445H299V280L226,251c0,0,-105,99,-162,238l63,72H573V822H0l-45,76l14,31H837l46,-76L869,822H634l66,-58V-39L663,-49Z"
id="f6_bt"
transform="scale(0.001,-0.001)"/>

<path d="M228,-49L138,8V822H0l-45,76l14,31H402l46,-76L434,822H199l65,-58V-39L228,-49Z"
id="f6_ct"
transform="scale(0.001,-0.001)"/>

<path d="M228,-49L138,8V822H0l-45,76l14,31H134c0,0,-90,95,-90,199c0,0,0,111,99,177c0,0,98,67,271,67c0,0,202,0,439,-91c0,0,238,-91,475,-263l-48,-49c0,0,-469,288,-812,288c0,0,-138,0,-220,-49c0,0,-83,-50,-83,-142c0,0,0,-64,50,-137H402l46,-76L434,822H199l65,-58V-39L228,-49Z"
id="f6_nv"
transform="scale(0.001,-0.001)"/>

<path d="M513,460c0,0,61,81,61,179c0,0,0,87,-45,143c0,0,-45,57,-116,57c0,0,-63,0,-102,-43c0,0,-39,-43,-39,-110c0,0,0,-90,68,-151c0,0,68,-61,173,-75ZM581,-83L278,167l-41,-4c0,0,-99,0,-130,37l47,168l51,12l78,-79c0,0,110,40,183,105c0,0,-141,23,-231,107c0,0,-90,84,-90,193c0,0,0,69,37,116H0l-45,76l14,31H1134l45,-76l-13,-31H930l66,-58V-39L959,-49L869,8V822H588c0,0,51,-44,75,-109c0,0,25,-64,25,-122c0,0,0,-105,-81,-213c0,0,-80,-108,-240,-176L658,18l2,-25L581,-83Z"
id="f6_c8"
transform="scale(0.001,-0.001)"/>

<path d="M761,293c0,0,127,0,169,94V532c0,0,-68,46,-145,46c0,0,-76,0,-121,-46c0,0,-45,-45,-45,-107c0,0,0,-61,44,-110c0,0,47,-22,98,-22ZM657,67c0,0,166,0,273,107v55c0,0,-45,-36,-111,-36c0,0,-110,0,-207,90c0,0,-97,90,-97,194c0,0,0,85,66,148c0,0,65,63,155,63l48,-5L930,603V822H376l62,-55V579c0,0,0,-60,-23,-102c0,0,-24,-42,-148,-190c0,0,66,-104,175,-162c0,0,108,-58,215,-58ZM1021,-49L930,8V53c0,0,-105,-83,-264,-83c0,0,-177,0,-339,128C327,98,165,226,90,429l34,77H296c0,0,19,39,19,102l-2,214H0l-45,76l14,31H1195l46,-76l-14,-31H992l65,-58V-39l-36,-10Z"
id="f6_ba"
transform="scale(0.001,-0.001)"/>

<path d="M228,-49L138,8V822H0l-45,76l14,31H119L-33,1144c0,0,-70,92,-157,92c0,0,-69,0,-159,-58l-72,118c0,0,89,73,181,73c0,0,140,0,257,-170L205,929H402l46,-76L434,822H199l65,-58V-39L228,-49Z"
id="f6_d8"
transform="scale(0.001,-0.001)"/>

<path d="M348,229c0,0,57,0,106,17L263,559c0,0,-95,-50,-95,-162c0,0,0,-75,52,-136c0,0,49,-32,128,-32Zm170,48c0,0,61,38,96,91V504c0,0,-131,80,-244,80l-35,-2L518,277ZM704,-49L614,8V193c0,0,-84,-65,-192,-65c0,0,-139,0,-255,98c0,0,-115,98,-115,226c0,0,0,106,77,175c0,0,77,70,189,70c0,0,38,0,75,-9L614,578V822H0l-45,76l14,31H878l46,-76L911,822H675l66,-58V-39L704,-49Z"
id="f6_bx"
transform="scale(0.001,-0.001)"/>

<path d="M413,-59C413,-59,53,193,53,416c0,0,0,97,66,164c0,0,66,66,156,66c0,0,61,0,110,-30L487,507c0,0,92,126,257,126l35,-2V822H0l-45,76l14,31H1043l46,-76l-13,-31H840l66,-58V-39L869,-49L779,8V547c0,0,-101,-5,-165,-90c0,0,-64,-86,-70,-222L507,225l-90,73c0,0,5,79,35,151c0,0,-59,66,-128,66c0,0,-57,0,-100,-38c0,0,-44,-39,-44,-109c0,0,0,-165,284,-360L413,-59Z"
id="f6_c3"
transform="scale(0.001,-0.001)"/>

<path d="M-214,863l-199,281c0,0,-70,92,-157,92c0,0,-69,0,-159,-58l-72,118c0,0,89,73,180,73c0,0,141,0,258,-170L-155,901l-59,-38Z"
id="f6_d4"
transform="scale(0.001,-0.001)"/>

<path d="M254,-26c0,0,-84,16,-116,92c0,0,13,84,97,127c0,0,100,-36,112,-110C347,83,324,6,254,-26Zm458,0c0,0,-84,16,-116,92c0,0,14,84,98,127c0,0,99,-37,111,-110C805,83,782,6,712,-26Zm458,0c0,0,-84,16,-116,92c0,0,14,84,98,127c0,0,99,-36,111,-110c0,0,-22,-77,-93,-109Z"
id="f6_8l"
transform="scale(0.001,-0.001)"/>

<path d="M463,18c0,0,-118,0,-227,90c0,0,-109,91,-213,309l69,41c0,0,75,-160,152,-245c0,0,78,-85,184,-85c0,0,84,0,137,53c0,0,52,53,52,128c0,0,0,55,-33,101c0,0,-34,47,-97,65L325,391L257,512c0,0,68,53,156,56c0,0,140,72,140,179c0,0,0,69,-52,99c0,0,-4,1,-11,1c-19,0,-66,-4,-123,-30c0,0,-78,-35,-142,-96L150,823c0,0,119,117,253,117c0,0,98,0,175,-71c0,0,77,-70,77,-159c0,0,0,-102,-93,-180c0,0,95,-55,139,-148c0,0,34,-24,64,-24c0,0,40,0,71,35c0,0,32,36,104,183c0,0,71,147,136,199c0,0,65,52,148,52c0,0,108,0,184,-81c0,0,75,-81,75,-191c0,0,0,-113,-93,-230c0,0,-93,-116,-230,-180l-86,95c0,0,121,52,216,164c0,0,96,112,96,206c0,0,0,55,-35,93c0,0,-36,38,-92,38c0,0,-92,0,-157,-113L998,429c0,0,-86,-148,-210,-148c0,0,-35,0,-62,11l1,-25c0,0,0,-104,-75,-176C652,91,578,18,463,18ZM869,897c0,0,-81,0,-165,56c0,0,-85,57,-146,161l52,50c0,0,94,-162,218,-162c0,0,125,0,160,158l110,-49c0,0,-19,-100,-84,-157c0,0,-64,-57,-145,-57Zm-38,201c0,0,-66,25,-102,80c0,0,32,69,82,101c0,0,55,-20,100,-80c0,0,-26,-67,-80,-101Z"
id="f6_nq"
transform="scale(0.001,-0.001)"/>

<path d="M689,445V822H286l65,-58l8,-319ZM779,-49L689,8V328H370V180L296,150c0,0,-56,35,-120,104c0,0,-63,70,-89,131l41,60H238L223,822H0l-45,76l14,31H953l46,-76L985,822H750l66,-58V-39L779,-49Z"
id="f6_bz"
transform="scale(0.001,-0.001)"/>

<path d="M959,-49L869,8V367c0,0,-32,-13,-64,-13c0,0,-50,0,-110,25c0,0,23,-52,23,-109c0,0,0,-103,-70,-170c0,0,-70,-66,-182,-66c0,0,-110,0,-222,82c0,0,-111,83,-213,293l68,42c0,0,72,-155,152,-231c0,0,81,-76,178,-76c0,0,83,0,131,49c0,0,48,48,48,117c0,0,0,54,-30,100c0,0,-31,47,-91,65L325,391L257,512c0,0,68,53,156,56c0,0,140,72,140,179c0,0,0,69,-52,99c0,0,-4,1,-11,1c-19,0,-66,-4,-123,-30c0,0,-78,-35,-142,-96L150,823c0,0,119,117,253,117c0,0,98,0,175,-71c0,0,77,-70,77,-159c0,0,0,-103,-94,-180c0,0,39,-23,73,-56c0,0,52,-22,109,-22c0,0,77,0,126,38V822H727l-46,76l14,31h439l45,-76l-13,-31H930l66,-58V-39L959,-49Z"
id="f6_al"
transform="scale(0.001,-0.001)"/>

<path d="M228,-49L138,8V822H0l-45,76l14,31H133c0,0,-93,95,-93,206c0,0,0,96,68,159c0,0,68,63,179,63c0,0,118,0,228,-81c0,0,110,-80,258,-262L720,970L588,1109c0,0,-133,133,-253,133c0,0,-78,0,-127,-46c0,0,-49,-46,-49,-119c0,0,0,-69,56,-148H402l46,-76L434,822H199l65,-58V-39L228,-49Z"
id="f6_nr"
transform="scale(0.001,-0.001)"/>

<path d="M688,-243c0,0,-256,53,-408,173c0,0,-152,119,-152,270c0,0,0,101,68,171c0,0,-101,84,-101,179c0,0,0,64,53,112c0,0,54,47,191,47H587V822H0l-45,76l14,31H830l45,-76L862,822H640l66,-58V585H362c0,0,-159,-1,-159,-92c0,0,0,-41,46,-80c0,0,76,47,183,47c0,0,135,0,230,-76c0,0,96,-75,96,-187C758,197,758,67,629,2L545,104c0,0,49,30,81,75c0,0,32,44,32,82c0,0,0,16,-4,26c0,0,-64,58,-167,58c0,0,-97,0,-166,-50v-2c0,0,-67,-52,-67,-131c0,0,0,-116,132,-199c0,0,132,-84,334,-132l-32,-74Z"
id="f6_cc"
transform="scale(0.001,-0.001)"/>

<path d="M0,1062c0,0,-26,11,-60,36c0,0,-34,26,-51,49c0,0,39,81,91,110c0,0,60,-23,106,-85c0,0,-28,-70,-86,-110Z"
id="f6_dj"
transform="scale(0.001,-0.001)"/>

<path d="M347,-57C347,-57,66,211,66,394c0,0,0,98,74,164c0,0,74,65,225,65H616V822H0l-45,76l14,31H880l46,-76L912,822H677l66,-58V-39L706,-49L616,8V500H428c0,0,-239,0,-239,-161c0,0,0,-136,214,-343L347,-57Z"
id="f6_bp"
transform="scale(0.001,-0.001)"/>

<path d="M342,324c0,0,45,0,75,34c0,0,31,33,31,100V822H165l66,-58V390c0,0,32,-66,111,-66ZM853,-49L762,8V822H509l65,-58V455c0,0,0,-134,-51,-185c0,0,-52,-52,-127,-52c0,0,-98,0,-195,99c0,0,-97,99,-97,209V822H0l-45,76l14,31H1027l46,-76l-14,-31H823l66,-58V-39L853,-49Z"
id="f6_bo"
transform="scale(0.001,-0.001)"/>

<path d="M226,-49c0,0,-66,24,-102,78c0,0,32,69,82,101c0,0,55,-20,100,-80c0,0,-26,-66,-80,-99Z"
id="f6_pc"
transform="scale(0.001,-0.001)"/>

<path d="M290,-236c0,0,-253,348,-253,685c0,0,0,342,270,669l80,-39c0,0,-207,-311,-207,-622c0,0,0,-326,193,-652l-83,-41Z"
id="f6_g"
transform="scale(0.001,-0.001)"/>

<path d="M95,0L67,98L422,497c0,0,130,154,130,259c0,0,0,63,-40,111c0,0,-40,48,-121,48c0,0,-75,0,-171,-29L193,695l-88,2c0,0,-13,82,-13,165l1,65c0,0,159,97,315,97c0,0,122,0,207,-78c0,0,85,-77,85,-193c0,0,0,-67,-34,-133c0,0,-33,-67,-165,-217L237,121l4,-14l373,21l49,136l83,-12C746,252,732,99,704,0Z"
id="f6_q"
transform="scale(0.001,-0.001)"/>

<path d="M130,-236l-83,41c0,0,193,326,193,652c0,0,0,311,-206,622l79,39c0,0,270,-327,270,-669c0,0,0,-337,-253,-685Z"
id="f6_h"
transform="scale(0.001,-0.001)"/>

<path d="M959,-49L869,8V367c0,0,-32,-13,-64,-13c0,0,-50,0,-110,25c0,0,23,-52,23,-109c0,0,0,-103,-70,-170c0,0,-70,-66,-182,-66c0,0,-110,0,-222,82c0,0,-111,83,-213,293l68,42c0,0,72,-155,152,-231c0,0,81,-76,178,-76c0,0,83,0,131,49c0,0,48,48,48,117c0,0,0,54,-30,100c0,0,-31,47,-91,65L325,391L257,512c0,0,68,53,156,56c0,0,140,72,140,179c0,0,0,69,-52,99c0,0,-4,1,-11,1c-19,0,-66,-4,-123,-30c0,0,-78,-35,-142,-96L150,823c0,0,119,117,253,117c0,0,98,0,175,-71c0,0,77,-70,77,-159c0,0,0,-103,-94,-180c0,0,39,-23,73,-56c0,0,52,-22,109,-22c0,0,77,0,126,38V822H727l-46,76l14,31h840l46,-76l-13,-31H1332l66,-58V-39l-37,-10L1271,8V822H930l66,-58V-39L959,-49Z"
id="f6_am"
transform="scale(0.001,-0.001)"/>

<path d="M675,-274L602,21C602,21,550,3,498,3C498,3,347,3,210,118C210,118,73,232,73,373c0,0,0,113,84,184c0,0,84,71,222,72H524V822H0l-45,76l14,31H834l46,-76L866,822H585l66,-58V504l-3,2l3,-3H408c0,0,-95,0,-154,-53c0,0,-58,-53,-58,-132c0,0,0,-49,27,-100c0,0,28,-50,83,-84c0,0,44,-15,96,-15c0,0,91,0,160,46L535,303l101,48L773,188c0,0,-8,-28,-34,-66c0,0,-27,-38,-62,-64L813,-221L675,-274Z"
id="f6_br"
transform="scale(0.001,-0.001)"/>

<path d="M500,44c0,0,78,0,152,57c0,0,75,56,98,134V350c0,0,-130,0,-223,-64c0,0,-93,-63,-93,-148c0,0,0,-54,43,-92l23,-2ZM321,561c0,0,66,46,101,105c0,0,36,60,36,113c0,0,0,28,-9,48c0,0,-35,41,-87,41c0,0,-50,0,-89,-38c0,0,-39,-39,-39,-100c0,0,0,-94,87,-169ZM840,-111l-90,59V32c0,0,-69,-68,-156,-68c0,0,-97,0,-187,64c0,0,-89,64,-89,146c0,0,0,61,48,123c0,0,48,62,141,94c0,0,-69,20,-140,57L105,272L20,364L260,519c0,0,-144,118,-144,246c0,0,0,81,57,140c0,0,56,59,140,59c0,0,96,0,171,-79c0,0,75,-78,75,-168c0,0,0,-118,-133,-222c0,0,107,-44,232,-44l92,6V822H628l-46,76l14,31h418l46,-76l-13,-31H811l66,-58V-100l-37,-11Z"
id="f6_ke"
transform="scale(0.001,-0.001)"/>

<path d="M1001,240c0,0,76,0,153,35c0,0,77,35,120,99V500c0,0,-117,73,-221,73c0,0,-98,0,-152,-54c0,0,-53,-53,-53,-128c0,0,0,-73,49,-125c0,0,38,-26,104,-26ZM1364,-49L1274,8V199c0,0,-73,-65,-179,-65c0,0,-74,0,-155,37c0,0,-81,37,-138,98c0,0,-56,-69,-135,-108c0,0,-79,-39,-149,-39c0,0,-115,0,-225,93c0,0,-111,94,-111,193c0,0,0,79,61,137C243,545,66,672,66,791c0,0,0,75,52,124c0,0,53,49,134,49c0,0,164,0,260,-237L451,694c0,0,-55,114,-119,163l-31,5c0,0,-44,0,-77,-32c0,0,-33,-31,-33,-78c0,0,0,-86,113,-165c0,0,60,27,133,27l67,-4l75,-89L564,490l-51,7H493c0,0,-90,0,-142,-43c0,0,-52,-43,-52,-104c0,0,0,-60,51,-109c0,0,37,-13,81,-13c0,0,84,0,169,42c0,0,86,43,133,120l-7,61c0,0,0,102,78,171c0,0,78,69,189,69c0,0,38,0,75,-10l206,-99V822H567l-46,76l14,31H1538l46,-76l-13,-31H1335l66,-58V-39l-37,-10Z"
id="f6_fa"
transform="scale(0.001,-0.001)"/>

<path d="M845,-49L755,8V513H497c0,0,61,-45,93,-110c0,0,33,-64,33,-128c0,0,0,-90,-58,-144c0,0,-59,-53,-143,-53c0,0,-133,0,-234,139C188,217,87,356,20,596l76,24c0,0,60,-201,127,-306c0,0,67,-105,160,-105c0,0,57,0,91,36c0,0,33,36,33,91c0,0,0,84,-73,159L295,558v71H755V822H0l-45,76l14,31H1019l46,-76l-14,-31H816l66,-58V-39L845,-49Z"
id="f6_bg"
transform="scale(0.001,-0.001)"/>

<path d="M959,-49L869,8V367c0,0,-32,-13,-64,-13c0,0,-50,0,-110,25c0,0,23,-52,23,-109c0,0,0,-103,-70,-170c0,0,-70,-66,-182,-66c0,0,-110,0,-222,82c0,0,-111,83,-213,293l68,42c0,0,72,-155,152,-231c0,0,81,-76,178,-76c0,0,83,0,131,49c0,0,48,48,48,117c0,0,0,54,-30,100c0,0,-31,47,-91,65L325,391L257,512c0,0,68,53,156,56c0,0,140,72,140,179c0,0,0,69,-52,99c0,0,-4,1,-11,1c-19,0,-66,-4,-123,-30c0,0,-78,-35,-142,-96L150,823c0,0,119,117,253,117c0,0,98,0,175,-71c0,0,77,-70,77,-159c0,0,0,-103,-94,-180c0,0,39,-23,73,-56c0,0,52,-22,109,-22c0,0,77,0,126,38V822H727l-46,76l14,31h558l-153,215c0,0,-70,92,-157,92c0,0,-69,0,-159,-58l-72,118c0,0,89,73,180,73c0,0,141,0,258,-170L1338,929h197l46,-76l-13,-31H1332l66,-58V-39l-37,-10L1271,8V822H930l66,-58V-39L959,-49Z"
id="f6_b1"
transform="scale(0.001,-0.001)"/>

<path d="M548,-57c0,0,-122,0,-243,81c0,0,-122,81,-252,280l57,41C110,345,283,64,498,64c0,0,92,0,153,49c0,0,61,49,61,121c0,0,0,46,-28,84L440,237c0,0,-73,11,-139,55c0,0,-66,44,-105,105c0,0,-40,61,-40,119c0,0,0,72,62,125c0,0,62,53,184,53H625V822H0l-45,76l14,31H906l46,-76L938,822H678l66,-58V562H431c0,0,-164,0,-164,-99c0,0,0,-55,57,-102l261,82c0,0,104,-21,172,-98c0,0,68,-78,68,-171c0,0,0,-99,-76,-166c0,0,-77,-65,-201,-65Z"
id="f6_bm"
transform="scale(0.001,-0.001)"/>

<path d="M108,-433L-59,-214c0,0,-99,119,-191,119c0,0,-59,0,-96,-35c0,0,-36,-34,-36,-81c0,0,0,-49,42,-83l152,95l64,-116c0,0,-71,-58,-148,-58c0,0,-80,0,-146,63c0,0,-65,64,-65,144c0,0,0,77,62,131c0,0,61,53,142,53c0,0,138,0,296,-205L165,-393l-57,-40Z"
id="f6_cx"
transform="scale(0.001,-0.001)"/>

<path d="M825,-49L735,8V217c0,0,-86,-72,-197,-72c0,0,-130,0,-238,91c0,0,-107,91,-107,204c0,0,0,55,27,105H55L12,616l14,30H574l46,-76L607,539H396c0,0,-78,-49,-78,-162c0,0,0,-70,40,-111c0,0,39,-15,94,-15c0,0,84,0,163,41c0,0,79,41,120,121V822H0l-45,76l14,31H999l46,-76l-14,-31H796l66,-58V-39L825,-49Z"
id="f6_be"
transform="scale(0.001,-0.001)"/>

<path d="M526,-266c0,0,-66,24,-103,79c0,0,32,69,83,101c0,0,55,-20,99,-80c0,0,-26,-67,-79,-100ZM570,78c0,0,66,17,105,54c0,0,40,38,40,88c0,0,0,40,-23,66c0,0,-23,26,-58,26c0,0,-40,0,-71,-33c0,0,-31,-33,-31,-90c0,0,0,-55,38,-111ZM538,-45c0,0,-182,0,-322,128C216,83,76,211,76,368c0,0,0,122,91,201c0,0,90,79,238,79H564V822H0l-45,76l14,31H853l45,-76L885,822H617l66,-58V521H420c0,0,-99,0,-162,-57c0,0,-62,-58,-62,-146c0,0,0,-121,105,-208c0,0,118,-41,188,-41l29,1l-69,46c0,0,-36,55,-36,115c0,0,0,73,48,123c0,0,49,49,123,49c0,0,87,0,151,-74c0,0,64,-74,64,-162c0,0,0,-94,-71,-153c0,0,-71,-59,-190,-59Z"
id="f6_ci"
transform="scale(0.001,-0.001)"/>

<path d="M374,248c0,0,77,0,149,36c0,0,71,37,110,107V822H284c0,0,138,-96,138,-208c0,0,0,-151,-228,-192c0,0,29,-104,89,-158c0,0,41,-16,91,-16ZM723,-49L633,8V200c0,0,-69,-56,-170,-56c0,0,-122,0,-240,94c0,0,-118,94,-179,237l20,55c0,0,133,17,187,44c0,0,55,28,55,84c0,0,0,45,-30,81c0,0,-30,36,-99,83H0l-45,76l14,31H897l46,-76L929,822H694l65,-58V-39L723,-49Z"
id="f6_c0"
transform="scale(0.001,-0.001)"/>

<path d="M228,-49L138,8V822H0l-45,76l14,31H134c0,0,-91,92,-91,191c0,0,0,105,85,170c0,0,84,65,219,65c0,0,128,0,293,-76c0,0,165,-77,362,-263L958,966c0,0,-177,143,-303,210c0,0,-125,68,-244,68c0,0,-107,0,-175,-50c0,0,-68,-50,-68,-131c0,0,0,-61,49,-134H402l46,-76L434,822H199l65,-58V-39L228,-49Z"
id="f6_cu"
transform="scale(0.001,-0.001)"/>

<path d="M688,-49L597,8V335L248,81l-92,81L532,425l-81,76c0,0,-80,70,-133,70c0,0,-81,0,-194,-96L38,584c0,0,109,105,223,105c0,0,103,0,213,-107L597,457V822H0l-45,76l14,31H862l46,-76L894,822H658l66,-58V-39L688,-49Z"
id="f6_e1"
transform="scale(0.001,-0.001)"/>

<path d="M283,260c0,0,122,0,209,113V513c0,0,-90,51,-160,51c0,0,-80,0,-129,-50c0,0,-49,-50,-49,-118c0,0,0,-60,35,-110c0,0,45,-26,94,-26ZM582,-49L492,8V211c0,0,-63,-54,-141,-54c0,0,-113,0,-213,92c0,0,-100,92,-100,205c0,0,0,93,69,157c0,0,69,64,162,64c0,0,32,0,64,-9L492,590V822H0l-45,76l14,31H1108l45,-76l-13,-31H553l66,-58V524c0,0,91,89,192,89c0,0,98,0,171,-79c0,0,72,-79,72,-186c0,0,0,-178,-224,-330L736,124c0,0,219,153,219,269c0,0,0,44,-26,75c0,0,-26,32,-81,32c0,0,-109,0,-229,-155V-39L582,-49Z"
id="f6_b9"
transform="scale(0.001,-0.001)"/>

<path d="M388,325c0,0,58,0,112,31c0,0,53,31,84,86V822H165l69,-58V408c0,0,47,-83,154,-83ZM674,-49L584,8V257c0,0,-61,-51,-141,-51c0,0,-125,0,-232,109c0,0,-107,108,-107,243V822H0l-45,76l14,31H848l46,-76L880,822H645l65,-58V-39L674,-49Z"
id="f6_bv"
transform="scale(0.001,-0.001)"/>

<path d="M-239,897c0,0,-82,61,-132,137c0,0,-50,75,-50,150c0,0,0,78,52,133c0,0,52,55,141,55c0,0,98,0,176,-64l-23,-69c0,0,-52,32,-104,32c0,0,-57,0,-95,-36c0,0,-38,-36,-38,-95c0,0,0,-115,117,-217l-44,-26Z"
id="f6_dr"
transform="scale(0.001,-0.001)"/>

<path d="M471,-26c0,0,-259,0,-448,396l70,43C93,413,240,98,442,98c0,0,79,0,132,46c0,0,54,45,54,120c0,0,0,61,-38,116c0,0,-38,54,-107,72L322,370L255,492c0,0,66,53,156,56c0,0,128,51,128,153c0,0,0,77,-65,121H0l-45,76l14,31H813l46,-76L845,822H578c0,0,76,-66,76,-157c0,0,0,-95,-87,-156c0,0,84,-48,131,-123c0,0,48,-76,48,-158c0,0,0,-109,-78,-182c0,0,-78,-72,-197,-72Z"
id="f6_ap"
transform="scale(0.001,-0.001)"/>

<path d="M325,240c0,0,77,0,154,35c0,0,77,35,120,99V500c0,0,-118,73,-222,73c0,0,-97,0,-151,-54c0,0,-53,-53,-53,-128c0,0,0,-73,49,-125c0,0,38,-26,103,-26ZM689,-49L599,8V199c0,0,-73,-65,-179,-65c0,0,-134,0,-252,96c0,0,-118,95,-118,221c0,0,0,102,78,171c0,0,78,69,190,69c0,0,38,0,75,-10L599,582V822H0l-45,76l14,31H863l46,-76L895,822H660l66,-58V-39L689,-49Z"
id="f6_c7"
transform="scale(0.001,-0.001)"/>

<path d="M417,63c0,0,-130,0,-230,139C187,202,87,341,20,581l76,24c0,0,60,-202,127,-306c0,0,67,-105,160,-105c0,0,57,0,91,36c0,0,33,36,33,91c0,0,0,84,-73,159L295,542v72H819l43,-85L843,498H497c0,0,61,-47,93,-111c0,0,33,-63,33,-126c0,0,0,-85,-58,-142c0,0,-59,-56,-148,-56ZM0,822l-45,76l14,31H775l45,-76L807,822Z"
id="f6_l7"
transform="scale(0.001,-0.001)"/>

<path d="M252,385l310,78l22,-9c0,0,107,-43,200,-43c0,0,91,0,151,41V822H603l66,-58V585H373c0,0,-184,0,-184,-99c0,0,0,-48,63,-101ZM483,-305L295,-10c0,0,-90,22,-156,74l41,170h66L351,63c0,0,126,4,207,62c0,0,82,58,82,139c0,0,0,37,-18,71L365,266c0,0,-110,15,-197,102c0,0,-87,87,-87,176c0,0,0,69,59,117c0,0,59,48,172,48H550V822H0l-45,76l14,31H1199l46,-76l-14,-31H996l66,-58V-39l-37,-10L935,8V318c0,0,-41,-15,-78,-15c0,0,-52,0,-131,30c0,0,32,-55,32,-111c0,0,0,-109,-98,-179c0,0,-98,-69,-254,-69L599,-216L483,-305Z"
id="f6_bh"
transform="scale(0.001,-0.001)"/>

<path d="M-234,-413c0,0,-210,0,-488,322l54,49c0,0,119,-128,209,-193c0,0,90,-65,177,-65c0,0,72,0,113,40c0,0,42,39,42,91c0,0,0,75,-78,106L-323,-181l-90,98c0,0,63,95,167,95c0,0,90,0,155,-69c0,0,66,-70,66,-164c0,0,0,-85,-60,-139c0,0,-61,-53,-149,-53Z"
id="f6_cw"
transform="scale(0.001,-0.001)"/>

<path d="M830,-253l-123,66c0,0,31,47,31,78c0,0,0,44,-64,84L353,130c0,0,-234,113,-234,325V822H0l-45,76l14,31H848l46,-76L880,822H655l68,-58V561c0,0,0,-176,-41,-241c0,0,-40,-65,-161,-106l-49,82l124,69V822H180l66,-58V283L646,92c0,0,126,-60,176,-110c0,0,50,-51,50,-115c0,0,0,-62,-42,-120Z"
id="f6_ax"
transform="scale(0.001,-0.001)"/>

<path d="M373,218c0,0,98,0,172,61c0,0,75,60,75,140c0,0,0,29,-10,55c0,0,-69,59,-121,85c0,0,-52,26,-113,26c0,0,-95,0,-151,-56c0,0,-57,-55,-57,-133c0,0,0,-77,52,-135c0,0,60,-43,153,-43ZM431,116c0,0,-142,0,-261,99C170,215,52,315,52,446c0,0,0,107,80,179c0,0,80,72,195,72c0,0,43,0,81,-11L642,548c0,0,73,-91,73,-183c0,0,0,-104,-84,-176c0,0,-84,-73,-200,-73ZM0,822l-45,76l14,31H619l46,-76L651,822Z"
id="f6_lx"
transform="scale(0.001,-0.001)"/>

<path d="M819,-521L651,-303c0,0,-99,119,-191,119c0,0,-60,0,-96,-34c0,0,-37,-35,-37,-82c0,0,0,-49,43,-82l151,94l64,-116c0,0,-70,-58,-148,-58c0,0,-79,0,-145,64c0,0,-66,63,-66,144c0,0,0,98,90,151c0,0,-203,131,-203,306c0,0,0,101,69,170c0,0,-103,88,-103,179c0,0,0,64,57,110c0,0,57,47,196,47H571V822H0l-45,76l14,31H830l45,-76L862,822H625l66,-58V585H364c0,0,-176,0,-176,-96c0,0,0,-41,44,-76c0,0,81,47,185,47c0,0,135,0,230,-76c0,0,96,-75,96,-187C743,197,743,67,614,2L530,104c0,0,49,30,81,75c0,0,32,44,32,82c0,0,0,16,-4,26c0,0,-65,58,-167,58c0,0,-98,0,-166,-50v-2c0,0,-68,-52,-68,-131c0,0,0,-134,188,-231c0,0,84,0,164,-62c0,0,79,-62,195,-222l90,-129l-56,-39Z"
id="f6_n5"
transform="scale(0.001,-0.001)"/>

<path d="M830,-253l-123,66c0,0,31,47,31,78c0,0,0,44,-64,84L353,130c0,0,-234,113,-234,325V822H0l-45,76l14,31H600L448,1144c0,0,-71,92,-158,92c0,0,-68,0,-159,-58L60,1296c0,0,88,73,180,73c0,0,140,0,258,-170L686,929H848l46,-76L880,822H655l68,-58V561c0,0,0,-176,-41,-241c0,0,-40,-65,-161,-106l-49,82l124,69V822H180l66,-58V283L646,92c0,0,126,-60,176,-110c0,0,50,-51,50,-115c0,0,0,-62,-42,-120Z"
id="f6_ay"
transform="scale(0.001,-0.001)"/>

<path d="M283,260c0,0,122,0,209,113V513c0,0,-90,51,-160,51c0,0,-80,0,-129,-50c0,0,-49,-50,-49,-118c0,0,0,-60,35,-110c0,0,45,-26,94,-26ZM582,-49L492,8V211c0,0,-63,-54,-141,-54c0,0,-113,0,-214,92c0,0,-102,92,-102,206c0,0,0,93,69,157c0,0,69,63,163,63c0,0,34,0,66,-9L492,590V822H0l-45,76l14,31H909l46,-76L941,822H553l66,-58V521c0,0,93,104,192,104c0,0,63,0,120,-42c0,0,57,-42,82,-106L964,431l-5,9c0,0,-38,72,-110,72c0,0,-51,0,-105,-41c0,0,-53,-42,-125,-129V-39L582,-49Z"
id="f6_l1"
transform="scale(0.001,-0.001)"/>

<path d="M108,-222l-44,58c0,0,96,81,104,164L89,61c0,0,12,83,93,122c0,0,50,-15,79,-55c0,0,29,-39,29,-90c0,0,0,-69,-48,-142c0,0,-48,-72,-134,-118Z"
id="f6_k"
transform="scale(0.001,-0.001)"/>

<path d="M438,206c0,0,-119,0,-226,109c0,0,-108,108,-108,243V822H0l-45,76l14,31H542l46,-76L574,822H165l66,-58V408c0,0,46,-86,151,-86c0,0,61,0,119,32c0,0,58,33,95,91L669,338c0,0,-44,-66,-108,-99c0,0,-63,-33,-123,-33Z"
id="f6_ll"
transform="scale(0.001,-0.001)"/>

<path d="M449,79c0,0,103,0,168,61c0,0,66,60,66,149c0,0,0,93,-84,186H420c0,0,-107,0,-164,-50c0,0,-57,-51,-57,-126c0,0,0,-108,99,-184c0,0,81,-36,151,-36Zm67,-96c0,0,-168,0,-301,109C215,92,81,202,81,350c0,0,0,114,83,182c0,0,84,68,229,68H507V822H0l-45,76l14,31H883l46,-76L915,822H568l66,-58V532c0,0,87,-64,130,-144c0,0,43,-79,43,-157c0,0,0,-109,-81,-179c0,0,-81,-69,-210,-69Z"
id="f6_bl"
transform="scale(0.001,-0.001)"/>

<path d="M46,1082c0,0,-69,29,-106,81c0,0,34,75,84,105c0,0,57,-23,103,-81c0,0,-31,-72,-81,-105Z"
id="f6_ol"
transform="scale(0.001,-0.001)"/>

<path d="M827,-49L736,8V205c0,0,-84,-84,-209,-84c0,0,-130,0,-237,91c0,0,-108,92,-108,196c0,0,0,79,61,137C243,545,66,672,66,791c0,0,0,75,52,124c0,0,53,49,134,49c0,0,164,0,260,-237L451,694c0,0,-55,114,-119,163l-31,5c0,0,-44,0,-77,-32c0,0,-33,-31,-33,-78c0,0,0,-86,113,-165c0,0,60,27,133,27l67,-4l75,-89L564,490l-51,7H493c0,0,-90,0,-142,-43c0,0,-52,-43,-52,-104c0,0,0,-60,51,-109c0,0,33,-16,84,-16c0,0,89,0,177,47c0,0,89,47,125,137V822H567l-46,76l14,31h466l46,-76l-14,-31H798l65,-58V-39L827,-49Z"
id="f6_bs"
transform="scale(0.001,-0.001)"/>

<path d="M749,-49L658,8V324L402,157L472,47L429,-17c0,0,-50,9,-117,40c0,0,-66,32,-109,69l-4,84L603,429c0,0,-85,116,-249,116l-93,-6V371L188,342c0,0,-90,84,-153,243l54,72c0,0,136,20,203,20c0,0,107,0,195,-45c0,0,87,-45,171,-161V822H0l-45,76l14,31H923l46,-76L955,822H720l65,-58V-39L749,-49Z"
id="f6_jj"
transform="scale(0.001,-0.001)"/>

<path d="M483,-305L295,-10c0,0,-90,22,-156,74l41,170h66L351,63c0,0,126,4,207,62c0,0,82,58,82,139c0,0,0,37,-18,71L365,266c0,0,-110,15,-197,102c0,0,-87,87,-87,176c0,0,0,69,59,117c0,0,59,48,172,48H550V822H0l-45,76l14,31H822l46,-76L854,822H603l66,-58V585H373c0,0,-184,0,-184,-99c0,0,0,-48,63,-101l310,78c0,0,86,-34,141,-99c0,0,55,-65,55,-142c0,0,0,-109,-98,-179c0,0,-98,-69,-254,-69L599,-216L483,-305Z"
id="f6_an"
transform="scale(0.001,-0.001)"/>

<path d="M78,-431l-266,240l-132,-60l-90,85c0,0,95,66,179,66c0,0,65,0,145,-69L131,-375L78,-431Z"
id="f6_dg"
transform="scale(0.001,-0.001)"/>

<path d="M725,307c0,0,-95,0,-218,78c0,0,-123,78,-188,78c0,0,-54,0,-95,-34c0,0,-41,-34,-73,-100L93,362c0,0,38,88,101,146c0,0,63,59,148,59c0,0,90,0,214,-78c0,0,124,-79,188,-79c0,0,63,0,106,34c0,0,42,33,85,104l60,-40c0,0,-32,-66,-101,-134c0,0,-70,-67,-169,-67Z"
id="f7_4r"
transform="scale(0.001,-0.001)"/>

<path d="M435,0V856c0,0,-48,-47,-127,-93c0,0,-79,-46,-142,-69V824c0,0,113,52,197,128c0,0,85,75,120,146h86V0Z"
id="f8_l"
transform="scale(0.001,-0.001)"/>


</defs>
</svg>