<?xml version="1.0" encoding="UTF-8" standalone="no"?>
<!DOCTYPE svg PUBLIC "-//W3C//DTD SVG 1.1//EN"
"http://www.w3.org/Graphics/SVG/1.1/DTD/svg11.dtd">
<svg viewBox="0 0 641 910" version="1.1" xmlns="http://www.w3.org/2000/svg" xmlns:xlink="http://www.w3.org/1999/xlink">
<defs>
<clipPath id="c0_24"><path d="M0,909.8V0H641.7V909.8Z"/></clipPath>
<clipPath id="c1_24"><path d="M0,908.6V0H641.7V908.6Z"/></clipPath>
<style type="text/css"><![CDATA[
.g0_24{
fill: #FFFFFF;
}
.g1_24{
}
]]></style>
</defs>
<path d="M0,0H641.7V909.8H0V0Z" class="g0_24"/>
<path d="M0,0H641.7V909.8H0V0Z" class="g0_24"/>
<g clip-path="url(#c0_24)">
<path d="M0,-15466.4H641.7V90979.2H0V-15466.4Z" class="g0_24"/>
</g>
<path d="M0,0H641.7V908.6H0V0Z" class="g0_24"/>
<path d="M19.5,60.7H602.7v1.2H19.5V60.7Z" class="g1_24"/>
<g clip-path="url(#c1_24)">
<path d="M0,61.9H641.7V909.8H0V61.9Z" class="g0_24"/>
<g fill="#000000" >
<use xlink:href="#f5_am" transform="matrix(14,0,0,14,182.5,82.5)" />
<use xlink:href="#f5_dj" transform="matrix(14,0,0,14,200.7,82.6)" />
<use xlink:href="#f5_ba" transform="matrix(14,0,0,14,207.3,82.5)" />
<use xlink:href="#f5_ch" transform="matrix(14,0,0,14,226.3,82.5)" />
<use xlink:href="#f5_cv" transform="matrix(14,0,0,14,239.5,82.5)" />
<use xlink:href="#f5_bz" transform="matrix(14,0,0,14,251.7,82.5)" />
<use xlink:href="#f5_ct" transform="matrix(14,0,0,14,266.3,82.5)" />
<use xlink:href="#f5_c1" transform="matrix(14,0,0,14,272.8,82.5)" />
<use xlink:href="#f5_cv" transform="matrix(14,0,0,14,283,82.5)" />
<use xlink:href="#f5_e6" transform="matrix(14,0,0,14,295.1,82.5)" />
<use xlink:href="#f5_by" transform="matrix(14,0,0,14,308.9,82.5)" />
<use xlink:href="#f5_cw" transform="matrix(14,0,0,14,324.3,82.5)" />
<use xlink:href="#f5_cc" transform="matrix(14,0,0,14,329.6,82.5)" />
<use xlink:href="#f5_c1" transform="matrix(14,0,0,14,342.3,82.5)" />
<use xlink:href="#f5_ba" transform="matrix(14,0,0,14,352.5,82.5)" />
<use xlink:href="#f5_ct" transform="matrix(14,0,0,14,371.4,82.5)" />
<use xlink:href="#f5_c0" transform="matrix(14,0,0,14,377.9,82.5)" />
<use xlink:href="#f5_bf" transform="matrix(14,0,0,14,397.6,82.5)" />
<use xlink:href="#f5_d4" transform="matrix(14,0,0,14,413.4,82.5)" />
<use xlink:href="#f5_pc" transform="matrix(14,0,0,14,420.1,82.5)" />
<use xlink:href="#f5_pc" transform="matrix(14,0,0,14,426.3,82.5)" />
<use xlink:href="#f5_pc" transform="matrix(14,0,0,14,432.5,82.5)" />
<use xlink:href="#f6_am" transform="matrix(14,0,0,14,185.9,116.9)" />
<use xlink:href="#f6_dj" transform="matrix(14,0,0,14,202,117.3)" />
<use xlink:href="#f6_ba" transform="matrix(14,0,0,14,207.4,116.9)" />
<use xlink:href="#f6_ch" transform="matrix(14,0,0,14,224.1,116.9)" />
<use xlink:href="#f6_cv" transform="matrix(14,0,0,14,236.8,116.9)" />
<use xlink:href="#f6_bz" transform="matrix(14,0,0,14,248.1,116.9)" />
<use xlink:href="#f6_ct" transform="matrix(14,0,0,14,261.4,116.9)" />
<use xlink:href="#f6_c1" transform="matrix(14,0,0,14,267.1,116.9)" />
<use xlink:href="#f6_cv" transform="matrix(14,0,0,14,275.4,116.9)" />
<use xlink:href="#f6_e6" transform="matrix(14,0,0,14,286.7,116.9)" />
<use xlink:href="#f6_by" transform="matrix(14,0,0,14,298.8,116.9)" />
<use xlink:href="#f6_cw" transform="matrix(14,0,0,14,313.3,116.8)" />
<use xlink:href="#f6_cc" transform="matrix(14,0,0,14,318.4,116.9)" />
<use xlink:href="#f6_c1" transform="matrix(14,0,0,14,330,116.9)" />
<use xlink:href="#f6_ba" transform="matrix(14,0,0,14,338.4,116.9)" />
<use xlink:href="#f6_ct" transform="matrix(14,0,0,14,355.1,116.9)" />
<use xlink:href="#f6_c0" transform="matrix(14,0,0,14,360.7,116.9)" />
<use xlink:href="#f6_bf" transform="matrix(14,0,0,14,379,116.9)" />
<use xlink:href="#f6_d4" transform="matrix(14,0,0,14,393.4,116.9)" />
<use xlink:href="#f6_pc" transform="matrix(14,0,0,14,400.3,116.9)" />
<use xlink:href="#f6_pc" transform="matrix(14,0,0,14,404.6,116.9)" />
<use xlink:href="#f6_pc" transform="matrix(14,0,0,14,408.9,116.9)" />
<use xlink:href="#f6_g" transform="matrix(14,0,0,14,413.2,116.9)" />
<use xlink:href="#f6_n8" transform="matrix(14,0,0,14,419,116.9)" />
<use xlink:href="#f6_h" transform="matrix(14,0,0,14,429.5,116.9)" />
<use xlink:href="#f6_iz" transform="matrix(14,0,0,14,177.9,142.1)" />
<use xlink:href="#f6_ct" transform="matrix(14,0,0,14,200.1,142.1)" />
<use xlink:href="#f6_dj" transform="matrix(14,0,0,14,200.4,142.5)" />
<use xlink:href="#f6_bp" transform="matrix(14,0,0,14,211.4,142.1)" />
<use xlink:href="#f6_bz" transform="matrix(14,0,0,14,223.7,142.1)" />
<use xlink:href="#f6_ct" transform="matrix(14,0,0,14,237.1,142.1)" />
<use xlink:href="#f6_c1" transform="matrix(14,0,0,14,242.7,142.1)" />
<use xlink:href="#f6_ct" transform="matrix(14,0,0,14,251.1,142.1)" />
<use xlink:href="#f6_bz" transform="matrix(14,0,0,14,262.4,142.1)" />
<use xlink:href="#f6_cw" transform="matrix(14,0,0,14,276.2,142)" />
<use xlink:href="#f6_ba" transform="matrix(14,0,0,14,275.7,142.1)" />
<use xlink:href="#f6_bt" transform="matrix(14,0,0,14,298.1,142.1)" />
<use xlink:href="#f6_ct" transform="matrix(14,0,0,14,309.8,142.1)" />
<use xlink:href="#f6_br" transform="matrix(14,0,0,14,321.1,142.1)" />
<use xlink:href="#f6_c8" transform="matrix(14,0,0,14,332.8,142.1)" />
<use xlink:href="#f6_dr" transform="matrix(14,0,0,14,349.1,142.1)" />
<use xlink:href="#f6_bt" transform="matrix(14,0,0,14,348.6,142.1)" />
<use xlink:href="#f6_bq" transform="matrix(14,0,0,14,366,142.1)" />
<use xlink:href="#f6_d4" transform="matrix(14,0,0,14,379.3,142.1)" />
<use xlink:href="#f6_bf" transform="matrix(14,0,0,14,384.9,142.1)" />
<use xlink:href="#f6_d4" transform="matrix(14,0,0,14,399.3,142.1)" />
<use xlink:href="#f6_pc" transform="matrix(14,0,0,14,411.9,142.1)" />
<use xlink:href="#f6_pc" transform="matrix(14,0,0,14,416.2,142.1)" />
<use xlink:href="#f6_g" transform="matrix(14,0,0,14,420.5,142.1)" />
<use xlink:href="#f6_q" transform="matrix(14,0,0,14,426.3,142.1)" />
<use xlink:href="#f6_h" transform="matrix(14,0,0,14,438,142.1)" />
<use xlink:href="#f6_8l" transform="matrix(14,0,0,14,318.4,167.3)" />
<use xlink:href="#f6_pc" transform="matrix(14,0,0,14,338.3,167.3)" />
<use xlink:href="#f6_am" transform="matrix(14,0,0,14,342.5,167.3)" />
<use xlink:href="#f6_dj" transform="matrix(14,0,0,14,358.6,167.7)" />
<use xlink:href="#f6_ba" transform="matrix(14,0,0,14,364,167.3)" />
<use xlink:href="#f6_ch" transform="matrix(14,0,0,14,380.7,167.3)" />
<use xlink:href="#f6_cv" transform="matrix(14,0,0,14,393.4,167.3)" />
<use xlink:href="#f6_bz" transform="matrix(14,0,0,14,404.7,167.3)" />
<use xlink:href="#f6_ct" transform="matrix(14,0,0,14,418,167.3)" />
<use xlink:href="#f6_c1" transform="matrix(14,0,0,14,423.7,167.3)" />
<use xlink:href="#f6_cv" transform="matrix(14,0,0,14,432,167.3)" />
<use xlink:href="#f6_br" transform="matrix(14,0,0,14,206.6,217.7)" />
<use xlink:href="#f6_d4" transform="matrix(14,0,0,14,217.8,217.7)" />
<use xlink:href="#f6_c7" transform="matrix(14,0,0,14,218.2,217.7)" />
<use xlink:href="#f6_bt" transform="matrix(14,0,0,14,230.3,217.7)" />
<use xlink:href="#f6_cw" transform="matrix(14,0,0,14,242.6,217.6)" />
<use xlink:href="#f6_dj" transform="matrix(14,0,0,14,239.1,218.1)" />
<use xlink:href="#f6_cu" transform="matrix(14,0,0,14,247.7,217.7)" />
<use xlink:href="#f6_c7" transform="matrix(14,0,0,14,253.3,217.7)" />
<use xlink:href="#f6_bz" transform="matrix(14,0,0,14,265.4,217.7)" />
<use xlink:href="#f6_ct" transform="matrix(14,0,0,14,278.7,217.7)" />
<use xlink:href="#f6_bt" transform="matrix(14,0,0,14,284.3,217.7)" />
<use xlink:href="#f6_bg" transform="matrix(14,0,0,14,301.7,217.7)" />
<use xlink:href="#f6_ct" transform="matrix(14,0,0,14,316,217.7)" />
<use xlink:href="#f6_bo" transform="matrix(14,0,0,14,321.6,217.7)" />
<use xlink:href="#f6_d4" transform="matrix(14,0,0,14,336.1,217.7)" />
<use xlink:href="#f6_aq" transform="matrix(14,0,0,14,341.6,217.7)" />
<use xlink:href="#f6_bp" transform="matrix(14,0,0,14,357.3,217.7)" />
<use xlink:href="#f6_c0" transform="matrix(14,0,0,14,369.7,217.7)" />
<use xlink:href="#f6_cw" transform="matrix(14,0,0,14,382.7,217.6)" />
<use xlink:href="#f6_op" transform="matrix(14,0,0,14,382.7,217.7)" />
<use xlink:href="#f6_pc" transform="matrix(14,0,0,14,382.2,217.7)" />
<use xlink:href="#f6_pc" transform="matrix(14,0,0,14,386.5,217.7)" />
<use xlink:href="#f6_g" transform="matrix(14,0,0,14,390.8,217.7)" />
<use xlink:href="#f6_q" transform="matrix(14,0,0,14,396.6,217.7)" />
<use xlink:href="#f6_h" transform="matrix(14,0,0,14,408.3,217.7)" />
<use xlink:href="#f6_ax" transform="matrix(14,0,0,14,189.4,242.9)" />
<use xlink:href="#f6_c7" transform="matrix(14,0,0,14,201.2,242.9)" />
<use xlink:href="#f6_cw" transform="matrix(14,0,0,14,213.8,242.8)" />
<use xlink:href="#f6_dj" transform="matrix(14,0,0,14,210.4,243.3)" />
<use xlink:href="#f6_bz" transform="matrix(14,0,0,14,219,242.9)" />
<use xlink:href="#f6_dj" transform="matrix(14,0,0,14,226.4,243.3)" />
<use xlink:href="#f6_cu" transform="matrix(14,0,0,14,232.3,242.9)" />
<use xlink:href="#f6_br" transform="matrix(14,0,0,14,237.9,242.9)" />
<use xlink:href="#f6_c1" transform="matrix(14,0,0,14,249.6,242.9)" />
<use xlink:href="#f6_am" transform="matrix(14,0,0,14,263.7,242.9)" />
<use xlink:href="#f6_bv" transform="matrix(14,0,0,14,285.1,242.9)" />
<use xlink:href="#f6_bt" transform="matrix(14,0,0,14,297,242.9)" />
<use xlink:href="#f6_cw" transform="matrix(14,0,0,14,309.3,242.8)" />
<use xlink:href="#f6_c8" transform="matrix(14,0,0,14,314.4,242.9)" />
<use xlink:href="#f6_d8" transform="matrix(14,0,0,14,330.2,242.9)" />
<use xlink:href="#f6_by" transform="matrix(14,0,0,14,335.9,242.9)" />
<use xlink:href="#f6_ct" transform="matrix(14,0,0,14,349.8,242.9)" />
<use xlink:href="#f6_c0" transform="matrix(14,0,0,14,355.4,242.9)" />
<use xlink:href="#f6_bf" transform="matrix(14,0,0,14,379.3,242.9)" />
<use xlink:href="#f6_d4" transform="matrix(14,0,0,14,393.7,242.9)" />
<use xlink:href="#f6_pc" transform="matrix(14,0,0,14,400.7,242.9)" />
<use xlink:href="#f6_pc" transform="matrix(14,0,0,14,405,242.9)" />
<use xlink:href="#f6_g" transform="matrix(14,0,0,14,409.2,242.9)" />
<use xlink:href="#f6_q" transform="matrix(14,0,0,14,415.1,242.9)" />
<use xlink:href="#f6_h" transform="matrix(14,0,0,14,426.8,242.9)" />
<use xlink:href="#f6_8l" transform="matrix(14,0,0,14,327.4,268.1)" />
<use xlink:href="#f6_pc" transform="matrix(14,0,0,14,347.2,268.1)" />
<use xlink:href="#f6_pc" transform="matrix(14,0,0,14,351.5,268.1)" />
<use xlink:href="#f6_iz" transform="matrix(14,0,0,14,355.8,268.1)" />
<use xlink:href="#f6_ct" transform="matrix(14,0,0,14,378,268.1)" />
<use xlink:href="#f6_dj" transform="matrix(14,0,0,14,378.2,268.6)" />
<use xlink:href="#f6_bp" transform="matrix(14,0,0,14,389.3,268.1)" />
<use xlink:href="#f6_bz" transform="matrix(14,0,0,14,401.6,268.1)" />
<use xlink:href="#f6_ct" transform="matrix(14,0,0,14,415,268.1)" />
<use xlink:href="#f6_c1" transform="matrix(14,0,0,14,420.6,268.1)" />
<use xlink:href="#f6_ct" transform="matrix(14,0,0,14,429,268.1)" />
<use xlink:href="#f6_8l" transform="matrix(14,0,0,14,328.3,293.3)" />
<use xlink:href="#f6_pc" transform="matrix(14,0,0,14,348.1,293.3)" />
<use xlink:href="#f6_pc" transform="matrix(14,0,0,14,352.4,293.3)" />
<use xlink:href="#f6_pc" transform="matrix(14,0,0,14,356.7,293.3)" />
<use xlink:href="#f6_am" transform="matrix(14,0,0,14,361,293.3)" />
<use xlink:href="#f6_dj" transform="matrix(14,0,0,14,377,293.8)" />
<use xlink:href="#f6_ba" transform="matrix(14,0,0,14,382.4,293.3)" />
<use xlink:href="#f6_ch" transform="matrix(14,0,0,14,399.2,293.3)" />
<use xlink:href="#f6_cv" transform="matrix(14,0,0,14,411.8,293.3)" />
<use xlink:href="#f6_bz" transform="matrix(14,0,0,14,423.1,293.3)" />
<use xlink:href="#f6_ct" transform="matrix(14,0,0,14,436.5,293.3)" />
<use xlink:href="#f6_c1" transform="matrix(14,0,0,14,442.1,293.3)" />
<use xlink:href="#f6_cv" transform="matrix(14,0,0,14,450.5,293.3)" />
<use xlink:href="#f6_am" transform="matrix(14,0,0,14,204.3,343.8)" />
<use xlink:href="#f6_cb" transform="matrix(14,0,0,14,231.4,343.8)" />
<use xlink:href="#f6_dj" transform="matrix(14,0,0,14,240,344.2)" />
<use xlink:href="#f6_cb" transform="matrix(14,0,0,14,246.3,343.8)" />
<use xlink:href="#f6_ct" transform="matrix(14,0,0,14,261.2,343.8)" />
<use xlink:href="#f6_c1" transform="matrix(14,0,0,14,266.8,343.8)" />
<use xlink:href="#f6_d4" transform="matrix(14,0,0,14,274.8,343.8)" />
<use xlink:href="#f6_c1" transform="matrix(14,0,0,14,280.8,343.8)" />
<use xlink:href="#f6_ch" transform="matrix(14,0,0,14,289.2,343.8)" />
<use xlink:href="#f6_b9" transform="matrix(14,0,0,14,301.9,343.8)" />
<use xlink:href="#f6_oc" transform="matrix(14,0,0,14,317.4,343.8)" />
<use xlink:href="#f6_bt" transform="matrix(14,0,0,14,323,343.8)" />
<use xlink:href="#f6_d4" transform="matrix(14,0,0,14,334.9,343.8)" />
<use xlink:href="#f6_bq" transform="matrix(14,0,0,14,340.4,343.8)" />
<use xlink:href="#f6_ct" transform="matrix(14,0,0,14,353.6,343.8)" />
<use xlink:href="#f6_cu" transform="matrix(14,0,0,14,359.2,343.8)" />
<use xlink:href="#f6_b9" transform="matrix(14,0,0,14,364.8,343.8)" />
<use xlink:href="#f6_bb" transform="matrix(14,0,0,14,386,343.8)" />
<use xlink:href="#f6_c0" transform="matrix(14,0,0,14,398.6,343.8)" />
<use xlink:href="#f6_d8" transform="matrix(14,0,0,14,411.1,343.8)" />
<use xlink:href="#f6_by" transform="matrix(14,0,0,14,192.8,369)" />
<use xlink:href="#f6_bk" transform="matrix(14,0,0,14,206.8,369)" />
<use xlink:href="#f6_cu" transform="matrix(14,0,0,14,218.3,369)" />
<use xlink:href="#f6_b9" transform="matrix(14,0,0,14,224,369)" />
<use xlink:href="#f6_bt" transform="matrix(14,0,0,14,239.4,369)" />
<use xlink:href="#f6_d4" transform="matrix(14,0,0,14,251.3,369)" />
<use xlink:href="#f6_bp" transform="matrix(14,0,0,14,256.8,369)" />
<use xlink:href="#f6_ct" transform="matrix(14,0,0,14,269.1,369)" />
<use xlink:href="#f6_c1" transform="matrix(14,0,0,14,274.8,369)" />
<use xlink:href="#f6_ct" transform="matrix(14,0,0,14,283.1,369)" />
<use xlink:href="#f6_c8" transform="matrix(14,0,0,14,294.4,369)" />
<use xlink:href="#f6_c1" transform="matrix(14,0,0,14,310.3,369)" />
<use xlink:href="#f6_bo" transform="matrix(14,0,0,14,318.7,369)" />
<use xlink:href="#f6_d4" transform="matrix(14,0,0,14,333.2,369)" />
<use xlink:href="#f6_am" transform="matrix(14,0,0,14,338.7,369)" />
<use xlink:href="#f6_c7" transform="matrix(14,0,0,14,360.2,369)" />
<use xlink:href="#f6_cv" transform="matrix(14,0,0,14,372.3,369)" />
<use xlink:href="#f6_bb" transform="matrix(14,0,0,14,383.6,369)" />
<use xlink:href="#f6_c0" transform="matrix(14,0,0,14,396.2,369)" />
<use xlink:href="#f6_d8" transform="matrix(14,0,0,14,408.7,369)" />
<use xlink:href="#f6_pc" transform="matrix(14,0,0,14,414.3,369)" />
<use xlink:href="#f6_pc" transform="matrix(14,0,0,14,418.6,369)" />
<use xlink:href="#f6_pc" transform="matrix(14,0,0,14,422.9,369)" />
<use xlink:href="#f6_8l" transform="matrix(14,0,0,14,333,394.2)" />
<use xlink:href="#f6_pc" transform="matrix(14,0,0,14,352.8,394.2)" />
<use xlink:href="#f6_pc" transform="matrix(14,0,0,14,357.1,394.2)" />
<use xlink:href="#f6_iz" transform="matrix(14,0,0,14,361.4,394.2)" />
<use xlink:href="#f6_ct" transform="matrix(14,0,0,14,383.6,394.2)" />
<use xlink:href="#f6_dj" transform="matrix(14,0,0,14,383.8,394.6)" />
<use xlink:href="#f6_bp" transform="matrix(14,0,0,14,394.9,394.2)" />
<use xlink:href="#f6_bz" transform="matrix(14,0,0,14,407.2,394.2)" />
<use xlink:href="#f6_ct" transform="matrix(14,0,0,14,420.6,394.2)" />
<use xlink:href="#f6_c1" transform="matrix(14,0,0,14,426.2,394.2)" />
<use xlink:href="#f6_ct" transform="matrix(14,0,0,14,434.6,394.2)" />
<use xlink:href="#f6_8l" transform="matrix(14,0,0,14,334,419.4)" />
<use xlink:href="#f6_pc" transform="matrix(14,0,0,14,353.9,419.4)" />
<use xlink:href="#f6_pc" transform="matrix(14,0,0,14,358.1,419.4)" />
<use xlink:href="#f6_pc" transform="matrix(14,0,0,14,362.4,419.4)" />
<use xlink:href="#f6_am" transform="matrix(14,0,0,14,366.7,419.4)" />
<use xlink:href="#f6_dj" transform="matrix(14,0,0,14,382.7,419.8)" />
<use xlink:href="#f6_ba" transform="matrix(14,0,0,14,388.2,419.4)" />
<use xlink:href="#f6_ch" transform="matrix(14,0,0,14,404.9,419.4)" />
<use xlink:href="#f6_cv" transform="matrix(14,0,0,14,417.6,419.4)" />
<use xlink:href="#f6_bz" transform="matrix(14,0,0,14,428.8,419.4)" />
<use xlink:href="#f6_ct" transform="matrix(14,0,0,14,442.2,419.4)" />
<use xlink:href="#f6_c1" transform="matrix(14,0,0,14,447.8,419.4)" />
<use xlink:href="#f6_cv" transform="matrix(14,0,0,14,456.2,419.4)" />
<use xlink:href="#f6_be" transform="matrix(14,0,0,14,205.4,469.8)" />
<use xlink:href="#f6_ct" transform="matrix(14,0,0,14,219.4,469.8)" />
<use xlink:href="#f6_dj" transform="matrix(14,0,0,14,219.6,470.2)" />
<use xlink:href="#f6_br" transform="matrix(14,0,0,14,225,469.8)" />
<use xlink:href="#f6_bt" transform="matrix(14,0,0,14,236.7,469.8)" />
<use xlink:href="#f6_cv" transform="matrix(14,0,0,14,248.4,469.8)" />
<use xlink:href="#f6_bg" transform="matrix(14,0,0,14,259.7,469.8)" />
<use xlink:href="#f6_d4" transform="matrix(14,0,0,14,274.1,469.8)" />
<use xlink:href="#f6_cu" transform="matrix(14,0,0,14,273.9,469.8)" />
<use xlink:href="#f6_c7" transform="matrix(14,0,0,14,279.6,469.8)" />
<use xlink:href="#f6_e6" transform="matrix(14,0,0,14,297.3,469.8)" />
<use xlink:href="#f6_cu" transform="matrix(14,0,0,14,309.4,469.8)" />
<use xlink:href="#f6_bp" transform="matrix(14,0,0,14,315,469.8)" />
<use xlink:href="#f6_by" transform="matrix(14,0,0,14,327.3,469.8)" />
<use xlink:href="#f6_ct" transform="matrix(14,0,0,14,341.3,469.8)" />
<use xlink:href="#f6_am" transform="matrix(14,0,0,14,352.6,469.8)" />
<use xlink:href="#f6_bv" transform="matrix(14,0,0,14,374.1,469.8)" />
<use xlink:href="#f6_bt" transform="matrix(14,0,0,14,385.9,469.8)" />
<use xlink:href="#f6_cv" transform="matrix(14,0,0,14,397.6,469.8)" />
<use xlink:href="#f6_pc" transform="matrix(14,0,0,14,403.3,469.8)" />
<use xlink:href="#f6_pc" transform="matrix(14,0,0,14,407.5,469.8)" />
<use xlink:href="#f6_pc" transform="matrix(14,0,0,14,411.8,469.8)" />
<use xlink:href="#f6_bp" transform="matrix(14,0,0,14,195.1,495)" />
<use xlink:href="#f6_d4" transform="matrix(14,0,0,14,207.5,495)" />
<use xlink:href="#f6_bg" transform="matrix(14,0,0,14,207.4,495)" />
<use xlink:href="#f6_ax" transform="matrix(14,0,0,14,227.3,495)" />
<use xlink:href="#f6_bt" transform="matrix(14,0,0,14,239.2,495)" />
<use xlink:href="#f6_d8" transform="matrix(14,0,0,14,250.9,495)" />
<use xlink:href="#f6_be" transform="matrix(14,0,0,14,262.2,495)" />
<use xlink:href="#f6_d9" transform="matrix(14,0,0,14,276.2,495)" />
<use xlink:href="#f6_bp" transform="matrix(14,0,0,14,287.5,495)" />
<use xlink:href="#f6_c1" transform="matrix(14,0,0,14,299.8,495)" />
<use xlink:href="#f6_bw" transform="matrix(14,0,0,14,308.2,495)" />
<use xlink:href="#f6_bw" transform="matrix(14,0,0,14,329.9,495)" />
<use xlink:href="#f6_d5" transform="matrix(14,0,0,14,341.2,495)" />
<use xlink:href="#f6_c3" transform="matrix(14,0,0,14,346,495)" />
<use xlink:href="#f6_ct" transform="matrix(14,0,0,14,360.7,495)" />
<use xlink:href="#f6_c0" transform="matrix(14,0,0,14,366.3,495)" />
<use xlink:href="#f6_bf" transform="matrix(14,0,0,14,384.6,495)" />
<use xlink:href="#f6_d4" transform="matrix(14,0,0,14,399,495)" />
<use xlink:href="#f6_8l" transform="matrix(14,0,0,14,405.9,495)" />
<use xlink:href="#f6_8l" transform="matrix(14,0,0,14,330.8,520.2)" />
<use xlink:href="#f6_pc" transform="matrix(14,0,0,14,350.6,520.2)" />
<use xlink:href="#f6_pc" transform="matrix(14,0,0,14,354.9,520.2)" />
<use xlink:href="#f6_iz" transform="matrix(14,0,0,14,359.2,520.2)" />
<use xlink:href="#f6_ct" transform="matrix(14,0,0,14,381.4,520.2)" />
<use xlink:href="#f6_dj" transform="matrix(14,0,0,14,381.6,520.6)" />
<use xlink:href="#f6_bp" transform="matrix(14,0,0,14,392.7,520.2)" />
<use xlink:href="#f6_bz" transform="matrix(14,0,0,14,405,520.2)" />
<use xlink:href="#f6_ct" transform="matrix(14,0,0,14,418.3,520.2)" />
<use xlink:href="#f6_c1" transform="matrix(14,0,0,14,424,520.2)" />
<use xlink:href="#f6_ct" transform="matrix(14,0,0,14,432.3,520.2)" />
<use xlink:href="#f6_8l" transform="matrix(14,0,0,14,328.3,545.4)" />
<use xlink:href="#f6_pc" transform="matrix(14,0,0,14,348.1,545.4)" />
<use xlink:href="#f6_pc" transform="matrix(14,0,0,14,352.4,545.4)" />
<use xlink:href="#f6_pc" transform="matrix(14,0,0,14,356.7,545.4)" />
<use xlink:href="#f6_am" transform="matrix(14,0,0,14,361,545.4)" />
<use xlink:href="#f6_dj" transform="matrix(14,0,0,14,377,545.8)" />
<use xlink:href="#f6_ba" transform="matrix(14,0,0,14,382.4,545.4)" />
<use xlink:href="#f6_ch" transform="matrix(14,0,0,14,399.2,545.4)" />
<use xlink:href="#f6_cv" transform="matrix(14,0,0,14,411.8,545.4)" />
<use xlink:href="#f6_bz" transform="matrix(14,0,0,14,423.1,545.4)" />
<use xlink:href="#f6_ct" transform="matrix(14,0,0,14,436.5,545.4)" />
<use xlink:href="#f6_c1" transform="matrix(14,0,0,14,442.1,545.4)" />
<use xlink:href="#f6_cv" transform="matrix(14,0,0,14,450.5,545.4)" />
<use xlink:href="#f6_bz" transform="matrix(14,0,0,14,197.4,595.8)" />
<use xlink:href="#f6_cw" transform="matrix(14,0,0,14,211.3,595.7)" />
<use xlink:href="#f6_ba" transform="matrix(14,0,0,14,210.7,595.8)" />
<use xlink:href="#f6_bm" transform="matrix(14,0,0,14,227.4,595.8)" />
<use xlink:href="#f6_d8" transform="matrix(14,0,0,14,240.1,595.8)" />
<use xlink:href="#f6_bg" transform="matrix(14,0,0,14,251.4,595.8)" />
<use xlink:href="#f6_ct" transform="matrix(14,0,0,14,265.7,595.8)" />
<use xlink:href="#f6_bt" transform="matrix(14,0,0,14,271.3,595.8)" />
<use xlink:href="#f6_d4" transform="matrix(14,0,0,14,283.1,595.8)" />
<use xlink:href="#f6_bv" transform="matrix(14,0,0,14,288.7,595.8)" />
<use xlink:href="#f6_cx" transform="matrix(14,0,0,14,300.5,595.7)" />
<use xlink:href="#f6_bt" transform="matrix(14,0,0,14,300.5,595.8)" />
<use xlink:href="#f6_bz" transform="matrix(14,0,0,14,312.2,595.8)" />
<use xlink:href="#f6_bt" transform="matrix(14,0,0,14,331.2,595.8)" />
<use xlink:href="#f6_d8" transform="matrix(14,0,0,14,343,595.8)" />
<use xlink:href="#f6_be" transform="matrix(14,0,0,14,354.3,595.8)" />
<use xlink:href="#f6_li" transform="matrix(14,0,0,14,368.2,595.8)" />
<use xlink:href="#f6_e3" transform="matrix(14,0,0,14,373.8,595.8)" />
<use xlink:href="#f6_bz" transform="matrix(14,0,0,14,385.9,595.8)" />
<use xlink:href="#f6_ct" transform="matrix(14,0,0,14,399.2,595.8)" />
<use xlink:href="#f6_pc" transform="matrix(14,0,0,14,410.5,595.8)" />
<use xlink:href="#f6_pc" transform="matrix(14,0,0,14,414.8,595.8)" />
<use xlink:href="#f6_pc" transform="matrix(14,0,0,14,419,595.8)" />
<use xlink:href="#f6_cu" transform="matrix(14,0,0,14,189.4,621)" />
<use xlink:href="#f6_br" transform="matrix(14,0,0,14,195,621)" />
<use xlink:href="#f6_c3" transform="matrix(14,0,0,14,206.7,621)" />
<use xlink:href="#f6_bz" transform="matrix(14,0,0,14,221.4,621)" />
<use xlink:href="#f6_ct" transform="matrix(14,0,0,14,234.7,621)" />
<use xlink:href="#f6_bp" transform="matrix(14,0,0,14,240.3,621)" />
<use xlink:href="#f6_d8" transform="matrix(14,0,0,14,252.6,621)" />
<use xlink:href="#f6_bl" transform="matrix(14,0,0,14,263.9,621)" />
<use xlink:href="#f6_dj" transform="matrix(14,0,0,14,271.7,621.5)" />
<use xlink:href="#f6_bm" transform="matrix(14,0,0,14,276.3,621)" />
<use xlink:href="#f6_b9" transform="matrix(14,0,0,14,289,621)" />
<use xlink:href="#f6_al" transform="matrix(14,0,0,14,310.1,621)" />
<use xlink:href="#f6_bt" transform="matrix(14,0,0,14,326,621)" />
<use xlink:href="#f6_d4" transform="matrix(14,0,0,14,337.8,621)" />
<use xlink:href="#f6_c1" transform="matrix(14,0,0,14,337.7,621)" />
<use xlink:href="#f6_cv" transform="matrix(14,0,0,14,346.1,621)" />
<use xlink:href="#f6_bl" transform="matrix(14,0,0,14,357.4,621)" />
<use xlink:href="#f6_ct" transform="matrix(14,0,0,14,369.7,621)" />
<use xlink:href="#f6_c0" transform="matrix(14,0,0,14,375.3,621)" />
<use xlink:href="#f6_bf" transform="matrix(14,0,0,14,393.6,621)" />
<use xlink:href="#f6_d4" transform="matrix(14,0,0,14,408,621)" />
<use xlink:href="#f6_pc" transform="matrix(14,0,0,14,414.9,621)" />
<use xlink:href="#f6_pc" transform="matrix(14,0,0,14,419.2,621)" />
<use xlink:href="#f6_pc" transform="matrix(14,0,0,14,423.5,621)" />
<use xlink:href="#f6_pc" transform="matrix(14,0,0,14,427.8,621)" />
<use xlink:href="#f6_8l" transform="matrix(14,0,0,14,333,646.3)" />
<use xlink:href="#f6_pc" transform="matrix(14,0,0,14,352.8,646.3)" />
<use xlink:href="#f6_pc" transform="matrix(14,0,0,14,357.1,646.3)" />
<use xlink:href="#f6_iz" transform="matrix(14,0,0,14,361.4,646.3)" />
<use xlink:href="#f6_ct" transform="matrix(14,0,0,14,383.6,646.3)" />
<use xlink:href="#f6_dj" transform="matrix(14,0,0,14,383.8,646.7)" />
<use xlink:href="#f6_bp" transform="matrix(14,0,0,14,394.9,646.3)" />
<use xlink:href="#f6_bz" transform="matrix(14,0,0,14,407.2,646.3)" />
<use xlink:href="#f6_ct" transform="matrix(14,0,0,14,420.6,646.3)" />
<use xlink:href="#f6_c1" transform="matrix(14,0,0,14,426.2,646.3)" />
<use xlink:href="#f6_ct" transform="matrix(14,0,0,14,434.6,646.3)" />
<use xlink:href="#f6_8l" transform="matrix(14,0,0,14,334,671.5)" />
<use xlink:href="#f6_pc" transform="matrix(14,0,0,14,353.9,671.5)" />
<use xlink:href="#f6_pc" transform="matrix(14,0,0,14,358.1,671.5)" />
<use xlink:href="#f6_pc" transform="matrix(14,0,0,14,362.4,671.5)" />
<use xlink:href="#f6_am" transform="matrix(14,0,0,14,366.7,671.5)" />
<use xlink:href="#f6_dj" transform="matrix(14,0,0,14,382.7,671.9)" />
<use xlink:href="#f6_ba" transform="matrix(14,0,0,14,388.2,671.5)" />
<use xlink:href="#f6_ch" transform="matrix(14,0,0,14,404.9,671.5)" />
<use xlink:href="#f6_cv" transform="matrix(14,0,0,14,417.6,671.5)" />
<use xlink:href="#f6_bz" transform="matrix(14,0,0,14,428.8,671.5)" />
<use xlink:href="#f6_ct" transform="matrix(14,0,0,14,442.2,671.5)" />
<use xlink:href="#f6_c1" transform="matrix(14,0,0,14,447.8,671.5)" />
<use xlink:href="#f6_cv" transform="matrix(14,0,0,14,456.2,671.5)" />
<use xlink:href="#f7_4r" transform="matrix(9,0,0,9,290.2,795.2)" />
<use xlink:href="#f8_l" transform="matrix(9,0,0,9,303,795.2)" />
<use xlink:href="#f8_s" transform="matrix(9,0,0,9,310.7,795.2)" />
<use xlink:href="#f7_4r" transform="matrix(9,0,0,9,321.3,795.2)" />
</g>
</g>
<image preserveAspectRatio="none" x="22" y="801" width="581" height="86" xlink:href="img/1.png"/>
<path d="M183.3,83.6H438.9v1.2H183.3V83.6Z" class="g1_24"/>
<image preserveAspectRatio="none" x="202" y="14" width="217" height="26" xlink:href="img/2.png"/>
<defs>
<path d="M1128,-65L953,29V322c0,0,-23,-9,-52,-9c0,0,-47,0,-102,25c0,0,11,-42,11,-83c0,0,0,-116,-78,-192c0,0,-78,-76,-203,-76c0,0,-129,0,-261,94c0,0,-132,95,-244,339l123,78c0,0,70,-150,146,-225c0,0,75,-76,168,-76c0,0,72,0,113,40c0,0,42,40,42,90c0,0,0,84,-77,115L387,350L249,556c0,0,86,77,199,83c0,0,119,73,119,163c0,0,0,25,-15,40c0,0,-4,0,-10,0c-19,0,-67,-3,-124,-33c0,0,-76,-39,-146,-106L142,872c0,0,61,65,140,107c0,0,79,42,158,42c0,0,121,0,216,-91c0,0,96,-91,96,-197c0,0,0,-96,-84,-186c0,0,62,-46,142,-46c0,0,88,0,143,52V822H834L749,937l32,64h994l86,-115l-32,-64H1557l102,-73V-31l-70,-34L1415,29V822H1095l103,-73V-31l-70,-34Z"
id="f5_am"
transform="scale(0.001,-0.001)"/>

<path d="M0,1102c0,0,-40,16,-91,55c0,0,-52,39,-79,76c0,0,59,119,137,165c0,0,42,-15,89,-54c0,0,46,-39,74,-76c0,0,-17,-44,-54,-92c0,0,-38,-48,-76,-74Z"
id="f5_dj"
transform="scale(0.001,-0.001)"/>

<path d="M827,354c0,0,102,0,166,84V548c0,0,-46,19,-87,19c0,0,-67,0,-106,-41c0,0,-39,-42,-39,-95c0,0,0,-43,24,-72l42,-5ZM712,107c0,0,168,0,281,81v17c0,0,-29,-9,-69,-9c0,0,-140,0,-256,88c0,0,-115,89,-115,213c0,0,0,99,70,171c0,0,69,71,173,71l64,-7L993,651V822H440L544,749V550c0,0,0,-66,-28,-111c0,0,-27,-45,-96,-95L342,287c0,0,58,-87,158,-133c0,0,99,-47,212,-47ZM733,-71c0,0,-215,0,-405,134C328,63,139,197,44,420L96,542l203,-1l4,14V822H0L-86,937l32,64H1354l85,-115l-32,-64H1135l103,-73V-31l-71,-34L1033,8c0,0,-122,-79,-300,-79Z"
id="f5_ba"
transform="scale(0.001,-0.001)"/>

<path d="M550,-407c0,0,-38,15,-87,52c0,0,-49,37,-73,72c0,0,56,113,129,157c0,0,84,-32,156,-124c0,0,-17,-44,-52,-88c0,0,-35,-44,-73,-69Zm23,306c0,0,-296,0,-555,382l104,86c0,0,167,-260,381,-260c0,0,87,0,151,46c0,0,64,46,63,113L489,194c0,0,-167,54,-273,152c0,0,-106,99,-106,206c0,0,0,87,72,142c0,0,72,55,211,55H588v73H0L-86,937l32,64H949l85,-115l-32,-64H706L808,749V545H445c0,0,-127,0,-127,-64c0,0,0,-35,38,-62l278,64c0,0,125,-43,193,-130c0,0,67,-87,67,-182c0,0,0,-116,-91,-194c0,0,-91,-78,-230,-78Z"
id="f5_ch"
transform="scale(0.001,-0.001)"/>

<path d="M277,-65L102,29V822H0L-86,937l32,64H110c0,0,-50,142,-110,226c0,0,-60,84,-149,84c0,0,-59,0,-97,-37c0,0,-39,-36,-39,-91c0,0,0,-57,42,-115l-95,-50c0,0,-145,116,-145,267c0,0,0,108,75,179c0,0,76,70,195,70c0,0,179,0,297,-150c0,0,119,-150,189,-383H463L548,886L516,822H244L347,749V-31L277,-65Z"
id="f5_cv"
transform="scale(0.001,-0.001)"/>

<path d="M686,512V822H333L435,749l2,-237ZM860,-65L686,29V298H440V168L348,118c0,0,-90,30,-190,128c0,0,-100,98,-127,183l52,83H203L189,822H0L-86,937l32,64H1045l86,-115l-33,-64H828L930,749V-31L860,-65Z"
id="f5_bz"
transform="scale(0.001,-0.001)"/>

<path d="M277,-65L102,29V822H0L-86,937l32,64H463L548,886L516,822H244L347,749V-31L277,-65Z"
id="f5_ct"
transform="scale(0.001,-0.001)"/>

<path d="M545,-97L35,405L87,542H295c0,0,1,5,1,280H0L-86,937l32,64H729L814,886L782,822H445L550,749V547c0,0,0,-75,-41,-127c0,0,-41,-52,-129,-111L709,110V41L545,-97Z"
id="f5_c1"
transform="scale(0.001,-0.001)"/>

<path d="M442,376c0,0,123,0,186,113V822H264L368,749V403c0,0,28,-27,74,-27ZM238,-86L67,53L339,241c0,0,-95,55,-161,148c0,0,-66,92,-68,178V822H0L-86,937l32,64H987l86,-115l-33,-64H770L872,749V-31L802,-65L628,29V206L238,-86Z"
id="f5_e6"
transform="scale(0.001,-0.001)"/>

<path d="M874,-65L700,29V309H513V173L422,122c0,0,-90,31,-191,129c0,0,-100,97,-127,184l52,81H277l-2,240c0,0,0,77,-26,109c0,0,-1,0,-2,0c-8,0,-44,-1,-70,-22c0,0,-29,-24,-29,-61c0,0,0,-53,64,-101L125,610c0,0,-174,117,-174,238c0,0,0,78,57,133c0,0,59,55,146,55c0,0,132,0,244,-112c0,0,112,-113,112,-246V516H700V822H655L570,937l32,64h458l86,-115l-32,-64H842L944,749V-31L874,-65Z"
id="f5_by"
transform="scale(0.001,-0.001)"/>

<path d="M-272,-497c0,0,-249,0,-541,361l105,97c0,0,154,-169,229,-220c0,0,75,-50,145,-50c0,0,68,0,110,38c0,0,43,38,43,90c0,0,0,49,-41,86L-367,-234L-517,-89c0,0,38,66,99,102c0,0,62,37,129,37c0,0,113,0,200,-92c0,0,87,-93,87,-209c0,0,0,-105,-77,-176c0,0,-77,-70,-193,-70Z"
id="f5_cw"
transform="scale(0.001,-0.001)"/>

<path d="M756,-314c0,0,-304,57,-481,187C275,-127,98,2,98,170c0,0,0,117,82,197c0,0,-110,91,-110,195c0,0,0,74,64,127c0,0,63,54,188,54H567v79H0L-86,937l32,64H906L992,886L959,822H684L787,749V535H383c0,0,-110,0,-110,-67c0,0,0,-19,10,-36c0,0,78,32,174,32c0,0,162,0,277,-87c0,0,115,-87,115,-214c0,0,0,-143,-142,-228L518,76c0,0,125,94,145,173c0,0,-55,26,-113,26c0,0,-84,0,-144,-45c0,0,-59,-45,-59,-118c0,0,0,-107,121,-166c0,0,120,-60,336,-105L756,-314Z"
id="f5_cc"
transform="scale(0.001,-0.001)"/>

<path d="M368,290c0,0,83,0,161,44c0,0,78,43,116,117V822H382c0,0,136,-107,136,-225c0,0,0,-74,-55,-131c0,0,-55,-57,-165,-83c0,0,15,-48,44,-91l26,-2ZM819,-65L645,29V139c0,0,-60,-31,-130,-31c0,0,-145,0,-279,109c0,0,-134,108,-208,287l29,78c0,0,128,15,181,43c0,0,54,27,54,73c0,0,0,61,-96,124H0L-86,937l32,64H1004l87,-115l-32,-64H787L889,749V-31L819,-65Z"
id="f5_c0"
transform="scale(0.001,-0.001)"/>

<path d="M923,312c0,0,35,73,35,151c0,0,0,95,-32,130c0,0,-18,6,-37,6c0,0,-40,0,-63,-30c0,0,-24,-30,-24,-74c0,0,0,-119,121,-183ZM634,-120c0,0,-179,0,-315,103c0,0,-137,101,-137,234c0,0,0,49,24,98C206,315,28,420,28,561c0,0,0,79,61,136c0,0,61,58,178,58H420L521,607L487,544H370c0,0,-129,0,-129,-72c0,0,0,-38,48,-72c0,0,73,43,163,43c0,0,54,0,101,-12L655,270L607,208c0,0,-45,15,-84,15c0,0,-52,0,-85,-26c0,0,-32,-26,-32,-64c0,0,0,-43,29,-66c0,0,36,-9,71,-9c0,0,113,0,207,45c0,0,94,45,156,122c0,0,-125,62,-204,149c0,0,-78,87,-78,178c0,0,0,74,54,133c0,0,54,59,135,73v64H0L-86,937l32,64H1202l87,-115l-32,-64H894L996,749V698c0,0,72,-53,114,-140c0,0,42,-87,42,-187c0,0,0,-125,-67,-239c0,0,-67,-114,-187,-182c0,0,-119,-70,-264,-70Z"
id="f5_bf"
transform="scale(0.001,-0.001)"/>

<path d="M-289,908l-132,216c0,0,-70,120,-169,120c0,0,-83,0,-200,-80l-130,249c0,0,125,78,234,78c0,0,187,0,349,-241L-159,969L-289,908Z"
id="f5_d4"
transform="scale(0.001,-0.001)"/>

<path d="M315,-63c0,0,-42,17,-92,55c0,0,-50,37,-76,74c0,0,61,120,136,165c0,0,91,-38,160,-130C443,101,405,-2,315,-63Z"
id="f5_pc"
transform="scale(0.001,-0.001)"/>

<path d="M959,-49L869,8V367c0,0,-32,-13,-64,-13c0,0,-50,0,-110,25c0,0,23,-52,23,-109c0,0,0,-103,-70,-170c0,0,-70,-66,-182,-66c0,0,-110,0,-222,82c0,0,-111,83,-213,293l68,42c0,0,72,-155,152,-231c0,0,81,-76,178,-76c0,0,83,0,131,49c0,0,48,48,48,117c0,0,0,54,-30,100c0,0,-31,47,-91,65L325,391L257,512c0,0,68,53,156,56c0,0,140,72,140,179c0,0,0,69,-52,99c0,0,-4,1,-11,1c-19,0,-66,-4,-123,-30c0,0,-78,-35,-142,-96L150,823c0,0,119,117,253,117c0,0,98,0,175,-71c0,0,77,-70,77,-159c0,0,0,-103,-94,-180c0,0,39,-23,73,-56c0,0,52,-22,109,-22c0,0,77,0,126,38V822H727l-46,76l14,31h840l46,-76l-13,-31H1332l66,-58V-39l-37,-10L1271,8V822H930l66,-58V-39L959,-49Z"
id="f6_am"
transform="scale(0.001,-0.001)"/>

<path d="M0,1062c0,0,-26,11,-60,36c0,0,-34,26,-51,49c0,0,39,81,91,110c0,0,60,-23,106,-85c0,0,-28,-70,-86,-110Z"
id="f6_dj"
transform="scale(0.001,-0.001)"/>

<path d="M761,293c0,0,127,0,169,94V532c0,0,-68,46,-145,46c0,0,-76,0,-121,-46c0,0,-45,-45,-45,-107c0,0,0,-61,44,-110c0,0,47,-22,98,-22ZM657,67c0,0,166,0,273,107v55c0,0,-45,-36,-111,-36c0,0,-110,0,-207,90c0,0,-97,90,-97,194c0,0,0,85,66,148c0,0,65,63,155,63l48,-5L930,603V822H376l62,-55V579c0,0,0,-60,-23,-102c0,0,-24,-42,-148,-190c0,0,66,-104,175,-162c0,0,108,-58,215,-58ZM1021,-49L930,8V53c0,0,-105,-83,-264,-83c0,0,-177,0,-339,128C327,98,165,226,90,429l34,77H296c0,0,19,39,19,102l-2,214H0l-45,76l14,31H1195l46,-76l-14,-31H992l65,-58V-39l-36,-10Z"
id="f6_ba"
transform="scale(0.001,-0.001)"/>

<path d="M547,-285c0,0,-66,25,-102,80c0,0,32,69,82,101c0,0,55,-20,99,-80c0,0,-26,-67,-79,-101Zm1,228c0,0,-122,0,-243,81c0,0,-122,81,-252,280l57,41C110,345,283,64,498,64c0,0,92,0,153,49c0,0,61,49,61,121c0,0,0,46,-28,84L440,237c0,0,-73,11,-139,55c0,0,-66,44,-105,105c0,0,-40,61,-40,119c0,0,0,72,62,125c0,0,62,53,184,53H625V822H0l-45,76l14,31H906l46,-76L938,822H678l66,-58V562H431c0,0,-164,0,-164,-99c0,0,0,-55,57,-102l261,82c0,0,104,-21,172,-98c0,0,68,-78,68,-171c0,0,0,-99,-76,-166c0,0,-77,-65,-201,-65Z"
id="f6_ch"
transform="scale(0.001,-0.001)"/>

<path d="M228,-49L138,8V822H0l-45,76l14,31H138c0,0,-109,342,-284,342c0,0,-62,0,-102,-40c0,0,-40,-39,-40,-93c0,0,0,-61,51,-134l-42,-32c0,0,-128,113,-128,226c0,0,0,79,60,136c0,0,61,56,154,56c0,0,137,0,249,-125c0,0,112,-125,169,-336H402l46,-76L434,822H199l65,-58V-39L228,-49Z"
id="f6_cv"
transform="scale(0.001,-0.001)"/>

<path d="M689,445V822H286l65,-58l8,-319ZM779,-49L689,8V328H370V180L296,150c0,0,-56,35,-120,104c0,0,-63,70,-89,131l41,60H238L223,822H0l-45,76l14,31H953l46,-76L985,822H750l66,-58V-39L779,-49Z"
id="f6_bz"
transform="scale(0.001,-0.001)"/>

<path d="M228,-49L138,8V822H0l-45,76l14,31H402l46,-76L434,822H199l65,-58V-39L228,-49Z"
id="f6_ct"
transform="scale(0.001,-0.001)"/>

<path d="M527,-71L52,414l34,92H277c0,0,12,32,12,72V822H0l-45,76l14,31H599l46,-76L631,822H350l66,-55V564c0,0,0,-96,-152,-248L610,34L611,8L527,-71Z"
id="f6_c1"
transform="scale(0.001,-0.001)"/>

<path d="M396,318c0,0,123,0,203,108V822H180l66,-58V408c0,0,49,-90,150,-90ZM176,-66L79,9L379,228c0,0,-106,23,-181,119c0,0,-76,96,-79,198V822H0l-45,76l14,31H863l46,-76L895,822H660l66,-58V-39L689,-49L599,8V269L176,-66Z"
id="f6_e6"
transform="scale(0.001,-0.001)"/>

<path d="M823,-49L733,8V339H445V191L371,160c0,0,-56,36,-120,105c0,0,-63,70,-89,131l41,59H313V735c0,0,0,99,-55,140c0,0,-3,1,-8,1c-16,0,-48,-3,-71,-23c0,0,-31,-26,-31,-66c0,0,0,-69,81,-113L189,620C189,620,31,720,31,828c0,0,0,61,45,99c0,0,46,37,109,37c0,0,96,0,173,-86c0,0,76,-87,79,-194V455H733V822H556l-46,76l14,31H998l45,-76l-13,-31H794l66,-58V-39L823,-49Z"
id="f6_by"
transform="scale(0.001,-0.001)"/>

<path d="M-234,-413c0,0,-210,0,-488,322l54,49c0,0,119,-128,209,-193c0,0,90,-65,177,-65c0,0,72,0,113,40c0,0,42,39,42,91c0,0,0,75,-78,106L-323,-181l-90,98c0,0,63,95,167,95c0,0,90,0,155,-69c0,0,66,-70,66,-164c0,0,0,-85,-60,-139c0,0,-61,-53,-149,-53Z"
id="f6_cw"
transform="scale(0.001,-0.001)"/>

<path d="M688,-243c0,0,-256,53,-408,173c0,0,-152,119,-152,270c0,0,0,101,68,171c0,0,-101,84,-101,179c0,0,0,64,53,112c0,0,54,47,191,47H587V822H0l-45,76l14,31H830l45,-76L862,822H640l66,-58V585H362c0,0,-159,-1,-159,-92c0,0,0,-41,46,-80c0,0,76,47,183,47c0,0,135,0,230,-76c0,0,96,-75,96,-187C758,197,758,67,629,2L545,104c0,0,49,30,81,75c0,0,32,44,32,82c0,0,0,16,-4,26c0,0,-64,58,-167,58c0,0,-97,0,-166,-50v-2c0,0,-67,-52,-67,-131c0,0,0,-116,132,-199c0,0,132,-84,334,-132l-32,-74Z"
id="f6_cc"
transform="scale(0.001,-0.001)"/>

<path d="M374,248c0,0,77,0,149,36c0,0,71,37,110,107V822H284c0,0,138,-96,138,-208c0,0,0,-151,-228,-192c0,0,29,-104,89,-158c0,0,41,-16,91,-16ZM723,-49L633,8V200c0,0,-69,-56,-170,-56c0,0,-122,0,-240,94c0,0,-118,94,-179,237l20,55c0,0,133,17,187,44c0,0,55,28,55,84c0,0,0,45,-30,81c0,0,-30,36,-99,83H0l-45,76l14,31H897l46,-76L929,822H694l65,-58V-39L723,-49Z"
id="f6_c0"
transform="scale(0.001,-0.001)"/>

<path d="M900,298c0,0,32,73,32,159c0,0,0,110,-38,160c0,0,-40,31,-81,31c0,0,-48,0,-80,-35c0,0,-33,-35,-33,-89c0,0,0,-118,200,-226ZM588,-60c0,0,-154,0,-274,93c0,0,-120,94,-120,207c0,0,0,50,28,92C222,332,61,440,61,552c0,0,0,71,56,122c0,0,56,50,169,50H417l64,-98L463,600H333c0,0,-157,-1,-157,-99c0,0,0,-59,88,-124c0,0,68,52,164,52c0,0,38,0,79,-9l71,-88L558,299c0,0,-46,10,-81,10c0,0,-75,0,-116,-36c0,0,-40,-36,-40,-88c0,0,0,-78,73,-130c0,0,54,-17,109,-17c0,0,114,0,211,54c0,0,97,53,154,145c0,0,-156,96,-223,173c0,0,-67,77,-67,155c0,0,0,72,48,124c0,0,48,52,126,55v78H0l-45,76l14,31H1123l46,-76l-14,-31H805l66,-58V717c0,0,76,-40,124,-124c0,0,47,-84,47,-193c0,0,0,-188,-133,-324C909,76,776,-60,588,-60Z"
id="f6_bf"
transform="scale(0.001,-0.001)"/>

<path d="M-214,863l-199,281c0,0,-70,92,-157,92c0,0,-69,0,-159,-58l-72,118c0,0,89,73,180,73c0,0,141,0,258,-170L-155,901l-59,-38Z"
id="f6_d4"
transform="scale(0.001,-0.001)"/>

<path d="M226,-49c0,0,-66,24,-102,78c0,0,32,69,82,101c0,0,55,-20,100,-80c0,0,-26,-66,-80,-99Z"
id="f6_pc"
transform="scale(0.001,-0.001)"/>

<path d="M290,-236c0,0,-253,348,-253,685c0,0,0,342,270,669l80,-39c0,0,-207,-311,-207,-622c0,0,0,-326,193,-652l-83,-41Z"
id="f6_g"
transform="scale(0.001,-0.001)"/>

<path d="M634,-49L249,296c0,0,-1,0,-3,0c-11,0,-48,1,-90,15c0,0,-51,16,-67,36l49,165l50,12l84,-98c0,0,125,31,191,104c0,0,66,73,66,165c0,0,0,109,-95,170c0,0,-2,0,-6,0C397,865,262,858,121,738L46,848c0,0,52,47,127,82c0,0,75,34,152,34c0,0,130,0,226,-94c0,0,95,-94,95,-218c0,0,0,-107,-77,-199c0,0,-77,-92,-216,-134L697,26L698,0L634,-49Z"
id="f6_n8"
transform="scale(0.001,-0.001)"/>

<path d="M130,-236l-83,41c0,0,193,326,193,652c0,0,0,311,-206,622l79,39c0,0,270,-327,270,-669c0,0,0,-337,-253,-685Z"
id="f6_h"
transform="scale(0.001,-0.001)"/>

<path d="M1066,248c0,0,77,0,149,36c0,0,71,37,110,107V822H976c0,0,138,-96,138,-208c0,0,0,-151,-228,-192c0,0,29,-104,89,-158c0,0,41,-16,91,-16ZM1415,-49L1325,8V200c0,0,-69,-56,-170,-56c0,0,-121,0,-238,91c0,0,-116,92,-178,233c0,0,-22,19,-51,25c0,0,-28,5,-191,5c0,0,61,-47,93,-111c0,0,33,-63,33,-126c0,0,0,-85,-58,-142c0,0,-59,-56,-148,-56c0,0,-130,0,-230,139C187,202,87,341,20,581l76,24c0,0,60,-202,127,-306c0,0,67,-105,160,-105c0,0,57,0,91,36c0,0,33,36,33,91c0,0,0,84,-73,159L295,542v72H542c0,0,112,0,168,-14c0,0,55,-15,97,-62c0,0,102,15,146,42c0,0,45,27,45,78c0,0,0,45,-30,81c0,0,-30,36,-99,83H0l-45,76l14,31H1589l46,-76l-14,-31H1386l65,-58V-39l-36,-10Z"
id="f6_iz"
transform="scale(0.001,-0.001)"/>

<path d="M347,-57C347,-57,66,211,66,394c0,0,0,98,74,164c0,0,74,65,225,65H616V822H0l-45,76l14,31H880l46,-76L912,822H677l66,-58V-39L706,-49L616,8V500H428c0,0,-239,0,-239,-161c0,0,0,-136,214,-343L347,-57Z"
id="f6_bp"
transform="scale(0.001,-0.001)"/>

<path d="M663,-49L573,8V445H299V280L226,251c0,0,-105,99,-162,238l63,72H573V822H0l-45,76l14,31H837l46,-76L869,822H634l66,-58V-39L663,-49Z"
id="f6_bt"
transform="scale(0.001,-0.001)"/>

<path d="M675,-274L602,21C602,21,550,3,498,3C498,3,347,3,210,118C210,118,73,232,73,373c0,0,0,113,84,184c0,0,84,71,222,72H524V822H0l-45,76l14,31H834l46,-76L866,822H585l66,-58V504l-3,2l3,-3H408c0,0,-95,0,-154,-53c0,0,-58,-53,-58,-132c0,0,0,-49,27,-100c0,0,28,-50,83,-84c0,0,44,-15,96,-15c0,0,91,0,160,46L535,303l101,48L773,188c0,0,-8,-28,-34,-66c0,0,-27,-38,-62,-64L813,-221L675,-274Z"
id="f6_br"
transform="scale(0.001,-0.001)"/>

<path d="M513,460c0,0,61,81,61,179c0,0,0,87,-45,143c0,0,-45,57,-116,57c0,0,-63,0,-102,-43c0,0,-39,-43,-39,-110c0,0,0,-90,68,-151c0,0,68,-61,173,-75ZM581,-83L278,167l-41,-4c0,0,-99,0,-130,37l47,168l51,12l78,-79c0,0,110,40,183,105c0,0,-141,23,-231,107c0,0,-90,84,-90,193c0,0,0,69,37,116H0l-45,76l14,31H1134l45,-76l-13,-31H930l66,-58V-39L959,-49L869,8V822H588c0,0,51,-44,75,-109c0,0,25,-64,25,-122c0,0,0,-105,-81,-213c0,0,-80,-108,-240,-176L658,18l2,-25L581,-83Z"
id="f6_c8"
transform="scale(0.001,-0.001)"/>

<path d="M-239,897c0,0,-82,61,-132,137c0,0,-50,75,-50,150c0,0,0,78,52,133c0,0,52,55,141,55c0,0,98,0,176,-64l-23,-69c0,0,-52,32,-104,32c0,0,-57,0,-95,-36c0,0,-38,-36,-38,-95c0,0,0,-115,117,-217l-44,-26Z"
id="f6_dr"
transform="scale(0.001,-0.001)"/>

<path d="M768,-49L678,8V202c0,0,-73,-58,-172,-58c0,0,-123,0,-240,94c0,0,-118,94,-179,237l20,55c0,0,134,12,215,70c0,0,81,57,81,141c0,0,0,90,-67,134l-26,3c0,0,-46,0,-74,-29c0,0,-28,-30,-28,-68c0,0,0,-55,82,-109L252,620C252,620,93,720,93,820c0,0,0,65,47,104c0,0,46,40,114,40c0,0,99,0,179,-83c0,0,80,-83,82,-197c0,0,0,-93,-79,-165c0,0,-78,-73,-199,-97c0,0,29,-104,88,-158c0,0,42,-16,92,-16c0,0,78,0,151,38c0,0,74,38,110,111V822H553l-46,76l14,31H943l45,-76L975,822H739l66,-58V-39L768,-49Z"
id="f6_bq"
transform="scale(0.001,-0.001)"/>

<path d="M95,0L67,98L422,497c0,0,130,154,130,259c0,0,0,63,-40,111c0,0,-40,48,-121,48c0,0,-75,0,-171,-29L193,695l-88,2c0,0,-13,82,-13,165l1,65c0,0,159,97,315,97c0,0,122,0,207,-78c0,0,85,-77,85,-193c0,0,0,-67,-34,-133c0,0,-33,-67,-165,-217L237,121l4,-14l373,21l49,136l83,-12C746,252,732,99,704,0Z"
id="f6_q"
transform="scale(0.001,-0.001)"/>

<path d="M254,-26c0,0,-84,16,-116,92c0,0,13,84,97,127c0,0,100,-36,112,-110C347,83,324,6,254,-26Zm458,0c0,0,-84,16,-116,92c0,0,14,84,98,127c0,0,99,-37,111,-110C805,83,782,6,712,-26Zm458,0c0,0,-84,16,-116,92c0,0,14,84,98,127c0,0,99,-36,111,-110c0,0,-22,-77,-93,-109Z"
id="f6_8l"
transform="scale(0.001,-0.001)"/>

<path d="M325,240c0,0,77,0,154,35c0,0,77,35,120,99V500c0,0,-118,73,-222,73c0,0,-97,0,-151,-54c0,0,-53,-53,-53,-128c0,0,0,-73,49,-125c0,0,38,-26,103,-26ZM689,-49L599,8V199c0,0,-73,-65,-179,-65c0,0,-134,0,-252,96c0,0,-118,95,-118,221c0,0,0,102,78,171c0,0,78,69,190,69c0,0,38,0,75,-10L599,582V822H0l-45,76l14,31H863l46,-76L895,822H660l66,-58V-39L689,-49Z"
id="f6_c7"
transform="scale(0.001,-0.001)"/>

<path d="M228,-49L138,8V822H0l-45,76l14,31H134c0,0,-91,92,-91,191c0,0,0,105,85,170c0,0,84,65,219,65c0,0,128,0,293,-76c0,0,165,-77,362,-263L958,966c0,0,-177,143,-303,210c0,0,-125,68,-244,68c0,0,-107,0,-175,-50c0,0,-68,-50,-68,-131c0,0,0,-61,49,-134H402l46,-76L434,822H199l65,-58V-39L228,-49Z"
id="f6_cu"
transform="scale(0.001,-0.001)"/>

<path d="M845,-49L755,8V513H497c0,0,61,-45,93,-110c0,0,33,-64,33,-128c0,0,0,-90,-58,-144c0,0,-59,-53,-143,-53c0,0,-133,0,-234,139C188,217,87,356,20,596l76,24c0,0,60,-201,127,-306c0,0,67,-105,160,-105c0,0,57,0,91,36c0,0,33,36,33,91c0,0,0,84,-73,159L295,558v71H755V822H0l-45,76l14,31H1019l46,-76l-14,-31H816l66,-58V-39L845,-49Z"
id="f6_bg"
transform="scale(0.001,-0.001)"/>

<path d="M342,324c0,0,45,0,75,34c0,0,31,33,31,100V822H165l66,-58V390c0,0,32,-66,111,-66ZM853,-49L762,8V822H509l65,-58V455c0,0,0,-134,-51,-185c0,0,-52,-52,-127,-52c0,0,-98,0,-195,99c0,0,-97,99,-97,209V822H0l-45,76l14,31H1027l46,-76l-14,-31H823l66,-58V-39L853,-49Z"
id="f6_bo"
transform="scale(0.001,-0.001)"/>

<path d="M471,-26c0,0,-259,0,-448,396l70,43C93,413,240,98,442,98c0,0,79,0,132,46c0,0,54,45,54,120c0,0,0,61,-38,116c0,0,-38,54,-107,72L322,370L255,492c0,0,66,53,156,56c0,0,128,51,128,153c0,0,0,77,-65,121H0l-45,76l14,31H1123l46,-76l-14,-31H578c0,0,76,-66,76,-157c0,0,0,-95,-87,-156c0,0,52,-29,84,-64c0,0,131,134,243,134c0,0,93,0,158,-70c0,0,65,-71,65,-167c0,0,0,-142,-177,-272L851,170c0,0,173,129,173,230c0,0,0,34,-23,57c0,0,-23,23,-63,23c0,0,-104,0,-215,-141c0,0,23,-55,23,-111c0,0,0,-109,-78,-182c0,0,-78,-72,-197,-72Z"
id="f6_aq"
transform="scale(0.001,-0.001)"/>

<path d="M-135,1016c0,0,-61,23,-101,78c0,0,32,69,81,99c0,0,51,-18,98,-78c0,0,-24,-64,-78,-99ZM-239,897c0,0,-82,61,-132,137c0,0,-50,75,-50,150c0,0,0,78,52,133c0,0,52,55,141,55c0,0,98,0,176,-64l-23,-69c0,0,-52,32,-104,32c0,0,-57,0,-95,-36c0,0,-38,-36,-38,-95c0,0,0,-115,117,-217l-44,-26Z"
id="f6_op"
transform="scale(0.001,-0.001)"/>

<path d="M830,-253l-123,66c0,0,31,47,31,78c0,0,0,44,-64,84L353,130c0,0,-234,113,-234,325V822H0l-45,76l14,31H848l46,-76L880,822H655l68,-58V561c0,0,0,-176,-41,-241c0,0,-40,-65,-161,-106l-49,82l124,69V822H180l66,-58V283L646,92c0,0,126,-60,176,-110c0,0,50,-51,50,-115c0,0,0,-62,-42,-120Z"
id="f6_ax"
transform="scale(0.001,-0.001)"/>

<path d="M388,325c0,0,58,0,112,31c0,0,53,31,84,86V822H165l69,-58V408c0,0,47,-83,154,-83ZM674,-49L584,8V257c0,0,-61,-51,-141,-51c0,0,-125,0,-232,109c0,0,-107,108,-107,243V822H0l-45,76l14,31H848l46,-76L880,822H645l65,-58V-39L674,-49Z"
id="f6_bv"
transform="scale(0.001,-0.001)"/>

<path d="M228,-49L138,8V822H0l-45,76l14,31H119L-33,1144c0,0,-70,92,-157,92c0,0,-69,0,-159,-58l-72,118c0,0,89,73,181,73c0,0,140,0,257,-170L205,929H402l46,-76L434,822H199l65,-58V-39L228,-49Z"
id="f6_d8"
transform="scale(0.001,-0.001)"/>

<path d="M799,475V822H350l66,-55V564c0,0,0,-43,-25,-89ZM527,-71L52,414l34,92H277c0,0,12,32,12,72V822H0l-45,76l14,31H1063l46,-76l-14,-31H860l66,-58V-39L889,-49L799,8V370H315L264,316L610,34L611,8L527,-71Z"
id="f6_cb"
transform="scale(0.001,-0.001)"/>

<path d="M283,260c0,0,122,0,209,113V513c0,0,-90,51,-160,51c0,0,-80,0,-129,-50c0,0,-49,-50,-49,-118c0,0,0,-60,35,-110c0,0,45,-26,94,-26ZM582,-49L492,8V211c0,0,-63,-54,-141,-54c0,0,-113,0,-213,92c0,0,-100,92,-100,205c0,0,0,93,69,157c0,0,69,64,162,64c0,0,32,0,64,-9L492,590V822H0l-45,76l14,31H1108l45,-76l-13,-31H553l66,-58V524c0,0,91,89,192,89c0,0,98,0,171,-79c0,0,72,-79,72,-186c0,0,0,-178,-224,-330L736,124c0,0,219,153,219,269c0,0,0,44,-26,75c0,0,-26,32,-81,32c0,0,-109,0,-229,-155V-39L582,-49Z"
id="f6_b9"
transform="scale(0.001,-0.001)"/>

<path d="M228,-49L138,8V822H0l-45,76l14,31H134c0,0,-231,362,-445,362c0,0,-87,0,-135,-49c0,0,-48,-49,-48,-116c0,0,0,-73,43,-122l-45,-32c0,0,-119,108,-119,223c0,0,0,94,74,155c0,0,73,60,181,60c0,0,161,0,316,-134c0,0,154,-133,267,-347H402l46,-76L434,822H199l65,-58V-39L228,-49Z"
id="f6_oc"
transform="scale(0.001,-0.001)"/>

<path d="M727,-49L637,8V822H278l66,-58V226L270,196c0,0,-64,36,-122,98c0,0,-58,62,-79,122l43,59H217V822H0l-45,76l14,31H901l46,-76L933,822H698l66,-58V-39L727,-49Z"
id="f6_bb"
transform="scale(0.001,-0.001)"/>

<path d="M487,-7c0,0,-88,0,-185,46c0,0,-97,47,-163,130c0,0,-66,83,-66,185c0,0,0,109,80,177c0,0,79,68,234,68H504V822H0l-45,76l14,31H827l45,-76L859,822H565l66,-58V474l-3,1l3,-3H396c0,0,-100,0,-152,-47c0,0,-53,-48,-53,-119c0,0,0,-104,93,-178c0,0,60,-20,118,-20c0,0,81,0,156,36c0,0,76,35,123,99l92,-99C773,144,723,70,645,31C645,31,567,-7,487,-7Z"
id="f6_bk"
transform="scale(0.001,-0.001)"/>

<path d="M825,-49L735,8V217c0,0,-86,-72,-197,-72c0,0,-130,0,-238,91c0,0,-107,91,-107,204c0,0,0,55,27,105H55L12,616l14,30H574l46,-76L607,539H396c0,0,-78,-49,-78,-162c0,0,0,-70,40,-111c0,0,39,-15,94,-15c0,0,84,0,163,41c0,0,79,41,120,121V822H0l-45,76l14,31H999l46,-76l-14,-31H796l66,-58V-39L825,-49Z"
id="f6_be"
transform="scale(0.001,-0.001)"/>

<path d="M228,-49L138,8V822H0l-45,76l14,31H70L-65,1033c0,0,-90,65,-157,65c0,0,-67,0,-151,-53l-72,118c0,0,78,65,163,65c0,0,116,0,246,-120L153,930L46,1201c0,0,-71,166,-187,166c0,0,-52,0,-128,-33l-60,125c0,0,78,46,159,46c0,0,193,0,283,-271L215,929H402l46,-76L434,822H199l65,-58V-39L228,-49Z"
id="f6_d9"
transform="scale(0.001,-0.001)"/>

<path d="M368,344c0,0,90,0,155,73V822H150l67,-58V438c0,0,46,-94,151,-94ZM613,-49L523,8V251c0,0,-48,-28,-103,-28c0,0,-122,0,-227,112C193,335,89,448,89,590V822H0l-45,76l14,31H1150l46,-76l-13,-31H584l65,-58V533c0,0,101,95,211,95c0,0,98,0,170,-79c0,0,73,-78,73,-185c0,0,0,-179,-225,-330L785,139c0,0,219,153,219,269c0,0,0,43,-26,75c0,0,-26,32,-80,32c0,0,-120,0,-249,-159V-39L613,-49Z"
id="f6_bw"
transform="scale(0.001,-0.001)"/>

<path d="M-214,860l-227,219c0,0,-73,70,-148,70c0,0,-67,0,-160,-58l-72,117c0,0,83,71,176,71c0,0,120,0,232,-124L-221,940l-102,294c0,0,-64,179,-189,179c0,0,-60,0,-133,-33l-60,125c0,0,84,47,164,47c0,0,200,0,281,-276L-150,901l-23,-15l-41,-26Z"
id="f6_d5"
transform="scale(0.001,-0.001)"/>

<path d="M413,-59C413,-59,53,193,53,416c0,0,0,97,66,164c0,0,66,66,156,66c0,0,61,0,110,-30L487,507c0,0,92,126,257,126l35,-2V822H0l-45,76l14,31H1043l46,-76l-13,-31H840l66,-58V-39L869,-49L779,8V547c0,0,-101,-5,-165,-90c0,0,-64,-86,-70,-222L507,225l-90,73c0,0,5,79,35,151c0,0,-59,66,-128,66c0,0,-57,0,-100,-38c0,0,-44,-39,-44,-109c0,0,0,-165,284,-360L413,-59Z"
id="f6_c3"
transform="scale(0.001,-0.001)"/>

<path d="M548,-57c0,0,-122,0,-243,81c0,0,-122,81,-252,280l57,41C110,345,283,64,498,64c0,0,92,0,153,49c0,0,61,49,61,121c0,0,0,46,-28,84L440,237c0,0,-73,11,-139,55c0,0,-66,44,-105,105c0,0,-40,61,-40,119c0,0,0,72,62,125c0,0,62,53,184,53H625V822H0l-45,76l14,31H906l46,-76L938,822H678l66,-58V562H431c0,0,-164,0,-164,-99c0,0,0,-55,57,-102l261,82c0,0,104,-21,172,-98c0,0,68,-78,68,-171c0,0,0,-99,-76,-166c0,0,-77,-65,-201,-65Z"
id="f6_bm"
transform="scale(0.001,-0.001)"/>

<path d="M108,-433L-59,-214c0,0,-99,119,-191,119c0,0,-59,0,-96,-35c0,0,-36,-34,-36,-81c0,0,0,-49,42,-83l152,95l64,-116c0,0,-71,-58,-148,-58c0,0,-80,0,-146,63c0,0,-65,64,-65,144c0,0,0,77,62,131c0,0,61,53,142,53c0,0,138,0,296,-205L165,-393l-57,-40Z"
id="f6_cx"
transform="scale(0.001,-0.001)"/>

<path d="M180,220c0,0,-105,99,-162,238l63,72H556l40,-85L574,414H254V249L180,220ZM0,822l-45,76l14,31H471l45,-76L503,822Z"
id="f6_li"
transform="scale(0.001,-0.001)"/>

<path d="M717,-303L633,35L234,-230l-84,77L437,24c0,0,-144,23,-243,128c0,0,-99,105,-99,222c0,0,0,112,84,183c0,0,84,71,221,72H545V822H21l-44,76l13,31H863l46,-76L895,822H607l65,-58V504l-3,2l3,-3H429c0,0,-94,0,-153,-53c0,0,-59,-53,-59,-132c0,0,0,-49,27,-100c0,0,28,-50,83,-84c0,0,44,-15,95,-15c0,0,90,0,162,46L556,303l101,48L794,188c0,0,-13,-49,-96,-118L854,-250L717,-303Z"
id="f6_e3"
transform="scale(0.001,-0.001)"/>

<path d="M449,79c0,0,103,0,168,61c0,0,66,60,66,149c0,0,0,93,-84,186H420c0,0,-107,0,-164,-50c0,0,-57,-51,-57,-126c0,0,0,-108,99,-184c0,0,81,-36,151,-36Zm67,-96c0,0,-168,0,-301,109C215,92,81,202,81,350c0,0,0,114,83,182c0,0,84,68,229,68H507V822H0l-45,76l14,31H883l46,-76L915,822H568l66,-58V532c0,0,87,-64,130,-144c0,0,43,-79,43,-157c0,0,0,-109,-81,-179c0,0,-81,-69,-210,-69Z"
id="f6_bl"
transform="scale(0.001,-0.001)"/>

<path d="M959,-49L869,8V367c0,0,-32,-13,-64,-13c0,0,-50,0,-110,25c0,0,23,-52,23,-109c0,0,0,-103,-70,-170c0,0,-70,-66,-182,-66c0,0,-110,0,-222,82c0,0,-111,83,-213,293l68,42c0,0,72,-155,152,-231c0,0,81,-76,178,-76c0,0,83,0,131,49c0,0,48,48,48,117c0,0,0,54,-30,100c0,0,-31,47,-91,65L325,391L257,512c0,0,68,53,156,56c0,0,140,72,140,179c0,0,0,69,-52,99c0,0,-4,1,-11,1c-19,0,-66,-4,-123,-30c0,0,-78,-35,-142,-96L150,823c0,0,119,117,253,117c0,0,98,0,175,-71c0,0,77,-70,77,-159c0,0,0,-103,-94,-180c0,0,39,-23,73,-56c0,0,52,-22,109,-22c0,0,77,0,126,38V822H727l-46,76l14,31h439l45,-76l-13,-31H930l66,-58V-39L959,-49Z"
id="f6_al"
transform="scale(0.001,-0.001)"/>

<path d="M725,307c0,0,-95,0,-218,78c0,0,-123,78,-188,78c0,0,-54,0,-95,-34c0,0,-41,-34,-73,-100L93,362c0,0,38,88,101,146c0,0,63,59,148,59c0,0,90,0,214,-78c0,0,124,-79,188,-79c0,0,63,0,106,34c0,0,42,33,85,104l60,-40c0,0,-32,-66,-101,-134c0,0,-70,-67,-169,-67Z"
id="f7_4r"
transform="scale(0.001,-0.001)"/>

<path d="M435,0V856c0,0,-48,-47,-127,-93c0,0,-79,-46,-142,-69V824c0,0,113,52,197,128c0,0,85,75,120,146h86V0Z"
id="f8_l"
transform="scale(0.001,-0.001)"/>

<path d="M423,92c0,0,97,0,159,62c0,0,62,62,62,157c0,0,0,97,-64,160c0,0,-64,64,-161,64c0,0,-96,0,-158,-63c0,0,-62,-62,-62,-156c0,0,0,-58,27,-111c0,0,27,-54,81,-84c0,0,54,-29,116,-29Zm0,552c0,0,78,0,127,49c0,0,49,49,49,120c0,0,0,74,-50,124c0,0,-51,51,-128,51c0,0,-77,0,-127,-50c0,0,-51,-49,-51,-118c0,0,0,-77,50,-126c0,0,50,-50,130,-50ZM422,-18c0,0,-162,0,-261,95c0,0,-99,96,-99,239c0,0,0,107,54,179c0,0,54,72,154,98c0,0,-84,31,-124,87c0,0,-40,57,-40,136c0,0,0,119,85,201c0,0,86,81,229,81c0,0,143,0,230,-83c0,0,87,-83,87,-203c0,0,0,-76,-40,-132c0,0,-39,-56,-121,-87c0,0,101,-33,154,-106c0,0,52,-73,52,-174c0,0,0,-141,-99,-236c0,0,-99,-95,-261,-95Z"
id="f8_s"
transform="scale(0.001,-0.001)"/>


</defs>
</svg>