<?xml version="1.0" encoding="UTF-8" standalone="no"?>
<!DOCTYPE svg PUBLIC "-//W3C//DTD SVG 1.1//EN"
"http://www.w3.org/Graphics/SVG/1.1/DTD/svg11.dtd">
<svg viewBox="0 0 641 910" version="1.1" xmlns="http://www.w3.org/2000/svg" xmlns:xlink="http://www.w3.org/1999/xlink">
<defs>
<clipPath id="c0_27"><path d="M0,909.8V0H641.7V909.8Z"/></clipPath>
<clipPath id="c1_27"><path d="M0,908.6V0H641.7V908.6Z"/></clipPath>
<style type="text/css"><![CDATA[
.g0_27{
fill: #FFFFFF;
}
.g1_27{
}
]]></style>
</defs>
<path d="M0,0H641.7V909.8H0V0Z" class="g0_27"/>
<path d="M0,0H641.7V909.8H0V0Z" class="g0_27"/>
<g clip-path="url(#c0_27)">
<path d="M0,-18195.7H641.7V88249.8H0V-18195.7Z" class="g0_27"/>
</g>
<path d="M0,0H641.7V908.6H0V0Z" class="g0_27"/>
<path d="M19.5,60.7H602.7v1.2H19.5V60.7Z" class="g1_27"/>
<g clip-path="url(#c1_27)">
<path d="M0,61.9H641.7V909.8H0V61.9Z" class="g0_27"/>
<g fill="#000000" >
<use xlink:href="#f5_aq" transform="matrix(14,0,0,14,248.9,82.5)" />
<use xlink:href="#f5_dj" transform="matrix(14,0,0,14,257.2,82.6)" />
<use xlink:href="#f5_be" transform="matrix(14,0,0,14,267.2,82.5)" />
<use xlink:href="#f5_ct" transform="matrix(14,0,0,14,282.6,82.5)" />
<use xlink:href="#f5_al" transform="matrix(14,0,0,14,294.7,82.5)" />
<use xlink:href="#f5_lq" transform="matrix(14,0,0,14,313.1,82.5)" />
<use xlink:href="#f5_bx" transform="matrix(14,0,0,14,321.4,82.5)" />
<use xlink:href="#f5_c1" transform="matrix(14,0,0,14,335.2,82.5)" />
<use xlink:href="#f5_bq" transform="matrix(14,0,0,14,351,82.5)" />
<use xlink:href="#f5_cv" transform="matrix(14,0,0,14,365.4,82.5)" />
<use xlink:href="#f6_aq" transform="matrix(14,0,0,14,181.3,116.9)" />
<use xlink:href="#f6_dj" transform="matrix(14,0,0,14,188.8,117.3)" />
<use xlink:href="#f6_be" transform="matrix(14,0,0,14,197.1,116.9)" />
<use xlink:href="#f6_ct" transform="matrix(14,0,0,14,211,116.9)" />
<use xlink:href="#f6_al" transform="matrix(14,0,0,14,222.3,116.9)" />
<use xlink:href="#f6_lq" transform="matrix(14,0,0,14,238.2,116.9)" />
<use xlink:href="#f6_bx" transform="matrix(14,0,0,14,246.4,116.9)" />
<use xlink:href="#f6_c1" transform="matrix(14,0,0,14,258.6,116.9)" />
<use xlink:href="#f6_bq" transform="matrix(14,0,0,14,272.7,116.9)" />
<use xlink:href="#f6_cv" transform="matrix(14,0,0,14,285.9,116.9)" />
<use xlink:href="#f6_am" transform="matrix(14,0,0,14,297.2,116.9)" />
<use xlink:href="#f6_c7" transform="matrix(14,0,0,14,318.6,116.9)" />
<use xlink:href="#f6_d8" transform="matrix(14,0,0,14,330.7,116.9)" />
<use xlink:href="#f6_bt" transform="matrix(14,0,0,14,336.3,116.9)" />
<use xlink:href="#f6_cv" transform="matrix(14,0,0,14,348.1,116.9)" />
<use xlink:href="#f6_e6" transform="matrix(14,0,0,14,359.4,116.9)" />
<use xlink:href="#f6_by" transform="matrix(14,0,0,14,371.4,116.9)" />
<use xlink:href="#f6_cw" transform="matrix(14,0,0,14,385.9,116.8)" />
<use xlink:href="#f6_bg" transform="matrix(14,0,0,14,385.4,116.9)" />
<use xlink:href="#f6_cv" transform="matrix(14,0,0,14,399.6,116.9)" />
<use xlink:href="#f6_pd" transform="matrix(14,0,0,14,410.9,116.9)" />
<use xlink:href="#f6_g" transform="matrix(14,0,0,14,418.5,116.9)" />
<use xlink:href="#f6_n8" transform="matrix(14,0,0,14,424.4,116.9)" />
<use xlink:href="#f6_h" transform="matrix(14,0,0,14,434.8,116.9)" />
<use xlink:href="#f6_br" transform="matrix(14,0,0,14,183.6,151.3)" />
<use xlink:href="#f6_c8" transform="matrix(14,0,0,14,195.3,151.3)" />
<use xlink:href="#f6_dr" transform="matrix(14,0,0,14,211.6,151.3)" />
<use xlink:href="#f6_bt" transform="matrix(14,0,0,14,211.2,151.3)" />
<use xlink:href="#f6_b9" transform="matrix(14,0,0,14,228.6,151.3)" />
<use xlink:href="#f6_c1" transform="matrix(14,0,0,14,244,151.3)" />
<use xlink:href="#f6_c7" transform="matrix(14,0,0,14,252.4,151.3)" />
<use xlink:href="#f6_ct" transform="matrix(14,0,0,14,264.5,151.3)" />
<use xlink:href="#f6_bt" transform="matrix(14,0,0,14,275.8,151.3)" />
<use xlink:href="#f6_d4" transform="matrix(14,0,0,14,287.6,151.3)" />
<use xlink:href="#f6_bp" transform="matrix(14,0,0,14,293.2,151.3)" />
<use xlink:href="#f6_c3" transform="matrix(14,0,0,14,305.5,151.3)" />
<use xlink:href="#f6_cb" transform="matrix(14,0,0,14,320.2,151.3)" />
<use xlink:href="#f6_d4" transform="matrix(14,0,0,14,335.2,151.3)" />
<use xlink:href="#f6_am" transform="matrix(14,0,0,14,340.7,151.3)" />
<use xlink:href="#f6_dj" transform="matrix(14,0,0,14,356.8,151.7)" />
<use xlink:href="#f6_ba" transform="matrix(14,0,0,14,362.2,151.3)" />
<use xlink:href="#f6_ch" transform="matrix(14,0,0,14,378.9,151.3)" />
<use xlink:href="#f6_cv" transform="matrix(14,0,0,14,391.6,151.3)" />
<use xlink:href="#f6_pd" transform="matrix(14,0,0,14,408.6,151.3)" />
<use xlink:href="#f6_g" transform="matrix(14,0,0,14,416.1,151.3)" />
<use xlink:href="#f6_n8" transform="matrix(14,0,0,14,422,151.3)" />
<use xlink:href="#f6_h" transform="matrix(14,0,0,14,432.4,151.3)" />
<use xlink:href="#f6_n0" transform="matrix(14,0,0,14,167.6,220)" />
<use xlink:href="#f6_bz" transform="matrix(14,0,0,14,180.7,220)" />
<use xlink:href="#f6_bh" transform="matrix(14,0,0,14,194.1,220)" />
<use xlink:href="#f6_oe" transform="matrix(14,0,0,14,211.5,219.9)" />
<use xlink:href="#f6_bz" transform="matrix(14,0,0,14,210.9,220)" />
<use xlink:href="#f6_n0" transform="matrix(14,0,0,14,229.9,220)" />
<use xlink:href="#f6_bz" transform="matrix(14,0,0,14,243,220)" />
<use xlink:href="#f6_bh" transform="matrix(14,0,0,14,256.4,220)" />
<use xlink:href="#f6_oe" transform="matrix(14,0,0,14,273.7,219.9)" />
<use xlink:href="#f6_bz" transform="matrix(14,0,0,14,273.1,220)" />
<use xlink:href="#f6_am" transform="matrix(14,0,0,14,292.1,220)" />
<use xlink:href="#f6_c7" transform="matrix(14,0,0,14,313.6,220)" />
<use xlink:href="#f6_d8" transform="matrix(14,0,0,14,325.7,220)" />
<use xlink:href="#f6_cc" transform="matrix(14,0,0,14,337,220)" />
<use xlink:href="#f6_d8" transform="matrix(14,0,0,14,348.6,220)" />
<use xlink:href="#f6_e6" transform="matrix(14,0,0,14,359.9,220)" />
<use xlink:href="#f6_by" transform="matrix(14,0,0,14,372,220)" />
<use xlink:href="#f6_cw" transform="matrix(14,0,0,14,386.5,219.9)" />
<use xlink:href="#f6_bg" transform="matrix(14,0,0,14,391.6,220)" />
<use xlink:href="#f6_cv" transform="matrix(14,0,0,14,405.8,220)" />
<use xlink:href="#f6_pd" transform="matrix(14,0,0,14,422.8,220)" />
<use xlink:href="#f6_g" transform="matrix(14,0,0,14,430.3,220)" />
<use xlink:href="#f6_n8" transform="matrix(14,0,0,14,436.2,220)" />
<use xlink:href="#f6_h" transform="matrix(14,0,0,14,446.6,220)" />
<use xlink:href="#f6_c1" transform="matrix(14,0,0,14,244.4,254.4)" />
<use xlink:href="#f6_ct" transform="matrix(14,0,0,14,252.7,254.4)" />
<use xlink:href="#f6_cc" transform="matrix(14,0,0,14,258.4,254.4)" />
<use xlink:href="#f6_bg" transform="matrix(14,0,0,14,275.6,254.4)" />
<use xlink:href="#f6_d8" transform="matrix(14,0,0,14,289.9,254.4)" />
<use xlink:href="#f6_ao" transform="matrix(14,0,0,14,295.5,254.4)" />
<use xlink:href="#f6_bz" transform="matrix(14,0,0,14,312.7,254.4)" />
<use xlink:href="#f6_p3" transform="matrix(14,0,0,14,326.2,254.4)" />
<use xlink:href="#f6_c1" transform="matrix(14,0,0,14,331.7,254.4)" />
<use xlink:href="#f6_ct" transform="matrix(14,0,0,14,340.1,254.4)" />
<use xlink:href="#f6_bp" transform="matrix(14,0,0,14,345.7,254.4)" />
<use xlink:href="#f6_ch" transform="matrix(14,0,0,14,358,254.4)" />
<use xlink:href="#f6_cv" transform="matrix(14,0,0,14,370.7,254.4)" />
<use xlink:href="#f6_cb" transform="matrix(14,0,0,14,172.2,323.1)" />
<use xlink:href="#f6_cx" transform="matrix(14,0,0,14,187,323)" />
<use xlink:href="#f6_c1" transform="matrix(14,0,0,14,187.1,323.1)" />
<use xlink:href="#f6_bg" transform="matrix(14,0,0,14,195.4,323.1)" />
<use xlink:href="#f6_bt" transform="matrix(14,0,0,14,215.4,323.1)" />
<use xlink:href="#f6_d4" transform="matrix(14,0,0,14,227.2,323.1)" />
<use xlink:href="#f6_be" transform="matrix(14,0,0,14,232.7,323.1)" />
<use xlink:href="#f6_ct" transform="matrix(14,0,0,14,246.7,323.1)" />
<use xlink:href="#f6_di" transform="matrix(14,0,0,14,250.2,323.6)" />
<use xlink:href="#f6_br" transform="matrix(14,0,0,14,252.3,323.1)" />
<use xlink:href="#f6_c3" transform="matrix(14,0,0,14,264,323.1)" />
<use xlink:href="#f6_ct" transform="matrix(14,0,0,14,278.7,323.1)" />
<use xlink:href="#f6_bt" transform="matrix(14,0,0,14,290,323.1)" />
<use xlink:href="#f6_ct" transform="matrix(14,0,0,14,301.7,323.1)" />
<use xlink:href="#f6_cu" transform="matrix(14,0,0,14,313,323.1)" />
<use xlink:href="#f6_br" transform="matrix(14,0,0,14,318.6,323.1)" />
<use xlink:href="#f6_c7" transform="matrix(14,0,0,14,330.3,323.1)" />
<use xlink:href="#f6_c3" transform="matrix(14,0,0,14,342.4,323.1)" />
<use xlink:href="#f6_ct" transform="matrix(14,0,0,14,357.1,323.1)" />
<use xlink:href="#f6_e6" transform="matrix(14,0,0,14,368.4,323.1)" />
<use xlink:href="#f6_b9" transform="matrix(14,0,0,14,380.5,323.1)" />
<use xlink:href="#f6_bk" transform="matrix(14,0,0,14,396,323.1)" />
<use xlink:href="#f6_ct" transform="matrix(14,0,0,14,407.5,323.1)" />
<use xlink:href="#f6_cu" transform="matrix(14,0,0,14,413.1,323.1)" />
<use xlink:href="#f6_c7" transform="matrix(14,0,0,14,418.8,323.1)" />
<use xlink:href="#f6_c0" transform="matrix(14,0,0,14,430.8,323.1)" />
<use xlink:href="#f6_ct" transform="matrix(14,0,0,14,443.4,323.1)" />
<use xlink:href="#f6_bk" transform="matrix(14,0,0,14,180.2,357.5)" />
<use xlink:href="#f6_bz" transform="matrix(14,0,0,14,191.8,357.5)" />
<use xlink:href="#f6_bk" transform="matrix(14,0,0,14,210.8,357.5)" />
<use xlink:href="#f6_bz" transform="matrix(14,0,0,14,222.3,357.5)" />
<use xlink:href="#f6_ct" transform="matrix(14,0,0,14,235.7,357.5)" />
<use xlink:href="#f6_bp" transform="matrix(14,0,0,14,241.3,357.5)" />
<use xlink:href="#f6_ct" transform="matrix(14,0,0,14,253.6,357.5)" />
<use xlink:href="#f6_bp" transform="matrix(14,0,0,14,264.9,357.5)" />
<use xlink:href="#f6_ct" transform="matrix(14,0,0,14,277.2,357.5)" />
<use xlink:href="#f6_c1" transform="matrix(14,0,0,14,282.8,357.5)" />
<use xlink:href="#f6_c3" transform="matrix(14,0,0,14,291.2,357.5)" />
<use xlink:href="#f6_ct" transform="matrix(14,0,0,14,305.9,357.5)" />
<use xlink:href="#f6_bt" transform="matrix(14,0,0,14,311.5,357.5)" />
<use xlink:href="#f6_d4" transform="matrix(14,0,0,14,323.4,357.5)" />
<use xlink:href="#f6_bz" transform="matrix(14,0,0,14,328.9,357.5)" />
<use xlink:href="#f6_ct" transform="matrix(14,0,0,14,342.3,357.5)" />
<use xlink:href="#f6_bb" transform="matrix(14,0,0,14,347.9,357.5)" />
<use xlink:href="#f6_p0" transform="matrix(14,0,0,14,360.6,357.5)" />
<use xlink:href="#f6_cu" transform="matrix(14,0,0,14,366.2,357.5)" />
<use xlink:href="#f6_bx" transform="matrix(14,0,0,14,371.8,357.5)" />
<use xlink:href="#f6_bf" transform="matrix(14,0,0,14,384.1,357.5)" />
<use xlink:href="#f6_ct" transform="matrix(14,0,0,14,399.8,357.5)" />
<use xlink:href="#f6_cu" transform="matrix(14,0,0,14,405.4,357.5)" />
<use xlink:href="#f6_c7" transform="matrix(14,0,0,14,411,357.5)" />
<use xlink:href="#f6_c0" transform="matrix(14,0,0,14,423.1,357.5)" />
<use xlink:href="#f6_ct" transform="matrix(14,0,0,14,435.7,357.5)" />
<use xlink:href="#f6_aq" transform="matrix(14,0,0,14,192.8,391.9)" />
<use xlink:href="#f6_nt" transform="matrix(14,0,0,14,208.5,391.9)" />
<use xlink:href="#f6_by" transform="matrix(14,0,0,14,214.1,391.9)" />
<use xlink:href="#f6_al" transform="matrix(14,0,0,14,233.8,391.9)" />
<use xlink:href="#f6_nl" transform="matrix(14,0,0,14,249.6,391.9)" />
<use xlink:href="#f6_bs" transform="matrix(14,0,0,14,249.6,391.9)" />
<use xlink:href="#f6_cv" transform="matrix(14,0,0,14,263.6,391.9)" />
<use xlink:href="#f6_c1" transform="matrix(14,0,0,14,269.2,391.9)" />
<use xlink:href="#f6_n5" transform="matrix(14,0,0,14,283.3,391.9)" />
<use xlink:href="#f6_di" transform="matrix(14,0,0,14,295.3,392.3)" />
<use xlink:href="#f6_bp" transform="matrix(14,0,0,14,300.6,391.9)" />
<use xlink:href="#f6_d8" transform="matrix(14,0,0,14,312.9,391.9)" />
<use xlink:href="#f6_bg" transform="matrix(14,0,0,14,324.2,391.9)" />
<use xlink:href="#f6_d8" transform="matrix(14,0,0,14,338.4,391.9)" />
<use xlink:href="#f6_aq" transform="matrix(14,0,0,14,344,391.9)" />
<use xlink:href="#f6_c7" transform="matrix(14,0,0,14,365.4,391.9)" />
<use xlink:href="#f6_ct" transform="matrix(14,0,0,14,377.5,391.9)" />
<use xlink:href="#f6_bk" transform="matrix(14,0,0,14,383.1,391.9)" />
<use xlink:href="#f6_c3" transform="matrix(14,0,0,14,394.7,391.9)" />
<use xlink:href="#f6_bm" transform="matrix(14,0,0,14,409.4,391.9)" />
<use xlink:href="#f6_cv" transform="matrix(14,0,0,14,422.1,391.9)" />
<use xlink:href="#f6_br" transform="matrix(14,0,0,14,204.3,426.3)" />
<use xlink:href="#f6_c8" transform="matrix(14,0,0,14,215.9,426.3)" />
<use xlink:href="#f6_dr" transform="matrix(14,0,0,14,232.2,426.3)" />
<use xlink:href="#f6_bt" transform="matrix(14,0,0,14,231.8,426.3)" />
<use xlink:href="#f6_b9" transform="matrix(14,0,0,14,249.2,426.3)" />
<use xlink:href="#f6_c1" transform="matrix(14,0,0,14,264.7,426.3)" />
<use xlink:href="#f6_c7" transform="matrix(14,0,0,14,273.1,426.3)" />
<use xlink:href="#f6_ct" transform="matrix(14,0,0,14,285.1,426.3)" />
<use xlink:href="#f6_bt" transform="matrix(14,0,0,14,296.4,426.3)" />
<use xlink:href="#f6_d4" transform="matrix(14,0,0,14,308.3,426.3)" />
<use xlink:href="#f6_bp" transform="matrix(14,0,0,14,313.8,426.3)" />
<use xlink:href="#f6_c3" transform="matrix(14,0,0,14,326.1,426.3)" />
<use xlink:href="#f6_cb" transform="matrix(14,0,0,14,340.8,426.3)" />
<use xlink:href="#f6_d4" transform="matrix(14,0,0,14,355.8,426.3)" />
<use xlink:href="#f6_am" transform="matrix(14,0,0,14,361.4,426.3)" />
<use xlink:href="#f6_dj" transform="matrix(14,0,0,14,377.4,426.7)" />
<use xlink:href="#f6_ba" transform="matrix(14,0,0,14,382.8,426.3)" />
<use xlink:href="#f6_ch" transform="matrix(14,0,0,14,399.6,426.3)" />
<use xlink:href="#f6_cv" transform="matrix(14,0,0,14,412.2,426.3)" />
<use xlink:href="#f6_aq" transform="matrix(14,0,0,14,240.9,460.6)" />
<use xlink:href="#f6_dj" transform="matrix(14,0,0,14,248.4,461.1)" />
<use xlink:href="#f6_be" transform="matrix(14,0,0,14,256.6,460.6)" />
<use xlink:href="#f6_ct" transform="matrix(14,0,0,14,270.6,460.6)" />
<use xlink:href="#f6_al" transform="matrix(14,0,0,14,281.9,460.6)" />
<use xlink:href="#f6_lq" transform="matrix(14,0,0,14,297.8,460.6)" />
<use xlink:href="#f6_bx" transform="matrix(14,0,0,14,305.9,460.6)" />
<use xlink:href="#f6_c1" transform="matrix(14,0,0,14,318.2,460.6)" />
<use xlink:href="#f6_bq" transform="matrix(14,0,0,14,332.3,460.6)" />
<use xlink:href="#f6_cv" transform="matrix(14,0,0,14,345.5,460.6)" />
<use xlink:href="#f6_pc" transform="matrix(14,0,0,14,351.1,460.6)" />
<use xlink:href="#f6_pc" transform="matrix(14,0,0,14,355.4,460.6)" />
<use xlink:href="#f6_pc" transform="matrix(14,0,0,14,359.6,460.6)" />
<use xlink:href="#f6_pc" transform="matrix(14,0,0,14,363.9,460.6)" />
<use xlink:href="#f6_pc" transform="matrix(14,0,0,14,368.2,460.6)" />
<use xlink:href="#f6_pc" transform="matrix(14,0,0,14,372.5,460.6)" />
<use xlink:href="#f6_pc" transform="matrix(14,0,0,14,376.7,460.6)" />
<use xlink:href="#f6_am" transform="matrix(14,0,0,14,164.2,529.4)" />
<use xlink:href="#f6_c7" transform="matrix(14,0,0,14,185.6,529.4)" />
<use xlink:href="#f6_d8" transform="matrix(14,0,0,14,197.7,529.4)" />
<use xlink:href="#f6_bt" transform="matrix(14,0,0,14,209,529.4)" />
<use xlink:href="#f6_d4" transform="matrix(14,0,0,14,220.9,529.4)" />
<use xlink:href="#f6_bt" transform="matrix(14,0,0,14,226.4,529.4)" />
<use xlink:href="#f6_c0" transform="matrix(14,0,0,14,238.1,529.4)" />
<use xlink:href="#f6_bt" transform="matrix(14,0,0,14,250.6,529.4)" />
<use xlink:href="#f6_d8" transform="matrix(14,0,0,14,262.4,529.4)" />
<use xlink:href="#f6_bz" transform="matrix(14,0,0,14,273.7,529.4)" />
<use xlink:href="#f6_ct" transform="matrix(14,0,0,14,287,529.4)" />
<use xlink:href="#f6_dj" transform="matrix(14,0,0,14,287.2,529.8)" />
<use xlink:href="#f6_bq" transform="matrix(14,0,0,14,298.3,529.4)" />
<use xlink:href="#f6_cv" transform="matrix(14,0,0,14,311.5,529.4)" />
<use xlink:href="#f6_al" transform="matrix(14,0,0,14,322.8,529.4)" />
<use xlink:href="#f6_nt" transform="matrix(14,0,0,14,338.6,529.4)" />
<use xlink:href="#f6_bz" transform="matrix(14,0,0,14,344.2,529.4)" />
<use xlink:href="#f6_c1" transform="matrix(14,0,0,14,357.6,529.4)" />
<use xlink:href="#f6_bp" transform="matrix(14,0,0,14,366,529.4)" />
<use xlink:href="#f6_bx" transform="matrix(14,0,0,14,383.9,529.4)" />
<use xlink:href="#f6_c1" transform="matrix(14,0,0,14,396.2,529.4)" />
<use xlink:href="#f6_cb" transform="matrix(14,0,0,14,404.6,529.4)" />
<use xlink:href="#f6_ct" transform="matrix(14,0,0,14,419.5,529.4)" />
<use xlink:href="#f6_c7" transform="matrix(14,0,0,14,425.1,529.4)" />
<use xlink:href="#f6_bg" transform="matrix(14,0,0,14,437.2,529.4)" />
<use xlink:href="#f6_d8" transform="matrix(14,0,0,14,451.4,529.4)" />
<use xlink:href="#f6_b9" transform="matrix(14,0,0,14,172.2,563.8)" />
<use xlink:href="#f6_ct" transform="matrix(14,0,0,14,187.7,563.8)" />
<use xlink:href="#f6_bv" transform="matrix(14,0,0,14,193.3,563.8)" />
<use xlink:href="#f6_d8" transform="matrix(14,0,0,14,205.2,563.8)" />
<use xlink:href="#f6_bt" transform="matrix(14,0,0,14,216.5,563.8)" />
<use xlink:href="#f6_d4" transform="matrix(14,0,0,14,228.3,563.8)" />
<use xlink:href="#f6_b9" transform="matrix(14,0,0,14,233.8,563.8)" />
<use xlink:href="#f6_bz" transform="matrix(14,0,0,14,249.3,563.8)" />
<use xlink:href="#f6_p6" transform="matrix(14,0,0,14,262.7,563.8)" />
<use xlink:href="#f6_lq" transform="matrix(14,0,0,14,274,563.8)" />
<use xlink:href="#f6_cc" transform="matrix(14,0,0,14,280.6,563.8)" />
<use xlink:href="#f6_ct" transform="matrix(14,0,0,14,292.2,563.8)" />
<use xlink:href="#f6_c1" transform="matrix(14,0,0,14,297.9,563.8)" />
<use xlink:href="#f6_ct" transform="matrix(14,0,0,14,306.2,563.8)" />
<use xlink:href="#f6_by" transform="matrix(14,0,0,14,317.5,563.8)" />
<use xlink:href="#f6_o0" transform="matrix(14,0,0,14,331.5,563.8)" />
<use xlink:href="#f6_l1" transform="matrix(14,0,0,14,337.1,563.8)" />
<use xlink:href="#f6_bp" transform="matrix(14,0,0,14,349,563.8)" />
<use xlink:href="#f6_m1" transform="matrix(14,0,0,14,366.9,563.8)" />
<use xlink:href="#f6_c7" transform="matrix(14,0,0,14,375.7,563.8)" />
<use xlink:href="#f6_cv" transform="matrix(14,0,0,14,387.8,563.8)" />
<use xlink:href="#f6_b9" transform="matrix(14,0,0,14,393.4,563.8)" />
<use xlink:href="#f6_ct" transform="matrix(14,0,0,14,408.9,563.8)" />
<use xlink:href="#f6_c1" transform="matrix(14,0,0,14,414.6,563.8)" />
<use xlink:href="#f6_bg" transform="matrix(14,0,0,14,428.6,563.8)" />
<use xlink:href="#f6_d8" transform="matrix(14,0,0,14,442.9,563.8)" />
<use xlink:href="#f6_bz" transform="matrix(14,0,0,14,187.1,598.1)" />
<use xlink:href="#f6_cw" transform="matrix(14,0,0,14,201,598)" />
<use xlink:href="#f6_ba" transform="matrix(14,0,0,14,200.4,598.1)" />
<use xlink:href="#f6_c3" transform="matrix(14,0,0,14,217.1,598.1)" />
<use xlink:href="#f6_ch" transform="matrix(14,0,0,14,231.8,598.1)" />
<use xlink:href="#f6_of" transform="matrix(14,0,0,14,243.2,602.6)" />
<use xlink:href="#f6_bg" transform="matrix(14,0,0,14,250.2,598.1)" />
<use xlink:href="#f6_d8" transform="matrix(14,0,0,14,264.4,598.1)" />
<use xlink:href="#f6_c7" transform="matrix(14,0,0,14,270.1,598.1)" />
<use xlink:href="#f6_ct" transform="matrix(14,0,0,14,282.1,598.1)" />
<use xlink:href="#f6_n4" transform="matrix(14,0,0,14,293.4,598.1)" />
<use xlink:href="#f6_bp" transform="matrix(14,0,0,14,310.7,598.1)" />
<use xlink:href="#f6_d8" transform="matrix(14,0,0,14,323,598.1)" />
<use xlink:href="#f6_bq" transform="matrix(14,0,0,14,334.3,598.1)" />
<use xlink:href="#f6_c0" transform="matrix(14,0,0,14,347.5,598.1)" />
<use xlink:href="#f6_d8" transform="matrix(14,0,0,14,360,598.1)" />
<use xlink:href="#f6_ap" transform="matrix(14,0,0,14,371.3,598.1)" />
<use xlink:href="#f6_bp" transform="matrix(14,0,0,14,382.7,598.1)" />
<use xlink:href="#f6_ct" transform="matrix(14,0,0,14,395,598.1)" />
<use xlink:href="#f6_c7" transform="matrix(14,0,0,14,400.6,598.1)" />
<use xlink:href="#f6_c3" transform="matrix(14,0,0,14,412.7,598.1)" />
<use xlink:href="#f6_d8" transform="matrix(14,0,0,14,427.4,598.1)" />
<use xlink:href="#f6_br" transform="matrix(14,0,0,14,204.3,632.5)" />
<use xlink:href="#f6_c8" transform="matrix(14,0,0,14,215.9,632.5)" />
<use xlink:href="#f6_dr" transform="matrix(14,0,0,14,232.2,632.5)" />
<use xlink:href="#f6_bt" transform="matrix(14,0,0,14,231.8,632.5)" />
<use xlink:href="#f6_b9" transform="matrix(14,0,0,14,249.2,632.5)" />
<use xlink:href="#f6_c1" transform="matrix(14,0,0,14,264.7,632.5)" />
<use xlink:href="#f6_c7" transform="matrix(14,0,0,14,273.1,632.5)" />
<use xlink:href="#f6_ct" transform="matrix(14,0,0,14,285.1,632.5)" />
<use xlink:href="#f6_bt" transform="matrix(14,0,0,14,296.4,632.5)" />
<use xlink:href="#f6_d4" transform="matrix(14,0,0,14,308.3,632.5)" />
<use xlink:href="#f6_bp" transform="matrix(14,0,0,14,313.8,632.5)" />
<use xlink:href="#f6_c3" transform="matrix(14,0,0,14,326.1,632.5)" />
<use xlink:href="#f6_cb" transform="matrix(14,0,0,14,340.8,632.5)" />
<use xlink:href="#f6_d4" transform="matrix(14,0,0,14,355.8,632.5)" />
<use xlink:href="#f6_am" transform="matrix(14,0,0,14,361.4,632.5)" />
<use xlink:href="#f6_dj" transform="matrix(14,0,0,14,377.4,632.9)" />
<use xlink:href="#f6_ba" transform="matrix(14,0,0,14,382.8,632.5)" />
<use xlink:href="#f6_ch" transform="matrix(14,0,0,14,399.6,632.5)" />
<use xlink:href="#f6_cv" transform="matrix(14,0,0,14,412.2,632.5)" />
<use xlink:href="#f6_aq" transform="matrix(14,0,0,14,240.9,666.9)" />
<use xlink:href="#f6_dj" transform="matrix(14,0,0,14,248.4,667.3)" />
<use xlink:href="#f6_be" transform="matrix(14,0,0,14,256.6,666.9)" />
<use xlink:href="#f6_ct" transform="matrix(14,0,0,14,270.6,666.9)" />
<use xlink:href="#f6_al" transform="matrix(14,0,0,14,281.9,666.9)" />
<use xlink:href="#f6_lq" transform="matrix(14,0,0,14,297.8,666.9)" />
<use xlink:href="#f6_bx" transform="matrix(14,0,0,14,305.9,666.9)" />
<use xlink:href="#f6_c1" transform="matrix(14,0,0,14,318.2,666.9)" />
<use xlink:href="#f6_bq" transform="matrix(14,0,0,14,332.3,666.9)" />
<use xlink:href="#f6_cv" transform="matrix(14,0,0,14,345.5,666.9)" />
<use xlink:href="#f6_pc" transform="matrix(14,0,0,14,351.1,666.9)" />
<use xlink:href="#f6_pc" transform="matrix(14,0,0,14,355.4,666.9)" />
<use xlink:href="#f6_pc" transform="matrix(14,0,0,14,359.6,666.9)" />
<use xlink:href="#f6_pc" transform="matrix(14,0,0,14,363.9,666.9)" />
<use xlink:href="#f6_pc" transform="matrix(14,0,0,14,368.2,666.9)" />
<use xlink:href="#f6_pc" transform="matrix(14,0,0,14,372.5,666.9)" />
<use xlink:href="#f6_pc" transform="matrix(14,0,0,14,376.7,666.9)" />
<use xlink:href="#f7_4r" transform="matrix(9,0,0,9,290.2,795.2)" />
<use xlink:href="#f8_m" transform="matrix(9,0,0,9,303,795.2)" />
<use xlink:href="#f8_l" transform="matrix(9,0,0,9,310.7,795.2)" />
<use xlink:href="#f7_4r" transform="matrix(9,0,0,9,321.3,795.2)" />
</g>
</g>
<image preserveAspectRatio="none" x="22" y="801" width="581" height="86" xlink:href="img/1.png"/>
<path d="M249.8,83.6H372.4v1.2H249.8V83.6Z" class="g1_27"/>
<image preserveAspectRatio="none" x="202" y="14" width="217" height="26" xlink:href="img/2.png"/>
<defs>
<path d="M509,-66c0,0,-306,0,-513,457l128,70c0,0,72,-152,148,-233c0,0,76,-81,173,-81c0,0,73,0,118,43c0,0,45,44,45,103c0,0,0,90,-79,123L374,322L231,538c0,0,87,79,218,87c0,0,60,41,60,99c0,0,0,57,-55,98H0L-86,937l32,64H1306l87,-115l-32,-64H651c0,0,76,-72,76,-159c0,0,0,-84,-62,-148l41,-31c0,0,137,152,273,152c0,0,121,0,211,-98c0,0,90,-98,90,-220c0,0,0,-174,-215,-323L900,174c0,0,90,74,143,128c0,0,52,54,52,95c0,0,0,19,-13,32c0,0,-14,13,-37,13c0,0,-84,0,-222,-155l5,-56c0,0,0,-127,-90,-213c0,0,-90,-84,-229,-84Z"
id="f5_aq"
transform="scale(0.001,-0.001)"/>

<path d="M0,1102c0,0,-40,16,-91,55c0,0,-52,39,-79,76c0,0,59,119,137,165c0,0,42,-15,89,-54c0,0,46,-39,74,-76c0,0,-17,-44,-54,-92c0,0,-38,-48,-76,-74Z"
id="f5_dj"
transform="scale(0.001,-0.001)"/>

<path d="M911,-65L736,29V136c0,0,-59,-28,-134,-28c0,0,-159,0,-296,101c0,0,-136,101,-136,233c0,0,0,47,21,90H60L-22,648L9,712H578L671,574L639,510H492c0,0,-87,-58,-87,-157c0,0,0,-26,9,-52l50,-5c0,0,78,0,156,44c0,0,77,43,116,111V822H0L-86,937l32,64H1095l86,-115l-32,-64H878L981,749V-31L911,-65Z"
id="f5_be"
transform="scale(0.001,-0.001)"/>

<path d="M277,-65L102,29V822H0L-86,937l32,64H463L548,886L516,822H244L347,749V-31L277,-65Z"
id="f5_ct"
transform="scale(0.001,-0.001)"/>

<path d="M1128,-65L953,29V322c0,0,-23,-9,-52,-9c0,0,-47,0,-102,25c0,0,11,-42,11,-83c0,0,0,-116,-78,-192c0,0,-78,-76,-203,-76c0,0,-129,0,-261,94c0,0,-132,95,-244,339l123,78c0,0,70,-150,146,-225c0,0,75,-76,168,-76c0,0,72,0,113,40c0,0,42,40,42,90c0,0,0,84,-77,115L387,350L249,556c0,0,86,77,199,83c0,0,119,73,119,163c0,0,0,25,-15,40c0,0,-4,0,-10,0c-19,0,-67,-3,-124,-33c0,0,-76,-39,-146,-106L142,872c0,0,61,65,140,107c0,0,79,42,158,42c0,0,121,0,216,-91c0,0,96,-91,96,-197c0,0,0,-96,-84,-186c0,0,62,-46,142,-46c0,0,88,0,143,52V822H834L749,937l32,64h531l86,-115l-32,-64H1095l103,-73V-31l-70,-34Z"
id="f5_al"
transform="scale(0.001,-0.001)"/>

<path d="M341,121c0,0,-90,30,-191,128c0,0,-100,98,-127,183l52,81H197L183,822H0L-86,937l32,64H639L726,886L694,822H325L429,749l2,-236H767L823,306H432V170L341,121Z"
id="f5_lq"
transform="scale(0.001,-0.001)"/>

<path d="M393,278c0,0,45,0,93,17L336,515c0,0,-56,-51,-56,-124c0,0,0,-53,32,-98c0,0,38,-15,81,-15Zm178,61c0,0,34,29,52,57V510c0,0,-85,46,-162,46l-32,-1L571,339ZM798,-65L623,29v95c0,0,-55,-25,-123,-25c0,0,-100,0,-209,51c0,0,-109,50,-183,137c0,0,-73,87,-73,191c0,0,0,115,85,194c0,0,85,80,212,80c0,0,41,0,84,-9L623,643V822H0L-86,937l32,64H982l86,-115l-32,-64H765L868,749V-31L798,-65Z"
id="f5_bx"
transform="scale(0.001,-0.001)"/>

<path d="M545,-97L35,405L87,542H295c0,0,1,5,1,280H0L-86,937l32,64H729L814,886L782,822H445L550,749V547c0,0,0,-75,-41,-127c0,0,-41,-52,-129,-111L709,110V41L545,-97Z"
id="f5_c1"
transform="scale(0.001,-0.001)"/>

<path d="M842,-65L668,29V141c0,0,-66,-33,-142,-33c0,0,-146,0,-279,109c0,0,-134,108,-209,287l29,78c0,0,324,35,324,203c0,0,0,46,-27,80c0,0,-13,6,-29,6c0,0,-32,0,-57,-23c0,0,-24,-23,-24,-60c0,0,0,-49,45,-91L211,636C211,636,49,746,49,857c0,0,0,73,59,126c0,0,60,53,146,53c0,0,128,0,236,-109c0,0,107,-110,107,-239c0,0,0,-98,-74,-182c0,0,-75,-83,-222,-119c0,0,20,-51,52,-95c0,0,1,0,4,0c20,0,102,2,181,39c0,0,90,42,130,121V822H636L550,937l32,64h445l85,-115l-32,-64H810L912,749V-31L842,-65Z"
id="f5_bq"
transform="scale(0.001,-0.001)"/>

<path d="M277,-65L102,29V822H0L-86,937l32,64H110c0,0,-50,142,-110,226c0,0,-60,84,-149,84c0,0,-59,0,-97,-37c0,0,-39,-36,-39,-91c0,0,0,-57,42,-115l-95,-50c0,0,-145,116,-145,267c0,0,0,108,75,179c0,0,76,70,195,70c0,0,179,0,297,-150c0,0,119,-150,189,-383H463L548,886L516,822H244L347,749V-31L277,-65Z"
id="f5_cv"
transform="scale(0.001,-0.001)"/>

<path d="M471,-26c0,0,-259,0,-448,396l70,43C93,413,240,98,442,98c0,0,79,0,132,46c0,0,54,45,54,120c0,0,0,61,-38,116c0,0,-38,54,-107,72L322,370L255,492c0,0,66,53,156,56c0,0,128,51,128,153c0,0,0,77,-65,121H0l-45,76l14,31H1123l46,-76l-14,-31H578c0,0,76,-66,76,-157c0,0,0,-95,-87,-156c0,0,52,-29,84,-64c0,0,131,134,243,134c0,0,93,0,158,-70c0,0,65,-71,65,-167c0,0,0,-142,-177,-272L851,170c0,0,173,129,173,230c0,0,0,34,-23,57c0,0,-23,23,-63,23c0,0,-104,0,-215,-141c0,0,23,-55,23,-111c0,0,0,-109,-78,-182c0,0,-78,-72,-197,-72Z"
id="f6_aq"
transform="scale(0.001,-0.001)"/>

<path d="M0,1062c0,0,-26,11,-60,36c0,0,-34,26,-51,49c0,0,39,81,91,110c0,0,60,-23,106,-85c0,0,-28,-70,-86,-110Z"
id="f6_dj"
transform="scale(0.001,-0.001)"/>

<path d="M825,-49L735,8V217c0,0,-86,-72,-197,-72c0,0,-130,0,-238,91c0,0,-107,91,-107,204c0,0,0,55,27,105H55L12,616l14,30H574l46,-76L607,539H396c0,0,-78,-49,-78,-162c0,0,0,-70,40,-111c0,0,39,-15,94,-15c0,0,84,0,163,41c0,0,79,41,120,121V822H0l-45,76l14,31H999l46,-76l-14,-31H796l66,-58V-39L825,-49Z"
id="f6_be"
transform="scale(0.001,-0.001)"/>

<path d="M228,-49L138,8V822H0l-45,76l14,31H402l46,-76L434,822H199l65,-58V-39L228,-49Z"
id="f6_ct"
transform="scale(0.001,-0.001)"/>

<path d="M959,-49L869,8V367c0,0,-32,-13,-64,-13c0,0,-50,0,-110,25c0,0,23,-52,23,-109c0,0,0,-103,-70,-170c0,0,-70,-66,-182,-66c0,0,-110,0,-222,82c0,0,-111,83,-213,293l68,42c0,0,72,-155,152,-231c0,0,81,-76,178,-76c0,0,83,0,131,49c0,0,48,48,48,117c0,0,0,54,-30,100c0,0,-31,47,-91,65L325,391L257,512c0,0,68,53,156,56c0,0,140,72,140,179c0,0,0,69,-52,99c0,0,-4,1,-11,1c-19,0,-66,-4,-123,-30c0,0,-78,-35,-142,-96L150,823c0,0,119,117,253,117c0,0,98,0,175,-71c0,0,77,-70,77,-159c0,0,0,-103,-94,-180c0,0,39,-23,73,-56c0,0,52,-22,109,-22c0,0,77,0,126,38V822H727l-46,76l14,31h439l45,-76l-13,-31H930l66,-58V-39L959,-49Z"
id="f6_al"
transform="scale(0.001,-0.001)"/>

<path d="M266,150c0,0,-57,35,-120,104c0,0,-63,70,-89,131l41,60H211L194,822H0l-45,76l14,31H587l46,-76L619,822H255l66,-58l7,-319H688L721,328H339V180L266,150Z"
id="f6_lq"
transform="scale(0.001,-0.001)"/>

<path d="M348,229c0,0,57,0,106,17L263,559c0,0,-95,-50,-95,-162c0,0,0,-75,52,-136c0,0,49,-32,128,-32Zm170,48c0,0,61,38,96,91V504c0,0,-131,80,-244,80l-35,-2L518,277ZM704,-49L614,8V193c0,0,-84,-65,-192,-65c0,0,-139,0,-255,98c0,0,-115,98,-115,226c0,0,0,106,77,175c0,0,77,70,189,70c0,0,38,0,75,-9L614,578V822H0l-45,76l14,31H878l46,-76L911,822H675l66,-58V-39L704,-49Z"
id="f6_bx"
transform="scale(0.001,-0.001)"/>

<path d="M527,-71L52,414l34,92H277c0,0,12,32,12,72V822H0l-45,76l14,31H599l46,-76L631,822H350l66,-55V564c0,0,0,-96,-152,-248L610,34L611,8L527,-71Z"
id="f6_c1"
transform="scale(0.001,-0.001)"/>

<path d="M768,-49L678,8V202c0,0,-73,-58,-172,-58c0,0,-123,0,-240,94c0,0,-118,94,-179,237l20,55c0,0,134,12,215,70c0,0,81,57,81,141c0,0,0,90,-67,134l-26,3c0,0,-46,0,-74,-29c0,0,-28,-30,-28,-68c0,0,0,-55,82,-109L252,620C252,620,93,720,93,820c0,0,0,65,47,104c0,0,46,40,114,40c0,0,99,0,179,-83c0,0,80,-83,82,-197c0,0,0,-93,-79,-165c0,0,-78,-73,-199,-97c0,0,29,-104,88,-158c0,0,42,-16,92,-16c0,0,78,0,151,38c0,0,74,38,110,111V822H553l-46,76l14,31H943l45,-76L975,822H739l66,-58V-39L768,-49Z"
id="f6_bq"
transform="scale(0.001,-0.001)"/>

<path d="M228,-49L138,8V822H0l-45,76l14,31H138c0,0,-109,342,-284,342c0,0,-62,0,-102,-40c0,0,-40,-39,-40,-93c0,0,0,-61,51,-134l-42,-32c0,0,-128,113,-128,226c0,0,0,79,60,136c0,0,61,56,154,56c0,0,137,0,249,-125c0,0,112,-125,169,-336H402l46,-76L434,822H199l65,-58V-39L228,-49Z"
id="f6_cv"
transform="scale(0.001,-0.001)"/>

<path d="M959,-49L869,8V367c0,0,-32,-13,-64,-13c0,0,-50,0,-110,25c0,0,23,-52,23,-109c0,0,0,-103,-70,-170c0,0,-70,-66,-182,-66c0,0,-110,0,-222,82c0,0,-111,83,-213,293l68,42c0,0,72,-155,152,-231c0,0,81,-76,178,-76c0,0,83,0,131,49c0,0,48,48,48,117c0,0,0,54,-30,100c0,0,-31,47,-91,65L325,391L257,512c0,0,68,53,156,56c0,0,140,72,140,179c0,0,0,69,-52,99c0,0,-4,1,-11,1c-19,0,-66,-4,-123,-30c0,0,-78,-35,-142,-96L150,823c0,0,119,117,253,117c0,0,98,0,175,-71c0,0,77,-70,77,-159c0,0,0,-103,-94,-180c0,0,39,-23,73,-56c0,0,52,-22,109,-22c0,0,77,0,126,38V822H727l-46,76l14,31h840l46,-76l-13,-31H1332l66,-58V-39l-37,-10L1271,8V822H930l66,-58V-39L959,-49Z"
id="f6_am"
transform="scale(0.001,-0.001)"/>

<path d="M325,240c0,0,77,0,154,35c0,0,77,35,120,99V500c0,0,-118,73,-222,73c0,0,-97,0,-151,-54c0,0,-53,-53,-53,-128c0,0,0,-73,49,-125c0,0,38,-26,103,-26ZM689,-49L599,8V199c0,0,-73,-65,-179,-65c0,0,-134,0,-252,96c0,0,-118,95,-118,221c0,0,0,102,78,171c0,0,78,69,190,69c0,0,38,0,75,-10L599,582V822H0l-45,76l14,31H863l46,-76L895,822H660l66,-58V-39L689,-49Z"
id="f6_c7"
transform="scale(0.001,-0.001)"/>

<path d="M228,-49L138,8V822H0l-45,76l14,31H119L-33,1144c0,0,-70,92,-157,92c0,0,-69,0,-159,-58l-72,118c0,0,89,73,181,73c0,0,140,0,257,-170L205,929H402l46,-76L434,822H199l65,-58V-39L228,-49Z"
id="f6_d8"
transform="scale(0.001,-0.001)"/>

<path d="M663,-49L573,8V445H299V280L226,251c0,0,-105,99,-162,238l63,72H573V822H0l-45,76l14,31H837l46,-76L869,822H634l66,-58V-39L663,-49Z"
id="f6_bt"
transform="scale(0.001,-0.001)"/>

<path d="M396,318c0,0,123,0,203,108V822H180l66,-58V408c0,0,49,-90,150,-90ZM176,-66L79,9L379,228c0,0,-106,23,-181,119c0,0,-76,96,-79,198V822H0l-45,76l14,31H863l46,-76L895,822H660l66,-58V-39L689,-49L599,8V269L176,-66Z"
id="f6_e6"
transform="scale(0.001,-0.001)"/>

<path d="M823,-49L733,8V339H445V191L371,160c0,0,-56,36,-120,105c0,0,-63,70,-89,131l41,59H313V735c0,0,0,99,-55,140c0,0,-3,1,-8,1c-16,0,-48,-3,-71,-23c0,0,-31,-26,-31,-66c0,0,0,-69,81,-113L189,620C189,620,31,720,31,828c0,0,0,61,45,99c0,0,46,37,109,37c0,0,96,0,173,-86c0,0,76,-87,79,-194V455H733V822H556l-46,76l14,31H998l45,-76l-13,-31H794l66,-58V-39L823,-49Z"
id="f6_by"
transform="scale(0.001,-0.001)"/>

<path d="M-234,-413c0,0,-210,0,-488,322l54,49c0,0,119,-128,209,-193c0,0,90,-65,177,-65c0,0,72,0,113,40c0,0,42,39,42,91c0,0,0,75,-78,106L-323,-181l-90,98c0,0,63,95,167,95c0,0,90,0,155,-69c0,0,66,-70,66,-164c0,0,0,-85,-60,-139c0,0,-61,-53,-149,-53Z"
id="f6_cw"
transform="scale(0.001,-0.001)"/>

<path d="M845,-49L755,8V513H497c0,0,61,-45,93,-110c0,0,33,-64,33,-128c0,0,0,-90,-58,-144c0,0,-59,-53,-143,-53c0,0,-133,0,-234,139C188,217,87,356,20,596l76,24c0,0,60,-201,127,-306c0,0,67,-105,160,-105c0,0,57,0,91,36c0,0,33,36,33,91c0,0,0,84,-73,159L295,558v71H755V822H0l-45,76l14,31H1019l46,-76l-14,-31H816l66,-58V-39L845,-49Z"
id="f6_bg"
transform="scale(0.001,-0.001)"/>

<path d="M92,380L46,457l14,30H448l45,-76L480,380Z"
id="f6_pd"
transform="scale(0.001,-0.001)"/>

<path d="M290,-236c0,0,-253,348,-253,685c0,0,0,342,270,669l80,-39c0,0,-207,-311,-207,-622c0,0,0,-326,193,-652l-83,-41Z"
id="f6_g"
transform="scale(0.001,-0.001)"/>

<path d="M634,-49L249,296c0,0,-1,0,-3,0c-11,0,-48,1,-90,15c0,0,-51,16,-67,36l49,165l50,12l84,-98c0,0,125,31,191,104c0,0,66,73,66,165c0,0,0,109,-95,170c0,0,-2,0,-6,0C397,865,262,858,121,738L46,848c0,0,52,47,127,82c0,0,75,34,152,34c0,0,130,0,226,-94c0,0,95,-94,95,-218c0,0,0,-107,-77,-199c0,0,-77,-92,-216,-134L697,26L698,0L634,-49Z"
id="f6_n8"
transform="scale(0.001,-0.001)"/>

<path d="M130,-236l-83,41c0,0,193,326,193,652c0,0,0,311,-206,622l79,39c0,0,270,-327,270,-669c0,0,0,-337,-253,-685Z"
id="f6_h"
transform="scale(0.001,-0.001)"/>

<path d="M675,-274L602,21C602,21,550,3,498,3C498,3,347,3,210,118C210,118,73,232,73,373c0,0,0,113,84,184c0,0,84,71,222,72H524V822H0l-45,76l14,31H834l46,-76L866,822H585l66,-58V504l-3,2l3,-3H408c0,0,-95,0,-154,-53c0,0,-58,-53,-58,-132c0,0,0,-49,27,-100c0,0,28,-50,83,-84c0,0,44,-15,96,-15c0,0,91,0,160,46L535,303l101,48L773,188c0,0,-8,-28,-34,-66c0,0,-27,-38,-62,-64L813,-221L675,-274Z"
id="f6_br"
transform="scale(0.001,-0.001)"/>

<path d="M513,460c0,0,61,81,61,179c0,0,0,87,-45,143c0,0,-45,57,-116,57c0,0,-63,0,-102,-43c0,0,-39,-43,-39,-110c0,0,0,-90,68,-151c0,0,68,-61,173,-75ZM581,-83L278,167l-41,-4c0,0,-99,0,-130,37l47,168l51,12l78,-79c0,0,110,40,183,105c0,0,-141,23,-231,107c0,0,-90,84,-90,193c0,0,0,69,37,116H0l-45,76l14,31H1134l45,-76l-13,-31H930l66,-58V-39L959,-49L869,8V822H588c0,0,51,-44,75,-109c0,0,25,-64,25,-122c0,0,0,-105,-81,-213c0,0,-80,-108,-240,-176L658,18l2,-25L581,-83Z"
id="f6_c8"
transform="scale(0.001,-0.001)"/>

<path d="M-239,897c0,0,-82,61,-132,137c0,0,-50,75,-50,150c0,0,0,78,52,133c0,0,52,55,141,55c0,0,98,0,176,-64l-23,-69c0,0,-52,32,-104,32c0,0,-57,0,-95,-36c0,0,-38,-36,-38,-95c0,0,0,-115,117,-217l-44,-26Z"
id="f6_dr"
transform="scale(0.001,-0.001)"/>

<path d="M283,260c0,0,122,0,209,113V513c0,0,-90,51,-160,51c0,0,-80,0,-129,-50c0,0,-49,-50,-49,-118c0,0,0,-60,35,-110c0,0,45,-26,94,-26ZM582,-49L492,8V211c0,0,-63,-54,-141,-54c0,0,-113,0,-213,92c0,0,-100,92,-100,205c0,0,0,93,69,157c0,0,69,64,162,64c0,0,32,0,64,-9L492,590V822H0l-45,76l14,31H1108l45,-76l-13,-31H553l66,-58V524c0,0,91,89,192,89c0,0,98,0,171,-79c0,0,72,-79,72,-186c0,0,0,-178,-224,-330L736,124c0,0,219,153,219,269c0,0,0,44,-26,75c0,0,-26,32,-81,32c0,0,-109,0,-229,-155V-39L582,-49Z"
id="f6_b9"
transform="scale(0.001,-0.001)"/>

<path d="M-214,863l-199,281c0,0,-70,92,-157,92c0,0,-69,0,-159,-58l-72,118c0,0,89,73,180,73c0,0,141,0,258,-170L-155,901l-59,-38Z"
id="f6_d4"
transform="scale(0.001,-0.001)"/>

<path d="M347,-57C347,-57,66,211,66,394c0,0,0,98,74,164c0,0,74,65,225,65H616V822H0l-45,76l14,31H880l46,-76L912,822H677l66,-58V-39L706,-49L616,8V500H428c0,0,-239,0,-239,-161c0,0,0,-136,214,-343L347,-57Z"
id="f6_bp"
transform="scale(0.001,-0.001)"/>

<path d="M413,-59C413,-59,53,193,53,416c0,0,0,97,66,164c0,0,66,66,156,66c0,0,61,0,110,-30L487,507c0,0,92,126,257,126l35,-2V822H0l-45,76l14,31H1043l46,-76l-13,-31H840l66,-58V-39L869,-49L779,8V547c0,0,-101,-5,-165,-90c0,0,-64,-86,-70,-222L507,225l-90,73c0,0,5,79,35,151c0,0,-59,66,-128,66c0,0,-57,0,-100,-38c0,0,-44,-39,-44,-109c0,0,0,-165,284,-360L413,-59Z"
id="f6_c3"
transform="scale(0.001,-0.001)"/>

<path d="M799,475V822H350l66,-55V564c0,0,0,-43,-25,-89ZM527,-71L52,414l34,92H277c0,0,12,32,12,72V822H0l-45,76l14,31H1063l46,-76l-14,-31H860l66,-58V-39L889,-49L799,8V370H315L264,316L610,34L611,8L527,-71Z"
id="f6_cb"
transform="scale(0.001,-0.001)"/>

<path d="M761,293c0,0,127,0,169,94V532c0,0,-68,46,-145,46c0,0,-76,0,-121,-46c0,0,-45,-45,-45,-107c0,0,0,-61,44,-110c0,0,47,-22,98,-22ZM657,67c0,0,166,0,273,107v55c0,0,-45,-36,-111,-36c0,0,-110,0,-207,90c0,0,-97,90,-97,194c0,0,0,85,66,148c0,0,65,63,155,63l48,-5L930,603V822H376l62,-55V579c0,0,0,-60,-23,-102c0,0,-24,-42,-148,-190c0,0,66,-104,175,-162c0,0,108,-58,215,-58ZM1021,-49L930,8V53c0,0,-105,-83,-264,-83c0,0,-177,0,-339,128C327,98,165,226,90,429l34,77H296c0,0,19,39,19,102l-2,214H0l-45,76l14,31H1195l46,-76l-14,-31H992l65,-58V-39l-36,-10Z"
id="f6_ba"
transform="scale(0.001,-0.001)"/>

<path d="M547,-285c0,0,-66,25,-102,80c0,0,32,69,82,101c0,0,55,-20,99,-80c0,0,-26,-67,-79,-101Zm1,228c0,0,-122,0,-243,81c0,0,-122,81,-252,280l57,41C110,345,283,64,498,64c0,0,92,0,153,49c0,0,61,49,61,121c0,0,0,46,-28,84L440,237c0,0,-73,11,-139,55c0,0,-66,44,-105,105c0,0,-40,61,-40,119c0,0,0,72,62,125c0,0,62,53,184,53H625V822H0l-45,76l14,31H906l46,-76L938,822H678l66,-58V562H431c0,0,-164,0,-164,-99c0,0,0,-55,57,-102l261,82c0,0,104,-21,172,-98c0,0,68,-78,68,-171c0,0,0,-99,-76,-166c0,0,-77,-65,-201,-65Z"
id="f6_ch"
transform="scale(0.001,-0.001)"/>

<path d="M527,-71L52,414l34,92H277c0,0,12,32,12,72V822H0l-45,76l14,31H940l45,-76L972,822H350l66,-55V570c0,0,146,98,247,98c0,0,95,0,167,-73c0,0,71,-72,71,-167c0,0,0,-77,-53,-142c0,0,-54,-64,-159,-136l-89,99c0,0,100,70,152,121c0,0,52,52,52,105c0,0,0,34,-23,60c0,0,-22,26,-72,26c0,0,-139,0,-434,-252L610,34L611,8L527,-71Z"
id="f6_n0"
transform="scale(0.001,-0.001)"/>

<path d="M689,445V822H286l65,-58l8,-319ZM779,-49L689,8V328H370V180L296,150c0,0,-56,35,-120,104c0,0,-63,70,-89,131l41,60H238L223,822H0l-45,76l14,31H953l46,-76L985,822H750l66,-58V-39L779,-49Z"
id="f6_bz"
transform="scale(0.001,-0.001)"/>

<path d="M252,385l310,78l22,-9c0,0,107,-43,200,-43c0,0,91,0,151,41V822H603l66,-58V585H373c0,0,-184,0,-184,-99c0,0,0,-48,63,-101ZM483,-305L295,-10c0,0,-90,22,-156,74l41,170h66L351,63c0,0,126,4,207,62c0,0,82,58,82,139c0,0,0,37,-18,71L365,266c0,0,-110,15,-197,102c0,0,-87,87,-87,176c0,0,0,69,59,117c0,0,59,48,172,48H550V822H0l-45,76l14,31H1199l46,-76l-14,-31H996l66,-58V-39l-37,-10L935,8V318c0,0,-41,-15,-78,-15c0,0,-52,0,-131,30c0,0,32,-55,32,-111c0,0,0,-109,-98,-179c0,0,-98,-69,-254,-69L599,-216L483,-305Z"
id="f6_bh"
transform="scale(0.001,-0.001)"/>

<path d="M-253,-363c0,0,-194,0,-440,288l48,52c0,0,108,-118,192,-176c0,0,83,-58,159,-58c0,0,64,0,101,36c0,0,37,37,37,85c0,0,0,68,-65,91L-327,-152l-83,89c0,0,54,86,153,86c0,0,81,0,140,-61c0,0,58,-62,58,-146c0,0,0,-78,-55,-128c0,0,-55,-51,-139,-51Z"
id="f6_oe"
transform="scale(0.001,-0.001)"/>

<path d="M688,-243c0,0,-256,53,-408,173c0,0,-152,119,-152,270c0,0,0,101,68,171c0,0,-101,84,-101,179c0,0,0,64,53,112c0,0,54,47,191,47H587V822H0l-45,76l14,31H830l45,-76L862,822H640l66,-58V585H362c0,0,-159,-1,-159,-92c0,0,0,-41,46,-80c0,0,76,47,183,47c0,0,135,0,230,-76c0,0,96,-75,96,-187C758,197,758,67,629,2L545,104c0,0,49,30,81,75c0,0,32,44,32,82c0,0,0,16,-4,26c0,0,-64,58,-167,58c0,0,-97,0,-166,-50v-2c0,0,-67,-52,-67,-131c0,0,0,-116,132,-199c0,0,132,-84,334,-132l-32,-74Z"
id="f6_cc"
transform="scale(0.001,-0.001)"/>

<path d="M483,-305L295,-10c0,0,-90,22,-156,74l41,170h66L351,63c0,0,126,4,207,62c0,0,82,58,82,139c0,0,0,37,-18,71L365,266c0,0,-110,15,-197,102c0,0,-87,87,-87,176c0,0,0,69,59,117c0,0,59,48,172,48H550V822H0l-45,76l14,31H550c0,0,-142,122,-142,255c0,0,0,78,52,133c0,0,52,55,140,55c0,0,98,0,176,-64l-23,-69c0,0,-53,32,-104,32c0,0,-56,0,-94,-36c0,0,-39,-36,-39,-95c0,0,0,-109,112,-211H822l46,-76L854,822H603l66,-58V585H373c0,0,-184,0,-184,-99c0,0,0,-48,63,-101l310,78c0,0,86,-34,141,-99c0,0,55,-65,55,-142c0,0,0,-109,-98,-179c0,0,-98,-69,-254,-69L599,-216L483,-305Z"
id="f6_ao"
transform="scale(0.001,-0.001)"/>

<path d="M-40,1030c0,0,-28,10,-61,36c0,0,-34,26,-51,49c0,0,38,81,90,110c0,0,61,-23,106,-85c0,0,-27,-71,-84,-110ZM-214,860l-227,219c0,0,-73,70,-148,70c0,0,-67,0,-160,-58l-72,117c0,0,83,71,176,71c0,0,120,0,232,-124L-221,940l-102,294c0,0,-64,179,-189,179c0,0,-60,0,-133,-33l-60,125c0,0,84,47,164,47c0,0,200,0,281,-276L-150,901l-23,-15l-41,-26Z"
id="f6_p3"
transform="scale(0.001,-0.001)"/>

<path d="M108,-433L-59,-214c0,0,-99,119,-191,119c0,0,-59,0,-96,-35c0,0,-36,-34,-36,-81c0,0,0,-49,42,-83l152,95l64,-116c0,0,-71,-58,-148,-58c0,0,-80,0,-146,63c0,0,-65,64,-65,144c0,0,0,77,62,131c0,0,61,53,142,53c0,0,138,0,296,-205L165,-393l-57,-40Z"
id="f6_cx"
transform="scale(0.001,-0.001)"/>

<path d="M-233,1021c0,0,-84,0,-168,55c0,0,-84,56,-146,162l51,50c0,0,95,-162,219,-162c0,0,125,0,160,157L-7,1234c0,0,-21,-103,-81,-158c0,0,-61,-55,-145,-55Zm-41,201c0,0,-66,25,-102,80c0,0,32,68,82,101c0,0,55,-20,99,-80c0,0,-26,-67,-79,-101Z"
id="f6_di"
transform="scale(0.001,-0.001)"/>

<path d="M228,-49L138,8V822H0l-45,76l14,31H134c0,0,-91,92,-91,191c0,0,0,105,85,170c0,0,84,65,219,65c0,0,128,0,293,-76c0,0,165,-77,362,-263L958,966c0,0,-177,143,-303,210c0,0,-125,68,-244,68c0,0,-107,0,-175,-50c0,0,-68,-50,-68,-131c0,0,0,-61,49,-134H402l46,-76L434,822H199l65,-58V-39L228,-49Z"
id="f6_cu"
transform="scale(0.001,-0.001)"/>

<path d="M487,-7c0,0,-88,0,-185,46c0,0,-97,47,-163,130c0,0,-66,83,-66,185c0,0,0,109,80,177c0,0,79,68,234,68H504V822H0l-45,76l14,31H827l45,-76L859,822H565l66,-58V474l-3,1l3,-3H396c0,0,-100,0,-152,-47c0,0,-53,-48,-53,-119c0,0,0,-104,93,-178c0,0,60,-20,118,-20c0,0,81,0,156,36c0,0,76,35,123,99l92,-99C773,144,723,70,645,31C645,31,567,-7,487,-7Z"
id="f6_bk"
transform="scale(0.001,-0.001)"/>

<path d="M374,248c0,0,77,0,149,36c0,0,71,37,110,107V822H284c0,0,138,-96,138,-208c0,0,0,-151,-228,-192c0,0,29,-104,89,-158c0,0,41,-16,91,-16ZM723,-49L633,8V200c0,0,-69,-56,-170,-56c0,0,-122,0,-240,94c0,0,-118,94,-179,237l20,55c0,0,133,17,187,44c0,0,55,28,55,84c0,0,0,45,-30,81c0,0,-30,36,-99,83H0l-45,76l14,31H897l46,-76L929,822H694l65,-58V-39L723,-49Z"
id="f6_c0"
transform="scale(0.001,-0.001)"/>

<path d="M727,-49L637,8V822H278l66,-58V226L270,196c0,0,-64,36,-122,98c0,0,-58,62,-79,122l43,59H217V822H0l-45,76l14,31H901l46,-76L933,822H698l66,-58V-39L727,-49Z"
id="f6_bb"
transform="scale(0.001,-0.001)"/>

<path d="M-214,863l-199,281c0,0,-70,92,-157,92c0,0,-69,0,-159,-58l-72,118c0,0,89,73,180,73c0,0,136,0,251,-159l59,-84l-3,34c0,0,0,76,53,127c0,0,53,51,129,51c0,0,93,0,163,-91L5,1195c0,0,-51,33,-102,33c0,0,-62,0,-101,-38c0,0,-39,-38,-39,-102c0,0,0,-83,96,-197l-20,-28Z"
id="f6_p0"
transform="scale(0.001,-0.001)"/>

<path d="M900,298c0,0,32,73,32,159c0,0,0,110,-38,160c0,0,-40,31,-81,31c0,0,-48,0,-80,-35c0,0,-33,-35,-33,-89c0,0,0,-118,200,-226ZM588,-60c0,0,-154,0,-274,93c0,0,-120,94,-120,207c0,0,0,50,28,92C222,332,61,440,61,552c0,0,0,71,56,122c0,0,56,50,169,50H417l64,-98L463,600H333c0,0,-157,-1,-157,-99c0,0,0,-59,88,-124c0,0,68,52,164,52c0,0,38,0,79,-9l71,-88L558,299c0,0,-46,10,-81,10c0,0,-75,0,-116,-36c0,0,-40,-36,-40,-88c0,0,0,-78,73,-130c0,0,54,-17,109,-17c0,0,114,0,211,54c0,0,97,53,154,145c0,0,-156,96,-223,173c0,0,-67,77,-67,155c0,0,0,72,48,124c0,0,48,52,126,55v78H0l-45,76l14,31H1123l46,-76l-14,-31H805l66,-58V717c0,0,76,-40,124,-124c0,0,47,-84,47,-193c0,0,0,-188,-133,-324C909,76,776,-60,588,-60Z"
id="f6_bf"
transform="scale(0.001,-0.001)"/>

<path d="M228,-49L138,8V822H0l-45,76l14,31H134c0,0,-91,93,-91,202c0,0,0,105,85,170c0,0,86,65,236,65c0,0,340,0,742,-350l-50,-46c0,0,-182,135,-340,208c0,0,-158,73,-302,73c0,0,-113,0,-183,-48c0,0,-69,-48,-69,-132c0,0,0,-63,53,-142H402l46,-76L434,822H199l65,-58V-39L228,-49Z"
id="f6_nt"
transform="scale(0.001,-0.001)"/>

<path d="M0,822l-45,76l14,31H38L84,853L70,822Z"
id="f6_nl"
transform="scale(0.001,-0.001)"/>

<path d="M827,-49L736,8V205c0,0,-84,-84,-209,-84c0,0,-130,0,-237,91c0,0,-108,92,-108,196c0,0,0,79,61,137C243,545,66,672,66,791c0,0,0,75,52,124c0,0,53,49,134,49c0,0,164,0,260,-237L451,694c0,0,-55,114,-119,163l-31,5c0,0,-44,0,-77,-32c0,0,-33,-31,-33,-78c0,0,0,-86,113,-165c0,0,60,27,133,27l67,-4l75,-89L564,490l-51,7H493c0,0,-90,0,-142,-43c0,0,-52,-43,-52,-104c0,0,0,-60,51,-109c0,0,33,-16,84,-16c0,0,89,0,177,47c0,0,89,47,125,137V822H567l-46,76l14,31h466l46,-76l-14,-31H798l65,-58V-39L827,-49Z"
id="f6_bs"
transform="scale(0.001,-0.001)"/>

<path d="M819,-521L651,-303c0,0,-99,119,-191,119c0,0,-60,0,-96,-34c0,0,-37,-35,-37,-82c0,0,0,-49,43,-82l151,94l64,-116c0,0,-70,-58,-148,-58c0,0,-79,0,-145,64c0,0,-66,63,-66,144c0,0,0,98,90,151c0,0,-203,131,-203,306c0,0,0,101,69,170c0,0,-103,88,-103,179c0,0,0,64,57,110c0,0,57,47,196,47H571V822H0l-45,76l14,31H830l45,-76L862,822H625l66,-58V585H364c0,0,-176,0,-176,-96c0,0,0,-41,44,-76c0,0,81,47,185,47c0,0,135,0,230,-76c0,0,96,-75,96,-187C743,197,743,67,614,2L530,104c0,0,49,30,81,75c0,0,32,44,32,82c0,0,0,16,-4,26c0,0,-65,58,-167,58c0,0,-98,0,-166,-50v-2c0,0,-68,-52,-68,-131c0,0,0,-134,188,-231c0,0,84,0,164,-62c0,0,79,-62,195,-222l90,-129l-56,-39Z"
id="f6_n5"
transform="scale(0.001,-0.001)"/>

<path d="M548,-57c0,0,-122,0,-243,81c0,0,-122,81,-252,280l57,41C110,345,283,64,498,64c0,0,92,0,153,49c0,0,61,49,61,121c0,0,0,46,-28,84L440,237c0,0,-73,11,-139,55c0,0,-66,44,-105,105c0,0,-40,61,-40,119c0,0,0,72,62,125c0,0,62,53,184,53H625V822H0l-45,76l14,31H906l46,-76L938,822H678l66,-58V562H431c0,0,-164,0,-164,-99c0,0,0,-55,57,-102l261,82c0,0,104,-21,172,-98c0,0,68,-78,68,-171c0,0,0,-99,-76,-166c0,0,-77,-65,-201,-65Z"
id="f6_bm"
transform="scale(0.001,-0.001)"/>

<path d="M226,-49c0,0,-66,24,-102,78c0,0,32,69,82,101c0,0,55,-20,100,-80c0,0,-26,-66,-80,-99Z"
id="f6_pc"
transform="scale(0.001,-0.001)"/>

<path d="M388,325c0,0,58,0,112,31c0,0,53,31,84,86V822H165l69,-58V408c0,0,47,-83,154,-83ZM674,-49L584,8V257c0,0,-61,-51,-141,-51c0,0,-125,0,-232,109c0,0,-107,108,-107,243V822H0l-45,76l14,31H848l46,-76L880,822H645l65,-58V-39L674,-49Z"
id="f6_bv"
transform="scale(0.001,-0.001)"/>

<path d="M228,-49L138,8V822H0l-45,76l14,31H159L6,1144c0,0,-69,92,-156,92c0,0,-69,0,-159,-58l-72,118c0,0,89,73,180,73c0,0,136,0,250,-159l59,-84l-3,34c0,0,0,76,53,127c0,0,53,51,129,51c0,0,93,0,164,-91l-26,-52c0,0,-52,33,-103,33c0,0,-62,0,-101,-38c0,0,-39,-38,-39,-102c0,0,0,-72,66,-159H402l46,-76L434,822H199l65,-58V-39L228,-49Z"
id="f6_p6"
transform="scale(0.001,-0.001)"/>

<path d="M228,-49L138,8V822H0l-45,76l14,31H134c0,0,-85,93,-85,192c0,0,0,124,129,195c0,0,129,71,364,71c0,0,285,0,647,-97c0,0,363,-97,692,-271l-42,-50c0,0,-313,137,-644,221c0,0,-332,84,-595,84c0,0,-198,0,-314,-55c0,0,-115,-55,-115,-163c0,0,0,-60,44,-127H402l46,-76L434,822H199l65,-58V-39L228,-49Z"
id="f6_o0"
transform="scale(0.001,-0.001)"/>

<path d="M283,260c0,0,122,0,209,113V513c0,0,-90,51,-160,51c0,0,-80,0,-129,-50c0,0,-49,-50,-49,-118c0,0,0,-60,35,-110c0,0,45,-26,94,-26ZM582,-49L492,8V211c0,0,-63,-54,-141,-54c0,0,-113,0,-214,92c0,0,-102,92,-102,206c0,0,0,93,69,157c0,0,69,63,163,63c0,0,34,0,66,-9L492,590V822H0l-45,76l14,31H909l46,-76L941,822H553l66,-58V521c0,0,93,104,192,104c0,0,63,0,120,-42c0,0,57,-42,82,-106L964,431l-5,9c0,0,-38,72,-110,72c0,0,-51,0,-105,-41c0,0,-53,-42,-125,-129V-39L582,-49Z"
id="f6_l1"
transform="scale(0.001,-0.001)"/>

<path d="M527,-71L52,414l34,92H277c0,0,12,32,12,72V822H0l-45,76l14,31H654l46,-76L686,822H350l66,-55V564c0,0,0,-43,-25,-89H782L798,370H315L264,316L610,34L611,8L527,-71Z"
id="f6_m1"
transform="scale(0.001,-0.001)"/>

<path d="M61,-393c0,0,-156,214,-210,261c0,0,-55,47,-110,47c0,0,-53,0,-85,-29c0,0,-32,-30,-32,-71c0,0,0,-48,38,-80l137,87l58,-107c0,0,-67,-52,-134,-52c0,0,-73,0,-134,60c0,0,-60,60,-60,133c0,0,0,67,56,117c0,0,55,50,130,50c0,0,78,0,160,-69c0,0,82,-71,246,-309L61,-393Z"
id="f6_of"
transform="scale(0.001,-0.001)"/>

<path d="M558,-520c0,0,-210,0,-488,322l54,49c0,0,119,-128,209,-193c0,0,90,-65,177,-65c0,0,72,0,113,40c0,0,42,40,42,91c0,0,0,75,-78,106L469,-288l-90,98l27,37c0,0,-133,64,-213,155c0,0,-80,91,-80,201c0,0,0,101,69,170c0,0,-103,88,-103,179c0,0,0,64,57,110c0,0,57,47,196,47H571V822H0l-45,76l14,31H830l45,-76L862,822H625l66,-58V585H364c0,0,-176,0,-176,-96c0,0,0,-41,44,-76c0,0,81,47,185,47c0,0,135,0,230,-76c0,0,96,-75,96,-187C743,197,743,67,614,2L530,104c0,0,49,30,81,75c0,0,32,44,32,82c0,0,0,16,-4,26c0,0,-65,58,-167,58c0,0,-98,0,-166,-50v-2c0,0,-68,-52,-68,-131c0,0,0,-154,254,-263l53,7c0,0,91,0,156,-70c0,0,66,-70,66,-163c0,0,0,-86,-60,-139c0,0,-61,-54,-149,-54Z"
id="f6_n4"
transform="scale(0.001,-0.001)"/>

<path d="M471,-26c0,0,-259,0,-448,396l70,43C93,413,240,98,442,98c0,0,79,0,132,46c0,0,54,45,54,120c0,0,0,61,-38,116c0,0,-38,54,-107,72L322,370L255,492c0,0,66,53,156,56c0,0,128,51,128,153c0,0,0,77,-65,121H0l-45,76l14,31H813l46,-76L845,822H578c0,0,76,-66,76,-157c0,0,0,-95,-87,-156c0,0,84,-48,131,-123c0,0,48,-76,48,-158c0,0,0,-109,-78,-182c0,0,-78,-72,-197,-72Z"
id="f6_ap"
transform="scale(0.001,-0.001)"/>

<path d="M725,307c0,0,-95,0,-218,78c0,0,-123,78,-188,78c0,0,-54,0,-95,-34c0,0,-41,-34,-73,-100L93,362c0,0,38,88,101,146c0,0,63,59,148,59c0,0,90,0,214,-78c0,0,124,-79,188,-79c0,0,63,0,106,34c0,0,42,33,85,104l60,-40c0,0,-32,-66,-101,-134c0,0,-70,-67,-169,-67Z"
id="f7_4r"
transform="scale(0.001,-0.001)"/>

<path d="M46,0c0,0,-2,48,16,93c0,0,27,74,88,146c0,0,61,71,176,165c0,0,178,146,241,232c0,0,63,85,63,161c0,0,0,80,-57,135c0,0,-58,55,-149,55c0,0,-98,0,-156,-59c0,0,-58,-58,-59,-160L71,782c0,0,15,154,107,235c0,0,93,81,249,81c0,0,157,0,249,-87c0,0,92,-88,92,-217c0,0,0,-65,-27,-129c0,0,-27,-63,-89,-133c0,0,-62,-70,-207,-193C445,339,324,238,290,202c0,0,-35,-36,-57,-73H770V0Z"
id="f8_m"
transform="scale(0.001,-0.001)"/>

<path d="M435,0V856c0,0,-48,-47,-127,-93c0,0,-79,-46,-142,-69V824c0,0,113,52,197,128c0,0,85,75,120,146h86V0Z"
id="f8_l"
transform="scale(0.001,-0.001)"/>


</defs>
</svg>