<?xml version="1.0" encoding="UTF-8" standalone="no"?>
<!DOCTYPE svg PUBLIC "-//W3C//DTD SVG 1.1//EN"
"http://www.w3.org/Graphics/SVG/1.1/DTD/svg11.dtd">
<svg viewBox="0 0 641 909" version="1.1" xmlns="http://www.w3.org/2000/svg" xmlns:xlink="http://www.w3.org/1999/xlink">
<defs>
<clipPath id="c0_3"><path d="M0,869.7V39.3H641.7V869.7Z"/></clipPath>
<clipPath id="c1_3"><path d="M0,868.9V39.3H641.7V868.9Z"/></clipPath>
<clipPath id="c2_3"><path d="M76.3,146.3V115.6h57.4v30.7Z"/></clipPath>
<clipPath id="c3_3"><path d="M134.5,146.3V115.6H481.2v30.7Z"/></clipPath>
<clipPath id="c4_3"><path d="M482,146.3V115.6h84.2v30.7Z"/></clipPath>
<clipPath id="c5_3"><path d="M76.3,177.7V147.1h57.4v30.6Z"/></clipPath>
<clipPath id="c6_3"><path d="M134.5,177.7V147.1H481.2v30.6Z"/></clipPath>
<clipPath id="c7_3"><path d="M482,177.7V147.1h84.2v30.6Z"/></clipPath>
<clipPath id="c8_3"><path d="M76.3,209.2V178.5h57.4v30.7Z"/></clipPath>
<clipPath id="c9_3"><path d="M134.5,209.2V178.5H481.2v30.7Z"/></clipPath>
<clipPath id="ca_3"><path d="M482,209.2V178.5h84.2v30.7Z"/></clipPath>
<clipPath id="cb_3"><path d="M76.3,240.6V210h57.4v30.6Z"/></clipPath>
<clipPath id="cc_3"><path d="M134.5,240.6V210H481.2v30.6Z"/></clipPath>
<clipPath id="cd_3"><path d="M482,240.6V210h84.2v30.6Z"/></clipPath>
<clipPath id="ce_3"><path d="M76.3,272.1V241.4h57.4v30.7Z"/></clipPath>
<clipPath id="cf_3"><path d="M134.5,272.1V241.4H481.2v30.7Z"/></clipPath>
<clipPath id="cg_3"><path d="M482,272.1V241.4h84.2v30.7Z"/></clipPath>
<clipPath id="ch_3"><path d="M76.3,303.5V272.9h57.4v30.6Z"/></clipPath>
<clipPath id="ci_3"><path d="M134.5,303.5V272.9H481.2v30.6Z"/></clipPath>
<clipPath id="cj_3"><path d="M482,303.5V272.9h84.2v30.6Z"/></clipPath>
<clipPath id="ck_3"><path d="M76.3,335V304.3h57.4V335Z"/></clipPath>
<clipPath id="cl_3"><path d="M134.5,335V304.3H481.2V335Z"/></clipPath>
<clipPath id="cm_3"><path d="M482,335V304.3h84.2V335Z"/></clipPath>
<clipPath id="cn_3"><path d="M76.3,366.4V335.8h57.4v30.6Z"/></clipPath>
<clipPath id="co_3"><path d="M134.5,366.4V335.8H481.2v30.6Z"/></clipPath>
<clipPath id="cp_3"><path d="M482,366.4V335.8h84.2v30.6Z"/></clipPath>
<clipPath id="cq_3"><path d="M76.3,397.9V367.2h57.4v30.7Z"/></clipPath>
<clipPath id="cr_3"><path d="M134.5,397.9V367.2H481.2v30.7Z"/></clipPath>
<clipPath id="cs_3"><path d="M482,397.9V367.2h84.2v30.7Z"/></clipPath>
<clipPath id="ct_3"><path d="M76.3,429.4V398.7h57.4v30.7Z"/></clipPath>
<clipPath id="cu_3"><path d="M134.5,429.4V398.7H481.2v30.7Z"/></clipPath>
<clipPath id="cv_3"><path d="M482,429.4V398.7h84.2v30.7Z"/></clipPath>
<clipPath id="cw_3"><path d="M76.3,460.8V430.1h57.4v30.7Z"/></clipPath>
<clipPath id="cx_3"><path d="M134.5,460.8V430.1H481.2v30.7Z"/></clipPath>
<clipPath id="cy_3"><path d="M482,460.8V430.1h84.2v30.7Z"/></clipPath>
<clipPath id="cz_3"><path d="M76.3,492.3V461.6h57.4v30.7Z"/></clipPath>
<clipPath id="c10_3"><path d="M134.5,492.3V461.6H481.2v30.7Z"/></clipPath>
<clipPath id="c11_3"><path d="M482,492.3V461.6h84.2v30.7Z"/></clipPath>
<clipPath id="c12_3"><path d="M76.3,523.7V493h57.4v30.7Z"/></clipPath>
<clipPath id="c13_3"><path d="M134.5,523.7V493H481.2v30.7Z"/></clipPath>
<clipPath id="c14_3"><path d="M482,523.7V493h84.2v30.7Z"/></clipPath>
<clipPath id="c15_3"><path d="M76.3,555.2V524.5h57.4v30.7Z"/></clipPath>
<clipPath id="c16_3"><path d="M134.5,555.2V524.5H481.2v30.7Z"/></clipPath>
<clipPath id="c17_3"><path d="M482,555.2V524.5h84.2v30.7Z"/></clipPath>
<clipPath id="c18_3"><path d="M76.3,586.6V556h57.4v30.6Z"/></clipPath>
<clipPath id="c19_3"><path d="M134.5,586.6V556H481.2v30.6Z"/></clipPath>
<clipPath id="c1a_3"><path d="M482,586.6V556h84.2v30.6Z"/></clipPath>
<clipPath id="c1b_3"><path d="M76.3,618.1V587.4h57.4v30.7Z"/></clipPath>
<clipPath id="c1c_3"><path d="M134.5,618.1V587.4H481.2v30.7Z"/></clipPath>
<clipPath id="c1d_3"><path d="M482,618.1V587.4h84.2v30.7Z"/></clipPath>
<clipPath id="c1e_3"><path d="M76.3,649.5V618.9h57.4v30.6Z"/></clipPath>
<clipPath id="c1f_3"><path d="M134.5,649.5V618.9H481.2v30.6Z"/></clipPath>
<clipPath id="c1g_3"><path d="M482,649.5V618.9h84.2v30.6Z"/></clipPath>
<clipPath id="c1h_3"><path d="M76.3,681V650.3h57.4V681Z"/></clipPath>
<clipPath id="c1i_3"><path d="M134.5,681V650.3H481.2V681Z"/></clipPath>
<clipPath id="c1j_3"><path d="M482,681V650.3h84.2V681Z"/></clipPath>
<clipPath id="c1k_3"><path d="M76.3,712.4V681.8h57.4v30.6Z"/></clipPath>
<clipPath id="c1l_3"><path d="M134.5,712.4V681.8H481.2v30.6Z"/></clipPath>
<clipPath id="c1m_3"><path d="M482,712.4V681.8h84.2v30.6Z"/></clipPath>
<clipPath id="c1n_3"><path d="M76.3,743.9V713.2h57.4v30.7Z"/></clipPath>
<clipPath id="c1o_3"><path d="M134.5,743.9V713.2H481.2v30.7Z"/></clipPath>
<clipPath id="c1p_3"><path d="M482,743.9V713.2h84.2v30.7Z"/></clipPath>
<clipPath id="c1q_3"><path d="M76.3,775.3V744.7h57.4v30.6Z"/></clipPath>
<clipPath id="c1r_3"><path d="M134.5,775.3V744.7H481.2v30.6Z"/></clipPath>
<clipPath id="c1s_3"><path d="M482,775.3V744.7h84.2v30.6Z"/></clipPath>
<style type="text/css"><![CDATA[
.g0_3{
fill: #FFFFFF;
}
.g1_3{
fill: #E0F7FA;
}
.g2_3{
fill: #CCCCCC;
}
]]></style>
</defs>
<g clip-path="url(#c0_3)">
<path d="M0,-791H641.7V3360.9H0V-791Z" class="g0_3"/>
<path d="M0,-791H641.7V3360.9H0V-791Z" class="g0_3"/>
<path d="M0,39.3H641.7V868.9H0V39.3Z" class="g0_3"/>
</g>
<g clip-path="url(#c1_3)">
<path d="M0,114.8H641.7V869.7H0V114.8Z" class="g0_3"/>
</g>
<path d="M133.7,114.8H481.2v31.5H133.7V114.8Z" class="g0_3"/>
<path d="M133.7,146.3H481.2v31.4H133.7V146.3Z" class="g1_3"/>
<path d="M133.7,177.7H481.2v31.5H133.7V177.7Z" class="g0_3"/>
<path d="M133.7,209.2H481.2v31.4H133.7V209.2Z" class="g1_3"/>
<path d="M133.7,240.6H481.2v31.5H133.7V240.6Z" class="g0_3"/>
<path d="M133.7,272.1H481.2v31.4H133.7V272.1Z" class="g1_3"/>
<path d="M133.7,303.5H481.2V335H133.7V303.5Z" class="g0_3"/>
<path d="M133.7,335H481.2v31.4H133.7V335Z" class="g1_3"/>
<path d="M133.7,366.4H481.2v31.5H133.7V366.4Z" class="g0_3"/>
<path d="M133.7,397.9H481.2v31.5H133.7V397.9Z" class="g1_3"/>
<path d="M133.7,429.4H481.2v31.4H133.7V429.4Z" class="g0_3"/>
<path d="M133.7,460.8H481.2v31.5H133.7V460.8Z" class="g1_3"/>
<path d="M133.7,492.3H481.2v31.4H133.7V492.3Z" class="g0_3"/>
<path d="M133.7,523.7H481.2v31.5H133.7V523.7Z" class="g1_3"/>
<path d="M133.7,555.2H481.2v31.4H133.7V555.2Z" class="g0_3"/>
<path d="M133.7,586.6H481.2v31.5H133.7V586.6Z" class="g1_3"/>
<path d="M133.7,618.1H481.2v31.4H133.7V618.1Z" class="g0_3"/>
<path d="M133.7,649.5H481.2V681H133.7V649.5Z" class="g1_3"/>
<path d="M133.7,681H481.2v31.4H133.7V681Z" class="g0_3"/>
<path d="M133.7,712.4H481.2v31.5H133.7V712.4Z" class="g1_3"/>
<path d="M133.7,743.9H481.2v31.4H133.7V743.9Z" class="g0_3"/>
<path d="M481.2,775.3H567v.8H481.2v-.8Z" class="g2_3"/>
<path d="M566.2,743.9h.8v32.2h-.8V743.9Z" class="g2_3"/>
<path d="M133.7,775.3H482v.8H133.7v-.8Z" class="g2_3"/>
<path d="M481.2,743.9h.8v32.2h-.8V743.9Z" class="g2_3"/>
<path d="M75.5,775.3h59v.8h-59v-.8Z" class="g2_3"/>
<path d="M75.5,743.9h.8v32.2h-.8V743.9Z" class="g2_3"/>
<path d="M133.7,743.9h.8v32.2h-.8V743.9Z" class="g2_3"/>
<path d="M481.2,743.9H567v.8H481.2v-.8Z" class="g2_3"/>
<path d="M566.2,712.4h.8v32.3h-.8V712.4Z" class="g2_3"/>
<path d="M133.7,743.9H482v.8H133.7v-.8Z" class="g2_3"/>
<path d="M481.2,712.4h.8v32.3h-.8V712.4Z" class="g2_3"/>
<path d="M75.5,743.9h59v.8h-59v-.8Z" class="g2_3"/>
<path d="M75.5,712.4h.8v32.3h-.8V712.4Z" class="g2_3"/>
<path d="M133.7,712.4h.8v32.3h-.8V712.4Z" class="g2_3"/>
<path d="M481.2,712.4H567v.8H481.2v-.8Z" class="g2_3"/>
<path d="M566.2,681h.8v32.2h-.8V681Z" class="g2_3"/>
<path d="M133.7,712.4H482v.8H133.7v-.8Z" class="g2_3"/>
<path d="M481.2,681h.8v32.2h-.8V681Z" class="g2_3"/>
<path d="M75.5,712.4h59v.8h-59v-.8Z" class="g2_3"/>
<path d="M75.5,681h.8v32.2h-.8V681Z" class="g2_3"/>
<path d="M133.7,681h.8v32.2h-.8V681Z" class="g2_3"/>
<path d="M481.2,681H567v.8H481.2V681Z" class="g2_3"/>
<path d="M566.2,649.5h.8v32.3h-.8V649.5Z" class="g2_3"/>
<path d="M133.7,681H482v.8H133.7V681Z" class="g2_3"/>
<path d="M481.2,649.5h.8v32.3h-.8V649.5Z" class="g2_3"/>
<path d="M75.5,681h59v.8h-59V681Z" class="g2_3"/>
<path d="M75.5,649.5h.8v32.3h-.8V649.5Z" class="g2_3"/>
<path d="M133.7,649.5h.8v32.3h-.8V649.5Z" class="g2_3"/>
<path d="M481.2,649.5H567v.8H481.2v-.8Z" class="g2_3"/>
<path d="M566.2,618.1h.8v32.2h-.8V618.1Z" class="g2_3"/>
<path d="M133.7,649.5H482v.8H133.7v-.8Z" class="g2_3"/>
<path d="M481.2,618.1h.8v32.2h-.8V618.1Z" class="g2_3"/>
<path d="M75.5,649.5h59v.8h-59v-.8Z" class="g2_3"/>
<path d="M75.5,618.1h.8v32.2h-.8V618.1Z" class="g2_3"/>
<path d="M133.7,618.1h.8v32.2h-.8V618.1Z" class="g2_3"/>
<path d="M481.2,618.1H567v.8H481.2v-.8Z" class="g2_3"/>
<path d="M566.2,586.6h.8v32.3h-.8V586.6Z" class="g2_3"/>
<path d="M133.7,618.1H482v.8H133.7v-.8Z" class="g2_3"/>
<path d="M481.2,586.6h.8v32.3h-.8V586.6Z" class="g2_3"/>
<path d="M75.5,618.1h59v.8h-59v-.8Z" class="g2_3"/>
<path d="M75.5,586.6h.8v32.3h-.8V586.6Z" class="g2_3"/>
<path d="M133.7,586.6h.8v32.3h-.8V586.6Z" class="g2_3"/>
<path d="M481.2,586.6H567v.8H481.2v-.8Z" class="g2_3"/>
<path d="M566.2,555.2h.8v32.2h-.8V555.2Z" class="g2_3"/>
<path d="M133.7,586.6H482v.8H133.7v-.8Z" class="g2_3"/>
<path d="M481.2,555.2h.8v32.2h-.8V555.2Z" class="g2_3"/>
<path d="M75.5,586.6h59v.8h-59v-.8Z" class="g2_3"/>
<path d="M75.5,555.2h.8v32.2h-.8V555.2Z" class="g2_3"/>
<path d="M133.7,555.2h.8v32.2h-.8V555.2Z" class="g2_3"/>
<path d="M481.2,555.2H567v.8H481.2v-.8Z" class="g2_3"/>
<path d="M566.2,523.7h.8V556h-.8V523.7Z" class="g2_3"/>
<path d="M133.7,555.2H482v.8H133.7v-.8Z" class="g2_3"/>
<path d="M481.2,523.7h.8V556h-.8V523.7Z" class="g2_3"/>
<path d="M75.5,555.2h59v.8h-59v-.8Z" class="g2_3"/>
<path d="M75.5,523.7h.8V556h-.8V523.7Z" class="g2_3"/>
<path d="M133.7,523.7h.8V556h-.8V523.7Z" class="g2_3"/>
<path d="M481.2,523.7H567v.8H481.2v-.8Z" class="g2_3"/>
<path d="M566.2,492.3h.8v32.2h-.8V492.3Z" class="g2_3"/>
<path d="M133.7,523.7H482v.8H133.7v-.8Z" class="g2_3"/>
<path d="M481.2,492.3h.8v32.2h-.8V492.3Z" class="g2_3"/>
<path d="M75.5,523.7h59v.8h-59v-.8Z" class="g2_3"/>
<path d="M75.5,492.3h.8v32.2h-.8V492.3Z" class="g2_3"/>
<path d="M133.7,492.3h.8v32.2h-.8V492.3Z" class="g2_3"/>
<path d="M481.2,492.3H567v.7H481.2v-.7Z" class="g2_3"/>
<path d="M566.2,460.8h.8V493h-.8V460.8Z" class="g2_3"/>
<path d="M133.7,492.3H482v.7H133.7v-.7Z" class="g2_3"/>
<path d="M481.2,460.8h.8V493h-.8V460.8Z" class="g2_3"/>
<path d="M75.5,492.3h59v.7h-59v-.7Z" class="g2_3"/>
<path d="M75.5,460.8h.8V493h-.8V460.8Z" class="g2_3"/>
<path d="M133.7,460.8h.8V493h-.8V460.8Z" class="g2_3"/>
<path d="M481.2,460.8H567v.8H481.2v-.8Z" class="g2_3"/>
<path d="M566.2,429.4h.8v32.2h-.8V429.4Z" class="g2_3"/>
<path d="M133.7,460.8H482v.8H133.7v-.8Z" class="g2_3"/>
<path d="M481.2,429.4h.8v32.2h-.8V429.4Z" class="g2_3"/>
<path d="M75.5,460.8h59v.8h-59v-.8Z" class="g2_3"/>
<path d="M75.5,429.4h.8v32.2h-.8V429.4Z" class="g2_3"/>
<path d="M133.7,429.4h.8v32.2h-.8V429.4Z" class="g2_3"/>
<path d="M481.2,429.4H567v.7H481.2v-.7Z" class="g2_3"/>
<path d="M566.2,397.9h.8v32.2h-.8V397.9Z" class="g2_3"/>
<path d="M133.7,429.4H482v.7H133.7v-.7Z" class="g2_3"/>
<path d="M481.2,397.9h.8v32.2h-.8V397.9Z" class="g2_3"/>
<path d="M75.5,429.4h59v.7h-59v-.7Z" class="g2_3"/>
<path d="M75.5,397.9h.8v32.2h-.8V397.9Z" class="g2_3"/>
<path d="M133.7,397.9h.8v32.2h-.8V397.9Z" class="g2_3"/>
<path d="M481.2,397.9H567v.8H481.2v-.8Z" class="g2_3"/>
<path d="M566.2,366.4h.8v32.3h-.8V366.4Z" class="g2_3"/>
<path d="M133.7,397.9H482v.8H133.7v-.8Z" class="g2_3"/>
<path d="M481.2,366.4h.8v32.3h-.8V366.4Z" class="g2_3"/>
<path d="M75.5,397.9h59v.8h-59v-.8Z" class="g2_3"/>
<path d="M75.5,366.4h.8v32.3h-.8V366.4Z" class="g2_3"/>
<path d="M133.7,366.4h.8v32.3h-.8V366.4Z" class="g2_3"/>
<path d="M481.2,366.4H567v.8H481.2v-.8Z" class="g2_3"/>
<path d="M566.2,335h.8v32.2h-.8V335Z" class="g2_3"/>
<path d="M133.7,366.4H482v.8H133.7v-.8Z" class="g2_3"/>
<path d="M481.2,335h.8v32.2h-.8V335Z" class="g2_3"/>
<path d="M75.5,366.4h59v.8h-59v-.8Z" class="g2_3"/>
<path d="M75.5,335h.8v32.2h-.8V335Z" class="g2_3"/>
<path d="M133.7,335h.8v32.2h-.8V335Z" class="g2_3"/>
<path d="M481.2,335H567v.8H481.2V335Z" class="g2_3"/>
<path d="M566.2,303.5h.8v32.3h-.8V303.5Z" class="g2_3"/>
<path d="M133.7,335H482v.8H133.7V335Z" class="g2_3"/>
<path d="M481.2,303.5h.8v32.3h-.8V303.5Z" class="g2_3"/>
<path d="M75.5,335h59v.8h-59V335Z" class="g2_3"/>
<path d="M75.5,303.5h.8v32.3h-.8V303.5Z" class="g2_3"/>
<path d="M133.7,303.5h.8v32.3h-.8V303.5Z" class="g2_3"/>
<path d="M481.2,303.5H567v.8H481.2v-.8Z" class="g2_3"/>
<path d="M566.2,272.1h.8v32.2h-.8V272.1Z" class="g2_3"/>
<path d="M133.7,303.5H482v.8H133.7v-.8Z" class="g2_3"/>
<path d="M481.2,272.1h.8v32.2h-.8V272.1Z" class="g2_3"/>
<path d="M75.5,303.5h59v.8h-59v-.8Z" class="g2_3"/>
<path d="M75.5,272.1h.8v32.2h-.8V272.1Z" class="g2_3"/>
<path d="M133.7,272.1h.8v32.2h-.8V272.1Z" class="g2_3"/>
<path d="M481.2,272.1H567v.8H481.2v-.8Z" class="g2_3"/>
<path d="M566.2,240.6h.8v32.3h-.8V240.6Z" class="g2_3"/>
<path d="M133.7,272.1H482v.8H133.7v-.8Z" class="g2_3"/>
<path d="M481.2,240.6h.8v32.3h-.8V240.6Z" class="g2_3"/>
<path d="M75.5,272.1h59v.8h-59v-.8Z" class="g2_3"/>
<path d="M75.5,240.6h.8v32.3h-.8V240.6Z" class="g2_3"/>
<path d="M133.7,240.6h.8v32.3h-.8V240.6Z" class="g2_3"/>
<path d="M481.2,240.6H567v.8H481.2v-.8Z" class="g2_3"/>
<path d="M566.2,209.2h.8v32.2h-.8V209.2Z" class="g2_3"/>
<path d="M133.7,240.6H482v.8H133.7v-.8Z" class="g2_3"/>
<path d="M481.2,209.2h.8v32.2h-.8V209.2Z" class="g2_3"/>
<path d="M75.5,240.6h59v.8h-59v-.8Z" class="g2_3"/>
<path d="M75.5,209.2h.8v32.2h-.8V209.2Z" class="g2_3"/>
<path d="M133.7,209.2h.8v32.2h-.8V209.2Z" class="g2_3"/>
<path d="M481.2,209.2H567v.8H481.2v-.8Z" class="g2_3"/>
<path d="M566.2,177.7h.8V210h-.8V177.7Z" class="g2_3"/>
<path d="M133.7,209.2H482v.8H133.7v-.8Z" class="g2_3"/>
<path d="M481.2,177.7h.8V210h-.8V177.7Z" class="g2_3"/>
<path d="M75.5,209.2h59v.8h-59v-.8Z" class="g2_3"/>
<path d="M75.5,177.7h.8V210h-.8V177.7Z" class="g2_3"/>
<path d="M133.7,177.7h.8V210h-.8V177.7Z" class="g2_3"/>
<path d="M481.2,177.7H567v.8H481.2v-.8Z" class="g2_3"/>
<path d="M566.2,146.3h.8v32.2h-.8V146.3Z" class="g2_3"/>
<path d="M133.7,177.7H482v.8H133.7v-.8Z" class="g2_3"/>
<path d="M481.2,146.3h.8v32.2h-.8V146.3Z" class="g2_3"/>
<path d="M75.5,177.7h59v.8h-59v-.8Z" class="g2_3"/>
<path d="M75.5,146.3h.8v32.2h-.8V146.3Z" class="g2_3"/>
<path d="M133.7,146.3h.8v32.2h-.8V146.3Z" class="g2_3"/>
<path d="M481.2,114.8H567v.8H481.2v-.8Z" class="g2_3"/>
<path d="M481.2,146.3H567v.8H481.2v-.8Z" class="g2_3"/>
<path d="M566.2,114.8h.8v32.3h-.8V114.8Z" class="g2_3"/>
<path d="M133.7,114.8H482v.8H133.7v-.8Z" class="g2_3"/>
<path d="M133.7,146.3H482v.8H133.7v-.8Z" class="g2_3"/>
<path d="M481.2,114.8h.8v32.3h-.8V114.8Z" class="g2_3"/>
<path d="M75.5,114.8h59v.8h-59v-.8Z" class="g2_3"/>
<path d="M75.5,146.3h59v.8h-59v-.8Z" class="g2_3"/>
<path d="M75.5,114.8h.8v32.3h-.8V114.8Z" class="g2_3"/>
<path d="M133.7,114.8h.8v32.3h-.8V114.8Z" class="g2_3"/>
<g clip-path="url(#c2_3)">
<g fill="#000000" >
<use xlink:href="#f1_p" transform="matrix(12.4,0,0,12.4,114,136)" />
<use xlink:href="#f1_w" transform="matrix(12.4,0,0,12.4,121.7,136)" />
</g>
</g>
<g clip-path="url(#c3_3)">
<g fill="#000000" >
<use xlink:href="#f1_am" transform="matrix(12.4,0,0,12.4,136,136)" />
<use xlink:href="#f1_c7" transform="matrix(12.4,0,0,12.4,155,136)" />
<use xlink:href="#f1_d8" transform="matrix(12.4,0,0,12.4,165.7,136)" />
<use xlink:href="#f1_am" transform="matrix(12.4,0,0,12.4,175.6,136)" />
<use xlink:href="#f1_c7" transform="matrix(12.4,0,0,12.4,194.6,136)" />
<use xlink:href="#f1_d8" transform="matrix(12.4,0,0,12.4,205.3,136)" />
<use xlink:href="#f1_bv" transform="matrix(12.4,0,0,12.4,215.2,136)" />
<use xlink:href="#f1_ct" transform="matrix(12.4,0,0,12.4,225.7,136)" />
<use xlink:href="#f1_c1" transform="matrix(12.4,0,0,12.4,230.7,136)" />
<use xlink:href="#f1_cb" transform="matrix(12.4,0,0,12.4,238.1,136)" />
<use xlink:href="#f1_bt" transform="matrix(12.4,0,0,12.4,256.2,136)" />
<use xlink:href="#f1_ct" transform="matrix(12.4,0,0,12.4,266.5,136)" />
<use xlink:href="#f1_no" transform="matrix(12.4,0,0,12.4,271.5,136)" />
<use xlink:href="#f1_bq" transform="matrix(12.4,0,0,12.4,271.5,136)" />
</g>
</g>
<g clip-path="url(#c4_3)">
<g fill="#000000" >
<use xlink:href="#f1_q" transform="matrix(12.4,0,0,12.4,483.6,136)" />
<use xlink:href="#f1_r" transform="matrix(12.4,0,0,12.4,493.9,136)" />
</g>
</g>
<g clip-path="url(#c5_3)">
<g fill="#000000" >
<use xlink:href="#f1_p" transform="matrix(12.4,0,0,12.4,114,167.5)" />
<use xlink:href="#f1_x" transform="matrix(12.4,0,0,12.4,121.7,167.5)" />
</g>
</g>
<g clip-path="url(#c6_3)">
<g fill="#000000" >
<use xlink:href="#f1_cc" transform="matrix(12.4,0,0,12.4,136,167.5)" />
<use xlink:href="#f1_c1" transform="matrix(12.4,0,0,12.4,146.3,167.5)" />
<use xlink:href="#f1_bg" transform="matrix(12.4,0,0,12.4,158.7,167.5)" />
<use xlink:href="#f1_bt" transform="matrix(12.4,0,0,12.4,171.3,167.5)" />
<use xlink:href="#f1_bz" transform="matrix(12.4,0,0,12.4,181.6,167.5)" />
<use xlink:href="#f1_bz" transform="matrix(12.4,0,0,12.4,198.4,167.5)" />
<use xlink:href="#f1_d4" transform="matrix(12.4,0,0,12.4,210.3,167.5)" />
<use xlink:href="#f1_dj" transform="matrix(12.4,0,0,12.4,209.2,168.3)" />
<use xlink:href="#f1_br" transform="matrix(12.4,0,0,12.4,215.2,167.5)" />
<use xlink:href="#f1_ct" transform="matrix(12.4,0,0,12.4,225.5,167.5)" />
<use xlink:href="#f1_br" transform="matrix(12.4,0,0,12.4,230.4,167.5)" />
<use xlink:href="#f1_ct" transform="matrix(12.4,0,0,12.4,240.7,167.5)" />
<use xlink:href="#f1_bp" transform="matrix(12.4,0,0,12.4,250.7,167.5)" />
<use xlink:href="#f1_d4" transform="matrix(12.4,0,0,12.4,261.7,167.5)" />
<use xlink:href="#f1_c1" transform="matrix(12.4,0,0,12.4,261.6,167.5)" />
<use xlink:href="#f1_ct" transform="matrix(12.4,0,0,12.4,269,167.5)" />
<use xlink:href="#f1_cb" transform="matrix(12.4,0,0,12.4,278.9,167.5)" />
<use xlink:href="#f1_ct" transform="matrix(12.4,0,0,12.4,292.1,167.5)" />
<use xlink:href="#f1_no" transform="matrix(12.4,0,0,12.4,297,167.5)" />
<use xlink:href="#f1_bq" transform="matrix(12.4,0,0,12.4,297,167.5)" />
<use xlink:href="#f1_be" transform="matrix(12.4,0,0,12.4,313.7,167.5)" />
<use xlink:href="#f1_ct" transform="matrix(12.4,0,0,12.4,326,167.5)" />
<use xlink:href="#f1_cu" transform="matrix(12.4,0,0,12.4,331,167.5)" />
<use xlink:href="#f1_cc" transform="matrix(12.4,0,0,12.4,336,167.5)" />
<use xlink:href="#f1_ax" transform="matrix(12.4,0,0,12.4,346.2,167.5)" />
</g>
</g>
<g clip-path="url(#c7_3)">
<g fill="#000000" >
<use xlink:href="#f1_q" transform="matrix(12.4,0,0,12.4,483.6,167.5)" />
<use xlink:href="#f1_s" transform="matrix(12.4,0,0,12.4,493.1,167.5)" />
</g>
</g>
<g clip-path="url(#c8_3)">
<g fill="#000000" >
<use xlink:href="#f1_q" transform="matrix(12.4,0,0,12.4,110.9,199)" />
<use xlink:href="#f1_o" transform="matrix(12.4,0,0,12.4,120.4,199)" />
</g>
</g>
<g clip-path="url(#c9_3)">
<g fill="#000000" >
<use xlink:href="#f1_bz" transform="matrix(12.4,0,0,12.4,136,199)" />
<use xlink:href="#f1_ct" transform="matrix(12.4,0,0,12.4,147.8,199)" />
<use xlink:href="#f1_c1" transform="matrix(12.4,0,0,12.4,152.8,199)" />
<use xlink:href="#f1_ct" transform="matrix(12.4,0,0,12.4,160.2,199)" />
<use xlink:href="#f1_ll" transform="matrix(12.4,0,0,12.4,170.1,199)" />
<use xlink:href="#f1_c0" transform="matrix(12.4,0,0,12.4,175.8,199)" />
<use xlink:href="#f1_ct" transform="matrix(12.4,0,0,12.4,186.9,199)" />
<use xlink:href="#f1_c1" transform="matrix(12.4,0,0,12.4,191.9,199)" />
<use xlink:href="#f1_ct" transform="matrix(12.4,0,0,12.4,199.3,199)" />
<use xlink:href="#f1_bv" transform="matrix(12.4,0,0,12.4,209.2,199)" />
<use xlink:href="#f1_ct" transform="matrix(12.4,0,0,12.4,219.7,199)" />
<use xlink:href="#f1_c1" transform="matrix(12.4,0,0,12.4,224.7,199)" />
<use xlink:href="#f1_cb" transform="matrix(12.4,0,0,12.4,232.1,199)" />
<use xlink:href="#f1_bt" transform="matrix(12.4,0,0,12.4,250.2,199)" />
<use xlink:href="#f1_ct" transform="matrix(12.4,0,0,12.4,260.5,199)" />
<use xlink:href="#f1_no" transform="matrix(12.4,0,0,12.4,265.5,199)" />
<use xlink:href="#f1_bq" transform="matrix(12.4,0,0,12.4,265.5,199)" />
</g>
</g>
<g clip-path="url(#ca_3)">
<g fill="#000000" >
<use xlink:href="#f1_q" transform="matrix(12.4,0,0,12.4,483.6,199)" />
<use xlink:href="#f1_t" transform="matrix(12.4,0,0,12.4,493.7,199)" />
</g>
</g>
<g clip-path="url(#cb_3)">
<g fill="#000000" >
<use xlink:href="#f1_q" transform="matrix(12.4,0,0,12.4,113.2,230.4)" />
<use xlink:href="#f1_p" transform="matrix(12.4,0,0,12.4,123.5,230.4)" />
</g>
</g>
<g clip-path="url(#cc_3)">
<g fill="#000000" >
<use xlink:href="#f1_by" transform="matrix(12.4,0,0,12.4,136,230.4)" />
<use xlink:href="#f1_o0" transform="matrix(12.4,0,0,12.4,148.4,230.4)" />
<use xlink:href="#f1_l1" transform="matrix(12.4,0,0,12.4,153.3,230.4)" />
<use xlink:href="#f1_bp" transform="matrix(12.4,0,0,12.4,163.8,230.4)" />
<use xlink:href="#f1_b9" transform="matrix(12.4,0,0,12.4,179.7,230.4)" />
<use xlink:href="#f1_oc" transform="matrix(12.4,0,0,12.4,193.4,230.4)" />
<use xlink:href="#f1_cc" transform="matrix(12.4,0,0,12.4,203.3,230.4)" />
<use xlink:href="#f1_d5" transform="matrix(12.4,0,0,12.4,213.9,230.4)" />
<use xlink:href="#f1_c1" transform="matrix(12.4,0,0,12.4,218.6,230.4)" />
<use xlink:href="#f1_ct" transform="matrix(12.4,0,0,12.4,226,230.4)" />
<use xlink:href="#f1_bp" transform="matrix(12.4,0,0,12.4,230.9,230.4)" />
</g>
</g>
<g clip-path="url(#cd_3)">
<g fill="#000000" >
<use xlink:href="#f1_q" transform="matrix(12.4,0,0,12.4,483.6,230.4)" />
<use xlink:href="#f1_u" transform="matrix(12.4,0,0,12.4,493.9,230.4)" />
</g>
</g>
<g clip-path="url(#ce_3)">
<g fill="#000000" >
<use xlink:href="#f1_q" transform="matrix(12.4,0,0,12.4,110.1,261.9)" />
<use xlink:href="#f1_q" transform="matrix(12.4,0,0,12.4,120.4,261.9)" />
</g>
</g>
<g clip-path="url(#cf_3)">
<g fill="#000000" >
<use xlink:href="#f1_bg" transform="matrix(12.4,0,0,12.4,136,261.9)" />
<use xlink:href="#f1_bt" transform="matrix(12.4,0,0,12.4,148.6,261.9)" />
<use xlink:href="#f1_bz" transform="matrix(12.4,0,0,12.4,159,261.9)" />
<use xlink:href="#f1_bg" transform="matrix(12.4,0,0,12.4,175.7,261.9)" />
<use xlink:href="#f1_bt" transform="matrix(12.4,0,0,12.4,188.3,261.9)" />
<use xlink:href="#f1_bz" transform="matrix(12.4,0,0,12.4,198.7,261.9)" />
<use xlink:href="#f1_b9" transform="matrix(12.4,0,0,12.4,215.5,261.9)" />
<use xlink:href="#f1_ct" transform="matrix(12.4,0,0,12.4,229.1,261.9)" />
<use xlink:href="#f1_cb" transform="matrix(12.4,0,0,12.4,239.1,261.9)" />
<use xlink:href="#f1_ct" transform="matrix(12.4,0,0,12.4,252.2,261.9)" />
<use xlink:href="#f1_no" transform="matrix(12.4,0,0,12.4,257.2,261.9)" />
<use xlink:href="#f1_bq" transform="matrix(12.4,0,0,12.4,257.2,261.9)" />
</g>
</g>
<g clip-path="url(#cg_3)">
<g fill="#000000" >
<use xlink:href="#f1_q" transform="matrix(12.4,0,0,12.4,483.6,261.9)" />
<use xlink:href="#f1_v" transform="matrix(12.4,0,0,12.4,493.9,261.9)" />
</g>
</g>
<g clip-path="url(#ch_3)">
<g fill="#000000" >
<use xlink:href="#f1_q" transform="matrix(12.4,0,0,12.4,110.9,293.3)" />
<use xlink:href="#f1_r" transform="matrix(12.4,0,0,12.4,121.2,293.3)" />
</g>
</g>
<g clip-path="url(#ci_3)">
<g fill="#000000" >
<use xlink:href="#f1_bg" transform="matrix(12.4,0,0,12.4,136,293.3)" />
<use xlink:href="#f1_bt" transform="matrix(12.4,0,0,12.4,148.6,293.3)" />
<use xlink:href="#f1_bz" transform="matrix(12.4,0,0,12.4,159,293.3)" />
<use xlink:href="#f1_bg" transform="matrix(12.4,0,0,12.4,175.7,293.3)" />
<use xlink:href="#f1_bt" transform="matrix(12.4,0,0,12.4,188.3,293.3)" />
<use xlink:href="#f1_bz" transform="matrix(12.4,0,0,12.4,198.7,293.3)" />
<use xlink:href="#f1_b9" transform="matrix(12.4,0,0,12.4,215.5,293.3)" />
<use xlink:href="#f1_ct" transform="matrix(12.4,0,0,12.4,229.1,293.3)" />
<use xlink:href="#f1_br" transform="matrix(12.4,0,0,12.4,239.1,293.3)" />
<use xlink:href="#f1_ct" transform="matrix(12.4,0,0,12.4,249.4,293.3)" />
<use xlink:href="#f1_cb" transform="matrix(12.4,0,0,12.4,254.4,293.3)" />
<use xlink:href="#f1_n5" transform="matrix(12.4,0,0,12.4,272.5,293.3)" />
<use xlink:href="#f1_di" transform="matrix(12.4,0,0,12.4,283.1,293.7)" />
</g>
</g>
<g clip-path="url(#cj_3)">
<g fill="#000000" >
<use xlink:href="#f1_q" transform="matrix(12.4,0,0,12.4,483.6,293.3)" />
<use xlink:href="#f1_w" transform="matrix(12.4,0,0,12.4,493.9,293.3)" />
</g>
</g>
<g clip-path="url(#ck_3)">
<g fill="#000000" >
<use xlink:href="#f1_q" transform="matrix(12.4,0,0,12.4,110.9,324.8)" />
<use xlink:href="#f1_s" transform="matrix(12.4,0,0,12.4,120.4,324.8)" />
</g>
</g>
<g clip-path="url(#cl_3)">
<g fill="#000000" >
<use xlink:href="#f1_ax" transform="matrix(12.4,0,0,12.4,136,324.8)" />
<use xlink:href="#f1_b9" transform="matrix(12.4,0,0,12.4,146.5,324.8)" />
<use xlink:href="#f1_cb" transform="matrix(12.4,0,0,12.4,165.2,324.8)" />
<use xlink:href="#f1_dj" transform="matrix(12.4,0,0,12.4,172.8,325.1)" />
<use xlink:href="#f1_br" transform="matrix(12.4,0,0,12.4,178.3,324.8)" />
<use xlink:href="#f1_d4" transform="matrix(12.4,0,0,12.4,188.2,324.8)" />
<use xlink:href="#f1_c8" transform="matrix(12.4,0,0,12.4,188.6,324.8)" />
<use xlink:href="#f1_ct" transform="matrix(12.4,0,0,12.4,202.6,324.8)" />
</g>
</g>
<g clip-path="url(#cm_3)">
<g fill="#000000" >
<use xlink:href="#f1_q" transform="matrix(12.4,0,0,12.4,483.6,324.8)" />
<use xlink:href="#f1_x" transform="matrix(12.4,0,0,12.4,493.7,324.8)" />
</g>
</g>
<g clip-path="url(#cn_3)">
<g fill="#000000" >
<use xlink:href="#f1_q" transform="matrix(12.4,0,0,12.4,110.9,356.2)" />
<use xlink:href="#f1_t" transform="matrix(12.4,0,0,12.4,121,356.2)" />
</g>
</g>
<g clip-path="url(#co_3)">
<g fill="#000000" >
<use xlink:href="#f1_bt" transform="matrix(12.4,0,0,12.4,136,356.2)" />
<use xlink:href="#f1_ct" transform="matrix(12.4,0,0,12.4,146.4,356.2)" />
<use xlink:href="#f1_b9" transform="matrix(12.4,0,0,12.4,151.3,356.2)" />
<use xlink:href="#f1_d8" transform="matrix(12.4,0,0,12.4,165,356.2)" />
<use xlink:href="#f1_ch" transform="matrix(12.4,0,0,12.4,170,356.2)" />
<use xlink:href="#f1_ct" transform="matrix(12.4,0,0,12.4,181.2,356.2)" />
<use xlink:href="#f1_c1" transform="matrix(12.4,0,0,12.4,191.1,356.2)" />
<use xlink:href="#f1_ct" transform="matrix(12.4,0,0,12.4,198.5,356.2)" />
<use xlink:href="#f1_bv" transform="matrix(12.4,0,0,12.4,208.5,356.2)" />
<use xlink:href="#f1_ct" transform="matrix(12.4,0,0,12.4,219,356.2)" />
<use xlink:href="#f1_c1" transform="matrix(12.4,0,0,12.4,223.9,356.2)" />
<use xlink:href="#f1_cb" transform="matrix(12.4,0,0,12.4,231.3,356.2)" />
<use xlink:href="#f1_bg" transform="matrix(12.4,0,0,12.4,249.5,356.2)" />
<use xlink:href="#f1_cv" transform="matrix(12.4,0,0,12.4,262.1,356.2)" />
</g>
</g>
<g clip-path="url(#cp_3)">
<g fill="#000000" >
<use xlink:href="#f1_r" transform="matrix(12.4,0,0,12.4,483.6,356.2)" />
<use xlink:href="#f1_o" transform="matrix(12.4,0,0,12.4,493.1,356.2)" />
</g>
</g>
<g clip-path="url(#cq_3)">
<g fill="#000000" >
<use xlink:href="#f1_q" transform="matrix(12.4,0,0,12.4,110.9,387.7)" />
<use xlink:href="#f1_u" transform="matrix(12.4,0,0,12.4,121.2,387.7)" />
</g>
</g>
<g clip-path="url(#cr_3)">
<g fill="#000000" >
<use xlink:href="#f1_bp" transform="matrix(12.4,0,0,12.4,136,387.7)" />
<use xlink:href="#f1_d4" transform="matrix(12.4,0,0,12.4,147,387.7)" />
<use xlink:href="#f1_c1" transform="matrix(12.4,0,0,12.4,146.9,387.7)" />
<use xlink:href="#f1_ct" transform="matrix(12.4,0,0,12.4,154.3,387.7)" />
<use xlink:href="#f1_bp" transform="matrix(12.4,0,0,12.4,164.3,387.7)" />
<use xlink:href="#f1_ct" transform="matrix(12.4,0,0,12.4,175.1,387.7)" />
<use xlink:href="#f1_c1" transform="matrix(12.4,0,0,12.4,180.1,387.7)" />
<use xlink:href="#f1_bo" transform="matrix(12.4,0,0,12.4,187.5,387.7)" />
<use xlink:href="#f1_cc" transform="matrix(12.4,0,0,12.4,205.2,387.7)" />
<use xlink:href="#f1_ct" transform="matrix(12.4,0,0,12.4,215.4,387.7)" />
<use xlink:href="#f1_c1" transform="matrix(12.4,0,0,12.4,220.4,387.7)" />
<use xlink:href="#f1_ct" transform="matrix(12.4,0,0,12.4,227.8,387.7)" />
</g>
</g>
<g clip-path="url(#cs_3)">
<g fill="#000000" >
<use xlink:href="#f1_r" transform="matrix(12.4,0,0,12.4,483.6,387.7)" />
<use xlink:href="#f1_p" transform="matrix(12.4,0,0,12.4,493.6,387.7)" />
</g>
</g>
<g clip-path="url(#ct_3)">
<g fill="#000000" >
<use xlink:href="#f1_q" transform="matrix(12.4,0,0,12.4,111.7,419.1)" />
<use xlink:href="#f1_v" transform="matrix(12.4,0,0,12.4,121.9,419.1)" />
</g>
</g>
<g clip-path="url(#cu_3)">
<g fill="#000000" >
<use xlink:href="#f1_al" transform="matrix(12.4,0,0,12.4,136,419.1)" />
<use xlink:href="#f1_bg" transform="matrix(12.4,0,0,12.4,150,419.1)" />
<use xlink:href="#f1_bx" transform="matrix(12.4,0,0,12.4,162.6,419.1)" />
<use xlink:href="#f1_bs" transform="matrix(12.4,0,0,12.4,178.5,419.1)" />
<use xlink:href="#f1_cw" transform="matrix(12.4,0,0,12.4,191.3,419)" />
<use xlink:href="#f1_bt" transform="matrix(12.4,0,0,12.4,190.8,419.1)" />
<use xlink:href="#f1_al" transform="matrix(12.4,0,0,12.4,206.2,419.1)" />
<use xlink:href="#f1_cc" transform="matrix(12.4,0,0,12.4,220.2,419.1)" />
<use xlink:href="#f1_dr" transform="matrix(12.4,0,0,12.4,231,419.1)" />
<use xlink:href="#f1_bz" transform="matrix(12.4,0,0,12.4,230.4,419.1)" />
<use xlink:href="#f1_bt" transform="matrix(12.4,0,0,12.4,247.2,419.1)" />
<use xlink:href="#f1_cv" transform="matrix(12.4,0,0,12.4,257.6,419.1)" />
</g>
</g>
<g clip-path="url(#cv_3)">
<g fill="#000000" >
<use xlink:href="#f1_r" transform="matrix(12.4,0,0,12.4,483.6,419.1)" />
<use xlink:href="#f1_q" transform="matrix(12.4,0,0,12.4,493.6,419.1)" />
<use xlink:href="#f1_l" transform="matrix(12.4,0,0,12.4,503.9,419.1)" />
<use xlink:href="#f1_r" transform="matrix(12.4,0,0,12.4,510.6,419.1)" />
<use xlink:href="#f1_r" transform="matrix(12.4,0,0,12.4,520.2,419.1)" />
</g>
</g>
<g clip-path="url(#cw_3)">
<g fill="#000000" >
<use xlink:href="#f1_q" transform="matrix(12.4,0,0,12.4,110.9,450.6)" />
<use xlink:href="#f1_w" transform="matrix(12.4,0,0,12.4,121.2,450.6)" />
</g>
</g>
<g clip-path="url(#cx_3)">
<g fill="#000000" >
<use xlink:href="#f1_bz" transform="matrix(12.4,0,0,12.4,136,450.6)" />
<use xlink:href="#f1_ct" transform="matrix(12.4,0,0,12.4,147.8,450.6)" />
<use xlink:href="#f1_c1" transform="matrix(12.4,0,0,12.4,152.8,450.6)" />
<use xlink:href="#f1_cv" transform="matrix(12.4,0,0,12.4,160.2,450.6)" />
<use xlink:href="#f1_al" transform="matrix(12.4,0,0,12.4,170.1,450.6)" />
<use xlink:href="#f1_bg" transform="matrix(12.4,0,0,12.4,184.1,450.6)" />
<use xlink:href="#f1_dr" transform="matrix(12.4,0,0,12.4,197.1,450.6)" />
<use xlink:href="#f1_cb" transform="matrix(12.4,0,0,12.4,201.7,450.6)" />
<use xlink:href="#f1_cw" transform="matrix(12.4,0,0,12.4,215.3,450.5)" />
<use xlink:href="#f1_bt" transform="matrix(12.4,0,0,12.4,214.9,450.6)" />
<use xlink:href="#f1_d8" transform="matrix(12.4,0,0,12.4,225.2,450.6)" />
</g>
</g>
<g clip-path="url(#cy_3)">
<g fill="#000000" >
<use xlink:href="#f1_r" transform="matrix(12.4,0,0,12.4,483.6,450.6)" />
<use xlink:href="#f1_s" transform="matrix(12.4,0,0,12.4,493.6,450.6)" />
</g>
</g>
<g clip-path="url(#cz_3)">
<g fill="#000000" >
<use xlink:href="#f1_q" transform="matrix(12.4,0,0,12.4,111.7,482)" />
<use xlink:href="#f1_x" transform="matrix(12.4,0,0,12.4,121.8,482)" />
</g>
</g>
<g clip-path="url(#c10_3)">
<g fill="#000000" >
<use xlink:href="#f1_bz" transform="matrix(12.4,0,0,12.4,136,482)" />
<use xlink:href="#f1_cw" transform="matrix(12.4,0,0,12.4,148.3,481.9)" />
<use xlink:href="#f1_o0" transform="matrix(12.4,0,0,12.4,147.8,482)" />
<use xlink:href="#f1_l1" transform="matrix(12.4,0,0,12.4,152.8,482)" />
<use xlink:href="#f1_bp" transform="matrix(12.4,0,0,12.4,163.3,482)" />
<use xlink:href="#f1_bz" transform="matrix(12.4,0,0,12.4,179.1,482)" />
<use xlink:href="#f1_c3" transform="matrix(12.4,0,0,12.4,190.9,482)" />
<use xlink:href="#f1_d4" transform="matrix(12.4,0,0,12.4,204,482)" />
<use xlink:href="#f1_b9" transform="matrix(12.4,0,0,12.4,208.9,482)" />
<use xlink:href="#f1_d4" transform="matrix(12.4,0,0,12.4,218.7,482)" />
<use xlink:href="#f1_bt" transform="matrix(12.4,0,0,12.4,227.6,482)" />
<use xlink:href="#f1_ct" transform="matrix(12.4,0,0,12.4,237.9,482)" />
<use xlink:href="#f1_bz" transform="matrix(12.4,0,0,12.4,247.9,482)" />
<use xlink:href="#f1_c3" transform="matrix(12.4,0,0,12.4,259.7,482)" />
<use xlink:href="#f1_d4" transform="matrix(12.4,0,0,12.4,272.8,482)" />
</g>
</g>
<g clip-path="url(#c11_3)">
<g fill="#000000" >
<use xlink:href="#f1_r" transform="matrix(12.4,0,0,12.4,483.6,482)" />
<use xlink:href="#f1_t" transform="matrix(12.4,0,0,12.4,493.4,482)" />
</g>
</g>
<g clip-path="url(#c12_3)">
<g fill="#000000" >
<use xlink:href="#f1_r" transform="matrix(12.4,0,0,12.4,110.9,513.5)" />
<use xlink:href="#f1_o" transform="matrix(12.4,0,0,12.4,120.3,513.5)" />
</g>
</g>
<g clip-path="url(#c13_3)">
<g fill="#000000" >
<use xlink:href="#f1_bp" transform="matrix(12.4,0,0,12.4,136,513.5)" />
<use xlink:href="#f1_cx" transform="matrix(12.4,0,0,12.4,146.9,513.4)" />
<use xlink:href="#f1_bz" transform="matrix(12.4,0,0,12.4,151.9,513.5)" />
<use xlink:href="#f1_bt" transform="matrix(12.4,0,0,12.4,163.7,513.5)" />
<use xlink:href="#f1_d4" transform="matrix(12.4,0,0,12.4,174.1,513.5)" />
<use xlink:href="#f1_by" transform="matrix(12.4,0,0,12.4,179,513.5)" />
<use xlink:href="#f1_bb" transform="matrix(12.4,0,0,12.4,191.4,513.5)" />
<use xlink:href="#f1_c7" transform="matrix(12.4,0,0,12.4,202.5,513.5)" />
<use xlink:href="#f1_ct" transform="matrix(12.4,0,0,12.4,213.2,513.5)" />
<use xlink:href="#f1_bt" transform="matrix(12.4,0,0,12.4,218.1,513.5)" />
<use xlink:href="#f1_dg" transform="matrix(12.4,0,0,12.4,227.8,513.2)" />
</g>
</g>
<g clip-path="url(#c14_3)">
<g fill="#000000" >
<use xlink:href="#f1_r" transform="matrix(12.4,0,0,12.4,483.6,513.5)" />
<use xlink:href="#f1_u" transform="matrix(12.4,0,0,12.4,493.7,513.5)" />
</g>
</g>
<g clip-path="url(#c15_3)">
<g fill="#000000" >
<use xlink:href="#f1_r" transform="matrix(12.4,0,0,12.4,113.2,544.9)" />
<use xlink:href="#f1_p" transform="matrix(12.4,0,0,12.4,123.3,544.9)" />
</g>
</g>
<g clip-path="url(#c16_3)">
<g fill="#000000" >
<use xlink:href="#f1_bz" transform="matrix(12.4,0,0,12.4,136,544.9)" />
<use xlink:href="#f1_d4" transform="matrix(12.4,0,0,12.4,147.9,544.9)" />
<use xlink:href="#f1_c1" transform="matrix(12.4,0,0,12.4,147.8,544.9)" />
<use xlink:href="#f1_d4" transform="matrix(12.4,0,0,12.4,154.9,544.9)" />
<use xlink:href="#f1_br" transform="matrix(12.4,0,0,12.4,160.2,544.9)" />
<use xlink:href="#f1_d8" transform="matrix(12.4,0,0,12.4,170.5,544.9)" />
<use xlink:href="#f1_bt" transform="matrix(12.4,0,0,12.4,175.5,544.9)" />
<use xlink:href="#f1_d8" transform="matrix(12.4,0,0,12.4,185.8,544.9)" />
<use xlink:href="#f1_dj" transform="matrix(12.4,0,0,12.4,189.6,545.7)" />
<use xlink:href="#f1_cc" transform="matrix(12.4,0,0,12.4,195.8,544.9)" />
<use xlink:href="#f1_ct" transform="matrix(12.4,0,0,12.4,206,544.9)" />
<use xlink:href="#f1_no" transform="matrix(12.4,0,0,12.4,211,544.9)" />
<use xlink:href="#f1_bq" transform="matrix(12.4,0,0,12.4,211,544.9)" />
<use xlink:href="#f1_d8" transform="matrix(12.4,0,0,12.4,222.6,544.9)" />
<use xlink:href="#f1_bz" transform="matrix(12.4,0,0,12.4,232.6,544.9)" />
<use xlink:href="#f1_d4" transform="matrix(12.4,0,0,12.4,244.5,544.9)" />
<use xlink:href="#f1_dj" transform="matrix(12.4,0,0,12.4,243.4,545.7)" />
</g>
</g>
<g clip-path="url(#c17_3)">
<g fill="#000000" >
<use xlink:href="#f1_r" transform="matrix(12.4,0,0,12.4,483.6,544.9)" />
<use xlink:href="#f1_v" transform="matrix(12.4,0,0,12.4,493.6,544.9)" />
</g>
</g>
<g clip-path="url(#c18_3)">
<g fill="#000000" >
<use xlink:href="#f1_r" transform="matrix(12.4,0,0,12.4,110.9,576.4)" />
<use xlink:href="#f1_q" transform="matrix(12.4,0,0,12.4,120.9,576.4)" />
</g>
</g>
<g clip-path="url(#c19_3)">
<g fill="#000000" >
<use xlink:href="#f1_c3" transform="matrix(12.4,0,0,12.4,136,576.4)" />
<use xlink:href="#f1_ct" transform="matrix(12.4,0,0,12.4,149,576.4)" />
<use xlink:href="#f1_ba" transform="matrix(12.4,0,0,12.4,154,576.4)" />
<use xlink:href="#f1_d8" transform="matrix(12.4,0,0,12.4,168.7,576.4)" />
<use xlink:href="#f1_by" transform="matrix(12.4,0,0,12.4,178.7,576.4)" />
<use xlink:href="#f1_l1" transform="matrix(12.4,0,0,12.4,191,576.4)" />
<use xlink:href="#f1_bp" transform="matrix(12.4,0,0,12.4,201.5,576.4)" />
<use xlink:href="#f1_cc" transform="matrix(12.4,0,0,12.4,217.4,576.4)" />
<use xlink:href="#f1_d5" transform="matrix(12.4,0,0,12.4,227.9,576.4)" />
<use xlink:href="#f1_bp" transform="matrix(12.4,0,0,12.4,232.6,576.4)" />
<use xlink:href="#f1_d4" transform="matrix(12.4,0,0,12.4,243.6,576.4)" />
<use xlink:href="#f1_c1" transform="matrix(12.4,0,0,12.4,243.5,576.4)" />
<use xlink:href="#f1_d4" transform="matrix(12.4,0,0,12.4,250.5,576.4)" />
</g>
</g>
<g clip-path="url(#c1a_3)">
<g fill="#000000" >
<use xlink:href="#f1_r" transform="matrix(12.4,0,0,12.4,483.6,576.4)" />
<use xlink:href="#f1_w" transform="matrix(12.4,0,0,12.4,493.8,576.4)" />
</g>
</g>
<g clip-path="url(#c1b_3)">
<g fill="#000000" >
<use xlink:href="#f1_r" transform="matrix(12.4,0,0,12.4,110.9,607.9)" />
<use xlink:href="#f1_r" transform="matrix(12.4,0,0,12.4,120.5,607.9)" />
</g>
</g>
<g clip-path="url(#c1c_3)">
<g fill="#000000" >
<use xlink:href="#f1_am" transform="matrix(12.4,0,0,12.4,136,607.9)" />
<use xlink:href="#f1_c8" transform="matrix(12.4,0,0,12.4,155,607.9)" />
<use xlink:href="#f1_by" transform="matrix(12.4,0,0,12.4,174,607.9)" />
<use xlink:href="#f1_c1" transform="matrix(12.4,0,0,12.4,186.3,607.9)" />
<use xlink:href="#f1_cv" transform="matrix(12.4,0,0,12.4,193.7,607.9)" />
<use xlink:href="#f1_bt" transform="matrix(12.4,0,0,12.4,198.7,607.9)" />
<use xlink:href="#f1_d4" transform="matrix(12.4,0,0,12.4,209.2,607.9)" />
<use xlink:href="#f1_am" transform="matrix(12.4,0,0,12.4,214,607.9)" />
<use xlink:href="#f1_lx" transform="matrix(12.4,0,0,12.4,233,607.9)" />
<use xlink:href="#f1_c0" transform="matrix(12.4,0,0,12.4,240.1,607.9)" />
<use xlink:href="#f1_d8" transform="matrix(12.4,0,0,12.4,251.2,607.9)" />
</g>
</g>
<g clip-path="url(#c1d_3)">
<g fill="#000000" >
<use xlink:href="#f1_r" transform="matrix(12.4,0,0,12.4,483.6,607.9)" />
<use xlink:href="#f1_x" transform="matrix(12.4,0,0,12.4,493.6,607.9)" />
</g>
</g>
<g clip-path="url(#c1e_3)">
<g fill="#000000" >
<use xlink:href="#f1_r" transform="matrix(12.4,0,0,12.4,110.1,639.3)" />
<use xlink:href="#f1_s" transform="matrix(12.4,0,0,12.4,120.1,639.3)" />
</g>
</g>
<g clip-path="url(#c1f_3)">
<g fill="#000000" >
<use xlink:href="#f1_br" transform="matrix(12.4,0,0,12.4,136,639.3)" />
<use xlink:href="#f1_c8" transform="matrix(12.4,0,0,12.4,146.3,639.3)" />
<use xlink:href="#f1_dr" transform="matrix(12.4,0,0,12.4,160.7,639.3)" />
<use xlink:href="#f1_bt" transform="matrix(12.4,0,0,12.4,160.3,639.3)" />
<use xlink:href="#f1_br" transform="matrix(12.4,0,0,12.4,175.7,639.3)" />
<use xlink:href="#f1_ob" transform="matrix(12.4,0,0,12.4,186,639.3)" />
<use xlink:href="#f1_bg" transform="matrix(12.4,0,0,12.4,191,639.3)" />
<use xlink:href="#f1_d8" transform="matrix(12.4,0,0,12.4,203.5,639.3)" />
<use xlink:href="#f1_bt" transform="matrix(12.4,0,0,12.4,213.5,639.3)" />
<use xlink:href="#f1_ct" transform="matrix(12.4,0,0,12.4,223.9,639.3)" />
<use xlink:href="#f1_no" transform="matrix(12.4,0,0,12.4,228.8,639.3)" />
<use xlink:href="#f1_bq" transform="matrix(12.4,0,0,12.4,228.8,639.3)" />
</g>
</g>
<g clip-path="url(#c1g_3)">
<g fill="#000000" >
<use xlink:href="#f1_s" transform="matrix(12.4,0,0,12.4,483.6,639.3)" />
<use xlink:href="#f1_o" transform="matrix(12.4,0,0,12.4,493.8,639.3)" />
</g>
</g>
<g clip-path="url(#c1h_3)">
<g fill="#000000" >
<use xlink:href="#f1_r" transform="matrix(12.4,0,0,12.4,110.9,670.8)" />
<use xlink:href="#f1_t" transform="matrix(12.4,0,0,12.4,120.7,670.8)" />
</g>
</g>
<g clip-path="url(#c1i_3)">
<g fill="#000000" >
<use xlink:href="#f1_bp" transform="matrix(12.4,0,0,12.4,136,670.8)" />
<use xlink:href="#f1_cw" transform="matrix(12.4,0,0,12.4,147.4,670.7)" />
<use xlink:href="#f1_bz" transform="matrix(12.4,0,0,12.4,146.9,670.8)" />
<use xlink:href="#f1_cb" transform="matrix(12.4,0,0,12.4,158.7,670.8)" />
<use xlink:href="#f1_d4" transform="matrix(12.4,0,0,12.4,171.9,670.8)" />
<use xlink:href="#f1_c3" transform="matrix(12.4,0,0,12.4,176.8,670.8)" />
<use xlink:href="#f1_ct" transform="matrix(12.4,0,0,12.4,189.8,670.8)" />
<use xlink:href="#f1_bb" transform="matrix(12.4,0,0,12.4,194.8,670.8)" />
<use xlink:href="#f1_cv" transform="matrix(12.4,0,0,12.4,205.9,670.8)" />
<use xlink:href="#f1_c3" transform="matrix(12.4,0,0,12.4,215.9,670.8)" />
<use xlink:href="#f1_bb" transform="matrix(12.4,0,0,12.4,228.9,670.8)" />
<use xlink:href="#f1_bt" transform="matrix(12.4,0,0,12.4,240,670.8)" />
</g>
</g>
<g clip-path="url(#c1j_3)">
<g fill="#000000" >
<use xlink:href="#f1_s" transform="matrix(12.4,0,0,12.4,483.6,670.8)" />
<use xlink:href="#f1_p" transform="matrix(12.4,0,0,12.4,494.3,670.8)" />
</g>
</g>
<g clip-path="url(#c1k_3)">
<g fill="#000000" >
<use xlink:href="#f1_r" transform="matrix(12.4,0,0,12.4,110.9,702.2)" />
<use xlink:href="#f1_u" transform="matrix(12.4,0,0,12.4,121,702.2)" />
</g>
</g>
<g clip-path="url(#c1l_3)">
<g fill="#000000" >
<use xlink:href="#f1_e6" transform="matrix(12.4,0,0,12.4,136,702.2)" />
<use xlink:href="#f1_by" transform="matrix(12.4,0,0,12.4,146.7,702.2)" />
<use xlink:href="#f1_cw" transform="matrix(12.4,0,0,12.4,159.5,702.1)" />
<use xlink:href="#f1_bg" transform="matrix(12.4,0,0,12.4,164,702.2)" />
<use xlink:href="#f1_cv" transform="matrix(12.4,0,0,12.4,176.6,702.2)" />
<use xlink:href="#f1_am" transform="matrix(12.4,0,0,12.4,186.6,702.2)" />
<use xlink:href="#f1_nu" transform="matrix(12.4,0,0,12.4,205.5,702.2)" />
<use xlink:href="#f1_bf" transform="matrix(12.4,0,0,12.4,210.5,702.2)" />
<use xlink:href="#f1_c3" transform="matrix(12.4,0,0,12.4,229.4,702.2)" />
<use xlink:href="#f1_ct" transform="matrix(12.4,0,0,12.4,242.4,702.2)" />
<use xlink:href="#f1_nt" transform="matrix(12.4,0,0,12.4,247.3,702.2)" />
<use xlink:href="#f1_bb" transform="matrix(12.4,0,0,12.4,252.3,702.2)" />
</g>
</g>
<g clip-path="url(#c1m_3)">
<g fill="#000000" >
<use xlink:href="#f1_s" transform="matrix(12.4,0,0,12.4,483.6,702.2)" />
<use xlink:href="#f1_q" transform="matrix(12.4,0,0,12.4,494.3,702.2)" />
</g>
</g>
<g clip-path="url(#c1n_3)">
<g fill="#000000" >
<use xlink:href="#f1_r" transform="matrix(12.4,0,0,12.4,112.4,733.7)" />
<use xlink:href="#f1_v" transform="matrix(12.4,0,0,12.4,122.5,733.7)" />
</g>
</g>
<g clip-path="url(#c1o_3)">
<g fill="#000000" >
<use xlink:href="#f1_bz" transform="matrix(12.4,0,0,12.4,136,733.7)" />
<use xlink:href="#f1_d4" transform="matrix(12.4,0,0,12.4,147.9,733.7)" />
<use xlink:href="#f1_c1" transform="matrix(12.4,0,0,12.4,147.8,733.7)" />
<use xlink:href="#f1_ct" transform="matrix(12.4,0,0,12.4,155.2,733.7)" />
<use xlink:href="#f1_b9" transform="matrix(12.4,0,0,12.4,165.2,733.7)" />
<use xlink:href="#f1_cb" transform="matrix(12.4,0,0,12.4,178.9,733.7)" />
<use xlink:href="#f1_b9" transform="matrix(12.4,0,0,12.4,192,733.7)" />
<use xlink:href="#f1_d4" transform="matrix(12.4,0,0,12.4,201.8,733.7)" />
<use xlink:href="#f1_bv" transform="matrix(12.4,0,0,12.4,210.7,733.7)" />
<use xlink:href="#f1_b9" transform="matrix(12.4,0,0,12.4,221.2,733.7)" />
<use xlink:href="#f1_ch" transform="matrix(12.4,0,0,12.4,234.8,733.7)" />
<use xlink:href="#f1_c3" transform="matrix(12.4,0,0,12.4,251,733.7)" />
<use xlink:href="#f1_d8" transform="matrix(12.4,0,0,12.4,264,733.7)" />
<use xlink:href="#f1_cc" transform="matrix(12.4,0,0,12.4,274,733.7)" />
<use xlink:href="#f1_ct" transform="matrix(12.4,0,0,12.4,284.2,733.7)" />
<use xlink:href="#f1_no" transform="matrix(12.4,0,0,12.4,289.2,733.7)" />
<use xlink:href="#f1_bq" transform="matrix(12.4,0,0,12.4,289.2,733.7)" />
</g>
</g>
<g clip-path="url(#c1p_3)">
<g fill="#000000" >
<use xlink:href="#f1_s" transform="matrix(12.4,0,0,12.4,483.6,733.7)" />
<use xlink:href="#f1_r" transform="matrix(12.4,0,0,12.4,494.3,733.7)" />
</g>
</g>
<g clip-path="url(#c1q_3)">
<g fill="#000000" >
<use xlink:href="#f1_r" transform="matrix(12.4,0,0,12.4,110.9,765.1)" />
<use xlink:href="#f1_w" transform="matrix(12.4,0,0,12.4,121.1,765.1)" />
</g>
</g>
<g clip-path="url(#c1r_3)">
<g fill="#000000" >
<use xlink:href="#f1_cu" transform="matrix(12.4,0,0,12.4,136,765.1)" />
<use xlink:href="#f1_b9" transform="matrix(12.4,0,0,12.4,141,765.1)" />
<use xlink:href="#f1_cb" transform="matrix(12.4,0,0,12.4,154.7,765.1)" />
<use xlink:href="#f1_bt" transform="matrix(12.4,0,0,12.4,167.8,765.1)" />
<use xlink:href="#f1_d4" transform="matrix(12.4,0,0,12.4,178.3,765.1)" />
<use xlink:href="#f1_cb" transform="matrix(12.4,0,0,12.4,183.2,765.1)" />
<use xlink:href="#f1_bg" transform="matrix(12.4,0,0,12.4,196.3,765.1)" />
<use xlink:href="#f1_ct" transform="matrix(12.4,0,0,12.4,208.9,765.1)" />
<use xlink:href="#f1_c0" transform="matrix(12.4,0,0,12.4,213.8,765.1)" />
<use xlink:href="#f1_ct" transform="matrix(12.4,0,0,12.4,224.9,765.1)" />
<use xlink:href="#f1_bp" transform="matrix(12.4,0,0,12.4,234.9,765.1)" />
<use xlink:href="#f1_d4" transform="matrix(12.4,0,0,12.4,245.9,765.1)" />
<use xlink:href="#f1_c1" transform="matrix(12.4,0,0,12.4,245.8,765.1)" />
<use xlink:href="#f1_ct" transform="matrix(12.4,0,0,12.4,253.2,765.1)" />
<use xlink:href="#f1_br" transform="matrix(12.4,0,0,12.4,263.1,765.1)" />
<use xlink:href="#f1_c1" transform="matrix(12.4,0,0,12.4,273.4,765.1)" />
<use xlink:href="#f1_bx" transform="matrix(12.4,0,0,12.4,280.8,765.1)" />
<use xlink:href="#f1_ct" transform="matrix(12.4,0,0,12.4,291.7,765.1)" />
<use xlink:href="#f1_c1" transform="matrix(12.4,0,0,12.4,296.6,765.1)" />
</g>
</g>
<g clip-path="url(#c1s_3)">
<g fill="#000000" >
<use xlink:href="#f1_s" transform="matrix(12.4,0,0,12.4,483.6,765.1)" />
<use xlink:href="#f1_s" transform="matrix(12.4,0,0,12.4,494.3,765.1)" />
</g>
</g>
<defs>
<path d="M67,0L58,52c0,0,105,40,209,64V851L81,762L38,831l294,193l71,-39V99L591,73L582,0Z"
id="f1_p"
transform="scale(0.001,-0.001)"/>

<path d="M400,63c0,0,55,0,124,23c0,0,47,81,47,140c0,0,0,132,-223,242c0,0,-65,-36,-100,-95c0,0,-36,-60,-36,-125c0,0,0,-78,50,-132c0,0,50,-53,138,-53Zm20,507c0,0,133,90,133,200c0,0,0,70,-48,118c0,0,-48,49,-125,49c0,0,-48,0,-107,-23c0,0,-53,-66,-53,-132c0,0,0,-69,51,-115c0,0,51,-47,149,-97ZM377,-30c0,0,-140,0,-228,72c0,0,-88,73,-88,187c0,0,0,168,214,275C275,504,84,607,84,767c0,0,0,110,85,182c0,0,85,72,222,72c0,0,128,0,209,-65c0,0,80,-64,80,-165c0,0,0,-148,-193,-258c0,0,106,-58,165,-123c0,0,58,-65,58,-159c0,0,0,-123,-92,-202c0,0,-92,-79,-241,-79Z"
id="f1_w"
transform="scale(0.001,-0.001)"/>

<path d="M959,-49L869,8V367c0,0,-32,-13,-64,-13c0,0,-50,0,-110,25c0,0,23,-52,23,-109c0,0,0,-103,-70,-170c0,0,-70,-66,-182,-66c0,0,-110,0,-222,82c0,0,-111,83,-213,293l68,42c0,0,72,-155,152,-231c0,0,81,-76,178,-76c0,0,83,0,131,49c0,0,48,48,48,117c0,0,0,54,-30,100c0,0,-31,47,-91,65L325,391L257,512c0,0,68,53,156,56c0,0,140,72,140,179c0,0,0,69,-52,99c0,0,-4,1,-11,1c-19,0,-66,-4,-123,-30c0,0,-78,-35,-142,-96L150,823c0,0,119,117,253,117c0,0,98,0,175,-71c0,0,77,-70,77,-159c0,0,0,-103,-94,-180c0,0,39,-23,73,-56c0,0,52,-22,109,-22c0,0,77,0,126,38V822H727l-46,76l14,31h840l46,-76l-13,-31H1332l66,-58V-39l-37,-10L1271,8V822H930l66,-58V-39L959,-49Z"
id="f1_am"
transform="scale(0.001,-0.001)"/>

<path d="M325,240c0,0,77,0,154,35c0,0,77,35,120,99V500c0,0,-118,73,-222,73c0,0,-97,0,-151,-54c0,0,-53,-53,-53,-128c0,0,0,-73,49,-125c0,0,38,-26,103,-26ZM689,-49L599,8V199c0,0,-73,-65,-179,-65c0,0,-134,0,-252,96c0,0,-118,95,-118,221c0,0,0,102,78,171c0,0,78,69,190,69c0,0,38,0,75,-10L599,582V822H0l-45,76l14,31H863l46,-76L895,822H660l66,-58V-39L689,-49Z"
id="f1_c7"
transform="scale(0.001,-0.001)"/>

<path d="M228,-49L138,8V822H0l-45,76l14,31H119L-33,1144c0,0,-70,92,-157,92c0,0,-69,0,-159,-58l-72,118c0,0,89,73,181,73c0,0,140,0,257,-170L205,929H402l46,-76L434,822H199l65,-58V-39L228,-49Z"
id="f1_d8"
transform="scale(0.001,-0.001)"/>

<path d="M388,325c0,0,58,0,112,31c0,0,53,31,84,86V822H165l69,-58V408c0,0,47,-83,154,-83ZM674,-49L584,8V257c0,0,-61,-51,-141,-51c0,0,-125,0,-232,109c0,0,-107,108,-107,243V822H0l-45,76l14,31H848l46,-76L880,822H645l65,-58V-39L674,-49Z"
id="f1_bv"
transform="scale(0.001,-0.001)"/>

<path d="M228,-49L138,8V822H0l-45,76l14,31H402l46,-76L434,822H199l65,-58V-39L228,-49Z"
id="f1_ct"
transform="scale(0.001,-0.001)"/>

<path d="M527,-71L52,414l34,92H277c0,0,12,32,12,72V822H0l-45,76l14,31H599l46,-76L631,822H350l66,-55V564c0,0,0,-96,-152,-248L610,34L611,8L527,-71Z"
id="f1_c1"
transform="scale(0.001,-0.001)"/>

<path d="M799,475V822H350l66,-55V564c0,0,0,-43,-25,-89ZM527,-71L52,414l34,92H277c0,0,12,32,12,72V822H0l-45,76l14,31H1063l46,-76l-14,-31H860l66,-58V-39L889,-49L799,8V370H315L264,316L610,34L611,8L527,-71Z"
id="f1_cb"
transform="scale(0.001,-0.001)"/>

<path d="M663,-49L573,8V445H299V280L226,251c0,0,-105,99,-162,238l63,72H573V822H0l-45,76l14,31H837l46,-76L869,822H634l66,-58V-39L663,-49Z"
id="f1_bt"
transform="scale(0.001,-0.001)"/>

<path d="M0,822l-45,76l14,31H61l46,-76L93,822Z"
id="f1_no"
transform="scale(0.001,-0.001)"/>

<path d="M768,-49L678,8V202c0,0,-73,-58,-172,-58c0,0,-123,0,-240,94c0,0,-118,94,-179,237l20,55c0,0,134,12,215,70c0,0,81,57,81,141c0,0,0,90,-67,134l-26,3c0,0,-46,0,-74,-29c0,0,-28,-30,-28,-68c0,0,0,-55,82,-109L252,620C252,620,93,720,93,820c0,0,0,65,47,104c0,0,46,40,114,40c0,0,99,0,179,-83c0,0,80,-83,82,-197c0,0,0,-93,-79,-165c0,0,-78,-73,-199,-97c0,0,29,-104,88,-158c0,0,42,-16,92,-16c0,0,78,0,151,38c0,0,74,38,110,111V822H553l-46,76l14,31H943l45,-76L975,822H739l66,-58V-39L768,-49Z"
id="f1_bq"
transform="scale(0.001,-0.001)"/>

<path d="M95,0L67,98L422,497c0,0,130,154,130,259c0,0,0,63,-40,111c0,0,-40,48,-121,48c0,0,-75,0,-171,-29L193,695l-88,2c0,0,-13,82,-13,165l1,65c0,0,159,97,315,97c0,0,122,0,207,-78c0,0,85,-77,85,-193c0,0,0,-67,-34,-133c0,0,-33,-67,-165,-217L237,121l4,-14l373,21l49,136l83,-12C746,252,732,99,704,0Z"
id="f1_q"
transform="scale(0.001,-0.001)"/>

<path d="M387,-28c0,0,-158,0,-295,71l27,137c0,0,168,-84,329,-84c0,0,47,0,85,9c0,0,57,62,57,141c0,0,0,82,-66,140c0,0,-66,57,-188,57L228,438l-3,104h26c0,0,145,5,212,67c0,0,67,62,67,146c0,0,0,75,-51,123c0,0,-51,49,-143,49c0,0,-50,0,-105,-16L203,743l-88,1c0,0,-14,83,-14,139l1,58c0,0,120,83,280,83c0,0,128,0,211,-71c0,0,82,-71,82,-177c0,0,0,-73,-45,-137c0,0,-45,-65,-132,-98c0,0,96,-22,163,-103c0,0,66,-80,66,-178c0,0,0,-126,-94,-207c0,0,-95,-81,-246,-81Z"
id="f1_r"
transform="scale(0.001,-0.001)"/>

<path d="M160,-11L136,154L377,141c0,0,201,125,201,430c0,0,0,153,-54,256c0,0,-53,102,-160,102c0,0,-31,0,-68,-9c0,0,-50,-29,-78,-89c0,0,-27,-59,-27,-127c0,0,0,-102,63,-169c0,0,62,-67,162,-67c0,0,35,0,81,12l16,-81c0,0,-78,-26,-151,-26c0,0,-140,0,-228,93c0,0,-88,93,-88,235c0,0,0,141,93,232c0,0,93,91,235,91c0,0,156,0,252,-122c0,0,95,-121,95,-320c0,0,0,-252,-160,-422C561,160,400,-8,160,-11Z"
id="f1_x"
transform="scale(0.001,-0.001)"/>

<path d="M688,-243c0,0,-256,53,-408,173c0,0,-152,119,-152,270c0,0,0,101,68,171c0,0,-101,84,-101,179c0,0,0,64,53,112c0,0,54,47,191,47H587V822H0l-45,76l14,31H830l45,-76L862,822H640l66,-58V585H362c0,0,-159,-1,-159,-92c0,0,0,-41,46,-80c0,0,76,47,183,47c0,0,135,0,230,-76c0,0,96,-75,96,-187C758,197,758,67,629,2L545,104c0,0,49,30,81,75c0,0,32,44,32,82c0,0,0,16,-4,26c0,0,-64,58,-167,58c0,0,-97,0,-166,-50v-2c0,0,-67,-52,-67,-131c0,0,0,-116,132,-199c0,0,132,-84,334,-132l-32,-74Z"
id="f1_cc"
transform="scale(0.001,-0.001)"/>

<path d="M845,-49L755,8V513H497c0,0,61,-45,93,-110c0,0,33,-64,33,-128c0,0,0,-90,-58,-144c0,0,-59,-53,-143,-53c0,0,-133,0,-234,139C188,217,87,356,20,596l76,24c0,0,60,-201,127,-306c0,0,67,-105,160,-105c0,0,57,0,91,36c0,0,33,36,33,91c0,0,0,84,-73,159L295,558v71H755V822H0l-45,76l14,31H1019l46,-76l-14,-31H816l66,-58V-39L845,-49Z"
id="f1_bg"
transform="scale(0.001,-0.001)"/>

<path d="M689,445V822H286l65,-58l8,-319ZM779,-49L689,8V328H370V180L296,150c0,0,-56,35,-120,104c0,0,-63,70,-89,131l41,60H238L223,822H0l-45,76l14,31H953l46,-76L985,822H750l66,-58V-39L779,-49Z"
id="f1_bz"
transform="scale(0.001,-0.001)"/>

<path d="M-214,863l-199,281c0,0,-70,92,-157,92c0,0,-69,0,-159,-58l-72,118c0,0,89,73,180,73c0,0,141,0,258,-170L-155,901l-59,-38Z"
id="f1_d4"
transform="scale(0.001,-0.001)"/>

<path d="M0,1062c0,0,-26,11,-60,36c0,0,-34,26,-51,49c0,0,39,81,91,110c0,0,60,-23,106,-85c0,0,-28,-70,-86,-110Z"
id="f1_dj"
transform="scale(0.001,-0.001)"/>

<path d="M675,-274L602,21C602,21,550,3,498,3C498,3,347,3,210,118C210,118,73,232,73,373c0,0,0,113,84,184c0,0,84,71,222,72H524V822H0l-45,76l14,31H834l46,-76L866,822H585l66,-58V504l-3,2l3,-3H408c0,0,-95,0,-154,-53c0,0,-58,-53,-58,-132c0,0,0,-49,27,-100c0,0,28,-50,83,-84c0,0,44,-15,96,-15c0,0,91,0,160,46L535,303l101,48L773,188c0,0,-8,-28,-34,-66c0,0,-27,-38,-62,-64L813,-221L675,-274Z"
id="f1_br"
transform="scale(0.001,-0.001)"/>

<path d="M347,-57C347,-57,66,211,66,394c0,0,0,98,74,164c0,0,74,65,225,65H616V822H0l-45,76l14,31H880l46,-76L912,822H677l66,-58V-39L706,-49L616,8V500H428c0,0,-239,0,-239,-161c0,0,0,-136,214,-343L347,-57Z"
id="f1_bp"
transform="scale(0.001,-0.001)"/>

<path d="M825,-49L735,8V217c0,0,-86,-72,-197,-72c0,0,-130,0,-238,91c0,0,-107,91,-107,204c0,0,0,55,27,105H55L12,616l14,30H574l46,-76L607,539H396c0,0,-78,-49,-78,-162c0,0,0,-70,40,-111c0,0,39,-15,94,-15c0,0,84,0,163,41c0,0,79,41,120,121V822H0l-45,76l14,31H999l46,-76l-14,-31H796l66,-58V-39L825,-49Z"
id="f1_be"
transform="scale(0.001,-0.001)"/>

<path d="M228,-49L138,8V822H0l-45,76l14,31H134c0,0,-91,92,-91,191c0,0,0,105,85,170c0,0,84,65,219,65c0,0,128,0,293,-76c0,0,165,-77,362,-263L958,966c0,0,-177,143,-303,210c0,0,-125,68,-244,68c0,0,-107,0,-175,-50c0,0,-68,-50,-68,-131c0,0,0,-61,49,-134H402l46,-76L434,822H199l65,-58V-39L228,-49Z"
id="f1_cu"
transform="scale(0.001,-0.001)"/>

<path d="M830,-253l-123,66c0,0,31,47,31,78c0,0,0,44,-64,84L353,130c0,0,-234,113,-234,325V822H0l-45,76l14,31H848l46,-76L880,822H655l68,-58V561c0,0,0,-176,-41,-241c0,0,-40,-65,-161,-106l-49,82l124,69V822H180l66,-58V283L646,92c0,0,126,-60,176,-110c0,0,50,-51,50,-115c0,0,0,-62,-42,-120Z"
id="f1_ax"
transform="scale(0.001,-0.001)"/>

<path d="M188,365l310,9V738l18,139L188,365ZM338,0L328,52l170,55V267H73L38,354l478,670l118,-16V377l176,5l1,-76L768,267H634V90L761,73L752,0Z"
id="f1_s"
transform="scale(0.001,-0.001)"/>

<path d="M455,84c0,0,32,0,64,11c0,0,66,59,96,174c0,0,30,114,30,231c0,0,0,172,-61,291c0,0,-61,118,-178,118c0,0,-33,0,-70,-11c0,0,-63,-56,-94,-173c0,0,-31,-117,-31,-221c0,0,0,-176,68,-298c0,0,68,-122,176,-122ZM423,-14c0,0,-157,0,-255,137c0,0,-98,138,-98,360c0,0,0,230,105,379c0,0,105,148,273,148c0,0,166,0,252,-138c0,0,87,-137,87,-351c0,0,0,-243,-99,-390C688,131,588,-14,423,-14Z"
id="f1_o"
transform="scale(0.001,-0.001)"/>

<path d="M438,206c0,0,-119,0,-226,109c0,0,-108,108,-108,243V822H0l-45,76l14,31H542l46,-76L574,822H165l66,-58V408c0,0,46,-86,151,-86c0,0,61,0,119,32c0,0,58,33,95,91L669,338c0,0,-44,-66,-108,-99c0,0,-63,-33,-123,-33Z"
id="f1_ll"
transform="scale(0.001,-0.001)"/>

<path d="M374,248c0,0,77,0,149,36c0,0,71,37,110,107V822H284c0,0,138,-96,138,-208c0,0,0,-151,-228,-192c0,0,29,-104,89,-158c0,0,41,-16,91,-16ZM723,-49L633,8V200c0,0,-69,-56,-170,-56c0,0,-122,0,-240,94c0,0,-118,94,-179,237l20,55c0,0,133,17,187,44c0,0,55,28,55,84c0,0,0,45,-30,81c0,0,-30,36,-99,83H0l-45,76l14,31H897l46,-76L929,822H694l65,-58V-39L723,-49Z"
id="f1_c0"
transform="scale(0.001,-0.001)"/>

<path d="M416,-30c0,0,-83,0,-175,30C241,0,148,29,75,78l59,125C134,203,296,93,463,93l82,8c0,0,75,67,75,157c0,0,0,104,-70,158c0,0,-70,53,-171,53c0,0,-86,0,-177,-35l-75,66l53,493H700l1,-69c0,0,0,-96,-13,-178l-88,-2L584,872L278,886L248,570c0,0,55,27,149,27c0,0,155,0,255,-84c0,0,100,-85,100,-224c0,0,0,-139,-95,-229c0,0,-95,-90,-241,-90Z"
id="f1_t"
transform="scale(0.001,-0.001)"/>

<path d="M823,-49L733,8V339H445V191L371,160c0,0,-56,36,-120,105c0,0,-63,70,-89,131l41,59H313V735c0,0,0,99,-55,140c0,0,-3,1,-8,1c-16,0,-48,-3,-71,-23c0,0,-31,-26,-31,-66c0,0,0,-69,81,-113L189,620C189,620,31,720,31,828c0,0,0,61,45,99c0,0,46,37,109,37c0,0,96,0,173,-86c0,0,76,-87,79,-194V455H733V822H556l-46,76l14,31H998l45,-76l-13,-31H794l66,-58V-39L823,-49Z"
id="f1_by"
transform="scale(0.001,-0.001)"/>

<path d="M228,-49L138,8V822H0l-45,76l14,31H134c0,0,-85,93,-85,192c0,0,0,124,129,195c0,0,129,71,364,71c0,0,285,0,647,-97c0,0,363,-97,692,-271l-42,-50c0,0,-313,137,-644,221c0,0,-332,84,-595,84c0,0,-198,0,-314,-55c0,0,-115,-55,-115,-163c0,0,0,-60,44,-127H402l46,-76L434,822H199l65,-58V-39L228,-49Z"
id="f1_o0"
transform="scale(0.001,-0.001)"/>

<path d="M283,260c0,0,122,0,209,113V513c0,0,-90,51,-160,51c0,0,-80,0,-129,-50c0,0,-49,-50,-49,-118c0,0,0,-60,35,-110c0,0,45,-26,94,-26ZM582,-49L492,8V211c0,0,-63,-54,-141,-54c0,0,-113,0,-214,92c0,0,-102,92,-102,206c0,0,0,93,69,157c0,0,69,63,163,63c0,0,34,0,66,-9L492,590V822H0l-45,76l14,31H909l46,-76L941,822H553l66,-58V521c0,0,93,104,192,104c0,0,63,0,120,-42c0,0,57,-42,82,-106L964,431l-5,9c0,0,-38,72,-110,72c0,0,-51,0,-105,-41c0,0,-53,-42,-125,-129V-39L582,-49Z"
id="f1_l1"
transform="scale(0.001,-0.001)"/>

<path d="M283,260c0,0,122,0,209,113V513c0,0,-90,51,-160,51c0,0,-80,0,-129,-50c0,0,-49,-50,-49,-118c0,0,0,-60,35,-110c0,0,45,-26,94,-26ZM582,-49L492,8V211c0,0,-63,-54,-141,-54c0,0,-113,0,-213,92c0,0,-100,92,-100,205c0,0,0,93,69,157c0,0,69,64,162,64c0,0,32,0,64,-9L492,590V822H0l-45,76l14,31H1108l45,-76l-13,-31H553l66,-58V524c0,0,91,89,192,89c0,0,98,0,171,-79c0,0,72,-79,72,-186c0,0,0,-178,-224,-330L736,124c0,0,219,153,219,269c0,0,0,44,-26,75c0,0,-26,32,-81,32c0,0,-109,0,-229,-155V-39L582,-49Z"
id="f1_b9"
transform="scale(0.001,-0.001)"/>

<path d="M228,-49L138,8V822H0l-45,76l14,31H134c0,0,-231,362,-445,362c0,0,-87,0,-135,-49c0,0,-48,-49,-48,-116c0,0,0,-73,43,-122l-45,-32c0,0,-119,108,-119,223c0,0,0,94,74,155c0,0,73,60,181,60c0,0,161,0,316,-134c0,0,154,-133,267,-347H402l46,-76L434,822H199l65,-58V-39L228,-49Z"
id="f1_oc"
transform="scale(0.001,-0.001)"/>

<path d="M-214,860l-227,219c0,0,-73,70,-148,70c0,0,-67,0,-160,-58l-72,117c0,0,83,71,176,71c0,0,120,0,232,-124L-221,940l-102,294c0,0,-64,179,-189,179c0,0,-60,0,-133,-33l-60,125c0,0,84,47,164,47c0,0,200,0,281,-276L-150,901l-23,-15l-41,-26Z"
id="f1_d5"
transform="scale(0.001,-0.001)"/>

<path d="M431,-30c0,0,-162,0,-266,120C165,90,61,211,61,399c0,0,0,140,63,278c0,0,62,137,198,233c0,0,136,95,343,104l1,-154H440c0,0,-110,-50,-172,-178c0,0,-62,-127,-62,-273c0,0,0,-148,67,-243c0,0,68,-96,195,-96l25,2c0,0,117,59,117,205c0,0,0,88,-43,152c0,0,-43,64,-116,64c0,0,-72,0,-155,-59l-35,63c0,0,121,103,246,103c0,0,106,0,177,-87c0,0,71,-88,71,-214c0,0,0,-139,-92,-234c0,0,-92,-95,-232,-95Z"
id="f1_u"
transform="scale(0.001,-0.001)"/>

<path d="M280,-16L139,23c0,0,170,472,422,845l-11,14L156,865L139,736l-87,2c0,0,-14,82,-14,185l2,70H633L688,878C688,878,449,501,280,-16Z"
id="f1_v"
transform="scale(0.001,-0.001)"/>

<path d="M819,-521L651,-303c0,0,-99,119,-191,119c0,0,-60,0,-96,-34c0,0,-37,-35,-37,-82c0,0,0,-49,43,-82l151,94l64,-116c0,0,-70,-58,-148,-58c0,0,-79,0,-145,64c0,0,-66,63,-66,144c0,0,0,98,90,151c0,0,-203,131,-203,306c0,0,0,101,69,170c0,0,-103,88,-103,179c0,0,0,64,57,110c0,0,57,47,196,47H571V822H0l-45,76l14,31H830l45,-76L862,822H625l66,-58V585H364c0,0,-176,0,-176,-96c0,0,0,-41,44,-76c0,0,81,47,185,47c0,0,135,0,230,-76c0,0,96,-75,96,-187C743,197,743,67,614,2L530,104c0,0,49,30,81,75c0,0,32,44,32,82c0,0,0,16,-4,26c0,0,-65,58,-167,58c0,0,-98,0,-166,-50v-2c0,0,-68,-52,-68,-131c0,0,0,-134,188,-231c0,0,84,0,164,-62c0,0,79,-62,195,-222l90,-129l-56,-39Z"
id="f1_n5"
transform="scale(0.001,-0.001)"/>

<path d="M-233,1021c0,0,-84,0,-168,55c0,0,-84,56,-146,162l51,50c0,0,95,-162,219,-162c0,0,125,0,160,157L-7,1234c0,0,-21,-103,-81,-158c0,0,-61,-55,-145,-55Zm-41,201c0,0,-66,25,-102,80c0,0,32,68,82,101c0,0,55,-20,99,-80c0,0,-26,-67,-79,-101Z"
id="f1_di"
transform="scale(0.001,-0.001)"/>

<path d="M513,460c0,0,61,81,61,179c0,0,0,87,-45,143c0,0,-45,57,-116,57c0,0,-63,0,-102,-43c0,0,-39,-43,-39,-110c0,0,0,-90,68,-151c0,0,68,-61,173,-75ZM581,-83L278,167l-41,-4c0,0,-99,0,-130,37l47,168l51,12l78,-79c0,0,110,40,183,105c0,0,-141,23,-231,107c0,0,-90,84,-90,193c0,0,0,69,37,116H0l-45,76l14,31H1134l45,-76l-13,-31H930l66,-58V-39L959,-49L869,8V822H588c0,0,51,-44,75,-109c0,0,25,-64,25,-122c0,0,0,-105,-81,-213c0,0,-80,-108,-240,-176L658,18l2,-25L581,-83Z"
id="f1_c8"
transform="scale(0.001,-0.001)"/>

<path d="M547,-285c0,0,-66,25,-102,80c0,0,32,69,82,101c0,0,55,-20,99,-80c0,0,-26,-67,-79,-101Zm1,228c0,0,-122,0,-243,81c0,0,-122,81,-252,280l57,41C110,345,283,64,498,64c0,0,92,0,153,49c0,0,61,49,61,121c0,0,0,46,-28,84L440,237c0,0,-73,11,-139,55c0,0,-66,44,-105,105c0,0,-40,61,-40,119c0,0,0,72,62,125c0,0,62,53,184,53H625V822H0l-45,76l14,31H906l46,-76L938,822H678l66,-58V562H431c0,0,-164,0,-164,-99c0,0,0,-55,57,-102l261,82c0,0,104,-21,172,-98c0,0,68,-78,68,-171c0,0,0,-99,-76,-166c0,0,-77,-65,-201,-65Z"
id="f1_ch"
transform="scale(0.001,-0.001)"/>

<path d="M228,-49L138,8V822H0l-45,76l14,31H138c0,0,-109,342,-284,342c0,0,-62,0,-102,-40c0,0,-40,-39,-40,-93c0,0,0,-61,51,-134l-42,-32c0,0,-128,113,-128,226c0,0,0,79,60,136c0,0,61,56,154,56c0,0,137,0,249,-125c0,0,112,-125,169,-336H402l46,-76L434,822H199l65,-58V-39L228,-49Z"
id="f1_cv"
transform="scale(0.001,-0.001)"/>

<path d="M342,324c0,0,45,0,75,34c0,0,31,33,31,100V822H165l66,-58V390c0,0,32,-66,111,-66ZM853,-49L762,8V822H509l65,-58V455c0,0,0,-134,-51,-185c0,0,-52,-52,-127,-52c0,0,-98,0,-195,99c0,0,-97,99,-97,209V822H0l-45,76l14,31H1027l46,-76l-14,-31H823l66,-58V-39L853,-49Z"
id="f1_bo"
transform="scale(0.001,-0.001)"/>

<path d="M959,-49L869,8V367c0,0,-32,-13,-64,-13c0,0,-50,0,-110,25c0,0,23,-52,23,-109c0,0,0,-103,-70,-170c0,0,-70,-66,-182,-66c0,0,-110,0,-222,82c0,0,-111,83,-213,293l68,42c0,0,72,-155,152,-231c0,0,81,-76,178,-76c0,0,83,0,131,49c0,0,48,48,48,117c0,0,0,54,-30,100c0,0,-31,47,-91,65L325,391L257,512c0,0,68,53,156,56c0,0,140,72,140,179c0,0,0,69,-52,99c0,0,-4,1,-11,1c-19,0,-66,-4,-123,-30c0,0,-78,-35,-142,-96L150,823c0,0,119,117,253,117c0,0,98,0,175,-71c0,0,77,-70,77,-159c0,0,0,-103,-94,-180c0,0,39,-23,73,-56c0,0,52,-22,109,-22c0,0,77,0,126,38V822H727l-46,76l14,31h439l45,-76l-13,-31H930l66,-58V-39L959,-49Z"
id="f1_al"
transform="scale(0.001,-0.001)"/>

<path d="M348,229c0,0,57,0,106,17L263,559c0,0,-95,-50,-95,-162c0,0,0,-75,52,-136c0,0,49,-32,128,-32Zm170,48c0,0,61,38,96,91V504c0,0,-131,80,-244,80l-35,-2L518,277ZM704,-49L614,8V193c0,0,-84,-65,-192,-65c0,0,-139,0,-255,98c0,0,-115,98,-115,226c0,0,0,106,77,175c0,0,77,70,189,70c0,0,38,0,75,-9L614,578V822H0l-45,76l14,31H878l46,-76L911,822H675l66,-58V-39L704,-49Z"
id="f1_bx"
transform="scale(0.001,-0.001)"/>

<path d="M827,-49L736,8V205c0,0,-84,-84,-209,-84c0,0,-130,0,-237,91c0,0,-108,92,-108,196c0,0,0,79,61,137C243,545,66,672,66,791c0,0,0,75,52,124c0,0,53,49,134,49c0,0,164,0,260,-237L451,694c0,0,-55,114,-119,163l-31,5c0,0,-44,0,-77,-32c0,0,-33,-31,-33,-78c0,0,0,-86,113,-165c0,0,60,27,133,27l67,-4l75,-89L564,490l-51,7H493c0,0,-90,0,-142,-43c0,0,-52,-43,-52,-104c0,0,0,-60,51,-109c0,0,33,-16,84,-16c0,0,89,0,177,47c0,0,89,47,125,137V822H567l-46,76l14,31h466l46,-76l-14,-31H798l65,-58V-39L827,-49Z"
id="f1_bs"
transform="scale(0.001,-0.001)"/>

<path d="M-234,-413c0,0,-210,0,-488,322l54,49c0,0,119,-128,209,-193c0,0,90,-65,177,-65c0,0,72,0,113,40c0,0,42,39,42,91c0,0,0,75,-78,106L-323,-181l-90,98c0,0,63,95,167,95c0,0,90,0,155,-69c0,0,66,-70,66,-164c0,0,0,-85,-60,-139c0,0,-61,-53,-149,-53Z"
id="f1_cw"
transform="scale(0.001,-0.001)"/>

<path d="M-239,897c0,0,-82,61,-132,137c0,0,-50,75,-50,150c0,0,0,78,52,133c0,0,52,55,141,55c0,0,98,0,176,-64l-23,-69c0,0,-52,32,-104,32c0,0,-57,0,-95,-36c0,0,-38,-36,-38,-95c0,0,0,-115,117,-217l-44,-26Z"
id="f1_dr"
transform="scale(0.001,-0.001)"/>

<path d="M92,380L46,457l14,30H448l45,-76L480,380Z"
id="f1_l"
transform="scale(0.001,-0.001)"/>

<path d="M413,-59C413,-59,53,193,53,416c0,0,0,97,66,164c0,0,66,66,156,66c0,0,61,0,110,-30L487,507c0,0,92,126,257,126l35,-2V822H0l-45,76l14,31H1043l46,-76l-13,-31H840l66,-58V-39L869,-49L779,8V547c0,0,-101,-5,-165,-90c0,0,-64,-86,-70,-222L507,225l-90,73c0,0,5,79,35,151c0,0,-59,66,-128,66c0,0,-57,0,-100,-38c0,0,-44,-39,-44,-109c0,0,0,-165,284,-360L413,-59Z"
id="f1_c3"
transform="scale(0.001,-0.001)"/>

<path d="M108,-433L-59,-214c0,0,-99,119,-191,119c0,0,-59,0,-96,-35c0,0,-36,-34,-36,-81c0,0,0,-49,42,-83l152,95l64,-116c0,0,-71,-58,-148,-58c0,0,-80,0,-146,63c0,0,-65,64,-65,144c0,0,0,77,62,131c0,0,61,53,142,53c0,0,138,0,296,-205L165,-393l-57,-40Z"
id="f1_cx"
transform="scale(0.001,-0.001)"/>

<path d="M727,-49L637,8V822H278l66,-58V226L270,196c0,0,-64,36,-122,98c0,0,-58,62,-79,122l43,59H217V822H0l-45,76l14,31H901l46,-76L933,822H698l66,-58V-39L727,-49Z"
id="f1_bb"
transform="scale(0.001,-0.001)"/>

<path d="M78,-431l-266,240l-132,-60l-90,85c0,0,95,66,179,66c0,0,65,0,145,-69L131,-375L78,-431Z"
id="f1_dg"
transform="scale(0.001,-0.001)"/>

<path d="M761,293c0,0,127,0,169,94V532c0,0,-68,46,-145,46c0,0,-76,0,-121,-46c0,0,-45,-45,-45,-107c0,0,0,-61,44,-110c0,0,47,-22,98,-22ZM657,67c0,0,166,0,273,107v55c0,0,-45,-36,-111,-36c0,0,-110,0,-207,90c0,0,-97,90,-97,194c0,0,0,85,66,148c0,0,65,63,155,63l48,-5L930,603V822H376l62,-55V579c0,0,0,-60,-23,-102c0,0,-24,-42,-148,-190c0,0,66,-104,175,-162c0,0,108,-58,215,-58ZM1021,-49L930,8V53c0,0,-105,-83,-264,-83c0,0,-177,0,-339,128C327,98,165,226,90,429l34,77H296c0,0,19,39,19,102l-2,214H0l-45,76l14,31H1195l46,-76l-14,-31H992l65,-58V-39l-36,-10Z"
id="f1_ba"
transform="scale(0.001,-0.001)"/>

<path d="M373,218c0,0,98,0,172,61c0,0,75,60,75,140c0,0,0,29,-10,55c0,0,-69,59,-121,85c0,0,-52,26,-113,26c0,0,-95,0,-151,-56c0,0,-57,-55,-57,-133c0,0,0,-77,52,-135c0,0,60,-43,153,-43ZM431,116c0,0,-142,0,-261,99C170,215,52,315,52,446c0,0,0,107,80,179c0,0,80,72,195,72c0,0,43,0,81,-11L642,548c0,0,73,-91,73,-183c0,0,0,-104,-84,-176c0,0,-84,-73,-200,-73ZM0,822l-45,76l14,31H619l46,-76L651,822Z"
id="f1_lx"
transform="scale(0.001,-0.001)"/>

<path d="M228,-49L138,8V822H0l-45,76l14,31H136c0,0,-173,353,-364,353c0,0,-75,0,-119,-44c0,0,-45,-45,-45,-106c0,0,0,-69,48,-128l-43,-32c0,0,-124,113,-124,224c0,0,0,87,67,146c0,0,68,59,167,59c0,0,150,0,283,-130c0,0,135,-130,219,-342H402l46,-76L434,822H199l65,-58V-39L228,-49Z"
id="f1_ob"
transform="scale(0.001,-0.001)"/>

<path d="M396,318c0,0,123,0,203,108V822H180l66,-58V408c0,0,49,-90,150,-90ZM176,-66L79,9L379,228c0,0,-106,23,-181,119c0,0,-76,96,-79,198V822H0l-45,76l14,31H863l46,-76L895,822H660l66,-58V-39L689,-49L599,8V269L176,-66Z"
id="f1_e6"
transform="scale(0.001,-0.001)"/>

<path d="M228,-49L138,8V822H0l-45,76l14,31H134c0,0,-91,93,-91,200c0,0,0,109,92,174c0,0,93,66,253,66c0,0,186,0,398,-89c0,0,212,-90,430,-264l-49,-47c0,0,-424,285,-727,285c0,0,-125,0,-201,-49c0,0,-76,-48,-76,-137c0,0,0,-67,52,-139H402l46,-76L434,822H199l65,-58V-39L228,-49Z"
id="f1_nu"
transform="scale(0.001,-0.001)"/>

<path d="M900,298c0,0,32,73,32,159c0,0,0,110,-38,160c0,0,-40,31,-81,31c0,0,-48,0,-80,-35c0,0,-33,-35,-33,-89c0,0,0,-118,200,-226ZM588,-60c0,0,-154,0,-274,93c0,0,-120,94,-120,207c0,0,0,50,28,92C222,332,61,440,61,552c0,0,0,71,56,122c0,0,56,50,169,50H417l64,-98L463,600H333c0,0,-157,-1,-157,-99c0,0,0,-59,88,-124c0,0,68,52,164,52c0,0,38,0,79,-9l71,-88L558,299c0,0,-46,10,-81,10c0,0,-75,0,-116,-36c0,0,-40,-36,-40,-88c0,0,0,-78,73,-130c0,0,54,-17,109,-17c0,0,114,0,211,54c0,0,97,53,154,145c0,0,-156,96,-223,173c0,0,-67,77,-67,155c0,0,0,72,48,124c0,0,48,52,126,55v78H0l-45,76l14,31H1123l46,-76l-14,-31H805l66,-58V717c0,0,76,-40,124,-124c0,0,47,-84,47,-193c0,0,0,-188,-133,-324C909,76,776,-60,588,-60Z"
id="f1_bf"
transform="scale(0.001,-0.001)"/>

<path d="M228,-49L138,8V822H0l-45,76l14,31H134c0,0,-91,93,-91,202c0,0,0,105,85,170c0,0,86,65,236,65c0,0,340,0,742,-350l-50,-46c0,0,-182,135,-340,208c0,0,-158,73,-302,73c0,0,-113,0,-183,-48c0,0,-69,-48,-69,-132c0,0,0,-63,53,-142H402l46,-76L434,822H199l65,-58V-39L228,-49Z"
id="f1_nt"
transform="scale(0.001,-0.001)"/>


</defs>
</svg>