<?xml version="1.0" encoding="UTF-8" standalone="no"?>
<!DOCTYPE svg PUBLIC "-//W3C//DTD SVG 1.1//EN"
"http://www.w3.org/Graphics/SVG/1.1/DTD/svg11.dtd">
<svg viewBox="0 0 641 910" version="1.1" xmlns="http://www.w3.org/2000/svg" xmlns:xlink="http://www.w3.org/1999/xlink">
<defs>
<clipPath id="c0_73"><path d="M0,909.8V0H641.7V909.8Z"/></clipPath>
<clipPath id="c1_73"><path d="M0,908.6V0H641.7V908.6Z"/></clipPath>
<style type="text/css"><![CDATA[
.g0_73{
fill: #FFFFFF;
}
.g1_73{
}
]]></style>
</defs>
<path d="M0,0H641.7V909.8H0V0Z" class="g0_73"/>
<path d="M0,0H641.7V909.8H0V0Z" class="g0_73"/>
<g clip-path="url(#c0_73)">
<path d="M0,-60046.2H641.7V46399.4H0V-60046.2Z" class="g0_73"/>
</g>
<path d="M0,0H641.7V908.6H0V0Z" class="g0_73"/>
<path d="M19.5,60.7H602.7v1.2H19.5V60.7Z" class="g1_73"/>
<g clip-path="url(#c1_73)">
<path d="M0,61.9H641.7V909.8H0V61.9Z" class="g0_73"/>
<g fill="#000000" >
<use xlink:href="#f6_n0" transform="matrix(14,0,0,14,210,91.7)" />
<use xlink:href="#f6_bz" transform="matrix(14,0,0,14,223.1,91.7)" />
<use xlink:href="#f6_bh" transform="matrix(14,0,0,14,236.5,91.7)" />
<use xlink:href="#f6_oe" transform="matrix(14,0,0,14,253.9,91.6)" />
<use xlink:href="#f6_bz" transform="matrix(14,0,0,14,253.3,91.7)" />
<use xlink:href="#f6_b9" transform="matrix(14,0,0,14,272.3,91.7)" />
<use xlink:href="#f6_c1" transform="matrix(14,0,0,14,287.8,91.7)" />
<use xlink:href="#f6_bp" transform="matrix(14,0,0,14,296.1,91.7)" />
<use xlink:href="#f6_ct" transform="matrix(14,0,0,14,308.5,91.7)" />
<use xlink:href="#f6_am" transform="matrix(14,0,0,14,319.7,91.7)" />
<use xlink:href="#f6_c7" transform="matrix(14,0,0,14,341.2,91.7)" />
<use xlink:href="#f6_d8" transform="matrix(14,0,0,14,353.3,91.7)" />
<use xlink:href="#f6_bg" transform="matrix(14,0,0,14,358.9,91.7)" />
<use xlink:href="#f6_cv" transform="matrix(14,0,0,14,373.2,91.7)" />
<use xlink:href="#f6_by" transform="matrix(14,0,0,14,384.5,91.7)" />
<use xlink:href="#f6_d4" transform="matrix(14,0,0,14,398.6,91.7)" />
<use xlink:href="#f6_n1" transform="matrix(14,0,0,14,398.4,91.7)" />
<use xlink:href="#f6_by" transform="matrix(14,0,0,14,211.1,126)" />
<use xlink:href="#f6_l1" transform="matrix(14,0,0,14,225.1,126)" />
<use xlink:href="#f6_bp" transform="matrix(14,0,0,14,237,126)" />
<use xlink:href="#f6_d8" transform="matrix(14,0,0,14,249.3,126)" />
<use xlink:href="#f6_bt" transform="matrix(14,0,0,14,260.6,126)" />
<use xlink:href="#f6_d4" transform="matrix(14,0,0,14,272.4,126)" />
<use xlink:href="#f6_br" transform="matrix(14,0,0,14,277.9,126)" />
<use xlink:href="#f6_c8" transform="matrix(14,0,0,14,289.6,126)" />
<use xlink:href="#f6_dr" transform="matrix(14,0,0,14,305.9,126)" />
<use xlink:href="#f6_bt" transform="matrix(14,0,0,14,305.5,126)" />
<use xlink:href="#f6_br" transform="matrix(14,0,0,14,322.9,126)" />
<use xlink:href="#f6_d4" transform="matrix(14,0,0,14,334.1,126)" />
<use xlink:href="#f6_c7" transform="matrix(14,0,0,14,334.5,126)" />
<use xlink:href="#f6_d8" transform="matrix(14,0,0,14,346.6,126)" />
<use xlink:href="#f6_bg" transform="matrix(14,0,0,14,357.9,126)" />
<use xlink:href="#f6_cv" transform="matrix(14,0,0,14,372.1,126)" />
<use xlink:href="#f6_by" transform="matrix(14,0,0,14,383.4,126)" />
<use xlink:href="#f6_d4" transform="matrix(14,0,0,14,397.5,126)" />
<use xlink:href="#f6_n1" transform="matrix(14,0,0,14,397.4,126)" />
<use xlink:href="#f6_bk" transform="matrix(14,0,0,14,155,160.4)" />
<use xlink:href="#f6_ct" transform="matrix(14,0,0,14,166.6,160.4)" />
<use xlink:href="#f6_bx" transform="matrix(14,0,0,14,172.2,160.4)" />
<use xlink:href="#f6_nr" transform="matrix(14,0,0,14,184.5,160.4)" />
<use xlink:href="#f6_c1" transform="matrix(14,0,0,14,190.1,160.4)" />
<use xlink:href="#f6_c0" transform="matrix(14,0,0,14,198.5,160.4)" />
<use xlink:href="#f6_ct" transform="matrix(14,0,0,14,211,160.4)" />
<use xlink:href="#f6_bg" transform="matrix(14,0,0,14,222.3,160.4)" />
<use xlink:href="#f6_d8" transform="matrix(14,0,0,14,236.6,160.4)" />
<use xlink:href="#f6_c7" transform="matrix(14,0,0,14,242.2,160.4)" />
<use xlink:href="#f6_d4" transform="matrix(14,0,0,14,254.4,160.4)" />
<use xlink:href="#f6_bq" transform="matrix(14,0,0,14,259.9,160.4)" />
<use xlink:href="#f6_d8" transform="matrix(14,0,0,14,273.1,160.4)" />
<use xlink:href="#f6_c1" transform="matrix(14,0,0,14,278.7,160.4)" />
<use xlink:href="#f6_cv" transform="matrix(14,0,0,14,287.1,160.4)" />
<use xlink:href="#f6_c7" transform="matrix(14,0,0,14,298.4,160.4)" />
<use xlink:href="#f6_ct" transform="matrix(14,0,0,14,310.5,160.4)" />
<use xlink:href="#f6_bk" transform="matrix(14,0,0,14,316.1,160.4)" />
<use xlink:href="#f6_k" transform="matrix(14,0,0,14,339,160.4)" />
<use xlink:href="#f6_by" transform="matrix(14,0,0,14,344.2,160.4)" />
<use xlink:href="#f6_d4" transform="matrix(14,0,0,14,358.3,160.4)" />
<use xlink:href="#f6_n1" transform="matrix(14,0,0,14,358.2,160.4)" />
<use xlink:href="#f6_bq" transform="matrix(14,0,0,14,377,160.4)" />
<use xlink:href="#f6_d8" transform="matrix(14,0,0,14,390.2,160.4)" />
<use xlink:href="#f6_c1" transform="matrix(14,0,0,14,395.8,160.4)" />
<use xlink:href="#f6_ct" transform="matrix(14,0,0,14,404.2,160.4)" />
<use xlink:href="#f6_bz" transform="matrix(14,0,0,14,415.5,160.4)" />
<use xlink:href="#f6_dj" transform="matrix(14,0,0,14,422.9,160.8)" />
<use xlink:href="#f6_br" transform="matrix(14,0,0,14,428.8,160.4)" />
<use xlink:href="#f6_nr" transform="matrix(14,0,0,14,440.5,160.4)" />
<use xlink:href="#f6_c1" transform="matrix(14,0,0,14,446.1,160.4)" />
<use xlink:href="#f6_c0" transform="matrix(14,0,0,14,454.5,160.4)" />
<use xlink:href="#f6_d4" transform="matrix(14,0,0,14,467.2,160.4)" />
<use xlink:href="#f6_bz" transform="matrix(14,0,0,14,161.9,194.8)" />
<use xlink:href="#f6_dj" transform="matrix(14,0,0,14,169.3,195.2)" />
<use xlink:href="#f6_br" transform="matrix(14,0,0,14,175.2,194.8)" />
<use xlink:href="#f6_nr" transform="matrix(14,0,0,14,186.9,194.8)" />
<use xlink:href="#f6_c1" transform="matrix(14,0,0,14,192.5,194.8)" />
<use xlink:href="#f6_c0" transform="matrix(14,0,0,14,200.9,194.8)" />
<use xlink:href="#f6_d4" transform="matrix(14,0,0,14,213.6,194.8)" />
<use xlink:href="#f6_br" transform="matrix(14,0,0,14,219.1,194.8)" />
<use xlink:href="#f6_ct" transform="matrix(14,0,0,14,230.8,194.8)" />
<use xlink:href="#f6_br" transform="matrix(14,0,0,14,236.4,194.8)" />
<use xlink:href="#f6_ct" transform="matrix(14,0,0,14,248.1,194.8)" />
<use xlink:href="#f6_bz" transform="matrix(14,0,0,14,259.3,194.8)" />
<use xlink:href="#f6_dj" transform="matrix(14,0,0,14,266.8,195.2)" />
<use xlink:href="#f6_br" transform="matrix(14,0,0,14,272.7,194.8)" />
<use xlink:href="#f6_nr" transform="matrix(14,0,0,14,284.4,194.8)" />
<use xlink:href="#f6_c1" transform="matrix(14,0,0,14,290,194.8)" />
<use xlink:href="#f6_c0" transform="matrix(14,0,0,14,298.4,194.8)" />
<use xlink:href="#f6_d4" transform="matrix(14,0,0,14,311,194.8)" />
<use xlink:href="#f6_pd" transform="matrix(14,0,0,14,316.6,194.8)" />
<use xlink:href="#f6_n8" transform="matrix(14,0,0,14,324.1,194.8)" />
<use xlink:href="#f6_bh" transform="matrix(14,0,0,14,351.5,194.8)" />
<use xlink:href="#f6_cv" transform="matrix(14,0,0,14,368.3,194.8)" />
<use xlink:href="#f6_bo" transform="matrix(14,0,0,14,373.9,194.8)" />
<use xlink:href="#f6_d8" transform="matrix(14,0,0,14,388.3,194.8)" />
<use xlink:href="#f6_bh" transform="matrix(14,0,0,14,399.6,194.8)" />
<use xlink:href="#f6_cv" transform="matrix(14,0,0,14,416.4,194.8)" />
<use xlink:href="#f6_bo" transform="matrix(14,0,0,14,422,194.8)" />
<use xlink:href="#f6_d8" transform="matrix(14,0,0,14,436.3,194.8)" />
<use xlink:href="#f6_pc" transform="matrix(14,0,0,14,442,194.8)" />
<use xlink:href="#f6_pc" transform="matrix(14,0,0,14,446.2,194.8)" />
<use xlink:href="#f6_pc" transform="matrix(14,0,0,14,450.5,194.8)" />
<use xlink:href="#f6_pc" transform="matrix(14,0,0,14,454.8,194.8)" />
<use xlink:href="#f7_4r" transform="matrix(9,0,0,9,290.2,795.2)" />
<use xlink:href="#f8_q" transform="matrix(9,0,0,9,303,795.2)" />
<use xlink:href="#f8_r" transform="matrix(9,0,0,9,310.7,795.2)" />
<use xlink:href="#f7_4r" transform="matrix(9,0,0,9,321.3,795.2)" />
</g>
</g>
<image preserveAspectRatio="none" x="22" y="801" width="581" height="86" xlink:href="img/1.png"/>
<image preserveAspectRatio="none" x="202" y="14" width="217" height="26" xlink:href="img/2.png"/>
<defs>
<path d="M527,-71L52,414l34,92H277c0,0,12,32,12,72V822H0l-45,76l14,31H940l45,-76L972,822H350l66,-55V570c0,0,146,98,247,98c0,0,95,0,167,-73c0,0,71,-72,71,-167c0,0,0,-77,-53,-142c0,0,-54,-64,-159,-136l-89,99c0,0,100,70,152,121c0,0,52,52,52,105c0,0,0,34,-23,60c0,0,-22,26,-72,26c0,0,-139,0,-434,-252L610,34L611,8L527,-71Z"
id="f6_n0"
transform="scale(0.001,-0.001)"/>

<path d="M689,445V822H286l65,-58l8,-319ZM779,-49L689,8V328H370V180L296,150c0,0,-56,35,-120,104c0,0,-63,70,-89,131l41,60H238L223,822H0l-45,76l14,31H953l46,-76L985,822H750l66,-58V-39L779,-49Z"
id="f6_bz"
transform="scale(0.001,-0.001)"/>

<path d="M252,385l310,78l22,-9c0,0,107,-43,200,-43c0,0,91,0,151,41V822H603l66,-58V585H373c0,0,-184,0,-184,-99c0,0,0,-48,63,-101ZM483,-305L295,-10c0,0,-90,22,-156,74l41,170h66L351,63c0,0,126,4,207,62c0,0,82,58,82,139c0,0,0,37,-18,71L365,266c0,0,-110,15,-197,102c0,0,-87,87,-87,176c0,0,0,69,59,117c0,0,59,48,172,48H550V822H0l-45,76l14,31H1199l46,-76l-14,-31H996l66,-58V-39l-37,-10L935,8V318c0,0,-41,-15,-78,-15c0,0,-52,0,-131,30c0,0,32,-55,32,-111c0,0,0,-109,-98,-179c0,0,-98,-69,-254,-69L599,-216L483,-305Z"
id="f6_bh"
transform="scale(0.001,-0.001)"/>

<path d="M-253,-363c0,0,-194,0,-440,288l48,52c0,0,108,-118,192,-176c0,0,83,-58,159,-58c0,0,64,0,101,36c0,0,37,37,37,85c0,0,0,68,-65,91L-327,-152l-83,89c0,0,54,86,153,86c0,0,81,0,140,-61c0,0,58,-62,58,-146c0,0,0,-78,-55,-128c0,0,-55,-51,-139,-51Z"
id="f6_oe"
transform="scale(0.001,-0.001)"/>

<path d="M283,260c0,0,122,0,209,113V513c0,0,-90,51,-160,51c0,0,-80,0,-129,-50c0,0,-49,-50,-49,-118c0,0,0,-60,35,-110c0,0,45,-26,94,-26ZM582,-49L492,8V211c0,0,-63,-54,-141,-54c0,0,-113,0,-213,92c0,0,-100,92,-100,205c0,0,0,93,69,157c0,0,69,64,162,64c0,0,32,0,64,-9L492,590V822H0l-45,76l14,31H1108l45,-76l-13,-31H553l66,-58V524c0,0,91,89,192,89c0,0,98,0,171,-79c0,0,72,-79,72,-186c0,0,0,-178,-224,-330L736,124c0,0,219,153,219,269c0,0,0,44,-26,75c0,0,-26,32,-81,32c0,0,-109,0,-229,-155V-39L582,-49Z"
id="f6_b9"
transform="scale(0.001,-0.001)"/>

<path d="M527,-71L52,414l34,92H277c0,0,12,32,12,72V822H0l-45,76l14,31H599l46,-76L631,822H350l66,-55V564c0,0,0,-96,-152,-248L610,34L611,8L527,-71Z"
id="f6_c1"
transform="scale(0.001,-0.001)"/>

<path d="M347,-57C347,-57,66,211,66,394c0,0,0,98,74,164c0,0,74,65,225,65H616V822H0l-45,76l14,31H880l46,-76L912,822H677l66,-58V-39L706,-49L616,8V500H428c0,0,-239,0,-239,-161c0,0,0,-136,214,-343L347,-57Z"
id="f6_bp"
transform="scale(0.001,-0.001)"/>

<path d="M228,-49L138,8V822H0l-45,76l14,31H402l46,-76L434,822H199l65,-58V-39L228,-49Z"
id="f6_ct"
transform="scale(0.001,-0.001)"/>

<path d="M959,-49L869,8V367c0,0,-32,-13,-64,-13c0,0,-50,0,-110,25c0,0,23,-52,23,-109c0,0,0,-103,-70,-170c0,0,-70,-66,-182,-66c0,0,-110,0,-222,82c0,0,-111,83,-213,293l68,42c0,0,72,-155,152,-231c0,0,81,-76,178,-76c0,0,83,0,131,49c0,0,48,48,48,117c0,0,0,54,-30,100c0,0,-31,47,-91,65L325,391L257,512c0,0,68,53,156,56c0,0,140,72,140,179c0,0,0,69,-52,99c0,0,-4,1,-11,1c-19,0,-66,-4,-123,-30c0,0,-78,-35,-142,-96L150,823c0,0,119,117,253,117c0,0,98,0,175,-71c0,0,77,-70,77,-159c0,0,0,-103,-94,-180c0,0,39,-23,73,-56c0,0,52,-22,109,-22c0,0,77,0,126,38V822H727l-46,76l14,31h840l46,-76l-13,-31H1332l66,-58V-39l-37,-10L1271,8V822H930l66,-58V-39L959,-49Z"
id="f6_am"
transform="scale(0.001,-0.001)"/>

<path d="M325,240c0,0,77,0,154,35c0,0,77,35,120,99V500c0,0,-118,73,-222,73c0,0,-97,0,-151,-54c0,0,-53,-53,-53,-128c0,0,0,-73,49,-125c0,0,38,-26,103,-26ZM689,-49L599,8V199c0,0,-73,-65,-179,-65c0,0,-134,0,-252,96c0,0,-118,95,-118,221c0,0,0,102,78,171c0,0,78,69,190,69c0,0,38,0,75,-10L599,582V822H0l-45,76l14,31H863l46,-76L895,822H660l66,-58V-39L689,-49Z"
id="f6_c7"
transform="scale(0.001,-0.001)"/>

<path d="M228,-49L138,8V822H0l-45,76l14,31H119L-33,1144c0,0,-70,92,-157,92c0,0,-69,0,-159,-58l-72,118c0,0,89,73,181,73c0,0,140,0,257,-170L205,929H402l46,-76L434,822H199l65,-58V-39L228,-49Z"
id="f6_d8"
transform="scale(0.001,-0.001)"/>

<path d="M845,-49L755,8V513H497c0,0,61,-45,93,-110c0,0,33,-64,33,-128c0,0,0,-90,-58,-144c0,0,-59,-53,-143,-53c0,0,-133,0,-234,139C188,217,87,356,20,596l76,24c0,0,60,-201,127,-306c0,0,67,-105,160,-105c0,0,57,0,91,36c0,0,33,36,33,91c0,0,0,84,-73,159L295,558v71H755V822H0l-45,76l14,31H1019l46,-76l-14,-31H816l66,-58V-39L845,-49Z"
id="f6_bg"
transform="scale(0.001,-0.001)"/>

<path d="M228,-49L138,8V822H0l-45,76l14,31H138c0,0,-109,342,-284,342c0,0,-62,0,-102,-40c0,0,-40,-39,-40,-93c0,0,0,-61,51,-134l-42,-32c0,0,-128,113,-128,226c0,0,0,79,60,136c0,0,61,56,154,56c0,0,137,0,249,-125c0,0,112,-125,169,-336H402l46,-76L434,822H199l65,-58V-39L228,-49Z"
id="f6_cv"
transform="scale(0.001,-0.001)"/>

<path d="M823,-49L733,8V339H445V191L371,160c0,0,-56,36,-120,105c0,0,-63,70,-89,131l41,59H313V735c0,0,0,99,-55,140c0,0,-3,1,-8,1c-16,0,-48,-3,-71,-23c0,0,-31,-26,-31,-66c0,0,0,-69,81,-113L189,620C189,620,31,720,31,828c0,0,0,61,45,99c0,0,46,37,109,37c0,0,96,0,173,-86c0,0,76,-87,79,-194V455H733V822H556l-46,76l14,31H998l45,-76l-13,-31H794l66,-58V-39L823,-49Z"
id="f6_by"
transform="scale(0.001,-0.001)"/>

<path d="M-214,863l-199,281c0,0,-70,92,-157,92c0,0,-69,0,-159,-58l-72,118c0,0,89,73,180,73c0,0,141,0,258,-170L-155,901l-59,-38Z"
id="f6_d4"
transform="scale(0.001,-0.001)"/>

<path d="M527,-71L52,414l34,92H277c0,0,12,32,12,72V822H0l-45,76l14,31H940l45,-76L972,822H350l66,-55V553c0,0,24,52,77,83c0,0,52,30,112,30c0,0,87,0,171,-76c0,0,84,-75,222,-304L938,244L828,411c0,0,-95,134,-195,134c0,0,-63,0,-100,-35c0,0,-36,-36,-36,-87c0,0,0,-50,42,-87l152,99L755,315c0,0,-71,-61,-148,-61c0,0,-80,0,-146,66c0,0,-65,67,-65,164c0,0,-34,-70,-132,-168L610,34L611,8L527,-71Z"
id="f6_n1"
transform="scale(0.001,-0.001)"/>

<path d="M283,260c0,0,122,0,209,113V513c0,0,-90,51,-160,51c0,0,-80,0,-129,-50c0,0,-49,-50,-49,-118c0,0,0,-60,35,-110c0,0,45,-26,94,-26ZM582,-49L492,8V211c0,0,-63,-54,-141,-54c0,0,-113,0,-214,92c0,0,-102,92,-102,206c0,0,0,93,69,157c0,0,69,63,163,63c0,0,34,0,66,-9L492,590V822H0l-45,76l14,31H909l46,-76L941,822H553l66,-58V521c0,0,93,104,192,104c0,0,63,0,120,-42c0,0,57,-42,82,-106L964,431l-5,9c0,0,-38,72,-110,72c0,0,-51,0,-105,-41c0,0,-53,-42,-125,-129V-39L582,-49Z"
id="f6_l1"
transform="scale(0.001,-0.001)"/>

<path d="M663,-49L573,8V445H299V280L226,251c0,0,-105,99,-162,238l63,72H573V822H0l-45,76l14,31H837l46,-76L869,822H634l66,-58V-39L663,-49Z"
id="f6_bt"
transform="scale(0.001,-0.001)"/>

<path d="M675,-274L602,21C602,21,550,3,498,3C498,3,347,3,210,118C210,118,73,232,73,373c0,0,0,113,84,184c0,0,84,71,222,72H524V822H0l-45,76l14,31H834l46,-76L866,822H585l66,-58V504l-3,2l3,-3H408c0,0,-95,0,-154,-53c0,0,-58,-53,-58,-132c0,0,0,-49,27,-100c0,0,28,-50,83,-84c0,0,44,-15,96,-15c0,0,91,0,160,46L535,303l101,48L773,188c0,0,-8,-28,-34,-66c0,0,-27,-38,-62,-64L813,-221L675,-274Z"
id="f6_br"
transform="scale(0.001,-0.001)"/>

<path d="M513,460c0,0,61,81,61,179c0,0,0,87,-45,143c0,0,-45,57,-116,57c0,0,-63,0,-102,-43c0,0,-39,-43,-39,-110c0,0,0,-90,68,-151c0,0,68,-61,173,-75ZM581,-83L278,167l-41,-4c0,0,-99,0,-130,37l47,168l51,12l78,-79c0,0,110,40,183,105c0,0,-141,23,-231,107c0,0,-90,84,-90,193c0,0,0,69,37,116H0l-45,76l14,31H1134l45,-76l-13,-31H930l66,-58V-39L959,-49L869,8V822H588c0,0,51,-44,75,-109c0,0,25,-64,25,-122c0,0,0,-105,-81,-213c0,0,-80,-108,-240,-176L658,18l2,-25L581,-83Z"
id="f6_c8"
transform="scale(0.001,-0.001)"/>

<path d="M-239,897c0,0,-82,61,-132,137c0,0,-50,75,-50,150c0,0,0,78,52,133c0,0,52,55,141,55c0,0,98,0,176,-64l-23,-69c0,0,-52,32,-104,32c0,0,-57,0,-95,-36c0,0,-38,-36,-38,-95c0,0,0,-115,117,-217l-44,-26Z"
id="f6_dr"
transform="scale(0.001,-0.001)"/>

<path d="M487,-7c0,0,-88,0,-185,46c0,0,-97,47,-163,130c0,0,-66,83,-66,185c0,0,0,109,80,177c0,0,79,68,234,68H504V822H0l-45,76l14,31H827l45,-76L859,822H565l66,-58V474l-3,1l3,-3H396c0,0,-100,0,-152,-47c0,0,-53,-48,-53,-119c0,0,0,-104,93,-178c0,0,60,-20,118,-20c0,0,81,0,156,36c0,0,76,35,123,99l92,-99C773,144,723,70,645,31C645,31,567,-7,487,-7Z"
id="f6_bk"
transform="scale(0.001,-0.001)"/>

<path d="M348,229c0,0,57,0,106,17L263,559c0,0,-95,-50,-95,-162c0,0,0,-75,52,-136c0,0,49,-32,128,-32Zm170,48c0,0,61,38,96,91V504c0,0,-131,80,-244,80l-35,-2L518,277ZM704,-49L614,8V193c0,0,-84,-65,-192,-65c0,0,-139,0,-255,98c0,0,-115,98,-115,226c0,0,0,106,77,175c0,0,77,70,189,70c0,0,38,0,75,-9L614,578V822H0l-45,76l14,31H878l46,-76L911,822H675l66,-58V-39L704,-49Z"
id="f6_bx"
transform="scale(0.001,-0.001)"/>

<path d="M228,-49L138,8V822H0l-45,76l14,31H133c0,0,-93,95,-93,206c0,0,0,96,68,159c0,0,68,63,179,63c0,0,118,0,228,-81c0,0,110,-80,258,-262L720,970L588,1109c0,0,-133,133,-253,133c0,0,-78,0,-127,-46c0,0,-49,-46,-49,-119c0,0,0,-69,56,-148H402l46,-76L434,822H199l65,-58V-39L228,-49Z"
id="f6_nr"
transform="scale(0.001,-0.001)"/>

<path d="M374,248c0,0,77,0,149,36c0,0,71,37,110,107V822H284c0,0,138,-96,138,-208c0,0,0,-151,-228,-192c0,0,29,-104,89,-158c0,0,41,-16,91,-16ZM723,-49L633,8V200c0,0,-69,-56,-170,-56c0,0,-122,0,-240,94c0,0,-118,94,-179,237l20,55c0,0,133,17,187,44c0,0,55,28,55,84c0,0,0,45,-30,81c0,0,-30,36,-99,83H0l-45,76l14,31H897l46,-76L929,822H694l65,-58V-39L723,-49Z"
id="f6_c0"
transform="scale(0.001,-0.001)"/>

<path d="M768,-49L678,8V202c0,0,-73,-58,-172,-58c0,0,-123,0,-240,94c0,0,-118,94,-179,237l20,55c0,0,134,12,215,70c0,0,81,57,81,141c0,0,0,90,-67,134l-26,3c0,0,-46,0,-74,-29c0,0,-28,-30,-28,-68c0,0,0,-55,82,-109L252,620C252,620,93,720,93,820c0,0,0,65,47,104c0,0,46,40,114,40c0,0,99,0,179,-83c0,0,80,-83,82,-197c0,0,0,-93,-79,-165c0,0,-78,-73,-199,-97c0,0,29,-104,88,-158c0,0,42,-16,92,-16c0,0,78,0,151,38c0,0,74,38,110,111V822H553l-46,76l14,31H943l45,-76L975,822H739l66,-58V-39L768,-49Z"
id="f6_bq"
transform="scale(0.001,-0.001)"/>

<path d="M108,-222l-44,58c0,0,96,81,104,164L89,61c0,0,12,83,93,122c0,0,50,-15,79,-55c0,0,29,-39,29,-90c0,0,0,-69,-48,-142c0,0,-48,-72,-134,-118Z"
id="f6_k"
transform="scale(0.001,-0.001)"/>

<path d="M0,1062c0,0,-26,11,-60,36c0,0,-34,26,-51,49c0,0,39,81,91,110c0,0,60,-23,106,-85c0,0,-28,-70,-86,-110Z"
id="f6_dj"
transform="scale(0.001,-0.001)"/>

<path d="M92,380L46,457l14,30H448l45,-76L480,380Z"
id="f6_pd"
transform="scale(0.001,-0.001)"/>

<path d="M634,-49L249,296c0,0,-1,0,-3,0c-11,0,-48,1,-90,15c0,0,-51,16,-67,36l49,165l50,12l84,-98c0,0,125,31,191,104c0,0,66,73,66,165c0,0,0,109,-95,170c0,0,-2,0,-6,0C397,865,262,858,121,738L46,848c0,0,52,47,127,82c0,0,75,34,152,34c0,0,130,0,226,-94c0,0,95,-94,95,-218c0,0,0,-107,-77,-199c0,0,-77,-92,-216,-134L697,26L698,0L634,-49Z"
id="f6_n8"
transform="scale(0.001,-0.001)"/>

<path d="M342,324c0,0,45,0,75,34c0,0,31,33,31,100V822H165l66,-58V390c0,0,32,-66,111,-66ZM853,-49L762,8V822H509l65,-58V455c0,0,0,-134,-51,-185c0,0,-52,-52,-127,-52c0,0,-98,0,-195,99c0,0,-97,99,-97,209V822H0l-45,76l14,31H1027l46,-76l-14,-31H823l66,-58V-39L853,-49Z"
id="f6_bo"
transform="scale(0.001,-0.001)"/>

<path d="M226,-49c0,0,-66,24,-102,78c0,0,32,69,82,101c0,0,55,-20,100,-80c0,0,-26,-66,-80,-99Z"
id="f6_pc"
transform="scale(0.001,-0.001)"/>

<path d="M725,307c0,0,-95,0,-218,78c0,0,-123,78,-188,78c0,0,-54,0,-95,-34c0,0,-41,-34,-73,-100L93,362c0,0,38,88,101,146c0,0,63,59,148,59c0,0,90,0,214,-78c0,0,124,-79,188,-79c0,0,63,0,106,34c0,0,42,33,85,104l60,-40c0,0,-32,-66,-101,-134c0,0,-70,-67,-169,-67Z"
id="f7_4r"
transform="scale(0.001,-0.001)"/>

<path d="M435,92c0,0,85,0,146,69c0,0,60,68,60,186c0,0,0,114,-60,179c0,0,-60,66,-152,66c0,0,-90,0,-154,-66c0,0,-63,-65,-63,-171c0,0,0,-70,30,-133c0,0,29,-64,82,-97c0,0,52,-33,111,-33Zm2,-110c0,0,-168,0,-273,123C164,105,58,228,58,512c0,0,0,317,117,461c0,0,102,125,275,125c0,0,129,0,211,-72c0,0,82,-72,99,-200L626,815c0,0,-18,79,-51,115c0,0,-54,58,-134,58c0,0,-64,0,-112,-36c0,0,-63,-46,-99,-135c0,0,-37,-89,-38,-253c0,0,48,74,118,110c0,0,70,36,147,36c0,0,134,0,228,-99c0,0,94,-99,94,-256c0,0,0,-103,-44,-191C735,164,691,75,613,28c0,0,-77,-46,-176,-46Z"
id="f8_q"
transform="scale(0.001,-0.001)"/>

<path d="M225,0c0,0,2,129,51,312c0,0,48,183,139,352c0,0,91,170,193,286H72v129H780V975C780,975,676,864,573,680C573,680,470,495,414,301C414,301,374,163,363,0Z"
id="f8_r"
transform="scale(0.001,-0.001)"/>


</defs>
</svg>