<?xml version="1.0" encoding="UTF-8" standalone="no"?>
<!DOCTYPE svg PUBLIC "-//W3C//DTD SVG 1.1//EN"
"http://www.w3.org/Graphics/SVG/1.1/DTD/svg11.dtd">
<svg viewBox="0 0 641 910" version="1.1" xmlns="http://www.w3.org/2000/svg" xmlns:xlink="http://www.w3.org/1999/xlink">
<defs>
<clipPath id="c0_90"><path d="M0,909.8V0H641.7V909.8Z"/></clipPath>
<clipPath id="c1_90"><path d="M0,908.6V0H641.7V908.6Z"/></clipPath>
<style type="text/css"><![CDATA[
.g0_90{
fill: #FFFFFF;
}
.g1_90{
}
]]></style>
</defs>
<path d="M0,0H641.7V909.8H0V0Z" class="g0_90"/>
<path d="M0,0H641.7V909.8H0V0Z" class="g0_90"/>
<g clip-path="url(#c0_90)">
<path d="M0,-75512.6H641.7V30932.9H0V-75512.6Z" class="g0_90"/>
</g>
<path d="M0,0H641.7V908.6H0V0Z" class="g0_90"/>
<path d="M19.5,60.7H602.7v1.2H19.5V60.7Z" class="g1_90"/>
<g clip-path="url(#c1_90)">
<path d="M0,61.9H641.7V909.8H0V61.9Z" class="g0_90"/>
<g fill="#000000" >
<use xlink:href="#f5_by" transform="matrix(14,0,0,14,231.8,96.3)" />
<use xlink:href="#f5_d5" transform="matrix(14,0,0,14,246.7,96.3)" />
<use xlink:href="#f5_n1" transform="matrix(14,0,0,14,246.7,96.3)" />
<use xlink:href="#f5_bg" transform="matrix(14,0,0,14,263.8,96.3)" />
<use xlink:href="#f5_cv" transform="matrix(14,0,0,14,279.7,96.3)" />
<use xlink:href="#f5_b9" transform="matrix(14,0,0,14,291.8,96.3)" />
<use xlink:href="#f5_bl" transform="matrix(14,0,0,14,309.3,96.3)" />
<use xlink:href="#f5_d4" transform="matrix(14,0,0,14,321,96.3)" />
<use xlink:href="#f5_c1" transform="matrix(14,0,0,14,328.6,96.3)" />
<use xlink:href="#f5_d4" transform="matrix(14,0,0,14,338.5,96.3)" />
<use xlink:href="#f5_cb" transform="matrix(14,0,0,14,344.5,96.3)" />
<use xlink:href="#f5_d8" transform="matrix(14,0,0,14,361.2,96.3)" />
<use xlink:href="#f5_c0" transform="matrix(14,0,0,14,367.6,96.3)" />
<use xlink:href="#f5_ct" transform="matrix(14,0,0,14,381.7,96.3)" />
<use xlink:href="#f6_by" transform="matrix(14,0,0,14,168.7,129.5)" />
<use xlink:href="#f6_d5" transform="matrix(14,0,0,14,182.8,129.5)" />
<use xlink:href="#f6_n0" transform="matrix(14,0,0,14,182.7,129.5)" />
<use xlink:href="#f6_bg" transform="matrix(14,0,0,14,195.8,129.5)" />
<use xlink:href="#f6_cv" transform="matrix(14,0,0,14,210.1,129.5)" />
<use xlink:href="#f6_b9" transform="matrix(14,0,0,14,221.4,129.5)" />
<use xlink:href="#f6_bl" transform="matrix(14,0,0,14,236.9,129.5)" />
<use xlink:href="#f6_d4" transform="matrix(14,0,0,14,247.9,129.5)" />
<use xlink:href="#f6_c1" transform="matrix(14,0,0,14,254.9,129.5)" />
<use xlink:href="#f6_d4" transform="matrix(14,0,0,14,262.9,129.5)" />
<use xlink:href="#f6_cb" transform="matrix(14,0,0,14,269,129.5)" />
<use xlink:href="#f6_d8" transform="matrix(14,0,0,14,283.8,129.5)" />
<use xlink:href="#f6_c0" transform="matrix(14,0,0,14,289.5,129.5)" />
<use xlink:href="#f6_ct" transform="matrix(14,0,0,14,302,129.5)" />
<use xlink:href="#f6_c1" transform="matrix(14,0,0,14,313.3,129.5)" />
<use xlink:href="#f6_d4" transform="matrix(14,0,0,14,321.3,129.5)" />
<use xlink:href="#f6_cb" transform="matrix(14,0,0,14,327.3,129.5)" />
<use xlink:href="#f6_cw" transform="matrix(14,0,0,14,342.8,129.4)" />
<use xlink:href="#f6_ba" transform="matrix(14,0,0,14,342.2,129.5)" />
<use xlink:href="#f6_by" transform="matrix(14,0,0,14,364.6,129.5)" />
<use xlink:href="#f6_c1" transform="matrix(14,0,0,14,378.6,129.5)" />
<use xlink:href="#f6_cv" transform="matrix(14,0,0,14,386.9,129.5)" />
<use xlink:href="#f6_bt" transform="matrix(14,0,0,14,398.2,129.5)" />
<use xlink:href="#f6_cv" transform="matrix(14,0,0,14,409.9,129.5)" />
<use xlink:href="#f6_dj" transform="matrix(14,0,0,14,414.6,130.4)" />
<use xlink:href="#f6_br" transform="matrix(14,0,0,14,415.6,129.5)" />
<use xlink:href="#f6_bz" transform="matrix(14,0,0,14,432.9,129.5)" />
<use xlink:href="#f6_oz" transform="matrix(14,0,0,14,446.4,129.5)" />
<use xlink:href="#f6_k" transform="matrix(14,0,0,14,446.2,129.5)" />
<use xlink:href="#f6_by" transform="matrix(14,0,0,14,112.5,162.7)" />
<use xlink:href="#f6_d5" transform="matrix(14,0,0,14,126.6,162.7)" />
<use xlink:href="#f6_n0" transform="matrix(14,0,0,14,126.5,162.7)" />
<use xlink:href="#f6_bg" transform="matrix(14,0,0,14,139.6,162.7)" />
<use xlink:href="#f6_cv" transform="matrix(14,0,0,14,153.9,162.7)" />
<use xlink:href="#f6_b9" transform="matrix(14,0,0,14,165.2,162.7)" />
<use xlink:href="#f6_bl" transform="matrix(14,0,0,14,180.7,162.7)" />
<use xlink:href="#f6_d4" transform="matrix(14,0,0,14,191.7,162.7)" />
<use xlink:href="#f6_c1" transform="matrix(14,0,0,14,198.7,162.7)" />
<use xlink:href="#f6_d4" transform="matrix(14,0,0,14,206.7,162.7)" />
<use xlink:href="#f6_c3" transform="matrix(14,0,0,14,212.7,162.7)" />
<use xlink:href="#f6_bb" transform="matrix(14,0,0,14,227.5,162.7)" />
<use xlink:href="#f6_ct" transform="matrix(14,0,0,14,240.1,162.7)" />
<use xlink:href="#f6_ao" transform="matrix(14,0,0,14,245.7,162.7)" />
<use xlink:href="#f6_an" transform="matrix(14,0,0,14,262.9,162.7)" />
<use xlink:href="#f6_bp" transform="matrix(14,0,0,14,274.4,162.7)" />
<use xlink:href="#f6_bt" transform="matrix(14,0,0,14,286.7,162.7)" />
<use xlink:href="#f6_cv" transform="matrix(14,0,0,14,298.4,162.7)" />
<use xlink:href="#f6_br" transform="matrix(14,0,0,14,309.7,162.7)" />
<use xlink:href="#f6_d4" transform="matrix(14,0,0,14,320.9,162.7)" />
<use xlink:href="#f6_c1" transform="matrix(14,0,0,14,321.3,162.7)" />
<use xlink:href="#f6_by" transform="matrix(14,0,0,14,335.4,162.7)" />
<use xlink:href="#f6_bb" transform="matrix(14,0,0,14,349.3,162.7)" />
<use xlink:href="#f6_cu" transform="matrix(14,0,0,14,362,162.7)" />
<use xlink:href="#f6_bp" transform="matrix(14,0,0,14,367.6,162.7)" />
<use xlink:href="#f6_bz" transform="matrix(14,0,0,14,385.6,162.7)" />
<use xlink:href="#f6_oz" transform="matrix(14,0,0,14,399,162.7)" />
<use xlink:href="#f6_c7" transform="matrix(14,0,0,14,404.6,162.7)" />
<use xlink:href="#f6_d4" transform="matrix(14,0,0,14,416.8,162.7)" />
<use xlink:href="#f6_bb" transform="matrix(14,0,0,14,416.6,162.7)" />
<use xlink:href="#f6_ct" transform="matrix(14,0,0,14,429.3,162.7)" />
<use xlink:href="#f6_am" transform="matrix(14,0,0,14,440.5,162.7)" />
<use xlink:href="#f6_c7" transform="matrix(14,0,0,14,462,162.7)" />
<use xlink:href="#f6_bg" transform="matrix(14,0,0,14,474.1,162.7)" />
<use xlink:href="#f6_d8" transform="matrix(14,0,0,14,488.4,162.7)" />
<use xlink:href="#f6_8l" transform="matrix(14,0,0,14,494,162.7)" />
<use xlink:href="#f6_by" transform="matrix(14,0,0,14,172.2,221.1)" />
<use xlink:href="#f6_d5" transform="matrix(14,0,0,14,186.3,221.1)" />
<use xlink:href="#f6_n0" transform="matrix(14,0,0,14,186.1,221.1)" />
<use xlink:href="#f6_bg" transform="matrix(14,0,0,14,199.3,221.1)" />
<use xlink:href="#f6_cv" transform="matrix(14,0,0,14,213.5,221.1)" />
<use xlink:href="#f6_bt" transform="matrix(14,0,0,14,224.8,221.1)" />
<use xlink:href="#f6_ct" transform="matrix(14,0,0,14,236.5,221.1)" />
<use xlink:href="#f6_b9" transform="matrix(14,0,0,14,242.2,221.1)" />
<use xlink:href="#f6_d8" transform="matrix(14,0,0,14,257.7,221.1)" />
<use xlink:href="#f6_ch" transform="matrix(14,0,0,14,263.3,221.1)" />
<use xlink:href="#f6_ct" transform="matrix(14,0,0,14,276,221.1)" />
<use xlink:href="#f6_bt" transform="matrix(14,0,0,14,287.3,221.1)" />
<use xlink:href="#f6_bb" transform="matrix(14,0,0,14,299,221.1)" />
<use xlink:href="#f6_c1" transform="matrix(14,0,0,14,311.6,221.1)" />
<use xlink:href="#f6_cv" transform="matrix(14,0,0,14,320,221.1)" />
<use xlink:href="#f6_bz" transform="matrix(14,0,0,14,331.2,221.1)" />
<use xlink:href="#f6_oz" transform="matrix(14,0,0,14,344.7,221.1)" />
<use xlink:href="#f6_c7" transform="matrix(14,0,0,14,350.2,221.1)" />
<use xlink:href="#f6_bo" transform="matrix(14,0,0,14,362.3,221.1)" />
<use xlink:href="#f6_c0" transform="matrix(14,0,0,14,376.7,221.1)" />
<use xlink:href="#f6_d8" transform="matrix(14,0,0,14,389.2,221.1)" />
<use xlink:href="#f6_br" transform="matrix(14,0,0,14,400.5,221.1)" />
<use xlink:href="#f6_d4" transform="matrix(14,0,0,14,411.8,221.1)" />
<use xlink:href="#f6_c7" transform="matrix(14,0,0,14,412.2,221.1)" />
<use xlink:href="#f6_c3" transform="matrix(14,0,0,14,424.3,221.1)" />
<use xlink:href="#f6_d8" transform="matrix(14,0,0,14,439,221.1)" />
<use xlink:href="#f6_k" transform="matrix(14,0,0,14,444.6,221.1)" />
<use xlink:href="#f6_by" transform="matrix(14,0,0,14,192.8,254.4)" />
<use xlink:href="#f6_d5" transform="matrix(14,0,0,14,206.9,254.4)" />
<use xlink:href="#f6_n0" transform="matrix(14,0,0,14,206.8,254.4)" />
<use xlink:href="#f6_bg" transform="matrix(14,0,0,14,219.9,254.4)" />
<use xlink:href="#f6_cv" transform="matrix(14,0,0,14,234.2,254.4)" />
<use xlink:href="#f6_fa" transform="matrix(14,0,0,14,245.5,254.4)" />
<use xlink:href="#f6_bg" transform="matrix(14,0,0,14,267,254.4)" />
<use xlink:href="#f6_ct" transform="matrix(14,0,0,14,281.2,254.4)" />
<use xlink:href="#f6_c1" transform="matrix(14,0,0,14,292.5,254.4)" />
<use xlink:href="#f6_d4" transform="matrix(14,0,0,14,300.5,254.4)" />
<use xlink:href="#f6_bw" transform="matrix(14,0,0,14,306.6,254.4)" />
<use xlink:href="#f6_n0" transform="matrix(14,0,0,14,322.7,254.4)" />
<use xlink:href="#f6_b9" transform="matrix(14,0,0,14,335.8,254.4)" />
<use xlink:href="#f6_d4" transform="matrix(14,0,0,14,347,254.4)" />
<use xlink:href="#f6_am" transform="matrix(14,0,0,14,357,254.4)" />
<use xlink:href="#f6_cb" transform="matrix(14,0,0,14,378.5,254.4)" />
<use xlink:href="#f6_bz" transform="matrix(14,0,0,14,393.3,254.4)" />
<use xlink:href="#f6_ct" transform="matrix(14,0,0,14,406.7,254.4)" />
<use xlink:href="#f6_bt" transform="matrix(14,0,0,14,412.3,254.4)" />
<use xlink:href="#f6_k" transform="matrix(14,0,0,14,424,254.4)" />
<use xlink:href="#f6_by" transform="matrix(14,0,0,14,220.3,287.6)" />
<use xlink:href="#f6_o0" transform="matrix(14,0,0,14,234.3,287.6)" />
<use xlink:href="#f6_l1" transform="matrix(14,0,0,14,239.9,287.6)" />
<use xlink:href="#f6_bp" transform="matrix(14,0,0,14,251.7,287.6)" />
<use xlink:href="#f6_bz" transform="matrix(14,0,0,14,269.7,287.6)" />
<use xlink:href="#f6_oz" transform="matrix(14,0,0,14,283.2,287.6)" />
<use xlink:href="#f6_c7" transform="matrix(14,0,0,14,288.7,287.6)" />
<use xlink:href="#f6_d4" transform="matrix(14,0,0,14,300.9,287.6)" />
<use xlink:href="#f6_bb" transform="matrix(14,0,0,14,300.8,287.6)" />
<use xlink:href="#f6_ct" transform="matrix(14,0,0,14,313.4,287.6)" />
<use xlink:href="#f6_am" transform="matrix(14,0,0,14,324.7,287.6)" />
<use xlink:href="#f6_c7" transform="matrix(14,0,0,14,346.2,287.6)" />
<use xlink:href="#f6_bg" transform="matrix(14,0,0,14,358.3,287.6)" />
<use xlink:href="#f6_d8" transform="matrix(14,0,0,14,372.5,287.6)" />
<use xlink:href="#f6_pc" transform="matrix(14,0,0,14,378.2,287.6)" />
<use xlink:href="#f6_pc" transform="matrix(14,0,0,14,382.4,287.6)" />
<use xlink:href="#f6_pc" transform="matrix(14,0,0,14,386.7,287.6)" />
<use xlink:href="#f6_p" transform="matrix(14,0,0,14,391,287.6)" />
<use xlink:href="#f6_by" transform="matrix(14,0,0,14,188.2,354.1)" />
<use xlink:href="#f6_d5" transform="matrix(14,0,0,14,202.3,354.1)" />
<use xlink:href="#f6_n0" transform="matrix(14,0,0,14,202.2,354.1)" />
<use xlink:href="#f6_bg" transform="matrix(14,0,0,14,215.3,354.1)" />
<use xlink:href="#f6_cv" transform="matrix(14,0,0,14,229.6,354.1)" />
<use xlink:href="#f6_bz" transform="matrix(14,0,0,14,240.9,354.1)" />
<use xlink:href="#f6_d4" transform="matrix(14,0,0,14,254.3,354.1)" />
<use xlink:href="#f6_c7" transform="matrix(14,0,0,14,254.2,354.1)" />
<use xlink:href="#f6_ct" transform="matrix(14,0,0,14,266.3,354.1)" />
<use xlink:href="#f6_bt" transform="matrix(14,0,0,14,277.6,354.1)" />
<use xlink:href="#f6_d4" transform="matrix(14,0,0,14,289.4,354.1)" />
<use xlink:href="#f6_nt" transform="matrix(14,0,0,14,295,354.1)" />
<use xlink:href="#f6_bz" transform="matrix(14,0,0,14,300.6,354.1)" />
<use xlink:href="#f6_bl" transform="matrix(14,0,0,14,313.9,354.1)" />
<use xlink:href="#f6_ct" transform="matrix(14,0,0,14,326.3,354.1)" />
<use xlink:href="#f6_ao" transform="matrix(14,0,0,14,331.9,354.1)" />
<use xlink:href="#f6_be" transform="matrix(14,0,0,14,349.1,354.1)" />
<use xlink:href="#f6_ct" transform="matrix(14,0,0,14,363,354.1)" />
<use xlink:href="#f6_bn" transform="matrix(14,0,0,14,368.7,354.1)" />
<use xlink:href="#f6_cx" transform="matrix(14,0,0,14,380.1,354.5)" />
<use xlink:href="#f6_cb" transform="matrix(14,0,0,14,386.3,354.1)" />
<use xlink:href="#f6_cw" transform="matrix(14,0,0,14,401.7,354)" />
<use xlink:href="#f6_c1" transform="matrix(14,0,0,14,401.1,354.1)" />
<use xlink:href="#f6_bz" transform="matrix(14,0,0,14,409.5,354.1)" />
<use xlink:href="#f6_d8" transform="matrix(14,0,0,14,422.9,354.1)" />
<use xlink:href="#f6_k" transform="matrix(14,0,0,14,428.5,354.1)" />
<use xlink:href="#f6_by" transform="matrix(14,0,0,14,175.6,387.3)" />
<use xlink:href="#f6_d5" transform="matrix(14,0,0,14,189.7,387.3)" />
<use xlink:href="#f6_n0" transform="matrix(14,0,0,14,189.6,387.3)" />
<use xlink:href="#f6_bg" transform="matrix(14,0,0,14,202.7,387.3)" />
<use xlink:href="#f6_cv" transform="matrix(14,0,0,14,217,387.3)" />
<use xlink:href="#f6_be" transform="matrix(14,0,0,14,228.3,387.3)" />
<use xlink:href="#f6_ct" transform="matrix(14,0,0,14,242.2,387.3)" />
<use xlink:href="#f6_bn" transform="matrix(14,0,0,14,247.9,387.3)" />
<use xlink:href="#f6_cx" transform="matrix(14,0,0,14,259.3,387.7)" />
<use xlink:href="#f6_pd" transform="matrix(14,0,0,14,259.8,387.3)" />
<use xlink:href="#f6_be" transform="matrix(14,0,0,14,267.3,387.3)" />
<use xlink:href="#f6_ct" transform="matrix(14,0,0,14,281.3,387.3)" />
<use xlink:href="#f6_bn" transform="matrix(14,0,0,14,286.9,387.3)" />
<use xlink:href="#f6_cx" transform="matrix(14,0,0,14,298.4,387.7)" />
<use xlink:href="#f6_ef" transform="matrix(14,0,0,14,304.5,387.3)" />
<use xlink:href="#f6_cv" transform="matrix(14,0,0,14,318.7,387.3)" />
<use xlink:href="#f6_bw" transform="matrix(14,0,0,14,324.4,387.3)" />
<use xlink:href="#f6_c3" transform="matrix(14,0,0,14,340.5,387.3)" />
<use xlink:href="#f6_b9" transform="matrix(14,0,0,14,360.8,387.3)" />
<use xlink:href="#f6_d4" transform="matrix(14,0,0,14,372,387.3)" />
<use xlink:href="#f6_cb" transform="matrix(14,0,0,14,376.3,387.3)" />
<use xlink:href="#f6_c1" transform="matrix(14,0,0,14,391.2,387.3)" />
<use xlink:href="#f6_am" transform="matrix(14,0,0,14,405.2,387.3)" />
<use xlink:href="#f6_bg" transform="matrix(14,0,0,14,426.7,387.3)" />
<use xlink:href="#f6_k" transform="matrix(14,0,0,14,441,387.3)" />
<use xlink:href="#f6_by" transform="matrix(14,0,0,14,219.2,420.5)" />
<use xlink:href="#f6_o0" transform="matrix(14,0,0,14,233.1,420.5)" />
<use xlink:href="#f6_l1" transform="matrix(14,0,0,14,238.7,420.5)" />
<use xlink:href="#f6_bp" transform="matrix(14,0,0,14,250.6,420.5)" />
<use xlink:href="#f6_bz" transform="matrix(14,0,0,14,268.6,420.5)" />
<use xlink:href="#f6_oz" transform="matrix(14,0,0,14,282.1,420.5)" />
<use xlink:href="#f6_c7" transform="matrix(14,0,0,14,287.6,420.5)" />
<use xlink:href="#f6_d4" transform="matrix(14,0,0,14,299.8,420.5)" />
<use xlink:href="#f6_bb" transform="matrix(14,0,0,14,299.7,420.5)" />
<use xlink:href="#f6_ct" transform="matrix(14,0,0,14,312.3,420.5)" />
<use xlink:href="#f6_am" transform="matrix(14,0,0,14,323.6,420.5)" />
<use xlink:href="#f6_c7" transform="matrix(14,0,0,14,345,420.5)" />
<use xlink:href="#f6_bg" transform="matrix(14,0,0,14,357.1,420.5)" />
<use xlink:href="#f6_d8" transform="matrix(14,0,0,14,371.4,420.5)" />
<use xlink:href="#f6_pc" transform="matrix(14,0,0,14,377,420.5)" />
<use xlink:href="#f6_pc" transform="matrix(14,0,0,14,381.3,420.5)" />
<use xlink:href="#f6_pc" transform="matrix(14,0,0,14,385.6,420.5)" />
<use xlink:href="#f6_q" transform="matrix(14,0,0,14,389.8,420.5)" />
<use xlink:href="#f6_by" transform="matrix(14,0,0,14,182.5,487)" />
<use xlink:href="#f6_d5" transform="matrix(14,0,0,14,196.6,487)" />
<use xlink:href="#f6_n0" transform="matrix(14,0,0,14,196.5,487)" />
<use xlink:href="#f6_bg" transform="matrix(14,0,0,14,209.6,487)" />
<use xlink:href="#f6_cv" transform="matrix(14,0,0,14,223.9,487)" />
<use xlink:href="#f6_bn" transform="matrix(14,0,0,14,235.1,487)" />
<use xlink:href="#f6_d8" transform="matrix(14,0,0,14,247.1,487)" />
<use xlink:href="#f6_c3" transform="matrix(14,0,0,14,252.7,487)" />
<use xlink:href="#f6_d8" transform="matrix(14,0,0,14,267.4,487)" />
<use xlink:href="#f6_c1" transform="matrix(14,0,0,14,278.7,487)" />
<use xlink:href="#f6_d4" transform="matrix(14,0,0,14,286.7,487)" />
<use xlink:href="#f6_bs" transform="matrix(14,0,0,14,292.7,487)" />
<use xlink:href="#f6_bz" transform="matrix(14,0,0,14,306.7,487)" />
<use xlink:href="#f6_cv" transform="matrix(14,0,0,14,320.1,487)" />
<use xlink:href="#f6_bm" transform="matrix(14,0,0,14,325.7,487)" />
<use xlink:href="#f6_d4" transform="matrix(14,0,0,14,338.3,487)" />
<use xlink:href="#f6_c7" transform="matrix(14,0,0,14,344,487)" />
<use xlink:href="#f6_d4" transform="matrix(14,0,0,14,356.2,487)" />
<use xlink:href="#f6_bb" transform="matrix(14,0,0,14,356.1,487)" />
<use xlink:href="#f6_ct" transform="matrix(14,0,0,14,368.7,487)" />
<use xlink:href="#f6_am" transform="matrix(14,0,0,14,380,487)" />
<use xlink:href="#f6_c7" transform="matrix(14,0,0,14,401.5,487)" />
<use xlink:href="#f6_bg" transform="matrix(14,0,0,14,413.6,487)" />
<use xlink:href="#f6_d8" transform="matrix(14,0,0,14,427.8,487)" />
<use xlink:href="#f6_k" transform="matrix(14,0,0,14,433.5,487)" />
<use xlink:href="#f6_by" transform="matrix(14,0,0,14,166.4,520.2)" />
<use xlink:href="#f6_d5" transform="matrix(14,0,0,14,180.5,520.2)" />
<use xlink:href="#f6_n0" transform="matrix(14,0,0,14,180.4,520.2)" />
<use xlink:href="#f6_bg" transform="matrix(14,0,0,14,193.6,520.2)" />
<use xlink:href="#f6_cv" transform="matrix(14,0,0,14,207.8,520.2)" />
<use xlink:href="#f6_am" transform="matrix(14,0,0,14,219.1,520.2)" />
<use xlink:href="#f6_ao" transform="matrix(14,0,0,14,240.6,520.2)" />
<use xlink:href="#f6_bg" transform="matrix(14,0,0,14,252.1,520.2)" />
<use xlink:href="#f6_d8" transform="matrix(14,0,0,14,266.3,520.2)" />
<use xlink:href="#f6_pd" transform="matrix(14,0,0,14,272,520.2)" />
<use xlink:href="#f6_am" transform="matrix(14,0,0,14,279.5,520.2)" />
<use xlink:href="#f6_ao" transform="matrix(14,0,0,14,301,520.2)" />
<use xlink:href="#f6_bg" transform="matrix(14,0,0,14,312.5,520.2)" />
<use xlink:href="#f6_d8" transform="matrix(14,0,0,14,326.8,520.2)" />
<use xlink:href="#f6_by" transform="matrix(14,0,0,14,338,520.2)" />
<use xlink:href="#f6_bb" transform="matrix(14,0,0,14,352,520.2)" />
<use xlink:href="#f6_bp" transform="matrix(14,0,0,14,364.6,520.2)" />
<use xlink:href="#f6_bg" transform="matrix(14,0,0,14,382.6,520.2)" />
<use xlink:href="#f6_d8" transform="matrix(14,0,0,14,396.9,520.2)" />
<use xlink:href="#f6_c7" transform="matrix(14,0,0,14,402.5,520.2)" />
<use xlink:href="#f6_d4" transform="matrix(14,0,0,14,414.7,520.2)" />
<use xlink:href="#f6_c7" transform="matrix(14,0,0,14,420.2,520.2)" />
<use xlink:href="#f6_ct" transform="matrix(14,0,0,14,432.3,520.2)" />
<use xlink:href="#f6_bk" transform="matrix(14,0,0,14,437.9,520.2)" />
<use xlink:href="#f6_k" transform="matrix(14,0,0,14,449.5,520.2)" />
<use xlink:href="#f6_by" transform="matrix(14,0,0,14,219.2,553.4)" />
<use xlink:href="#f6_o0" transform="matrix(14,0,0,14,233.1,553.4)" />
<use xlink:href="#f6_l1" transform="matrix(14,0,0,14,238.7,553.4)" />
<use xlink:href="#f6_bp" transform="matrix(14,0,0,14,250.6,553.4)" />
<use xlink:href="#f6_bz" transform="matrix(14,0,0,14,268.6,553.4)" />
<use xlink:href="#f6_oz" transform="matrix(14,0,0,14,282.1,553.4)" />
<use xlink:href="#f6_c7" transform="matrix(14,0,0,14,287.6,553.4)" />
<use xlink:href="#f6_d4" transform="matrix(14,0,0,14,299.8,553.4)" />
<use xlink:href="#f6_bb" transform="matrix(14,0,0,14,299.7,553.4)" />
<use xlink:href="#f6_ct" transform="matrix(14,0,0,14,312.3,553.4)" />
<use xlink:href="#f6_am" transform="matrix(14,0,0,14,323.6,553.4)" />
<use xlink:href="#f6_c7" transform="matrix(14,0,0,14,345,553.4)" />
<use xlink:href="#f6_bg" transform="matrix(14,0,0,14,357.1,553.4)" />
<use xlink:href="#f6_d8" transform="matrix(14,0,0,14,371.4,553.4)" />
<use xlink:href="#f6_pc" transform="matrix(14,0,0,14,377,553.4)" />
<use xlink:href="#f6_pc" transform="matrix(14,0,0,14,381.3,553.4)" />
<use xlink:href="#f6_pc" transform="matrix(14,0,0,14,385.6,553.4)" />
<use xlink:href="#f6_r" transform="matrix(14,0,0,14,389.8,553.4)" />
<use xlink:href="#f6_by" transform="matrix(14,0,0,14,174.5,619.9)" />
<use xlink:href="#f6_d5" transform="matrix(14,0,0,14,188.6,619.9)" />
<use xlink:href="#f6_n0" transform="matrix(14,0,0,14,188.4,619.9)" />
<use xlink:href="#f6_bg" transform="matrix(14,0,0,14,201.6,619.9)" />
<use xlink:href="#f6_cv" transform="matrix(14,0,0,14,215.8,619.9)" />
<use xlink:href="#f6_be" transform="matrix(14,0,0,14,227.1,619.9)" />
<use xlink:href="#f6_d9" transform="matrix(14,0,0,14,241.1,619.9)" />
<use xlink:href="#f6_cb" transform="matrix(14,0,0,14,246.7,619.9)" />
<use xlink:href="#f6_bl" transform="matrix(14,0,0,14,261.6,619.9)" />
<use xlink:href="#f6_bg" transform="matrix(14,0,0,14,279.6,619.9)" />
<use xlink:href="#f6_d8" transform="matrix(14,0,0,14,293.9,619.9)" />
<use xlink:href="#f6_bb" transform="matrix(14,0,0,14,299.5,619.9)" />
<use xlink:href="#f6_nu" transform="matrix(14,0,0,14,312.1,619.9)" />
<use xlink:href="#f6_bo" transform="matrix(14,0,0,14,317.7,619.9)" />
<use xlink:href="#f6_c0" transform="matrix(14,0,0,14,332.1,619.9)" />
<use xlink:href="#f6_ct" transform="matrix(14,0,0,14,344.7,619.9)" />
<use xlink:href="#f6_cb" transform="matrix(14,0,0,14,355.9,619.9)" />
<use xlink:href="#f6_dj" transform="matrix(14,0,0,14,364.5,620.3)" />
<use xlink:href="#f6_bb" transform="matrix(14,0,0,14,370.8,619.9)" />
<use xlink:href="#f6_c8" transform="matrix(14,0,0,14,389.1,619.9)" />
<use xlink:href="#f6_d8" transform="matrix(14,0,0,14,405,619.9)" />
<use xlink:href="#f6_by" transform="matrix(14,0,0,14,410.6,619.9)" />
<use xlink:href="#f6_bp" transform="matrix(14,0,0,14,424.5,619.9)" />
<use xlink:href="#f6_ct" transform="matrix(14,0,0,14,436.9,619.9)" />
<use xlink:href="#f6_k" transform="matrix(14,0,0,14,442.5,619.9)" />
<use xlink:href="#f6_by" transform="matrix(14,0,0,14,86.2,653.1)" />
<use xlink:href="#f6_d5" transform="matrix(14,0,0,14,100.3,653.1)" />
<use xlink:href="#f6_n0" transform="matrix(14,0,0,14,100.2,653.1)" />
<use xlink:href="#f6_bg" transform="matrix(14,0,0,14,113.3,653.1)" />
<use xlink:href="#f6_cv" transform="matrix(14,0,0,14,127.6,653.1)" />
<use xlink:href="#f6_c1" transform="matrix(14,0,0,14,138.9,653.1)" />
<use xlink:href="#f6_ct" transform="matrix(14,0,0,14,147.3,653.1)" />
<use xlink:href="#f6_ba" transform="matrix(14,0,0,14,152.9,653.1)" />
<use xlink:href="#f6_d8" transform="matrix(14,0,0,14,169.6,653.1)" />
<use xlink:href="#f6_pd" transform="matrix(14,0,0,14,175.2,653.1)" />
<use xlink:href="#f6_c1" transform="matrix(14,0,0,14,182.8,653.1)" />
<use xlink:href="#f6_ct" transform="matrix(14,0,0,14,191.2,653.1)" />
<use xlink:href="#f6_ba" transform="matrix(14,0,0,14,196.8,653.1)" />
<use xlink:href="#f6_d8" transform="matrix(14,0,0,14,213.5,653.1)" />
<use xlink:href="#f6_by" transform="matrix(14,0,0,14,224.8,653.1)" />
<use xlink:href="#f6_l1" transform="matrix(14,0,0,14,238.7,653.1)" />
<use xlink:href="#f6_bp" transform="matrix(14,0,0,14,250.6,653.1)" />
<use xlink:href="#f6_d8" transform="matrix(14,0,0,14,262.9,653.1)" />
<use xlink:href="#f6_bq" transform="matrix(14,0,0,14,274.2,653.1)" />
<use xlink:href="#f6_cv" transform="matrix(14,0,0,14,287.4,653.1)" />
<use xlink:href="#f6_c1" transform="matrix(14,0,0,14,298.7,653.1)" />
<use xlink:href="#f6_d4" transform="matrix(14,0,0,14,306.7,653.1)" />
<use xlink:href="#f6_c3" transform="matrix(14,0,0,14,312.7,653.1)" />
<use xlink:href="#f6_ct" transform="matrix(14,0,0,14,327.4,653.1)" />
<use xlink:href="#f6_bg" transform="matrix(14,0,0,14,333.1,653.1)" />
<use xlink:href="#f6_k" transform="matrix(14,0,0,14,347.3,653.1)" />
<use xlink:href="#f6_by" transform="matrix(14,0,0,14,352.5,653.1)" />
<use xlink:href="#f6_o0" transform="matrix(14,0,0,14,366.5,653.1)" />
<use xlink:href="#f6_l1" transform="matrix(14,0,0,14,372.1,653.1)" />
<use xlink:href="#f6_bp" transform="matrix(14,0,0,14,384,653.1)" />
<use xlink:href="#f6_bz" transform="matrix(14,0,0,14,402,653.1)" />
<use xlink:href="#f6_oz" transform="matrix(14,0,0,14,415.4,653.1)" />
<use xlink:href="#f6_c7" transform="matrix(14,0,0,14,421,653.1)" />
<use xlink:href="#f6_d4" transform="matrix(14,0,0,14,433.2,653.1)" />
<use xlink:href="#f6_bb" transform="matrix(14,0,0,14,433,653.1)" />
<use xlink:href="#f6_ct" transform="matrix(14,0,0,14,445.7,653.1)" />
<use xlink:href="#f6_am" transform="matrix(14,0,0,14,456.9,653.1)" />
<use xlink:href="#f6_c7" transform="matrix(14,0,0,14,478.4,653.1)" />
<use xlink:href="#f6_bg" transform="matrix(14,0,0,14,490.5,653.1)" />
<use xlink:href="#f6_d8" transform="matrix(14,0,0,14,504.8,653.1)" />
<use xlink:href="#f6_pc" transform="matrix(14,0,0,14,510.4,653.1)" />
<use xlink:href="#f6_pc" transform="matrix(14,0,0,14,514.7,653.1)" />
<use xlink:href="#f6_pc" transform="matrix(14,0,0,14,518.9,653.1)" />
<use xlink:href="#f6_s" transform="matrix(14,0,0,14,523.2,653.1)" />
<use xlink:href="#f6_by" transform="matrix(14,0,0,14,189.4,719.6)" />
<use xlink:href="#f6_d5" transform="matrix(14,0,0,14,203.5,719.6)" />
<use xlink:href="#f6_n0" transform="matrix(14,0,0,14,203.3,719.6)" />
<use xlink:href="#f6_bg" transform="matrix(14,0,0,14,216.5,719.6)" />
<use xlink:href="#f6_cv" transform="matrix(14,0,0,14,230.7,719.6)" />
<use xlink:href="#f6_by" transform="matrix(14,0,0,14,242,719.6)" />
<use xlink:href="#f6_d5" transform="matrix(14,0,0,14,256.1,719.6)" />
<use xlink:href="#f6_c1" transform="matrix(14,0,0,14,256,719.6)" />
<use xlink:href="#f6_c7" transform="matrix(14,0,0,14,264.4,719.6)" />
<use xlink:href="#f6_bz" transform="matrix(14,0,0,14,282.1,719.6)" />
<use xlink:href="#f6_dj" transform="matrix(14,0,0,14,289.6,720)" />
<use xlink:href="#f6_bm" transform="matrix(14,0,0,14,295.4,719.6)" />
<use xlink:href="#f6_c3" transform="matrix(14,0,0,14,308.1,719.6)" />
<use xlink:href="#f6_c1" transform="matrix(14,0,0,14,328.5,719.6)" />
<use xlink:href="#f6_d4" transform="matrix(14,0,0,14,336.5,719.6)" />
<use xlink:href="#f6_c7" transform="matrix(14,0,0,14,342.5,719.6)" />
<use xlink:href="#f6_ct" transform="matrix(14,0,0,14,354.6,719.6)" />
<use xlink:href="#f6_c1" transform="matrix(14,0,0,14,360.2,719.6)" />
<use xlink:href="#f6_cv" transform="matrix(14,0,0,14,368.6,719.6)" />
<use xlink:href="#f6_cu" transform="matrix(14,0,0,14,379.9,719.6)" />
<use xlink:href="#f6_c7" transform="matrix(14,0,0,14,385.5,719.6)" />
<use xlink:href="#f6_bt" transform="matrix(14,0,0,14,397.6,719.6)" />
<use xlink:href="#f6_bp" transform="matrix(14,0,0,14,409.3,719.6)" />
<use xlink:href="#f6_cv" transform="matrix(14,0,0,14,421.6,719.6)" />
<use xlink:href="#f6_k" transform="matrix(14,0,0,14,427.2,719.6)" />
<use xlink:href="#f6_by" transform="matrix(14,0,0,14,117.2,752.8)" />
<use xlink:href="#f6_d5" transform="matrix(14,0,0,14,131.3,752.8)" />
<use xlink:href="#f6_c1" transform="matrix(14,0,0,14,131.1,752.8)" />
<use xlink:href="#f6_c7" transform="matrix(14,0,0,14,139.5,752.8)" />
<use xlink:href="#f6_by" transform="matrix(14,0,0,14,157.3,752.8)" />
<use xlink:href="#f6_d5" transform="matrix(14,0,0,14,171.4,752.8)" />
<use xlink:href="#f6_c1" transform="matrix(14,0,0,14,171.2,752.8)" />
<use xlink:href="#f6_c7" transform="matrix(14,0,0,14,179.6,752.8)" />
<use xlink:href="#f6_bz" transform="matrix(14,0,0,14,197.3,752.8)" />
<use xlink:href="#f6_dj" transform="matrix(14,0,0,14,204.8,753.2)" />
<use xlink:href="#f6_bm" transform="matrix(14,0,0,14,210.7,752.8)" />
<use xlink:href="#f6_c3" transform="matrix(14,0,0,14,223.4,752.8)" />
<use xlink:href="#f6_bb" transform="matrix(14,0,0,14,243.7,752.8)" />
<use xlink:href="#f6_ct" transform="matrix(14,0,0,14,256.3,752.8)" />
<use xlink:href="#f6_c7" transform="matrix(14,0,0,14,262,752.8)" />
<use xlink:href="#f6_d4" transform="matrix(14,0,0,14,274.2,752.8)" />
<use xlink:href="#f6_am" transform="matrix(14,0,0,14,279.7,752.8)" />
<use xlink:href="#f6_bg" transform="matrix(14,0,0,14,301.2,752.8)" />
<use xlink:href="#f6_k" transform="matrix(14,0,0,14,315.5,752.8)" />
<use xlink:href="#f6_by" transform="matrix(14,0,0,14,320.7,752.8)" />
<use xlink:href="#f6_o0" transform="matrix(14,0,0,14,334.6,752.8)" />
<use xlink:href="#f6_l1" transform="matrix(14,0,0,14,340.2,752.8)" />
<use xlink:href="#f6_bp" transform="matrix(14,0,0,14,352.1,752.8)" />
<use xlink:href="#f6_bz" transform="matrix(14,0,0,14,370.1,752.8)" />
<use xlink:href="#f6_oz" transform="matrix(14,0,0,14,383.6,752.8)" />
<use xlink:href="#f6_c7" transform="matrix(14,0,0,14,389.1,752.8)" />
<use xlink:href="#f6_d4" transform="matrix(14,0,0,14,401.3,752.8)" />
<use xlink:href="#f6_bb" transform="matrix(14,0,0,14,401.2,752.8)" />
<use xlink:href="#f6_ct" transform="matrix(14,0,0,14,413.8,752.8)" />
<use xlink:href="#f6_am" transform="matrix(14,0,0,14,425.1,752.8)" />
<use xlink:href="#f6_c7" transform="matrix(14,0,0,14,446.6,752.8)" />
<use xlink:href="#f6_bg" transform="matrix(14,0,0,14,458.6,752.8)" />
<use xlink:href="#f6_d8" transform="matrix(14,0,0,14,472.9,752.8)" />
<use xlink:href="#f6_pc" transform="matrix(14,0,0,14,478.5,752.8)" />
<use xlink:href="#f6_pc" transform="matrix(14,0,0,14,482.8,752.8)" />
<use xlink:href="#f6_pc" transform="matrix(14,0,0,14,487.1,752.8)" />
<use xlink:href="#f6_t" transform="matrix(14,0,0,14,491.3,752.8)" />
<use xlink:href="#f7_4r" transform="matrix(9,0,0,9,290.2,795.2)" />
<use xlink:href="#f8_s" transform="matrix(9,0,0,9,303,795.2)" />
<use xlink:href="#f8_o" transform="matrix(9,0,0,9,310.7,795.2)" />
<use xlink:href="#f7_4r" transform="matrix(9,0,0,9,321.3,795.2)" />
</g>
</g>
<image preserveAspectRatio="none" x="22" y="801" width="581" height="86" xlink:href="img/1.png"/>
<path d="M232.6,97.4h157v1.1h-157V97.4Z" class="g1_90"/>
<image preserveAspectRatio="none" x="202" y="14" width="217" height="26" xlink:href="img/2.png"/>
<defs>
<path d="M874,-65L700,29V309H513V173L422,122c0,0,-90,31,-191,129c0,0,-100,97,-127,184l52,81H277l-2,240c0,0,0,77,-26,109c0,0,-1,0,-2,0c-8,0,-44,-1,-70,-22c0,0,-29,-24,-29,-61c0,0,0,-53,64,-101L125,610c0,0,-174,117,-174,238c0,0,0,78,57,133c0,0,59,55,146,55c0,0,132,0,244,-112c0,0,112,-113,112,-246V516H700V822H655L570,937l32,64h458l86,-115l-32,-64H842L944,749V-31L874,-65Z"
id="f5_by"
transform="scale(0.001,-0.001)"/>

<path d="M-272,872l-211,214c0,0,-64,61,-138,61c0,0,-70,0,-195,-74l-115,204c0,0,121,86,223,86c0,0,133,0,266,-155l156,-190l-84,209c0,0,-49,119,-100,170c0,0,-50,51,-129,51c0,0,-66,0,-165,-36l-92,243c0,0,105,41,189,41c0,0,240,0,375,-344L-143,923L-272,872Z"
id="f5_d5"
transform="scale(0.001,-0.001)"/>

<path d="M545,-97L35,405L87,542H295c0,0,1,5,1,280H0L-86,937l32,64H1218l87,-115l-32,-64H445L550,749V600c0,0,37,57,100,92c0,0,63,35,138,35c0,0,135,0,243,-111c0,0,109,-112,229,-318L1143,215c0,0,-125,201,-185,258c0,0,-60,57,-124,57c0,0,-59,0,-99,-36c0,0,-40,-36,-40,-81c0,0,0,-33,23,-60L888,466L1004,295c0,0,-95,-89,-190,-89c0,0,-97,0,-185,69c0,0,-88,69,-108,163c0,0,-34,-58,-141,-129L709,110V41L545,-97Z"
id="f5_n1"
transform="scale(0.001,-0.001)"/>

<path d="M952,-65L778,29V474H600c0,0,94,-91,94,-202c0,0,0,-98,-66,-163c0,0,-66,-65,-171,-65c0,0,-165,0,-280,155C177,199,63,354,-7,616l152,50c0,0,67,-223,120,-299c0,0,53,-77,122,-77c0,0,47,0,73,29c0,0,26,28,26,71c0,0,0,79,-73,128L298,559V681H778V822H0L-86,937l32,64H1137l85,-115l-32,-64H920l102,-73V-31L952,-65Z"
id="f5_bg"
transform="scale(0.001,-0.001)"/>

<path d="M277,-65L102,29V822H0L-86,937l32,64H110c0,0,-50,142,-110,226c0,0,-60,84,-149,84c0,0,-59,0,-97,-37c0,0,-39,-36,-39,-91c0,0,0,-57,42,-115l-95,-50c0,0,-145,116,-145,267c0,0,0,108,75,179c0,0,76,70,195,70c0,0,179,0,297,-150c0,0,119,-150,189,-383H463L548,886L516,822H244L347,749V-31L277,-65Z"
id="f5_cv"
transform="scale(0.001,-0.001)"/>

<path d="M300,310c13,0,56,2,103,25c0,0,58,27,100,81V523c0,0,-46,16,-83,16c0,0,-69,0,-111,-45c0,0,-42,-45,-42,-104c0,0,0,-45,28,-80c0,0,2,0,5,0ZM677,-65L503,29V144c0,0,-32,-11,-75,-11c0,0,-147,0,-272,98c0,0,-125,99,-125,233c0,0,0,110,75,185c0,0,76,74,195,74l67,-6L503,646V822H0L-86,937l32,64H1245l86,-115l-32,-64H645L747,749V622c0,0,81,58,165,58c0,0,122,0,213,-99c0,0,91,-98,91,-230c0,0,0,-204,-253,-371L791,157c0,0,110,83,164,139c0,0,53,55,53,106c0,0,0,55,-53,55c0,0,-83,0,-208,-145V-31L677,-65Z"
id="f5_b9"
transform="scale(0.001,-0.001)"/>

<path d="M483,134c0,0,98,0,155,49c0,0,57,49,57,118c0,0,0,61,-49,122H469c0,0,-90,0,-137,-40c0,0,-48,-41,-48,-102c0,0,0,-55,44,-107c0,0,71,-40,155,-40ZM579,-68c0,0,-205,0,-365,131C214,63,53,196,53,364c0,0,0,128,97,206c0,0,96,78,258,79h73V822H0L-86,937l32,64H976l87,-115l-32,-64H616L718,749V553c0,0,93,-63,148,-153c0,0,55,-90,55,-185c0,0,0,-126,-95,-205c0,0,-96,-78,-247,-78Z"
id="f5_bl"
transform="scale(0.001,-0.001)"/>

<path d="M-289,908l-132,216c0,0,-70,120,-169,120c0,0,-83,0,-200,-80l-130,249c0,0,125,78,234,78c0,0,187,0,349,-241L-159,969L-289,908Z"
id="f5_d4"
transform="scale(0.001,-0.001)"/>

<path d="M545,-97L35,405L87,542H295c0,0,1,5,1,280H0L-86,937l32,64H729L814,886L782,822H445L550,749V547c0,0,0,-75,-41,-127c0,0,-41,-52,-129,-111L709,110V41L545,-97Z"
id="f5_c1"
transform="scale(0.001,-0.001)"/>

<path d="M833,530V822H434L539,749V530ZM533,-97L23,405L75,542H284c0,0,2,5,2,280H-10L-97,937l32,64H1193l86,-115l-32,-64H975l102,-73V-31l-70,-34L833,29V333H405L370,309L697,110V41L533,-97Z"
id="f5_cb"
transform="scale(0.001,-0.001)"/>

<path d="M277,-65L102,29V822H0L-86,937l32,64H86L18,1111c0,0,-67,122,-168,122c0,0,-81,0,-202,-80l-128,250c0,0,122,77,232,77c0,0,196,0,356,-250L252,1001H463L548,886L516,822H244L347,749V-31L277,-65Z"
id="f5_d8"
transform="scale(0.001,-0.001)"/>

<path d="M368,290c0,0,83,0,161,44c0,0,78,43,116,117V822H382c0,0,136,-107,136,-225c0,0,0,-74,-55,-131c0,0,-55,-57,-165,-83c0,0,15,-48,44,-91l26,-2ZM819,-65L645,29V139c0,0,-60,-31,-130,-31c0,0,-145,0,-279,109c0,0,-134,108,-208,287l29,78c0,0,128,15,181,43c0,0,54,27,54,73c0,0,0,61,-96,124H0L-86,937l32,64H1004l87,-115l-32,-64H787L889,749V-31L819,-65Z"
id="f5_c0"
transform="scale(0.001,-0.001)"/>

<path d="M277,-65L102,29V822H0L-86,937l32,64H463L548,886L516,822H244L347,749V-31L277,-65Z"
id="f5_ct"
transform="scale(0.001,-0.001)"/>

<path d="M823,-49L733,8V339H445V191L371,160c0,0,-56,36,-120,105c0,0,-63,70,-89,131l41,59H313V735c0,0,0,99,-55,140c0,0,-3,1,-8,1c-16,0,-48,-3,-71,-23c0,0,-31,-26,-31,-66c0,0,0,-69,81,-113L189,620C189,620,31,720,31,828c0,0,0,61,45,99c0,0,46,37,109,37c0,0,96,0,173,-86c0,0,76,-87,79,-194V455H733V822H556l-46,76l14,31H998l45,-76l-13,-31H794l66,-58V-39L823,-49Z"
id="f6_by"
transform="scale(0.001,-0.001)"/>

<path d="M-214,860l-227,219c0,0,-73,70,-148,70c0,0,-67,0,-160,-58l-72,117c0,0,83,71,176,71c0,0,120,0,232,-124L-221,940l-102,294c0,0,-64,179,-189,179c0,0,-60,0,-133,-33l-60,125c0,0,84,47,164,47c0,0,200,0,281,-276L-150,901l-23,-15l-41,-26Z"
id="f6_d5"
transform="scale(0.001,-0.001)"/>

<path d="M527,-71L52,414l34,92H277c0,0,12,32,12,72V822H0l-45,76l14,31H940l45,-76L972,822H350l66,-55V570c0,0,146,98,247,98c0,0,95,0,167,-73c0,0,71,-72,71,-167c0,0,0,-77,-53,-142c0,0,-54,-64,-159,-136l-89,99c0,0,100,70,152,121c0,0,52,52,52,105c0,0,0,34,-23,60c0,0,-22,26,-72,26c0,0,-139,0,-434,-252L610,34L611,8L527,-71Z"
id="f6_n0"
transform="scale(0.001,-0.001)"/>

<path d="M845,-49L755,8V513H497c0,0,61,-45,93,-110c0,0,33,-64,33,-128c0,0,0,-90,-58,-144c0,0,-59,-53,-143,-53c0,0,-133,0,-234,139C188,217,87,356,20,596l76,24c0,0,60,-201,127,-306c0,0,67,-105,160,-105c0,0,57,0,91,36c0,0,33,36,33,91c0,0,0,84,-73,159L295,558v71H755V822H0l-45,76l14,31H1019l46,-76l-14,-31H816l66,-58V-39L845,-49Z"
id="f6_bg"
transform="scale(0.001,-0.001)"/>

<path d="M228,-49L138,8V822H0l-45,76l14,31H138c0,0,-109,342,-284,342c0,0,-62,0,-102,-40c0,0,-40,-39,-40,-93c0,0,0,-61,51,-134l-42,-32c0,0,-128,113,-128,226c0,0,0,79,60,136c0,0,61,56,154,56c0,0,137,0,249,-125c0,0,112,-125,169,-336H402l46,-76L434,822H199l65,-58V-39L228,-49Z"
id="f6_cv"
transform="scale(0.001,-0.001)"/>

<path d="M283,260c0,0,122,0,209,113V513c0,0,-90,51,-160,51c0,0,-80,0,-129,-50c0,0,-49,-50,-49,-118c0,0,0,-60,35,-110c0,0,45,-26,94,-26ZM582,-49L492,8V211c0,0,-63,-54,-141,-54c0,0,-113,0,-213,92c0,0,-100,92,-100,205c0,0,0,93,69,157c0,0,69,64,162,64c0,0,32,0,64,-9L492,590V822H0l-45,76l14,31H1108l45,-76l-13,-31H553l66,-58V524c0,0,91,89,192,89c0,0,98,0,171,-79c0,0,72,-79,72,-186c0,0,0,-178,-224,-330L736,124c0,0,219,153,219,269c0,0,0,44,-26,75c0,0,-26,32,-81,32c0,0,-109,0,-229,-155V-39L582,-49Z"
id="f6_b9"
transform="scale(0.001,-0.001)"/>

<path d="M449,79c0,0,103,0,168,61c0,0,66,60,66,149c0,0,0,93,-84,186H420c0,0,-107,0,-164,-50c0,0,-57,-51,-57,-126c0,0,0,-108,99,-184c0,0,81,-36,151,-36Zm67,-96c0,0,-168,0,-301,109C215,92,81,202,81,350c0,0,0,114,83,182c0,0,84,68,229,68H507V822H0l-45,76l14,31H883l46,-76L915,822H568l66,-58V532c0,0,87,-64,130,-144c0,0,43,-79,43,-157c0,0,0,-109,-81,-179c0,0,-81,-69,-210,-69Z"
id="f6_bl"
transform="scale(0.001,-0.001)"/>

<path d="M-214,863l-199,281c0,0,-70,92,-157,92c0,0,-69,0,-159,-58l-72,118c0,0,89,73,180,73c0,0,141,0,258,-170L-155,901l-59,-38Z"
id="f6_d4"
transform="scale(0.001,-0.001)"/>

<path d="M527,-71L52,414l34,92H277c0,0,12,32,12,72V822H0l-45,76l14,31H599l46,-76L631,822H350l66,-55V564c0,0,0,-96,-152,-248L610,34L611,8L527,-71Z"
id="f6_c1"
transform="scale(0.001,-0.001)"/>

<path d="M799,475V822H350l66,-55V564c0,0,0,-43,-25,-89ZM527,-71L52,414l34,92H277c0,0,12,32,12,72V822H0l-45,76l14,31H1063l46,-76l-14,-31H860l66,-58V-39L889,-49L799,8V370H315L264,316L610,34L611,8L527,-71Z"
id="f6_cb"
transform="scale(0.001,-0.001)"/>

<path d="M228,-49L138,8V822H0l-45,76l14,31H119L-33,1144c0,0,-70,92,-157,92c0,0,-69,0,-159,-58l-72,118c0,0,89,73,181,73c0,0,140,0,257,-170L205,929H402l46,-76L434,822H199l65,-58V-39L228,-49Z"
id="f6_d8"
transform="scale(0.001,-0.001)"/>

<path d="M374,248c0,0,77,0,149,36c0,0,71,37,110,107V822H284c0,0,138,-96,138,-208c0,0,0,-151,-228,-192c0,0,29,-104,89,-158c0,0,41,-16,91,-16ZM723,-49L633,8V200c0,0,-69,-56,-170,-56c0,0,-122,0,-240,94c0,0,-118,94,-179,237l20,55c0,0,133,17,187,44c0,0,55,28,55,84c0,0,0,45,-30,81c0,0,-30,36,-99,83H0l-45,76l14,31H897l46,-76L929,822H694l65,-58V-39L723,-49Z"
id="f6_c0"
transform="scale(0.001,-0.001)"/>

<path d="M228,-49L138,8V822H0l-45,76l14,31H402l46,-76L434,822H199l65,-58V-39L228,-49Z"
id="f6_ct"
transform="scale(0.001,-0.001)"/>

<path d="M-234,-413c0,0,-210,0,-488,322l54,49c0,0,119,-128,209,-193c0,0,90,-65,177,-65c0,0,72,0,113,40c0,0,42,39,42,91c0,0,0,75,-78,106L-323,-181l-90,98c0,0,63,95,167,95c0,0,90,0,155,-69c0,0,66,-70,66,-164c0,0,0,-85,-60,-139c0,0,-61,-53,-149,-53Z"
id="f6_cw"
transform="scale(0.001,-0.001)"/>

<path d="M761,293c0,0,127,0,169,94V532c0,0,-68,46,-145,46c0,0,-76,0,-121,-46c0,0,-45,-45,-45,-107c0,0,0,-61,44,-110c0,0,47,-22,98,-22ZM657,67c0,0,166,0,273,107v55c0,0,-45,-36,-111,-36c0,0,-110,0,-207,90c0,0,-97,90,-97,194c0,0,0,85,66,148c0,0,65,63,155,63l48,-5L930,603V822H376l62,-55V579c0,0,0,-60,-23,-102c0,0,-24,-42,-148,-190c0,0,66,-104,175,-162c0,0,108,-58,215,-58ZM1021,-49L930,8V53c0,0,-105,-83,-264,-83c0,0,-177,0,-339,128C327,98,165,226,90,429l34,77H296c0,0,19,39,19,102l-2,214H0l-45,76l14,31H1195l46,-76l-14,-31H992l65,-58V-39l-36,-10Z"
id="f6_ba"
transform="scale(0.001,-0.001)"/>

<path d="M663,-49L573,8V445H299V280L226,251c0,0,-105,99,-162,238l63,72H573V822H0l-45,76l14,31H837l46,-76L869,822H634l66,-58V-39L663,-49Z"
id="f6_bt"
transform="scale(0.001,-0.001)"/>

<path d="M0,1062c0,0,-26,11,-60,36c0,0,-34,26,-51,49c0,0,39,81,91,110c0,0,60,-23,106,-85c0,0,-28,-70,-86,-110Z"
id="f6_dj"
transform="scale(0.001,-0.001)"/>

<path d="M675,-274L602,21C602,21,550,3,498,3C498,3,347,3,210,118C210,118,73,232,73,373c0,0,0,113,84,184c0,0,84,71,222,72H524V822H0l-45,76l14,31H834l46,-76L866,822H585l66,-58V504l-3,2l3,-3H408c0,0,-95,0,-154,-53c0,0,-58,-53,-58,-132c0,0,0,-49,27,-100c0,0,28,-50,83,-84c0,0,44,-15,96,-15c0,0,91,0,160,46L535,303l101,48L773,188c0,0,-8,-28,-34,-66c0,0,-27,-38,-62,-64L813,-221L675,-274Z"
id="f6_br"
transform="scale(0.001,-0.001)"/>

<path d="M689,445V822H286l65,-58l8,-319ZM779,-49L689,8V328H370V180L296,150c0,0,-56,35,-120,104c0,0,-63,70,-89,131l41,60H238L223,822H0l-45,76l14,31H953l46,-76L985,822H750l66,-58V-39L779,-49Z"
id="f6_bz"
transform="scale(0.001,-0.001)"/>

<path d="M-91,1001c0,0,-27,10,-61,36c0,0,-33,26,-50,49c0,0,38,81,90,110c0,0,61,-23,107,-85c0,0,-28,-71,-86,-110ZM-214,863l-199,281c0,0,-70,92,-157,92c0,0,-69,0,-159,-58l-72,118c0,0,89,73,180,73c0,0,141,0,258,-170L-155,901l-59,-38Z"
id="f6_oz"
transform="scale(0.001,-0.001)"/>

<path d="M108,-222l-44,58c0,0,96,81,104,164L89,61c0,0,12,83,93,122c0,0,50,-15,79,-55c0,0,29,-39,29,-90c0,0,0,-69,-48,-142c0,0,-48,-72,-134,-118Z"
id="f6_k"
transform="scale(0.001,-0.001)"/>

<path d="M413,-59C413,-59,53,193,53,416c0,0,0,97,66,164c0,0,66,66,156,66c0,0,61,0,110,-30L487,507c0,0,92,126,257,126l35,-2V822H0l-45,76l14,31H1043l46,-76l-13,-31H840l66,-58V-39L869,-49L779,8V547c0,0,-101,-5,-165,-90c0,0,-64,-86,-70,-222L507,225l-90,73c0,0,5,79,35,151c0,0,-59,66,-128,66c0,0,-57,0,-100,-38c0,0,-44,-39,-44,-109c0,0,0,-165,284,-360L413,-59Z"
id="f6_c3"
transform="scale(0.001,-0.001)"/>

<path d="M727,-49L637,8V822H278l66,-58V226L270,196c0,0,-64,36,-122,98c0,0,-58,62,-79,122l43,59H217V822H0l-45,76l14,31H901l46,-76L933,822H698l66,-58V-39L727,-49Z"
id="f6_bb"
transform="scale(0.001,-0.001)"/>

<path d="M483,-305L295,-10c0,0,-90,22,-156,74l41,170h66L351,63c0,0,126,4,207,62c0,0,82,58,82,139c0,0,0,37,-18,71L365,266c0,0,-110,15,-197,102c0,0,-87,87,-87,176c0,0,0,69,59,117c0,0,59,48,172,48H550V822H0l-45,76l14,31H550c0,0,-142,122,-142,255c0,0,0,78,52,133c0,0,52,55,140,55c0,0,98,0,176,-64l-23,-69c0,0,-53,32,-104,32c0,0,-56,0,-94,-36c0,0,-39,-36,-39,-95c0,0,0,-109,112,-211H822l46,-76L854,822H603l66,-58V585H373c0,0,-184,0,-184,-99c0,0,0,-48,63,-101l310,78c0,0,86,-34,141,-99c0,0,55,-65,55,-142c0,0,0,-109,-98,-179c0,0,-98,-69,-254,-69L599,-216L483,-305Z"
id="f6_ao"
transform="scale(0.001,-0.001)"/>

<path d="M483,-305L295,-10c0,0,-90,22,-156,74l41,170h66L351,63c0,0,126,4,207,62c0,0,82,58,82,139c0,0,0,37,-18,71L365,266c0,0,-110,15,-197,102c0,0,-87,87,-87,176c0,0,0,69,59,117c0,0,59,48,172,48H550V822H0l-45,76l14,31H822l46,-76L854,822H603l66,-58V585H373c0,0,-184,0,-184,-99c0,0,0,-48,63,-101l310,78c0,0,86,-34,141,-99c0,0,55,-65,55,-142c0,0,0,-109,-98,-179c0,0,-98,-69,-254,-69L599,-216L483,-305Z"
id="f6_an"
transform="scale(0.001,-0.001)"/>

<path d="M347,-57C347,-57,66,211,66,394c0,0,0,98,74,164c0,0,74,65,225,65H616V822H0l-45,76l14,31H880l46,-76L912,822H677l66,-58V-39L706,-49L616,8V500H428c0,0,-239,0,-239,-161c0,0,0,-136,214,-343L347,-57Z"
id="f6_bp"
transform="scale(0.001,-0.001)"/>

<path d="M228,-49L138,8V822H0l-45,76l14,31H134c0,0,-91,92,-91,191c0,0,0,105,85,170c0,0,84,65,219,65c0,0,128,0,293,-76c0,0,165,-77,362,-263L958,966c0,0,-177,143,-303,210c0,0,-125,68,-244,68c0,0,-107,0,-175,-50c0,0,-68,-50,-68,-131c0,0,0,-61,49,-134H402l46,-76L434,822H199l65,-58V-39L228,-49Z"
id="f6_cu"
transform="scale(0.001,-0.001)"/>

<path d="M325,240c0,0,77,0,154,35c0,0,77,35,120,99V500c0,0,-118,73,-222,73c0,0,-97,0,-151,-54c0,0,-53,-53,-53,-128c0,0,0,-73,49,-125c0,0,38,-26,103,-26ZM689,-49L599,8V199c0,0,-73,-65,-179,-65c0,0,-134,0,-252,96c0,0,-118,95,-118,221c0,0,0,102,78,171c0,0,78,69,190,69c0,0,38,0,75,-10L599,582V822H0l-45,76l14,31H863l46,-76L895,822H660l66,-58V-39L689,-49Z"
id="f6_c7"
transform="scale(0.001,-0.001)"/>

<path d="M959,-49L869,8V367c0,0,-32,-13,-64,-13c0,0,-50,0,-110,25c0,0,23,-52,23,-109c0,0,0,-103,-70,-170c0,0,-70,-66,-182,-66c0,0,-110,0,-222,82c0,0,-111,83,-213,293l68,42c0,0,72,-155,152,-231c0,0,81,-76,178,-76c0,0,83,0,131,49c0,0,48,48,48,117c0,0,0,54,-30,100c0,0,-31,47,-91,65L325,391L257,512c0,0,68,53,156,56c0,0,140,72,140,179c0,0,0,69,-52,99c0,0,-4,1,-11,1c-19,0,-66,-4,-123,-30c0,0,-78,-35,-142,-96L150,823c0,0,119,117,253,117c0,0,98,0,175,-71c0,0,77,-70,77,-159c0,0,0,-103,-94,-180c0,0,39,-23,73,-56c0,0,52,-22,109,-22c0,0,77,0,126,38V822H727l-46,76l14,31h840l46,-76l-13,-31H1332l66,-58V-39l-37,-10L1271,8V822H930l66,-58V-39L959,-49Z"
id="f6_am"
transform="scale(0.001,-0.001)"/>

<path d="M254,-26c0,0,-84,16,-116,92c0,0,13,84,97,127c0,0,100,-36,112,-110C347,83,324,6,254,-26Zm458,0c0,0,-84,16,-116,92c0,0,14,84,98,127c0,0,99,-37,111,-110C805,83,782,6,712,-26Zm458,0c0,0,-84,16,-116,92c0,0,14,84,98,127c0,0,99,-36,111,-110c0,0,-22,-77,-93,-109Z"
id="f6_8l"
transform="scale(0.001,-0.001)"/>

<path d="M547,-285c0,0,-66,25,-102,80c0,0,32,69,82,101c0,0,55,-20,99,-80c0,0,-26,-67,-79,-101Zm1,228c0,0,-122,0,-243,81c0,0,-122,81,-252,280l57,41C110,345,283,64,498,64c0,0,92,0,153,49c0,0,61,49,61,121c0,0,0,46,-28,84L440,237c0,0,-73,11,-139,55c0,0,-66,44,-105,105c0,0,-40,61,-40,119c0,0,0,72,62,125c0,0,62,53,184,53H625V822H0l-45,76l14,31H906l46,-76L938,822H678l66,-58V562H431c0,0,-164,0,-164,-99c0,0,0,-55,57,-102l261,82c0,0,104,-21,172,-98c0,0,68,-78,68,-171c0,0,0,-99,-76,-166c0,0,-77,-65,-201,-65Z"
id="f6_ch"
transform="scale(0.001,-0.001)"/>

<path d="M342,324c0,0,45,0,75,34c0,0,31,33,31,100V822H165l66,-58V390c0,0,32,-66,111,-66ZM853,-49L762,8V822H509l65,-58V455c0,0,0,-134,-51,-185c0,0,-52,-52,-127,-52c0,0,-98,0,-195,99c0,0,-97,99,-97,209V822H0l-45,76l14,31H1027l46,-76l-14,-31H823l66,-58V-39L853,-49Z"
id="f6_bo"
transform="scale(0.001,-0.001)"/>

<path d="M1001,240c0,0,76,0,153,35c0,0,77,35,120,99V500c0,0,-117,73,-221,73c0,0,-98,0,-152,-54c0,0,-53,-53,-53,-128c0,0,0,-73,49,-125c0,0,38,-26,104,-26ZM1364,-49L1274,8V199c0,0,-73,-65,-179,-65c0,0,-74,0,-155,37c0,0,-81,37,-138,98c0,0,-56,-69,-135,-108c0,0,-79,-39,-149,-39c0,0,-115,0,-225,93c0,0,-111,94,-111,193c0,0,0,79,61,137C243,545,66,672,66,791c0,0,0,75,52,124c0,0,53,49,134,49c0,0,164,0,260,-237L451,694c0,0,-55,114,-119,163l-31,5c0,0,-44,0,-77,-32c0,0,-33,-31,-33,-78c0,0,0,-86,113,-165c0,0,60,27,133,27l67,-4l75,-89L564,490l-51,7H493c0,0,-90,0,-142,-43c0,0,-52,-43,-52,-104c0,0,0,-60,51,-109c0,0,37,-13,81,-13c0,0,84,0,169,42c0,0,86,43,133,120l-7,61c0,0,0,102,78,171c0,0,78,69,189,69c0,0,38,0,75,-10l206,-99V822H567l-46,76l14,31H1538l46,-76l-13,-31H1335l66,-58V-39l-37,-10Z"
id="f6_fa"
transform="scale(0.001,-0.001)"/>

<path d="M368,344c0,0,90,0,155,73V822H150l67,-58V438c0,0,46,-94,151,-94ZM613,-49L523,8V251c0,0,-48,-28,-103,-28c0,0,-122,0,-227,112C193,335,89,448,89,590V822H0l-45,76l14,31H1150l46,-76l-13,-31H584l65,-58V533c0,0,101,95,211,95c0,0,98,0,170,-79c0,0,73,-78,73,-185c0,0,0,-179,-225,-330L785,139c0,0,219,153,219,269c0,0,0,43,-26,75c0,0,-26,32,-80,32c0,0,-120,0,-249,-159V-39L613,-49Z"
id="f6_bw"
transform="scale(0.001,-0.001)"/>

<path d="M228,-49L138,8V822H0l-45,76l14,31H134c0,0,-85,93,-85,192c0,0,0,124,129,195c0,0,129,71,364,71c0,0,285,0,647,-97c0,0,363,-97,692,-271l-42,-50c0,0,-313,137,-644,221c0,0,-332,84,-595,84c0,0,-198,0,-314,-55c0,0,-115,-55,-115,-163c0,0,0,-60,44,-127H402l46,-76L434,822H199l65,-58V-39L228,-49Z"
id="f6_o0"
transform="scale(0.001,-0.001)"/>

<path d="M283,260c0,0,122,0,209,113V513c0,0,-90,51,-160,51c0,0,-80,0,-129,-50c0,0,-49,-50,-49,-118c0,0,0,-60,35,-110c0,0,45,-26,94,-26ZM582,-49L492,8V211c0,0,-63,-54,-141,-54c0,0,-113,0,-214,92c0,0,-102,92,-102,206c0,0,0,93,69,157c0,0,69,63,163,63c0,0,34,0,66,-9L492,590V822H0l-45,76l14,31H909l46,-76L941,822H553l66,-58V521c0,0,93,104,192,104c0,0,63,0,120,-42c0,0,57,-42,82,-106L964,431l-5,9c0,0,-38,72,-110,72c0,0,-51,0,-105,-41c0,0,-53,-42,-125,-129V-39L582,-49Z"
id="f6_l1"
transform="scale(0.001,-0.001)"/>

<path d="M226,-49c0,0,-66,24,-102,78c0,0,32,69,82,101c0,0,55,-20,100,-80c0,0,-26,-66,-80,-99Z"
id="f6_pc"
transform="scale(0.001,-0.001)"/>

<path d="M67,0L58,52c0,0,105,40,209,64V851L81,762L38,831l294,193l71,-39V99L591,73L582,0Z"
id="f6_p"
transform="scale(0.001,-0.001)"/>

<path d="M228,-49L138,8V822H0l-45,76l14,31H134c0,0,-91,93,-91,202c0,0,0,105,85,170c0,0,86,65,236,65c0,0,340,0,742,-350l-50,-46c0,0,-182,135,-340,208c0,0,-158,73,-302,73c0,0,-113,0,-183,-48c0,0,-69,-48,-69,-132c0,0,0,-63,53,-142H402l46,-76L434,822H199l65,-58V-39L228,-49Z"
id="f6_nt"
transform="scale(0.001,-0.001)"/>

<path d="M825,-49L735,8V217c0,0,-86,-72,-197,-72c0,0,-130,0,-238,91c0,0,-107,91,-107,204c0,0,0,55,27,105H55L12,616l14,30H574l46,-76L607,539H396c0,0,-78,-49,-78,-162c0,0,0,-70,40,-111c0,0,39,-15,94,-15c0,0,84,0,163,41c0,0,79,41,120,121V822H0l-45,76l14,31H999l46,-76l-14,-31H796l66,-58V-39L825,-49Z"
id="f6_be"
transform="scale(0.001,-0.001)"/>

<path d="M570,78c0,0,66,17,105,54c0,0,40,38,40,88c0,0,0,40,-23,66c0,0,-23,26,-58,26c0,0,-40,0,-71,-33c0,0,-31,-33,-31,-90c0,0,0,-55,38,-111ZM538,-45c0,0,-182,0,-322,128C216,83,76,211,76,368c0,0,0,122,91,201c0,0,90,79,238,79H564V822H0l-45,76l14,31H853l45,-76L885,822H617l66,-58V521H420c0,0,-99,0,-162,-57c0,0,-62,-58,-62,-146c0,0,0,-121,105,-208c0,0,118,-41,188,-41l29,1l-69,46c0,0,-36,55,-36,115c0,0,0,73,48,123c0,0,49,49,123,49c0,0,87,0,151,-74c0,0,64,-74,64,-162c0,0,0,-94,-71,-153c0,0,-71,-59,-190,-59Z"
id="f6_bn"
transform="scale(0.001,-0.001)"/>

<path d="M108,-433L-59,-214c0,0,-99,119,-191,119c0,0,-59,0,-96,-35c0,0,-36,-34,-36,-81c0,0,0,-49,42,-83l152,95l64,-116c0,0,-71,-58,-148,-58c0,0,-80,0,-146,63c0,0,-65,64,-65,144c0,0,0,77,62,131c0,0,61,53,142,53c0,0,138,0,296,-205L165,-393l-57,-40Z"
id="f6_cx"
transform="scale(0.001,-0.001)"/>

<path d="M92,380L46,457l14,30H448l45,-76L480,380Z"
id="f6_pd"
transform="scale(0.001,-0.001)"/>

<path d="M319,561c0,0,66,46,103,105c0,0,36,60,36,113c0,0,0,28,-9,48c0,0,-35,41,-88,41c0,0,-51,0,-89,-39c0,0,-38,-39,-38,-103c0,0,0,-95,85,-165ZM840,-49L750,8V342L362,31l-89,85L608,370c0,0,-121,15,-241,78L105,272L20,364L260,519c0,0,-144,118,-144,246c0,0,0,81,57,140c0,0,56,59,140,59c0,0,96,0,171,-79c0,0,75,-78,75,-168c0,0,0,-117,-130,-219c0,0,110,-40,257,-40l64,2V822H628l-46,76l14,31h418l46,-76l-13,-31H811l66,-58V-39L840,-49Z"
id="f6_ef"
transform="scale(0.001,-0.001)"/>

<path d="M95,0L67,98L422,497c0,0,130,154,130,259c0,0,0,63,-40,111c0,0,-40,48,-121,48c0,0,-75,0,-171,-29L193,695l-88,2c0,0,-13,82,-13,165l1,65c0,0,159,97,315,97c0,0,122,0,207,-78c0,0,85,-77,85,-193c0,0,0,-67,-34,-133c0,0,-33,-67,-165,-217L237,121l4,-14l373,21l49,136l83,-12C746,252,732,99,704,0Z"
id="f6_q"
transform="scale(0.001,-0.001)"/>

<path d="M827,-49L736,8V205c0,0,-84,-84,-209,-84c0,0,-130,0,-237,91c0,0,-108,92,-108,196c0,0,0,79,61,137C243,545,66,672,66,791c0,0,0,75,52,124c0,0,53,49,134,49c0,0,164,0,260,-237L451,694c0,0,-55,114,-119,163l-31,5c0,0,-44,0,-77,-32c0,0,-33,-31,-33,-78c0,0,0,-86,113,-165c0,0,60,27,133,27l67,-4l75,-89L564,490l-51,7H493c0,0,-90,0,-142,-43c0,0,-52,-43,-52,-104c0,0,0,-60,51,-109c0,0,33,-16,84,-16c0,0,89,0,177,47c0,0,89,47,125,137V822H567l-46,76l14,31h466l46,-76l-14,-31H798l65,-58V-39L827,-49Z"
id="f6_bs"
transform="scale(0.001,-0.001)"/>

<path d="M548,-57c0,0,-122,0,-243,81c0,0,-122,81,-252,280l57,41C110,345,283,64,498,64c0,0,92,0,153,49c0,0,61,49,61,121c0,0,0,46,-28,84L440,237c0,0,-73,11,-139,55c0,0,-66,44,-105,105c0,0,-40,61,-40,119c0,0,0,72,62,125c0,0,62,53,184,53H625V822H0l-45,76l14,31H906l46,-76L938,822H678l66,-58V562H431c0,0,-164,0,-164,-99c0,0,0,-55,57,-102l261,82c0,0,104,-21,172,-98c0,0,68,-78,68,-171c0,0,0,-99,-76,-166c0,0,-77,-65,-201,-65Z"
id="f6_bm"
transform="scale(0.001,-0.001)"/>

<path d="M487,-7c0,0,-88,0,-185,46c0,0,-97,47,-163,130c0,0,-66,83,-66,185c0,0,0,109,80,177c0,0,79,68,234,68H504V822H0l-45,76l14,31H827l45,-76L859,822H565l66,-58V474l-3,1l3,-3H396c0,0,-100,0,-152,-47c0,0,-53,-48,-53,-119c0,0,0,-104,93,-178c0,0,60,-20,118,-20c0,0,81,0,156,36c0,0,76,35,123,99l92,-99C773,144,723,70,645,31C645,31,567,-7,487,-7Z"
id="f6_bk"
transform="scale(0.001,-0.001)"/>

<path d="M387,-28c0,0,-158,0,-295,71l27,137c0,0,168,-84,329,-84c0,0,47,0,85,9c0,0,57,62,57,141c0,0,0,82,-66,140c0,0,-66,57,-188,57L228,438l-3,104h26c0,0,145,5,212,67c0,0,67,62,67,146c0,0,0,75,-51,123c0,0,-51,49,-143,49c0,0,-50,0,-105,-16L203,743l-88,1c0,0,-14,83,-14,139l1,58c0,0,120,83,280,83c0,0,128,0,211,-71c0,0,82,-71,82,-177c0,0,0,-73,-45,-137c0,0,-45,-65,-132,-98c0,0,96,-22,163,-103c0,0,66,-80,66,-178c0,0,0,-126,-94,-207c0,0,-95,-81,-246,-81Z"
id="f6_r"
transform="scale(0.001,-0.001)"/>

<path d="M228,-49L138,8V822H0l-45,76l14,31H70L-65,1033c0,0,-90,65,-157,65c0,0,-67,0,-151,-53l-72,118c0,0,78,65,163,65c0,0,116,0,246,-120L153,930L46,1201c0,0,-71,166,-187,166c0,0,-52,0,-128,-33l-60,125c0,0,78,46,159,46c0,0,193,0,283,-271L215,929H402l46,-76L434,822H199l65,-58V-39L228,-49Z"
id="f6_d9"
transform="scale(0.001,-0.001)"/>

<path d="M228,-49L138,8V822H0l-45,76l14,31H134c0,0,-91,93,-91,200c0,0,0,109,92,174c0,0,93,66,253,66c0,0,186,0,398,-89c0,0,212,-90,430,-264l-49,-47c0,0,-424,285,-727,285c0,0,-125,0,-201,-49c0,0,-76,-48,-76,-137c0,0,0,-67,52,-139H402l46,-76L434,822H199l65,-58V-39L228,-49Z"
id="f6_nu"
transform="scale(0.001,-0.001)"/>

<path d="M513,460c0,0,61,81,61,179c0,0,0,87,-45,143c0,0,-45,57,-116,57c0,0,-63,0,-102,-43c0,0,-39,-43,-39,-110c0,0,0,-90,68,-151c0,0,68,-61,173,-75ZM581,-83L278,167l-41,-4c0,0,-99,0,-130,37l47,168l51,12l78,-79c0,0,110,40,183,105c0,0,-141,23,-231,107c0,0,-90,84,-90,193c0,0,0,69,37,116H0l-45,76l14,31H1134l45,-76l-13,-31H930l66,-58V-39L959,-49L869,8V822H588c0,0,51,-44,75,-109c0,0,25,-64,25,-122c0,0,0,-105,-81,-213c0,0,-80,-108,-240,-176L658,18l2,-25L581,-83Z"
id="f6_c8"
transform="scale(0.001,-0.001)"/>

<path d="M768,-49L678,8V202c0,0,-73,-58,-172,-58c0,0,-123,0,-240,94c0,0,-118,94,-179,237l20,55c0,0,134,12,215,70c0,0,81,57,81,141c0,0,0,90,-67,134l-26,3c0,0,-46,0,-74,-29c0,0,-28,-30,-28,-68c0,0,0,-55,82,-109L252,620C252,620,93,720,93,820c0,0,0,65,47,104c0,0,46,40,114,40c0,0,99,0,179,-83c0,0,80,-83,82,-197c0,0,0,-93,-79,-165c0,0,-78,-73,-199,-97c0,0,29,-104,88,-158c0,0,42,-16,92,-16c0,0,78,0,151,38c0,0,74,38,110,111V822H553l-46,76l14,31H943l45,-76L975,822H739l66,-58V-39L768,-49Z"
id="f6_bq"
transform="scale(0.001,-0.001)"/>

<path d="M188,365l310,9V738l18,139L188,365ZM338,0L328,52l170,55V267H73L38,354l478,670l118,-16V377l176,5l1,-76L768,267H634V90L761,73L752,0Z"
id="f6_s"
transform="scale(0.001,-0.001)"/>

<path d="M416,-30c0,0,-83,0,-175,30C241,0,148,29,75,78l59,125C134,203,296,93,463,93l82,8c0,0,75,67,75,157c0,0,0,104,-70,158c0,0,-70,53,-171,53c0,0,-86,0,-177,-35l-75,66l53,493H700l1,-69c0,0,0,-96,-13,-178l-88,-2L584,872L278,886L248,570c0,0,55,27,149,27c0,0,155,0,255,-84c0,0,100,-85,100,-224c0,0,0,-139,-95,-229c0,0,-95,-90,-241,-90Z"
id="f6_t"
transform="scale(0.001,-0.001)"/>

<path d="M725,307c0,0,-95,0,-218,78c0,0,-123,78,-188,78c0,0,-54,0,-95,-34c0,0,-41,-34,-73,-100L93,362c0,0,38,88,101,146c0,0,63,59,148,59c0,0,90,0,214,-78c0,0,124,-79,188,-79c0,0,63,0,106,34c0,0,42,33,85,104l60,-40c0,0,-32,-66,-101,-134c0,0,-70,-67,-169,-67Z"
id="f7_4r"
transform="scale(0.001,-0.001)"/>

<path d="M423,92c0,0,97,0,159,62c0,0,62,62,62,157c0,0,0,97,-64,160c0,0,-64,64,-161,64c0,0,-96,0,-158,-63c0,0,-62,-62,-62,-156c0,0,0,-58,27,-111c0,0,27,-54,81,-84c0,0,54,-29,116,-29Zm0,552c0,0,78,0,127,49c0,0,49,49,49,120c0,0,0,74,-50,124c0,0,-51,51,-128,51c0,0,-77,0,-127,-50c0,0,-51,-49,-51,-118c0,0,0,-77,50,-126c0,0,50,-50,130,-50ZM422,-18c0,0,-162,0,-261,95c0,0,-99,96,-99,239c0,0,0,107,54,179c0,0,54,72,154,98c0,0,-84,31,-124,87c0,0,-40,57,-40,136c0,0,0,119,85,201c0,0,86,81,229,81c0,0,143,0,230,-83c0,0,87,-83,87,-203c0,0,0,-76,-40,-132c0,0,-39,-56,-121,-87c0,0,101,-33,154,-106c0,0,52,-73,52,-174c0,0,0,-141,-99,-236c0,0,-99,-95,-261,-95Z"
id="f8_s"
transform="scale(0.001,-0.001)"/>

<path d="M494,385V878L152,385ZM494,0V262H20V385l498,708H628V385H775V262H628V0Z"
id="f8_o"
transform="scale(0.001,-0.001)"/>


</defs>
</svg>