<?xml version="1.0" encoding="UTF-8" standalone="no"?>
<!DOCTYPE svg PUBLIC "-//W3C//DTD SVG 1.1//EN"
"http://www.w3.org/Graphics/SVG/1.1/DTD/svg11.dtd">
<svg viewBox="0 0 641 910" version="1.1" xmlns="http://www.w3.org/2000/svg" xmlns:xlink="http://www.w3.org/1999/xlink">
<defs>
<clipPath id="c0_55"><path d="M0,909.8V0H641.7V909.8Z"/></clipPath>
<clipPath id="c1_55"><path d="M0,908.6V0H641.7V908.6Z"/></clipPath>
<style type="text/css"><![CDATA[
.g0_55{
fill: #FFFFFF;
}
.g1_55{
}
]]></style>
</defs>
<path d="M0,0H641.7V909.8H0V0Z" class="g0_55"/>
<path d="M0,0H641.7V909.8H0V0Z" class="g0_55"/>
<g clip-path="url(#c0_55)">
<path d="M0,-43669.9H641.7V62775.6H0V-43669.9Z" class="g0_55"/>
</g>
<path d="M0,0H641.7V908.6H0V0Z" class="g0_55"/>
<path d="M19.5,60.7H602.7v1.2H19.5V60.7Z" class="g1_55"/>
<g clip-path="url(#c1_55)">
<path d="M0,61.9H641.7V909.8H0V61.9Z" class="g0_55"/>
<g fill="#000000" >
<use xlink:href="#f5_b9" transform="matrix(14,0,0,14,275.3,96.3)" />
<use xlink:href="#f5_d4" transform="matrix(14,0,0,14,288,96.3)" />
<use xlink:href="#f5_cb" transform="matrix(14,0,0,14,292.7,96.3)" />
<use xlink:href="#f5_c1" transform="matrix(14,0,0,14,309.4,96.3)" />
<use xlink:href="#f5_cv" transform="matrix(14,0,0,14,319.6,96.3)" />
<use xlink:href="#f5_c0" transform="matrix(14,0,0,14,326.1,96.3)" />
<use xlink:href="#f5_d8" transform="matrix(14,0,0,14,340.2,96.3)" />
<use xlink:href="#f6_g" transform="matrix(14,0,0,14,199.7,129.5)" />
<use xlink:href="#f6_bp" transform="matrix(14,0,0,14,205.6,129.5)" />
<use xlink:href="#f6_bg" transform="matrix(14,0,0,14,217.9,129.5)" />
<use xlink:href="#f6_dr" transform="matrix(14,0,0,14,232.6,129.5)" />
<use xlink:href="#f6_y" transform="matrix(14,0,0,14,237.8,129.5)" />
<use xlink:href="#f6_bs" transform="matrix(14,0,0,14,250.4,129.5)" />
<use xlink:href="#f6_cw" transform="matrix(14,0,0,14,265,129.4)" />
<use xlink:href="#f6_c3" transform="matrix(14,0,0,14,264.5,129.5)" />
<use xlink:href="#f6_d4" transform="matrix(14,0,0,14,279.3,129.5)" />
<use xlink:href="#f6_c7" transform="matrix(14,0,0,14,279.2,129.5)" />
<use xlink:href="#f6_ct" transform="matrix(14,0,0,14,291.2,129.5)" />
<use xlink:href="#f6_bt" transform="matrix(14,0,0,14,302.5,129.5)" />
<use xlink:href="#f6_bb" transform="matrix(14,0,0,14,314.2,129.5)" />
<use xlink:href="#f6_c1" transform="matrix(14,0,0,14,326.9,129.5)" />
<use xlink:href="#f6_cv" transform="matrix(14,0,0,14,335.2,129.5)" />
<use xlink:href="#f6_bz" transform="matrix(14,0,0,14,346.5,129.5)" />
<use xlink:href="#f6_oz" transform="matrix(14,0,0,14,360,129.5)" />
<use xlink:href="#f6_bz" transform="matrix(14,0,0,14,365.5,129.5)" />
<use xlink:href="#f6_ct" transform="matrix(14,0,0,14,378.9,129.5)" />
<use xlink:href="#f6_c1" transform="matrix(14,0,0,14,384.5,129.5)" />
<use xlink:href="#f6_d8" transform="matrix(14,0,0,14,392.9,129.5)" />
<use xlink:href="#f6_pc" transform="matrix(14,0,0,14,398.5,129.5)" />
<use xlink:href="#f6_pc" transform="matrix(14,0,0,14,402.8,129.5)" />
<use xlink:href="#f6_pc" transform="matrix(14,0,0,14,407,129.5)" />
<use xlink:href="#f6_pc" transform="matrix(14,0,0,14,411.3,129.5)" />
<use xlink:href="#f6_h" transform="matrix(14,0,0,14,415.6,129.5)" />
<use xlink:href="#f6_bs" transform="matrix(14,0,0,14,173.3,187.9)" />
<use xlink:href="#f6_cw" transform="matrix(14,0,0,14,187.9,187.8)" />
<use xlink:href="#f6_c3" transform="matrix(14,0,0,14,187.3,187.9)" />
<use xlink:href="#f6_d4" transform="matrix(14,0,0,14,202.2,187.9)" />
<use xlink:href="#f6_c7" transform="matrix(14,0,0,14,202,187.9)" />
<use xlink:href="#f6_ct" transform="matrix(14,0,0,14,214.1,187.9)" />
<use xlink:href="#f6_bt" transform="matrix(14,0,0,14,225.4,187.9)" />
<use xlink:href="#f6_bb" transform="matrix(14,0,0,14,237.1,187.9)" />
<use xlink:href="#f6_c1" transform="matrix(14,0,0,14,249.7,187.9)" />
<use xlink:href="#f6_cv" transform="matrix(14,0,0,14,258.1,187.9)" />
<use xlink:href="#f6_bz" transform="matrix(14,0,0,14,269.4,187.9)" />
<use xlink:href="#f6_oz" transform="matrix(14,0,0,14,282.9,187.9)" />
<use xlink:href="#f6_bz" transform="matrix(14,0,0,14,288.4,187.9)" />
<use xlink:href="#f6_ct" transform="matrix(14,0,0,14,301.7,187.9)" />
<use xlink:href="#f6_c1" transform="matrix(14,0,0,14,307.4,187.9)" />
<use xlink:href="#f6_d8" transform="matrix(14,0,0,14,315.7,187.9)" />
<use xlink:href="#f6_b9" transform="matrix(14,0,0,14,327,187.9)" />
<use xlink:href="#f6_d4" transform="matrix(14,0,0,14,338.2,187.9)" />
<use xlink:href="#f6_cb" transform="matrix(14,0,0,14,342.5,187.9)" />
<use xlink:href="#f6_c1" transform="matrix(14,0,0,14,357.4,187.9)" />
<use xlink:href="#f6_cv" transform="matrix(14,0,0,14,365.8,187.9)" />
<use xlink:href="#f6_c0" transform="matrix(14,0,0,14,371.4,187.9)" />
<use xlink:href="#f6_d8" transform="matrix(14,0,0,14,384,187.9)" />
<use xlink:href="#f6_cu" transform="matrix(14,0,0,14,395.2,187.9)" />
<use xlink:href="#f6_bx" transform="matrix(14,0,0,14,400.9,187.9)" />
<use xlink:href="#f6_c1" transform="matrix(14,0,0,14,413.2,187.9)" />
<use xlink:href="#f6_ct" transform="matrix(14,0,0,14,421.5,187.9)" />
<use xlink:href="#f6_bg" transform="matrix(14,0,0,14,427.2,187.9)" />
<use xlink:href="#f6_d4" transform="matrix(14,0,0,14,441.5,187.9)" />
<use xlink:href="#f6_k" transform="matrix(14,0,0,14,441.4,187.9)" />
<use xlink:href="#f6_an" transform="matrix(14,0,0,14,168.7,221.1)" />
<use xlink:href="#f6_bt" transform="matrix(14,0,0,14,180.2,221.1)" />
<use xlink:href="#f6_b9" transform="matrix(14,0,0,14,197.6,221.1)" />
<use xlink:href="#f6_ct" transform="matrix(14,0,0,14,213.1,221.1)" />
<use xlink:href="#f6_nu" transform="matrix(14,0,0,14,218.7,221.1)" />
<use xlink:href="#f6_c3" transform="matrix(14,0,0,14,224.4,221.1)" />
<use xlink:href="#f6_c0" transform="matrix(14,0,0,14,239.1,221.1)" />
<use xlink:href="#f6_ct" transform="matrix(14,0,0,14,251.6,221.1)" />
<use xlink:href="#f6_bx" transform="matrix(14,0,0,14,262.9,221.1)" />
<use xlink:href="#f6_ct" transform="matrix(14,0,0,14,275.2,221.1)" />
<use xlink:href="#f6_bx" transform="matrix(14,0,0,14,280.8,221.1)" />
<use xlink:href="#f6_ct" transform="matrix(14,0,0,14,293.1,221.1)" />
<use xlink:href="#f6_c1" transform="matrix(14,0,0,14,304.4,221.1)" />
<use xlink:href="#f6_d8" transform="matrix(14,0,0,14,312.8,221.1)" />
<use xlink:href="#f6_bv" transform="matrix(14,0,0,14,324.1,221.1)" />
<use xlink:href="#f6_c1" transform="matrix(14,0,0,14,335.9,221.1)" />
<use xlink:href="#f6_be" transform="matrix(14,0,0,14,344.3,221.1)" />
<use xlink:href="#f6_d8" transform="matrix(14,0,0,14,358.3,221.1)" />
<use xlink:href="#f6_by" transform="matrix(14,0,0,14,369.6,221.1)" />
<use xlink:href="#f6_ct" transform="matrix(14,0,0,14,383.5,221.1)" />
<use xlink:href="#f6_c1" transform="matrix(14,0,0,14,389.2,221.1)" />
<use xlink:href="#f6_cv" transform="matrix(14,0,0,14,397.5,221.1)" />
<use xlink:href="#f6_bg" transform="matrix(14,0,0,14,408.8,221.1)" />
<use xlink:href="#f6_cv" transform="matrix(14,0,0,14,423.1,221.1)" />
<use xlink:href="#f6_cc" transform="matrix(14,0,0,14,434.4,221.1)" />
<use xlink:href="#f6_d8" transform="matrix(14,0,0,14,446,221.1)" />
<use xlink:href="#f6_bc" transform="matrix(14,0,0,14,171,254.4)" />
<use xlink:href="#f6_bo" transform="matrix(14,0,0,14,184.9,254.4)" />
<use xlink:href="#f6_cv" transform="matrix(14,0,0,14,199.3,254.4)" />
<use xlink:href="#f6_bc" transform="matrix(14,0,0,14,210.6,254.4)" />
<use xlink:href="#f6_bo" transform="matrix(14,0,0,14,224.5,254.4)" />
<use xlink:href="#f6_cv" transform="matrix(14,0,0,14,238.8,254.4)" />
<use xlink:href="#f6_ba" transform="matrix(14,0,0,14,250.1,254.4)" />
<use xlink:href="#f6_lq" transform="matrix(14,0,0,14,266.8,254.4)" />
<use xlink:href="#f6_bz" transform="matrix(14,0,0,14,273.9,254.4)" />
<use xlink:href="#f6_ct" transform="matrix(14,0,0,14,287.3,254.4)" />
<use xlink:href="#f6_c1" transform="matrix(14,0,0,14,298.6,254.4)" />
<use xlink:href="#f6_d4" transform="matrix(14,0,0,14,306.5,254.4)" />
<use xlink:href="#f6_k" transform="matrix(14,0,0,14,306.9,254.4)" />
<use xlink:href="#f6_bs" transform="matrix(14,0,0,14,317.8,254.4)" />
<use xlink:href="#f6_cw" transform="matrix(14,0,0,14,332.4,254.3)" />
<use xlink:href="#f6_c3" transform="matrix(14,0,0,14,331.8,254.4)" />
<use xlink:href="#f6_d4" transform="matrix(14,0,0,14,346.7,254.4)" />
<use xlink:href="#f6_c7" transform="matrix(14,0,0,14,346.5,254.4)" />
<use xlink:href="#f6_ct" transform="matrix(14,0,0,14,358.6,254.4)" />
<use xlink:href="#f6_b9" transform="matrix(14,0,0,14,369.9,254.4)" />
<use xlink:href="#f6_d4" transform="matrix(14,0,0,14,381,254.4)" />
<use xlink:href="#f6_c1" transform="matrix(14,0,0,14,385.4,254.4)" />
<use xlink:href="#f6_ct" transform="matrix(14,0,0,14,393.8,254.4)" />
<use xlink:href="#f6_bt" transform="matrix(14,0,0,14,405.1,254.4)" />
<use xlink:href="#f6_ct" transform="matrix(14,0,0,14,416.8,254.4)" />
<use xlink:href="#f6_no" transform="matrix(14,0,0,14,422.4,254.4)" />
<use xlink:href="#f6_bq" transform="matrix(14,0,0,14,422.4,254.4)" />
<use xlink:href="#f6_c1" transform="matrix(14,0,0,14,441.3,254.4)" />
<use xlink:href="#f6_d4" transform="matrix(14,0,0,14,449.2,254.4)" />
<use xlink:href="#f6_bs" transform="matrix(14,0,0,14,231.8,287.6)" />
<use xlink:href="#f6_cw" transform="matrix(14,0,0,14,246.3,287.5)" />
<use xlink:href="#f6_c3" transform="matrix(14,0,0,14,245.8,287.6)" />
<use xlink:href="#f6_d4" transform="matrix(14,0,0,14,260.6,287.6)" />
<use xlink:href="#f6_c7" transform="matrix(14,0,0,14,260.5,287.6)" />
<use xlink:href="#f6_ct" transform="matrix(14,0,0,14,272.5,287.6)" />
<use xlink:href="#f6_bt" transform="matrix(14,0,0,14,283.8,287.6)" />
<use xlink:href="#f6_bb" transform="matrix(14,0,0,14,295.6,287.6)" />
<use xlink:href="#f6_c1" transform="matrix(14,0,0,14,308.2,287.6)" />
<use xlink:href="#f6_cv" transform="matrix(14,0,0,14,316.5,287.6)" />
<use xlink:href="#f6_bz" transform="matrix(14,0,0,14,327.8,287.6)" />
<use xlink:href="#f6_oz" transform="matrix(14,0,0,14,341.3,287.6)" />
<use xlink:href="#f6_8l" transform="matrix(14,0,0,14,341.2,287.6)" />
<use xlink:href="#f6_8l" transform="matrix(14,0,0,14,361,287.6)" />
<use xlink:href="#f6_pc" transform="matrix(14,0,0,14,380.8,287.6)" />
<use xlink:href="#f6_pc" transform="matrix(14,0,0,14,385.1,287.6)" />
<use xlink:href="#f6_ar" transform="matrix(14,0,0,14,188.2,346)" />
<use xlink:href="#f6_ca" transform="matrix(14,0,0,14,205.5,346)" />
<use xlink:href="#f6_by" transform="matrix(14,0,0,14,217.8,346)" />
<use xlink:href="#f6_br" transform="matrix(14,0,0,14,237.4,346)" />
<use xlink:href="#f6_d4" transform="matrix(14,0,0,14,248.7,346)" />
<use xlink:href="#f6_c7" transform="matrix(14,0,0,14,249.1,346)" />
<use xlink:href="#f6_bq" transform="matrix(14,0,0,14,266.8,346)" />
<use xlink:href="#f6_ct" transform="matrix(14,0,0,14,280,346)" />
<use xlink:href="#f6_c1" transform="matrix(14,0,0,14,285.7,346)" />
<use xlink:href="#f6_d8" transform="matrix(14,0,0,14,294,346)" />
<use xlink:href="#f6_bz" transform="matrix(14,0,0,14,305.3,346)" />
<use xlink:href="#f6_d8" transform="matrix(14,0,0,14,318.7,346)" />
<use xlink:href="#f6_bk" transform="matrix(14,0,0,14,324.3,346)" />
<use xlink:href="#f6_d8" transform="matrix(14,0,0,14,335.8,346)" />
<use xlink:href="#f6_bt" transform="matrix(14,0,0,14,347.1,346)" />
<use xlink:href="#f6_ct" transform="matrix(14,0,0,14,358.9,346)" />
<use xlink:href="#f6_bz" transform="matrix(14,0,0,14,364.5,346)" />
<use xlink:href="#f6_bb" transform="matrix(14,0,0,14,383.5,346)" />
<use xlink:href="#f6_c7" transform="matrix(14,0,0,14,396.1,346)" />
<use xlink:href="#f6_cv" transform="matrix(14,0,0,14,408.2,346)" />
<use xlink:href="#f6_bg" transform="matrix(14,0,0,14,413.8,346)" />
<use xlink:href="#f6_d4" transform="matrix(14,0,0,14,428.2,346)" />
<use xlink:href="#f6_k" transform="matrix(14,0,0,14,428,346)" />
<use xlink:href="#f6_an" transform="matrix(14,0,0,14,175.6,379.3)" />
<use xlink:href="#f6_bo" transform="matrix(14,0,0,14,187.1,379.3)" />
<use xlink:href="#f6_bz" transform="matrix(14,0,0,14,207.1,379.3)" />
<use xlink:href="#f6_d4" transform="matrix(14,0,0,14,220.6,379.3)" />
<use xlink:href="#f6_c7" transform="matrix(14,0,0,14,220.5,379.3)" />
<use xlink:href="#f6_ct" transform="matrix(14,0,0,14,232.6,379.3)" />
<use xlink:href="#f6_ch" transform="matrix(14,0,0,14,238.2,379.3)" />
<use xlink:href="#f6_cv" transform="matrix(14,0,0,14,250.9,379.3)" />
<use xlink:href="#f6_bs" transform="matrix(14,0,0,14,262.2,379.3)" />
<use xlink:href="#f6_c1" transform="matrix(14,0,0,14,276.2,379.3)" />
<use xlink:href="#f6_bp" transform="matrix(14,0,0,14,284.5,379.3)" />
<use xlink:href="#f6_cv" transform="matrix(14,0,0,14,296.8,379.3)" />
<use xlink:href="#f6_bz" transform="matrix(14,0,0,14,308.1,379.3)" />
<use xlink:href="#f6_oz" transform="matrix(14,0,0,14,321.6,379.3)" />
<use xlink:href="#f6_bm" transform="matrix(14,0,0,14,327.1,379.3)" />
<use xlink:href="#f6_d4" transform="matrix(14,0,0,14,339.7,379.3)" />
<use xlink:href="#f6_c1" transform="matrix(14,0,0,14,339.8,379.3)" />
<use xlink:href="#f6_d8" transform="matrix(14,0,0,14,348.2,379.3)" />
<use xlink:href="#f6_br" transform="matrix(14,0,0,14,359.5,379.3)" />
<use xlink:href="#f6_ob" transform="matrix(14,0,0,14,371.2,379.3)" />
<use xlink:href="#f6_nl" transform="matrix(14,0,0,14,376.8,379.3)" />
<use xlink:href="#f6_bs" transform="matrix(14,0,0,14,376.8,379.3)" />
<use xlink:href="#f6_d8" transform="matrix(14,0,0,14,390.8,379.3)" />
<use xlink:href="#f6_bg" transform="matrix(14,0,0,14,402.1,379.3)" />
<use xlink:href="#f6_cv" transform="matrix(14,0,0,14,416.3,379.3)" />
<use xlink:href="#f6_cc" transform="matrix(14,0,0,14,427.6,379.3)" />
<use xlink:href="#f6_d8" transform="matrix(14,0,0,14,439.2,379.3)" />
<use xlink:href="#f6_bc" transform="matrix(14,0,0,14,229.5,412.5)" />
<use xlink:href="#f6_bo" transform="matrix(14,0,0,14,243.4,412.5)" />
<use xlink:href="#f6_cv" transform="matrix(14,0,0,14,257.7,412.5)" />
<use xlink:href="#f6_bc" transform="matrix(14,0,0,14,269,412.5)" />
<use xlink:href="#f6_bo" transform="matrix(14,0,0,14,282.9,412.5)" />
<use xlink:href="#f6_cv" transform="matrix(14,0,0,14,297.3,412.5)" />
<use xlink:href="#f6_ba" transform="matrix(14,0,0,14,308.6,412.5)" />
<use xlink:href="#f6_lq" transform="matrix(14,0,0,14,325.3,412.5)" />
<use xlink:href="#f6_bz" transform="matrix(14,0,0,14,332.4,412.5)" />
<use xlink:href="#f6_ct" transform="matrix(14,0,0,14,345.7,412.5)" />
<use xlink:href="#f6_c1" transform="matrix(14,0,0,14,357,412.5)" />
<use xlink:href="#f6_d4" transform="matrix(14,0,0,14,365,412.5)" />
<use xlink:href="#f6_pc" transform="matrix(14,0,0,14,365.4,412.5)" />
<use xlink:href="#f6_pc" transform="matrix(14,0,0,14,369.7,412.5)" />
<use xlink:href="#f6_pc" transform="matrix(14,0,0,14,373.9,412.5)" />
<use xlink:href="#f6_pc" transform="matrix(14,0,0,14,378.2,412.5)" />
<use xlink:href="#f6_pc" transform="matrix(14,0,0,14,382.5,412.5)" />
<use xlink:href="#f6_pc" transform="matrix(14,0,0,14,386.8,412.5)" />
<use xlink:href="#f6_by" transform="matrix(14,0,0,14,210,470.9)" />
<use xlink:href="#f6_cv" transform="matrix(14,0,0,14,224,470.9)" />
<use xlink:href="#f6_c3" transform="matrix(14,0,0,14,229.6,470.9)" />
<use xlink:href="#f6_k" transform="matrix(14,0,0,14,244.3,470.9)" />
<use xlink:href="#f6_bb" transform="matrix(14,0,0,14,255.2,470.9)" />
<use xlink:href="#f6_c1" transform="matrix(14,0,0,14,267.8,470.9)" />
<use xlink:href="#f6_ct" transform="matrix(14,0,0,14,276.2,470.9)" />
<use xlink:href="#f6_nu" transform="matrix(14,0,0,14,281.8,470.9)" />
<use xlink:href="#f6_cb" transform="matrix(14,0,0,14,287.4,470.9)" />
<use xlink:href="#f6_c0" transform="matrix(14,0,0,14,302.3,470.9)" />
<use xlink:href="#f6_ct" transform="matrix(14,0,0,14,314.8,470.9)" />
<use xlink:href="#f6_bv" transform="matrix(14,0,0,14,326.1,470.9)" />
<use xlink:href="#f6_cx" transform="matrix(14,0,0,14,337.9,470.8)" />
<use xlink:href="#f6_bg" transform="matrix(14,0,0,14,338,470.9)" />
<use xlink:href="#f6_bt" transform="matrix(14,0,0,14,352.2,470.9)" />
<use xlink:href="#f6_b9" transform="matrix(14,0,0,14,369.6,470.9)" />
<use xlink:href="#f6_c1" transform="matrix(14,0,0,14,385.1,470.9)" />
<use xlink:href="#f6_bt" transform="matrix(14,0,0,14,393.5,470.9)" />
<use xlink:href="#f6_d4" transform="matrix(14,0,0,14,405.3,470.9)" />
<use xlink:href="#f6_k" transform="matrix(14,0,0,14,405.2,470.9)" />
<use xlink:href="#f6_bz" transform="matrix(14,0,0,14,119.5,504.2)" />
<use xlink:href="#f6_bt" transform="matrix(14,0,0,14,132.8,504.2)" />
<use xlink:href="#f6_bz" transform="matrix(14,0,0,14,150.2,504.2)" />
<use xlink:href="#f6_oz" transform="matrix(14,0,0,14,163.7,504.2)" />
<use xlink:href="#f6_bp" transform="matrix(14,0,0,14,169.2,504.2)" />
<use xlink:href="#f6_d8" transform="matrix(14,0,0,14,181.5,504.2)" />
<use xlink:href="#f6_bc" transform="matrix(14,0,0,14,192.8,504.2)" />
<use xlink:href="#f6_bo" transform="matrix(14,0,0,14,206.7,504.2)" />
<use xlink:href="#f6_ct" transform="matrix(14,0,0,14,221.1,504.2)" />
<use xlink:href="#f6_cc" transform="matrix(14,0,0,14,232.3,504.2)" />
<use xlink:href="#f6_ca" transform="matrix(14,0,0,14,243.9,504.2)" />
<use xlink:href="#f6_ct" transform="matrix(14,0,0,14,256.2,504.2)" />
<use xlink:href="#f6_dr" transform="matrix(14,0,0,14,262.4,504.2)" />
<use xlink:href="#f6_c7" transform="matrix(14,0,0,14,261.9,504.2)" />
<use xlink:href="#f6_d4" transform="matrix(14,0,0,14,274.1,504.2)" />
<use xlink:href="#f6_bg" transform="matrix(14,0,0,14,279.6,504.2)" />
<use xlink:href="#f6_cv" transform="matrix(14,0,0,14,293.9,504.2)" />
<use xlink:href="#f6_cc" transform="matrix(14,0,0,14,305.2,504.2)" />
<use xlink:href="#f6_d8" transform="matrix(14,0,0,14,316.8,504.2)" />
<use xlink:href="#f6_pc" transform="matrix(14,0,0,14,322.4,504.2)" />
<use xlink:href="#f6_pc" transform="matrix(14,0,0,14,326.7,504.2)" />
<use xlink:href="#f6_pc" transform="matrix(14,0,0,14,330.9,504.2)" />
<use xlink:href="#f6_bc" transform="matrix(14,0,0,14,340.9,504.2)" />
<use xlink:href="#f6_bo" transform="matrix(14,0,0,14,354.8,504.2)" />
<use xlink:href="#f6_cv" transform="matrix(14,0,0,14,369.1,504.2)" />
<use xlink:href="#f6_bc" transform="matrix(14,0,0,14,380.4,504.2)" />
<use xlink:href="#f6_bo" transform="matrix(14,0,0,14,394.3,504.2)" />
<use xlink:href="#f6_cv" transform="matrix(14,0,0,14,408.7,504.2)" />
<use xlink:href="#f6_ba" transform="matrix(14,0,0,14,420,504.2)" />
<use xlink:href="#f6_lq" transform="matrix(14,0,0,14,436.7,504.2)" />
<use xlink:href="#f6_bz" transform="matrix(14,0,0,14,443.8,504.2)" />
<use xlink:href="#f6_ct" transform="matrix(14,0,0,14,457.1,504.2)" />
<use xlink:href="#f6_c1" transform="matrix(14,0,0,14,468.4,504.2)" />
<use xlink:href="#f6_d4" transform="matrix(14,0,0,14,476.4,504.2)" />
<use xlink:href="#f6_pc" transform="matrix(14,0,0,14,476.8,504.2)" />
<use xlink:href="#f6_pc" transform="matrix(14,0,0,14,481.1,504.2)" />
<use xlink:href="#f6_pc" transform="matrix(14,0,0,14,485.3,504.2)" />
<use xlink:href="#f6_pc" transform="matrix(14,0,0,14,489.6,504.2)" />
<use xlink:href="#f6_pc" transform="matrix(14,0,0,14,493.9,504.2)" />
<use xlink:href="#f6_pc" transform="matrix(14,0,0,14,498.2,504.2)" />
<use xlink:href="#f6_bc" transform="matrix(14,0,0,14,173.3,562.6)" />
<use xlink:href="#f6_bo" transform="matrix(14,0,0,14,187.2,562.6)" />
<use xlink:href="#f6_cv" transform="matrix(14,0,0,14,201.6,562.6)" />
<use xlink:href="#f6_bc" transform="matrix(14,0,0,14,212.9,562.6)" />
<use xlink:href="#f6_bo" transform="matrix(14,0,0,14,226.8,562.6)" />
<use xlink:href="#f6_cv" transform="matrix(14,0,0,14,241.1,562.6)" />
<use xlink:href="#f6_ba" transform="matrix(14,0,0,14,252.4,562.6)" />
<use xlink:href="#f6_lq" transform="matrix(14,0,0,14,269.1,562.6)" />
<use xlink:href="#f6_bz" transform="matrix(14,0,0,14,276.2,562.6)" />
<use xlink:href="#f6_ct" transform="matrix(14,0,0,14,289.6,562.6)" />
<use xlink:href="#f6_bz" transform="matrix(14,0,0,14,300.9,562.6)" />
<use xlink:href="#f6_ct" transform="matrix(14,0,0,14,314.2,562.6)" />
<use xlink:href="#f6_c1" transform="matrix(14,0,0,14,319.8,562.6)" />
<use xlink:href="#f6_ct" transform="matrix(14,0,0,14,328.2,562.6)" />
<use xlink:href="#f6_k" transform="matrix(14,0,0,14,333.8,562.6)" />
<use xlink:href="#f6_bt" transform="matrix(14,0,0,14,344.7,562.6)" />
<use xlink:href="#f6_ct" transform="matrix(14,0,0,14,356.4,562.6)" />
<use xlink:href="#f6_no" transform="matrix(14,0,0,14,362,562.6)" />
<use xlink:href="#f6_bq" transform="matrix(14,0,0,14,362,562.6)" />
<use xlink:href="#f6_b9" transform="matrix(14,0,0,14,380.9,562.6)" />
<use xlink:href="#f6_d4" transform="matrix(14,0,0,14,392,562.6)" />
<use xlink:href="#f6_cb" transform="matrix(14,0,0,14,396.4,562.6)" />
<use xlink:href="#f6_nr" transform="matrix(14,0,0,14,411.3,562.6)" />
<use xlink:href="#f6_c1" transform="matrix(14,0,0,14,416.9,562.6)" />
<use xlink:href="#f6_c0" transform="matrix(14,0,0,14,425.3,562.6)" />
<use xlink:href="#f6_ct" transform="matrix(14,0,0,14,437.8,562.6)" />
<use xlink:href="#f6_k" transform="matrix(14,0,0,14,443.4,562.6)" />
<use xlink:href="#f6_cb" transform="matrix(14,0,0,14,175.6,595.8)" />
<use xlink:href="#f6_d8" transform="matrix(14,0,0,14,190.5,595.8)" />
<use xlink:href="#f6_bt" transform="matrix(14,0,0,14,196.1,595.8)" />
<use xlink:href="#f6_d4" transform="matrix(14,0,0,14,208,595.8)" />
<use xlink:href="#f6_c1" transform="matrix(14,0,0,14,213.5,595.8)" />
<use xlink:href="#f6_cv" transform="matrix(14,0,0,14,221.9,595.8)" />
<use xlink:href="#f6_bs" transform="matrix(14,0,0,14,233.2,595.8)" />
<use xlink:href="#f6_c1" transform="matrix(14,0,0,14,247.2,595.8)" />
<use xlink:href="#f6_bp" transform="matrix(14,0,0,14,255.5,595.8)" />
<use xlink:href="#f6_cv" transform="matrix(14,0,0,14,267.9,595.8)" />
<use xlink:href="#f6_bz" transform="matrix(14,0,0,14,279.1,595.8)" />
<use xlink:href="#f6_oz" transform="matrix(14,0,0,14,292.6,595.8)" />
<use xlink:href="#f6_c8" transform="matrix(14,0,0,14,298.1,595.8)" />
<use xlink:href="#f6_ct" transform="matrix(14,0,0,14,314,595.8)" />
<use xlink:href="#f6_cb" transform="matrix(14,0,0,14,319.6,595.8)" />
<use xlink:href="#f6_bt" transform="matrix(14,0,0,14,334.5,595.8)" />
<use xlink:href="#f6_k" transform="matrix(14,0,0,14,346.2,595.8)" />
<use xlink:href="#f6_bf" transform="matrix(14,0,0,14,357.1,595.8)" />
<use xlink:href="#f6_ct" transform="matrix(14,0,0,14,372.8,595.8)" />
<use xlink:href="#f6_c0" transform="matrix(14,0,0,14,378.4,595.8)" />
<use xlink:href="#f6_d8" transform="matrix(14,0,0,14,391,595.8)" />
<use xlink:href="#f6_bg" transform="matrix(14,0,0,14,402.3,595.8)" />
<use xlink:href="#f6_cv" transform="matrix(14,0,0,14,416.5,595.8)" />
<use xlink:href="#f6_cc" transform="matrix(14,0,0,14,427.8,595.8)" />
<use xlink:href="#f6_d8" transform="matrix(14,0,0,14,439.4,595.8)" />
<use xlink:href="#f6_bc" transform="matrix(14,0,0,14,229.5,629.1)" />
<use xlink:href="#f6_bo" transform="matrix(14,0,0,14,243.4,629.1)" />
<use xlink:href="#f6_cv" transform="matrix(14,0,0,14,257.7,629.1)" />
<use xlink:href="#f6_bc" transform="matrix(14,0,0,14,269,629.1)" />
<use xlink:href="#f6_bo" transform="matrix(14,0,0,14,282.9,629.1)" />
<use xlink:href="#f6_cv" transform="matrix(14,0,0,14,297.3,629.1)" />
<use xlink:href="#f6_ba" transform="matrix(14,0,0,14,308.6,629.1)" />
<use xlink:href="#f6_lq" transform="matrix(14,0,0,14,325.3,629.1)" />
<use xlink:href="#f6_bz" transform="matrix(14,0,0,14,332.4,629.1)" />
<use xlink:href="#f6_ct" transform="matrix(14,0,0,14,345.7,629.1)" />
<use xlink:href="#f6_c1" transform="matrix(14,0,0,14,357,629.1)" />
<use xlink:href="#f6_d4" transform="matrix(14,0,0,14,365,629.1)" />
<use xlink:href="#f6_pc" transform="matrix(14,0,0,14,365.4,629.1)" />
<use xlink:href="#f6_pc" transform="matrix(14,0,0,14,369.7,629.1)" />
<use xlink:href="#f6_pc" transform="matrix(14,0,0,14,373.9,629.1)" />
<use xlink:href="#f6_pc" transform="matrix(14,0,0,14,378.2,629.1)" />
<use xlink:href="#f6_pc" transform="matrix(14,0,0,14,382.5,629.1)" />
<use xlink:href="#f6_pc" transform="matrix(14,0,0,14,386.8,629.1)" />
<use xlink:href="#f6_b9" transform="matrix(14,0,0,14,197.4,687.5)" />
<use xlink:href="#f6_ct" transform="matrix(14,0,0,14,212.9,687.5)" />
<use xlink:href="#f6_c3" transform="matrix(14,0,0,14,218.5,687.5)" />
<use xlink:href="#f6_ct" transform="matrix(14,0,0,14,233.2,687.5)" />
<use xlink:href="#f6_c1" transform="matrix(14,0,0,14,244.5,687.5)" />
<use xlink:href="#f6_d4" transform="matrix(14,0,0,14,252.5,687.5)" />
<use xlink:href="#f6_bb" transform="matrix(14,0,0,14,258.5,687.5)" />
<use xlink:href="#f6_d8" transform="matrix(14,0,0,14,271.2,687.5)" />
<use xlink:href="#f6_c1" transform="matrix(14,0,0,14,276.8,687.5)" />
<use xlink:href="#f6_ct" transform="matrix(14,0,0,14,285.2,687.5)" />
<use xlink:href="#f6_br" transform="matrix(14,0,0,14,296.4,687.5)" />
<use xlink:href="#f6_d8" transform="matrix(14,0,0,14,308.1,687.5)" />
<use xlink:href="#f6_c0" transform="matrix(14,0,0,14,313.7,687.5)" />
<use xlink:href="#f6_by" transform="matrix(14,0,0,14,332,687.5)" />
<use xlink:href="#f6_d5" transform="matrix(14,0,0,14,346,687.5)" />
<use xlink:href="#f6_c1" transform="matrix(14,0,0,14,345.9,687.5)" />
<use xlink:href="#f6_c7" transform="matrix(14,0,0,14,354.3,687.5)" />
<use xlink:href="#f6_cu" transform="matrix(14,0,0,14,372,687.5)" />
<use xlink:href="#f6_bx" transform="matrix(14,0,0,14,377.7,687.5)" />
<use xlink:href="#f6_c1" transform="matrix(14,0,0,14,390,687.5)" />
<use xlink:href="#f6_ct" transform="matrix(14,0,0,14,398.3,687.5)" />
<use xlink:href="#f6_bg" transform="matrix(14,0,0,14,404,687.5)" />
<use xlink:href="#f6_d4" transform="matrix(14,0,0,14,418.3,687.5)" />
<use xlink:href="#f6_k" transform="matrix(14,0,0,14,418.2,687.5)" />
<use xlink:href="#f6_bx" transform="matrix(14,0,0,14,190.5,720.7)" />
<use xlink:href="#f6_bk" transform="matrix(14,0,0,14,202.8,720.7)" />
<use xlink:href="#f6_cw" transform="matrix(14,0,0,14,214.1,720.6)" />
<use xlink:href="#f6_b9" transform="matrix(14,0,0,14,214.4,720.7)" />
<use xlink:href="#f6_by" transform="matrix(14,0,0,14,235.5,720.7)" />
<use xlink:href="#f6_d5" transform="matrix(14,0,0,14,249.6,720.7)" />
<use xlink:href="#f6_c1" transform="matrix(14,0,0,14,249.5,720.7)" />
<use xlink:href="#f6_c7" transform="matrix(14,0,0,14,257.9,720.7)" />
<use xlink:href="#f6_b9" transform="matrix(14,0,0,14,275.6,720.7)" />
<use xlink:href="#f6_d8" transform="matrix(14,0,0,14,291.1,720.7)" />
<use xlink:href="#f6_bv" transform="matrix(14,0,0,14,302.4,720.7)" />
<use xlink:href="#f6_c1" transform="matrix(14,0,0,14,314.3,720.7)" />
<use xlink:href="#f6_be" transform="matrix(14,0,0,14,322.6,720.7)" />
<use xlink:href="#f6_d8" transform="matrix(14,0,0,14,336.6,720.7)" />
<use xlink:href="#f6_by" transform="matrix(14,0,0,14,347.9,720.7)" />
<use xlink:href="#f6_ct" transform="matrix(14,0,0,14,361.9,720.7)" />
<use xlink:href="#f6_c1" transform="matrix(14,0,0,14,367.5,720.7)" />
<use xlink:href="#f6_cv" transform="matrix(14,0,0,14,375.9,720.7)" />
<use xlink:href="#f6_bg" transform="matrix(14,0,0,14,387.2,720.7)" />
<use xlink:href="#f6_cv" transform="matrix(14,0,0,14,401.4,720.7)" />
<use xlink:href="#f6_cc" transform="matrix(14,0,0,14,412.7,720.7)" />
<use xlink:href="#f6_d8" transform="matrix(14,0,0,14,424.3,720.7)" />
<use xlink:href="#f6_bc" transform="matrix(14,0,0,14,229.5,754)" />
<use xlink:href="#f6_bo" transform="matrix(14,0,0,14,243.4,754)" />
<use xlink:href="#f6_cv" transform="matrix(14,0,0,14,257.7,754)" />
<use xlink:href="#f6_bc" transform="matrix(14,0,0,14,269,754)" />
<use xlink:href="#f6_bo" transform="matrix(14,0,0,14,282.9,754)" />
<use xlink:href="#f6_cv" transform="matrix(14,0,0,14,297.3,754)" />
<use xlink:href="#f6_ba" transform="matrix(14,0,0,14,308.6,754)" />
<use xlink:href="#f6_lq" transform="matrix(14,0,0,14,325.3,754)" />
<use xlink:href="#f6_bz" transform="matrix(14,0,0,14,332.4,754)" />
<use xlink:href="#f6_ct" transform="matrix(14,0,0,14,345.7,754)" />
<use xlink:href="#f6_c1" transform="matrix(14,0,0,14,357,754)" />
<use xlink:href="#f6_d4" transform="matrix(14,0,0,14,365,754)" />
<use xlink:href="#f6_pc" transform="matrix(14,0,0,14,365.4,754)" />
<use xlink:href="#f6_pc" transform="matrix(14,0,0,14,369.7,754)" />
<use xlink:href="#f6_pc" transform="matrix(14,0,0,14,373.9,754)" />
<use xlink:href="#f6_pc" transform="matrix(14,0,0,14,378.2,754)" />
<use xlink:href="#f6_pc" transform="matrix(14,0,0,14,382.5,754)" />
<use xlink:href="#f6_pc" transform="matrix(14,0,0,14,386.8,754)" />
<use xlink:href="#f7_4r" transform="matrix(9,0,0,9,290.2,795.2)" />
<use xlink:href="#f8_o" transform="matrix(9,0,0,9,303,795.2)" />
<use xlink:href="#f8_t" transform="matrix(9,0,0,9,310.7,795.2)" />
<use xlink:href="#f7_4r" transform="matrix(9,0,0,9,321.3,795.2)" />
</g>
</g>
<image preserveAspectRatio="none" x="22" y="801" width="581" height="86" xlink:href="img/1.png"/>
<path d="M275,97.4h72.2v1.1H275V97.4Z" class="g1_55"/>
<image preserveAspectRatio="none" x="202" y="14" width="217" height="26" xlink:href="img/2.png"/>
<defs>
<path d="M300,310c13,0,56,2,103,25c0,0,58,27,100,81V523c0,0,-46,16,-83,16c0,0,-69,0,-111,-45c0,0,-42,-45,-42,-104c0,0,0,-45,28,-80c0,0,2,0,5,0ZM677,-65L503,29V144c0,0,-32,-11,-75,-11c0,0,-147,0,-272,98c0,0,-125,99,-125,233c0,0,0,110,75,185c0,0,76,74,195,74l67,-6L503,646V822H0L-86,937l32,64H1245l86,-115l-32,-64H645L747,749V622c0,0,81,58,165,58c0,0,122,0,213,-99c0,0,91,-98,91,-230c0,0,0,-204,-253,-371L791,157c0,0,110,83,164,139c0,0,53,55,53,106c0,0,0,55,-53,55c0,0,-83,0,-208,-145V-31L677,-65Z"
id="f5_b9"
transform="scale(0.001,-0.001)"/>

<path d="M-289,908l-132,216c0,0,-70,120,-169,120c0,0,-83,0,-200,-80l-130,249c0,0,125,78,234,78c0,0,187,0,349,-241L-159,969L-289,908Z"
id="f5_d4"
transform="scale(0.001,-0.001)"/>

<path d="M833,530V822H434L539,749V530ZM533,-97L23,405L75,542H284c0,0,2,5,2,280H-10L-97,937l32,64H1193l86,-115l-32,-64H975l102,-73V-31l-70,-34L833,29V333H405L370,309L697,110V41L533,-97Z"
id="f5_cb"
transform="scale(0.001,-0.001)"/>

<path d="M545,-97L35,405L87,542H295c0,0,1,5,1,280H0L-86,937l32,64H729L814,886L782,822H445L550,749V547c0,0,0,-75,-41,-127c0,0,-41,-52,-129,-111L709,110V41L545,-97Z"
id="f5_c1"
transform="scale(0.001,-0.001)"/>

<path d="M277,-65L102,29V822H0L-86,937l32,64H110c0,0,-50,142,-110,226c0,0,-60,84,-149,84c0,0,-59,0,-97,-37c0,0,-39,-36,-39,-91c0,0,0,-57,42,-115l-95,-50c0,0,-145,116,-145,267c0,0,0,108,75,179c0,0,76,70,195,70c0,0,179,0,297,-150c0,0,119,-150,189,-383H463L548,886L516,822H244L347,749V-31L277,-65Z"
id="f5_cv"
transform="scale(0.001,-0.001)"/>

<path d="M368,290c0,0,83,0,161,44c0,0,78,43,116,117V822H382c0,0,136,-107,136,-225c0,0,0,-74,-55,-131c0,0,-55,-57,-165,-83c0,0,15,-48,44,-91l26,-2ZM819,-65L645,29V139c0,0,-60,-31,-130,-31c0,0,-145,0,-279,109c0,0,-134,108,-208,287l29,78c0,0,128,15,181,43c0,0,54,27,54,73c0,0,0,61,-96,124H0L-86,937l32,64H1004l87,-115l-32,-64H787L889,749V-31L819,-65Z"
id="f5_c0"
transform="scale(0.001,-0.001)"/>

<path d="M277,-65L102,29V822H0L-86,937l32,64H86L18,1111c0,0,-67,122,-168,122c0,0,-81,0,-202,-80l-128,250c0,0,122,77,232,77c0,0,196,0,356,-250L252,1001H463L548,886L516,822H244L347,749V-31L277,-65Z"
id="f5_d8"
transform="scale(0.001,-0.001)"/>

<path d="M290,-236c0,0,-253,348,-253,685c0,0,0,342,270,669l80,-39c0,0,-207,-311,-207,-622c0,0,0,-326,193,-652l-83,-41Z"
id="f6_g"
transform="scale(0.001,-0.001)"/>

<path d="M347,-57C347,-57,66,211,66,394c0,0,0,98,74,164c0,0,74,65,225,65H616V822H0l-45,76l14,31H880l46,-76L912,822H677l66,-58V-39L706,-49L616,8V500H428c0,0,-239,0,-239,-161c0,0,0,-136,214,-343L347,-57Z"
id="f6_bp"
transform="scale(0.001,-0.001)"/>

<path d="M845,-49L755,8V513H497c0,0,61,-45,93,-110c0,0,33,-64,33,-128c0,0,0,-90,-58,-144c0,0,-59,-53,-143,-53c0,0,-133,0,-234,139C188,217,87,356,20,596l76,24c0,0,60,-201,127,-306c0,0,67,-105,160,-105c0,0,57,0,91,36c0,0,33,36,33,91c0,0,0,84,-73,159L295,558v71H755V822H0l-45,76l14,31H1019l46,-76l-14,-31H816l66,-58V-39L845,-49Z"
id="f6_bg"
transform="scale(0.001,-0.001)"/>

<path d="M-239,897c0,0,-82,61,-132,137c0,0,-50,75,-50,150c0,0,0,78,52,133c0,0,52,55,141,55c0,0,98,0,176,-64l-23,-69c0,0,-52,32,-104,32c0,0,-57,0,-95,-36c0,0,-38,-36,-38,-95c0,0,0,-115,117,-217l-44,-26Z"
id="f6_dr"
transform="scale(0.001,-0.001)"/>

<path d="M254,-30c0,0,-84,17,-116,93c0,0,13,84,97,126c0,0,100,-35,112,-110C347,79,324,3,254,-30Zm0,468c0,0,-84,17,-116,94c0,0,13,84,97,126c0,0,100,-35,112,-110c0,0,-23,-76,-93,-110Z"
id="f6_y"
transform="scale(0.001,-0.001)"/>

<path d="M827,-49L736,8V205c0,0,-84,-84,-209,-84c0,0,-130,0,-237,91c0,0,-108,92,-108,196c0,0,0,79,61,137C243,545,66,672,66,791c0,0,0,75,52,124c0,0,53,49,134,49c0,0,164,0,260,-237L451,694c0,0,-55,114,-119,163l-31,5c0,0,-44,0,-77,-32c0,0,-33,-31,-33,-78c0,0,0,-86,113,-165c0,0,60,27,133,27l67,-4l75,-89L564,490l-51,7H493c0,0,-90,0,-142,-43c0,0,-52,-43,-52,-104c0,0,0,-60,51,-109c0,0,33,-16,84,-16c0,0,89,0,177,47c0,0,89,47,125,137V822H567l-46,76l14,31h466l46,-76l-14,-31H798l65,-58V-39L827,-49Z"
id="f6_bs"
transform="scale(0.001,-0.001)"/>

<path d="M-234,-413c0,0,-210,0,-488,322l54,49c0,0,119,-128,209,-193c0,0,90,-65,177,-65c0,0,72,0,113,40c0,0,42,39,42,91c0,0,0,75,-78,106L-323,-181l-90,98c0,0,63,95,167,95c0,0,90,0,155,-69c0,0,66,-70,66,-164c0,0,0,-85,-60,-139c0,0,-61,-53,-149,-53Z"
id="f6_cw"
transform="scale(0.001,-0.001)"/>

<path d="M413,-59C413,-59,53,193,53,416c0,0,0,97,66,164c0,0,66,66,156,66c0,0,61,0,110,-30L487,507c0,0,92,126,257,126l35,-2V822H0l-45,76l14,31H1043l46,-76l-13,-31H840l66,-58V-39L869,-49L779,8V547c0,0,-101,-5,-165,-90c0,0,-64,-86,-70,-222L507,225l-90,73c0,0,5,79,35,151c0,0,-59,66,-128,66c0,0,-57,0,-100,-38c0,0,-44,-39,-44,-109c0,0,0,-165,284,-360L413,-59Z"
id="f6_c3"
transform="scale(0.001,-0.001)"/>

<path d="M-214,863l-199,281c0,0,-70,92,-157,92c0,0,-69,0,-159,-58l-72,118c0,0,89,73,180,73c0,0,141,0,258,-170L-155,901l-59,-38Z"
id="f6_d4"
transform="scale(0.001,-0.001)"/>

<path d="M325,240c0,0,77,0,154,35c0,0,77,35,120,99V500c0,0,-118,73,-222,73c0,0,-97,0,-151,-54c0,0,-53,-53,-53,-128c0,0,0,-73,49,-125c0,0,38,-26,103,-26ZM689,-49L599,8V199c0,0,-73,-65,-179,-65c0,0,-134,0,-252,96c0,0,-118,95,-118,221c0,0,0,102,78,171c0,0,78,69,190,69c0,0,38,0,75,-10L599,582V822H0l-45,76l14,31H863l46,-76L895,822H660l66,-58V-39L689,-49Z"
id="f6_c7"
transform="scale(0.001,-0.001)"/>

<path d="M228,-49L138,8V822H0l-45,76l14,31H402l46,-76L434,822H199l65,-58V-39L228,-49Z"
id="f6_ct"
transform="scale(0.001,-0.001)"/>

<path d="M663,-49L573,8V445H299V280L226,251c0,0,-105,99,-162,238l63,72H573V822H0l-45,76l14,31H837l46,-76L869,822H634l66,-58V-39L663,-49Z"
id="f6_bt"
transform="scale(0.001,-0.001)"/>

<path d="M727,-49L637,8V822H278l66,-58V226L270,196c0,0,-64,36,-122,98c0,0,-58,62,-79,122l43,59H217V822H0l-45,76l14,31H901l46,-76L933,822H698l66,-58V-39L727,-49Z"
id="f6_bb"
transform="scale(0.001,-0.001)"/>

<path d="M527,-71L52,414l34,92H277c0,0,12,32,12,72V822H0l-45,76l14,31H599l46,-76L631,822H350l66,-55V564c0,0,0,-96,-152,-248L610,34L611,8L527,-71Z"
id="f6_c1"
transform="scale(0.001,-0.001)"/>

<path d="M228,-49L138,8V822H0l-45,76l14,31H138c0,0,-109,342,-284,342c0,0,-62,0,-102,-40c0,0,-40,-39,-40,-93c0,0,0,-61,51,-134l-42,-32c0,0,-128,113,-128,226c0,0,0,79,60,136c0,0,61,56,154,56c0,0,137,0,249,-125c0,0,112,-125,169,-336H402l46,-76L434,822H199l65,-58V-39L228,-49Z"
id="f6_cv"
transform="scale(0.001,-0.001)"/>

<path d="M689,445V822H286l65,-58l8,-319ZM779,-49L689,8V328H370V180L296,150c0,0,-56,35,-120,104c0,0,-63,70,-89,131l41,60H238L223,822H0l-45,76l14,31H953l46,-76L985,822H750l66,-58V-39L779,-49Z"
id="f6_bz"
transform="scale(0.001,-0.001)"/>

<path d="M-91,1001c0,0,-27,10,-61,36c0,0,-33,26,-50,49c0,0,38,81,90,110c0,0,61,-23,107,-85c0,0,-28,-71,-86,-110ZM-214,863l-199,281c0,0,-70,92,-157,92c0,0,-69,0,-159,-58l-72,118c0,0,89,73,180,73c0,0,141,0,258,-170L-155,901l-59,-38Z"
id="f6_oz"
transform="scale(0.001,-0.001)"/>

<path d="M228,-49L138,8V822H0l-45,76l14,31H119L-33,1144c0,0,-70,92,-157,92c0,0,-69,0,-159,-58l-72,118c0,0,89,73,181,73c0,0,140,0,257,-170L205,929H402l46,-76L434,822H199l65,-58V-39L228,-49Z"
id="f6_d8"
transform="scale(0.001,-0.001)"/>

<path d="M226,-49c0,0,-66,24,-102,78c0,0,32,69,82,101c0,0,55,-20,100,-80c0,0,-26,-66,-80,-99Z"
id="f6_pc"
transform="scale(0.001,-0.001)"/>

<path d="M130,-236l-83,41c0,0,193,326,193,652c0,0,0,311,-206,622l79,39c0,0,270,-327,270,-669c0,0,0,-337,-253,-685Z"
id="f6_h"
transform="scale(0.001,-0.001)"/>

<path d="M283,260c0,0,122,0,209,113V513c0,0,-90,51,-160,51c0,0,-80,0,-129,-50c0,0,-49,-50,-49,-118c0,0,0,-60,35,-110c0,0,45,-26,94,-26ZM582,-49L492,8V211c0,0,-63,-54,-141,-54c0,0,-113,0,-213,92c0,0,-100,92,-100,205c0,0,0,93,69,157c0,0,69,64,162,64c0,0,32,0,64,-9L492,590V822H0l-45,76l14,31H1108l45,-76l-13,-31H553l66,-58V524c0,0,91,89,192,89c0,0,98,0,171,-79c0,0,72,-79,72,-186c0,0,0,-178,-224,-330L736,124c0,0,219,153,219,269c0,0,0,44,-26,75c0,0,-26,32,-81,32c0,0,-109,0,-229,-155V-39L582,-49Z"
id="f6_b9"
transform="scale(0.001,-0.001)"/>

<path d="M799,475V822H350l66,-55V564c0,0,0,-43,-25,-89ZM527,-71L52,414l34,92H277c0,0,12,32,12,72V822H0l-45,76l14,31H1063l46,-76l-14,-31H860l66,-58V-39L889,-49L799,8V370H315L264,316L610,34L611,8L527,-71Z"
id="f6_cb"
transform="scale(0.001,-0.001)"/>

<path d="M374,248c0,0,77,0,149,36c0,0,71,37,110,107V822H284c0,0,138,-96,138,-208c0,0,0,-151,-228,-192c0,0,29,-104,89,-158c0,0,41,-16,91,-16ZM723,-49L633,8V200c0,0,-69,-56,-170,-56c0,0,-122,0,-240,94c0,0,-118,94,-179,237l20,55c0,0,133,17,187,44c0,0,55,28,55,84c0,0,0,45,-30,81c0,0,-30,36,-99,83H0l-45,76l14,31H897l46,-76L929,822H694l65,-58V-39L723,-49Z"
id="f6_c0"
transform="scale(0.001,-0.001)"/>

<path d="M228,-49L138,8V822H0l-45,76l14,31H134c0,0,-91,92,-91,191c0,0,0,105,85,170c0,0,84,65,219,65c0,0,128,0,293,-76c0,0,165,-77,362,-263L958,966c0,0,-177,143,-303,210c0,0,-125,68,-244,68c0,0,-107,0,-175,-50c0,0,-68,-50,-68,-131c0,0,0,-61,49,-134H402l46,-76L434,822H199l65,-58V-39L228,-49Z"
id="f6_cu"
transform="scale(0.001,-0.001)"/>

<path d="M348,229c0,0,57,0,106,17L263,559c0,0,-95,-50,-95,-162c0,0,0,-75,52,-136c0,0,49,-32,128,-32Zm170,48c0,0,61,38,96,91V504c0,0,-131,80,-244,80l-35,-2L518,277ZM704,-49L614,8V193c0,0,-84,-65,-192,-65c0,0,-139,0,-255,98c0,0,-115,98,-115,226c0,0,0,106,77,175c0,0,77,70,189,70c0,0,38,0,75,-9L614,578V822H0l-45,76l14,31H878l46,-76L911,822H675l66,-58V-39L704,-49Z"
id="f6_bx"
transform="scale(0.001,-0.001)"/>

<path d="M108,-222l-44,58c0,0,96,81,104,164L89,61c0,0,12,83,93,122c0,0,50,-15,79,-55c0,0,29,-39,29,-90c0,0,0,-69,-48,-142c0,0,-48,-72,-134,-118Z"
id="f6_k"
transform="scale(0.001,-0.001)"/>

<path d="M483,-305L295,-10c0,0,-90,22,-156,74l41,170h66L351,63c0,0,126,4,207,62c0,0,82,58,82,139c0,0,0,37,-18,71L365,266c0,0,-110,15,-197,102c0,0,-87,87,-87,176c0,0,0,69,59,117c0,0,59,48,172,48H550V822H0l-45,76l14,31H822l46,-76L854,822H603l66,-58V585H373c0,0,-184,0,-184,-99c0,0,0,-48,63,-101l310,78c0,0,86,-34,141,-99c0,0,55,-65,55,-142c0,0,0,-109,-98,-179c0,0,-98,-69,-254,-69L599,-216L483,-305Z"
id="f6_an"
transform="scale(0.001,-0.001)"/>

<path d="M228,-49L138,8V822H0l-45,76l14,31H134c0,0,-91,93,-91,200c0,0,0,109,92,174c0,0,93,66,253,66c0,0,186,0,398,-89c0,0,212,-90,430,-264l-49,-47c0,0,-424,285,-727,285c0,0,-125,0,-201,-49c0,0,-76,-48,-76,-137c0,0,0,-67,52,-139H402l46,-76L434,822H199l65,-58V-39L228,-49Z"
id="f6_nu"
transform="scale(0.001,-0.001)"/>

<path d="M388,325c0,0,58,0,112,31c0,0,53,31,84,86V822H165l69,-58V408c0,0,47,-83,154,-83ZM674,-49L584,8V257c0,0,-61,-51,-141,-51c0,0,-125,0,-232,109c0,0,-107,108,-107,243V822H0l-45,76l14,31H848l46,-76L880,822H645l65,-58V-39L674,-49Z"
id="f6_bv"
transform="scale(0.001,-0.001)"/>

<path d="M825,-49L735,8V217c0,0,-86,-72,-197,-72c0,0,-130,0,-238,91c0,0,-107,91,-107,204c0,0,0,55,27,105H55L12,616l14,30H574l46,-76L607,539H396c0,0,-78,-49,-78,-162c0,0,0,-70,40,-111c0,0,39,-15,94,-15c0,0,84,0,163,41c0,0,79,41,120,121V822H0l-45,76l14,31H999l46,-76l-14,-31H796l66,-58V-39L825,-49Z"
id="f6_be"
transform="scale(0.001,-0.001)"/>

<path d="M823,-49L733,8V339H445V191L371,160c0,0,-56,36,-120,105c0,0,-63,70,-89,131l41,59H313V735c0,0,0,99,-55,140c0,0,-3,1,-8,1c-16,0,-48,-3,-71,-23c0,0,-31,-26,-31,-66c0,0,0,-69,81,-113L189,620C189,620,31,720,31,828c0,0,0,61,45,99c0,0,46,37,109,37c0,0,96,0,173,-86c0,0,76,-87,79,-194V455H733V822H556l-46,76l14,31H998l45,-76l-13,-31H794l66,-58V-39L823,-49Z"
id="f6_by"
transform="scale(0.001,-0.001)"/>

<path d="M688,-243c0,0,-256,53,-408,173c0,0,-152,119,-152,270c0,0,0,101,68,171c0,0,-101,84,-101,179c0,0,0,64,53,112c0,0,54,47,191,47H587V822H0l-45,76l14,31H830l45,-76L862,822H640l66,-58V585H362c0,0,-159,-1,-159,-92c0,0,0,-41,46,-80c0,0,76,47,183,47c0,0,135,0,230,-76c0,0,96,-75,96,-187C758,197,758,67,629,2L545,104c0,0,49,30,81,75c0,0,32,44,32,82c0,0,0,16,-4,26c0,0,-64,58,-167,58c0,0,-97,0,-166,-50v-2c0,0,-67,-52,-67,-131c0,0,0,-116,132,-199c0,0,132,-84,334,-132l-32,-74Z"
id="f6_cc"
transform="scale(0.001,-0.001)"/>

<path d="M434,225c0,0,84,0,169,42c0,0,85,43,126,126V822H267c0,0,-64,-49,-64,-115c0,0,0,-79,90,-126c0,0,60,35,144,35l67,-6l75,-89L564,490l-51,7H493c0,0,-90,0,-142,-43c0,0,-52,-43,-52,-104c0,0,0,-60,51,-109c0,0,33,-16,84,-16ZM819,-49L729,8V197c0,0,-83,-76,-202,-76c0,0,-130,0,-237,91c0,0,-108,92,-108,196c0,0,0,72,53,128c0,0,-75,42,-115,97c0,0,-41,56,-41,113c0,0,0,38,22,76H0l-45,76l14,31H993l46,-76l-14,-31H790l66,-58V-39L819,-49Z"
id="f6_bc"
transform="scale(0.001,-0.001)"/>

<path d="M342,324c0,0,45,0,75,34c0,0,31,33,31,100V822H165l66,-58V390c0,0,32,-66,111,-66ZM853,-49L762,8V822H509l65,-58V455c0,0,0,-134,-51,-185c0,0,-52,-52,-127,-52c0,0,-98,0,-195,99c0,0,-97,99,-97,209V822H0l-45,76l14,31H1027l46,-76l-14,-31H823l66,-58V-39L853,-49Z"
id="f6_bo"
transform="scale(0.001,-0.001)"/>

<path d="M761,293c0,0,127,0,169,94V532c0,0,-68,46,-145,46c0,0,-76,0,-121,-46c0,0,-45,-45,-45,-107c0,0,0,-61,44,-110c0,0,47,-22,98,-22ZM657,67c0,0,166,0,273,107v55c0,0,-45,-36,-111,-36c0,0,-110,0,-207,90c0,0,-97,90,-97,194c0,0,0,85,66,148c0,0,65,63,155,63l48,-5L930,603V822H376l62,-55V579c0,0,0,-60,-23,-102c0,0,-24,-42,-148,-190c0,0,66,-104,175,-162c0,0,108,-58,215,-58ZM1021,-49L930,8V53c0,0,-105,-83,-264,-83c0,0,-177,0,-339,128C327,98,165,226,90,429l34,77H296c0,0,19,39,19,102l-2,214H0l-45,76l14,31H1195l46,-76l-14,-31H992l65,-58V-39l-36,-10Z"
id="f6_ba"
transform="scale(0.001,-0.001)"/>

<path d="M266,150c0,0,-57,35,-120,104c0,0,-63,70,-89,131l41,60H211L194,822H0l-45,76l14,31H587l46,-76L619,822H255l66,-58l7,-319H688L721,328H339V180L266,150Z"
id="f6_lq"
transform="scale(0.001,-0.001)"/>

<path d="M0,822l-45,76l14,31H61l46,-76L93,822Z"
id="f6_no"
transform="scale(0.001,-0.001)"/>

<path d="M768,-49L678,8V202c0,0,-73,-58,-172,-58c0,0,-123,0,-240,94c0,0,-118,94,-179,237l20,55c0,0,134,12,215,70c0,0,81,57,81,141c0,0,0,90,-67,134l-26,3c0,0,-46,0,-74,-29c0,0,-28,-30,-28,-68c0,0,0,-55,82,-109L252,620C252,620,93,720,93,820c0,0,0,65,47,104c0,0,46,40,114,40c0,0,99,0,179,-83c0,0,80,-83,82,-197c0,0,0,-93,-79,-165c0,0,-78,-73,-199,-97c0,0,29,-104,88,-158c0,0,42,-16,92,-16c0,0,78,0,151,38c0,0,74,38,110,111V822H553l-46,76l14,31H943l45,-76L975,822H739l66,-58V-39L768,-49Z"
id="f6_bq"
transform="scale(0.001,-0.001)"/>

<path d="M254,-26c0,0,-84,16,-116,92c0,0,13,84,97,127c0,0,100,-36,112,-110C347,83,324,6,254,-26Zm458,0c0,0,-84,16,-116,92c0,0,14,84,98,127c0,0,99,-37,111,-110C805,83,782,6,712,-26Zm458,0c0,0,-84,16,-116,92c0,0,14,84,98,127c0,0,99,-36,111,-110c0,0,-22,-77,-93,-109Z"
id="f6_8l"
transform="scale(0.001,-0.001)"/>

<path d="M710,-49L620,8V335L270,81l-91,81L555,425l-81,76c0,0,-80,70,-133,70c0,0,-81,0,-194,-96L61,584c0,0,109,105,223,105c0,0,103,0,213,-107L620,457V822H23l-45,76l14,31H1236l46,-76l-14,-31H681l66,-58V414c0,0,55,-37,116,-37c0,0,90,0,135,65L901,559l29,52l143,-4c0,0,19,-36,19,-84c0,0,0,-37,-12,-71c0,0,112,-140,112,-234c0,0,0,-65,-48,-124c0,0,-47,-59,-136,-79L947,95l11,33c0,0,130,35,130,139c0,0,0,55,-41,113c0,0,-77,-93,-204,-93c0,0,-50,0,-96,19V-39L710,-49Z"
id="f6_ar"
transform="scale(0.001,-0.001)"/>

<path d="M413,313c0,0,91,0,145,58L231,782V408c0,0,47,-95,182,-95ZM603,438l11,28V822H295L603,438ZM704,-49L614,8V254c0,0,-61,-57,-151,-57c0,0,-138,0,-248,110c0,0,-111,110,-111,252V822H0l-45,76l14,31H878l46,-76L911,822H675l66,-58V-39L704,-49Z"
id="f6_ca"
transform="scale(0.001,-0.001)"/>

<path d="M675,-274L602,21C602,21,550,3,498,3C498,3,347,3,210,118C210,118,73,232,73,373c0,0,0,113,84,184c0,0,84,71,222,72H524V822H0l-45,76l14,31H834l46,-76L866,822H585l66,-58V504l-3,2l3,-3H408c0,0,-95,0,-154,-53c0,0,-58,-53,-58,-132c0,0,0,-49,27,-100c0,0,28,-50,83,-84c0,0,44,-15,96,-15c0,0,91,0,160,46L535,303l101,48L773,188c0,0,-8,-28,-34,-66c0,0,-27,-38,-62,-64L813,-221L675,-274Z"
id="f6_br"
transform="scale(0.001,-0.001)"/>

<path d="M487,-7c0,0,-88,0,-185,46c0,0,-97,47,-163,130c0,0,-66,83,-66,185c0,0,0,109,80,177c0,0,79,68,234,68H504V822H0l-45,76l14,31H827l45,-76L859,822H565l66,-58V474l-3,1l3,-3H396c0,0,-100,0,-152,-47c0,0,-53,-48,-53,-119c0,0,0,-104,93,-178c0,0,60,-20,118,-20c0,0,81,0,156,36c0,0,76,35,123,99l92,-99C773,144,723,70,645,31C645,31,567,-7,487,-7Z"
id="f6_bk"
transform="scale(0.001,-0.001)"/>

<path d="M547,-285c0,0,-66,25,-102,80c0,0,32,69,82,101c0,0,55,-20,99,-80c0,0,-26,-67,-79,-101Zm1,228c0,0,-122,0,-243,81c0,0,-122,81,-252,280l57,41C110,345,283,64,498,64c0,0,92,0,153,49c0,0,61,49,61,121c0,0,0,46,-28,84L440,237c0,0,-73,11,-139,55c0,0,-66,44,-105,105c0,0,-40,61,-40,119c0,0,0,72,62,125c0,0,62,53,184,53H625V822H0l-45,76l14,31H906l46,-76L938,822H678l66,-58V562H431c0,0,-164,0,-164,-99c0,0,0,-55,57,-102l261,82c0,0,104,-21,172,-98c0,0,68,-78,68,-171c0,0,0,-99,-76,-166c0,0,-77,-65,-201,-65Z"
id="f6_ch"
transform="scale(0.001,-0.001)"/>

<path d="M548,-57c0,0,-122,0,-243,81c0,0,-122,81,-252,280l57,41C110,345,283,64,498,64c0,0,92,0,153,49c0,0,61,49,61,121c0,0,0,46,-28,84L440,237c0,0,-73,11,-139,55c0,0,-66,44,-105,105c0,0,-40,61,-40,119c0,0,0,72,62,125c0,0,62,53,184,53H625V822H0l-45,76l14,31H906l46,-76L938,822H678l66,-58V562H431c0,0,-164,0,-164,-99c0,0,0,-55,57,-102l261,82c0,0,104,-21,172,-98c0,0,68,-78,68,-171c0,0,0,-99,-76,-166c0,0,-77,-65,-201,-65Z"
id="f6_bm"
transform="scale(0.001,-0.001)"/>

<path d="M228,-49L138,8V822H0l-45,76l14,31H136c0,0,-173,353,-364,353c0,0,-75,0,-119,-44c0,0,-45,-45,-45,-106c0,0,0,-69,48,-128l-43,-32c0,0,-124,113,-124,224c0,0,0,87,67,146c0,0,68,59,167,59c0,0,150,0,283,-130c0,0,135,-130,219,-342H402l46,-76L434,822H199l65,-58V-39L228,-49Z"
id="f6_ob"
transform="scale(0.001,-0.001)"/>

<path d="M0,822l-45,76l14,31H38L84,853L70,822Z"
id="f6_nl"
transform="scale(0.001,-0.001)"/>

<path d="M108,-433L-59,-214c0,0,-99,119,-191,119c0,0,-59,0,-96,-35c0,0,-36,-34,-36,-81c0,0,0,-49,42,-83l152,95l64,-116c0,0,-71,-58,-148,-58c0,0,-80,0,-146,63c0,0,-65,64,-65,144c0,0,0,77,62,131c0,0,61,53,142,53c0,0,138,0,296,-205L165,-393l-57,-40Z"
id="f6_cx"
transform="scale(0.001,-0.001)"/>

<path d="M228,-49L138,8V822H0l-45,76l14,31H133c0,0,-93,95,-93,206c0,0,0,96,68,159c0,0,68,63,179,63c0,0,118,0,228,-81c0,0,110,-80,258,-262L720,970L588,1109c0,0,-133,133,-253,133c0,0,-78,0,-127,-46c0,0,-49,-46,-49,-119c0,0,0,-69,56,-148H402l46,-76L434,822H199l65,-58V-39L228,-49Z"
id="f6_nr"
transform="scale(0.001,-0.001)"/>

<path d="M513,460c0,0,61,81,61,179c0,0,0,87,-45,143c0,0,-45,57,-116,57c0,0,-63,0,-102,-43c0,0,-39,-43,-39,-110c0,0,0,-90,68,-151c0,0,68,-61,173,-75ZM581,-83L278,167l-41,-4c0,0,-99,0,-130,37l47,168l51,12l78,-79c0,0,110,40,183,105c0,0,-141,23,-231,107c0,0,-90,84,-90,193c0,0,0,69,37,116H0l-45,76l14,31H1134l45,-76l-13,-31H930l66,-58V-39L959,-49L869,8V822H588c0,0,51,-44,75,-109c0,0,25,-64,25,-122c0,0,0,-105,-81,-213c0,0,-80,-108,-240,-176L658,18l2,-25L581,-83Z"
id="f6_c8"
transform="scale(0.001,-0.001)"/>

<path d="M900,298c0,0,32,73,32,159c0,0,0,110,-38,160c0,0,-40,31,-81,31c0,0,-48,0,-80,-35c0,0,-33,-35,-33,-89c0,0,0,-118,200,-226ZM588,-60c0,0,-154,0,-274,93c0,0,-120,94,-120,207c0,0,0,50,28,92C222,332,61,440,61,552c0,0,0,71,56,122c0,0,56,50,169,50H417l64,-98L463,600H333c0,0,-157,-1,-157,-99c0,0,0,-59,88,-124c0,0,68,52,164,52c0,0,38,0,79,-9l71,-88L558,299c0,0,-46,10,-81,10c0,0,-75,0,-116,-36c0,0,-40,-36,-40,-88c0,0,0,-78,73,-130c0,0,54,-17,109,-17c0,0,114,0,211,54c0,0,97,53,154,145c0,0,-156,96,-223,173c0,0,-67,77,-67,155c0,0,0,72,48,124c0,0,48,52,126,55v78H0l-45,76l14,31H1123l46,-76l-14,-31H805l66,-58V717c0,0,76,-40,124,-124c0,0,47,-84,47,-193c0,0,0,-188,-133,-324C909,76,776,-60,588,-60Z"
id="f6_bf"
transform="scale(0.001,-0.001)"/>

<path d="M-214,860l-227,219c0,0,-73,70,-148,70c0,0,-67,0,-160,-58l-72,117c0,0,83,71,176,71c0,0,120,0,232,-124L-221,940l-102,294c0,0,-64,179,-189,179c0,0,-60,0,-133,-33l-60,125c0,0,84,47,164,47c0,0,200,0,281,-276L-150,901l-23,-15l-41,-26Z"
id="f6_d5"
transform="scale(0.001,-0.001)"/>

<path d="M725,307c0,0,-95,0,-218,78c0,0,-123,78,-188,78c0,0,-54,0,-95,-34c0,0,-41,-34,-73,-100L93,362c0,0,38,88,101,146c0,0,63,59,148,59c0,0,90,0,214,-78c0,0,124,-79,188,-79c0,0,63,0,106,34c0,0,42,33,85,104l60,-40c0,0,-32,-66,-101,-134c0,0,-70,-67,-169,-67Z"
id="f7_4r"
transform="scale(0.001,-0.001)"/>

<path d="M494,385V878L152,385ZM494,0V262H20V385l498,708H628V385H775V262H628V0Z"
id="f8_o"
transform="scale(0.001,-0.001)"/>

<path d="M420,489c0,0,93,0,153,65c0,0,60,65,60,181c0,0,0,116,-62,184c0,0,-61,68,-148,68c0,0,-90,0,-156,-74c0,0,-66,-73,-66,-189c0,0,0,-105,63,-170c0,0,63,-65,156,-65ZM391,-18c0,0,-128,0,-209,71c0,0,-82,71,-98,200l129,12c0,0,17,-91,63,-132c0,0,46,-41,118,-41c0,0,62,0,109,28c0,0,47,29,76,76c0,0,30,47,50,128c0,0,20,80,20,164c0,0,0,9,-1,27c0,0,-40,-65,-110,-105c0,0,-69,-39,-151,-39c0,0,-135,0,-229,98c0,0,-94,99,-94,260c0,0,0,166,98,268c0,0,98,101,245,101c0,0,107,0,195,-57c0,0,89,-58,134,-164c0,0,46,-106,46,-308c0,0,0,-209,-45,-334C737,235,691,111,602,46c0,0,-90,-64,-211,-64Z"
id="f8_t"
transform="scale(0.001,-0.001)"/>


</defs>
</svg>