<?xml version="1.0" encoding="UTF-8" standalone="no"?>
<!DOCTYPE svg PUBLIC "-//W3C//DTD SVG 1.1//EN"
"http://www.w3.org/Graphics/SVG/1.1/DTD/svg11.dtd">
<svg viewBox="0 0 641 910" version="1.1" xmlns="http://www.w3.org/2000/svg" xmlns:xlink="http://www.w3.org/1999/xlink">
<defs>
<clipPath id="c0_115"><path d="M0,909.8V0H641.7V909.8Z"/></clipPath>
<clipPath id="c1_115"><path d="M0,908.6V0H641.7V908.6Z"/></clipPath>
<style type="text/css"><![CDATA[
.g0_115{
fill: #FFFFFF;
}
.g1_115{
}
]]></style>
</defs>
<path d="M0,0H641.7V909.8H0V0Z" class="g0_115"/>
<path d="M0,0H641.7V909.8H0V0Z" class="g0_115"/>
<g clip-path="url(#c0_115)">
<path d="M0,-98257.4H641.7V8188.1H0V-98257.4Z" class="g0_115"/>
</g>
<path d="M0,0H641.7V908.6H0V0Z" class="g0_115"/>
<path d="M19.5,60.7H602.7v1.2H19.5V60.7Z" class="g1_115"/>
<g clip-path="url(#c1_115)">
<path d="M0,61.9H641.7V909.8H0V61.9Z" class="g0_115"/>
<g fill="#000000" >
<use xlink:href="#f6_am" transform="matrix(14,0,0,14,125.2,82.5)" />
<use xlink:href="#f6_c7" transform="matrix(14,0,0,14,146.7,82.5)" />
<use xlink:href="#f6_d8" transform="matrix(14,0,0,14,158.8,82.5)" />
<use xlink:href="#f6_bs" transform="matrix(14,0,0,14,170,82.5)" />
<use xlink:href="#f6_bz" transform="matrix(14,0,0,14,184.1,82.5)" />
<use xlink:href="#f6_dr" transform="matrix(14,0,0,14,197.8,82.5)" />
<use xlink:href="#f6_b9" transform="matrix(14,0,0,14,203.1,82.5)" />
<use xlink:href="#f6_oc" transform="matrix(14,0,0,14,218.6,82.5)" />
<use xlink:href="#f6_iz" transform="matrix(14,0,0,14,229.8,82.5)" />
<use xlink:href="#f6_d8" transform="matrix(14,0,0,14,252.1,82.5)" />
<use xlink:href="#f6_bp" transform="matrix(14,0,0,14,257.7,82.5)" />
<use xlink:href="#f6_cv" transform="matrix(14,0,0,14,270,82.5)" />
<use xlink:href="#f6_bz" transform="matrix(14,0,0,14,281.3,82.5)" />
<use xlink:href="#f6_oz" transform="matrix(14,0,0,14,294.8,82.5)" />
<use xlink:href="#f6_cc" transform="matrix(14,0,0,14,300.3,82.5)" />
<use xlink:href="#f6_bz" transform="matrix(14,0,0,14,311.9,82.5)" />
<use xlink:href="#f6_by" transform="matrix(14,0,0,14,330.9,82.5)" />
<use xlink:href="#f6_cv" transform="matrix(14,0,0,14,344.9,82.5)" />
<use xlink:href="#f6_al" transform="matrix(14,0,0,14,356.2,82.5)" />
<use xlink:href="#f6_bv" transform="matrix(14,0,0,14,372,82.5)" />
<use xlink:href="#f6_bt" transform="matrix(14,0,0,14,383.9,82.5)" />
<use xlink:href="#f6_ct" transform="matrix(14,0,0,14,395.6,82.5)" />
<use xlink:href="#f6_bp" transform="matrix(14,0,0,14,406.9,82.5)" />
<use xlink:href="#f6_d4" transform="matrix(14,0,0,14,419.3,82.5)" />
<use xlink:href="#f6_bg" transform="matrix(14,0,0,14,419.2,82.5)" />
<use xlink:href="#f6_nt" transform="matrix(14,0,0,14,439.1,82.5)" />
<use xlink:href="#f6_bz" transform="matrix(14,0,0,14,444.7,82.5)" />
<use xlink:href="#f6_c3" transform="matrix(14,0,0,14,458.1,82.5)" />
<use xlink:href="#f6_ct" transform="matrix(14,0,0,14,472.8,82.5)" />
<use xlink:href="#f6_c0" transform="matrix(14,0,0,14,478.4,82.5)" />
<use xlink:href="#f6_d4" transform="matrix(14,0,0,14,491.1,82.5)" />
<use xlink:href="#f6_k" transform="matrix(14,0,0,14,491,82.5)" />
<use xlink:href="#f6_cb" transform="matrix(14,0,0,14,135.5,115.7)" />
<use xlink:href="#f6_j8" transform="matrix(14,0,0,14,150.4,115.7)" />
<use xlink:href="#f6_pd" transform="matrix(14,0,0,14,170.2,115.7)" />
<use xlink:href="#f6_al" transform="matrix(14,0,0,14,177.7,115.7)" />
<use xlink:href="#f6_cu" transform="matrix(14,0,0,14,193.6,115.7)" />
<use xlink:href="#f6_ol" transform="matrix(14,0,0,14,207.6,115.4)" />
<use xlink:href="#f6_cc" transform="matrix(14,0,0,14,199.2,115.7)" />
<use xlink:href="#f6_cb" transform="matrix(14,0,0,14,210.8,115.7)" />
<use xlink:href="#f6_ct" transform="matrix(14,0,0,14,225.7,115.7)" />
<use xlink:href="#f6_b9" transform="matrix(14,0,0,14,237,115.7)" />
<use xlink:href="#f6_oc" transform="matrix(14,0,0,14,252.5,115.7)" />
<use xlink:href="#f6_bp" transform="matrix(14,0,0,14,263.8,115.7)" />
<use xlink:href="#f6_ct" transform="matrix(14,0,0,14,276.1,115.7)" />
<use xlink:href="#f6_b9" transform="matrix(14,0,0,14,281.7,115.7)" />
<use xlink:href="#f6_bp" transform="matrix(14,0,0,14,297.2,115.7)" />
<use xlink:href="#f6_cb" transform="matrix(14,0,0,14,315.2,115.7)" />
<use xlink:href="#f6_d4" transform="matrix(14,0,0,14,330.2,115.7)" />
<use xlink:href="#f6_bt" transform="matrix(14,0,0,14,335.7,115.7)" />
<use xlink:href="#f6_c0" transform="matrix(14,0,0,14,347.4,115.7)" />
<use xlink:href="#f6_d4" transform="matrix(14,0,0,14,360.1,115.7)" />
<use xlink:href="#f6_an" transform="matrix(14,0,0,14,365.7,115.7)" />
<use xlink:href="#f6_cu" transform="matrix(14,0,0,14,377.2,115.7)" />
<use xlink:href="#f6_bp" transform="matrix(14,0,0,14,382.8,115.7)" />
<use xlink:href="#f6_cc" transform="matrix(14,0,0,14,395.1,115.7)" />
<use xlink:href="#f6_ct" transform="matrix(14,0,0,14,406.7,115.7)" />
<use xlink:href="#f6_cb" transform="matrix(14,0,0,14,412.3,115.7)" />
<use xlink:href="#f6_cb" transform="matrix(14,0,0,14,432.9,115.7)" />
<use xlink:href="#f6_bg" transform="matrix(14,0,0,14,447.7,115.7)" />
<use xlink:href="#f6_ct" transform="matrix(14,0,0,14,462,115.7)" />
<use xlink:href="#f6_c0" transform="matrix(14,0,0,14,467.6,115.7)" />
<use xlink:href="#f6_d4" transform="matrix(14,0,0,14,480.3,115.7)" />
<use xlink:href="#f6_k" transform="matrix(14,0,0,14,480.2,115.7)" />
<use xlink:href="#f6_cc" transform="matrix(14,0,0,14,130.9,149)" />
<use xlink:href="#f6_c1" transform="matrix(14,0,0,14,142.5,149)" />
<use xlink:href="#f6_cc" transform="matrix(14,0,0,14,156.6,149)" />
<use xlink:href="#f6_ct" transform="matrix(14,0,0,14,168.2,149)" />
<use xlink:href="#f6_c3" transform="matrix(14,0,0,14,173.8,149)" />
<use xlink:href="#f6_bz" transform="matrix(14,0,0,14,194.2,149)" />
<use xlink:href="#f6_oz" transform="matrix(14,0,0,14,207.7,149)" />
<use xlink:href="#f6_bs" transform="matrix(14,0,0,14,213.2,149)" />
<use xlink:href="#f6_bz" transform="matrix(14,0,0,14,227.2,149)" />
<use xlink:href="#f6_dr" transform="matrix(14,0,0,14,241,149)" />
<use xlink:href="#f6_b9" transform="matrix(14,0,0,14,246.2,149)" />
<use xlink:href="#f6_d8" transform="matrix(14,0,0,14,261.7,149)" />
<use xlink:href="#f6_c3" transform="matrix(14,0,0,14,273,149)" />
<use xlink:href="#f6_ct" transform="matrix(14,0,0,14,287.7,149)" />
<use xlink:href="#f6_bt" transform="matrix(14,0,0,14,293.3,149)" />
<use xlink:href="#f6_ct" transform="matrix(14,0,0,14,305,149)" />
<use xlink:href="#f6_k" transform="matrix(14,0,0,14,310.6,149)" />
<use xlink:href="#f6_cu" transform="matrix(14,0,0,14,321.5,149)" />
<use xlink:href="#f6_bp" transform="matrix(14,0,0,14,327.1,149)" />
<use xlink:href="#f6_c3" transform="matrix(14,0,0,14,339.5,149)" />
<use xlink:href="#f6_b9" transform="matrix(14,0,0,14,354.2,149)" />
<use xlink:href="#f6_b9" transform="matrix(14,0,0,14,375.3,149)" />
<use xlink:href="#f6_ct" transform="matrix(14,0,0,14,390.8,149)" />
<use xlink:href="#f6_bz" transform="matrix(14,0,0,14,402.1,149)" />
<use xlink:href="#f6_ct" transform="matrix(14,0,0,14,415.5,149)" />
<use xlink:href="#f6_bt" transform="matrix(14,0,0,14,421.1,149)" />
<use xlink:href="#f6_bx" transform="matrix(14,0,0,14,438.5,149)" />
<use xlink:href="#f6_ci" transform="matrix(14,0,0,14,450.7,149)" />
<use xlink:href="#f6_ct" transform="matrix(14,0,0,14,462.7,149)" />
<use xlink:href="#f6_bt" transform="matrix(14,0,0,14,468.3,149)" />
<use xlink:href="#f6_ct" transform="matrix(14,0,0,14,480,149)" />
<use xlink:href="#f6_k" transform="matrix(14,0,0,14,485.6,149)" />
<use xlink:href="#f6_bv" transform="matrix(14,0,0,14,134.4,182.2)" />
<use xlink:href="#f6_dj" transform="matrix(14,0,0,14,140.6,182.6)" />
<use xlink:href="#f6_bq" transform="matrix(14,0,0,14,146.2,182.2)" />
<use xlink:href="#f6_d8" transform="matrix(14,0,0,14,159.4,182.2)" />
<use xlink:href="#f6_b9" transform="matrix(14,0,0,14,170.7,182.2)" />
<use xlink:href="#f6_d8" transform="matrix(14,0,0,14,186.2,182.2)" />
<use xlink:href="#f6_bc" transform="matrix(14,0,0,14,197.5,182.2)" />
<use xlink:href="#f6_c1" transform="matrix(14,0,0,14,211.4,182.2)" />
<use xlink:href="#f6_bp" transform="matrix(14,0,0,14,225.4,182.2)" />
<use xlink:href="#f6_b9" transform="matrix(14,0,0,14,237.7,182.2)" />
<use xlink:href="#f6_c1" transform="matrix(14,0,0,14,258.9,182.2)" />
<use xlink:href="#f6_ba" transform="matrix(14,0,0,14,267.3,182.2)" />
<use xlink:href="#f6_bt" transform="matrix(14,0,0,14,284,182.2)" />
<use xlink:href="#f6_ct" transform="matrix(14,0,0,14,295.7,182.2)" />
<use xlink:href="#f6_k" transform="matrix(14,0,0,14,301.3,182.2)" />
<use xlink:href="#f6_bx" transform="matrix(14,0,0,14,312.2,182.2)" />
<use xlink:href="#f6_ct" transform="matrix(14,0,0,14,324.5,182.2)" />
<use xlink:href="#f6_cc" transform="matrix(14,0,0,14,330.1,182.2)" />
<use xlink:href="#f6_c1" transform="matrix(14,0,0,14,341.7,182.2)" />
<use xlink:href="#f6_cb" transform="matrix(14,0,0,14,355.8,182.2)" />
<use xlink:href="#f6_bx" transform="matrix(14,0,0,14,370.7,182.2)" />
<use xlink:href="#f6_ax" transform="matrix(14,0,0,14,388.6,182.2)" />
<use xlink:href="#f6_b9" transform="matrix(14,0,0,14,400.5,182.2)" />
<use xlink:href="#f6_cc" transform="matrix(14,0,0,14,421.7,182.2)" />
<use xlink:href="#f6_d8" transform="matrix(14,0,0,14,433.3,182.2)" />
<use xlink:href="#f6_bg" transform="matrix(14,0,0,14,444.5,182.2)" />
<use xlink:href="#f6_ct" transform="matrix(14,0,0,14,458.8,182.2)" />
<use xlink:href="#f6_bt" transform="matrix(14,0,0,14,464.4,182.2)" />
<use xlink:href="#f6_ct" transform="matrix(14,0,0,14,476.1,182.2)" />
<use xlink:href="#f6_k" transform="matrix(14,0,0,14,481.8,182.2)" />
<use xlink:href="#f6_ef" transform="matrix(14,0,0,14,57.6,215.4)" />
<use xlink:href="#f6_ct" transform="matrix(14,0,0,14,71.8,215.4)" />
<use xlink:href="#f6_c7" transform="matrix(14,0,0,14,77.4,215.4)" />
<use xlink:href="#f6_b9" transform="matrix(14,0,0,14,89.5,215.4)" />
<use xlink:href="#f6_cc" transform="matrix(14,0,0,14,110.7,215.4)" />
<use xlink:href="#f6_cv" transform="matrix(14,0,0,14,122.3,215.4)" />
<use xlink:href="#f6_cr" transform="matrix(14,0,0,14,127.9,215.4)" />
<use xlink:href="#f6_cr" transform="matrix(14,0,0,14,140.7,215.4)" />
<use xlink:href="#f6_cr" transform="matrix(14,0,0,14,153.5,215.4)" />
<use xlink:href="#f6_bz" transform="matrix(14,0,0,14,172,215.4)" />
<use xlink:href="#f6_d4" transform="matrix(14,0,0,14,185.5,215.4)" />
<use xlink:href="#f6_c1" transform="matrix(14,0,0,14,185.4,215.4)" />
<use xlink:href="#f6_cv" transform="matrix(14,0,0,14,193.7,215.4)" />
<use xlink:href="#f6_bv" transform="matrix(14,0,0,14,205,215.4)" />
<use xlink:href="#f6_cc" transform="matrix(14,0,0,14,216.9,215.4)" />
<use xlink:href="#f6_be" transform="matrix(14,0,0,14,228.5,215.4)" />
<use xlink:href="#f6_ct" transform="matrix(14,0,0,14,242.5,215.4)" />
<use xlink:href="#f6_bt" transform="matrix(14,0,0,14,248.1,215.4)" />
<use xlink:href="#f6_cc" transform="matrix(14,0,0,14,265.5,215.4)" />
<use xlink:href="#f6_d5" transform="matrix(14,0,0,14,277.4,215.4)" />
<use xlink:href="#f6_pc" transform="matrix(14,0,0,14,277.1,215.4)" />
<use xlink:href="#f6_pc" transform="matrix(14,0,0,14,281.4,215.4)" />
<use xlink:href="#f6_pc" transform="matrix(14,0,0,14,285.6,215.4)" />
<use xlink:href="#f6_f" transform="matrix(14,0,0,14,295.6,215.4)" />
<use xlink:href="#f6_b1" transform="matrix(14,0,0,14,299.2,215.4)" />
<use xlink:href="#f6_pc" transform="matrix(14,0,0,14,320.7,215.4)" />
<use xlink:href="#f6_pc" transform="matrix(14,0,0,14,325,215.4)" />
<use xlink:href="#f6_b1" transform="matrix(14,0,0,14,329.2,215.4)" />
<use xlink:href="#f6_pc" transform="matrix(14,0,0,14,350.7,215.4)" />
<use xlink:href="#f6_pc" transform="matrix(14,0,0,14,355,215.4)" />
<use xlink:href="#f6_b1" transform="matrix(14,0,0,14,359.3,215.4)" />
<use xlink:href="#f6_pc" transform="matrix(14,0,0,14,380.8,215.4)" />
<use xlink:href="#f6_pc" transform="matrix(14,0,0,14,385,215.4)" />
<use xlink:href="#f6_b1" transform="matrix(14,0,0,14,389.3,215.4)" />
<use xlink:href="#f6_pc" transform="matrix(14,0,0,14,410.8,215.4)" />
<use xlink:href="#f6_pc" transform="matrix(14,0,0,14,415.1,215.4)" />
<use xlink:href="#f6_b1" transform="matrix(14,0,0,14,419.3,215.4)" />
<use xlink:href="#f6_pc" transform="matrix(14,0,0,14,440.8,215.4)" />
<use xlink:href="#f6_pc" transform="matrix(14,0,0,14,445.1,215.4)" />
<use xlink:href="#f6_pc" transform="matrix(14,0,0,14,449.4,215.4)" />
<use xlink:href="#f6_b1" transform="matrix(14,0,0,14,453.6,215.4)" />
<use xlink:href="#f6_pc" transform="matrix(14,0,0,14,475.1,215.4)" />
<use xlink:href="#f6_pc" transform="matrix(14,0,0,14,479.4,215.4)" />
<use xlink:href="#f6_pc" transform="matrix(14,0,0,14,483.7,215.4)" />
<use xlink:href="#f6_b1" transform="matrix(14,0,0,14,488,215.4)" />
<use xlink:href="#f6_pc" transform="matrix(14,0,0,14,509.4,215.4)" />
<use xlink:href="#f6_pc" transform="matrix(14,0,0,14,513.7,215.4)" />
<use xlink:href="#f6_pc" transform="matrix(14,0,0,14,518,215.4)" />
<use xlink:href="#f6_b1" transform="matrix(14,0,0,14,522.3,215.4)" />
<use xlink:href="#f6_8l" transform="matrix(14,0,0,14,543.8,215.4)" />
<use xlink:href="#f7_4r" transform="matrix(9,0,0,9,286.8,795.2)" />
<use xlink:href="#f8_l" transform="matrix(9,0,0,9,299.6,795.2)" />
<use xlink:href="#f8_k" transform="matrix(9,0,0,9,307.2,795.2)" />
<use xlink:href="#f8_t" transform="matrix(9,0,0,9,314.9,795.2)" />
<use xlink:href="#f7_4r" transform="matrix(9,0,0,9,325.6,795.2)" />
</g>
</g>
<image preserveAspectRatio="none" x="22" y="801" width="581" height="86" xlink:href="img/1.png"/>
<image preserveAspectRatio="none" x="202" y="14" width="217" height="26" xlink:href="img/2.png"/>
<defs>
<path d="M959,-49L869,8V367c0,0,-32,-13,-64,-13c0,0,-50,0,-110,25c0,0,23,-52,23,-109c0,0,0,-103,-70,-170c0,0,-70,-66,-182,-66c0,0,-110,0,-222,82c0,0,-111,83,-213,293l68,42c0,0,72,-155,152,-231c0,0,81,-76,178,-76c0,0,83,0,131,49c0,0,48,48,48,117c0,0,0,54,-30,100c0,0,-31,47,-91,65L325,391L257,512c0,0,68,53,156,56c0,0,140,72,140,179c0,0,0,69,-52,99c0,0,-4,1,-11,1c-19,0,-66,-4,-123,-30c0,0,-78,-35,-142,-96L150,823c0,0,119,117,253,117c0,0,98,0,175,-71c0,0,77,-70,77,-159c0,0,0,-103,-94,-180c0,0,39,-23,73,-56c0,0,52,-22,109,-22c0,0,77,0,126,38V822H727l-46,76l14,31h840l46,-76l-13,-31H1332l66,-58V-39l-37,-10L1271,8V822H930l66,-58V-39L959,-49Z"
id="f6_am"
transform="scale(0.001,-0.001)"/>

<path d="M325,240c0,0,77,0,154,35c0,0,77,35,120,99V500c0,0,-118,73,-222,73c0,0,-97,0,-151,-54c0,0,-53,-53,-53,-128c0,0,0,-73,49,-125c0,0,38,-26,103,-26ZM689,-49L599,8V199c0,0,-73,-65,-179,-65c0,0,-134,0,-252,96c0,0,-118,95,-118,221c0,0,0,102,78,171c0,0,78,69,190,69c0,0,38,0,75,-10L599,582V822H0l-45,76l14,31H863l46,-76L895,822H660l66,-58V-39L689,-49Z"
id="f6_c7"
transform="scale(0.001,-0.001)"/>

<path d="M228,-49L138,8V822H0l-45,76l14,31H119L-33,1144c0,0,-70,92,-157,92c0,0,-69,0,-159,-58l-72,118c0,0,89,73,181,73c0,0,140,0,257,-170L205,929H402l46,-76L434,822H199l65,-58V-39L228,-49Z"
id="f6_d8"
transform="scale(0.001,-0.001)"/>

<path d="M827,-49L736,8V205c0,0,-84,-84,-209,-84c0,0,-130,0,-237,91c0,0,-108,92,-108,196c0,0,0,79,61,137C243,545,66,672,66,791c0,0,0,75,52,124c0,0,53,49,134,49c0,0,164,0,260,-237L451,694c0,0,-55,114,-119,163l-31,5c0,0,-44,0,-77,-32c0,0,-33,-31,-33,-78c0,0,0,-86,113,-165c0,0,60,27,133,27l67,-4l75,-89L564,490l-51,7H493c0,0,-90,0,-142,-43c0,0,-52,-43,-52,-104c0,0,0,-60,51,-109c0,0,33,-16,84,-16c0,0,89,0,177,47c0,0,89,47,125,137V822H567l-46,76l14,31h466l46,-76l-14,-31H798l65,-58V-39L827,-49Z"
id="f6_bs"
transform="scale(0.001,-0.001)"/>

<path d="M689,445V822H286l65,-58l8,-319ZM779,-49L689,8V328H370V180L296,150c0,0,-56,35,-120,104c0,0,-63,70,-89,131l41,60H238L223,822H0l-45,76l14,31H953l46,-76L985,822H750l66,-58V-39L779,-49Z"
id="f6_bz"
transform="scale(0.001,-0.001)"/>

<path d="M-239,897c0,0,-82,61,-132,137c0,0,-50,75,-50,150c0,0,0,78,52,133c0,0,52,55,141,55c0,0,98,0,176,-64l-23,-69c0,0,-52,32,-104,32c0,0,-57,0,-95,-36c0,0,-38,-36,-38,-95c0,0,0,-115,117,-217l-44,-26Z"
id="f6_dr"
transform="scale(0.001,-0.001)"/>

<path d="M283,260c0,0,122,0,209,113V513c0,0,-90,51,-160,51c0,0,-80,0,-129,-50c0,0,-49,-50,-49,-118c0,0,0,-60,35,-110c0,0,45,-26,94,-26ZM582,-49L492,8V211c0,0,-63,-54,-141,-54c0,0,-113,0,-213,92c0,0,-100,92,-100,205c0,0,0,93,69,157c0,0,69,64,162,64c0,0,32,0,64,-9L492,590V822H0l-45,76l14,31H1108l45,-76l-13,-31H553l66,-58V524c0,0,91,89,192,89c0,0,98,0,171,-79c0,0,72,-79,72,-186c0,0,0,-178,-224,-330L736,124c0,0,219,153,219,269c0,0,0,44,-26,75c0,0,-26,32,-81,32c0,0,-109,0,-229,-155V-39L582,-49Z"
id="f6_b9"
transform="scale(0.001,-0.001)"/>

<path d="M228,-49L138,8V822H0l-45,76l14,31H134c0,0,-231,362,-445,362c0,0,-87,0,-135,-49c0,0,-48,-49,-48,-116c0,0,0,-73,43,-122l-45,-32c0,0,-119,108,-119,223c0,0,0,94,74,155c0,0,73,60,181,60c0,0,161,0,316,-134c0,0,154,-133,267,-347H402l46,-76L434,822H199l65,-58V-39L228,-49Z"
id="f6_oc"
transform="scale(0.001,-0.001)"/>

<path d="M1066,248c0,0,77,0,149,36c0,0,71,37,110,107V822H976c0,0,138,-96,138,-208c0,0,0,-151,-228,-192c0,0,29,-104,89,-158c0,0,41,-16,91,-16ZM1415,-49L1325,8V200c0,0,-69,-56,-170,-56c0,0,-121,0,-238,91c0,0,-116,92,-178,233c0,0,-22,19,-51,25c0,0,-28,5,-191,5c0,0,61,-47,93,-111c0,0,33,-63,33,-126c0,0,0,-85,-58,-142c0,0,-59,-56,-148,-56c0,0,-130,0,-230,139C187,202,87,341,20,581l76,24c0,0,60,-202,127,-306c0,0,67,-105,160,-105c0,0,57,0,91,36c0,0,33,36,33,91c0,0,0,84,-73,159L295,542v72H542c0,0,112,0,168,-14c0,0,55,-15,97,-62c0,0,102,15,146,42c0,0,45,27,45,78c0,0,0,45,-30,81c0,0,-30,36,-99,83H0l-45,76l14,31H1589l46,-76l-14,-31H1386l65,-58V-39l-36,-10Z"
id="f6_iz"
transform="scale(0.001,-0.001)"/>

<path d="M347,-57C347,-57,66,211,66,394c0,0,0,98,74,164c0,0,74,65,225,65H616V822H0l-45,76l14,31H880l46,-76L912,822H677l66,-58V-39L706,-49L616,8V500H428c0,0,-239,0,-239,-161c0,0,0,-136,214,-343L347,-57Z"
id="f6_bp"
transform="scale(0.001,-0.001)"/>

<path d="M228,-49L138,8V822H0l-45,76l14,31H138c0,0,-109,342,-284,342c0,0,-62,0,-102,-40c0,0,-40,-39,-40,-93c0,0,0,-61,51,-134l-42,-32c0,0,-128,113,-128,226c0,0,0,79,60,136c0,0,61,56,154,56c0,0,137,0,249,-125c0,0,112,-125,169,-336H402l46,-76L434,822H199l65,-58V-39L228,-49Z"
id="f6_cv"
transform="scale(0.001,-0.001)"/>

<path d="M-91,1001c0,0,-27,10,-61,36c0,0,-33,26,-50,49c0,0,38,81,90,110c0,0,61,-23,107,-85c0,0,-28,-71,-86,-110ZM-214,863l-199,281c0,0,-70,92,-157,92c0,0,-69,0,-159,-58l-72,118c0,0,89,73,180,73c0,0,141,0,258,-170L-155,901l-59,-38Z"
id="f6_oz"
transform="scale(0.001,-0.001)"/>

<path d="M688,-243c0,0,-256,53,-408,173c0,0,-152,119,-152,270c0,0,0,101,68,171c0,0,-101,84,-101,179c0,0,0,64,53,112c0,0,54,47,191,47H587V822H0l-45,76l14,31H830l45,-76L862,822H640l66,-58V585H362c0,0,-159,-1,-159,-92c0,0,0,-41,46,-80c0,0,76,47,183,47c0,0,135,0,230,-76c0,0,96,-75,96,-187C758,197,758,67,629,2L545,104c0,0,49,30,81,75c0,0,32,44,32,82c0,0,0,16,-4,26c0,0,-64,58,-167,58c0,0,-97,0,-166,-50v-2c0,0,-67,-52,-67,-131c0,0,0,-116,132,-199c0,0,132,-84,334,-132l-32,-74Z"
id="f6_cc"
transform="scale(0.001,-0.001)"/>

<path d="M823,-49L733,8V339H445V191L371,160c0,0,-56,36,-120,105c0,0,-63,70,-89,131l41,59H313V735c0,0,0,99,-55,140c0,0,-3,1,-8,1c-16,0,-48,-3,-71,-23c0,0,-31,-26,-31,-66c0,0,0,-69,81,-113L189,620C189,620,31,720,31,828c0,0,0,61,45,99c0,0,46,37,109,37c0,0,96,0,173,-86c0,0,76,-87,79,-194V455H733V822H556l-46,76l14,31H998l45,-76l-13,-31H794l66,-58V-39L823,-49Z"
id="f6_by"
transform="scale(0.001,-0.001)"/>

<path d="M959,-49L869,8V367c0,0,-32,-13,-64,-13c0,0,-50,0,-110,25c0,0,23,-52,23,-109c0,0,0,-103,-70,-170c0,0,-70,-66,-182,-66c0,0,-110,0,-222,82c0,0,-111,83,-213,293l68,42c0,0,72,-155,152,-231c0,0,81,-76,178,-76c0,0,83,0,131,49c0,0,48,48,48,117c0,0,0,54,-30,100c0,0,-31,47,-91,65L325,391L257,512c0,0,68,53,156,56c0,0,140,72,140,179c0,0,0,69,-52,99c0,0,-4,1,-11,1c-19,0,-66,-4,-123,-30c0,0,-78,-35,-142,-96L150,823c0,0,119,117,253,117c0,0,98,0,175,-71c0,0,77,-70,77,-159c0,0,0,-103,-94,-180c0,0,39,-23,73,-56c0,0,52,-22,109,-22c0,0,77,0,126,38V822H727l-46,76l14,31h439l45,-76l-13,-31H930l66,-58V-39L959,-49Z"
id="f6_al"
transform="scale(0.001,-0.001)"/>

<path d="M388,325c0,0,58,0,112,31c0,0,53,31,84,86V822H165l69,-58V408c0,0,47,-83,154,-83ZM674,-49L584,8V257c0,0,-61,-51,-141,-51c0,0,-125,0,-232,109c0,0,-107,108,-107,243V822H0l-45,76l14,31H848l46,-76L880,822H645l65,-58V-39L674,-49Z"
id="f6_bv"
transform="scale(0.001,-0.001)"/>

<path d="M663,-49L573,8V445H299V280L226,251c0,0,-105,99,-162,238l63,72H573V822H0l-45,76l14,31H837l46,-76L869,822H634l66,-58V-39L663,-49Z"
id="f6_bt"
transform="scale(0.001,-0.001)"/>

<path d="M228,-49L138,8V822H0l-45,76l14,31H402l46,-76L434,822H199l65,-58V-39L228,-49Z"
id="f6_ct"
transform="scale(0.001,-0.001)"/>

<path d="M-214,863l-199,281c0,0,-70,92,-157,92c0,0,-69,0,-159,-58l-72,118c0,0,89,73,180,73c0,0,141,0,258,-170L-155,901l-59,-38Z"
id="f6_d4"
transform="scale(0.001,-0.001)"/>

<path d="M845,-49L755,8V513H497c0,0,61,-45,93,-110c0,0,33,-64,33,-128c0,0,0,-90,-58,-144c0,0,-59,-53,-143,-53c0,0,-133,0,-234,139C188,217,87,356,20,596l76,24c0,0,60,-201,127,-306c0,0,67,-105,160,-105c0,0,57,0,91,36c0,0,33,36,33,91c0,0,0,84,-73,159L295,558v71H755V822H0l-45,76l14,31H1019l46,-76l-14,-31H816l66,-58V-39L845,-49Z"
id="f6_bg"
transform="scale(0.001,-0.001)"/>

<path d="M228,-49L138,8V822H0l-45,76l14,31H134c0,0,-91,93,-91,202c0,0,0,105,85,170c0,0,86,65,236,65c0,0,340,0,742,-350l-50,-46c0,0,-182,135,-340,208c0,0,-158,73,-302,73c0,0,-113,0,-183,-48c0,0,-69,-48,-69,-132c0,0,0,-63,53,-142H402l46,-76L434,822H199l65,-58V-39L228,-49Z"
id="f6_nt"
transform="scale(0.001,-0.001)"/>

<path d="M413,-59C413,-59,53,193,53,416c0,0,0,97,66,164c0,0,66,66,156,66c0,0,61,0,110,-30L487,507c0,0,92,126,257,126l35,-2V822H0l-45,76l14,31H1043l46,-76l-13,-31H840l66,-58V-39L869,-49L779,8V547c0,0,-101,-5,-165,-90c0,0,-64,-86,-70,-222L507,225l-90,73c0,0,5,79,35,151c0,0,-59,66,-128,66c0,0,-57,0,-100,-38c0,0,-44,-39,-44,-109c0,0,0,-165,284,-360L413,-59Z"
id="f6_c3"
transform="scale(0.001,-0.001)"/>

<path d="M374,248c0,0,77,0,149,36c0,0,71,37,110,107V822H284c0,0,138,-96,138,-208c0,0,0,-151,-228,-192c0,0,29,-104,89,-158c0,0,41,-16,91,-16ZM723,-49L633,8V200c0,0,-69,-56,-170,-56c0,0,-122,0,-240,94c0,0,-118,94,-179,237l20,55c0,0,133,17,187,44c0,0,55,28,55,84c0,0,0,45,-30,81c0,0,-30,36,-99,83H0l-45,76l14,31H897l46,-76L929,822H694l65,-58V-39L723,-49Z"
id="f6_c0"
transform="scale(0.001,-0.001)"/>

<path d="M108,-222l-44,58c0,0,96,81,104,164L89,61c0,0,12,83,93,122c0,0,50,-15,79,-55c0,0,29,-39,29,-90c0,0,0,-69,-48,-142c0,0,-48,-72,-134,-118Z"
id="f6_k"
transform="scale(0.001,-0.001)"/>

<path d="M799,475V822H350l66,-55V564c0,0,0,-43,-25,-89ZM527,-71L52,414l34,92H277c0,0,12,32,12,72V822H0l-45,76l14,31H1063l46,-76l-14,-31H860l66,-58V-39L889,-49L799,8V370H315L264,316L610,34L611,8L527,-71Z"
id="f6_cb"
transform="scale(0.001,-0.001)"/>

<path d="M892,248c0,0,77,0,148,36c0,0,72,37,110,107V822H802c0,0,138,-96,138,-208c0,0,0,-151,-228,-192c0,0,29,-104,89,-158c0,0,41,-16,91,-16ZM347,-57C347,-57,73,203,73,373c0,0,0,110,87,181c0,0,86,71,227,71c0,0,137,0,268,-84c0,0,91,17,130,43c0,0,38,26,38,74c0,0,0,45,-29,81c0,0,-30,36,-99,83H0l-45,76l14,31H1415l46,-76l-14,-31H1212l65,-58V-39l-36,-10L1150,8V200c0,0,-68,-56,-169,-56c0,0,-122,0,-235,90c0,0,-113,90,-176,223c0,0,-77,43,-161,43c0,0,-85,0,-148,-47c0,0,-62,-47,-62,-129c0,0,0,-127,204,-328L347,-57Z"
id="f6_j8"
transform="scale(0.001,-0.001)"/>

<path d="M92,380L46,457l14,30H448l45,-76L480,380Z"
id="f6_pd"
transform="scale(0.001,-0.001)"/>

<path d="M228,-49L138,8V822H0l-45,76l14,31H134c0,0,-91,92,-91,191c0,0,0,105,85,170c0,0,84,65,219,65c0,0,128,0,293,-76c0,0,165,-77,362,-263L958,966c0,0,-177,143,-303,210c0,0,-125,68,-244,68c0,0,-107,0,-175,-50c0,0,-68,-50,-68,-131c0,0,0,-61,49,-134H402l46,-76L434,822H199l65,-58V-39L228,-49Z"
id="f6_cu"
transform="scale(0.001,-0.001)"/>

<path d="M46,1082c0,0,-69,29,-106,81c0,0,34,75,84,105c0,0,57,-23,103,-81c0,0,-31,-72,-81,-105Z"
id="f6_ol"
transform="scale(0.001,-0.001)"/>

<path d="M483,-305L295,-10c0,0,-90,22,-156,74l41,170h66L351,63c0,0,126,4,207,62c0,0,82,58,82,139c0,0,0,37,-18,71L365,266c0,0,-110,15,-197,102c0,0,-87,87,-87,176c0,0,0,69,59,117c0,0,59,48,172,48H550V822H0l-45,76l14,31H822l46,-76L854,822H603l66,-58V585H373c0,0,-184,0,-184,-99c0,0,0,-48,63,-101l310,78c0,0,86,-34,141,-99c0,0,55,-65,55,-142c0,0,0,-109,-98,-179c0,0,-98,-69,-254,-69L599,-216L483,-305Z"
id="f6_an"
transform="scale(0.001,-0.001)"/>

<path d="M527,-71L52,414l34,92H277c0,0,12,32,12,72V822H0l-45,76l14,31H599l46,-76L631,822H350l66,-55V564c0,0,0,-96,-152,-248L610,34L611,8L527,-71Z"
id="f6_c1"
transform="scale(0.001,-0.001)"/>

<path d="M348,229c0,0,57,0,106,17L263,559c0,0,-95,-50,-95,-162c0,0,0,-75,52,-136c0,0,49,-32,128,-32Zm170,48c0,0,61,38,96,91V504c0,0,-131,80,-244,80l-35,-2L518,277ZM704,-49L614,8V193c0,0,-84,-65,-192,-65c0,0,-139,0,-255,98c0,0,-115,98,-115,226c0,0,0,106,77,175c0,0,77,70,189,70c0,0,38,0,75,-9L614,578V822H0l-45,76l14,31H878l46,-76L911,822H675l66,-58V-39L704,-49Z"
id="f6_bx"
transform="scale(0.001,-0.001)"/>

<path d="M526,-266c0,0,-66,24,-103,79c0,0,32,69,83,101c0,0,55,-20,99,-80c0,0,-26,-67,-79,-100ZM570,78c0,0,66,17,105,54c0,0,40,38,40,88c0,0,0,40,-23,66c0,0,-23,26,-58,26c0,0,-40,0,-71,-33c0,0,-31,-33,-31,-90c0,0,0,-55,38,-111ZM538,-45c0,0,-182,0,-322,128C216,83,76,211,76,368c0,0,0,122,91,201c0,0,90,79,238,79H564V822H0l-45,76l14,31H853l45,-76L885,822H617l66,-58V521H420c0,0,-99,0,-162,-57c0,0,-62,-58,-62,-146c0,0,0,-121,105,-208c0,0,118,-41,188,-41l29,1l-69,46c0,0,-36,55,-36,115c0,0,0,73,48,123c0,0,49,49,123,49c0,0,87,0,151,-74c0,0,64,-74,64,-162c0,0,0,-94,-71,-153c0,0,-71,-59,-190,-59Z"
id="f6_ci"
transform="scale(0.001,-0.001)"/>

<path d="M0,1062c0,0,-26,11,-60,36c0,0,-34,26,-51,49c0,0,39,81,91,110c0,0,60,-23,106,-85c0,0,-28,-70,-86,-110Z"
id="f6_dj"
transform="scale(0.001,-0.001)"/>

<path d="M768,-49L678,8V202c0,0,-73,-58,-172,-58c0,0,-123,0,-240,94c0,0,-118,94,-179,237l20,55c0,0,134,12,215,70c0,0,81,57,81,141c0,0,0,90,-67,134l-26,3c0,0,-46,0,-74,-29c0,0,-28,-30,-28,-68c0,0,0,-55,82,-109L252,620C252,620,93,720,93,820c0,0,0,65,47,104c0,0,46,40,114,40c0,0,99,0,179,-83c0,0,80,-83,82,-197c0,0,0,-93,-79,-165c0,0,-78,-73,-199,-97c0,0,29,-104,88,-158c0,0,42,-16,92,-16c0,0,78,0,151,38c0,0,74,38,110,111V822H553l-46,76l14,31H943l45,-76L975,822H739l66,-58V-39L768,-49Z"
id="f6_bq"
transform="scale(0.001,-0.001)"/>

<path d="M434,225c0,0,84,0,169,42c0,0,85,43,126,126V822H267c0,0,-64,-49,-64,-115c0,0,0,-79,90,-126c0,0,60,35,144,35l67,-6l75,-89L564,490l-51,7H493c0,0,-90,0,-142,-43c0,0,-52,-43,-52,-104c0,0,0,-60,51,-109c0,0,33,-16,84,-16ZM819,-49L729,8V197c0,0,-83,-76,-202,-76c0,0,-130,0,-237,91c0,0,-108,92,-108,196c0,0,0,72,53,128c0,0,-75,42,-115,97c0,0,-41,56,-41,113c0,0,0,38,22,76H0l-45,76l14,31H993l46,-76l-14,-31H790l66,-58V-39L819,-49Z"
id="f6_bc"
transform="scale(0.001,-0.001)"/>

<path d="M761,293c0,0,127,0,169,94V532c0,0,-68,46,-145,46c0,0,-76,0,-121,-46c0,0,-45,-45,-45,-107c0,0,0,-61,44,-110c0,0,47,-22,98,-22ZM657,67c0,0,166,0,273,107v55c0,0,-45,-36,-111,-36c0,0,-110,0,-207,90c0,0,-97,90,-97,194c0,0,0,85,66,148c0,0,65,63,155,63l48,-5L930,603V822H376l62,-55V579c0,0,0,-60,-23,-102c0,0,-24,-42,-148,-190c0,0,66,-104,175,-162c0,0,108,-58,215,-58ZM1021,-49L930,8V53c0,0,-105,-83,-264,-83c0,0,-177,0,-339,128C327,98,165,226,90,429l34,77H296c0,0,19,39,19,102l-2,214H0l-45,76l14,31H1195l46,-76l-14,-31H992l65,-58V-39l-36,-10Z"
id="f6_ba"
transform="scale(0.001,-0.001)"/>

<path d="M830,-253l-123,66c0,0,31,47,31,78c0,0,0,44,-64,84L353,130c0,0,-234,113,-234,325V822H0l-45,76l14,31H848l46,-76L880,822H655l68,-58V561c0,0,0,-176,-41,-241c0,0,-40,-65,-161,-106l-49,82l124,69V822H180l66,-58V283L646,92c0,0,126,-60,176,-110c0,0,50,-51,50,-115c0,0,0,-62,-42,-120Z"
id="f6_ax"
transform="scale(0.001,-0.001)"/>

<path d="M319,561c0,0,66,46,103,105c0,0,36,60,36,113c0,0,0,28,-9,48c0,0,-35,41,-88,41c0,0,-51,0,-89,-39c0,0,-38,-39,-38,-103c0,0,0,-95,85,-165ZM840,-49L750,8V342L362,31l-89,85L608,370c0,0,-121,15,-241,78L105,272L20,364L260,519c0,0,-144,118,-144,246c0,0,0,81,57,140c0,0,56,59,140,59c0,0,96,0,171,-79c0,0,75,-78,75,-168c0,0,0,-117,-130,-219c0,0,110,-40,257,-40l64,2V822H628l-46,76l14,31h418l46,-76l-13,-31H811l66,-58V-39L840,-49Z"
id="f6_ef"
transform="scale(0.001,-0.001)"/>

<path d="M498,2C498,2,377,2,283,89c0,0,-94,88,-142,218l77,55c0,0,95,-250,253,-250c0,0,65,0,109,37c0,0,43,37,43,97c0,0,0,86,-116,151L312,500c0,0,-138,81,-138,189c0,0,0,70,57,118c0,0,56,47,186,47H657l47,-84L684,739H413c0,0,-133,-3,-133,-67c0,0,0,-41,42,-71c0,0,42,-30,131,-70c0,0,89,-41,147,-76c0,0,58,-35,97,-90c0,0,39,-55,39,-133c0,0,0,-105,-68,-168C668,64,600,2,498,2Z"
id="f6_cr"
transform="scale(0.001,-0.001)"/>

<path d="M825,-49L735,8V217c0,0,-86,-72,-197,-72c0,0,-130,0,-238,91c0,0,-107,91,-107,204c0,0,0,55,27,105H55L12,616l14,30H574l46,-76L607,539H396c0,0,-78,-49,-78,-162c0,0,0,-70,40,-111c0,0,39,-15,94,-15c0,0,84,0,163,41c0,0,79,41,120,121V822H0l-45,76l14,31H999l46,-76l-14,-31H796l66,-58V-39L825,-49Z"
id="f6_be"
transform="scale(0.001,-0.001)"/>

<path d="M-214,860l-227,219c0,0,-73,70,-148,70c0,0,-67,0,-160,-58l-72,117c0,0,83,71,176,71c0,0,120,0,232,-124L-221,940l-102,294c0,0,-64,179,-189,179c0,0,-60,0,-133,-33l-60,125c0,0,84,47,164,47c0,0,200,0,281,-276L-150,901l-23,-15l-41,-26Z"
id="f6_d5"
transform="scale(0.001,-0.001)"/>

<path d="M226,-49c0,0,-66,24,-102,78c0,0,32,69,82,101c0,0,55,-20,100,-80c0,0,-26,-66,-80,-99Z"
id="f6_pc"
transform="scale(0.001,-0.001)"/>

<path d="M67,770l-98,32c0,0,54,150,62,304l41,31l110,-25c0,0,-20,-174,-115,-342Z"
id="f6_f"
transform="scale(0.001,-0.001)"/>

<path d="M959,-49L869,8V367c0,0,-32,-13,-64,-13c0,0,-50,0,-110,25c0,0,23,-52,23,-109c0,0,0,-103,-70,-170c0,0,-70,-66,-182,-66c0,0,-110,0,-222,82c0,0,-111,83,-213,293l68,42c0,0,72,-155,152,-231c0,0,81,-76,178,-76c0,0,83,0,131,49c0,0,48,48,48,117c0,0,0,54,-30,100c0,0,-31,47,-91,65L325,391L257,512c0,0,68,53,156,56c0,0,140,72,140,179c0,0,0,69,-52,99c0,0,-4,1,-11,1c-19,0,-66,-4,-123,-30c0,0,-78,-35,-142,-96L150,823c0,0,119,117,253,117c0,0,98,0,175,-71c0,0,77,-70,77,-159c0,0,0,-103,-94,-180c0,0,39,-23,73,-56c0,0,52,-22,109,-22c0,0,77,0,126,38V822H727l-46,76l14,31h558l-153,215c0,0,-70,92,-157,92c0,0,-69,0,-159,-58l-72,118c0,0,89,73,180,73c0,0,141,0,258,-170L1338,929h197l46,-76l-13,-31H1332l66,-58V-39l-37,-10L1271,8V822H930l66,-58V-39L959,-49Z"
id="f6_b1"
transform="scale(0.001,-0.001)"/>

<path d="M254,-26c0,0,-84,16,-116,92c0,0,13,84,97,127c0,0,100,-36,112,-110C347,83,324,6,254,-26Zm458,0c0,0,-84,16,-116,92c0,0,14,84,98,127c0,0,99,-37,111,-110C805,83,782,6,712,-26Zm458,0c0,0,-84,16,-116,92c0,0,14,84,98,127c0,0,99,-36,111,-110c0,0,-22,-77,-93,-109Z"
id="f6_8l"
transform="scale(0.001,-0.001)"/>

<path d="M725,307c0,0,-95,0,-218,78c0,0,-123,78,-188,78c0,0,-54,0,-95,-34c0,0,-41,-34,-73,-100L93,362c0,0,38,88,101,146c0,0,63,59,148,59c0,0,90,0,214,-78c0,0,124,-79,188,-79c0,0,63,0,106,34c0,0,42,33,85,104l60,-40c0,0,-32,-66,-101,-134c0,0,-70,-67,-169,-67Z"
id="f7_4r"
transform="scale(0.001,-0.001)"/>

<path d="M435,0V856c0,0,-48,-47,-127,-93c0,0,-79,-46,-142,-69V824c0,0,113,52,197,128c0,0,85,75,120,146h86V0Z"
id="f8_l"
transform="scale(0.001,-0.001)"/>

<path d="M420,92c0,0,92,0,155,89c0,0,64,89,64,358c0,0,0,270,-63,359c0,0,-63,89,-158,89c0,0,-92,0,-147,-79c0,0,-70,-100,-70,-369c0,0,0,-269,63,-358c0,0,63,-89,156,-89Zm0,-110c0,0,-158,0,-248,112C172,94,64,231,64,539c0,0,0,194,39,313c0,0,40,118,119,182c0,0,79,64,198,64c0,0,88,0,155,-35c0,0,66,-36,109,-103c0,0,43,-66,68,-162c0,0,24,-96,24,-259c0,0,0,-192,-39,-311C737,228,697,110,619,46c0,0,-79,-64,-199,-64Z"
id="f8_k"
transform="scale(0.001,-0.001)"/>

<path d="M420,489c0,0,93,0,153,65c0,0,60,65,60,181c0,0,0,116,-62,184c0,0,-61,68,-148,68c0,0,-90,0,-156,-74c0,0,-66,-73,-66,-189c0,0,0,-105,63,-170c0,0,63,-65,156,-65ZM391,-18c0,0,-128,0,-209,71c0,0,-82,71,-98,200l129,12c0,0,17,-91,63,-132c0,0,46,-41,118,-41c0,0,62,0,109,28c0,0,47,29,76,76c0,0,30,47,50,128c0,0,20,80,20,164c0,0,0,9,-1,27c0,0,-40,-65,-110,-105c0,0,-69,-39,-151,-39c0,0,-135,0,-229,98c0,0,-94,99,-94,260c0,0,0,166,98,268c0,0,98,101,245,101c0,0,107,0,195,-57c0,0,89,-58,134,-164c0,0,46,-106,46,-308c0,0,0,-209,-45,-334C737,235,691,111,602,46c0,0,-90,-64,-211,-64Z"
id="f8_t"
transform="scale(0.001,-0.001)"/>


</defs>
</svg>