<?xml version="1.0" encoding="UTF-8" standalone="no"?>
<!DOCTYPE svg PUBLIC "-//W3C//DTD SVG 1.1//EN"
"http://www.w3.org/Graphics/SVG/1.1/DTD/svg11.dtd">
<svg viewBox="0 0 641 910" version="1.1" xmlns="http://www.w3.org/2000/svg" xmlns:xlink="http://www.w3.org/1999/xlink">
<defs>
<clipPath id="c0_33"><path d="M0,909.8V0H641.7V909.8Z"/></clipPath>
<clipPath id="c1_33"><path d="M0,908.6V0H641.7V908.6Z"/></clipPath>
<style type="text/css"><![CDATA[
.g0_33{
fill: #FFFFFF;
}
.g1_33{
}
]]></style>
</defs>
<path d="M0,0H641.7V909.8H0V0Z" class="g0_33"/>
<path d="M0,0H641.7V909.8H0V0Z" class="g0_33"/>
<g clip-path="url(#c0_33)">
<path d="M0,-23654.5H641.7V82791H0V-23654.5Z" class="g0_33"/>
</g>
<path d="M0,0H641.7V908.6H0V0Z" class="g0_33"/>
<path d="M19.5,60.7H602.7v1.2H19.5V60.7Z" class="g1_33"/>
<g clip-path="url(#c1_33)">
<path d="M0,61.9H641.7V909.8H0V61.9Z" class="g0_33"/>
<g fill="#000000" >
<use xlink:href="#f5_bg" transform="matrix(14,0,0,14,227.2,82.5)" />
<use xlink:href="#f5_bt" transform="matrix(14,0,0,14,243.1,82.5)" />
<use xlink:href="#f5_bz" transform="matrix(14,0,0,14,256.1,82.5)" />
<use xlink:href="#f5_bg" transform="matrix(14,0,0,14,276.4,82.5)" />
<use xlink:href="#f5_bt" transform="matrix(14,0,0,14,292.3,82.5)" />
<use xlink:href="#f5_bz" transform="matrix(14,0,0,14,305.4,82.5)" />
<use xlink:href="#f5_b9" transform="matrix(14,0,0,14,325.6,82.5)" />
<use xlink:href="#f5_ct" transform="matrix(14,0,0,14,343.1,82.5)" />
<use xlink:href="#f5_cb" transform="matrix(14,0,0,14,355.2,82.5)" />
<use xlink:href="#f5_ct" transform="matrix(14,0,0,14,371.9,82.5)" />
<use xlink:href="#f5_no" transform="matrix(14,0,0,14,378.4,82.5)" />
<use xlink:href="#f5_bq" transform="matrix(14,0,0,14,378.4,82.5)" />
<use xlink:href="#f6_bz" transform="matrix(14,0,0,14,152.7,116.9)" />
<use xlink:href="#f6_d4" transform="matrix(14,0,0,14,166.2,116.9)" />
<use xlink:href="#f6_c1" transform="matrix(14,0,0,14,166,116.9)" />
<use xlink:href="#f6_d4" transform="matrix(14,0,0,14,174,116.9)" />
<use xlink:href="#f6_cb" transform="matrix(14,0,0,14,180.1,116.9)" />
<use xlink:href="#f6_c1" transform="matrix(14,0,0,14,195,116.9)" />
<use xlink:href="#f6_bv" transform="matrix(14,0,0,14,209,116.9)" />
<use xlink:href="#f6_c1" transform="matrix(14,0,0,14,220.9,116.9)" />
<use xlink:href="#f6_c1" transform="matrix(14,0,0,14,234.9,116.9)" />
<use xlink:href="#f6_ba" transform="matrix(14,0,0,14,243.3,116.9)" />
<use xlink:href="#f6_br" transform="matrix(14,0,0,14,265.7,116.9)" />
<use xlink:href="#f6_d8" transform="matrix(14,0,0,14,277.3,116.9)" />
<use xlink:href="#f6_br" transform="matrix(14,0,0,14,288.6,116.9)" />
<use xlink:href="#f6_ct" transform="matrix(14,0,0,14,300.3,116.9)" />
<use xlink:href="#f6_br" transform="matrix(14,0,0,14,305.9,116.9)" />
<use xlink:href="#f6_ct" transform="matrix(14,0,0,14,317.6,116.9)" />
<use xlink:href="#f6_al" transform="matrix(14,0,0,14,328.9,116.9)" />
<use xlink:href="#f6_bv" transform="matrix(14,0,0,14,344.8,116.9)" />
<use xlink:href="#f6_bt" transform="matrix(14,0,0,14,356.6,116.9)" />
<use xlink:href="#f6_d4" transform="matrix(14,0,0,14,368.5,116.9)" />
<use xlink:href="#f6_c0" transform="matrix(14,0,0,14,374,116.9)" />
<use xlink:href="#f6_d4" transform="matrix(14,0,0,14,386.7,116.9)" />
<use xlink:href="#f6_br" transform="matrix(14,0,0,14,392.2,116.9)" />
<use xlink:href="#f6_d8" transform="matrix(14,0,0,14,403.9,116.9)" />
<use xlink:href="#f6_bt" transform="matrix(14,0,0,14,409.5,116.9)" />
<use xlink:href="#f6_d8" transform="matrix(14,0,0,14,421.2,116.9)" />
<use xlink:href="#f6_dj" transform="matrix(14,0,0,14,425.5,117.7)" />
<use xlink:href="#f6_cc" transform="matrix(14,0,0,14,432.5,116.9)" />
<use xlink:href="#f6_ct" transform="matrix(14,0,0,14,444.1,116.9)" />
<use xlink:href="#f6_no" transform="matrix(14,0,0,14,449.7,116.9)" />
<use xlink:href="#f6_bq" transform="matrix(14,0,0,14,449.7,116.9)" />
<use xlink:href="#f6_k" transform="matrix(14,0,0,14,462.9,116.9)" />
<use xlink:href="#f6_br" transform="matrix(14,0,0,14,152.7,151.3)" />
<use xlink:href="#f6_ct" transform="matrix(14,0,0,14,164.4,151.3)" />
<use xlink:href="#f6_br" transform="matrix(14,0,0,14,170,151.3)" />
<use xlink:href="#f6_ct" transform="matrix(14,0,0,14,181.7,151.3)" />
<use xlink:href="#f6_cc" transform="matrix(14,0,0,14,193,151.3)" />
<use xlink:href="#f6_bz" transform="matrix(14,0,0,14,204.6,151.3)" />
<use xlink:href="#f6_b9" transform="matrix(14,0,0,14,217.9,151.3)" />
<use xlink:href="#f6_d8" transform="matrix(14,0,0,14,233.4,151.3)" />
<use xlink:href="#f6_br" transform="matrix(14,0,0,14,244.7,151.3)" />
<use xlink:href="#f6_ob" transform="matrix(14,0,0,14,256.4,151.3)" />
<use xlink:href="#f6_nu" transform="matrix(14,0,0,14,262,151.3)" />
<use xlink:href="#f6_bg" transform="matrix(14,0,0,14,267.6,151.3)" />
<use xlink:href="#f6_c0" transform="matrix(14,0,0,14,281.9,151.3)" />
<use xlink:href="#f6_d4" transform="matrix(14,0,0,14,294.5,151.3)" />
<use xlink:href="#f6_bg" transform="matrix(14,0,0,14,300.1,151.3)" />
<use xlink:href="#f6_bt" transform="matrix(14,0,0,14,314.3,151.3)" />
<use xlink:href="#f6_bz" transform="matrix(14,0,0,14,326,151.3)" />
<use xlink:href="#f6_bg" transform="matrix(14,0,0,14,345,151.3)" />
<use xlink:href="#f6_bt" transform="matrix(14,0,0,14,359.3,151.3)" />
<use xlink:href="#f6_bz" transform="matrix(14,0,0,14,371,151.3)" />
<use xlink:href="#f6_b9" transform="matrix(14,0,0,14,390,151.3)" />
<use xlink:href="#f6_ct" transform="matrix(14,0,0,14,405.5,151.3)" />
<use xlink:href="#f6_cb" transform="matrix(14,0,0,14,416.8,151.3)" />
<use xlink:href="#f6_ct" transform="matrix(14,0,0,14,431.7,151.3)" />
<use xlink:href="#f6_no" transform="matrix(14,0,0,14,437.3,151.3)" />
<use xlink:href="#f6_bq" transform="matrix(14,0,0,14,437.3,151.3)" />
<use xlink:href="#f6_2s" transform="matrix(14,0,0,14,456.2,151.3)" />
<use xlink:href="#f6_2s" transform="matrix(14,0,0,14,462.4,151.3)" />
<use xlink:href="#f6_cb" transform="matrix(14,0,0,14,137.8,220)" />
<use xlink:href="#f6_cw" transform="matrix(14,0,0,14,153.2,219.9)" />
<use xlink:href="#f6_bt" transform="matrix(14,0,0,14,152.7,220)" />
<use xlink:href="#f6_ct" transform="matrix(14,0,0,14,164.4,220)" />
<use xlink:href="#f6_cc" transform="matrix(14,0,0,14,175.7,220)" />
<use xlink:href="#f6_d4" transform="matrix(14,0,0,14,187.6,220)" />
<use xlink:href="#f6_cc" transform="matrix(14,0,0,14,193,220)" />
<use xlink:href="#f6_bz" transform="matrix(14,0,0,14,204.6,220)" />
<use xlink:href="#f6_bt" transform="matrix(14,0,0,14,217.9,220)" />
<use xlink:href="#f6_d4" transform="matrix(14,0,0,14,229.7,220)" />
<use xlink:href="#f6_c8" transform="matrix(14,0,0,14,235.3,220)" />
<use xlink:href="#f6_c1" transform="matrix(14,0,0,14,251.1,220)" />
<use xlink:href="#f6_bo" transform="matrix(14,0,0,14,259.5,220)" />
<use xlink:href="#f6_ct" transform="matrix(14,0,0,14,273.9,220)" />
<use xlink:href="#f6_bb" transform="matrix(14,0,0,14,279.5,220)" />
<use xlink:href="#f6_bp" transform="matrix(14,0,0,14,292.1,220)" />
<use xlink:href="#f6_b9" transform="matrix(14,0,0,14,310.1,220)" />
<use xlink:href="#f6_d8" transform="matrix(14,0,0,14,325.6,220)" />
<use xlink:href="#f6_al" transform="matrix(14,0,0,14,336.9,220)" />
<use xlink:href="#f6_bv" transform="matrix(14,0,0,14,352.7,220)" />
<use xlink:href="#f6_bt" transform="matrix(14,0,0,14,364.6,220)" />
<use xlink:href="#f6_d4" transform="matrix(14,0,0,14,376.5,220)" />
<use xlink:href="#f6_bb" transform="matrix(14,0,0,14,382,220)" />
<use xlink:href="#f6_c3" transform="matrix(14,0,0,14,394.6,220)" />
<use xlink:href="#f6_d4" transform="matrix(14,0,0,14,409.4,220)" />
<use xlink:href="#f6_c3" transform="matrix(14,0,0,14,415,220)" />
<use xlink:href="#f6_bb" transform="matrix(14,0,0,14,429.7,220)" />
<use xlink:href="#f6_ct" transform="matrix(14,0,0,14,442.3,220)" />
<use xlink:href="#f6_bp" transform="matrix(14,0,0,14,447.9,220)" />
<use xlink:href="#f6_d4" transform="matrix(14,0,0,14,460.4,220)" />
<use xlink:href="#f6_cc" transform="matrix(14,0,0,14,465.9,220)" />
<use xlink:href="#f6_d8" transform="matrix(14,0,0,14,477.5,220)" />
<use xlink:href="#f6_ay" transform="matrix(14,0,0,14,166.4,254.4)" />
<use xlink:href="#f6_cb" transform="matrix(14,0,0,14,178.3,254.4)" />
<use xlink:href="#f6_ct" transform="matrix(14,0,0,14,193.2,254.4)" />
<use xlink:href="#f6_cc" transform="matrix(14,0,0,14,204.5,254.4)" />
<use xlink:href="#f6_bz" transform="matrix(14,0,0,14,216.1,254.4)" />
<use xlink:href="#f6_bt" transform="matrix(14,0,0,14,229.4,254.4)" />
<use xlink:href="#f6_d4" transform="matrix(14,0,0,14,241.3,254.4)" />
<use xlink:href="#f6_ik" transform="matrix(14,0,0,14,246.8,254.4)" />
<use xlink:href="#f6_ct" transform="matrix(14,0,0,14,271.8,254.4)" />
<use xlink:href="#f6_bz" transform="matrix(14,0,0,14,288.8,254.4)" />
<use xlink:href="#f6_ct" transform="matrix(14,0,0,14,302.1,254.4)" />
<use xlink:href="#f6_di" transform="matrix(14,0,0,14,305.6,254.8)" />
<use xlink:href="#f6_bb" transform="matrix(14,0,0,14,307.8,254.4)" />
<use xlink:href="#f6_ct" transform="matrix(14,0,0,14,320.4,254.4)" />
<use xlink:href="#f6_br" transform="matrix(14,0,0,14,331.7,254.4)" />
<use xlink:href="#f6_d4" transform="matrix(14,0,0,14,342.9,254.4)" />
<use xlink:href="#f6_bt" transform="matrix(14,0,0,14,343.3,254.4)" />
<use xlink:href="#f6_d4" transform="matrix(14,0,0,14,355.2,254.4)" />
<use xlink:href="#f6_cb" transform="matrix(14,0,0,14,360.7,254.4)" />
<use xlink:href="#f6_d4" transform="matrix(14,0,0,14,375.7,254.4)" />
<use xlink:href="#f6_bb" transform="matrix(14,0,0,14,381.2,254.4)" />
<use xlink:href="#f6_bx" transform="matrix(14,0,0,14,393.9,254.4)" />
<use xlink:href="#f6_c1" transform="matrix(14,0,0,14,406.1,254.4)" />
<use xlink:href="#f6_ct" transform="matrix(14,0,0,14,414.5,254.4)" />
<use xlink:href="#f6_bp" transform="matrix(14,0,0,14,420.2,254.4)" />
<use xlink:href="#f6_d4" transform="matrix(14,0,0,14,432.6,254.4)" />
<use xlink:href="#f6_cc" transform="matrix(14,0,0,14,438.1,254.4)" />
<use xlink:href="#f6_d8" transform="matrix(14,0,0,14,449.7,254.4)" />
<use xlink:href="#f6_be" transform="matrix(14,0,0,14,119.5,288.8)" />
<use xlink:href="#f6_ct" transform="matrix(14,0,0,14,133.5,288.8)" />
<use xlink:href="#f6_cc" transform="matrix(14,0,0,14,139.1,288.8)" />
<use xlink:href="#f6_d4" transform="matrix(14,0,0,14,151,288.8)" />
<use xlink:href="#f6_cb" transform="matrix(14,0,0,14,156.3,288.8)" />
<use xlink:href="#f6_cw" transform="matrix(14,0,0,14,171.8,288.7)" />
<use xlink:href="#f6_ba" transform="matrix(14,0,0,14,171.2,288.8)" />
<use xlink:href="#f6_bz" transform="matrix(14,0,0,14,193.6,288.8)" />
<use xlink:href="#f6_oz" transform="matrix(14,0,0,14,207.1,288.8)" />
<use xlink:href="#f6_cc" transform="matrix(14,0,0,14,212.6,288.8)" />
<use xlink:href="#f6_d8" transform="matrix(14,0,0,14,224.2,288.8)" />
<use xlink:href="#f6_c0" transform="matrix(14,0,0,14,235.5,288.8)" />
<use xlink:href="#f6_ct" transform="matrix(14,0,0,14,248.1,288.8)" />
<use xlink:href="#f6_mv" transform="matrix(14,0,0,14,259.3,288.8)" />
<use xlink:href="#f6_dk" transform="matrix(14,0,0,14,271.1,288.8)" />
<use xlink:href="#f6_ba" transform="matrix(14,0,0,14,275.7,288.8)" />
<use xlink:href="#f6_bz" transform="matrix(14,0,0,14,298.1,288.8)" />
<use xlink:href="#f6_oz" transform="matrix(14,0,0,14,311.5,288.8)" />
<use xlink:href="#f6_g" transform="matrix(14,0,0,14,317.1,288.8)" />
<use xlink:href="#f6_q" transform="matrix(14,0,0,14,323,288.8)" />
<use xlink:href="#f6_h" transform="matrix(14,0,0,14,334.6,288.8)" />
<use xlink:href="#f6_bx" transform="matrix(14,0,0,14,340.5,288.8)" />
<use xlink:href="#f6_cb" transform="matrix(14,0,0,14,352.8,288.8)" />
<use xlink:href="#f6_bq" transform="matrix(14,0,0,14,373.3,288.8)" />
<use xlink:href="#f6_ct" transform="matrix(14,0,0,14,386.5,288.8)" />
<use xlink:href="#f6_bz" transform="matrix(14,0,0,14,392.1,288.8)" />
<use xlink:href="#f6_d4" transform="matrix(14,0,0,14,405.6,288.8)" />
<use xlink:href="#f6_c1" transform="matrix(14,0,0,14,411.1,288.8)" />
<use xlink:href="#f6_ba" transform="matrix(14,0,0,14,419.5,288.8)" />
<use xlink:href="#f6_bt" transform="matrix(14,0,0,14,436.2,288.8)" />
<use xlink:href="#f6_ct" transform="matrix(14,0,0,14,447.9,288.8)" />
<use xlink:href="#f6_cc" transform="matrix(14,0,0,14,459.2,288.8)" />
<use xlink:href="#f6_ct" transform="matrix(14,0,0,14,470.8,288.8)" />
<use xlink:href="#f6_no" transform="matrix(14,0,0,14,476.4,288.8)" />
<use xlink:href="#f6_bq" transform="matrix(14,0,0,14,476.4,288.8)" />
<use xlink:href="#f6_k" transform="matrix(14,0,0,14,495.3,288.8)" />
<use xlink:href="#f6_br" transform="matrix(14,0,0,14,161.9,323.1)" />
<use xlink:href="#f6_ct" transform="matrix(14,0,0,14,173.5,323.1)" />
<use xlink:href="#f6_br" transform="matrix(14,0,0,14,179.2,323.1)" />
<use xlink:href="#f6_ct" transform="matrix(14,0,0,14,190.8,323.1)" />
<use xlink:href="#f6_cc" transform="matrix(14,0,0,14,202.1,323.1)" />
<use xlink:href="#f6_bz" transform="matrix(14,0,0,14,213.7,323.1)" />
<use xlink:href="#f6_b9" transform="matrix(14,0,0,14,227.1,323.1)" />
<use xlink:href="#f6_d8" transform="matrix(14,0,0,14,242.6,323.1)" />
<use xlink:href="#f6_br" transform="matrix(14,0,0,14,253.9,323.1)" />
<use xlink:href="#f6_ob" transform="matrix(14,0,0,14,265.5,323.1)" />
<use xlink:href="#f6_nu" transform="matrix(14,0,0,14,271.1,323.1)" />
<use xlink:href="#f6_bg" transform="matrix(14,0,0,14,276.8,323.1)" />
<use xlink:href="#f6_c0" transform="matrix(14,0,0,14,291,323.1)" />
<use xlink:href="#f6_d4" transform="matrix(14,0,0,14,303.7,323.1)" />
<use xlink:href="#f6_bg" transform="matrix(14,0,0,14,309.2,323.1)" />
<use xlink:href="#f6_bt" transform="matrix(14,0,0,14,323.5,323.1)" />
<use xlink:href="#f6_bz" transform="matrix(14,0,0,14,335.2,323.1)" />
<use xlink:href="#f6_bg" transform="matrix(14,0,0,14,354.2,323.1)" />
<use xlink:href="#f6_bt" transform="matrix(14,0,0,14,368.5,323.1)" />
<use xlink:href="#f6_bz" transform="matrix(14,0,0,14,380.2,323.1)" />
<use xlink:href="#f6_b9" transform="matrix(14,0,0,14,399.2,323.1)" />
<use xlink:href="#f6_ct" transform="matrix(14,0,0,14,414.7,323.1)" />
<use xlink:href="#f6_cb" transform="matrix(14,0,0,14,426,323.1)" />
<use xlink:href="#f6_ct" transform="matrix(14,0,0,14,440.9,323.1)" />
<use xlink:href="#f6_no" transform="matrix(14,0,0,14,446.5,323.1)" />
<use xlink:href="#f6_bq" transform="matrix(14,0,0,14,446.5,323.1)" />
<use xlink:href="#f6_bg" transform="matrix(14,0,0,14,136.7,391.9)" />
<use xlink:href="#f6_cw" transform="matrix(14,0,0,14,151.5,391.8)" />
<use xlink:href="#f6_c3" transform="matrix(14,0,0,14,150.9,391.9)" />
<use xlink:href="#f6_cb" transform="matrix(14,0,0,14,165.6,391.9)" />
<use xlink:href="#f6_c1" transform="matrix(14,0,0,14,186.2,391.9)" />
<use xlink:href="#f6_cc" transform="matrix(14,0,0,14,194.5,391.9)" />
<use xlink:href="#f6_d4" transform="matrix(14,0,0,14,206.5,391.9)" />
<use xlink:href="#f6_bb" transform="matrix(14,0,0,14,211.8,391.9)" />
<use xlink:href="#f6_bz" transform="matrix(14,0,0,14,224.4,391.9)" />
<use xlink:href="#f6_b9" transform="matrix(14,0,0,14,243.4,391.9)" />
<use xlink:href="#f6_oc" transform="matrix(14,0,0,14,258.9,391.9)" />
<use xlink:href="#f6_bs" transform="matrix(14,0,0,14,270.2,391.9)" />
<use xlink:href="#f6_cw" transform="matrix(14,0,0,14,284.8,391.8)" />
<use xlink:href="#f6_bv" transform="matrix(14,0,0,14,284.2,391.9)" />
<use xlink:href="#f6_bz" transform="matrix(14,0,0,14,301.8,391.9)" />
<use xlink:href="#f6_oz" transform="matrix(14,0,0,14,315.2,391.9)" />
<use xlink:href="#f6_ll" transform="matrix(14,0,0,14,320.8,391.9)" />
<use xlink:href="#f6_c0" transform="matrix(14,0,0,14,327.2,391.9)" />
<use xlink:href="#f6_ct" transform="matrix(14,0,0,14,339.7,391.9)" />
<use xlink:href="#f6_c1" transform="matrix(14,0,0,14,345.4,391.9)" />
<use xlink:href="#f6_b9" transform="matrix(14,0,0,14,359.4,391.9)" />
<use xlink:href="#f6_oc" transform="matrix(14,0,0,14,374.9,391.9)" />
<use xlink:href="#f6_bf" transform="matrix(14,0,0,14,386.2,391.9)" />
<use xlink:href="#f6_ct" transform="matrix(14,0,0,14,401.9,391.9)" />
<use xlink:href="#f6_c0" transform="matrix(14,0,0,14,407.5,391.9)" />
<use xlink:href="#f6_ct" transform="matrix(14,0,0,14,420.1,391.9)" />
<use xlink:href="#f6_b9" transform="matrix(14,0,0,14,431.4,391.9)" />
<use xlink:href="#f6_c1" transform="matrix(14,0,0,14,446.9,391.9)" />
<use xlink:href="#f6_br" transform="matrix(14,0,0,14,455.2,391.9)" />
<use xlink:href="#f6_d4" transform="matrix(14,0,0,14,466.5,391.9)" />
<use xlink:href="#f6_bp" transform="matrix(14,0,0,14,472.6,391.9)" />
<use xlink:href="#f6_cx" transform="matrix(14,0,0,14,484.8,391.8)" />
<use xlink:href="#f6_cu" transform="matrix(14,0,0,14,128.6,426.3)" />
<use xlink:href="#f6_bx" transform="matrix(14,0,0,14,134.3,426.3)" />
<use xlink:href="#f6_bt" transform="matrix(14,0,0,14,146.6,426.3)" />
<use xlink:href="#f6_bz" transform="matrix(14,0,0,14,163.9,426.3)" />
<use xlink:href="#f6_ct" transform="matrix(14,0,0,14,177.3,426.3)" />
<use xlink:href="#f6_dj" transform="matrix(14,0,0,14,177.5,426.7)" />
<use xlink:href="#f6_bh" transform="matrix(14,0,0,14,182.9,426.3)" />
<use xlink:href="#f6_cv" transform="matrix(14,0,0,14,199.7,426.3)" />
<use xlink:href="#f6_b9" transform="matrix(14,0,0,14,211,426.3)" />
<use xlink:href="#f6_d4" transform="matrix(14,0,0,14,222.1,426.3)" />
<use xlink:href="#f6_bt" transform="matrix(14,0,0,14,232.1,426.3)" />
<use xlink:href="#f6_ct" transform="matrix(14,0,0,14,243.8,426.3)" />
<use xlink:href="#f6_c7" transform="matrix(14,0,0,14,249.5,426.3)" />
<use xlink:href="#f6_be" transform="matrix(14,0,0,14,267.2,426.3)" />
<use xlink:href="#f6_c3" transform="matrix(14,0,0,14,281.2,426.3)" />
<use xlink:href="#f6_d4" transform="matrix(14,0,0,14,296,426.3)" />
<use xlink:href="#f6_bt" transform="matrix(14,0,0,14,301.6,426.3)" />
<use xlink:href="#f6_ct" transform="matrix(14,0,0,14,313.3,426.3)" />
<use xlink:href="#f6_al" transform="matrix(14,0,0,14,324.6,426.3)" />
<use xlink:href="#f6_bx" transform="matrix(14,0,0,14,340.4,426.3)" />
<use xlink:href="#f6_bv" transform="matrix(14,0,0,14,358.4,426.3)" />
<use xlink:href="#f6_bp" transform="matrix(14,0,0,14,370.2,426.3)" />
<use xlink:href="#f6_c7" transform="matrix(14,0,0,14,382.6,426.3)" />
<use xlink:href="#f6_ct" transform="matrix(14,0,0,14,394.6,426.3)" />
<use xlink:href="#f6_c1" transform="matrix(14,0,0,14,400.3,426.3)" />
<use xlink:href="#f6_bv" transform="matrix(14,0,0,14,414.3,426.3)" />
<use xlink:href="#f6_b9" transform="matrix(14,0,0,14,426.2,426.3)" />
<use xlink:href="#f6_ch" transform="matrix(14,0,0,14,441.7,426.3)" />
<use xlink:href="#f6_c3" transform="matrix(14,0,0,14,460,426.3)" />
<use xlink:href="#f6_d4" transform="matrix(14,0,0,14,474.8,426.3)" />
<use xlink:href="#f6_bp" transform="matrix(14,0,0,14,480.4,426.3)" />
<use xlink:href="#f6_cx" transform="matrix(14,0,0,14,492.6,426.1)" />
<use xlink:href="#f6_bz" transform="matrix(14,0,0,14,136.7,460.6)" />
<use xlink:href="#f6_d4" transform="matrix(14,0,0,14,150.1,460.6)" />
<use xlink:href="#f6_c1" transform="matrix(14,0,0,14,150,460.6)" />
<use xlink:href="#f6_ct" transform="matrix(14,0,0,14,158.4,460.6)" />
<use xlink:href="#f6_c1" transform="matrix(14,0,0,14,169.7,460.6)" />
<use xlink:href="#f6_m1" transform="matrix(14,0,0,14,178,460.6)" />
<use xlink:href="#f6_bp" transform="matrix(14,0,0,14,186.9,460.6)" />
<use xlink:href="#f6_ct" transform="matrix(14,0,0,14,199.3,460.6)" />
<use xlink:href="#f6_c1" transform="matrix(14,0,0,14,210.5,460.6)" />
<use xlink:href="#f6_d8" transform="matrix(14,0,0,14,218.9,460.6)" />
<use xlink:href="#f6_c8" transform="matrix(14,0,0,14,224.5,460.6)" />
<use xlink:href="#f6_bt" transform="matrix(14,0,0,14,240.4,460.6)" />
<use xlink:href="#f6_b9" transform="matrix(14,0,0,14,257.8,460.6)" />
<use xlink:href="#f6_c1" transform="matrix(14,0,0,14,273.3,460.6)" />
<use xlink:href="#f6_br" transform="matrix(14,0,0,14,287.3,460.6)" />
<use xlink:href="#f6_d8" transform="matrix(14,0,0,14,299,460.6)" />
<use xlink:href="#f6_g" transform="matrix(14,0,0,14,310.3,460.6)" />
<use xlink:href="#f6_q" transform="matrix(14,0,0,14,316.2,460.6)" />
<use xlink:href="#f6_h" transform="matrix(14,0,0,14,327.8,460.6)" />
<use xlink:href="#f6_bf" transform="matrix(14,0,0,14,333.7,460.6)" />
<use xlink:href="#f6_ct" transform="matrix(14,0,0,14,349.4,460.6)" />
<use xlink:href="#f6_c0" transform="matrix(14,0,0,14,355,460.6)" />
<use xlink:href="#f6_cv" transform="matrix(14,0,0,14,367.6,460.6)" />
<use xlink:href="#f6_al" transform="matrix(14,0,0,14,378.8,460.6)" />
<use xlink:href="#f6_dj" transform="matrix(14,0,0,14,391.8,461.1)" />
<use xlink:href="#f6_nt" transform="matrix(14,0,0,14,394.7,460.6)" />
<use xlink:href="#f6_nl" transform="matrix(14,0,0,14,400.3,460.6)" />
<use xlink:href="#f6_bs" transform="matrix(14,0,0,14,400.3,460.6)" />
<use xlink:href="#f6_c0" transform="matrix(14,0,0,14,414.3,460.6)" />
<use xlink:href="#f6_ct" transform="matrix(14,0,0,14,426.9,460.6)" />
<use xlink:href="#f6_c1" transform="matrix(14,0,0,14,432.5,460.6)" />
<use xlink:href="#f6_cv" transform="matrix(14,0,0,14,440.9,460.6)" />
<use xlink:href="#f6_c1" transform="matrix(14,0,0,14,452.2,460.6)" />
<use xlink:href="#f6_ct" transform="matrix(14,0,0,14,460.5,460.6)" />
<use xlink:href="#f6_bp" transform="matrix(14,0,0,14,466.2,460.6)" />
<use xlink:href="#f6_k" transform="matrix(14,0,0,14,478.5,460.6)" />
<use xlink:href="#f6_br" transform="matrix(14,0,0,14,161.9,495)" />
<use xlink:href="#f6_ct" transform="matrix(14,0,0,14,173.5,495)" />
<use xlink:href="#f6_br" transform="matrix(14,0,0,14,179.2,495)" />
<use xlink:href="#f6_ct" transform="matrix(14,0,0,14,190.8,495)" />
<use xlink:href="#f6_cc" transform="matrix(14,0,0,14,202.1,495)" />
<use xlink:href="#f6_bz" transform="matrix(14,0,0,14,213.7,495)" />
<use xlink:href="#f6_b9" transform="matrix(14,0,0,14,227.1,495)" />
<use xlink:href="#f6_d8" transform="matrix(14,0,0,14,242.6,495)" />
<use xlink:href="#f6_br" transform="matrix(14,0,0,14,253.9,495)" />
<use xlink:href="#f6_ob" transform="matrix(14,0,0,14,265.5,495)" />
<use xlink:href="#f6_nu" transform="matrix(14,0,0,14,271.1,495)" />
<use xlink:href="#f6_bg" transform="matrix(14,0,0,14,276.8,495)" />
<use xlink:href="#f6_c0" transform="matrix(14,0,0,14,291,495)" />
<use xlink:href="#f6_d4" transform="matrix(14,0,0,14,303.7,495)" />
<use xlink:href="#f6_bg" transform="matrix(14,0,0,14,309.2,495)" />
<use xlink:href="#f6_bt" transform="matrix(14,0,0,14,323.5,495)" />
<use xlink:href="#f6_bz" transform="matrix(14,0,0,14,335.2,495)" />
<use xlink:href="#f6_bg" transform="matrix(14,0,0,14,354.2,495)" />
<use xlink:href="#f6_bt" transform="matrix(14,0,0,14,368.5,495)" />
<use xlink:href="#f6_bz" transform="matrix(14,0,0,14,380.2,495)" />
<use xlink:href="#f6_b9" transform="matrix(14,0,0,14,399.2,495)" />
<use xlink:href="#f6_ct" transform="matrix(14,0,0,14,414.7,495)" />
<use xlink:href="#f6_cb" transform="matrix(14,0,0,14,426,495)" />
<use xlink:href="#f6_ct" transform="matrix(14,0,0,14,440.9,495)" />
<use xlink:href="#f6_no" transform="matrix(14,0,0,14,446.5,495)" />
<use xlink:href="#f6_bq" transform="matrix(14,0,0,14,446.5,495)" />
<use xlink:href="#f6_an" transform="matrix(14,0,0,14,130.9,563.8)" />
<use xlink:href="#f6_cb" transform="matrix(14,0,0,14,142.4,563.8)" />
<use xlink:href="#f6_cv" transform="matrix(14,0,0,14,157.3,563.8)" />
<use xlink:href="#f6_bg" transform="matrix(14,0,0,14,168.6,563.8)" />
<use xlink:href="#f6_bt" transform="matrix(14,0,0,14,182.9,563.8)" />
<use xlink:href="#f6_bz" transform="matrix(14,0,0,14,194.6,563.8)" />
<use xlink:href="#f6_bz" transform="matrix(14,0,0,14,213.6,563.8)" />
<use xlink:href="#f6_oz" transform="matrix(14,0,0,14,227,563.8)" />
<use xlink:href="#f6_cb" transform="matrix(14,0,0,14,232.6,563.8)" />
<use xlink:href="#f6_d4" transform="matrix(14,0,0,14,247.6,563.8)" />
<use xlink:href="#f6_c7" transform="matrix(14,0,0,14,247.5,563.8)" />
<use xlink:href="#f6_ct" transform="matrix(14,0,0,14,259.5,563.8)" />
<use xlink:href="#f6_br" transform="matrix(14,0,0,14,270.8,563.8)" />
<use xlink:href="#f6_d4" transform="matrix(14,0,0,14,282,563.8)" />
<use xlink:href="#f6_b9" transform="matrix(14,0,0,14,282.5,563.8)" />
<use xlink:href="#f6_c1" transform="matrix(14,0,0,14,298,563.8)" />
<use xlink:href="#f6_bx" transform="matrix(14,0,0,14,312,563.8)" />
<use xlink:href="#f6_n5" transform="matrix(14,0,0,14,324.3,563.8)" />
<use xlink:href="#f6_bp" transform="matrix(14,0,0,14,335.9,563.8)" />
<use xlink:href="#f6_bx" transform="matrix(14,0,0,14,353.9,563.8)" />
<use xlink:href="#f6_ch" transform="matrix(14,0,0,14,366.2,563.8)" />
<use xlink:href="#f6_ct" transform="matrix(14,0,0,14,378.9,563.8)" />
<use xlink:href="#f6_ax" transform="matrix(14,0,0,14,390.2,563.8)" />
<use xlink:href="#f6_cc" transform="matrix(14,0,0,14,402,563.8)" />
<use xlink:href="#f6_cb" transform="matrix(14,0,0,14,413.6,563.8)" />
<use xlink:href="#f6_ct" transform="matrix(14,0,0,14,428.5,563.8)" />
<use xlink:href="#f6_bt" transform="matrix(14,0,0,14,434.1,563.8)" />
<use xlink:href="#f6_cu" transform="matrix(14,0,0,14,451.5,563.8)" />
<use xlink:href="#f6_b9" transform="matrix(14,0,0,14,457.1,563.8)" />
<use xlink:href="#f6_c0" transform="matrix(14,0,0,14,472.6,563.8)" />
<use xlink:href="#f6_ct" transform="matrix(14,0,0,14,485.2,563.8)" />
<use xlink:href="#f6_bp" transform="matrix(14,0,0,14,134.4,598.1)" />
<use xlink:href="#f6_cx" transform="matrix(14,0,0,14,146.6,598)" />
<use xlink:href="#f6_cc" transform="matrix(14,0,0,14,152.3,598.1)" />
<use xlink:href="#f6_cv" transform="matrix(14,0,0,14,164,598.1)" />
<use xlink:href="#f6_bz" transform="matrix(14,0,0,14,175.2,598.1)" />
<use xlink:href="#f6_ct" transform="matrix(14,0,0,14,188.6,598.1)" />
<use xlink:href="#f6_dj" transform="matrix(14,0,0,14,188.8,598.6)" />
<use xlink:href="#f6_bh" transform="matrix(14,0,0,14,194.2,598.1)" />
<use xlink:href="#f6_cv" transform="matrix(14,0,0,14,211,598.1)" />
<use xlink:href="#f6_bp" transform="matrix(14,0,0,14,222.3,598.1)" />
<use xlink:href="#f6_cx" transform="matrix(14,0,0,14,234.5,598)" />
<use xlink:href="#f6_cc" transform="matrix(14,0,0,14,240.2,598.1)" />
<use xlink:href="#f6_cv" transform="matrix(14,0,0,14,251.9,598.1)" />
<use xlink:href="#f6_nv" transform="matrix(14,0,0,14,263.1,598.1)" />
<use xlink:href="#f6_ba" transform="matrix(14,0,0,14,268.8,598.1)" />
<use xlink:href="#f6_c7" transform="matrix(14,0,0,14,285.5,598.1)" />
<use xlink:href="#f6_d5" transform="matrix(14,0,0,14,297.7,598.1)" />
<use xlink:href="#f6_c0" transform="matrix(14,0,0,14,297.6,598.1)" />
<use xlink:href="#f6_ct" transform="matrix(14,0,0,14,310.1,598.1)" />
<use xlink:href="#f6_bz" transform="matrix(14,0,0,14,321.4,598.1)" />
<use xlink:href="#f6_d4" transform="matrix(14,0,0,14,334.9,598.1)" />
<use xlink:href="#f6_bt" transform="matrix(14,0,0,14,334.7,598.1)" />
<use xlink:href="#f6_d4" transform="matrix(14,0,0,14,346.6,598.1)" />
<use xlink:href="#f6_bp" transform="matrix(14,0,0,14,352.1,598.1)" />
<use xlink:href="#f6_cw" transform="matrix(14,0,0,14,365,598)" />
<use xlink:href="#f6_bh" transform="matrix(14,0,0,14,364.4,598.1)" />
<use xlink:href="#f6_d4" transform="matrix(14,0,0,14,381.3,598.1)" />
<use xlink:href="#f6_bv" transform="matrix(14,0,0,14,386.9,598.1)" />
<use xlink:href="#f6_cc" transform="matrix(14,0,0,14,398.7,598.1)" />
<use xlink:href="#f6_be" transform="matrix(14,0,0,14,410.3,598.1)" />
<use xlink:href="#f6_ct" transform="matrix(14,0,0,14,424.3,598.1)" />
<use xlink:href="#f6_bt" transform="matrix(14,0,0,14,429.9,598.1)" />
<use xlink:href="#f6_nu" transform="matrix(14,0,0,14,447.3,598.1)" />
<use xlink:href="#f6_c3" transform="matrix(14,0,0,14,452.9,598.1)" />
<use xlink:href="#f6_c0" transform="matrix(14,0,0,14,467.7,598.1)" />
<use xlink:href="#f6_ct" transform="matrix(14,0,0,14,480.2,598.1)" />
<use xlink:href="#f6_c1" transform="matrix(14,0,0,14,140.1,632.5)" />
<use xlink:href="#f6_cc" transform="matrix(14,0,0,14,148.5,632.5)" />
<use xlink:href="#f6_d4" transform="matrix(14,0,0,14,160.4,632.5)" />
<use xlink:href="#f6_cb" transform="matrix(14,0,0,14,165.7,632.5)" />
<use xlink:href="#f6_ct" transform="matrix(14,0,0,14,180.6,632.5)" />
<use xlink:href="#f6_no" transform="matrix(14,0,0,14,186.2,632.5)" />
<use xlink:href="#f6_bq" transform="matrix(14,0,0,14,186.2,632.5)" />
<use xlink:href="#f6_bg" transform="matrix(14,0,0,14,205.1,632.5)" />
<use xlink:href="#f6_bt" transform="matrix(14,0,0,14,219.4,632.5)" />
<use xlink:href="#f6_bz" transform="matrix(14,0,0,14,231.1,632.5)" />
<use xlink:href="#f6_bg" transform="matrix(14,0,0,14,250.1,632.5)" />
<use xlink:href="#f6_bt" transform="matrix(14,0,0,14,264.3,632.5)" />
<use xlink:href="#f6_bz" transform="matrix(14,0,0,14,276.1,632.5)" />
<use xlink:href="#f6_d8" transform="matrix(14,0,0,14,289.4,632.5)" />
<use xlink:href="#f6_bp" transform="matrix(14,0,0,14,300.7,632.5)" />
<use xlink:href="#f6_b9" transform="matrix(14,0,0,14,313,632.5)" />
<use xlink:href="#f6_g" transform="matrix(14,0,0,14,334.2,632.5)" />
<use xlink:href="#f6_n8" transform="matrix(14,0,0,14,340,632.5)" />
<use xlink:href="#f6_h" transform="matrix(14,0,0,14,350.4,632.5)" />
<use xlink:href="#f6_bx" transform="matrix(14,0,0,14,362,632.5)" />
<use xlink:href="#f6_cb" transform="matrix(14,0,0,14,374.3,632.5)" />
<use xlink:href="#f6_c1" transform="matrix(14,0,0,14,394.8,632.5)" />
<use xlink:href="#f6_ba" transform="matrix(14,0,0,14,403.2,632.5)" />
<use xlink:href="#f6_c3" transform="matrix(14,0,0,14,419.9,632.5)" />
<use xlink:href="#f6_d8" transform="matrix(14,0,0,14,434.6,632.5)" />
<use xlink:href="#f6_bx" transform="matrix(14,0,0,14,445.9,632.5)" />
<use xlink:href="#f6_ct" transform="matrix(14,0,0,14,458.2,632.5)" />
<use xlink:href="#f6_bp" transform="matrix(14,0,0,14,463.8,632.5)" />
<use xlink:href="#f6_k" transform="matrix(14,0,0,14,476.1,632.5)" />
<use xlink:href="#f6_br" transform="matrix(14,0,0,14,161.9,666.9)" />
<use xlink:href="#f6_ct" transform="matrix(14,0,0,14,173.5,666.9)" />
<use xlink:href="#f6_br" transform="matrix(14,0,0,14,179.2,666.9)" />
<use xlink:href="#f6_ct" transform="matrix(14,0,0,14,190.8,666.9)" />
<use xlink:href="#f6_cc" transform="matrix(14,0,0,14,202.1,666.9)" />
<use xlink:href="#f6_bz" transform="matrix(14,0,0,14,213.7,666.9)" />
<use xlink:href="#f6_b9" transform="matrix(14,0,0,14,227.1,666.9)" />
<use xlink:href="#f6_d8" transform="matrix(14,0,0,14,242.6,666.9)" />
<use xlink:href="#f6_br" transform="matrix(14,0,0,14,253.9,666.9)" />
<use xlink:href="#f6_ob" transform="matrix(14,0,0,14,265.5,666.9)" />
<use xlink:href="#f6_nu" transform="matrix(14,0,0,14,271.1,666.9)" />
<use xlink:href="#f6_bg" transform="matrix(14,0,0,14,276.8,666.9)" />
<use xlink:href="#f6_c0" transform="matrix(14,0,0,14,291,666.9)" />
<use xlink:href="#f6_d4" transform="matrix(14,0,0,14,303.7,666.9)" />
<use xlink:href="#f6_bg" transform="matrix(14,0,0,14,309.2,666.9)" />
<use xlink:href="#f6_bt" transform="matrix(14,0,0,14,323.5,666.9)" />
<use xlink:href="#f6_bz" transform="matrix(14,0,0,14,335.2,666.9)" />
<use xlink:href="#f6_bg" transform="matrix(14,0,0,14,354.2,666.9)" />
<use xlink:href="#f6_bt" transform="matrix(14,0,0,14,368.5,666.9)" />
<use xlink:href="#f6_bz" transform="matrix(14,0,0,14,380.2,666.9)" />
<use xlink:href="#f6_b9" transform="matrix(14,0,0,14,399.2,666.9)" />
<use xlink:href="#f6_ct" transform="matrix(14,0,0,14,414.7,666.9)" />
<use xlink:href="#f6_cb" transform="matrix(14,0,0,14,426,666.9)" />
<use xlink:href="#f6_ct" transform="matrix(14,0,0,14,440.9,666.9)" />
<use xlink:href="#f6_no" transform="matrix(14,0,0,14,446.5,666.9)" />
<use xlink:href="#f6_bq" transform="matrix(14,0,0,14,446.5,666.9)" />
<use xlink:href="#f6_bz" transform="matrix(14,0,0,14,155,701.3)" />
<use xlink:href="#f6_d4" transform="matrix(14,0,0,14,168.5,701.3)" />
<use xlink:href="#f6_c1" transform="matrix(14,0,0,14,168.3,701.3)" />
<use xlink:href="#f6_d4" transform="matrix(14,0,0,14,176.3,701.3)" />
<use xlink:href="#f6_cb" transform="matrix(14,0,0,14,182.4,701.3)" />
<use xlink:href="#f6_c1" transform="matrix(14,0,0,14,197.3,701.3)" />
<use xlink:href="#f6_bv" transform="matrix(14,0,0,14,211.3,701.3)" />
<use xlink:href="#f6_c1" transform="matrix(14,0,0,14,223.2,701.3)" />
<use xlink:href="#f6_c1" transform="matrix(14,0,0,14,237.2,701.3)" />
<use xlink:href="#f6_ba" transform="matrix(14,0,0,14,245.6,701.3)" />
<use xlink:href="#f6_br" transform="matrix(14,0,0,14,268,701.3)" />
<use xlink:href="#f6_d8" transform="matrix(14,0,0,14,279.6,701.3)" />
<use xlink:href="#f6_br" transform="matrix(14,0,0,14,290.9,701.3)" />
<use xlink:href="#f6_ct" transform="matrix(14,0,0,14,302.6,701.3)" />
<use xlink:href="#f6_br" transform="matrix(14,0,0,14,308.2,701.3)" />
<use xlink:href="#f6_ct" transform="matrix(14,0,0,14,319.9,701.3)" />
<use xlink:href="#f6_al" transform="matrix(14,0,0,14,331.2,701.3)" />
<use xlink:href="#f6_bv" transform="matrix(14,0,0,14,347,701.3)" />
<use xlink:href="#f6_bt" transform="matrix(14,0,0,14,358.9,701.3)" />
<use xlink:href="#f6_d4" transform="matrix(14,0,0,14,370.8,701.3)" />
<use xlink:href="#f6_c0" transform="matrix(14,0,0,14,376.3,701.3)" />
<use xlink:href="#f6_d4" transform="matrix(14,0,0,14,389,701.3)" />
<use xlink:href="#f6_br" transform="matrix(14,0,0,14,394.5,701.3)" />
<use xlink:href="#f6_d8" transform="matrix(14,0,0,14,406.2,701.3)" />
<use xlink:href="#f6_bt" transform="matrix(14,0,0,14,411.8,701.3)" />
<use xlink:href="#f6_d8" transform="matrix(14,0,0,14,423.5,701.3)" />
<use xlink:href="#f6_dj" transform="matrix(14,0,0,14,427.8,702.1)" />
<use xlink:href="#f6_cc" transform="matrix(14,0,0,14,434.8,701.3)" />
<use xlink:href="#f6_ct" transform="matrix(14,0,0,14,446.4,701.3)" />
<use xlink:href="#f6_no" transform="matrix(14,0,0,14,452,701.3)" />
<use xlink:href="#f6_bq" transform="matrix(14,0,0,14,452,701.3)" />
<use xlink:href="#f6_br" transform="matrix(14,0,0,14,152.7,735.6)" />
<use xlink:href="#f6_ct" transform="matrix(14,0,0,14,164.4,735.6)" />
<use xlink:href="#f6_br" transform="matrix(14,0,0,14,170,735.6)" />
<use xlink:href="#f6_ct" transform="matrix(14,0,0,14,181.7,735.6)" />
<use xlink:href="#f6_cc" transform="matrix(14,0,0,14,193,735.6)" />
<use xlink:href="#f6_bz" transform="matrix(14,0,0,14,204.6,735.6)" />
<use xlink:href="#f6_b9" transform="matrix(14,0,0,14,217.9,735.6)" />
<use xlink:href="#f6_d8" transform="matrix(14,0,0,14,233.4,735.6)" />
<use xlink:href="#f6_br" transform="matrix(14,0,0,14,244.7,735.6)" />
<use xlink:href="#f6_ob" transform="matrix(14,0,0,14,256.4,735.6)" />
<use xlink:href="#f6_nu" transform="matrix(14,0,0,14,262,735.6)" />
<use xlink:href="#f6_bg" transform="matrix(14,0,0,14,267.6,735.6)" />
<use xlink:href="#f6_c0" transform="matrix(14,0,0,14,281.9,735.6)" />
<use xlink:href="#f6_d4" transform="matrix(14,0,0,14,294.5,735.6)" />
<use xlink:href="#f6_bg" transform="matrix(14,0,0,14,300.1,735.6)" />
<use xlink:href="#f6_bt" transform="matrix(14,0,0,14,314.3,735.6)" />
<use xlink:href="#f6_bz" transform="matrix(14,0,0,14,326,735.6)" />
<use xlink:href="#f6_bg" transform="matrix(14,0,0,14,345,735.6)" />
<use xlink:href="#f6_bt" transform="matrix(14,0,0,14,359.3,735.6)" />
<use xlink:href="#f6_bz" transform="matrix(14,0,0,14,371,735.6)" />
<use xlink:href="#f6_b9" transform="matrix(14,0,0,14,390,735.6)" />
<use xlink:href="#f6_ct" transform="matrix(14,0,0,14,405.5,735.6)" />
<use xlink:href="#f6_cb" transform="matrix(14,0,0,14,416.8,735.6)" />
<use xlink:href="#f6_ct" transform="matrix(14,0,0,14,431.7,735.6)" />
<use xlink:href="#f6_no" transform="matrix(14,0,0,14,437.3,735.6)" />
<use xlink:href="#f6_bq" transform="matrix(14,0,0,14,437.3,735.6)" />
<use xlink:href="#f6_2s" transform="matrix(14,0,0,14,456.2,735.6)" />
<use xlink:href="#f6_2s" transform="matrix(14,0,0,14,462.4,735.6)" />
<use xlink:href="#f7_4r" transform="matrix(9,0,0,9,290.2,795.2)" />
<use xlink:href="#f8_m" transform="matrix(9,0,0,9,303,795.2)" />
<use xlink:href="#f8_r" transform="matrix(9,0,0,9,310.7,795.2)" />
<use xlink:href="#f7_4r" transform="matrix(9,0,0,9,321.3,795.2)" />
</g>
</g>
<image preserveAspectRatio="none" x="22" y="801" width="581" height="86" xlink:href="img/1.png"/>
<path d="M228,83.6H394.2v1.2H228V83.6Z" class="g1_33"/>
<image preserveAspectRatio="none" x="202" y="14" width="217" height="26" xlink:href="img/2.png"/>
<defs>
<path d="M952,-65L778,29V474H600c0,0,94,-91,94,-202c0,0,0,-98,-66,-163c0,0,-66,-65,-171,-65c0,0,-165,0,-280,155C177,199,63,354,-7,616l152,50c0,0,67,-223,120,-299c0,0,53,-77,122,-77c0,0,47,0,73,29c0,0,26,28,26,71c0,0,0,79,-73,128L298,559V681H778V822H0L-86,937l32,64H1137l85,-115l-32,-64H920l102,-73V-31L952,-65Z"
id="f5_bg"
transform="scale(0.001,-0.001)"/>

<path d="M746,-65L571,29V419H376V260L275,212c0,0,-87,48,-160,148c0,0,-72,100,-91,193l57,84H571V822H0L-86,937l32,64H930l88,-115L985,822H713L816,749V-31L746,-65Z"
id="f5_bt"
transform="scale(0.001,-0.001)"/>

<path d="M686,512V822H333L435,749l2,-237ZM860,-65L686,29V298H440V168L348,118c0,0,-90,30,-190,128c0,0,-100,98,-127,183l52,83H203L189,822H0L-86,937l32,64H1045l86,-115l-33,-64H828L930,749V-31L860,-65Z"
id="f5_bz"
transform="scale(0.001,-0.001)"/>

<path d="M300,310c13,0,56,2,103,25c0,0,58,27,100,81V523c0,0,-46,16,-83,16c0,0,-69,0,-111,-45c0,0,-42,-45,-42,-104c0,0,0,-45,28,-80c0,0,2,0,5,0ZM677,-65L503,29V144c0,0,-32,-11,-75,-11c0,0,-147,0,-272,98c0,0,-125,99,-125,233c0,0,0,110,75,185c0,0,76,74,195,74l67,-6L503,646V822H0L-86,937l32,64H1245l86,-115l-32,-64H645L747,749V622c0,0,81,58,165,58c0,0,122,0,213,-99c0,0,91,-98,91,-230c0,0,0,-204,-253,-371L791,157c0,0,110,83,164,139c0,0,53,55,53,106c0,0,0,55,-53,55c0,0,-83,0,-208,-145V-31L677,-65Z"
id="f5_b9"
transform="scale(0.001,-0.001)"/>

<path d="M277,-65L102,29V822H0L-86,937l32,64H463L548,886L516,822H244L347,749V-31L277,-65Z"
id="f5_ct"
transform="scale(0.001,-0.001)"/>

<path d="M833,530V822H434L539,749V530ZM533,-97L23,405L75,542H284c0,0,2,5,2,280H-10L-97,937l32,64H1193l86,-115l-32,-64H975l102,-73V-31l-70,-34L833,29V333H405L370,309L697,110V41L533,-97Z"
id="f5_cb"
transform="scale(0.001,-0.001)"/>

<path d="M0,822L-86,937l32,64H15L101,886L69,822Z"
id="f5_no"
transform="scale(0.001,-0.001)"/>

<path d="M842,-65L668,29V141c0,0,-66,-33,-142,-33c0,0,-146,0,-279,109c0,0,-134,108,-209,287l29,78c0,0,324,35,324,203c0,0,0,46,-27,80c0,0,-13,6,-29,6c0,0,-32,0,-57,-23c0,0,-24,-23,-24,-60c0,0,0,-49,45,-91L211,636C211,636,49,746,49,857c0,0,0,73,59,126c0,0,60,53,146,53c0,0,128,0,236,-109c0,0,107,-110,107,-239c0,0,0,-98,-74,-182c0,0,-75,-83,-222,-119c0,0,20,-51,52,-95c0,0,1,0,4,0c20,0,102,2,181,39c0,0,90,42,130,121V822H636L550,937l32,64h445l85,-115l-32,-64H810L912,749V-31L842,-65Z"
id="f5_bq"
transform="scale(0.001,-0.001)"/>

<path d="M689,445V822H286l65,-58l8,-319ZM779,-49L689,8V328H370V180L296,150c0,0,-56,35,-120,104c0,0,-63,70,-89,131l41,60H238L223,822H0l-45,76l14,31H953l46,-76L985,822H750l66,-58V-39L779,-49Z"
id="f6_bz"
transform="scale(0.001,-0.001)"/>

<path d="M-214,863l-199,281c0,0,-70,92,-157,92c0,0,-69,0,-159,-58l-72,118c0,0,89,73,180,73c0,0,141,0,258,-170L-155,901l-59,-38Z"
id="f6_d4"
transform="scale(0.001,-0.001)"/>

<path d="M527,-71L52,414l34,92H277c0,0,12,32,12,72V822H0l-45,76l14,31H599l46,-76L631,822H350l66,-55V564c0,0,0,-96,-152,-248L610,34L611,8L527,-71Z"
id="f6_c1"
transform="scale(0.001,-0.001)"/>

<path d="M799,475V822H350l66,-55V564c0,0,0,-43,-25,-89ZM527,-71L52,414l34,92H277c0,0,12,32,12,72V822H0l-45,76l14,31H1063l46,-76l-14,-31H860l66,-58V-39L889,-49L799,8V370H315L264,316L610,34L611,8L527,-71Z"
id="f6_cb"
transform="scale(0.001,-0.001)"/>

<path d="M388,325c0,0,58,0,112,31c0,0,53,31,84,86V822H165l69,-58V408c0,0,47,-83,154,-83ZM674,-49L584,8V257c0,0,-61,-51,-141,-51c0,0,-125,0,-232,109c0,0,-107,108,-107,243V822H0l-45,76l14,31H848l46,-76L880,822H645l65,-58V-39L674,-49Z"
id="f6_bv"
transform="scale(0.001,-0.001)"/>

<path d="M761,293c0,0,127,0,169,94V532c0,0,-68,46,-145,46c0,0,-76,0,-121,-46c0,0,-45,-45,-45,-107c0,0,0,-61,44,-110c0,0,47,-22,98,-22ZM657,67c0,0,166,0,273,107v55c0,0,-45,-36,-111,-36c0,0,-110,0,-207,90c0,0,-97,90,-97,194c0,0,0,85,66,148c0,0,65,63,155,63l48,-5L930,603V822H376l62,-55V579c0,0,0,-60,-23,-102c0,0,-24,-42,-148,-190c0,0,66,-104,175,-162c0,0,108,-58,215,-58ZM1021,-49L930,8V53c0,0,-105,-83,-264,-83c0,0,-177,0,-339,128C327,98,165,226,90,429l34,77H296c0,0,19,39,19,102l-2,214H0l-45,76l14,31H1195l46,-76l-14,-31H992l65,-58V-39l-36,-10Z"
id="f6_ba"
transform="scale(0.001,-0.001)"/>

<path d="M675,-274L602,21C602,21,550,3,498,3C498,3,347,3,210,118C210,118,73,232,73,373c0,0,0,113,84,184c0,0,84,71,222,72H524V822H0l-45,76l14,31H834l46,-76L866,822H585l66,-58V504l-3,2l3,-3H408c0,0,-95,0,-154,-53c0,0,-58,-53,-58,-132c0,0,0,-49,27,-100c0,0,28,-50,83,-84c0,0,44,-15,96,-15c0,0,91,0,160,46L535,303l101,48L773,188c0,0,-8,-28,-34,-66c0,0,-27,-38,-62,-64L813,-221L675,-274Z"
id="f6_br"
transform="scale(0.001,-0.001)"/>

<path d="M228,-49L138,8V822H0l-45,76l14,31H119L-33,1144c0,0,-70,92,-157,92c0,0,-69,0,-159,-58l-72,118c0,0,89,73,181,73c0,0,140,0,257,-170L205,929H402l46,-76L434,822H199l65,-58V-39L228,-49Z"
id="f6_d8"
transform="scale(0.001,-0.001)"/>

<path d="M228,-49L138,8V822H0l-45,76l14,31H402l46,-76L434,822H199l65,-58V-39L228,-49Z"
id="f6_ct"
transform="scale(0.001,-0.001)"/>

<path d="M959,-49L869,8V367c0,0,-32,-13,-64,-13c0,0,-50,0,-110,25c0,0,23,-52,23,-109c0,0,0,-103,-70,-170c0,0,-70,-66,-182,-66c0,0,-110,0,-222,82c0,0,-111,83,-213,293l68,42c0,0,72,-155,152,-231c0,0,81,-76,178,-76c0,0,83,0,131,49c0,0,48,48,48,117c0,0,0,54,-30,100c0,0,-31,47,-91,65L325,391L257,512c0,0,68,53,156,56c0,0,140,72,140,179c0,0,0,69,-52,99c0,0,-4,1,-11,1c-19,0,-66,-4,-123,-30c0,0,-78,-35,-142,-96L150,823c0,0,119,117,253,117c0,0,98,0,175,-71c0,0,77,-70,77,-159c0,0,0,-103,-94,-180c0,0,39,-23,73,-56c0,0,52,-22,109,-22c0,0,77,0,126,38V822H727l-46,76l14,31h439l45,-76l-13,-31H930l66,-58V-39L959,-49Z"
id="f6_al"
transform="scale(0.001,-0.001)"/>

<path d="M663,-49L573,8V445H299V280L226,251c0,0,-105,99,-162,238l63,72H573V822H0l-45,76l14,31H837l46,-76L869,822H634l66,-58V-39L663,-49Z"
id="f6_bt"
transform="scale(0.001,-0.001)"/>

<path d="M374,248c0,0,77,0,149,36c0,0,71,37,110,107V822H284c0,0,138,-96,138,-208c0,0,0,-151,-228,-192c0,0,29,-104,89,-158c0,0,41,-16,91,-16ZM723,-49L633,8V200c0,0,-69,-56,-170,-56c0,0,-122,0,-240,94c0,0,-118,94,-179,237l20,55c0,0,133,17,187,44c0,0,55,28,55,84c0,0,0,45,-30,81c0,0,-30,36,-99,83H0l-45,76l14,31H897l46,-76L929,822H694l65,-58V-39L723,-49Z"
id="f6_c0"
transform="scale(0.001,-0.001)"/>

<path d="M0,1062c0,0,-26,11,-60,36c0,0,-34,26,-51,49c0,0,39,81,91,110c0,0,60,-23,106,-85c0,0,-28,-70,-86,-110Z"
id="f6_dj"
transform="scale(0.001,-0.001)"/>

<path d="M688,-243c0,0,-256,53,-408,173c0,0,-152,119,-152,270c0,0,0,101,68,171c0,0,-101,84,-101,179c0,0,0,64,53,112c0,0,54,47,191,47H587V822H0l-45,76l14,31H830l45,-76L862,822H640l66,-58V585H362c0,0,-159,-1,-159,-92c0,0,0,-41,46,-80c0,0,76,47,183,47c0,0,135,0,230,-76c0,0,96,-75,96,-187C758,197,758,67,629,2L545,104c0,0,49,30,81,75c0,0,32,44,32,82c0,0,0,16,-4,26c0,0,-64,58,-167,58c0,0,-97,0,-166,-50v-2c0,0,-67,-52,-67,-131c0,0,0,-116,132,-199c0,0,132,-84,334,-132l-32,-74Z"
id="f6_cc"
transform="scale(0.001,-0.001)"/>

<path d="M0,822l-45,76l14,31H61l46,-76L93,822Z"
id="f6_no"
transform="scale(0.001,-0.001)"/>

<path d="M768,-49L678,8V202c0,0,-73,-58,-172,-58c0,0,-123,0,-240,94c0,0,-118,94,-179,237l20,55c0,0,134,12,215,70c0,0,81,57,81,141c0,0,0,90,-67,134l-26,3c0,0,-46,0,-74,-29c0,0,-28,-30,-28,-68c0,0,0,-55,82,-109L252,620C252,620,93,720,93,820c0,0,0,65,47,104c0,0,46,40,114,40c0,0,99,0,179,-83c0,0,80,-83,82,-197c0,0,0,-93,-79,-165c0,0,-78,-73,-199,-97c0,0,29,-104,88,-158c0,0,42,-16,92,-16c0,0,78,0,151,38c0,0,74,38,110,111V822H553l-46,76l14,31H943l45,-76L975,822H739l66,-58V-39L768,-49Z"
id="f6_bq"
transform="scale(0.001,-0.001)"/>

<path d="M108,-222l-44,58c0,0,96,81,104,164L89,61c0,0,12,83,93,122c0,0,50,-15,79,-55c0,0,29,-39,29,-90c0,0,0,-69,-48,-142c0,0,-48,-72,-134,-118Z"
id="f6_k"
transform="scale(0.001,-0.001)"/>

<path d="M283,260c0,0,122,0,209,113V513c0,0,-90,51,-160,51c0,0,-80,0,-129,-50c0,0,-49,-50,-49,-118c0,0,0,-60,35,-110c0,0,45,-26,94,-26ZM582,-49L492,8V211c0,0,-63,-54,-141,-54c0,0,-113,0,-213,92c0,0,-100,92,-100,205c0,0,0,93,69,157c0,0,69,64,162,64c0,0,32,0,64,-9L492,590V822H0l-45,76l14,31H1108l45,-76l-13,-31H553l66,-58V524c0,0,91,89,192,89c0,0,98,0,171,-79c0,0,72,-79,72,-186c0,0,0,-178,-224,-330L736,124c0,0,219,153,219,269c0,0,0,44,-26,75c0,0,-26,32,-81,32c0,0,-109,0,-229,-155V-39L582,-49Z"
id="f6_b9"
transform="scale(0.001,-0.001)"/>

<path d="M228,-49L138,8V822H0l-45,76l14,31H136c0,0,-173,353,-364,353c0,0,-75,0,-119,-44c0,0,-45,-45,-45,-106c0,0,0,-69,48,-128l-43,-32c0,0,-124,113,-124,224c0,0,0,87,67,146c0,0,68,59,167,59c0,0,150,0,283,-130c0,0,135,-130,219,-342H402l46,-76L434,822H199l65,-58V-39L228,-49Z"
id="f6_ob"
transform="scale(0.001,-0.001)"/>

<path d="M228,-49L138,8V822H0l-45,76l14,31H134c0,0,-91,93,-91,200c0,0,0,109,92,174c0,0,93,66,253,66c0,0,186,0,398,-89c0,0,212,-90,430,-264l-49,-47c0,0,-424,285,-727,285c0,0,-125,0,-201,-49c0,0,-76,-48,-76,-137c0,0,0,-67,52,-139H402l46,-76L434,822H199l65,-58V-39L228,-49Z"
id="f6_nu"
transform="scale(0.001,-0.001)"/>

<path d="M845,-49L755,8V513H497c0,0,61,-45,93,-110c0,0,33,-64,33,-128c0,0,0,-90,-58,-144c0,0,-59,-53,-143,-53c0,0,-133,0,-234,139C188,217,87,356,20,596l76,24c0,0,60,-201,127,-306c0,0,67,-105,160,-105c0,0,57,0,91,36c0,0,33,36,33,91c0,0,0,84,-73,159L295,558v71H755V822H0l-45,76l14,31H1019l46,-76l-14,-31H816l66,-58V-39L845,-49Z"
id="f6_bg"
transform="scale(0.001,-0.001)"/>

<path d="M163,-343V1123H281V-343Z"
id="f6_2s"
transform="scale(0.001,-0.001)"/>

<path d="M-234,-413c0,0,-210,0,-488,322l54,49c0,0,119,-128,209,-193c0,0,90,-65,177,-65c0,0,72,0,113,40c0,0,42,39,42,91c0,0,0,75,-78,106L-323,-181l-90,98c0,0,63,95,167,95c0,0,90,0,155,-69c0,0,66,-70,66,-164c0,0,0,-85,-60,-139c0,0,-61,-53,-149,-53Z"
id="f6_cw"
transform="scale(0.001,-0.001)"/>

<path d="M513,460c0,0,61,81,61,179c0,0,0,87,-45,143c0,0,-45,57,-116,57c0,0,-63,0,-102,-43c0,0,-39,-43,-39,-110c0,0,0,-90,68,-151c0,0,68,-61,173,-75ZM581,-83L278,167l-41,-4c0,0,-99,0,-130,37l47,168l51,12l78,-79c0,0,110,40,183,105c0,0,-141,23,-231,107c0,0,-90,84,-90,193c0,0,0,69,37,116H0l-45,76l14,31H1134l45,-76l-13,-31H930l66,-58V-39L959,-49L869,8V822H588c0,0,51,-44,75,-109c0,0,25,-64,25,-122c0,0,0,-105,-81,-213c0,0,-80,-108,-240,-176L658,18l2,-25L581,-83Z"
id="f6_c8"
transform="scale(0.001,-0.001)"/>

<path d="M342,324c0,0,45,0,75,34c0,0,31,33,31,100V822H165l66,-58V390c0,0,32,-66,111,-66ZM853,-49L762,8V822H509l65,-58V455c0,0,0,-134,-51,-185c0,0,-52,-52,-127,-52c0,0,-98,0,-195,99c0,0,-97,99,-97,209V822H0l-45,76l14,31H1027l46,-76l-14,-31H823l66,-58V-39L853,-49Z"
id="f6_bo"
transform="scale(0.001,-0.001)"/>

<path d="M727,-49L637,8V822H278l66,-58V226L270,196c0,0,-64,36,-122,98c0,0,-58,62,-79,122l43,59H217V822H0l-45,76l14,31H901l46,-76L933,822H698l66,-58V-39L727,-49Z"
id="f6_bb"
transform="scale(0.001,-0.001)"/>

<path d="M347,-57C347,-57,66,211,66,394c0,0,0,98,74,164c0,0,74,65,225,65H616V822H0l-45,76l14,31H880l46,-76L912,822H677l66,-58V-39L706,-49L616,8V500H428c0,0,-239,0,-239,-161c0,0,0,-136,214,-343L347,-57Z"
id="f6_bp"
transform="scale(0.001,-0.001)"/>

<path d="M413,-59C413,-59,53,193,53,416c0,0,0,97,66,164c0,0,66,66,156,66c0,0,61,0,110,-30L487,507c0,0,92,126,257,126l35,-2V822H0l-45,76l14,31H1043l46,-76l-13,-31H840l66,-58V-39L869,-49L779,8V547c0,0,-101,-5,-165,-90c0,0,-64,-86,-70,-222L507,225l-90,73c0,0,5,79,35,151c0,0,-59,66,-128,66c0,0,-57,0,-100,-38c0,0,-44,-39,-44,-109c0,0,0,-165,284,-360L413,-59Z"
id="f6_c3"
transform="scale(0.001,-0.001)"/>

<path d="M830,-253l-123,66c0,0,31,47,31,78c0,0,0,44,-64,84L353,130c0,0,-234,113,-234,325V822H0l-45,76l14,31H600L448,1144c0,0,-71,92,-158,92c0,0,-68,0,-159,-58L60,1296c0,0,88,73,180,73c0,0,140,0,258,-170L686,929H848l46,-76L880,822H655l68,-58V561c0,0,0,-176,-41,-241c0,0,-40,-65,-161,-106l-49,82l124,69V822H180l66,-58V283L646,92c0,0,126,-60,176,-110c0,0,50,-51,50,-115c0,0,0,-62,-42,-120Z"
id="f6_ay"
transform="scale(0.001,-0.001)"/>

<path d="M283,260c0,0,122,0,209,113V513c0,0,-90,51,-160,51c0,0,-80,0,-129,-50c0,0,-49,-50,-49,-118c0,0,0,-60,35,-110c0,0,45,-26,94,-26ZM619,521c0,0,93,104,192,104c0,0,98,0,170,-92c0,0,117,17,167,45c0,0,50,27,50,80c0,0,0,45,-30,81c0,0,-30,36,-99,83H553l66,-58V521ZM1267,248c0,0,76,0,148,36c0,0,72,37,110,107V822H1176c0,0,138,-96,138,-208c0,0,0,-151,-228,-192c0,0,29,-104,89,-158c0,0,41,-16,92,-16ZM582,-49L492,8V211c0,0,-63,-54,-141,-54c0,0,-113,0,-214,92c0,0,-102,92,-102,206c0,0,0,93,69,157c0,0,69,63,163,63c0,0,34,0,66,-9L492,590V822H0l-45,76l14,31H1789l46,-76l-14,-31H1586l66,-58V-39l-37,-10L1525,8V200c0,0,-69,-56,-170,-56c0,0,-121,0,-238,92c0,0,-118,92,-179,235c0,0,-35,41,-89,41c0,0,-51,0,-105,-41c0,0,-53,-42,-125,-129V-39L582,-49Z"
id="f6_ik"
transform="scale(0.001,-0.001)"/>

<path d="M-233,1021c0,0,-84,0,-168,55c0,0,-84,56,-146,162l51,50c0,0,95,-162,219,-162c0,0,125,0,160,157L-7,1234c0,0,-21,-103,-81,-158c0,0,-61,-55,-145,-55Zm-41,201c0,0,-66,25,-102,80c0,0,32,68,82,101c0,0,55,-20,99,-80c0,0,-26,-67,-79,-101Z"
id="f6_di"
transform="scale(0.001,-0.001)"/>

<path d="M348,229c0,0,57,0,106,17L263,559c0,0,-95,-50,-95,-162c0,0,0,-75,52,-136c0,0,49,-32,128,-32Zm170,48c0,0,61,38,96,91V504c0,0,-131,80,-244,80l-35,-2L518,277ZM704,-49L614,8V193c0,0,-84,-65,-192,-65c0,0,-139,0,-255,98c0,0,-115,98,-115,226c0,0,0,106,77,175c0,0,77,70,189,70c0,0,38,0,75,-9L614,578V822H0l-45,76l14,31H878l46,-76L911,822H675l66,-58V-39L704,-49Z"
id="f6_bx"
transform="scale(0.001,-0.001)"/>

<path d="M825,-49L735,8V217c0,0,-86,-72,-197,-72c0,0,-130,0,-238,91c0,0,-107,91,-107,204c0,0,0,55,27,105H55L12,616l14,30H574l46,-76L607,539H396c0,0,-78,-49,-78,-162c0,0,0,-70,40,-111c0,0,39,-15,94,-15c0,0,84,0,163,41c0,0,79,41,120,121V822H0l-45,76l14,31H999l46,-76l-14,-31H796l66,-58V-39L825,-49Z"
id="f6_be"
transform="scale(0.001,-0.001)"/>

<path d="M-91,1001c0,0,-27,10,-61,36c0,0,-33,26,-50,49c0,0,38,81,90,110c0,0,61,-23,107,-85c0,0,-28,-71,-86,-110ZM-214,863l-199,281c0,0,-70,92,-157,92c0,0,-69,0,-159,-58l-72,118c0,0,89,73,180,73c0,0,141,0,258,-170L-155,901l-59,-38Z"
id="f6_oz"
transform="scale(0.001,-0.001)"/>

<path d="M652,-518c0,0,-209,0,-487,322l53,49c0,0,120,-129,210,-193c0,0,90,-65,177,-65c0,0,72,0,113,39c0,0,41,40,41,92c0,0,0,75,-78,105L564,-286l-90,98c0,0,62,96,169,96L605,37C605,37,552,18,498,18c0,0,-151,0,-288,115C210,133,73,248,73,388c0,0,0,113,84,184c0,0,84,71,222,73H524V822H0l-45,76l14,31H842l46,-76L874,822H567l84,-73V519l-3,2l3,-3H408c0,0,-93,0,-153,-52c0,0,-59,-52,-59,-128c0,0,0,-121,110,-188c0,0,53,-17,105,-17c0,0,92,0,153,43L535,318l101,49L773,203c0,0,-20,-67,-87,-122l61,-204c0,0,52,-32,83,-87c0,0,32,-55,32,-116c0,0,0,-85,-61,-139c0,0,-60,-53,-149,-53Z"
id="f6_mv"
transform="scale(0.001,-0.001)"/>

<path d="M163,118c0,0,-65,24,-102,79c0,0,32,69,83,101c0,0,55,-20,99,-80c0,0,-26,-67,-80,-100Zm0,382c0,0,-65,24,-102,79c0,0,32,69,83,101c0,0,55,-20,99,-80c0,0,-26,-67,-80,-100Z"
id="f6_dk"
transform="scale(0.001,-0.001)"/>

<path d="M290,-236c0,0,-253,348,-253,685c0,0,0,342,270,669l80,-39c0,0,-207,-311,-207,-622c0,0,0,-326,193,-652l-83,-41Z"
id="f6_g"
transform="scale(0.001,-0.001)"/>

<path d="M95,0L67,98L422,497c0,0,130,154,130,259c0,0,0,63,-40,111c0,0,-40,48,-121,48c0,0,-75,0,-171,-29L193,695l-88,2c0,0,-13,82,-13,165l1,65c0,0,159,97,315,97c0,0,122,0,207,-78c0,0,85,-77,85,-193c0,0,0,-67,-34,-133c0,0,-33,-67,-165,-217L237,121l4,-14l373,21l49,136l83,-12C746,252,732,99,704,0Z"
id="f6_q"
transform="scale(0.001,-0.001)"/>

<path d="M130,-236l-83,41c0,0,193,326,193,652c0,0,0,311,-206,622l79,39c0,0,270,-327,270,-669c0,0,0,-337,-253,-685Z"
id="f6_h"
transform="scale(0.001,-0.001)"/>

<path d="M228,-49L138,8V822H0l-45,76l14,31H134c0,0,-231,362,-445,362c0,0,-87,0,-135,-49c0,0,-48,-49,-48,-116c0,0,0,-73,43,-122l-45,-32c0,0,-119,108,-119,223c0,0,0,94,74,155c0,0,73,60,181,60c0,0,161,0,316,-134c0,0,154,-133,267,-347H402l46,-76L434,822H199l65,-58V-39L228,-49Z"
id="f6_oc"
transform="scale(0.001,-0.001)"/>

<path d="M827,-49L736,8V205c0,0,-84,-84,-209,-84c0,0,-130,0,-237,91c0,0,-108,92,-108,196c0,0,0,79,61,137C243,545,66,672,66,791c0,0,0,75,52,124c0,0,53,49,134,49c0,0,164,0,260,-237L451,694c0,0,-55,114,-119,163l-31,5c0,0,-44,0,-77,-32c0,0,-33,-31,-33,-78c0,0,0,-86,113,-165c0,0,60,27,133,27l67,-4l75,-89L564,490l-51,7H493c0,0,-90,0,-142,-43c0,0,-52,-43,-52,-104c0,0,0,-60,51,-109c0,0,33,-16,84,-16c0,0,89,0,177,47c0,0,89,47,125,137V822H567l-46,76l14,31h466l46,-76l-14,-31H798l65,-58V-39L827,-49Z"
id="f6_bs"
transform="scale(0.001,-0.001)"/>

<path d="M438,206c0,0,-119,0,-226,109c0,0,-108,108,-108,243V822H0l-45,76l14,31H542l46,-76L574,822H165l66,-58V408c0,0,46,-86,151,-86c0,0,61,0,119,32c0,0,58,33,95,91L669,338c0,0,-44,-66,-108,-99c0,0,-63,-33,-123,-33Z"
id="f6_ll"
transform="scale(0.001,-0.001)"/>

<path d="M900,298c0,0,32,73,32,159c0,0,0,110,-38,160c0,0,-40,31,-81,31c0,0,-48,0,-80,-35c0,0,-33,-35,-33,-89c0,0,0,-118,200,-226ZM588,-60c0,0,-154,0,-274,93c0,0,-120,94,-120,207c0,0,0,50,28,92C222,332,61,440,61,552c0,0,0,71,56,122c0,0,56,50,169,50H417l64,-98L463,600H333c0,0,-157,-1,-157,-99c0,0,0,-59,88,-124c0,0,68,52,164,52c0,0,38,0,79,-9l71,-88L558,299c0,0,-46,10,-81,10c0,0,-75,0,-116,-36c0,0,-40,-36,-40,-88c0,0,0,-78,73,-130c0,0,54,-17,109,-17c0,0,114,0,211,54c0,0,97,53,154,145c0,0,-156,96,-223,173c0,0,-67,77,-67,155c0,0,0,72,48,124c0,0,48,52,126,55v78H0l-45,76l14,31H1123l46,-76l-14,-31H805l66,-58V717c0,0,76,-40,124,-124c0,0,47,-84,47,-193c0,0,0,-188,-133,-324C909,76,776,-60,588,-60Z"
id="f6_bf"
transform="scale(0.001,-0.001)"/>

<path d="M108,-433L-59,-214c0,0,-99,119,-191,119c0,0,-59,0,-96,-35c0,0,-36,-34,-36,-81c0,0,0,-49,42,-83l152,95l64,-116c0,0,-71,-58,-148,-58c0,0,-80,0,-146,63c0,0,-65,64,-65,144c0,0,0,77,62,131c0,0,61,53,142,53c0,0,138,0,296,-205L165,-393l-57,-40Z"
id="f6_cx"
transform="scale(0.001,-0.001)"/>

<path d="M228,-49L138,8V822H0l-45,76l14,31H134c0,0,-91,92,-91,191c0,0,0,105,85,170c0,0,84,65,219,65c0,0,128,0,293,-76c0,0,165,-77,362,-263L958,966c0,0,-177,143,-303,210c0,0,-125,68,-244,68c0,0,-107,0,-175,-50c0,0,-68,-50,-68,-131c0,0,0,-61,49,-134H402l46,-76L434,822H199l65,-58V-39L228,-49Z"
id="f6_cu"
transform="scale(0.001,-0.001)"/>

<path d="M252,385l310,78l22,-9c0,0,107,-43,200,-43c0,0,91,0,151,41V822H603l66,-58V585H373c0,0,-184,0,-184,-99c0,0,0,-48,63,-101ZM483,-305L295,-10c0,0,-90,22,-156,74l41,170h66L351,63c0,0,126,4,207,62c0,0,82,58,82,139c0,0,0,37,-18,71L365,266c0,0,-110,15,-197,102c0,0,-87,87,-87,176c0,0,0,69,59,117c0,0,59,48,172,48H550V822H0l-45,76l14,31H1199l46,-76l-14,-31H996l66,-58V-39l-37,-10L935,8V318c0,0,-41,-15,-78,-15c0,0,-52,0,-131,30c0,0,32,-55,32,-111c0,0,0,-109,-98,-179c0,0,-98,-69,-254,-69L599,-216L483,-305Z"
id="f6_bh"
transform="scale(0.001,-0.001)"/>

<path d="M228,-49L138,8V822H0l-45,76l14,31H138c0,0,-109,342,-284,342c0,0,-62,0,-102,-40c0,0,-40,-39,-40,-93c0,0,0,-61,51,-134l-42,-32c0,0,-128,113,-128,226c0,0,0,79,60,136c0,0,61,56,154,56c0,0,137,0,249,-125c0,0,112,-125,169,-336H402l46,-76L434,822H199l65,-58V-39L228,-49Z"
id="f6_cv"
transform="scale(0.001,-0.001)"/>

<path d="M325,240c0,0,77,0,154,35c0,0,77,35,120,99V500c0,0,-118,73,-222,73c0,0,-97,0,-151,-54c0,0,-53,-53,-53,-128c0,0,0,-73,49,-125c0,0,38,-26,103,-26ZM689,-49L599,8V199c0,0,-73,-65,-179,-65c0,0,-134,0,-252,96c0,0,-118,95,-118,221c0,0,0,102,78,171c0,0,78,69,190,69c0,0,38,0,75,-10L599,582V822H0l-45,76l14,31H863l46,-76L895,822H660l66,-58V-39L689,-49Z"
id="f6_c7"
transform="scale(0.001,-0.001)"/>

<path d="M547,-285c0,0,-66,25,-102,80c0,0,32,69,82,101c0,0,55,-20,99,-80c0,0,-26,-67,-79,-101Zm1,228c0,0,-122,0,-243,81c0,0,-122,81,-252,280l57,41C110,345,283,64,498,64c0,0,92,0,153,49c0,0,61,49,61,121c0,0,0,46,-28,84L440,237c0,0,-73,11,-139,55c0,0,-66,44,-105,105c0,0,-40,61,-40,119c0,0,0,72,62,125c0,0,62,53,184,53H625V822H0l-45,76l14,31H906l46,-76L938,822H678l66,-58V562H431c0,0,-164,0,-164,-99c0,0,0,-55,57,-102l261,82c0,0,104,-21,172,-98c0,0,68,-78,68,-171c0,0,0,-99,-76,-166c0,0,-77,-65,-201,-65Z"
id="f6_ch"
transform="scale(0.001,-0.001)"/>

<path d="M527,-71L52,414l34,92H277c0,0,12,32,12,72V822H0l-45,76l14,31H654l46,-76L686,822H350l66,-55V564c0,0,0,-43,-25,-89H782L798,370H315L264,316L610,34L611,8L527,-71Z"
id="f6_m1"
transform="scale(0.001,-0.001)"/>

<path d="M228,-49L138,8V822H0l-45,76l14,31H134c0,0,-91,93,-91,202c0,0,0,105,85,170c0,0,86,65,236,65c0,0,340,0,742,-350l-50,-46c0,0,-182,135,-340,208c0,0,-158,73,-302,73c0,0,-113,0,-183,-48c0,0,-69,-48,-69,-132c0,0,0,-63,53,-142H402l46,-76L434,822H199l65,-58V-39L228,-49Z"
id="f6_nt"
transform="scale(0.001,-0.001)"/>

<path d="M0,822l-45,76l14,31H38L84,853L70,822Z"
id="f6_nl"
transform="scale(0.001,-0.001)"/>

<path d="M483,-305L295,-10c0,0,-90,22,-156,74l41,170h66L351,63c0,0,126,4,207,62c0,0,82,58,82,139c0,0,0,37,-18,71L365,266c0,0,-110,15,-197,102c0,0,-87,87,-87,176c0,0,0,69,59,117c0,0,59,48,172,48H550V822H0l-45,76l14,31H822l46,-76L854,822H603l66,-58V585H373c0,0,-184,0,-184,-99c0,0,0,-48,63,-101l310,78c0,0,86,-34,141,-99c0,0,55,-65,55,-142c0,0,0,-109,-98,-179c0,0,-98,-69,-254,-69L599,-216L483,-305Z"
id="f6_an"
transform="scale(0.001,-0.001)"/>

<path d="M819,-521L651,-303c0,0,-99,119,-191,119c0,0,-60,0,-96,-34c0,0,-37,-35,-37,-82c0,0,0,-49,43,-82l151,94l64,-116c0,0,-70,-58,-148,-58c0,0,-79,0,-145,64c0,0,-66,63,-66,144c0,0,0,98,90,151c0,0,-203,131,-203,306c0,0,0,101,69,170c0,0,-103,88,-103,179c0,0,0,64,57,110c0,0,57,47,196,47H571V822H0l-45,76l14,31H830l45,-76L862,822H625l66,-58V585H364c0,0,-176,0,-176,-96c0,0,0,-41,44,-76c0,0,81,47,185,47c0,0,135,0,230,-76c0,0,96,-75,96,-187C743,197,743,67,614,2L530,104c0,0,49,30,81,75c0,0,32,44,32,82c0,0,0,16,-4,26c0,0,-65,58,-167,58c0,0,-98,0,-166,-50v-2c0,0,-68,-52,-68,-131c0,0,0,-134,188,-231c0,0,84,0,164,-62c0,0,79,-62,195,-222l90,-129l-56,-39Z"
id="f6_n5"
transform="scale(0.001,-0.001)"/>

<path d="M830,-253l-123,66c0,0,31,47,31,78c0,0,0,44,-64,84L353,130c0,0,-234,113,-234,325V822H0l-45,76l14,31H848l46,-76L880,822H655l68,-58V561c0,0,0,-176,-41,-241c0,0,-40,-65,-161,-106l-49,82l124,69V822H180l66,-58V283L646,92c0,0,126,-60,176,-110c0,0,50,-51,50,-115c0,0,0,-62,-42,-120Z"
id="f6_ax"
transform="scale(0.001,-0.001)"/>

<path d="M228,-49L138,8V822H0l-45,76l14,31H134c0,0,-90,95,-90,199c0,0,0,111,99,177c0,0,98,67,271,67c0,0,202,0,439,-91c0,0,238,-91,475,-263l-48,-49c0,0,-469,288,-812,288c0,0,-138,0,-220,-49c0,0,-83,-50,-83,-142c0,0,0,-64,50,-137H402l46,-76L434,822H199l65,-58V-39L228,-49Z"
id="f6_nv"
transform="scale(0.001,-0.001)"/>

<path d="M-214,860l-227,219c0,0,-73,70,-148,70c0,0,-67,0,-160,-58l-72,117c0,0,83,71,176,71c0,0,120,0,232,-124L-221,940l-102,294c0,0,-64,179,-189,179c0,0,-60,0,-133,-33l-60,125c0,0,84,47,164,47c0,0,200,0,281,-276L-150,901l-23,-15l-41,-26Z"
id="f6_d5"
transform="scale(0.001,-0.001)"/>

<path d="M634,-49L249,296c0,0,-1,0,-3,0c-11,0,-48,1,-90,15c0,0,-51,16,-67,36l49,165l50,12l84,-98c0,0,125,31,191,104c0,0,66,73,66,165c0,0,0,109,-95,170c0,0,-2,0,-6,0C397,865,262,858,121,738L46,848c0,0,52,47,127,82c0,0,75,34,152,34c0,0,130,0,226,-94c0,0,95,-94,95,-218c0,0,0,-107,-77,-199c0,0,-77,-92,-216,-134L697,26L698,0L634,-49Z"
id="f6_n8"
transform="scale(0.001,-0.001)"/>

<path d="M725,307c0,0,-95,0,-218,78c0,0,-123,78,-188,78c0,0,-54,0,-95,-34c0,0,-41,-34,-73,-100L93,362c0,0,38,88,101,146c0,0,63,59,148,59c0,0,90,0,214,-78c0,0,124,-79,188,-79c0,0,63,0,106,34c0,0,42,33,85,104l60,-40c0,0,-32,-66,-101,-134c0,0,-70,-67,-169,-67Z"
id="f7_4r"
transform="scale(0.001,-0.001)"/>

<path d="M46,0c0,0,-2,48,16,93c0,0,27,74,88,146c0,0,61,71,176,165c0,0,178,146,241,232c0,0,63,85,63,161c0,0,0,80,-57,135c0,0,-58,55,-149,55c0,0,-98,0,-156,-59c0,0,-58,-58,-59,-160L71,782c0,0,15,154,107,235c0,0,93,81,249,81c0,0,157,0,249,-87c0,0,92,-88,92,-217c0,0,0,-65,-27,-129c0,0,-27,-63,-89,-133c0,0,-62,-70,-207,-193C445,339,324,238,290,202c0,0,-35,-36,-57,-73H770V0Z"
id="f8_m"
transform="scale(0.001,-0.001)"/>

<path d="M225,0c0,0,2,129,51,312c0,0,48,183,139,352c0,0,91,170,193,286H72v129H780V975C780,975,676,864,573,680C573,680,470,495,414,301C414,301,374,163,363,0Z"
id="f8_r"
transform="scale(0.001,-0.001)"/>


</defs>
</svg>