<?xml version="1.0" encoding="UTF-8" standalone="no"?>
<!DOCTYPE svg PUBLIC "-//W3C//DTD SVG 1.1//EN"
"http://www.w3.org/Graphics/SVG/1.1/DTD/svg11.dtd">
<svg viewBox="0 0 641 910" version="1.1" xmlns="http://www.w3.org/2000/svg" xmlns:xlink="http://www.w3.org/1999/xlink">
<defs>
<clipPath id="c0_17"><path d="M0,909.8V0H641.7V909.8Z"/></clipPath>
<clipPath id="c1_17"><path d="M0,908.6V0H641.7V908.6Z"/></clipPath>
<style type="text/css"><![CDATA[
.g0_17{
fill: #FFFFFF;
}
.g1_17{
}
]]></style>
</defs>
<path d="M0,0H641.7V909.8H0V0Z" class="g0_17"/>
<path d="M0,0H641.7V909.8H0V0Z" class="g0_17"/>
<g clip-path="url(#c0_17)">
<path d="M0,-9097.8H641.7V97347.7H0V-9097.8Z" class="g0_17"/>
</g>
<path d="M0,0H641.7V908.6H0V0Z" class="g0_17"/>
<path d="M19.5,60.7H602.7v1.2H19.5V60.7Z" class="g1_17"/>
<g clip-path="url(#c1_17)">
<path d="M0,61.9H641.7V909.8H0V61.9Z" class="g0_17"/>
<g fill="#000000" >
<use xlink:href="#f5_ef" transform="matrix(14,0,0,14,231.8,96.3)" />
<use xlink:href="#f5_cv" transform="matrix(14,0,0,14,247.7,96.3)" />
<use xlink:href="#f5_bv" transform="matrix(14,0,0,14,259.8,96.3)" />
<use xlink:href="#f5_ct" transform="matrix(14,0,0,14,273,96.3)" />
<use xlink:href="#f5_nn" transform="matrix(14,0,0,14,279.4,96.3)" />
<use xlink:href="#f5_ke" transform="matrix(14,0,0,14,279.4,96.3)" />
<use xlink:href="#f5_dr" transform="matrix(14,0,0,14,295.7,96.3)" />
<use xlink:href="#f5_bt" transform="matrix(14,0,0,14,295.7,96.3)" />
<use xlink:href="#f5_ct" transform="matrix(14,0,0,14,308.7,96.3)" />
<use xlink:href="#f5_no" transform="matrix(14,0,0,14,315.2,96.3)" />
<use xlink:href="#f5_bq" transform="matrix(14,0,0,14,315.2,96.3)" />
<use xlink:href="#f5_e6" transform="matrix(14,0,0,14,335.2,96.3)" />
<use xlink:href="#f5_ct" transform="matrix(14,0,0,14,349.1,96.3)" />
<use xlink:href="#f5_no" transform="matrix(14,0,0,14,355.5,96.3)" />
<use xlink:href="#f5_bq" transform="matrix(14,0,0,14,355.5,96.3)" />
<use xlink:href="#f5_dr" transform="matrix(14,0,0,14,369.9,96.3)" />
<use xlink:href="#f5_bt" transform="matrix(14,0,0,14,369.9,96.3)" />
<use xlink:href="#f5_ct" transform="matrix(14,0,0,14,383,96.3)" />
<use xlink:href="#f6_am" transform="matrix(14,0,0,14,184.8,162.7)" />
<use xlink:href="#f6_bo" transform="matrix(14,0,0,14,206.3,162.7)" />
<use xlink:href="#f6_cv" transform="matrix(14,0,0,14,220.6,162.7)" />
<use xlink:href="#f6_bz" transform="matrix(14,0,0,14,231.9,162.7)" />
<use xlink:href="#f6_bt" transform="matrix(14,0,0,14,245.3,162.7)" />
<use xlink:href="#f6_cb" transform="matrix(14,0,0,14,257,162.7)" />
<use xlink:href="#f6_cw" transform="matrix(14,0,0,14,272.4,162.6)" />
<use xlink:href="#f6_nl" transform="matrix(14,0,0,14,271.9,162.7)" />
<use xlink:href="#f6_bs" transform="matrix(14,0,0,14,271.9,162.7)" />
<use xlink:href="#f6_am" transform="matrix(14,0,0,14,291.5,162.7)" />
<use xlink:href="#f6_m1" transform="matrix(14,0,0,14,313,162.7)" />
<use xlink:href="#f6_bq" transform="matrix(14,0,0,14,321.9,162.7)" />
<use xlink:href="#f6_ct" transform="matrix(14,0,0,14,335.1,162.7)" />
<use xlink:href="#f6_k" transform="matrix(14,0,0,14,340.7,162.7)" />
<use xlink:href="#f6_br" transform="matrix(14,0,0,14,351.6,162.7)" />
<use xlink:href="#f6_d4" transform="matrix(14,0,0,14,362.8,162.7)" />
<use xlink:href="#f6_c7" transform="matrix(14,0,0,14,363.3,162.7)" />
<use xlink:href="#f6_bg" transform="matrix(14,0,0,14,381,162.7)" />
<use xlink:href="#f6_cw" transform="matrix(14,0,0,14,395.8,162.6)" />
<use xlink:href="#f6_cc" transform="matrix(14,0,0,14,395.3,162.7)" />
<use xlink:href="#f6_ct" transform="matrix(14,0,0,14,406.9,162.7)" />
<use xlink:href="#f6_n1" transform="matrix(14,0,0,14,412.5,162.7)" />
<use xlink:href="#f6_di" transform="matrix(14,0,0,14,420.8,163.1)" />
<use xlink:href="#f6_k" transform="matrix(14,0,0,14,431.3,162.7)" />
<use xlink:href="#f6_bv" transform="matrix(14,0,0,14,97.7,195.9)" />
<use xlink:href="#f6_ct" transform="matrix(14,0,0,14,109.6,195.9)" />
<use xlink:href="#f6_nn" transform="matrix(14,0,0,14,115.2,195.9)" />
<use xlink:href="#f6_ke" transform="matrix(14,0,0,14,115.2,195.9)" />
<use xlink:href="#f6_dr" transform="matrix(14,0,0,14,129.4,195.9)" />
<use xlink:href="#f6_bt" transform="matrix(14,0,0,14,129.4,195.9)" />
<use xlink:href="#f6_ct" transform="matrix(14,0,0,14,141.1,195.9)" />
<use xlink:href="#f6_no" transform="matrix(14,0,0,14,146.7,195.9)" />
<use xlink:href="#f6_bq" transform="matrix(14,0,0,14,146.7,195.9)" />
<use xlink:href="#f6_bz" transform="matrix(14,0,0,14,165.6,195.9)" />
<use xlink:href="#f6_bt" transform="matrix(14,0,0,14,178.9,195.9)" />
<use xlink:href="#f6_c7" transform="matrix(14,0,0,14,196.3,195.9)" />
<use xlink:href="#f6_ct" transform="matrix(14,0,0,14,208.4,195.9)" />
<use xlink:href="#f6_dj" transform="matrix(14,0,0,14,208.6,196.4)" />
<use xlink:href="#f6_nu" transform="matrix(14,0,0,14,214,195.9)" />
<use xlink:href="#f6_bf" transform="matrix(14,0,0,14,219.6,195.9)" />
<use xlink:href="#f6_bp" transform="matrix(14,0,0,14,235.3,195.9)" />
<use xlink:href="#f6_bv" transform="matrix(14,0,0,14,253.3,195.9)" />
<use xlink:href="#f6_cx" transform="matrix(14,0,0,14,265.1,195.8)" />
<use xlink:href="#f6_c1" transform="matrix(14,0,0,14,265.2,195.9)" />
<use xlink:href="#f6_k" transform="matrix(14,0,0,14,273.5,195.9)" />
<use xlink:href="#f6_nt" transform="matrix(14,0,0,14,284.4,195.9)" />
<use xlink:href="#f6_ol" transform="matrix(14,0,0,14,299.9,195.6)" />
<use xlink:href="#f6_be" transform="matrix(14,0,0,14,290.1,195.9)" />
<use xlink:href="#f6_bp" transform="matrix(14,0,0,14,304,195.9)" />
<use xlink:href="#f6_ct" transform="matrix(14,0,0,14,316.3,195.9)" />
<use xlink:href="#f6_bz" transform="matrix(14,0,0,14,322,195.9)" />
<use xlink:href="#f6_bo" transform="matrix(14,0,0,14,335.3,195.9)" />
<use xlink:href="#f6_cv" transform="matrix(14,0,0,14,349.7,195.9)" />
<use xlink:href="#f6_lq" transform="matrix(14,0,0,14,361,195.9)" />
<use xlink:href="#f6_cc" transform="matrix(14,0,0,14,367.6,195.9)" />
<use xlink:href="#f6_ct" transform="matrix(14,0,0,14,379.2,195.9)" />
<use xlink:href="#f6_c1" transform="matrix(14,0,0,14,384.9,195.9)" />
<use xlink:href="#f6_cv" transform="matrix(14,0,0,14,393.2,195.9)" />
<use xlink:href="#f6_nt" transform="matrix(14,0,0,14,404.5,195.9)" />
<use xlink:href="#f6_be" transform="matrix(14,0,0,14,410.1,195.9)" />
<use xlink:href="#f6_li" transform="matrix(14,0,0,14,424.1,195.9)" />
<use xlink:href="#f6_bp" transform="matrix(14,0,0,14,430.3,195.9)" />
<use xlink:href="#f6_ct" transform="matrix(14,0,0,14,442.6,195.9)" />
<use xlink:href="#f6_be" transform="matrix(14,0,0,14,453.9,195.9)" />
<use xlink:href="#f6_cx" transform="matrix(14,0,0,14,467.9,195.8)" />
<use xlink:href="#f6_c1" transform="matrix(14,0,0,14,467.9,195.9)" />
<use xlink:href="#f6_pc" transform="matrix(14,0,0,14,476.3,195.9)" />
<use xlink:href="#f6_pc" transform="matrix(14,0,0,14,480.6,195.9)" />
<use xlink:href="#f6_pc" transform="matrix(14,0,0,14,484.8,195.9)" />
<use xlink:href="#f6_2s" transform="matrix(14,0,0,14,489.1,195.9)" />
<use xlink:href="#f6_2s" transform="matrix(14,0,0,14,495.4,195.9)" />
<use xlink:href="#f6_n7" transform="matrix(14,0,0,14,501.6,195.9)" />
<use xlink:href="#f6_2s" transform="matrix(14,0,0,14,510.9,195.9)" />
<use xlink:href="#f6_2s" transform="matrix(14,0,0,14,517.2,195.9)" />
<use xlink:href="#f6_al" transform="matrix(14,0,0,14,125.2,262.4)" />
<use xlink:href="#f6_nu" transform="matrix(14,0,0,14,141.1,262.4)" />
<use xlink:href="#f6_bo" transform="matrix(14,0,0,14,146.7,262.4)" />
<use xlink:href="#f6_c0" transform="matrix(14,0,0,14,161,262.4)" />
<use xlink:href="#f6_ct" transform="matrix(14,0,0,14,173.6,262.4)" />
<use xlink:href="#f6_c3" transform="matrix(14,0,0,14,179.2,262.4)" />
<use xlink:href="#f6_cv" transform="matrix(14,0,0,14,193.9,262.4)" />
<use xlink:href="#f6_bq" transform="matrix(14,0,0,14,205.2,262.4)" />
<use xlink:href="#f6_ct" transform="matrix(14,0,0,14,218.4,262.4)" />
<use xlink:href="#f6_d2" transform="matrix(14,0,0,14,221.8,262.8)" />
<use xlink:href="#f6_c1" transform="matrix(14,0,0,14,224,262.4)" />
<use xlink:href="#f6_cv" transform="matrix(14,0,0,14,232.4,262.4)" />
<use xlink:href="#f6_am" transform="matrix(14,0,0,14,243.7,262.4)" />
<use xlink:href="#f6_dj" transform="matrix(14,0,0,14,259.7,262.8)" />
<use xlink:href="#f6_ba" transform="matrix(14,0,0,14,265.2,262.4)" />
<use xlink:href="#f6_bm" transform="matrix(14,0,0,14,281.9,262.4)" />
<use xlink:href="#f6_cv" transform="matrix(14,0,0,14,294.6,262.4)" />
<use xlink:href="#f6_k" transform="matrix(14,0,0,14,300.2,262.4)" />
<use xlink:href="#f6_bg" transform="matrix(14,0,0,14,311.1,262.4)" />
<use xlink:href="#f6_ct" transform="matrix(14,0,0,14,325.3,262.4)" />
<use xlink:href="#f6_bo" transform="matrix(14,0,0,14,331,262.4)" />
<use xlink:href="#f6_d4" transform="matrix(14,0,0,14,345.4,262.4)" />
<use xlink:href="#f6_b9" transform="matrix(14,0,0,14,351,262.4)" />
<use xlink:href="#f6_bz" transform="matrix(14,0,0,14,366.5,262.4)" />
<use xlink:href="#f6_c3" transform="matrix(14,0,0,14,379.8,262.4)" />
<use xlink:href="#f6_bp" transform="matrix(14,0,0,14,400.2,262.4)" />
<use xlink:href="#f6_bo" transform="matrix(14,0,0,14,412.5,262.4)" />
<use xlink:href="#f6_cv" transform="matrix(14,0,0,14,426.9,262.4)" />
<use xlink:href="#f6_bv" transform="matrix(14,0,0,14,438.2,262.4)" />
<use xlink:href="#f6_ct" transform="matrix(14,0,0,14,450,262.4)" />
<use xlink:href="#f6_dj" transform="matrix(14,0,0,14,450.2,262.8)" />
<use xlink:href="#f6_ba" transform="matrix(14,0,0,14,455.6,262.4)" />
<use xlink:href="#f6_bm" transform="matrix(14,0,0,14,472.4,262.4)" />
<use xlink:href="#f6_cv" transform="matrix(14,0,0,14,485,262.4)" />
<use xlink:href="#f6_k" transform="matrix(14,0,0,14,490.7,262.4)" />
<use xlink:href="#f6_bz" transform="matrix(14,0,0,14,88.5,295.6)" />
<use xlink:href="#f6_cw" transform="matrix(14,0,0,14,102.4,295.5)" />
<use xlink:href="#f6_ba" transform="matrix(14,0,0,14,101.9,295.6)" />
<use xlink:href="#f6_cu" transform="matrix(14,0,0,14,124.3,295.6)" />
<use xlink:href="#f6_br" transform="matrix(14,0,0,14,129.9,295.6)" />
<use xlink:href="#f6_ba" transform="matrix(14,0,0,14,141.5,295.6)" />
<use xlink:href="#f6_bp" transform="matrix(14,0,0,14,158.3,295.6)" />
<use xlink:href="#f6_ct" transform="matrix(14,0,0,14,170.6,295.6)" />
<use xlink:href="#f6_mv" transform="matrix(14,0,0,14,181.9,295.6)" />
<use xlink:href="#f6_y" transform="matrix(14,0,0,14,193.6,295.6)" />
<use xlink:href="#f6_ba" transform="matrix(14,0,0,14,200.6,295.6)" />
<use xlink:href="#f6_bg" transform="matrix(14,0,0,14,223,295.6)" />
<use xlink:href="#f6_ct" transform="matrix(14,0,0,14,237.3,295.6)" />
<use xlink:href="#f6_c7" transform="matrix(14,0,0,14,242.9,295.6)" />
<use xlink:href="#f6_d4" transform="matrix(14,0,0,14,255.1,295.6)" />
<use xlink:href="#f6_mw" transform="matrix(14,0,0,14,260.6,295.6)" />
<use xlink:href="#f6_c1" transform="matrix(14,0,0,14,272.4,295.6)" />
<use xlink:href="#f6_k" transform="matrix(14,0,0,14,280.8,295.6)" />
<use xlink:href="#f6_nt" transform="matrix(14,0,0,14,291.7,295.6)" />
<use xlink:href="#f6_ol" transform="matrix(14,0,0,14,307.2,295.3)" />
<use xlink:href="#f6_be" transform="matrix(14,0,0,14,297.3,295.6)" />
<use xlink:href="#f6_bp" transform="matrix(14,0,0,14,311.3,295.6)" />
<use xlink:href="#f6_ct" transform="matrix(14,0,0,14,323.6,295.6)" />
<use xlink:href="#f6_bz" transform="matrix(14,0,0,14,329.2,295.6)" />
<use xlink:href="#f6_bo" transform="matrix(14,0,0,14,342.6,295.6)" />
<use xlink:href="#f6_cv" transform="matrix(14,0,0,14,356.9,295.6)" />
<use xlink:href="#f6_lq" transform="matrix(14,0,0,14,368.2,295.6)" />
<use xlink:href="#f6_cc" transform="matrix(14,0,0,14,374.9,295.6)" />
<use xlink:href="#f6_ct" transform="matrix(14,0,0,14,386.5,295.6)" />
<use xlink:href="#f6_c1" transform="matrix(14,0,0,14,392.1,295.6)" />
<use xlink:href="#f6_cv" transform="matrix(14,0,0,14,400.5,295.6)" />
<use xlink:href="#f6_nt" transform="matrix(14,0,0,14,411.8,295.6)" />
<use xlink:href="#f6_be" transform="matrix(14,0,0,14,417.4,295.6)" />
<use xlink:href="#f6_li" transform="matrix(14,0,0,14,431.4,295.6)" />
<use xlink:href="#f6_bp" transform="matrix(14,0,0,14,437.6,295.6)" />
<use xlink:href="#f6_ct" transform="matrix(14,0,0,14,449.9,295.6)" />
<use xlink:href="#f6_be" transform="matrix(14,0,0,14,461.2,295.6)" />
<use xlink:href="#f6_cx" transform="matrix(14,0,0,14,475.1,295.5)" />
<use xlink:href="#f6_c1" transform="matrix(14,0,0,14,475.2,295.6)" />
<use xlink:href="#f6_pc" transform="matrix(14,0,0,14,483.5,295.6)" />
<use xlink:href="#f6_pc" transform="matrix(14,0,0,14,487.8,295.6)" />
<use xlink:href="#f6_pc" transform="matrix(14,0,0,14,492.1,295.6)" />
<use xlink:href="#f6_2s" transform="matrix(14,0,0,14,496.4,295.6)" />
<use xlink:href="#f6_2s" transform="matrix(14,0,0,14,502.6,295.6)" />
<use xlink:href="#f6_n8" transform="matrix(14,0,0,14,508.9,295.6)" />
<use xlink:href="#f6_2s" transform="matrix(14,0,0,14,519.3,295.6)" />
<use xlink:href="#f6_2s" transform="matrix(14,0,0,14,525.6,295.6)" />
<use xlink:href="#f6_b9" transform="matrix(14,0,0,14,136.7,354.1)" />
<use xlink:href="#f6_d8" transform="matrix(14,0,0,14,152.2,354.1)" />
<use xlink:href="#f6_b9" transform="matrix(14,0,0,14,163.4,354.1)" />
<use xlink:href="#f6_d4" transform="matrix(14,0,0,14,174.6,354.1)" />
<use xlink:href="#f6_cc" transform="matrix(14,0,0,14,178.9,354.1)" />
<use xlink:href="#f6_bt" transform="matrix(14,0,0,14,190.5,354.1)" />
<use xlink:href="#f6_d4" transform="matrix(14,0,0,14,202.4,354.1)" />
<use xlink:href="#f6_b9" transform="matrix(14,0,0,14,207.9,354.1)" />
<use xlink:href="#f6_d8" transform="matrix(14,0,0,14,223.4,354.1)" />
<use xlink:href="#f6_b9" transform="matrix(14,0,0,14,234.7,354.1)" />
<use xlink:href="#f6_d4" transform="matrix(14,0,0,14,245.9,354.1)" />
<use xlink:href="#f6_n4" transform="matrix(14,0,0,14,250.2,354.1)" />
<use xlink:href="#f6_bt" transform="matrix(14,0,0,14,261.8,354.1)" />
<use xlink:href="#f6_d4" transform="matrix(14,0,0,14,273.7,354.1)" />
<use xlink:href="#f6_bt" transform="matrix(14,0,0,14,279.2,354.1)" />
<use xlink:href="#f6_bz" transform="matrix(14,0,0,14,290.9,354.1)" />
<use xlink:href="#f6_d4" transform="matrix(14,0,0,14,304.4,354.1)" />
<use xlink:href="#f6_k" transform="matrix(14,0,0,14,304.3,354.1)" />
<use xlink:href="#f6_lq" transform="matrix(14,0,0,14,315.1,354.1)" />
<use xlink:href="#f6_cc" transform="matrix(14,0,0,14,321.8,354.1)" />
<use xlink:href="#f6_ct" transform="matrix(14,0,0,14,333.4,354.1)" />
<use xlink:href="#f6_c1" transform="matrix(14,0,0,14,339,354.1)" />
<use xlink:href="#f6_d4" transform="matrix(14,0,0,14,347,354.1)" />
<use xlink:href="#f6_bz" transform="matrix(14,0,0,14,353.1,354.1)" />
<use xlink:href="#f6_bt" transform="matrix(14,0,0,14,366.4,354.1)" />
<use xlink:href="#f6_bz" transform="matrix(14,0,0,14,383.8,354.1)" />
<use xlink:href="#f6_oz" transform="matrix(14,0,0,14,397.3,354.1)" />
<use xlink:href="#f6_bp" transform="matrix(14,0,0,14,402.8,354.1)" />
<use xlink:href="#f6_cw" transform="matrix(14,0,0,14,415.7,354)" />
<use xlink:href="#f6_dj" transform="matrix(14,0,0,14,412.2,354.5)" />
<use xlink:href="#f6_cc" transform="matrix(14,0,0,14,415.1,354.1)" />
<use xlink:href="#f6_cv" transform="matrix(14,0,0,14,426.7,354.1)" />
<use xlink:href="#f6_bg" transform="matrix(14,0,0,14,438,354.1)" />
<use xlink:href="#f6_c1" transform="matrix(14,0,0,14,457.9,354.1)" />
<use xlink:href="#f6_bz" transform="matrix(14,0,0,14,466.3,354.1)" />
<use xlink:href="#f6_d4" transform="matrix(14,0,0,14,479.8,354.1)" />
<use xlink:href="#f6_k" transform="matrix(14,0,0,14,479.7,354.1)" />
<use xlink:href="#f6_cb" transform="matrix(14,0,0,14,108,387.3)" />
<use xlink:href="#f6_br" transform="matrix(14,0,0,14,122.9,387.3)" />
<use xlink:href="#f6_ct" transform="matrix(14,0,0,14,134.6,387.3)" />
<use xlink:href="#f6_bg" transform="matrix(14,0,0,14,145.8,387.3)" />
<use xlink:href="#f6_cw" transform="matrix(14,0,0,14,160.6,387.2)" />
<use xlink:href="#f6_cc" transform="matrix(14,0,0,14,160.1,387.3)" />
<use xlink:href="#f6_ct" transform="matrix(14,0,0,14,171.7,387.3)" />
<use xlink:href="#f6_n1" transform="matrix(14,0,0,14,177.3,387.3)" />
<use xlink:href="#f6_di" transform="matrix(14,0,0,14,185.7,387.7)" />
<use xlink:href="#f6_ap" transform="matrix(14,0,0,14,196.1,387.3)" />
<use xlink:href="#f6_bb" transform="matrix(14,0,0,14,207.5,387.3)" />
<use xlink:href="#f6_bp" transform="matrix(14,0,0,14,220.1,387.3)" />
<use xlink:href="#f6_d4" transform="matrix(14,0,0,14,232.6,387.3)" />
<use xlink:href="#f6_cb" transform="matrix(14,0,0,14,238.1,387.3)" />
<use xlink:href="#f6_cx" transform="matrix(14,0,0,14,253,387.2)" />
<use xlink:href="#f6_c1" transform="matrix(14,0,0,14,253,387.3)" />
<use xlink:href="#f6_k" transform="matrix(14,0,0,14,261.4,387.3)" />
<use xlink:href="#f6_nt" transform="matrix(14,0,0,14,272.3,387.3)" />
<use xlink:href="#f6_ol" transform="matrix(14,0,0,14,287.7,387)" />
<use xlink:href="#f6_be" transform="matrix(14,0,0,14,277.9,387.3)" />
<use xlink:href="#f6_bp" transform="matrix(14,0,0,14,291.9,387.3)" />
<use xlink:href="#f6_ct" transform="matrix(14,0,0,14,304.2,387.3)" />
<use xlink:href="#f6_bz" transform="matrix(14,0,0,14,309.8,387.3)" />
<use xlink:href="#f6_bo" transform="matrix(14,0,0,14,323.1,387.3)" />
<use xlink:href="#f6_cv" transform="matrix(14,0,0,14,337.5,387.3)" />
<use xlink:href="#f6_lq" transform="matrix(14,0,0,14,348.8,387.3)" />
<use xlink:href="#f6_cc" transform="matrix(14,0,0,14,355.5,387.3)" />
<use xlink:href="#f6_ct" transform="matrix(14,0,0,14,367.1,387.3)" />
<use xlink:href="#f6_c1" transform="matrix(14,0,0,14,372.7,387.3)" />
<use xlink:href="#f6_cv" transform="matrix(14,0,0,14,381.1,387.3)" />
<use xlink:href="#f6_nt" transform="matrix(14,0,0,14,392.3,387.3)" />
<use xlink:href="#f6_be" transform="matrix(14,0,0,14,398,387.3)" />
<use xlink:href="#f6_li" transform="matrix(14,0,0,14,411.9,387.3)" />
<use xlink:href="#f6_bp" transform="matrix(14,0,0,14,418.1,387.3)" />
<use xlink:href="#f6_ct" transform="matrix(14,0,0,14,430.5,387.3)" />
<use xlink:href="#f6_be" transform="matrix(14,0,0,14,441.7,387.3)" />
<use xlink:href="#f6_cx" transform="matrix(14,0,0,14,455.7,387.2)" />
<use xlink:href="#f6_c1" transform="matrix(14,0,0,14,455.7,387.3)" />
<use xlink:href="#f6_pc" transform="matrix(14,0,0,14,464.1,387.3)" />
<use xlink:href="#f6_pc" transform="matrix(14,0,0,14,468.4,387.3)" />
<use xlink:href="#f6_pc" transform="matrix(14,0,0,14,472.7,387.3)" />
<use xlink:href="#f6_2s" transform="matrix(14,0,0,14,476.9,387.3)" />
<use xlink:href="#f6_2s" transform="matrix(14,0,0,14,483.2,387.3)" />
<use xlink:href="#f6_n9" transform="matrix(14,0,0,14,489.5,387.3)" />
<use xlink:href="#f6_2s" transform="matrix(14,0,0,14,500.6,387.3)" />
<use xlink:href="#f6_2s" transform="matrix(14,0,0,14,506.9,387.3)" />
<use xlink:href="#f6_bz" transform="matrix(14,0,0,14,124.1,445.7)" />
<use xlink:href="#f6_cw" transform="matrix(14,0,0,14,137.9,445.6)" />
<use xlink:href="#f6_bh" transform="matrix(14,0,0,14,137.4,445.7)" />
<use xlink:href="#f6_bz" transform="matrix(14,0,0,14,159.8,445.7)" />
<use xlink:href="#f6_bt" transform="matrix(14,0,0,14,173.2,445.7)" />
<use xlink:href="#f6_c3" transform="matrix(14,0,0,14,190.6,445.7)" />
<use xlink:href="#f6_ct" transform="matrix(14,0,0,14,205.3,445.7)" />
<use xlink:href="#f6_bb" transform="matrix(14,0,0,14,210.9,445.7)" />
<use xlink:href="#f6_cv" transform="matrix(14,0,0,14,223.5,445.7)" />
<use xlink:href="#f6_bp" transform="matrix(14,0,0,14,234.8,445.7)" />
<use xlink:href="#f6_cw" transform="matrix(14,0,0,14,247.6,445.6)" />
<use xlink:href="#f6_bz" transform="matrix(14,0,0,14,247.1,445.7)" />
<use xlink:href="#f6_cb" transform="matrix(14,0,0,14,266.1,445.7)" />
<use xlink:href="#f6_cw" transform="matrix(14,0,0,14,281.5,445.6)" />
<use xlink:href="#f6_dj" transform="matrix(14,0,0,14,274.7,446.2)" />
<use xlink:href="#f6_e6" transform="matrix(14,0,0,14,286.6,445.7)" />
<use xlink:href="#f6_cv" transform="matrix(14,0,0,14,298.7,445.7)" />
<use xlink:href="#f6_bp" transform="matrix(14,0,0,14,304.3,445.7)" />
<use xlink:href="#f6_k" transform="matrix(14,0,0,14,316.7,445.7)" />
<use xlink:href="#f6_mv" transform="matrix(14,0,0,14,327.5,445.7)" />
<use xlink:href="#f6_bg" transform="matrix(14,0,0,14,339.3,445.7)" />
<use xlink:href="#f6_d8" transform="matrix(14,0,0,14,353.6,445.7)" />
<use xlink:href="#f6_b9" transform="matrix(14,0,0,14,364.9,445.7)" />
<use xlink:href="#f6_d8" transform="matrix(14,0,0,14,380.4,445.7)" />
<use xlink:href="#f6_ao" transform="matrix(14,0,0,14,386,445.7)" />
<use xlink:href="#f6_bt" transform="matrix(14,0,0,14,403.2,445.7)" />
<use xlink:href="#f6_am" transform="matrix(14,0,0,14,420.5,445.7)" />
<use xlink:href="#f6_c7" transform="matrix(14,0,0,14,442,445.7)" />
<use xlink:href="#f6_d4" transform="matrix(14,0,0,14,454.2,445.7)" />
<use xlink:href="#f6_nt" transform="matrix(14,0,0,14,459.8,445.7)" />
<use xlink:href="#f6_be" transform="matrix(14,0,0,14,465.4,445.7)" />
<use xlink:href="#f6_bp" transform="matrix(14,0,0,14,479.4,445.7)" />
<use xlink:href="#f6_k" transform="matrix(14,0,0,14,491.7,445.7)" />
<use xlink:href="#f6_b9" transform="matrix(14,0,0,14,94.3,479)" />
<use xlink:href="#f6_c1" transform="matrix(14,0,0,14,109.8,479)" />
<use xlink:href="#f6_bz" transform="matrix(14,0,0,14,123.8,479)" />
<use xlink:href="#f6_cw" transform="matrix(14,0,0,14,137.7,478.9)" />
<use xlink:href="#f6_bh" transform="matrix(14,0,0,14,137.1,479)" />
<use xlink:href="#f6_bp" transform="matrix(14,0,0,14,159.6,479)" />
<use xlink:href="#f6_d4" transform="matrix(14,0,0,14,172,479)" />
<use xlink:href="#f6_bg" transform="matrix(14,0,0,14,171.9,479)" />
<use xlink:href="#f6_e6" transform="matrix(14,0,0,14,191.8,479)" />
<use xlink:href="#f6_bp" transform="matrix(14,0,0,14,203.9,479)" />
<use xlink:href="#f6_ct" transform="matrix(14,0,0,14,216.2,479)" />
<use xlink:href="#f6_bv" transform="matrix(14,0,0,14,221.8,479)" />
<use xlink:href="#f6_e6" transform="matrix(14,0,0,14,239.4,479)" />
<use xlink:href="#f6_be" transform="matrix(14,0,0,14,251.4,479)" />
<use xlink:href="#f6_cx" transform="matrix(14,0,0,14,265.4,478.9)" />
<use xlink:href="#f6_c1" transform="matrix(14,0,0,14,265.4,479)" />
<use xlink:href="#f6_k" transform="matrix(14,0,0,14,273.8,479)" />
<use xlink:href="#f6_nt" transform="matrix(14,0,0,14,284.7,479)" />
<use xlink:href="#f6_ol" transform="matrix(14,0,0,14,300.2,478.6)" />
<use xlink:href="#f6_be" transform="matrix(14,0,0,14,290.3,479)" />
<use xlink:href="#f6_bp" transform="matrix(14,0,0,14,304.3,479)" />
<use xlink:href="#f6_ct" transform="matrix(14,0,0,14,316.6,479)" />
<use xlink:href="#f6_bz" transform="matrix(14,0,0,14,322.2,479)" />
<use xlink:href="#f6_bo" transform="matrix(14,0,0,14,335.6,479)" />
<use xlink:href="#f6_cv" transform="matrix(14,0,0,14,349.9,479)" />
<use xlink:href="#f6_lq" transform="matrix(14,0,0,14,361.2,479)" />
<use xlink:href="#f6_cc" transform="matrix(14,0,0,14,367.9,479)" />
<use xlink:href="#f6_ct" transform="matrix(14,0,0,14,379.5,479)" />
<use xlink:href="#f6_c1" transform="matrix(14,0,0,14,385.1,479)" />
<use xlink:href="#f6_cv" transform="matrix(14,0,0,14,393.5,479)" />
<use xlink:href="#f6_nt" transform="matrix(14,0,0,14,404.8,479)" />
<use xlink:href="#f6_be" transform="matrix(14,0,0,14,410.4,479)" />
<use xlink:href="#f6_li" transform="matrix(14,0,0,14,424.4,479)" />
<use xlink:href="#f6_bp" transform="matrix(14,0,0,14,430.6,479)" />
<use xlink:href="#f6_ct" transform="matrix(14,0,0,14,442.9,479)" />
<use xlink:href="#f6_be" transform="matrix(14,0,0,14,454.2,479)" />
<use xlink:href="#f6_cx" transform="matrix(14,0,0,14,468.1,478.9)" />
<use xlink:href="#f6_c1" transform="matrix(14,0,0,14,468.2,479)" />
<use xlink:href="#f6_pc" transform="matrix(14,0,0,14,476.5,479)" />
<use xlink:href="#f6_pc" transform="matrix(14,0,0,14,480.8,479)" />
<use xlink:href="#f6_pc" transform="matrix(14,0,0,14,485.1,479)" />
<use xlink:href="#f6_2s" transform="matrix(14,0,0,14,489.4,479)" />
<use xlink:href="#f6_2s" transform="matrix(14,0,0,14,495.6,479)" />
<use xlink:href="#f6_na" transform="matrix(14,0,0,14,501.9,479)" />
<use xlink:href="#f6_2s" transform="matrix(14,0,0,14,513.1,479)" />
<use xlink:href="#f6_2s" transform="matrix(14,0,0,14,519.4,479)" />
<use xlink:href="#f6_c7" transform="matrix(14,0,0,14,142.4,537.4)" />
<use xlink:href="#f6_cv" transform="matrix(14,0,0,14,154.5,537.4)" />
<use xlink:href="#f6_bf" transform="matrix(14,0,0,14,160.1,537.4)" />
<use xlink:href="#f6_cu" transform="matrix(14,0,0,14,175.8,537.4)" />
<use xlink:href="#f6_bm" transform="matrix(14,0,0,14,181.4,537.4)" />
<use xlink:href="#f6_c0" transform="matrix(14,0,0,14,194.1,537.4)" />
<use xlink:href="#f6_ct" transform="matrix(14,0,0,14,206.6,537.4)" />
<use xlink:href="#f6_c7" transform="matrix(14,0,0,14,217.9,537.4)" />
<use xlink:href="#f6_ct" transform="matrix(14,0,0,14,230,537.4)" />
<use xlink:href="#f6_c3" transform="matrix(14,0,0,14,235.6,537.4)" />
<use xlink:href="#f6_d4" transform="matrix(14,0,0,14,250.5,537.4)" />
<use xlink:href="#f6_cb" transform="matrix(14,0,0,14,250.3,537.4)" />
<use xlink:href="#f6_c1" transform="matrix(14,0,0,14,265.2,537.4)" />
<use xlink:href="#f6_bz" transform="matrix(14,0,0,14,279.3,537.4)" />
<use xlink:href="#f6_d4" transform="matrix(14,0,0,14,292.7,537.4)" />
<use xlink:href="#f6_c3" transform="matrix(14,0,0,14,292.6,537.4)" />
<use xlink:href="#f6_k" transform="matrix(14,0,0,14,307.3,537.4)" />
<use xlink:href="#f6_c7" transform="matrix(14,0,0,14,318.2,537.4)" />
<use xlink:href="#f6_d5" transform="matrix(14,0,0,14,330.4,537.4)" />
<use xlink:href="#f6_c1" transform="matrix(14,0,0,14,330.3,537.4)" />
<use xlink:href="#f6_cv" transform="matrix(14,0,0,14,338.6,537.4)" />
<use xlink:href="#f6_mv" transform="matrix(14,0,0,14,349.9,537.4)" />
<use xlink:href="#f6_ly" transform="matrix(14,0,0,14,361.7,537.4)" />
<use xlink:href="#f6_bz" transform="matrix(14,0,0,14,372,537.4)" />
<use xlink:href="#f6_bt" transform="matrix(14,0,0,14,385.4,537.4)" />
<use xlink:href="#f6_bv" transform="matrix(14,0,0,14,402.7,537.4)" />
<use xlink:href="#f6_ct" transform="matrix(14,0,0,14,414.6,537.4)" />
<use xlink:href="#f6_bf" transform="matrix(14,0,0,14,420.2,537.4)" />
<use xlink:href="#f6_ct" transform="matrix(14,0,0,14,435.9,537.4)" />
<use xlink:href="#f6_bl" transform="matrix(14,0,0,14,447.2,537.4)" />
<use xlink:href="#f6_d4" transform="matrix(14,0,0,14,458.2,537.4)" />
<use xlink:href="#f6_c3" transform="matrix(14,0,0,14,459.6,537.4)" />
<use xlink:href="#f6_k" transform="matrix(14,0,0,14,474.3,537.4)" />
<use xlink:href="#f6_bp" transform="matrix(14,0,0,14,103.4,570.6)" />
<use xlink:href="#f6_cx" transform="matrix(14,0,0,14,115.7,570.5)" />
<use xlink:href="#f6_bf" transform="matrix(14,0,0,14,121.4,570.6)" />
<use xlink:href="#f6_d4" transform="matrix(14,0,0,14,135.8,570.6)" />
<use xlink:href="#f6_lq" transform="matrix(14,0,0,14,142.8,570.6)" />
<use xlink:href="#f6_cc" transform="matrix(14,0,0,14,149.5,570.6)" />
<use xlink:href="#f6_ct" transform="matrix(14,0,0,14,161.1,570.6)" />
<use xlink:href="#f6_c1" transform="matrix(14,0,0,14,166.7,570.6)" />
<use xlink:href="#f6_d4" transform="matrix(14,0,0,14,174.7,570.6)" />
<use xlink:href="#f6_cc" transform="matrix(14,0,0,14,180.7,570.6)" />
<use xlink:href="#f6_ct" transform="matrix(14,0,0,14,192.3,570.6)" />
<use xlink:href="#f6_bg" transform="matrix(14,0,0,14,198,570.6)" />
<use xlink:href="#f6_c1" transform="matrix(14,0,0,14,212.2,570.6)" />
<use xlink:href="#f6_ct" transform="matrix(14,0,0,14,220.6,570.6)" />
<use xlink:href="#f6_n4" transform="matrix(14,0,0,14,231.9,570.6)" />
<use xlink:href="#f6_bg" transform="matrix(14,0,0,14,243.5,570.6)" />
<use xlink:href="#f6_cw" transform="matrix(14,0,0,14,258.3,570.5)" />
<use xlink:href="#f6_c1" transform="matrix(14,0,0,14,257.7,570.6)" />
<use xlink:href="#f6_k" transform="matrix(14,0,0,14,266.1,570.6)" />
<use xlink:href="#f6_nt" transform="matrix(14,0,0,14,277,570.6)" />
<use xlink:href="#f6_ol" transform="matrix(14,0,0,14,292.5,570.3)" />
<use xlink:href="#f6_be" transform="matrix(14,0,0,14,282.6,570.6)" />
<use xlink:href="#f6_bp" transform="matrix(14,0,0,14,296.6,570.6)" />
<use xlink:href="#f6_ct" transform="matrix(14,0,0,14,308.9,570.6)" />
<use xlink:href="#f6_bz" transform="matrix(14,0,0,14,314.5,570.6)" />
<use xlink:href="#f6_bo" transform="matrix(14,0,0,14,327.9,570.6)" />
<use xlink:href="#f6_cv" transform="matrix(14,0,0,14,342.3,570.6)" />
<use xlink:href="#f6_lq" transform="matrix(14,0,0,14,353.5,570.6)" />
<use xlink:href="#f6_cc" transform="matrix(14,0,0,14,360.2,570.6)" />
<use xlink:href="#f6_ct" transform="matrix(14,0,0,14,371.8,570.6)" />
<use xlink:href="#f6_c1" transform="matrix(14,0,0,14,377.4,570.6)" />
<use xlink:href="#f6_cv" transform="matrix(14,0,0,14,385.8,570.6)" />
<use xlink:href="#f6_nt" transform="matrix(14,0,0,14,397.1,570.6)" />
<use xlink:href="#f6_be" transform="matrix(14,0,0,14,402.7,570.6)" />
<use xlink:href="#f6_li" transform="matrix(14,0,0,14,416.7,570.6)" />
<use xlink:href="#f6_bp" transform="matrix(14,0,0,14,422.9,570.6)" />
<use xlink:href="#f6_ct" transform="matrix(14,0,0,14,435.2,570.6)" />
<use xlink:href="#f6_be" transform="matrix(14,0,0,14,446.5,570.6)" />
<use xlink:href="#f6_cx" transform="matrix(14,0,0,14,460.4,570.5)" />
<use xlink:href="#f6_c1" transform="matrix(14,0,0,14,460.5,570.6)" />
<use xlink:href="#f6_pc" transform="matrix(14,0,0,14,468.9,570.6)" />
<use xlink:href="#f6_pc" transform="matrix(14,0,0,14,473.1,570.6)" />
<use xlink:href="#f6_pc" transform="matrix(14,0,0,14,477.4,570.6)" />
<use xlink:href="#f6_2s" transform="matrix(14,0,0,14,481.7,570.6)" />
<use xlink:href="#f6_2s" transform="matrix(14,0,0,14,488,570.6)" />
<use xlink:href="#f6_nb" transform="matrix(14,0,0,14,494.2,570.6)" />
<use xlink:href="#f6_2s" transform="matrix(14,0,0,14,505.3,570.6)" />
<use xlink:href="#f6_2s" transform="matrix(14,0,0,14,511.6,570.6)" />
<use xlink:href="#f6_c0" transform="matrix(14,0,0,14,135.5,629.1)" />
<use xlink:href="#f6_cc" transform="matrix(14,0,0,14,148.1,629.1)" />
<use xlink:href="#f6_m1" transform="matrix(14,0,0,14,165.3,629.1)" />
<use xlink:href="#f6_bp" transform="matrix(14,0,0,14,174.2,629.1)" />
<use xlink:href="#f6_d8" transform="matrix(14,0,0,14,186.5,629.1)" />
<use xlink:href="#f6_e1" transform="matrix(14,0,0,14,192.2,629.1)" />
<use xlink:href="#f6_bg" transform="matrix(14,0,0,14,209.9,629.1)" />
<use xlink:href="#f6_d4" transform="matrix(14,0,0,14,224.3,629.1)" />
<use xlink:href="#f6_bz" transform="matrix(14,0,0,14,229.8,629.1)" />
<use xlink:href="#f6_bt" transform="matrix(14,0,0,14,243.1,629.1)" />
<use xlink:href="#f6_bz" transform="matrix(14,0,0,14,260.5,629.1)" />
<use xlink:href="#f6_oz" transform="matrix(14,0,0,14,274,629.1)" />
<use xlink:href="#f6_bs" transform="matrix(14,0,0,14,279.5,629.1)" />
<use xlink:href="#f6_c1" transform="matrix(14,0,0,14,293.5,629.1)" />
<use xlink:href="#f6_d4" transform="matrix(14,0,0,14,301.5,629.1)" />
<use xlink:href="#f6_k" transform="matrix(14,0,0,14,301.9,629.1)" />
<use xlink:href="#f6_bp" transform="matrix(14,0,0,14,312.8,629.1)" />
<use xlink:href="#f6_d4" transform="matrix(14,0,0,14,325.2,629.1)" />
<use xlink:href="#f6_cc" transform="matrix(14,0,0,14,325.1,629.1)" />
<use xlink:href="#f6_bt" transform="matrix(14,0,0,14,336.7,629.1)" />
<use xlink:href="#f6_ct" transform="matrix(14,0,0,14,348.4,629.1)" />
<use xlink:href="#f6_nt" transform="matrix(14,0,0,14,359.7,629.1)" />
<use xlink:href="#f6_be" transform="matrix(14,0,0,14,365.3,629.1)" />
<use xlink:href="#f6_hl" transform="matrix(14,0,0,14,379.3,629.1)" />
<use xlink:href="#f6_ct" transform="matrix(14,0,0,14,404.7,629.1)" />
<use xlink:href="#f6_b9" transform="matrix(14,0,0,14,416,629.1)" />
<use xlink:href="#f6_ct" transform="matrix(14,0,0,14,431.5,629.1)" />
<use xlink:href="#f6_bg" transform="matrix(14,0,0,14,437.1,629.1)" />
<use xlink:href="#f6_cb" transform="matrix(14,0,0,14,457,629.1)" />
<use xlink:href="#f6_c1" transform="matrix(14,0,0,14,471.9,629.1)" />
<use xlink:href="#f6_d4" transform="matrix(14,0,0,14,479.9,629.1)" />
<use xlink:href="#f6_k" transform="matrix(14,0,0,14,480.3,629.1)" />
<use xlink:href="#f6_am" transform="matrix(14,0,0,14,86.2,662.3)" />
<use xlink:href="#f6_nt" transform="matrix(14,0,0,14,107.7,662.3)" />
<use xlink:href="#f6_nl" transform="matrix(14,0,0,14,113.3,662.3)" />
<use xlink:href="#f6_bs" transform="matrix(14,0,0,14,113.3,662.3)" />
<use xlink:href="#f6_lx" transform="matrix(14,0,0,14,133,662.3)" />
<use xlink:href="#f6_c0" transform="matrix(14,0,0,14,141,662.3)" />
<use xlink:href="#f6_ct" transform="matrix(14,0,0,14,153.6,662.3)" />
<use xlink:href="#f6_nt" transform="matrix(14,0,0,14,159.2,662.3)" />
<use xlink:href="#f6_nl" transform="matrix(14,0,0,14,164.8,662.3)" />
<use xlink:href="#f6_bs" transform="matrix(14,0,0,14,164.8,662.3)" />
<use xlink:href="#f6_mv" transform="matrix(14,0,0,14,184.5,662.3)" />
<use xlink:href="#f6_y" transform="matrix(14,0,0,14,196.3,662.3)" />
<use xlink:href="#f6_ba" transform="matrix(14,0,0,14,203.3,662.3)" />
<use xlink:href="#f6_bg" transform="matrix(14,0,0,14,225.6,662.3)" />
<use xlink:href="#f6_ct" transform="matrix(14,0,0,14,239.9,662.3)" />
<use xlink:href="#f6_c7" transform="matrix(14,0,0,14,245.5,662.3)" />
<use xlink:href="#f6_d4" transform="matrix(14,0,0,14,257.7,662.3)" />
<use xlink:href="#f6_mw" transform="matrix(14,0,0,14,263.3,662.3)" />
<use xlink:href="#f6_c1" transform="matrix(14,0,0,14,275,662.3)" />
<use xlink:href="#f6_k" transform="matrix(14,0,0,14,283.4,662.3)" />
<use xlink:href="#f6_nt" transform="matrix(14,0,0,14,294.3,662.3)" />
<use xlink:href="#f6_ol" transform="matrix(14,0,0,14,309.8,662)" />
<use xlink:href="#f6_be" transform="matrix(14,0,0,14,299.9,662.3)" />
<use xlink:href="#f6_bp" transform="matrix(14,0,0,14,313.9,662.3)" />
<use xlink:href="#f6_ct" transform="matrix(14,0,0,14,326.2,662.3)" />
<use xlink:href="#f6_bz" transform="matrix(14,0,0,14,331.8,662.3)" />
<use xlink:href="#f6_bo" transform="matrix(14,0,0,14,345.2,662.3)" />
<use xlink:href="#f6_cv" transform="matrix(14,0,0,14,359.5,662.3)" />
<use xlink:href="#f6_lq" transform="matrix(14,0,0,14,370.8,662.3)" />
<use xlink:href="#f6_cc" transform="matrix(14,0,0,14,377.5,662.3)" />
<use xlink:href="#f6_ct" transform="matrix(14,0,0,14,389.1,662.3)" />
<use xlink:href="#f6_c1" transform="matrix(14,0,0,14,394.7,662.3)" />
<use xlink:href="#f6_cv" transform="matrix(14,0,0,14,403.1,662.3)" />
<use xlink:href="#f6_nt" transform="matrix(14,0,0,14,414.4,662.3)" />
<use xlink:href="#f6_be" transform="matrix(14,0,0,14,420,662.3)" />
<use xlink:href="#f6_li" transform="matrix(14,0,0,14,434,662.3)" />
<use xlink:href="#f6_bp" transform="matrix(14,0,0,14,440.2,662.3)" />
<use xlink:href="#f6_ct" transform="matrix(14,0,0,14,452.5,662.3)" />
<use xlink:href="#f6_be" transform="matrix(14,0,0,14,463.8,662.3)" />
<use xlink:href="#f6_cx" transform="matrix(14,0,0,14,477.7,662.2)" />
<use xlink:href="#f6_c1" transform="matrix(14,0,0,14,477.8,662.3)" />
<use xlink:href="#f6_pc" transform="matrix(14,0,0,14,486.2,662.3)" />
<use xlink:href="#f6_pc" transform="matrix(14,0,0,14,490.4,662.3)" />
<use xlink:href="#f6_pc" transform="matrix(14,0,0,14,494.7,662.3)" />
<use xlink:href="#f6_2s" transform="matrix(14,0,0,14,499,662.3)" />
<use xlink:href="#f6_2s" transform="matrix(14,0,0,14,505.3,662.3)" />
<use xlink:href="#f6_nc" transform="matrix(14,0,0,14,511.5,662.3)" />
<use xlink:href="#f6_2s" transform="matrix(14,0,0,14,521.9,662.3)" />
<use xlink:href="#f6_2s" transform="matrix(14,0,0,14,528.2,662.3)" />
<use xlink:href="#f6_by" transform="matrix(14,0,0,14,116,728.8)" />
<use xlink:href="#f6_c7" transform="matrix(14,0,0,14,130,728.8)" />
<use xlink:href="#f6_d8" transform="matrix(14,0,0,14,142.1,728.8)" />
<use xlink:href="#f6_by" transform="matrix(14,0,0,14,147.7,728.8)" />
<use xlink:href="#f6_c7" transform="matrix(14,0,0,14,161.7,728.8)" />
<use xlink:href="#f6_br" transform="matrix(14,0,0,14,179.4,728.8)" />
<use xlink:href="#f6_d4" transform="matrix(14,0,0,14,190.6,728.8)" />
<use xlink:href="#f6_bg" transform="matrix(14,0,0,14,191.1,728.8)" />
<use xlink:href="#f6_d8" transform="matrix(14,0,0,14,205.3,728.8)" />
<use xlink:href="#f6_bp" transform="matrix(14,0,0,14,216.6,728.8)" />
<use xlink:href="#f6_cw" transform="matrix(14,0,0,14,229.5,728.6)" />
<use xlink:href="#f6_bz" transform="matrix(14,0,0,14,228.9,728.8)" />
<use xlink:href="#f6_bv" transform="matrix(14,0,0,14,247.9,728.8)" />
<use xlink:href="#f6_br" transform="matrix(14,0,0,14,259.8,728.8)" />
<use xlink:href="#f6_cb" transform="matrix(14,0,0,14,277.1,728.8)" />
<use xlink:href="#f6_d4" transform="matrix(14,0,0,14,292.1,728.8)" />
<use xlink:href="#f6_c7" transform="matrix(14,0,0,14,292,728.8)" />
<use xlink:href="#f6_k" transform="matrix(14,0,0,14,304.1,728.8)" />
<use xlink:href="#f6_ef" transform="matrix(14,0,0,14,315,728.8)" />
<use xlink:href="#f6_cv" transform="matrix(14,0,0,14,329.2,728.8)" />
<use xlink:href="#f6_nt" transform="matrix(14,0,0,14,340.4,728.8)" />
<use xlink:href="#f6_ol" transform="matrix(14,0,0,14,355.9,728.4)" />
<use xlink:href="#f6_be" transform="matrix(14,0,0,14,346.1,728.8)" />
<use xlink:href="#f6_bp" transform="matrix(14,0,0,14,360.1,728.8)" />
<use xlink:href="#f6_ct" transform="matrix(14,0,0,14,372.4,728.8)" />
<use xlink:href="#f6_bz" transform="matrix(14,0,0,14,378,728.8)" />
<use xlink:href="#f6_bo" transform="matrix(14,0,0,14,391.3,728.8)" />
<use xlink:href="#f6_cv" transform="matrix(14,0,0,14,405.7,728.8)" />
<use xlink:href="#f6_al" transform="matrix(14,0,0,14,417,728.8)" />
<use xlink:href="#f6_nr" transform="matrix(14,0,0,14,432.8,728.8)" />
<use xlink:href="#f6_c1" transform="matrix(14,0,0,14,438.5,728.8)" />
<use xlink:href="#f6_cc" transform="matrix(14,0,0,14,446.8,728.8)" />
<use xlink:href="#f6_dj" transform="matrix(14,0,0,14,455.7,729.2)" />
<use xlink:href="#f6_bp" transform="matrix(14,0,0,14,458.4,728.8)" />
<use xlink:href="#f6_br" transform="matrix(14,0,0,14,476.4,728.8)" />
<use xlink:href="#f6_d4" transform="matrix(14,0,0,14,487.7,728.8)" />
<use xlink:href="#f6_c7" transform="matrix(14,0,0,14,488.1,728.8)" />
<use xlink:href="#f6_k" transform="matrix(14,0,0,14,500.2,728.8)" />
<use xlink:href="#f6_cb" transform="matrix(14,0,0,14,78.2,762)" />
<use xlink:href="#f6_bz" transform="matrix(14,0,0,14,93.1,762)" />
<use xlink:href="#f6_c0" transform="matrix(14,0,0,14,106.4,762)" />
<use xlink:href="#f6_cb" transform="matrix(14,0,0,14,124.7,762)" />
<use xlink:href="#f6_cw" transform="matrix(14,0,0,14,140.1,761.9)" />
<use xlink:href="#f6_lj" transform="matrix(14,0,0,14,139.5,762)" />
<use xlink:href="#f6_br" transform="matrix(14,0,0,14,145.3,762)" />
<use xlink:href="#f6_c1" transform="matrix(14,0,0,14,157,762)" />
<use xlink:href="#f6_b9" transform="matrix(14,0,0,14,171,762)" />
<use xlink:href="#f6_cc" transform="matrix(14,0,0,14,186.5,762)" />
<use xlink:href="#f6_d4" transform="matrix(14,0,0,14,198.5,762)" />
<use xlink:href="#f6_cb" transform="matrix(14,0,0,14,203.8,762)" />
<use xlink:href="#f6_cw" transform="matrix(14,0,0,14,219.2,761.9)" />
<use xlink:href="#f6_ba" transform="matrix(14,0,0,14,218.7,762)" />
<use xlink:href="#f6_by" transform="matrix(14,0,0,14,241.1,762)" />
<use xlink:href="#f6_c1" transform="matrix(14,0,0,14,255,762)" />
<use xlink:href="#f6_bv" transform="matrix(14,0,0,14,263.4,762)" />
<use xlink:href="#f6_cx" transform="matrix(14,0,0,14,275.2,761.9)" />
<use xlink:href="#f6_c1" transform="matrix(14,0,0,14,275.3,762)" />
<use xlink:href="#f6_k" transform="matrix(14,0,0,14,283.7,762)" />
<use xlink:href="#f6_nt" transform="matrix(14,0,0,14,294.5,762)" />
<use xlink:href="#f6_ol" transform="matrix(14,0,0,14,310,761.7)" />
<use xlink:href="#f6_be" transform="matrix(14,0,0,14,300.2,762)" />
<use xlink:href="#f6_bp" transform="matrix(14,0,0,14,314.1,762)" />
<use xlink:href="#f6_ct" transform="matrix(14,0,0,14,326.5,762)" />
<use xlink:href="#f6_bz" transform="matrix(14,0,0,14,332.1,762)" />
<use xlink:href="#f6_bo" transform="matrix(14,0,0,14,345.4,762)" />
<use xlink:href="#f6_cv" transform="matrix(14,0,0,14,359.8,762)" />
<use xlink:href="#f6_lq" transform="matrix(14,0,0,14,371.1,762)" />
<use xlink:href="#f6_cc" transform="matrix(14,0,0,14,377.7,762)" />
<use xlink:href="#f6_ct" transform="matrix(14,0,0,14,389.3,762)" />
<use xlink:href="#f6_c1" transform="matrix(14,0,0,14,395,762)" />
<use xlink:href="#f6_cv" transform="matrix(14,0,0,14,403.3,762)" />
<use xlink:href="#f6_nt" transform="matrix(14,0,0,14,414.6,762)" />
<use xlink:href="#f6_be" transform="matrix(14,0,0,14,420.3,762)" />
<use xlink:href="#f6_li" transform="matrix(14,0,0,14,434.2,762)" />
<use xlink:href="#f6_bp" transform="matrix(14,0,0,14,440.4,762)" />
<use xlink:href="#f6_ct" transform="matrix(14,0,0,14,452.7,762)" />
<use xlink:href="#f6_be" transform="matrix(14,0,0,14,464,762)" />
<use xlink:href="#f6_cx" transform="matrix(14,0,0,14,478,761.9)" />
<use xlink:href="#f6_c1" transform="matrix(14,0,0,14,478,762)" />
<use xlink:href="#f6_pc" transform="matrix(14,0,0,14,486.4,762)" />
<use xlink:href="#f6_pc" transform="matrix(14,0,0,14,490.7,762)" />
<use xlink:href="#f6_pc" transform="matrix(14,0,0,14,494.9,762)" />
<use xlink:href="#f6_2s" transform="matrix(14,0,0,14,499.2,762)" />
<use xlink:href="#f6_2s" transform="matrix(14,0,0,14,505.5,762)" />
<use xlink:href="#f6_nd" transform="matrix(14,0,0,14,511.7,762)" />
<use xlink:href="#f6_ng" transform="matrix(14,0,0,14,524.3,762)" />
<use xlink:href="#f6_ng" transform="matrix(14,0,0,14,533.7,762)" />
<use xlink:href="#f7_4r" transform="matrix(9,0,0,9,290.2,795.2)" />
<use xlink:href="#f8_l" transform="matrix(9,0,0,9,303,795.2)" />
<use xlink:href="#f8_l" transform="matrix(9,0,0,9,310.7,795.2)" />
<use xlink:href="#f7_4r" transform="matrix(9,0,0,9,321.3,795.2)" />
</g>
</g>
<image preserveAspectRatio="none" x="22" y="801" width="581" height="86" xlink:href="img/1.png"/>
<path d="M232.6,97.4h157v1.1h-157V97.4Z" class="g1_17"/>
<image preserveAspectRatio="none" x="202" y="14" width="217" height="26" xlink:href="img/2.png"/>
<defs>
<path d="M368,629c0,0,125,88,125,182l-3,25c0,0,-26,21,-55,21c0,0,-41,0,-71,-37c0,0,-31,-36,-31,-90c0,0,0,-56,35,-101ZM964,-65L790,29V290L442,0L284,156L585,380c0,0,-72,19,-125,43l-3,-1L174,238L21,413L254,556c0,0,-138,124,-138,252c0,0,0,90,71,159c0,0,71,69,169,69c0,0,119,0,209,-95c0,0,90,-95,90,-215c0,0,0,-107,-79,-200l86,-7c0,0,61,0,128,14V822H759L674,937l32,64h444l86,-115l-32,-64H932l102,-73V-31L964,-65Z"
id="f5_ef"
transform="scale(0.001,-0.001)"/>

<path d="M277,-65L102,29V822H0L-86,937l32,64H110c0,0,-50,142,-110,226c0,0,-60,84,-149,84c0,0,-59,0,-97,-37c0,0,-39,-36,-39,-91c0,0,0,-57,42,-115l-95,-50c0,0,-145,116,-145,267c0,0,0,108,75,179c0,0,76,70,195,70c0,0,179,0,297,-150c0,0,119,-150,189,-383H463L548,886L516,822H244L347,749V-31L277,-65Z"
id="f5_cv"
transform="scale(0.001,-0.001)"/>

<path d="M394,379c0,0,57,0,107,30c0,0,51,29,77,86V822H214L318,749V403c0,0,29,-24,76,-24ZM752,-65L578,29V188c0,0,-43,-18,-89,-18c0,0,-138,0,-282,130C207,300,63,431,60,567V822H0L-86,937l32,64H937l87,-115L992,822H720L822,749V-31L752,-65Z"
id="f5_bv"
transform="scale(0.001,-0.001)"/>

<path d="M277,-65L102,29V822H0L-86,937l32,64H463L548,886L516,822H244L347,749V-31L277,-65Z"
id="f5_ct"
transform="scale(0.001,-0.001)"/>

<path d="M0,822L-86,937l32,64H67L153,886L121,822Z"
id="f5_nn"
transform="scale(0.001,-0.001)"/>

<path d="M585,55c15,0,71,3,128,48c0,0,68,53,89,129v61c0,0,-102,-1,-179,-55c0,0,-78,-53,-78,-119c0,0,0,-40,36,-64c0,0,1,0,4,0ZM362,642c0,0,131,94,131,174l-3,20c0,0,-26,21,-55,21c0,0,-41,0,-71,-36c0,0,-31,-36,-31,-88c0,0,0,-47,29,-91ZM976,-240l-174,93v70c0,0,-63,-35,-144,-35c0,0,-132,0,-236,79c0,0,-104,77,-104,183c0,0,0,78,59,143c0,0,58,65,159,100l-79,29L174,238L-1,413L240,561c0,0,-135,128,-135,247c0,0,0,92,72,160c0,0,72,68,174,68c0,0,123,0,214,-95c0,0,90,-95,90,-214c0,0,0,-110,-84,-209c0,0,45,-11,104,-11c0,0,66,0,127,16V822H770L684,937l33,64h444l86,-115l-32,-64H944l103,-73V-207l-71,-33Z"
id="f5_ke"
transform="scale(0.001,-0.001)"/>

<path d="M-268,901c0,0,-241,181,-241,358c0,0,0,99,72,166c0,0,71,68,177,68c0,0,69,0,132,-29c0,0,63,-28,102,-72L-60,1276c0,0,-52,26,-106,26c0,0,-62,0,-106,-35c0,0,-43,-36,-43,-101c0,0,0,-57,34,-110c0,0,35,-54,103,-121l-90,-34Z"
id="f5_dr"
transform="scale(0.001,-0.001)"/>

<path d="M746,-65L571,29V419H376V260L275,212c0,0,-87,48,-160,148c0,0,-72,100,-91,193l57,84H571V822H0L-86,937l32,64H930l88,-115L985,822H713L816,749V-31L746,-65Z"
id="f5_bt"
transform="scale(0.001,-0.001)"/>

<path d="M0,822L-86,937l32,64H15L101,886L69,822Z"
id="f5_no"
transform="scale(0.001,-0.001)"/>

<path d="M842,-65L668,29V141c0,0,-66,-33,-142,-33c0,0,-146,0,-279,109c0,0,-134,108,-209,287l29,78c0,0,324,35,324,203c0,0,0,46,-27,80c0,0,-13,6,-29,6c0,0,-32,0,-57,-23c0,0,-24,-23,-24,-60c0,0,0,-49,45,-91L211,636C211,636,49,746,49,857c0,0,0,73,59,126c0,0,60,53,146,53c0,0,128,0,236,-109c0,0,107,-110,107,-239c0,0,0,-98,-74,-182c0,0,-75,-83,-222,-119c0,0,20,-51,52,-95c0,0,1,0,4,0c20,0,102,2,181,39c0,0,90,42,130,121V822H636L550,937l32,64h445l85,-115l-32,-64H810L912,749V-31L842,-65Z"
id="f5_bq"
transform="scale(0.001,-0.001)"/>

<path d="M442,376c0,0,123,0,186,113V822H264L368,749V403c0,0,28,-27,74,-27ZM238,-86L67,53L339,241c0,0,-95,55,-161,148c0,0,-66,92,-68,178V822H0L-86,937l32,64H987l86,-115l-33,-64H770L872,749V-31L802,-65L628,29V206L238,-86Z"
id="f5_e6"
transform="scale(0.001,-0.001)"/>

<path d="M959,-49L869,8V367c0,0,-32,-13,-64,-13c0,0,-50,0,-110,25c0,0,23,-52,23,-109c0,0,0,-103,-70,-170c0,0,-70,-66,-182,-66c0,0,-110,0,-222,82c0,0,-111,83,-213,293l68,42c0,0,72,-155,152,-231c0,0,81,-76,178,-76c0,0,83,0,131,49c0,0,48,48,48,117c0,0,0,54,-30,100c0,0,-31,47,-91,65L325,391L257,512c0,0,68,53,156,56c0,0,140,72,140,179c0,0,0,69,-52,99c0,0,-4,1,-11,1c-19,0,-66,-4,-123,-30c0,0,-78,-35,-142,-96L150,823c0,0,119,117,253,117c0,0,98,0,175,-71c0,0,77,-70,77,-159c0,0,0,-103,-94,-180c0,0,39,-23,73,-56c0,0,52,-22,109,-22c0,0,77,0,126,38V822H727l-46,76l14,31h840l46,-76l-13,-31H1332l66,-58V-39l-37,-10L1271,8V822H930l66,-58V-39L959,-49Z"
id="f6_am"
transform="scale(0.001,-0.001)"/>

<path d="M342,324c0,0,45,0,75,34c0,0,31,33,31,100V822H165l66,-58V390c0,0,32,-66,111,-66ZM853,-49L762,8V822H509l65,-58V455c0,0,0,-134,-51,-185c0,0,-52,-52,-127,-52c0,0,-98,0,-195,99c0,0,-97,99,-97,209V822H0l-45,76l14,31H1027l46,-76l-14,-31H823l66,-58V-39L853,-49Z"
id="f6_bo"
transform="scale(0.001,-0.001)"/>

<path d="M228,-49L138,8V822H0l-45,76l14,31H138c0,0,-109,342,-284,342c0,0,-62,0,-102,-40c0,0,-40,-39,-40,-93c0,0,0,-61,51,-134l-42,-32c0,0,-128,113,-128,226c0,0,0,79,60,136c0,0,61,56,154,56c0,0,137,0,249,-125c0,0,112,-125,169,-336H402l46,-76L434,822H199l65,-58V-39L228,-49Z"
id="f6_cv"
transform="scale(0.001,-0.001)"/>

<path d="M689,445V822H286l65,-58l8,-319ZM779,-49L689,8V328H370V180L296,150c0,0,-56,35,-120,104c0,0,-63,70,-89,131l41,60H238L223,822H0l-45,76l14,31H953l46,-76L985,822H750l66,-58V-39L779,-49Z"
id="f6_bz"
transform="scale(0.001,-0.001)"/>

<path d="M663,-49L573,8V445H299V280L226,251c0,0,-105,99,-162,238l63,72H573V822H0l-45,76l14,31H837l46,-76L869,822H634l66,-58V-39L663,-49Z"
id="f6_bt"
transform="scale(0.001,-0.001)"/>

<path d="M799,475V822H350l66,-55V564c0,0,0,-43,-25,-89ZM527,-71L52,414l34,92H277c0,0,12,32,12,72V822H0l-45,76l14,31H1063l46,-76l-14,-31H860l66,-58V-39L889,-49L799,8V370H315L264,316L610,34L611,8L527,-71Z"
id="f6_cb"
transform="scale(0.001,-0.001)"/>

<path d="M-234,-413c0,0,-210,0,-488,322l54,49c0,0,119,-128,209,-193c0,0,90,-65,177,-65c0,0,72,0,113,40c0,0,42,39,42,91c0,0,0,75,-78,106L-323,-181l-90,98c0,0,63,95,167,95c0,0,90,0,155,-69c0,0,66,-70,66,-164c0,0,0,-85,-60,-139c0,0,-61,-53,-149,-53Z"
id="f6_cw"
transform="scale(0.001,-0.001)"/>

<path d="M0,822l-45,76l14,31H38L84,853L70,822Z"
id="f6_nl"
transform="scale(0.001,-0.001)"/>

<path d="M827,-49L736,8V205c0,0,-84,-84,-209,-84c0,0,-130,0,-237,91c0,0,-108,92,-108,196c0,0,0,79,61,137C243,545,66,672,66,791c0,0,0,75,52,124c0,0,53,49,134,49c0,0,164,0,260,-237L451,694c0,0,-55,114,-119,163l-31,5c0,0,-44,0,-77,-32c0,0,-33,-31,-33,-78c0,0,0,-86,113,-165c0,0,60,27,133,27l67,-4l75,-89L564,490l-51,7H493c0,0,-90,0,-142,-43c0,0,-52,-43,-52,-104c0,0,0,-60,51,-109c0,0,33,-16,84,-16c0,0,89,0,177,47c0,0,89,47,125,137V822H567l-46,76l14,31h466l46,-76l-14,-31H798l65,-58V-39L827,-49Z"
id="f6_bs"
transform="scale(0.001,-0.001)"/>

<path d="M527,-71L52,414l34,92H277c0,0,12,32,12,72V822H0l-45,76l14,31H654l46,-76L686,822H350l66,-55V564c0,0,0,-43,-25,-89H782L798,370H315L264,316L610,34L611,8L527,-71Z"
id="f6_m1"
transform="scale(0.001,-0.001)"/>

<path d="M768,-49L678,8V202c0,0,-73,-58,-172,-58c0,0,-123,0,-240,94c0,0,-118,94,-179,237l20,55c0,0,134,12,215,70c0,0,81,57,81,141c0,0,0,90,-67,134l-26,3c0,0,-46,0,-74,-29c0,0,-28,-30,-28,-68c0,0,0,-55,82,-109L252,620C252,620,93,720,93,820c0,0,0,65,47,104c0,0,46,40,114,40c0,0,99,0,179,-83c0,0,80,-83,82,-197c0,0,0,-93,-79,-165c0,0,-78,-73,-199,-97c0,0,29,-104,88,-158c0,0,42,-16,92,-16c0,0,78,0,151,38c0,0,74,38,110,111V822H553l-46,76l14,31H943l45,-76L975,822H739l66,-58V-39L768,-49Z"
id="f6_bq"
transform="scale(0.001,-0.001)"/>

<path d="M228,-49L138,8V822H0l-45,76l14,31H402l46,-76L434,822H199l65,-58V-39L228,-49Z"
id="f6_ct"
transform="scale(0.001,-0.001)"/>

<path d="M108,-222l-44,58c0,0,96,81,104,164L89,61c0,0,12,83,93,122c0,0,50,-15,79,-55c0,0,29,-39,29,-90c0,0,0,-69,-48,-142c0,0,-48,-72,-134,-118Z"
id="f6_k"
transform="scale(0.001,-0.001)"/>

<path d="M675,-274L602,21C602,21,550,3,498,3C498,3,347,3,210,118C210,118,73,232,73,373c0,0,0,113,84,184c0,0,84,71,222,72H524V822H0l-45,76l14,31H834l46,-76L866,822H585l66,-58V504l-3,2l3,-3H408c0,0,-95,0,-154,-53c0,0,-58,-53,-58,-132c0,0,0,-49,27,-100c0,0,28,-50,83,-84c0,0,44,-15,96,-15c0,0,91,0,160,46L535,303l101,48L773,188c0,0,-8,-28,-34,-66c0,0,-27,-38,-62,-64L813,-221L675,-274Z"
id="f6_br"
transform="scale(0.001,-0.001)"/>

<path d="M-214,863l-199,281c0,0,-70,92,-157,92c0,0,-69,0,-159,-58l-72,118c0,0,89,73,180,73c0,0,141,0,258,-170L-155,901l-59,-38Z"
id="f6_d4"
transform="scale(0.001,-0.001)"/>

<path d="M325,240c0,0,77,0,154,35c0,0,77,35,120,99V500c0,0,-118,73,-222,73c0,0,-97,0,-151,-54c0,0,-53,-53,-53,-128c0,0,0,-73,49,-125c0,0,38,-26,103,-26ZM689,-49L599,8V199c0,0,-73,-65,-179,-65c0,0,-134,0,-252,96c0,0,-118,95,-118,221c0,0,0,102,78,171c0,0,78,69,190,69c0,0,38,0,75,-10L599,582V822H0l-45,76l14,31H863l46,-76L895,822H660l66,-58V-39L689,-49Z"
id="f6_c7"
transform="scale(0.001,-0.001)"/>

<path d="M845,-49L755,8V513H497c0,0,61,-45,93,-110c0,0,33,-64,33,-128c0,0,0,-90,-58,-144c0,0,-59,-53,-143,-53c0,0,-133,0,-234,139C188,217,87,356,20,596l76,24c0,0,60,-201,127,-306c0,0,67,-105,160,-105c0,0,57,0,91,36c0,0,33,36,33,91c0,0,0,84,-73,159L295,558v71H755V822H0l-45,76l14,31H1019l46,-76l-14,-31H816l66,-58V-39L845,-49Z"
id="f6_bg"
transform="scale(0.001,-0.001)"/>

<path d="M688,-243c0,0,-256,53,-408,173c0,0,-152,119,-152,270c0,0,0,101,68,171c0,0,-101,84,-101,179c0,0,0,64,53,112c0,0,54,47,191,47H587V822H0l-45,76l14,31H830l45,-76L862,822H640l66,-58V585H362c0,0,-159,-1,-159,-92c0,0,0,-41,46,-80c0,0,76,47,183,47c0,0,135,0,230,-76c0,0,96,-75,96,-187C758,197,758,67,629,2L545,104c0,0,49,30,81,75c0,0,32,44,32,82c0,0,0,16,-4,26c0,0,-64,58,-167,58c0,0,-97,0,-166,-50v-2c0,0,-67,-52,-67,-131c0,0,0,-116,132,-199c0,0,132,-84,334,-132l-32,-74Z"
id="f6_cc"
transform="scale(0.001,-0.001)"/>

<path d="M527,-71L52,414l34,92H277c0,0,12,32,12,72V822H0l-45,76l14,31H940l45,-76L972,822H350l66,-55V553c0,0,24,52,77,83c0,0,52,30,112,30c0,0,87,0,171,-76c0,0,84,-75,222,-304L938,244L828,411c0,0,-95,134,-195,134c0,0,-63,0,-100,-35c0,0,-36,-36,-36,-87c0,0,0,-50,42,-87l152,99L755,315c0,0,-71,-61,-148,-61c0,0,-80,0,-146,66c0,0,-65,67,-65,164c0,0,-34,-70,-132,-168L610,34L611,8L527,-71Z"
id="f6_n1"
transform="scale(0.001,-0.001)"/>

<path d="M-233,1021c0,0,-84,0,-168,55c0,0,-84,56,-146,162l51,50c0,0,95,-162,219,-162c0,0,125,0,160,157L-7,1234c0,0,-21,-103,-81,-158c0,0,-61,-55,-145,-55Zm-41,201c0,0,-66,25,-102,80c0,0,32,68,82,101c0,0,55,-20,99,-80c0,0,-26,-67,-79,-101Z"
id="f6_di"
transform="scale(0.001,-0.001)"/>

<path d="M388,325c0,0,58,0,112,31c0,0,53,31,84,86V822H165l69,-58V408c0,0,47,-83,154,-83ZM674,-49L584,8V257c0,0,-61,-51,-141,-51c0,0,-125,0,-232,109c0,0,-107,108,-107,243V822H0l-45,76l14,31H848l46,-76L880,822H645l65,-58V-39L674,-49Z"
id="f6_bv"
transform="scale(0.001,-0.001)"/>

<path d="M0,822l-45,76l14,31H93l46,-76L125,822Z"
id="f6_nn"
transform="scale(0.001,-0.001)"/>

<path d="M500,44c0,0,78,0,152,57c0,0,75,56,98,134V350c0,0,-130,0,-223,-64c0,0,-93,-63,-93,-148c0,0,0,-54,43,-92l23,-2ZM321,561c0,0,66,46,101,105c0,0,36,60,36,113c0,0,0,28,-9,48c0,0,-35,41,-87,41c0,0,-50,0,-89,-38c0,0,-39,-39,-39,-100c0,0,0,-94,87,-169ZM840,-111l-90,59V32c0,0,-69,-68,-156,-68c0,0,-97,0,-187,64c0,0,-89,64,-89,146c0,0,0,61,48,123c0,0,48,62,141,94c0,0,-69,20,-140,57L105,272L20,364L260,519c0,0,-144,118,-144,246c0,0,0,81,57,140c0,0,56,59,140,59c0,0,96,0,171,-79c0,0,75,-78,75,-168c0,0,0,-118,-133,-222c0,0,107,-44,232,-44l92,6V822H628l-46,76l14,31h418l46,-76l-13,-31H811l66,-58V-100l-37,-11Z"
id="f6_ke"
transform="scale(0.001,-0.001)"/>

<path d="M-239,897c0,0,-82,61,-132,137c0,0,-50,75,-50,150c0,0,0,78,52,133c0,0,52,55,141,55c0,0,98,0,176,-64l-23,-69c0,0,-52,32,-104,32c0,0,-57,0,-95,-36c0,0,-38,-36,-38,-95c0,0,0,-115,117,-217l-44,-26Z"
id="f6_dr"
transform="scale(0.001,-0.001)"/>

<path d="M0,822l-45,76l14,31H61l46,-76L93,822Z"
id="f6_no"
transform="scale(0.001,-0.001)"/>

<path d="M0,1062c0,0,-26,11,-60,36c0,0,-34,26,-51,49c0,0,39,81,91,110c0,0,60,-23,106,-85c0,0,-28,-70,-86,-110Z"
id="f6_dj"
transform="scale(0.001,-0.001)"/>

<path d="M228,-49L138,8V822H0l-45,76l14,31H134c0,0,-91,93,-91,200c0,0,0,109,92,174c0,0,93,66,253,66c0,0,186,0,398,-89c0,0,212,-90,430,-264l-49,-47c0,0,-424,285,-727,285c0,0,-125,0,-201,-49c0,0,-76,-48,-76,-137c0,0,0,-67,52,-139H402l46,-76L434,822H199l65,-58V-39L228,-49Z"
id="f6_nu"
transform="scale(0.001,-0.001)"/>

<path d="M900,298c0,0,32,73,32,159c0,0,0,110,-38,160c0,0,-40,31,-81,31c0,0,-48,0,-80,-35c0,0,-33,-35,-33,-89c0,0,0,-118,200,-226ZM588,-60c0,0,-154,0,-274,93c0,0,-120,94,-120,207c0,0,0,50,28,92C222,332,61,440,61,552c0,0,0,71,56,122c0,0,56,50,169,50H417l64,-98L463,600H333c0,0,-157,-1,-157,-99c0,0,0,-59,88,-124c0,0,68,52,164,52c0,0,38,0,79,-9l71,-88L558,299c0,0,-46,10,-81,10c0,0,-75,0,-116,-36c0,0,-40,-36,-40,-88c0,0,0,-78,73,-130c0,0,54,-17,109,-17c0,0,114,0,211,54c0,0,97,53,154,145c0,0,-156,96,-223,173c0,0,-67,77,-67,155c0,0,0,72,48,124c0,0,48,52,126,55v78H0l-45,76l14,31H1123l46,-76l-14,-31H805l66,-58V717c0,0,76,-40,124,-124c0,0,47,-84,47,-193c0,0,0,-188,-133,-324C909,76,776,-60,588,-60Z"
id="f6_bf"
transform="scale(0.001,-0.001)"/>

<path d="M347,-57C347,-57,66,211,66,394c0,0,0,98,74,164c0,0,74,65,225,65H616V822H0l-45,76l14,31H880l46,-76L912,822H677l66,-58V-39L706,-49L616,8V500H428c0,0,-239,0,-239,-161c0,0,0,-136,214,-343L347,-57Z"
id="f6_bp"
transform="scale(0.001,-0.001)"/>

<path d="M108,-433L-59,-214c0,0,-99,119,-191,119c0,0,-59,0,-96,-35c0,0,-36,-34,-36,-81c0,0,0,-49,42,-83l152,95l64,-116c0,0,-71,-58,-148,-58c0,0,-80,0,-146,63c0,0,-65,64,-65,144c0,0,0,77,62,131c0,0,61,53,142,53c0,0,138,0,296,-205L165,-393l-57,-40Z"
id="f6_cx"
transform="scale(0.001,-0.001)"/>

<path d="M527,-71L52,414l34,92H277c0,0,12,32,12,72V822H0l-45,76l14,31H599l46,-76L631,822H350l66,-55V564c0,0,0,-96,-152,-248L610,34L611,8L527,-71Z"
id="f6_c1"
transform="scale(0.001,-0.001)"/>

<path d="M228,-49L138,8V822H0l-45,76l14,31H134c0,0,-91,93,-91,202c0,0,0,105,85,170c0,0,86,65,236,65c0,0,340,0,742,-350l-50,-46c0,0,-182,135,-340,208c0,0,-158,73,-302,73c0,0,-113,0,-183,-48c0,0,-69,-48,-69,-132c0,0,0,-63,53,-142H402l46,-76L434,822H199l65,-58V-39L228,-49Z"
id="f6_nt"
transform="scale(0.001,-0.001)"/>

<path d="M46,1082c0,0,-69,29,-106,81c0,0,34,75,84,105c0,0,57,-23,103,-81c0,0,-31,-72,-81,-105Z"
id="f6_ol"
transform="scale(0.001,-0.001)"/>

<path d="M825,-49L735,8V217c0,0,-86,-72,-197,-72c0,0,-130,0,-238,91c0,0,-107,91,-107,204c0,0,0,55,27,105H55L12,616l14,30H574l46,-76L607,539H396c0,0,-78,-49,-78,-162c0,0,0,-70,40,-111c0,0,39,-15,94,-15c0,0,84,0,163,41c0,0,79,41,120,121V822H0l-45,76l14,31H999l46,-76l-14,-31H796l66,-58V-39L825,-49Z"
id="f6_be"
transform="scale(0.001,-0.001)"/>

<path d="M266,150c0,0,-57,35,-120,104c0,0,-63,70,-89,131l41,60H211L194,822H0l-45,76l14,31H587l46,-76L619,822H255l66,-58l7,-319H688L721,328H339V180L266,150Z"
id="f6_lq"
transform="scale(0.001,-0.001)"/>

<path d="M180,220c0,0,-105,99,-162,238l63,72H556l40,-85L574,414H254V249L180,220ZM0,822l-45,76l14,31H471l45,-76L503,822Z"
id="f6_li"
transform="scale(0.001,-0.001)"/>

<path d="M226,-49c0,0,-66,24,-102,78c0,0,32,69,82,101c0,0,55,-20,100,-80c0,0,-26,-66,-80,-99Z"
id="f6_pc"
transform="scale(0.001,-0.001)"/>

<path d="M163,-343V1123H281V-343Z"
id="f6_2s"
transform="scale(0.001,-0.001)"/>

<path d="M535,-54L419,5c0,0,23,27,23,58c0,0,0,32,-23,55c0,0,-22,23,-295,226v73L319,571c0,0,116,92,116,191c0,0,0,63,-50,107l-32,5c0,0,-54,0,-91,-42c0,0,-37,-42,-33,-93c0,0,5,-62,75,-99L267,596c0,0,-162,93,-162,194c0,0,0,70,52,122c0,0,51,52,127,52c0,0,99,0,177,-84c0,0,77,-84,77,-180c0,0,0,-116,-142,-236L254,350L417,225l54,-40c0,0,105,-80,105,-150c0,0,0,-45,-41,-89Z"
id="f6_n7"
transform="scale(0.001,-0.001)"/>

<path d="M959,-49L869,8V367c0,0,-32,-13,-64,-13c0,0,-50,0,-110,25c0,0,23,-52,23,-109c0,0,0,-103,-70,-170c0,0,-70,-66,-182,-66c0,0,-110,0,-222,82c0,0,-111,83,-213,293l68,42c0,0,72,-155,152,-231c0,0,81,-76,178,-76c0,0,83,0,131,49c0,0,48,48,48,117c0,0,0,54,-30,100c0,0,-31,47,-91,65L325,391L257,512c0,0,68,53,156,56c0,0,140,72,140,179c0,0,0,69,-52,99c0,0,-4,1,-11,1c-19,0,-66,-4,-123,-30c0,0,-78,-35,-142,-96L150,823c0,0,119,117,253,117c0,0,98,0,175,-71c0,0,77,-70,77,-159c0,0,0,-103,-94,-180c0,0,39,-23,73,-56c0,0,52,-22,109,-22c0,0,77,0,126,38V822H727l-46,76l14,31h439l45,-76l-13,-31H930l66,-58V-39L959,-49Z"
id="f6_al"
transform="scale(0.001,-0.001)"/>

<path d="M374,248c0,0,77,0,149,36c0,0,71,37,110,107V822H284c0,0,138,-96,138,-208c0,0,0,-151,-228,-192c0,0,29,-104,89,-158c0,0,41,-16,91,-16ZM723,-49L633,8V200c0,0,-69,-56,-170,-56c0,0,-122,0,-240,94c0,0,-118,94,-179,237l20,55c0,0,133,17,187,44c0,0,55,28,55,84c0,0,0,45,-30,81c0,0,-30,36,-99,83H0l-45,76l14,31H897l46,-76L929,822H694l65,-58V-39L723,-49Z"
id="f6_c0"
transform="scale(0.001,-0.001)"/>

<path d="M413,-59C413,-59,53,193,53,416c0,0,0,97,66,164c0,0,66,66,156,66c0,0,61,0,110,-30L487,507c0,0,92,126,257,126l35,-2V822H0l-45,76l14,31H1043l46,-76l-13,-31H840l66,-58V-39L869,-49L779,8V547c0,0,-101,-5,-165,-90c0,0,-64,-86,-70,-222L507,225l-90,73c0,0,5,79,35,151c0,0,-59,66,-128,66c0,0,-57,0,-100,-38c0,0,-44,-39,-44,-109c0,0,0,-165,284,-360L413,-59Z"
id="f6_c3"
transform="scale(0.001,-0.001)"/>

<path d="M-233,1036c0,0,-84,0,-168,56c0,0,-84,55,-146,161l51,50c0,0,95,-162,219,-162c0,0,125,0,160,158L-7,1250c0,0,-21,-104,-81,-159c0,0,-61,-55,-145,-55Z"
id="f6_d2"
transform="scale(0.001,-0.001)"/>

<path d="M761,293c0,0,127,0,169,94V532c0,0,-68,46,-145,46c0,0,-76,0,-121,-46c0,0,-45,-45,-45,-107c0,0,0,-61,44,-110c0,0,47,-22,98,-22ZM657,67c0,0,166,0,273,107v55c0,0,-45,-36,-111,-36c0,0,-110,0,-207,90c0,0,-97,90,-97,194c0,0,0,85,66,148c0,0,65,63,155,63l48,-5L930,603V822H376l62,-55V579c0,0,0,-60,-23,-102c0,0,-24,-42,-148,-190c0,0,66,-104,175,-162c0,0,108,-58,215,-58ZM1021,-49L930,8V53c0,0,-105,-83,-264,-83c0,0,-177,0,-339,128C327,98,165,226,90,429l34,77H296c0,0,19,39,19,102l-2,214H0l-45,76l14,31H1195l46,-76l-14,-31H992l65,-58V-39l-36,-10Z"
id="f6_ba"
transform="scale(0.001,-0.001)"/>

<path d="M548,-57c0,0,-122,0,-243,81c0,0,-122,81,-252,280l57,41C110,345,283,64,498,64c0,0,92,0,153,49c0,0,61,49,61,121c0,0,0,46,-28,84L440,237c0,0,-73,11,-139,55c0,0,-66,44,-105,105c0,0,-40,61,-40,119c0,0,0,72,62,125c0,0,62,53,184,53H625V822H0l-45,76l14,31H906l46,-76L938,822H678l66,-58V562H431c0,0,-164,0,-164,-99c0,0,0,-55,57,-102l261,82c0,0,104,-21,172,-98c0,0,68,-78,68,-171c0,0,0,-99,-76,-166c0,0,-77,-65,-201,-65Z"
id="f6_bm"
transform="scale(0.001,-0.001)"/>

<path d="M283,260c0,0,122,0,209,113V513c0,0,-90,51,-160,51c0,0,-80,0,-129,-50c0,0,-49,-50,-49,-118c0,0,0,-60,35,-110c0,0,45,-26,94,-26ZM582,-49L492,8V211c0,0,-63,-54,-141,-54c0,0,-113,0,-213,92c0,0,-100,92,-100,205c0,0,0,93,69,157c0,0,69,64,162,64c0,0,32,0,64,-9L492,590V822H0l-45,76l14,31H1108l45,-76l-13,-31H553l66,-58V524c0,0,91,89,192,89c0,0,98,0,171,-79c0,0,72,-79,72,-186c0,0,0,-178,-224,-330L736,124c0,0,219,153,219,269c0,0,0,44,-26,75c0,0,-26,32,-81,32c0,0,-109,0,-229,-155V-39L582,-49Z"
id="f6_b9"
transform="scale(0.001,-0.001)"/>

<path d="M228,-49L138,8V822H0l-45,76l14,31H134c0,0,-91,92,-91,191c0,0,0,105,85,170c0,0,84,65,219,65c0,0,128,0,293,-76c0,0,165,-77,362,-263L958,966c0,0,-177,143,-303,210c0,0,-125,68,-244,68c0,0,-107,0,-175,-50c0,0,-68,-50,-68,-131c0,0,0,-61,49,-134H402l46,-76L434,822H199l65,-58V-39L228,-49Z"
id="f6_cu"
transform="scale(0.001,-0.001)"/>

<path d="M652,-518c0,0,-209,0,-487,322l53,49c0,0,120,-129,210,-193c0,0,90,-65,177,-65c0,0,72,0,113,39c0,0,41,40,41,92c0,0,0,75,-78,105L564,-286l-90,98c0,0,62,96,169,96L605,37C605,37,552,18,498,18c0,0,-151,0,-288,115C210,133,73,248,73,388c0,0,0,113,84,184c0,0,84,71,222,73H524V822H0l-45,76l14,31H842l46,-76L874,822H567l84,-73V519l-3,2l3,-3H408c0,0,-93,0,-153,-52c0,0,-59,-52,-59,-128c0,0,0,-121,110,-188c0,0,53,-17,105,-17c0,0,92,0,153,43L535,318l101,49L773,203c0,0,-20,-67,-87,-122l61,-204c0,0,52,-32,83,-87c0,0,32,-55,32,-116c0,0,0,-85,-61,-139c0,0,-60,-53,-149,-53Z"
id="f6_mv"
transform="scale(0.001,-0.001)"/>

<path d="M254,-30c0,0,-84,17,-116,93c0,0,13,84,97,126c0,0,100,-35,112,-110C347,79,324,3,254,-30Zm0,468c0,0,-84,17,-116,94c0,0,13,84,97,126c0,0,100,-35,112,-110c0,0,-23,-76,-93,-110Z"
id="f6_y"
transform="scale(0.001,-0.001)"/>

<path d="M953,-525L785,-306c0,0,-99,119,-191,119c0,0,-59,0,-96,-34c0,0,-37,-35,-37,-82c0,0,0,-49,43,-83l151,95l65,-116c0,0,-71,-58,-149,-58c0,0,-79,0,-145,63c0,0,-65,64,-65,145c0,0,0,76,61,130c0,0,62,55,143,55c0,0,40,0,77,-14L605,37C605,37,552,18,498,18c0,0,-151,0,-288,115C210,133,73,248,73,388c0,0,0,113,84,184c0,0,84,71,222,73H524V822H0l-45,76l14,31H842l46,-76L874,822H567l84,-73V519l-3,2l3,-3H408c0,0,-93,0,-153,-52c0,0,-59,-52,-59,-128c0,0,0,-121,110,-188c0,0,53,-17,105,-17c0,0,92,0,153,43L535,318l101,49L773,203c0,0,-20,-67,-87,-122l75,-247c0,0,81,-76,249,-319l-57,-40Z"
id="f6_mw"
transform="scale(0.001,-0.001)"/>

<path d="M634,-49L249,296c0,0,-1,0,-3,0c-11,0,-48,1,-90,15c0,0,-51,16,-67,36l49,165l50,12l84,-98c0,0,125,31,191,104c0,0,66,73,66,165c0,0,0,109,-95,170c0,0,-2,0,-6,0C397,865,262,858,121,738L46,848c0,0,52,47,127,82c0,0,75,34,152,34c0,0,130,0,226,-94c0,0,95,-94,95,-218c0,0,0,-107,-77,-199c0,0,-77,-92,-216,-134L697,26L698,0L634,-49Z"
id="f6_n8"
transform="scale(0.001,-0.001)"/>

<path d="M228,-49L138,8V822H0l-45,76l14,31H119L-33,1144c0,0,-70,92,-157,92c0,0,-69,0,-159,-58l-72,118c0,0,89,73,181,73c0,0,140,0,257,-170L205,929H402l46,-76L434,822H199l65,-58V-39L228,-49Z"
id="f6_d8"
transform="scale(0.001,-0.001)"/>

<path d="M558,-520c0,0,-210,0,-488,322l54,49c0,0,119,-128,209,-193c0,0,90,-65,177,-65c0,0,72,0,113,40c0,0,42,40,42,91c0,0,0,75,-78,106L469,-288l-90,98l27,37c0,0,-133,64,-213,155c0,0,-80,91,-80,201c0,0,0,101,69,170c0,0,-103,88,-103,179c0,0,0,64,57,110c0,0,57,47,196,47H571V822H0l-45,76l14,31H830l45,-76L862,822H625l66,-58V585H364c0,0,-176,0,-176,-96c0,0,0,-41,44,-76c0,0,81,47,185,47c0,0,135,0,230,-76c0,0,96,-75,96,-187C743,197,743,67,614,2L530,104c0,0,49,30,81,75c0,0,32,44,32,82c0,0,0,16,-4,26c0,0,-65,58,-167,58c0,0,-98,0,-166,-50v-2c0,0,-68,-52,-68,-131c0,0,0,-154,254,-263l53,7c0,0,91,0,156,-70c0,0,66,-70,66,-163c0,0,0,-86,-60,-139c0,0,-61,-54,-149,-54Z"
id="f6_n4"
transform="scale(0.001,-0.001)"/>

<path d="M-91,1001c0,0,-27,10,-61,36c0,0,-33,26,-50,49c0,0,38,81,90,110c0,0,61,-23,107,-85c0,0,-28,-71,-86,-110ZM-214,863l-199,281c0,0,-70,92,-157,92c0,0,-69,0,-159,-58l-72,118c0,0,89,73,180,73c0,0,141,0,258,-170L-155,901l-59,-38Z"
id="f6_oz"
transform="scale(0.001,-0.001)"/>

<path d="M471,-26c0,0,-259,0,-448,396l70,43C93,413,240,98,442,98c0,0,79,0,132,46c0,0,54,45,54,120c0,0,0,61,-38,116c0,0,-38,54,-107,72L322,370L255,492c0,0,66,53,156,56c0,0,128,51,128,153c0,0,0,77,-65,121H0l-45,76l14,31H813l46,-76L845,822H578c0,0,76,-66,76,-157c0,0,0,-95,-87,-156c0,0,84,-48,131,-123c0,0,48,-76,48,-158c0,0,0,-109,-78,-182c0,0,-78,-72,-197,-72Z"
id="f6_ap"
transform="scale(0.001,-0.001)"/>

<path d="M727,-49L637,8V822H278l66,-58V226L270,196c0,0,-64,36,-122,98c0,0,-58,62,-79,122l43,59H217V822H0l-45,76l14,31H901l46,-76L933,822H698l66,-58V-39L727,-49Z"
id="f6_bb"
transform="scale(0.001,-0.001)"/>

<path d="M516,-207L290,58c0,0,-44,5,-99,32c0,0,-55,28,-75,51l58,140l51,12L312,165l49,-3c0,0,100,0,168,47c0,0,67,48,67,118c0,0,0,53,-44,98c0,0,-43,44,-129,65L232,413L165,536c0,0,78,51,176,51c6,0,11,0,17,0c0,0,161,50,161,168c0,0,0,79,-65,114l-20,2c0,0,-69,0,-155,-37c0,0,-86,-36,-151,-93L53,848c0,0,51,49,130,82c0,0,80,34,159,34c0,0,118,0,203,-75c0,0,84,-75,84,-172c0,0,0,-110,-116,-181c0,0,97,-46,148,-112c0,0,51,-66,51,-137c0,0,0,-99,-88,-165c0,0,-88,-65,-237,-65L578,-132l1,-26l-63,-49Z"
id="f6_n9"
transform="scale(0.001,-0.001)"/>

<path d="M252,385l310,78l22,-9c0,0,107,-43,200,-43c0,0,91,0,151,41V822H603l66,-58V585H373c0,0,-184,0,-184,-99c0,0,0,-48,63,-101ZM483,-305L295,-10c0,0,-90,22,-156,74l41,170h66L351,63c0,0,126,4,207,62c0,0,82,58,82,139c0,0,0,37,-18,71L365,266c0,0,-110,15,-197,102c0,0,-87,87,-87,176c0,0,0,69,59,117c0,0,59,48,172,48H550V822H0l-45,76l14,31H1199l46,-76l-14,-31H996l66,-58V-39l-37,-10L935,8V318c0,0,-41,-15,-78,-15c0,0,-52,0,-131,30c0,0,32,-55,32,-111c0,0,0,-109,-98,-179c0,0,-98,-69,-254,-69L599,-216L483,-305Z"
id="f6_bh"
transform="scale(0.001,-0.001)"/>

<path d="M396,318c0,0,123,0,203,108V822H180l66,-58V408c0,0,49,-90,150,-90ZM176,-66L79,9L379,228c0,0,-106,23,-181,119c0,0,-76,96,-79,198V822H0l-45,76l14,31H863l46,-76L895,822H660l66,-58V-39L689,-49L599,8V269L176,-66Z"
id="f6_e6"
transform="scale(0.001,-0.001)"/>

<path d="M483,-305L295,-10c0,0,-90,22,-156,74l41,170h66L351,63c0,0,126,4,207,62c0,0,82,58,82,139c0,0,0,37,-18,71L365,266c0,0,-110,15,-197,102c0,0,-87,87,-87,176c0,0,0,69,59,117c0,0,59,48,172,48H550V822H0l-45,76l14,31H550c0,0,-142,122,-142,255c0,0,0,78,52,133c0,0,52,55,140,55c0,0,98,0,176,-64l-23,-69c0,0,-53,32,-104,32c0,0,-56,0,-94,-36c0,0,-39,-36,-39,-95c0,0,0,-109,112,-211H822l46,-76L854,822H603l66,-58V585H373c0,0,-184,0,-184,-99c0,0,0,-48,63,-101l310,78c0,0,86,-34,141,-99c0,0,55,-65,55,-142c0,0,0,-109,-98,-179c0,0,-98,-69,-254,-69L599,-216L483,-305Z"
id="f6_ao"
transform="scale(0.001,-0.001)"/>

<path d="M397,102c0,0,52,0,85,36c0,0,33,35,33,87c0,0,0,88,-110,221C405,446,296,307,296,217c0,0,0,-61,39,-101c0,0,35,-14,62,-14ZM451,3C451,3,351,3,268,88c0,0,-83,85,-83,182c0,0,0,107,131,274c0,0,-146,153,-346,324l61,69L81,891L373,610c0,0,87,99,318,330l82,-92C773,848,550,623,461,516c0,0,173,-188,173,-322c0,0,0,-87,-53,-139C581,55,527,3,451,3Z"
id="f6_na"
transform="scale(0.001,-0.001)"/>

<path d="M-214,860l-227,219c0,0,-73,70,-148,70c0,0,-67,0,-160,-58l-72,117c0,0,83,71,176,71c0,0,120,0,232,-124L-221,940l-102,294c0,0,-64,179,-189,179c0,0,-60,0,-133,-33l-60,125c0,0,84,47,164,47c0,0,200,0,281,-276L-150,901l-23,-15l-41,-26Z"
id="f6_d5"
transform="scale(0.001,-0.001)"/>

<path d="M513,460c0,0,61,81,61,179c0,0,0,87,-45,143c0,0,-45,57,-116,57c0,0,-63,0,-102,-43c0,0,-39,-43,-39,-110c0,0,0,-90,68,-151c0,0,68,-61,173,-75ZM581,-83L278,167l-41,-4c0,0,-99,0,-130,37l47,168l51,12l78,-79c0,0,110,40,183,105c0,0,-141,23,-231,107c0,0,-90,84,-90,193c0,0,0,69,37,116H0l-45,76l14,31H798l45,-76L830,822H588c0,0,51,-44,75,-109c0,0,25,-64,25,-122c0,0,0,-105,-81,-213c0,0,-80,-108,-240,-176L658,18l2,-25L581,-83Z"
id="f6_ly"
transform="scale(0.001,-0.001)"/>

<path d="M449,79c0,0,103,0,168,61c0,0,66,60,66,149c0,0,0,93,-84,186H420c0,0,-107,0,-164,-50c0,0,-57,-51,-57,-126c0,0,0,-108,99,-184c0,0,81,-36,151,-36Zm67,-96c0,0,-168,0,-301,109C215,92,81,202,81,350c0,0,0,114,83,182c0,0,84,68,229,68H507V822H0l-45,76l14,31H883l46,-76L915,822H568l66,-58V532c0,0,87,-64,130,-144c0,0,43,-79,43,-157c0,0,0,-109,-81,-179c0,0,-81,-69,-210,-69Z"
id="f6_bl"
transform="scale(0.001,-0.001)"/>

<path d="M675,-45L556,338c0,0,-73,-107,-189,-107c0,0,-71,0,-146,47c0,0,-76,47,-118,128c0,0,-42,80,-42,173c0,0,0,165,107,371L287,903C287,903,177,663,177,516c0,0,0,-79,34,-137c0,0,38,-38,95,-38c0,0,59,0,113,42c0,0,55,42,76,104L445,636l32,41L636,637c0,0,4,-73,-29,-168L761,2L749,-22L675,-45Z"
id="f6_nb"
transform="scale(0.001,-0.001)"/>

<path d="M688,-49L597,8V335L248,81l-92,81L532,425l-81,76c0,0,-80,70,-133,70c0,0,-81,0,-194,-96L38,584c0,0,109,105,223,105c0,0,103,0,213,-107L597,457V822H0l-45,76l14,31H862l46,-76L894,822H658l66,-58V-39L688,-49Z"
id="f6_e1"
transform="scale(0.001,-0.001)"/>

<path d="M1293,248c0,0,76,0,148,36c0,0,72,37,110,107V822H1202c0,0,138,-96,138,-208c0,0,0,-151,-228,-192c0,0,29,-104,89,-158c0,0,41,-16,92,-16ZM747,-57c0,0,-273,260,-273,430l3,41H254V249L180,220c0,0,-105,99,-162,238l63,72H535c0,0,85,95,252,95c0,0,137,0,269,-84c0,0,90,17,129,43c0,0,39,26,39,74c0,0,0,45,-30,81c0,0,-30,36,-99,83H0l-45,76l14,31H1815l46,-76l-14,-31H1612l66,-58V-39l-37,-10L1551,8V200c0,0,-69,-56,-170,-56c0,0,-122,0,-235,90c0,0,-113,90,-176,223c0,0,-76,43,-160,43c0,0,-86,0,-148,-47c0,0,-63,-47,-63,-129c0,0,0,-127,205,-328L747,-57Z"
id="f6_hl"
transform="scale(0.001,-0.001)"/>

<path d="M373,218c0,0,98,0,172,61c0,0,75,60,75,140c0,0,0,29,-10,55c0,0,-69,59,-121,85c0,0,-52,26,-113,26c0,0,-95,0,-151,-56c0,0,-57,-55,-57,-133c0,0,0,-77,52,-135c0,0,60,-43,153,-43ZM431,116c0,0,-142,0,-261,99C170,215,52,315,52,446c0,0,0,107,80,179c0,0,80,72,195,72c0,0,43,0,81,-11L642,548c0,0,73,-91,73,-183c0,0,0,-104,-84,-176c0,0,-84,-73,-200,-73ZM0,822l-45,76l14,31H619l46,-76L651,822Z"
id="f6_lx"
transform="scale(0.001,-0.001)"/>

<path d="M626,-175L564,73C564,73,510,53,454,53c0,0,-129,0,-240,92c0,0,-112,92,-112,209c0,0,0,115,98,185c0,0,-139,89,-139,211c0,0,0,90,77,150c0,0,76,59,197,59c0,0,136,0,236,-64V779c0,0,-110,63,-213,63c0,0,-83,0,-134,-35c0,0,-51,-34,-51,-94c0,0,0,-82,94,-140c0,0,69,23,147,23c0,0,83,0,160,-20l7,-121c0,0,-78,16,-138,16c0,0,-118,0,-174,-44c0,0,-57,-44,-57,-112c0,0,0,-86,74,-144c0,0,41,-12,82,-12c0,0,87,0,159,41L507,310l54,29L706,211c0,0,-11,-48,-77,-103l84,-241l-9,-26l-78,-16Z"
id="f6_nc"
transform="scale(0.001,-0.001)"/>

<path d="M823,-49L733,8V339H445V191L371,160c0,0,-56,36,-120,105c0,0,-63,70,-89,131l41,59H313V735c0,0,0,99,-55,140c0,0,-3,1,-8,1c-16,0,-48,-3,-71,-23c0,0,-31,-26,-31,-66c0,0,0,-69,81,-113L189,620C189,620,31,720,31,828c0,0,0,61,45,99c0,0,46,37,109,37c0,0,96,0,173,-86c0,0,76,-87,79,-194V455H733V822H556l-46,76l14,31H998l45,-76l-13,-31H794l66,-58V-39L823,-49Z"
id="f6_by"
transform="scale(0.001,-0.001)"/>

<path d="M319,561c0,0,66,46,103,105c0,0,36,60,36,113c0,0,0,28,-9,48c0,0,-35,41,-88,41c0,0,-51,0,-89,-39c0,0,-38,-39,-38,-103c0,0,0,-95,85,-165ZM840,-49L750,8V342L362,31l-89,85L608,370c0,0,-121,15,-241,78L105,272L20,364L260,519c0,0,-144,118,-144,246c0,0,0,81,57,140c0,0,56,59,140,59c0,0,96,0,171,-79c0,0,75,-78,75,-168c0,0,0,-117,-130,-219c0,0,110,-40,257,-40l64,2V822H628l-46,76l14,31h418l46,-76l-13,-31H811l66,-58V-39L840,-49Z"
id="f6_ef"
transform="scale(0.001,-0.001)"/>

<path d="M228,-49L138,8V822H0l-45,76l14,31H133c0,0,-93,95,-93,206c0,0,0,96,68,159c0,0,68,63,179,63c0,0,118,0,228,-81c0,0,110,-80,258,-262L720,970L588,1109c0,0,-133,133,-253,133c0,0,-78,0,-127,-46c0,0,-49,-46,-49,-119c0,0,0,-69,56,-148H402l46,-76L434,822H199l65,-58V-39L228,-49Z"
id="f6_nr"
transform="scale(0.001,-0.001)"/>

<path d="M180,196c0,0,-105,99,-162,238l63,72H573l40,-86L591,390H254V225L180,196ZM0,822l-45,76l14,31H409l46,-76L442,822Z"
id="f6_lj"
transform="scale(0.001,-0.001)"/>

<path d="M558,468c0,0,91,0,151,50c0,0,-11,87,-48,139c0,0,-38,52,-94,52c0,0,-51,0,-81,-41c0,0,-31,-40,-31,-100c0,0,0,-39,16,-79c0,0,32,-21,87,-21ZM545,31c0,0,-220,0,-348,239C197,270,69,510,0,804l89,30c0,0,78,-348,178,-507c0,0,100,-159,237,-159c0,0,83,0,137,54c0,0,54,55,68,157c0,0,-44,-20,-92,-20c0,0,-96,0,-188,87c0,0,-91,87,-91,188c0,0,0,73,51,127c0,0,51,53,129,53c0,0,124,0,215,-131c0,0,90,-131,90,-306c0,0,0,-154,-75,-250c0,0,-76,-96,-203,-96Z"
id="f6_nd"
transform="scale(0.001,-0.001)"/>

<path d="M426,-68L339,5V953l37,11l87,-73V-57L426,-68Z"
id="f6_ng"
transform="scale(0.001,-0.001)"/>

<path d="M725,307c0,0,-95,0,-218,78c0,0,-123,78,-188,78c0,0,-54,0,-95,-34c0,0,-41,-34,-73,-100L93,362c0,0,38,88,101,146c0,0,63,59,148,59c0,0,90,0,214,-78c0,0,124,-79,188,-79c0,0,63,0,106,34c0,0,42,33,85,104l60,-40c0,0,-32,-66,-101,-134c0,0,-70,-67,-169,-67Z"
id="f7_4r"
transform="scale(0.001,-0.001)"/>

<path d="M435,0V856c0,0,-48,-47,-127,-93c0,0,-79,-46,-142,-69V824c0,0,113,52,197,128c0,0,85,75,120,146h86V0Z"
id="f8_l"
transform="scale(0.001,-0.001)"/>


</defs>
</svg>