<?xml version="1.0" encoding="UTF-8" standalone="no"?>
<!DOCTYPE svg PUBLIC "-//W3C//DTD SVG 1.1//EN"
"http://www.w3.org/Graphics/SVG/1.1/DTD/svg11.dtd">
<svg viewBox="0 0 641 909" version="1.1" xmlns="http://www.w3.org/2000/svg" xmlns:xlink="http://www.w3.org/1999/xlink">
<defs>
<clipPath id="c0_6"><path d="M0,869.7V39.3H641.7V869.7Z"/></clipPath>
<clipPath id="c1_6"><path d="M0,868.9V39.3H641.7V868.9Z"/></clipPath>
<clipPath id="c2_6"><path d="M76.3,146.3V115.6h57.4v30.7Z"/></clipPath>
<clipPath id="c3_6"><path d="M134.5,146.3V115.6H481.2v30.7Z"/></clipPath>
<clipPath id="c4_6"><path d="M482,146.3V115.6h84.2v30.7Z"/></clipPath>
<clipPath id="c5_6"><path d="M76.3,177.7V147.1h57.4v30.6Z"/></clipPath>
<clipPath id="c6_6"><path d="M134.5,177.7V147.1H481.2v30.6Z"/></clipPath>
<clipPath id="c7_6"><path d="M482,177.7V147.1h84.2v30.6Z"/></clipPath>
<clipPath id="c8_6"><path d="M76.3,209.2V178.5h57.4v30.7Z"/></clipPath>
<clipPath id="c9_6"><path d="M134.5,209.2V178.5H481.2v30.7Z"/></clipPath>
<clipPath id="ca_6"><path d="M482,209.2V178.5h84.2v30.7Z"/></clipPath>
<clipPath id="cb_6"><path d="M76.3,240.6V210h57.4v30.6Z"/></clipPath>
<clipPath id="cc_6"><path d="M134.5,240.6V210H481.2v30.6Z"/></clipPath>
<clipPath id="cd_6"><path d="M482,240.6V210h84.2v30.6Z"/></clipPath>
<clipPath id="ce_6"><path d="M76.3,272.1V241.4h57.4v30.7Z"/></clipPath>
<clipPath id="cf_6"><path d="M134.5,272.1V241.4H481.2v30.7Z"/></clipPath>
<clipPath id="cg_6"><path d="M482,272.1V241.4h84.2v30.7Z"/></clipPath>
<clipPath id="ch_6"><path d="M76.3,303.5V272.9h57.4v30.6Z"/></clipPath>
<clipPath id="ci_6"><path d="M134.5,303.5V272.9H481.2v30.6Z"/></clipPath>
<clipPath id="cj_6"><path d="M482,303.5V272.9h84.2v30.6Z"/></clipPath>
<clipPath id="ck_6"><path d="M76.3,335V304.3h57.4V335Z"/></clipPath>
<clipPath id="cl_6"><path d="M134.5,335V304.3H481.2V335Z"/></clipPath>
<clipPath id="cm_6"><path d="M482,335V304.3h84.2V335Z"/></clipPath>
<clipPath id="cn_6"><path d="M76.3,366.4V335.8h57.4v30.6Z"/></clipPath>
<clipPath id="co_6"><path d="M134.5,366.4V335.8H481.2v30.6Z"/></clipPath>
<clipPath id="cp_6"><path d="M482,366.4V335.8h84.2v30.6Z"/></clipPath>
<clipPath id="cq_6"><path d="M76.3,397.9V367.2h57.4v30.7Z"/></clipPath>
<clipPath id="cr_6"><path d="M134.5,397.9V367.2H481.2v30.7Z"/></clipPath>
<clipPath id="cs_6"><path d="M482,397.9V367.2h84.2v30.7Z"/></clipPath>
<clipPath id="ct_6"><path d="M76.3,429.4V398.7h57.4v30.7Z"/></clipPath>
<clipPath id="cu_6"><path d="M134.5,429.4V398.7H481.2v30.7Z"/></clipPath>
<clipPath id="cv_6"><path d="M482,429.4V398.7h84.2v30.7Z"/></clipPath>
<style type="text/css"><![CDATA[
.g0_6{
fill: #FFFFFF;
}
.g1_6{
fill: #E0F7FA;
}
.g2_6{
fill: #CCCCCC;
}
]]></style>
</defs>
<g clip-path="url(#c0_6)">
<path d="M0,-3282.1H641.7V869.7H0V-3282.1Z" class="g0_6"/>
<path d="M0,-3282.1H641.7V869.7H0V-3282.1Z" class="g0_6"/>
<path d="M0,39.3H641.7V868.9H0V39.3Z" class="g0_6"/>
</g>
<g clip-path="url(#c1_6)">
<path d="M0,114.8H641.7V869.7H0V114.8Z" class="g0_6"/>
</g>
<path d="M133.7,114.8H481.2v31.5H133.7V114.8Z" class="g1_6"/>
<path d="M133.7,146.3H481.2v31.4H133.7V146.3Z" class="g0_6"/>
<path d="M133.7,177.7H481.2v31.5H133.7V177.7Z" class="g1_6"/>
<path d="M133.7,209.2H481.2v31.4H133.7V209.2Z" class="g0_6"/>
<path d="M133.7,240.6H481.2v31.5H133.7V240.6Z" class="g1_6"/>
<path d="M133.7,272.1H481.2v31.4H133.7V272.1Z" class="g0_6"/>
<path d="M133.7,303.5H481.2V335H133.7V303.5Z" class="g1_6"/>
<path d="M133.7,335H481.2v31.4H133.7V335Z" class="g0_6"/>
<path d="M133.7,366.4H481.2v31.5H133.7V366.4Z" class="g1_6"/>
<path d="M133.7,397.9H481.2v31.5H133.7V397.9Z" class="g0_6"/>
<path d="M481.2,429.4H567v.7H481.2v-.7Z" class="g2_6"/>
<path d="M566.2,397.9h.8v32.2h-.8V397.9Z" class="g2_6"/>
<path d="M133.7,429.4H482v.7H133.7v-.7Z" class="g2_6"/>
<path d="M481.2,397.9h.8v32.2h-.8V397.9Z" class="g2_6"/>
<path d="M75.5,429.4h59v.7h-59v-.7Z" class="g2_6"/>
<path d="M75.5,397.9h.8v32.2h-.8V397.9Z" class="g2_6"/>
<path d="M133.7,397.9h.8v32.2h-.8V397.9Z" class="g2_6"/>
<path d="M481.2,397.9H567v.8H481.2v-.8Z" class="g2_6"/>
<path d="M566.2,366.4h.8v32.3h-.8V366.4Z" class="g2_6"/>
<path d="M133.7,397.9H482v.8H133.7v-.8Z" class="g2_6"/>
<path d="M481.2,366.4h.8v32.3h-.8V366.4Z" class="g2_6"/>
<path d="M75.5,397.9h59v.8h-59v-.8Z" class="g2_6"/>
<path d="M75.5,366.4h.8v32.3h-.8V366.4Z" class="g2_6"/>
<path d="M133.7,366.4h.8v32.3h-.8V366.4Z" class="g2_6"/>
<path d="M481.2,366.4H567v.8H481.2v-.8Z" class="g2_6"/>
<path d="M566.2,335h.8v32.2h-.8V335Z" class="g2_6"/>
<path d="M133.7,366.4H482v.8H133.7v-.8Z" class="g2_6"/>
<path d="M481.2,335h.8v32.2h-.8V335Z" class="g2_6"/>
<path d="M75.5,366.4h59v.8h-59v-.8Z" class="g2_6"/>
<path d="M75.5,335h.8v32.2h-.8V335Z" class="g2_6"/>
<path d="M133.7,335h.8v32.2h-.8V335Z" class="g2_6"/>
<path d="M481.2,335H567v.8H481.2V335Z" class="g2_6"/>
<path d="M566.2,303.5h.8v32.3h-.8V303.5Z" class="g2_6"/>
<path d="M133.7,335H482v.8H133.7V335Z" class="g2_6"/>
<path d="M481.2,303.5h.8v32.3h-.8V303.5Z" class="g2_6"/>
<path d="M75.5,335h59v.8h-59V335Z" class="g2_6"/>
<path d="M75.5,303.5h.8v32.3h-.8V303.5Z" class="g2_6"/>
<path d="M133.7,303.5h.8v32.3h-.8V303.5Z" class="g2_6"/>
<path d="M481.2,303.5H567v.8H481.2v-.8Z" class="g2_6"/>
<path d="M566.2,272.1h.8v32.2h-.8V272.1Z" class="g2_6"/>
<path d="M133.7,303.5H482v.8H133.7v-.8Z" class="g2_6"/>
<path d="M481.2,272.1h.8v32.2h-.8V272.1Z" class="g2_6"/>
<path d="M75.5,303.5h59v.8h-59v-.8Z" class="g2_6"/>
<path d="M75.5,272.1h.8v32.2h-.8V272.1Z" class="g2_6"/>
<path d="M133.7,272.1h.8v32.2h-.8V272.1Z" class="g2_6"/>
<path d="M481.2,272.1H567v.8H481.2v-.8Z" class="g2_6"/>
<path d="M566.2,240.6h.8v32.3h-.8V240.6Z" class="g2_6"/>
<path d="M133.7,272.1H482v.8H133.7v-.8Z" class="g2_6"/>
<path d="M481.2,240.6h.8v32.3h-.8V240.6Z" class="g2_6"/>
<path d="M75.5,272.1h59v.8h-59v-.8Z" class="g2_6"/>
<path d="M75.5,240.6h.8v32.3h-.8V240.6Z" class="g2_6"/>
<path d="M133.7,240.6h.8v32.3h-.8V240.6Z" class="g2_6"/>
<path d="M481.2,240.6H567v.8H481.2v-.8Z" class="g2_6"/>
<path d="M566.2,209.2h.8v32.2h-.8V209.2Z" class="g2_6"/>
<path d="M133.7,240.6H482v.8H133.7v-.8Z" class="g2_6"/>
<path d="M481.2,209.2h.8v32.2h-.8V209.2Z" class="g2_6"/>
<path d="M75.5,240.6h59v.8h-59v-.8Z" class="g2_6"/>
<path d="M75.5,209.2h.8v32.2h-.8V209.2Z" class="g2_6"/>
<path d="M133.7,209.2h.8v32.2h-.8V209.2Z" class="g2_6"/>
<path d="M481.2,209.2H567v.8H481.2v-.8Z" class="g2_6"/>
<path d="M566.2,177.7h.8V210h-.8V177.7Z" class="g2_6"/>
<path d="M133.7,209.2H482v.8H133.7v-.8Z" class="g2_6"/>
<path d="M481.2,177.7h.8V210h-.8V177.7Z" class="g2_6"/>
<path d="M75.5,209.2h59v.8h-59v-.8Z" class="g2_6"/>
<path d="M75.5,177.7h.8V210h-.8V177.7Z" class="g2_6"/>
<path d="M133.7,177.7h.8V210h-.8V177.7Z" class="g2_6"/>
<path d="M481.2,177.7H567v.8H481.2v-.8Z" class="g2_6"/>
<path d="M566.2,146.3h.8v32.2h-.8V146.3Z" class="g2_6"/>
<path d="M133.7,177.7H482v.8H133.7v-.8Z" class="g2_6"/>
<path d="M481.2,146.3h.8v32.2h-.8V146.3Z" class="g2_6"/>
<path d="M75.5,177.7h59v.8h-59v-.8Z" class="g2_6"/>
<path d="M75.5,146.3h.8v32.2h-.8V146.3Z" class="g2_6"/>
<path d="M133.7,146.3h.8v32.2h-.8V146.3Z" class="g2_6"/>
<path d="M481.2,114.8H567v.8H481.2v-.8Z" class="g2_6"/>
<path d="M481.2,146.3H567v.8H481.2v-.8Z" class="g2_6"/>
<path d="M566.2,114.8h.8v32.3h-.8V114.8Z" class="g2_6"/>
<path d="M133.7,114.8H482v.8H133.7v-.8Z" class="g2_6"/>
<path d="M133.7,146.3H482v.8H133.7v-.8Z" class="g2_6"/>
<path d="M481.2,114.8h.8v32.3h-.8V114.8Z" class="g2_6"/>
<path d="M75.5,114.8h59v.8h-59v-.8Z" class="g2_6"/>
<path d="M75.5,146.3h59v.8h-59v-.8Z" class="g2_6"/>
<path d="M75.5,114.8h.8v32.3h-.8V114.8Z" class="g2_6"/>
<path d="M133.7,114.8h.8v32.3h-.8V114.8Z" class="g2_6"/>
<g clip-path="url(#c2_6)">
<g fill="#000000" >
<use xlink:href="#f4_w" transform="matrix(12.4,0,0,12.4,114,136)" />
<use xlink:href="#f4_p" transform="matrix(12.4,0,0,12.4,123.6,136)" />
</g>
</g>
<g clip-path="url(#c3_6)">
<g fill="#000000" >
<use xlink:href="#f4_c7" transform="matrix(12.4,0,0,12.4,136,136)" />
<use xlink:href="#f4_d8" transform="matrix(12.4,0,0,12.4,146.7,136)" />
<use xlink:href="#f4_c7" transform="matrix(12.4,0,0,12.4,156.7,136)" />
<use xlink:href="#f4_ge" transform="matrix(12.4,0,0,12.4,167.3,136)" />
<use xlink:href="#f4_dr" transform="matrix(12.4,0,0,12.4,180.7,136)" />
<use xlink:href="#f4_bz" transform="matrix(12.4,0,0,12.4,180.7,136)" />
<use xlink:href="#f4_ct" transform="matrix(12.4,0,0,12.4,192.5,136)" />
<use xlink:href="#f4_bt" transform="matrix(12.4,0,0,12.4,197.4,136)" />
<use xlink:href="#f4_bz" transform="matrix(12.4,0,0,12.4,212.8,136)" />
<use xlink:href="#f4_cc" transform="matrix(12.4,0,0,12.4,224.6,136)" />
<use xlink:href="#f4_ct" transform="matrix(12.4,0,0,12.4,234.8,136)" />
<use xlink:href="#f4_c7" transform="matrix(12.4,0,0,12.4,239.8,136)" />
<use xlink:href="#f4_cv" transform="matrix(12.4,0,0,12.4,250.4,136)" />
<use xlink:href="#f4_c1" transform="matrix(12.4,0,0,12.4,255.4,136)" />
<use xlink:href="#f4_b9" transform="matrix(12.4,0,0,12.4,267.8,136)" />
<use xlink:href="#f4_bl" transform="matrix(12.4,0,0,12.4,281.5,136)" />
<use xlink:href="#f4_d4" transform="matrix(12.4,0,0,12.4,291.2,136)" />
</g>
</g>
<g clip-path="url(#c4_6)">
<g fill="#000000" >
<use xlink:href="#f4_p" transform="matrix(12.4,0,0,12.4,483.6,136)" />
<use xlink:href="#f4_o" transform="matrix(12.4,0,0,12.4,490.5,136)" />
<use xlink:href="#f4_s" transform="matrix(12.4,0,0,12.4,500.8,136)" />
<use xlink:href="#f4_l" transform="matrix(12.4,0,0,12.4,511.5,136)" />
<use xlink:href="#f4_p" transform="matrix(12.4,0,0,12.4,518.1,136)" />
<use xlink:href="#f4_o" transform="matrix(12.4,0,0,12.4,525.1,136)" />
<use xlink:href="#f4_t" transform="matrix(12.4,0,0,12.4,535.3,136)" />
</g>
</g>
<g clip-path="url(#c5_6)">
<g fill="#000000" >
<use xlink:href="#f4_w" transform="matrix(12.4,0,0,12.4,111.7,167.5)" />
<use xlink:href="#f4_q" transform="matrix(12.4,0,0,12.4,121,167.5)" />
</g>
</g>
<g clip-path="url(#c6_6)">
<g fill="#000000" >
<use xlink:href="#f4_bz" transform="matrix(12.4,0,0,12.4,136,167.5)" />
<use xlink:href="#f4_d4" transform="matrix(12.4,0,0,12.4,147.9,167.5)" />
<use xlink:href="#f4_c1" transform="matrix(12.4,0,0,12.4,147.8,167.5)" />
<use xlink:href="#f4_d4" transform="matrix(12.4,0,0,12.4,154.9,167.5)" />
<use xlink:href="#f4_cb" transform="matrix(12.4,0,0,12.4,160.2,167.5)" />
<use xlink:href="#f4_c1" transform="matrix(12.4,0,0,12.4,173.3,167.5)" />
<use xlink:href="#f4_bv" transform="matrix(12.4,0,0,12.4,185.7,167.5)" />
<use xlink:href="#f4_d4" transform="matrix(12.4,0,0,12.4,196.3,167.5)" />
<use xlink:href="#f4_cb" transform="matrix(12.4,0,0,12.4,201.2,167.5)" />
<use xlink:href="#f4_br" transform="matrix(12.4,0,0,12.4,214.4,167.5)" />
<use xlink:href="#f4_ct" transform="matrix(12.4,0,0,12.4,224.7,167.5)" />
<use xlink:href="#f4_bp" transform="matrix(12.4,0,0,12.4,234.6,167.5)" />
<use xlink:href="#f4_d4" transform="matrix(12.4,0,0,12.4,245.6,167.5)" />
<use xlink:href="#f4_c1" transform="matrix(12.4,0,0,12.4,245.5,167.5)" />
<use xlink:href="#f4_ct" transform="matrix(12.4,0,0,12.4,252.9,167.5)" />
<use xlink:href="#f4_cc" transform="matrix(12.4,0,0,12.4,262.9,167.5)" />
<use xlink:href="#f4_ct" transform="matrix(12.4,0,0,12.4,273.1,167.5)" />
<use xlink:href="#f4_no" transform="matrix(12.4,0,0,12.4,278.1,167.5)" />
<use xlink:href="#f4_bq" transform="matrix(12.4,0,0,12.4,278.1,167.5)" />
</g>
</g>
<g clip-path="url(#c7_6)">
<g fill="#000000" >
<use xlink:href="#f4_p" transform="matrix(12.4,0,0,12.4,483.6,167.5)" />
<use xlink:href="#f4_o" transform="matrix(12.4,0,0,12.4,490.5,167.5)" />
<use xlink:href="#f4_u" transform="matrix(12.4,0,0,12.4,501.2,167.5)" />
<use xlink:href="#f4_l" transform="matrix(12.4,0,0,12.4,511.2,167.5)" />
<use xlink:href="#f4_p" transform="matrix(12.4,0,0,12.4,517.8,167.5)" />
<use xlink:href="#f4_o" transform="matrix(12.4,0,0,12.4,524.7,167.5)" />
<use xlink:href="#f4_v" transform="matrix(12.4,0,0,12.4,535.4,167.5)" />
</g>
</g>
<g clip-path="url(#c8_6)">
<g fill="#000000" >
<use xlink:href="#f4_w" transform="matrix(12.4,0,0,12.4,111.7,199)" />
<use xlink:href="#f4_r" transform="matrix(12.4,0,0,12.4,120.8,199)" />
</g>
</g>
<g clip-path="url(#c9_6)">
<g fill="#000000" >
<use xlink:href="#f4_bt" transform="matrix(12.4,0,0,12.4,136,199)" />
<use xlink:href="#f4_ct" transform="matrix(12.4,0,0,12.4,146.4,199)" />
<use xlink:href="#f4_b1" transform="matrix(12.4,0,0,12.4,156.3,199)" />
<use xlink:href="#f4_cb" transform="matrix(12.4,0,0,12.4,175.3,199)" />
<use xlink:href="#f4_c7" transform="matrix(12.4,0,0,12.4,188.4,199)" />
<use xlink:href="#f4_ct" transform="matrix(12.4,0,0,12.4,199.1,199)" />
<use xlink:href="#f4_c3" transform="matrix(12.4,0,0,12.4,204.1,199)" />
<use xlink:href="#f4_bz" transform="matrix(12.4,0,0,12.4,222.1,199)" />
<use xlink:href="#f4_cw" transform="matrix(12.4,0,0,12.4,234.3,198.9)" />
<use xlink:href="#f4_bh" transform="matrix(12.4,0,0,12.4,233.8,199)" />
<use xlink:href="#f4_d4" transform="matrix(12.4,0,0,12.4,248.8,199)" />
<use xlink:href="#f4_b9" transform="matrix(12.4,0,0,12.4,253.7,199)" />
<use xlink:href="#f4_cc" transform="matrix(12.4,0,0,12.4,267.3,199)" />
<use xlink:href="#f4_bt" transform="matrix(12.4,0,0,12.4,277.6,199)" />
<use xlink:href="#f4_ct" transform="matrix(12.4,0,0,12.4,287.9,199)" />
</g>
</g>
<g clip-path="url(#ca_6)">
<g fill="#000000" >
<use xlink:href="#f4_p" transform="matrix(12.4,0,0,12.4,483.6,199)" />
<use xlink:href="#f4_o" transform="matrix(12.4,0,0,12.4,490.5,199)" />
<use xlink:href="#f4_w" transform="matrix(12.4,0,0,12.4,501,199)" />
<use xlink:href="#f4_l" transform="matrix(12.4,0,0,12.4,510.5,199)" />
<use xlink:href="#f4_p" transform="matrix(12.4,0,0,12.4,517.2,199)" />
<use xlink:href="#f4_o" transform="matrix(12.4,0,0,12.4,524.1,199)" />
<use xlink:href="#f4_x" transform="matrix(12.4,0,0,12.4,534.6,199)" />
</g>
</g>
<g clip-path="url(#cb_6)">
<g fill="#000000" >
<use xlink:href="#f4_w" transform="matrix(12.4,0,0,12.4,110.9,230.4)" />
<use xlink:href="#f4_s" transform="matrix(12.4,0,0,12.4,120.2,230.4)" />
</g>
</g>
<g clip-path="url(#cc_6)">
<g fill="#000000" >
<use xlink:href="#f4_cb" transform="matrix(12.4,0,0,12.4,136,230.4)" />
<use xlink:href="#f4_bt" transform="matrix(12.4,0,0,12.4,149.2,230.4)" />
<use xlink:href="#f4_d4" transform="matrix(12.4,0,0,12.4,159.6,230.4)" />
<use xlink:href="#f4_bm" transform="matrix(12.4,0,0,12.4,159.5,230.4)" />
<use xlink:href="#f4_d8" transform="matrix(12.4,0,0,12.4,170.7,230.4)" />
</g>
</g>
<g clip-path="url(#cd_6)">
<g fill="#000000" >
<use xlink:href="#f4_p" transform="matrix(12.4,0,0,12.4,483.6,230.4)" />
<use xlink:href="#f4_p" transform="matrix(12.4,0,0,12.4,491.3,230.4)" />
<use xlink:href="#f4_o" transform="matrix(12.4,0,0,12.4,498.2,230.4)" />
<use xlink:href="#f4_l" transform="matrix(12.4,0,0,12.4,508.9,230.4)" />
<use xlink:href="#f4_p" transform="matrix(12.4,0,0,12.4,515.5,230.4)" />
<use xlink:href="#f4_p" transform="matrix(12.4,0,0,12.4,523.2,230.4)" />
<use xlink:href="#f4_p" transform="matrix(12.4,0,0,12.4,530.9,230.4)" />
</g>
</g>
<g clip-path="url(#ce_6)">
<g fill="#000000" >
<use xlink:href="#f4_w" transform="matrix(12.4,0,0,12.4,110.9,261.9)" />
<use xlink:href="#f4_t" transform="matrix(12.4,0,0,12.4,120.4,261.9)" />
</g>
</g>
<g clip-path="url(#cf_6)">
<g fill="#000000" >
<use xlink:href="#f4_mv" transform="matrix(12.4,0,0,12.4,136,261.9)" />
<use xlink:href="#f4_cu" transform="matrix(12.4,0,0,12.4,146.4,261.9)" />
<use xlink:href="#f4_bt" transform="matrix(12.4,0,0,12.4,151.4,261.9)" />
<use xlink:href="#f4_c0" transform="matrix(12.4,0,0,12.4,161.7,261.9)" />
<use xlink:href="#f4_ct" transform="matrix(12.4,0,0,12.4,172.8,261.9)" />
<use xlink:href="#f4_b9" transform="matrix(12.4,0,0,12.4,182.8,261.9)" />
<use xlink:href="#f4_ct" transform="matrix(12.4,0,0,12.4,196.5,261.9)" />
<use xlink:href="#f4_cb" transform="matrix(12.4,0,0,12.4,206.4,261.9)" />
<use xlink:href="#f4_cc" transform="matrix(12.4,0,0,12.4,219.6,261.9)" />
<use xlink:href="#f4_ct" transform="matrix(12.4,0,0,12.4,229.8,261.9)" />
<use xlink:href="#f4_c1" transform="matrix(12.4,0,0,12.4,234.8,261.9)" />
<use xlink:href="#f4_ct" transform="matrix(12.4,0,0,12.4,242.2,261.9)" />
<use xlink:href="#f4_ik" transform="matrix(12.4,0,0,12.4,252.1,261.9)" />
<use xlink:href="#f4_ct" transform="matrix(12.4,0,0,12.4,274.2,261.9)" />
<use xlink:href="#f4_c3" transform="matrix(12.4,0,0,12.4,284.2,261.9)" />
<use xlink:href="#f4_d4" transform="matrix(12.4,0,0,12.4,297.3,261.9)" />
<use xlink:href="#f4_bt" transform="matrix(12.4,0,0,12.4,297.2,261.9)" />
<use xlink:href="#f4_ct" transform="matrix(12.4,0,0,12.4,307.5,261.9)" />
</g>
</g>
<g clip-path="url(#cg_6)">
<g fill="#000000" >
<use xlink:href="#f4_p" transform="matrix(12.4,0,0,12.4,483.6,261.9)" />
<use xlink:href="#f4_p" transform="matrix(12.4,0,0,12.4,491.3,261.9)" />
<use xlink:href="#f4_q" transform="matrix(12.4,0,0,12.4,499,261.9)" />
</g>
</g>
<g clip-path="url(#ch_6)">
<g fill="#000000" >
<use xlink:href="#f4_w" transform="matrix(12.4,0,0,12.4,111.7,293.3)" />
<use xlink:href="#f4_u" transform="matrix(12.4,0,0,12.4,121.2,293.3)" />
</g>
</g>
<g clip-path="url(#ci_6)">
<g fill="#000000" >
<use xlink:href="#f4_cb" transform="matrix(12.4,0,0,12.4,136,293.3)" />
<use xlink:href="#f4_d8" transform="matrix(12.4,0,0,12.4,149.2,293.3)" />
<use xlink:href="#f4_bt" transform="matrix(12.4,0,0,12.4,154.1,293.3)" />
<use xlink:href="#f4_ct" transform="matrix(12.4,0,0,12.4,164.5,293.3)" />
<use xlink:href="#f4_c1" transform="matrix(12.4,0,0,12.4,174.4,293.3)" />
<use xlink:href="#f4_d8" transform="matrix(12.4,0,0,12.4,181.8,293.3)" />
<use xlink:href="#f4_bx" transform="matrix(12.4,0,0,12.4,191.8,293.3)" />
<use xlink:href="#f4_bg" transform="matrix(12.4,0,0,12.4,202.7,293.3)" />
<use xlink:href="#f4_d8" transform="matrix(12.4,0,0,12.4,215.2,293.3)" />
<use xlink:href="#f4_ns" transform="matrix(12.4,0,0,12.4,220.2,293.3)" />
<use xlink:href="#f4_bk" transform="matrix(12.4,0,0,12.4,225.2,293.3)" />
<use xlink:href="#f4_c0" transform="matrix(12.4,0,0,12.4,235.4,293.3)" />
<use xlink:href="#f4_d8" transform="matrix(12.4,0,0,12.4,246.5,293.3)" />
<use xlink:href="#f4_c1" transform="matrix(12.4,0,0,12.4,256.4,293.3)" />
<use xlink:href="#f4_d4" transform="matrix(12.4,0,0,12.4,263.5,293.3)" />
</g>
</g>
<g clip-path="url(#cj_6)">
<g fill="#000000" >
<use xlink:href="#f4_p" transform="matrix(12.4,0,0,12.4,483.6,293.3)" />
<use xlink:href="#f4_p" transform="matrix(12.4,0,0,12.4,491.3,293.3)" />
<use xlink:href="#f4_r" transform="matrix(12.4,0,0,12.4,499,293.3)" />
</g>
</g>
<g clip-path="url(#ck_6)">
<g fill="#000000" >
<use xlink:href="#f4_w" transform="matrix(12.4,0,0,12.4,112.4,324.8)" />
<use xlink:href="#f4_v" transform="matrix(12.4,0,0,12.4,122,324.8)" />
</g>
</g>
<g clip-path="url(#cl_6)">
<g fill="#000000" >
<use xlink:href="#f4_br" transform="matrix(12.4,0,0,12.4,136,324.8)" />
<use xlink:href="#f4_d4" transform="matrix(12.4,0,0,12.4,145.9,324.8)" />
<use xlink:href="#f4_c1" transform="matrix(12.4,0,0,12.4,146.3,324.8)" />
<use xlink:href="#f4_bz" transform="matrix(12.4,0,0,12.4,158.7,324.8)" />
<use xlink:href="#f4_bp" transform="matrix(12.4,0,0,12.4,170.5,324.8)" />
<use xlink:href="#f4_b9" transform="matrix(12.4,0,0,12.4,186.4,324.8)" />
<use xlink:href="#f4_bg" transform="matrix(12.4,0,0,12.4,200.1,324.8)" />
<use xlink:href="#f4_p6" transform="matrix(12.4,0,0,12.4,212.7,324.8)" />
</g>
</g>
<g clip-path="url(#cm_6)">
<g fill="#000000" >
<use xlink:href="#f4_p" transform="matrix(12.4,0,0,12.4,483.6,324.8)" />
<use xlink:href="#f4_p" transform="matrix(12.4,0,0,12.4,491.3,324.8)" />
<use xlink:href="#f4_s" transform="matrix(12.4,0,0,12.4,498.8,324.8)" />
</g>
</g>
<g clip-path="url(#cn_6)">
<g fill="#000000" >
<use xlink:href="#f4_w" transform="matrix(12.4,0,0,12.4,111.7,356.2)" />
<use xlink:href="#f4_w" transform="matrix(12.4,0,0,12.4,121.2,356.2)" />
</g>
</g>
<g clip-path="url(#co_6)">
<g fill="#000000" >
<use xlink:href="#f4_bp" transform="matrix(12.4,0,0,12.4,136,356.2)" />
<use xlink:href="#f4_cv" transform="matrix(12.4,0,0,12.4,146.9,356.2)" />
<use xlink:href="#f4_no" transform="matrix(12.4,0,0,12.4,151.9,356.2)" />
<use xlink:href="#f4_bq" transform="matrix(12.4,0,0,12.4,151.9,356.2)" />
<use xlink:href="#f4_dr" transform="matrix(12.4,0,0,12.4,163.5,356.2)" />
<use xlink:href="#f4_bz" transform="matrix(12.4,0,0,12.4,168.5,356.2)" />
<use xlink:href="#f4_cu" transform="matrix(12.4,0,0,12.4,180.3,356.2)" />
<use xlink:href="#f4_cc" transform="matrix(12.4,0,0,12.4,185.3,356.2)" />
<use xlink:href="#f4_bz" transform="matrix(12.4,0,0,12.4,195.5,356.2)" />
<use xlink:href="#f4_ct" transform="matrix(12.4,0,0,12.4,207.3,356.2)" />
</g>
</g>
<g clip-path="url(#cp_6)">
<g fill="#000000" >
<use xlink:href="#f4_p" transform="matrix(12.4,0,0,12.4,483.6,356.2)" />
<use xlink:href="#f4_p" transform="matrix(12.4,0,0,12.4,491.3,356.2)" />
<use xlink:href="#f4_t" transform="matrix(12.4,0,0,12.4,499,356.2)" />
</g>
</g>
<g clip-path="url(#cq_6)">
<g fill="#000000" >
<use xlink:href="#f4_w" transform="matrix(12.4,0,0,12.4,112.4,387.7)" />
<use xlink:href="#f4_x" transform="matrix(12.4,0,0,12.4,121.8,387.7)" />
</g>
</g>
<g clip-path="url(#cr_6)">
<g fill="#000000" >
<use xlink:href="#f4_bx" transform="matrix(12.4,0,0,12.4,136,387.7)" />
<use xlink:href="#f4_nl" transform="matrix(12.4,0,0,12.4,146.9,387.7)" />
<use xlink:href="#f4_bs" transform="matrix(12.4,0,0,12.4,146.9,387.7)" />
<use xlink:href="#f4_ct" transform="matrix(12.4,0,0,12.4,159.3,387.7)" />
<use xlink:href="#f4_ao" transform="matrix(12.4,0,0,12.4,164.2,387.7)" />
<use xlink:href="#f4_n7" transform="matrix(12.4,0,0,12.4,179.4,387.7)" />
</g>
</g>
<g clip-path="url(#cs_6)">
<g fill="#000000" >
<use xlink:href="#f4_p" transform="matrix(12.4,0,0,12.4,483.6,387.7)" />
<use xlink:href="#f4_p" transform="matrix(12.4,0,0,12.4,491.3,387.7)" />
<use xlink:href="#f4_u" transform="matrix(12.4,0,0,12.4,499,387.7)" />
</g>
</g>
<g clip-path="url(#ct_6)">
<g fill="#000000" >
<use xlink:href="#f4_x" transform="matrix(12.4,0,0,12.4,110.9,419.1)" />
<use xlink:href="#f4_o" transform="matrix(12.4,0,0,12.4,120.2,419.1)" />
</g>
</g>
<g clip-path="url(#cu_6)">
<g fill="#000000" >
<use xlink:href="#f4_bx" transform="matrix(12.4,0,0,12.4,136,419.1)" />
<use xlink:href="#f4_nl" transform="matrix(12.4,0,0,12.4,146.9,419.1)" />
<use xlink:href="#f4_bs" transform="matrix(12.4,0,0,12.4,146.9,419.1)" />
<use xlink:href="#f4_ct" transform="matrix(12.4,0,0,12.4,159.3,419.1)" />
<use xlink:href="#f4_ao" transform="matrix(12.4,0,0,12.4,164.2,419.1)" />
<use xlink:href="#f4_n8" transform="matrix(12.4,0,0,12.4,179.4,419.1)" />
</g>
</g>
<g clip-path="url(#cv_6)">
<g fill="#000000" >
<use xlink:href="#f4_p" transform="matrix(12.4,0,0,12.4,483.6,419.1)" />
<use xlink:href="#f4_p" transform="matrix(12.4,0,0,12.4,491.3,419.1)" />
<use xlink:href="#f4_v" transform="matrix(12.4,0,0,12.4,498.8,419.1)" />
</g>
</g>
<defs>
<path d="M400,63c0,0,55,0,124,23c0,0,47,81,47,140c0,0,0,132,-223,242c0,0,-65,-36,-100,-95c0,0,-36,-60,-36,-125c0,0,0,-78,50,-132c0,0,50,-53,138,-53Zm20,507c0,0,133,90,133,200c0,0,0,70,-48,118c0,0,-48,49,-125,49c0,0,-48,0,-107,-23c0,0,-53,-66,-53,-132c0,0,0,-69,51,-115c0,0,51,-47,149,-97ZM377,-30c0,0,-140,0,-228,72c0,0,-88,73,-88,187c0,0,0,168,214,275C275,504,84,607,84,767c0,0,0,110,85,182c0,0,85,72,222,72c0,0,128,0,209,-65c0,0,80,-64,80,-165c0,0,0,-148,-193,-258c0,0,106,-58,165,-123c0,0,58,-65,58,-159c0,0,0,-123,-92,-202c0,0,-92,-79,-241,-79Z"
id="f4_w"
transform="scale(0.001,-0.001)"/>

<path d="M67,0L58,52c0,0,105,40,209,64V851L81,762L38,831l294,193l71,-39V99L591,73L582,0Z"
id="f4_p"
transform="scale(0.001,-0.001)"/>

<path d="M325,240c0,0,77,0,154,35c0,0,77,35,120,99V500c0,0,-118,73,-222,73c0,0,-97,0,-151,-54c0,0,-53,-53,-53,-128c0,0,0,-73,49,-125c0,0,38,-26,103,-26ZM689,-49L599,8V199c0,0,-73,-65,-179,-65c0,0,-134,0,-252,96c0,0,-118,95,-118,221c0,0,0,102,78,171c0,0,78,69,190,69c0,0,38,0,75,-10L599,582V822H0l-45,76l14,31H863l46,-76L895,822H660l66,-58V-39L689,-49Z"
id="f4_c7"
transform="scale(0.001,-0.001)"/>

<path d="M228,-49L138,8V822H0l-45,76l14,31H119L-33,1144c0,0,-70,92,-157,92c0,0,-69,0,-159,-58l-72,118c0,0,89,73,181,73c0,0,140,0,257,-170L205,929H402l46,-76L434,822H199l65,-58V-39L228,-49Z"
id="f4_d8"
transform="scale(0.001,-0.001)"/>

<path d="M915,-274L842,21L784,6c0,0,-37,-120,-114,-190c0,0,-77,-70,-178,-70c0,0,-96,0,-175,51c0,0,-79,51,-80,122c0,0,-119,32,-179,89C58,8,-1,67,-1,138c0,0,0,64,44,104c0,0,44,41,104,41c0,0,91,0,207,-123L315,110c0,0,-78,69,-122,84c0,0,-75,-23,-75,-92c0,0,0,-39,36,-72c0,0,35,-32,100,-46c0,0,35,69,122,89L497,24l-4,-40c0,0,-59,-6,-95,-37c0,0,-36,-32,-36,-68c0,0,0,-41,46,-63c0,0,67,3,141,62c0,0,74,59,102,137c0,0,-136,32,-237,135c0,0,-101,104,-101,223c0,0,0,113,84,184c0,0,84,71,222,72H764V822H0l-45,76l14,31H1074l46,-76l-14,-31H825l66,-58V504l-3,2l3,-3H648c0,0,-95,0,-154,-53c0,0,-59,-53,-59,-132c0,0,0,-49,28,-100c0,0,27,-50,82,-84c0,0,45,-15,97,-15c0,0,91,0,160,46L775,303l100,48L1013,188c0,0,-8,-28,-34,-66c0,0,-27,-38,-62,-64l136,-279L915,-274Z"
id="f4_ge"
transform="scale(0.001,-0.001)"/>

<path d="M-239,897c0,0,-82,61,-132,137c0,0,-50,75,-50,150c0,0,0,78,52,133c0,0,52,55,141,55c0,0,98,0,176,-64l-23,-69c0,0,-52,32,-104,32c0,0,-57,0,-95,-36c0,0,-38,-36,-38,-95c0,0,0,-115,117,-217l-44,-26Z"
id="f4_dr"
transform="scale(0.001,-0.001)"/>

<path d="M689,445V822H286l65,-58l8,-319ZM779,-49L689,8V328H370V180L296,150c0,0,-56,35,-120,104c0,0,-63,70,-89,131l41,60H238L223,822H0l-45,76l14,31H953l46,-76L985,822H750l66,-58V-39L779,-49Z"
id="f4_bz"
transform="scale(0.001,-0.001)"/>

<path d="M228,-49L138,8V822H0l-45,76l14,31H402l46,-76L434,822H199l65,-58V-39L228,-49Z"
id="f4_ct"
transform="scale(0.001,-0.001)"/>

<path d="M663,-49L573,8V445H299V280L226,251c0,0,-105,99,-162,238l63,72H573V822H0l-45,76l14,31H837l46,-76L869,822H634l66,-58V-39L663,-49Z"
id="f4_bt"
transform="scale(0.001,-0.001)"/>

<path d="M688,-243c0,0,-256,53,-408,173c0,0,-152,119,-152,270c0,0,0,101,68,171c0,0,-101,84,-101,179c0,0,0,64,53,112c0,0,54,47,191,47H587V822H0l-45,76l14,31H830l45,-76L862,822H640l66,-58V585H362c0,0,-159,-1,-159,-92c0,0,0,-41,46,-80c0,0,76,47,183,47c0,0,135,0,230,-76c0,0,96,-75,96,-187C758,197,758,67,629,2L545,104c0,0,49,30,81,75c0,0,32,44,32,82c0,0,0,16,-4,26c0,0,-64,58,-167,58c0,0,-97,0,-166,-50v-2c0,0,-67,-52,-67,-131c0,0,0,-116,132,-199c0,0,132,-84,334,-132l-32,-74Z"
id="f4_cc"
transform="scale(0.001,-0.001)"/>

<path d="M228,-49L138,8V822H0l-45,76l14,31H138c0,0,-109,342,-284,342c0,0,-62,0,-102,-40c0,0,-40,-39,-40,-93c0,0,0,-61,51,-134l-42,-32c0,0,-128,113,-128,226c0,0,0,79,60,136c0,0,61,56,154,56c0,0,137,0,249,-125c0,0,112,-125,169,-336H402l46,-76L434,822H199l65,-58V-39L228,-49Z"
id="f4_cv"
transform="scale(0.001,-0.001)"/>

<path d="M527,-71L52,414l34,92H277c0,0,12,32,12,72V822H0l-45,76l14,31H599l46,-76L631,822H350l66,-55V564c0,0,0,-96,-152,-248L610,34L611,8L527,-71Z"
id="f4_c1"
transform="scale(0.001,-0.001)"/>

<path d="M283,260c0,0,122,0,209,113V513c0,0,-90,51,-160,51c0,0,-80,0,-129,-50c0,0,-49,-50,-49,-118c0,0,0,-60,35,-110c0,0,45,-26,94,-26ZM582,-49L492,8V211c0,0,-63,-54,-141,-54c0,0,-113,0,-213,92c0,0,-100,92,-100,205c0,0,0,93,69,157c0,0,69,64,162,64c0,0,32,0,64,-9L492,590V822H0l-45,76l14,31H1108l45,-76l-13,-31H553l66,-58V524c0,0,91,89,192,89c0,0,98,0,171,-79c0,0,72,-79,72,-186c0,0,0,-178,-224,-330L736,124c0,0,219,153,219,269c0,0,0,44,-26,75c0,0,-26,32,-81,32c0,0,-109,0,-229,-155V-39L582,-49Z"
id="f4_b9"
transform="scale(0.001,-0.001)"/>

<path d="M449,79c0,0,103,0,168,61c0,0,66,60,66,149c0,0,0,93,-84,186H420c0,0,-107,0,-164,-50c0,0,-57,-51,-57,-126c0,0,0,-108,99,-184c0,0,81,-36,151,-36Zm67,-96c0,0,-168,0,-301,109C215,92,81,202,81,350c0,0,0,114,83,182c0,0,84,68,229,68H507V822H0l-45,76l14,31H883l46,-76L915,822H568l66,-58V532c0,0,87,-64,130,-144c0,0,43,-79,43,-157c0,0,0,-109,-81,-179c0,0,-81,-69,-210,-69Z"
id="f4_bl"
transform="scale(0.001,-0.001)"/>

<path d="M-214,863l-199,281c0,0,-70,92,-157,92c0,0,-69,0,-159,-58l-72,118c0,0,89,73,180,73c0,0,141,0,258,-170L-155,901l-59,-38Z"
id="f4_d4"
transform="scale(0.001,-0.001)"/>

<path d="M455,84c0,0,32,0,64,11c0,0,66,59,96,174c0,0,30,114,30,231c0,0,0,172,-61,291c0,0,-61,118,-178,118c0,0,-33,0,-70,-11c0,0,-63,-56,-94,-173c0,0,-31,-117,-31,-221c0,0,0,-176,68,-298c0,0,68,-122,176,-122ZM423,-14c0,0,-157,0,-255,137c0,0,-98,138,-98,360c0,0,0,230,105,379c0,0,105,148,273,148c0,0,166,0,252,-138c0,0,87,-137,87,-351c0,0,0,-243,-99,-390C688,131,588,-14,423,-14Z"
id="f4_o"
transform="scale(0.001,-0.001)"/>

<path d="M188,365l310,9V738l18,139L188,365ZM338,0L328,52l170,55V267H73L38,354l478,670l118,-16V377l176,5l1,-76L768,267H634V90L761,73L752,0Z"
id="f4_s"
transform="scale(0.001,-0.001)"/>

<path d="M92,380L46,457l14,30H448l45,-76L480,380Z"
id="f4_l"
transform="scale(0.001,-0.001)"/>

<path d="M416,-30c0,0,-83,0,-175,30C241,0,148,29,75,78l59,125C134,203,296,93,463,93l82,8c0,0,75,67,75,157c0,0,0,104,-70,158c0,0,-70,53,-171,53c0,0,-86,0,-177,-35l-75,66l53,493H700l1,-69c0,0,0,-96,-13,-178l-88,-2L584,872L278,886L248,570c0,0,55,27,149,27c0,0,155,0,255,-84c0,0,100,-85,100,-224c0,0,0,-139,-95,-229c0,0,-95,-90,-241,-90Z"
id="f4_t"
transform="scale(0.001,-0.001)"/>

<path d="M95,0L67,98L422,497c0,0,130,154,130,259c0,0,0,63,-40,111c0,0,-40,48,-121,48c0,0,-75,0,-171,-29L193,695l-88,2c0,0,-13,82,-13,165l1,65c0,0,159,97,315,97c0,0,122,0,207,-78c0,0,85,-77,85,-193c0,0,0,-67,-34,-133c0,0,-33,-67,-165,-217L237,121l4,-14l373,21l49,136l83,-12C746,252,732,99,704,0Z"
id="f4_q"
transform="scale(0.001,-0.001)"/>

<path d="M799,475V822H350l66,-55V564c0,0,0,-43,-25,-89ZM527,-71L52,414l34,92H277c0,0,12,32,12,72V822H0l-45,76l14,31H1063l46,-76l-14,-31H860l66,-58V-39L889,-49L799,8V370H315L264,316L610,34L611,8L527,-71Z"
id="f4_cb"
transform="scale(0.001,-0.001)"/>

<path d="M388,325c0,0,58,0,112,31c0,0,53,31,84,86V822H165l69,-58V408c0,0,47,-83,154,-83ZM674,-49L584,8V257c0,0,-61,-51,-141,-51c0,0,-125,0,-232,109c0,0,-107,108,-107,243V822H0l-45,76l14,31H848l46,-76L880,822H645l65,-58V-39L674,-49Z"
id="f4_bv"
transform="scale(0.001,-0.001)"/>

<path d="M675,-274L602,21C602,21,550,3,498,3C498,3,347,3,210,118C210,118,73,232,73,373c0,0,0,113,84,184c0,0,84,71,222,72H524V822H0l-45,76l14,31H834l46,-76L866,822H585l66,-58V504l-3,2l3,-3H408c0,0,-95,0,-154,-53c0,0,-58,-53,-58,-132c0,0,0,-49,27,-100c0,0,28,-50,83,-84c0,0,44,-15,96,-15c0,0,91,0,160,46L535,303l101,48L773,188c0,0,-8,-28,-34,-66c0,0,-27,-38,-62,-64L813,-221L675,-274Z"
id="f4_br"
transform="scale(0.001,-0.001)"/>

<path d="M347,-57C347,-57,66,211,66,394c0,0,0,98,74,164c0,0,74,65,225,65H616V822H0l-45,76l14,31H880l46,-76L912,822H677l66,-58V-39L706,-49L616,8V500H428c0,0,-239,0,-239,-161c0,0,0,-136,214,-343L347,-57Z"
id="f4_bp"
transform="scale(0.001,-0.001)"/>

<path d="M0,822l-45,76l14,31H61l46,-76L93,822Z"
id="f4_no"
transform="scale(0.001,-0.001)"/>

<path d="M768,-49L678,8V202c0,0,-73,-58,-172,-58c0,0,-123,0,-240,94c0,0,-118,94,-179,237l20,55c0,0,134,12,215,70c0,0,81,57,81,141c0,0,0,90,-67,134l-26,3c0,0,-46,0,-74,-29c0,0,-28,-30,-28,-68c0,0,0,-55,82,-109L252,620C252,620,93,720,93,820c0,0,0,65,47,104c0,0,46,40,114,40c0,0,99,0,179,-83c0,0,80,-83,82,-197c0,0,0,-93,-79,-165c0,0,-78,-73,-199,-97c0,0,29,-104,88,-158c0,0,42,-16,92,-16c0,0,78,0,151,38c0,0,74,38,110,111V822H553l-46,76l14,31H943l45,-76L975,822H739l66,-58V-39L768,-49Z"
id="f4_bq"
transform="scale(0.001,-0.001)"/>

<path d="M431,-30c0,0,-162,0,-266,120C165,90,61,211,61,399c0,0,0,140,63,278c0,0,62,137,198,233c0,0,136,95,343,104l1,-154H440c0,0,-110,-50,-172,-178c0,0,-62,-127,-62,-273c0,0,0,-148,67,-243c0,0,68,-96,195,-96l25,2c0,0,117,59,117,205c0,0,0,88,-43,152c0,0,-43,64,-116,64c0,0,-72,0,-155,-59l-35,63c0,0,121,103,246,103c0,0,106,0,177,-87c0,0,71,-88,71,-214c0,0,0,-139,-92,-234c0,0,-92,-95,-232,-95Z"
id="f4_u"
transform="scale(0.001,-0.001)"/>

<path d="M280,-16L139,23c0,0,170,472,422,845l-11,14L156,865L139,736l-87,2c0,0,-14,82,-14,185l2,70H633L688,878C688,878,449,501,280,-16Z"
id="f4_v"
transform="scale(0.001,-0.001)"/>

<path d="M387,-28c0,0,-158,0,-295,71l27,137c0,0,168,-84,329,-84c0,0,47,0,85,9c0,0,57,62,57,141c0,0,0,82,-66,140c0,0,-66,57,-188,57L228,438l-3,104h26c0,0,145,5,212,67c0,0,67,62,67,146c0,0,0,75,-51,123c0,0,-51,49,-143,49c0,0,-50,0,-105,-16L203,743l-88,1c0,0,-14,83,-14,139l1,58c0,0,120,83,280,83c0,0,128,0,211,-71c0,0,82,-71,82,-177c0,0,0,-73,-45,-137c0,0,-45,-65,-132,-98c0,0,96,-22,163,-103c0,0,66,-80,66,-178c0,0,0,-126,-94,-207c0,0,-95,-81,-246,-81Z"
id="f4_r"
transform="scale(0.001,-0.001)"/>

<path d="M959,-49L869,8V367c0,0,-32,-13,-64,-13c0,0,-50,0,-110,25c0,0,23,-52,23,-109c0,0,0,-103,-70,-170c0,0,-70,-66,-182,-66c0,0,-110,0,-222,82c0,0,-111,83,-213,293l68,42c0,0,72,-155,152,-231c0,0,81,-76,178,-76c0,0,83,0,131,49c0,0,48,48,48,117c0,0,0,54,-30,100c0,0,-31,47,-91,65L325,391L257,512c0,0,68,53,156,56c0,0,140,72,140,179c0,0,0,69,-52,99c0,0,-4,1,-11,1c-19,0,-66,-4,-123,-30c0,0,-78,-35,-142,-96L150,823c0,0,119,117,253,117c0,0,98,0,175,-71c0,0,77,-70,77,-159c0,0,0,-103,-94,-180c0,0,39,-23,73,-56c0,0,52,-22,109,-22c0,0,77,0,126,38V822H727l-46,76l14,31h558l-153,215c0,0,-70,92,-157,92c0,0,-69,0,-159,-58l-72,118c0,0,89,73,180,73c0,0,141,0,258,-170L1338,929h197l46,-76l-13,-31H1332l66,-58V-39l-37,-10L1271,8V822H930l66,-58V-39L959,-49Z"
id="f4_b1"
transform="scale(0.001,-0.001)"/>

<path d="M413,-59C413,-59,53,193,53,416c0,0,0,97,66,164c0,0,66,66,156,66c0,0,61,0,110,-30L487,507c0,0,92,126,257,126l35,-2V822H0l-45,76l14,31H1043l46,-76l-13,-31H840l66,-58V-39L869,-49L779,8V547c0,0,-101,-5,-165,-90c0,0,-64,-86,-70,-222L507,225l-90,73c0,0,5,79,35,151c0,0,-59,66,-128,66c0,0,-57,0,-100,-38c0,0,-44,-39,-44,-109c0,0,0,-165,284,-360L413,-59Z"
id="f4_c3"
transform="scale(0.001,-0.001)"/>

<path d="M-234,-413c0,0,-210,0,-488,322l54,49c0,0,119,-128,209,-193c0,0,90,-65,177,-65c0,0,72,0,113,40c0,0,42,39,42,91c0,0,0,75,-78,106L-323,-181l-90,98c0,0,63,95,167,95c0,0,90,0,155,-69c0,0,66,-70,66,-164c0,0,0,-85,-60,-139c0,0,-61,-53,-149,-53Z"
id="f4_cw"
transform="scale(0.001,-0.001)"/>

<path d="M252,385l310,78l22,-9c0,0,107,-43,200,-43c0,0,91,0,151,41V822H603l66,-58V585H373c0,0,-184,0,-184,-99c0,0,0,-48,63,-101ZM483,-305L295,-10c0,0,-90,22,-156,74l41,170h66L351,63c0,0,126,4,207,62c0,0,82,58,82,139c0,0,0,37,-18,71L365,266c0,0,-110,15,-197,102c0,0,-87,87,-87,176c0,0,0,69,59,117c0,0,59,48,172,48H550V822H0l-45,76l14,31H1199l46,-76l-14,-31H996l66,-58V-39l-37,-10L935,8V318c0,0,-41,-15,-78,-15c0,0,-52,0,-131,30c0,0,32,-55,32,-111c0,0,0,-109,-98,-179c0,0,-98,-69,-254,-69L599,-216L483,-305Z"
id="f4_bh"
transform="scale(0.001,-0.001)"/>

<path d="M160,-11L136,154L377,141c0,0,201,125,201,430c0,0,0,153,-54,256c0,0,-53,102,-160,102c0,0,-31,0,-68,-9c0,0,-50,-29,-78,-89c0,0,-27,-59,-27,-127c0,0,0,-102,63,-169c0,0,62,-67,162,-67c0,0,35,0,81,12l16,-81c0,0,-78,-26,-151,-26c0,0,-140,0,-228,93c0,0,-88,93,-88,235c0,0,0,141,93,232c0,0,93,91,235,91c0,0,156,0,252,-122c0,0,95,-121,95,-320c0,0,0,-252,-160,-422C561,160,400,-8,160,-11Z"
id="f4_x"
transform="scale(0.001,-0.001)"/>

<path d="M548,-57c0,0,-122,0,-243,81c0,0,-122,81,-252,280l57,41C110,345,283,64,498,64c0,0,92,0,153,49c0,0,61,49,61,121c0,0,0,46,-28,84L440,237c0,0,-73,11,-139,55c0,0,-66,44,-105,105c0,0,-40,61,-40,119c0,0,0,72,62,125c0,0,62,53,184,53H625V822H0l-45,76l14,31H906l46,-76L938,822H678l66,-58V562H431c0,0,-164,0,-164,-99c0,0,0,-55,57,-102l261,82c0,0,104,-21,172,-98c0,0,68,-78,68,-171c0,0,0,-99,-76,-166c0,0,-77,-65,-201,-65Z"
id="f4_bm"
transform="scale(0.001,-0.001)"/>

<path d="M652,-518c0,0,-209,0,-487,322l53,49c0,0,120,-129,210,-193c0,0,90,-65,177,-65c0,0,72,0,113,39c0,0,41,40,41,92c0,0,0,75,-78,105L564,-286l-90,98c0,0,62,96,169,96L605,37C605,37,552,18,498,18c0,0,-151,0,-288,115C210,133,73,248,73,388c0,0,0,113,84,184c0,0,84,71,222,73H524V822H0l-45,76l14,31H842l46,-76L874,822H567l84,-73V519l-3,2l3,-3H408c0,0,-93,0,-153,-52c0,0,-59,-52,-59,-128c0,0,0,-121,110,-188c0,0,53,-17,105,-17c0,0,92,0,153,43L535,318l101,49L773,203c0,0,-20,-67,-87,-122l61,-204c0,0,52,-32,83,-87c0,0,32,-55,32,-116c0,0,0,-85,-61,-139c0,0,-60,-53,-149,-53Z"
id="f4_mv"
transform="scale(0.001,-0.001)"/>

<path d="M228,-49L138,8V822H0l-45,76l14,31H134c0,0,-91,92,-91,191c0,0,0,105,85,170c0,0,84,65,219,65c0,0,128,0,293,-76c0,0,165,-77,362,-263L958,966c0,0,-177,143,-303,210c0,0,-125,68,-244,68c0,0,-107,0,-175,-50c0,0,-68,-50,-68,-131c0,0,0,-61,49,-134H402l46,-76L434,822H199l65,-58V-39L228,-49Z"
id="f4_cu"
transform="scale(0.001,-0.001)"/>

<path d="M374,248c0,0,77,0,149,36c0,0,71,37,110,107V822H284c0,0,138,-96,138,-208c0,0,0,-151,-228,-192c0,0,29,-104,89,-158c0,0,41,-16,91,-16ZM723,-49L633,8V200c0,0,-69,-56,-170,-56c0,0,-122,0,-240,94c0,0,-118,94,-179,237l20,55c0,0,133,17,187,44c0,0,55,28,55,84c0,0,0,45,-30,81c0,0,-30,36,-99,83H0l-45,76l14,31H897l46,-76L929,822H694l65,-58V-39L723,-49Z"
id="f4_c0"
transform="scale(0.001,-0.001)"/>

<path d="M283,260c0,0,122,0,209,113V513c0,0,-90,51,-160,51c0,0,-80,0,-129,-50c0,0,-49,-50,-49,-118c0,0,0,-60,35,-110c0,0,45,-26,94,-26ZM619,521c0,0,93,104,192,104c0,0,98,0,170,-92c0,0,117,17,167,45c0,0,50,27,50,80c0,0,0,45,-30,81c0,0,-30,36,-99,83H553l66,-58V521ZM1267,248c0,0,76,0,148,36c0,0,72,37,110,107V822H1176c0,0,138,-96,138,-208c0,0,0,-151,-228,-192c0,0,29,-104,89,-158c0,0,41,-16,92,-16ZM582,-49L492,8V211c0,0,-63,-54,-141,-54c0,0,-113,0,-214,92c0,0,-102,92,-102,206c0,0,0,93,69,157c0,0,69,63,163,63c0,0,34,0,66,-9L492,590V822H0l-45,76l14,31H1789l46,-76l-14,-31H1586l66,-58V-39l-37,-10L1525,8V200c0,0,-69,-56,-170,-56c0,0,-121,0,-238,92c0,0,-118,92,-179,235c0,0,-35,41,-89,41c0,0,-51,0,-105,-41c0,0,-53,-42,-125,-129V-39L582,-49Z"
id="f4_ik"
transform="scale(0.001,-0.001)"/>

<path d="M348,229c0,0,57,0,106,17L263,559c0,0,-95,-50,-95,-162c0,0,0,-75,52,-136c0,0,49,-32,128,-32Zm170,48c0,0,61,38,96,91V504c0,0,-131,80,-244,80l-35,-2L518,277ZM704,-49L614,8V193c0,0,-84,-65,-192,-65c0,0,-139,0,-255,98c0,0,-115,98,-115,226c0,0,0,106,77,175c0,0,77,70,189,70c0,0,38,0,75,-9L614,578V822H0l-45,76l14,31H878l46,-76L911,822H675l66,-58V-39L704,-49Z"
id="f4_bx"
transform="scale(0.001,-0.001)"/>

<path d="M845,-49L755,8V513H497c0,0,61,-45,93,-110c0,0,33,-64,33,-128c0,0,0,-90,-58,-144c0,0,-59,-53,-143,-53c0,0,-133,0,-234,139C188,217,87,356,20,596l76,24c0,0,60,-201,127,-306c0,0,67,-105,160,-105c0,0,57,0,91,36c0,0,33,36,33,91c0,0,0,84,-73,159L295,558v71H755V822H0l-45,76l14,31H1019l46,-76l-14,-31H816l66,-58V-39L845,-49Z"
id="f4_bg"
transform="scale(0.001,-0.001)"/>

<path d="M228,-49L138,8V822H0l-45,76l14,31H134c0,0,-93,95,-93,205c0,0,0,99,74,162c0,0,74,64,198,64c0,0,136,0,271,-84c0,0,136,-83,301,-262L833,970c0,0,-147,138,-254,206c0,0,-107,69,-217,69c0,0,-90,0,-146,-46c0,0,-56,-47,-56,-123c0,0,0,-66,55,-147H402l46,-76L434,822H199l65,-58V-39L228,-49Z"
id="f4_ns"
transform="scale(0.001,-0.001)"/>

<path d="M487,-7c0,0,-88,0,-185,46c0,0,-97,47,-163,130c0,0,-66,83,-66,185c0,0,0,109,80,177c0,0,79,68,234,68H504V822H0l-45,76l14,31H827l45,-76L859,822H565l66,-58V474l-3,1l3,-3H396c0,0,-100,0,-152,-47c0,0,-53,-48,-53,-119c0,0,0,-104,93,-178c0,0,60,-20,118,-20c0,0,81,0,156,36c0,0,76,35,123,99l92,-99C773,144,723,70,645,31C645,31,567,-7,487,-7Z"
id="f4_bk"
transform="scale(0.001,-0.001)"/>

<path d="M228,-49L138,8V822H0l-45,76l14,31H159L6,1144c0,0,-69,92,-156,92c0,0,-69,0,-159,-58l-72,118c0,0,89,73,180,73c0,0,136,0,250,-159l59,-84l-3,34c0,0,0,76,53,127c0,0,53,51,129,51c0,0,93,0,164,-91l-26,-52c0,0,-52,33,-103,33c0,0,-62,0,-101,-38c0,0,-39,-38,-39,-102c0,0,0,-72,66,-159H402l46,-76L434,822H199l65,-58V-39L228,-49Z"
id="f4_p6"
transform="scale(0.001,-0.001)"/>

<path d="M0,822l-45,76l14,31H38L84,853L70,822Z"
id="f4_nl"
transform="scale(0.001,-0.001)"/>

<path d="M827,-49L736,8V205c0,0,-84,-84,-209,-84c0,0,-130,0,-237,91c0,0,-108,92,-108,196c0,0,0,79,61,137C243,545,66,672,66,791c0,0,0,75,52,124c0,0,53,49,134,49c0,0,164,0,260,-237L451,694c0,0,-55,114,-119,163l-31,5c0,0,-44,0,-77,-32c0,0,-33,-31,-33,-78c0,0,0,-86,113,-165c0,0,60,27,133,27l67,-4l75,-89L564,490l-51,7H493c0,0,-90,0,-142,-43c0,0,-52,-43,-52,-104c0,0,0,-60,51,-109c0,0,33,-16,84,-16c0,0,89,0,177,47c0,0,89,47,125,137V822H567l-46,76l14,31h466l46,-76l-14,-31H798l65,-58V-39L827,-49Z"
id="f4_bs"
transform="scale(0.001,-0.001)"/>

<path d="M483,-305L295,-10c0,0,-90,22,-156,74l41,170h66L351,63c0,0,126,4,207,62c0,0,82,58,82,139c0,0,0,37,-18,71L365,266c0,0,-110,15,-197,102c0,0,-87,87,-87,176c0,0,0,69,59,117c0,0,59,48,172,48H550V822H0l-45,76l14,31H550c0,0,-142,122,-142,255c0,0,0,78,52,133c0,0,52,55,140,55c0,0,98,0,176,-64l-23,-69c0,0,-53,32,-104,32c0,0,-56,0,-94,-36c0,0,-39,-36,-39,-95c0,0,0,-109,112,-211H822l46,-76L854,822H603l66,-58V585H373c0,0,-184,0,-184,-99c0,0,0,-48,63,-101l310,78c0,0,86,-34,141,-99c0,0,55,-65,55,-142c0,0,0,-109,-98,-179c0,0,-98,-69,-254,-69L599,-216L483,-305Z"
id="f4_ao"
transform="scale(0.001,-0.001)"/>

<path d="M535,-54L419,5c0,0,23,27,23,58c0,0,0,32,-23,55c0,0,-22,23,-295,226v73L319,571c0,0,116,92,116,191c0,0,0,63,-50,107l-32,5c0,0,-54,0,-91,-42c0,0,-37,-42,-33,-93c0,0,5,-62,75,-99L267,596c0,0,-162,93,-162,194c0,0,0,70,52,122c0,0,51,52,127,52c0,0,99,0,177,-84c0,0,77,-84,77,-180c0,0,0,-116,-142,-236L254,350L417,225l54,-40c0,0,105,-80,105,-150c0,0,0,-45,-41,-89Z"
id="f4_n7"
transform="scale(0.001,-0.001)"/>

<path d="M634,-49L249,296c0,0,-1,0,-3,0c-11,0,-48,1,-90,15c0,0,-51,16,-67,36l49,165l50,12l84,-98c0,0,125,31,191,104c0,0,66,73,66,165c0,0,0,109,-95,170c0,0,-2,0,-6,0C397,865,262,858,121,738L46,848c0,0,52,47,127,82c0,0,75,34,152,34c0,0,130,0,226,-94c0,0,95,-94,95,-218c0,0,0,-107,-77,-199c0,0,-77,-92,-216,-134L697,26L698,0L634,-49Z"
id="f4_n8"
transform="scale(0.001,-0.001)"/>


</defs>
</svg>