<?xml version="1.0" encoding="UTF-8" standalone="no"?>
<!DOCTYPE svg PUBLIC "-//W3C//DTD SVG 1.1//EN"
"http://www.w3.org/Graphics/SVG/1.1/DTD/svg11.dtd">
<svg viewBox="0 0 641 910" version="1.1" xmlns="http://www.w3.org/2000/svg" xmlns:xlink="http://www.w3.org/1999/xlink">
<defs>
<clipPath id="c0_91"><path d="M0,909.8V0H641.7V909.8Z"/></clipPath>
<clipPath id="c1_91"><path d="M0,908.6V0H641.7V908.6Z"/></clipPath>
<style type="text/css"><![CDATA[
.g0_91{
fill: #FFFFFF;
}
.g1_91{
}
]]></style>
</defs>
<path d="M0,0H641.7V909.8H0V0Z" class="g0_91"/>
<path d="M0,0H641.7V909.8H0V0Z" class="g0_91"/>
<g clip-path="url(#c0_91)">
<path d="M0,-76422.4H641.7V30023.1H0V-76422.4Z" class="g0_91"/>
</g>
<path d="M0,0H641.7V908.6H0V0Z" class="g0_91"/>
<path d="M19.5,60.7H602.7v1.2H19.5V60.7Z" class="g1_91"/>
<g clip-path="url(#c1_91)">
<path d="M0,61.9H641.7V909.8H0V61.9Z" class="g0_91"/>
<g fill="#000000" >
<use xlink:href="#f5_c1" transform="matrix(14,0,0,14,255.8,96.3)" />
<use xlink:href="#f5_dj" transform="matrix(14,0,0,14,261.5,96.4)" />
<use xlink:href="#f5_bb" transform="matrix(14,0,0,14,266,96.3)" />
<use xlink:href="#f5_c3" transform="matrix(14,0,0,14,285.9,96.3)" />
<use xlink:href="#f5_ct" transform="matrix(14,0,0,14,302.2,96.3)" />
<use xlink:href="#f5_l4" transform="matrix(14,0,0,14,308.7,96.3)" />
<use xlink:href="#f5_c0" transform="matrix(14,0,0,14,316.3,96.3)" />
<use xlink:href="#f5_d8" transform="matrix(14,0,0,14,330.4,96.3)" />
<use xlink:href="#f5_bg" transform="matrix(14,0,0,14,342.5,96.3)" />
<use xlink:href="#f5_cv" transform="matrix(14,0,0,14,358.4,96.3)" />
<use xlink:href="#f6_bs" transform="matrix(14,0,0,14,176.8,129.5)" />
<use xlink:href="#f6_bz" transform="matrix(14,0,0,14,190.8,129.5)" />
<use xlink:href="#f6_b9" transform="matrix(14,0,0,14,204.1,129.5)" />
<use xlink:href="#f6_d4" transform="matrix(14,0,0,14,215.2,129.5)" />
<use xlink:href="#f6_bv" transform="matrix(14,0,0,14,225.3,129.5)" />
<use xlink:href="#f6_bb" transform="matrix(14,0,0,14,237.1,129.5)" />
<use xlink:href="#f6_bz" transform="matrix(14,0,0,14,255.4,129.5)" />
<use xlink:href="#f6_oz" transform="matrix(14,0,0,14,268.9,129.5)" />
<use xlink:href="#f6_bc" transform="matrix(14,0,0,14,274.4,129.5)" />
<use xlink:href="#f6_cw" transform="matrix(14,0,0,14,288.8,129.4)" />
<use xlink:href="#f6_bc" transform="matrix(14,0,0,14,288.3,129.5)" />
<use xlink:href="#f6_c1" transform="matrix(14,0,0,14,302.2,129.5)" />
<use xlink:href="#f6_ct" transform="matrix(14,0,0,14,310.6,129.5)" />
<use xlink:href="#f6_k" transform="matrix(14,0,0,14,316.2,129.5)" />
<use xlink:href="#f6_bm" transform="matrix(14,0,0,14,327.1,129.5)" />
<use xlink:href="#f6_bz" transform="matrix(14,0,0,14,339.8,129.5)" />
<use xlink:href="#f6_n0" transform="matrix(14,0,0,14,353.1,129.5)" />
<use xlink:href="#f6_bx" transform="matrix(14,0,0,14,371.9,129.5)" />
<use xlink:href="#f6_ct" transform="matrix(14,0,0,14,384.2,129.5)" />
<use xlink:href="#f6_bg" transform="matrix(14,0,0,14,389.8,129.5)" />
<use xlink:href="#f6_d4" transform="matrix(14,0,0,14,404.2,129.5)" />
<use xlink:href="#f6_cc" transform="matrix(14,0,0,14,409.7,129.5)" />
<use xlink:href="#f6_ct" transform="matrix(14,0,0,14,421.4,129.5)" />
<use xlink:href="#f6_no" transform="matrix(14,0,0,14,427,129.5)" />
<use xlink:href="#f6_bq" transform="matrix(14,0,0,14,427,129.5)" />
<use xlink:href="#f6_k" transform="matrix(14,0,0,14,440.2,129.5)" />
<use xlink:href="#f6_bt" transform="matrix(14,0,0,14,160.7,162.7)" />
<use xlink:href="#f6_ct" transform="matrix(14,0,0,14,172.4,162.7)" />
<use xlink:href="#f6_b9" transform="matrix(14,0,0,14,178.1,162.7)" />
<use xlink:href="#f6_d8" transform="matrix(14,0,0,14,193.6,162.7)" />
<use xlink:href="#f6_ch" transform="matrix(14,0,0,14,199.2,162.7)" />
<use xlink:href="#f6_ct" transform="matrix(14,0,0,14,211.9,162.7)" />
<use xlink:href="#f6_c1" transform="matrix(14,0,0,14,223.1,162.7)" />
<use xlink:href="#f6_ct" transform="matrix(14,0,0,14,231.5,162.7)" />
<use xlink:href="#f6_br" transform="matrix(14,0,0,14,242.8,162.7)" />
<use xlink:href="#f6_d4" transform="matrix(14,0,0,14,254,162.7)" />
<use xlink:href="#f6_c7" transform="matrix(14,0,0,14,254.5,162.7)" />
<use xlink:href="#f6_bp" transform="matrix(14,0,0,14,266.6,162.7)" />
<use xlink:href="#f6_ct" transform="matrix(14,0,0,14,278.9,162.7)" />
<use xlink:href="#f6_c1" transform="matrix(14,0,0,14,290.2,162.7)" />
<use xlink:href="#f6_dj" transform="matrix(14,0,0,14,295,163.1)" />
<use xlink:href="#f6_bb" transform="matrix(14,0,0,14,298.5,162.7)" />
<use xlink:href="#f6_c3" transform="matrix(14,0,0,14,316.8,162.7)" />
<use xlink:href="#f6_ct" transform="matrix(14,0,0,14,331.5,162.7)" />
<use xlink:href="#f6_l4" transform="matrix(14,0,0,14,337.1,162.7)" />
<use xlink:href="#f6_c0" transform="matrix(14,0,0,14,343.3,162.7)" />
<use xlink:href="#f6_d8" transform="matrix(14,0,0,14,355.9,162.7)" />
<use xlink:href="#f6_cc" transform="matrix(14,0,0,14,367.2,162.7)" />
<use xlink:href="#f6_d8" transform="matrix(14,0,0,14,378.8,162.7)" />
<use xlink:href="#f6_by" transform="matrix(14,0,0,14,390.1,162.7)" />
<use xlink:href="#f6_d5" transform="matrix(14,0,0,14,404.2,162.7)" />
<use xlink:href="#f6_c1" transform="matrix(14,0,0,14,404,162.7)" />
<use xlink:href="#f6_c7" transform="matrix(14,0,0,14,412.4,162.7)" />
<use xlink:href="#f6_bt" transform="matrix(14,0,0,14,424.5,162.7)" />
<use xlink:href="#f6_ct" transform="matrix(14,0,0,14,436.2,162.7)" />
<use xlink:href="#f6_no" transform="matrix(14,0,0,14,441.8,162.7)" />
<use xlink:href="#f6_bq" transform="matrix(14,0,0,14,441.8,162.7)" />
<use xlink:href="#f6_k" transform="matrix(14,0,0,14,455,162.7)" />
<use xlink:href="#f6_pc" transform="matrix(14,0,0,14,269.6,195.9)" />
<use xlink:href="#f6_pc" transform="matrix(14,0,0,14,273.9,195.9)" />
<use xlink:href="#f6_pc" transform="matrix(14,0,0,14,278.1,195.9)" />
<use xlink:href="#f6_pc" transform="matrix(14,0,0,14,282.4,195.9)" />
<use xlink:href="#f6_al" transform="matrix(14,0,0,14,286.7,195.9)" />
<use xlink:href="#f6_li" transform="matrix(14,0,0,14,302.5,195.9)" />
<use xlink:href="#f6_bp" transform="matrix(14,0,0,14,308.7,195.9)" />
<use xlink:href="#f6_c1" transform="matrix(14,0,0,14,321.1,195.9)" />
<use xlink:href="#f6_ct" transform="matrix(14,0,0,14,329.4,195.9)" />
<use xlink:href="#f6_pc" transform="matrix(14,0,0,14,335.1,195.9)" />
<use xlink:href="#f6_pc" transform="matrix(14,0,0,14,339.3,195.9)" />
<use xlink:href="#f6_pc" transform="matrix(14,0,0,14,343.6,195.9)" />
<use xlink:href="#f6_pc" transform="matrix(14,0,0,14,347.9,195.9)" />
<use xlink:href="#f6_c1" transform="matrix(14,0,0,14,188.2,254.4)" />
<use xlink:href="#f6_dj" transform="matrix(14,0,0,14,193.1,254.8)" />
<use xlink:href="#f6_bb" transform="matrix(14,0,0,14,196.6,254.4)" />
<use xlink:href="#f6_c3" transform="matrix(14,0,0,14,214.9,254.4)" />
<use xlink:href="#f6_ct" transform="matrix(14,0,0,14,229.6,254.4)" />
<use xlink:href="#f6_l4" transform="matrix(14,0,0,14,235.2,254.4)" />
<use xlink:href="#f6_c0" transform="matrix(14,0,0,14,241.4,254.4)" />
<use xlink:href="#f6_d8" transform="matrix(14,0,0,14,254,254.4)" />
<use xlink:href="#f6_bg" transform="matrix(14,0,0,14,265.2,254.4)" />
<use xlink:href="#f6_cv" transform="matrix(14,0,0,14,279.5,254.4)" />
<use xlink:href="#f6_bz" transform="matrix(14,0,0,14,290.8,254.4)" />
<use xlink:href="#f6_bt" transform="matrix(14,0,0,14,304.1,254.4)" />
<use xlink:href="#f6_d4" transform="matrix(14,0,0,14,316,254.4)" />
<use xlink:href="#f6_b9" transform="matrix(14,0,0,14,321.5,254.4)" />
<use xlink:href="#f6_d8" transform="matrix(14,0,0,14,337,254.4)" />
<use xlink:href="#f6_ao" transform="matrix(14,0,0,14,342.6,254.4)" />
<use xlink:href="#f6_c3" transform="matrix(14,0,0,14,359.8,254.4)" />
<use xlink:href="#f6_ct" transform="matrix(14,0,0,14,374.5,254.4)" />
<use xlink:href="#f6_l4" transform="matrix(14,0,0,14,380.1,254.4)" />
<use xlink:href="#f6_c0" transform="matrix(14,0,0,14,386.3,254.4)" />
<use xlink:href="#f6_d8" transform="matrix(14,0,0,14,398.9,254.4)" />
<use xlink:href="#f6_g" transform="matrix(14,0,0,14,410.2,254.4)" />
<use xlink:href="#f6_n8" transform="matrix(14,0,0,14,416,254.4)" />
<use xlink:href="#f6_h" transform="matrix(14,0,0,14,426.4,254.4)" />
<use xlink:href="#f6_bz" transform="matrix(14,0,0,14,179.1,287.6)" />
<use xlink:href="#f6_bt" transform="matrix(14,0,0,14,192.4,287.6)" />
<use xlink:href="#f6_d4" transform="matrix(14,0,0,14,204.2,287.6)" />
<use xlink:href="#f6_bg" transform="matrix(14,0,0,14,209.8,287.6)" />
<use xlink:href="#f6_ct" transform="matrix(14,0,0,14,224,287.6)" />
<use xlink:href="#f6_bo" transform="matrix(14,0,0,14,229.7,287.6)" />
<use xlink:href="#f6_d8" transform="matrix(14,0,0,14,244,287.6)" />
<use xlink:href="#f6_c1" transform="matrix(14,0,0,14,255.3,287.6)" />
<use xlink:href="#f6_d4" transform="matrix(14,0,0,14,263.3,287.6)" />
<use xlink:href="#f6_g" transform="matrix(14,0,0,14,269.4,287.6)" />
<use xlink:href="#f6_n8" transform="matrix(14,0,0,14,275.2,287.6)" />
<use xlink:href="#f6_h" transform="matrix(14,0,0,14,285.6,287.6)" />
<use xlink:href="#f6_bt" transform="matrix(14,0,0,14,297.2,287.6)" />
<use xlink:href="#f6_ct" transform="matrix(14,0,0,14,308.9,287.6)" />
<use xlink:href="#f6_b9" transform="matrix(14,0,0,14,314.5,287.6)" />
<use xlink:href="#f6_d8" transform="matrix(14,0,0,14,330,287.6)" />
<use xlink:href="#f6_ch" transform="matrix(14,0,0,14,335.6,287.6)" />
<use xlink:href="#f6_ct" transform="matrix(14,0,0,14,348.3,287.6)" />
<use xlink:href="#f6_c7" transform="matrix(14,0,0,14,359.6,287.6)" />
<use xlink:href="#f6_ct" transform="matrix(14,0,0,14,371.7,287.6)" />
<use xlink:href="#f6_c3" transform="matrix(14,0,0,14,377.3,287.6)" />
<use xlink:href="#f6_ct" transform="matrix(14,0,0,14,392,287.6)" />
<use xlink:href="#f6_bs" transform="matrix(14,0,0,14,403.3,287.6)" />
<use xlink:href="#f6_ct" transform="matrix(14,0,0,14,417.3,287.6)" />
<use xlink:href="#f6_bz" transform="matrix(14,0,0,14,422.9,287.6)" />
<use xlink:href="#f6_k" transform="matrix(14,0,0,14,436.2,287.6)" />
<use xlink:href="#f6_bz" transform="matrix(14,0,0,14,159.6,320.8)" />
<use xlink:href="#f6_ct" transform="matrix(14,0,0,14,172.9,320.8)" />
<use xlink:href="#f6_c1" transform="matrix(14,0,0,14,178.5,320.8)" />
<use xlink:href="#f6_ct" transform="matrix(14,0,0,14,186.9,320.8)" />
<use xlink:href="#f6_cb" transform="matrix(14,0,0,14,198.2,320.8)" />
<use xlink:href="#f6_ct" transform="matrix(14,0,0,14,213.1,320.8)" />
<use xlink:href="#f6_cc" transform="matrix(14,0,0,14,218.7,320.8)" />
<use xlink:href="#f6_d4" transform="matrix(14,0,0,14,230.7,320.8)" />
<use xlink:href="#f6_bx" transform="matrix(14,0,0,14,230.3,320.8)" />
<use xlink:href="#f6_ct" transform="matrix(14,0,0,14,242.6,320.8)" />
<use xlink:href="#f6_c1" transform="matrix(14,0,0,14,253.9,320.8)" />
<use xlink:href="#f6_dj" transform="matrix(14,0,0,14,258.7,321.3)" />
<use xlink:href="#f6_bb" transform="matrix(14,0,0,14,262.3,320.8)" />
<use xlink:href="#f6_c3" transform="matrix(14,0,0,14,280.5,320.8)" />
<use xlink:href="#f6_ct" transform="matrix(14,0,0,14,295.3,320.8)" />
<use xlink:href="#f6_l4" transform="matrix(14,0,0,14,300.9,320.8)" />
<use xlink:href="#f6_c0" transform="matrix(14,0,0,14,307.1,320.8)" />
<use xlink:href="#f6_d8" transform="matrix(14,0,0,14,319.6,320.8)" />
<use xlink:href="#f6_pc" transform="matrix(14,0,0,14,325.2,320.8)" />
<use xlink:href="#f6_pc" transform="matrix(14,0,0,14,329.5,320.8)" />
<use xlink:href="#f6_pc" transform="matrix(14,0,0,14,333.8,320.8)" />
<use xlink:href="#f6_pc" transform="matrix(14,0,0,14,338.1,320.8)" />
<use xlink:href="#f6_c1" transform="matrix(14,0,0,14,342.3,320.8)" />
<use xlink:href="#f6_dj" transform="matrix(14,0,0,14,347.2,321.3)" />
<use xlink:href="#f6_bb" transform="matrix(14,0,0,14,350.7,320.8)" />
<use xlink:href="#f6_c3" transform="matrix(14,0,0,14,369,320.8)" />
<use xlink:href="#f6_ct" transform="matrix(14,0,0,14,383.7,320.8)" />
<use xlink:href="#f6_l4" transform="matrix(14,0,0,14,389.3,320.8)" />
<use xlink:href="#f6_c0" transform="matrix(14,0,0,14,395.5,320.8)" />
<use xlink:href="#f6_d8" transform="matrix(14,0,0,14,408.1,320.8)" />
<use xlink:href="#f6_bg" transform="matrix(14,0,0,14,419.4,320.8)" />
<use xlink:href="#f6_cv" transform="matrix(14,0,0,14,433.6,320.8)" />
<use xlink:href="#f6_pc" transform="matrix(14,0,0,14,439.2,320.8)" />
<use xlink:href="#f6_pc" transform="matrix(14,0,0,14,443.5,320.8)" />
<use xlink:href="#f6_pc" transform="matrix(14,0,0,14,447.8,320.8)" />
<use xlink:href="#f6_n7" transform="matrix(14,0,0,14,452.1,320.8)" />
<use xlink:href="#f6_bz" transform="matrix(14,0,0,14,190.5,379.3)" />
<use xlink:href="#f6_d4" transform="matrix(14,0,0,14,204,379.3)" />
<use xlink:href="#f6_c7" transform="matrix(14,0,0,14,203.9,379.3)" />
<use xlink:href="#f6_ct" transform="matrix(14,0,0,14,215.9,379.3)" />
<use xlink:href="#f6_bt" transform="matrix(14,0,0,14,227.2,379.3)" />
<use xlink:href="#f6_bb" transform="matrix(14,0,0,14,238.9,379.3)" />
<use xlink:href="#f6_c1" transform="matrix(14,0,0,14,251.5,379.3)" />
<use xlink:href="#f6_bz" transform="matrix(14,0,0,14,265.6,379.3)" />
<use xlink:href="#f6_oz" transform="matrix(14,0,0,14,279.1,379.3)" />
<use xlink:href="#f6_bq" transform="matrix(14,0,0,14,284.6,379.3)" />
<use xlink:href="#f6_d8" transform="matrix(14,0,0,14,297.8,379.3)" />
<use xlink:href="#f6_c1" transform="matrix(14,0,0,14,303.4,379.3)" />
<use xlink:href="#f6_d8" transform="matrix(14,0,0,14,311.8,379.3)" />
<use xlink:href="#f6_bx" transform="matrix(14,0,0,14,323.1,379.3)" />
<use xlink:href="#f6_d4" transform="matrix(14,0,0,14,335.5,379.3)" />
<use xlink:href="#f6_cb" transform="matrix(14,0,0,14,335.4,379.3)" />
<use xlink:href="#f6_bo" transform="matrix(14,0,0,14,350.2,379.3)" />
<use xlink:href="#f6_d8" transform="matrix(14,0,0,14,364.6,379.3)" />
<use xlink:href="#f6_c1" transform="matrix(14,0,0,14,375.9,379.3)" />
<use xlink:href="#f6_d4" transform="matrix(14,0,0,14,383.9,379.3)" />
<use xlink:href="#f6_br" transform="matrix(14,0,0,14,389.9,379.3)" />
<use xlink:href="#f6_ct" transform="matrix(14,0,0,14,401.6,379.3)" />
<use xlink:href="#f6_br" transform="matrix(14,0,0,14,407.2,379.3)" />
<use xlink:href="#f6_ct" transform="matrix(14,0,0,14,418.9,379.3)" />
<use xlink:href="#f6_k" transform="matrix(14,0,0,14,424.5,379.3)" />
<use xlink:href="#f6_bq" transform="matrix(14,0,0,14,203.1,412.5)" />
<use xlink:href="#f6_d4" transform="matrix(14,0,0,14,216.4,412.5)" />
<use xlink:href="#f6_bp" transform="matrix(14,0,0,14,222,412.5)" />
<use xlink:href="#f6_d8" transform="matrix(14,0,0,14,234.3,412.5)" />
<use xlink:href="#f6_bv" transform="matrix(14,0,0,14,245.6,412.5)" />
<use xlink:href="#f6_ct" transform="matrix(14,0,0,14,257.4,412.5)" />
<use xlink:href="#f6_nn" transform="matrix(14,0,0,14,263.1,412.5)" />
<use xlink:href="#f6_ke" transform="matrix(14,0,0,14,263.1,412.5)" />
<use xlink:href="#f6_dr" transform="matrix(14,0,0,14,277.3,412.5)" />
<use xlink:href="#f6_e6" transform="matrix(14,0,0,14,282.9,412.5)" />
<use xlink:href="#f6_by" transform="matrix(14,0,0,14,295,412.5)" />
<use xlink:href="#f6_cw" transform="matrix(14,0,0,14,309.5,412.4)" />
<use xlink:href="#f6_c1" transform="matrix(14,0,0,14,314.6,412.5)" />
<use xlink:href="#f6_ct" transform="matrix(14,0,0,14,323,412.5)" />
<use xlink:href="#f6_bc" transform="matrix(14,0,0,14,334.3,412.5)" />
<use xlink:href="#f6_bo" transform="matrix(14,0,0,14,348.2,412.5)" />
<use xlink:href="#f6_ct" transform="matrix(14,0,0,14,362.5,412.5)" />
<use xlink:href="#f6_c7" transform="matrix(14,0,0,14,373.8,412.5)" />
<use xlink:href="#f6_ct" transform="matrix(14,0,0,14,385.9,412.5)" />
<use xlink:href="#f6_c3" transform="matrix(14,0,0,14,391.5,412.5)" />
<use xlink:href="#f6_ct" transform="matrix(14,0,0,14,406.2,412.5)" />
<use xlink:href="#f6_k" transform="matrix(14,0,0,14,411.9,412.5)" />
<use xlink:href="#f6_bz" transform="matrix(14,0,0,14,159.6,445.7)" />
<use xlink:href="#f6_ct" transform="matrix(14,0,0,14,172.9,445.7)" />
<use xlink:href="#f6_c1" transform="matrix(14,0,0,14,178.5,445.7)" />
<use xlink:href="#f6_ct" transform="matrix(14,0,0,14,186.9,445.7)" />
<use xlink:href="#f6_cb" transform="matrix(14,0,0,14,198.2,445.7)" />
<use xlink:href="#f6_ct" transform="matrix(14,0,0,14,213.1,445.7)" />
<use xlink:href="#f6_cc" transform="matrix(14,0,0,14,218.7,445.7)" />
<use xlink:href="#f6_d4" transform="matrix(14,0,0,14,230.7,445.7)" />
<use xlink:href="#f6_bx" transform="matrix(14,0,0,14,230.3,445.7)" />
<use xlink:href="#f6_ct" transform="matrix(14,0,0,14,242.6,445.7)" />
<use xlink:href="#f6_c1" transform="matrix(14,0,0,14,253.9,445.7)" />
<use xlink:href="#f6_dj" transform="matrix(14,0,0,14,258.7,446.2)" />
<use xlink:href="#f6_bb" transform="matrix(14,0,0,14,262.3,445.7)" />
<use xlink:href="#f6_c3" transform="matrix(14,0,0,14,280.5,445.7)" />
<use xlink:href="#f6_ct" transform="matrix(14,0,0,14,295.3,445.7)" />
<use xlink:href="#f6_l4" transform="matrix(14,0,0,14,300.9,445.7)" />
<use xlink:href="#f6_c0" transform="matrix(14,0,0,14,307.1,445.7)" />
<use xlink:href="#f6_d8" transform="matrix(14,0,0,14,319.6,445.7)" />
<use xlink:href="#f6_pc" transform="matrix(14,0,0,14,325.2,445.7)" />
<use xlink:href="#f6_pc" transform="matrix(14,0,0,14,329.5,445.7)" />
<use xlink:href="#f6_pc" transform="matrix(14,0,0,14,333.8,445.7)" />
<use xlink:href="#f6_pc" transform="matrix(14,0,0,14,338.1,445.7)" />
<use xlink:href="#f6_c1" transform="matrix(14,0,0,14,342.3,445.7)" />
<use xlink:href="#f6_dj" transform="matrix(14,0,0,14,347.2,446.2)" />
<use xlink:href="#f6_bb" transform="matrix(14,0,0,14,350.7,445.7)" />
<use xlink:href="#f6_c3" transform="matrix(14,0,0,14,369,445.7)" />
<use xlink:href="#f6_ct" transform="matrix(14,0,0,14,383.7,445.7)" />
<use xlink:href="#f6_l4" transform="matrix(14,0,0,14,389.3,445.7)" />
<use xlink:href="#f6_c0" transform="matrix(14,0,0,14,395.5,445.7)" />
<use xlink:href="#f6_d8" transform="matrix(14,0,0,14,408.1,445.7)" />
<use xlink:href="#f6_bg" transform="matrix(14,0,0,14,419.4,445.7)" />
<use xlink:href="#f6_cv" transform="matrix(14,0,0,14,433.6,445.7)" />
<use xlink:href="#f6_pc" transform="matrix(14,0,0,14,439.2,445.7)" />
<use xlink:href="#f6_pc" transform="matrix(14,0,0,14,443.5,445.7)" />
<use xlink:href="#f6_pc" transform="matrix(14,0,0,14,447.8,445.7)" />
<use xlink:href="#f6_n8" transform="matrix(14,0,0,14,452.1,445.7)" />
<use xlink:href="#f6_bv" transform="matrix(14,0,0,14,193.9,504.2)" />
<use xlink:href="#f6_d8" transform="matrix(14,0,0,14,205.8,504.2)" />
<use xlink:href="#f6_ca" transform="matrix(14,0,0,14,211.4,504.2)" />
<use xlink:href="#f6_br" transform="matrix(14,0,0,14,229.4,504.2)" />
<use xlink:href="#f6_c8" transform="matrix(14,0,0,14,241.1,504.2)" />
<use xlink:href="#f6_bz" transform="matrix(14,0,0,14,256.9,504.2)" />
<use xlink:href="#f6_c1" transform="matrix(14,0,0,14,275.9,504.2)" />
<use xlink:href="#f6_d8" transform="matrix(14,0,0,14,284.3,504.2)" />
<use xlink:href="#f6_k" transform="matrix(14,0,0,14,289.9,504.2)" />
<use xlink:href="#f6_bz" transform="matrix(14,0,0,14,300.8,504.2)" />
<use xlink:href="#f6_d4" transform="matrix(14,0,0,14,314.3,504.2)" />
<use xlink:href="#f6_c3" transform="matrix(14,0,0,14,314.2,504.2)" />
<use xlink:href="#f6_d8" transform="matrix(14,0,0,14,328.9,504.2)" />
<use xlink:href="#f6_by" transform="matrix(14,0,0,14,340.1,504.2)" />
<use xlink:href="#f6_c1" transform="matrix(14,0,0,14,354.1,504.2)" />
<use xlink:href="#f6_cv" transform="matrix(14,0,0,14,362.5,504.2)" />
<use xlink:href="#f6_bg" transform="matrix(14,0,0,14,368.1,504.2)" />
<use xlink:href="#f6_d4" transform="matrix(14,0,0,14,382.5,504.2)" />
<use xlink:href="#f6_br" transform="matrix(14,0,0,14,388,504.2)" />
<use xlink:href="#f6_ct" transform="matrix(14,0,0,14,399.7,504.2)" />
<use xlink:href="#f6_br" transform="matrix(14,0,0,14,405.3,504.2)" />
<use xlink:href="#f6_ct" transform="matrix(14,0,0,14,417,504.2)" />
<use xlink:href="#f6_k" transform="matrix(14,0,0,14,422.6,504.2)" />
<use xlink:href="#f6_bq" transform="matrix(14,0,0,14,199.7,537.4)" />
<use xlink:href="#f6_d8" transform="matrix(14,0,0,14,212.9,537.4)" />
<use xlink:href="#f6_c1" transform="matrix(14,0,0,14,218.5,537.4)" />
<use xlink:href="#f6_ct" transform="matrix(14,0,0,14,226.9,537.4)" />
<use xlink:href="#f6_bz" transform="matrix(14,0,0,14,238.2,537.4)" />
<use xlink:href="#f6_d4" transform="matrix(14,0,0,14,251.6,537.4)" />
<use xlink:href="#f6_c3" transform="matrix(14,0,0,14,251.5,537.4)" />
<use xlink:href="#f6_ct" transform="matrix(14,0,0,14,266.2,537.4)" />
<use xlink:href="#f6_bz" transform="matrix(14,0,0,14,277.5,537.4)" />
<use xlink:href="#f6_oz" transform="matrix(14,0,0,14,291,537.4)" />
<use xlink:href="#f6_k" transform="matrix(14,0,0,14,290.8,537.4)" />
<use xlink:href="#f6_am" transform="matrix(14,0,0,14,301.7,537.4)" />
<use xlink:href="#f6_c7" transform="matrix(14,0,0,14,323.2,537.4)" />
<use xlink:href="#f6_d4" transform="matrix(14,0,0,14,335.4,537.4)" />
<use xlink:href="#f6_bt" transform="matrix(14,0,0,14,340.9,537.4)" />
<use xlink:href="#f6_c1" transform="matrix(14,0,0,14,352.7,537.4)" />
<use xlink:href="#f6_bt" transform="matrix(14,0,0,14,366.7,537.4)" />
<use xlink:href="#f6_d4" transform="matrix(14,0,0,14,378.5,537.4)" />
<use xlink:href="#f6_bt" transform="matrix(14,0,0,14,384.1,537.4)" />
<use xlink:href="#f6_ct" transform="matrix(14,0,0,14,395.8,537.4)" />
<use xlink:href="#f6_c1" transform="matrix(14,0,0,14,401.4,537.4)" />
<use xlink:href="#f6_cv" transform="matrix(14,0,0,14,409.8,537.4)" />
<use xlink:href="#f6_k" transform="matrix(14,0,0,14,415.4,537.4)" />
<use xlink:href="#f6_bz" transform="matrix(14,0,0,14,158.4,570.6)" />
<use xlink:href="#f6_ct" transform="matrix(14,0,0,14,171.8,570.6)" />
<use xlink:href="#f6_c1" transform="matrix(14,0,0,14,177.4,570.6)" />
<use xlink:href="#f6_ct" transform="matrix(14,0,0,14,185.8,570.6)" />
<use xlink:href="#f6_cb" transform="matrix(14,0,0,14,197.1,570.6)" />
<use xlink:href="#f6_ct" transform="matrix(14,0,0,14,211.9,570.6)" />
<use xlink:href="#f6_cc" transform="matrix(14,0,0,14,217.6,570.6)" />
<use xlink:href="#f6_d4" transform="matrix(14,0,0,14,229.5,570.6)" />
<use xlink:href="#f6_bx" transform="matrix(14,0,0,14,229.2,570.6)" />
<use xlink:href="#f6_ct" transform="matrix(14,0,0,14,241.5,570.6)" />
<use xlink:href="#f6_c1" transform="matrix(14,0,0,14,252.7,570.6)" />
<use xlink:href="#f6_dj" transform="matrix(14,0,0,14,257.6,571.1)" />
<use xlink:href="#f6_bb" transform="matrix(14,0,0,14,261.1,570.6)" />
<use xlink:href="#f6_c3" transform="matrix(14,0,0,14,279.4,570.6)" />
<use xlink:href="#f6_ct" transform="matrix(14,0,0,14,294.1,570.6)" />
<use xlink:href="#f6_l4" transform="matrix(14,0,0,14,299.7,570.6)" />
<use xlink:href="#f6_c0" transform="matrix(14,0,0,14,305.9,570.6)" />
<use xlink:href="#f6_d8" transform="matrix(14,0,0,14,318.5,570.6)" />
<use xlink:href="#f6_pc" transform="matrix(14,0,0,14,324.1,570.6)" />
<use xlink:href="#f6_pc" transform="matrix(14,0,0,14,328.4,570.6)" />
<use xlink:href="#f6_pc" transform="matrix(14,0,0,14,332.7,570.6)" />
<use xlink:href="#f6_pc" transform="matrix(14,0,0,14,336.9,570.6)" />
<use xlink:href="#f6_c1" transform="matrix(14,0,0,14,341.2,570.6)" />
<use xlink:href="#f6_dj" transform="matrix(14,0,0,14,346,571.1)" />
<use xlink:href="#f6_bb" transform="matrix(14,0,0,14,349.6,570.6)" />
<use xlink:href="#f6_c3" transform="matrix(14,0,0,14,367.9,570.6)" />
<use xlink:href="#f6_ct" transform="matrix(14,0,0,14,382.6,570.6)" />
<use xlink:href="#f6_l4" transform="matrix(14,0,0,14,388.2,570.6)" />
<use xlink:href="#f6_c0" transform="matrix(14,0,0,14,394.4,570.6)" />
<use xlink:href="#f6_d8" transform="matrix(14,0,0,14,406.9,570.6)" />
<use xlink:href="#f6_bg" transform="matrix(14,0,0,14,418.2,570.6)" />
<use xlink:href="#f6_cv" transform="matrix(14,0,0,14,432.5,570.6)" />
<use xlink:href="#f6_pc" transform="matrix(14,0,0,14,438.1,570.6)" />
<use xlink:href="#f6_pc" transform="matrix(14,0,0,14,442.4,570.6)" />
<use xlink:href="#f6_pc" transform="matrix(14,0,0,14,446.7,570.6)" />
<use xlink:href="#f6_n9" transform="matrix(14,0,0,14,450.9,570.6)" />
<use xlink:href="#f6_by" transform="matrix(14,0,0,14,196.2,629.1)" />
<use xlink:href="#f6_l1" transform="matrix(14,0,0,14,210.2,629.1)" />
<use xlink:href="#f6_bp" transform="matrix(14,0,0,14,222.1,629.1)" />
<use xlink:href="#f6_d8" transform="matrix(14,0,0,14,234.4,629.1)" />
<use xlink:href="#f6_dj" transform="matrix(14,0,0,14,238.7,629.9)" />
<use xlink:href="#f6_c1" transform="matrix(14,0,0,14,245.7,629.1)" />
<use xlink:href="#f6_ct" transform="matrix(14,0,0,14,254,629.1)" />
<use xlink:href="#f6_bq" transform="matrix(14,0,0,14,265.3,629.1)" />
<use xlink:href="#f6_d4" transform="matrix(14,0,0,14,278.7,629.1)" />
<use xlink:href="#f6_bp" transform="matrix(14,0,0,14,278.5,629.1)" />
<use xlink:href="#f6_d8" transform="matrix(14,0,0,14,290.8,629.1)" />
<use xlink:href="#f6_c3" transform="matrix(14,0,0,14,302.1,629.1)" />
<use xlink:href="#f6_ct" transform="matrix(14,0,0,14,316.8,629.1)" />
<use xlink:href="#f6_ch" transform="matrix(14,0,0,14,322.5,629.1)" />
<use xlink:href="#f6_b9" transform="matrix(14,0,0,14,335.1,629.1)" />
<use xlink:href="#f6_ct" transform="matrix(14,0,0,14,350.6,629.1)" />
<use xlink:href="#f6_cc" transform="matrix(14,0,0,14,361.9,629.1)" />
<use xlink:href="#f6_d8" transform="matrix(14,0,0,14,373.5,629.1)" />
<use xlink:href="#f6_br" transform="matrix(14,0,0,14,384.8,629.1)" />
<use xlink:href="#f6_ct" transform="matrix(14,0,0,14,396.5,629.1)" />
<use xlink:href="#f6_br" transform="matrix(14,0,0,14,402.1,629.1)" />
<use xlink:href="#f6_ct" transform="matrix(14,0,0,14,413.8,629.1)" />
<use xlink:href="#f6_k" transform="matrix(14,0,0,14,419.4,629.1)" />
<use xlink:href="#f6_bq" transform="matrix(14,0,0,14,208.8,662.3)" />
<use xlink:href="#f6_d8" transform="matrix(14,0,0,14,222,662.3)" />
<use xlink:href="#f6_c1" transform="matrix(14,0,0,14,227.7,662.3)" />
<use xlink:href="#f6_ct" transform="matrix(14,0,0,14,236,662.3)" />
<use xlink:href="#f6_by" transform="matrix(14,0,0,14,247.3,662.3)" />
<use xlink:href="#f6_l1" transform="matrix(14,0,0,14,261.3,662.3)" />
<use xlink:href="#f6_bp" transform="matrix(14,0,0,14,273.1,662.3)" />
<use xlink:href="#f6_bb" transform="matrix(14,0,0,14,291.1,662.3)" />
<use xlink:href="#f6_ct" transform="matrix(14,0,0,14,303.7,662.3)" />
<use xlink:href="#f6_c7" transform="matrix(14,0,0,14,309.4,662.3)" />
<use xlink:href="#f6_d4" transform="matrix(14,0,0,14,321.6,662.3)" />
<use xlink:href="#f6_cc" transform="matrix(14,0,0,14,327.1,662.3)" />
<use xlink:href="#f6_d4" transform="matrix(14,0,0,14,339.1,662.3)" />
<use xlink:href="#f6_bb" transform="matrix(14,0,0,14,344.4,662.3)" />
<use xlink:href="#f6_cw" transform="matrix(14,0,0,14,357.5,662.2)" />
<use xlink:href="#f6_bo" transform="matrix(14,0,0,14,357,662.3)" />
<use xlink:href="#f6_bb" transform="matrix(14,0,0,14,377,662.3)" />
<use xlink:href="#f6_ct" transform="matrix(14,0,0,14,389.6,662.3)" />
<use xlink:href="#f6_bt" transform="matrix(14,0,0,14,395.3,662.3)" />
<use xlink:href="#f6_k" transform="matrix(14,0,0,14,407,662.3)" />
<use xlink:href="#f6_bz" transform="matrix(14,0,0,14,158.4,695.5)" />
<use xlink:href="#f6_ct" transform="matrix(14,0,0,14,171.8,695.5)" />
<use xlink:href="#f6_c1" transform="matrix(14,0,0,14,177.4,695.5)" />
<use xlink:href="#f6_ct" transform="matrix(14,0,0,14,185.8,695.5)" />
<use xlink:href="#f6_cb" transform="matrix(14,0,0,14,197.1,695.5)" />
<use xlink:href="#f6_ct" transform="matrix(14,0,0,14,211.9,695.5)" />
<use xlink:href="#f6_cc" transform="matrix(14,0,0,14,217.6,695.5)" />
<use xlink:href="#f6_d4" transform="matrix(14,0,0,14,229.5,695.5)" />
<use xlink:href="#f6_bx" transform="matrix(14,0,0,14,229.2,695.5)" />
<use xlink:href="#f6_ct" transform="matrix(14,0,0,14,241.5,695.5)" />
<use xlink:href="#f6_c1" transform="matrix(14,0,0,14,252.7,695.5)" />
<use xlink:href="#f6_dj" transform="matrix(14,0,0,14,257.6,695.9)" />
<use xlink:href="#f6_bb" transform="matrix(14,0,0,14,261.1,695.5)" />
<use xlink:href="#f6_c3" transform="matrix(14,0,0,14,279.4,695.5)" />
<use xlink:href="#f6_ct" transform="matrix(14,0,0,14,294.1,695.5)" />
<use xlink:href="#f6_l4" transform="matrix(14,0,0,14,299.7,695.5)" />
<use xlink:href="#f6_c0" transform="matrix(14,0,0,14,305.9,695.5)" />
<use xlink:href="#f6_d8" transform="matrix(14,0,0,14,318.5,695.5)" />
<use xlink:href="#f6_pc" transform="matrix(14,0,0,14,324.1,695.5)" />
<use xlink:href="#f6_pc" transform="matrix(14,0,0,14,328.4,695.5)" />
<use xlink:href="#f6_pc" transform="matrix(14,0,0,14,332.7,695.5)" />
<use xlink:href="#f6_pc" transform="matrix(14,0,0,14,336.9,695.5)" />
<use xlink:href="#f6_c1" transform="matrix(14,0,0,14,341.2,695.5)" />
<use xlink:href="#f6_dj" transform="matrix(14,0,0,14,346,695.9)" />
<use xlink:href="#f6_bb" transform="matrix(14,0,0,14,349.6,695.5)" />
<use xlink:href="#f6_c3" transform="matrix(14,0,0,14,367.9,695.5)" />
<use xlink:href="#f6_ct" transform="matrix(14,0,0,14,382.6,695.5)" />
<use xlink:href="#f6_l4" transform="matrix(14,0,0,14,388.2,695.5)" />
<use xlink:href="#f6_c0" transform="matrix(14,0,0,14,394.4,695.5)" />
<use xlink:href="#f6_d8" transform="matrix(14,0,0,14,406.9,695.5)" />
<use xlink:href="#f6_bg" transform="matrix(14,0,0,14,418.2,695.5)" />
<use xlink:href="#f6_cv" transform="matrix(14,0,0,14,432.5,695.5)" />
<use xlink:href="#f6_pc" transform="matrix(14,0,0,14,438.1,695.5)" />
<use xlink:href="#f6_pc" transform="matrix(14,0,0,14,442.4,695.5)" />
<use xlink:href="#f6_pc" transform="matrix(14,0,0,14,446.7,695.5)" />
<use xlink:href="#f6_na" transform="matrix(14,0,0,14,450.9,695.5)" />
<use xlink:href="#f7_4r" transform="matrix(9,0,0,9,290.2,795.2)" />
<use xlink:href="#f8_s" transform="matrix(9,0,0,9,303,795.2)" />
<use xlink:href="#f8_p" transform="matrix(9,0,0,9,310.7,795.2)" />
<use xlink:href="#f7_4r" transform="matrix(9,0,0,9,321.3,795.2)" />
</g>
</g>
<image preserveAspectRatio="none" x="22" y="801" width="581" height="86" xlink:href="img/1.png"/>
<path d="M256.7,97.4H365.5v1.1H256.7V97.4Z" class="g1_91"/>
<image preserveAspectRatio="none" x="202" y="14" width="217" height="26" xlink:href="img/2.png"/>
<defs>
<path d="M545,-97L35,405L87,542H295c0,0,1,5,1,280H0L-86,937l32,64H729L814,886L782,822H445L550,749V547c0,0,0,-75,-41,-127c0,0,-41,-52,-129,-111L709,110V41L545,-97Z"
id="f5_c1"
transform="scale(0.001,-0.001)"/>

<path d="M0,1102c0,0,-40,16,-91,55c0,0,-52,39,-79,76c0,0,59,119,137,165c0,0,42,-15,89,-54c0,0,46,-39,74,-76c0,0,-17,-44,-54,-92c0,0,-38,-48,-76,-74Z"
id="f5_dj"
transform="scale(0.001,-0.001)"/>

<path d="M831,-65L657,29V822H332L434,749V200L341,150c0,0,-93,32,-190,121c0,0,-96,90,-125,175l52,83H196l-5,293H0L-86,937l32,64H1016l86,-115l-33,-64H799L901,749V-31L831,-65Z"
id="f5_bb"
transform="scale(0.001,-0.001)"/>

<path d="M472,-77C472,-77,28,171,28,448c0,0,0,116,77,191c0,0,77,74,188,74c0,0,51,0,95,-18L527,574c0,0,104,114,277,117V822H0L-86,937l32,64H1164l86,-115l-32,-64H946l102,-73V-31L978,-65L804,29V526c0,0,-130,-78,-133,-294L611,196L431,309c0,0,0,97,33,174c0,0,-22,10,-53,10c0,0,-52,0,-90,-36c0,0,-38,-37,-38,-99c0,0,0,-80,68,-150c0,0,69,-70,214,-161L472,-77Z"
id="f5_c3"
transform="scale(0.001,-0.001)"/>

<path d="M277,-65L102,29V822H0L-86,937l32,64H463L548,886L516,822H244L347,749V-31L277,-65Z"
id="f5_ct"
transform="scale(0.001,-0.001)"/>

<path d="M341,150c0,0,-93,32,-190,121c0,0,-96,90,-125,175l52,83H196l-5,293H0L-86,937l32,64H558L643,886L611,822H332L434,749V200L341,150Z"
id="f5_l4"
transform="scale(0.001,-0.001)"/>

<path d="M368,290c0,0,83,0,161,44c0,0,78,43,116,117V822H382c0,0,136,-107,136,-225c0,0,0,-74,-55,-131c0,0,-55,-57,-165,-83c0,0,15,-48,44,-91l26,-2ZM819,-65L645,29V139c0,0,-60,-31,-130,-31c0,0,-145,0,-279,109c0,0,-134,108,-208,287l29,78c0,0,128,15,181,43c0,0,54,27,54,73c0,0,0,61,-96,124H0L-86,937l32,64H1004l87,-115l-32,-64H787L889,749V-31L819,-65Z"
id="f5_c0"
transform="scale(0.001,-0.001)"/>

<path d="M277,-65L102,29V822H0L-86,937l32,64H86L18,1111c0,0,-67,122,-168,122c0,0,-81,0,-202,-80l-128,250c0,0,122,77,232,77c0,0,196,0,356,-250L252,1001H463L548,886L516,822H244L347,749V-31L277,-65Z"
id="f5_d8"
transform="scale(0.001,-0.001)"/>

<path d="M952,-65L778,29V474H600c0,0,94,-91,94,-202c0,0,0,-98,-66,-163c0,0,-66,-65,-171,-65c0,0,-165,0,-280,155C177,199,63,354,-7,616l152,50c0,0,67,-223,120,-299c0,0,53,-77,122,-77c0,0,47,0,73,29c0,0,26,28,26,71c0,0,0,79,-73,128L298,559V681H778V822H0L-86,937l32,64H1137l85,-115l-32,-64H920l102,-73V-31L952,-65Z"
id="f5_bg"
transform="scale(0.001,-0.001)"/>

<path d="M277,-65L102,29V822H0L-86,937l32,64H110c0,0,-50,142,-110,226c0,0,-60,84,-149,84c0,0,-59,0,-97,-37c0,0,-39,-36,-39,-91c0,0,0,-57,42,-115l-95,-50c0,0,-145,116,-145,267c0,0,0,108,75,179c0,0,76,70,195,70c0,0,179,0,297,-150c0,0,119,-150,189,-383H463L548,886L516,822H244L347,749V-31L277,-65Z"
id="f5_cv"
transform="scale(0.001,-0.001)"/>

<path d="M827,-49L736,8V205c0,0,-84,-84,-209,-84c0,0,-130,0,-237,91c0,0,-108,92,-108,196c0,0,0,79,61,137C243,545,66,672,66,791c0,0,0,75,52,124c0,0,53,49,134,49c0,0,164,0,260,-237L451,694c0,0,-55,114,-119,163l-31,5c0,0,-44,0,-77,-32c0,0,-33,-31,-33,-78c0,0,0,-86,113,-165c0,0,60,27,133,27l67,-4l75,-89L564,490l-51,7H493c0,0,-90,0,-142,-43c0,0,-52,-43,-52,-104c0,0,0,-60,51,-109c0,0,33,-16,84,-16c0,0,89,0,177,47c0,0,89,47,125,137V822H567l-46,76l14,31h466l46,-76l-14,-31H798l65,-58V-39L827,-49Z"
id="f6_bs"
transform="scale(0.001,-0.001)"/>

<path d="M689,445V822H286l65,-58l8,-319ZM779,-49L689,8V328H370V180L296,150c0,0,-56,35,-120,104c0,0,-63,70,-89,131l41,60H238L223,822H0l-45,76l14,31H953l46,-76L985,822H750l66,-58V-39L779,-49Z"
id="f6_bz"
transform="scale(0.001,-0.001)"/>

<path d="M283,260c0,0,122,0,209,113V513c0,0,-90,51,-160,51c0,0,-80,0,-129,-50c0,0,-49,-50,-49,-118c0,0,0,-60,35,-110c0,0,45,-26,94,-26ZM582,-49L492,8V211c0,0,-63,-54,-141,-54c0,0,-113,0,-213,92c0,0,-100,92,-100,205c0,0,0,93,69,157c0,0,69,64,162,64c0,0,32,0,64,-9L492,590V822H0l-45,76l14,31H1108l45,-76l-13,-31H553l66,-58V524c0,0,91,89,192,89c0,0,98,0,171,-79c0,0,72,-79,72,-186c0,0,0,-178,-224,-330L736,124c0,0,219,153,219,269c0,0,0,44,-26,75c0,0,-26,32,-81,32c0,0,-109,0,-229,-155V-39L582,-49Z"
id="f6_b9"
transform="scale(0.001,-0.001)"/>

<path d="M-214,863l-199,281c0,0,-70,92,-157,92c0,0,-69,0,-159,-58l-72,118c0,0,89,73,180,73c0,0,141,0,258,-170L-155,901l-59,-38Z"
id="f6_d4"
transform="scale(0.001,-0.001)"/>

<path d="M388,325c0,0,58,0,112,31c0,0,53,31,84,86V822H165l69,-58V408c0,0,47,-83,154,-83ZM674,-49L584,8V257c0,0,-61,-51,-141,-51c0,0,-125,0,-232,109c0,0,-107,108,-107,243V822H0l-45,76l14,31H848l46,-76L880,822H645l65,-58V-39L674,-49Z"
id="f6_bv"
transform="scale(0.001,-0.001)"/>

<path d="M727,-49L637,8V822H278l66,-58V226L270,196c0,0,-64,36,-122,98c0,0,-58,62,-79,122l43,59H217V822H0l-45,76l14,31H901l46,-76L933,822H698l66,-58V-39L727,-49Z"
id="f6_bb"
transform="scale(0.001,-0.001)"/>

<path d="M-91,1001c0,0,-27,10,-61,36c0,0,-33,26,-50,49c0,0,38,81,90,110c0,0,61,-23,107,-85c0,0,-28,-71,-86,-110ZM-214,863l-199,281c0,0,-70,92,-157,92c0,0,-69,0,-159,-58l-72,118c0,0,89,73,180,73c0,0,141,0,258,-170L-155,901l-59,-38Z"
id="f6_oz"
transform="scale(0.001,-0.001)"/>

<path d="M434,225c0,0,84,0,169,42c0,0,85,43,126,126V822H267c0,0,-64,-49,-64,-115c0,0,0,-79,90,-126c0,0,60,35,144,35l67,-6l75,-89L564,490l-51,7H493c0,0,-90,0,-142,-43c0,0,-52,-43,-52,-104c0,0,0,-60,51,-109c0,0,33,-16,84,-16ZM819,-49L729,8V197c0,0,-83,-76,-202,-76c0,0,-130,0,-237,91c0,0,-108,92,-108,196c0,0,0,72,53,128c0,0,-75,42,-115,97c0,0,-41,56,-41,113c0,0,0,38,22,76H0l-45,76l14,31H993l46,-76l-14,-31H790l66,-58V-39L819,-49Z"
id="f6_bc"
transform="scale(0.001,-0.001)"/>

<path d="M-234,-413c0,0,-210,0,-488,322l54,49c0,0,119,-128,209,-193c0,0,90,-65,177,-65c0,0,72,0,113,40c0,0,42,39,42,91c0,0,0,75,-78,106L-323,-181l-90,98c0,0,63,95,167,95c0,0,90,0,155,-69c0,0,66,-70,66,-164c0,0,0,-85,-60,-139c0,0,-61,-53,-149,-53Z"
id="f6_cw"
transform="scale(0.001,-0.001)"/>

<path d="M527,-71L52,414l34,92H277c0,0,12,32,12,72V822H0l-45,76l14,31H599l46,-76L631,822H350l66,-55V564c0,0,0,-96,-152,-248L610,34L611,8L527,-71Z"
id="f6_c1"
transform="scale(0.001,-0.001)"/>

<path d="M228,-49L138,8V822H0l-45,76l14,31H402l46,-76L434,822H199l65,-58V-39L228,-49Z"
id="f6_ct"
transform="scale(0.001,-0.001)"/>

<path d="M108,-222l-44,58c0,0,96,81,104,164L89,61c0,0,12,83,93,122c0,0,50,-15,79,-55c0,0,29,-39,29,-90c0,0,0,-69,-48,-142c0,0,-48,-72,-134,-118Z"
id="f6_k"
transform="scale(0.001,-0.001)"/>

<path d="M548,-57c0,0,-122,0,-243,81c0,0,-122,81,-252,280l57,41C110,345,283,64,498,64c0,0,92,0,153,49c0,0,61,49,61,121c0,0,0,46,-28,84L440,237c0,0,-73,11,-139,55c0,0,-66,44,-105,105c0,0,-40,61,-40,119c0,0,0,72,62,125c0,0,62,53,184,53H625V822H0l-45,76l14,31H906l46,-76L938,822H678l66,-58V562H431c0,0,-164,0,-164,-99c0,0,0,-55,57,-102l261,82c0,0,104,-21,172,-98c0,0,68,-78,68,-171c0,0,0,-99,-76,-166c0,0,-77,-65,-201,-65Z"
id="f6_bm"
transform="scale(0.001,-0.001)"/>

<path d="M527,-71L52,414l34,92H277c0,0,12,32,12,72V822H0l-45,76l14,31H940l45,-76L972,822H350l66,-55V570c0,0,146,98,247,98c0,0,95,0,167,-73c0,0,71,-72,71,-167c0,0,0,-77,-53,-142c0,0,-54,-64,-159,-136l-89,99c0,0,100,70,152,121c0,0,52,52,52,105c0,0,0,34,-23,60c0,0,-22,26,-72,26c0,0,-139,0,-434,-252L610,34L611,8L527,-71Z"
id="f6_n0"
transform="scale(0.001,-0.001)"/>

<path d="M348,229c0,0,57,0,106,17L263,559c0,0,-95,-50,-95,-162c0,0,0,-75,52,-136c0,0,49,-32,128,-32Zm170,48c0,0,61,38,96,91V504c0,0,-131,80,-244,80l-35,-2L518,277ZM704,-49L614,8V193c0,0,-84,-65,-192,-65c0,0,-139,0,-255,98c0,0,-115,98,-115,226c0,0,0,106,77,175c0,0,77,70,189,70c0,0,38,0,75,-9L614,578V822H0l-45,76l14,31H878l46,-76L911,822H675l66,-58V-39L704,-49Z"
id="f6_bx"
transform="scale(0.001,-0.001)"/>

<path d="M845,-49L755,8V513H497c0,0,61,-45,93,-110c0,0,33,-64,33,-128c0,0,0,-90,-58,-144c0,0,-59,-53,-143,-53c0,0,-133,0,-234,139C188,217,87,356,20,596l76,24c0,0,60,-201,127,-306c0,0,67,-105,160,-105c0,0,57,0,91,36c0,0,33,36,33,91c0,0,0,84,-73,159L295,558v71H755V822H0l-45,76l14,31H1019l46,-76l-14,-31H816l66,-58V-39L845,-49Z"
id="f6_bg"
transform="scale(0.001,-0.001)"/>

<path d="M688,-243c0,0,-256,53,-408,173c0,0,-152,119,-152,270c0,0,0,101,68,171c0,0,-101,84,-101,179c0,0,0,64,53,112c0,0,54,47,191,47H587V822H0l-45,76l14,31H830l45,-76L862,822H640l66,-58V585H362c0,0,-159,-1,-159,-92c0,0,0,-41,46,-80c0,0,76,47,183,47c0,0,135,0,230,-76c0,0,96,-75,96,-187C758,197,758,67,629,2L545,104c0,0,49,30,81,75c0,0,32,44,32,82c0,0,0,16,-4,26c0,0,-64,58,-167,58c0,0,-97,0,-166,-50v-2c0,0,-67,-52,-67,-131c0,0,0,-116,132,-199c0,0,132,-84,334,-132l-32,-74Z"
id="f6_cc"
transform="scale(0.001,-0.001)"/>

<path d="M0,822l-45,76l14,31H61l46,-76L93,822Z"
id="f6_no"
transform="scale(0.001,-0.001)"/>

<path d="M768,-49L678,8V202c0,0,-73,-58,-172,-58c0,0,-123,0,-240,94c0,0,-118,94,-179,237l20,55c0,0,134,12,215,70c0,0,81,57,81,141c0,0,0,90,-67,134l-26,3c0,0,-46,0,-74,-29c0,0,-28,-30,-28,-68c0,0,0,-55,82,-109L252,620C252,620,93,720,93,820c0,0,0,65,47,104c0,0,46,40,114,40c0,0,99,0,179,-83c0,0,80,-83,82,-197c0,0,0,-93,-79,-165c0,0,-78,-73,-199,-97c0,0,29,-104,88,-158c0,0,42,-16,92,-16c0,0,78,0,151,38c0,0,74,38,110,111V822H553l-46,76l14,31H943l45,-76L975,822H739l66,-58V-39L768,-49Z"
id="f6_bq"
transform="scale(0.001,-0.001)"/>

<path d="M663,-49L573,8V445H299V280L226,251c0,0,-105,99,-162,238l63,72H573V822H0l-45,76l14,31H837l46,-76L869,822H634l66,-58V-39L663,-49Z"
id="f6_bt"
transform="scale(0.001,-0.001)"/>

<path d="M228,-49L138,8V822H0l-45,76l14,31H119L-33,1144c0,0,-70,92,-157,92c0,0,-69,0,-159,-58l-72,118c0,0,89,73,181,73c0,0,140,0,257,-170L205,929H402l46,-76L434,822H199l65,-58V-39L228,-49Z"
id="f6_d8"
transform="scale(0.001,-0.001)"/>

<path d="M547,-285c0,0,-66,25,-102,80c0,0,32,69,82,101c0,0,55,-20,99,-80c0,0,-26,-67,-79,-101Zm1,228c0,0,-122,0,-243,81c0,0,-122,81,-252,280l57,41C110,345,283,64,498,64c0,0,92,0,153,49c0,0,61,49,61,121c0,0,0,46,-28,84L440,237c0,0,-73,11,-139,55c0,0,-66,44,-105,105c0,0,-40,61,-40,119c0,0,0,72,62,125c0,0,62,53,184,53H625V822H0l-45,76l14,31H906l46,-76L938,822H678l66,-58V562H431c0,0,-164,0,-164,-99c0,0,0,-55,57,-102l261,82c0,0,104,-21,172,-98c0,0,68,-78,68,-171c0,0,0,-99,-76,-166c0,0,-77,-65,-201,-65Z"
id="f6_ch"
transform="scale(0.001,-0.001)"/>

<path d="M675,-274L602,21C602,21,550,3,498,3C498,3,347,3,210,118C210,118,73,232,73,373c0,0,0,113,84,184c0,0,84,71,222,72H524V822H0l-45,76l14,31H834l46,-76L866,822H585l66,-58V504l-3,2l3,-3H408c0,0,-95,0,-154,-53c0,0,-58,-53,-58,-132c0,0,0,-49,27,-100c0,0,28,-50,83,-84c0,0,44,-15,96,-15c0,0,91,0,160,46L535,303l101,48L773,188c0,0,-8,-28,-34,-66c0,0,-27,-38,-62,-64L813,-221L675,-274Z"
id="f6_br"
transform="scale(0.001,-0.001)"/>

<path d="M325,240c0,0,77,0,154,35c0,0,77,35,120,99V500c0,0,-118,73,-222,73c0,0,-97,0,-151,-54c0,0,-53,-53,-53,-128c0,0,0,-73,49,-125c0,0,38,-26,103,-26ZM689,-49L599,8V199c0,0,-73,-65,-179,-65c0,0,-134,0,-252,96c0,0,-118,95,-118,221c0,0,0,102,78,171c0,0,78,69,190,69c0,0,38,0,75,-10L599,582V822H0l-45,76l14,31H863l46,-76L895,822H660l66,-58V-39L689,-49Z"
id="f6_c7"
transform="scale(0.001,-0.001)"/>

<path d="M347,-57C347,-57,66,211,66,394c0,0,0,98,74,164c0,0,74,65,225,65H616V822H0l-45,76l14,31H880l46,-76L912,822H677l66,-58V-39L706,-49L616,8V500H428c0,0,-239,0,-239,-161c0,0,0,-136,214,-343L347,-57Z"
id="f6_bp"
transform="scale(0.001,-0.001)"/>

<path d="M0,1062c0,0,-26,11,-60,36c0,0,-34,26,-51,49c0,0,39,81,91,110c0,0,60,-23,106,-85c0,0,-28,-70,-86,-110Z"
id="f6_dj"
transform="scale(0.001,-0.001)"/>

<path d="M413,-59C413,-59,53,193,53,416c0,0,0,97,66,164c0,0,66,66,156,66c0,0,61,0,110,-30L487,507c0,0,92,126,257,126l35,-2V822H0l-45,76l14,31H1043l46,-76l-13,-31H840l66,-58V-39L869,-49L779,8V547c0,0,-101,-5,-165,-90c0,0,-64,-86,-70,-222L507,225l-90,73c0,0,5,79,35,151c0,0,-59,66,-128,66c0,0,-57,0,-100,-38c0,0,-44,-39,-44,-109c0,0,0,-165,284,-360L413,-59Z"
id="f6_c3"
transform="scale(0.001,-0.001)"/>

<path d="M270,196c0,0,-64,36,-122,98c0,0,-58,62,-79,122l43,59H217V822H0l-45,76l14,31H489l46,-76L521,822H278l66,-58V226L270,196Z"
id="f6_l4"
transform="scale(0.001,-0.001)"/>

<path d="M374,248c0,0,77,0,149,36c0,0,71,37,110,107V822H284c0,0,138,-96,138,-208c0,0,0,-151,-228,-192c0,0,29,-104,89,-158c0,0,41,-16,91,-16ZM723,-49L633,8V200c0,0,-69,-56,-170,-56c0,0,-122,0,-240,94c0,0,-118,94,-179,237l20,55c0,0,133,17,187,44c0,0,55,28,55,84c0,0,0,45,-30,81c0,0,-30,36,-99,83H0l-45,76l14,31H897l46,-76L929,822H694l65,-58V-39L723,-49Z"
id="f6_c0"
transform="scale(0.001,-0.001)"/>

<path d="M823,-49L733,8V339H445V191L371,160c0,0,-56,36,-120,105c0,0,-63,70,-89,131l41,59H313V735c0,0,0,99,-55,140c0,0,-3,1,-8,1c-16,0,-48,-3,-71,-23c0,0,-31,-26,-31,-66c0,0,0,-69,81,-113L189,620C189,620,31,720,31,828c0,0,0,61,45,99c0,0,46,37,109,37c0,0,96,0,173,-86c0,0,76,-87,79,-194V455H733V822H556l-46,76l14,31H998l45,-76l-13,-31H794l66,-58V-39L823,-49Z"
id="f6_by"
transform="scale(0.001,-0.001)"/>

<path d="M-214,860l-227,219c0,0,-73,70,-148,70c0,0,-67,0,-160,-58l-72,117c0,0,83,71,176,71c0,0,120,0,232,-124L-221,940l-102,294c0,0,-64,179,-189,179c0,0,-60,0,-133,-33l-60,125c0,0,84,47,164,47c0,0,200,0,281,-276L-150,901l-23,-15l-41,-26Z"
id="f6_d5"
transform="scale(0.001,-0.001)"/>

<path d="M226,-49c0,0,-66,24,-102,78c0,0,32,69,82,101c0,0,55,-20,100,-80c0,0,-26,-66,-80,-99Z"
id="f6_pc"
transform="scale(0.001,-0.001)"/>

<path d="M959,-49L869,8V367c0,0,-32,-13,-64,-13c0,0,-50,0,-110,25c0,0,23,-52,23,-109c0,0,0,-103,-70,-170c0,0,-70,-66,-182,-66c0,0,-110,0,-222,82c0,0,-111,83,-213,293l68,42c0,0,72,-155,152,-231c0,0,81,-76,178,-76c0,0,83,0,131,49c0,0,48,48,48,117c0,0,0,54,-30,100c0,0,-31,47,-91,65L325,391L257,512c0,0,68,53,156,56c0,0,140,72,140,179c0,0,0,69,-52,99c0,0,-4,1,-11,1c-19,0,-66,-4,-123,-30c0,0,-78,-35,-142,-96L150,823c0,0,119,117,253,117c0,0,98,0,175,-71c0,0,77,-70,77,-159c0,0,0,-103,-94,-180c0,0,39,-23,73,-56c0,0,52,-22,109,-22c0,0,77,0,126,38V822H727l-46,76l14,31h439l45,-76l-13,-31H930l66,-58V-39L959,-49Z"
id="f6_al"
transform="scale(0.001,-0.001)"/>

<path d="M180,220c0,0,-105,99,-162,238l63,72H556l40,-85L574,414H254V249L180,220ZM0,822l-45,76l14,31H471l45,-76L503,822Z"
id="f6_li"
transform="scale(0.001,-0.001)"/>

<path d="M228,-49L138,8V822H0l-45,76l14,31H138c0,0,-109,342,-284,342c0,0,-62,0,-102,-40c0,0,-40,-39,-40,-93c0,0,0,-61,51,-134l-42,-32c0,0,-128,113,-128,226c0,0,0,79,60,136c0,0,61,56,154,56c0,0,137,0,249,-125c0,0,112,-125,169,-336H402l46,-76L434,822H199l65,-58V-39L228,-49Z"
id="f6_cv"
transform="scale(0.001,-0.001)"/>

<path d="M483,-305L295,-10c0,0,-90,22,-156,74l41,170h66L351,63c0,0,126,4,207,62c0,0,82,58,82,139c0,0,0,37,-18,71L365,266c0,0,-110,15,-197,102c0,0,-87,87,-87,176c0,0,0,69,59,117c0,0,59,48,172,48H550V822H0l-45,76l14,31H550c0,0,-142,122,-142,255c0,0,0,78,52,133c0,0,52,55,140,55c0,0,98,0,176,-64l-23,-69c0,0,-53,32,-104,32c0,0,-56,0,-94,-36c0,0,-39,-36,-39,-95c0,0,0,-109,112,-211H822l46,-76L854,822H603l66,-58V585H373c0,0,-184,0,-184,-99c0,0,0,-48,63,-101l310,78c0,0,86,-34,141,-99c0,0,55,-65,55,-142c0,0,0,-109,-98,-179c0,0,-98,-69,-254,-69L599,-216L483,-305Z"
id="f6_ao"
transform="scale(0.001,-0.001)"/>

<path d="M290,-236c0,0,-253,348,-253,685c0,0,0,342,270,669l80,-39c0,0,-207,-311,-207,-622c0,0,0,-326,193,-652l-83,-41Z"
id="f6_g"
transform="scale(0.001,-0.001)"/>

<path d="M634,-49L249,296c0,0,-1,0,-3,0c-11,0,-48,1,-90,15c0,0,-51,16,-67,36l49,165l50,12l84,-98c0,0,125,31,191,104c0,0,66,73,66,165c0,0,0,109,-95,170c0,0,-2,0,-6,0C397,865,262,858,121,738L46,848c0,0,52,47,127,82c0,0,75,34,152,34c0,0,130,0,226,-94c0,0,95,-94,95,-218c0,0,0,-107,-77,-199c0,0,-77,-92,-216,-134L697,26L698,0L634,-49Z"
id="f6_n8"
transform="scale(0.001,-0.001)"/>

<path d="M130,-236l-83,41c0,0,193,326,193,652c0,0,0,311,-206,622l79,39c0,0,270,-327,270,-669c0,0,0,-337,-253,-685Z"
id="f6_h"
transform="scale(0.001,-0.001)"/>

<path d="M342,324c0,0,45,0,75,34c0,0,31,33,31,100V822H165l66,-58V390c0,0,32,-66,111,-66ZM853,-49L762,8V822H509l65,-58V455c0,0,0,-134,-51,-185c0,0,-52,-52,-127,-52c0,0,-98,0,-195,99c0,0,-97,99,-97,209V822H0l-45,76l14,31H1027l46,-76l-14,-31H823l66,-58V-39L853,-49Z"
id="f6_bo"
transform="scale(0.001,-0.001)"/>

<path d="M799,475V822H350l66,-55V564c0,0,0,-43,-25,-89ZM527,-71L52,414l34,92H277c0,0,12,32,12,72V822H0l-45,76l14,31H1063l46,-76l-14,-31H860l66,-58V-39L889,-49L799,8V370H315L264,316L610,34L611,8L527,-71Z"
id="f6_cb"
transform="scale(0.001,-0.001)"/>

<path d="M535,-54L419,5c0,0,23,27,23,58c0,0,0,32,-23,55c0,0,-22,23,-295,226v73L319,571c0,0,116,92,116,191c0,0,0,63,-50,107l-32,5c0,0,-54,0,-91,-42c0,0,-37,-42,-33,-93c0,0,5,-62,75,-99L267,596c0,0,-162,93,-162,194c0,0,0,70,52,122c0,0,51,52,127,52c0,0,99,0,177,-84c0,0,77,-84,77,-180c0,0,0,-116,-142,-236L254,350L417,225l54,-40c0,0,105,-80,105,-150c0,0,0,-45,-41,-89Z"
id="f6_n7"
transform="scale(0.001,-0.001)"/>

<path d="M0,822l-45,76l14,31H93l46,-76L125,822Z"
id="f6_nn"
transform="scale(0.001,-0.001)"/>

<path d="M500,44c0,0,78,0,152,57c0,0,75,56,98,134V350c0,0,-130,0,-223,-64c0,0,-93,-63,-93,-148c0,0,0,-54,43,-92l23,-2ZM321,561c0,0,66,46,101,105c0,0,36,60,36,113c0,0,0,28,-9,48c0,0,-35,41,-87,41c0,0,-50,0,-89,-38c0,0,-39,-39,-39,-100c0,0,0,-94,87,-169ZM840,-111l-90,59V32c0,0,-69,-68,-156,-68c0,0,-97,0,-187,64c0,0,-89,64,-89,146c0,0,0,61,48,123c0,0,48,62,141,94c0,0,-69,20,-140,57L105,272L20,364L260,519c0,0,-144,118,-144,246c0,0,0,81,57,140c0,0,56,59,140,59c0,0,96,0,171,-79c0,0,75,-78,75,-168c0,0,0,-118,-133,-222c0,0,107,-44,232,-44l92,6V822H628l-46,76l14,31h418l46,-76l-13,-31H811l66,-58V-100l-37,-11Z"
id="f6_ke"
transform="scale(0.001,-0.001)"/>

<path d="M-239,897c0,0,-82,61,-132,137c0,0,-50,75,-50,150c0,0,0,78,52,133c0,0,52,55,141,55c0,0,98,0,176,-64l-23,-69c0,0,-52,32,-104,32c0,0,-57,0,-95,-36c0,0,-38,-36,-38,-95c0,0,0,-115,117,-217l-44,-26Z"
id="f6_dr"
transform="scale(0.001,-0.001)"/>

<path d="M396,318c0,0,123,0,203,108V822H180l66,-58V408c0,0,49,-90,150,-90ZM176,-66L79,9L379,228c0,0,-106,23,-181,119c0,0,-76,96,-79,198V822H0l-45,76l14,31H863l46,-76L895,822H660l66,-58V-39L689,-49L599,8V269L176,-66Z"
id="f6_e6"
transform="scale(0.001,-0.001)"/>

<path d="M413,313c0,0,91,0,145,58L231,782V408c0,0,47,-95,182,-95ZM603,438l11,28V822H295L603,438ZM704,-49L614,8V254c0,0,-61,-57,-151,-57c0,0,-138,0,-248,110c0,0,-111,110,-111,252V822H0l-45,76l14,31H878l46,-76L911,822H675l66,-58V-39L704,-49Z"
id="f6_ca"
transform="scale(0.001,-0.001)"/>

<path d="M513,460c0,0,61,81,61,179c0,0,0,87,-45,143c0,0,-45,57,-116,57c0,0,-63,0,-102,-43c0,0,-39,-43,-39,-110c0,0,0,-90,68,-151c0,0,68,-61,173,-75ZM581,-83L278,167l-41,-4c0,0,-99,0,-130,37l47,168l51,12l78,-79c0,0,110,40,183,105c0,0,-141,23,-231,107c0,0,-90,84,-90,193c0,0,0,69,37,116H0l-45,76l14,31H1134l45,-76l-13,-31H930l66,-58V-39L959,-49L869,8V822H588c0,0,51,-44,75,-109c0,0,25,-64,25,-122c0,0,0,-105,-81,-213c0,0,-80,-108,-240,-176L658,18l2,-25L581,-83Z"
id="f6_c8"
transform="scale(0.001,-0.001)"/>

<path d="M959,-49L869,8V367c0,0,-32,-13,-64,-13c0,0,-50,0,-110,25c0,0,23,-52,23,-109c0,0,0,-103,-70,-170c0,0,-70,-66,-182,-66c0,0,-110,0,-222,82c0,0,-111,83,-213,293l68,42c0,0,72,-155,152,-231c0,0,81,-76,178,-76c0,0,83,0,131,49c0,0,48,48,48,117c0,0,0,54,-30,100c0,0,-31,47,-91,65L325,391L257,512c0,0,68,53,156,56c0,0,140,72,140,179c0,0,0,69,-52,99c0,0,-4,1,-11,1c-19,0,-66,-4,-123,-30c0,0,-78,-35,-142,-96L150,823c0,0,119,117,253,117c0,0,98,0,175,-71c0,0,77,-70,77,-159c0,0,0,-103,-94,-180c0,0,39,-23,73,-56c0,0,52,-22,109,-22c0,0,77,0,126,38V822H727l-46,76l14,31h840l46,-76l-13,-31H1332l66,-58V-39l-37,-10L1271,8V822H930l66,-58V-39L959,-49Z"
id="f6_am"
transform="scale(0.001,-0.001)"/>

<path d="M516,-207L290,58c0,0,-44,5,-99,32c0,0,-55,28,-75,51l58,140l51,12L312,165l49,-3c0,0,100,0,168,47c0,0,67,48,67,118c0,0,0,53,-44,98c0,0,-43,44,-129,65L232,413L165,536c0,0,78,51,176,51c6,0,11,0,17,0c0,0,161,50,161,168c0,0,0,79,-65,114l-20,2c0,0,-69,0,-155,-37c0,0,-86,-36,-151,-93L53,848c0,0,51,49,130,82c0,0,80,34,159,34c0,0,118,0,203,-75c0,0,84,-75,84,-172c0,0,0,-110,-116,-181c0,0,97,-46,148,-112c0,0,51,-66,51,-137c0,0,0,-99,-88,-165c0,0,-88,-65,-237,-65L578,-132l1,-26l-63,-49Z"
id="f6_n9"
transform="scale(0.001,-0.001)"/>

<path d="M283,260c0,0,122,0,209,113V513c0,0,-90,51,-160,51c0,0,-80,0,-129,-50c0,0,-49,-50,-49,-118c0,0,0,-60,35,-110c0,0,45,-26,94,-26ZM582,-49L492,8V211c0,0,-63,-54,-141,-54c0,0,-113,0,-214,92c0,0,-102,92,-102,206c0,0,0,93,69,157c0,0,69,63,163,63c0,0,34,0,66,-9L492,590V822H0l-45,76l14,31H909l46,-76L941,822H553l66,-58V521c0,0,93,104,192,104c0,0,63,0,120,-42c0,0,57,-42,82,-106L964,431l-5,9c0,0,-38,72,-110,72c0,0,-51,0,-105,-41c0,0,-53,-42,-125,-129V-39L582,-49Z"
id="f6_l1"
transform="scale(0.001,-0.001)"/>

<path d="M397,102c0,0,52,0,85,36c0,0,33,35,33,87c0,0,0,88,-110,221C405,446,296,307,296,217c0,0,0,-61,39,-101c0,0,35,-14,62,-14ZM451,3C451,3,351,3,268,88c0,0,-83,85,-83,182c0,0,0,107,131,274c0,0,-146,153,-346,324l61,69L81,891L373,610c0,0,87,99,318,330l82,-92C773,848,550,623,461,516c0,0,173,-188,173,-322c0,0,0,-87,-53,-139C581,55,527,3,451,3Z"
id="f6_na"
transform="scale(0.001,-0.001)"/>

<path d="M725,307c0,0,-95,0,-218,78c0,0,-123,78,-188,78c0,0,-54,0,-95,-34c0,0,-41,-34,-73,-100L93,362c0,0,38,88,101,146c0,0,63,59,148,59c0,0,90,0,214,-78c0,0,124,-79,188,-79c0,0,63,0,106,34c0,0,42,33,85,104l60,-40c0,0,-32,-66,-101,-134c0,0,-70,-67,-169,-67Z"
id="f7_4r"
transform="scale(0.001,-0.001)"/>

<path d="M423,92c0,0,97,0,159,62c0,0,62,62,62,157c0,0,0,97,-64,160c0,0,-64,64,-161,64c0,0,-96,0,-158,-63c0,0,-62,-62,-62,-156c0,0,0,-58,27,-111c0,0,27,-54,81,-84c0,0,54,-29,116,-29Zm0,552c0,0,78,0,127,49c0,0,49,49,49,120c0,0,0,74,-50,124c0,0,-51,51,-128,51c0,0,-77,0,-127,-50c0,0,-51,-49,-51,-118c0,0,0,-77,50,-126c0,0,50,-50,130,-50ZM422,-18c0,0,-162,0,-261,95c0,0,-99,96,-99,239c0,0,0,107,54,179c0,0,54,72,154,98c0,0,-84,31,-124,87c0,0,-40,57,-40,136c0,0,0,119,85,201c0,0,86,81,229,81c0,0,143,0,230,-83c0,0,87,-83,87,-203c0,0,0,-76,-40,-132c0,0,-39,-56,-121,-87c0,0,101,-33,154,-106c0,0,52,-73,52,-174c0,0,0,-141,-99,-236c0,0,-99,-95,-261,-95Z"
id="f8_s"
transform="scale(0.001,-0.001)"/>

<path d="M415,-18c0,0,-149,0,-244,83c0,0,-94,84,-107,222l140,11c0,0,16,-103,73,-154c0,0,56,-52,137,-52c0,0,98,0,165,73c0,0,66,73,66,194c0,0,0,115,-64,182c0,0,-64,66,-169,66c0,0,-65,0,-117,-29c0,0,-52,-30,-82,-77L87,517l106,562H736V951H300L241,657c0,0,99,69,207,69c0,0,143,0,242,-100c0,0,98,-99,98,-255c0,0,0,-149,-86,-257C702,114,597,-18,415,-18Z"
id="f8_p"
transform="scale(0.001,-0.001)"/>


</defs>
</svg>