<?xml version="1.0" encoding="UTF-8" standalone="no"?>
<!DOCTYPE svg PUBLIC "-//W3C//DTD SVG 1.1//EN"
"http://www.w3.org/Graphics/SVG/1.1/DTD/svg11.dtd">
<svg viewBox="0 0 641 910" version="1.1" xmlns="http://www.w3.org/2000/svg" xmlns:xlink="http://www.w3.org/1999/xlink">
<defs>
<clipPath id="c0_86"><path d="M0,909.8V0H641.7V909.8Z"/></clipPath>
<clipPath id="c1_86"><path d="M0,908.6V0H641.7V908.6Z"/></clipPath>
<style type="text/css"><![CDATA[
.g0_86{
fill: #FFFFFF;
}
.g1_86{
}
]]></style>
</defs>
<path d="M0,0H641.7V909.8H0V0Z" class="g0_86"/>
<path d="M0,0H641.7V909.8H0V0Z" class="g0_86"/>
<g clip-path="url(#c0_86)">
<path d="M0,-71873.4H641.7V34572.1H0V-71873.4Z" class="g0_86"/>
</g>
<path d="M0,0H641.7V908.6H0V0Z" class="g0_86"/>
<path d="M19.5,60.7H602.7v1.2H19.5V60.7Z" class="g1_86"/>
<g clip-path="url(#c1_86)">
<path d="M0,61.9H641.7V909.8H0V61.9Z" class="g0_86"/>
<g fill="#000000" >
<use xlink:href="#f5_nr" transform="matrix(14,0,0,14,212.3,96.3)" />
<use xlink:href="#f5_c1" transform="matrix(14,0,0,14,218.8,96.3)" />
<use xlink:href="#f5_bz" transform="matrix(14,0,0,14,229,96.3)" />
<use xlink:href="#f5_nv" transform="matrix(14,0,0,14,243.6,96.3)" />
<use xlink:href="#f5_bh" transform="matrix(14,0,0,14,250.1,96.3)" />
<use xlink:href="#f5_bz" transform="matrix(14,0,0,14,268.5,96.3)" />
<use xlink:href="#f5_b9" transform="matrix(14,0,0,14,288.8,96.3)" />
<use xlink:href="#f5_c1" transform="matrix(14,0,0,14,306.2,96.3)" />
<use xlink:href="#f5_bp" transform="matrix(14,0,0,14,316.4,96.3)" />
<use xlink:href="#f5_ct" transform="matrix(14,0,0,14,329.8,96.3)" />
<use xlink:href="#f5_am" transform="matrix(14,0,0,14,342,96.3)" />
<use xlink:href="#f5_c7" transform="matrix(14,0,0,14,366.8,96.3)" />
<use xlink:href="#f5_bg" transform="matrix(14,0,0,14,380.5,96.3)" />
<use xlink:href="#f5_d8" transform="matrix(14,0,0,14,396.4,96.3)" />
<use xlink:href="#f5_m" transform="matrix(14,0,0,14,402.9,96.3)" />
<use xlink:href="#f6_am" transform="matrix(14,0,0,14,152.7,154.7)" />
<use xlink:href="#f6_c7" transform="matrix(14,0,0,14,174.2,154.7)" />
<use xlink:href="#f6_d8" transform="matrix(14,0,0,14,186.3,154.7)" />
<use xlink:href="#f6_bz" transform="matrix(14,0,0,14,197.5,154.7)" />
<use xlink:href="#f6_ct" transform="matrix(14,0,0,14,210.9,154.7)" />
<use xlink:href="#f6_c1" transform="matrix(14,0,0,14,216.5,154.7)" />
<use xlink:href="#f6_ct" transform="matrix(14,0,0,14,224.9,154.7)" />
<use xlink:href="#f6_by" transform="matrix(14,0,0,14,236.2,154.7)" />
<use xlink:href="#f6_d5" transform="matrix(14,0,0,14,250.3,154.7)" />
<use xlink:href="#f6_n0" transform="matrix(14,0,0,14,250.1,154.7)" />
<use xlink:href="#f6_bg" transform="matrix(14,0,0,14,263.3,154.7)" />
<use xlink:href="#f6_cv" transform="matrix(14,0,0,14,277.5,154.7)" />
<use xlink:href="#f6_k" transform="matrix(14,0,0,14,283.2,154.7)" />
<use xlink:href="#f6_nr" transform="matrix(14,0,0,14,294,154.7)" />
<use xlink:href="#f6_c1" transform="matrix(14,0,0,14,299.7,154.7)" />
<use xlink:href="#f6_bz" transform="matrix(14,0,0,14,308,154.7)" />
<use xlink:href="#f6_nv" transform="matrix(14,0,0,14,321.4,154.7)" />
<use xlink:href="#f6_bh" transform="matrix(14,0,0,14,327,154.7)" />
<use xlink:href="#f6_bz" transform="matrix(14,0,0,14,343.8,154.7)" />
<use xlink:href="#f6_b9" transform="matrix(14,0,0,14,362.8,154.7)" />
<use xlink:href="#f6_c1" transform="matrix(14,0,0,14,378.3,154.7)" />
<use xlink:href="#f6_bp" transform="matrix(14,0,0,14,386.7,154.7)" />
<use xlink:href="#f6_ct" transform="matrix(14,0,0,14,399,154.7)" />
<use xlink:href="#f6_am" transform="matrix(14,0,0,14,410.3,154.7)" />
<use xlink:href="#f6_c7" transform="matrix(14,0,0,14,431.8,154.7)" />
<use xlink:href="#f6_bg" transform="matrix(14,0,0,14,443.8,154.7)" />
<use xlink:href="#f6_d8" transform="matrix(14,0,0,14,458.1,154.7)" />
<use xlink:href="#f6_k" transform="matrix(14,0,0,14,463.7,154.7)" />
<use xlink:href="#f6_am" transform="matrix(14,0,0,14,144.7,187.9)" />
<use xlink:href="#f6_c7" transform="matrix(14,0,0,14,166.2,187.9)" />
<use xlink:href="#f6_d8" transform="matrix(14,0,0,14,178.2,187.9)" />
<use xlink:href="#f6_bz" transform="matrix(14,0,0,14,189.5,187.9)" />
<use xlink:href="#f6_ct" transform="matrix(14,0,0,14,202.9,187.9)" />
<use xlink:href="#f6_c1" transform="matrix(14,0,0,14,208.5,187.9)" />
<use xlink:href="#f6_ct" transform="matrix(14,0,0,14,216.9,187.9)" />
<use xlink:href="#f6_by" transform="matrix(14,0,0,14,228.2,187.9)" />
<use xlink:href="#f6_d5" transform="matrix(14,0,0,14,242.2,187.9)" />
<use xlink:href="#f6_n0" transform="matrix(14,0,0,14,242.1,187.9)" />
<use xlink:href="#f6_bg" transform="matrix(14,0,0,14,255.3,187.9)" />
<use xlink:href="#f6_cv" transform="matrix(14,0,0,14,269.5,187.9)" />
<use xlink:href="#f6_k" transform="matrix(14,0,0,14,275.1,187.9)" />
<use xlink:href="#f6_ke" transform="matrix(14,0,0,14,286,187.9)" />
<use xlink:href="#f6_ct" transform="matrix(14,0,0,14,300.2,187.9)" />
<use xlink:href="#f6_bt" transform="matrix(14,0,0,14,305.8,187.9)" />
<use xlink:href="#f6_al" transform="matrix(14,0,0,14,323.2,187.9)" />
<use xlink:href="#f6_cb" transform="matrix(14,0,0,14,339.1,187.9)" />
<use xlink:href="#f6_c7" transform="matrix(14,0,0,14,354,187.9)" />
<use xlink:href="#f6_ct" transform="matrix(14,0,0,14,366,187.9)" />
<use xlink:href="#f6_c1" transform="matrix(14,0,0,14,371.7,187.9)" />
<use xlink:href="#f6_bz" transform="matrix(14,0,0,14,385.7,187.9)" />
<use xlink:href="#f6_ct" transform="matrix(14,0,0,14,399,187.9)" />
<use xlink:href="#f6_c1" transform="matrix(14,0,0,14,404.7,187.9)" />
<use xlink:href="#f6_ct" transform="matrix(14,0,0,14,413,187.9)" />
<use xlink:href="#f6_by" transform="matrix(14,0,0,14,424.3,187.9)" />
<use xlink:href="#f6_d5" transform="matrix(14,0,0,14,438.4,187.9)" />
<use xlink:href="#f6_n0" transform="matrix(14,0,0,14,438.3,187.9)" />
<use xlink:href="#f6_bg" transform="matrix(14,0,0,14,451.4,187.9)" />
<use xlink:href="#f6_cv" transform="matrix(14,0,0,14,465.7,187.9)" />
<use xlink:href="#f6_k" transform="matrix(14,0,0,14,471.3,187.9)" />
<use xlink:href="#f6_nr" transform="matrix(14,0,0,14,219.2,221.1)" />
<use xlink:href="#f6_c1" transform="matrix(14,0,0,14,224.8,221.1)" />
<use xlink:href="#f6_bz" transform="matrix(14,0,0,14,233.2,221.1)" />
<use xlink:href="#f6_nv" transform="matrix(14,0,0,14,246.5,221.1)" />
<use xlink:href="#f6_bh" transform="matrix(14,0,0,14,252.1,221.1)" />
<use xlink:href="#f6_bz" transform="matrix(14,0,0,14,268.9,221.1)" />
<use xlink:href="#f6_b9" transform="matrix(14,0,0,14,287.9,221.1)" />
<use xlink:href="#f6_c1" transform="matrix(14,0,0,14,303.4,221.1)" />
<use xlink:href="#f6_bp" transform="matrix(14,0,0,14,311.8,221.1)" />
<use xlink:href="#f6_ct" transform="matrix(14,0,0,14,324.1,221.1)" />
<use xlink:href="#f6_am" transform="matrix(14,0,0,14,335.4,221.1)" />
<use xlink:href="#f6_c7" transform="matrix(14,0,0,14,356.9,221.1)" />
<use xlink:href="#f6_bg" transform="matrix(14,0,0,14,368.9,221.1)" />
<use xlink:href="#f6_d8" transform="matrix(14,0,0,14,383.2,221.1)" />
<use xlink:href="#f6_pc" transform="matrix(14,0,0,14,388.8,221.1)" />
<use xlink:href="#f6_pc" transform="matrix(14,0,0,14,393.1,221.1)" />
<use xlink:href="#f6_pc" transform="matrix(14,0,0,14,397.4,221.1)" />
<use xlink:href="#f6_am" transform="matrix(14,0,0,14,159.6,279.6)" />
<use xlink:href="#f6_c7" transform="matrix(14,0,0,14,181.1,279.6)" />
<use xlink:href="#f6_d8" transform="matrix(14,0,0,14,193.1,279.6)" />
<use xlink:href="#f6_bz" transform="matrix(14,0,0,14,204.4,279.6)" />
<use xlink:href="#f6_ct" transform="matrix(14,0,0,14,217.8,279.6)" />
<use xlink:href="#f6_c1" transform="matrix(14,0,0,14,223.4,279.6)" />
<use xlink:href="#f6_ct" transform="matrix(14,0,0,14,231.8,279.6)" />
<use xlink:href="#f6_by" transform="matrix(14,0,0,14,243.1,279.6)" />
<use xlink:href="#f6_d5" transform="matrix(14,0,0,14,257.1,279.6)" />
<use xlink:href="#f6_n0" transform="matrix(14,0,0,14,257,279.6)" />
<use xlink:href="#f6_bg" transform="matrix(14,0,0,14,270.2,279.6)" />
<use xlink:href="#f6_cv" transform="matrix(14,0,0,14,284.4,279.6)" />
<use xlink:href="#f6_k" transform="matrix(14,0,0,14,290,279.6)" />
<use xlink:href="#f6_bw" transform="matrix(14,0,0,14,300.9,279.6)" />
<use xlink:href="#f6_d9" transform="matrix(14,0,0,14,317,279.6)" />
<use xlink:href="#f6_bg" transform="matrix(14,0,0,14,322.6,279.6)" />
<use xlink:href="#f6_cv" transform="matrix(14,0,0,14,336.9,279.6)" />
<use xlink:href="#f6_bt" transform="matrix(14,0,0,14,348.2,279.6)" />
<use xlink:href="#f6_d4" transform="matrix(14,0,0,14,360,279.6)" />
<use xlink:href="#f6_cb" transform="matrix(14,0,0,14,365.6,279.6)" />
<use xlink:href="#f6_ct" transform="matrix(14,0,0,14,380.4,279.6)" />
<use xlink:href="#f6_no" transform="matrix(14,0,0,14,386.1,279.6)" />
<use xlink:href="#f6_bq" transform="matrix(14,0,0,14,386.1,279.6)" />
<use xlink:href="#f6_d4" transform="matrix(14,0,0,14,399.3,279.6)" />
<use xlink:href="#f6_c3" transform="matrix(14,0,0,14,404.9,279.6)" />
<use xlink:href="#f6_ct" transform="matrix(14,0,0,14,419.6,279.6)" />
<use xlink:href="#f6_c7" transform="matrix(14,0,0,14,425.2,279.6)" />
<use xlink:href="#f6_bg" transform="matrix(14,0,0,14,437.3,279.6)" />
<use xlink:href="#f6_d8" transform="matrix(14,0,0,14,451.6,279.6)" />
<use xlink:href="#f6_k" transform="matrix(14,0,0,14,457.2,279.6)" />
<use xlink:href="#f6_am" transform="matrix(14,0,0,14,130.9,312.8)" />
<use xlink:href="#f6_c7" transform="matrix(14,0,0,14,152.4,312.8)" />
<use xlink:href="#f6_d8" transform="matrix(14,0,0,14,164.5,312.8)" />
<use xlink:href="#f6_bz" transform="matrix(14,0,0,14,175.8,312.8)" />
<use xlink:href="#f6_ct" transform="matrix(14,0,0,14,189.1,312.8)" />
<use xlink:href="#f6_c1" transform="matrix(14,0,0,14,194.7,312.8)" />
<use xlink:href="#f6_ct" transform="matrix(14,0,0,14,203.1,312.8)" />
<use xlink:href="#f6_by" transform="matrix(14,0,0,14,214.4,312.8)" />
<use xlink:href="#f6_d5" transform="matrix(14,0,0,14,228.5,312.8)" />
<use xlink:href="#f6_n0" transform="matrix(14,0,0,14,228.4,312.8)" />
<use xlink:href="#f6_bg" transform="matrix(14,0,0,14,241.5,312.8)" />
<use xlink:href="#f6_cv" transform="matrix(14,0,0,14,255.8,312.8)" />
<use xlink:href="#f6_k" transform="matrix(14,0,0,14,261.4,312.8)" />
<use xlink:href="#f6_bc" transform="matrix(14,0,0,14,272.3,312.8)" />
<use xlink:href="#f6_cw" transform="matrix(14,0,0,14,286.7,312.7)" />
<use xlink:href="#f6_dj" transform="matrix(14,0,0,14,279.7,313.2)" />
<use xlink:href="#f6_bc" transform="matrix(14,0,0,14,286.2,312.8)" />
<use xlink:href="#f6_c1" transform="matrix(14,0,0,14,300.1,312.8)" />
<use xlink:href="#f6_cv" transform="matrix(14,0,0,14,308.4,312.8)" />
<use xlink:href="#f6_c0" transform="matrix(14,0,0,14,314.1,312.8)" />
<use xlink:href="#f6_d4" transform="matrix(14,0,0,14,326.7,312.8)" />
<use xlink:href="#f6_bc" transform="matrix(14,0,0,14,332.3,312.8)" />
<use xlink:href="#f6_bz" transform="matrix(14,0,0,14,346.2,312.8)" />
<use xlink:href="#f6_b9" transform="matrix(14,0,0,14,359.5,312.8)" />
<use xlink:href="#f6_ct" transform="matrix(14,0,0,14,375,312.8)" />
<use xlink:href="#f6_c1" transform="matrix(14,0,0,14,380.6,312.8)" />
<use xlink:href="#f6_d8" transform="matrix(14,0,0,14,389,312.8)" />
<use xlink:href="#f6_bz" transform="matrix(14,0,0,14,400.3,312.8)" />
<use xlink:href="#f6_ct" transform="matrix(14,0,0,14,413.6,312.8)" />
<use xlink:href="#f6_c1" transform="matrix(14,0,0,14,419.3,312.8)" />
<use xlink:href="#f6_ct" transform="matrix(14,0,0,14,427.6,312.8)" />
<use xlink:href="#f6_by" transform="matrix(14,0,0,14,438.9,312.8)" />
<use xlink:href="#f6_d5" transform="matrix(14,0,0,14,453,312.8)" />
<use xlink:href="#f6_n0" transform="matrix(14,0,0,14,452.9,312.8)" />
<use xlink:href="#f6_bg" transform="matrix(14,0,0,14,466,312.8)" />
<use xlink:href="#f6_cv" transform="matrix(14,0,0,14,480.3,312.8)" />
<use xlink:href="#f6_k" transform="matrix(14,0,0,14,485.9,312.8)" />
<use xlink:href="#f6_nr" transform="matrix(14,0,0,14,215.7,346)" />
<use xlink:href="#f6_c1" transform="matrix(14,0,0,14,221.3,346)" />
<use xlink:href="#f6_bz" transform="matrix(14,0,0,14,229.7,346)" />
<use xlink:href="#f6_nv" transform="matrix(14,0,0,14,243.1,346)" />
<use xlink:href="#f6_bh" transform="matrix(14,0,0,14,248.7,346)" />
<use xlink:href="#f6_bz" transform="matrix(14,0,0,14,265.5,346)" />
<use xlink:href="#f6_b9" transform="matrix(14,0,0,14,284.5,346)" />
<use xlink:href="#f6_c1" transform="matrix(14,0,0,14,300,346)" />
<use xlink:href="#f6_bp" transform="matrix(14,0,0,14,308.3,346)" />
<use xlink:href="#f6_ct" transform="matrix(14,0,0,14,320.7,346)" />
<use xlink:href="#f6_am" transform="matrix(14,0,0,14,331.9,346)" />
<use xlink:href="#f6_c7" transform="matrix(14,0,0,14,353.4,346)" />
<use xlink:href="#f6_bg" transform="matrix(14,0,0,14,365.5,346)" />
<use xlink:href="#f6_d8" transform="matrix(14,0,0,14,379.8,346)" />
<use xlink:href="#f6_8l" transform="matrix(14,0,0,14,385.4,346)" />
<use xlink:href="#f6_am" transform="matrix(14,0,0,14,147,412.5)" />
<use xlink:href="#f6_c7" transform="matrix(14,0,0,14,168.5,412.5)" />
<use xlink:href="#f6_d8" transform="matrix(14,0,0,14,180.5,412.5)" />
<use xlink:href="#f6_bz" transform="matrix(14,0,0,14,191.8,412.5)" />
<use xlink:href="#f6_ct" transform="matrix(14,0,0,14,205.2,412.5)" />
<use xlink:href="#f6_c1" transform="matrix(14,0,0,14,210.8,412.5)" />
<use xlink:href="#f6_ct" transform="matrix(14,0,0,14,219.2,412.5)" />
<use xlink:href="#f6_by" transform="matrix(14,0,0,14,230.4,412.5)" />
<use xlink:href="#f6_d5" transform="matrix(14,0,0,14,244.5,412.5)" />
<use xlink:href="#f6_n0" transform="matrix(14,0,0,14,244.4,412.5)" />
<use xlink:href="#f6_bg" transform="matrix(14,0,0,14,257.6,412.5)" />
<use xlink:href="#f6_cv" transform="matrix(14,0,0,14,271.8,412.5)" />
<use xlink:href="#f6_k" transform="matrix(14,0,0,14,277.4,412.5)" />
<use xlink:href="#f6_br" transform="matrix(14,0,0,14,288.3,412.5)" />
<use xlink:href="#f6_c8" transform="matrix(14,0,0,14,300,412.5)" />
<use xlink:href="#f6_dr" transform="matrix(14,0,0,14,316.3,412.5)" />
<use xlink:href="#f6_bt" transform="matrix(14,0,0,14,315.8,412.5)" />
<use xlink:href="#f6_c1" transform="matrix(14,0,0,14,333.2,412.5)" />
<use xlink:href="#f6_cv" transform="matrix(14,0,0,14,341.6,412.5)" />
<use xlink:href="#f6_bz" transform="matrix(14,0,0,14,352.9,412.5)" />
<use xlink:href="#f6_d8" transform="matrix(14,0,0,14,366.2,412.5)" />
<use xlink:href="#f6_bt" transform="matrix(14,0,0,14,371.9,412.5)" />
<use xlink:href="#f6_d4" transform="matrix(14,0,0,14,383.7,412.5)" />
<use xlink:href="#f6_ll" transform="matrix(14,0,0,14,389.2,412.5)" />
<use xlink:href="#f6_c0" transform="matrix(14,0,0,14,395.7,412.5)" />
<use xlink:href="#f6_ct" transform="matrix(14,0,0,14,408.2,412.5)" />
<use xlink:href="#f6_cb" transform="matrix(14,0,0,14,413.8,412.5)" />
<use xlink:href="#f6_bc" transform="matrix(14,0,0,14,434.4,412.5)" />
<use xlink:href="#f6_bo" transform="matrix(14,0,0,14,448.3,412.5)" />
<use xlink:href="#f6_cv" transform="matrix(14,0,0,14,462.6,412.5)" />
<use xlink:href="#f6_k" transform="matrix(14,0,0,14,468.3,412.5)" />
<use xlink:href="#f6_am" transform="matrix(14,0,0,14,111.5,445.7)" />
<use xlink:href="#f6_c7" transform="matrix(14,0,0,14,132.9,445.7)" />
<use xlink:href="#f6_d8" transform="matrix(14,0,0,14,145,445.7)" />
<use xlink:href="#f6_bz" transform="matrix(14,0,0,14,156.3,445.7)" />
<use xlink:href="#f6_ct" transform="matrix(14,0,0,14,169.6,445.7)" />
<use xlink:href="#f6_c1" transform="matrix(14,0,0,14,175.3,445.7)" />
<use xlink:href="#f6_ct" transform="matrix(14,0,0,14,183.6,445.7)" />
<use xlink:href="#f6_by" transform="matrix(14,0,0,14,194.9,445.7)" />
<use xlink:href="#f6_d5" transform="matrix(14,0,0,14,209,445.7)" />
<use xlink:href="#f6_n0" transform="matrix(14,0,0,14,208.9,445.7)" />
<use xlink:href="#f6_bg" transform="matrix(14,0,0,14,222,445.7)" />
<use xlink:href="#f6_cv" transform="matrix(14,0,0,14,236.3,445.7)" />
<use xlink:href="#f6_k" transform="matrix(14,0,0,14,241.9,445.7)" />
<use xlink:href="#f6_br" transform="matrix(14,0,0,14,252.8,445.7)" />
<use xlink:href="#f6_c8" transform="matrix(14,0,0,14,264.5,445.7)" />
<use xlink:href="#f6_dr" transform="matrix(14,0,0,14,280.8,445.7)" />
<use xlink:href="#f6_bt" transform="matrix(14,0,0,14,280.3,445.7)" />
<use xlink:href="#f6_c1" transform="matrix(14,0,0,14,297.7,445.7)" />
<use xlink:href="#f6_cv" transform="matrix(14,0,0,14,306.1,445.7)" />
<use xlink:href="#f6_bp" transform="matrix(14,0,0,14,317.4,445.7)" />
<use xlink:href="#f6_c1" transform="matrix(14,0,0,14,329.7,445.7)" />
<use xlink:href="#f6_cb" transform="matrix(14,0,0,14,338.1,445.7)" />
<use xlink:href="#f6_nt" transform="matrix(14,0,0,14,358.6,445.7)" />
<use xlink:href="#f6_bz" transform="matrix(14,0,0,14,364.2,445.7)" />
<use xlink:href="#f6_bk" transform="matrix(14,0,0,14,377.6,445.7)" />
<use xlink:href="#f6_ct" transform="matrix(14,0,0,14,389.1,445.7)" />
<use xlink:href="#f6_c7" transform="matrix(14,0,0,14,394.8,445.7)" />
<use xlink:href="#f6_d8" transform="matrix(14,0,0,14,406.8,445.7)" />
<use xlink:href="#f6_bz" transform="matrix(14,0,0,14,418.1,445.7)" />
<use xlink:href="#f6_ct" transform="matrix(14,0,0,14,431.5,445.7)" />
<use xlink:href="#f6_c1" transform="matrix(14,0,0,14,437.1,445.7)" />
<use xlink:href="#f6_ct" transform="matrix(14,0,0,14,445.5,445.7)" />
<use xlink:href="#f6_by" transform="matrix(14,0,0,14,456.8,445.7)" />
<use xlink:href="#f6_d5" transform="matrix(14,0,0,14,470.8,445.7)" />
<use xlink:href="#f6_n0" transform="matrix(14,0,0,14,470.7,445.7)" />
<use xlink:href="#f6_bg" transform="matrix(14,0,0,14,483.9,445.7)" />
<use xlink:href="#f6_cv" transform="matrix(14,0,0,14,498.1,445.7)" />
<use xlink:href="#f6_k" transform="matrix(14,0,0,14,503.7,445.7)" />
<use xlink:href="#f6_nr" transform="matrix(14,0,0,14,215.7,479)" />
<use xlink:href="#f6_c1" transform="matrix(14,0,0,14,221.3,479)" />
<use xlink:href="#f6_bz" transform="matrix(14,0,0,14,229.7,479)" />
<use xlink:href="#f6_nv" transform="matrix(14,0,0,14,243.1,479)" />
<use xlink:href="#f6_bh" transform="matrix(14,0,0,14,248.7,479)" />
<use xlink:href="#f6_bz" transform="matrix(14,0,0,14,265.5,479)" />
<use xlink:href="#f6_b9" transform="matrix(14,0,0,14,284.5,479)" />
<use xlink:href="#f6_c1" transform="matrix(14,0,0,14,300,479)" />
<use xlink:href="#f6_bp" transform="matrix(14,0,0,14,308.3,479)" />
<use xlink:href="#f6_ct" transform="matrix(14,0,0,14,320.7,479)" />
<use xlink:href="#f6_am" transform="matrix(14,0,0,14,331.9,479)" />
<use xlink:href="#f6_c7" transform="matrix(14,0,0,14,353.4,479)" />
<use xlink:href="#f6_bg" transform="matrix(14,0,0,14,365.5,479)" />
<use xlink:href="#f6_d8" transform="matrix(14,0,0,14,379.8,479)" />
<use xlink:href="#f6_8l" transform="matrix(14,0,0,14,385.4,479)" />
<use xlink:href="#f6_am" transform="matrix(14,0,0,14,179.1,537.4)" />
<use xlink:href="#f6_c7" transform="matrix(14,0,0,14,200.5,537.4)" />
<use xlink:href="#f6_d8" transform="matrix(14,0,0,14,212.6,537.4)" />
<use xlink:href="#f6_bz" transform="matrix(14,0,0,14,223.9,537.4)" />
<use xlink:href="#f6_ct" transform="matrix(14,0,0,14,237.2,537.4)" />
<use xlink:href="#f6_c1" transform="matrix(14,0,0,14,242.9,537.4)" />
<use xlink:href="#f6_ct" transform="matrix(14,0,0,14,251.2,537.4)" />
<use xlink:href="#f6_by" transform="matrix(14,0,0,14,262.5,537.4)" />
<use xlink:href="#f6_d5" transform="matrix(14,0,0,14,276.6,537.4)" />
<use xlink:href="#f6_n0" transform="matrix(14,0,0,14,276.5,537.4)" />
<use xlink:href="#f6_bg" transform="matrix(14,0,0,14,289.6,537.4)" />
<use xlink:href="#f6_cv" transform="matrix(14,0,0,14,303.9,537.4)" />
<use xlink:href="#f6_k" transform="matrix(14,0,0,14,309.5,537.4)" />
<use xlink:href="#f6_bm" transform="matrix(14,0,0,14,320.4,537.4)" />
<use xlink:href="#f6_cx" transform="matrix(14,0,0,14,331.5,538.2)" />
<use xlink:href="#f6_dj" transform="matrix(14,0,0,14,329.8,537.8)" />
<use xlink:href="#f6_bb" transform="matrix(14,0,0,14,333.1,537.4)" />
<use xlink:href="#f6_c1" transform="matrix(14,0,0,14,345.7,537.4)" />
<use xlink:href="#f6_ap" transform="matrix(14,0,0,14,359.7,537.4)" />
<use xlink:href="#f6_bv" transform="matrix(14,0,0,14,371.1,537.4)" />
<use xlink:href="#f6_c1" transform="matrix(14,0,0,14,383,537.4)" />
<use xlink:href="#f6_bm" transform="matrix(14,0,0,14,397,537.4)" />
<use xlink:href="#f6_cx" transform="matrix(14,0,0,14,408.2,538.2)" />
<use xlink:href="#f6_dj" transform="matrix(14,0,0,14,406.4,537.8)" />
<use xlink:href="#f6_bb" transform="matrix(14,0,0,14,409.7,537.4)" />
<use xlink:href="#f6_c1" transform="matrix(14,0,0,14,422.3,537.4)" />
<use xlink:href="#f6_ct" transform="matrix(14,0,0,14,430.7,537.4)" />
<use xlink:href="#f6_k" transform="matrix(14,0,0,14,436.3,537.4)" />
<use xlink:href="#f6_am" transform="matrix(14,0,0,14,127.5,570.6)" />
<use xlink:href="#f6_c7" transform="matrix(14,0,0,14,149,570.6)" />
<use xlink:href="#f6_d8" transform="matrix(14,0,0,14,161.1,570.6)" />
<use xlink:href="#f6_bz" transform="matrix(14,0,0,14,172.3,570.6)" />
<use xlink:href="#f6_ct" transform="matrix(14,0,0,14,185.7,570.6)" />
<use xlink:href="#f6_c1" transform="matrix(14,0,0,14,191.3,570.6)" />
<use xlink:href="#f6_ct" transform="matrix(14,0,0,14,199.7,570.6)" />
<use xlink:href="#f6_by" transform="matrix(14,0,0,14,211,570.6)" />
<use xlink:href="#f6_d5" transform="matrix(14,0,0,14,225.1,570.6)" />
<use xlink:href="#f6_n0" transform="matrix(14,0,0,14,224.9,570.6)" />
<use xlink:href="#f6_bg" transform="matrix(14,0,0,14,238.1,570.6)" />
<use xlink:href="#f6_cv" transform="matrix(14,0,0,14,252.3,570.6)" />
<use xlink:href="#f6_k" transform="matrix(14,0,0,14,258,570.6)" />
<use xlink:href="#f6_bt" transform="matrix(14,0,0,14,263.2,570.6)" />
<use xlink:href="#f6_cu" transform="matrix(14,0,0,14,274.9,570.6)" />
<use xlink:href="#f6_br" transform="matrix(14,0,0,14,280.5,570.6)" />
<use xlink:href="#f6_c0" transform="matrix(14,0,0,14,292.2,570.6)" />
<use xlink:href="#f6_d8" transform="matrix(14,0,0,14,304.7,570.6)" />
<use xlink:href="#f6_c1" transform="matrix(14,0,0,14,316,570.6)" />
<use xlink:href="#f6_d8" transform="matrix(14,0,0,14,324.4,570.6)" />
<use xlink:href="#f6_bt" transform="matrix(14,0,0,14,335.7,570.6)" />
<use xlink:href="#f6_cc" transform="matrix(14,0,0,14,347.4,570.6)" />
<use xlink:href="#f6_cv" transform="matrix(14,0,0,14,359,570.6)" />
<use xlink:href="#f6_dj" transform="matrix(14,0,0,14,363.7,571.5)" />
<use xlink:href="#f6_bv" transform="matrix(14,0,0,14,370.3,570.6)" />
<use xlink:href="#f6_ct" transform="matrix(14,0,0,14,382.2,570.6)" />
<use xlink:href="#f6_c1" transform="matrix(14,0,0,14,387.8,570.6)" />
<use xlink:href="#f6_bz" transform="matrix(14,0,0,14,401.8,570.6)" />
<use xlink:href="#f6_ct" transform="matrix(14,0,0,14,415.2,570.6)" />
<use xlink:href="#f6_c1" transform="matrix(14,0,0,14,420.8,570.6)" />
<use xlink:href="#f6_ct" transform="matrix(14,0,0,14,429.2,570.6)" />
<use xlink:href="#f6_by" transform="matrix(14,0,0,14,440.5,570.6)" />
<use xlink:href="#f6_d5" transform="matrix(14,0,0,14,454.5,570.6)" />
<use xlink:href="#f6_n0" transform="matrix(14,0,0,14,454.4,570.6)" />
<use xlink:href="#f6_bg" transform="matrix(14,0,0,14,467.6,570.6)" />
<use xlink:href="#f6_cv" transform="matrix(14,0,0,14,481.8,570.6)" />
<use xlink:href="#f6_k" transform="matrix(14,0,0,14,487.4,570.6)" />
<use xlink:href="#f6_nr" transform="matrix(14,0,0,14,215.7,603.9)" />
<use xlink:href="#f6_c1" transform="matrix(14,0,0,14,221.3,603.9)" />
<use xlink:href="#f6_bz" transform="matrix(14,0,0,14,229.7,603.9)" />
<use xlink:href="#f6_nv" transform="matrix(14,0,0,14,243.1,603.9)" />
<use xlink:href="#f6_bh" transform="matrix(14,0,0,14,248.7,603.9)" />
<use xlink:href="#f6_bz" transform="matrix(14,0,0,14,265.5,603.9)" />
<use xlink:href="#f6_b9" transform="matrix(14,0,0,14,284.5,603.9)" />
<use xlink:href="#f6_c1" transform="matrix(14,0,0,14,300,603.9)" />
<use xlink:href="#f6_bp" transform="matrix(14,0,0,14,308.3,603.9)" />
<use xlink:href="#f6_ct" transform="matrix(14,0,0,14,320.7,603.9)" />
<use xlink:href="#f6_am" transform="matrix(14,0,0,14,331.9,603.9)" />
<use xlink:href="#f6_c7" transform="matrix(14,0,0,14,353.4,603.9)" />
<use xlink:href="#f6_bg" transform="matrix(14,0,0,14,365.5,603.9)" />
<use xlink:href="#f6_d8" transform="matrix(14,0,0,14,379.8,603.9)" />
<use xlink:href="#f6_8l" transform="matrix(14,0,0,14,385.4,603.9)" />
<use xlink:href="#f6_am" transform="matrix(14,0,0,14,165.3,662.3)" />
<use xlink:href="#f6_c7" transform="matrix(14,0,0,14,186.8,662.3)" />
<use xlink:href="#f6_d8" transform="matrix(14,0,0,14,198.9,662.3)" />
<use xlink:href="#f6_bz" transform="matrix(14,0,0,14,210.2,662.3)" />
<use xlink:href="#f6_ct" transform="matrix(14,0,0,14,223.5,662.3)" />
<use xlink:href="#f6_c1" transform="matrix(14,0,0,14,229.1,662.3)" />
<use xlink:href="#f6_ct" transform="matrix(14,0,0,14,237.5,662.3)" />
<use xlink:href="#f6_by" transform="matrix(14,0,0,14,248.8,662.3)" />
<use xlink:href="#f6_d5" transform="matrix(14,0,0,14,262.9,662.3)" />
<use xlink:href="#f6_n0" transform="matrix(14,0,0,14,262.7,662.3)" />
<use xlink:href="#f6_bg" transform="matrix(14,0,0,14,275.9,662.3)" />
<use xlink:href="#f6_cv" transform="matrix(14,0,0,14,290.1,662.3)" />
<use xlink:href="#f6_k" transform="matrix(14,0,0,14,295.8,662.3)" />
<use xlink:href="#f6_bg" transform="matrix(14,0,0,14,306.6,662.3)" />
<use xlink:href="#f6_dj" transform="matrix(14,0,0,14,318,662.7)" />
<use xlink:href="#f6_bb" transform="matrix(14,0,0,14,320.9,662.3)" />
<use xlink:href="#f6_c3" transform="matrix(14,0,0,14,333.5,662.3)" />
<use xlink:href="#f6_bt" transform="matrix(14,0,0,14,353.9,662.3)" />
<use xlink:href="#f6_d4" transform="matrix(14,0,0,14,365.7,662.3)" />
<use xlink:href="#f6_bh" transform="matrix(14,0,0,14,371.3,662.3)" />
<use xlink:href="#f6_ct" transform="matrix(14,0,0,14,388.1,662.3)" />
<use xlink:href="#f6_bm" transform="matrix(14,0,0,14,393.7,662.3)" />
<use xlink:href="#f6_cv" transform="matrix(14,0,0,14,406.4,662.3)" />
<use xlink:href="#f6_bc" transform="matrix(14,0,0,14,417.6,662.3)" />
<use xlink:href="#f6_bo" transform="matrix(14,0,0,14,431.5,662.3)" />
<use xlink:href="#f6_cv" transform="matrix(14,0,0,14,445.9,662.3)" />
<use xlink:href="#f6_k" transform="matrix(14,0,0,14,451.5,662.3)" />
<use xlink:href="#f6_am" transform="matrix(14,0,0,14,106.9,695.5)" />
<use xlink:href="#f6_c7" transform="matrix(14,0,0,14,128.4,695.5)" />
<use xlink:href="#f6_d8" transform="matrix(14,0,0,14,140.4,695.5)" />
<use xlink:href="#f6_bz" transform="matrix(14,0,0,14,151.7,695.5)" />
<use xlink:href="#f6_ct" transform="matrix(14,0,0,14,165.1,695.5)" />
<use xlink:href="#f6_c1" transform="matrix(14,0,0,14,170.7,695.5)" />
<use xlink:href="#f6_ct" transform="matrix(14,0,0,14,179.1,695.5)" />
<use xlink:href="#f6_by" transform="matrix(14,0,0,14,190.3,695.5)" />
<use xlink:href="#f6_d5" transform="matrix(14,0,0,14,204.4,695.5)" />
<use xlink:href="#f6_n0" transform="matrix(14,0,0,14,204.3,695.5)" />
<use xlink:href="#f6_bg" transform="matrix(14,0,0,14,217.4,695.5)" />
<use xlink:href="#f6_cv" transform="matrix(14,0,0,14,231.7,695.5)" />
<use xlink:href="#f6_k" transform="matrix(14,0,0,14,237.3,695.5)" />
<use xlink:href="#f6_cu" transform="matrix(14,0,0,14,242.5,695.5)" />
<use xlink:href="#f6_b9" transform="matrix(14,0,0,14,248.2,695.5)" />
<use xlink:href="#f6_bo" transform="matrix(14,0,0,14,263.7,695.5)" />
<use xlink:href="#f6_cu" transform="matrix(14,0,0,14,283.7,695.5)" />
<use xlink:href="#f6_c7" transform="matrix(14,0,0,14,289.3,695.5)" />
<use xlink:href="#f6_br" transform="matrix(14,0,0,14,301.4,695.5)" />
<use xlink:href="#f6_am" transform="matrix(14,0,0,14,318.7,695.5)" />
<use xlink:href="#f6_c7" transform="matrix(14,0,0,14,340.2,695.5)" />
<use xlink:href="#f6_cw" transform="matrix(14,0,0,14,352.8,695.4)" />
<use xlink:href="#f6_bq" transform="matrix(14,0,0,14,358,695.5)" />
<use xlink:href="#f6_d8" transform="matrix(14,0,0,14,371.2,695.5)" />
<use xlink:href="#f6_c1" transform="matrix(14,0,0,14,376.8,695.5)" />
<use xlink:href="#f6_d4" transform="matrix(14,0,0,14,384.7,695.5)" />
<use xlink:href="#f6_gk" transform="matrix(14,0,0,14,390.8,695.5)" />
<use xlink:href="#f6_ct" transform="matrix(14,0,0,14,402.6,695.5)" />
<use xlink:href="#f6_c1" transform="matrix(14,0,0,14,408.2,695.5)" />
<use xlink:href="#f6_bz" transform="matrix(14,0,0,14,422.3,695.5)" />
<use xlink:href="#f6_ct" transform="matrix(14,0,0,14,435.6,695.5)" />
<use xlink:href="#f6_c1" transform="matrix(14,0,0,14,441.2,695.5)" />
<use xlink:href="#f6_ct" transform="matrix(14,0,0,14,449.6,695.5)" />
<use xlink:href="#f6_by" transform="matrix(14,0,0,14,460.9,695.5)" />
<use xlink:href="#f6_d5" transform="matrix(14,0,0,14,475,695.5)" />
<use xlink:href="#f6_n0" transform="matrix(14,0,0,14,474.8,695.5)" />
<use xlink:href="#f6_bg" transform="matrix(14,0,0,14,488,695.5)" />
<use xlink:href="#f6_cv" transform="matrix(14,0,0,14,502.3,695.5)" />
<use xlink:href="#f6_k" transform="matrix(14,0,0,14,507.9,695.5)" />
<use xlink:href="#f6_nr" transform="matrix(14,0,0,14,215.7,728.8)" />
<use xlink:href="#f6_c1" transform="matrix(14,0,0,14,221.3,728.8)" />
<use xlink:href="#f6_bz" transform="matrix(14,0,0,14,229.7,728.8)" />
<use xlink:href="#f6_nv" transform="matrix(14,0,0,14,243.1,728.8)" />
<use xlink:href="#f6_bh" transform="matrix(14,0,0,14,248.7,728.8)" />
<use xlink:href="#f6_bz" transform="matrix(14,0,0,14,265.5,728.8)" />
<use xlink:href="#f6_b9" transform="matrix(14,0,0,14,284.5,728.8)" />
<use xlink:href="#f6_c1" transform="matrix(14,0,0,14,300,728.8)" />
<use xlink:href="#f6_bp" transform="matrix(14,0,0,14,308.3,728.8)" />
<use xlink:href="#f6_ct" transform="matrix(14,0,0,14,320.7,728.8)" />
<use xlink:href="#f6_am" transform="matrix(14,0,0,14,331.9,728.8)" />
<use xlink:href="#f6_c7" transform="matrix(14,0,0,14,353.4,728.8)" />
<use xlink:href="#f6_bg" transform="matrix(14,0,0,14,365.5,728.8)" />
<use xlink:href="#f6_d8" transform="matrix(14,0,0,14,379.8,728.8)" />
<use xlink:href="#f6_8l" transform="matrix(14,0,0,14,385.4,728.8)" />
<use xlink:href="#f7_4r" transform="matrix(9,0,0,9,290.2,795.2)" />
<use xlink:href="#f8_s" transform="matrix(9,0,0,9,303,795.2)" />
<use xlink:href="#f8_k" transform="matrix(9,0,0,9,310.7,795.2)" />
<use xlink:href="#f7_4r" transform="matrix(9,0,0,9,321.3,795.2)" />
</g>
</g>
<image preserveAspectRatio="none" x="22" y="801" width="581" height="86" xlink:href="img/1.png"/>
<path d="M213.1,97.4H403.3v1.1H213.1V97.4Z" class="g1_86"/>
<image preserveAspectRatio="none" x="202" y="14" width="217" height="26" xlink:href="img/2.png"/>
<defs>
<path d="M289,-65L115,29V822H0L-86,937l32,64H116c0,0,-99,102,-99,229c0,0,0,128,92,210c0,0,93,82,236,82c0,0,135,0,271,-93c0,0,136,-92,321,-312l-91,-90c0,0,-140,143,-233,209c0,0,-92,66,-187,66c0,0,-85,0,-140,-52c0,0,-55,-51,-55,-129c0,0,0,-64,36,-120H463L548,886L516,822H257L359,749V-31L289,-65Z"
id="f5_nr"
transform="scale(0.001,-0.001)"/>

<path d="M545,-97L35,405L87,542H295c0,0,1,5,1,280H0L-86,937l32,64H729L814,886L782,822H445L550,749V547c0,0,0,-75,-41,-127c0,0,-41,-52,-129,-111L709,110V41L545,-97Z"
id="f5_c1"
transform="scale(0.001,-0.001)"/>

<path d="M686,512V822H333L435,749l2,-237ZM860,-65L686,29V298H440V168L348,118c0,0,-90,30,-190,128c0,0,-100,98,-127,183l52,83H203L189,822H0L-86,937l32,64H1045l86,-115l-33,-64H828L930,749V-31L860,-65Z"
id="f5_bz"
transform="scale(0.001,-0.001)"/>

<path d="M289,-65L115,29V822H0L-86,937l32,64H118c0,0,-92,101,-92,218c0,0,0,144,128,229c0,0,129,86,343,86c0,0,200,0,455,-95c0,0,255,-95,591,-310l-79,-99c0,0,-260,139,-473,214c0,0,-213,76,-391,76c0,0,-162,0,-261,-60c0,0,-99,-59,-99,-158c0,0,0,-51,29,-101H463L548,886L516,822H257L359,749V-31L289,-65Z"
id="f5_nv"
transform="scale(0.001,-0.001)"/>

<path d="M284,413l313,62c0,0,109,-44,211,-44c0,0,96,0,150,43V822H646L749,749V539H380c0,0,-123,0,-123,-73c0,0,0,-26,27,-53ZM510,-393L316,-91c0,0,-96,26,-214,108l54,206l113,-1L362,84l31,-1c0,0,99,0,183,56c0,0,84,57,87,125L417,200c0,0,-162,48,-264,141c0,0,-103,94,-103,195c0,0,0,84,73,142c0,0,73,57,207,57H529v87H0L-86,937l32,64H1317l86,-115l-33,-64H1100l102,-73V-31l-70,-34L958,29V249l-44,-5c0,0,-32,0,-83,11c0,0,12,-41,12,-81c0,0,0,-127,-102,-193c0,0,-102,-67,-235,-82L694,-260L510,-393Z"
id="f5_bh"
transform="scale(0.001,-0.001)"/>

<path d="M300,310c13,0,56,2,103,25c0,0,58,27,100,81V523c0,0,-46,16,-83,16c0,0,-69,0,-111,-45c0,0,-42,-45,-42,-104c0,0,0,-45,28,-80c0,0,2,0,5,0ZM677,-65L503,29V144c0,0,-32,-11,-75,-11c0,0,-147,0,-272,98c0,0,-125,99,-125,233c0,0,0,110,75,185c0,0,76,74,195,74l67,-6L503,646V822H0L-86,937l32,64H1245l86,-115l-32,-64H645L747,749V622c0,0,81,58,165,58c0,0,122,0,213,-99c0,0,91,-98,91,-230c0,0,0,-204,-253,-371L791,157c0,0,110,83,164,139c0,0,53,55,53,106c0,0,0,55,-53,55c0,0,-83,0,-208,-145V-31L677,-65Z"
id="f5_b9"
transform="scale(0.001,-0.001)"/>

<path d="M342,-69c0,0,-146,139,-224,256c0,0,-78,117,-78,226c0,0,0,120,90,193c0,0,90,72,243,72H599V822H0L-86,937l32,64H959l86,-115l-32,-64H741L843,749V-31L773,-65L599,29V445H448c0,0,-81,0,-123,-34c0,0,-42,-34,-42,-90c0,0,0,-54,43,-118c0,0,44,-64,143,-163L342,-69Z"
id="f5_bp"
transform="scale(0.001,-0.001)"/>

<path d="M277,-65L102,29V822H0L-86,937l32,64H463L548,886L516,822H244L347,749V-31L277,-65Z"
id="f5_ct"
transform="scale(0.001,-0.001)"/>

<path d="M1128,-65L953,29V322c0,0,-23,-9,-52,-9c0,0,-47,0,-102,25c0,0,11,-42,11,-83c0,0,0,-116,-78,-192c0,0,-78,-76,-203,-76c0,0,-129,0,-261,94c0,0,-132,95,-244,339l123,78c0,0,70,-150,146,-225c0,0,75,-76,168,-76c0,0,72,0,113,40c0,0,42,40,42,90c0,0,0,84,-77,115L387,350L249,556c0,0,86,77,199,83c0,0,119,73,119,163c0,0,0,25,-15,40c0,0,-4,0,-10,0c-19,0,-67,-3,-124,-33c0,0,-76,-39,-146,-106L142,872c0,0,61,65,140,107c0,0,79,42,158,42c0,0,121,0,216,-91c0,0,96,-91,96,-197c0,0,0,-96,-84,-186c0,0,62,-46,142,-46c0,0,88,0,143,52V822H834L749,937l32,64h994l86,-115l-32,-64H1557l102,-73V-31l-70,-34L1415,29V822H1095l103,-73V-31l-70,-34Z"
id="f5_am"
transform="scale(0.001,-0.001)"/>

<path d="M371,296c0,0,71,0,139,34c0,0,69,34,109,92v90c0,0,-72,36,-148,36c0,0,-84,0,-131,-47c0,0,-47,-47,-47,-111c0,0,0,-49,28,-89l50,-5ZM793,-65L619,29V134c0,0,-55,-27,-122,-27c0,0,-98,0,-207,48c0,0,-108,48,-182,132c0,0,-73,84,-73,188c0,0,0,113,83,191c0,0,84,78,212,78c0,0,41,0,84,-9L619,643V822H0L-86,937l32,64H978l85,-115l-32,-64H761L863,749V-31L793,-65Z"
id="f5_c7"
transform="scale(0.001,-0.001)"/>

<path d="M952,-65L778,29V474H600c0,0,94,-91,94,-202c0,0,0,-98,-66,-163c0,0,-66,-65,-171,-65c0,0,-165,0,-280,155C177,199,63,354,-7,616l152,50c0,0,67,-223,120,-299c0,0,53,-77,122,-77c0,0,47,0,73,29c0,0,26,28,26,71c0,0,0,79,-73,128L298,559V681H778V822H0L-86,937l32,64H1137l85,-115l-32,-64H920l102,-73V-31L952,-65Z"
id="f5_bg"
transform="scale(0.001,-0.001)"/>

<path d="M277,-65L102,29V822H0L-86,937l32,64H86L18,1111c0,0,-67,122,-168,122c0,0,-81,0,-202,-80l-128,250c0,0,122,77,232,77c0,0,196,0,356,-250L252,1001H463L548,886L516,822H244L347,749V-31L277,-65Z"
id="f5_d8"
transform="scale(0.001,-0.001)"/>

<path d="M315,-63c0,0,-42,17,-92,55c0,0,-50,37,-76,74c0,0,61,120,136,165c0,0,91,-38,160,-130C443,101,405,-2,315,-63Z"
id="f5_m"
transform="scale(0.001,-0.001)"/>

<path d="M959,-49L869,8V367c0,0,-32,-13,-64,-13c0,0,-50,0,-110,25c0,0,23,-52,23,-109c0,0,0,-103,-70,-170c0,0,-70,-66,-182,-66c0,0,-110,0,-222,82c0,0,-111,83,-213,293l68,42c0,0,72,-155,152,-231c0,0,81,-76,178,-76c0,0,83,0,131,49c0,0,48,48,48,117c0,0,0,54,-30,100c0,0,-31,47,-91,65L325,391L257,512c0,0,68,53,156,56c0,0,140,72,140,179c0,0,0,69,-52,99c0,0,-4,1,-11,1c-19,0,-66,-4,-123,-30c0,0,-78,-35,-142,-96L150,823c0,0,119,117,253,117c0,0,98,0,175,-71c0,0,77,-70,77,-159c0,0,0,-103,-94,-180c0,0,39,-23,73,-56c0,0,52,-22,109,-22c0,0,77,0,126,38V822H727l-46,76l14,31h840l46,-76l-13,-31H1332l66,-58V-39l-37,-10L1271,8V822H930l66,-58V-39L959,-49Z"
id="f6_am"
transform="scale(0.001,-0.001)"/>

<path d="M325,240c0,0,77,0,154,35c0,0,77,35,120,99V500c0,0,-118,73,-222,73c0,0,-97,0,-151,-54c0,0,-53,-53,-53,-128c0,0,0,-73,49,-125c0,0,38,-26,103,-26ZM689,-49L599,8V199c0,0,-73,-65,-179,-65c0,0,-134,0,-252,96c0,0,-118,95,-118,221c0,0,0,102,78,171c0,0,78,69,190,69c0,0,38,0,75,-10L599,582V822H0l-45,76l14,31H863l46,-76L895,822H660l66,-58V-39L689,-49Z"
id="f6_c7"
transform="scale(0.001,-0.001)"/>

<path d="M228,-49L138,8V822H0l-45,76l14,31H119L-33,1144c0,0,-70,92,-157,92c0,0,-69,0,-159,-58l-72,118c0,0,89,73,181,73c0,0,140,0,257,-170L205,929H402l46,-76L434,822H199l65,-58V-39L228,-49Z"
id="f6_d8"
transform="scale(0.001,-0.001)"/>

<path d="M689,445V822H286l65,-58l8,-319ZM779,-49L689,8V328H370V180L296,150c0,0,-56,35,-120,104c0,0,-63,70,-89,131l41,60H238L223,822H0l-45,76l14,31H953l46,-76L985,822H750l66,-58V-39L779,-49Z"
id="f6_bz"
transform="scale(0.001,-0.001)"/>

<path d="M228,-49L138,8V822H0l-45,76l14,31H402l46,-76L434,822H199l65,-58V-39L228,-49Z"
id="f6_ct"
transform="scale(0.001,-0.001)"/>

<path d="M527,-71L52,414l34,92H277c0,0,12,32,12,72V822H0l-45,76l14,31H599l46,-76L631,822H350l66,-55V564c0,0,0,-96,-152,-248L610,34L611,8L527,-71Z"
id="f6_c1"
transform="scale(0.001,-0.001)"/>

<path d="M823,-49L733,8V339H445V191L371,160c0,0,-56,36,-120,105c0,0,-63,70,-89,131l41,59H313V735c0,0,0,99,-55,140c0,0,-3,1,-8,1c-16,0,-48,-3,-71,-23c0,0,-31,-26,-31,-66c0,0,0,-69,81,-113L189,620C189,620,31,720,31,828c0,0,0,61,45,99c0,0,46,37,109,37c0,0,96,0,173,-86c0,0,76,-87,79,-194V455H733V822H556l-46,76l14,31H998l45,-76l-13,-31H794l66,-58V-39L823,-49Z"
id="f6_by"
transform="scale(0.001,-0.001)"/>

<path d="M-214,860l-227,219c0,0,-73,70,-148,70c0,0,-67,0,-160,-58l-72,117c0,0,83,71,176,71c0,0,120,0,232,-124L-221,940l-102,294c0,0,-64,179,-189,179c0,0,-60,0,-133,-33l-60,125c0,0,84,47,164,47c0,0,200,0,281,-276L-150,901l-23,-15l-41,-26Z"
id="f6_d5"
transform="scale(0.001,-0.001)"/>

<path d="M527,-71L52,414l34,92H277c0,0,12,32,12,72V822H0l-45,76l14,31H940l45,-76L972,822H350l66,-55V570c0,0,146,98,247,98c0,0,95,0,167,-73c0,0,71,-72,71,-167c0,0,0,-77,-53,-142c0,0,-54,-64,-159,-136l-89,99c0,0,100,70,152,121c0,0,52,52,52,105c0,0,0,34,-23,60c0,0,-22,26,-72,26c0,0,-139,0,-434,-252L610,34L611,8L527,-71Z"
id="f6_n0"
transform="scale(0.001,-0.001)"/>

<path d="M845,-49L755,8V513H497c0,0,61,-45,93,-110c0,0,33,-64,33,-128c0,0,0,-90,-58,-144c0,0,-59,-53,-143,-53c0,0,-133,0,-234,139C188,217,87,356,20,596l76,24c0,0,60,-201,127,-306c0,0,67,-105,160,-105c0,0,57,0,91,36c0,0,33,36,33,91c0,0,0,84,-73,159L295,558v71H755V822H0l-45,76l14,31H1019l46,-76l-14,-31H816l66,-58V-39L845,-49Z"
id="f6_bg"
transform="scale(0.001,-0.001)"/>

<path d="M228,-49L138,8V822H0l-45,76l14,31H138c0,0,-109,342,-284,342c0,0,-62,0,-102,-40c0,0,-40,-39,-40,-93c0,0,0,-61,51,-134l-42,-32c0,0,-128,113,-128,226c0,0,0,79,60,136c0,0,61,56,154,56c0,0,137,0,249,-125c0,0,112,-125,169,-336H402l46,-76L434,822H199l65,-58V-39L228,-49Z"
id="f6_cv"
transform="scale(0.001,-0.001)"/>

<path d="M108,-222l-44,58c0,0,96,81,104,164L89,61c0,0,12,83,93,122c0,0,50,-15,79,-55c0,0,29,-39,29,-90c0,0,0,-69,-48,-142c0,0,-48,-72,-134,-118Z"
id="f6_k"
transform="scale(0.001,-0.001)"/>

<path d="M228,-49L138,8V822H0l-45,76l14,31H133c0,0,-93,95,-93,206c0,0,0,96,68,159c0,0,68,63,179,63c0,0,118,0,228,-81c0,0,110,-80,258,-262L720,970L588,1109c0,0,-133,133,-253,133c0,0,-78,0,-127,-46c0,0,-49,-46,-49,-119c0,0,0,-69,56,-148H402l46,-76L434,822H199l65,-58V-39L228,-49Z"
id="f6_nr"
transform="scale(0.001,-0.001)"/>

<path d="M228,-49L138,8V822H0l-45,76l14,31H134c0,0,-90,95,-90,199c0,0,0,111,99,177c0,0,98,67,271,67c0,0,202,0,439,-91c0,0,238,-91,475,-263l-48,-49c0,0,-469,288,-812,288c0,0,-138,0,-220,-49c0,0,-83,-50,-83,-142c0,0,0,-64,50,-137H402l46,-76L434,822H199l65,-58V-39L228,-49Z"
id="f6_nv"
transform="scale(0.001,-0.001)"/>

<path d="M252,385l310,78l22,-9c0,0,107,-43,200,-43c0,0,91,0,151,41V822H603l66,-58V585H373c0,0,-184,0,-184,-99c0,0,0,-48,63,-101ZM483,-305L295,-10c0,0,-90,22,-156,74l41,170h66L351,63c0,0,126,4,207,62c0,0,82,58,82,139c0,0,0,37,-18,71L365,266c0,0,-110,15,-197,102c0,0,-87,87,-87,176c0,0,0,69,59,117c0,0,59,48,172,48H550V822H0l-45,76l14,31H1199l46,-76l-14,-31H996l66,-58V-39l-37,-10L935,8V318c0,0,-41,-15,-78,-15c0,0,-52,0,-131,30c0,0,32,-55,32,-111c0,0,0,-109,-98,-179c0,0,-98,-69,-254,-69L599,-216L483,-305Z"
id="f6_bh"
transform="scale(0.001,-0.001)"/>

<path d="M283,260c0,0,122,0,209,113V513c0,0,-90,51,-160,51c0,0,-80,0,-129,-50c0,0,-49,-50,-49,-118c0,0,0,-60,35,-110c0,0,45,-26,94,-26ZM582,-49L492,8V211c0,0,-63,-54,-141,-54c0,0,-113,0,-213,92c0,0,-100,92,-100,205c0,0,0,93,69,157c0,0,69,64,162,64c0,0,32,0,64,-9L492,590V822H0l-45,76l14,31H1108l45,-76l-13,-31H553l66,-58V524c0,0,91,89,192,89c0,0,98,0,171,-79c0,0,72,-79,72,-186c0,0,0,-178,-224,-330L736,124c0,0,219,153,219,269c0,0,0,44,-26,75c0,0,-26,32,-81,32c0,0,-109,0,-229,-155V-39L582,-49Z"
id="f6_b9"
transform="scale(0.001,-0.001)"/>

<path d="M347,-57C347,-57,66,211,66,394c0,0,0,98,74,164c0,0,74,65,225,65H616V822H0l-45,76l14,31H880l46,-76L912,822H677l66,-58V-39L706,-49L616,8V500H428c0,0,-239,0,-239,-161c0,0,0,-136,214,-343L347,-57Z"
id="f6_bp"
transform="scale(0.001,-0.001)"/>

<path d="M500,44c0,0,78,0,152,57c0,0,75,56,98,134V350c0,0,-130,0,-223,-64c0,0,-93,-63,-93,-148c0,0,0,-54,43,-92l23,-2ZM321,561c0,0,66,46,101,105c0,0,36,60,36,113c0,0,0,28,-9,48c0,0,-35,41,-87,41c0,0,-50,0,-89,-38c0,0,-39,-39,-39,-100c0,0,0,-94,87,-169ZM840,-111l-90,59V32c0,0,-69,-68,-156,-68c0,0,-97,0,-187,64c0,0,-89,64,-89,146c0,0,0,61,48,123c0,0,48,62,141,94c0,0,-69,20,-140,57L105,272L20,364L260,519c0,0,-144,118,-144,246c0,0,0,81,57,140c0,0,56,59,140,59c0,0,96,0,171,-79c0,0,75,-78,75,-168c0,0,0,-118,-133,-222c0,0,107,-44,232,-44l92,6V822H628l-46,76l14,31h418l46,-76l-13,-31H811l66,-58V-100l-37,-11Z"
id="f6_ke"
transform="scale(0.001,-0.001)"/>

<path d="M663,-49L573,8V445H299V280L226,251c0,0,-105,99,-162,238l63,72H573V822H0l-45,76l14,31H837l46,-76L869,822H634l66,-58V-39L663,-49Z"
id="f6_bt"
transform="scale(0.001,-0.001)"/>

<path d="M959,-49L869,8V367c0,0,-32,-13,-64,-13c0,0,-50,0,-110,25c0,0,23,-52,23,-109c0,0,0,-103,-70,-170c0,0,-70,-66,-182,-66c0,0,-110,0,-222,82c0,0,-111,83,-213,293l68,42c0,0,72,-155,152,-231c0,0,81,-76,178,-76c0,0,83,0,131,49c0,0,48,48,48,117c0,0,0,54,-30,100c0,0,-31,47,-91,65L325,391L257,512c0,0,68,53,156,56c0,0,140,72,140,179c0,0,0,69,-52,99c0,0,-4,1,-11,1c-19,0,-66,-4,-123,-30c0,0,-78,-35,-142,-96L150,823c0,0,119,117,253,117c0,0,98,0,175,-71c0,0,77,-70,77,-159c0,0,0,-103,-94,-180c0,0,39,-23,73,-56c0,0,52,-22,109,-22c0,0,77,0,126,38V822H727l-46,76l14,31h439l45,-76l-13,-31H930l66,-58V-39L959,-49Z"
id="f6_al"
transform="scale(0.001,-0.001)"/>

<path d="M799,475V822H350l66,-55V564c0,0,0,-43,-25,-89ZM527,-71L52,414l34,92H277c0,0,12,32,12,72V822H0l-45,76l14,31H1063l46,-76l-14,-31H860l66,-58V-39L889,-49L799,8V370H315L264,316L610,34L611,8L527,-71Z"
id="f6_cb"
transform="scale(0.001,-0.001)"/>

<path d="M226,-49c0,0,-66,24,-102,78c0,0,32,69,82,101c0,0,55,-20,100,-80c0,0,-26,-66,-80,-99Z"
id="f6_pc"
transform="scale(0.001,-0.001)"/>

<path d="M368,344c0,0,90,0,155,73V822H150l67,-58V438c0,0,46,-94,151,-94ZM613,-49L523,8V251c0,0,-48,-28,-103,-28c0,0,-122,0,-227,112C193,335,89,448,89,590V822H0l-45,76l14,31H1150l46,-76l-13,-31H584l65,-58V533c0,0,101,95,211,95c0,0,98,0,170,-79c0,0,73,-78,73,-185c0,0,0,-179,-225,-330L785,139c0,0,219,153,219,269c0,0,0,43,-26,75c0,0,-26,32,-80,32c0,0,-120,0,-249,-159V-39L613,-49Z"
id="f6_bw"
transform="scale(0.001,-0.001)"/>

<path d="M228,-49L138,8V822H0l-45,76l14,31H70L-65,1033c0,0,-90,65,-157,65c0,0,-67,0,-151,-53l-72,118c0,0,78,65,163,65c0,0,116,0,246,-120L153,930L46,1201c0,0,-71,166,-187,166c0,0,-52,0,-128,-33l-60,125c0,0,78,46,159,46c0,0,193,0,283,-271L215,929H402l46,-76L434,822H199l65,-58V-39L228,-49Z"
id="f6_d9"
transform="scale(0.001,-0.001)"/>

<path d="M-214,863l-199,281c0,0,-70,92,-157,92c0,0,-69,0,-159,-58l-72,118c0,0,89,73,180,73c0,0,141,0,258,-170L-155,901l-59,-38Z"
id="f6_d4"
transform="scale(0.001,-0.001)"/>

<path d="M0,822l-45,76l14,31H61l46,-76L93,822Z"
id="f6_no"
transform="scale(0.001,-0.001)"/>

<path d="M768,-49L678,8V202c0,0,-73,-58,-172,-58c0,0,-123,0,-240,94c0,0,-118,94,-179,237l20,55c0,0,134,12,215,70c0,0,81,57,81,141c0,0,0,90,-67,134l-26,3c0,0,-46,0,-74,-29c0,0,-28,-30,-28,-68c0,0,0,-55,82,-109L252,620C252,620,93,720,93,820c0,0,0,65,47,104c0,0,46,40,114,40c0,0,99,0,179,-83c0,0,80,-83,82,-197c0,0,0,-93,-79,-165c0,0,-78,-73,-199,-97c0,0,29,-104,88,-158c0,0,42,-16,92,-16c0,0,78,0,151,38c0,0,74,38,110,111V822H553l-46,76l14,31H943l45,-76L975,822H739l66,-58V-39L768,-49Z"
id="f6_bq"
transform="scale(0.001,-0.001)"/>

<path d="M413,-59C413,-59,53,193,53,416c0,0,0,97,66,164c0,0,66,66,156,66c0,0,61,0,110,-30L487,507c0,0,92,126,257,126l35,-2V822H0l-45,76l14,31H1043l46,-76l-13,-31H840l66,-58V-39L869,-49L779,8V547c0,0,-101,-5,-165,-90c0,0,-64,-86,-70,-222L507,225l-90,73c0,0,5,79,35,151c0,0,-59,66,-128,66c0,0,-57,0,-100,-38c0,0,-44,-39,-44,-109c0,0,0,-165,284,-360L413,-59Z"
id="f6_c3"
transform="scale(0.001,-0.001)"/>

<path d="M434,225c0,0,84,0,169,42c0,0,85,43,126,126V822H267c0,0,-64,-49,-64,-115c0,0,0,-79,90,-126c0,0,60,35,144,35l67,-6l75,-89L564,490l-51,7H493c0,0,-90,0,-142,-43c0,0,-52,-43,-52,-104c0,0,0,-60,51,-109c0,0,33,-16,84,-16ZM819,-49L729,8V197c0,0,-83,-76,-202,-76c0,0,-130,0,-237,91c0,0,-108,92,-108,196c0,0,0,72,53,128c0,0,-75,42,-115,97c0,0,-41,56,-41,113c0,0,0,38,22,76H0l-45,76l14,31H993l46,-76l-14,-31H790l66,-58V-39L819,-49Z"
id="f6_bc"
transform="scale(0.001,-0.001)"/>

<path d="M-234,-413c0,0,-210,0,-488,322l54,49c0,0,119,-128,209,-193c0,0,90,-65,177,-65c0,0,72,0,113,40c0,0,42,39,42,91c0,0,0,75,-78,106L-323,-181l-90,98c0,0,63,95,167,95c0,0,90,0,155,-69c0,0,66,-70,66,-164c0,0,0,-85,-60,-139c0,0,-61,-53,-149,-53Z"
id="f6_cw"
transform="scale(0.001,-0.001)"/>

<path d="M0,1062c0,0,-26,11,-60,36c0,0,-34,26,-51,49c0,0,39,81,91,110c0,0,60,-23,106,-85c0,0,-28,-70,-86,-110Z"
id="f6_dj"
transform="scale(0.001,-0.001)"/>

<path d="M374,248c0,0,77,0,149,36c0,0,71,37,110,107V822H284c0,0,138,-96,138,-208c0,0,0,-151,-228,-192c0,0,29,-104,89,-158c0,0,41,-16,91,-16ZM723,-49L633,8V200c0,0,-69,-56,-170,-56c0,0,-122,0,-240,94c0,0,-118,94,-179,237l20,55c0,0,133,17,187,44c0,0,55,28,55,84c0,0,0,45,-30,81c0,0,-30,36,-99,83H0l-45,76l14,31H897l46,-76L929,822H694l65,-58V-39L723,-49Z"
id="f6_c0"
transform="scale(0.001,-0.001)"/>

<path d="M254,-26c0,0,-84,16,-116,92c0,0,13,84,97,127c0,0,100,-36,112,-110C347,83,324,6,254,-26Zm458,0c0,0,-84,16,-116,92c0,0,14,84,98,127c0,0,99,-37,111,-110C805,83,782,6,712,-26Zm458,0c0,0,-84,16,-116,92c0,0,14,84,98,127c0,0,99,-36,111,-110c0,0,-22,-77,-93,-109Z"
id="f6_8l"
transform="scale(0.001,-0.001)"/>

<path d="M675,-274L602,21C602,21,550,3,498,3C498,3,347,3,210,118C210,118,73,232,73,373c0,0,0,113,84,184c0,0,84,71,222,72H524V822H0l-45,76l14,31H834l46,-76L866,822H585l66,-58V504l-3,2l3,-3H408c0,0,-95,0,-154,-53c0,0,-58,-53,-58,-132c0,0,0,-49,27,-100c0,0,28,-50,83,-84c0,0,44,-15,96,-15c0,0,91,0,160,46L535,303l101,48L773,188c0,0,-8,-28,-34,-66c0,0,-27,-38,-62,-64L813,-221L675,-274Z"
id="f6_br"
transform="scale(0.001,-0.001)"/>

<path d="M513,460c0,0,61,81,61,179c0,0,0,87,-45,143c0,0,-45,57,-116,57c0,0,-63,0,-102,-43c0,0,-39,-43,-39,-110c0,0,0,-90,68,-151c0,0,68,-61,173,-75ZM581,-83L278,167l-41,-4c0,0,-99,0,-130,37l47,168l51,12l78,-79c0,0,110,40,183,105c0,0,-141,23,-231,107c0,0,-90,84,-90,193c0,0,0,69,37,116H0l-45,76l14,31H1134l45,-76l-13,-31H930l66,-58V-39L959,-49L869,8V822H588c0,0,51,-44,75,-109c0,0,25,-64,25,-122c0,0,0,-105,-81,-213c0,0,-80,-108,-240,-176L658,18l2,-25L581,-83Z"
id="f6_c8"
transform="scale(0.001,-0.001)"/>

<path d="M-239,897c0,0,-82,61,-132,137c0,0,-50,75,-50,150c0,0,0,78,52,133c0,0,52,55,141,55c0,0,98,0,176,-64l-23,-69c0,0,-52,32,-104,32c0,0,-57,0,-95,-36c0,0,-38,-36,-38,-95c0,0,0,-115,117,-217l-44,-26Z"
id="f6_dr"
transform="scale(0.001,-0.001)"/>

<path d="M438,206c0,0,-119,0,-226,109c0,0,-108,108,-108,243V822H0l-45,76l14,31H542l46,-76L574,822H165l66,-58V408c0,0,46,-86,151,-86c0,0,61,0,119,32c0,0,58,33,95,91L669,338c0,0,-44,-66,-108,-99c0,0,-63,-33,-123,-33Z"
id="f6_ll"
transform="scale(0.001,-0.001)"/>

<path d="M342,324c0,0,45,0,75,34c0,0,31,33,31,100V822H165l66,-58V390c0,0,32,-66,111,-66ZM853,-49L762,8V822H509l65,-58V455c0,0,0,-134,-51,-185c0,0,-52,-52,-127,-52c0,0,-98,0,-195,99c0,0,-97,99,-97,209V822H0l-45,76l14,31H1027l46,-76l-14,-31H823l66,-58V-39L853,-49Z"
id="f6_bo"
transform="scale(0.001,-0.001)"/>

<path d="M228,-49L138,8V822H0l-45,76l14,31H134c0,0,-91,93,-91,202c0,0,0,105,85,170c0,0,86,65,236,65c0,0,340,0,742,-350l-50,-46c0,0,-182,135,-340,208c0,0,-158,73,-302,73c0,0,-113,0,-183,-48c0,0,-69,-48,-69,-132c0,0,0,-63,53,-142H402l46,-76L434,822H199l65,-58V-39L228,-49Z"
id="f6_nt"
transform="scale(0.001,-0.001)"/>

<path d="M487,-7c0,0,-88,0,-185,46c0,0,-97,47,-163,130c0,0,-66,83,-66,185c0,0,0,109,80,177c0,0,79,68,234,68H504V822H0l-45,76l14,31H827l45,-76L859,822H565l66,-58V474l-3,1l3,-3H396c0,0,-100,0,-152,-47c0,0,-53,-48,-53,-119c0,0,0,-104,93,-178c0,0,60,-20,118,-20c0,0,81,0,156,36c0,0,76,35,123,99l92,-99C773,144,723,70,645,31C645,31,567,-7,487,-7Z"
id="f6_bk"
transform="scale(0.001,-0.001)"/>

<path d="M548,-57c0,0,-122,0,-243,81c0,0,-122,81,-252,280l57,41C110,345,283,64,498,64c0,0,92,0,153,49c0,0,61,49,61,121c0,0,0,46,-28,84L440,237c0,0,-73,11,-139,55c0,0,-66,44,-105,105c0,0,-40,61,-40,119c0,0,0,72,62,125c0,0,62,53,184,53H625V822H0l-45,76l14,31H906l46,-76L938,822H678l66,-58V562H431c0,0,-164,0,-164,-99c0,0,0,-55,57,-102l261,82c0,0,104,-21,172,-98c0,0,68,-78,68,-171c0,0,0,-99,-76,-166c0,0,-77,-65,-201,-65Z"
id="f6_bm"
transform="scale(0.001,-0.001)"/>

<path d="M108,-433L-59,-214c0,0,-99,119,-191,119c0,0,-59,0,-96,-35c0,0,-36,-34,-36,-81c0,0,0,-49,42,-83l152,95l64,-116c0,0,-71,-58,-148,-58c0,0,-80,0,-146,63c0,0,-65,64,-65,144c0,0,0,77,62,131c0,0,61,53,142,53c0,0,138,0,296,-205L165,-393l-57,-40Z"
id="f6_cx"
transform="scale(0.001,-0.001)"/>

<path d="M727,-49L637,8V822H278l66,-58V226L270,196c0,0,-64,36,-122,98c0,0,-58,62,-79,122l43,59H217V822H0l-45,76l14,31H901l46,-76L933,822H698l66,-58V-39L727,-49Z"
id="f6_bb"
transform="scale(0.001,-0.001)"/>

<path d="M471,-26c0,0,-259,0,-448,396l70,43C93,413,240,98,442,98c0,0,79,0,132,46c0,0,54,45,54,120c0,0,0,61,-38,116c0,0,-38,54,-107,72L322,370L255,492c0,0,66,53,156,56c0,0,128,51,128,153c0,0,0,77,-65,121H0l-45,76l14,31H813l46,-76L845,822H578c0,0,76,-66,76,-157c0,0,0,-95,-87,-156c0,0,84,-48,131,-123c0,0,48,-76,48,-158c0,0,0,-109,-78,-182c0,0,-78,-72,-197,-72Z"
id="f6_ap"
transform="scale(0.001,-0.001)"/>

<path d="M388,325c0,0,58,0,112,31c0,0,53,31,84,86V822H165l69,-58V408c0,0,47,-83,154,-83ZM674,-49L584,8V257c0,0,-61,-51,-141,-51c0,0,-125,0,-232,109c0,0,-107,108,-107,243V822H0l-45,76l14,31H848l46,-76L880,822H645l65,-58V-39L674,-49Z"
id="f6_bv"
transform="scale(0.001,-0.001)"/>

<path d="M228,-49L138,8V822H0l-45,76l14,31H134c0,0,-91,92,-91,191c0,0,0,105,85,170c0,0,84,65,219,65c0,0,128,0,293,-76c0,0,165,-77,362,-263L958,966c0,0,-177,143,-303,210c0,0,-125,68,-244,68c0,0,-107,0,-175,-50c0,0,-68,-50,-68,-131c0,0,0,-61,49,-134H402l46,-76L434,822H199l65,-58V-39L228,-49Z"
id="f6_cu"
transform="scale(0.001,-0.001)"/>

<path d="M688,-243c0,0,-256,53,-408,173c0,0,-152,119,-152,270c0,0,0,101,68,171c0,0,-101,84,-101,179c0,0,0,64,53,112c0,0,54,47,191,47H587V822H0l-45,76l14,31H830l45,-76L862,822H640l66,-58V585H362c0,0,-159,-1,-159,-92c0,0,0,-41,46,-80c0,0,76,47,183,47c0,0,135,0,230,-76c0,0,96,-75,96,-187C758,197,758,67,629,2L545,104c0,0,49,30,81,75c0,0,32,44,32,82c0,0,0,16,-4,26c0,0,-64,58,-167,58c0,0,-97,0,-166,-50v-2c0,0,-67,-52,-67,-131c0,0,0,-116,132,-199c0,0,132,-84,334,-132l-32,-74Z"
id="f6_cc"
transform="scale(0.001,-0.001)"/>

<path d="M373,-262c13,0,88,3,157,58c0,0,77,60,95,145L597,43C597,43,309,2,309,-158c0,0,0,-70,62,-104c0,0,1,0,2,0ZM710,-386l-41,159c0,0,-70,-107,-208,-107c0,0,-108,0,-187,65c0,0,-78,64,-78,151c0,0,0,55,33,101c0,0,34,45,87,67L273,72c0,0,-84,47,-142,130c0,0,-58,82,-58,172c0,0,0,110,82,181c0,0,82,71,218,74H524V822H0l-45,76l14,31H842l46,-76L874,822H585l66,-58V504l-3,2l3,-3H408c0,0,-95,0,-154,-53c0,0,-58,-53,-58,-132c0,0,0,-49,27,-100c0,0,28,-50,83,-84c0,0,48,-16,108,-16c0,0,90,0,150,39L535,303l101,48L773,188c0,0,-14,-49,-98,-119L823,-338L710,-386Z"
id="f6_gk"
transform="scale(0.001,-0.001)"/>

<path d="M725,307c0,0,-95,0,-218,78c0,0,-123,78,-188,78c0,0,-54,0,-95,-34c0,0,-41,-34,-73,-100L93,362c0,0,38,88,101,146c0,0,63,59,148,59c0,0,90,0,214,-78c0,0,124,-79,188,-79c0,0,63,0,106,34c0,0,42,33,85,104l60,-40c0,0,-32,-66,-101,-134c0,0,-70,-67,-169,-67Z"
id="f7_4r"
transform="scale(0.001,-0.001)"/>

<path d="M423,92c0,0,97,0,159,62c0,0,62,62,62,157c0,0,0,97,-64,160c0,0,-64,64,-161,64c0,0,-96,0,-158,-63c0,0,-62,-62,-62,-156c0,0,0,-58,27,-111c0,0,27,-54,81,-84c0,0,54,-29,116,-29Zm0,552c0,0,78,0,127,49c0,0,49,49,49,120c0,0,0,74,-50,124c0,0,-51,51,-128,51c0,0,-77,0,-127,-50c0,0,-51,-49,-51,-118c0,0,0,-77,50,-126c0,0,50,-50,130,-50ZM422,-18c0,0,-162,0,-261,95c0,0,-99,96,-99,239c0,0,0,107,54,179c0,0,54,72,154,98c0,0,-84,31,-124,87c0,0,-40,57,-40,136c0,0,0,119,85,201c0,0,86,81,229,81c0,0,143,0,230,-83c0,0,87,-83,87,-203c0,0,0,-76,-40,-132c0,0,-39,-56,-121,-87c0,0,101,-33,154,-106c0,0,52,-73,52,-174c0,0,0,-141,-99,-236c0,0,-99,-95,-261,-95Z"
id="f8_s"
transform="scale(0.001,-0.001)"/>

<path d="M420,92c0,0,92,0,155,89c0,0,64,89,64,358c0,0,0,270,-63,359c0,0,-63,89,-158,89c0,0,-92,0,-147,-79c0,0,-70,-100,-70,-369c0,0,0,-269,63,-358c0,0,63,-89,156,-89Zm0,-110c0,0,-158,0,-248,112C172,94,64,231,64,539c0,0,0,194,39,313c0,0,40,118,119,182c0,0,79,64,198,64c0,0,88,0,155,-35c0,0,66,-36,109,-103c0,0,43,-66,68,-162c0,0,24,-96,24,-259c0,0,0,-192,-39,-311C737,228,697,110,619,46c0,0,-79,-64,-199,-64Z"
id="f8_k"
transform="scale(0.001,-0.001)"/>


</defs>
</svg>