<?xml version="1.0" encoding="UTF-8" standalone="no"?>
<!DOCTYPE svg PUBLIC "-//W3C//DTD SVG 1.1//EN"
"http://www.w3.org/Graphics/SVG/1.1/DTD/svg11.dtd">
<svg viewBox="0 0 641 910" version="1.1" xmlns="http://www.w3.org/2000/svg" xmlns:xlink="http://www.w3.org/1999/xlink">
<defs>
<clipPath id="c0_95"><path d="M0,909.8V0H641.7V909.8Z"/></clipPath>
<clipPath id="c1_95"><path d="M0,908.6V0H641.7V908.6Z"/></clipPath>
<style type="text/css"><![CDATA[
.g0_95{
fill: #FFFFFF;
}
.g1_95{
}
]]></style>
</defs>
<path d="M0,0H641.7V909.8H0V0Z" class="g0_95"/>
<path d="M0,0H641.7V909.8H0V0Z" class="g0_95"/>
<g clip-path="url(#c0_95)">
<path d="M0,-80061.6H641.7V26384H0V-80061.6Z" class="g0_95"/>
</g>
<path d="M0,0H641.7V908.6H0V0Z" class="g0_95"/>
<path d="M19.5,60.7H602.7v1.2H19.5V60.7Z" class="g1_95"/>
<g clip-path="url(#c1_95)">
<path d="M0,61.9H641.7V909.8H0V61.9Z" class="g0_95"/>
<g fill="#000000" >
<use xlink:href="#f5_bt" transform="matrix(14,0,0,14,236.3,96.3)" />
<use xlink:href="#f5_ct" transform="matrix(14,0,0,14,249.4,96.3)" />
<use xlink:href="#f5_b9" transform="matrix(14,0,0,14,255.9,96.3)" />
<use xlink:href="#f5_d8" transform="matrix(14,0,0,14,273.3,96.3)" />
<use xlink:href="#f5_ch" transform="matrix(14,0,0,14,279.8,96.3)" />
<use xlink:href="#f5_ct" transform="matrix(14,0,0,14,293,96.3)" />
<use xlink:href="#f5_c1" transform="matrix(14,0,0,14,305.2,96.3)" />
<use xlink:href="#f5_ct" transform="matrix(14,0,0,14,315.4,96.3)" />
<use xlink:href="#f5_bs" transform="matrix(14,0,0,14,327.5,96.3)" />
<use xlink:href="#f5_nt" transform="matrix(14,0,0,14,342.7,96.3)" />
<use xlink:href="#f5_bo" transform="matrix(14,0,0,14,349.1,96.3)" />
<use xlink:href="#f5_c0" transform="matrix(14,0,0,14,365.3,96.3)" />
<use xlink:href="#f5_ct" transform="matrix(14,0,0,14,379.3,96.3)" />
<use xlink:href="#f6_g" transform="matrix(14,0,0,14,228.3,129.5)" />
<use xlink:href="#f6_bp" transform="matrix(14,0,0,14,234.2,129.5)" />
<use xlink:href="#f6_bg" transform="matrix(14,0,0,14,246.5,129.5)" />
<use xlink:href="#f6_dr" transform="matrix(14,0,0,14,261.2,129.5)" />
<use xlink:href="#f6_pd" transform="matrix(14,0,0,14,266.4,129.5)" />
<use xlink:href="#f6_n0" transform="matrix(14,0,0,14,279.7,129.5)" />
<use xlink:href="#f6_bo" transform="matrix(14,0,0,14,292.8,129.5)" />
<use xlink:href="#f6_cv" transform="matrix(14,0,0,14,307.2,129.5)" />
<use xlink:href="#f6_bg" transform="matrix(14,0,0,14,312.8,129.5)" />
<use xlink:href="#f6_ct" transform="matrix(14,0,0,14,327,129.5)" />
<use xlink:href="#f6_c1" transform="matrix(14,0,0,14,332.7,129.5)" />
<use xlink:href="#f6_ct" transform="matrix(14,0,0,14,341,129.5)" />
<use xlink:href="#f6_c1" transform="matrix(14,0,0,14,352.3,129.5)" />
<use xlink:href="#f6_ct" transform="matrix(14,0,0,14,360.7,129.5)" />
<use xlink:href="#f6_bg" transform="matrix(14,0,0,14,366.3,129.5)" />
<use xlink:href="#f6_ct" transform="matrix(14,0,0,14,380.6,129.5)" />
<use xlink:href="#f6_h" transform="matrix(14,0,0,14,386.2,129.5)" />
<use xlink:href="#f6_bq" transform="matrix(14,0,0,14,116,187.9)" />
<use xlink:href="#f6_d8" transform="matrix(14,0,0,14,129.2,187.9)" />
<use xlink:href="#f6_bt" transform="matrix(14,0,0,14,134.8,187.9)" />
<use xlink:href="#f6_d4" transform="matrix(14,0,0,14,146.7,187.9)" />
<use xlink:href="#f6_bp" transform="matrix(14,0,0,14,152.2,187.9)" />
<use xlink:href="#f6_d8" transform="matrix(14,0,0,14,164.5,187.9)" />
<use xlink:href="#f6_lh" transform="matrix(14,0,0,14,175.8,187.9)" />
<use xlink:href="#f6_c0" transform="matrix(14,0,0,14,185.1,187.9)" />
<use xlink:href="#f6_ct" transform="matrix(14,0,0,14,197.6,187.9)" />
<use xlink:href="#f6_c7" transform="matrix(14,0,0,14,203.2,187.9)" />
<use xlink:href="#f6_d4" transform="matrix(14,0,0,14,215.4,187.9)" />
<use xlink:href="#f6_am" transform="matrix(14,0,0,14,221,187.9)" />
<use xlink:href="#f6_ba" transform="matrix(14,0,0,14,242.5,187.9)" />
<use xlink:href="#f6_cv" transform="matrix(14,0,0,14,259.2,187.9)" />
<use xlink:href="#f6_bz" transform="matrix(14,0,0,14,270.5,187.9)" />
<use xlink:href="#f6_ct" transform="matrix(14,0,0,14,283.8,187.9)" />
<use xlink:href="#f6_c1" transform="matrix(14,0,0,14,289.4,187.9)" />
<use xlink:href="#f6_c7" transform="matrix(14,0,0,14,297.8,187.9)" />
<use xlink:href="#f6_ct" transform="matrix(14,0,0,14,309.9,187.9)" />
<use xlink:href="#f6_bm" transform="matrix(14,0,0,14,315.5,187.9)" />
<use xlink:href="#f6_b1" transform="matrix(14,0,0,14,333.8,187.9)" />
<use xlink:href="#f6_k" transform="matrix(14,0,0,14,355.3,187.9)" />
<use xlink:href="#f6_am" transform="matrix(14,0,0,14,366.2,187.9)" />
<use xlink:href="#f6_ba" transform="matrix(14,0,0,14,387.7,187.9)" />
<use xlink:href="#f6_cv" transform="matrix(14,0,0,14,404.4,187.9)" />
<use xlink:href="#f6_bb" transform="matrix(14,0,0,14,415.7,187.9)" />
<use xlink:href="#f6_d8" transform="matrix(14,0,0,14,428.3,187.9)" />
<use xlink:href="#f6_bm" transform="matrix(14,0,0,14,433.9,187.9)" />
<use xlink:href="#f6_c7" transform="matrix(14,0,0,14,446.6,187.9)" />
<use xlink:href="#f6_ct" transform="matrix(14,0,0,14,458.7,187.9)" />
<use xlink:href="#f6_bm" transform="matrix(14,0,0,14,464.3,187.9)" />
<use xlink:href="#f6_b1" transform="matrix(14,0,0,14,482.6,187.9)" />
<use xlink:href="#f6_c1" transform="matrix(14,0,0,14,127.5,221.1)" />
<use xlink:href="#f6_ct" transform="matrix(14,0,0,14,135.9,221.1)" />
<use xlink:href="#f6_bg" transform="matrix(14,0,0,14,141.5,221.1)" />
<use xlink:href="#f6_ct" transform="matrix(14,0,0,14,155.8,221.1)" />
<use xlink:href="#f6_bt" transform="matrix(14,0,0,14,167,221.1)" />
<use xlink:href="#f6_ct" transform="matrix(14,0,0,14,178.8,221.1)" />
<use xlink:href="#f6_b9" transform="matrix(14,0,0,14,184.4,221.1)" />
<use xlink:href="#f6_d8" transform="matrix(14,0,0,14,199.9,221.1)" />
<use xlink:href="#f6_bm" transform="matrix(14,0,0,14,205.5,221.1)" />
<use xlink:href="#f6_ct" transform="matrix(14,0,0,14,218.2,221.1)" />
<use xlink:href="#f6_c1" transform="matrix(14,0,0,14,229.5,221.1)" />
<use xlink:href="#f6_ct" transform="matrix(14,0,0,14,237.8,221.1)" />
<use xlink:href="#f6_bs" transform="matrix(14,0,0,14,249.1,221.1)" />
<use xlink:href="#f6_nu" transform="matrix(14,0,0,14,263.1,221.1)" />
<use xlink:href="#f6_bo" transform="matrix(14,0,0,14,268.8,221.1)" />
<use xlink:href="#f6_c0" transform="matrix(14,0,0,14,283.1,221.1)" />
<use xlink:href="#f6_d8" transform="matrix(14,0,0,14,295.7,221.1)" />
<use xlink:href="#f6_dj" transform="matrix(14,0,0,14,300,222)" />
<use xlink:href="#f6_k" transform="matrix(14,0,0,14,301.3,221.1)" />
<use xlink:href="#f6_ba" transform="matrix(14,0,0,14,312.2,221.1)" />
<use xlink:href="#f6_lq" transform="matrix(14,0,0,14,328.9,221.1)" />
<use xlink:href="#f6_bz" transform="matrix(14,0,0,14,336,221.1)" />
<use xlink:href="#f6_ct" transform="matrix(14,0,0,14,349.3,221.1)" />
<use xlink:href="#f6_ba" transform="matrix(14,0,0,14,360.6,221.1)" />
<use xlink:href="#f6_lq" transform="matrix(14,0,0,14,377.3,221.1)" />
<use xlink:href="#f6_bz" transform="matrix(14,0,0,14,384.4,221.1)" />
<use xlink:href="#f6_ct" transform="matrix(14,0,0,14,397.8,221.1)" />
<use xlink:href="#f6_b1" transform="matrix(14,0,0,14,409,221.1)" />
<use xlink:href="#f6_c1" transform="matrix(14,0,0,14,436.2,221.1)" />
<use xlink:href="#f6_ct" transform="matrix(14,0,0,14,444.6,221.1)" />
<use xlink:href="#f6_bg" transform="matrix(14,0,0,14,450.2,221.1)" />
<use xlink:href="#f6_ct" transform="matrix(14,0,0,14,464.5,221.1)" />
<use xlink:href="#f6_ng" transform="matrix(14,0,0,14,475.7,221.1)" />
<use xlink:href="#f6_ng" transform="matrix(14,0,0,14,485.1,221.1)" />
<use xlink:href="#f6_al" transform="matrix(14,0,0,14,159.6,279.6)" />
<use xlink:href="#f6_l3" transform="matrix(14,0,0,14,175.4,279.6)" />
<use xlink:href="#f6_bp" transform="matrix(14,0,0,14,188.4,279.6)" />
<use xlink:href="#f6_c1" transform="matrix(14,0,0,14,200.7,279.6)" />
<use xlink:href="#f6_bt" transform="matrix(14,0,0,14,214.8,279.6)" />
<use xlink:href="#f6_d4" transform="matrix(14,0,0,14,226.6,279.6)" />
<use xlink:href="#f6_cc" transform="matrix(14,0,0,14,232.1,279.6)" />
<use xlink:href="#f6_bz" transform="matrix(14,0,0,14,243.8,279.6)" />
<use xlink:href="#f6_cv" transform="matrix(14,0,0,14,257.1,279.6)" />
<use xlink:href="#f6_br" transform="matrix(14,0,0,14,262.7,279.6)" />
<use xlink:href="#f6_br" transform="matrix(14,0,0,14,280.1,279.6)" />
<use xlink:href="#f6_d8" transform="matrix(14,0,0,14,291.7,279.6)" />
<use xlink:href="#f6_c0" transform="matrix(14,0,0,14,303,279.6)" />
<use xlink:href="#f6_d4" transform="matrix(14,0,0,14,315.7,279.6)" />
<use xlink:href="#f6_k" transform="matrix(14,0,0,14,315.6,279.6)" />
<use xlink:href="#f6_cb" transform="matrix(14,0,0,14,326.4,279.6)" />
<use xlink:href="#f6_d4" transform="matrix(14,0,0,14,341.5,279.6)" />
<use xlink:href="#f6_bt" transform="matrix(14,0,0,14,341.3,279.6)" />
<use xlink:href="#f6_ct" transform="matrix(14,0,0,14,353,279.6)" />
<use xlink:href="#f6_bv" transform="matrix(14,0,0,14,358.7,279.6)" />
<use xlink:href="#f6_bp" transform="matrix(14,0,0,14,370.5,279.6)" />
<use xlink:href="#f6_cv" transform="matrix(14,0,0,14,382.8,279.6)" />
<use xlink:href="#f6_am" transform="matrix(14,0,0,14,394.1,279.6)" />
<use xlink:href="#f6_c0" transform="matrix(14,0,0,14,415.6,279.6)" />
<use xlink:href="#f6_ct" transform="matrix(14,0,0,14,428.2,279.6)" />
<use xlink:href="#f6_b1" transform="matrix(14,0,0,14,439.4,279.6)" />
<use xlink:href="#f6_bz" transform="matrix(14,0,0,14,143.5,312.8)" />
<use xlink:href="#f6_nv" transform="matrix(14,0,0,14,156.9,312.8)" />
<use xlink:href="#f6_lj" transform="matrix(14,0,0,14,162.5,312.8)" />
<use xlink:href="#f6_br" transform="matrix(14,0,0,14,168.3,312.8)" />
<use xlink:href="#f6_c1" transform="matrix(14,0,0,14,180,312.8)" />
<use xlink:href="#f6_c1" transform="matrix(14,0,0,14,194,312.8)" />
<use xlink:href="#f6_d8" transform="matrix(14,0,0,14,202.4,312.8)" />
<use xlink:href="#f6_bc" transform="matrix(14,0,0,14,213.7,312.8)" />
<use xlink:href="#f6_d4" transform="matrix(14,0,0,14,227.7,312.8)" />
<use xlink:href="#f6_c1" transform="matrix(14,0,0,14,227.6,312.8)" />
<use xlink:href="#f6_d8" transform="matrix(14,0,0,14,235.9,312.8)" />
<use xlink:href="#f6_bc" transform="matrix(14,0,0,14,247.2,312.8)" />
<use xlink:href="#f6_ct" transform="matrix(14,0,0,14,261.1,312.8)" />
<use xlink:href="#f6_c3" transform="matrix(14,0,0,14,266.8,312.8)" />
<use xlink:href="#f6_cv" transform="matrix(14,0,0,14,281.5,312.8)" />
<use xlink:href="#f6_k" transform="matrix(14,0,0,14,287.1,312.8)" />
<use xlink:href="#f6_c3" transform="matrix(14,0,0,14,298,312.8)" />
<use xlink:href="#f6_cw" transform="matrix(14,0,0,14,313.2,312.7)" />
<use xlink:href="#f6_bk" transform="matrix(14,0,0,14,312.7,312.8)" />
<use xlink:href="#f6_bt" transform="matrix(14,0,0,14,324.2,312.8)" />
<use xlink:href="#f6_c1" transform="matrix(14,0,0,14,341.6,312.8)" />
<use xlink:href="#f6_ct" transform="matrix(14,0,0,14,350,312.8)" />
<use xlink:href="#f6_cb" transform="matrix(14,0,0,14,361.3,312.8)" />
<use xlink:href="#f6_bv" transform="matrix(14,0,0,14,376.2,312.8)" />
<use xlink:href="#f6_bt" transform="matrix(14,0,0,14,388,312.8)" />
<use xlink:href="#f6_ct" transform="matrix(14,0,0,14,399.7,312.8)" />
<use xlink:href="#f6_c3" transform="matrix(14,0,0,14,411,312.8)" />
<use xlink:href="#f6_ct" transform="matrix(14,0,0,14,425.7,312.8)" />
<use xlink:href="#f6_c0" transform="matrix(14,0,0,14,431.4,312.8)" />
<use xlink:href="#f6_ct" transform="matrix(14,0,0,14,443.9,312.8)" />
<use xlink:href="#f6_b1" transform="matrix(14,0,0,14,455.2,312.8)" />
<use xlink:href="#f6_bp" transform="matrix(14,0,0,14,129.8,346)" />
<use xlink:href="#f6_d8" transform="matrix(14,0,0,14,142.1,346)" />
<use xlink:href="#f6_bv" transform="matrix(14,0,0,14,147.7,346)" />
<use xlink:href="#f6_bs" transform="matrix(14,0,0,14,165.2,346)" />
<use xlink:href="#f6_bm" transform="matrix(14,0,0,14,179.2,346)" />
<use xlink:href="#f6_cx" transform="matrix(14,0,0,14,190.4,346.9)" />
<use xlink:href="#f6_b9" transform="matrix(14,0,0,14,191.9,346)" />
<use xlink:href="#f6_d4" transform="matrix(14,0,0,14,203.1,346)" />
<use xlink:href="#f6_bg" transform="matrix(14,0,0,14,213.1,346)" />
<use xlink:href="#f6_ct" transform="matrix(14,0,0,14,227.3,346)" />
<use xlink:href="#f6_bo" transform="matrix(14,0,0,14,233,346)" />
<use xlink:href="#f6_d4" transform="matrix(14,0,0,14,247.5,346)" />
<use xlink:href="#f6_bz" transform="matrix(14,0,0,14,253,346)" />
<use xlink:href="#f6_d4" transform="matrix(14,0,0,14,266.5,346)" />
<use xlink:href="#f6_bc" transform="matrix(14,0,0,14,266.3,346)" />
<use xlink:href="#f6_iz" transform="matrix(14,0,0,14,285.9,346)" />
<use xlink:href="#f6_cw" transform="matrix(14,0,0,14,308.7,345.9)" />
<use xlink:href="#f6_b1" transform="matrix(14,0,0,14,313.8,346)" />
<use xlink:href="#f6_2s" transform="matrix(14,0,0,14,357.9,346)" />
<use xlink:href="#f6_2s" transform="matrix(14,0,0,14,364.2,346)" />
<use xlink:href="#f6_c1" transform="matrix(14,0,0,14,376.1,346)" />
<use xlink:href="#f6_ct" transform="matrix(14,0,0,14,384.5,346)" />
<use xlink:href="#f6_bg" transform="matrix(14,0,0,14,390.1,346)" />
<use xlink:href="#f6_ct" transform="matrix(14,0,0,14,404.4,346)" />
<use xlink:href="#f6_bt" transform="matrix(14,0,0,14,415.7,346)" />
<use xlink:href="#f6_ct" transform="matrix(14,0,0,14,427.4,346)" />
<use xlink:href="#f6_b9" transform="matrix(14,0,0,14,433,346)" />
<use xlink:href="#f6_d8" transform="matrix(14,0,0,14,448.5,346)" />
<use xlink:href="#f6_bm" transform="matrix(14,0,0,14,454.1,346)" />
<use xlink:href="#f6_ct" transform="matrix(14,0,0,14,466.8,346)" />
<use xlink:href="#f6_2s" transform="matrix(14,0,0,14,478.1,346)" />
<use xlink:href="#f6_2s" transform="matrix(14,0,0,14,484.4,346)" />
<use xlink:href="#f6_by" transform="matrix(14,0,0,14,142.4,404.5)" />
<use xlink:href="#f6_ct" transform="matrix(14,0,0,14,156.3,404.5)" />
<use xlink:href="#f6_ba" transform="matrix(14,0,0,14,162,404.5)" />
<use xlink:href="#f6_c1" transform="matrix(14,0,0,14,178.7,404.5)" />
<use xlink:href="#f6_no" transform="matrix(14,0,0,14,187.1,404.5)" />
<use xlink:href="#f6_bq" transform="matrix(14,0,0,14,187.1,404.5)" />
<use xlink:href="#f6_cv" transform="matrix(14,0,0,14,200.3,404.5)" />
<use xlink:href="#f6_ap" transform="matrix(14,0,0,14,211.5,404.5)" />
<use xlink:href="#f6_bp" transform="matrix(14,0,0,14,222.9,404.5)" />
<use xlink:href="#f6_c1" transform="matrix(14,0,0,14,235.2,404.5)" />
<use xlink:href="#f6_cv" transform="matrix(14,0,0,14,243.6,404.5)" />
<use xlink:href="#f6_c0" transform="matrix(14,0,0,14,249.2,404.5)" />
<use xlink:href="#f6_ct" transform="matrix(14,0,0,14,261.8,404.5)" />
<use xlink:href="#f6_by" transform="matrix(14,0,0,14,273.1,404.5)" />
<use xlink:href="#f6_d4" transform="matrix(14,0,0,14,287.2,404.5)" />
<use xlink:href="#f6_n1" transform="matrix(14,0,0,14,287,404.5)" />
<use xlink:href="#f6_bg" transform="matrix(14,0,0,14,300.2,404.5)" />
<use xlink:href="#f6_cv" transform="matrix(14,0,0,14,314.4,404.5)" />
<use xlink:href="#f6_k" transform="matrix(14,0,0,14,320.1,404.5)" />
<use xlink:href="#f6_by" transform="matrix(14,0,0,14,330.9,404.5)" />
<use xlink:href="#f6_d8" transform="matrix(14,0,0,14,344.9,404.5)" />
<use xlink:href="#f6_c0" transform="matrix(14,0,0,14,350.5,404.5)" />
<use xlink:href="#f6_c1" transform="matrix(14,0,0,14,363.1,404.5)" />
<use xlink:href="#f6_ct" transform="matrix(14,0,0,14,371.4,404.5)" />
<use xlink:href="#f6_ap" transform="matrix(14,0,0,14,382.7,404.5)" />
<use xlink:href="#f6_bv" transform="matrix(14,0,0,14,394.1,404.5)" />
<use xlink:href="#f6_c1" transform="matrix(14,0,0,14,406,404.5)" />
<use xlink:href="#f6_ap" transform="matrix(14,0,0,14,420,404.5)" />
<use xlink:href="#f6_by" transform="matrix(14,0,0,14,431.4,404.5)" />
<use xlink:href="#f6_ct" transform="matrix(14,0,0,14,445.3,404.5)" />
<use xlink:href="#f6_b1" transform="matrix(14,0,0,14,456.6,404.5)" />
<use xlink:href="#f6_by" transform="matrix(14,0,0,14,148.1,437.7)" />
<use xlink:href="#f6_bz" transform="matrix(14,0,0,14,162.1,437.7)" />
<use xlink:href="#f6_by" transform="matrix(14,0,0,14,181.1,437.7)" />
<use xlink:href="#f6_bz" transform="matrix(14,0,0,14,195,437.7)" />
<use xlink:href="#f6_bp" transform="matrix(14,0,0,14,208.4,437.7)" />
<use xlink:href="#f6_ct" transform="matrix(14,0,0,14,220.7,437.7)" />
<use xlink:href="#f6_by" transform="matrix(14,0,0,14,232,437.7)" />
<use xlink:href="#f6_bz" transform="matrix(14,0,0,14,245.9,437.7)" />
<use xlink:href="#f6_c1" transform="matrix(14,0,0,14,259.3,437.7)" />
<use xlink:href="#f6_ct" transform="matrix(14,0,0,14,267.7,437.7)" />
<use xlink:href="#f6_bf" transform="matrix(14,0,0,14,278.9,437.7)" />
<use xlink:href="#f6_d8" transform="matrix(14,0,0,14,294.7,437.7)" />
<use xlink:href="#f6_bm" transform="matrix(14,0,0,14,300.3,437.7)" />
<use xlink:href="#f6_cv" transform="matrix(14,0,0,14,313,437.7)" />
<use xlink:href="#f6_bt" transform="matrix(14,0,0,14,324.2,437.7)" />
<use xlink:href="#f6_d4" transform="matrix(14,0,0,14,336.1,437.7)" />
<use xlink:href="#f6_k" transform="matrix(14,0,0,14,336,437.7)" />
<use xlink:href="#f6_cb" transform="matrix(14,0,0,14,346.8,437.7)" />
<use xlink:href="#f6_d4" transform="matrix(14,0,0,14,361.8,437.7)" />
<use xlink:href="#f6_bt" transform="matrix(14,0,0,14,361.7,437.7)" />
<use xlink:href="#f6_ct" transform="matrix(14,0,0,14,373.4,437.7)" />
<use xlink:href="#f6_bt" transform="matrix(14,0,0,14,384.7,437.7)" />
<use xlink:href="#f6_d4" transform="matrix(14,0,0,14,396.6,437.7)" />
<use xlink:href="#f6_by" transform="matrix(14,0,0,14,402.1,437.7)" />
<use xlink:href="#f6_bb" transform="matrix(14,0,0,14,416.1,437.7)" />
<use xlink:href="#f6_ct" transform="matrix(14,0,0,14,428.7,437.7)" />
<use xlink:href="#f6_ao" transform="matrix(14,0,0,14,434.3,437.7)" />
<use xlink:href="#f6_b1" transform="matrix(14,0,0,14,451.5,437.7)" />
<use xlink:href="#f6_c0" transform="matrix(14,0,0,14,117.2,470.9)" />
<use xlink:href="#f6_c7" transform="matrix(14,0,0,14,129.7,470.9)" />
<use xlink:href="#f6_bt" transform="matrix(14,0,0,14,141.8,470.9)" />
<use xlink:href="#f6_cv" transform="matrix(14,0,0,14,153.5,470.9)" />
<use xlink:href="#f6_bp" transform="matrix(14,0,0,14,164.8,470.9)" />
<use xlink:href="#f6_d8" transform="matrix(14,0,0,14,177.1,470.9)" />
<use xlink:href="#f6_bt" transform="matrix(14,0,0,14,188.4,470.9)" />
<use xlink:href="#f6_ct" transform="matrix(14,0,0,14,200.1,470.9)" />
<use xlink:href="#f6_bl" transform="matrix(14,0,0,14,205.7,470.9)" />
<use xlink:href="#f6_d8" transform="matrix(14,0,0,14,218.1,470.9)" />
<use xlink:href="#f6_bg" transform="matrix(14,0,0,14,229.4,470.9)" />
<use xlink:href="#f6_ct" transform="matrix(14,0,0,14,243.6,470.9)" />
<use xlink:href="#f6_bo" transform="matrix(14,0,0,14,249.3,470.9)" />
<use xlink:href="#f6_d4" transform="matrix(14,0,0,14,263.8,470.9)" />
<use xlink:href="#f6_bg" transform="matrix(14,0,0,14,269.3,470.9)" />
<use xlink:href="#f6_cv" transform="matrix(14,0,0,14,283.6,470.9)" />
<use xlink:href="#f6_c7" transform="matrix(14,0,0,14,289.2,470.9)" />
<use xlink:href="#f6_c3" transform="matrix(14,0,0,14,306.9,470.9)" />
<use xlink:href="#f6_d4" transform="matrix(14,0,0,14,321.8,470.9)" />
<use xlink:href="#f6_bt" transform="matrix(14,0,0,14,321.6,470.9)" />
<use xlink:href="#f6_d4" transform="matrix(14,0,0,14,333.5,470.9)" />
<use xlink:href="#f6_b1" transform="matrix(14,0,0,14,339,470.9)" />
<use xlink:href="#f6_2s" transform="matrix(14,0,0,14,371.8,470.9)" />
<use xlink:href="#f6_2s" transform="matrix(14,0,0,14,378.1,470.9)" />
<use xlink:href="#f6_c1" transform="matrix(14,0,0,14,390,470.9)" />
<use xlink:href="#f6_ct" transform="matrix(14,0,0,14,398.4,470.9)" />
<use xlink:href="#f6_bg" transform="matrix(14,0,0,14,404,470.9)" />
<use xlink:href="#f6_ct" transform="matrix(14,0,0,14,418.3,470.9)" />
<use xlink:href="#f6_bt" transform="matrix(14,0,0,14,429.6,470.9)" />
<use xlink:href="#f6_ct" transform="matrix(14,0,0,14,441.3,470.9)" />
<use xlink:href="#f6_b9" transform="matrix(14,0,0,14,446.9,470.9)" />
<use xlink:href="#f6_d8" transform="matrix(14,0,0,14,462.4,470.9)" />
<use xlink:href="#f6_ch" transform="matrix(14,0,0,14,468,470.9)" />
<use xlink:href="#f6_ct" transform="matrix(14,0,0,14,480.7,470.9)" />
<use xlink:href="#f6_2s" transform="matrix(14,0,0,14,492,470.9)" />
<use xlink:href="#f6_2s" transform="matrix(14,0,0,14,498.2,470.9)" />
<use xlink:href="#f6_by" transform="matrix(14,0,0,14,150.4,529.4)" />
<use xlink:href="#f6_d4" transform="matrix(14,0,0,14,164.5,529.4)" />
<use xlink:href="#f6_n1" transform="matrix(14,0,0,14,164.4,529.4)" />
<use xlink:href="#f6_bg" transform="matrix(14,0,0,14,177.5,529.4)" />
<use xlink:href="#f6_cv" transform="matrix(14,0,0,14,191.8,529.4)" />
<use xlink:href="#f6_c1" transform="matrix(14,0,0,14,203.1,529.4)" />
<use xlink:href="#f6_ct" transform="matrix(14,0,0,14,211.4,529.4)" />
<use xlink:href="#f6_bv" transform="matrix(14,0,0,14,222.7,529.4)" />
<use xlink:href="#f6_c1" transform="matrix(14,0,0,14,234.6,529.4)" />
<use xlink:href="#f6_be" transform="matrix(14,0,0,14,243,529.4)" />
<use xlink:href="#f6_d8" transform="matrix(14,0,0,14,257,529.4)" />
<use xlink:href="#f6_by" transform="matrix(14,0,0,14,268.2,529.4)" />
<use xlink:href="#f6_ct" transform="matrix(14,0,0,14,282.2,529.4)" />
<use xlink:href="#f6_c1" transform="matrix(14,0,0,14,287.8,529.4)" />
<use xlink:href="#f6_cv" transform="matrix(14,0,0,14,296.2,529.4)" />
<use xlink:href="#f6_k" transform="matrix(14,0,0,14,301.8,529.4)" />
<use xlink:href="#f6_bz" transform="matrix(14,0,0,14,312.7,529.4)" />
<use xlink:href="#f6_d8" transform="matrix(14,0,0,14,326,529.4)" />
<use xlink:href="#f6_cb" transform="matrix(14,0,0,14,331.7,529.4)" />
<use xlink:href="#f6_cw" transform="matrix(14,0,0,14,347.1,529.3)" />
<use xlink:href="#f6_b9" transform="matrix(14,0,0,14,352.2,529.4)" />
<use xlink:href="#f6_cc" transform="matrix(14,0,0,14,367.7,529.4)" />
<use xlink:href="#f6_d4" transform="matrix(14,0,0,14,379.7,529.4)" />
<use xlink:href="#f6_bt" transform="matrix(14,0,0,14,385,529.4)" />
<use xlink:href="#f6_bg" transform="matrix(14,0,0,14,402.4,529.4)" />
<use xlink:href="#f6_ct" transform="matrix(14,0,0,14,416.6,529.4)" />
<use xlink:href="#f6_c7" transform="matrix(14,0,0,14,422.2,529.4)" />
<use xlink:href="#f6_d4" transform="matrix(14,0,0,14,434.4,529.4)" />
<use xlink:href="#f6_b1" transform="matrix(14,0,0,14,440,529.4)" />
<use xlink:href="#f6_ng" transform="matrix(14,0,0,14,461.5,529.4)" />
<use xlink:href="#f6_bp" transform="matrix(14,0,0,14,140.1,562.6)" />
<use xlink:href="#f6_cv" transform="matrix(14,0,0,14,152.4,562.6)" />
<use xlink:href="#f6_no" transform="matrix(14,0,0,14,158,562.6)" />
<use xlink:href="#f6_bq" transform="matrix(14,0,0,14,158,562.6)" />
<use xlink:href="#f6_p6" transform="matrix(14,0,0,14,171.2,562.6)" />
<use xlink:href="#f6_c1" transform="matrix(14,0,0,14,182.5,562.6)" />
<use xlink:href="#f6_ct" transform="matrix(14,0,0,14,190.9,562.6)" />
<use xlink:href="#f6_cb" transform="matrix(14,0,0,14,202.2,562.6)" />
<use xlink:href="#f6_c1" transform="matrix(14,0,0,14,217.1,562.6)" />
<use xlink:href="#f6_bp" transform="matrix(14,0,0,14,225.4,562.6)" />
<use xlink:href="#f6_ct" transform="matrix(14,0,0,14,237.7,562.6)" />
<use xlink:href="#f6_bg" transform="matrix(14,0,0,14,243.4,562.6)" />
<use xlink:href="#f6_cu" transform="matrix(14,0,0,14,263.3,562.6)" />
<use xlink:href="#f6_bx" transform="matrix(14,0,0,14,268.9,562.6)" />
<use xlink:href="#f6_c1" transform="matrix(14,0,0,14,281.2,562.6)" />
<use xlink:href="#f6_ct" transform="matrix(14,0,0,14,289.6,562.6)" />
<use xlink:href="#f6_bg" transform="matrix(14,0,0,14,295.2,562.6)" />
<use xlink:href="#f6_d4" transform="matrix(14,0,0,14,309.6,562.6)" />
<use xlink:href="#f6_k" transform="matrix(14,0,0,14,309.5,562.6)" />
<use xlink:href="#f6_br" transform="matrix(14,0,0,14,320.3,562.6)" />
<use xlink:href="#f6_c8" transform="matrix(14,0,0,14,332,562.6)" />
<use xlink:href="#f6_dr" transform="matrix(14,0,0,14,348.3,562.6)" />
<use xlink:href="#f6_bt" transform="matrix(14,0,0,14,347.9,562.6)" />
<use xlink:href="#f6_c3" transform="matrix(14,0,0,14,365.3,562.6)" />
<use xlink:href="#f6_ct" transform="matrix(14,0,0,14,380,562.6)" />
<use xlink:href="#f6_b1" transform="matrix(14,0,0,14,385.6,562.6)" />
<use xlink:href="#f6_c3" transform="matrix(14,0,0,14,412.7,562.6)" />
<use xlink:href="#f6_cv" transform="matrix(14,0,0,14,427.4,562.6)" />
<use xlink:href="#f6_bg" transform="matrix(14,0,0,14,433.1,562.6)" />
<use xlink:href="#f6_d8" transform="matrix(14,0,0,14,447.3,562.6)" />
<use xlink:href="#f6_b1" transform="matrix(14,0,0,14,458.6,562.6)" />
<use xlink:href="#f6_bg" transform="matrix(14,0,0,14,125.2,595.8)" />
<use xlink:href="#f6_bl" transform="matrix(14,0,0,14,139.5,595.8)" />
<use xlink:href="#f6_d4" transform="matrix(14,0,0,14,150.4,595.8)" />
<use xlink:href="#f6_cu" transform="matrix(14,0,0,14,157.5,595.8)" />
<use xlink:href="#f6_c7" transform="matrix(14,0,0,14,163.1,595.8)" />
<use xlink:href="#f6_c1" transform="matrix(14,0,0,14,175.2,595.8)" />
<use xlink:href="#f6_ct" transform="matrix(14,0,0,14,183.6,595.8)" />
<use xlink:href="#f6_bg" transform="matrix(14,0,0,14,189.2,595.8)" />
<use xlink:href="#f6_d4" transform="matrix(14,0,0,14,203.6,595.8)" />
<use xlink:href="#f6_bz" transform="matrix(14,0,0,14,209.1,595.8)" />
<use xlink:href="#f6_ct" transform="matrix(14,0,0,14,222.4,595.8)" />
<use xlink:href="#f6_c1" transform="matrix(14,0,0,14,228.1,595.8)" />
<use xlink:href="#f6_ct" transform="matrix(14,0,0,14,236.4,595.8)" />
<use xlink:href="#f6_bv" transform="matrix(14,0,0,14,247.7,595.8)" />
<use xlink:href="#f6_ct" transform="matrix(14,0,0,14,259.6,595.8)" />
<use xlink:href="#f6_c1" transform="matrix(14,0,0,14,265.2,595.8)" />
<use xlink:href="#f6_cb" transform="matrix(14,0,0,14,273.6,595.8)" />
<use xlink:href="#f6_bt" transform="matrix(14,0,0,14,288.5,595.8)" />
<use xlink:href="#f6_ct" transform="matrix(14,0,0,14,300.2,595.8)" />
<use xlink:href="#f6_no" transform="matrix(14,0,0,14,305.8,595.8)" />
<use xlink:href="#f6_bq" transform="matrix(14,0,0,14,305.8,595.8)" />
<use xlink:href="#f6_b1" transform="matrix(14,0,0,14,324.7,595.8)" />
<use xlink:href="#f6_2s" transform="matrix(14,0,0,14,357.5,595.8)" />
<use xlink:href="#f6_2s" transform="matrix(14,0,0,14,363.7,595.8)" />
<use xlink:href="#f6_c1" transform="matrix(14,0,0,14,375.7,595.8)" />
<use xlink:href="#f6_ct" transform="matrix(14,0,0,14,384.1,595.8)" />
<use xlink:href="#f6_bg" transform="matrix(14,0,0,14,389.7,595.8)" />
<use xlink:href="#f6_ct" transform="matrix(14,0,0,14,403.9,595.8)" />
<use xlink:href="#f6_bt" transform="matrix(14,0,0,14,415.2,595.8)" />
<use xlink:href="#f6_ct" transform="matrix(14,0,0,14,426.9,595.8)" />
<use xlink:href="#f6_b9" transform="matrix(14,0,0,14,432.6,595.8)" />
<use xlink:href="#f6_d8" transform="matrix(14,0,0,14,448.1,595.8)" />
<use xlink:href="#f6_ch" transform="matrix(14,0,0,14,453.7,595.8)" />
<use xlink:href="#f6_ct" transform="matrix(14,0,0,14,466.4,595.8)" />
<use xlink:href="#f6_ng" transform="matrix(14,0,0,14,477.6,595.8)" />
<use xlink:href="#f6_ng" transform="matrix(14,0,0,14,487,595.8)" />
<use xlink:href="#f6_bm" transform="matrix(14,0,0,14,156.1,662.3)" />
<use xlink:href="#f6_bb" transform="matrix(14,0,0,14,168.8,662.3)" />
<use xlink:href="#f6_c3" transform="matrix(14,0,0,14,181.4,662.3)" />
<use xlink:href="#f6_d4" transform="matrix(14,0,0,14,196.3,662.3)" />
<use xlink:href="#f6_bt" transform="matrix(14,0,0,14,201.8,662.3)" />
<use xlink:href="#f6_d4" transform="matrix(14,0,0,14,213.6,662.3)" />
<use xlink:href="#f6_bv" transform="matrix(14,0,0,14,219.2,662.3)" />
<use xlink:href="#f6_bb" transform="matrix(14,0,0,14,231,662.3)" />
<use xlink:href="#f6_c3" transform="matrix(14,0,0,14,243.7,662.3)" />
<use xlink:href="#f6_d4" transform="matrix(14,0,0,14,258.5,662.3)" />
<use xlink:href="#f6_bp" transform="matrix(14,0,0,14,264,662.3)" />
<use xlink:href="#f6_d8" transform="matrix(14,0,0,14,276.3,662.3)" />
<use xlink:href="#f6_bz" transform="matrix(14,0,0,14,287.6,662.3)" />
<use xlink:href="#f6_d8" transform="matrix(14,0,0,14,301,662.3)" />
<use xlink:href="#f6_bt" transform="matrix(14,0,0,14,306.6,662.3)" />
<use xlink:href="#f6_d4" transform="matrix(14,0,0,14,318.4,662.3)" />
<use xlink:href="#f6_b1" transform="matrix(14,0,0,14,324,662.3)" />
<use xlink:href="#f6_c3" transform="matrix(14,0,0,14,345.5,662.3)" />
<use xlink:href="#f6_cw" transform="matrix(14,0,0,14,360.7,662.2)" />
<use xlink:href="#f6_bq" transform="matrix(14,0,0,14,365.8,662.3)" />
<use xlink:href="#f6_d8" transform="matrix(14,0,0,14,379,662.3)" />
<use xlink:href="#f6_c1" transform="matrix(14,0,0,14,384.6,662.3)" />
<use xlink:href="#f6_cv" transform="matrix(14,0,0,14,393,662.3)" />
<use xlink:href="#f6_am" transform="matrix(14,0,0,14,404.3,662.3)" />
<use xlink:href="#f6_c7" transform="matrix(14,0,0,14,425.8,662.3)" />
<use xlink:href="#f6_d4" transform="matrix(14,0,0,14,438,662.3)" />
<use xlink:href="#f6_b1" transform="matrix(14,0,0,14,443.5,662.3)" />
<use xlink:href="#f6_ax" transform="matrix(14,0,0,14,161.9,695.5)" />
<use xlink:href="#f6_b9" transform="matrix(14,0,0,14,173.7,695.5)" />
<use xlink:href="#f6_bo" transform="matrix(14,0,0,14,189.2,695.5)" />
<use xlink:href="#f6_bt" transform="matrix(14,0,0,14,209.3,695.5)" />
<use xlink:href="#f6_d4" transform="matrix(14,0,0,14,221.1,695.5)" />
<use xlink:href="#f6_c7" transform="matrix(14,0,0,14,226.6,695.5)" />
<use xlink:href="#f6_d4" transform="matrix(14,0,0,14,238.8,695.5)" />
<use xlink:href="#f6_c1" transform="matrix(14,0,0,14,238.7,695.5)" />
<use xlink:href="#f6_ct" transform="matrix(14,0,0,14,247.1,695.5)" />
<use xlink:href="#f6_bp" transform="matrix(14,0,0,14,258.4,695.5)" />
<use xlink:href="#f6_d8" transform="matrix(14,0,0,14,270.7,695.5)" />
<use xlink:href="#f6_bz" transform="matrix(14,0,0,14,282,695.5)" />
<use xlink:href="#f6_d8" transform="matrix(14,0,0,14,295.3,695.5)" />
<use xlink:href="#f6_bt" transform="matrix(14,0,0,14,300.9,695.5)" />
<use xlink:href="#f6_d4" transform="matrix(14,0,0,14,312.8,695.5)" />
<use xlink:href="#f6_k" transform="matrix(14,0,0,14,312.7,695.5)" />
<use xlink:href="#f6_br" transform="matrix(14,0,0,14,323.5,695.5)" />
<use xlink:href="#f6_c8" transform="matrix(14,0,0,14,335.2,695.5)" />
<use xlink:href="#f6_dr" transform="matrix(14,0,0,14,351.5,695.5)" />
<use xlink:href="#f6_bt" transform="matrix(14,0,0,14,351.1,695.5)" />
<use xlink:href="#f6_bv" transform="matrix(14,0,0,14,368.5,695.5)" />
<use xlink:href="#f6_c1" transform="matrix(14,0,0,14,380.3,695.5)" />
<use xlink:href="#f6_cu" transform="matrix(14,0,0,14,394.4,695.5)" />
<use xlink:href="#f6_br" transform="matrix(14,0,0,14,400,695.5)" />
<use xlink:href="#f6_bg" transform="matrix(14,0,0,14,411.7,695.5)" />
<use xlink:href="#f6_d8" transform="matrix(14,0,0,14,425.9,695.5)" />
<use xlink:href="#f6_b1" transform="matrix(14,0,0,14,437.2,695.5)" />
<use xlink:href="#f6_8c" transform="matrix(14,0,0,14,116,728.8)" />
<use xlink:href="#f6_bz" transform="matrix(14,0,0,14,120.7,728.8)" />
<use xlink:href="#f6_d8" transform="matrix(14,0,0,14,134,728.8)" />
<use xlink:href="#f6_cc" transform="matrix(14,0,0,14,139.7,728.8)" />
<use xlink:href="#f6_cv" transform="matrix(14,0,0,14,151.3,728.8)" />
<use xlink:href="#f6_bz" transform="matrix(14,0,0,14,162.5,728.8)" />
<use xlink:href="#f6_dj" transform="matrix(14,0,0,14,170,729.2)" />
<use xlink:href="#f6_bm" transform="matrix(14,0,0,14,175.9,728.8)" />
<use xlink:href="#f6_c3" transform="matrix(14,0,0,14,188.6,728.8)" />
<use xlink:href="#f6_8d" transform="matrix(14,0,0,14,203.3,728.8)" />
<use xlink:href="#f6_bp" transform="matrix(14,0,0,14,213.6,728.8)" />
<use xlink:href="#f6_d8" transform="matrix(14,0,0,14,225.9,728.8)" />
<use xlink:href="#f6_lh" transform="matrix(14,0,0,14,237.2,728.8)" />
<use xlink:href="#f6_c0" transform="matrix(14,0,0,14,246.5,728.8)" />
<use xlink:href="#f6_ct" transform="matrix(14,0,0,14,259,728.8)" />
<use xlink:href="#f6_c7" transform="matrix(14,0,0,14,264.6,728.8)" />
<use xlink:href="#f6_d4" transform="matrix(14,0,0,14,276.8,728.8)" />
<use xlink:href="#f6_by" transform="matrix(14,0,0,14,282.4,728.8)" />
<use xlink:href="#f6_ct" transform="matrix(14,0,0,14,296.3,728.8)" />
<use xlink:href="#f6_c7" transform="matrix(14,0,0,14,301.9,728.8)" />
<use xlink:href="#f6_cb" transform="matrix(14,0,0,14,319.7,728.8)" />
<use xlink:href="#f6_cx" transform="matrix(14,0,0,14,334.5,728.7)" />
<use xlink:href="#f6_dj" transform="matrix(14,0,0,14,328.3,729.2)" />
<use xlink:href="#f6_b1" transform="matrix(14,0,0,14,340.2,728.8)" />
<use xlink:href="#f6_2s" transform="matrix(14,0,0,14,373,728.8)" />
<use xlink:href="#f6_2s" transform="matrix(14,0,0,14,379.3,728.8)" />
<use xlink:href="#f6_c1" transform="matrix(14,0,0,14,391.2,728.8)" />
<use xlink:href="#f6_ct" transform="matrix(14,0,0,14,399.6,728.8)" />
<use xlink:href="#f6_bg" transform="matrix(14,0,0,14,405.2,728.8)" />
<use xlink:href="#f6_ct" transform="matrix(14,0,0,14,419.5,728.8)" />
<use xlink:href="#f6_bt" transform="matrix(14,0,0,14,430.8,728.8)" />
<use xlink:href="#f6_ct" transform="matrix(14,0,0,14,442.5,728.8)" />
<use xlink:href="#f6_b9" transform="matrix(14,0,0,14,448.1,728.8)" />
<use xlink:href="#f6_d8" transform="matrix(14,0,0,14,463.6,728.8)" />
<use xlink:href="#f6_ch" transform="matrix(14,0,0,14,469.2,728.8)" />
<use xlink:href="#f6_ct" transform="matrix(14,0,0,14,481.9,728.8)" />
<use xlink:href="#f6_2s" transform="matrix(14,0,0,14,493.2,728.8)" />
<use xlink:href="#f6_2s" transform="matrix(14,0,0,14,499.5,728.8)" />
<use xlink:href="#f7_4r" transform="matrix(9,0,0,9,290.2,795.2)" />
<use xlink:href="#f8_s" transform="matrix(9,0,0,9,303,795.2)" />
<use xlink:href="#f8_t" transform="matrix(9,0,0,9,310.7,795.2)" />
<use xlink:href="#f7_4r" transform="matrix(9,0,0,9,321.3,795.2)" />
</g>
</g>
<image preserveAspectRatio="none" x="22" y="801" width="581" height="86" xlink:href="img/1.png"/>
<path d="M236,97.4H386.1v1.1H236V97.4Z" class="g1_95"/>
<image preserveAspectRatio="none" x="202" y="14" width="217" height="26" xlink:href="img/2.png"/>
<defs>
<path d="M746,-65L571,29V419H376V260L275,212c0,0,-87,48,-160,148c0,0,-72,100,-91,193l57,84H571V822H0L-86,937l32,64H930l88,-115L985,822H713L816,749V-31L746,-65Z"
id="f5_bt"
transform="scale(0.001,-0.001)"/>

<path d="M277,-65L102,29V822H0L-86,937l32,64H463L548,886L516,822H244L347,749V-31L277,-65Z"
id="f5_ct"
transform="scale(0.001,-0.001)"/>

<path d="M300,310c13,0,56,2,103,25c0,0,58,27,100,81V523c0,0,-46,16,-83,16c0,0,-69,0,-111,-45c0,0,-42,-45,-42,-104c0,0,0,-45,28,-80c0,0,2,0,5,0ZM677,-65L503,29V144c0,0,-32,-11,-75,-11c0,0,-147,0,-272,98c0,0,-125,99,-125,233c0,0,0,110,75,185c0,0,76,74,195,74l67,-6L503,646V822H0L-86,937l32,64H1245l86,-115l-32,-64H645L747,749V622c0,0,81,58,165,58c0,0,122,0,213,-99c0,0,91,-98,91,-230c0,0,0,-204,-253,-371L791,157c0,0,110,83,164,139c0,0,53,55,53,106c0,0,0,55,-53,55c0,0,-83,0,-208,-145V-31L677,-65Z"
id="f5_b9"
transform="scale(0.001,-0.001)"/>

<path d="M277,-65L102,29V822H0L-86,937l32,64H86L18,1111c0,0,-67,122,-168,122c0,0,-81,0,-202,-80l-128,250c0,0,122,77,232,77c0,0,196,0,356,-250L252,1001H463L548,886L516,822H244L347,749V-31L277,-65Z"
id="f5_d8"
transform="scale(0.001,-0.001)"/>

<path d="M550,-407c0,0,-38,15,-87,52c0,0,-49,37,-73,72c0,0,56,113,129,157c0,0,84,-32,156,-124c0,0,-17,-44,-52,-88c0,0,-35,-44,-73,-69Zm23,306c0,0,-296,0,-555,382l104,86c0,0,167,-260,381,-260c0,0,87,0,151,46c0,0,64,46,63,113L489,194c0,0,-167,54,-273,152c0,0,-106,99,-106,206c0,0,0,87,72,142c0,0,72,55,211,55H588v73H0L-86,937l32,64H949l85,-115l-32,-64H706L808,749V545H445c0,0,-127,0,-127,-64c0,0,0,-35,38,-62l278,64c0,0,125,-43,193,-130c0,0,67,-87,67,-182c0,0,0,-116,-91,-194c0,0,-91,-78,-230,-78Z"
id="f5_ch"
transform="scale(0.001,-0.001)"/>

<path d="M545,-97L35,405L87,542H295c0,0,1,5,1,280H0L-86,937l32,64H729L814,886L782,822H445L550,749V547c0,0,0,-75,-41,-127c0,0,-41,-52,-129,-111L709,110V41L545,-97Z"
id="f5_c1"
transform="scale(0.001,-0.001)"/>

<path d="M895,-65L721,29V134c0,0,-66,-32,-148,-32c0,0,-156,0,-289,105c0,0,-133,105,-133,231c0,0,0,72,48,136C199,574,28,695,28,836c0,0,0,88,65,149c0,0,66,60,167,60c0,0,99,0,172,-61c0,0,72,-61,139,-180L477,729c0,0,-55,87,-92,119l-26,3c0,0,-43,0,-73,-28c0,0,-29,-29,-29,-73c0,0,0,-50,41,-95c0,0,67,33,150,33c0,0,45,0,93,-10L642,519L610,457l-51,3c0,0,-82,0,-130,-35c0,0,-49,-35,-49,-83c0,0,0,-26,16,-47c0,0,18,-6,46,-6c0,0,77,0,161,46c0,0,83,47,118,119V822H678L593,937l32,64h455l87,-115l-32,-64H863L966,749V-31L895,-65Z"
id="f5_bs"
transform="scale(0.001,-0.001)"/>

<path d="M289,-65L115,29V822H0L-86,937l32,64H116c0,0,-95,99,-95,223c0,0,0,137,114,221c0,0,114,84,300,84c0,0,173,0,381,-94c0,0,208,-95,483,-311l-83,-96c0,0,-212,139,-377,212c0,0,-165,72,-309,72c0,0,-133,0,-214,-56c0,0,-81,-57,-81,-147c0,0,0,-55,31,-108H463L548,886L516,822H257L359,749V-31L289,-65Z"
id="f5_nt"
transform="scale(0.001,-0.001)"/>

<path d="M356,367c0,0,79,0,79,99V822H199l96,-73V393c0,0,23,-26,61,-26ZM969,-65L794,29V822H568L672,749V460c0,0,0,-142,-61,-209c0,0,-61,-66,-159,-66c0,0,-136,0,-261,116C191,301,66,417,61,550V822H-22l-87,115l32,64H1153l86,-115l-32,-64H937l102,-73V-31L969,-65Z"
id="f5_bo"
transform="scale(0.001,-0.001)"/>

<path d="M368,290c0,0,83,0,161,44c0,0,78,43,116,117V822H382c0,0,136,-107,136,-225c0,0,0,-74,-55,-131c0,0,-55,-57,-165,-83c0,0,15,-48,44,-91l26,-2ZM819,-65L645,29V139c0,0,-60,-31,-130,-31c0,0,-145,0,-279,109c0,0,-134,108,-208,287l29,78c0,0,128,15,181,43c0,0,54,27,54,73c0,0,0,61,-96,124H0L-86,937l32,64H1004l87,-115l-32,-64H787L889,749V-31L819,-65Z"
id="f5_c0"
transform="scale(0.001,-0.001)"/>

<path d="M290,-236c0,0,-253,348,-253,685c0,0,0,342,270,669l80,-39c0,0,-207,-311,-207,-622c0,0,0,-326,193,-652l-83,-41Z"
id="f6_g"
transform="scale(0.001,-0.001)"/>

<path d="M347,-57C347,-57,66,211,66,394c0,0,0,98,74,164c0,0,74,65,225,65H616V822H0l-45,76l14,31H880l46,-76L912,822H677l66,-58V-39L706,-49L616,8V500H428c0,0,-239,0,-239,-161c0,0,0,-136,214,-343L347,-57Z"
id="f6_bp"
transform="scale(0.001,-0.001)"/>

<path d="M845,-49L755,8V513H497c0,0,61,-45,93,-110c0,0,33,-64,33,-128c0,0,0,-90,-58,-144c0,0,-59,-53,-143,-53c0,0,-133,0,-234,139C188,217,87,356,20,596l76,24c0,0,60,-201,127,-306c0,0,67,-105,160,-105c0,0,57,0,91,36c0,0,33,36,33,91c0,0,0,84,-73,159L295,558v71H755V822H0l-45,76l14,31H1019l46,-76l-14,-31H816l66,-58V-39L845,-49Z"
id="f6_bg"
transform="scale(0.001,-0.001)"/>

<path d="M-239,897c0,0,-82,61,-132,137c0,0,-50,75,-50,150c0,0,0,78,52,133c0,0,52,55,141,55c0,0,98,0,176,-64l-23,-69c0,0,-52,32,-104,32c0,0,-57,0,-95,-36c0,0,-38,-36,-38,-95c0,0,0,-115,117,-217l-44,-26Z"
id="f6_dr"
transform="scale(0.001,-0.001)"/>

<path d="M92,380L46,457l14,30H448l45,-76L480,380Z"
id="f6_pd"
transform="scale(0.001,-0.001)"/>

<path d="M527,-71L52,414l34,92H277c0,0,12,32,12,72V822H0l-45,76l14,31H940l45,-76L972,822H350l66,-55V570c0,0,146,98,247,98c0,0,95,0,167,-73c0,0,71,-72,71,-167c0,0,0,-77,-53,-142c0,0,-54,-64,-159,-136l-89,99c0,0,100,70,152,121c0,0,52,52,52,105c0,0,0,34,-23,60c0,0,-22,26,-72,26c0,0,-139,0,-434,-252L610,34L611,8L527,-71Z"
id="f6_n0"
transform="scale(0.001,-0.001)"/>

<path d="M342,324c0,0,45,0,75,34c0,0,31,33,31,100V822H165l66,-58V390c0,0,32,-66,111,-66ZM853,-49L762,8V822H509l65,-58V455c0,0,0,-134,-51,-185c0,0,-52,-52,-127,-52c0,0,-98,0,-195,99c0,0,-97,99,-97,209V822H0l-45,76l14,31H1027l46,-76l-14,-31H823l66,-58V-39L853,-49Z"
id="f6_bo"
transform="scale(0.001,-0.001)"/>

<path d="M228,-49L138,8V822H0l-45,76l14,31H138c0,0,-109,342,-284,342c0,0,-62,0,-102,-40c0,0,-40,-39,-40,-93c0,0,0,-61,51,-134l-42,-32c0,0,-128,113,-128,226c0,0,0,79,60,136c0,0,61,56,154,56c0,0,137,0,249,-125c0,0,112,-125,169,-336H402l46,-76L434,822H199l65,-58V-39L228,-49Z"
id="f6_cv"
transform="scale(0.001,-0.001)"/>

<path d="M228,-49L138,8V822H0l-45,76l14,31H402l46,-76L434,822H199l65,-58V-39L228,-49Z"
id="f6_ct"
transform="scale(0.001,-0.001)"/>

<path d="M527,-71L52,414l34,92H277c0,0,12,32,12,72V822H0l-45,76l14,31H599l46,-76L631,822H350l66,-55V564c0,0,0,-96,-152,-248L610,34L611,8L527,-71Z"
id="f6_c1"
transform="scale(0.001,-0.001)"/>

<path d="M130,-236l-83,41c0,0,193,326,193,652c0,0,0,311,-206,622l79,39c0,0,270,-327,270,-669c0,0,0,-337,-253,-685Z"
id="f6_h"
transform="scale(0.001,-0.001)"/>

<path d="M768,-49L678,8V202c0,0,-73,-58,-172,-58c0,0,-123,0,-240,94c0,0,-118,94,-179,237l20,55c0,0,134,12,215,70c0,0,81,57,81,141c0,0,0,90,-67,134l-26,3c0,0,-46,0,-74,-29c0,0,-28,-30,-28,-68c0,0,0,-55,82,-109L252,620C252,620,93,720,93,820c0,0,0,65,47,104c0,0,46,40,114,40c0,0,99,0,179,-83c0,0,80,-83,82,-197c0,0,0,-93,-79,-165c0,0,-78,-73,-199,-97c0,0,29,-104,88,-158c0,0,42,-16,92,-16c0,0,78,0,151,38c0,0,74,38,110,111V822H553l-46,76l14,31H943l45,-76L975,822H739l66,-58V-39L768,-49Z"
id="f6_bq"
transform="scale(0.001,-0.001)"/>

<path d="M228,-49L138,8V822H0l-45,76l14,31H119L-33,1144c0,0,-70,92,-157,92c0,0,-69,0,-159,-58l-72,118c0,0,89,73,181,73c0,0,140,0,257,-170L205,929H402l46,-76L434,822H199l65,-58V-39L228,-49Z"
id="f6_d8"
transform="scale(0.001,-0.001)"/>

<path d="M663,-49L573,8V445H299V280L226,251c0,0,-105,99,-162,238l63,72H573V822H0l-45,76l14,31H837l46,-76L869,822H634l66,-58V-39L663,-49Z"
id="f6_bt"
transform="scale(0.001,-0.001)"/>

<path d="M-214,863l-199,281c0,0,-70,92,-157,92c0,0,-69,0,-159,-58l-72,118c0,0,89,73,180,73c0,0,141,0,258,-170L-155,901l-59,-38Z"
id="f6_d4"
transform="scale(0.001,-0.001)"/>

<path d="M567,822l-46,76l14,31H726l46,-76L758,822ZM518,122c0,0,-115,0,-225,93c0,0,-111,94,-111,193c0,0,0,79,61,137C243,545,66,672,66,791c0,0,0,75,52,124c0,0,53,49,134,49c0,0,164,0,260,-237L451,694c0,0,-55,114,-119,163l-31,5c0,0,-44,0,-77,-32c0,0,-33,-31,-33,-78c0,0,0,-86,113,-165c0,0,60,27,133,27l67,-4l75,-89L564,490l-51,7H493c0,0,-90,0,-142,-43c0,0,-52,-43,-52,-104c0,0,0,-60,51,-109c0,0,37,-13,82,-13c0,0,104,0,197,59c0,0,94,60,127,148l95,-87c0,0,-43,-94,-140,-160c0,0,-97,-66,-193,-66Z"
id="f6_lh"
transform="scale(0.001,-0.001)"/>

<path d="M374,248c0,0,77,0,149,36c0,0,71,37,110,107V822H284c0,0,138,-96,138,-208c0,0,0,-151,-228,-192c0,0,29,-104,89,-158c0,0,41,-16,91,-16ZM723,-49L633,8V200c0,0,-69,-56,-170,-56c0,0,-122,0,-240,94c0,0,-118,94,-179,237l20,55c0,0,133,17,187,44c0,0,55,28,55,84c0,0,0,45,-30,81c0,0,-30,36,-99,83H0l-45,76l14,31H897l46,-76L929,822H694l65,-58V-39L723,-49Z"
id="f6_c0"
transform="scale(0.001,-0.001)"/>

<path d="M325,240c0,0,77,0,154,35c0,0,77,35,120,99V500c0,0,-118,73,-222,73c0,0,-97,0,-151,-54c0,0,-53,-53,-53,-128c0,0,0,-73,49,-125c0,0,38,-26,103,-26ZM689,-49L599,8V199c0,0,-73,-65,-179,-65c0,0,-134,0,-252,96c0,0,-118,95,-118,221c0,0,0,102,78,171c0,0,78,69,190,69c0,0,38,0,75,-10L599,582V822H0l-45,76l14,31H863l46,-76L895,822H660l66,-58V-39L689,-49Z"
id="f6_c7"
transform="scale(0.001,-0.001)"/>

<path d="M959,-49L869,8V367c0,0,-32,-13,-64,-13c0,0,-50,0,-110,25c0,0,23,-52,23,-109c0,0,0,-103,-70,-170c0,0,-70,-66,-182,-66c0,0,-110,0,-222,82c0,0,-111,83,-213,293l68,42c0,0,72,-155,152,-231c0,0,81,-76,178,-76c0,0,83,0,131,49c0,0,48,48,48,117c0,0,0,54,-30,100c0,0,-31,47,-91,65L325,391L257,512c0,0,68,53,156,56c0,0,140,72,140,179c0,0,0,69,-52,99c0,0,-4,1,-11,1c-19,0,-66,-4,-123,-30c0,0,-78,-35,-142,-96L150,823c0,0,119,117,253,117c0,0,98,0,175,-71c0,0,77,-70,77,-159c0,0,0,-103,-94,-180c0,0,39,-23,73,-56c0,0,52,-22,109,-22c0,0,77,0,126,38V822H727l-46,76l14,31h840l46,-76l-13,-31H1332l66,-58V-39l-37,-10L1271,8V822H930l66,-58V-39L959,-49Z"
id="f6_am"
transform="scale(0.001,-0.001)"/>

<path d="M761,293c0,0,127,0,169,94V532c0,0,-68,46,-145,46c0,0,-76,0,-121,-46c0,0,-45,-45,-45,-107c0,0,0,-61,44,-110c0,0,47,-22,98,-22ZM657,67c0,0,166,0,273,107v55c0,0,-45,-36,-111,-36c0,0,-110,0,-207,90c0,0,-97,90,-97,194c0,0,0,85,66,148c0,0,65,63,155,63l48,-5L930,603V822H376l62,-55V579c0,0,0,-60,-23,-102c0,0,-24,-42,-148,-190c0,0,66,-104,175,-162c0,0,108,-58,215,-58ZM1021,-49L930,8V53c0,0,-105,-83,-264,-83c0,0,-177,0,-339,128C327,98,165,226,90,429l34,77H296c0,0,19,39,19,102l-2,214H0l-45,76l14,31H1195l46,-76l-14,-31H992l65,-58V-39l-36,-10Z"
id="f6_ba"
transform="scale(0.001,-0.001)"/>

<path d="M689,445V822H286l65,-58l8,-319ZM779,-49L689,8V328H370V180L296,150c0,0,-56,35,-120,104c0,0,-63,70,-89,131l41,60H238L223,822H0l-45,76l14,31H953l46,-76L985,822H750l66,-58V-39L779,-49Z"
id="f6_bz"
transform="scale(0.001,-0.001)"/>

<path d="M548,-57c0,0,-122,0,-243,81c0,0,-122,81,-252,280l57,41C110,345,283,64,498,64c0,0,92,0,153,49c0,0,61,49,61,121c0,0,0,46,-28,84L440,237c0,0,-73,11,-139,55c0,0,-66,44,-105,105c0,0,-40,61,-40,119c0,0,0,72,62,125c0,0,62,53,184,53H625V822H0l-45,76l14,31H906l46,-76L938,822H678l66,-58V562H431c0,0,-164,0,-164,-99c0,0,0,-55,57,-102l261,82c0,0,104,-21,172,-98c0,0,68,-78,68,-171c0,0,0,-99,-76,-166c0,0,-77,-65,-201,-65Z"
id="f6_bm"
transform="scale(0.001,-0.001)"/>

<path d="M959,-49L869,8V367c0,0,-32,-13,-64,-13c0,0,-50,0,-110,25c0,0,23,-52,23,-109c0,0,0,-103,-70,-170c0,0,-70,-66,-182,-66c0,0,-110,0,-222,82c0,0,-111,83,-213,293l68,42c0,0,72,-155,152,-231c0,0,81,-76,178,-76c0,0,83,0,131,49c0,0,48,48,48,117c0,0,0,54,-30,100c0,0,-31,47,-91,65L325,391L257,512c0,0,68,53,156,56c0,0,140,72,140,179c0,0,0,69,-52,99c0,0,-4,1,-11,1c-19,0,-66,-4,-123,-30c0,0,-78,-35,-142,-96L150,823c0,0,119,117,253,117c0,0,98,0,175,-71c0,0,77,-70,77,-159c0,0,0,-103,-94,-180c0,0,39,-23,73,-56c0,0,52,-22,109,-22c0,0,77,0,126,38V822H727l-46,76l14,31h558l-153,215c0,0,-70,92,-157,92c0,0,-69,0,-159,-58l-72,118c0,0,89,73,180,73c0,0,141,0,258,-170L1338,929h197l46,-76l-13,-31H1332l66,-58V-39l-37,-10L1271,8V822H930l66,-58V-39L959,-49Z"
id="f6_b1"
transform="scale(0.001,-0.001)"/>

<path d="M108,-222l-44,58c0,0,96,81,104,164L89,61c0,0,12,83,93,122c0,0,50,-15,79,-55c0,0,29,-39,29,-90c0,0,0,-69,-48,-142c0,0,-48,-72,-134,-118Z"
id="f6_k"
transform="scale(0.001,-0.001)"/>

<path d="M727,-49L637,8V822H278l66,-58V226L270,196c0,0,-64,36,-122,98c0,0,-58,62,-79,122l43,59H217V822H0l-45,76l14,31H901l46,-76L933,822H698l66,-58V-39L727,-49Z"
id="f6_bb"
transform="scale(0.001,-0.001)"/>

<path d="M283,260c0,0,122,0,209,113V513c0,0,-90,51,-160,51c0,0,-80,0,-129,-50c0,0,-49,-50,-49,-118c0,0,0,-60,35,-110c0,0,45,-26,94,-26ZM582,-49L492,8V211c0,0,-63,-54,-141,-54c0,0,-113,0,-213,92c0,0,-100,92,-100,205c0,0,0,93,69,157c0,0,69,64,162,64c0,0,32,0,64,-9L492,590V822H0l-45,76l14,31H1108l45,-76l-13,-31H553l66,-58V524c0,0,91,89,192,89c0,0,98,0,171,-79c0,0,72,-79,72,-186c0,0,0,-178,-224,-330L736,124c0,0,219,153,219,269c0,0,0,44,-26,75c0,0,-26,32,-81,32c0,0,-109,0,-229,-155V-39L582,-49Z"
id="f6_b9"
transform="scale(0.001,-0.001)"/>

<path d="M827,-49L736,8V205c0,0,-84,-84,-209,-84c0,0,-130,0,-237,91c0,0,-108,92,-108,196c0,0,0,79,61,137C243,545,66,672,66,791c0,0,0,75,52,124c0,0,53,49,134,49c0,0,164,0,260,-237L451,694c0,0,-55,114,-119,163l-31,5c0,0,-44,0,-77,-32c0,0,-33,-31,-33,-78c0,0,0,-86,113,-165c0,0,60,27,133,27l67,-4l75,-89L564,490l-51,7H493c0,0,-90,0,-142,-43c0,0,-52,-43,-52,-104c0,0,0,-60,51,-109c0,0,33,-16,84,-16c0,0,89,0,177,47c0,0,89,47,125,137V822H567l-46,76l14,31h466l46,-76l-14,-31H798l65,-58V-39L827,-49Z"
id="f6_bs"
transform="scale(0.001,-0.001)"/>

<path d="M228,-49L138,8V822H0l-45,76l14,31H134c0,0,-91,93,-91,200c0,0,0,109,92,174c0,0,93,66,253,66c0,0,186,0,398,-89c0,0,212,-90,430,-264l-49,-47c0,0,-424,285,-727,285c0,0,-125,0,-201,-49c0,0,-76,-48,-76,-137c0,0,0,-67,52,-139H402l46,-76L434,822H199l65,-58V-39L228,-49Z"
id="f6_nu"
transform="scale(0.001,-0.001)"/>

<path d="M0,1062c0,0,-26,11,-60,36c0,0,-34,26,-51,49c0,0,39,81,91,110c0,0,60,-23,106,-85c0,0,-28,-70,-86,-110Z"
id="f6_dj"
transform="scale(0.001,-0.001)"/>

<path d="M266,150c0,0,-57,35,-120,104c0,0,-63,70,-89,131l41,60H211L194,822H0l-45,76l14,31H587l46,-76L619,822H255l66,-58l7,-319H688L721,328H339V180L266,150Z"
id="f6_lq"
transform="scale(0.001,-0.001)"/>

<path d="M426,-68L339,5V953l37,11l87,-73V-57L426,-68Z"
id="f6_ng"
transform="scale(0.001,-0.001)"/>

<path d="M959,-49L869,8V367c0,0,-32,-13,-64,-13c0,0,-50,0,-110,25c0,0,23,-52,23,-109c0,0,0,-103,-70,-170c0,0,-70,-66,-182,-66c0,0,-110,0,-222,82c0,0,-111,83,-213,293l68,42c0,0,72,-155,152,-231c0,0,81,-76,178,-76c0,0,83,0,131,49c0,0,48,48,48,117c0,0,0,54,-30,100c0,0,-31,47,-91,65L325,391L257,512c0,0,68,53,156,56c0,0,140,72,140,179c0,0,0,69,-52,99c0,0,-4,1,-11,1c-19,0,-66,-4,-123,-30c0,0,-78,-35,-142,-96L150,823c0,0,119,117,253,117c0,0,98,0,175,-71c0,0,77,-70,77,-159c0,0,0,-103,-94,-180c0,0,39,-23,73,-56c0,0,52,-22,109,-22c0,0,77,0,126,38V822H727l-46,76l14,31h439l45,-76l-13,-31H930l66,-58V-39L959,-49Z"
id="f6_al"
transform="scale(0.001,-0.001)"/>

<path d="M756,299c0,0,75,0,129,52c0,0,55,51,55,123l-3,30c0,0,-13,46,-63,74c0,0,-51,29,-101,29c0,0,-70,0,-118,-51c0,0,-47,-50,-47,-116c0,0,0,-67,50,-113c0,0,46,-24,92,-28Zm64,-87c0,0,-128,0,-220,82c0,0,-91,82,-91,180c0,0,0,99,64,162c0,0,64,62,159,62c0,0,128,0,212,-83c0,0,84,-83,84,-192c0,0,0,-91,-62,-151c0,0,-63,-60,-146,-60ZM666,-30c0,0,-182,0,-341,126C325,96,165,223,90,429l34,77H296c0,0,19,39,19,102l-2,214H0l-45,76l14,31H981l46,-76l-14,-31H376l62,-55V579c0,0,0,-60,-23,-102c0,0,-24,-42,-148,-190c0,0,57,-107,152,-154c0,0,94,-47,203,-47c0,0,99,0,185,32L836,0c0,0,-75,-30,-170,-30Z"
id="f6_l3"
transform="scale(0.001,-0.001)"/>

<path d="M688,-243c0,0,-256,53,-408,173c0,0,-152,119,-152,270c0,0,0,101,68,171c0,0,-101,84,-101,179c0,0,0,64,53,112c0,0,54,47,191,47H587V822H0l-45,76l14,31H830l45,-76L862,822H640l66,-58V585H362c0,0,-159,-1,-159,-92c0,0,0,-41,46,-80c0,0,76,47,183,47c0,0,135,0,230,-76c0,0,96,-75,96,-187C758,197,758,67,629,2L545,104c0,0,49,30,81,75c0,0,32,44,32,82c0,0,0,16,-4,26c0,0,-64,58,-167,58c0,0,-97,0,-166,-50v-2c0,0,-67,-52,-67,-131c0,0,0,-116,132,-199c0,0,132,-84,334,-132l-32,-74Z"
id="f6_cc"
transform="scale(0.001,-0.001)"/>

<path d="M675,-274L602,21C602,21,550,3,498,3C498,3,347,3,210,118C210,118,73,232,73,373c0,0,0,113,84,184c0,0,84,71,222,72H524V822H0l-45,76l14,31H834l46,-76L866,822H585l66,-58V504l-3,2l3,-3H408c0,0,-95,0,-154,-53c0,0,-58,-53,-58,-132c0,0,0,-49,27,-100c0,0,28,-50,83,-84c0,0,44,-15,96,-15c0,0,91,0,160,46L535,303l101,48L773,188c0,0,-8,-28,-34,-66c0,0,-27,-38,-62,-64L813,-221L675,-274Z"
id="f6_br"
transform="scale(0.001,-0.001)"/>

<path d="M799,475V822H350l66,-55V564c0,0,0,-43,-25,-89ZM527,-71L52,414l34,92H277c0,0,12,32,12,72V822H0l-45,76l14,31H1063l46,-76l-14,-31H860l66,-58V-39L889,-49L799,8V370H315L264,316L610,34L611,8L527,-71Z"
id="f6_cb"
transform="scale(0.001,-0.001)"/>

<path d="M388,325c0,0,58,0,112,31c0,0,53,31,84,86V822H165l69,-58V408c0,0,47,-83,154,-83ZM674,-49L584,8V257c0,0,-61,-51,-141,-51c0,0,-125,0,-232,109c0,0,-107,108,-107,243V822H0l-45,76l14,31H848l46,-76L880,822H645l65,-58V-39L674,-49Z"
id="f6_bv"
transform="scale(0.001,-0.001)"/>

<path d="M228,-49L138,8V822H0l-45,76l14,31H134c0,0,-90,95,-90,199c0,0,0,111,99,177c0,0,98,67,271,67c0,0,202,0,439,-91c0,0,238,-91,475,-263l-48,-49c0,0,-469,288,-812,288c0,0,-138,0,-220,-49c0,0,-83,-50,-83,-142c0,0,0,-64,50,-137H402l46,-76L434,822H199l65,-58V-39L228,-49Z"
id="f6_nv"
transform="scale(0.001,-0.001)"/>

<path d="M180,196c0,0,-105,99,-162,238l63,72H573l40,-86L591,390H254V225L180,196ZM0,822l-45,76l14,31H409l46,-76L442,822Z"
id="f6_lj"
transform="scale(0.001,-0.001)"/>

<path d="M434,225c0,0,84,0,169,42c0,0,85,43,126,126V822H267c0,0,-64,-49,-64,-115c0,0,0,-79,90,-126c0,0,60,35,144,35l67,-6l75,-89L564,490l-51,7H493c0,0,-90,0,-142,-43c0,0,-52,-43,-52,-104c0,0,0,-60,51,-109c0,0,33,-16,84,-16ZM819,-49L729,8V197c0,0,-83,-76,-202,-76c0,0,-130,0,-237,91c0,0,-108,92,-108,196c0,0,0,72,53,128c0,0,-75,42,-115,97c0,0,-41,56,-41,113c0,0,0,38,22,76H0l-45,76l14,31H993l46,-76l-14,-31H790l66,-58V-39L819,-49Z"
id="f6_bc"
transform="scale(0.001,-0.001)"/>

<path d="M413,-59C413,-59,53,193,53,416c0,0,0,97,66,164c0,0,66,66,156,66c0,0,61,0,110,-30L487,507c0,0,92,126,257,126l35,-2V822H0l-45,76l14,31H1043l46,-76l-13,-31H840l66,-58V-39L869,-49L779,8V547c0,0,-101,-5,-165,-90c0,0,-64,-86,-70,-222L507,225l-90,73c0,0,5,79,35,151c0,0,-59,66,-128,66c0,0,-57,0,-100,-38c0,0,-44,-39,-44,-109c0,0,0,-165,284,-360L413,-59Z"
id="f6_c3"
transform="scale(0.001,-0.001)"/>

<path d="M-234,-413c0,0,-210,0,-488,322l54,49c0,0,119,-128,209,-193c0,0,90,-65,177,-65c0,0,72,0,113,40c0,0,42,39,42,91c0,0,0,75,-78,106L-323,-181l-90,98c0,0,63,95,167,95c0,0,90,0,155,-69c0,0,66,-70,66,-164c0,0,0,-85,-60,-139c0,0,-61,-53,-149,-53Z"
id="f6_cw"
transform="scale(0.001,-0.001)"/>

<path d="M487,-7c0,0,-88,0,-185,46c0,0,-97,47,-163,130c0,0,-66,83,-66,185c0,0,0,109,80,177c0,0,79,68,234,68H504V822H0l-45,76l14,31H827l45,-76L859,822H565l66,-58V474l-3,1l3,-3H396c0,0,-100,0,-152,-47c0,0,-53,-48,-53,-119c0,0,0,-104,93,-178c0,0,60,-20,118,-20c0,0,81,0,156,36c0,0,76,35,123,99l92,-99C773,144,723,70,645,31C645,31,567,-7,487,-7Z"
id="f6_bk"
transform="scale(0.001,-0.001)"/>

<path d="M108,-433L-59,-214c0,0,-99,119,-191,119c0,0,-59,0,-96,-35c0,0,-36,-34,-36,-81c0,0,0,-49,42,-83l152,95l64,-116c0,0,-71,-58,-148,-58c0,0,-80,0,-146,63c0,0,-65,64,-65,144c0,0,0,77,62,131c0,0,61,53,142,53c0,0,138,0,296,-205L165,-393l-57,-40Z"
id="f6_cx"
transform="scale(0.001,-0.001)"/>

<path d="M1066,248c0,0,77,0,149,36c0,0,71,37,110,107V822H976c0,0,138,-96,138,-208c0,0,0,-151,-228,-192c0,0,29,-104,89,-158c0,0,41,-16,91,-16ZM1415,-49L1325,8V200c0,0,-69,-56,-170,-56c0,0,-121,0,-238,91c0,0,-116,92,-178,233c0,0,-22,19,-51,25c0,0,-28,5,-191,5c0,0,61,-47,93,-111c0,0,33,-63,33,-126c0,0,0,-85,-58,-142c0,0,-59,-56,-148,-56c0,0,-130,0,-230,139C187,202,87,341,20,581l76,24c0,0,60,-202,127,-306c0,0,67,-105,160,-105c0,0,57,0,91,36c0,0,33,36,33,91c0,0,0,84,-73,159L295,542v72H542c0,0,112,0,168,-14c0,0,55,-15,97,-62c0,0,102,15,146,42c0,0,45,27,45,78c0,0,0,45,-30,81c0,0,-30,36,-99,83H0l-45,76l14,31H1589l46,-76l-14,-31H1386l65,-58V-39l-36,-10Z"
id="f6_iz"
transform="scale(0.001,-0.001)"/>

<path d="M163,-343V1123H281V-343Z"
id="f6_2s"
transform="scale(0.001,-0.001)"/>

<path d="M823,-49L733,8V339H445V191L371,160c0,0,-56,36,-120,105c0,0,-63,70,-89,131l41,59H313V735c0,0,0,99,-55,140c0,0,-3,1,-8,1c-16,0,-48,-3,-71,-23c0,0,-31,-26,-31,-66c0,0,0,-69,81,-113L189,620C189,620,31,720,31,828c0,0,0,61,45,99c0,0,46,37,109,37c0,0,96,0,173,-86c0,0,76,-87,79,-194V455H733V822H556l-46,76l14,31H998l45,-76l-13,-31H794l66,-58V-39L823,-49Z"
id="f6_by"
transform="scale(0.001,-0.001)"/>

<path d="M0,822l-45,76l14,31H61l46,-76L93,822Z"
id="f6_no"
transform="scale(0.001,-0.001)"/>

<path d="M471,-26c0,0,-259,0,-448,396l70,43C93,413,240,98,442,98c0,0,79,0,132,46c0,0,54,45,54,120c0,0,0,61,-38,116c0,0,-38,54,-107,72L322,370L255,492c0,0,66,53,156,56c0,0,128,51,128,153c0,0,0,77,-65,121H0l-45,76l14,31H813l46,-76L845,822H578c0,0,76,-66,76,-157c0,0,0,-95,-87,-156c0,0,84,-48,131,-123c0,0,48,-76,48,-158c0,0,0,-109,-78,-182c0,0,-78,-72,-197,-72Z"
id="f6_ap"
transform="scale(0.001,-0.001)"/>

<path d="M527,-71L52,414l34,92H277c0,0,12,32,12,72V822H0l-45,76l14,31H940l45,-76L972,822H350l66,-55V553c0,0,24,52,77,83c0,0,52,30,112,30c0,0,87,0,171,-76c0,0,84,-75,222,-304L938,244L828,411c0,0,-95,134,-195,134c0,0,-63,0,-100,-35c0,0,-36,-36,-36,-87c0,0,0,-50,42,-87l152,99L755,315c0,0,-71,-61,-148,-61c0,0,-80,0,-146,66c0,0,-65,67,-65,164c0,0,-34,-70,-132,-168L610,34L611,8L527,-71Z"
id="f6_n1"
transform="scale(0.001,-0.001)"/>

<path d="M900,298c0,0,32,73,32,159c0,0,0,110,-38,160c0,0,-40,31,-81,31c0,0,-48,0,-80,-35c0,0,-33,-35,-33,-89c0,0,0,-118,200,-226ZM588,-60c0,0,-154,0,-274,93c0,0,-120,94,-120,207c0,0,0,50,28,92C222,332,61,440,61,552c0,0,0,71,56,122c0,0,56,50,169,50H417l64,-98L463,600H333c0,0,-157,-1,-157,-99c0,0,0,-59,88,-124c0,0,68,52,164,52c0,0,38,0,79,-9l71,-88L558,299c0,0,-46,10,-81,10c0,0,-75,0,-116,-36c0,0,-40,-36,-40,-88c0,0,0,-78,73,-130c0,0,54,-17,109,-17c0,0,114,0,211,54c0,0,97,53,154,145c0,0,-156,96,-223,173c0,0,-67,77,-67,155c0,0,0,72,48,124c0,0,48,52,126,55v78H0l-45,76l14,31H1123l46,-76l-14,-31H805l66,-58V717c0,0,76,-40,124,-124c0,0,47,-84,47,-193c0,0,0,-188,-133,-324C909,76,776,-60,588,-60Z"
id="f6_bf"
transform="scale(0.001,-0.001)"/>

<path d="M483,-305L295,-10c0,0,-90,22,-156,74l41,170h66L351,63c0,0,126,4,207,62c0,0,82,58,82,139c0,0,0,37,-18,71L365,266c0,0,-110,15,-197,102c0,0,-87,87,-87,176c0,0,0,69,59,117c0,0,59,48,172,48H550V822H0l-45,76l14,31H550c0,0,-142,122,-142,255c0,0,0,78,52,133c0,0,52,55,140,55c0,0,98,0,176,-64l-23,-69c0,0,-53,32,-104,32c0,0,-56,0,-94,-36c0,0,-39,-36,-39,-95c0,0,0,-109,112,-211H822l46,-76L854,822H603l66,-58V585H373c0,0,-184,0,-184,-99c0,0,0,-48,63,-101l310,78c0,0,86,-34,141,-99c0,0,55,-65,55,-142c0,0,0,-109,-98,-179c0,0,-98,-69,-254,-69L599,-216L483,-305Z"
id="f6_ao"
transform="scale(0.001,-0.001)"/>

<path d="M449,79c0,0,103,0,168,61c0,0,66,60,66,149c0,0,0,93,-84,186H420c0,0,-107,0,-164,-50c0,0,-57,-51,-57,-126c0,0,0,-108,99,-184c0,0,81,-36,151,-36Zm67,-96c0,0,-168,0,-301,109C215,92,81,202,81,350c0,0,0,114,83,182c0,0,84,68,229,68H507V822H0l-45,76l14,31H883l46,-76L915,822H568l66,-58V532c0,0,87,-64,130,-144c0,0,43,-79,43,-157c0,0,0,-109,-81,-179c0,0,-81,-69,-210,-69Z"
id="f6_bl"
transform="scale(0.001,-0.001)"/>

<path d="M547,-285c0,0,-66,25,-102,80c0,0,32,69,82,101c0,0,55,-20,99,-80c0,0,-26,-67,-79,-101Zm1,228c0,0,-122,0,-243,81c0,0,-122,81,-252,280l57,41C110,345,283,64,498,64c0,0,92,0,153,49c0,0,61,49,61,121c0,0,0,46,-28,84L440,237c0,0,-73,11,-139,55c0,0,-66,44,-105,105c0,0,-40,61,-40,119c0,0,0,72,62,125c0,0,62,53,184,53H625V822H0l-45,76l14,31H906l46,-76L938,822H678l66,-58V562H431c0,0,-164,0,-164,-99c0,0,0,-55,57,-102l261,82c0,0,104,-21,172,-98c0,0,68,-78,68,-171c0,0,0,-99,-76,-166c0,0,-77,-65,-201,-65Z"
id="f6_ch"
transform="scale(0.001,-0.001)"/>

<path d="M825,-49L735,8V217c0,0,-86,-72,-197,-72c0,0,-130,0,-238,91c0,0,-107,91,-107,204c0,0,0,55,27,105H55L12,616l14,30H574l46,-76L607,539H396c0,0,-78,-49,-78,-162c0,0,0,-70,40,-111c0,0,39,-15,94,-15c0,0,84,0,163,41c0,0,79,41,120,121V822H0l-45,76l14,31H999l46,-76l-14,-31H796l66,-58V-39L825,-49Z"
id="f6_be"
transform="scale(0.001,-0.001)"/>

<path d="M228,-49L138,8V822H0l-45,76l14,31H159L6,1144c0,0,-69,92,-156,92c0,0,-69,0,-159,-58l-72,118c0,0,89,73,180,73c0,0,136,0,250,-159l59,-84l-3,34c0,0,0,76,53,127c0,0,53,51,129,51c0,0,93,0,164,-91l-26,-52c0,0,-52,33,-103,33c0,0,-62,0,-101,-38c0,0,-39,-38,-39,-102c0,0,0,-72,66,-159H402l46,-76L434,822H199l65,-58V-39L228,-49Z"
id="f6_p6"
transform="scale(0.001,-0.001)"/>

<path d="M228,-49L138,8V822H0l-45,76l14,31H134c0,0,-91,92,-91,191c0,0,0,105,85,170c0,0,84,65,219,65c0,0,128,0,293,-76c0,0,165,-77,362,-263L958,966c0,0,-177,143,-303,210c0,0,-125,68,-244,68c0,0,-107,0,-175,-50c0,0,-68,-50,-68,-131c0,0,0,-61,49,-134H402l46,-76L434,822H199l65,-58V-39L228,-49Z"
id="f6_cu"
transform="scale(0.001,-0.001)"/>

<path d="M348,229c0,0,57,0,106,17L263,559c0,0,-95,-50,-95,-162c0,0,0,-75,52,-136c0,0,49,-32,128,-32Zm170,48c0,0,61,38,96,91V504c0,0,-131,80,-244,80l-35,-2L518,277ZM704,-49L614,8V193c0,0,-84,-65,-192,-65c0,0,-139,0,-255,98c0,0,-115,98,-115,226c0,0,0,106,77,175c0,0,77,70,189,70c0,0,38,0,75,-9L614,578V822H0l-45,76l14,31H878l46,-76L911,822H675l66,-58V-39L704,-49Z"
id="f6_bx"
transform="scale(0.001,-0.001)"/>

<path d="M513,460c0,0,61,81,61,179c0,0,0,87,-45,143c0,0,-45,57,-116,57c0,0,-63,0,-102,-43c0,0,-39,-43,-39,-110c0,0,0,-90,68,-151c0,0,68,-61,173,-75ZM581,-83L278,167l-41,-4c0,0,-99,0,-130,37l47,168l51,12l78,-79c0,0,110,40,183,105c0,0,-141,23,-231,107c0,0,-90,84,-90,193c0,0,0,69,37,116H0l-45,76l14,31H1134l45,-76l-13,-31H930l66,-58V-39L959,-49L869,8V822H588c0,0,51,-44,75,-109c0,0,25,-64,25,-122c0,0,0,-105,-81,-213c0,0,-80,-108,-240,-176L658,18l2,-25L581,-83Z"
id="f6_c8"
transform="scale(0.001,-0.001)"/>

<path d="M830,-253l-123,66c0,0,31,47,31,78c0,0,0,44,-64,84L353,130c0,0,-234,113,-234,325V822H0l-45,76l14,31H848l46,-76L880,822H655l68,-58V561c0,0,0,-176,-41,-241c0,0,-40,-65,-161,-106l-49,82l124,69V822H180l66,-58V283L646,92c0,0,126,-60,176,-110c0,0,50,-51,50,-115c0,0,0,-62,-42,-120Z"
id="f6_ax"
transform="scale(0.001,-0.001)"/>

<path d="M154,752c0,0,-108,44,-108,143c0,0,0,74,48,145c0,0,48,71,134,118l44,-58c0,0,-43,-31,-72,-76c0,0,-29,-46,-32,-89l80,-61c0,0,-4,-38,-30,-72c0,0,-25,-34,-64,-50Z"
id="f6_8c"
transform="scale(0.001,-0.001)"/>

<path d="M105,752L61,810c0,0,43,30,72,76c0,0,29,46,32,89l-79,61c0,0,3,38,29,72c0,0,26,33,64,50c0,0,110,-43,110,-148c0,0,0,-72,-50,-141c0,0,-50,-70,-134,-117Z"
id="f6_8d"
transform="scale(0.001,-0.001)"/>

<path d="M725,307c0,0,-95,0,-218,78c0,0,-123,78,-188,78c0,0,-54,0,-95,-34c0,0,-41,-34,-73,-100L93,362c0,0,38,88,101,146c0,0,63,59,148,59c0,0,90,0,214,-78c0,0,124,-79,188,-79c0,0,63,0,106,34c0,0,42,33,85,104l60,-40c0,0,-32,-66,-101,-134c0,0,-70,-67,-169,-67Z"
id="f7_4r"
transform="scale(0.001,-0.001)"/>

<path d="M423,92c0,0,97,0,159,62c0,0,62,62,62,157c0,0,0,97,-64,160c0,0,-64,64,-161,64c0,0,-96,0,-158,-63c0,0,-62,-62,-62,-156c0,0,0,-58,27,-111c0,0,27,-54,81,-84c0,0,54,-29,116,-29Zm0,552c0,0,78,0,127,49c0,0,49,49,49,120c0,0,0,74,-50,124c0,0,-51,51,-128,51c0,0,-77,0,-127,-50c0,0,-51,-49,-51,-118c0,0,0,-77,50,-126c0,0,50,-50,130,-50ZM422,-18c0,0,-162,0,-261,95c0,0,-99,96,-99,239c0,0,0,107,54,179c0,0,54,72,154,98c0,0,-84,31,-124,87c0,0,-40,57,-40,136c0,0,0,119,85,201c0,0,86,81,229,81c0,0,143,0,230,-83c0,0,87,-83,87,-203c0,0,0,-76,-40,-132c0,0,-39,-56,-121,-87c0,0,101,-33,154,-106c0,0,52,-73,52,-174c0,0,0,-141,-99,-236c0,0,-99,-95,-261,-95Z"
id="f8_s"
transform="scale(0.001,-0.001)"/>

<path d="M420,489c0,0,93,0,153,65c0,0,60,65,60,181c0,0,0,116,-62,184c0,0,-61,68,-148,68c0,0,-90,0,-156,-74c0,0,-66,-73,-66,-189c0,0,0,-105,63,-170c0,0,63,-65,156,-65ZM391,-18c0,0,-128,0,-209,71c0,0,-82,71,-98,200l129,12c0,0,17,-91,63,-132c0,0,46,-41,118,-41c0,0,62,0,109,28c0,0,47,29,76,76c0,0,30,47,50,128c0,0,20,80,20,164c0,0,0,9,-1,27c0,0,-40,-65,-110,-105c0,0,-69,-39,-151,-39c0,0,-135,0,-229,98c0,0,-94,99,-94,260c0,0,0,166,98,268c0,0,98,101,245,101c0,0,107,0,195,-57c0,0,89,-58,134,-164c0,0,46,-106,46,-308c0,0,0,-209,-45,-334C737,235,691,111,602,46c0,0,-90,-64,-211,-64Z"
id="f8_t"
transform="scale(0.001,-0.001)"/>


</defs>
</svg>