<?xml version="1.0" encoding="UTF-8" standalone="no"?>
<!DOCTYPE svg PUBLIC "-//W3C//DTD SVG 1.1//EN"
"http://www.w3.org/Graphics/SVG/1.1/DTD/svg11.dtd">
<svg viewBox="0 0 641 910" version="1.1" xmlns="http://www.w3.org/2000/svg" xmlns:xlink="http://www.w3.org/1999/xlink">
<defs>
<clipPath id="c0_92"><path d="M0,909.8V0H641.7V909.8Z"/></clipPath>
<clipPath id="c1_92"><path d="M0,908.6V0H641.7V908.6Z"/></clipPath>
<style type="text/css"><![CDATA[
.g0_92{
fill: #FFFFFF;
}
.g1_92{
}
]]></style>
</defs>
<path d="M0,0H641.7V909.8H0V0Z" class="g0_92"/>
<path d="M0,0H641.7V909.8H0V0Z" class="g0_92"/>
<g clip-path="url(#c0_92)">
<path d="M0,-77332.2H641.7V29113.3H0V-77332.2Z" class="g0_92"/>
</g>
<path d="M0,0H641.7V908.6H0V0Z" class="g0_92"/>
<path d="M19.5,60.7H602.7v1.2H19.5V60.7Z" class="g1_92"/>
<g clip-path="url(#c1_92)">
<path d="M0,61.9H641.7V909.8H0V61.9Z" class="g0_92"/>
<g fill="#000000" >
<use xlink:href="#f6_cb" transform="matrix(14,0,0,14,164.2,82.5)" />
<use xlink:href="#f6_d8" transform="matrix(14,0,0,14,179,82.5)" />
<use xlink:href="#f6_bt" transform="matrix(14,0,0,14,184.7,82.5)" />
<use xlink:href="#f6_ct" transform="matrix(14,0,0,14,196.4,82.5)" />
<use xlink:href="#f6_n0" transform="matrix(14,0,0,14,207.7,82.5)" />
<use xlink:href="#f6_bv" transform="matrix(14,0,0,14,220.8,82.5)" />
<use xlink:href="#f6_ct" transform="matrix(14,0,0,14,232.7,82.5)" />
<use xlink:href="#f6_c1" transform="matrix(14,0,0,14,238.3,82.5)" />
<use xlink:href="#f6_cv" transform="matrix(14,0,0,14,246.7,82.5)" />
<use xlink:href="#f6_bq" transform="matrix(14,0,0,14,258,82.5)" />
<use xlink:href="#f6_d8" transform="matrix(14,0,0,14,271.1,82.5)" />
<use xlink:href="#f6_c1" transform="matrix(14,0,0,14,276.8,82.5)" />
<use xlink:href="#f6_cv" transform="matrix(14,0,0,14,285.2,82.5)" />
<use xlink:href="#f6_am" transform="matrix(14,0,0,14,296.4,82.5)" />
<use xlink:href="#f6_dj" transform="matrix(14,0,0,14,312.5,82.9)" />
<use xlink:href="#f6_bb" transform="matrix(14,0,0,14,317.9,82.5)" />
<use xlink:href="#f6_cv" transform="matrix(14,0,0,14,330.5,82.5)" />
<use xlink:href="#f6_be" transform="matrix(14,0,0,14,341.8,82.5)" />
<use xlink:href="#f6_bn" transform="matrix(14,0,0,14,355.8,82.5)" />
<use xlink:href="#f6_ct" transform="matrix(14,0,0,14,367.7,82.5)" />
<use xlink:href="#f6_aq" transform="matrix(14,0,0,14,373.4,82.5)" />
<use xlink:href="#f6_cc" transform="matrix(14,0,0,14,394.7,82.5)" />
<use xlink:href="#f6_d8" transform="matrix(14,0,0,14,406.3,82.5)" />
<use xlink:href="#f6_br" transform="matrix(14,0,0,14,417.6,82.5)" />
<use xlink:href="#f6_ct" transform="matrix(14,0,0,14,429.3,82.5)" />
<use xlink:href="#f6_br" transform="matrix(14,0,0,14,434.9,82.5)" />
<use xlink:href="#f6_ct" transform="matrix(14,0,0,14,446.6,82.5)" />
<use xlink:href="#f6_k" transform="matrix(14,0,0,14,452.2,82.5)" />
<use xlink:href="#f6_bq" transform="matrix(14,0,0,14,222.6,115.7)" />
<use xlink:href="#f6_d8" transform="matrix(14,0,0,14,235.8,115.7)" />
<use xlink:href="#f6_c1" transform="matrix(14,0,0,14,241.4,115.7)" />
<use xlink:href="#f6_d4" transform="matrix(14,0,0,14,249.4,115.7)" />
<use xlink:href="#f6_bf" transform="matrix(14,0,0,14,255.5,115.7)" />
<use xlink:href="#f6_j5" transform="matrix(14,0,0,14,271.2,115.7)" />
<use xlink:href="#f6_c1" transform="matrix(14,0,0,14,284.7,115.7)" />
<use xlink:href="#f6_be" transform="matrix(14,0,0,14,298.7,115.7)" />
<use xlink:href="#f6_bn" transform="matrix(14,0,0,14,312.7,115.7)" />
<use xlink:href="#f6_ct" transform="matrix(14,0,0,14,324.6,115.7)" />
<use xlink:href="#f6_aq" transform="matrix(14,0,0,14,330.2,115.7)" />
<use xlink:href="#f6_by" transform="matrix(14,0,0,14,351.6,115.7)" />
<use xlink:href="#f6_c1" transform="matrix(14,0,0,14,365.6,115.7)" />
<use xlink:href="#f6_bv" transform="matrix(14,0,0,14,373.9,115.7)" />
<use xlink:href="#f6_cw" transform="matrix(14,0,0,14,386.3,115.6)" />
<use xlink:href="#f6_c1" transform="matrix(14,0,0,14,385.8,115.7)" />
<use xlink:href="#f6_k" transform="matrix(14,0,0,14,394.2,115.7)" />
<use xlink:href="#f6_bz" transform="matrix(14,0,0,14,161.9,149)" />
<use xlink:href="#f6_ct" transform="matrix(14,0,0,14,175.2,149)" />
<use xlink:href="#f6_c1" transform="matrix(14,0,0,14,180.8,149)" />
<use xlink:href="#f6_ct" transform="matrix(14,0,0,14,189.2,149)" />
<use xlink:href="#f6_cb" transform="matrix(14,0,0,14,200.5,149)" />
<use xlink:href="#f6_ct" transform="matrix(14,0,0,14,215.4,149)" />
<use xlink:href="#f6_cc" transform="matrix(14,0,0,14,221,149)" />
<use xlink:href="#f6_d4" transform="matrix(14,0,0,14,232.9,149)" />
<use xlink:href="#f6_bx" transform="matrix(14,0,0,14,232.6,149)" />
<use xlink:href="#f6_c1" transform="matrix(14,0,0,14,250.6,149)" />
<use xlink:href="#f6_dj" transform="matrix(14,0,0,14,255.4,149.4)" />
<use xlink:href="#f6_bb" transform="matrix(14,0,0,14,258.9,149)" />
<use xlink:href="#f6_c3" transform="matrix(14,0,0,14,277.2,149)" />
<use xlink:href="#f6_ct" transform="matrix(14,0,0,14,291.9,149)" />
<use xlink:href="#f6_l4" transform="matrix(14,0,0,14,297.5,149)" />
<use xlink:href="#f6_c0" transform="matrix(14,0,0,14,303.7,149)" />
<use xlink:href="#f6_d8" transform="matrix(14,0,0,14,316.3,149)" />
<use xlink:href="#f6_pc" transform="matrix(14,0,0,14,321.9,149)" />
<use xlink:href="#f6_pc" transform="matrix(14,0,0,14,326.2,149)" />
<use xlink:href="#f6_pc" transform="matrix(14,0,0,14,330.5,149)" />
<use xlink:href="#f6_pc" transform="matrix(14,0,0,14,334.7,149)" />
<use xlink:href="#f6_c1" transform="matrix(14,0,0,14,339,149)" />
<use xlink:href="#f6_dj" transform="matrix(14,0,0,14,343.8,149.4)" />
<use xlink:href="#f6_bb" transform="matrix(14,0,0,14,347.4,149)" />
<use xlink:href="#f6_c3" transform="matrix(14,0,0,14,365.7,149)" />
<use xlink:href="#f6_ct" transform="matrix(14,0,0,14,380.4,149)" />
<use xlink:href="#f6_l4" transform="matrix(14,0,0,14,386,149)" />
<use xlink:href="#f6_c0" transform="matrix(14,0,0,14,392.2,149)" />
<use xlink:href="#f6_d8" transform="matrix(14,0,0,14,404.8,149)" />
<use xlink:href="#f6_bg" transform="matrix(14,0,0,14,416,149)" />
<use xlink:href="#f6_cv" transform="matrix(14,0,0,14,430.3,149)" />
<use xlink:href="#f6_pc" transform="matrix(14,0,0,14,435.9,149)" />
<use xlink:href="#f6_pc" transform="matrix(14,0,0,14,440.2,149)" />
<use xlink:href="#f6_pc" transform="matrix(14,0,0,14,444.5,149)" />
<use xlink:href="#f6_nb" transform="matrix(14,0,0,14,448.7,149)" />
<use xlink:href="#f6_al" transform="matrix(14,0,0,14,179.1,207.4)" />
<use xlink:href="#f6_ba" transform="matrix(14,0,0,14,194.9,207.4)" />
<use xlink:href="#f6_lc" transform="matrix(14,0,0,14,211.6,207.4)" />
<use xlink:href="#f6_bm" transform="matrix(14,0,0,14,220,207.4)" />
<use xlink:href="#f6_iz" transform="matrix(14,0,0,14,238.4,207.4)" />
<use xlink:href="#f6_d8" transform="matrix(14,0,0,14,260.6,207.4)" />
<use xlink:href="#f6_bp" transform="matrix(14,0,0,14,266.2,207.4)" />
<use xlink:href="#f6_by" transform="matrix(14,0,0,14,284.2,207.4)" />
<use xlink:href="#f6_ct" transform="matrix(14,0,0,14,298.1,207.4)" />
<use xlink:href="#f6_c1" transform="matrix(14,0,0,14,303.8,207.4)" />
<use xlink:href="#f6_cv" transform="matrix(14,0,0,14,312.1,207.4)" />
<use xlink:href="#f6_bg" transform="matrix(14,0,0,14,323.4,207.4)" />
<use xlink:href="#f6_ct" transform="matrix(14,0,0,14,337.7,207.4)" />
<use xlink:href="#f6_bb" transform="matrix(14,0,0,14,343.3,207.4)" />
<use xlink:href="#f6_bp" transform="matrix(14,0,0,14,355.9,207.4)" />
<use xlink:href="#f6_cv" transform="matrix(14,0,0,14,368.2,207.4)" />
<use xlink:href="#f6_cc" transform="matrix(14,0,0,14,379.5,207.4)" />
<use xlink:href="#f6_d8" transform="matrix(14,0,0,14,391.1,207.4)" />
<use xlink:href="#f6_br" transform="matrix(14,0,0,14,402.4,207.4)" />
<use xlink:href="#f6_ct" transform="matrix(14,0,0,14,414.1,207.4)" />
<use xlink:href="#f6_br" transform="matrix(14,0,0,14,419.7,207.4)" />
<use xlink:href="#f6_ct" transform="matrix(14,0,0,14,431.4,207.4)" />
<use xlink:href="#f6_k" transform="matrix(14,0,0,14,437,207.4)" />
<use xlink:href="#f6_bk" transform="matrix(14,0,0,14,205.4,240.6)" />
<use xlink:href="#f6_ct" transform="matrix(14,0,0,14,217,240.6)" />
<use xlink:href="#f6_bx" transform="matrix(14,0,0,14,222.6,240.6)" />
<use xlink:href="#f6_c1" transform="matrix(14,0,0,14,234.9,240.6)" />
<use xlink:href="#f6_cv" transform="matrix(14,0,0,14,243.3,240.6)" />
<use xlink:href="#f6_c0" transform="matrix(14,0,0,14,248.9,240.6)" />
<use xlink:href="#f6_d8" transform="matrix(14,0,0,14,261.4,240.6)" />
<use xlink:href="#f6_c1" transform="matrix(14,0,0,14,272.7,240.6)" />
<use xlink:href="#f6_cv" transform="matrix(14,0,0,14,281.1,240.6)" />
<use xlink:href="#f6_c1" transform="matrix(14,0,0,14,292.4,240.6)" />
<use xlink:href="#f6_ct" transform="matrix(14,0,0,14,300.8,240.6)" />
<use xlink:href="#f6_ba" transform="matrix(14,0,0,14,306.4,240.6)" />
<use xlink:href="#f6_d8" transform="matrix(14,0,0,14,323.1,240.6)" />
<use xlink:href="#f6_bq" transform="matrix(14,0,0,14,334.4,240.6)" />
<use xlink:href="#f6_d4" transform="matrix(14,0,0,14,347.7,240.6)" />
<use xlink:href="#f6_bp" transform="matrix(14,0,0,14,353.3,240.6)" />
<use xlink:href="#f6_d8" transform="matrix(14,0,0,14,365.6,240.6)" />
<use xlink:href="#f6_c3" transform="matrix(14,0,0,14,376.9,240.6)" />
<use xlink:href="#f6_ct" transform="matrix(14,0,0,14,391.6,240.6)" />
<use xlink:href="#f6_bg" transform="matrix(14,0,0,14,397.2,240.6)" />
<use xlink:href="#f6_k" transform="matrix(14,0,0,14,411.4,240.6)" />
<use xlink:href="#f6_bz" transform="matrix(14,0,0,14,159.6,273.9)" />
<use xlink:href="#f6_ct" transform="matrix(14,0,0,14,172.9,273.9)" />
<use xlink:href="#f6_c1" transform="matrix(14,0,0,14,178.5,273.9)" />
<use xlink:href="#f6_ct" transform="matrix(14,0,0,14,186.9,273.9)" />
<use xlink:href="#f6_cb" transform="matrix(14,0,0,14,198.2,273.9)" />
<use xlink:href="#f6_ct" transform="matrix(14,0,0,14,213.1,273.9)" />
<use xlink:href="#f6_cc" transform="matrix(14,0,0,14,218.7,273.9)" />
<use xlink:href="#f6_d4" transform="matrix(14,0,0,14,230.7,273.9)" />
<use xlink:href="#f6_bx" transform="matrix(14,0,0,14,230.3,273.9)" />
<use xlink:href="#f6_ct" transform="matrix(14,0,0,14,242.6,273.9)" />
<use xlink:href="#f6_c1" transform="matrix(14,0,0,14,253.9,273.9)" />
<use xlink:href="#f6_dj" transform="matrix(14,0,0,14,258.7,274.3)" />
<use xlink:href="#f6_bb" transform="matrix(14,0,0,14,262.3,273.9)" />
<use xlink:href="#f6_c3" transform="matrix(14,0,0,14,280.5,273.9)" />
<use xlink:href="#f6_ct" transform="matrix(14,0,0,14,295.3,273.9)" />
<use xlink:href="#f6_l4" transform="matrix(14,0,0,14,300.9,273.9)" />
<use xlink:href="#f6_c0" transform="matrix(14,0,0,14,307.1,273.9)" />
<use xlink:href="#f6_d8" transform="matrix(14,0,0,14,319.6,273.9)" />
<use xlink:href="#f6_pc" transform="matrix(14,0,0,14,325.2,273.9)" />
<use xlink:href="#f6_pc" transform="matrix(14,0,0,14,329.5,273.9)" />
<use xlink:href="#f6_pc" transform="matrix(14,0,0,14,333.8,273.9)" />
<use xlink:href="#f6_pc" transform="matrix(14,0,0,14,338.1,273.9)" />
<use xlink:href="#f6_c1" transform="matrix(14,0,0,14,342.3,273.9)" />
<use xlink:href="#f6_dj" transform="matrix(14,0,0,14,347.2,274.3)" />
<use xlink:href="#f6_bb" transform="matrix(14,0,0,14,350.7,273.9)" />
<use xlink:href="#f6_c3" transform="matrix(14,0,0,14,369,273.9)" />
<use xlink:href="#f6_ct" transform="matrix(14,0,0,14,383.7,273.9)" />
<use xlink:href="#f6_l4" transform="matrix(14,0,0,14,389.3,273.9)" />
<use xlink:href="#f6_c0" transform="matrix(14,0,0,14,395.5,273.9)" />
<use xlink:href="#f6_d8" transform="matrix(14,0,0,14,408.1,273.9)" />
<use xlink:href="#f6_bg" transform="matrix(14,0,0,14,419.4,273.9)" />
<use xlink:href="#f6_cv" transform="matrix(14,0,0,14,433.6,273.9)" />
<use xlink:href="#f6_pc" transform="matrix(14,0,0,14,439.2,273.9)" />
<use xlink:href="#f6_pc" transform="matrix(14,0,0,14,443.5,273.9)" />
<use xlink:href="#f6_pc" transform="matrix(14,0,0,14,447.8,273.9)" />
<use xlink:href="#f6_nc" transform="matrix(14,0,0,14,452.1,273.9)" />
<use xlink:href="#f6_8c" transform="matrix(14,0,0,14,165.3,332.3)" />
<use xlink:href="#f6_8c" transform="matrix(14,0,0,14,170,332.3)" />
<use xlink:href="#f6_by" transform="matrix(14,0,0,14,174.6,332.3)" />
<use xlink:href="#f6_d5" transform="matrix(14,0,0,14,188.7,332.3)" />
<use xlink:href="#f6_c1" transform="matrix(14,0,0,14,188.6,332.3)" />
<use xlink:href="#f6_c7" transform="matrix(14,0,0,14,197,332.3)" />
<use xlink:href="#f6_bz" transform="matrix(14,0,0,14,214.7,332.3)" />
<use xlink:href="#f6_dj" transform="matrix(14,0,0,14,222.2,332.7)" />
<use xlink:href="#f6_bm" transform="matrix(14,0,0,14,228,332.3)" />
<use xlink:href="#f6_c3" transform="matrix(14,0,0,14,240.7,332.3)" />
<use xlink:href="#f6_f" transform="matrix(14,0,0,14,255.4,332.3)" />
<use xlink:href="#f6_c1" transform="matrix(14,0,0,14,264.7,332.3)" />
<use xlink:href="#f6_cv" transform="matrix(14,0,0,14,273.1,332.3)" />
<use xlink:href="#f6_cb" transform="matrix(14,0,0,14,284.4,332.3)" />
<use xlink:href="#f6_cw" transform="matrix(14,0,0,14,299.8,332.2)" />
<use xlink:href="#f6_bo" transform="matrix(14,0,0,14,299.3,332.3)" />
<use xlink:href="#f6_bg" transform="matrix(14,0,0,14,313.6,332.3)" />
<use xlink:href="#f6_d8" transform="matrix(14,0,0,14,327.9,332.3)" />
<use xlink:href="#f6_cu" transform="matrix(14,0,0,14,339.2,332.3)" />
<use xlink:href="#f6_c7" transform="matrix(14,0,0,14,344.8,332.3)" />
<use xlink:href="#f6_bt" transform="matrix(14,0,0,14,356.9,332.3)" />
<use xlink:href="#f6_dj" transform="matrix(14,0,0,14,365.7,332.7)" />
<use xlink:href="#f6_bp" transform="matrix(14,0,0,14,368.6,332.3)" />
<use xlink:href="#f6_cv" transform="matrix(14,0,0,14,380.9,332.3)" />
<use xlink:href="#f6_cc" transform="matrix(14,0,0,14,392.2,332.3)" />
<use xlink:href="#f6_d8" transform="matrix(14,0,0,14,403.8,332.3)" />
<use xlink:href="#f6_br" transform="matrix(14,0,0,14,415.1,332.3)" />
<use xlink:href="#f6_ct" transform="matrix(14,0,0,14,426.7,332.3)" />
<use xlink:href="#f6_br" transform="matrix(14,0,0,14,432.4,332.3)" />
<use xlink:href="#f6_ct" transform="matrix(14,0,0,14,444,332.3)" />
<use xlink:href="#f6_k" transform="matrix(14,0,0,14,449.7,332.3)" />
<use xlink:href="#f6_by" transform="matrix(14,0,0,14,223.7,365.5)" />
<use xlink:href="#f6_l1" transform="matrix(14,0,0,14,237.7,365.5)" />
<use xlink:href="#f6_bp" transform="matrix(14,0,0,14,249.6,365.5)" />
<use xlink:href="#f6_d8" transform="matrix(14,0,0,14,261.9,365.5)" />
<use xlink:href="#f6_c1" transform="matrix(14,0,0,14,273.2,365.5)" />
<use xlink:href="#f6_cv" transform="matrix(14,0,0,14,281.5,365.5)" />
<use xlink:href="#f6_b9" transform="matrix(14,0,0,14,292.8,365.5)" />
<use xlink:href="#f6_c1" transform="matrix(14,0,0,14,308.3,365.5)" />
<use xlink:href="#f6_bg" transform="matrix(14,0,0,14,316.7,365.5)" />
<use xlink:href="#f6_d8" transform="matrix(14,0,0,14,331,365.5)" />
<use xlink:href="#f6_cb" transform="matrix(14,0,0,14,342.3,365.5)" />
<use xlink:href="#f6_dj" transform="matrix(14,0,0,14,350.8,365.9)" />
<use xlink:href="#f6_by" transform="matrix(14,0,0,14,357.1,365.5)" />
<use xlink:href="#f6_ct" transform="matrix(14,0,0,14,371.1,365.5)" />
<use xlink:href="#f6_c3" transform="matrix(14,0,0,14,376.7,365.5)" />
<use xlink:href="#f6_k" transform="matrix(14,0,0,14,391.4,365.5)" />
<use xlink:href="#f6_bz" transform="matrix(14,0,0,14,158.4,398.8)" />
<use xlink:href="#f6_ct" transform="matrix(14,0,0,14,171.8,398.8)" />
<use xlink:href="#f6_c1" transform="matrix(14,0,0,14,177.4,398.8)" />
<use xlink:href="#f6_ct" transform="matrix(14,0,0,14,185.8,398.8)" />
<use xlink:href="#f6_cb" transform="matrix(14,0,0,14,197.1,398.8)" />
<use xlink:href="#f6_ct" transform="matrix(14,0,0,14,211.9,398.8)" />
<use xlink:href="#f6_cc" transform="matrix(14,0,0,14,217.6,398.8)" />
<use xlink:href="#f6_d4" transform="matrix(14,0,0,14,229.5,398.8)" />
<use xlink:href="#f6_bx" transform="matrix(14,0,0,14,229.2,398.8)" />
<use xlink:href="#f6_ct" transform="matrix(14,0,0,14,241.5,398.8)" />
<use xlink:href="#f6_c1" transform="matrix(14,0,0,14,252.7,398.8)" />
<use xlink:href="#f6_dj" transform="matrix(14,0,0,14,257.6,399.2)" />
<use xlink:href="#f6_bb" transform="matrix(14,0,0,14,261.1,398.8)" />
<use xlink:href="#f6_c3" transform="matrix(14,0,0,14,279.4,398.8)" />
<use xlink:href="#f6_ct" transform="matrix(14,0,0,14,294.1,398.8)" />
<use xlink:href="#f6_l4" transform="matrix(14,0,0,14,299.7,398.8)" />
<use xlink:href="#f6_c0" transform="matrix(14,0,0,14,305.9,398.8)" />
<use xlink:href="#f6_d8" transform="matrix(14,0,0,14,318.5,398.8)" />
<use xlink:href="#f6_pc" transform="matrix(14,0,0,14,324.1,398.8)" />
<use xlink:href="#f6_pc" transform="matrix(14,0,0,14,328.4,398.8)" />
<use xlink:href="#f6_pc" transform="matrix(14,0,0,14,332.7,398.8)" />
<use xlink:href="#f6_pc" transform="matrix(14,0,0,14,336.9,398.8)" />
<use xlink:href="#f6_c1" transform="matrix(14,0,0,14,341.2,398.8)" />
<use xlink:href="#f6_dj" transform="matrix(14,0,0,14,346,399.2)" />
<use xlink:href="#f6_bb" transform="matrix(14,0,0,14,349.6,398.8)" />
<use xlink:href="#f6_c3" transform="matrix(14,0,0,14,367.9,398.8)" />
<use xlink:href="#f6_ct" transform="matrix(14,0,0,14,382.6,398.8)" />
<use xlink:href="#f6_l4" transform="matrix(14,0,0,14,388.2,398.8)" />
<use xlink:href="#f6_c0" transform="matrix(14,0,0,14,394.4,398.8)" />
<use xlink:href="#f6_d8" transform="matrix(14,0,0,14,406.9,398.8)" />
<use xlink:href="#f6_bg" transform="matrix(14,0,0,14,418.2,398.8)" />
<use xlink:href="#f6_cv" transform="matrix(14,0,0,14,432.5,398.8)" />
<use xlink:href="#f6_pc" transform="matrix(14,0,0,14,438.1,398.8)" />
<use xlink:href="#f6_pc" transform="matrix(14,0,0,14,442.4,398.8)" />
<use xlink:href="#f6_pc" transform="matrix(14,0,0,14,446.7,398.8)" />
<use xlink:href="#f6_nd" transform="matrix(14,0,0,14,450.9,398.8)" />
<use xlink:href="#f7_4r" transform="matrix(9,0,0,9,290.2,795.2)" />
<use xlink:href="#f8_s" transform="matrix(9,0,0,9,303,795.2)" />
<use xlink:href="#f8_q" transform="matrix(9,0,0,9,310.7,795.2)" />
<use xlink:href="#f7_4r" transform="matrix(9,0,0,9,321.3,795.2)" />
</g>
</g>
<image preserveAspectRatio="none" x="22" y="801" width="581" height="86" xlink:href="img/1.png"/>
<image preserveAspectRatio="none" x="202" y="14" width="217" height="26" xlink:href="img/2.png"/>
<defs>
<path d="M799,475V822H350l66,-55V564c0,0,0,-43,-25,-89ZM527,-71L52,414l34,92H277c0,0,12,32,12,72V822H0l-45,76l14,31H1063l46,-76l-14,-31H860l66,-58V-39L889,-49L799,8V370H315L264,316L610,34L611,8L527,-71Z"
id="f6_cb"
transform="scale(0.001,-0.001)"/>

<path d="M228,-49L138,8V822H0l-45,76l14,31H119L-33,1144c0,0,-70,92,-157,92c0,0,-69,0,-159,-58l-72,118c0,0,89,73,181,73c0,0,140,0,257,-170L205,929H402l46,-76L434,822H199l65,-58V-39L228,-49Z"
id="f6_d8"
transform="scale(0.001,-0.001)"/>

<path d="M663,-49L573,8V445H299V280L226,251c0,0,-105,99,-162,238l63,72H573V822H0l-45,76l14,31H837l46,-76L869,822H634l66,-58V-39L663,-49Z"
id="f6_bt"
transform="scale(0.001,-0.001)"/>

<path d="M228,-49L138,8V822H0l-45,76l14,31H402l46,-76L434,822H199l65,-58V-39L228,-49Z"
id="f6_ct"
transform="scale(0.001,-0.001)"/>

<path d="M527,-71L52,414l34,92H277c0,0,12,32,12,72V822H0l-45,76l14,31H940l45,-76L972,822H350l66,-55V570c0,0,146,98,247,98c0,0,95,0,167,-73c0,0,71,-72,71,-167c0,0,0,-77,-53,-142c0,0,-54,-64,-159,-136l-89,99c0,0,100,70,152,121c0,0,52,52,52,105c0,0,0,34,-23,60c0,0,-22,26,-72,26c0,0,-139,0,-434,-252L610,34L611,8L527,-71Z"
id="f6_n0"
transform="scale(0.001,-0.001)"/>

<path d="M388,325c0,0,58,0,112,31c0,0,53,31,84,86V822H165l69,-58V408c0,0,47,-83,154,-83ZM674,-49L584,8V257c0,0,-61,-51,-141,-51c0,0,-125,0,-232,109c0,0,-107,108,-107,243V822H0l-45,76l14,31H848l46,-76L880,822H645l65,-58V-39L674,-49Z"
id="f6_bv"
transform="scale(0.001,-0.001)"/>

<path d="M527,-71L52,414l34,92H277c0,0,12,32,12,72V822H0l-45,76l14,31H599l46,-76L631,822H350l66,-55V564c0,0,0,-96,-152,-248L610,34L611,8L527,-71Z"
id="f6_c1"
transform="scale(0.001,-0.001)"/>

<path d="M228,-49L138,8V822H0l-45,76l14,31H138c0,0,-109,342,-284,342c0,0,-62,0,-102,-40c0,0,-40,-39,-40,-93c0,0,0,-61,51,-134l-42,-32c0,0,-128,113,-128,226c0,0,0,79,60,136c0,0,61,56,154,56c0,0,137,0,249,-125c0,0,112,-125,169,-336H402l46,-76L434,822H199l65,-58V-39L228,-49Z"
id="f6_cv"
transform="scale(0.001,-0.001)"/>

<path d="M768,-49L678,8V202c0,0,-73,-58,-172,-58c0,0,-123,0,-240,94c0,0,-118,94,-179,237l20,55c0,0,134,12,215,70c0,0,81,57,81,141c0,0,0,90,-67,134l-26,3c0,0,-46,0,-74,-29c0,0,-28,-30,-28,-68c0,0,0,-55,82,-109L252,620C252,620,93,720,93,820c0,0,0,65,47,104c0,0,46,40,114,40c0,0,99,0,179,-83c0,0,80,-83,82,-197c0,0,0,-93,-79,-165c0,0,-78,-73,-199,-97c0,0,29,-104,88,-158c0,0,42,-16,92,-16c0,0,78,0,151,38c0,0,74,38,110,111V822H553l-46,76l14,31H943l45,-76L975,822H739l66,-58V-39L768,-49Z"
id="f6_bq"
transform="scale(0.001,-0.001)"/>

<path d="M959,-49L869,8V367c0,0,-32,-13,-64,-13c0,0,-50,0,-110,25c0,0,23,-52,23,-109c0,0,0,-103,-70,-170c0,0,-70,-66,-182,-66c0,0,-110,0,-222,82c0,0,-111,83,-213,293l68,42c0,0,72,-155,152,-231c0,0,81,-76,178,-76c0,0,83,0,131,49c0,0,48,48,48,117c0,0,0,54,-30,100c0,0,-31,47,-91,65L325,391L257,512c0,0,68,53,156,56c0,0,140,72,140,179c0,0,0,69,-52,99c0,0,-4,1,-11,1c-19,0,-66,-4,-123,-30c0,0,-78,-35,-142,-96L150,823c0,0,119,117,253,117c0,0,98,0,175,-71c0,0,77,-70,77,-159c0,0,0,-103,-94,-180c0,0,39,-23,73,-56c0,0,52,-22,109,-22c0,0,77,0,126,38V822H727l-46,76l14,31h840l46,-76l-13,-31H1332l66,-58V-39l-37,-10L1271,8V822H930l66,-58V-39L959,-49Z"
id="f6_am"
transform="scale(0.001,-0.001)"/>

<path d="M0,1062c0,0,-26,11,-60,36c0,0,-34,26,-51,49c0,0,39,81,91,110c0,0,60,-23,106,-85c0,0,-28,-70,-86,-110Z"
id="f6_dj"
transform="scale(0.001,-0.001)"/>

<path d="M727,-49L637,8V822H278l66,-58V226L270,196c0,0,-64,36,-122,98c0,0,-58,62,-79,122l43,59H217V822H0l-45,76l14,31H901l46,-76L933,822H698l66,-58V-39L727,-49Z"
id="f6_bb"
transform="scale(0.001,-0.001)"/>

<path d="M825,-49L735,8V217c0,0,-86,-72,-197,-72c0,0,-130,0,-238,91c0,0,-107,91,-107,204c0,0,0,55,27,105H55L12,616l14,30H574l46,-76L607,539H396c0,0,-78,-49,-78,-162c0,0,0,-70,40,-111c0,0,39,-15,94,-15c0,0,84,0,163,41c0,0,79,41,120,121V822H0l-45,76l14,31H999l46,-76l-14,-31H796l66,-58V-39L825,-49Z"
id="f6_be"
transform="scale(0.001,-0.001)"/>

<path d="M570,78c0,0,66,17,105,54c0,0,40,38,40,88c0,0,0,40,-23,66c0,0,-23,26,-58,26c0,0,-40,0,-71,-33c0,0,-31,-33,-31,-90c0,0,0,-55,38,-111ZM538,-45c0,0,-182,0,-322,128C216,83,76,211,76,368c0,0,0,122,91,201c0,0,90,79,238,79H564V822H0l-45,76l14,31H853l45,-76L885,822H617l66,-58V521H420c0,0,-99,0,-162,-57c0,0,-62,-58,-62,-146c0,0,0,-121,105,-208c0,0,118,-41,188,-41l29,1l-69,46c0,0,-36,55,-36,115c0,0,0,73,48,123c0,0,49,49,123,49c0,0,87,0,151,-74c0,0,64,-74,64,-162c0,0,0,-94,-71,-153c0,0,-71,-59,-190,-59Z"
id="f6_bn"
transform="scale(0.001,-0.001)"/>

<path d="M471,-26c0,0,-259,0,-448,396l70,43C93,413,240,98,442,98c0,0,79,0,132,46c0,0,54,45,54,120c0,0,0,61,-38,116c0,0,-38,54,-107,72L322,370L255,492c0,0,66,53,156,56c0,0,128,51,128,153c0,0,0,77,-65,121H0l-45,76l14,31H1123l46,-76l-14,-31H578c0,0,76,-66,76,-157c0,0,0,-95,-87,-156c0,0,52,-29,84,-64c0,0,131,134,243,134c0,0,93,0,158,-70c0,0,65,-71,65,-167c0,0,0,-142,-177,-272L851,170c0,0,173,129,173,230c0,0,0,34,-23,57c0,0,-23,23,-63,23c0,0,-104,0,-215,-141c0,0,23,-55,23,-111c0,0,0,-109,-78,-182c0,0,-78,-72,-197,-72Z"
id="f6_aq"
transform="scale(0.001,-0.001)"/>

<path d="M688,-243c0,0,-256,53,-408,173c0,0,-152,119,-152,270c0,0,0,101,68,171c0,0,-101,84,-101,179c0,0,0,64,53,112c0,0,54,47,191,47H587V822H0l-45,76l14,31H830l45,-76L862,822H640l66,-58V585H362c0,0,-159,-1,-159,-92c0,0,0,-41,46,-80c0,0,76,47,183,47c0,0,135,0,230,-76c0,0,96,-75,96,-187C758,197,758,67,629,2L545,104c0,0,49,30,81,75c0,0,32,44,32,82c0,0,0,16,-4,26c0,0,-64,58,-167,58c0,0,-97,0,-166,-50v-2c0,0,-67,-52,-67,-131c0,0,0,-116,132,-199c0,0,132,-84,334,-132l-32,-74Z"
id="f6_cc"
transform="scale(0.001,-0.001)"/>

<path d="M675,-274L602,21C602,21,550,3,498,3C498,3,347,3,210,118C210,118,73,232,73,373c0,0,0,113,84,184c0,0,84,71,222,72H524V822H0l-45,76l14,31H834l46,-76L866,822H585l66,-58V504l-3,2l3,-3H408c0,0,-95,0,-154,-53c0,0,-58,-53,-58,-132c0,0,0,-49,27,-100c0,0,28,-50,83,-84c0,0,44,-15,96,-15c0,0,91,0,160,46L535,303l101,48L773,188c0,0,-8,-28,-34,-66c0,0,-27,-38,-62,-64L813,-221L675,-274Z"
id="f6_br"
transform="scale(0.001,-0.001)"/>

<path d="M108,-222l-44,58c0,0,96,81,104,164L89,61c0,0,12,83,93,122c0,0,50,-15,79,-55c0,0,29,-39,29,-90c0,0,0,-69,-48,-142c0,0,-48,-72,-134,-118Z"
id="f6_k"
transform="scale(0.001,-0.001)"/>

<path d="M-214,863l-199,281c0,0,-70,92,-157,92c0,0,-69,0,-159,-58l-72,118c0,0,89,73,180,73c0,0,141,0,258,-170L-155,901l-59,-38Z"
id="f6_d4"
transform="scale(0.001,-0.001)"/>

<path d="M900,298c0,0,32,73,32,159c0,0,0,110,-38,160c0,0,-40,31,-81,31c0,0,-48,0,-80,-35c0,0,-33,-35,-33,-89c0,0,0,-118,200,-226ZM588,-60c0,0,-154,0,-274,93c0,0,-120,94,-120,207c0,0,0,50,28,92C222,332,61,440,61,552c0,0,0,71,56,122c0,0,56,50,169,50H417l64,-98L463,600H333c0,0,-157,-1,-157,-99c0,0,0,-59,88,-124c0,0,68,52,164,52c0,0,38,0,79,-9l71,-88L558,299c0,0,-46,10,-81,10c0,0,-75,0,-116,-36c0,0,-40,-36,-40,-88c0,0,0,-78,73,-130c0,0,54,-17,109,-17c0,0,114,0,211,54c0,0,97,53,154,145c0,0,-156,96,-223,173c0,0,-67,77,-67,155c0,0,0,72,48,124c0,0,48,52,126,55v78H0l-45,76l14,31H1123l46,-76l-14,-31H805l66,-58V717c0,0,76,-40,124,-124c0,0,47,-84,47,-193c0,0,0,-188,-133,-324C909,76,776,-60,588,-60Z"
id="f6_bf"
transform="scale(0.001,-0.001)"/>

<path d="M438,-57c0,0,-264,248,-264,428c0,0,0,74,43,130H57L11,578l13,30H700V822H0l-45,76l14,31H964l46,-76L996,822H761l66,-58V-39L790,-49L700,8V498H519c0,0,-229,0,-229,-159c0,0,0,-145,205,-343L438,-57Z"
id="f6_j5"
transform="scale(0.001,-0.001)"/>

<path d="M823,-49L733,8V339H445V191L371,160c0,0,-56,36,-120,105c0,0,-63,70,-89,131l41,59H313V735c0,0,0,99,-55,140c0,0,-3,1,-8,1c-16,0,-48,-3,-71,-23c0,0,-31,-26,-31,-66c0,0,0,-69,81,-113L189,620C189,620,31,720,31,828c0,0,0,61,45,99c0,0,46,37,109,37c0,0,96,0,173,-86c0,0,76,-87,79,-194V455H733V822H556l-46,76l14,31H998l45,-76l-13,-31H794l66,-58V-39L823,-49Z"
id="f6_by"
transform="scale(0.001,-0.001)"/>

<path d="M-234,-413c0,0,-210,0,-488,322l54,49c0,0,119,-128,209,-193c0,0,90,-65,177,-65c0,0,72,0,113,40c0,0,42,39,42,91c0,0,0,75,-78,106L-323,-181l-90,98c0,0,63,95,167,95c0,0,90,0,155,-69c0,0,66,-70,66,-164c0,0,0,-85,-60,-139c0,0,-61,-53,-149,-53Z"
id="f6_cw"
transform="scale(0.001,-0.001)"/>

<path d="M689,445V822H286l65,-58l8,-319ZM779,-49L689,8V328H370V180L296,150c0,0,-56,35,-120,104c0,0,-63,70,-89,131l41,60H238L223,822H0l-45,76l14,31H953l46,-76L985,822H750l66,-58V-39L779,-49Z"
id="f6_bz"
transform="scale(0.001,-0.001)"/>

<path d="M348,229c0,0,57,0,106,17L263,559c0,0,-95,-50,-95,-162c0,0,0,-75,52,-136c0,0,49,-32,128,-32Zm170,48c0,0,61,38,96,91V504c0,0,-131,80,-244,80l-35,-2L518,277ZM704,-49L614,8V193c0,0,-84,-65,-192,-65c0,0,-139,0,-255,98c0,0,-115,98,-115,226c0,0,0,106,77,175c0,0,77,70,189,70c0,0,38,0,75,-9L614,578V822H0l-45,76l14,31H878l46,-76L911,822H675l66,-58V-39L704,-49Z"
id="f6_bx"
transform="scale(0.001,-0.001)"/>

<path d="M413,-59C413,-59,53,193,53,416c0,0,0,97,66,164c0,0,66,66,156,66c0,0,61,0,110,-30L487,507c0,0,92,126,257,126l35,-2V822H0l-45,76l14,31H1043l46,-76l-13,-31H840l66,-58V-39L869,-49L779,8V547c0,0,-101,-5,-165,-90c0,0,-64,-86,-70,-222L507,225l-90,73c0,0,5,79,35,151c0,0,-59,66,-128,66c0,0,-57,0,-100,-38c0,0,-44,-39,-44,-109c0,0,0,-165,284,-360L413,-59Z"
id="f6_c3"
transform="scale(0.001,-0.001)"/>

<path d="M270,196c0,0,-64,36,-122,98c0,0,-58,62,-79,122l43,59H217V822H0l-45,76l14,31H489l46,-76L521,822H278l66,-58V226L270,196Z"
id="f6_l4"
transform="scale(0.001,-0.001)"/>

<path d="M374,248c0,0,77,0,149,36c0,0,71,37,110,107V822H284c0,0,138,-96,138,-208c0,0,0,-151,-228,-192c0,0,29,-104,89,-158c0,0,41,-16,91,-16ZM723,-49L633,8V200c0,0,-69,-56,-170,-56c0,0,-122,0,-240,94c0,0,-118,94,-179,237l20,55c0,0,133,17,187,44c0,0,55,28,55,84c0,0,0,45,-30,81c0,0,-30,36,-99,83H0l-45,76l14,31H897l46,-76L929,822H694l65,-58V-39L723,-49Z"
id="f6_c0"
transform="scale(0.001,-0.001)"/>

<path d="M226,-49c0,0,-66,24,-102,78c0,0,32,69,82,101c0,0,55,-20,100,-80c0,0,-26,-66,-80,-99Z"
id="f6_pc"
transform="scale(0.001,-0.001)"/>

<path d="M845,-49L755,8V513H497c0,0,61,-45,93,-110c0,0,33,-64,33,-128c0,0,0,-90,-58,-144c0,0,-59,-53,-143,-53c0,0,-133,0,-234,139C188,217,87,356,20,596l76,24c0,0,60,-201,127,-306c0,0,67,-105,160,-105c0,0,57,0,91,36c0,0,33,36,33,91c0,0,0,84,-73,159L295,558v71H755V822H0l-45,76l14,31H1019l46,-76l-14,-31H816l66,-58V-39L845,-49Z"
id="f6_bg"
transform="scale(0.001,-0.001)"/>

<path d="M675,-45L556,338c0,0,-73,-107,-189,-107c0,0,-71,0,-146,47c0,0,-76,47,-118,128c0,0,-42,80,-42,173c0,0,0,165,107,371L287,903C287,903,177,663,177,516c0,0,0,-79,34,-137c0,0,38,-38,95,-38c0,0,59,0,113,42c0,0,55,42,76,104L445,636l32,41L636,637c0,0,4,-73,-29,-168L761,2L749,-22L675,-45Z"
id="f6_nb"
transform="scale(0.001,-0.001)"/>

<path d="M959,-49L869,8V367c0,0,-32,-13,-64,-13c0,0,-50,0,-110,25c0,0,23,-52,23,-109c0,0,0,-103,-70,-170c0,0,-70,-66,-182,-66c0,0,-110,0,-222,82c0,0,-111,83,-213,293l68,42c0,0,72,-155,152,-231c0,0,81,-76,178,-76c0,0,83,0,131,49c0,0,48,48,48,117c0,0,0,54,-30,100c0,0,-31,47,-91,65L325,391L257,512c0,0,68,53,156,56c0,0,140,72,140,179c0,0,0,69,-52,99c0,0,-4,1,-11,1c-19,0,-66,-4,-123,-30c0,0,-78,-35,-142,-96L150,823c0,0,119,117,253,117c0,0,98,0,175,-71c0,0,77,-70,77,-159c0,0,0,-103,-94,-180c0,0,39,-23,73,-56c0,0,52,-22,109,-22c0,0,77,0,126,38V822H727l-46,76l14,31h439l45,-76l-13,-31H930l66,-58V-39L959,-49Z"
id="f6_al"
transform="scale(0.001,-0.001)"/>

<path d="M761,293c0,0,127,0,169,94V532c0,0,-68,46,-145,46c0,0,-76,0,-121,-46c0,0,-45,-45,-45,-107c0,0,0,-61,44,-110c0,0,47,-22,98,-22ZM657,67c0,0,166,0,273,107v55c0,0,-45,-36,-111,-36c0,0,-110,0,-207,90c0,0,-97,90,-97,194c0,0,0,85,66,148c0,0,65,63,155,63l48,-5L930,603V822H376l62,-55V579c0,0,0,-60,-23,-102c0,0,-24,-42,-148,-190c0,0,66,-104,175,-162c0,0,108,-58,215,-58ZM1021,-49L930,8V53c0,0,-105,-83,-264,-83c0,0,-177,0,-339,128C327,98,165,226,90,429l34,77H296c0,0,19,39,19,102l-2,214H0l-45,76l14,31H1195l46,-76l-14,-31H992l65,-58V-39l-36,-10Z"
id="f6_ba"
transform="scale(0.001,-0.001)"/>

<path d="M336,319c0,0,112,0,112,152V822H165l66,-58V374c0,0,33,-55,105,-55ZM396,218c0,0,-93,0,-192,86c0,0,-99,86,-100,182V822H0l-45,76l14,31H645l46,-76L677,822H509l65,-58V455c0,0,0,-134,-51,-185c0,0,-52,-52,-127,-52Z"
id="f6_lc"
transform="scale(0.001,-0.001)"/>

<path d="M548,-57c0,0,-122,0,-243,81c0,0,-122,81,-252,280l57,41C110,345,283,64,498,64c0,0,92,0,153,49c0,0,61,49,61,121c0,0,0,46,-28,84L440,237c0,0,-73,11,-139,55c0,0,-66,44,-105,105c0,0,-40,61,-40,119c0,0,0,72,62,125c0,0,62,53,184,53H625V822H0l-45,76l14,31H906l46,-76L938,822H678l66,-58V562H431c0,0,-164,0,-164,-99c0,0,0,-55,57,-102l261,82c0,0,104,-21,172,-98c0,0,68,-78,68,-171c0,0,0,-99,-76,-166c0,0,-77,-65,-201,-65Z"
id="f6_bm"
transform="scale(0.001,-0.001)"/>

<path d="M1066,248c0,0,77,0,149,36c0,0,71,37,110,107V822H976c0,0,138,-96,138,-208c0,0,0,-151,-228,-192c0,0,29,-104,89,-158c0,0,41,-16,91,-16ZM1415,-49L1325,8V200c0,0,-69,-56,-170,-56c0,0,-121,0,-238,91c0,0,-116,92,-178,233c0,0,-22,19,-51,25c0,0,-28,5,-191,5c0,0,61,-47,93,-111c0,0,33,-63,33,-126c0,0,0,-85,-58,-142c0,0,-59,-56,-148,-56c0,0,-130,0,-230,139C187,202,87,341,20,581l76,24c0,0,60,-202,127,-306c0,0,67,-105,160,-105c0,0,57,0,91,36c0,0,33,36,33,91c0,0,0,84,-73,159L295,542v72H542c0,0,112,0,168,-14c0,0,55,-15,97,-62c0,0,102,15,146,42c0,0,45,27,45,78c0,0,0,45,-30,81c0,0,-30,36,-99,83H0l-45,76l14,31H1589l46,-76l-14,-31H1386l65,-58V-39l-36,-10Z"
id="f6_iz"
transform="scale(0.001,-0.001)"/>

<path d="M347,-57C347,-57,66,211,66,394c0,0,0,98,74,164c0,0,74,65,225,65H616V822H0l-45,76l14,31H880l46,-76L912,822H677l66,-58V-39L706,-49L616,8V500H428c0,0,-239,0,-239,-161c0,0,0,-136,214,-343L347,-57Z"
id="f6_bp"
transform="scale(0.001,-0.001)"/>

<path d="M487,-7c0,0,-88,0,-185,46c0,0,-97,47,-163,130c0,0,-66,83,-66,185c0,0,0,109,80,177c0,0,79,68,234,68H504V822H0l-45,76l14,31H827l45,-76L859,822H565l66,-58V474l-3,1l3,-3H396c0,0,-100,0,-152,-47c0,0,-53,-48,-53,-119c0,0,0,-104,93,-178c0,0,60,-20,118,-20c0,0,81,0,156,36c0,0,76,35,123,99l92,-99C773,144,723,70,645,31C645,31,567,-7,487,-7Z"
id="f6_bk"
transform="scale(0.001,-0.001)"/>

<path d="M626,-175L564,73C564,73,510,53,454,53c0,0,-129,0,-240,92c0,0,-112,92,-112,209c0,0,0,115,98,185c0,0,-139,89,-139,211c0,0,0,90,77,150c0,0,76,59,197,59c0,0,136,0,236,-64V779c0,0,-110,63,-213,63c0,0,-83,0,-134,-35c0,0,-51,-34,-51,-94c0,0,0,-82,94,-140c0,0,69,23,147,23c0,0,83,0,160,-20l7,-121c0,0,-78,16,-138,16c0,0,-118,0,-174,-44c0,0,-57,-44,-57,-112c0,0,0,-86,74,-144c0,0,41,-12,82,-12c0,0,87,0,159,41L507,310l54,29L706,211c0,0,-11,-48,-77,-103l84,-241l-9,-26l-78,-16Z"
id="f6_nc"
transform="scale(0.001,-0.001)"/>

<path d="M154,752c0,0,-108,44,-108,143c0,0,0,74,48,145c0,0,48,71,134,118l44,-58c0,0,-43,-31,-72,-76c0,0,-29,-46,-32,-89l80,-61c0,0,-4,-38,-30,-72c0,0,-25,-34,-64,-50Z"
id="f6_8c"
transform="scale(0.001,-0.001)"/>

<path d="M-214,860l-227,219c0,0,-73,70,-148,70c0,0,-67,0,-160,-58l-72,117c0,0,83,71,176,71c0,0,120,0,232,-124L-221,940l-102,294c0,0,-64,179,-189,179c0,0,-60,0,-133,-33l-60,125c0,0,84,47,164,47c0,0,200,0,281,-276L-150,901l-23,-15l-41,-26Z"
id="f6_d5"
transform="scale(0.001,-0.001)"/>

<path d="M325,240c0,0,77,0,154,35c0,0,77,35,120,99V500c0,0,-118,73,-222,73c0,0,-97,0,-151,-54c0,0,-53,-53,-53,-128c0,0,0,-73,49,-125c0,0,38,-26,103,-26ZM689,-49L599,8V199c0,0,-73,-65,-179,-65c0,0,-134,0,-252,96c0,0,-118,95,-118,221c0,0,0,102,78,171c0,0,78,69,190,69c0,0,38,0,75,-10L599,582V822H0l-45,76l14,31H863l46,-76L895,822H660l66,-58V-39L689,-49Z"
id="f6_c7"
transform="scale(0.001,-0.001)"/>

<path d="M67,770l-98,32c0,0,54,150,62,304l41,31l110,-25c0,0,-20,-174,-115,-342Z"
id="f6_f"
transform="scale(0.001,-0.001)"/>

<path d="M342,324c0,0,45,0,75,34c0,0,31,33,31,100V822H165l66,-58V390c0,0,32,-66,111,-66ZM853,-49L762,8V822H509l65,-58V455c0,0,0,-134,-51,-185c0,0,-52,-52,-127,-52c0,0,-98,0,-195,99c0,0,-97,99,-97,209V822H0l-45,76l14,31H1027l46,-76l-14,-31H823l66,-58V-39L853,-49Z"
id="f6_bo"
transform="scale(0.001,-0.001)"/>

<path d="M228,-49L138,8V822H0l-45,76l14,31H134c0,0,-91,92,-91,191c0,0,0,105,85,170c0,0,84,65,219,65c0,0,128,0,293,-76c0,0,165,-77,362,-263L958,966c0,0,-177,143,-303,210c0,0,-125,68,-244,68c0,0,-107,0,-175,-50c0,0,-68,-50,-68,-131c0,0,0,-61,49,-134H402l46,-76L434,822H199l65,-58V-39L228,-49Z"
id="f6_cu"
transform="scale(0.001,-0.001)"/>

<path d="M283,260c0,0,122,0,209,113V513c0,0,-90,51,-160,51c0,0,-80,0,-129,-50c0,0,-49,-50,-49,-118c0,0,0,-60,35,-110c0,0,45,-26,94,-26ZM582,-49L492,8V211c0,0,-63,-54,-141,-54c0,0,-113,0,-214,92c0,0,-102,92,-102,206c0,0,0,93,69,157c0,0,69,63,163,63c0,0,34,0,66,-9L492,590V822H0l-45,76l14,31H909l46,-76L941,822H553l66,-58V521c0,0,93,104,192,104c0,0,63,0,120,-42c0,0,57,-42,82,-106L964,431l-5,9c0,0,-38,72,-110,72c0,0,-51,0,-105,-41c0,0,-53,-42,-125,-129V-39L582,-49Z"
id="f6_l1"
transform="scale(0.001,-0.001)"/>

<path d="M283,260c0,0,122,0,209,113V513c0,0,-90,51,-160,51c0,0,-80,0,-129,-50c0,0,-49,-50,-49,-118c0,0,0,-60,35,-110c0,0,45,-26,94,-26ZM582,-49L492,8V211c0,0,-63,-54,-141,-54c0,0,-113,0,-213,92c0,0,-100,92,-100,205c0,0,0,93,69,157c0,0,69,64,162,64c0,0,32,0,64,-9L492,590V822H0l-45,76l14,31H1108l45,-76l-13,-31H553l66,-58V524c0,0,91,89,192,89c0,0,98,0,171,-79c0,0,72,-79,72,-186c0,0,0,-178,-224,-330L736,124c0,0,219,153,219,269c0,0,0,44,-26,75c0,0,-26,32,-81,32c0,0,-109,0,-229,-155V-39L582,-49Z"
id="f6_b9"
transform="scale(0.001,-0.001)"/>

<path d="M558,468c0,0,91,0,151,50c0,0,-11,87,-48,139c0,0,-38,52,-94,52c0,0,-51,0,-81,-41c0,0,-31,-40,-31,-100c0,0,0,-39,16,-79c0,0,32,-21,87,-21ZM545,31c0,0,-220,0,-348,239C197,270,69,510,0,804l89,30c0,0,78,-348,178,-507c0,0,100,-159,237,-159c0,0,83,0,137,54c0,0,54,55,68,157c0,0,-44,-20,-92,-20c0,0,-96,0,-188,87c0,0,-91,87,-91,188c0,0,0,73,51,127c0,0,51,53,129,53c0,0,124,0,215,-131c0,0,90,-131,90,-306c0,0,0,-154,-75,-250c0,0,-76,-96,-203,-96Z"
id="f6_nd"
transform="scale(0.001,-0.001)"/>

<path d="M725,307c0,0,-95,0,-218,78c0,0,-123,78,-188,78c0,0,-54,0,-95,-34c0,0,-41,-34,-73,-100L93,362c0,0,38,88,101,146c0,0,63,59,148,59c0,0,90,0,214,-78c0,0,124,-79,188,-79c0,0,63,0,106,34c0,0,42,33,85,104l60,-40c0,0,-32,-66,-101,-134c0,0,-70,-67,-169,-67Z"
id="f7_4r"
transform="scale(0.001,-0.001)"/>

<path d="M423,92c0,0,97,0,159,62c0,0,62,62,62,157c0,0,0,97,-64,160c0,0,-64,64,-161,64c0,0,-96,0,-158,-63c0,0,-62,-62,-62,-156c0,0,0,-58,27,-111c0,0,27,-54,81,-84c0,0,54,-29,116,-29Zm0,552c0,0,78,0,127,49c0,0,49,49,49,120c0,0,0,74,-50,124c0,0,-51,51,-128,51c0,0,-77,0,-127,-50c0,0,-51,-49,-51,-118c0,0,0,-77,50,-126c0,0,50,-50,130,-50ZM422,-18c0,0,-162,0,-261,95c0,0,-99,96,-99,239c0,0,0,107,54,179c0,0,54,72,154,98c0,0,-84,31,-124,87c0,0,-40,57,-40,136c0,0,0,119,85,201c0,0,86,81,229,81c0,0,143,0,230,-83c0,0,87,-83,87,-203c0,0,0,-76,-40,-132c0,0,-39,-56,-121,-87c0,0,101,-33,154,-106c0,0,52,-73,52,-174c0,0,0,-141,-99,-236c0,0,-99,-95,-261,-95Z"
id="f8_s"
transform="scale(0.001,-0.001)"/>

<path d="M435,92c0,0,85,0,146,69c0,0,60,68,60,186c0,0,0,114,-60,179c0,0,-60,66,-152,66c0,0,-90,0,-154,-66c0,0,-63,-65,-63,-171c0,0,0,-70,30,-133c0,0,29,-64,82,-97c0,0,52,-33,111,-33Zm2,-110c0,0,-168,0,-273,123C164,105,58,228,58,512c0,0,0,317,117,461c0,0,102,125,275,125c0,0,129,0,211,-72c0,0,82,-72,99,-200L626,815c0,0,-18,79,-51,115c0,0,-54,58,-134,58c0,0,-64,0,-112,-36c0,0,-63,-46,-99,-135c0,0,-37,-89,-38,-253c0,0,48,74,118,110c0,0,70,36,147,36c0,0,134,0,228,-99c0,0,94,-99,94,-256c0,0,0,-103,-44,-191C735,164,691,75,613,28c0,0,-77,-46,-176,-46Z"
id="f8_q"
transform="scale(0.001,-0.001)"/>


</defs>
</svg>