<?xml version="1.0" encoding="UTF-8" standalone="no"?>
<!DOCTYPE svg PUBLIC "-//W3C//DTD SVG 1.1//EN"
"http://www.w3.org/Graphics/SVG/1.1/DTD/svg11.dtd">
<svg viewBox="0 0 641 910" version="1.1" xmlns="http://www.w3.org/2000/svg" xmlns:xlink="http://www.w3.org/1999/xlink">
<defs>
<clipPath id="c0_110"><path d="M0,909.8V0H641.7V909.8Z"/></clipPath>
<clipPath id="c1_110"><path d="M0,908.6V0H641.7V908.6Z"/></clipPath>
<style type="text/css"><![CDATA[
.g0_110{
fill: #FFFFFF;
}
.g1_110{
}
]]></style>
</defs>
<path d="M0,0H641.7V909.8H0V0Z" class="g0_110"/>
<path d="M0,0H641.7V909.8H0V0Z" class="g0_110"/>
<g clip-path="url(#c0_110)">
<path d="M0,-93708.4H641.7V12737.1H0V-93708.4Z" class="g0_110"/>
</g>
<path d="M0,0H641.7V908.6H0V0Z" class="g0_110"/>
<path d="M19.5,60.7H602.7v1.2H19.5V60.7Z" class="g1_110"/>
<g clip-path="url(#c1_110)">
<path d="M0,61.9H641.7V909.8H0V61.9Z" class="g0_110"/>
<g fill="#000000" >
<use xlink:href="#f5_c7" transform="matrix(14,0,0,14,212.3,96.3)" />
<use xlink:href="#f5_d8" transform="matrix(14,0,0,14,226,96.3)" />
<use xlink:href="#f5_c7" transform="matrix(14,0,0,14,238.1,96.3)" />
<use xlink:href="#f5_nl" transform="matrix(14,0,0,14,251.8,96.3)" />
<use xlink:href="#f5_bs" transform="matrix(14,0,0,14,251.8,96.3)" />
<use xlink:href="#f5_dr" transform="matrix(14,0,0,14,266.9,96.3)" />
<use xlink:href="#f5_bz" transform="matrix(14,0,0,14,266.9,96.3)" />
<use xlink:href="#f5_ct" transform="matrix(14,0,0,14,281.5,96.3)" />
<use xlink:href="#f5_bt" transform="matrix(14,0,0,14,288,96.3)" />
<use xlink:href="#f5_bz" transform="matrix(14,0,0,14,306.7,96.3)" />
<use xlink:href="#f5_cc" transform="matrix(14,0,0,14,321.3,96.3)" />
<use xlink:href="#f5_ct" transform="matrix(14,0,0,14,334,96.3)" />
<use xlink:href="#f5_c7" transform="matrix(14,0,0,14,340.5,96.3)" />
<use xlink:href="#f5_cv" transform="matrix(14,0,0,14,354.2,96.3)" />
<use xlink:href="#f5_c1" transform="matrix(14,0,0,14,360.7,96.3)" />
<use xlink:href="#f5_b9" transform="matrix(14,0,0,14,376.5,96.3)" />
<use xlink:href="#f5_bl" transform="matrix(14,0,0,14,393.9,96.3)" />
<use xlink:href="#f5_d4" transform="matrix(14,0,0,14,405.7,96.3)" />
<use xlink:href="#f6_g" transform="matrix(14,0,0,14,218,154.7)" />
<use xlink:href="#f6_bp" transform="matrix(14,0,0,14,223.9,154.7)" />
<use xlink:href="#f6_bg" transform="matrix(14,0,0,14,236.2,154.7)" />
<use xlink:href="#f6_dr" transform="matrix(14,0,0,14,250.9,154.7)" />
<use xlink:href="#f6_y" transform="matrix(14,0,0,14,256.1,154.7)" />
<use xlink:href="#f6_bz" transform="matrix(14,0,0,14,268.8,154.7)" />
<use xlink:href="#f6_cc" transform="matrix(14,0,0,14,282.1,154.7)" />
<use xlink:href="#f6_ct" transform="matrix(14,0,0,14,293.7,154.7)" />
<use xlink:href="#f6_c1" transform="matrix(14,0,0,14,299.4,154.7)" />
<use xlink:href="#f6_ct" transform="matrix(14,0,0,14,307.7,154.7)" />
<use xlink:href="#f6_bo" transform="matrix(14,0,0,14,313.4,154.7)" />
<use xlink:href="#f6_ct" transform="matrix(14,0,0,14,327.7,154.7)" />
<use xlink:href="#f6_e6" transform="matrix(14,0,0,14,339,154.7)" />
<use xlink:href="#f6_bp" transform="matrix(14,0,0,14,351.1,154.7)" />
<use xlink:href="#f6_ct" transform="matrix(14,0,0,14,363.4,154.7)" />
<use xlink:href="#f6_bv" transform="matrix(14,0,0,14,369,154.7)" />
<use xlink:href="#f6_pc" transform="matrix(14,0,0,14,380.9,154.7)" />
<use xlink:href="#f6_pc" transform="matrix(14,0,0,14,385.2,154.7)" />
<use xlink:href="#f6_pc" transform="matrix(14,0,0,14,389.4,154.7)" />
<use xlink:href="#f6_pc" transform="matrix(14,0,0,14,393.7,154.7)" />
<use xlink:href="#f6_h" transform="matrix(14,0,0,14,398,154.7)" />
<use xlink:href="#f6_cu" transform="matrix(14,0,0,14,97.7,187.9)" />
<use xlink:href="#f6_e1" transform="matrix(14,0,0,14,103.3,187.9)" />
<use xlink:href="#f6_c8" transform="matrix(14,0,0,14,115.4,187.9)" />
<use xlink:href="#f6_c3" transform="matrix(14,0,0,14,131.2,187.9)" />
<use xlink:href="#f6_ct" transform="matrix(14,0,0,14,145.9,187.9)" />
<use xlink:href="#f6_bz" transform="matrix(14,0,0,14,157.2,187.9)" />
<use xlink:href="#f6_ct" transform="matrix(14,0,0,14,170.6,187.9)" />
<use xlink:href="#f6_dj" transform="matrix(14,0,0,14,170.8,188.3)" />
<use xlink:href="#f6_bq" transform="matrix(14,0,0,14,181.9,187.9)" />
<use xlink:href="#f6_ct" transform="matrix(14,0,0,14,195.1,187.9)" />
<use xlink:href="#f6_c1" transform="matrix(14,0,0,14,200.7,187.9)" />
<use xlink:href="#f6_d8" transform="matrix(14,0,0,14,209.1,187.9)" />
<use xlink:href="#f6_c3" transform="matrix(14,0,0,14,220.3,187.9)" />
<use xlink:href="#f6_ct" transform="matrix(14,0,0,14,235,187.9)" />
<use xlink:href="#f6_c3" transform="matrix(14,0,0,14,240.7,187.9)" />
<use xlink:href="#f6_b9" transform="matrix(14,0,0,14,261,187.9)" />
<use xlink:href="#f6_bl" transform="matrix(14,0,0,14,276.5,187.9)" />
<use xlink:href="#f6_d4" transform="matrix(14,0,0,14,287.5,187.9)" />
<use xlink:href="#f6_cr" transform="matrix(14,0,0,14,288.9,187.9)" />
<use xlink:href="#f6_cr" transform="matrix(14,0,0,14,301.7,187.9)" />
<use xlink:href="#f6_cr" transform="matrix(14,0,0,14,314.5,187.9)" />
<use xlink:href="#f6_g" transform="matrix(14,0,0,14,327.4,187.9)" />
<use xlink:href="#f6_q" transform="matrix(14,0,0,14,333.3,187.9)" />
<use xlink:href="#f6_h" transform="matrix(14,0,0,14,344.9,187.9)" />
<use xlink:href="#f6_k" transform="matrix(14,0,0,14,350.8,187.9)" />
<use xlink:href="#f6_bz" transform="matrix(14,0,0,14,361.6,187.9)" />
<use xlink:href="#f6_ct" transform="matrix(14,0,0,14,375,187.9)" />
<use xlink:href="#f6_c0" transform="matrix(14,0,0,14,380.6,187.9)" />
<use xlink:href="#f6_bm" transform="matrix(14,0,0,14,393.2,187.9)" />
<use xlink:href="#f6_bq" transform="matrix(14,0,0,14,411.5,187.9)" />
<use xlink:href="#f6_ct" transform="matrix(14,0,0,14,424.7,187.9)" />
<use xlink:href="#f6_c1" transform="matrix(14,0,0,14,430.3,187.9)" />
<use xlink:href="#f6_d8" transform="matrix(14,0,0,14,438.7,187.9)" />
<use xlink:href="#f6_c3" transform="matrix(14,0,0,14,450,187.9)" />
<use xlink:href="#f6_ct" transform="matrix(14,0,0,14,464.7,187.9)" />
<use xlink:href="#f6_c3" transform="matrix(14,0,0,14,470.3,187.9)" />
<use xlink:href="#f6_b9" transform="matrix(14,0,0,14,490.7,187.9)" />
<use xlink:href="#f6_bl" transform="matrix(14,0,0,14,506.2,187.9)" />
<use xlink:href="#f6_d4" transform="matrix(14,0,0,14,517.2,187.9)" />
<use xlink:href="#f6_k" transform="matrix(14,0,0,14,518.5,187.9)" />
<use xlink:href="#f6_c7" transform="matrix(14,0,0,14,220.3,221.1)" />
<use xlink:href="#f6_d8" transform="matrix(14,0,0,14,232.4,221.1)" />
<use xlink:href="#f6_bg" transform="matrix(14,0,0,14,243.7,221.1)" />
<use xlink:href="#f6_d5" transform="matrix(14,0,0,14,258.1,221.1)" />
<use xlink:href="#f6_bt" transform="matrix(14,0,0,14,257.9,221.1)" />
<use xlink:href="#f6_bs" transform="matrix(14,0,0,14,275.3,221.1)" />
<use xlink:href="#f6_bz" transform="matrix(14,0,0,14,289.3,221.1)" />
<use xlink:href="#f6_dr" transform="matrix(14,0,0,14,303.1,221.1)" />
<use xlink:href="#f6_c1" transform="matrix(14,0,0,14,308.3,221.1)" />
<use xlink:href="#f6_cv" transform="matrix(14,0,0,14,316.7,221.1)" />
<use xlink:href="#f6_by" transform="matrix(14,0,0,14,328,221.1)" />
<use xlink:href="#f6_ct" transform="matrix(14,0,0,14,341.9,221.1)" />
<use xlink:href="#f6_c3" transform="matrix(14,0,0,14,347.6,221.1)" />
<use xlink:href="#f6_b9" transform="matrix(14,0,0,14,367.9,221.1)" />
<use xlink:href="#f6_bl" transform="matrix(14,0,0,14,383.4,221.1)" />
<use xlink:href="#f6_d4" transform="matrix(14,0,0,14,394.4,221.1)" />
<use xlink:href="#f6_k" transform="matrix(14,0,0,14,395.8,221.1)" />
<use xlink:href="#f6_mv" transform="matrix(14,0,0,14,155,254.4)" />
<use xlink:href="#f6_cu" transform="matrix(14,0,0,14,166.8,254.4)" />
<use xlink:href="#f6_bt" transform="matrix(14,0,0,14,172.4,254.4)" />
<use xlink:href="#f6_c0" transform="matrix(14,0,0,14,184.1,254.4)" />
<use xlink:href="#f6_ct" transform="matrix(14,0,0,14,196.7,254.4)" />
<use xlink:href="#f6_bz" transform="matrix(14,0,0,14,207.9,254.4)" />
<use xlink:href="#f6_oz" transform="matrix(14,0,0,14,221.4,254.4)" />
<use xlink:href="#f6_bx" transform="matrix(14,0,0,14,226.9,254.4)" />
<use xlink:href="#f6_ci" transform="matrix(14,0,0,14,239.2,254.4)" />
<use xlink:href="#f6_bb" transform="matrix(14,0,0,14,256.8,254.4)" />
<use xlink:href="#f6_c0" transform="matrix(14,0,0,14,269.4,254.4)" />
<use xlink:href="#f6_d8" transform="matrix(14,0,0,14,282,254.4)" />
<use xlink:href="#f6_bv" transform="matrix(14,0,0,14,293.3,254.4)" />
<use xlink:href="#f6_ct" transform="matrix(14,0,0,14,305.1,254.4)" />
<use xlink:href="#f6_bv" transform="matrix(14,0,0,14,310.8,254.4)" />
<use xlink:href="#f6_bc" transform="matrix(14,0,0,14,328.3,254.4)" />
<use xlink:href="#f6_bo" transform="matrix(14,0,0,14,342.2,254.4)" />
<use xlink:href="#f6_d8" transform="matrix(14,0,0,14,356.6,254.4)" />
<use xlink:href="#f6_b1" transform="matrix(14,0,0,14,367.8,254.4)" />
<use xlink:href="#f6_pc" transform="matrix(14,0,0,14,389.3,254.4)" />
<use xlink:href="#f6_pc" transform="matrix(14,0,0,14,393.6,254.4)" />
<use xlink:href="#f6_pc" transform="matrix(14,0,0,14,397.9,254.4)" />
<use xlink:href="#f6_b1" transform="matrix(14,0,0,14,402.2,254.4)" />
<use xlink:href="#f6_pc" transform="matrix(14,0,0,14,423.6,254.4)" />
<use xlink:href="#f6_pc" transform="matrix(14,0,0,14,427.9,254.4)" />
<use xlink:href="#f6_pc" transform="matrix(14,0,0,14,432.2,254.4)" />
<use xlink:href="#f6_g" transform="matrix(14,0,0,14,436.5,254.4)" />
<use xlink:href="#f6_q" transform="matrix(14,0,0,14,442.3,254.4)" />
<use xlink:href="#f6_h" transform="matrix(14,0,0,14,454,254.4)" />
<use xlink:href="#f6_k" transform="matrix(14,0,0,14,459.8,254.4)" />
<use xlink:href="#f6_c7" transform="matrix(14,0,0,14,150.4,287.6)" />
<use xlink:href="#f6_d8" transform="matrix(14,0,0,14,162.5,287.6)" />
<use xlink:href="#f6_c7" transform="matrix(14,0,0,14,173.8,287.6)" />
<use xlink:href="#f6_nl" transform="matrix(14,0,0,14,185.9,287.6)" />
<use xlink:href="#f6_bs" transform="matrix(14,0,0,14,185.9,287.6)" />
<use xlink:href="#f6_dr" transform="matrix(14,0,0,14,199.9,287.6)" />
<use xlink:href="#f6_bz" transform="matrix(14,0,0,14,199.9,287.6)" />
<use xlink:href="#f6_ct" transform="matrix(14,0,0,14,213.2,287.6)" />
<use xlink:href="#f6_bt" transform="matrix(14,0,0,14,218.8,287.6)" />
<use xlink:href="#f6_bz" transform="matrix(14,0,0,14,236.2,287.6)" />
<use xlink:href="#f6_cc" transform="matrix(14,0,0,14,249.5,287.6)" />
<use xlink:href="#f6_ct" transform="matrix(14,0,0,14,261.1,287.6)" />
<use xlink:href="#f6_c7" transform="matrix(14,0,0,14,266.8,287.6)" />
<use xlink:href="#f6_cv" transform="matrix(14,0,0,14,278.8,287.6)" />
<use xlink:href="#f6_c1" transform="matrix(14,0,0,14,284.5,287.6)" />
<use xlink:href="#f6_b9" transform="matrix(14,0,0,14,298.5,287.6)" />
<use xlink:href="#f6_bl" transform="matrix(14,0,0,14,314,287.6)" />
<use xlink:href="#f6_d4" transform="matrix(14,0,0,14,325,287.6)" />
<use xlink:href="#f6_k" transform="matrix(14,0,0,14,326.4,287.6)" />
<use xlink:href="#f6_cu" transform="matrix(14,0,0,14,337.2,287.6)" />
<use xlink:href="#f6_e1" transform="matrix(14,0,0,14,342.9,287.6)" />
<use xlink:href="#f6_c8" transform="matrix(14,0,0,14,354.9,287.6)" />
<use xlink:href="#f6_c3" transform="matrix(14,0,0,14,370.8,287.6)" />
<use xlink:href="#f6_ct" transform="matrix(14,0,0,14,385.5,287.6)" />
<use xlink:href="#f6_bz" transform="matrix(14,0,0,14,396.8,287.6)" />
<use xlink:href="#f6_ct" transform="matrix(14,0,0,14,410.1,287.6)" />
<use xlink:href="#f6_di" transform="matrix(14,0,0,14,413.6,288)" />
<use xlink:href="#f6_bq" transform="matrix(14,0,0,14,421.4,287.6)" />
<use xlink:href="#f6_ct" transform="matrix(14,0,0,14,434.6,287.6)" />
<use xlink:href="#f6_c1" transform="matrix(14,0,0,14,440.2,287.6)" />
<use xlink:href="#f6_d8" transform="matrix(14,0,0,14,448.6,287.6)" />
<use xlink:href="#f6_pc" transform="matrix(14,0,0,14,454.2,287.6)" />
<use xlink:href="#f6_pc" transform="matrix(14,0,0,14,458.5,287.6)" />
<use xlink:href="#f6_pc" transform="matrix(14,0,0,14,462.8,287.6)" />
<use xlink:href="#f6_pc" transform="matrix(14,0,0,14,467,287.6)" />
<use xlink:href="#f6_bs" transform="matrix(14,0,0,14,78.2,346)" />
<use xlink:href="#f6_c1" transform="matrix(14,0,0,14,92.2,346)" />
<use xlink:href="#f6_bp" transform="matrix(14,0,0,14,100.6,346)" />
<use xlink:href="#f6_cv" transform="matrix(14,0,0,14,112.9,346)" />
<use xlink:href="#f6_c1" transform="matrix(14,0,0,14,124.2,346)" />
<use xlink:href="#f6_d8" transform="matrix(14,0,0,14,132.6,346)" />
<use xlink:href="#f6_bv" transform="matrix(14,0,0,14,143.9,346)" />
<use xlink:href="#f6_ct" transform="matrix(14,0,0,14,155.7,346)" />
<use xlink:href="#f6_bv" transform="matrix(14,0,0,14,161.4,346)" />
<use xlink:href="#f6_nt" transform="matrix(14,0,0,14,178.9,346)" />
<use xlink:href="#f6_bz" transform="matrix(14,0,0,14,184.5,346)" />
<use xlink:href="#f6_bk" transform="matrix(14,0,0,14,197.8,346)" />
<use xlink:href="#f6_ct" transform="matrix(14,0,0,14,209.4,346)" />
<use xlink:href="#f6_c7" transform="matrix(14,0,0,14,215,346)" />
<use xlink:href="#f6_bo" transform="matrix(14,0,0,14,227.1,346)" />
<use xlink:href="#f6_bt" transform="matrix(14,0,0,14,241.5,346)" />
<use xlink:href="#f6_d4" transform="matrix(14,0,0,14,253.3,346)" />
<use xlink:href="#f6_cr" transform="matrix(14,0,0,14,253.2,346)" />
<use xlink:href="#f6_cr" transform="matrix(14,0,0,14,266,346)" />
<use xlink:href="#f6_cr" transform="matrix(14,0,0,14,278.8,346)" />
<use xlink:href="#f6_g" transform="matrix(14,0,0,14,291.7,346)" />
<use xlink:href="#f6_q" transform="matrix(14,0,0,14,297.5,346)" />
<use xlink:href="#f6_h" transform="matrix(14,0,0,14,309.2,346)" />
<use xlink:href="#f6_k" transform="matrix(14,0,0,14,315.1,346)" />
<use xlink:href="#f6_al" transform="matrix(14,0,0,14,325.9,346)" />
<use xlink:href="#f6_bx" transform="matrix(14,0,0,14,341.8,346)" />
<use xlink:href="#f6_bv" transform="matrix(14,0,0,14,359.8,346)" />
<use xlink:href="#f6_ch" transform="matrix(14,0,0,14,371.6,346)" />
<use xlink:href="#f6_cv" transform="matrix(14,0,0,14,384.3,346)" />
<use xlink:href="#f6_bg" transform="matrix(14,0,0,14,395.6,346)" />
<use xlink:href="#f6_n0" transform="matrix(14,0,0,14,409.8,346)" />
<use xlink:href="#f6_c1" transform="matrix(14,0,0,14,423,346)" />
<use xlink:href="#f6_bp" transform="matrix(14,0,0,14,431.4,346)" />
<use xlink:href="#f6_bq" transform="matrix(14,0,0,14,449.3,346)" />
<use xlink:href="#f6_ct" transform="matrix(14,0,0,14,462.5,346)" />
<use xlink:href="#f6_c1" transform="matrix(14,0,0,14,468.2,346)" />
<use xlink:href="#f6_cv" transform="matrix(14,0,0,14,476.5,346)" />
<use xlink:href="#f6_cc" transform="matrix(14,0,0,14,487.8,346)" />
<use xlink:href="#f6_d5" transform="matrix(14,0,0,14,499.8,346)" />
<use xlink:href="#f6_cr" transform="matrix(14,0,0,14,499.4,346)" />
<use xlink:href="#f6_cr" transform="matrix(14,0,0,14,512.3,346)" />
<use xlink:href="#f6_cr" transform="matrix(14,0,0,14,525.1,346)" />
<use xlink:href="#f6_k" transform="matrix(14,0,0,14,537.9,346)" />
<use xlink:href="#f6_cc" transform="matrix(14,0,0,14,74.8,379.3)" />
<use xlink:href="#f6_d8" transform="matrix(14,0,0,14,86.4,379.3)" />
<use xlink:href="#f6_c1" transform="matrix(14,0,0,14,97.7,379.3)" />
<use xlink:href="#f6_go" transform="matrix(14,0,0,14,106.1,379.3)" />
<use xlink:href="#f6_d8" transform="matrix(14,0,0,14,123,379.3)" />
<use xlink:href="#f6_cc" transform="matrix(14,0,0,14,134.3,379.3)" />
<use xlink:href="#f6_d5" transform="matrix(14,0,0,14,146.2,379.3)" />
<use xlink:href="#f6_al" transform="matrix(14,0,0,14,151.5,379.3)" />
<use xlink:href="#f6_j8" transform="matrix(14,0,0,14,167.4,379.3)" />
<use xlink:href="#f6_ct" transform="matrix(14,0,0,14,187.2,379.3)" />
<use xlink:href="#f6_be" transform="matrix(14,0,0,14,192.8,379.3)" />
<use xlink:href="#f6_ct" transform="matrix(14,0,0,14,206.8,379.3)" />
<use xlink:href="#f6_c1" transform="matrix(14,0,0,14,212.4,379.3)" />
<use xlink:href="#f6_bc" transform="matrix(14,0,0,14,226.5,379.3)" />
<use xlink:href="#f6_bo" transform="matrix(14,0,0,14,240.3,379.3)" />
<use xlink:href="#f6_d8" transform="matrix(14,0,0,14,254.7,379.3)" />
<use xlink:href="#f6_cr" transform="matrix(14,0,0,14,260.3,379.3)" />
<use xlink:href="#f6_cr" transform="matrix(14,0,0,14,273.2,379.3)" />
<use xlink:href="#f6_cr" transform="matrix(14,0,0,14,286,379.3)" />
<use xlink:href="#f6_g" transform="matrix(14,0,0,14,298.8,379.3)" />
<use xlink:href="#f6_q" transform="matrix(14,0,0,14,304.7,379.3)" />
<use xlink:href="#f6_h" transform="matrix(14,0,0,14,316.3,379.3)" />
<use xlink:href="#f6_k" transform="matrix(14,0,0,14,322.2,379.3)" />
<use xlink:href="#f6_bg" transform="matrix(14,0,0,14,333.1,379.3)" />
<use xlink:href="#f6_ct" transform="matrix(14,0,0,14,347.3,379.3)" />
<use xlink:href="#f6_c3" transform="matrix(14,0,0,14,353,379.3)" />
<use xlink:href="#f6_cv" transform="matrix(14,0,0,14,367.7,379.3)" />
<use xlink:href="#f6_bz" transform="matrix(14,0,0,14,373.3,379.3)" />
<use xlink:href="#f6_bt" transform="matrix(14,0,0,14,392.3,379.3)" />
<use xlink:href="#f6_d4" transform="matrix(14,0,0,14,404.1,379.3)" />
<use xlink:href="#f6_bx" transform="matrix(14,0,0,14,409.7,379.3)" />
<use xlink:href="#f6_ct" transform="matrix(14,0,0,14,422,379.3)" />
<use xlink:href="#f6_bg" transform="matrix(14,0,0,14,427.6,379.3)" />
<use xlink:href="#f6_cv" transform="matrix(14,0,0,14,441.8,379.3)" />
<use xlink:href="#f6_bz" transform="matrix(14,0,0,14,453.1,379.3)" />
<use xlink:href="#f6_ct" transform="matrix(14,0,0,14,466.5,379.3)" />
<use xlink:href="#f6_c1" transform="matrix(14,0,0,14,472.1,379.3)" />
<use xlink:href="#f6_cv" transform="matrix(14,0,0,14,480.5,379.3)" />
<use xlink:href="#f6_cc" transform="matrix(14,0,0,14,491.8,379.3)" />
<use xlink:href="#f6_d5" transform="matrix(14,0,0,14,503.7,379.3)" />
<use xlink:href="#f6_cr" transform="matrix(14,0,0,14,503.4,379.3)" />
<use xlink:href="#f6_cr" transform="matrix(14,0,0,14,516.2,379.3)" />
<use xlink:href="#f6_cr" transform="matrix(14,0,0,14,529,379.3)" />
<use xlink:href="#f6_k" transform="matrix(14,0,0,14,541.8,379.3)" />
<use xlink:href="#f6_bg" transform="matrix(14,0,0,14,38.1,412.5)" />
<use xlink:href="#f6_d8" transform="matrix(14,0,0,14,52.4,412.5)" />
<use xlink:href="#f6_bg" transform="matrix(14,0,0,14,63.7,412.5)" />
<use xlink:href="#f6_cw" transform="matrix(14,0,0,14,78.5,412.4)" />
<use xlink:href="#f6_lt" transform="matrix(14,0,0,14,77.9,412.5)" />
<use xlink:href="#f6_bz" transform="matrix(14,0,0,14,87.8,412.5)" />
<use xlink:href="#f6_b9" transform="matrix(14,0,0,14,106.8,412.5)" />
<use xlink:href="#f6_c1" transform="matrix(14,0,0,14,122.3,412.5)" />
<use xlink:href="#f6_d4" transform="matrix(14,0,0,14,130.3,412.5)" />
<use xlink:href="#f6_cb" transform="matrix(14,0,0,14,136.4,412.5)" />
<use xlink:href="#f6_c1" transform="matrix(14,0,0,14,151.2,412.5)" />
<use xlink:href="#f6_d4" transform="matrix(14,0,0,14,159.2,412.5)" />
<use xlink:href="#f6_am" transform="matrix(14,0,0,14,159.6,412.5)" />
<use xlink:href="#f6_bz" transform="matrix(14,0,0,14,181.1,412.5)" />
<use xlink:href="#f6_cu" transform="matrix(14,0,0,14,200.1,412.5)" />
<use xlink:href="#f6_bw" transform="matrix(14,0,0,14,205.7,412.5)" />
<use xlink:href="#f6_c1" transform="matrix(14,0,0,14,221.8,412.5)" />
<use xlink:href="#f6_d4" transform="matrix(14,0,0,14,229.8,412.5)" />
<use xlink:href="#f6_cr" transform="matrix(14,0,0,14,230.2,412.5)" />
<use xlink:href="#f6_cr" transform="matrix(14,0,0,14,243,412.5)" />
<use xlink:href="#f6_cr" transform="matrix(14,0,0,14,255.9,412.5)" />
<use xlink:href="#f6_g" transform="matrix(14,0,0,14,268.7,412.5)" />
<use xlink:href="#f6_q" transform="matrix(14,0,0,14,274.6,412.5)" />
<use xlink:href="#f6_h" transform="matrix(14,0,0,14,286.2,412.5)" />
<use xlink:href="#f6_k" transform="matrix(14,0,0,14,292.1,412.5)" />
<use xlink:href="#f6_an" transform="matrix(14,0,0,14,303,412.5)" />
<use xlink:href="#f6_dj" transform="matrix(14,0,0,14,311.3,412.9)" />
<use xlink:href="#f6_cb" transform="matrix(14,0,0,14,314.5,412.5)" />
<use xlink:href="#f6_ct" transform="matrix(14,0,0,14,329.3,412.5)" />
<use xlink:href="#f6_bt" transform="matrix(14,0,0,14,335,412.5)" />
<use xlink:href="#f6_d4" transform="matrix(14,0,0,14,346.8,412.5)" />
<use xlink:href="#f6_cu" transform="matrix(14,0,0,14,352.3,412.5)" />
<use xlink:href="#f6_ol" transform="matrix(14,0,0,14,366.4,412.2)" />
<use xlink:href="#f6_cc" transform="matrix(14,0,0,14,358,412.5)" />
<use xlink:href="#f6_bz" transform="matrix(14,0,0,14,369.6,412.5)" />
<use xlink:href="#f6_bp" transform="matrix(14,0,0,14,382.9,412.5)" />
<use xlink:href="#f6_cc" transform="matrix(14,0,0,14,400.9,412.5)" />
<use xlink:href="#f6_ct" transform="matrix(14,0,0,14,412.5,412.5)" />
<use xlink:href="#f6_c1" transform="matrix(14,0,0,14,418.1,412.5)" />
<use xlink:href="#f6_cv" transform="matrix(14,0,0,14,426.5,412.5)" />
<use xlink:href="#f6_cc" transform="matrix(14,0,0,14,437.8,412.5)" />
<use xlink:href="#f6_d5" transform="matrix(14,0,0,14,449.7,412.5)" />
<use xlink:href="#f6_k" transform="matrix(14,0,0,14,449.4,412.5)" />
<use xlink:href="#f6_b9" transform="matrix(14,0,0,14,460.3,412.5)" />
<use xlink:href="#f6_c3" transform="matrix(14,0,0,14,475.8,412.5)" />
<use xlink:href="#f6_cv" transform="matrix(14,0,0,14,490.5,412.5)" />
<use xlink:href="#f6_c0" transform="matrix(14,0,0,14,496.1,412.5)" />
<use xlink:href="#f6_cw" transform="matrix(14,0,0,14,509.2,412.4)" />
<use xlink:href="#f6_bb" transform="matrix(14,0,0,14,508.6,412.5)" />
<use xlink:href="#f6_c1" transform="matrix(14,0,0,14,521.3,412.5)" />
<use xlink:href="#f6_cv" transform="matrix(14,0,0,14,529.6,412.5)" />
<use xlink:href="#f6_b9" transform="matrix(14,0,0,14,540.9,412.5)" />
<use xlink:href="#f6_ct" transform="matrix(14,0,0,14,556.4,412.5)" />
<use xlink:href="#f6_c5" transform="matrix(14,0,0,14,562,412.5)" />
<use xlink:href="#f6_ob" transform="matrix(14,0,0,14,577.4,412.5)" />
<use xlink:href="#f6_bf" transform="matrix(14,0,0,14,185.9,437.7)" />
<use xlink:href="#f6_ct" transform="matrix(14,0,0,14,201.6,437.7)" />
<use xlink:href="#f6_c0" transform="matrix(14,0,0,14,207.3,437.7)" />
<use xlink:href="#f6_ct" transform="matrix(14,0,0,14,219.8,437.7)" />
<use xlink:href="#f6_bz" transform="matrix(14,0,0,14,231.1,437.7)" />
<use xlink:href="#f6_oz" transform="matrix(14,0,0,14,244.6,437.7)" />
<use xlink:href="#f6_bz" transform="matrix(14,0,0,14,250.1,437.7)" />
<use xlink:href="#f6_cc" transform="matrix(14,0,0,14,263.4,437.7)" />
<use xlink:href="#f6_ct" transform="matrix(14,0,0,14,275,437.7)" />
<use xlink:href="#f6_c7" transform="matrix(14,0,0,14,280.7,437.7)" />
<use xlink:href="#f6_cv" transform="matrix(14,0,0,14,292.7,437.7)" />
<use xlink:href="#f6_c1" transform="matrix(14,0,0,14,298.4,437.7)" />
<use xlink:href="#f6_al" transform="matrix(14,0,0,14,312.4,437.7)" />
<use xlink:href="#f6_c7" transform="matrix(14,0,0,14,328.3,437.7)" />
<use xlink:href="#f6_bp" transform="matrix(14,0,0,14,340.4,437.7)" />
<use xlink:href="#f6_ct" transform="matrix(14,0,0,14,352.7,437.7)" />
<use xlink:href="#f6_c1" transform="matrix(14,0,0,14,358.3,437.7)" />
<use xlink:href="#f6_bg" transform="matrix(14,0,0,14,372.3,437.7)" />
<use xlink:href="#f6_n0" transform="matrix(14,0,0,14,386.6,437.7)" />
<use xlink:href="#f6_c1" transform="matrix(14,0,0,14,399.7,437.7)" />
<use xlink:href="#f6_cv" transform="matrix(14,0,0,14,408.1,437.7)" />
<use xlink:href="#f6_cc" transform="matrix(14,0,0,14,419.4,437.7)" />
<use xlink:href="#f6_d5" transform="matrix(14,0,0,14,431.4,437.7)" />
<use xlink:href="#f6_k" transform="matrix(14,0,0,14,431,437.7)" />
<use xlink:href="#f6_be" transform="matrix(14,0,0,14,119.5,470.9)" />
<use xlink:href="#f6_dj" transform="matrix(14,0,0,14,130.6,471.4)" />
<use xlink:href="#f6_br" transform="matrix(14,0,0,14,133.5,470.9)" />
<use xlink:href="#f6_bt" transform="matrix(14,0,0,14,145.1,470.9)" />
<use xlink:href="#f6_bx" transform="matrix(14,0,0,14,156.8,470.9)" />
<use xlink:href="#f6_ct" transform="matrix(14,0,0,14,169.1,470.9)" />
<use xlink:href="#f6_c3" transform="matrix(14,0,0,14,174.8,470.9)" />
<use xlink:href="#f6_ct" transform="matrix(14,0,0,14,189.5,470.9)" />
<use xlink:href="#f6_bt" transform="matrix(14,0,0,14,200.7,470.9)" />
<use xlink:href="#f6_d4" transform="matrix(14,0,0,14,212.6,470.9)" />
<use xlink:href="#f6_bp" transform="matrix(14,0,0,14,218.1,470.9)" />
<use xlink:href="#f6_ct" transform="matrix(14,0,0,14,230.4,470.9)" />
<use xlink:href="#f6_c1" transform="matrix(14,0,0,14,236.1,470.9)" />
<use xlink:href="#f6_cv" transform="matrix(14,0,0,14,244.4,470.9)" />
<use xlink:href="#f6_c0" transform="matrix(14,0,0,14,250.1,470.9)" />
<use xlink:href="#f6_d8" transform="matrix(14,0,0,14,262.6,470.9)" />
<use xlink:href="#f6_dj" transform="matrix(14,0,0,14,266.9,471.8)" />
<use xlink:href="#f6_g" transform="matrix(14,0,0,14,273.9,470.9)" />
<use xlink:href="#f6_q" transform="matrix(14,0,0,14,279.8,470.9)" />
<use xlink:href="#f6_h" transform="matrix(14,0,0,14,291.4,470.9)" />
<use xlink:href="#f6_k" transform="matrix(14,0,0,14,297.3,470.9)" />
<use xlink:href="#f6_c7" transform="matrix(14,0,0,14,308.2,470.9)" />
<use xlink:href="#f6_d8" transform="matrix(14,0,0,14,320.2,470.9)" />
<use xlink:href="#f6_bp" transform="matrix(14,0,0,14,331.5,470.9)" />
<use xlink:href="#f6_n0" transform="matrix(14,0,0,14,343.8,470.9)" />
<use xlink:href="#f6_bo" transform="matrix(14,0,0,14,357,470.9)" />
<use xlink:href="#f6_bp" transform="matrix(14,0,0,14,377,470.9)" />
<use xlink:href="#f6_bv" transform="matrix(14,0,0,14,389.3,470.9)" />
<use xlink:href="#f6_m1" transform="matrix(14,0,0,14,401.2,470.9)" />
<use xlink:href="#f6_c7" transform="matrix(14,0,0,14,410,470.9)" />
<use xlink:href="#f6_cv" transform="matrix(14,0,0,14,422.1,470.9)" />
<use xlink:href="#f6_bt" transform="matrix(14,0,0,14,433.3,470.9)" />
<use xlink:href="#f6_ct" transform="matrix(14,0,0,14,445.1,470.9)" />
<use xlink:href="#f6_no" transform="matrix(14,0,0,14,450.7,470.9)" />
<use xlink:href="#f6_bq" transform="matrix(14,0,0,14,450.7,470.9)" />
<use xlink:href="#f6_b9" transform="matrix(14,0,0,14,469.5,470.9)" />
<use xlink:href="#f6_bl" transform="matrix(14,0,0,14,485,470.9)" />
<use xlink:href="#f6_d4" transform="matrix(14,0,0,14,496,470.9)" />
<use xlink:href="#f6_k" transform="matrix(14,0,0,14,497.4,470.9)" />
<use xlink:href="#f6_cu" transform="matrix(14,0,0,14,242.1,504.2)" />
<use xlink:href="#f6_e1" transform="matrix(14,0,0,14,247.7,504.2)" />
<use xlink:href="#f6_c8" transform="matrix(14,0,0,14,259.8,504.2)" />
<use xlink:href="#f6_c3" transform="matrix(14,0,0,14,275.6,504.2)" />
<use xlink:href="#f6_ct" transform="matrix(14,0,0,14,290.3,504.2)" />
<use xlink:href="#f6_bz" transform="matrix(14,0,0,14,301.6,504.2)" />
<use xlink:href="#f6_ct" transform="matrix(14,0,0,14,314.9,504.2)" />
<use xlink:href="#f6_di" transform="matrix(14,0,0,14,318.4,504.6)" />
<use xlink:href="#f6_bq" transform="matrix(14,0,0,14,326.2,504.2)" />
<use xlink:href="#f6_ct" transform="matrix(14,0,0,14,339.4,504.2)" />
<use xlink:href="#f6_c1" transform="matrix(14,0,0,14,345,504.2)" />
<use xlink:href="#f6_d8" transform="matrix(14,0,0,14,353.4,504.2)" />
<use xlink:href="#f6_8l" transform="matrix(14,0,0,14,359,504.2)" />
<use xlink:href="#f6_bk" transform="matrix(14,0,0,14,23.2,562.6)" />
<use xlink:href="#f6_cw" transform="matrix(14,0,0,14,34.5,562.5)" />
<use xlink:href="#f6_b9" transform="matrix(14,0,0,14,34.8,562.6)" />
<use xlink:href="#f6_ch" transform="matrix(14,0,0,14,50.3,562.6)" />
<use xlink:href="#f6_d8" transform="matrix(14,0,0,14,63,562.6)" />
<use xlink:href="#f6_dj" transform="matrix(14,0,0,14,67.3,563.5)" />
<use xlink:href="#f6_bz" transform="matrix(14,0,0,14,74.2,562.6)" />
<use xlink:href="#f6_oz" transform="matrix(14,0,0,14,87.7,562.6)" />
<use xlink:href="#f6_bs" transform="matrix(14,0,0,14,93.3,562.6)" />
<use xlink:href="#f6_bz" transform="matrix(14,0,0,14,107.3,562.6)" />
<use xlink:href="#f6_dr" transform="matrix(14,0,0,14,121,562.6)" />
<use xlink:href="#f6_bx" transform="matrix(14,0,0,14,126.3,562.6)" />
<use xlink:href="#f6_ct" transform="matrix(14,0,0,14,138.5,562.6)" />
<use xlink:href="#f6_bk" transform="matrix(14,0,0,14,144.2,562.6)" />
<use xlink:href="#f6_nu" transform="matrix(14,0,0,14,161.4,562.6)" />
<use xlink:href="#f6_c3" transform="matrix(14,0,0,14,167,562.6)" />
<use xlink:href="#f6_c0" transform="matrix(14,0,0,14,181.7,562.6)" />
<use xlink:href="#f6_d8" transform="matrix(14,0,0,14,194.3,562.6)" />
<use xlink:href="#f6_cr" transform="matrix(14,0,0,14,199.9,562.6)" />
<use xlink:href="#f6_cr" transform="matrix(14,0,0,14,212.7,562.6)" />
<use xlink:href="#f6_cr" transform="matrix(14,0,0,14,225.6,562.6)" />
<use xlink:href="#f6_g" transform="matrix(14,0,0,14,238.4,562.6)" />
<use xlink:href="#f6_q" transform="matrix(14,0,0,14,244.3,562.6)" />
<use xlink:href="#f6_h" transform="matrix(14,0,0,14,255.9,562.6)" />
<use xlink:href="#f6_k" transform="matrix(14,0,0,14,261.8,562.6)" />
<use xlink:href="#f6_bx" transform="matrix(14,0,0,14,272.6,562.6)" />
<use xlink:href="#f6_bk" transform="matrix(14,0,0,14,284.9,562.6)" />
<use xlink:href="#f6_c7" transform="matrix(14,0,0,14,296.5,562.6)" />
<use xlink:href="#f6_ct" transform="matrix(14,0,0,14,308.6,562.6)" />
<use xlink:href="#f6_c1" transform="matrix(14,0,0,14,314.2,562.6)" />
<use xlink:href="#f6_d8" transform="matrix(14,0,0,14,322.6,562.6)" />
<use xlink:href="#f6_b9" transform="matrix(14,0,0,14,333.9,562.6)" />
<use xlink:href="#f6_c1" transform="matrix(14,0,0,14,349.4,562.6)" />
<use xlink:href="#f6_cu" transform="matrix(14,0,0,14,363.4,562.6)" />
<use xlink:href="#f6_br" transform="matrix(14,0,0,14,369,562.6)" />
<use xlink:href="#f6_c0" transform="matrix(14,0,0,14,380.7,562.6)" />
<use xlink:href="#f6_d8" transform="matrix(14,0,0,14,393.3,562.6)" />
<use xlink:href="#f6_an" transform="matrix(14,0,0,14,404.5,562.6)" />
<use xlink:href="#f6_dj" transform="matrix(14,0,0,14,412.8,563)" />
<use xlink:href="#f6_cb" transform="matrix(14,0,0,14,416,562.6)" />
<use xlink:href="#f6_ct" transform="matrix(14,0,0,14,430.9,562.6)" />
<use xlink:href="#f6_bt" transform="matrix(14,0,0,14,436.5,562.6)" />
<use xlink:href="#f6_d4" transform="matrix(14,0,0,14,448.4,562.6)" />
<use xlink:href="#f6_cr" transform="matrix(14,0,0,14,448.3,562.6)" />
<use xlink:href="#f6_cr" transform="matrix(14,0,0,14,461.1,562.6)" />
<use xlink:href="#f6_cr" transform="matrix(14,0,0,14,473.9,562.6)" />
<use xlink:href="#f6_k" transform="matrix(14,0,0,14,486.7,562.6)" />
<use xlink:href="#f6_bg" transform="matrix(14,0,0,14,497.6,562.6)" />
<use xlink:href="#f6_cv" transform="matrix(14,0,0,14,511.9,562.6)" />
<use xlink:href="#f6_c0" transform="matrix(14,0,0,14,517.5,562.6)" />
<use xlink:href="#f6_d8" transform="matrix(14,0,0,14,530,562.6)" />
<use xlink:href="#f6_pd" transform="matrix(14,0,0,14,535.7,562.6)" />
<use xlink:href="#f6_nu" transform="matrix(14,0,0,14,543.2,562.6)" />
<use xlink:href="#f6_bg" transform="matrix(14,0,0,14,548.8,562.6)" />
<use xlink:href="#f6_bt" transform="matrix(14,0,0,14,563.1,562.6)" />
<use xlink:href="#f6_d4" transform="matrix(14,0,0,14,574.9,562.6)" />
<use xlink:href="#f6_br" transform="matrix(14,0,0,14,580.5,562.6)" />
<use xlink:href="#f6_d8" transform="matrix(14,0,0,14,592.1,562.6)" />
<use xlink:href="#f6_by" transform="matrix(14,0,0,14,142.4,587.8)" />
<use xlink:href="#f6_cw" transform="matrix(14,0,0,14,156.9,587.7)" />
<use xlink:href="#f6_c3" transform="matrix(14,0,0,14,156.3,587.8)" />
<use xlink:href="#f6_bb" transform="matrix(14,0,0,14,176.7,587.8)" />
<use xlink:href="#f6_c0" transform="matrix(14,0,0,14,189.3,587.8)" />
<use xlink:href="#f6_ct" transform="matrix(14,0,0,14,201.9,587.8)" />
<use xlink:href="#f6_cr" transform="matrix(14,0,0,14,207.5,587.8)" />
<use xlink:href="#f6_cr" transform="matrix(14,0,0,14,220.3,587.8)" />
<use xlink:href="#f6_cr" transform="matrix(14,0,0,14,233.2,587.8)" />
<use xlink:href="#f6_g" transform="matrix(14,0,0,14,246,587.8)" />
<use xlink:href="#f6_q" transform="matrix(14,0,0,14,251.9,587.8)" />
<use xlink:href="#f6_h" transform="matrix(14,0,0,14,263.5,587.8)" />
<use xlink:href="#f6_b8" transform="matrix(14,0,0,14,275,587.8)" />
<use xlink:href="#f6_c1" transform="matrix(14,0,0,14,296.5,587.8)" />
<use xlink:href="#f6_al" transform="matrix(14,0,0,14,310.6,587.8)" />
<use xlink:href="#f6_bv" transform="matrix(14,0,0,14,326.4,587.8)" />
<use xlink:href="#f6_bt" transform="matrix(14,0,0,14,338.3,587.8)" />
<use xlink:href="#f6_ct" transform="matrix(14,0,0,14,350,587.8)" />
<use xlink:href="#f6_c7" transform="matrix(14,0,0,14,355.6,587.8)" />
<use xlink:href="#f6_d4" transform="matrix(14,0,0,14,367.8,587.8)" />
<use xlink:href="#f6_cc" transform="matrix(14,0,0,14,373.4,587.8)" />
<use xlink:href="#f6_d5" transform="matrix(14,0,0,14,385.3,587.8)" />
<use xlink:href="#f6_cu" transform="matrix(14,0,0,14,390.6,587.8)" />
<use xlink:href="#f6_ol" transform="matrix(14,0,0,14,404.7,587.5)" />
<use xlink:href="#f6_cc" transform="matrix(14,0,0,14,396.3,587.8)" />
<use xlink:href="#f6_cb" transform="matrix(14,0,0,14,407.9,587.8)" />
<use xlink:href="#f6_ct" transform="matrix(14,0,0,14,422.7,587.8)" />
<use xlink:href="#f6_bt" transform="matrix(14,0,0,14,428.4,587.8)" />
<use xlink:href="#f6_d4" transform="matrix(14,0,0,14,440.2,587.8)" />
<use xlink:href="#f6_cr" transform="matrix(14,0,0,14,440.1,587.8)" />
<use xlink:href="#f6_cr" transform="matrix(14,0,0,14,452.9,587.8)" />
<use xlink:href="#f6_cr" transform="matrix(14,0,0,14,465.7,587.8)" />
<use xlink:href="#f6_al" transform="matrix(14,0,0,14,19.8,621)" />
<use xlink:href="#f6_bx" transform="matrix(14,0,0,14,35.6,621)" />
<use xlink:href="#f6_bv" transform="matrix(14,0,0,14,53.6,621)" />
<use xlink:href="#f6_ct" transform="matrix(14,0,0,14,65.5,621)" />
<use xlink:href="#f6_bv" transform="matrix(14,0,0,14,71.1,621)" />
<use xlink:href="#f6_c1" transform="matrix(14,0,0,14,88.6,621)" />
<use xlink:href="#f6_ct" transform="matrix(14,0,0,14,97,621)" />
<use xlink:href="#f6_nu" transform="matrix(14,0,0,14,108.3,621)" />
<use xlink:href="#f6_cb" transform="matrix(14,0,0,14,113.9,621)" />
<use xlink:href="#f6_l1" transform="matrix(14,0,0,14,128.8,621)" />
<use xlink:href="#f6_b9" transform="matrix(14,0,0,14,141.3,621)" />
<use xlink:href="#f6_ct" transform="matrix(14,0,0,14,156.8,621)" />
<use xlink:href="#f6_be" transform="matrix(14,0,0,14,168.1,621)" />
<use xlink:href="#f6_ct" transform="matrix(14,0,0,14,182.1,621)" />
<use xlink:href="#f6_c3" transform="matrix(14,0,0,14,187.7,621)" />
<use xlink:href="#f6_nr" transform="matrix(14,0,0,14,202.4,621)" />
<use xlink:href="#f6_c1" transform="matrix(14,0,0,14,208,621)" />
<use xlink:href="#f6_c0" transform="matrix(14,0,0,14,216.4,621)" />
<use xlink:href="#f6_ct" transform="matrix(14,0,0,14,228.9,621)" />
<use xlink:href="#f6_g" transform="matrix(14,0,0,14,240.2,621)" />
<use xlink:href="#f6_q" transform="matrix(14,0,0,14,246.1,621)" />
<use xlink:href="#f6_h" transform="matrix(14,0,0,14,257.8,621)" />
<use xlink:href="#f6_b8" transform="matrix(14,0,0,14,269.3,621)" />
<use xlink:href="#f6_c1" transform="matrix(14,0,0,14,290.8,621)" />
<use xlink:href="#f6_cb" transform="matrix(14,0,0,14,304.8,621)" />
<use xlink:href="#f6_iw" transform="matrix(14,0,0,14,319.7,621)" />
<use xlink:href="#f6_bt" transform="matrix(14,0,0,14,339.3,621)" />
<use xlink:href="#f6_ba" transform="matrix(14,0,0,14,356.7,621)" />
<use xlink:href="#f6_ct" transform="matrix(14,0,0,14,373.4,621)" />
<use xlink:href="#f6_c3" transform="matrix(14,0,0,14,379.1,621)" />
<use xlink:href="#f6_cv" transform="matrix(14,0,0,14,393.8,621)" />
<use xlink:href="#f6_cc" transform="matrix(14,0,0,14,405.1,621)" />
<use xlink:href="#f6_ct" transform="matrix(14,0,0,14,416.7,621)" />
<use xlink:href="#f6_no" transform="matrix(14,0,0,14,422.3,621)" />
<use xlink:href="#f6_bq" transform="matrix(14,0,0,14,422.3,621)" />
<use xlink:href="#f6_bz" transform="matrix(14,0,0,14,435.5,621)" />
<use xlink:href="#f6_c5" transform="matrix(14,0,0,14,448.8,621)" />
<use xlink:href="#f6_d4" transform="matrix(14,0,0,14,462.8,621)" />
<use xlink:href="#f6_cr" transform="matrix(14,0,0,14,464.2,621)" />
<use xlink:href="#f6_cr" transform="matrix(14,0,0,14,477,621)" />
<use xlink:href="#f6_cr" transform="matrix(14,0,0,14,489.8,621)" />
<use xlink:href="#f6_k" transform="matrix(14,0,0,14,502.6,621)" />
<use xlink:href="#f6_al" transform="matrix(14,0,0,14,513.5,621)" />
<use xlink:href="#f6_bl" transform="matrix(14,0,0,14,529.4,621)" />
<use xlink:href="#f6_d4" transform="matrix(14,0,0,14,540.4,621)" />
<use xlink:href="#f6_bh" transform="matrix(14,0,0,14,547.4,621)" />
<use xlink:href="#f6_of" transform="matrix(14,0,0,14,564.2,620.9)" />
<use xlink:href="#f6_bl" transform="matrix(14,0,0,14,564.2,621)" />
<use xlink:href="#f6_bp" transform="matrix(14,0,0,14,582.2,621)" />
<use xlink:href="#f6_d8" transform="matrix(14,0,0,14,594.5,621)" />
<use xlink:href="#f6_bv" transform="matrix(14,0,0,14,150.4,646.3)" />
<use xlink:href="#f6_bb" transform="matrix(14,0,0,14,162.3,646.3)" />
<use xlink:href="#f6_pd" transform="matrix(14,0,0,14,174.9,646.3)" />
<use xlink:href="#f6_bv" transform="matrix(14,0,0,14,182.4,646.3)" />
<use xlink:href="#f6_bb" transform="matrix(14,0,0,14,194.3,646.3)" />
<use xlink:href="#f6_bv" transform="matrix(14,0,0,14,212.6,646.3)" />
<use xlink:href="#f6_c1" transform="matrix(14,0,0,14,224.4,646.3)" />
<use xlink:href="#f6_be" transform="matrix(14,0,0,14,238.5,646.3)" />
<use xlink:href="#f6_ct" transform="matrix(14,0,0,14,252.5,646.3)" />
<use xlink:href="#f6_c3" transform="matrix(14,0,0,14,258.1,646.3)" />
<use xlink:href="#f6_d4" transform="matrix(14,0,0,14,272.9,646.3)" />
<use xlink:href="#f6_b8" transform="matrix(14,0,0,14,278.5,646.3)" />
<use xlink:href="#f6_c1" transform="matrix(14,0,0,14,299.9,646.3)" />
<use xlink:href="#f6_cb" transform="matrix(14,0,0,14,314,646.3)" />
<use xlink:href="#f6_l6" transform="matrix(14,0,0,14,328.9,646.3)" />
<use xlink:href="#f6_be" transform="matrix(14,0,0,14,336.8,646.3)" />
<use xlink:href="#f6_ct" transform="matrix(14,0,0,14,350.8,646.3)" />
<use xlink:href="#f6_ao" transform="matrix(14,0,0,14,356.4,646.3)" />
<use xlink:href="#f6_cb" transform="matrix(14,0,0,14,373.6,646.3)" />
<use xlink:href="#f6_c1" transform="matrix(14,0,0,14,388.5,646.3)" />
<use xlink:href="#f6_d4" transform="matrix(14,0,0,14,396.5,646.3)" />
<use xlink:href="#f6_am" transform="matrix(14,0,0,14,402.5,646.3)" />
<use xlink:href="#f6_bz" transform="matrix(14,0,0,14,424,646.3)" />
<use xlink:href="#f6_bz" transform="matrix(14,0,0,14,443,646.3)" />
<use xlink:href="#f6_c1" transform="matrix(14,0,0,14,456.4,646.3)" />
<use xlink:href="#f6_d4" transform="matrix(14,0,0,14,464.3,646.3)" />
<use xlink:href="#f6_k" transform="matrix(14,0,0,14,464.7,646.3)" />
<use xlink:href="#f6_b1" transform="matrix(14,0,0,14,70.2,679.5)" />
<use xlink:href="#f6_cb" transform="matrix(14,0,0,14,97.3,679.5)" />
<use xlink:href="#f6_ct" transform="matrix(14,0,0,14,112.2,679.5)" />
<use xlink:href="#f6_be" transform="matrix(14,0,0,14,117.8,679.5)" />
<use xlink:href="#f6_cv" transform="matrix(14,0,0,14,131.8,679.5)" />
<use xlink:href="#f6_e6" transform="matrix(14,0,0,14,143.1,679.5)" />
<use xlink:href="#f6_cv" transform="matrix(14,0,0,14,155.2,679.5)" />
<use xlink:href="#f6_bp" transform="matrix(14,0,0,14,160.8,679.5)" />
<use xlink:href="#f6_cu" transform="matrix(14,0,0,14,178.8,679.5)" />
<use xlink:href="#f6_bt" transform="matrix(14,0,0,14,184.4,679.5)" />
<use xlink:href="#f6_by" transform="matrix(14,0,0,14,196.1,679.5)" />
<use xlink:href="#f6_ct" transform="matrix(14,0,0,14,210.1,679.5)" />
<use xlink:href="#f6_c7" transform="matrix(14,0,0,14,215.7,679.5)" />
<use xlink:href="#f6_bt" transform="matrix(14,0,0,14,227.8,679.5)" />
<use xlink:href="#f6_cv" transform="matrix(14,0,0,14,239.5,679.5)" />
<use xlink:href="#f6_c0" transform="matrix(14,0,0,14,245.1,679.5)" />
<use xlink:href="#f6_d8" transform="matrix(14,0,0,14,257.7,679.5)" />
<use xlink:href="#f6_b1" transform="matrix(14,0,0,14,269,679.5)" />
<use xlink:href="#f6_pc" transform="matrix(14,0,0,14,290.4,679.5)" />
<use xlink:href="#f6_b1" transform="matrix(14,0,0,14,294.7,679.5)" />
<use xlink:href="#f6_pc" transform="matrix(14,0,0,14,316.2,679.5)" />
<use xlink:href="#f6_g" transform="matrix(14,0,0,14,320.5,679.5)" />
<use xlink:href="#f6_q" transform="matrix(14,0,0,14,326.4,679.5)" />
<use xlink:href="#f6_h" transform="matrix(14,0,0,14,338,679.5)" />
<use xlink:href="#f6_c7" transform="matrix(14,0,0,14,349.5,679.5)" />
<use xlink:href="#f6_d8" transform="matrix(14,0,0,14,361.6,679.5)" />
<use xlink:href="#f6_c8" transform="matrix(14,0,0,14,372.9,679.5)" />
<use xlink:href="#f6_ct" transform="matrix(14,0,0,14,388.8,679.5)" />
<use xlink:href="#f6_dj" transform="matrix(14,0,0,14,389,679.9)" />
<use xlink:href="#f6_bp" transform="matrix(14,0,0,14,394.4,679.5)" />
<use xlink:href="#f6_cb" transform="matrix(14,0,0,14,412.4,679.5)" />
<use xlink:href="#f6_c1" transform="matrix(14,0,0,14,427.2,679.5)" />
<use xlink:href="#f6_c3" transform="matrix(14,0,0,14,435.6,679.5)" />
<use xlink:href="#f6_bx" transform="matrix(14,0,0,14,456,679.5)" />
<use xlink:href="#f6_c3" transform="matrix(14,0,0,14,468.3,679.5)" />
<use xlink:href="#f6_c7" transform="matrix(14,0,0,14,483,679.5)" />
<use xlink:href="#f6_ct" transform="matrix(14,0,0,14,495.1,679.5)" />
<use xlink:href="#f6_bt" transform="matrix(14,0,0,14,500.7,679.5)" />
<use xlink:href="#f6_b9" transform="matrix(14,0,0,14,518.1,679.5)" />
<use xlink:href="#f6_bl" transform="matrix(14,0,0,14,533.6,679.5)" />
<use xlink:href="#f6_d4" transform="matrix(14,0,0,14,544.6,679.5)" />
<use xlink:href="#f6_k" transform="matrix(14,0,0,14,545.9,679.5)" />
<use xlink:href="#f6_cu" transform="matrix(14,0,0,14,243.2,712.7)" />
<use xlink:href="#f6_e1" transform="matrix(14,0,0,14,248.8,712.7)" />
<use xlink:href="#f6_c8" transform="matrix(14,0,0,14,260.9,712.7)" />
<use xlink:href="#f6_c3" transform="matrix(14,0,0,14,276.8,712.7)" />
<use xlink:href="#f6_ct" transform="matrix(14,0,0,14,291.5,712.7)" />
<use xlink:href="#f6_bz" transform="matrix(14,0,0,14,302.8,712.7)" />
<use xlink:href="#f6_ct" transform="matrix(14,0,0,14,316.1,712.7)" />
<use xlink:href="#f6_di" transform="matrix(14,0,0,14,319.6,713.1)" />
<use xlink:href="#f6_bq" transform="matrix(14,0,0,14,327.4,712.7)" />
<use xlink:href="#f6_ct" transform="matrix(14,0,0,14,340.6,712.7)" />
<use xlink:href="#f6_c1" transform="matrix(14,0,0,14,346.2,712.7)" />
<use xlink:href="#f6_d8" transform="matrix(14,0,0,14,354.6,712.7)" />
<use xlink:href="#f6_pc" transform="matrix(14,0,0,14,360.2,712.7)" />
<use xlink:href="#f6_pc" transform="matrix(14,0,0,14,364.5,712.7)" />
<use xlink:href="#f6_pc" transform="matrix(14,0,0,14,368.7,712.7)" />
<use xlink:href="#f6_pc" transform="matrix(14,0,0,14,373,712.7)" />
<use xlink:href="#f7_4r" transform="matrix(9,0,0,9,286.8,795.2)" />
<use xlink:href="#f8_l" transform="matrix(9,0,0,9,299.6,795.2)" />
<use xlink:href="#f8_k" transform="matrix(9,0,0,9,307.2,795.2)" />
<use xlink:href="#f8_o" transform="matrix(9,0,0,9,314.9,795.2)" />
<use xlink:href="#f7_4r" transform="matrix(9,0,0,9,325.6,795.2)" />
</g>
</g>
<image preserveAspectRatio="none" x="22" y="801" width="581" height="86" xlink:href="img/1.png"/>
<path d="M213.1,97.4h196v1.1h-196V97.4Z" class="g1_110"/>
<image preserveAspectRatio="none" x="202" y="14" width="217" height="26" xlink:href="img/2.png"/>
<defs>
<path d="M371,296c0,0,71,0,139,34c0,0,69,34,109,92v90c0,0,-72,36,-148,36c0,0,-84,0,-131,-47c0,0,-47,-47,-47,-111c0,0,0,-49,28,-89l50,-5ZM793,-65L619,29V134c0,0,-55,-27,-122,-27c0,0,-98,0,-207,48c0,0,-108,48,-182,132c0,0,-73,84,-73,188c0,0,0,113,83,191c0,0,84,78,212,78c0,0,41,0,84,-9L619,643V822H0L-86,937l32,64H978l85,-115l-32,-64H761L863,749V-31L793,-65Z"
id="f5_c7"
transform="scale(0.001,-0.001)"/>

<path d="M277,-65L102,29V822H0L-86,937l32,64H86L18,1111c0,0,-67,122,-168,122c0,0,-81,0,-202,-80l-128,250c0,0,122,77,232,77c0,0,196,0,356,-250L252,1001H463L548,886L516,822H244L347,749V-31L277,-65Z"
id="f5_d8"
transform="scale(0.001,-0.001)"/>

<path d="M0,822L-86,937l32,64H9L95,886L63,822Z"
id="f5_nl"
transform="scale(0.001,-0.001)"/>

<path d="M895,-65L721,29V134c0,0,-66,-32,-148,-32c0,0,-156,0,-289,105c0,0,-133,105,-133,231c0,0,0,72,48,136C199,574,28,695,28,836c0,0,0,88,65,149c0,0,66,60,167,60c0,0,99,0,172,-61c0,0,72,-61,139,-180L477,729c0,0,-55,87,-92,119l-26,3c0,0,-43,0,-73,-28c0,0,-29,-29,-29,-73c0,0,0,-50,41,-95c0,0,67,33,150,33c0,0,45,0,93,-10L642,519L610,457l-51,3c0,0,-82,0,-130,-35c0,0,-49,-35,-49,-83c0,0,0,-26,16,-47c0,0,18,-6,46,-6c0,0,77,0,161,46c0,0,83,47,118,119V822H678L593,937l32,64h455l87,-115l-32,-64H863L966,749V-31L895,-65Z"
id="f5_bs"
transform="scale(0.001,-0.001)"/>

<path d="M-268,901c0,0,-241,181,-241,358c0,0,0,99,72,166c0,0,71,68,177,68c0,0,69,0,132,-29c0,0,63,-28,102,-72L-60,1276c0,0,-52,26,-106,26c0,0,-62,0,-106,-35c0,0,-43,-36,-43,-101c0,0,0,-57,34,-110c0,0,35,-54,103,-121l-90,-34Z"
id="f5_dr"
transform="scale(0.001,-0.001)"/>

<path d="M686,512V822H333L435,749l2,-237ZM860,-65L686,29V298H440V168L348,118c0,0,-90,30,-190,128c0,0,-100,98,-127,183l52,83H203L189,822H0L-86,937l32,64H1045l86,-115l-33,-64H828L930,749V-31L860,-65Z"
id="f5_bz"
transform="scale(0.001,-0.001)"/>

<path d="M277,-65L102,29V822H0L-86,937l32,64H463L548,886L516,822H244L347,749V-31L277,-65Z"
id="f5_ct"
transform="scale(0.001,-0.001)"/>

<path d="M746,-65L571,29V419H376V260L275,212c0,0,-87,48,-160,148c0,0,-72,100,-91,193l57,84H571V822H0L-86,937l32,64H930l88,-115L985,822H713L816,749V-31L746,-65Z"
id="f5_bt"
transform="scale(0.001,-0.001)"/>

<path d="M756,-314c0,0,-304,57,-481,187C275,-127,98,2,98,170c0,0,0,117,82,197c0,0,-110,91,-110,195c0,0,0,74,64,127c0,0,63,54,188,54H567v79H0L-86,937l32,64H906L992,886L959,822H684L787,749V535H383c0,0,-110,0,-110,-67c0,0,0,-19,10,-36c0,0,78,32,174,32c0,0,162,0,277,-87c0,0,115,-87,115,-214c0,0,0,-143,-142,-228L518,76c0,0,125,94,145,173c0,0,-55,26,-113,26c0,0,-84,0,-144,-45c0,0,-59,-45,-59,-118c0,0,0,-107,121,-166c0,0,120,-60,336,-105L756,-314Z"
id="f5_cc"
transform="scale(0.001,-0.001)"/>

<path d="M277,-65L102,29V822H0L-86,937l32,64H110c0,0,-50,142,-110,226c0,0,-60,84,-149,84c0,0,-59,0,-97,-37c0,0,-39,-36,-39,-91c0,0,0,-57,42,-115l-95,-50c0,0,-145,116,-145,267c0,0,0,108,75,179c0,0,76,70,195,70c0,0,179,0,297,-150c0,0,119,-150,189,-383H463L548,886L516,822H244L347,749V-31L277,-65Z"
id="f5_cv"
transform="scale(0.001,-0.001)"/>

<path d="M545,-97L35,405L87,542H295c0,0,1,5,1,280H0L-86,937l32,64H729L814,886L782,822H445L550,749V547c0,0,0,-75,-41,-127c0,0,-41,-52,-129,-111L709,110V41L545,-97Z"
id="f5_c1"
transform="scale(0.001,-0.001)"/>

<path d="M300,310c13,0,56,2,103,25c0,0,58,27,100,81V523c0,0,-46,16,-83,16c0,0,-69,0,-111,-45c0,0,-42,-45,-42,-104c0,0,0,-45,28,-80c0,0,2,0,5,0ZM677,-65L503,29V144c0,0,-32,-11,-75,-11c0,0,-147,0,-272,98c0,0,-125,99,-125,233c0,0,0,110,75,185c0,0,76,74,195,74l67,-6L503,646V822H0L-86,937l32,64H1245l86,-115l-32,-64H645L747,749V622c0,0,81,58,165,58c0,0,122,0,213,-99c0,0,91,-98,91,-230c0,0,0,-204,-253,-371L791,157c0,0,110,83,164,139c0,0,53,55,53,106c0,0,0,55,-53,55c0,0,-83,0,-208,-145V-31L677,-65Z"
id="f5_b9"
transform="scale(0.001,-0.001)"/>

<path d="M483,134c0,0,98,0,155,49c0,0,57,49,57,118c0,0,0,61,-49,122H469c0,0,-90,0,-137,-40c0,0,-48,-41,-48,-102c0,0,0,-55,44,-107c0,0,71,-40,155,-40ZM579,-68c0,0,-205,0,-365,131C214,63,53,196,53,364c0,0,0,128,97,206c0,0,96,78,258,79h73V822H0L-86,937l32,64H976l87,-115l-32,-64H616L718,749V553c0,0,93,-63,148,-153c0,0,55,-90,55,-185c0,0,0,-126,-95,-205c0,0,-96,-78,-247,-78Z"
id="f5_bl"
transform="scale(0.001,-0.001)"/>

<path d="M-289,908l-132,216c0,0,-70,120,-169,120c0,0,-83,0,-200,-80l-130,249c0,0,125,78,234,78c0,0,187,0,349,-241L-159,969L-289,908Z"
id="f5_d4"
transform="scale(0.001,-0.001)"/>

<path d="M290,-236c0,0,-253,348,-253,685c0,0,0,342,270,669l80,-39c0,0,-207,-311,-207,-622c0,0,0,-326,193,-652l-83,-41Z"
id="f6_g"
transform="scale(0.001,-0.001)"/>

<path d="M347,-57C347,-57,66,211,66,394c0,0,0,98,74,164c0,0,74,65,225,65H616V822H0l-45,76l14,31H880l46,-76L912,822H677l66,-58V-39L706,-49L616,8V500H428c0,0,-239,0,-239,-161c0,0,0,-136,214,-343L347,-57Z"
id="f6_bp"
transform="scale(0.001,-0.001)"/>

<path d="M845,-49L755,8V513H497c0,0,61,-45,93,-110c0,0,33,-64,33,-128c0,0,0,-90,-58,-144c0,0,-59,-53,-143,-53c0,0,-133,0,-234,139C188,217,87,356,20,596l76,24c0,0,60,-201,127,-306c0,0,67,-105,160,-105c0,0,57,0,91,36c0,0,33,36,33,91c0,0,0,84,-73,159L295,558v71H755V822H0l-45,76l14,31H1019l46,-76l-14,-31H816l66,-58V-39L845,-49Z"
id="f6_bg"
transform="scale(0.001,-0.001)"/>

<path d="M-239,897c0,0,-82,61,-132,137c0,0,-50,75,-50,150c0,0,0,78,52,133c0,0,52,55,141,55c0,0,98,0,176,-64l-23,-69c0,0,-52,32,-104,32c0,0,-57,0,-95,-36c0,0,-38,-36,-38,-95c0,0,0,-115,117,-217l-44,-26Z"
id="f6_dr"
transform="scale(0.001,-0.001)"/>

<path d="M254,-30c0,0,-84,17,-116,93c0,0,13,84,97,126c0,0,100,-35,112,-110C347,79,324,3,254,-30Zm0,468c0,0,-84,17,-116,94c0,0,13,84,97,126c0,0,100,-35,112,-110c0,0,-23,-76,-93,-110Z"
id="f6_y"
transform="scale(0.001,-0.001)"/>

<path d="M689,445V822H286l65,-58l8,-319ZM779,-49L689,8V328H370V180L296,150c0,0,-56,35,-120,104c0,0,-63,70,-89,131l41,60H238L223,822H0l-45,76l14,31H953l46,-76L985,822H750l66,-58V-39L779,-49Z"
id="f6_bz"
transform="scale(0.001,-0.001)"/>

<path d="M688,-243c0,0,-256,53,-408,173c0,0,-152,119,-152,270c0,0,0,101,68,171c0,0,-101,84,-101,179c0,0,0,64,53,112c0,0,54,47,191,47H587V822H0l-45,76l14,31H830l45,-76L862,822H640l66,-58V585H362c0,0,-159,-1,-159,-92c0,0,0,-41,46,-80c0,0,76,47,183,47c0,0,135,0,230,-76c0,0,96,-75,96,-187C758,197,758,67,629,2L545,104c0,0,49,30,81,75c0,0,32,44,32,82c0,0,0,16,-4,26c0,0,-64,58,-167,58c0,0,-97,0,-166,-50v-2c0,0,-67,-52,-67,-131c0,0,0,-116,132,-199c0,0,132,-84,334,-132l-32,-74Z"
id="f6_cc"
transform="scale(0.001,-0.001)"/>

<path d="M228,-49L138,8V822H0l-45,76l14,31H402l46,-76L434,822H199l65,-58V-39L228,-49Z"
id="f6_ct"
transform="scale(0.001,-0.001)"/>

<path d="M527,-71L52,414l34,92H277c0,0,12,32,12,72V822H0l-45,76l14,31H599l46,-76L631,822H350l66,-55V564c0,0,0,-96,-152,-248L610,34L611,8L527,-71Z"
id="f6_c1"
transform="scale(0.001,-0.001)"/>

<path d="M342,324c0,0,45,0,75,34c0,0,31,33,31,100V822H165l66,-58V390c0,0,32,-66,111,-66ZM853,-49L762,8V822H509l65,-58V455c0,0,0,-134,-51,-185c0,0,-52,-52,-127,-52c0,0,-98,0,-195,99c0,0,-97,99,-97,209V822H0l-45,76l14,31H1027l46,-76l-14,-31H823l66,-58V-39L853,-49Z"
id="f6_bo"
transform="scale(0.001,-0.001)"/>

<path d="M396,318c0,0,123,0,203,108V822H180l66,-58V408c0,0,49,-90,150,-90ZM176,-66L79,9L379,228c0,0,-106,23,-181,119c0,0,-76,96,-79,198V822H0l-45,76l14,31H863l46,-76L895,822H660l66,-58V-39L689,-49L599,8V269L176,-66Z"
id="f6_e6"
transform="scale(0.001,-0.001)"/>

<path d="M388,325c0,0,58,0,112,31c0,0,53,31,84,86V822H165l69,-58V408c0,0,47,-83,154,-83ZM674,-49L584,8V257c0,0,-61,-51,-141,-51c0,0,-125,0,-232,109c0,0,-107,108,-107,243V822H0l-45,76l14,31H848l46,-76L880,822H645l65,-58V-39L674,-49Z"
id="f6_bv"
transform="scale(0.001,-0.001)"/>

<path d="M226,-49c0,0,-66,24,-102,78c0,0,32,69,82,101c0,0,55,-20,100,-80c0,0,-26,-66,-80,-99Z"
id="f6_pc"
transform="scale(0.001,-0.001)"/>

<path d="M130,-236l-83,41c0,0,193,326,193,652c0,0,0,311,-206,622l79,39c0,0,270,-327,270,-669c0,0,0,-337,-253,-685Z"
id="f6_h"
transform="scale(0.001,-0.001)"/>

<path d="M228,-49L138,8V822H0l-45,76l14,31H134c0,0,-91,92,-91,191c0,0,0,105,85,170c0,0,84,65,219,65c0,0,128,0,293,-76c0,0,165,-77,362,-263L958,966c0,0,-177,143,-303,210c0,0,-125,68,-244,68c0,0,-107,0,-175,-50c0,0,-68,-50,-68,-131c0,0,0,-61,49,-134H402l46,-76L434,822H199l65,-58V-39L228,-49Z"
id="f6_cu"
transform="scale(0.001,-0.001)"/>

<path d="M688,-49L597,8V335L248,81l-92,81L532,425l-81,76c0,0,-80,70,-133,70c0,0,-81,0,-194,-96L38,584c0,0,109,105,223,105c0,0,103,0,213,-107L597,457V822H0l-45,76l14,31H862l46,-76L894,822H658l66,-58V-39L688,-49Z"
id="f6_e1"
transform="scale(0.001,-0.001)"/>

<path d="M513,460c0,0,61,81,61,179c0,0,0,87,-45,143c0,0,-45,57,-116,57c0,0,-63,0,-102,-43c0,0,-39,-43,-39,-110c0,0,0,-90,68,-151c0,0,68,-61,173,-75ZM581,-83L278,167l-41,-4c0,0,-99,0,-130,37l47,168l51,12l78,-79c0,0,110,40,183,105c0,0,-141,23,-231,107c0,0,-90,84,-90,193c0,0,0,69,37,116H0l-45,76l14,31H1134l45,-76l-13,-31H930l66,-58V-39L959,-49L869,8V822H588c0,0,51,-44,75,-109c0,0,25,-64,25,-122c0,0,0,-105,-81,-213c0,0,-80,-108,-240,-176L658,18l2,-25L581,-83Z"
id="f6_c8"
transform="scale(0.001,-0.001)"/>

<path d="M413,-59C413,-59,53,193,53,416c0,0,0,97,66,164c0,0,66,66,156,66c0,0,61,0,110,-30L487,507c0,0,92,126,257,126l35,-2V822H0l-45,76l14,31H1043l46,-76l-13,-31H840l66,-58V-39L869,-49L779,8V547c0,0,-101,-5,-165,-90c0,0,-64,-86,-70,-222L507,225l-90,73c0,0,5,79,35,151c0,0,-59,66,-128,66c0,0,-57,0,-100,-38c0,0,-44,-39,-44,-109c0,0,0,-165,284,-360L413,-59Z"
id="f6_c3"
transform="scale(0.001,-0.001)"/>

<path d="M0,1062c0,0,-26,11,-60,36c0,0,-34,26,-51,49c0,0,39,81,91,110c0,0,60,-23,106,-85c0,0,-28,-70,-86,-110Z"
id="f6_dj"
transform="scale(0.001,-0.001)"/>

<path d="M768,-49L678,8V202c0,0,-73,-58,-172,-58c0,0,-123,0,-240,94c0,0,-118,94,-179,237l20,55c0,0,134,12,215,70c0,0,81,57,81,141c0,0,0,90,-67,134l-26,3c0,0,-46,0,-74,-29c0,0,-28,-30,-28,-68c0,0,0,-55,82,-109L252,620C252,620,93,720,93,820c0,0,0,65,47,104c0,0,46,40,114,40c0,0,99,0,179,-83c0,0,80,-83,82,-197c0,0,0,-93,-79,-165c0,0,-78,-73,-199,-97c0,0,29,-104,88,-158c0,0,42,-16,92,-16c0,0,78,0,151,38c0,0,74,38,110,111V822H553l-46,76l14,31H943l45,-76L975,822H739l66,-58V-39L768,-49Z"
id="f6_bq"
transform="scale(0.001,-0.001)"/>

<path d="M228,-49L138,8V822H0l-45,76l14,31H119L-33,1144c0,0,-70,92,-157,92c0,0,-69,0,-159,-58l-72,118c0,0,89,73,181,73c0,0,140,0,257,-170L205,929H402l46,-76L434,822H199l65,-58V-39L228,-49Z"
id="f6_d8"
transform="scale(0.001,-0.001)"/>

<path d="M283,260c0,0,122,0,209,113V513c0,0,-90,51,-160,51c0,0,-80,0,-129,-50c0,0,-49,-50,-49,-118c0,0,0,-60,35,-110c0,0,45,-26,94,-26ZM582,-49L492,8V211c0,0,-63,-54,-141,-54c0,0,-113,0,-213,92c0,0,-100,92,-100,205c0,0,0,93,69,157c0,0,69,64,162,64c0,0,32,0,64,-9L492,590V822H0l-45,76l14,31H1108l45,-76l-13,-31H553l66,-58V524c0,0,91,89,192,89c0,0,98,0,171,-79c0,0,72,-79,72,-186c0,0,0,-178,-224,-330L736,124c0,0,219,153,219,269c0,0,0,44,-26,75c0,0,-26,32,-81,32c0,0,-109,0,-229,-155V-39L582,-49Z"
id="f6_b9"
transform="scale(0.001,-0.001)"/>

<path d="M449,79c0,0,103,0,168,61c0,0,66,60,66,149c0,0,0,93,-84,186H420c0,0,-107,0,-164,-50c0,0,-57,-51,-57,-126c0,0,0,-108,99,-184c0,0,81,-36,151,-36Zm67,-96c0,0,-168,0,-301,109C215,92,81,202,81,350c0,0,0,114,83,182c0,0,84,68,229,68H507V822H0l-45,76l14,31H883l46,-76L915,822H568l66,-58V532c0,0,87,-64,130,-144c0,0,43,-79,43,-157c0,0,0,-109,-81,-179c0,0,-81,-69,-210,-69Z"
id="f6_bl"
transform="scale(0.001,-0.001)"/>

<path d="M-214,863l-199,281c0,0,-70,92,-157,92c0,0,-69,0,-159,-58l-72,118c0,0,89,73,180,73c0,0,141,0,258,-170L-155,901l-59,-38Z"
id="f6_d4"
transform="scale(0.001,-0.001)"/>

<path d="M498,2C498,2,377,2,283,89c0,0,-94,88,-142,218l77,55c0,0,95,-250,253,-250c0,0,65,0,109,37c0,0,43,37,43,97c0,0,0,86,-116,151L312,500c0,0,-138,81,-138,189c0,0,0,70,57,118c0,0,56,47,186,47H657l47,-84L684,739H413c0,0,-133,-3,-133,-67c0,0,0,-41,42,-71c0,0,42,-30,131,-70c0,0,89,-41,147,-76c0,0,58,-35,97,-90c0,0,39,-55,39,-133c0,0,0,-105,-68,-168C668,64,600,2,498,2Z"
id="f6_cr"
transform="scale(0.001,-0.001)"/>

<path d="M95,0L67,98L422,497c0,0,130,154,130,259c0,0,0,63,-40,111c0,0,-40,48,-121,48c0,0,-75,0,-171,-29L193,695l-88,2c0,0,-13,82,-13,165l1,65c0,0,159,97,315,97c0,0,122,0,207,-78c0,0,85,-77,85,-193c0,0,0,-67,-34,-133c0,0,-33,-67,-165,-217L237,121l4,-14l373,21l49,136l83,-12C746,252,732,99,704,0Z"
id="f6_q"
transform="scale(0.001,-0.001)"/>

<path d="M108,-222l-44,58c0,0,96,81,104,164L89,61c0,0,12,83,93,122c0,0,50,-15,79,-55c0,0,29,-39,29,-90c0,0,0,-69,-48,-142c0,0,-48,-72,-134,-118Z"
id="f6_k"
transform="scale(0.001,-0.001)"/>

<path d="M374,248c0,0,77,0,149,36c0,0,71,37,110,107V822H284c0,0,138,-96,138,-208c0,0,0,-151,-228,-192c0,0,29,-104,89,-158c0,0,41,-16,91,-16ZM723,-49L633,8V200c0,0,-69,-56,-170,-56c0,0,-122,0,-240,94c0,0,-118,94,-179,237l20,55c0,0,133,17,187,44c0,0,55,28,55,84c0,0,0,45,-30,81c0,0,-30,36,-99,83H0l-45,76l14,31H897l46,-76L929,822H694l65,-58V-39L723,-49Z"
id="f6_c0"
transform="scale(0.001,-0.001)"/>

<path d="M548,-57c0,0,-122,0,-243,81c0,0,-122,81,-252,280l57,41C110,345,283,64,498,64c0,0,92,0,153,49c0,0,61,49,61,121c0,0,0,46,-28,84L440,237c0,0,-73,11,-139,55c0,0,-66,44,-105,105c0,0,-40,61,-40,119c0,0,0,72,62,125c0,0,62,53,184,53H625V822H0l-45,76l14,31H906l46,-76L938,822H678l66,-58V562H431c0,0,-164,0,-164,-99c0,0,0,-55,57,-102l261,82c0,0,104,-21,172,-98c0,0,68,-78,68,-171c0,0,0,-99,-76,-166c0,0,-77,-65,-201,-65Z"
id="f6_bm"
transform="scale(0.001,-0.001)"/>

<path d="M325,240c0,0,77,0,154,35c0,0,77,35,120,99V500c0,0,-118,73,-222,73c0,0,-97,0,-151,-54c0,0,-53,-53,-53,-128c0,0,0,-73,49,-125c0,0,38,-26,103,-26ZM689,-49L599,8V199c0,0,-73,-65,-179,-65c0,0,-134,0,-252,96c0,0,-118,95,-118,221c0,0,0,102,78,171c0,0,78,69,190,69c0,0,38,0,75,-10L599,582V822H0l-45,76l14,31H863l46,-76L895,822H660l66,-58V-39L689,-49Z"
id="f6_c7"
transform="scale(0.001,-0.001)"/>

<path d="M-214,860l-227,219c0,0,-73,70,-148,70c0,0,-67,0,-160,-58l-72,117c0,0,83,71,176,71c0,0,120,0,232,-124L-221,940l-102,294c0,0,-64,179,-189,179c0,0,-60,0,-133,-33l-60,125c0,0,84,47,164,47c0,0,200,0,281,-276L-150,901l-23,-15l-41,-26Z"
id="f6_d5"
transform="scale(0.001,-0.001)"/>

<path d="M663,-49L573,8V445H299V280L226,251c0,0,-105,99,-162,238l63,72H573V822H0l-45,76l14,31H837l46,-76L869,822H634l66,-58V-39L663,-49Z"
id="f6_bt"
transform="scale(0.001,-0.001)"/>

<path d="M827,-49L736,8V205c0,0,-84,-84,-209,-84c0,0,-130,0,-237,91c0,0,-108,92,-108,196c0,0,0,79,61,137C243,545,66,672,66,791c0,0,0,75,52,124c0,0,53,49,134,49c0,0,164,0,260,-237L451,694c0,0,-55,114,-119,163l-31,5c0,0,-44,0,-77,-32c0,0,-33,-31,-33,-78c0,0,0,-86,113,-165c0,0,60,27,133,27l67,-4l75,-89L564,490l-51,7H493c0,0,-90,0,-142,-43c0,0,-52,-43,-52,-104c0,0,0,-60,51,-109c0,0,33,-16,84,-16c0,0,89,0,177,47c0,0,89,47,125,137V822H567l-46,76l14,31h466l46,-76l-14,-31H798l65,-58V-39L827,-49Z"
id="f6_bs"
transform="scale(0.001,-0.001)"/>

<path d="M228,-49L138,8V822H0l-45,76l14,31H138c0,0,-109,342,-284,342c0,0,-62,0,-102,-40c0,0,-40,-39,-40,-93c0,0,0,-61,51,-134l-42,-32c0,0,-128,113,-128,226c0,0,0,79,60,136c0,0,61,56,154,56c0,0,137,0,249,-125c0,0,112,-125,169,-336H402l46,-76L434,822H199l65,-58V-39L228,-49Z"
id="f6_cv"
transform="scale(0.001,-0.001)"/>

<path d="M823,-49L733,8V339H445V191L371,160c0,0,-56,36,-120,105c0,0,-63,70,-89,131l41,59H313V735c0,0,0,99,-55,140c0,0,-3,1,-8,1c-16,0,-48,-3,-71,-23c0,0,-31,-26,-31,-66c0,0,0,-69,81,-113L189,620C189,620,31,720,31,828c0,0,0,61,45,99c0,0,46,37,109,37c0,0,96,0,173,-86c0,0,76,-87,79,-194V455H733V822H556l-46,76l14,31H998l45,-76l-13,-31H794l66,-58V-39L823,-49Z"
id="f6_by"
transform="scale(0.001,-0.001)"/>

<path d="M652,-518c0,0,-209,0,-487,322l53,49c0,0,120,-129,210,-193c0,0,90,-65,177,-65c0,0,72,0,113,39c0,0,41,40,41,92c0,0,0,75,-78,105L564,-286l-90,98c0,0,62,96,169,96L605,37C605,37,552,18,498,18c0,0,-151,0,-288,115C210,133,73,248,73,388c0,0,0,113,84,184c0,0,84,71,222,73H524V822H0l-45,76l14,31H842l46,-76L874,822H567l84,-73V519l-3,2l3,-3H408c0,0,-93,0,-153,-52c0,0,-59,-52,-59,-128c0,0,0,-121,110,-188c0,0,53,-17,105,-17c0,0,92,0,153,43L535,318l101,49L773,203c0,0,-20,-67,-87,-122l61,-204c0,0,52,-32,83,-87c0,0,32,-55,32,-116c0,0,0,-85,-61,-139c0,0,-60,-53,-149,-53Z"
id="f6_mv"
transform="scale(0.001,-0.001)"/>

<path d="M-91,1001c0,0,-27,10,-61,36c0,0,-33,26,-50,49c0,0,38,81,90,110c0,0,61,-23,107,-85c0,0,-28,-71,-86,-110ZM-214,863l-199,281c0,0,-70,92,-157,92c0,0,-69,0,-159,-58l-72,118c0,0,89,73,180,73c0,0,141,0,258,-170L-155,901l-59,-38Z"
id="f6_oz"
transform="scale(0.001,-0.001)"/>

<path d="M348,229c0,0,57,0,106,17L263,559c0,0,-95,-50,-95,-162c0,0,0,-75,52,-136c0,0,49,-32,128,-32Zm170,48c0,0,61,38,96,91V504c0,0,-131,80,-244,80l-35,-2L518,277ZM704,-49L614,8V193c0,0,-84,-65,-192,-65c0,0,-139,0,-255,98c0,0,-115,98,-115,226c0,0,0,106,77,175c0,0,77,70,189,70c0,0,38,0,75,-9L614,578V822H0l-45,76l14,31H878l46,-76L911,822H675l66,-58V-39L704,-49Z"
id="f6_bx"
transform="scale(0.001,-0.001)"/>

<path d="M526,-266c0,0,-66,24,-103,79c0,0,32,69,83,101c0,0,55,-20,99,-80c0,0,-26,-67,-79,-100ZM570,78c0,0,66,17,105,54c0,0,40,38,40,88c0,0,0,40,-23,66c0,0,-23,26,-58,26c0,0,-40,0,-71,-33c0,0,-31,-33,-31,-90c0,0,0,-55,38,-111ZM538,-45c0,0,-182,0,-322,128C216,83,76,211,76,368c0,0,0,122,91,201c0,0,90,79,238,79H564V822H0l-45,76l14,31H853l45,-76L885,822H617l66,-58V521H420c0,0,-99,0,-162,-57c0,0,-62,-58,-62,-146c0,0,0,-121,105,-208c0,0,118,-41,188,-41l29,1l-69,46c0,0,-36,55,-36,115c0,0,0,73,48,123c0,0,49,49,123,49c0,0,87,0,151,-74c0,0,64,-74,64,-162c0,0,0,-94,-71,-153c0,0,-71,-59,-190,-59Z"
id="f6_ci"
transform="scale(0.001,-0.001)"/>

<path d="M727,-49L637,8V822H278l66,-58V226L270,196c0,0,-64,36,-122,98c0,0,-58,62,-79,122l43,59H217V822H0l-45,76l14,31H901l46,-76L933,822H698l66,-58V-39L727,-49Z"
id="f6_bb"
transform="scale(0.001,-0.001)"/>

<path d="M434,225c0,0,84,0,169,42c0,0,85,43,126,126V822H267c0,0,-64,-49,-64,-115c0,0,0,-79,90,-126c0,0,60,35,144,35l67,-6l75,-89L564,490l-51,7H493c0,0,-90,0,-142,-43c0,0,-52,-43,-52,-104c0,0,0,-60,51,-109c0,0,33,-16,84,-16ZM819,-49L729,8V197c0,0,-83,-76,-202,-76c0,0,-130,0,-237,91c0,0,-108,92,-108,196c0,0,0,72,53,128c0,0,-75,42,-115,97c0,0,-41,56,-41,113c0,0,0,38,22,76H0l-45,76l14,31H993l46,-76l-14,-31H790l66,-58V-39L819,-49Z"
id="f6_bc"
transform="scale(0.001,-0.001)"/>

<path d="M959,-49L869,8V367c0,0,-32,-13,-64,-13c0,0,-50,0,-110,25c0,0,23,-52,23,-109c0,0,0,-103,-70,-170c0,0,-70,-66,-182,-66c0,0,-110,0,-222,82c0,0,-111,83,-213,293l68,42c0,0,72,-155,152,-231c0,0,81,-76,178,-76c0,0,83,0,131,49c0,0,48,48,48,117c0,0,0,54,-30,100c0,0,-31,47,-91,65L325,391L257,512c0,0,68,53,156,56c0,0,140,72,140,179c0,0,0,69,-52,99c0,0,-4,1,-11,1c-19,0,-66,-4,-123,-30c0,0,-78,-35,-142,-96L150,823c0,0,119,117,253,117c0,0,98,0,175,-71c0,0,77,-70,77,-159c0,0,0,-103,-94,-180c0,0,39,-23,73,-56c0,0,52,-22,109,-22c0,0,77,0,126,38V822H727l-46,76l14,31h558l-153,215c0,0,-70,92,-157,92c0,0,-69,0,-159,-58l-72,118c0,0,89,73,180,73c0,0,141,0,258,-170L1338,929h197l46,-76l-13,-31H1332l66,-58V-39l-37,-10L1271,8V822H930l66,-58V-39L959,-49Z"
id="f6_b1"
transform="scale(0.001,-0.001)"/>

<path d="M0,822l-45,76l14,31H38L84,853L70,822Z"
id="f6_nl"
transform="scale(0.001,-0.001)"/>

<path d="M-233,1021c0,0,-84,0,-168,55c0,0,-84,56,-146,162l51,50c0,0,95,-162,219,-162c0,0,125,0,160,157L-7,1234c0,0,-21,-103,-81,-158c0,0,-61,-55,-145,-55Zm-41,201c0,0,-66,25,-102,80c0,0,32,68,82,101c0,0,55,-20,99,-80c0,0,-26,-67,-79,-101Z"
id="f6_di"
transform="scale(0.001,-0.001)"/>

<path d="M228,-49L138,8V822H0l-45,76l14,31H134c0,0,-91,93,-91,202c0,0,0,105,85,170c0,0,86,65,236,65c0,0,340,0,742,-350l-50,-46c0,0,-182,135,-340,208c0,0,-158,73,-302,73c0,0,-113,0,-183,-48c0,0,-69,-48,-69,-132c0,0,0,-63,53,-142H402l46,-76L434,822H199l65,-58V-39L228,-49Z"
id="f6_nt"
transform="scale(0.001,-0.001)"/>

<path d="M487,-7c0,0,-88,0,-185,46c0,0,-97,47,-163,130c0,0,-66,83,-66,185c0,0,0,109,80,177c0,0,79,68,234,68H504V822H0l-45,76l14,31H827l45,-76L859,822H565l66,-58V474l-3,1l3,-3H396c0,0,-100,0,-152,-47c0,0,-53,-48,-53,-119c0,0,0,-104,93,-178c0,0,60,-20,118,-20c0,0,81,0,156,36c0,0,76,35,123,99l92,-99C773,144,723,70,645,31C645,31,567,-7,487,-7Z"
id="f6_bk"
transform="scale(0.001,-0.001)"/>

<path d="M959,-49L869,8V367c0,0,-32,-13,-64,-13c0,0,-50,0,-110,25c0,0,23,-52,23,-109c0,0,0,-103,-70,-170c0,0,-70,-66,-182,-66c0,0,-110,0,-222,82c0,0,-111,83,-213,293l68,42c0,0,72,-155,152,-231c0,0,81,-76,178,-76c0,0,83,0,131,49c0,0,48,48,48,117c0,0,0,54,-30,100c0,0,-31,47,-91,65L325,391L257,512c0,0,68,53,156,56c0,0,140,72,140,179c0,0,0,69,-52,99c0,0,-4,1,-11,1c-19,0,-66,-4,-123,-30c0,0,-78,-35,-142,-96L150,823c0,0,119,117,253,117c0,0,98,0,175,-71c0,0,77,-70,77,-159c0,0,0,-103,-94,-180c0,0,39,-23,73,-56c0,0,52,-22,109,-22c0,0,77,0,126,38V822H727l-46,76l14,31h439l45,-76l-13,-31H930l66,-58V-39L959,-49Z"
id="f6_al"
transform="scale(0.001,-0.001)"/>

<path d="M547,-285c0,0,-66,25,-102,80c0,0,32,69,82,101c0,0,55,-20,99,-80c0,0,-26,-67,-79,-101Zm1,228c0,0,-122,0,-243,81c0,0,-122,81,-252,280l57,41C110,345,283,64,498,64c0,0,92,0,153,49c0,0,61,49,61,121c0,0,0,46,-28,84L440,237c0,0,-73,11,-139,55c0,0,-66,44,-105,105c0,0,-40,61,-40,119c0,0,0,72,62,125c0,0,62,53,184,53H625V822H0l-45,76l14,31H906l46,-76L938,822H678l66,-58V562H431c0,0,-164,0,-164,-99c0,0,0,-55,57,-102l261,82c0,0,104,-21,172,-98c0,0,68,-78,68,-171c0,0,0,-99,-76,-166c0,0,-77,-65,-201,-65Z"
id="f6_ch"
transform="scale(0.001,-0.001)"/>

<path d="M527,-71L52,414l34,92H277c0,0,12,32,12,72V822H0l-45,76l14,31H940l45,-76L972,822H350l66,-55V570c0,0,146,98,247,98c0,0,95,0,167,-73c0,0,71,-72,71,-167c0,0,0,-77,-53,-142c0,0,-54,-64,-159,-136l-89,99c0,0,100,70,152,121c0,0,52,52,52,105c0,0,0,34,-23,60c0,0,-22,26,-72,26c0,0,-139,0,-434,-252L610,34L611,8L527,-71Z"
id="f6_n0"
transform="scale(0.001,-0.001)"/>

<path d="M758,-39c0,0,65,0,123,33c0,0,57,32,86,98V822H655l66,-58V585H364c0,0,-176,0,-176,-96c0,0,0,-41,52,-84c0,0,88,55,224,55c0,0,149,0,243,-67c0,0,95,-66,95,-162c0,0,0,-126,-180,-159c0,0,14,-48,47,-94c0,0,43,-17,89,-17ZM688,-311c0,0,-237,43,-406,184c0,0,-169,141,-169,307c0,0,0,110,76,187c0,0,-110,90,-110,185c0,0,0,64,57,110c0,0,57,47,196,47H602V822H0l-45,76l14,31H1208l46,-76l-13,-31H1027l59,-58V-253l-36,-10l-83,53V-86c0,0,-64,-50,-148,-50c0,0,-196,0,-336,251h-2l9,56c0,0,210,31,210,112c0,0,0,24,-23,50c0,0,-66,21,-145,21c0,0,-123,0,-208,-55c0,0,-86,-56,-86,-157c0,0,0,-124,133,-225c0,0,133,-102,349,-147l-32,-81Z"
id="f6_go"
transform="scale(0.001,-0.001)"/>

<path d="M892,248c0,0,77,0,148,36c0,0,72,37,110,107V822H802c0,0,138,-96,138,-208c0,0,0,-151,-228,-192c0,0,29,-104,89,-158c0,0,41,-16,91,-16ZM347,-57C347,-57,73,203,73,373c0,0,0,110,87,181c0,0,86,71,227,71c0,0,137,0,268,-84c0,0,91,17,130,43c0,0,38,26,38,74c0,0,0,45,-29,81c0,0,-30,36,-99,83H0l-45,76l14,31H1415l46,-76l-14,-31H1212l65,-58V-39l-36,-10L1150,8V200c0,0,-68,-56,-169,-56c0,0,-122,0,-235,90c0,0,-113,90,-176,223c0,0,-77,43,-161,43c0,0,-85,0,-148,-47c0,0,-62,-47,-62,-129c0,0,0,-127,204,-328L347,-57Z"
id="f6_j8"
transform="scale(0.001,-0.001)"/>

<path d="M825,-49L735,8V217c0,0,-86,-72,-197,-72c0,0,-130,0,-238,91c0,0,-107,91,-107,204c0,0,0,55,27,105H55L12,616l14,30H574l46,-76L607,539H396c0,0,-78,-49,-78,-162c0,0,0,-70,40,-111c0,0,39,-15,94,-15c0,0,84,0,163,41c0,0,79,41,120,121V822H0l-45,76l14,31H999l46,-76l-14,-31H796l66,-58V-39L825,-49Z"
id="f6_be"
transform="scale(0.001,-0.001)"/>

<path d="M-234,-413c0,0,-210,0,-488,322l54,49c0,0,119,-128,209,-193c0,0,90,-65,177,-65c0,0,72,0,113,40c0,0,42,39,42,91c0,0,0,75,-78,106L-323,-181l-90,98c0,0,63,95,167,95c0,0,90,0,155,-69c0,0,66,-70,66,-164c0,0,0,-85,-60,-139c0,0,-61,-53,-149,-53Z"
id="f6_cw"
transform="scale(0.001,-0.001)"/>

<path d="M413,-59C413,-59,53,193,53,416c0,0,0,97,66,164c0,0,66,66,156,66c0,0,61,0,110,-30l92,-98c0,0,75,107,198,107c0,0,75,0,142,-50c0,0,68,-49,103,-149L863,394c0,0,-61,136,-154,136c0,0,-75,0,-122,-82c0,0,-48,-81,-43,-213L507,225l-90,73c0,0,-1,96,31,170c0,0,-58,47,-126,47c0,0,-61,0,-99,-42c0,0,-38,-42,-38,-111c0,0,0,-93,71,-176c0,0,71,-84,208,-178L413,-59ZM0,822l-45,76l14,31H759l46,-76L791,822Z"
id="f6_lt"
transform="scale(0.001,-0.001)"/>

<path d="M799,475V822H350l66,-55V564c0,0,0,-43,-25,-89ZM527,-71L52,414l34,92H277c0,0,12,32,12,72V822H0l-45,76l14,31H1063l46,-76l-14,-31H860l66,-58V-39L889,-49L799,8V370H315L264,316L610,34L611,8L527,-71Z"
id="f6_cb"
transform="scale(0.001,-0.001)"/>

<path d="M959,-49L869,8V367c0,0,-32,-13,-64,-13c0,0,-50,0,-110,25c0,0,23,-52,23,-109c0,0,0,-103,-70,-170c0,0,-70,-66,-182,-66c0,0,-110,0,-222,82c0,0,-111,83,-213,293l68,42c0,0,72,-155,152,-231c0,0,81,-76,178,-76c0,0,83,0,131,49c0,0,48,48,48,117c0,0,0,54,-30,100c0,0,-31,47,-91,65L325,391L257,512c0,0,68,53,156,56c0,0,140,72,140,179c0,0,0,69,-52,99c0,0,-4,1,-11,1c-19,0,-66,-4,-123,-30c0,0,-78,-35,-142,-96L150,823c0,0,119,117,253,117c0,0,98,0,175,-71c0,0,77,-70,77,-159c0,0,0,-103,-94,-180c0,0,39,-23,73,-56c0,0,52,-22,109,-22c0,0,77,0,126,38V822H727l-46,76l14,31h840l46,-76l-13,-31H1332l66,-58V-39l-37,-10L1271,8V822H930l66,-58V-39L959,-49Z"
id="f6_am"
transform="scale(0.001,-0.001)"/>

<path d="M368,344c0,0,90,0,155,73V822H150l67,-58V438c0,0,46,-94,151,-94ZM613,-49L523,8V251c0,0,-48,-28,-103,-28c0,0,-122,0,-227,112C193,335,89,448,89,590V822H0l-45,76l14,31H1150l46,-76l-13,-31H584l65,-58V533c0,0,101,95,211,95c0,0,98,0,170,-79c0,0,73,-78,73,-185c0,0,0,-179,-225,-330L785,139c0,0,219,153,219,269c0,0,0,43,-26,75c0,0,-26,32,-80,32c0,0,-120,0,-249,-159V-39L613,-49Z"
id="f6_bw"
transform="scale(0.001,-0.001)"/>

<path d="M483,-305L295,-10c0,0,-90,22,-156,74l41,170h66L351,63c0,0,126,4,207,62c0,0,82,58,82,139c0,0,0,37,-18,71L365,266c0,0,-110,15,-197,102c0,0,-87,87,-87,176c0,0,0,69,59,117c0,0,59,48,172,48H550V822H0l-45,76l14,31H822l46,-76L854,822H603l66,-58V585H373c0,0,-184,0,-184,-99c0,0,0,-48,63,-101l310,78c0,0,86,-34,141,-99c0,0,55,-65,55,-142c0,0,0,-109,-98,-179c0,0,-98,-69,-254,-69L599,-216L483,-305Z"
id="f6_an"
transform="scale(0.001,-0.001)"/>

<path d="M46,1082c0,0,-69,29,-106,81c0,0,34,75,84,105c0,0,57,-23,103,-81c0,0,-31,-72,-81,-105Z"
id="f6_ol"
transform="scale(0.001,-0.001)"/>

<path d="M306,75c0,0,82,0,155,150l74,163c0,0,-109,142,-199,142c0,0,-69,0,-116,-66c0,0,-47,-67,-47,-160c0,0,0,-82,38,-145c0,0,38,-63,95,-84Zm452,32c0,0,87,0,134,66c0,0,48,67,48,154c0,0,0,82,-43,155c0,0,-43,73,-113,88c0,0,-40,-25,-84,-116L588,214c0,0,80,-107,170,-107ZM787,-7c0,0,-55,0,-113,30L555,153C555,153,460,-5,339,-5c0,0,-110,0,-195,109c0,0,-86,110,-86,250c0,0,0,126,71,209c0,0,71,83,172,83c0,0,67,0,113,-29L567,455c0,0,73,153,148,185V822H0l-45,76l14,31H1097l46,-76l-14,-31H776l66,-58V631c0,0,81,-40,142,-134c0,0,61,-94,61,-211c0,0,0,-126,-74,-210C971,76,897,-7,787,-7Z"
id="f6_c5"
transform="scale(0.001,-0.001)"/>

<path d="M228,-49L138,8V822H0l-45,76l14,31H136c0,0,-173,353,-364,353c0,0,-75,0,-119,-44c0,0,-45,-45,-45,-106c0,0,0,-69,48,-128l-43,-32c0,0,-124,113,-124,224c0,0,0,87,67,146c0,0,68,59,167,59c0,0,150,0,283,-130c0,0,135,-130,219,-342H402l46,-76L434,822H199l65,-58V-39L228,-49Z"
id="f6_ob"
transform="scale(0.001,-0.001)"/>

<path d="M900,298c0,0,32,73,32,159c0,0,0,110,-38,160c0,0,-40,31,-81,31c0,0,-48,0,-80,-35c0,0,-33,-35,-33,-89c0,0,0,-118,200,-226ZM588,-60c0,0,-154,0,-274,93c0,0,-120,94,-120,207c0,0,0,50,28,92C222,332,61,440,61,552c0,0,0,71,56,122c0,0,56,50,169,50H417l64,-98L463,600H333c0,0,-157,-1,-157,-99c0,0,0,-59,88,-124c0,0,68,52,164,52c0,0,38,0,79,-9l71,-88L558,299c0,0,-46,10,-81,10c0,0,-75,0,-116,-36c0,0,-40,-36,-40,-88c0,0,0,-78,73,-130c0,0,54,-17,109,-17c0,0,114,0,211,54c0,0,97,53,154,145c0,0,-156,96,-223,173c0,0,-67,77,-67,155c0,0,0,72,48,124c0,0,48,52,126,55v78H0l-45,76l14,31H1123l46,-76l-14,-31H805l66,-58V717c0,0,76,-40,124,-124c0,0,47,-84,47,-193c0,0,0,-188,-133,-324C909,76,776,-60,588,-60Z"
id="f6_bf"
transform="scale(0.001,-0.001)"/>

<path d="M675,-274L602,21C602,21,550,3,498,3C498,3,347,3,210,118C210,118,73,232,73,373c0,0,0,113,84,184c0,0,84,71,222,72H524V822H0l-45,76l14,31H834l46,-76L866,822H585l66,-58V504l-3,2l3,-3H408c0,0,-95,0,-154,-53c0,0,-58,-53,-58,-132c0,0,0,-49,27,-100c0,0,28,-50,83,-84c0,0,44,-15,96,-15c0,0,91,0,160,46L535,303l101,48L773,188c0,0,-8,-28,-34,-66c0,0,-27,-38,-62,-64L813,-221L675,-274Z"
id="f6_br"
transform="scale(0.001,-0.001)"/>

<path d="M527,-71L52,414l34,92H277c0,0,12,32,12,72V822H0l-45,76l14,31H654l46,-76L686,822H350l66,-55V564c0,0,0,-43,-25,-89H782L798,370H315L264,316L610,34L611,8L527,-71Z"
id="f6_m1"
transform="scale(0.001,-0.001)"/>

<path d="M0,822l-45,76l14,31H61l46,-76L93,822Z"
id="f6_no"
transform="scale(0.001,-0.001)"/>

<path d="M254,-26c0,0,-84,16,-116,92c0,0,13,84,97,127c0,0,100,-36,112,-110C347,83,324,6,254,-26Zm458,0c0,0,-84,16,-116,92c0,0,14,84,98,127c0,0,99,-37,111,-110C805,83,782,6,712,-26Zm458,0c0,0,-84,16,-116,92c0,0,14,84,98,127c0,0,99,-36,111,-110c0,0,-22,-77,-93,-109Z"
id="f6_8l"
transform="scale(0.001,-0.001)"/>

<path d="M228,-49L138,8V822H0l-45,76l14,31H134c0,0,-91,93,-91,200c0,0,0,109,92,174c0,0,93,66,253,66c0,0,186,0,398,-89c0,0,212,-90,430,-264l-49,-47c0,0,-424,285,-727,285c0,0,-125,0,-201,-49c0,0,-76,-48,-76,-137c0,0,0,-67,52,-139H402l46,-76L434,822H199l65,-58V-39L228,-49Z"
id="f6_nu"
transform="scale(0.001,-0.001)"/>

<path d="M92,380L46,457l14,30H448l45,-76L480,380Z"
id="f6_pd"
transform="scale(0.001,-0.001)"/>

<path d="M959,-49L869,8V367c0,0,-32,-13,-64,-13c0,0,-50,0,-110,25c0,0,23,-52,23,-109c0,0,0,-103,-70,-170c0,0,-70,-66,-182,-66c0,0,-110,0,-222,82c0,0,-111,83,-213,293l68,42c0,0,72,-155,152,-231c0,0,81,-76,178,-76c0,0,83,0,131,49c0,0,48,48,48,117c0,0,0,54,-30,100c0,0,-31,47,-91,65L325,391L257,512c0,0,68,53,156,56c0,0,140,72,140,179c0,0,0,69,-52,99c0,0,-4,1,-11,1c-19,0,-66,-4,-123,-30c0,0,-78,-35,-142,-96L150,823c0,0,119,117,253,117c0,0,98,0,175,-71c0,0,77,-70,77,-159c0,0,0,-103,-94,-180c0,0,39,-23,73,-56c0,0,52,-22,109,-22c0,0,77,0,126,38V822H727l-46,76l14,31h509l-136,104c0,0,-90,65,-157,65c0,0,-68,0,-152,-53l-71,118c0,0,77,65,163,65c0,0,116,0,246,-120L1286,930l-107,271c0,0,-71,166,-187,166c0,0,-52,0,-129,-33l-59,125c0,0,78,46,159,46c0,0,194,0,284,-271L1349,929h186l46,-76l-13,-31H1332l66,-58V-39l-37,-10L1271,8V822H930l66,-58V-39L959,-49Z"
id="f6_b8"
transform="scale(0.001,-0.001)"/>

<path d="M283,260c0,0,122,0,209,113V513c0,0,-90,51,-160,51c0,0,-80,0,-129,-50c0,0,-49,-50,-49,-118c0,0,0,-60,35,-110c0,0,45,-26,94,-26ZM582,-49L492,8V211c0,0,-63,-54,-141,-54c0,0,-113,0,-214,92c0,0,-102,92,-102,206c0,0,0,93,69,157c0,0,69,63,163,63c0,0,34,0,66,-9L492,590V822H0l-45,76l14,31H909l46,-76L941,822H553l66,-58V521c0,0,93,104,192,104c0,0,63,0,120,-42c0,0,57,-42,82,-106L964,431l-5,9c0,0,-38,72,-110,72c0,0,-51,0,-105,-41c0,0,-53,-42,-125,-129V-39L582,-49Z"
id="f6_l1"
transform="scale(0.001,-0.001)"/>

<path d="M228,-49L138,8V822H0l-45,76l14,31H133c0,0,-93,95,-93,206c0,0,0,96,68,159c0,0,68,63,179,63c0,0,118,0,228,-81c0,0,110,-80,258,-262L720,970L588,1109c0,0,-133,133,-253,133c0,0,-78,0,-127,-46c0,0,-49,-46,-49,-119c0,0,0,-69,56,-148H402l46,-76L434,822H199l65,-58V-39L228,-49Z"
id="f6_nr"
transform="scale(0.001,-0.001)"/>

<path d="M773,194c0,0,57,0,90,36c0,0,34,36,34,91c0,0,0,84,-74,159l-41,18H497c0,0,111,-85,125,-211c0,0,67,-93,151,-93ZM1231,-49L1141,8V498H886c0,0,61,-47,94,-111c0,0,33,-63,33,-126c0,0,0,-85,-59,-142c0,0,-59,-56,-147,-56c0,0,-110,0,-205,107c0,0,-26,-51,-76,-79C526,91,475,63,417,63c0,0,-130,0,-230,139C187,202,87,341,20,581l76,24c0,0,60,-202,127,-306c0,0,67,-105,160,-105c0,0,57,0,91,36c0,0,33,36,33,91c0,0,0,84,-73,159L295,542v72h846V822H0l-45,76l14,31H1406l45,-76l-13,-31H1202l66,-58V-39l-37,-10Z"
id="f6_iw"
transform="scale(0.001,-0.001)"/>

<path d="M761,293c0,0,127,0,169,94V532c0,0,-68,46,-145,46c0,0,-76,0,-121,-46c0,0,-45,-45,-45,-107c0,0,0,-61,44,-110c0,0,47,-22,98,-22ZM657,67c0,0,166,0,273,107v55c0,0,-45,-36,-111,-36c0,0,-110,0,-207,90c0,0,-97,90,-97,194c0,0,0,85,66,148c0,0,65,63,155,63l48,-5L930,603V822H376l62,-55V579c0,0,0,-60,-23,-102c0,0,-24,-42,-148,-190c0,0,66,-104,175,-162c0,0,108,-58,215,-58ZM1021,-49L930,8V53c0,0,-105,-83,-264,-83c0,0,-177,0,-339,128C327,98,165,226,90,429l34,77H296c0,0,19,39,19,102l-2,214H0l-45,76l14,31H1195l46,-76l-14,-31H992l65,-58V-39l-36,-10Z"
id="f6_ba"
transform="scale(0.001,-0.001)"/>

<path d="M252,385l310,78l22,-9c0,0,107,-43,200,-43c0,0,91,0,151,41V822H603l66,-58V585H373c0,0,-184,0,-184,-99c0,0,0,-48,63,-101ZM483,-305L295,-10c0,0,-90,22,-156,74l41,170h66L351,63c0,0,126,4,207,62c0,0,82,58,82,139c0,0,0,37,-18,71L365,266c0,0,-110,15,-197,102c0,0,-87,87,-87,176c0,0,0,69,59,117c0,0,59,48,172,48H550V822H0l-45,76l14,31H1199l46,-76l-14,-31H996l66,-58V-39l-37,-10L935,8V318c0,0,-41,-15,-78,-15c0,0,-52,0,-131,30c0,0,32,-55,32,-111c0,0,0,-109,-98,-179c0,0,-98,-69,-254,-69L599,-216L483,-305Z"
id="f6_bh"
transform="scale(0.001,-0.001)"/>

<path d="M61,-393c0,0,-156,214,-210,261c0,0,-55,47,-110,47c0,0,-53,0,-85,-29c0,0,-32,-30,-32,-71c0,0,0,-48,38,-80l137,87l58,-107c0,0,-67,-52,-134,-52c0,0,-73,0,-134,60c0,0,-60,60,-60,133c0,0,0,67,56,117c0,0,55,50,130,50c0,0,78,0,160,-69c0,0,82,-71,246,-309L61,-393Z"
id="f6_of"
transform="scale(0.001,-0.001)"/>

<path d="M542,145c0,0,-136,0,-243,92c0,0,-106,91,-106,203c0,0,0,55,27,105H55L12,616l14,30H574l46,-76L607,539H396c0,0,-78,-49,-78,-162c0,0,0,-70,40,-111c0,0,50,-22,108,-22c0,0,90,0,176,51c0,0,87,50,137,148l95,-79c0,0,-60,-115,-148,-167c0,0,-89,-52,-184,-52ZM0,822l-45,76l14,31H726l46,-76L758,822Z"
id="f6_l6"
transform="scale(0.001,-0.001)"/>

<path d="M483,-305L295,-10c0,0,-90,22,-156,74l41,170h66L351,63c0,0,126,4,207,62c0,0,82,58,82,139c0,0,0,37,-18,71L365,266c0,0,-110,15,-197,102c0,0,-87,87,-87,176c0,0,0,69,59,117c0,0,59,48,172,48H550V822H0l-45,76l14,31H550c0,0,-142,122,-142,255c0,0,0,78,52,133c0,0,52,55,140,55c0,0,98,0,176,-64l-23,-69c0,0,-53,32,-104,32c0,0,-56,0,-94,-36c0,0,-39,-36,-39,-95c0,0,0,-109,112,-211H822l46,-76L854,822H603l66,-58V585H373c0,0,-184,0,-184,-99c0,0,0,-48,63,-101l310,78c0,0,86,-34,141,-99c0,0,55,-65,55,-142c0,0,0,-109,-98,-179c0,0,-98,-69,-254,-69L599,-216L483,-305Z"
id="f6_ao"
transform="scale(0.001,-0.001)"/>

<path d="M725,307c0,0,-95,0,-218,78c0,0,-123,78,-188,78c0,0,-54,0,-95,-34c0,0,-41,-34,-73,-100L93,362c0,0,38,88,101,146c0,0,63,59,148,59c0,0,90,0,214,-78c0,0,124,-79,188,-79c0,0,63,0,106,34c0,0,42,33,85,104l60,-40c0,0,-32,-66,-101,-134c0,0,-70,-67,-169,-67Z"
id="f7_4r"
transform="scale(0.001,-0.001)"/>

<path d="M435,0V856c0,0,-48,-47,-127,-93c0,0,-79,-46,-142,-69V824c0,0,113,52,197,128c0,0,85,75,120,146h86V0Z"
id="f8_l"
transform="scale(0.001,-0.001)"/>

<path d="M420,92c0,0,92,0,155,89c0,0,64,89,64,358c0,0,0,270,-63,359c0,0,-63,89,-158,89c0,0,-92,0,-147,-79c0,0,-70,-100,-70,-369c0,0,0,-269,63,-358c0,0,63,-89,156,-89Zm0,-110c0,0,-158,0,-248,112C172,94,64,231,64,539c0,0,0,194,39,313c0,0,40,118,119,182c0,0,79,64,198,64c0,0,88,0,155,-35c0,0,66,-36,109,-103c0,0,43,-66,68,-162c0,0,24,-96,24,-259c0,0,0,-192,-39,-311C737,228,697,110,619,46c0,0,-79,-64,-199,-64Z"
id="f8_k"
transform="scale(0.001,-0.001)"/>

<path d="M494,385V878L152,385ZM494,0V262H20V385l498,708H628V385H775V262H628V0Z"
id="f8_o"
transform="scale(0.001,-0.001)"/>


</defs>
</svg>