<?xml version="1.0" encoding="UTF-8" standalone="no"?>
<!DOCTYPE svg PUBLIC "-//W3C//DTD SVG 1.1//EN"
"http://www.w3.org/Graphics/SVG/1.1/DTD/svg11.dtd">
<svg viewBox="0 0 641 910" version="1.1" xmlns="http://www.w3.org/2000/svg" xmlns:xlink="http://www.w3.org/1999/xlink">
<defs>
<clipPath id="c0_88"><path d="M0,909.8V0H641.7V909.8Z"/></clipPath>
<clipPath id="c1_88"><path d="M0,908.6V0H641.7V908.6Z"/></clipPath>
<style type="text/css"><![CDATA[
.g0_88{
fill: #FFFFFF;
}
.g1_88{
}
]]></style>
</defs>
<path d="M0,0H641.7V909.8H0V0Z" class="g0_88"/>
<path d="M0,0H641.7V909.8H0V0Z" class="g0_88"/>
<g clip-path="url(#c0_88)">
<path d="M0,-73693H641.7V32752.5H0V-73693Z" class="g0_88"/>
</g>
<path d="M0,0H641.7V908.6H0V0Z" class="g0_88"/>
<path d="M19.5,60.7H602.7v1.2H19.5V60.7Z" class="g1_88"/>
<g clip-path="url(#c1_88)">
<path d="M0,61.9H641.7V909.8H0V61.9Z" class="g0_88"/>
<g fill="#000000" >
<use xlink:href="#f5_br" transform="matrix(14,0,0,14,238.6,96.3)" />
<use xlink:href="#f5_ct" transform="matrix(14,0,0,14,251.6,96.3)" />
<use xlink:href="#f5_br" transform="matrix(14,0,0,14,258.1,96.3)" />
<use xlink:href="#f5_ct" transform="matrix(14,0,0,14,271.1,96.3)" />
<use xlink:href="#f5_bs" transform="matrix(14,0,0,14,283.3,96.3)" />
<use xlink:href="#f5_cw" transform="matrix(14,0,0,14,298.8,96.2)" />
<use xlink:href="#f5_bv" transform="matrix(14,0,0,14,298.4,96.3)" />
<use xlink:href="#f5_c1" transform="matrix(14,0,0,14,317.2,96.3)" />
<use xlink:href="#f5_d4" transform="matrix(14,0,0,14,327.1,96.3)" />
<use xlink:href="#f5_bs" transform="matrix(14,0,0,14,333,96.3)" />
<use xlink:href="#f5_bz" transform="matrix(14,0,0,14,348.2,96.3)" />
<use xlink:href="#f5_ct" transform="matrix(14,0,0,14,362.8,96.3)" />
<use xlink:href="#f5_bm" transform="matrix(14,0,0,14,369.3,96.3)" />
<use xlink:href="#f5_d4" transform="matrix(14,0,0,14,382.5,96.3)" />
<use xlink:href="#f6_br" transform="matrix(14,0,0,14,195.1,129.5)" />
<use xlink:href="#f6_ct" transform="matrix(14,0,0,14,206.8,129.5)" />
<use xlink:href="#f6_br" transform="matrix(14,0,0,14,212.4,129.5)" />
<use xlink:href="#f6_ct" transform="matrix(14,0,0,14,224.1,129.5)" />
<use xlink:href="#f6_bs" transform="matrix(14,0,0,14,235.3,129.5)" />
<use xlink:href="#f6_cw" transform="matrix(14,0,0,14,249.9,129.4)" />
<use xlink:href="#f6_bv" transform="matrix(14,0,0,14,249.4,129.5)" />
<use xlink:href="#f6_c1" transform="matrix(14,0,0,14,266.9,129.5)" />
<use xlink:href="#f6_d4" transform="matrix(14,0,0,14,274.9,129.5)" />
<use xlink:href="#f6_bs" transform="matrix(14,0,0,14,280.9,129.5)" />
<use xlink:href="#f6_bz" transform="matrix(14,0,0,14,294.9,129.5)" />
<use xlink:href="#f6_ct" transform="matrix(14,0,0,14,308.3,129.5)" />
<use xlink:href="#f6_bm" transform="matrix(14,0,0,14,313.9,129.5)" />
<use xlink:href="#f6_d4" transform="matrix(14,0,0,14,326.5,129.5)" />
<use xlink:href="#f6_c7" transform="matrix(14,0,0,14,332.2,129.5)" />
<use xlink:href="#f6_d4" transform="matrix(14,0,0,14,344.4,129.5)" />
<use xlink:href="#f6_bb" transform="matrix(14,0,0,14,344.3,129.5)" />
<use xlink:href="#f6_ct" transform="matrix(14,0,0,14,356.9,129.5)" />
<use xlink:href="#f6_am" transform="matrix(14,0,0,14,368.2,129.5)" />
<use xlink:href="#f6_c7" transform="matrix(14,0,0,14,389.7,129.5)" />
<use xlink:href="#f6_bg" transform="matrix(14,0,0,14,401.8,129.5)" />
<use xlink:href="#f6_d8" transform="matrix(14,0,0,14,416,129.5)" />
<use xlink:href="#f6_k" transform="matrix(14,0,0,14,421.6,129.5)" />
<use xlink:href="#f6_br" transform="matrix(14,0,0,14,202,162.7)" />
<use xlink:href="#f6_ct" transform="matrix(14,0,0,14,213.6,162.7)" />
<use xlink:href="#f6_br" transform="matrix(14,0,0,14,219.3,162.7)" />
<use xlink:href="#f6_ct" transform="matrix(14,0,0,14,230.9,162.7)" />
<use xlink:href="#f6_b9" transform="matrix(14,0,0,14,242.2,162.7)" />
<use xlink:href="#f6_d8" transform="matrix(14,0,0,14,257.7,162.7)" />
<use xlink:href="#f6_ao" transform="matrix(14,0,0,14,263.3,162.7)" />
<use xlink:href="#f6_bq" transform="matrix(14,0,0,14,280.5,162.7)" />
<use xlink:href="#f6_d8" transform="matrix(14,0,0,14,293.7,162.7)" />
<use xlink:href="#f6_c1" transform="matrix(14,0,0,14,299.3,162.7)" />
<use xlink:href="#f6_cv" transform="matrix(14,0,0,14,307.7,162.7)" />
<use xlink:href="#f6_b9" transform="matrix(14,0,0,14,319,162.7)" />
<use xlink:href="#f6_c1" transform="matrix(14,0,0,14,334.5,162.7)" />
<use xlink:href="#f6_ct" transform="matrix(14,0,0,14,342.9,162.7)" />
<use xlink:href="#f6_c1" transform="matrix(14,0,0,14,354.2,162.7)" />
<use xlink:href="#f6_d4" transform="matrix(14,0,0,14,362.1,162.7)" />
<use xlink:href="#f6_bz" transform="matrix(14,0,0,14,368.2,162.7)" />
<use xlink:href="#f6_bt" transform="matrix(14,0,0,14,381.5,162.7)" />
<use xlink:href="#f6_c7" transform="matrix(14,0,0,14,393.3,162.7)" />
<use xlink:href="#f6_ct" transform="matrix(14,0,0,14,405.3,162.7)" />
<use xlink:href="#f6_c1" transform="matrix(14,0,0,14,411,162.7)" />
<use xlink:href="#f6_by" transform="matrix(14,0,0,14,187.1,195.9)" />
<use xlink:href="#f6_d5" transform="matrix(14,0,0,14,201.2,195.9)" />
<use xlink:href="#f6_n0" transform="matrix(14,0,0,14,201,195.9)" />
<use xlink:href="#f6_bg" transform="matrix(14,0,0,14,214.2,195.9)" />
<use xlink:href="#f6_cv" transform="matrix(14,0,0,14,228.4,195.9)" />
<use xlink:href="#f6_c7" transform="matrix(14,0,0,14,239.7,195.9)" />
<use xlink:href="#f6_d4" transform="matrix(14,0,0,14,251.9,195.9)" />
<use xlink:href="#f6_bb" transform="matrix(14,0,0,14,251.8,195.9)" />
<use xlink:href="#f6_ct" transform="matrix(14,0,0,14,264.4,195.9)" />
<use xlink:href="#f6_am" transform="matrix(14,0,0,14,275.7,195.9)" />
<use xlink:href="#f6_c7" transform="matrix(14,0,0,14,297.2,195.9)" />
<use xlink:href="#f6_bg" transform="matrix(14,0,0,14,309.3,195.9)" />
<use xlink:href="#f6_d8" transform="matrix(14,0,0,14,323.5,195.9)" />
<use xlink:href="#f6_pc" transform="matrix(14,0,0,14,329.1,195.9)" />
<use xlink:href="#f6_pc" transform="matrix(14,0,0,14,333.4,195.9)" />
<use xlink:href="#f6_pc" transform="matrix(14,0,0,14,337.7,195.9)" />
<use xlink:href="#f6_br" transform="matrix(14,0,0,14,342,195.9)" />
<use xlink:href="#f6_ct" transform="matrix(14,0,0,14,353.6,195.9)" />
<use xlink:href="#f6_br" transform="matrix(14,0,0,14,359.3,195.9)" />
<use xlink:href="#f6_ct" transform="matrix(14,0,0,14,370.9,195.9)" />
<use xlink:href="#f6_bs" transform="matrix(14,0,0,14,382.2,195.9)" />
<use xlink:href="#f6_cw" transform="matrix(14,0,0,14,396.8,195.8)" />
<use xlink:href="#f6_bv" transform="matrix(14,0,0,14,396.2,195.9)" />
<use xlink:href="#f6_c1" transform="matrix(14,0,0,14,413.8,195.9)" />
<use xlink:href="#f6_d4" transform="matrix(14,0,0,14,421.7,195.9)" />
<use xlink:href="#f6_pc" transform="matrix(14,0,0,14,422.1,195.9)" />
<use xlink:href="#f6_pc" transform="matrix(14,0,0,14,426.4,195.9)" />
<use xlink:href="#f6_pc" transform="matrix(14,0,0,14,430.7,195.9)" />
<use xlink:href="#f6_br" transform="matrix(14,0,0,14,188.2,254.4)" />
<use xlink:href="#f6_ct" transform="matrix(14,0,0,14,199.9,254.4)" />
<use xlink:href="#f6_br" transform="matrix(14,0,0,14,205.5,254.4)" />
<use xlink:href="#f6_ct" transform="matrix(14,0,0,14,217.2,254.4)" />
<use xlink:href="#f6_bn" transform="matrix(14,0,0,14,228.5,254.4)" />
<use xlink:href="#f6_d8" transform="matrix(14,0,0,14,240.4,254.4)" />
<use xlink:href="#f6_c3" transform="matrix(14,0,0,14,246,254.4)" />
<use xlink:href="#f6_d8" transform="matrix(14,0,0,14,260.7,254.4)" />
<use xlink:href="#f6_c1" transform="matrix(14,0,0,14,272,254.4)" />
<use xlink:href="#f6_d4" transform="matrix(14,0,0,14,280,254.4)" />
<use xlink:href="#f6_bs" transform="matrix(14,0,0,14,286.1,254.4)" />
<use xlink:href="#f6_bz" transform="matrix(14,0,0,14,300.1,254.4)" />
<use xlink:href="#f6_ct" transform="matrix(14,0,0,14,313.4,254.4)" />
<use xlink:href="#f6_bm" transform="matrix(14,0,0,14,319,254.4)" />
<use xlink:href="#f6_d4" transform="matrix(14,0,0,14,331.6,254.4)" />
<use xlink:href="#f6_c7" transform="matrix(14,0,0,14,337.4,254.4)" />
<use xlink:href="#f6_d4" transform="matrix(14,0,0,14,349.6,254.4)" />
<use xlink:href="#f6_bb" transform="matrix(14,0,0,14,349.4,254.4)" />
<use xlink:href="#f6_ct" transform="matrix(14,0,0,14,362.1,254.4)" />
<use xlink:href="#f6_am" transform="matrix(14,0,0,14,373.3,254.4)" />
<use xlink:href="#f6_c7" transform="matrix(14,0,0,14,394.8,254.4)" />
<use xlink:href="#f6_bg" transform="matrix(14,0,0,14,406.9,254.4)" />
<use xlink:href="#f6_d8" transform="matrix(14,0,0,14,421.2,254.4)" />
<use xlink:href="#f6_k" transform="matrix(14,0,0,14,426.8,254.4)" />
<use xlink:href="#f6_br" transform="matrix(14,0,0,14,190.5,287.6)" />
<use xlink:href="#f6_ct" transform="matrix(14,0,0,14,202.2,287.6)" />
<use xlink:href="#f6_br" transform="matrix(14,0,0,14,207.8,287.6)" />
<use xlink:href="#f6_ct" transform="matrix(14,0,0,14,219.5,287.6)" />
<use xlink:href="#f6_bc" transform="matrix(14,0,0,14,230.8,287.6)" />
<use xlink:href="#f6_bo" transform="matrix(14,0,0,14,244.7,287.6)" />
<use xlink:href="#f6_cv" transform="matrix(14,0,0,14,259,287.6)" />
<use xlink:href="#f6_c1" transform="matrix(14,0,0,14,270.3,287.6)" />
<use xlink:href="#f6_d4" transform="matrix(14,0,0,14,278.3,287.6)" />
<use xlink:href="#f6_bz" transform="matrix(14,0,0,14,284.4,287.6)" />
<use xlink:href="#f6_cw" transform="matrix(14,0,0,14,298.2,287.5)" />
<use xlink:href="#f6_bp" transform="matrix(14,0,0,14,303.4,287.6)" />
<use xlink:href="#f6_d8" transform="matrix(14,0,0,14,315.7,287.6)" />
<use xlink:href="#f6_b9" transform="matrix(14,0,0,14,327,287.6)" />
<use xlink:href="#f6_n0" transform="matrix(14,0,0,14,342.5,287.6)" />
<use xlink:href="#f6_c1" transform="matrix(14,0,0,14,361.3,287.6)" />
<use xlink:href="#f6_d4" transform="matrix(14,0,0,14,369.2,287.6)" />
<use xlink:href="#f6_bz" transform="matrix(14,0,0,14,375.3,287.6)" />
<use xlink:href="#f6_bt" transform="matrix(14,0,0,14,388.7,287.6)" />
<use xlink:href="#f6_c7" transform="matrix(14,0,0,14,400.4,287.6)" />
<use xlink:href="#f6_ct" transform="matrix(14,0,0,14,412.4,287.6)" />
<use xlink:href="#f6_c1" transform="matrix(14,0,0,14,418.1,287.6)" />
<use xlink:href="#f6_k" transform="matrix(14,0,0,14,426.4,287.6)" />
<use xlink:href="#f6_by" transform="matrix(14,0,0,14,182.5,320.8)" />
<use xlink:href="#f6_d5" transform="matrix(14,0,0,14,196.6,320.8)" />
<use xlink:href="#f6_n0" transform="matrix(14,0,0,14,196.5,320.8)" />
<use xlink:href="#f6_bg" transform="matrix(14,0,0,14,209.6,320.8)" />
<use xlink:href="#f6_cv" transform="matrix(14,0,0,14,223.9,320.8)" />
<use xlink:href="#f6_c7" transform="matrix(14,0,0,14,235.1,320.8)" />
<use xlink:href="#f6_d4" transform="matrix(14,0,0,14,247.4,320.8)" />
<use xlink:href="#f6_bb" transform="matrix(14,0,0,14,247.2,320.8)" />
<use xlink:href="#f6_ct" transform="matrix(14,0,0,14,259.8,320.8)" />
<use xlink:href="#f6_am" transform="matrix(14,0,0,14,271.1,320.8)" />
<use xlink:href="#f6_c7" transform="matrix(14,0,0,14,292.6,320.8)" />
<use xlink:href="#f6_bg" transform="matrix(14,0,0,14,304.7,320.8)" />
<use xlink:href="#f6_d8" transform="matrix(14,0,0,14,318.9,320.8)" />
<use xlink:href="#f6_pc" transform="matrix(14,0,0,14,324.6,320.8)" />
<use xlink:href="#f6_pc" transform="matrix(14,0,0,14,328.8,320.8)" />
<use xlink:href="#f6_pc" transform="matrix(14,0,0,14,333.1,320.8)" />
<use xlink:href="#f6_br" transform="matrix(14,0,0,14,337.4,320.8)" />
<use xlink:href="#f6_ct" transform="matrix(14,0,0,14,349.1,320.8)" />
<use xlink:href="#f6_br" transform="matrix(14,0,0,14,354.7,320.8)" />
<use xlink:href="#f6_ct" transform="matrix(14,0,0,14,366.4,320.8)" />
<use xlink:href="#f6_bs" transform="matrix(14,0,0,14,377.6,320.8)" />
<use xlink:href="#f6_cw" transform="matrix(14,0,0,14,392.2,320.7)" />
<use xlink:href="#f6_bv" transform="matrix(14,0,0,14,391.6,320.8)" />
<use xlink:href="#f6_c1" transform="matrix(14,0,0,14,409.2,320.8)" />
<use xlink:href="#f6_d4" transform="matrix(14,0,0,14,417.1,320.8)" />
<use xlink:href="#f6_pc" transform="matrix(14,0,0,14,417.6,320.8)" />
<use xlink:href="#f6_pc" transform="matrix(14,0,0,14,421.8,320.8)" />
<use xlink:href="#f6_pc" transform="matrix(14,0,0,14,426.1,320.8)" />
<use xlink:href="#f6_n7" transform="matrix(14,0,0,14,430.4,320.8)" />
<use xlink:href="#f6_br" transform="matrix(14,0,0,14,208.8,379.3)" />
<use xlink:href="#f6_ct" transform="matrix(14,0,0,14,220.5,379.3)" />
<use xlink:href="#f6_br" transform="matrix(14,0,0,14,226.1,379.3)" />
<use xlink:href="#f6_ct" transform="matrix(14,0,0,14,237.8,379.3)" />
<use xlink:href="#f6_bz" transform="matrix(14,0,0,14,249.1,379.3)" />
<use xlink:href="#f6_d4" transform="matrix(14,0,0,14,262.6,379.3)" />
<use xlink:href="#f6_c7" transform="matrix(14,0,0,14,262.4,379.3)" />
<use xlink:href="#f6_ct" transform="matrix(14,0,0,14,274.5,379.3)" />
<use xlink:href="#f6_bt" transform="matrix(14,0,0,14,280.1,379.3)" />
<use xlink:href="#f6_bb" transform="matrix(14,0,0,14,291.9,379.3)" />
<use xlink:href="#f6_c1" transform="matrix(14,0,0,14,304.5,379.3)" />
<use xlink:href="#f6_bz" transform="matrix(14,0,0,14,318.5,379.3)" />
<use xlink:href="#f6_oz" transform="matrix(14,0,0,14,332,379.3)" />
<use xlink:href="#f6_cu" transform="matrix(14,0,0,14,337.5,379.3)" />
<use xlink:href="#f6_bx" transform="matrix(14,0,0,14,343.1,379.3)" />
<use xlink:href="#f6_c1" transform="matrix(14,0,0,14,355.4,379.3)" />
<use xlink:href="#f6_ct" transform="matrix(14,0,0,14,363.8,379.3)" />
<use xlink:href="#f6_nu" transform="matrix(14,0,0,14,369.4,379.3)" />
<use xlink:href="#f6_bg" transform="matrix(14,0,0,14,375.1,379.3)" />
<use xlink:href="#f6_c0" transform="matrix(14,0,0,14,389.3,379.3)" />
<use xlink:href="#f6_ct" transform="matrix(14,0,0,14,401.9,379.3)" />
<use xlink:href="#f6_k" transform="matrix(14,0,0,14,407.5,379.3)" />
<use xlink:href="#f6_br" transform="matrix(14,0,0,14,185.9,412.5)" />
<use xlink:href="#f6_ct" transform="matrix(14,0,0,14,197.6,412.5)" />
<use xlink:href="#f6_br" transform="matrix(14,0,0,14,203.2,412.5)" />
<use xlink:href="#f6_ct" transform="matrix(14,0,0,14,214.9,412.5)" />
<use xlink:href="#f6_aq" transform="matrix(14,0,0,14,226.2,412.5)" />
<use xlink:href="#f6_di" transform="matrix(14,0,0,14,237.2,412.9)" />
<use xlink:href="#f6_be" transform="matrix(14,0,0,14,241.9,412.5)" />
<use xlink:href="#f6_ct" transform="matrix(14,0,0,14,255.9,412.5)" />
<use xlink:href="#f6_bm" transform="matrix(14,0,0,14,267.2,412.5)" />
<use xlink:href="#f6_cw" transform="matrix(14,0,0,14,278.9,413.3)" />
<use xlink:href="#f6_dj" transform="matrix(14,0,0,14,276.5,412.9)" />
<use xlink:href="#f6_bb" transform="matrix(14,0,0,14,279.8,412.5)" />
<use xlink:href="#f6_c1" transform="matrix(14,0,0,14,292.5,412.5)" />
<use xlink:href="#f6_be" transform="matrix(14,0,0,14,306.5,412.5)" />
<use xlink:href="#f6_bm" transform="matrix(14,0,0,14,320.5,412.5)" />
<use xlink:href="#f6_cv" transform="matrix(14,0,0,14,333.2,412.5)" />
<use xlink:href="#f6_c0" transform="matrix(14,0,0,14,338.8,412.5)" />
<use xlink:href="#f6_d8" transform="matrix(14,0,0,14,351.3,412.5)" />
<use xlink:href="#f6_bt" transform="matrix(14,0,0,14,362.6,412.5)" />
<use xlink:href="#f6_cc" transform="matrix(14,0,0,14,374.3,412.5)" />
<use xlink:href="#f6_cv" transform="matrix(14,0,0,14,385.9,412.5)" />
<use xlink:href="#f6_dj" transform="matrix(14,0,0,14,390.6,413.4)" />
<use xlink:href="#f6_bg" transform="matrix(14,0,0,14,397.2,412.5)" />
<use xlink:href="#f6_ct" transform="matrix(14,0,0,14,411.5,412.5)" />
<use xlink:href="#f6_ax" transform="matrix(14,0,0,14,417.1,412.5)" />
<use xlink:href="#f6_k" transform="matrix(14,0,0,14,429,412.5)" />
<use xlink:href="#f6_by" transform="matrix(14,0,0,14,181.3,445.7)" />
<use xlink:href="#f6_d5" transform="matrix(14,0,0,14,195.4,445.7)" />
<use xlink:href="#f6_n0" transform="matrix(14,0,0,14,195.3,445.7)" />
<use xlink:href="#f6_bg" transform="matrix(14,0,0,14,208.5,445.7)" />
<use xlink:href="#f6_cv" transform="matrix(14,0,0,14,222.7,445.7)" />
<use xlink:href="#f6_c7" transform="matrix(14,0,0,14,234,445.7)" />
<use xlink:href="#f6_d4" transform="matrix(14,0,0,14,246.2,445.7)" />
<use xlink:href="#f6_bb" transform="matrix(14,0,0,14,246.1,445.7)" />
<use xlink:href="#f6_ct" transform="matrix(14,0,0,14,258.7,445.7)" />
<use xlink:href="#f6_am" transform="matrix(14,0,0,14,270,445.7)" />
<use xlink:href="#f6_c7" transform="matrix(14,0,0,14,291.5,445.7)" />
<use xlink:href="#f6_bg" transform="matrix(14,0,0,14,303.5,445.7)" />
<use xlink:href="#f6_d8" transform="matrix(14,0,0,14,317.8,445.7)" />
<use xlink:href="#f6_pc" transform="matrix(14,0,0,14,323.4,445.7)" />
<use xlink:href="#f6_pc" transform="matrix(14,0,0,14,327.7,445.7)" />
<use xlink:href="#f6_pc" transform="matrix(14,0,0,14,332,445.7)" />
<use xlink:href="#f6_br" transform="matrix(14,0,0,14,336.2,445.7)" />
<use xlink:href="#f6_ct" transform="matrix(14,0,0,14,347.9,445.7)" />
<use xlink:href="#f6_br" transform="matrix(14,0,0,14,353.5,445.7)" />
<use xlink:href="#f6_ct" transform="matrix(14,0,0,14,365.2,445.7)" />
<use xlink:href="#f6_bs" transform="matrix(14,0,0,14,376.5,445.7)" />
<use xlink:href="#f6_cw" transform="matrix(14,0,0,14,391,445.6)" />
<use xlink:href="#f6_bv" transform="matrix(14,0,0,14,390.5,445.7)" />
<use xlink:href="#f6_c1" transform="matrix(14,0,0,14,408,445.7)" />
<use xlink:href="#f6_d4" transform="matrix(14,0,0,14,416,445.7)" />
<use xlink:href="#f6_pc" transform="matrix(14,0,0,14,416.4,445.7)" />
<use xlink:href="#f6_pc" transform="matrix(14,0,0,14,420.7,445.7)" />
<use xlink:href="#f6_pc" transform="matrix(14,0,0,14,425,445.7)" />
<use xlink:href="#f6_n8" transform="matrix(14,0,0,14,429.2,445.7)" />
<use xlink:href="#f6_br" transform="matrix(14,0,0,14,192.8,504.2)" />
<use xlink:href="#f6_ct" transform="matrix(14,0,0,14,204.5,504.2)" />
<use xlink:href="#f6_br" transform="matrix(14,0,0,14,210.1,504.2)" />
<use xlink:href="#f6_ct" transform="matrix(14,0,0,14,221.8,504.2)" />
<use xlink:href="#f6_cc" transform="matrix(14,0,0,14,233.1,504.2)" />
<use xlink:href="#f6_ct" transform="matrix(14,0,0,14,244.7,504.2)" />
<use xlink:href="#f6_no" transform="matrix(14,0,0,14,250.3,504.2)" />
<use xlink:href="#f6_bq" transform="matrix(14,0,0,14,250.3,504.2)" />
<use xlink:href="#f6_ba" transform="matrix(14,0,0,14,269.1,504.2)" />
<use xlink:href="#f6_ch" transform="matrix(14,0,0,14,285.9,504.2)" />
<use xlink:href="#f6_bb" transform="matrix(14,0,0,14,298.5,504.2)" />
<use xlink:href="#f6_cu" transform="matrix(14,0,0,14,316.8,504.2)" />
<use xlink:href="#f6_e1" transform="matrix(14,0,0,14,322.4,504.2)" />
<use xlink:href="#f6_c8" transform="matrix(14,0,0,14,334.5,504.2)" />
<use xlink:href="#f6_cw" transform="matrix(14,0,0,14,350.9,505.6)" />
<use xlink:href="#f6_c3" transform="matrix(14,0,0,14,350.4,504.2)" />
<use xlink:href="#f6_bs" transform="matrix(14,0,0,14,370.7,504.2)" />
<use xlink:href="#f6_ct" transform="matrix(14,0,0,14,384.7,504.2)" />
<use xlink:href="#f6_c1" transform="matrix(14,0,0,14,390.3,504.2)" />
<use xlink:href="#f6_cv" transform="matrix(14,0,0,14,398.7,504.2)" />
<use xlink:href="#f6_c0" transform="matrix(14,0,0,14,404.4,504.2)" />
<use xlink:href="#f6_d8" transform="matrix(14,0,0,14,416.9,504.2)" />
<use xlink:href="#f6_k" transform="matrix(14,0,0,14,422.5,504.2)" />
<use xlink:href="#f6_br" transform="matrix(14,0,0,14,207.7,537.4)" />
<use xlink:href="#f6_ct" transform="matrix(14,0,0,14,219.4,537.4)" />
<use xlink:href="#f6_br" transform="matrix(14,0,0,14,225,537.4)" />
<use xlink:href="#f6_ct" transform="matrix(14,0,0,14,236.7,537.4)" />
<use xlink:href="#f6_bm" transform="matrix(14,0,0,14,248,537.4)" />
<use xlink:href="#f6_bz" transform="matrix(14,0,0,14,260.6,537.4)" />
<use xlink:href="#f6_pd" transform="matrix(14,0,0,14,274,537.4)" />
<use xlink:href="#f6_bm" transform="matrix(14,0,0,14,281.5,537.4)" />
<use xlink:href="#f6_bz" transform="matrix(14,0,0,14,294.2,537.4)" />
<use xlink:href="#f6_bm" transform="matrix(14,0,0,14,313.2,537.4)" />
<use xlink:href="#f6_bz" transform="matrix(14,0,0,14,325.9,537.4)" />
<use xlink:href="#f6_n0" transform="matrix(14,0,0,14,339.2,537.4)" />
<use xlink:href="#f6_bx" transform="matrix(14,0,0,14,358,537.4)" />
<use xlink:href="#f6_bg" transform="matrix(14,0,0,14,370.3,537.4)" />
<use xlink:href="#f6_ct" transform="matrix(14,0,0,14,384.6,537.4)" />
<use xlink:href="#f6_c7" transform="matrix(14,0,0,14,390.2,537.4)" />
<use xlink:href="#f6_d8" transform="matrix(14,0,0,14,402.3,537.4)" />
<use xlink:href="#f6_k" transform="matrix(14,0,0,14,407.9,537.4)" />
<use xlink:href="#f6_by" transform="matrix(14,0,0,14,177.9,570.6)" />
<use xlink:href="#f6_d5" transform="matrix(14,0,0,14,192,570.6)" />
<use xlink:href="#f6_n0" transform="matrix(14,0,0,14,191.9,570.6)" />
<use xlink:href="#f6_bg" transform="matrix(14,0,0,14,205,570.6)" />
<use xlink:href="#f6_cv" transform="matrix(14,0,0,14,219.3,570.6)" />
<use xlink:href="#f6_c7" transform="matrix(14,0,0,14,230.6,570.6)" />
<use xlink:href="#f6_d4" transform="matrix(14,0,0,14,242.8,570.6)" />
<use xlink:href="#f6_bb" transform="matrix(14,0,0,14,242.6,570.6)" />
<use xlink:href="#f6_ct" transform="matrix(14,0,0,14,255.3,570.6)" />
<use xlink:href="#f6_am" transform="matrix(14,0,0,14,266.5,570.6)" />
<use xlink:href="#f6_c7" transform="matrix(14,0,0,14,288,570.6)" />
<use xlink:href="#f6_bg" transform="matrix(14,0,0,14,300.1,570.6)" />
<use xlink:href="#f6_d8" transform="matrix(14,0,0,14,314.4,570.6)" />
<use xlink:href="#f6_8l" transform="matrix(14,0,0,14,320,570.6)" />
<use xlink:href="#f6_br" transform="matrix(14,0,0,14,339.8,570.6)" />
<use xlink:href="#f6_ct" transform="matrix(14,0,0,14,351.5,570.6)" />
<use xlink:href="#f6_br" transform="matrix(14,0,0,14,357.1,570.6)" />
<use xlink:href="#f6_ct" transform="matrix(14,0,0,14,368.8,570.6)" />
<use xlink:href="#f6_bs" transform="matrix(14,0,0,14,380,570.6)" />
<use xlink:href="#f6_cw" transform="matrix(14,0,0,14,394.6,570.5)" />
<use xlink:href="#f6_bv" transform="matrix(14,0,0,14,394.1,570.6)" />
<use xlink:href="#f6_c1" transform="matrix(14,0,0,14,411.6,570.6)" />
<use xlink:href="#f6_d4" transform="matrix(14,0,0,14,419.6,570.6)" />
<use xlink:href="#f6_pc" transform="matrix(14,0,0,14,420,570.6)" />
<use xlink:href="#f6_pc" transform="matrix(14,0,0,14,424.2,570.6)" />
<use xlink:href="#f6_pc" transform="matrix(14,0,0,14,428.5,570.6)" />
<use xlink:href="#f6_n9" transform="matrix(14,0,0,14,432.8,570.6)" />
<use xlink:href="#f6_br" transform="matrix(14,0,0,14,192.8,629.1)" />
<use xlink:href="#f6_ct" transform="matrix(14,0,0,14,204.5,629.1)" />
<use xlink:href="#f6_br" transform="matrix(14,0,0,14,210.1,629.1)" />
<use xlink:href="#f6_ct" transform="matrix(14,0,0,14,221.8,629.1)" />
<use xlink:href="#f6_bz" transform="matrix(14,0,0,14,233.1,629.1)" />
<use xlink:href="#f6_m1" transform="matrix(14,0,0,14,246.4,629.1)" />
<use xlink:href="#f6_bp" transform="matrix(14,0,0,14,255.3,629.1)" />
<use xlink:href="#f6_b9" transform="matrix(14,0,0,14,267.6,629.1)" />
<use xlink:href="#f6_bz" transform="matrix(14,0,0,14,288.8,629.1)" />
<use xlink:href="#f6_cw" transform="matrix(14,0,0,14,302.6,629)" />
<use xlink:href="#f6_b9" transform="matrix(14,0,0,14,302.1,629.1)" />
<use xlink:href="#f6_cw" transform="matrix(14,0,0,14,313.2,629)" />
<use xlink:href="#f6_bk" transform="matrix(14,0,0,14,317.6,629.1)" />
<use xlink:href="#f6_bq" transform="matrix(14,0,0,14,334.8,629.1)" />
<use xlink:href="#f6_d8" transform="matrix(14,0,0,14,348,629.1)" />
<use xlink:href="#f6_c1" transform="matrix(14,0,0,14,353.6,629.1)" />
<use xlink:href="#f6_d8" transform="matrix(14,0,0,14,362,629.1)" />
<use xlink:href="#f6_cb" transform="matrix(14,0,0,14,373.3,629.1)" />
<use xlink:href="#f6_d8" transform="matrix(14,0,0,14,388.2,629.1)" />
<use xlink:href="#f6_bx" transform="matrix(14,0,0,14,393.8,629.1)" />
<use xlink:href="#f6_bp" transform="matrix(14,0,0,14,406.1,629.1)" />
<use xlink:href="#f6_d8" transform="matrix(14,0,0,14,418.4,629.1)" />
<use xlink:href="#f6_k" transform="matrix(14,0,0,14,424,629.1)" />
<use xlink:href="#f6_br" transform="matrix(14,0,0,14,197.4,662.3)" />
<use xlink:href="#f6_ct" transform="matrix(14,0,0,14,209.1,662.3)" />
<use xlink:href="#f6_br" transform="matrix(14,0,0,14,214.7,662.3)" />
<use xlink:href="#f6_ct" transform="matrix(14,0,0,14,226.4,662.3)" />
<use xlink:href="#f6_cu" transform="matrix(14,0,0,14,237.6,662.3)" />
<use xlink:href="#f6_cc" transform="matrix(14,0,0,14,243.3,662.3)" />
<use xlink:href="#f6_c7" transform="matrix(14,0,0,14,254.9,662.3)" />
<use xlink:href="#f6_ch" transform="matrix(14,0,0,14,266.9,662.3)" />
<use xlink:href="#f6_ct" transform="matrix(14,0,0,14,279.6,662.3)" />
<use xlink:href="#f6_aq" transform="matrix(14,0,0,14,290.9,662.3)" />
<use xlink:href="#f6_bv" transform="matrix(14,0,0,14,306.6,662.3)" />
<use xlink:href="#f6_c1" transform="matrix(14,0,0,14,318.5,662.3)" />
<use xlink:href="#f6_bt" transform="matrix(14,0,0,14,332.5,662.3)" />
<use xlink:href="#f6_c7" transform="matrix(14,0,0,14,344.2,662.3)" />
<use xlink:href="#f6_c3" transform="matrix(14,0,0,14,356.3,662.3)" />
<use xlink:href="#f6_ba" transform="matrix(14,0,0,14,371,662.3)" />
<use xlink:href="#f6_cc" transform="matrix(14,0,0,14,393.4,662.3)" />
<use xlink:href="#f6_ct" transform="matrix(14,0,0,14,405,662.3)" />
<use xlink:href="#f6_c1" transform="matrix(14,0,0,14,410.6,662.3)" />
<use xlink:href="#f6_k" transform="matrix(14,0,0,14,419,662.3)" />
<use xlink:href="#f6_by" transform="matrix(14,0,0,14,181.3,695.5)" />
<use xlink:href="#f6_d5" transform="matrix(14,0,0,14,195.4,695.5)" />
<use xlink:href="#f6_n0" transform="matrix(14,0,0,14,195.3,695.5)" />
<use xlink:href="#f6_bg" transform="matrix(14,0,0,14,208.5,695.5)" />
<use xlink:href="#f6_cv" transform="matrix(14,0,0,14,222.7,695.5)" />
<use xlink:href="#f6_c7" transform="matrix(14,0,0,14,234,695.5)" />
<use xlink:href="#f6_d4" transform="matrix(14,0,0,14,246.2,695.5)" />
<use xlink:href="#f6_bb" transform="matrix(14,0,0,14,246.1,695.5)" />
<use xlink:href="#f6_ct" transform="matrix(14,0,0,14,258.7,695.5)" />
<use xlink:href="#f6_am" transform="matrix(14,0,0,14,270,695.5)" />
<use xlink:href="#f6_c7" transform="matrix(14,0,0,14,291.5,695.5)" />
<use xlink:href="#f6_bg" transform="matrix(14,0,0,14,303.5,695.5)" />
<use xlink:href="#f6_d8" transform="matrix(14,0,0,14,317.8,695.5)" />
<use xlink:href="#f6_pc" transform="matrix(14,0,0,14,323.4,695.5)" />
<use xlink:href="#f6_pc" transform="matrix(14,0,0,14,327.7,695.5)" />
<use xlink:href="#f6_pc" transform="matrix(14,0,0,14,332,695.5)" />
<use xlink:href="#f6_br" transform="matrix(14,0,0,14,336.2,695.5)" />
<use xlink:href="#f6_ct" transform="matrix(14,0,0,14,347.9,695.5)" />
<use xlink:href="#f6_br" transform="matrix(14,0,0,14,353.5,695.5)" />
<use xlink:href="#f6_ct" transform="matrix(14,0,0,14,365.2,695.5)" />
<use xlink:href="#f6_bs" transform="matrix(14,0,0,14,376.5,695.5)" />
<use xlink:href="#f6_cw" transform="matrix(14,0,0,14,391,695.4)" />
<use xlink:href="#f6_bv" transform="matrix(14,0,0,14,390.5,695.5)" />
<use xlink:href="#f6_c1" transform="matrix(14,0,0,14,408,695.5)" />
<use xlink:href="#f6_d4" transform="matrix(14,0,0,14,416,695.5)" />
<use xlink:href="#f6_pc" transform="matrix(14,0,0,14,416.4,695.5)" />
<use xlink:href="#f6_pc" transform="matrix(14,0,0,14,420.7,695.5)" />
<use xlink:href="#f6_pc" transform="matrix(14,0,0,14,425,695.5)" />
<use xlink:href="#f6_na" transform="matrix(14,0,0,14,429.2,695.5)" />
<use xlink:href="#f7_4r" transform="matrix(9,0,0,9,290.2,795.2)" />
<use xlink:href="#f8_s" transform="matrix(9,0,0,9,303,795.2)" />
<use xlink:href="#f8_m" transform="matrix(9,0,0,9,310.7,795.2)" />
<use xlink:href="#f7_4r" transform="matrix(9,0,0,9,321.3,795.2)" />
</g>
</g>
<image preserveAspectRatio="none" x="22" y="801" width="581" height="86" xlink:href="img/1.png"/>
<path d="M239.5,97.4H382.7v1.1H239.5V97.4Z" class="g1_88"/>
<image preserveAspectRatio="none" x="202" y="14" width="217" height="26" xlink:href="img/2.png"/>
<defs>
<path d="M700,-327L637,-39c0,0,-43,-9,-85,-9c0,0,-109,0,-228,58c0,0,-119,59,-199,160c0,0,-79,102,-79,220c0,0,0,134,95,216c0,0,94,82,252,85H516V822H0L-86,937l32,64H929l85,-115L982,822H645L747,749V468l2,-4H478c0,0,-98,0,-148,-45c0,0,-50,-46,-50,-110c0,0,0,-68,53,-121c0,0,46,-20,99,-20c0,0,74,0,141,35L555,332l154,56L897,154C897,154,862,87,785,34L933,-233L700,-327Z"
id="f5_br"
transform="scale(0.001,-0.001)"/>

<path d="M277,-65L102,29V822H0L-86,937l32,64H463L548,886L516,822H244L347,749V-31L277,-65Z"
id="f5_ct"
transform="scale(0.001,-0.001)"/>

<path d="M895,-65L721,29V134c0,0,-66,-32,-148,-32c0,0,-156,0,-289,105c0,0,-133,105,-133,231c0,0,0,72,48,136C199,574,28,695,28,836c0,0,0,88,65,149c0,0,66,60,167,60c0,0,99,0,172,-61c0,0,72,-61,139,-180L477,729c0,0,-55,87,-92,119l-26,3c0,0,-43,0,-73,-28c0,0,-29,-29,-29,-73c0,0,0,-50,41,-95c0,0,67,33,150,33c0,0,45,0,93,-10L642,519L610,457l-51,3c0,0,-82,0,-130,-35c0,0,-49,-35,-49,-83c0,0,0,-26,16,-47c0,0,18,-6,46,-6c0,0,77,0,161,46c0,0,83,47,118,119V822H678L593,937l32,64h455l87,-115l-32,-64H863L966,749V-31L895,-65Z"
id="f5_bs"
transform="scale(0.001,-0.001)"/>

<path d="M-272,-497c0,0,-249,0,-541,361l105,97c0,0,154,-169,229,-220c0,0,75,-50,145,-50c0,0,68,0,110,38c0,0,43,38,43,90c0,0,0,49,-41,86L-367,-234L-517,-89c0,0,38,66,99,102c0,0,62,37,129,37c0,0,113,0,200,-92c0,0,87,-93,87,-209c0,0,0,-105,-77,-176c0,0,-77,-70,-193,-70Z"
id="f5_cw"
transform="scale(0.001,-0.001)"/>

<path d="M394,379c0,0,57,0,107,30c0,0,51,29,77,86V822H214L318,749V403c0,0,29,-24,76,-24ZM752,-65L578,29V188c0,0,-43,-18,-89,-18c0,0,-138,0,-282,130C207,300,63,431,60,567V822H0L-86,937l32,64H937l87,-115L992,822H720L822,749V-31L752,-65Z"
id="f5_bv"
transform="scale(0.001,-0.001)"/>

<path d="M545,-97L35,405L87,542H295c0,0,1,5,1,280H0L-86,937l32,64H729L814,886L782,822H445L550,749V547c0,0,0,-75,-41,-127c0,0,-41,-52,-129,-111L709,110V41L545,-97Z"
id="f5_c1"
transform="scale(0.001,-0.001)"/>

<path d="M-289,908l-132,216c0,0,-70,120,-169,120c0,0,-83,0,-200,-80l-130,249c0,0,125,78,234,78c0,0,187,0,349,-241L-159,969L-289,908Z"
id="f5_d4"
transform="scale(0.001,-0.001)"/>

<path d="M686,512V822H333L435,749l2,-237ZM860,-65L686,29V298H440V168L348,118c0,0,-90,30,-190,128c0,0,-100,98,-127,183l52,83H203L189,822H0L-86,937l32,64H1045l86,-115l-33,-64H828L930,749V-31L860,-65Z"
id="f5_bz"
transform="scale(0.001,-0.001)"/>

<path d="M573,-101c0,0,-296,0,-555,382l104,86c0,0,167,-260,381,-260c0,0,87,0,151,46c0,0,64,46,63,113L489,194c0,0,-167,54,-273,152c0,0,-106,99,-106,206c0,0,0,87,72,142c0,0,72,55,211,55H588v73H0L-86,937l32,64H949l85,-115l-32,-64H706L808,749V545H445c0,0,-127,0,-127,-64c0,0,0,-35,38,-62l278,64c0,0,125,-43,193,-130c0,0,67,-87,67,-182c0,0,0,-116,-91,-194c0,0,-91,-78,-230,-78Z"
id="f5_bm"
transform="scale(0.001,-0.001)"/>

<path d="M675,-274L602,21C602,21,550,3,498,3C498,3,347,3,210,118C210,118,73,232,73,373c0,0,0,113,84,184c0,0,84,71,222,72H524V822H0l-45,76l14,31H834l46,-76L866,822H585l66,-58V504l-3,2l3,-3H408c0,0,-95,0,-154,-53c0,0,-58,-53,-58,-132c0,0,0,-49,27,-100c0,0,28,-50,83,-84c0,0,44,-15,96,-15c0,0,91,0,160,46L535,303l101,48L773,188c0,0,-8,-28,-34,-66c0,0,-27,-38,-62,-64L813,-221L675,-274Z"
id="f6_br"
transform="scale(0.001,-0.001)"/>

<path d="M228,-49L138,8V822H0l-45,76l14,31H402l46,-76L434,822H199l65,-58V-39L228,-49Z"
id="f6_ct"
transform="scale(0.001,-0.001)"/>

<path d="M827,-49L736,8V205c0,0,-84,-84,-209,-84c0,0,-130,0,-237,91c0,0,-108,92,-108,196c0,0,0,79,61,137C243,545,66,672,66,791c0,0,0,75,52,124c0,0,53,49,134,49c0,0,164,0,260,-237L451,694c0,0,-55,114,-119,163l-31,5c0,0,-44,0,-77,-32c0,0,-33,-31,-33,-78c0,0,0,-86,113,-165c0,0,60,27,133,27l67,-4l75,-89L564,490l-51,7H493c0,0,-90,0,-142,-43c0,0,-52,-43,-52,-104c0,0,0,-60,51,-109c0,0,33,-16,84,-16c0,0,89,0,177,47c0,0,89,47,125,137V822H567l-46,76l14,31h466l46,-76l-14,-31H798l65,-58V-39L827,-49Z"
id="f6_bs"
transform="scale(0.001,-0.001)"/>

<path d="M-234,-413c0,0,-210,0,-488,322l54,49c0,0,119,-128,209,-193c0,0,90,-65,177,-65c0,0,72,0,113,40c0,0,42,39,42,91c0,0,0,75,-78,106L-323,-181l-90,98c0,0,63,95,167,95c0,0,90,0,155,-69c0,0,66,-70,66,-164c0,0,0,-85,-60,-139c0,0,-61,-53,-149,-53Z"
id="f6_cw"
transform="scale(0.001,-0.001)"/>

<path d="M388,325c0,0,58,0,112,31c0,0,53,31,84,86V822H165l69,-58V408c0,0,47,-83,154,-83ZM674,-49L584,8V257c0,0,-61,-51,-141,-51c0,0,-125,0,-232,109c0,0,-107,108,-107,243V822H0l-45,76l14,31H848l46,-76L880,822H645l65,-58V-39L674,-49Z"
id="f6_bv"
transform="scale(0.001,-0.001)"/>

<path d="M527,-71L52,414l34,92H277c0,0,12,32,12,72V822H0l-45,76l14,31H599l46,-76L631,822H350l66,-55V564c0,0,0,-96,-152,-248L610,34L611,8L527,-71Z"
id="f6_c1"
transform="scale(0.001,-0.001)"/>

<path d="M-214,863l-199,281c0,0,-70,92,-157,92c0,0,-69,0,-159,-58l-72,118c0,0,89,73,180,73c0,0,141,0,258,-170L-155,901l-59,-38Z"
id="f6_d4"
transform="scale(0.001,-0.001)"/>

<path d="M689,445V822H286l65,-58l8,-319ZM779,-49L689,8V328H370V180L296,150c0,0,-56,35,-120,104c0,0,-63,70,-89,131l41,60H238L223,822H0l-45,76l14,31H953l46,-76L985,822H750l66,-58V-39L779,-49Z"
id="f6_bz"
transform="scale(0.001,-0.001)"/>

<path d="M548,-57c0,0,-122,0,-243,81c0,0,-122,81,-252,280l57,41C110,345,283,64,498,64c0,0,92,0,153,49c0,0,61,49,61,121c0,0,0,46,-28,84L440,237c0,0,-73,11,-139,55c0,0,-66,44,-105,105c0,0,-40,61,-40,119c0,0,0,72,62,125c0,0,62,53,184,53H625V822H0l-45,76l14,31H906l46,-76L938,822H678l66,-58V562H431c0,0,-164,0,-164,-99c0,0,0,-55,57,-102l261,82c0,0,104,-21,172,-98c0,0,68,-78,68,-171c0,0,0,-99,-76,-166c0,0,-77,-65,-201,-65Z"
id="f6_bm"
transform="scale(0.001,-0.001)"/>

<path d="M325,240c0,0,77,0,154,35c0,0,77,35,120,99V500c0,0,-118,73,-222,73c0,0,-97,0,-151,-54c0,0,-53,-53,-53,-128c0,0,0,-73,49,-125c0,0,38,-26,103,-26ZM689,-49L599,8V199c0,0,-73,-65,-179,-65c0,0,-134,0,-252,96c0,0,-118,95,-118,221c0,0,0,102,78,171c0,0,78,69,190,69c0,0,38,0,75,-10L599,582V822H0l-45,76l14,31H863l46,-76L895,822H660l66,-58V-39L689,-49Z"
id="f6_c7"
transform="scale(0.001,-0.001)"/>

<path d="M727,-49L637,8V822H278l66,-58V226L270,196c0,0,-64,36,-122,98c0,0,-58,62,-79,122l43,59H217V822H0l-45,76l14,31H901l46,-76L933,822H698l66,-58V-39L727,-49Z"
id="f6_bb"
transform="scale(0.001,-0.001)"/>

<path d="M959,-49L869,8V367c0,0,-32,-13,-64,-13c0,0,-50,0,-110,25c0,0,23,-52,23,-109c0,0,0,-103,-70,-170c0,0,-70,-66,-182,-66c0,0,-110,0,-222,82c0,0,-111,83,-213,293l68,42c0,0,72,-155,152,-231c0,0,81,-76,178,-76c0,0,83,0,131,49c0,0,48,48,48,117c0,0,0,54,-30,100c0,0,-31,47,-91,65L325,391L257,512c0,0,68,53,156,56c0,0,140,72,140,179c0,0,0,69,-52,99c0,0,-4,1,-11,1c-19,0,-66,-4,-123,-30c0,0,-78,-35,-142,-96L150,823c0,0,119,117,253,117c0,0,98,0,175,-71c0,0,77,-70,77,-159c0,0,0,-103,-94,-180c0,0,39,-23,73,-56c0,0,52,-22,109,-22c0,0,77,0,126,38V822H727l-46,76l14,31h840l46,-76l-13,-31H1332l66,-58V-39l-37,-10L1271,8V822H930l66,-58V-39L959,-49Z"
id="f6_am"
transform="scale(0.001,-0.001)"/>

<path d="M845,-49L755,8V513H497c0,0,61,-45,93,-110c0,0,33,-64,33,-128c0,0,0,-90,-58,-144c0,0,-59,-53,-143,-53c0,0,-133,0,-234,139C188,217,87,356,20,596l76,24c0,0,60,-201,127,-306c0,0,67,-105,160,-105c0,0,57,0,91,36c0,0,33,36,33,91c0,0,0,84,-73,159L295,558v71H755V822H0l-45,76l14,31H1019l46,-76l-14,-31H816l66,-58V-39L845,-49Z"
id="f6_bg"
transform="scale(0.001,-0.001)"/>

<path d="M228,-49L138,8V822H0l-45,76l14,31H119L-33,1144c0,0,-70,92,-157,92c0,0,-69,0,-159,-58l-72,118c0,0,89,73,181,73c0,0,140,0,257,-170L205,929H402l46,-76L434,822H199l65,-58V-39L228,-49Z"
id="f6_d8"
transform="scale(0.001,-0.001)"/>

<path d="M108,-222l-44,58c0,0,96,81,104,164L89,61c0,0,12,83,93,122c0,0,50,-15,79,-55c0,0,29,-39,29,-90c0,0,0,-69,-48,-142c0,0,-48,-72,-134,-118Z"
id="f6_k"
transform="scale(0.001,-0.001)"/>

<path d="M283,260c0,0,122,0,209,113V513c0,0,-90,51,-160,51c0,0,-80,0,-129,-50c0,0,-49,-50,-49,-118c0,0,0,-60,35,-110c0,0,45,-26,94,-26ZM582,-49L492,8V211c0,0,-63,-54,-141,-54c0,0,-113,0,-213,92c0,0,-100,92,-100,205c0,0,0,93,69,157c0,0,69,64,162,64c0,0,32,0,64,-9L492,590V822H0l-45,76l14,31H1108l45,-76l-13,-31H553l66,-58V524c0,0,91,89,192,89c0,0,98,0,171,-79c0,0,72,-79,72,-186c0,0,0,-178,-224,-330L736,124c0,0,219,153,219,269c0,0,0,44,-26,75c0,0,-26,32,-81,32c0,0,-109,0,-229,-155V-39L582,-49Z"
id="f6_b9"
transform="scale(0.001,-0.001)"/>

<path d="M483,-305L295,-10c0,0,-90,22,-156,74l41,170h66L351,63c0,0,126,4,207,62c0,0,82,58,82,139c0,0,0,37,-18,71L365,266c0,0,-110,15,-197,102c0,0,-87,87,-87,176c0,0,0,69,59,117c0,0,59,48,172,48H550V822H0l-45,76l14,31H550c0,0,-142,122,-142,255c0,0,0,78,52,133c0,0,52,55,140,55c0,0,98,0,176,-64l-23,-69c0,0,-53,32,-104,32c0,0,-56,0,-94,-36c0,0,-39,-36,-39,-95c0,0,0,-109,112,-211H822l46,-76L854,822H603l66,-58V585H373c0,0,-184,0,-184,-99c0,0,0,-48,63,-101l310,78c0,0,86,-34,141,-99c0,0,55,-65,55,-142c0,0,0,-109,-98,-179c0,0,-98,-69,-254,-69L599,-216L483,-305Z"
id="f6_ao"
transform="scale(0.001,-0.001)"/>

<path d="M768,-49L678,8V202c0,0,-73,-58,-172,-58c0,0,-123,0,-240,94c0,0,-118,94,-179,237l20,55c0,0,134,12,215,70c0,0,81,57,81,141c0,0,0,90,-67,134l-26,3c0,0,-46,0,-74,-29c0,0,-28,-30,-28,-68c0,0,0,-55,82,-109L252,620C252,620,93,720,93,820c0,0,0,65,47,104c0,0,46,40,114,40c0,0,99,0,179,-83c0,0,80,-83,82,-197c0,0,0,-93,-79,-165c0,0,-78,-73,-199,-97c0,0,29,-104,88,-158c0,0,42,-16,92,-16c0,0,78,0,151,38c0,0,74,38,110,111V822H553l-46,76l14,31H943l45,-76L975,822H739l66,-58V-39L768,-49Z"
id="f6_bq"
transform="scale(0.001,-0.001)"/>

<path d="M228,-49L138,8V822H0l-45,76l14,31H138c0,0,-109,342,-284,342c0,0,-62,0,-102,-40c0,0,-40,-39,-40,-93c0,0,0,-61,51,-134l-42,-32c0,0,-128,113,-128,226c0,0,0,79,60,136c0,0,61,56,154,56c0,0,137,0,249,-125c0,0,112,-125,169,-336H402l46,-76L434,822H199l65,-58V-39L228,-49Z"
id="f6_cv"
transform="scale(0.001,-0.001)"/>

<path d="M663,-49L573,8V445H299V280L226,251c0,0,-105,99,-162,238l63,72H573V822H0l-45,76l14,31H837l46,-76L869,822H634l66,-58V-39L663,-49Z"
id="f6_bt"
transform="scale(0.001,-0.001)"/>

<path d="M823,-49L733,8V339H445V191L371,160c0,0,-56,36,-120,105c0,0,-63,70,-89,131l41,59H313V735c0,0,0,99,-55,140c0,0,-3,1,-8,1c-16,0,-48,-3,-71,-23c0,0,-31,-26,-31,-66c0,0,0,-69,81,-113L189,620C189,620,31,720,31,828c0,0,0,61,45,99c0,0,46,37,109,37c0,0,96,0,173,-86c0,0,76,-87,79,-194V455H733V822H556l-46,76l14,31H998l45,-76l-13,-31H794l66,-58V-39L823,-49Z"
id="f6_by"
transform="scale(0.001,-0.001)"/>

<path d="M-214,860l-227,219c0,0,-73,70,-148,70c0,0,-67,0,-160,-58l-72,117c0,0,83,71,176,71c0,0,120,0,232,-124L-221,940l-102,294c0,0,-64,179,-189,179c0,0,-60,0,-133,-33l-60,125c0,0,84,47,164,47c0,0,200,0,281,-276L-150,901l-23,-15l-41,-26Z"
id="f6_d5"
transform="scale(0.001,-0.001)"/>

<path d="M527,-71L52,414l34,92H277c0,0,12,32,12,72V822H0l-45,76l14,31H940l45,-76L972,822H350l66,-55V570c0,0,146,98,247,98c0,0,95,0,167,-73c0,0,71,-72,71,-167c0,0,0,-77,-53,-142c0,0,-54,-64,-159,-136l-89,99c0,0,100,70,152,121c0,0,52,52,52,105c0,0,0,34,-23,60c0,0,-22,26,-72,26c0,0,-139,0,-434,-252L610,34L611,8L527,-71Z"
id="f6_n0"
transform="scale(0.001,-0.001)"/>

<path d="M226,-49c0,0,-66,24,-102,78c0,0,32,69,82,101c0,0,55,-20,100,-80c0,0,-26,-66,-80,-99Z"
id="f6_pc"
transform="scale(0.001,-0.001)"/>

<path d="M570,78c0,0,66,17,105,54c0,0,40,38,40,88c0,0,0,40,-23,66c0,0,-23,26,-58,26c0,0,-40,0,-71,-33c0,0,-31,-33,-31,-90c0,0,0,-55,38,-111ZM538,-45c0,0,-182,0,-322,128C216,83,76,211,76,368c0,0,0,122,91,201c0,0,90,79,238,79H564V822H0l-45,76l14,31H853l45,-76L885,822H617l66,-58V521H420c0,0,-99,0,-162,-57c0,0,-62,-58,-62,-146c0,0,0,-121,105,-208c0,0,118,-41,188,-41l29,1l-69,46c0,0,-36,55,-36,115c0,0,0,73,48,123c0,0,49,49,123,49c0,0,87,0,151,-74c0,0,64,-74,64,-162c0,0,0,-94,-71,-153c0,0,-71,-59,-190,-59Z"
id="f6_bn"
transform="scale(0.001,-0.001)"/>

<path d="M413,-59C413,-59,53,193,53,416c0,0,0,97,66,164c0,0,66,66,156,66c0,0,61,0,110,-30L487,507c0,0,92,126,257,126l35,-2V822H0l-45,76l14,31H1043l46,-76l-13,-31H840l66,-58V-39L869,-49L779,8V547c0,0,-101,-5,-165,-90c0,0,-64,-86,-70,-222L507,225l-90,73c0,0,5,79,35,151c0,0,-59,66,-128,66c0,0,-57,0,-100,-38c0,0,-44,-39,-44,-109c0,0,0,-165,284,-360L413,-59Z"
id="f6_c3"
transform="scale(0.001,-0.001)"/>

<path d="M434,225c0,0,84,0,169,42c0,0,85,43,126,126V822H267c0,0,-64,-49,-64,-115c0,0,0,-79,90,-126c0,0,60,35,144,35l67,-6l75,-89L564,490l-51,7H493c0,0,-90,0,-142,-43c0,0,-52,-43,-52,-104c0,0,0,-60,51,-109c0,0,33,-16,84,-16ZM819,-49L729,8V197c0,0,-83,-76,-202,-76c0,0,-130,0,-237,91c0,0,-108,92,-108,196c0,0,0,72,53,128c0,0,-75,42,-115,97c0,0,-41,56,-41,113c0,0,0,38,22,76H0l-45,76l14,31H993l46,-76l-14,-31H790l66,-58V-39L819,-49Z"
id="f6_bc"
transform="scale(0.001,-0.001)"/>

<path d="M342,324c0,0,45,0,75,34c0,0,31,33,31,100V822H165l66,-58V390c0,0,32,-66,111,-66ZM853,-49L762,8V822H509l65,-58V455c0,0,0,-134,-51,-185c0,0,-52,-52,-127,-52c0,0,-98,0,-195,99c0,0,-97,99,-97,209V822H0l-45,76l14,31H1027l46,-76l-14,-31H823l66,-58V-39L853,-49Z"
id="f6_bo"
transform="scale(0.001,-0.001)"/>

<path d="M347,-57C347,-57,66,211,66,394c0,0,0,98,74,164c0,0,74,65,225,65H616V822H0l-45,76l14,31H880l46,-76L912,822H677l66,-58V-39L706,-49L616,8V500H428c0,0,-239,0,-239,-161c0,0,0,-136,214,-343L347,-57Z"
id="f6_bp"
transform="scale(0.001,-0.001)"/>

<path d="M535,-54L419,5c0,0,23,27,23,58c0,0,0,32,-23,55c0,0,-22,23,-295,226v73L319,571c0,0,116,92,116,191c0,0,0,63,-50,107l-32,5c0,0,-54,0,-91,-42c0,0,-37,-42,-33,-93c0,0,5,-62,75,-99L267,596c0,0,-162,93,-162,194c0,0,0,70,52,122c0,0,51,52,127,52c0,0,99,0,177,-84c0,0,77,-84,77,-180c0,0,0,-116,-142,-236L254,350L417,225l54,-40c0,0,105,-80,105,-150c0,0,0,-45,-41,-89Z"
id="f6_n7"
transform="scale(0.001,-0.001)"/>

<path d="M-91,1001c0,0,-27,10,-61,36c0,0,-33,26,-50,49c0,0,38,81,90,110c0,0,61,-23,107,-85c0,0,-28,-71,-86,-110ZM-214,863l-199,281c0,0,-70,92,-157,92c0,0,-69,0,-159,-58l-72,118c0,0,89,73,180,73c0,0,141,0,258,-170L-155,901l-59,-38Z"
id="f6_oz"
transform="scale(0.001,-0.001)"/>

<path d="M228,-49L138,8V822H0l-45,76l14,31H134c0,0,-91,92,-91,191c0,0,0,105,85,170c0,0,84,65,219,65c0,0,128,0,293,-76c0,0,165,-77,362,-263L958,966c0,0,-177,143,-303,210c0,0,-125,68,-244,68c0,0,-107,0,-175,-50c0,0,-68,-50,-68,-131c0,0,0,-61,49,-134H402l46,-76L434,822H199l65,-58V-39L228,-49Z"
id="f6_cu"
transform="scale(0.001,-0.001)"/>

<path d="M348,229c0,0,57,0,106,17L263,559c0,0,-95,-50,-95,-162c0,0,0,-75,52,-136c0,0,49,-32,128,-32Zm170,48c0,0,61,38,96,91V504c0,0,-131,80,-244,80l-35,-2L518,277ZM704,-49L614,8V193c0,0,-84,-65,-192,-65c0,0,-139,0,-255,98c0,0,-115,98,-115,226c0,0,0,106,77,175c0,0,77,70,189,70c0,0,38,0,75,-9L614,578V822H0l-45,76l14,31H878l46,-76L911,822H675l66,-58V-39L704,-49Z"
id="f6_bx"
transform="scale(0.001,-0.001)"/>

<path d="M228,-49L138,8V822H0l-45,76l14,31H134c0,0,-91,93,-91,200c0,0,0,109,92,174c0,0,93,66,253,66c0,0,186,0,398,-89c0,0,212,-90,430,-264l-49,-47c0,0,-424,285,-727,285c0,0,-125,0,-201,-49c0,0,-76,-48,-76,-137c0,0,0,-67,52,-139H402l46,-76L434,822H199l65,-58V-39L228,-49Z"
id="f6_nu"
transform="scale(0.001,-0.001)"/>

<path d="M374,248c0,0,77,0,149,36c0,0,71,37,110,107V822H284c0,0,138,-96,138,-208c0,0,0,-151,-228,-192c0,0,29,-104,89,-158c0,0,41,-16,91,-16ZM723,-49L633,8V200c0,0,-69,-56,-170,-56c0,0,-122,0,-240,94c0,0,-118,94,-179,237l20,55c0,0,133,17,187,44c0,0,55,28,55,84c0,0,0,45,-30,81c0,0,-30,36,-99,83H0l-45,76l14,31H897l46,-76L929,822H694l65,-58V-39L723,-49Z"
id="f6_c0"
transform="scale(0.001,-0.001)"/>

<path d="M471,-26c0,0,-259,0,-448,396l70,43C93,413,240,98,442,98c0,0,79,0,132,46c0,0,54,45,54,120c0,0,0,61,-38,116c0,0,-38,54,-107,72L322,370L255,492c0,0,66,53,156,56c0,0,128,51,128,153c0,0,0,77,-65,121H0l-45,76l14,31H1123l46,-76l-14,-31H578c0,0,76,-66,76,-157c0,0,0,-95,-87,-156c0,0,52,-29,84,-64c0,0,131,134,243,134c0,0,93,0,158,-70c0,0,65,-71,65,-167c0,0,0,-142,-177,-272L851,170c0,0,173,129,173,230c0,0,0,34,-23,57c0,0,-23,23,-63,23c0,0,-104,0,-215,-141c0,0,23,-55,23,-111c0,0,0,-109,-78,-182c0,0,-78,-72,-197,-72Z"
id="f6_aq"
transform="scale(0.001,-0.001)"/>

<path d="M-233,1021c0,0,-84,0,-168,55c0,0,-84,56,-146,162l51,50c0,0,95,-162,219,-162c0,0,125,0,160,157L-7,1234c0,0,-21,-103,-81,-158c0,0,-61,-55,-145,-55Zm-41,201c0,0,-66,25,-102,80c0,0,32,68,82,101c0,0,55,-20,99,-80c0,0,-26,-67,-79,-101Z"
id="f6_di"
transform="scale(0.001,-0.001)"/>

<path d="M825,-49L735,8V217c0,0,-86,-72,-197,-72c0,0,-130,0,-238,91c0,0,-107,91,-107,204c0,0,0,55,27,105H55L12,616l14,30H574l46,-76L607,539H396c0,0,-78,-49,-78,-162c0,0,0,-70,40,-111c0,0,39,-15,94,-15c0,0,84,0,163,41c0,0,79,41,120,121V822H0l-45,76l14,31H999l46,-76l-14,-31H796l66,-58V-39L825,-49Z"
id="f6_be"
transform="scale(0.001,-0.001)"/>

<path d="M0,1062c0,0,-26,11,-60,36c0,0,-34,26,-51,49c0,0,39,81,91,110c0,0,60,-23,106,-85c0,0,-28,-70,-86,-110Z"
id="f6_dj"
transform="scale(0.001,-0.001)"/>

<path d="M688,-243c0,0,-256,53,-408,173c0,0,-152,119,-152,270c0,0,0,101,68,171c0,0,-101,84,-101,179c0,0,0,64,53,112c0,0,54,47,191,47H587V822H0l-45,76l14,31H830l45,-76L862,822H640l66,-58V585H362c0,0,-159,-1,-159,-92c0,0,0,-41,46,-80c0,0,76,47,183,47c0,0,135,0,230,-76c0,0,96,-75,96,-187C758,197,758,67,629,2L545,104c0,0,49,30,81,75c0,0,32,44,32,82c0,0,0,16,-4,26c0,0,-64,58,-167,58c0,0,-97,0,-166,-50v-2c0,0,-67,-52,-67,-131c0,0,0,-116,132,-199c0,0,132,-84,334,-132l-32,-74Z"
id="f6_cc"
transform="scale(0.001,-0.001)"/>

<path d="M830,-253l-123,66c0,0,31,47,31,78c0,0,0,44,-64,84L353,130c0,0,-234,113,-234,325V822H0l-45,76l14,31H848l46,-76L880,822H655l68,-58V561c0,0,0,-176,-41,-241c0,0,-40,-65,-161,-106l-49,82l124,69V822H180l66,-58V283L646,92c0,0,126,-60,176,-110c0,0,50,-51,50,-115c0,0,0,-62,-42,-120Z"
id="f6_ax"
transform="scale(0.001,-0.001)"/>

<path d="M634,-49L249,296c0,0,-1,0,-3,0c-11,0,-48,1,-90,15c0,0,-51,16,-67,36l49,165l50,12l84,-98c0,0,125,31,191,104c0,0,66,73,66,165c0,0,0,109,-95,170c0,0,-2,0,-6,0C397,865,262,858,121,738L46,848c0,0,52,47,127,82c0,0,75,34,152,34c0,0,130,0,226,-94c0,0,95,-94,95,-218c0,0,0,-107,-77,-199c0,0,-77,-92,-216,-134L697,26L698,0L634,-49Z"
id="f6_n8"
transform="scale(0.001,-0.001)"/>

<path d="M0,822l-45,76l14,31H61l46,-76L93,822Z"
id="f6_no"
transform="scale(0.001,-0.001)"/>

<path d="M761,293c0,0,127,0,169,94V532c0,0,-68,46,-145,46c0,0,-76,0,-121,-46c0,0,-45,-45,-45,-107c0,0,0,-61,44,-110c0,0,47,-22,98,-22ZM657,67c0,0,166,0,273,107v55c0,0,-45,-36,-111,-36c0,0,-110,0,-207,90c0,0,-97,90,-97,194c0,0,0,85,66,148c0,0,65,63,155,63l48,-5L930,603V822H376l62,-55V579c0,0,0,-60,-23,-102c0,0,-24,-42,-148,-190c0,0,66,-104,175,-162c0,0,108,-58,215,-58ZM1021,-49L930,8V53c0,0,-105,-83,-264,-83c0,0,-177,0,-339,128C327,98,165,226,90,429l34,77H296c0,0,19,39,19,102l-2,214H0l-45,76l14,31H1195l46,-76l-14,-31H992l65,-58V-39l-36,-10Z"
id="f6_ba"
transform="scale(0.001,-0.001)"/>

<path d="M547,-285c0,0,-66,25,-102,80c0,0,32,69,82,101c0,0,55,-20,99,-80c0,0,-26,-67,-79,-101Zm1,228c0,0,-122,0,-243,81c0,0,-122,81,-252,280l57,41C110,345,283,64,498,64c0,0,92,0,153,49c0,0,61,49,61,121c0,0,0,46,-28,84L440,237c0,0,-73,11,-139,55c0,0,-66,44,-105,105c0,0,-40,61,-40,119c0,0,0,72,62,125c0,0,62,53,184,53H625V822H0l-45,76l14,31H906l46,-76L938,822H678l66,-58V562H431c0,0,-164,0,-164,-99c0,0,0,-55,57,-102l261,82c0,0,104,-21,172,-98c0,0,68,-78,68,-171c0,0,0,-99,-76,-166c0,0,-77,-65,-201,-65Z"
id="f6_ch"
transform="scale(0.001,-0.001)"/>

<path d="M688,-49L597,8V335L248,81l-92,81L532,425l-81,76c0,0,-80,70,-133,70c0,0,-81,0,-194,-96L38,584c0,0,109,105,223,105c0,0,103,0,213,-107L597,457V822H0l-45,76l14,31H862l46,-76L894,822H658l66,-58V-39L688,-49Z"
id="f6_e1"
transform="scale(0.001,-0.001)"/>

<path d="M513,460c0,0,61,81,61,179c0,0,0,87,-45,143c0,0,-45,57,-116,57c0,0,-63,0,-102,-43c0,0,-39,-43,-39,-110c0,0,0,-90,68,-151c0,0,68,-61,173,-75ZM581,-83L278,167l-41,-4c0,0,-99,0,-130,37l47,168l51,12l78,-79c0,0,110,40,183,105c0,0,-141,23,-231,107c0,0,-90,84,-90,193c0,0,0,69,37,116H0l-45,76l14,31H1134l45,-76l-13,-31H930l66,-58V-39L959,-49L869,8V822H588c0,0,51,-44,75,-109c0,0,25,-64,25,-122c0,0,0,-105,-81,-213c0,0,-80,-108,-240,-176L658,18l2,-25L581,-83Z"
id="f6_c8"
transform="scale(0.001,-0.001)"/>

<path d="M92,380L46,457l14,30H448l45,-76L480,380Z"
id="f6_pd"
transform="scale(0.001,-0.001)"/>

<path d="M254,-26c0,0,-84,16,-116,92c0,0,13,84,97,127c0,0,100,-36,112,-110C347,83,324,6,254,-26Zm458,0c0,0,-84,16,-116,92c0,0,14,84,98,127c0,0,99,-37,111,-110C805,83,782,6,712,-26Zm458,0c0,0,-84,16,-116,92c0,0,14,84,98,127c0,0,99,-36,111,-110c0,0,-22,-77,-93,-109Z"
id="f6_8l"
transform="scale(0.001,-0.001)"/>

<path d="M516,-207L290,58c0,0,-44,5,-99,32c0,0,-55,28,-75,51l58,140l51,12L312,165l49,-3c0,0,100,0,168,47c0,0,67,48,67,118c0,0,0,53,-44,98c0,0,-43,44,-129,65L232,413L165,536c0,0,78,51,176,51c6,0,11,0,17,0c0,0,161,50,161,168c0,0,0,79,-65,114l-20,2c0,0,-69,0,-155,-37c0,0,-86,-36,-151,-93L53,848c0,0,51,49,130,82c0,0,80,34,159,34c0,0,118,0,203,-75c0,0,84,-75,84,-172c0,0,0,-110,-116,-181c0,0,97,-46,148,-112c0,0,51,-66,51,-137c0,0,0,-99,-88,-165c0,0,-88,-65,-237,-65L578,-132l1,-26l-63,-49Z"
id="f6_n9"
transform="scale(0.001,-0.001)"/>

<path d="M527,-71L52,414l34,92H277c0,0,12,32,12,72V822H0l-45,76l14,31H654l46,-76L686,822H350l66,-55V564c0,0,0,-43,-25,-89H782L798,370H315L264,316L610,34L611,8L527,-71Z"
id="f6_m1"
transform="scale(0.001,-0.001)"/>

<path d="M487,-7c0,0,-88,0,-185,46c0,0,-97,47,-163,130c0,0,-66,83,-66,185c0,0,0,109,80,177c0,0,79,68,234,68H504V822H0l-45,76l14,31H827l45,-76L859,822H565l66,-58V474l-3,1l3,-3H396c0,0,-100,0,-152,-47c0,0,-53,-48,-53,-119c0,0,0,-104,93,-178c0,0,60,-20,118,-20c0,0,81,0,156,36c0,0,76,35,123,99l92,-99C773,144,723,70,645,31C645,31,567,-7,487,-7Z"
id="f6_bk"
transform="scale(0.001,-0.001)"/>

<path d="M799,475V822H350l66,-55V564c0,0,0,-43,-25,-89ZM527,-71L52,414l34,92H277c0,0,12,32,12,72V822H0l-45,76l14,31H1063l46,-76l-14,-31H860l66,-58V-39L889,-49L799,8V370H315L264,316L610,34L611,8L527,-71Z"
id="f6_cb"
transform="scale(0.001,-0.001)"/>

<path d="M397,102c0,0,52,0,85,36c0,0,33,35,33,87c0,0,0,88,-110,221C405,446,296,307,296,217c0,0,0,-61,39,-101c0,0,35,-14,62,-14ZM451,3C451,3,351,3,268,88c0,0,-83,85,-83,182c0,0,0,107,131,274c0,0,-146,153,-346,324l61,69L81,891L373,610c0,0,87,99,318,330l82,-92C773,848,550,623,461,516c0,0,173,-188,173,-322c0,0,0,-87,-53,-139C581,55,527,3,451,3Z"
id="f6_na"
transform="scale(0.001,-0.001)"/>

<path d="M725,307c0,0,-95,0,-218,78c0,0,-123,78,-188,78c0,0,-54,0,-95,-34c0,0,-41,-34,-73,-100L93,362c0,0,38,88,101,146c0,0,63,59,148,59c0,0,90,0,214,-78c0,0,124,-79,188,-79c0,0,63,0,106,34c0,0,42,33,85,104l60,-40c0,0,-32,-66,-101,-134c0,0,-70,-67,-169,-67Z"
id="f7_4r"
transform="scale(0.001,-0.001)"/>

<path d="M423,92c0,0,97,0,159,62c0,0,62,62,62,157c0,0,0,97,-64,160c0,0,-64,64,-161,64c0,0,-96,0,-158,-63c0,0,-62,-62,-62,-156c0,0,0,-58,27,-111c0,0,27,-54,81,-84c0,0,54,-29,116,-29Zm0,552c0,0,78,0,127,49c0,0,49,49,49,120c0,0,0,74,-50,124c0,0,-51,51,-128,51c0,0,-77,0,-127,-50c0,0,-51,-49,-51,-118c0,0,0,-77,50,-126c0,0,50,-50,130,-50ZM422,-18c0,0,-162,0,-261,95c0,0,-99,96,-99,239c0,0,0,107,54,179c0,0,54,72,154,98c0,0,-84,31,-124,87c0,0,-40,57,-40,136c0,0,0,119,85,201c0,0,86,81,229,81c0,0,143,0,230,-83c0,0,87,-83,87,-203c0,0,0,-76,-40,-132c0,0,-39,-56,-121,-87c0,0,101,-33,154,-106c0,0,52,-73,52,-174c0,0,0,-141,-99,-236c0,0,-99,-95,-261,-95Z"
id="f8_s"
transform="scale(0.001,-0.001)"/>

<path d="M46,0c0,0,-2,48,16,93c0,0,27,74,88,146c0,0,61,71,176,165c0,0,178,146,241,232c0,0,63,85,63,161c0,0,0,80,-57,135c0,0,-58,55,-149,55c0,0,-98,0,-156,-59c0,0,-58,-58,-59,-160L71,782c0,0,15,154,107,235c0,0,93,81,249,81c0,0,157,0,249,-87c0,0,92,-88,92,-217c0,0,0,-65,-27,-129c0,0,-27,-63,-89,-133c0,0,-62,-70,-207,-193C445,339,324,238,290,202c0,0,-35,-36,-57,-73H770V0Z"
id="f8_m"
transform="scale(0.001,-0.001)"/>


</defs>
</svg>