<?xml version="1.0" encoding="UTF-8" standalone="no"?>
<!DOCTYPE svg PUBLIC "-//W3C//DTD SVG 1.1//EN"
"http://www.w3.org/Graphics/SVG/1.1/DTD/svg11.dtd">
<svg viewBox="0 0 641 910" version="1.1" xmlns="http://www.w3.org/2000/svg" xmlns:xlink="http://www.w3.org/1999/xlink">
<defs>
<clipPath id="c0_112"><path d="M0,909.8V0H641.7V909.8Z"/></clipPath>
<clipPath id="c1_112"><path d="M0,908.6V0H641.7V908.6Z"/></clipPath>
<style type="text/css"><![CDATA[
.g0_112{
fill: #FFFFFF;
}
.g1_112{
}
]]></style>
</defs>
<path d="M0,0H641.7V909.8H0V0Z" class="g0_112"/>
<path d="M0,0H641.7V909.8H0V0Z" class="g0_112"/>
<g clip-path="url(#c0_112)">
<path d="M0,-95528H641.7V10917.5H0V-95528Z" class="g0_112"/>
</g>
<path d="M0,0H641.7V908.6H0V0Z" class="g0_112"/>
<path d="M19.5,60.7H602.7v1.2H19.5V60.7Z" class="g1_112"/>
<g clip-path="url(#c1_112)">
<path d="M0,61.9H641.7V909.8H0V61.9Z" class="g0_112"/>
<g fill="#000000" >
<use xlink:href="#f5_bz" transform="matrix(14,0,0,14,214.6,96.3)" />
<use xlink:href="#f5_d4" transform="matrix(14,0,0,14,229.2,96.3)" />
<use xlink:href="#f5_c1" transform="matrix(14,0,0,14,229.2,96.3)" />
<use xlink:href="#f5_d4" transform="matrix(14,0,0,14,239.1,96.3)" />
<use xlink:href="#f5_cb" transform="matrix(14,0,0,14,245.1,96.3)" />
<use xlink:href="#f5_c1" transform="matrix(14,0,0,14,261.8,96.3)" />
<use xlink:href="#f5_bv" transform="matrix(14,0,0,14,277.6,96.3)" />
<use xlink:href="#f5_d4" transform="matrix(14,0,0,14,290.7,96.3)" />
<use xlink:href="#f5_cb" transform="matrix(14,0,0,14,296.4,96.3)" />
<use xlink:href="#f5_br" transform="matrix(14,0,0,14,313.1,96.3)" />
<use xlink:href="#f5_ct" transform="matrix(14,0,0,14,326.1,96.3)" />
<use xlink:href="#f5_bp" transform="matrix(14,0,0,14,338.2,96.3)" />
<use xlink:href="#f5_d4" transform="matrix(14,0,0,14,351.6,96.3)" />
<use xlink:href="#f5_c1" transform="matrix(14,0,0,14,351.7,96.3)" />
<use xlink:href="#f5_ct" transform="matrix(14,0,0,14,361.9,96.3)" />
<use xlink:href="#f5_cc" transform="matrix(14,0,0,14,374,96.3)" />
<use xlink:href="#f5_ct" transform="matrix(14,0,0,14,386.7,96.3)" />
<use xlink:href="#f5_no" transform="matrix(14,0,0,14,393.2,96.3)" />
<use xlink:href="#f5_bq" transform="matrix(14,0,0,14,393.2,96.3)" />
<use xlink:href="#f6_br" transform="matrix(14,0,0,14,121.8,162.7)" />
<use xlink:href="#f6_d8" transform="matrix(14,0,0,14,133.4,162.7)" />
<use xlink:href="#f6_cc" transform="matrix(14,0,0,14,139.1,162.7)" />
<use xlink:href="#f6_ct" transform="matrix(14,0,0,14,150.7,162.7)" />
<use xlink:href="#f6_pd" transform="matrix(14,0,0,14,167.6,162.7)" />
<use xlink:href="#f6_pd" transform="matrix(14,0,0,14,175.2,162.7)" />
<use xlink:href="#f6_nu" transform="matrix(14,0,0,14,188.4,162.7)" />
<use xlink:href="#f6_bg" transform="matrix(14,0,0,14,194,162.7)" />
<use xlink:href="#f6_cb" transform="matrix(14,0,0,14,208.3,162.7)" />
<use xlink:href="#f6_bt" transform="matrix(14,0,0,14,223.1,162.7)" />
<use xlink:href="#f6_d4" transform="matrix(14,0,0,14,235,162.7)" />
<use xlink:href="#f6_by" transform="matrix(14,0,0,14,240.5,162.7)" />
<use xlink:href="#f6_cv" transform="matrix(14,0,0,14,254.5,162.7)" />
<use xlink:href="#f6_bp" transform="matrix(14,0,0,14,265.8,162.7)" />
<use xlink:href="#f6_d4" transform="matrix(14,0,0,14,278.2,162.7)" />
<use xlink:href="#f6_c1" transform="matrix(14,0,0,14,278.1,162.7)" />
<use xlink:href="#f6_d4" transform="matrix(14,0,0,14,286,162.7)" />
<use xlink:href="#f6_be" transform="matrix(14,0,0,14,292.1,162.7)" />
<use xlink:href="#f6_c1" transform="matrix(14,0,0,14,306.1,162.7)" />
<use xlink:href="#f6_bo" transform="matrix(14,0,0,14,314.5,162.7)" />
<use xlink:href="#f6_d8" transform="matrix(14,0,0,14,328.8,162.7)" />
<use xlink:href="#f6_dj" transform="matrix(14,0,0,14,333.1,163.6)" />
<use xlink:href="#f6_bz" transform="matrix(14,0,0,14,340.1,162.7)" />
<use xlink:href="#f6_oz" transform="matrix(14,0,0,14,353.6,162.7)" />
<use xlink:href="#f6_k" transform="matrix(14,0,0,14,353.5,162.7)" />
<use xlink:href="#f6_cb" transform="matrix(14,0,0,14,364.3,162.7)" />
<use xlink:href="#f6_c1" transform="matrix(14,0,0,14,379.2,162.7)" />
<use xlink:href="#f6_b9" transform="matrix(14,0,0,14,393.3,162.7)" />
<use xlink:href="#f6_d8" transform="matrix(14,0,0,14,408.8,162.7)" />
<use xlink:href="#f6_bh" transform="matrix(14,0,0,14,420.1,162.7)" />
<use xlink:href="#f6_oe" transform="matrix(14,0,0,14,437.4,162.6)" />
<use xlink:href="#f6_b9" transform="matrix(14,0,0,14,436.8,162.7)" />
<use xlink:href="#f6_ct" transform="matrix(14,0,0,14,452.3,162.7)" />
<use xlink:href="#f6_c0" transform="matrix(14,0,0,14,458,162.7)" />
<use xlink:href="#f6_ct" transform="matrix(14,0,0,14,470.5,162.7)" />
<use xlink:href="#f6_cc" transform="matrix(14,0,0,14,481.8,162.7)" />
<use xlink:href="#f6_d5" transform="matrix(14,0,0,14,493.7,162.7)" />
<use xlink:href="#f6_k" transform="matrix(14,0,0,14,493.4,162.7)" />
<use xlink:href="#f6_bz" transform="matrix(14,0,0,14,147,195.9)" />
<use xlink:href="#f6_d4" transform="matrix(14,0,0,14,160.4,195.9)" />
<use xlink:href="#f6_c1" transform="matrix(14,0,0,14,160.3,195.9)" />
<use xlink:href="#f6_d4" transform="matrix(14,0,0,14,168.3,195.9)" />
<use xlink:href="#f6_c8" transform="matrix(14,0,0,14,174.4,195.9)" />
<use xlink:href="#f6_e1" transform="matrix(14,0,0,14,190.2,195.9)" />
<use xlink:href="#f6_cw" transform="matrix(14,0,0,14,202.8,195.8)" />
<use xlink:href="#f6_dj" transform="matrix(14,0,0,14,199.4,196.4)" />
<use xlink:href="#f6_bg" transform="matrix(14,0,0,14,202.3,195.9)" />
<use xlink:href="#f6_c0" transform="matrix(14,0,0,14,216.5,195.9)" />
<use xlink:href="#f6_c7" transform="matrix(14,0,0,14,234.7,195.9)" />
<use xlink:href="#f6_ct" transform="matrix(14,0,0,14,246.8,195.9)" />
<use xlink:href="#f6_c3" transform="matrix(14,0,0,14,252.4,195.9)" />
<use xlink:href="#f6_d4" transform="matrix(14,0,0,14,267.3,195.9)" />
<use xlink:href="#f6_br" transform="matrix(14,0,0,14,272.8,195.9)" />
<use xlink:href="#f6_ct" transform="matrix(14,0,0,14,284.5,195.9)" />
<use xlink:href="#f6_br" transform="matrix(14,0,0,14,290.1,195.9)" />
<use xlink:href="#f6_ct" transform="matrix(14,0,0,14,301.8,195.9)" />
<use xlink:href="#f6_k" transform="matrix(14,0,0,14,307.4,195.9)" />
<use xlink:href="#f6_bp" transform="matrix(14,0,0,14,318.3,195.9)" />
<use xlink:href="#f6_cw" transform="matrix(14,0,0,14,331.1,195.8)" />
<use xlink:href="#f6_bt" transform="matrix(14,0,0,14,330.6,195.9)" />
<use xlink:href="#f6_d4" transform="matrix(14,0,0,14,342.4,195.9)" />
<use xlink:href="#f6_bb" transform="matrix(14,0,0,14,348,195.9)" />
<use xlink:href="#f6_c3" transform="matrix(14,0,0,14,360.6,195.9)" />
<use xlink:href="#f6_d4" transform="matrix(14,0,0,14,375.4,195.9)" />
<use xlink:href="#f6_cb" transform="matrix(14,0,0,14,381,195.9)" />
<use xlink:href="#f6_d4" transform="matrix(14,0,0,14,396,195.9)" />
<use xlink:href="#f6_c3" transform="matrix(14,0,0,14,401.5,195.9)" />
<use xlink:href="#f6_bb" transform="matrix(14,0,0,14,416.2,195.9)" />
<use xlink:href="#f6_ct" transform="matrix(14,0,0,14,428.8,195.9)" />
<use xlink:href="#f6_c0" transform="matrix(14,0,0,14,434.4,195.9)" />
<use xlink:href="#f6_ct" transform="matrix(14,0,0,14,447,195.9)" />
<use xlink:href="#f6_cc" transform="matrix(14,0,0,14,458.3,195.9)" />
<use xlink:href="#f6_d5" transform="matrix(14,0,0,14,470.2,195.9)" />
<use xlink:href="#f6_k" transform="matrix(14,0,0,14,469.9,195.9)" />
<use xlink:href="#f6_b1" transform="matrix(14,0,0,14,156.1,229.2)" />
<use xlink:href="#f6_br" transform="matrix(14,0,0,14,183.3,229.2)" />
<use xlink:href="#f6_ct" transform="matrix(14,0,0,14,195,229.2)" />
<use xlink:href="#f6_br" transform="matrix(14,0,0,14,200.6,229.2)" />
<use xlink:href="#f6_ct" transform="matrix(14,0,0,14,212.3,229.2)" />
<use xlink:href="#f6_bp" transform="matrix(14,0,0,14,223.5,229.2)" />
<use xlink:href="#f6_d4" transform="matrix(14,0,0,14,236,229.2)" />
<use xlink:href="#f6_c1" transform="matrix(14,0,0,14,235.9,229.2)" />
<use xlink:href="#f6_d4" transform="matrix(14,0,0,14,243.8,229.2)" />
<use xlink:href="#f6_be" transform="matrix(14,0,0,14,249.9,229.2)" />
<use xlink:href="#f6_c1" transform="matrix(14,0,0,14,263.9,229.2)" />
<use xlink:href="#f6_bo" transform="matrix(14,0,0,14,272.3,229.2)" />
<use xlink:href="#f6_d8" transform="matrix(14,0,0,14,286.6,229.2)" />
<use xlink:href="#f6_dj" transform="matrix(14,0,0,14,290.9,230)" />
<use xlink:href="#f6_bz" transform="matrix(14,0,0,14,297.9,229.2)" />
<use xlink:href="#f6_oz" transform="matrix(14,0,0,14,311.4,229.2)" />
<use xlink:href="#f6_b9" transform="matrix(14,0,0,14,316.9,229.2)" />
<use xlink:href="#f6_c1" transform="matrix(14,0,0,14,332.4,229.2)" />
<use xlink:href="#f6_bp" transform="matrix(14,0,0,14,340.8,229.2)" />
<use xlink:href="#f6_ct" transform="matrix(14,0,0,14,353.1,229.2)" />
<use xlink:href="#f6_n4" transform="matrix(14,0,0,14,364.4,229.2)" />
<use xlink:href="#f6_dj" transform="matrix(14,0,0,14,373.3,229.6)" />
<use xlink:href="#f6_bw" transform="matrix(14,0,0,14,381.7,229.2)" />
<use xlink:href="#f6_c1" transform="matrix(14,0,0,14,397.8,229.2)" />
<use xlink:href="#f6_cv" transform="matrix(14,0,0,14,406.1,229.2)" />
<use xlink:href="#f6_c0" transform="matrix(14,0,0,14,411.8,229.2)" />
<use xlink:href="#f6_ct" transform="matrix(14,0,0,14,424.3,229.2)" />
<use xlink:href="#f6_br" transform="matrix(14,0,0,14,429.9,229.2)" />
<use xlink:href="#f6_bz" transform="matrix(14,0,0,14,447.3,229.2)" />
<use xlink:href="#f6_p3" transform="matrix(14,0,0,14,460.7,229.2)" />
<use xlink:href="#f6_k" transform="matrix(14,0,0,14,460.6,229.2)" />
<use xlink:href="#f6_cb" transform="matrix(14,0,0,14,155,262.4)" />
<use xlink:href="#f6_ct" transform="matrix(14,0,0,14,169.9,262.4)" />
<use xlink:href="#f6_c1" transform="matrix(14,0,0,14,175.5,262.4)" />
<use xlink:href="#f6_ct" transform="matrix(14,0,0,14,183.9,262.4)" />
<use xlink:href="#f6_bg" transform="matrix(14,0,0,14,195.2,262.4)" />
<use xlink:href="#f6_cc" transform="matrix(14,0,0,14,209.4,262.4)" />
<use xlink:href="#f6_ct" transform="matrix(14,0,0,14,221,262.4)" />
<use xlink:href="#f6_di" transform="matrix(14,0,0,14,224.5,262.8)" />
<use xlink:href="#f6_bt" transform="matrix(14,0,0,14,232.3,262.4)" />
<use xlink:href="#f6_d4" transform="matrix(14,0,0,14,244.2,262.4)" />
<use xlink:href="#f6_bl" transform="matrix(14,0,0,14,249.7,262.4)" />
<use xlink:href="#f6_cw" transform="matrix(14,0,0,14,261.4,262.4)" />
<use xlink:href="#f6_b9" transform="matrix(14,0,0,14,262,262.4)" />
<use xlink:href="#f6_c1" transform="matrix(14,0,0,14,277.5,262.4)" />
<use xlink:href="#f6_ct" transform="matrix(14,0,0,14,285.9,262.4)" />
<use xlink:href="#f6_c0" transform="matrix(14,0,0,14,291.5,262.4)" />
<use xlink:href="#f6_ct" transform="matrix(14,0,0,14,304.1,262.4)" />
<use xlink:href="#f6_bp" transform="matrix(14,0,0,14,315.4,262.4)" />
<use xlink:href="#f6_d8" transform="matrix(14,0,0,14,327.7,262.4)" />
<use xlink:href="#f6_k" transform="matrix(14,0,0,14,333.3,262.4)" />
<use xlink:href="#f6_am" transform="matrix(14,0,0,14,344.2,262.4)" />
<use xlink:href="#f6_c0" transform="matrix(14,0,0,14,365.7,262.4)" />
<use xlink:href="#f6_d4" transform="matrix(14,0,0,14,378.4,262.4)" />
<use xlink:href="#f6_bp" transform="matrix(14,0,0,14,383.9,262.4)" />
<use xlink:href="#f6_d4" transform="matrix(14,0,0,14,396.3,262.4)" />
<use xlink:href="#f6_c1" transform="matrix(14,0,0,14,396.2,262.4)" />
<use xlink:href="#f6_d4" transform="matrix(14,0,0,14,404.2,262.4)" />
<use xlink:href="#f6_bv" transform="matrix(14,0,0,14,410.3,262.4)" />
<use xlink:href="#f6_ct" transform="matrix(14,0,0,14,422.1,262.4)" />
<use xlink:href="#f6_cb" transform="matrix(14,0,0,14,427.7,262.4)" />
<use xlink:href="#f6_bz" transform="matrix(14,0,0,14,448.3,262.4)" />
<use xlink:href="#f6_p3" transform="matrix(14,0,0,14,461.8,262.4)" />
<use xlink:href="#f6_k" transform="matrix(14,0,0,14,461.6,262.4)" />
<use xlink:href="#f6_b9" transform="matrix(14,0,0,14,172.2,295.6)" />
<use xlink:href="#f6_n0" transform="matrix(14,0,0,14,187.7,295.6)" />
<use xlink:href="#f6_bo" transform="matrix(14,0,0,14,200.8,295.6)" />
<use xlink:href="#f6_ct" transform="matrix(14,0,0,14,215.2,295.6)" />
<use xlink:href="#f6_b9" transform="matrix(14,0,0,14,226.5,295.6)" />
<use xlink:href="#f6_ct" transform="matrix(14,0,0,14,242,295.6)" />
<use xlink:href="#f6_cb" transform="matrix(14,0,0,14,253.3,295.6)" />
<use xlink:href="#f6_ct" transform="matrix(14,0,0,14,268.1,295.6)" />
<use xlink:href="#f6_bb" transform="matrix(14,0,0,14,273.8,295.6)" />
<use xlink:href="#f6_c1" transform="matrix(14,0,0,14,286.4,295.6)" />
<use xlink:href="#f6_bp" transform="matrix(14,0,0,14,300.4,295.6)" />
<use xlink:href="#f6_cw" transform="matrix(14,0,0,14,313.3,295.5)" />
<use xlink:href="#f6_k" transform="matrix(14,0,0,14,312.7,295.6)" />
<use xlink:href="#f6_br" transform="matrix(14,0,0,14,323.6,295.6)" />
<use xlink:href="#f6_c0" transform="matrix(14,0,0,14,335.3,295.6)" />
<use xlink:href="#f6_ct" transform="matrix(14,0,0,14,347.8,295.6)" />
<use xlink:href="#f6_b9" transform="matrix(14,0,0,14,359.1,295.6)" />
<use xlink:href="#f6_ct" transform="matrix(14,0,0,14,374.6,295.6)" />
<use xlink:href="#f6_by" transform="matrix(14,0,0,14,385.9,295.6)" />
<use xlink:href="#f6_dj" transform="matrix(14,0,0,14,397,296.1)" />
<use xlink:href="#f6_bm" transform="matrix(14,0,0,14,399.9,295.6)" />
<use xlink:href="#f6_ct" transform="matrix(14,0,0,14,412.5,295.6)" />
<use xlink:href="#f6_c1" transform="matrix(14,0,0,14,418.2,295.6)" />
<use xlink:href="#f6_cc" transform="matrix(14,0,0,14,432.2,295.6)" />
<use xlink:href="#f6_d5" transform="matrix(14,0,0,14,444.2,295.6)" />
<use xlink:href="#f6_k" transform="matrix(14,0,0,14,443.8,295.6)" />
<use xlink:href="#f6_bz" transform="matrix(14,0,0,14,174.5,328.9)" />
<use xlink:href="#f6_ct" transform="matrix(14,0,0,14,187.8,328.9)" />
<use xlink:href="#f6_di" transform="matrix(14,0,0,14,191.3,329.3)" />
<use xlink:href="#f6_b9" transform="matrix(14,0,0,14,199.1,328.9)" />
<use xlink:href="#f6_oc" transform="matrix(14,0,0,14,214.6,328.9)" />
<use xlink:href="#f6_bz" transform="matrix(14,0,0,14,225.9,328.9)" />
<use xlink:href="#f6_bz" transform="matrix(14,0,0,14,239.2,328.9)" />
<use xlink:href="#f6_bp" transform="matrix(14,0,0,14,252.6,328.9)" />
<use xlink:href="#f6_ct" transform="matrix(14,0,0,14,264.9,328.9)" />
<use xlink:href="#f6_bp" transform="matrix(14,0,0,14,276.2,328.9)" />
<use xlink:href="#f6_cw" transform="matrix(14,0,0,14,289,328.7)" />
<use xlink:href="#f6_cc" transform="matrix(14,0,0,14,294.1,328.9)" />
<use xlink:href="#f6_cv" transform="matrix(14,0,0,14,305.7,328.9)" />
<use xlink:href="#f6_k" transform="matrix(14,0,0,14,311.4,328.9)" />
<use xlink:href="#f6_cu" transform="matrix(14,0,0,14,322.2,328.9)" />
<use xlink:href="#f6_bv" transform="matrix(14,0,0,14,327.9,328.9)" />
<use xlink:href="#f6_bp" transform="matrix(14,0,0,14,339.7,328.9)" />
<use xlink:href="#f6_ct" transform="matrix(14,0,0,14,352,328.9)" />
<use xlink:href="#f6_b9" transform="matrix(14,0,0,14,363.3,328.9)" />
<use xlink:href="#f6_ct" transform="matrix(14,0,0,14,378.8,328.9)" />
<use xlink:href="#f6_ll" transform="matrix(14,0,0,14,390.1,328.9)" />
<use xlink:href="#f6_c0" transform="matrix(14,0,0,14,396.6,328.9)" />
<use xlink:href="#f6_ct" transform="matrix(14,0,0,14,409.1,328.9)" />
<use xlink:href="#f6_c1" transform="matrix(14,0,0,14,414.7,328.9)" />
<use xlink:href="#f6_cc" transform="matrix(14,0,0,14,428.8,328.9)" />
<use xlink:href="#f6_d5" transform="matrix(14,0,0,14,440.7,328.9)" />
<use xlink:href="#f6_k" transform="matrix(14,0,0,14,440.4,328.9)" />
<use xlink:href="#f6_bz" transform="matrix(14,0,0,14,150.4,362.1)" />
<use xlink:href="#f6_d4" transform="matrix(14,0,0,14,163.9,362.1)" />
<use xlink:href="#f6_c1" transform="matrix(14,0,0,14,163.7,362.1)" />
<use xlink:href="#f6_d4" transform="matrix(14,0,0,14,171.7,362.1)" />
<use xlink:href="#f6_cb" transform="matrix(14,0,0,14,177.8,362.1)" />
<use xlink:href="#f6_c1" transform="matrix(14,0,0,14,192.7,362.1)" />
<use xlink:href="#f6_bv" transform="matrix(14,0,0,14,206.7,362.1)" />
<use xlink:href="#f6_d4" transform="matrix(14,0,0,14,218.7,362.1)" />
<use xlink:href="#f6_cb" transform="matrix(14,0,0,14,224.2,362.1)" />
<use xlink:href="#f6_br" transform="matrix(14,0,0,14,239.1,362.1)" />
<use xlink:href="#f6_ct" transform="matrix(14,0,0,14,250.8,362.1)" />
<use xlink:href="#f6_bp" transform="matrix(14,0,0,14,262.1,362.1)" />
<use xlink:href="#f6_d4" transform="matrix(14,0,0,14,274.5,362.1)" />
<use xlink:href="#f6_c1" transform="matrix(14,0,0,14,274.4,362.1)" />
<use xlink:href="#f6_ct" transform="matrix(14,0,0,14,282.8,362.1)" />
<use xlink:href="#f6_cc" transform="matrix(14,0,0,14,294.1,362.1)" />
<use xlink:href="#f6_ct" transform="matrix(14,0,0,14,305.7,362.1)" />
<use xlink:href="#f6_no" transform="matrix(14,0,0,14,311.3,362.1)" />
<use xlink:href="#f6_bq" transform="matrix(14,0,0,14,311.3,362.1)" />
<use xlink:href="#f6_c1" transform="matrix(14,0,0,14,330.1,362.1)" />
<use xlink:href="#f6_cc" transform="matrix(14,0,0,14,338.5,362.1)" />
<use xlink:href="#f6_d4" transform="matrix(14,0,0,14,350.5,362.1)" />
<use xlink:href="#f6_g" transform="matrix(14,0,0,14,355.8,362.1)" />
<use xlink:href="#f6_q" transform="matrix(14,0,0,14,361.7,362.1)" />
<use xlink:href="#f6_h" transform="matrix(14,0,0,14,373.3,362.1)" />
<use xlink:href="#f6_g" transform="matrix(14,0,0,14,384.8,362.1)" />
<use xlink:href="#f6_b1" transform="matrix(14,0,0,14,390.7,362.1)" />
<use xlink:href="#f6_br" transform="matrix(14,0,0,14,417.9,362.1)" />
<use xlink:href="#f6_ct" transform="matrix(14,0,0,14,429.5,362.1)" />
<use xlink:href="#f6_br" transform="matrix(14,0,0,14,435.2,362.1)" />
<use xlink:href="#f6_ct" transform="matrix(14,0,0,14,446.8,362.1)" />
<use xlink:href="#f6_h" transform="matrix(14,0,0,14,452.5,362.1)" />
<use xlink:href="#f6_pc" transform="matrix(14,0,0,14,458.3,362.1)" />
<use xlink:href="#f6_pc" transform="matrix(14,0,0,14,462.6,362.1)" />
<use xlink:href="#f6_pc" transform="matrix(14,0,0,14,466.9,362.1)" />
<use xlink:href="#f6_bz" transform="matrix(14,0,0,14,181.3,420.5)" />
<use xlink:href="#f6_d4" transform="matrix(14,0,0,14,194.8,420.5)" />
<use xlink:href="#f6_c1" transform="matrix(14,0,0,14,194.7,420.5)" />
<use xlink:href="#f6_d4" transform="matrix(14,0,0,14,202.7,420.5)" />
<use xlink:href="#f6_br" transform="matrix(14,0,0,14,208.7,420.5)" />
<use xlink:href="#f6_ct" transform="matrix(14,0,0,14,220.4,420.5)" />
<use xlink:href="#f6_br" transform="matrix(14,0,0,14,226,420.5)" />
<use xlink:href="#f6_ct" transform="matrix(14,0,0,14,237.7,420.5)" />
<use xlink:href="#f6_bp" transform="matrix(14,0,0,14,249,420.5)" />
<use xlink:href="#f6_cw" transform="matrix(14,0,0,14,261.8,420.4)" />
<use xlink:href="#f6_cc" transform="matrix(14,0,0,14,267,420.5)" />
<use xlink:href="#f6_bz" transform="matrix(14,0,0,14,278.6,420.5)" />
<use xlink:href="#f6_d4" transform="matrix(14,0,0,14,292,420.5)" />
<use xlink:href="#f6_c8" transform="matrix(14,0,0,14,291.9,420.5)" />
<use xlink:href="#f6_ct" transform="matrix(14,0,0,14,307.8,420.5)" />
<use xlink:href="#f6_bz" transform="matrix(14,0,0,14,319.1,420.5)" />
<use xlink:href="#f6_d4" transform="matrix(14,0,0,14,332.5,420.5)" />
<use xlink:href="#f6_c1" transform="matrix(14,0,0,14,332.4,420.5)" />
<use xlink:href="#f6_d4" transform="matrix(14,0,0,14,340.4,420.5)" />
<use xlink:href="#f6_cb" transform="matrix(14,0,0,14,346.4,420.5)" />
<use xlink:href="#f6_ct" transform="matrix(14,0,0,14,361.3,420.5)" />
<use xlink:href="#f6_no" transform="matrix(14,0,0,14,366.9,420.5)" />
<use xlink:href="#f6_bq" transform="matrix(14,0,0,14,366.9,420.5)" />
<use xlink:href="#f6_c1" transform="matrix(14,0,0,14,385.8,420.5)" />
<use xlink:href="#f6_cc" transform="matrix(14,0,0,14,394.2,420.5)" />
<use xlink:href="#f6_d4" transform="matrix(14,0,0,14,406.1,420.5)" />
<use xlink:href="#f6_g" transform="matrix(14,0,0,14,411.4,420.5)" />
<use xlink:href="#f6_q" transform="matrix(14,0,0,14,417.3,420.5)" />
<use xlink:href="#f6_h" transform="matrix(14,0,0,14,429,420.5)" />
<use xlink:href="#f6_k" transform="matrix(14,0,0,14,434.8,420.5)" />
<use xlink:href="#f6_bz" transform="matrix(14,0,0,14,196.2,453.8)" />
<use xlink:href="#f6_d4" transform="matrix(14,0,0,14,209.7,453.8)" />
<use xlink:href="#f6_c1" transform="matrix(14,0,0,14,209.6,453.8)" />
<use xlink:href="#f6_d4" transform="matrix(14,0,0,14,217.6,453.8)" />
<use xlink:href="#f6_cb" transform="matrix(14,0,0,14,223.6,453.8)" />
<use xlink:href="#f6_c1" transform="matrix(14,0,0,14,238.5,453.8)" />
<use xlink:href="#f6_bv" transform="matrix(14,0,0,14,252.5,453.8)" />
<use xlink:href="#f6_d4" transform="matrix(14,0,0,14,264.5,453.8)" />
<use xlink:href="#f6_cb" transform="matrix(14,0,0,14,270.1,453.8)" />
<use xlink:href="#f6_br" transform="matrix(14,0,0,14,285,453.8)" />
<use xlink:href="#f6_ct" transform="matrix(14,0,0,14,296.6,453.8)" />
<use xlink:href="#f6_bp" transform="matrix(14,0,0,14,307.9,453.8)" />
<use xlink:href="#f6_d4" transform="matrix(14,0,0,14,320.4,453.8)" />
<use xlink:href="#f6_c1" transform="matrix(14,0,0,14,320.2,453.8)" />
<use xlink:href="#f6_ct" transform="matrix(14,0,0,14,328.6,453.8)" />
<use xlink:href="#f6_cc" transform="matrix(14,0,0,14,339.9,453.8)" />
<use xlink:href="#f6_ct" transform="matrix(14,0,0,14,351.5,453.8)" />
<use xlink:href="#f6_no" transform="matrix(14,0,0,14,357.1,453.8)" />
<use xlink:href="#f6_bq" transform="matrix(14,0,0,14,357.1,453.8)" />
<use xlink:href="#f6_c1" transform="matrix(14,0,0,14,376,453.8)" />
<use xlink:href="#f6_cc" transform="matrix(14,0,0,14,384.4,453.8)" />
<use xlink:href="#f6_d4" transform="matrix(14,0,0,14,396.3,453.8)" />
<use xlink:href="#f6_g" transform="matrix(14,0,0,14,401.6,453.8)" />
<use xlink:href="#f6_q" transform="matrix(14,0,0,14,407.5,453.8)" />
<use xlink:href="#f6_h" transform="matrix(14,0,0,14,419.2,453.8)" />
<use xlink:href="#f6_bz" transform="matrix(14,0,0,14,172.2,487)" />
<use xlink:href="#f6_d4" transform="matrix(14,0,0,14,185.6,487)" />
<use xlink:href="#f6_c1" transform="matrix(14,0,0,14,185.5,487)" />
<use xlink:href="#f6_d4" transform="matrix(14,0,0,14,193.5,487)" />
<use xlink:href="#f6_c8" transform="matrix(14,0,0,14,199.6,487)" />
<use xlink:href="#f6_e1" transform="matrix(14,0,0,14,215.4,487)" />
<use xlink:href="#f6_cw" transform="matrix(14,0,0,14,228,486.9)" />
<use xlink:href="#f6_dj" transform="matrix(14,0,0,14,224.6,487.4)" />
<use xlink:href="#f6_bg" transform="matrix(14,0,0,14,227.5,487)" />
<use xlink:href="#f6_c0" transform="matrix(14,0,0,14,241.7,487)" />
<use xlink:href="#f6_b9" transform="matrix(14,0,0,14,265.6,487)" />
<use xlink:href="#f6_d4" transform="matrix(14,0,0,14,276.8,487)" />
<use xlink:href="#f6_br" transform="matrix(14,0,0,14,286.8,487)" />
<use xlink:href="#f6_ct" transform="matrix(14,0,0,14,298.5,487)" />
<use xlink:href="#f6_br" transform="matrix(14,0,0,14,304.1,487)" />
<use xlink:href="#f6_ct" transform="matrix(14,0,0,14,315.7,487)" />
<use xlink:href="#f6_bz" transform="matrix(14,0,0,14,327,487)" />
<use xlink:href="#f6_d4" transform="matrix(14,0,0,14,340.5,487)" />
<use xlink:href="#f6_c1" transform="matrix(14,0,0,14,340.4,487)" />
<use xlink:href="#f6_d4" transform="matrix(14,0,0,14,348.3,487)" />
<use xlink:href="#f6_cb" transform="matrix(14,0,0,14,354.4,487)" />
<use xlink:href="#f6_ct" transform="matrix(14,0,0,14,369.3,487)" />
<use xlink:href="#f6_no" transform="matrix(14,0,0,14,374.9,487)" />
<use xlink:href="#f6_bq" transform="matrix(14,0,0,14,374.9,487)" />
<use xlink:href="#f6_c1" transform="matrix(14,0,0,14,393.8,487)" />
<use xlink:href="#f6_cc" transform="matrix(14,0,0,14,402.2,487)" />
<use xlink:href="#f6_d4" transform="matrix(14,0,0,14,414.1,487)" />
<use xlink:href="#f6_g" transform="matrix(14,0,0,14,419.4,487)" />
<use xlink:href="#f6_q" transform="matrix(14,0,0,14,425.3,487)" />
<use xlink:href="#f6_h" transform="matrix(14,0,0,14,437,487)" />
<use xlink:href="#f6_k" transform="matrix(14,0,0,14,442.8,487)" />
<use xlink:href="#f6_bg" transform="matrix(14,0,0,14,176.8,520.2)" />
<use xlink:href="#f6_d5" transform="matrix(14,0,0,14,191.2,520.2)" />
<use xlink:href="#f6_cb" transform="matrix(14,0,0,14,191,520.2)" />
<use xlink:href="#f6_d4" transform="matrix(14,0,0,14,206,520.2)" />
<use xlink:href="#f6_cb" transform="matrix(14,0,0,14,211.6,520.2)" />
<use xlink:href="#f6_cx" transform="matrix(14,0,0,14,226.4,520.1)" />
<use xlink:href="#f6_c1" transform="matrix(14,0,0,14,226.4,520.2)" />
<use xlink:href="#f6_bg" transform="matrix(14,0,0,14,234.8,520.2)" />
<use xlink:href="#f6_e6" transform="matrix(14,0,0,14,254.7,520.2)" />
<use xlink:href="#f6_b9" transform="matrix(14,0,0,14,266.8,520.2)" />
<use xlink:href="#f6_ct" transform="matrix(14,0,0,14,282.3,520.2)" />
<use xlink:href="#f6_c8" transform="matrix(14,0,0,14,287.9,520.2)" />
<use xlink:href="#f6_br" transform="matrix(14,0,0,14,309.5,520.2)" />
<use xlink:href="#f6_d8" transform="matrix(14,0,0,14,321.1,520.2)" />
<use xlink:href="#f6_bt" transform="matrix(14,0,0,14,326.8,520.2)" />
<use xlink:href="#f6_d8" transform="matrix(14,0,0,14,338.5,520.2)" />
<use xlink:href="#f6_dj" transform="matrix(14,0,0,14,342.8,521.1)" />
<use xlink:href="#f6_cb" transform="matrix(14,0,0,14,349.8,520.2)" />
<use xlink:href="#f6_ct" transform="matrix(14,0,0,14,364.6,520.2)" />
<use xlink:href="#f6_no" transform="matrix(14,0,0,14,370.3,520.2)" />
<use xlink:href="#f6_bq" transform="matrix(14,0,0,14,370.3,520.2)" />
<use xlink:href="#f6_c1" transform="matrix(14,0,0,14,389.1,520.2)" />
<use xlink:href="#f6_cc" transform="matrix(14,0,0,14,397.5,520.2)" />
<use xlink:href="#f6_d4" transform="matrix(14,0,0,14,409.5,520.2)" />
<use xlink:href="#f6_g" transform="matrix(14,0,0,14,414.8,520.2)" />
<use xlink:href="#f6_q" transform="matrix(14,0,0,14,420.7,520.2)" />
<use xlink:href="#f6_h" transform="matrix(14,0,0,14,432.3,520.2)" />
<use xlink:href="#f6_k" transform="matrix(14,0,0,14,438.2,520.2)" />
<use xlink:href="#f6_bz" transform="matrix(14,0,0,14,188.2,553.4)" />
<use xlink:href="#f6_d4" transform="matrix(14,0,0,14,201.7,553.4)" />
<use xlink:href="#f6_c1" transform="matrix(14,0,0,14,201.6,553.4)" />
<use xlink:href="#f6_d4" transform="matrix(14,0,0,14,209.5,553.4)" />
<use xlink:href="#f6_br" transform="matrix(14,0,0,14,215.6,553.4)" />
<use xlink:href="#f6_ct" transform="matrix(14,0,0,14,227.3,553.4)" />
<use xlink:href="#f6_br" transform="matrix(14,0,0,14,232.9,553.4)" />
<use xlink:href="#f6_ct" transform="matrix(14,0,0,14,244.6,553.4)" />
<use xlink:href="#f6_bp" transform="matrix(14,0,0,14,255.9,553.4)" />
<use xlink:href="#f6_cx" transform="matrix(14,0,0,14,268.1,553.3)" />
<use xlink:href="#f6_cc" transform="matrix(14,0,0,14,273.8,553.4)" />
<use xlink:href="#f6_bz" transform="matrix(14,0,0,14,285.4,553.4)" />
<use xlink:href="#f6_d4" transform="matrix(14,0,0,14,298.9,553.4)" />
<use xlink:href="#f6_c8" transform="matrix(14,0,0,14,298.8,553.4)" />
<use xlink:href="#f6_ct" transform="matrix(14,0,0,14,314.6,553.4)" />
<use xlink:href="#f6_bz" transform="matrix(14,0,0,14,325.9,553.4)" />
<use xlink:href="#f6_d4" transform="matrix(14,0,0,14,339.4,553.4)" />
<use xlink:href="#f6_c1" transform="matrix(14,0,0,14,339.3,553.4)" />
<use xlink:href="#f6_d4" transform="matrix(14,0,0,14,347.2,553.4)" />
<use xlink:href="#f6_cb" transform="matrix(14,0,0,14,353.3,553.4)" />
<use xlink:href="#f6_ct" transform="matrix(14,0,0,14,368.2,553.4)" />
<use xlink:href="#f6_no" transform="matrix(14,0,0,14,373.8,553.4)" />
<use xlink:href="#f6_bq" transform="matrix(14,0,0,14,373.8,553.4)" />
<use xlink:href="#f6_c1" transform="matrix(14,0,0,14,392.7,553.4)" />
<use xlink:href="#f6_cc" transform="matrix(14,0,0,14,401,553.4)" />
<use xlink:href="#f6_d4" transform="matrix(14,0,0,14,413,553.4)" />
<use xlink:href="#f6_8l" transform="matrix(14,0,0,14,412.7,553.4)" />
<use xlink:href="#f6_ay" transform="matrix(14,0,0,14,168.7,611.9)" />
<use xlink:href="#f6_bz" transform="matrix(14,0,0,14,186.3,611.9)" />
<use xlink:href="#f6_ct" transform="matrix(14,0,0,14,199.6,611.9)" />
<use xlink:href="#f6_nu" transform="matrix(14,0,0,14,205.2,611.9)" />
<use xlink:href="#f6_c3" transform="matrix(14,0,0,14,210.9,611.9)" />
<use xlink:href="#f6_b9" transform="matrix(14,0,0,14,225.6,611.9)" />
<use xlink:href="#f6_nu" transform="matrix(14,0,0,14,246.7,611.9)" />
<use xlink:href="#f6_bg" transform="matrix(14,0,0,14,252.3,611.9)" />
<use xlink:href="#f6_cb" transform="matrix(14,0,0,14,266.6,611.9)" />
<use xlink:href="#f6_bt" transform="matrix(14,0,0,14,281.5,611.9)" />
<use xlink:href="#f6_d4" transform="matrix(14,0,0,14,293.3,611.9)" />
<use xlink:href="#f6_by" transform="matrix(14,0,0,14,298.9,611.9)" />
<use xlink:href="#f6_cv" transform="matrix(14,0,0,14,312.8,611.9)" />
<use xlink:href="#f6_bp" transform="matrix(14,0,0,14,324.1,611.9)" />
<use xlink:href="#f6_d4" transform="matrix(14,0,0,14,336.6,611.9)" />
<use xlink:href="#f6_c1" transform="matrix(14,0,0,14,336.4,611.9)" />
<use xlink:href="#f6_ct" transform="matrix(14,0,0,14,344.8,611.9)" />
<use xlink:href="#f6_bt" transform="matrix(14,0,0,14,356.1,611.9)" />
<use xlink:href="#f6_ct" transform="matrix(14,0,0,14,367.8,611.9)" />
<use xlink:href="#f6_bz" transform="matrix(14,0,0,14,373.4,611.9)" />
<use xlink:href="#f6_nu" transform="matrix(14,0,0,14,392.4,611.9)" />
<use xlink:href="#f6_c3" transform="matrix(14,0,0,14,398.1,611.9)" />
<use xlink:href="#f6_c0" transform="matrix(14,0,0,14,412.8,611.9)" />
<use xlink:href="#f6_ct" transform="matrix(14,0,0,14,425.3,611.9)" />
<use xlink:href="#f6_cc" transform="matrix(14,0,0,14,436.6,611.9)" />
<use xlink:href="#f6_d5" transform="matrix(14,0,0,14,448.5,611.9)" />
<use xlink:href="#f6_k" transform="matrix(14,0,0,14,448.2,611.9)" />
<use xlink:href="#f6_bp" transform="matrix(14,0,0,14,196.2,645.1)" />
<use xlink:href="#f6_cx" transform="matrix(14,0,0,14,208.5,645)" />
<use xlink:href="#f6_bt" transform="matrix(14,0,0,14,208.6,645.1)" />
<use xlink:href="#f6_d4" transform="matrix(14,0,0,14,220.4,645.1)" />
<use xlink:href="#f6_ap" transform="matrix(14,0,0,14,225.9,645.1)" />
<use xlink:href="#f6_cb" transform="matrix(14,0,0,14,237.3,645.1)" />
<use xlink:href="#f6_b9" transform="matrix(14,0,0,14,252.2,645.1)" />
<use xlink:href="#f6_ct" transform="matrix(14,0,0,14,267.7,645.1)" />
<use xlink:href="#f6_bv" transform="matrix(14,0,0,14,279,645.1)" />
<use xlink:href="#f6_cx" transform="matrix(14,0,0,14,290.8,645)" />
<use xlink:href="#f6_c1" transform="matrix(14,0,0,14,290.8,645.1)" />
<use xlink:href="#f6_ct" transform="matrix(14,0,0,14,299.2,645.1)" />
<use xlink:href="#f6_bc" transform="matrix(14,0,0,14,310.5,645.1)" />
<use xlink:href="#f6_c1" transform="matrix(14,0,0,14,324.4,645.1)" />
<use xlink:href="#f6_by" transform="matrix(14,0,0,14,338.4,645.1)" />
<use xlink:href="#f6_c1" transform="matrix(14,0,0,14,352.4,645.1)" />
<use xlink:href="#f6_cu" transform="matrix(14,0,0,14,366.4,645.1)" />
<use xlink:href="#f6_br" transform="matrix(14,0,0,14,372.1,645.1)" />
<use xlink:href="#f6_c0" transform="matrix(14,0,0,14,383.7,645.1)" />
<use xlink:href="#f6_ct" transform="matrix(14,0,0,14,396.3,645.1)" />
<use xlink:href="#f6_cc" transform="matrix(14,0,0,14,407.6,645.1)" />
<use xlink:href="#f6_d5" transform="matrix(14,0,0,14,419.5,645.1)" />
<use xlink:href="#f6_k" transform="matrix(14,0,0,14,419.2,645.1)" />
<use xlink:href="#f6_al" transform="matrix(14,0,0,14,152.7,678.3)" />
<use xlink:href="#f6_dj" transform="matrix(14,0,0,14,165.7,678.8)" />
<use xlink:href="#f6_bs" transform="matrix(14,0,0,14,168.6,678.3)" />
<use xlink:href="#f6_d4" transform="matrix(14,0,0,14,182.7,678.3)" />
<use xlink:href="#f6_b9" transform="matrix(14,0,0,14,188.2,678.3)" />
<use xlink:href="#f6_d8" transform="matrix(14,0,0,14,203.7,678.3)" />
<use xlink:href="#f6_cu" transform="matrix(14,0,0,14,215,678.3)" />
<use xlink:href="#f6_br" transform="matrix(14,0,0,14,220.6,678.3)" />
<use xlink:href="#f6_ba" transform="matrix(14,0,0,14,232.3,678.3)" />
<use xlink:href="#f6_ct" transform="matrix(14,0,0,14,249,678.3)" />
<use xlink:href="#f6_c0" transform="matrix(14,0,0,14,254.6,678.3)" />
<use xlink:href="#f6_ct" transform="matrix(14,0,0,14,267.2,678.3)" />
<use xlink:href="#f6_k" transform="matrix(14,0,0,14,272.8,678.3)" />
<use xlink:href="#f6_by" transform="matrix(14,0,0,14,283.7,678.3)" />
<use xlink:href="#f6_bk" transform="matrix(14,0,0,14,297.7,678.3)" />
<use xlink:href="#f6_b9" transform="matrix(14,0,0,14,309.2,678.3)" />
<use xlink:href="#f6_d4" transform="matrix(14,0,0,14,320.4,678.3)" />
<use xlink:href="#f6_b9" transform="matrix(14,0,0,14,330.4,678.3)" />
<use xlink:href="#f6_d8" transform="matrix(14,0,0,14,345.9,678.3)" />
<use xlink:href="#f6_c1" transform="matrix(14,0,0,14,357.2,678.3)" />
<use xlink:href="#f6_ct" transform="matrix(14,0,0,14,365.6,678.3)" />
<use xlink:href="#f6_cc" transform="matrix(14,0,0,14,371.2,678.3)" />
<use xlink:href="#f6_cu" transform="matrix(14,0,0,14,388.4,678.3)" />
<use xlink:href="#f6_br" transform="matrix(14,0,0,14,394.1,678.3)" />
<use xlink:href="#f6_ba" transform="matrix(14,0,0,14,405.7,678.3)" />
<use xlink:href="#f6_ct" transform="matrix(14,0,0,14,422.5,678.3)" />
<use xlink:href="#f6_c0" transform="matrix(14,0,0,14,428.1,678.3)" />
<use xlink:href="#f6_ct" transform="matrix(14,0,0,14,440.6,678.3)" />
<use xlink:href="#f6_cc" transform="matrix(14,0,0,14,451.9,678.3)" />
<use xlink:href="#f6_d5" transform="matrix(14,0,0,14,463.9,678.3)" />
<use xlink:href="#f6_k" transform="matrix(14,0,0,14,463.5,678.3)" />
<use xlink:href="#f6_ap" transform="matrix(14,0,0,14,165.3,711.6)" />
<use xlink:href="#f6_bg" transform="matrix(14,0,0,14,176.7,711.6)" />
<use xlink:href="#f6_ch" transform="matrix(14,0,0,14,190.9,711.6)" />
<use xlink:href="#f6_cv" transform="matrix(14,0,0,14,203.6,711.6)" />
<use xlink:href="#f6_n4" transform="matrix(14,0,0,14,214.9,711.6)" />
<use xlink:href="#f6_ao" transform="matrix(14,0,0,14,226.5,711.6)" />
<use xlink:href="#f6_mv" transform="matrix(14,0,0,14,243.7,711.6)" />
<use xlink:href="#f6_cu" transform="matrix(14,0,0,14,255.5,711.6)" />
<use xlink:href="#f6_bt" transform="matrix(14,0,0,14,261.1,711.6)" />
<use xlink:href="#f6_c0" transform="matrix(14,0,0,14,272.8,711.6)" />
<use xlink:href="#f6_ct" transform="matrix(14,0,0,14,285.3,711.6)" />
<use xlink:href="#f6_bp" transform="matrix(14,0,0,14,296.6,711.6)" />
<use xlink:href="#f6_cx" transform="matrix(14,0,0,14,308.9,711.5)" />
<use xlink:href="#f6_bt" transform="matrix(14,0,0,14,308.9,711.6)" />
<use xlink:href="#f6_d4" transform="matrix(14,0,0,14,320.8,711.6)" />
<use xlink:href="#f6_cu" transform="matrix(14,0,0,14,326.3,711.6)" />
<use xlink:href="#f6_bw" transform="matrix(14,0,0,14,331.9,711.6)" />
<use xlink:href="#f6_c1" transform="matrix(14,0,0,14,348,711.6)" />
<use xlink:href="#f6_cb" transform="matrix(14,0,0,14,362.1,711.6)" />
<use xlink:href="#f6_d4" transform="matrix(14,0,0,14,377.1,711.6)" />
<use xlink:href="#f6_bx" transform="matrix(14,0,0,14,382.6,711.6)" />
<use xlink:href="#f6_cb" transform="matrix(14,0,0,14,394.9,711.6)" />
<use xlink:href="#f6_ct" transform="matrix(14,0,0,14,409.8,711.6)" />
<use xlink:href="#f6_c0" transform="matrix(14,0,0,14,415.4,711.6)" />
<use xlink:href="#f6_ct" transform="matrix(14,0,0,14,428,711.6)" />
<use xlink:href="#f6_cc" transform="matrix(14,0,0,14,439.2,711.6)" />
<use xlink:href="#f6_d5" transform="matrix(14,0,0,14,451.2,711.6)" />
<use xlink:href="#f6_k" transform="matrix(14,0,0,14,450.9,711.6)" />
<use xlink:href="#f6_bz" transform="matrix(14,0,0,14,185.9,744.8)" />
<use xlink:href="#f6_d4" transform="matrix(14,0,0,14,199.4,744.8)" />
<use xlink:href="#f6_c1" transform="matrix(14,0,0,14,199.3,744.8)" />
<use xlink:href="#f6_cv" transform="matrix(14,0,0,14,207.6,744.8)" />
<use xlink:href="#f6_bt" transform="matrix(14,0,0,14,218.9,744.8)" />
<use xlink:href="#f6_d5" transform="matrix(14,0,0,14,230.8,744.8)" />
<use xlink:href="#f6_lr" transform="matrix(14,0,0,14,230.6,744.8)" />
<use xlink:href="#f6_c0" transform="matrix(14,0,0,14,237.4,744.8)" />
<use xlink:href="#f6_ct" transform="matrix(14,0,0,14,250,744.8)" />
<use xlink:href="#f6_cu" transform="matrix(14,0,0,14,261.3,744.8)" />
<use xlink:href="#f6_bx" transform="matrix(14,0,0,14,266.9,744.8)" />
<use xlink:href="#f6_be" transform="matrix(14,0,0,14,279.2,744.8)" />
<use xlink:href="#f6_bz" transform="matrix(14,0,0,14,298.8,744.8)" />
<use xlink:href="#f6_oz" transform="matrix(14,0,0,14,312.3,744.8)" />
<use xlink:href="#f6_k" transform="matrix(14,0,0,14,312.2,744.8)" />
<use xlink:href="#f6_cu" transform="matrix(14,0,0,14,323,744.8)" />
<use xlink:href="#f6_b9" transform="matrix(14,0,0,14,328.7,744.8)" />
<use xlink:href="#f6_bt" transform="matrix(14,0,0,14,344.2,744.8)" />
<use xlink:href="#f6_ct" transform="matrix(14,0,0,14,355.9,744.8)" />
<use xlink:href="#f6_c1" transform="matrix(14,0,0,14,361.5,744.8)" />
<use xlink:href="#f6_ct" transform="matrix(14,0,0,14,369.9,744.8)" />
<use xlink:href="#f6_be" transform="matrix(14,0,0,14,381.2,744.8)" />
<use xlink:href="#f6_ct" transform="matrix(14,0,0,14,395.1,744.8)" />
<use xlink:href="#f6_cu" transform="matrix(14,0,0,14,400.8,744.8)" />
<use xlink:href="#f6_cc" transform="matrix(14,0,0,14,406.4,744.8)" />
<use xlink:href="#f6_ax" transform="matrix(14,0,0,14,418,744.8)" />
<use xlink:href="#f6_k" transform="matrix(14,0,0,14,429.9,744.8)" />
<use xlink:href="#f7_4r" transform="matrix(9,0,0,9,286.8,795.2)" />
<use xlink:href="#f8_l" transform="matrix(9,0,0,9,299.6,795.2)" />
<use xlink:href="#f8_k" transform="matrix(9,0,0,9,307.2,795.2)" />
<use xlink:href="#f8_q" transform="matrix(9,0,0,9,314.9,795.2)" />
<use xlink:href="#f7_4r" transform="matrix(9,0,0,9,325.6,795.2)" />
</g>
</g>
<image preserveAspectRatio="none" x="22" y="801" width="581" height="86" xlink:href="img/1.png"/>
<path d="M214.3,97.4H407.9v1.1H214.3V97.4Z" class="g1_112"/>
<image preserveAspectRatio="none" x="202" y="14" width="217" height="26" xlink:href="img/2.png"/>
<defs>
<path d="M686,512V822H333L435,749l2,-237ZM860,-65L686,29V298H440V168L348,118c0,0,-90,30,-190,128c0,0,-100,98,-127,183l52,83H203L189,822H0L-86,937l32,64H1045l86,-115l-33,-64H828L930,749V-31L860,-65Z"
id="f5_bz"
transform="scale(0.001,-0.001)"/>

<path d="M-289,908l-132,216c0,0,-70,120,-169,120c0,0,-83,0,-200,-80l-130,249c0,0,125,78,234,78c0,0,187,0,349,-241L-159,969L-289,908Z"
id="f5_d4"
transform="scale(0.001,-0.001)"/>

<path d="M545,-97L35,405L87,542H295c0,0,1,5,1,280H0L-86,937l32,64H729L814,886L782,822H445L550,749V547c0,0,0,-75,-41,-127c0,0,-41,-52,-129,-111L709,110V41L545,-97Z"
id="f5_c1"
transform="scale(0.001,-0.001)"/>

<path d="M833,530V822H434L539,749V530ZM533,-97L23,405L75,542H284c0,0,2,5,2,280H-10L-97,937l32,64H1193l86,-115l-32,-64H975l102,-73V-31l-70,-34L833,29V333H405L370,309L697,110V41L533,-97Z"
id="f5_cb"
transform="scale(0.001,-0.001)"/>

<path d="M394,379c0,0,57,0,107,30c0,0,51,29,77,86V822H214L318,749V403c0,0,29,-24,76,-24ZM752,-65L578,29V188c0,0,-43,-18,-89,-18c0,0,-138,0,-282,130C207,300,63,431,60,567V822H0L-86,937l32,64H937l87,-115L992,822H720L822,749V-31L752,-65Z"
id="f5_bv"
transform="scale(0.001,-0.001)"/>

<path d="M700,-327L637,-39c0,0,-43,-9,-85,-9c0,0,-109,0,-228,58c0,0,-119,59,-199,160c0,0,-79,102,-79,220c0,0,0,134,95,216c0,0,94,82,252,85H516V822H0L-86,937l32,64H929l85,-115L982,822H645L747,749V468l2,-4H478c0,0,-98,0,-148,-45c0,0,-50,-46,-50,-110c0,0,0,-68,53,-121c0,0,46,-20,99,-20c0,0,74,0,141,35L555,332l154,56L897,154C897,154,862,87,785,34L933,-233L700,-327Z"
id="f5_br"
transform="scale(0.001,-0.001)"/>

<path d="M277,-65L102,29V822H0L-86,937l32,64H463L548,886L516,822H244L347,749V-31L277,-65Z"
id="f5_ct"
transform="scale(0.001,-0.001)"/>

<path d="M342,-69c0,0,-146,139,-224,256c0,0,-78,117,-78,226c0,0,0,120,90,193c0,0,90,72,243,72H599V822H0L-86,937l32,64H959l86,-115l-32,-64H741L843,749V-31L773,-65L599,29V445H448c0,0,-81,0,-123,-34c0,0,-42,-34,-42,-90c0,0,0,-54,43,-118c0,0,44,-64,143,-163L342,-69Z"
id="f5_bp"
transform="scale(0.001,-0.001)"/>

<path d="M756,-314c0,0,-304,57,-481,187C275,-127,98,2,98,170c0,0,0,117,82,197c0,0,-110,91,-110,195c0,0,0,74,64,127c0,0,63,54,188,54H567v79H0L-86,937l32,64H906L992,886L959,822H684L787,749V535H383c0,0,-110,0,-110,-67c0,0,0,-19,10,-36c0,0,78,32,174,32c0,0,162,0,277,-87c0,0,115,-87,115,-214c0,0,0,-143,-142,-228L518,76c0,0,125,94,145,173c0,0,-55,26,-113,26c0,0,-84,0,-144,-45c0,0,-59,-45,-59,-118c0,0,0,-107,121,-166c0,0,120,-60,336,-105L756,-314Z"
id="f5_cc"
transform="scale(0.001,-0.001)"/>

<path d="M0,822L-86,937l32,64H15L101,886L69,822Z"
id="f5_no"
transform="scale(0.001,-0.001)"/>

<path d="M842,-65L668,29V141c0,0,-66,-33,-142,-33c0,0,-146,0,-279,109c0,0,-134,108,-209,287l29,78c0,0,324,35,324,203c0,0,0,46,-27,80c0,0,-13,6,-29,6c0,0,-32,0,-57,-23c0,0,-24,-23,-24,-60c0,0,0,-49,45,-91L211,636C211,636,49,746,49,857c0,0,0,73,59,126c0,0,60,53,146,53c0,0,128,0,236,-109c0,0,107,-110,107,-239c0,0,0,-98,-74,-182c0,0,-75,-83,-222,-119c0,0,20,-51,52,-95c0,0,1,0,4,0c20,0,102,2,181,39c0,0,90,42,130,121V822H636L550,937l32,64h445l85,-115l-32,-64H810L912,749V-31L842,-65Z"
id="f5_bq"
transform="scale(0.001,-0.001)"/>

<path d="M675,-274L602,21C602,21,550,3,498,3C498,3,347,3,210,118C210,118,73,232,73,373c0,0,0,113,84,184c0,0,84,71,222,72H524V822H0l-45,76l14,31H834l46,-76L866,822H585l66,-58V504l-3,2l3,-3H408c0,0,-95,0,-154,-53c0,0,-58,-53,-58,-132c0,0,0,-49,27,-100c0,0,28,-50,83,-84c0,0,44,-15,96,-15c0,0,91,0,160,46L535,303l101,48L773,188c0,0,-8,-28,-34,-66c0,0,-27,-38,-62,-64L813,-221L675,-274Z"
id="f6_br"
transform="scale(0.001,-0.001)"/>

<path d="M228,-49L138,8V822H0l-45,76l14,31H119L-33,1144c0,0,-70,92,-157,92c0,0,-69,0,-159,-58l-72,118c0,0,89,73,181,73c0,0,140,0,257,-170L205,929H402l46,-76L434,822H199l65,-58V-39L228,-49Z"
id="f6_d8"
transform="scale(0.001,-0.001)"/>

<path d="M688,-243c0,0,-256,53,-408,173c0,0,-152,119,-152,270c0,0,0,101,68,171c0,0,-101,84,-101,179c0,0,0,64,53,112c0,0,54,47,191,47H587V822H0l-45,76l14,31H830l45,-76L862,822H640l66,-58V585H362c0,0,-159,-1,-159,-92c0,0,0,-41,46,-80c0,0,76,47,183,47c0,0,135,0,230,-76c0,0,96,-75,96,-187C758,197,758,67,629,2L545,104c0,0,49,30,81,75c0,0,32,44,32,82c0,0,0,16,-4,26c0,0,-64,58,-167,58c0,0,-97,0,-166,-50v-2c0,0,-67,-52,-67,-131c0,0,0,-116,132,-199c0,0,132,-84,334,-132l-32,-74Z"
id="f6_cc"
transform="scale(0.001,-0.001)"/>

<path d="M228,-49L138,8V822H0l-45,76l14,31H402l46,-76L434,822H199l65,-58V-39L228,-49Z"
id="f6_ct"
transform="scale(0.001,-0.001)"/>

<path d="M92,380L46,457l14,30H448l45,-76L480,380Z"
id="f6_pd"
transform="scale(0.001,-0.001)"/>

<path d="M228,-49L138,8V822H0l-45,76l14,31H134c0,0,-91,93,-91,200c0,0,0,109,92,174c0,0,93,66,253,66c0,0,186,0,398,-89c0,0,212,-90,430,-264l-49,-47c0,0,-424,285,-727,285c0,0,-125,0,-201,-49c0,0,-76,-48,-76,-137c0,0,0,-67,52,-139H402l46,-76L434,822H199l65,-58V-39L228,-49Z"
id="f6_nu"
transform="scale(0.001,-0.001)"/>

<path d="M845,-49L755,8V513H497c0,0,61,-45,93,-110c0,0,33,-64,33,-128c0,0,0,-90,-58,-144c0,0,-59,-53,-143,-53c0,0,-133,0,-234,139C188,217,87,356,20,596l76,24c0,0,60,-201,127,-306c0,0,67,-105,160,-105c0,0,57,0,91,36c0,0,33,36,33,91c0,0,0,84,-73,159L295,558v71H755V822H0l-45,76l14,31H1019l46,-76l-14,-31H816l66,-58V-39L845,-49Z"
id="f6_bg"
transform="scale(0.001,-0.001)"/>

<path d="M799,475V822H350l66,-55V564c0,0,0,-43,-25,-89ZM527,-71L52,414l34,92H277c0,0,12,32,12,72V822H0l-45,76l14,31H1063l46,-76l-14,-31H860l66,-58V-39L889,-49L799,8V370H315L264,316L610,34L611,8L527,-71Z"
id="f6_cb"
transform="scale(0.001,-0.001)"/>

<path d="M663,-49L573,8V445H299V280L226,251c0,0,-105,99,-162,238l63,72H573V822H0l-45,76l14,31H837l46,-76L869,822H634l66,-58V-39L663,-49Z"
id="f6_bt"
transform="scale(0.001,-0.001)"/>

<path d="M-214,863l-199,281c0,0,-70,92,-157,92c0,0,-69,0,-159,-58l-72,118c0,0,89,73,180,73c0,0,141,0,258,-170L-155,901l-59,-38Z"
id="f6_d4"
transform="scale(0.001,-0.001)"/>

<path d="M823,-49L733,8V339H445V191L371,160c0,0,-56,36,-120,105c0,0,-63,70,-89,131l41,59H313V735c0,0,0,99,-55,140c0,0,-3,1,-8,1c-16,0,-48,-3,-71,-23c0,0,-31,-26,-31,-66c0,0,0,-69,81,-113L189,620C189,620,31,720,31,828c0,0,0,61,45,99c0,0,46,37,109,37c0,0,96,0,173,-86c0,0,76,-87,79,-194V455H733V822H556l-46,76l14,31H998l45,-76l-13,-31H794l66,-58V-39L823,-49Z"
id="f6_by"
transform="scale(0.001,-0.001)"/>

<path d="M228,-49L138,8V822H0l-45,76l14,31H138c0,0,-109,342,-284,342c0,0,-62,0,-102,-40c0,0,-40,-39,-40,-93c0,0,0,-61,51,-134l-42,-32c0,0,-128,113,-128,226c0,0,0,79,60,136c0,0,61,56,154,56c0,0,137,0,249,-125c0,0,112,-125,169,-336H402l46,-76L434,822H199l65,-58V-39L228,-49Z"
id="f6_cv"
transform="scale(0.001,-0.001)"/>

<path d="M347,-57C347,-57,66,211,66,394c0,0,0,98,74,164c0,0,74,65,225,65H616V822H0l-45,76l14,31H880l46,-76L912,822H677l66,-58V-39L706,-49L616,8V500H428c0,0,-239,0,-239,-161c0,0,0,-136,214,-343L347,-57Z"
id="f6_bp"
transform="scale(0.001,-0.001)"/>

<path d="M527,-71L52,414l34,92H277c0,0,12,32,12,72V822H0l-45,76l14,31H599l46,-76L631,822H350l66,-55V564c0,0,0,-96,-152,-248L610,34L611,8L527,-71Z"
id="f6_c1"
transform="scale(0.001,-0.001)"/>

<path d="M825,-49L735,8V217c0,0,-86,-72,-197,-72c0,0,-130,0,-238,91c0,0,-107,91,-107,204c0,0,0,55,27,105H55L12,616l14,30H574l46,-76L607,539H396c0,0,-78,-49,-78,-162c0,0,0,-70,40,-111c0,0,39,-15,94,-15c0,0,84,0,163,41c0,0,79,41,120,121V822H0l-45,76l14,31H999l46,-76l-14,-31H796l66,-58V-39L825,-49Z"
id="f6_be"
transform="scale(0.001,-0.001)"/>

<path d="M342,324c0,0,45,0,75,34c0,0,31,33,31,100V822H165l66,-58V390c0,0,32,-66,111,-66ZM853,-49L762,8V822H509l65,-58V455c0,0,0,-134,-51,-185c0,0,-52,-52,-127,-52c0,0,-98,0,-195,99c0,0,-97,99,-97,209V822H0l-45,76l14,31H1027l46,-76l-14,-31H823l66,-58V-39L853,-49Z"
id="f6_bo"
transform="scale(0.001,-0.001)"/>

<path d="M0,1062c0,0,-26,11,-60,36c0,0,-34,26,-51,49c0,0,39,81,91,110c0,0,60,-23,106,-85c0,0,-28,-70,-86,-110Z"
id="f6_dj"
transform="scale(0.001,-0.001)"/>

<path d="M689,445V822H286l65,-58l8,-319ZM779,-49L689,8V328H370V180L296,150c0,0,-56,35,-120,104c0,0,-63,70,-89,131l41,60H238L223,822H0l-45,76l14,31H953l46,-76L985,822H750l66,-58V-39L779,-49Z"
id="f6_bz"
transform="scale(0.001,-0.001)"/>

<path d="M-91,1001c0,0,-27,10,-61,36c0,0,-33,26,-50,49c0,0,38,81,90,110c0,0,61,-23,107,-85c0,0,-28,-71,-86,-110ZM-214,863l-199,281c0,0,-70,92,-157,92c0,0,-69,0,-159,-58l-72,118c0,0,89,73,180,73c0,0,141,0,258,-170L-155,901l-59,-38Z"
id="f6_oz"
transform="scale(0.001,-0.001)"/>

<path d="M108,-222l-44,58c0,0,96,81,104,164L89,61c0,0,12,83,93,122c0,0,50,-15,79,-55c0,0,29,-39,29,-90c0,0,0,-69,-48,-142c0,0,-48,-72,-134,-118Z"
id="f6_k"
transform="scale(0.001,-0.001)"/>

<path d="M283,260c0,0,122,0,209,113V513c0,0,-90,51,-160,51c0,0,-80,0,-129,-50c0,0,-49,-50,-49,-118c0,0,0,-60,35,-110c0,0,45,-26,94,-26ZM582,-49L492,8V211c0,0,-63,-54,-141,-54c0,0,-113,0,-213,92c0,0,-100,92,-100,205c0,0,0,93,69,157c0,0,69,64,162,64c0,0,32,0,64,-9L492,590V822H0l-45,76l14,31H1108l45,-76l-13,-31H553l66,-58V524c0,0,91,89,192,89c0,0,98,0,171,-79c0,0,72,-79,72,-186c0,0,0,-178,-224,-330L736,124c0,0,219,153,219,269c0,0,0,44,-26,75c0,0,-26,32,-81,32c0,0,-109,0,-229,-155V-39L582,-49Z"
id="f6_b9"
transform="scale(0.001,-0.001)"/>

<path d="M252,385l310,78l22,-9c0,0,107,-43,200,-43c0,0,91,0,151,41V822H603l66,-58V585H373c0,0,-184,0,-184,-99c0,0,0,-48,63,-101ZM483,-305L295,-10c0,0,-90,22,-156,74l41,170h66L351,63c0,0,126,4,207,62c0,0,82,58,82,139c0,0,0,37,-18,71L365,266c0,0,-110,15,-197,102c0,0,-87,87,-87,176c0,0,0,69,59,117c0,0,59,48,172,48H550V822H0l-45,76l14,31H1199l46,-76l-14,-31H996l66,-58V-39l-37,-10L935,8V318c0,0,-41,-15,-78,-15c0,0,-52,0,-131,30c0,0,32,-55,32,-111c0,0,0,-109,-98,-179c0,0,-98,-69,-254,-69L599,-216L483,-305Z"
id="f6_bh"
transform="scale(0.001,-0.001)"/>

<path d="M-253,-363c0,0,-194,0,-440,288l48,52c0,0,108,-118,192,-176c0,0,83,-58,159,-58c0,0,64,0,101,36c0,0,37,37,37,85c0,0,0,68,-65,91L-327,-152l-83,89c0,0,54,86,153,86c0,0,81,0,140,-61c0,0,58,-62,58,-146c0,0,0,-78,-55,-128c0,0,-55,-51,-139,-51Z"
id="f6_oe"
transform="scale(0.001,-0.001)"/>

<path d="M374,248c0,0,77,0,149,36c0,0,71,37,110,107V822H284c0,0,138,-96,138,-208c0,0,0,-151,-228,-192c0,0,29,-104,89,-158c0,0,41,-16,91,-16ZM723,-49L633,8V200c0,0,-69,-56,-170,-56c0,0,-122,0,-240,94c0,0,-118,94,-179,237l20,55c0,0,133,17,187,44c0,0,55,28,55,84c0,0,0,45,-30,81c0,0,-30,36,-99,83H0l-45,76l14,31H897l46,-76L929,822H694l65,-58V-39L723,-49Z"
id="f6_c0"
transform="scale(0.001,-0.001)"/>

<path d="M-214,860l-227,219c0,0,-73,70,-148,70c0,0,-67,0,-160,-58l-72,117c0,0,83,71,176,71c0,0,120,0,232,-124L-221,940l-102,294c0,0,-64,179,-189,179c0,0,-60,0,-133,-33l-60,125c0,0,84,47,164,47c0,0,200,0,281,-276L-150,901l-23,-15l-41,-26Z"
id="f6_d5"
transform="scale(0.001,-0.001)"/>

<path d="M513,460c0,0,61,81,61,179c0,0,0,87,-45,143c0,0,-45,57,-116,57c0,0,-63,0,-102,-43c0,0,-39,-43,-39,-110c0,0,0,-90,68,-151c0,0,68,-61,173,-75ZM581,-83L278,167l-41,-4c0,0,-99,0,-130,37l47,168l51,12l78,-79c0,0,110,40,183,105c0,0,-141,23,-231,107c0,0,-90,84,-90,193c0,0,0,69,37,116H0l-45,76l14,31H1134l45,-76l-13,-31H930l66,-58V-39L959,-49L869,8V822H588c0,0,51,-44,75,-109c0,0,25,-64,25,-122c0,0,0,-105,-81,-213c0,0,-80,-108,-240,-176L658,18l2,-25L581,-83Z"
id="f6_c8"
transform="scale(0.001,-0.001)"/>

<path d="M688,-49L597,8V335L248,81l-92,81L532,425l-81,76c0,0,-80,70,-133,70c0,0,-81,0,-194,-96L38,584c0,0,109,105,223,105c0,0,103,0,213,-107L597,457V822H0l-45,76l14,31H862l46,-76L894,822H658l66,-58V-39L688,-49Z"
id="f6_e1"
transform="scale(0.001,-0.001)"/>

<path d="M-234,-413c0,0,-210,0,-488,322l54,49c0,0,119,-128,209,-193c0,0,90,-65,177,-65c0,0,72,0,113,40c0,0,42,39,42,91c0,0,0,75,-78,106L-323,-181l-90,98c0,0,63,95,167,95c0,0,90,0,155,-69c0,0,66,-70,66,-164c0,0,0,-85,-60,-139c0,0,-61,-53,-149,-53Z"
id="f6_cw"
transform="scale(0.001,-0.001)"/>

<path d="M325,240c0,0,77,0,154,35c0,0,77,35,120,99V500c0,0,-118,73,-222,73c0,0,-97,0,-151,-54c0,0,-53,-53,-53,-128c0,0,0,-73,49,-125c0,0,38,-26,103,-26ZM689,-49L599,8V199c0,0,-73,-65,-179,-65c0,0,-134,0,-252,96c0,0,-118,95,-118,221c0,0,0,102,78,171c0,0,78,69,190,69c0,0,38,0,75,-10L599,582V822H0l-45,76l14,31H863l46,-76L895,822H660l66,-58V-39L689,-49Z"
id="f6_c7"
transform="scale(0.001,-0.001)"/>

<path d="M413,-59C413,-59,53,193,53,416c0,0,0,97,66,164c0,0,66,66,156,66c0,0,61,0,110,-30L487,507c0,0,92,126,257,126l35,-2V822H0l-45,76l14,31H1043l46,-76l-13,-31H840l66,-58V-39L869,-49L779,8V547c0,0,-101,-5,-165,-90c0,0,-64,-86,-70,-222L507,225l-90,73c0,0,5,79,35,151c0,0,-59,66,-128,66c0,0,-57,0,-100,-38c0,0,-44,-39,-44,-109c0,0,0,-165,284,-360L413,-59Z"
id="f6_c3"
transform="scale(0.001,-0.001)"/>

<path d="M727,-49L637,8V822H278l66,-58V226L270,196c0,0,-64,36,-122,98c0,0,-58,62,-79,122l43,59H217V822H0l-45,76l14,31H901l46,-76L933,822H698l66,-58V-39L727,-49Z"
id="f6_bb"
transform="scale(0.001,-0.001)"/>

<path d="M959,-49L869,8V367c0,0,-32,-13,-64,-13c0,0,-50,0,-110,25c0,0,23,-52,23,-109c0,0,0,-103,-70,-170c0,0,-70,-66,-182,-66c0,0,-110,0,-222,82c0,0,-111,83,-213,293l68,42c0,0,72,-155,152,-231c0,0,81,-76,178,-76c0,0,83,0,131,49c0,0,48,48,48,117c0,0,0,54,-30,100c0,0,-31,47,-91,65L325,391L257,512c0,0,68,53,156,56c0,0,140,72,140,179c0,0,0,69,-52,99c0,0,-4,1,-11,1c-19,0,-66,-4,-123,-30c0,0,-78,-35,-142,-96L150,823c0,0,119,117,253,117c0,0,98,0,175,-71c0,0,77,-70,77,-159c0,0,0,-103,-94,-180c0,0,39,-23,73,-56c0,0,52,-22,109,-22c0,0,77,0,126,38V822H727l-46,76l14,31h558l-153,215c0,0,-70,92,-157,92c0,0,-69,0,-159,-58l-72,118c0,0,89,73,180,73c0,0,141,0,258,-170L1338,929h197l46,-76l-13,-31H1332l66,-58V-39l-37,-10L1271,8V822H930l66,-58V-39L959,-49Z"
id="f6_b1"
transform="scale(0.001,-0.001)"/>

<path d="M558,-520c0,0,-210,0,-488,322l54,49c0,0,119,-128,209,-193c0,0,90,-65,177,-65c0,0,72,0,113,40c0,0,42,40,42,91c0,0,0,75,-78,106L469,-288l-90,98l27,37c0,0,-133,64,-213,155c0,0,-80,91,-80,201c0,0,0,101,69,170c0,0,-103,88,-103,179c0,0,0,64,57,110c0,0,57,47,196,47H571V822H0l-45,76l14,31H830l45,-76L862,822H625l66,-58V585H364c0,0,-176,0,-176,-96c0,0,0,-41,44,-76c0,0,81,47,185,47c0,0,135,0,230,-76c0,0,96,-75,96,-187C743,197,743,67,614,2L530,104c0,0,49,30,81,75c0,0,32,44,32,82c0,0,0,16,-4,26c0,0,-65,58,-167,58c0,0,-98,0,-166,-50v-2c0,0,-68,-52,-68,-131c0,0,0,-154,254,-263l53,7c0,0,91,0,156,-70c0,0,66,-70,66,-163c0,0,0,-86,-60,-139c0,0,-61,-54,-149,-54Z"
id="f6_n4"
transform="scale(0.001,-0.001)"/>

<path d="M368,344c0,0,90,0,155,73V822H150l67,-58V438c0,0,46,-94,151,-94ZM613,-49L523,8V251c0,0,-48,-28,-103,-28c0,0,-122,0,-227,112C193,335,89,448,89,590V822H0l-45,76l14,31H1150l46,-76l-13,-31H584l65,-58V533c0,0,101,95,211,95c0,0,98,0,170,-79c0,0,73,-78,73,-185c0,0,0,-179,-225,-330L785,139c0,0,219,153,219,269c0,0,0,43,-26,75c0,0,-26,32,-80,32c0,0,-120,0,-249,-159V-39L613,-49Z"
id="f6_bw"
transform="scale(0.001,-0.001)"/>

<path d="M-40,1030c0,0,-28,10,-61,36c0,0,-34,26,-51,49c0,0,38,81,90,110c0,0,61,-23,106,-85c0,0,-27,-71,-84,-110ZM-214,860l-227,219c0,0,-73,70,-148,70c0,0,-67,0,-160,-58l-72,117c0,0,83,71,176,71c0,0,120,0,232,-124L-221,940l-102,294c0,0,-64,179,-189,179c0,0,-60,0,-133,-33l-60,125c0,0,84,47,164,47c0,0,200,0,281,-276L-150,901l-23,-15l-41,-26Z"
id="f6_p3"
transform="scale(0.001,-0.001)"/>

<path d="M-233,1021c0,0,-84,0,-168,55c0,0,-84,56,-146,162l51,50c0,0,95,-162,219,-162c0,0,125,0,160,157L-7,1234c0,0,-21,-103,-81,-158c0,0,-61,-55,-145,-55Zm-41,201c0,0,-66,25,-102,80c0,0,32,68,82,101c0,0,55,-20,99,-80c0,0,-26,-67,-79,-101Z"
id="f6_di"
transform="scale(0.001,-0.001)"/>

<path d="M449,79c0,0,103,0,168,61c0,0,66,60,66,149c0,0,0,93,-84,186H420c0,0,-107,0,-164,-50c0,0,-57,-51,-57,-126c0,0,0,-108,99,-184c0,0,81,-36,151,-36Zm67,-96c0,0,-168,0,-301,109C215,92,81,202,81,350c0,0,0,114,83,182c0,0,84,68,229,68H507V822H0l-45,76l14,31H883l46,-76L915,822H568l66,-58V532c0,0,87,-64,130,-144c0,0,43,-79,43,-157c0,0,0,-109,-81,-179c0,0,-81,-69,-210,-69Z"
id="f6_bl"
transform="scale(0.001,-0.001)"/>

<path d="M959,-49L869,8V367c0,0,-32,-13,-64,-13c0,0,-50,0,-110,25c0,0,23,-52,23,-109c0,0,0,-103,-70,-170c0,0,-70,-66,-182,-66c0,0,-110,0,-222,82c0,0,-111,83,-213,293l68,42c0,0,72,-155,152,-231c0,0,81,-76,178,-76c0,0,83,0,131,49c0,0,48,48,48,117c0,0,0,54,-30,100c0,0,-31,47,-91,65L325,391L257,512c0,0,68,53,156,56c0,0,140,72,140,179c0,0,0,69,-52,99c0,0,-4,1,-11,1c-19,0,-66,-4,-123,-30c0,0,-78,-35,-142,-96L150,823c0,0,119,117,253,117c0,0,98,0,175,-71c0,0,77,-70,77,-159c0,0,0,-103,-94,-180c0,0,39,-23,73,-56c0,0,52,-22,109,-22c0,0,77,0,126,38V822H727l-46,76l14,31h840l46,-76l-13,-31H1332l66,-58V-39l-37,-10L1271,8V822H930l66,-58V-39L959,-49Z"
id="f6_am"
transform="scale(0.001,-0.001)"/>

<path d="M388,325c0,0,58,0,112,31c0,0,53,31,84,86V822H165l69,-58V408c0,0,47,-83,154,-83ZM674,-49L584,8V257c0,0,-61,-51,-141,-51c0,0,-125,0,-232,109c0,0,-107,108,-107,243V822H0l-45,76l14,31H848l46,-76L880,822H645l65,-58V-39L674,-49Z"
id="f6_bv"
transform="scale(0.001,-0.001)"/>

<path d="M527,-71L52,414l34,92H277c0,0,12,32,12,72V822H0l-45,76l14,31H940l45,-76L972,822H350l66,-55V570c0,0,146,98,247,98c0,0,95,0,167,-73c0,0,71,-72,71,-167c0,0,0,-77,-53,-142c0,0,-54,-64,-159,-136l-89,99c0,0,100,70,152,121c0,0,52,52,52,105c0,0,0,34,-23,60c0,0,-22,26,-72,26c0,0,-139,0,-434,-252L610,34L611,8L527,-71Z"
id="f6_n0"
transform="scale(0.001,-0.001)"/>

<path d="M548,-57c0,0,-122,0,-243,81c0,0,-122,81,-252,280l57,41C110,345,283,64,498,64c0,0,92,0,153,49c0,0,61,49,61,121c0,0,0,46,-28,84L440,237c0,0,-73,11,-139,55c0,0,-66,44,-105,105c0,0,-40,61,-40,119c0,0,0,72,62,125c0,0,62,53,184,53H625V822H0l-45,76l14,31H906l46,-76L938,822H678l66,-58V562H431c0,0,-164,0,-164,-99c0,0,0,-55,57,-102l261,82c0,0,104,-21,172,-98c0,0,68,-78,68,-171c0,0,0,-99,-76,-166c0,0,-77,-65,-201,-65Z"
id="f6_bm"
transform="scale(0.001,-0.001)"/>

<path d="M228,-49L138,8V822H0l-45,76l14,31H134c0,0,-231,362,-445,362c0,0,-87,0,-135,-49c0,0,-48,-49,-48,-116c0,0,0,-73,43,-122l-45,-32c0,0,-119,108,-119,223c0,0,0,94,74,155c0,0,73,60,181,60c0,0,161,0,316,-134c0,0,154,-133,267,-347H402l46,-76L434,822H199l65,-58V-39L228,-49Z"
id="f6_oc"
transform="scale(0.001,-0.001)"/>

<path d="M228,-49L138,8V822H0l-45,76l14,31H134c0,0,-91,92,-91,191c0,0,0,105,85,170c0,0,84,65,219,65c0,0,128,0,293,-76c0,0,165,-77,362,-263L958,966c0,0,-177,143,-303,210c0,0,-125,68,-244,68c0,0,-107,0,-175,-50c0,0,-68,-50,-68,-131c0,0,0,-61,49,-134H402l46,-76L434,822H199l65,-58V-39L228,-49Z"
id="f6_cu"
transform="scale(0.001,-0.001)"/>

<path d="M438,206c0,0,-119,0,-226,109c0,0,-108,108,-108,243V822H0l-45,76l14,31H542l46,-76L574,822H165l66,-58V408c0,0,46,-86,151,-86c0,0,61,0,119,32c0,0,58,33,95,91L669,338c0,0,-44,-66,-108,-99c0,0,-63,-33,-123,-33Z"
id="f6_ll"
transform="scale(0.001,-0.001)"/>

<path d="M0,822l-45,76l14,31H61l46,-76L93,822Z"
id="f6_no"
transform="scale(0.001,-0.001)"/>

<path d="M768,-49L678,8V202c0,0,-73,-58,-172,-58c0,0,-123,0,-240,94c0,0,-118,94,-179,237l20,55c0,0,134,12,215,70c0,0,81,57,81,141c0,0,0,90,-67,134l-26,3c0,0,-46,0,-74,-29c0,0,-28,-30,-28,-68c0,0,0,-55,82,-109L252,620C252,620,93,720,93,820c0,0,0,65,47,104c0,0,46,40,114,40c0,0,99,0,179,-83c0,0,80,-83,82,-197c0,0,0,-93,-79,-165c0,0,-78,-73,-199,-97c0,0,29,-104,88,-158c0,0,42,-16,92,-16c0,0,78,0,151,38c0,0,74,38,110,111V822H553l-46,76l14,31H943l45,-76L975,822H739l66,-58V-39L768,-49Z"
id="f6_bq"
transform="scale(0.001,-0.001)"/>

<path d="M290,-236c0,0,-253,348,-253,685c0,0,0,342,270,669l80,-39c0,0,-207,-311,-207,-622c0,0,0,-326,193,-652l-83,-41Z"
id="f6_g"
transform="scale(0.001,-0.001)"/>

<path d="M95,0L67,98L422,497c0,0,130,154,130,259c0,0,0,63,-40,111c0,0,-40,48,-121,48c0,0,-75,0,-171,-29L193,695l-88,2c0,0,-13,82,-13,165l1,65c0,0,159,97,315,97c0,0,122,0,207,-78c0,0,85,-77,85,-193c0,0,0,-67,-34,-133c0,0,-33,-67,-165,-217L237,121l4,-14l373,21l49,136l83,-12C746,252,732,99,704,0Z"
id="f6_q"
transform="scale(0.001,-0.001)"/>

<path d="M130,-236l-83,41c0,0,193,326,193,652c0,0,0,311,-206,622l79,39c0,0,270,-327,270,-669c0,0,0,-337,-253,-685Z"
id="f6_h"
transform="scale(0.001,-0.001)"/>

<path d="M226,-49c0,0,-66,24,-102,78c0,0,32,69,82,101c0,0,55,-20,100,-80c0,0,-26,-66,-80,-99Z"
id="f6_pc"
transform="scale(0.001,-0.001)"/>

<path d="M108,-433L-59,-214c0,0,-99,119,-191,119c0,0,-59,0,-96,-35c0,0,-36,-34,-36,-81c0,0,0,-49,42,-83l152,95l64,-116c0,0,-71,-58,-148,-58c0,0,-80,0,-146,63c0,0,-65,64,-65,144c0,0,0,77,62,131c0,0,61,53,142,53c0,0,138,0,296,-205L165,-393l-57,-40Z"
id="f6_cx"
transform="scale(0.001,-0.001)"/>

<path d="M396,318c0,0,123,0,203,108V822H180l66,-58V408c0,0,49,-90,150,-90ZM176,-66L79,9L379,228c0,0,-106,23,-181,119c0,0,-76,96,-79,198V822H0l-45,76l14,31H863l46,-76L895,822H660l66,-58V-39L689,-49L599,8V269L176,-66Z"
id="f6_e6"
transform="scale(0.001,-0.001)"/>

<path d="M254,-26c0,0,-84,16,-116,92c0,0,13,84,97,127c0,0,100,-36,112,-110C347,83,324,6,254,-26Zm458,0c0,0,-84,16,-116,92c0,0,14,84,98,127c0,0,99,-37,111,-110C805,83,782,6,712,-26Zm458,0c0,0,-84,16,-116,92c0,0,14,84,98,127c0,0,99,-36,111,-110c0,0,-22,-77,-93,-109Z"
id="f6_8l"
transform="scale(0.001,-0.001)"/>

<path d="M830,-253l-123,66c0,0,31,47,31,78c0,0,0,44,-64,84L353,130c0,0,-234,113,-234,325V822H0l-45,76l14,31H600L448,1144c0,0,-71,92,-158,92c0,0,-68,0,-159,-58L60,1296c0,0,88,73,180,73c0,0,140,0,258,-170L686,929H848l46,-76L880,822H655l68,-58V561c0,0,0,-176,-41,-241c0,0,-40,-65,-161,-106l-49,82l124,69V822H180l66,-58V283L646,92c0,0,126,-60,176,-110c0,0,50,-51,50,-115c0,0,0,-62,-42,-120Z"
id="f6_ay"
transform="scale(0.001,-0.001)"/>

<path d="M471,-26c0,0,-259,0,-448,396l70,43C93,413,240,98,442,98c0,0,79,0,132,46c0,0,54,45,54,120c0,0,0,61,-38,116c0,0,-38,54,-107,72L322,370L255,492c0,0,66,53,156,56c0,0,128,51,128,153c0,0,0,77,-65,121H0l-45,76l14,31H813l46,-76L845,822H578c0,0,76,-66,76,-157c0,0,0,-95,-87,-156c0,0,84,-48,131,-123c0,0,48,-76,48,-158c0,0,0,-109,-78,-182c0,0,-78,-72,-197,-72Z"
id="f6_ap"
transform="scale(0.001,-0.001)"/>

<path d="M434,225c0,0,84,0,169,42c0,0,85,43,126,126V822H267c0,0,-64,-49,-64,-115c0,0,0,-79,90,-126c0,0,60,35,144,35l67,-6l75,-89L564,490l-51,7H493c0,0,-90,0,-142,-43c0,0,-52,-43,-52,-104c0,0,0,-60,51,-109c0,0,33,-16,84,-16ZM819,-49L729,8V197c0,0,-83,-76,-202,-76c0,0,-130,0,-237,91c0,0,-108,92,-108,196c0,0,0,72,53,128c0,0,-75,42,-115,97c0,0,-41,56,-41,113c0,0,0,38,22,76H0l-45,76l14,31H993l46,-76l-14,-31H790l66,-58V-39L819,-49Z"
id="f6_bc"
transform="scale(0.001,-0.001)"/>

<path d="M959,-49L869,8V367c0,0,-32,-13,-64,-13c0,0,-50,0,-110,25c0,0,23,-52,23,-109c0,0,0,-103,-70,-170c0,0,-70,-66,-182,-66c0,0,-110,0,-222,82c0,0,-111,83,-213,293l68,42c0,0,72,-155,152,-231c0,0,81,-76,178,-76c0,0,83,0,131,49c0,0,48,48,48,117c0,0,0,54,-30,100c0,0,-31,47,-91,65L325,391L257,512c0,0,68,53,156,56c0,0,140,72,140,179c0,0,0,69,-52,99c0,0,-4,1,-11,1c-19,0,-66,-4,-123,-30c0,0,-78,-35,-142,-96L150,823c0,0,119,117,253,117c0,0,98,0,175,-71c0,0,77,-70,77,-159c0,0,0,-103,-94,-180c0,0,39,-23,73,-56c0,0,52,-22,109,-22c0,0,77,0,126,38V822H727l-46,76l14,31h439l45,-76l-13,-31H930l66,-58V-39L959,-49Z"
id="f6_al"
transform="scale(0.001,-0.001)"/>

<path d="M827,-49L736,8V205c0,0,-84,-84,-209,-84c0,0,-130,0,-237,91c0,0,-108,92,-108,196c0,0,0,79,61,137C243,545,66,672,66,791c0,0,0,75,52,124c0,0,53,49,134,49c0,0,164,0,260,-237L451,694c0,0,-55,114,-119,163l-31,5c0,0,-44,0,-77,-32c0,0,-33,-31,-33,-78c0,0,0,-86,113,-165c0,0,60,27,133,27l67,-4l75,-89L564,490l-51,7H493c0,0,-90,0,-142,-43c0,0,-52,-43,-52,-104c0,0,0,-60,51,-109c0,0,33,-16,84,-16c0,0,89,0,177,47c0,0,89,47,125,137V822H567l-46,76l14,31h466l46,-76l-14,-31H798l65,-58V-39L827,-49Z"
id="f6_bs"
transform="scale(0.001,-0.001)"/>

<path d="M761,293c0,0,127,0,169,94V532c0,0,-68,46,-145,46c0,0,-76,0,-121,-46c0,0,-45,-45,-45,-107c0,0,0,-61,44,-110c0,0,47,-22,98,-22ZM657,67c0,0,166,0,273,107v55c0,0,-45,-36,-111,-36c0,0,-110,0,-207,90c0,0,-97,90,-97,194c0,0,0,85,66,148c0,0,65,63,155,63l48,-5L930,603V822H376l62,-55V579c0,0,0,-60,-23,-102c0,0,-24,-42,-148,-190c0,0,66,-104,175,-162c0,0,108,-58,215,-58ZM1021,-49L930,8V53c0,0,-105,-83,-264,-83c0,0,-177,0,-339,128C327,98,165,226,90,429l34,77H296c0,0,19,39,19,102l-2,214H0l-45,76l14,31H1195l46,-76l-14,-31H992l65,-58V-39l-36,-10Z"
id="f6_ba"
transform="scale(0.001,-0.001)"/>

<path d="M487,-7c0,0,-88,0,-185,46c0,0,-97,47,-163,130c0,0,-66,83,-66,185c0,0,0,109,80,177c0,0,79,68,234,68H504V822H0l-45,76l14,31H827l45,-76L859,822H565l66,-58V474l-3,1l3,-3H396c0,0,-100,0,-152,-47c0,0,-53,-48,-53,-119c0,0,0,-104,93,-178c0,0,60,-20,118,-20c0,0,81,0,156,36c0,0,76,35,123,99l92,-99C773,144,723,70,645,31C645,31,567,-7,487,-7Z"
id="f6_bk"
transform="scale(0.001,-0.001)"/>

<path d="M547,-285c0,0,-66,25,-102,80c0,0,32,69,82,101c0,0,55,-20,99,-80c0,0,-26,-67,-79,-101Zm1,228c0,0,-122,0,-243,81c0,0,-122,81,-252,280l57,41C110,345,283,64,498,64c0,0,92,0,153,49c0,0,61,49,61,121c0,0,0,46,-28,84L440,237c0,0,-73,11,-139,55c0,0,-66,44,-105,105c0,0,-40,61,-40,119c0,0,0,72,62,125c0,0,62,53,184,53H625V822H0l-45,76l14,31H906l46,-76L938,822H678l66,-58V562H431c0,0,-164,0,-164,-99c0,0,0,-55,57,-102l261,82c0,0,104,-21,172,-98c0,0,68,-78,68,-171c0,0,0,-99,-76,-166c0,0,-77,-65,-201,-65Z"
id="f6_ch"
transform="scale(0.001,-0.001)"/>

<path d="M483,-305L295,-10c0,0,-90,22,-156,74l41,170h66L351,63c0,0,126,4,207,62c0,0,82,58,82,139c0,0,0,37,-18,71L365,266c0,0,-110,15,-197,102c0,0,-87,87,-87,176c0,0,0,69,59,117c0,0,59,48,172,48H550V822H0l-45,76l14,31H550c0,0,-142,122,-142,255c0,0,0,78,52,133c0,0,52,55,140,55c0,0,98,0,176,-64l-23,-69c0,0,-53,32,-104,32c0,0,-56,0,-94,-36c0,0,-39,-36,-39,-95c0,0,0,-109,112,-211H822l46,-76L854,822H603l66,-58V585H373c0,0,-184,0,-184,-99c0,0,0,-48,63,-101l310,78c0,0,86,-34,141,-99c0,0,55,-65,55,-142c0,0,0,-109,-98,-179c0,0,-98,-69,-254,-69L599,-216L483,-305Z"
id="f6_ao"
transform="scale(0.001,-0.001)"/>

<path d="M652,-518c0,0,-209,0,-487,322l53,49c0,0,120,-129,210,-193c0,0,90,-65,177,-65c0,0,72,0,113,39c0,0,41,40,41,92c0,0,0,75,-78,105L564,-286l-90,98c0,0,62,96,169,96L605,37C605,37,552,18,498,18c0,0,-151,0,-288,115C210,133,73,248,73,388c0,0,0,113,84,184c0,0,84,71,222,73H524V822H0l-45,76l14,31H842l46,-76L874,822H567l84,-73V519l-3,2l3,-3H408c0,0,-93,0,-153,-52c0,0,-59,-52,-59,-128c0,0,0,-121,110,-188c0,0,53,-17,105,-17c0,0,92,0,153,43L535,318l101,49L773,203c0,0,-20,-67,-87,-122l61,-204c0,0,52,-32,83,-87c0,0,32,-55,32,-116c0,0,0,-85,-61,-139c0,0,-60,-53,-149,-53Z"
id="f6_mv"
transform="scale(0.001,-0.001)"/>

<path d="M348,229c0,0,57,0,106,17L263,559c0,0,-95,-50,-95,-162c0,0,0,-75,52,-136c0,0,49,-32,128,-32Zm170,48c0,0,61,38,96,91V504c0,0,-131,80,-244,80l-35,-2L518,277ZM704,-49L614,8V193c0,0,-84,-65,-192,-65c0,0,-139,0,-255,98c0,0,-115,98,-115,226c0,0,0,106,77,175c0,0,77,70,189,70c0,0,38,0,75,-9L614,578V822H0l-45,76l14,31H878l46,-76L911,822H675l66,-58V-39L704,-49Z"
id="f6_bx"
transform="scale(0.001,-0.001)"/>

<path d="M461,144c0,0,-120,0,-237,94c0,0,-117,94,-180,237l20,55c0,0,133,17,187,44c0,0,55,28,55,84c0,0,0,45,-30,81c0,0,-30,36,-99,83H0l-45,76l14,31H561l46,-76L593,822H284c0,0,138,-96,138,-208c0,0,0,-151,-228,-192c0,0,29,-104,89,-158c0,0,38,-16,90,-16c0,0,78,0,152,37c0,0,74,37,112,109L717,289c0,0,-39,-72,-110,-109c0,0,-71,-36,-146,-36Z"
id="f6_lr"
transform="scale(0.001,-0.001)"/>

<path d="M830,-253l-123,66c0,0,31,47,31,78c0,0,0,44,-64,84L353,130c0,0,-234,113,-234,325V822H0l-45,76l14,31H848l46,-76L880,822H655l68,-58V561c0,0,0,-176,-41,-241c0,0,-40,-65,-161,-106l-49,82l124,69V822H180l66,-58V283L646,92c0,0,126,-60,176,-110c0,0,50,-51,50,-115c0,0,0,-62,-42,-120Z"
id="f6_ax"
transform="scale(0.001,-0.001)"/>

<path d="M725,307c0,0,-95,0,-218,78c0,0,-123,78,-188,78c0,0,-54,0,-95,-34c0,0,-41,-34,-73,-100L93,362c0,0,38,88,101,146c0,0,63,59,148,59c0,0,90,0,214,-78c0,0,124,-79,188,-79c0,0,63,0,106,34c0,0,42,33,85,104l60,-40c0,0,-32,-66,-101,-134c0,0,-70,-67,-169,-67Z"
id="f7_4r"
transform="scale(0.001,-0.001)"/>

<path d="M435,0V856c0,0,-48,-47,-127,-93c0,0,-79,-46,-142,-69V824c0,0,113,52,197,128c0,0,85,75,120,146h86V0Z"
id="f8_l"
transform="scale(0.001,-0.001)"/>

<path d="M420,92c0,0,92,0,155,89c0,0,64,89,64,358c0,0,0,270,-63,359c0,0,-63,89,-158,89c0,0,-92,0,-147,-79c0,0,-70,-100,-70,-369c0,0,0,-269,63,-358c0,0,63,-89,156,-89Zm0,-110c0,0,-158,0,-248,112C172,94,64,231,64,539c0,0,0,194,39,313c0,0,40,118,119,182c0,0,79,64,198,64c0,0,88,0,155,-35c0,0,66,-36,109,-103c0,0,43,-66,68,-162c0,0,24,-96,24,-259c0,0,0,-192,-39,-311C737,228,697,110,619,46c0,0,-79,-64,-199,-64Z"
id="f8_k"
transform="scale(0.001,-0.001)"/>

<path d="M435,92c0,0,85,0,146,69c0,0,60,68,60,186c0,0,0,114,-60,179c0,0,-60,66,-152,66c0,0,-90,0,-154,-66c0,0,-63,-65,-63,-171c0,0,0,-70,30,-133c0,0,29,-64,82,-97c0,0,52,-33,111,-33Zm2,-110c0,0,-168,0,-273,123C164,105,58,228,58,512c0,0,0,317,117,461c0,0,102,125,275,125c0,0,129,0,211,-72c0,0,82,-72,99,-200L626,815c0,0,-18,79,-51,115c0,0,-54,58,-134,58c0,0,-64,0,-112,-36c0,0,-63,-46,-99,-135c0,0,-37,-89,-38,-253c0,0,48,74,118,110c0,0,70,36,147,36c0,0,134,0,228,-99c0,0,94,-99,94,-256c0,0,0,-103,-44,-191C735,164,691,75,613,28c0,0,-77,-46,-176,-46Z"
id="f8_q"
transform="scale(0.001,-0.001)"/>


</defs>
</svg>