<?xml version="1.0" encoding="UTF-8" standalone="no"?>
<!DOCTYPE svg PUBLIC "-//W3C//DTD SVG 1.1//EN"
"http://www.w3.org/Graphics/SVG/1.1/DTD/svg11.dtd">
<svg viewBox="0 0 641 910" version="1.1" xmlns="http://www.w3.org/2000/svg" xmlns:xlink="http://www.w3.org/1999/xlink">
<defs>
<clipPath id="c0_108"><path d="M0,909.8V0H641.7V909.8Z"/></clipPath>
<clipPath id="c1_108"><path d="M0,908.6V0H641.7V908.6Z"/></clipPath>
<style type="text/css"><![CDATA[
.g0_108{
fill: #FFFFFF;
}
.g1_108{
}
]]></style>
</defs>
<path d="M0,0H641.7V909.8H0V0Z" class="g0_108"/>
<path d="M0,0H641.7V909.8H0V0Z" class="g0_108"/>
<g clip-path="url(#c0_108)">
<path d="M0,-91888.9H641.7V14556.7H0V-91888.9Z" class="g0_108"/>
</g>
<path d="M0,0H641.7V908.6H0V0Z" class="g0_108"/>
<path d="M19.5,60.7H602.7v1.2H19.5V60.7Z" class="g1_108"/>
<g clip-path="url(#c1_108)">
<path d="M0,61.9H641.7V909.8H0V61.9Z" class="g0_108"/>
<g fill="#000000" >
<use xlink:href="#f5_bv" transform="matrix(14,0,0,14,248.9,96.3)" />
<use xlink:href="#f5_dj" transform="matrix(14,0,0,14,255.5,96.4)" />
<use xlink:href="#f5_ba" transform="matrix(14,0,0,14,262.1,96.3)" />
<use xlink:href="#f5_cv" transform="matrix(14,0,0,14,281,96.3)" />
<use xlink:href="#f5_bm" transform="matrix(14,0,0,14,287.5,96.3)" />
<use xlink:href="#f5_ct" transform="matrix(14,0,0,14,300.8,96.3)" />
<use xlink:href="#f5_bv" transform="matrix(14,0,0,14,312.9,96.3)" />
<use xlink:href="#f5_dj" transform="matrix(14,0,0,14,319.5,96.4)" />
<use xlink:href="#f5_ba" transform="matrix(14,0,0,14,326,96.3)" />
<use xlink:href="#f5_cv" transform="matrix(14,0,0,14,345,96.3)" />
<use xlink:href="#f5_bm" transform="matrix(14,0,0,14,351.5,96.3)" />
<use xlink:href="#f5_ct" transform="matrix(14,0,0,14,364.7,96.3)" />
<use xlink:href="#f6_bv" transform="matrix(14,0,0,14,158.4,154.7)" />
<use xlink:href="#f6_dj" transform="matrix(14,0,0,14,164.6,155.1)" />
<use xlink:href="#f6_ba" transform="matrix(14,0,0,14,170.3,154.7)" />
<use xlink:href="#f6_cv" transform="matrix(14,0,0,14,187,154.7)" />
<use xlink:href="#f6_bm" transform="matrix(14,0,0,14,192.6,154.7)" />
<use xlink:href="#f6_ct" transform="matrix(14,0,0,14,205.3,154.7)" />
<use xlink:href="#f6_cc" transform="matrix(14,0,0,14,216.6,154.7)" />
<use xlink:href="#f6_d8" transform="matrix(14,0,0,14,228.2,154.7)" />
<use xlink:href="#f6_pc" transform="matrix(14,0,0,14,233.8,154.7)" />
<use xlink:href="#f6_pc" transform="matrix(14,0,0,14,238.1,154.7)" />
<use xlink:href="#f6_pc" transform="matrix(14,0,0,14,242.4,154.7)" />
<use xlink:href="#f6_bv" transform="matrix(14,0,0,14,252.3,154.7)" />
<use xlink:href="#f6_dj" transform="matrix(14,0,0,14,258.5,155.1)" />
<use xlink:href="#f6_ba" transform="matrix(14,0,0,14,264.2,154.7)" />
<use xlink:href="#f6_cv" transform="matrix(14,0,0,14,280.9,154.7)" />
<use xlink:href="#f6_bm" transform="matrix(14,0,0,14,286.5,154.7)" />
<use xlink:href="#f6_ct" transform="matrix(14,0,0,14,299.2,154.7)" />
<use xlink:href="#f6_k" transform="matrix(14,0,0,14,304.8,154.7)" />
<use xlink:href="#f6_bv" transform="matrix(14,0,0,14,315.7,154.7)" />
<use xlink:href="#f6_dj" transform="matrix(14,0,0,14,321.9,155.1)" />
<use xlink:href="#f6_ba" transform="matrix(14,0,0,14,327.6,154.7)" />
<use xlink:href="#f6_cv" transform="matrix(14,0,0,14,344.3,154.7)" />
<use xlink:href="#f6_bm" transform="matrix(14,0,0,14,349.9,154.7)" />
<use xlink:href="#f6_ct" transform="matrix(14,0,0,14,362.6,154.7)" />
<use xlink:href="#f6_cc" transform="matrix(14,0,0,14,373.9,154.7)" />
<use xlink:href="#f6_d8" transform="matrix(14,0,0,14,385.5,154.7)" />
<use xlink:href="#f6_pc" transform="matrix(14,0,0,14,391.1,154.7)" />
<use xlink:href="#f6_pc" transform="matrix(14,0,0,14,395.4,154.7)" />
<use xlink:href="#f6_pc" transform="matrix(14,0,0,14,399.6,154.7)" />
<use xlink:href="#f6_bv" transform="matrix(14,0,0,14,409.6,154.7)" />
<use xlink:href="#f6_dj" transform="matrix(14,0,0,14,415.8,155.1)" />
<use xlink:href="#f6_ba" transform="matrix(14,0,0,14,421.5,154.7)" />
<use xlink:href="#f6_cv" transform="matrix(14,0,0,14,438.2,154.7)" />
<use xlink:href="#f6_bm" transform="matrix(14,0,0,14,443.8,154.7)" />
<use xlink:href="#f6_ct" transform="matrix(14,0,0,14,456.5,154.7)" />
<use xlink:href="#f6_bv" transform="matrix(14,0,0,14,171,187.9)" />
<use xlink:href="#f6_dj" transform="matrix(14,0,0,14,177.2,188.3)" />
<use xlink:href="#f6_ba" transform="matrix(14,0,0,14,182.9,187.9)" />
<use xlink:href="#f6_cv" transform="matrix(14,0,0,14,199.6,187.9)" />
<use xlink:href="#f6_bm" transform="matrix(14,0,0,14,205.2,187.9)" />
<use xlink:href="#f6_ct" transform="matrix(14,0,0,14,217.9,187.9)" />
<use xlink:href="#f6_bp" transform="matrix(14,0,0,14,229.2,187.9)" />
<use xlink:href="#f6_cw" transform="matrix(14,0,0,14,242.1,187.8)" />
<use xlink:href="#f6_ap" transform="matrix(14,0,0,14,247.2,187.9)" />
<use xlink:href="#f6_bm" transform="matrix(14,0,0,14,258.6,187.9)" />
<use xlink:href="#f6_cv" transform="matrix(14,0,0,14,271.2,187.9)" />
<use xlink:href="#f6_bt" transform="matrix(14,0,0,14,276.8,187.9)" />
<use xlink:href="#f6_d4" transform="matrix(14,0,0,14,288.7,187.9)" />
<use xlink:href="#f6_bg" transform="matrix(14,0,0,14,294.2,187.9)" />
<use xlink:href="#f6_ct" transform="matrix(14,0,0,14,308.5,187.9)" />
<use xlink:href="#f6_bg" transform="matrix(14,0,0,14,314.1,187.9)" />
<use xlink:href="#f6_d4" transform="matrix(14,0,0,14,328.5,187.9)" />
<use xlink:href="#f6_bt" transform="matrix(14,0,0,14,334,187.9)" />
<use xlink:href="#f6_ct" transform="matrix(14,0,0,14,345.7,187.9)" />
<use xlink:href="#f6_b9" transform="matrix(14,0,0,14,351.4,187.9)" />
<use xlink:href="#f6_d8" transform="matrix(14,0,0,14,366.9,187.9)" />
<use xlink:href="#f6_ch" transform="matrix(14,0,0,14,372.5,187.9)" />
<use xlink:href="#f6_ct" transform="matrix(14,0,0,14,385.2,187.9)" />
<use xlink:href="#f6_bg" transform="matrix(14,0,0,14,396.5,187.9)" />
<use xlink:href="#f6_cv" transform="matrix(14,0,0,14,410.7,187.9)" />
<use xlink:href="#f6_c1" transform="matrix(14,0,0,14,427.7,187.9)" />
<use xlink:href="#f6_d4" transform="matrix(14,0,0,14,435.6,187.9)" />
<use xlink:href="#f6_pc" transform="matrix(14,0,0,14,436,187.9)" />
<use xlink:href="#f6_pc" transform="matrix(14,0,0,14,440.3,187.9)" />
<use xlink:href="#f6_pc" transform="matrix(14,0,0,14,444.6,187.9)" />
<use xlink:href="#f6_bz" transform="matrix(14,0,0,14,129.8,221.1)" />
<use xlink:href="#f6_ct" transform="matrix(14,0,0,14,143.1,221.1)" />
<use xlink:href="#f6_c1" transform="matrix(14,0,0,14,148.7,221.1)" />
<use xlink:href="#f6_ct" transform="matrix(14,0,0,14,157.1,221.1)" />
<use xlink:href="#f6_by" transform="matrix(14,0,0,14,168.4,221.1)" />
<use xlink:href="#f6_d4" transform="matrix(14,0,0,14,182.5,221.1)" />
<use xlink:href="#f6_n1" transform="matrix(14,0,0,14,182.4,221.1)" />
<use xlink:href="#f6_br" transform="matrix(14,0,0,14,195.5,221.1)" />
<use xlink:href="#f6_ct" transform="matrix(14,0,0,14,207.2,221.1)" />
<use xlink:href="#f6_br" transform="matrix(14,0,0,14,212.8,221.1)" />
<use xlink:href="#f6_ct" transform="matrix(14,0,0,14,224.5,221.1)" />
<use xlink:href="#f6_bt" transform="matrix(14,0,0,14,235.8,221.1)" />
<use xlink:href="#f6_d4" transform="matrix(14,0,0,14,247.6,221.1)" />
<use xlink:href="#f6_bg" transform="matrix(14,0,0,14,253.1,221.1)" />
<use xlink:href="#f6_ct" transform="matrix(14,0,0,14,267.4,221.1)" />
<use xlink:href="#f6_ax" transform="matrix(14,0,0,14,273,221.1)" />
<use xlink:href="#f6_bt" transform="matrix(14,0,0,14,284.9,221.1)" />
<use xlink:href="#f6_d4" transform="matrix(14,0,0,14,296.7,221.1)" />
<use xlink:href="#f6_b9" transform="matrix(14,0,0,14,302.3,221.1)" />
<use xlink:href="#f6_cc" transform="matrix(14,0,0,14,317.8,221.1)" />
<use xlink:href="#f6_bg" transform="matrix(14,0,0,14,329.4,221.1)" />
<use xlink:href="#f6_d4" transform="matrix(14,0,0,14,343.8,221.1)" />
<use xlink:href="#f6_bp" transform="matrix(14,0,0,14,349.3,221.1)" />
<use xlink:href="#f6_ct" transform="matrix(14,0,0,14,361.6,221.1)" />
<use xlink:href="#f6_c1" transform="matrix(14,0,0,14,367.2,221.1)" />
<use xlink:href="#f6_ct" transform="matrix(14,0,0,14,375.6,221.1)" />
<use xlink:href="#f6_by" transform="matrix(14,0,0,14,386.9,221.1)" />
<use xlink:href="#f6_l1" transform="matrix(14,0,0,14,400.9,221.1)" />
<use xlink:href="#f6_bp" transform="matrix(14,0,0,14,412.7,221.1)" />
<use xlink:href="#f6_am" transform="matrix(14,0,0,14,430.7,221.1)" />
<use xlink:href="#f6_c7" transform="matrix(14,0,0,14,452.2,221.1)" />
<use xlink:href="#f6_d4" transform="matrix(14,0,0,14,464.4,221.1)" />
<use xlink:href="#f6_c1" transform="matrix(14,0,0,14,469.9,221.1)" />
<use xlink:href="#f6_d4" transform="matrix(14,0,0,14,477.9,221.1)" />
<use xlink:href="#f6_pc" transform="matrix(14,0,0,14,478.3,221.1)" />
<use xlink:href="#f6_pc" transform="matrix(14,0,0,14,482.6,221.1)" />
<use xlink:href="#f6_pc" transform="matrix(14,0,0,14,486.9,221.1)" />
<use xlink:href="#f6_bv" transform="matrix(14,0,0,14,141.2,254.4)" />
<use xlink:href="#f6_dj" transform="matrix(14,0,0,14,147.4,254.8)" />
<use xlink:href="#f6_ba" transform="matrix(14,0,0,14,153.1,254.4)" />
<use xlink:href="#f6_cv" transform="matrix(14,0,0,14,169.8,254.4)" />
<use xlink:href="#f6_bm" transform="matrix(14,0,0,14,175.4,254.4)" />
<use xlink:href="#f6_ct" transform="matrix(14,0,0,14,188.1,254.4)" />
<use xlink:href="#f6_cc" transform="matrix(14,0,0,14,199.4,254.4)" />
<use xlink:href="#f6_d8" transform="matrix(14,0,0,14,211,254.4)" />
<use xlink:href="#f6_pc" transform="matrix(14,0,0,14,216.6,254.4)" />
<use xlink:href="#f6_pc" transform="matrix(14,0,0,14,220.9,254.4)" />
<use xlink:href="#f6_pc" transform="matrix(14,0,0,14,225.2,254.4)" />
<use xlink:href="#f6_cc" transform="matrix(14,0,0,14,229.5,254.4)" />
<use xlink:href="#f6_d8" transform="matrix(14,0,0,14,241.1,254.4)" />
<use xlink:href="#f6_pc" transform="matrix(14,0,0,14,246.7,254.4)" />
<use xlink:href="#f6_pc" transform="matrix(14,0,0,14,251,254.4)" />
<use xlink:href="#f6_pc" transform="matrix(14,0,0,14,255.2,254.4)" />
<use xlink:href="#f6_bv" transform="matrix(14,0,0,14,265.2,254.4)" />
<use xlink:href="#f6_dj" transform="matrix(14,0,0,14,271.4,254.8)" />
<use xlink:href="#f6_ba" transform="matrix(14,0,0,14,277,254.4)" />
<use xlink:href="#f6_cv" transform="matrix(14,0,0,14,293.8,254.4)" />
<use xlink:href="#f6_bm" transform="matrix(14,0,0,14,299.4,254.4)" />
<use xlink:href="#f6_ct" transform="matrix(14,0,0,14,312.1,254.4)" />
<use xlink:href="#f6_k" transform="matrix(14,0,0,14,317.7,254.4)" />
<use xlink:href="#f6_bv" transform="matrix(14,0,0,14,328.6,254.4)" />
<use xlink:href="#f6_dj" transform="matrix(14,0,0,14,334.8,254.8)" />
<use xlink:href="#f6_ba" transform="matrix(14,0,0,14,340.4,254.4)" />
<use xlink:href="#f6_cv" transform="matrix(14,0,0,14,357.1,254.4)" />
<use xlink:href="#f6_bm" transform="matrix(14,0,0,14,362.8,254.4)" />
<use xlink:href="#f6_ct" transform="matrix(14,0,0,14,375.4,254.4)" />
<use xlink:href="#f6_b1" transform="matrix(14,0,0,14,386.7,254.4)" />
<use xlink:href="#f6_pc" transform="matrix(14,0,0,14,408.2,254.4)" />
<use xlink:href="#f6_pc" transform="matrix(14,0,0,14,412.5,254.4)" />
<use xlink:href="#f6_pc" transform="matrix(14,0,0,14,416.8,254.4)" />
<use xlink:href="#f6_bv" transform="matrix(14,0,0,14,426.7,254.4)" />
<use xlink:href="#f6_dj" transform="matrix(14,0,0,14,432.9,254.8)" />
<use xlink:href="#f6_ba" transform="matrix(14,0,0,14,438.6,254.4)" />
<use xlink:href="#f6_cv" transform="matrix(14,0,0,14,455.3,254.4)" />
<use xlink:href="#f6_bm" transform="matrix(14,0,0,14,460.9,254.4)" />
<use xlink:href="#f6_ct" transform="matrix(14,0,0,14,473.6,254.4)" />
<use xlink:href="#f6_bb" transform="matrix(14,0,0,14,163,312.8)" />
<use xlink:href="#f6_ct" transform="matrix(14,0,0,14,175.6,312.8)" />
<use xlink:href="#f6_bz" transform="matrix(14,0,0,14,181.2,312.8)" />
<use xlink:href="#f6_bb" transform="matrix(14,0,0,14,200.3,312.8)" />
<use xlink:href="#f6_ct" transform="matrix(14,0,0,14,212.9,312.8)" />
<use xlink:href="#f6_bz" transform="matrix(14,0,0,14,218.5,312.8)" />
<use xlink:href="#f6_no" transform="matrix(14,0,0,14,231.8,312.8)" />
<use xlink:href="#f6_bq" transform="matrix(14,0,0,14,231.8,312.8)" />
<use xlink:href="#f6_cv" transform="matrix(14,0,0,14,245,312.8)" />
<use xlink:href="#f6_bz" transform="matrix(14,0,0,14,256.3,312.8)" />
<use xlink:href="#f6_ct" transform="matrix(14,0,0,14,269.6,312.8)" />
<use xlink:href="#f6_c3" transform="matrix(14,0,0,14,275.3,312.8)" />
<use xlink:href="#f6_cv" transform="matrix(14,0,0,14,290,312.8)" />
<use xlink:href="#f6_bm" transform="matrix(14,0,0,14,295.6,312.8)" />
<use xlink:href="#f6_ct" transform="matrix(14,0,0,14,308.3,312.8)" />
<use xlink:href="#f6_bp" transform="matrix(14,0,0,14,319.6,312.8)" />
<use xlink:href="#f6_bz" transform="matrix(14,0,0,14,331.9,312.8)" />
<use xlink:href="#f6_d4" transform="matrix(14,0,0,14,345.3,312.8)" />
<use xlink:href="#f6_c7" transform="matrix(14,0,0,14,350.9,312.8)" />
<use xlink:href="#f6_cc" transform="matrix(14,0,0,14,363,312.8)" />
<use xlink:href="#f6_d4" transform="matrix(14,0,0,14,374.9,312.8)" />
<use xlink:href="#f6_c3" transform="matrix(14,0,0,14,374.6,312.8)" />
<use xlink:href="#f6_ct" transform="matrix(14,0,0,14,389.3,312.8)" />
<use xlink:href="#f6_am" transform="matrix(14,0,0,14,400.6,312.8)" />
<use xlink:href="#f6_c7" transform="matrix(14,0,0,14,422,312.8)" />
<use xlink:href="#f6_d8" transform="matrix(14,0,0,14,434.1,312.8)" />
<use xlink:href="#f6_c1" transform="matrix(14,0,0,14,445.4,312.8)" />
<use xlink:href="#f6_d4" transform="matrix(14,0,0,14,453.4,312.8)" />
<use xlink:href="#f6_k" transform="matrix(14,0,0,14,453.8,312.8)" />
<use xlink:href="#f6_bz" transform="matrix(14,0,0,14,161.9,346)" />
<use xlink:href="#f6_ct" transform="matrix(14,0,0,14,175.2,346)" />
<use xlink:href="#f6_c1" transform="matrix(14,0,0,14,180.8,346)" />
<use xlink:href="#f6_ct" transform="matrix(14,0,0,14,189.2,346)" />
<use xlink:href="#f6_e6" transform="matrix(14,0,0,14,200.5,346)" />
<use xlink:href="#f6_by" transform="matrix(14,0,0,14,212.6,346)" />
<use xlink:href="#f6_cw" transform="matrix(14,0,0,14,227.1,345.9)" />
<use xlink:href="#f6_bg" transform="matrix(14,0,0,14,226.5,346)" />
<use xlink:href="#f6_cv" transform="matrix(14,0,0,14,240.8,346)" />
<use xlink:href="#f6_bt" transform="matrix(14,0,0,14,252.1,346)" />
<use xlink:href="#f6_d4" transform="matrix(14,0,0,14,263.9,346)" />
<use xlink:href="#f6_b9" transform="matrix(14,0,0,14,269.5,346)" />
<use xlink:href="#f6_ct" transform="matrix(14,0,0,14,285,346)" />
<use xlink:href="#f6_bg" transform="matrix(14,0,0,14,290.6,346)" />
<use xlink:href="#f6_d4" transform="matrix(14,0,0,14,305,346)" />
<use xlink:href="#f6_n1" transform="matrix(14,0,0,14,310.5,346)" />
<use xlink:href="#f6_bm" transform="matrix(14,0,0,14,323.6,346)" />
<use xlink:href="#f6_ct" transform="matrix(14,0,0,14,336.3,346)" />
<use xlink:href="#f6_bw" transform="matrix(14,0,0,14,347.6,346)" />
<use xlink:href="#f6_cw" transform="matrix(14,0,0,14,359.2,345.9)" />
<use xlink:href="#f6_c3" transform="matrix(14,0,0,14,363.7,346)" />
<use xlink:href="#f6_bm" transform="matrix(14,0,0,14,378.4,346)" />
<use xlink:href="#f6_ct" transform="matrix(14,0,0,14,391.1,346)" />
<use xlink:href="#f6_c3" transform="matrix(14,0,0,14,402.4,346)" />
<use xlink:href="#f6_ct" transform="matrix(14,0,0,14,417.1,346)" />
<use xlink:href="#f6_c7" transform="matrix(14,0,0,14,422.7,346)" />
<use xlink:href="#f6_d8" transform="matrix(14,0,0,14,434.8,346)" />
<use xlink:href="#f6_c1" transform="matrix(14,0,0,14,446.1,346)" />
<use xlink:href="#f6_d4" transform="matrix(14,0,0,14,454,346)" />
<use xlink:href="#f6_k" transform="matrix(14,0,0,14,454.5,346)" />
<use xlink:href="#f6_be" transform="matrix(14,0,0,14,159.6,379.3)" />
<use xlink:href="#f6_dj" transform="matrix(14,0,0,14,170.7,379.7)" />
<use xlink:href="#f6_bv" transform="matrix(14,0,0,14,173.6,379.3)" />
<use xlink:href="#f6_d8" transform="matrix(14,0,0,14,185.4,379.3)" />
<use xlink:href="#f6_c3" transform="matrix(14,0,0,14,196.7,379.3)" />
<use xlink:href="#f6_ct" transform="matrix(14,0,0,14,211.4,379.3)" />
<use xlink:href="#f6_c7" transform="matrix(14,0,0,14,217,379.3)" />
<use xlink:href="#f6_d8" transform="matrix(14,0,0,14,229.1,379.3)" />
<use xlink:href="#f6_k" transform="matrix(14,0,0,14,234.7,379.3)" />
<use xlink:href="#f6_bb" transform="matrix(14,0,0,14,245.6,379.3)" />
<use xlink:href="#f6_cw" transform="matrix(14,0,0,14,258.8,379.2)" />
<use xlink:href="#f6_c3" transform="matrix(14,0,0,14,258.2,379.3)" />
<use xlink:href="#f6_ct" transform="matrix(14,0,0,14,272.9,379.3)" />
<use xlink:href="#f6_bx" transform="matrix(14,0,0,14,278.6,379.3)" />
<use xlink:href="#f6_c3" transform="matrix(14,0,0,14,296.5,379.3)" />
<use xlink:href="#f6_ct" transform="matrix(14,0,0,14,311.2,379.3)" />
<use xlink:href="#f6_c7" transform="matrix(14,0,0,14,316.8,379.3)" />
<use xlink:href="#f6_d8" transform="matrix(14,0,0,14,328.9,379.3)" />
<use xlink:href="#f6_pc" transform="matrix(14,0,0,14,334.5,379.3)" />
<use xlink:href="#f6_pc" transform="matrix(14,0,0,14,338.8,379.3)" />
<use xlink:href="#f6_pc" transform="matrix(14,0,0,14,343.1,379.3)" />
<use xlink:href="#f6_bz" transform="matrix(14,0,0,14,353,379.3)" />
<use xlink:href="#f6_d8" transform="matrix(14,0,0,14,366.4,379.3)" />
<use xlink:href="#f6_bb" transform="matrix(14,0,0,14,372,379.3)" />
<use xlink:href="#f6_c1" transform="matrix(14,0,0,14,384.6,379.3)" />
<use xlink:href="#f6_ct" transform="matrix(14,0,0,14,393,379.3)" />
<use xlink:href="#f6_c3" transform="matrix(14,0,0,14,404.3,379.3)" />
<use xlink:href="#f6_ct" transform="matrix(14,0,0,14,419,379.3)" />
<use xlink:href="#f6_c7" transform="matrix(14,0,0,14,424.6,379.3)" />
<use xlink:href="#f6_d8" transform="matrix(14,0,0,14,436.7,379.3)" />
<use xlink:href="#f6_c1" transform="matrix(14,0,0,14,448,379.3)" />
<use xlink:href="#f6_d4" transform="matrix(14,0,0,14,455.9,379.3)" />
<use xlink:href="#f6_k" transform="matrix(14,0,0,14,456.4,379.3)" />
<use xlink:href="#f6_bz" transform="matrix(14,0,0,14,135.5,412.5)" />
<use xlink:href="#f6_ct" transform="matrix(14,0,0,14,148.9,412.5)" />
<use xlink:href="#f6_c1" transform="matrix(14,0,0,14,154.5,412.5)" />
<use xlink:href="#f6_ct" transform="matrix(14,0,0,14,162.9,412.5)" />
<use xlink:href="#f6_br" transform="matrix(14,0,0,14,174.1,412.5)" />
<use xlink:href="#f6_ct" transform="matrix(14,0,0,14,185.8,412.5)" />
<use xlink:href="#f6_br" transform="matrix(14,0,0,14,191.4,412.5)" />
<use xlink:href="#f6_ct" transform="matrix(14,0,0,14,203.1,412.5)" />
<use xlink:href="#f6_bt" transform="matrix(14,0,0,14,208.7,412.5)" />
<use xlink:href="#f6_cv" transform="matrix(14,0,0,14,220.4,412.5)" />
<use xlink:href="#f6_bp" transform="matrix(14,0,0,14,231.7,412.5)" />
<use xlink:href="#f6_bz" transform="matrix(14,0,0,14,244,412.5)" />
<use xlink:href="#f6_d4" transform="matrix(14,0,0,14,257.5,412.5)" />
<use xlink:href="#f6_cb" transform="matrix(14,0,0,14,263,412.5)" />
<use xlink:href="#f6_cw" transform="matrix(14,0,0,14,278.5,412.4)" />
<use xlink:href="#f6_lj" transform="matrix(14,0,0,14,277.9,412.5)" />
<use xlink:href="#f6_br" transform="matrix(14,0,0,14,283.7,412.5)" />
<use xlink:href="#f6_c1" transform="matrix(14,0,0,14,295.4,412.5)" />
<use xlink:href="#f6_am" transform="matrix(14,0,0,14,309.4,412.5)" />
<use xlink:href="#f6_dj" transform="matrix(14,0,0,14,325.5,412.9)" />
<use xlink:href="#f6_bb" transform="matrix(14,0,0,14,330.9,412.5)" />
<use xlink:href="#f6_cv" transform="matrix(14,0,0,14,343.5,412.5)" />
<use xlink:href="#f6_c1" transform="matrix(14,0,0,14,354.8,412.5)" />
<use xlink:href="#f6_be" transform="matrix(14,0,0,14,363.2,412.5)" />
<use xlink:href="#f6_ct" transform="matrix(14,0,0,14,377.2,412.5)" />
<use xlink:href="#f6_c7" transform="matrix(14,0,0,14,382.8,412.5)" />
<use xlink:href="#f6_d8" transform="matrix(14,0,0,14,394.9,412.5)" />
<use xlink:href="#f6_c1" transform="matrix(14,0,0,14,406.2,412.5)" />
<use xlink:href="#f6_d4" transform="matrix(14,0,0,14,414.1,412.5)" />
<use xlink:href="#f6_pc" transform="matrix(14,0,0,14,414.5,412.5)" />
<use xlink:href="#f6_pc" transform="matrix(14,0,0,14,418.8,412.5)" />
<use xlink:href="#f6_pc" transform="matrix(14,0,0,14,423.1,412.5)" />
<use xlink:href="#f6_bv" transform="matrix(14,0,0,14,433,412.5)" />
<use xlink:href="#f6_dj" transform="matrix(14,0,0,14,439.2,412.9)" />
<use xlink:href="#f6_ba" transform="matrix(14,0,0,14,444.9,412.5)" />
<use xlink:href="#f6_cv" transform="matrix(14,0,0,14,461.6,412.5)" />
<use xlink:href="#f6_bm" transform="matrix(14,0,0,14,467.2,412.5)" />
<use xlink:href="#f6_ct" transform="matrix(14,0,0,14,479.9,412.5)" />
<use xlink:href="#f6_bb" transform="matrix(14,0,0,14,163,470.9)" />
<use xlink:href="#f6_ct" transform="matrix(14,0,0,14,175.6,470.9)" />
<use xlink:href="#f6_bz" transform="matrix(14,0,0,14,181.2,470.9)" />
<use xlink:href="#f6_bb" transform="matrix(14,0,0,14,200.3,470.9)" />
<use xlink:href="#f6_ct" transform="matrix(14,0,0,14,212.9,470.9)" />
<use xlink:href="#f6_bz" transform="matrix(14,0,0,14,218.5,470.9)" />
<use xlink:href="#f6_no" transform="matrix(14,0,0,14,231.8,470.9)" />
<use xlink:href="#f6_bq" transform="matrix(14,0,0,14,231.8,470.9)" />
<use xlink:href="#f6_cv" transform="matrix(14,0,0,14,245,470.9)" />
<use xlink:href="#f6_cb" transform="matrix(14,0,0,14,256.3,470.9)" />
<use xlink:href="#f6_d8" transform="matrix(14,0,0,14,271.2,470.9)" />
<use xlink:href="#f6_bt" transform="matrix(14,0,0,14,276.8,470.9)" />
<use xlink:href="#f6_cv" transform="matrix(14,0,0,14,288.5,470.9)" />
<use xlink:href="#f6_bm" transform="matrix(14,0,0,14,294.1,470.9)" />
<use xlink:href="#f6_ct" transform="matrix(14,0,0,14,306.8,470.9)" />
<use xlink:href="#f6_bp" transform="matrix(14,0,0,14,318.1,470.9)" />
<use xlink:href="#f6_bz" transform="matrix(14,0,0,14,330.4,470.9)" />
<use xlink:href="#f6_d4" transform="matrix(14,0,0,14,343.9,470.9)" />
<use xlink:href="#f6_c7" transform="matrix(14,0,0,14,349.4,470.9)" />
<use xlink:href="#f6_cc" transform="matrix(14,0,0,14,361.5,470.9)" />
<use xlink:href="#f6_d4" transform="matrix(14,0,0,14,373.4,470.9)" />
<use xlink:href="#f6_c3" transform="matrix(14,0,0,14,373.1,470.9)" />
<use xlink:href="#f6_ct" transform="matrix(14,0,0,14,387.8,470.9)" />
<use xlink:href="#f6_am" transform="matrix(14,0,0,14,399.1,470.9)" />
<use xlink:href="#f6_c7" transform="matrix(14,0,0,14,420.6,470.9)" />
<use xlink:href="#f6_d8" transform="matrix(14,0,0,14,432.7,470.9)" />
<use xlink:href="#f6_c1" transform="matrix(14,0,0,14,443.9,470.9)" />
<use xlink:href="#f6_d4" transform="matrix(14,0,0,14,451.9,470.9)" />
<use xlink:href="#f6_k" transform="matrix(14,0,0,14,452.3,470.9)" />
<use xlink:href="#f6_bz" transform="matrix(14,0,0,14,167.6,504.2)" />
<use xlink:href="#f6_ct" transform="matrix(14,0,0,14,180.9,504.2)" />
<use xlink:href="#f6_c1" transform="matrix(14,0,0,14,186.6,504.2)" />
<use xlink:href="#f6_ct" transform="matrix(14,0,0,14,194.9,504.2)" />
<use xlink:href="#f6_e6" transform="matrix(14,0,0,14,206.2,504.2)" />
<use xlink:href="#f6_by" transform="matrix(14,0,0,14,218.3,504.2)" />
<use xlink:href="#f6_cw" transform="matrix(14,0,0,14,232.8,504.1)" />
<use xlink:href="#f6_bg" transform="matrix(14,0,0,14,232.3,504.2)" />
<use xlink:href="#f6_cv" transform="matrix(14,0,0,14,246.5,504.2)" />
<use xlink:href="#f6_bt" transform="matrix(14,0,0,14,252.1,504.2)" />
<use xlink:href="#f6_d4" transform="matrix(14,0,0,14,264,504.2)" />
<use xlink:href="#f6_b9" transform="matrix(14,0,0,14,269.5,504.2)" />
<use xlink:href="#f6_ct" transform="matrix(14,0,0,14,285,504.2)" />
<use xlink:href="#f6_bg" transform="matrix(14,0,0,14,290.6,504.2)" />
<use xlink:href="#f6_d4" transform="matrix(14,0,0,14,305,504.2)" />
<use xlink:href="#f6_cb" transform="matrix(14,0,0,14,310.6,504.2)" />
<use xlink:href="#f6_cw" transform="matrix(14,0,0,14,326,504.1)" />
<use xlink:href="#f6_dj" transform="matrix(14,0,0,14,319.1,504.6)" />
<use xlink:href="#f6_br" transform="matrix(14,0,0,14,325.4,504.2)" />
<use xlink:href="#f6_c1" transform="matrix(14,0,0,14,337.1,504.2)" />
<use xlink:href="#f6_am" transform="matrix(14,0,0,14,351.2,504.2)" />
<use xlink:href="#f6_dj" transform="matrix(14,0,0,14,367.2,504.6)" />
<use xlink:href="#f6_bb" transform="matrix(14,0,0,14,372.6,504.2)" />
<use xlink:href="#f6_cv" transform="matrix(14,0,0,14,385.3,504.2)" />
<use xlink:href="#f6_c3" transform="matrix(14,0,0,14,396.5,504.2)" />
<use xlink:href="#f6_ct" transform="matrix(14,0,0,14,411.3,504.2)" />
<use xlink:href="#f6_c7" transform="matrix(14,0,0,14,416.9,504.2)" />
<use xlink:href="#f6_d8" transform="matrix(14,0,0,14,429,504.2)" />
<use xlink:href="#f6_c1" transform="matrix(14,0,0,14,440.2,504.2)" />
<use xlink:href="#f6_d4" transform="matrix(14,0,0,14,448.2,504.2)" />
<use xlink:href="#f6_k" transform="matrix(14,0,0,14,448.6,504.2)" />
<use xlink:href="#f6_bz" transform="matrix(14,0,0,14,163,537.4)" />
<use xlink:href="#f6_cw" transform="matrix(14,0,0,14,176.9,537.3)" />
<use xlink:href="#f6_bb" transform="matrix(14,0,0,14,176.4,537.4)" />
<use xlink:href="#f6_bk" transform="matrix(14,0,0,14,189,537.4)" />
<use xlink:href="#f6_c3" transform="matrix(14,0,0,14,206.2,537.4)" />
<use xlink:href="#f6_ct" transform="matrix(14,0,0,14,220.9,537.4)" />
<use xlink:href="#f6_c7" transform="matrix(14,0,0,14,226.5,537.4)" />
<use xlink:href="#f6_d8" transform="matrix(14,0,0,14,238.6,537.4)" />
<use xlink:href="#f6_k" transform="matrix(14,0,0,14,244.2,537.4)" />
<use xlink:href="#f6_b9" transform="matrix(14,0,0,14,255.1,537.4)" />
<use xlink:href="#f6_cw" transform="matrix(14,0,0,14,266.2,537.3)" />
<use xlink:href="#f6_dj" transform="matrix(14,0,0,14,263,537.8)" />
<use xlink:href="#f6_bm" transform="matrix(14,0,0,14,270.6,537.4)" />
<use xlink:href="#f6_c3" transform="matrix(14,0,0,14,283.3,537.4)" />
<use xlink:href="#f6_c3" transform="matrix(14,0,0,14,303.7,537.4)" />
<use xlink:href="#f6_ct" transform="matrix(14,0,0,14,318.4,537.4)" />
<use xlink:href="#f6_c7" transform="matrix(14,0,0,14,324,537.4)" />
<use xlink:href="#f6_d8" transform="matrix(14,0,0,14,336.1,537.4)" />
<use xlink:href="#f6_pc" transform="matrix(14,0,0,14,341.7,537.4)" />
<use xlink:href="#f6_pc" transform="matrix(14,0,0,14,346,537.4)" />
<use xlink:href="#f6_pc" transform="matrix(14,0,0,14,350.2,537.4)" />
<use xlink:href="#f6_cb" transform="matrix(14,0,0,14,360.2,537.4)" />
<use xlink:href="#f6_ct" transform="matrix(14,0,0,14,375.1,537.4)" />
<use xlink:href="#f6_c1" transform="matrix(14,0,0,14,380.7,537.4)" />
<use xlink:href="#f6_ct" transform="matrix(14,0,0,14,389.1,537.4)" />
<use xlink:href="#f6_c3" transform="matrix(14,0,0,14,400.3,537.4)" />
<use xlink:href="#f6_ct" transform="matrix(14,0,0,14,415,537.4)" />
<use xlink:href="#f6_c7" transform="matrix(14,0,0,14,420.7,537.4)" />
<use xlink:href="#f6_d8" transform="matrix(14,0,0,14,432.7,537.4)" />
<use xlink:href="#f6_c1" transform="matrix(14,0,0,14,444,537.4)" />
<use xlink:href="#f6_d4" transform="matrix(14,0,0,14,452,537.4)" />
<use xlink:href="#f6_k" transform="matrix(14,0,0,14,452.4,537.4)" />
<use xlink:href="#f6_bz" transform="matrix(14,0,0,14,122.9,570.6)" />
<use xlink:href="#f6_ct" transform="matrix(14,0,0,14,136.2,570.6)" />
<use xlink:href="#f6_c1" transform="matrix(14,0,0,14,141.9,570.6)" />
<use xlink:href="#f6_ct" transform="matrix(14,0,0,14,150.2,570.6)" />
<use xlink:href="#f6_br" transform="matrix(14,0,0,14,161.5,570.6)" />
<use xlink:href="#f6_ct" transform="matrix(14,0,0,14,173.2,570.6)" />
<use xlink:href="#f6_br" transform="matrix(14,0,0,14,178.8,570.6)" />
<use xlink:href="#f6_ct" transform="matrix(14,0,0,14,190.5,570.6)" />
<use xlink:href="#f6_bt" transform="matrix(14,0,0,14,196.1,570.6)" />
<use xlink:href="#f6_d4" transform="matrix(14,0,0,14,208,570.6)" />
<use xlink:href="#f6_bp" transform="matrix(14,0,0,14,213.5,570.6)" />
<use xlink:href="#f6_bz" transform="matrix(14,0,0,14,225.8,570.6)" />
<use xlink:href="#f6_d4" transform="matrix(14,0,0,14,239.3,570.6)" />
<use xlink:href="#f6_cb" transform="matrix(14,0,0,14,244.8,570.6)" />
<use xlink:href="#f6_cw" transform="matrix(14,0,0,14,260.2,570.5)" />
<use xlink:href="#f6_lj" transform="matrix(14,0,0,14,259.7,570.6)" />
<use xlink:href="#f6_br" transform="matrix(14,0,0,14,265.5,570.6)" />
<use xlink:href="#f6_c1" transform="matrix(14,0,0,14,277.2,570.6)" />
<use xlink:href="#f6_am" transform="matrix(14,0,0,14,291.2,570.6)" />
<use xlink:href="#f6_by" transform="matrix(14,0,0,14,312.7,570.6)" />
<use xlink:href="#f6_cx" transform="matrix(14,0,0,14,326.6,570.5)" />
<use xlink:href="#f6_ca" transform="matrix(14,0,0,14,326.7,570.6)" />
<use xlink:href="#f6_bo" transform="matrix(14,0,0,14,338.9,570.6)" />
<use xlink:href="#f6_bv" transform="matrix(14,0,0,14,359,570.6)" />
<use xlink:href="#f6_cc" transform="matrix(14,0,0,14,370.8,570.6)" />
<use xlink:href="#f6_d4" transform="matrix(14,0,0,14,382.8,570.6)" />
<use xlink:href="#f6_c1" transform="matrix(14,0,0,14,382.4,570.6)" />
<use xlink:href="#f6_ct" transform="matrix(14,0,0,14,390.8,570.6)" />
<use xlink:href="#f6_c7" transform="matrix(14,0,0,14,396.4,570.6)" />
<use xlink:href="#f6_d8" transform="matrix(14,0,0,14,408.5,570.6)" />
<use xlink:href="#f6_c1" transform="matrix(14,0,0,14,419.8,570.6)" />
<use xlink:href="#f6_d4" transform="matrix(14,0,0,14,427.8,570.6)" />
<use xlink:href="#f6_pc" transform="matrix(14,0,0,14,428.2,570.6)" />
<use xlink:href="#f6_pc" transform="matrix(14,0,0,14,432.5,570.6)" />
<use xlink:href="#f6_pc" transform="matrix(14,0,0,14,436.7,570.6)" />
<use xlink:href="#f6_bv" transform="matrix(14,0,0,14,446.7,570.6)" />
<use xlink:href="#f6_dj" transform="matrix(14,0,0,14,452.9,571.1)" />
<use xlink:href="#f6_ba" transform="matrix(14,0,0,14,458.5,570.6)" />
<use xlink:href="#f6_cv" transform="matrix(14,0,0,14,475.3,570.6)" />
<use xlink:href="#f6_bm" transform="matrix(14,0,0,14,480.9,570.6)" />
<use xlink:href="#f6_ct" transform="matrix(14,0,0,14,493.6,570.6)" />
<use xlink:href="#f6_bb" transform="matrix(14,0,0,14,169.9,629.1)" />
<use xlink:href="#f6_ct" transform="matrix(14,0,0,14,182.5,629.1)" />
<use xlink:href="#f6_bz" transform="matrix(14,0,0,14,188.1,629.1)" />
<use xlink:href="#f6_bb" transform="matrix(14,0,0,14,207.1,629.1)" />
<use xlink:href="#f6_ct" transform="matrix(14,0,0,14,219.7,629.1)" />
<use xlink:href="#f6_bz" transform="matrix(14,0,0,14,225.4,629.1)" />
<use xlink:href="#f6_no" transform="matrix(14,0,0,14,238.7,629.1)" />
<use xlink:href="#f6_bq" transform="matrix(14,0,0,14,238.7,629.1)" />
<use xlink:href="#f6_cv" transform="matrix(14,0,0,14,251.9,629.1)" />
<use xlink:href="#f6_bh" transform="matrix(14,0,0,14,263.2,629.1)" />
<use xlink:href="#f6_c7" transform="matrix(14,0,0,14,280,629.1)" />
<use xlink:href="#f6_d4" transform="matrix(14,0,0,14,292.2,629.1)" />
<use xlink:href="#f6_c1" transform="matrix(14,0,0,14,292,629.1)" />
<use xlink:href="#f6_cv" transform="matrix(14,0,0,14,300.4,629.1)" />
<use xlink:href="#f6_bp" transform="matrix(14,0,0,14,311.7,629.1)" />
<use xlink:href="#f6_bz" transform="matrix(14,0,0,14,324,629.1)" />
<use xlink:href="#f6_d4" transform="matrix(14,0,0,14,337.5,629.1)" />
<use xlink:href="#f6_c7" transform="matrix(14,0,0,14,343,629.1)" />
<use xlink:href="#f6_cc" transform="matrix(14,0,0,14,355.1,629.1)" />
<use xlink:href="#f6_d4" transform="matrix(14,0,0,14,367,629.1)" />
<use xlink:href="#f6_c3" transform="matrix(14,0,0,14,366.7,629.1)" />
<use xlink:href="#f6_ct" transform="matrix(14,0,0,14,381.4,629.1)" />
<use xlink:href="#f6_am" transform="matrix(14,0,0,14,392.7,629.1)" />
<use xlink:href="#f6_c7" transform="matrix(14,0,0,14,414.2,629.1)" />
<use xlink:href="#f6_d8" transform="matrix(14,0,0,14,426.3,629.1)" />
<use xlink:href="#f6_c1" transform="matrix(14,0,0,14,437.5,629.1)" />
<use xlink:href="#f6_d4" transform="matrix(14,0,0,14,445.5,629.1)" />
<use xlink:href="#f6_k" transform="matrix(14,0,0,14,445.9,629.1)" />
<use xlink:href="#f6_bz" transform="matrix(14,0,0,14,166.4,662.3)" />
<use xlink:href="#f6_ct" transform="matrix(14,0,0,14,179.8,662.3)" />
<use xlink:href="#f6_c1" transform="matrix(14,0,0,14,185.4,662.3)" />
<use xlink:href="#f6_ct" transform="matrix(14,0,0,14,193.8,662.3)" />
<use xlink:href="#f6_e6" transform="matrix(14,0,0,14,205.1,662.3)" />
<use xlink:href="#f6_by" transform="matrix(14,0,0,14,217.2,662.3)" />
<use xlink:href="#f6_cw" transform="matrix(14,0,0,14,231.7,662.2)" />
<use xlink:href="#f6_bg" transform="matrix(14,0,0,14,231.1,662.3)" />
<use xlink:href="#f6_cv" transform="matrix(14,0,0,14,245.4,662.3)" />
<use xlink:href="#f6_b9" transform="matrix(14,0,0,14,256.7,662.3)" />
<use xlink:href="#f6_d4" transform="matrix(14,0,0,14,267.8,662.3)" />
<use xlink:href="#f6_b9" transform="matrix(14,0,0,14,277.8,662.3)" />
<use xlink:href="#f6_ct" transform="matrix(14,0,0,14,293.3,662.3)" />
<use xlink:href="#f6_bg" transform="matrix(14,0,0,14,298.9,662.3)" />
<use xlink:href="#f6_d4" transform="matrix(14,0,0,14,313.3,662.3)" />
<use xlink:href="#f6_cb" transform="matrix(14,0,0,14,318.9,662.3)" />
<use xlink:href="#f6_cw" transform="matrix(14,0,0,14,334.3,662.2)" />
<use xlink:href="#f6_lj" transform="matrix(14,0,0,14,333.7,662.3)" />
<use xlink:href="#f6_br" transform="matrix(14,0,0,14,339.5,662.3)" />
<use xlink:href="#f6_c1" transform="matrix(14,0,0,14,351.2,662.3)" />
<use xlink:href="#f6_cc" transform="matrix(14,0,0,14,365.3,662.3)" />
<use xlink:href="#f6_ct" transform="matrix(14,0,0,14,376.9,662.3)" />
<use xlink:href="#f6_c1" transform="matrix(14,0,0,14,382.5,662.3)" />
<use xlink:href="#f6_c3" transform="matrix(14,0,0,14,396.5,662.3)" />
<use xlink:href="#f6_ct" transform="matrix(14,0,0,14,411.2,662.3)" />
<use xlink:href="#f6_c7" transform="matrix(14,0,0,14,416.9,662.3)" />
<use xlink:href="#f6_d8" transform="matrix(14,0,0,14,428.9,662.3)" />
<use xlink:href="#f6_c1" transform="matrix(14,0,0,14,440.2,662.3)" />
<use xlink:href="#f6_d4" transform="matrix(14,0,0,14,448.2,662.3)" />
<use xlink:href="#f6_k" transform="matrix(14,0,0,14,448.6,662.3)" />
<use xlink:href="#f6_cc" transform="matrix(14,0,0,14,139,695.5)" />
<use xlink:href="#f6_cv" transform="matrix(14,0,0,14,150.6,695.5)" />
<use xlink:href="#f6_c1" transform="matrix(14,0,0,14,156.2,695.5)" />
<use xlink:href="#f6_ct" transform="matrix(14,0,0,14,164.6,695.5)" />
<use xlink:href="#f6_bt" transform="matrix(14,0,0,14,170.2,695.5)" />
<use xlink:href="#f6_ct" transform="matrix(14,0,0,14,181.9,695.5)" />
<use xlink:href="#f6_c3" transform="matrix(14,0,0,14,193.2,695.5)" />
<use xlink:href="#f6_ct" transform="matrix(14,0,0,14,207.9,695.5)" />
<use xlink:href="#f6_c7" transform="matrix(14,0,0,14,213.5,695.5)" />
<use xlink:href="#f6_d8" transform="matrix(14,0,0,14,225.6,695.5)" />
<use xlink:href="#f6_k" transform="matrix(14,0,0,14,231.2,695.5)" />
<use xlink:href="#f6_bz" transform="matrix(14,0,0,14,242.1,695.5)" />
<use xlink:href="#f6_ct" transform="matrix(14,0,0,14,255.4,695.5)" />
<use xlink:href="#f6_bo" transform="matrix(14,0,0,14,261.1,695.5)" />
<use xlink:href="#f6_b9" transform="matrix(14,0,0,14,275.4,695.5)" />
<use xlink:href="#f6_bt" transform="matrix(14,0,0,14,290.9,695.5)" />
<use xlink:href="#f6_ct" transform="matrix(14,0,0,14,302.6,695.5)" />
<use xlink:href="#f6_c3" transform="matrix(14,0,0,14,313.9,695.5)" />
<use xlink:href="#f6_ct" transform="matrix(14,0,0,14,328.6,695.5)" />
<use xlink:href="#f6_c7" transform="matrix(14,0,0,14,334.3,695.5)" />
<use xlink:href="#f6_d8" transform="matrix(14,0,0,14,346.3,695.5)" />
<use xlink:href="#f6_k" transform="matrix(14,0,0,14,352,695.5)" />
<use xlink:href="#f6_bz" transform="matrix(14,0,0,14,362.8,695.5)" />
<use xlink:href="#f6_d8" transform="matrix(14,0,0,14,376.2,695.5)" />
<use xlink:href="#f6_bp" transform="matrix(14,0,0,14,381.8,695.5)" />
<use xlink:href="#f6_cv" transform="matrix(14,0,0,14,394.1,695.5)" />
<use xlink:href="#f6_bm" transform="matrix(14,0,0,14,399.7,695.5)" />
<use xlink:href="#f6_ct" transform="matrix(14,0,0,14,412.4,695.5)" />
<use xlink:href="#f6_c3" transform="matrix(14,0,0,14,423.7,695.5)" />
<use xlink:href="#f6_ct" transform="matrix(14,0,0,14,438.4,695.5)" />
<use xlink:href="#f6_c7" transform="matrix(14,0,0,14,444,695.5)" />
<use xlink:href="#f6_d8" transform="matrix(14,0,0,14,456.1,695.5)" />
<use xlink:href="#f6_c1" transform="matrix(14,0,0,14,467.4,695.5)" />
<use xlink:href="#f6_d4" transform="matrix(14,0,0,14,475.4,695.5)" />
<use xlink:href="#f6_k" transform="matrix(14,0,0,14,475.8,695.5)" />
<use xlink:href="#f6_bz" transform="matrix(14,0,0,14,140.1,728.8)" />
<use xlink:href="#f6_ct" transform="matrix(14,0,0,14,153.4,728.8)" />
<use xlink:href="#f6_c1" transform="matrix(14,0,0,14,159.1,728.8)" />
<use xlink:href="#f6_ct" transform="matrix(14,0,0,14,167.4,728.8)" />
<use xlink:href="#f6_br" transform="matrix(14,0,0,14,178.7,728.8)" />
<use xlink:href="#f6_ct" transform="matrix(14,0,0,14,190.4,728.8)" />
<use xlink:href="#f6_br" transform="matrix(14,0,0,14,196,728.8)" />
<use xlink:href="#f6_ct" transform="matrix(14,0,0,14,207.7,728.8)" />
<use xlink:href="#f6_bt" transform="matrix(14,0,0,14,213.3,728.8)" />
<use xlink:href="#f6_d4" transform="matrix(14,0,0,14,225.2,728.8)" />
<use xlink:href="#f6_bp" transform="matrix(14,0,0,14,230.7,728.8)" />
<use xlink:href="#f6_bz" transform="matrix(14,0,0,14,243,728.8)" />
<use xlink:href="#f6_d4" transform="matrix(14,0,0,14,256.5,728.8)" />
<use xlink:href="#f6_cb" transform="matrix(14,0,0,14,262,728.8)" />
<use xlink:href="#f6_cw" transform="matrix(14,0,0,14,277.4,728.7)" />
<use xlink:href="#f6_lj" transform="matrix(14,0,0,14,276.9,728.8)" />
<use xlink:href="#f6_br" transform="matrix(14,0,0,14,282.7,728.8)" />
<use xlink:href="#f6_c1" transform="matrix(14,0,0,14,294.4,728.8)" />
<use xlink:href="#f6_cc" transform="matrix(14,0,0,14,308.4,728.8)" />
<use xlink:href="#f6_ct" transform="matrix(14,0,0,14,320,728.8)" />
<use xlink:href="#f6_c1" transform="matrix(14,0,0,14,325.6,728.8)" />
<use xlink:href="#f6_bv" transform="matrix(14,0,0,14,339.7,728.8)" />
<use xlink:href="#f6_cc" transform="matrix(14,0,0,14,351.5,728.8)" />
<use xlink:href="#f6_d4" transform="matrix(14,0,0,14,363.5,728.8)" />
<use xlink:href="#f6_c1" transform="matrix(14,0,0,14,363.1,728.8)" />
<use xlink:href="#f6_ct" transform="matrix(14,0,0,14,371.5,728.8)" />
<use xlink:href="#f6_c7" transform="matrix(14,0,0,14,377.1,728.8)" />
<use xlink:href="#f6_d8" transform="matrix(14,0,0,14,389.2,728.8)" />
<use xlink:href="#f6_c1" transform="matrix(14,0,0,14,400.5,728.8)" />
<use xlink:href="#f6_d4" transform="matrix(14,0,0,14,408.5,728.8)" />
<use xlink:href="#f6_pc" transform="matrix(14,0,0,14,408.9,728.8)" />
<use xlink:href="#f6_pc" transform="matrix(14,0,0,14,413.2,728.8)" />
<use xlink:href="#f6_pc" transform="matrix(14,0,0,14,417.4,728.8)" />
<use xlink:href="#f6_bv" transform="matrix(14,0,0,14,427.4,728.8)" />
<use xlink:href="#f6_dj" transform="matrix(14,0,0,14,433.6,729.2)" />
<use xlink:href="#f6_ba" transform="matrix(14,0,0,14,439.2,728.8)" />
<use xlink:href="#f6_cv" transform="matrix(14,0,0,14,456,728.8)" />
<use xlink:href="#f6_bm" transform="matrix(14,0,0,14,461.6,728.8)" />
<use xlink:href="#f6_ct" transform="matrix(14,0,0,14,474.3,728.8)" />
<use xlink:href="#f7_4r" transform="matrix(9,0,0,9,286.8,795.2)" />
<use xlink:href="#f8_l" transform="matrix(9,0,0,9,299.6,795.2)" />
<use xlink:href="#f8_k" transform="matrix(9,0,0,9,307.2,795.2)" />
<use xlink:href="#f8_m" transform="matrix(9,0,0,9,314.9,795.2)" />
<use xlink:href="#f7_4r" transform="matrix(9,0,0,9,325.6,795.2)" />
</g>
</g>
<image preserveAspectRatio="none" x="22" y="801" width="581" height="86" xlink:href="img/1.png"/>
<path d="M249.8,97.4H372.4v1.1H249.8V97.4Z" class="g1_108"/>
<image preserveAspectRatio="none" x="202" y="14" width="217" height="26" xlink:href="img/2.png"/>
<defs>
<path d="M394,379c0,0,57,0,107,30c0,0,51,29,77,86V822H214L318,749V403c0,0,29,-24,76,-24ZM752,-65L578,29V188c0,0,-43,-18,-89,-18c0,0,-138,0,-282,130C207,300,63,431,60,567V822H0L-86,937l32,64H937l87,-115L992,822H720L822,749V-31L752,-65Z"
id="f5_bv"
transform="scale(0.001,-0.001)"/>

<path d="M0,1102c0,0,-40,16,-91,55c0,0,-52,39,-79,76c0,0,59,119,137,165c0,0,42,-15,89,-54c0,0,46,-39,74,-76c0,0,-17,-44,-54,-92c0,0,-38,-48,-76,-74Z"
id="f5_dj"
transform="scale(0.001,-0.001)"/>

<path d="M827,354c0,0,102,0,166,84V548c0,0,-46,19,-87,19c0,0,-67,0,-106,-41c0,0,-39,-42,-39,-95c0,0,0,-43,24,-72l42,-5ZM712,107c0,0,168,0,281,81v17c0,0,-29,-9,-69,-9c0,0,-140,0,-256,88c0,0,-115,89,-115,213c0,0,0,99,70,171c0,0,69,71,173,71l64,-7L993,651V822H440L544,749V550c0,0,0,-66,-28,-111c0,0,-27,-45,-96,-95L342,287c0,0,58,-87,158,-133c0,0,99,-47,212,-47ZM733,-71c0,0,-215,0,-405,134C328,63,139,197,44,420L96,542l203,-1l4,14V822H0L-86,937l32,64H1354l85,-115l-32,-64H1135l103,-73V-31l-71,-34L1033,8c0,0,-122,-79,-300,-79Z"
id="f5_ba"
transform="scale(0.001,-0.001)"/>

<path d="M277,-65L102,29V822H0L-86,937l32,64H110c0,0,-50,142,-110,226c0,0,-60,84,-149,84c0,0,-59,0,-97,-37c0,0,-39,-36,-39,-91c0,0,0,-57,42,-115l-95,-50c0,0,-145,116,-145,267c0,0,0,108,75,179c0,0,76,70,195,70c0,0,179,0,297,-150c0,0,119,-150,189,-383H463L548,886L516,822H244L347,749V-31L277,-65Z"
id="f5_cv"
transform="scale(0.001,-0.001)"/>

<path d="M573,-101c0,0,-296,0,-555,382l104,86c0,0,167,-260,381,-260c0,0,87,0,151,46c0,0,64,46,63,113L489,194c0,0,-167,54,-273,152c0,0,-106,99,-106,206c0,0,0,87,72,142c0,0,72,55,211,55H588v73H0L-86,937l32,64H949l85,-115l-32,-64H706L808,749V545H445c0,0,-127,0,-127,-64c0,0,0,-35,38,-62l278,64c0,0,125,-43,193,-130c0,0,67,-87,67,-182c0,0,0,-116,-91,-194c0,0,-91,-78,-230,-78Z"
id="f5_bm"
transform="scale(0.001,-0.001)"/>

<path d="M277,-65L102,29V822H0L-86,937l32,64H463L548,886L516,822H244L347,749V-31L277,-65Z"
id="f5_ct"
transform="scale(0.001,-0.001)"/>

<path d="M388,325c0,0,58,0,112,31c0,0,53,31,84,86V822H165l69,-58V408c0,0,47,-83,154,-83ZM674,-49L584,8V257c0,0,-61,-51,-141,-51c0,0,-125,0,-232,109c0,0,-107,108,-107,243V822H0l-45,76l14,31H848l46,-76L880,822H645l65,-58V-39L674,-49Z"
id="f6_bv"
transform="scale(0.001,-0.001)"/>

<path d="M0,1062c0,0,-26,11,-60,36c0,0,-34,26,-51,49c0,0,39,81,91,110c0,0,60,-23,106,-85c0,0,-28,-70,-86,-110Z"
id="f6_dj"
transform="scale(0.001,-0.001)"/>

<path d="M761,293c0,0,127,0,169,94V532c0,0,-68,46,-145,46c0,0,-76,0,-121,-46c0,0,-45,-45,-45,-107c0,0,0,-61,44,-110c0,0,47,-22,98,-22ZM657,67c0,0,166,0,273,107v55c0,0,-45,-36,-111,-36c0,0,-110,0,-207,90c0,0,-97,90,-97,194c0,0,0,85,66,148c0,0,65,63,155,63l48,-5L930,603V822H376l62,-55V579c0,0,0,-60,-23,-102c0,0,-24,-42,-148,-190c0,0,66,-104,175,-162c0,0,108,-58,215,-58ZM1021,-49L930,8V53c0,0,-105,-83,-264,-83c0,0,-177,0,-339,128C327,98,165,226,90,429l34,77H296c0,0,19,39,19,102l-2,214H0l-45,76l14,31H1195l46,-76l-14,-31H992l65,-58V-39l-36,-10Z"
id="f6_ba"
transform="scale(0.001,-0.001)"/>

<path d="M228,-49L138,8V822H0l-45,76l14,31H138c0,0,-109,342,-284,342c0,0,-62,0,-102,-40c0,0,-40,-39,-40,-93c0,0,0,-61,51,-134l-42,-32c0,0,-128,113,-128,226c0,0,0,79,60,136c0,0,61,56,154,56c0,0,137,0,249,-125c0,0,112,-125,169,-336H402l46,-76L434,822H199l65,-58V-39L228,-49Z"
id="f6_cv"
transform="scale(0.001,-0.001)"/>

<path d="M548,-57c0,0,-122,0,-243,81c0,0,-122,81,-252,280l57,41C110,345,283,64,498,64c0,0,92,0,153,49c0,0,61,49,61,121c0,0,0,46,-28,84L440,237c0,0,-73,11,-139,55c0,0,-66,44,-105,105c0,0,-40,61,-40,119c0,0,0,72,62,125c0,0,62,53,184,53H625V822H0l-45,76l14,31H906l46,-76L938,822H678l66,-58V562H431c0,0,-164,0,-164,-99c0,0,0,-55,57,-102l261,82c0,0,104,-21,172,-98c0,0,68,-78,68,-171c0,0,0,-99,-76,-166c0,0,-77,-65,-201,-65Z"
id="f6_bm"
transform="scale(0.001,-0.001)"/>

<path d="M228,-49L138,8V822H0l-45,76l14,31H402l46,-76L434,822H199l65,-58V-39L228,-49Z"
id="f6_ct"
transform="scale(0.001,-0.001)"/>

<path d="M688,-243c0,0,-256,53,-408,173c0,0,-152,119,-152,270c0,0,0,101,68,171c0,0,-101,84,-101,179c0,0,0,64,53,112c0,0,54,47,191,47H587V822H0l-45,76l14,31H830l45,-76L862,822H640l66,-58V585H362c0,0,-159,-1,-159,-92c0,0,0,-41,46,-80c0,0,76,47,183,47c0,0,135,0,230,-76c0,0,96,-75,96,-187C758,197,758,67,629,2L545,104c0,0,49,30,81,75c0,0,32,44,32,82c0,0,0,16,-4,26c0,0,-64,58,-167,58c0,0,-97,0,-166,-50v-2c0,0,-67,-52,-67,-131c0,0,0,-116,132,-199c0,0,132,-84,334,-132l-32,-74Z"
id="f6_cc"
transform="scale(0.001,-0.001)"/>

<path d="M228,-49L138,8V822H0l-45,76l14,31H119L-33,1144c0,0,-70,92,-157,92c0,0,-69,0,-159,-58l-72,118c0,0,89,73,181,73c0,0,140,0,257,-170L205,929H402l46,-76L434,822H199l65,-58V-39L228,-49Z"
id="f6_d8"
transform="scale(0.001,-0.001)"/>

<path d="M226,-49c0,0,-66,24,-102,78c0,0,32,69,82,101c0,0,55,-20,100,-80c0,0,-26,-66,-80,-99Z"
id="f6_pc"
transform="scale(0.001,-0.001)"/>

<path d="M108,-222l-44,58c0,0,96,81,104,164L89,61c0,0,12,83,93,122c0,0,50,-15,79,-55c0,0,29,-39,29,-90c0,0,0,-69,-48,-142c0,0,-48,-72,-134,-118Z"
id="f6_k"
transform="scale(0.001,-0.001)"/>

<path d="M347,-57C347,-57,66,211,66,394c0,0,0,98,74,164c0,0,74,65,225,65H616V822H0l-45,76l14,31H880l46,-76L912,822H677l66,-58V-39L706,-49L616,8V500H428c0,0,-239,0,-239,-161c0,0,0,-136,214,-343L347,-57Z"
id="f6_bp"
transform="scale(0.001,-0.001)"/>

<path d="M-234,-413c0,0,-210,0,-488,322l54,49c0,0,119,-128,209,-193c0,0,90,-65,177,-65c0,0,72,0,113,40c0,0,42,39,42,91c0,0,0,75,-78,106L-323,-181l-90,98c0,0,63,95,167,95c0,0,90,0,155,-69c0,0,66,-70,66,-164c0,0,0,-85,-60,-139c0,0,-61,-53,-149,-53Z"
id="f6_cw"
transform="scale(0.001,-0.001)"/>

<path d="M471,-26c0,0,-259,0,-448,396l70,43C93,413,240,98,442,98c0,0,79,0,132,46c0,0,54,45,54,120c0,0,0,61,-38,116c0,0,-38,54,-107,72L322,370L255,492c0,0,66,53,156,56c0,0,128,51,128,153c0,0,0,77,-65,121H0l-45,76l14,31H813l46,-76L845,822H578c0,0,76,-66,76,-157c0,0,0,-95,-87,-156c0,0,84,-48,131,-123c0,0,48,-76,48,-158c0,0,0,-109,-78,-182c0,0,-78,-72,-197,-72Z"
id="f6_ap"
transform="scale(0.001,-0.001)"/>

<path d="M663,-49L573,8V445H299V280L226,251c0,0,-105,99,-162,238l63,72H573V822H0l-45,76l14,31H837l46,-76L869,822H634l66,-58V-39L663,-49Z"
id="f6_bt"
transform="scale(0.001,-0.001)"/>

<path d="M-214,863l-199,281c0,0,-70,92,-157,92c0,0,-69,0,-159,-58l-72,118c0,0,89,73,180,73c0,0,141,0,258,-170L-155,901l-59,-38Z"
id="f6_d4"
transform="scale(0.001,-0.001)"/>

<path d="M845,-49L755,8V513H497c0,0,61,-45,93,-110c0,0,33,-64,33,-128c0,0,0,-90,-58,-144c0,0,-59,-53,-143,-53c0,0,-133,0,-234,139C188,217,87,356,20,596l76,24c0,0,60,-201,127,-306c0,0,67,-105,160,-105c0,0,57,0,91,36c0,0,33,36,33,91c0,0,0,84,-73,159L295,558v71H755V822H0l-45,76l14,31H1019l46,-76l-14,-31H816l66,-58V-39L845,-49Z"
id="f6_bg"
transform="scale(0.001,-0.001)"/>

<path d="M283,260c0,0,122,0,209,113V513c0,0,-90,51,-160,51c0,0,-80,0,-129,-50c0,0,-49,-50,-49,-118c0,0,0,-60,35,-110c0,0,45,-26,94,-26ZM582,-49L492,8V211c0,0,-63,-54,-141,-54c0,0,-113,0,-213,92c0,0,-100,92,-100,205c0,0,0,93,69,157c0,0,69,64,162,64c0,0,32,0,64,-9L492,590V822H0l-45,76l14,31H1108l45,-76l-13,-31H553l66,-58V524c0,0,91,89,192,89c0,0,98,0,171,-79c0,0,72,-79,72,-186c0,0,0,-178,-224,-330L736,124c0,0,219,153,219,269c0,0,0,44,-26,75c0,0,-26,32,-81,32c0,0,-109,0,-229,-155V-39L582,-49Z"
id="f6_b9"
transform="scale(0.001,-0.001)"/>

<path d="M547,-285c0,0,-66,25,-102,80c0,0,32,69,82,101c0,0,55,-20,99,-80c0,0,-26,-67,-79,-101Zm1,228c0,0,-122,0,-243,81c0,0,-122,81,-252,280l57,41C110,345,283,64,498,64c0,0,92,0,153,49c0,0,61,49,61,121c0,0,0,46,-28,84L440,237c0,0,-73,11,-139,55c0,0,-66,44,-105,105c0,0,-40,61,-40,119c0,0,0,72,62,125c0,0,62,53,184,53H625V822H0l-45,76l14,31H906l46,-76L938,822H678l66,-58V562H431c0,0,-164,0,-164,-99c0,0,0,-55,57,-102l261,82c0,0,104,-21,172,-98c0,0,68,-78,68,-171c0,0,0,-99,-76,-166c0,0,-77,-65,-201,-65Z"
id="f6_ch"
transform="scale(0.001,-0.001)"/>

<path d="M527,-71L52,414l34,92H277c0,0,12,32,12,72V822H0l-45,76l14,31H599l46,-76L631,822H350l66,-55V564c0,0,0,-96,-152,-248L610,34L611,8L527,-71Z"
id="f6_c1"
transform="scale(0.001,-0.001)"/>

<path d="M689,445V822H286l65,-58l8,-319ZM779,-49L689,8V328H370V180L296,150c0,0,-56,35,-120,104c0,0,-63,70,-89,131l41,60H238L223,822H0l-45,76l14,31H953l46,-76L985,822H750l66,-58V-39L779,-49Z"
id="f6_bz"
transform="scale(0.001,-0.001)"/>

<path d="M823,-49L733,8V339H445V191L371,160c0,0,-56,36,-120,105c0,0,-63,70,-89,131l41,59H313V735c0,0,0,99,-55,140c0,0,-3,1,-8,1c-16,0,-48,-3,-71,-23c0,0,-31,-26,-31,-66c0,0,0,-69,81,-113L189,620C189,620,31,720,31,828c0,0,0,61,45,99c0,0,46,37,109,37c0,0,96,0,173,-86c0,0,76,-87,79,-194V455H733V822H556l-46,76l14,31H998l45,-76l-13,-31H794l66,-58V-39L823,-49Z"
id="f6_by"
transform="scale(0.001,-0.001)"/>

<path d="M527,-71L52,414l34,92H277c0,0,12,32,12,72V822H0l-45,76l14,31H940l45,-76L972,822H350l66,-55V553c0,0,24,52,77,83c0,0,52,30,112,30c0,0,87,0,171,-76c0,0,84,-75,222,-304L938,244L828,411c0,0,-95,134,-195,134c0,0,-63,0,-100,-35c0,0,-36,-36,-36,-87c0,0,0,-50,42,-87l152,99L755,315c0,0,-71,-61,-148,-61c0,0,-80,0,-146,66c0,0,-65,67,-65,164c0,0,-34,-70,-132,-168L610,34L611,8L527,-71Z"
id="f6_n1"
transform="scale(0.001,-0.001)"/>

<path d="M675,-274L602,21C602,21,550,3,498,3C498,3,347,3,210,118C210,118,73,232,73,373c0,0,0,113,84,184c0,0,84,71,222,72H524V822H0l-45,76l14,31H834l46,-76L866,822H585l66,-58V504l-3,2l3,-3H408c0,0,-95,0,-154,-53c0,0,-58,-53,-58,-132c0,0,0,-49,27,-100c0,0,28,-50,83,-84c0,0,44,-15,96,-15c0,0,91,0,160,46L535,303l101,48L773,188c0,0,-8,-28,-34,-66c0,0,-27,-38,-62,-64L813,-221L675,-274Z"
id="f6_br"
transform="scale(0.001,-0.001)"/>

<path d="M830,-253l-123,66c0,0,31,47,31,78c0,0,0,44,-64,84L353,130c0,0,-234,113,-234,325V822H0l-45,76l14,31H848l46,-76L880,822H655l68,-58V561c0,0,0,-176,-41,-241c0,0,-40,-65,-161,-106l-49,82l124,69V822H180l66,-58V283L646,92c0,0,126,-60,176,-110c0,0,50,-51,50,-115c0,0,0,-62,-42,-120Z"
id="f6_ax"
transform="scale(0.001,-0.001)"/>

<path d="M283,260c0,0,122,0,209,113V513c0,0,-90,51,-160,51c0,0,-80,0,-129,-50c0,0,-49,-50,-49,-118c0,0,0,-60,35,-110c0,0,45,-26,94,-26ZM582,-49L492,8V211c0,0,-63,-54,-141,-54c0,0,-113,0,-214,92c0,0,-102,92,-102,206c0,0,0,93,69,157c0,0,69,63,163,63c0,0,34,0,66,-9L492,590V822H0l-45,76l14,31H909l46,-76L941,822H553l66,-58V521c0,0,93,104,192,104c0,0,63,0,120,-42c0,0,57,-42,82,-106L964,431l-5,9c0,0,-38,72,-110,72c0,0,-51,0,-105,-41c0,0,-53,-42,-125,-129V-39L582,-49Z"
id="f6_l1"
transform="scale(0.001,-0.001)"/>

<path d="M959,-49L869,8V367c0,0,-32,-13,-64,-13c0,0,-50,0,-110,25c0,0,23,-52,23,-109c0,0,0,-103,-70,-170c0,0,-70,-66,-182,-66c0,0,-110,0,-222,82c0,0,-111,83,-213,293l68,42c0,0,72,-155,152,-231c0,0,81,-76,178,-76c0,0,83,0,131,49c0,0,48,48,48,117c0,0,0,54,-30,100c0,0,-31,47,-91,65L325,391L257,512c0,0,68,53,156,56c0,0,140,72,140,179c0,0,0,69,-52,99c0,0,-4,1,-11,1c-19,0,-66,-4,-123,-30c0,0,-78,-35,-142,-96L150,823c0,0,119,117,253,117c0,0,98,0,175,-71c0,0,77,-70,77,-159c0,0,0,-103,-94,-180c0,0,39,-23,73,-56c0,0,52,-22,109,-22c0,0,77,0,126,38V822H727l-46,76l14,31h840l46,-76l-13,-31H1332l66,-58V-39l-37,-10L1271,8V822H930l66,-58V-39L959,-49Z"
id="f6_am"
transform="scale(0.001,-0.001)"/>

<path d="M325,240c0,0,77,0,154,35c0,0,77,35,120,99V500c0,0,-118,73,-222,73c0,0,-97,0,-151,-54c0,0,-53,-53,-53,-128c0,0,0,-73,49,-125c0,0,38,-26,103,-26ZM689,-49L599,8V199c0,0,-73,-65,-179,-65c0,0,-134,0,-252,96c0,0,-118,95,-118,221c0,0,0,102,78,171c0,0,78,69,190,69c0,0,38,0,75,-10L599,582V822H0l-45,76l14,31H863l46,-76L895,822H660l66,-58V-39L689,-49Z"
id="f6_c7"
transform="scale(0.001,-0.001)"/>

<path d="M959,-49L869,8V367c0,0,-32,-13,-64,-13c0,0,-50,0,-110,25c0,0,23,-52,23,-109c0,0,0,-103,-70,-170c0,0,-70,-66,-182,-66c0,0,-110,0,-222,82c0,0,-111,83,-213,293l68,42c0,0,72,-155,152,-231c0,0,81,-76,178,-76c0,0,83,0,131,49c0,0,48,48,48,117c0,0,0,54,-30,100c0,0,-31,47,-91,65L325,391L257,512c0,0,68,53,156,56c0,0,140,72,140,179c0,0,0,69,-52,99c0,0,-4,1,-11,1c-19,0,-66,-4,-123,-30c0,0,-78,-35,-142,-96L150,823c0,0,119,117,253,117c0,0,98,0,175,-71c0,0,77,-70,77,-159c0,0,0,-103,-94,-180c0,0,39,-23,73,-56c0,0,52,-22,109,-22c0,0,77,0,126,38V822H727l-46,76l14,31h558l-153,215c0,0,-70,92,-157,92c0,0,-69,0,-159,-58l-72,118c0,0,89,73,180,73c0,0,141,0,258,-170L1338,929h197l46,-76l-13,-31H1332l66,-58V-39l-37,-10L1271,8V822H930l66,-58V-39L959,-49Z"
id="f6_b1"
transform="scale(0.001,-0.001)"/>

<path d="M727,-49L637,8V822H278l66,-58V226L270,196c0,0,-64,36,-122,98c0,0,-58,62,-79,122l43,59H217V822H0l-45,76l14,31H901l46,-76L933,822H698l66,-58V-39L727,-49Z"
id="f6_bb"
transform="scale(0.001,-0.001)"/>

<path d="M0,822l-45,76l14,31H61l46,-76L93,822Z"
id="f6_no"
transform="scale(0.001,-0.001)"/>

<path d="M768,-49L678,8V202c0,0,-73,-58,-172,-58c0,0,-123,0,-240,94c0,0,-118,94,-179,237l20,55c0,0,134,12,215,70c0,0,81,57,81,141c0,0,0,90,-67,134l-26,3c0,0,-46,0,-74,-29c0,0,-28,-30,-28,-68c0,0,0,-55,82,-109L252,620C252,620,93,720,93,820c0,0,0,65,47,104c0,0,46,40,114,40c0,0,99,0,179,-83c0,0,80,-83,82,-197c0,0,0,-93,-79,-165c0,0,-78,-73,-199,-97c0,0,29,-104,88,-158c0,0,42,-16,92,-16c0,0,78,0,151,38c0,0,74,38,110,111V822H553l-46,76l14,31H943l45,-76L975,822H739l66,-58V-39L768,-49Z"
id="f6_bq"
transform="scale(0.001,-0.001)"/>

<path d="M413,-59C413,-59,53,193,53,416c0,0,0,97,66,164c0,0,66,66,156,66c0,0,61,0,110,-30L487,507c0,0,92,126,257,126l35,-2V822H0l-45,76l14,31H1043l46,-76l-13,-31H840l66,-58V-39L869,-49L779,8V547c0,0,-101,-5,-165,-90c0,0,-64,-86,-70,-222L507,225l-90,73c0,0,5,79,35,151c0,0,-59,66,-128,66c0,0,-57,0,-100,-38c0,0,-44,-39,-44,-109c0,0,0,-165,284,-360L413,-59Z"
id="f6_c3"
transform="scale(0.001,-0.001)"/>

<path d="M396,318c0,0,123,0,203,108V822H180l66,-58V408c0,0,49,-90,150,-90ZM176,-66L79,9L379,228c0,0,-106,23,-181,119c0,0,-76,96,-79,198V822H0l-45,76l14,31H863l46,-76L895,822H660l66,-58V-39L689,-49L599,8V269L176,-66Z"
id="f6_e6"
transform="scale(0.001,-0.001)"/>

<path d="M368,344c0,0,90,0,155,73V822H150l67,-58V438c0,0,46,-94,151,-94ZM613,-49L523,8V251c0,0,-48,-28,-103,-28c0,0,-122,0,-227,112C193,335,89,448,89,590V822H0l-45,76l14,31H1150l46,-76l-13,-31H584l65,-58V533c0,0,101,95,211,95c0,0,98,0,170,-79c0,0,73,-78,73,-185c0,0,0,-179,-225,-330L785,139c0,0,219,153,219,269c0,0,0,43,-26,75c0,0,-26,32,-80,32c0,0,-120,0,-249,-159V-39L613,-49Z"
id="f6_bw"
transform="scale(0.001,-0.001)"/>

<path d="M825,-49L735,8V217c0,0,-86,-72,-197,-72c0,0,-130,0,-238,91c0,0,-107,91,-107,204c0,0,0,55,27,105H55L12,616l14,30H574l46,-76L607,539H396c0,0,-78,-49,-78,-162c0,0,0,-70,40,-111c0,0,39,-15,94,-15c0,0,84,0,163,41c0,0,79,41,120,121V822H0l-45,76l14,31H999l46,-76l-14,-31H796l66,-58V-39L825,-49Z"
id="f6_be"
transform="scale(0.001,-0.001)"/>

<path d="M348,229c0,0,57,0,106,17L263,559c0,0,-95,-50,-95,-162c0,0,0,-75,52,-136c0,0,49,-32,128,-32Zm170,48c0,0,61,38,96,91V504c0,0,-131,80,-244,80l-35,-2L518,277ZM704,-49L614,8V193c0,0,-84,-65,-192,-65c0,0,-139,0,-255,98c0,0,-115,98,-115,226c0,0,0,106,77,175c0,0,77,70,189,70c0,0,38,0,75,-9L614,578V822H0l-45,76l14,31H878l46,-76L911,822H675l66,-58V-39L704,-49Z"
id="f6_bx"
transform="scale(0.001,-0.001)"/>

<path d="M799,475V822H350l66,-55V564c0,0,0,-43,-25,-89ZM527,-71L52,414l34,92H277c0,0,12,32,12,72V822H0l-45,76l14,31H1063l46,-76l-14,-31H860l66,-58V-39L889,-49L799,8V370H315L264,316L610,34L611,8L527,-71Z"
id="f6_cb"
transform="scale(0.001,-0.001)"/>

<path d="M180,196c0,0,-105,99,-162,238l63,72H573l40,-86L591,390H254V225L180,196ZM0,822l-45,76l14,31H409l46,-76L442,822Z"
id="f6_lj"
transform="scale(0.001,-0.001)"/>

<path d="M487,-7c0,0,-88,0,-185,46c0,0,-97,47,-163,130c0,0,-66,83,-66,185c0,0,0,109,80,177c0,0,79,68,234,68H504V822H0l-45,76l14,31H827l45,-76L859,822H565l66,-58V474l-3,1l3,-3H396c0,0,-100,0,-152,-47c0,0,-53,-48,-53,-119c0,0,0,-104,93,-178c0,0,60,-20,118,-20c0,0,81,0,156,36c0,0,76,35,123,99l92,-99C773,144,723,70,645,31C645,31,567,-7,487,-7Z"
id="f6_bk"
transform="scale(0.001,-0.001)"/>

<path d="M108,-433L-59,-214c0,0,-99,119,-191,119c0,0,-59,0,-96,-35c0,0,-36,-34,-36,-81c0,0,0,-49,42,-83l152,95l64,-116c0,0,-71,-58,-148,-58c0,0,-80,0,-146,63c0,0,-65,64,-65,144c0,0,0,77,62,131c0,0,61,53,142,53c0,0,138,0,296,-205L165,-393l-57,-40Z"
id="f6_cx"
transform="scale(0.001,-0.001)"/>

<path d="M413,313c0,0,91,0,145,58L231,782V408c0,0,47,-95,182,-95ZM603,438l11,28V822H295L603,438ZM704,-49L614,8V254c0,0,-61,-57,-151,-57c0,0,-138,0,-248,110c0,0,-111,110,-111,252V822H0l-45,76l14,31H878l46,-76L911,822H675l66,-58V-39L704,-49Z"
id="f6_ca"
transform="scale(0.001,-0.001)"/>

<path d="M342,324c0,0,45,0,75,34c0,0,31,33,31,100V822H165l66,-58V390c0,0,32,-66,111,-66ZM853,-49L762,8V822H509l65,-58V455c0,0,0,-134,-51,-185c0,0,-52,-52,-127,-52c0,0,-98,0,-195,99c0,0,-97,99,-97,209V822H0l-45,76l14,31H1027l46,-76l-14,-31H823l66,-58V-39L853,-49Z"
id="f6_bo"
transform="scale(0.001,-0.001)"/>

<path d="M252,385l310,78l22,-9c0,0,107,-43,200,-43c0,0,91,0,151,41V822H603l66,-58V585H373c0,0,-184,0,-184,-99c0,0,0,-48,63,-101ZM483,-305L295,-10c0,0,-90,22,-156,74l41,170h66L351,63c0,0,126,4,207,62c0,0,82,58,82,139c0,0,0,37,-18,71L365,266c0,0,-110,15,-197,102c0,0,-87,87,-87,176c0,0,0,69,59,117c0,0,59,48,172,48H550V822H0l-45,76l14,31H1199l46,-76l-14,-31H996l66,-58V-39l-37,-10L935,8V318c0,0,-41,-15,-78,-15c0,0,-52,0,-131,30c0,0,32,-55,32,-111c0,0,0,-109,-98,-179c0,0,-98,-69,-254,-69L599,-216L483,-305Z"
id="f6_bh"
transform="scale(0.001,-0.001)"/>

<path d="M725,307c0,0,-95,0,-218,78c0,0,-123,78,-188,78c0,0,-54,0,-95,-34c0,0,-41,-34,-73,-100L93,362c0,0,38,88,101,146c0,0,63,59,148,59c0,0,90,0,214,-78c0,0,124,-79,188,-79c0,0,63,0,106,34c0,0,42,33,85,104l60,-40c0,0,-32,-66,-101,-134c0,0,-70,-67,-169,-67Z"
id="f7_4r"
transform="scale(0.001,-0.001)"/>

<path d="M435,0V856c0,0,-48,-47,-127,-93c0,0,-79,-46,-142,-69V824c0,0,113,52,197,128c0,0,85,75,120,146h86V0Z"
id="f8_l"
transform="scale(0.001,-0.001)"/>

<path d="M420,92c0,0,92,0,155,89c0,0,64,89,64,358c0,0,0,270,-63,359c0,0,-63,89,-158,89c0,0,-92,0,-147,-79c0,0,-70,-100,-70,-369c0,0,0,-269,63,-358c0,0,63,-89,156,-89Zm0,-110c0,0,-158,0,-248,112C172,94,64,231,64,539c0,0,0,194,39,313c0,0,40,118,119,182c0,0,79,64,198,64c0,0,88,0,155,-35c0,0,66,-36,109,-103c0,0,43,-66,68,-162c0,0,24,-96,24,-259c0,0,0,-192,-39,-311C737,228,697,110,619,46c0,0,-79,-64,-199,-64Z"
id="f8_k"
transform="scale(0.001,-0.001)"/>

<path d="M46,0c0,0,-2,48,16,93c0,0,27,74,88,146c0,0,61,71,176,165c0,0,178,146,241,232c0,0,63,85,63,161c0,0,0,80,-57,135c0,0,-58,55,-149,55c0,0,-98,0,-156,-59c0,0,-58,-58,-59,-160L71,782c0,0,15,154,107,235c0,0,93,81,249,81c0,0,157,0,249,-87c0,0,92,-88,92,-217c0,0,0,-65,-27,-129c0,0,-27,-63,-89,-133c0,0,-62,-70,-207,-193C445,339,324,238,290,202c0,0,-35,-36,-57,-73H770V0Z"
id="f8_m"
transform="scale(0.001,-0.001)"/>


</defs>
</svg>