<?xml version="1.0" encoding="UTF-8" standalone="no"?>
<!DOCTYPE svg PUBLIC "-//W3C//DTD SVG 1.1//EN"
"http://www.w3.org/Graphics/SVG/1.1/DTD/svg11.dtd">
<svg viewBox="0 0 641 910" version="1.1" xmlns="http://www.w3.org/2000/svg" xmlns:xlink="http://www.w3.org/1999/xlink">
<defs>
<clipPath id="c0_94"><path d="M0,909.8V0H641.7V909.8Z"/></clipPath>
<clipPath id="c1_94"><path d="M0,908.6V0H641.7V908.6Z"/></clipPath>
<style type="text/css"><![CDATA[
.g0_94{
fill: #FFFFFF;
}
.g1_94{
}
]]></style>
</defs>
<path d="M0,0H641.7V909.8H0V0Z" class="g0_94"/>
<path d="M0,0H641.7V909.8H0V0Z" class="g0_94"/>
<g clip-path="url(#c0_94)">
<path d="M0,-79151.8H641.7V27293.8H0V-79151.8Z" class="g0_94"/>
</g>
<path d="M0,0H641.7V908.6H0V0Z" class="g0_94"/>
<path d="M19.5,60.7H602.7v1.2H19.5V60.7Z" class="g1_94"/>
<g clip-path="url(#c1_94)">
<path d="M0,61.9H641.7V909.8H0V61.9Z" class="g0_94"/>
<g fill="#000000" >
<use xlink:href="#f6_b1" transform="matrix(14,0,0,14,149.3,82.5)" />
<use xlink:href="#f6_bz" transform="matrix(14,0,0,14,176.4,82.5)" />
<use xlink:href="#f6_ct" transform="matrix(14,0,0,14,189.8,82.5)" />
<use xlink:href="#f6_c1" transform="matrix(14,0,0,14,195.4,82.5)" />
<use xlink:href="#f6_ct" transform="matrix(14,0,0,14,203.8,82.5)" />
<use xlink:href="#f6_by" transform="matrix(14,0,0,14,215,82.5)" />
<use xlink:href="#f6_d5" transform="matrix(14,0,0,14,229.1,82.5)" />
<use xlink:href="#f6_n1" transform="matrix(14,0,0,14,229,82.5)" />
<use xlink:href="#f6_bg" transform="matrix(14,0,0,14,242.1,82.5)" />
<use xlink:href="#f6_cv" transform="matrix(14,0,0,14,256.4,82.5)" />
<use xlink:href="#f6_k" transform="matrix(14,0,0,14,262,82.5)" />
<use xlink:href="#f6_mv" transform="matrix(14,0,0,14,272.9,82.5)" />
<use xlink:href="#f6_dk" transform="matrix(14,0,0,14,284.7,82.5)" />
<use xlink:href="#f6_ba" transform="matrix(14,0,0,14,289.3,82.5)" />
<use xlink:href="#f6_bv" transform="matrix(14,0,0,14,311.6,82.5)" />
<use xlink:href="#f6_cu" transform="matrix(14,0,0,14,323.5,82.5)" />
<use xlink:href="#f6_bm" transform="matrix(14,0,0,14,329.1,82.5)" />
<use xlink:href="#f6_c0" transform="matrix(14,0,0,14,341.8,82.5)" />
<use xlink:href="#f6_ct" transform="matrix(14,0,0,14,354.4,82.5)" />
<use xlink:href="#f6_bq" transform="matrix(14,0,0,14,365.6,82.5)" />
<use xlink:href="#f6_d8" transform="matrix(14,0,0,14,378.8,82.5)" />
<use xlink:href="#f6_c1" transform="matrix(14,0,0,14,384.5,82.5)" />
<use xlink:href="#f6_ct" transform="matrix(14,0,0,14,392.8,82.5)" />
<use xlink:href="#f6_by" transform="matrix(14,0,0,14,404.1,82.5)" />
<use xlink:href="#f6_l1" transform="matrix(14,0,0,14,418.1,82.5)" />
<use xlink:href="#f6_bp" transform="matrix(14,0,0,14,429.9,82.5)" />
<use xlink:href="#f6_d8" transform="matrix(14,0,0,14,442.3,82.5)" />
<use xlink:href="#f6_dj" transform="matrix(14,0,0,14,446.6,83.4)" />
<use xlink:href="#f6_bz" transform="matrix(14,0,0,14,453.5,82.5)" />
<use xlink:href="#f6_oz" transform="matrix(14,0,0,14,467,82.5)" />
<use xlink:href="#f6_k" transform="matrix(14,0,0,14,466.9,82.5)" />
<use xlink:href="#f6_b1" transform="matrix(14,0,0,14,129.8,115.7)" />
<use xlink:href="#f6_bz" transform="matrix(14,0,0,14,156.9,115.7)" />
<use xlink:href="#f6_ct" transform="matrix(14,0,0,14,170.3,115.7)" />
<use xlink:href="#f6_c1" transform="matrix(14,0,0,14,175.9,115.7)" />
<use xlink:href="#f6_ct" transform="matrix(14,0,0,14,184.3,115.7)" />
<use xlink:href="#f6_by" transform="matrix(14,0,0,14,195.6,115.7)" />
<use xlink:href="#f6_d5" transform="matrix(14,0,0,14,209.7,115.7)" />
<use xlink:href="#f6_n1" transform="matrix(14,0,0,14,209.5,115.7)" />
<use xlink:href="#f6_bg" transform="matrix(14,0,0,14,222.7,115.7)" />
<use xlink:href="#f6_cv" transform="matrix(14,0,0,14,236.9,115.7)" />
<use xlink:href="#f6_k" transform="matrix(14,0,0,14,242.5,115.7)" />
<use xlink:href="#f6_by" transform="matrix(14,0,0,14,253.4,115.7)" />
<use xlink:href="#f6_l1" transform="matrix(14,0,0,14,267.4,115.7)" />
<use xlink:href="#f6_bp" transform="matrix(14,0,0,14,279.3,115.7)" />
<use xlink:href="#f6_d8" transform="matrix(14,0,0,14,291.6,115.7)" />
<use xlink:href="#f6_dj" transform="matrix(14,0,0,14,295.9,116.6)" />
<use xlink:href="#f6_c1" transform="matrix(14,0,0,14,302.9,115.7)" />
<use xlink:href="#f6_cv" transform="matrix(14,0,0,14,311.2,115.7)" />
<use xlink:href="#f6_c3" transform="matrix(14,0,0,14,322.5,115.7)" />
<use xlink:href="#f6_ct" transform="matrix(14,0,0,14,337.2,115.7)" />
<use xlink:href="#f6_bg" transform="matrix(14,0,0,14,342.8,115.7)" />
<use xlink:href="#f6_c1" transform="matrix(14,0,0,14,362.8,115.7)" />
<use xlink:href="#f6_ct" transform="matrix(14,0,0,14,371.2,115.7)" />
<use xlink:href="#f6_ba" transform="matrix(14,0,0,14,376.8,115.7)" />
<use xlink:href="#f6_d8" transform="matrix(14,0,0,14,393.5,115.7)" />
<use xlink:href="#f6_bz" transform="matrix(14,0,0,14,404.8,115.7)" />
<use xlink:href="#f6_ct" transform="matrix(14,0,0,14,418.1,115.7)" />
<use xlink:href="#f6_c1" transform="matrix(14,0,0,14,423.7,115.7)" />
<use xlink:href="#f6_ct" transform="matrix(14,0,0,14,432.1,115.7)" />
<use xlink:href="#f6_by" transform="matrix(14,0,0,14,443.4,115.7)" />
<use xlink:href="#f6_d5" transform="matrix(14,0,0,14,457.5,115.7)" />
<use xlink:href="#f6_n1" transform="matrix(14,0,0,14,457.4,115.7)" />
<use xlink:href="#f6_bg" transform="matrix(14,0,0,14,470.5,115.7)" />
<use xlink:href="#f6_cv" transform="matrix(14,0,0,14,484.8,115.7)" />
<use xlink:href="#f6_am" transform="matrix(14,0,0,14,185.9,149)" />
<use xlink:href="#f6_bm" transform="matrix(14,0,0,14,207.4,149)" />
<use xlink:href="#f6_cv" transform="matrix(14,0,0,14,220.1,149)" />
<use xlink:href="#f6_bm" transform="matrix(14,0,0,14,231.4,149)" />
<use xlink:href="#f6_d8" transform="matrix(14,0,0,14,244.1,149)" />
<use xlink:href="#f6_bm" transform="matrix(14,0,0,14,249.7,149)" />
<use xlink:href="#f6_cv" transform="matrix(14,0,0,14,262.4,149)" />
<use xlink:href="#f6_bt" transform="matrix(14,0,0,14,273.6,149)" />
<use xlink:href="#f6_bg" transform="matrix(14,0,0,14,285.4,149)" />
<use xlink:href="#f6_c1" transform="matrix(14,0,0,14,299.6,149)" />
<use xlink:href="#f6_d8" transform="matrix(14,0,0,14,308,149)" />
<use xlink:href="#f6_b9" transform="matrix(14,0,0,14,319.3,149)" />
<use xlink:href="#f6_ct" transform="matrix(14,0,0,14,334.8,149)" />
<use xlink:href="#f6_ao" transform="matrix(14,0,0,14,340.4,149)" />
<use xlink:href="#f6_c1" transform="matrix(14,0,0,14,357.6,149)" />
<use xlink:href="#f6_ct" transform="matrix(14,0,0,14,365.9,149)" />
<use xlink:href="#f6_ba" transform="matrix(14,0,0,14,371.6,149)" />
<use xlink:href="#f6_d8" transform="matrix(14,0,0,14,388.3,149)" />
<use xlink:href="#f6_2s" transform="matrix(14,0,0,14,399.6,149)" />
<use xlink:href="#f6_2s" transform="matrix(14,0,0,14,405.8,149)" />
<use xlink:href="#f6_nc" transform="matrix(14,0,0,14,412.1,149)" />
<use xlink:href="#f6_2s" transform="matrix(14,0,0,14,422.5,149)" />
<use xlink:href="#f6_2s" transform="matrix(14,0,0,14,428.8,149)" />
<use xlink:href="#f6_b1" transform="matrix(14,0,0,14,166.4,207.4)" />
<use xlink:href="#f6_bz" transform="matrix(14,0,0,14,193.6,207.4)" />
<use xlink:href="#f6_ct" transform="matrix(14,0,0,14,206.9,207.4)" />
<use xlink:href="#f6_c1" transform="matrix(14,0,0,14,212.6,207.4)" />
<use xlink:href="#f6_ct" transform="matrix(14,0,0,14,220.9,207.4)" />
<use xlink:href="#f6_by" transform="matrix(14,0,0,14,232.2,207.4)" />
<use xlink:href="#f6_d5" transform="matrix(14,0,0,14,246.3,207.4)" />
<use xlink:href="#f6_n1" transform="matrix(14,0,0,14,246.2,207.4)" />
<use xlink:href="#f6_bg" transform="matrix(14,0,0,14,259.3,207.4)" />
<use xlink:href="#f6_cv" transform="matrix(14,0,0,14,273.6,207.4)" />
<use xlink:href="#f6_k" transform="matrix(14,0,0,14,279.2,207.4)" />
<use xlink:href="#f6_bz" transform="matrix(14,0,0,14,290.1,207.4)" />
<use xlink:href="#f6_d8" transform="matrix(14,0,0,14,303.4,207.4)" />
<use xlink:href="#f6_cc" transform="matrix(14,0,0,14,309.1,207.4)" />
<use xlink:href="#f6_cv" transform="matrix(14,0,0,14,320.7,207.4)" />
<use xlink:href="#f6_bz" transform="matrix(14,0,0,14,332,207.4)" />
<use xlink:href="#f6_dj" transform="matrix(14,0,0,14,339.4,207.8)" />
<use xlink:href="#f6_bm" transform="matrix(14,0,0,14,345.3,207.4)" />
<use xlink:href="#f6_c3" transform="matrix(14,0,0,14,358,207.4)" />
<use xlink:href="#f6_8d" transform="matrix(14,0,0,14,372.7,207.4)" />
<use xlink:href="#f6_c1" transform="matrix(14,0,0,14,383,207.4)" />
<use xlink:href="#f6_cv" transform="matrix(14,0,0,14,391.4,207.4)" />
<use xlink:href="#f6_cu" transform="matrix(14,0,0,14,402.7,207.4)" />
<use xlink:href="#f6_c7" transform="matrix(14,0,0,14,408.3,207.4)" />
<use xlink:href="#f6_bt" transform="matrix(14,0,0,14,420.4,207.4)" />
<use xlink:href="#f6_dj" transform="matrix(14,0,0,14,429.2,207.8)" />
<use xlink:href="#f6_bp" transform="matrix(14,0,0,14,432.1,207.4)" />
<use xlink:href="#f6_cv" transform="matrix(14,0,0,14,444.4,207.4)" />
<use xlink:href="#f6_k" transform="matrix(14,0,0,14,450,207.4)" />
<use xlink:href="#f6_b1" transform="matrix(14,0,0,14,134.4,240.6)" />
<use xlink:href="#f6_bz" transform="matrix(14,0,0,14,161.5,240.6)" />
<use xlink:href="#f6_ct" transform="matrix(14,0,0,14,174.9,240.6)" />
<use xlink:href="#f6_c1" transform="matrix(14,0,0,14,180.5,240.6)" />
<use xlink:href="#f6_ct" transform="matrix(14,0,0,14,188.9,240.6)" />
<use xlink:href="#f6_by" transform="matrix(14,0,0,14,200.1,240.6)" />
<use xlink:href="#f6_d5" transform="matrix(14,0,0,14,214.2,240.6)" />
<use xlink:href="#f6_n1" transform="matrix(14,0,0,14,214.1,240.6)" />
<use xlink:href="#f6_bg" transform="matrix(14,0,0,14,227.2,240.6)" />
<use xlink:href="#f6_cv" transform="matrix(14,0,0,14,241.5,240.6)" />
<use xlink:href="#f6_k" transform="matrix(14,0,0,14,247.1,240.6)" />
<use xlink:href="#f6_by" transform="matrix(14,0,0,14,252.3,240.6)" />
<use xlink:href="#f6_c7" transform="matrix(14,0,0,14,266.3,240.6)" />
<use xlink:href="#f6_d8" transform="matrix(14,0,0,14,278.4,240.6)" />
<use xlink:href="#f6_by" transform="matrix(14,0,0,14,289.7,240.6)" />
<use xlink:href="#f6_c7" transform="matrix(14,0,0,14,303.6,240.6)" />
<use xlink:href="#f6_bv" transform="matrix(14,0,0,14,321.4,240.6)" />
<use xlink:href="#f6_ct" transform="matrix(14,0,0,14,333.2,240.6)" />
<use xlink:href="#f6_c1" transform="matrix(14,0,0,14,338.9,240.6)" />
<use xlink:href="#f6_ap" transform="matrix(14,0,0,14,352.9,240.6)" />
<use xlink:href="#f6_bp" transform="matrix(14,0,0,14,364.3,240.6)" />
<use xlink:href="#f6_ct" transform="matrix(14,0,0,14,376.6,240.6)" />
<use xlink:href="#f6_c1" transform="matrix(14,0,0,14,382.2,240.6)" />
<use xlink:href="#f6_d8" transform="matrix(14,0,0,14,390.6,240.6)" />
<use xlink:href="#f6_bz" transform="matrix(14,0,0,14,401.9,240.6)" />
<use xlink:href="#f6_ct" transform="matrix(14,0,0,14,415.2,240.6)" />
<use xlink:href="#f6_c1" transform="matrix(14,0,0,14,420.8,240.6)" />
<use xlink:href="#f6_ct" transform="matrix(14,0,0,14,429.2,240.6)" />
<use xlink:href="#f6_by" transform="matrix(14,0,0,14,440.5,240.6)" />
<use xlink:href="#f6_d5" transform="matrix(14,0,0,14,454.6,240.6)" />
<use xlink:href="#f6_n0" transform="matrix(14,0,0,14,454.5,240.6)" />
<use xlink:href="#f6_bg" transform="matrix(14,0,0,14,467.6,240.6)" />
<use xlink:href="#f6_cv" transform="matrix(14,0,0,14,481.9,240.6)" />
<use xlink:href="#f6_am" transform="matrix(14,0,0,14,184.8,273.9)" />
<use xlink:href="#f6_bm" transform="matrix(14,0,0,14,206.3,273.9)" />
<use xlink:href="#f6_cv" transform="matrix(14,0,0,14,218.9,273.9)" />
<use xlink:href="#f6_bm" transform="matrix(14,0,0,14,230.2,273.9)" />
<use xlink:href="#f6_d8" transform="matrix(14,0,0,14,242.9,273.9)" />
<use xlink:href="#f6_bm" transform="matrix(14,0,0,14,248.5,273.9)" />
<use xlink:href="#f6_cv" transform="matrix(14,0,0,14,261.2,273.9)" />
<use xlink:href="#f6_bt" transform="matrix(14,0,0,14,272.5,273.9)" />
<use xlink:href="#f6_bg" transform="matrix(14,0,0,14,284.2,273.9)" />
<use xlink:href="#f6_c1" transform="matrix(14,0,0,14,298.5,273.9)" />
<use xlink:href="#f6_d8" transform="matrix(14,0,0,14,306.8,273.9)" />
<use xlink:href="#f6_b9" transform="matrix(14,0,0,14,318.1,273.9)" />
<use xlink:href="#f6_ct" transform="matrix(14,0,0,14,333.6,273.9)" />
<use xlink:href="#f6_ao" transform="matrix(14,0,0,14,339.3,273.9)" />
<use xlink:href="#f6_c1" transform="matrix(14,0,0,14,356.4,273.9)" />
<use xlink:href="#f6_ct" transform="matrix(14,0,0,14,364.8,273.9)" />
<use xlink:href="#f6_ba" transform="matrix(14,0,0,14,370.4,273.9)" />
<use xlink:href="#f6_d8" transform="matrix(14,0,0,14,387.1,273.9)" />
<use xlink:href="#f6_2s" transform="matrix(14,0,0,14,398.4,273.9)" />
<use xlink:href="#f6_2s" transform="matrix(14,0,0,14,404.7,273.9)" />
<use xlink:href="#f6_nd" transform="matrix(14,0,0,14,411,273.9)" />
<use xlink:href="#f6_2s" transform="matrix(14,0,0,14,423.5,273.9)" />
<use xlink:href="#f6_2s" transform="matrix(14,0,0,14,429.8,273.9)" />
<use xlink:href="#f7_4r" transform="matrix(9,0,0,9,290.2,795.2)" />
<use xlink:href="#f8_s" transform="matrix(9,0,0,9,303,795.2)" />
<use xlink:href="#f8_s" transform="matrix(9,0,0,9,310.7,795.2)" />
<use xlink:href="#f7_4r" transform="matrix(9,0,0,9,321.3,795.2)" />
</g>
</g>
<image preserveAspectRatio="none" x="22" y="801" width="581" height="86" xlink:href="img/1.png"/>
<image preserveAspectRatio="none" x="202" y="14" width="217" height="26" xlink:href="img/2.png"/>
<defs>
<path d="M959,-49L869,8V367c0,0,-32,-13,-64,-13c0,0,-50,0,-110,25c0,0,23,-52,23,-109c0,0,0,-103,-70,-170c0,0,-70,-66,-182,-66c0,0,-110,0,-222,82c0,0,-111,83,-213,293l68,42c0,0,72,-155,152,-231c0,0,81,-76,178,-76c0,0,83,0,131,49c0,0,48,48,48,117c0,0,0,54,-30,100c0,0,-31,47,-91,65L325,391L257,512c0,0,68,53,156,56c0,0,140,72,140,179c0,0,0,69,-52,99c0,0,-4,1,-11,1c-19,0,-66,-4,-123,-30c0,0,-78,-35,-142,-96L150,823c0,0,119,117,253,117c0,0,98,0,175,-71c0,0,77,-70,77,-159c0,0,0,-103,-94,-180c0,0,39,-23,73,-56c0,0,52,-22,109,-22c0,0,77,0,126,38V822H727l-46,76l14,31h558l-153,215c0,0,-70,92,-157,92c0,0,-69,0,-159,-58l-72,118c0,0,89,73,180,73c0,0,141,0,258,-170L1338,929h197l46,-76l-13,-31H1332l66,-58V-39l-37,-10L1271,8V822H930l66,-58V-39L959,-49Z"
id="f6_b1"
transform="scale(0.001,-0.001)"/>

<path d="M689,445V822H286l65,-58l8,-319ZM779,-49L689,8V328H370V180L296,150c0,0,-56,35,-120,104c0,0,-63,70,-89,131l41,60H238L223,822H0l-45,76l14,31H953l46,-76L985,822H750l66,-58V-39L779,-49Z"
id="f6_bz"
transform="scale(0.001,-0.001)"/>

<path d="M228,-49L138,8V822H0l-45,76l14,31H402l46,-76L434,822H199l65,-58V-39L228,-49Z"
id="f6_ct"
transform="scale(0.001,-0.001)"/>

<path d="M527,-71L52,414l34,92H277c0,0,12,32,12,72V822H0l-45,76l14,31H599l46,-76L631,822H350l66,-55V564c0,0,0,-96,-152,-248L610,34L611,8L527,-71Z"
id="f6_c1"
transform="scale(0.001,-0.001)"/>

<path d="M823,-49L733,8V339H445V191L371,160c0,0,-56,36,-120,105c0,0,-63,70,-89,131l41,59H313V735c0,0,0,99,-55,140c0,0,-3,1,-8,1c-16,0,-48,-3,-71,-23c0,0,-31,-26,-31,-66c0,0,0,-69,81,-113L189,620C189,620,31,720,31,828c0,0,0,61,45,99c0,0,46,37,109,37c0,0,96,0,173,-86c0,0,76,-87,79,-194V455H733V822H556l-46,76l14,31H998l45,-76l-13,-31H794l66,-58V-39L823,-49Z"
id="f6_by"
transform="scale(0.001,-0.001)"/>

<path d="M-214,860l-227,219c0,0,-73,70,-148,70c0,0,-67,0,-160,-58l-72,117c0,0,83,71,176,71c0,0,120,0,232,-124L-221,940l-102,294c0,0,-64,179,-189,179c0,0,-60,0,-133,-33l-60,125c0,0,84,47,164,47c0,0,200,0,281,-276L-150,901l-23,-15l-41,-26Z"
id="f6_d5"
transform="scale(0.001,-0.001)"/>

<path d="M527,-71L52,414l34,92H277c0,0,12,32,12,72V822H0l-45,76l14,31H940l45,-76L972,822H350l66,-55V553c0,0,24,52,77,83c0,0,52,30,112,30c0,0,87,0,171,-76c0,0,84,-75,222,-304L938,244L828,411c0,0,-95,134,-195,134c0,0,-63,0,-100,-35c0,0,-36,-36,-36,-87c0,0,0,-50,42,-87l152,99L755,315c0,0,-71,-61,-148,-61c0,0,-80,0,-146,66c0,0,-65,67,-65,164c0,0,-34,-70,-132,-168L610,34L611,8L527,-71Z"
id="f6_n1"
transform="scale(0.001,-0.001)"/>

<path d="M845,-49L755,8V513H497c0,0,61,-45,93,-110c0,0,33,-64,33,-128c0,0,0,-90,-58,-144c0,0,-59,-53,-143,-53c0,0,-133,0,-234,139C188,217,87,356,20,596l76,24c0,0,60,-201,127,-306c0,0,67,-105,160,-105c0,0,57,0,91,36c0,0,33,36,33,91c0,0,0,84,-73,159L295,558v71H755V822H0l-45,76l14,31H1019l46,-76l-14,-31H816l66,-58V-39L845,-49Z"
id="f6_bg"
transform="scale(0.001,-0.001)"/>

<path d="M228,-49L138,8V822H0l-45,76l14,31H138c0,0,-109,342,-284,342c0,0,-62,0,-102,-40c0,0,-40,-39,-40,-93c0,0,0,-61,51,-134l-42,-32c0,0,-128,113,-128,226c0,0,0,79,60,136c0,0,61,56,154,56c0,0,137,0,249,-125c0,0,112,-125,169,-336H402l46,-76L434,822H199l65,-58V-39L228,-49Z"
id="f6_cv"
transform="scale(0.001,-0.001)"/>

<path d="M108,-222l-44,58c0,0,96,81,104,164L89,61c0,0,12,83,93,122c0,0,50,-15,79,-55c0,0,29,-39,29,-90c0,0,0,-69,-48,-142c0,0,-48,-72,-134,-118Z"
id="f6_k"
transform="scale(0.001,-0.001)"/>

<path d="M652,-518c0,0,-209,0,-487,322l53,49c0,0,120,-129,210,-193c0,0,90,-65,177,-65c0,0,72,0,113,39c0,0,41,40,41,92c0,0,0,75,-78,105L564,-286l-90,98c0,0,62,96,169,96L605,37C605,37,552,18,498,18c0,0,-151,0,-288,115C210,133,73,248,73,388c0,0,0,113,84,184c0,0,84,71,222,73H524V822H0l-45,76l14,31H842l46,-76L874,822H567l84,-73V519l-3,2l3,-3H408c0,0,-93,0,-153,-52c0,0,-59,-52,-59,-128c0,0,0,-121,110,-188c0,0,53,-17,105,-17c0,0,92,0,153,43L535,318l101,49L773,203c0,0,-20,-67,-87,-122l61,-204c0,0,52,-32,83,-87c0,0,32,-55,32,-116c0,0,0,-85,-61,-139c0,0,-60,-53,-149,-53Z"
id="f6_mv"
transform="scale(0.001,-0.001)"/>

<path d="M163,118c0,0,-65,24,-102,79c0,0,32,69,83,101c0,0,55,-20,99,-80c0,0,-26,-67,-80,-100Zm0,382c0,0,-65,24,-102,79c0,0,32,69,83,101c0,0,55,-20,99,-80c0,0,-26,-67,-80,-100Z"
id="f6_dk"
transform="scale(0.001,-0.001)"/>

<path d="M761,293c0,0,127,0,169,94V532c0,0,-68,46,-145,46c0,0,-76,0,-121,-46c0,0,-45,-45,-45,-107c0,0,0,-61,44,-110c0,0,47,-22,98,-22ZM657,67c0,0,166,0,273,107v55c0,0,-45,-36,-111,-36c0,0,-110,0,-207,90c0,0,-97,90,-97,194c0,0,0,85,66,148c0,0,65,63,155,63l48,-5L930,603V822H376l62,-55V579c0,0,0,-60,-23,-102c0,0,-24,-42,-148,-190c0,0,66,-104,175,-162c0,0,108,-58,215,-58ZM1021,-49L930,8V53c0,0,-105,-83,-264,-83c0,0,-177,0,-339,128C327,98,165,226,90,429l34,77H296c0,0,19,39,19,102l-2,214H0l-45,76l14,31H1195l46,-76l-14,-31H992l65,-58V-39l-36,-10Z"
id="f6_ba"
transform="scale(0.001,-0.001)"/>

<path d="M388,325c0,0,58,0,112,31c0,0,53,31,84,86V822H165l69,-58V408c0,0,47,-83,154,-83ZM674,-49L584,8V257c0,0,-61,-51,-141,-51c0,0,-125,0,-232,109c0,0,-107,108,-107,243V822H0l-45,76l14,31H848l46,-76L880,822H645l65,-58V-39L674,-49Z"
id="f6_bv"
transform="scale(0.001,-0.001)"/>

<path d="M228,-49L138,8V822H0l-45,76l14,31H134c0,0,-91,92,-91,191c0,0,0,105,85,170c0,0,84,65,219,65c0,0,128,0,293,-76c0,0,165,-77,362,-263L958,966c0,0,-177,143,-303,210c0,0,-125,68,-244,68c0,0,-107,0,-175,-50c0,0,-68,-50,-68,-131c0,0,0,-61,49,-134H402l46,-76L434,822H199l65,-58V-39L228,-49Z"
id="f6_cu"
transform="scale(0.001,-0.001)"/>

<path d="M548,-57c0,0,-122,0,-243,81c0,0,-122,81,-252,280l57,41C110,345,283,64,498,64c0,0,92,0,153,49c0,0,61,49,61,121c0,0,0,46,-28,84L440,237c0,0,-73,11,-139,55c0,0,-66,44,-105,105c0,0,-40,61,-40,119c0,0,0,72,62,125c0,0,62,53,184,53H625V822H0l-45,76l14,31H906l46,-76L938,822H678l66,-58V562H431c0,0,-164,0,-164,-99c0,0,0,-55,57,-102l261,82c0,0,104,-21,172,-98c0,0,68,-78,68,-171c0,0,0,-99,-76,-166c0,0,-77,-65,-201,-65Z"
id="f6_bm"
transform="scale(0.001,-0.001)"/>

<path d="M374,248c0,0,77,0,149,36c0,0,71,37,110,107V822H284c0,0,138,-96,138,-208c0,0,0,-151,-228,-192c0,0,29,-104,89,-158c0,0,41,-16,91,-16ZM723,-49L633,8V200c0,0,-69,-56,-170,-56c0,0,-122,0,-240,94c0,0,-118,94,-179,237l20,55c0,0,133,17,187,44c0,0,55,28,55,84c0,0,0,45,-30,81c0,0,-30,36,-99,83H0l-45,76l14,31H897l46,-76L929,822H694l65,-58V-39L723,-49Z"
id="f6_c0"
transform="scale(0.001,-0.001)"/>

<path d="M768,-49L678,8V202c0,0,-73,-58,-172,-58c0,0,-123,0,-240,94c0,0,-118,94,-179,237l20,55c0,0,134,12,215,70c0,0,81,57,81,141c0,0,0,90,-67,134l-26,3c0,0,-46,0,-74,-29c0,0,-28,-30,-28,-68c0,0,0,-55,82,-109L252,620C252,620,93,720,93,820c0,0,0,65,47,104c0,0,46,40,114,40c0,0,99,0,179,-83c0,0,80,-83,82,-197c0,0,0,-93,-79,-165c0,0,-78,-73,-199,-97c0,0,29,-104,88,-158c0,0,42,-16,92,-16c0,0,78,0,151,38c0,0,74,38,110,111V822H553l-46,76l14,31H943l45,-76L975,822H739l66,-58V-39L768,-49Z"
id="f6_bq"
transform="scale(0.001,-0.001)"/>

<path d="M228,-49L138,8V822H0l-45,76l14,31H119L-33,1144c0,0,-70,92,-157,92c0,0,-69,0,-159,-58l-72,118c0,0,89,73,181,73c0,0,140,0,257,-170L205,929H402l46,-76L434,822H199l65,-58V-39L228,-49Z"
id="f6_d8"
transform="scale(0.001,-0.001)"/>

<path d="M283,260c0,0,122,0,209,113V513c0,0,-90,51,-160,51c0,0,-80,0,-129,-50c0,0,-49,-50,-49,-118c0,0,0,-60,35,-110c0,0,45,-26,94,-26ZM582,-49L492,8V211c0,0,-63,-54,-141,-54c0,0,-113,0,-214,92c0,0,-102,92,-102,206c0,0,0,93,69,157c0,0,69,63,163,63c0,0,34,0,66,-9L492,590V822H0l-45,76l14,31H909l46,-76L941,822H553l66,-58V521c0,0,93,104,192,104c0,0,63,0,120,-42c0,0,57,-42,82,-106L964,431l-5,9c0,0,-38,72,-110,72c0,0,-51,0,-105,-41c0,0,-53,-42,-125,-129V-39L582,-49Z"
id="f6_l1"
transform="scale(0.001,-0.001)"/>

<path d="M347,-57C347,-57,66,211,66,394c0,0,0,98,74,164c0,0,74,65,225,65H616V822H0l-45,76l14,31H880l46,-76L912,822H677l66,-58V-39L706,-49L616,8V500H428c0,0,-239,0,-239,-161c0,0,0,-136,214,-343L347,-57Z"
id="f6_bp"
transform="scale(0.001,-0.001)"/>

<path d="M0,1062c0,0,-26,11,-60,36c0,0,-34,26,-51,49c0,0,39,81,91,110c0,0,60,-23,106,-85c0,0,-28,-70,-86,-110Z"
id="f6_dj"
transform="scale(0.001,-0.001)"/>

<path d="M-91,1001c0,0,-27,10,-61,36c0,0,-33,26,-50,49c0,0,38,81,90,110c0,0,61,-23,107,-85c0,0,-28,-71,-86,-110ZM-214,863l-199,281c0,0,-70,92,-157,92c0,0,-69,0,-159,-58l-72,118c0,0,89,73,180,73c0,0,141,0,258,-170L-155,901l-59,-38Z"
id="f6_oz"
transform="scale(0.001,-0.001)"/>

<path d="M413,-59C413,-59,53,193,53,416c0,0,0,97,66,164c0,0,66,66,156,66c0,0,61,0,110,-30L487,507c0,0,92,126,257,126l35,-2V822H0l-45,76l14,31H1043l46,-76l-13,-31H840l66,-58V-39L869,-49L779,8V547c0,0,-101,-5,-165,-90c0,0,-64,-86,-70,-222L507,225l-90,73c0,0,5,79,35,151c0,0,-59,66,-128,66c0,0,-57,0,-100,-38c0,0,-44,-39,-44,-109c0,0,0,-165,284,-360L413,-59Z"
id="f6_c3"
transform="scale(0.001,-0.001)"/>

<path d="M959,-49L869,8V367c0,0,-32,-13,-64,-13c0,0,-50,0,-110,25c0,0,23,-52,23,-109c0,0,0,-103,-70,-170c0,0,-70,-66,-182,-66c0,0,-110,0,-222,82c0,0,-111,83,-213,293l68,42c0,0,72,-155,152,-231c0,0,81,-76,178,-76c0,0,83,0,131,49c0,0,48,48,48,117c0,0,0,54,-30,100c0,0,-31,47,-91,65L325,391L257,512c0,0,68,53,156,56c0,0,140,72,140,179c0,0,0,69,-52,99c0,0,-4,1,-11,1c-19,0,-66,-4,-123,-30c0,0,-78,-35,-142,-96L150,823c0,0,119,117,253,117c0,0,98,0,175,-71c0,0,77,-70,77,-159c0,0,0,-103,-94,-180c0,0,39,-23,73,-56c0,0,52,-22,109,-22c0,0,77,0,126,38V822H727l-46,76l14,31h840l46,-76l-13,-31H1332l66,-58V-39l-37,-10L1271,8V822H930l66,-58V-39L959,-49Z"
id="f6_am"
transform="scale(0.001,-0.001)"/>

<path d="M663,-49L573,8V445H299V280L226,251c0,0,-105,99,-162,238l63,72H573V822H0l-45,76l14,31H837l46,-76L869,822H634l66,-58V-39L663,-49Z"
id="f6_bt"
transform="scale(0.001,-0.001)"/>

<path d="M283,260c0,0,122,0,209,113V513c0,0,-90,51,-160,51c0,0,-80,0,-129,-50c0,0,-49,-50,-49,-118c0,0,0,-60,35,-110c0,0,45,-26,94,-26ZM582,-49L492,8V211c0,0,-63,-54,-141,-54c0,0,-113,0,-213,92c0,0,-100,92,-100,205c0,0,0,93,69,157c0,0,69,64,162,64c0,0,32,0,64,-9L492,590V822H0l-45,76l14,31H1108l45,-76l-13,-31H553l66,-58V524c0,0,91,89,192,89c0,0,98,0,171,-79c0,0,72,-79,72,-186c0,0,0,-178,-224,-330L736,124c0,0,219,153,219,269c0,0,0,44,-26,75c0,0,-26,32,-81,32c0,0,-109,0,-229,-155V-39L582,-49Z"
id="f6_b9"
transform="scale(0.001,-0.001)"/>

<path d="M483,-305L295,-10c0,0,-90,22,-156,74l41,170h66L351,63c0,0,126,4,207,62c0,0,82,58,82,139c0,0,0,37,-18,71L365,266c0,0,-110,15,-197,102c0,0,-87,87,-87,176c0,0,0,69,59,117c0,0,59,48,172,48H550V822H0l-45,76l14,31H550c0,0,-142,122,-142,255c0,0,0,78,52,133c0,0,52,55,140,55c0,0,98,0,176,-64l-23,-69c0,0,-53,32,-104,32c0,0,-56,0,-94,-36c0,0,-39,-36,-39,-95c0,0,0,-109,112,-211H822l46,-76L854,822H603l66,-58V585H373c0,0,-184,0,-184,-99c0,0,0,-48,63,-101l310,78c0,0,86,-34,141,-99c0,0,55,-65,55,-142c0,0,0,-109,-98,-179c0,0,-98,-69,-254,-69L599,-216L483,-305Z"
id="f6_ao"
transform="scale(0.001,-0.001)"/>

<path d="M163,-343V1123H281V-343Z"
id="f6_2s"
transform="scale(0.001,-0.001)"/>

<path d="M626,-175L564,73C564,73,510,53,454,53c0,0,-129,0,-240,92c0,0,-112,92,-112,209c0,0,0,115,98,185c0,0,-139,89,-139,211c0,0,0,90,77,150c0,0,76,59,197,59c0,0,136,0,236,-64V779c0,0,-110,63,-213,63c0,0,-83,0,-134,-35c0,0,-51,-34,-51,-94c0,0,0,-82,94,-140c0,0,69,23,147,23c0,0,83,0,160,-20l7,-121c0,0,-78,16,-138,16c0,0,-118,0,-174,-44c0,0,-57,-44,-57,-112c0,0,0,-86,74,-144c0,0,41,-12,82,-12c0,0,87,0,159,41L507,310l54,29L706,211c0,0,-11,-48,-77,-103l84,-241l-9,-26l-78,-16Z"
id="f6_nc"
transform="scale(0.001,-0.001)"/>

<path d="M688,-243c0,0,-256,53,-408,173c0,0,-152,119,-152,270c0,0,0,101,68,171c0,0,-101,84,-101,179c0,0,0,64,53,112c0,0,54,47,191,47H587V822H0l-45,76l14,31H830l45,-76L862,822H640l66,-58V585H362c0,0,-159,-1,-159,-92c0,0,0,-41,46,-80c0,0,76,47,183,47c0,0,135,0,230,-76c0,0,96,-75,96,-187C758,197,758,67,629,2L545,104c0,0,49,30,81,75c0,0,32,44,32,82c0,0,0,16,-4,26c0,0,-64,58,-167,58c0,0,-97,0,-166,-50v-2c0,0,-67,-52,-67,-131c0,0,0,-116,132,-199c0,0,132,-84,334,-132l-32,-74Z"
id="f6_cc"
transform="scale(0.001,-0.001)"/>

<path d="M105,752L61,810c0,0,43,30,72,76c0,0,29,46,32,89l-79,61c0,0,3,38,29,72c0,0,26,33,64,50c0,0,110,-43,110,-148c0,0,0,-72,-50,-141c0,0,-50,-70,-134,-117Z"
id="f6_8d"
transform="scale(0.001,-0.001)"/>

<path d="M325,240c0,0,77,0,154,35c0,0,77,35,120,99V500c0,0,-118,73,-222,73c0,0,-97,0,-151,-54c0,0,-53,-53,-53,-128c0,0,0,-73,49,-125c0,0,38,-26,103,-26ZM689,-49L599,8V199c0,0,-73,-65,-179,-65c0,0,-134,0,-252,96c0,0,-118,95,-118,221c0,0,0,102,78,171c0,0,78,69,190,69c0,0,38,0,75,-10L599,582V822H0l-45,76l14,31H863l46,-76L895,822H660l66,-58V-39L689,-49Z"
id="f6_c7"
transform="scale(0.001,-0.001)"/>

<path d="M471,-26c0,0,-259,0,-448,396l70,43C93,413,240,98,442,98c0,0,79,0,132,46c0,0,54,45,54,120c0,0,0,61,-38,116c0,0,-38,54,-107,72L322,370L255,492c0,0,66,53,156,56c0,0,128,51,128,153c0,0,0,77,-65,121H0l-45,76l14,31H813l46,-76L845,822H578c0,0,76,-66,76,-157c0,0,0,-95,-87,-156c0,0,84,-48,131,-123c0,0,48,-76,48,-158c0,0,0,-109,-78,-182c0,0,-78,-72,-197,-72Z"
id="f6_ap"
transform="scale(0.001,-0.001)"/>

<path d="M527,-71L52,414l34,92H277c0,0,12,32,12,72V822H0l-45,76l14,31H940l45,-76L972,822H350l66,-55V570c0,0,146,98,247,98c0,0,95,0,167,-73c0,0,71,-72,71,-167c0,0,0,-77,-53,-142c0,0,-54,-64,-159,-136l-89,99c0,0,100,70,152,121c0,0,52,52,52,105c0,0,0,34,-23,60c0,0,-22,26,-72,26c0,0,-139,0,-434,-252L610,34L611,8L527,-71Z"
id="f6_n0"
transform="scale(0.001,-0.001)"/>

<path d="M558,468c0,0,91,0,151,50c0,0,-11,87,-48,139c0,0,-38,52,-94,52c0,0,-51,0,-81,-41c0,0,-31,-40,-31,-100c0,0,0,-39,16,-79c0,0,32,-21,87,-21ZM545,31c0,0,-220,0,-348,239C197,270,69,510,0,804l89,30c0,0,78,-348,178,-507c0,0,100,-159,237,-159c0,0,83,0,137,54c0,0,54,55,68,157c0,0,-44,-20,-92,-20c0,0,-96,0,-188,87c0,0,-91,87,-91,188c0,0,0,73,51,127c0,0,51,53,129,53c0,0,124,0,215,-131c0,0,90,-131,90,-306c0,0,0,-154,-75,-250c0,0,-76,-96,-203,-96Z"
id="f6_nd"
transform="scale(0.001,-0.001)"/>

<path d="M725,307c0,0,-95,0,-218,78c0,0,-123,78,-188,78c0,0,-54,0,-95,-34c0,0,-41,-34,-73,-100L93,362c0,0,38,88,101,146c0,0,63,59,148,59c0,0,90,0,214,-78c0,0,124,-79,188,-79c0,0,63,0,106,34c0,0,42,33,85,104l60,-40c0,0,-32,-66,-101,-134c0,0,-70,-67,-169,-67Z"
id="f7_4r"
transform="scale(0.001,-0.001)"/>

<path d="M423,92c0,0,97,0,159,62c0,0,62,62,62,157c0,0,0,97,-64,160c0,0,-64,64,-161,64c0,0,-96,0,-158,-63c0,0,-62,-62,-62,-156c0,0,0,-58,27,-111c0,0,27,-54,81,-84c0,0,54,-29,116,-29Zm0,552c0,0,78,0,127,49c0,0,49,49,49,120c0,0,0,74,-50,124c0,0,-51,51,-128,51c0,0,-77,0,-127,-50c0,0,-51,-49,-51,-118c0,0,0,-77,50,-126c0,0,50,-50,130,-50ZM422,-18c0,0,-162,0,-261,95c0,0,-99,96,-99,239c0,0,0,107,54,179c0,0,54,72,154,98c0,0,-84,31,-124,87c0,0,-40,57,-40,136c0,0,0,119,85,201c0,0,86,81,229,81c0,0,143,0,230,-83c0,0,87,-83,87,-203c0,0,0,-76,-40,-132c0,0,-39,-56,-121,-87c0,0,101,-33,154,-106c0,0,52,-73,52,-174c0,0,0,-141,-99,-236c0,0,-99,-95,-261,-95Z"
id="f8_s"
transform="scale(0.001,-0.001)"/>


</defs>
</svg>