<?xml version="1.0" encoding="UTF-8" standalone="no"?>
<!DOCTYPE svg PUBLIC "-//W3C//DTD SVG 1.1//EN"
"http://www.w3.org/Graphics/SVG/1.1/DTD/svg11.dtd">
<svg viewBox="0 0 641 910" version="1.1" xmlns="http://www.w3.org/2000/svg" xmlns:xlink="http://www.w3.org/1999/xlink">
<defs>
<clipPath id="c0_60"><path d="M0,909.8V0H641.7V909.8Z"/></clipPath>
<clipPath id="c1_60"><path d="M0,908.6V0H641.7V908.6Z"/></clipPath>
<style type="text/css"><![CDATA[
.g0_60{
fill: #FFFFFF;
}
.g1_60{
}
]]></style>
</defs>
<path d="M0,0H641.7V909.8H0V0Z" class="g0_60"/>
<path d="M0,0H641.7V909.8H0V0Z" class="g0_60"/>
<g clip-path="url(#c0_60)">
<path d="M0,-48218.9H641.7V58226.7H0V-48218.9Z" class="g0_60"/>
</g>
<path d="M0,0H641.7V908.6H0V0Z" class="g0_60"/>
<path d="M19.5,60.7H602.7v1.2H19.5V60.7Z" class="g1_60"/>
<g clip-path="url(#c1_60)">
<path d="M0,61.9H641.7V909.8H0V61.9Z" class="g0_60"/>
<g fill="#000000" >
<use xlink:href="#f5_bz" transform="matrix(14,0,0,14,238.6,96.3)" />
<use xlink:href="#f5_lj" transform="matrix(14,0,0,14,253.3,96.3)" />
<use xlink:href="#f5_br" transform="matrix(14,0,0,14,259.9,96.3)" />
<use xlink:href="#f5_nr" transform="matrix(14,0,0,14,272.9,96.3)" />
<use xlink:href="#f5_c1" transform="matrix(14,0,0,14,279.3,96.3)" />
<use xlink:href="#f5_c0" transform="matrix(14,0,0,14,289.5,96.3)" />
<use xlink:href="#f5_ct" transform="matrix(14,0,0,14,303.6,96.3)" />
<use xlink:href="#f5_c1" transform="matrix(14,0,0,14,315.7,96.3)" />
<use xlink:href="#f5_d8" transform="matrix(14,0,0,14,325.9,96.3)" />
<use xlink:href="#f5_am" transform="matrix(14,0,0,14,338.1,96.3)" />
<use xlink:href="#f5_bm" transform="matrix(14,0,0,14,362.9,96.3)" />
<use xlink:href="#f5_d8" transform="matrix(14,0,0,14,376.2,96.3)" />
<use xlink:href="#f6_bz" transform="matrix(14,0,0,14,190.5,162.7)" />
<use xlink:href="#f6_lj" transform="matrix(14,0,0,14,203.9,162.7)" />
<use xlink:href="#f6_br" transform="matrix(14,0,0,14,209.6,162.7)" />
<use xlink:href="#f6_nr" transform="matrix(14,0,0,14,221.3,162.7)" />
<use xlink:href="#f6_c1" transform="matrix(14,0,0,14,226.9,162.7)" />
<use xlink:href="#f6_c0" transform="matrix(14,0,0,14,235.3,162.7)" />
<use xlink:href="#f6_ct" transform="matrix(14,0,0,14,247.9,162.7)" />
<use xlink:href="#f6_c1" transform="matrix(14,0,0,14,259.2,162.7)" />
<use xlink:href="#f6_d8" transform="matrix(14,0,0,14,267.5,162.7)" />
<use xlink:href="#f6_am" transform="matrix(14,0,0,14,278.8,162.7)" />
<use xlink:href="#f6_bm" transform="matrix(14,0,0,14,300.3,162.7)" />
<use xlink:href="#f6_d8" transform="matrix(14,0,0,14,313,162.7)" />
<use xlink:href="#f6_ba" transform="matrix(14,0,0,14,324.3,162.7)" />
<use xlink:href="#f6_d8" transform="matrix(14,0,0,14,341,162.7)" />
<use xlink:href="#f6_c3" transform="matrix(14,0,0,14,346.6,162.7)" />
<use xlink:href="#f6_d8" transform="matrix(14,0,0,14,361.3,162.7)" />
<use xlink:href="#f6_bz" transform="matrix(14,0,0,14,372.6,162.7)" />
<use xlink:href="#f6_cc" transform="matrix(14,0,0,14,385.9,162.7)" />
<use xlink:href="#f6_ct" transform="matrix(14,0,0,14,397.5,162.7)" />
<use xlink:href="#f6_c1" transform="matrix(14,0,0,14,403.2,162.7)" />
<use xlink:href="#f6_ct" transform="matrix(14,0,0,14,411.6,162.7)" />
<use xlink:href="#f6_bg" transform="matrix(14,0,0,14,417.2,162.7)" />
<use xlink:href="#f6_bt" transform="matrix(14,0,0,14,245.5,195.9)" />
<use xlink:href="#f6_ct" transform="matrix(14,0,0,14,257.2,195.9)" />
<use xlink:href="#f6_b9" transform="matrix(14,0,0,14,262.8,195.9)" />
<use xlink:href="#f6_d8" transform="matrix(14,0,0,14,278.3,195.9)" />
<use xlink:href="#f6_bm" transform="matrix(14,0,0,14,284,195.9)" />
<use xlink:href="#f6_ct" transform="matrix(14,0,0,14,296.6,195.9)" />
<use xlink:href="#f6_c1" transform="matrix(14,0,0,14,307.9,195.9)" />
<use xlink:href="#f6_ct" transform="matrix(14,0,0,14,316.3,195.9)" />
<use xlink:href="#f6_by" transform="matrix(14,0,0,14,327.6,195.9)" />
<use xlink:href="#f6_d4" transform="matrix(14,0,0,14,341.7,195.9)" />
<use xlink:href="#f6_n0" transform="matrix(14,0,0,14,341.6,195.9)" />
<use xlink:href="#f6_bg" transform="matrix(14,0,0,14,354.7,195.9)" />
<use xlink:href="#f6_cv" transform="matrix(14,0,0,14,369,195.9)" />
<use xlink:href="#f6_bz" transform="matrix(14,0,0,14,190.5,229.2)" />
<use xlink:href="#f6_d5" transform="matrix(14,0,0,14,204,229.2)" />
<use xlink:href="#f6_bp" transform="matrix(14,0,0,14,209.5,229.2)" />
<use xlink:href="#f6_d8" transform="matrix(14,0,0,14,221.8,229.2)" />
<use xlink:href="#f6_br" transform="matrix(14,0,0,14,233.1,229.2)" />
<use xlink:href="#f6_c8" transform="matrix(14,0,0,14,244.8,229.2)" />
<use xlink:href="#f6_dr" transform="matrix(14,0,0,14,261.1,229.2)" />
<use xlink:href="#f6_bt" transform="matrix(14,0,0,14,260.7,229.2)" />
<use xlink:href="#f6_b9" transform="matrix(14,0,0,14,278,229.2)" />
<use xlink:href="#f6_c1" transform="matrix(14,0,0,14,293.5,229.2)" />
<use xlink:href="#f6_c7" transform="matrix(14,0,0,14,301.9,229.2)" />
<use xlink:href="#f6_ct" transform="matrix(14,0,0,14,314,229.2)" />
<use xlink:href="#f6_am" transform="matrix(14,0,0,14,325.3,229.2)" />
<use xlink:href="#f6_c0" transform="matrix(14,0,0,14,346.8,229.2)" />
<use xlink:href="#f6_d8" transform="matrix(14,0,0,14,359.3,229.2)" />
<use xlink:href="#f6_bz" transform="matrix(14,0,0,14,370.6,229.2)" />
<use xlink:href="#f6_cc" transform="matrix(14,0,0,14,383.9,229.2)" />
<use xlink:href="#f6_ct" transform="matrix(14,0,0,14,395.5,229.2)" />
<use xlink:href="#f6_c1" transform="matrix(14,0,0,14,401.2,229.2)" />
<use xlink:href="#f6_ct" transform="matrix(14,0,0,14,409.5,229.2)" />
<use xlink:href="#f6_bg" transform="matrix(14,0,0,14,415.2,229.2)" />
<use xlink:href="#f6_bt" transform="matrix(14,0,0,14,245.5,262.4)" />
<use xlink:href="#f6_ct" transform="matrix(14,0,0,14,257.2,262.4)" />
<use xlink:href="#f6_b9" transform="matrix(14,0,0,14,262.8,262.4)" />
<use xlink:href="#f6_d8" transform="matrix(14,0,0,14,278.3,262.4)" />
<use xlink:href="#f6_bm" transform="matrix(14,0,0,14,284,262.4)" />
<use xlink:href="#f6_ct" transform="matrix(14,0,0,14,296.6,262.4)" />
<use xlink:href="#f6_c1" transform="matrix(14,0,0,14,307.9,262.4)" />
<use xlink:href="#f6_ct" transform="matrix(14,0,0,14,316.3,262.4)" />
<use xlink:href="#f6_by" transform="matrix(14,0,0,14,327.6,262.4)" />
<use xlink:href="#f6_d4" transform="matrix(14,0,0,14,341.7,262.4)" />
<use xlink:href="#f6_n0" transform="matrix(14,0,0,14,341.6,262.4)" />
<use xlink:href="#f6_bg" transform="matrix(14,0,0,14,354.7,262.4)" />
<use xlink:href="#f6_cv" transform="matrix(14,0,0,14,369,262.4)" />
<use xlink:href="#f6_bz" transform="matrix(14,0,0,14,141.2,320.8)" />
<use xlink:href="#f6_d4" transform="matrix(14,0,0,14,154.7,320.8)" />
<use xlink:href="#f6_c7" transform="matrix(14,0,0,14,154.6,320.8)" />
<use xlink:href="#f6_ct" transform="matrix(14,0,0,14,166.7,320.8)" />
<use xlink:href="#f6_bt" transform="matrix(14,0,0,14,172.3,320.8)" />
<use xlink:href="#f6_bb" transform="matrix(14,0,0,14,184,320.8)" />
<use xlink:href="#f6_c1" transform="matrix(14,0,0,14,196.6,320.8)" />
<use xlink:href="#f6_bz" transform="matrix(14,0,0,14,210.7,320.8)" />
<use xlink:href="#f6_oz" transform="matrix(14,0,0,14,224.1,320.8)" />
<use xlink:href="#f6_bq" transform="matrix(14,0,0,14,229.7,320.8)" />
<use xlink:href="#f6_d8" transform="matrix(14,0,0,14,242.8,320.8)" />
<use xlink:href="#f6_c1" transform="matrix(14,0,0,14,248.5,320.8)" />
<use xlink:href="#f6_d8" transform="matrix(14,0,0,14,256.8,320.8)" />
<use xlink:href="#f6_bx" transform="matrix(14,0,0,14,268.1,320.8)" />
<use xlink:href="#f6_d4" transform="matrix(14,0,0,14,280.6,320.8)" />
<use xlink:href="#f6_cb" transform="matrix(14,0,0,14,280.4,320.8)" />
<use xlink:href="#f6_bo" transform="matrix(14,0,0,14,295.3,320.8)" />
<use xlink:href="#f6_d8" transform="matrix(14,0,0,14,309.7,320.8)" />
<use xlink:href="#f6_k" transform="matrix(14,0,0,14,315.3,320.8)" />
<use xlink:href="#f6_cc" transform="matrix(14,0,0,14,326.2,320.8)" />
<use xlink:href="#f6_d8" transform="matrix(14,0,0,14,337.8,320.8)" />
<use xlink:href="#f6_cc" transform="matrix(14,0,0,14,349.1,320.8)" />
<use xlink:href="#f6_d8" transform="matrix(14,0,0,14,360.7,320.8)" />
<use xlink:href="#f6_cc" transform="matrix(14,0,0,14,372,320.8)" />
<use xlink:href="#f6_d8" transform="matrix(14,0,0,14,383.6,320.8)" />
<use xlink:href="#f6_bz" transform="matrix(14,0,0,14,394.9,320.8)" />
<use xlink:href="#f6_ct" transform="matrix(14,0,0,14,408.2,320.8)" />
<use xlink:href="#f6_c1" transform="matrix(14,0,0,14,413.8,320.8)" />
<use xlink:href="#f6_ct" transform="matrix(14,0,0,14,422.2,320.8)" />
<use xlink:href="#f6_by" transform="matrix(14,0,0,14,433.5,320.8)" />
<use xlink:href="#f6_d4" transform="matrix(14,0,0,14,447.6,320.8)" />
<use xlink:href="#f6_n0" transform="matrix(14,0,0,14,447.4,320.8)" />
<use xlink:href="#f6_bg" transform="matrix(14,0,0,14,460.6,320.8)" />
<use xlink:href="#f6_cv" transform="matrix(14,0,0,14,474.9,320.8)" />
<use xlink:href="#f6_c0" transform="matrix(14,0,0,14,132.1,354.1)" />
<use xlink:href="#f6_d4" transform="matrix(14,0,0,14,144.8,354.1)" />
<use xlink:href="#f6_bp" transform="matrix(14,0,0,14,150.3,354.1)" />
<use xlink:href="#f6_d8" transform="matrix(14,0,0,14,162.6,354.1)" />
<use xlink:href="#f6_al" transform="matrix(14,0,0,14,173.9,354.1)" />
<use xlink:href="#f6_dj" transform="matrix(14,0,0,14,186.9,354.5)" />
<use xlink:href="#f6_bx" transform="matrix(14,0,0,14,189.8,354.1)" />
<use xlink:href="#f6_ct" transform="matrix(14,0,0,14,202,354.1)" />
<use xlink:href="#f6_bm" transform="matrix(14,0,0,14,207.7,354.1)" />
<use xlink:href="#f6_cv" transform="matrix(14,0,0,14,220.3,354.1)" />
<use xlink:href="#f6_c1" transform="matrix(14,0,0,14,231.6,354.1)" />
<use xlink:href="#f6_ct" transform="matrix(14,0,0,14,240,354.1)" />
<use xlink:href="#f6_bc" transform="matrix(14,0,0,14,251.3,354.1)" />
<use xlink:href="#f6_d8" transform="matrix(14,0,0,14,265.2,354.1)" />
<use xlink:href="#f6_c1" transform="matrix(14,0,0,14,270.8,354.1)" />
<use xlink:href="#f6_ct" transform="matrix(14,0,0,14,279.2,354.1)" />
<use xlink:href="#f6_bz" transform="matrix(14,0,0,14,290.5,354.1)" />
<use xlink:href="#f6_cc" transform="matrix(14,0,0,14,303.8,354.1)" />
<use xlink:href="#f6_ct" transform="matrix(14,0,0,14,315.4,354.1)" />
<use xlink:href="#f6_c1" transform="matrix(14,0,0,14,321,354.1)" />
<use xlink:href="#f6_ct" transform="matrix(14,0,0,14,329.4,354.1)" />
<use xlink:href="#f6_bg" transform="matrix(14,0,0,14,335,354.1)" />
<use xlink:href="#f6_k" transform="matrix(14,0,0,14,349.3,354.1)" />
<use xlink:href="#f6_bt" transform="matrix(14,0,0,14,360.2,354.1)" />
<use xlink:href="#f6_ct" transform="matrix(14,0,0,14,371.9,354.1)" />
<use xlink:href="#f6_b9" transform="matrix(14,0,0,14,377.5,354.1)" />
<use xlink:href="#f6_d8" transform="matrix(14,0,0,14,393,354.1)" />
<use xlink:href="#f6_bm" transform="matrix(14,0,0,14,398.6,354.1)" />
<use xlink:href="#f6_ct" transform="matrix(14,0,0,14,411.3,354.1)" />
<use xlink:href="#f6_c1" transform="matrix(14,0,0,14,422.6,354.1)" />
<use xlink:href="#f6_ct" transform="matrix(14,0,0,14,431,354.1)" />
<use xlink:href="#f6_by" transform="matrix(14,0,0,14,442.3,354.1)" />
<use xlink:href="#f6_d4" transform="matrix(14,0,0,14,456.4,354.1)" />
<use xlink:href="#f6_n0" transform="matrix(14,0,0,14,456.2,354.1)" />
<use xlink:href="#f6_bg" transform="matrix(14,0,0,14,469.4,354.1)" />
<use xlink:href="#f6_cv" transform="matrix(14,0,0,14,483.6,354.1)" />
<use xlink:href="#f6_bz" transform="matrix(14,0,0,14,270.7,387.3)" />
<use xlink:href="#f6_lj" transform="matrix(14,0,0,14,284.1,387.3)" />
<use xlink:href="#f6_br" transform="matrix(14,0,0,14,289.9,387.3)" />
<use xlink:href="#f6_nr" transform="matrix(14,0,0,14,301.5,387.3)" />
<use xlink:href="#f6_c1" transform="matrix(14,0,0,14,307.1,387.3)" />
<use xlink:href="#f6_c0" transform="matrix(14,0,0,14,315.5,387.3)" />
<use xlink:href="#f6_ct" transform="matrix(14,0,0,14,328.1,387.3)" />
<use xlink:href="#f6_pc" transform="matrix(14,0,0,14,333.7,387.3)" />
<use xlink:href="#f6_pc" transform="matrix(14,0,0,14,338,387.3)" />
<use xlink:href="#f6_pc" transform="matrix(14,0,0,14,342.2,387.3)" />
<use xlink:href="#f6_pc" transform="matrix(14,0,0,14,346.5,387.3)" />
<use xlink:href="#f6_mv" transform="matrix(14,0,0,14,127.5,445.7)" />
<use xlink:href="#f6_nv" transform="matrix(14,0,0,14,139.3,445.7)" />
<use xlink:href="#f6_ba" transform="matrix(14,0,0,14,144.9,445.7)" />
<use xlink:href="#f6_c0" transform="matrix(14,0,0,14,161.6,445.7)" />
<use xlink:href="#f6_ct" transform="matrix(14,0,0,14,174.2,445.7)" />
<use xlink:href="#f6_bt" transform="matrix(14,0,0,14,185.4,445.7)" />
<use xlink:href="#f6_d4" transform="matrix(14,0,0,14,197.3,445.7)" />
<use xlink:href="#f6_cb" transform="matrix(14,0,0,14,202.8,445.7)" />
<use xlink:href="#f6_cw" transform="matrix(14,0,0,14,218.2,445.6)" />
<use xlink:href="#f6_ba" transform="matrix(14,0,0,14,217.7,445.7)" />
<use xlink:href="#f6_cv" transform="matrix(14,0,0,14,234.4,445.7)" />
<use xlink:href="#f6_c0" transform="matrix(14,0,0,14,240,445.7)" />
<use xlink:href="#f6_ct" transform="matrix(14,0,0,14,252.6,445.7)" />
<use xlink:href="#f6_gk" transform="matrix(14,0,0,14,263.9,445.7)" />
<use xlink:href="#f6_ct" transform="matrix(14,0,0,14,275.7,445.7)" />
<use xlink:href="#f6_c1" transform="matrix(14,0,0,14,281.3,445.7)" />
<use xlink:href="#f6_d4" transform="matrix(14,0,0,14,289.3,445.7)" />
<use xlink:href="#f6_am" transform="matrix(14,0,0,14,295.3,445.7)" />
<use xlink:href="#f6_c7" transform="matrix(14,0,0,14,316.8,445.7)" />
<use xlink:href="#f6_d4" transform="matrix(14,0,0,14,329,445.7)" />
<use xlink:href="#f6_k" transform="matrix(14,0,0,14,328.9,445.7)" />
<use xlink:href="#f6_cc" transform="matrix(14,0,0,14,339.8,445.7)" />
<use xlink:href="#f6_d8" transform="matrix(14,0,0,14,351.4,445.7)" />
<use xlink:href="#f6_cc" transform="matrix(14,0,0,14,362.7,445.7)" />
<use xlink:href="#f6_d8" transform="matrix(14,0,0,14,374.3,445.7)" />
<use xlink:href="#f6_cc" transform="matrix(14,0,0,14,385.6,445.7)" />
<use xlink:href="#f6_d8" transform="matrix(14,0,0,14,397.2,445.7)" />
<use xlink:href="#f6_bz" transform="matrix(14,0,0,14,408.4,445.7)" />
<use xlink:href="#f6_ct" transform="matrix(14,0,0,14,421.8,445.7)" />
<use xlink:href="#f6_c1" transform="matrix(14,0,0,14,427.4,445.7)" />
<use xlink:href="#f6_ct" transform="matrix(14,0,0,14,435.8,445.7)" />
<use xlink:href="#f6_by" transform="matrix(14,0,0,14,447.1,445.7)" />
<use xlink:href="#f6_d4" transform="matrix(14,0,0,14,461.2,445.7)" />
<use xlink:href="#f6_n1" transform="matrix(14,0,0,14,461,445.7)" />
<use xlink:href="#f6_bg" transform="matrix(14,0,0,14,474.2,445.7)" />
<use xlink:href="#f6_cv" transform="matrix(14,0,0,14,488.4,445.7)" />
<use xlink:href="#f6_bk" transform="matrix(14,0,0,14,129.8,479)" />
<use xlink:href="#f6_ct" transform="matrix(14,0,0,14,141.3,479)" />
<use xlink:href="#f6_bx" transform="matrix(14,0,0,14,147,479)" />
<use xlink:href="#f6_c1" transform="matrix(14,0,0,14,159.3,479)" />
<use xlink:href="#f6_cv" transform="matrix(14,0,0,14,167.6,479)" />
<use xlink:href="#f6_c0" transform="matrix(14,0,0,14,173.3,479)" />
<use xlink:href="#f6_ct" transform="matrix(14,0,0,14,185.8,479)" />
<use xlink:href="#f6_bt" transform="matrix(14,0,0,14,197.1,479)" />
<use xlink:href="#f6_d4" transform="matrix(14,0,0,14,208.9,479)" />
<use xlink:href="#f6_cc" transform="matrix(14,0,0,14,214.5,479)" />
<use xlink:href="#f6_d8" transform="matrix(14,0,0,14,226.1,479)" />
<use xlink:href="#f6_c1" transform="matrix(14,0,0,14,231.7,479)" />
<use xlink:href="#f6_ct" transform="matrix(14,0,0,14,240.1,479)" />
<use xlink:href="#f6_c1" transform="matrix(14,0,0,14,251.4,479)" />
<use xlink:href="#f6_ct" transform="matrix(14,0,0,14,259.8,479)" />
<use xlink:href="#f6_ba" transform="matrix(14,0,0,14,265.4,479)" />
<use xlink:href="#f6_d8" transform="matrix(14,0,0,14,282.1,479)" />
<use xlink:href="#f6_bz" transform="matrix(14,0,0,14,293.4,479)" />
<use xlink:href="#f6_cc" transform="matrix(14,0,0,14,306.7,479)" />
<use xlink:href="#f6_ct" transform="matrix(14,0,0,14,318.3,479)" />
<use xlink:href="#f6_c1" transform="matrix(14,0,0,14,324,479)" />
<use xlink:href="#f6_ct" transform="matrix(14,0,0,14,332.3,479)" />
<use xlink:href="#f6_bg" transform="matrix(14,0,0,14,338,479)" />
<use xlink:href="#f6_k" transform="matrix(14,0,0,14,352.2,479)" />
<use xlink:href="#f6_bt" transform="matrix(14,0,0,14,363.1,479)" />
<use xlink:href="#f6_ct" transform="matrix(14,0,0,14,374.8,479)" />
<use xlink:href="#f6_b9" transform="matrix(14,0,0,14,380.4,479)" />
<use xlink:href="#f6_d8" transform="matrix(14,0,0,14,395.9,479)" />
<use xlink:href="#f6_bm" transform="matrix(14,0,0,14,401.5,479)" />
<use xlink:href="#f6_ct" transform="matrix(14,0,0,14,414.2,479)" />
<use xlink:href="#f6_c1" transform="matrix(14,0,0,14,425.5,479)" />
<use xlink:href="#f6_ct" transform="matrix(14,0,0,14,433.9,479)" />
<use xlink:href="#f6_by" transform="matrix(14,0,0,14,445.2,479)" />
<use xlink:href="#f6_d4" transform="matrix(14,0,0,14,459.3,479)" />
<use xlink:href="#f6_n0" transform="matrix(14,0,0,14,459.1,479)" />
<use xlink:href="#f6_bg" transform="matrix(14,0,0,14,472.3,479)" />
<use xlink:href="#f6_cv" transform="matrix(14,0,0,14,486.5,479)" />
<use xlink:href="#f6_bz" transform="matrix(14,0,0,14,270.7,512.2)" />
<use xlink:href="#f6_lj" transform="matrix(14,0,0,14,284.1,512.2)" />
<use xlink:href="#f6_br" transform="matrix(14,0,0,14,289.9,512.2)" />
<use xlink:href="#f6_nr" transform="matrix(14,0,0,14,301.5,512.2)" />
<use xlink:href="#f6_c1" transform="matrix(14,0,0,14,307.1,512.2)" />
<use xlink:href="#f6_c0" transform="matrix(14,0,0,14,315.5,512.2)" />
<use xlink:href="#f6_ct" transform="matrix(14,0,0,14,328.1,512.2)" />
<use xlink:href="#f6_pc" transform="matrix(14,0,0,14,333.7,512.2)" />
<use xlink:href="#f6_pc" transform="matrix(14,0,0,14,338,512.2)" />
<use xlink:href="#f6_pc" transform="matrix(14,0,0,14,342.2,512.2)" />
<use xlink:href="#f6_pc" transform="matrix(14,0,0,14,346.5,512.2)" />
<use xlink:href="#f6_bz" transform="matrix(14,0,0,14,124.1,570.6)" />
<use xlink:href="#f6_m1" transform="matrix(14,0,0,14,137.4,570.6)" />
<use xlink:href="#f6_bp" transform="matrix(14,0,0,14,146.3,570.6)" />
<use xlink:href="#f6_b9" transform="matrix(14,0,0,14,158.6,570.6)" />
<use xlink:href="#f6_bz" transform="matrix(14,0,0,14,179.8,570.6)" />
<use xlink:href="#f6_cw" transform="matrix(14,0,0,14,193.6,570.5)" />
<use xlink:href="#f6_b9" transform="matrix(14,0,0,14,193.1,570.6)" />
<use xlink:href="#f6_cw" transform="matrix(14,0,0,14,204.2,570.5)" />
<use xlink:href="#f6_bk" transform="matrix(14,0,0,14,208.6,570.6)" />
<use xlink:href="#f6_b9" transform="matrix(14,0,0,14,225.8,570.6)" />
<use xlink:href="#f6_ct" transform="matrix(14,0,0,14,241.3,570.6)" />
<use xlink:href="#f6_bt" transform="matrix(14,0,0,14,247,570.6)" />
<use xlink:href="#f6_d8" transform="matrix(14,0,0,14,258.7,570.6)" />
<use xlink:href="#f6_dj" transform="matrix(14,0,0,14,263,571.5)" />
<use xlink:href="#f6_bz" transform="matrix(14,0,0,14,270,570.6)" />
<use xlink:href="#f6_oz" transform="matrix(14,0,0,14,283.4,570.6)" />
<use xlink:href="#f6_b9" transform="matrix(14,0,0,14,289,570.6)" />
<use xlink:href="#f6_cw" transform="matrix(14,0,0,14,300.1,570.5)" />
<use xlink:href="#f6_dj" transform="matrix(14,0,0,14,296.9,571.1)" />
<use xlink:href="#f6_bm" transform="matrix(14,0,0,14,304.5,570.6)" />
<use xlink:href="#f6_c3" transform="matrix(14,0,0,14,317.1,570.6)" />
<use xlink:href="#f6_k" transform="matrix(14,0,0,14,331.8,570.6)" />
<use xlink:href="#f6_cc" transform="matrix(14,0,0,14,342.7,570.6)" />
<use xlink:href="#f6_d8" transform="matrix(14,0,0,14,354.3,570.6)" />
<use xlink:href="#f6_cc" transform="matrix(14,0,0,14,365.6,570.6)" />
<use xlink:href="#f6_d8" transform="matrix(14,0,0,14,377.2,570.6)" />
<use xlink:href="#f6_cc" transform="matrix(14,0,0,14,388.5,570.6)" />
<use xlink:href="#f6_d8" transform="matrix(14,0,0,14,400.1,570.6)" />
<use xlink:href="#f6_bz" transform="matrix(14,0,0,14,411.4,570.6)" />
<use xlink:href="#f6_ct" transform="matrix(14,0,0,14,424.7,570.6)" />
<use xlink:href="#f6_c1" transform="matrix(14,0,0,14,430.4,570.6)" />
<use xlink:href="#f6_ct" transform="matrix(14,0,0,14,438.7,570.6)" />
<use xlink:href="#f6_by" transform="matrix(14,0,0,14,450,570.6)" />
<use xlink:href="#f6_d4" transform="matrix(14,0,0,14,464.1,570.6)" />
<use xlink:href="#f6_n0" transform="matrix(14,0,0,14,464,570.6)" />
<use xlink:href="#f6_bg" transform="matrix(14,0,0,14,477.1,570.6)" />
<use xlink:href="#f6_cv" transform="matrix(14,0,0,14,491.4,570.6)" />
<use xlink:href="#f6_bq" transform="matrix(14,0,0,14,116,603.9)" />
<use xlink:href="#f6_d8" transform="matrix(14,0,0,14,129.2,603.9)" />
<use xlink:href="#f6_c1" transform="matrix(14,0,0,14,134.8,603.9)" />
<use xlink:href="#f6_d4" transform="matrix(14,0,0,14,142.8,603.9)" />
<use xlink:href="#f6_bb" transform="matrix(14,0,0,14,148.9,603.9)" />
<use xlink:href="#f6_c3" transform="matrix(14,0,0,14,161.5,603.9)" />
<use xlink:href="#f6_d4" transform="matrix(14,0,0,14,176.3,603.9)" />
<use xlink:href="#f6_bz" transform="matrix(14,0,0,14,181.9,603.9)" />
<use xlink:href="#f6_d8" transform="matrix(14,0,0,14,195.2,603.9)" />
<use xlink:href="#f6_bp" transform="matrix(14,0,0,14,200.8,603.9)" />
<use xlink:href="#f6_cv" transform="matrix(14,0,0,14,213.1,603.9)" />
<use xlink:href="#f6_c0" transform="matrix(14,0,0,14,218.8,603.9)" />
<use xlink:href="#f6_d8" transform="matrix(14,0,0,14,231.3,603.9)" />
<use xlink:href="#f6_c1" transform="matrix(14,0,0,14,242.6,603.9)" />
<use xlink:href="#f6_cv" transform="matrix(14,0,0,14,251,603.9)" />
<use xlink:href="#f6_bz" transform="matrix(14,0,0,14,262.3,603.9)" />
<use xlink:href="#f6_ct" transform="matrix(14,0,0,14,275.6,603.9)" />
<use xlink:href="#f6_c3" transform="matrix(14,0,0,14,281.2,603.9)" />
<use xlink:href="#f6_ct" transform="matrix(14,0,0,14,295.9,603.9)" />
<use xlink:href="#f6_bz" transform="matrix(14,0,0,14,307.2,603.9)" />
<use xlink:href="#f6_cc" transform="matrix(14,0,0,14,320.6,603.9)" />
<use xlink:href="#f6_ct" transform="matrix(14,0,0,14,332.2,603.9)" />
<use xlink:href="#f6_c1" transform="matrix(14,0,0,14,337.8,603.9)" />
<use xlink:href="#f6_ct" transform="matrix(14,0,0,14,346.2,603.9)" />
<use xlink:href="#f6_bg" transform="matrix(14,0,0,14,351.8,603.9)" />
<use xlink:href="#f6_k" transform="matrix(14,0,0,14,366.1,603.9)" />
<use xlink:href="#f6_bt" transform="matrix(14,0,0,14,376.9,603.9)" />
<use xlink:href="#f6_ct" transform="matrix(14,0,0,14,388.7,603.9)" />
<use xlink:href="#f6_b9" transform="matrix(14,0,0,14,394.3,603.9)" />
<use xlink:href="#f6_d8" transform="matrix(14,0,0,14,409.8,603.9)" />
<use xlink:href="#f6_bm" transform="matrix(14,0,0,14,415.4,603.9)" />
<use xlink:href="#f6_ct" transform="matrix(14,0,0,14,428.1,603.9)" />
<use xlink:href="#f6_c1" transform="matrix(14,0,0,14,439.4,603.9)" />
<use xlink:href="#f6_ct" transform="matrix(14,0,0,14,447.7,603.9)" />
<use xlink:href="#f6_by" transform="matrix(14,0,0,14,459,603.9)" />
<use xlink:href="#f6_d4" transform="matrix(14,0,0,14,473.1,603.9)" />
<use xlink:href="#f6_n0" transform="matrix(14,0,0,14,473,603.9)" />
<use xlink:href="#f6_bg" transform="matrix(14,0,0,14,486.1,603.9)" />
<use xlink:href="#f6_cv" transform="matrix(14,0,0,14,500.4,603.9)" />
<use xlink:href="#f6_bz" transform="matrix(14,0,0,14,273,637.1)" />
<use xlink:href="#f6_lj" transform="matrix(14,0,0,14,286.4,637.1)" />
<use xlink:href="#f6_br" transform="matrix(14,0,0,14,292.1,637.1)" />
<use xlink:href="#f6_nr" transform="matrix(14,0,0,14,303.8,637.1)" />
<use xlink:href="#f6_c1" transform="matrix(14,0,0,14,309.4,637.1)" />
<use xlink:href="#f6_c0" transform="matrix(14,0,0,14,317.8,637.1)" />
<use xlink:href="#f6_ct" transform="matrix(14,0,0,14,330.4,637.1)" />
<use xlink:href="#f6_pc" transform="matrix(14,0,0,14,336,637.1)" />
<use xlink:href="#f6_pc" transform="matrix(14,0,0,14,340.3,637.1)" />
<use xlink:href="#f6_pc" transform="matrix(14,0,0,14,344.5,637.1)" />
<use xlink:href="#f6_bn" transform="matrix(14,0,0,14,135.5,695.5)" />
<use xlink:href="#f6_d8" transform="matrix(14,0,0,14,147.4,695.5)" />
<use xlink:href="#f6_c3" transform="matrix(14,0,0,14,153.1,695.5)" />
<use xlink:href="#f6_b9" transform="matrix(14,0,0,14,167.8,695.5)" />
<use xlink:href="#f6_bp" transform="matrix(14,0,0,14,188.9,695.5)" />
<use xlink:href="#f6_bx" transform="matrix(14,0,0,14,201.2,695.5)" />
<use xlink:href="#f6_c3" transform="matrix(14,0,0,14,213.5,695.5)" />
<use xlink:href="#f6_ct" transform="matrix(14,0,0,14,228.2,695.5)" />
<use xlink:href="#f6_bt" transform="matrix(14,0,0,14,239.5,695.5)" />
<use xlink:href="#f6_d9" transform="matrix(14,0,0,14,251.2,695.5)" />
<use xlink:href="#f6_bx" transform="matrix(14,0,0,14,256.9,695.5)" />
<use xlink:href="#f6_bp" transform="matrix(14,0,0,14,269.2,695.5)" />
<use xlink:href="#f6_bx" transform="matrix(14,0,0,14,287.1,695.5)" />
<use xlink:href="#f6_ct" transform="matrix(14,0,0,14,299.4,695.5)" />
<use xlink:href="#f6_bg" transform="matrix(14,0,0,14,305.1,695.5)" />
<use xlink:href="#f6_d4" transform="matrix(14,0,0,14,319.4,695.5)" />
<use xlink:href="#f6_k" transform="matrix(14,0,0,14,319.3,695.5)" />
<use xlink:href="#f6_cc" transform="matrix(14,0,0,14,330.2,695.5)" />
<use xlink:href="#f6_d8" transform="matrix(14,0,0,14,341.8,695.5)" />
<use xlink:href="#f6_cc" transform="matrix(14,0,0,14,353.1,695.5)" />
<use xlink:href="#f6_d8" transform="matrix(14,0,0,14,364.7,695.5)" />
<use xlink:href="#f6_cc" transform="matrix(14,0,0,14,376,695.5)" />
<use xlink:href="#f6_d8" transform="matrix(14,0,0,14,387.6,695.5)" />
<use xlink:href="#f6_bz" transform="matrix(14,0,0,14,398.9,695.5)" />
<use xlink:href="#f6_ct" transform="matrix(14,0,0,14,412.2,695.5)" />
<use xlink:href="#f6_c1" transform="matrix(14,0,0,14,417.8,695.5)" />
<use xlink:href="#f6_ct" transform="matrix(14,0,0,14,426.2,695.5)" />
<use xlink:href="#f6_by" transform="matrix(14,0,0,14,437.5,695.5)" />
<use xlink:href="#f6_d4" transform="matrix(14,0,0,14,451.6,695.5)" />
<use xlink:href="#f6_n0" transform="matrix(14,0,0,14,451.5,695.5)" />
<use xlink:href="#f6_bg" transform="matrix(14,0,0,14,464.6,695.5)" />
<use xlink:href="#f6_cv" transform="matrix(14,0,0,14,478.9,695.5)" />
<use xlink:href="#f6_c0" transform="matrix(14,0,0,14,108,728.8)" />
<use xlink:href="#f6_d4" transform="matrix(14,0,0,14,120.7,728.8)" />
<use xlink:href="#f6_bp" transform="matrix(14,0,0,14,126.2,728.8)" />
<use xlink:href="#f6_d8" transform="matrix(14,0,0,14,138.5,728.8)" />
<use xlink:href="#f6_bm" transform="matrix(14,0,0,14,149.8,728.8)" />
<use xlink:href="#f6_bz" transform="matrix(14,0,0,14,162.5,728.8)" />
<use xlink:href="#f6_bm" transform="matrix(14,0,0,14,181.5,728.8)" />
<use xlink:href="#f6_bz" transform="matrix(14,0,0,14,194.2,728.8)" />
<use xlink:href="#f6_bm" transform="matrix(14,0,0,14,213.2,728.8)" />
<use xlink:href="#f6_bz" transform="matrix(14,0,0,14,225.9,728.8)" />
<use xlink:href="#f6_n0" transform="matrix(14,0,0,14,239.2,728.8)" />
<use xlink:href="#f6_bx" transform="matrix(14,0,0,14,258,728.8)" />
<use xlink:href="#f6_bg" transform="matrix(14,0,0,14,270.3,728.8)" />
<use xlink:href="#f6_ct" transform="matrix(14,0,0,14,284.6,728.8)" />
<use xlink:href="#f6_c7" transform="matrix(14,0,0,14,290.2,728.8)" />
<use xlink:href="#f6_d8" transform="matrix(14,0,0,14,302.3,728.8)" />
<use xlink:href="#f6_bz" transform="matrix(14,0,0,14,313.6,728.8)" />
<use xlink:href="#f6_cc" transform="matrix(14,0,0,14,326.9,728.8)" />
<use xlink:href="#f6_ct" transform="matrix(14,0,0,14,338.5,728.8)" />
<use xlink:href="#f6_c1" transform="matrix(14,0,0,14,344.1,728.8)" />
<use xlink:href="#f6_ct" transform="matrix(14,0,0,14,352.5,728.8)" />
<use xlink:href="#f6_bg" transform="matrix(14,0,0,14,358.1,728.8)" />
<use xlink:href="#f6_k" transform="matrix(14,0,0,14,372.4,728.8)" />
<use xlink:href="#f6_bt" transform="matrix(14,0,0,14,383.3,728.8)" />
<use xlink:href="#f6_ct" transform="matrix(14,0,0,14,395,728.8)" />
<use xlink:href="#f6_b9" transform="matrix(14,0,0,14,400.6,728.8)" />
<use xlink:href="#f6_d8" transform="matrix(14,0,0,14,416.1,728.8)" />
<use xlink:href="#f6_bm" transform="matrix(14,0,0,14,421.7,728.8)" />
<use xlink:href="#f6_ct" transform="matrix(14,0,0,14,434.4,728.8)" />
<use xlink:href="#f6_c1" transform="matrix(14,0,0,14,445.7,728.8)" />
<use xlink:href="#f6_ct" transform="matrix(14,0,0,14,454.1,728.8)" />
<use xlink:href="#f6_by" transform="matrix(14,0,0,14,465.4,728.8)" />
<use xlink:href="#f6_d4" transform="matrix(14,0,0,14,479.4,728.8)" />
<use xlink:href="#f6_n0" transform="matrix(14,0,0,14,479.3,728.8)" />
<use xlink:href="#f6_bg" transform="matrix(14,0,0,14,492.5,728.8)" />
<use xlink:href="#f6_cv" transform="matrix(14,0,0,14,506.7,728.8)" />
<use xlink:href="#f6_bz" transform="matrix(14,0,0,14,270.7,762)" />
<use xlink:href="#f6_lj" transform="matrix(14,0,0,14,284.1,762)" />
<use xlink:href="#f6_br" transform="matrix(14,0,0,14,289.9,762)" />
<use xlink:href="#f6_nr" transform="matrix(14,0,0,14,301.5,762)" />
<use xlink:href="#f6_c1" transform="matrix(14,0,0,14,307.1,762)" />
<use xlink:href="#f6_c0" transform="matrix(14,0,0,14,315.5,762)" />
<use xlink:href="#f6_ct" transform="matrix(14,0,0,14,328.1,762)" />
<use xlink:href="#f6_pc" transform="matrix(14,0,0,14,333.7,762)" />
<use xlink:href="#f6_pc" transform="matrix(14,0,0,14,338,762)" />
<use xlink:href="#f6_pc" transform="matrix(14,0,0,14,342.2,762)" />
<use xlink:href="#f6_pc" transform="matrix(14,0,0,14,346.5,762)" />
<use xlink:href="#f7_4r" transform="matrix(9,0,0,9,290.2,795.2)" />
<use xlink:href="#f8_p" transform="matrix(9,0,0,9,303,795.2)" />
<use xlink:href="#f8_o" transform="matrix(9,0,0,9,310.7,795.2)" />
<use xlink:href="#f7_4r" transform="matrix(9,0,0,9,321.3,795.2)" />
</g>
</g>
<image preserveAspectRatio="none" x="22" y="801" width="581" height="86" xlink:href="img/1.png"/>
<path d="M239.5,97.4H382.7v1.1H239.5V97.4Z" class="g1_60"/>
<image preserveAspectRatio="none" x="202" y="14" width="217" height="26" xlink:href="img/2.png"/>
<defs>
<path d="M686,512V822H333L435,749l2,-237ZM860,-65L686,29V298H440V168L348,118c0,0,-90,30,-190,128c0,0,-100,98,-127,183l52,83H203L189,822H0L-86,937l32,64H1045l86,-115l-33,-64H828L930,749V-31L860,-65Z"
id="f5_bz"
transform="scale(0.001,-0.001)"/>

<path d="M263,116c0,0,-87,49,-160,150c0,0,-72,101,-91,192l57,84H666L750,394L713,335H364V165L263,116ZM0,822L-86,937l32,64H526L613,886L581,822Z"
id="f5_lj"
transform="scale(0.001,-0.001)"/>

<path d="M700,-327L637,-39c0,0,-43,-9,-85,-9c0,0,-109,0,-228,58c0,0,-119,59,-199,160c0,0,-79,102,-79,220c0,0,0,134,95,216c0,0,94,82,252,85H516V822H0L-86,937l32,64H929l85,-115L982,822H645L747,749V468l2,-4H478c0,0,-98,0,-148,-45c0,0,-50,-46,-50,-110c0,0,0,-68,53,-121c0,0,46,-20,99,-20c0,0,74,0,141,35L555,332l154,56L897,154C897,154,862,87,785,34L933,-233L700,-327Z"
id="f5_br"
transform="scale(0.001,-0.001)"/>

<path d="M289,-65L115,29V822H0L-86,937l32,64H116c0,0,-99,102,-99,229c0,0,0,128,92,210c0,0,93,82,236,82c0,0,135,0,271,-93c0,0,136,-92,321,-312l-91,-90c0,0,-140,143,-233,209c0,0,-92,66,-187,66c0,0,-85,0,-140,-52c0,0,-55,-51,-55,-129c0,0,0,-64,36,-120H463L548,886L516,822H257L359,749V-31L289,-65Z"
id="f5_nr"
transform="scale(0.001,-0.001)"/>

<path d="M545,-97L35,405L87,542H295c0,0,1,5,1,280H0L-86,937l32,64H729L814,886L782,822H445L550,749V547c0,0,0,-75,-41,-127c0,0,-41,-52,-129,-111L709,110V41L545,-97Z"
id="f5_c1"
transform="scale(0.001,-0.001)"/>

<path d="M368,290c0,0,83,0,161,44c0,0,78,43,116,117V822H382c0,0,136,-107,136,-225c0,0,0,-74,-55,-131c0,0,-55,-57,-165,-83c0,0,15,-48,44,-91l26,-2ZM819,-65L645,29V139c0,0,-60,-31,-130,-31c0,0,-145,0,-279,109c0,0,-134,108,-208,287l29,78c0,0,128,15,181,43c0,0,54,27,54,73c0,0,0,61,-96,124H0L-86,937l32,64H1004l87,-115l-32,-64H787L889,749V-31L819,-65Z"
id="f5_c0"
transform="scale(0.001,-0.001)"/>

<path d="M277,-65L102,29V822H0L-86,937l32,64H463L548,886L516,822H244L347,749V-31L277,-65Z"
id="f5_ct"
transform="scale(0.001,-0.001)"/>

<path d="M277,-65L102,29V822H0L-86,937l32,64H86L18,1111c0,0,-67,122,-168,122c0,0,-81,0,-202,-80l-128,250c0,0,122,77,232,77c0,0,196,0,356,-250L252,1001H463L548,886L516,822H244L347,749V-31L277,-65Z"
id="f5_d8"
transform="scale(0.001,-0.001)"/>

<path d="M1128,-65L953,29V322c0,0,-23,-9,-52,-9c0,0,-47,0,-102,25c0,0,11,-42,11,-83c0,0,0,-116,-78,-192c0,0,-78,-76,-203,-76c0,0,-129,0,-261,94c0,0,-132,95,-244,339l123,78c0,0,70,-150,146,-225c0,0,75,-76,168,-76c0,0,72,0,113,40c0,0,42,40,42,90c0,0,0,84,-77,115L387,350L249,556c0,0,86,77,199,83c0,0,119,73,119,163c0,0,0,25,-15,40c0,0,-4,0,-10,0c-19,0,-67,-3,-124,-33c0,0,-76,-39,-146,-106L142,872c0,0,61,65,140,107c0,0,79,42,158,42c0,0,121,0,216,-91c0,0,96,-91,96,-197c0,0,0,-96,-84,-186c0,0,62,-46,142,-46c0,0,88,0,143,52V822H834L749,937l32,64h994l86,-115l-32,-64H1557l102,-73V-31l-70,-34L1415,29V822H1095l103,-73V-31l-70,-34Z"
id="f5_am"
transform="scale(0.001,-0.001)"/>

<path d="M573,-101c0,0,-296,0,-555,382l104,86c0,0,167,-260,381,-260c0,0,87,0,151,46c0,0,64,46,63,113L489,194c0,0,-167,54,-273,152c0,0,-106,99,-106,206c0,0,0,87,72,142c0,0,72,55,211,55H588v73H0L-86,937l32,64H949l85,-115l-32,-64H706L808,749V545H445c0,0,-127,0,-127,-64c0,0,0,-35,38,-62l278,64c0,0,125,-43,193,-130c0,0,67,-87,67,-182c0,0,0,-116,-91,-194c0,0,-91,-78,-230,-78Z"
id="f5_bm"
transform="scale(0.001,-0.001)"/>

<path d="M689,445V822H286l65,-58l8,-319ZM779,-49L689,8V328H370V180L296,150c0,0,-56,35,-120,104c0,0,-63,70,-89,131l41,60H238L223,822H0l-45,76l14,31H953l46,-76L985,822H750l66,-58V-39L779,-49Z"
id="f6_bz"
transform="scale(0.001,-0.001)"/>

<path d="M180,196c0,0,-105,99,-162,238l63,72H573l40,-86L591,390H254V225L180,196ZM0,822l-45,76l14,31H409l46,-76L442,822Z"
id="f6_lj"
transform="scale(0.001,-0.001)"/>

<path d="M675,-274L602,21C602,21,550,3,498,3C498,3,347,3,210,118C210,118,73,232,73,373c0,0,0,113,84,184c0,0,84,71,222,72H524V822H0l-45,76l14,31H834l46,-76L866,822H585l66,-58V504l-3,2l3,-3H408c0,0,-95,0,-154,-53c0,0,-58,-53,-58,-132c0,0,0,-49,27,-100c0,0,28,-50,83,-84c0,0,44,-15,96,-15c0,0,91,0,160,46L535,303l101,48L773,188c0,0,-8,-28,-34,-66c0,0,-27,-38,-62,-64L813,-221L675,-274Z"
id="f6_br"
transform="scale(0.001,-0.001)"/>

<path d="M228,-49L138,8V822H0l-45,76l14,31H133c0,0,-93,95,-93,206c0,0,0,96,68,159c0,0,68,63,179,63c0,0,118,0,228,-81c0,0,110,-80,258,-262L720,970L588,1109c0,0,-133,133,-253,133c0,0,-78,0,-127,-46c0,0,-49,-46,-49,-119c0,0,0,-69,56,-148H402l46,-76L434,822H199l65,-58V-39L228,-49Z"
id="f6_nr"
transform="scale(0.001,-0.001)"/>

<path d="M527,-71L52,414l34,92H277c0,0,12,32,12,72V822H0l-45,76l14,31H599l46,-76L631,822H350l66,-55V564c0,0,0,-96,-152,-248L610,34L611,8L527,-71Z"
id="f6_c1"
transform="scale(0.001,-0.001)"/>

<path d="M374,248c0,0,77,0,149,36c0,0,71,37,110,107V822H284c0,0,138,-96,138,-208c0,0,0,-151,-228,-192c0,0,29,-104,89,-158c0,0,41,-16,91,-16ZM723,-49L633,8V200c0,0,-69,-56,-170,-56c0,0,-122,0,-240,94c0,0,-118,94,-179,237l20,55c0,0,133,17,187,44c0,0,55,28,55,84c0,0,0,45,-30,81c0,0,-30,36,-99,83H0l-45,76l14,31H897l46,-76L929,822H694l65,-58V-39L723,-49Z"
id="f6_c0"
transform="scale(0.001,-0.001)"/>

<path d="M228,-49L138,8V822H0l-45,76l14,31H402l46,-76L434,822H199l65,-58V-39L228,-49Z"
id="f6_ct"
transform="scale(0.001,-0.001)"/>

<path d="M228,-49L138,8V822H0l-45,76l14,31H119L-33,1144c0,0,-70,92,-157,92c0,0,-69,0,-159,-58l-72,118c0,0,89,73,181,73c0,0,140,0,257,-170L205,929H402l46,-76L434,822H199l65,-58V-39L228,-49Z"
id="f6_d8"
transform="scale(0.001,-0.001)"/>

<path d="M959,-49L869,8V367c0,0,-32,-13,-64,-13c0,0,-50,0,-110,25c0,0,23,-52,23,-109c0,0,0,-103,-70,-170c0,0,-70,-66,-182,-66c0,0,-110,0,-222,82c0,0,-111,83,-213,293l68,42c0,0,72,-155,152,-231c0,0,81,-76,178,-76c0,0,83,0,131,49c0,0,48,48,48,117c0,0,0,54,-30,100c0,0,-31,47,-91,65L325,391L257,512c0,0,68,53,156,56c0,0,140,72,140,179c0,0,0,69,-52,99c0,0,-4,1,-11,1c-19,0,-66,-4,-123,-30c0,0,-78,-35,-142,-96L150,823c0,0,119,117,253,117c0,0,98,0,175,-71c0,0,77,-70,77,-159c0,0,0,-103,-94,-180c0,0,39,-23,73,-56c0,0,52,-22,109,-22c0,0,77,0,126,38V822H727l-46,76l14,31h840l46,-76l-13,-31H1332l66,-58V-39l-37,-10L1271,8V822H930l66,-58V-39L959,-49Z"
id="f6_am"
transform="scale(0.001,-0.001)"/>

<path d="M548,-57c0,0,-122,0,-243,81c0,0,-122,81,-252,280l57,41C110,345,283,64,498,64c0,0,92,0,153,49c0,0,61,49,61,121c0,0,0,46,-28,84L440,237c0,0,-73,11,-139,55c0,0,-66,44,-105,105c0,0,-40,61,-40,119c0,0,0,72,62,125c0,0,62,53,184,53H625V822H0l-45,76l14,31H906l46,-76L938,822H678l66,-58V562H431c0,0,-164,0,-164,-99c0,0,0,-55,57,-102l261,82c0,0,104,-21,172,-98c0,0,68,-78,68,-171c0,0,0,-99,-76,-166c0,0,-77,-65,-201,-65Z"
id="f6_bm"
transform="scale(0.001,-0.001)"/>

<path d="M761,293c0,0,127,0,169,94V532c0,0,-68,46,-145,46c0,0,-76,0,-121,-46c0,0,-45,-45,-45,-107c0,0,0,-61,44,-110c0,0,47,-22,98,-22ZM657,67c0,0,166,0,273,107v55c0,0,-45,-36,-111,-36c0,0,-110,0,-207,90c0,0,-97,90,-97,194c0,0,0,85,66,148c0,0,65,63,155,63l48,-5L930,603V822H376l62,-55V579c0,0,0,-60,-23,-102c0,0,-24,-42,-148,-190c0,0,66,-104,175,-162c0,0,108,-58,215,-58ZM1021,-49L930,8V53c0,0,-105,-83,-264,-83c0,0,-177,0,-339,128C327,98,165,226,90,429l34,77H296c0,0,19,39,19,102l-2,214H0l-45,76l14,31H1195l46,-76l-14,-31H992l65,-58V-39l-36,-10Z"
id="f6_ba"
transform="scale(0.001,-0.001)"/>

<path d="M413,-59C413,-59,53,193,53,416c0,0,0,97,66,164c0,0,66,66,156,66c0,0,61,0,110,-30L487,507c0,0,92,126,257,126l35,-2V822H0l-45,76l14,31H1043l46,-76l-13,-31H840l66,-58V-39L869,-49L779,8V547c0,0,-101,-5,-165,-90c0,0,-64,-86,-70,-222L507,225l-90,73c0,0,5,79,35,151c0,0,-59,66,-128,66c0,0,-57,0,-100,-38c0,0,-44,-39,-44,-109c0,0,0,-165,284,-360L413,-59Z"
id="f6_c3"
transform="scale(0.001,-0.001)"/>

<path d="M688,-243c0,0,-256,53,-408,173c0,0,-152,119,-152,270c0,0,0,101,68,171c0,0,-101,84,-101,179c0,0,0,64,53,112c0,0,54,47,191,47H587V822H0l-45,76l14,31H830l45,-76L862,822H640l66,-58V585H362c0,0,-159,-1,-159,-92c0,0,0,-41,46,-80c0,0,76,47,183,47c0,0,135,0,230,-76c0,0,96,-75,96,-187C758,197,758,67,629,2L545,104c0,0,49,30,81,75c0,0,32,44,32,82c0,0,0,16,-4,26c0,0,-64,58,-167,58c0,0,-97,0,-166,-50v-2c0,0,-67,-52,-67,-131c0,0,0,-116,132,-199c0,0,132,-84,334,-132l-32,-74Z"
id="f6_cc"
transform="scale(0.001,-0.001)"/>

<path d="M845,-49L755,8V513H497c0,0,61,-45,93,-110c0,0,33,-64,33,-128c0,0,0,-90,-58,-144c0,0,-59,-53,-143,-53c0,0,-133,0,-234,139C188,217,87,356,20,596l76,24c0,0,60,-201,127,-306c0,0,67,-105,160,-105c0,0,57,0,91,36c0,0,33,36,33,91c0,0,0,84,-73,159L295,558v71H755V822H0l-45,76l14,31H1019l46,-76l-14,-31H816l66,-58V-39L845,-49Z"
id="f6_bg"
transform="scale(0.001,-0.001)"/>

<path d="M663,-49L573,8V445H299V280L226,251c0,0,-105,99,-162,238l63,72H573V822H0l-45,76l14,31H837l46,-76L869,822H634l66,-58V-39L663,-49Z"
id="f6_bt"
transform="scale(0.001,-0.001)"/>

<path d="M283,260c0,0,122,0,209,113V513c0,0,-90,51,-160,51c0,0,-80,0,-129,-50c0,0,-49,-50,-49,-118c0,0,0,-60,35,-110c0,0,45,-26,94,-26ZM582,-49L492,8V211c0,0,-63,-54,-141,-54c0,0,-113,0,-213,92c0,0,-100,92,-100,205c0,0,0,93,69,157c0,0,69,64,162,64c0,0,32,0,64,-9L492,590V822H0l-45,76l14,31H1108l45,-76l-13,-31H553l66,-58V524c0,0,91,89,192,89c0,0,98,0,171,-79c0,0,72,-79,72,-186c0,0,0,-178,-224,-330L736,124c0,0,219,153,219,269c0,0,0,44,-26,75c0,0,-26,32,-81,32c0,0,-109,0,-229,-155V-39L582,-49Z"
id="f6_b9"
transform="scale(0.001,-0.001)"/>

<path d="M823,-49L733,8V339H445V191L371,160c0,0,-56,36,-120,105c0,0,-63,70,-89,131l41,59H313V735c0,0,0,99,-55,140c0,0,-3,1,-8,1c-16,0,-48,-3,-71,-23c0,0,-31,-26,-31,-66c0,0,0,-69,81,-113L189,620C189,620,31,720,31,828c0,0,0,61,45,99c0,0,46,37,109,37c0,0,96,0,173,-86c0,0,76,-87,79,-194V455H733V822H556l-46,76l14,31H998l45,-76l-13,-31H794l66,-58V-39L823,-49Z"
id="f6_by"
transform="scale(0.001,-0.001)"/>

<path d="M-214,863l-199,281c0,0,-70,92,-157,92c0,0,-69,0,-159,-58l-72,118c0,0,89,73,180,73c0,0,141,0,258,-170L-155,901l-59,-38Z"
id="f6_d4"
transform="scale(0.001,-0.001)"/>

<path d="M527,-71L52,414l34,92H277c0,0,12,32,12,72V822H0l-45,76l14,31H940l45,-76L972,822H350l66,-55V570c0,0,146,98,247,98c0,0,95,0,167,-73c0,0,71,-72,71,-167c0,0,0,-77,-53,-142c0,0,-54,-64,-159,-136l-89,99c0,0,100,70,152,121c0,0,52,52,52,105c0,0,0,34,-23,60c0,0,-22,26,-72,26c0,0,-139,0,-434,-252L610,34L611,8L527,-71Z"
id="f6_n0"
transform="scale(0.001,-0.001)"/>

<path d="M228,-49L138,8V822H0l-45,76l14,31H138c0,0,-109,342,-284,342c0,0,-62,0,-102,-40c0,0,-40,-39,-40,-93c0,0,0,-61,51,-134l-42,-32c0,0,-128,113,-128,226c0,0,0,79,60,136c0,0,61,56,154,56c0,0,137,0,249,-125c0,0,112,-125,169,-336H402l46,-76L434,822H199l65,-58V-39L228,-49Z"
id="f6_cv"
transform="scale(0.001,-0.001)"/>

<path d="M-214,860l-227,219c0,0,-73,70,-148,70c0,0,-67,0,-160,-58l-72,117c0,0,83,71,176,71c0,0,120,0,232,-124L-221,940l-102,294c0,0,-64,179,-189,179c0,0,-60,0,-133,-33l-60,125c0,0,84,47,164,47c0,0,200,0,281,-276L-150,901l-23,-15l-41,-26Z"
id="f6_d5"
transform="scale(0.001,-0.001)"/>

<path d="M347,-57C347,-57,66,211,66,394c0,0,0,98,74,164c0,0,74,65,225,65H616V822H0l-45,76l14,31H880l46,-76L912,822H677l66,-58V-39L706,-49L616,8V500H428c0,0,-239,0,-239,-161c0,0,0,-136,214,-343L347,-57Z"
id="f6_bp"
transform="scale(0.001,-0.001)"/>

<path d="M513,460c0,0,61,81,61,179c0,0,0,87,-45,143c0,0,-45,57,-116,57c0,0,-63,0,-102,-43c0,0,-39,-43,-39,-110c0,0,0,-90,68,-151c0,0,68,-61,173,-75ZM581,-83L278,167l-41,-4c0,0,-99,0,-130,37l47,168l51,12l78,-79c0,0,110,40,183,105c0,0,-141,23,-231,107c0,0,-90,84,-90,193c0,0,0,69,37,116H0l-45,76l14,31H1134l45,-76l-13,-31H930l66,-58V-39L959,-49L869,8V822H588c0,0,51,-44,75,-109c0,0,25,-64,25,-122c0,0,0,-105,-81,-213c0,0,-80,-108,-240,-176L658,18l2,-25L581,-83Z"
id="f6_c8"
transform="scale(0.001,-0.001)"/>

<path d="M-239,897c0,0,-82,61,-132,137c0,0,-50,75,-50,150c0,0,0,78,52,133c0,0,52,55,141,55c0,0,98,0,176,-64l-23,-69c0,0,-52,32,-104,32c0,0,-57,0,-95,-36c0,0,-38,-36,-38,-95c0,0,0,-115,117,-217l-44,-26Z"
id="f6_dr"
transform="scale(0.001,-0.001)"/>

<path d="M325,240c0,0,77,0,154,35c0,0,77,35,120,99V500c0,0,-118,73,-222,73c0,0,-97,0,-151,-54c0,0,-53,-53,-53,-128c0,0,0,-73,49,-125c0,0,38,-26,103,-26ZM689,-49L599,8V199c0,0,-73,-65,-179,-65c0,0,-134,0,-252,96c0,0,-118,95,-118,221c0,0,0,102,78,171c0,0,78,69,190,69c0,0,38,0,75,-10L599,582V822H0l-45,76l14,31H863l46,-76L895,822H660l66,-58V-39L689,-49Z"
id="f6_c7"
transform="scale(0.001,-0.001)"/>

<path d="M727,-49L637,8V822H278l66,-58V226L270,196c0,0,-64,36,-122,98c0,0,-58,62,-79,122l43,59H217V822H0l-45,76l14,31H901l46,-76L933,822H698l66,-58V-39L727,-49Z"
id="f6_bb"
transform="scale(0.001,-0.001)"/>

<path d="M-91,1001c0,0,-27,10,-61,36c0,0,-33,26,-50,49c0,0,38,81,90,110c0,0,61,-23,107,-85c0,0,-28,-71,-86,-110ZM-214,863l-199,281c0,0,-70,92,-157,92c0,0,-69,0,-159,-58l-72,118c0,0,89,73,180,73c0,0,141,0,258,-170L-155,901l-59,-38Z"
id="f6_oz"
transform="scale(0.001,-0.001)"/>

<path d="M768,-49L678,8V202c0,0,-73,-58,-172,-58c0,0,-123,0,-240,94c0,0,-118,94,-179,237l20,55c0,0,134,12,215,70c0,0,81,57,81,141c0,0,0,90,-67,134l-26,3c0,0,-46,0,-74,-29c0,0,-28,-30,-28,-68c0,0,0,-55,82,-109L252,620C252,620,93,720,93,820c0,0,0,65,47,104c0,0,46,40,114,40c0,0,99,0,179,-83c0,0,80,-83,82,-197c0,0,0,-93,-79,-165c0,0,-78,-73,-199,-97c0,0,29,-104,88,-158c0,0,42,-16,92,-16c0,0,78,0,151,38c0,0,74,38,110,111V822H553l-46,76l14,31H943l45,-76L975,822H739l66,-58V-39L768,-49Z"
id="f6_bq"
transform="scale(0.001,-0.001)"/>

<path d="M348,229c0,0,57,0,106,17L263,559c0,0,-95,-50,-95,-162c0,0,0,-75,52,-136c0,0,49,-32,128,-32Zm170,48c0,0,61,38,96,91V504c0,0,-131,80,-244,80l-35,-2L518,277ZM704,-49L614,8V193c0,0,-84,-65,-192,-65c0,0,-139,0,-255,98c0,0,-115,98,-115,226c0,0,0,106,77,175c0,0,77,70,189,70c0,0,38,0,75,-9L614,578V822H0l-45,76l14,31H878l46,-76L911,822H675l66,-58V-39L704,-49Z"
id="f6_bx"
transform="scale(0.001,-0.001)"/>

<path d="M799,475V822H350l66,-55V564c0,0,0,-43,-25,-89ZM527,-71L52,414l34,92H277c0,0,12,32,12,72V822H0l-45,76l14,31H1063l46,-76l-14,-31H860l66,-58V-39L889,-49L799,8V370H315L264,316L610,34L611,8L527,-71Z"
id="f6_cb"
transform="scale(0.001,-0.001)"/>

<path d="M342,324c0,0,45,0,75,34c0,0,31,33,31,100V822H165l66,-58V390c0,0,32,-66,111,-66ZM853,-49L762,8V822H509l65,-58V455c0,0,0,-134,-51,-185c0,0,-52,-52,-127,-52c0,0,-98,0,-195,99c0,0,-97,99,-97,209V822H0l-45,76l14,31H1027l46,-76l-14,-31H823l66,-58V-39L853,-49Z"
id="f6_bo"
transform="scale(0.001,-0.001)"/>

<path d="M108,-222l-44,58c0,0,96,81,104,164L89,61c0,0,12,83,93,122c0,0,50,-15,79,-55c0,0,29,-39,29,-90c0,0,0,-69,-48,-142c0,0,-48,-72,-134,-118Z"
id="f6_k"
transform="scale(0.001,-0.001)"/>

<path d="M959,-49L869,8V367c0,0,-32,-13,-64,-13c0,0,-50,0,-110,25c0,0,23,-52,23,-109c0,0,0,-103,-70,-170c0,0,-70,-66,-182,-66c0,0,-110,0,-222,82c0,0,-111,83,-213,293l68,42c0,0,72,-155,152,-231c0,0,81,-76,178,-76c0,0,83,0,131,49c0,0,48,48,48,117c0,0,0,54,-30,100c0,0,-31,47,-91,65L325,391L257,512c0,0,68,53,156,56c0,0,140,72,140,179c0,0,0,69,-52,99c0,0,-4,1,-11,1c-19,0,-66,-4,-123,-30c0,0,-78,-35,-142,-96L150,823c0,0,119,117,253,117c0,0,98,0,175,-71c0,0,77,-70,77,-159c0,0,0,-103,-94,-180c0,0,39,-23,73,-56c0,0,52,-22,109,-22c0,0,77,0,126,38V822H727l-46,76l14,31h439l45,-76l-13,-31H930l66,-58V-39L959,-49Z"
id="f6_al"
transform="scale(0.001,-0.001)"/>

<path d="M0,1062c0,0,-26,11,-60,36c0,0,-34,26,-51,49c0,0,39,81,91,110c0,0,60,-23,106,-85c0,0,-28,-70,-86,-110Z"
id="f6_dj"
transform="scale(0.001,-0.001)"/>

<path d="M434,225c0,0,84,0,169,42c0,0,85,43,126,126V822H267c0,0,-64,-49,-64,-115c0,0,0,-79,90,-126c0,0,60,35,144,35l67,-6l75,-89L564,490l-51,7H493c0,0,-90,0,-142,-43c0,0,-52,-43,-52,-104c0,0,0,-60,51,-109c0,0,33,-16,84,-16ZM819,-49L729,8V197c0,0,-83,-76,-202,-76c0,0,-130,0,-237,91c0,0,-108,92,-108,196c0,0,0,72,53,128c0,0,-75,42,-115,97c0,0,-41,56,-41,113c0,0,0,38,22,76H0l-45,76l14,31H993l46,-76l-14,-31H790l66,-58V-39L819,-49Z"
id="f6_bc"
transform="scale(0.001,-0.001)"/>

<path d="M226,-49c0,0,-66,24,-102,78c0,0,32,69,82,101c0,0,55,-20,100,-80c0,0,-26,-66,-80,-99Z"
id="f6_pc"
transform="scale(0.001,-0.001)"/>

<path d="M652,-518c0,0,-209,0,-487,322l53,49c0,0,120,-129,210,-193c0,0,90,-65,177,-65c0,0,72,0,113,39c0,0,41,40,41,92c0,0,0,75,-78,105L564,-286l-90,98c0,0,62,96,169,96L605,37C605,37,552,18,498,18c0,0,-151,0,-288,115C210,133,73,248,73,388c0,0,0,113,84,184c0,0,84,71,222,73H524V822H0l-45,76l14,31H842l46,-76L874,822H567l84,-73V519l-3,2l3,-3H408c0,0,-93,0,-153,-52c0,0,-59,-52,-59,-128c0,0,0,-121,110,-188c0,0,53,-17,105,-17c0,0,92,0,153,43L535,318l101,49L773,203c0,0,-20,-67,-87,-122l61,-204c0,0,52,-32,83,-87c0,0,32,-55,32,-116c0,0,0,-85,-61,-139c0,0,-60,-53,-149,-53Z"
id="f6_mv"
transform="scale(0.001,-0.001)"/>

<path d="M228,-49L138,8V822H0l-45,76l14,31H134c0,0,-90,95,-90,199c0,0,0,111,99,177c0,0,98,67,271,67c0,0,202,0,439,-91c0,0,238,-91,475,-263l-48,-49c0,0,-469,288,-812,288c0,0,-138,0,-220,-49c0,0,-83,-50,-83,-142c0,0,0,-64,50,-137H402l46,-76L434,822H199l65,-58V-39L228,-49Z"
id="f6_nv"
transform="scale(0.001,-0.001)"/>

<path d="M-234,-413c0,0,-210,0,-488,322l54,49c0,0,119,-128,209,-193c0,0,90,-65,177,-65c0,0,72,0,113,40c0,0,42,39,42,91c0,0,0,75,-78,106L-323,-181l-90,98c0,0,63,95,167,95c0,0,90,0,155,-69c0,0,66,-70,66,-164c0,0,0,-85,-60,-139c0,0,-61,-53,-149,-53Z"
id="f6_cw"
transform="scale(0.001,-0.001)"/>

<path d="M373,-262c13,0,88,3,157,58c0,0,77,60,95,145L597,43C597,43,309,2,309,-158c0,0,0,-70,62,-104c0,0,1,0,2,0ZM710,-386l-41,159c0,0,-70,-107,-208,-107c0,0,-108,0,-187,65c0,0,-78,64,-78,151c0,0,0,55,33,101c0,0,34,45,87,67L273,72c0,0,-84,47,-142,130c0,0,-58,82,-58,172c0,0,0,110,82,181c0,0,82,71,218,74H524V822H0l-45,76l14,31H842l46,-76L874,822H585l66,-58V504l-3,2l3,-3H408c0,0,-95,0,-154,-53c0,0,-58,-53,-58,-132c0,0,0,-49,27,-100c0,0,28,-50,83,-84c0,0,48,-16,108,-16c0,0,90,0,150,39L535,303l101,48L773,188c0,0,-14,-49,-98,-119L823,-338L710,-386Z"
id="f6_gk"
transform="scale(0.001,-0.001)"/>

<path d="M527,-71L52,414l34,92H277c0,0,12,32,12,72V822H0l-45,76l14,31H940l45,-76L972,822H350l66,-55V553c0,0,24,52,77,83c0,0,52,30,112,30c0,0,87,0,171,-76c0,0,84,-75,222,-304L938,244L828,411c0,0,-95,134,-195,134c0,0,-63,0,-100,-35c0,0,-36,-36,-36,-87c0,0,0,-50,42,-87l152,99L755,315c0,0,-71,-61,-148,-61c0,0,-80,0,-146,66c0,0,-65,67,-65,164c0,0,-34,-70,-132,-168L610,34L611,8L527,-71Z"
id="f6_n1"
transform="scale(0.001,-0.001)"/>

<path d="M487,-7c0,0,-88,0,-185,46c0,0,-97,47,-163,130c0,0,-66,83,-66,185c0,0,0,109,80,177c0,0,79,68,234,68H504V822H0l-45,76l14,31H827l45,-76L859,822H565l66,-58V474l-3,1l3,-3H396c0,0,-100,0,-152,-47c0,0,-53,-48,-53,-119c0,0,0,-104,93,-178c0,0,60,-20,118,-20c0,0,81,0,156,36c0,0,76,35,123,99l92,-99C773,144,723,70,645,31C645,31,567,-7,487,-7Z"
id="f6_bk"
transform="scale(0.001,-0.001)"/>

<path d="M527,-71L52,414l34,92H277c0,0,12,32,12,72V822H0l-45,76l14,31H654l46,-76L686,822H350l66,-55V564c0,0,0,-43,-25,-89H782L798,370H315L264,316L610,34L611,8L527,-71Z"
id="f6_m1"
transform="scale(0.001,-0.001)"/>

<path d="M570,78c0,0,66,17,105,54c0,0,40,38,40,88c0,0,0,40,-23,66c0,0,-23,26,-58,26c0,0,-40,0,-71,-33c0,0,-31,-33,-31,-90c0,0,0,-55,38,-111ZM538,-45c0,0,-182,0,-322,128C216,83,76,211,76,368c0,0,0,122,91,201c0,0,90,79,238,79H564V822H0l-45,76l14,31H853l45,-76L885,822H617l66,-58V521H420c0,0,-99,0,-162,-57c0,0,-62,-58,-62,-146c0,0,0,-121,105,-208c0,0,118,-41,188,-41l29,1l-69,46c0,0,-36,55,-36,115c0,0,0,73,48,123c0,0,49,49,123,49c0,0,87,0,151,-74c0,0,64,-74,64,-162c0,0,0,-94,-71,-153c0,0,-71,-59,-190,-59Z"
id="f6_bn"
transform="scale(0.001,-0.001)"/>

<path d="M228,-49L138,8V822H0l-45,76l14,31H70L-65,1033c0,0,-90,65,-157,65c0,0,-67,0,-151,-53l-72,118c0,0,78,65,163,65c0,0,116,0,246,-120L153,930L46,1201c0,0,-71,166,-187,166c0,0,-52,0,-128,-33l-60,125c0,0,78,46,159,46c0,0,193,0,283,-271L215,929H402l46,-76L434,822H199l65,-58V-39L228,-49Z"
id="f6_d9"
transform="scale(0.001,-0.001)"/>

<path d="M725,307c0,0,-95,0,-218,78c0,0,-123,78,-188,78c0,0,-54,0,-95,-34c0,0,-41,-34,-73,-100L93,362c0,0,38,88,101,146c0,0,63,59,148,59c0,0,90,0,214,-78c0,0,124,-79,188,-79c0,0,63,0,106,34c0,0,42,33,85,104l60,-40c0,0,-32,-66,-101,-134c0,0,-70,-67,-169,-67Z"
id="f7_4r"
transform="scale(0.001,-0.001)"/>

<path d="M415,-18c0,0,-149,0,-244,83c0,0,-94,84,-107,222l140,11c0,0,16,-103,73,-154c0,0,56,-52,137,-52c0,0,98,0,165,73c0,0,66,73,66,194c0,0,0,115,-64,182c0,0,-64,66,-169,66c0,0,-65,0,-117,-29c0,0,-52,-30,-82,-77L87,517l106,562H736V951H300L241,657c0,0,99,69,207,69c0,0,143,0,242,-100c0,0,98,-99,98,-255c0,0,0,-149,-86,-257C702,114,597,-18,415,-18Z"
id="f8_p"
transform="scale(0.001,-0.001)"/>

<path d="M494,385V878L152,385ZM494,0V262H20V385l498,708H628V385H775V262H628V0Z"
id="f8_o"
transform="scale(0.001,-0.001)"/>


</defs>
</svg>