<?xml version="1.0" encoding="UTF-8" standalone="no"?>
<!DOCTYPE svg PUBLIC "-//W3C//DTD SVG 1.1//EN"
"http://www.w3.org/Graphics/SVG/1.1/DTD/svg11.dtd">
<svg viewBox="0 0 641 910" version="1.1" xmlns="http://www.w3.org/2000/svg" xmlns:xlink="http://www.w3.org/1999/xlink">
<defs>
<clipPath id="c0_20"><path d="M0,909.8V0H641.7V909.8Z"/></clipPath>
<clipPath id="c1_20"><path d="M0,908.6V0H641.7V908.6Z"/></clipPath>
<style type="text/css"><![CDATA[
.g0_20{
fill: #FFFFFF;
}
.g1_20{
}
]]></style>
</defs>
<path d="M0,0H641.7V909.8H0V0Z" class="g0_20"/>
<path d="M0,0H641.7V909.8H0V0Z" class="g0_20"/>
<g clip-path="url(#c0_20)">
<path d="M0,-11827.2H641.7V94618.3H0V-11827.2Z" class="g0_20"/>
</g>
<path d="M0,0H641.7V908.6H0V0Z" class="g0_20"/>
<path d="M19.5,60.7H602.7v1.2H19.5V60.7Z" class="g1_20"/>
<g clip-path="url(#c1_20)">
<path d="M0,61.9H641.7V909.8H0V61.9Z" class="g0_20"/>
<g fill="#000000" >
<use xlink:href="#f5_c0" transform="matrix(14,0,0,14,240.9,103.1)" />
<use xlink:href="#f5_cc" transform="matrix(14,0,0,14,255,103.1)" />
<use xlink:href="#f5_cc" transform="matrix(14,0,0,14,273.3,103.1)" />
<use xlink:href="#f5_d5" transform="matrix(14,0,0,14,286.3,103.1)" />
<use xlink:href="#f5_bv" transform="matrix(14,0,0,14,291.7,103.1)" />
<use xlink:href="#f5_ct" transform="matrix(14,0,0,14,304.8,103.1)" />
<use xlink:href="#f5_c7" transform="matrix(14,0,0,14,311.3,103.1)" />
<use xlink:href="#f5_bt" transform="matrix(14,0,0,14,325,103.1)" />
<use xlink:href="#f5_by" transform="matrix(14,0,0,14,343.7,103.1)" />
<use xlink:href="#f5_cx" transform="matrix(14,0,0,14,358.8,103.1)" />
<use xlink:href="#f5_cu" transform="matrix(14,0,0,14,358.7,103.1)" />
<use xlink:href="#f5_bz" transform="matrix(14,0,0,14,365.1,103.1)" />
<use xlink:href="#f6_c0" transform="matrix(14,0,0,14,166.4,162.7)" />
<use xlink:href="#f6_cc" transform="matrix(14,0,0,14,179,162.7)" />
<use xlink:href="#f6_cc" transform="matrix(14,0,0,14,196.3,162.7)" />
<use xlink:href="#f6_d5" transform="matrix(14,0,0,14,208.2,162.7)" />
<use xlink:href="#f6_bv" transform="matrix(14,0,0,14,213.5,162.7)" />
<use xlink:href="#f6_ct" transform="matrix(14,0,0,14,225.4,162.7)" />
<use xlink:href="#f6_c7" transform="matrix(14,0,0,14,231,162.7)" />
<use xlink:href="#f6_bt" transform="matrix(14,0,0,14,243.1,162.7)" />
<use xlink:href="#f6_by" transform="matrix(14,0,0,14,260.5,162.7)" />
<use xlink:href="#f6_cx" transform="matrix(14,0,0,14,274.4,162.6)" />
<use xlink:href="#f6_nt" transform="matrix(14,0,0,14,274.4,162.7)" />
<use xlink:href="#f6_bz" transform="matrix(14,0,0,14,280.1,162.7)" />
<use xlink:href="#f6_k" transform="matrix(14,0,0,14,293.4,162.7)" />
<use xlink:href="#f6_c0" transform="matrix(14,0,0,14,304.3,162.7)" />
<use xlink:href="#f6_cc" transform="matrix(14,0,0,14,316.8,162.7)" />
<use xlink:href="#f6_ct" transform="matrix(14,0,0,14,328.4,162.7)" />
<use xlink:href="#f6_di" transform="matrix(14,0,0,14,331.9,163.1)" />
<use xlink:href="#f6_bx" transform="matrix(14,0,0,14,339.7,162.7)" />
<use xlink:href="#f6_ct" transform="matrix(14,0,0,14,352,162.7)" />
<use xlink:href="#f6_c1" transform="matrix(14,0,0,14,357.6,162.7)" />
<use xlink:href="#f6_pd" transform="matrix(14,0,0,14,366,162.7)" />
<use xlink:href="#f6_bx" transform="matrix(14,0,0,14,379.2,162.7)" />
<use xlink:href="#f6_ct" transform="matrix(14,0,0,14,391.5,162.7)" />
<use xlink:href="#f6_c1" transform="matrix(14,0,0,14,397.1,162.7)" />
<use xlink:href="#f6_am" transform="matrix(14,0,0,14,411.2,162.7)" />
<use xlink:href="#f6_bt" transform="matrix(14,0,0,14,432.7,162.7)" />
<use xlink:href="#f6_ct" transform="matrix(14,0,0,14,444.4,162.7)" />
<use xlink:href="#f6_k" transform="matrix(14,0,0,14,450,162.7)" />
<use xlink:href="#f6_bv" transform="matrix(14,0,0,14,149.3,187.9)" />
<use xlink:href="#f6_ct" transform="matrix(14,0,0,14,161.1,187.9)" />
<use xlink:href="#f6_c1" transform="matrix(14,0,0,14,166.7,187.9)" />
<use xlink:href="#f6_cb" transform="matrix(14,0,0,14,175.1,187.9)" />
<use xlink:href="#f6_bt" transform="matrix(14,0,0,14,190,187.9)" />
<use xlink:href="#f6_ct" transform="matrix(14,0,0,14,201.7,187.9)" />
<use xlink:href="#f6_no" transform="matrix(14,0,0,14,207.3,187.9)" />
<use xlink:href="#f6_bq" transform="matrix(14,0,0,14,207.3,187.9)" />
<use xlink:href="#f6_b9" transform="matrix(14,0,0,14,226.2,187.9)" />
<use xlink:href="#f6_d4" transform="matrix(14,0,0,14,237.3,187.9)" />
<use xlink:href="#f6_be" transform="matrix(14,0,0,14,247.4,187.9)" />
<use xlink:href="#f6_c1" transform="matrix(14,0,0,14,261.3,187.9)" />
<use xlink:href="#f6_bo" transform="matrix(14,0,0,14,269.7,187.9)" />
<use xlink:href="#f6_d8" transform="matrix(14,0,0,14,284.1,187.9)" />
<use xlink:href="#f6_dj" transform="matrix(14,0,0,14,288.4,188.8)" />
<use xlink:href="#f6_bz" transform="matrix(14,0,0,14,295.4,187.9)" />
<use xlink:href="#f6_oz" transform="matrix(14,0,0,14,308.8,187.9)" />
<use xlink:href="#f6_k" transform="matrix(14,0,0,14,308.7,187.9)" />
<use xlink:href="#f6_am" transform="matrix(14,0,0,14,319.6,187.9)" />
<use xlink:href="#f6_b9" transform="matrix(14,0,0,14,341.1,187.9)" />
<use xlink:href="#f6_c1" transform="matrix(14,0,0,14,356.6,187.9)" />
<use xlink:href="#f6_b9" transform="matrix(14,0,0,14,370.6,187.9)" />
<use xlink:href="#f6_d4" transform="matrix(14,0,0,14,381.8,187.9)" />
<use xlink:href="#f6_bh" transform="matrix(14,0,0,14,391.8,187.9)" />
<use xlink:href="#f6_oe" transform="matrix(14,0,0,14,409.2,187.8)" />
<use xlink:href="#f6_b9" transform="matrix(14,0,0,14,408.6,187.9)" />
<use xlink:href="#f6_bg" transform="matrix(14,0,0,14,429.7,187.9)" />
<use xlink:href="#f6_ct" transform="matrix(14,0,0,14,444,187.9)" />
<use xlink:href="#f6_bt" transform="matrix(14,0,0,14,449.6,187.9)" />
<use xlink:href="#f6_ct" transform="matrix(14,0,0,14,461.3,187.9)" />
<use xlink:href="#f6_k" transform="matrix(14,0,0,14,466.9,187.9)" />
<use xlink:href="#f6_c0" transform="matrix(14,0,0,14,491.9,213.1)" />
<use xlink:href="#f6_cc" transform="matrix(14,0,0,14,504.4,213.1)" />
<use xlink:href="#f6_cc" transform="matrix(14,0,0,14,521.7,213.1)" />
<use xlink:href="#f6_d5" transform="matrix(14,0,0,14,533.6,213.1)" />
<use xlink:href="#f6_bv" transform="matrix(14,0,0,14,539,213.1)" />
<use xlink:href="#f6_ct" transform="matrix(14,0,0,14,550.8,213.1)" />
<use xlink:href="#f6_c7" transform="matrix(14,0,0,14,556.4,213.1)" />
<use xlink:href="#f6_bt" transform="matrix(14,0,0,14,568.5,213.1)" />
<use xlink:href="#f6_pc" transform="matrix(14,0,0,14,580.2,213.1)" />
<use xlink:href="#f6_pc" transform="matrix(14,0,0,14,584.5,213.1)" />
<use xlink:href="#f6_pc" transform="matrix(14,0,0,14,588.8,213.1)" />
<use xlink:href="#f6_pc" transform="matrix(14,0,0,14,593.1,213.1)" />
<use xlink:href="#f6_pc" transform="matrix(14,0,0,14,597.3,213.1)" />
<use xlink:href="#f6_bp" transform="matrix(14,0,0,14,133.2,263.5)" />
<use xlink:href="#f6_d4" transform="matrix(14,0,0,14,145.7,263.5)" />
<use xlink:href="#f6_c1" transform="matrix(14,0,0,14,145.5,263.5)" />
<use xlink:href="#f6_d4" transform="matrix(14,0,0,14,153.5,263.5)" />
<use xlink:href="#f6_bz" transform="matrix(14,0,0,14,159.6,263.5)" />
<use xlink:href="#f6_m1" transform="matrix(14,0,0,14,172.9,263.5)" />
<use xlink:href="#f6_bp" transform="matrix(14,0,0,14,181.8,263.5)" />
<use xlink:href="#f6_b9" transform="matrix(14,0,0,14,194.1,263.5)" />
<use xlink:href="#f6_bv" transform="matrix(14,0,0,14,215.3,263.5)" />
<use xlink:href="#f6_d4" transform="matrix(14,0,0,14,227.3,263.5)" />
<use xlink:href="#f6_bz" transform="matrix(14,0,0,14,232.8,263.5)" />
<use xlink:href="#f6_cw" transform="matrix(14,0,0,14,246.7,263.4)" />
<use xlink:href="#f6_b9" transform="matrix(14,0,0,14,246.2,263.5)" />
<use xlink:href="#f6_bk" transform="matrix(14,0,0,14,261.7,263.5)" />
<use xlink:href="#f6_cc" transform="matrix(14,0,0,14,278.9,263.5)" />
<use xlink:href="#f6_d5" transform="matrix(14,0,0,14,290.8,263.5)" />
<use xlink:href="#f6_pc" transform="matrix(14,0,0,14,296.2,263.5)" />
<use xlink:href="#f6_pc" transform="matrix(14,0,0,14,300.4,263.5)" />
<use xlink:href="#f6_pc" transform="matrix(14,0,0,14,304.7,263.5)" />
<use xlink:href="#f6_pc" transform="matrix(14,0,0,14,309,263.5)" />
<use xlink:href="#f6_bp" transform="matrix(14,0,0,14,318.9,263.5)" />
<use xlink:href="#f6_d4" transform="matrix(14,0,0,14,331.4,263.5)" />
<use xlink:href="#f6_c1" transform="matrix(14,0,0,14,331.2,263.5)" />
<use xlink:href="#f6_d4" transform="matrix(14,0,0,14,339.2,263.5)" />
<use xlink:href="#f6_b9" transform="matrix(14,0,0,14,345.3,263.5)" />
<use xlink:href="#f6_ct" transform="matrix(14,0,0,14,360.8,263.5)" />
<use xlink:href="#f6_bt" transform="matrix(14,0,0,14,366.4,263.5)" />
<use xlink:href="#f6_d8" transform="matrix(14,0,0,14,378.1,263.5)" />
<use xlink:href="#f6_bz" transform="matrix(14,0,0,14,389.4,263.5)" />
<use xlink:href="#f6_oz" transform="matrix(14,0,0,14,402.9,263.5)" />
<use xlink:href="#f6_b9" transform="matrix(14,0,0,14,414.1,263.5)" />
<use xlink:href="#f6_cw" transform="matrix(14,0,0,14,425.2,263.4)" />
<use xlink:href="#f6_lc" transform="matrix(14,0,0,14,429.6,263.5)" />
<use xlink:href="#f6_bm" transform="matrix(14,0,0,14,437.9,263.5)" />
<use xlink:href="#f6_c3" transform="matrix(14,0,0,14,450.6,263.5)" />
<use xlink:href="#f6_cc" transform="matrix(14,0,0,14,471,263.5)" />
<use xlink:href="#f6_d5" transform="matrix(14,0,0,14,483,263.5)" />
<use xlink:href="#f6_k" transform="matrix(14,0,0,14,482.6,263.5)" />
<use xlink:href="#f6_bp" transform="matrix(14,0,0,14,158.4,288.8)" />
<use xlink:href="#f6_cx" transform="matrix(14,0,0,14,170.7,288.6)" />
<use xlink:href="#f6_b9" transform="matrix(14,0,0,14,176.4,288.8)" />
<use xlink:href="#f6_n0" transform="matrix(14,0,0,14,191.9,288.8)" />
<use xlink:href="#f6_bo" transform="matrix(14,0,0,14,205.1,288.8)" />
<use xlink:href="#f6_ct" transform="matrix(14,0,0,14,219.4,288.8)" />
<use xlink:href="#f6_cb" transform="matrix(14,0,0,14,230.7,288.8)" />
<use xlink:href="#f6_ct" transform="matrix(14,0,0,14,245.6,288.8)" />
<use xlink:href="#f6_bb" transform="matrix(14,0,0,14,251.2,288.8)" />
<use xlink:href="#f6_c1" transform="matrix(14,0,0,14,263.8,288.8)" />
<use xlink:href="#f6_cc" transform="matrix(14,0,0,14,277.9,288.8)" />
<use xlink:href="#f6_d5" transform="matrix(14,0,0,14,289.8,288.8)" />
<use xlink:href="#f6_k" transform="matrix(14,0,0,14,295.1,288.8)" />
<use xlink:href="#f6_bz" transform="matrix(14,0,0,14,300.4,288.8)" />
<use xlink:href="#f6_cw" transform="matrix(14,0,0,14,314.2,288.6)" />
<use xlink:href="#f6_bh" transform="matrix(14,0,0,14,313.7,288.8)" />
<use xlink:href="#f6_bv" transform="matrix(14,0,0,14,336.1,288.8)" />
<use xlink:href="#f6_c1" transform="matrix(14,0,0,14,348,288.8)" />
<use xlink:href="#f6_b9" transform="matrix(14,0,0,14,362,288.8)" />
<use xlink:href="#f6_n0" transform="matrix(14,0,0,14,377.5,288.8)" />
<use xlink:href="#f6_bo" transform="matrix(14,0,0,14,390.7,288.8)" />
<use xlink:href="#f6_ct" transform="matrix(14,0,0,14,405.1,288.8)" />
<use xlink:href="#f6_b9" transform="matrix(14,0,0,14,416.3,288.8)" />
<use xlink:href="#f6_c1" transform="matrix(14,0,0,14,431.8,288.8)" />
<use xlink:href="#f6_bt" transform="matrix(14,0,0,14,440.2,288.8)" />
<use xlink:href="#f6_ct" transform="matrix(14,0,0,14,451.9,288.8)" />
<use xlink:href="#f6_k" transform="matrix(14,0,0,14,457.6,288.8)" />
<use xlink:href="#f6_c0" transform="matrix(14,0,0,14,496.4,314)" />
<use xlink:href="#f6_cc" transform="matrix(14,0,0,14,509,314)" />
<use xlink:href="#f6_cc" transform="matrix(14,0,0,14,526.3,314)" />
<use xlink:href="#f6_d5" transform="matrix(14,0,0,14,538.2,314)" />
<use xlink:href="#f6_bv" transform="matrix(14,0,0,14,543.5,314)" />
<use xlink:href="#f6_ct" transform="matrix(14,0,0,14,555.4,314)" />
<use xlink:href="#f6_c7" transform="matrix(14,0,0,14,561,314)" />
<use xlink:href="#f6_bt" transform="matrix(14,0,0,14,573.1,314)" />
<use xlink:href="#f6_pc" transform="matrix(14,0,0,14,584.8,314)" />
<use xlink:href="#f6_pc" transform="matrix(14,0,0,14,589.1,314)" />
<use xlink:href="#f6_pc" transform="matrix(14,0,0,14,593.4,314)" />
<use xlink:href="#f6_pc" transform="matrix(14,0,0,14,597.6,314)" />
<use xlink:href="#f6_bp" transform="matrix(14,0,0,14,181.3,364.4)" />
<use xlink:href="#f6_cx" transform="matrix(14,0,0,14,193.6,364.3)" />
<use xlink:href="#f6_bg" transform="matrix(14,0,0,14,199.3,364.4)" />
<use xlink:href="#f6_cv" transform="matrix(14,0,0,14,213.6,364.4)" />
<use xlink:href="#f6_c7" transform="matrix(14,0,0,14,219.2,364.4)" />
<use xlink:href="#f6_bt" transform="matrix(14,0,0,14,231.3,364.4)" />
<use xlink:href="#f6_m1" transform="matrix(14,0,0,14,248.7,364.4)" />
<use xlink:href="#f6_c7" transform="matrix(14,0,0,14,257.4,364.4)" />
<use xlink:href="#f6_ct" transform="matrix(14,0,0,14,269.5,364.4)" />
<use xlink:href="#f6_bz" transform="matrix(14,0,0,14,275.1,364.4)" />
<use xlink:href="#f6_cv" transform="matrix(14,0,0,14,288.5,364.4)" />
<use xlink:href="#f6_cc" transform="matrix(14,0,0,14,299.8,364.4)" />
<use xlink:href="#f6_d5" transform="matrix(14,0,0,14,311.7,364.4)" />
<use xlink:href="#f6_pc" transform="matrix(14,0,0,14,311.4,364.4)" />
<use xlink:href="#f6_pc" transform="matrix(14,0,0,14,315.7,364.4)" />
<use xlink:href="#f6_pc" transform="matrix(14,0,0,14,319.9,364.4)" />
<use xlink:href="#f6_pc" transform="matrix(14,0,0,14,324.2,364.4)" />
<use xlink:href="#f6_bp" transform="matrix(14,0,0,14,334.1,364.4)" />
<use xlink:href="#f6_cx" transform="matrix(14,0,0,14,346.4,364.3)" />
<use xlink:href="#f6_al" transform="matrix(14,0,0,14,352.1,364.4)" />
<use xlink:href="#f6_dj" transform="matrix(14,0,0,14,365.1,364.8)" />
<use xlink:href="#f6_bp" transform="matrix(14,0,0,14,368,364.4)" />
<use xlink:href="#f6_c0" transform="matrix(14,0,0,14,380.3,364.4)" />
<use xlink:href="#f6_ct" transform="matrix(14,0,0,14,392.8,364.4)" />
<use xlink:href="#f6_dr" transform="matrix(14,0,0,14,399,364.4)" />
<use xlink:href="#f6_bz" transform="matrix(14,0,0,14,398.5,364.4)" />
<use xlink:href="#f6_cv" transform="matrix(14,0,0,14,411.8,364.4)" />
<use xlink:href="#f6_cc" transform="matrix(14,0,0,14,423.1,364.4)" />
<use xlink:href="#f6_d5" transform="matrix(14,0,0,14,435,364.4)" />
<use xlink:href="#f6_k" transform="matrix(14,0,0,14,434.7,364.4)" />
<use xlink:href="#f6_bz" transform="matrix(14,0,0,14,164.2,389.6)" />
<use xlink:href="#f6_d4" transform="matrix(14,0,0,14,177.6,389.6)" />
<use xlink:href="#f6_c1" transform="matrix(14,0,0,14,177.5,389.6)" />
<use xlink:href="#f6_cv" transform="matrix(14,0,0,14,185.9,389.6)" />
<use xlink:href="#f6_cu" transform="matrix(14,0,0,14,197.2,389.6)" />
<use xlink:href="#f6_c7" transform="matrix(14,0,0,14,202.8,389.6)" />
<use xlink:href="#f6_bt" transform="matrix(14,0,0,14,214.9,389.6)" />
<use xlink:href="#f6_bp" transform="matrix(14,0,0,14,226.6,389.6)" />
<use xlink:href="#f6_cv" transform="matrix(14,0,0,14,238.9,389.6)" />
<use xlink:href="#f6_cb" transform="matrix(14,0,0,14,250.2,389.6)" />
<use xlink:href="#f6_cw" transform="matrix(14,0,0,14,265.6,389.5)" />
<use xlink:href="#f6_bt" transform="matrix(14,0,0,14,265.1,389.6)" />
<use xlink:href="#f6_c3" transform="matrix(14,0,0,14,282.4,389.6)" />
<use xlink:href="#f6_d4" transform="matrix(14,0,0,14,297.3,389.6)" />
<use xlink:href="#f6_bt" transform="matrix(14,0,0,14,297.1,389.6)" />
<use xlink:href="#f6_ct" transform="matrix(14,0,0,14,308.9,389.6)" />
<use xlink:href="#f6_k" transform="matrix(14,0,0,14,314.5,389.6)" />
<use xlink:href="#f6_by" transform="matrix(14,0,0,14,325.4,389.6)" />
<use xlink:href="#f6_c7" transform="matrix(14,0,0,14,339.3,389.6)" />
<use xlink:href="#f6_bv" transform="matrix(14,0,0,14,351.4,389.6)" />
<use xlink:href="#f6_ct" transform="matrix(14,0,0,14,363.3,389.6)" />
<use xlink:href="#f6_c1" transform="matrix(14,0,0,14,368.9,389.6)" />
<use xlink:href="#f6_c3" transform="matrix(14,0,0,14,382.9,389.6)" />
<use xlink:href="#f6_bb" transform="matrix(14,0,0,14,397.6,389.6)" />
<use xlink:href="#f6_ct" transform="matrix(14,0,0,14,410.2,389.6)" />
<use xlink:href="#f6_br" transform="matrix(14,0,0,14,421.5,389.6)" />
<use xlink:href="#f6_d4" transform="matrix(14,0,0,14,432.8,389.6)" />
<use xlink:href="#f6_bt" transform="matrix(14,0,0,14,433.2,389.6)" />
<use xlink:href="#f6_ct" transform="matrix(14,0,0,14,444.9,389.6)" />
<use xlink:href="#f6_k" transform="matrix(14,0,0,14,450.5,389.6)" />
<use xlink:href="#f6_c0" transform="matrix(14,0,0,14,491.9,414.8)" />
<use xlink:href="#f6_cc" transform="matrix(14,0,0,14,504.4,414.8)" />
<use xlink:href="#f6_cc" transform="matrix(14,0,0,14,521.7,414.8)" />
<use xlink:href="#f6_d5" transform="matrix(14,0,0,14,533.6,414.8)" />
<use xlink:href="#f6_bv" transform="matrix(14,0,0,14,539,414.8)" />
<use xlink:href="#f6_ct" transform="matrix(14,0,0,14,550.8,414.8)" />
<use xlink:href="#f6_c7" transform="matrix(14,0,0,14,556.4,414.8)" />
<use xlink:href="#f6_bt" transform="matrix(14,0,0,14,568.5,414.8)" />
<use xlink:href="#f6_pc" transform="matrix(14,0,0,14,580.2,414.8)" />
<use xlink:href="#f6_pc" transform="matrix(14,0,0,14,584.5,414.8)" />
<use xlink:href="#f6_pc" transform="matrix(14,0,0,14,588.8,414.8)" />
<use xlink:href="#f6_pc" transform="matrix(14,0,0,14,593.1,414.8)" />
<use xlink:href="#f6_pc" transform="matrix(14,0,0,14,597.3,414.8)" />
<use xlink:href="#f6_bp" transform="matrix(14,0,0,14,148.1,465.2)" />
<use xlink:href="#f6_d4" transform="matrix(14,0,0,14,160.6,465.2)" />
<use xlink:href="#f6_c1" transform="matrix(14,0,0,14,160.4,465.2)" />
<use xlink:href="#f6_cv" transform="matrix(14,0,0,14,168.8,465.2)" />
<use xlink:href="#f6_cb" transform="matrix(14,0,0,14,180.1,465.2)" />
<use xlink:href="#f6_ct" transform="matrix(14,0,0,14,195,465.2)" />
<use xlink:href="#f6_c7" transform="matrix(14,0,0,14,200.6,465.2)" />
<use xlink:href="#f6_c3" transform="matrix(14,0,0,14,212.7,465.2)" />
<use xlink:href="#f6_cv" transform="matrix(14,0,0,14,227.4,465.2)" />
<use xlink:href="#f6_cb" transform="matrix(14,0,0,14,238.7,465.2)" />
<use xlink:href="#f6_cw" transform="matrix(14,0,0,14,254.1,465.1)" />
<use xlink:href="#f6_c1" transform="matrix(14,0,0,14,253.5,465.2)" />
<use xlink:href="#f6_bp" transform="matrix(14,0,0,14,261.9,465.2)" />
<use xlink:href="#f6_cc" transform="matrix(14,0,0,14,279.9,465.2)" />
<use xlink:href="#f6_d5" transform="matrix(14,0,0,14,291.9,465.2)" />
<use xlink:href="#f6_pc" transform="matrix(14,0,0,14,297.2,465.2)" />
<use xlink:href="#f6_pc" transform="matrix(14,0,0,14,301.5,465.2)" />
<use xlink:href="#f6_pc" transform="matrix(14,0,0,14,305.7,465.2)" />
<use xlink:href="#f6_pc" transform="matrix(14,0,0,14,310,465.2)" />
<use xlink:href="#f6_bz" transform="matrix(14,0,0,14,314.3,465.2)" />
<use xlink:href="#f6_d4" transform="matrix(14,0,0,14,327.8,465.2)" />
<use xlink:href="#f6_c1" transform="matrix(14,0,0,14,327.6,465.2)" />
<use xlink:href="#f6_d4" transform="matrix(14,0,0,14,335.6,465.2)" />
<use xlink:href="#f6_bz" transform="matrix(14,0,0,14,341.7,465.2)" />
<use xlink:href="#f6_bt" transform="matrix(14,0,0,14,355,465.2)" />
<use xlink:href="#f6_b9" transform="matrix(14,0,0,14,372.4,465.2)" />
<use xlink:href="#f6_d8" transform="matrix(14,0,0,14,387.9,465.2)" />
<use xlink:href="#f6_c3" transform="matrix(14,0,0,14,399.2,465.2)" />
<use xlink:href="#f6_cw" transform="matrix(14,0,0,14,414.4,465.1)" />
<use xlink:href="#f6_by" transform="matrix(14,0,0,14,413.9,465.2)" />
<use xlink:href="#f6_ct" transform="matrix(14,0,0,14,427.8,465.2)" />
<use xlink:href="#f6_bp" transform="matrix(14,0,0,14,433.5,465.2)" />
<use xlink:href="#f6_cv" transform="matrix(14,0,0,14,445.8,465.2)" />
<use xlink:href="#f6_cc" transform="matrix(14,0,0,14,457.1,465.2)" />
<use xlink:href="#f6_d5" transform="matrix(14,0,0,14,469,465.2)" />
<use xlink:href="#f6_k" transform="matrix(14,0,0,14,468.7,465.2)" />
<use xlink:href="#f6_bz" transform="matrix(14,0,0,14,150.4,490.4)" />
<use xlink:href="#f6_d4" transform="matrix(14,0,0,14,163.9,490.4)" />
<use xlink:href="#f6_c1" transform="matrix(14,0,0,14,163.7,490.4)" />
<use xlink:href="#f6_d4" transform="matrix(14,0,0,14,171.7,490.4)" />
<use xlink:href="#f6_ll" transform="matrix(14,0,0,14,177.8,490.4)" />
<use xlink:href="#f6_c0" transform="matrix(14,0,0,14,184.2,490.4)" />
<use xlink:href="#f6_ct" transform="matrix(14,0,0,14,196.8,490.4)" />
<use xlink:href="#f6_c1" transform="matrix(14,0,0,14,202.4,490.4)" />
<use xlink:href="#f6_d4" transform="matrix(14,0,0,14,210.4,490.4)" />
<use xlink:href="#f6_ll" transform="matrix(14,0,0,14,216.4,490.4)" />
<use xlink:href="#f6_c0" transform="matrix(14,0,0,14,222.9,490.4)" />
<use xlink:href="#f6_ct" transform="matrix(14,0,0,14,235.4,490.4)" />
<use xlink:href="#f6_c1" transform="matrix(14,0,0,14,241,490.4)" />
<use xlink:href="#f6_d4" transform="matrix(14,0,0,14,249,490.4)" />
<use xlink:href="#f6_nu" transform="matrix(14,0,0,14,255.1,490.4)" />
<use xlink:href="#f6_bg" transform="matrix(14,0,0,14,260.7,490.4)" />
<use xlink:href="#f6_bt" transform="matrix(14,0,0,14,275,490.4)" />
<use xlink:href="#f6_c1" transform="matrix(14,0,0,14,286.7,490.4)" />
<use xlink:href="#f6_ct" transform="matrix(14,0,0,14,295.1,490.4)" />
<use xlink:href="#f6_bg" transform="matrix(14,0,0,14,300.7,490.4)" />
<use xlink:href="#f6_k" transform="matrix(14,0,0,14,314.9,490.4)" />
<use xlink:href="#f6_c0" transform="matrix(14,0,0,14,325.8,490.4)" />
<use xlink:href="#f6_cw" transform="matrix(14,0,0,14,338.9,490.3)" />
<use xlink:href="#f6_bb" transform="matrix(14,0,0,14,338.4,490.4)" />
<use xlink:href="#f6_c0" transform="matrix(14,0,0,14,356.7,490.4)" />
<use xlink:href="#f6_cw" transform="matrix(14,0,0,14,369.7,490.3)" />
<use xlink:href="#f6_bb" transform="matrix(14,0,0,14,369.2,490.4)" />
<use xlink:href="#f6_bz" transform="matrix(14,0,0,14,387.5,490.4)" />
<use xlink:href="#f6_oz" transform="matrix(14,0,0,14,400.9,490.4)" />
<use xlink:href="#f6_al" transform="matrix(14,0,0,14,406.5,490.4)" />
<use xlink:href="#f6_bz" transform="matrix(14,0,0,14,422.3,490.4)" />
<use xlink:href="#f6_c1" transform="matrix(14,0,0,14,435.7,490.4)" />
<use xlink:href="#f6_c1" transform="matrix(14,0,0,14,449.7,490.4)" />
<use xlink:href="#f6_cc" transform="matrix(14,0,0,14,458.1,490.4)" />
<use xlink:href="#f6_d4" transform="matrix(14,0,0,14,470.1,490.4)" />
<use xlink:href="#f6_c0" transform="matrix(14,0,0,14,496.4,515.6)" />
<use xlink:href="#f6_cc" transform="matrix(14,0,0,14,509,515.6)" />
<use xlink:href="#f6_cc" transform="matrix(14,0,0,14,526.3,515.6)" />
<use xlink:href="#f6_d5" transform="matrix(14,0,0,14,538.2,515.6)" />
<use xlink:href="#f6_bv" transform="matrix(14,0,0,14,543.5,515.6)" />
<use xlink:href="#f6_ct" transform="matrix(14,0,0,14,555.4,515.6)" />
<use xlink:href="#f6_c7" transform="matrix(14,0,0,14,561,515.6)" />
<use xlink:href="#f6_bt" transform="matrix(14,0,0,14,573.1,515.6)" />
<use xlink:href="#f6_pc" transform="matrix(14,0,0,14,584.8,515.6)" />
<use xlink:href="#f6_pc" transform="matrix(14,0,0,14,589.1,515.6)" />
<use xlink:href="#f6_pc" transform="matrix(14,0,0,14,593.4,515.6)" />
<use xlink:href="#f6_pc" transform="matrix(14,0,0,14,597.6,515.6)" />
<use xlink:href="#f6_bp" transform="matrix(14,0,0,14,137.8,566)" />
<use xlink:href="#f6_d4" transform="matrix(14,0,0,14,150.2,566)" />
<use xlink:href="#f6_c1" transform="matrix(14,0,0,14,150.1,566)" />
<use xlink:href="#f6_ct" transform="matrix(14,0,0,14,158.5,566)" />
<use xlink:href="#f6_c8" transform="matrix(14,0,0,14,169.8,566)" />
<use xlink:href="#f6_ct" transform="matrix(14,0,0,14,185.6,566)" />
<use xlink:href="#f6_cb" transform="matrix(14,0,0,14,191.3,566)" />
<use xlink:href="#f6_bt" transform="matrix(14,0,0,14,206.1,566)" />
<use xlink:href="#f6_cb" transform="matrix(14,0,0,14,223.5,566)" />
<use xlink:href="#f6_cw" transform="matrix(14,0,0,14,238.9,566)" />
<use xlink:href="#f6_lj" transform="matrix(14,0,0,14,238.4,566)" />
<use xlink:href="#f6_br" transform="matrix(14,0,0,14,244.2,566)" />
<use xlink:href="#f6_c1" transform="matrix(14,0,0,14,255.9,566)" />
<use xlink:href="#f6_cc" transform="matrix(14,0,0,14,269.9,566)" />
<use xlink:href="#f6_d5" transform="matrix(14,0,0,14,281.9,566)" />
<use xlink:href="#f6_pc" transform="matrix(14,0,0,14,281.5,566)" />
<use xlink:href="#f6_pc" transform="matrix(14,0,0,14,285.8,566)" />
<use xlink:href="#f6_pc" transform="matrix(14,0,0,14,290.1,566)" />
<use xlink:href="#f6_pc" transform="matrix(14,0,0,14,294.3,566)" />
<use xlink:href="#f6_pc" transform="matrix(14,0,0,14,298.6,566)" />
<use xlink:href="#f6_cb" transform="matrix(14,0,0,14,308.6,566)" />
<use xlink:href="#f6_by" transform="matrix(14,0,0,14,323.4,566)" />
<use xlink:href="#f6_cv" transform="matrix(14,0,0,14,337.4,566)" />
<use xlink:href="#f6_bg" transform="matrix(14,0,0,14,348.7,566)" />
<use xlink:href="#f6_cv" transform="matrix(14,0,0,14,362.9,566)" />
<use xlink:href="#f6_c7" transform="matrix(14,0,0,14,368.6,566)" />
<use xlink:href="#f6_d8" transform="matrix(14,0,0,14,380.6,566)" />
<use xlink:href="#f6_b9" transform="matrix(14,0,0,14,391.9,566)" />
<use xlink:href="#f6_ct" transform="matrix(14,0,0,14,407.4,566)" />
<use xlink:href="#f6_bp" transform="matrix(14,0,0,14,418.7,566)" />
<use xlink:href="#f6_ct" transform="matrix(14,0,0,14,431,566)" />
<use xlink:href="#f6_c1" transform="matrix(14,0,0,14,436.7,566)" />
<use xlink:href="#f6_b9" transform="matrix(14,0,0,14,445,566)" />
<use xlink:href="#f6_cc" transform="matrix(14,0,0,14,466.2,566)" />
<use xlink:href="#f6_d5" transform="matrix(14,0,0,14,478.1,566)" />
<use xlink:href="#f6_k" transform="matrix(14,0,0,14,477.8,566)" />
<use xlink:href="#f6_bz" transform="matrix(14,0,0,14,172.2,591.3)" />
<use xlink:href="#f6_d4" transform="matrix(14,0,0,14,185.6,591.3)" />
<use xlink:href="#f6_c1" transform="matrix(14,0,0,14,185.5,591.3)" />
<use xlink:href="#f6_cv" transform="matrix(14,0,0,14,193.9,591.3)" />
<use xlink:href="#f6_bm" transform="matrix(14,0,0,14,205.2,591.3)" />
<use xlink:href="#f6_cx" transform="matrix(14,0,0,14,216.3,592.1)" />
<use xlink:href="#f6_bx" transform="matrix(14,0,0,14,217.9,591.3)" />
<use xlink:href="#f6_c1" transform="matrix(14,0,0,14,235.8,591.3)" />
<use xlink:href="#f6_cc" transform="matrix(14,0,0,14,244.2,591.3)" />
<use xlink:href="#f6_cv" transform="matrix(14,0,0,14,255.8,591.3)" />
<use xlink:href="#f6_bt" transform="matrix(14,0,0,14,267.1,591.3)" />
<use xlink:href="#f6_d5" transform="matrix(14,0,0,14,278.9,591.3)" />
<use xlink:href="#f6_c0" transform="matrix(14,0,0,14,278.8,591.3)" />
<use xlink:href="#f6_ct" transform="matrix(14,0,0,14,291.4,591.3)" />
<use xlink:href="#f6_k" transform="matrix(14,0,0,14,302.6,591.3)" />
<use xlink:href="#f6_bt" transform="matrix(14,0,0,14,313.5,591.3)" />
<use xlink:href="#f6_d5" transform="matrix(14,0,0,14,325.4,591.3)" />
<use xlink:href="#f6_c0" transform="matrix(14,0,0,14,325.2,591.3)" />
<use xlink:href="#f6_ct" transform="matrix(14,0,0,14,337.8,591.3)" />
<use xlink:href="#f6_bv" transform="matrix(14,0,0,14,349.1,591.3)" />
<use xlink:href="#f6_ct" transform="matrix(14,0,0,14,360.9,591.3)" />
<use xlink:href="#f6_c1" transform="matrix(14,0,0,14,366.6,591.3)" />
<use xlink:href="#f6_c3" transform="matrix(14,0,0,14,380.6,591.3)" />
<use xlink:href="#f6_bb" transform="matrix(14,0,0,14,395.3,591.3)" />
<use xlink:href="#f6_ct" transform="matrix(14,0,0,14,407.9,591.3)" />
<use xlink:href="#f6_br" transform="matrix(14,0,0,14,419.2,591.3)" />
<use xlink:href="#f6_d4" transform="matrix(14,0,0,14,430.4,591.3)" />
<use xlink:href="#f6_bt" transform="matrix(14,0,0,14,430.9,591.3)" />
<use xlink:href="#f6_ct" transform="matrix(14,0,0,14,442.6,591.3)" />
<use xlink:href="#f6_c0" transform="matrix(14,0,0,14,491.9,616.5)" />
<use xlink:href="#f6_cc" transform="matrix(14,0,0,14,504.4,616.5)" />
<use xlink:href="#f6_cc" transform="matrix(14,0,0,14,521.7,616.5)" />
<use xlink:href="#f6_d5" transform="matrix(14,0,0,14,533.6,616.5)" />
<use xlink:href="#f6_bv" transform="matrix(14,0,0,14,539,616.5)" />
<use xlink:href="#f6_ct" transform="matrix(14,0,0,14,550.8,616.5)" />
<use xlink:href="#f6_c7" transform="matrix(14,0,0,14,556.4,616.5)" />
<use xlink:href="#f6_bt" transform="matrix(14,0,0,14,568.5,616.5)" />
<use xlink:href="#f6_pc" transform="matrix(14,0,0,14,580.2,616.5)" />
<use xlink:href="#f6_pc" transform="matrix(14,0,0,14,584.5,616.5)" />
<use xlink:href="#f6_pc" transform="matrix(14,0,0,14,588.8,616.5)" />
<use xlink:href="#f6_pc" transform="matrix(14,0,0,14,593.1,616.5)" />
<use xlink:href="#f6_pc" transform="matrix(14,0,0,14,597.3,616.5)" />
<use xlink:href="#f7_4r" transform="matrix(9,0,0,9,290.2,795.2)" />
<use xlink:href="#f8_l" transform="matrix(9,0,0,9,303,795.2)" />
<use xlink:href="#f8_o" transform="matrix(9,0,0,9,310.7,795.2)" />
<use xlink:href="#f7_4r" transform="matrix(9,0,0,9,321.3,795.2)" />
</g>
</g>
<image preserveAspectRatio="none" x="22" y="801" width="581" height="86" xlink:href="img/1.png"/>
<path d="M241.8,104.3H380.4v1.1H241.8v-1.1Z" class="g1_20"/>
<image preserveAspectRatio="none" x="202" y="14" width="217" height="26" xlink:href="img/2.png"/>
<defs>
<path d="M368,290c0,0,83,0,161,44c0,0,78,43,116,117V822H382c0,0,136,-107,136,-225c0,0,0,-74,-55,-131c0,0,-55,-57,-165,-83c0,0,15,-48,44,-91l26,-2ZM819,-65L645,29V139c0,0,-60,-31,-130,-31c0,0,-145,0,-279,109c0,0,-134,108,-208,287l29,78c0,0,128,15,181,43c0,0,54,27,54,73c0,0,0,61,-96,124H0L-86,937l32,64H1004l87,-115l-32,-64H787L889,749V-31L819,-65Z"
id="f5_c0"
transform="scale(0.001,-0.001)"/>

<path d="M756,-314c0,0,-304,57,-481,187C275,-127,98,2,98,170c0,0,0,117,82,197c0,0,-110,91,-110,195c0,0,0,74,64,127c0,0,63,54,188,54H567v79H0L-86,937l32,64H906L992,886L959,822H684L787,749V535H383c0,0,-110,0,-110,-67c0,0,0,-19,10,-36c0,0,78,32,174,32c0,0,162,0,277,-87c0,0,115,-87,115,-214c0,0,0,-143,-142,-228L518,76c0,0,125,94,145,173c0,0,-55,26,-113,26c0,0,-84,0,-144,-45c0,0,-59,-45,-59,-118c0,0,0,-107,121,-166c0,0,120,-60,336,-105L756,-314Z"
id="f5_cc"
transform="scale(0.001,-0.001)"/>

<path d="M-272,872l-211,214c0,0,-64,61,-138,61c0,0,-70,0,-195,-74l-115,204c0,0,121,86,223,86c0,0,133,0,266,-155l156,-190l-84,209c0,0,-49,119,-100,170c0,0,-50,51,-129,51c0,0,-66,0,-165,-36l-92,243c0,0,105,41,189,41c0,0,240,0,375,-344L-143,923L-272,872Z"
id="f5_d5"
transform="scale(0.001,-0.001)"/>

<path d="M394,379c0,0,57,0,107,30c0,0,51,29,77,86V822H214L318,749V403c0,0,29,-24,76,-24ZM752,-65L578,29V188c0,0,-43,-18,-89,-18c0,0,-138,0,-282,130C207,300,63,431,60,567V822H0L-86,937l32,64H937l87,-115L992,822H720L822,749V-31L752,-65Z"
id="f5_bv"
transform="scale(0.001,-0.001)"/>

<path d="M277,-65L102,29V822H0L-86,937l32,64H463L548,886L516,822H244L347,749V-31L277,-65Z"
id="f5_ct"
transform="scale(0.001,-0.001)"/>

<path d="M371,296c0,0,71,0,139,34c0,0,69,34,109,92v90c0,0,-72,36,-148,36c0,0,-84,0,-131,-47c0,0,-47,-47,-47,-111c0,0,0,-49,28,-89l50,-5ZM793,-65L619,29V134c0,0,-55,-27,-122,-27c0,0,-98,0,-207,48c0,0,-108,48,-182,132c0,0,-73,84,-73,188c0,0,0,113,83,191c0,0,84,78,212,78c0,0,41,0,84,-9L619,643V822H0L-86,937l32,64H978l85,-115l-32,-64H761L863,749V-31L793,-65Z"
id="f5_c7"
transform="scale(0.001,-0.001)"/>

<path d="M746,-65L571,29V419H376V260L275,212c0,0,-87,48,-160,148c0,0,-72,100,-91,193l57,84H571V822H0L-86,937l32,64H930l88,-115L985,822H713L816,749V-31L746,-65Z"
id="f5_bt"
transform="scale(0.001,-0.001)"/>

<path d="M874,-65L700,29V309H513V173L422,122c0,0,-90,31,-191,129c0,0,-100,97,-127,184l52,81H277l-2,240c0,0,0,77,-26,109c0,0,-1,0,-2,0c-8,0,-44,-1,-70,-22c0,0,-29,-24,-29,-61c0,0,0,-53,64,-101L125,610c0,0,-174,117,-174,238c0,0,0,78,57,133c0,0,59,55,146,55c0,0,132,0,244,-112c0,0,112,-113,112,-246V516H700V822H655L570,937l32,64h458l86,-115l-32,-64H842L944,749V-31L874,-65Z"
id="f5_by"
transform="scale(0.001,-0.001)"/>

<path d="M102,-509L-71,-274c0,0,-93,116,-185,116c0,0,-61,0,-102,-39c0,0,-41,-39,-41,-89c0,0,0,-32,20,-52l171,105L-85,-389c0,0,-88,-94,-195,-94c0,0,-113,0,-206,86c0,0,-94,86,-94,196c0,0,0,101,81,174c0,0,80,71,193,71c0,0,174,0,338,-206c0,0,60,-74,182,-254L102,-509Z"
id="f5_cx"
transform="scale(0.001,-0.001)"/>

<path d="M289,-65L115,29V822H0L-86,937l32,64H115c0,0,-98,102,-98,224c0,0,0,133,101,215c0,0,102,82,262,82c0,0,155,0,359,-94c0,0,205,-94,437,-311l-76,-98c0,0,-354,281,-617,281c0,0,-113,0,-187,-48c0,0,-73,-48,-73,-134c0,0,0,-53,41,-117H463L548,886L516,822H257L359,749V-31L289,-65Z"
id="f5_cu"
transform="scale(0.001,-0.001)"/>

<path d="M686,512V822H333L435,749l2,-237ZM860,-65L686,29V298H440V168L348,118c0,0,-90,30,-190,128c0,0,-100,98,-127,183l52,83H203L189,822H0L-86,937l32,64H1045l86,-115l-33,-64H828L930,749V-31L860,-65Z"
id="f5_bz"
transform="scale(0.001,-0.001)"/>

<path d="M374,248c0,0,77,0,149,36c0,0,71,37,110,107V822H284c0,0,138,-96,138,-208c0,0,0,-151,-228,-192c0,0,29,-104,89,-158c0,0,41,-16,91,-16ZM723,-49L633,8V200c0,0,-69,-56,-170,-56c0,0,-122,0,-240,94c0,0,-118,94,-179,237l20,55c0,0,133,17,187,44c0,0,55,28,55,84c0,0,0,45,-30,81c0,0,-30,36,-99,83H0l-45,76l14,31H897l46,-76L929,822H694l65,-58V-39L723,-49Z"
id="f6_c0"
transform="scale(0.001,-0.001)"/>

<path d="M688,-243c0,0,-256,53,-408,173c0,0,-152,119,-152,270c0,0,0,101,68,171c0,0,-101,84,-101,179c0,0,0,64,53,112c0,0,54,47,191,47H587V822H0l-45,76l14,31H830l45,-76L862,822H640l66,-58V585H362c0,0,-159,-1,-159,-92c0,0,0,-41,46,-80c0,0,76,47,183,47c0,0,135,0,230,-76c0,0,96,-75,96,-187C758,197,758,67,629,2L545,104c0,0,49,30,81,75c0,0,32,44,32,82c0,0,0,16,-4,26c0,0,-64,58,-167,58c0,0,-97,0,-166,-50v-2c0,0,-67,-52,-67,-131c0,0,0,-116,132,-199c0,0,132,-84,334,-132l-32,-74Z"
id="f6_cc"
transform="scale(0.001,-0.001)"/>

<path d="M-214,860l-227,219c0,0,-73,70,-148,70c0,0,-67,0,-160,-58l-72,117c0,0,83,71,176,71c0,0,120,0,232,-124L-221,940l-102,294c0,0,-64,179,-189,179c0,0,-60,0,-133,-33l-60,125c0,0,84,47,164,47c0,0,200,0,281,-276L-150,901l-23,-15l-41,-26Z"
id="f6_d5"
transform="scale(0.001,-0.001)"/>

<path d="M388,325c0,0,58,0,112,31c0,0,53,31,84,86V822H165l69,-58V408c0,0,47,-83,154,-83ZM674,-49L584,8V257c0,0,-61,-51,-141,-51c0,0,-125,0,-232,109c0,0,-107,108,-107,243V822H0l-45,76l14,31H848l46,-76L880,822H645l65,-58V-39L674,-49Z"
id="f6_bv"
transform="scale(0.001,-0.001)"/>

<path d="M228,-49L138,8V822H0l-45,76l14,31H402l46,-76L434,822H199l65,-58V-39L228,-49Z"
id="f6_ct"
transform="scale(0.001,-0.001)"/>

<path d="M325,240c0,0,77,0,154,35c0,0,77,35,120,99V500c0,0,-118,73,-222,73c0,0,-97,0,-151,-54c0,0,-53,-53,-53,-128c0,0,0,-73,49,-125c0,0,38,-26,103,-26ZM689,-49L599,8V199c0,0,-73,-65,-179,-65c0,0,-134,0,-252,96c0,0,-118,95,-118,221c0,0,0,102,78,171c0,0,78,69,190,69c0,0,38,0,75,-10L599,582V822H0l-45,76l14,31H863l46,-76L895,822H660l66,-58V-39L689,-49Z"
id="f6_c7"
transform="scale(0.001,-0.001)"/>

<path d="M663,-49L573,8V445H299V280L226,251c0,0,-105,99,-162,238l63,72H573V822H0l-45,76l14,31H837l46,-76L869,822H634l66,-58V-39L663,-49Z"
id="f6_bt"
transform="scale(0.001,-0.001)"/>

<path d="M823,-49L733,8V339H445V191L371,160c0,0,-56,36,-120,105c0,0,-63,70,-89,131l41,59H313V735c0,0,0,99,-55,140c0,0,-3,1,-8,1c-16,0,-48,-3,-71,-23c0,0,-31,-26,-31,-66c0,0,0,-69,81,-113L189,620C189,620,31,720,31,828c0,0,0,61,45,99c0,0,46,37,109,37c0,0,96,0,173,-86c0,0,76,-87,79,-194V455H733V822H556l-46,76l14,31H998l45,-76l-13,-31H794l66,-58V-39L823,-49Z"
id="f6_by"
transform="scale(0.001,-0.001)"/>

<path d="M108,-433L-59,-214c0,0,-99,119,-191,119c0,0,-59,0,-96,-35c0,0,-36,-34,-36,-81c0,0,0,-49,42,-83l152,95l64,-116c0,0,-71,-58,-148,-58c0,0,-80,0,-146,63c0,0,-65,64,-65,144c0,0,0,77,62,131c0,0,61,53,142,53c0,0,138,0,296,-205L165,-393l-57,-40Z"
id="f6_cx"
transform="scale(0.001,-0.001)"/>

<path d="M228,-49L138,8V822H0l-45,76l14,31H134c0,0,-91,93,-91,202c0,0,0,105,85,170c0,0,86,65,236,65c0,0,340,0,742,-350l-50,-46c0,0,-182,135,-340,208c0,0,-158,73,-302,73c0,0,-113,0,-183,-48c0,0,-69,-48,-69,-132c0,0,0,-63,53,-142H402l46,-76L434,822H199l65,-58V-39L228,-49Z"
id="f6_nt"
transform="scale(0.001,-0.001)"/>

<path d="M689,445V822H286l65,-58l8,-319ZM779,-49L689,8V328H370V180L296,150c0,0,-56,35,-120,104c0,0,-63,70,-89,131l41,60H238L223,822H0l-45,76l14,31H953l46,-76L985,822H750l66,-58V-39L779,-49Z"
id="f6_bz"
transform="scale(0.001,-0.001)"/>

<path d="M108,-222l-44,58c0,0,96,81,104,164L89,61c0,0,12,83,93,122c0,0,50,-15,79,-55c0,0,29,-39,29,-90c0,0,0,-69,-48,-142c0,0,-48,-72,-134,-118Z"
id="f6_k"
transform="scale(0.001,-0.001)"/>

<path d="M-233,1021c0,0,-84,0,-168,55c0,0,-84,56,-146,162l51,50c0,0,95,-162,219,-162c0,0,125,0,160,157L-7,1234c0,0,-21,-103,-81,-158c0,0,-61,-55,-145,-55Zm-41,201c0,0,-66,25,-102,80c0,0,32,68,82,101c0,0,55,-20,99,-80c0,0,-26,-67,-79,-101Z"
id="f6_di"
transform="scale(0.001,-0.001)"/>

<path d="M348,229c0,0,57,0,106,17L263,559c0,0,-95,-50,-95,-162c0,0,0,-75,52,-136c0,0,49,-32,128,-32Zm170,48c0,0,61,38,96,91V504c0,0,-131,80,-244,80l-35,-2L518,277ZM704,-49L614,8V193c0,0,-84,-65,-192,-65c0,0,-139,0,-255,98c0,0,-115,98,-115,226c0,0,0,106,77,175c0,0,77,70,189,70c0,0,38,0,75,-9L614,578V822H0l-45,76l14,31H878l46,-76L911,822H675l66,-58V-39L704,-49Z"
id="f6_bx"
transform="scale(0.001,-0.001)"/>

<path d="M527,-71L52,414l34,92H277c0,0,12,32,12,72V822H0l-45,76l14,31H599l46,-76L631,822H350l66,-55V564c0,0,0,-96,-152,-248L610,34L611,8L527,-71Z"
id="f6_c1"
transform="scale(0.001,-0.001)"/>

<path d="M92,380L46,457l14,30H448l45,-76L480,380Z"
id="f6_pd"
transform="scale(0.001,-0.001)"/>

<path d="M959,-49L869,8V367c0,0,-32,-13,-64,-13c0,0,-50,0,-110,25c0,0,23,-52,23,-109c0,0,0,-103,-70,-170c0,0,-70,-66,-182,-66c0,0,-110,0,-222,82c0,0,-111,83,-213,293l68,42c0,0,72,-155,152,-231c0,0,81,-76,178,-76c0,0,83,0,131,49c0,0,48,48,48,117c0,0,0,54,-30,100c0,0,-31,47,-91,65L325,391L257,512c0,0,68,53,156,56c0,0,140,72,140,179c0,0,0,69,-52,99c0,0,-4,1,-11,1c-19,0,-66,-4,-123,-30c0,0,-78,-35,-142,-96L150,823c0,0,119,117,253,117c0,0,98,0,175,-71c0,0,77,-70,77,-159c0,0,0,-103,-94,-180c0,0,39,-23,73,-56c0,0,52,-22,109,-22c0,0,77,0,126,38V822H727l-46,76l14,31h840l46,-76l-13,-31H1332l66,-58V-39l-37,-10L1271,8V822H930l66,-58V-39L959,-49Z"
id="f6_am"
transform="scale(0.001,-0.001)"/>

<path d="M799,475V822H350l66,-55V564c0,0,0,-43,-25,-89ZM527,-71L52,414l34,92H277c0,0,12,32,12,72V822H0l-45,76l14,31H1063l46,-76l-14,-31H860l66,-58V-39L889,-49L799,8V370H315L264,316L610,34L611,8L527,-71Z"
id="f6_cb"
transform="scale(0.001,-0.001)"/>

<path d="M0,822l-45,76l14,31H61l46,-76L93,822Z"
id="f6_no"
transform="scale(0.001,-0.001)"/>

<path d="M768,-49L678,8V202c0,0,-73,-58,-172,-58c0,0,-123,0,-240,94c0,0,-118,94,-179,237l20,55c0,0,134,12,215,70c0,0,81,57,81,141c0,0,0,90,-67,134l-26,3c0,0,-46,0,-74,-29c0,0,-28,-30,-28,-68c0,0,0,-55,82,-109L252,620C252,620,93,720,93,820c0,0,0,65,47,104c0,0,46,40,114,40c0,0,99,0,179,-83c0,0,80,-83,82,-197c0,0,0,-93,-79,-165c0,0,-78,-73,-199,-97c0,0,29,-104,88,-158c0,0,42,-16,92,-16c0,0,78,0,151,38c0,0,74,38,110,111V822H553l-46,76l14,31H943l45,-76L975,822H739l66,-58V-39L768,-49Z"
id="f6_bq"
transform="scale(0.001,-0.001)"/>

<path d="M283,260c0,0,122,0,209,113V513c0,0,-90,51,-160,51c0,0,-80,0,-129,-50c0,0,-49,-50,-49,-118c0,0,0,-60,35,-110c0,0,45,-26,94,-26ZM582,-49L492,8V211c0,0,-63,-54,-141,-54c0,0,-113,0,-213,92c0,0,-100,92,-100,205c0,0,0,93,69,157c0,0,69,64,162,64c0,0,32,0,64,-9L492,590V822H0l-45,76l14,31H1108l45,-76l-13,-31H553l66,-58V524c0,0,91,89,192,89c0,0,98,0,171,-79c0,0,72,-79,72,-186c0,0,0,-178,-224,-330L736,124c0,0,219,153,219,269c0,0,0,44,-26,75c0,0,-26,32,-81,32c0,0,-109,0,-229,-155V-39L582,-49Z"
id="f6_b9"
transform="scale(0.001,-0.001)"/>

<path d="M-214,863l-199,281c0,0,-70,92,-157,92c0,0,-69,0,-159,-58l-72,118c0,0,89,73,180,73c0,0,141,0,258,-170L-155,901l-59,-38Z"
id="f6_d4"
transform="scale(0.001,-0.001)"/>

<path d="M825,-49L735,8V217c0,0,-86,-72,-197,-72c0,0,-130,0,-238,91c0,0,-107,91,-107,204c0,0,0,55,27,105H55L12,616l14,30H574l46,-76L607,539H396c0,0,-78,-49,-78,-162c0,0,0,-70,40,-111c0,0,39,-15,94,-15c0,0,84,0,163,41c0,0,79,41,120,121V822H0l-45,76l14,31H999l46,-76l-14,-31H796l66,-58V-39L825,-49Z"
id="f6_be"
transform="scale(0.001,-0.001)"/>

<path d="M342,324c0,0,45,0,75,34c0,0,31,33,31,100V822H165l66,-58V390c0,0,32,-66,111,-66ZM853,-49L762,8V822H509l65,-58V455c0,0,0,-134,-51,-185c0,0,-52,-52,-127,-52c0,0,-98,0,-195,99c0,0,-97,99,-97,209V822H0l-45,76l14,31H1027l46,-76l-14,-31H823l66,-58V-39L853,-49Z"
id="f6_bo"
transform="scale(0.001,-0.001)"/>

<path d="M228,-49L138,8V822H0l-45,76l14,31H119L-33,1144c0,0,-70,92,-157,92c0,0,-69,0,-159,-58l-72,118c0,0,89,73,181,73c0,0,140,0,257,-170L205,929H402l46,-76L434,822H199l65,-58V-39L228,-49Z"
id="f6_d8"
transform="scale(0.001,-0.001)"/>

<path d="M0,1062c0,0,-26,11,-60,36c0,0,-34,26,-51,49c0,0,39,81,91,110c0,0,60,-23,106,-85c0,0,-28,-70,-86,-110Z"
id="f6_dj"
transform="scale(0.001,-0.001)"/>

<path d="M-91,1001c0,0,-27,10,-61,36c0,0,-33,26,-50,49c0,0,38,81,90,110c0,0,61,-23,107,-85c0,0,-28,-71,-86,-110ZM-214,863l-199,281c0,0,-70,92,-157,92c0,0,-69,0,-159,-58l-72,118c0,0,89,73,180,73c0,0,141,0,258,-170L-155,901l-59,-38Z"
id="f6_oz"
transform="scale(0.001,-0.001)"/>

<path d="M252,385l310,78l22,-9c0,0,107,-43,200,-43c0,0,91,0,151,41V822H603l66,-58V585H373c0,0,-184,0,-184,-99c0,0,0,-48,63,-101ZM483,-305L295,-10c0,0,-90,22,-156,74l41,170h66L351,63c0,0,126,4,207,62c0,0,82,58,82,139c0,0,0,37,-18,71L365,266c0,0,-110,15,-197,102c0,0,-87,87,-87,176c0,0,0,69,59,117c0,0,59,48,172,48H550V822H0l-45,76l14,31H1199l46,-76l-14,-31H996l66,-58V-39l-37,-10L935,8V318c0,0,-41,-15,-78,-15c0,0,-52,0,-131,30c0,0,32,-55,32,-111c0,0,0,-109,-98,-179c0,0,-98,-69,-254,-69L599,-216L483,-305Z"
id="f6_bh"
transform="scale(0.001,-0.001)"/>

<path d="M-253,-363c0,0,-194,0,-440,288l48,52c0,0,108,-118,192,-176c0,0,83,-58,159,-58c0,0,64,0,101,36c0,0,37,37,37,85c0,0,0,68,-65,91L-327,-152l-83,89c0,0,54,86,153,86c0,0,81,0,140,-61c0,0,58,-62,58,-146c0,0,0,-78,-55,-128c0,0,-55,-51,-139,-51Z"
id="f6_oe"
transform="scale(0.001,-0.001)"/>

<path d="M845,-49L755,8V513H497c0,0,61,-45,93,-110c0,0,33,-64,33,-128c0,0,0,-90,-58,-144c0,0,-59,-53,-143,-53c0,0,-133,0,-234,139C188,217,87,356,20,596l76,24c0,0,60,-201,127,-306c0,0,67,-105,160,-105c0,0,57,0,91,36c0,0,33,36,33,91c0,0,0,84,-73,159L295,558v71H755V822H0l-45,76l14,31H1019l46,-76l-14,-31H816l66,-58V-39L845,-49Z"
id="f6_bg"
transform="scale(0.001,-0.001)"/>

<path d="M226,-49c0,0,-66,24,-102,78c0,0,32,69,82,101c0,0,55,-20,100,-80c0,0,-26,-66,-80,-99Z"
id="f6_pc"
transform="scale(0.001,-0.001)"/>

<path d="M347,-57C347,-57,66,211,66,394c0,0,0,98,74,164c0,0,74,65,225,65H616V822H0l-45,76l14,31H880l46,-76L912,822H677l66,-58V-39L706,-49L616,8V500H428c0,0,-239,0,-239,-161c0,0,0,-136,214,-343L347,-57Z"
id="f6_bp"
transform="scale(0.001,-0.001)"/>

<path d="M527,-71L52,414l34,92H277c0,0,12,32,12,72V822H0l-45,76l14,31H654l46,-76L686,822H350l66,-55V564c0,0,0,-43,-25,-89H782L798,370H315L264,316L610,34L611,8L527,-71Z"
id="f6_m1"
transform="scale(0.001,-0.001)"/>

<path d="M-234,-413c0,0,-210,0,-488,322l54,49c0,0,119,-128,209,-193c0,0,90,-65,177,-65c0,0,72,0,113,40c0,0,42,39,42,91c0,0,0,75,-78,106L-323,-181l-90,98c0,0,63,95,167,95c0,0,90,0,155,-69c0,0,66,-70,66,-164c0,0,0,-85,-60,-139c0,0,-61,-53,-149,-53Z"
id="f6_cw"
transform="scale(0.001,-0.001)"/>

<path d="M487,-7c0,0,-88,0,-185,46c0,0,-97,47,-163,130c0,0,-66,83,-66,185c0,0,0,109,80,177c0,0,79,68,234,68H504V822H0l-45,76l14,31H827l45,-76L859,822H565l66,-58V474l-3,1l3,-3H396c0,0,-100,0,-152,-47c0,0,-53,-48,-53,-119c0,0,0,-104,93,-178c0,0,60,-20,118,-20c0,0,81,0,156,36c0,0,76,35,123,99l92,-99C773,144,723,70,645,31C645,31,567,-7,487,-7Z"
id="f6_bk"
transform="scale(0.001,-0.001)"/>

<path d="M336,319c0,0,112,0,112,152V822H165l66,-58V374c0,0,33,-55,105,-55ZM396,218c0,0,-93,0,-192,86c0,0,-99,86,-100,182V822H0l-45,76l14,31H645l46,-76L677,822H509l65,-58V455c0,0,0,-134,-51,-185c0,0,-52,-52,-127,-52Z"
id="f6_lc"
transform="scale(0.001,-0.001)"/>

<path d="M548,-57c0,0,-122,0,-243,81c0,0,-122,81,-252,280l57,41C110,345,283,64,498,64c0,0,92,0,153,49c0,0,61,49,61,121c0,0,0,46,-28,84L440,237c0,0,-73,11,-139,55c0,0,-66,44,-105,105c0,0,-40,61,-40,119c0,0,0,72,62,125c0,0,62,53,184,53H625V822H0l-45,76l14,31H906l46,-76L938,822H678l66,-58V562H431c0,0,-164,0,-164,-99c0,0,0,-55,57,-102l261,82c0,0,104,-21,172,-98c0,0,68,-78,68,-171c0,0,0,-99,-76,-166c0,0,-77,-65,-201,-65Z"
id="f6_bm"
transform="scale(0.001,-0.001)"/>

<path d="M413,-59C413,-59,53,193,53,416c0,0,0,97,66,164c0,0,66,66,156,66c0,0,61,0,110,-30L487,507c0,0,92,126,257,126l35,-2V822H0l-45,76l14,31H1043l46,-76l-13,-31H840l66,-58V-39L869,-49L779,8V547c0,0,-101,-5,-165,-90c0,0,-64,-86,-70,-222L507,225l-90,73c0,0,5,79,35,151c0,0,-59,66,-128,66c0,0,-57,0,-100,-38c0,0,-44,-39,-44,-109c0,0,0,-165,284,-360L413,-59Z"
id="f6_c3"
transform="scale(0.001,-0.001)"/>

<path d="M527,-71L52,414l34,92H277c0,0,12,32,12,72V822H0l-45,76l14,31H940l45,-76L972,822H350l66,-55V570c0,0,146,98,247,98c0,0,95,0,167,-73c0,0,71,-72,71,-167c0,0,0,-77,-53,-142c0,0,-54,-64,-159,-136l-89,99c0,0,100,70,152,121c0,0,52,52,52,105c0,0,0,34,-23,60c0,0,-22,26,-72,26c0,0,-139,0,-434,-252L610,34L611,8L527,-71Z"
id="f6_n0"
transform="scale(0.001,-0.001)"/>

<path d="M727,-49L637,8V822H278l66,-58V226L270,196c0,0,-64,36,-122,98c0,0,-58,62,-79,122l43,59H217V822H0l-45,76l14,31H901l46,-76L933,822H698l66,-58V-39L727,-49Z"
id="f6_bb"
transform="scale(0.001,-0.001)"/>

<path d="M228,-49L138,8V822H0l-45,76l14,31H138c0,0,-109,342,-284,342c0,0,-62,0,-102,-40c0,0,-40,-39,-40,-93c0,0,0,-61,51,-134l-42,-32c0,0,-128,113,-128,226c0,0,0,79,60,136c0,0,61,56,154,56c0,0,137,0,249,-125c0,0,112,-125,169,-336H402l46,-76L434,822H199l65,-58V-39L228,-49Z"
id="f6_cv"
transform="scale(0.001,-0.001)"/>

<path d="M959,-49L869,8V367c0,0,-32,-13,-64,-13c0,0,-50,0,-110,25c0,0,23,-52,23,-109c0,0,0,-103,-70,-170c0,0,-70,-66,-182,-66c0,0,-110,0,-222,82c0,0,-111,83,-213,293l68,42c0,0,72,-155,152,-231c0,0,81,-76,178,-76c0,0,83,0,131,49c0,0,48,48,48,117c0,0,0,54,-30,100c0,0,-31,47,-91,65L325,391L257,512c0,0,68,53,156,56c0,0,140,72,140,179c0,0,0,69,-52,99c0,0,-4,1,-11,1c-19,0,-66,-4,-123,-30c0,0,-78,-35,-142,-96L150,823c0,0,119,117,253,117c0,0,98,0,175,-71c0,0,77,-70,77,-159c0,0,0,-103,-94,-180c0,0,39,-23,73,-56c0,0,52,-22,109,-22c0,0,77,0,126,38V822H727l-46,76l14,31h439l45,-76l-13,-31H930l66,-58V-39L959,-49Z"
id="f6_al"
transform="scale(0.001,-0.001)"/>

<path d="M-239,897c0,0,-82,61,-132,137c0,0,-50,75,-50,150c0,0,0,78,52,133c0,0,52,55,141,55c0,0,98,0,176,-64l-23,-69c0,0,-52,32,-104,32c0,0,-57,0,-95,-36c0,0,-38,-36,-38,-95c0,0,0,-115,117,-217l-44,-26Z"
id="f6_dr"
transform="scale(0.001,-0.001)"/>

<path d="M228,-49L138,8V822H0l-45,76l14,31H134c0,0,-91,92,-91,191c0,0,0,105,85,170c0,0,84,65,219,65c0,0,128,0,293,-76c0,0,165,-77,362,-263L958,966c0,0,-177,143,-303,210c0,0,-125,68,-244,68c0,0,-107,0,-175,-50c0,0,-68,-50,-68,-131c0,0,0,-61,49,-134H402l46,-76L434,822H199l65,-58V-39L228,-49Z"
id="f6_cu"
transform="scale(0.001,-0.001)"/>

<path d="M675,-274L602,21C602,21,550,3,498,3C498,3,347,3,210,118C210,118,73,232,73,373c0,0,0,113,84,184c0,0,84,71,222,72H524V822H0l-45,76l14,31H834l46,-76L866,822H585l66,-58V504l-3,2l3,-3H408c0,0,-95,0,-154,-53c0,0,-58,-53,-58,-132c0,0,0,-49,27,-100c0,0,28,-50,83,-84c0,0,44,-15,96,-15c0,0,91,0,160,46L535,303l101,48L773,188c0,0,-8,-28,-34,-66c0,0,-27,-38,-62,-64L813,-221L675,-274Z"
id="f6_br"
transform="scale(0.001,-0.001)"/>

<path d="M438,206c0,0,-119,0,-226,109c0,0,-108,108,-108,243V822H0l-45,76l14,31H542l46,-76L574,822H165l66,-58V408c0,0,46,-86,151,-86c0,0,61,0,119,32c0,0,58,33,95,91L669,338c0,0,-44,-66,-108,-99c0,0,-63,-33,-123,-33Z"
id="f6_ll"
transform="scale(0.001,-0.001)"/>

<path d="M228,-49L138,8V822H0l-45,76l14,31H134c0,0,-91,93,-91,200c0,0,0,109,92,174c0,0,93,66,253,66c0,0,186,0,398,-89c0,0,212,-90,430,-264l-49,-47c0,0,-424,285,-727,285c0,0,-125,0,-201,-49c0,0,-76,-48,-76,-137c0,0,0,-67,52,-139H402l46,-76L434,822H199l65,-58V-39L228,-49Z"
id="f6_nu"
transform="scale(0.001,-0.001)"/>

<path d="M513,460c0,0,61,81,61,179c0,0,0,87,-45,143c0,0,-45,57,-116,57c0,0,-63,0,-102,-43c0,0,-39,-43,-39,-110c0,0,0,-90,68,-151c0,0,68,-61,173,-75ZM581,-83L278,167l-41,-4c0,0,-99,0,-130,37l47,168l51,12l78,-79c0,0,110,40,183,105c0,0,-141,23,-231,107c0,0,-90,84,-90,193c0,0,0,69,37,116H0l-45,76l14,31H1134l45,-76l-13,-31H930l66,-58V-39L959,-49L869,8V822H588c0,0,51,-44,75,-109c0,0,25,-64,25,-122c0,0,0,-105,-81,-213c0,0,-80,-108,-240,-176L658,18l2,-25L581,-83Z"
id="f6_c8"
transform="scale(0.001,-0.001)"/>

<path d="M180,196c0,0,-105,99,-162,238l63,72H573l40,-86L591,390H254V225L180,196ZM0,822l-45,76l14,31H409l46,-76L442,822Z"
id="f6_lj"
transform="scale(0.001,-0.001)"/>

<path d="M725,307c0,0,-95,0,-218,78c0,0,-123,78,-188,78c0,0,-54,0,-95,-34c0,0,-41,-34,-73,-100L93,362c0,0,38,88,101,146c0,0,63,59,148,59c0,0,90,0,214,-78c0,0,124,-79,188,-79c0,0,63,0,106,34c0,0,42,33,85,104l60,-40c0,0,-32,-66,-101,-134c0,0,-70,-67,-169,-67Z"
id="f7_4r"
transform="scale(0.001,-0.001)"/>

<path d="M435,0V856c0,0,-48,-47,-127,-93c0,0,-79,-46,-142,-69V824c0,0,113,52,197,128c0,0,85,75,120,146h86V0Z"
id="f8_l"
transform="scale(0.001,-0.001)"/>

<path d="M494,385V878L152,385ZM494,0V262H20V385l498,708H628V385H775V262H628V0Z"
id="f8_o"
transform="scale(0.001,-0.001)"/>


</defs>
</svg>