<?xml version="1.0" encoding="UTF-8" standalone="no"?>
<!DOCTYPE svg PUBLIC "-//W3C//DTD SVG 1.1//EN"
"http://www.w3.org/Graphics/SVG/1.1/DTD/svg11.dtd">
<svg viewBox="0 0 641 910" version="1.1" xmlns="http://www.w3.org/2000/svg" xmlns:xlink="http://www.w3.org/1999/xlink">
<defs>
<clipPath id="c0_66"><path d="M0,909.8V0H641.7V909.8Z"/></clipPath>
<clipPath id="c1_66"><path d="M0,908.6V0H641.7V908.6Z"/></clipPath>
<style type="text/css"><![CDATA[
.g0_66{
fill: #FFFFFF;
}
.g1_66{
}
]]></style>
</defs>
<path d="M0,0H641.7V909.8H0V0Z" class="g0_66"/>
<path d="M0,0H641.7V909.8H0V0Z" class="g0_66"/>
<g clip-path="url(#c0_66)">
<path d="M0,-53677.6H641.7V52767.9H0V-53677.6Z" class="g0_66"/>
</g>
<path d="M0,0H641.7V908.6H0V0Z" class="g0_66"/>
<path d="M19.5,60.7H602.7v1.2H19.5V60.7Z" class="g1_66"/>
<g clip-path="url(#c1_66)">
<path d="M0,61.9H641.7V909.8H0V61.9Z" class="g0_66"/>
<g fill="#000000" >
<use xlink:href="#f5_bp" transform="matrix(14,0,0,14,228.3,82.5)" />
<use xlink:href="#f5_d4" transform="matrix(14,0,0,14,241.7,82.5)" />
<use xlink:href="#f5_c1" transform="matrix(14,0,0,14,241.7,82.5)" />
<use xlink:href="#f5_cv" transform="matrix(14,0,0,14,251.9,82.5)" />
<use xlink:href="#f5_bf" transform="matrix(14,0,0,14,264.1,82.5)" />
<use xlink:href="#f5_bp" transform="matrix(14,0,0,14,280.9,82.5)" />
<use xlink:href="#f5_c1" transform="matrix(14,0,0,14,294.4,82.5)" />
<use xlink:href="#f5_cv" transform="matrix(14,0,0,14,304.6,82.5)" />
<use xlink:href="#f5_b9" transform="matrix(14,0,0,14,316.7,82.5)" />
<use xlink:href="#f5_d4" transform="matrix(14,0,0,14,329.4,82.5)" />
<use xlink:href="#f5_cu" transform="matrix(14,0,0,14,339.8,82.5)" />
<use xlink:href="#f5_bt" transform="matrix(14,0,0,14,346.3,82.5)" />
<use xlink:href="#f5_be" transform="matrix(14,0,0,14,359.3,82.5)" />
<use xlink:href="#f5_d4" transform="matrix(14,0,0,14,374.6,82.5)" />
<use xlink:href="#f5_n5" transform="matrix(14,0,0,14,380.3,82.5)" />
<use xlink:href="#f5_di" transform="matrix(14,0,0,14,392.8,82.6)" />
</g>
<g fill="#222222" >
<use xlink:href="#f6_bf" transform="matrix(14,0,0,14,120.6,144.4)" />
<use xlink:href="#f6_ct" transform="matrix(14,0,0,14,136.3,144.4)" />
<use xlink:href="#f6_c0" transform="matrix(14,0,0,14,142,144.4)" />
<use xlink:href="#f6_cv" transform="matrix(14,0,0,14,154.5,144.4)" />
<use xlink:href="#f6_b9" transform="matrix(14,0,0,14,165.8,144.4)" />
<use xlink:href="#f6_ct" transform="matrix(14,0,0,14,181.3,144.4)" />
<use xlink:href="#f6_c3" transform="matrix(14,0,0,14,186.9,144.4)" />
<use xlink:href="#f6_cv" transform="matrix(14,0,0,14,201.6,144.4)" />
<use xlink:href="#f6_bc" transform="matrix(14,0,0,14,212.9,144.4)" />
<use xlink:href="#f6_bk" transform="matrix(14,0,0,14,226.8,144.4)" />
<use xlink:href="#f6_ct" transform="matrix(14,0,0,14,238.4,144.4)" />
<use xlink:href="#f6_cc" transform="matrix(14,0,0,14,249.6,144.4)" />
<use xlink:href="#f6_d5" transform="matrix(14,0,0,14,261.6,144.4)" />
<use xlink:href="#f6_bp" transform="matrix(14,0,0,14,266.9,144.4)" />
<use xlink:href="#f6_d8" transform="matrix(14,0,0,14,279.2,144.4)" />
<use xlink:href="#f6_ik" transform="matrix(14,0,0,14,290.5,144.4)" />
<use xlink:href="#f6_ct" transform="matrix(14,0,0,14,315.6,144.4)" />
<use xlink:href="#f6_k" transform="matrix(14,0,0,14,326.8,144.4)" />
<use xlink:href="#f6_bp" transform="matrix(14,0,0,14,332.1,144.4)" />
<use xlink:href="#f6_d4" transform="matrix(14,0,0,14,344.5,144.4)" />
<use xlink:href="#f6_c1" transform="matrix(14,0,0,14,344.4,144.4)" />
<use xlink:href="#f6_cv" transform="matrix(14,0,0,14,352.7,144.4)" />
<use xlink:href="#f6_bf" transform="matrix(14,0,0,14,364,144.4)" />
<use xlink:href="#f6_bp" transform="matrix(14,0,0,14,379.7,144.4)" />
<use xlink:href="#f6_c1" transform="matrix(14,0,0,14,392.1,144.4)" />
<use xlink:href="#f6_cv" transform="matrix(14,0,0,14,400.4,144.4)" />
<use xlink:href="#f6_b9" transform="matrix(14,0,0,14,411.7,144.4)" />
<use xlink:href="#f6_d4" transform="matrix(14,0,0,14,422.9,144.4)" />
<use xlink:href="#f6_cu" transform="matrix(14,0,0,14,432.9,144.4)" />
<use xlink:href="#f6_bt" transform="matrix(14,0,0,14,438.5,144.4)" />
<use xlink:href="#f6_be" transform="matrix(14,0,0,14,450.2,144.4)" />
<use xlink:href="#f6_d4" transform="matrix(14,0,0,14,464.3,144.4)" />
<use xlink:href="#f6_n5" transform="matrix(14,0,0,14,469.9,144.4)" />
<use xlink:href="#f6_di" transform="matrix(14,0,0,14,481.9,144.8)" />
<use xlink:href="#f6_bz" transform="matrix(14,0,0,14,487.1,144.4)" />
<use xlink:href="#f6_d5" transform="matrix(14,0,0,14,500.6,144.4)" />
<use xlink:href="#f6_am" transform="matrix(14,0,0,14,139,178.8)" />
<use xlink:href="#f6_bb" transform="matrix(14,0,0,14,160.4,178.8)" />
<use xlink:href="#f6_d4" transform="matrix(14,0,0,14,173.2,178.8)" />
<use xlink:href="#f6_pd" transform="matrix(14,0,0,14,173,178.8)" />
<use xlink:href="#f6_am" transform="matrix(14,0,0,14,180.6,178.8)" />
<use xlink:href="#f6_bb" transform="matrix(14,0,0,14,202.1,178.8)" />
<use xlink:href="#f6_d4" transform="matrix(14,0,0,14,214.8,178.8)" />
<use xlink:href="#f6_c0" transform="matrix(14,0,0,14,220.4,178.8)" />
<use xlink:href="#f6_d4" transform="matrix(14,0,0,14,233,178.8)" />
<use xlink:href="#f6_be" transform="matrix(14,0,0,14,238.6,178.8)" />
<use xlink:href="#f6_c3" transform="matrix(14,0,0,14,252.5,178.8)" />
<use xlink:href="#f6_bp" transform="matrix(14,0,0,14,267.3,178.8)" />
<use xlink:href="#f6_ct" transform="matrix(14,0,0,14,279.6,178.8)" />
<use xlink:href="#f6_bz" transform="matrix(14,0,0,14,290.9,178.8)" />
<use xlink:href="#f6_d4" transform="matrix(14,0,0,14,304.3,178.8)" />
<use xlink:href="#f6_c1" transform="matrix(14,0,0,14,304.2,178.8)" />
<use xlink:href="#f6_d4" transform="matrix(14,0,0,14,312.2,178.8)" />
<use xlink:href="#f6_by" transform="matrix(14,0,0,14,318.2,178.8)" />
<use xlink:href="#f6_d4" transform="matrix(14,0,0,14,332.3,178.8)" />
<use xlink:href="#f6_n1" transform="matrix(14,0,0,14,332.2,178.8)" />
<use xlink:href="#f6_br" transform="matrix(14,0,0,14,351,178.8)" />
<use xlink:href="#f6_ct" transform="matrix(14,0,0,14,362.7,178.8)" />
<use xlink:href="#f6_br" transform="matrix(14,0,0,14,368.3,178.8)" />
<use xlink:href="#f6_ct" transform="matrix(14,0,0,14,380,178.8)" />
<use xlink:href="#f6_b9" transform="matrix(14,0,0,14,391.3,178.8)" />
<use xlink:href="#f6_d4" transform="matrix(14,0,0,14,402.4,178.8)" />
<use xlink:href="#f6_bv" transform="matrix(14,0,0,14,412.4,178.8)" />
<use xlink:href="#f6_cv" transform="matrix(14,0,0,14,424.3,178.8)" />
<use xlink:href="#f6_bf" transform="matrix(14,0,0,14,429.9,178.8)" />
<use xlink:href="#f6_d4" transform="matrix(14,0,0,14,444.3,178.8)" />
<use xlink:href="#f6_n5" transform="matrix(14,0,0,14,451.3,178.8)" />
<use xlink:href="#f6_di" transform="matrix(14,0,0,14,463.3,179.2)" />
<use xlink:href="#f6_bz" transform="matrix(14,0,0,14,468.6,178.8)" />
<use xlink:href="#f6_d5" transform="matrix(14,0,0,14,482,178.8)" />
<use xlink:href="#f6_ap" transform="matrix(14,0,0,14,95.4,213.1)" />
<use xlink:href="#f6_cb" transform="matrix(14,0,0,14,106.8,213.1)" />
<use xlink:href="#f6_bt" transform="matrix(14,0,0,14,121.7,213.1)" />
<use xlink:href="#f6_d4" transform="matrix(14,0,0,14,133.5,213.1)" />
<use xlink:href="#f6_bv" transform="matrix(14,0,0,14,139,213.1)" />
<use xlink:href="#f6_b9" transform="matrix(14,0,0,14,150.9,213.1)" />
<use xlink:href="#f6_ch" transform="matrix(14,0,0,14,166.4,213.1)" />
<use xlink:href="#f6_ct" transform="matrix(14,0,0,14,179.1,213.1)" />
<use xlink:href="#f6_pd" transform="matrix(14,0,0,14,190.4,213.1)" />
<use xlink:href="#f6_g" transform="matrix(14,0,0,14,197.9,213.1)" />
<use xlink:href="#f6_n8" transform="matrix(14,0,0,14,203.8,213.1)" />
<use xlink:href="#f6_h" transform="matrix(14,0,0,14,214.2,213.1)" />
<use xlink:href="#f6_bz" transform="matrix(14,0,0,14,231.4,213.1)" />
<use xlink:href="#f6_d4" transform="matrix(14,0,0,14,244.9,213.1)" />
<use xlink:href="#f6_c1" transform="matrix(14,0,0,14,244.7,213.1)" />
<use xlink:href="#f6_ct" transform="matrix(14,0,0,14,253.1,213.1)" />
<use xlink:href="#f6_cc" transform="matrix(14,0,0,14,264.4,213.1)" />
<use xlink:href="#f6_ct" transform="matrix(14,0,0,14,276,213.1)" />
<use xlink:href="#f6_no" transform="matrix(14,0,0,14,281.6,213.1)" />
<use xlink:href="#f6_bq" transform="matrix(14,0,0,14,281.6,213.1)" />
<use xlink:href="#f6_cc" transform="matrix(14,0,0,14,300.5,213.1)" />
<use xlink:href="#f6_d5" transform="matrix(14,0,0,14,312.4,213.1)" />
<use xlink:href="#f6_bp" transform="matrix(14,0,0,14,317.8,213.1)" />
<use xlink:href="#f6_d8" transform="matrix(14,0,0,14,330.1,213.1)" />
<use xlink:href="#f6_cu" transform="matrix(14,0,0,14,341.4,213.1)" />
<use xlink:href="#f6_bw" transform="matrix(14,0,0,14,347,213.1)" />
<use xlink:href="#f6_c1" transform="matrix(14,0,0,14,363.1,213.1)" />
<use xlink:href="#f6_bm" transform="matrix(14,0,0,14,377.1,213.1)" />
<use xlink:href="#f6_c1" transform="matrix(14,0,0,14,389.8,213.1)" />
<use xlink:href="#f6_bt" transform="matrix(14,0,0,14,398.2,213.1)" />
<use xlink:href="#f6_d4" transform="matrix(14,0,0,14,410,213.1)" />
<use xlink:href="#f6_b9" transform="matrix(14,0,0,14,415.5,213.1)" />
<use xlink:href="#f6_oc" transform="matrix(14,0,0,14,431,213.1)" />
<use xlink:href="#f6_ik" transform="matrix(14,0,0,14,442.3,213.1)" />
<use xlink:href="#f6_ct" transform="matrix(14,0,0,14,467.4,213.1)" />
<use xlink:href="#f6_bx" transform="matrix(14,0,0,14,478.7,213.1)" />
<use xlink:href="#f6_ct" transform="matrix(14,0,0,14,490.9,213.1)" />
<use xlink:href="#f6_bp" transform="matrix(14,0,0,14,496.6,213.1)" />
<use xlink:href="#f6_cc" transform="matrix(14,0,0,14,514.5,213.1)" />
<use xlink:href="#f6_d5" transform="matrix(14,0,0,14,526.5,213.1)" />
<use xlink:href="#f6_bp" transform="matrix(14,0,0,14,125.2,281.9)" />
<use xlink:href="#f6_d4" transform="matrix(14,0,0,14,137.6,281.9)" />
<use xlink:href="#f6_c1" transform="matrix(14,0,0,14,137.5,281.9)" />
<use xlink:href="#f6_cv" transform="matrix(14,0,0,14,145.9,281.9)" />
<use xlink:href="#f6_bz" transform="matrix(14,0,0,14,157.2,281.9)" />
<use xlink:href="#f6_cu" transform="matrix(14,0,0,14,170.5,281.9)" />
<use xlink:href="#f6_cc" transform="matrix(14,0,0,14,176.1,281.9)" />
<use xlink:href="#f6_bz" transform="matrix(14,0,0,14,187.7,281.9)" />
<use xlink:href="#f6_ct" transform="matrix(14,0,0,14,201.1,281.9)" />
<use xlink:href="#f6_b9" transform="matrix(14,0,0,14,212.4,281.9)" />
<use xlink:href="#f6_ct" transform="matrix(14,0,0,14,227.9,281.9)" />
<use xlink:href="#f6_c7" transform="matrix(14,0,0,14,239.2,281.9)" />
<use xlink:href="#f6_bo" transform="matrix(14,0,0,14,251.2,281.9)" />
<use xlink:href="#f6_dr" transform="matrix(14,0,0,14,266.1,281.9)" />
<use xlink:href="#f6_bt" transform="matrix(14,0,0,14,265.6,281.9)" />
<use xlink:href="#f6_b9" transform="matrix(14,0,0,14,283,281.9)" />
<use xlink:href="#f6_n0" transform="matrix(14,0,0,14,298.5,281.9)" />
<use xlink:href="#f6_di" transform="matrix(14,0,0,14,306.8,282.3)" />
<use xlink:href="#f6_bz" transform="matrix(14,0,0,14,317.3,281.9)" />
<use xlink:href="#f6_d4" transform="matrix(14,0,0,14,330.8,281.9)" />
<use xlink:href="#f6_c1" transform="matrix(14,0,0,14,330.6,281.9)" />
<use xlink:href="#f6_cv" transform="matrix(14,0,0,14,339,281.9)" />
<use xlink:href="#f6_c7" transform="matrix(14,0,0,14,350.3,281.9)" />
<use xlink:href="#f6_ct" transform="matrix(14,0,0,14,362.4,281.9)" />
<use xlink:href="#f6_bo" transform="matrix(14,0,0,14,368,281.9)" />
<use xlink:href="#f6_cv" transform="matrix(14,0,0,14,382.4,281.9)" />
<use xlink:href="#f6_bz" transform="matrix(14,0,0,14,393.7,281.9)" />
<use xlink:href="#f6_d5" transform="matrix(14,0,0,14,407.1,281.9)" />
<use xlink:href="#f6_c7" transform="matrix(14,0,0,14,412.7,281.9)" />
<use xlink:href="#f6_d8" transform="matrix(14,0,0,14,424.7,281.9)" />
<use xlink:href="#f6_br" transform="matrix(14,0,0,14,436,281.9)" />
<use xlink:href="#f6_bz" transform="matrix(14,0,0,14,447.7,281.9)" />
<use xlink:href="#f6_bt" transform="matrix(14,0,0,14,466.7,281.9)" />
<use xlink:href="#f6_cc" transform="matrix(14,0,0,14,478.4,281.9)" />
<use xlink:href="#f6_cv" transform="matrix(14,0,0,14,490,281.9)" />
<use xlink:href="#f6_dj" transform="matrix(14,0,0,14,494.7,282.8)" />
<use xlink:href="#f6_bg" transform="matrix(14,0,0,14,121.8,316.3)" />
<use xlink:href="#f6_bx" transform="matrix(14,0,0,14,136,316.3)" />
<use xlink:href="#f6_cb" transform="matrix(14,0,0,14,148.3,316.3)" />
<use xlink:href="#f6_d4" transform="matrix(14,0,0,14,163.3,316.3)" />
<use xlink:href="#f6_an" transform="matrix(14,0,0,14,168.9,316.3)" />
<use xlink:href="#f6_bt" transform="matrix(14,0,0,14,180.4,316.3)" />
<use xlink:href="#f6_b9" transform="matrix(14,0,0,14,192.1,316.3)" />
<use xlink:href="#f6_ct" transform="matrix(14,0,0,14,207.6,316.3)" />
<use xlink:href="#f6_cb" transform="matrix(14,0,0,14,218.9,316.3)" />
<use xlink:href="#f6_cc" transform="matrix(14,0,0,14,233.7,316.3)" />
<use xlink:href="#f6_ct" transform="matrix(14,0,0,14,245.3,316.3)" />
<use xlink:href="#f6_c1" transform="matrix(14,0,0,14,251,316.3)" />
<use xlink:href="#f6_ct" transform="matrix(14,0,0,14,259.3,316.3)" />
<use xlink:href="#f6_nt" transform="matrix(14,0,0,14,270.6,316.3)" />
<use xlink:href="#f6_bz" transform="matrix(14,0,0,14,276.3,316.3)" />
<use xlink:href="#f6_c3" transform="matrix(14,0,0,14,289.6,316.3)" />
<use xlink:href="#f6_ct" transform="matrix(14,0,0,14,304.3,316.3)" />
<use xlink:href="#f6_al" transform="matrix(14,0,0,14,315.6,316.3)" />
<use xlink:href="#f6_bx" transform="matrix(14,0,0,14,331.4,316.3)" />
<use xlink:href="#f6_cb" transform="matrix(14,0,0,14,349.4,316.3)" />
<use xlink:href="#f6_bp" transform="matrix(14,0,0,14,364.3,316.3)" />
<use xlink:href="#f6_ct" transform="matrix(14,0,0,14,376.6,316.3)" />
<use xlink:href="#f6_ax" transform="matrix(14,0,0,14,382.2,316.3)" />
<use xlink:href="#f6_b9" transform="matrix(14,0,0,14,399.7,316.3)" />
<use xlink:href="#f6_d8" transform="matrix(14,0,0,14,415.2,316.3)" />
<use xlink:href="#f6_ao" transform="matrix(14,0,0,14,420.9,316.3)" />
<use xlink:href="#f6_bb" transform="matrix(14,0,0,14,438,316.3)" />
<use xlink:href="#f6_bz" transform="matrix(14,0,0,14,450.6,316.3)" />
<use xlink:href="#f6_bt" transform="matrix(14,0,0,14,469.7,316.3)" />
<use xlink:href="#f6_cc" transform="matrix(14,0,0,14,481.4,316.3)" />
<use xlink:href="#f6_cv" transform="matrix(14,0,0,14,493,316.3)" />
<use xlink:href="#f6_dj" transform="matrix(14,0,0,14,497.6,317.1)" />
<use xlink:href="#f6_bz" transform="matrix(14,0,0,14,111.5,350.6)" />
<use xlink:href="#f6_d4" transform="matrix(14,0,0,14,124.9,350.6)" />
<use xlink:href="#f6_c1" transform="matrix(14,0,0,14,124.8,350.6)" />
<use xlink:href="#f6_d4" transform="matrix(14,0,0,14,132.8,350.6)" />
<use xlink:href="#f6_cb" transform="matrix(14,0,0,14,138.8,350.6)" />
<use xlink:href="#f6_c1" transform="matrix(14,0,0,14,153.7,350.6)" />
<use xlink:href="#f6_bv" transform="matrix(14,0,0,14,167.8,350.6)" />
<use xlink:href="#f6_d4" transform="matrix(14,0,0,14,179.8,350.6)" />
<use xlink:href="#f6_pd" transform="matrix(14,0,0,14,179.6,350.6)" />
<use xlink:href="#f6_g" transform="matrix(14,0,0,14,187.2,350.6)" />
<use xlink:href="#f6_n8" transform="matrix(14,0,0,14,193,350.6)" />
<use xlink:href="#f6_h" transform="matrix(14,0,0,14,203.5,350.6)" />
<use xlink:href="#f6_bp" transform="matrix(14,0,0,14,215,350.6)" />
<use xlink:href="#f6_d4" transform="matrix(14,0,0,14,227.4,350.6)" />
<use xlink:href="#f6_c1" transform="matrix(14,0,0,14,227.3,350.6)" />
<use xlink:href="#f6_ct" transform="matrix(14,0,0,14,235.7,350.6)" />
<use xlink:href="#f6_cc" transform="matrix(14,0,0,14,247,350.6)" />
<use xlink:href="#f6_ct" transform="matrix(14,0,0,14,258.6,350.6)" />
<use xlink:href="#f6_no" transform="matrix(14,0,0,14,264.2,350.6)" />
<use xlink:href="#f6_bq" transform="matrix(14,0,0,14,264.2,350.6)" />
<use xlink:href="#f6_cc" transform="matrix(14,0,0,14,283,350.6)" />
<use xlink:href="#f6_d5" transform="matrix(14,0,0,14,295,350.6)" />
<use xlink:href="#f6_bp" transform="matrix(14,0,0,14,300.3,350.6)" />
<use xlink:href="#f6_d8" transform="matrix(14,0,0,14,312.6,350.6)" />
<use xlink:href="#f6_cu" transform="matrix(14,0,0,14,323.9,350.6)" />
<use xlink:href="#f6_bw" transform="matrix(14,0,0,14,329.5,350.6)" />
<use xlink:href="#f6_c1" transform="matrix(14,0,0,14,345.6,350.6)" />
<use xlink:href="#f6_bm" transform="matrix(14,0,0,14,359.7,350.6)" />
<use xlink:href="#f6_c1" transform="matrix(14,0,0,14,372.4,350.6)" />
<use xlink:href="#f6_bt" transform="matrix(14,0,0,14,380.7,350.6)" />
<use xlink:href="#f6_d4" transform="matrix(14,0,0,14,392.6,350.6)" />
<use xlink:href="#f6_b9" transform="matrix(14,0,0,14,398.1,350.6)" />
<use xlink:href="#f6_oc" transform="matrix(14,0,0,14,413.6,350.6)" />
<use xlink:href="#f6_ik" transform="matrix(14,0,0,14,424.9,350.6)" />
<use xlink:href="#f6_ct" transform="matrix(14,0,0,14,449.9,350.6)" />
<use xlink:href="#f6_bx" transform="matrix(14,0,0,14,461.2,350.6)" />
<use xlink:href="#f6_ct" transform="matrix(14,0,0,14,473.5,350.6)" />
<use xlink:href="#f6_bp" transform="matrix(14,0,0,14,479.1,350.6)" />
<use xlink:href="#f6_cc" transform="matrix(14,0,0,14,497.1,350.6)" />
<use xlink:href="#f6_d5" transform="matrix(14,0,0,14,509.1,350.6)" />
<use xlink:href="#f6_bf" transform="matrix(14,0,0,14,199.7,385)" />
<use xlink:href="#f6_ct" transform="matrix(14,0,0,14,215.4,385)" />
<use xlink:href="#f6_c0" transform="matrix(14,0,0,14,221,385)" />
<use xlink:href="#f6_cv" transform="matrix(14,0,0,14,233.6,385)" />
<use xlink:href="#f6_b9" transform="matrix(14,0,0,14,244.8,385)" />
<use xlink:href="#f6_ct" transform="matrix(14,0,0,14,260.3,385)" />
<use xlink:href="#f6_c3" transform="matrix(14,0,0,14,266,385)" />
<use xlink:href="#f6_cv" transform="matrix(14,0,0,14,280.7,385)" />
<use xlink:href="#f6_bc" transform="matrix(14,0,0,14,292,385)" />
<use xlink:href="#f6_bk" transform="matrix(14,0,0,14,305.9,385)" />
<use xlink:href="#f6_ct" transform="matrix(14,0,0,14,317.4,385)" />
<use xlink:href="#f6_cc" transform="matrix(14,0,0,14,328.7,385)" />
<use xlink:href="#f6_d5" transform="matrix(14,0,0,14,340.7,385)" />
<use xlink:href="#f6_bp" transform="matrix(14,0,0,14,346,385)" />
<use xlink:href="#f6_d8" transform="matrix(14,0,0,14,358.3,385)" />
<use xlink:href="#f6_ik" transform="matrix(14,0,0,14,369.6,385)" />
<use xlink:href="#f6_ct" transform="matrix(14,0,0,14,394.6,385)" />
<use xlink:href="#f6_pc" transform="matrix(14,0,0,14,400.2,385)" />
<use xlink:href="#f6_pc" transform="matrix(14,0,0,14,404.5,385)" />
<use xlink:href="#f6_pc" transform="matrix(14,0,0,14,408.8,385)" />
<use xlink:href="#f6_pc" transform="matrix(14,0,0,14,413.1,385)" />
<use xlink:href="#f6_pc" transform="matrix(14,0,0,14,417.3,385)" />
<use xlink:href="#f6_bg" transform="matrix(14,0,0,14,108,453.8)" />
<use xlink:href="#f6_cc" transform="matrix(14,0,0,14,122.3,453.8)" />
<use xlink:href="#f6_ct" transform="matrix(14,0,0,14,133.9,453.8)" />
<use xlink:href="#f6_di" transform="matrix(14,0,0,14,137.4,454.2)" />
<use xlink:href="#f6_c3" transform="matrix(14,0,0,14,145.2,453.8)" />
<use xlink:href="#f6_bb" transform="matrix(14,0,0,14,159.9,453.8)" />
<use xlink:href="#f6_bp" transform="matrix(14,0,0,14,172.5,453.8)" />
<use xlink:href="#f6_cv" transform="matrix(14,0,0,14,184.8,453.8)" />
<use xlink:href="#f6_am" transform="matrix(14,0,0,14,196.1,453.8)" />
<use xlink:href="#f6_bt" transform="matrix(14,0,0,14,217.6,453.8)" />
<use xlink:href="#f6_dj" transform="matrix(14,0,0,14,226.4,454.2)" />
<use xlink:href="#f6_br" transform="matrix(14,0,0,14,229.3,453.8)" />
<use xlink:href="#f6_b9" transform="matrix(14,0,0,14,246.6,453.8)" />
<use xlink:href="#f6_oc" transform="matrix(14,0,0,14,262.1,453.8)" />
<use xlink:href="#f6_bh" transform="matrix(14,0,0,14,273.4,453.8)" />
<use xlink:href="#f6_ch" transform="matrix(14,0,0,14,290.2,453.8)" />
<use xlink:href="#f6_cv" transform="matrix(14,0,0,14,302.9,453.8)" />
<use xlink:href="#f6_ay" transform="matrix(14,0,0,14,319.8,453.8)" />
<use xlink:href="#f6_cb" transform="matrix(14,0,0,14,331.7,453.8)" />
<use xlink:href="#f6_cv" transform="matrix(14,0,0,14,346.6,453.8)" />
<use xlink:href="#f6_bz" transform="matrix(14,0,0,14,357.8,453.8)" />
<use xlink:href="#f6_cc" transform="matrix(14,0,0,14,371.2,453.8)" />
<use xlink:href="#f6_cu" transform="matrix(14,0,0,14,382.8,453.8)" />
<use xlink:href="#f6_cj" transform="matrix(14,0,0,14,388.4,453.8)" />
<use xlink:href="#f6_c3" transform="matrix(14,0,0,14,404.5,453.8)" />
<use xlink:href="#f6_cb" transform="matrix(14,0,0,14,424.9,453.8)" />
<use xlink:href="#f6_bg" transform="matrix(14,0,0,14,439.8,453.8)" />
<use xlink:href="#f6_ct" transform="matrix(14,0,0,14,454,453.8)" />
<use xlink:href="#f6_bp" transform="matrix(14,0,0,14,459.6,453.8)" />
<use xlink:href="#f6_ct" transform="matrix(14,0,0,14,472,453.8)" />
<use xlink:href="#f6_n5" transform="matrix(14,0,0,14,483.2,453.8)" />
<use xlink:href="#f6_di" transform="matrix(14,0,0,14,495.2,454.2)" />
<use xlink:href="#f6_bz" transform="matrix(14,0,0,14,500.5,453.8)" />
<use xlink:href="#f6_p3" transform="matrix(14,0,0,14,514,453.8)" />
<use xlink:href="#f6_b9" transform="matrix(14,0,0,14,136.7,488.1)" />
<use xlink:href="#f6_d8" transform="matrix(14,0,0,14,152.2,488.1)" />
<use xlink:href="#f6_ao" transform="matrix(14,0,0,14,157.8,488.1)" />
<use xlink:href="#f6_ik" transform="matrix(14,0,0,14,174.9,488.1)" />
<use xlink:href="#f6_cw" transform="matrix(14,0,0,14,200.5,488)" />
<use xlink:href="#f6_di" transform="matrix(14,0,0,14,198.2,488.6)" />
<use xlink:href="#f6_bt" transform="matrix(14,0,0,14,205.6,488.1)" />
<use xlink:href="#f6_ct" transform="matrix(14,0,0,14,217.4,488.1)" />
<use xlink:href="#f6_br" transform="matrix(14,0,0,14,228.6,488.1)" />
<use xlink:href="#f6_ob" transform="matrix(14,0,0,14,240.3,488.1)" />
<use xlink:href="#f6_c7" transform="matrix(14,0,0,14,245.9,488.1)" />
<use xlink:href="#f6_ct" transform="matrix(14,0,0,14,258,488.1)" />
<use xlink:href="#f6_bt" transform="matrix(14,0,0,14,263.6,488.1)" />
<use xlink:href="#f6_ct" transform="matrix(14,0,0,14,275.4,488.1)" />
<use xlink:href="#f6_bx" transform="matrix(14,0,0,14,286.6,488.1)" />
<use xlink:href="#f6_bt" transform="matrix(14,0,0,14,298.9,488.1)" />
<use xlink:href="#f6_d4" transform="matrix(14,0,0,14,310.8,488.1)" />
<use xlink:href="#f6_ay" transform="matrix(14,0,0,14,316.3,488.1)" />
<use xlink:href="#f6_cb" transform="matrix(14,0,0,14,328.2,488.1)" />
<use xlink:href="#f6_d4" transform="matrix(14,0,0,14,343.2,488.1)" />
<use xlink:href="#f6_bh" transform="matrix(14,0,0,14,348.7,488.1)" />
<use xlink:href="#f6_c3" transform="matrix(14,0,0,14,365.5,488.1)" />
<use xlink:href="#f6_c7" transform="matrix(14,0,0,14,380.2,488.1)" />
<use xlink:href="#f6_d4" transform="matrix(14,0,0,14,392.4,488.1)" />
<use xlink:href="#f6_cu" transform="matrix(14,0,0,14,397.9,488.1)" />
<use xlink:href="#f6_br" transform="matrix(14,0,0,14,403.6,488.1)" />
<use xlink:href="#f6_ba" transform="matrix(14,0,0,14,415.2,488.1)" />
<use xlink:href="#f6_bp" transform="matrix(14,0,0,14,432,488.1)" />
<use xlink:href="#f6_ct" transform="matrix(14,0,0,14,444.3,488.1)" />
<use xlink:href="#f6_cc" transform="matrix(14,0,0,14,455.6,488.1)" />
<use xlink:href="#f6_d5" transform="matrix(14,0,0,14,467.5,488.1)" />
<use xlink:href="#f6_c0" transform="matrix(14,0,0,14,472.8,488.1)" />
<use xlink:href="#f6_d4" transform="matrix(14,0,0,14,485.5,488.1)" />
<use xlink:href="#f6_c0" transform="matrix(14,0,0,14,149.3,522.5)" />
<use xlink:href="#f6_d4" transform="matrix(14,0,0,14,161.9,522.5)" />
<use xlink:href="#f6_b9" transform="matrix(14,0,0,14,167.5,522.5)" />
<use xlink:href="#f6_c1" transform="matrix(14,0,0,14,183,522.5)" />
<use xlink:href="#f6_bp" transform="matrix(14,0,0,14,191.4,522.5)" />
<use xlink:href="#f6_ct" transform="matrix(14,0,0,14,203.7,522.5)" />
<use xlink:href="#f6_b9" transform="matrix(14,0,0,14,215,522.5)" />
<use xlink:href="#f6_c1" transform="matrix(14,0,0,14,230.5,522.5)" />
<use xlink:href="#f6_ct" transform="matrix(14,0,0,14,238.8,522.5)" />
<use xlink:href="#f6_bz" transform="matrix(14,0,0,14,244.5,522.5)" />
<use xlink:href="#f6_ct" transform="matrix(14,0,0,14,257.8,522.5)" />
<use xlink:href="#f6_bp" transform="matrix(14,0,0,14,263.4,522.5)" />
<use xlink:href="#f6_cc" transform="matrix(14,0,0,14,281.4,522.5)" />
<use xlink:href="#f6_d5" transform="matrix(14,0,0,14,293.3,522.5)" />
<use xlink:href="#f6_bp" transform="matrix(14,0,0,14,298.7,522.5)" />
<use xlink:href="#f6_d8" transform="matrix(14,0,0,14,311,522.5)" />
<use xlink:href="#f6_bm" transform="matrix(14,0,0,14,322.3,522.5)" />
<use xlink:href="#f6_c1" transform="matrix(14,0,0,14,334.9,522.5)" />
<use xlink:href="#f6_bt" transform="matrix(14,0,0,14,343.3,522.5)" />
<use xlink:href="#f6_d4" transform="matrix(14,0,0,14,355.2,522.5)" />
<use xlink:href="#f6_b9" transform="matrix(14,0,0,14,360.7,522.5)" />
<use xlink:href="#f6_oc" transform="matrix(14,0,0,14,376.2,522.5)" />
<use xlink:href="#f6_ik" transform="matrix(14,0,0,14,387.5,522.5)" />
<use xlink:href="#f6_ct" transform="matrix(14,0,0,14,412.5,522.5)" />
<use xlink:href="#f6_bx" transform="matrix(14,0,0,14,423.8,522.5)" />
<use xlink:href="#f6_ct" transform="matrix(14,0,0,14,436.1,522.5)" />
<use xlink:href="#f6_bp" transform="matrix(14,0,0,14,441.7,522.5)" />
<use xlink:href="#f6_cc" transform="matrix(14,0,0,14,459.7,522.5)" />
<use xlink:href="#f6_d5" transform="matrix(14,0,0,14,471.7,522.5)" />
<use xlink:href="#f6_bf" transform="matrix(14,0,0,14,197.4,556.9)" />
<use xlink:href="#f6_ct" transform="matrix(14,0,0,14,213.1,556.9)" />
<use xlink:href="#f6_c0" transform="matrix(14,0,0,14,218.7,556.9)" />
<use xlink:href="#f6_cv" transform="matrix(14,0,0,14,231.3,556.9)" />
<use xlink:href="#f6_b9" transform="matrix(14,0,0,14,242.6,556.9)" />
<use xlink:href="#f6_ct" transform="matrix(14,0,0,14,258.1,556.9)" />
<use xlink:href="#f6_c3" transform="matrix(14,0,0,14,263.7,556.9)" />
<use xlink:href="#f6_cv" transform="matrix(14,0,0,14,278.4,556.9)" />
<use xlink:href="#f6_bc" transform="matrix(14,0,0,14,289.7,556.9)" />
<use xlink:href="#f6_bk" transform="matrix(14,0,0,14,303.6,556.9)" />
<use xlink:href="#f6_ct" transform="matrix(14,0,0,14,315.1,556.9)" />
<use xlink:href="#f6_cc" transform="matrix(14,0,0,14,326.4,556.9)" />
<use xlink:href="#f6_d5" transform="matrix(14,0,0,14,338.4,556.9)" />
<use xlink:href="#f6_bp" transform="matrix(14,0,0,14,343.7,556.9)" />
<use xlink:href="#f6_d8" transform="matrix(14,0,0,14,356,556.9)" />
<use xlink:href="#f6_ik" transform="matrix(14,0,0,14,367.3,556.9)" />
<use xlink:href="#f6_ct" transform="matrix(14,0,0,14,392.3,556.9)" />
<use xlink:href="#f6_pc" transform="matrix(14,0,0,14,397.9,556.9)" />
<use xlink:href="#f6_pc" transform="matrix(14,0,0,14,402.2,556.9)" />
<use xlink:href="#f6_pc" transform="matrix(14,0,0,14,406.5,556.9)" />
<use xlink:href="#f6_pc" transform="matrix(14,0,0,14,410.8,556.9)" />
<use xlink:href="#f6_pc" transform="matrix(14,0,0,14,415,556.9)" />
<use xlink:href="#f6_pc" transform="matrix(14,0,0,14,419.3,556.9)" />
<use xlink:href="#f6_ik" transform="matrix(14,0,0,14,129.8,625.6)" />
<use xlink:href="#f6_cw" transform="matrix(14,0,0,14,155.4,625.5)" />
<use xlink:href="#f6_di" transform="matrix(14,0,0,14,153.1,626.1)" />
<use xlink:href="#f6_bz" transform="matrix(14,0,0,14,160.5,625.6)" />
<use xlink:href="#f6_p3" transform="matrix(14,0,0,14,174,625.6)" />
<use xlink:href="#f6_by" transform="matrix(14,0,0,14,179.5,625.6)" />
<use xlink:href="#f6_bk" transform="matrix(14,0,0,14,193.4,625.6)" />
<use xlink:href="#f6_b9" transform="matrix(14,0,0,14,205,625.6)" />
<use xlink:href="#f6_cw" transform="matrix(14,0,0,14,216.1,625.5)" />
<use xlink:href="#f6_c0" transform="matrix(14,0,0,14,226.2,625.6)" />
<use xlink:href="#f6_cc" transform="matrix(14,0,0,14,238.7,625.6)" />
<use xlink:href="#f6_ct" transform="matrix(14,0,0,14,250.3,625.6)" />
<use xlink:href="#f6_di" transform="matrix(14,0,0,14,253.8,626.1)" />
<use xlink:href="#f6_cb" transform="matrix(14,0,0,14,261.6,625.6)" />
<use xlink:href="#f6_d4" transform="matrix(14,0,0,14,276.6,625.6)" />
<use xlink:href="#f6_c7" transform="matrix(14,0,0,14,282.2,625.6)" />
<use xlink:href="#f6_cc" transform="matrix(14,0,0,14,294.2,625.6)" />
<use xlink:href="#f6_ct" transform="matrix(14,0,0,14,305.8,625.6)" />
<use xlink:href="#f6_di" transform="matrix(14,0,0,14,309.3,626.1)" />
<use xlink:href="#f6_an" transform="matrix(14,0,0,14,317.1,625.6)" />
<use xlink:href="#f6_cb" transform="matrix(14,0,0,14,328.6,625.6)" />
<use xlink:href="#f6_b9" transform="matrix(14,0,0,14,343.5,625.6)" />
<use xlink:href="#f6_d4" transform="matrix(14,0,0,14,354.6,625.6)" />
<use xlink:href="#f6_be" transform="matrix(14,0,0,14,364.7,625.6)" />
<use xlink:href="#f6_c1" transform="matrix(14,0,0,14,378.7,625.6)" />
<use xlink:href="#f6_bo" transform="matrix(14,0,0,14,387,625.6)" />
<use xlink:href="#f6_d8" transform="matrix(14,0,0,14,401.4,625.6)" />
<use xlink:href="#f6_dj" transform="matrix(14,0,0,14,405.7,626.5)" />
<use xlink:href="#f6_bz" transform="matrix(14,0,0,14,412.7,625.6)" />
<use xlink:href="#f6_oz" transform="matrix(14,0,0,14,426.2,625.6)" />
<use xlink:href="#f6_cc" transform="matrix(14,0,0,14,431.7,625.6)" />
<use xlink:href="#f6_d5" transform="matrix(14,0,0,14,443.6,625.6)" />
<use xlink:href="#f6_bx" transform="matrix(14,0,0,14,449,625.6)" />
<use xlink:href="#f6_d5" transform="matrix(14,0,0,14,461.4,625.6)" />
<use xlink:href="#f6_bl" transform="matrix(14,0,0,14,461.3,625.6)" />
<use xlink:href="#f6_bt" transform="matrix(14,0,0,14,473.6,625.6)" />
<use xlink:href="#f6_ct" transform="matrix(14,0,0,14,485.3,625.6)" />
<use xlink:href="#f6_bh" transform="matrix(14,0,0,14,126.3,660)" />
<use xlink:href="#f6_of" transform="matrix(14,0,0,14,143.2,659.9)" />
<use xlink:href="#f6_bl" transform="matrix(14,0,0,14,143.1,660)" />
<use xlink:href="#f6_d4" transform="matrix(14,0,0,14,154.1,660)" />
<use xlink:href="#f6_m1" transform="matrix(14,0,0,14,161.1,660)" />
<use xlink:href="#f6_c7" transform="matrix(14,0,0,14,169.9,660)" />
<use xlink:href="#f6_ct" transform="matrix(14,0,0,14,182,660)" />
<use xlink:href="#f6_no" transform="matrix(14,0,0,14,187.6,660)" />
<use xlink:href="#f6_bq" transform="matrix(14,0,0,14,187.6,660)" />
<use xlink:href="#f6_dr" transform="matrix(14,0,0,14,200.8,660)" />
<use xlink:href="#f6_b9" transform="matrix(14,0,0,14,206.5,660)" />
<use xlink:href="#f6_d4" transform="matrix(14,0,0,14,217.6,660)" />
<use xlink:href="#f6_cc" transform="matrix(14,0,0,14,227.7,660)" />
<use xlink:href="#f6_d5" transform="matrix(14,0,0,14,239.6,660)" />
<use xlink:href="#f6_nr" transform="matrix(14,0,0,14,244.9,660)" />
<use xlink:href="#f6_c1" transform="matrix(14,0,0,14,250.5,660)" />
<use xlink:href="#f6_ly" transform="matrix(14,0,0,14,258.9,660)" />
<use xlink:href="#f6_bp" transform="matrix(14,0,0,14,269.7,660)" />
<use xlink:href="#f6_d4" transform="matrix(14,0,0,14,282.1,660)" />
<use xlink:href="#f6_cb" transform="matrix(14,0,0,14,287.6,660)" />
<use xlink:href="#f6_by" transform="matrix(14,0,0,14,302.5,660)" />
<use xlink:href="#f6_cv" transform="matrix(14,0,0,14,316.5,660)" />
<use xlink:href="#f6_b9" transform="matrix(14,0,0,14,333.4,660)" />
<use xlink:href="#f6_cc" transform="matrix(14,0,0,14,348.9,660)" />
<use xlink:href="#f6_bt" transform="matrix(14,0,0,14,360.5,660)" />
<use xlink:href="#f6_d4" transform="matrix(14,0,0,14,372.4,660)" />
<use xlink:href="#f6_cb" transform="matrix(14,0,0,14,377.9,660)" />
<use xlink:href="#f6_d4" transform="matrix(14,0,0,14,392.9,660)" />
<use xlink:href="#f6_cc" transform="matrix(14,0,0,14,398.5,660)" />
<use xlink:href="#f6_d5" transform="matrix(14,0,0,14,410.4,660)" />
<use xlink:href="#f6_nr" transform="matrix(14,0,0,14,415.7,660)" />
<use xlink:href="#f6_c1" transform="matrix(14,0,0,14,421.3,660)" />
<use xlink:href="#f6_ly" transform="matrix(14,0,0,14,429.7,660)" />
<use xlink:href="#f6_bp" transform="matrix(14,0,0,14,440.5,660)" />
<use xlink:href="#f6_ct" transform="matrix(14,0,0,14,452.8,660)" />
<use xlink:href="#f6_bx" transform="matrix(14,0,0,14,464.1,660)" />
<use xlink:href="#f6_bt" transform="matrix(14,0,0,14,476.4,660)" />
<use xlink:href="#f6_ct" transform="matrix(14,0,0,14,488.1,660)" />
<use xlink:href="#f6_c0" transform="matrix(14,0,0,14,128.6,694.4)" />
<use xlink:href="#f6_d4" transform="matrix(14,0,0,14,141.3,694.4)" />
<use xlink:href="#f6_b9" transform="matrix(14,0,0,14,146.9,694.4)" />
<use xlink:href="#f6_c1" transform="matrix(14,0,0,14,162.3,694.4)" />
<use xlink:href="#f6_bp" transform="matrix(14,0,0,14,170.7,694.4)" />
<use xlink:href="#f6_ct" transform="matrix(14,0,0,14,183,694.4)" />
<use xlink:href="#f6_bz" transform="matrix(14,0,0,14,194.3,694.4)" />
<use xlink:href="#f6_cw" transform="matrix(14,0,0,14,208.2,694.3)" />
<use xlink:href="#f6_c3" transform="matrix(14,0,0,14,207.7,694.4)" />
<use xlink:href="#f6_ct" transform="matrix(14,0,0,14,222.4,694.4)" />
<use xlink:href="#f6_b9" transform="matrix(14,0,0,14,228,694.4)" />
<use xlink:href="#f6_ct" transform="matrix(14,0,0,14,243.5,694.4)" />
<use xlink:href="#f6_bp" transform="matrix(14,0,0,14,249.1,694.4)" />
<use xlink:href="#f6_cc" transform="matrix(14,0,0,14,267.1,694.4)" />
<use xlink:href="#f6_p3" transform="matrix(14,0,0,14,279,694.4)" />
<use xlink:href="#f6_bp" transform="matrix(14,0,0,14,284.4,694.4)" />
<use xlink:href="#f6_d8" transform="matrix(14,0,0,14,296.7,694.4)" />
<use xlink:href="#f6_cu" transform="matrix(14,0,0,14,308,694.4)" />
<use xlink:href="#f6_bw" transform="matrix(14,0,0,14,313.6,694.4)" />
<use xlink:href="#f6_c1" transform="matrix(14,0,0,14,329.7,694.4)" />
<use xlink:href="#f6_bm" transform="matrix(14,0,0,14,343.7,694.4)" />
<use xlink:href="#f6_c1" transform="matrix(14,0,0,14,356.4,694.4)" />
<use xlink:href="#f6_bt" transform="matrix(14,0,0,14,364.8,694.4)" />
<use xlink:href="#f6_d4" transform="matrix(14,0,0,14,376.6,694.4)" />
<use xlink:href="#f6_b9" transform="matrix(14,0,0,14,382.2,694.4)" />
<use xlink:href="#f6_oc" transform="matrix(14,0,0,14,397.7,694.4)" />
<use xlink:href="#f6_ik" transform="matrix(14,0,0,14,409,694.4)" />
<use xlink:href="#f6_ct" transform="matrix(14,0,0,14,434,694.4)" />
<use xlink:href="#f6_bx" transform="matrix(14,0,0,14,445.3,694.4)" />
<use xlink:href="#f6_ct" transform="matrix(14,0,0,14,457.6,694.4)" />
<use xlink:href="#f6_bp" transform="matrix(14,0,0,14,463.2,694.4)" />
<use xlink:href="#f6_cc" transform="matrix(14,0,0,14,481.2,694.4)" />
<use xlink:href="#f6_d5" transform="matrix(14,0,0,14,493.1,694.4)" />
<use xlink:href="#f6_bf" transform="matrix(14,0,0,14,199.7,728.8)" />
<use xlink:href="#f6_ct" transform="matrix(14,0,0,14,215.4,728.8)" />
<use xlink:href="#f6_c0" transform="matrix(14,0,0,14,221,728.8)" />
<use xlink:href="#f6_cv" transform="matrix(14,0,0,14,233.6,728.8)" />
<use xlink:href="#f6_b9" transform="matrix(14,0,0,14,244.8,728.8)" />
<use xlink:href="#f6_ct" transform="matrix(14,0,0,14,260.3,728.8)" />
<use xlink:href="#f6_c3" transform="matrix(14,0,0,14,266,728.8)" />
<use xlink:href="#f6_cv" transform="matrix(14,0,0,14,280.7,728.8)" />
<use xlink:href="#f6_bc" transform="matrix(14,0,0,14,292,728.8)" />
<use xlink:href="#f6_bk" transform="matrix(14,0,0,14,305.9,728.8)" />
<use xlink:href="#f6_ct" transform="matrix(14,0,0,14,317.4,728.8)" />
<use xlink:href="#f6_cc" transform="matrix(14,0,0,14,328.7,728.8)" />
<use xlink:href="#f6_d5" transform="matrix(14,0,0,14,340.7,728.8)" />
<use xlink:href="#f6_bp" transform="matrix(14,0,0,14,346,728.8)" />
<use xlink:href="#f6_d8" transform="matrix(14,0,0,14,358.3,728.8)" />
<use xlink:href="#f6_ik" transform="matrix(14,0,0,14,369.6,728.8)" />
<use xlink:href="#f6_ct" transform="matrix(14,0,0,14,394.6,728.8)" />
<use xlink:href="#f6_pc" transform="matrix(14,0,0,14,400.2,728.8)" />
<use xlink:href="#f6_pc" transform="matrix(14,0,0,14,404.5,728.8)" />
<use xlink:href="#f6_pc" transform="matrix(14,0,0,14,408.8,728.8)" />
<use xlink:href="#f6_pc" transform="matrix(14,0,0,14,413.1,728.8)" />
<use xlink:href="#f6_pc" transform="matrix(14,0,0,14,417.3,728.8)" />
</g>
<g fill="#000000" >
<use xlink:href="#f7_4r" transform="matrix(9,0,0,9,290.2,795.2)" />
<use xlink:href="#f8_q" transform="matrix(9,0,0,9,303,795.2)" />
<use xlink:href="#f8_k" transform="matrix(9,0,0,9,310.7,795.2)" />
<use xlink:href="#f7_4r" transform="matrix(9,0,0,9,321.3,795.2)" />
</g>
</g>
<image preserveAspectRatio="none" x="22" y="801" width="581" height="86" xlink:href="img/1.png"/>
<path d="M229.2,83.6H393v1.2H229.2V83.6Z" class="g1_66"/>
<image preserveAspectRatio="none" x="202" y="14" width="217" height="26" xlink:href="img/2.png"/>
<defs>
<path d="M342,-69c0,0,-146,139,-224,256c0,0,-78,117,-78,226c0,0,0,120,90,193c0,0,90,72,243,72H599V822H0L-86,937l32,64H959l86,-115l-32,-64H741L843,749V-31L773,-65L599,29V445H448c0,0,-81,0,-123,-34c0,0,-42,-34,-42,-90c0,0,0,-54,43,-118c0,0,44,-64,143,-163L342,-69Z"
id="f5_bp"
transform="scale(0.001,-0.001)"/>

<path d="M-289,908l-132,216c0,0,-70,120,-169,120c0,0,-83,0,-200,-80l-130,249c0,0,125,78,234,78c0,0,187,0,349,-241L-159,969L-289,908Z"
id="f5_d4"
transform="scale(0.001,-0.001)"/>

<path d="M545,-97L35,405L87,542H295c0,0,1,5,1,280H0L-86,937l32,64H729L814,886L782,822H445L550,749V547c0,0,0,-75,-41,-127c0,0,-41,-52,-129,-111L709,110V41L545,-97Z"
id="f5_c1"
transform="scale(0.001,-0.001)"/>

<path d="M277,-65L102,29V822H0L-86,937l32,64H110c0,0,-50,142,-110,226c0,0,-60,84,-149,84c0,0,-59,0,-97,-37c0,0,-39,-36,-39,-91c0,0,0,-57,42,-115l-95,-50c0,0,-145,116,-145,267c0,0,0,108,75,179c0,0,76,70,195,70c0,0,179,0,297,-150c0,0,119,-150,189,-383H463L548,886L516,822H244L347,749V-31L277,-65Z"
id="f5_cv"
transform="scale(0.001,-0.001)"/>

<path d="M923,312c0,0,35,73,35,151c0,0,0,95,-32,130c0,0,-18,6,-37,6c0,0,-40,0,-63,-30c0,0,-24,-30,-24,-74c0,0,0,-119,121,-183ZM634,-120c0,0,-179,0,-315,103c0,0,-137,101,-137,234c0,0,0,49,24,98C206,315,28,420,28,561c0,0,0,79,61,136c0,0,61,58,178,58H420L521,607L487,544H370c0,0,-129,0,-129,-72c0,0,0,-38,48,-72c0,0,73,43,163,43c0,0,54,0,101,-12L655,270L607,208c0,0,-45,15,-84,15c0,0,-52,0,-85,-26c0,0,-32,-26,-32,-64c0,0,0,-43,29,-66c0,0,36,-9,71,-9c0,0,113,0,207,45c0,0,94,45,156,122c0,0,-125,62,-204,149c0,0,-78,87,-78,178c0,0,0,74,54,133c0,0,54,59,135,73v64H0L-86,937l32,64H1202l87,-115l-32,-64H894L996,749V698c0,0,72,-53,114,-140c0,0,42,-87,42,-187c0,0,0,-125,-67,-239c0,0,-67,-114,-187,-182c0,0,-119,-70,-264,-70Z"
id="f5_bf"
transform="scale(0.001,-0.001)"/>

<path d="M300,310c13,0,56,2,103,25c0,0,58,27,100,81V523c0,0,-46,16,-83,16c0,0,-69,0,-111,-45c0,0,-42,-45,-42,-104c0,0,0,-45,28,-80c0,0,2,0,5,0ZM677,-65L503,29V144c0,0,-32,-11,-75,-11c0,0,-147,0,-272,98c0,0,-125,99,-125,233c0,0,0,110,75,185c0,0,76,74,195,74l67,-6L503,646V822H0L-86,937l32,64H1245l86,-115l-32,-64H645L747,749V622c0,0,81,58,165,58c0,0,122,0,213,-99c0,0,91,-98,91,-230c0,0,0,-204,-253,-371L791,157c0,0,110,83,164,139c0,0,53,55,53,106c0,0,0,55,-53,55c0,0,-83,0,-208,-145V-31L677,-65Z"
id="f5_b9"
transform="scale(0.001,-0.001)"/>

<path d="M289,-65L115,29V822H0L-86,937l32,64H115c0,0,-98,102,-98,224c0,0,0,133,101,215c0,0,102,82,262,82c0,0,155,0,359,-94c0,0,205,-94,437,-311l-76,-98c0,0,-354,281,-617,281c0,0,-113,0,-187,-48c0,0,-73,-48,-73,-134c0,0,0,-53,41,-117H463L548,886L516,822H257L359,749V-31L289,-65Z"
id="f5_cu"
transform="scale(0.001,-0.001)"/>

<path d="M746,-65L571,29V419H376V260L275,212c0,0,-87,48,-160,148c0,0,-72,100,-91,193l57,84H571V822H0L-86,937l32,64H930l88,-115L985,822H713L816,749V-31L746,-65Z"
id="f5_bt"
transform="scale(0.001,-0.001)"/>

<path d="M911,-65L736,29V136c0,0,-59,-28,-134,-28c0,0,-159,0,-296,101c0,0,-136,101,-136,233c0,0,0,47,21,90H60L-22,648L9,712H578L671,574L639,510H492c0,0,-87,-58,-87,-157c0,0,0,-26,9,-52l50,-5c0,0,78,0,156,44c0,0,77,43,116,111V822H0L-86,937l32,64H1095l86,-115l-32,-64H878L981,749V-31L911,-65Z"
id="f5_be"
transform="scale(0.001,-0.001)"/>

<path d="M904,-635L730,-399c0,0,-93,116,-185,116c0,0,-61,0,-102,-39c0,0,-41,-39,-41,-89c0,0,0,-33,20,-52l171,105L717,-514c0,0,-89,-95,-196,-95c0,0,-113,0,-206,87c0,0,-93,86,-93,196c0,0,0,102,82,176c0,0,-211,136,-211,320c0,0,0,117,84,197c0,0,-110,91,-110,195c0,0,0,75,64,128c0,0,65,53,190,53H564v79H0L-86,937l32,64H906L992,886L959,822H681L784,749V535H385c0,0,-115,0,-115,-69c0,0,0,-17,10,-34c0,0,78,32,172,32c0,0,162,0,278,-87c0,0,115,-87,115,-214c0,0,0,-143,-142,-228L513,76c0,0,126,94,145,173c0,0,-55,26,-113,26c0,0,-84,0,-143,-45c0,0,-60,-45,-60,-118c0,0,0,-119,176,-193c0,0,179,-14,357,-259l141,-201L904,-635Z"
id="f5_n5"
transform="scale(0.001,-0.001)"/>

<path d="M-291,1056c0,0,-117,0,-230,76c0,0,-114,76,-173,216l108,88c0,0,45,-90,107,-134c0,0,61,-43,126,-43c0,0,70,0,123,46c0,0,54,47,69,133L26,1340c0,0,-21,-124,-108,-204c0,0,-88,-80,-209,-80Zm-50,261c0,0,-38,15,-85,51c0,0,-47,36,-70,70c0,0,63,114,126,151c0,0,79,-32,148,-121c0,0,-38,-95,-119,-151Z"
id="f5_di"
transform="scale(0.001,-0.001)"/>

<path d="M900,298c0,0,32,73,32,159c0,0,0,110,-38,160c0,0,-40,31,-81,31c0,0,-48,0,-80,-35c0,0,-33,-35,-33,-89c0,0,0,-118,200,-226ZM588,-60c0,0,-154,0,-274,93c0,0,-120,94,-120,207c0,0,0,50,28,92C222,332,61,440,61,552c0,0,0,71,56,122c0,0,56,50,169,50H417l64,-98L463,600H333c0,0,-157,-1,-157,-99c0,0,0,-59,88,-124c0,0,68,52,164,52c0,0,38,0,79,-9l71,-88L558,299c0,0,-46,10,-81,10c0,0,-75,0,-116,-36c0,0,-40,-36,-40,-88c0,0,0,-78,73,-130c0,0,54,-17,109,-17c0,0,114,0,211,54c0,0,97,53,154,145c0,0,-156,96,-223,173c0,0,-67,77,-67,155c0,0,0,72,48,124c0,0,48,52,126,55v78H0l-45,76l14,31H1123l46,-76l-14,-31H805l66,-58V717c0,0,76,-40,124,-124c0,0,47,-84,47,-193c0,0,0,-188,-133,-324C909,76,776,-60,588,-60Z"
id="f6_bf"
transform="scale(0.001,-0.001)"/>

<path d="M228,-49L138,8V822H0l-45,76l14,31H402l46,-76L434,822H199l65,-58V-39L228,-49Z"
id="f6_ct"
transform="scale(0.001,-0.001)"/>

<path d="M374,248c0,0,77,0,149,36c0,0,71,37,110,107V822H284c0,0,138,-96,138,-208c0,0,0,-151,-228,-192c0,0,29,-104,89,-158c0,0,41,-16,91,-16ZM723,-49L633,8V200c0,0,-69,-56,-170,-56c0,0,-122,0,-240,94c0,0,-118,94,-179,237l20,55c0,0,133,17,187,44c0,0,55,28,55,84c0,0,0,45,-30,81c0,0,-30,36,-99,83H0l-45,76l14,31H897l46,-76L929,822H694l65,-58V-39L723,-49Z"
id="f6_c0"
transform="scale(0.001,-0.001)"/>

<path d="M228,-49L138,8V822H0l-45,76l14,31H138c0,0,-109,342,-284,342c0,0,-62,0,-102,-40c0,0,-40,-39,-40,-93c0,0,0,-61,51,-134l-42,-32c0,0,-128,113,-128,226c0,0,0,79,60,136c0,0,61,56,154,56c0,0,137,0,249,-125c0,0,112,-125,169,-336H402l46,-76L434,822H199l65,-58V-39L228,-49Z"
id="f6_cv"
transform="scale(0.001,-0.001)"/>

<path d="M283,260c0,0,122,0,209,113V513c0,0,-90,51,-160,51c0,0,-80,0,-129,-50c0,0,-49,-50,-49,-118c0,0,0,-60,35,-110c0,0,45,-26,94,-26ZM582,-49L492,8V211c0,0,-63,-54,-141,-54c0,0,-113,0,-213,92c0,0,-100,92,-100,205c0,0,0,93,69,157c0,0,69,64,162,64c0,0,32,0,64,-9L492,590V822H0l-45,76l14,31H1108l45,-76l-13,-31H553l66,-58V524c0,0,91,89,192,89c0,0,98,0,171,-79c0,0,72,-79,72,-186c0,0,0,-178,-224,-330L736,124c0,0,219,153,219,269c0,0,0,44,-26,75c0,0,-26,32,-81,32c0,0,-109,0,-229,-155V-39L582,-49Z"
id="f6_b9"
transform="scale(0.001,-0.001)"/>

<path d="M413,-59C413,-59,53,193,53,416c0,0,0,97,66,164c0,0,66,66,156,66c0,0,61,0,110,-30L487,507c0,0,92,126,257,126l35,-2V822H0l-45,76l14,31H1043l46,-76l-13,-31H840l66,-58V-39L869,-49L779,8V547c0,0,-101,-5,-165,-90c0,0,-64,-86,-70,-222L507,225l-90,73c0,0,5,79,35,151c0,0,-59,66,-128,66c0,0,-57,0,-100,-38c0,0,-44,-39,-44,-109c0,0,0,-165,284,-360L413,-59Z"
id="f6_c3"
transform="scale(0.001,-0.001)"/>

<path d="M434,225c0,0,84,0,169,42c0,0,85,43,126,126V822H267c0,0,-64,-49,-64,-115c0,0,0,-79,90,-126c0,0,60,35,144,35l67,-6l75,-89L564,490l-51,7H493c0,0,-90,0,-142,-43c0,0,-52,-43,-52,-104c0,0,0,-60,51,-109c0,0,33,-16,84,-16ZM819,-49L729,8V197c0,0,-83,-76,-202,-76c0,0,-130,0,-237,91c0,0,-108,92,-108,196c0,0,0,72,53,128c0,0,-75,42,-115,97c0,0,-41,56,-41,113c0,0,0,38,22,76H0l-45,76l14,31H993l46,-76l-14,-31H790l66,-58V-39L819,-49Z"
id="f6_bc"
transform="scale(0.001,-0.001)"/>

<path d="M487,-7c0,0,-88,0,-185,46c0,0,-97,47,-163,130c0,0,-66,83,-66,185c0,0,0,109,80,177c0,0,79,68,234,68H504V822H0l-45,76l14,31H827l45,-76L859,822H565l66,-58V474l-3,1l3,-3H396c0,0,-100,0,-152,-47c0,0,-53,-48,-53,-119c0,0,0,-104,93,-178c0,0,60,-20,118,-20c0,0,81,0,156,36c0,0,76,35,123,99l92,-99C773,144,723,70,645,31C645,31,567,-7,487,-7Z"
id="f6_bk"
transform="scale(0.001,-0.001)"/>

<path d="M688,-243c0,0,-256,53,-408,173c0,0,-152,119,-152,270c0,0,0,101,68,171c0,0,-101,84,-101,179c0,0,0,64,53,112c0,0,54,47,191,47H587V822H0l-45,76l14,31H830l45,-76L862,822H640l66,-58V585H362c0,0,-159,-1,-159,-92c0,0,0,-41,46,-80c0,0,76,47,183,47c0,0,135,0,230,-76c0,0,96,-75,96,-187C758,197,758,67,629,2L545,104c0,0,49,30,81,75c0,0,32,44,32,82c0,0,0,16,-4,26c0,0,-64,58,-167,58c0,0,-97,0,-166,-50v-2c0,0,-67,-52,-67,-131c0,0,0,-116,132,-199c0,0,132,-84,334,-132l-32,-74Z"
id="f6_cc"
transform="scale(0.001,-0.001)"/>

<path d="M-214,860l-227,219c0,0,-73,70,-148,70c0,0,-67,0,-160,-58l-72,117c0,0,83,71,176,71c0,0,120,0,232,-124L-221,940l-102,294c0,0,-64,179,-189,179c0,0,-60,0,-133,-33l-60,125c0,0,84,47,164,47c0,0,200,0,281,-276L-150,901l-23,-15l-41,-26Z"
id="f6_d5"
transform="scale(0.001,-0.001)"/>

<path d="M347,-57C347,-57,66,211,66,394c0,0,0,98,74,164c0,0,74,65,225,65H616V822H0l-45,76l14,31H880l46,-76L912,822H677l66,-58V-39L706,-49L616,8V500H428c0,0,-239,0,-239,-161c0,0,0,-136,214,-343L347,-57Z"
id="f6_bp"
transform="scale(0.001,-0.001)"/>

<path d="M228,-49L138,8V822H0l-45,76l14,31H119L-33,1144c0,0,-70,92,-157,92c0,0,-69,0,-159,-58l-72,118c0,0,89,73,181,73c0,0,140,0,257,-170L205,929H402l46,-76L434,822H199l65,-58V-39L228,-49Z"
id="f6_d8"
transform="scale(0.001,-0.001)"/>

<path d="M283,260c0,0,122,0,209,113V513c0,0,-90,51,-160,51c0,0,-80,0,-129,-50c0,0,-49,-50,-49,-118c0,0,0,-60,35,-110c0,0,45,-26,94,-26ZM619,521c0,0,93,104,192,104c0,0,98,0,170,-92c0,0,117,17,167,45c0,0,50,27,50,80c0,0,0,45,-30,81c0,0,-30,36,-99,83H553l66,-58V521ZM1267,248c0,0,76,0,148,36c0,0,72,37,110,107V822H1176c0,0,138,-96,138,-208c0,0,0,-151,-228,-192c0,0,29,-104,89,-158c0,0,41,-16,92,-16ZM582,-49L492,8V211c0,0,-63,-54,-141,-54c0,0,-113,0,-214,92c0,0,-102,92,-102,206c0,0,0,93,69,157c0,0,69,63,163,63c0,0,34,0,66,-9L492,590V822H0l-45,76l14,31H1789l46,-76l-14,-31H1586l66,-58V-39l-37,-10L1525,8V200c0,0,-69,-56,-170,-56c0,0,-121,0,-238,92c0,0,-118,92,-179,235c0,0,-35,41,-89,41c0,0,-51,0,-105,-41c0,0,-53,-42,-125,-129V-39L582,-49Z"
id="f6_ik"
transform="scale(0.001,-0.001)"/>

<path d="M108,-222l-44,58c0,0,96,81,104,164L89,61c0,0,12,83,93,122c0,0,50,-15,79,-55c0,0,29,-39,29,-90c0,0,0,-69,-48,-142c0,0,-48,-72,-134,-118Z"
id="f6_k"
transform="scale(0.001,-0.001)"/>

<path d="M-214,863l-199,281c0,0,-70,92,-157,92c0,0,-69,0,-159,-58l-72,118c0,0,89,73,180,73c0,0,141,0,258,-170L-155,901l-59,-38Z"
id="f6_d4"
transform="scale(0.001,-0.001)"/>

<path d="M527,-71L52,414l34,92H277c0,0,12,32,12,72V822H0l-45,76l14,31H599l46,-76L631,822H350l66,-55V564c0,0,0,-96,-152,-248L610,34L611,8L527,-71Z"
id="f6_c1"
transform="scale(0.001,-0.001)"/>

<path d="M228,-49L138,8V822H0l-45,76l14,31H134c0,0,-91,92,-91,191c0,0,0,105,85,170c0,0,84,65,219,65c0,0,128,0,293,-76c0,0,165,-77,362,-263L958,966c0,0,-177,143,-303,210c0,0,-125,68,-244,68c0,0,-107,0,-175,-50c0,0,-68,-50,-68,-131c0,0,0,-61,49,-134H402l46,-76L434,822H199l65,-58V-39L228,-49Z"
id="f6_cu"
transform="scale(0.001,-0.001)"/>

<path d="M663,-49L573,8V445H299V280L226,251c0,0,-105,99,-162,238l63,72H573V822H0l-45,76l14,31H837l46,-76L869,822H634l66,-58V-39L663,-49Z"
id="f6_bt"
transform="scale(0.001,-0.001)"/>

<path d="M825,-49L735,8V217c0,0,-86,-72,-197,-72c0,0,-130,0,-238,91c0,0,-107,91,-107,204c0,0,0,55,27,105H55L12,616l14,30H574l46,-76L607,539H396c0,0,-78,-49,-78,-162c0,0,0,-70,40,-111c0,0,39,-15,94,-15c0,0,84,0,163,41c0,0,79,41,120,121V822H0l-45,76l14,31H999l46,-76l-14,-31H796l66,-58V-39L825,-49Z"
id="f6_be"
transform="scale(0.001,-0.001)"/>

<path d="M819,-521L651,-303c0,0,-99,119,-191,119c0,0,-60,0,-96,-34c0,0,-37,-35,-37,-82c0,0,0,-49,43,-82l151,94l64,-116c0,0,-70,-58,-148,-58c0,0,-79,0,-145,64c0,0,-66,63,-66,144c0,0,0,98,90,151c0,0,-203,131,-203,306c0,0,0,101,69,170c0,0,-103,88,-103,179c0,0,0,64,57,110c0,0,57,47,196,47H571V822H0l-45,76l14,31H830l45,-76L862,822H625l66,-58V585H364c0,0,-176,0,-176,-96c0,0,0,-41,44,-76c0,0,81,47,185,47c0,0,135,0,230,-76c0,0,96,-75,96,-187C743,197,743,67,614,2L530,104c0,0,49,30,81,75c0,0,32,44,32,82c0,0,0,16,-4,26c0,0,-65,58,-167,58c0,0,-98,0,-166,-50v-2c0,0,-68,-52,-68,-131c0,0,0,-134,188,-231c0,0,84,0,164,-62c0,0,79,-62,195,-222l90,-129l-56,-39Z"
id="f6_n5"
transform="scale(0.001,-0.001)"/>

<path d="M-233,1021c0,0,-84,0,-168,55c0,0,-84,56,-146,162l51,50c0,0,95,-162,219,-162c0,0,125,0,160,157L-7,1234c0,0,-21,-103,-81,-158c0,0,-61,-55,-145,-55Zm-41,201c0,0,-66,25,-102,80c0,0,32,68,82,101c0,0,55,-20,99,-80c0,0,-26,-67,-79,-101Z"
id="f6_di"
transform="scale(0.001,-0.001)"/>

<path d="M689,445V822H286l65,-58l8,-319ZM779,-49L689,8V328H370V180L296,150c0,0,-56,35,-120,104c0,0,-63,70,-89,131l41,60H238L223,822H0l-45,76l14,31H953l46,-76L985,822H750l66,-58V-39L779,-49Z"
id="f6_bz"
transform="scale(0.001,-0.001)"/>

<path d="M959,-49L869,8V367c0,0,-32,-13,-64,-13c0,0,-50,0,-110,25c0,0,23,-52,23,-109c0,0,0,-103,-70,-170c0,0,-70,-66,-182,-66c0,0,-110,0,-222,82c0,0,-111,83,-213,293l68,42c0,0,72,-155,152,-231c0,0,81,-76,178,-76c0,0,83,0,131,49c0,0,48,48,48,117c0,0,0,54,-30,100c0,0,-31,47,-91,65L325,391L257,512c0,0,68,53,156,56c0,0,140,72,140,179c0,0,0,69,-52,99c0,0,-4,1,-11,1c-19,0,-66,-4,-123,-30c0,0,-78,-35,-142,-96L150,823c0,0,119,117,253,117c0,0,98,0,175,-71c0,0,77,-70,77,-159c0,0,0,-103,-94,-180c0,0,39,-23,73,-56c0,0,52,-22,109,-22c0,0,77,0,126,38V822H727l-46,76l14,31h840l46,-76l-13,-31H1332l66,-58V-39l-37,-10L1271,8V822H930l66,-58V-39L959,-49Z"
id="f6_am"
transform="scale(0.001,-0.001)"/>

<path d="M727,-49L637,8V822H278l66,-58V226L270,196c0,0,-64,36,-122,98c0,0,-58,62,-79,122l43,59H217V822H0l-45,76l14,31H901l46,-76L933,822H698l66,-58V-39L727,-49Z"
id="f6_bb"
transform="scale(0.001,-0.001)"/>

<path d="M92,380L46,457l14,30H448l45,-76L480,380Z"
id="f6_pd"
transform="scale(0.001,-0.001)"/>

<path d="M823,-49L733,8V339H445V191L371,160c0,0,-56,36,-120,105c0,0,-63,70,-89,131l41,59H313V735c0,0,0,99,-55,140c0,0,-3,1,-8,1c-16,0,-48,-3,-71,-23c0,0,-31,-26,-31,-66c0,0,0,-69,81,-113L189,620C189,620,31,720,31,828c0,0,0,61,45,99c0,0,46,37,109,37c0,0,96,0,173,-86c0,0,76,-87,79,-194V455H733V822H556l-46,76l14,31H998l45,-76l-13,-31H794l66,-58V-39L823,-49Z"
id="f6_by"
transform="scale(0.001,-0.001)"/>

<path d="M527,-71L52,414l34,92H277c0,0,12,32,12,72V822H0l-45,76l14,31H940l45,-76L972,822H350l66,-55V553c0,0,24,52,77,83c0,0,52,30,112,30c0,0,87,0,171,-76c0,0,84,-75,222,-304L938,244L828,411c0,0,-95,134,-195,134c0,0,-63,0,-100,-35c0,0,-36,-36,-36,-87c0,0,0,-50,42,-87l152,99L755,315c0,0,-71,-61,-148,-61c0,0,-80,0,-146,66c0,0,-65,67,-65,164c0,0,-34,-70,-132,-168L610,34L611,8L527,-71Z"
id="f6_n1"
transform="scale(0.001,-0.001)"/>

<path d="M675,-274L602,21C602,21,550,3,498,3C498,3,347,3,210,118C210,118,73,232,73,373c0,0,0,113,84,184c0,0,84,71,222,72H524V822H0l-45,76l14,31H834l46,-76L866,822H585l66,-58V504l-3,2l3,-3H408c0,0,-95,0,-154,-53c0,0,-58,-53,-58,-132c0,0,0,-49,27,-100c0,0,28,-50,83,-84c0,0,44,-15,96,-15c0,0,91,0,160,46L535,303l101,48L773,188c0,0,-8,-28,-34,-66c0,0,-27,-38,-62,-64L813,-221L675,-274Z"
id="f6_br"
transform="scale(0.001,-0.001)"/>

<path d="M388,325c0,0,58,0,112,31c0,0,53,31,84,86V822H165l69,-58V408c0,0,47,-83,154,-83ZM674,-49L584,8V257c0,0,-61,-51,-141,-51c0,0,-125,0,-232,109c0,0,-107,108,-107,243V822H0l-45,76l14,31H848l46,-76L880,822H645l65,-58V-39L674,-49Z"
id="f6_bv"
transform="scale(0.001,-0.001)"/>

<path d="M471,-26c0,0,-259,0,-448,396l70,43C93,413,240,98,442,98c0,0,79,0,132,46c0,0,54,45,54,120c0,0,0,61,-38,116c0,0,-38,54,-107,72L322,370L255,492c0,0,66,53,156,56c0,0,128,51,128,153c0,0,0,77,-65,121H0l-45,76l14,31H813l46,-76L845,822H578c0,0,76,-66,76,-157c0,0,0,-95,-87,-156c0,0,84,-48,131,-123c0,0,48,-76,48,-158c0,0,0,-109,-78,-182c0,0,-78,-72,-197,-72Z"
id="f6_ap"
transform="scale(0.001,-0.001)"/>

<path d="M799,475V822H350l66,-55V564c0,0,0,-43,-25,-89ZM527,-71L52,414l34,92H277c0,0,12,32,12,72V822H0l-45,76l14,31H1063l46,-76l-14,-31H860l66,-58V-39L889,-49L799,8V370H315L264,316L610,34L611,8L527,-71Z"
id="f6_cb"
transform="scale(0.001,-0.001)"/>

<path d="M547,-285c0,0,-66,25,-102,80c0,0,32,69,82,101c0,0,55,-20,99,-80c0,0,-26,-67,-79,-101Zm1,228c0,0,-122,0,-243,81c0,0,-122,81,-252,280l57,41C110,345,283,64,498,64c0,0,92,0,153,49c0,0,61,49,61,121c0,0,0,46,-28,84L440,237c0,0,-73,11,-139,55c0,0,-66,44,-105,105c0,0,-40,61,-40,119c0,0,0,72,62,125c0,0,62,53,184,53H625V822H0l-45,76l14,31H906l46,-76L938,822H678l66,-58V562H431c0,0,-164,0,-164,-99c0,0,0,-55,57,-102l261,82c0,0,104,-21,172,-98c0,0,68,-78,68,-171c0,0,0,-99,-76,-166c0,0,-77,-65,-201,-65Z"
id="f6_ch"
transform="scale(0.001,-0.001)"/>

<path d="M290,-236c0,0,-253,348,-253,685c0,0,0,342,270,669l80,-39c0,0,-207,-311,-207,-622c0,0,0,-326,193,-652l-83,-41Z"
id="f6_g"
transform="scale(0.001,-0.001)"/>

<path d="M634,-49L249,296c0,0,-1,0,-3,0c-11,0,-48,1,-90,15c0,0,-51,16,-67,36l49,165l50,12l84,-98c0,0,125,31,191,104c0,0,66,73,66,165c0,0,0,109,-95,170c0,0,-2,0,-6,0C397,865,262,858,121,738L46,848c0,0,52,47,127,82c0,0,75,34,152,34c0,0,130,0,226,-94c0,0,95,-94,95,-218c0,0,0,-107,-77,-199c0,0,-77,-92,-216,-134L697,26L698,0L634,-49Z"
id="f6_n8"
transform="scale(0.001,-0.001)"/>

<path d="M130,-236l-83,41c0,0,193,326,193,652c0,0,0,311,-206,622l79,39c0,0,270,-327,270,-669c0,0,0,-337,-253,-685Z"
id="f6_h"
transform="scale(0.001,-0.001)"/>

<path d="M0,822l-45,76l14,31H61l46,-76L93,822Z"
id="f6_no"
transform="scale(0.001,-0.001)"/>

<path d="M768,-49L678,8V202c0,0,-73,-58,-172,-58c0,0,-123,0,-240,94c0,0,-118,94,-179,237l20,55c0,0,134,12,215,70c0,0,81,57,81,141c0,0,0,90,-67,134l-26,3c0,0,-46,0,-74,-29c0,0,-28,-30,-28,-68c0,0,0,-55,82,-109L252,620C252,620,93,720,93,820c0,0,0,65,47,104c0,0,46,40,114,40c0,0,99,0,179,-83c0,0,80,-83,82,-197c0,0,0,-93,-79,-165c0,0,-78,-73,-199,-97c0,0,29,-104,88,-158c0,0,42,-16,92,-16c0,0,78,0,151,38c0,0,74,38,110,111V822H553l-46,76l14,31H943l45,-76L975,822H739l66,-58V-39L768,-49Z"
id="f6_bq"
transform="scale(0.001,-0.001)"/>

<path d="M368,344c0,0,90,0,155,73V822H150l67,-58V438c0,0,46,-94,151,-94ZM613,-49L523,8V251c0,0,-48,-28,-103,-28c0,0,-122,0,-227,112C193,335,89,448,89,590V822H0l-45,76l14,31H1150l46,-76l-13,-31H584l65,-58V533c0,0,101,95,211,95c0,0,98,0,170,-79c0,0,73,-78,73,-185c0,0,0,-179,-225,-330L785,139c0,0,219,153,219,269c0,0,0,43,-26,75c0,0,-26,32,-80,32c0,0,-120,0,-249,-159V-39L613,-49Z"
id="f6_bw"
transform="scale(0.001,-0.001)"/>

<path d="M548,-57c0,0,-122,0,-243,81c0,0,-122,81,-252,280l57,41C110,345,283,64,498,64c0,0,92,0,153,49c0,0,61,49,61,121c0,0,0,46,-28,84L440,237c0,0,-73,11,-139,55c0,0,-66,44,-105,105c0,0,-40,61,-40,119c0,0,0,72,62,125c0,0,62,53,184,53H625V822H0l-45,76l14,31H906l46,-76L938,822H678l66,-58V562H431c0,0,-164,0,-164,-99c0,0,0,-55,57,-102l261,82c0,0,104,-21,172,-98c0,0,68,-78,68,-171c0,0,0,-99,-76,-166c0,0,-77,-65,-201,-65Z"
id="f6_bm"
transform="scale(0.001,-0.001)"/>

<path d="M228,-49L138,8V822H0l-45,76l14,31H134c0,0,-231,362,-445,362c0,0,-87,0,-135,-49c0,0,-48,-49,-48,-116c0,0,0,-73,43,-122l-45,-32c0,0,-119,108,-119,223c0,0,0,94,74,155c0,0,73,60,181,60c0,0,161,0,316,-134c0,0,154,-133,267,-347H402l46,-76L434,822H199l65,-58V-39L228,-49Z"
id="f6_oc"
transform="scale(0.001,-0.001)"/>

<path d="M348,229c0,0,57,0,106,17L263,559c0,0,-95,-50,-95,-162c0,0,0,-75,52,-136c0,0,49,-32,128,-32Zm170,48c0,0,61,38,96,91V504c0,0,-131,80,-244,80l-35,-2L518,277ZM704,-49L614,8V193c0,0,-84,-65,-192,-65c0,0,-139,0,-255,98c0,0,-115,98,-115,226c0,0,0,106,77,175c0,0,77,70,189,70c0,0,38,0,75,-9L614,578V822H0l-45,76l14,31H878l46,-76L911,822H675l66,-58V-39L704,-49Z"
id="f6_bx"
transform="scale(0.001,-0.001)"/>

<path d="M325,240c0,0,77,0,154,35c0,0,77,35,120,99V500c0,0,-118,73,-222,73c0,0,-97,0,-151,-54c0,0,-53,-53,-53,-128c0,0,0,-73,49,-125c0,0,38,-26,103,-26ZM689,-49L599,8V199c0,0,-73,-65,-179,-65c0,0,-134,0,-252,96c0,0,-118,95,-118,221c0,0,0,102,78,171c0,0,78,69,190,69c0,0,38,0,75,-10L599,582V822H0l-45,76l14,31H863l46,-76L895,822H660l66,-58V-39L689,-49Z"
id="f6_c7"
transform="scale(0.001,-0.001)"/>

<path d="M342,324c0,0,45,0,75,34c0,0,31,33,31,100V822H165l66,-58V390c0,0,32,-66,111,-66ZM853,-49L762,8V822H509l65,-58V455c0,0,0,-134,-51,-185c0,0,-52,-52,-127,-52c0,0,-98,0,-195,99c0,0,-97,99,-97,209V822H0l-45,76l14,31H1027l46,-76l-14,-31H823l66,-58V-39L853,-49Z"
id="f6_bo"
transform="scale(0.001,-0.001)"/>

<path d="M-239,897c0,0,-82,61,-132,137c0,0,-50,75,-50,150c0,0,0,78,52,133c0,0,52,55,141,55c0,0,98,0,176,-64l-23,-69c0,0,-52,32,-104,32c0,0,-57,0,-95,-36c0,0,-38,-36,-38,-95c0,0,0,-115,117,-217l-44,-26Z"
id="f6_dr"
transform="scale(0.001,-0.001)"/>

<path d="M527,-71L52,414l34,92H277c0,0,12,32,12,72V822H0l-45,76l14,31H940l45,-76L972,822H350l66,-55V570c0,0,146,98,247,98c0,0,95,0,167,-73c0,0,71,-72,71,-167c0,0,0,-77,-53,-142c0,0,-54,-64,-159,-136l-89,99c0,0,100,70,152,121c0,0,52,52,52,105c0,0,0,34,-23,60c0,0,-22,26,-72,26c0,0,-139,0,-434,-252L610,34L611,8L527,-71Z"
id="f6_n0"
transform="scale(0.001,-0.001)"/>

<path d="M0,1062c0,0,-26,11,-60,36c0,0,-34,26,-51,49c0,0,39,81,91,110c0,0,60,-23,106,-85c0,0,-28,-70,-86,-110Z"
id="f6_dj"
transform="scale(0.001,-0.001)"/>

<path d="M845,-49L755,8V513H497c0,0,61,-45,93,-110c0,0,33,-64,33,-128c0,0,0,-90,-58,-144c0,0,-59,-53,-143,-53c0,0,-133,0,-234,139C188,217,87,356,20,596l76,24c0,0,60,-201,127,-306c0,0,67,-105,160,-105c0,0,57,0,91,36c0,0,33,36,33,91c0,0,0,84,-73,159L295,558v71H755V822H0l-45,76l14,31H1019l46,-76l-14,-31H816l66,-58V-39L845,-49Z"
id="f6_bg"
transform="scale(0.001,-0.001)"/>

<path d="M483,-305L295,-10c0,0,-90,22,-156,74l41,170h66L351,63c0,0,126,4,207,62c0,0,82,58,82,139c0,0,0,37,-18,71L365,266c0,0,-110,15,-197,102c0,0,-87,87,-87,176c0,0,0,69,59,117c0,0,59,48,172,48H550V822H0l-45,76l14,31H822l46,-76L854,822H603l66,-58V585H373c0,0,-184,0,-184,-99c0,0,0,-48,63,-101l310,78c0,0,86,-34,141,-99c0,0,55,-65,55,-142c0,0,0,-109,-98,-179c0,0,-98,-69,-254,-69L599,-216L483,-305Z"
id="f6_an"
transform="scale(0.001,-0.001)"/>

<path d="M228,-49L138,8V822H0l-45,76l14,31H134c0,0,-91,93,-91,202c0,0,0,105,85,170c0,0,86,65,236,65c0,0,340,0,742,-350l-50,-46c0,0,-182,135,-340,208c0,0,-158,73,-302,73c0,0,-113,0,-183,-48c0,0,-69,-48,-69,-132c0,0,0,-63,53,-142H402l46,-76L434,822H199l65,-58V-39L228,-49Z"
id="f6_nt"
transform="scale(0.001,-0.001)"/>

<path d="M959,-49L869,8V367c0,0,-32,-13,-64,-13c0,0,-50,0,-110,25c0,0,23,-52,23,-109c0,0,0,-103,-70,-170c0,0,-70,-66,-182,-66c0,0,-110,0,-222,82c0,0,-111,83,-213,293l68,42c0,0,72,-155,152,-231c0,0,81,-76,178,-76c0,0,83,0,131,49c0,0,48,48,48,117c0,0,0,54,-30,100c0,0,-31,47,-91,65L325,391L257,512c0,0,68,53,156,56c0,0,140,72,140,179c0,0,0,69,-52,99c0,0,-4,1,-11,1c-19,0,-66,-4,-123,-30c0,0,-78,-35,-142,-96L150,823c0,0,119,117,253,117c0,0,98,0,175,-71c0,0,77,-70,77,-159c0,0,0,-103,-94,-180c0,0,39,-23,73,-56c0,0,52,-22,109,-22c0,0,77,0,126,38V822H727l-46,76l14,31h439l45,-76l-13,-31H930l66,-58V-39L959,-49Z"
id="f6_al"
transform="scale(0.001,-0.001)"/>

<path d="M830,-253l-123,66c0,0,31,47,31,78c0,0,0,44,-64,84L353,130c0,0,-234,113,-234,325V822H0l-45,76l14,31H848l46,-76L880,822H655l68,-58V561c0,0,0,-176,-41,-241c0,0,-40,-65,-161,-106l-49,82l124,69V822H180l66,-58V283L646,92c0,0,126,-60,176,-110c0,0,50,-51,50,-115c0,0,0,-62,-42,-120Z"
id="f6_ax"
transform="scale(0.001,-0.001)"/>

<path d="M483,-305L295,-10c0,0,-90,22,-156,74l41,170h66L351,63c0,0,126,4,207,62c0,0,82,58,82,139c0,0,0,37,-18,71L365,266c0,0,-110,15,-197,102c0,0,-87,87,-87,176c0,0,0,69,59,117c0,0,59,48,172,48H550V822H0l-45,76l14,31H550c0,0,-142,122,-142,255c0,0,0,78,52,133c0,0,52,55,140,55c0,0,98,0,176,-64l-23,-69c0,0,-53,32,-104,32c0,0,-56,0,-94,-36c0,0,-39,-36,-39,-95c0,0,0,-109,112,-211H822l46,-76L854,822H603l66,-58V585H373c0,0,-184,0,-184,-99c0,0,0,-48,63,-101l310,78c0,0,86,-34,141,-99c0,0,55,-65,55,-142c0,0,0,-109,-98,-179c0,0,-98,-69,-254,-69L599,-216L483,-305Z"
id="f6_ao"
transform="scale(0.001,-0.001)"/>

<path d="M226,-49c0,0,-66,24,-102,78c0,0,32,69,82,101c0,0,55,-20,100,-80c0,0,-26,-66,-80,-99Z"
id="f6_pc"
transform="scale(0.001,-0.001)"/>

<path d="M252,385l310,78l22,-9c0,0,107,-43,200,-43c0,0,91,0,151,41V822H603l66,-58V585H373c0,0,-184,0,-184,-99c0,0,0,-48,63,-101ZM483,-305L295,-10c0,0,-90,22,-156,74l41,170h66L351,63c0,0,126,4,207,62c0,0,82,58,82,139c0,0,0,37,-18,71L365,266c0,0,-110,15,-197,102c0,0,-87,87,-87,176c0,0,0,69,59,117c0,0,59,48,172,48H550V822H0l-45,76l14,31H1199l46,-76l-14,-31H996l66,-58V-39l-37,-10L935,8V318c0,0,-41,-15,-78,-15c0,0,-52,0,-131,30c0,0,32,-55,32,-111c0,0,0,-109,-98,-179c0,0,-98,-69,-254,-69L599,-216L483,-305Z"
id="f6_bh"
transform="scale(0.001,-0.001)"/>

<path d="M830,-253l-123,66c0,0,31,47,31,78c0,0,0,44,-64,84L353,130c0,0,-234,113,-234,325V822H0l-45,76l14,31H600L448,1144c0,0,-71,92,-158,92c0,0,-68,0,-159,-58L60,1296c0,0,88,73,180,73c0,0,140,0,258,-170L686,929H848l46,-76L880,822H655l68,-58V561c0,0,0,-176,-41,-241c0,0,-40,-65,-161,-106l-49,82l124,69V822H180l66,-58V283L646,92c0,0,126,-60,176,-110c0,0,50,-51,50,-115c0,0,0,-62,-42,-120Z"
id="f6_ay"
transform="scale(0.001,-0.001)"/>

<path d="M304,-74c0,0,-66,25,-102,79c0,0,32,68,82,100c0,0,55,-19,99,-79c0,0,-25,-66,-79,-100Zm64,418c0,0,90,0,155,73V822H150l67,-58V438c0,0,46,-94,151,-94ZM613,-49L523,8V251c0,0,-48,-28,-103,-28c0,0,-122,0,-227,112C193,335,89,448,89,590V822H0l-45,76l14,31H1150l46,-76l-13,-31H584l65,-58V533c0,0,101,95,211,95c0,0,98,0,170,-79c0,0,73,-78,73,-185c0,0,0,-179,-225,-330L785,139c0,0,219,153,219,269c0,0,0,43,-26,75c0,0,-26,32,-80,32c0,0,-120,0,-249,-159V-39L613,-49Z"
id="f6_cj"
transform="scale(0.001,-0.001)"/>

<path d="M-40,1030c0,0,-28,10,-61,36c0,0,-34,26,-51,49c0,0,38,81,90,110c0,0,61,-23,106,-85c0,0,-27,-71,-84,-110ZM-214,860l-227,219c0,0,-73,70,-148,70c0,0,-67,0,-160,-58l-72,117c0,0,83,71,176,71c0,0,120,0,232,-124L-221,940l-102,294c0,0,-64,179,-189,179c0,0,-60,0,-133,-33l-60,125c0,0,84,47,164,47c0,0,200,0,281,-276L-150,901l-23,-15l-41,-26Z"
id="f6_p3"
transform="scale(0.001,-0.001)"/>

<path d="M-234,-413c0,0,-210,0,-488,322l54,49c0,0,119,-128,209,-193c0,0,90,-65,177,-65c0,0,72,0,113,40c0,0,42,39,42,91c0,0,0,75,-78,106L-323,-181l-90,98c0,0,63,95,167,95c0,0,90,0,155,-69c0,0,66,-70,66,-164c0,0,0,-85,-60,-139c0,0,-61,-53,-149,-53Z"
id="f6_cw"
transform="scale(0.001,-0.001)"/>

<path d="M228,-49L138,8V822H0l-45,76l14,31H136c0,0,-173,353,-364,353c0,0,-75,0,-119,-44c0,0,-45,-45,-45,-106c0,0,0,-69,48,-128l-43,-32c0,0,-124,113,-124,224c0,0,0,87,67,146c0,0,68,59,167,59c0,0,150,0,283,-130c0,0,135,-130,219,-342H402l46,-76L434,822H199l65,-58V-39L228,-49Z"
id="f6_ob"
transform="scale(0.001,-0.001)"/>

<path d="M761,293c0,0,127,0,169,94V532c0,0,-68,46,-145,46c0,0,-76,0,-121,-46c0,0,-45,-45,-45,-107c0,0,0,-61,44,-110c0,0,47,-22,98,-22ZM657,67c0,0,166,0,273,107v55c0,0,-45,-36,-111,-36c0,0,-110,0,-207,90c0,0,-97,90,-97,194c0,0,0,85,66,148c0,0,65,63,155,63l48,-5L930,603V822H376l62,-55V579c0,0,0,-60,-23,-102c0,0,-24,-42,-148,-190c0,0,66,-104,175,-162c0,0,108,-58,215,-58ZM1021,-49L930,8V53c0,0,-105,-83,-264,-83c0,0,-177,0,-339,128C327,98,165,226,90,429l34,77H296c0,0,19,39,19,102l-2,214H0l-45,76l14,31H1195l46,-76l-14,-31H992l65,-58V-39l-36,-10Z"
id="f6_ba"
transform="scale(0.001,-0.001)"/>

<path d="M-91,1001c0,0,-27,10,-61,36c0,0,-33,26,-50,49c0,0,38,81,90,110c0,0,61,-23,107,-85c0,0,-28,-71,-86,-110ZM-214,863l-199,281c0,0,-70,92,-157,92c0,0,-69,0,-159,-58l-72,118c0,0,89,73,180,73c0,0,141,0,258,-170L-155,901l-59,-38Z"
id="f6_oz"
transform="scale(0.001,-0.001)"/>

<path d="M449,79c0,0,103,0,168,61c0,0,66,60,66,149c0,0,0,93,-84,186H420c0,0,-107,0,-164,-50c0,0,-57,-51,-57,-126c0,0,0,-108,99,-184c0,0,81,-36,151,-36Zm67,-96c0,0,-168,0,-301,109C215,92,81,202,81,350c0,0,0,114,83,182c0,0,84,68,229,68H507V822H0l-45,76l14,31H883l46,-76L915,822H568l66,-58V532c0,0,87,-64,130,-144c0,0,43,-79,43,-157c0,0,0,-109,-81,-179c0,0,-81,-69,-210,-69Z"
id="f6_bl"
transform="scale(0.001,-0.001)"/>

<path d="M61,-393c0,0,-156,214,-210,261c0,0,-55,47,-110,47c0,0,-53,0,-85,-29c0,0,-32,-30,-32,-71c0,0,0,-48,38,-80l137,87l58,-107c0,0,-67,-52,-134,-52c0,0,-73,0,-134,60c0,0,-60,60,-60,133c0,0,0,67,56,117c0,0,55,50,130,50c0,0,78,0,160,-69c0,0,82,-71,246,-309L61,-393Z"
id="f6_of"
transform="scale(0.001,-0.001)"/>

<path d="M527,-71L52,414l34,92H277c0,0,12,32,12,72V822H0l-45,76l14,31H654l46,-76L686,822H350l66,-55V564c0,0,0,-43,-25,-89H782L798,370H315L264,316L610,34L611,8L527,-71Z"
id="f6_m1"
transform="scale(0.001,-0.001)"/>

<path d="M228,-49L138,8V822H0l-45,76l14,31H133c0,0,-93,95,-93,206c0,0,0,96,68,159c0,0,68,63,179,63c0,0,118,0,228,-81c0,0,110,-80,258,-262L720,970L588,1109c0,0,-133,133,-253,133c0,0,-78,0,-127,-46c0,0,-49,-46,-49,-119c0,0,0,-69,56,-148H402l46,-76L434,822H199l65,-58V-39L228,-49Z"
id="f6_nr"
transform="scale(0.001,-0.001)"/>

<path d="M513,460c0,0,61,81,61,179c0,0,0,87,-45,143c0,0,-45,57,-116,57c0,0,-63,0,-102,-43c0,0,-39,-43,-39,-110c0,0,0,-90,68,-151c0,0,68,-61,173,-75ZM581,-83L278,167l-41,-4c0,0,-99,0,-130,37l47,168l51,12l78,-79c0,0,110,40,183,105c0,0,-141,23,-231,107c0,0,-90,84,-90,193c0,0,0,69,37,116H0l-45,76l14,31H798l45,-76L830,822H588c0,0,51,-44,75,-109c0,0,25,-64,25,-122c0,0,0,-105,-81,-213c0,0,-80,-108,-240,-176L658,18l2,-25L581,-83Z"
id="f6_ly"
transform="scale(0.001,-0.001)"/>

<path d="M725,307c0,0,-95,0,-218,78c0,0,-123,78,-188,78c0,0,-54,0,-95,-34c0,0,-41,-34,-73,-100L93,362c0,0,38,88,101,146c0,0,63,59,148,59c0,0,90,0,214,-78c0,0,124,-79,188,-79c0,0,63,0,106,34c0,0,42,33,85,104l60,-40c0,0,-32,-66,-101,-134c0,0,-70,-67,-169,-67Z"
id="f7_4r"
transform="scale(0.001,-0.001)"/>

<path d="M435,92c0,0,85,0,146,69c0,0,60,68,60,186c0,0,0,114,-60,179c0,0,-60,66,-152,66c0,0,-90,0,-154,-66c0,0,-63,-65,-63,-171c0,0,0,-70,30,-133c0,0,29,-64,82,-97c0,0,52,-33,111,-33Zm2,-110c0,0,-168,0,-273,123C164,105,58,228,58,512c0,0,0,317,117,461c0,0,102,125,275,125c0,0,129,0,211,-72c0,0,82,-72,99,-200L626,815c0,0,-18,79,-51,115c0,0,-54,58,-134,58c0,0,-64,0,-112,-36c0,0,-63,-46,-99,-135c0,0,-37,-89,-38,-253c0,0,48,74,118,110c0,0,70,36,147,36c0,0,134,0,228,-99c0,0,94,-99,94,-256c0,0,0,-103,-44,-191C735,164,691,75,613,28c0,0,-77,-46,-176,-46Z"
id="f8_q"
transform="scale(0.001,-0.001)"/>

<path d="M420,92c0,0,92,0,155,89c0,0,64,89,64,358c0,0,0,270,-63,359c0,0,-63,89,-158,89c0,0,-92,0,-147,-79c0,0,-70,-100,-70,-369c0,0,0,-269,63,-358c0,0,63,-89,156,-89Zm0,-110c0,0,-158,0,-248,112C172,94,64,231,64,539c0,0,0,194,39,313c0,0,40,118,119,182c0,0,79,64,198,64c0,0,88,0,155,-35c0,0,66,-36,109,-103c0,0,43,-66,68,-162c0,0,24,-96,24,-259c0,0,0,-192,-39,-311C737,228,697,110,619,46c0,0,-79,-64,-199,-64Z"
id="f8_k"
transform="scale(0.001,-0.001)"/>


</defs>
</svg>