<?xml version="1.0" encoding="UTF-8" standalone="no"?>
<!DOCTYPE svg PUBLIC "-//W3C//DTD SVG 1.1//EN"
"http://www.w3.org/Graphics/SVG/1.1/DTD/svg11.dtd">
<svg viewBox="0 0 641 910" version="1.1" xmlns="http://www.w3.org/2000/svg" xmlns:xlink="http://www.w3.org/1999/xlink">
<defs>
<clipPath id="c0_109"><path d="M0,909.8V0H641.7V909.8Z"/></clipPath>
<clipPath id="c1_109"><path d="M0,908.6V0H641.7V908.6Z"/></clipPath>
<style type="text/css"><![CDATA[
.g0_109{
fill: #FFFFFF;
}
.g1_109{
}
]]></style>
</defs>
<path d="M0,0H641.7V909.8H0V0Z" class="g0_109"/>
<path d="M0,0H641.7V909.8H0V0Z" class="g0_109"/>
<g clip-path="url(#c0_109)">
<path d="M0,-92798.7H641.7V13646.9H0V-92798.7Z" class="g0_109"/>
</g>
<path d="M0,0H641.7V908.6H0V0Z" class="g0_109"/>
<path d="M19.5,60.7H602.7v1.2H19.5V60.7Z" class="g1_109"/>
<g clip-path="url(#c1_109)">
<path d="M0,61.9H641.7V909.8H0V61.9Z" class="g0_109"/>
<g fill="#000000" >
<use xlink:href="#f6_bb" transform="matrix(14,0,0,14,172.2,82.5)" />
<use xlink:href="#f6_ct" transform="matrix(14,0,0,14,184.8,82.5)" />
<use xlink:href="#f6_bz" transform="matrix(14,0,0,14,190.4,82.5)" />
<use xlink:href="#f6_bb" transform="matrix(14,0,0,14,209.4,82.5)" />
<use xlink:href="#f6_ct" transform="matrix(14,0,0,14,222,82.5)" />
<use xlink:href="#f6_bz" transform="matrix(14,0,0,14,227.7,82.5)" />
<use xlink:href="#f6_no" transform="matrix(14,0,0,14,241,82.5)" />
<use xlink:href="#f6_bq" transform="matrix(14,0,0,14,241,82.5)" />
<use xlink:href="#f6_cv" transform="matrix(14,0,0,14,254.2,82.5)" />
<use xlink:href="#f6_by" transform="matrix(14,0,0,14,265.5,82.5)" />
<use xlink:href="#f6_l1" transform="matrix(14,0,0,14,279.4,82.5)" />
<use xlink:href="#f6_bp" transform="matrix(14,0,0,14,291.3,82.5)" />
<use xlink:href="#f6_bp" transform="matrix(14,0,0,14,309.3,82.5)" />
<use xlink:href="#f6_bz" transform="matrix(14,0,0,14,321.6,82.5)" />
<use xlink:href="#f6_d4" transform="matrix(14,0,0,14,335.1,82.5)" />
<use xlink:href="#f6_c7" transform="matrix(14,0,0,14,340.6,82.5)" />
<use xlink:href="#f6_cc" transform="matrix(14,0,0,14,352.7,82.5)" />
<use xlink:href="#f6_d4" transform="matrix(14,0,0,14,364.6,82.5)" />
<use xlink:href="#f6_c3" transform="matrix(14,0,0,14,364.3,82.5)" />
<use xlink:href="#f6_ct" transform="matrix(14,0,0,14,379,82.5)" />
<use xlink:href="#f6_am" transform="matrix(14,0,0,14,390.3,82.5)" />
<use xlink:href="#f6_c7" transform="matrix(14,0,0,14,411.8,82.5)" />
<use xlink:href="#f6_d8" transform="matrix(14,0,0,14,423.8,82.5)" />
<use xlink:href="#f6_c1" transform="matrix(14,0,0,14,435.1,82.5)" />
<use xlink:href="#f6_d4" transform="matrix(14,0,0,14,443.1,82.5)" />
<use xlink:href="#f6_k" transform="matrix(14,0,0,14,443.5,82.5)" />
<use xlink:href="#f6_bz" transform="matrix(14,0,0,14,161.9,115.7)" />
<use xlink:href="#f6_ct" transform="matrix(14,0,0,14,175.2,115.7)" />
<use xlink:href="#f6_c1" transform="matrix(14,0,0,14,180.8,115.7)" />
<use xlink:href="#f6_ct" transform="matrix(14,0,0,14,189.2,115.7)" />
<use xlink:href="#f6_e6" transform="matrix(14,0,0,14,200.5,115.7)" />
<use xlink:href="#f6_by" transform="matrix(14,0,0,14,212.6,115.7)" />
<use xlink:href="#f6_cw" transform="matrix(14,0,0,14,227.1,115.6)" />
<use xlink:href="#f6_bg" transform="matrix(14,0,0,14,226.5,115.7)" />
<use xlink:href="#f6_cv" transform="matrix(14,0,0,14,240.8,115.7)" />
<use xlink:href="#f6_bt" transform="matrix(14,0,0,14,246.4,115.7)" />
<use xlink:href="#f6_cv" transform="matrix(14,0,0,14,258.1,115.7)" />
<use xlink:href="#f6_bp" transform="matrix(14,0,0,14,269.4,115.7)" />
<use xlink:href="#f6_bz" transform="matrix(14,0,0,14,281.7,115.7)" />
<use xlink:href="#f6_d4" transform="matrix(14,0,0,14,295.2,115.7)" />
<use xlink:href="#f6_cb" transform="matrix(14,0,0,14,300.7,115.7)" />
<use xlink:href="#f6_cw" transform="matrix(14,0,0,14,316.1,115.6)" />
<use xlink:href="#f6_lj" transform="matrix(14,0,0,14,315.6,115.7)" />
<use xlink:href="#f6_br" transform="matrix(14,0,0,14,321.4,115.7)" />
<use xlink:href="#f6_c1" transform="matrix(14,0,0,14,333.1,115.7)" />
<use xlink:href="#f6_by" transform="matrix(14,0,0,14,347.1,115.7)" />
<use xlink:href="#f6_o0" transform="matrix(14,0,0,14,361.1,115.7)" />
<use xlink:href="#f6_l1" transform="matrix(14,0,0,14,366.7,115.7)" />
<use xlink:href="#f6_bp" transform="matrix(14,0,0,14,378.6,115.7)" />
<use xlink:href="#f6_b9" transform="matrix(14,0,0,14,396.5,115.7)" />
<use xlink:href="#f6_c1" transform="matrix(14,0,0,14,412,115.7)" />
<use xlink:href="#f6_bg" transform="matrix(14,0,0,14,420.4,115.7)" />
<use xlink:href="#f6_d8" transform="matrix(14,0,0,14,434.7,115.7)" />
<use xlink:href="#f6_c1" transform="matrix(14,0,0,14,446,115.7)" />
<use xlink:href="#f6_d4" transform="matrix(14,0,0,14,453.9,115.7)" />
<use xlink:href="#f6_k" transform="matrix(14,0,0,14,454.3,115.7)" />
<use xlink:href="#f6_bv" transform="matrix(14,0,0,14,153.8,149)" />
<use xlink:href="#f6_cx" transform="matrix(14,0,0,14,165.7,148.9)" />
<use xlink:href="#f6_bg" transform="matrix(14,0,0,14,165.7,149)" />
<use xlink:href="#f6_ct" transform="matrix(14,0,0,14,180,149)" />
<use xlink:href="#f6_by" transform="matrix(14,0,0,14,191.3,149)" />
<use xlink:href="#f6_bo" transform="matrix(14,0,0,14,205.2,149)" />
<use xlink:href="#f6_ct" transform="matrix(14,0,0,14,219.6,149)" />
<use xlink:href="#f6_c7" transform="matrix(14,0,0,14,225.2,149)" />
<use xlink:href="#f6_d8" transform="matrix(14,0,0,14,237.3,149)" />
<use xlink:href="#f6_k" transform="matrix(14,0,0,14,242.9,149)" />
<use xlink:href="#f6_by" transform="matrix(14,0,0,14,253.8,149)" />
<use xlink:href="#f6_ct" transform="matrix(14,0,0,14,267.7,149)" />
<use xlink:href="#f6_c7" transform="matrix(14,0,0,14,273.4,149)" />
<use xlink:href="#f6_bt" transform="matrix(14,0,0,14,285.4,149)" />
<use xlink:href="#f6_ct" transform="matrix(14,0,0,14,297.2,149)" />
<use xlink:href="#f6_by" transform="matrix(14,0,0,14,308.4,149)" />
<use xlink:href="#f6_ct" transform="matrix(14,0,0,14,322.4,149)" />
<use xlink:href="#f6_c7" transform="matrix(14,0,0,14,328,149)" />
<use xlink:href="#f6_d8" transform="matrix(14,0,0,14,340.1,149)" />
<use xlink:href="#f6_k" transform="matrix(14,0,0,14,345.7,149)" />
<use xlink:href="#f6_bb" transform="matrix(14,0,0,14,356.6,149)" />
<use xlink:href="#f6_cv" transform="matrix(14,0,0,14,369.2,149)" />
<use xlink:href="#f6_bp" transform="matrix(14,0,0,14,374.8,149)" />
<use xlink:href="#f6_ch" transform="matrix(14,0,0,14,387.2,149)" />
<use xlink:href="#f6_ct" transform="matrix(14,0,0,14,399.8,149)" />
<use xlink:href="#f6_dj" transform="matrix(14,0,0,14,400,149.4)" />
<use xlink:href="#f6_bb" transform="matrix(14,0,0,14,411.1,149)" />
<use xlink:href="#f6_ct" transform="matrix(14,0,0,14,423.7,149)" />
<use xlink:href="#f6_c7" transform="matrix(14,0,0,14,429.4,149)" />
<use xlink:href="#f6_d8" transform="matrix(14,0,0,14,441.4,149)" />
<use xlink:href="#f6_c1" transform="matrix(14,0,0,14,452.7,149)" />
<use xlink:href="#f6_d4" transform="matrix(14,0,0,14,460.7,149)" />
<use xlink:href="#f6_k" transform="matrix(14,0,0,14,461.1,149)" />
<use xlink:href="#f6_bz" transform="matrix(14,0,0,14,137.8,182.2)" />
<use xlink:href="#f6_ct" transform="matrix(14,0,0,14,151.1,182.2)" />
<use xlink:href="#f6_c1" transform="matrix(14,0,0,14,156.8,182.2)" />
<use xlink:href="#f6_ct" transform="matrix(14,0,0,14,165.1,182.2)" />
<use xlink:href="#f6_br" transform="matrix(14,0,0,14,176.4,182.2)" />
<use xlink:href="#f6_ct" transform="matrix(14,0,0,14,188.1,182.2)" />
<use xlink:href="#f6_br" transform="matrix(14,0,0,14,193.7,182.2)" />
<use xlink:href="#f6_ct" transform="matrix(14,0,0,14,205.4,182.2)" />
<use xlink:href="#f6_bt" transform="matrix(14,0,0,14,211,182.2)" />
<use xlink:href="#f6_cv" transform="matrix(14,0,0,14,222.7,182.2)" />
<use xlink:href="#f6_bp" transform="matrix(14,0,0,14,234,182.2)" />
<use xlink:href="#f6_bz" transform="matrix(14,0,0,14,246.3,182.2)" />
<use xlink:href="#f6_d4" transform="matrix(14,0,0,14,259.8,182.2)" />
<use xlink:href="#f6_cb" transform="matrix(14,0,0,14,265.3,182.2)" />
<use xlink:href="#f6_cw" transform="matrix(14,0,0,14,280.8,182.1)" />
<use xlink:href="#f6_dj" transform="matrix(14,0,0,14,273.9,182.6)" />
<use xlink:href="#f6_br" transform="matrix(14,0,0,14,280.2,182.2)" />
<use xlink:href="#f6_c1" transform="matrix(14,0,0,14,291.9,182.2)" />
<use xlink:href="#f6_by" transform="matrix(14,0,0,14,305.9,182.2)" />
<use xlink:href="#f6_o0" transform="matrix(14,0,0,14,319.9,182.2)" />
<use xlink:href="#f6_l1" transform="matrix(14,0,0,14,325.5,182.2)" />
<use xlink:href="#f6_bp" transform="matrix(14,0,0,14,337.4,182.2)" />
<use xlink:href="#f6_b9" transform="matrix(14,0,0,14,355.4,182.2)" />
<use xlink:href="#f6_c1" transform="matrix(14,0,0,14,370.9,182.2)" />
<use xlink:href="#f6_bg" transform="matrix(14,0,0,14,379.2,182.2)" />
<use xlink:href="#f6_d8" transform="matrix(14,0,0,14,393.5,182.2)" />
<use xlink:href="#f6_c1" transform="matrix(14,0,0,14,404.8,182.2)" />
<use xlink:href="#f6_d4" transform="matrix(14,0,0,14,412.8,182.2)" />
<use xlink:href="#f6_pc" transform="matrix(14,0,0,14,413.2,182.2)" />
<use xlink:href="#f6_pc" transform="matrix(14,0,0,14,417.4,182.2)" />
<use xlink:href="#f6_pc" transform="matrix(14,0,0,14,421.7,182.2)" />
<use xlink:href="#f6_bv" transform="matrix(14,0,0,14,431.7,182.2)" />
<use xlink:href="#f6_dj" transform="matrix(14,0,0,14,437.9,182.6)" />
<use xlink:href="#f6_ba" transform="matrix(14,0,0,14,443.5,182.2)" />
<use xlink:href="#f6_cv" transform="matrix(14,0,0,14,460.2,182.2)" />
<use xlink:href="#f6_ch" transform="matrix(14,0,0,14,465.9,182.2)" />
<use xlink:href="#f6_ct" transform="matrix(14,0,0,14,478.5,182.2)" />
<use xlink:href="#f7_4r" transform="matrix(9,0,0,9,286.8,795.2)" />
<use xlink:href="#f8_l" transform="matrix(9,0,0,9,299.6,795.2)" />
<use xlink:href="#f8_k" transform="matrix(9,0,0,9,307.2,795.2)" />
<use xlink:href="#f8_n" transform="matrix(9,0,0,9,314.9,795.2)" />
<use xlink:href="#f7_4r" transform="matrix(9,0,0,9,325.6,795.2)" />
</g>
</g>
<image preserveAspectRatio="none" x="22" y="801" width="581" height="86" xlink:href="img/1.png"/>
<image preserveAspectRatio="none" x="202" y="14" width="217" height="26" xlink:href="img/2.png"/>
<defs>
<path d="M727,-49L637,8V822H278l66,-58V226L270,196c0,0,-64,36,-122,98c0,0,-58,62,-79,122l43,59H217V822H0l-45,76l14,31H901l46,-76L933,822H698l66,-58V-39L727,-49Z"
id="f6_bb"
transform="scale(0.001,-0.001)"/>

<path d="M228,-49L138,8V822H0l-45,76l14,31H402l46,-76L434,822H199l65,-58V-39L228,-49Z"
id="f6_ct"
transform="scale(0.001,-0.001)"/>

<path d="M689,445V822H286l65,-58l8,-319ZM779,-49L689,8V328H370V180L296,150c0,0,-56,35,-120,104c0,0,-63,70,-89,131l41,60H238L223,822H0l-45,76l14,31H953l46,-76L985,822H750l66,-58V-39L779,-49Z"
id="f6_bz"
transform="scale(0.001,-0.001)"/>

<path d="M0,822l-45,76l14,31H61l46,-76L93,822Z"
id="f6_no"
transform="scale(0.001,-0.001)"/>

<path d="M768,-49L678,8V202c0,0,-73,-58,-172,-58c0,0,-123,0,-240,94c0,0,-118,94,-179,237l20,55c0,0,134,12,215,70c0,0,81,57,81,141c0,0,0,90,-67,134l-26,3c0,0,-46,0,-74,-29c0,0,-28,-30,-28,-68c0,0,0,-55,82,-109L252,620C252,620,93,720,93,820c0,0,0,65,47,104c0,0,46,40,114,40c0,0,99,0,179,-83c0,0,80,-83,82,-197c0,0,0,-93,-79,-165c0,0,-78,-73,-199,-97c0,0,29,-104,88,-158c0,0,42,-16,92,-16c0,0,78,0,151,38c0,0,74,38,110,111V822H553l-46,76l14,31H943l45,-76L975,822H739l66,-58V-39L768,-49Z"
id="f6_bq"
transform="scale(0.001,-0.001)"/>

<path d="M228,-49L138,8V822H0l-45,76l14,31H138c0,0,-109,342,-284,342c0,0,-62,0,-102,-40c0,0,-40,-39,-40,-93c0,0,0,-61,51,-134l-42,-32c0,0,-128,113,-128,226c0,0,0,79,60,136c0,0,61,56,154,56c0,0,137,0,249,-125c0,0,112,-125,169,-336H402l46,-76L434,822H199l65,-58V-39L228,-49Z"
id="f6_cv"
transform="scale(0.001,-0.001)"/>

<path d="M823,-49L733,8V339H445V191L371,160c0,0,-56,36,-120,105c0,0,-63,70,-89,131l41,59H313V735c0,0,0,99,-55,140c0,0,-3,1,-8,1c-16,0,-48,-3,-71,-23c0,0,-31,-26,-31,-66c0,0,0,-69,81,-113L189,620C189,620,31,720,31,828c0,0,0,61,45,99c0,0,46,37,109,37c0,0,96,0,173,-86c0,0,76,-87,79,-194V455H733V822H556l-46,76l14,31H998l45,-76l-13,-31H794l66,-58V-39L823,-49Z"
id="f6_by"
transform="scale(0.001,-0.001)"/>

<path d="M283,260c0,0,122,0,209,113V513c0,0,-90,51,-160,51c0,0,-80,0,-129,-50c0,0,-49,-50,-49,-118c0,0,0,-60,35,-110c0,0,45,-26,94,-26ZM582,-49L492,8V211c0,0,-63,-54,-141,-54c0,0,-113,0,-214,92c0,0,-102,92,-102,206c0,0,0,93,69,157c0,0,69,63,163,63c0,0,34,0,66,-9L492,590V822H0l-45,76l14,31H909l46,-76L941,822H553l66,-58V521c0,0,93,104,192,104c0,0,63,0,120,-42c0,0,57,-42,82,-106L964,431l-5,9c0,0,-38,72,-110,72c0,0,-51,0,-105,-41c0,0,-53,-42,-125,-129V-39L582,-49Z"
id="f6_l1"
transform="scale(0.001,-0.001)"/>

<path d="M347,-57C347,-57,66,211,66,394c0,0,0,98,74,164c0,0,74,65,225,65H616V822H0l-45,76l14,31H880l46,-76L912,822H677l66,-58V-39L706,-49L616,8V500H428c0,0,-239,0,-239,-161c0,0,0,-136,214,-343L347,-57Z"
id="f6_bp"
transform="scale(0.001,-0.001)"/>

<path d="M-214,863l-199,281c0,0,-70,92,-157,92c0,0,-69,0,-159,-58l-72,118c0,0,89,73,180,73c0,0,141,0,258,-170L-155,901l-59,-38Z"
id="f6_d4"
transform="scale(0.001,-0.001)"/>

<path d="M325,240c0,0,77,0,154,35c0,0,77,35,120,99V500c0,0,-118,73,-222,73c0,0,-97,0,-151,-54c0,0,-53,-53,-53,-128c0,0,0,-73,49,-125c0,0,38,-26,103,-26ZM689,-49L599,8V199c0,0,-73,-65,-179,-65c0,0,-134,0,-252,96c0,0,-118,95,-118,221c0,0,0,102,78,171c0,0,78,69,190,69c0,0,38,0,75,-10L599,582V822H0l-45,76l14,31H863l46,-76L895,822H660l66,-58V-39L689,-49Z"
id="f6_c7"
transform="scale(0.001,-0.001)"/>

<path d="M688,-243c0,0,-256,53,-408,173c0,0,-152,119,-152,270c0,0,0,101,68,171c0,0,-101,84,-101,179c0,0,0,64,53,112c0,0,54,47,191,47H587V822H0l-45,76l14,31H830l45,-76L862,822H640l66,-58V585H362c0,0,-159,-1,-159,-92c0,0,0,-41,46,-80c0,0,76,47,183,47c0,0,135,0,230,-76c0,0,96,-75,96,-187C758,197,758,67,629,2L545,104c0,0,49,30,81,75c0,0,32,44,32,82c0,0,0,16,-4,26c0,0,-64,58,-167,58c0,0,-97,0,-166,-50v-2c0,0,-67,-52,-67,-131c0,0,0,-116,132,-199c0,0,132,-84,334,-132l-32,-74Z"
id="f6_cc"
transform="scale(0.001,-0.001)"/>

<path d="M413,-59C413,-59,53,193,53,416c0,0,0,97,66,164c0,0,66,66,156,66c0,0,61,0,110,-30L487,507c0,0,92,126,257,126l35,-2V822H0l-45,76l14,31H1043l46,-76l-13,-31H840l66,-58V-39L869,-49L779,8V547c0,0,-101,-5,-165,-90c0,0,-64,-86,-70,-222L507,225l-90,73c0,0,5,79,35,151c0,0,-59,66,-128,66c0,0,-57,0,-100,-38c0,0,-44,-39,-44,-109c0,0,0,-165,284,-360L413,-59Z"
id="f6_c3"
transform="scale(0.001,-0.001)"/>

<path d="M959,-49L869,8V367c0,0,-32,-13,-64,-13c0,0,-50,0,-110,25c0,0,23,-52,23,-109c0,0,0,-103,-70,-170c0,0,-70,-66,-182,-66c0,0,-110,0,-222,82c0,0,-111,83,-213,293l68,42c0,0,72,-155,152,-231c0,0,81,-76,178,-76c0,0,83,0,131,49c0,0,48,48,48,117c0,0,0,54,-30,100c0,0,-31,47,-91,65L325,391L257,512c0,0,68,53,156,56c0,0,140,72,140,179c0,0,0,69,-52,99c0,0,-4,1,-11,1c-19,0,-66,-4,-123,-30c0,0,-78,-35,-142,-96L150,823c0,0,119,117,253,117c0,0,98,0,175,-71c0,0,77,-70,77,-159c0,0,0,-103,-94,-180c0,0,39,-23,73,-56c0,0,52,-22,109,-22c0,0,77,0,126,38V822H727l-46,76l14,31h840l46,-76l-13,-31H1332l66,-58V-39l-37,-10L1271,8V822H930l66,-58V-39L959,-49Z"
id="f6_am"
transform="scale(0.001,-0.001)"/>

<path d="M228,-49L138,8V822H0l-45,76l14,31H119L-33,1144c0,0,-70,92,-157,92c0,0,-69,0,-159,-58l-72,118c0,0,89,73,181,73c0,0,140,0,257,-170L205,929H402l46,-76L434,822H199l65,-58V-39L228,-49Z"
id="f6_d8"
transform="scale(0.001,-0.001)"/>

<path d="M527,-71L52,414l34,92H277c0,0,12,32,12,72V822H0l-45,76l14,31H599l46,-76L631,822H350l66,-55V564c0,0,0,-96,-152,-248L610,34L611,8L527,-71Z"
id="f6_c1"
transform="scale(0.001,-0.001)"/>

<path d="M108,-222l-44,58c0,0,96,81,104,164L89,61c0,0,12,83,93,122c0,0,50,-15,79,-55c0,0,29,-39,29,-90c0,0,0,-69,-48,-142c0,0,-48,-72,-134,-118Z"
id="f6_k"
transform="scale(0.001,-0.001)"/>

<path d="M396,318c0,0,123,0,203,108V822H180l66,-58V408c0,0,49,-90,150,-90ZM176,-66L79,9L379,228c0,0,-106,23,-181,119c0,0,-76,96,-79,198V822H0l-45,76l14,31H863l46,-76L895,822H660l66,-58V-39L689,-49L599,8V269L176,-66Z"
id="f6_e6"
transform="scale(0.001,-0.001)"/>

<path d="M-234,-413c0,0,-210,0,-488,322l54,49c0,0,119,-128,209,-193c0,0,90,-65,177,-65c0,0,72,0,113,40c0,0,42,39,42,91c0,0,0,75,-78,106L-323,-181l-90,98c0,0,63,95,167,95c0,0,90,0,155,-69c0,0,66,-70,66,-164c0,0,0,-85,-60,-139c0,0,-61,-53,-149,-53Z"
id="f6_cw"
transform="scale(0.001,-0.001)"/>

<path d="M845,-49L755,8V513H497c0,0,61,-45,93,-110c0,0,33,-64,33,-128c0,0,0,-90,-58,-144c0,0,-59,-53,-143,-53c0,0,-133,0,-234,139C188,217,87,356,20,596l76,24c0,0,60,-201,127,-306c0,0,67,-105,160,-105c0,0,57,0,91,36c0,0,33,36,33,91c0,0,0,84,-73,159L295,558v71H755V822H0l-45,76l14,31H1019l46,-76l-14,-31H816l66,-58V-39L845,-49Z"
id="f6_bg"
transform="scale(0.001,-0.001)"/>

<path d="M663,-49L573,8V445H299V280L226,251c0,0,-105,99,-162,238l63,72H573V822H0l-45,76l14,31H837l46,-76L869,822H634l66,-58V-39L663,-49Z"
id="f6_bt"
transform="scale(0.001,-0.001)"/>

<path d="M799,475V822H350l66,-55V564c0,0,0,-43,-25,-89ZM527,-71L52,414l34,92H277c0,0,12,32,12,72V822H0l-45,76l14,31H1063l46,-76l-14,-31H860l66,-58V-39L889,-49L799,8V370H315L264,316L610,34L611,8L527,-71Z"
id="f6_cb"
transform="scale(0.001,-0.001)"/>

<path d="M180,196c0,0,-105,99,-162,238l63,72H573l40,-86L591,390H254V225L180,196ZM0,822l-45,76l14,31H409l46,-76L442,822Z"
id="f6_lj"
transform="scale(0.001,-0.001)"/>

<path d="M675,-274L602,21C602,21,550,3,498,3C498,3,347,3,210,118C210,118,73,232,73,373c0,0,0,113,84,184c0,0,84,71,222,72H524V822H0l-45,76l14,31H834l46,-76L866,822H585l66,-58V504l-3,2l3,-3H408c0,0,-95,0,-154,-53c0,0,-58,-53,-58,-132c0,0,0,-49,27,-100c0,0,28,-50,83,-84c0,0,44,-15,96,-15c0,0,91,0,160,46L535,303l101,48L773,188c0,0,-8,-28,-34,-66c0,0,-27,-38,-62,-64L813,-221L675,-274Z"
id="f6_br"
transform="scale(0.001,-0.001)"/>

<path d="M228,-49L138,8V822H0l-45,76l14,31H134c0,0,-85,93,-85,192c0,0,0,124,129,195c0,0,129,71,364,71c0,0,285,0,647,-97c0,0,363,-97,692,-271l-42,-50c0,0,-313,137,-644,221c0,0,-332,84,-595,84c0,0,-198,0,-314,-55c0,0,-115,-55,-115,-163c0,0,0,-60,44,-127H402l46,-76L434,822H199l65,-58V-39L228,-49Z"
id="f6_o0"
transform="scale(0.001,-0.001)"/>

<path d="M283,260c0,0,122,0,209,113V513c0,0,-90,51,-160,51c0,0,-80,0,-129,-50c0,0,-49,-50,-49,-118c0,0,0,-60,35,-110c0,0,45,-26,94,-26ZM582,-49L492,8V211c0,0,-63,-54,-141,-54c0,0,-113,0,-213,92c0,0,-100,92,-100,205c0,0,0,93,69,157c0,0,69,64,162,64c0,0,32,0,64,-9L492,590V822H0l-45,76l14,31H1108l45,-76l-13,-31H553l66,-58V524c0,0,91,89,192,89c0,0,98,0,171,-79c0,0,72,-79,72,-186c0,0,0,-178,-224,-330L736,124c0,0,219,153,219,269c0,0,0,44,-26,75c0,0,-26,32,-81,32c0,0,-109,0,-229,-155V-39L582,-49Z"
id="f6_b9"
transform="scale(0.001,-0.001)"/>

<path d="M388,325c0,0,58,0,112,31c0,0,53,31,84,86V822H165l69,-58V408c0,0,47,-83,154,-83ZM674,-49L584,8V257c0,0,-61,-51,-141,-51c0,0,-125,0,-232,109c0,0,-107,108,-107,243V822H0l-45,76l14,31H848l46,-76L880,822H645l65,-58V-39L674,-49Z"
id="f6_bv"
transform="scale(0.001,-0.001)"/>

<path d="M108,-433L-59,-214c0,0,-99,119,-191,119c0,0,-59,0,-96,-35c0,0,-36,-34,-36,-81c0,0,0,-49,42,-83l152,95l64,-116c0,0,-71,-58,-148,-58c0,0,-80,0,-146,63c0,0,-65,64,-65,144c0,0,0,77,62,131c0,0,61,53,142,53c0,0,138,0,296,-205L165,-393l-57,-40Z"
id="f6_cx"
transform="scale(0.001,-0.001)"/>

<path d="M342,324c0,0,45,0,75,34c0,0,31,33,31,100V822H165l66,-58V390c0,0,32,-66,111,-66ZM853,-49L762,8V822H509l65,-58V455c0,0,0,-134,-51,-185c0,0,-52,-52,-127,-52c0,0,-98,0,-195,99c0,0,-97,99,-97,209V822H0l-45,76l14,31H1027l46,-76l-14,-31H823l66,-58V-39L853,-49Z"
id="f6_bo"
transform="scale(0.001,-0.001)"/>

<path d="M547,-285c0,0,-66,25,-102,80c0,0,32,69,82,101c0,0,55,-20,99,-80c0,0,-26,-67,-79,-101Zm1,228c0,0,-122,0,-243,81c0,0,-122,81,-252,280l57,41C110,345,283,64,498,64c0,0,92,0,153,49c0,0,61,49,61,121c0,0,0,46,-28,84L440,237c0,0,-73,11,-139,55c0,0,-66,44,-105,105c0,0,-40,61,-40,119c0,0,0,72,62,125c0,0,62,53,184,53H625V822H0l-45,76l14,31H906l46,-76L938,822H678l66,-58V562H431c0,0,-164,0,-164,-99c0,0,0,-55,57,-102l261,82c0,0,104,-21,172,-98c0,0,68,-78,68,-171c0,0,0,-99,-76,-166c0,0,-77,-65,-201,-65Z"
id="f6_ch"
transform="scale(0.001,-0.001)"/>

<path d="M0,1062c0,0,-26,11,-60,36c0,0,-34,26,-51,49c0,0,39,81,91,110c0,0,60,-23,106,-85c0,0,-28,-70,-86,-110Z"
id="f6_dj"
transform="scale(0.001,-0.001)"/>

<path d="M226,-49c0,0,-66,24,-102,78c0,0,32,69,82,101c0,0,55,-20,100,-80c0,0,-26,-66,-80,-99Z"
id="f6_pc"
transform="scale(0.001,-0.001)"/>

<path d="M761,293c0,0,127,0,169,94V532c0,0,-68,46,-145,46c0,0,-76,0,-121,-46c0,0,-45,-45,-45,-107c0,0,0,-61,44,-110c0,0,47,-22,98,-22ZM657,67c0,0,166,0,273,107v55c0,0,-45,-36,-111,-36c0,0,-110,0,-207,90c0,0,-97,90,-97,194c0,0,0,85,66,148c0,0,65,63,155,63l48,-5L930,603V822H376l62,-55V579c0,0,0,-60,-23,-102c0,0,-24,-42,-148,-190c0,0,66,-104,175,-162c0,0,108,-58,215,-58ZM1021,-49L930,8V53c0,0,-105,-83,-264,-83c0,0,-177,0,-339,128C327,98,165,226,90,429l34,77H296c0,0,19,39,19,102l-2,214H0l-45,76l14,31H1195l46,-76l-14,-31H992l65,-58V-39l-36,-10Z"
id="f6_ba"
transform="scale(0.001,-0.001)"/>

<path d="M725,307c0,0,-95,0,-218,78c0,0,-123,78,-188,78c0,0,-54,0,-95,-34c0,0,-41,-34,-73,-100L93,362c0,0,38,88,101,146c0,0,63,59,148,59c0,0,90,0,214,-78c0,0,124,-79,188,-79c0,0,63,0,106,34c0,0,42,33,85,104l60,-40c0,0,-32,-66,-101,-134c0,0,-70,-67,-169,-67Z"
id="f7_4r"
transform="scale(0.001,-0.001)"/>

<path d="M435,0V856c0,0,-48,-47,-127,-93c0,0,-79,-46,-142,-69V824c0,0,113,52,197,128c0,0,85,75,120,146h86V0Z"
id="f8_l"
transform="scale(0.001,-0.001)"/>

<path d="M420,92c0,0,92,0,155,89c0,0,64,89,64,358c0,0,0,270,-63,359c0,0,-63,89,-158,89c0,0,-92,0,-147,-79c0,0,-70,-100,-70,-369c0,0,0,-269,63,-358c0,0,63,-89,156,-89Zm0,-110c0,0,-158,0,-248,112C172,94,64,231,64,539c0,0,0,194,39,313c0,0,40,118,119,182c0,0,79,64,198,64c0,0,88,0,155,-35c0,0,66,-36,109,-103c0,0,43,-66,68,-162c0,0,24,-96,24,-259c0,0,0,-192,-39,-311C737,228,697,110,619,46c0,0,-79,-64,-199,-64Z"
id="f8_k"
transform="scale(0.001,-0.001)"/>

<path d="M412,-18c0,0,-144,0,-239,85c0,0,-95,86,-108,222l133,18c0,0,24,-114,79,-164c0,0,55,-50,135,-50c0,0,96,0,161,65c0,0,65,66,65,163c0,0,0,92,-61,152c0,0,-60,60,-153,60c0,0,-38,0,-95,-15l15,119c0,0,13,-2,21,-2c0,0,86,0,155,45c0,0,69,44,69,137c0,0,0,74,-50,122c0,0,-50,49,-129,49c0,0,-79,0,-131,-50c0,0,-52,-49,-67,-147L78,815c0,0,25,135,112,209c0,0,87,74,217,74c0,0,89,0,164,-38c0,0,76,-39,116,-105c0,0,40,-66,40,-141c0,0,0,-70,-39,-129c0,0,-38,-58,-112,-92c0,0,97,-22,151,-93c0,0,53,-70,53,-176c0,0,0,-143,-104,-243c0,0,-105,-99,-264,-99Z"
id="f8_n"
transform="scale(0.001,-0.001)"/>


</defs>
</svg>