<?xml version="1.0" encoding="UTF-8" standalone="no"?>
<!DOCTYPE svg PUBLIC "-//W3C//DTD SVG 1.1//EN"
"http://www.w3.org/Graphics/SVG/1.1/DTD/svg11.dtd">
<svg viewBox="0 0 641 910" version="1.1" xmlns="http://www.w3.org/2000/svg" xmlns:xlink="http://www.w3.org/1999/xlink">
<defs>
<clipPath id="c0_63"><path d="M0,909.8V0H641.7V909.8Z"/></clipPath>
<clipPath id="c1_63"><path d="M0,908.6V0H641.7V908.6Z"/></clipPath>
<style type="text/css"><![CDATA[
.g0_63{
fill: #FFFFFF;
}
.g1_63{
}
]]></style>
</defs>
<path d="M0,0H641.7V909.8H0V0Z" class="g0_63"/>
<path d="M0,0H641.7V909.8H0V0Z" class="g0_63"/>
<g clip-path="url(#c0_63)">
<path d="M0,-50948.2H641.7V55497.3H0V-50948.2Z" class="g0_63"/>
</g>
<path d="M0,0H641.7V908.6H0V0Z" class="g0_63"/>
<path d="M19.5,60.7H602.7v1.2H19.5V60.7Z" class="g1_63"/>
<g clip-path="url(#c1_63)">
<path d="M0,61.9H641.7V909.8H0V61.9Z" class="g0_63"/>
</g>
<path d="M143.2,142.1H479v25.2H143.2V142.1Z" class="g0_63"/>
<path d="M120.3,167.3H501.9v25.2H120.3V167.3Z" class="g0_63"/>
<path d="M105.4,192.5H516.8v25.2H105.4V192.5Z" class="g0_63"/>
<path d="M131.8,217.7H490.4v25.2H131.8V217.7Z" class="g0_63"/>
<path d="M19.5,242.9H602.7v43.6H19.5V242.9Z" class="g0_63"/>
<path d="M19.5,285.3H602.7v26.4H19.5V285.3Z" class="g0_63"/>
<path d="M19.5,310.5H602.7v26.4H19.5V310.5Z" class="g0_63"/>
<path d="M19.5,335.7H602.7v26.4H19.5V335.7Z" class="g0_63"/>
<path d="M19.5,360.9H602.7v43.6H19.5V360.9Z" class="g0_63"/>
<path d="M19.5,403.3H602.7v43.6H19.5V403.3Z" class="g0_63"/>
<path d="M19.5,445.7H602.7v26.4H19.5V445.7Z" class="g0_63"/>
<path d="M19.5,470.9H602.7v26.4H19.5V470.9Z" class="g0_63"/>
<path d="M19.5,496.1H602.7v26.4H19.5V496.1Z" class="g0_63"/>
<path d="M19.5,521.4H602.7v43.5H19.5V521.4Z" class="g0_63"/>
<path d="M19.5,563.8H602.7v43.5H19.5V563.8Z" class="g0_63"/>
<path d="M19.5,606.1H602.7v26.4H19.5V606.1Z" class="g0_63"/>
<path d="M19.5,631.4H602.7v26.3H19.5V631.4Z" class="g0_63"/>
<path d="M19.5,656.6H602.7v26.3H19.5V656.6Z" class="g0_63"/>
<path d="M19.5,681.8H602.7v43.5H19.5V681.8Z" class="g0_63"/>
<path d="M19.5,724.2H602.7v34.3H19.5V724.2Z" class="g0_63"/>
<g clip-path="url(#c1_63)">
<g fill="#000000" >
<use xlink:href="#f5_br" transform="matrix(14,0,0,14,214.6,103.1)" />
<use xlink:href="#f5_ct" transform="matrix(14,0,0,14,227.6,103.1)" />
<use xlink:href="#f5_br" transform="matrix(14,0,0,14,234,103.1)" />
<use xlink:href="#f5_ct" transform="matrix(14,0,0,14,247,103.1)" />
<use xlink:href="#f5_bp" transform="matrix(14,0,0,14,259.2,103.1)" />
<use xlink:href="#f5_d4" transform="matrix(14,0,0,14,272.6,103.1)" />
<use xlink:href="#f5_c1" transform="matrix(14,0,0,14,272.6,103.1)" />
<use xlink:href="#f5_ct" transform="matrix(14,0,0,14,282.8,103.1)" />
<use xlink:href="#f5_ik" transform="matrix(14,0,0,14,295,103.1)" />
<use xlink:href="#f5_ct" transform="matrix(14,0,0,14,322.1,103.1)" />
<use xlink:href="#f5_cj" transform="matrix(14,0,0,14,334.2,103.1)" />
<use xlink:href="#f5_cg" transform="matrix(14,0,0,14,352.2,103.1)" />
<use xlink:href="#f5_dr" transform="matrix(14,0,0,14,368.3,103.1)" />
<use xlink:href="#f5_bt" transform="matrix(14,0,0,14,373.7,103.1)" />
<use xlink:href="#f5_cc" transform="matrix(14,0,0,14,386.8,103.1)" />
<use xlink:href="#f5_cv" transform="matrix(14,0,0,14,399.5,103.1)" />
<use xlink:href="#f5_dj" transform="matrix(14,0,0,14,405.3,103.3)" />
</g>
<g fill="#222222" >
<use xlink:href="#f6_bt" transform="matrix(14,0,0,14,142.4,162.7)" />
<use xlink:href="#f6_ct" transform="matrix(14,0,0,14,154.1,162.7)" />
<use xlink:href="#f6_b9" transform="matrix(14,0,0,14,159.7,162.7)" />
<use xlink:href="#f6_d8" transform="matrix(14,0,0,14,175.2,162.7)" />
<use xlink:href="#f6_ch" transform="matrix(14,0,0,14,180.8,162.7)" />
<use xlink:href="#f6_ct" transform="matrix(14,0,0,14,193.5,162.7)" />
<use xlink:href="#f6_c7" transform="matrix(14,0,0,14,204.8,162.7)" />
<use xlink:href="#f6_ct" transform="matrix(14,0,0,14,216.9,162.7)" />
<use xlink:href="#f6_c3" transform="matrix(14,0,0,14,222.5,162.7)" />
<use xlink:href="#f6_d4" transform="matrix(14,0,0,14,237.3,162.7)" />
<use xlink:href="#f6_cb" transform="matrix(14,0,0,14,242.9,162.7)" />
<use xlink:href="#f6_cw" transform="matrix(14,0,0,14,258.3,162.6)" />
<use xlink:href="#f6_bt" transform="matrix(14,0,0,14,257.8,162.7)" />
<use xlink:href="#f6_c3" transform="matrix(14,0,0,14,275.1,162.7)" />
<use xlink:href="#f6_d4" transform="matrix(14,0,0,14,290,162.7)" />
<use xlink:href="#f6_bt" transform="matrix(14,0,0,14,289.8,162.7)" />
<use xlink:href="#f6_ct" transform="matrix(14,0,0,14,301.6,162.7)" />
<use xlink:href="#f6_ax" transform="matrix(14,0,0,14,312.8,162.7)" />
<use xlink:href="#f6_b9" transform="matrix(14,0,0,14,324.7,162.7)" />
<use xlink:href="#f6_cb" transform="matrix(14,0,0,14,345.9,162.7)" />
<use xlink:href="#f6_c7" transform="matrix(14,0,0,14,360.8,162.7)" />
<use xlink:href="#f6_ct" transform="matrix(14,0,0,14,372.8,162.7)" />
<use xlink:href="#f6_c3" transform="matrix(14,0,0,14,378.5,162.7)" />
<use xlink:href="#f6_br" transform="matrix(14,0,0,14,398.8,162.7)" />
<use xlink:href="#f6_ob" transform="matrix(14,0,0,14,410.5,162.7)" />
<use xlink:href="#f6_c7" transform="matrix(14,0,0,14,416.1,162.7)" />
<use xlink:href="#f6_ct" transform="matrix(14,0,0,14,428.2,162.7)" />
<use xlink:href="#f6_bt" transform="matrix(14,0,0,14,433.8,162.7)" />
<use xlink:href="#f6_d4" transform="matrix(14,0,0,14,445.7,162.7)" />
<use xlink:href="#f6_b9" transform="matrix(14,0,0,14,451.2,162.7)" />
<use xlink:href="#f6_ct" transform="matrix(14,0,0,14,466.7,162.7)" />
<use xlink:href="#f6_k" transform="matrix(14,0,0,14,472.3,162.7)" />
<use xlink:href="#f6_al" transform="matrix(14,0,0,14,119.5,187.9)" />
<use xlink:href="#f6_bb" transform="matrix(14,0,0,14,135.3,187.9)" />
<use xlink:href="#f6_c1" transform="matrix(14,0,0,14,147.9,187.9)" />
<use xlink:href="#f6_cb" transform="matrix(14,0,0,14,162,187.9)" />
<use xlink:href="#f6_bz" transform="matrix(14,0,0,14,176.9,187.9)" />
<use xlink:href="#f6_bh" transform="matrix(14,0,0,14,190.2,187.9)" />
<use xlink:href="#f6_bz" transform="matrix(14,0,0,14,212.7,187.9)" />
<use xlink:href="#f6_oz" transform="matrix(14,0,0,14,226.1,187.9)" />
<use xlink:href="#f6_am" transform="matrix(14,0,0,14,231.7,187.9)" />
<use xlink:href="#f6_bg" transform="matrix(14,0,0,14,258.8,187.9)" />
<use xlink:href="#f6_ct" transform="matrix(14,0,0,14,273.1,187.9)" />
<use xlink:href="#f6_ax" transform="matrix(14,0,0,14,278.7,187.9)" />
<use xlink:href="#f6_k" transform="matrix(14,0,0,14,290.6,187.9)" />
<use xlink:href="#f6_bp" transform="matrix(14,0,0,14,301.4,187.9)" />
<use xlink:href="#f6_d8" transform="matrix(14,0,0,14,313.7,187.9)" />
<use xlink:href="#f6_by" transform="matrix(14,0,0,14,325,187.9)" />
<use xlink:href="#f6_l1" transform="matrix(14,0,0,14,339,187.9)" />
<use xlink:href="#f6_bp" transform="matrix(14,0,0,14,350.9,187.9)" />
<use xlink:href="#f6_d8" transform="matrix(14,0,0,14,363.2,187.9)" />
<use xlink:href="#f6_b9" transform="matrix(14,0,0,14,374.5,187.9)" />
<use xlink:href="#f6_d8" transform="matrix(14,0,0,14,390,187.9)" />
<use xlink:href="#f6_cb" transform="matrix(14,0,0,14,401.2,187.9)" />
<use xlink:href="#f6_bz" transform="matrix(14,0,0,14,416.1,187.9)" />
<use xlink:href="#f6_bh" transform="matrix(14,0,0,14,429.5,187.9)" />
<use xlink:href="#f6_ct" transform="matrix(14,0,0,14,446.2,187.9)" />
<use xlink:href="#f6_br" transform="matrix(14,0,0,14,457.5,187.9)" />
<use xlink:href="#f6_d4" transform="matrix(14,0,0,14,468.8,187.9)" />
<use xlink:href="#f6_bt" transform="matrix(14,0,0,14,469.2,187.9)" />
<use xlink:href="#f6_ct" transform="matrix(14,0,0,14,480.9,187.9)" />
<use xlink:href="#f6_ng" transform="matrix(14,0,0,14,492.2,187.9)" />
<use xlink:href="#f6_cc" transform="matrix(14,0,0,14,104.6,213.1)" />
<use xlink:href="#f6_bz" transform="matrix(14,0,0,14,116.2,213.1)" />
<use xlink:href="#f6_bt" transform="matrix(14,0,0,14,129.5,213.1)" />
<use xlink:href="#f6_d4" transform="matrix(14,0,0,14,141.4,213.1)" />
<use xlink:href="#f6_al" transform="matrix(14,0,0,14,146.9,213.1)" />
<use xlink:href="#f6_bv" transform="matrix(14,0,0,14,162.8,213.1)" />
<use xlink:href="#f6_bt" transform="matrix(14,0,0,14,174.6,213.1)" />
<use xlink:href="#f6_ct" transform="matrix(14,0,0,14,186.3,213.1)" />
<use xlink:href="#f6_cu" transform="matrix(14,0,0,14,197.6,213.1)" />
<use xlink:href="#f6_bt" transform="matrix(14,0,0,14,203.3,213.1)" />
<use xlink:href="#f6_c0" transform="matrix(14,0,0,14,215,213.1)" />
<use xlink:href="#f6_bz" transform="matrix(14,0,0,14,227.5,213.1)" />
<use xlink:href="#f6_cu" transform="matrix(14,0,0,14,246.5,213.1)" />
<use xlink:href="#f6_bt" transform="matrix(14,0,0,14,252.1,213.1)" />
<use xlink:href="#f6_by" transform="matrix(14,0,0,14,263.9,213.1)" />
<use xlink:href="#f6_ct" transform="matrix(14,0,0,14,277.8,213.1)" />
<use xlink:href="#f6_c0" transform="matrix(14,0,0,14,283.4,213.1)" />
<use xlink:href="#f6_ct" transform="matrix(14,0,0,14,296,213.1)" />
<use xlink:href="#f6_pd" transform="matrix(14,0,0,14,301.6,213.1)" />
<use xlink:href="#f6_q" transform="matrix(14,0,0,14,309.2,213.1)" />
<use xlink:href="#f6_k" transform="matrix(14,0,0,14,326.5,213.1)" />
<use xlink:href="#f6_bt" transform="matrix(14,0,0,14,337.3,213.1)" />
<use xlink:href="#f6_ct" transform="matrix(14,0,0,14,349.1,213.1)" />
<use xlink:href="#f6_b9" transform="matrix(14,0,0,14,354.7,213.1)" />
<use xlink:href="#f6_d8" transform="matrix(14,0,0,14,370.2,213.1)" />
<use xlink:href="#f6_ch" transform="matrix(14,0,0,14,375.8,213.1)" />
<use xlink:href="#f6_ct" transform="matrix(14,0,0,14,388.5,213.1)" />
<use xlink:href="#f6_br" transform="matrix(14,0,0,14,399.8,213.1)" />
<use xlink:href="#f6_c1" transform="matrix(14,0,0,14,411.4,213.1)" />
<use xlink:href="#f6_bx" transform="matrix(14,0,0,14,419.8,213.1)" />
<use xlink:href="#f6_ct" transform="matrix(14,0,0,14,432.1,213.1)" />
<use xlink:href="#f6_c1" transform="matrix(14,0,0,14,437.7,213.1)" />
<use xlink:href="#f6_am" transform="matrix(14,0,0,14,451.8,213.1)" />
<use xlink:href="#f6_bt" transform="matrix(14,0,0,14,473.3,213.1)" />
<use xlink:href="#f6_d4" transform="matrix(14,0,0,14,485.1,213.1)" />
<use xlink:href="#f6_b9" transform="matrix(14,0,0,14,490.6,213.1)" />
<use xlink:href="#f6_ct" transform="matrix(14,0,0,14,506.1,213.1)" />
<use xlink:href="#f6_k" transform="matrix(14,0,0,14,511.8,213.1)" />
<use xlink:href="#f6_br" transform="matrix(14,0,0,14,130.9,238.3)" />
<use xlink:href="#f6_ct" transform="matrix(14,0,0,14,142.6,238.3)" />
<use xlink:href="#f6_br" transform="matrix(14,0,0,14,148.2,238.3)" />
<use xlink:href="#f6_ct" transform="matrix(14,0,0,14,159.9,238.3)" />
<use xlink:href="#f6_bp" transform="matrix(14,0,0,14,171.2,238.3)" />
<use xlink:href="#f6_d4" transform="matrix(14,0,0,14,183.6,238.3)" />
<use xlink:href="#f6_c1" transform="matrix(14,0,0,14,183.5,238.3)" />
<use xlink:href="#f6_ct" transform="matrix(14,0,0,14,191.9,238.3)" />
<use xlink:href="#f6_ik" transform="matrix(14,0,0,14,203.2,238.3)" />
<use xlink:href="#f6_ct" transform="matrix(14,0,0,14,228.2,238.3)" />
<use xlink:href="#f6_cj" transform="matrix(14,0,0,14,239.5,238.3)" />
<use xlink:href="#f6_cg" transform="matrix(14,0,0,14,255.6,238.3)" />
<use xlink:href="#f6_dr" transform="matrix(14,0,0,14,270.3,238.3)" />
<use xlink:href="#f6_bt" transform="matrix(14,0,0,14,275.5,238.3)" />
<use xlink:href="#f6_cc" transform="matrix(14,0,0,14,287.2,238.3)" />
<use xlink:href="#f6_cv" transform="matrix(14,0,0,14,298.8,238.3)" />
<use xlink:href="#f6_dj" transform="matrix(14,0,0,14,303.5,239.2)" />
<use xlink:href="#f6_by" transform="matrix(14,0,0,14,310.1,238.3)" />
<use xlink:href="#f6_l1" transform="matrix(14,0,0,14,324.1,238.3)" />
<use xlink:href="#f6_bp" transform="matrix(14,0,0,14,335.9,238.3)" />
<use xlink:href="#f6_d8" transform="matrix(14,0,0,14,348.2,238.3)" />
<use xlink:href="#f6_b9" transform="matrix(14,0,0,14,359.5,238.3)" />
<use xlink:href="#f6_d4" transform="matrix(14,0,0,14,370.7,238.3)" />
<use xlink:href="#f6_bc" transform="matrix(14,0,0,14,380.7,238.3)" />
<use xlink:href="#f6_c1" transform="matrix(14,0,0,14,394.6,238.3)" />
<use xlink:href="#f6_am" transform="matrix(14,0,0,14,408.6,238.3)" />
<use xlink:href="#f6_bt" transform="matrix(14,0,0,14,430.1,238.3)" />
<use xlink:href="#f6_d4" transform="matrix(14,0,0,14,442,238.3)" />
<use xlink:href="#f6_b9" transform="matrix(14,0,0,14,447.5,238.3)" />
<use xlink:href="#f6_ct" transform="matrix(14,0,0,14,463,238.3)" />
<use xlink:href="#f6_nh" transform="matrix(14,0,0,14,474.3,238.3)" />
<use xlink:href="#f6_nu" transform="matrix(14,0,0,14,113.7,305.9)" />
<use xlink:href="#f6_bg" transform="matrix(14,0,0,14,119.4,305.9)" />
<use xlink:href="#f6_cb" transform="matrix(14,0,0,14,133.6,305.9)" />
<use xlink:href="#f6_b9" transform="matrix(14,0,0,14,148.5,305.9)" />
<use xlink:href="#f6_ct" transform="matrix(14,0,0,14,164,305.9)" />
<use xlink:href="#f6_bc" transform="matrix(14,0,0,14,175.3,305.9)" />
<use xlink:href="#f6_c1" transform="matrix(14,0,0,14,189.2,305.9)" />
<use xlink:href="#f6_bf" transform="matrix(14,0,0,14,203.2,305.9)" />
<use xlink:href="#f6_d8" transform="matrix(14,0,0,14,218.9,305.9)" />
<use xlink:href="#f6_bk" transform="matrix(14,0,0,14,224.6,305.9)" />
<use xlink:href="#f6_ct" transform="matrix(14,0,0,14,236.1,305.9)" />
<use xlink:href="#f6_cb" transform="matrix(14,0,0,14,247.4,305.9)" />
<use xlink:href="#f6_ct" transform="matrix(14,0,0,14,262.3,305.9)" />
<use xlink:href="#f6_cc" transform="matrix(14,0,0,14,273.6,305.9)" />
<use xlink:href="#f6_d8" transform="matrix(14,0,0,14,285.2,305.9)" />
<use xlink:href="#f6_k" transform="matrix(14,0,0,14,290.8,305.9)" />
<use xlink:href="#f6_ik" transform="matrix(14,0,0,14,301.7,305.9)" />
<use xlink:href="#f6_ct" transform="matrix(14,0,0,14,326.7,305.9)" />
<use xlink:href="#f6_ap" transform="matrix(14,0,0,14,338,305.9)" />
<use xlink:href="#f6_cb" transform="matrix(14,0,0,14,349.4,305.9)" />
<use xlink:href="#f6_b9" transform="matrix(14,0,0,14,364.3,305.9)" />
<use xlink:href="#f6_d4" transform="matrix(14,0,0,14,375.4,305.9)" />
<use xlink:href="#f6_bc" transform="matrix(14,0,0,14,385.4,305.9)" />
<use xlink:href="#f6_c1" transform="matrix(14,0,0,14,399.3,305.9)" />
<use xlink:href="#f6_bt" transform="matrix(14,0,0,14,413.4,305.9)" />
<use xlink:href="#f6_cc" transform="matrix(14,0,0,14,425.1,305.9)" />
<use xlink:href="#f6_cv" transform="matrix(14,0,0,14,436.7,305.9)" />
<use xlink:href="#f6_dj" transform="matrix(14,0,0,14,441.3,306.8)" />
<use xlink:href="#f6_am" transform="matrix(14,0,0,14,448,305.9)" />
<use xlink:href="#f6_bp" transform="matrix(14,0,0,14,469.5,305.9)" />
<use xlink:href="#f6_d4" transform="matrix(14,0,0,14,481.9,305.9)" />
<use xlink:href="#f6_k" transform="matrix(14,0,0,14,481.8,305.9)" />
<use xlink:href="#f6_pd" transform="matrix(14,0,0,14,487,305.9)" />
<use xlink:href="#f6_q" transform="matrix(14,0,0,14,494.5,305.9)" />
<use xlink:href="#f6_c0" transform="matrix(14,0,0,14,132.1,331.1)" />
<use xlink:href="#f6_ct" transform="matrix(14,0,0,14,144.6,331.1)" />
<use xlink:href="#f6_cu" transform="matrix(14,0,0,14,155.9,331.1)" />
<use xlink:href="#f6_bw" transform="matrix(14,0,0,14,161.5,331.1)" />
<use xlink:href="#f6_c1" transform="matrix(14,0,0,14,177.6,331.1)" />
<use xlink:href="#f6_bz" transform="matrix(14,0,0,14,191.7,331.1)" />
<use xlink:href="#f6_cw" transform="matrix(14,0,0,14,205.6,331)" />
<use xlink:href="#f6_bh" transform="matrix(14,0,0,14,205,331.1)" />
<use xlink:href="#f6_cb" transform="matrix(14,0,0,14,221.8,331.1)" />
<use xlink:href="#f6_d4" transform="matrix(14,0,0,14,236.8,331.1)" />
<use xlink:href="#f6_e6" transform="matrix(14,0,0,14,242.3,331.1)" />
<use xlink:href="#f6_d4" transform="matrix(14,0,0,14,254.5,331.1)" />
<use xlink:href="#f6_bz" transform="matrix(14,0,0,14,254.4,331.1)" />
<use xlink:href="#f6_bt" transform="matrix(14,0,0,14,273.4,331.1)" />
<use xlink:href="#f6_cc" transform="matrix(14,0,0,14,285.1,331.1)" />
<use xlink:href="#f6_cv" transform="matrix(14,0,0,14,296.7,331.1)" />
<use xlink:href="#f6_dj" transform="matrix(14,0,0,14,301.4,332)" />
<use xlink:href="#f6_k" transform="matrix(14,0,0,14,302.4,331.1)" />
<use xlink:href="#f6_ik" transform="matrix(14,0,0,14,313.2,331.1)" />
<use xlink:href="#f6_d8" transform="matrix(14,0,0,14,338.3,331.1)" />
<use xlink:href="#f6_dj" transform="matrix(14,0,0,14,342.6,332)" />
<use xlink:href="#f6_bz" transform="matrix(14,0,0,14,349.6,331.1)" />
<use xlink:href="#f6_d4" transform="matrix(14,0,0,14,363,331.1)" />
<use xlink:href="#f6_c1" transform="matrix(14,0,0,14,362.9,331.1)" />
<use xlink:href="#f6_d4" transform="matrix(14,0,0,14,370.9,331.1)" />
<use xlink:href="#f6_bc" transform="matrix(14,0,0,14,376.9,331.1)" />
<use xlink:href="#f6_c1" transform="matrix(14,0,0,14,390.8,331.1)" />
<use xlink:href="#f6_bt" transform="matrix(14,0,0,14,404.9,331.1)" />
<use xlink:href="#f6_cc" transform="matrix(14,0,0,14,416.6,331.1)" />
<use xlink:href="#f6_cv" transform="matrix(14,0,0,14,428.2,331.1)" />
<use xlink:href="#f6_dj" transform="matrix(14,0,0,14,432.9,332)" />
<use xlink:href="#f6_am" transform="matrix(14,0,0,14,439.5,331.1)" />
<use xlink:href="#f6_bp" transform="matrix(14,0,0,14,461,331.1)" />
<use xlink:href="#f6_d4" transform="matrix(14,0,0,14,473.4,331.1)" />
<use xlink:href="#f6_ng" transform="matrix(14,0,0,14,479,331.1)" />
<use xlink:href="#f6_al" transform="matrix(14,0,0,14,143.5,356.4)" />
<use xlink:href="#f6_bx" transform="matrix(14,0,0,14,159.4,356.4)" />
<use xlink:href="#f6_an" transform="matrix(14,0,0,14,177.4,356.4)" />
<use xlink:href="#f6_bp" transform="matrix(14,0,0,14,188.9,356.4)" />
<use xlink:href="#f6_bt" transform="matrix(14,0,0,14,201.2,356.4)" />
<use xlink:href="#f6_ct" transform="matrix(14,0,0,14,212.9,356.4)" />
<use xlink:href="#f6_bx" transform="matrix(14,0,0,14,224.2,356.4)" />
<use xlink:href="#f6_bp" transform="matrix(14,0,0,14,236.5,356.4)" />
<use xlink:href="#f6_c3" transform="matrix(14,0,0,14,248.8,356.4)" />
<use xlink:href="#f6_ct" transform="matrix(14,0,0,14,263.5,356.4)" />
<use xlink:href="#f6_br" transform="matrix(14,0,0,14,269.1,356.4)" />
<use xlink:href="#f6_d8" transform="matrix(14,0,0,14,280.8,356.4)" />
<use xlink:href="#f6_br" transform="matrix(14,0,0,14,292.1,356.4)" />
<use xlink:href="#f6_ct" transform="matrix(14,0,0,14,303.7,356.4)" />
<use xlink:href="#f6_br" transform="matrix(14,0,0,14,309.4,356.4)" />
<use xlink:href="#f6_ct" transform="matrix(14,0,0,14,321,356.4)" />
<use xlink:href="#f6_b9" transform="matrix(14,0,0,14,332.3,356.4)" />
<use xlink:href="#f6_d5" transform="matrix(14,0,0,14,343.5,356.4)" />
<use xlink:href="#f6_cb" transform="matrix(14,0,0,14,347.8,356.4)" />
<use xlink:href="#f6_d4" transform="matrix(14,0,0,14,362.8,356.4)" />
<use xlink:href="#f6_bp" transform="matrix(14,0,0,14,368.4,356.4)" />
<use xlink:href="#f6_cw" transform="matrix(14,0,0,14,381.2,356.2)" />
<use xlink:href="#f6_bh" transform="matrix(14,0,0,14,380.7,356.4)" />
<use xlink:href="#f6_d4" transform="matrix(14,0,0,14,397.6,356.4)" />
<use xlink:href="#f6_bz" transform="matrix(14,0,0,14,403.1,356.4)" />
<use xlink:href="#f6_bt" transform="matrix(14,0,0,14,416.5,356.4)" />
<use xlink:href="#f6_ct" transform="matrix(14,0,0,14,428.2,356.4)" />
<use xlink:href="#f6_bt" transform="matrix(14,0,0,14,433.8,356.4)" />
<use xlink:href="#f6_d4" transform="matrix(14,0,0,14,445.6,356.4)" />
<use xlink:href="#f6_b9" transform="matrix(14,0,0,14,451.2,356.4)" />
<use xlink:href="#f6_ct" transform="matrix(14,0,0,14,466.7,356.4)" />
<use xlink:href="#f6_k" transform="matrix(14,0,0,14,472.3,356.4)" />
<use xlink:href="#f6_br" transform="matrix(14,0,0,14,130.9,381.6)" />
<use xlink:href="#f6_ct" transform="matrix(14,0,0,14,142.6,381.6)" />
<use xlink:href="#f6_br" transform="matrix(14,0,0,14,148.2,381.6)" />
<use xlink:href="#f6_ct" transform="matrix(14,0,0,14,159.9,381.6)" />
<use xlink:href="#f6_bp" transform="matrix(14,0,0,14,171.2,381.6)" />
<use xlink:href="#f6_d4" transform="matrix(14,0,0,14,183.6,381.6)" />
<use xlink:href="#f6_c1" transform="matrix(14,0,0,14,183.5,381.6)" />
<use xlink:href="#f6_ct" transform="matrix(14,0,0,14,191.9,381.6)" />
<use xlink:href="#f6_ik" transform="matrix(14,0,0,14,203.2,381.6)" />
<use xlink:href="#f6_ct" transform="matrix(14,0,0,14,228.2,381.6)" />
<use xlink:href="#f6_cj" transform="matrix(14,0,0,14,239.5,381.6)" />
<use xlink:href="#f6_cg" transform="matrix(14,0,0,14,255.6,381.6)" />
<use xlink:href="#f6_dr" transform="matrix(14,0,0,14,270.3,381.6)" />
<use xlink:href="#f6_bt" transform="matrix(14,0,0,14,275.5,381.6)" />
<use xlink:href="#f6_cc" transform="matrix(14,0,0,14,287.2,381.6)" />
<use xlink:href="#f6_cv" transform="matrix(14,0,0,14,298.8,381.6)" />
<use xlink:href="#f6_dj" transform="matrix(14,0,0,14,303.5,382.5)" />
<use xlink:href="#f6_by" transform="matrix(14,0,0,14,310.1,381.6)" />
<use xlink:href="#f6_l1" transform="matrix(14,0,0,14,324.1,381.6)" />
<use xlink:href="#f6_bp" transform="matrix(14,0,0,14,335.9,381.6)" />
<use xlink:href="#f6_d8" transform="matrix(14,0,0,14,348.2,381.6)" />
<use xlink:href="#f6_b9" transform="matrix(14,0,0,14,359.5,381.6)" />
<use xlink:href="#f6_d4" transform="matrix(14,0,0,14,370.7,381.6)" />
<use xlink:href="#f6_bc" transform="matrix(14,0,0,14,380.7,381.6)" />
<use xlink:href="#f6_c1" transform="matrix(14,0,0,14,394.6,381.6)" />
<use xlink:href="#f6_am" transform="matrix(14,0,0,14,408.6,381.6)" />
<use xlink:href="#f6_bt" transform="matrix(14,0,0,14,430.1,381.6)" />
<use xlink:href="#f6_d4" transform="matrix(14,0,0,14,442,381.6)" />
<use xlink:href="#f6_b9" transform="matrix(14,0,0,14,447.5,381.6)" />
<use xlink:href="#f6_ct" transform="matrix(14,0,0,14,463,381.6)" />
<use xlink:href="#f6_nh" transform="matrix(14,0,0,14,474.3,381.6)" />
<use xlink:href="#f6_ay" transform="matrix(14,0,0,14,139,466.4)" />
<use xlink:href="#f6_cb" transform="matrix(14,0,0,14,150.8,466.4)" />
<use xlink:href="#f6_ct" transform="matrix(14,0,0,14,165.7,466.4)" />
<use xlink:href="#f6_c1" transform="matrix(14,0,0,14,177,466.4)" />
<use xlink:href="#f6_ct" transform="matrix(14,0,0,14,185.4,466.4)" />
<use xlink:href="#f6_m1" transform="matrix(14,0,0,14,191,466.4)" />
<use xlink:href="#f6_bp" transform="matrix(14,0,0,14,199.9,466.4)" />
<use xlink:href="#f6_ct" transform="matrix(14,0,0,14,212.2,466.4)" />
<use xlink:href="#f6_bn" transform="matrix(14,0,0,14,223.5,466.4)" />
<use xlink:href="#f6_cx" transform="matrix(14,0,0,14,234.9,466.8)" />
<use xlink:href="#f6_dj" transform="matrix(14,0,0,14,232.1,466.8)" />
<use xlink:href="#f6_ci" transform="matrix(14,0,0,14,235.4,466.4)" />
<use xlink:href="#f6_nu" transform="matrix(14,0,0,14,253,466.4)" />
<use xlink:href="#f6_c3" transform="matrix(14,0,0,14,258.6,466.4)" />
<use xlink:href="#f6_c0" transform="matrix(14,0,0,14,273.3,466.4)" />
<use xlink:href="#f6_ct" transform="matrix(14,0,0,14,285.9,466.4)" />
<use xlink:href="#f6_c1" transform="matrix(14,0,0,14,297.2,466.4)" />
<use xlink:href="#f6_d8" transform="matrix(14,0,0,14,305.5,466.4)" />
<use xlink:href="#f6_bg" transform="matrix(14,0,0,14,311.2,466.4)" />
<use xlink:href="#f6_nt" transform="matrix(14,0,0,14,331.1,466.4)" />
<use xlink:href="#f6_bz" transform="matrix(14,0,0,14,336.7,466.4)" />
<use xlink:href="#f6_c3" transform="matrix(14,0,0,14,350,466.4)" />
<use xlink:href="#f6_d4" transform="matrix(14,0,0,14,364.9,466.4)" />
<use xlink:href="#f6_bp" transform="matrix(14,0,0,14,370.4,466.4)" />
<use xlink:href="#f6_d8" transform="matrix(14,0,0,14,382.7,466.4)" />
<use xlink:href="#f6_be" transform="matrix(14,0,0,14,394,466.4)" />
<use xlink:href="#f6_d5" transform="matrix(14,0,0,14,408.1,466.4)" />
<use xlink:href="#f6_bt" transform="matrix(14,0,0,14,408,466.4)" />
<use xlink:href="#f6_am" transform="matrix(14,0,0,14,425.4,466.4)" />
<use xlink:href="#f6_ax" transform="matrix(14,0,0,14,446.9,466.4)" />
<use xlink:href="#f6_k" transform="matrix(14,0,0,14,458.7,466.4)" />
<use xlink:href="#f6_pd" transform="matrix(14,0,0,14,463.9,466.4)" />
<use xlink:href="#f6_q" transform="matrix(14,0,0,14,471.5,466.4)" />
<use xlink:href="#f6_an" transform="matrix(14,0,0,14,111.5,491.6)" />
<use xlink:href="#f6_b9" transform="matrix(14,0,0,14,123,491.6)" />
<use xlink:href="#f6_cu" transform="matrix(14,0,0,14,144.1,491.6)" />
<use xlink:href="#f6_br" transform="matrix(14,0,0,14,149.7,491.6)" />
<use xlink:href="#f6_bt" transform="matrix(14,0,0,14,161.4,491.6)" />
<use xlink:href="#f6_nt" transform="matrix(14,0,0,14,178.8,491.6)" />
<use xlink:href="#f6_bz" transform="matrix(14,0,0,14,184.4,491.6)" />
<use xlink:href="#f6_c3" transform="matrix(14,0,0,14,197.7,491.6)" />
<use xlink:href="#f6_bt" transform="matrix(14,0,0,14,212.5,491.6)" />
<use xlink:href="#f6_d4" transform="matrix(14,0,0,14,224.3,491.6)" />
<use xlink:href="#f6_bp" transform="matrix(14,0,0,14,229.8,491.6)" />
<use xlink:href="#f6_cw" transform="matrix(14,0,0,14,242.7,491.5)" />
<use xlink:href="#f6_bz" transform="matrix(14,0,0,14,242.1,491.6)" />
<use xlink:href="#f6_am" transform="matrix(14,0,0,14,261.2,491.6)" />
<use xlink:href="#f6_c0" transform="matrix(14,0,0,14,282.6,491.6)" />
<use xlink:href="#f6_d8" transform="matrix(14,0,0,14,295.2,491.6)" />
<use xlink:href="#f6_k" transform="matrix(14,0,0,14,300.8,491.6)" />
<use xlink:href="#f6_an" transform="matrix(14,0,0,14,311.7,491.6)" />
<use xlink:href="#f6_b9" transform="matrix(14,0,0,14,323.2,491.6)" />
<use xlink:href="#f6_cu" transform="matrix(14,0,0,14,344.4,491.6)" />
<use xlink:href="#f6_br" transform="matrix(14,0,0,14,350,491.6)" />
<use xlink:href="#f6_bt" transform="matrix(14,0,0,14,361.6,491.6)" />
<use xlink:href="#f6_nt" transform="matrix(14,0,0,14,379,491.6)" />
<use xlink:href="#f6_bz" transform="matrix(14,0,0,14,384.6,491.6)" />
<use xlink:href="#f6_c3" transform="matrix(14,0,0,14,398,491.6)" />
<use xlink:href="#f6_bt" transform="matrix(14,0,0,14,412.7,491.6)" />
<use xlink:href="#f6_d4" transform="matrix(14,0,0,14,424.5,491.6)" />
<use xlink:href="#f6_cc" transform="matrix(14,0,0,14,430.1,491.6)" />
<use xlink:href="#f6_bz" transform="matrix(14,0,0,14,441.7,491.6)" />
<use xlink:href="#f6_am" transform="matrix(14,0,0,14,460.7,491.6)" />
<use xlink:href="#f6_ax" transform="matrix(14,0,0,14,482.2,491.6)" />
<use xlink:href="#f6_ng" transform="matrix(14,0,0,14,499.7,491.6)" />
<use xlink:href="#f6_al" transform="matrix(14,0,0,14,122.9,516.8)" />
<use xlink:href="#f6_bx" transform="matrix(14,0,0,14,138.8,516.8)" />
<use xlink:href="#f6_bp" transform="matrix(14,0,0,14,156.7,516.8)" />
<use xlink:href="#f6_d8" transform="matrix(14,0,0,14,169,516.8)" />
<use xlink:href="#f6_bv" transform="matrix(14,0,0,14,180.3,516.8)" />
<use xlink:href="#f6_l1" transform="matrix(14,0,0,14,192.2,516.8)" />
<use xlink:href="#f6_b9" transform="matrix(14,0,0,14,204.7,516.8)" />
<use xlink:href="#f6_ct" transform="matrix(14,0,0,14,220.2,516.8)" />
<use xlink:href="#f6_cb" transform="matrix(14,0,0,14,231.5,516.8)" />
<use xlink:href="#f6_d8" transform="matrix(14,0,0,14,246.4,516.8)" />
<use xlink:href="#f6_be" transform="matrix(14,0,0,14,252,516.8)" />
<use xlink:href="#f6_nu" transform="matrix(14,0,0,14,271.6,516.8)" />
<use xlink:href="#f6_c3" transform="matrix(14,0,0,14,277.3,516.8)" />
<use xlink:href="#f6_c0" transform="matrix(14,0,0,14,292,516.8)" />
<use xlink:href="#f6_ct" transform="matrix(14,0,0,14,304.5,516.8)" />
<use xlink:href="#f6_bc" transform="matrix(14,0,0,14,315.8,516.8)" />
<use xlink:href="#f6_c1" transform="matrix(14,0,0,14,329.7,516.8)" />
<use xlink:href="#f6_bt" transform="matrix(14,0,0,14,343.7,516.8)" />
<use xlink:href="#f6_ct" transform="matrix(14,0,0,14,355.4,516.8)" />
<use xlink:href="#f6_b9" transform="matrix(14,0,0,14,361.1,516.8)" />
<use xlink:href="#f6_d8" transform="matrix(14,0,0,14,376.6,516.8)" />
<use xlink:href="#f6_ch" transform="matrix(14,0,0,14,382.2,516.8)" />
<use xlink:href="#f6_ct" transform="matrix(14,0,0,14,394.9,516.8)" />
<use xlink:href="#f6_bz" transform="matrix(14,0,0,14,406.2,516.8)" />
<use xlink:href="#f6_oz" transform="matrix(14,0,0,14,419.6,516.8)" />
<use xlink:href="#f6_bx" transform="matrix(14,0,0,14,425.2,516.8)" />
<use xlink:href="#f6_bt" transform="matrix(14,0,0,14,437.4,516.8)" />
<use xlink:href="#f6_ct" transform="matrix(14,0,0,14,449.2,516.8)" />
<use xlink:href="#f6_bt" transform="matrix(14,0,0,14,454.8,516.8)" />
<use xlink:href="#f6_d4" transform="matrix(14,0,0,14,466.6,516.8)" />
<use xlink:href="#f6_b9" transform="matrix(14,0,0,14,472.2,516.8)" />
<use xlink:href="#f6_ct" transform="matrix(14,0,0,14,487.7,516.8)" />
<use xlink:href="#f6_k" transform="matrix(14,0,0,14,493.3,516.8)" />
<use xlink:href="#f6_br" transform="matrix(14,0,0,14,130.9,542)" />
<use xlink:href="#f6_ct" transform="matrix(14,0,0,14,142.6,542)" />
<use xlink:href="#f6_br" transform="matrix(14,0,0,14,148.2,542)" />
<use xlink:href="#f6_ct" transform="matrix(14,0,0,14,159.9,542)" />
<use xlink:href="#f6_bp" transform="matrix(14,0,0,14,171.2,542)" />
<use xlink:href="#f6_d4" transform="matrix(14,0,0,14,183.6,542)" />
<use xlink:href="#f6_c1" transform="matrix(14,0,0,14,183.5,542)" />
<use xlink:href="#f6_ct" transform="matrix(14,0,0,14,191.9,542)" />
<use xlink:href="#f6_ik" transform="matrix(14,0,0,14,203.2,542)" />
<use xlink:href="#f6_ct" transform="matrix(14,0,0,14,228.2,542)" />
<use xlink:href="#f6_cj" transform="matrix(14,0,0,14,239.5,542)" />
<use xlink:href="#f6_cg" transform="matrix(14,0,0,14,255.6,542)" />
<use xlink:href="#f6_dr" transform="matrix(14,0,0,14,270.3,542)" />
<use xlink:href="#f6_bt" transform="matrix(14,0,0,14,275.5,542)" />
<use xlink:href="#f6_cc" transform="matrix(14,0,0,14,287.2,542)" />
<use xlink:href="#f6_cv" transform="matrix(14,0,0,14,298.8,542)" />
<use xlink:href="#f6_dj" transform="matrix(14,0,0,14,303.5,542.9)" />
<use xlink:href="#f6_by" transform="matrix(14,0,0,14,310.1,542)" />
<use xlink:href="#f6_l1" transform="matrix(14,0,0,14,324.1,542)" />
<use xlink:href="#f6_bp" transform="matrix(14,0,0,14,335.9,542)" />
<use xlink:href="#f6_d8" transform="matrix(14,0,0,14,348.2,542)" />
<use xlink:href="#f6_b9" transform="matrix(14,0,0,14,359.5,542)" />
<use xlink:href="#f6_d4" transform="matrix(14,0,0,14,370.7,542)" />
<use xlink:href="#f6_bc" transform="matrix(14,0,0,14,380.7,542)" />
<use xlink:href="#f6_c1" transform="matrix(14,0,0,14,394.6,542)" />
<use xlink:href="#f6_am" transform="matrix(14,0,0,14,408.6,542)" />
<use xlink:href="#f6_bt" transform="matrix(14,0,0,14,430.1,542)" />
<use xlink:href="#f6_d4" transform="matrix(14,0,0,14,442,542)" />
<use xlink:href="#f6_b9" transform="matrix(14,0,0,14,447.5,542)" />
<use xlink:href="#f6_ct" transform="matrix(14,0,0,14,463,542)" />
<use xlink:href="#f6_nh" transform="matrix(14,0,0,14,474.3,542)" />
<use xlink:href="#f6_nu" transform="matrix(14,0,0,14,130.9,626.8)" />
<use xlink:href="#f6_bg" transform="matrix(14,0,0,14,136.6,626.8)" />
<use xlink:href="#f6_cb" transform="matrix(14,0,0,14,150.8,626.8)" />
<use xlink:href="#f6_b9" transform="matrix(14,0,0,14,165.7,626.8)" />
<use xlink:href="#f6_ct" transform="matrix(14,0,0,14,181.2,626.8)" />
<use xlink:href="#f6_nu" transform="matrix(14,0,0,14,192.5,626.8)" />
<use xlink:href="#f6_bg" transform="matrix(14,0,0,14,198.1,626.8)" />
<use xlink:href="#f6_cb" transform="matrix(14,0,0,14,212.4,626.8)" />
<use xlink:href="#f6_b9" transform="matrix(14,0,0,14,227.2,626.8)" />
<use xlink:href="#f6_ct" transform="matrix(14,0,0,14,242.7,626.8)" />
<use xlink:href="#f6_bc" transform="matrix(14,0,0,14,254,626.8)" />
<use xlink:href="#f6_c1" transform="matrix(14,0,0,14,267.9,626.8)" />
<use xlink:href="#f6_br" transform="matrix(14,0,0,14,282,626.8)" />
<use xlink:href="#f6_d4" transform="matrix(14,0,0,14,293.2,626.8)" />
<use xlink:href="#f6_ba" transform="matrix(14,0,0,14,293.6,626.8)" />
<use xlink:href="#f6_ct" transform="matrix(14,0,0,14,310.3,626.8)" />
<use xlink:href="#f6_c7" transform="matrix(14,0,0,14,321.6,626.8)" />
<use xlink:href="#f6_d8" transform="matrix(14,0,0,14,333.7,626.8)" />
<use xlink:href="#f6_ik" transform="matrix(14,0,0,14,345,626.8)" />
<use xlink:href="#f6_ct" transform="matrix(14,0,0,14,370,626.8)" />
<use xlink:href="#f6_bp" transform="matrix(14,0,0,14,381.3,626.8)" />
<use xlink:href="#f6_d4" transform="matrix(14,0,0,14,393.8,626.8)" />
<use xlink:href="#f6_c1" transform="matrix(14,0,0,14,393.6,626.8)" />
<use xlink:href="#f6_d4" transform="matrix(14,0,0,14,401.6,626.8)" />
<use xlink:href="#f6_c3" transform="matrix(14,0,0,14,407.7,626.8)" />
<use xlink:href="#f6_bb" transform="matrix(14,0,0,14,422.4,626.8)" />
<use xlink:href="#f6_bp" transform="matrix(14,0,0,14,435,626.8)" />
<use xlink:href="#f6_d4" transform="matrix(14,0,0,14,447.4,626.8)" />
<use xlink:href="#f6_cc" transform="matrix(14,0,0,14,453,626.8)" />
<use xlink:href="#f6_p3" transform="matrix(14,0,0,14,464.9,626.8)" />
<use xlink:href="#f6_k" transform="matrix(14,0,0,14,464.6,626.8)" />
<use xlink:href="#f6_pd" transform="matrix(14,0,0,14,469.8,626.8)" />
<use xlink:href="#f6_q" transform="matrix(14,0,0,14,477.3,626.8)" />
<use xlink:href="#f6_nr" transform="matrix(14,0,0,14,155,652)" />
<use xlink:href="#f6_c1" transform="matrix(14,0,0,14,160.6,652)" />
<use xlink:href="#f6_ly" transform="matrix(14,0,0,14,169,652)" />
<use xlink:href="#f6_bp" transform="matrix(14,0,0,14,179.7,652)" />
<use xlink:href="#f6_d4" transform="matrix(14,0,0,14,192.2,652)" />
<use xlink:href="#f6_br" transform="matrix(14,0,0,14,192,652)" />
<use xlink:href="#f6_ct" transform="matrix(14,0,0,14,203.7,652)" />
<use xlink:href="#f6_c1" transform="matrix(14,0,0,14,209.3,652)" />
<use xlink:href="#f6_cv" transform="matrix(14,0,0,14,217.7,652)" />
<use xlink:href="#f6_bz" transform="matrix(14,0,0,14,229,652)" />
<use xlink:href="#f6_oz" transform="matrix(14,0,0,14,242.5,652)" />
<use xlink:href="#f6_br" transform="matrix(14,0,0,14,248,652)" />
<use xlink:href="#f6_ct" transform="matrix(14,0,0,14,259.7,652)" />
<use xlink:href="#f6_br" transform="matrix(14,0,0,14,265.3,652)" />
<use xlink:href="#f6_ct" transform="matrix(14,0,0,14,277,652)" />
<use xlink:href="#f6_c7" transform="matrix(14,0,0,14,288.3,652)" />
<use xlink:href="#f6_d8" transform="matrix(14,0,0,14,300.3,652)" />
<use xlink:href="#f6_ik" transform="matrix(14,0,0,14,311.6,652)" />
<use xlink:href="#f6_ct" transform="matrix(14,0,0,14,336.7,652)" />
<use xlink:href="#f6_cc" transform="matrix(14,0,0,14,347.9,652)" />
<use xlink:href="#f6_bz" transform="matrix(14,0,0,14,359.5,652)" />
<use xlink:href="#f6_cb" transform="matrix(14,0,0,14,372.9,652)" />
<use xlink:href="#f6_d4" transform="matrix(14,0,0,14,387.9,652)" />
<use xlink:href="#f6_bx" transform="matrix(14,0,0,14,393.4,652)" />
<use xlink:href="#f6_ci" transform="matrix(14,0,0,14,405.7,652)" />
<use xlink:href="#f6_b9" transform="matrix(14,0,0,14,417.7,652)" />
<use xlink:href="#f6_d4" transform="matrix(14,0,0,14,428.8,652)" />
<use xlink:href="#f6_cc" transform="matrix(14,0,0,14,438.8,652)" />
<use xlink:href="#f6_p3" transform="matrix(14,0,0,14,450.8,652)" />
<use xlink:href="#f6_ng" transform="matrix(14,0,0,14,456.1,652)" />
<use xlink:href="#f6_ik" transform="matrix(14,0,0,14,114.9,677.2)" />
<use xlink:href="#f6_ct" transform="matrix(14,0,0,14,139.9,677.2)" />
<use xlink:href="#f6_bz" transform="matrix(14,0,0,14,151.2,677.2)" />
<use xlink:href="#f6_d4" transform="matrix(14,0,0,14,164.7,677.2)" />
<use xlink:href="#f6_c1" transform="matrix(14,0,0,14,164.5,677.2)" />
<use xlink:href="#f6_ct" transform="matrix(14,0,0,14,172.9,677.2)" />
<use xlink:href="#f6_cc" transform="matrix(14,0,0,14,184.2,677.2)" />
<use xlink:href="#f6_l1" transform="matrix(14,0,0,14,195.8,677.2)" />
<use xlink:href="#f6_b9" transform="matrix(14,0,0,14,208.3,677.2)" />
<use xlink:href="#f6_bt" transform="matrix(14,0,0,14,229.5,677.2)" />
<use xlink:href="#f6_cc" transform="matrix(14,0,0,14,241.2,677.2)" />
<use xlink:href="#f6_cv" transform="matrix(14,0,0,14,252.8,677.2)" />
<use xlink:href="#f6_dj" transform="matrix(14,0,0,14,257.5,678.1)" />
<use xlink:href="#f6_bx" transform="matrix(14,0,0,14,264.1,677.2)" />
<use xlink:href="#f6_bt" transform="matrix(14,0,0,14,276.4,677.2)" />
<use xlink:href="#f6_bp" transform="matrix(14,0,0,14,288.1,677.2)" />
<use xlink:href="#f6_ct" transform="matrix(14,0,0,14,300.4,677.2)" />
<use xlink:href="#f6_cc" transform="matrix(14,0,0,14,311.7,677.2)" />
<use xlink:href="#f6_d5" transform="matrix(14,0,0,14,323.7,677.2)" />
<use xlink:href="#f6_bp" transform="matrix(14,0,0,14,329,677.2)" />
<use xlink:href="#f6_cw" transform="matrix(14,0,0,14,341.8,677.1)" />
<use xlink:href="#f6_bh" transform="matrix(14,0,0,14,341.3,677.2)" />
<use xlink:href="#f6_b9" transform="matrix(14,0,0,14,358.1,677.2)" />
<use xlink:href="#f6_d8" transform="matrix(14,0,0,14,373.6,677.2)" />
<use xlink:href="#f6_bc" transform="matrix(14,0,0,14,384.9,677.2)" />
<use xlink:href="#f6_c1" transform="matrix(14,0,0,14,398.8,677.2)" />
<use xlink:href="#f6_bv" transform="matrix(14,0,0,14,412.8,677.2)" />
<use xlink:href="#f6_d4" transform="matrix(14,0,0,14,424.8,677.2)" />
<use xlink:href="#f6_bx" transform="matrix(14,0,0,14,430.3,677.2)" />
<use xlink:href="#f6_cw" transform="matrix(14,0,0,14,443.2,677.1)" />
<use xlink:href="#f6_c3" transform="matrix(14,0,0,14,442.6,677.2)" />
<use xlink:href="#f6_ct" transform="matrix(14,0,0,14,457.3,677.2)" />
<use xlink:href="#f6_bt" transform="matrix(14,0,0,14,462.9,677.2)" />
<use xlink:href="#f6_d4" transform="matrix(14,0,0,14,474.8,677.2)" />
<use xlink:href="#f6_b9" transform="matrix(14,0,0,14,480.3,677.2)" />
<use xlink:href="#f6_ct" transform="matrix(14,0,0,14,495.8,677.2)" />
<use xlink:href="#f6_k" transform="matrix(14,0,0,14,501.4,677.2)" />
<use xlink:href="#f6_br" transform="matrix(14,0,0,14,130.9,702.4)" />
<use xlink:href="#f6_ct" transform="matrix(14,0,0,14,142.6,702.4)" />
<use xlink:href="#f6_br" transform="matrix(14,0,0,14,148.2,702.4)" />
<use xlink:href="#f6_ct" transform="matrix(14,0,0,14,159.9,702.4)" />
<use xlink:href="#f6_bp" transform="matrix(14,0,0,14,171.2,702.4)" />
<use xlink:href="#f6_d4" transform="matrix(14,0,0,14,183.6,702.4)" />
<use xlink:href="#f6_c1" transform="matrix(14,0,0,14,183.5,702.4)" />
<use xlink:href="#f6_ct" transform="matrix(14,0,0,14,191.9,702.4)" />
<use xlink:href="#f6_ik" transform="matrix(14,0,0,14,203.2,702.4)" />
<use xlink:href="#f6_ct" transform="matrix(14,0,0,14,228.2,702.4)" />
<use xlink:href="#f6_cj" transform="matrix(14,0,0,14,239.5,702.4)" />
<use xlink:href="#f6_cg" transform="matrix(14,0,0,14,255.6,702.4)" />
<use xlink:href="#f6_dr" transform="matrix(14,0,0,14,270.3,702.4)" />
<use xlink:href="#f6_bt" transform="matrix(14,0,0,14,275.5,702.4)" />
<use xlink:href="#f6_cc" transform="matrix(14,0,0,14,287.2,702.4)" />
<use xlink:href="#f6_cv" transform="matrix(14,0,0,14,298.8,702.4)" />
<use xlink:href="#f6_dj" transform="matrix(14,0,0,14,303.5,703.3)" />
<use xlink:href="#f6_by" transform="matrix(14,0,0,14,310.1,702.4)" />
<use xlink:href="#f6_l1" transform="matrix(14,0,0,14,324.1,702.4)" />
<use xlink:href="#f6_bp" transform="matrix(14,0,0,14,335.9,702.4)" />
<use xlink:href="#f6_d8" transform="matrix(14,0,0,14,348.2,702.4)" />
<use xlink:href="#f6_b9" transform="matrix(14,0,0,14,359.5,702.4)" />
<use xlink:href="#f6_d4" transform="matrix(14,0,0,14,370.7,702.4)" />
<use xlink:href="#f6_bc" transform="matrix(14,0,0,14,380.7,702.4)" />
<use xlink:href="#f6_c1" transform="matrix(14,0,0,14,394.6,702.4)" />
<use xlink:href="#f6_am" transform="matrix(14,0,0,14,408.6,702.4)" />
<use xlink:href="#f6_bt" transform="matrix(14,0,0,14,430.1,702.4)" />
<use xlink:href="#f6_d4" transform="matrix(14,0,0,14,442,702.4)" />
<use xlink:href="#f6_b9" transform="matrix(14,0,0,14,447.5,702.4)" />
<use xlink:href="#f6_ct" transform="matrix(14,0,0,14,463,702.4)" />
<use xlink:href="#f6_nh" transform="matrix(14,0,0,14,474.3,702.4)" />
</g>
<g fill="#000000" >
<use xlink:href="#f7_4r" transform="matrix(9,0,0,9,290.2,795.2)" />
<use xlink:href="#f8_p" transform="matrix(9,0,0,9,303,795.2)" />
<use xlink:href="#f8_r" transform="matrix(9,0,0,9,310.7,795.2)" />
<use xlink:href="#f7_4r" transform="matrix(9,0,0,9,321.3,795.2)" />
</g>
</g>
<image preserveAspectRatio="none" x="22" y="801" width="581" height="86" xlink:href="img/1.png"/>
<path d="M215.4,104.3H406.8v1.1H215.4v-1.1Z" class="g1_63"/>
<image preserveAspectRatio="none" x="202" y="14" width="217" height="26" xlink:href="img/2.png"/>
<defs>
<path d="M700,-327L637,-39c0,0,-43,-9,-85,-9c0,0,-109,0,-228,58c0,0,-119,59,-199,160c0,0,-79,102,-79,220c0,0,0,134,95,216c0,0,94,82,252,85H516V822H0L-86,937l32,64H929l85,-115L982,822H645L747,749V468l2,-4H478c0,0,-98,0,-148,-45c0,0,-50,-46,-50,-110c0,0,0,-68,53,-121c0,0,46,-20,99,-20c0,0,74,0,141,35L555,332l154,56L897,154C897,154,862,87,785,34L933,-233L700,-327Z"
id="f5_br"
transform="scale(0.001,-0.001)"/>

<path d="M277,-65L102,29V822H0L-86,937l32,64H463L548,886L516,822H244L347,749V-31L277,-65Z"
id="f5_ct"
transform="scale(0.001,-0.001)"/>

<path d="M342,-69c0,0,-146,139,-224,256c0,0,-78,117,-78,226c0,0,0,120,90,193c0,0,90,72,243,72H599V822H0L-86,937l32,64H959l86,-115l-32,-64H741L843,749V-31L773,-65L599,29V445H448c0,0,-81,0,-123,-34c0,0,-42,-34,-42,-90c0,0,0,-54,43,-118c0,0,44,-64,143,-163L342,-69Z"
id="f5_bp"
transform="scale(0.001,-0.001)"/>

<path d="M-289,908l-132,216c0,0,-70,120,-169,120c0,0,-83,0,-200,-80l-130,249c0,0,125,78,234,78c0,0,187,0,349,-241L-159,969L-289,908Z"
id="f5_d4"
transform="scale(0.001,-0.001)"/>

<path d="M545,-97L35,405L87,542H295c0,0,1,5,1,280H0L-86,937l32,64H729L814,886L782,822H445L550,749V547c0,0,0,-75,-41,-127c0,0,-41,-52,-129,-111L709,110V41L545,-97Z"
id="f5_c1"
transform="scale(0.001,-0.001)"/>

<path d="M300,310c13,0,56,2,103,25c0,0,58,27,100,81V523c0,0,-46,16,-83,16c0,0,-69,0,-110,-42c0,0,-41,-42,-41,-101c0,0,0,-46,26,-86c0,0,2,0,5,0Zm771,284c0,0,154,32,154,104c0,0,0,61,-96,124H645L747,749V611c0,0,73,57,154,57c0,0,97,0,170,-74ZM1302,290c0,0,82,0,160,44c0,0,78,43,116,117V822H1315c0,0,136,-107,136,-225c0,0,0,-74,-55,-131c0,0,-55,-57,-165,-83c0,0,16,-48,45,-91l26,-2ZM677,-65L503,29V144c0,0,-32,-11,-74,-11c0,0,-143,0,-272,102C157,235,29,336,29,469c0,0,0,105,76,180c0,0,75,75,190,75c0,0,41,0,73,-7L503,646V822H0L-86,937l32,64H1937l87,-115l-32,-64H1720l103,-73V-31l-71,-34L1578,29V139c0,0,-59,-31,-130,-31c0,0,-119,0,-236,78c0,0,-118,77,-201,217l-7,8c0,0,-25,31,-60,31c0,0,-73,0,-197,-144V-31L677,-65Z"
id="f5_ik"
transform="scale(0.001,-0.001)"/>

<path d="M303,-115c0,0,-39,15,-88,52c0,0,-48,37,-73,71c0,0,57,113,130,157c0,0,84,-32,156,-124c0,0,-17,-43,-52,-87c0,0,-35,-45,-73,-69ZM403,402c0,0,72,0,126,58V822H222L325,749V434c0,0,31,-32,78,-32ZM703,-65L529,29V200l-37,-3c0,0,-136,0,-280,133C212,330,69,463,67,600V822H0L-86,937l32,64H1283l86,-115l-32,-64H671L773,749V631c0,0,81,58,168,58c0,0,122,0,213,-99c0,0,91,-100,91,-228c0,0,0,-206,-253,-372L820,167c0,0,109,81,162,137c0,0,54,57,54,107c0,0,0,55,-52,55c0,0,-84,0,-211,-144V-31L703,-65Z"
id="f5_cj"
transform="scale(0.001,-0.001)"/>

<path d="M512,-266c0,0,-38,15,-87,52c0,0,-49,36,-74,71c0,0,57,113,130,157c0,0,84,-31,156,-123c0,0,-17,-44,-52,-89c0,0,-35,-44,-73,-68ZM952,-65L778,29V474H600c0,0,94,-91,94,-202c0,0,0,-98,-66,-163c0,0,-66,-65,-171,-65c0,0,-165,0,-280,155C177,199,63,354,-7,616l152,50c0,0,67,-223,120,-299c0,0,53,-77,122,-77c0,0,47,0,73,29c0,0,26,28,26,71c0,0,0,79,-73,128L298,559V681H778V822H0L-86,937l32,64H1137l85,-115l-32,-64H920l102,-73V-31L952,-65Z"
id="f5_cg"
transform="scale(0.001,-0.001)"/>

<path d="M-268,901c0,0,-241,181,-241,358c0,0,0,99,72,166c0,0,71,68,177,68c0,0,69,0,132,-29c0,0,63,-28,102,-72L-60,1276c0,0,-52,26,-106,26c0,0,-62,0,-106,-35c0,0,-43,-36,-43,-101c0,0,0,-57,34,-110c0,0,35,-54,103,-121l-90,-34Z"
id="f5_dr"
transform="scale(0.001,-0.001)"/>

<path d="M746,-65L571,29V419H376V260L275,212c0,0,-87,48,-160,148c0,0,-72,100,-91,193l57,84H571V822H0L-86,937l32,64H930l88,-115L985,822H713L816,749V-31L746,-65Z"
id="f5_bt"
transform="scale(0.001,-0.001)"/>

<path d="M756,-314c0,0,-304,57,-481,187C275,-127,98,2,98,170c0,0,0,117,82,197c0,0,-110,91,-110,195c0,0,0,74,64,127c0,0,63,54,188,54H567v79H0L-86,937l32,64H906L992,886L959,822H684L787,749V535H383c0,0,-110,0,-110,-67c0,0,0,-19,10,-36c0,0,78,32,174,32c0,0,162,0,277,-87c0,0,115,-87,115,-214c0,0,0,-143,-142,-228L518,76c0,0,125,94,145,173c0,0,-55,26,-113,26c0,0,-84,0,-144,-45c0,0,-59,-45,-59,-118c0,0,0,-107,121,-166c0,0,120,-60,336,-105L756,-314Z"
id="f5_cc"
transform="scale(0.001,-0.001)"/>

<path d="M277,-65L102,29V822H0L-86,937l32,64H110c0,0,-50,142,-110,226c0,0,-60,84,-149,84c0,0,-59,0,-97,-37c0,0,-39,-36,-39,-91c0,0,0,-57,42,-115l-95,-50c0,0,-145,116,-145,267c0,0,0,108,75,179c0,0,76,70,195,70c0,0,179,0,297,-150c0,0,119,-150,189,-383H463L548,886L516,822H244L347,749V-31L277,-65Z"
id="f5_cv"
transform="scale(0.001,-0.001)"/>

<path d="M0,1102c0,0,-40,16,-91,55c0,0,-52,39,-79,76c0,0,59,119,137,165c0,0,42,-15,89,-54c0,0,46,-39,74,-76c0,0,-17,-44,-54,-92c0,0,-38,-48,-76,-74Z"
id="f5_dj"
transform="scale(0.001,-0.001)"/>

<path d="M663,-49L573,8V445H299V280L226,251c0,0,-105,99,-162,238l63,72H573V822H0l-45,76l14,31H837l46,-76L869,822H634l66,-58V-39L663,-49Z"
id="f6_bt"
transform="scale(0.001,-0.001)"/>

<path d="M228,-49L138,8V822H0l-45,76l14,31H402l46,-76L434,822H199l65,-58V-39L228,-49Z"
id="f6_ct"
transform="scale(0.001,-0.001)"/>

<path d="M283,260c0,0,122,0,209,113V513c0,0,-90,51,-160,51c0,0,-80,0,-129,-50c0,0,-49,-50,-49,-118c0,0,0,-60,35,-110c0,0,45,-26,94,-26ZM582,-49L492,8V211c0,0,-63,-54,-141,-54c0,0,-113,0,-213,92c0,0,-100,92,-100,205c0,0,0,93,69,157c0,0,69,64,162,64c0,0,32,0,64,-9L492,590V822H0l-45,76l14,31H1108l45,-76l-13,-31H553l66,-58V524c0,0,91,89,192,89c0,0,98,0,171,-79c0,0,72,-79,72,-186c0,0,0,-178,-224,-330L736,124c0,0,219,153,219,269c0,0,0,44,-26,75c0,0,-26,32,-81,32c0,0,-109,0,-229,-155V-39L582,-49Z"
id="f6_b9"
transform="scale(0.001,-0.001)"/>

<path d="M228,-49L138,8V822H0l-45,76l14,31H119L-33,1144c0,0,-70,92,-157,92c0,0,-69,0,-159,-58l-72,118c0,0,89,73,181,73c0,0,140,0,257,-170L205,929H402l46,-76L434,822H199l65,-58V-39L228,-49Z"
id="f6_d8"
transform="scale(0.001,-0.001)"/>

<path d="M547,-285c0,0,-66,25,-102,80c0,0,32,69,82,101c0,0,55,-20,99,-80c0,0,-26,-67,-79,-101Zm1,228c0,0,-122,0,-243,81c0,0,-122,81,-252,280l57,41C110,345,283,64,498,64c0,0,92,0,153,49c0,0,61,49,61,121c0,0,0,46,-28,84L440,237c0,0,-73,11,-139,55c0,0,-66,44,-105,105c0,0,-40,61,-40,119c0,0,0,72,62,125c0,0,62,53,184,53H625V822H0l-45,76l14,31H906l46,-76L938,822H678l66,-58V562H431c0,0,-164,0,-164,-99c0,0,0,-55,57,-102l261,82c0,0,104,-21,172,-98c0,0,68,-78,68,-171c0,0,0,-99,-76,-166c0,0,-77,-65,-201,-65Z"
id="f6_ch"
transform="scale(0.001,-0.001)"/>

<path d="M325,240c0,0,77,0,154,35c0,0,77,35,120,99V500c0,0,-118,73,-222,73c0,0,-97,0,-151,-54c0,0,-53,-53,-53,-128c0,0,0,-73,49,-125c0,0,38,-26,103,-26ZM689,-49L599,8V199c0,0,-73,-65,-179,-65c0,0,-134,0,-252,96c0,0,-118,95,-118,221c0,0,0,102,78,171c0,0,78,69,190,69c0,0,38,0,75,-10L599,582V822H0l-45,76l14,31H863l46,-76L895,822H660l66,-58V-39L689,-49Z"
id="f6_c7"
transform="scale(0.001,-0.001)"/>

<path d="M413,-59C413,-59,53,193,53,416c0,0,0,97,66,164c0,0,66,66,156,66c0,0,61,0,110,-30L487,507c0,0,92,126,257,126l35,-2V822H0l-45,76l14,31H1043l46,-76l-13,-31H840l66,-58V-39L869,-49L779,8V547c0,0,-101,-5,-165,-90c0,0,-64,-86,-70,-222L507,225l-90,73c0,0,5,79,35,151c0,0,-59,66,-128,66c0,0,-57,0,-100,-38c0,0,-44,-39,-44,-109c0,0,0,-165,284,-360L413,-59Z"
id="f6_c3"
transform="scale(0.001,-0.001)"/>

<path d="M-214,863l-199,281c0,0,-70,92,-157,92c0,0,-69,0,-159,-58l-72,118c0,0,89,73,180,73c0,0,141,0,258,-170L-155,901l-59,-38Z"
id="f6_d4"
transform="scale(0.001,-0.001)"/>

<path d="M799,475V822H350l66,-55V564c0,0,0,-43,-25,-89ZM527,-71L52,414l34,92H277c0,0,12,32,12,72V822H0l-45,76l14,31H1063l46,-76l-14,-31H860l66,-58V-39L889,-49L799,8V370H315L264,316L610,34L611,8L527,-71Z"
id="f6_cb"
transform="scale(0.001,-0.001)"/>

<path d="M-234,-413c0,0,-210,0,-488,322l54,49c0,0,119,-128,209,-193c0,0,90,-65,177,-65c0,0,72,0,113,40c0,0,42,39,42,91c0,0,0,75,-78,106L-323,-181l-90,98c0,0,63,95,167,95c0,0,90,0,155,-69c0,0,66,-70,66,-164c0,0,0,-85,-60,-139c0,0,-61,-53,-149,-53Z"
id="f6_cw"
transform="scale(0.001,-0.001)"/>

<path d="M830,-253l-123,66c0,0,31,47,31,78c0,0,0,44,-64,84L353,130c0,0,-234,113,-234,325V822H0l-45,76l14,31H848l46,-76L880,822H655l68,-58V561c0,0,0,-176,-41,-241c0,0,-40,-65,-161,-106l-49,82l124,69V822H180l66,-58V283L646,92c0,0,126,-60,176,-110c0,0,50,-51,50,-115c0,0,0,-62,-42,-120Z"
id="f6_ax"
transform="scale(0.001,-0.001)"/>

<path d="M675,-274L602,21C602,21,550,3,498,3C498,3,347,3,210,118C210,118,73,232,73,373c0,0,0,113,84,184c0,0,84,71,222,72H524V822H0l-45,76l14,31H834l46,-76L866,822H585l66,-58V504l-3,2l3,-3H408c0,0,-95,0,-154,-53c0,0,-58,-53,-58,-132c0,0,0,-49,27,-100c0,0,28,-50,83,-84c0,0,44,-15,96,-15c0,0,91,0,160,46L535,303l101,48L773,188c0,0,-8,-28,-34,-66c0,0,-27,-38,-62,-64L813,-221L675,-274Z"
id="f6_br"
transform="scale(0.001,-0.001)"/>

<path d="M228,-49L138,8V822H0l-45,76l14,31H136c0,0,-173,353,-364,353c0,0,-75,0,-119,-44c0,0,-45,-45,-45,-106c0,0,0,-69,48,-128l-43,-32c0,0,-124,113,-124,224c0,0,0,87,67,146c0,0,68,59,167,59c0,0,150,0,283,-130c0,0,135,-130,219,-342H402l46,-76L434,822H199l65,-58V-39L228,-49Z"
id="f6_ob"
transform="scale(0.001,-0.001)"/>

<path d="M108,-222l-44,58c0,0,96,81,104,164L89,61c0,0,12,83,93,122c0,0,50,-15,79,-55c0,0,29,-39,29,-90c0,0,0,-69,-48,-142c0,0,-48,-72,-134,-118Z"
id="f6_k"
transform="scale(0.001,-0.001)"/>

<path d="M959,-49L869,8V367c0,0,-32,-13,-64,-13c0,0,-50,0,-110,25c0,0,23,-52,23,-109c0,0,0,-103,-70,-170c0,0,-70,-66,-182,-66c0,0,-110,0,-222,82c0,0,-111,83,-213,293l68,42c0,0,72,-155,152,-231c0,0,81,-76,178,-76c0,0,83,0,131,49c0,0,48,48,48,117c0,0,0,54,-30,100c0,0,-31,47,-91,65L325,391L257,512c0,0,68,53,156,56c0,0,140,72,140,179c0,0,0,69,-52,99c0,0,-4,1,-11,1c-19,0,-66,-4,-123,-30c0,0,-78,-35,-142,-96L150,823c0,0,119,117,253,117c0,0,98,0,175,-71c0,0,77,-70,77,-159c0,0,0,-103,-94,-180c0,0,39,-23,73,-56c0,0,52,-22,109,-22c0,0,77,0,126,38V822H727l-46,76l14,31h439l45,-76l-13,-31H930l66,-58V-39L959,-49Z"
id="f6_al"
transform="scale(0.001,-0.001)"/>

<path d="M727,-49L637,8V822H278l66,-58V226L270,196c0,0,-64,36,-122,98c0,0,-58,62,-79,122l43,59H217V822H0l-45,76l14,31H901l46,-76L933,822H698l66,-58V-39L727,-49Z"
id="f6_bb"
transform="scale(0.001,-0.001)"/>

<path d="M527,-71L52,414l34,92H277c0,0,12,32,12,72V822H0l-45,76l14,31H599l46,-76L631,822H350l66,-55V564c0,0,0,-96,-152,-248L610,34L611,8L527,-71Z"
id="f6_c1"
transform="scale(0.001,-0.001)"/>

<path d="M689,445V822H286l65,-58l8,-319ZM779,-49L689,8V328H370V180L296,150c0,0,-56,35,-120,104c0,0,-63,70,-89,131l41,60H238L223,822H0l-45,76l14,31H953l46,-76L985,822H750l66,-58V-39L779,-49Z"
id="f6_bz"
transform="scale(0.001,-0.001)"/>

<path d="M252,385l310,78l22,-9c0,0,107,-43,200,-43c0,0,91,0,151,41V822H603l66,-58V585H373c0,0,-184,0,-184,-99c0,0,0,-48,63,-101ZM483,-305L295,-10c0,0,-90,22,-156,74l41,170h66L351,63c0,0,126,4,207,62c0,0,82,58,82,139c0,0,0,37,-18,71L365,266c0,0,-110,15,-197,102c0,0,-87,87,-87,176c0,0,0,69,59,117c0,0,59,48,172,48H550V822H0l-45,76l14,31H1199l46,-76l-14,-31H996l66,-58V-39l-37,-10L935,8V318c0,0,-41,-15,-78,-15c0,0,-52,0,-131,30c0,0,32,-55,32,-111c0,0,0,-109,-98,-179c0,0,-98,-69,-254,-69L599,-216L483,-305Z"
id="f6_bh"
transform="scale(0.001,-0.001)"/>

<path d="M-91,1001c0,0,-27,10,-61,36c0,0,-33,26,-50,49c0,0,38,81,90,110c0,0,61,-23,107,-85c0,0,-28,-71,-86,-110ZM-214,863l-199,281c0,0,-70,92,-157,92c0,0,-69,0,-159,-58l-72,118c0,0,89,73,180,73c0,0,141,0,258,-170L-155,901l-59,-38Z"
id="f6_oz"
transform="scale(0.001,-0.001)"/>

<path d="M959,-49L869,8V367c0,0,-32,-13,-64,-13c0,0,-50,0,-110,25c0,0,23,-52,23,-109c0,0,0,-103,-70,-170c0,0,-70,-66,-182,-66c0,0,-110,0,-222,82c0,0,-111,83,-213,293l68,42c0,0,72,-155,152,-231c0,0,81,-76,178,-76c0,0,83,0,131,49c0,0,48,48,48,117c0,0,0,54,-30,100c0,0,-31,47,-91,65L325,391L257,512c0,0,68,53,156,56c0,0,140,72,140,179c0,0,0,69,-52,99c0,0,-4,1,-11,1c-19,0,-66,-4,-123,-30c0,0,-78,-35,-142,-96L150,823c0,0,119,117,253,117c0,0,98,0,175,-71c0,0,77,-70,77,-159c0,0,0,-103,-94,-180c0,0,39,-23,73,-56c0,0,52,-22,109,-22c0,0,77,0,126,38V822H727l-46,76l14,31h840l46,-76l-13,-31H1332l66,-58V-39l-37,-10L1271,8V822H930l66,-58V-39L959,-49Z"
id="f6_am"
transform="scale(0.001,-0.001)"/>

<path d="M845,-49L755,8V513H497c0,0,61,-45,93,-110c0,0,33,-64,33,-128c0,0,0,-90,-58,-144c0,0,-59,-53,-143,-53c0,0,-133,0,-234,139C188,217,87,356,20,596l76,24c0,0,60,-201,127,-306c0,0,67,-105,160,-105c0,0,57,0,91,36c0,0,33,36,33,91c0,0,0,84,-73,159L295,558v71H755V822H0l-45,76l14,31H1019l46,-76l-14,-31H816l66,-58V-39L845,-49Z"
id="f6_bg"
transform="scale(0.001,-0.001)"/>

<path d="M347,-57C347,-57,66,211,66,394c0,0,0,98,74,164c0,0,74,65,225,65H616V822H0l-45,76l14,31H880l46,-76L912,822H677l66,-58V-39L706,-49L616,8V500H428c0,0,-239,0,-239,-161c0,0,0,-136,214,-343L347,-57Z"
id="f6_bp"
transform="scale(0.001,-0.001)"/>

<path d="M823,-49L733,8V339H445V191L371,160c0,0,-56,36,-120,105c0,0,-63,70,-89,131l41,59H313V735c0,0,0,99,-55,140c0,0,-3,1,-8,1c-16,0,-48,-3,-71,-23c0,0,-31,-26,-31,-66c0,0,0,-69,81,-113L189,620C189,620,31,720,31,828c0,0,0,61,45,99c0,0,46,37,109,37c0,0,96,0,173,-86c0,0,76,-87,79,-194V455H733V822H556l-46,76l14,31H998l45,-76l-13,-31H794l66,-58V-39L823,-49Z"
id="f6_by"
transform="scale(0.001,-0.001)"/>

<path d="M283,260c0,0,122,0,209,113V513c0,0,-90,51,-160,51c0,0,-80,0,-129,-50c0,0,-49,-50,-49,-118c0,0,0,-60,35,-110c0,0,45,-26,94,-26ZM582,-49L492,8V211c0,0,-63,-54,-141,-54c0,0,-113,0,-214,92c0,0,-102,92,-102,206c0,0,0,93,69,157c0,0,69,63,163,63c0,0,34,0,66,-9L492,590V822H0l-45,76l14,31H909l46,-76L941,822H553l66,-58V521c0,0,93,104,192,104c0,0,63,0,120,-42c0,0,57,-42,82,-106L964,431l-5,9c0,0,-38,72,-110,72c0,0,-51,0,-105,-41c0,0,-53,-42,-125,-129V-39L582,-49Z"
id="f6_l1"
transform="scale(0.001,-0.001)"/>

<path d="M426,-68L339,5V953l37,11l87,-73V-57L426,-68Z"
id="f6_ng"
transform="scale(0.001,-0.001)"/>

<path d="M688,-243c0,0,-256,53,-408,173c0,0,-152,119,-152,270c0,0,0,101,68,171c0,0,-101,84,-101,179c0,0,0,64,53,112c0,0,54,47,191,47H587V822H0l-45,76l14,31H830l45,-76L862,822H640l66,-58V585H362c0,0,-159,-1,-159,-92c0,0,0,-41,46,-80c0,0,76,47,183,47c0,0,135,0,230,-76c0,0,96,-75,96,-187C758,197,758,67,629,2L545,104c0,0,49,30,81,75c0,0,32,44,32,82c0,0,0,16,-4,26c0,0,-64,58,-167,58c0,0,-97,0,-166,-50v-2c0,0,-67,-52,-67,-131c0,0,0,-116,132,-199c0,0,132,-84,334,-132l-32,-74Z"
id="f6_cc"
transform="scale(0.001,-0.001)"/>

<path d="M388,325c0,0,58,0,112,31c0,0,53,31,84,86V822H165l69,-58V408c0,0,47,-83,154,-83ZM674,-49L584,8V257c0,0,-61,-51,-141,-51c0,0,-125,0,-232,109c0,0,-107,108,-107,243V822H0l-45,76l14,31H848l46,-76L880,822H645l65,-58V-39L674,-49Z"
id="f6_bv"
transform="scale(0.001,-0.001)"/>

<path d="M228,-49L138,8V822H0l-45,76l14,31H134c0,0,-91,92,-91,191c0,0,0,105,85,170c0,0,84,65,219,65c0,0,128,0,293,-76c0,0,165,-77,362,-263L958,966c0,0,-177,143,-303,210c0,0,-125,68,-244,68c0,0,-107,0,-175,-50c0,0,-68,-50,-68,-131c0,0,0,-61,49,-134H402l46,-76L434,822H199l65,-58V-39L228,-49Z"
id="f6_cu"
transform="scale(0.001,-0.001)"/>

<path d="M374,248c0,0,77,0,149,36c0,0,71,37,110,107V822H284c0,0,138,-96,138,-208c0,0,0,-151,-228,-192c0,0,29,-104,89,-158c0,0,41,-16,91,-16ZM723,-49L633,8V200c0,0,-69,-56,-170,-56c0,0,-122,0,-240,94c0,0,-118,94,-179,237l20,55c0,0,133,17,187,44c0,0,55,28,55,84c0,0,0,45,-30,81c0,0,-30,36,-99,83H0l-45,76l14,31H897l46,-76L929,822H694l65,-58V-39L723,-49Z"
id="f6_c0"
transform="scale(0.001,-0.001)"/>

<path d="M92,380L46,457l14,30H448l45,-76L480,380Z"
id="f6_pd"
transform="scale(0.001,-0.001)"/>

<path d="M95,0L67,98L422,497c0,0,130,154,130,259c0,0,0,63,-40,111c0,0,-40,48,-121,48c0,0,-75,0,-171,-29L193,695l-88,2c0,0,-13,82,-13,165l1,65c0,0,159,97,315,97c0,0,122,0,207,-78c0,0,85,-77,85,-193c0,0,0,-67,-34,-133c0,0,-33,-67,-165,-217L237,121l4,-14l373,21l49,136l83,-12C746,252,732,99,704,0Z"
id="f6_q"
transform="scale(0.001,-0.001)"/>

<path d="M348,229c0,0,57,0,106,17L263,559c0,0,-95,-50,-95,-162c0,0,0,-75,52,-136c0,0,49,-32,128,-32Zm170,48c0,0,61,38,96,91V504c0,0,-131,80,-244,80l-35,-2L518,277ZM704,-49L614,8V193c0,0,-84,-65,-192,-65c0,0,-139,0,-255,98c0,0,-115,98,-115,226c0,0,0,106,77,175c0,0,77,70,189,70c0,0,38,0,75,-9L614,578V822H0l-45,76l14,31H878l46,-76L911,822H675l66,-58V-39L704,-49Z"
id="f6_bx"
transform="scale(0.001,-0.001)"/>

<path d="M283,260c0,0,122,0,209,113V513c0,0,-90,51,-160,51c0,0,-80,0,-129,-50c0,0,-49,-50,-49,-118c0,0,0,-60,35,-110c0,0,45,-26,94,-26ZM619,521c0,0,93,104,192,104c0,0,98,0,170,-92c0,0,117,17,167,45c0,0,50,27,50,80c0,0,0,45,-30,81c0,0,-30,36,-99,83H553l66,-58V521ZM1267,248c0,0,76,0,148,36c0,0,72,37,110,107V822H1176c0,0,138,-96,138,-208c0,0,0,-151,-228,-192c0,0,29,-104,89,-158c0,0,41,-16,92,-16ZM582,-49L492,8V211c0,0,-63,-54,-141,-54c0,0,-113,0,-214,92c0,0,-102,92,-102,206c0,0,0,93,69,157c0,0,69,63,163,63c0,0,34,0,66,-9L492,590V822H0l-45,76l14,31H1789l46,-76l-14,-31H1586l66,-58V-39l-37,-10L1525,8V200c0,0,-69,-56,-170,-56c0,0,-121,0,-238,92c0,0,-118,92,-179,235c0,0,-35,41,-89,41c0,0,-51,0,-105,-41c0,0,-53,-42,-125,-129V-39L582,-49Z"
id="f6_ik"
transform="scale(0.001,-0.001)"/>

<path d="M304,-74c0,0,-66,25,-102,79c0,0,32,68,82,100c0,0,55,-19,99,-79c0,0,-25,-66,-79,-100Zm64,418c0,0,90,0,155,73V822H150l67,-58V438c0,0,46,-94,151,-94ZM613,-49L523,8V251c0,0,-48,-28,-103,-28c0,0,-122,0,-227,112C193,335,89,448,89,590V822H0l-45,76l14,31H1150l46,-76l-13,-31H584l65,-58V533c0,0,101,95,211,95c0,0,98,0,170,-79c0,0,73,-78,73,-185c0,0,0,-179,-225,-330L785,139c0,0,219,153,219,269c0,0,0,43,-26,75c0,0,-26,32,-80,32c0,0,-120,0,-249,-159V-39L613,-49Z"
id="f6_cj"
transform="scale(0.001,-0.001)"/>

<path d="M480,-156c0,0,-66,24,-103,79c0,0,32,69,83,100c0,0,55,-20,99,-79c0,0,-26,-67,-79,-100ZM845,-49L755,8V513H497c0,0,61,-45,93,-110c0,0,33,-64,33,-128c0,0,0,-90,-58,-144c0,0,-59,-53,-143,-53c0,0,-133,0,-234,139C188,217,87,356,20,596l76,24c0,0,60,-201,127,-306c0,0,67,-105,160,-105c0,0,57,0,91,36c0,0,33,36,33,91c0,0,0,84,-73,159L295,558v71H755V822H0l-45,76l14,31H1019l46,-76l-14,-31H816l66,-58V-39L845,-49Z"
id="f6_cg"
transform="scale(0.001,-0.001)"/>

<path d="M-239,897c0,0,-82,61,-132,137c0,0,-50,75,-50,150c0,0,0,78,52,133c0,0,52,55,141,55c0,0,98,0,176,-64l-23,-69c0,0,-52,32,-104,32c0,0,-57,0,-95,-36c0,0,-38,-36,-38,-95c0,0,0,-115,117,-217l-44,-26Z"
id="f6_dr"
transform="scale(0.001,-0.001)"/>

<path d="M228,-49L138,8V822H0l-45,76l14,31H138c0,0,-109,342,-284,342c0,0,-62,0,-102,-40c0,0,-40,-39,-40,-93c0,0,0,-61,51,-134l-42,-32c0,0,-128,113,-128,226c0,0,0,79,60,136c0,0,61,56,154,56c0,0,137,0,249,-125c0,0,112,-125,169,-336H402l46,-76L434,822H199l65,-58V-39L228,-49Z"
id="f6_cv"
transform="scale(0.001,-0.001)"/>

<path d="M0,1062c0,0,-26,11,-60,36c0,0,-34,26,-51,49c0,0,39,81,91,110c0,0,60,-23,106,-85c0,0,-28,-70,-86,-110Z"
id="f6_dj"
transform="scale(0.001,-0.001)"/>

<path d="M434,225c0,0,84,0,169,42c0,0,85,43,126,126V822H267c0,0,-64,-49,-64,-115c0,0,0,-79,90,-126c0,0,60,35,144,35l67,-6l75,-89L564,490l-51,7H493c0,0,-90,0,-142,-43c0,0,-52,-43,-52,-104c0,0,0,-60,51,-109c0,0,33,-16,84,-16ZM819,-49L729,8V197c0,0,-83,-76,-202,-76c0,0,-130,0,-237,91c0,0,-108,92,-108,196c0,0,0,72,53,128c0,0,-75,42,-115,97c0,0,-41,56,-41,113c0,0,0,38,22,76H0l-45,76l14,31H993l46,-76l-14,-31H790l66,-58V-39L819,-49Z"
id="f6_bc"
transform="scale(0.001,-0.001)"/>

<path d="M426,-68L339,5V953l37,11l87,-73V-57L426,-68Zm397,0L736,5V953l37,11l87,-73V-57L823,-68Z"
id="f6_nh"
transform="scale(0.001,-0.001)"/>

<path d="M228,-49L138,8V822H0l-45,76l14,31H134c0,0,-91,93,-91,200c0,0,0,109,92,174c0,0,93,66,253,66c0,0,186,0,398,-89c0,0,212,-90,430,-264l-49,-47c0,0,-424,285,-727,285c0,0,-125,0,-201,-49c0,0,-76,-48,-76,-137c0,0,0,-67,52,-139H402l46,-76L434,822H199l65,-58V-39L228,-49Z"
id="f6_nu"
transform="scale(0.001,-0.001)"/>

<path d="M900,298c0,0,32,73,32,159c0,0,0,110,-38,160c0,0,-40,31,-81,31c0,0,-48,0,-80,-35c0,0,-33,-35,-33,-89c0,0,0,-118,200,-226ZM588,-60c0,0,-154,0,-274,93c0,0,-120,94,-120,207c0,0,0,50,28,92C222,332,61,440,61,552c0,0,0,71,56,122c0,0,56,50,169,50H417l64,-98L463,600H333c0,0,-157,-1,-157,-99c0,0,0,-59,88,-124c0,0,68,52,164,52c0,0,38,0,79,-9l71,-88L558,299c0,0,-46,10,-81,10c0,0,-75,0,-116,-36c0,0,-40,-36,-40,-88c0,0,0,-78,73,-130c0,0,54,-17,109,-17c0,0,114,0,211,54c0,0,97,53,154,145c0,0,-156,96,-223,173c0,0,-67,77,-67,155c0,0,0,72,48,124c0,0,48,52,126,55v78H0l-45,76l14,31H1123l46,-76l-14,-31H805l66,-58V717c0,0,76,-40,124,-124c0,0,47,-84,47,-193c0,0,0,-188,-133,-324C909,76,776,-60,588,-60Z"
id="f6_bf"
transform="scale(0.001,-0.001)"/>

<path d="M487,-7c0,0,-88,0,-185,46c0,0,-97,47,-163,130c0,0,-66,83,-66,185c0,0,0,109,80,177c0,0,79,68,234,68H504V822H0l-45,76l14,31H827l45,-76L859,822H565l66,-58V474l-3,1l3,-3H396c0,0,-100,0,-152,-47c0,0,-53,-48,-53,-119c0,0,0,-104,93,-178c0,0,60,-20,118,-20c0,0,81,0,156,36c0,0,76,35,123,99l92,-99C773,144,723,70,645,31C645,31,567,-7,487,-7Z"
id="f6_bk"
transform="scale(0.001,-0.001)"/>

<path d="M471,-26c0,0,-259,0,-448,396l70,43C93,413,240,98,442,98c0,0,79,0,132,46c0,0,54,45,54,120c0,0,0,61,-38,116c0,0,-38,54,-107,72L322,370L255,492c0,0,66,53,156,56c0,0,128,51,128,153c0,0,0,77,-65,121H0l-45,76l14,31H813l46,-76L845,822H578c0,0,76,-66,76,-157c0,0,0,-95,-87,-156c0,0,84,-48,131,-123c0,0,48,-76,48,-158c0,0,0,-109,-78,-182c0,0,-78,-72,-197,-72Z"
id="f6_ap"
transform="scale(0.001,-0.001)"/>

<path d="M368,344c0,0,90,0,155,73V822H150l67,-58V438c0,0,46,-94,151,-94ZM613,-49L523,8V251c0,0,-48,-28,-103,-28c0,0,-122,0,-227,112C193,335,89,448,89,590V822H0l-45,76l14,31H1150l46,-76l-13,-31H584l65,-58V533c0,0,101,95,211,95c0,0,98,0,170,-79c0,0,73,-78,73,-185c0,0,0,-179,-225,-330L785,139c0,0,219,153,219,269c0,0,0,43,-26,75c0,0,-26,32,-80,32c0,0,-120,0,-249,-159V-39L613,-49Z"
id="f6_bw"
transform="scale(0.001,-0.001)"/>

<path d="M396,318c0,0,123,0,203,108V822H180l66,-58V408c0,0,49,-90,150,-90ZM176,-66L79,9L379,228c0,0,-106,23,-181,119c0,0,-76,96,-79,198V822H0l-45,76l14,31H863l46,-76L895,822H660l66,-58V-39L689,-49L599,8V269L176,-66Z"
id="f6_e6"
transform="scale(0.001,-0.001)"/>

<path d="M483,-305L295,-10c0,0,-90,22,-156,74l41,170h66L351,63c0,0,126,4,207,62c0,0,82,58,82,139c0,0,0,37,-18,71L365,266c0,0,-110,15,-197,102c0,0,-87,87,-87,176c0,0,0,69,59,117c0,0,59,48,172,48H550V822H0l-45,76l14,31H822l46,-76L854,822H603l66,-58V585H373c0,0,-184,0,-184,-99c0,0,0,-48,63,-101l310,78c0,0,86,-34,141,-99c0,0,55,-65,55,-142c0,0,0,-109,-98,-179c0,0,-98,-69,-254,-69L599,-216L483,-305Z"
id="f6_an"
transform="scale(0.001,-0.001)"/>

<path d="M-214,860l-227,219c0,0,-73,70,-148,70c0,0,-67,0,-160,-58l-72,117c0,0,83,71,176,71c0,0,120,0,232,-124L-221,940l-102,294c0,0,-64,179,-189,179c0,0,-60,0,-133,-33l-60,125c0,0,84,47,164,47c0,0,200,0,281,-276L-150,901l-23,-15l-41,-26Z"
id="f6_d5"
transform="scale(0.001,-0.001)"/>

<path d="M830,-253l-123,66c0,0,31,47,31,78c0,0,0,44,-64,84L353,130c0,0,-234,113,-234,325V822H0l-45,76l14,31H600L448,1144c0,0,-71,92,-158,92c0,0,-68,0,-159,-58L60,1296c0,0,88,73,180,73c0,0,140,0,258,-170L686,929H848l46,-76L880,822H655l68,-58V561c0,0,0,-176,-41,-241c0,0,-40,-65,-161,-106l-49,82l124,69V822H180l66,-58V283L646,92c0,0,126,-60,176,-110c0,0,50,-51,50,-115c0,0,0,-62,-42,-120Z"
id="f6_ay"
transform="scale(0.001,-0.001)"/>

<path d="M527,-71L52,414l34,92H277c0,0,12,32,12,72V822H0l-45,76l14,31H654l46,-76L686,822H350l66,-55V564c0,0,0,-43,-25,-89H782L798,370H315L264,316L610,34L611,8L527,-71Z"
id="f6_m1"
transform="scale(0.001,-0.001)"/>

<path d="M570,78c0,0,66,17,105,54c0,0,40,38,40,88c0,0,0,40,-23,66c0,0,-23,26,-58,26c0,0,-40,0,-71,-33c0,0,-31,-33,-31,-90c0,0,0,-55,38,-111ZM538,-45c0,0,-182,0,-322,128C216,83,76,211,76,368c0,0,0,122,91,201c0,0,90,79,238,79H564V822H0l-45,76l14,31H853l45,-76L885,822H617l66,-58V521H420c0,0,-99,0,-162,-57c0,0,-62,-58,-62,-146c0,0,0,-121,105,-208c0,0,118,-41,188,-41l29,1l-69,46c0,0,-36,55,-36,115c0,0,0,73,48,123c0,0,49,49,123,49c0,0,87,0,151,-74c0,0,64,-74,64,-162c0,0,0,-94,-71,-153c0,0,-71,-59,-190,-59Z"
id="f6_bn"
transform="scale(0.001,-0.001)"/>

<path d="M108,-433L-59,-214c0,0,-99,119,-191,119c0,0,-59,0,-96,-35c0,0,-36,-34,-36,-81c0,0,0,-49,42,-83l152,95l64,-116c0,0,-71,-58,-148,-58c0,0,-80,0,-146,63c0,0,-65,64,-65,144c0,0,0,77,62,131c0,0,61,53,142,53c0,0,138,0,296,-205L165,-393l-57,-40Z"
id="f6_cx"
transform="scale(0.001,-0.001)"/>

<path d="M526,-266c0,0,-66,24,-103,79c0,0,32,69,83,101c0,0,55,-20,99,-80c0,0,-26,-67,-79,-100ZM570,78c0,0,66,17,105,54c0,0,40,38,40,88c0,0,0,40,-23,66c0,0,-23,26,-58,26c0,0,-40,0,-71,-33c0,0,-31,-33,-31,-90c0,0,0,-55,38,-111ZM538,-45c0,0,-182,0,-322,128C216,83,76,211,76,368c0,0,0,122,91,201c0,0,90,79,238,79H564V822H0l-45,76l14,31H853l45,-76L885,822H617l66,-58V521H420c0,0,-99,0,-162,-57c0,0,-62,-58,-62,-146c0,0,0,-121,105,-208c0,0,118,-41,188,-41l29,1l-69,46c0,0,-36,55,-36,115c0,0,0,73,48,123c0,0,49,49,123,49c0,0,87,0,151,-74c0,0,64,-74,64,-162c0,0,0,-94,-71,-153c0,0,-71,-59,-190,-59Z"
id="f6_ci"
transform="scale(0.001,-0.001)"/>

<path d="M228,-49L138,8V822H0l-45,76l14,31H134c0,0,-91,93,-91,202c0,0,0,105,85,170c0,0,86,65,236,65c0,0,340,0,742,-350l-50,-46c0,0,-182,135,-340,208c0,0,-158,73,-302,73c0,0,-113,0,-183,-48c0,0,-69,-48,-69,-132c0,0,0,-63,53,-142H402l46,-76L434,822H199l65,-58V-39L228,-49Z"
id="f6_nt"
transform="scale(0.001,-0.001)"/>

<path d="M825,-49L735,8V217c0,0,-86,-72,-197,-72c0,0,-130,0,-238,91c0,0,-107,91,-107,204c0,0,0,55,27,105H55L12,616l14,30H574l46,-76L607,539H396c0,0,-78,-49,-78,-162c0,0,0,-70,40,-111c0,0,39,-15,94,-15c0,0,84,0,163,41c0,0,79,41,120,121V822H0l-45,76l14,31H999l46,-76l-14,-31H796l66,-58V-39L825,-49Z"
id="f6_be"
transform="scale(0.001,-0.001)"/>

<path d="M761,293c0,0,127,0,169,94V532c0,0,-68,46,-145,46c0,0,-76,0,-121,-46c0,0,-45,-45,-45,-107c0,0,0,-61,44,-110c0,0,47,-22,98,-22ZM657,67c0,0,166,0,273,107v55c0,0,-45,-36,-111,-36c0,0,-110,0,-207,90c0,0,-97,90,-97,194c0,0,0,85,66,148c0,0,65,63,155,63l48,-5L930,603V822H376l62,-55V579c0,0,0,-60,-23,-102c0,0,-24,-42,-148,-190c0,0,66,-104,175,-162c0,0,108,-58,215,-58ZM1021,-49L930,8V53c0,0,-105,-83,-264,-83c0,0,-177,0,-339,128C327,98,165,226,90,429l34,77H296c0,0,19,39,19,102l-2,214H0l-45,76l14,31H1195l46,-76l-14,-31H992l65,-58V-39l-36,-10Z"
id="f6_ba"
transform="scale(0.001,-0.001)"/>

<path d="M-40,1030c0,0,-28,10,-61,36c0,0,-34,26,-51,49c0,0,38,81,90,110c0,0,61,-23,106,-85c0,0,-27,-71,-84,-110ZM-214,860l-227,219c0,0,-73,70,-148,70c0,0,-67,0,-160,-58l-72,117c0,0,83,71,176,71c0,0,120,0,232,-124L-221,940l-102,294c0,0,-64,179,-189,179c0,0,-60,0,-133,-33l-60,125c0,0,84,47,164,47c0,0,200,0,281,-276L-150,901l-23,-15l-41,-26Z"
id="f6_p3"
transform="scale(0.001,-0.001)"/>

<path d="M228,-49L138,8V822H0l-45,76l14,31H133c0,0,-93,95,-93,206c0,0,0,96,68,159c0,0,68,63,179,63c0,0,118,0,228,-81c0,0,110,-80,258,-262L720,970L588,1109c0,0,-133,133,-253,133c0,0,-78,0,-127,-46c0,0,-49,-46,-49,-119c0,0,0,-69,56,-148H402l46,-76L434,822H199l65,-58V-39L228,-49Z"
id="f6_nr"
transform="scale(0.001,-0.001)"/>

<path d="M513,460c0,0,61,81,61,179c0,0,0,87,-45,143c0,0,-45,57,-116,57c0,0,-63,0,-102,-43c0,0,-39,-43,-39,-110c0,0,0,-90,68,-151c0,0,68,-61,173,-75ZM581,-83L278,167l-41,-4c0,0,-99,0,-130,37l47,168l51,12l78,-79c0,0,110,40,183,105c0,0,-141,23,-231,107c0,0,-90,84,-90,193c0,0,0,69,37,116H0l-45,76l14,31H798l45,-76L830,822H588c0,0,51,-44,75,-109c0,0,25,-64,25,-122c0,0,0,-105,-81,-213c0,0,-80,-108,-240,-176L658,18l2,-25L581,-83Z"
id="f6_ly"
transform="scale(0.001,-0.001)"/>

<path d="M725,307c0,0,-95,0,-218,78c0,0,-123,78,-188,78c0,0,-54,0,-95,-34c0,0,-41,-34,-73,-100L93,362c0,0,38,88,101,146c0,0,63,59,148,59c0,0,90,0,214,-78c0,0,124,-79,188,-79c0,0,63,0,106,34c0,0,42,33,85,104l60,-40c0,0,-32,-66,-101,-134c0,0,-70,-67,-169,-67Z"
id="f7_4r"
transform="scale(0.001,-0.001)"/>

<path d="M415,-18c0,0,-149,0,-244,83c0,0,-94,84,-107,222l140,11c0,0,16,-103,73,-154c0,0,56,-52,137,-52c0,0,98,0,165,73c0,0,66,73,66,194c0,0,0,115,-64,182c0,0,-64,66,-169,66c0,0,-65,0,-117,-29c0,0,-52,-30,-82,-77L87,517l106,562H736V951H300L241,657c0,0,99,69,207,69c0,0,143,0,242,-100c0,0,98,-99,98,-255c0,0,0,-149,-86,-257C702,114,597,-18,415,-18Z"
id="f8_p"
transform="scale(0.001,-0.001)"/>

<path d="M225,0c0,0,2,129,51,312c0,0,48,183,139,352c0,0,91,170,193,286H72v129H780V975C780,975,676,864,573,680C573,680,470,495,414,301C414,301,374,163,363,0Z"
id="f8_r"
transform="scale(0.001,-0.001)"/>


</defs>
</svg>