<?xml version="1.0" encoding="UTF-8" standalone="no"?>
<!DOCTYPE svg PUBLIC "-//W3C//DTD SVG 1.1//EN"
"http://www.w3.org/Graphics/SVG/1.1/DTD/svg11.dtd">
<svg viewBox="0 0 641 910" version="1.1" xmlns="http://www.w3.org/2000/svg" xmlns:xlink="http://www.w3.org/1999/xlink">
<defs>
<clipPath id="c0_70"><path d="M0,909.8V0H641.7V909.8Z"/></clipPath>
<clipPath id="c1_70"><path d="M0,908.6V0H641.7V908.6Z"/></clipPath>
<style type="text/css"><![CDATA[
.g0_70{
fill: #FFFFFF;
}
.g1_70{
}
]]></style>
</defs>
<path d="M0,0H641.7V909.8H0V0Z" class="g0_70"/>
<path d="M0,0H641.7V909.8H0V0Z" class="g0_70"/>
<g clip-path="url(#c0_70)">
<path d="M0,-57316.8H641.7V49128.8H0V-57316.8Z" class="g0_70"/>
</g>
<path d="M0,0H641.7V908.6H0V0Z" class="g0_70"/>
<path d="M19.5,60.7H602.7v1.2H19.5V60.7Z" class="g1_70"/>
<g clip-path="url(#c1_70)">
<path d="M0,61.9H641.7V909.8H0V61.9Z" class="g0_70"/>
<g fill="#000000" >
<use xlink:href="#f5_bz" transform="matrix(14,0,0,14,193.9,82.5)" />
<use xlink:href="#f5_dj" transform="matrix(14,0,0,14,201.8,82.6)" />
<use xlink:href="#f5_ns" transform="matrix(14,0,0,14,208.6,82.5)" />
<use xlink:href="#f5_br" transform="matrix(14,0,0,14,215,82.5)" />
<use xlink:href="#f5_c1" transform="matrix(14,0,0,14,228,82.5)" />
<use xlink:href="#f5_cb" transform="matrix(14,0,0,14,243.9,82.5)" />
<use xlink:href="#f5_bg" transform="matrix(14,0,0,14,260.6,82.5)" />
<use xlink:href="#f5_bb" transform="matrix(14,0,0,14,282.2,82.5)" />
<use xlink:href="#f5_c0" transform="matrix(14,0,0,14,296.4,82.5)" />
<use xlink:href="#f5_ct" transform="matrix(14,0,0,14,310.5,82.5)" />
<use xlink:href="#f5_ll" transform="matrix(14,0,0,14,322.6,82.5)" />
<use xlink:href="#f5_c0" transform="matrix(14,0,0,14,329.5,82.5)" />
<use xlink:href="#f5_ct" transform="matrix(14,0,0,14,343.5,82.5)" />
<use xlink:href="#f5_c1" transform="matrix(14,0,0,14,350,82.5)" />
<use xlink:href="#f5_ct" transform="matrix(14,0,0,14,360.2,82.5)" />
<use xlink:href="#f5_pd" transform="matrix(14,0,0,14,366.7,82.5)" />
<use xlink:href="#f5_ll" transform="matrix(14,0,0,14,382.2,82.5)" />
<use xlink:href="#f5_c0" transform="matrix(14,0,0,14,389.1,82.5)" />
<use xlink:href="#f5_ct" transform="matrix(14,0,0,14,403.2,82.5)" />
<use xlink:href="#f5_c1" transform="matrix(14,0,0,14,409.6,82.5)" />
<use xlink:href="#f5_ct" transform="matrix(14,0,0,14,419.8,82.5)" />
<use xlink:href="#f6_bz" transform="matrix(14,0,0,14,134.4,116.9)" />
<use xlink:href="#f6_dj" transform="matrix(14,0,0,14,141.8,117.3)" />
<use xlink:href="#f6_cu" transform="matrix(14,0,0,14,147.7,116.9)" />
<use xlink:href="#f6_br" transform="matrix(14,0,0,14,153.3,116.9)" />
<use xlink:href="#f6_c1" transform="matrix(14,0,0,14,165,116.9)" />
<use xlink:href="#f6_cb" transform="matrix(14,0,0,14,179,116.9)" />
<use xlink:href="#f6_bg" transform="matrix(14,0,0,14,193.9,116.9)" />
<use xlink:href="#f6_bb" transform="matrix(14,0,0,14,213.8,116.9)" />
<use xlink:href="#f6_c0" transform="matrix(14,0,0,14,226.5,116.9)" />
<use xlink:href="#f6_ct" transform="matrix(14,0,0,14,239,116.9)" />
<use xlink:href="#f6_ll" transform="matrix(14,0,0,14,250.3,116.9)" />
<use xlink:href="#f6_c0" transform="matrix(14,0,0,14,256.7,116.9)" />
<use xlink:href="#f6_ct" transform="matrix(14,0,0,14,269.3,116.9)" />
<use xlink:href="#f6_c1" transform="matrix(14,0,0,14,274.9,116.9)" />
<use xlink:href="#f6_ct" transform="matrix(14,0,0,14,283.3,116.9)" />
<use xlink:href="#f6_ll" transform="matrix(14,0,0,14,294.6,116.9)" />
<use xlink:href="#f6_c0" transform="matrix(14,0,0,14,301,116.9)" />
<use xlink:href="#f6_ct" transform="matrix(14,0,0,14,313.5,116.9)" />
<use xlink:href="#f6_c1" transform="matrix(14,0,0,14,319.2,116.9)" />
<use xlink:href="#f6_ct" transform="matrix(14,0,0,14,327.6,116.9)" />
<use xlink:href="#f6_br" transform="matrix(14,0,0,14,338.8,116.9)" />
<use xlink:href="#f6_ct" transform="matrix(14,0,0,14,350.5,116.9)" />
<use xlink:href="#f6_br" transform="matrix(14,0,0,14,356.1,116.9)" />
<use xlink:href="#f6_ct" transform="matrix(14,0,0,14,367.8,116.9)" />
<use xlink:href="#f6_bp" transform="matrix(14,0,0,14,379.1,116.9)" />
<use xlink:href="#f6_cw" transform="matrix(14,0,0,14,391.9,116.8)" />
<use xlink:href="#f6_bz" transform="matrix(14,0,0,14,391.4,116.9)" />
<use xlink:href="#f6_b9" transform="matrix(14,0,0,14,404.7,116.9)" />
<use xlink:href="#f6_d8" transform="matrix(14,0,0,14,420.2,116.9)" />
<use xlink:href="#f6_am" transform="matrix(14,0,0,14,431.5,116.9)" />
<use xlink:href="#f6_bt" transform="matrix(14,0,0,14,453,116.9)" />
<use xlink:href="#f6_ct" transform="matrix(14,0,0,14,464.7,116.9)" />
<use xlink:href="#f6_cc" transform="matrix(14,0,0,14,476,116.9)" />
<use xlink:href="#f6_d5" transform="matrix(14,0,0,14,488,116.9)" />
<use xlink:href="#f6_am" transform="matrix(14,0,0,14,152.7,151.3)" />
<use xlink:href="#f6_bt" transform="matrix(14,0,0,14,174.2,151.3)" />
<use xlink:href="#f6_ct" transform="matrix(14,0,0,14,185.9,151.3)" />
<use xlink:href="#f6_am" transform="matrix(14,0,0,14,197.2,151.3)" />
<use xlink:href="#f6_bt" transform="matrix(14,0,0,14,218.7,151.3)" />
<use xlink:href="#f6_ct" transform="matrix(14,0,0,14,230.4,151.3)" />
<use xlink:href="#f6_cc" transform="matrix(14,0,0,14,241.7,151.3)" />
<use xlink:href="#f6_d5" transform="matrix(14,0,0,14,253.6,151.3)" />
<use xlink:href="#f6_ll" transform="matrix(14,0,0,14,258.9,151.3)" />
<use xlink:href="#f6_c0" transform="matrix(14,0,0,14,265.4,151.3)" />
<use xlink:href="#f6_ct" transform="matrix(14,0,0,14,277.9,151.3)" />
<use xlink:href="#f6_c1" transform="matrix(14,0,0,14,283.5,151.3)" />
<use xlink:href="#f6_ct" transform="matrix(14,0,0,14,291.9,151.3)" />
<use xlink:href="#f6_ll" transform="matrix(14,0,0,14,303.2,151.3)" />
<use xlink:href="#f6_c0" transform="matrix(14,0,0,14,309.6,151.3)" />
<use xlink:href="#f6_ct" transform="matrix(14,0,0,14,322.2,151.3)" />
<use xlink:href="#f6_c1" transform="matrix(14,0,0,14,327.8,151.3)" />
<use xlink:href="#f6_ct" transform="matrix(14,0,0,14,336.2,151.3)" />
<use xlink:href="#f6_br" transform="matrix(14,0,0,14,347.5,151.3)" />
<use xlink:href="#f6_c1" transform="matrix(14,0,0,14,359.2,151.3)" />
<use xlink:href="#f6_bx" transform="matrix(14,0,0,14,367.5,151.3)" />
<use xlink:href="#f6_ct" transform="matrix(14,0,0,14,379.8,151.3)" />
<use xlink:href="#f6_c1" transform="matrix(14,0,0,14,385.5,151.3)" />
<use xlink:href="#f6_cb" transform="matrix(14,0,0,14,399.5,151.3)" />
<use xlink:href="#f6_bg" transform="matrix(14,0,0,14,414.4,151.3)" />
<use xlink:href="#f6_ct" transform="matrix(14,0,0,14,428.6,151.3)" />
<use xlink:href="#f6_bt" transform="matrix(14,0,0,14,434.3,151.3)" />
<use xlink:href="#f6_ct" transform="matrix(14,0,0,14,446,151.3)" />
<use xlink:href="#f6_cc" transform="matrix(14,0,0,14,457.3,151.3)" />
<use xlink:href="#f6_d5" transform="matrix(14,0,0,14,469.2,151.3)" />
<use xlink:href="#f6_am" transform="matrix(14,0,0,14,121.8,220)" />
<use xlink:href="#f6_b1" transform="matrix(14,0,0,14,143.2,220)" />
<use xlink:href="#f6_am" transform="matrix(14,0,0,14,170.4,220)" />
<use xlink:href="#f6_b1" transform="matrix(14,0,0,14,191.9,220)" />
<use xlink:href="#f6_m1" transform="matrix(14,0,0,14,224.7,220)" />
<use xlink:href="#f6_c7" transform="matrix(14,0,0,14,233.5,220)" />
<use xlink:href="#f6_ct" transform="matrix(14,0,0,14,245.6,220)" />
<use xlink:href="#f6_bb" transform="matrix(14,0,0,14,251.2,220)" />
<use xlink:href="#f6_bp" transform="matrix(14,0,0,14,263.8,220)" />
<use xlink:href="#f6_bz" transform="matrix(14,0,0,14,281.8,220)" />
<use xlink:href="#f6_oz" transform="matrix(14,0,0,14,295.2,220)" />
<use xlink:href="#f6_cc" transform="matrix(14,0,0,14,300.8,220)" />
<use xlink:href="#f6_bz" transform="matrix(14,0,0,14,312.4,220)" />
<use xlink:href="#f6_k" transform="matrix(14,0,0,14,325.7,220)" />
<use xlink:href="#f6_bv" transform="matrix(14,0,0,14,336.6,220)" />
<use xlink:href="#f6_c3" transform="matrix(14,0,0,14,348.5,220)" />
<use xlink:href="#f6_b9" transform="matrix(14,0,0,14,363.2,220)" />
<use xlink:href="#f6_d8" transform="matrix(14,0,0,14,378.7,220)" />
<use xlink:href="#f6_dj" transform="matrix(14,0,0,14,383,220.9)" />
<use xlink:href="#f6_b9" transform="matrix(14,0,0,14,390,220)" />
<use xlink:href="#f6_d8" transform="matrix(14,0,0,14,405.5,220)" />
<use xlink:href="#f6_cu" transform="matrix(14,0,0,14,416.7,220)" />
<use xlink:href="#f6_bx" transform="matrix(14,0,0,14,422.4,220)" />
<use xlink:href="#f6_bf" transform="matrix(14,0,0,14,434.7,220)" />
<use xlink:href="#f6_ct" transform="matrix(14,0,0,14,450.4,220)" />
<use xlink:href="#f6_ax" transform="matrix(14,0,0,14,456,220)" />
<use xlink:href="#f6_dj" transform="matrix(14,0,0,14,462.2,220.4)" />
<use xlink:href="#f6_bb" transform="matrix(14,0,0,14,467.9,220)" />
<use xlink:href="#f6_d4" transform="matrix(14,0,0,14,480.6,220)" />
<use xlink:href="#f6_pd" transform="matrix(14,0,0,14,480.5,220)" />
<use xlink:href="#f6_q" transform="matrix(14,0,0,14,488,220)" />
<use xlink:href="#f6_ba" transform="matrix(14,0,0,14,134.4,254.4)" />
<use xlink:href="#f6_cw" transform="matrix(14,0,0,14,151.6,255.2)" />
<use xlink:href="#f6_c8" transform="matrix(14,0,0,14,151.1,254.4)" />
<use xlink:href="#f6_bx" transform="matrix(14,0,0,14,166.9,254.4)" />
<use xlink:href="#f6_cx" transform="matrix(14,0,0,14,179.2,254.3)" />
<use xlink:href="#f6_b9" transform="matrix(14,0,0,14,184.9,254.4)" />
<use xlink:href="#f6_d4" transform="matrix(14,0,0,14,196,254.4)" />
<use xlink:href="#f6_bh" transform="matrix(14,0,0,14,206.1,254.4)" />
<use xlink:href="#f6_d8" transform="matrix(14,0,0,14,222.8,254.4)" />
<use xlink:href="#f6_dj" transform="matrix(14,0,0,14,227.1,255.2)" />
<use xlink:href="#f6_b9" transform="matrix(14,0,0,14,228.5,254.4)" />
<use xlink:href="#f6_d8" transform="matrix(14,0,0,14,244,254.4)" />
<use xlink:href="#f6_cb" transform="matrix(14,0,0,14,255.3,254.4)" />
<use xlink:href="#f6_d4" transform="matrix(14,0,0,14,270.3,254.4)" />
<use xlink:href="#f6_cb" transform="matrix(14,0,0,14,275.8,254.4)" />
<use xlink:href="#f6_ct" transform="matrix(14,0,0,14,290.7,254.4)" />
<use xlink:href="#f6_c1" transform="matrix(14,0,0,14,296.3,254.4)" />
<use xlink:href="#f6_d4" transform="matrix(14,0,0,14,304.3,254.4)" />
<use xlink:href="#f6_k" transform="matrix(14,0,0,14,310.3,254.4)" />
<use xlink:href="#f6_bz" transform="matrix(14,0,0,14,315.6,254.4)" />
<use xlink:href="#f6_dj" transform="matrix(14,0,0,14,323,254.8)" />
<use xlink:href="#f6_cu" transform="matrix(14,0,0,14,328.9,254.4)" />
<use xlink:href="#f6_br" transform="matrix(14,0,0,14,334.5,254.4)" />
<use xlink:href="#f6_c1" transform="matrix(14,0,0,14,346.2,254.4)" />
<use xlink:href="#f6_b9" transform="matrix(14,0,0,14,360.2,254.4)" />
<use xlink:href="#f6_d8" transform="matrix(14,0,0,14,375.7,254.4)" />
<use xlink:href="#f6_bz" transform="matrix(14,0,0,14,387,254.4)" />
<use xlink:href="#f6_cc" transform="matrix(14,0,0,14,400.4,254.4)" />
<use xlink:href="#f6_b9" transform="matrix(14,0,0,14,412,254.4)" />
<use xlink:href="#f6_ct" transform="matrix(14,0,0,14,427.5,254.4)" />
<use xlink:href="#f6_ax" transform="matrix(14,0,0,14,433.1,254.4)" />
<use xlink:href="#f6_dj" transform="matrix(14,0,0,14,439.3,254.8)" />
<use xlink:href="#f6_bb" transform="matrix(14,0,0,14,445,254.4)" />
<use xlink:href="#f6_d4" transform="matrix(14,0,0,14,457.7,254.4)" />
<use xlink:href="#f6_k" transform="matrix(14,0,0,14,457.6,254.4)" />
<use xlink:href="#f6_pd" transform="matrix(14,0,0,14,462.8,254.4)" />
<use xlink:href="#f6_q" transform="matrix(14,0,0,14,476,254.4)" />
<use xlink:href="#f6_al" transform="matrix(14,0,0,14,106.9,288.8)" />
<use xlink:href="#f6_bx" transform="matrix(14,0,0,14,122.7,288.8)" />
<use xlink:href="#f6_bp" transform="matrix(14,0,0,14,140.7,288.8)" />
<use xlink:href="#f6_d8" transform="matrix(14,0,0,14,153,288.8)" />
<use xlink:href="#f6_am" transform="matrix(14,0,0,14,164.3,288.8)" />
<use xlink:href="#f6_bg" transform="matrix(14,0,0,14,185.8,288.8)" />
<use xlink:href="#f6_ct" transform="matrix(14,0,0,14,200,288.8)" />
<use xlink:href="#f6_b1" transform="matrix(14,0,0,14,205.6,288.8)" />
<use xlink:href="#f6_by" transform="matrix(14,0,0,14,238.5,288.8)" />
<use xlink:href="#f6_d4" transform="matrix(14,0,0,14,252.6,288.8)" />
<use xlink:href="#f6_n1" transform="matrix(14,0,0,14,252.4,288.8)" />
<use xlink:href="#f6_bg" transform="matrix(14,0,0,14,271.2,288.8)" />
<use xlink:href="#f6_cv" transform="matrix(14,0,0,14,285.5,288.8)" />
<use xlink:href="#f6_k" transform="matrix(14,0,0,14,291.1,288.8)" />
<use xlink:href="#f6_cc" transform="matrix(14,0,0,14,302,288.8)" />
<use xlink:href="#f6_d8" transform="matrix(14,0,0,14,313.6,288.8)" />
<use xlink:href="#f6_pc" transform="matrix(14,0,0,14,319.2,288.8)" />
<use xlink:href="#f6_pc" transform="matrix(14,0,0,14,323.5,288.8)" />
<use xlink:href="#f6_pc" transform="matrix(14,0,0,14,327.8,288.8)" />
<use xlink:href="#f6_pc" transform="matrix(14,0,0,14,332.1,288.8)" />
<use xlink:href="#f6_q" transform="matrix(14,0,0,14,336.3,288.8)" />
<use xlink:href="#f6_k" transform="matrix(14,0,0,14,348,288.8)" />
<use xlink:href="#f6_c0" transform="matrix(14,0,0,14,353.2,288.8)" />
<use xlink:href="#f6_cc" transform="matrix(14,0,0,14,365.7,288.8)" />
<use xlink:href="#f6_ct" transform="matrix(14,0,0,14,377.3,288.8)" />
<use xlink:href="#f6_di" transform="matrix(14,0,0,14,380.8,289.2)" />
<use xlink:href="#f6_cb" transform="matrix(14,0,0,14,388.6,288.8)" />
<use xlink:href="#f6_bx" transform="matrix(14,0,0,14,403.5,288.8)" />
<use xlink:href="#f6_b9" transform="matrix(14,0,0,14,421.5,288.8)" />
<use xlink:href="#f6_d8" transform="matrix(14,0,0,14,437,288.8)" />
<use xlink:href="#f6_bt" transform="matrix(14,0,0,14,448.3,288.8)" />
<use xlink:href="#f6_be" transform="matrix(14,0,0,14,460,288.8)" />
<use xlink:href="#f6_ct" transform="matrix(14,0,0,14,474,288.8)" />
<use xlink:href="#f6_bt" transform="matrix(14,0,0,14,479.6,288.8)" />
<use xlink:href="#f6_ct" transform="matrix(14,0,0,14,491.3,288.8)" />
<use xlink:href="#f6_cc" transform="matrix(14,0,0,14,502.6,288.8)" />
<use xlink:href="#f6_d5" transform="matrix(14,0,0,14,514.5,288.8)" />
<use xlink:href="#f6_bz" transform="matrix(14,0,0,14,220.3,323.1)" />
<use xlink:href="#f6_dj" transform="matrix(14,0,0,14,227.8,323.6)" />
<use xlink:href="#f6_cu" transform="matrix(14,0,0,14,233.6,323.1)" />
<use xlink:href="#f6_br" transform="matrix(14,0,0,14,239.3,323.1)" />
<use xlink:href="#f6_c1" transform="matrix(14,0,0,14,250.9,323.1)" />
<use xlink:href="#f6_cb" transform="matrix(14,0,0,14,265,323.1)" />
<use xlink:href="#f6_bg" transform="matrix(14,0,0,14,279.9,323.1)" />
<use xlink:href="#f6_bb" transform="matrix(14,0,0,14,299.8,323.1)" />
<use xlink:href="#f6_c0" transform="matrix(14,0,0,14,312.4,323.1)" />
<use xlink:href="#f6_ct" transform="matrix(14,0,0,14,324.9,323.1)" />
<use xlink:href="#f6_ll" transform="matrix(14,0,0,14,336.2,323.1)" />
<use xlink:href="#f6_c0" transform="matrix(14,0,0,14,342.7,323.1)" />
<use xlink:href="#f6_ct" transform="matrix(14,0,0,14,355.2,323.1)" />
<use xlink:href="#f6_c1" transform="matrix(14,0,0,14,360.8,323.1)" />
<use xlink:href="#f6_ct" transform="matrix(14,0,0,14,369.2,323.1)" />
<use xlink:href="#f6_8l" transform="matrix(14,0,0,14,380.5,323.1)" />
<use xlink:href="#f6_by" transform="matrix(14,0,0,14,149.3,391.9)" />
<use xlink:href="#f6_d4" transform="matrix(14,0,0,14,163.4,391.9)" />
<use xlink:href="#f6_n1" transform="matrix(14,0,0,14,163.2,391.9)" />
<use xlink:href="#f6_bg" transform="matrix(14,0,0,14,182,391.9)" />
<use xlink:href="#f6_cv" transform="matrix(14,0,0,14,196.3,391.9)" />
<use xlink:href="#f6_b9" transform="matrix(14,0,0,14,207.6,391.9)" />
<use xlink:href="#f6_oc" transform="matrix(14,0,0,14,223.1,391.9)" />
<use xlink:href="#f6_by" transform="matrix(14,0,0,14,234.4,391.9)" />
<use xlink:href="#f6_o0" transform="matrix(14,0,0,14,248.3,391.9)" />
<use xlink:href="#f6_l1" transform="matrix(14,0,0,14,253.9,391.9)" />
<use xlink:href="#f6_bp" transform="matrix(14,0,0,14,265.8,391.9)" />
<use xlink:href="#f6_cb" transform="matrix(14,0,0,14,283.8,391.9)" />
<use xlink:href="#f6_ct" transform="matrix(14,0,0,14,298.7,391.9)" />
<use xlink:href="#f6_c1" transform="matrix(14,0,0,14,304.3,391.9)" />
<use xlink:href="#f6_d4" transform="matrix(14,0,0,14,312.3,391.9)" />
<use xlink:href="#f6_by" transform="matrix(14,0,0,14,318.3,391.9)" />
<use xlink:href="#f6_l1" transform="matrix(14,0,0,14,332.3,391.9)" />
<use xlink:href="#f6_bp" transform="matrix(14,0,0,14,344.2,391.9)" />
<use xlink:href="#f6_d8" transform="matrix(14,0,0,14,356.5,391.9)" />
<use xlink:href="#f6_bz" transform="matrix(14,0,0,14,367.8,391.9)" />
<use xlink:href="#f6_oz" transform="matrix(14,0,0,14,381.2,391.9)" />
<use xlink:href="#f6_bw" transform="matrix(14,0,0,14,386.8,391.9)" />
<use xlink:href="#f6_d5" transform="matrix(14,0,0,14,398,391.9)" />
<use xlink:href="#f6_c3" transform="matrix(14,0,0,14,402.9,391.9)" />
<use xlink:href="#f6_ct" transform="matrix(14,0,0,14,417.6,391.9)" />
<use xlink:href="#f6_ax" transform="matrix(14,0,0,14,423.2,391.9)" />
<use xlink:href="#f6_dj" transform="matrix(14,0,0,14,429.4,392.3)" />
<use xlink:href="#f6_bb" transform="matrix(14,0,0,14,435.1,391.9)" />
<use xlink:href="#f6_d4" transform="matrix(14,0,0,14,447.8,391.9)" />
<use xlink:href="#f6_pd" transform="matrix(14,0,0,14,447.7,391.9)" />
<use xlink:href="#f6_n8" transform="matrix(14,0,0,14,460.9,391.9)" />
<use xlink:href="#f6_by" transform="matrix(14,0,0,14,132.1,426.3)" />
<use xlink:href="#f6_d5" transform="matrix(14,0,0,14,146.2,426.3)" />
<use xlink:href="#f6_n0" transform="matrix(14,0,0,14,146,426.3)" />
<use xlink:href="#f6_bg" transform="matrix(14,0,0,14,164.8,426.3)" />
<use xlink:href="#f6_cv" transform="matrix(14,0,0,14,179.1,426.3)" />
<use xlink:href="#f6_b9" transform="matrix(14,0,0,14,190.4,426.3)" />
<use xlink:href="#f6_oc" transform="matrix(14,0,0,14,205.9,426.3)" />
<use xlink:href="#f6_ll" transform="matrix(14,0,0,14,217.2,426.3)" />
<use xlink:href="#f6_c0" transform="matrix(14,0,0,14,223.6,426.3)" />
<use xlink:href="#f6_ct" transform="matrix(14,0,0,14,236.2,426.3)" />
<use xlink:href="#f6_c1" transform="matrix(14,0,0,14,241.8,426.3)" />
<use xlink:href="#f6_cv" transform="matrix(14,0,0,14,250.2,426.3)" />
<use xlink:href="#f6_iz" transform="matrix(14,0,0,14,261.4,426.3)" />
<use xlink:href="#f6_d8" transform="matrix(14,0,0,14,283.7,426.3)" />
<use xlink:href="#f6_cu" transform="matrix(14,0,0,14,289.3,426.3)" />
<use xlink:href="#f6_bp" transform="matrix(14,0,0,14,294.9,426.3)" />
<use xlink:href="#f6_bz" transform="matrix(14,0,0,14,312.9,426.3)" />
<use xlink:href="#f6_bt" transform="matrix(14,0,0,14,326.2,426.3)" />
<use xlink:href="#f6_bz" transform="matrix(14,0,0,14,338,426.3)" />
<use xlink:href="#f6_dj" transform="matrix(14,0,0,14,345.4,426.7)" />
<use xlink:href="#f6_cu" transform="matrix(14,0,0,14,351.3,426.3)" />
<use xlink:href="#f6_br" transform="matrix(14,0,0,14,356.9,426.3)" />
<use xlink:href="#f6_c1" transform="matrix(14,0,0,14,368.6,426.3)" />
<use xlink:href="#f6_bz" transform="matrix(14,0,0,14,382.6,426.3)" />
<use xlink:href="#f6_oz" transform="matrix(14,0,0,14,396.1,426.3)" />
<use xlink:href="#f6_bg" transform="matrix(14,0,0,14,401.6,426.3)" />
<use xlink:href="#f6_bb" transform="matrix(14,0,0,14,415.9,426.3)" />
<use xlink:href="#f6_ct" transform="matrix(14,0,0,14,428.5,426.3)" />
<use xlink:href="#f6_ax" transform="matrix(14,0,0,14,434.1,426.3)" />
<use xlink:href="#f6_dj" transform="matrix(14,0,0,14,440.3,426.7)" />
<use xlink:href="#f6_bb" transform="matrix(14,0,0,14,446,426.3)" />
<use xlink:href="#f6_d4" transform="matrix(14,0,0,14,458.7,426.3)" />
<use xlink:href="#f6_pd" transform="matrix(14,0,0,14,464.3,426.3)" />
<use xlink:href="#f6_n8" transform="matrix(14,0,0,14,477.5,426.3)" />
<use xlink:href="#f6_al" transform="matrix(14,0,0,14,137.8,460.6)" />
<use xlink:href="#f6_bx" transform="matrix(14,0,0,14,153.7,460.6)" />
<use xlink:href="#f6_bp" transform="matrix(14,0,0,14,171.6,460.6)" />
<use xlink:href="#f6_d8" transform="matrix(14,0,0,14,183.9,460.6)" />
<use xlink:href="#f6_am" transform="matrix(14,0,0,14,195.2,460.6)" />
<use xlink:href="#f6_cu" transform="matrix(14,0,0,14,216.7,460.6)" />
<use xlink:href="#f6_cc" transform="matrix(14,0,0,14,222.3,460.6)" />
<use xlink:href="#f6_m1" transform="matrix(14,0,0,14,233.9,460.6)" />
<use xlink:href="#f6_bp" transform="matrix(14,0,0,14,242.8,460.6)" />
<use xlink:href="#f6_ct" transform="matrix(14,0,0,14,255.1,460.6)" />
<use xlink:href="#f6_am" transform="matrix(14,0,0,14,266.4,460.6)" />
<use xlink:href="#f6_cu" transform="matrix(14,0,0,14,287.9,460.6)" />
<use xlink:href="#f6_cc" transform="matrix(14,0,0,14,293.5,460.6)" />
<use xlink:href="#f6_m1" transform="matrix(14,0,0,14,305.1,460.6)" />
<use xlink:href="#f6_bp" transform="matrix(14,0,0,14,314,460.6)" />
<use xlink:href="#f6_ct" transform="matrix(14,0,0,14,326.3,460.6)" />
<use xlink:href="#f6_cc" transform="matrix(14,0,0,14,337.6,460.6)" />
<use xlink:href="#f6_d8" transform="matrix(14,0,0,14,349.2,460.6)" />
<use xlink:href="#f6_pc" transform="matrix(14,0,0,14,354.9,460.6)" />
<use xlink:href="#f6_pc" transform="matrix(14,0,0,14,359.1,460.6)" />
<use xlink:href="#f6_pc" transform="matrix(14,0,0,14,363.4,460.6)" />
<use xlink:href="#f6_pc" transform="matrix(14,0,0,14,367.7,460.6)" />
<use xlink:href="#f6_q" transform="matrix(14,0,0,14,372,460.6)" />
<use xlink:href="#f6_k" transform="matrix(14,0,0,14,383.6,460.6)" />
<use xlink:href="#f6_e6" transform="matrix(14,0,0,14,388.8,460.6)" />
<use xlink:href="#f6_d4" transform="matrix(14,0,0,14,401,460.6)" />
<use xlink:href="#f6_bz" transform="matrix(14,0,0,14,400.9,460.6)" />
<use xlink:href="#f6_bx" transform="matrix(14,0,0,14,419.9,460.6)" />
<use xlink:href="#f6_ci" transform="matrix(14,0,0,14,432.2,460.6)" />
<use xlink:href="#f6_ct" transform="matrix(14,0,0,14,444.1,460.6)" />
<use xlink:href="#f6_bt" transform="matrix(14,0,0,14,449.8,460.6)" />
<use xlink:href="#f6_ct" transform="matrix(14,0,0,14,461.5,460.6)" />
<use xlink:href="#f6_cc" transform="matrix(14,0,0,14,472.8,460.6)" />
<use xlink:href="#f6_d5" transform="matrix(14,0,0,14,484.7,460.6)" />
<use xlink:href="#f6_bz" transform="matrix(14,0,0,14,220.3,495)" />
<use xlink:href="#f6_dj" transform="matrix(14,0,0,14,227.8,495.4)" />
<use xlink:href="#f6_cu" transform="matrix(14,0,0,14,233.6,495)" />
<use xlink:href="#f6_br" transform="matrix(14,0,0,14,239.3,495)" />
<use xlink:href="#f6_c1" transform="matrix(14,0,0,14,250.9,495)" />
<use xlink:href="#f6_cb" transform="matrix(14,0,0,14,265,495)" />
<use xlink:href="#f6_bg" transform="matrix(14,0,0,14,279.9,495)" />
<use xlink:href="#f6_bb" transform="matrix(14,0,0,14,299.8,495)" />
<use xlink:href="#f6_c0" transform="matrix(14,0,0,14,312.4,495)" />
<use xlink:href="#f6_ct" transform="matrix(14,0,0,14,324.9,495)" />
<use xlink:href="#f6_ll" transform="matrix(14,0,0,14,336.2,495)" />
<use xlink:href="#f6_c0" transform="matrix(14,0,0,14,342.7,495)" />
<use xlink:href="#f6_ct" transform="matrix(14,0,0,14,355.2,495)" />
<use xlink:href="#f6_c1" transform="matrix(14,0,0,14,360.8,495)" />
<use xlink:href="#f6_ct" transform="matrix(14,0,0,14,369.2,495)" />
<use xlink:href="#f6_8l" transform="matrix(14,0,0,14,380.5,495)" />
<use xlink:href="#f6_bz" transform="matrix(14,0,0,14,141.2,563.8)" />
<use xlink:href="#f6_d4" transform="matrix(14,0,0,14,154.7,563.8)" />
<use xlink:href="#f6_c7" transform="matrix(14,0,0,14,154.6,563.8)" />
<use xlink:href="#f6_ct" transform="matrix(14,0,0,14,166.7,563.8)" />
<use xlink:href="#f6_bt" transform="matrix(14,0,0,14,172.3,563.8)" />
<use xlink:href="#f6_bb" transform="matrix(14,0,0,14,184,563.8)" />
<use xlink:href="#f6_c1" transform="matrix(14,0,0,14,196.6,563.8)" />
<use xlink:href="#f6_b9" transform="matrix(14,0,0,14,210.7,563.8)" />
<use xlink:href="#f6_d4" transform="matrix(14,0,0,14,221.8,563.8)" />
<use xlink:href="#f6_c1" transform="matrix(14,0,0,14,231.8,563.8)" />
<use xlink:href="#f6_ct" transform="matrix(14,0,0,14,240.2,563.8)" />
<use xlink:href="#f6_bg" transform="matrix(14,0,0,14,245.8,563.8)" />
<use xlink:href="#f6_ct" transform="matrix(14,0,0,14,260.1,563.8)" />
<use xlink:href="#f6_bp" transform="matrix(14,0,0,14,271.4,563.8)" />
<use xlink:href="#f6_cw" transform="matrix(14,0,0,14,284.2,563.6)" />
<use xlink:href="#f6_bz" transform="matrix(14,0,0,14,283.7,563.8)" />
<use xlink:href="#f6_b9" transform="matrix(14,0,0,14,297,563.8)" />
<use xlink:href="#f6_d8" transform="matrix(14,0,0,14,312.5,563.8)" />
<use xlink:href="#f6_cb" transform="matrix(14,0,0,14,323.8,563.8)" />
<use xlink:href="#f6_ct" transform="matrix(14,0,0,14,338.7,563.8)" />
<use xlink:href="#f6_c1" transform="matrix(14,0,0,14,344.3,563.8)" />
<use xlink:href="#f6_cv" transform="matrix(14,0,0,14,352.7,563.8)" />
<use xlink:href="#f6_mv" transform="matrix(14,0,0,14,364,563.8)" />
<use xlink:href="#f6_cu" transform="matrix(14,0,0,14,375.7,563.8)" />
<use xlink:href="#f6_bt" transform="matrix(14,0,0,14,381.4,563.8)" />
<use xlink:href="#f6_c0" transform="matrix(14,0,0,14,393.1,563.8)" />
<use xlink:href="#f6_ct" transform="matrix(14,0,0,14,405.6,563.8)" />
<use xlink:href="#f6_lh" transform="matrix(14,0,0,14,416.9,563.8)" />
<use xlink:href="#f6_c0" transform="matrix(14,0,0,14,426.2,563.8)" />
<use xlink:href="#f6_ct" transform="matrix(14,0,0,14,438.7,563.8)" />
<use xlink:href="#f6_c7" transform="matrix(14,0,0,14,444.3,563.8)" />
<use xlink:href="#f6_d4" transform="matrix(14,0,0,14,456.5,563.8)" />
<use xlink:href="#f6_pd" transform="matrix(14,0,0,14,462.1,563.8)" />
<use xlink:href="#f6_n8" transform="matrix(14,0,0,14,469.6,563.8)" />
<use xlink:href="#f6_cb" transform="matrix(14,0,0,14,137.8,598.1)" />
<use xlink:href="#f6_l6" transform="matrix(14,0,0,14,152.7,598.1)" />
<use xlink:href="#f6_be" transform="matrix(14,0,0,14,160.7,598.1)" />
<use xlink:href="#f6_d4" transform="matrix(14,0,0,14,174.8,598.1)" />
<use xlink:href="#f6_bz" transform="matrix(14,0,0,14,180.3,598.1)" />
<use xlink:href="#f6_bt" transform="matrix(14,0,0,14,193.6,598.1)" />
<use xlink:href="#f6_cb" transform="matrix(14,0,0,14,211,598.1)" />
<use xlink:href="#f6_d4" transform="matrix(14,0,0,14,226,598.1)" />
<use xlink:href="#f6_lh" transform="matrix(14,0,0,14,231.6,598.1)" />
<use xlink:href="#f6_c0" transform="matrix(14,0,0,14,240.8,598.1)" />
<use xlink:href="#f6_ct" transform="matrix(14,0,0,14,253.3,598.1)" />
<use xlink:href="#f6_c7" transform="matrix(14,0,0,14,259,598.1)" />
<use xlink:href="#f6_d4" transform="matrix(14,0,0,14,271.2,598.1)" />
<use xlink:href="#f6_bg" transform="matrix(14,0,0,14,276.7,598.1)" />
<use xlink:href="#f6_d8" transform="matrix(14,0,0,14,291,598.1)" />
<use xlink:href="#f6_bz" transform="matrix(14,0,0,14,302.3,598.1)" />
<use xlink:href="#f6_bt" transform="matrix(14,0,0,14,315.6,598.1)" />
<use xlink:href="#f6_an" transform="matrix(14,0,0,14,333,598.1)" />
<use xlink:href="#f6_o0" transform="matrix(14,0,0,14,344.5,598.1)" />
<use xlink:href="#f6_ir" transform="matrix(14,0,0,14,350.1,598.1)" />
<use xlink:href="#f6_bp" transform="matrix(14,0,0,14,375.1,598.1)" />
<use xlink:href="#f6_bw" transform="matrix(14,0,0,14,393,598.1)" />
<use xlink:href="#f6_c3" transform="matrix(14,0,0,14,409.1,598.1)" />
<use xlink:href="#f6_bv" transform="matrix(14,0,0,14,429.5,598.1)" />
<use xlink:href="#f6_ct" transform="matrix(14,0,0,14,441.4,598.1)" />
<use xlink:href="#f6_c7" transform="matrix(14,0,0,14,447,598.1)" />
<use xlink:href="#f6_d4" transform="matrix(14,0,0,14,459.2,598.1)" />
<use xlink:href="#f6_pd" transform="matrix(14,0,0,14,464.7,598.1)" />
<use xlink:href="#f6_q" transform="matrix(14,0,0,14,472.3,598.1)" />
<use xlink:href="#f6_by" transform="matrix(14,0,0,14,150.4,632.5)" />
<use xlink:href="#f6_d5" transform="matrix(14,0,0,14,164.5,632.5)" />
<use xlink:href="#f6_c1" transform="matrix(14,0,0,14,164.4,632.5)" />
<use xlink:href="#f6_c7" transform="matrix(14,0,0,14,172.7,632.5)" />
<use xlink:href="#f6_b9" transform="matrix(14,0,0,14,190.5,632.5)" />
<use xlink:href="#f6_d4" transform="matrix(14,0,0,14,201.6,632.5)" />
<use xlink:href="#f6_be" transform="matrix(14,0,0,14,211.7,632.5)" />
<use xlink:href="#f6_c1" transform="matrix(14,0,0,14,225.6,632.5)" />
<use xlink:href="#f6_bo" transform="matrix(14,0,0,14,234,632.5)" />
<use xlink:href="#f6_d8" transform="matrix(14,0,0,14,248.4,632.5)" />
<use xlink:href="#f6_dj" transform="matrix(14,0,0,14,252.7,633.4)" />
<use xlink:href="#f6_bz" transform="matrix(14,0,0,14,259.7,632.5)" />
<use xlink:href="#f6_oz" transform="matrix(14,0,0,14,273.1,632.5)" />
<use xlink:href="#f6_cc" transform="matrix(14,0,0,14,278.7,632.5)" />
<use xlink:href="#f6_bz" transform="matrix(14,0,0,14,290.3,632.5)" />
<use xlink:href="#f6_b9" transform="matrix(14,0,0,14,303.6,632.5)" />
<use xlink:href="#f6_d8" transform="matrix(14,0,0,14,319.1,632.5)" />
<use xlink:href="#f6_pc" transform="matrix(14,0,0,14,324.7,632.5)" />
<use xlink:href="#f6_pc" transform="matrix(14,0,0,14,329,632.5)" />
<use xlink:href="#f6_pc" transform="matrix(14,0,0,14,333.3,632.5)" />
<use xlink:href="#f6_pc" transform="matrix(14,0,0,14,337.6,632.5)" />
<use xlink:href="#f6_q" transform="matrix(14,0,0,14,341.8,632.5)" />
<use xlink:href="#f6_k" transform="matrix(14,0,0,14,353.5,632.5)" />
<use xlink:href="#f6_c8" transform="matrix(14,0,0,14,364.4,632.5)" />
<use xlink:href="#f6_cv" transform="matrix(14,0,0,14,380.2,632.5)" />
<use xlink:href="#f6_ca" transform="matrix(14,0,0,14,385.9,632.5)" />
<use xlink:href="#f6_bh" transform="matrix(14,0,0,14,403.8,632.5)" />
<use xlink:href="#f6_oe" transform="matrix(14,0,0,14,421.2,632.4)" />
<use xlink:href="#f6_b9" transform="matrix(14,0,0,14,420.6,632.5)" />
<use xlink:href="#f6_bt" transform="matrix(14,0,0,14,436.1,632.5)" />
<use xlink:href="#f6_ct" transform="matrix(14,0,0,14,447.8,632.5)" />
<use xlink:href="#f6_cc" transform="matrix(14,0,0,14,459.1,632.5)" />
<use xlink:href="#f6_d5" transform="matrix(14,0,0,14,471,632.5)" />
<use xlink:href="#f6_bz" transform="matrix(14,0,0,14,220.3,666.9)" />
<use xlink:href="#f6_dj" transform="matrix(14,0,0,14,227.8,667.3)" />
<use xlink:href="#f6_cu" transform="matrix(14,0,0,14,233.6,666.9)" />
<use xlink:href="#f6_br" transform="matrix(14,0,0,14,239.3,666.9)" />
<use xlink:href="#f6_c1" transform="matrix(14,0,0,14,250.9,666.9)" />
<use xlink:href="#f6_cb" transform="matrix(14,0,0,14,265,666.9)" />
<use xlink:href="#f6_bg" transform="matrix(14,0,0,14,279.9,666.9)" />
<use xlink:href="#f6_bb" transform="matrix(14,0,0,14,299.8,666.9)" />
<use xlink:href="#f6_c0" transform="matrix(14,0,0,14,312.4,666.9)" />
<use xlink:href="#f6_ct" transform="matrix(14,0,0,14,324.9,666.9)" />
<use xlink:href="#f6_ll" transform="matrix(14,0,0,14,336.2,666.9)" />
<use xlink:href="#f6_c0" transform="matrix(14,0,0,14,342.7,666.9)" />
<use xlink:href="#f6_ct" transform="matrix(14,0,0,14,355.2,666.9)" />
<use xlink:href="#f6_c1" transform="matrix(14,0,0,14,360.8,666.9)" />
<use xlink:href="#f6_ct" transform="matrix(14,0,0,14,369.2,666.9)" />
<use xlink:href="#f6_8l" transform="matrix(14,0,0,14,380.5,666.9)" />
<use xlink:href="#f7_4r" transform="matrix(9,0,0,9,290.2,795.2)" />
<use xlink:href="#f8_q" transform="matrix(9,0,0,9,303,795.2)" />
<use xlink:href="#f8_o" transform="matrix(9,0,0,9,310.7,795.2)" />
<use xlink:href="#f7_4r" transform="matrix(9,0,0,9,321.3,795.2)" />
</g>
</g>
<image preserveAspectRatio="none" x="22" y="801" width="581" height="86" xlink:href="img/1.png"/>
<path d="M194.8,83.6H427.4v1.2H194.8V83.6Z" class="g1_70"/>
<image preserveAspectRatio="none" x="202" y="14" width="217" height="26" xlink:href="img/2.png"/>
<defs>
<path d="M686,512V822H333L435,749l2,-237ZM860,-65L686,29V298H440V168L348,118c0,0,-90,30,-190,128c0,0,-100,98,-127,183l52,83H203L189,822H0L-86,937l32,64H1045l86,-115l-33,-64H828L930,749V-31L860,-65Z"
id="f5_bz"
transform="scale(0.001,-0.001)"/>

<path d="M0,1102c0,0,-40,16,-91,55c0,0,-52,39,-79,76c0,0,59,119,137,165c0,0,42,-15,89,-54c0,0,46,-39,74,-76c0,0,-17,-44,-54,-92c0,0,-38,-48,-76,-74Z"
id="f5_dj"
transform="scale(0.001,-0.001)"/>

<path d="M289,-65L115,29V822H0L-86,937l32,64H116c0,0,-98,102,-98,227c0,0,0,132,101,214c0,0,101,83,257,83c0,0,147,0,307,-94c0,0,160,-94,374,-313l-88,-91c0,0,-162,140,-280,209c0,0,-118,69,-228,69c0,0,-100,0,-165,-53c0,0,-64,-53,-64,-135c0,0,0,-60,35,-116H463L548,886L516,822H257L359,749V-31L289,-65Z"
id="f5_ns"
transform="scale(0.001,-0.001)"/>

<path d="M700,-327L637,-39c0,0,-43,-9,-85,-9c0,0,-109,0,-228,58c0,0,-119,59,-199,160c0,0,-79,102,-79,220c0,0,0,134,95,216c0,0,94,82,252,85H516V822H0L-86,937l32,64H929l85,-115L982,822H645L747,749V468l2,-4H478c0,0,-98,0,-148,-45c0,0,-50,-46,-50,-110c0,0,0,-68,53,-121c0,0,46,-20,99,-20c0,0,74,0,141,35L555,332l154,56L897,154C897,154,862,87,785,34L933,-233L700,-327Z"
id="f5_br"
transform="scale(0.001,-0.001)"/>

<path d="M545,-97L35,405L87,542H295c0,0,1,5,1,280H0L-86,937l32,64H729L814,886L782,822H445L550,749V547c0,0,0,-75,-41,-127c0,0,-41,-52,-129,-111L709,110V41L545,-97Z"
id="f5_c1"
transform="scale(0.001,-0.001)"/>

<path d="M833,530V822H434L539,749V530ZM533,-97L23,405L75,542H284c0,0,2,5,2,280H-10L-97,937l32,64H1193l86,-115l-32,-64H975l102,-73V-31l-70,-34L833,29V333H405L370,309L697,110V41L533,-97Z"
id="f5_cb"
transform="scale(0.001,-0.001)"/>

<path d="M952,-65L778,29V474H600c0,0,94,-91,94,-202c0,0,0,-98,-66,-163c0,0,-66,-65,-171,-65c0,0,-165,0,-280,155C177,199,63,354,-7,616l152,50c0,0,67,-223,120,-299c0,0,53,-77,122,-77c0,0,47,0,73,29c0,0,26,28,26,71c0,0,0,79,-73,128L298,559V681H778V822H0L-86,937l32,64H1137l85,-115l-32,-64H920l102,-73V-31L952,-65Z"
id="f5_bg"
transform="scale(0.001,-0.001)"/>

<path d="M831,-65L657,29V822H332L434,749V200L341,150c0,0,-93,32,-190,121c0,0,-96,90,-125,175l52,83H196l-5,293H0L-86,937l32,64H1016l86,-115l-33,-64H799L901,749V-31L831,-65Z"
id="f5_bb"
transform="scale(0.001,-0.001)"/>

<path d="M368,290c0,0,83,0,161,44c0,0,78,43,116,117V822H382c0,0,136,-107,136,-225c0,0,0,-74,-55,-131c0,0,-55,-57,-165,-83c0,0,15,-48,44,-91l26,-2ZM819,-65L645,29V139c0,0,-60,-31,-130,-31c0,0,-145,0,-279,109c0,0,-134,108,-208,287l29,78c0,0,128,15,181,43c0,0,54,27,54,73c0,0,0,61,-96,124H0L-86,937l32,64H1004l87,-115l-32,-64H787L889,749V-31L819,-65Z"
id="f5_c0"
transform="scale(0.001,-0.001)"/>

<path d="M277,-65L102,29V822H0L-86,937l32,64H463L548,886L516,822H244L347,749V-31L277,-65Z"
id="f5_ct"
transform="scale(0.001,-0.001)"/>

<path d="M503,170c0,0,-153,0,-298,130C205,300,60,431,60,578V822H0L-86,937l32,64H562L649,886L617,822H214L318,749V403c0,0,30,-29,81,-29c0,0,59,0,118,38c0,0,59,37,93,100L770,333C770,333,666,170,503,170Z"
id="f5_ll"
transform="scale(0.001,-0.001)"/>

<path d="M136,339L50,477l33,64H547L633,403L600,339Z"
id="f5_pd"
transform="scale(0.001,-0.001)"/>

<path d="M689,445V822H286l65,-58l8,-319ZM779,-49L689,8V328H370V180L296,150c0,0,-56,35,-120,104c0,0,-63,70,-89,131l41,60H238L223,822H0l-45,76l14,31H953l46,-76L985,822H750l66,-58V-39L779,-49Z"
id="f6_bz"
transform="scale(0.001,-0.001)"/>

<path d="M0,1062c0,0,-26,11,-60,36c0,0,-34,26,-51,49c0,0,39,81,91,110c0,0,60,-23,106,-85c0,0,-28,-70,-86,-110Z"
id="f6_dj"
transform="scale(0.001,-0.001)"/>

<path d="M228,-49L138,8V822H0l-45,76l14,31H134c0,0,-91,92,-91,191c0,0,0,105,85,170c0,0,84,65,219,65c0,0,128,0,293,-76c0,0,165,-77,362,-263L958,966c0,0,-177,143,-303,210c0,0,-125,68,-244,68c0,0,-107,0,-175,-50c0,0,-68,-50,-68,-131c0,0,0,-61,49,-134H402l46,-76L434,822H199l65,-58V-39L228,-49Z"
id="f6_cu"
transform="scale(0.001,-0.001)"/>

<path d="M675,-274L602,21C602,21,550,3,498,3C498,3,347,3,210,118C210,118,73,232,73,373c0,0,0,113,84,184c0,0,84,71,222,72H524V822H0l-45,76l14,31H834l46,-76L866,822H585l66,-58V504l-3,2l3,-3H408c0,0,-95,0,-154,-53c0,0,-58,-53,-58,-132c0,0,0,-49,27,-100c0,0,28,-50,83,-84c0,0,44,-15,96,-15c0,0,91,0,160,46L535,303l101,48L773,188c0,0,-8,-28,-34,-66c0,0,-27,-38,-62,-64L813,-221L675,-274Z"
id="f6_br"
transform="scale(0.001,-0.001)"/>

<path d="M527,-71L52,414l34,92H277c0,0,12,32,12,72V822H0l-45,76l14,31H599l46,-76L631,822H350l66,-55V564c0,0,0,-96,-152,-248L610,34L611,8L527,-71Z"
id="f6_c1"
transform="scale(0.001,-0.001)"/>

<path d="M799,475V822H350l66,-55V564c0,0,0,-43,-25,-89ZM527,-71L52,414l34,92H277c0,0,12,32,12,72V822H0l-45,76l14,31H1063l46,-76l-14,-31H860l66,-58V-39L889,-49L799,8V370H315L264,316L610,34L611,8L527,-71Z"
id="f6_cb"
transform="scale(0.001,-0.001)"/>

<path d="M845,-49L755,8V513H497c0,0,61,-45,93,-110c0,0,33,-64,33,-128c0,0,0,-90,-58,-144c0,0,-59,-53,-143,-53c0,0,-133,0,-234,139C188,217,87,356,20,596l76,24c0,0,60,-201,127,-306c0,0,67,-105,160,-105c0,0,57,0,91,36c0,0,33,36,33,91c0,0,0,84,-73,159L295,558v71H755V822H0l-45,76l14,31H1019l46,-76l-14,-31H816l66,-58V-39L845,-49Z"
id="f6_bg"
transform="scale(0.001,-0.001)"/>

<path d="M727,-49L637,8V822H278l66,-58V226L270,196c0,0,-64,36,-122,98c0,0,-58,62,-79,122l43,59H217V822H0l-45,76l14,31H901l46,-76L933,822H698l66,-58V-39L727,-49Z"
id="f6_bb"
transform="scale(0.001,-0.001)"/>

<path d="M374,248c0,0,77,0,149,36c0,0,71,37,110,107V822H284c0,0,138,-96,138,-208c0,0,0,-151,-228,-192c0,0,29,-104,89,-158c0,0,41,-16,91,-16ZM723,-49L633,8V200c0,0,-69,-56,-170,-56c0,0,-122,0,-240,94c0,0,-118,94,-179,237l20,55c0,0,133,17,187,44c0,0,55,28,55,84c0,0,0,45,-30,81c0,0,-30,36,-99,83H0l-45,76l14,31H897l46,-76L929,822H694l65,-58V-39L723,-49Z"
id="f6_c0"
transform="scale(0.001,-0.001)"/>

<path d="M228,-49L138,8V822H0l-45,76l14,31H402l46,-76L434,822H199l65,-58V-39L228,-49Z"
id="f6_ct"
transform="scale(0.001,-0.001)"/>

<path d="M438,206c0,0,-119,0,-226,109c0,0,-108,108,-108,243V822H0l-45,76l14,31H542l46,-76L574,822H165l66,-58V408c0,0,46,-86,151,-86c0,0,61,0,119,32c0,0,58,33,95,91L669,338c0,0,-44,-66,-108,-99c0,0,-63,-33,-123,-33Z"
id="f6_ll"
transform="scale(0.001,-0.001)"/>

<path d="M347,-57C347,-57,66,211,66,394c0,0,0,98,74,164c0,0,74,65,225,65H616V822H0l-45,76l14,31H880l46,-76L912,822H677l66,-58V-39L706,-49L616,8V500H428c0,0,-239,0,-239,-161c0,0,0,-136,214,-343L347,-57Z"
id="f6_bp"
transform="scale(0.001,-0.001)"/>

<path d="M-234,-413c0,0,-210,0,-488,322l54,49c0,0,119,-128,209,-193c0,0,90,-65,177,-65c0,0,72,0,113,40c0,0,42,39,42,91c0,0,0,75,-78,106L-323,-181l-90,98c0,0,63,95,167,95c0,0,90,0,155,-69c0,0,66,-70,66,-164c0,0,0,-85,-60,-139c0,0,-61,-53,-149,-53Z"
id="f6_cw"
transform="scale(0.001,-0.001)"/>

<path d="M283,260c0,0,122,0,209,113V513c0,0,-90,51,-160,51c0,0,-80,0,-129,-50c0,0,-49,-50,-49,-118c0,0,0,-60,35,-110c0,0,45,-26,94,-26ZM582,-49L492,8V211c0,0,-63,-54,-141,-54c0,0,-113,0,-213,92c0,0,-100,92,-100,205c0,0,0,93,69,157c0,0,69,64,162,64c0,0,32,0,64,-9L492,590V822H0l-45,76l14,31H1108l45,-76l-13,-31H553l66,-58V524c0,0,91,89,192,89c0,0,98,0,171,-79c0,0,72,-79,72,-186c0,0,0,-178,-224,-330L736,124c0,0,219,153,219,269c0,0,0,44,-26,75c0,0,-26,32,-81,32c0,0,-109,0,-229,-155V-39L582,-49Z"
id="f6_b9"
transform="scale(0.001,-0.001)"/>

<path d="M228,-49L138,8V822H0l-45,76l14,31H119L-33,1144c0,0,-70,92,-157,92c0,0,-69,0,-159,-58l-72,118c0,0,89,73,181,73c0,0,140,0,257,-170L205,929H402l46,-76L434,822H199l65,-58V-39L228,-49Z"
id="f6_d8"
transform="scale(0.001,-0.001)"/>

<path d="M959,-49L869,8V367c0,0,-32,-13,-64,-13c0,0,-50,0,-110,25c0,0,23,-52,23,-109c0,0,0,-103,-70,-170c0,0,-70,-66,-182,-66c0,0,-110,0,-222,82c0,0,-111,83,-213,293l68,42c0,0,72,-155,152,-231c0,0,81,-76,178,-76c0,0,83,0,131,49c0,0,48,48,48,117c0,0,0,54,-30,100c0,0,-31,47,-91,65L325,391L257,512c0,0,68,53,156,56c0,0,140,72,140,179c0,0,0,69,-52,99c0,0,-4,1,-11,1c-19,0,-66,-4,-123,-30c0,0,-78,-35,-142,-96L150,823c0,0,119,117,253,117c0,0,98,0,175,-71c0,0,77,-70,77,-159c0,0,0,-103,-94,-180c0,0,39,-23,73,-56c0,0,52,-22,109,-22c0,0,77,0,126,38V822H727l-46,76l14,31h840l46,-76l-13,-31H1332l66,-58V-39l-37,-10L1271,8V822H930l66,-58V-39L959,-49Z"
id="f6_am"
transform="scale(0.001,-0.001)"/>

<path d="M663,-49L573,8V445H299V280L226,251c0,0,-105,99,-162,238l63,72H573V822H0l-45,76l14,31H837l46,-76L869,822H634l66,-58V-39L663,-49Z"
id="f6_bt"
transform="scale(0.001,-0.001)"/>

<path d="M688,-243c0,0,-256,53,-408,173c0,0,-152,119,-152,270c0,0,0,101,68,171c0,0,-101,84,-101,179c0,0,0,64,53,112c0,0,54,47,191,47H587V822H0l-45,76l14,31H830l45,-76L862,822H640l66,-58V585H362c0,0,-159,-1,-159,-92c0,0,0,-41,46,-80c0,0,76,47,183,47c0,0,135,0,230,-76c0,0,96,-75,96,-187C758,197,758,67,629,2L545,104c0,0,49,30,81,75c0,0,32,44,32,82c0,0,0,16,-4,26c0,0,-64,58,-167,58c0,0,-97,0,-166,-50v-2c0,0,-67,-52,-67,-131c0,0,0,-116,132,-199c0,0,132,-84,334,-132l-32,-74Z"
id="f6_cc"
transform="scale(0.001,-0.001)"/>

<path d="M-214,860l-227,219c0,0,-73,70,-148,70c0,0,-67,0,-160,-58l-72,117c0,0,83,71,176,71c0,0,120,0,232,-124L-221,940l-102,294c0,0,-64,179,-189,179c0,0,-60,0,-133,-33l-60,125c0,0,84,47,164,47c0,0,200,0,281,-276L-150,901l-23,-15l-41,-26Z"
id="f6_d5"
transform="scale(0.001,-0.001)"/>

<path d="M348,229c0,0,57,0,106,17L263,559c0,0,-95,-50,-95,-162c0,0,0,-75,52,-136c0,0,49,-32,128,-32Zm170,48c0,0,61,38,96,91V504c0,0,-131,80,-244,80l-35,-2L518,277ZM704,-49L614,8V193c0,0,-84,-65,-192,-65c0,0,-139,0,-255,98c0,0,-115,98,-115,226c0,0,0,106,77,175c0,0,77,70,189,70c0,0,38,0,75,-9L614,578V822H0l-45,76l14,31H878l46,-76L911,822H675l66,-58V-39L704,-49Z"
id="f6_bx"
transform="scale(0.001,-0.001)"/>

<path d="M959,-49L869,8V367c0,0,-32,-13,-64,-13c0,0,-50,0,-110,25c0,0,23,-52,23,-109c0,0,0,-103,-70,-170c0,0,-70,-66,-182,-66c0,0,-110,0,-222,82c0,0,-111,83,-213,293l68,42c0,0,72,-155,152,-231c0,0,81,-76,178,-76c0,0,83,0,131,49c0,0,48,48,48,117c0,0,0,54,-30,100c0,0,-31,47,-91,65L325,391L257,512c0,0,68,53,156,56c0,0,140,72,140,179c0,0,0,69,-52,99c0,0,-4,1,-11,1c-19,0,-66,-4,-123,-30c0,0,-78,-35,-142,-96L150,823c0,0,119,117,253,117c0,0,98,0,175,-71c0,0,77,-70,77,-159c0,0,0,-103,-94,-180c0,0,39,-23,73,-56c0,0,52,-22,109,-22c0,0,77,0,126,38V822H727l-46,76l14,31h558l-153,215c0,0,-70,92,-157,92c0,0,-69,0,-159,-58l-72,118c0,0,89,73,180,73c0,0,141,0,258,-170L1338,929h197l46,-76l-13,-31H1332l66,-58V-39l-37,-10L1271,8V822H930l66,-58V-39L959,-49Z"
id="f6_b1"
transform="scale(0.001,-0.001)"/>

<path d="M527,-71L52,414l34,92H277c0,0,12,32,12,72V822H0l-45,76l14,31H654l46,-76L686,822H350l66,-55V564c0,0,0,-43,-25,-89H782L798,370H315L264,316L610,34L611,8L527,-71Z"
id="f6_m1"
transform="scale(0.001,-0.001)"/>

<path d="M325,240c0,0,77,0,154,35c0,0,77,35,120,99V500c0,0,-118,73,-222,73c0,0,-97,0,-151,-54c0,0,-53,-53,-53,-128c0,0,0,-73,49,-125c0,0,38,-26,103,-26ZM689,-49L599,8V199c0,0,-73,-65,-179,-65c0,0,-134,0,-252,96c0,0,-118,95,-118,221c0,0,0,102,78,171c0,0,78,69,190,69c0,0,38,0,75,-10L599,582V822H0l-45,76l14,31H863l46,-76L895,822H660l66,-58V-39L689,-49Z"
id="f6_c7"
transform="scale(0.001,-0.001)"/>

<path d="M-91,1001c0,0,-27,10,-61,36c0,0,-33,26,-50,49c0,0,38,81,90,110c0,0,61,-23,107,-85c0,0,-28,-71,-86,-110ZM-214,863l-199,281c0,0,-70,92,-157,92c0,0,-69,0,-159,-58l-72,118c0,0,89,73,180,73c0,0,141,0,258,-170L-155,901l-59,-38Z"
id="f6_oz"
transform="scale(0.001,-0.001)"/>

<path d="M108,-222l-44,58c0,0,96,81,104,164L89,61c0,0,12,83,93,122c0,0,50,-15,79,-55c0,0,29,-39,29,-90c0,0,0,-69,-48,-142c0,0,-48,-72,-134,-118Z"
id="f6_k"
transform="scale(0.001,-0.001)"/>

<path d="M388,325c0,0,58,0,112,31c0,0,53,31,84,86V822H165l69,-58V408c0,0,47,-83,154,-83ZM674,-49L584,8V257c0,0,-61,-51,-141,-51c0,0,-125,0,-232,109c0,0,-107,108,-107,243V822H0l-45,76l14,31H848l46,-76L880,822H645l65,-58V-39L674,-49Z"
id="f6_bv"
transform="scale(0.001,-0.001)"/>

<path d="M413,-59C413,-59,53,193,53,416c0,0,0,97,66,164c0,0,66,66,156,66c0,0,61,0,110,-30L487,507c0,0,92,126,257,126l35,-2V822H0l-45,76l14,31H1043l46,-76l-13,-31H840l66,-58V-39L869,-49L779,8V547c0,0,-101,-5,-165,-90c0,0,-64,-86,-70,-222L507,225l-90,73c0,0,5,79,35,151c0,0,-59,66,-128,66c0,0,-57,0,-100,-38c0,0,-44,-39,-44,-109c0,0,0,-165,284,-360L413,-59Z"
id="f6_c3"
transform="scale(0.001,-0.001)"/>

<path d="M900,298c0,0,32,73,32,159c0,0,0,110,-38,160c0,0,-40,31,-81,31c0,0,-48,0,-80,-35c0,0,-33,-35,-33,-89c0,0,0,-118,200,-226ZM588,-60c0,0,-154,0,-274,93c0,0,-120,94,-120,207c0,0,0,50,28,92C222,332,61,440,61,552c0,0,0,71,56,122c0,0,56,50,169,50H417l64,-98L463,600H333c0,0,-157,-1,-157,-99c0,0,0,-59,88,-124c0,0,68,52,164,52c0,0,38,0,79,-9l71,-88L558,299c0,0,-46,10,-81,10c0,0,-75,0,-116,-36c0,0,-40,-36,-40,-88c0,0,0,-78,73,-130c0,0,54,-17,109,-17c0,0,114,0,211,54c0,0,97,53,154,145c0,0,-156,96,-223,173c0,0,-67,77,-67,155c0,0,0,72,48,124c0,0,48,52,126,55v78H0l-45,76l14,31H1123l46,-76l-14,-31H805l66,-58V717c0,0,76,-40,124,-124c0,0,47,-84,47,-193c0,0,0,-188,-133,-324C909,76,776,-60,588,-60Z"
id="f6_bf"
transform="scale(0.001,-0.001)"/>

<path d="M830,-253l-123,66c0,0,31,47,31,78c0,0,0,44,-64,84L353,130c0,0,-234,113,-234,325V822H0l-45,76l14,31H848l46,-76L880,822H655l68,-58V561c0,0,0,-176,-41,-241c0,0,-40,-65,-161,-106l-49,82l124,69V822H180l66,-58V283L646,92c0,0,126,-60,176,-110c0,0,50,-51,50,-115c0,0,0,-62,-42,-120Z"
id="f6_ax"
transform="scale(0.001,-0.001)"/>

<path d="M-214,863l-199,281c0,0,-70,92,-157,92c0,0,-69,0,-159,-58l-72,118c0,0,89,73,180,73c0,0,141,0,258,-170L-155,901l-59,-38Z"
id="f6_d4"
transform="scale(0.001,-0.001)"/>

<path d="M92,380L46,457l14,30H448l45,-76L480,380Z"
id="f6_pd"
transform="scale(0.001,-0.001)"/>

<path d="M95,0L67,98L422,497c0,0,130,154,130,259c0,0,0,63,-40,111c0,0,-40,48,-121,48c0,0,-75,0,-171,-29L193,695l-88,2c0,0,-13,82,-13,165l1,65c0,0,159,97,315,97c0,0,122,0,207,-78c0,0,85,-77,85,-193c0,0,0,-67,-34,-133c0,0,-33,-67,-165,-217L237,121l4,-14l373,21l49,136l83,-12C746,252,732,99,704,0Z"
id="f6_q"
transform="scale(0.001,-0.001)"/>

<path d="M761,293c0,0,127,0,169,94V532c0,0,-68,46,-145,46c0,0,-76,0,-121,-46c0,0,-45,-45,-45,-107c0,0,0,-61,44,-110c0,0,47,-22,98,-22ZM657,67c0,0,166,0,273,107v55c0,0,-45,-36,-111,-36c0,0,-110,0,-207,90c0,0,-97,90,-97,194c0,0,0,85,66,148c0,0,65,63,155,63l48,-5L930,603V822H376l62,-55V579c0,0,0,-60,-23,-102c0,0,-24,-42,-148,-190c0,0,66,-104,175,-162c0,0,108,-58,215,-58ZM1021,-49L930,8V53c0,0,-105,-83,-264,-83c0,0,-177,0,-339,128C327,98,165,226,90,429l34,77H296c0,0,19,39,19,102l-2,214H0l-45,76l14,31H1195l46,-76l-14,-31H992l65,-58V-39l-36,-10Z"
id="f6_ba"
transform="scale(0.001,-0.001)"/>

<path d="M513,460c0,0,61,81,61,179c0,0,0,87,-45,143c0,0,-45,57,-116,57c0,0,-63,0,-102,-43c0,0,-39,-43,-39,-110c0,0,0,-90,68,-151c0,0,68,-61,173,-75ZM581,-83L278,167l-41,-4c0,0,-99,0,-130,37l47,168l51,12l78,-79c0,0,110,40,183,105c0,0,-141,23,-231,107c0,0,-90,84,-90,193c0,0,0,69,37,116H0l-45,76l14,31H1134l45,-76l-13,-31H930l66,-58V-39L959,-49L869,8V822H588c0,0,51,-44,75,-109c0,0,25,-64,25,-122c0,0,0,-105,-81,-213c0,0,-80,-108,-240,-176L658,18l2,-25L581,-83Z"
id="f6_c8"
transform="scale(0.001,-0.001)"/>

<path d="M108,-433L-59,-214c0,0,-99,119,-191,119c0,0,-59,0,-96,-35c0,0,-36,-34,-36,-81c0,0,0,-49,42,-83l152,95l64,-116c0,0,-71,-58,-148,-58c0,0,-80,0,-146,63c0,0,-65,64,-65,144c0,0,0,77,62,131c0,0,61,53,142,53c0,0,138,0,296,-205L165,-393l-57,-40Z"
id="f6_cx"
transform="scale(0.001,-0.001)"/>

<path d="M252,385l310,78l22,-9c0,0,107,-43,200,-43c0,0,91,0,151,41V822H603l66,-58V585H373c0,0,-184,0,-184,-99c0,0,0,-48,63,-101ZM483,-305L295,-10c0,0,-90,22,-156,74l41,170h66L351,63c0,0,126,4,207,62c0,0,82,58,82,139c0,0,0,37,-18,71L365,266c0,0,-110,15,-197,102c0,0,-87,87,-87,176c0,0,0,69,59,117c0,0,59,48,172,48H550V822H0l-45,76l14,31H1199l46,-76l-14,-31H996l66,-58V-39l-37,-10L935,8V318c0,0,-41,-15,-78,-15c0,0,-52,0,-131,30c0,0,32,-55,32,-111c0,0,0,-109,-98,-179c0,0,-98,-69,-254,-69L599,-216L483,-305Z"
id="f6_bh"
transform="scale(0.001,-0.001)"/>

<path d="M959,-49L869,8V367c0,0,-32,-13,-64,-13c0,0,-50,0,-110,25c0,0,23,-52,23,-109c0,0,0,-103,-70,-170c0,0,-70,-66,-182,-66c0,0,-110,0,-222,82c0,0,-111,83,-213,293l68,42c0,0,72,-155,152,-231c0,0,81,-76,178,-76c0,0,83,0,131,49c0,0,48,48,48,117c0,0,0,54,-30,100c0,0,-31,47,-91,65L325,391L257,512c0,0,68,53,156,56c0,0,140,72,140,179c0,0,0,69,-52,99c0,0,-4,1,-11,1c-19,0,-66,-4,-123,-30c0,0,-78,-35,-142,-96L150,823c0,0,119,117,253,117c0,0,98,0,175,-71c0,0,77,-70,77,-159c0,0,0,-103,-94,-180c0,0,39,-23,73,-56c0,0,52,-22,109,-22c0,0,77,0,126,38V822H727l-46,76l14,31h439l45,-76l-13,-31H930l66,-58V-39L959,-49Z"
id="f6_al"
transform="scale(0.001,-0.001)"/>

<path d="M823,-49L733,8V339H445V191L371,160c0,0,-56,36,-120,105c0,0,-63,70,-89,131l41,59H313V735c0,0,0,99,-55,140c0,0,-3,1,-8,1c-16,0,-48,-3,-71,-23c0,0,-31,-26,-31,-66c0,0,0,-69,81,-113L189,620C189,620,31,720,31,828c0,0,0,61,45,99c0,0,46,37,109,37c0,0,96,0,173,-86c0,0,76,-87,79,-194V455H733V822H556l-46,76l14,31H998l45,-76l-13,-31H794l66,-58V-39L823,-49Z"
id="f6_by"
transform="scale(0.001,-0.001)"/>

<path d="M527,-71L52,414l34,92H277c0,0,12,32,12,72V822H0l-45,76l14,31H940l45,-76L972,822H350l66,-55V553c0,0,24,52,77,83c0,0,52,30,112,30c0,0,87,0,171,-76c0,0,84,-75,222,-304L938,244L828,411c0,0,-95,134,-195,134c0,0,-63,0,-100,-35c0,0,-36,-36,-36,-87c0,0,0,-50,42,-87l152,99L755,315c0,0,-71,-61,-148,-61c0,0,-80,0,-146,66c0,0,-65,67,-65,164c0,0,-34,-70,-132,-168L610,34L611,8L527,-71Z"
id="f6_n1"
transform="scale(0.001,-0.001)"/>

<path d="M228,-49L138,8V822H0l-45,76l14,31H138c0,0,-109,342,-284,342c0,0,-62,0,-102,-40c0,0,-40,-39,-40,-93c0,0,0,-61,51,-134l-42,-32c0,0,-128,113,-128,226c0,0,0,79,60,136c0,0,61,56,154,56c0,0,137,0,249,-125c0,0,112,-125,169,-336H402l46,-76L434,822H199l65,-58V-39L228,-49Z"
id="f6_cv"
transform="scale(0.001,-0.001)"/>

<path d="M226,-49c0,0,-66,24,-102,78c0,0,32,69,82,101c0,0,55,-20,100,-80c0,0,-26,-66,-80,-99Z"
id="f6_pc"
transform="scale(0.001,-0.001)"/>

<path d="M-233,1021c0,0,-84,0,-168,55c0,0,-84,56,-146,162l51,50c0,0,95,-162,219,-162c0,0,125,0,160,157L-7,1234c0,0,-21,-103,-81,-158c0,0,-61,-55,-145,-55Zm-41,201c0,0,-66,25,-102,80c0,0,32,68,82,101c0,0,55,-20,99,-80c0,0,-26,-67,-79,-101Z"
id="f6_di"
transform="scale(0.001,-0.001)"/>

<path d="M825,-49L735,8V217c0,0,-86,-72,-197,-72c0,0,-130,0,-238,91c0,0,-107,91,-107,204c0,0,0,55,27,105H55L12,616l14,30H574l46,-76L607,539H396c0,0,-78,-49,-78,-162c0,0,0,-70,40,-111c0,0,39,-15,94,-15c0,0,84,0,163,41c0,0,79,41,120,121V822H0l-45,76l14,31H999l46,-76l-14,-31H796l66,-58V-39L825,-49Z"
id="f6_be"
transform="scale(0.001,-0.001)"/>

<path d="M254,-26c0,0,-84,16,-116,92c0,0,13,84,97,127c0,0,100,-36,112,-110C347,83,324,6,254,-26Zm458,0c0,0,-84,16,-116,92c0,0,14,84,98,127c0,0,99,-37,111,-110C805,83,782,6,712,-26Zm458,0c0,0,-84,16,-116,92c0,0,14,84,98,127c0,0,99,-36,111,-110c0,0,-22,-77,-93,-109Z"
id="f6_8l"
transform="scale(0.001,-0.001)"/>

<path d="M228,-49L138,8V822H0l-45,76l14,31H134c0,0,-231,362,-445,362c0,0,-87,0,-135,-49c0,0,-48,-49,-48,-116c0,0,0,-73,43,-122l-45,-32c0,0,-119,108,-119,223c0,0,0,94,74,155c0,0,73,60,181,60c0,0,161,0,316,-134c0,0,154,-133,267,-347H402l46,-76L434,822H199l65,-58V-39L228,-49Z"
id="f6_oc"
transform="scale(0.001,-0.001)"/>

<path d="M228,-49L138,8V822H0l-45,76l14,31H134c0,0,-85,93,-85,192c0,0,0,124,129,195c0,0,129,71,364,71c0,0,285,0,647,-97c0,0,363,-97,692,-271l-42,-50c0,0,-313,137,-644,221c0,0,-332,84,-595,84c0,0,-198,0,-314,-55c0,0,-115,-55,-115,-163c0,0,0,-60,44,-127H402l46,-76L434,822H199l65,-58V-39L228,-49Z"
id="f6_o0"
transform="scale(0.001,-0.001)"/>

<path d="M283,260c0,0,122,0,209,113V513c0,0,-90,51,-160,51c0,0,-80,0,-129,-50c0,0,-49,-50,-49,-118c0,0,0,-60,35,-110c0,0,45,-26,94,-26ZM582,-49L492,8V211c0,0,-63,-54,-141,-54c0,0,-113,0,-214,92c0,0,-102,92,-102,206c0,0,0,93,69,157c0,0,69,63,163,63c0,0,34,0,66,-9L492,590V822H0l-45,76l14,31H909l46,-76L941,822H553l66,-58V521c0,0,93,104,192,104c0,0,63,0,120,-42c0,0,57,-42,82,-106L964,431l-5,9c0,0,-38,72,-110,72c0,0,-51,0,-105,-41c0,0,-53,-42,-125,-129V-39L582,-49Z"
id="f6_l1"
transform="scale(0.001,-0.001)"/>

<path d="M368,344c0,0,90,0,155,73V822H150l67,-58V438c0,0,46,-94,151,-94ZM613,-49L523,8V251c0,0,-48,-28,-103,-28c0,0,-122,0,-227,112C193,335,89,448,89,590V822H0l-45,76l14,31H1150l46,-76l-13,-31H584l65,-58V533c0,0,101,95,211,95c0,0,98,0,170,-79c0,0,73,-78,73,-185c0,0,0,-179,-225,-330L785,139c0,0,219,153,219,269c0,0,0,43,-26,75c0,0,-26,32,-80,32c0,0,-120,0,-249,-159V-39L613,-49Z"
id="f6_bw"
transform="scale(0.001,-0.001)"/>

<path d="M634,-49L249,296c0,0,-1,0,-3,0c-11,0,-48,1,-90,15c0,0,-51,16,-67,36l49,165l50,12l84,-98c0,0,125,31,191,104c0,0,66,73,66,165c0,0,0,109,-95,170c0,0,-2,0,-6,0C397,865,262,858,121,738L46,848c0,0,52,47,127,82c0,0,75,34,152,34c0,0,130,0,226,-94c0,0,95,-94,95,-218c0,0,0,-107,-77,-199c0,0,-77,-92,-216,-134L697,26L698,0L634,-49Z"
id="f6_n8"
transform="scale(0.001,-0.001)"/>

<path d="M527,-71L52,414l34,92H277c0,0,12,32,12,72V822H0l-45,76l14,31H940l45,-76L972,822H350l66,-55V570c0,0,146,98,247,98c0,0,95,0,167,-73c0,0,71,-72,71,-167c0,0,0,-77,-53,-142c0,0,-54,-64,-159,-136l-89,99c0,0,100,70,152,121c0,0,52,52,52,105c0,0,0,34,-23,60c0,0,-22,26,-72,26c0,0,-139,0,-434,-252L610,34L611,8L527,-71Z"
id="f6_n0"
transform="scale(0.001,-0.001)"/>

<path d="M1066,248c0,0,77,0,149,36c0,0,71,37,110,107V822H976c0,0,138,-96,138,-208c0,0,0,-151,-228,-192c0,0,29,-104,89,-158c0,0,41,-16,91,-16ZM1415,-49L1325,8V200c0,0,-69,-56,-170,-56c0,0,-121,0,-238,91c0,0,-116,92,-178,233c0,0,-22,19,-51,25c0,0,-28,5,-191,5c0,0,61,-47,93,-111c0,0,33,-63,33,-126c0,0,0,-85,-58,-142c0,0,-59,-56,-148,-56c0,0,-130,0,-230,139C187,202,87,341,20,581l76,24c0,0,60,-202,127,-306c0,0,67,-105,160,-105c0,0,57,0,91,36c0,0,33,36,33,91c0,0,0,84,-73,159L295,542v72H542c0,0,112,0,168,-14c0,0,55,-15,97,-62c0,0,102,15,146,42c0,0,45,27,45,78c0,0,0,45,-30,81c0,0,-30,36,-99,83H0l-45,76l14,31H1589l46,-76l-14,-31H1386l65,-58V-39l-36,-10Z"
id="f6_iz"
transform="scale(0.001,-0.001)"/>

<path d="M396,318c0,0,123,0,203,108V822H180l66,-58V408c0,0,49,-90,150,-90ZM176,-66L79,9L379,228c0,0,-106,23,-181,119c0,0,-76,96,-79,198V822H0l-45,76l14,31H863l46,-76L895,822H660l66,-58V-39L689,-49L599,8V269L176,-66Z"
id="f6_e6"
transform="scale(0.001,-0.001)"/>

<path d="M526,-266c0,0,-66,24,-103,79c0,0,32,69,83,101c0,0,55,-20,99,-80c0,0,-26,-67,-79,-100ZM570,78c0,0,66,17,105,54c0,0,40,38,40,88c0,0,0,40,-23,66c0,0,-23,26,-58,26c0,0,-40,0,-71,-33c0,0,-31,-33,-31,-90c0,0,0,-55,38,-111ZM538,-45c0,0,-182,0,-322,128C216,83,76,211,76,368c0,0,0,122,91,201c0,0,90,79,238,79H564V822H0l-45,76l14,31H853l45,-76L885,822H617l66,-58V521H420c0,0,-99,0,-162,-57c0,0,-62,-58,-62,-146c0,0,0,-121,105,-208c0,0,118,-41,188,-41l29,1l-69,46c0,0,-36,55,-36,115c0,0,0,73,48,123c0,0,49,49,123,49c0,0,87,0,151,-74c0,0,64,-74,64,-162c0,0,0,-94,-71,-153c0,0,-71,-59,-190,-59Z"
id="f6_ci"
transform="scale(0.001,-0.001)"/>

<path d="M652,-518c0,0,-209,0,-487,322l53,49c0,0,120,-129,210,-193c0,0,90,-65,177,-65c0,0,72,0,113,39c0,0,41,40,41,92c0,0,0,75,-78,105L564,-286l-90,98c0,0,62,96,169,96L605,37C605,37,552,18,498,18c0,0,-151,0,-288,115C210,133,73,248,73,388c0,0,0,113,84,184c0,0,84,71,222,73H524V822H0l-45,76l14,31H842l46,-76L874,822H567l84,-73V519l-3,2l3,-3H408c0,0,-93,0,-153,-52c0,0,-59,-52,-59,-128c0,0,0,-121,110,-188c0,0,53,-17,105,-17c0,0,92,0,153,43L535,318l101,49L773,203c0,0,-20,-67,-87,-122l61,-204c0,0,52,-32,83,-87c0,0,32,-55,32,-116c0,0,0,-85,-61,-139c0,0,-60,-53,-149,-53Z"
id="f6_mv"
transform="scale(0.001,-0.001)"/>

<path d="M567,822l-46,76l14,31H726l46,-76L758,822ZM518,122c0,0,-115,0,-225,93c0,0,-111,94,-111,193c0,0,0,79,61,137C243,545,66,672,66,791c0,0,0,75,52,124c0,0,53,49,134,49c0,0,164,0,260,-237L451,694c0,0,-55,114,-119,163l-31,5c0,0,-44,0,-77,-32c0,0,-33,-31,-33,-78c0,0,0,-86,113,-165c0,0,60,27,133,27l67,-4l75,-89L564,490l-51,7H493c0,0,-90,0,-142,-43c0,0,-52,-43,-52,-104c0,0,0,-60,51,-109c0,0,37,-13,82,-13c0,0,104,0,197,59c0,0,94,60,127,148l95,-87c0,0,-43,-94,-140,-160c0,0,-97,-66,-193,-66Z"
id="f6_lh"
transform="scale(0.001,-0.001)"/>

<path d="M542,145c0,0,-136,0,-243,92c0,0,-106,91,-106,203c0,0,0,55,27,105H55L12,616l14,30H574l46,-76L607,539H396c0,0,-78,-49,-78,-162c0,0,0,-70,40,-111c0,0,50,-22,108,-22c0,0,90,0,176,51c0,0,87,50,137,148l95,-79c0,0,-60,-115,-148,-167c0,0,-89,-52,-184,-52ZM0,822l-45,76l14,31H726l46,-76L758,822Z"
id="f6_l6"
transform="scale(0.001,-0.001)"/>

<path d="M483,-305L295,-10c0,0,-90,22,-156,74l41,170h66L351,63c0,0,126,4,207,62c0,0,82,58,82,139c0,0,0,37,-18,71L365,266c0,0,-110,15,-197,102c0,0,-87,87,-87,176c0,0,0,69,59,117c0,0,59,48,172,48H550V822H0l-45,76l14,31H822l46,-76L854,822H603l66,-58V585H373c0,0,-184,0,-184,-99c0,0,0,-48,63,-101l310,78c0,0,86,-34,141,-99c0,0,55,-65,55,-142c0,0,0,-109,-98,-179c0,0,-98,-69,-254,-69L599,-216L483,-305Z"
id="f6_an"
transform="scale(0.001,-0.001)"/>

<path d="M1561,298c0,0,32,73,32,159c0,0,0,110,-38,160c0,0,-39,31,-81,31c0,0,-47,0,-80,-35c0,0,-33,-35,-33,-89c0,0,0,-118,200,-226ZM1250,-60c0,0,-155,0,-275,93c0,0,-119,94,-119,207c0,0,0,50,27,92l-20,13c0,0,-59,-105,-145,-152c0,0,-85,-48,-176,-48c0,0,-136,0,-243,92c0,0,-106,91,-106,203c0,0,0,55,27,105H55L12,616l14,30H574l46,-76L607,539H396c0,0,-78,-49,-78,-162c0,0,0,-70,40,-111c0,0,50,-22,110,-22c0,0,87,0,169,46c0,0,83,46,135,138c0,0,-49,58,-49,124c0,0,0,71,55,122c0,0,56,50,169,50h132l64,-98l-19,-26H995c0,0,-158,-1,-158,-99c0,0,0,-59,89,-124c0,0,67,52,163,52c0,0,39,0,80,-9l70,-88l-20,-33c0,0,-46,10,-81,10c0,0,-75,0,-115,-36c0,0,-41,-36,-41,-88c0,0,0,-78,74,-130c0,0,53,-17,108,-17c0,0,115,0,212,54c0,0,97,53,153,145c0,0,-156,96,-223,173c0,0,-67,77,-67,155c0,0,0,72,48,124c0,0,48,52,126,55v78H0l-45,76l14,31H1784l46,-76l-13,-31H1467l65,-58V717c0,0,77,-40,124,-124c0,0,47,-84,47,-193c0,0,0,-188,-132,-324c0,0,-133,-136,-321,-136Z"
id="f6_ir"
transform="scale(0.001,-0.001)"/>

<path d="M342,324c0,0,45,0,75,34c0,0,31,33,31,100V822H165l66,-58V390c0,0,32,-66,111,-66ZM853,-49L762,8V822H509l65,-58V455c0,0,0,-134,-51,-185c0,0,-52,-52,-127,-52c0,0,-98,0,-195,99c0,0,-97,99,-97,209V822H0l-45,76l14,31H1027l46,-76l-14,-31H823l66,-58V-39L853,-49Z"
id="f6_bo"
transform="scale(0.001,-0.001)"/>

<path d="M413,313c0,0,91,0,145,58L231,782V408c0,0,47,-95,182,-95ZM603,438l11,28V822H295L603,438ZM704,-49L614,8V254c0,0,-61,-57,-151,-57c0,0,-138,0,-248,110c0,0,-111,110,-111,252V822H0l-45,76l14,31H878l46,-76L911,822H675l66,-58V-39L704,-49Z"
id="f6_ca"
transform="scale(0.001,-0.001)"/>

<path d="M-253,-363c0,0,-194,0,-440,288l48,52c0,0,108,-118,192,-176c0,0,83,-58,159,-58c0,0,64,0,101,36c0,0,37,37,37,85c0,0,0,68,-65,91L-327,-152l-83,89c0,0,54,86,153,86c0,0,81,0,140,-61c0,0,58,-62,58,-146c0,0,0,-78,-55,-128c0,0,-55,-51,-139,-51Z"
id="f6_oe"
transform="scale(0.001,-0.001)"/>

<path d="M725,307c0,0,-95,0,-218,78c0,0,-123,78,-188,78c0,0,-54,0,-95,-34c0,0,-41,-34,-73,-100L93,362c0,0,38,88,101,146c0,0,63,59,148,59c0,0,90,0,214,-78c0,0,124,-79,188,-79c0,0,63,0,106,34c0,0,42,33,85,104l60,-40c0,0,-32,-66,-101,-134c0,0,-70,-67,-169,-67Z"
id="f7_4r"
transform="scale(0.001,-0.001)"/>

<path d="M435,92c0,0,85,0,146,69c0,0,60,68,60,186c0,0,0,114,-60,179c0,0,-60,66,-152,66c0,0,-90,0,-154,-66c0,0,-63,-65,-63,-171c0,0,0,-70,30,-133c0,0,29,-64,82,-97c0,0,52,-33,111,-33Zm2,-110c0,0,-168,0,-273,123C164,105,58,228,58,512c0,0,0,317,117,461c0,0,102,125,275,125c0,0,129,0,211,-72c0,0,82,-72,99,-200L626,815c0,0,-18,79,-51,115c0,0,-54,58,-134,58c0,0,-64,0,-112,-36c0,0,-63,-46,-99,-135c0,0,-37,-89,-38,-253c0,0,48,74,118,110c0,0,70,36,147,36c0,0,134,0,228,-99c0,0,94,-99,94,-256c0,0,0,-103,-44,-191C735,164,691,75,613,28c0,0,-77,-46,-176,-46Z"
id="f8_q"
transform="scale(0.001,-0.001)"/>

<path d="M494,385V878L152,385ZM494,0V262H20V385l498,708H628V385H775V262H628V0Z"
id="f8_o"
transform="scale(0.001,-0.001)"/>


</defs>
</svg>