<?xml version="1.0" encoding="UTF-8" standalone="no"?>
<!DOCTYPE svg PUBLIC "-//W3C//DTD SVG 1.1//EN"
"http://www.w3.org/Graphics/SVG/1.1/DTD/svg11.dtd">
<svg viewBox="0 0 641 910" version="1.1" xmlns="http://www.w3.org/2000/svg" xmlns:xlink="http://www.w3.org/1999/xlink">
<defs>
<clipPath id="c0_104"><path d="M0,909.8V0H641.7V909.8Z"/></clipPath>
<clipPath id="c1_104"><path d="M0,908.6V0H641.7V908.6Z"/></clipPath>
<style type="text/css"><![CDATA[
.g0_104{
fill: #FFFFFF;
}
.g1_104{
}
]]></style>
</defs>
<path d="M0,0H641.7V909.8H0V0Z" class="g0_104"/>
<path d="M0,0H641.7V909.8H0V0Z" class="g0_104"/>
<g clip-path="url(#c0_104)">
<path d="M0,-88249.7H641.7V18195.8H0V-88249.7Z" class="g0_104"/>
</g>
<path d="M0,0H641.7V908.6H0V0Z" class="g0_104"/>
<path d="M19.5,60.7H602.7v1.2H19.5V60.7Z" class="g1_104"/>
<g clip-path="url(#c1_104)">
<path d="M0,61.9H641.7V909.8H0V61.9Z" class="g0_104"/>
<g fill="#000000" >
<use xlink:href="#f6_am" transform="matrix(14,0,0,14,158.4,91.7)" />
<use xlink:href="#f6_bp" transform="matrix(14,0,0,14,179.9,91.7)" />
<use xlink:href="#f6_d4" transform="matrix(14,0,0,14,192.4,91.7)" />
<use xlink:href="#f6_cc" transform="matrix(14,0,0,14,197.9,91.7)" />
<use xlink:href="#f6_d4" transform="matrix(14,0,0,14,209.8,91.7)" />
<use xlink:href="#f6_bt" transform="matrix(14,0,0,14,215.2,91.7)" />
<use xlink:href="#f6_ct" transform="matrix(14,0,0,14,226.9,91.7)" />
<use xlink:href="#f6_b9" transform="matrix(14,0,0,14,232.5,91.7)" />
<use xlink:href="#f6_d8" transform="matrix(14,0,0,14,248,91.7)" />
<use xlink:href="#f6_ch" transform="matrix(14,0,0,14,253.6,91.7)" />
<use xlink:href="#f6_ct" transform="matrix(14,0,0,14,266.3,91.7)" />
<use xlink:href="#f6_bt" transform="matrix(14,0,0,14,277.6,91.7)" />
<use xlink:href="#f6_bb" transform="matrix(14,0,0,14,289.3,91.7)" />
<use xlink:href="#f6_c1" transform="matrix(14,0,0,14,301.9,91.7)" />
<use xlink:href="#f6_cv" transform="matrix(14,0,0,14,310.3,91.7)" />
<use xlink:href="#f6_c3" transform="matrix(14,0,0,14,321.6,91.7)" />
<use xlink:href="#f6_ct" transform="matrix(14,0,0,14,336.3,91.7)" />
<use xlink:href="#f6_ba" transform="matrix(14,0,0,14,341.9,91.7)" />
<use xlink:href="#f6_d8" transform="matrix(14,0,0,14,358.6,91.7)" />
<use xlink:href="#f6_cc" transform="matrix(14,0,0,14,369.9,91.7)" />
<use xlink:href="#f6_d5" transform="matrix(14,0,0,14,381.9,91.7)" />
<use xlink:href="#f6_bt" transform="matrix(14,0,0,14,387.2,91.7)" />
<use xlink:href="#f6_c1" transform="matrix(14,0,0,14,398.9,91.7)" />
<use xlink:href="#f6_bt" transform="matrix(14,0,0,14,412.9,91.7)" />
<use xlink:href="#f6_ct" transform="matrix(14,0,0,14,424.7,91.7)" />
<use xlink:href="#f6_c1" transform="matrix(14,0,0,14,430.3,91.7)" />
<use xlink:href="#f6_cv" transform="matrix(14,0,0,14,438.7,91.7)" />
<use xlink:href="#f6_pd" transform="matrix(14,0,0,14,444.3,91.7)" />
<use xlink:href="#f6_q" transform="matrix(14,0,0,14,451.8,91.7)" />
<use xlink:href="#f6_bz" transform="matrix(14,0,0,14,139,126)" />
<use xlink:href="#f6_d8" transform="matrix(14,0,0,14,152.3,126)" />
<use xlink:href="#f6_cc" transform="matrix(14,0,0,14,157.9,126)" />
<use xlink:href="#f6_cv" transform="matrix(14,0,0,14,169.5,126)" />
<use xlink:href="#f6_bz" transform="matrix(14,0,0,14,180.8,126)" />
<use xlink:href="#f6_dj" transform="matrix(14,0,0,14,188.3,126.5)" />
<use xlink:href="#f6_bm" transform="matrix(14,0,0,14,194.1,126)" />
<use xlink:href="#f6_c3" transform="matrix(14,0,0,14,206.8,126)" />
<use xlink:href="#f6_am" transform="matrix(14,0,0,14,227.2,126)" />
<use xlink:href="#f6_c0" transform="matrix(14,0,0,14,248.7,126)" />
<use xlink:href="#f6_ct" transform="matrix(14,0,0,14,261.2,126)" />
<use xlink:href="#f6_c1" transform="matrix(14,0,0,14,272.5,126)" />
<use xlink:href="#f6_d4" transform="matrix(14,0,0,14,280.5,126)" />
<use xlink:href="#f6_br" transform="matrix(14,0,0,14,286.6,126)" />
<use xlink:href="#f6_ct" transform="matrix(14,0,0,14,298.2,126)" />
<use xlink:href="#f6_br" transform="matrix(14,0,0,14,303.9,126)" />
<use xlink:href="#f6_ct" transform="matrix(14,0,0,14,315.5,126)" />
<use xlink:href="#f6_pd" transform="matrix(14,0,0,14,326.8,126)" />
<use xlink:href="#f6_q" transform="matrix(14,0,0,14,334.4,126)" />
<use xlink:href="#f6_br" transform="matrix(14,0,0,14,351.7,126)" />
<use xlink:href="#f6_ct" transform="matrix(14,0,0,14,363.3,126)" />
<use xlink:href="#f6_br" transform="matrix(14,0,0,14,369,126)" />
<use xlink:href="#f6_ct" transform="matrix(14,0,0,14,380.6,126)" />
<use xlink:href="#f6_bp" transform="matrix(14,0,0,14,391.9,126)" />
<use xlink:href="#f6_d4" transform="matrix(14,0,0,14,404.4,126)" />
<use xlink:href="#f6_c1" transform="matrix(14,0,0,14,404.2,126)" />
<use xlink:href="#f6_cv" transform="matrix(14,0,0,14,412.6,126)" />
<use xlink:href="#f6_bt" transform="matrix(14,0,0,14,423.9,126)" />
<use xlink:href="#f6_bb" transform="matrix(14,0,0,14,435.6,126)" />
<use xlink:href="#f6_c1" transform="matrix(14,0,0,14,448.2,126)" />
<use xlink:href="#f6_cv" transform="matrix(14,0,0,14,456.6,126)" />
<use xlink:href="#f6_bz" transform="matrix(14,0,0,14,467.9,126)" />
<use xlink:href="#f6_d4" transform="matrix(14,0,0,14,481.4,126)" />
<use xlink:href="#f6_bt" transform="matrix(14,0,0,14,144.7,160.4)" />
<use xlink:href="#f6_bg" transform="matrix(14,0,0,14,156.4,160.4)" />
<use xlink:href="#f6_c1" transform="matrix(14,0,0,14,170.7,160.4)" />
<use xlink:href="#f6_ct" transform="matrix(14,0,0,14,179,160.4)" />
<use xlink:href="#f6_bt" transform="matrix(14,0,0,14,184.7,160.4)" />
<use xlink:href="#f6_ct" transform="matrix(14,0,0,14,196.4,160.4)" />
<use xlink:href="#f6_cu" transform="matrix(14,0,0,14,207.7,160.4)" />
<use xlink:href="#f6_br" transform="matrix(14,0,0,14,213.3,160.4)" />
<use xlink:href="#f6_c3" transform="matrix(14,0,0,14,224.9,160.4)" />
<use xlink:href="#f6_b9" transform="matrix(14,0,0,14,245.3,160.4)" />
<use xlink:href="#f6_ct" transform="matrix(14,0,0,14,260.8,160.4)" />
<use xlink:href="#f6_c3" transform="matrix(14,0,0,14,272.1,160.4)" />
<use xlink:href="#f6_ct" transform="matrix(14,0,0,14,286.8,160.4)" />
<use xlink:href="#f6_c0" transform="matrix(14,0,0,14,292.4,160.4)" />
<use xlink:href="#f6_ct" transform="matrix(14,0,0,14,305,160.4)" />
<use xlink:href="#f6_br" transform="matrix(14,0,0,14,316.3,160.4)" />
<use xlink:href="#f6_ct" transform="matrix(14,0,0,14,327.9,160.4)" />
<use xlink:href="#f6_br" transform="matrix(14,0,0,14,333.6,160.4)" />
<use xlink:href="#f6_ct" transform="matrix(14,0,0,14,345.2,160.4)" />
<use xlink:href="#f6_bp" transform="matrix(14,0,0,14,356.5,160.4)" />
<use xlink:href="#f6_d4" transform="matrix(14,0,0,14,369,160.4)" />
<use xlink:href="#f6_c1" transform="matrix(14,0,0,14,368.8,160.4)" />
<use xlink:href="#f6_cv" transform="matrix(14,0,0,14,377.2,160.4)" />
<use xlink:href="#f6_bt" transform="matrix(14,0,0,14,388.5,160.4)" />
<use xlink:href="#f6_bb" transform="matrix(14,0,0,14,400.2,160.4)" />
<use xlink:href="#f6_c1" transform="matrix(14,0,0,14,412.8,160.4)" />
<use xlink:href="#f6_cv" transform="matrix(14,0,0,14,421.2,160.4)" />
<use xlink:href="#f6_bz" transform="matrix(14,0,0,14,438.2,160.4)" />
<use xlink:href="#f6_oz" transform="matrix(14,0,0,14,451.6,160.4)" />
<use xlink:href="#f6_8l" transform="matrix(14,0,0,14,457.2,160.4)" />
<use xlink:href="#f6_br" transform="matrix(14,0,0,14,142.4,194.8)" />
<use xlink:href="#f6_ob" transform="matrix(14,0,0,14,154.1,194.8)" />
<use xlink:href="#f6_c7" transform="matrix(14,0,0,14,159.7,194.8)" />
<use xlink:href="#f6_ct" transform="matrix(14,0,0,14,171.8,194.8)" />
<use xlink:href="#f6_bt" transform="matrix(14,0,0,14,177.4,194.8)" />
<use xlink:href="#f6_ct" transform="matrix(14,0,0,14,189.1,194.8)" />
<use xlink:href="#f6_bp" transform="matrix(14,0,0,14,206,194.8)" />
<use xlink:href="#f6_d4" transform="matrix(14,0,0,14,218.5,194.8)" />
<use xlink:href="#f6_c1" transform="matrix(14,0,0,14,218.4,194.8)" />
<use xlink:href="#f6_ct" transform="matrix(14,0,0,14,226.7,194.8)" />
<use xlink:href="#f6_am" transform="matrix(14,0,0,14,238,194.8)" />
<use xlink:href="#f6_c0" transform="matrix(14,0,0,14,259.5,194.8)" />
<use xlink:href="#f6_ct" transform="matrix(14,0,0,14,272.1,194.8)" />
<use xlink:href="#f6_br" transform="matrix(14,0,0,14,283.3,194.8)" />
<use xlink:href="#f6_ct" transform="matrix(14,0,0,14,295,194.8)" />
<use xlink:href="#f6_br" transform="matrix(14,0,0,14,300.6,194.8)" />
<use xlink:href="#f6_ct" transform="matrix(14,0,0,14,312.3,194.8)" />
<use xlink:href="#f6_bp" transform="matrix(14,0,0,14,329.3,194.8)" />
<use xlink:href="#f6_d4" transform="matrix(14,0,0,14,341.7,194.8)" />
<use xlink:href="#f6_c1" transform="matrix(14,0,0,14,341.6,194.8)" />
<use xlink:href="#f6_cv" transform="matrix(14,0,0,14,350,194.8)" />
<use xlink:href="#f6_bt" transform="matrix(14,0,0,14,366.9,194.8)" />
<use xlink:href="#f6_bb" transform="matrix(14,0,0,14,378.6,194.8)" />
<use xlink:href="#f6_c1" transform="matrix(14,0,0,14,391.2,194.8)" />
<use xlink:href="#f6_cv" transform="matrix(14,0,0,14,399.6,194.8)" />
<use xlink:href="#f6_bz" transform="matrix(14,0,0,14,416.6,194.8)" />
<use xlink:href="#f6_oz" transform="matrix(14,0,0,14,430,194.8)" />
<use xlink:href="#f6_8l" transform="matrix(14,0,0,14,435.6,194.8)" />
<use xlink:href="#f6_pc" transform="matrix(14,0,0,14,455.4,194.8)" />
<use xlink:href="#f6_pd" transform="matrix(14,0,0,14,459.7,194.8)" />
<use xlink:href="#f6_q" transform="matrix(14,0,0,14,467.2,194.8)" />
<use xlink:href="#f6_bt" transform="matrix(14,0,0,14,100,263.5)" />
<use xlink:href="#f6_bg" transform="matrix(14,0,0,14,111.7,263.5)" />
<use xlink:href="#f6_c1" transform="matrix(14,0,0,14,126,263.5)" />
<use xlink:href="#f6_ct" transform="matrix(14,0,0,14,134.3,263.5)" />
<use xlink:href="#f6_bt" transform="matrix(14,0,0,14,140,263.5)" />
<use xlink:href="#f6_ct" transform="matrix(14,0,0,14,151.7,263.5)" />
<use xlink:href="#f6_cu" transform="matrix(14,0,0,14,163,263.5)" />
<use xlink:href="#f6_br" transform="matrix(14,0,0,14,168.6,263.5)" />
<use xlink:href="#f6_c3" transform="matrix(14,0,0,14,180.3,263.5)" />
<use xlink:href="#f6_b9" transform="matrix(14,0,0,14,200.6,263.5)" />
<use xlink:href="#f6_ct" transform="matrix(14,0,0,14,216.1,263.5)" />
<use xlink:href="#f6_c3" transform="matrix(14,0,0,14,227.4,263.5)" />
<use xlink:href="#f6_ct" transform="matrix(14,0,0,14,242.1,263.5)" />
<use xlink:href="#f6_c0" transform="matrix(14,0,0,14,247.7,263.5)" />
<use xlink:href="#f6_ct" transform="matrix(14,0,0,14,260.3,263.5)" />
<use xlink:href="#f6_c1" transform="matrix(14,0,0,14,271.6,263.5)" />
<use xlink:href="#f6_d4" transform="matrix(14,0,0,14,279.6,263.5)" />
<use xlink:href="#f6_c3" transform="matrix(14,0,0,14,285.6,263.5)" />
<use xlink:href="#f6_ct" transform="matrix(14,0,0,14,300.3,263.5)" />
<use xlink:href="#f6_c0" transform="matrix(14,0,0,14,306,263.5)" />
<use xlink:href="#f6_ct" transform="matrix(14,0,0,14,318.5,263.5)" />
<use xlink:href="#f6_pd" transform="matrix(14,0,0,14,329.8,263.5)" />
<use xlink:href="#f6_q" transform="matrix(14,0,0,14,343,263.5)" />
<use xlink:href="#f6_br" transform="matrix(14,0,0,14,360.3,263.5)" />
<use xlink:href="#f6_ct" transform="matrix(14,0,0,14,372,263.5)" />
<use xlink:href="#f6_br" transform="matrix(14,0,0,14,377.6,263.5)" />
<use xlink:href="#f6_ct" transform="matrix(14,0,0,14,389.3,263.5)" />
<use xlink:href="#f6_bp" transform="matrix(14,0,0,14,400.6,263.5)" />
<use xlink:href="#f6_d4" transform="matrix(14,0,0,14,413,263.5)" />
<use xlink:href="#f6_c1" transform="matrix(14,0,0,14,412.9,263.5)" />
<use xlink:href="#f6_cv" transform="matrix(14,0,0,14,421.3,263.5)" />
<use xlink:href="#f6_bt" transform="matrix(14,0,0,14,432.6,263.5)" />
<use xlink:href="#f6_bb" transform="matrix(14,0,0,14,444.3,263.5)" />
<use xlink:href="#f6_c1" transform="matrix(14,0,0,14,456.9,263.5)" />
<use xlink:href="#f6_cv" transform="matrix(14,0,0,14,465.3,263.5)" />
<use xlink:href="#f6_bz" transform="matrix(14,0,0,14,482.2,263.5)" />
<use xlink:href="#f6_oz" transform="matrix(14,0,0,14,495.7,263.5)" />
<use xlink:href="#f6_8l" transform="matrix(14,0,0,14,501.2,263.5)" />
<use xlink:href="#f6_bz" transform="matrix(14,0,0,14,156.1,297.9)" />
<use xlink:href="#f6_p3" transform="matrix(14,0,0,14,169.6,297.9)" />
<use xlink:href="#f6_br" transform="matrix(14,0,0,14,175.1,297.9)" />
<use xlink:href="#f6_ob" transform="matrix(14,0,0,14,186.8,297.9)" />
<use xlink:href="#f6_c7" transform="matrix(14,0,0,14,192.4,297.9)" />
<use xlink:href="#f6_ct" transform="matrix(14,0,0,14,204.5,297.9)" />
<use xlink:href="#f6_bt" transform="matrix(14,0,0,14,210.1,297.9)" />
<use xlink:href="#f6_ct" transform="matrix(14,0,0,14,221.9,297.9)" />
<use xlink:href="#f6_k" transform="matrix(14,0,0,14,227.5,297.9)" />
<use xlink:href="#f6_bz" transform="matrix(14,0,0,14,238.4,297.9)" />
<use xlink:href="#f6_p3" transform="matrix(14,0,0,14,251.8,297.9)" />
<use xlink:href="#f6_br" transform="matrix(14,0,0,14,257.4,297.9)" />
<use xlink:href="#f6_ob" transform="matrix(14,0,0,14,269,297.9)" />
<use xlink:href="#f6_c7" transform="matrix(14,0,0,14,274.7,297.9)" />
<use xlink:href="#f6_ct" transform="matrix(14,0,0,14,286.7,297.9)" />
<use xlink:href="#f6_bt" transform="matrix(14,0,0,14,292.4,297.9)" />
<use xlink:href="#f6_ct" transform="matrix(14,0,0,14,304.1,297.9)" />
<use xlink:href="#f6_bz" transform="matrix(14,0,0,14,315.4,297.9)" />
<use xlink:href="#f6_p3" transform="matrix(14,0,0,14,328.8,297.9)" />
<use xlink:href="#f6_br" transform="matrix(14,0,0,14,334.4,297.9)" />
<use xlink:href="#f6_ob" transform="matrix(14,0,0,14,346,297.9)" />
<use xlink:href="#f6_c7" transform="matrix(14,0,0,14,351.7,297.9)" />
<use xlink:href="#f6_ct" transform="matrix(14,0,0,14,363.7,297.9)" />
<use xlink:href="#f6_bt" transform="matrix(14,0,0,14,369.4,297.9)" />
<use xlink:href="#f6_ct" transform="matrix(14,0,0,14,381.1,297.9)" />
<use xlink:href="#f6_cc" transform="matrix(14,0,0,14,392.4,297.9)" />
<use xlink:href="#f6_d8" transform="matrix(14,0,0,14,404,297.9)" />
<use xlink:href="#f6_bb" transform="matrix(14,0,0,14,415.2,297.9)" />
<use xlink:href="#f6_c0" transform="matrix(14,0,0,14,427.9,297.9)" />
<use xlink:href="#f6_ct" transform="matrix(14,0,0,14,440.4,297.9)" />
<use xlink:href="#f6_pd" transform="matrix(14,0,0,14,446,297.9)" />
<use xlink:href="#f6_q" transform="matrix(14,0,0,14,453.6,297.9)" />
<use xlink:href="#f6_bz" transform="matrix(14,0,0,14,164.2,332.3)" />
<use xlink:href="#f6_p3" transform="matrix(14,0,0,14,177.6,332.3)" />
<use xlink:href="#f6_bz" transform="matrix(14,0,0,14,188.8,332.3)" />
<use xlink:href="#f6_m1" transform="matrix(14,0,0,14,202.2,332.3)" />
<use xlink:href="#f6_bp" transform="matrix(14,0,0,14,211.1,332.3)" />
<use xlink:href="#f6_ct" transform="matrix(14,0,0,14,223.4,332.3)" />
<use xlink:href="#f6_bt" transform="matrix(14,0,0,14,229,332.3)" />
<use xlink:href="#f6_ct" transform="matrix(14,0,0,14,240.7,332.3)" />
<use xlink:href="#f6_bz" transform="matrix(14,0,0,14,252,332.3)" />
<use xlink:href="#f6_m1" transform="matrix(14,0,0,14,265.3,332.3)" />
<use xlink:href="#f6_bp" transform="matrix(14,0,0,14,274.2,332.3)" />
<use xlink:href="#f6_ct" transform="matrix(14,0,0,14,286.5,332.3)" />
<use xlink:href="#f6_bt" transform="matrix(14,0,0,14,292.2,332.3)" />
<use xlink:href="#f6_ct" transform="matrix(14,0,0,14,303.9,332.3)" />
<use xlink:href="#f6_bz" transform="matrix(14,0,0,14,320.8,332.3)" />
<use xlink:href="#f6_m1" transform="matrix(14,0,0,14,334.2,332.3)" />
<use xlink:href="#f6_bp" transform="matrix(14,0,0,14,343.1,332.3)" />
<use xlink:href="#f6_ct" transform="matrix(14,0,0,14,355.4,332.3)" />
<use xlink:href="#f6_bt" transform="matrix(14,0,0,14,361,332.3)" />
<use xlink:href="#f6_ct" transform="matrix(14,0,0,14,372.7,332.3)" />
<use xlink:href="#f6_cc" transform="matrix(14,0,0,14,384,332.3)" />
<use xlink:href="#f6_d8" transform="matrix(14,0,0,14,395.6,332.3)" />
<use xlink:href="#f6_bb" transform="matrix(14,0,0,14,406.9,332.3)" />
<use xlink:href="#f6_c0" transform="matrix(14,0,0,14,419.5,332.3)" />
<use xlink:href="#f6_ct" transform="matrix(14,0,0,14,432.1,332.3)" />
<use xlink:href="#f6_pd" transform="matrix(14,0,0,14,437.7,332.3)" />
<use xlink:href="#f6_q" transform="matrix(14,0,0,14,445.2,332.3)" />
<use xlink:href="#f7_4r" transform="matrix(9,0,0,9,290.2,795.2)" />
<use xlink:href="#f8_t" transform="matrix(9,0,0,9,303,795.2)" />
<use xlink:href="#f8_s" transform="matrix(9,0,0,9,310.7,795.2)" />
<use xlink:href="#f7_4r" transform="matrix(9,0,0,9,321.3,795.2)" />
</g>
</g>
<image preserveAspectRatio="none" x="22" y="801" width="581" height="86" xlink:href="img/1.png"/>
<image preserveAspectRatio="none" x="202" y="14" width="217" height="26" xlink:href="img/2.png"/>
<defs>
<path d="M959,-49L869,8V367c0,0,-32,-13,-64,-13c0,0,-50,0,-110,25c0,0,23,-52,23,-109c0,0,0,-103,-70,-170c0,0,-70,-66,-182,-66c0,0,-110,0,-222,82c0,0,-111,83,-213,293l68,42c0,0,72,-155,152,-231c0,0,81,-76,178,-76c0,0,83,0,131,49c0,0,48,48,48,117c0,0,0,54,-30,100c0,0,-31,47,-91,65L325,391L257,512c0,0,68,53,156,56c0,0,140,72,140,179c0,0,0,69,-52,99c0,0,-4,1,-11,1c-19,0,-66,-4,-123,-30c0,0,-78,-35,-142,-96L150,823c0,0,119,117,253,117c0,0,98,0,175,-71c0,0,77,-70,77,-159c0,0,0,-103,-94,-180c0,0,39,-23,73,-56c0,0,52,-22,109,-22c0,0,77,0,126,38V822H727l-46,76l14,31h840l46,-76l-13,-31H1332l66,-58V-39l-37,-10L1271,8V822H930l66,-58V-39L959,-49Z"
id="f6_am"
transform="scale(0.001,-0.001)"/>

<path d="M347,-57C347,-57,66,211,66,394c0,0,0,98,74,164c0,0,74,65,225,65H616V822H0l-45,76l14,31H880l46,-76L912,822H677l66,-58V-39L706,-49L616,8V500H428c0,0,-239,0,-239,-161c0,0,0,-136,214,-343L347,-57Z"
id="f6_bp"
transform="scale(0.001,-0.001)"/>

<path d="M-214,863l-199,281c0,0,-70,92,-157,92c0,0,-69,0,-159,-58l-72,118c0,0,89,73,180,73c0,0,141,0,258,-170L-155,901l-59,-38Z"
id="f6_d4"
transform="scale(0.001,-0.001)"/>

<path d="M688,-243c0,0,-256,53,-408,173c0,0,-152,119,-152,270c0,0,0,101,68,171c0,0,-101,84,-101,179c0,0,0,64,53,112c0,0,54,47,191,47H587V822H0l-45,76l14,31H830l45,-76L862,822H640l66,-58V585H362c0,0,-159,-1,-159,-92c0,0,0,-41,46,-80c0,0,76,47,183,47c0,0,135,0,230,-76c0,0,96,-75,96,-187C758,197,758,67,629,2L545,104c0,0,49,30,81,75c0,0,32,44,32,82c0,0,0,16,-4,26c0,0,-64,58,-167,58c0,0,-97,0,-166,-50v-2c0,0,-67,-52,-67,-131c0,0,0,-116,132,-199c0,0,132,-84,334,-132l-32,-74Z"
id="f6_cc"
transform="scale(0.001,-0.001)"/>

<path d="M663,-49L573,8V445H299V280L226,251c0,0,-105,99,-162,238l63,72H573V822H0l-45,76l14,31H837l46,-76L869,822H634l66,-58V-39L663,-49Z"
id="f6_bt"
transform="scale(0.001,-0.001)"/>

<path d="M228,-49L138,8V822H0l-45,76l14,31H402l46,-76L434,822H199l65,-58V-39L228,-49Z"
id="f6_ct"
transform="scale(0.001,-0.001)"/>

<path d="M283,260c0,0,122,0,209,113V513c0,0,-90,51,-160,51c0,0,-80,0,-129,-50c0,0,-49,-50,-49,-118c0,0,0,-60,35,-110c0,0,45,-26,94,-26ZM582,-49L492,8V211c0,0,-63,-54,-141,-54c0,0,-113,0,-213,92c0,0,-100,92,-100,205c0,0,0,93,69,157c0,0,69,64,162,64c0,0,32,0,64,-9L492,590V822H0l-45,76l14,31H1108l45,-76l-13,-31H553l66,-58V524c0,0,91,89,192,89c0,0,98,0,171,-79c0,0,72,-79,72,-186c0,0,0,-178,-224,-330L736,124c0,0,219,153,219,269c0,0,0,44,-26,75c0,0,-26,32,-81,32c0,0,-109,0,-229,-155V-39L582,-49Z"
id="f6_b9"
transform="scale(0.001,-0.001)"/>

<path d="M228,-49L138,8V822H0l-45,76l14,31H119L-33,1144c0,0,-70,92,-157,92c0,0,-69,0,-159,-58l-72,118c0,0,89,73,181,73c0,0,140,0,257,-170L205,929H402l46,-76L434,822H199l65,-58V-39L228,-49Z"
id="f6_d8"
transform="scale(0.001,-0.001)"/>

<path d="M547,-285c0,0,-66,25,-102,80c0,0,32,69,82,101c0,0,55,-20,99,-80c0,0,-26,-67,-79,-101Zm1,228c0,0,-122,0,-243,81c0,0,-122,81,-252,280l57,41C110,345,283,64,498,64c0,0,92,0,153,49c0,0,61,49,61,121c0,0,0,46,-28,84L440,237c0,0,-73,11,-139,55c0,0,-66,44,-105,105c0,0,-40,61,-40,119c0,0,0,72,62,125c0,0,62,53,184,53H625V822H0l-45,76l14,31H906l46,-76L938,822H678l66,-58V562H431c0,0,-164,0,-164,-99c0,0,0,-55,57,-102l261,82c0,0,104,-21,172,-98c0,0,68,-78,68,-171c0,0,0,-99,-76,-166c0,0,-77,-65,-201,-65Z"
id="f6_ch"
transform="scale(0.001,-0.001)"/>

<path d="M727,-49L637,8V822H278l66,-58V226L270,196c0,0,-64,36,-122,98c0,0,-58,62,-79,122l43,59H217V822H0l-45,76l14,31H901l46,-76L933,822H698l66,-58V-39L727,-49Z"
id="f6_bb"
transform="scale(0.001,-0.001)"/>

<path d="M527,-71L52,414l34,92H277c0,0,12,32,12,72V822H0l-45,76l14,31H599l46,-76L631,822H350l66,-55V564c0,0,0,-96,-152,-248L610,34L611,8L527,-71Z"
id="f6_c1"
transform="scale(0.001,-0.001)"/>

<path d="M228,-49L138,8V822H0l-45,76l14,31H138c0,0,-109,342,-284,342c0,0,-62,0,-102,-40c0,0,-40,-39,-40,-93c0,0,0,-61,51,-134l-42,-32c0,0,-128,113,-128,226c0,0,0,79,60,136c0,0,61,56,154,56c0,0,137,0,249,-125c0,0,112,-125,169,-336H402l46,-76L434,822H199l65,-58V-39L228,-49Z"
id="f6_cv"
transform="scale(0.001,-0.001)"/>

<path d="M413,-59C413,-59,53,193,53,416c0,0,0,97,66,164c0,0,66,66,156,66c0,0,61,0,110,-30L487,507c0,0,92,126,257,126l35,-2V822H0l-45,76l14,31H1043l46,-76l-13,-31H840l66,-58V-39L869,-49L779,8V547c0,0,-101,-5,-165,-90c0,0,-64,-86,-70,-222L507,225l-90,73c0,0,5,79,35,151c0,0,-59,66,-128,66c0,0,-57,0,-100,-38c0,0,-44,-39,-44,-109c0,0,0,-165,284,-360L413,-59Z"
id="f6_c3"
transform="scale(0.001,-0.001)"/>

<path d="M761,293c0,0,127,0,169,94V532c0,0,-68,46,-145,46c0,0,-76,0,-121,-46c0,0,-45,-45,-45,-107c0,0,0,-61,44,-110c0,0,47,-22,98,-22ZM657,67c0,0,166,0,273,107v55c0,0,-45,-36,-111,-36c0,0,-110,0,-207,90c0,0,-97,90,-97,194c0,0,0,85,66,148c0,0,65,63,155,63l48,-5L930,603V822H376l62,-55V579c0,0,0,-60,-23,-102c0,0,-24,-42,-148,-190c0,0,66,-104,175,-162c0,0,108,-58,215,-58ZM1021,-49L930,8V53c0,0,-105,-83,-264,-83c0,0,-177,0,-339,128C327,98,165,226,90,429l34,77H296c0,0,19,39,19,102l-2,214H0l-45,76l14,31H1195l46,-76l-14,-31H992l65,-58V-39l-36,-10Z"
id="f6_ba"
transform="scale(0.001,-0.001)"/>

<path d="M-214,860l-227,219c0,0,-73,70,-148,70c0,0,-67,0,-160,-58l-72,117c0,0,83,71,176,71c0,0,120,0,232,-124L-221,940l-102,294c0,0,-64,179,-189,179c0,0,-60,0,-133,-33l-60,125c0,0,84,47,164,47c0,0,200,0,281,-276L-150,901l-23,-15l-41,-26Z"
id="f6_d5"
transform="scale(0.001,-0.001)"/>

<path d="M92,380L46,457l14,30H448l45,-76L480,380Z"
id="f6_pd"
transform="scale(0.001,-0.001)"/>

<path d="M95,0L67,98L422,497c0,0,130,154,130,259c0,0,0,63,-40,111c0,0,-40,48,-121,48c0,0,-75,0,-171,-29L193,695l-88,2c0,0,-13,82,-13,165l1,65c0,0,159,97,315,97c0,0,122,0,207,-78c0,0,85,-77,85,-193c0,0,0,-67,-34,-133c0,0,-33,-67,-165,-217L237,121l4,-14l373,21l49,136l83,-12C746,252,732,99,704,0Z"
id="f6_q"
transform="scale(0.001,-0.001)"/>

<path d="M689,445V822H286l65,-58l8,-319ZM779,-49L689,8V328H370V180L296,150c0,0,-56,35,-120,104c0,0,-63,70,-89,131l41,60H238L223,822H0l-45,76l14,31H953l46,-76L985,822H750l66,-58V-39L779,-49Z"
id="f6_bz"
transform="scale(0.001,-0.001)"/>

<path d="M0,1062c0,0,-26,11,-60,36c0,0,-34,26,-51,49c0,0,39,81,91,110c0,0,60,-23,106,-85c0,0,-28,-70,-86,-110Z"
id="f6_dj"
transform="scale(0.001,-0.001)"/>

<path d="M548,-57c0,0,-122,0,-243,81c0,0,-122,81,-252,280l57,41C110,345,283,64,498,64c0,0,92,0,153,49c0,0,61,49,61,121c0,0,0,46,-28,84L440,237c0,0,-73,11,-139,55c0,0,-66,44,-105,105c0,0,-40,61,-40,119c0,0,0,72,62,125c0,0,62,53,184,53H625V822H0l-45,76l14,31H906l46,-76L938,822H678l66,-58V562H431c0,0,-164,0,-164,-99c0,0,0,-55,57,-102l261,82c0,0,104,-21,172,-98c0,0,68,-78,68,-171c0,0,0,-99,-76,-166c0,0,-77,-65,-201,-65Z"
id="f6_bm"
transform="scale(0.001,-0.001)"/>

<path d="M374,248c0,0,77,0,149,36c0,0,71,37,110,107V822H284c0,0,138,-96,138,-208c0,0,0,-151,-228,-192c0,0,29,-104,89,-158c0,0,41,-16,91,-16ZM723,-49L633,8V200c0,0,-69,-56,-170,-56c0,0,-122,0,-240,94c0,0,-118,94,-179,237l20,55c0,0,133,17,187,44c0,0,55,28,55,84c0,0,0,45,-30,81c0,0,-30,36,-99,83H0l-45,76l14,31H897l46,-76L929,822H694l65,-58V-39L723,-49Z"
id="f6_c0"
transform="scale(0.001,-0.001)"/>

<path d="M675,-274L602,21C602,21,550,3,498,3C498,3,347,3,210,118C210,118,73,232,73,373c0,0,0,113,84,184c0,0,84,71,222,72H524V822H0l-45,76l14,31H834l46,-76L866,822H585l66,-58V504l-3,2l3,-3H408c0,0,-95,0,-154,-53c0,0,-58,-53,-58,-132c0,0,0,-49,27,-100c0,0,28,-50,83,-84c0,0,44,-15,96,-15c0,0,91,0,160,46L535,303l101,48L773,188c0,0,-8,-28,-34,-66c0,0,-27,-38,-62,-64L813,-221L675,-274Z"
id="f6_br"
transform="scale(0.001,-0.001)"/>

<path d="M845,-49L755,8V513H497c0,0,61,-45,93,-110c0,0,33,-64,33,-128c0,0,0,-90,-58,-144c0,0,-59,-53,-143,-53c0,0,-133,0,-234,139C188,217,87,356,20,596l76,24c0,0,60,-201,127,-306c0,0,67,-105,160,-105c0,0,57,0,91,36c0,0,33,36,33,91c0,0,0,84,-73,159L295,558v71H755V822H0l-45,76l14,31H1019l46,-76l-14,-31H816l66,-58V-39L845,-49Z"
id="f6_bg"
transform="scale(0.001,-0.001)"/>

<path d="M228,-49L138,8V822H0l-45,76l14,31H134c0,0,-91,92,-91,191c0,0,0,105,85,170c0,0,84,65,219,65c0,0,128,0,293,-76c0,0,165,-77,362,-263L958,966c0,0,-177,143,-303,210c0,0,-125,68,-244,68c0,0,-107,0,-175,-50c0,0,-68,-50,-68,-131c0,0,0,-61,49,-134H402l46,-76L434,822H199l65,-58V-39L228,-49Z"
id="f6_cu"
transform="scale(0.001,-0.001)"/>

<path d="M-91,1001c0,0,-27,10,-61,36c0,0,-33,26,-50,49c0,0,38,81,90,110c0,0,61,-23,107,-85c0,0,-28,-71,-86,-110ZM-214,863l-199,281c0,0,-70,92,-157,92c0,0,-69,0,-159,-58l-72,118c0,0,89,73,180,73c0,0,141,0,258,-170L-155,901l-59,-38Z"
id="f6_oz"
transform="scale(0.001,-0.001)"/>

<path d="M254,-26c0,0,-84,16,-116,92c0,0,13,84,97,127c0,0,100,-36,112,-110C347,83,324,6,254,-26Zm458,0c0,0,-84,16,-116,92c0,0,14,84,98,127c0,0,99,-37,111,-110C805,83,782,6,712,-26Zm458,0c0,0,-84,16,-116,92c0,0,14,84,98,127c0,0,99,-36,111,-110c0,0,-22,-77,-93,-109Z"
id="f6_8l"
transform="scale(0.001,-0.001)"/>

<path d="M228,-49L138,8V822H0l-45,76l14,31H136c0,0,-173,353,-364,353c0,0,-75,0,-119,-44c0,0,-45,-45,-45,-106c0,0,0,-69,48,-128l-43,-32c0,0,-124,113,-124,224c0,0,0,87,67,146c0,0,68,59,167,59c0,0,150,0,283,-130c0,0,135,-130,219,-342H402l46,-76L434,822H199l65,-58V-39L228,-49Z"
id="f6_ob"
transform="scale(0.001,-0.001)"/>

<path d="M325,240c0,0,77,0,154,35c0,0,77,35,120,99V500c0,0,-118,73,-222,73c0,0,-97,0,-151,-54c0,0,-53,-53,-53,-128c0,0,0,-73,49,-125c0,0,38,-26,103,-26ZM689,-49L599,8V199c0,0,-73,-65,-179,-65c0,0,-134,0,-252,96c0,0,-118,95,-118,221c0,0,0,102,78,171c0,0,78,69,190,69c0,0,38,0,75,-10L599,582V822H0l-45,76l14,31H863l46,-76L895,822H660l66,-58V-39L689,-49Z"
id="f6_c7"
transform="scale(0.001,-0.001)"/>

<path d="M226,-49c0,0,-66,24,-102,78c0,0,32,69,82,101c0,0,55,-20,100,-80c0,0,-26,-66,-80,-99Z"
id="f6_pc"
transform="scale(0.001,-0.001)"/>

<path d="M-40,1030c0,0,-28,10,-61,36c0,0,-34,26,-51,49c0,0,38,81,90,110c0,0,61,-23,106,-85c0,0,-27,-71,-84,-110ZM-214,860l-227,219c0,0,-73,70,-148,70c0,0,-67,0,-160,-58l-72,117c0,0,83,71,176,71c0,0,120,0,232,-124L-221,940l-102,294c0,0,-64,179,-189,179c0,0,-60,0,-133,-33l-60,125c0,0,84,47,164,47c0,0,200,0,281,-276L-150,901l-23,-15l-41,-26Z"
id="f6_p3"
transform="scale(0.001,-0.001)"/>

<path d="M108,-222l-44,58c0,0,96,81,104,164L89,61c0,0,12,83,93,122c0,0,50,-15,79,-55c0,0,29,-39,29,-90c0,0,0,-69,-48,-142c0,0,-48,-72,-134,-118Z"
id="f6_k"
transform="scale(0.001,-0.001)"/>

<path d="M527,-71L52,414l34,92H277c0,0,12,32,12,72V822H0l-45,76l14,31H654l46,-76L686,822H350l66,-55V564c0,0,0,-43,-25,-89H782L798,370H315L264,316L610,34L611,8L527,-71Z"
id="f6_m1"
transform="scale(0.001,-0.001)"/>

<path d="M725,307c0,0,-95,0,-218,78c0,0,-123,78,-188,78c0,0,-54,0,-95,-34c0,0,-41,-34,-73,-100L93,362c0,0,38,88,101,146c0,0,63,59,148,59c0,0,90,0,214,-78c0,0,124,-79,188,-79c0,0,63,0,106,34c0,0,42,33,85,104l60,-40c0,0,-32,-66,-101,-134c0,0,-70,-67,-169,-67Z"
id="f7_4r"
transform="scale(0.001,-0.001)"/>

<path d="M420,489c0,0,93,0,153,65c0,0,60,65,60,181c0,0,0,116,-62,184c0,0,-61,68,-148,68c0,0,-90,0,-156,-74c0,0,-66,-73,-66,-189c0,0,0,-105,63,-170c0,0,63,-65,156,-65ZM391,-18c0,0,-128,0,-209,71c0,0,-82,71,-98,200l129,12c0,0,17,-91,63,-132c0,0,46,-41,118,-41c0,0,62,0,109,28c0,0,47,29,76,76c0,0,30,47,50,128c0,0,20,80,20,164c0,0,0,9,-1,27c0,0,-40,-65,-110,-105c0,0,-69,-39,-151,-39c0,0,-135,0,-229,98c0,0,-94,99,-94,260c0,0,0,166,98,268c0,0,98,101,245,101c0,0,107,0,195,-57c0,0,89,-58,134,-164c0,0,46,-106,46,-308c0,0,0,-209,-45,-334C737,235,691,111,602,46c0,0,-90,-64,-211,-64Z"
id="f8_t"
transform="scale(0.001,-0.001)"/>

<path d="M423,92c0,0,97,0,159,62c0,0,62,62,62,157c0,0,0,97,-64,160c0,0,-64,64,-161,64c0,0,-96,0,-158,-63c0,0,-62,-62,-62,-156c0,0,0,-58,27,-111c0,0,27,-54,81,-84c0,0,54,-29,116,-29Zm0,552c0,0,78,0,127,49c0,0,49,49,49,120c0,0,0,74,-50,124c0,0,-51,51,-128,51c0,0,-77,0,-127,-50c0,0,-51,-49,-51,-118c0,0,0,-77,50,-126c0,0,50,-50,130,-50ZM422,-18c0,0,-162,0,-261,95c0,0,-99,96,-99,239c0,0,0,107,54,179c0,0,54,72,154,98c0,0,-84,31,-124,87c0,0,-40,57,-40,136c0,0,0,119,85,201c0,0,86,81,229,81c0,0,143,0,230,-83c0,0,87,-83,87,-203c0,0,0,-76,-40,-132c0,0,-39,-56,-121,-87c0,0,101,-33,154,-106c0,0,52,-73,52,-174c0,0,0,-141,-99,-236c0,0,-99,-95,-261,-95Z"
id="f8_s"
transform="scale(0.001,-0.001)"/>


</defs>
</svg>