<?xml version="1.0" encoding="UTF-8" standalone="no"?>
<!DOCTYPE svg PUBLIC "-//W3C//DTD SVG 1.1//EN"
"http://www.w3.org/Graphics/SVG/1.1/DTD/svg11.dtd">
<svg viewBox="0 0 641 910" version="1.1" xmlns="http://www.w3.org/2000/svg" xmlns:xlink="http://www.w3.org/1999/xlink">
<defs>
<clipPath id="c0_79"><path d="M0,909.8V0H641.7V909.8Z"/></clipPath>
<clipPath id="c1_79"><path d="M0,908.6V0H641.7V908.6Z"/></clipPath>
<style type="text/css"><![CDATA[
.g0_79{
fill: #FFFFFF;
}
.g1_79{
}
]]></style>
</defs>
<path d="M0,0H641.7V909.8H0V0Z" class="g0_79"/>
<path d="M0,0H641.7V909.8H0V0Z" class="g0_79"/>
<g clip-path="url(#c0_79)">
<path d="M0,-65504.9H641.7V40940.6H0V-65504.9Z" class="g0_79"/>
</g>
<path d="M0,0H641.7V908.6H0V0Z" class="g0_79"/>
<path d="M19.5,60.7H602.7v1.2H19.5V60.7Z" class="g1_79"/>
<g clip-path="url(#c1_79)">
<path d="M0,61.9H641.7V909.8H0V61.9Z" class="g0_79"/>
<g fill="#000000" >
<use xlink:href="#f5_bz" transform="matrix(14,0,0,14,229.5,110)" />
<use xlink:href="#f5_d8" transform="matrix(14,0,0,14,244.1,110)" />
<use xlink:href="#f5_c1" transform="matrix(14,0,0,14,250.6,110)" />
<use xlink:href="#f5_bx" transform="matrix(14,0,0,14,266.4,110)" />
<use xlink:href="#f5_d8" transform="matrix(14,0,0,14,280.2,110)" />
<use xlink:href="#f5_c3" transform="matrix(14,0,0,14,286.7,110)" />
<use xlink:href="#f5_d4" transform="matrix(14,0,0,14,302.9,110)" />
<use xlink:href="#f5_b1" transform="matrix(14,0,0,14,308.6,110)" />
<use xlink:href="#f5_by" transform="matrix(14,0,0,14,339.1,110)" />
<use xlink:href="#f5_d5" transform="matrix(14,0,0,14,354.1,110)" />
<use xlink:href="#f5_n0" transform="matrix(14,0,0,14,354.1,110)" />
<use xlink:href="#f5_bg" transform="matrix(14,0,0,14,370,110)" />
<use xlink:href="#f5_cv" transform="matrix(14,0,0,14,385.9,110)" />
<use xlink:href="#f6_bz" transform="matrix(14,0,0,14,172.2,143.2)" />
<use xlink:href="#f6_d8" transform="matrix(14,0,0,14,185.5,143.2)" />
<use xlink:href="#f6_c1" transform="matrix(14,0,0,14,191.1,143.2)" />
<use xlink:href="#f6_bx" transform="matrix(14,0,0,14,205.2,143.2)" />
<use xlink:href="#f6_d8" transform="matrix(14,0,0,14,217.5,143.2)" />
<use xlink:href="#f6_c3" transform="matrix(14,0,0,14,223.1,143.2)" />
<use xlink:href="#f6_d4" transform="matrix(14,0,0,14,237.9,143.2)" />
<use xlink:href="#f6_b1" transform="matrix(14,0,0,14,243.5,143.2)" />
<use xlink:href="#f6_by" transform="matrix(14,0,0,14,270.6,143.2)" />
<use xlink:href="#f6_d5" transform="matrix(14,0,0,14,284.7,143.2)" />
<use xlink:href="#f6_n0" transform="matrix(14,0,0,14,284.6,143.2)" />
<use xlink:href="#f6_bg" transform="matrix(14,0,0,14,297.7,143.2)" />
<use xlink:href="#f6_cv" transform="matrix(14,0,0,14,312,143.2)" />
<use xlink:href="#f6_bt" transform="matrix(14,0,0,14,323.3,143.2)" />
<use xlink:href="#f6_ct" transform="matrix(14,0,0,14,335,143.2)" />
<use xlink:href="#f6_b9" transform="matrix(14,0,0,14,340.6,143.2)" />
<use xlink:href="#f6_d8" transform="matrix(14,0,0,14,356.1,143.2)" />
<use xlink:href="#f6_ch" transform="matrix(14,0,0,14,361.7,143.2)" />
<use xlink:href="#f6_ct" transform="matrix(14,0,0,14,374.4,143.2)" />
<use xlink:href="#f6_bt" transform="matrix(14,0,0,14,385.7,143.2)" />
<use xlink:href="#f6_bb" transform="matrix(14,0,0,14,397.4,143.2)" />
<use xlink:href="#f6_c1" transform="matrix(14,0,0,14,410,143.2)" />
<use xlink:href="#f6_cv" transform="matrix(14,0,0,14,418.4,143.2)" />
<use xlink:href="#f6_bz" transform="matrix(14,0,0,14,429.7,143.2)" />
<use xlink:href="#f6_oz" transform="matrix(14,0,0,14,443.2,143.2)" />
<use xlink:href="#f6_k" transform="matrix(14,0,0,14,443,143.2)" />
<use xlink:href="#f6_by" transform="matrix(14,0,0,14,222.6,176.5)" />
<use xlink:href="#f6_d5" transform="matrix(14,0,0,14,236.7,176.5)" />
<use xlink:href="#f6_n0" transform="matrix(14,0,0,14,236.6,176.5)" />
<use xlink:href="#f6_bg" transform="matrix(14,0,0,14,249.7,176.5)" />
<use xlink:href="#f6_cv" transform="matrix(14,0,0,14,264,176.5)" />
<use xlink:href="#f6_bz" transform="matrix(14,0,0,14,275.2,176.5)" />
<use xlink:href="#f6_d8" transform="matrix(14,0,0,14,288.6,176.5)" />
<use xlink:href="#f6_c1" transform="matrix(14,0,0,14,294.2,176.5)" />
<use xlink:href="#f6_bx" transform="matrix(14,0,0,14,308.3,176.5)" />
<use xlink:href="#f6_d8" transform="matrix(14,0,0,14,320.5,176.5)" />
<use xlink:href="#f6_c3" transform="matrix(14,0,0,14,326.2,176.5)" />
<use xlink:href="#f6_d4" transform="matrix(14,0,0,14,341,176.5)" />
<use xlink:href="#f6_c1" transform="matrix(14,0,0,14,346.5,176.5)" />
<use xlink:href="#f6_d4" transform="matrix(14,0,0,14,354.5,176.5)" />
<use xlink:href="#f6_cr" transform="matrix(14,0,0,14,360.6,176.5)" />
<use xlink:href="#f6_cr" transform="matrix(14,0,0,14,373.4,176.5)" />
<use xlink:href="#f6_cr" transform="matrix(14,0,0,14,386.2,176.5)" />
<use xlink:href="#f6_c7" transform="matrix(14,0,0,14,165.3,209.7)" />
<use xlink:href="#f6_d4" transform="matrix(14,0,0,14,177.5,209.7)" />
<use xlink:href="#f6_bb" transform="matrix(14,0,0,14,177.4,209.7)" />
<use xlink:href="#f6_ct" transform="matrix(14,0,0,14,190,209.7)" />
<use xlink:href="#f6_bx" transform="matrix(14,0,0,14,201.3,209.7)" />
<use xlink:href="#f6_cw" transform="matrix(14,0,0,14,214.1,209.6)" />
<use xlink:href="#f6_c3" transform="matrix(14,0,0,14,213.6,209.7)" />
<use xlink:href="#f6_ct" transform="matrix(14,0,0,14,228.3,209.7)" />
<use xlink:href="#f6_ao" transform="matrix(14,0,0,14,233.9,209.7)" />
<use xlink:href="#f6_bg" transform="matrix(14,0,0,14,245.4,209.7)" />
<use xlink:href="#f6_d8" transform="matrix(14,0,0,14,259.7,209.7)" />
<use xlink:href="#f6_c1" transform="matrix(14,0,0,14,270.9,209.7)" />
<use xlink:href="#f6_d4" transform="matrix(14,0,0,14,278.9,209.7)" />
<use xlink:href="#f6_by" transform="matrix(14,0,0,14,285,209.7)" />
<use xlink:href="#f6_d5" transform="matrix(14,0,0,14,299.1,209.7)" />
<use xlink:href="#f6_n0" transform="matrix(14,0,0,14,299,209.7)" />
<use xlink:href="#f6_bg" transform="matrix(14,0,0,14,312.1,209.7)" />
<use xlink:href="#f6_cv" transform="matrix(14,0,0,14,326.4,209.7)" />
<use xlink:href="#f6_bq" transform="matrix(14,0,0,14,337.6,209.7)" />
<use xlink:href="#f6_d8" transform="matrix(14,0,0,14,350.8,209.7)" />
<use xlink:href="#f6_c1" transform="matrix(14,0,0,14,356.5,209.7)" />
<use xlink:href="#f6_ct" transform="matrix(14,0,0,14,364.8,209.7)" />
<use xlink:href="#f6_c1" transform="matrix(14,0,0,14,376.1,209.7)" />
<use xlink:href="#f6_d4" transform="matrix(14,0,0,14,384.1,209.7)" />
<use xlink:href="#f6_be" transform="matrix(14,0,0,14,390.2,209.7)" />
<use xlink:href="#f6_c1" transform="matrix(14,0,0,14,404.1,209.7)" />
<use xlink:href="#f6_bo" transform="matrix(14,0,0,14,412.5,209.7)" />
<use xlink:href="#f6_d8" transform="matrix(14,0,0,14,426.9,209.7)" />
<use xlink:href="#f6_dj" transform="matrix(14,0,0,14,431.2,210.5)" />
<use xlink:href="#f6_bz" transform="matrix(14,0,0,14,438.2,209.7)" />
<use xlink:href="#f6_oz" transform="matrix(14,0,0,14,451.7,209.7)" />
<use xlink:href="#f6_k" transform="matrix(14,0,0,14,451.5,209.7)" />
<use xlink:href="#f6_by" transform="matrix(14,0,0,14,125.2,242.9)" />
<use xlink:href="#f6_d5" transform="matrix(14,0,0,14,139.3,242.9)" />
<use xlink:href="#f6_n0" transform="matrix(14,0,0,14,139.2,242.9)" />
<use xlink:href="#f6_bg" transform="matrix(14,0,0,14,152.3,242.9)" />
<use xlink:href="#f6_cv" transform="matrix(14,0,0,14,166.6,242.9)" />
<use xlink:href="#f6_c7" transform="matrix(14,0,0,14,177.9,242.9)" />
<use xlink:href="#f6_d4" transform="matrix(14,0,0,14,190.1,242.9)" />
<use xlink:href="#f6_bb" transform="matrix(14,0,0,14,189.9,242.9)" />
<use xlink:href="#f6_ct" transform="matrix(14,0,0,14,202.5,242.9)" />
<use xlink:href="#f6_bx" transform="matrix(14,0,0,14,213.8,242.9)" />
<use xlink:href="#f6_cw" transform="matrix(14,0,0,14,226.7,242.8)" />
<use xlink:href="#f6_c3" transform="matrix(14,0,0,14,226.1,242.9)" />
<use xlink:href="#f6_ct" transform="matrix(14,0,0,14,240.8,242.9)" />
<use xlink:href="#f6_ao" transform="matrix(14,0,0,14,246.5,242.9)" />
<use xlink:href="#f6_bg" transform="matrix(14,0,0,14,258,242.9)" />
<use xlink:href="#f6_d8" transform="matrix(14,0,0,14,272.2,242.9)" />
<use xlink:href="#f6_c1" transform="matrix(14,0,0,14,283.5,242.9)" />
<use xlink:href="#f6_d4" transform="matrix(14,0,0,14,291.5,242.9)" />
<use xlink:href="#f6_cr" transform="matrix(14,0,0,14,291.9,242.9)" />
<use xlink:href="#f6_cr" transform="matrix(14,0,0,14,304.7,242.9)" />
<use xlink:href="#f6_cr" transform="matrix(14,0,0,14,317.5,242.9)" />
<use xlink:href="#f6_k" transform="matrix(14,0,0,14,330.4,242.9)" />
<use xlink:href="#f6_bz" transform="matrix(14,0,0,14,341.2,242.9)" />
<use xlink:href="#f6_d8" transform="matrix(14,0,0,14,354.6,242.9)" />
<use xlink:href="#f6_c1" transform="matrix(14,0,0,14,360.2,242.9)" />
<use xlink:href="#f6_bx" transform="matrix(14,0,0,14,374.2,242.9)" />
<use xlink:href="#f6_d8" transform="matrix(14,0,0,14,386.5,242.9)" />
<use xlink:href="#f6_c3" transform="matrix(14,0,0,14,392.2,242.9)" />
<use xlink:href="#f6_d4" transform="matrix(14,0,0,14,407,242.9)" />
<use xlink:href="#f6_c1" transform="matrix(14,0,0,14,412.5,242.9)" />
<use xlink:href="#f6_d4" transform="matrix(14,0,0,14,420.5,242.9)" />
<use xlink:href="#f6_b9" transform="matrix(14,0,0,14,426.6,242.9)" />
<use xlink:href="#f6_d4" transform="matrix(14,0,0,14,437.7,242.9)" />
<use xlink:href="#f6_by" transform="matrix(14,0,0,14,447.7,242.9)" />
<use xlink:href="#f6_d5" transform="matrix(14,0,0,14,461.8,242.9)" />
<use xlink:href="#f6_n0" transform="matrix(14,0,0,14,461.7,242.9)" />
<use xlink:href="#f6_bg" transform="matrix(14,0,0,14,474.8,242.9)" />
<use xlink:href="#f6_cv" transform="matrix(14,0,0,14,489.1,242.9)" />
<use xlink:href="#f6_cu" transform="matrix(14,0,0,14,132.1,309.4)" />
<use xlink:href="#f6_b9" transform="matrix(14,0,0,14,137.7,309.4)" />
<use xlink:href="#f6_b9" transform="matrix(14,0,0,14,153.2,309.4)" />
<use xlink:href="#f6_bo" transform="matrix(14,0,0,14,168.7,309.4)" />
<use xlink:href="#f6_am" transform="matrix(14,0,0,14,188.7,309.4)" />
<use xlink:href="#f6_aq" transform="matrix(14,0,0,14,210.2,309.4)" />
<use xlink:href="#f6_b1" transform="matrix(14,0,0,14,231.6,309.4)" />
<use xlink:href="#f6_by" transform="matrix(14,0,0,14,258.7,309.4)" />
<use xlink:href="#f6_d5" transform="matrix(14,0,0,14,272.8,309.4)" />
<use xlink:href="#f6_n0" transform="matrix(14,0,0,14,272.7,309.4)" />
<use xlink:href="#f6_bg" transform="matrix(14,0,0,14,285.8,309.4)" />
<use xlink:href="#f6_cv" transform="matrix(14,0,0,14,300.1,309.4)" />
<use xlink:href="#f6_bq" transform="matrix(14,0,0,14,311.4,309.4)" />
<use xlink:href="#f6_d8" transform="matrix(14,0,0,14,324.6,309.4)" />
<use xlink:href="#f6_c1" transform="matrix(14,0,0,14,330.2,309.4)" />
<use xlink:href="#f6_ct" transform="matrix(14,0,0,14,338.6,309.4)" />
<use xlink:href="#f6_c1" transform="matrix(14,0,0,14,349.9,309.4)" />
<use xlink:href="#f6_d4" transform="matrix(14,0,0,14,357.8,309.4)" />
<use xlink:href="#f6_am" transform="matrix(14,0,0,14,363.9,309.4)" />
<use xlink:href="#f6_di" transform="matrix(14,0,0,14,383.2,309.8)" />
<use xlink:href="#f6_bb" transform="matrix(14,0,0,14,385.4,309.4)" />
<use xlink:href="#f6_nu" transform="matrix(14,0,0,14,398,309.4)" />
<use xlink:href="#f6_bo" transform="matrix(14,0,0,14,403.6,309.4)" />
<use xlink:href="#f6_c0" transform="matrix(14,0,0,14,418,309.4)" />
<use xlink:href="#f6_d4" transform="matrix(14,0,0,14,430.7,309.4)" />
<use xlink:href="#f6_by" transform="matrix(14,0,0,14,436.2,309.4)" />
<use xlink:href="#f6_d5" transform="matrix(14,0,0,14,450.3,309.4)" />
<use xlink:href="#f6_n0" transform="matrix(14,0,0,14,450.2,309.4)" />
<use xlink:href="#f6_bg" transform="matrix(14,0,0,14,463.3,309.4)" />
<use xlink:href="#f6_cv" transform="matrix(14,0,0,14,477.6,309.4)" />
<use xlink:href="#f6_k" transform="matrix(14,0,0,14,483.2,309.4)" />
<use xlink:href="#f6_cu" transform="matrix(14,0,0,14,230.6,342.6)" />
<use xlink:href="#f6_b9" transform="matrix(14,0,0,14,236.2,342.6)" />
<use xlink:href="#f6_b9" transform="matrix(14,0,0,14,251.7,342.6)" />
<use xlink:href="#f6_bo" transform="matrix(14,0,0,14,267.2,342.6)" />
<use xlink:href="#f6_am" transform="matrix(14,0,0,14,287.3,342.6)" />
<use xlink:href="#f6_aq" transform="matrix(14,0,0,14,308.7,342.6)" />
<use xlink:href="#f6_di" transform="matrix(14,0,0,14,319.7,343)" />
<use xlink:href="#f6_b1" transform="matrix(14,0,0,14,330.1,342.6)" />
<use xlink:href="#f6_cr" transform="matrix(14,0,0,14,351.6,342.6)" />
<use xlink:href="#f6_cr" transform="matrix(14,0,0,14,364.4,342.6)" />
<use xlink:href="#f6_cr" transform="matrix(14,0,0,14,377.3,342.6)" />
<use xlink:href="#f6_n4" transform="matrix(14,0,0,14,128.6,375.8)" />
<use xlink:href="#f6_l1" transform="matrix(14,0,0,14,140.2,375.8)" />
<use xlink:href="#f6_b9" transform="matrix(14,0,0,14,152.8,375.8)" />
<use xlink:href="#f6_ct" transform="matrix(14,0,0,14,168.2,375.8)" />
<use xlink:href="#f6_bz" transform="matrix(14,0,0,14,173.9,375.8)" />
<use xlink:href="#f6_b9" transform="matrix(14,0,0,14,192.9,375.8)" />
<use xlink:href="#f6_c1" transform="matrix(14,0,0,14,208.4,375.8)" />
<use xlink:href="#f6_ct" transform="matrix(14,0,0,14,216.8,375.8)" />
<use xlink:href="#f6_ao" transform="matrix(14,0,0,14,222.4,375.8)" />
<use xlink:href="#f6_bg" transform="matrix(14,0,0,14,233.9,375.8)" />
<use xlink:href="#f6_cv" transform="matrix(14,0,0,14,248.1,375.8)" />
<use xlink:href="#f6_b1" transform="matrix(14,0,0,14,259.4,375.8)" />
<use xlink:href="#f6_b9" transform="matrix(14,0,0,14,286.6,375.8)" />
<use xlink:href="#f6_d4" transform="matrix(14,0,0,14,297.7,375.8)" />
<use xlink:href="#f6_by" transform="matrix(14,0,0,14,307.7,375.8)" />
<use xlink:href="#f6_d5" transform="matrix(14,0,0,14,321.8,375.8)" />
<use xlink:href="#f6_n0" transform="matrix(14,0,0,14,321.7,375.8)" />
<use xlink:href="#f6_bg" transform="matrix(14,0,0,14,334.8,375.8)" />
<use xlink:href="#f6_cv" transform="matrix(14,0,0,14,349.1,375.8)" />
<use xlink:href="#f6_bt" transform="matrix(14,0,0,14,360.4,375.8)" />
<use xlink:href="#f6_ct" transform="matrix(14,0,0,14,372.1,375.8)" />
<use xlink:href="#f6_b9" transform="matrix(14,0,0,14,377.7,375.8)" />
<use xlink:href="#f6_d8" transform="matrix(14,0,0,14,393.2,375.8)" />
<use xlink:href="#f6_ch" transform="matrix(14,0,0,14,398.8,375.8)" />
<use xlink:href="#f6_ct" transform="matrix(14,0,0,14,411.5,375.8)" />
<use xlink:href="#f6_am" transform="matrix(14,0,0,14,422.8,375.8)" />
<use xlink:href="#f6_c7" transform="matrix(14,0,0,14,444.3,375.8)" />
<use xlink:href="#f6_bt" transform="matrix(14,0,0,14,456.4,375.8)" />
<use xlink:href="#f6_c1" transform="matrix(14,0,0,14,473.7,375.8)" />
<use xlink:href="#f6_d8" transform="matrix(14,0,0,14,482.1,375.8)" />
<use xlink:href="#f6_k" transform="matrix(14,0,0,14,487.7,375.8)" />
<use xlink:href="#f6_by" transform="matrix(14,0,0,14,104.6,409.1)" />
<use xlink:href="#f6_d5" transform="matrix(14,0,0,14,118.7,409.1)" />
<use xlink:href="#f6_n0" transform="matrix(14,0,0,14,118.5,409.1)" />
<use xlink:href="#f6_bg" transform="matrix(14,0,0,14,131.7,409.1)" />
<use xlink:href="#f6_cv" transform="matrix(14,0,0,14,145.9,409.1)" />
<use xlink:href="#f6_n4" transform="matrix(14,0,0,14,157.2,409.1)" />
<use xlink:href="#f6_l1" transform="matrix(14,0,0,14,168.8,409.1)" />
<use xlink:href="#f6_b9" transform="matrix(14,0,0,14,181.3,409.1)" />
<use xlink:href="#f6_bz" transform="matrix(14,0,0,14,196.8,409.1)" />
<use xlink:href="#f6_b9" transform="matrix(14,0,0,14,215.8,409.1)" />
<use xlink:href="#f6_c1" transform="matrix(14,0,0,14,231.3,409.1)" />
<use xlink:href="#f6_ct" transform="matrix(14,0,0,14,239.7,409.1)" />
<use xlink:href="#f6_ao" transform="matrix(14,0,0,14,245.3,409.1)" />
<use xlink:href="#f6_bg" transform="matrix(14,0,0,14,256.8,409.1)" />
<use xlink:href="#f6_d8" transform="matrix(14,0,0,14,271.1,409.1)" />
<use xlink:href="#f6_b1" transform="matrix(14,0,0,14,282.4,409.1)" />
<use xlink:href="#f6_cr" transform="matrix(14,0,0,14,303.9,409.1)" />
<use xlink:href="#f6_cr" transform="matrix(14,0,0,14,316.7,409.1)" />
<use xlink:href="#f6_cr" transform="matrix(14,0,0,14,329.5,409.1)" />
<use xlink:href="#f6_k" transform="matrix(14,0,0,14,342.4,409.1)" />
<use xlink:href="#f6_bz" transform="matrix(14,0,0,14,353.2,409.1)" />
<use xlink:href="#f6_d8" transform="matrix(14,0,0,14,366.6,409.1)" />
<use xlink:href="#f6_c1" transform="matrix(14,0,0,14,372.2,409.1)" />
<use xlink:href="#f6_bx" transform="matrix(14,0,0,14,386.2,409.1)" />
<use xlink:href="#f6_d8" transform="matrix(14,0,0,14,398.5,409.1)" />
<use xlink:href="#f6_c3" transform="matrix(14,0,0,14,404.2,409.1)" />
<use xlink:href="#f6_d4" transform="matrix(14,0,0,14,419,409.1)" />
<use xlink:href="#f6_b9" transform="matrix(14,0,0,14,430.2,409.1)" />
<use xlink:href="#f6_d4" transform="matrix(14,0,0,14,441.3,409.1)" />
<use xlink:href="#f6_by" transform="matrix(14,0,0,14,451.4,409.1)" />
<use xlink:href="#f6_d5" transform="matrix(14,0,0,14,465.4,409.1)" />
<use xlink:href="#f6_n0" transform="matrix(14,0,0,14,465.3,409.1)" />
<use xlink:href="#f6_bg" transform="matrix(14,0,0,14,478.5,409.1)" />
<use xlink:href="#f6_cv" transform="matrix(14,0,0,14,492.7,409.1)" />
<use xlink:href="#f6_pc" transform="matrix(14,0,0,14,498.3,409.1)" />
<use xlink:href="#f6_pc" transform="matrix(14,0,0,14,502.6,409.1)" />
<use xlink:href="#f6_pc" transform="matrix(14,0,0,14,506.9,409.1)" />
<use xlink:href="#f6_pc" transform="matrix(14,0,0,14,511.2,409.1)" />
<use xlink:href="#f6_bz" transform="matrix(14,0,0,14,132.1,467.5)" />
<use xlink:href="#f6_d4" transform="matrix(14,0,0,14,145.5,467.5)" />
<use xlink:href="#f6_c3" transform="matrix(14,0,0,14,145.4,467.5)" />
<use xlink:href="#f6_d8" transform="matrix(14,0,0,14,160.1,467.5)" />
<use xlink:href="#f6_by" transform="matrix(14,0,0,14,171.4,467.5)" />
<use xlink:href="#f6_c1" transform="matrix(14,0,0,14,185.4,467.5)" />
<use xlink:href="#f6_cv" transform="matrix(14,0,0,14,193.7,467.5)" />
<use xlink:href="#f6_bg" transform="matrix(14,0,0,14,199.4,467.5)" />
<use xlink:href="#f6_d4" transform="matrix(14,0,0,14,213.8,467.5)" />
<use xlink:href="#f6_b1" transform="matrix(14,0,0,14,219.3,467.5)" />
<use xlink:href="#f6_by" transform="matrix(14,0,0,14,246.4,467.5)" />
<use xlink:href="#f6_d5" transform="matrix(14,0,0,14,260.5,467.5)" />
<use xlink:href="#f6_n0" transform="matrix(14,0,0,14,260.4,467.5)" />
<use xlink:href="#f6_bg" transform="matrix(14,0,0,14,273.5,467.5)" />
<use xlink:href="#f6_cv" transform="matrix(14,0,0,14,287.8,467.5)" />
<use xlink:href="#f6_bv" transform="matrix(14,0,0,14,299.1,467.5)" />
<use xlink:href="#f6_d8" transform="matrix(14,0,0,14,311,467.5)" />
<use xlink:href="#f6_ca" transform="matrix(14,0,0,14,316.6,467.5)" />
<use xlink:href="#f6_c7" transform="matrix(14,0,0,14,334.5,467.5)" />
<use xlink:href="#f6_cu" transform="matrix(14,0,0,14,346.6,467.5)" />
<use xlink:href="#f6_br" transform="matrix(14,0,0,14,352.2,467.5)" />
<use xlink:href="#f6_br" transform="matrix(14,0,0,14,369.6,467.5)" />
<use xlink:href="#f6_c8" transform="matrix(14,0,0,14,381.2,467.5)" />
<use xlink:href="#f6_bz" transform="matrix(14,0,0,14,397.1,467.5)" />
<use xlink:href="#f6_c1" transform="matrix(14,0,0,14,416.1,467.5)" />
<use xlink:href="#f6_d8" transform="matrix(14,0,0,14,424.5,467.5)" />
<use xlink:href="#f6_by" transform="matrix(14,0,0,14,435.8,467.5)" />
<use xlink:href="#f6_d5" transform="matrix(14,0,0,14,449.9,467.5)" />
<use xlink:href="#f6_n0" transform="matrix(14,0,0,14,449.7,467.5)" />
<use xlink:href="#f6_bg" transform="matrix(14,0,0,14,462.9,467.5)" />
<use xlink:href="#f6_cv" transform="matrix(14,0,0,14,477.1,467.5)" />
<use xlink:href="#f6_k" transform="matrix(14,0,0,14,482.8,467.5)" />
<use xlink:href="#f6_bz" transform="matrix(14,0,0,14,237.5,500.7)" />
<use xlink:href="#f6_d4" transform="matrix(14,0,0,14,251,500.7)" />
<use xlink:href="#f6_c3" transform="matrix(14,0,0,14,250.8,500.7)" />
<use xlink:href="#f6_d8" transform="matrix(14,0,0,14,265.5,500.7)" />
<use xlink:href="#f6_by" transform="matrix(14,0,0,14,276.8,500.7)" />
<use xlink:href="#f6_c1" transform="matrix(14,0,0,14,290.8,500.7)" />
<use xlink:href="#f6_cv" transform="matrix(14,0,0,14,299.2,500.7)" />
<use xlink:href="#f6_bg" transform="matrix(14,0,0,14,304.8,500.7)" />
<use xlink:href="#f6_d4" transform="matrix(14,0,0,14,319.2,500.7)" />
<use xlink:href="#f6_b1" transform="matrix(14,0,0,14,324.7,500.7)" />
<use xlink:href="#f6_cr" transform="matrix(14,0,0,14,346.2,500.7)" />
<use xlink:href="#f6_cr" transform="matrix(14,0,0,14,359,500.7)" />
<use xlink:href="#f6_cr" transform="matrix(14,0,0,14,371.8,500.7)" />
<use xlink:href="#f6_c7" transform="matrix(14,0,0,14,150.4,534)" />
<use xlink:href="#f6_d4" transform="matrix(14,0,0,14,162.6,534)" />
<use xlink:href="#f6_bb" transform="matrix(14,0,0,14,162.5,534)" />
<use xlink:href="#f6_ct" transform="matrix(14,0,0,14,175.1,534)" />
<use xlink:href="#f6_bx" transform="matrix(14,0,0,14,186.4,534)" />
<use xlink:href="#f6_cw" transform="matrix(14,0,0,14,199.2,533.9)" />
<use xlink:href="#f6_c3" transform="matrix(14,0,0,14,198.7,534)" />
<use xlink:href="#f6_ct" transform="matrix(14,0,0,14,213.4,534)" />
<use xlink:href="#f6_ao" transform="matrix(14,0,0,14,219,534)" />
<use xlink:href="#f6_bg" transform="matrix(14,0,0,14,230.5,534)" />
<use xlink:href="#f6_d8" transform="matrix(14,0,0,14,244.8,534)" />
<use xlink:href="#f6_b1" transform="matrix(14,0,0,14,256.1,534)" />
<use xlink:href="#f6_by" transform="matrix(14,0,0,14,283.2,534)" />
<use xlink:href="#f6_d5" transform="matrix(14,0,0,14,297.3,534)" />
<use xlink:href="#f6_n0" transform="matrix(14,0,0,14,297.2,534)" />
<use xlink:href="#f6_bg" transform="matrix(14,0,0,14,310.3,534)" />
<use xlink:href="#f6_cv" transform="matrix(14,0,0,14,324.6,534)" />
<use xlink:href="#f6_bz" transform="matrix(14,0,0,14,335.9,534)" />
<use xlink:href="#f6_d4" transform="matrix(14,0,0,14,349.3,534)" />
<use xlink:href="#f6_c3" transform="matrix(14,0,0,14,349.2,534)" />
<use xlink:href="#f6_ct" transform="matrix(14,0,0,14,363.9,534)" />
<use xlink:href="#f6_b9" transform="matrix(14,0,0,14,375.2,534)" />
<use xlink:href="#f6_d4" transform="matrix(14,0,0,14,386.3,534)" />
<use xlink:href="#f6_al" transform="matrix(14,0,0,14,396.4,534)" />
<use xlink:href="#f6_c7" transform="matrix(14,0,0,14,412.2,534)" />
<use xlink:href="#f6_cb" transform="matrix(14,0,0,14,424.3,534)" />
<use xlink:href="#f6_c1" transform="matrix(14,0,0,14,439.2,534)" />
<use xlink:href="#f6_cv" transform="matrix(14,0,0,14,447.5,534)" />
<use xlink:href="#f6_c0" transform="matrix(14,0,0,14,453.2,534)" />
<use xlink:href="#f6_d4" transform="matrix(14,0,0,14,465.8,534)" />
<use xlink:href="#f6_k" transform="matrix(14,0,0,14,465.7,534)" />
<use xlink:href="#f6_by" transform="matrix(14,0,0,14,110.3,567.2)" />
<use xlink:href="#f6_d5" transform="matrix(14,0,0,14,124.4,567.2)" />
<use xlink:href="#f6_n0" transform="matrix(14,0,0,14,124.3,567.2)" />
<use xlink:href="#f6_bg" transform="matrix(14,0,0,14,137.4,567.2)" />
<use xlink:href="#f6_cv" transform="matrix(14,0,0,14,151.7,567.2)" />
<use xlink:href="#f6_c7" transform="matrix(14,0,0,14,163,567.2)" />
<use xlink:href="#f6_d4" transform="matrix(14,0,0,14,175.2,567.2)" />
<use xlink:href="#f6_bb" transform="matrix(14,0,0,14,175,567.2)" />
<use xlink:href="#f6_ct" transform="matrix(14,0,0,14,187.6,567.2)" />
<use xlink:href="#f6_bx" transform="matrix(14,0,0,14,198.9,567.2)" />
<use xlink:href="#f6_cw" transform="matrix(14,0,0,14,211.8,567.1)" />
<use xlink:href="#f6_c3" transform="matrix(14,0,0,14,211.2,567.2)" />
<use xlink:href="#f6_ct" transform="matrix(14,0,0,14,225.9,567.2)" />
<use xlink:href="#f6_ao" transform="matrix(14,0,0,14,231.6,567.2)" />
<use xlink:href="#f6_bg" transform="matrix(14,0,0,14,243.1,567.2)" />
<use xlink:href="#f6_d8" transform="matrix(14,0,0,14,257.3,567.2)" />
<use xlink:href="#f6_b1" transform="matrix(14,0,0,14,268.6,567.2)" />
<use xlink:href="#f6_cr" transform="matrix(14,0,0,14,290.1,567.2)" />
<use xlink:href="#f6_cr" transform="matrix(14,0,0,14,302.9,567.2)" />
<use xlink:href="#f6_cr" transform="matrix(14,0,0,14,315.7,567.2)" />
<use xlink:href="#f6_k" transform="matrix(14,0,0,14,328.6,567.2)" />
<use xlink:href="#f6_bz" transform="matrix(14,0,0,14,339.4,567.2)" />
<use xlink:href="#f6_d8" transform="matrix(14,0,0,14,352.8,567.2)" />
<use xlink:href="#f6_c1" transform="matrix(14,0,0,14,358.4,567.2)" />
<use xlink:href="#f6_bx" transform="matrix(14,0,0,14,372.5,567.2)" />
<use xlink:href="#f6_d8" transform="matrix(14,0,0,14,384.7,567.2)" />
<use xlink:href="#f6_c3" transform="matrix(14,0,0,14,390.4,567.2)" />
<use xlink:href="#f6_d4" transform="matrix(14,0,0,14,405.2,567.2)" />
<use xlink:href="#f6_c1" transform="matrix(14,0,0,14,410.7,567.2)" />
<use xlink:href="#f6_d4" transform="matrix(14,0,0,14,418.7,567.2)" />
<use xlink:href="#f6_b9" transform="matrix(14,0,0,14,424.8,567.2)" />
<use xlink:href="#f6_d4" transform="matrix(14,0,0,14,435.9,567.2)" />
<use xlink:href="#f6_by" transform="matrix(14,0,0,14,445.9,567.2)" />
<use xlink:href="#f6_d5" transform="matrix(14,0,0,14,460,567.2)" />
<use xlink:href="#f6_n0" transform="matrix(14,0,0,14,459.9,567.2)" />
<use xlink:href="#f6_bg" transform="matrix(14,0,0,14,473.1,567.2)" />
<use xlink:href="#f6_cv" transform="matrix(14,0,0,14,487.3,567.2)" />
<use xlink:href="#f6_pc" transform="matrix(14,0,0,14,492.9,567.2)" />
<use xlink:href="#f6_pc" transform="matrix(14,0,0,14,497.2,567.2)" />
<use xlink:href="#f6_pc" transform="matrix(14,0,0,14,501.5,567.2)" />
<use xlink:href="#f6_pc" transform="matrix(14,0,0,14,505.8,567.2)" />
<use xlink:href="#f6_bn" transform="matrix(14,0,0,14,149.3,625.6)" />
<use xlink:href="#f6_d8" transform="matrix(14,0,0,14,161.2,625.6)" />
<use xlink:href="#f6_c3" transform="matrix(14,0,0,14,166.8,625.6)" />
<use xlink:href="#f6_c7" transform="matrix(14,0,0,14,187.2,625.6)" />
<use xlink:href="#f6_ct" transform="matrix(14,0,0,14,199.3,625.6)" />
<use xlink:href="#f6_bg" transform="matrix(14,0,0,14,204.9,625.6)" />
<use xlink:href="#f6_d4" transform="matrix(14,0,0,14,219.3,625.6)" />
<use xlink:href="#f6_b1" transform="matrix(14,0,0,14,224.8,625.6)" />
<use xlink:href="#f6_by" transform="matrix(14,0,0,14,252,625.6)" />
<use xlink:href="#f6_d5" transform="matrix(14,0,0,14,266,625.6)" />
<use xlink:href="#f6_n0" transform="matrix(14,0,0,14,265.9,625.6)" />
<use xlink:href="#f6_bg" transform="matrix(14,0,0,14,279.1,625.6)" />
<use xlink:href="#f6_cv" transform="matrix(14,0,0,14,293.3,625.6)" />
<use xlink:href="#f6_bt" transform="matrix(14,0,0,14,304.6,625.6)" />
<use xlink:href="#f6_ct" transform="matrix(14,0,0,14,316.3,625.6)" />
<use xlink:href="#f6_b9" transform="matrix(14,0,0,14,321.9,625.6)" />
<use xlink:href="#f6_d8" transform="matrix(14,0,0,14,337.4,625.6)" />
<use xlink:href="#f6_ch" transform="matrix(14,0,0,14,343.1,625.6)" />
<use xlink:href="#f6_ct" transform="matrix(14,0,0,14,355.7,625.6)" />
<use xlink:href="#f6_br" transform="matrix(14,0,0,14,367,625.6)" />
<use xlink:href="#f6_c1" transform="matrix(14,0,0,14,378.7,625.6)" />
<use xlink:href="#f6_bx" transform="matrix(14,0,0,14,387.1,625.6)" />
<use xlink:href="#f6_ct" transform="matrix(14,0,0,14,399.4,625.6)" />
<use xlink:href="#f6_c1" transform="matrix(14,0,0,14,405,625.6)" />
<use xlink:href="#f6_d4" transform="matrix(14,0,0,14,413,625.6)" />
<use xlink:href="#f6_by" transform="matrix(14,0,0,14,419,625.6)" />
<use xlink:href="#f6_d5" transform="matrix(14,0,0,14,433.1,625.6)" />
<use xlink:href="#f6_n0" transform="matrix(14,0,0,14,433,625.6)" />
<use xlink:href="#f6_bg" transform="matrix(14,0,0,14,446.1,625.6)" />
<use xlink:href="#f6_cv" transform="matrix(14,0,0,14,460.4,625.6)" />
<use xlink:href="#f6_k" transform="matrix(14,0,0,14,466,625.6)" />
<use xlink:href="#f6_bn" transform="matrix(14,0,0,14,243.2,658.9)" />
<use xlink:href="#f6_d8" transform="matrix(14,0,0,14,255.1,658.9)" />
<use xlink:href="#f6_c3" transform="matrix(14,0,0,14,260.8,658.9)" />
<use xlink:href="#f6_c7" transform="matrix(14,0,0,14,281.1,658.9)" />
<use xlink:href="#f6_ct" transform="matrix(14,0,0,14,293.2,658.9)" />
<use xlink:href="#f6_bg" transform="matrix(14,0,0,14,298.8,658.9)" />
<use xlink:href="#f6_d4" transform="matrix(14,0,0,14,313.2,658.9)" />
<use xlink:href="#f6_b1" transform="matrix(14,0,0,14,318.8,658.9)" />
<use xlink:href="#f6_cr" transform="matrix(14,0,0,14,340.3,658.9)" />
<use xlink:href="#f6_cr" transform="matrix(14,0,0,14,353.1,658.9)" />
<use xlink:href="#f6_cr" transform="matrix(14,0,0,14,365.9,658.9)" />
<use xlink:href="#f6_bc" transform="matrix(14,0,0,14,150.4,692.1)" />
<use xlink:href="#f6_cw" transform="matrix(14,0,0,14,164.8,692)" />
<use xlink:href="#f6_bz" transform="matrix(14,0,0,14,164.3,692.1)" />
<use xlink:href="#f6_c1" transform="matrix(14,0,0,14,177.6,692.1)" />
<use xlink:href="#f6_bt" transform="matrix(14,0,0,14,191.7,692.1)" />
<use xlink:href="#f6_ct" transform="matrix(14,0,0,14,203.4,692.1)" />
<use xlink:href="#f6_be" transform="matrix(14,0,0,14,209,692.1)" />
<use xlink:href="#f6_cw" transform="matrix(14,0,0,14,223.5,692)" />
<use xlink:href="#f6_b1" transform="matrix(14,0,0,14,228.7,692.1)" />
<use xlink:href="#f6_by" transform="matrix(14,0,0,14,255.8,692.1)" />
<use xlink:href="#f6_d5" transform="matrix(14,0,0,14,269.9,692.1)" />
<use xlink:href="#f6_n0" transform="matrix(14,0,0,14,269.8,692.1)" />
<use xlink:href="#f6_bg" transform="matrix(14,0,0,14,282.9,692.1)" />
<use xlink:href="#f6_cv" transform="matrix(14,0,0,14,297.2,692.1)" />
<use xlink:href="#f6_bn" transform="matrix(14,0,0,14,308.5,692.1)" />
<use xlink:href="#f6_d8" transform="matrix(14,0,0,14,320.4,692.1)" />
<use xlink:href="#f6_c3" transform="matrix(14,0,0,14,326,692.1)" />
<use xlink:href="#f6_ct" transform="matrix(14,0,0,14,340.7,692.1)" />
<use xlink:href="#f6_c1" transform="matrix(14,0,0,14,352,692.1)" />
<use xlink:href="#f6_d4" transform="matrix(14,0,0,14,360,692.1)" />
<use xlink:href="#f6_bs" transform="matrix(14,0,0,14,366.1,692.1)" />
<use xlink:href="#f6_bz" transform="matrix(14,0,0,14,380.1,692.1)" />
<use xlink:href="#f6_ct" transform="matrix(14,0,0,14,393.4,692.1)" />
<use xlink:href="#f6_ch" transform="matrix(14,0,0,14,399,692.1)" />
<use xlink:href="#f6_d4" transform="matrix(14,0,0,14,411.6,692.1)" />
<use xlink:href="#f6_by" transform="matrix(14,0,0,14,417.4,692.1)" />
<use xlink:href="#f6_d5" transform="matrix(14,0,0,14,431.5,692.1)" />
<use xlink:href="#f6_n0" transform="matrix(14,0,0,14,431.3,692.1)" />
<use xlink:href="#f6_bg" transform="matrix(14,0,0,14,444.5,692.1)" />
<use xlink:href="#f6_cv" transform="matrix(14,0,0,14,458.7,692.1)" />
<use xlink:href="#f6_k" transform="matrix(14,0,0,14,464.4,692.1)" />
<use xlink:href="#f6_bc" transform="matrix(14,0,0,14,152.7,725.3)" />
<use xlink:href="#f6_cw" transform="matrix(14,0,0,14,167.1,725.2)" />
<use xlink:href="#f6_bz" transform="matrix(14,0,0,14,166.6,725.3)" />
<use xlink:href="#f6_c1" transform="matrix(14,0,0,14,179.9,725.3)" />
<use xlink:href="#f6_bt" transform="matrix(14,0,0,14,194,725.3)" />
<use xlink:href="#f6_ct" transform="matrix(14,0,0,14,205.7,725.3)" />
<use xlink:href="#f6_be" transform="matrix(14,0,0,14,211.3,725.3)" />
<use xlink:href="#f6_cw" transform="matrix(14,0,0,14,225.8,725.2)" />
<use xlink:href="#f6_b1" transform="matrix(14,0,0,14,231,725.3)" />
<use xlink:href="#f6_cr" transform="matrix(14,0,0,14,252.4,725.3)" />
<use xlink:href="#f6_cr" transform="matrix(14,0,0,14,265.3,725.3)" />
<use xlink:href="#f6_2j" transform="matrix(14,0,0,14,278.1,725.3)" />
<use xlink:href="#f6_k" transform="matrix(14,0,0,14,287.1,725.3)" />
<use xlink:href="#f6_bz" transform="matrix(14,0,0,14,297.9,725.3)" />
<use xlink:href="#f6_d8" transform="matrix(14,0,0,14,311.3,725.3)" />
<use xlink:href="#f6_c1" transform="matrix(14,0,0,14,316.9,725.3)" />
<use xlink:href="#f6_bx" transform="matrix(14,0,0,14,330.9,725.3)" />
<use xlink:href="#f6_d8" transform="matrix(14,0,0,14,343.2,725.3)" />
<use xlink:href="#f6_c3" transform="matrix(14,0,0,14,348.9,725.3)" />
<use xlink:href="#f6_d4" transform="matrix(14,0,0,14,363.7,725.3)" />
<use xlink:href="#f6_c1" transform="matrix(14,0,0,14,369.2,725.3)" />
<use xlink:href="#f6_d4" transform="matrix(14,0,0,14,377.2,725.3)" />
<use xlink:href="#f6_b9" transform="matrix(14,0,0,14,383.3,725.3)" />
<use xlink:href="#f6_d4" transform="matrix(14,0,0,14,394.4,725.3)" />
<use xlink:href="#f6_by" transform="matrix(14,0,0,14,404.4,725.3)" />
<use xlink:href="#f6_d5" transform="matrix(14,0,0,14,418.5,725.3)" />
<use xlink:href="#f6_n0" transform="matrix(14,0,0,14,418.4,725.3)" />
<use xlink:href="#f6_bg" transform="matrix(14,0,0,14,431.5,725.3)" />
<use xlink:href="#f6_cv" transform="matrix(14,0,0,14,445.8,725.3)" />
<use xlink:href="#f6_pc" transform="matrix(14,0,0,14,451.4,725.3)" />
<use xlink:href="#f6_pc" transform="matrix(14,0,0,14,455.7,725.3)" />
<use xlink:href="#f6_pc" transform="matrix(14,0,0,14,460,725.3)" />
<use xlink:href="#f6_pc" transform="matrix(14,0,0,14,464.2,725.3)" />
<use xlink:href="#f7_4r" transform="matrix(9,0,0,9,290.2,795.2)" />
<use xlink:href="#f8_r" transform="matrix(9,0,0,9,303,795.2)" />
<use xlink:href="#f8_n" transform="matrix(9,0,0,9,310.7,795.2)" />
<use xlink:href="#f7_4r" transform="matrix(9,0,0,9,321.3,795.2)" />
</g>
</g>
<image preserveAspectRatio="none" x="22" y="801" width="581" height="86" xlink:href="img/1.png"/>
<path d="M229.2,111.1H393v1.2H229.2v-1.2Z" class="g1_79"/>
<image preserveAspectRatio="none" x="202" y="14" width="217" height="26" xlink:href="img/2.png"/>
<defs>
<path d="M686,512V822H333L435,749l2,-237ZM860,-65L686,29V298H440V168L348,118c0,0,-90,30,-190,128c0,0,-100,98,-127,183l52,83H203L189,822H0L-86,937l32,64H1045l86,-115l-33,-64H828L930,749V-31L860,-65Z"
id="f5_bz"
transform="scale(0.001,-0.001)"/>

<path d="M277,-65L102,29V822H0L-86,937l32,64H86L18,1111c0,0,-67,122,-168,122c0,0,-81,0,-202,-80l-128,250c0,0,122,77,232,77c0,0,196,0,356,-250L252,1001H463L548,886L516,822H244L347,749V-31L277,-65Z"
id="f5_d8"
transform="scale(0.001,-0.001)"/>

<path d="M545,-97L35,405L87,542H295c0,0,1,5,1,280H0L-86,937l32,64H729L814,886L782,822H445L550,749V547c0,0,0,-75,-41,-127c0,0,-41,-52,-129,-111L709,110V41L545,-97Z"
id="f5_c1"
transform="scale(0.001,-0.001)"/>

<path d="M393,278c0,0,45,0,93,17L336,515c0,0,-56,-51,-56,-124c0,0,0,-53,32,-98c0,0,38,-15,81,-15Zm178,61c0,0,34,29,52,57V510c0,0,-85,46,-162,46l-32,-1L571,339ZM798,-65L623,29v95c0,0,-55,-25,-123,-25c0,0,-100,0,-209,51c0,0,-109,50,-183,137c0,0,-73,87,-73,191c0,0,0,115,85,194c0,0,85,80,212,80c0,0,41,0,84,-9L623,643V822H0L-86,937l32,64H982l86,-115l-32,-64H765L868,749V-31L798,-65Z"
id="f5_bx"
transform="scale(0.001,-0.001)"/>

<path d="M472,-77C472,-77,28,171,28,448c0,0,0,116,77,191c0,0,77,74,188,74c0,0,51,0,95,-18L527,574c0,0,104,114,277,117V822H0L-86,937l32,64H1164l86,-115l-32,-64H946l102,-73V-31L978,-65L804,29V526c0,0,-130,-78,-133,-294L611,196L431,309c0,0,0,97,33,174c0,0,-22,10,-53,10c0,0,-52,0,-90,-36c0,0,-38,-37,-38,-99c0,0,0,-80,68,-150c0,0,69,-70,214,-161L472,-77Z"
id="f5_c3"
transform="scale(0.001,-0.001)"/>

<path d="M-289,908l-132,216c0,0,-70,120,-169,120c0,0,-83,0,-200,-80l-130,249c0,0,125,78,234,78c0,0,187,0,349,-241L-159,969L-289,908Z"
id="f5_d4"
transform="scale(0.001,-0.001)"/>

<path d="M1128,-65L953,29V322c0,0,-23,-9,-52,-9c0,0,-47,0,-102,25c0,0,11,-42,11,-83c0,0,0,-116,-78,-192c0,0,-78,-76,-203,-76c0,0,-129,0,-261,94c0,0,-132,95,-244,339l123,78c0,0,70,-150,146,-225c0,0,75,-76,168,-76c0,0,72,0,113,40c0,0,42,40,42,90c0,0,0,84,-77,115L387,350L249,556c0,0,86,77,199,83c0,0,119,73,119,163c0,0,0,25,-15,40c0,0,-4,0,-10,0c-19,0,-67,-3,-124,-33c0,0,-76,-39,-146,-106L142,872c0,0,61,65,140,107c0,0,79,42,158,42c0,0,121,0,216,-91c0,0,96,-91,96,-197c0,0,0,-96,-84,-186c0,0,62,-46,142,-46c0,0,88,0,143,52V822H834L749,937l32,64h617l-67,110c0,0,-69,122,-170,122c0,0,-81,0,-202,-80L831,1403c0,0,122,77,232,77c0,0,196,0,358,-250l143,-229h211l86,-115l-32,-64H1557l102,-73V-31l-70,-34L1415,29V822H1095l103,-73V-31l-70,-34Z"
id="f5_b1"
transform="scale(0.001,-0.001)"/>

<path d="M874,-65L700,29V309H513V173L422,122c0,0,-90,31,-191,129c0,0,-100,97,-127,184l52,81H277l-2,240c0,0,0,77,-26,109c0,0,-1,0,-2,0c-8,0,-44,-1,-70,-22c0,0,-29,-24,-29,-61c0,0,0,-53,64,-101L125,610c0,0,-174,117,-174,238c0,0,0,78,57,133c0,0,59,55,146,55c0,0,132,0,244,-112c0,0,112,-113,112,-246V516H700V822H655L570,937l32,64h458l86,-115l-32,-64H842L944,749V-31L874,-65Z"
id="f5_by"
transform="scale(0.001,-0.001)"/>

<path d="M-272,872l-211,214c0,0,-64,61,-138,61c0,0,-70,0,-195,-74l-115,204c0,0,121,86,223,86c0,0,133,0,266,-155l156,-190l-84,209c0,0,-49,119,-100,170c0,0,-50,51,-129,51c0,0,-66,0,-165,-36l-92,243c0,0,105,41,189,41c0,0,240,0,375,-344L-143,923L-272,872Z"
id="f5_d5"
transform="scale(0.001,-0.001)"/>

<path d="M545,-97L35,405L87,542H295c0,0,1,5,1,280H0L-86,937l32,64H1135l86,-115l-32,-64H445L550,749V654c0,0,124,72,228,72c0,0,134,0,230,-98c0,0,95,-98,95,-228c0,0,0,-99,-62,-177c0,0,-62,-78,-178,-151L700,252c0,0,195,133,195,212c0,0,0,63,-67,63c0,0,-116,0,-411,-240L709,110V41L545,-97Z"
id="f5_n0"
transform="scale(0.001,-0.001)"/>

<path d="M952,-65L778,29V474H600c0,0,94,-91,94,-202c0,0,0,-98,-66,-163c0,0,-66,-65,-171,-65c0,0,-165,0,-280,155C177,199,63,354,-7,616l152,50c0,0,67,-223,120,-299c0,0,53,-77,122,-77c0,0,47,0,73,29c0,0,26,28,26,71c0,0,0,79,-73,128L298,559V681H778V822H0L-86,937l32,64H1137l85,-115l-32,-64H920l102,-73V-31L952,-65Z"
id="f5_bg"
transform="scale(0.001,-0.001)"/>

<path d="M277,-65L102,29V822H0L-86,937l32,64H110c0,0,-50,142,-110,226c0,0,-60,84,-149,84c0,0,-59,0,-97,-37c0,0,-39,-36,-39,-91c0,0,0,-57,42,-115l-95,-50c0,0,-145,116,-145,267c0,0,0,108,75,179c0,0,76,70,195,70c0,0,179,0,297,-150c0,0,119,-150,189,-383H463L548,886L516,822H244L347,749V-31L277,-65Z"
id="f5_cv"
transform="scale(0.001,-0.001)"/>

<path d="M689,445V822H286l65,-58l8,-319ZM779,-49L689,8V328H370V180L296,150c0,0,-56,35,-120,104c0,0,-63,70,-89,131l41,60H238L223,822H0l-45,76l14,31H953l46,-76L985,822H750l66,-58V-39L779,-49Z"
id="f6_bz"
transform="scale(0.001,-0.001)"/>

<path d="M228,-49L138,8V822H0l-45,76l14,31H119L-33,1144c0,0,-70,92,-157,92c0,0,-69,0,-159,-58l-72,118c0,0,89,73,181,73c0,0,140,0,257,-170L205,929H402l46,-76L434,822H199l65,-58V-39L228,-49Z"
id="f6_d8"
transform="scale(0.001,-0.001)"/>

<path d="M527,-71L52,414l34,92H277c0,0,12,32,12,72V822H0l-45,76l14,31H599l46,-76L631,822H350l66,-55V564c0,0,0,-96,-152,-248L610,34L611,8L527,-71Z"
id="f6_c1"
transform="scale(0.001,-0.001)"/>

<path d="M348,229c0,0,57,0,106,17L263,559c0,0,-95,-50,-95,-162c0,0,0,-75,52,-136c0,0,49,-32,128,-32Zm170,48c0,0,61,38,96,91V504c0,0,-131,80,-244,80l-35,-2L518,277ZM704,-49L614,8V193c0,0,-84,-65,-192,-65c0,0,-139,0,-255,98c0,0,-115,98,-115,226c0,0,0,106,77,175c0,0,77,70,189,70c0,0,38,0,75,-9L614,578V822H0l-45,76l14,31H878l46,-76L911,822H675l66,-58V-39L704,-49Z"
id="f6_bx"
transform="scale(0.001,-0.001)"/>

<path d="M413,-59C413,-59,53,193,53,416c0,0,0,97,66,164c0,0,66,66,156,66c0,0,61,0,110,-30L487,507c0,0,92,126,257,126l35,-2V822H0l-45,76l14,31H1043l46,-76l-13,-31H840l66,-58V-39L869,-49L779,8V547c0,0,-101,-5,-165,-90c0,0,-64,-86,-70,-222L507,225l-90,73c0,0,5,79,35,151c0,0,-59,66,-128,66c0,0,-57,0,-100,-38c0,0,-44,-39,-44,-109c0,0,0,-165,284,-360L413,-59Z"
id="f6_c3"
transform="scale(0.001,-0.001)"/>

<path d="M-214,863l-199,281c0,0,-70,92,-157,92c0,0,-69,0,-159,-58l-72,118c0,0,89,73,180,73c0,0,141,0,258,-170L-155,901l-59,-38Z"
id="f6_d4"
transform="scale(0.001,-0.001)"/>

<path d="M959,-49L869,8V367c0,0,-32,-13,-64,-13c0,0,-50,0,-110,25c0,0,23,-52,23,-109c0,0,0,-103,-70,-170c0,0,-70,-66,-182,-66c0,0,-110,0,-222,82c0,0,-111,83,-213,293l68,42c0,0,72,-155,152,-231c0,0,81,-76,178,-76c0,0,83,0,131,49c0,0,48,48,48,117c0,0,0,54,-30,100c0,0,-31,47,-91,65L325,391L257,512c0,0,68,53,156,56c0,0,140,72,140,179c0,0,0,69,-52,99c0,0,-4,1,-11,1c-19,0,-66,-4,-123,-30c0,0,-78,-35,-142,-96L150,823c0,0,119,117,253,117c0,0,98,0,175,-71c0,0,77,-70,77,-159c0,0,0,-103,-94,-180c0,0,39,-23,73,-56c0,0,52,-22,109,-22c0,0,77,0,126,38V822H727l-46,76l14,31h558l-153,215c0,0,-70,92,-157,92c0,0,-69,0,-159,-58l-72,118c0,0,89,73,180,73c0,0,141,0,258,-170L1338,929h197l46,-76l-13,-31H1332l66,-58V-39l-37,-10L1271,8V822H930l66,-58V-39L959,-49Z"
id="f6_b1"
transform="scale(0.001,-0.001)"/>

<path d="M823,-49L733,8V339H445V191L371,160c0,0,-56,36,-120,105c0,0,-63,70,-89,131l41,59H313V735c0,0,0,99,-55,140c0,0,-3,1,-8,1c-16,0,-48,-3,-71,-23c0,0,-31,-26,-31,-66c0,0,0,-69,81,-113L189,620C189,620,31,720,31,828c0,0,0,61,45,99c0,0,46,37,109,37c0,0,96,0,173,-86c0,0,76,-87,79,-194V455H733V822H556l-46,76l14,31H998l45,-76l-13,-31H794l66,-58V-39L823,-49Z"
id="f6_by"
transform="scale(0.001,-0.001)"/>

<path d="M-214,860l-227,219c0,0,-73,70,-148,70c0,0,-67,0,-160,-58l-72,117c0,0,83,71,176,71c0,0,120,0,232,-124L-221,940l-102,294c0,0,-64,179,-189,179c0,0,-60,0,-133,-33l-60,125c0,0,84,47,164,47c0,0,200,0,281,-276L-150,901l-23,-15l-41,-26Z"
id="f6_d5"
transform="scale(0.001,-0.001)"/>

<path d="M527,-71L52,414l34,92H277c0,0,12,32,12,72V822H0l-45,76l14,31H940l45,-76L972,822H350l66,-55V570c0,0,146,98,247,98c0,0,95,0,167,-73c0,0,71,-72,71,-167c0,0,0,-77,-53,-142c0,0,-54,-64,-159,-136l-89,99c0,0,100,70,152,121c0,0,52,52,52,105c0,0,0,34,-23,60c0,0,-22,26,-72,26c0,0,-139,0,-434,-252L610,34L611,8L527,-71Z"
id="f6_n0"
transform="scale(0.001,-0.001)"/>

<path d="M845,-49L755,8V513H497c0,0,61,-45,93,-110c0,0,33,-64,33,-128c0,0,0,-90,-58,-144c0,0,-59,-53,-143,-53c0,0,-133,0,-234,139C188,217,87,356,20,596l76,24c0,0,60,-201,127,-306c0,0,67,-105,160,-105c0,0,57,0,91,36c0,0,33,36,33,91c0,0,0,84,-73,159L295,558v71H755V822H0l-45,76l14,31H1019l46,-76l-14,-31H816l66,-58V-39L845,-49Z"
id="f6_bg"
transform="scale(0.001,-0.001)"/>

<path d="M228,-49L138,8V822H0l-45,76l14,31H138c0,0,-109,342,-284,342c0,0,-62,0,-102,-40c0,0,-40,-39,-40,-93c0,0,0,-61,51,-134l-42,-32c0,0,-128,113,-128,226c0,0,0,79,60,136c0,0,61,56,154,56c0,0,137,0,249,-125c0,0,112,-125,169,-336H402l46,-76L434,822H199l65,-58V-39L228,-49Z"
id="f6_cv"
transform="scale(0.001,-0.001)"/>

<path d="M663,-49L573,8V445H299V280L226,251c0,0,-105,99,-162,238l63,72H573V822H0l-45,76l14,31H837l46,-76L869,822H634l66,-58V-39L663,-49Z"
id="f6_bt"
transform="scale(0.001,-0.001)"/>

<path d="M228,-49L138,8V822H0l-45,76l14,31H402l46,-76L434,822H199l65,-58V-39L228,-49Z"
id="f6_ct"
transform="scale(0.001,-0.001)"/>

<path d="M283,260c0,0,122,0,209,113V513c0,0,-90,51,-160,51c0,0,-80,0,-129,-50c0,0,-49,-50,-49,-118c0,0,0,-60,35,-110c0,0,45,-26,94,-26ZM582,-49L492,8V211c0,0,-63,-54,-141,-54c0,0,-113,0,-213,92c0,0,-100,92,-100,205c0,0,0,93,69,157c0,0,69,64,162,64c0,0,32,0,64,-9L492,590V822H0l-45,76l14,31H1108l45,-76l-13,-31H553l66,-58V524c0,0,91,89,192,89c0,0,98,0,171,-79c0,0,72,-79,72,-186c0,0,0,-178,-224,-330L736,124c0,0,219,153,219,269c0,0,0,44,-26,75c0,0,-26,32,-81,32c0,0,-109,0,-229,-155V-39L582,-49Z"
id="f6_b9"
transform="scale(0.001,-0.001)"/>

<path d="M547,-285c0,0,-66,25,-102,80c0,0,32,69,82,101c0,0,55,-20,99,-80c0,0,-26,-67,-79,-101Zm1,228c0,0,-122,0,-243,81c0,0,-122,81,-252,280l57,41C110,345,283,64,498,64c0,0,92,0,153,49c0,0,61,49,61,121c0,0,0,46,-28,84L440,237c0,0,-73,11,-139,55c0,0,-66,44,-105,105c0,0,-40,61,-40,119c0,0,0,72,62,125c0,0,62,53,184,53H625V822H0l-45,76l14,31H906l46,-76L938,822H678l66,-58V562H431c0,0,-164,0,-164,-99c0,0,0,-55,57,-102l261,82c0,0,104,-21,172,-98c0,0,68,-78,68,-171c0,0,0,-99,-76,-166c0,0,-77,-65,-201,-65Z"
id="f6_ch"
transform="scale(0.001,-0.001)"/>

<path d="M727,-49L637,8V822H278l66,-58V226L270,196c0,0,-64,36,-122,98c0,0,-58,62,-79,122l43,59H217V822H0l-45,76l14,31H901l46,-76L933,822H698l66,-58V-39L727,-49Z"
id="f6_bb"
transform="scale(0.001,-0.001)"/>

<path d="M-91,1001c0,0,-27,10,-61,36c0,0,-33,26,-50,49c0,0,38,81,90,110c0,0,61,-23,107,-85c0,0,-28,-71,-86,-110ZM-214,863l-199,281c0,0,-70,92,-157,92c0,0,-69,0,-159,-58l-72,118c0,0,89,73,180,73c0,0,141,0,258,-170L-155,901l-59,-38Z"
id="f6_oz"
transform="scale(0.001,-0.001)"/>

<path d="M108,-222l-44,58c0,0,96,81,104,164L89,61c0,0,12,83,93,122c0,0,50,-15,79,-55c0,0,29,-39,29,-90c0,0,0,-69,-48,-142c0,0,-48,-72,-134,-118Z"
id="f6_k"
transform="scale(0.001,-0.001)"/>

<path d="M498,2C498,2,377,2,283,89c0,0,-94,88,-142,218l77,55c0,0,95,-250,253,-250c0,0,65,0,109,37c0,0,43,37,43,97c0,0,0,86,-116,151L312,500c0,0,-138,81,-138,189c0,0,0,70,57,118c0,0,56,47,186,47H657l47,-84L684,739H413c0,0,-133,-3,-133,-67c0,0,0,-41,42,-71c0,0,42,-30,131,-70c0,0,89,-41,147,-76c0,0,58,-35,97,-90c0,0,39,-55,39,-133c0,0,0,-105,-68,-168C668,64,600,2,498,2Z"
id="f6_cr"
transform="scale(0.001,-0.001)"/>

<path d="M325,240c0,0,77,0,154,35c0,0,77,35,120,99V500c0,0,-118,73,-222,73c0,0,-97,0,-151,-54c0,0,-53,-53,-53,-128c0,0,0,-73,49,-125c0,0,38,-26,103,-26ZM689,-49L599,8V199c0,0,-73,-65,-179,-65c0,0,-134,0,-252,96c0,0,-118,95,-118,221c0,0,0,102,78,171c0,0,78,69,190,69c0,0,38,0,75,-10L599,582V822H0l-45,76l14,31H863l46,-76L895,822H660l66,-58V-39L689,-49Z"
id="f6_c7"
transform="scale(0.001,-0.001)"/>

<path d="M-234,-413c0,0,-210,0,-488,322l54,49c0,0,119,-128,209,-193c0,0,90,-65,177,-65c0,0,72,0,113,40c0,0,42,39,42,91c0,0,0,75,-78,106L-323,-181l-90,98c0,0,63,95,167,95c0,0,90,0,155,-69c0,0,66,-70,66,-164c0,0,0,-85,-60,-139c0,0,-61,-53,-149,-53Z"
id="f6_cw"
transform="scale(0.001,-0.001)"/>

<path d="M483,-305L295,-10c0,0,-90,22,-156,74l41,170h66L351,63c0,0,126,4,207,62c0,0,82,58,82,139c0,0,0,37,-18,71L365,266c0,0,-110,15,-197,102c0,0,-87,87,-87,176c0,0,0,69,59,117c0,0,59,48,172,48H550V822H0l-45,76l14,31H550c0,0,-142,122,-142,255c0,0,0,78,52,133c0,0,52,55,140,55c0,0,98,0,176,-64l-23,-69c0,0,-53,32,-104,32c0,0,-56,0,-94,-36c0,0,-39,-36,-39,-95c0,0,0,-109,112,-211H822l46,-76L854,822H603l66,-58V585H373c0,0,-184,0,-184,-99c0,0,0,-48,63,-101l310,78c0,0,86,-34,141,-99c0,0,55,-65,55,-142c0,0,0,-109,-98,-179c0,0,-98,-69,-254,-69L599,-216L483,-305Z"
id="f6_ao"
transform="scale(0.001,-0.001)"/>

<path d="M768,-49L678,8V202c0,0,-73,-58,-172,-58c0,0,-123,0,-240,94c0,0,-118,94,-179,237l20,55c0,0,134,12,215,70c0,0,81,57,81,141c0,0,0,90,-67,134l-26,3c0,0,-46,0,-74,-29c0,0,-28,-30,-28,-68c0,0,0,-55,82,-109L252,620C252,620,93,720,93,820c0,0,0,65,47,104c0,0,46,40,114,40c0,0,99,0,179,-83c0,0,80,-83,82,-197c0,0,0,-93,-79,-165c0,0,-78,-73,-199,-97c0,0,29,-104,88,-158c0,0,42,-16,92,-16c0,0,78,0,151,38c0,0,74,38,110,111V822H553l-46,76l14,31H943l45,-76L975,822H739l66,-58V-39L768,-49Z"
id="f6_bq"
transform="scale(0.001,-0.001)"/>

<path d="M825,-49L735,8V217c0,0,-86,-72,-197,-72c0,0,-130,0,-238,91c0,0,-107,91,-107,204c0,0,0,55,27,105H55L12,616l14,30H574l46,-76L607,539H396c0,0,-78,-49,-78,-162c0,0,0,-70,40,-111c0,0,39,-15,94,-15c0,0,84,0,163,41c0,0,79,41,120,121V822H0l-45,76l14,31H999l46,-76l-14,-31H796l66,-58V-39L825,-49Z"
id="f6_be"
transform="scale(0.001,-0.001)"/>

<path d="M342,324c0,0,45,0,75,34c0,0,31,33,31,100V822H165l66,-58V390c0,0,32,-66,111,-66ZM853,-49L762,8V822H509l65,-58V455c0,0,0,-134,-51,-185c0,0,-52,-52,-127,-52c0,0,-98,0,-195,99c0,0,-97,99,-97,209V822H0l-45,76l14,31H1027l46,-76l-14,-31H823l66,-58V-39L853,-49Z"
id="f6_bo"
transform="scale(0.001,-0.001)"/>

<path d="M0,1062c0,0,-26,11,-60,36c0,0,-34,26,-51,49c0,0,39,81,91,110c0,0,60,-23,106,-85c0,0,-28,-70,-86,-110Z"
id="f6_dj"
transform="scale(0.001,-0.001)"/>

<path d="M228,-49L138,8V822H0l-45,76l14,31H134c0,0,-91,92,-91,191c0,0,0,105,85,170c0,0,84,65,219,65c0,0,128,0,293,-76c0,0,165,-77,362,-263L958,966c0,0,-177,143,-303,210c0,0,-125,68,-244,68c0,0,-107,0,-175,-50c0,0,-68,-50,-68,-131c0,0,0,-61,49,-134H402l46,-76L434,822H199l65,-58V-39L228,-49Z"
id="f6_cu"
transform="scale(0.001,-0.001)"/>

<path d="M959,-49L869,8V367c0,0,-32,-13,-64,-13c0,0,-50,0,-110,25c0,0,23,-52,23,-109c0,0,0,-103,-70,-170c0,0,-70,-66,-182,-66c0,0,-110,0,-222,82c0,0,-111,83,-213,293l68,42c0,0,72,-155,152,-231c0,0,81,-76,178,-76c0,0,83,0,131,49c0,0,48,48,48,117c0,0,0,54,-30,100c0,0,-31,47,-91,65L325,391L257,512c0,0,68,53,156,56c0,0,140,72,140,179c0,0,0,69,-52,99c0,0,-4,1,-11,1c-19,0,-66,-4,-123,-30c0,0,-78,-35,-142,-96L150,823c0,0,119,117,253,117c0,0,98,0,175,-71c0,0,77,-70,77,-159c0,0,0,-103,-94,-180c0,0,39,-23,73,-56c0,0,52,-22,109,-22c0,0,77,0,126,38V822H727l-46,76l14,31h840l46,-76l-13,-31H1332l66,-58V-39l-37,-10L1271,8V822H930l66,-58V-39L959,-49Z"
id="f6_am"
transform="scale(0.001,-0.001)"/>

<path d="M471,-26c0,0,-259,0,-448,396l70,43C93,413,240,98,442,98c0,0,79,0,132,46c0,0,54,45,54,120c0,0,0,61,-38,116c0,0,-38,54,-107,72L322,370L255,492c0,0,66,53,156,56c0,0,128,51,128,153c0,0,0,77,-65,121H0l-45,76l14,31H1123l46,-76l-14,-31H578c0,0,76,-66,76,-157c0,0,0,-95,-87,-156c0,0,52,-29,84,-64c0,0,131,134,243,134c0,0,93,0,158,-70c0,0,65,-71,65,-167c0,0,0,-142,-177,-272L851,170c0,0,173,129,173,230c0,0,0,34,-23,57c0,0,-23,23,-63,23c0,0,-104,0,-215,-141c0,0,23,-55,23,-111c0,0,0,-109,-78,-182c0,0,-78,-72,-197,-72Z"
id="f6_aq"
transform="scale(0.001,-0.001)"/>

<path d="M-233,1021c0,0,-84,0,-168,55c0,0,-84,56,-146,162l51,50c0,0,95,-162,219,-162c0,0,125,0,160,157L-7,1234c0,0,-21,-103,-81,-158c0,0,-61,-55,-145,-55Zm-41,201c0,0,-66,25,-102,80c0,0,32,68,82,101c0,0,55,-20,99,-80c0,0,-26,-67,-79,-101Z"
id="f6_di"
transform="scale(0.001,-0.001)"/>

<path d="M228,-49L138,8V822H0l-45,76l14,31H134c0,0,-91,93,-91,200c0,0,0,109,92,174c0,0,93,66,253,66c0,0,186,0,398,-89c0,0,212,-90,430,-264l-49,-47c0,0,-424,285,-727,285c0,0,-125,0,-201,-49c0,0,-76,-48,-76,-137c0,0,0,-67,52,-139H402l46,-76L434,822H199l65,-58V-39L228,-49Z"
id="f6_nu"
transform="scale(0.001,-0.001)"/>

<path d="M374,248c0,0,77,0,149,36c0,0,71,37,110,107V822H284c0,0,138,-96,138,-208c0,0,0,-151,-228,-192c0,0,29,-104,89,-158c0,0,41,-16,91,-16ZM723,-49L633,8V200c0,0,-69,-56,-170,-56c0,0,-122,0,-240,94c0,0,-118,94,-179,237l20,55c0,0,133,17,187,44c0,0,55,28,55,84c0,0,0,45,-30,81c0,0,-30,36,-99,83H0l-45,76l14,31H897l46,-76L929,822H694l65,-58V-39L723,-49Z"
id="f6_c0"
transform="scale(0.001,-0.001)"/>

<path d="M558,-520c0,0,-210,0,-488,322l54,49c0,0,119,-128,209,-193c0,0,90,-65,177,-65c0,0,72,0,113,40c0,0,42,40,42,91c0,0,0,75,-78,106L469,-288l-90,98l27,37c0,0,-133,64,-213,155c0,0,-80,91,-80,201c0,0,0,101,69,170c0,0,-103,88,-103,179c0,0,0,64,57,110c0,0,57,47,196,47H571V822H0l-45,76l14,31H830l45,-76L862,822H625l66,-58V585H364c0,0,-176,0,-176,-96c0,0,0,-41,44,-76c0,0,81,47,185,47c0,0,135,0,230,-76c0,0,96,-75,96,-187C743,197,743,67,614,2L530,104c0,0,49,30,81,75c0,0,32,44,32,82c0,0,0,16,-4,26c0,0,-65,58,-167,58c0,0,-98,0,-166,-50v-2c0,0,-68,-52,-68,-131c0,0,0,-154,254,-263l53,7c0,0,91,0,156,-70c0,0,66,-70,66,-163c0,0,0,-86,-60,-139c0,0,-61,-54,-149,-54Z"
id="f6_n4"
transform="scale(0.001,-0.001)"/>

<path d="M283,260c0,0,122,0,209,113V513c0,0,-90,51,-160,51c0,0,-80,0,-129,-50c0,0,-49,-50,-49,-118c0,0,0,-60,35,-110c0,0,45,-26,94,-26ZM582,-49L492,8V211c0,0,-63,-54,-141,-54c0,0,-113,0,-214,92c0,0,-102,92,-102,206c0,0,0,93,69,157c0,0,69,63,163,63c0,0,34,0,66,-9L492,590V822H0l-45,76l14,31H909l46,-76L941,822H553l66,-58V521c0,0,93,104,192,104c0,0,63,0,120,-42c0,0,57,-42,82,-106L964,431l-5,9c0,0,-38,72,-110,72c0,0,-51,0,-105,-41c0,0,-53,-42,-125,-129V-39L582,-49Z"
id="f6_l1"
transform="scale(0.001,-0.001)"/>

<path d="M226,-49c0,0,-66,24,-102,78c0,0,32,69,82,101c0,0,55,-20,100,-80c0,0,-26,-66,-80,-99Z"
id="f6_pc"
transform="scale(0.001,-0.001)"/>

<path d="M388,325c0,0,58,0,112,31c0,0,53,31,84,86V822H165l69,-58V408c0,0,47,-83,154,-83ZM674,-49L584,8V257c0,0,-61,-51,-141,-51c0,0,-125,0,-232,109c0,0,-107,108,-107,243V822H0l-45,76l14,31H848l46,-76L880,822H645l65,-58V-39L674,-49Z"
id="f6_bv"
transform="scale(0.001,-0.001)"/>

<path d="M413,313c0,0,91,0,145,58L231,782V408c0,0,47,-95,182,-95ZM603,438l11,28V822H295L603,438ZM704,-49L614,8V254c0,0,-61,-57,-151,-57c0,0,-138,0,-248,110c0,0,-111,110,-111,252V822H0l-45,76l14,31H878l46,-76L911,822H675l66,-58V-39L704,-49Z"
id="f6_ca"
transform="scale(0.001,-0.001)"/>

<path d="M675,-274L602,21C602,21,550,3,498,3C498,3,347,3,210,118C210,118,73,232,73,373c0,0,0,113,84,184c0,0,84,71,222,72H524V822H0l-45,76l14,31H834l46,-76L866,822H585l66,-58V504l-3,2l3,-3H408c0,0,-95,0,-154,-53c0,0,-58,-53,-58,-132c0,0,0,-49,27,-100c0,0,28,-50,83,-84c0,0,44,-15,96,-15c0,0,91,0,160,46L535,303l101,48L773,188c0,0,-8,-28,-34,-66c0,0,-27,-38,-62,-64L813,-221L675,-274Z"
id="f6_br"
transform="scale(0.001,-0.001)"/>

<path d="M513,460c0,0,61,81,61,179c0,0,0,87,-45,143c0,0,-45,57,-116,57c0,0,-63,0,-102,-43c0,0,-39,-43,-39,-110c0,0,0,-90,68,-151c0,0,68,-61,173,-75ZM581,-83L278,167l-41,-4c0,0,-99,0,-130,37l47,168l51,12l78,-79c0,0,110,40,183,105c0,0,-141,23,-231,107c0,0,-90,84,-90,193c0,0,0,69,37,116H0l-45,76l14,31H1134l45,-76l-13,-31H930l66,-58V-39L959,-49L869,8V822H588c0,0,51,-44,75,-109c0,0,25,-64,25,-122c0,0,0,-105,-81,-213c0,0,-80,-108,-240,-176L658,18l2,-25L581,-83Z"
id="f6_c8"
transform="scale(0.001,-0.001)"/>

<path d="M959,-49L869,8V367c0,0,-32,-13,-64,-13c0,0,-50,0,-110,25c0,0,23,-52,23,-109c0,0,0,-103,-70,-170c0,0,-70,-66,-182,-66c0,0,-110,0,-222,82c0,0,-111,83,-213,293l68,42c0,0,72,-155,152,-231c0,0,81,-76,178,-76c0,0,83,0,131,49c0,0,48,48,48,117c0,0,0,54,-30,100c0,0,-31,47,-91,65L325,391L257,512c0,0,68,53,156,56c0,0,140,72,140,179c0,0,0,69,-52,99c0,0,-4,1,-11,1c-19,0,-66,-4,-123,-30c0,0,-78,-35,-142,-96L150,823c0,0,119,117,253,117c0,0,98,0,175,-71c0,0,77,-70,77,-159c0,0,0,-103,-94,-180c0,0,39,-23,73,-56c0,0,52,-22,109,-22c0,0,77,0,126,38V822H727l-46,76l14,31h439l45,-76l-13,-31H930l66,-58V-39L959,-49Z"
id="f6_al"
transform="scale(0.001,-0.001)"/>

<path d="M799,475V822H350l66,-55V564c0,0,0,-43,-25,-89ZM527,-71L52,414l34,92H277c0,0,12,32,12,72V822H0l-45,76l14,31H1063l46,-76l-14,-31H860l66,-58V-39L889,-49L799,8V370H315L264,316L610,34L611,8L527,-71Z"
id="f6_cb"
transform="scale(0.001,-0.001)"/>

<path d="M570,78c0,0,66,17,105,54c0,0,40,38,40,88c0,0,0,40,-23,66c0,0,-23,26,-58,26c0,0,-40,0,-71,-33c0,0,-31,-33,-31,-90c0,0,0,-55,38,-111ZM538,-45c0,0,-182,0,-322,128C216,83,76,211,76,368c0,0,0,122,91,201c0,0,90,79,238,79H564V822H0l-45,76l14,31H853l45,-76L885,822H617l66,-58V521H420c0,0,-99,0,-162,-57c0,0,-62,-58,-62,-146c0,0,0,-121,105,-208c0,0,118,-41,188,-41l29,1l-69,46c0,0,-36,55,-36,115c0,0,0,73,48,123c0,0,49,49,123,49c0,0,87,0,151,-74c0,0,64,-74,64,-162c0,0,0,-94,-71,-153c0,0,-71,-59,-190,-59Z"
id="f6_bn"
transform="scale(0.001,-0.001)"/>

<path d="M434,225c0,0,84,0,169,42c0,0,85,43,126,126V822H267c0,0,-64,-49,-64,-115c0,0,0,-79,90,-126c0,0,60,35,144,35l67,-6l75,-89L564,490l-51,7H493c0,0,-90,0,-142,-43c0,0,-52,-43,-52,-104c0,0,0,-60,51,-109c0,0,33,-16,84,-16ZM819,-49L729,8V197c0,0,-83,-76,-202,-76c0,0,-130,0,-237,91c0,0,-108,92,-108,196c0,0,0,72,53,128c0,0,-75,42,-115,97c0,0,-41,56,-41,113c0,0,0,38,22,76H0l-45,76l14,31H993l46,-76l-14,-31H790l66,-58V-39L819,-49Z"
id="f6_bc"
transform="scale(0.001,-0.001)"/>

<path d="M827,-49L736,8V205c0,0,-84,-84,-209,-84c0,0,-130,0,-237,91c0,0,-108,92,-108,196c0,0,0,79,61,137C243,545,66,672,66,791c0,0,0,75,52,124c0,0,53,49,134,49c0,0,164,0,260,-237L451,694c0,0,-55,114,-119,163l-31,5c0,0,-44,0,-77,-32c0,0,-33,-31,-33,-78c0,0,0,-86,113,-165c0,0,60,27,133,27l67,-4l75,-89L564,490l-51,7H493c0,0,-90,0,-142,-43c0,0,-52,-43,-52,-104c0,0,0,-60,51,-109c0,0,33,-16,84,-16c0,0,89,0,177,47c0,0,89,47,125,137V822H567l-46,76l14,31h466l46,-76l-14,-31H798l65,-58V-39L827,-49Z"
id="f6_bs"
transform="scale(0.001,-0.001)"/>

<path d="M309,-30c0,0,-127,0,-271,79L95,183C95,183,238,86,397,64c0,0,41,37,41,89c0,0,0,52,-38,84c0,0,-38,32,-150,82c0,0,-112,49,-151,96c0,0,-39,46,-39,112c0,0,0,96,81,157c0,0,82,62,209,62c0,0,107,0,195,-46c0,0,5,-112,-26,-197H437L426,620c0,0,-76,34,-160,34l-29,-2c0,0,-49,-30,-49,-87c0,0,0,-49,40,-78c0,0,39,-29,122,-65l90,-42c0,0,131,-68,131,-189c0,0,0,-98,-73,-160c0,0,-73,-61,-189,-61Z"
id="f6_2j"
transform="scale(0.001,-0.001)"/>

<path d="M725,307c0,0,-95,0,-218,78c0,0,-123,78,-188,78c0,0,-54,0,-95,-34c0,0,-41,-34,-73,-100L93,362c0,0,38,88,101,146c0,0,63,59,148,59c0,0,90,0,214,-78c0,0,124,-79,188,-79c0,0,63,0,106,34c0,0,42,33,85,104l60,-40c0,0,-32,-66,-101,-134c0,0,-70,-67,-169,-67Z"
id="f7_4r"
transform="scale(0.001,-0.001)"/>

<path d="M225,0c0,0,2,129,51,312c0,0,48,183,139,352c0,0,91,170,193,286H72v129H780V975C780,975,676,864,573,680C573,680,470,495,414,301C414,301,374,163,363,0Z"
id="f8_r"
transform="scale(0.001,-0.001)"/>

<path d="M412,-18c0,0,-144,0,-239,85c0,0,-95,86,-108,222l133,18c0,0,24,-114,79,-164c0,0,55,-50,135,-50c0,0,96,0,161,65c0,0,65,66,65,163c0,0,0,92,-61,152c0,0,-60,60,-153,60c0,0,-38,0,-95,-15l15,119c0,0,13,-2,21,-2c0,0,86,0,155,45c0,0,69,44,69,137c0,0,0,74,-50,122c0,0,-50,49,-129,49c0,0,-79,0,-131,-50c0,0,-52,-49,-67,-147L78,815c0,0,25,135,112,209c0,0,87,74,217,74c0,0,89,0,164,-38c0,0,76,-39,116,-105c0,0,40,-66,40,-141c0,0,0,-70,-39,-129c0,0,-38,-58,-112,-92c0,0,97,-22,151,-93c0,0,53,-70,53,-176c0,0,0,-143,-104,-243c0,0,-105,-99,-264,-99Z"
id="f8_n"
transform="scale(0.001,-0.001)"/>


</defs>
</svg>