<?xml version="1.0" encoding="UTF-8" standalone="no"?>
<!DOCTYPE svg PUBLIC "-//W3C//DTD SVG 1.1//EN"
"http://www.w3.org/Graphics/SVG/1.1/DTD/svg11.dtd">
<svg viewBox="0 0 641 910" version="1.1" xmlns="http://www.w3.org/2000/svg" xmlns:xlink="http://www.w3.org/1999/xlink">
<defs>
<clipPath id="c0_87"><path d="M0,909.8V0H641.7V909.8Z"/></clipPath>
<clipPath id="c1_87"><path d="M0,908.6V0H641.7V908.6Z"/></clipPath>
<style type="text/css"><![CDATA[
.g0_87{
fill: #FFFFFF;
}
.g1_87{
}
]]></style>
</defs>
<path d="M0,0H641.7V909.8H0V0Z" class="g0_87"/>
<path d="M0,0H641.7V909.8H0V0Z" class="g0_87"/>
<g clip-path="url(#c0_87)">
<path d="M0,-72783.2H641.7V33662.3H0V-72783.2Z" class="g0_87"/>
</g>
<path d="M0,0H641.7V908.6H0V0Z" class="g0_87"/>
<path d="M19.5,60.7H602.7v1.2H19.5V60.7Z" class="g1_87"/>
<g clip-path="url(#c1_87)">
<path d="M0,61.9H641.7V909.8H0V61.9Z" class="g0_87"/>
<g fill="#000000" >
<use xlink:href="#f6_am" transform="matrix(14,0,0,14,143.5,82.5)" />
<use xlink:href="#f6_c7" transform="matrix(14,0,0,14,165,82.5)" />
<use xlink:href="#f6_d8" transform="matrix(14,0,0,14,177.1,82.5)" />
<use xlink:href="#f6_bz" transform="matrix(14,0,0,14,188.4,82.5)" />
<use xlink:href="#f6_ct" transform="matrix(14,0,0,14,201.7,82.5)" />
<use xlink:href="#f6_c1" transform="matrix(14,0,0,14,207.3,82.5)" />
<use xlink:href="#f6_ct" transform="matrix(14,0,0,14,215.7,82.5)" />
<use xlink:href="#f6_by" transform="matrix(14,0,0,14,227,82.5)" />
<use xlink:href="#f6_d5" transform="matrix(14,0,0,14,241.1,82.5)" />
<use xlink:href="#f6_n0" transform="matrix(14,0,0,14,241,82.5)" />
<use xlink:href="#f6_bg" transform="matrix(14,0,0,14,254.1,82.5)" />
<use xlink:href="#f6_cv" transform="matrix(14,0,0,14,268.4,82.5)" />
<use xlink:href="#f6_k" transform="matrix(14,0,0,14,274,82.5)" />
<use xlink:href="#f6_by" transform="matrix(14,0,0,14,284.9,82.5)" />
<use xlink:href="#f6_bb" transform="matrix(14,0,0,14,298.8,82.5)" />
<use xlink:href="#f6_bp" transform="matrix(14,0,0,14,311.4,82.5)" />
<use xlink:href="#f6_bg" transform="matrix(14,0,0,14,329.4,82.5)" />
<use xlink:href="#f6_bb" transform="matrix(14,0,0,14,343.7,82.5)" />
<use xlink:href="#f6_bp" transform="matrix(14,0,0,14,356.3,82.5)" />
<use xlink:href="#f6_bz" transform="matrix(14,0,0,14,374.3,82.5)" />
<use xlink:href="#f6_oz" transform="matrix(14,0,0,14,387.7,82.5)" />
<use xlink:href="#f6_mv" transform="matrix(14,0,0,14,393.3,82.5)" />
<use xlink:href="#f6_dk" transform="matrix(14,0,0,14,405.1,82.5)" />
<use xlink:href="#f6_ba" transform="matrix(14,0,0,14,409.6,82.5)" />
<use xlink:href="#f6_cv" transform="matrix(14,0,0,14,426.4,82.5)" />
<use xlink:href="#f6_bc" transform="matrix(14,0,0,14,437.6,82.5)" />
<use xlink:href="#f6_bo" transform="matrix(14,0,0,14,451.5,82.5)" />
<use xlink:href="#f6_ct" transform="matrix(14,0,0,14,465.9,82.5)" />
<use xlink:href="#f6_k" transform="matrix(14,0,0,14,471.5,82.5)" />
<use xlink:href="#f6_am" transform="matrix(14,0,0,14,95.4,115.7)" />
<use xlink:href="#f6_c7" transform="matrix(14,0,0,14,116.9,115.7)" />
<use xlink:href="#f6_d8" transform="matrix(14,0,0,14,129,115.7)" />
<use xlink:href="#f6_bz" transform="matrix(14,0,0,14,140.3,115.7)" />
<use xlink:href="#f6_ct" transform="matrix(14,0,0,14,153.6,115.7)" />
<use xlink:href="#f6_c1" transform="matrix(14,0,0,14,159.2,115.7)" />
<use xlink:href="#f6_ct" transform="matrix(14,0,0,14,167.6,115.7)" />
<use xlink:href="#f6_by" transform="matrix(14,0,0,14,178.9,115.7)" />
<use xlink:href="#f6_d5" transform="matrix(14,0,0,14,193,115.7)" />
<use xlink:href="#f6_n0" transform="matrix(14,0,0,14,192.8,115.7)" />
<use xlink:href="#f6_bg" transform="matrix(14,0,0,14,206,115.7)" />
<use xlink:href="#f6_cv" transform="matrix(14,0,0,14,220.2,115.7)" />
<use xlink:href="#f6_k" transform="matrix(14,0,0,14,225.9,115.7)" />
<use xlink:href="#f6_mv" transform="matrix(14,0,0,14,236.8,115.7)" />
<use xlink:href="#f6_dk" transform="matrix(14,0,0,14,248.5,115.7)" />
<use xlink:href="#f6_ba" transform="matrix(14,0,0,14,253.1,115.7)" />
<use xlink:href="#f6_cv" transform="matrix(14,0,0,14,269.8,115.7)" />
<use xlink:href="#f6_c0" transform="matrix(14,0,0,14,275.4,115.7)" />
<use xlink:href="#f6_d8" transform="matrix(14,0,0,14,288,115.7)" />
<use xlink:href="#f6_c1" transform="matrix(14,0,0,14,299.3,115.7)" />
<use xlink:href="#f6_ct" transform="matrix(14,0,0,14,307.7,115.7)" />
<use xlink:href="#f6_mv" transform="matrix(14,0,0,14,318.9,115.7)" />
<use xlink:href="#f6_dk" transform="matrix(14,0,0,14,330.7,115.7)" />
<use xlink:href="#f6_ba" transform="matrix(14,0,0,14,335.3,115.7)" />
<use xlink:href="#f6_bm" transform="matrix(14,0,0,14,352,115.7)" />
<use xlink:href="#f6_ct" transform="matrix(14,0,0,14,364.7,115.7)" />
<use xlink:href="#f6_nt" transform="matrix(14,0,0,14,376,115.7)" />
<use xlink:href="#f6_bz" transform="matrix(14,0,0,14,381.6,115.7)" />
<use xlink:href="#f6_bk" transform="matrix(14,0,0,14,394.9,115.7)" />
<use xlink:href="#f6_ct" transform="matrix(14,0,0,14,406.5,115.7)" />
<use xlink:href="#f6_c7" transform="matrix(14,0,0,14,412.1,115.7)" />
<use xlink:href="#f6_d8" transform="matrix(14,0,0,14,424.2,115.7)" />
<use xlink:href="#f6_bz" transform="matrix(14,0,0,14,435.5,115.7)" />
<use xlink:href="#f6_ct" transform="matrix(14,0,0,14,448.8,115.7)" />
<use xlink:href="#f6_c1" transform="matrix(14,0,0,14,454.5,115.7)" />
<use xlink:href="#f6_ct" transform="matrix(14,0,0,14,462.8,115.7)" />
<use xlink:href="#f6_by" transform="matrix(14,0,0,14,474.1,115.7)" />
<use xlink:href="#f6_d5" transform="matrix(14,0,0,14,488.2,115.7)" />
<use xlink:href="#f6_n0" transform="matrix(14,0,0,14,488.1,115.7)" />
<use xlink:href="#f6_bg" transform="matrix(14,0,0,14,501.2,115.7)" />
<use xlink:href="#f6_cv" transform="matrix(14,0,0,14,515.5,115.7)" />
<use xlink:href="#f6_k" transform="matrix(14,0,0,14,521.1,115.7)" />
<use xlink:href="#f6_nr" transform="matrix(14,0,0,14,219.2,149)" />
<use xlink:href="#f6_c1" transform="matrix(14,0,0,14,224.8,149)" />
<use xlink:href="#f6_bz" transform="matrix(14,0,0,14,233.2,149)" />
<use xlink:href="#f6_nv" transform="matrix(14,0,0,14,246.5,149)" />
<use xlink:href="#f6_bh" transform="matrix(14,0,0,14,252.1,149)" />
<use xlink:href="#f6_bz" transform="matrix(14,0,0,14,268.9,149)" />
<use xlink:href="#f6_b9" transform="matrix(14,0,0,14,287.9,149)" />
<use xlink:href="#f6_c1" transform="matrix(14,0,0,14,303.4,149)" />
<use xlink:href="#f6_bp" transform="matrix(14,0,0,14,311.8,149)" />
<use xlink:href="#f6_ct" transform="matrix(14,0,0,14,324.1,149)" />
<use xlink:href="#f6_am" transform="matrix(14,0,0,14,335.4,149)" />
<use xlink:href="#f6_c7" transform="matrix(14,0,0,14,356.9,149)" />
<use xlink:href="#f6_bg" transform="matrix(14,0,0,14,368.9,149)" />
<use xlink:href="#f6_d8" transform="matrix(14,0,0,14,383.2,149)" />
<use xlink:href="#f6_pc" transform="matrix(14,0,0,14,388.8,149)" />
<use xlink:href="#f6_pc" transform="matrix(14,0,0,14,393.1,149)" />
<use xlink:href="#f6_pc" transform="matrix(14,0,0,14,397.4,149)" />
<use xlink:href="#f6_am" transform="matrix(14,0,0,14,156.1,207.4)" />
<use xlink:href="#f6_c7" transform="matrix(14,0,0,14,177.6,207.4)" />
<use xlink:href="#f6_d8" transform="matrix(14,0,0,14,189.7,207.4)" />
<use xlink:href="#f6_bz" transform="matrix(14,0,0,14,201,207.4)" />
<use xlink:href="#f6_ct" transform="matrix(14,0,0,14,214.3,207.4)" />
<use xlink:href="#f6_c1" transform="matrix(14,0,0,14,219.9,207.4)" />
<use xlink:href="#f6_ct" transform="matrix(14,0,0,14,228.3,207.4)" />
<use xlink:href="#f6_by" transform="matrix(14,0,0,14,239.6,207.4)" />
<use xlink:href="#f6_d5" transform="matrix(14,0,0,14,253.7,207.4)" />
<use xlink:href="#f6_n0" transform="matrix(14,0,0,14,253.6,207.4)" />
<use xlink:href="#f6_bg" transform="matrix(14,0,0,14,266.7,207.4)" />
<use xlink:href="#f6_cv" transform="matrix(14,0,0,14,281,207.4)" />
<use xlink:href="#f6_k" transform="matrix(14,0,0,14,286.6,207.4)" />
<use xlink:href="#f6_8f" transform="matrix(14,0,0,14,297.5,207.4)" />
<use xlink:href="#f6_by" transform="matrix(14,0,0,14,305.6,207.4)" />
<use xlink:href="#f6_d5" transform="matrix(14,0,0,14,319.7,207.4)" />
<use xlink:href="#f6_c1" transform="matrix(14,0,0,14,319.6,207.4)" />
<use xlink:href="#f6_c7" transform="matrix(14,0,0,14,328,207.4)" />
<use xlink:href="#f6_bz" transform="matrix(14,0,0,14,345.7,207.4)" />
<use xlink:href="#f6_dj" transform="matrix(14,0,0,14,353.2,207.8)" />
<use xlink:href="#f6_bm" transform="matrix(14,0,0,14,359.1,207.4)" />
<use xlink:href="#f6_c3" transform="matrix(14,0,0,14,371.7,207.4)" />
<use xlink:href="#f6_8g" transform="matrix(14,0,0,14,386.5,207.4)" />
<use xlink:href="#f6_al" transform="matrix(14,0,0,14,400.3,207.4)" />
<use xlink:href="#f6_bg" transform="matrix(14,0,0,14,416.1,207.4)" />
<use xlink:href="#f6_dr" transform="matrix(14,0,0,14,430.9,207.4)" />
<use xlink:href="#f6_b9" transform="matrix(14,0,0,14,436.1,207.4)" />
<use xlink:href="#f6_c1" transform="matrix(14,0,0,14,451.6,207.4)" />
<use xlink:href="#f6_d4" transform="matrix(14,0,0,14,459.5,207.4)" />
<use xlink:href="#f6_k" transform="matrix(14,0,0,14,459.9,207.4)" />
<use xlink:href="#f6_am" transform="matrix(14,0,0,14,101.1,240.6)" />
<use xlink:href="#f6_c7" transform="matrix(14,0,0,14,122.6,240.6)" />
<use xlink:href="#f6_d8" transform="matrix(14,0,0,14,134.7,240.6)" />
<use xlink:href="#f6_bz" transform="matrix(14,0,0,14,146,240.6)" />
<use xlink:href="#f6_ct" transform="matrix(14,0,0,14,159.3,240.6)" />
<use xlink:href="#f6_c1" transform="matrix(14,0,0,14,164.9,240.6)" />
<use xlink:href="#f6_ct" transform="matrix(14,0,0,14,173.3,240.6)" />
<use xlink:href="#f6_by" transform="matrix(14,0,0,14,184.6,240.6)" />
<use xlink:href="#f6_d5" transform="matrix(14,0,0,14,198.7,240.6)" />
<use xlink:href="#f6_n0" transform="matrix(14,0,0,14,198.6,240.6)" />
<use xlink:href="#f6_bg" transform="matrix(14,0,0,14,211.7,240.6)" />
<use xlink:href="#f6_cv" transform="matrix(14,0,0,14,226,240.6)" />
<use xlink:href="#f6_k" transform="matrix(14,0,0,14,231.6,240.6)" />
<use xlink:href="#f6_by" transform="matrix(14,0,0,14,242.5,240.6)" />
<use xlink:href="#f6_l1" transform="matrix(14,0,0,14,256.4,240.6)" />
<use xlink:href="#f6_bp" transform="matrix(14,0,0,14,268.3,240.6)" />
<use xlink:href="#f6_d8" transform="matrix(14,0,0,14,280.6,240.6)" />
<use xlink:href="#f6_c1" transform="matrix(14,0,0,14,291.9,240.6)" />
<use xlink:href="#f6_cv" transform="matrix(14,0,0,14,300.3,240.6)" />
<use xlink:href="#f6_al" transform="matrix(14,0,0,14,311.6,240.6)" />
<use xlink:href="#f6_c1" transform="matrix(14,0,0,14,327.4,240.6)" />
<use xlink:href="#f6_bg" transform="matrix(14,0,0,14,335.8,240.6)" />
<use xlink:href="#f6_cv" transform="matrix(14,0,0,14,350.1,240.6)" />
<use xlink:href="#f6_m1" transform="matrix(14,0,0,14,361.4,240.6)" />
<use xlink:href="#f6_c7" transform="matrix(14,0,0,14,370.1,240.6)" />
<use xlink:href="#f6_cv" transform="matrix(14,0,0,14,382.2,240.6)" />
<use xlink:href="#f6_b9" transform="matrix(14,0,0,14,387.8,240.6)" />
<use xlink:href="#f6_ct" transform="matrix(14,0,0,14,403.3,240.6)" />
<use xlink:href="#f6_c1" transform="matrix(14,0,0,14,409,240.6)" />
<use xlink:href="#f6_d8" transform="matrix(14,0,0,14,417.3,240.6)" />
<use xlink:href="#f6_bz" transform="matrix(14,0,0,14,428.6,240.6)" />
<use xlink:href="#f6_ct" transform="matrix(14,0,0,14,442,240.6)" />
<use xlink:href="#f6_c1" transform="matrix(14,0,0,14,447.6,240.6)" />
<use xlink:href="#f6_ct" transform="matrix(14,0,0,14,456,240.6)" />
<use xlink:href="#f6_by" transform="matrix(14,0,0,14,467.3,240.6)" />
<use xlink:href="#f6_d5" transform="matrix(14,0,0,14,481.4,240.6)" />
<use xlink:href="#f6_n0" transform="matrix(14,0,0,14,481.2,240.6)" />
<use xlink:href="#f6_bg" transform="matrix(14,0,0,14,494.4,240.6)" />
<use xlink:href="#f6_cv" transform="matrix(14,0,0,14,508.6,240.6)" />
<use xlink:href="#f6_k" transform="matrix(14,0,0,14,514.2,240.6)" />
<use xlink:href="#f6_nr" transform="matrix(14,0,0,14,215.7,273.9)" />
<use xlink:href="#f6_c1" transform="matrix(14,0,0,14,221.3,273.9)" />
<use xlink:href="#f6_bz" transform="matrix(14,0,0,14,229.7,273.9)" />
<use xlink:href="#f6_nv" transform="matrix(14,0,0,14,243.1,273.9)" />
<use xlink:href="#f6_bh" transform="matrix(14,0,0,14,248.7,273.9)" />
<use xlink:href="#f6_bz" transform="matrix(14,0,0,14,265.5,273.9)" />
<use xlink:href="#f6_b9" transform="matrix(14,0,0,14,284.5,273.9)" />
<use xlink:href="#f6_c1" transform="matrix(14,0,0,14,300,273.9)" />
<use xlink:href="#f6_bp" transform="matrix(14,0,0,14,308.3,273.9)" />
<use xlink:href="#f6_ct" transform="matrix(14,0,0,14,320.7,273.9)" />
<use xlink:href="#f6_am" transform="matrix(14,0,0,14,331.9,273.9)" />
<use xlink:href="#f6_c7" transform="matrix(14,0,0,14,353.4,273.9)" />
<use xlink:href="#f6_bg" transform="matrix(14,0,0,14,365.5,273.9)" />
<use xlink:href="#f6_d8" transform="matrix(14,0,0,14,379.8,273.9)" />
<use xlink:href="#f6_8l" transform="matrix(14,0,0,14,385.4,273.9)" />
<use xlink:href="#f7_4r" transform="matrix(9,0,0,9,290.2,795.2)" />
<use xlink:href="#f8_s" transform="matrix(9,0,0,9,303,795.2)" />
<use xlink:href="#f8_l" transform="matrix(9,0,0,9,310.7,795.2)" />
<use xlink:href="#f7_4r" transform="matrix(9,0,0,9,321.3,795.2)" />
</g>
</g>
<image preserveAspectRatio="none" x="22" y="801" width="581" height="86" xlink:href="img/1.png"/>
<image preserveAspectRatio="none" x="202" y="14" width="217" height="26" xlink:href="img/2.png"/>
<defs>
<path d="M959,-49L869,8V367c0,0,-32,-13,-64,-13c0,0,-50,0,-110,25c0,0,23,-52,23,-109c0,0,0,-103,-70,-170c0,0,-70,-66,-182,-66c0,0,-110,0,-222,82c0,0,-111,83,-213,293l68,42c0,0,72,-155,152,-231c0,0,81,-76,178,-76c0,0,83,0,131,49c0,0,48,48,48,117c0,0,0,54,-30,100c0,0,-31,47,-91,65L325,391L257,512c0,0,68,53,156,56c0,0,140,72,140,179c0,0,0,69,-52,99c0,0,-4,1,-11,1c-19,0,-66,-4,-123,-30c0,0,-78,-35,-142,-96L150,823c0,0,119,117,253,117c0,0,98,0,175,-71c0,0,77,-70,77,-159c0,0,0,-103,-94,-180c0,0,39,-23,73,-56c0,0,52,-22,109,-22c0,0,77,0,126,38V822H727l-46,76l14,31h840l46,-76l-13,-31H1332l66,-58V-39l-37,-10L1271,8V822H930l66,-58V-39L959,-49Z"
id="f6_am"
transform="scale(0.001,-0.001)"/>

<path d="M325,240c0,0,77,0,154,35c0,0,77,35,120,99V500c0,0,-118,73,-222,73c0,0,-97,0,-151,-54c0,0,-53,-53,-53,-128c0,0,0,-73,49,-125c0,0,38,-26,103,-26ZM689,-49L599,8V199c0,0,-73,-65,-179,-65c0,0,-134,0,-252,96c0,0,-118,95,-118,221c0,0,0,102,78,171c0,0,78,69,190,69c0,0,38,0,75,-10L599,582V822H0l-45,76l14,31H863l46,-76L895,822H660l66,-58V-39L689,-49Z"
id="f6_c7"
transform="scale(0.001,-0.001)"/>

<path d="M228,-49L138,8V822H0l-45,76l14,31H119L-33,1144c0,0,-70,92,-157,92c0,0,-69,0,-159,-58l-72,118c0,0,89,73,181,73c0,0,140,0,257,-170L205,929H402l46,-76L434,822H199l65,-58V-39L228,-49Z"
id="f6_d8"
transform="scale(0.001,-0.001)"/>

<path d="M689,445V822H286l65,-58l8,-319ZM779,-49L689,8V328H370V180L296,150c0,0,-56,35,-120,104c0,0,-63,70,-89,131l41,60H238L223,822H0l-45,76l14,31H953l46,-76L985,822H750l66,-58V-39L779,-49Z"
id="f6_bz"
transform="scale(0.001,-0.001)"/>

<path d="M228,-49L138,8V822H0l-45,76l14,31H402l46,-76L434,822H199l65,-58V-39L228,-49Z"
id="f6_ct"
transform="scale(0.001,-0.001)"/>

<path d="M527,-71L52,414l34,92H277c0,0,12,32,12,72V822H0l-45,76l14,31H599l46,-76L631,822H350l66,-55V564c0,0,0,-96,-152,-248L610,34L611,8L527,-71Z"
id="f6_c1"
transform="scale(0.001,-0.001)"/>

<path d="M823,-49L733,8V339H445V191L371,160c0,0,-56,36,-120,105c0,0,-63,70,-89,131l41,59H313V735c0,0,0,99,-55,140c0,0,-3,1,-8,1c-16,0,-48,-3,-71,-23c0,0,-31,-26,-31,-66c0,0,0,-69,81,-113L189,620C189,620,31,720,31,828c0,0,0,61,45,99c0,0,46,37,109,37c0,0,96,0,173,-86c0,0,76,-87,79,-194V455H733V822H556l-46,76l14,31H998l45,-76l-13,-31H794l66,-58V-39L823,-49Z"
id="f6_by"
transform="scale(0.001,-0.001)"/>

<path d="M-214,860l-227,219c0,0,-73,70,-148,70c0,0,-67,0,-160,-58l-72,117c0,0,83,71,176,71c0,0,120,0,232,-124L-221,940l-102,294c0,0,-64,179,-189,179c0,0,-60,0,-133,-33l-60,125c0,0,84,47,164,47c0,0,200,0,281,-276L-150,901l-23,-15l-41,-26Z"
id="f6_d5"
transform="scale(0.001,-0.001)"/>

<path d="M527,-71L52,414l34,92H277c0,0,12,32,12,72V822H0l-45,76l14,31H940l45,-76L972,822H350l66,-55V570c0,0,146,98,247,98c0,0,95,0,167,-73c0,0,71,-72,71,-167c0,0,0,-77,-53,-142c0,0,-54,-64,-159,-136l-89,99c0,0,100,70,152,121c0,0,52,52,52,105c0,0,0,34,-23,60c0,0,-22,26,-72,26c0,0,-139,0,-434,-252L610,34L611,8L527,-71Z"
id="f6_n0"
transform="scale(0.001,-0.001)"/>

<path d="M845,-49L755,8V513H497c0,0,61,-45,93,-110c0,0,33,-64,33,-128c0,0,0,-90,-58,-144c0,0,-59,-53,-143,-53c0,0,-133,0,-234,139C188,217,87,356,20,596l76,24c0,0,60,-201,127,-306c0,0,67,-105,160,-105c0,0,57,0,91,36c0,0,33,36,33,91c0,0,0,84,-73,159L295,558v71H755V822H0l-45,76l14,31H1019l46,-76l-14,-31H816l66,-58V-39L845,-49Z"
id="f6_bg"
transform="scale(0.001,-0.001)"/>

<path d="M228,-49L138,8V822H0l-45,76l14,31H138c0,0,-109,342,-284,342c0,0,-62,0,-102,-40c0,0,-40,-39,-40,-93c0,0,0,-61,51,-134l-42,-32c0,0,-128,113,-128,226c0,0,0,79,60,136c0,0,61,56,154,56c0,0,137,0,249,-125c0,0,112,-125,169,-336H402l46,-76L434,822H199l65,-58V-39L228,-49Z"
id="f6_cv"
transform="scale(0.001,-0.001)"/>

<path d="M108,-222l-44,58c0,0,96,81,104,164L89,61c0,0,12,83,93,122c0,0,50,-15,79,-55c0,0,29,-39,29,-90c0,0,0,-69,-48,-142c0,0,-48,-72,-134,-118Z"
id="f6_k"
transform="scale(0.001,-0.001)"/>

<path d="M727,-49L637,8V822H278l66,-58V226L270,196c0,0,-64,36,-122,98c0,0,-58,62,-79,122l43,59H217V822H0l-45,76l14,31H901l46,-76L933,822H698l66,-58V-39L727,-49Z"
id="f6_bb"
transform="scale(0.001,-0.001)"/>

<path d="M347,-57C347,-57,66,211,66,394c0,0,0,98,74,164c0,0,74,65,225,65H616V822H0l-45,76l14,31H880l46,-76L912,822H677l66,-58V-39L706,-49L616,8V500H428c0,0,-239,0,-239,-161c0,0,0,-136,214,-343L347,-57Z"
id="f6_bp"
transform="scale(0.001,-0.001)"/>

<path d="M-91,1001c0,0,-27,10,-61,36c0,0,-33,26,-50,49c0,0,38,81,90,110c0,0,61,-23,107,-85c0,0,-28,-71,-86,-110ZM-214,863l-199,281c0,0,-70,92,-157,92c0,0,-69,0,-159,-58l-72,118c0,0,89,73,180,73c0,0,141,0,258,-170L-155,901l-59,-38Z"
id="f6_oz"
transform="scale(0.001,-0.001)"/>

<path d="M652,-518c0,0,-209,0,-487,322l53,49c0,0,120,-129,210,-193c0,0,90,-65,177,-65c0,0,72,0,113,39c0,0,41,40,41,92c0,0,0,75,-78,105L564,-286l-90,98c0,0,62,96,169,96L605,37C605,37,552,18,498,18c0,0,-151,0,-288,115C210,133,73,248,73,388c0,0,0,113,84,184c0,0,84,71,222,73H524V822H0l-45,76l14,31H842l46,-76L874,822H567l84,-73V519l-3,2l3,-3H408c0,0,-93,0,-153,-52c0,0,-59,-52,-59,-128c0,0,0,-121,110,-188c0,0,53,-17,105,-17c0,0,92,0,153,43L535,318l101,49L773,203c0,0,-20,-67,-87,-122l61,-204c0,0,52,-32,83,-87c0,0,32,-55,32,-116c0,0,0,-85,-61,-139c0,0,-60,-53,-149,-53Z"
id="f6_mv"
transform="scale(0.001,-0.001)"/>

<path d="M163,118c0,0,-65,24,-102,79c0,0,32,69,83,101c0,0,55,-20,99,-80c0,0,-26,-67,-80,-100Zm0,382c0,0,-65,24,-102,79c0,0,32,69,83,101c0,0,55,-20,99,-80c0,0,-26,-67,-80,-100Z"
id="f6_dk"
transform="scale(0.001,-0.001)"/>

<path d="M761,293c0,0,127,0,169,94V532c0,0,-68,46,-145,46c0,0,-76,0,-121,-46c0,0,-45,-45,-45,-107c0,0,0,-61,44,-110c0,0,47,-22,98,-22ZM657,67c0,0,166,0,273,107v55c0,0,-45,-36,-111,-36c0,0,-110,0,-207,90c0,0,-97,90,-97,194c0,0,0,85,66,148c0,0,65,63,155,63l48,-5L930,603V822H376l62,-55V579c0,0,0,-60,-23,-102c0,0,-24,-42,-148,-190c0,0,66,-104,175,-162c0,0,108,-58,215,-58ZM1021,-49L930,8V53c0,0,-105,-83,-264,-83c0,0,-177,0,-339,128C327,98,165,226,90,429l34,77H296c0,0,19,39,19,102l-2,214H0l-45,76l14,31H1195l46,-76l-14,-31H992l65,-58V-39l-36,-10Z"
id="f6_ba"
transform="scale(0.001,-0.001)"/>

<path d="M434,225c0,0,84,0,169,42c0,0,85,43,126,126V822H267c0,0,-64,-49,-64,-115c0,0,0,-79,90,-126c0,0,60,35,144,35l67,-6l75,-89L564,490l-51,7H493c0,0,-90,0,-142,-43c0,0,-52,-43,-52,-104c0,0,0,-60,51,-109c0,0,33,-16,84,-16ZM819,-49L729,8V197c0,0,-83,-76,-202,-76c0,0,-130,0,-237,91c0,0,-108,92,-108,196c0,0,0,72,53,128c0,0,-75,42,-115,97c0,0,-41,56,-41,113c0,0,0,38,22,76H0l-45,76l14,31H993l46,-76l-14,-31H790l66,-58V-39L819,-49Z"
id="f6_bc"
transform="scale(0.001,-0.001)"/>

<path d="M342,324c0,0,45,0,75,34c0,0,31,33,31,100V822H165l66,-58V390c0,0,32,-66,111,-66ZM853,-49L762,8V822H509l65,-58V455c0,0,0,-134,-51,-185c0,0,-52,-52,-127,-52c0,0,-98,0,-195,99c0,0,-97,99,-97,209V822H0l-45,76l14,31H1027l46,-76l-14,-31H823l66,-58V-39L853,-49Z"
id="f6_bo"
transform="scale(0.001,-0.001)"/>

<path d="M374,248c0,0,77,0,149,36c0,0,71,37,110,107V822H284c0,0,138,-96,138,-208c0,0,0,-151,-228,-192c0,0,29,-104,89,-158c0,0,41,-16,91,-16ZM723,-49L633,8V200c0,0,-69,-56,-170,-56c0,0,-122,0,-240,94c0,0,-118,94,-179,237l20,55c0,0,133,17,187,44c0,0,55,28,55,84c0,0,0,45,-30,81c0,0,-30,36,-99,83H0l-45,76l14,31H897l46,-76L929,822H694l65,-58V-39L723,-49Z"
id="f6_c0"
transform="scale(0.001,-0.001)"/>

<path d="M548,-57c0,0,-122,0,-243,81c0,0,-122,81,-252,280l57,41C110,345,283,64,498,64c0,0,92,0,153,49c0,0,61,49,61,121c0,0,0,46,-28,84L440,237c0,0,-73,11,-139,55c0,0,-66,44,-105,105c0,0,-40,61,-40,119c0,0,0,72,62,125c0,0,62,53,184,53H625V822H0l-45,76l14,31H906l46,-76L938,822H678l66,-58V562H431c0,0,-164,0,-164,-99c0,0,0,-55,57,-102l261,82c0,0,104,-21,172,-98c0,0,68,-78,68,-171c0,0,0,-99,-76,-166c0,0,-77,-65,-201,-65Z"
id="f6_bm"
transform="scale(0.001,-0.001)"/>

<path d="M228,-49L138,8V822H0l-45,76l14,31H134c0,0,-91,93,-91,202c0,0,0,105,85,170c0,0,86,65,236,65c0,0,340,0,742,-350l-50,-46c0,0,-182,135,-340,208c0,0,-158,73,-302,73c0,0,-113,0,-183,-48c0,0,-69,-48,-69,-132c0,0,0,-63,53,-142H402l46,-76L434,822H199l65,-58V-39L228,-49Z"
id="f6_nt"
transform="scale(0.001,-0.001)"/>

<path d="M487,-7c0,0,-88,0,-185,46c0,0,-97,47,-163,130c0,0,-66,83,-66,185c0,0,0,109,80,177c0,0,79,68,234,68H504V822H0l-45,76l14,31H827l45,-76L859,822H565l66,-58V474l-3,1l3,-3H396c0,0,-100,0,-152,-47c0,0,-53,-48,-53,-119c0,0,0,-104,93,-178c0,0,60,-20,118,-20c0,0,81,0,156,36c0,0,76,35,123,99l92,-99C773,144,723,70,645,31C645,31,567,-7,487,-7Z"
id="f6_bk"
transform="scale(0.001,-0.001)"/>

<path d="M228,-49L138,8V822H0l-45,76l14,31H133c0,0,-93,95,-93,206c0,0,0,96,68,159c0,0,68,63,179,63c0,0,118,0,228,-81c0,0,110,-80,258,-262L720,970L588,1109c0,0,-133,133,-253,133c0,0,-78,0,-127,-46c0,0,-49,-46,-49,-119c0,0,0,-69,56,-148H402l46,-76L434,822H199l65,-58V-39L228,-49Z"
id="f6_nr"
transform="scale(0.001,-0.001)"/>

<path d="M228,-49L138,8V822H0l-45,76l14,31H134c0,0,-90,95,-90,199c0,0,0,111,99,177c0,0,98,67,271,67c0,0,202,0,439,-91c0,0,238,-91,475,-263l-48,-49c0,0,-469,288,-812,288c0,0,-138,0,-220,-49c0,0,-83,-50,-83,-142c0,0,0,-64,50,-137H402l46,-76L434,822H199l65,-58V-39L228,-49Z"
id="f6_nv"
transform="scale(0.001,-0.001)"/>

<path d="M252,385l310,78l22,-9c0,0,107,-43,200,-43c0,0,91,0,151,41V822H603l66,-58V585H373c0,0,-184,0,-184,-99c0,0,0,-48,63,-101ZM483,-305L295,-10c0,0,-90,22,-156,74l41,170h66L351,63c0,0,126,4,207,62c0,0,82,58,82,139c0,0,0,37,-18,71L365,266c0,0,-110,15,-197,102c0,0,-87,87,-87,176c0,0,0,69,59,117c0,0,59,48,172,48H550V822H0l-45,76l14,31H1199l46,-76l-14,-31H996l66,-58V-39l-37,-10L935,8V318c0,0,-41,-15,-78,-15c0,0,-52,0,-131,30c0,0,32,-55,32,-111c0,0,0,-109,-98,-179c0,0,-98,-69,-254,-69L599,-216L483,-305Z"
id="f6_bh"
transform="scale(0.001,-0.001)"/>

<path d="M283,260c0,0,122,0,209,113V513c0,0,-90,51,-160,51c0,0,-80,0,-129,-50c0,0,-49,-50,-49,-118c0,0,0,-60,35,-110c0,0,45,-26,94,-26ZM582,-49L492,8V211c0,0,-63,-54,-141,-54c0,0,-113,0,-213,92c0,0,-100,92,-100,205c0,0,0,93,69,157c0,0,69,64,162,64c0,0,32,0,64,-9L492,590V822H0l-45,76l14,31H1108l45,-76l-13,-31H553l66,-58V524c0,0,91,89,192,89c0,0,98,0,171,-79c0,0,72,-79,72,-186c0,0,0,-178,-224,-330L736,124c0,0,219,153,219,269c0,0,0,44,-26,75c0,0,-26,32,-81,32c0,0,-109,0,-229,-155V-39L582,-49Z"
id="f6_b9"
transform="scale(0.001,-0.001)"/>

<path d="M226,-49c0,0,-66,24,-102,78c0,0,32,69,82,101c0,0,55,-20,100,-80c0,0,-26,-66,-80,-99Z"
id="f6_pc"
transform="scale(0.001,-0.001)"/>

<path d="M154,752c0,0,-108,44,-108,143c0,0,0,74,48,145c0,0,48,71,134,118l44,-58c0,0,-43,-31,-72,-76c0,0,-29,-46,-32,-89l80,-61c0,0,-4,-38,-30,-72c0,0,-25,-34,-64,-50Zm251,0c0,0,-109,44,-109,143c0,0,0,74,49,145c0,0,48,71,133,118l45,-58c0,0,-43,-31,-72,-76c0,0,-29,-46,-32,-89l79,-61c0,0,-3,-38,-29,-72c0,0,-26,-34,-64,-50Z"
id="f6_8f"
transform="scale(0.001,-0.001)"/>

<path d="M0,1062c0,0,-26,11,-60,36c0,0,-34,26,-51,49c0,0,39,81,91,110c0,0,60,-23,106,-85c0,0,-28,-70,-86,-110Z"
id="f6_dj"
transform="scale(0.001,-0.001)"/>

<path d="M413,-59C413,-59,53,193,53,416c0,0,0,97,66,164c0,0,66,66,156,66c0,0,61,0,110,-30L487,507c0,0,92,126,257,126l35,-2V822H0l-45,76l14,31H1043l46,-76l-13,-31H840l66,-58V-39L869,-49L779,8V547c0,0,-101,-5,-165,-90c0,0,-64,-86,-70,-222L507,225l-90,73c0,0,5,79,35,151c0,0,-59,66,-128,66c0,0,-57,0,-100,-38c0,0,-44,-39,-44,-109c0,0,0,-165,284,-360L413,-59Z"
id="f6_c3"
transform="scale(0.001,-0.001)"/>

<path d="M105,752L61,810c0,0,43,30,72,76c0,0,29,46,32,89l-79,61c0,0,3,38,29,72c0,0,26,33,64,50c0,0,110,-43,110,-148c0,0,0,-72,-50,-141c0,0,-50,-70,-134,-117Zm249,0l-44,58c0,0,43,30,72,76c0,0,29,46,32,89l-79,61c0,0,3,38,29,72c0,0,26,33,64,50c0,0,110,-43,110,-148c0,0,0,-72,-50,-141c0,0,-50,-70,-134,-117Z"
id="f6_8g"
transform="scale(0.001,-0.001)"/>

<path d="M959,-49L869,8V367c0,0,-32,-13,-64,-13c0,0,-50,0,-110,25c0,0,23,-52,23,-109c0,0,0,-103,-70,-170c0,0,-70,-66,-182,-66c0,0,-110,0,-222,82c0,0,-111,83,-213,293l68,42c0,0,72,-155,152,-231c0,0,81,-76,178,-76c0,0,83,0,131,49c0,0,48,48,48,117c0,0,0,54,-30,100c0,0,-31,47,-91,65L325,391L257,512c0,0,68,53,156,56c0,0,140,72,140,179c0,0,0,69,-52,99c0,0,-4,1,-11,1c-19,0,-66,-4,-123,-30c0,0,-78,-35,-142,-96L150,823c0,0,119,117,253,117c0,0,98,0,175,-71c0,0,77,-70,77,-159c0,0,0,-103,-94,-180c0,0,39,-23,73,-56c0,0,52,-22,109,-22c0,0,77,0,126,38V822H727l-46,76l14,31h439l45,-76l-13,-31H930l66,-58V-39L959,-49Z"
id="f6_al"
transform="scale(0.001,-0.001)"/>

<path d="M-239,897c0,0,-82,61,-132,137c0,0,-50,75,-50,150c0,0,0,78,52,133c0,0,52,55,141,55c0,0,98,0,176,-64l-23,-69c0,0,-52,32,-104,32c0,0,-57,0,-95,-36c0,0,-38,-36,-38,-95c0,0,0,-115,117,-217l-44,-26Z"
id="f6_dr"
transform="scale(0.001,-0.001)"/>

<path d="M-214,863l-199,281c0,0,-70,92,-157,92c0,0,-69,0,-159,-58l-72,118c0,0,89,73,180,73c0,0,141,0,258,-170L-155,901l-59,-38Z"
id="f6_d4"
transform="scale(0.001,-0.001)"/>

<path d="M283,260c0,0,122,0,209,113V513c0,0,-90,51,-160,51c0,0,-80,0,-129,-50c0,0,-49,-50,-49,-118c0,0,0,-60,35,-110c0,0,45,-26,94,-26ZM582,-49L492,8V211c0,0,-63,-54,-141,-54c0,0,-113,0,-214,92c0,0,-102,92,-102,206c0,0,0,93,69,157c0,0,69,63,163,63c0,0,34,0,66,-9L492,590V822H0l-45,76l14,31H909l46,-76L941,822H553l66,-58V521c0,0,93,104,192,104c0,0,63,0,120,-42c0,0,57,-42,82,-106L964,431l-5,9c0,0,-38,72,-110,72c0,0,-51,0,-105,-41c0,0,-53,-42,-125,-129V-39L582,-49Z"
id="f6_l1"
transform="scale(0.001,-0.001)"/>

<path d="M527,-71L52,414l34,92H277c0,0,12,32,12,72V822H0l-45,76l14,31H654l46,-76L686,822H350l66,-55V564c0,0,0,-43,-25,-89H782L798,370H315L264,316L610,34L611,8L527,-71Z"
id="f6_m1"
transform="scale(0.001,-0.001)"/>

<path d="M254,-26c0,0,-84,16,-116,92c0,0,13,84,97,127c0,0,100,-36,112,-110C347,83,324,6,254,-26Zm458,0c0,0,-84,16,-116,92c0,0,14,84,98,127c0,0,99,-37,111,-110C805,83,782,6,712,-26Zm458,0c0,0,-84,16,-116,92c0,0,14,84,98,127c0,0,99,-36,111,-110c0,0,-22,-77,-93,-109Z"
id="f6_8l"
transform="scale(0.001,-0.001)"/>

<path d="M725,307c0,0,-95,0,-218,78c0,0,-123,78,-188,78c0,0,-54,0,-95,-34c0,0,-41,-34,-73,-100L93,362c0,0,38,88,101,146c0,0,63,59,148,59c0,0,90,0,214,-78c0,0,124,-79,188,-79c0,0,63,0,106,34c0,0,42,33,85,104l60,-40c0,0,-32,-66,-101,-134c0,0,-70,-67,-169,-67Z"
id="f7_4r"
transform="scale(0.001,-0.001)"/>

<path d="M423,92c0,0,97,0,159,62c0,0,62,62,62,157c0,0,0,97,-64,160c0,0,-64,64,-161,64c0,0,-96,0,-158,-63c0,0,-62,-62,-62,-156c0,0,0,-58,27,-111c0,0,27,-54,81,-84c0,0,54,-29,116,-29Zm0,552c0,0,78,0,127,49c0,0,49,49,49,120c0,0,0,74,-50,124c0,0,-51,51,-128,51c0,0,-77,0,-127,-50c0,0,-51,-49,-51,-118c0,0,0,-77,50,-126c0,0,50,-50,130,-50ZM422,-18c0,0,-162,0,-261,95c0,0,-99,96,-99,239c0,0,0,107,54,179c0,0,54,72,154,98c0,0,-84,31,-124,87c0,0,-40,57,-40,136c0,0,0,119,85,201c0,0,86,81,229,81c0,0,143,0,230,-83c0,0,87,-83,87,-203c0,0,0,-76,-40,-132c0,0,-39,-56,-121,-87c0,0,101,-33,154,-106c0,0,52,-73,52,-174c0,0,0,-141,-99,-236c0,0,-99,-95,-261,-95Z"
id="f8_s"
transform="scale(0.001,-0.001)"/>

<path d="M435,0V856c0,0,-48,-47,-127,-93c0,0,-79,-46,-142,-69V824c0,0,113,52,197,128c0,0,85,75,120,146h86V0Z"
id="f8_l"
transform="scale(0.001,-0.001)"/>


</defs>
</svg>