<?xml version="1.0" encoding="UTF-8" standalone="no"?>
<!DOCTYPE svg PUBLIC "-//W3C//DTD SVG 1.1//EN"
"http://www.w3.org/Graphics/SVG/1.1/DTD/svg11.dtd">
<svg viewBox="0 0 641 910" version="1.1" xmlns="http://www.w3.org/2000/svg" xmlns:xlink="http://www.w3.org/1999/xlink">
<defs>
<clipPath id="c0_47"><path d="M0,909.8V0H641.7V909.8Z"/></clipPath>
<clipPath id="c1_47"><path d="M0,908.6V0H641.7V908.6Z"/></clipPath>
<style type="text/css"><![CDATA[
.g0_47{
fill: #FFFFFF;
}
.g1_47{
}
]]></style>
</defs>
<path d="M0,0H641.7V909.8H0V0Z" class="g0_47"/>
<path d="M0,0H641.7V909.8H0V0Z" class="g0_47"/>
<g clip-path="url(#c0_47)">
<path d="M0,-36391.6H641.7V70054H0V-36391.6Z" class="g0_47"/>
</g>
<path d="M0,0H641.7V908.6H0V0Z" class="g0_47"/>
<path d="M19.5,60.7H602.7v1.2H19.5V60.7Z" class="g1_47"/>
<g clip-path="url(#c1_47)">
<path d="M0,61.9H641.7V909.8H0V61.9Z" class="g0_47"/>
<g fill="#000000" >
<use xlink:href="#f5_bp" transform="matrix(14,0,0,14,238.6,96.3)" />
<use xlink:href="#f5_cw" transform="matrix(14,0,0,14,252.4,96.2)" />
<use xlink:href="#f5_bz" transform="matrix(14,0,0,14,252.1,96.3)" />
<use xlink:href="#f5_cb" transform="matrix(14,0,0,14,266.7,96.3)" />
<use xlink:href="#f5_d4" transform="matrix(14,0,0,14,283.3,96.3)" />
<use xlink:href="#f5_c3" transform="matrix(14,0,0,14,289,96.3)" />
<use xlink:href="#f5_ct" transform="matrix(14,0,0,14,305.4,96.3)" />
<use xlink:href="#f5_bb" transform="matrix(14,0,0,14,311.8,96.3)" />
<use xlink:href="#f5_cv" transform="matrix(14,0,0,14,326,96.3)" />
<use xlink:href="#f5_c3" transform="matrix(14,0,0,14,338.2,96.3)" />
<use xlink:href="#f5_bb" transform="matrix(14,0,0,14,354.5,96.3)" />
<use xlink:href="#f5_bt" transform="matrix(14,0,0,14,368.7,96.3)" />
<use xlink:href="#f6_bp" transform="matrix(14,0,0,14,172.2,129.5)" />
<use xlink:href="#f6_cw" transform="matrix(14,0,0,14,185,129.4)" />
<use xlink:href="#f6_bz" transform="matrix(14,0,0,14,184.5,129.5)" />
<use xlink:href="#f6_cb" transform="matrix(14,0,0,14,197.8,129.5)" />
<use xlink:href="#f6_d4" transform="matrix(14,0,0,14,212.8,129.5)" />
<use xlink:href="#f6_c3" transform="matrix(14,0,0,14,218.4,129.5)" />
<use xlink:href="#f6_ct" transform="matrix(14,0,0,14,233.1,129.5)" />
<use xlink:href="#f6_bb" transform="matrix(14,0,0,14,238.7,129.5)" />
<use xlink:href="#f6_cv" transform="matrix(14,0,0,14,251.3,129.5)" />
<use xlink:href="#f6_c3" transform="matrix(14,0,0,14,262.6,129.5)" />
<use xlink:href="#f6_bb" transform="matrix(14,0,0,14,277.3,129.5)" />
<use xlink:href="#f6_bt" transform="matrix(14,0,0,14,289.9,129.5)" />
<use xlink:href="#f6_k" transform="matrix(14,0,0,14,301.6,129.5)" />
<use xlink:href="#f6_c3" transform="matrix(14,0,0,14,312.5,129.5)" />
<use xlink:href="#f6_d4" transform="matrix(14,0,0,14,327.4,129.5)" />
<use xlink:href="#f6_c3" transform="matrix(14,0,0,14,332.9,129.5)" />
<use xlink:href="#f6_d8" transform="matrix(14,0,0,14,347.6,129.5)" />
<use xlink:href="#f6_al" transform="matrix(14,0,0,14,358.9,129.5)" />
<use xlink:href="#f6_bv" transform="matrix(14,0,0,14,374.7,129.5)" />
<use xlink:href="#f6_bt" transform="matrix(14,0,0,14,386.6,129.5)" />
<use xlink:href="#f6_cv" transform="matrix(14,0,0,14,398.3,129.5)" />
<use xlink:href="#f6_c8" transform="matrix(14,0,0,14,409.6,129.5)" />
<use xlink:href="#f6_c1" transform="matrix(14,0,0,14,425.5,129.5)" />
<use xlink:href="#f6_bo" transform="matrix(14,0,0,14,433.9,129.5)" />
<use xlink:href="#f6_bv" transform="matrix(14,0,0,14,164.2,162.7)" />
<use xlink:href="#f6_ct" transform="matrix(14,0,0,14,176,162.7)" />
<use xlink:href="#f6_c1" transform="matrix(14,0,0,14,181.6,162.7)" />
<use xlink:href="#f6_cb" transform="matrix(14,0,0,14,190,162.7)" />
<use xlink:href="#f6_ll" transform="matrix(14,0,0,14,210.6,162.7)" />
<use xlink:href="#f6_c0" transform="matrix(14,0,0,14,217,162.7)" />
<use xlink:href="#f6_ct" transform="matrix(14,0,0,14,229.6,162.7)" />
<use xlink:href="#f6_c1" transform="matrix(14,0,0,14,235.2,162.7)" />
<use xlink:href="#f6_ct" transform="matrix(14,0,0,14,243.6,162.7)" />
<use xlink:href="#f6_k" transform="matrix(14,0,0,14,249.2,162.7)" />
<use xlink:href="#f6_bz" transform="matrix(14,0,0,14,260.1,162.7)" />
<use xlink:href="#f6_d4" transform="matrix(14,0,0,14,273.5,162.7)" />
<use xlink:href="#f6_bk" transform="matrix(14,0,0,14,273.4,162.7)" />
<use xlink:href="#f6_d8" transform="matrix(14,0,0,14,285,162.7)" />
<use xlink:href="#f6_bz" transform="matrix(14,0,0,14,296.2,162.7)" />
<use xlink:href="#f6_d4" transform="matrix(14,0,0,14,309.7,162.7)" />
<use xlink:href="#f6_bk" transform="matrix(14,0,0,14,309.6,162.7)" />
<use xlink:href="#f6_d8" transform="matrix(14,0,0,14,321.2,162.7)" />
<use xlink:href="#f6_bg" transform="matrix(14,0,0,14,326.8,162.7)" />
<use xlink:href="#f6_cv" transform="matrix(14,0,0,14,341,162.7)" />
<use xlink:href="#f6_cb" transform="matrix(14,0,0,14,352.3,162.7)" />
<use xlink:href="#f6_dj" transform="matrix(14,0,0,14,360.9,163.1)" />
<use xlink:href="#f6_b9" transform="matrix(14,0,0,14,367.2,162.7)" />
<use xlink:href="#f6_bk" transform="matrix(14,0,0,14,382.7,162.7)" />
<use xlink:href="#f6_cc" transform="matrix(14,0,0,14,399.9,162.7)" />
<use xlink:href="#f6_bz" transform="matrix(14,0,0,14,411.5,162.7)" />
<use xlink:href="#f6_ct" transform="matrix(14,0,0,14,424.9,162.7)" />
<use xlink:href="#f6_c1" transform="matrix(14,0,0,14,430.5,162.7)" />
<use xlink:href="#f6_ct" transform="matrix(14,0,0,14,438.9,162.7)" />
<use xlink:href="#f6_pc" transform="matrix(14,0,0,14,444.5,162.7)" />
<use xlink:href="#f6_pc" transform="matrix(14,0,0,14,448.8,162.7)" />
<use xlink:href="#f6_pc" transform="matrix(14,0,0,14,453,162.7)" />
<use xlink:href="#f6_cu" transform="matrix(14,0,0,14,176.8,229.2)" />
<use xlink:href="#f6_bt" transform="matrix(14,0,0,14,182.4,229.2)" />
<use xlink:href="#f6_c8" transform="matrix(14,0,0,14,194.1,229.2)" />
<use xlink:href="#f6_cu" transform="matrix(14,0,0,14,215.6,229.2)" />
<use xlink:href="#f6_br" transform="matrix(14,0,0,14,221.2,229.2)" />
<use xlink:href="#f6_bt" transform="matrix(14,0,0,14,232.9,229.2)" />
<use xlink:href="#f6_bp" transform="matrix(14,0,0,14,250.3,229.2)" />
<use xlink:href="#f6_cw" transform="matrix(14,0,0,14,263.1,229.1)" />
<use xlink:href="#f6_bh" transform="matrix(14,0,0,14,262.6,229.2)" />
<use xlink:href="#f6_b9" transform="matrix(14,0,0,14,279.4,229.2)" />
<use xlink:href="#f6_d8" transform="matrix(14,0,0,14,294.9,229.2)" />
<use xlink:href="#f6_bg" transform="matrix(14,0,0,14,306.2,229.2)" />
<use xlink:href="#f6_bv" transform="matrix(14,0,0,14,320.4,229.2)" />
<use xlink:href="#f6_cw" transform="matrix(14,0,0,14,332.8,229.1)" />
<use xlink:href="#f6_dj" transform="matrix(14,0,0,14,326.6,229.6)" />
<use xlink:href="#f6_k" transform="matrix(14,0,0,14,332.3,229.2)" />
<use xlink:href="#f6_bv" transform="matrix(14,0,0,14,343.2,229.2)" />
<use xlink:href="#f6_c1" transform="matrix(14,0,0,14,355,229.2)" />
<use xlink:href="#f6_cb" transform="matrix(14,0,0,14,363.4,229.2)" />
<use xlink:href="#f6_d4" transform="matrix(14,0,0,14,378.4,229.2)" />
<use xlink:href="#f6_bt" transform="matrix(14,0,0,14,384,229.2)" />
<use xlink:href="#f6_d4" transform="matrix(14,0,0,14,395.8,229.2)" />
<use xlink:href="#f6_cc" transform="matrix(14,0,0,14,395.7,229.2)" />
<use xlink:href="#f6_ct" transform="matrix(14,0,0,14,407.3,229.2)" />
<use xlink:href="#f6_bp" transform="matrix(14,0,0,14,418.6,229.2)" />
<use xlink:href="#f6_bg" transform="matrix(14,0,0,14,430.9,229.2)" />
<use xlink:href="#f6_cw" transform="matrix(14,0,0,14,445.7,229.1)" />
<use xlink:href="#f6_bg" transform="matrix(14,0,0,14,164.2,262.4)" />
<use xlink:href="#f6_cv" transform="matrix(14,0,0,14,178.4,262.4)" />
<use xlink:href="#f6_c7" transform="matrix(14,0,0,14,184,262.4)" />
<use xlink:href="#f6_bt" transform="matrix(14,0,0,14,196.1,262.4)" />
<use xlink:href="#f6_cb" transform="matrix(14,0,0,14,213.5,262.4)" />
<use xlink:href="#f6_ct" transform="matrix(14,0,0,14,228.4,262.4)" />
<use xlink:href="#f6_c1" transform="matrix(14,0,0,14,234,262.4)" />
<use xlink:href="#f6_ct" transform="matrix(14,0,0,14,242.4,262.4)" />
<use xlink:href="#f6_k" transform="matrix(14,0,0,14,248,262.4)" />
<use xlink:href="#f6_bz" transform="matrix(14,0,0,14,258.9,262.4)" />
<use xlink:href="#f6_d4" transform="matrix(14,0,0,14,272.3,262.4)" />
<use xlink:href="#f6_bk" transform="matrix(14,0,0,14,272.2,262.4)" />
<use xlink:href="#f6_d8" transform="matrix(14,0,0,14,283.8,262.4)" />
<use xlink:href="#f6_bz" transform="matrix(14,0,0,14,295.1,262.4)" />
<use xlink:href="#f6_d4" transform="matrix(14,0,0,14,308.5,262.4)" />
<use xlink:href="#f6_bk" transform="matrix(14,0,0,14,308.4,262.4)" />
<use xlink:href="#f6_d8" transform="matrix(14,0,0,14,320,262.4)" />
<use xlink:href="#f6_bg" transform="matrix(14,0,0,14,325.6,262.4)" />
<use xlink:href="#f6_cv" transform="matrix(14,0,0,14,339.9,262.4)" />
<use xlink:href="#f6_cb" transform="matrix(14,0,0,14,351.1,262.4)" />
<use xlink:href="#f6_dj" transform="matrix(14,0,0,14,359.7,262.8)" />
<use xlink:href="#f6_b9" transform="matrix(14,0,0,14,366,262.4)" />
<use xlink:href="#f6_bk" transform="matrix(14,0,0,14,381.5,262.4)" />
<use xlink:href="#f6_cc" transform="matrix(14,0,0,14,398.7,262.4)" />
<use xlink:href="#f6_bz" transform="matrix(14,0,0,14,410.4,262.4)" />
<use xlink:href="#f6_ct" transform="matrix(14,0,0,14,423.7,262.4)" />
<use xlink:href="#f6_c1" transform="matrix(14,0,0,14,429.3,262.4)" />
<use xlink:href="#f6_ct" transform="matrix(14,0,0,14,437.7,262.4)" />
<use xlink:href="#f6_pc" transform="matrix(14,0,0,14,443.3,262.4)" />
<use xlink:href="#f6_pc" transform="matrix(14,0,0,14,447.6,262.4)" />
<use xlink:href="#f6_pc" transform="matrix(14,0,0,14,451.9,262.4)" />
<use xlink:href="#f6_bp" transform="matrix(14,0,0,14,232.9,295.6)" />
<use xlink:href="#f6_cw" transform="matrix(14,0,0,14,245.8,295.5)" />
<use xlink:href="#f6_bz" transform="matrix(14,0,0,14,245.2,295.6)" />
<use xlink:href="#f6_cb" transform="matrix(14,0,0,14,258.6,295.6)" />
<use xlink:href="#f6_d4" transform="matrix(14,0,0,14,273.6,295.6)" />
<use xlink:href="#f6_c3" transform="matrix(14,0,0,14,279.1,295.6)" />
<use xlink:href="#f6_ct" transform="matrix(14,0,0,14,293.8,295.6)" />
<use xlink:href="#f6_bb" transform="matrix(14,0,0,14,299.4,295.6)" />
<use xlink:href="#f6_cv" transform="matrix(14,0,0,14,312,295.6)" />
<use xlink:href="#f6_c3" transform="matrix(14,0,0,14,323.3,295.6)" />
<use xlink:href="#f6_bb" transform="matrix(14,0,0,14,338,295.6)" />
<use xlink:href="#f6_bt" transform="matrix(14,0,0,14,350.7,295.6)" />
<use xlink:href="#f6_dg" transform="matrix(14,0,0,14,361.7,295.3)" />
<use xlink:href="#f6_pc" transform="matrix(14,0,0,14,362.4,295.6)" />
<use xlink:href="#f6_pc" transform="matrix(14,0,0,14,366.6,295.6)" />
<use xlink:href="#f6_pc" transform="matrix(14,0,0,14,370.9,295.6)" />
<use xlink:href="#f6_pc" transform="matrix(14,0,0,14,375.2,295.6)" />
<use xlink:href="#f6_n7" transform="matrix(14,0,0,14,379.5,295.6)" />
<use xlink:href="#f6_al" transform="matrix(14,0,0,14,130.9,354.1)" />
<use xlink:href="#f6_nn" transform="matrix(14,0,0,14,146.8,354.1)" />
<use xlink:href="#f6_ke" transform="matrix(14,0,0,14,146.8,354.1)" />
<use xlink:href="#f6_cb" transform="matrix(14,0,0,14,161,354.1)" />
<use xlink:href="#f6_d4" transform="matrix(14,0,0,14,176,354.1)" />
<use xlink:href="#f6_bt" transform="matrix(14,0,0,14,175.9,354.1)" />
<use xlink:href="#f6_b9" transform="matrix(14,0,0,14,193.2,354.1)" />
<use xlink:href="#f6_d4" transform="matrix(14,0,0,14,204.4,354.1)" />
<use xlink:href="#f6_c1" transform="matrix(14,0,0,14,214.4,354.1)" />
<use xlink:href="#f6_ct" transform="matrix(14,0,0,14,222.8,354.1)" />
<use xlink:href="#f6_bg" transform="matrix(14,0,0,14,228.4,354.1)" />
<use xlink:href="#f6_mv" transform="matrix(14,0,0,14,242.7,354.1)" />
<use xlink:href="#f6_c3" transform="matrix(14,0,0,14,254.4,354.1)" />
<use xlink:href="#f6_ct" transform="matrix(14,0,0,14,269.2,354.1)" />
<use xlink:href="#f6_c1" transform="matrix(14,0,0,14,274.8,354.1)" />
<use xlink:href="#f6_d4" transform="matrix(14,0,0,14,282.8,354.1)" />
<use xlink:href="#f6_k" transform="matrix(14,0,0,14,283.2,354.1)" />
<use xlink:href="#f6_c7" transform="matrix(14,0,0,14,294,354.1)" />
<use xlink:href="#f6_ct" transform="matrix(14,0,0,14,306.1,354.1)" />
<use xlink:href="#f6_bz" transform="matrix(14,0,0,14,311.7,354.1)" />
<use xlink:href="#f6_ct" transform="matrix(14,0,0,14,325.1,354.1)" />
<use xlink:href="#f6_br" transform="matrix(14,0,0,14,330.7,354.1)" />
<use xlink:href="#f6_d4" transform="matrix(14,0,0,14,341.9,354.1)" />
<use xlink:href="#f6_c7" transform="matrix(14,0,0,14,342.4,354.1)" />
<use xlink:href="#f6_cv" transform="matrix(14,0,0,14,354.4,354.1)" />
<use xlink:href="#f6_b9" transform="matrix(14,0,0,14,365.7,354.1)" />
<use xlink:href="#f6_d4" transform="matrix(14,0,0,14,376.9,354.1)" />
<use xlink:href="#f6_cb" transform="matrix(14,0,0,14,386.9,354.1)" />
<use xlink:href="#f6_cw" transform="matrix(14,0,0,14,402.3,354)" />
<use xlink:href="#f6_bp" transform="matrix(14,0,0,14,401.8,354.1)" />
<use xlink:href="#f6_e6" transform="matrix(14,0,0,14,419.8,354.1)" />
<use xlink:href="#f6_ct" transform="matrix(14,0,0,14,431.8,354.1)" />
<use xlink:href="#f6_bo" transform="matrix(14,0,0,14,437.5,354.1)" />
<use xlink:href="#f6_ll" transform="matrix(14,0,0,14,457.5,354.1)" />
<use xlink:href="#f6_c0" transform="matrix(14,0,0,14,463.9,354.1)" />
<use xlink:href="#f6_ct" transform="matrix(14,0,0,14,476.5,354.1)" />
<use xlink:href="#f6_c1" transform="matrix(14,0,0,14,482.1,354.1)" />
<use xlink:href="#f6_d4" transform="matrix(14,0,0,14,490.1,354.1)" />
<use xlink:href="#f6_bv" transform="matrix(14,0,0,14,187.1,387.3)" />
<use xlink:href="#f6_c1" transform="matrix(14,0,0,14,198.9,387.3)" />
<use xlink:href="#f6_cb" transform="matrix(14,0,0,14,207.3,387.3)" />
<use xlink:href="#f6_d4" transform="matrix(14,0,0,14,222.3,387.3)" />
<use xlink:href="#f6_bt" transform="matrix(14,0,0,14,227.9,387.3)" />
<use xlink:href="#f6_d4" transform="matrix(14,0,0,14,239.7,387.3)" />
<use xlink:href="#f6_cc" transform="matrix(14,0,0,14,239.6,387.3)" />
<use xlink:href="#f6_ct" transform="matrix(14,0,0,14,251.2,387.3)" />
<use xlink:href="#f6_bp" transform="matrix(14,0,0,14,262.5,387.3)" />
<use xlink:href="#f6_d8" transform="matrix(14,0,0,14,274.8,387.3)" />
<use xlink:href="#f6_ch" transform="matrix(14,0,0,14,280.4,387.3)" />
<use xlink:href="#f6_ct" transform="matrix(14,0,0,14,293.1,387.3)" />
<use xlink:href="#f6_bg" transform="matrix(14,0,0,14,304.4,387.3)" />
<use xlink:href="#f6_cw" transform="matrix(14,0,0,14,319.2,387.2)" />
<use xlink:href="#f6_bb" transform="matrix(14,0,0,14,318.6,387.3)" />
<use xlink:href="#f6_cb" transform="matrix(14,0,0,14,336.9,387.3)" />
<use xlink:href="#f6_d4" transform="matrix(14,0,0,14,351.9,387.3)" />
<use xlink:href="#f6_bz" transform="matrix(14,0,0,14,357.4,387.3)" />
<use xlink:href="#f6_d8" transform="matrix(14,0,0,14,370.8,387.3)" />
<use xlink:href="#f6_cc" transform="matrix(14,0,0,14,376.4,387.3)" />
<use xlink:href="#f6_bf" transform="matrix(14,0,0,14,393.7,387.3)" />
<use xlink:href="#f6_d8" transform="matrix(14,0,0,14,409.4,387.3)" />
<use xlink:href="#f6_ch" transform="matrix(14,0,0,14,415,387.3)" />
<use xlink:href="#f6_ct" transform="matrix(14,0,0,14,427.7,387.3)" />
<use xlink:href="#f6_cb" transform="matrix(14,0,0,14,164.2,420.5)" />
<use xlink:href="#f6_dj" transform="matrix(14,0,0,14,172.7,420.9)" />
<use xlink:href="#f6_c0" transform="matrix(14,0,0,14,179,420.5)" />
<use xlink:href="#f6_bz" transform="matrix(14,0,0,14,191.6,420.5)" />
<use xlink:href="#f6_bs" transform="matrix(14,0,0,14,210.6,420.5)" />
<use xlink:href="#f6_ct" transform="matrix(14,0,0,14,224.6,420.5)" />
<use xlink:href="#f6_c1" transform="matrix(14,0,0,14,230.2,420.5)" />
<use xlink:href="#f6_ct" transform="matrix(14,0,0,14,238.6,420.5)" />
<use xlink:href="#f6_k" transform="matrix(14,0,0,14,244.2,420.5)" />
<use xlink:href="#f6_bz" transform="matrix(14,0,0,14,255.1,420.5)" />
<use xlink:href="#f6_d4" transform="matrix(14,0,0,14,268.6,420.5)" />
<use xlink:href="#f6_bk" transform="matrix(14,0,0,14,268.4,420.5)" />
<use xlink:href="#f6_d8" transform="matrix(14,0,0,14,280,420.5)" />
<use xlink:href="#f6_bz" transform="matrix(14,0,0,14,291.3,420.5)" />
<use xlink:href="#f6_d4" transform="matrix(14,0,0,14,304.8,420.5)" />
<use xlink:href="#f6_bk" transform="matrix(14,0,0,14,304.6,420.5)" />
<use xlink:href="#f6_d8" transform="matrix(14,0,0,14,316.2,420.5)" />
<use xlink:href="#f6_bg" transform="matrix(14,0,0,14,321.8,420.5)" />
<use xlink:href="#f6_cv" transform="matrix(14,0,0,14,336.1,420.5)" />
<use xlink:href="#f6_cb" transform="matrix(14,0,0,14,347.4,420.5)" />
<use xlink:href="#f6_dj" transform="matrix(14,0,0,14,355.9,420.9)" />
<use xlink:href="#f6_b9" transform="matrix(14,0,0,14,362.2,420.5)" />
<use xlink:href="#f6_bk" transform="matrix(14,0,0,14,377.7,420.5)" />
<use xlink:href="#f6_cc" transform="matrix(14,0,0,14,395,420.5)" />
<use xlink:href="#f6_bz" transform="matrix(14,0,0,14,406.6,420.5)" />
<use xlink:href="#f6_ct" transform="matrix(14,0,0,14,419.9,420.5)" />
<use xlink:href="#f6_c1" transform="matrix(14,0,0,14,425.5,420.5)" />
<use xlink:href="#f6_ct" transform="matrix(14,0,0,14,433.9,420.5)" />
<use xlink:href="#f6_pc" transform="matrix(14,0,0,14,439.5,420.5)" />
<use xlink:href="#f6_pc" transform="matrix(14,0,0,14,443.8,420.5)" />
<use xlink:href="#f6_pc" transform="matrix(14,0,0,14,448.1,420.5)" />
<use xlink:href="#f6_pc" transform="matrix(14,0,0,14,452.4,420.5)" />
<use xlink:href="#f6_bp" transform="matrix(14,0,0,14,231.8,453.8)" />
<use xlink:href="#f6_cw" transform="matrix(14,0,0,14,244.6,453.6)" />
<use xlink:href="#f6_bz" transform="matrix(14,0,0,14,244.1,453.8)" />
<use xlink:href="#f6_cb" transform="matrix(14,0,0,14,257.4,453.8)" />
<use xlink:href="#f6_d4" transform="matrix(14,0,0,14,272.4,453.8)" />
<use xlink:href="#f6_c3" transform="matrix(14,0,0,14,278,453.8)" />
<use xlink:href="#f6_ct" transform="matrix(14,0,0,14,292.7,453.8)" />
<use xlink:href="#f6_bb" transform="matrix(14,0,0,14,298.3,453.8)" />
<use xlink:href="#f6_cv" transform="matrix(14,0,0,14,310.9,453.8)" />
<use xlink:href="#f6_c3" transform="matrix(14,0,0,14,322.2,453.8)" />
<use xlink:href="#f6_bb" transform="matrix(14,0,0,14,336.9,453.8)" />
<use xlink:href="#f6_bt" transform="matrix(14,0,0,14,349.5,453.8)" />
<use xlink:href="#f6_pc" transform="matrix(14,0,0,14,361.2,453.8)" />
<use xlink:href="#f6_pc" transform="matrix(14,0,0,14,365.5,453.8)" />
<use xlink:href="#f6_pc" transform="matrix(14,0,0,14,369.8,453.8)" />
<use xlink:href="#f6_pc" transform="matrix(14,0,0,14,374,453.8)" />
<use xlink:href="#f6_n8" transform="matrix(14,0,0,14,378.3,453.8)" />
<use xlink:href="#f6_an" transform="matrix(14,0,0,14,117.2,520.2)" />
<use xlink:href="#f6_li" transform="matrix(14,0,0,14,128.7,520.2)" />
<use xlink:href="#f6_e3" transform="matrix(14,0,0,14,134.2,520.2)" />
<use xlink:href="#f6_b8" transform="matrix(14,0,0,14,152,520.2)" />
<use xlink:href="#f6_c1" transform="matrix(14,0,0,14,173.5,520.2)" />
<use xlink:href="#f6_bs" transform="matrix(14,0,0,14,187.5,520.2)" />
<use xlink:href="#f6_c1" transform="matrix(14,0,0,14,201.5,520.2)" />
<use xlink:href="#f6_bo" transform="matrix(14,0,0,14,209.9,520.2)" />
<use xlink:href="#f6_d4" transform="matrix(14,0,0,14,224.4,520.2)" />
<use xlink:href="#f6_li" transform="matrix(14,0,0,14,224.3,520.2)" />
<use xlink:href="#f6_e3" transform="matrix(14,0,0,14,229.8,520.2)" />
<use xlink:href="#f6_by" transform="matrix(14,0,0,14,247.6,520.2)" />
<use xlink:href="#f6_cv" transform="matrix(14,0,0,14,261.5,520.2)" />
<use xlink:href="#f6_am" transform="matrix(14,0,0,14,272.8,520.2)" />
<use xlink:href="#f6_c0" transform="matrix(14,0,0,14,294.3,520.2)" />
<use xlink:href="#f6_d4" transform="matrix(14,0,0,14,307,520.2)" />
<use xlink:href="#f6_k" transform="matrix(14,0,0,14,306.8,520.2)" />
<use xlink:href="#f6_br" transform="matrix(14,0,0,14,317.7,520.2)" />
<use xlink:href="#f6_d4" transform="matrix(14,0,0,14,328.9,520.2)" />
<use xlink:href="#f6_c7" transform="matrix(14,0,0,14,329.4,520.2)" />
<use xlink:href="#f6_cv" transform="matrix(14,0,0,14,341.5,520.2)" />
<use xlink:href="#f6_bv" transform="matrix(14,0,0,14,352.8,520.2)" />
<use xlink:href="#f6_gi" transform="matrix(14,0,0,14,364.6,520.2)" />
<use xlink:href="#f6_ct" transform="matrix(14,0,0,14,380.6,520.2)" />
<use xlink:href="#f6_c7" transform="matrix(14,0,0,14,386.2,520.2)" />
<use xlink:href="#f6_bp" transform="matrix(14,0,0,14,398.3,520.2)" />
<use xlink:href="#f6_cv" transform="matrix(14,0,0,14,410.6,520.2)" />
<use xlink:href="#f6_bz" transform="matrix(14,0,0,14,421.9,520.2)" />
<use xlink:href="#f6_dj" transform="matrix(14,0,0,14,429.4,520.6)" />
<use xlink:href="#f6_bb" transform="matrix(14,0,0,14,435.2,520.2)" />
<use xlink:href="#f6_c3" transform="matrix(14,0,0,14,447.9,520.2)" />
<use xlink:href="#f6_bb" transform="matrix(14,0,0,14,468.2,520.2)" />
<use xlink:href="#f6_ct" transform="matrix(14,0,0,14,480.8,520.2)" />
<use xlink:href="#f6_c0" transform="matrix(14,0,0,14,486.5,520.2)" />
<use xlink:href="#f6_d4" transform="matrix(14,0,0,14,499.1,520.2)" />
<use xlink:href="#f6_k" transform="matrix(14,0,0,14,499,520.2)" />
<use xlink:href="#f6_am" transform="matrix(14,0,0,14,176.8,553.4)" />
<use xlink:href="#f6_c8" transform="matrix(14,0,0,14,198.2,553.4)" />
<use xlink:href="#f6_ct" transform="matrix(14,0,0,14,214.1,553.4)" />
<use xlink:href="#f6_bv" transform="matrix(14,0,0,14,225.4,553.4)" />
<use xlink:href="#f6_cw" transform="matrix(14,0,0,14,237.8,553.3)" />
<use xlink:href="#f6_c1" transform="matrix(14,0,0,14,237.3,553.4)" />
<use xlink:href="#f6_d8" transform="matrix(14,0,0,14,245.6,553.4)" />
<use xlink:href="#f6_cb" transform="matrix(14,0,0,14,256.9,553.4)" />
<use xlink:href="#f6_br" transform="matrix(14,0,0,14,271.8,553.4)" />
<use xlink:href="#f6_ct" transform="matrix(14,0,0,14,283.5,553.4)" />
<use xlink:href="#f6_k" transform="matrix(14,0,0,14,289.1,553.4)" />
<use xlink:href="#f6_mv" transform="matrix(14,0,0,14,300,553.4)" />
<use xlink:href="#f6_dk" transform="matrix(14,0,0,14,311.8,553.4)" />
<use xlink:href="#f6_ba" transform="matrix(14,0,0,14,316.3,553.4)" />
<use xlink:href="#f6_bt" transform="matrix(14,0,0,14,338.7,553.4)" />
<use xlink:href="#f6_cc" transform="matrix(14,0,0,14,350.4,553.4)" />
<use xlink:href="#f6_cv" transform="matrix(14,0,0,14,362,553.4)" />
<use xlink:href="#f6_dj" transform="matrix(14,0,0,14,366.7,554.3)" />
<use xlink:href="#f6_am" transform="matrix(14,0,0,14,373.3,553.4)" />
<use xlink:href="#f6_c7" transform="matrix(14,0,0,14,394.8,553.4)" />
<use xlink:href="#f6_d4" transform="matrix(14,0,0,14,407,553.4)" />
<use xlink:href="#f6_b9" transform="matrix(14,0,0,14,412.6,553.4)" />
<use xlink:href="#f6_br" transform="matrix(14,0,0,14,428,553.4)" />
<use xlink:href="#f6_ct" transform="matrix(14,0,0,14,439.7,553.4)" />
<use xlink:href="#f6_cb" transform="matrix(14,0,0,14,164.2,586.7)" />
<use xlink:href="#f6_d4" transform="matrix(14,0,0,14,179.2,586.7)" />
<use xlink:href="#f6_c7" transform="matrix(14,0,0,14,179,586.7)" />
<use xlink:href="#f6_b9" transform="matrix(14,0,0,14,191.1,586.7)" />
<use xlink:href="#f6_bp" transform="matrix(14,0,0,14,212.3,586.7)" />
<use xlink:href="#f6_ct" transform="matrix(14,0,0,14,224.6,586.7)" />
<use xlink:href="#f6_c1" transform="matrix(14,0,0,14,230.2,586.7)" />
<use xlink:href="#f6_ct" transform="matrix(14,0,0,14,238.6,586.7)" />
<use xlink:href="#f6_k" transform="matrix(14,0,0,14,244.2,586.7)" />
<use xlink:href="#f6_bz" transform="matrix(14,0,0,14,255.1,586.7)" />
<use xlink:href="#f6_d4" transform="matrix(14,0,0,14,268.6,586.7)" />
<use xlink:href="#f6_bk" transform="matrix(14,0,0,14,268.4,586.7)" />
<use xlink:href="#f6_d8" transform="matrix(14,0,0,14,280,586.7)" />
<use xlink:href="#f6_bz" transform="matrix(14,0,0,14,291.3,586.7)" />
<use xlink:href="#f6_d4" transform="matrix(14,0,0,14,304.8,586.7)" />
<use xlink:href="#f6_bk" transform="matrix(14,0,0,14,304.6,586.7)" />
<use xlink:href="#f6_d8" transform="matrix(14,0,0,14,316.2,586.7)" />
<use xlink:href="#f6_bg" transform="matrix(14,0,0,14,321.8,586.7)" />
<use xlink:href="#f6_cv" transform="matrix(14,0,0,14,336.1,586.7)" />
<use xlink:href="#f6_cb" transform="matrix(14,0,0,14,347.4,586.7)" />
<use xlink:href="#f6_dj" transform="matrix(14,0,0,14,355.9,587.1)" />
<use xlink:href="#f6_b9" transform="matrix(14,0,0,14,362.2,586.7)" />
<use xlink:href="#f6_bk" transform="matrix(14,0,0,14,377.7,586.7)" />
<use xlink:href="#f6_cc" transform="matrix(14,0,0,14,395,586.7)" />
<use xlink:href="#f6_bz" transform="matrix(14,0,0,14,406.6,586.7)" />
<use xlink:href="#f6_ct" transform="matrix(14,0,0,14,419.9,586.7)" />
<use xlink:href="#f6_c1" transform="matrix(14,0,0,14,425.5,586.7)" />
<use xlink:href="#f6_ct" transform="matrix(14,0,0,14,433.9,586.7)" />
<use xlink:href="#f6_pc" transform="matrix(14,0,0,14,439.5,586.7)" />
<use xlink:href="#f6_pc" transform="matrix(14,0,0,14,443.8,586.7)" />
<use xlink:href="#f6_pc" transform="matrix(14,0,0,14,448.1,586.7)" />
<use xlink:href="#f6_pc" transform="matrix(14,0,0,14,452.4,586.7)" />
<use xlink:href="#f6_bp" transform="matrix(14,0,0,14,231.8,619.9)" />
<use xlink:href="#f6_cw" transform="matrix(14,0,0,14,244.6,619.8)" />
<use xlink:href="#f6_bz" transform="matrix(14,0,0,14,244.1,619.9)" />
<use xlink:href="#f6_cb" transform="matrix(14,0,0,14,257.4,619.9)" />
<use xlink:href="#f6_d4" transform="matrix(14,0,0,14,272.4,619.9)" />
<use xlink:href="#f6_c3" transform="matrix(14,0,0,14,278,619.9)" />
<use xlink:href="#f6_ct" transform="matrix(14,0,0,14,292.7,619.9)" />
<use xlink:href="#f6_bb" transform="matrix(14,0,0,14,298.3,619.9)" />
<use xlink:href="#f6_cv" transform="matrix(14,0,0,14,310.9,619.9)" />
<use xlink:href="#f6_c3" transform="matrix(14,0,0,14,322.2,619.9)" />
<use xlink:href="#f6_bb" transform="matrix(14,0,0,14,336.9,619.9)" />
<use xlink:href="#f6_bt" transform="matrix(14,0,0,14,349.5,619.9)" />
<use xlink:href="#f6_pc" transform="matrix(14,0,0,14,361.2,619.9)" />
<use xlink:href="#f6_pc" transform="matrix(14,0,0,14,365.5,619.9)" />
<use xlink:href="#f6_pc" transform="matrix(14,0,0,14,369.8,619.9)" />
<use xlink:href="#f6_pc" transform="matrix(14,0,0,14,374,619.9)" />
<use xlink:href="#f6_n9" transform="matrix(14,0,0,14,378.3,619.9)" />
<use xlink:href="#f6_c3" transform="matrix(14,0,0,14,112.6,686.4)" />
<use xlink:href="#f6_ct" transform="matrix(14,0,0,14,127.3,686.4)" />
<use xlink:href="#f6_ba" transform="matrix(14,0,0,14,132.9,686.4)" />
<use xlink:href="#f6_d8" transform="matrix(14,0,0,14,149.6,686.4)" />
<use xlink:href="#f6_bx" transform="matrix(14,0,0,14,160.9,686.4)" />
<use xlink:href="#f6_ct" transform="matrix(14,0,0,14,173.2,686.4)" />
<use xlink:href="#f6_c1" transform="matrix(14,0,0,14,178.8,686.4)" />
<use xlink:href="#f6_bp" transform="matrix(14,0,0,14,192.9,686.4)" />
<use xlink:href="#f6_cw" transform="matrix(14,0,0,14,205.7,686.2)" />
<use xlink:href="#f6_bh" transform="matrix(14,0,0,14,205.2,686.4)" />
<use xlink:href="#f6_d4" transform="matrix(14,0,0,14,222.1,686.4)" />
<use xlink:href="#f6_c8" transform="matrix(14,0,0,14,227.6,686.4)" />
<use xlink:href="#f6_cv" transform="matrix(14,0,0,14,243.5,686.4)" />
<use xlink:href="#f6_c8" transform="matrix(14,0,0,14,249.1,686.4)" />
<use xlink:href="#f6_bt" transform="matrix(14,0,0,14,270.7,686.4)" />
<use xlink:href="#f6_bz" transform="matrix(14,0,0,14,282.4,686.4)" />
<use xlink:href="#f6_ct" transform="matrix(14,0,0,14,295.7,686.4)" />
<use xlink:href="#f6_c7" transform="matrix(14,0,0,14,301.3,686.4)" />
<use xlink:href="#f6_cw" transform="matrix(14,0,0,14,313.9,686.2)" />
<use xlink:href="#f6_dj" transform="matrix(14,0,0,14,310.5,686.8)" />
<use xlink:href="#f6_k" transform="matrix(14,0,0,14,313.4,686.4)" />
<use xlink:href="#f6_bg" transform="matrix(14,0,0,14,324.3,686.4)" />
<use xlink:href="#f6_bb" transform="matrix(14,0,0,14,338.6,686.4)" />
<use xlink:href="#f6_b9" transform="matrix(14,0,0,14,351.2,686.4)" />
<use xlink:href="#f6_d4" transform="matrix(14,0,0,14,362.3,686.4)" />
<use xlink:href="#f6_bt" transform="matrix(14,0,0,14,372.3,686.4)" />
<use xlink:href="#f6_ct" transform="matrix(14,0,0,14,384,686.4)" />
<use xlink:href="#f6_no" transform="matrix(14,0,0,14,389.7,686.4)" />
<use xlink:href="#f6_bq" transform="matrix(14,0,0,14,389.7,686.4)" />
<use xlink:href="#f6_bp" transform="matrix(14,0,0,14,408.5,686.4)" />
<use xlink:href="#f6_cw" transform="matrix(14,0,0,14,421.4,686.2)" />
<use xlink:href="#f6_bh" transform="matrix(14,0,0,14,420.8,686.4)" />
<use xlink:href="#f6_d4" transform="matrix(14,0,0,14,437.7,686.4)" />
<use xlink:href="#f6_b9" transform="matrix(14,0,0,14,443.3,686.4)" />
<use xlink:href="#f6_d5" transform="matrix(14,0,0,14,454.4,686.4)" />
<use xlink:href="#f6_cb" transform="matrix(14,0,0,14,458.8,686.4)" />
<use xlink:href="#f6_d4" transform="matrix(14,0,0,14,473.8,686.4)" />
<use xlink:href="#f6_bv" transform="matrix(14,0,0,14,479.3,686.4)" />
<use xlink:href="#f6_ct" transform="matrix(14,0,0,14,491.2,686.4)" />
<use xlink:href="#f6_c7" transform="matrix(14,0,0,14,496.8,686.4)" />
<use xlink:href="#f6_cw" transform="matrix(14,0,0,14,509.4,686.2)" />
<use xlink:href="#f6_dj" transform="matrix(14,0,0,14,506,686.8)" />
<use xlink:href="#f6_8c" transform="matrix(14,0,0,14,164.2,719.6)" />
<use xlink:href="#f6_bv" transform="matrix(14,0,0,14,168.8,719.6)" />
<use xlink:href="#f6_dj" transform="matrix(14,0,0,14,175,720)" />
<use xlink:href="#f6_b9" transform="matrix(14,0,0,14,180.7,719.6)" />
<use xlink:href="#f6_bg" transform="matrix(14,0,0,14,196.2,719.6)" />
<use xlink:href="#f6_8d" transform="matrix(14,0,0,14,210.4,719.6)" />
<use xlink:href="#f6_lx" transform="matrix(14,0,0,14,220.8,719.6)" />
<use xlink:href="#f6_c0" transform="matrix(14,0,0,14,228.8,719.6)" />
<use xlink:href="#f6_ct" transform="matrix(14,0,0,14,241.4,719.6)" />
<use xlink:href="#f6_b9" transform="matrix(14,0,0,14,247,719.6)" />
<use xlink:href="#f6_cw" transform="matrix(14,0,0,14,258.1,719.5)" />
<use xlink:href="#f6_c3" transform="matrix(14,0,0,14,262.5,719.6)" />
<use xlink:href="#f6_by" transform="matrix(14,0,0,14,282.8,719.6)" />
<use xlink:href="#f6_c0" transform="matrix(14,0,0,14,296.8,719.6)" />
<use xlink:href="#f6_ct" transform="matrix(14,0,0,14,309.4,719.6)" />
<use xlink:href="#f6_br" transform="matrix(14,0,0,14,320.6,719.6)" />
<use xlink:href="#f6_c8" transform="matrix(14,0,0,14,332.3,719.6)" />
<use xlink:href="#f6_dr" transform="matrix(14,0,0,14,348.6,719.6)" />
<use xlink:href="#f6_bt" transform="matrix(14,0,0,14,348.2,719.6)" />
<use xlink:href="#f6_cu" transform="matrix(14,0,0,14,365.6,719.6)" />
<use xlink:href="#f6_bx" transform="matrix(14,0,0,14,371.2,719.6)" />
<use xlink:href="#f6_bt" transform="matrix(14,0,0,14,383.5,719.6)" />
<use xlink:href="#f6_c0" transform="matrix(14,0,0,14,400.8,719.6)" />
<use xlink:href="#f6_d4" transform="matrix(14,0,0,14,413.5,719.6)" />
<use xlink:href="#f6_bg" transform="matrix(14,0,0,14,419.1,719.6)" />
<use xlink:href="#f6_cv" transform="matrix(14,0,0,14,433.3,719.6)" />
<use xlink:href="#f6_c0" transform="matrix(14,0,0,14,438.9,719.6)" />
<use xlink:href="#f6_ct" transform="matrix(14,0,0,14,451.5,719.6)" />
<use xlink:href="#f6_c3" transform="matrix(14,0,0,14,87.4,752.8)" />
<use xlink:href="#f6_ct" transform="matrix(14,0,0,14,102.1,752.8)" />
<use xlink:href="#f6_bb" transform="matrix(14,0,0,14,107.7,752.8)" />
<use xlink:href="#f6_d4" transform="matrix(14,0,0,14,120.5,752.8)" />
<use xlink:href="#f6_ba" transform="matrix(14,0,0,14,126,752.8)" />
<use xlink:href="#f6_ct" transform="matrix(14,0,0,14,142.7,752.8)" />
<use xlink:href="#f6_c1" transform="matrix(14,0,0,14,148.3,752.8)" />
<use xlink:href="#f6_ct" transform="matrix(14,0,0,14,156.7,752.8)" />
<use xlink:href="#f6_k" transform="matrix(14,0,0,14,162.3,752.8)" />
<use xlink:href="#f6_bz" transform="matrix(14,0,0,14,173.2,752.8)" />
<use xlink:href="#f6_d4" transform="matrix(14,0,0,14,186.7,752.8)" />
<use xlink:href="#f6_bk" transform="matrix(14,0,0,14,186.6,752.8)" />
<use xlink:href="#f6_d8" transform="matrix(14,0,0,14,198.1,752.8)" />
<use xlink:href="#f6_bz" transform="matrix(14,0,0,14,209.4,752.8)" />
<use xlink:href="#f6_d4" transform="matrix(14,0,0,14,222.9,752.8)" />
<use xlink:href="#f6_bk" transform="matrix(14,0,0,14,222.7,752.8)" />
<use xlink:href="#f6_d8" transform="matrix(14,0,0,14,234.3,752.8)" />
<use xlink:href="#f6_bg" transform="matrix(14,0,0,14,239.9,752.8)" />
<use xlink:href="#f6_cv" transform="matrix(14,0,0,14,254.2,752.8)" />
<use xlink:href="#f6_cb" transform="matrix(14,0,0,14,265.5,752.8)" />
<use xlink:href="#f6_dj" transform="matrix(14,0,0,14,274.1,753.2)" />
<use xlink:href="#f6_b9" transform="matrix(14,0,0,14,280.4,752.8)" />
<use xlink:href="#f6_bk" transform="matrix(14,0,0,14,295.9,752.8)" />
<use xlink:href="#f6_cc" transform="matrix(14,0,0,14,313.1,752.8)" />
<use xlink:href="#f6_bz" transform="matrix(14,0,0,14,324.7,752.8)" />
<use xlink:href="#f6_ct" transform="matrix(14,0,0,14,338,752.8)" />
<use xlink:href="#f6_c1" transform="matrix(14,0,0,14,343.7,752.8)" />
<use xlink:href="#f6_ct" transform="matrix(14,0,0,14,352,752.8)" />
<use xlink:href="#f6_pc" transform="matrix(14,0,0,14,357.7,752.8)" />
<use xlink:href="#f6_pc" transform="matrix(14,0,0,14,361.9,752.8)" />
<use xlink:href="#f6_pc" transform="matrix(14,0,0,14,366.2,752.8)" />
<use xlink:href="#f6_pc" transform="matrix(14,0,0,14,370.5,752.8)" />
<use xlink:href="#f6_bp" transform="matrix(14,0,0,14,374.8,752.8)" />
<use xlink:href="#f6_cw" transform="matrix(14,0,0,14,387.6,752.7)" />
<use xlink:href="#f6_bz" transform="matrix(14,0,0,14,387.1,752.8)" />
<use xlink:href="#f6_cb" transform="matrix(14,0,0,14,400.4,752.8)" />
<use xlink:href="#f6_d4" transform="matrix(14,0,0,14,415.4,752.8)" />
<use xlink:href="#f6_c3" transform="matrix(14,0,0,14,421,752.8)" />
<use xlink:href="#f6_ct" transform="matrix(14,0,0,14,435.7,752.8)" />
<use xlink:href="#f6_bb" transform="matrix(14,0,0,14,441.3,752.8)" />
<use xlink:href="#f6_cv" transform="matrix(14,0,0,14,453.9,752.8)" />
<use xlink:href="#f6_c3" transform="matrix(14,0,0,14,465.2,752.8)" />
<use xlink:href="#f6_bb" transform="matrix(14,0,0,14,479.9,752.8)" />
<use xlink:href="#f6_bt" transform="matrix(14,0,0,14,492.5,752.8)" />
<use xlink:href="#f6_pc" transform="matrix(14,0,0,14,504.2,752.8)" />
<use xlink:href="#f6_pc" transform="matrix(14,0,0,14,508.5,752.8)" />
<use xlink:href="#f6_pc" transform="matrix(14,0,0,14,512.8,752.8)" />
<use xlink:href="#f6_pc" transform="matrix(14,0,0,14,517,752.8)" />
<use xlink:href="#f6_na" transform="matrix(14,0,0,14,521.3,752.8)" />
<use xlink:href="#f7_4r" transform="matrix(9,0,0,9,290.2,795.2)" />
<use xlink:href="#f8_o" transform="matrix(9,0,0,9,303,795.2)" />
<use xlink:href="#f8_l" transform="matrix(9,0,0,9,310.7,795.2)" />
<use xlink:href="#f7_4r" transform="matrix(9,0,0,9,321.3,795.2)" />
</g>
</g>
<image preserveAspectRatio="none" x="22" y="801" width="581" height="86" xlink:href="img/1.png"/>
<path d="M239.5,97.4H382.7v1.1H239.5V97.4Z" class="g1_47"/>
<image preserveAspectRatio="none" x="202" y="14" width="217" height="26" xlink:href="img/2.png"/>
<defs>
<path d="M342,-69c0,0,-146,139,-224,256c0,0,-78,117,-78,226c0,0,0,120,90,193c0,0,90,72,243,72H599V822H0L-86,937l32,64H959l86,-115l-32,-64H741L843,749V-31L773,-65L599,29V445H448c0,0,-81,0,-123,-34c0,0,-42,-34,-42,-90c0,0,0,-54,43,-118c0,0,44,-64,143,-163L342,-69Z"
id="f5_bp"
transform="scale(0.001,-0.001)"/>

<path d="M-272,-497c0,0,-249,0,-541,361l105,97c0,0,154,-169,229,-220c0,0,75,-50,145,-50c0,0,68,0,110,38c0,0,43,38,43,90c0,0,0,49,-41,86L-367,-234L-517,-89c0,0,38,66,99,102c0,0,62,37,129,37c0,0,113,0,200,-92c0,0,87,-93,87,-209c0,0,0,-105,-77,-176c0,0,-77,-70,-193,-70Z"
id="f5_cw"
transform="scale(0.001,-0.001)"/>

<path d="M686,512V822H333L435,749l2,-237ZM860,-65L686,29V298H440V168L348,118c0,0,-90,30,-190,128c0,0,-100,98,-127,183l52,83H203L189,822H0L-86,937l32,64H1045l86,-115l-33,-64H828L930,749V-31L860,-65Z"
id="f5_bz"
transform="scale(0.001,-0.001)"/>

<path d="M833,530V822H434L539,749V530ZM533,-97L23,405L75,542H284c0,0,2,5,2,280H-10L-97,937l32,64H1193l86,-115l-32,-64H975l102,-73V-31l-70,-34L833,29V333H405L370,309L697,110V41L533,-97Z"
id="f5_cb"
transform="scale(0.001,-0.001)"/>

<path d="M-289,908l-132,216c0,0,-70,120,-169,120c0,0,-83,0,-200,-80l-130,249c0,0,125,78,234,78c0,0,187,0,349,-241L-159,969L-289,908Z"
id="f5_d4"
transform="scale(0.001,-0.001)"/>

<path d="M472,-77C472,-77,28,171,28,448c0,0,0,116,77,191c0,0,77,74,188,74c0,0,51,0,95,-18L527,574c0,0,104,114,277,117V822H0L-86,937l32,64H1164l86,-115l-32,-64H946l102,-73V-31L978,-65L804,29V526c0,0,-130,-78,-133,-294L611,196L431,309c0,0,0,97,33,174c0,0,-22,10,-53,10c0,0,-52,0,-90,-36c0,0,-38,-37,-38,-99c0,0,0,-80,68,-150c0,0,69,-70,214,-161L472,-77Z"
id="f5_c3"
transform="scale(0.001,-0.001)"/>

<path d="M277,-65L102,29V822H0L-86,937l32,64H463L548,886L516,822H244L347,749V-31L277,-65Z"
id="f5_ct"
transform="scale(0.001,-0.001)"/>

<path d="M831,-65L657,29V822H332L434,749V200L341,150c0,0,-93,32,-190,121c0,0,-96,90,-125,175l52,83H196l-5,293H0L-86,937l32,64H1016l86,-115l-33,-64H799L901,749V-31L831,-65Z"
id="f5_bb"
transform="scale(0.001,-0.001)"/>

<path d="M277,-65L102,29V822H0L-86,937l32,64H110c0,0,-50,142,-110,226c0,0,-60,84,-149,84c0,0,-59,0,-97,-37c0,0,-39,-36,-39,-91c0,0,0,-57,42,-115l-95,-50c0,0,-145,116,-145,267c0,0,0,108,75,179c0,0,76,70,195,70c0,0,179,0,297,-150c0,0,119,-150,189,-383H463L548,886L516,822H244L347,749V-31L277,-65Z"
id="f5_cv"
transform="scale(0.001,-0.001)"/>

<path d="M746,-65L571,29V419H376V260L275,212c0,0,-87,48,-160,148c0,0,-72,100,-91,193l57,84H571V822H0L-86,937l32,64H930l88,-115L985,822H713L816,749V-31L746,-65Z"
id="f5_bt"
transform="scale(0.001,-0.001)"/>

<path d="M347,-57C347,-57,66,211,66,394c0,0,0,98,74,164c0,0,74,65,225,65H616V822H0l-45,76l14,31H880l46,-76L912,822H677l66,-58V-39L706,-49L616,8V500H428c0,0,-239,0,-239,-161c0,0,0,-136,214,-343L347,-57Z"
id="f6_bp"
transform="scale(0.001,-0.001)"/>

<path d="M-234,-413c0,0,-210,0,-488,322l54,49c0,0,119,-128,209,-193c0,0,90,-65,177,-65c0,0,72,0,113,40c0,0,42,39,42,91c0,0,0,75,-78,106L-323,-181l-90,98c0,0,63,95,167,95c0,0,90,0,155,-69c0,0,66,-70,66,-164c0,0,0,-85,-60,-139c0,0,-61,-53,-149,-53Z"
id="f6_cw"
transform="scale(0.001,-0.001)"/>

<path d="M689,445V822H286l65,-58l8,-319ZM779,-49L689,8V328H370V180L296,150c0,0,-56,35,-120,104c0,0,-63,70,-89,131l41,60H238L223,822H0l-45,76l14,31H953l46,-76L985,822H750l66,-58V-39L779,-49Z"
id="f6_bz"
transform="scale(0.001,-0.001)"/>

<path d="M799,475V822H350l66,-55V564c0,0,0,-43,-25,-89ZM527,-71L52,414l34,92H277c0,0,12,32,12,72V822H0l-45,76l14,31H1063l46,-76l-14,-31H860l66,-58V-39L889,-49L799,8V370H315L264,316L610,34L611,8L527,-71Z"
id="f6_cb"
transform="scale(0.001,-0.001)"/>

<path d="M-214,863l-199,281c0,0,-70,92,-157,92c0,0,-69,0,-159,-58l-72,118c0,0,89,73,180,73c0,0,141,0,258,-170L-155,901l-59,-38Z"
id="f6_d4"
transform="scale(0.001,-0.001)"/>

<path d="M413,-59C413,-59,53,193,53,416c0,0,0,97,66,164c0,0,66,66,156,66c0,0,61,0,110,-30L487,507c0,0,92,126,257,126l35,-2V822H0l-45,76l14,31H1043l46,-76l-13,-31H840l66,-58V-39L869,-49L779,8V547c0,0,-101,-5,-165,-90c0,0,-64,-86,-70,-222L507,225l-90,73c0,0,5,79,35,151c0,0,-59,66,-128,66c0,0,-57,0,-100,-38c0,0,-44,-39,-44,-109c0,0,0,-165,284,-360L413,-59Z"
id="f6_c3"
transform="scale(0.001,-0.001)"/>

<path d="M228,-49L138,8V822H0l-45,76l14,31H402l46,-76L434,822H199l65,-58V-39L228,-49Z"
id="f6_ct"
transform="scale(0.001,-0.001)"/>

<path d="M727,-49L637,8V822H278l66,-58V226L270,196c0,0,-64,36,-122,98c0,0,-58,62,-79,122l43,59H217V822H0l-45,76l14,31H901l46,-76L933,822H698l66,-58V-39L727,-49Z"
id="f6_bb"
transform="scale(0.001,-0.001)"/>

<path d="M228,-49L138,8V822H0l-45,76l14,31H138c0,0,-109,342,-284,342c0,0,-62,0,-102,-40c0,0,-40,-39,-40,-93c0,0,0,-61,51,-134l-42,-32c0,0,-128,113,-128,226c0,0,0,79,60,136c0,0,61,56,154,56c0,0,137,0,249,-125c0,0,112,-125,169,-336H402l46,-76L434,822H199l65,-58V-39L228,-49Z"
id="f6_cv"
transform="scale(0.001,-0.001)"/>

<path d="M663,-49L573,8V445H299V280L226,251c0,0,-105,99,-162,238l63,72H573V822H0l-45,76l14,31H837l46,-76L869,822H634l66,-58V-39L663,-49Z"
id="f6_bt"
transform="scale(0.001,-0.001)"/>

<path d="M108,-222l-44,58c0,0,96,81,104,164L89,61c0,0,12,83,93,122c0,0,50,-15,79,-55c0,0,29,-39,29,-90c0,0,0,-69,-48,-142c0,0,-48,-72,-134,-118Z"
id="f6_k"
transform="scale(0.001,-0.001)"/>

<path d="M228,-49L138,8V822H0l-45,76l14,31H119L-33,1144c0,0,-70,92,-157,92c0,0,-69,0,-159,-58l-72,118c0,0,89,73,181,73c0,0,140,0,257,-170L205,929H402l46,-76L434,822H199l65,-58V-39L228,-49Z"
id="f6_d8"
transform="scale(0.001,-0.001)"/>

<path d="M959,-49L869,8V367c0,0,-32,-13,-64,-13c0,0,-50,0,-110,25c0,0,23,-52,23,-109c0,0,0,-103,-70,-170c0,0,-70,-66,-182,-66c0,0,-110,0,-222,82c0,0,-111,83,-213,293l68,42c0,0,72,-155,152,-231c0,0,81,-76,178,-76c0,0,83,0,131,49c0,0,48,48,48,117c0,0,0,54,-30,100c0,0,-31,47,-91,65L325,391L257,512c0,0,68,53,156,56c0,0,140,72,140,179c0,0,0,69,-52,99c0,0,-4,1,-11,1c-19,0,-66,-4,-123,-30c0,0,-78,-35,-142,-96L150,823c0,0,119,117,253,117c0,0,98,0,175,-71c0,0,77,-70,77,-159c0,0,0,-103,-94,-180c0,0,39,-23,73,-56c0,0,52,-22,109,-22c0,0,77,0,126,38V822H727l-46,76l14,31h439l45,-76l-13,-31H930l66,-58V-39L959,-49Z"
id="f6_al"
transform="scale(0.001,-0.001)"/>

<path d="M388,325c0,0,58,0,112,31c0,0,53,31,84,86V822H165l69,-58V408c0,0,47,-83,154,-83ZM674,-49L584,8V257c0,0,-61,-51,-141,-51c0,0,-125,0,-232,109c0,0,-107,108,-107,243V822H0l-45,76l14,31H848l46,-76L880,822H645l65,-58V-39L674,-49Z"
id="f6_bv"
transform="scale(0.001,-0.001)"/>

<path d="M513,460c0,0,61,81,61,179c0,0,0,87,-45,143c0,0,-45,57,-116,57c0,0,-63,0,-102,-43c0,0,-39,-43,-39,-110c0,0,0,-90,68,-151c0,0,68,-61,173,-75ZM581,-83L278,167l-41,-4c0,0,-99,0,-130,37l47,168l51,12l78,-79c0,0,110,40,183,105c0,0,-141,23,-231,107c0,0,-90,84,-90,193c0,0,0,69,37,116H0l-45,76l14,31H1134l45,-76l-13,-31H930l66,-58V-39L959,-49L869,8V822H588c0,0,51,-44,75,-109c0,0,25,-64,25,-122c0,0,0,-105,-81,-213c0,0,-80,-108,-240,-176L658,18l2,-25L581,-83Z"
id="f6_c8"
transform="scale(0.001,-0.001)"/>

<path d="M527,-71L52,414l34,92H277c0,0,12,32,12,72V822H0l-45,76l14,31H599l46,-76L631,822H350l66,-55V564c0,0,0,-96,-152,-248L610,34L611,8L527,-71Z"
id="f6_c1"
transform="scale(0.001,-0.001)"/>

<path d="M342,324c0,0,45,0,75,34c0,0,31,33,31,100V822H165l66,-58V390c0,0,32,-66,111,-66ZM853,-49L762,8V822H509l65,-58V455c0,0,0,-134,-51,-185c0,0,-52,-52,-127,-52c0,0,-98,0,-195,99c0,0,-97,99,-97,209V822H0l-45,76l14,31H1027l46,-76l-14,-31H823l66,-58V-39L853,-49Z"
id="f6_bo"
transform="scale(0.001,-0.001)"/>

<path d="M438,206c0,0,-119,0,-226,109c0,0,-108,108,-108,243V822H0l-45,76l14,31H542l46,-76L574,822H165l66,-58V408c0,0,46,-86,151,-86c0,0,61,0,119,32c0,0,58,33,95,91L669,338c0,0,-44,-66,-108,-99c0,0,-63,-33,-123,-33Z"
id="f6_ll"
transform="scale(0.001,-0.001)"/>

<path d="M374,248c0,0,77,0,149,36c0,0,71,37,110,107V822H284c0,0,138,-96,138,-208c0,0,0,-151,-228,-192c0,0,29,-104,89,-158c0,0,41,-16,91,-16ZM723,-49L633,8V200c0,0,-69,-56,-170,-56c0,0,-122,0,-240,94c0,0,-118,94,-179,237l20,55c0,0,133,17,187,44c0,0,55,28,55,84c0,0,0,45,-30,81c0,0,-30,36,-99,83H0l-45,76l14,31H897l46,-76L929,822H694l65,-58V-39L723,-49Z"
id="f6_c0"
transform="scale(0.001,-0.001)"/>

<path d="M487,-7c0,0,-88,0,-185,46c0,0,-97,47,-163,130c0,0,-66,83,-66,185c0,0,0,109,80,177c0,0,79,68,234,68H504V822H0l-45,76l14,31H827l45,-76L859,822H565l66,-58V474l-3,1l3,-3H396c0,0,-100,0,-152,-47c0,0,-53,-48,-53,-119c0,0,0,-104,93,-178c0,0,60,-20,118,-20c0,0,81,0,156,36c0,0,76,35,123,99l92,-99C773,144,723,70,645,31C645,31,567,-7,487,-7Z"
id="f6_bk"
transform="scale(0.001,-0.001)"/>

<path d="M845,-49L755,8V513H497c0,0,61,-45,93,-110c0,0,33,-64,33,-128c0,0,0,-90,-58,-144c0,0,-59,-53,-143,-53c0,0,-133,0,-234,139C188,217,87,356,20,596l76,24c0,0,60,-201,127,-306c0,0,67,-105,160,-105c0,0,57,0,91,36c0,0,33,36,33,91c0,0,0,84,-73,159L295,558v71H755V822H0l-45,76l14,31H1019l46,-76l-14,-31H816l66,-58V-39L845,-49Z"
id="f6_bg"
transform="scale(0.001,-0.001)"/>

<path d="M0,1062c0,0,-26,11,-60,36c0,0,-34,26,-51,49c0,0,39,81,91,110c0,0,60,-23,106,-85c0,0,-28,-70,-86,-110Z"
id="f6_dj"
transform="scale(0.001,-0.001)"/>

<path d="M283,260c0,0,122,0,209,113V513c0,0,-90,51,-160,51c0,0,-80,0,-129,-50c0,0,-49,-50,-49,-118c0,0,0,-60,35,-110c0,0,45,-26,94,-26ZM582,-49L492,8V211c0,0,-63,-54,-141,-54c0,0,-113,0,-213,92c0,0,-100,92,-100,205c0,0,0,93,69,157c0,0,69,64,162,64c0,0,32,0,64,-9L492,590V822H0l-45,76l14,31H1108l45,-76l-13,-31H553l66,-58V524c0,0,91,89,192,89c0,0,98,0,171,-79c0,0,72,-79,72,-186c0,0,0,-178,-224,-330L736,124c0,0,219,153,219,269c0,0,0,44,-26,75c0,0,-26,32,-81,32c0,0,-109,0,-229,-155V-39L582,-49Z"
id="f6_b9"
transform="scale(0.001,-0.001)"/>

<path d="M688,-243c0,0,-256,53,-408,173c0,0,-152,119,-152,270c0,0,0,101,68,171c0,0,-101,84,-101,179c0,0,0,64,53,112c0,0,54,47,191,47H587V822H0l-45,76l14,31H830l45,-76L862,822H640l66,-58V585H362c0,0,-159,-1,-159,-92c0,0,0,-41,46,-80c0,0,76,47,183,47c0,0,135,0,230,-76c0,0,96,-75,96,-187C758,197,758,67,629,2L545,104c0,0,49,30,81,75c0,0,32,44,32,82c0,0,0,16,-4,26c0,0,-64,58,-167,58c0,0,-97,0,-166,-50v-2c0,0,-67,-52,-67,-131c0,0,0,-116,132,-199c0,0,132,-84,334,-132l-32,-74Z"
id="f6_cc"
transform="scale(0.001,-0.001)"/>

<path d="M226,-49c0,0,-66,24,-102,78c0,0,32,69,82,101c0,0,55,-20,100,-80c0,0,-26,-66,-80,-99Z"
id="f6_pc"
transform="scale(0.001,-0.001)"/>

<path d="M228,-49L138,8V822H0l-45,76l14,31H134c0,0,-91,92,-91,191c0,0,0,105,85,170c0,0,84,65,219,65c0,0,128,0,293,-76c0,0,165,-77,362,-263L958,966c0,0,-177,143,-303,210c0,0,-125,68,-244,68c0,0,-107,0,-175,-50c0,0,-68,-50,-68,-131c0,0,0,-61,49,-134H402l46,-76L434,822H199l65,-58V-39L228,-49Z"
id="f6_cu"
transform="scale(0.001,-0.001)"/>

<path d="M675,-274L602,21C602,21,550,3,498,3C498,3,347,3,210,118C210,118,73,232,73,373c0,0,0,113,84,184c0,0,84,71,222,72H524V822H0l-45,76l14,31H834l46,-76L866,822H585l66,-58V504l-3,2l3,-3H408c0,0,-95,0,-154,-53c0,0,-58,-53,-58,-132c0,0,0,-49,27,-100c0,0,28,-50,83,-84c0,0,44,-15,96,-15c0,0,91,0,160,46L535,303l101,48L773,188c0,0,-8,-28,-34,-66c0,0,-27,-38,-62,-64L813,-221L675,-274Z"
id="f6_br"
transform="scale(0.001,-0.001)"/>

<path d="M252,385l310,78l22,-9c0,0,107,-43,200,-43c0,0,91,0,151,41V822H603l66,-58V585H373c0,0,-184,0,-184,-99c0,0,0,-48,63,-101ZM483,-305L295,-10c0,0,-90,22,-156,74l41,170h66L351,63c0,0,126,4,207,62c0,0,82,58,82,139c0,0,0,37,-18,71L365,266c0,0,-110,15,-197,102c0,0,-87,87,-87,176c0,0,0,69,59,117c0,0,59,48,172,48H550V822H0l-45,76l14,31H1199l46,-76l-14,-31H996l66,-58V-39l-37,-10L935,8V318c0,0,-41,-15,-78,-15c0,0,-52,0,-131,30c0,0,32,-55,32,-111c0,0,0,-109,-98,-179c0,0,-98,-69,-254,-69L599,-216L483,-305Z"
id="f6_bh"
transform="scale(0.001,-0.001)"/>

<path d="M325,240c0,0,77,0,154,35c0,0,77,35,120,99V500c0,0,-118,73,-222,73c0,0,-97,0,-151,-54c0,0,-53,-53,-53,-128c0,0,0,-73,49,-125c0,0,38,-26,103,-26ZM689,-49L599,8V199c0,0,-73,-65,-179,-65c0,0,-134,0,-252,96c0,0,-118,95,-118,221c0,0,0,102,78,171c0,0,78,69,190,69c0,0,38,0,75,-10L599,582V822H0l-45,76l14,31H863l46,-76L895,822H660l66,-58V-39L689,-49Z"
id="f6_c7"
transform="scale(0.001,-0.001)"/>

<path d="M78,-431l-266,240l-132,-60l-90,85c0,0,95,66,179,66c0,0,65,0,145,-69L131,-375L78,-431Z"
id="f6_dg"
transform="scale(0.001,-0.001)"/>

<path d="M535,-54L419,5c0,0,23,27,23,58c0,0,0,32,-23,55c0,0,-22,23,-295,226v73L319,571c0,0,116,92,116,191c0,0,0,63,-50,107l-32,5c0,0,-54,0,-91,-42c0,0,-37,-42,-33,-93c0,0,5,-62,75,-99L267,596c0,0,-162,93,-162,194c0,0,0,70,52,122c0,0,51,52,127,52c0,0,99,0,177,-84c0,0,77,-84,77,-180c0,0,0,-116,-142,-236L254,350L417,225l54,-40c0,0,105,-80,105,-150c0,0,0,-45,-41,-89Z"
id="f6_n7"
transform="scale(0.001,-0.001)"/>

<path d="M0,822l-45,76l14,31H93l46,-76L125,822Z"
id="f6_nn"
transform="scale(0.001,-0.001)"/>

<path d="M500,44c0,0,78,0,152,57c0,0,75,56,98,134V350c0,0,-130,0,-223,-64c0,0,-93,-63,-93,-148c0,0,0,-54,43,-92l23,-2ZM321,561c0,0,66,46,101,105c0,0,36,60,36,113c0,0,0,28,-9,48c0,0,-35,41,-87,41c0,0,-50,0,-89,-38c0,0,-39,-39,-39,-100c0,0,0,-94,87,-169ZM840,-111l-90,59V32c0,0,-69,-68,-156,-68c0,0,-97,0,-187,64c0,0,-89,64,-89,146c0,0,0,61,48,123c0,0,48,62,141,94c0,0,-69,20,-140,57L105,272L20,364L260,519c0,0,-144,118,-144,246c0,0,0,81,57,140c0,0,56,59,140,59c0,0,96,0,171,-79c0,0,75,-78,75,-168c0,0,0,-118,-133,-222c0,0,107,-44,232,-44l92,6V822H628l-46,76l14,31h418l46,-76l-13,-31H811l66,-58V-100l-37,-11Z"
id="f6_ke"
transform="scale(0.001,-0.001)"/>

<path d="M652,-518c0,0,-209,0,-487,322l53,49c0,0,120,-129,210,-193c0,0,90,-65,177,-65c0,0,72,0,113,39c0,0,41,40,41,92c0,0,0,75,-78,105L564,-286l-90,98c0,0,62,96,169,96L605,37C605,37,552,18,498,18c0,0,-151,0,-288,115C210,133,73,248,73,388c0,0,0,113,84,184c0,0,84,71,222,73H524V822H0l-45,76l14,31H842l46,-76L874,822H567l84,-73V519l-3,2l3,-3H408c0,0,-93,0,-153,-52c0,0,-59,-52,-59,-128c0,0,0,-121,110,-188c0,0,53,-17,105,-17c0,0,92,0,153,43L535,318l101,49L773,203c0,0,-20,-67,-87,-122l61,-204c0,0,52,-32,83,-87c0,0,32,-55,32,-116c0,0,0,-85,-61,-139c0,0,-60,-53,-149,-53Z"
id="f6_mv"
transform="scale(0.001,-0.001)"/>

<path d="M396,318c0,0,123,0,203,108V822H180l66,-58V408c0,0,49,-90,150,-90ZM176,-66L79,9L379,228c0,0,-106,23,-181,119c0,0,-76,96,-79,198V822H0l-45,76l14,31H863l46,-76L895,822H660l66,-58V-39L689,-49L599,8V269L176,-66Z"
id="f6_e6"
transform="scale(0.001,-0.001)"/>

<path d="M547,-285c0,0,-66,25,-102,80c0,0,32,69,82,101c0,0,55,-20,99,-80c0,0,-26,-67,-79,-101Zm1,228c0,0,-122,0,-243,81c0,0,-122,81,-252,280l57,41C110,345,283,64,498,64c0,0,92,0,153,49c0,0,61,49,61,121c0,0,0,46,-28,84L440,237c0,0,-73,11,-139,55c0,0,-66,44,-105,105c0,0,-40,61,-40,119c0,0,0,72,62,125c0,0,62,53,184,53H625V822H0l-45,76l14,31H906l46,-76L938,822H678l66,-58V562H431c0,0,-164,0,-164,-99c0,0,0,-55,57,-102l261,82c0,0,104,-21,172,-98c0,0,68,-78,68,-171c0,0,0,-99,-76,-166c0,0,-77,-65,-201,-65Z"
id="f6_ch"
transform="scale(0.001,-0.001)"/>

<path d="M900,298c0,0,32,73,32,159c0,0,0,110,-38,160c0,0,-40,31,-81,31c0,0,-48,0,-80,-35c0,0,-33,-35,-33,-89c0,0,0,-118,200,-226ZM588,-60c0,0,-154,0,-274,93c0,0,-120,94,-120,207c0,0,0,50,28,92C222,332,61,440,61,552c0,0,0,71,56,122c0,0,56,50,169,50H417l64,-98L463,600H333c0,0,-157,-1,-157,-99c0,0,0,-59,88,-124c0,0,68,52,164,52c0,0,38,0,79,-9l71,-88L558,299c0,0,-46,10,-81,10c0,0,-75,0,-116,-36c0,0,-40,-36,-40,-88c0,0,0,-78,73,-130c0,0,54,-17,109,-17c0,0,114,0,211,54c0,0,97,53,154,145c0,0,-156,96,-223,173c0,0,-67,77,-67,155c0,0,0,72,48,124c0,0,48,52,126,55v78H0l-45,76l14,31H1123l46,-76l-14,-31H805l66,-58V717c0,0,76,-40,124,-124c0,0,47,-84,47,-193c0,0,0,-188,-133,-324C909,76,776,-60,588,-60Z"
id="f6_bf"
transform="scale(0.001,-0.001)"/>

<path d="M827,-49L736,8V205c0,0,-84,-84,-209,-84c0,0,-130,0,-237,91c0,0,-108,92,-108,196c0,0,0,79,61,137C243,545,66,672,66,791c0,0,0,75,52,124c0,0,53,49,134,49c0,0,164,0,260,-237L451,694c0,0,-55,114,-119,163l-31,5c0,0,-44,0,-77,-32c0,0,-33,-31,-33,-78c0,0,0,-86,113,-165c0,0,60,27,133,27l67,-4l75,-89L564,490l-51,7H493c0,0,-90,0,-142,-43c0,0,-52,-43,-52,-104c0,0,0,-60,51,-109c0,0,33,-16,84,-16c0,0,89,0,177,47c0,0,89,47,125,137V822H567l-46,76l14,31h466l46,-76l-14,-31H798l65,-58V-39L827,-49Z"
id="f6_bs"
transform="scale(0.001,-0.001)"/>

<path d="M634,-49L249,296c0,0,-1,0,-3,0c-11,0,-48,1,-90,15c0,0,-51,16,-67,36l49,165l50,12l84,-98c0,0,125,31,191,104c0,0,66,73,66,165c0,0,0,109,-95,170c0,0,-2,0,-6,0C397,865,262,858,121,738L46,848c0,0,52,47,127,82c0,0,75,34,152,34c0,0,130,0,226,-94c0,0,95,-94,95,-218c0,0,0,-107,-77,-199c0,0,-77,-92,-216,-134L697,26L698,0L634,-49Z"
id="f6_n8"
transform="scale(0.001,-0.001)"/>

<path d="M483,-305L295,-10c0,0,-90,22,-156,74l41,170h66L351,63c0,0,126,4,207,62c0,0,82,58,82,139c0,0,0,37,-18,71L365,266c0,0,-110,15,-197,102c0,0,-87,87,-87,176c0,0,0,69,59,117c0,0,59,48,172,48H550V822H0l-45,76l14,31H822l46,-76L854,822H603l66,-58V585H373c0,0,-184,0,-184,-99c0,0,0,-48,63,-101l310,78c0,0,86,-34,141,-99c0,0,55,-65,55,-142c0,0,0,-109,-98,-179c0,0,-98,-69,-254,-69L599,-216L483,-305Z"
id="f6_an"
transform="scale(0.001,-0.001)"/>

<path d="M180,220c0,0,-105,99,-162,238l63,72H556l40,-85L574,414H254V249L180,220ZM0,822l-45,76l14,31H471l45,-76L503,822Z"
id="f6_li"
transform="scale(0.001,-0.001)"/>

<path d="M717,-303L633,35L234,-230l-84,77L437,24c0,0,-144,23,-243,128c0,0,-99,105,-99,222c0,0,0,112,84,183c0,0,84,71,221,72H545V822H21l-44,76l13,31H863l46,-76L895,822H607l65,-58V504l-3,2l3,-3H429c0,0,-94,0,-153,-53c0,0,-59,-53,-59,-132c0,0,0,-49,27,-100c0,0,28,-50,83,-84c0,0,44,-15,95,-15c0,0,90,0,162,46L556,303l101,48L794,188c0,0,-13,-49,-96,-118L854,-250L717,-303Z"
id="f6_e3"
transform="scale(0.001,-0.001)"/>

<path d="M959,-49L869,8V367c0,0,-32,-13,-64,-13c0,0,-50,0,-110,25c0,0,23,-52,23,-109c0,0,0,-103,-70,-170c0,0,-70,-66,-182,-66c0,0,-110,0,-222,82c0,0,-111,83,-213,293l68,42c0,0,72,-155,152,-231c0,0,81,-76,178,-76c0,0,83,0,131,49c0,0,48,48,48,117c0,0,0,54,-30,100c0,0,-31,47,-91,65L325,391L257,512c0,0,68,53,156,56c0,0,140,72,140,179c0,0,0,69,-52,99c0,0,-4,1,-11,1c-19,0,-66,-4,-123,-30c0,0,-78,-35,-142,-96L150,823c0,0,119,117,253,117c0,0,98,0,175,-71c0,0,77,-70,77,-159c0,0,0,-103,-94,-180c0,0,39,-23,73,-56c0,0,52,-22,109,-22c0,0,77,0,126,38V822H727l-46,76l14,31h509l-136,104c0,0,-90,65,-157,65c0,0,-68,0,-152,-53l-71,118c0,0,77,65,163,65c0,0,116,0,246,-120L1286,930l-107,271c0,0,-71,166,-187,166c0,0,-52,0,-129,-33l-59,125c0,0,78,46,159,46c0,0,194,0,284,-271L1349,929h186l46,-76l-13,-31H1332l66,-58V-39l-37,-10L1271,8V822H930l66,-58V-39L959,-49Z"
id="f6_b8"
transform="scale(0.001,-0.001)"/>

<path d="M823,-49L733,8V339H445V191L371,160c0,0,-56,36,-120,105c0,0,-63,70,-89,131l41,59H313V735c0,0,0,99,-55,140c0,0,-3,1,-8,1c-16,0,-48,-3,-71,-23c0,0,-31,-26,-31,-66c0,0,0,-69,81,-113L189,620C189,620,31,720,31,828c0,0,0,61,45,99c0,0,46,37,109,37c0,0,96,0,173,-86c0,0,76,-87,79,-194V455H733V822H556l-46,76l14,31H998l45,-76l-13,-31H794l66,-58V-39L823,-49Z"
id="f6_by"
transform="scale(0.001,-0.001)"/>

<path d="M959,-49L869,8V367c0,0,-32,-13,-64,-13c0,0,-50,0,-110,25c0,0,23,-52,23,-109c0,0,0,-103,-70,-170c0,0,-70,-66,-182,-66c0,0,-110,0,-222,82c0,0,-111,83,-213,293l68,42c0,0,72,-155,152,-231c0,0,81,-76,178,-76c0,0,83,0,131,49c0,0,48,48,48,117c0,0,0,54,-30,100c0,0,-31,47,-91,65L325,391L257,512c0,0,68,53,156,56c0,0,140,72,140,179c0,0,0,69,-52,99c0,0,-4,1,-11,1c-19,0,-66,-4,-123,-30c0,0,-78,-35,-142,-96L150,823c0,0,119,117,253,117c0,0,98,0,175,-71c0,0,77,-70,77,-159c0,0,0,-103,-94,-180c0,0,39,-23,73,-56c0,0,52,-22,109,-22c0,0,77,0,126,38V822H727l-46,76l14,31h840l46,-76l-13,-31H1332l66,-58V-39l-37,-10L1271,8V822H930l66,-58V-39L959,-49Z"
id="f6_am"
transform="scale(0.001,-0.001)"/>

<path d="M878,223V822H503l65,-58V600H296c0,0,-162,0,-162,-74c0,0,0,-33,39,-60l369,6L658,364V223Zm91,-379l-91,58V107H666V-10L593,-40c0,0,-61,33,-121,88c0,0,-59,56,-89,115l42,60H535l-3,131H229C229,354,18,454,18,579c0,0,0,60,54,102c0,0,53,43,191,43H449v98H0l-45,76l14,31H1143l46,-76l-14,-31H940l65,-58V-146l-36,-10Z"
id="f6_gi"
transform="scale(0.001,-0.001)"/>

<path d="M163,118c0,0,-65,24,-102,79c0,0,32,69,83,101c0,0,55,-20,99,-80c0,0,-26,-67,-80,-100Zm0,382c0,0,-65,24,-102,79c0,0,32,69,83,101c0,0,55,-20,99,-80c0,0,-26,-67,-80,-100Z"
id="f6_dk"
transform="scale(0.001,-0.001)"/>

<path d="M761,293c0,0,127,0,169,94V532c0,0,-68,46,-145,46c0,0,-76,0,-121,-46c0,0,-45,-45,-45,-107c0,0,0,-61,44,-110c0,0,47,-22,98,-22ZM657,67c0,0,166,0,273,107v55c0,0,-45,-36,-111,-36c0,0,-110,0,-207,90c0,0,-97,90,-97,194c0,0,0,85,66,148c0,0,65,63,155,63l48,-5L930,603V822H376l62,-55V579c0,0,0,-60,-23,-102c0,0,-24,-42,-148,-190c0,0,66,-104,175,-162c0,0,108,-58,215,-58ZM1021,-49L930,8V53c0,0,-105,-83,-264,-83c0,0,-177,0,-339,128C327,98,165,226,90,429l34,77H296c0,0,19,39,19,102l-2,214H0l-45,76l14,31H1195l46,-76l-14,-31H992l65,-58V-39l-36,-10Z"
id="f6_ba"
transform="scale(0.001,-0.001)"/>

<path d="M516,-207L290,58c0,0,-44,5,-99,32c0,0,-55,28,-75,51l58,140l51,12L312,165l49,-3c0,0,100,0,168,47c0,0,67,48,67,118c0,0,0,53,-44,98c0,0,-43,44,-129,65L232,413L165,536c0,0,78,51,176,51c6,0,11,0,17,0c0,0,161,50,161,168c0,0,0,79,-65,114l-20,2c0,0,-69,0,-155,-37c0,0,-86,-36,-151,-93L53,848c0,0,51,49,130,82c0,0,80,34,159,34c0,0,118,0,203,-75c0,0,84,-75,84,-172c0,0,0,-110,-116,-181c0,0,97,-46,148,-112c0,0,51,-66,51,-137c0,0,0,-99,-88,-165c0,0,-88,-65,-237,-65L578,-132l1,-26l-63,-49Z"
id="f6_n9"
transform="scale(0.001,-0.001)"/>

<path d="M348,229c0,0,57,0,106,17L263,559c0,0,-95,-50,-95,-162c0,0,0,-75,52,-136c0,0,49,-32,128,-32Zm170,48c0,0,61,38,96,91V504c0,0,-131,80,-244,80l-35,-2L518,277ZM704,-49L614,8V193c0,0,-84,-65,-192,-65c0,0,-139,0,-255,98c0,0,-115,98,-115,226c0,0,0,106,77,175c0,0,77,70,189,70c0,0,38,0,75,-9L614,578V822H0l-45,76l14,31H878l46,-76L911,822H675l66,-58V-39L704,-49Z"
id="f6_bx"
transform="scale(0.001,-0.001)"/>

<path d="M0,822l-45,76l14,31H61l46,-76L93,822Z"
id="f6_no"
transform="scale(0.001,-0.001)"/>

<path d="M768,-49L678,8V202c0,0,-73,-58,-172,-58c0,0,-123,0,-240,94c0,0,-118,94,-179,237l20,55c0,0,134,12,215,70c0,0,81,57,81,141c0,0,0,90,-67,134l-26,3c0,0,-46,0,-74,-29c0,0,-28,-30,-28,-68c0,0,0,-55,82,-109L252,620C252,620,93,720,93,820c0,0,0,65,47,104c0,0,46,40,114,40c0,0,99,0,179,-83c0,0,80,-83,82,-197c0,0,0,-93,-79,-165c0,0,-78,-73,-199,-97c0,0,29,-104,88,-158c0,0,42,-16,92,-16c0,0,78,0,151,38c0,0,74,38,110,111V822H553l-46,76l14,31H943l45,-76L975,822H739l66,-58V-39L768,-49Z"
id="f6_bq"
transform="scale(0.001,-0.001)"/>

<path d="M-214,860l-227,219c0,0,-73,70,-148,70c0,0,-67,0,-160,-58l-72,117c0,0,83,71,176,71c0,0,120,0,232,-124L-221,940l-102,294c0,0,-64,179,-189,179c0,0,-60,0,-133,-33l-60,125c0,0,84,47,164,47c0,0,200,0,281,-276L-150,901l-23,-15l-41,-26Z"
id="f6_d5"
transform="scale(0.001,-0.001)"/>

<path d="M154,752c0,0,-108,44,-108,143c0,0,0,74,48,145c0,0,48,71,134,118l44,-58c0,0,-43,-31,-72,-76c0,0,-29,-46,-32,-89l80,-61c0,0,-4,-38,-30,-72c0,0,-25,-34,-64,-50Z"
id="f6_8c"
transform="scale(0.001,-0.001)"/>

<path d="M105,752L61,810c0,0,43,30,72,76c0,0,29,46,32,89l-79,61c0,0,3,38,29,72c0,0,26,33,64,50c0,0,110,-43,110,-148c0,0,0,-72,-50,-141c0,0,-50,-70,-134,-117Z"
id="f6_8d"
transform="scale(0.001,-0.001)"/>

<path d="M373,218c0,0,98,0,172,61c0,0,75,60,75,140c0,0,0,29,-10,55c0,0,-69,59,-121,85c0,0,-52,26,-113,26c0,0,-95,0,-151,-56c0,0,-57,-55,-57,-133c0,0,0,-77,52,-135c0,0,60,-43,153,-43ZM431,116c0,0,-142,0,-261,99C170,215,52,315,52,446c0,0,0,107,80,179c0,0,80,72,195,72c0,0,43,0,81,-11L642,548c0,0,73,-91,73,-183c0,0,0,-104,-84,-176c0,0,-84,-73,-200,-73ZM0,822l-45,76l14,31H619l46,-76L651,822Z"
id="f6_lx"
transform="scale(0.001,-0.001)"/>

<path d="M-239,897c0,0,-82,61,-132,137c0,0,-50,75,-50,150c0,0,0,78,52,133c0,0,52,55,141,55c0,0,98,0,176,-64l-23,-69c0,0,-52,32,-104,32c0,0,-57,0,-95,-36c0,0,-38,-36,-38,-95c0,0,0,-115,117,-217l-44,-26Z"
id="f6_dr"
transform="scale(0.001,-0.001)"/>

<path d="M397,102c0,0,52,0,85,36c0,0,33,35,33,87c0,0,0,88,-110,221C405,446,296,307,296,217c0,0,0,-61,39,-101c0,0,35,-14,62,-14ZM451,3C451,3,351,3,268,88c0,0,-83,85,-83,182c0,0,0,107,131,274c0,0,-146,153,-346,324l61,69L81,891L373,610c0,0,87,99,318,330l82,-92C773,848,550,623,461,516c0,0,173,-188,173,-322c0,0,0,-87,-53,-139C581,55,527,3,451,3Z"
id="f6_na"
transform="scale(0.001,-0.001)"/>

<path d="M725,307c0,0,-95,0,-218,78c0,0,-123,78,-188,78c0,0,-54,0,-95,-34c0,0,-41,-34,-73,-100L93,362c0,0,38,88,101,146c0,0,63,59,148,59c0,0,90,0,214,-78c0,0,124,-79,188,-79c0,0,63,0,106,34c0,0,42,33,85,104l60,-40c0,0,-32,-66,-101,-134c0,0,-70,-67,-169,-67Z"
id="f7_4r"
transform="scale(0.001,-0.001)"/>

<path d="M494,385V878L152,385ZM494,0V262H20V385l498,708H628V385H775V262H628V0Z"
id="f8_o"
transform="scale(0.001,-0.001)"/>

<path d="M435,0V856c0,0,-48,-47,-127,-93c0,0,-79,-46,-142,-69V824c0,0,113,52,197,128c0,0,85,75,120,146h86V0Z"
id="f8_l"
transform="scale(0.001,-0.001)"/>


</defs>
</svg>