<?xml version="1.0" encoding="UTF-8" standalone="no"?>
<!DOCTYPE svg PUBLIC "-//W3C//DTD SVG 1.1//EN"
"http://www.w3.org/Graphics/SVG/1.1/DTD/svg11.dtd">
<svg viewBox="0 0 641 910" version="1.1" xmlns="http://www.w3.org/2000/svg" xmlns:xlink="http://www.w3.org/1999/xlink">
<defs>
<clipPath id="c0_121"><path d="M0,909.8V0H641.7V909.8Z"/></clipPath>
<clipPath id="c1_121"><path d="M0,908.6V0H641.7V908.6Z"/></clipPath>
<style type="text/css"><![CDATA[
.g0_121{
fill: #FFFFFF;
}
.g1_121{
}
]]></style>
</defs>
<path d="M0,0H641.7V909.8H0V0Z" class="g0_121"/>
<path d="M0,0H641.7V909.8H0V0Z" class="g0_121"/>
<g clip-path="url(#c0_121)">
<path d="M0,-103716.2H641.7V2729.4H0V-103716.2Z" class="g0_121"/>
</g>
<path d="M0,0H641.7V908.6H0V0Z" class="g0_121"/>
<path d="M19.5,60.7H602.7v1.2H19.5V60.7Z" class="g1_121"/>
<g clip-path="url(#c1_121)">
<path d="M0,61.9H641.7V909.8H0V61.9Z" class="g0_121"/>
<g fill="#000000" >
<use xlink:href="#f5_bp" transform="matrix(14,0,0,14,262.7,96.3)" />
<use xlink:href="#f5_cv" transform="matrix(14,0,0,14,276.1,96.3)" />
<use xlink:href="#f5_no" transform="matrix(14,0,0,14,282.6,96.3)" />
<use xlink:href="#f5_bq" transform="matrix(14,0,0,14,282.6,96.3)" />
<use xlink:href="#f5_dr" transform="matrix(14,0,0,14,297,96.3)" />
<use xlink:href="#f5_bz" transform="matrix(14,0,0,14,302.7,96.3)" />
<use xlink:href="#f5_cu" transform="matrix(14,0,0,14,317.3,96.3)" />
<use xlink:href="#f5_cc" transform="matrix(14,0,0,14,323.8,96.3)" />
<use xlink:href="#f5_bz" transform="matrix(14,0,0,14,336.4,96.3)" />
<use xlink:href="#f5_ct" transform="matrix(14,0,0,14,351.1,96.3)" />
<use xlink:href="#f6_bq" transform="matrix(14,0,0,14,128.6,129.5)" />
<use xlink:href="#f6_d8" transform="matrix(14,0,0,14,141.8,129.5)" />
<use xlink:href="#f6_bt" transform="matrix(14,0,0,14,147.4,129.5)" />
<use xlink:href="#f6_d4" transform="matrix(14,0,0,14,159.3,129.5)" />
<use xlink:href="#f6_bv" transform="matrix(14,0,0,14,164.8,129.5)" />
<use xlink:href="#f6_cw" transform="matrix(14,0,0,14,177.2,129.4)" />
<use xlink:href="#f6_b9" transform="matrix(14,0,0,14,176.7,129.5)" />
<use xlink:href="#f6_ct" transform="matrix(14,0,0,14,192.2,129.5)" />
<use xlink:href="#f6_c1" transform="matrix(14,0,0,14,197.8,129.5)" />
<use xlink:href="#f6_d8" transform="matrix(14,0,0,14,206.2,129.5)" />
<use xlink:href="#f6_bz" transform="matrix(14,0,0,14,217.5,129.5)" />
<use xlink:href="#f6_p3" transform="matrix(14,0,0,14,231,129.5)" />
<use xlink:href="#f6_bp" transform="matrix(14,0,0,14,236.5,129.5)" />
<use xlink:href="#f6_d8" transform="matrix(14,0,0,14,248.8,129.5)" />
<use xlink:href="#f6_bx" transform="matrix(14,0,0,14,260.1,129.5)" />
<use xlink:href="#f6_ct" transform="matrix(14,0,0,14,272.4,129.5)" />
<use xlink:href="#f6_c1" transform="matrix(14,0,0,14,278,129.5)" />
<use xlink:href="#f6_bx" transform="matrix(14,0,0,14,292,129.5)" />
<use xlink:href="#f6_ct" transform="matrix(14,0,0,14,304.3,129.5)" />
<use xlink:href="#f6_c1" transform="matrix(14,0,0,14,310,129.5)" />
<use xlink:href="#f6_b1" transform="matrix(14,0,0,14,324,129.5)" />
<use xlink:href="#f6_k" transform="matrix(14,0,0,14,345.5,129.5)" />
<use xlink:href="#f6_lq" transform="matrix(14,0,0,14,356.4,129.5)" />
<use xlink:href="#f6_cc" transform="matrix(14,0,0,14,363,129.5)" />
<use xlink:href="#f6_ct" transform="matrix(14,0,0,14,374.6,129.5)" />
<use xlink:href="#f6_c1" transform="matrix(14,0,0,14,380.3,129.5)" />
<use xlink:href="#f6_ct" transform="matrix(14,0,0,14,388.6,129.5)" />
<use xlink:href="#f6_am" transform="matrix(14,0,0,14,399.9,129.5)" />
<use xlink:href="#f6_cu" transform="matrix(14,0,0,14,421.4,129.5)" />
<use xlink:href="#f6_br" transform="matrix(14,0,0,14,427,129.5)" />
<use xlink:href="#f6_bt" transform="matrix(14,0,0,14,438.7,129.5)" />
<use xlink:href="#f6_ct" transform="matrix(14,0,0,14,450.4,129.5)" />
<use xlink:href="#f6_no" transform="matrix(14,0,0,14,456,129.5)" />
<use xlink:href="#f6_bq" transform="matrix(14,0,0,14,456,129.5)" />
<use xlink:href="#f6_cc" transform="matrix(14,0,0,14,474.9,129.5)" />
<use xlink:href="#f6_d8" transform="matrix(14,0,0,14,486.5,129.5)" />
<use xlink:href="#f6_c1" transform="matrix(14,0,0,14,192.8,162.7)" />
<use xlink:href="#f6_ct" transform="matrix(14,0,0,14,201.2,162.7)" />
<use xlink:href="#f6_bg" transform="matrix(14,0,0,14,206.8,162.7)" />
<use xlink:href="#f6_ct" transform="matrix(14,0,0,14,221.1,162.7)" />
<use xlink:href="#f6_c8" transform="matrix(14,0,0,14,232.4,162.7)" />
<use xlink:href="#f6_e1" transform="matrix(14,0,0,14,248.2,162.7)" />
<use xlink:href="#f6_cw" transform="matrix(14,0,0,14,260.8,162.6)" />
<use xlink:href="#f6_dj" transform="matrix(14,0,0,14,257.4,163.1)" />
<use xlink:href="#f6_bg" transform="matrix(14,0,0,14,260.3,162.7)" />
<use xlink:href="#f6_c0" transform="matrix(14,0,0,14,274.5,162.7)" />
<use xlink:href="#f6_c1" transform="matrix(14,0,0,14,292.7,162.7)" />
<use xlink:href="#f6_ct" transform="matrix(14,0,0,14,301.1,162.7)" />
<use xlink:href="#f6_bs" transform="matrix(14,0,0,14,312.4,162.7)" />
<use xlink:href="#f6_nu" transform="matrix(14,0,0,14,326.4,162.7)" />
<use xlink:href="#f6_bo" transform="matrix(14,0,0,14,332,162.7)" />
<use xlink:href="#f6_c0" transform="matrix(14,0,0,14,346.4,162.7)" />
<use xlink:href="#f6_ct" transform="matrix(14,0,0,14,358.9,162.7)" />
<use xlink:href="#f6_ng" transform="matrix(14,0,0,14,370.2,162.7)" />
<use xlink:href="#f6_m1" transform="matrix(14,0,0,14,379.6,162.7)" />
<use xlink:href="#f6_bq" transform="matrix(14,0,0,14,388.5,162.7)" />
<use xlink:href="#f6_ct" transform="matrix(14,0,0,14,401.7,162.7)" />
<use xlink:href="#f6_ao" transform="matrix(14,0,0,14,407.3,162.7)" />
<use xlink:href="#f6_ng" transform="matrix(14,0,0,14,418.8,162.7)" />
<use xlink:href="#f6_aq" transform="matrix(14,0,0,14,155,195.9)" />
<use xlink:href="#f6_dj" transform="matrix(14,0,0,14,162.5,196.4)" />
<use xlink:href="#f6_be" transform="matrix(14,0,0,14,170.7,195.9)" />
<use xlink:href="#f6_ct" transform="matrix(14,0,0,14,184.7,195.9)" />
<use xlink:href="#f6_bm" transform="matrix(14,0,0,14,196,195.9)" />
<use xlink:href="#f6_dj" transform="matrix(14,0,0,14,205.3,196.4)" />
<use xlink:href="#f6_bb" transform="matrix(14,0,0,14,208.6,195.9)" />
<use xlink:href="#f6_c1" transform="matrix(14,0,0,14,221.3,195.9)" />
<use xlink:href="#f6_bb" transform="matrix(14,0,0,14,235.3,195.9)" />
<use xlink:href="#f6_d4" transform="matrix(14,0,0,14,248,195.9)" />
<use xlink:href="#f6_c1" transform="matrix(14,0,0,14,247.9,195.9)" />
<use xlink:href="#f6_cv" transform="matrix(14,0,0,14,256.3,195.9)" />
<use xlink:href="#f6_bh" transform="matrix(14,0,0,14,261.9,195.9)" />
<use xlink:href="#f6_ct" transform="matrix(14,0,0,14,278.7,195.9)" />
<use xlink:href="#f6_bm" transform="matrix(14,0,0,14,284.3,195.9)" />
<use xlink:href="#f6_cv" transform="matrix(14,0,0,14,297,195.9)" />
<use xlink:href="#f6_k" transform="matrix(14,0,0,14,302.6,195.9)" />
<use xlink:href="#f6_bc" transform="matrix(14,0,0,14,313.5,195.9)" />
<use xlink:href="#f6_cw" transform="matrix(14,0,0,14,327.9,195.8)" />
<use xlink:href="#f6_bz" transform="matrix(14,0,0,14,327.4,195.9)" />
<use xlink:href="#f6_bk" transform="matrix(14,0,0,14,340.7,195.9)" />
<use xlink:href="#f6_c1" transform="matrix(14,0,0,14,358,195.9)" />
<use xlink:href="#f6_d8" transform="matrix(14,0,0,14,366.3,195.9)" />
<use xlink:href="#f6_bt" transform="matrix(14,0,0,14,377.6,195.9)" />
<use xlink:href="#f6_bg" transform="matrix(14,0,0,14,389.3,195.9)" />
<use xlink:href="#f6_ct" transform="matrix(14,0,0,14,403.6,195.9)" />
<use xlink:href="#f6_c1" transform="matrix(14,0,0,14,409.2,195.9)" />
<use xlink:href="#f6_d8" transform="matrix(14,0,0,14,417.6,195.9)" />
<use xlink:href="#f6_b1" transform="matrix(14,0,0,14,428.9,195.9)" />
<use xlink:href="#f6_ng" transform="matrix(14,0,0,14,456,195.9)" />
<use xlink:href="#f6_cb" transform="matrix(14,0,0,14,159.6,229.2)" />
<use xlink:href="#f6_d8" transform="matrix(14,0,0,14,174.5,229.2)" />
<use xlink:href="#f6_bt" transform="matrix(14,0,0,14,180.1,229.2)" />
<use xlink:href="#f6_ct" transform="matrix(14,0,0,14,191.8,229.2)" />
<use xlink:href="#f6_c1" transform="matrix(14,0,0,14,203.1,229.2)" />
<use xlink:href="#f6_ct" transform="matrix(14,0,0,14,211.5,229.2)" />
<use xlink:href="#f6_cb" transform="matrix(14,0,0,14,222.7,229.2)" />
<use xlink:href="#f6_cx" transform="matrix(14,0,0,14,237.6,229.1)" />
<use xlink:href="#f6_c1" transform="matrix(14,0,0,14,237.6,229.2)" />
<use xlink:href="#f6_bg" transform="matrix(14,0,0,14,246,229.2)" />
<use xlink:href="#f6_c1" transform="matrix(14,0,0,14,265.9,229.2)" />
<use xlink:href="#f6_ct" transform="matrix(14,0,0,14,274.3,229.2)" />
<use xlink:href="#f6_bg" transform="matrix(14,0,0,14,285.6,229.2)" />
<use xlink:href="#f6_oz" transform="matrix(14,0,0,14,300,229.2)" />
<use xlink:href="#f6_bm" transform="matrix(14,0,0,14,299.9,229.2)" />
<use xlink:href="#f6_d8" transform="matrix(14,0,0,14,312.5,229.2)" />
<use xlink:href="#f6_k" transform="matrix(14,0,0,14,318.1,229.2)" />
<use xlink:href="#f6_an" transform="matrix(14,0,0,14,329,229.2)" />
<use xlink:href="#f6_dj" transform="matrix(14,0,0,14,337.3,229.6)" />
<use xlink:href="#f6_bm" transform="matrix(14,0,0,14,340.5,229.2)" />
<use xlink:href="#f6_ct" transform="matrix(14,0,0,14,353.2,229.2)" />
<use xlink:href="#f6_cb" transform="matrix(14,0,0,14,364.5,229.2)" />
<use xlink:href="#f6_d4" transform="matrix(14,0,0,14,379.5,229.2)" />
<use xlink:href="#f6_be" transform="matrix(14,0,0,14,385,229.2)" />
<use xlink:href="#f6_bz" transform="matrix(14,0,0,14,399,229.2)" />
<use xlink:href="#f6_b9" transform="matrix(14,0,0,14,412.4,229.2)" />
<use xlink:href="#f6_ct" transform="matrix(14,0,0,14,427.9,229.2)" />
<use xlink:href="#f6_c1" transform="matrix(14,0,0,14,433.5,229.2)" />
<use xlink:href="#f6_d8" transform="matrix(14,0,0,14,441.9,229.2)" />
<use xlink:href="#f6_ng" transform="matrix(14,0,0,14,453.1,229.2)" />
<use xlink:href="#f6_nu" transform="matrix(14,0,0,14,185.9,262.4)" />
<use xlink:href="#f6_bg" transform="matrix(14,0,0,14,191.6,262.4)" />
<use xlink:href="#f6_bo" transform="matrix(14,0,0,14,205.8,262.4)" />
<use xlink:href="#f6_bz" transform="matrix(14,0,0,14,220.2,262.4)" />
<use xlink:href="#f6_oz" transform="matrix(14,0,0,14,233.6,262.4)" />
<use xlink:href="#f6_cu" transform="matrix(14,0,0,14,239.2,262.4)" />
<use xlink:href="#f6_bx" transform="matrix(14,0,0,14,244.8,262.4)" />
<use xlink:href="#f6_c1" transform="matrix(14,0,0,14,257.1,262.4)" />
<use xlink:href="#f6_ct" transform="matrix(14,0,0,14,265.5,262.4)" />
<use xlink:href="#f6_bg" transform="matrix(14,0,0,14,271.1,262.4)" />
<use xlink:href="#f6_d4" transform="matrix(14,0,0,14,285.5,262.4)" />
<use xlink:href="#f6_bz" transform="matrix(14,0,0,14,291,262.4)" />
<use xlink:href="#f6_ct" transform="matrix(14,0,0,14,304.4,262.4)" />
<use xlink:href="#f6_c1" transform="matrix(14,0,0,14,310,262.4)" />
<use xlink:href="#f6_ct" transform="matrix(14,0,0,14,318.4,262.4)" />
<use xlink:href="#f6_am" transform="matrix(14,0,0,14,329.6,262.4)" />
<use xlink:href="#f6_cu" transform="matrix(14,0,0,14,351.1,262.4)" />
<use xlink:href="#f6_br" transform="matrix(14,0,0,14,356.8,262.4)" />
<use xlink:href="#f6_bt" transform="matrix(14,0,0,14,368.4,262.4)" />
<use xlink:href="#f6_ct" transform="matrix(14,0,0,14,380.1,262.4)" />
<use xlink:href="#f6_no" transform="matrix(14,0,0,14,385.8,262.4)" />
<use xlink:href="#f6_bq" transform="matrix(14,0,0,14,385.8,262.4)" />
<use xlink:href="#f6_cc" transform="matrix(14,0,0,14,404.6,262.4)" />
<use xlink:href="#f6_d8" transform="matrix(14,0,0,14,416.2,262.4)" />
<use xlink:href="#f6_pc" transform="matrix(14,0,0,14,421.8,262.4)" />
<use xlink:href="#f6_pc" transform="matrix(14,0,0,14,426.1,262.4)" />
<use xlink:href="#f6_pc" transform="matrix(14,0,0,14,430.4,262.4)" />
<use xlink:href="#f6_c1" transform="matrix(14,0,0,14,230.6,295.6)" />
<use xlink:href="#f6_ct" transform="matrix(14,0,0,14,239,295.6)" />
<use xlink:href="#f6_bg" transform="matrix(14,0,0,14,244.6,295.6)" />
<use xlink:href="#f6_ct" transform="matrix(14,0,0,14,258.9,295.6)" />
<use xlink:href="#f6_c8" transform="matrix(14,0,0,14,270.2,295.6)" />
<use xlink:href="#f6_e1" transform="matrix(14,0,0,14,286,295.6)" />
<use xlink:href="#f6_cw" transform="matrix(14,0,0,14,298.6,295.5)" />
<use xlink:href="#f6_dj" transform="matrix(14,0,0,14,295.2,296.1)" />
<use xlink:href="#f6_bg" transform="matrix(14,0,0,14,298.1,295.6)" />
<use xlink:href="#f6_c0" transform="matrix(14,0,0,14,312.3,295.6)" />
<use xlink:href="#f6_c1" transform="matrix(14,0,0,14,330.6,295.6)" />
<use xlink:href="#f6_ct" transform="matrix(14,0,0,14,338.9,295.6)" />
<use xlink:href="#f6_ng" transform="matrix(14,0,0,14,344.6,295.6)" />
<use xlink:href="#f6_ng" transform="matrix(14,0,0,14,353.9,295.6)" />
<use xlink:href="#f6_n7" transform="matrix(14,0,0,14,363.3,295.6)" />
<use xlink:href="#f6_ng" transform="matrix(14,0,0,14,372.6,295.6)" />
<use xlink:href="#f6_ng" transform="matrix(14,0,0,14,381.9,295.6)" />
<use xlink:href="#f6_mv" transform="matrix(14,0,0,14,144.7,362.1)" />
<use xlink:href="#f6_bg" transform="matrix(14,0,0,14,156.5,362.1)" />
<use xlink:href="#f6_d8" transform="matrix(14,0,0,14,170.7,362.1)" />
<use xlink:href="#f6_bm" transform="matrix(14,0,0,14,176.3,362.1)" />
<use xlink:href="#f6_ct" transform="matrix(14,0,0,14,189,362.1)" />
<use xlink:href="#f6_bp" transform="matrix(14,0,0,14,200.3,362.1)" />
<use xlink:href="#f6_cv" transform="matrix(14,0,0,14,212.6,362.1)" />
<use xlink:href="#f6_c1" transform="matrix(14,0,0,14,218.2,362.1)" />
<use xlink:href="#f6_no" transform="matrix(14,0,0,14,226.6,362.1)" />
<use xlink:href="#f6_bq" transform="matrix(14,0,0,14,226.6,362.1)" />
<use xlink:href="#f6_c1" transform="matrix(14,0,0,14,245.5,362.1)" />
<use xlink:href="#f6_cv" transform="matrix(14,0,0,14,253.9,362.1)" />
<use xlink:href="#f6_c8" transform="matrix(14,0,0,14,265.1,362.1)" />
<use xlink:href="#f6_d8" transform="matrix(14,0,0,14,281,362.1)" />
<use xlink:href="#f6_by" transform="matrix(14,0,0,14,286.6,362.1)" />
<use xlink:href="#f6_ct" transform="matrix(14,0,0,14,300.6,362.1)" />
<use xlink:href="#f6_k" transform="matrix(14,0,0,14,306.2,362.1)" />
<use xlink:href="#f6_lq" transform="matrix(14,0,0,14,317.1,362.1)" />
<use xlink:href="#f6_cc" transform="matrix(14,0,0,14,323.8,362.1)" />
<use xlink:href="#f6_ct" transform="matrix(14,0,0,14,335.4,362.1)" />
<use xlink:href="#f6_cb" transform="matrix(14,0,0,14,341,362.1)" />
<use xlink:href="#f6_cx" transform="matrix(14,0,0,14,355.8,362)" />
<use xlink:href="#f6_b9" transform="matrix(14,0,0,14,361.5,362.1)" />
<use xlink:href="#f6_cc" transform="matrix(14,0,0,14,377,362.1)" />
<use xlink:href="#f6_cv" transform="matrix(14,0,0,14,388.6,362.1)" />
<use xlink:href="#f6_bt" transform="matrix(14,0,0,14,399.9,362.1)" />
<use xlink:href="#f6_bg" transform="matrix(14,0,0,14,417.3,362.1)" />
<use xlink:href="#f6_ct" transform="matrix(14,0,0,14,431.6,362.1)" />
<use xlink:href="#f6_c7" transform="matrix(14,0,0,14,437.2,362.1)" />
<use xlink:href="#f6_d4" transform="matrix(14,0,0,14,449.4,362.1)" />
<use xlink:href="#f6_b1" transform="matrix(14,0,0,14,454.9,362.1)" />
<use xlink:href="#f6_c1" transform="matrix(14,0,0,14,130.9,395.3)" />
<use xlink:href="#f6_ct" transform="matrix(14,0,0,14,139.3,395.3)" />
<use xlink:href="#f6_bo" transform="matrix(14,0,0,14,144.9,395.3)" />
<use xlink:href="#f6_b9" transform="matrix(14,0,0,14,159.3,395.3)" />
<use xlink:href="#f6_bv" transform="matrix(14,0,0,14,174.8,395.3)" />
<use xlink:href="#f6_cw" transform="matrix(14,0,0,14,187.2,395.2)" />
<use xlink:href="#f6_c1" transform="matrix(14,0,0,14,186.7,395.3)" />
<use xlink:href="#f6_mv" transform="matrix(14,0,0,14,200.7,395.3)" />
<use xlink:href="#f6_cu" transform="matrix(14,0,0,14,212.5,395.3)" />
<use xlink:href="#f6_bt" transform="matrix(14,0,0,14,218.1,395.3)" />
<use xlink:href="#f6_c0" transform="matrix(14,0,0,14,229.8,395.3)" />
<use xlink:href="#f6_ct" transform="matrix(14,0,0,14,242.4,395.3)" />
<use xlink:href="#f6_bz" transform="matrix(14,0,0,14,253.7,395.3)" />
<use xlink:href="#f6_oz" transform="matrix(14,0,0,14,267.1,395.3)" />
<use xlink:href="#f6_bf" transform="matrix(14,0,0,14,272.7,395.3)" />
<use xlink:href="#f6_ct" transform="matrix(14,0,0,14,288.4,395.3)" />
<use xlink:href="#f6_c7" transform="matrix(14,0,0,14,294,395.3)" />
<use xlink:href="#f6_d8" transform="matrix(14,0,0,14,306.1,395.3)" />
<use xlink:href="#f6_k" transform="matrix(14,0,0,14,311.7,395.3)" />
<use xlink:href="#f6_bv" transform="matrix(14,0,0,14,322.6,395.3)" />
<use xlink:href="#f6_dj" transform="matrix(14,0,0,14,328.8,395.7)" />
<use xlink:href="#f6_be" transform="matrix(14,0,0,14,334.4,395.3)" />
<use xlink:href="#f6_bp" transform="matrix(14,0,0,14,354.1,395.3)" />
<use xlink:href="#f6_cv" transform="matrix(14,0,0,14,366.4,395.3)" />
<use xlink:href="#f6_c1" transform="matrix(14,0,0,14,372,395.3)" />
<use xlink:href="#f6_no" transform="matrix(14,0,0,14,380.4,395.3)" />
<use xlink:href="#f6_bq" transform="matrix(14,0,0,14,380.4,395.3)" />
<use xlink:href="#f6_c1" transform="matrix(14,0,0,14,399.3,395.3)" />
<use xlink:href="#f6_d8" transform="matrix(14,0,0,14,407.6,395.3)" />
<use xlink:href="#f6_c1" transform="matrix(14,0,0,14,418.9,395.3)" />
<use xlink:href="#f6_ct" transform="matrix(14,0,0,14,427.3,395.3)" />
<use xlink:href="#f6_bg" transform="matrix(14,0,0,14,432.9,395.3)" />
<use xlink:href="#f6_ct" transform="matrix(14,0,0,14,447.2,395.3)" />
<use xlink:href="#f6_cc" transform="matrix(14,0,0,14,458.5,395.3)" />
<use xlink:href="#f6_d8" transform="matrix(14,0,0,14,470.1,395.3)" />
<use xlink:href="#f6_ng" transform="matrix(14,0,0,14,481.4,395.3)" />
<use xlink:href="#f6_nu" transform="matrix(14,0,0,14,164.2,428.5)" />
<use xlink:href="#f6_bg" transform="matrix(14,0,0,14,169.8,428.5)" />
<use xlink:href="#f6_bo" transform="matrix(14,0,0,14,184,428.5)" />
<use xlink:href="#f6_c1" transform="matrix(14,0,0,14,198.4,428.5)" />
<use xlink:href="#f6_ct" transform="matrix(14,0,0,14,206.8,428.5)" />
<use xlink:href="#f6_bq" transform="matrix(14,0,0,14,218.1,428.5)" />
<use xlink:href="#f6_ct" transform="matrix(14,0,0,14,231.3,428.5)" />
<use xlink:href="#f6_dj" transform="matrix(14,0,0,14,231.5,429)" />
<use xlink:href="#f6_bx" transform="matrix(14,0,0,14,236.9,428.5)" />
<use xlink:href="#f6_nu" transform="matrix(14,0,0,14,249.2,428.5)" />
<use xlink:href="#f6_c3" transform="matrix(14,0,0,14,254.8,428.5)" />
<use xlink:href="#f6_c0" transform="matrix(14,0,0,14,269.5,428.5)" />
<use xlink:href="#f6_ct" transform="matrix(14,0,0,14,282.1,428.5)" />
<use xlink:href="#f6_nt" transform="matrix(14,0,0,14,293.3,428.5)" />
<use xlink:href="#f6_bb" transform="matrix(14,0,0,14,299,428.5)" />
<use xlink:href="#f6_bt" transform="matrix(14,0,0,14,311.6,428.5)" />
<use xlink:href="#f6_bp" transform="matrix(14,0,0,14,323.3,428.5)" />
<use xlink:href="#f6_ct" transform="matrix(14,0,0,14,335.6,428.5)" />
<use xlink:href="#f6_c3" transform="matrix(14,0,0,14,346.9,428.5)" />
<use xlink:href="#f6_ct" transform="matrix(14,0,0,14,361.6,428.5)" />
<use xlink:href="#f6_bb" transform="matrix(14,0,0,14,367.2,428.5)" />
<use xlink:href="#f6_d4" transform="matrix(14,0,0,14,380,428.5)" />
<use xlink:href="#f6_c7" transform="matrix(14,0,0,14,385.5,428.5)" />
<use xlink:href="#f6_ct" transform="matrix(14,0,0,14,397.6,428.5)" />
<use xlink:href="#f6_c1" transform="matrix(14,0,0,14,403.2,428.5)" />
<use xlink:href="#f6_b1" transform="matrix(14,0,0,14,417.2,428.5)" />
<use xlink:href="#f6_pc" transform="matrix(14,0,0,14,438.7,428.5)" />
<use xlink:href="#f6_pc" transform="matrix(14,0,0,14,443,428.5)" />
<use xlink:href="#f6_ng" transform="matrix(14,0,0,14,447.3,428.5)" />
<use xlink:href="#f6_c1" transform="matrix(14,0,0,14,227.2,461.8)" />
<use xlink:href="#f6_ct" transform="matrix(14,0,0,14,235.6,461.8)" />
<use xlink:href="#f6_bg" transform="matrix(14,0,0,14,241.2,461.8)" />
<use xlink:href="#f6_ct" transform="matrix(14,0,0,14,255.4,461.8)" />
<use xlink:href="#f6_c8" transform="matrix(14,0,0,14,266.7,461.8)" />
<use xlink:href="#f6_e1" transform="matrix(14,0,0,14,282.6,461.8)" />
<use xlink:href="#f6_cw" transform="matrix(14,0,0,14,295.2,461.7)" />
<use xlink:href="#f6_dj" transform="matrix(14,0,0,14,291.8,462.2)" />
<use xlink:href="#f6_bg" transform="matrix(14,0,0,14,294.6,461.8)" />
<use xlink:href="#f6_c0" transform="matrix(14,0,0,14,308.9,461.8)" />
<use xlink:href="#f6_c1" transform="matrix(14,0,0,14,327.1,461.8)" />
<use xlink:href="#f6_ct" transform="matrix(14,0,0,14,335.5,461.8)" />
<use xlink:href="#f6_ng" transform="matrix(14,0,0,14,346.8,461.8)" />
<use xlink:href="#f6_ng" transform="matrix(14,0,0,14,356.1,461.8)" />
<use xlink:href="#f6_n8" transform="matrix(14,0,0,14,365.5,461.8)" />
<use xlink:href="#f6_ng" transform="matrix(14,0,0,14,375.9,461.8)" />
<use xlink:href="#f6_ng" transform="matrix(14,0,0,14,385.3,461.8)" />
<use xlink:href="#f6_bb" transform="matrix(14,0,0,14,145.8,528.2)" />
<use xlink:href="#f6_ci" transform="matrix(14,0,0,14,158.4,528.2)" />
<use xlink:href="#f6_be" transform="matrix(14,0,0,14,176,528.2)" />
<use xlink:href="#f6_bn" transform="matrix(14,0,0,14,190,528.2)" />
<use xlink:href="#f6_bp" transform="matrix(14,0,0,14,201.9,528.2)" />
<use xlink:href="#f6_ct" transform="matrix(14,0,0,14,214.3,528.2)" />
<use xlink:href="#f6_am" transform="matrix(14,0,0,14,225.5,528.2)" />
<use xlink:href="#f6_bx" transform="matrix(14,0,0,14,247,528.2)" />
<use xlink:href="#f6_cw" transform="matrix(14,0,0,14,259.9,528.1)" />
<use xlink:href="#f6_bg" transform="matrix(14,0,0,14,259.3,528.2)" />
<use xlink:href="#f6_cv" transform="matrix(14,0,0,14,273.6,528.2)" />
<use xlink:href="#f6_lq" transform="matrix(14,0,0,14,284.9,528.2)" />
<use xlink:href="#f6_cc" transform="matrix(14,0,0,14,291.5,528.2)" />
<use xlink:href="#f6_ct" transform="matrix(14,0,0,14,303.1,528.2)" />
<use xlink:href="#f6_bt" transform="matrix(14,0,0,14,308.8,528.2)" />
<use xlink:href="#f6_d4" transform="matrix(14,0,0,14,320.6,528.2)" />
<use xlink:href="#f6_k" transform="matrix(14,0,0,14,320.5,528.2)" />
<use xlink:href="#f6_bq" transform="matrix(14,0,0,14,331.4,528.2)" />
<use xlink:href="#f6_ct" transform="matrix(14,0,0,14,344.5,528.2)" />
<use xlink:href="#f6_b9" transform="matrix(14,0,0,14,350.2,528.2)" />
<use xlink:href="#f6_bc" transform="matrix(14,0,0,14,371.3,528.2)" />
<use xlink:href="#f6_bo" transform="matrix(14,0,0,14,385.2,528.2)" />
<use xlink:href="#f6_d4" transform="matrix(14,0,0,14,399.7,528.2)" />
<use xlink:href="#f6_c1" transform="matrix(14,0,0,14,399.6,528.2)" />
<use xlink:href="#f6_d8" transform="matrix(14,0,0,14,408,528.2)" />
<use xlink:href="#f6_c3" transform="matrix(14,0,0,14,419.3,528.2)" />
<use xlink:href="#f6_ct" transform="matrix(14,0,0,14,434,528.2)" />
<use xlink:href="#f6_bb" transform="matrix(14,0,0,14,439.6,528.2)" />
<use xlink:href="#f6_d4" transform="matrix(14,0,0,14,452.3,528.2)" />
<use xlink:href="#f6_cc" transform="matrix(14,0,0,14,457.9,528.2)" />
<use xlink:href="#f6_d8" transform="matrix(14,0,0,14,469.5,528.2)" />
<use xlink:href="#f6_br" transform="matrix(14,0,0,14,140.1,561.5)" />
<use xlink:href="#f6_d4" transform="matrix(14,0,0,14,151.3,561.5)" />
<use xlink:href="#f6_c1" transform="matrix(14,0,0,14,151.8,561.5)" />
<use xlink:href="#f6_ct" transform="matrix(14,0,0,14,160.1,561.5)" />
<use xlink:href="#f6_lc" transform="matrix(14,0,0,14,165.8,561.5)" />
<use xlink:href="#f6_c0" transform="matrix(14,0,0,14,174.4,561.5)" />
<use xlink:href="#f6_d8" transform="matrix(14,0,0,14,186.9,561.5)" />
<use xlink:href="#f6_bg" transform="matrix(14,0,0,14,198.2,561.5)" />
<use xlink:href="#f6_d4" transform="matrix(14,0,0,14,212.6,561.5)" />
<use xlink:href="#f6_bl" transform="matrix(14,0,0,14,212.5,561.5)" />
<use xlink:href="#f6_ct" transform="matrix(14,0,0,14,224.8,561.5)" />
<use xlink:href="#f6_lc" transform="matrix(14,0,0,14,230.4,561.5)" />
<use xlink:href="#f6_c0" transform="matrix(14,0,0,14,239,561.5)" />
<use xlink:href="#f6_d8" transform="matrix(14,0,0,14,251.6,561.5)" />
<use xlink:href="#f6_c1" transform="matrix(14,0,0,14,262.9,561.5)" />
<use xlink:href="#f6_ct" transform="matrix(14,0,0,14,271.2,561.5)" />
<use xlink:href="#f6_k" transform="matrix(14,0,0,14,276.9,561.5)" />
<use xlink:href="#f6_bb" transform="matrix(14,0,0,14,287.7,561.5)" />
<use xlink:href="#f6_d8" transform="matrix(14,0,0,14,300.4,561.5)" />
<use xlink:href="#f6_ba" transform="matrix(14,0,0,14,306,561.5)" />
<use xlink:href="#f6_nu" transform="matrix(14,0,0,14,322.7,561.5)" />
<use xlink:href="#f6_c3" transform="matrix(14,0,0,14,328.3,561.5)" />
<use xlink:href="#f6_c0" transform="matrix(14,0,0,14,343,561.5)" />
<use xlink:href="#f6_ct" transform="matrix(14,0,0,14,355.6,561.5)" />
<use xlink:href="#f6_ll" transform="matrix(14,0,0,14,366.9,561.5)" />
<use xlink:href="#f6_c0" transform="matrix(14,0,0,14,373.3,561.5)" />
<use xlink:href="#f6_ct" transform="matrix(14,0,0,14,385.8,561.5)" />
<use xlink:href="#f6_c1" transform="matrix(14,0,0,14,391.5,561.5)" />
<use xlink:href="#f6_ct" transform="matrix(14,0,0,14,399.8,561.5)" />
<use xlink:href="#f6_c3" transform="matrix(14,0,0,14,411.1,561.5)" />
<use xlink:href="#f6_ct" transform="matrix(14,0,0,14,425.8,561.5)" />
<use xlink:href="#f6_bb" transform="matrix(14,0,0,14,431.5,561.5)" />
<use xlink:href="#f6_d4" transform="matrix(14,0,0,14,444.2,561.5)" />
<use xlink:href="#f6_cc" transform="matrix(14,0,0,14,449.7,561.5)" />
<use xlink:href="#f6_d8" transform="matrix(14,0,0,14,461.3,561.5)" />
<use xlink:href="#f6_ng" transform="matrix(14,0,0,14,472.6,561.5)" />
<use xlink:href="#f6_br" transform="matrix(14,0,0,14,174.5,594.7)" />
<use xlink:href="#f6_c8" transform="matrix(14,0,0,14,186.1,594.7)" />
<use xlink:href="#f6_dr" transform="matrix(14,0,0,14,202.5,594.7)" />
<use xlink:href="#f6_bt" transform="matrix(14,0,0,14,202,594.7)" />
<use xlink:href="#f6_b9" transform="matrix(14,0,0,14,219.4,594.7)" />
<use xlink:href="#f6_c1" transform="matrix(14,0,0,14,234.9,594.7)" />
<use xlink:href="#f6_c7" transform="matrix(14,0,0,14,243.3,594.7)" />
<use xlink:href="#f6_ct" transform="matrix(14,0,0,14,255.3,594.7)" />
<use xlink:href="#f6_c1" transform="matrix(14,0,0,14,266.6,594.7)" />
<use xlink:href="#f6_cv" transform="matrix(14,0,0,14,275,594.7)" />
<use xlink:href="#f6_bz" transform="matrix(14,0,0,14,286.3,594.7)" />
<use xlink:href="#f6_ct" transform="matrix(14,0,0,14,299.6,594.7)" />
<use xlink:href="#f6_bt" transform="matrix(14,0,0,14,305.3,594.7)" />
<use xlink:href="#f6_d4" transform="matrix(14,0,0,14,317.1,594.7)" />
<use xlink:href="#f6_k" transform="matrix(14,0,0,14,317,594.7)" />
<use xlink:href="#f6_c3" transform="matrix(14,0,0,14,327.9,594.7)" />
<use xlink:href="#f6_ct" transform="matrix(14,0,0,14,342.6,594.7)" />
<use xlink:href="#f6_bb" transform="matrix(14,0,0,14,348.2,594.7)" />
<use xlink:href="#f6_cv" transform="matrix(14,0,0,14,360.8,594.7)" />
<use xlink:href="#f6_ll" transform="matrix(14,0,0,14,372.1,594.7)" />
<use xlink:href="#f6_c0" transform="matrix(14,0,0,14,378.5,594.7)" />
<use xlink:href="#f6_ct" transform="matrix(14,0,0,14,391.1,594.7)" />
<use xlink:href="#f6_cb" transform="matrix(14,0,0,14,396.7,594.7)" />
<use xlink:href="#f6_cc" transform="matrix(14,0,0,14,417.2,594.7)" />
<use xlink:href="#f6_d8" transform="matrix(14,0,0,14,428.8,594.7)" />
<use xlink:href="#f6_pc" transform="matrix(14,0,0,14,434.5,594.7)" />
<use xlink:href="#f6_pc" transform="matrix(14,0,0,14,438.7,594.7)" />
<use xlink:href="#f6_pc" transform="matrix(14,0,0,14,443,594.7)" />
<use xlink:href="#f6_c1" transform="matrix(14,0,0,14,226,627.9)" />
<use xlink:href="#f6_ct" transform="matrix(14,0,0,14,234.4,627.9)" />
<use xlink:href="#f6_bg" transform="matrix(14,0,0,14,240,627.9)" />
<use xlink:href="#f6_ct" transform="matrix(14,0,0,14,254.3,627.9)" />
<use xlink:href="#f6_c8" transform="matrix(14,0,0,14,265.6,627.9)" />
<use xlink:href="#f6_e1" transform="matrix(14,0,0,14,281.4,627.9)" />
<use xlink:href="#f6_cw" transform="matrix(14,0,0,14,294,627.8)" />
<use xlink:href="#f6_dj" transform="matrix(14,0,0,14,290.6,628.3)" />
<use xlink:href="#f6_bg" transform="matrix(14,0,0,14,293.5,627.9)" />
<use xlink:href="#f6_c0" transform="matrix(14,0,0,14,307.8,627.9)" />
<use xlink:href="#f6_c1" transform="matrix(14,0,0,14,326,627.9)" />
<use xlink:href="#f6_ct" transform="matrix(14,0,0,14,334.4,627.9)" />
<use xlink:href="#f6_ng" transform="matrix(14,0,0,14,345.6,627.9)" />
<use xlink:href="#f6_ng" transform="matrix(14,0,0,14,355,627.9)" />
<use xlink:href="#f6_n9" transform="matrix(14,0,0,14,364.4,627.9)" />
<use xlink:href="#f6_ng" transform="matrix(14,0,0,14,375.5,627.9)" />
<use xlink:href="#f6_ng" transform="matrix(14,0,0,14,384.9,627.9)" />
<use xlink:href="#f6_c1" transform="matrix(14,0,0,14,144.7,661.1)" />
<use xlink:href="#f6_ct" transform="matrix(14,0,0,14,153.1,661.1)" />
<use xlink:href="#f6_c7" transform="matrix(14,0,0,14,158.7,661.1)" />
<use xlink:href="#f6_bo" transform="matrix(14,0,0,14,170.8,661.1)" />
<use xlink:href="#f6_bg" transform="matrix(14,0,0,14,190.8,661.1)" />
<use xlink:href="#f6_d4" transform="matrix(14,0,0,14,205.2,661.1)" />
<use xlink:href="#f6_bm" transform="matrix(14,0,0,14,205,661.1)" />
<use xlink:href="#f6_cv" transform="matrix(14,0,0,14,217.7,661.1)" />
<use xlink:href="#f6_bz" transform="matrix(14,0,0,14,229,661.1)" />
<use xlink:href="#f6_d8" transform="matrix(14,0,0,14,242.4,661.1)" />
<use xlink:href="#f6_bk" transform="matrix(14,0,0,14,248,661.1)" />
<use xlink:href="#f6_cv" transform="matrix(14,0,0,14,259.5,661.1)" />
<use xlink:href="#f6_cc" transform="matrix(14,0,0,14,270.8,661.1)" />
<use xlink:href="#f6_m1" transform="matrix(14,0,0,14,282.4,661.1)" />
<use xlink:href="#f6_bp" transform="matrix(14,0,0,14,291.3,661.1)" />
<use xlink:href="#f6_cv" transform="matrix(14,0,0,14,303.6,661.1)" />
<use xlink:href="#f6_k" transform="matrix(14,0,0,14,309.3,661.1)" />
<use xlink:href="#f6_al" transform="matrix(14,0,0,14,320.1,661.1)" />
<use xlink:href="#f6_kf" transform="matrix(14,0,0,14,336,661.1)" />
<use xlink:href="#f6_ct" transform="matrix(14,0,0,14,348,661.1)" />
<use xlink:href="#f6_c7" transform="matrix(14,0,0,14,353.7,661.1)" />
<use xlink:href="#f6_br" transform="matrix(14,0,0,14,365.7,661.1)" />
<use xlink:href="#f6_bb" transform="matrix(14,0,0,14,383.1,661.1)" />
<use xlink:href="#f6_cv" transform="matrix(14,0,0,14,395.7,661.1)" />
<use xlink:href="#f6_c1" transform="matrix(14,0,0,14,401.3,661.1)" />
<use xlink:href="#f6_cv" transform="matrix(14,0,0,14,409.7,661.1)" />
<use xlink:href="#f6_c0" transform="matrix(14,0,0,14,421,661.1)" />
<use xlink:href="#f6_d8" transform="matrix(14,0,0,14,433.5,661.1)" />
<use xlink:href="#f6_cc" transform="matrix(14,0,0,14,444.8,661.1)" />
<use xlink:href="#f6_d8" transform="matrix(14,0,0,14,456.4,661.1)" />
<use xlink:href="#f6_ng" transform="matrix(14,0,0,14,467.7,661.1)" />
<use xlink:href="#f6_bt" transform="matrix(14,0,0,14,126.3,694.4)" />
<use xlink:href="#f6_c7" transform="matrix(14,0,0,14,138.1,694.4)" />
<use xlink:href="#f6_cu" transform="matrix(14,0,0,14,155.8,694.4)" />
<use xlink:href="#f6_c7" transform="matrix(14,0,0,14,161.4,694.4)" />
<use xlink:href="#f6_nt" transform="matrix(14,0,0,14,173.5,694.4)" />
<use xlink:href="#f6_nl" transform="matrix(14,0,0,14,179.1,694.4)" />
<use xlink:href="#f6_bs" transform="matrix(14,0,0,14,179.1,694.4)" />
<use xlink:href="#f6_c0" transform="matrix(14,0,0,14,193.1,694.4)" />
<use xlink:href="#f6_d8" transform="matrix(14,0,0,14,205.7,694.4)" />
<use xlink:href="#f6_dj" transform="matrix(14,0,0,14,210,695.2)" />
<use xlink:href="#f6_cb" transform="matrix(14,0,0,14,217,694.4)" />
<use xlink:href="#f6_cx" transform="matrix(14,0,0,14,231.8,694.3)" />
<use xlink:href="#f6_dj" transform="matrix(14,0,0,14,225.5,694.8)" />
<use xlink:href="#f6_bt" transform="matrix(14,0,0,14,237.5,694.4)" />
<use xlink:href="#f6_ct" transform="matrix(14,0,0,14,249.2,694.4)" />
<use xlink:href="#f6_bk" transform="matrix(14,0,0,14,254.8,694.4)" />
<use xlink:href="#f6_b9" transform="matrix(14,0,0,14,266.4,694.4)" />
<use xlink:href="#f6_b9" transform="matrix(14,0,0,14,287.6,694.4)" />
<use xlink:href="#f6_c1" transform="matrix(14,0,0,14,303.1,694.4)" />
<use xlink:href="#f6_bt" transform="matrix(14,0,0,14,311.4,694.4)" />
<use xlink:href="#f6_d4" transform="matrix(14,0,0,14,323.3,694.4)" />
<use xlink:href="#f6_k" transform="matrix(14,0,0,14,323.2,694.4)" />
<use xlink:href="#f6_e6" transform="matrix(14,0,0,14,334,694.4)" />
<use xlink:href="#f6_by" transform="matrix(14,0,0,14,346.1,694.4)" />
<use xlink:href="#f6_cw" transform="matrix(14,0,0,14,360.6,694.3)" />
<use xlink:href="#f6_nr" transform="matrix(14,0,0,14,365.7,694.4)" />
<use xlink:href="#f6_c1" transform="matrix(14,0,0,14,371.4,694.4)" />
<use xlink:href="#f6_bh" transform="matrix(14,0,0,14,379.7,694.4)" />
<use xlink:href="#f6_ct" transform="matrix(14,0,0,14,396.5,694.4)" />
<use xlink:href="#f6_c7" transform="matrix(14,0,0,14,402.2,694.4)" />
<use xlink:href="#f6_bo" transform="matrix(14,0,0,14,414.2,694.4)" />
<use xlink:href="#f6_c3" transform="matrix(14,0,0,14,434.3,694.4)" />
<use xlink:href="#f6_ct" transform="matrix(14,0,0,14,449,694.4)" />
<use xlink:href="#f6_bb" transform="matrix(14,0,0,14,454.6,694.4)" />
<use xlink:href="#f6_d8" transform="matrix(14,0,0,14,467.2,694.4)" />
<use xlink:href="#f6_cc" transform="matrix(14,0,0,14,478.5,694.4)" />
<use xlink:href="#f6_d8" transform="matrix(14,0,0,14,490.1,694.4)" />
<use xlink:href="#f6_8c" transform="matrix(14,0,0,14,134.4,727.6)" />
<use xlink:href="#f6_bt" transform="matrix(14,0,0,14,139,727.6)" />
<use xlink:href="#f6_ct" transform="matrix(14,0,0,14,150.7,727.6)" />
<use xlink:href="#f6_b9" transform="matrix(14,0,0,14,156.4,727.6)" />
<use xlink:href="#f6_d8" transform="matrix(14,0,0,14,171.9,727.6)" />
<use xlink:href="#f6_ch" transform="matrix(14,0,0,14,177.5,727.6)" />
<use xlink:href="#f6_ct" transform="matrix(14,0,0,14,190.2,727.6)" />
<use xlink:href="#f6_by" transform="matrix(14,0,0,14,201.4,727.6)" />
<use xlink:href="#f6_d5" transform="matrix(14,0,0,14,215.5,727.6)" />
<use xlink:href="#f6_c1" transform="matrix(14,0,0,14,215.4,727.6)" />
<use xlink:href="#f6_c7" transform="matrix(14,0,0,14,223.8,727.6)" />
<use xlink:href="#f6_by" transform="matrix(14,0,0,14,241.5,727.6)" />
<use xlink:href="#f6_o0" transform="matrix(14,0,0,14,255.5,727.6)" />
<use xlink:href="#f6_l1" transform="matrix(14,0,0,14,261.1,727.6)" />
<use xlink:href="#f6_bp" transform="matrix(14,0,0,14,273,727.6)" />
<use xlink:href="#f6_bz" transform="matrix(14,0,0,14,291,727.6)" />
<use xlink:href="#f6_dj" transform="matrix(14,0,0,14,298.4,728)" />
<use xlink:href="#f6_bm" transform="matrix(14,0,0,14,304.3,727.6)" />
<use xlink:href="#f6_c3" transform="matrix(14,0,0,14,317,727.6)" />
<use xlink:href="#f6_8d" transform="matrix(14,0,0,14,331.7,727.6)" />
<use xlink:href="#f6_pd" transform="matrix(14,0,0,14,342,727.6)" />
<use xlink:href="#f6_bb" transform="matrix(14,0,0,14,355.2,727.6)" />
<use xlink:href="#f6_ct" transform="matrix(14,0,0,14,367.8,727.6)" />
<use xlink:href="#f6_c7" transform="matrix(14,0,0,14,373.5,727.6)" />
<use xlink:href="#f6_d4" transform="matrix(14,0,0,14,385.7,727.6)" />
<use xlink:href="#f6_bq" transform="matrix(14,0,0,14,391.2,727.6)" />
<use xlink:href="#f6_d8" transform="matrix(14,0,0,14,404.4,727.6)" />
<use xlink:href="#f6_c1" transform="matrix(14,0,0,14,410,727.6)" />
<use xlink:href="#f6_bb" transform="matrix(14,0,0,14,424.1,727.6)" />
<use xlink:href="#f6_cv" transform="matrix(14,0,0,14,436.7,727.6)" />
<use xlink:href="#f6_bp" transform="matrix(14,0,0,14,442.3,727.6)" />
<use xlink:href="#f6_cc" transform="matrix(14,0,0,14,460.3,727.6)" />
<use xlink:href="#f6_d8" transform="matrix(14,0,0,14,471.9,727.6)" />
<use xlink:href="#f6_pc" transform="matrix(14,0,0,14,477.5,727.6)" />
<use xlink:href="#f6_pc" transform="matrix(14,0,0,14,481.8,727.6)" />
<use xlink:href="#f6_c1" transform="matrix(14,0,0,14,229.5,760.8)" />
<use xlink:href="#f6_ct" transform="matrix(14,0,0,14,237.9,760.8)" />
<use xlink:href="#f6_bg" transform="matrix(14,0,0,14,243.5,760.8)" />
<use xlink:href="#f6_ct" transform="matrix(14,0,0,14,257.7,760.8)" />
<use xlink:href="#f6_c8" transform="matrix(14,0,0,14,269,760.8)" />
<use xlink:href="#f6_e1" transform="matrix(14,0,0,14,284.9,760.8)" />
<use xlink:href="#f6_cw" transform="matrix(14,0,0,14,297.5,760.7)" />
<use xlink:href="#f6_dj" transform="matrix(14,0,0,14,294.1,761.3)" />
<use xlink:href="#f6_bg" transform="matrix(14,0,0,14,296.9,760.8)" />
<use xlink:href="#f6_c0" transform="matrix(14,0,0,14,311.2,760.8)" />
<use xlink:href="#f6_c1" transform="matrix(14,0,0,14,329.4,760.8)" />
<use xlink:href="#f6_ct" transform="matrix(14,0,0,14,337.8,760.8)" />
<use xlink:href="#f6_ng" transform="matrix(14,0,0,14,343.4,760.8)" />
<use xlink:href="#f6_ng" transform="matrix(14,0,0,14,352.8,760.8)" />
<use xlink:href="#f6_na" transform="matrix(14,0,0,14,362.1,760.8)" />
<use xlink:href="#f6_ng" transform="matrix(14,0,0,14,373.4,760.8)" />
<use xlink:href="#f6_ng" transform="matrix(14,0,0,14,382.7,760.8)" />
<use xlink:href="#f7_4r" transform="matrix(9,0,0,9,286.8,795.2)" />
<use xlink:href="#f8_l" transform="matrix(9,0,0,9,299.6,795.2)" />
<use xlink:href="#f8_l" transform="matrix(9,0,0,9,307.2,795.2)" />
<use xlink:href="#f8_p" transform="matrix(9,0,0,9,314.9,795.2)" />
<use xlink:href="#f7_4r" transform="matrix(9,0,0,9,325.6,795.2)" />
</g>
</g>
<image preserveAspectRatio="none" x="22" y="801" width="581" height="86" xlink:href="img/1.png"/>
<path d="M263.5,97.4h95.1v1.1H263.5V97.4Z" class="g1_121"/>
<image preserveAspectRatio="none" x="202" y="14" width="217" height="26" xlink:href="img/2.png"/>
<defs>
<path d="M342,-69c0,0,-146,139,-224,256c0,0,-78,117,-78,226c0,0,0,120,90,193c0,0,90,72,243,72H599V822H0L-86,937l32,64H959l86,-115l-32,-64H741L843,749V-31L773,-65L599,29V445H448c0,0,-81,0,-123,-34c0,0,-42,-34,-42,-90c0,0,0,-54,43,-118c0,0,44,-64,143,-163L342,-69Z"
id="f5_bp"
transform="scale(0.001,-0.001)"/>

<path d="M277,-65L102,29V822H0L-86,937l32,64H110c0,0,-50,142,-110,226c0,0,-60,84,-149,84c0,0,-59,0,-97,-37c0,0,-39,-36,-39,-91c0,0,0,-57,42,-115l-95,-50c0,0,-145,116,-145,267c0,0,0,108,75,179c0,0,76,70,195,70c0,0,179,0,297,-150c0,0,119,-150,189,-383H463L548,886L516,822H244L347,749V-31L277,-65Z"
id="f5_cv"
transform="scale(0.001,-0.001)"/>

<path d="M0,822L-86,937l32,64H15L101,886L69,822Z"
id="f5_no"
transform="scale(0.001,-0.001)"/>

<path d="M842,-65L668,29V141c0,0,-66,-33,-142,-33c0,0,-146,0,-279,109c0,0,-134,108,-209,287l29,78c0,0,324,35,324,203c0,0,0,46,-27,80c0,0,-13,6,-29,6c0,0,-32,0,-57,-23c0,0,-24,-23,-24,-60c0,0,0,-49,45,-91L211,636C211,636,49,746,49,857c0,0,0,73,59,126c0,0,60,53,146,53c0,0,128,0,236,-109c0,0,107,-110,107,-239c0,0,0,-98,-74,-182c0,0,-75,-83,-222,-119c0,0,20,-51,52,-95c0,0,1,0,4,0c20,0,102,2,181,39c0,0,90,42,130,121V822H636L550,937l32,64h445l85,-115l-32,-64H810L912,749V-31L842,-65Z"
id="f5_bq"
transform="scale(0.001,-0.001)"/>

<path d="M-268,901c0,0,-241,181,-241,358c0,0,0,99,72,166c0,0,71,68,177,68c0,0,69,0,132,-29c0,0,63,-28,102,-72L-60,1276c0,0,-52,26,-106,26c0,0,-62,0,-106,-35c0,0,-43,-36,-43,-101c0,0,0,-57,34,-110c0,0,35,-54,103,-121l-90,-34Z"
id="f5_dr"
transform="scale(0.001,-0.001)"/>

<path d="M686,512V822H333L435,749l2,-237ZM860,-65L686,29V298H440V168L348,118c0,0,-90,30,-190,128c0,0,-100,98,-127,183l52,83H203L189,822H0L-86,937l32,64H1045l86,-115l-33,-64H828L930,749V-31L860,-65Z"
id="f5_bz"
transform="scale(0.001,-0.001)"/>

<path d="M289,-65L115,29V822H0L-86,937l32,64H115c0,0,-98,102,-98,224c0,0,0,133,101,215c0,0,102,82,262,82c0,0,155,0,359,-94c0,0,205,-94,437,-311l-76,-98c0,0,-354,281,-617,281c0,0,-113,0,-187,-48c0,0,-73,-48,-73,-134c0,0,0,-53,41,-117H463L548,886L516,822H257L359,749V-31L289,-65Z"
id="f5_cu"
transform="scale(0.001,-0.001)"/>

<path d="M756,-314c0,0,-304,57,-481,187C275,-127,98,2,98,170c0,0,0,117,82,197c0,0,-110,91,-110,195c0,0,0,74,64,127c0,0,63,54,188,54H567v79H0L-86,937l32,64H906L992,886L959,822H684L787,749V535H383c0,0,-110,0,-110,-67c0,0,0,-19,10,-36c0,0,78,32,174,32c0,0,162,0,277,-87c0,0,115,-87,115,-214c0,0,0,-143,-142,-228L518,76c0,0,125,94,145,173c0,0,-55,26,-113,26c0,0,-84,0,-144,-45c0,0,-59,-45,-59,-118c0,0,0,-107,121,-166c0,0,120,-60,336,-105L756,-314Z"
id="f5_cc"
transform="scale(0.001,-0.001)"/>

<path d="M277,-65L102,29V822H0L-86,937l32,64H463L548,886L516,822H244L347,749V-31L277,-65Z"
id="f5_ct"
transform="scale(0.001,-0.001)"/>

<path d="M768,-49L678,8V202c0,0,-73,-58,-172,-58c0,0,-123,0,-240,94c0,0,-118,94,-179,237l20,55c0,0,134,12,215,70c0,0,81,57,81,141c0,0,0,90,-67,134l-26,3c0,0,-46,0,-74,-29c0,0,-28,-30,-28,-68c0,0,0,-55,82,-109L252,620C252,620,93,720,93,820c0,0,0,65,47,104c0,0,46,40,114,40c0,0,99,0,179,-83c0,0,80,-83,82,-197c0,0,0,-93,-79,-165c0,0,-78,-73,-199,-97c0,0,29,-104,88,-158c0,0,42,-16,92,-16c0,0,78,0,151,38c0,0,74,38,110,111V822H553l-46,76l14,31H943l45,-76L975,822H739l66,-58V-39L768,-49Z"
id="f6_bq"
transform="scale(0.001,-0.001)"/>

<path d="M228,-49L138,8V822H0l-45,76l14,31H119L-33,1144c0,0,-70,92,-157,92c0,0,-69,0,-159,-58l-72,118c0,0,89,73,181,73c0,0,140,0,257,-170L205,929H402l46,-76L434,822H199l65,-58V-39L228,-49Z"
id="f6_d8"
transform="scale(0.001,-0.001)"/>

<path d="M663,-49L573,8V445H299V280L226,251c0,0,-105,99,-162,238l63,72H573V822H0l-45,76l14,31H837l46,-76L869,822H634l66,-58V-39L663,-49Z"
id="f6_bt"
transform="scale(0.001,-0.001)"/>

<path d="M-214,863l-199,281c0,0,-70,92,-157,92c0,0,-69,0,-159,-58l-72,118c0,0,89,73,180,73c0,0,141,0,258,-170L-155,901l-59,-38Z"
id="f6_d4"
transform="scale(0.001,-0.001)"/>

<path d="M388,325c0,0,58,0,112,31c0,0,53,31,84,86V822H165l69,-58V408c0,0,47,-83,154,-83ZM674,-49L584,8V257c0,0,-61,-51,-141,-51c0,0,-125,0,-232,109c0,0,-107,108,-107,243V822H0l-45,76l14,31H848l46,-76L880,822H645l65,-58V-39L674,-49Z"
id="f6_bv"
transform="scale(0.001,-0.001)"/>

<path d="M-234,-413c0,0,-210,0,-488,322l54,49c0,0,119,-128,209,-193c0,0,90,-65,177,-65c0,0,72,0,113,40c0,0,42,39,42,91c0,0,0,75,-78,106L-323,-181l-90,98c0,0,63,95,167,95c0,0,90,0,155,-69c0,0,66,-70,66,-164c0,0,0,-85,-60,-139c0,0,-61,-53,-149,-53Z"
id="f6_cw"
transform="scale(0.001,-0.001)"/>

<path d="M283,260c0,0,122,0,209,113V513c0,0,-90,51,-160,51c0,0,-80,0,-129,-50c0,0,-49,-50,-49,-118c0,0,0,-60,35,-110c0,0,45,-26,94,-26ZM582,-49L492,8V211c0,0,-63,-54,-141,-54c0,0,-113,0,-213,92c0,0,-100,92,-100,205c0,0,0,93,69,157c0,0,69,64,162,64c0,0,32,0,64,-9L492,590V822H0l-45,76l14,31H1108l45,-76l-13,-31H553l66,-58V524c0,0,91,89,192,89c0,0,98,0,171,-79c0,0,72,-79,72,-186c0,0,0,-178,-224,-330L736,124c0,0,219,153,219,269c0,0,0,44,-26,75c0,0,-26,32,-81,32c0,0,-109,0,-229,-155V-39L582,-49Z"
id="f6_b9"
transform="scale(0.001,-0.001)"/>

<path d="M228,-49L138,8V822H0l-45,76l14,31H402l46,-76L434,822H199l65,-58V-39L228,-49Z"
id="f6_ct"
transform="scale(0.001,-0.001)"/>

<path d="M527,-71L52,414l34,92H277c0,0,12,32,12,72V822H0l-45,76l14,31H599l46,-76L631,822H350l66,-55V564c0,0,0,-96,-152,-248L610,34L611,8L527,-71Z"
id="f6_c1"
transform="scale(0.001,-0.001)"/>

<path d="M689,445V822H286l65,-58l8,-319ZM779,-49L689,8V328H370V180L296,150c0,0,-56,35,-120,104c0,0,-63,70,-89,131l41,60H238L223,822H0l-45,76l14,31H953l46,-76L985,822H750l66,-58V-39L779,-49Z"
id="f6_bz"
transform="scale(0.001,-0.001)"/>

<path d="M-40,1030c0,0,-28,10,-61,36c0,0,-34,26,-51,49c0,0,38,81,90,110c0,0,61,-23,106,-85c0,0,-27,-71,-84,-110ZM-214,860l-227,219c0,0,-73,70,-148,70c0,0,-67,0,-160,-58l-72,117c0,0,83,71,176,71c0,0,120,0,232,-124L-221,940l-102,294c0,0,-64,179,-189,179c0,0,-60,0,-133,-33l-60,125c0,0,84,47,164,47c0,0,200,0,281,-276L-150,901l-23,-15l-41,-26Z"
id="f6_p3"
transform="scale(0.001,-0.001)"/>

<path d="M347,-57C347,-57,66,211,66,394c0,0,0,98,74,164c0,0,74,65,225,65H616V822H0l-45,76l14,31H880l46,-76L912,822H677l66,-58V-39L706,-49L616,8V500H428c0,0,-239,0,-239,-161c0,0,0,-136,214,-343L347,-57Z"
id="f6_bp"
transform="scale(0.001,-0.001)"/>

<path d="M348,229c0,0,57,0,106,17L263,559c0,0,-95,-50,-95,-162c0,0,0,-75,52,-136c0,0,49,-32,128,-32Zm170,48c0,0,61,38,96,91V504c0,0,-131,80,-244,80l-35,-2L518,277ZM704,-49L614,8V193c0,0,-84,-65,-192,-65c0,0,-139,0,-255,98c0,0,-115,98,-115,226c0,0,0,106,77,175c0,0,77,70,189,70c0,0,38,0,75,-9L614,578V822H0l-45,76l14,31H878l46,-76L911,822H675l66,-58V-39L704,-49Z"
id="f6_bx"
transform="scale(0.001,-0.001)"/>

<path d="M959,-49L869,8V367c0,0,-32,-13,-64,-13c0,0,-50,0,-110,25c0,0,23,-52,23,-109c0,0,0,-103,-70,-170c0,0,-70,-66,-182,-66c0,0,-110,0,-222,82c0,0,-111,83,-213,293l68,42c0,0,72,-155,152,-231c0,0,81,-76,178,-76c0,0,83,0,131,49c0,0,48,48,48,117c0,0,0,54,-30,100c0,0,-31,47,-91,65L325,391L257,512c0,0,68,53,156,56c0,0,140,72,140,179c0,0,0,69,-52,99c0,0,-4,1,-11,1c-19,0,-66,-4,-123,-30c0,0,-78,-35,-142,-96L150,823c0,0,119,117,253,117c0,0,98,0,175,-71c0,0,77,-70,77,-159c0,0,0,-103,-94,-180c0,0,39,-23,73,-56c0,0,52,-22,109,-22c0,0,77,0,126,38V822H727l-46,76l14,31h558l-153,215c0,0,-70,92,-157,92c0,0,-69,0,-159,-58l-72,118c0,0,89,73,180,73c0,0,141,0,258,-170L1338,929h197l46,-76l-13,-31H1332l66,-58V-39l-37,-10L1271,8V822H930l66,-58V-39L959,-49Z"
id="f6_b1"
transform="scale(0.001,-0.001)"/>

<path d="M108,-222l-44,58c0,0,96,81,104,164L89,61c0,0,12,83,93,122c0,0,50,-15,79,-55c0,0,29,-39,29,-90c0,0,0,-69,-48,-142c0,0,-48,-72,-134,-118Z"
id="f6_k"
transform="scale(0.001,-0.001)"/>

<path d="M266,150c0,0,-57,35,-120,104c0,0,-63,70,-89,131l41,60H211L194,822H0l-45,76l14,31H587l46,-76L619,822H255l66,-58l7,-319H688L721,328H339V180L266,150Z"
id="f6_lq"
transform="scale(0.001,-0.001)"/>

<path d="M688,-243c0,0,-256,53,-408,173c0,0,-152,119,-152,270c0,0,0,101,68,171c0,0,-101,84,-101,179c0,0,0,64,53,112c0,0,54,47,191,47H587V822H0l-45,76l14,31H830l45,-76L862,822H640l66,-58V585H362c0,0,-159,-1,-159,-92c0,0,0,-41,46,-80c0,0,76,47,183,47c0,0,135,0,230,-76c0,0,96,-75,96,-187C758,197,758,67,629,2L545,104c0,0,49,30,81,75c0,0,32,44,32,82c0,0,0,16,-4,26c0,0,-64,58,-167,58c0,0,-97,0,-166,-50v-2c0,0,-67,-52,-67,-131c0,0,0,-116,132,-199c0,0,132,-84,334,-132l-32,-74Z"
id="f6_cc"
transform="scale(0.001,-0.001)"/>

<path d="M959,-49L869,8V367c0,0,-32,-13,-64,-13c0,0,-50,0,-110,25c0,0,23,-52,23,-109c0,0,0,-103,-70,-170c0,0,-70,-66,-182,-66c0,0,-110,0,-222,82c0,0,-111,83,-213,293l68,42c0,0,72,-155,152,-231c0,0,81,-76,178,-76c0,0,83,0,131,49c0,0,48,48,48,117c0,0,0,54,-30,100c0,0,-31,47,-91,65L325,391L257,512c0,0,68,53,156,56c0,0,140,72,140,179c0,0,0,69,-52,99c0,0,-4,1,-11,1c-19,0,-66,-4,-123,-30c0,0,-78,-35,-142,-96L150,823c0,0,119,117,253,117c0,0,98,0,175,-71c0,0,77,-70,77,-159c0,0,0,-103,-94,-180c0,0,39,-23,73,-56c0,0,52,-22,109,-22c0,0,77,0,126,38V822H727l-46,76l14,31h840l46,-76l-13,-31H1332l66,-58V-39l-37,-10L1271,8V822H930l66,-58V-39L959,-49Z"
id="f6_am"
transform="scale(0.001,-0.001)"/>

<path d="M228,-49L138,8V822H0l-45,76l14,31H134c0,0,-91,92,-91,191c0,0,0,105,85,170c0,0,84,65,219,65c0,0,128,0,293,-76c0,0,165,-77,362,-263L958,966c0,0,-177,143,-303,210c0,0,-125,68,-244,68c0,0,-107,0,-175,-50c0,0,-68,-50,-68,-131c0,0,0,-61,49,-134H402l46,-76L434,822H199l65,-58V-39L228,-49Z"
id="f6_cu"
transform="scale(0.001,-0.001)"/>

<path d="M675,-274L602,21C602,21,550,3,498,3C498,3,347,3,210,118C210,118,73,232,73,373c0,0,0,113,84,184c0,0,84,71,222,72H524V822H0l-45,76l14,31H834l46,-76L866,822H585l66,-58V504l-3,2l3,-3H408c0,0,-95,0,-154,-53c0,0,-58,-53,-58,-132c0,0,0,-49,27,-100c0,0,28,-50,83,-84c0,0,44,-15,96,-15c0,0,91,0,160,46L535,303l101,48L773,188c0,0,-8,-28,-34,-66c0,0,-27,-38,-62,-64L813,-221L675,-274Z"
id="f6_br"
transform="scale(0.001,-0.001)"/>

<path d="M0,822l-45,76l14,31H61l46,-76L93,822Z"
id="f6_no"
transform="scale(0.001,-0.001)"/>

<path d="M845,-49L755,8V513H497c0,0,61,-45,93,-110c0,0,33,-64,33,-128c0,0,0,-90,-58,-144c0,0,-59,-53,-143,-53c0,0,-133,0,-234,139C188,217,87,356,20,596l76,24c0,0,60,-201,127,-306c0,0,67,-105,160,-105c0,0,57,0,91,36c0,0,33,36,33,91c0,0,0,84,-73,159L295,558v71H755V822H0l-45,76l14,31H1019l46,-76l-14,-31H816l66,-58V-39L845,-49Z"
id="f6_bg"
transform="scale(0.001,-0.001)"/>

<path d="M513,460c0,0,61,81,61,179c0,0,0,87,-45,143c0,0,-45,57,-116,57c0,0,-63,0,-102,-43c0,0,-39,-43,-39,-110c0,0,0,-90,68,-151c0,0,68,-61,173,-75ZM581,-83L278,167l-41,-4c0,0,-99,0,-130,37l47,168l51,12l78,-79c0,0,110,40,183,105c0,0,-141,23,-231,107c0,0,-90,84,-90,193c0,0,0,69,37,116H0l-45,76l14,31H1134l45,-76l-13,-31H930l66,-58V-39L959,-49L869,8V822H588c0,0,51,-44,75,-109c0,0,25,-64,25,-122c0,0,0,-105,-81,-213c0,0,-80,-108,-240,-176L658,18l2,-25L581,-83Z"
id="f6_c8"
transform="scale(0.001,-0.001)"/>

<path d="M688,-49L597,8V335L248,81l-92,81L532,425l-81,76c0,0,-80,70,-133,70c0,0,-81,0,-194,-96L38,584c0,0,109,105,223,105c0,0,103,0,213,-107L597,457V822H0l-45,76l14,31H862l46,-76L894,822H658l66,-58V-39L688,-49Z"
id="f6_e1"
transform="scale(0.001,-0.001)"/>

<path d="M0,1062c0,0,-26,11,-60,36c0,0,-34,26,-51,49c0,0,39,81,91,110c0,0,60,-23,106,-85c0,0,-28,-70,-86,-110Z"
id="f6_dj"
transform="scale(0.001,-0.001)"/>

<path d="M374,248c0,0,77,0,149,36c0,0,71,37,110,107V822H284c0,0,138,-96,138,-208c0,0,0,-151,-228,-192c0,0,29,-104,89,-158c0,0,41,-16,91,-16ZM723,-49L633,8V200c0,0,-69,-56,-170,-56c0,0,-122,0,-240,94c0,0,-118,94,-179,237l20,55c0,0,133,17,187,44c0,0,55,28,55,84c0,0,0,45,-30,81c0,0,-30,36,-99,83H0l-45,76l14,31H897l46,-76L929,822H694l65,-58V-39L723,-49Z"
id="f6_c0"
transform="scale(0.001,-0.001)"/>

<path d="M827,-49L736,8V205c0,0,-84,-84,-209,-84c0,0,-130,0,-237,91c0,0,-108,92,-108,196c0,0,0,79,61,137C243,545,66,672,66,791c0,0,0,75,52,124c0,0,53,49,134,49c0,0,164,0,260,-237L451,694c0,0,-55,114,-119,163l-31,5c0,0,-44,0,-77,-32c0,0,-33,-31,-33,-78c0,0,0,-86,113,-165c0,0,60,27,133,27l67,-4l75,-89L564,490l-51,7H493c0,0,-90,0,-142,-43c0,0,-52,-43,-52,-104c0,0,0,-60,51,-109c0,0,33,-16,84,-16c0,0,89,0,177,47c0,0,89,47,125,137V822H567l-46,76l14,31h466l46,-76l-14,-31H798l65,-58V-39L827,-49Z"
id="f6_bs"
transform="scale(0.001,-0.001)"/>

<path d="M228,-49L138,8V822H0l-45,76l14,31H134c0,0,-91,93,-91,200c0,0,0,109,92,174c0,0,93,66,253,66c0,0,186,0,398,-89c0,0,212,-90,430,-264l-49,-47c0,0,-424,285,-727,285c0,0,-125,0,-201,-49c0,0,-76,-48,-76,-137c0,0,0,-67,52,-139H402l46,-76L434,822H199l65,-58V-39L228,-49Z"
id="f6_nu"
transform="scale(0.001,-0.001)"/>

<path d="M342,324c0,0,45,0,75,34c0,0,31,33,31,100V822H165l66,-58V390c0,0,32,-66,111,-66ZM853,-49L762,8V822H509l65,-58V455c0,0,0,-134,-51,-185c0,0,-52,-52,-127,-52c0,0,-98,0,-195,99c0,0,-97,99,-97,209V822H0l-45,76l14,31H1027l46,-76l-14,-31H823l66,-58V-39L853,-49Z"
id="f6_bo"
transform="scale(0.001,-0.001)"/>

<path d="M426,-68L339,5V953l37,11l87,-73V-57L426,-68Z"
id="f6_ng"
transform="scale(0.001,-0.001)"/>

<path d="M527,-71L52,414l34,92H277c0,0,12,32,12,72V822H0l-45,76l14,31H654l46,-76L686,822H350l66,-55V564c0,0,0,-43,-25,-89H782L798,370H315L264,316L610,34L611,8L527,-71Z"
id="f6_m1"
transform="scale(0.001,-0.001)"/>

<path d="M483,-305L295,-10c0,0,-90,22,-156,74l41,170h66L351,63c0,0,126,4,207,62c0,0,82,58,82,139c0,0,0,37,-18,71L365,266c0,0,-110,15,-197,102c0,0,-87,87,-87,176c0,0,0,69,59,117c0,0,59,48,172,48H550V822H0l-45,76l14,31H550c0,0,-142,122,-142,255c0,0,0,78,52,133c0,0,52,55,140,55c0,0,98,0,176,-64l-23,-69c0,0,-53,32,-104,32c0,0,-56,0,-94,-36c0,0,-39,-36,-39,-95c0,0,0,-109,112,-211H822l46,-76L854,822H603l66,-58V585H373c0,0,-184,0,-184,-99c0,0,0,-48,63,-101l310,78c0,0,86,-34,141,-99c0,0,55,-65,55,-142c0,0,0,-109,-98,-179c0,0,-98,-69,-254,-69L599,-216L483,-305Z"
id="f6_ao"
transform="scale(0.001,-0.001)"/>

<path d="M471,-26c0,0,-259,0,-448,396l70,43C93,413,240,98,442,98c0,0,79,0,132,46c0,0,54,45,54,120c0,0,0,61,-38,116c0,0,-38,54,-107,72L322,370L255,492c0,0,66,53,156,56c0,0,128,51,128,153c0,0,0,77,-65,121H0l-45,76l14,31H1123l46,-76l-14,-31H578c0,0,76,-66,76,-157c0,0,0,-95,-87,-156c0,0,52,-29,84,-64c0,0,131,134,243,134c0,0,93,0,158,-70c0,0,65,-71,65,-167c0,0,0,-142,-177,-272L851,170c0,0,173,129,173,230c0,0,0,34,-23,57c0,0,-23,23,-63,23c0,0,-104,0,-215,-141c0,0,23,-55,23,-111c0,0,0,-109,-78,-182c0,0,-78,-72,-197,-72Z"
id="f6_aq"
transform="scale(0.001,-0.001)"/>

<path d="M825,-49L735,8V217c0,0,-86,-72,-197,-72c0,0,-130,0,-238,91c0,0,-107,91,-107,204c0,0,0,55,27,105H55L12,616l14,30H574l46,-76L607,539H396c0,0,-78,-49,-78,-162c0,0,0,-70,40,-111c0,0,39,-15,94,-15c0,0,84,0,163,41c0,0,79,41,120,121V822H0l-45,76l14,31H999l46,-76l-14,-31H796l66,-58V-39L825,-49Z"
id="f6_be"
transform="scale(0.001,-0.001)"/>

<path d="M548,-57c0,0,-122,0,-243,81c0,0,-122,81,-252,280l57,41C110,345,283,64,498,64c0,0,92,0,153,49c0,0,61,49,61,121c0,0,0,46,-28,84L440,237c0,0,-73,11,-139,55c0,0,-66,44,-105,105c0,0,-40,61,-40,119c0,0,0,72,62,125c0,0,62,53,184,53H625V822H0l-45,76l14,31H906l46,-76L938,822H678l66,-58V562H431c0,0,-164,0,-164,-99c0,0,0,-55,57,-102l261,82c0,0,104,-21,172,-98c0,0,68,-78,68,-171c0,0,0,-99,-76,-166c0,0,-77,-65,-201,-65Z"
id="f6_bm"
transform="scale(0.001,-0.001)"/>

<path d="M727,-49L637,8V822H278l66,-58V226L270,196c0,0,-64,36,-122,98c0,0,-58,62,-79,122l43,59H217V822H0l-45,76l14,31H901l46,-76L933,822H698l66,-58V-39L727,-49Z"
id="f6_bb"
transform="scale(0.001,-0.001)"/>

<path d="M228,-49L138,8V822H0l-45,76l14,31H138c0,0,-109,342,-284,342c0,0,-62,0,-102,-40c0,0,-40,-39,-40,-93c0,0,0,-61,51,-134l-42,-32c0,0,-128,113,-128,226c0,0,0,79,60,136c0,0,61,56,154,56c0,0,137,0,249,-125c0,0,112,-125,169,-336H402l46,-76L434,822H199l65,-58V-39L228,-49Z"
id="f6_cv"
transform="scale(0.001,-0.001)"/>

<path d="M252,385l310,78l22,-9c0,0,107,-43,200,-43c0,0,91,0,151,41V822H603l66,-58V585H373c0,0,-184,0,-184,-99c0,0,0,-48,63,-101ZM483,-305L295,-10c0,0,-90,22,-156,74l41,170h66L351,63c0,0,126,4,207,62c0,0,82,58,82,139c0,0,0,37,-18,71L365,266c0,0,-110,15,-197,102c0,0,-87,87,-87,176c0,0,0,69,59,117c0,0,59,48,172,48H550V822H0l-45,76l14,31H1199l46,-76l-14,-31H996l66,-58V-39l-37,-10L935,8V318c0,0,-41,-15,-78,-15c0,0,-52,0,-131,30c0,0,32,-55,32,-111c0,0,0,-109,-98,-179c0,0,-98,-69,-254,-69L599,-216L483,-305Z"
id="f6_bh"
transform="scale(0.001,-0.001)"/>

<path d="M434,225c0,0,84,0,169,42c0,0,85,43,126,126V822H267c0,0,-64,-49,-64,-115c0,0,0,-79,90,-126c0,0,60,35,144,35l67,-6l75,-89L564,490l-51,7H493c0,0,-90,0,-142,-43c0,0,-52,-43,-52,-104c0,0,0,-60,51,-109c0,0,33,-16,84,-16ZM819,-49L729,8V197c0,0,-83,-76,-202,-76c0,0,-130,0,-237,91c0,0,-108,92,-108,196c0,0,0,72,53,128c0,0,-75,42,-115,97c0,0,-41,56,-41,113c0,0,0,38,22,76H0l-45,76l14,31H993l46,-76l-14,-31H790l66,-58V-39L819,-49Z"
id="f6_bc"
transform="scale(0.001,-0.001)"/>

<path d="M487,-7c0,0,-88,0,-185,46c0,0,-97,47,-163,130c0,0,-66,83,-66,185c0,0,0,109,80,177c0,0,79,68,234,68H504V822H0l-45,76l14,31H827l45,-76L859,822H565l66,-58V474l-3,1l3,-3H396c0,0,-100,0,-152,-47c0,0,-53,-48,-53,-119c0,0,0,-104,93,-178c0,0,60,-20,118,-20c0,0,81,0,156,36c0,0,76,35,123,99l92,-99C773,144,723,70,645,31C645,31,567,-7,487,-7Z"
id="f6_bk"
transform="scale(0.001,-0.001)"/>

<path d="M799,475V822H350l66,-55V564c0,0,0,-43,-25,-89ZM527,-71L52,414l34,92H277c0,0,12,32,12,72V822H0l-45,76l14,31H1063l46,-76l-14,-31H860l66,-58V-39L889,-49L799,8V370H315L264,316L610,34L611,8L527,-71Z"
id="f6_cb"
transform="scale(0.001,-0.001)"/>

<path d="M108,-433L-59,-214c0,0,-99,119,-191,119c0,0,-59,0,-96,-35c0,0,-36,-34,-36,-81c0,0,0,-49,42,-83l152,95l64,-116c0,0,-71,-58,-148,-58c0,0,-80,0,-146,63c0,0,-65,64,-65,144c0,0,0,77,62,131c0,0,61,53,142,53c0,0,138,0,296,-205L165,-393l-57,-40Z"
id="f6_cx"
transform="scale(0.001,-0.001)"/>

<path d="M-91,1001c0,0,-27,10,-61,36c0,0,-33,26,-50,49c0,0,38,81,90,110c0,0,61,-23,107,-85c0,0,-28,-71,-86,-110ZM-214,863l-199,281c0,0,-70,92,-157,92c0,0,-69,0,-159,-58l-72,118c0,0,89,73,180,73c0,0,141,0,258,-170L-155,901l-59,-38Z"
id="f6_oz"
transform="scale(0.001,-0.001)"/>

<path d="M483,-305L295,-10c0,0,-90,22,-156,74l41,170h66L351,63c0,0,126,4,207,62c0,0,82,58,82,139c0,0,0,37,-18,71L365,266c0,0,-110,15,-197,102c0,0,-87,87,-87,176c0,0,0,69,59,117c0,0,59,48,172,48H550V822H0l-45,76l14,31H822l46,-76L854,822H603l66,-58V585H373c0,0,-184,0,-184,-99c0,0,0,-48,63,-101l310,78c0,0,86,-34,141,-99c0,0,55,-65,55,-142c0,0,0,-109,-98,-179c0,0,-98,-69,-254,-69L599,-216L483,-305Z"
id="f6_an"
transform="scale(0.001,-0.001)"/>

<path d="M226,-49c0,0,-66,24,-102,78c0,0,32,69,82,101c0,0,55,-20,100,-80c0,0,-26,-66,-80,-99Z"
id="f6_pc"
transform="scale(0.001,-0.001)"/>

<path d="M535,-54L419,5c0,0,23,27,23,58c0,0,0,32,-23,55c0,0,-22,23,-295,226v73L319,571c0,0,116,92,116,191c0,0,0,63,-50,107l-32,5c0,0,-54,0,-91,-42c0,0,-37,-42,-33,-93c0,0,5,-62,75,-99L267,596c0,0,-162,93,-162,194c0,0,0,70,52,122c0,0,51,52,127,52c0,0,99,0,177,-84c0,0,77,-84,77,-180c0,0,0,-116,-142,-236L254,350L417,225l54,-40c0,0,105,-80,105,-150c0,0,0,-45,-41,-89Z"
id="f6_n7"
transform="scale(0.001,-0.001)"/>

<path d="M652,-518c0,0,-209,0,-487,322l53,49c0,0,120,-129,210,-193c0,0,90,-65,177,-65c0,0,72,0,113,39c0,0,41,40,41,92c0,0,0,75,-78,105L564,-286l-90,98c0,0,62,96,169,96L605,37C605,37,552,18,498,18c0,0,-151,0,-288,115C210,133,73,248,73,388c0,0,0,113,84,184c0,0,84,71,222,73H524V822H0l-45,76l14,31H842l46,-76L874,822H567l84,-73V519l-3,2l3,-3H408c0,0,-93,0,-153,-52c0,0,-59,-52,-59,-128c0,0,0,-121,110,-188c0,0,53,-17,105,-17c0,0,92,0,153,43L535,318l101,49L773,203c0,0,-20,-67,-87,-122l61,-204c0,0,52,-32,83,-87c0,0,32,-55,32,-116c0,0,0,-85,-61,-139c0,0,-60,-53,-149,-53Z"
id="f6_mv"
transform="scale(0.001,-0.001)"/>

<path d="M823,-49L733,8V339H445V191L371,160c0,0,-56,36,-120,105c0,0,-63,70,-89,131l41,59H313V735c0,0,0,99,-55,140c0,0,-3,1,-8,1c-16,0,-48,-3,-71,-23c0,0,-31,-26,-31,-66c0,0,0,-69,81,-113L189,620C189,620,31,720,31,828c0,0,0,61,45,99c0,0,46,37,109,37c0,0,96,0,173,-86c0,0,76,-87,79,-194V455H733V822H556l-46,76l14,31H998l45,-76l-13,-31H794l66,-58V-39L823,-49Z"
id="f6_by"
transform="scale(0.001,-0.001)"/>

<path d="M325,240c0,0,77,0,154,35c0,0,77,35,120,99V500c0,0,-118,73,-222,73c0,0,-97,0,-151,-54c0,0,-53,-53,-53,-128c0,0,0,-73,49,-125c0,0,38,-26,103,-26ZM689,-49L599,8V199c0,0,-73,-65,-179,-65c0,0,-134,0,-252,96c0,0,-118,95,-118,221c0,0,0,102,78,171c0,0,78,69,190,69c0,0,38,0,75,-10L599,582V822H0l-45,76l14,31H863l46,-76L895,822H660l66,-58V-39L689,-49Z"
id="f6_c7"
transform="scale(0.001,-0.001)"/>

<path d="M900,298c0,0,32,73,32,159c0,0,0,110,-38,160c0,0,-40,31,-81,31c0,0,-48,0,-80,-35c0,0,-33,-35,-33,-89c0,0,0,-118,200,-226ZM588,-60c0,0,-154,0,-274,93c0,0,-120,94,-120,207c0,0,0,50,28,92C222,332,61,440,61,552c0,0,0,71,56,122c0,0,56,50,169,50H417l64,-98L463,600H333c0,0,-157,-1,-157,-99c0,0,0,-59,88,-124c0,0,68,52,164,52c0,0,38,0,79,-9l71,-88L558,299c0,0,-46,10,-81,10c0,0,-75,0,-116,-36c0,0,-40,-36,-40,-88c0,0,0,-78,73,-130c0,0,54,-17,109,-17c0,0,114,0,211,54c0,0,97,53,154,145c0,0,-156,96,-223,173c0,0,-67,77,-67,155c0,0,0,72,48,124c0,0,48,52,126,55v78H0l-45,76l14,31H1123l46,-76l-14,-31H805l66,-58V717c0,0,76,-40,124,-124c0,0,47,-84,47,-193c0,0,0,-188,-133,-324C909,76,776,-60,588,-60Z"
id="f6_bf"
transform="scale(0.001,-0.001)"/>

<path d="M413,-59C413,-59,53,193,53,416c0,0,0,97,66,164c0,0,66,66,156,66c0,0,61,0,110,-30L487,507c0,0,92,126,257,126l35,-2V822H0l-45,76l14,31H1043l46,-76l-13,-31H840l66,-58V-39L869,-49L779,8V547c0,0,-101,-5,-165,-90c0,0,-64,-86,-70,-222L507,225l-90,73c0,0,5,79,35,151c0,0,-59,66,-128,66c0,0,-57,0,-100,-38c0,0,-44,-39,-44,-109c0,0,0,-165,284,-360L413,-59Z"
id="f6_c3"
transform="scale(0.001,-0.001)"/>

<path d="M228,-49L138,8V822H0l-45,76l14,31H134c0,0,-91,93,-91,202c0,0,0,105,85,170c0,0,86,65,236,65c0,0,340,0,742,-350l-50,-46c0,0,-182,135,-340,208c0,0,-158,73,-302,73c0,0,-113,0,-183,-48c0,0,-69,-48,-69,-132c0,0,0,-63,53,-142H402l46,-76L434,822H199l65,-58V-39L228,-49Z"
id="f6_nt"
transform="scale(0.001,-0.001)"/>

<path d="M634,-49L249,296c0,0,-1,0,-3,0c-11,0,-48,1,-90,15c0,0,-51,16,-67,36l49,165l50,12l84,-98c0,0,125,31,191,104c0,0,66,73,66,165c0,0,0,109,-95,170c0,0,-2,0,-6,0C397,865,262,858,121,738L46,848c0,0,52,47,127,82c0,0,75,34,152,34c0,0,130,0,226,-94c0,0,95,-94,95,-218c0,0,0,-107,-77,-199c0,0,-77,-92,-216,-134L697,26L698,0L634,-49Z"
id="f6_n8"
transform="scale(0.001,-0.001)"/>

<path d="M526,-266c0,0,-66,24,-103,79c0,0,32,69,83,101c0,0,55,-20,99,-80c0,0,-26,-67,-79,-100ZM570,78c0,0,66,17,105,54c0,0,40,38,40,88c0,0,0,40,-23,66c0,0,-23,26,-58,26c0,0,-40,0,-71,-33c0,0,-31,-33,-31,-90c0,0,0,-55,38,-111ZM538,-45c0,0,-182,0,-322,128C216,83,76,211,76,368c0,0,0,122,91,201c0,0,90,79,238,79H564V822H0l-45,76l14,31H853l45,-76L885,822H617l66,-58V521H420c0,0,-99,0,-162,-57c0,0,-62,-58,-62,-146c0,0,0,-121,105,-208c0,0,118,-41,188,-41l29,1l-69,46c0,0,-36,55,-36,115c0,0,0,73,48,123c0,0,49,49,123,49c0,0,87,0,151,-74c0,0,64,-74,64,-162c0,0,0,-94,-71,-153c0,0,-71,-59,-190,-59Z"
id="f6_ci"
transform="scale(0.001,-0.001)"/>

<path d="M570,78c0,0,66,17,105,54c0,0,40,38,40,88c0,0,0,40,-23,66c0,0,-23,26,-58,26c0,0,-40,0,-71,-33c0,0,-31,-33,-31,-90c0,0,0,-55,38,-111ZM538,-45c0,0,-182,0,-322,128C216,83,76,211,76,368c0,0,0,122,91,201c0,0,90,79,238,79H564V822H0l-45,76l14,31H853l45,-76L885,822H617l66,-58V521H420c0,0,-99,0,-162,-57c0,0,-62,-58,-62,-146c0,0,0,-121,105,-208c0,0,118,-41,188,-41l29,1l-69,46c0,0,-36,55,-36,115c0,0,0,73,48,123c0,0,49,49,123,49c0,0,87,0,151,-74c0,0,64,-74,64,-162c0,0,0,-94,-71,-153c0,0,-71,-59,-190,-59Z"
id="f6_bn"
transform="scale(0.001,-0.001)"/>

<path d="M336,319c0,0,112,0,112,152V822H165l66,-58V374c0,0,33,-55,105,-55ZM396,218c0,0,-93,0,-192,86c0,0,-99,86,-100,182V822H0l-45,76l14,31H645l46,-76L677,822H509l65,-58V455c0,0,0,-134,-51,-185c0,0,-52,-52,-127,-52Z"
id="f6_lc"
transform="scale(0.001,-0.001)"/>

<path d="M449,79c0,0,103,0,168,61c0,0,66,60,66,149c0,0,0,93,-84,186H420c0,0,-107,0,-164,-50c0,0,-57,-51,-57,-126c0,0,0,-108,99,-184c0,0,81,-36,151,-36Zm67,-96c0,0,-168,0,-301,109C215,92,81,202,81,350c0,0,0,114,83,182c0,0,84,68,229,68H507V822H0l-45,76l14,31H883l46,-76L915,822H568l66,-58V532c0,0,87,-64,130,-144c0,0,43,-79,43,-157c0,0,0,-109,-81,-179c0,0,-81,-69,-210,-69Z"
id="f6_bl"
transform="scale(0.001,-0.001)"/>

<path d="M761,293c0,0,127,0,169,94V532c0,0,-68,46,-145,46c0,0,-76,0,-121,-46c0,0,-45,-45,-45,-107c0,0,0,-61,44,-110c0,0,47,-22,98,-22ZM657,67c0,0,166,0,273,107v55c0,0,-45,-36,-111,-36c0,0,-110,0,-207,90c0,0,-97,90,-97,194c0,0,0,85,66,148c0,0,65,63,155,63l48,-5L930,603V822H376l62,-55V579c0,0,0,-60,-23,-102c0,0,-24,-42,-148,-190c0,0,66,-104,175,-162c0,0,108,-58,215,-58ZM1021,-49L930,8V53c0,0,-105,-83,-264,-83c0,0,-177,0,-339,128C327,98,165,226,90,429l34,77H296c0,0,19,39,19,102l-2,214H0l-45,76l14,31H1195l46,-76l-14,-31H992l65,-58V-39l-36,-10Z"
id="f6_ba"
transform="scale(0.001,-0.001)"/>

<path d="M438,206c0,0,-119,0,-226,109c0,0,-108,108,-108,243V822H0l-45,76l14,31H542l46,-76L574,822H165l66,-58V408c0,0,46,-86,151,-86c0,0,61,0,119,32c0,0,58,33,95,91L669,338c0,0,-44,-66,-108,-99c0,0,-63,-33,-123,-33Z"
id="f6_ll"
transform="scale(0.001,-0.001)"/>

<path d="M-239,897c0,0,-82,61,-132,137c0,0,-50,75,-50,150c0,0,0,78,52,133c0,0,52,55,141,55c0,0,98,0,176,-64l-23,-69c0,0,-52,32,-104,32c0,0,-57,0,-95,-36c0,0,-38,-36,-38,-95c0,0,0,-115,117,-217l-44,-26Z"
id="f6_dr"
transform="scale(0.001,-0.001)"/>

<path d="M516,-207L290,58c0,0,-44,5,-99,32c0,0,-55,28,-75,51l58,140l51,12L312,165l49,-3c0,0,100,0,168,47c0,0,67,48,67,118c0,0,0,53,-44,98c0,0,-43,44,-129,65L232,413L165,536c0,0,78,51,176,51c6,0,11,0,17,0c0,0,161,50,161,168c0,0,0,79,-65,114l-20,2c0,0,-69,0,-155,-37c0,0,-86,-36,-151,-93L53,848c0,0,51,49,130,82c0,0,80,34,159,34c0,0,118,0,203,-75c0,0,84,-75,84,-172c0,0,0,-110,-116,-181c0,0,97,-46,148,-112c0,0,51,-66,51,-137c0,0,0,-99,-88,-165c0,0,-88,-65,-237,-65L578,-132l1,-26l-63,-49Z"
id="f6_n9"
transform="scale(0.001,-0.001)"/>

<path d="M959,-49L869,8V367c0,0,-32,-13,-64,-13c0,0,-50,0,-110,25c0,0,23,-52,23,-109c0,0,0,-103,-70,-170c0,0,-70,-66,-182,-66c0,0,-110,0,-222,82c0,0,-111,83,-213,293l68,42c0,0,72,-155,152,-231c0,0,81,-76,178,-76c0,0,83,0,131,49c0,0,48,48,48,117c0,0,0,54,-30,100c0,0,-31,47,-91,65L325,391L257,512c0,0,68,53,156,56c0,0,140,72,140,179c0,0,0,69,-52,99c0,0,-4,1,-11,1c-19,0,-66,-4,-123,-30c0,0,-78,-35,-142,-96L150,823c0,0,119,117,253,117c0,0,98,0,175,-71c0,0,77,-70,77,-159c0,0,0,-103,-94,-180c0,0,39,-23,73,-56c0,0,52,-22,109,-22c0,0,77,0,126,38V822H727l-46,76l14,31h439l45,-76l-13,-31H930l66,-58V-39L959,-49Z"
id="f6_al"
transform="scale(0.001,-0.001)"/>

<path d="M397,351c0,0,87,0,142,49L228,768V438c0,0,47,-87,169,-87ZM585,466c0,0,18,47,18,105V822H280L585,466ZM506,-188c0,0,-141,0,-257,88c0,0,-116,89,-116,202c0,0,0,126,122,202c0,0,-154,116,-154,293V822H-2l-46,76l14,31H860l46,-76L892,822H675l55,-49V603c0,0,0,-261,-221,-337L382,223C382,223,252,171,252,63c0,0,0,-77,55,-123c0,0,44,-21,107,-21c0,0,86,0,171,40c0,0,86,40,135,105l91,-98c0,0,-52,-72,-135,-113c0,0,-83,-41,-170,-41Z"
id="f6_kf"
transform="scale(0.001,-0.001)"/>

<path d="M0,822l-45,76l14,31H38L84,853L70,822Z"
id="f6_nl"
transform="scale(0.001,-0.001)"/>

<path d="M396,318c0,0,123,0,203,108V822H180l66,-58V408c0,0,49,-90,150,-90ZM176,-66L79,9L379,228c0,0,-106,23,-181,119c0,0,-76,96,-79,198V822H0l-45,76l14,31H863l46,-76L895,822H660l66,-58V-39L689,-49L599,8V269L176,-66Z"
id="f6_e6"
transform="scale(0.001,-0.001)"/>

<path d="M228,-49L138,8V822H0l-45,76l14,31H133c0,0,-93,95,-93,206c0,0,0,96,68,159c0,0,68,63,179,63c0,0,118,0,228,-81c0,0,110,-80,258,-262L720,970L588,1109c0,0,-133,133,-253,133c0,0,-78,0,-127,-46c0,0,-49,-46,-49,-119c0,0,0,-69,56,-148H402l46,-76L434,822H199l65,-58V-39L228,-49Z"
id="f6_nr"
transform="scale(0.001,-0.001)"/>

<path d="M154,752c0,0,-108,44,-108,143c0,0,0,74,48,145c0,0,48,71,134,118l44,-58c0,0,-43,-31,-72,-76c0,0,-29,-46,-32,-89l80,-61c0,0,-4,-38,-30,-72c0,0,-25,-34,-64,-50Z"
id="f6_8c"
transform="scale(0.001,-0.001)"/>

<path d="M547,-285c0,0,-66,25,-102,80c0,0,32,69,82,101c0,0,55,-20,99,-80c0,0,-26,-67,-79,-101Zm1,228c0,0,-122,0,-243,81c0,0,-122,81,-252,280l57,41C110,345,283,64,498,64c0,0,92,0,153,49c0,0,61,49,61,121c0,0,0,46,-28,84L440,237c0,0,-73,11,-139,55c0,0,-66,44,-105,105c0,0,-40,61,-40,119c0,0,0,72,62,125c0,0,62,53,184,53H625V822H0l-45,76l14,31H906l46,-76L938,822H678l66,-58V562H431c0,0,-164,0,-164,-99c0,0,0,-55,57,-102l261,82c0,0,104,-21,172,-98c0,0,68,-78,68,-171c0,0,0,-99,-76,-166c0,0,-77,-65,-201,-65Z"
id="f6_ch"
transform="scale(0.001,-0.001)"/>

<path d="M-214,860l-227,219c0,0,-73,70,-148,70c0,0,-67,0,-160,-58l-72,117c0,0,83,71,176,71c0,0,120,0,232,-124L-221,940l-102,294c0,0,-64,179,-189,179c0,0,-60,0,-133,-33l-60,125c0,0,84,47,164,47c0,0,200,0,281,-276L-150,901l-23,-15l-41,-26Z"
id="f6_d5"
transform="scale(0.001,-0.001)"/>

<path d="M228,-49L138,8V822H0l-45,76l14,31H134c0,0,-85,93,-85,192c0,0,0,124,129,195c0,0,129,71,364,71c0,0,285,0,647,-97c0,0,363,-97,692,-271l-42,-50c0,0,-313,137,-644,221c0,0,-332,84,-595,84c0,0,-198,0,-314,-55c0,0,-115,-55,-115,-163c0,0,0,-60,44,-127H402l46,-76L434,822H199l65,-58V-39L228,-49Z"
id="f6_o0"
transform="scale(0.001,-0.001)"/>

<path d="M283,260c0,0,122,0,209,113V513c0,0,-90,51,-160,51c0,0,-80,0,-129,-50c0,0,-49,-50,-49,-118c0,0,0,-60,35,-110c0,0,45,-26,94,-26ZM582,-49L492,8V211c0,0,-63,-54,-141,-54c0,0,-113,0,-214,92c0,0,-102,92,-102,206c0,0,0,93,69,157c0,0,69,63,163,63c0,0,34,0,66,-9L492,590V822H0l-45,76l14,31H909l46,-76L941,822H553l66,-58V521c0,0,93,104,192,104c0,0,63,0,120,-42c0,0,57,-42,82,-106L964,431l-5,9c0,0,-38,72,-110,72c0,0,-51,0,-105,-41c0,0,-53,-42,-125,-129V-39L582,-49Z"
id="f6_l1"
transform="scale(0.001,-0.001)"/>

<path d="M105,752L61,810c0,0,43,30,72,76c0,0,29,46,32,89l-79,61c0,0,3,38,29,72c0,0,26,33,64,50c0,0,110,-43,110,-148c0,0,0,-72,-50,-141c0,0,-50,-70,-134,-117Z"
id="f6_8d"
transform="scale(0.001,-0.001)"/>

<path d="M92,380L46,457l14,30H448l45,-76L480,380Z"
id="f6_pd"
transform="scale(0.001,-0.001)"/>

<path d="M397,102c0,0,52,0,85,36c0,0,33,35,33,87c0,0,0,88,-110,221C405,446,296,307,296,217c0,0,0,-61,39,-101c0,0,35,-14,62,-14ZM451,3C451,3,351,3,268,88c0,0,-83,85,-83,182c0,0,0,107,131,274c0,0,-146,153,-346,324l61,69L81,891L373,610c0,0,87,99,318,330l82,-92C773,848,550,623,461,516c0,0,173,-188,173,-322c0,0,0,-87,-53,-139C581,55,527,3,451,3Z"
id="f6_na"
transform="scale(0.001,-0.001)"/>

<path d="M725,307c0,0,-95,0,-218,78c0,0,-123,78,-188,78c0,0,-54,0,-95,-34c0,0,-41,-34,-73,-100L93,362c0,0,38,88,101,146c0,0,63,59,148,59c0,0,90,0,214,-78c0,0,124,-79,188,-79c0,0,63,0,106,34c0,0,42,33,85,104l60,-40c0,0,-32,-66,-101,-134c0,0,-70,-67,-169,-67Z"
id="f7_4r"
transform="scale(0.001,-0.001)"/>

<path d="M435,0V856c0,0,-48,-47,-127,-93c0,0,-79,-46,-142,-69V824c0,0,113,52,197,128c0,0,85,75,120,146h86V0Z"
id="f8_l"
transform="scale(0.001,-0.001)"/>

<path d="M415,-18c0,0,-149,0,-244,83c0,0,-94,84,-107,222l140,11c0,0,16,-103,73,-154c0,0,56,-52,137,-52c0,0,98,0,165,73c0,0,66,73,66,194c0,0,0,115,-64,182c0,0,-64,66,-169,66c0,0,-65,0,-117,-29c0,0,-52,-30,-82,-77L87,517l106,562H736V951H300L241,657c0,0,99,69,207,69c0,0,143,0,242,-100c0,0,98,-99,98,-255c0,0,0,-149,-86,-257C702,114,597,-18,415,-18Z"
id="f8_p"
transform="scale(0.001,-0.001)"/>


</defs>
</svg>