<?xml version="1.0" encoding="UTF-8" standalone="no"?>
<!DOCTYPE svg PUBLIC "-//W3C//DTD SVG 1.1//EN"
"http://www.w3.org/Graphics/SVG/1.1/DTD/svg11.dtd">
<svg viewBox="0 0 641 910" version="1.1" xmlns="http://www.w3.org/2000/svg" xmlns:xlink="http://www.w3.org/1999/xlink">
<defs>
<clipPath id="c0_69"><path d="M0,909.8V0H641.7V909.8Z"/></clipPath>
<clipPath id="c1_69"><path d="M0,908.6V0H641.7V908.6Z"/></clipPath>
<style type="text/css"><![CDATA[
.g0_69{
fill: #FFFFFF;
}
.g1_69{
}
]]></style>
</defs>
<path d="M0,0H641.7V909.8H0V0Z" class="g0_69"/>
<path d="M0,0H641.7V909.8H0V0Z" class="g0_69"/>
<g clip-path="url(#c0_69)">
<path d="M0,-56407H641.7V50038.5H0V-56407Z" class="g0_69"/>
</g>
<path d="M0,0H641.7V908.6H0V0Z" class="g0_69"/>
<path d="M19.5,60.7H602.7v1.2H19.5V60.7Z" class="g1_69"/>
<g clip-path="url(#c1_69)">
<path d="M0,61.9H641.7V909.8H0V61.9Z" class="g0_69"/>
</g>
<path d="M19.5,61.9H602.7V110H19.5V61.9Z" class="g0_69"/>
<path d="M19.5,108.9H602.7v26.3H19.5V108.9Z" class="g0_69"/>
<path d="M19.5,134.1H602.7v26.3H19.5V134.1Z" class="g0_69"/>
<path d="M19.5,159.3H602.7v26.3H19.5V159.3Z" class="g0_69"/>
<path d="M19.5,209.7H602.7V236H19.5V209.7Z" class="g0_69"/>
<path d="M19.5,234.9H602.7v26.4H19.5V234.9Z" class="g0_69"/>
<path d="M19.5,260.1H602.7v26.4H19.5V260.1Z" class="g0_69"/>
<path d="M19.5,285.3H602.7v26.4H19.5V285.3Z" class="g0_69"/>
<path d="M19.5,310.5H602.7v26.4H19.5V310.5Z" class="g0_69"/>
<path d="M19.5,335.7H602.7v26.4H19.5V335.7Z" class="g0_69"/>
<path d="M19.5,360.9H602.7v26.4H19.5V360.9Z" class="g0_69"/>
<path d="M19.5,386.1H602.7v26.4H19.5V386.1Z" class="g0_69"/>
<path d="M19.5,411.4H602.7v26.3H19.5V411.4Z" class="g0_69"/>
<path d="M19.5,436.6H602.7v26.3H19.5V436.6Z" class="g0_69"/>
<path d="M19.5,461.8H602.7v26.3H19.5V461.8Z" class="g0_69"/>
<path d="M19.5,487H602.7v26.3H19.5V487Z" class="g0_69"/>
<path d="M19.5,512.2H602.7v26.3H19.5V512.2Z" class="g0_69"/>
<path d="M19.5,537.4H602.7v26.4H19.5V537.4Z" class="g0_69"/>
<path d="M231.5,562.6H371.3v25.2H231.5V562.6Z" class="g0_69"/>
<g clip-path="url(#c1_69)">
<g fill="#000000" >
<use xlink:href="#f5_by" transform="matrix(14,0,0,14,232.9,96.3)" />
<use xlink:href="#f5_d4" transform="matrix(14,0,0,14,247.9,96.3)" />
<use xlink:href="#f5_n1" transform="matrix(14,0,0,14,247.9,96.3)" />
<use xlink:href="#f5_bp" transform="matrix(14,0,0,14,270.6,96.3)" />
<use xlink:href="#f5_cw" transform="matrix(14,0,0,14,284.4,96.2)" />
<use xlink:href="#f5_bh" transform="matrix(14,0,0,14,284,96.3)" />
<use xlink:href="#f5_d4" transform="matrix(14,0,0,14,302.4,96.3)" />
<use xlink:href="#f5_cu" transform="matrix(14,0,0,14,308.1,96.3)" />
<use xlink:href="#f5_bz" transform="matrix(14,0,0,14,314.6,96.3)" />
<use xlink:href="#f5_c3" transform="matrix(14,0,0,14,329.2,96.3)" />
<use xlink:href="#f5_bt" transform="matrix(14,0,0,14,345.5,96.3)" />
<use xlink:href="#f5_d4" transform="matrix(14,0,0,14,358.5,96.3)" />
<use xlink:href="#f5_b9" transform="matrix(14,0,0,14,364.2,96.3)" />
<use xlink:href="#f5_ct" transform="matrix(14,0,0,14,381.6,96.3)" />
</g>
<g fill="#222222" >
<use xlink:href="#f6_by" transform="matrix(14,0,0,14,164.2,154.7)" />
<use xlink:href="#f6_d4" transform="matrix(14,0,0,14,178.2,154.7)" />
<use xlink:href="#f6_n1" transform="matrix(14,0,0,14,178.1,154.7)" />
<use xlink:href="#f6_bp" transform="matrix(14,0,0,14,196.9,154.7)" />
<use xlink:href="#f6_cw" transform="matrix(14,0,0,14,209.8,154.6)" />
<use xlink:href="#f6_bh" transform="matrix(14,0,0,14,209.2,154.7)" />
<use xlink:href="#f6_d4" transform="matrix(14,0,0,14,226.2,154.7)" />
<use xlink:href="#f6_nt" transform="matrix(14,0,0,14,231.7,154.7)" />
<use xlink:href="#f6_bz" transform="matrix(14,0,0,14,237.3,154.7)" />
<use xlink:href="#f6_c3" transform="matrix(14,0,0,14,250.6,154.7)" />
<use xlink:href="#f6_bt" transform="matrix(14,0,0,14,265.4,154.7)" />
<use xlink:href="#f6_d4" transform="matrix(14,0,0,14,277.2,154.7)" />
<use xlink:href="#f6_b9" transform="matrix(14,0,0,14,282.7,154.7)" />
<use xlink:href="#f6_ct" transform="matrix(14,0,0,14,298.2,154.7)" />
<use xlink:href="#f6_by" transform="matrix(14,0,0,14,309.5,154.7)" />
<use xlink:href="#f6_d4" transform="matrix(14,0,0,14,323.6,154.7)" />
<use xlink:href="#f6_n1" transform="matrix(14,0,0,14,323.5,154.7)" />
<use xlink:href="#f6_by" transform="matrix(14,0,0,14,342.3,154.7)" />
<use xlink:href="#f6_o0" transform="matrix(14,0,0,14,356.3,154.7)" />
<use xlink:href="#f6_l1" transform="matrix(14,0,0,14,361.9,154.7)" />
<use xlink:href="#f6_bp" transform="matrix(14,0,0,14,373.7,154.7)" />
<use xlink:href="#f6_bx" transform="matrix(14,0,0,14,391.7,154.7)" />
<use xlink:href="#f6_cc" transform="matrix(14,0,0,14,404,154.7)" />
<use xlink:href="#f6_ct" transform="matrix(14,0,0,14,415.6,154.7)" />
<use xlink:href="#f6_bt" transform="matrix(14,0,0,14,421.2,154.7)" />
<use xlink:href="#f6_ct" transform="matrix(14,0,0,14,433,154.7)" />
<use xlink:href="#f6_cc" transform="matrix(14,0,0,14,444.2,154.7)" />
<use xlink:href="#f6_d5" transform="matrix(14,0,0,14,456.2,154.7)" />
<use xlink:href="#f6_mv" transform="matrix(14,0,0,14,145.8,179.9)" />
<use xlink:href="#f6_cu" transform="matrix(14,0,0,14,157.6,179.9)" />
<use xlink:href="#f6_bt" transform="matrix(14,0,0,14,163.2,179.9)" />
<use xlink:href="#f6_c0" transform="matrix(14,0,0,14,174.9,179.9)" />
<use xlink:href="#f6_ct" transform="matrix(14,0,0,14,187.5,179.9)" />
<use xlink:href="#f6_c7" transform="matrix(14,0,0,14,198.8,179.9)" />
<use xlink:href="#f6_ct" transform="matrix(14,0,0,14,210.9,179.9)" />
<use xlink:href="#f6_c3" transform="matrix(14,0,0,14,216.5,179.9)" />
<use xlink:href="#f6_d4" transform="matrix(14,0,0,14,231.3,179.9)" />
<use xlink:href="#f6_ik" transform="matrix(14,0,0,14,236.8,179.9)" />
<use xlink:href="#f6_ct" transform="matrix(14,0,0,14,261.9,179.9)" />
<use xlink:href="#f6_bg" transform="matrix(14,0,0,14,273.2,179.9)" />
<use xlink:href="#f6_ct" transform="matrix(14,0,0,14,287.4,179.9)" />
<use xlink:href="#f6_bt" transform="matrix(14,0,0,14,293,179.9)" />
<use xlink:href="#f6_d4" transform="matrix(14,0,0,14,304.9,179.9)" />
<use xlink:href="#f6_bz" transform="matrix(14,0,0,14,310.4,179.9)" />
<use xlink:href="#f6_d4" transform="matrix(14,0,0,14,323.9,179.9)" />
<use xlink:href="#f6_c1" transform="matrix(14,0,0,14,323.8,179.9)" />
<use xlink:href="#f6_ct" transform="matrix(14,0,0,14,332.1,179.9)" />
<use xlink:href="#f6_cu" transform="matrix(14,0,0,14,343.4,179.9)" />
<use xlink:href="#f6_br" transform="matrix(14,0,0,14,349.1,179.9)" />
<use xlink:href="#f6_c3" transform="matrix(14,0,0,14,360.7,179.9)" />
<use xlink:href="#f6_bp" transform="matrix(14,0,0,14,381.1,179.9)" />
<use xlink:href="#f6_d8" transform="matrix(14,0,0,14,393.4,179.9)" />
<use xlink:href="#f6_br" transform="matrix(14,0,0,14,404.7,179.9)" />
<use xlink:href="#f6_ob" transform="matrix(14,0,0,14,416.4,179.9)" />
<use xlink:href="#f6_c7" transform="matrix(14,0,0,14,422,179.9)" />
<use xlink:href="#f6_ct" transform="matrix(14,0,0,14,434.1,179.9)" />
<use xlink:href="#f6_bt" transform="matrix(14,0,0,14,439.7,179.9)" />
<use xlink:href="#f6_ct" transform="matrix(14,0,0,14,451.4,179.9)" />
<use xlink:href="#f6_cc" transform="matrix(14,0,0,14,462.7,179.9)" />
<use xlink:href="#f6_d5" transform="matrix(14,0,0,14,474.6,179.9)" />
<use xlink:href="#f6_bb" transform="matrix(14,0,0,14,164.2,230.3)" />
<use xlink:href="#f6_cw" transform="matrix(14,0,0,14,177.3,230.2)" />
<use xlink:href="#f6_bg" transform="matrix(14,0,0,14,176.8,230.3)" />
<use xlink:href="#f6_c1" transform="matrix(14,0,0,14,191,230.3)" />
<use xlink:href="#f6_ct" transform="matrix(14,0,0,14,199.4,230.3)" />
<use xlink:href="#f6_bp" transform="matrix(14,0,0,14,205,230.3)" />
<use xlink:href="#f6_bz" transform="matrix(14,0,0,14,223,230.3)" />
<use xlink:href="#f6_oz" transform="matrix(14,0,0,14,236.5,230.3)" />
<use xlink:href="#f6_bn" transform="matrix(14,0,0,14,242,230.3)" />
<use xlink:href="#f6_cx" transform="matrix(14,0,0,14,253.5,230.7)" />
<use xlink:href="#f6_dj" transform="matrix(14,0,0,14,250.7,230.7)" />
<use xlink:href="#f6_bn" transform="matrix(14,0,0,14,253.9,230.3)" />
<use xlink:href="#f6_ct" transform="matrix(14,0,0,14,265.9,230.3)" />
<use xlink:href="#f6_bp" transform="matrix(14,0,0,14,277.2,230.3)" />
<use xlink:href="#f6_cw" transform="matrix(14,0,0,14,290,230.2)" />
<use xlink:href="#f6_bh" transform="matrix(14,0,0,14,289.5,230.3)" />
<use xlink:href="#f6_d4" transform="matrix(14,0,0,14,306.4,230.3)" />
<use xlink:href="#f6_c1" transform="matrix(14,0,0,14,311.9,230.3)" />
<use xlink:href="#f6_ct" transform="matrix(14,0,0,14,320.3,230.3)" />
<use xlink:href="#f6_bg" transform="matrix(14,0,0,14,325.9,230.3)" />
<use xlink:href="#f6_m1" transform="matrix(14,0,0,14,340.2,230.3)" />
<use xlink:href="#f6_bq" transform="matrix(14,0,0,14,349.1,230.3)" />
<use xlink:href="#f6_ct" transform="matrix(14,0,0,14,362.3,230.3)" />
<use xlink:href="#f6_bt" transform="matrix(14,0,0,14,367.9,230.3)" />
<use xlink:href="#f6_bz" transform="matrix(14,0,0,14,385.3,230.3)" />
<use xlink:href="#f6_oz" transform="matrix(14,0,0,14,398.7,230.3)" />
<use xlink:href="#f6_bv" transform="matrix(14,0,0,14,404.3,230.3)" />
<use xlink:href="#f6_ct" transform="matrix(14,0,0,14,416.1,230.3)" />
<use xlink:href="#f6_c0" transform="matrix(14,0,0,14,421.8,230.3)" />
<use xlink:href="#f6_ct" transform="matrix(14,0,0,14,434.3,230.3)" />
<use xlink:href="#f6_cc" transform="matrix(14,0,0,14,445.6,230.3)" />
<use xlink:href="#f6_d5" transform="matrix(14,0,0,14,457.5,230.3)" />
<use xlink:href="#f6_aq" transform="matrix(14,0,0,14,156.1,255.5)" />
<use xlink:href="#f6_dj" transform="matrix(14,0,0,14,163.6,255.9)" />
<use xlink:href="#f6_be" transform="matrix(14,0,0,14,171.8,255.5)" />
<use xlink:href="#f6_ct" transform="matrix(14,0,0,14,185.8,255.5)" />
<use xlink:href="#f6_aq" transform="matrix(14,0,0,14,197.1,255.5)" />
<use xlink:href="#f6_dj" transform="matrix(14,0,0,14,204.6,255.9)" />
<use xlink:href="#f6_be" transform="matrix(14,0,0,14,212.8,255.5)" />
<use xlink:href="#f6_ct" transform="matrix(14,0,0,14,226.8,255.5)" />
<use xlink:href="#f6_bm" transform="matrix(14,0,0,14,238.1,255.5)" />
<use xlink:href="#f6_cx" transform="matrix(14,0,0,14,249.2,256.3)" />
<use xlink:href="#f6_dj" transform="matrix(14,0,0,14,247.5,255.9)" />
<use xlink:href="#f6_bb" transform="matrix(14,0,0,14,250.8,255.5)" />
<use xlink:href="#f6_c1" transform="matrix(14,0,0,14,263.4,255.5)" />
<use xlink:href="#f6_bv" transform="matrix(14,0,0,14,277.4,255.5)" />
<use xlink:href="#f6_c1" transform="matrix(14,0,0,14,289.3,255.5)" />
<use xlink:href="#f6_k" transform="matrix(14,0,0,14,297.7,255.5)" />
<use xlink:href="#f6_by" transform="matrix(14,0,0,14,308.6,255.5)" />
<use xlink:href="#f6_d5" transform="matrix(14,0,0,14,322.6,255.5)" />
<use xlink:href="#f6_c1" transform="matrix(14,0,0,14,322.5,255.5)" />
<use xlink:href="#f6_c7" transform="matrix(14,0,0,14,330.9,255.5)" />
<use xlink:href="#f6_bt" transform="matrix(14,0,0,14,343,255.5)" />
<use xlink:href="#f6_ct" transform="matrix(14,0,0,14,354.7,255.5)" />
<use xlink:href="#f6_no" transform="matrix(14,0,0,14,360.3,255.5)" />
<use xlink:href="#f6_bq" transform="matrix(14,0,0,14,360.3,255.5)" />
<use xlink:href="#f6_b9" transform="matrix(14,0,0,14,379.2,255.5)" />
<use xlink:href="#f6_ct" transform="matrix(14,0,0,14,394.7,255.5)" />
<use xlink:href="#f6_bx" transform="matrix(14,0,0,14,405.9,255.5)" />
<use xlink:href="#f6_cb" transform="matrix(14,0,0,14,418.2,255.5)" />
<use xlink:href="#f6_d4" transform="matrix(14,0,0,14,433.2,255.5)" />
<use xlink:href="#f6_c1" transform="matrix(14,0,0,14,433.1,255.5)" />
<use xlink:href="#f6_ct" transform="matrix(14,0,0,14,441.5,255.5)" />
<use xlink:href="#f6_cc" transform="matrix(14,0,0,14,452.8,255.5)" />
<use xlink:href="#f6_d5" transform="matrix(14,0,0,14,464.7,255.5)" />
<use xlink:href="#f6_by" transform="matrix(14,0,0,14,230.6,280.7)" />
<use xlink:href="#f6_d4" transform="matrix(14,0,0,14,244.7,280.7)" />
<use xlink:href="#f6_n1" transform="matrix(14,0,0,14,244.6,280.7)" />
<use xlink:href="#f6_bp" transform="matrix(14,0,0,14,263.4,280.7)" />
<use xlink:href="#f6_cw" transform="matrix(14,0,0,14,276.2,280.6)" />
<use xlink:href="#f6_bh" transform="matrix(14,0,0,14,275.7,280.7)" />
<use xlink:href="#f6_d4" transform="matrix(14,0,0,14,292.6,280.7)" />
<use xlink:href="#f6_nt" transform="matrix(14,0,0,14,298.1,280.7)" />
<use xlink:href="#f6_bz" transform="matrix(14,0,0,14,303.8,280.7)" />
<use xlink:href="#f6_c3" transform="matrix(14,0,0,14,317.1,280.7)" />
<use xlink:href="#f6_bt" transform="matrix(14,0,0,14,331.8,280.7)" />
<use xlink:href="#f6_d4" transform="matrix(14,0,0,14,343.7,280.7)" />
<use xlink:href="#f6_b9" transform="matrix(14,0,0,14,349.2,280.7)" />
<use xlink:href="#f6_ct" transform="matrix(14,0,0,14,364.7,280.7)" />
<use xlink:href="#f6_8l" transform="matrix(14,0,0,14,370.3,280.7)" />
<use xlink:href="#f6_bz" transform="matrix(14,0,0,14,165.3,331.1)" />
<use xlink:href="#f6_d4" transform="matrix(14,0,0,14,178.8,331.1)" />
<use xlink:href="#f6_c7" transform="matrix(14,0,0,14,178.6,331.1)" />
<use xlink:href="#f6_ct" transform="matrix(14,0,0,14,190.7,331.1)" />
<use xlink:href="#f6_ch" transform="matrix(14,0,0,14,196.3,331.1)" />
<use xlink:href="#f6_bz" transform="matrix(14,0,0,14,214.7,331.1)" />
<use xlink:href="#f6_oz" transform="matrix(14,0,0,14,228.2,331.1)" />
<use xlink:href="#f6_bn" transform="matrix(14,0,0,14,233.7,331.1)" />
<use xlink:href="#f6_cx" transform="matrix(14,0,0,14,245.1,331.6)" />
<use xlink:href="#f6_dj" transform="matrix(14,0,0,14,242.3,331.6)" />
<use xlink:href="#f6_bn" transform="matrix(14,0,0,14,245.6,331.1)" />
<use xlink:href="#f6_ct" transform="matrix(14,0,0,14,257.5,331.1)" />
<use xlink:href="#f6_bp" transform="matrix(14,0,0,14,268.8,331.1)" />
<use xlink:href="#f6_cw" transform="matrix(14,0,0,14,281.7,331)" />
<use xlink:href="#f6_bh" transform="matrix(14,0,0,14,281.1,331.1)" />
<use xlink:href="#f6_d4" transform="matrix(14,0,0,14,298.1,331.1)" />
<use xlink:href="#f6_bz" transform="matrix(14,0,0,14,303.6,331.1)" />
<use xlink:href="#f6_ct" transform="matrix(14,0,0,14,316.9,331.1)" />
<use xlink:href="#f6_c3" transform="matrix(14,0,0,14,322.6,331.1)" />
<use xlink:href="#f6_d8" transform="matrix(14,0,0,14,337.3,331.1)" />
<use xlink:href="#f6_bt" transform="matrix(14,0,0,14,342.9,331.1)" />
<use xlink:href="#f6_cv" transform="matrix(14,0,0,14,354.6,331.1)" />
<use xlink:href="#f6_bz" transform="matrix(14,0,0,14,365.9,331.1)" />
<use xlink:href="#f6_oz" transform="matrix(14,0,0,14,379.4,331.1)" />
<use xlink:href="#f6_bv" transform="matrix(14,0,0,14,384.9,331.1)" />
<use xlink:href="#f6_ct" transform="matrix(14,0,0,14,396.8,331.1)" />
<use xlink:href="#f6_c0" transform="matrix(14,0,0,14,402.4,331.1)" />
<use xlink:href="#f6_ct" transform="matrix(14,0,0,14,414.9,331.1)" />
<use xlink:href="#f6_bp" transform="matrix(14,0,0,14,426.2,331.1)" />
<use xlink:href="#f6_cw" transform="matrix(14,0,0,14,439.1,331)" />
<use xlink:href="#f6_bh" transform="matrix(14,0,0,14,438.5,331.1)" />
<use xlink:href="#f6_d4" transform="matrix(14,0,0,14,455.4,331.1)" />
<use xlink:href="#f6_c3" transform="matrix(14,0,0,14,147,356.4)" />
<use xlink:href="#f6_cv" transform="matrix(14,0,0,14,161.7,356.4)" />
<use xlink:href="#f6_nu" transform="matrix(14,0,0,14,167.3,356.4)" />
<use xlink:href="#f6_c3" transform="matrix(14,0,0,14,172.9,356.4)" />
<use xlink:href="#f6_b9" transform="matrix(14,0,0,14,193.3,356.4)" />
<use xlink:href="#f6_d4" transform="matrix(14,0,0,14,204.4,356.4)" />
<use xlink:href="#f6_c1" transform="matrix(14,0,0,14,208.8,356.4)" />
<use xlink:href="#f6_cv" transform="matrix(14,0,0,14,217.2,356.4)" />
<use xlink:href="#f6_bh" transform="matrix(14,0,0,14,228.5,356.4)" />
<use xlink:href="#f6_ct" transform="matrix(14,0,0,14,245.2,356.4)" />
<use xlink:href="#f6_cu" transform="matrix(14,0,0,14,250.9,356.4)" />
<use xlink:href="#f6_ch" transform="matrix(14,0,0,14,256.5,356.4)" />
<use xlink:href="#f6_c0" transform="matrix(14,0,0,14,269.2,356.4)" />
<use xlink:href="#f6_d8" transform="matrix(14,0,0,14,281.7,356.4)" />
<use xlink:href="#f6_dj" transform="matrix(14,0,0,14,286,357.2)" />
<use xlink:href="#f6_bz" transform="matrix(14,0,0,14,293,356.4)" />
<use xlink:href="#f6_oz" transform="matrix(14,0,0,14,306.5,356.4)" />
<use xlink:href="#f6_k" transform="matrix(14,0,0,14,312,356.4)" />
<use xlink:href="#f6_by" transform="matrix(14,0,0,14,317.2,356.4)" />
<use xlink:href="#f6_d5" transform="matrix(14,0,0,14,331.3,356.4)" />
<use xlink:href="#f6_c1" transform="matrix(14,0,0,14,331.2,356.4)" />
<use xlink:href="#f6_c7" transform="matrix(14,0,0,14,339.6,356.4)" />
<use xlink:href="#f6_bt" transform="matrix(14,0,0,14,351.6,356.4)" />
<use xlink:href="#f6_ct" transform="matrix(14,0,0,14,363.3,356.4)" />
<use xlink:href="#f6_no" transform="matrix(14,0,0,14,369,356.4)" />
<use xlink:href="#f6_bq" transform="matrix(14,0,0,14,369,356.4)" />
<use xlink:href="#f6_b9" transform="matrix(14,0,0,14,387.8,356.4)" />
<use xlink:href="#f6_ct" transform="matrix(14,0,0,14,403.3,356.4)" />
<use xlink:href="#f6_bx" transform="matrix(14,0,0,14,414.6,356.4)" />
<use xlink:href="#f6_cb" transform="matrix(14,0,0,14,426.9,356.4)" />
<use xlink:href="#f6_d4" transform="matrix(14,0,0,14,441.9,356.4)" />
<use xlink:href="#f6_c1" transform="matrix(14,0,0,14,441.8,356.4)" />
<use xlink:href="#f6_ct" transform="matrix(14,0,0,14,450.2,356.4)" />
<use xlink:href="#f6_cc" transform="matrix(14,0,0,14,461.4,356.4)" />
<use xlink:href="#f6_d5" transform="matrix(14,0,0,14,473.4,356.4)" />
<use xlink:href="#f6_by" transform="matrix(14,0,0,14,230.6,381.6)" />
<use xlink:href="#f6_d4" transform="matrix(14,0,0,14,244.7,381.6)" />
<use xlink:href="#f6_n1" transform="matrix(14,0,0,14,244.6,381.6)" />
<use xlink:href="#f6_bp" transform="matrix(14,0,0,14,263.4,381.6)" />
<use xlink:href="#f6_cw" transform="matrix(14,0,0,14,276.2,381.5)" />
<use xlink:href="#f6_bh" transform="matrix(14,0,0,14,275.7,381.6)" />
<use xlink:href="#f6_d4" transform="matrix(14,0,0,14,292.6,381.6)" />
<use xlink:href="#f6_nt" transform="matrix(14,0,0,14,298.1,381.6)" />
<use xlink:href="#f6_bz" transform="matrix(14,0,0,14,303.8,381.6)" />
<use xlink:href="#f6_c3" transform="matrix(14,0,0,14,317.1,381.6)" />
<use xlink:href="#f6_bt" transform="matrix(14,0,0,14,331.8,381.6)" />
<use xlink:href="#f6_d4" transform="matrix(14,0,0,14,343.7,381.6)" />
<use xlink:href="#f6_b9" transform="matrix(14,0,0,14,349.2,381.6)" />
<use xlink:href="#f6_ct" transform="matrix(14,0,0,14,364.7,381.6)" />
<use xlink:href="#f6_8l" transform="matrix(14,0,0,14,370.3,381.6)" />
<use xlink:href="#f6_bx" transform="matrix(14,0,0,14,166.4,432)" />
<use xlink:href="#f6_cv" transform="matrix(14,0,0,14,178.7,432)" />
<use xlink:href="#f6_c1" transform="matrix(14,0,0,14,184.4,432)" />
<use xlink:href="#f6_bz" transform="matrix(14,0,0,14,192.7,432)" />
<use xlink:href="#f6_bv" transform="matrix(14,0,0,14,206.1,432)" />
<use xlink:href="#f6_cw" transform="matrix(14,0,0,14,218.5,431.9)" />
<use xlink:href="#f6_c1" transform="matrix(14,0,0,14,217.9,432)" />
<use xlink:href="#f6_bt" transform="matrix(14,0,0,14,232,432)" />
<use xlink:href="#f6_d4" transform="matrix(14,0,0,14,243.8,432)" />
<use xlink:href="#f6_bn" transform="matrix(14,0,0,14,249.4,432)" />
<use xlink:href="#f6_cx" transform="matrix(14,0,0,14,260.8,432.4)" />
<use xlink:href="#f6_dj" transform="matrix(14,0,0,14,258,432.4)" />
<use xlink:href="#f6_bn" transform="matrix(14,0,0,14,261.3,432)" />
<use xlink:href="#f6_ct" transform="matrix(14,0,0,14,273.2,432)" />
<use xlink:href="#f6_bp" transform="matrix(14,0,0,14,284.5,432)" />
<use xlink:href="#f6_cw" transform="matrix(14,0,0,14,297.4,431.9)" />
<use xlink:href="#f6_bh" transform="matrix(14,0,0,14,296.8,432)" />
<use xlink:href="#f6_d4" transform="matrix(14,0,0,14,313.7,432)" />
<use xlink:href="#f6_bt" transform="matrix(14,0,0,14,319.3,432)" />
<use xlink:href="#f6_ct" transform="matrix(14,0,0,14,331,432)" />
<use xlink:href="#f6_b9" transform="matrix(14,0,0,14,336.6,432)" />
<use xlink:href="#f6_d8" transform="matrix(14,0,0,14,352.1,432)" />
<use xlink:href="#f6_bm" transform="matrix(14,0,0,14,357.7,432)" />
<use xlink:href="#f6_ct" transform="matrix(14,0,0,14,370.4,432)" />
<use xlink:href="#f6_bz" transform="matrix(14,0,0,14,381.7,432)" />
<use xlink:href="#f6_oz" transform="matrix(14,0,0,14,395.2,432)" />
<use xlink:href="#f6_bv" transform="matrix(14,0,0,14,400.7,432)" />
<use xlink:href="#f6_ct" transform="matrix(14,0,0,14,412.6,432)" />
<use xlink:href="#f6_c0" transform="matrix(14,0,0,14,418.2,432)" />
<use xlink:href="#f6_ct" transform="matrix(14,0,0,14,430.7,432)" />
<use xlink:href="#f6_cc" transform="matrix(14,0,0,14,442,432)" />
<use xlink:href="#f6_d5" transform="matrix(14,0,0,14,454,432)" />
<use xlink:href="#f6_bv" transform="matrix(14,0,0,14,151.6,457.2)" />
<use xlink:href="#f6_ct" transform="matrix(14,0,0,14,163.4,457.2)" />
<use xlink:href="#f6_nn" transform="matrix(14,0,0,14,169,457.2)" />
<use xlink:href="#f6_ke" transform="matrix(14,0,0,14,169,457.2)" />
<use xlink:href="#f6_dr" transform="matrix(14,0,0,14,183.2,457.2)" />
<use xlink:href="#f6_e6" transform="matrix(14,0,0,14,188.9,457.2)" />
<use xlink:href="#f6_by" transform="matrix(14,0,0,14,201,457.2)" />
<use xlink:href="#f6_cw" transform="matrix(14,0,0,14,215.5,457.1)" />
<use xlink:href="#f6_b9" transform="matrix(14,0,0,14,220.6,457.2)" />
<use xlink:href="#f6_d4" transform="matrix(14,0,0,14,231.7,457.2)" />
<use xlink:href="#f6_be" transform="matrix(14,0,0,14,241.8,457.2)" />
<use xlink:href="#f6_c1" transform="matrix(14,0,0,14,255.7,457.2)" />
<use xlink:href="#f6_bo" transform="matrix(14,0,0,14,264.1,457.2)" />
<use xlink:href="#f6_d8" transform="matrix(14,0,0,14,278.5,457.2)" />
<use xlink:href="#f6_dj" transform="matrix(14,0,0,14,282.8,458)" />
<use xlink:href="#f6_bz" transform="matrix(14,0,0,14,289.8,457.2)" />
<use xlink:href="#f6_oz" transform="matrix(14,0,0,14,303.2,457.2)" />
<use xlink:href="#f6_k" transform="matrix(14,0,0,14,308.8,457.2)" />
<use xlink:href="#f6_by" transform="matrix(14,0,0,14,314,457.2)" />
<use xlink:href="#f6_d5" transform="matrix(14,0,0,14,328.1,457.2)" />
<use xlink:href="#f6_c1" transform="matrix(14,0,0,14,328,457.2)" />
<use xlink:href="#f6_c7" transform="matrix(14,0,0,14,336.3,457.2)" />
<use xlink:href="#f6_bt" transform="matrix(14,0,0,14,348.4,457.2)" />
<use xlink:href="#f6_ct" transform="matrix(14,0,0,14,360.1,457.2)" />
<use xlink:href="#f6_no" transform="matrix(14,0,0,14,365.8,457.2)" />
<use xlink:href="#f6_bq" transform="matrix(14,0,0,14,365.8,457.2)" />
<use xlink:href="#f6_b9" transform="matrix(14,0,0,14,384.6,457.2)" />
<use xlink:href="#f6_ct" transform="matrix(14,0,0,14,400.1,457.2)" />
<use xlink:href="#f6_bx" transform="matrix(14,0,0,14,411.4,457.2)" />
<use xlink:href="#f6_cb" transform="matrix(14,0,0,14,423.7,457.2)" />
<use xlink:href="#f6_d4" transform="matrix(14,0,0,14,438.7,457.2)" />
<use xlink:href="#f6_c1" transform="matrix(14,0,0,14,438.6,457.2)" />
<use xlink:href="#f6_ct" transform="matrix(14,0,0,14,446.9,457.2)" />
<use xlink:href="#f6_cc" transform="matrix(14,0,0,14,458.2,457.2)" />
<use xlink:href="#f6_d5" transform="matrix(14,0,0,14,470.2,457.2)" />
<use xlink:href="#f6_by" transform="matrix(14,0,0,14,230.6,482.4)" />
<use xlink:href="#f6_d4" transform="matrix(14,0,0,14,244.7,482.4)" />
<use xlink:href="#f6_n1" transform="matrix(14,0,0,14,244.6,482.4)" />
<use xlink:href="#f6_bp" transform="matrix(14,0,0,14,263.4,482.4)" />
<use xlink:href="#f6_cw" transform="matrix(14,0,0,14,276.2,482.3)" />
<use xlink:href="#f6_bh" transform="matrix(14,0,0,14,275.7,482.4)" />
<use xlink:href="#f6_d4" transform="matrix(14,0,0,14,292.6,482.4)" />
<use xlink:href="#f6_nt" transform="matrix(14,0,0,14,298.1,482.4)" />
<use xlink:href="#f6_bz" transform="matrix(14,0,0,14,303.8,482.4)" />
<use xlink:href="#f6_c3" transform="matrix(14,0,0,14,317.1,482.4)" />
<use xlink:href="#f6_bt" transform="matrix(14,0,0,14,331.8,482.4)" />
<use xlink:href="#f6_d4" transform="matrix(14,0,0,14,343.7,482.4)" />
<use xlink:href="#f6_b9" transform="matrix(14,0,0,14,349.2,482.4)" />
<use xlink:href="#f6_ct" transform="matrix(14,0,0,14,364.7,482.4)" />
<use xlink:href="#f6_8l" transform="matrix(14,0,0,14,370.3,482.4)" />
<use xlink:href="#f6_bp" transform="matrix(14,0,0,14,165.3,532.8)" />
<use xlink:href="#f6_cw" transform="matrix(14,0,0,14,178.2,532.7)" />
<use xlink:href="#f6_lq" transform="matrix(14,0,0,14,177.6,532.8)" />
<use xlink:href="#f6_cc" transform="matrix(14,0,0,14,184.3,532.8)" />
<use xlink:href="#f6_cv" transform="matrix(14,0,0,14,195.9,532.8)" />
<use xlink:href="#f6_dj" transform="matrix(14,0,0,14,200.6,533.7)" />
<use xlink:href="#f6_bz" transform="matrix(14,0,0,14,207.2,532.8)" />
<use xlink:href="#f6_d4" transform="matrix(14,0,0,14,220.7,532.8)" />
<use xlink:href="#f6_c1" transform="matrix(14,0,0,14,220.5,532.8)" />
<use xlink:href="#f6_d4" transform="matrix(14,0,0,14,228.5,532.8)" />
<use xlink:href="#f6_bz" transform="matrix(14,0,0,14,234.6,532.8)" />
<use xlink:href="#f6_ct" transform="matrix(14,0,0,14,247.9,532.8)" />
<use xlink:href="#f6_bp" transform="matrix(14,0,0,14,253.5,532.8)" />
<use xlink:href="#f6_ct" transform="matrix(14,0,0,14,265.8,532.8)" />
<use xlink:href="#f6_cu" transform="matrix(14,0,0,14,277.1,532.8)" />
<use xlink:href="#f6_bv" transform="matrix(14,0,0,14,282.7,532.8)" />
<use xlink:href="#f6_bp" transform="matrix(14,0,0,14,294.6,532.8)" />
<use xlink:href="#f6_ct" transform="matrix(14,0,0,14,306.9,532.8)" />
<use xlink:href="#f6_bp" transform="matrix(14,0,0,14,318.2,532.8)" />
<use xlink:href="#f6_cw" transform="matrix(14,0,0,14,331.1,532.7)" />
<use xlink:href="#f6_lq" transform="matrix(14,0,0,14,330.5,532.8)" />
<use xlink:href="#f6_cc" transform="matrix(14,0,0,14,337.2,532.8)" />
<use xlink:href="#f6_cv" transform="matrix(14,0,0,14,348.8,532.8)" />
<use xlink:href="#f6_dj" transform="matrix(14,0,0,14,353.5,533.7)" />
<use xlink:href="#f6_bz" transform="matrix(14,0,0,14,360.1,532.8)" />
<use xlink:href="#f6_d4" transform="matrix(14,0,0,14,373.6,532.8)" />
<use xlink:href="#f6_c1" transform="matrix(14,0,0,14,373.4,532.8)" />
<use xlink:href="#f6_d4" transform="matrix(14,0,0,14,381.4,532.8)" />
<use xlink:href="#f6_bx" transform="matrix(14,0,0,14,387.5,532.8)" />
<use xlink:href="#f6_dj" transform="matrix(14,0,0,14,396.9,533.2)" />
<use xlink:href="#f6_bs" transform="matrix(14,0,0,14,399.8,532.8)" />
<use xlink:href="#f6_cw" transform="matrix(14,0,0,14,414.3,532.7)" />
<use xlink:href="#f6_cb" transform="matrix(14,0,0,14,419.4,532.8)" />
<use xlink:href="#f6_ba" transform="matrix(14,0,0,14,434.3,532.8)" />
<use xlink:href="#f6_ct" transform="matrix(14,0,0,14,451,532.8)" />
<use xlink:href="#f6_mv" transform="matrix(14,0,0,14,159.6,558)" />
<use xlink:href="#f6_cu" transform="matrix(14,0,0,14,171.4,558)" />
<use xlink:href="#f6_bt" transform="matrix(14,0,0,14,177,558)" />
<use xlink:href="#f6_c0" transform="matrix(14,0,0,14,188.7,558)" />
<use xlink:href="#f6_ct" transform="matrix(14,0,0,14,201.2,558)" />
<use xlink:href="#f6_c7" transform="matrix(14,0,0,14,212.5,558)" />
<use xlink:href="#f6_ct" transform="matrix(14,0,0,14,224.6,558)" />
<use xlink:href="#f6_c3" transform="matrix(14,0,0,14,230.2,558)" />
<use xlink:href="#f6_d4" transform="matrix(14,0,0,14,245.1,558)" />
<use xlink:href="#f6_cb" transform="matrix(14,0,0,14,250.6,558)" />
<use xlink:href="#f6_bx" transform="matrix(14,0,0,14,265.5,558)" />
<use xlink:href="#f6_bg" transform="matrix(14,0,0,14,283.4,558)" />
<use xlink:href="#f6_ct" transform="matrix(14,0,0,14,297.7,558)" />
<use xlink:href="#f6_bt" transform="matrix(14,0,0,14,303.3,558)" />
<use xlink:href="#f6_d4" transform="matrix(14,0,0,14,315.2,558)" />
<use xlink:href="#f6_k" transform="matrix(14,0,0,14,320.7,558)" />
<use xlink:href="#f6_bz" transform="matrix(14,0,0,14,325.9,558)" />
<use xlink:href="#f6_dj" transform="matrix(14,0,0,14,333.4,558.4)" />
<use xlink:href="#f6_bm" transform="matrix(14,0,0,14,339.2,558)" />
<use xlink:href="#f6_c3" transform="matrix(14,0,0,14,351.9,558)" />
<use xlink:href="#f6_bz" transform="matrix(14,0,0,14,372.3,558)" />
<use xlink:href="#f6_bt" transform="matrix(14,0,0,14,385.6,558)" />
<use xlink:href="#f6_bx" transform="matrix(14,0,0,14,403,558)" />
<use xlink:href="#f6_cb" transform="matrix(14,0,0,14,415.3,558)" />
<use xlink:href="#f6_d4" transform="matrix(14,0,0,14,430.3,558)" />
<use xlink:href="#f6_c1" transform="matrix(14,0,0,14,430.2,558)" />
<use xlink:href="#f6_ct" transform="matrix(14,0,0,14,438.6,558)" />
<use xlink:href="#f6_cc" transform="matrix(14,0,0,14,449.9,558)" />
<use xlink:href="#f6_d5" transform="matrix(14,0,0,14,461.8,558)" />
<use xlink:href="#f6_by" transform="matrix(14,0,0,14,230.6,583.2)" />
<use xlink:href="#f6_d4" transform="matrix(14,0,0,14,244.7,583.2)" />
<use xlink:href="#f6_n1" transform="matrix(14,0,0,14,244.6,583.2)" />
<use xlink:href="#f6_bp" transform="matrix(14,0,0,14,263.4,583.2)" />
<use xlink:href="#f6_cw" transform="matrix(14,0,0,14,276.2,583.1)" />
<use xlink:href="#f6_bh" transform="matrix(14,0,0,14,275.7,583.2)" />
<use xlink:href="#f6_d4" transform="matrix(14,0,0,14,292.6,583.2)" />
<use xlink:href="#f6_nt" transform="matrix(14,0,0,14,298.1,583.2)" />
<use xlink:href="#f6_bz" transform="matrix(14,0,0,14,303.8,583.2)" />
<use xlink:href="#f6_c3" transform="matrix(14,0,0,14,317.1,583.2)" />
<use xlink:href="#f6_bt" transform="matrix(14,0,0,14,331.8,583.2)" />
<use xlink:href="#f6_d4" transform="matrix(14,0,0,14,343.7,583.2)" />
<use xlink:href="#f6_b9" transform="matrix(14,0,0,14,349.2,583.2)" />
<use xlink:href="#f6_ct" transform="matrix(14,0,0,14,364.7,583.2)" />
<use xlink:href="#f6_8l" transform="matrix(14,0,0,14,370.3,583.2)" />
</g>
<g fill="#000000" >
<use xlink:href="#f7_4r" transform="matrix(9,0,0,9,290.2,795.2)" />
<use xlink:href="#f8_q" transform="matrix(9,0,0,9,303,795.2)" />
<use xlink:href="#f8_n" transform="matrix(9,0,0,9,310.7,795.2)" />
<use xlink:href="#f7_4r" transform="matrix(9,0,0,9,321.3,795.2)" />
</g>
</g>
<image preserveAspectRatio="none" x="22" y="801" width="581" height="86" xlink:href="img/1.png"/>
<path d="M233.8,97.4H388.4v1.1H233.8V97.4Z" class="g1_69"/>
<image preserveAspectRatio="none" x="202" y="14" width="217" height="26" xlink:href="img/2.png"/>
<defs>
<path d="M874,-65L700,29V309H513V173L422,122c0,0,-90,31,-191,129c0,0,-100,97,-127,184l52,81H277l-2,240c0,0,0,77,-26,109c0,0,-1,0,-2,0c-8,0,-44,-1,-70,-22c0,0,-29,-24,-29,-61c0,0,0,-53,64,-101L125,610c0,0,-174,117,-174,238c0,0,0,78,57,133c0,0,59,55,146,55c0,0,132,0,244,-112c0,0,112,-113,112,-246V516H700V822H655L570,937l32,64h458l86,-115l-32,-64H842L944,749V-31L874,-65Z"
id="f5_by"
transform="scale(0.001,-0.001)"/>

<path d="M-289,908l-132,216c0,0,-70,120,-169,120c0,0,-83,0,-200,-80l-130,249c0,0,125,78,234,78c0,0,187,0,349,-241L-159,969L-289,908Z"
id="f5_d4"
transform="scale(0.001,-0.001)"/>

<path d="M545,-97L35,405L87,542H295c0,0,1,5,1,280H0L-86,937l32,64H1218l87,-115l-32,-64H445L550,749V600c0,0,37,57,100,92c0,0,63,35,138,35c0,0,135,0,243,-111c0,0,109,-112,229,-318L1143,215c0,0,-125,201,-185,258c0,0,-60,57,-124,57c0,0,-59,0,-99,-36c0,0,-40,-36,-40,-81c0,0,0,-33,23,-60L888,466L1004,295c0,0,-95,-89,-190,-89c0,0,-97,0,-185,69c0,0,-88,69,-108,163c0,0,-34,-58,-141,-129L709,110V41L545,-97Z"
id="f5_n1"
transform="scale(0.001,-0.001)"/>

<path d="M342,-69c0,0,-146,139,-224,256c0,0,-78,117,-78,226c0,0,0,120,90,193c0,0,90,72,243,72H599V822H0L-86,937l32,64H959l86,-115l-32,-64H741L843,749V-31L773,-65L599,29V445H448c0,0,-81,0,-123,-34c0,0,-42,-34,-42,-90c0,0,0,-54,43,-118c0,0,44,-64,143,-163L342,-69Z"
id="f5_bp"
transform="scale(0.001,-0.001)"/>

<path d="M-272,-497c0,0,-249,0,-541,361l105,97c0,0,154,-169,229,-220c0,0,75,-50,145,-50c0,0,68,0,110,38c0,0,43,38,43,90c0,0,0,49,-41,86L-367,-234L-517,-89c0,0,38,66,99,102c0,0,62,37,129,37c0,0,113,0,200,-92c0,0,87,-93,87,-209c0,0,0,-105,-77,-176c0,0,-77,-70,-193,-70Z"
id="f5_cw"
transform="scale(0.001,-0.001)"/>

<path d="M284,413l313,62c0,0,109,-44,211,-44c0,0,96,0,150,43V822H646L749,749V539H380c0,0,-123,0,-123,-73c0,0,0,-26,27,-53ZM510,-393L316,-91c0,0,-96,26,-214,108l54,206l113,-1L362,84l31,-1c0,0,99,0,183,56c0,0,84,57,87,125L417,200c0,0,-162,48,-264,141c0,0,-103,94,-103,195c0,0,0,84,73,142c0,0,73,57,207,57H529v87H0L-86,937l32,64H1317l86,-115l-33,-64H1100l102,-73V-31l-70,-34L958,29V249l-44,-5c0,0,-32,0,-83,11c0,0,12,-41,12,-81c0,0,0,-127,-102,-193c0,0,-102,-67,-235,-82L694,-260L510,-393Z"
id="f5_bh"
transform="scale(0.001,-0.001)"/>

<path d="M289,-65L115,29V822H0L-86,937l32,64H115c0,0,-98,102,-98,224c0,0,0,133,101,215c0,0,102,82,262,82c0,0,155,0,359,-94c0,0,205,-94,437,-311l-76,-98c0,0,-354,281,-617,281c0,0,-113,0,-187,-48c0,0,-73,-48,-73,-134c0,0,0,-53,41,-117H463L548,886L516,822H257L359,749V-31L289,-65Z"
id="f5_cu"
transform="scale(0.001,-0.001)"/>

<path d="M686,512V822H333L435,749l2,-237ZM860,-65L686,29V298H440V168L348,118c0,0,-90,30,-190,128c0,0,-100,98,-127,183l52,83H203L189,822H0L-86,937l32,64H1045l86,-115l-33,-64H828L930,749V-31L860,-65Z"
id="f5_bz"
transform="scale(0.001,-0.001)"/>

<path d="M472,-77C472,-77,28,171,28,448c0,0,0,116,77,191c0,0,77,74,188,74c0,0,51,0,95,-18L527,574c0,0,104,114,277,117V822H0L-86,937l32,64H1164l86,-115l-32,-64H946l102,-73V-31L978,-65L804,29V526c0,0,-130,-78,-133,-294L611,196L431,309c0,0,0,97,33,174c0,0,-22,10,-53,10c0,0,-52,0,-90,-36c0,0,-38,-37,-38,-99c0,0,0,-80,68,-150c0,0,69,-70,214,-161L472,-77Z"
id="f5_c3"
transform="scale(0.001,-0.001)"/>

<path d="M746,-65L571,29V419H376V260L275,212c0,0,-87,48,-160,148c0,0,-72,100,-91,193l57,84H571V822H0L-86,937l32,64H930l88,-115L985,822H713L816,749V-31L746,-65Z"
id="f5_bt"
transform="scale(0.001,-0.001)"/>

<path d="M300,310c13,0,56,2,103,25c0,0,58,27,100,81V523c0,0,-46,16,-83,16c0,0,-69,0,-111,-45c0,0,-42,-45,-42,-104c0,0,0,-45,28,-80c0,0,2,0,5,0ZM677,-65L503,29V144c0,0,-32,-11,-75,-11c0,0,-147,0,-272,98c0,0,-125,99,-125,233c0,0,0,110,75,185c0,0,76,74,195,74l67,-6L503,646V822H0L-86,937l32,64H1245l86,-115l-32,-64H645L747,749V622c0,0,81,58,165,58c0,0,122,0,213,-99c0,0,91,-98,91,-230c0,0,0,-204,-253,-371L791,157c0,0,110,83,164,139c0,0,53,55,53,106c0,0,0,55,-53,55c0,0,-83,0,-208,-145V-31L677,-65Z"
id="f5_b9"
transform="scale(0.001,-0.001)"/>

<path d="M277,-65L102,29V822H0L-86,937l32,64H463L548,886L516,822H244L347,749V-31L277,-65Z"
id="f5_ct"
transform="scale(0.001,-0.001)"/>

<path d="M823,-49L733,8V339H445V191L371,160c0,0,-56,36,-120,105c0,0,-63,70,-89,131l41,59H313V735c0,0,0,99,-55,140c0,0,-3,1,-8,1c-16,0,-48,-3,-71,-23c0,0,-31,-26,-31,-66c0,0,0,-69,81,-113L189,620C189,620,31,720,31,828c0,0,0,61,45,99c0,0,46,37,109,37c0,0,96,0,173,-86c0,0,76,-87,79,-194V455H733V822H556l-46,76l14,31H998l45,-76l-13,-31H794l66,-58V-39L823,-49Z"
id="f6_by"
transform="scale(0.001,-0.001)"/>

<path d="M-214,863l-199,281c0,0,-70,92,-157,92c0,0,-69,0,-159,-58l-72,118c0,0,89,73,180,73c0,0,141,0,258,-170L-155,901l-59,-38Z"
id="f6_d4"
transform="scale(0.001,-0.001)"/>

<path d="M527,-71L52,414l34,92H277c0,0,12,32,12,72V822H0l-45,76l14,31H940l45,-76L972,822H350l66,-55V553c0,0,24,52,77,83c0,0,52,30,112,30c0,0,87,0,171,-76c0,0,84,-75,222,-304L938,244L828,411c0,0,-95,134,-195,134c0,0,-63,0,-100,-35c0,0,-36,-36,-36,-87c0,0,0,-50,42,-87l152,99L755,315c0,0,-71,-61,-148,-61c0,0,-80,0,-146,66c0,0,-65,67,-65,164c0,0,-34,-70,-132,-168L610,34L611,8L527,-71Z"
id="f6_n1"
transform="scale(0.001,-0.001)"/>

<path d="M347,-57C347,-57,66,211,66,394c0,0,0,98,74,164c0,0,74,65,225,65H616V822H0l-45,76l14,31H880l46,-76L912,822H677l66,-58V-39L706,-49L616,8V500H428c0,0,-239,0,-239,-161c0,0,0,-136,214,-343L347,-57Z"
id="f6_bp"
transform="scale(0.001,-0.001)"/>

<path d="M-234,-413c0,0,-210,0,-488,322l54,49c0,0,119,-128,209,-193c0,0,90,-65,177,-65c0,0,72,0,113,40c0,0,42,39,42,91c0,0,0,75,-78,106L-323,-181l-90,98c0,0,63,95,167,95c0,0,90,0,155,-69c0,0,66,-70,66,-164c0,0,0,-85,-60,-139c0,0,-61,-53,-149,-53Z"
id="f6_cw"
transform="scale(0.001,-0.001)"/>

<path d="M252,385l310,78l22,-9c0,0,107,-43,200,-43c0,0,91,0,151,41V822H603l66,-58V585H373c0,0,-184,0,-184,-99c0,0,0,-48,63,-101ZM483,-305L295,-10c0,0,-90,22,-156,74l41,170h66L351,63c0,0,126,4,207,62c0,0,82,58,82,139c0,0,0,37,-18,71L365,266c0,0,-110,15,-197,102c0,0,-87,87,-87,176c0,0,0,69,59,117c0,0,59,48,172,48H550V822H0l-45,76l14,31H1199l46,-76l-14,-31H996l66,-58V-39l-37,-10L935,8V318c0,0,-41,-15,-78,-15c0,0,-52,0,-131,30c0,0,32,-55,32,-111c0,0,0,-109,-98,-179c0,0,-98,-69,-254,-69L599,-216L483,-305Z"
id="f6_bh"
transform="scale(0.001,-0.001)"/>

<path d="M228,-49L138,8V822H0l-45,76l14,31H134c0,0,-91,93,-91,202c0,0,0,105,85,170c0,0,86,65,236,65c0,0,340,0,742,-350l-50,-46c0,0,-182,135,-340,208c0,0,-158,73,-302,73c0,0,-113,0,-183,-48c0,0,-69,-48,-69,-132c0,0,0,-63,53,-142H402l46,-76L434,822H199l65,-58V-39L228,-49Z"
id="f6_nt"
transform="scale(0.001,-0.001)"/>

<path d="M689,445V822H286l65,-58l8,-319ZM779,-49L689,8V328H370V180L296,150c0,0,-56,35,-120,104c0,0,-63,70,-89,131l41,60H238L223,822H0l-45,76l14,31H953l46,-76L985,822H750l66,-58V-39L779,-49Z"
id="f6_bz"
transform="scale(0.001,-0.001)"/>

<path d="M413,-59C413,-59,53,193,53,416c0,0,0,97,66,164c0,0,66,66,156,66c0,0,61,0,110,-30L487,507c0,0,92,126,257,126l35,-2V822H0l-45,76l14,31H1043l46,-76l-13,-31H840l66,-58V-39L869,-49L779,8V547c0,0,-101,-5,-165,-90c0,0,-64,-86,-70,-222L507,225l-90,73c0,0,5,79,35,151c0,0,-59,66,-128,66c0,0,-57,0,-100,-38c0,0,-44,-39,-44,-109c0,0,0,-165,284,-360L413,-59Z"
id="f6_c3"
transform="scale(0.001,-0.001)"/>

<path d="M663,-49L573,8V445H299V280L226,251c0,0,-105,99,-162,238l63,72H573V822H0l-45,76l14,31H837l46,-76L869,822H634l66,-58V-39L663,-49Z"
id="f6_bt"
transform="scale(0.001,-0.001)"/>

<path d="M283,260c0,0,122,0,209,113V513c0,0,-90,51,-160,51c0,0,-80,0,-129,-50c0,0,-49,-50,-49,-118c0,0,0,-60,35,-110c0,0,45,-26,94,-26ZM582,-49L492,8V211c0,0,-63,-54,-141,-54c0,0,-113,0,-213,92c0,0,-100,92,-100,205c0,0,0,93,69,157c0,0,69,64,162,64c0,0,32,0,64,-9L492,590V822H0l-45,76l14,31H1108l45,-76l-13,-31H553l66,-58V524c0,0,91,89,192,89c0,0,98,0,171,-79c0,0,72,-79,72,-186c0,0,0,-178,-224,-330L736,124c0,0,219,153,219,269c0,0,0,44,-26,75c0,0,-26,32,-81,32c0,0,-109,0,-229,-155V-39L582,-49Z"
id="f6_b9"
transform="scale(0.001,-0.001)"/>

<path d="M228,-49L138,8V822H0l-45,76l14,31H402l46,-76L434,822H199l65,-58V-39L228,-49Z"
id="f6_ct"
transform="scale(0.001,-0.001)"/>

<path d="M228,-49L138,8V822H0l-45,76l14,31H134c0,0,-85,93,-85,192c0,0,0,124,129,195c0,0,129,71,364,71c0,0,285,0,647,-97c0,0,363,-97,692,-271l-42,-50c0,0,-313,137,-644,221c0,0,-332,84,-595,84c0,0,-198,0,-314,-55c0,0,-115,-55,-115,-163c0,0,0,-60,44,-127H402l46,-76L434,822H199l65,-58V-39L228,-49Z"
id="f6_o0"
transform="scale(0.001,-0.001)"/>

<path d="M283,260c0,0,122,0,209,113V513c0,0,-90,51,-160,51c0,0,-80,0,-129,-50c0,0,-49,-50,-49,-118c0,0,0,-60,35,-110c0,0,45,-26,94,-26ZM582,-49L492,8V211c0,0,-63,-54,-141,-54c0,0,-113,0,-214,92c0,0,-102,92,-102,206c0,0,0,93,69,157c0,0,69,63,163,63c0,0,34,0,66,-9L492,590V822H0l-45,76l14,31H909l46,-76L941,822H553l66,-58V521c0,0,93,104,192,104c0,0,63,0,120,-42c0,0,57,-42,82,-106L964,431l-5,9c0,0,-38,72,-110,72c0,0,-51,0,-105,-41c0,0,-53,-42,-125,-129V-39L582,-49Z"
id="f6_l1"
transform="scale(0.001,-0.001)"/>

<path d="M348,229c0,0,57,0,106,17L263,559c0,0,-95,-50,-95,-162c0,0,0,-75,52,-136c0,0,49,-32,128,-32Zm170,48c0,0,61,38,96,91V504c0,0,-131,80,-244,80l-35,-2L518,277ZM704,-49L614,8V193c0,0,-84,-65,-192,-65c0,0,-139,0,-255,98c0,0,-115,98,-115,226c0,0,0,106,77,175c0,0,77,70,189,70c0,0,38,0,75,-9L614,578V822H0l-45,76l14,31H878l46,-76L911,822H675l66,-58V-39L704,-49Z"
id="f6_bx"
transform="scale(0.001,-0.001)"/>

<path d="M688,-243c0,0,-256,53,-408,173c0,0,-152,119,-152,270c0,0,0,101,68,171c0,0,-101,84,-101,179c0,0,0,64,53,112c0,0,54,47,191,47H587V822H0l-45,76l14,31H830l45,-76L862,822H640l66,-58V585H362c0,0,-159,-1,-159,-92c0,0,0,-41,46,-80c0,0,76,47,183,47c0,0,135,0,230,-76c0,0,96,-75,96,-187C758,197,758,67,629,2L545,104c0,0,49,30,81,75c0,0,32,44,32,82c0,0,0,16,-4,26c0,0,-64,58,-167,58c0,0,-97,0,-166,-50v-2c0,0,-67,-52,-67,-131c0,0,0,-116,132,-199c0,0,132,-84,334,-132l-32,-74Z"
id="f6_cc"
transform="scale(0.001,-0.001)"/>

<path d="M-214,860l-227,219c0,0,-73,70,-148,70c0,0,-67,0,-160,-58l-72,117c0,0,83,71,176,71c0,0,120,0,232,-124L-221,940l-102,294c0,0,-64,179,-189,179c0,0,-60,0,-133,-33l-60,125c0,0,84,47,164,47c0,0,200,0,281,-276L-150,901l-23,-15l-41,-26Z"
id="f6_d5"
transform="scale(0.001,-0.001)"/>

<path d="M652,-518c0,0,-209,0,-487,322l53,49c0,0,120,-129,210,-193c0,0,90,-65,177,-65c0,0,72,0,113,39c0,0,41,40,41,92c0,0,0,75,-78,105L564,-286l-90,98c0,0,62,96,169,96L605,37C605,37,552,18,498,18c0,0,-151,0,-288,115C210,133,73,248,73,388c0,0,0,113,84,184c0,0,84,71,222,73H524V822H0l-45,76l14,31H842l46,-76L874,822H567l84,-73V519l-3,2l3,-3H408c0,0,-93,0,-153,-52c0,0,-59,-52,-59,-128c0,0,0,-121,110,-188c0,0,53,-17,105,-17c0,0,92,0,153,43L535,318l101,49L773,203c0,0,-20,-67,-87,-122l61,-204c0,0,52,-32,83,-87c0,0,32,-55,32,-116c0,0,0,-85,-61,-139c0,0,-60,-53,-149,-53Z"
id="f6_mv"
transform="scale(0.001,-0.001)"/>

<path d="M228,-49L138,8V822H0l-45,76l14,31H134c0,0,-91,92,-91,191c0,0,0,105,85,170c0,0,84,65,219,65c0,0,128,0,293,-76c0,0,165,-77,362,-263L958,966c0,0,-177,143,-303,210c0,0,-125,68,-244,68c0,0,-107,0,-175,-50c0,0,-68,-50,-68,-131c0,0,0,-61,49,-134H402l46,-76L434,822H199l65,-58V-39L228,-49Z"
id="f6_cu"
transform="scale(0.001,-0.001)"/>

<path d="M374,248c0,0,77,0,149,36c0,0,71,37,110,107V822H284c0,0,138,-96,138,-208c0,0,0,-151,-228,-192c0,0,29,-104,89,-158c0,0,41,-16,91,-16ZM723,-49L633,8V200c0,0,-69,-56,-170,-56c0,0,-122,0,-240,94c0,0,-118,94,-179,237l20,55c0,0,133,17,187,44c0,0,55,28,55,84c0,0,0,45,-30,81c0,0,-30,36,-99,83H0l-45,76l14,31H897l46,-76L929,822H694l65,-58V-39L723,-49Z"
id="f6_c0"
transform="scale(0.001,-0.001)"/>

<path d="M325,240c0,0,77,0,154,35c0,0,77,35,120,99V500c0,0,-118,73,-222,73c0,0,-97,0,-151,-54c0,0,-53,-53,-53,-128c0,0,0,-73,49,-125c0,0,38,-26,103,-26ZM689,-49L599,8V199c0,0,-73,-65,-179,-65c0,0,-134,0,-252,96c0,0,-118,95,-118,221c0,0,0,102,78,171c0,0,78,69,190,69c0,0,38,0,75,-10L599,582V822H0l-45,76l14,31H863l46,-76L895,822H660l66,-58V-39L689,-49Z"
id="f6_c7"
transform="scale(0.001,-0.001)"/>

<path d="M283,260c0,0,122,0,209,113V513c0,0,-90,51,-160,51c0,0,-80,0,-129,-50c0,0,-49,-50,-49,-118c0,0,0,-60,35,-110c0,0,45,-26,94,-26ZM619,521c0,0,93,104,192,104c0,0,98,0,170,-92c0,0,117,17,167,45c0,0,50,27,50,80c0,0,0,45,-30,81c0,0,-30,36,-99,83H553l66,-58V521ZM1267,248c0,0,76,0,148,36c0,0,72,37,110,107V822H1176c0,0,138,-96,138,-208c0,0,0,-151,-228,-192c0,0,29,-104,89,-158c0,0,41,-16,92,-16ZM582,-49L492,8V211c0,0,-63,-54,-141,-54c0,0,-113,0,-214,92c0,0,-102,92,-102,206c0,0,0,93,69,157c0,0,69,63,163,63c0,0,34,0,66,-9L492,590V822H0l-45,76l14,31H1789l46,-76l-14,-31H1586l66,-58V-39l-37,-10L1525,8V200c0,0,-69,-56,-170,-56c0,0,-121,0,-238,92c0,0,-118,92,-179,235c0,0,-35,41,-89,41c0,0,-51,0,-105,-41c0,0,-53,-42,-125,-129V-39L582,-49Z"
id="f6_ik"
transform="scale(0.001,-0.001)"/>

<path d="M845,-49L755,8V513H497c0,0,61,-45,93,-110c0,0,33,-64,33,-128c0,0,0,-90,-58,-144c0,0,-59,-53,-143,-53c0,0,-133,0,-234,139C188,217,87,356,20,596l76,24c0,0,60,-201,127,-306c0,0,67,-105,160,-105c0,0,57,0,91,36c0,0,33,36,33,91c0,0,0,84,-73,159L295,558v71H755V822H0l-45,76l14,31H1019l46,-76l-14,-31H816l66,-58V-39L845,-49Z"
id="f6_bg"
transform="scale(0.001,-0.001)"/>

<path d="M527,-71L52,414l34,92H277c0,0,12,32,12,72V822H0l-45,76l14,31H599l46,-76L631,822H350l66,-55V564c0,0,0,-96,-152,-248L610,34L611,8L527,-71Z"
id="f6_c1"
transform="scale(0.001,-0.001)"/>

<path d="M675,-274L602,21C602,21,550,3,498,3C498,3,347,3,210,118C210,118,73,232,73,373c0,0,0,113,84,184c0,0,84,71,222,72H524V822H0l-45,76l14,31H834l46,-76L866,822H585l66,-58V504l-3,2l3,-3H408c0,0,-95,0,-154,-53c0,0,-58,-53,-58,-132c0,0,0,-49,27,-100c0,0,28,-50,83,-84c0,0,44,-15,96,-15c0,0,91,0,160,46L535,303l101,48L773,188c0,0,-8,-28,-34,-66c0,0,-27,-38,-62,-64L813,-221L675,-274Z"
id="f6_br"
transform="scale(0.001,-0.001)"/>

<path d="M228,-49L138,8V822H0l-45,76l14,31H119L-33,1144c0,0,-70,92,-157,92c0,0,-69,0,-159,-58l-72,118c0,0,89,73,181,73c0,0,140,0,257,-170L205,929H402l46,-76L434,822H199l65,-58V-39L228,-49Z"
id="f6_d8"
transform="scale(0.001,-0.001)"/>

<path d="M228,-49L138,8V822H0l-45,76l14,31H136c0,0,-173,353,-364,353c0,0,-75,0,-119,-44c0,0,-45,-45,-45,-106c0,0,0,-69,48,-128l-43,-32c0,0,-124,113,-124,224c0,0,0,87,67,146c0,0,68,59,167,59c0,0,150,0,283,-130c0,0,135,-130,219,-342H402l46,-76L434,822H199l65,-58V-39L228,-49Z"
id="f6_ob"
transform="scale(0.001,-0.001)"/>

<path d="M727,-49L637,8V822H278l66,-58V226L270,196c0,0,-64,36,-122,98c0,0,-58,62,-79,122l43,59H217V822H0l-45,76l14,31H901l46,-76L933,822H698l66,-58V-39L727,-49Z"
id="f6_bb"
transform="scale(0.001,-0.001)"/>

<path d="M-91,1001c0,0,-27,10,-61,36c0,0,-33,26,-50,49c0,0,38,81,90,110c0,0,61,-23,107,-85c0,0,-28,-71,-86,-110ZM-214,863l-199,281c0,0,-70,92,-157,92c0,0,-69,0,-159,-58l-72,118c0,0,89,73,180,73c0,0,141,0,258,-170L-155,901l-59,-38Z"
id="f6_oz"
transform="scale(0.001,-0.001)"/>

<path d="M570,78c0,0,66,17,105,54c0,0,40,38,40,88c0,0,0,40,-23,66c0,0,-23,26,-58,26c0,0,-40,0,-71,-33c0,0,-31,-33,-31,-90c0,0,0,-55,38,-111ZM538,-45c0,0,-182,0,-322,128C216,83,76,211,76,368c0,0,0,122,91,201c0,0,90,79,238,79H564V822H0l-45,76l14,31H853l45,-76L885,822H617l66,-58V521H420c0,0,-99,0,-162,-57c0,0,-62,-58,-62,-146c0,0,0,-121,105,-208c0,0,118,-41,188,-41l29,1l-69,46c0,0,-36,55,-36,115c0,0,0,73,48,123c0,0,49,49,123,49c0,0,87,0,151,-74c0,0,64,-74,64,-162c0,0,0,-94,-71,-153c0,0,-71,-59,-190,-59Z"
id="f6_bn"
transform="scale(0.001,-0.001)"/>

<path d="M108,-433L-59,-214c0,0,-99,119,-191,119c0,0,-59,0,-96,-35c0,0,-36,-34,-36,-81c0,0,0,-49,42,-83l152,95l64,-116c0,0,-71,-58,-148,-58c0,0,-80,0,-146,63c0,0,-65,64,-65,144c0,0,0,77,62,131c0,0,61,53,142,53c0,0,138,0,296,-205L165,-393l-57,-40Z"
id="f6_cx"
transform="scale(0.001,-0.001)"/>

<path d="M0,1062c0,0,-26,11,-60,36c0,0,-34,26,-51,49c0,0,39,81,91,110c0,0,60,-23,106,-85c0,0,-28,-70,-86,-110Z"
id="f6_dj"
transform="scale(0.001,-0.001)"/>

<path d="M527,-71L52,414l34,92H277c0,0,12,32,12,72V822H0l-45,76l14,31H654l46,-76L686,822H350l66,-55V564c0,0,0,-43,-25,-89H782L798,370H315L264,316L610,34L611,8L527,-71Z"
id="f6_m1"
transform="scale(0.001,-0.001)"/>

<path d="M768,-49L678,8V202c0,0,-73,-58,-172,-58c0,0,-123,0,-240,94c0,0,-118,94,-179,237l20,55c0,0,134,12,215,70c0,0,81,57,81,141c0,0,0,90,-67,134l-26,3c0,0,-46,0,-74,-29c0,0,-28,-30,-28,-68c0,0,0,-55,82,-109L252,620C252,620,93,720,93,820c0,0,0,65,47,104c0,0,46,40,114,40c0,0,99,0,179,-83c0,0,80,-83,82,-197c0,0,0,-93,-79,-165c0,0,-78,-73,-199,-97c0,0,29,-104,88,-158c0,0,42,-16,92,-16c0,0,78,0,151,38c0,0,74,38,110,111V822H553l-46,76l14,31H943l45,-76L975,822H739l66,-58V-39L768,-49Z"
id="f6_bq"
transform="scale(0.001,-0.001)"/>

<path d="M388,325c0,0,58,0,112,31c0,0,53,31,84,86V822H165l69,-58V408c0,0,47,-83,154,-83ZM674,-49L584,8V257c0,0,-61,-51,-141,-51c0,0,-125,0,-232,109c0,0,-107,108,-107,243V822H0l-45,76l14,31H848l46,-76L880,822H645l65,-58V-39L674,-49Z"
id="f6_bv"
transform="scale(0.001,-0.001)"/>

<path d="M471,-26c0,0,-259,0,-448,396l70,43C93,413,240,98,442,98c0,0,79,0,132,46c0,0,54,45,54,120c0,0,0,61,-38,116c0,0,-38,54,-107,72L322,370L255,492c0,0,66,53,156,56c0,0,128,51,128,153c0,0,0,77,-65,121H0l-45,76l14,31H1123l46,-76l-14,-31H578c0,0,76,-66,76,-157c0,0,0,-95,-87,-156c0,0,52,-29,84,-64c0,0,131,134,243,134c0,0,93,0,158,-70c0,0,65,-71,65,-167c0,0,0,-142,-177,-272L851,170c0,0,173,129,173,230c0,0,0,34,-23,57c0,0,-23,23,-63,23c0,0,-104,0,-215,-141c0,0,23,-55,23,-111c0,0,0,-109,-78,-182c0,0,-78,-72,-197,-72Z"
id="f6_aq"
transform="scale(0.001,-0.001)"/>

<path d="M825,-49L735,8V217c0,0,-86,-72,-197,-72c0,0,-130,0,-238,91c0,0,-107,91,-107,204c0,0,0,55,27,105H55L12,616l14,30H574l46,-76L607,539H396c0,0,-78,-49,-78,-162c0,0,0,-70,40,-111c0,0,39,-15,94,-15c0,0,84,0,163,41c0,0,79,41,120,121V822H0l-45,76l14,31H999l46,-76l-14,-31H796l66,-58V-39L825,-49Z"
id="f6_be"
transform="scale(0.001,-0.001)"/>

<path d="M548,-57c0,0,-122,0,-243,81c0,0,-122,81,-252,280l57,41C110,345,283,64,498,64c0,0,92,0,153,49c0,0,61,49,61,121c0,0,0,46,-28,84L440,237c0,0,-73,11,-139,55c0,0,-66,44,-105,105c0,0,-40,61,-40,119c0,0,0,72,62,125c0,0,62,53,184,53H625V822H0l-45,76l14,31H906l46,-76L938,822H678l66,-58V562H431c0,0,-164,0,-164,-99c0,0,0,-55,57,-102l261,82c0,0,104,-21,172,-98c0,0,68,-78,68,-171c0,0,0,-99,-76,-166c0,0,-77,-65,-201,-65Z"
id="f6_bm"
transform="scale(0.001,-0.001)"/>

<path d="M108,-222l-44,58c0,0,96,81,104,164L89,61c0,0,12,83,93,122c0,0,50,-15,79,-55c0,0,29,-39,29,-90c0,0,0,-69,-48,-142c0,0,-48,-72,-134,-118Z"
id="f6_k"
transform="scale(0.001,-0.001)"/>

<path d="M0,822l-45,76l14,31H61l46,-76L93,822Z"
id="f6_no"
transform="scale(0.001,-0.001)"/>

<path d="M799,475V822H350l66,-55V564c0,0,0,-43,-25,-89ZM527,-71L52,414l34,92H277c0,0,12,32,12,72V822H0l-45,76l14,31H1063l46,-76l-14,-31H860l66,-58V-39L889,-49L799,8V370H315L264,316L610,34L611,8L527,-71Z"
id="f6_cb"
transform="scale(0.001,-0.001)"/>

<path d="M254,-26c0,0,-84,16,-116,92c0,0,13,84,97,127c0,0,100,-36,112,-110C347,83,324,6,254,-26Zm458,0c0,0,-84,16,-116,92c0,0,14,84,98,127c0,0,99,-37,111,-110C805,83,782,6,712,-26Zm458,0c0,0,-84,16,-116,92c0,0,14,84,98,127c0,0,99,-36,111,-110c0,0,-22,-77,-93,-109Z"
id="f6_8l"
transform="scale(0.001,-0.001)"/>

<path d="M547,-285c0,0,-66,25,-102,80c0,0,32,69,82,101c0,0,55,-20,99,-80c0,0,-26,-67,-79,-101Zm1,228c0,0,-122,0,-243,81c0,0,-122,81,-252,280l57,41C110,345,283,64,498,64c0,0,92,0,153,49c0,0,61,49,61,121c0,0,0,46,-28,84L440,237c0,0,-73,11,-139,55c0,0,-66,44,-105,105c0,0,-40,61,-40,119c0,0,0,72,62,125c0,0,62,53,184,53H625V822H0l-45,76l14,31H906l46,-76L938,822H678l66,-58V562H431c0,0,-164,0,-164,-99c0,0,0,-55,57,-102l261,82c0,0,104,-21,172,-98c0,0,68,-78,68,-171c0,0,0,-99,-76,-166c0,0,-77,-65,-201,-65Z"
id="f6_ch"
transform="scale(0.001,-0.001)"/>

<path d="M228,-49L138,8V822H0l-45,76l14,31H138c0,0,-109,342,-284,342c0,0,-62,0,-102,-40c0,0,-40,-39,-40,-93c0,0,0,-61,51,-134l-42,-32c0,0,-128,113,-128,226c0,0,0,79,60,136c0,0,61,56,154,56c0,0,137,0,249,-125c0,0,112,-125,169,-336H402l46,-76L434,822H199l65,-58V-39L228,-49Z"
id="f6_cv"
transform="scale(0.001,-0.001)"/>

<path d="M228,-49L138,8V822H0l-45,76l14,31H134c0,0,-91,93,-91,200c0,0,0,109,92,174c0,0,93,66,253,66c0,0,186,0,398,-89c0,0,212,-90,430,-264l-49,-47c0,0,-424,285,-727,285c0,0,-125,0,-201,-49c0,0,-76,-48,-76,-137c0,0,0,-67,52,-139H402l46,-76L434,822H199l65,-58V-39L228,-49Z"
id="f6_nu"
transform="scale(0.001,-0.001)"/>

<path d="M0,822l-45,76l14,31H93l46,-76L125,822Z"
id="f6_nn"
transform="scale(0.001,-0.001)"/>

<path d="M500,44c0,0,78,0,152,57c0,0,75,56,98,134V350c0,0,-130,0,-223,-64c0,0,-93,-63,-93,-148c0,0,0,-54,43,-92l23,-2ZM321,561c0,0,66,46,101,105c0,0,36,60,36,113c0,0,0,28,-9,48c0,0,-35,41,-87,41c0,0,-50,0,-89,-38c0,0,-39,-39,-39,-100c0,0,0,-94,87,-169ZM840,-111l-90,59V32c0,0,-69,-68,-156,-68c0,0,-97,0,-187,64c0,0,-89,64,-89,146c0,0,0,61,48,123c0,0,48,62,141,94c0,0,-69,20,-140,57L105,272L20,364L260,519c0,0,-144,118,-144,246c0,0,0,81,57,140c0,0,56,59,140,59c0,0,96,0,171,-79c0,0,75,-78,75,-168c0,0,0,-118,-133,-222c0,0,107,-44,232,-44l92,6V822H628l-46,76l14,31h418l46,-76l-13,-31H811l66,-58V-100l-37,-11Z"
id="f6_ke"
transform="scale(0.001,-0.001)"/>

<path d="M-239,897c0,0,-82,61,-132,137c0,0,-50,75,-50,150c0,0,0,78,52,133c0,0,52,55,141,55c0,0,98,0,176,-64l-23,-69c0,0,-52,32,-104,32c0,0,-57,0,-95,-36c0,0,-38,-36,-38,-95c0,0,0,-115,117,-217l-44,-26Z"
id="f6_dr"
transform="scale(0.001,-0.001)"/>

<path d="M396,318c0,0,123,0,203,108V822H180l66,-58V408c0,0,49,-90,150,-90ZM176,-66L79,9L379,228c0,0,-106,23,-181,119c0,0,-76,96,-79,198V822H0l-45,76l14,31H863l46,-76L895,822H660l66,-58V-39L689,-49L599,8V269L176,-66Z"
id="f6_e6"
transform="scale(0.001,-0.001)"/>

<path d="M342,324c0,0,45,0,75,34c0,0,31,33,31,100V822H165l66,-58V390c0,0,32,-66,111,-66ZM853,-49L762,8V822H509l65,-58V455c0,0,0,-134,-51,-185c0,0,-52,-52,-127,-52c0,0,-98,0,-195,99c0,0,-97,99,-97,209V822H0l-45,76l14,31H1027l46,-76l-14,-31H823l66,-58V-39L853,-49Z"
id="f6_bo"
transform="scale(0.001,-0.001)"/>

<path d="M266,150c0,0,-57,35,-120,104c0,0,-63,70,-89,131l41,60H211L194,822H0l-45,76l14,31H587l46,-76L619,822H255l66,-58l7,-319H688L721,328H339V180L266,150Z"
id="f6_lq"
transform="scale(0.001,-0.001)"/>

<path d="M827,-49L736,8V205c0,0,-84,-84,-209,-84c0,0,-130,0,-237,91c0,0,-108,92,-108,196c0,0,0,79,61,137C243,545,66,672,66,791c0,0,0,75,52,124c0,0,53,49,134,49c0,0,164,0,260,-237L451,694c0,0,-55,114,-119,163l-31,5c0,0,-44,0,-77,-32c0,0,-33,-31,-33,-78c0,0,0,-86,113,-165c0,0,60,27,133,27l67,-4l75,-89L564,490l-51,7H493c0,0,-90,0,-142,-43c0,0,-52,-43,-52,-104c0,0,0,-60,51,-109c0,0,33,-16,84,-16c0,0,89,0,177,47c0,0,89,47,125,137V822H567l-46,76l14,31h466l46,-76l-14,-31H798l65,-58V-39L827,-49Z"
id="f6_bs"
transform="scale(0.001,-0.001)"/>

<path d="M761,293c0,0,127,0,169,94V532c0,0,-68,46,-145,46c0,0,-76,0,-121,-46c0,0,-45,-45,-45,-107c0,0,0,-61,44,-110c0,0,47,-22,98,-22ZM657,67c0,0,166,0,273,107v55c0,0,-45,-36,-111,-36c0,0,-110,0,-207,90c0,0,-97,90,-97,194c0,0,0,85,66,148c0,0,65,63,155,63l48,-5L930,603V822H376l62,-55V579c0,0,0,-60,-23,-102c0,0,-24,-42,-148,-190c0,0,66,-104,175,-162c0,0,108,-58,215,-58ZM1021,-49L930,8V53c0,0,-105,-83,-264,-83c0,0,-177,0,-339,128C327,98,165,226,90,429l34,77H296c0,0,19,39,19,102l-2,214H0l-45,76l14,31H1195l46,-76l-14,-31H992l65,-58V-39l-36,-10Z"
id="f6_ba"
transform="scale(0.001,-0.001)"/>

<path d="M725,307c0,0,-95,0,-218,78c0,0,-123,78,-188,78c0,0,-54,0,-95,-34c0,0,-41,-34,-73,-100L93,362c0,0,38,88,101,146c0,0,63,59,148,59c0,0,90,0,214,-78c0,0,124,-79,188,-79c0,0,63,0,106,34c0,0,42,33,85,104l60,-40c0,0,-32,-66,-101,-134c0,0,-70,-67,-169,-67Z"
id="f7_4r"
transform="scale(0.001,-0.001)"/>

<path d="M435,92c0,0,85,0,146,69c0,0,60,68,60,186c0,0,0,114,-60,179c0,0,-60,66,-152,66c0,0,-90,0,-154,-66c0,0,-63,-65,-63,-171c0,0,0,-70,30,-133c0,0,29,-64,82,-97c0,0,52,-33,111,-33Zm2,-110c0,0,-168,0,-273,123C164,105,58,228,58,512c0,0,0,317,117,461c0,0,102,125,275,125c0,0,129,0,211,-72c0,0,82,-72,99,-200L626,815c0,0,-18,79,-51,115c0,0,-54,58,-134,58c0,0,-64,0,-112,-36c0,0,-63,-46,-99,-135c0,0,-37,-89,-38,-253c0,0,48,74,118,110c0,0,70,36,147,36c0,0,134,0,228,-99c0,0,94,-99,94,-256c0,0,0,-103,-44,-191C735,164,691,75,613,28c0,0,-77,-46,-176,-46Z"
id="f8_q"
transform="scale(0.001,-0.001)"/>

<path d="M412,-18c0,0,-144,0,-239,85c0,0,-95,86,-108,222l133,18c0,0,24,-114,79,-164c0,0,55,-50,135,-50c0,0,96,0,161,65c0,0,65,66,65,163c0,0,0,92,-61,152c0,0,-60,60,-153,60c0,0,-38,0,-95,-15l15,119c0,0,13,-2,21,-2c0,0,86,0,155,45c0,0,69,44,69,137c0,0,0,74,-50,122c0,0,-50,49,-129,49c0,0,-79,0,-131,-50c0,0,-52,-49,-67,-147L78,815c0,0,25,135,112,209c0,0,87,74,217,74c0,0,89,0,164,-38c0,0,76,-39,116,-105c0,0,40,-66,40,-141c0,0,0,-70,-39,-129c0,0,-38,-58,-112,-92c0,0,97,-22,151,-93c0,0,53,-70,53,-176c0,0,0,-143,-104,-243c0,0,-105,-99,-264,-99Z"
id="f8_n"
transform="scale(0.001,-0.001)"/>


</defs>
</svg>