<?xml version="1.0" encoding="UTF-8" standalone="no"?>
<!DOCTYPE svg PUBLIC "-//W3C//DTD SVG 1.1//EN"
"http://www.w3.org/Graphics/SVG/1.1/DTD/svg11.dtd">
<svg viewBox="0 0 641 910" version="1.1" xmlns="http://www.w3.org/2000/svg" xmlns:xlink="http://www.w3.org/1999/xlink">
<defs>
<clipPath id="c0_83"><path d="M0,909.8V0H641.7V909.8Z"/></clipPath>
<clipPath id="c1_83"><path d="M0,908.6V0H641.7V908.6Z"/></clipPath>
<style type="text/css"><![CDATA[
.g0_83{
fill: #FFFFFF;
}
.g1_83{
}
]]></style>
</defs>
<path d="M0,0H641.7V909.8H0V0Z" class="g0_83"/>
<path d="M0,0H641.7V909.8H0V0Z" class="g0_83"/>
<g clip-path="url(#c0_83)">
<path d="M0,-69144.1H641.7V37301.5H0V-69144.1Z" class="g0_83"/>
</g>
<path d="M0,0H641.7V908.6H0V0Z" class="g0_83"/>
<path d="M19.5,60.7H602.7v1.2H19.5V60.7Z" class="g1_83"/>
<g clip-path="url(#c1_83)">
<path d="M0,61.9H641.7V909.8H0V61.9Z" class="g0_83"/>
<g fill="#000000" >
<use xlink:href="#f5_c7" transform="matrix(14,0,0,14,203.1,96.3)" />
<use xlink:href="#f5_ct" transform="matrix(14,0,0,14,216.8,96.3)" />
<use xlink:href="#f5_c1" transform="matrix(14,0,0,14,223.3,96.3)" />
<use xlink:href="#f5_cv" transform="matrix(14,0,0,14,233.5,96.3)" />
<use xlink:href="#f5_c7" transform="matrix(14,0,0,14,245.6,96.3)" />
<use xlink:href="#f5_ct" transform="matrix(14,0,0,14,259.3,96.3)" />
<use xlink:href="#f5_c1" transform="matrix(14,0,0,14,265.8,96.3)" />
<use xlink:href="#f5_cv" transform="matrix(14,0,0,14,276,96.3)" />
<use xlink:href="#f5_bt" transform="matrix(14,0,0,14,288.1,96.3)" />
<use xlink:href="#f5_ct" transform="matrix(14,0,0,14,301.2,96.3)" />
<use xlink:href="#f5_b9" transform="matrix(14,0,0,14,307.6,96.3)" />
<use xlink:href="#f5_d8" transform="matrix(14,0,0,14,325.1,96.3)" />
<use xlink:href="#f5_ch" transform="matrix(14,0,0,14,331.5,96.3)" />
<use xlink:href="#f5_ct" transform="matrix(14,0,0,14,344.8,96.3)" />
<use xlink:href="#f5_c1" transform="matrix(14,0,0,14,356.9,96.3)" />
<use xlink:href="#f5_ct" transform="matrix(14,0,0,14,367.1,96.3)" />
<use xlink:href="#f5_c1" transform="matrix(14,0,0,14,379.3,96.3)" />
<use xlink:href="#f5_ct" transform="matrix(14,0,0,14,389.5,96.3)" />
<use xlink:href="#f5_bg" transform="matrix(14,0,0,14,396,96.3)" />
<use xlink:href="#f5_ct" transform="matrix(14,0,0,14,411.9,96.3)" />
<use xlink:href="#f6_c7" transform="matrix(14,0,0,14,128.6,154.7)" />
<use xlink:href="#f6_ct" transform="matrix(14,0,0,14,140.7,154.7)" />
<use xlink:href="#f6_c1" transform="matrix(14,0,0,14,146.3,154.7)" />
<use xlink:href="#f6_cv" transform="matrix(14,0,0,14,154.7,154.7)" />
<use xlink:href="#f6_c7" transform="matrix(14,0,0,14,166,154.7)" />
<use xlink:href="#f6_ct" transform="matrix(14,0,0,14,178.1,154.7)" />
<use xlink:href="#f6_c1" transform="matrix(14,0,0,14,183.7,154.7)" />
<use xlink:href="#f6_cv" transform="matrix(14,0,0,14,192.1,154.7)" />
<use xlink:href="#f6_bt" transform="matrix(14,0,0,14,203.4,154.7)" />
<use xlink:href="#f6_ct" transform="matrix(14,0,0,14,215.1,154.7)" />
<use xlink:href="#f6_b9" transform="matrix(14,0,0,14,220.7,154.7)" />
<use xlink:href="#f6_d8" transform="matrix(14,0,0,14,236.2,154.7)" />
<use xlink:href="#f6_ch" transform="matrix(14,0,0,14,241.8,154.7)" />
<use xlink:href="#f6_ct" transform="matrix(14,0,0,14,254.5,154.7)" />
<use xlink:href="#f6_c1" transform="matrix(14,0,0,14,265.8,154.7)" />
<use xlink:href="#f6_ct" transform="matrix(14,0,0,14,274.2,154.7)" />
<use xlink:href="#f6_c1" transform="matrix(14,0,0,14,285.5,154.7)" />
<use xlink:href="#f6_ct" transform="matrix(14,0,0,14,293.8,154.7)" />
<use xlink:href="#f6_bg" transform="matrix(14,0,0,14,299.5,154.7)" />
<use xlink:href="#f6_ct" transform="matrix(14,0,0,14,313.7,154.7)" />
<use xlink:href="#f6_k" transform="matrix(14,0,0,14,319.3,154.7)" />
<use xlink:href="#f6_bq" transform="matrix(14,0,0,14,330.2,154.7)" />
<use xlink:href="#f6_d8" transform="matrix(14,0,0,14,343.4,154.7)" />
<use xlink:href="#f6_bt" transform="matrix(14,0,0,14,349,154.7)" />
<use xlink:href="#f6_d4" transform="matrix(14,0,0,14,360.9,154.7)" />
<use xlink:href="#f6_bz" transform="matrix(14,0,0,14,366.4,154.7)" />
<use xlink:href="#f6_bt" transform="matrix(14,0,0,14,379.8,154.7)" />
<use xlink:href="#f6_ct" transform="matrix(14,0,0,14,391.5,154.7)" />
<use xlink:href="#f6_c7" transform="matrix(14,0,0,14,397.1,154.7)" />
<use xlink:href="#f6_bo" transform="matrix(14,0,0,14,409.2,154.7)" />
<use xlink:href="#f6_am" transform="matrix(14,0,0,14,429.2,154.7)" />
<use xlink:href="#f6_c0" transform="matrix(14,0,0,14,450.7,154.7)" />
<use xlink:href="#f6_ct" transform="matrix(14,0,0,14,463.2,154.7)" />
<use xlink:href="#f6_cc" transform="matrix(14,0,0,14,474.5,154.7)" />
<use xlink:href="#f6_d8" transform="matrix(14,0,0,14,486.1,154.7)" />
<use xlink:href="#f6_al" transform="matrix(14,0,0,14,150.4,187.9)" />
<use xlink:href="#f6_bk" transform="matrix(14,0,0,14,166.3,187.9)" />
<use xlink:href="#f6_d4" transform="matrix(14,0,0,14,177.2,187.9)" />
<use xlink:href="#f6_bv" transform="matrix(14,0,0,14,183.5,187.9)" />
<use xlink:href="#f6_ct" transform="matrix(14,0,0,14,195.4,187.9)" />
<use xlink:href="#f6_c7" transform="matrix(14,0,0,14,201,187.9)" />
<use xlink:href="#f6_cu" transform="matrix(14,0,0,14,213.1,187.9)" />
<use xlink:href="#f6_bm" transform="matrix(14,0,0,14,218.7,187.9)" />
<use xlink:href="#f6_c0" transform="matrix(14,0,0,14,231.4,187.9)" />
<use xlink:href="#f6_d4" transform="matrix(14,0,0,14,244,187.9)" />
<use xlink:href="#f6_c1" transform="matrix(14,0,0,14,249.6,187.9)" />
<use xlink:href="#f6_d4" transform="matrix(14,0,0,14,257.6,187.9)" />
<use xlink:href="#f6_bv" transform="matrix(14,0,0,14,263.6,187.9)" />
<use xlink:href="#f6_ct" transform="matrix(14,0,0,14,275.5,187.9)" />
<use xlink:href="#f6_bb" transform="matrix(14,0,0,14,281.1,187.9)" />
<use xlink:href="#f6_br" transform="matrix(14,0,0,14,299.4,187.9)" />
<use xlink:href="#f6_d4" transform="matrix(14,0,0,14,310.6,187.9)" />
<use xlink:href="#f6_bp" transform="matrix(14,0,0,14,311.1,187.9)" />
<use xlink:href="#f6_ct" transform="matrix(14,0,0,14,323.4,187.9)" />
<use xlink:href="#f6_k" transform="matrix(14,0,0,14,329,187.9)" />
<use xlink:href="#f6_bv" transform="matrix(14,0,0,14,339.9,187.9)" />
<use xlink:href="#f6_c1" transform="matrix(14,0,0,14,351.7,187.9)" />
<use xlink:href="#f6_be" transform="matrix(14,0,0,14,360.1,187.9)" />
<use xlink:href="#f6_d8" transform="matrix(14,0,0,14,374.1,187.9)" />
<use xlink:href="#f6_c3" transform="matrix(14,0,0,14,385.4,187.9)" />
<use xlink:href="#f6_ct" transform="matrix(14,0,0,14,400.1,187.9)" />
<use xlink:href="#f6_bb" transform="matrix(14,0,0,14,405.7,187.9)" />
<use xlink:href="#f6_d4" transform="matrix(14,0,0,14,418.5,187.9)" />
<use xlink:href="#f6_by" transform="matrix(14,0,0,14,424,187.9)" />
<use xlink:href="#f6_ct" transform="matrix(14,0,0,14,438,187.9)" />
<use xlink:href="#f6_c1" transform="matrix(14,0,0,14,443.6,187.9)" />
<use xlink:href="#f6_cv" transform="matrix(14,0,0,14,452,187.9)" />
<use xlink:href="#f6_c1" transform="matrix(14,0,0,14,463.2,187.9)" />
<use xlink:href="#f6_d4" transform="matrix(14,0,0,14,471.2,187.9)" />
<use xlink:href="#f6_c7" transform="matrix(14,0,0,14,185.9,221.1)" />
<use xlink:href="#f6_ct" transform="matrix(14,0,0,14,198,221.1)" />
<use xlink:href="#f6_c1" transform="matrix(14,0,0,14,203.6,221.1)" />
<use xlink:href="#f6_cv" transform="matrix(14,0,0,14,212,221.1)" />
<use xlink:href="#f6_c7" transform="matrix(14,0,0,14,223.3,221.1)" />
<use xlink:href="#f6_ct" transform="matrix(14,0,0,14,235.4,221.1)" />
<use xlink:href="#f6_c1" transform="matrix(14,0,0,14,241,221.1)" />
<use xlink:href="#f6_cv" transform="matrix(14,0,0,14,249.4,221.1)" />
<use xlink:href="#f6_bt" transform="matrix(14,0,0,14,260.7,221.1)" />
<use xlink:href="#f6_ct" transform="matrix(14,0,0,14,272.4,221.1)" />
<use xlink:href="#f6_b9" transform="matrix(14,0,0,14,278,221.1)" />
<use xlink:href="#f6_d8" transform="matrix(14,0,0,14,293.5,221.1)" />
<use xlink:href="#f6_ch" transform="matrix(14,0,0,14,299.1,221.1)" />
<use xlink:href="#f6_ct" transform="matrix(14,0,0,14,311.8,221.1)" />
<use xlink:href="#f6_c1" transform="matrix(14,0,0,14,323.1,221.1)" />
<use xlink:href="#f6_ct" transform="matrix(14,0,0,14,331.5,221.1)" />
<use xlink:href="#f6_c1" transform="matrix(14,0,0,14,342.8,221.1)" />
<use xlink:href="#f6_ct" transform="matrix(14,0,0,14,351.1,221.1)" />
<use xlink:href="#f6_bg" transform="matrix(14,0,0,14,356.8,221.1)" />
<use xlink:href="#f6_ct" transform="matrix(14,0,0,14,371,221.1)" />
<use xlink:href="#f6_k" transform="matrix(14,0,0,14,376.6,221.1)" />
<use xlink:href="#f6_bq" transform="matrix(14,0,0,14,387.5,221.1)" />
<use xlink:href="#f6_d8" transform="matrix(14,0,0,14,400.7,221.1)" />
<use xlink:href="#f6_bt" transform="matrix(14,0,0,14,406.3,221.1)" />
<use xlink:href="#f6_d4" transform="matrix(14,0,0,14,418.2,221.1)" />
<use xlink:href="#f6_pc" transform="matrix(14,0,0,14,418,221.1)" />
<use xlink:href="#f6_pc" transform="matrix(14,0,0,14,422.3,221.1)" />
<use xlink:href="#f6_pc" transform="matrix(14,0,0,14,426.6,221.1)" />
<use xlink:href="#f6_pc" transform="matrix(14,0,0,14,430.9,221.1)" />
<use xlink:href="#f6_bz" transform="matrix(14,0,0,14,140.1,279.6)" />
<use xlink:href="#f6_d4" transform="matrix(14,0,0,14,153.6,279.6)" />
<use xlink:href="#f6_c7" transform="matrix(14,0,0,14,153.4,279.6)" />
<use xlink:href="#f6_ct" transform="matrix(14,0,0,14,165.5,279.6)" />
<use xlink:href="#f6_bt" transform="matrix(14,0,0,14,176.8,279.6)" />
<use xlink:href="#f6_bb" transform="matrix(14,0,0,14,188.5,279.6)" />
<use xlink:href="#f6_c1" transform="matrix(14,0,0,14,201.1,279.6)" />
<use xlink:href="#f6_cv" transform="matrix(14,0,0,14,209.5,279.6)" />
<use xlink:href="#f6_am" transform="matrix(14,0,0,14,220.8,279.6)" />
<use xlink:href="#f6_bv" transform="matrix(14,0,0,14,242.3,279.6)" />
<use xlink:href="#f6_cu" transform="matrix(14,0,0,14,259.8,279.6)" />
<use xlink:href="#f6_c7" transform="matrix(14,0,0,14,265.4,279.6)" />
<use xlink:href="#f6_c1" transform="matrix(14,0,0,14,277.5,279.6)" />
<use xlink:href="#f6_ct" transform="matrix(14,0,0,14,285.9,279.6)" />
<use xlink:href="#f6_bg" transform="matrix(14,0,0,14,291.5,279.6)" />
<use xlink:href="#f6_d8" transform="matrix(14,0,0,14,305.8,279.6)" />
<use xlink:href="#f6_k" transform="matrix(14,0,0,14,311.4,279.6)" />
<use xlink:href="#f6_b9" transform="matrix(14,0,0,14,322.3,279.6)" />
<use xlink:href="#f6_ct" transform="matrix(14,0,0,14,337.8,279.6)" />
<use xlink:href="#f6_c8" transform="matrix(14,0,0,14,343.4,279.6)" />
<use xlink:href="#f6_cv" transform="matrix(14,0,0,14,359.3,279.6)" />
<use xlink:href="#f6_c1" transform="matrix(14,0,0,14,370.5,279.6)" />
<use xlink:href="#f6_ct" transform="matrix(14,0,0,14,378.9,279.6)" />
<use xlink:href="#f6_b9" transform="matrix(14,0,0,14,390.2,279.6)" />
<use xlink:href="#f6_d8" transform="matrix(14,0,0,14,405.7,279.6)" />
<use xlink:href="#f6_bp" transform="matrix(14,0,0,14,411.3,279.6)" />
<use xlink:href="#f6_c7" transform="matrix(14,0,0,14,423.6,279.6)" />
<use xlink:href="#f6_ct" transform="matrix(14,0,0,14,435.7,279.6)" />
<use xlink:href="#f6_c3" transform="matrix(14,0,0,14,441.3,279.6)" />
<use xlink:href="#f6_bg" transform="matrix(14,0,0,14,456,279.6)" />
<use xlink:href="#f6_cv" transform="matrix(14,0,0,14,470.3,279.6)" />
<use xlink:href="#f6_k" transform="matrix(14,0,0,14,475.9,279.6)" />
<use xlink:href="#f6_bc" transform="matrix(14,0,0,14,129.8,312.8)" />
<use xlink:href="#f6_cw" transform="matrix(14,0,0,14,144.2,312.7)" />
<use xlink:href="#f6_dj" transform="matrix(14,0,0,14,137.2,313.2)" />
<use xlink:href="#f6_bb" transform="matrix(14,0,0,14,143.7,312.8)" />
<use xlink:href="#f6_nr" transform="matrix(14,0,0,14,156.3,312.8)" />
<use xlink:href="#f6_c1" transform="matrix(14,0,0,14,161.9,312.8)" />
<use xlink:href="#f6_c0" transform="matrix(14,0,0,14,170.3,312.8)" />
<use xlink:href="#f6_ct" transform="matrix(14,0,0,14,182.8,312.8)" />
<use xlink:href="#f6_bc" transform="matrix(14,0,0,14,194.1,312.8)" />
<use xlink:href="#f6_bz" transform="matrix(14,0,0,14,208,312.8)" />
<use xlink:href="#f6_b9" transform="matrix(14,0,0,14,221.4,312.8)" />
<use xlink:href="#f6_ct" transform="matrix(14,0,0,14,236.9,312.8)" />
<use xlink:href="#f6_c7" transform="matrix(14,0,0,14,242.5,312.8)" />
<use xlink:href="#f6_d4" transform="matrix(14,0,0,14,254.7,312.8)" />
<use xlink:href="#f6_by" transform="matrix(14,0,0,14,260.2,312.8)" />
<use xlink:href="#f6_d5" transform="matrix(14,0,0,14,274.3,312.8)" />
<use xlink:href="#f6_n0" transform="matrix(14,0,0,14,274.2,312.8)" />
<use xlink:href="#f6_bg" transform="matrix(14,0,0,14,287.3,312.8)" />
<use xlink:href="#f6_cv" transform="matrix(14,0,0,14,301.6,312.8)" />
<use xlink:href="#f6_k" transform="matrix(14,0,0,14,307.2,312.8)" />
<use xlink:href="#f6_n0" transform="matrix(14,0,0,14,318.1,312.8)" />
<use xlink:href="#f6_bz" transform="matrix(14,0,0,14,331.2,312.8)" />
<use xlink:href="#f6_bh" transform="matrix(14,0,0,14,344.6,312.8)" />
<use xlink:href="#f6_oe" transform="matrix(14,0,0,14,362,312.7)" />
<use xlink:href="#f6_bz" transform="matrix(14,0,0,14,361.4,312.8)" />
<use xlink:href="#f6_b9" transform="matrix(14,0,0,14,380.4,312.8)" />
<use xlink:href="#f6_c1" transform="matrix(14,0,0,14,395.9,312.8)" />
<use xlink:href="#f6_bp" transform="matrix(14,0,0,14,404.2,312.8)" />
<use xlink:href="#f6_ct" transform="matrix(14,0,0,14,416.6,312.8)" />
<use xlink:href="#f6_am" transform="matrix(14,0,0,14,427.8,312.8)" />
<use xlink:href="#f6_c7" transform="matrix(14,0,0,14,449.3,312.8)" />
<use xlink:href="#f6_d8" transform="matrix(14,0,0,14,461.4,312.8)" />
<use xlink:href="#f6_bg" transform="matrix(14,0,0,14,467,312.8)" />
<use xlink:href="#f6_cv" transform="matrix(14,0,0,14,481.3,312.8)" />
<use xlink:href="#f6_k" transform="matrix(14,0,0,14,486.9,312.8)" />
<use xlink:href="#f6_c7" transform="matrix(14,0,0,14,181.3,346)" />
<use xlink:href="#f6_ct" transform="matrix(14,0,0,14,193.4,346)" />
<use xlink:href="#f6_c1" transform="matrix(14,0,0,14,199,346)" />
<use xlink:href="#f6_cv" transform="matrix(14,0,0,14,207.4,346)" />
<use xlink:href="#f6_c7" transform="matrix(14,0,0,14,218.7,346)" />
<use xlink:href="#f6_ct" transform="matrix(14,0,0,14,230.8,346)" />
<use xlink:href="#f6_c1" transform="matrix(14,0,0,14,236.4,346)" />
<use xlink:href="#f6_cv" transform="matrix(14,0,0,14,244.8,346)" />
<use xlink:href="#f6_bt" transform="matrix(14,0,0,14,256.1,346)" />
<use xlink:href="#f6_ct" transform="matrix(14,0,0,14,267.8,346)" />
<use xlink:href="#f6_b9" transform="matrix(14,0,0,14,273.4,346)" />
<use xlink:href="#f6_d8" transform="matrix(14,0,0,14,288.9,346)" />
<use xlink:href="#f6_ch" transform="matrix(14,0,0,14,294.5,346)" />
<use xlink:href="#f6_ct" transform="matrix(14,0,0,14,307.2,346)" />
<use xlink:href="#f6_c1" transform="matrix(14,0,0,14,318.5,346)" />
<use xlink:href="#f6_ct" transform="matrix(14,0,0,14,326.9,346)" />
<use xlink:href="#f6_c1" transform="matrix(14,0,0,14,338.2,346)" />
<use xlink:href="#f6_ct" transform="matrix(14,0,0,14,346.5,346)" />
<use xlink:href="#f6_bg" transform="matrix(14,0,0,14,352.2,346)" />
<use xlink:href="#f6_ct" transform="matrix(14,0,0,14,366.4,346)" />
<use xlink:href="#f6_k" transform="matrix(14,0,0,14,372,346)" />
<use xlink:href="#f6_bq" transform="matrix(14,0,0,14,382.9,346)" />
<use xlink:href="#f6_d8" transform="matrix(14,0,0,14,396.1,346)" />
<use xlink:href="#f6_bt" transform="matrix(14,0,0,14,401.7,346)" />
<use xlink:href="#f6_d4" transform="matrix(14,0,0,14,413.6,346)" />
<use xlink:href="#f6_pc" transform="matrix(14,0,0,14,413.5,346)" />
<use xlink:href="#f6_pc" transform="matrix(14,0,0,14,417.7,346)" />
<use xlink:href="#f6_pc" transform="matrix(14,0,0,14,422,346)" />
<use xlink:href="#f6_pc" transform="matrix(14,0,0,14,426.3,346)" />
<use xlink:href="#f6_p" transform="matrix(14,0,0,14,430.6,346)" />
<use xlink:href="#f6_aq" transform="matrix(14,0,0,14,139,412.5)" />
<use xlink:href="#f6_di" transform="matrix(14,0,0,14,149.9,412.9)" />
<use xlink:href="#f6_be" transform="matrix(14,0,0,14,154.7,412.5)" />
<use xlink:href="#f6_ct" transform="matrix(14,0,0,14,168.6,412.5)" />
<use xlink:href="#f6_bm" transform="matrix(14,0,0,14,179.9,412.5)" />
<use xlink:href="#f6_cx" transform="matrix(14,0,0,14,191.1,413.3)" />
<use xlink:href="#f6_dj" transform="matrix(14,0,0,14,189.3,412.9)" />
<use xlink:href="#f6_bb" transform="matrix(14,0,0,14,192.6,412.5)" />
<use xlink:href="#f6_c1" transform="matrix(14,0,0,14,205.2,412.5)" />
<use xlink:href="#f6_c7" transform="matrix(14,0,0,14,219.3,412.5)" />
<use xlink:href="#f6_bo" transform="matrix(14,0,0,14,231.3,412.5)" />
<use xlink:href="#f6_c0" transform="matrix(14,0,0,14,245.7,412.5)" />
<use xlink:href="#f6_d8" transform="matrix(14,0,0,14,258.3,412.5)" />
<use xlink:href="#f6_br" transform="matrix(14,0,0,14,269.5,412.5)" />
<use xlink:href="#f6_d4" transform="matrix(14,0,0,14,280.8,412.5)" />
<use xlink:href="#f6_c7" transform="matrix(14,0,0,14,281.2,412.5)" />
<use xlink:href="#f6_c3" transform="matrix(14,0,0,14,293.3,412.5)" />
<use xlink:href="#f6_d8" transform="matrix(14,0,0,14,308,412.5)" />
<use xlink:href="#f6_k" transform="matrix(14,0,0,14,313.6,412.5)" />
<use xlink:href="#f6_fa" transform="matrix(14,0,0,14,318.8,412.5)" />
<use xlink:href="#f6_bg" transform="matrix(14,0,0,14,340.4,412.5)" />
<use xlink:href="#f6_ct" transform="matrix(14,0,0,14,354.6,412.5)" />
<use xlink:href="#f6_bw" transform="matrix(14,0,0,14,365.9,412.5)" />
<use xlink:href="#f6_n0" transform="matrix(14,0,0,14,382,412.5)" />
<use xlink:href="#f6_b9" transform="matrix(14,0,0,14,395.2,412.5)" />
<use xlink:href="#f6_d4" transform="matrix(14,0,0,14,406.3,412.5)" />
<use xlink:href="#f6_by" transform="matrix(14,0,0,14,416.3,412.5)" />
<use xlink:href="#f6_ct" transform="matrix(14,0,0,14,430.3,412.5)" />
<use xlink:href="#f6_c1" transform="matrix(14,0,0,14,435.9,412.5)" />
<use xlink:href="#f6_cv" transform="matrix(14,0,0,14,444.3,412.5)" />
<use xlink:href="#f6_b1" transform="matrix(14,0,0,14,455.6,412.5)" />
<use xlink:href="#f6_k" transform="matrix(14,0,0,14,477,412.5)" />
<use xlink:href="#f6_c7" transform="matrix(14,0,0,14,134.4,445.7)" />
<use xlink:href="#f6_ct" transform="matrix(14,0,0,14,146.4,445.7)" />
<use xlink:href="#f6_b9" transform="matrix(14,0,0,14,152.1,445.7)" />
<use xlink:href="#f6_bm" transform="matrix(14,0,0,14,167.6,445.7)" />
<use xlink:href="#f6_bg" transform="matrix(14,0,0,14,180.2,445.7)" />
<use xlink:href="#f6_cv" transform="matrix(14,0,0,14,194.5,445.7)" />
<use xlink:href="#f6_bz" transform="matrix(14,0,0,14,205.8,445.7)" />
<use xlink:href="#f6_cw" transform="matrix(14,0,0,14,219.7,445.6)" />
<use xlink:href="#f6_bf" transform="matrix(14,0,0,14,219.1,445.7)" />
<use xlink:href="#f6_d8" transform="matrix(14,0,0,14,234.8,445.7)" />
<use xlink:href="#f6_c7" transform="matrix(14,0,0,14,240.5,445.7)" />
<use xlink:href="#f6_ct" transform="matrix(14,0,0,14,252.5,445.7)" />
<use xlink:href="#f6_c3" transform="matrix(14,0,0,14,258.2,445.7)" />
<use xlink:href="#f6_ct" transform="matrix(14,0,0,14,272.9,445.7)" />
<use xlink:href="#f6_c1" transform="matrix(14,0,0,14,284.2,445.7)" />
<use xlink:href="#f6_ct" transform="matrix(14,0,0,14,292.5,445.7)" />
<use xlink:href="#f6_bg" transform="matrix(14,0,0,14,298.2,445.7)" />
<use xlink:href="#f6_ct" transform="matrix(14,0,0,14,312.4,445.7)" />
<use xlink:href="#f6_k" transform="matrix(14,0,0,14,318,445.7)" />
<use xlink:href="#f6_br" transform="matrix(14,0,0,14,328.9,445.7)" />
<use xlink:href="#f6_d4" transform="matrix(14,0,0,14,340.1,445.7)" />
<use xlink:href="#f6_c7" transform="matrix(14,0,0,14,340.6,445.7)" />
<use xlink:href="#f6_n0" transform="matrix(14,0,0,14,352.7,445.7)" />
<use xlink:href="#f6_bv" transform="matrix(14,0,0,14,365.8,445.7)" />
<use xlink:href="#f6_cv" transform="matrix(14,0,0,14,377.7,445.7)" />
<use xlink:href="#f6_am" transform="matrix(14,0,0,14,389,445.7)" />
<use xlink:href="#f6_c7" transform="matrix(14,0,0,14,410.5,445.7)" />
<use xlink:href="#f6_bp" transform="matrix(14,0,0,14,422.5,445.7)" />
<use xlink:href="#f6_ct" transform="matrix(14,0,0,14,434.8,445.7)" />
<use xlink:href="#f6_c1" transform="matrix(14,0,0,14,440.5,445.7)" />
<use xlink:href="#f6_cv" transform="matrix(14,0,0,14,448.8,445.7)" />
<use xlink:href="#f6_b1" transform="matrix(14,0,0,14,460.1,445.7)" />
<use xlink:href="#f6_k" transform="matrix(14,0,0,14,481.6,445.7)" />
<use xlink:href="#f6_c7" transform="matrix(14,0,0,14,180.2,479)" />
<use xlink:href="#f6_ct" transform="matrix(14,0,0,14,192.3,479)" />
<use xlink:href="#f6_c1" transform="matrix(14,0,0,14,197.9,479)" />
<use xlink:href="#f6_cv" transform="matrix(14,0,0,14,206.3,479)" />
<use xlink:href="#f6_c7" transform="matrix(14,0,0,14,217.6,479)" />
<use xlink:href="#f6_ct" transform="matrix(14,0,0,14,229.6,479)" />
<use xlink:href="#f6_c1" transform="matrix(14,0,0,14,235.3,479)" />
<use xlink:href="#f6_cv" transform="matrix(14,0,0,14,243.6,479)" />
<use xlink:href="#f6_bt" transform="matrix(14,0,0,14,254.9,479)" />
<use xlink:href="#f6_ct" transform="matrix(14,0,0,14,266.6,479)" />
<use xlink:href="#f6_b9" transform="matrix(14,0,0,14,272.3,479)" />
<use xlink:href="#f6_d8" transform="matrix(14,0,0,14,287.8,479)" />
<use xlink:href="#f6_ch" transform="matrix(14,0,0,14,293.4,479)" />
<use xlink:href="#f6_ct" transform="matrix(14,0,0,14,306.1,479)" />
<use xlink:href="#f6_c1" transform="matrix(14,0,0,14,317.4,479)" />
<use xlink:href="#f6_ct" transform="matrix(14,0,0,14,325.7,479)" />
<use xlink:href="#f6_c1" transform="matrix(14,0,0,14,337,479)" />
<use xlink:href="#f6_ct" transform="matrix(14,0,0,14,345.4,479)" />
<use xlink:href="#f6_bg" transform="matrix(14,0,0,14,351,479)" />
<use xlink:href="#f6_ct" transform="matrix(14,0,0,14,365.3,479)" />
<use xlink:href="#f6_k" transform="matrix(14,0,0,14,370.9,479)" />
<use xlink:href="#f6_bq" transform="matrix(14,0,0,14,381.8,479)" />
<use xlink:href="#f6_d8" transform="matrix(14,0,0,14,395,479)" />
<use xlink:href="#f6_bt" transform="matrix(14,0,0,14,400.6,479)" />
<use xlink:href="#f6_d4" transform="matrix(14,0,0,14,412.4,479)" />
<use xlink:href="#f6_pc" transform="matrix(14,0,0,14,412.3,479)" />
<use xlink:href="#f6_pc" transform="matrix(14,0,0,14,416.6,479)" />
<use xlink:href="#f6_pc" transform="matrix(14,0,0,14,420.9,479)" />
<use xlink:href="#f6_pc" transform="matrix(14,0,0,14,425.1,479)" />
<use xlink:href="#f6_q" transform="matrix(14,0,0,14,429.4,479)" />
<use xlink:href="#f6_bz" transform="matrix(14,0,0,14,139,537.4)" />
<use xlink:href="#f6_d4" transform="matrix(14,0,0,14,152.4,537.4)" />
<use xlink:href="#f6_c7" transform="matrix(14,0,0,14,152.3,537.4)" />
<use xlink:href="#f6_ct" transform="matrix(14,0,0,14,164.4,537.4)" />
<use xlink:href="#f6_nt" transform="matrix(14,0,0,14,175.7,537.4)" />
<use xlink:href="#f6_bz" transform="matrix(14,0,0,14,181.3,537.4)" />
<use xlink:href="#f6_bl" transform="matrix(14,0,0,14,194.6,537.4)" />
<use xlink:href="#f6_ct" transform="matrix(14,0,0,14,207,537.4)" />
<use xlink:href="#f6_ao" transform="matrix(14,0,0,14,212.6,537.4)" />
<use xlink:href="#f6_by" transform="matrix(14,0,0,14,229.8,537.4)" />
<use xlink:href="#f6_d8" transform="matrix(14,0,0,14,243.7,537.4)" />
<use xlink:href="#f6_bb" transform="matrix(14,0,0,14,249.3,537.4)" />
<use xlink:href="#f6_be" transform="matrix(14,0,0,14,267.6,537.4)" />
<use xlink:href="#f6_bn" transform="matrix(14,0,0,14,281.6,537.4)" />
<use xlink:href="#f6_ct" transform="matrix(14,0,0,14,293.5,537.4)" />
<use xlink:href="#f6_aq" transform="matrix(14,0,0,14,299.1,537.4)" />
<use xlink:href="#f6_k" transform="matrix(14,0,0,14,314.9,537.4)" />
<use xlink:href="#f6_bw" transform="matrix(14,0,0,14,325.7,537.4)" />
<use xlink:href="#f6_cw" transform="matrix(14,0,0,14,337.3,537.3)" />
<use xlink:href="#f6_c3" transform="matrix(14,0,0,14,341.8,537.4)" />
<use xlink:href="#f6_bm" transform="matrix(14,0,0,14,356.5,537.4)" />
<use xlink:href="#f6_d8" transform="matrix(14,0,0,14,369.2,537.4)" />
<use xlink:href="#f6_c7" transform="matrix(14,0,0,14,374.8,537.4)" />
<use xlink:href="#f6_ct" transform="matrix(14,0,0,14,386.9,537.4)" />
<use xlink:href="#f6_c3" transform="matrix(14,0,0,14,392.5,537.4)" />
<use xlink:href="#f6_cv" transform="matrix(14,0,0,14,407.3,537.4)" />
<use xlink:href="#f6_bz" transform="matrix(14,0,0,14,418.5,537.4)" />
<use xlink:href="#f6_ct" transform="matrix(14,0,0,14,431.9,537.4)" />
<use xlink:href="#f6_c3" transform="matrix(14,0,0,14,437.5,537.4)" />
<use xlink:href="#f6_ct" transform="matrix(14,0,0,14,452.2,537.4)" />
<use xlink:href="#f6_bg" transform="matrix(14,0,0,14,457.8,537.4)" />
<use xlink:href="#f6_cv" transform="matrix(14,0,0,14,472.1,537.4)" />
<use xlink:href="#f6_k" transform="matrix(14,0,0,14,477.7,537.4)" />
<use xlink:href="#f6_bz" transform="matrix(14,0,0,14,129.8,570.6)" />
<use xlink:href="#f6_m1" transform="matrix(14,0,0,14,143.1,570.6)" />
<use xlink:href="#f6_bp" transform="matrix(14,0,0,14,152,570.6)" />
<use xlink:href="#f6_b9" transform="matrix(14,0,0,14,164.3,570.6)" />
<use xlink:href="#f6_bz" transform="matrix(14,0,0,14,185.5,570.6)" />
<use xlink:href="#f6_cw" transform="matrix(14,0,0,14,199.4,570.5)" />
<use xlink:href="#f6_b9" transform="matrix(14,0,0,14,198.8,570.6)" />
<use xlink:href="#f6_cw" transform="matrix(14,0,0,14,209.9,570.5)" />
<use xlink:href="#f6_bk" transform="matrix(14,0,0,14,214.3,570.6)" />
<use xlink:href="#f6_am" transform="matrix(14,0,0,14,231.6,570.6)" />
<use xlink:href="#f6_bv" transform="matrix(14,0,0,14,253,570.6)" />
<use xlink:href="#f6_c1" transform="matrix(14,0,0,14,270.6,570.6)" />
<use xlink:href="#f6_d4" transform="matrix(14,0,0,14,278.5,570.6)" />
<use xlink:href="#f6_c8" transform="matrix(14,0,0,14,284.6,570.6)" />
<use xlink:href="#f6_d8" transform="matrix(14,0,0,14,300.5,570.6)" />
<use xlink:href="#f6_by" transform="matrix(14,0,0,14,306.1,570.6)" />
<use xlink:href="#f6_d4" transform="matrix(14,0,0,14,320.2,570.6)" />
<use xlink:href="#f6_k" transform="matrix(14,0,0,14,320.1,570.6)" />
<use xlink:href="#f6_bb" transform="matrix(14,0,0,14,330.9,570.6)" />
<use xlink:href="#f6_c3" transform="matrix(14,0,0,14,343.6,570.6)" />
<use xlink:href="#f6_d4" transform="matrix(14,0,0,14,358.4,570.6)" />
<use xlink:href="#f6_bz" transform="matrix(14,0,0,14,363.9,570.6)" />
<use xlink:href="#f6_d8" transform="matrix(14,0,0,14,377.3,570.6)" />
<use xlink:href="#f6_bp" transform="matrix(14,0,0,14,382.9,570.6)" />
<use xlink:href="#f6_cv" transform="matrix(14,0,0,14,395.2,570.6)" />
<use xlink:href="#f6_c1" transform="matrix(14,0,0,14,406.5,570.6)" />
<use xlink:href="#f6_cv" transform="matrix(14,0,0,14,414.9,570.6)" />
<use xlink:href="#f6_bz" transform="matrix(14,0,0,14,426.2,570.6)" />
<use xlink:href="#f6_ct" transform="matrix(14,0,0,14,439.5,570.6)" />
<use xlink:href="#f6_c3" transform="matrix(14,0,0,14,445.1,570.6)" />
<use xlink:href="#f6_ct" transform="matrix(14,0,0,14,459.8,570.6)" />
<use xlink:href="#f6_bg" transform="matrix(14,0,0,14,465.4,570.6)" />
<use xlink:href="#f6_cv" transform="matrix(14,0,0,14,479.7,570.6)" />
<use xlink:href="#f6_k" transform="matrix(14,0,0,14,485.3,570.6)" />
<use xlink:href="#f6_c7" transform="matrix(14,0,0,14,180.2,603.9)" />
<use xlink:href="#f6_ct" transform="matrix(14,0,0,14,192.3,603.9)" />
<use xlink:href="#f6_c1" transform="matrix(14,0,0,14,197.9,603.9)" />
<use xlink:href="#f6_cv" transform="matrix(14,0,0,14,206.3,603.9)" />
<use xlink:href="#f6_c7" transform="matrix(14,0,0,14,217.6,603.9)" />
<use xlink:href="#f6_ct" transform="matrix(14,0,0,14,229.6,603.9)" />
<use xlink:href="#f6_c1" transform="matrix(14,0,0,14,235.3,603.9)" />
<use xlink:href="#f6_cv" transform="matrix(14,0,0,14,243.6,603.9)" />
<use xlink:href="#f6_bt" transform="matrix(14,0,0,14,254.9,603.9)" />
<use xlink:href="#f6_ct" transform="matrix(14,0,0,14,266.6,603.9)" />
<use xlink:href="#f6_b9" transform="matrix(14,0,0,14,272.3,603.9)" />
<use xlink:href="#f6_d8" transform="matrix(14,0,0,14,287.8,603.9)" />
<use xlink:href="#f6_ch" transform="matrix(14,0,0,14,293.4,603.9)" />
<use xlink:href="#f6_ct" transform="matrix(14,0,0,14,306.1,603.9)" />
<use xlink:href="#f6_c1" transform="matrix(14,0,0,14,317.4,603.9)" />
<use xlink:href="#f6_ct" transform="matrix(14,0,0,14,325.7,603.9)" />
<use xlink:href="#f6_c1" transform="matrix(14,0,0,14,337,603.9)" />
<use xlink:href="#f6_ct" transform="matrix(14,0,0,14,345.4,603.9)" />
<use xlink:href="#f6_bg" transform="matrix(14,0,0,14,351,603.9)" />
<use xlink:href="#f6_ct" transform="matrix(14,0,0,14,365.3,603.9)" />
<use xlink:href="#f6_k" transform="matrix(14,0,0,14,370.9,603.9)" />
<use xlink:href="#f6_bq" transform="matrix(14,0,0,14,381.8,603.9)" />
<use xlink:href="#f6_d8" transform="matrix(14,0,0,14,395,603.9)" />
<use xlink:href="#f6_bt" transform="matrix(14,0,0,14,400.6,603.9)" />
<use xlink:href="#f6_d4" transform="matrix(14,0,0,14,412.4,603.9)" />
<use xlink:href="#f6_pc" transform="matrix(14,0,0,14,412.3,603.9)" />
<use xlink:href="#f6_pc" transform="matrix(14,0,0,14,416.6,603.9)" />
<use xlink:href="#f6_pc" transform="matrix(14,0,0,14,420.9,603.9)" />
<use xlink:href="#f6_pc" transform="matrix(14,0,0,14,425.1,603.9)" />
<use xlink:href="#f6_r" transform="matrix(14,0,0,14,429.4,603.9)" />
<use xlink:href="#f6_cb" transform="matrix(14,0,0,14,120.6,662.3)" />
<use xlink:href="#f6_d8" transform="matrix(14,0,0,14,135.5,662.3)" />
<use xlink:href="#f6_bt" transform="matrix(14,0,0,14,141.1,662.3)" />
<use xlink:href="#f6_ct" transform="matrix(14,0,0,14,152.8,662.3)" />
<use xlink:href="#f6_n0" transform="matrix(14,0,0,14,164.1,662.3)" />
<use xlink:href="#f6_bv" transform="matrix(14,0,0,14,177.3,662.3)" />
<use xlink:href="#f6_ct" transform="matrix(14,0,0,14,189.1,662.3)" />
<use xlink:href="#f6_c1" transform="matrix(14,0,0,14,200.4,662.3)" />
<use xlink:href="#f6_cv" transform="matrix(14,0,0,14,208.8,662.3)" />
<use xlink:href="#f6_am" transform="matrix(14,0,0,14,220.1,662.3)" />
<use xlink:href="#f6_dj" transform="matrix(14,0,0,14,236.1,662.7)" />
<use xlink:href="#f6_bb" transform="matrix(14,0,0,14,241.6,662.3)" />
<use xlink:href="#f6_cv" transform="matrix(14,0,0,14,254.2,662.3)" />
<use xlink:href="#f6_c1" transform="matrix(14,0,0,14,265.5,662.3)" />
<use xlink:href="#f6_be" transform="matrix(14,0,0,14,273.8,662.3)" />
<use xlink:href="#f6_ct" transform="matrix(14,0,0,14,287.8,662.3)" />
<use xlink:href="#f6_aq" transform="matrix(14,0,0,14,293.4,662.3)" />
<use xlink:href="#f6_k" transform="matrix(14,0,0,14,309.2,662.3)" />
<use xlink:href="#f6_nu" transform="matrix(14,0,0,14,320,662.3)" />
<use xlink:href="#f6_bg" transform="matrix(14,0,0,14,325.7,662.3)" />
<use xlink:href="#f6_bo" transform="matrix(14,0,0,14,339.9,662.3)" />
<use xlink:href="#f6_bz" transform="matrix(14,0,0,14,354.3,662.3)" />
<use xlink:href="#f6_oz" transform="matrix(14,0,0,14,367.8,662.3)" />
<use xlink:href="#f6_cu" transform="matrix(14,0,0,14,373.3,662.3)" />
<use xlink:href="#f6_cc" transform="matrix(14,0,0,14,378.9,662.3)" />
<use xlink:href="#f6_c1" transform="matrix(14,0,0,14,390.5,662.3)" />
<use xlink:href="#f6_c3" transform="matrix(14,0,0,14,398.9,662.3)" />
<use xlink:href="#f6_ct" transform="matrix(14,0,0,14,413.6,662.3)" />
<use xlink:href="#f6_c3" transform="matrix(14,0,0,14,424.9,662.3)" />
<use xlink:href="#f6_bb" transform="matrix(14,0,0,14,439.6,662.3)" />
<use xlink:href="#f6_ct" transform="matrix(14,0,0,14,452.2,662.3)" />
<use xlink:href="#f6_c7" transform="matrix(14,0,0,14,457.8,662.3)" />
<use xlink:href="#f6_cx" transform="matrix(14,0,0,14,469.9,662.2)" />
<use xlink:href="#f6_bg" transform="matrix(14,0,0,14,469.9,662.3)" />
<use xlink:href="#f6_cv" transform="matrix(14,0,0,14,484.2,662.3)" />
<use xlink:href="#f6_k" transform="matrix(14,0,0,14,495.5,662.3)" />
<use xlink:href="#f6_b9" transform="matrix(14,0,0,14,121.8,695.5)" />
<use xlink:href="#f6_ct" transform="matrix(14,0,0,14,137.3,695.5)" />
<use xlink:href="#f6_bt" transform="matrix(14,0,0,14,142.9,695.5)" />
<use xlink:href="#f6_d8" transform="matrix(14,0,0,14,154.6,695.5)" />
<use xlink:href="#f6_dj" transform="matrix(14,0,0,14,158.9,696.4)" />
<use xlink:href="#f6_bz" transform="matrix(14,0,0,14,165.9,695.5)" />
<use xlink:href="#f6_oz" transform="matrix(14,0,0,14,179.4,695.5)" />
<use xlink:href="#f6_b9" transform="matrix(14,0,0,14,184.9,695.5)" />
<use xlink:href="#f6_cw" transform="matrix(14,0,0,14,196,695.4)" />
<use xlink:href="#f6_lc" transform="matrix(14,0,0,14,200.4,695.5)" />
<use xlink:href="#f6_bm" transform="matrix(14,0,0,14,208.8,695.5)" />
<use xlink:href="#f6_c3" transform="matrix(14,0,0,14,221.4,695.5)" />
<use xlink:href="#f6_am" transform="matrix(14,0,0,14,241.8,695.5)" />
<use xlink:href="#f6_bv" transform="matrix(14,0,0,14,263.3,695.5)" />
<use xlink:href="#f6_c1" transform="matrix(14,0,0,14,275.2,695.5)" />
<use xlink:href="#f6_d4" transform="matrix(14,0,0,14,283.1,695.5)" />
<use xlink:href="#f6_cb" transform="matrix(14,0,0,14,289.2,695.5)" />
<use xlink:href="#f6_bg" transform="matrix(14,0,0,14,304.1,695.5)" />
<use xlink:href="#f6_ct" transform="matrix(14,0,0,14,318.3,695.5)" />
<use xlink:href="#f6_aq" transform="matrix(14,0,0,14,324,695.5)" />
<use xlink:href="#f6_k" transform="matrix(14,0,0,14,339.7,695.5)" />
<use xlink:href="#f6_cu" transform="matrix(14,0,0,14,350.6,695.5)" />
<use xlink:href="#f6_cc" transform="matrix(14,0,0,14,356.2,695.5)" />
<use xlink:href="#f6_c1" transform="matrix(14,0,0,14,367.8,695.5)" />
<use xlink:href="#f6_ct" transform="matrix(14,0,0,14,376.2,695.5)" />
<use xlink:href="#f6_bv" transform="matrix(14,0,0,14,387.5,695.5)" />
<use xlink:href="#f6_jj" transform="matrix(14,0,0,14,399.3,695.5)" />
<use xlink:href="#f6_ct" transform="matrix(14,0,0,14,412.2,695.5)" />
<use xlink:href="#f6_bg" transform="matrix(14,0,0,14,423.5,695.5)" />
<use xlink:href="#f6_cu" transform="matrix(14,0,0,14,437.8,695.5)" />
<use xlink:href="#f6_bm" transform="matrix(14,0,0,14,443.4,695.5)" />
<use xlink:href="#f6_c0" transform="matrix(14,0,0,14,456.1,695.5)" />
<use xlink:href="#f6_ct" transform="matrix(14,0,0,14,468.6,695.5)" />
<use xlink:href="#f6_bg" transform="matrix(14,0,0,14,474.2,695.5)" />
<use xlink:href="#f6_cv" transform="matrix(14,0,0,14,488.5,695.5)" />
<use xlink:href="#f6_k" transform="matrix(14,0,0,14,494.1,695.5)" />
<use xlink:href="#f6_c7" transform="matrix(14,0,0,14,180.2,728.8)" />
<use xlink:href="#f6_ct" transform="matrix(14,0,0,14,192.3,728.8)" />
<use xlink:href="#f6_c1" transform="matrix(14,0,0,14,197.9,728.8)" />
<use xlink:href="#f6_cv" transform="matrix(14,0,0,14,206.3,728.8)" />
<use xlink:href="#f6_c7" transform="matrix(14,0,0,14,217.6,728.8)" />
<use xlink:href="#f6_ct" transform="matrix(14,0,0,14,229.6,728.8)" />
<use xlink:href="#f6_c1" transform="matrix(14,0,0,14,235.3,728.8)" />
<use xlink:href="#f6_cv" transform="matrix(14,0,0,14,243.6,728.8)" />
<use xlink:href="#f6_bt" transform="matrix(14,0,0,14,254.9,728.8)" />
<use xlink:href="#f6_ct" transform="matrix(14,0,0,14,266.6,728.8)" />
<use xlink:href="#f6_b9" transform="matrix(14,0,0,14,272.3,728.8)" />
<use xlink:href="#f6_d8" transform="matrix(14,0,0,14,287.8,728.8)" />
<use xlink:href="#f6_ch" transform="matrix(14,0,0,14,293.4,728.8)" />
<use xlink:href="#f6_ct" transform="matrix(14,0,0,14,306.1,728.8)" />
<use xlink:href="#f6_c1" transform="matrix(14,0,0,14,317.4,728.8)" />
<use xlink:href="#f6_ct" transform="matrix(14,0,0,14,325.7,728.8)" />
<use xlink:href="#f6_c1" transform="matrix(14,0,0,14,337,728.8)" />
<use xlink:href="#f6_ct" transform="matrix(14,0,0,14,345.4,728.8)" />
<use xlink:href="#f6_bg" transform="matrix(14,0,0,14,351,728.8)" />
<use xlink:href="#f6_ct" transform="matrix(14,0,0,14,365.3,728.8)" />
<use xlink:href="#f6_k" transform="matrix(14,0,0,14,370.9,728.8)" />
<use xlink:href="#f6_bq" transform="matrix(14,0,0,14,381.8,728.8)" />
<use xlink:href="#f6_d8" transform="matrix(14,0,0,14,395,728.8)" />
<use xlink:href="#f6_bt" transform="matrix(14,0,0,14,400.6,728.8)" />
<use xlink:href="#f6_d4" transform="matrix(14,0,0,14,412.4,728.8)" />
<use xlink:href="#f6_pc" transform="matrix(14,0,0,14,412.3,728.8)" />
<use xlink:href="#f6_pc" transform="matrix(14,0,0,14,416.6,728.8)" />
<use xlink:href="#f6_pc" transform="matrix(14,0,0,14,420.9,728.8)" />
<use xlink:href="#f6_pc" transform="matrix(14,0,0,14,425.1,728.8)" />
<use xlink:href="#f6_s" transform="matrix(14,0,0,14,429.4,728.8)" />
<use xlink:href="#f7_4r" transform="matrix(9,0,0,9,290.2,795.2)" />
<use xlink:href="#f8_r" transform="matrix(9,0,0,9,303,795.2)" />
<use xlink:href="#f8_r" transform="matrix(9,0,0,9,310.7,795.2)" />
<use xlink:href="#f7_4r" transform="matrix(9,0,0,9,321.3,795.2)" />
</g>
</g>
<image preserveAspectRatio="none" x="22" y="801" width="581" height="86" xlink:href="img/1.png"/>
<path d="M204,97.4H418.2v1.1H204V97.4Z" class="g1_83"/>
<image preserveAspectRatio="none" x="202" y="14" width="217" height="26" xlink:href="img/2.png"/>
<defs>
<path d="M371,296c0,0,71,0,139,34c0,0,69,34,109,92v90c0,0,-72,36,-148,36c0,0,-84,0,-131,-47c0,0,-47,-47,-47,-111c0,0,0,-49,28,-89l50,-5ZM793,-65L619,29V134c0,0,-55,-27,-122,-27c0,0,-98,0,-207,48c0,0,-108,48,-182,132c0,0,-73,84,-73,188c0,0,0,113,83,191c0,0,84,78,212,78c0,0,41,0,84,-9L619,643V822H0L-86,937l32,64H978l85,-115l-32,-64H761L863,749V-31L793,-65Z"
id="f5_c7"
transform="scale(0.001,-0.001)"/>

<path d="M277,-65L102,29V822H0L-86,937l32,64H463L548,886L516,822H244L347,749V-31L277,-65Z"
id="f5_ct"
transform="scale(0.001,-0.001)"/>

<path d="M545,-97L35,405L87,542H295c0,0,1,5,1,280H0L-86,937l32,64H729L814,886L782,822H445L550,749V547c0,0,0,-75,-41,-127c0,0,-41,-52,-129,-111L709,110V41L545,-97Z"
id="f5_c1"
transform="scale(0.001,-0.001)"/>

<path d="M277,-65L102,29V822H0L-86,937l32,64H110c0,0,-50,142,-110,226c0,0,-60,84,-149,84c0,0,-59,0,-97,-37c0,0,-39,-36,-39,-91c0,0,0,-57,42,-115l-95,-50c0,0,-145,116,-145,267c0,0,0,108,75,179c0,0,76,70,195,70c0,0,179,0,297,-150c0,0,119,-150,189,-383H463L548,886L516,822H244L347,749V-31L277,-65Z"
id="f5_cv"
transform="scale(0.001,-0.001)"/>

<path d="M746,-65L571,29V419H376V260L275,212c0,0,-87,48,-160,148c0,0,-72,100,-91,193l57,84H571V822H0L-86,937l32,64H930l88,-115L985,822H713L816,749V-31L746,-65Z"
id="f5_bt"
transform="scale(0.001,-0.001)"/>

<path d="M300,310c13,0,56,2,103,25c0,0,58,27,100,81V523c0,0,-46,16,-83,16c0,0,-69,0,-111,-45c0,0,-42,-45,-42,-104c0,0,0,-45,28,-80c0,0,2,0,5,0ZM677,-65L503,29V144c0,0,-32,-11,-75,-11c0,0,-147,0,-272,98c0,0,-125,99,-125,233c0,0,0,110,75,185c0,0,76,74,195,74l67,-6L503,646V822H0L-86,937l32,64H1245l86,-115l-32,-64H645L747,749V622c0,0,81,58,165,58c0,0,122,0,213,-99c0,0,91,-98,91,-230c0,0,0,-204,-253,-371L791,157c0,0,110,83,164,139c0,0,53,55,53,106c0,0,0,55,-53,55c0,0,-83,0,-208,-145V-31L677,-65Z"
id="f5_b9"
transform="scale(0.001,-0.001)"/>

<path d="M277,-65L102,29V822H0L-86,937l32,64H86L18,1111c0,0,-67,122,-168,122c0,0,-81,0,-202,-80l-128,250c0,0,122,77,232,77c0,0,196,0,356,-250L252,1001H463L548,886L516,822H244L347,749V-31L277,-65Z"
id="f5_d8"
transform="scale(0.001,-0.001)"/>

<path d="M550,-407c0,0,-38,15,-87,52c0,0,-49,37,-73,72c0,0,56,113,129,157c0,0,84,-32,156,-124c0,0,-17,-44,-52,-88c0,0,-35,-44,-73,-69Zm23,306c0,0,-296,0,-555,382l104,86c0,0,167,-260,381,-260c0,0,87,0,151,46c0,0,64,46,63,113L489,194c0,0,-167,54,-273,152c0,0,-106,99,-106,206c0,0,0,87,72,142c0,0,72,55,211,55H588v73H0L-86,937l32,64H949l85,-115l-32,-64H706L808,749V545H445c0,0,-127,0,-127,-64c0,0,0,-35,38,-62l278,64c0,0,125,-43,193,-130c0,0,67,-87,67,-182c0,0,0,-116,-91,-194c0,0,-91,-78,-230,-78Z"
id="f5_ch"
transform="scale(0.001,-0.001)"/>

<path d="M952,-65L778,29V474H600c0,0,94,-91,94,-202c0,0,0,-98,-66,-163c0,0,-66,-65,-171,-65c0,0,-165,0,-280,155C177,199,63,354,-7,616l152,50c0,0,67,-223,120,-299c0,0,53,-77,122,-77c0,0,47,0,73,29c0,0,26,28,26,71c0,0,0,79,-73,128L298,559V681H778V822H0L-86,937l32,64H1137l85,-115l-32,-64H920l102,-73V-31L952,-65Z"
id="f5_bg"
transform="scale(0.001,-0.001)"/>

<path d="M325,240c0,0,77,0,154,35c0,0,77,35,120,99V500c0,0,-118,73,-222,73c0,0,-97,0,-151,-54c0,0,-53,-53,-53,-128c0,0,0,-73,49,-125c0,0,38,-26,103,-26ZM689,-49L599,8V199c0,0,-73,-65,-179,-65c0,0,-134,0,-252,96c0,0,-118,95,-118,221c0,0,0,102,78,171c0,0,78,69,190,69c0,0,38,0,75,-10L599,582V822H0l-45,76l14,31H863l46,-76L895,822H660l66,-58V-39L689,-49Z"
id="f6_c7"
transform="scale(0.001,-0.001)"/>

<path d="M228,-49L138,8V822H0l-45,76l14,31H402l46,-76L434,822H199l65,-58V-39L228,-49Z"
id="f6_ct"
transform="scale(0.001,-0.001)"/>

<path d="M527,-71L52,414l34,92H277c0,0,12,32,12,72V822H0l-45,76l14,31H599l46,-76L631,822H350l66,-55V564c0,0,0,-96,-152,-248L610,34L611,8L527,-71Z"
id="f6_c1"
transform="scale(0.001,-0.001)"/>

<path d="M228,-49L138,8V822H0l-45,76l14,31H138c0,0,-109,342,-284,342c0,0,-62,0,-102,-40c0,0,-40,-39,-40,-93c0,0,0,-61,51,-134l-42,-32c0,0,-128,113,-128,226c0,0,0,79,60,136c0,0,61,56,154,56c0,0,137,0,249,-125c0,0,112,-125,169,-336H402l46,-76L434,822H199l65,-58V-39L228,-49Z"
id="f6_cv"
transform="scale(0.001,-0.001)"/>

<path d="M663,-49L573,8V445H299V280L226,251c0,0,-105,99,-162,238l63,72H573V822H0l-45,76l14,31H837l46,-76L869,822H634l66,-58V-39L663,-49Z"
id="f6_bt"
transform="scale(0.001,-0.001)"/>

<path d="M283,260c0,0,122,0,209,113V513c0,0,-90,51,-160,51c0,0,-80,0,-129,-50c0,0,-49,-50,-49,-118c0,0,0,-60,35,-110c0,0,45,-26,94,-26ZM582,-49L492,8V211c0,0,-63,-54,-141,-54c0,0,-113,0,-213,92c0,0,-100,92,-100,205c0,0,0,93,69,157c0,0,69,64,162,64c0,0,32,0,64,-9L492,590V822H0l-45,76l14,31H1108l45,-76l-13,-31H553l66,-58V524c0,0,91,89,192,89c0,0,98,0,171,-79c0,0,72,-79,72,-186c0,0,0,-178,-224,-330L736,124c0,0,219,153,219,269c0,0,0,44,-26,75c0,0,-26,32,-81,32c0,0,-109,0,-229,-155V-39L582,-49Z"
id="f6_b9"
transform="scale(0.001,-0.001)"/>

<path d="M228,-49L138,8V822H0l-45,76l14,31H119L-33,1144c0,0,-70,92,-157,92c0,0,-69,0,-159,-58l-72,118c0,0,89,73,181,73c0,0,140,0,257,-170L205,929H402l46,-76L434,822H199l65,-58V-39L228,-49Z"
id="f6_d8"
transform="scale(0.001,-0.001)"/>

<path d="M547,-285c0,0,-66,25,-102,80c0,0,32,69,82,101c0,0,55,-20,99,-80c0,0,-26,-67,-79,-101Zm1,228c0,0,-122,0,-243,81c0,0,-122,81,-252,280l57,41C110,345,283,64,498,64c0,0,92,0,153,49c0,0,61,49,61,121c0,0,0,46,-28,84L440,237c0,0,-73,11,-139,55c0,0,-66,44,-105,105c0,0,-40,61,-40,119c0,0,0,72,62,125c0,0,62,53,184,53H625V822H0l-45,76l14,31H906l46,-76L938,822H678l66,-58V562H431c0,0,-164,0,-164,-99c0,0,0,-55,57,-102l261,82c0,0,104,-21,172,-98c0,0,68,-78,68,-171c0,0,0,-99,-76,-166c0,0,-77,-65,-201,-65Z"
id="f6_ch"
transform="scale(0.001,-0.001)"/>

<path d="M845,-49L755,8V513H497c0,0,61,-45,93,-110c0,0,33,-64,33,-128c0,0,0,-90,-58,-144c0,0,-59,-53,-143,-53c0,0,-133,0,-234,139C188,217,87,356,20,596l76,24c0,0,60,-201,127,-306c0,0,67,-105,160,-105c0,0,57,0,91,36c0,0,33,36,33,91c0,0,0,84,-73,159L295,558v71H755V822H0l-45,76l14,31H1019l46,-76l-14,-31H816l66,-58V-39L845,-49Z"
id="f6_bg"
transform="scale(0.001,-0.001)"/>

<path d="M108,-222l-44,58c0,0,96,81,104,164L89,61c0,0,12,83,93,122c0,0,50,-15,79,-55c0,0,29,-39,29,-90c0,0,0,-69,-48,-142c0,0,-48,-72,-134,-118Z"
id="f6_k"
transform="scale(0.001,-0.001)"/>

<path d="M768,-49L678,8V202c0,0,-73,-58,-172,-58c0,0,-123,0,-240,94c0,0,-118,94,-179,237l20,55c0,0,134,12,215,70c0,0,81,57,81,141c0,0,0,90,-67,134l-26,3c0,0,-46,0,-74,-29c0,0,-28,-30,-28,-68c0,0,0,-55,82,-109L252,620C252,620,93,720,93,820c0,0,0,65,47,104c0,0,46,40,114,40c0,0,99,0,179,-83c0,0,80,-83,82,-197c0,0,0,-93,-79,-165c0,0,-78,-73,-199,-97c0,0,29,-104,88,-158c0,0,42,-16,92,-16c0,0,78,0,151,38c0,0,74,38,110,111V822H553l-46,76l14,31H943l45,-76L975,822H739l66,-58V-39L768,-49Z"
id="f6_bq"
transform="scale(0.001,-0.001)"/>

<path d="M-214,863l-199,281c0,0,-70,92,-157,92c0,0,-69,0,-159,-58l-72,118c0,0,89,73,180,73c0,0,141,0,258,-170L-155,901l-59,-38Z"
id="f6_d4"
transform="scale(0.001,-0.001)"/>

<path d="M689,445V822H286l65,-58l8,-319ZM779,-49L689,8V328H370V180L296,150c0,0,-56,35,-120,104c0,0,-63,70,-89,131l41,60H238L223,822H0l-45,76l14,31H953l46,-76L985,822H750l66,-58V-39L779,-49Z"
id="f6_bz"
transform="scale(0.001,-0.001)"/>

<path d="M342,324c0,0,45,0,75,34c0,0,31,33,31,100V822H165l66,-58V390c0,0,32,-66,111,-66ZM853,-49L762,8V822H509l65,-58V455c0,0,0,-134,-51,-185c0,0,-52,-52,-127,-52c0,0,-98,0,-195,99c0,0,-97,99,-97,209V822H0l-45,76l14,31H1027l46,-76l-14,-31H823l66,-58V-39L853,-49Z"
id="f6_bo"
transform="scale(0.001,-0.001)"/>

<path d="M959,-49L869,8V367c0,0,-32,-13,-64,-13c0,0,-50,0,-110,25c0,0,23,-52,23,-109c0,0,0,-103,-70,-170c0,0,-70,-66,-182,-66c0,0,-110,0,-222,82c0,0,-111,83,-213,293l68,42c0,0,72,-155,152,-231c0,0,81,-76,178,-76c0,0,83,0,131,49c0,0,48,48,48,117c0,0,0,54,-30,100c0,0,-31,47,-91,65L325,391L257,512c0,0,68,53,156,56c0,0,140,72,140,179c0,0,0,69,-52,99c0,0,-4,1,-11,1c-19,0,-66,-4,-123,-30c0,0,-78,-35,-142,-96L150,823c0,0,119,117,253,117c0,0,98,0,175,-71c0,0,77,-70,77,-159c0,0,0,-103,-94,-180c0,0,39,-23,73,-56c0,0,52,-22,109,-22c0,0,77,0,126,38V822H727l-46,76l14,31h840l46,-76l-13,-31H1332l66,-58V-39l-37,-10L1271,8V822H930l66,-58V-39L959,-49Z"
id="f6_am"
transform="scale(0.001,-0.001)"/>

<path d="M374,248c0,0,77,0,149,36c0,0,71,37,110,107V822H284c0,0,138,-96,138,-208c0,0,0,-151,-228,-192c0,0,29,-104,89,-158c0,0,41,-16,91,-16ZM723,-49L633,8V200c0,0,-69,-56,-170,-56c0,0,-122,0,-240,94c0,0,-118,94,-179,237l20,55c0,0,133,17,187,44c0,0,55,28,55,84c0,0,0,45,-30,81c0,0,-30,36,-99,83H0l-45,76l14,31H897l46,-76L929,822H694l65,-58V-39L723,-49Z"
id="f6_c0"
transform="scale(0.001,-0.001)"/>

<path d="M688,-243c0,0,-256,53,-408,173c0,0,-152,119,-152,270c0,0,0,101,68,171c0,0,-101,84,-101,179c0,0,0,64,53,112c0,0,54,47,191,47H587V822H0l-45,76l14,31H830l45,-76L862,822H640l66,-58V585H362c0,0,-159,-1,-159,-92c0,0,0,-41,46,-80c0,0,76,47,183,47c0,0,135,0,230,-76c0,0,96,-75,96,-187C758,197,758,67,629,2L545,104c0,0,49,30,81,75c0,0,32,44,32,82c0,0,0,16,-4,26c0,0,-64,58,-167,58c0,0,-97,0,-166,-50v-2c0,0,-67,-52,-67,-131c0,0,0,-116,132,-199c0,0,132,-84,334,-132l-32,-74Z"
id="f6_cc"
transform="scale(0.001,-0.001)"/>

<path d="M959,-49L869,8V367c0,0,-32,-13,-64,-13c0,0,-50,0,-110,25c0,0,23,-52,23,-109c0,0,0,-103,-70,-170c0,0,-70,-66,-182,-66c0,0,-110,0,-222,82c0,0,-111,83,-213,293l68,42c0,0,72,-155,152,-231c0,0,81,-76,178,-76c0,0,83,0,131,49c0,0,48,48,48,117c0,0,0,54,-30,100c0,0,-31,47,-91,65L325,391L257,512c0,0,68,53,156,56c0,0,140,72,140,179c0,0,0,69,-52,99c0,0,-4,1,-11,1c-19,0,-66,-4,-123,-30c0,0,-78,-35,-142,-96L150,823c0,0,119,117,253,117c0,0,98,0,175,-71c0,0,77,-70,77,-159c0,0,0,-103,-94,-180c0,0,39,-23,73,-56c0,0,52,-22,109,-22c0,0,77,0,126,38V822H727l-46,76l14,31h439l45,-76l-13,-31H930l66,-58V-39L959,-49Z"
id="f6_al"
transform="scale(0.001,-0.001)"/>

<path d="M487,-7c0,0,-88,0,-185,46c0,0,-97,47,-163,130c0,0,-66,83,-66,185c0,0,0,109,80,177c0,0,79,68,234,68H504V822H0l-45,76l14,31H827l45,-76L859,822H565l66,-58V474l-3,1l3,-3H396c0,0,-100,0,-152,-47c0,0,-53,-48,-53,-119c0,0,0,-104,93,-178c0,0,60,-20,118,-20c0,0,81,0,156,36c0,0,76,35,123,99l92,-99C773,144,723,70,645,31C645,31,567,-7,487,-7Z"
id="f6_bk"
transform="scale(0.001,-0.001)"/>

<path d="M388,325c0,0,58,0,112,31c0,0,53,31,84,86V822H165l69,-58V408c0,0,47,-83,154,-83ZM674,-49L584,8V257c0,0,-61,-51,-141,-51c0,0,-125,0,-232,109c0,0,-107,108,-107,243V822H0l-45,76l14,31H848l46,-76L880,822H645l65,-58V-39L674,-49Z"
id="f6_bv"
transform="scale(0.001,-0.001)"/>

<path d="M228,-49L138,8V822H0l-45,76l14,31H134c0,0,-91,92,-91,191c0,0,0,105,85,170c0,0,84,65,219,65c0,0,128,0,293,-76c0,0,165,-77,362,-263L958,966c0,0,-177,143,-303,210c0,0,-125,68,-244,68c0,0,-107,0,-175,-50c0,0,-68,-50,-68,-131c0,0,0,-61,49,-134H402l46,-76L434,822H199l65,-58V-39L228,-49Z"
id="f6_cu"
transform="scale(0.001,-0.001)"/>

<path d="M548,-57c0,0,-122,0,-243,81c0,0,-122,81,-252,280l57,41C110,345,283,64,498,64c0,0,92,0,153,49c0,0,61,49,61,121c0,0,0,46,-28,84L440,237c0,0,-73,11,-139,55c0,0,-66,44,-105,105c0,0,-40,61,-40,119c0,0,0,72,62,125c0,0,62,53,184,53H625V822H0l-45,76l14,31H906l46,-76L938,822H678l66,-58V562H431c0,0,-164,0,-164,-99c0,0,0,-55,57,-102l261,82c0,0,104,-21,172,-98c0,0,68,-78,68,-171c0,0,0,-99,-76,-166c0,0,-77,-65,-201,-65Z"
id="f6_bm"
transform="scale(0.001,-0.001)"/>

<path d="M727,-49L637,8V822H278l66,-58V226L270,196c0,0,-64,36,-122,98c0,0,-58,62,-79,122l43,59H217V822H0l-45,76l14,31H901l46,-76L933,822H698l66,-58V-39L727,-49Z"
id="f6_bb"
transform="scale(0.001,-0.001)"/>

<path d="M675,-274L602,21C602,21,550,3,498,3C498,3,347,3,210,118C210,118,73,232,73,373c0,0,0,113,84,184c0,0,84,71,222,72H524V822H0l-45,76l14,31H834l46,-76L866,822H585l66,-58V504l-3,2l3,-3H408c0,0,-95,0,-154,-53c0,0,-58,-53,-58,-132c0,0,0,-49,27,-100c0,0,28,-50,83,-84c0,0,44,-15,96,-15c0,0,91,0,160,46L535,303l101,48L773,188c0,0,-8,-28,-34,-66c0,0,-27,-38,-62,-64L813,-221L675,-274Z"
id="f6_br"
transform="scale(0.001,-0.001)"/>

<path d="M347,-57C347,-57,66,211,66,394c0,0,0,98,74,164c0,0,74,65,225,65H616V822H0l-45,76l14,31H880l46,-76L912,822H677l66,-58V-39L706,-49L616,8V500H428c0,0,-239,0,-239,-161c0,0,0,-136,214,-343L347,-57Z"
id="f6_bp"
transform="scale(0.001,-0.001)"/>

<path d="M825,-49L735,8V217c0,0,-86,-72,-197,-72c0,0,-130,0,-238,91c0,0,-107,91,-107,204c0,0,0,55,27,105H55L12,616l14,30H574l46,-76L607,539H396c0,0,-78,-49,-78,-162c0,0,0,-70,40,-111c0,0,39,-15,94,-15c0,0,84,0,163,41c0,0,79,41,120,121V822H0l-45,76l14,31H999l46,-76l-14,-31H796l66,-58V-39L825,-49Z"
id="f6_be"
transform="scale(0.001,-0.001)"/>

<path d="M413,-59C413,-59,53,193,53,416c0,0,0,97,66,164c0,0,66,66,156,66c0,0,61,0,110,-30L487,507c0,0,92,126,257,126l35,-2V822H0l-45,76l14,31H1043l46,-76l-13,-31H840l66,-58V-39L869,-49L779,8V547c0,0,-101,-5,-165,-90c0,0,-64,-86,-70,-222L507,225l-90,73c0,0,5,79,35,151c0,0,-59,66,-128,66c0,0,-57,0,-100,-38c0,0,-44,-39,-44,-109c0,0,0,-165,284,-360L413,-59Z"
id="f6_c3"
transform="scale(0.001,-0.001)"/>

<path d="M823,-49L733,8V339H445V191L371,160c0,0,-56,36,-120,105c0,0,-63,70,-89,131l41,59H313V735c0,0,0,99,-55,140c0,0,-3,1,-8,1c-16,0,-48,-3,-71,-23c0,0,-31,-26,-31,-66c0,0,0,-69,81,-113L189,620C189,620,31,720,31,828c0,0,0,61,45,99c0,0,46,37,109,37c0,0,96,0,173,-86c0,0,76,-87,79,-194V455H733V822H556l-46,76l14,31H998l45,-76l-13,-31H794l66,-58V-39L823,-49Z"
id="f6_by"
transform="scale(0.001,-0.001)"/>

<path d="M226,-49c0,0,-66,24,-102,78c0,0,32,69,82,101c0,0,55,-20,100,-80c0,0,-26,-66,-80,-99Z"
id="f6_pc"
transform="scale(0.001,-0.001)"/>

<path d="M513,460c0,0,61,81,61,179c0,0,0,87,-45,143c0,0,-45,57,-116,57c0,0,-63,0,-102,-43c0,0,-39,-43,-39,-110c0,0,0,-90,68,-151c0,0,68,-61,173,-75ZM581,-83L278,167l-41,-4c0,0,-99,0,-130,37l47,168l51,12l78,-79c0,0,110,40,183,105c0,0,-141,23,-231,107c0,0,-90,84,-90,193c0,0,0,69,37,116H0l-45,76l14,31H1134l45,-76l-13,-31H930l66,-58V-39L959,-49L869,8V822H588c0,0,51,-44,75,-109c0,0,25,-64,25,-122c0,0,0,-105,-81,-213c0,0,-80,-108,-240,-176L658,18l2,-25L581,-83Z"
id="f6_c8"
transform="scale(0.001,-0.001)"/>

<path d="M434,225c0,0,84,0,169,42c0,0,85,43,126,126V822H267c0,0,-64,-49,-64,-115c0,0,0,-79,90,-126c0,0,60,35,144,35l67,-6l75,-89L564,490l-51,7H493c0,0,-90,0,-142,-43c0,0,-52,-43,-52,-104c0,0,0,-60,51,-109c0,0,33,-16,84,-16ZM819,-49L729,8V197c0,0,-83,-76,-202,-76c0,0,-130,0,-237,91c0,0,-108,92,-108,196c0,0,0,72,53,128c0,0,-75,42,-115,97c0,0,-41,56,-41,113c0,0,0,38,22,76H0l-45,76l14,31H993l46,-76l-14,-31H790l66,-58V-39L819,-49Z"
id="f6_bc"
transform="scale(0.001,-0.001)"/>

<path d="M-234,-413c0,0,-210,0,-488,322l54,49c0,0,119,-128,209,-193c0,0,90,-65,177,-65c0,0,72,0,113,40c0,0,42,39,42,91c0,0,0,75,-78,106L-323,-181l-90,98c0,0,63,95,167,95c0,0,90,0,155,-69c0,0,66,-70,66,-164c0,0,0,-85,-60,-139c0,0,-61,-53,-149,-53Z"
id="f6_cw"
transform="scale(0.001,-0.001)"/>

<path d="M0,1062c0,0,-26,11,-60,36c0,0,-34,26,-51,49c0,0,39,81,91,110c0,0,60,-23,106,-85c0,0,-28,-70,-86,-110Z"
id="f6_dj"
transform="scale(0.001,-0.001)"/>

<path d="M228,-49L138,8V822H0l-45,76l14,31H133c0,0,-93,95,-93,206c0,0,0,96,68,159c0,0,68,63,179,63c0,0,118,0,228,-81c0,0,110,-80,258,-262L720,970L588,1109c0,0,-133,133,-253,133c0,0,-78,0,-127,-46c0,0,-49,-46,-49,-119c0,0,0,-69,56,-148H402l46,-76L434,822H199l65,-58V-39L228,-49Z"
id="f6_nr"
transform="scale(0.001,-0.001)"/>

<path d="M-214,860l-227,219c0,0,-73,70,-148,70c0,0,-67,0,-160,-58l-72,117c0,0,83,71,176,71c0,0,120,0,232,-124L-221,940l-102,294c0,0,-64,179,-189,179c0,0,-60,0,-133,-33l-60,125c0,0,84,47,164,47c0,0,200,0,281,-276L-150,901l-23,-15l-41,-26Z"
id="f6_d5"
transform="scale(0.001,-0.001)"/>

<path d="M527,-71L52,414l34,92H277c0,0,12,32,12,72V822H0l-45,76l14,31H940l45,-76L972,822H350l66,-55V570c0,0,146,98,247,98c0,0,95,0,167,-73c0,0,71,-72,71,-167c0,0,0,-77,-53,-142c0,0,-54,-64,-159,-136l-89,99c0,0,100,70,152,121c0,0,52,52,52,105c0,0,0,34,-23,60c0,0,-22,26,-72,26c0,0,-139,0,-434,-252L610,34L611,8L527,-71Z"
id="f6_n0"
transform="scale(0.001,-0.001)"/>

<path d="M252,385l310,78l22,-9c0,0,107,-43,200,-43c0,0,91,0,151,41V822H603l66,-58V585H373c0,0,-184,0,-184,-99c0,0,0,-48,63,-101ZM483,-305L295,-10c0,0,-90,22,-156,74l41,170h66L351,63c0,0,126,4,207,62c0,0,82,58,82,139c0,0,0,37,-18,71L365,266c0,0,-110,15,-197,102c0,0,-87,87,-87,176c0,0,0,69,59,117c0,0,59,48,172,48H550V822H0l-45,76l14,31H1199l46,-76l-14,-31H996l66,-58V-39l-37,-10L935,8V318c0,0,-41,-15,-78,-15c0,0,-52,0,-131,30c0,0,32,-55,32,-111c0,0,0,-109,-98,-179c0,0,-98,-69,-254,-69L599,-216L483,-305Z"
id="f6_bh"
transform="scale(0.001,-0.001)"/>

<path d="M-253,-363c0,0,-194,0,-440,288l48,52c0,0,108,-118,192,-176c0,0,83,-58,159,-58c0,0,64,0,101,36c0,0,37,37,37,85c0,0,0,68,-65,91L-327,-152l-83,89c0,0,54,86,153,86c0,0,81,0,140,-61c0,0,58,-62,58,-146c0,0,0,-78,-55,-128c0,0,-55,-51,-139,-51Z"
id="f6_oe"
transform="scale(0.001,-0.001)"/>

<path d="M67,0L58,52c0,0,105,40,209,64V851L81,762L38,831l294,193l71,-39V99L591,73L582,0Z"
id="f6_p"
transform="scale(0.001,-0.001)"/>

<path d="M471,-26c0,0,-259,0,-448,396l70,43C93,413,240,98,442,98c0,0,79,0,132,46c0,0,54,45,54,120c0,0,0,61,-38,116c0,0,-38,54,-107,72L322,370L255,492c0,0,66,53,156,56c0,0,128,51,128,153c0,0,0,77,-65,121H0l-45,76l14,31H1123l46,-76l-14,-31H578c0,0,76,-66,76,-157c0,0,0,-95,-87,-156c0,0,52,-29,84,-64c0,0,131,134,243,134c0,0,93,0,158,-70c0,0,65,-71,65,-167c0,0,0,-142,-177,-272L851,170c0,0,173,129,173,230c0,0,0,34,-23,57c0,0,-23,23,-63,23c0,0,-104,0,-215,-141c0,0,23,-55,23,-111c0,0,0,-109,-78,-182c0,0,-78,-72,-197,-72Z"
id="f6_aq"
transform="scale(0.001,-0.001)"/>

<path d="M-233,1021c0,0,-84,0,-168,55c0,0,-84,56,-146,162l51,50c0,0,95,-162,219,-162c0,0,125,0,160,157L-7,1234c0,0,-21,-103,-81,-158c0,0,-61,-55,-145,-55Zm-41,201c0,0,-66,25,-102,80c0,0,32,68,82,101c0,0,55,-20,99,-80c0,0,-26,-67,-79,-101Z"
id="f6_di"
transform="scale(0.001,-0.001)"/>

<path d="M108,-433L-59,-214c0,0,-99,119,-191,119c0,0,-59,0,-96,-35c0,0,-36,-34,-36,-81c0,0,0,-49,42,-83l152,95l64,-116c0,0,-71,-58,-148,-58c0,0,-80,0,-146,63c0,0,-65,64,-65,144c0,0,0,77,62,131c0,0,61,53,142,53c0,0,138,0,296,-205L165,-393l-57,-40Z"
id="f6_cx"
transform="scale(0.001,-0.001)"/>

<path d="M1001,240c0,0,76,0,153,35c0,0,77,35,120,99V500c0,0,-117,73,-221,73c0,0,-98,0,-152,-54c0,0,-53,-53,-53,-128c0,0,0,-73,49,-125c0,0,38,-26,104,-26ZM1364,-49L1274,8V199c0,0,-73,-65,-179,-65c0,0,-74,0,-155,37c0,0,-81,37,-138,98c0,0,-56,-69,-135,-108c0,0,-79,-39,-149,-39c0,0,-115,0,-225,93c0,0,-111,94,-111,193c0,0,0,79,61,137C243,545,66,672,66,791c0,0,0,75,52,124c0,0,53,49,134,49c0,0,164,0,260,-237L451,694c0,0,-55,114,-119,163l-31,5c0,0,-44,0,-77,-32c0,0,-33,-31,-33,-78c0,0,0,-86,113,-165c0,0,60,27,133,27l67,-4l75,-89L564,490l-51,7H493c0,0,-90,0,-142,-43c0,0,-52,-43,-52,-104c0,0,0,-60,51,-109c0,0,37,-13,81,-13c0,0,84,0,169,42c0,0,86,43,133,120l-7,61c0,0,0,102,78,171c0,0,78,69,189,69c0,0,38,0,75,-10l206,-99V822H567l-46,76l14,31H1538l46,-76l-13,-31H1335l66,-58V-39l-37,-10Z"
id="f6_fa"
transform="scale(0.001,-0.001)"/>

<path d="M368,344c0,0,90,0,155,73V822H150l67,-58V438c0,0,46,-94,151,-94ZM613,-49L523,8V251c0,0,-48,-28,-103,-28c0,0,-122,0,-227,112C193,335,89,448,89,590V822H0l-45,76l14,31H1150l46,-76l-13,-31H584l65,-58V533c0,0,101,95,211,95c0,0,98,0,170,-79c0,0,73,-78,73,-185c0,0,0,-179,-225,-330L785,139c0,0,219,153,219,269c0,0,0,43,-26,75c0,0,-26,32,-80,32c0,0,-120,0,-249,-159V-39L613,-49Z"
id="f6_bw"
transform="scale(0.001,-0.001)"/>

<path d="M959,-49L869,8V367c0,0,-32,-13,-64,-13c0,0,-50,0,-110,25c0,0,23,-52,23,-109c0,0,0,-103,-70,-170c0,0,-70,-66,-182,-66c0,0,-110,0,-222,82c0,0,-111,83,-213,293l68,42c0,0,72,-155,152,-231c0,0,81,-76,178,-76c0,0,83,0,131,49c0,0,48,48,48,117c0,0,0,54,-30,100c0,0,-31,47,-91,65L325,391L257,512c0,0,68,53,156,56c0,0,140,72,140,179c0,0,0,69,-52,99c0,0,-4,1,-11,1c-19,0,-66,-4,-123,-30c0,0,-78,-35,-142,-96L150,823c0,0,119,117,253,117c0,0,98,0,175,-71c0,0,77,-70,77,-159c0,0,0,-103,-94,-180c0,0,39,-23,73,-56c0,0,52,-22,109,-22c0,0,77,0,126,38V822H727l-46,76l14,31h558l-153,215c0,0,-70,92,-157,92c0,0,-69,0,-159,-58l-72,118c0,0,89,73,180,73c0,0,141,0,258,-170L1338,929h197l46,-76l-13,-31H1332l66,-58V-39l-37,-10L1271,8V822H930l66,-58V-39L959,-49Z"
id="f6_b1"
transform="scale(0.001,-0.001)"/>

<path d="M900,298c0,0,32,73,32,159c0,0,0,110,-38,160c0,0,-40,31,-81,31c0,0,-48,0,-80,-35c0,0,-33,-35,-33,-89c0,0,0,-118,200,-226ZM588,-60c0,0,-154,0,-274,93c0,0,-120,94,-120,207c0,0,0,50,28,92C222,332,61,440,61,552c0,0,0,71,56,122c0,0,56,50,169,50H417l64,-98L463,600H333c0,0,-157,-1,-157,-99c0,0,0,-59,88,-124c0,0,68,52,164,52c0,0,38,0,79,-9l71,-88L558,299c0,0,-46,10,-81,10c0,0,-75,0,-116,-36c0,0,-40,-36,-40,-88c0,0,0,-78,73,-130c0,0,54,-17,109,-17c0,0,114,0,211,54c0,0,97,53,154,145c0,0,-156,96,-223,173c0,0,-67,77,-67,155c0,0,0,72,48,124c0,0,48,52,126,55v78H0l-45,76l14,31H1123l46,-76l-14,-31H805l66,-58V717c0,0,76,-40,124,-124c0,0,47,-84,47,-193c0,0,0,-188,-133,-324C909,76,776,-60,588,-60Z"
id="f6_bf"
transform="scale(0.001,-0.001)"/>

<path d="M95,0L67,98L422,497c0,0,130,154,130,259c0,0,0,63,-40,111c0,0,-40,48,-121,48c0,0,-75,0,-171,-29L193,695l-88,2c0,0,-13,82,-13,165l1,65c0,0,159,97,315,97c0,0,122,0,207,-78c0,0,85,-77,85,-193c0,0,0,-67,-34,-133c0,0,-33,-67,-165,-217L237,121l4,-14l373,21l49,136l83,-12C746,252,732,99,704,0Z"
id="f6_q"
transform="scale(0.001,-0.001)"/>

<path d="M228,-49L138,8V822H0l-45,76l14,31H134c0,0,-91,93,-91,202c0,0,0,105,85,170c0,0,86,65,236,65c0,0,340,0,742,-350l-50,-46c0,0,-182,135,-340,208c0,0,-158,73,-302,73c0,0,-113,0,-183,-48c0,0,-69,-48,-69,-132c0,0,0,-63,53,-142H402l46,-76L434,822H199l65,-58V-39L228,-49Z"
id="f6_nt"
transform="scale(0.001,-0.001)"/>

<path d="M449,79c0,0,103,0,168,61c0,0,66,60,66,149c0,0,0,93,-84,186H420c0,0,-107,0,-164,-50c0,0,-57,-51,-57,-126c0,0,0,-108,99,-184c0,0,81,-36,151,-36Zm67,-96c0,0,-168,0,-301,109C215,92,81,202,81,350c0,0,0,114,83,182c0,0,84,68,229,68H507V822H0l-45,76l14,31H883l46,-76L915,822H568l66,-58V532c0,0,87,-64,130,-144c0,0,43,-79,43,-157c0,0,0,-109,-81,-179c0,0,-81,-69,-210,-69Z"
id="f6_bl"
transform="scale(0.001,-0.001)"/>

<path d="M483,-305L295,-10c0,0,-90,22,-156,74l41,170h66L351,63c0,0,126,4,207,62c0,0,82,58,82,139c0,0,0,37,-18,71L365,266c0,0,-110,15,-197,102c0,0,-87,87,-87,176c0,0,0,69,59,117c0,0,59,48,172,48H550V822H0l-45,76l14,31H550c0,0,-142,122,-142,255c0,0,0,78,52,133c0,0,52,55,140,55c0,0,98,0,176,-64l-23,-69c0,0,-53,32,-104,32c0,0,-56,0,-94,-36c0,0,-39,-36,-39,-95c0,0,0,-109,112,-211H822l46,-76L854,822H603l66,-58V585H373c0,0,-184,0,-184,-99c0,0,0,-48,63,-101l310,78c0,0,86,-34,141,-99c0,0,55,-65,55,-142c0,0,0,-109,-98,-179c0,0,-98,-69,-254,-69L599,-216L483,-305Z"
id="f6_ao"
transform="scale(0.001,-0.001)"/>

<path d="M570,78c0,0,66,17,105,54c0,0,40,38,40,88c0,0,0,40,-23,66c0,0,-23,26,-58,26c0,0,-40,0,-71,-33c0,0,-31,-33,-31,-90c0,0,0,-55,38,-111ZM538,-45c0,0,-182,0,-322,128C216,83,76,211,76,368c0,0,0,122,91,201c0,0,90,79,238,79H564V822H0l-45,76l14,31H853l45,-76L885,822H617l66,-58V521H420c0,0,-99,0,-162,-57c0,0,-62,-58,-62,-146c0,0,0,-121,105,-208c0,0,118,-41,188,-41l29,1l-69,46c0,0,-36,55,-36,115c0,0,0,73,48,123c0,0,49,49,123,49c0,0,87,0,151,-74c0,0,64,-74,64,-162c0,0,0,-94,-71,-153c0,0,-71,-59,-190,-59Z"
id="f6_bn"
transform="scale(0.001,-0.001)"/>

<path d="M527,-71L52,414l34,92H277c0,0,12,32,12,72V822H0l-45,76l14,31H654l46,-76L686,822H350l66,-55V564c0,0,0,-43,-25,-89H782L798,370H315L264,316L610,34L611,8L527,-71Z"
id="f6_m1"
transform="scale(0.001,-0.001)"/>

<path d="M387,-28c0,0,-158,0,-295,71l27,137c0,0,168,-84,329,-84c0,0,47,0,85,9c0,0,57,62,57,141c0,0,0,82,-66,140c0,0,-66,57,-188,57L228,438l-3,104h26c0,0,145,5,212,67c0,0,67,62,67,146c0,0,0,75,-51,123c0,0,-51,49,-143,49c0,0,-50,0,-105,-16L203,743l-88,1c0,0,-14,83,-14,139l1,58c0,0,120,83,280,83c0,0,128,0,211,-71c0,0,82,-71,82,-177c0,0,0,-73,-45,-137c0,0,-45,-65,-132,-98c0,0,96,-22,163,-103c0,0,66,-80,66,-178c0,0,0,-126,-94,-207c0,0,-95,-81,-246,-81Z"
id="f6_r"
transform="scale(0.001,-0.001)"/>

<path d="M799,475V822H350l66,-55V564c0,0,0,-43,-25,-89ZM527,-71L52,414l34,92H277c0,0,12,32,12,72V822H0l-45,76l14,31H1063l46,-76l-14,-31H860l66,-58V-39L889,-49L799,8V370H315L264,316L610,34L611,8L527,-71Z"
id="f6_cb"
transform="scale(0.001,-0.001)"/>

<path d="M228,-49L138,8V822H0l-45,76l14,31H134c0,0,-91,93,-91,200c0,0,0,109,92,174c0,0,93,66,253,66c0,0,186,0,398,-89c0,0,212,-90,430,-264l-49,-47c0,0,-424,285,-727,285c0,0,-125,0,-201,-49c0,0,-76,-48,-76,-137c0,0,0,-67,52,-139H402l46,-76L434,822H199l65,-58V-39L228,-49Z"
id="f6_nu"
transform="scale(0.001,-0.001)"/>

<path d="M-91,1001c0,0,-27,10,-61,36c0,0,-33,26,-50,49c0,0,38,81,90,110c0,0,61,-23,107,-85c0,0,-28,-71,-86,-110ZM-214,863l-199,281c0,0,-70,92,-157,92c0,0,-69,0,-159,-58l-72,118c0,0,89,73,180,73c0,0,141,0,258,-170L-155,901l-59,-38Z"
id="f6_oz"
transform="scale(0.001,-0.001)"/>

<path d="M336,319c0,0,112,0,112,152V822H165l66,-58V374c0,0,33,-55,105,-55ZM396,218c0,0,-93,0,-192,86c0,0,-99,86,-100,182V822H0l-45,76l14,31H645l46,-76L677,822H509l65,-58V455c0,0,0,-134,-51,-185c0,0,-52,-52,-127,-52Z"
id="f6_lc"
transform="scale(0.001,-0.001)"/>

<path d="M749,-49L658,8V324L402,157L472,47L429,-17c0,0,-50,9,-117,40c0,0,-66,32,-109,69l-4,84L603,429c0,0,-85,116,-249,116l-93,-6V371L188,342c0,0,-90,84,-153,243l54,72c0,0,136,20,203,20c0,0,107,0,195,-45c0,0,87,-45,171,-161V822H0l-45,76l14,31H923l46,-76L955,822H720l65,-58V-39L749,-49Z"
id="f6_jj"
transform="scale(0.001,-0.001)"/>

<path d="M188,365l310,9V738l18,139L188,365ZM338,0L328,52l170,55V267H73L38,354l478,670l118,-16V377l176,5l1,-76L768,267H634V90L761,73L752,0Z"
id="f6_s"
transform="scale(0.001,-0.001)"/>

<path d="M725,307c0,0,-95,0,-218,78c0,0,-123,78,-188,78c0,0,-54,0,-95,-34c0,0,-41,-34,-73,-100L93,362c0,0,38,88,101,146c0,0,63,59,148,59c0,0,90,0,214,-78c0,0,124,-79,188,-79c0,0,63,0,106,34c0,0,42,33,85,104l60,-40c0,0,-32,-66,-101,-134c0,0,-70,-67,-169,-67Z"
id="f7_4r"
transform="scale(0.001,-0.001)"/>

<path d="M225,0c0,0,2,129,51,312c0,0,48,183,139,352c0,0,91,170,193,286H72v129H780V975C780,975,676,864,573,680C573,680,470,495,414,301C414,301,374,163,363,0Z"
id="f8_r"
transform="scale(0.001,-0.001)"/>


</defs>
</svg>