<?xml version="1.0" encoding="UTF-8" standalone="no"?>
<!DOCTYPE svg PUBLIC "-//W3C//DTD SVG 1.1//EN"
"http://www.w3.org/Graphics/SVG/1.1/DTD/svg11.dtd">
<svg viewBox="0 0 641 910" version="1.1" xmlns="http://www.w3.org/2000/svg" xmlns:xlink="http://www.w3.org/1999/xlink">
<defs>
<clipPath id="c0_52"><path d="M0,909.8V0H641.7V909.8Z"/></clipPath>
<clipPath id="c1_52"><path d="M0,908.6V0H641.7V908.6Z"/></clipPath>
<style type="text/css"><![CDATA[
.g0_52{
fill: #FFFFFF;
}
.g1_52{
}
]]></style>
</defs>
<path d="M0,0H641.7V909.8H0V0Z" class="g0_52"/>
<path d="M0,0H641.7V909.8H0V0Z" class="g0_52"/>
<g clip-path="url(#c0_52)">
<path d="M0,-40940.5H641.7V65505H0V-40940.5Z" class="g0_52"/>
</g>
<path d="M0,0H641.7V908.6H0V0Z" class="g0_52"/>
<path d="M19.5,60.7H602.7v1.2H19.5V60.7Z" class="g1_52"/>
<g clip-path="url(#c1_52)">
<path d="M0,61.9H641.7V909.8H0V61.9Z" class="g0_52"/>
<g fill="#000000" >
<use xlink:href="#f5_bv" transform="matrix(14,0,0,14,192.8,96.3)" />
<use xlink:href="#f5_c3" transform="matrix(14,0,0,14,205.9,96.3)" />
<use xlink:href="#f5_b9" transform="matrix(14,0,0,14,222.2,96.3)" />
<use xlink:href="#f5_oz" transform="matrix(14,0,0,14,235,96.3)" />
<use xlink:href="#f5_cc" transform="matrix(14,0,0,14,245.3,96.3)" />
<use xlink:href="#f5_cv" transform="matrix(14,0,0,14,258,96.3)" />
<use xlink:href="#f5_bv" transform="matrix(14,0,0,14,270.1,96.3)" />
<use xlink:href="#f5_c3" transform="matrix(14,0,0,14,283.3,96.3)" />
<use xlink:href="#f5_b9" transform="matrix(14,0,0,14,299.6,96.3)" />
<use xlink:href="#f5_oz" transform="matrix(14,0,0,14,312.3,96.3)" />
<use xlink:href="#f5_cc" transform="matrix(14,0,0,14,322.7,96.3)" />
<use xlink:href="#f5_bz" transform="matrix(14,0,0,14,335.3,96.3)" />
<use xlink:href="#f5_cu" transform="matrix(14,0,0,14,355.6,96.3)" />
<use xlink:href="#f5_bx" transform="matrix(14,0,0,14,362.1,96.3)" />
<use xlink:href="#f5_bf" transform="matrix(14,0,0,14,375.9,96.3)" />
<use xlink:href="#f5_ct" transform="matrix(14,0,0,14,392.7,96.3)" />
<use xlink:href="#f5_c0" transform="matrix(14,0,0,14,399.2,96.3)" />
<use xlink:href="#f5_oz" transform="matrix(14,0,0,14,413.2,96.3)" />
<use xlink:href="#f5_bb" transform="matrix(14,0,0,14,413.2,96.3)" />
<use xlink:href="#f5_d4" transform="matrix(14,0,0,14,427.4,96.3)" />
<use xlink:href="#f6_bv" transform="matrix(14,0,0,14,200.8,129.5)" />
<use xlink:href="#f6_c3" transform="matrix(14,0,0,14,212.7,129.5)" />
<use xlink:href="#f6_b9" transform="matrix(14,0,0,14,227.4,129.5)" />
<use xlink:href="#f6_oz" transform="matrix(14,0,0,14,238.5,129.5)" />
<use xlink:href="#f6_cc" transform="matrix(14,0,0,14,248.6,129.5)" />
<use xlink:href="#f6_cv" transform="matrix(14,0,0,14,260.2,129.5)" />
<use xlink:href="#f6_bv" transform="matrix(14,0,0,14,271.5,129.5)" />
<use xlink:href="#f6_c3" transform="matrix(14,0,0,14,283.3,129.5)" />
<use xlink:href="#f6_b9" transform="matrix(14,0,0,14,298,129.5)" />
<use xlink:href="#f6_oz" transform="matrix(14,0,0,14,309.2,129.5)" />
<use xlink:href="#f6_cc" transform="matrix(14,0,0,14,319.2,129.5)" />
<use xlink:href="#f6_bz" transform="matrix(14,0,0,14,330.8,129.5)" />
<use xlink:href="#f6_cu" transform="matrix(14,0,0,14,349.8,129.5)" />
<use xlink:href="#f6_bx" transform="matrix(14,0,0,14,355.4,129.5)" />
<use xlink:href="#f6_bf" transform="matrix(14,0,0,14,367.7,129.5)" />
<use xlink:href="#f6_ct" transform="matrix(14,0,0,14,383.4,129.5)" />
<use xlink:href="#f6_c0" transform="matrix(14,0,0,14,389,129.5)" />
<use xlink:href="#f6_oz" transform="matrix(14,0,0,14,401.7,129.5)" />
<use xlink:href="#f6_bb" transform="matrix(14,0,0,14,401.6,129.5)" />
<use xlink:href="#f6_d4" transform="matrix(14,0,0,14,414.3,129.5)" />
<use xlink:href="#f6_k" transform="matrix(14,0,0,14,414.2,129.5)" />
<use xlink:href="#f6_nu" transform="matrix(14,0,0,14,185.9,162.7)" />
<use xlink:href="#f6_bg" transform="matrix(14,0,0,14,191.6,162.7)" />
<use xlink:href="#f6_cb" transform="matrix(14,0,0,14,205.8,162.7)" />
<use xlink:href="#f6_cu" transform="matrix(14,0,0,14,226.4,162.7)" />
<use xlink:href="#f6_br" transform="matrix(14,0,0,14,232,162.7)" />
<use xlink:href="#f6_bt" transform="matrix(14,0,0,14,243.6,162.7)" />
<use xlink:href="#f6_bz" transform="matrix(14,0,0,14,261,162.7)" />
<use xlink:href="#f6_d4" transform="matrix(14,0,0,14,274.5,162.7)" />
<use xlink:href="#f6_c1" transform="matrix(14,0,0,14,274.4,162.7)" />
<use xlink:href="#f6_d4" transform="matrix(14,0,0,14,282.3,162.7)" />
<use xlink:href="#f6_e6" transform="matrix(14,0,0,14,288.4,162.7)" />
<use xlink:href="#f6_by" transform="matrix(14,0,0,14,300.5,162.7)" />
<use xlink:href="#f6_cw" transform="matrix(14,0,0,14,315,162.6)" />
<use xlink:href="#f6_c7" transform="matrix(14,0,0,14,314.4,162.7)" />
<use xlink:href="#f6_c1" transform="matrix(14,0,0,14,326.5,162.7)" />
<use xlink:href="#f6_bc" transform="matrix(14,0,0,14,340.6,162.7)" />
<use xlink:href="#f6_c1" transform="matrix(14,0,0,14,354.5,162.7)" />
<use xlink:href="#f6_am" transform="matrix(14,0,0,14,368.5,162.7)" />
<use xlink:href="#f6_ax" transform="matrix(14,0,0,14,390,162.7)" />
<use xlink:href="#f6_di" transform="matrix(14,0,0,14,399.9,163.1)" />
<use xlink:href="#f6_bb" transform="matrix(14,0,0,14,401.9,162.7)" />
<use xlink:href="#f6_d4" transform="matrix(14,0,0,14,414.6,162.7)" />
<use xlink:href="#f6_8l" transform="matrix(14,0,0,14,414.5,162.7)" />
<use xlink:href="#f6_cc" transform="matrix(14,0,0,14,167.6,195.9)" />
<use xlink:href="#f6_bz" transform="matrix(14,0,0,14,179.2,195.9)" />
<use xlink:href="#f6_bp" transform="matrix(14,0,0,14,198.2,195.9)" />
<use xlink:href="#f6_d8" transform="matrix(14,0,0,14,210.5,195.9)" />
<use xlink:href="#f6_cc" transform="matrix(14,0,0,14,221.8,195.9)" />
<use xlink:href="#f6_d5" transform="matrix(14,0,0,14,233.8,195.9)" />
<use xlink:href="#f6_e6" transform="matrix(14,0,0,14,239.1,195.9)" />
<use xlink:href="#f6_by" transform="matrix(14,0,0,14,251.2,195.9)" />
<use xlink:href="#f6_cw" transform="matrix(14,0,0,14,265.7,195.8)" />
<use xlink:href="#f6_c7" transform="matrix(14,0,0,14,265.1,195.9)" />
<use xlink:href="#f6_c1" transform="matrix(14,0,0,14,277.2,195.9)" />
<use xlink:href="#f6_b9" transform="matrix(14,0,0,14,291.2,195.9)" />
<use xlink:href="#f6_d4" transform="matrix(14,0,0,14,302.4,195.9)" />
<use xlink:href="#f6_bg" transform="matrix(14,0,0,14,312.4,195.9)" />
<use xlink:href="#f6_jl" transform="matrix(14,0,0,14,326.7,195.9)" />
<use xlink:href="#f6_d8" transform="matrix(14,0,0,14,346.8,195.9)" />
<use xlink:href="#f6_cb" transform="matrix(14,0,0,14,358.1,195.9)" />
<use xlink:href="#f6_d4" transform="matrix(14,0,0,14,373.1,195.9)" />
<use xlink:href="#f6_br" transform="matrix(14,0,0,14,378.7,195.9)" />
<use xlink:href="#f6_ob" transform="matrix(14,0,0,14,390.3,195.9)" />
<use xlink:href="#f6_c7" transform="matrix(14,0,0,14,396,195.9)" />
<use xlink:href="#f6_ct" transform="matrix(14,0,0,14,408,195.9)" />
<use xlink:href="#f6_bt" transform="matrix(14,0,0,14,413.7,195.9)" />
<use xlink:href="#f6_d4" transform="matrix(14,0,0,14,425.5,195.9)" />
<use xlink:href="#f6_g" transform="matrix(14,0,0,14,431,195.9)" />
<use xlink:href="#f6_n8" transform="matrix(14,0,0,14,436.9,195.9)" />
<use xlink:href="#f6_h" transform="matrix(14,0,0,14,447.3,195.9)" />
<use xlink:href="#f6_bz" transform="matrix(14,0,0,14,109.2,221.1)" />
<use xlink:href="#f6_cv" transform="matrix(14,0,0,14,122.5,221.1)" />
<use xlink:href="#f6_bl" transform="matrix(14,0,0,14,128.1,221.1)" />
<use xlink:href="#f6_d4" transform="matrix(14,0,0,14,139.1,221.1)" />
<use xlink:href="#f6_bz" transform="matrix(14,0,0,14,146.1,221.1)" />
<use xlink:href="#f6_cv" transform="matrix(14,0,0,14,159.5,221.1)" />
<use xlink:href="#f6_bl" transform="matrix(14,0,0,14,165.1,221.1)" />
<use xlink:href="#f6_d4" transform="matrix(14,0,0,14,176.1,221.1)" />
<use xlink:href="#f6_by" transform="matrix(14,0,0,14,183.1,221.1)" />
<use xlink:href="#f6_bg" transform="matrix(14,0,0,14,197.1,221.1)" />
<use xlink:href="#f6_bt" transform="matrix(14,0,0,14,211.3,221.1)" />
<use xlink:href="#f6_cb" transform="matrix(14,0,0,14,228.7,221.1)" />
<use xlink:href="#f6_cw" transform="matrix(14,0,0,14,244.1,221.1)" />
<use xlink:href="#f6_bt" transform="matrix(14,0,0,14,243.6,221.1)" />
<use xlink:href="#f6_ct" transform="matrix(14,0,0,14,255.3,221.1)" />
<use xlink:href="#f6_ax" transform="matrix(14,0,0,14,260.9,221.1)" />
<use xlink:href="#f6_dj" transform="matrix(14,0,0,14,267.1,221.6)" />
<use xlink:href="#f6_bb" transform="matrix(14,0,0,14,272.8,221.1)" />
<use xlink:href="#f6_d4" transform="matrix(14,0,0,14,285.5,221.1)" />
<use xlink:href="#f6_8l" transform="matrix(14,0,0,14,285.4,221.1)" />
<use xlink:href="#f6_nu" transform="matrix(14,0,0,14,310.9,221.1)" />
<use xlink:href="#f6_bg" transform="matrix(14,0,0,14,316.5,221.1)" />
<use xlink:href="#f6_cb" transform="matrix(14,0,0,14,330.8,221.1)" />
<use xlink:href="#f6_cu" transform="matrix(14,0,0,14,351.3,221.1)" />
<use xlink:href="#f6_br" transform="matrix(14,0,0,14,356.9,221.1)" />
<use xlink:href="#f6_bt" transform="matrix(14,0,0,14,368.6,221.1)" />
<use xlink:href="#f6_e6" transform="matrix(14,0,0,14,386,221.1)" />
<use xlink:href="#f6_by" transform="matrix(14,0,0,14,398.1,221.1)" />
<use xlink:href="#f6_cw" transform="matrix(14,0,0,14,412.6,221)" />
<use xlink:href="#f6_c7" transform="matrix(14,0,0,14,412,221.1)" />
<use xlink:href="#f6_c1" transform="matrix(14,0,0,14,424.1,221.1)" />
<use xlink:href="#f6_bc" transform="matrix(14,0,0,14,438.1,221.1)" />
<use xlink:href="#f6_c1" transform="matrix(14,0,0,14,452,221.1)" />
<use xlink:href="#f6_am" transform="matrix(14,0,0,14,466.1,221.1)" />
<use xlink:href="#f6_ax" transform="matrix(14,0,0,14,487.6,221.1)" />
<use xlink:href="#f6_di" transform="matrix(14,0,0,14,497.5,221.6)" />
<use xlink:href="#f6_bb" transform="matrix(14,0,0,14,499.4,221.1)" />
<use xlink:href="#f6_d4" transform="matrix(14,0,0,14,512.2,221.1)" />
<use xlink:href="#f6_bc" transform="matrix(14,0,0,14,160.7,271.6)" />
<use xlink:href="#f6_c1" transform="matrix(14,0,0,14,174.6,271.6)" />
<use xlink:href="#f6_b9" transform="matrix(14,0,0,14,188.7,271.6)" />
<use xlink:href="#f6_ct" transform="matrix(14,0,0,14,204.2,271.6)" />
<use xlink:href="#f6_b9" transform="matrix(14,0,0,14,215.4,271.6)" />
<use xlink:href="#f6_d8" transform="matrix(14,0,0,14,230.9,271.6)" />
<use xlink:href="#f6_bt" transform="matrix(14,0,0,14,236.6,271.6)" />
<use xlink:href="#f6_ct" transform="matrix(14,0,0,14,248.3,271.6)" />
<use xlink:href="#f6_b9" transform="matrix(14,0,0,14,259.6,271.6)" />
<use xlink:href="#f6_d8" transform="matrix(14,0,0,14,275.1,271.6)" />
<use xlink:href="#f6_bt" transform="matrix(14,0,0,14,280.7,271.6)" />
<use xlink:href="#f6_ct" transform="matrix(14,0,0,14,292.4,271.6)" />
<use xlink:href="#f6_k" transform="matrix(14,0,0,14,298,271.6)" />
<use xlink:href="#f6_bz" transform="matrix(14,0,0,14,308.9,271.6)" />
<use xlink:href="#f6_p3" transform="matrix(14,0,0,14,322.4,271.6)" />
<use xlink:href="#f6_bt" transform="matrix(14,0,0,14,322.2,271.6)" />
<use xlink:href="#f6_d4" transform="matrix(14,0,0,14,334.1,271.6)" />
<use xlink:href="#f6_bw" transform="matrix(14,0,0,14,339.6,271.6)" />
<use xlink:href="#f6_cx" transform="matrix(14,0,0,14,350.6,271.5)" />
<use xlink:href="#f6_c3" transform="matrix(14,0,0,14,355.7,271.6)" />
<use xlink:href="#f6_d8" transform="matrix(14,0,0,14,370.4,271.6)" />
<use xlink:href="#f6_dj" transform="matrix(14,0,0,14,374.7,272.4)" />
<use xlink:href="#f6_cb" transform="matrix(14,0,0,14,381.7,271.6)" />
<use xlink:href="#f6_d4" transform="matrix(14,0,0,14,396.7,271.6)" />
<use xlink:href="#f6_cb" transform="matrix(14,0,0,14,402.3,271.6)" />
<use xlink:href="#f6_bg" transform="matrix(14,0,0,14,417.1,271.6)" />
<use xlink:href="#f6_ct" transform="matrix(14,0,0,14,431.4,271.6)" />
<use xlink:href="#f6_c0" transform="matrix(14,0,0,14,437,271.6)" />
<use xlink:href="#f6_ct" transform="matrix(14,0,0,14,449.6,271.6)" />
<use xlink:href="#f6_k" transform="matrix(14,0,0,14,455.2,271.6)" />
<use xlink:href="#f6_bp" transform="matrix(14,0,0,14,156.1,304.8)" />
<use xlink:href="#f6_d8" transform="matrix(14,0,0,14,168.5,304.8)" />
<use xlink:href="#f6_c1" transform="matrix(14,0,0,14,174.1,304.8)" />
<use xlink:href="#f6_bo" transform="matrix(14,0,0,14,182.5,304.8)" />
<use xlink:href="#f6_cc" transform="matrix(14,0,0,14,202.5,304.8)" />
<use xlink:href="#f6_ct" transform="matrix(14,0,0,14,214.1,304.8)" />
<use xlink:href="#f6_c1" transform="matrix(14,0,0,14,219.7,304.8)" />
<use xlink:href="#f6_bx" transform="matrix(14,0,0,14,233.8,304.8)" />
<use xlink:href="#f6_dj" transform="matrix(14,0,0,14,243.2,305.2)" />
<use xlink:href="#f6_bs" transform="matrix(14,0,0,14,246,304.8)" />
<use xlink:href="#f6_ct" transform="matrix(14,0,0,14,260.1,304.8)" />
<use xlink:href="#f6_ao" transform="matrix(14,0,0,14,265.7,304.8)" />
<use xlink:href="#f6_k" transform="matrix(14,0,0,14,277.2,304.8)" />
<use xlink:href="#f6_bc" transform="matrix(14,0,0,14,288.1,304.8)" />
<use xlink:href="#f6_cv" transform="matrix(14,0,0,14,301.9,304.8)" />
<use xlink:href="#f6_b9" transform="matrix(14,0,0,14,313.2,304.8)" />
<use xlink:href="#f6_ct" transform="matrix(14,0,0,14,328.7,304.8)" />
<use xlink:href="#f6_cu" transform="matrix(14,0,0,14,340,304.8)" />
<use xlink:href="#f6_br" transform="matrix(14,0,0,14,345.6,304.8)" />
<use xlink:href="#f6_c0" transform="matrix(14,0,0,14,357.3,304.8)" />
<use xlink:href="#f6_ct" transform="matrix(14,0,0,14,369.9,304.8)" />
<use xlink:href="#f6_by" transform="matrix(14,0,0,14,381.2,304.8)" />
<use xlink:href="#f6_cv" transform="matrix(14,0,0,14,395.1,304.8)" />
<use xlink:href="#f6_bg" transform="matrix(14,0,0,14,406.4,304.8)" />
<use xlink:href="#f6_c3" transform="matrix(14,0,0,14,420.7,304.8)" />
<use xlink:href="#f6_ct" transform="matrix(14,0,0,14,435.4,304.8)" />
<use xlink:href="#f6_c0" transform="matrix(14,0,0,14,441,304.8)" />
<use xlink:href="#f6_ct" transform="matrix(14,0,0,14,453.5,304.8)" />
<use xlink:href="#f6_k" transform="matrix(14,0,0,14,459.2,304.8)" />
<use xlink:href="#f6_ba" transform="matrix(14,0,0,14,199.7,338)" />
<use xlink:href="#f6_cw" transform="matrix(14,0,0,14,216.9,338.9)" />
<use xlink:href="#f6_c8" transform="matrix(14,0,0,14,216.4,338)" />
<use xlink:href="#f6_bx" transform="matrix(14,0,0,14,232.3,338)" />
<use xlink:href="#f6_cx" transform="matrix(14,0,0,14,244.5,337.9)" />
<use xlink:href="#f6_cc" transform="matrix(14,0,0,14,250.2,338)" />
<use xlink:href="#f6_cv" transform="matrix(14,0,0,14,261.8,338)" />
<use xlink:href="#f6_ba" transform="matrix(14,0,0,14,273.1,338)" />
<use xlink:href="#f6_cw" transform="matrix(14,0,0,14,290.4,338.9)" />
<use xlink:href="#f6_c8" transform="matrix(14,0,0,14,289.8,338)" />
<use xlink:href="#f6_bx" transform="matrix(14,0,0,14,305.7,338)" />
<use xlink:href="#f6_cx" transform="matrix(14,0,0,14,317.9,337.9)" />
<use xlink:href="#f6_cc" transform="matrix(14,0,0,14,323.6,338)" />
<use xlink:href="#f6_bz" transform="matrix(14,0,0,14,335.3,338)" />
<use xlink:href="#f6_bw" transform="matrix(14,0,0,14,354.3,338)" />
<use xlink:href="#f6_d5" transform="matrix(14,0,0,14,365.5,338)" />
<use xlink:href="#f6_c3" transform="matrix(14,0,0,14,370.4,338)" />
<use xlink:href="#f6_ct" transform="matrix(14,0,0,14,385.1,338)" />
<use xlink:href="#f6_ax" transform="matrix(14,0,0,14,390.7,338)" />
<use xlink:href="#f6_dj" transform="matrix(14,0,0,14,396.9,338.4)" />
<use xlink:href="#f6_bb" transform="matrix(14,0,0,14,402.5,338)" />
<use xlink:href="#f6_d4" transform="matrix(14,0,0,14,415.3,338)" />
<use xlink:href="#f6_k" transform="matrix(14,0,0,14,415.2,338)" />
<use xlink:href="#f6_nu" transform="matrix(14,0,0,14,191.7,371.3)" />
<use xlink:href="#f6_bg" transform="matrix(14,0,0,14,197.3,371.3)" />
<use xlink:href="#f6_cb" transform="matrix(14,0,0,14,211.5,371.3)" />
<use xlink:href="#f6_cu" transform="matrix(14,0,0,14,232.1,371.3)" />
<use xlink:href="#f6_br" transform="matrix(14,0,0,14,237.7,371.3)" />
<use xlink:href="#f6_bt" transform="matrix(14,0,0,14,249.4,371.3)" />
<use xlink:href="#f6_bz" transform="matrix(14,0,0,14,266.8,371.3)" />
<use xlink:href="#f6_d4" transform="matrix(14,0,0,14,280.2,371.3)" />
<use xlink:href="#f6_c1" transform="matrix(14,0,0,14,280.1,371.3)" />
<use xlink:href="#f6_d4" transform="matrix(14,0,0,14,288.1,371.3)" />
<use xlink:href="#f6_e6" transform="matrix(14,0,0,14,294.1,371.3)" />
<use xlink:href="#f6_by" transform="matrix(14,0,0,14,306.2,371.3)" />
<use xlink:href="#f6_cw" transform="matrix(14,0,0,14,320.7,371.1)" />
<use xlink:href="#f6_c7" transform="matrix(14,0,0,14,320.2,371.3)" />
<use xlink:href="#f6_c1" transform="matrix(14,0,0,14,332.3,371.3)" />
<use xlink:href="#f6_bc" transform="matrix(14,0,0,14,346.3,371.3)" />
<use xlink:href="#f6_c1" transform="matrix(14,0,0,14,360.2,371.3)" />
<use xlink:href="#f6_am" transform="matrix(14,0,0,14,374.2,371.3)" />
<use xlink:href="#f6_ax" transform="matrix(14,0,0,14,395.7,371.3)" />
<use xlink:href="#f6_di" transform="matrix(14,0,0,14,405.6,371.7)" />
<use xlink:href="#f6_bb" transform="matrix(14,0,0,14,407.6,371.3)" />
<use xlink:href="#f6_d4" transform="matrix(14,0,0,14,420.3,371.3)" />
<use xlink:href="#f6_pc" transform="matrix(14,0,0,14,420.2,371.3)" />
<use xlink:href="#f6_pc" transform="matrix(14,0,0,14,424.5,371.3)" />
<use xlink:href="#f6_mw" transform="matrix(14,0,0,14,165.3,429.7)" />
<use xlink:href="#f6_nl" transform="matrix(14,0,0,14,177.1,429.7)" />
<use xlink:href="#f6_bs" transform="matrix(14,0,0,14,177.1,429.7)" />
<use xlink:href="#f6_b8" transform="matrix(14,0,0,14,196.7,429.7)" />
<use xlink:href="#f6_c1" transform="matrix(14,0,0,14,218.2,429.7)" />
<use xlink:href="#f6_bg" transform="matrix(14,0,0,14,232.3,429.7)" />
<use xlink:href="#f6_c3" transform="matrix(14,0,0,14,246.5,429.7)" />
<use xlink:href="#f6_cb" transform="matrix(14,0,0,14,266.9,429.7)" />
<use xlink:href="#f6_d4" transform="matrix(14,0,0,14,281.9,429.7)" />
<use xlink:href="#f6_k" transform="matrix(14,0,0,14,281.8,429.7)" />
<use xlink:href="#f6_br" transform="matrix(14,0,0,14,292.7,429.7)" />
<use xlink:href="#f6_ct" transform="matrix(14,0,0,14,304.3,429.7)" />
<use xlink:href="#f6_br" transform="matrix(14,0,0,14,310,429.7)" />
<use xlink:href="#f6_ct" transform="matrix(14,0,0,14,321.6,429.7)" />
<use xlink:href="#f6_b9" transform="matrix(14,0,0,14,332.9,429.7)" />
<use xlink:href="#f6_d4" transform="matrix(14,0,0,14,344.1,429.7)" />
<use xlink:href="#f6_be" transform="matrix(14,0,0,14,354.1,429.7)" />
<use xlink:href="#f6_c1" transform="matrix(14,0,0,14,368.1,429.7)" />
<use xlink:href="#f6_bo" transform="matrix(14,0,0,14,376.4,429.7)" />
<use xlink:href="#f6_bv" transform="matrix(14,0,0,14,396.5,429.7)" />
<use xlink:href="#f6_c1" transform="matrix(14,0,0,14,408.3,429.7)" />
<use xlink:href="#f6_c7" transform="matrix(14,0,0,14,416.7,429.7)" />
<use xlink:href="#f6_ct" transform="matrix(14,0,0,14,428.8,429.7)" />
<use xlink:href="#f6_aq" transform="matrix(14,0,0,14,434.4,429.7)" />
<use xlink:href="#f6_k" transform="matrix(14,0,0,14,450.1,429.7)" />
<use xlink:href="#f6_bw" transform="matrix(14,0,0,14,174.5,462.9)" />
<use xlink:href="#f6_cx" transform="matrix(14,0,0,14,185.4,462.8)" />
<use xlink:href="#f6_c3" transform="matrix(14,0,0,14,190.6,462.9)" />
<use xlink:href="#f6_d8" transform="matrix(14,0,0,14,205.3,462.9)" />
<use xlink:href="#f6_dj" transform="matrix(14,0,0,14,209.6,463.8)" />
<use xlink:href="#f6_cb" transform="matrix(14,0,0,14,216.6,462.9)" />
<use xlink:href="#f6_d4" transform="matrix(14,0,0,14,231.6,462.9)" />
<use xlink:href="#f6_k" transform="matrix(14,0,0,14,231.4,462.9)" />
<use xlink:href="#f6_bz" transform="matrix(14,0,0,14,242.3,462.9)" />
<use xlink:href="#f6_p3" transform="matrix(14,0,0,14,255.8,462.9)" />
<use xlink:href="#f6_by" transform="matrix(14,0,0,14,261.3,462.9)" />
<use xlink:href="#f6_d5" transform="matrix(14,0,0,14,275.4,462.9)" />
<use xlink:href="#f6_n0" transform="matrix(14,0,0,14,275.3,462.9)" />
<use xlink:href="#f6_bg" transform="matrix(14,0,0,14,288.4,462.9)" />
<use xlink:href="#f6_cv" transform="matrix(14,0,0,14,302.7,462.9)" />
<use xlink:href="#f6_b9" transform="matrix(14,0,0,14,314,462.9)" />
<use xlink:href="#f6_oc" transform="matrix(14,0,0,14,329.5,462.9)" />
<use xlink:href="#f6_al" transform="matrix(14,0,0,14,340.8,462.9)" />
<use xlink:href="#f6_di" transform="matrix(14,0,0,14,356.8,463.3)" />
<use xlink:href="#f6_nt" transform="matrix(14,0,0,14,356.6,462.9)" />
<use xlink:href="#f6_bb" transform="matrix(14,0,0,14,362.2,462.9)" />
<use xlink:href="#f6_c0" transform="matrix(14,0,0,14,374.9,462.9)" />
<use xlink:href="#f6_ct" transform="matrix(14,0,0,14,387.4,462.9)" />
<use xlink:href="#f6_c1" transform="matrix(14,0,0,14,398.7,462.9)" />
<use xlink:href="#f6_be" transform="matrix(14,0,0,14,407.1,462.9)" />
<use xlink:href="#f6_ct" transform="matrix(14,0,0,14,421.1,462.9)" />
<use xlink:href="#f6_aq" transform="matrix(14,0,0,14,426.7,462.9)" />
<use xlink:href="#f6_di" transform="matrix(14,0,0,14,437.6,463.3)" />
<use xlink:href="#f6_k" transform="matrix(14,0,0,14,442.4,462.9)" />
<use xlink:href="#f6_by" transform="matrix(14,0,0,14,210,496.1)" />
<use xlink:href="#f6_l1" transform="matrix(14,0,0,14,224,496.1)" />
<use xlink:href="#f6_bp" transform="matrix(14,0,0,14,235.8,496.1)" />
<use xlink:href="#f6_bg" transform="matrix(14,0,0,14,248.1,496.1)" />
<use xlink:href="#f6_bt" transform="matrix(14,0,0,14,262.4,496.1)" />
<use xlink:href="#f6_d8" transform="matrix(14,0,0,14,274.1,496.1)" />
<use xlink:href="#f6_dj" transform="matrix(14,0,0,14,278.4,497)" />
<use xlink:href="#f6_b9" transform="matrix(14,0,0,14,285.4,496.1)" />
<use xlink:href="#f6_d8" transform="matrix(14,0,0,14,300.9,496.1)" />
<use xlink:href="#f6_k" transform="matrix(14,0,0,14,306.5,496.1)" />
<use xlink:href="#f6_cc" transform="matrix(14,0,0,14,317.4,496.1)" />
<use xlink:href="#f6_bz" transform="matrix(14,0,0,14,329,496.1)" />
<use xlink:href="#f6_bx" transform="matrix(14,0,0,14,348,496.1)" />
<use xlink:href="#f6_cw" transform="matrix(14,0,0,14,360.8,496)" />
<use xlink:href="#f6_c3" transform="matrix(14,0,0,14,360.3,496.1)" />
<use xlink:href="#f6_ct" transform="matrix(14,0,0,14,375,496.1)" />
<use xlink:href="#f6_ax" transform="matrix(14,0,0,14,380.6,496.1)" />
<use xlink:href="#f6_di" transform="matrix(14,0,0,14,390.5,496.6)" />
<use xlink:href="#f6_bb" transform="matrix(14,0,0,14,392.5,496.1)" />
<use xlink:href="#f6_d4" transform="matrix(14,0,0,14,405.2,496.1)" />
<use xlink:href="#f6_k" transform="matrix(14,0,0,14,405.1,496.1)" />
<use xlink:href="#f6_nu" transform="matrix(14,0,0,14,191.7,529.4)" />
<use xlink:href="#f6_bg" transform="matrix(14,0,0,14,197.3,529.4)" />
<use xlink:href="#f6_cb" transform="matrix(14,0,0,14,211.5,529.4)" />
<use xlink:href="#f6_cu" transform="matrix(14,0,0,14,232.1,529.4)" />
<use xlink:href="#f6_br" transform="matrix(14,0,0,14,237.7,529.4)" />
<use xlink:href="#f6_bt" transform="matrix(14,0,0,14,249.4,529.4)" />
<use xlink:href="#f6_bz" transform="matrix(14,0,0,14,266.8,529.4)" />
<use xlink:href="#f6_d4" transform="matrix(14,0,0,14,280.2,529.4)" />
<use xlink:href="#f6_c1" transform="matrix(14,0,0,14,280.1,529.4)" />
<use xlink:href="#f6_d4" transform="matrix(14,0,0,14,288.1,529.4)" />
<use xlink:href="#f6_e6" transform="matrix(14,0,0,14,294.1,529.4)" />
<use xlink:href="#f6_by" transform="matrix(14,0,0,14,306.2,529.4)" />
<use xlink:href="#f6_cw" transform="matrix(14,0,0,14,320.7,529.3)" />
<use xlink:href="#f6_c7" transform="matrix(14,0,0,14,320.2,529.4)" />
<use xlink:href="#f6_c1" transform="matrix(14,0,0,14,332.3,529.4)" />
<use xlink:href="#f6_bc" transform="matrix(14,0,0,14,346.3,529.4)" />
<use xlink:href="#f6_c1" transform="matrix(14,0,0,14,360.2,529.4)" />
<use xlink:href="#f6_am" transform="matrix(14,0,0,14,374.2,529.4)" />
<use xlink:href="#f6_ax" transform="matrix(14,0,0,14,395.7,529.4)" />
<use xlink:href="#f6_di" transform="matrix(14,0,0,14,405.6,529.8)" />
<use xlink:href="#f6_bb" transform="matrix(14,0,0,14,407.6,529.4)" />
<use xlink:href="#f6_d4" transform="matrix(14,0,0,14,420.3,529.4)" />
<use xlink:href="#f6_pc" transform="matrix(14,0,0,14,420.2,529.4)" />
<use xlink:href="#f6_pc" transform="matrix(14,0,0,14,424.5,529.4)" />
<use xlink:href="#f6_al" transform="matrix(14,0,0,14,130.9,587.8)" />
<use xlink:href="#f6_bx" transform="matrix(14,0,0,14,146.8,587.8)" />
<use xlink:href="#f6_bp" transform="matrix(14,0,0,14,164.7,587.8)" />
<use xlink:href="#f6_d8" transform="matrix(14,0,0,14,177.1,587.8)" />
<use xlink:href="#f6_ax" transform="matrix(14,0,0,14,188.3,587.8)" />
<use xlink:href="#f6_b9" transform="matrix(14,0,0,14,200.2,587.8)" />
<use xlink:href="#f6_cc" transform="matrix(14,0,0,14,221.4,587.8)" />
<use xlink:href="#f6_cv" transform="matrix(14,0,0,14,233,587.8)" />
<use xlink:href="#f6_c3" transform="matrix(14,0,0,14,244.3,587.8)" />
<use xlink:href="#f6_bb" transform="matrix(14,0,0,14,259,587.8)" />
<use xlink:href="#f6_bt" transform="matrix(14,0,0,14,271.6,587.8)" />
<use xlink:href="#f6_c3" transform="matrix(14,0,0,14,289,587.8)" />
<use xlink:href="#f6_bb" transform="matrix(14,0,0,14,303.7,587.8)" />
<use xlink:href="#f6_cv" transform="matrix(14,0,0,14,316.3,587.8)" />
<use xlink:href="#f6_cc" transform="matrix(14,0,0,14,327.6,587.8)" />
<use xlink:href="#f6_d5" transform="matrix(14,0,0,14,339.5,587.8)" />
<use xlink:href="#f6_k" transform="matrix(14,0,0,14,339.2,587.8)" />
<use xlink:href="#f6_e6" transform="matrix(14,0,0,14,350.1,587.8)" />
<use xlink:href="#f6_d4" transform="matrix(14,0,0,14,362.3,587.8)" />
<use xlink:href="#f6_bz" transform="matrix(14,0,0,14,362.1,587.8)" />
<use xlink:href="#f6_cb" transform="matrix(14,0,0,14,381.1,587.8)" />
<use xlink:href="#f6_cw" transform="matrix(14,0,0,14,396.6,587.7)" />
<use xlink:href="#f6_nl" transform="matrix(14,0,0,14,396,587.8)" />
<use xlink:href="#f6_bs" transform="matrix(14,0,0,14,396,587.8)" />
<use xlink:href="#f6_ct" transform="matrix(14,0,0,14,410,587.8)" />
<use xlink:href="#f6_bx" transform="matrix(14,0,0,14,421.3,587.8)" />
<use xlink:href="#f6_c1" transform="matrix(14,0,0,14,433.6,587.8)" />
<use xlink:href="#f6_cb" transform="matrix(14,0,0,14,442,587.8)" />
<use xlink:href="#f6_ct" transform="matrix(14,0,0,14,456.9,587.8)" />
<use xlink:href="#f6_br" transform="matrix(14,0,0,14,468.2,587.8)" />
<use xlink:href="#f6_d8" transform="matrix(14,0,0,14,479.8,587.8)" />
<use xlink:href="#f6_k" transform="matrix(14,0,0,14,485.4,587.8)" />
<use xlink:href="#f6_bg" transform="matrix(14,0,0,14,149.3,621)" />
<use xlink:href="#f6_jl" transform="matrix(14,0,0,14,163.5,621)" />
<use xlink:href="#f6_bg" transform="matrix(14,0,0,14,189.4,621)" />
<use xlink:href="#f6_jl" transform="matrix(14,0,0,14,203.6,621)" />
<use xlink:href="#f6_b9" transform="matrix(14,0,0,14,229.5,621)" />
<use xlink:href="#f6_oc" transform="matrix(14,0,0,14,245,621)" />
<use xlink:href="#f6_bz" transform="matrix(14,0,0,14,256.3,621)" />
<use xlink:href="#f6_d5" transform="matrix(14,0,0,14,269.7,621)" />
<use xlink:href="#f6_c3" transform="matrix(14,0,0,14,269.6,621)" />
<use xlink:href="#f6_cv" transform="matrix(14,0,0,14,284.3,621)" />
<use xlink:href="#f6_be" transform="matrix(14,0,0,14,295.6,621)" />
<use xlink:href="#f6_ct" transform="matrix(14,0,0,14,309.6,621)" />
<use xlink:href="#f6_br" transform="matrix(14,0,0,14,315.2,621)" />
<use xlink:href="#f6_c1" transform="matrix(14,0,0,14,326.9,621)" />
<use xlink:href="#f6_k" transform="matrix(14,0,0,14,335.2,621)" />
<use xlink:href="#f6_al" transform="matrix(14,0,0,14,346.1,621)" />
<use xlink:href="#f6_bv" transform="matrix(14,0,0,14,362,621)" />
<use xlink:href="#f6_bt" transform="matrix(14,0,0,14,373.8,621)" />
<use xlink:href="#f6_d4" transform="matrix(14,0,0,14,385.7,621)" />
<use xlink:href="#f6_c1" transform="matrix(14,0,0,14,391.2,621)" />
<use xlink:href="#f6_dj" transform="matrix(14,0,0,14,396.1,621.5)" />
<use xlink:href="#f6_bb" transform="matrix(14,0,0,14,399.6,621)" />
<use xlink:href="#f6_c1" transform="matrix(14,0,0,14,417.9,621)" />
<use xlink:href="#f6_dj" transform="matrix(14,0,0,14,422.7,621.5)" />
<use xlink:href="#f6_bb" transform="matrix(14,0,0,14,426.3,621)" />
<use xlink:href="#f6_ct" transform="matrix(14,0,0,14,438.9,621)" />
<use xlink:href="#f6_br" transform="matrix(14,0,0,14,450.2,621)" />
<use xlink:href="#f6_d8" transform="matrix(14,0,0,14,461.8,621)" />
<use xlink:href="#f6_k" transform="matrix(14,0,0,14,467.5,621)" />
<use xlink:href="#f6_cb" transform="matrix(14,0,0,14,70.2,654.3)" />
<use xlink:href="#f6_by" transform="matrix(14,0,0,14,85.1,654.3)" />
<use xlink:href="#f6_cv" transform="matrix(14,0,0,14,99,654.3)" />
<use xlink:href="#f6_by" transform="matrix(14,0,0,14,110.3,654.3)" />
<use xlink:href="#f6_l1" transform="matrix(14,0,0,14,124.3,654.3)" />
<use xlink:href="#f6_bp" transform="matrix(14,0,0,14,136.1,654.3)" />
<use xlink:href="#f6_nt" transform="matrix(14,0,0,14,154.1,654.3)" />
<use xlink:href="#f6_bz" transform="matrix(14,0,0,14,159.7,654.3)" />
<use xlink:href="#f6_c3" transform="matrix(14,0,0,14,173.1,654.3)" />
<use xlink:href="#f6_b9" transform="matrix(14,0,0,14,187.8,654.3)" />
<use xlink:href="#f6_c1" transform="matrix(14,0,0,14,203.3,654.3)" />
<use xlink:href="#f6_bb" transform="matrix(14,0,0,14,217.3,654.3)" />
<use xlink:href="#f6_cv" transform="matrix(14,0,0,14,230,654.3)" />
<use xlink:href="#f6_bp" transform="matrix(14,0,0,14,235.6,654.3)" />
<use xlink:href="#f6_bb" transform="matrix(14,0,0,14,253.6,654.3)" />
<use xlink:href="#f6_ct" transform="matrix(14,0,0,14,266.2,654.3)" />
<use xlink:href="#f6_ax" transform="matrix(14,0,0,14,271.8,654.3)" />
<use xlink:href="#f6_di" transform="matrix(14,0,0,14,281.7,654.7)" />
<use xlink:href="#f6_bb" transform="matrix(14,0,0,14,283.6,654.3)" />
<use xlink:href="#f6_d4" transform="matrix(14,0,0,14,296.4,654.3)" />
<use xlink:href="#f6_k" transform="matrix(14,0,0,14,296.3,654.3)" />
<use xlink:href="#f6_nu" transform="matrix(14,0,0,14,312.8,654.3)" />
<use xlink:href="#f6_bg" transform="matrix(14,0,0,14,318.4,654.3)" />
<use xlink:href="#f6_cb" transform="matrix(14,0,0,14,332.7,654.3)" />
<use xlink:href="#f6_cu" transform="matrix(14,0,0,14,353.2,654.3)" />
<use xlink:href="#f6_br" transform="matrix(14,0,0,14,358.9,654.3)" />
<use xlink:href="#f6_bt" transform="matrix(14,0,0,14,370.5,654.3)" />
<use xlink:href="#f6_bz" transform="matrix(14,0,0,14,387.9,654.3)" />
<use xlink:href="#f6_d4" transform="matrix(14,0,0,14,401.4,654.3)" />
<use xlink:href="#f6_c1" transform="matrix(14,0,0,14,401.2,654.3)" />
<use xlink:href="#f6_d4" transform="matrix(14,0,0,14,409.2,654.3)" />
<use xlink:href="#f6_e6" transform="matrix(14,0,0,14,415.3,654.3)" />
<use xlink:href="#f6_by" transform="matrix(14,0,0,14,427.4,654.3)" />
<use xlink:href="#f6_cw" transform="matrix(14,0,0,14,441.9,654.2)" />
<use xlink:href="#f6_c7" transform="matrix(14,0,0,14,441.3,654.3)" />
<use xlink:href="#f6_c1" transform="matrix(14,0,0,14,453.4,654.3)" />
<use xlink:href="#f6_bc" transform="matrix(14,0,0,14,467.4,654.3)" />
<use xlink:href="#f6_c1" transform="matrix(14,0,0,14,481.3,654.3)" />
<use xlink:href="#f6_am" transform="matrix(14,0,0,14,495.4,654.3)" />
<use xlink:href="#f6_ax" transform="matrix(14,0,0,14,516.9,654.3)" />
<use xlink:href="#f6_di" transform="matrix(14,0,0,14,526.8,654.7)" />
<use xlink:href="#f6_bb" transform="matrix(14,0,0,14,528.7,654.3)" />
<use xlink:href="#f6_d4" transform="matrix(14,0,0,14,541.5,654.3)" />
<use xlink:href="#f6_pc" transform="matrix(14,0,0,14,541.3,654.3)" />
<use xlink:href="#f6_pc" transform="matrix(14,0,0,14,545.6,654.3)" />
<use xlink:href="#f7_4r" transform="matrix(9,0,0,9,290.2,795.2)" />
<use xlink:href="#f8_o" transform="matrix(9,0,0,9,303,795.2)" />
<use xlink:href="#f8_q" transform="matrix(9,0,0,9,310.7,795.2)" />
<use xlink:href="#f7_4r" transform="matrix(9,0,0,9,321.3,795.2)" />
</g>
</g>
<image preserveAspectRatio="none" x="22" y="801" width="581" height="86" xlink:href="img/1.png"/>
<path d="M193.6,97.4H428.5v1.1H193.6V97.4Z" class="g1_52"/>
<image preserveAspectRatio="none" x="202" y="14" width="217" height="26" xlink:href="img/2.png"/>
<defs>
<path d="M394,379c0,0,57,0,107,30c0,0,51,29,77,86V822H214L318,749V403c0,0,29,-24,76,-24ZM752,-65L578,29V188c0,0,-43,-18,-89,-18c0,0,-138,0,-282,130C207,300,63,431,60,567V822H0L-86,937l32,64H937l87,-115L992,822H720L822,749V-31L752,-65Z"
id="f5_bv"
transform="scale(0.001,-0.001)"/>

<path d="M472,-77C472,-77,28,171,28,448c0,0,0,116,77,191c0,0,77,74,188,74c0,0,51,0,95,-18L527,574c0,0,104,114,277,117V822H0L-86,937l32,64H1164l86,-115l-32,-64H946l102,-73V-31L978,-65L804,29V526c0,0,-130,-78,-133,-294L611,196L431,309c0,0,0,97,33,174c0,0,-22,10,-53,10c0,0,-52,0,-90,-36c0,0,-38,-37,-38,-99c0,0,0,-80,68,-150c0,0,69,-70,214,-161L472,-77Z"
id="f5_c3"
transform="scale(0.001,-0.001)"/>

<path d="M300,310c13,0,56,2,103,25c0,0,58,27,100,81V523c0,0,-46,16,-83,16c0,0,-69,0,-111,-45c0,0,-42,-45,-42,-104c0,0,0,-45,28,-80c0,0,2,0,5,0ZM677,-65L503,29V144c0,0,-32,-11,-75,-11c0,0,-147,0,-272,98c0,0,-125,99,-125,233c0,0,0,110,75,185c0,0,76,74,195,74l67,-6L503,646V822H0L-86,937l32,64H1245l86,-115l-32,-64H645L747,749V622c0,0,81,58,165,58c0,0,122,0,213,-99c0,0,91,-98,91,-230c0,0,0,-204,-253,-371L791,157c0,0,110,83,164,139c0,0,53,55,53,106c0,0,0,55,-53,55c0,0,-83,0,-208,-145V-31L677,-65Z"
id="f5_b9"
transform="scale(0.001,-0.001)"/>

<path d="M-88,1086c0,0,-41,17,-92,56c0,0,-51,39,-79,76c0,0,60,119,138,165c0,0,43,-16,89,-55c0,0,46,-39,73,-75c0,0,-17,-45,-53,-93c0,0,-37,-48,-76,-74ZM-289,908l-132,216c0,0,-70,120,-169,120c0,0,-83,0,-200,-80l-130,249c0,0,125,78,234,78c0,0,187,0,349,-241L-159,969L-289,908Z"
id="f5_oz"
transform="scale(0.001,-0.001)"/>

<path d="M756,-314c0,0,-304,57,-481,187C275,-127,98,2,98,170c0,0,0,117,82,197c0,0,-110,91,-110,195c0,0,0,74,64,127c0,0,63,54,188,54H567v79H0L-86,937l32,64H906L992,886L959,822H684L787,749V535H383c0,0,-110,0,-110,-67c0,0,0,-19,10,-36c0,0,78,32,174,32c0,0,162,0,277,-87c0,0,115,-87,115,-214c0,0,0,-143,-142,-228L518,76c0,0,125,94,145,173c0,0,-55,26,-113,26c0,0,-84,0,-144,-45c0,0,-59,-45,-59,-118c0,0,0,-107,121,-166c0,0,120,-60,336,-105L756,-314Z"
id="f5_cc"
transform="scale(0.001,-0.001)"/>

<path d="M277,-65L102,29V822H0L-86,937l32,64H110c0,0,-50,142,-110,226c0,0,-60,84,-149,84c0,0,-59,0,-97,-37c0,0,-39,-36,-39,-91c0,0,0,-57,42,-115l-95,-50c0,0,-145,116,-145,267c0,0,0,108,75,179c0,0,76,70,195,70c0,0,179,0,297,-150c0,0,119,-150,189,-383H463L548,886L516,822H244L347,749V-31L277,-65Z"
id="f5_cv"
transform="scale(0.001,-0.001)"/>

<path d="M686,512V822H333L435,749l2,-237ZM860,-65L686,29V298H440V168L348,118c0,0,-90,30,-190,128c0,0,-100,98,-127,183l52,83H203L189,822H0L-86,937l32,64H1045l86,-115l-33,-64H828L930,749V-31L860,-65Z"
id="f5_bz"
transform="scale(0.001,-0.001)"/>

<path d="M289,-65L115,29V822H0L-86,937l32,64H115c0,0,-98,102,-98,224c0,0,0,133,101,215c0,0,102,82,262,82c0,0,155,0,359,-94c0,0,205,-94,437,-311l-76,-98c0,0,-354,281,-617,281c0,0,-113,0,-187,-48c0,0,-73,-48,-73,-134c0,0,0,-53,41,-117H463L548,886L516,822H257L359,749V-31L289,-65Z"
id="f5_cu"
transform="scale(0.001,-0.001)"/>

<path d="M393,278c0,0,45,0,93,17L336,515c0,0,-56,-51,-56,-124c0,0,0,-53,32,-98c0,0,38,-15,81,-15Zm178,61c0,0,34,29,52,57V510c0,0,-85,46,-162,46l-32,-1L571,339ZM798,-65L623,29v95c0,0,-55,-25,-123,-25c0,0,-100,0,-209,51c0,0,-109,50,-183,137c0,0,-73,87,-73,191c0,0,0,115,85,194c0,0,85,80,212,80c0,0,41,0,84,-9L623,643V822H0L-86,937l32,64H982l86,-115l-32,-64H765L868,749V-31L798,-65Z"
id="f5_bx"
transform="scale(0.001,-0.001)"/>

<path d="M923,312c0,0,35,73,35,151c0,0,0,95,-32,130c0,0,-18,6,-37,6c0,0,-40,0,-63,-30c0,0,-24,-30,-24,-74c0,0,0,-119,121,-183ZM634,-120c0,0,-179,0,-315,103c0,0,-137,101,-137,234c0,0,0,49,24,98C206,315,28,420,28,561c0,0,0,79,61,136c0,0,61,58,178,58H420L521,607L487,544H370c0,0,-129,0,-129,-72c0,0,0,-38,48,-72c0,0,73,43,163,43c0,0,54,0,101,-12L655,270L607,208c0,0,-45,15,-84,15c0,0,-52,0,-85,-26c0,0,-32,-26,-32,-64c0,0,0,-43,29,-66c0,0,36,-9,71,-9c0,0,113,0,207,45c0,0,94,45,156,122c0,0,-125,62,-204,149c0,0,-78,87,-78,178c0,0,0,74,54,133c0,0,54,59,135,73v64H0L-86,937l32,64H1202l87,-115l-32,-64H894L996,749V698c0,0,72,-53,114,-140c0,0,42,-87,42,-187c0,0,0,-125,-67,-239c0,0,-67,-114,-187,-182c0,0,-119,-70,-264,-70Z"
id="f5_bf"
transform="scale(0.001,-0.001)"/>

<path d="M277,-65L102,29V822H0L-86,937l32,64H463L548,886L516,822H244L347,749V-31L277,-65Z"
id="f5_ct"
transform="scale(0.001,-0.001)"/>

<path d="M368,290c0,0,83,0,161,44c0,0,78,43,116,117V822H382c0,0,136,-107,136,-225c0,0,0,-74,-55,-131c0,0,-55,-57,-165,-83c0,0,15,-48,44,-91l26,-2ZM819,-65L645,29V139c0,0,-60,-31,-130,-31c0,0,-145,0,-279,109c0,0,-134,108,-208,287l29,78c0,0,128,15,181,43c0,0,54,27,54,73c0,0,0,61,-96,124H0L-86,937l32,64H1004l87,-115l-32,-64H787L889,749V-31L819,-65Z"
id="f5_c0"
transform="scale(0.001,-0.001)"/>

<path d="M831,-65L657,29V822H332L434,749V200L341,150c0,0,-93,32,-190,121c0,0,-96,90,-125,175l52,83H196l-5,293H0L-86,937l32,64H1016l86,-115l-33,-64H799L901,749V-31L831,-65Z"
id="f5_bb"
transform="scale(0.001,-0.001)"/>

<path d="M-289,908l-132,216c0,0,-70,120,-169,120c0,0,-83,0,-200,-80l-130,249c0,0,125,78,234,78c0,0,187,0,349,-241L-159,969L-289,908Z"
id="f5_d4"
transform="scale(0.001,-0.001)"/>

<path d="M388,325c0,0,58,0,112,31c0,0,53,31,84,86V822H165l69,-58V408c0,0,47,-83,154,-83ZM674,-49L584,8V257c0,0,-61,-51,-141,-51c0,0,-125,0,-232,109c0,0,-107,108,-107,243V822H0l-45,76l14,31H848l46,-76L880,822H645l65,-58V-39L674,-49Z"
id="f6_bv"
transform="scale(0.001,-0.001)"/>

<path d="M413,-59C413,-59,53,193,53,416c0,0,0,97,66,164c0,0,66,66,156,66c0,0,61,0,110,-30L487,507c0,0,92,126,257,126l35,-2V822H0l-45,76l14,31H1043l46,-76l-13,-31H840l66,-58V-39L869,-49L779,8V547c0,0,-101,-5,-165,-90c0,0,-64,-86,-70,-222L507,225l-90,73c0,0,5,79,35,151c0,0,-59,66,-128,66c0,0,-57,0,-100,-38c0,0,-44,-39,-44,-109c0,0,0,-165,284,-360L413,-59Z"
id="f6_c3"
transform="scale(0.001,-0.001)"/>

<path d="M283,260c0,0,122,0,209,113V513c0,0,-90,51,-160,51c0,0,-80,0,-129,-50c0,0,-49,-50,-49,-118c0,0,0,-60,35,-110c0,0,45,-26,94,-26ZM582,-49L492,8V211c0,0,-63,-54,-141,-54c0,0,-113,0,-213,92c0,0,-100,92,-100,205c0,0,0,93,69,157c0,0,69,64,162,64c0,0,32,0,64,-9L492,590V822H0l-45,76l14,31H1108l45,-76l-13,-31H553l66,-58V524c0,0,91,89,192,89c0,0,98,0,171,-79c0,0,72,-79,72,-186c0,0,0,-178,-224,-330L736,124c0,0,219,153,219,269c0,0,0,44,-26,75c0,0,-26,32,-81,32c0,0,-109,0,-229,-155V-39L582,-49Z"
id="f6_b9"
transform="scale(0.001,-0.001)"/>

<path d="M-91,1001c0,0,-27,10,-61,36c0,0,-33,26,-50,49c0,0,38,81,90,110c0,0,61,-23,107,-85c0,0,-28,-71,-86,-110ZM-214,863l-199,281c0,0,-70,92,-157,92c0,0,-69,0,-159,-58l-72,118c0,0,89,73,180,73c0,0,141,0,258,-170L-155,901l-59,-38Z"
id="f6_oz"
transform="scale(0.001,-0.001)"/>

<path d="M688,-243c0,0,-256,53,-408,173c0,0,-152,119,-152,270c0,0,0,101,68,171c0,0,-101,84,-101,179c0,0,0,64,53,112c0,0,54,47,191,47H587V822H0l-45,76l14,31H830l45,-76L862,822H640l66,-58V585H362c0,0,-159,-1,-159,-92c0,0,0,-41,46,-80c0,0,76,47,183,47c0,0,135,0,230,-76c0,0,96,-75,96,-187C758,197,758,67,629,2L545,104c0,0,49,30,81,75c0,0,32,44,32,82c0,0,0,16,-4,26c0,0,-64,58,-167,58c0,0,-97,0,-166,-50v-2c0,0,-67,-52,-67,-131c0,0,0,-116,132,-199c0,0,132,-84,334,-132l-32,-74Z"
id="f6_cc"
transform="scale(0.001,-0.001)"/>

<path d="M228,-49L138,8V822H0l-45,76l14,31H138c0,0,-109,342,-284,342c0,0,-62,0,-102,-40c0,0,-40,-39,-40,-93c0,0,0,-61,51,-134l-42,-32c0,0,-128,113,-128,226c0,0,0,79,60,136c0,0,61,56,154,56c0,0,137,0,249,-125c0,0,112,-125,169,-336H402l46,-76L434,822H199l65,-58V-39L228,-49Z"
id="f6_cv"
transform="scale(0.001,-0.001)"/>

<path d="M689,445V822H286l65,-58l8,-319ZM779,-49L689,8V328H370V180L296,150c0,0,-56,35,-120,104c0,0,-63,70,-89,131l41,60H238L223,822H0l-45,76l14,31H953l46,-76L985,822H750l66,-58V-39L779,-49Z"
id="f6_bz"
transform="scale(0.001,-0.001)"/>

<path d="M228,-49L138,8V822H0l-45,76l14,31H134c0,0,-91,92,-91,191c0,0,0,105,85,170c0,0,84,65,219,65c0,0,128,0,293,-76c0,0,165,-77,362,-263L958,966c0,0,-177,143,-303,210c0,0,-125,68,-244,68c0,0,-107,0,-175,-50c0,0,-68,-50,-68,-131c0,0,0,-61,49,-134H402l46,-76L434,822H199l65,-58V-39L228,-49Z"
id="f6_cu"
transform="scale(0.001,-0.001)"/>

<path d="M348,229c0,0,57,0,106,17L263,559c0,0,-95,-50,-95,-162c0,0,0,-75,52,-136c0,0,49,-32,128,-32Zm170,48c0,0,61,38,96,91V504c0,0,-131,80,-244,80l-35,-2L518,277ZM704,-49L614,8V193c0,0,-84,-65,-192,-65c0,0,-139,0,-255,98c0,0,-115,98,-115,226c0,0,0,106,77,175c0,0,77,70,189,70c0,0,38,0,75,-9L614,578V822H0l-45,76l14,31H878l46,-76L911,822H675l66,-58V-39L704,-49Z"
id="f6_bx"
transform="scale(0.001,-0.001)"/>

<path d="M900,298c0,0,32,73,32,159c0,0,0,110,-38,160c0,0,-40,31,-81,31c0,0,-48,0,-80,-35c0,0,-33,-35,-33,-89c0,0,0,-118,200,-226ZM588,-60c0,0,-154,0,-274,93c0,0,-120,94,-120,207c0,0,0,50,28,92C222,332,61,440,61,552c0,0,0,71,56,122c0,0,56,50,169,50H417l64,-98L463,600H333c0,0,-157,-1,-157,-99c0,0,0,-59,88,-124c0,0,68,52,164,52c0,0,38,0,79,-9l71,-88L558,299c0,0,-46,10,-81,10c0,0,-75,0,-116,-36c0,0,-40,-36,-40,-88c0,0,0,-78,73,-130c0,0,54,-17,109,-17c0,0,114,0,211,54c0,0,97,53,154,145c0,0,-156,96,-223,173c0,0,-67,77,-67,155c0,0,0,72,48,124c0,0,48,52,126,55v78H0l-45,76l14,31H1123l46,-76l-14,-31H805l66,-58V717c0,0,76,-40,124,-124c0,0,47,-84,47,-193c0,0,0,-188,-133,-324C909,76,776,-60,588,-60Z"
id="f6_bf"
transform="scale(0.001,-0.001)"/>

<path d="M228,-49L138,8V822H0l-45,76l14,31H402l46,-76L434,822H199l65,-58V-39L228,-49Z"
id="f6_ct"
transform="scale(0.001,-0.001)"/>

<path d="M374,248c0,0,77,0,149,36c0,0,71,37,110,107V822H284c0,0,138,-96,138,-208c0,0,0,-151,-228,-192c0,0,29,-104,89,-158c0,0,41,-16,91,-16ZM723,-49L633,8V200c0,0,-69,-56,-170,-56c0,0,-122,0,-240,94c0,0,-118,94,-179,237l20,55c0,0,133,17,187,44c0,0,55,28,55,84c0,0,0,45,-30,81c0,0,-30,36,-99,83H0l-45,76l14,31H897l46,-76L929,822H694l65,-58V-39L723,-49Z"
id="f6_c0"
transform="scale(0.001,-0.001)"/>

<path d="M727,-49L637,8V822H278l66,-58V226L270,196c0,0,-64,36,-122,98c0,0,-58,62,-79,122l43,59H217V822H0l-45,76l14,31H901l46,-76L933,822H698l66,-58V-39L727,-49Z"
id="f6_bb"
transform="scale(0.001,-0.001)"/>

<path d="M-214,863l-199,281c0,0,-70,92,-157,92c0,0,-69,0,-159,-58l-72,118c0,0,89,73,180,73c0,0,141,0,258,-170L-155,901l-59,-38Z"
id="f6_d4"
transform="scale(0.001,-0.001)"/>

<path d="M108,-222l-44,58c0,0,96,81,104,164L89,61c0,0,12,83,93,122c0,0,50,-15,79,-55c0,0,29,-39,29,-90c0,0,0,-69,-48,-142c0,0,-48,-72,-134,-118Z"
id="f6_k"
transform="scale(0.001,-0.001)"/>

<path d="M228,-49L138,8V822H0l-45,76l14,31H134c0,0,-91,93,-91,200c0,0,0,109,92,174c0,0,93,66,253,66c0,0,186,0,398,-89c0,0,212,-90,430,-264l-49,-47c0,0,-424,285,-727,285c0,0,-125,0,-201,-49c0,0,-76,-48,-76,-137c0,0,0,-67,52,-139H402l46,-76L434,822H199l65,-58V-39L228,-49Z"
id="f6_nu"
transform="scale(0.001,-0.001)"/>

<path d="M845,-49L755,8V513H497c0,0,61,-45,93,-110c0,0,33,-64,33,-128c0,0,0,-90,-58,-144c0,0,-59,-53,-143,-53c0,0,-133,0,-234,139C188,217,87,356,20,596l76,24c0,0,60,-201,127,-306c0,0,67,-105,160,-105c0,0,57,0,91,36c0,0,33,36,33,91c0,0,0,84,-73,159L295,558v71H755V822H0l-45,76l14,31H1019l46,-76l-14,-31H816l66,-58V-39L845,-49Z"
id="f6_bg"
transform="scale(0.001,-0.001)"/>

<path d="M799,475V822H350l66,-55V564c0,0,0,-43,-25,-89ZM527,-71L52,414l34,92H277c0,0,12,32,12,72V822H0l-45,76l14,31H1063l46,-76l-14,-31H860l66,-58V-39L889,-49L799,8V370H315L264,316L610,34L611,8L527,-71Z"
id="f6_cb"
transform="scale(0.001,-0.001)"/>

<path d="M675,-274L602,21C602,21,550,3,498,3C498,3,347,3,210,118C210,118,73,232,73,373c0,0,0,113,84,184c0,0,84,71,222,72H524V822H0l-45,76l14,31H834l46,-76L866,822H585l66,-58V504l-3,2l3,-3H408c0,0,-95,0,-154,-53c0,0,-58,-53,-58,-132c0,0,0,-49,27,-100c0,0,28,-50,83,-84c0,0,44,-15,96,-15c0,0,91,0,160,46L535,303l101,48L773,188c0,0,-8,-28,-34,-66c0,0,-27,-38,-62,-64L813,-221L675,-274Z"
id="f6_br"
transform="scale(0.001,-0.001)"/>

<path d="M663,-49L573,8V445H299V280L226,251c0,0,-105,99,-162,238l63,72H573V822H0l-45,76l14,31H837l46,-76L869,822H634l66,-58V-39L663,-49Z"
id="f6_bt"
transform="scale(0.001,-0.001)"/>

<path d="M527,-71L52,414l34,92H277c0,0,12,32,12,72V822H0l-45,76l14,31H599l46,-76L631,822H350l66,-55V564c0,0,0,-96,-152,-248L610,34L611,8L527,-71Z"
id="f6_c1"
transform="scale(0.001,-0.001)"/>

<path d="M396,318c0,0,123,0,203,108V822H180l66,-58V408c0,0,49,-90,150,-90ZM176,-66L79,9L379,228c0,0,-106,23,-181,119c0,0,-76,96,-79,198V822H0l-45,76l14,31H863l46,-76L895,822H660l66,-58V-39L689,-49L599,8V269L176,-66Z"
id="f6_e6"
transform="scale(0.001,-0.001)"/>

<path d="M823,-49L733,8V339H445V191L371,160c0,0,-56,36,-120,105c0,0,-63,70,-89,131l41,59H313V735c0,0,0,99,-55,140c0,0,-3,1,-8,1c-16,0,-48,-3,-71,-23c0,0,-31,-26,-31,-66c0,0,0,-69,81,-113L189,620C189,620,31,720,31,828c0,0,0,61,45,99c0,0,46,37,109,37c0,0,96,0,173,-86c0,0,76,-87,79,-194V455H733V822H556l-46,76l14,31H998l45,-76l-13,-31H794l66,-58V-39L823,-49Z"
id="f6_by"
transform="scale(0.001,-0.001)"/>

<path d="M-234,-413c0,0,-210,0,-488,322l54,49c0,0,119,-128,209,-193c0,0,90,-65,177,-65c0,0,72,0,113,40c0,0,42,39,42,91c0,0,0,75,-78,106L-323,-181l-90,98c0,0,63,95,167,95c0,0,90,0,155,-69c0,0,66,-70,66,-164c0,0,0,-85,-60,-139c0,0,-61,-53,-149,-53Z"
id="f6_cw"
transform="scale(0.001,-0.001)"/>

<path d="M325,240c0,0,77,0,154,35c0,0,77,35,120,99V500c0,0,-118,73,-222,73c0,0,-97,0,-151,-54c0,0,-53,-53,-53,-128c0,0,0,-73,49,-125c0,0,38,-26,103,-26ZM689,-49L599,8V199c0,0,-73,-65,-179,-65c0,0,-134,0,-252,96c0,0,-118,95,-118,221c0,0,0,102,78,171c0,0,78,69,190,69c0,0,38,0,75,-10L599,582V822H0l-45,76l14,31H863l46,-76L895,822H660l66,-58V-39L689,-49Z"
id="f6_c7"
transform="scale(0.001,-0.001)"/>

<path d="M434,225c0,0,84,0,169,42c0,0,85,43,126,126V822H267c0,0,-64,-49,-64,-115c0,0,0,-79,90,-126c0,0,60,35,144,35l67,-6l75,-89L564,490l-51,7H493c0,0,-90,0,-142,-43c0,0,-52,-43,-52,-104c0,0,0,-60,51,-109c0,0,33,-16,84,-16ZM819,-49L729,8V197c0,0,-83,-76,-202,-76c0,0,-130,0,-237,91c0,0,-108,92,-108,196c0,0,0,72,53,128c0,0,-75,42,-115,97c0,0,-41,56,-41,113c0,0,0,38,22,76H0l-45,76l14,31H993l46,-76l-14,-31H790l66,-58V-39L819,-49Z"
id="f6_bc"
transform="scale(0.001,-0.001)"/>

<path d="M959,-49L869,8V367c0,0,-32,-13,-64,-13c0,0,-50,0,-110,25c0,0,23,-52,23,-109c0,0,0,-103,-70,-170c0,0,-70,-66,-182,-66c0,0,-110,0,-222,82c0,0,-111,83,-213,293l68,42c0,0,72,-155,152,-231c0,0,81,-76,178,-76c0,0,83,0,131,49c0,0,48,48,48,117c0,0,0,54,-30,100c0,0,-31,47,-91,65L325,391L257,512c0,0,68,53,156,56c0,0,140,72,140,179c0,0,0,69,-52,99c0,0,-4,1,-11,1c-19,0,-66,-4,-123,-30c0,0,-78,-35,-142,-96L150,823c0,0,119,117,253,117c0,0,98,0,175,-71c0,0,77,-70,77,-159c0,0,0,-103,-94,-180c0,0,39,-23,73,-56c0,0,52,-22,109,-22c0,0,77,0,126,38V822H727l-46,76l14,31h840l46,-76l-13,-31H1332l66,-58V-39l-37,-10L1271,8V822H930l66,-58V-39L959,-49Z"
id="f6_am"
transform="scale(0.001,-0.001)"/>

<path d="M830,-253l-123,66c0,0,31,47,31,78c0,0,0,44,-64,84L353,130c0,0,-234,113,-234,325V822H0l-45,76l14,31H848l46,-76L880,822H655l68,-58V561c0,0,0,-176,-41,-241c0,0,-40,-65,-161,-106l-49,82l124,69V822H180l66,-58V283L646,92c0,0,126,-60,176,-110c0,0,50,-51,50,-115c0,0,0,-62,-42,-120Z"
id="f6_ax"
transform="scale(0.001,-0.001)"/>

<path d="M-233,1021c0,0,-84,0,-168,55c0,0,-84,56,-146,162l51,50c0,0,95,-162,219,-162c0,0,125,0,160,157L-7,1234c0,0,-21,-103,-81,-158c0,0,-61,-55,-145,-55Zm-41,201c0,0,-66,25,-102,80c0,0,32,68,82,101c0,0,55,-20,99,-80c0,0,-26,-67,-79,-101Z"
id="f6_di"
transform="scale(0.001,-0.001)"/>

<path d="M254,-26c0,0,-84,16,-116,92c0,0,13,84,97,127c0,0,100,-36,112,-110C347,83,324,6,254,-26Zm458,0c0,0,-84,16,-116,92c0,0,14,84,98,127c0,0,99,-37,111,-110C805,83,782,6,712,-26Zm458,0c0,0,-84,16,-116,92c0,0,14,84,98,127c0,0,99,-36,111,-110c0,0,-22,-77,-93,-109Z"
id="f6_8l"
transform="scale(0.001,-0.001)"/>

<path d="M347,-57C347,-57,66,211,66,394c0,0,0,98,74,164c0,0,74,65,225,65H616V822H0l-45,76l14,31H880l46,-76L912,822H677l66,-58V-39L706,-49L616,8V500H428c0,0,-239,0,-239,-161c0,0,0,-136,214,-343L347,-57Z"
id="f6_bp"
transform="scale(0.001,-0.001)"/>

<path d="M228,-49L138,8V822H0l-45,76l14,31H119L-33,1144c0,0,-70,92,-157,92c0,0,-69,0,-159,-58l-72,118c0,0,89,73,181,73c0,0,140,0,257,-170L205,929H402l46,-76L434,822H199l65,-58V-39L228,-49Z"
id="f6_d8"
transform="scale(0.001,-0.001)"/>

<path d="M-214,860l-227,219c0,0,-73,70,-148,70c0,0,-67,0,-160,-58l-72,117c0,0,83,71,176,71c0,0,120,0,232,-124L-221,940l-102,294c0,0,-64,179,-189,179c0,0,-60,0,-133,-33l-60,125c0,0,84,47,164,47c0,0,200,0,281,-276L-150,901l-23,-15l-41,-26Z"
id="f6_d5"
transform="scale(0.001,-0.001)"/>

<path d="M1178,445V822H775l65,-58l8,-319Zm90,-494L1178,8V328H859V180L785,150c0,0,-53,33,-115,100c0,0,-62,66,-89,126c0,0,-39,37,-120,38H254V249L180,220c0,0,-105,99,-162,238l63,72H374c0,0,116,0,173,-16c0,0,56,-16,99,-69h81L712,822H0l-45,76l14,31H1442l46,-76l-14,-31H1239l66,-58V-39l-37,-10Z"
id="f6_jl"
transform="scale(0.001,-0.001)"/>

<path d="M228,-49L138,8V822H0l-45,76l14,31H136c0,0,-173,353,-364,353c0,0,-75,0,-119,-44c0,0,-45,-45,-45,-106c0,0,0,-69,48,-128l-43,-32c0,0,-124,113,-124,224c0,0,0,87,67,146c0,0,68,59,167,59c0,0,150,0,283,-130c0,0,135,-130,219,-342H402l46,-76L434,822H199l65,-58V-39L228,-49Z"
id="f6_ob"
transform="scale(0.001,-0.001)"/>

<path d="M290,-236c0,0,-253,348,-253,685c0,0,0,342,270,669l80,-39c0,0,-207,-311,-207,-622c0,0,0,-326,193,-652l-83,-41Z"
id="f6_g"
transform="scale(0.001,-0.001)"/>

<path d="M634,-49L249,296c0,0,-1,0,-3,0c-11,0,-48,1,-90,15c0,0,-51,16,-67,36l49,165l50,12l84,-98c0,0,125,31,191,104c0,0,66,73,66,165c0,0,0,109,-95,170c0,0,-2,0,-6,0C397,865,262,858,121,738L46,848c0,0,52,47,127,82c0,0,75,34,152,34c0,0,130,0,226,-94c0,0,95,-94,95,-218c0,0,0,-107,-77,-199c0,0,-77,-92,-216,-134L697,26L698,0L634,-49Z"
id="f6_n8"
transform="scale(0.001,-0.001)"/>

<path d="M130,-236l-83,41c0,0,193,326,193,652c0,0,0,311,-206,622l79,39c0,0,270,-327,270,-669c0,0,0,-337,-253,-685Z"
id="f6_h"
transform="scale(0.001,-0.001)"/>

<path d="M449,79c0,0,103,0,168,61c0,0,66,60,66,149c0,0,0,93,-84,186H420c0,0,-107,0,-164,-50c0,0,-57,-51,-57,-126c0,0,0,-108,99,-184c0,0,81,-36,151,-36Zm67,-96c0,0,-168,0,-301,109C215,92,81,202,81,350c0,0,0,114,83,182c0,0,84,68,229,68H507V822H0l-45,76l14,31H883l46,-76L915,822H568l66,-58V532c0,0,87,-64,130,-144c0,0,43,-79,43,-157c0,0,0,-109,-81,-179c0,0,-81,-69,-210,-69Z"
id="f6_bl"
transform="scale(0.001,-0.001)"/>

<path d="M0,1062c0,0,-26,11,-60,36c0,0,-34,26,-51,49c0,0,39,81,91,110c0,0,60,-23,106,-85c0,0,-28,-70,-86,-110Z"
id="f6_dj"
transform="scale(0.001,-0.001)"/>

<path d="M-40,1030c0,0,-28,10,-61,36c0,0,-34,26,-51,49c0,0,38,81,90,110c0,0,61,-23,106,-85c0,0,-27,-71,-84,-110ZM-214,860l-227,219c0,0,-73,70,-148,70c0,0,-67,0,-160,-58l-72,117c0,0,83,71,176,71c0,0,120,0,232,-124L-221,940l-102,294c0,0,-64,179,-189,179c0,0,-60,0,-133,-33l-60,125c0,0,84,47,164,47c0,0,200,0,281,-276L-150,901l-23,-15l-41,-26Z"
id="f6_p3"
transform="scale(0.001,-0.001)"/>

<path d="M368,344c0,0,90,0,155,73V822H150l67,-58V438c0,0,46,-94,151,-94ZM613,-49L523,8V251c0,0,-48,-28,-103,-28c0,0,-122,0,-227,112C193,335,89,448,89,590V822H0l-45,76l14,31H1150l46,-76l-13,-31H584l65,-58V533c0,0,101,95,211,95c0,0,98,0,170,-79c0,0,73,-78,73,-185c0,0,0,-179,-225,-330L785,139c0,0,219,153,219,269c0,0,0,43,-26,75c0,0,-26,32,-80,32c0,0,-120,0,-249,-159V-39L613,-49Z"
id="f6_bw"
transform="scale(0.001,-0.001)"/>

<path d="M108,-433L-59,-214c0,0,-99,119,-191,119c0,0,-59,0,-96,-35c0,0,-36,-34,-36,-81c0,0,0,-49,42,-83l152,95l64,-116c0,0,-71,-58,-148,-58c0,0,-80,0,-146,63c0,0,-65,64,-65,144c0,0,0,77,62,131c0,0,61,53,142,53c0,0,138,0,296,-205L165,-393l-57,-40Z"
id="f6_cx"
transform="scale(0.001,-0.001)"/>

<path d="M342,324c0,0,45,0,75,34c0,0,31,33,31,100V822H165l66,-58V390c0,0,32,-66,111,-66ZM853,-49L762,8V822H509l65,-58V455c0,0,0,-134,-51,-185c0,0,-52,-52,-127,-52c0,0,-98,0,-195,99c0,0,-97,99,-97,209V822H0l-45,76l14,31H1027l46,-76l-14,-31H823l66,-58V-39L853,-49Z"
id="f6_bo"
transform="scale(0.001,-0.001)"/>

<path d="M827,-49L736,8V205c0,0,-84,-84,-209,-84c0,0,-130,0,-237,91c0,0,-108,92,-108,196c0,0,0,79,61,137C243,545,66,672,66,791c0,0,0,75,52,124c0,0,53,49,134,49c0,0,164,0,260,-237L451,694c0,0,-55,114,-119,163l-31,5c0,0,-44,0,-77,-32c0,0,-33,-31,-33,-78c0,0,0,-86,113,-165c0,0,60,27,133,27l67,-4l75,-89L564,490l-51,7H493c0,0,-90,0,-142,-43c0,0,-52,-43,-52,-104c0,0,0,-60,51,-109c0,0,33,-16,84,-16c0,0,89,0,177,47c0,0,89,47,125,137V822H567l-46,76l14,31h466l46,-76l-14,-31H798l65,-58V-39L827,-49Z"
id="f6_bs"
transform="scale(0.001,-0.001)"/>

<path d="M483,-305L295,-10c0,0,-90,22,-156,74l41,170h66L351,63c0,0,126,4,207,62c0,0,82,58,82,139c0,0,0,37,-18,71L365,266c0,0,-110,15,-197,102c0,0,-87,87,-87,176c0,0,0,69,59,117c0,0,59,48,172,48H550V822H0l-45,76l14,31H550c0,0,-142,122,-142,255c0,0,0,78,52,133c0,0,52,55,140,55c0,0,98,0,176,-64l-23,-69c0,0,-53,32,-104,32c0,0,-56,0,-94,-36c0,0,-39,-36,-39,-95c0,0,0,-109,112,-211H822l46,-76L854,822H603l66,-58V585H373c0,0,-184,0,-184,-99c0,0,0,-48,63,-101l310,78c0,0,86,-34,141,-99c0,0,55,-65,55,-142c0,0,0,-109,-98,-179c0,0,-98,-69,-254,-69L599,-216L483,-305Z"
id="f6_ao"
transform="scale(0.001,-0.001)"/>

<path d="M761,293c0,0,127,0,169,94V532c0,0,-68,46,-145,46c0,0,-76,0,-121,-46c0,0,-45,-45,-45,-107c0,0,0,-61,44,-110c0,0,47,-22,98,-22ZM657,67c0,0,166,0,273,107v55c0,0,-45,-36,-111,-36c0,0,-110,0,-207,90c0,0,-97,90,-97,194c0,0,0,85,66,148c0,0,65,63,155,63l48,-5L930,603V822H376l62,-55V579c0,0,0,-60,-23,-102c0,0,-24,-42,-148,-190c0,0,66,-104,175,-162c0,0,108,-58,215,-58ZM1021,-49L930,8V53c0,0,-105,-83,-264,-83c0,0,-177,0,-339,128C327,98,165,226,90,429l34,77H296c0,0,19,39,19,102l-2,214H0l-45,76l14,31H1195l46,-76l-14,-31H992l65,-58V-39l-36,-10Z"
id="f6_ba"
transform="scale(0.001,-0.001)"/>

<path d="M513,460c0,0,61,81,61,179c0,0,0,87,-45,143c0,0,-45,57,-116,57c0,0,-63,0,-102,-43c0,0,-39,-43,-39,-110c0,0,0,-90,68,-151c0,0,68,-61,173,-75ZM581,-83L278,167l-41,-4c0,0,-99,0,-130,37l47,168l51,12l78,-79c0,0,110,40,183,105c0,0,-141,23,-231,107c0,0,-90,84,-90,193c0,0,0,69,37,116H0l-45,76l14,31H1134l45,-76l-13,-31H930l66,-58V-39L959,-49L869,8V822H588c0,0,51,-44,75,-109c0,0,25,-64,25,-122c0,0,0,-105,-81,-213c0,0,-80,-108,-240,-176L658,18l2,-25L581,-83Z"
id="f6_c8"
transform="scale(0.001,-0.001)"/>

<path d="M226,-49c0,0,-66,24,-102,78c0,0,32,69,82,101c0,0,55,-20,100,-80c0,0,-26,-66,-80,-99Z"
id="f6_pc"
transform="scale(0.001,-0.001)"/>

<path d="M953,-525L785,-306c0,0,-99,119,-191,119c0,0,-59,0,-96,-34c0,0,-37,-35,-37,-82c0,0,0,-49,43,-83l151,95l65,-116c0,0,-71,-58,-149,-58c0,0,-79,0,-145,63c0,0,-65,64,-65,145c0,0,0,76,61,130c0,0,62,55,143,55c0,0,40,0,77,-14L605,37C605,37,552,18,498,18c0,0,-151,0,-288,115C210,133,73,248,73,388c0,0,0,113,84,184c0,0,84,71,222,73H524V822H0l-45,76l14,31H842l46,-76L874,822H567l84,-73V519l-3,2l3,-3H408c0,0,-93,0,-153,-52c0,0,-59,-52,-59,-128c0,0,0,-121,110,-188c0,0,53,-17,105,-17c0,0,92,0,153,43L535,318l101,49L773,203c0,0,-20,-67,-87,-122l75,-247c0,0,81,-76,249,-319l-57,-40Z"
id="f6_mw"
transform="scale(0.001,-0.001)"/>

<path d="M0,822l-45,76l14,31H38L84,853L70,822Z"
id="f6_nl"
transform="scale(0.001,-0.001)"/>

<path d="M959,-49L869,8V367c0,0,-32,-13,-64,-13c0,0,-50,0,-110,25c0,0,23,-52,23,-109c0,0,0,-103,-70,-170c0,0,-70,-66,-182,-66c0,0,-110,0,-222,82c0,0,-111,83,-213,293l68,42c0,0,72,-155,152,-231c0,0,81,-76,178,-76c0,0,83,0,131,49c0,0,48,48,48,117c0,0,0,54,-30,100c0,0,-31,47,-91,65L325,391L257,512c0,0,68,53,156,56c0,0,140,72,140,179c0,0,0,69,-52,99c0,0,-4,1,-11,1c-19,0,-66,-4,-123,-30c0,0,-78,-35,-142,-96L150,823c0,0,119,117,253,117c0,0,98,0,175,-71c0,0,77,-70,77,-159c0,0,0,-103,-94,-180c0,0,39,-23,73,-56c0,0,52,-22,109,-22c0,0,77,0,126,38V822H727l-46,76l14,31h509l-136,104c0,0,-90,65,-157,65c0,0,-68,0,-152,-53l-71,118c0,0,77,65,163,65c0,0,116,0,246,-120L1286,930l-107,271c0,0,-71,166,-187,166c0,0,-52,0,-129,-33l-59,125c0,0,78,46,159,46c0,0,194,0,284,-271L1349,929h186l46,-76l-13,-31H1332l66,-58V-39l-37,-10L1271,8V822H930l66,-58V-39L959,-49Z"
id="f6_b8"
transform="scale(0.001,-0.001)"/>

<path d="M825,-49L735,8V217c0,0,-86,-72,-197,-72c0,0,-130,0,-238,91c0,0,-107,91,-107,204c0,0,0,55,27,105H55L12,616l14,30H574l46,-76L607,539H396c0,0,-78,-49,-78,-162c0,0,0,-70,40,-111c0,0,39,-15,94,-15c0,0,84,0,163,41c0,0,79,41,120,121V822H0l-45,76l14,31H999l46,-76l-14,-31H796l66,-58V-39L825,-49Z"
id="f6_be"
transform="scale(0.001,-0.001)"/>

<path d="M471,-26c0,0,-259,0,-448,396l70,43C93,413,240,98,442,98c0,0,79,0,132,46c0,0,54,45,54,120c0,0,0,61,-38,116c0,0,-38,54,-107,72L322,370L255,492c0,0,66,53,156,56c0,0,128,51,128,153c0,0,0,77,-65,121H0l-45,76l14,31H1123l46,-76l-14,-31H578c0,0,76,-66,76,-157c0,0,0,-95,-87,-156c0,0,52,-29,84,-64c0,0,131,134,243,134c0,0,93,0,158,-70c0,0,65,-71,65,-167c0,0,0,-142,-177,-272L851,170c0,0,173,129,173,230c0,0,0,34,-23,57c0,0,-23,23,-63,23c0,0,-104,0,-215,-141c0,0,23,-55,23,-111c0,0,0,-109,-78,-182c0,0,-78,-72,-197,-72Z"
id="f6_aq"
transform="scale(0.001,-0.001)"/>

<path d="M527,-71L52,414l34,92H277c0,0,12,32,12,72V822H0l-45,76l14,31H940l45,-76L972,822H350l66,-55V570c0,0,146,98,247,98c0,0,95,0,167,-73c0,0,71,-72,71,-167c0,0,0,-77,-53,-142c0,0,-54,-64,-159,-136l-89,99c0,0,100,70,152,121c0,0,52,52,52,105c0,0,0,34,-23,60c0,0,-22,26,-72,26c0,0,-139,0,-434,-252L610,34L611,8L527,-71Z"
id="f6_n0"
transform="scale(0.001,-0.001)"/>

<path d="M228,-49L138,8V822H0l-45,76l14,31H134c0,0,-231,362,-445,362c0,0,-87,0,-135,-49c0,0,-48,-49,-48,-116c0,0,0,-73,43,-122l-45,-32c0,0,-119,108,-119,223c0,0,0,94,74,155c0,0,73,60,181,60c0,0,161,0,316,-134c0,0,154,-133,267,-347H402l46,-76L434,822H199l65,-58V-39L228,-49Z"
id="f6_oc"
transform="scale(0.001,-0.001)"/>

<path d="M959,-49L869,8V367c0,0,-32,-13,-64,-13c0,0,-50,0,-110,25c0,0,23,-52,23,-109c0,0,0,-103,-70,-170c0,0,-70,-66,-182,-66c0,0,-110,0,-222,82c0,0,-111,83,-213,293l68,42c0,0,72,-155,152,-231c0,0,81,-76,178,-76c0,0,83,0,131,49c0,0,48,48,48,117c0,0,0,54,-30,100c0,0,-31,47,-91,65L325,391L257,512c0,0,68,53,156,56c0,0,140,72,140,179c0,0,0,69,-52,99c0,0,-4,1,-11,1c-19,0,-66,-4,-123,-30c0,0,-78,-35,-142,-96L150,823c0,0,119,117,253,117c0,0,98,0,175,-71c0,0,77,-70,77,-159c0,0,0,-103,-94,-180c0,0,39,-23,73,-56c0,0,52,-22,109,-22c0,0,77,0,126,38V822H727l-46,76l14,31h439l45,-76l-13,-31H930l66,-58V-39L959,-49Z"
id="f6_al"
transform="scale(0.001,-0.001)"/>

<path d="M228,-49L138,8V822H0l-45,76l14,31H134c0,0,-91,93,-91,202c0,0,0,105,85,170c0,0,86,65,236,65c0,0,340,0,742,-350l-50,-46c0,0,-182,135,-340,208c0,0,-158,73,-302,73c0,0,-113,0,-183,-48c0,0,-69,-48,-69,-132c0,0,0,-63,53,-142H402l46,-76L434,822H199l65,-58V-39L228,-49Z"
id="f6_nt"
transform="scale(0.001,-0.001)"/>

<path d="M283,260c0,0,122,0,209,113V513c0,0,-90,51,-160,51c0,0,-80,0,-129,-50c0,0,-49,-50,-49,-118c0,0,0,-60,35,-110c0,0,45,-26,94,-26ZM582,-49L492,8V211c0,0,-63,-54,-141,-54c0,0,-113,0,-214,92c0,0,-102,92,-102,206c0,0,0,93,69,157c0,0,69,63,163,63c0,0,34,0,66,-9L492,590V822H0l-45,76l14,31H909l46,-76L941,822H553l66,-58V521c0,0,93,104,192,104c0,0,63,0,120,-42c0,0,57,-42,82,-106L964,431l-5,9c0,0,-38,72,-110,72c0,0,-51,0,-105,-41c0,0,-53,-42,-125,-129V-39L582,-49Z"
id="f6_l1"
transform="scale(0.001,-0.001)"/>

<path d="M725,307c0,0,-95,0,-218,78c0,0,-123,78,-188,78c0,0,-54,0,-95,-34c0,0,-41,-34,-73,-100L93,362c0,0,38,88,101,146c0,0,63,59,148,59c0,0,90,0,214,-78c0,0,124,-79,188,-79c0,0,63,0,106,34c0,0,42,33,85,104l60,-40c0,0,-32,-66,-101,-134c0,0,-70,-67,-169,-67Z"
id="f7_4r"
transform="scale(0.001,-0.001)"/>

<path d="M494,385V878L152,385ZM494,0V262H20V385l498,708H628V385H775V262H628V0Z"
id="f8_o"
transform="scale(0.001,-0.001)"/>

<path d="M435,92c0,0,85,0,146,69c0,0,60,68,60,186c0,0,0,114,-60,179c0,0,-60,66,-152,66c0,0,-90,0,-154,-66c0,0,-63,-65,-63,-171c0,0,0,-70,30,-133c0,0,29,-64,82,-97c0,0,52,-33,111,-33Zm2,-110c0,0,-168,0,-273,123C164,105,58,228,58,512c0,0,0,317,117,461c0,0,102,125,275,125c0,0,129,0,211,-72c0,0,82,-72,99,-200L626,815c0,0,-18,79,-51,115c0,0,-54,58,-134,58c0,0,-64,0,-112,-36c0,0,-63,-46,-99,-135c0,0,-37,-89,-38,-253c0,0,48,74,118,110c0,0,70,36,147,36c0,0,134,0,228,-99c0,0,94,-99,94,-256c0,0,0,-103,-44,-191C735,164,691,75,613,28c0,0,-77,-46,-176,-46Z"
id="f8_q"
transform="scale(0.001,-0.001)"/>


</defs>
</svg>