<?xml version="1.0" encoding="UTF-8" standalone="no"?>
<!DOCTYPE svg PUBLIC "-//W3C//DTD SVG 1.1//EN"
"http://www.w3.org/Graphics/SVG/1.1/DTD/svg11.dtd">
<svg viewBox="0 0 641 910" version="1.1" xmlns="http://www.w3.org/2000/svg" xmlns:xlink="http://www.w3.org/1999/xlink">
<defs>
<clipPath id="c0_57"><path d="M0,909.8V0H641.7V909.8Z"/></clipPath>
<clipPath id="c1_57"><path d="M0,908.6V0H641.7V908.6Z"/></clipPath>
<style type="text/css"><![CDATA[
.g0_57{
fill: #FFFFFF;
}
.g1_57{
}
]]></style>
</defs>
<path d="M0,0H641.7V909.8H0V0Z" class="g0_57"/>
<path d="M0,0H641.7V909.8H0V0Z" class="g0_57"/>
<g clip-path="url(#c0_57)">
<path d="M0,-45489.5H641.7V60956H0V-45489.5Z" class="g0_57"/>
</g>
<path d="M0,0H641.7V908.6H0V0Z" class="g0_57"/>
<path d="M19.5,60.7H602.7v1.2H19.5V60.7Z" class="g1_57"/>
<g clip-path="url(#c1_57)">
<path d="M0,61.9H641.7V909.8H0V61.9Z" class="g0_57"/>
<g fill="#000000" >
<use xlink:href="#f5_bz" transform="matrix(14,0,0,14,286.8,96.3)" />
<use xlink:href="#f5_bt" transform="matrix(14,0,0,14,301.4,96.3)" />
<use xlink:href="#f5_c7" transform="matrix(14,0,0,14,314.4,96.3)" />
<use xlink:href="#f5_ct" transform="matrix(14,0,0,14,328.1,96.3)" />
<use xlink:href="#f6_g" transform="matrix(14,0,0,14,197.4,129.5)" />
<use xlink:href="#f6_bp" transform="matrix(14,0,0,14,203.3,129.5)" />
<use xlink:href="#f6_bg" transform="matrix(14,0,0,14,215.6,129.5)" />
<use xlink:href="#f6_dr" transform="matrix(14,0,0,14,230.3,129.5)" />
<use xlink:href="#f6_y" transform="matrix(14,0,0,14,235.5,129.5)" />
<use xlink:href="#f6_bx" transform="matrix(14,0,0,14,248.2,129.5)" />
<use xlink:href="#f6_jj" transform="matrix(14,0,0,14,260.4,129.5)" />
<use xlink:href="#f6_ct" transform="matrix(14,0,0,14,273.4,129.5)" />
<use xlink:href="#f6_c1" transform="matrix(14,0,0,14,284.6,129.5)" />
<use xlink:href="#f6_d4" transform="matrix(14,0,0,14,292.6,129.5)" />
<use xlink:href="#f6_bx" transform="matrix(14,0,0,14,298.7,129.5)" />
<use xlink:href="#f6_ct" transform="matrix(14,0,0,14,311,129.5)" />
<use xlink:href="#f6_bb" transform="matrix(14,0,0,14,316.6,129.5)" />
<use xlink:href="#f6_d8" transform="matrix(14,0,0,14,329.2,129.5)" />
<use xlink:href="#f6_dj" transform="matrix(14,0,0,14,333.5,130.3)" />
<use xlink:href="#f6_bz" transform="matrix(14,0,0,14,340.5,129.5)" />
<use xlink:href="#f6_oz" transform="matrix(14,0,0,14,354,129.5)" />
<use xlink:href="#f6_bh" transform="matrix(14,0,0,14,359.5,129.5)" />
<use xlink:href="#f6_oe" transform="matrix(14,0,0,14,376.9,129.4)" />
<use xlink:href="#f6_c3" transform="matrix(14,0,0,14,376.3,129.5)" />
<use xlink:href="#f6_ct" transform="matrix(14,0,0,14,391,129.5)" />
<use xlink:href="#f6_pc" transform="matrix(14,0,0,14,396.6,129.5)" />
<use xlink:href="#f6_pc" transform="matrix(14,0,0,14,400.9,129.5)" />
<use xlink:href="#f6_pc" transform="matrix(14,0,0,14,405.2,129.5)" />
<use xlink:href="#f6_pc" transform="matrix(14,0,0,14,409.4,129.5)" />
<use xlink:href="#f6_pc" transform="matrix(14,0,0,14,413.7,129.5)" />
<use xlink:href="#f6_h" transform="matrix(14,0,0,14,418,129.5)" />
<use xlink:href="#f6_bz" transform="matrix(14,0,0,14,199.7,162.7)" />
<use xlink:href="#f6_bt" transform="matrix(14,0,0,14,213,162.7)" />
<use xlink:href="#f6_c7" transform="matrix(14,0,0,14,224.7,162.7)" />
<use xlink:href="#f6_ct" transform="matrix(14,0,0,14,236.8,162.7)" />
<use xlink:href="#f6_c1" transform="matrix(14,0,0,14,248.1,162.7)" />
<use xlink:href="#f6_d4" transform="matrix(14,0,0,14,256.1,162.7)" />
<use xlink:href="#f6_bh" transform="matrix(14,0,0,14,262.1,162.7)" />
<use xlink:href="#f6_oe" transform="matrix(14,0,0,14,279.5,162.6)" />
<use xlink:href="#f6_bz" transform="matrix(14,0,0,14,278.9,162.7)" />
<use xlink:href="#f6_bt" transform="matrix(14,0,0,14,292.3,162.7)" />
<use xlink:href="#f6_bz" transform="matrix(14,0,0,14,309.6,162.7)" />
<use xlink:href="#f6_ct" transform="matrix(14,0,0,14,323,162.7)" />
<use xlink:href="#f6_c1" transform="matrix(14,0,0,14,328.6,162.7)" />
<use xlink:href="#f6_ct" transform="matrix(14,0,0,14,337,162.7)" />
<use xlink:href="#f6_c3" transform="matrix(14,0,0,14,348.3,162.7)" />
<use xlink:href="#f6_ct" transform="matrix(14,0,0,14,363,162.7)" />
<use xlink:href="#f6_l4" transform="matrix(14,0,0,14,368.6,162.7)" />
<use xlink:href="#f6_c0" transform="matrix(14,0,0,14,374.8,162.7)" />
<use xlink:href="#f6_ct" transform="matrix(14,0,0,14,387.3,162.7)" />
<use xlink:href="#f6_g" transform="matrix(14,0,0,14,398.6,162.7)" />
<use xlink:href="#f6_q" transform="matrix(14,0,0,14,404.5,162.7)" />
<use xlink:href="#f6_h" transform="matrix(14,0,0,14,416.2,162.7)" />
<use xlink:href="#f6_bz" transform="matrix(14,0,0,14,208.8,195.9)" />
<use xlink:href="#f6_ct" transform="matrix(14,0,0,14,222.2,195.9)" />
<use xlink:href="#f6_c1" transform="matrix(14,0,0,14,227.8,195.9)" />
<use xlink:href="#f6_ct" transform="matrix(14,0,0,14,236.2,195.9)" />
<use xlink:href="#f6_cu" transform="matrix(14,0,0,14,247.5,195.9)" />
<use xlink:href="#f6_cc" transform="matrix(14,0,0,14,253.1,195.9)" />
<use xlink:href="#f6_c7" transform="matrix(14,0,0,14,264.7,195.9)" />
<use xlink:href="#f6_bm" transform="matrix(14,0,0,14,276.8,195.9)" />
<use xlink:href="#f6_d4" transform="matrix(14,0,0,14,289.4,195.9)" />
<use xlink:href="#f6_c1" transform="matrix(14,0,0,14,289.5,195.9)" />
<use xlink:href="#f6_cv" transform="matrix(14,0,0,14,297.8,195.9)" />
<use xlink:href="#f6_k" transform="matrix(14,0,0,14,303.5,195.9)" />
<use xlink:href="#f6_bz" transform="matrix(14,0,0,14,314.3,195.9)" />
<use xlink:href="#f6_ct" transform="matrix(14,0,0,14,327.7,195.9)" />
<use xlink:href="#f6_c1" transform="matrix(14,0,0,14,333.3,195.9)" />
<use xlink:href="#f6_ct" transform="matrix(14,0,0,14,341.7,195.9)" />
<use xlink:href="#f6_nu" transform="matrix(14,0,0,14,353,195.9)" />
<use xlink:href="#f6_bg" transform="matrix(14,0,0,14,358.6,195.9)" />
<use xlink:href="#f6_c7" transform="matrix(14,0,0,14,372.8,195.9)" />
<use xlink:href="#f6_bm" transform="matrix(14,0,0,14,384.9,195.9)" />
<use xlink:href="#f6_d4" transform="matrix(14,0,0,14,397.5,195.9)" />
<use xlink:href="#f6_c1" transform="matrix(14,0,0,14,397.6,195.9)" />
<use xlink:href="#f6_cv" transform="matrix(14,0,0,14,406,195.9)" />
<use xlink:href="#f6_bz" transform="matrix(14,0,0,14,217.7,229.2)" />
<use xlink:href="#f6_ct" transform="matrix(14,0,0,14,231,229.2)" />
<use xlink:href="#f6_c1" transform="matrix(14,0,0,14,236.7,229.2)" />
<use xlink:href="#f6_ct" transform="matrix(14,0,0,14,245,229.2)" />
<use xlink:href="#f6_bz" transform="matrix(14,0,0,14,256.3,229.2)" />
<use xlink:href="#f6_bt" transform="matrix(14,0,0,14,269.7,229.2)" />
<use xlink:href="#f6_bm" transform="matrix(14,0,0,14,281.4,229.2)" />
<use xlink:href="#f6_d4" transform="matrix(14,0,0,14,294,229.2)" />
<use xlink:href="#f6_c1" transform="matrix(14,0,0,14,294,229.2)" />
<use xlink:href="#f6_cv" transform="matrix(14,0,0,14,302.4,229.2)" />
<use xlink:href="#f6_k" transform="matrix(14,0,0,14,308.1,229.2)" />
<use xlink:href="#f6_b9" transform="matrix(14,0,0,14,318.9,229.2)" />
<use xlink:href="#f6_d8" transform="matrix(14,0,0,14,334.4,229.2)" />
<use xlink:href="#f6_c0" transform="matrix(14,0,0,14,340.1,229.2)" />
<use xlink:href="#f6_c3" transform="matrix(14,0,0,14,352.6,229.2)" />
<use xlink:href="#f6_bx" transform="matrix(14,0,0,14,373,229.2)" />
<use xlink:href="#f6_d8" transform="matrix(14,0,0,14,385.3,229.2)" />
<use xlink:href="#f6_c3" transform="matrix(14,0,0,14,390.9,229.2)" />
<use xlink:href="#f6_d4" transform="matrix(14,0,0,14,405.7,229.2)" />
<use xlink:href="#f6_pc" transform="matrix(14,0,0,14,405.6,229.2)" />
<use xlink:href="#f6_pc" transform="matrix(14,0,0,14,409.9,229.2)" />
<use xlink:href="#f6_c7" transform="matrix(14,0,0,14,279,262.4)" />
<use xlink:href="#f6_ct" transform="matrix(14,0,0,14,291.1,262.4)" />
<use xlink:href="#f6_c3" transform="matrix(14,0,0,14,296.7,262.4)" />
<use xlink:href="#f6_ct" transform="matrix(14,0,0,14,311.4,262.4)" />
<use xlink:href="#f6_bv" transform="matrix(14,0,0,14,322.7,262.4)" />
<use xlink:href="#f6_ct" transform="matrix(14,0,0,14,334.5,262.4)" />
<use xlink:href="#f6_nn" transform="matrix(14,0,0,14,340.2,262.4)" />
<use xlink:href="#f6_ke" transform="matrix(14,0,0,14,340.2,262.4)" />
<use xlink:href="#f6_dr" transform="matrix(14,0,0,14,354.4,262.4)" />
<use xlink:href="#f6_e6" transform="matrix(14,0,0,14,354.4,262.4)" />
<use xlink:href="#f6_by" transform="matrix(14,0,0,14,366.4,262.4)" />
<use xlink:href="#f6_cw" transform="matrix(14,0,0,14,380.9,262.3)" />
<use xlink:href="#f6_bg" transform="matrix(14,0,0,14,380.4,262.4)" />
<use xlink:href="#f6_cv" transform="matrix(14,0,0,14,394.7,262.4)" />
<use xlink:href="#f6_pc" transform="matrix(14,0,0,14,400.3,262.4)" />
<use xlink:href="#f6_pc" transform="matrix(14,0,0,14,404.6,262.4)" />
<use xlink:href="#f6_pc" transform="matrix(14,0,0,14,408.8,262.4)" />
<use xlink:href="#f6_pc" transform="matrix(14,0,0,14,413.1,262.4)" />
<use xlink:href="#f6_pc" transform="matrix(14,0,0,14,417.4,262.4)" />
<use xlink:href="#f6_bm" transform="matrix(14,0,0,14,96.6,320.8)" />
<use xlink:href="#f6_d8" transform="matrix(14,0,0,14,109.2,320.8)" />
<use xlink:href="#f6_c1" transform="matrix(14,0,0,14,114.9,320.8)" />
<use xlink:href="#f6_cv" transform="matrix(14,0,0,14,123.2,320.8)" />
<use xlink:href="#f6_c1" transform="matrix(14,0,0,14,134.5,320.8)" />
<use xlink:href="#f6_d4" transform="matrix(14,0,0,14,142.5,320.8)" />
<use xlink:href="#f6_bg" transform="matrix(14,0,0,14,148.6,320.8)" />
<use xlink:href="#f6_cv" transform="matrix(14,0,0,14,162.8,320.8)" />
<use xlink:href="#f6_c7" transform="matrix(14,0,0,14,168.4,320.8)" />
<use xlink:href="#f6_c1" transform="matrix(14,0,0,14,180.5,320.8)" />
<use xlink:href="#f6_cv" transform="matrix(14,0,0,14,188.9,320.8)" />
<use xlink:href="#f6_k" transform="matrix(14,0,0,14,194.5,320.8)" />
<use xlink:href="#f6_bq" transform="matrix(14,0,0,14,205.4,320.8)" />
<use xlink:href="#f6_ct" transform="matrix(14,0,0,14,218.6,320.8)" />
<use xlink:href="#f6_dj" transform="matrix(14,0,0,14,218.8,321.3)" />
<use xlink:href="#f6_cb" transform="matrix(14,0,0,14,224.2,320.8)" />
<use xlink:href="#f6_cx" transform="matrix(14,0,0,14,239.1,320.7)" />
<use xlink:href="#f6_bx" transform="matrix(14,0,0,14,244.8,320.8)" />
<use xlink:href="#f6_ct" transform="matrix(14,0,0,14,257.1,320.8)" />
<use xlink:href="#f6_dj" transform="matrix(14,0,0,14,257.3,321.3)" />
<use xlink:href="#f6_bs" transform="matrix(14,0,0,14,262.7,320.8)" />
<use xlink:href="#f6_cv" transform="matrix(14,0,0,14,276.7,320.8)" />
<use xlink:href="#f6_g" transform="matrix(14,0,0,14,288,320.8)" />
<use xlink:href="#f6_q" transform="matrix(14,0,0,14,293.8,320.8)" />
<use xlink:href="#f6_h" transform="matrix(14,0,0,14,305.5,320.8)" />
<use xlink:href="#f6_k" transform="matrix(14,0,0,14,311.4,320.8)" />
<use xlink:href="#f6_bz" transform="matrix(14,0,0,14,322.2,320.8)" />
<use xlink:href="#f6_ct" transform="matrix(14,0,0,14,335.6,320.8)" />
<use xlink:href="#f6_c1" transform="matrix(14,0,0,14,341.2,320.8)" />
<use xlink:href="#f6_ct" transform="matrix(14,0,0,14,349.6,320.8)" />
<use xlink:href="#f6_cu" transform="matrix(14,0,0,14,360.9,320.8)" />
<use xlink:href="#f6_cc" transform="matrix(14,0,0,14,366.5,320.8)" />
<use xlink:href="#f6_c7" transform="matrix(14,0,0,14,378.1,320.8)" />
<use xlink:href="#f6_bm" transform="matrix(14,0,0,14,390.2,320.8)" />
<use xlink:href="#f6_d4" transform="matrix(14,0,0,14,402.8,320.8)" />
<use xlink:href="#f6_c1" transform="matrix(14,0,0,14,402.8,320.8)" />
<use xlink:href="#f6_cv" transform="matrix(14,0,0,14,411.2,320.8)" />
<use xlink:href="#f6_k" transform="matrix(14,0,0,14,416.8,320.8)" />
<use xlink:href="#f6_bz" transform="matrix(14,0,0,14,427.7,320.8)" />
<use xlink:href="#f6_ct" transform="matrix(14,0,0,14,441.1,320.8)" />
<use xlink:href="#f6_c1" transform="matrix(14,0,0,14,446.7,320.8)" />
<use xlink:href="#f6_ct" transform="matrix(14,0,0,14,455.1,320.8)" />
<use xlink:href="#f6_nu" transform="matrix(14,0,0,14,466.4,320.8)" />
<use xlink:href="#f6_bg" transform="matrix(14,0,0,14,472,320.8)" />
<use xlink:href="#f6_c7" transform="matrix(14,0,0,14,486.2,320.8)" />
<use xlink:href="#f6_bm" transform="matrix(14,0,0,14,498.3,320.8)" />
<use xlink:href="#f6_d4" transform="matrix(14,0,0,14,510.9,320.8)" />
<use xlink:href="#f6_c1" transform="matrix(14,0,0,14,511,320.8)" />
<use xlink:href="#f6_cv" transform="matrix(14,0,0,14,519.4,320.8)" />
<use xlink:href="#f6_bz" transform="matrix(14,0,0,14,97.7,354.1)" />
<use xlink:href="#f6_ct" transform="matrix(14,0,0,14,111,354.1)" />
<use xlink:href="#f6_c1" transform="matrix(14,0,0,14,116.7,354.1)" />
<use xlink:href="#f6_ct" transform="matrix(14,0,0,14,125,354.1)" />
<use xlink:href="#f6_bz" transform="matrix(14,0,0,14,136.3,354.1)" />
<use xlink:href="#f6_bt" transform="matrix(14,0,0,14,149.7,354.1)" />
<use xlink:href="#f6_bm" transform="matrix(14,0,0,14,161.4,354.1)" />
<use xlink:href="#f6_d4" transform="matrix(14,0,0,14,174,354.1)" />
<use xlink:href="#f6_c1" transform="matrix(14,0,0,14,174.1,354.1)" />
<use xlink:href="#f6_d8" transform="matrix(14,0,0,14,182.4,354.1)" />
<use xlink:href="#f6_bz" transform="matrix(14,0,0,14,193.7,354.1)" />
<use xlink:href="#f6_d8" transform="matrix(14,0,0,14,207.1,354.1)" />
<use xlink:href="#f6_c1" transform="matrix(14,0,0,14,212.7,354.1)" />
<use xlink:href="#f6_c0" transform="matrix(14,0,0,14,221.1,354.1)" />
<use xlink:href="#f6_d8" transform="matrix(14,0,0,14,233.6,354.1)" />
<use xlink:href="#f6_bt" transform="matrix(14,0,0,14,244.9,354.1)" />
<use xlink:href="#f6_ct" transform="matrix(14,0,0,14,256.6,354.1)" />
<use xlink:href="#f6_be" transform="matrix(14,0,0,14,262.2,354.1)" />
<use xlink:href="#f6_d4" transform="matrix(14,0,0,14,276.4,354.1)" />
<use xlink:href="#f6_pc" transform="matrix(14,0,0,14,276.2,354.1)" />
<use xlink:href="#f6_pc" transform="matrix(14,0,0,14,280.5,354.1)" />
<use xlink:href="#f6_pc" transform="matrix(14,0,0,14,284.8,354.1)" />
<use xlink:href="#f6_pc" transform="matrix(14,0,0,14,289,354.1)" />
<use xlink:href="#f6_pc" transform="matrix(14,0,0,14,293.3,354.1)" />
<use xlink:href="#f6_c7" transform="matrix(14,0,0,14,376.9,354.1)" />
<use xlink:href="#f6_ct" transform="matrix(14,0,0,14,389,354.1)" />
<use xlink:href="#f6_c3" transform="matrix(14,0,0,14,394.6,354.1)" />
<use xlink:href="#f6_ct" transform="matrix(14,0,0,14,409.3,354.1)" />
<use xlink:href="#f6_bv" transform="matrix(14,0,0,14,420.6,354.1)" />
<use xlink:href="#f6_ct" transform="matrix(14,0,0,14,432.5,354.1)" />
<use xlink:href="#f6_nn" transform="matrix(14,0,0,14,438.1,354.1)" />
<use xlink:href="#f6_ke" transform="matrix(14,0,0,14,438.1,354.1)" />
<use xlink:href="#f6_dr" transform="matrix(14,0,0,14,452.3,354.1)" />
<use xlink:href="#f6_e6" transform="matrix(14,0,0,14,452.3,354.1)" />
<use xlink:href="#f6_by" transform="matrix(14,0,0,14,464.4,354.1)" />
<use xlink:href="#f6_cw" transform="matrix(14,0,0,14,478.9,354)" />
<use xlink:href="#f6_bg" transform="matrix(14,0,0,14,478.3,354.1)" />
<use xlink:href="#f6_cv" transform="matrix(14,0,0,14,492.6,354.1)" />
<use xlink:href="#f6_pc" transform="matrix(14,0,0,14,498.2,354.1)" />
<use xlink:href="#f6_pc" transform="matrix(14,0,0,14,502.5,354.1)" />
<use xlink:href="#f6_pc" transform="matrix(14,0,0,14,506.7,354.1)" />
<use xlink:href="#f6_pc" transform="matrix(14,0,0,14,511,354.1)" />
<use xlink:href="#f6_pc" transform="matrix(14,0,0,14,515.3,354.1)" />
<use xlink:href="#f6_pc" transform="matrix(14,0,0,14,519.6,354.1)" />
<use xlink:href="#f6_e6" transform="matrix(14,0,0,14,124.1,412.5)" />
<use xlink:href="#f6_by" transform="matrix(14,0,0,14,136.1,412.5)" />
<use xlink:href="#f6_cw" transform="matrix(14,0,0,14,150.6,412.4)" />
<use xlink:href="#f6_bg" transform="matrix(14,0,0,14,150.1,412.5)" />
<use xlink:href="#f6_cv" transform="matrix(14,0,0,14,164.3,412.5)" />
<use xlink:href="#f6_c1" transform="matrix(14,0,0,14,175.6,412.5)" />
<use xlink:href="#f6_d8" transform="matrix(14,0,0,14,184,412.5)" />
<use xlink:href="#f6_c1" transform="matrix(14,0,0,14,195.3,412.5)" />
<use xlink:href="#f6_dj" transform="matrix(14,0,0,14,200.1,412.9)" />
<use xlink:href="#f6_bb" transform="matrix(14,0,0,14,203.7,412.5)" />
<use xlink:href="#f6_bc" transform="matrix(14,0,0,14,222,412.5)" />
<use xlink:href="#f6_bo" transform="matrix(14,0,0,14,235.9,412.5)" />
<use xlink:href="#f6_d8" transform="matrix(14,0,0,14,250.2,412.5)" />
<use xlink:href="#f6_c1" transform="matrix(14,0,0,14,255.8,412.5)" />
<use xlink:href="#f6_d4" transform="matrix(14,0,0,14,263.8,412.5)" />
<use xlink:href="#f6_c3" transform="matrix(14,0,0,14,269.9,412.5)" />
<use xlink:href="#f6_ct" transform="matrix(14,0,0,14,284.6,412.5)" />
<use xlink:href="#f6_l4" transform="matrix(14,0,0,14,290.2,412.5)" />
<use xlink:href="#f6_c0" transform="matrix(14,0,0,14,296.4,412.5)" />
<use xlink:href="#f6_d8" transform="matrix(14,0,0,14,309,412.5)" />
<use xlink:href="#f6_g" transform="matrix(14,0,0,14,320.3,412.5)" />
<use xlink:href="#f6_n8" transform="matrix(14,0,0,14,326.1,412.5)" />
<use xlink:href="#f6_h" transform="matrix(14,0,0,14,336.5,412.5)" />
<use xlink:href="#f6_k" transform="matrix(14,0,0,14,342.4,412.5)" />
<use xlink:href="#f6_bz" transform="matrix(14,0,0,14,347.6,412.5)" />
<use xlink:href="#f6_d5" transform="matrix(14,0,0,14,361.1,412.5)" />
<use xlink:href="#f6_be" transform="matrix(14,0,0,14,366.6,412.5)" />
<use xlink:href="#f6_bk" transform="matrix(14,0,0,14,380.6,412.5)" />
<use xlink:href="#f6_bv" transform="matrix(14,0,0,14,392.2,412.5)" />
<use xlink:href="#f6_bk" transform="matrix(14,0,0,14,404,412.5)" />
<use xlink:href="#f6_k" transform="matrix(14,0,0,14,415.6,412.5)" />
<use xlink:href="#f6_bz" transform="matrix(14,0,0,14,426.5,412.5)" />
<use xlink:href="#f6_d5" transform="matrix(14,0,0,14,439.9,412.5)" />
<use xlink:href="#f6_bh" transform="matrix(14,0,0,14,445.5,412.5)" />
<use xlink:href="#f6_bk" transform="matrix(14,0,0,14,462.3,412.5)" />
<use xlink:href="#f6_bv" transform="matrix(14,0,0,14,473.8,412.5)" />
<use xlink:href="#f6_bk" transform="matrix(14,0,0,14,485.7,412.5)" />
<use xlink:href="#f6_bz" transform="matrix(14,0,0,14,81.7,445.7)" />
<use xlink:href="#f6_d5" transform="matrix(14,0,0,14,95.1,445.7)" />
<use xlink:href="#f6_bq" transform="matrix(14,0,0,14,100.7,445.7)" />
<use xlink:href="#f6_ct" transform="matrix(14,0,0,14,113.9,445.7)" />
<use xlink:href="#f6_bt" transform="matrix(14,0,0,14,119.5,445.7)" />
<use xlink:href="#f6_d4" transform="matrix(14,0,0,14,131.3,445.7)" />
<use xlink:href="#f6_lh" transform="matrix(14,0,0,14,136.9,445.7)" />
<use xlink:href="#f6_c0" transform="matrix(14,0,0,14,146.1,445.7)" />
<use xlink:href="#f6_ct" transform="matrix(14,0,0,14,158.6,445.7)" />
<use xlink:href="#f6_bt" transform="matrix(14,0,0,14,164.3,445.7)" />
<use xlink:href="#f6_d4" transform="matrix(14,0,0,14,176.1,445.7)" />
<use xlink:href="#f6_am" transform="matrix(14,0,0,14,181.6,445.7)" />
<use xlink:href="#f6_aq" transform="matrix(14,0,0,14,203.1,445.7)" />
<use xlink:href="#f6_pc" transform="matrix(14,0,0,14,218.8,445.7)" />
<use xlink:href="#f6_pc" transform="matrix(14,0,0,14,223.1,445.7)" />
<use xlink:href="#f6_pc" transform="matrix(14,0,0,14,227.4,445.7)" />
<use xlink:href="#f6_pc" transform="matrix(14,0,0,14,231.7,445.7)" />
<use xlink:href="#f6_pc" transform="matrix(14,0,0,14,235.9,445.7)" />
<use xlink:href="#f6_c7" transform="matrix(14,0,0,14,381.8,445.7)" />
<use xlink:href="#f6_ct" transform="matrix(14,0,0,14,393.9,445.7)" />
<use xlink:href="#f6_c3" transform="matrix(14,0,0,14,399.5,445.7)" />
<use xlink:href="#f6_ct" transform="matrix(14,0,0,14,414.2,445.7)" />
<use xlink:href="#f6_bv" transform="matrix(14,0,0,14,425.5,445.7)" />
<use xlink:href="#f6_ct" transform="matrix(14,0,0,14,437.4,445.7)" />
<use xlink:href="#f6_nn" transform="matrix(14,0,0,14,443,445.7)" />
<use xlink:href="#f6_ke" transform="matrix(14,0,0,14,443,445.7)" />
<use xlink:href="#f6_dr" transform="matrix(14,0,0,14,457.2,445.7)" />
<use xlink:href="#f6_e6" transform="matrix(14,0,0,14,457.2,445.7)" />
<use xlink:href="#f6_by" transform="matrix(14,0,0,14,469.3,445.7)" />
<use xlink:href="#f6_cw" transform="matrix(14,0,0,14,483.8,445.6)" />
<use xlink:href="#f6_bg" transform="matrix(14,0,0,14,483.2,445.7)" />
<use xlink:href="#f6_cv" transform="matrix(14,0,0,14,497.5,445.7)" />
<use xlink:href="#f6_pc" transform="matrix(14,0,0,14,503.1,445.7)" />
<use xlink:href="#f6_pc" transform="matrix(14,0,0,14,507.4,445.7)" />
<use xlink:href="#f6_pc" transform="matrix(14,0,0,14,511.7,445.7)" />
<use xlink:href="#f6_pc" transform="matrix(14,0,0,14,516,445.7)" />
<use xlink:href="#f6_8l" transform="matrix(14,0,0,14,520.2,445.7)" />
<use xlink:href="#f6_bg" transform="matrix(14,0,0,14,109.2,504.2)" />
<use xlink:href="#f6_ct" transform="matrix(14,0,0,14,123.4,504.2)" />
<use xlink:href="#f6_bb" transform="matrix(14,0,0,14,129,504.2)" />
<use xlink:href="#f6_cv" transform="matrix(14,0,0,14,141.7,504.2)" />
<use xlink:href="#f6_c1" transform="matrix(14,0,0,14,152.9,504.2)" />
<use xlink:href="#f6_d4" transform="matrix(14,0,0,14,160.9,504.2)" />
<use xlink:href="#f6_by" transform="matrix(14,0,0,14,167,504.2)" />
<use xlink:href="#f6_l1" transform="matrix(14,0,0,14,180.9,504.2)" />
<use xlink:href="#f6_bp" transform="matrix(14,0,0,14,192.8,504.2)" />
<use xlink:href="#f6_cv" transform="matrix(14,0,0,14,205.1,504.2)" />
<use xlink:href="#f6_bp" transform="matrix(14,0,0,14,216.4,504.2)" />
<use xlink:href="#f6_bt" transform="matrix(14,0,0,14,228.7,504.2)" />
<use xlink:href="#f6_bz" transform="matrix(14,0,0,14,246.1,504.2)" />
<use xlink:href="#f6_ct" transform="matrix(14,0,0,14,259.4,504.2)" />
<use xlink:href="#f6_bg" transform="matrix(14,0,0,14,270.7,504.2)" />
<use xlink:href="#f6_ct" transform="matrix(14,0,0,14,285,504.2)" />
<use xlink:href="#f6_bb" transform="matrix(14,0,0,14,290.6,504.2)" />
<use xlink:href="#f6_cv" transform="matrix(14,0,0,14,303.2,504.2)" />
<use xlink:href="#f6_k" transform="matrix(14,0,0,14,308.8,504.2)" />
<use xlink:href="#f6_bz" transform="matrix(14,0,0,14,314.1,504.2)" />
<use xlink:href="#f6_ct" transform="matrix(14,0,0,14,327.4,504.2)" />
<use xlink:href="#f6_dj" transform="matrix(14,0,0,14,327.6,504.6)" />
<use xlink:href="#f6_bb" transform="matrix(14,0,0,14,333,504.2)" />
<use xlink:href="#f6_cw" transform="matrix(14,0,0,14,346.2,504.1)" />
<use xlink:href="#f6_be" transform="matrix(14,0,0,14,351.3,504.2)" />
<use xlink:href="#f6_c1" transform="matrix(14,0,0,14,365.3,504.2)" />
<use xlink:href="#f6_bo" transform="matrix(14,0,0,14,373.7,504.2)" />
<use xlink:href="#f6_d8" transform="matrix(14,0,0,14,388,504.2)" />
<use xlink:href="#f6_c1" transform="matrix(14,0,0,14,393.6,504.2)" />
<use xlink:href="#f6_cv" transform="matrix(14,0,0,14,402,504.2)" />
<use xlink:href="#f6_k" transform="matrix(14,0,0,14,407.6,504.2)" />
<use xlink:href="#f6_bz" transform="matrix(14,0,0,14,418.5,504.2)" />
<use xlink:href="#f6_ct" transform="matrix(14,0,0,14,431.9,504.2)" />
<use xlink:href="#f6_dj" transform="matrix(14,0,0,14,432.1,504.6)" />
<use xlink:href="#f6_bb" transform="matrix(14,0,0,14,437.5,504.2)" />
<use xlink:href="#f6_cw" transform="matrix(14,0,0,14,450.6,504.1)" />
<use xlink:href="#f6_be" transform="matrix(14,0,0,14,455.8,504.2)" />
<use xlink:href="#f6_c1" transform="matrix(14,0,0,14,469.7,504.2)" />
<use xlink:href="#f6_bo" transform="matrix(14,0,0,14,478.1,504.2)" />
<use xlink:href="#f6_d8" transform="matrix(14,0,0,14,492.5,504.2)" />
<use xlink:href="#f6_c1" transform="matrix(14,0,0,14,498.1,504.2)" />
<use xlink:href="#f6_cv" transform="matrix(14,0,0,14,506.5,504.2)" />
<use xlink:href="#f6_bz" transform="matrix(14,0,0,14,100,537.4)" />
<use xlink:href="#f6_ct" transform="matrix(14,0,0,14,113.3,537.4)" />
<use xlink:href="#f6_dj" transform="matrix(14,0,0,14,113.5,537.8)" />
<use xlink:href="#f6_bb" transform="matrix(14,0,0,14,119,537.4)" />
<use xlink:href="#f6_cw" transform="matrix(14,0,0,14,132.1,537.3)" />
<use xlink:href="#f6_be" transform="matrix(14,0,0,14,137.2,537.4)" />
<use xlink:href="#f6_c1" transform="matrix(14,0,0,14,151.2,537.4)" />
<use xlink:href="#f6_bo" transform="matrix(14,0,0,14,159.6,537.4)" />
<use xlink:href="#f6_d8" transform="matrix(14,0,0,14,174,537.4)" />
<use xlink:href="#f6_c1" transform="matrix(14,0,0,14,185.2,537.4)" />
<use xlink:href="#f6_cv" transform="matrix(14,0,0,14,193.6,537.4)" />
<use xlink:href="#f6_cb" transform="matrix(14,0,0,14,204.9,537.4)" />
<use xlink:href="#f6_d4" transform="matrix(14,0,0,14,219.9,537.4)" />
<use xlink:href="#f6_c7" transform="matrix(14,0,0,14,219.8,537.4)" />
<use xlink:href="#f6_ct" transform="matrix(14,0,0,14,231.9,537.4)" />
<use xlink:href="#f6_br" transform="matrix(14,0,0,14,243.2,537.4)" />
<use xlink:href="#f6_d4" transform="matrix(14,0,0,14,254.4,537.4)" />
<use xlink:href="#f6_bg" transform="matrix(14,0,0,14,254.8,537.4)" />
<use xlink:href="#f6_d8" transform="matrix(14,0,0,14,269.1,537.4)" />
<use xlink:href="#f6_pc" transform="matrix(14,0,0,14,274.7,537.4)" />
<use xlink:href="#f6_pc" transform="matrix(14,0,0,14,279,537.4)" />
<use xlink:href="#f6_pc" transform="matrix(14,0,0,14,283.3,537.4)" />
<use xlink:href="#f6_pc" transform="matrix(14,0,0,14,287.5,537.4)" />
<use xlink:href="#f6_pc" transform="matrix(14,0,0,14,291.8,537.4)" />
<use xlink:href="#f6_pc" transform="matrix(14,0,0,14,296.1,537.4)" />
<use xlink:href="#f6_pc" transform="matrix(14,0,0,14,300.4,537.4)" />
<use xlink:href="#f6_bz" transform="matrix(14,0,0,14,383.9,537.4)" />
<use xlink:href="#f6_ct" transform="matrix(14,0,0,14,397.3,537.4)" />
<use xlink:href="#f6_c1" transform="matrix(14,0,0,14,402.9,537.4)" />
<use xlink:href="#f6_ct" transform="matrix(14,0,0,14,411.3,537.4)" />
<use xlink:href="#f6_bv" transform="matrix(14,0,0,14,422.6,537.4)" />
<use xlink:href="#f6_ct" transform="matrix(14,0,0,14,434.4,537.4)" />
<use xlink:href="#f6_nn" transform="matrix(14,0,0,14,440.1,537.4)" />
<use xlink:href="#f6_ke" transform="matrix(14,0,0,14,440.1,537.4)" />
<use xlink:href="#f6_dr" transform="matrix(14,0,0,14,454.3,537.4)" />
<use xlink:href="#f6_e6" transform="matrix(14,0,0,14,454.3,537.4)" />
<use xlink:href="#f6_by" transform="matrix(14,0,0,14,466.3,537.4)" />
<use xlink:href="#f6_cw" transform="matrix(14,0,0,14,480.8,537.3)" />
<use xlink:href="#f6_bg" transform="matrix(14,0,0,14,480.3,537.4)" />
<use xlink:href="#f6_cv" transform="matrix(14,0,0,14,494.5,537.4)" />
<use xlink:href="#f6_pc" transform="matrix(14,0,0,14,500.2,537.4)" />
<use xlink:href="#f6_pc" transform="matrix(14,0,0,14,504.4,537.4)" />
<use xlink:href="#f6_pc" transform="matrix(14,0,0,14,508.7,537.4)" />
<use xlink:href="#f6_pc" transform="matrix(14,0,0,14,513,537.4)" />
<use xlink:href="#f6_pc" transform="matrix(14,0,0,14,517.3,537.4)" />
<use xlink:href="#f6_am" transform="matrix(14,0,0,14,137.8,595.8)" />
<use xlink:href="#f6_c0" transform="matrix(14,0,0,14,159.3,595.8)" />
<use xlink:href="#f6_d8" transform="matrix(14,0,0,14,171.8,595.8)" />
<use xlink:href="#f6_c1" transform="matrix(14,0,0,14,183.1,595.8)" />
<use xlink:href="#f6_d4" transform="matrix(14,0,0,14,191.1,595.8)" />
<use xlink:href="#f6_bz" transform="matrix(14,0,0,14,197.2,595.8)" />
<use xlink:href="#f6_d8" transform="matrix(14,0,0,14,210.5,595.8)" />
<use xlink:href="#f6_cc" transform="matrix(14,0,0,14,216.1,595.8)" />
<use xlink:href="#f6_cv" transform="matrix(14,0,0,14,227.7,595.8)" />
<use xlink:href="#f6_bz" transform="matrix(14,0,0,14,239,595.8)" />
<use xlink:href="#f6_dj" transform="matrix(14,0,0,14,246.5,596.3)" />
<use xlink:href="#f6_bm" transform="matrix(14,0,0,14,252.4,595.8)" />
<use xlink:href="#f6_c3" transform="matrix(14,0,0,14,265,595.8)" />
<use xlink:href="#f6_am" transform="matrix(14,0,0,14,285.4,595.8)" />
<use xlink:href="#f6_c0" transform="matrix(14,0,0,14,306.9,595.8)" />
<use xlink:href="#f6_d8" transform="matrix(14,0,0,14,319.4,595.8)" />
<use xlink:href="#f6_k" transform="matrix(14,0,0,14,325.1,595.8)" />
<use xlink:href="#f6_e6" transform="matrix(14,0,0,14,330.3,595.8)" />
<use xlink:href="#f6_by" transform="matrix(14,0,0,14,342.4,595.8)" />
<use xlink:href="#f6_cw" transform="matrix(14,0,0,14,356.9,595.7)" />
<use xlink:href="#f6_br" transform="matrix(14,0,0,14,362,595.8)" />
<use xlink:href="#f6_c8" transform="matrix(14,0,0,14,373.7,595.8)" />
<use xlink:href="#f6_dr" transform="matrix(14,0,0,14,390,595.8)" />
<use xlink:href="#f6_bt" transform="matrix(14,0,0,14,389.5,595.8)" />
<use xlink:href="#f6_bv" transform="matrix(14,0,0,14,406.9,595.8)" />
<use xlink:href="#f6_ct" transform="matrix(14,0,0,14,418.8,595.8)" />
<use xlink:href="#f6_nn" transform="matrix(14,0,0,14,424.4,595.8)" />
<use xlink:href="#f6_ke" transform="matrix(14,0,0,14,424.4,595.8)" />
<use xlink:href="#f6_dr" transform="matrix(14,0,0,14,438.6,595.8)" />
<use xlink:href="#f6_br" transform="matrix(14,0,0,14,444.2,595.8)" />
<use xlink:href="#f6_c8" transform="matrix(14,0,0,14,455.9,595.8)" />
<use xlink:href="#f6_dr" transform="matrix(14,0,0,14,472.2,595.8)" />
<use xlink:href="#f6_bt" transform="matrix(14,0,0,14,471.8,595.8)" />
<use xlink:href="#f6_bq" transform="matrix(14,0,0,14,81.7,629.1)" />
<use xlink:href="#f6_ct" transform="matrix(14,0,0,14,94.8,629.1)" />
<use xlink:href="#f6_c1" transform="matrix(14,0,0,14,100.5,629.1)" />
<use xlink:href="#f6_ct" transform="matrix(14,0,0,14,108.8,629.1)" />
<use xlink:href="#f6_br" transform="matrix(14,0,0,14,120.1,629.1)" />
<use xlink:href="#f6_c8" transform="matrix(14,0,0,14,131.8,629.1)" />
<use xlink:href="#f6_dr" transform="matrix(14,0,0,14,148.1,629.1)" />
<use xlink:href="#f6_bt" transform="matrix(14,0,0,14,147.7,629.1)" />
<use xlink:href="#f6_c1" transform="matrix(14,0,0,14,165,629.1)" />
<use xlink:href="#f6_d8" transform="matrix(14,0,0,14,173.4,629.1)" />
<use xlink:href="#f6_bg" transform="matrix(14,0,0,14,179.1,629.1)" />
<use xlink:href="#f6_b9" transform="matrix(14,0,0,14,199,629.1)" />
<use xlink:href="#f6_c1" transform="matrix(14,0,0,14,214.5,629.1)" />
<use xlink:href="#f6_c7" transform="matrix(14,0,0,14,222.9,629.1)" />
<use xlink:href="#f6_ct" transform="matrix(14,0,0,14,234.9,629.1)" />
<use xlink:href="#f6_pc" transform="matrix(14,0,0,14,240.6,629.1)" />
<use xlink:href="#f6_pc" transform="matrix(14,0,0,14,244.8,629.1)" />
<use xlink:href="#f6_pc" transform="matrix(14,0,0,14,249.1,629.1)" />
<use xlink:href="#f6_pc" transform="matrix(14,0,0,14,253.4,629.1)" />
<use xlink:href="#f6_pc" transform="matrix(14,0,0,14,257.7,629.1)" />
<use xlink:href="#f6_pc" transform="matrix(14,0,0,14,261.9,629.1)" />
<use xlink:href="#f6_bz" transform="matrix(14,0,0,14,402.2,629.1)" />
<use xlink:href="#f6_ct" transform="matrix(14,0,0,14,415.5,629.1)" />
<use xlink:href="#f6_c1" transform="matrix(14,0,0,14,421.1,629.1)" />
<use xlink:href="#f6_ct" transform="matrix(14,0,0,14,429.5,629.1)" />
<use xlink:href="#f6_bv" transform="matrix(14,0,0,14,440.8,629.1)" />
<use xlink:href="#f6_ct" transform="matrix(14,0,0,14,452.7,629.1)" />
<use xlink:href="#f6_nn" transform="matrix(14,0,0,14,458.3,629.1)" />
<use xlink:href="#f6_ke" transform="matrix(14,0,0,14,458.3,629.1)" />
<use xlink:href="#f6_dr" transform="matrix(14,0,0,14,472.5,629.1)" />
<use xlink:href="#f6_e6" transform="matrix(14,0,0,14,472.5,629.1)" />
<use xlink:href="#f6_by" transform="matrix(14,0,0,14,484.6,629.1)" />
<use xlink:href="#f6_cw" transform="matrix(14,0,0,14,499,629)" />
<use xlink:href="#f6_bg" transform="matrix(14,0,0,14,498.5,629.1)" />
<use xlink:href="#f6_cv" transform="matrix(14,0,0,14,512.8,629.1)" />
<use xlink:href="#f6_pc" transform="matrix(14,0,0,14,518.4,629.1)" />
<use xlink:href="#f6_pc" transform="matrix(14,0,0,14,522.7,629.1)" />
<use xlink:href="#f6_pc" transform="matrix(14,0,0,14,526.9,629.1)" />
<use xlink:href="#f6_pc" transform="matrix(14,0,0,14,531.2,629.1)" />
<use xlink:href="#f6_pc" transform="matrix(14,0,0,14,535.5,629.1)" />
<use xlink:href="#f7_4r" transform="matrix(9,0,0,9,290.2,795.2)" />
<use xlink:href="#f8_p" transform="matrix(9,0,0,9,303,795.2)" />
<use xlink:href="#f8_l" transform="matrix(9,0,0,9,310.7,795.2)" />
<use xlink:href="#f7_4r" transform="matrix(9,0,0,9,321.3,795.2)" />
</g>
</g>
<image preserveAspectRatio="none" x="22" y="801" width="581" height="86" xlink:href="img/1.png"/>
<path d="M287.6,97.4h47v1.1h-47V97.4Z" class="g1_57"/>
<image preserveAspectRatio="none" x="202" y="14" width="217" height="26" xlink:href="img/2.png"/>
<defs>
<path d="M686,512V822H333L435,749l2,-237ZM860,-65L686,29V298H440V168L348,118c0,0,-90,30,-190,128c0,0,-100,98,-127,183l52,83H203L189,822H0L-86,937l32,64H1045l86,-115l-33,-64H828L930,749V-31L860,-65Z"
id="f5_bz"
transform="scale(0.001,-0.001)"/>

<path d="M746,-65L571,29V419H376V260L275,212c0,0,-87,48,-160,148c0,0,-72,100,-91,193l57,84H571V822H0L-86,937l32,64H930l88,-115L985,822H713L816,749V-31L746,-65Z"
id="f5_bt"
transform="scale(0.001,-0.001)"/>

<path d="M371,296c0,0,71,0,139,34c0,0,69,34,109,92v90c0,0,-72,36,-148,36c0,0,-84,0,-131,-47c0,0,-47,-47,-47,-111c0,0,0,-49,28,-89l50,-5ZM793,-65L619,29V134c0,0,-55,-27,-122,-27c0,0,-98,0,-207,48c0,0,-108,48,-182,132c0,0,-73,84,-73,188c0,0,0,113,83,191c0,0,84,78,212,78c0,0,41,0,84,-9L619,643V822H0L-86,937l32,64H978l85,-115l-32,-64H761L863,749V-31L793,-65Z"
id="f5_c7"
transform="scale(0.001,-0.001)"/>

<path d="M277,-65L102,29V822H0L-86,937l32,64H463L548,886L516,822H244L347,749V-31L277,-65Z"
id="f5_ct"
transform="scale(0.001,-0.001)"/>

<path d="M290,-236c0,0,-253,348,-253,685c0,0,0,342,270,669l80,-39c0,0,-207,-311,-207,-622c0,0,0,-326,193,-652l-83,-41Z"
id="f6_g"
transform="scale(0.001,-0.001)"/>

<path d="M347,-57C347,-57,66,211,66,394c0,0,0,98,74,164c0,0,74,65,225,65H616V822H0l-45,76l14,31H880l46,-76L912,822H677l66,-58V-39L706,-49L616,8V500H428c0,0,-239,0,-239,-161c0,0,0,-136,214,-343L347,-57Z"
id="f6_bp"
transform="scale(0.001,-0.001)"/>

<path d="M845,-49L755,8V513H497c0,0,61,-45,93,-110c0,0,33,-64,33,-128c0,0,0,-90,-58,-144c0,0,-59,-53,-143,-53c0,0,-133,0,-234,139C188,217,87,356,20,596l76,24c0,0,60,-201,127,-306c0,0,67,-105,160,-105c0,0,57,0,91,36c0,0,33,36,33,91c0,0,0,84,-73,159L295,558v71H755V822H0l-45,76l14,31H1019l46,-76l-14,-31H816l66,-58V-39L845,-49Z"
id="f6_bg"
transform="scale(0.001,-0.001)"/>

<path d="M-239,897c0,0,-82,61,-132,137c0,0,-50,75,-50,150c0,0,0,78,52,133c0,0,52,55,141,55c0,0,98,0,176,-64l-23,-69c0,0,-52,32,-104,32c0,0,-57,0,-95,-36c0,0,-38,-36,-38,-95c0,0,0,-115,117,-217l-44,-26Z"
id="f6_dr"
transform="scale(0.001,-0.001)"/>

<path d="M254,-30c0,0,-84,17,-116,93c0,0,13,84,97,126c0,0,100,-35,112,-110C347,79,324,3,254,-30Zm0,468c0,0,-84,17,-116,94c0,0,13,84,97,126c0,0,100,-35,112,-110c0,0,-23,-76,-93,-110Z"
id="f6_y"
transform="scale(0.001,-0.001)"/>

<path d="M348,229c0,0,57,0,106,17L263,559c0,0,-95,-50,-95,-162c0,0,0,-75,52,-136c0,0,49,-32,128,-32Zm170,48c0,0,61,38,96,91V504c0,0,-131,80,-244,80l-35,-2L518,277ZM704,-49L614,8V193c0,0,-84,-65,-192,-65c0,0,-139,0,-255,98c0,0,-115,98,-115,226c0,0,0,106,77,175c0,0,77,70,189,70c0,0,38,0,75,-9L614,578V822H0l-45,76l14,31H878l46,-76L911,822H675l66,-58V-39L704,-49Z"
id="f6_bx"
transform="scale(0.001,-0.001)"/>

<path d="M749,-49L658,8V324L402,157L472,47L429,-17c0,0,-50,9,-117,40c0,0,-66,32,-109,69l-4,84L603,429c0,0,-85,116,-249,116l-93,-6V371L188,342c0,0,-90,84,-153,243l54,72c0,0,136,20,203,20c0,0,107,0,195,-45c0,0,87,-45,171,-161V822H0l-45,76l14,31H923l46,-76L955,822H720l65,-58V-39L749,-49Z"
id="f6_jj"
transform="scale(0.001,-0.001)"/>

<path d="M228,-49L138,8V822H0l-45,76l14,31H402l46,-76L434,822H199l65,-58V-39L228,-49Z"
id="f6_ct"
transform="scale(0.001,-0.001)"/>

<path d="M527,-71L52,414l34,92H277c0,0,12,32,12,72V822H0l-45,76l14,31H599l46,-76L631,822H350l66,-55V564c0,0,0,-96,-152,-248L610,34L611,8L527,-71Z"
id="f6_c1"
transform="scale(0.001,-0.001)"/>

<path d="M-214,863l-199,281c0,0,-70,92,-157,92c0,0,-69,0,-159,-58l-72,118c0,0,89,73,180,73c0,0,141,0,258,-170L-155,901l-59,-38Z"
id="f6_d4"
transform="scale(0.001,-0.001)"/>

<path d="M727,-49L637,8V822H278l66,-58V226L270,196c0,0,-64,36,-122,98c0,0,-58,62,-79,122l43,59H217V822H0l-45,76l14,31H901l46,-76L933,822H698l66,-58V-39L727,-49Z"
id="f6_bb"
transform="scale(0.001,-0.001)"/>

<path d="M228,-49L138,8V822H0l-45,76l14,31H119L-33,1144c0,0,-70,92,-157,92c0,0,-69,0,-159,-58l-72,118c0,0,89,73,181,73c0,0,140,0,257,-170L205,929H402l46,-76L434,822H199l65,-58V-39L228,-49Z"
id="f6_d8"
transform="scale(0.001,-0.001)"/>

<path d="M0,1062c0,0,-26,11,-60,36c0,0,-34,26,-51,49c0,0,39,81,91,110c0,0,60,-23,106,-85c0,0,-28,-70,-86,-110Z"
id="f6_dj"
transform="scale(0.001,-0.001)"/>

<path d="M689,445V822H286l65,-58l8,-319ZM779,-49L689,8V328H370V180L296,150c0,0,-56,35,-120,104c0,0,-63,70,-89,131l41,60H238L223,822H0l-45,76l14,31H953l46,-76L985,822H750l66,-58V-39L779,-49Z"
id="f6_bz"
transform="scale(0.001,-0.001)"/>

<path d="M-91,1001c0,0,-27,10,-61,36c0,0,-33,26,-50,49c0,0,38,81,90,110c0,0,61,-23,107,-85c0,0,-28,-71,-86,-110ZM-214,863l-199,281c0,0,-70,92,-157,92c0,0,-69,0,-159,-58l-72,118c0,0,89,73,180,73c0,0,141,0,258,-170L-155,901l-59,-38Z"
id="f6_oz"
transform="scale(0.001,-0.001)"/>

<path d="M252,385l310,78l22,-9c0,0,107,-43,200,-43c0,0,91,0,151,41V822H603l66,-58V585H373c0,0,-184,0,-184,-99c0,0,0,-48,63,-101ZM483,-305L295,-10c0,0,-90,22,-156,74l41,170h66L351,63c0,0,126,4,207,62c0,0,82,58,82,139c0,0,0,37,-18,71L365,266c0,0,-110,15,-197,102c0,0,-87,87,-87,176c0,0,0,69,59,117c0,0,59,48,172,48H550V822H0l-45,76l14,31H1199l46,-76l-14,-31H996l66,-58V-39l-37,-10L935,8V318c0,0,-41,-15,-78,-15c0,0,-52,0,-131,30c0,0,32,-55,32,-111c0,0,0,-109,-98,-179c0,0,-98,-69,-254,-69L599,-216L483,-305Z"
id="f6_bh"
transform="scale(0.001,-0.001)"/>

<path d="M-253,-363c0,0,-194,0,-440,288l48,52c0,0,108,-118,192,-176c0,0,83,-58,159,-58c0,0,64,0,101,36c0,0,37,37,37,85c0,0,0,68,-65,91L-327,-152l-83,89c0,0,54,86,153,86c0,0,81,0,140,-61c0,0,58,-62,58,-146c0,0,0,-78,-55,-128c0,0,-55,-51,-139,-51Z"
id="f6_oe"
transform="scale(0.001,-0.001)"/>

<path d="M413,-59C413,-59,53,193,53,416c0,0,0,97,66,164c0,0,66,66,156,66c0,0,61,0,110,-30L487,507c0,0,92,126,257,126l35,-2V822H0l-45,76l14,31H1043l46,-76l-13,-31H840l66,-58V-39L869,-49L779,8V547c0,0,-101,-5,-165,-90c0,0,-64,-86,-70,-222L507,225l-90,73c0,0,5,79,35,151c0,0,-59,66,-128,66c0,0,-57,0,-100,-38c0,0,-44,-39,-44,-109c0,0,0,-165,284,-360L413,-59Z"
id="f6_c3"
transform="scale(0.001,-0.001)"/>

<path d="M226,-49c0,0,-66,24,-102,78c0,0,32,69,82,101c0,0,55,-20,100,-80c0,0,-26,-66,-80,-99Z"
id="f6_pc"
transform="scale(0.001,-0.001)"/>

<path d="M130,-236l-83,41c0,0,193,326,193,652c0,0,0,311,-206,622l79,39c0,0,270,-327,270,-669c0,0,0,-337,-253,-685Z"
id="f6_h"
transform="scale(0.001,-0.001)"/>

<path d="M663,-49L573,8V445H299V280L226,251c0,0,-105,99,-162,238l63,72H573V822H0l-45,76l14,31H837l46,-76L869,822H634l66,-58V-39L663,-49Z"
id="f6_bt"
transform="scale(0.001,-0.001)"/>

<path d="M325,240c0,0,77,0,154,35c0,0,77,35,120,99V500c0,0,-118,73,-222,73c0,0,-97,0,-151,-54c0,0,-53,-53,-53,-128c0,0,0,-73,49,-125c0,0,38,-26,103,-26ZM689,-49L599,8V199c0,0,-73,-65,-179,-65c0,0,-134,0,-252,96c0,0,-118,95,-118,221c0,0,0,102,78,171c0,0,78,69,190,69c0,0,38,0,75,-10L599,582V822H0l-45,76l14,31H863l46,-76L895,822H660l66,-58V-39L689,-49Z"
id="f6_c7"
transform="scale(0.001,-0.001)"/>

<path d="M270,196c0,0,-64,36,-122,98c0,0,-58,62,-79,122l43,59H217V822H0l-45,76l14,31H489l46,-76L521,822H278l66,-58V226L270,196Z"
id="f6_l4"
transform="scale(0.001,-0.001)"/>

<path d="M374,248c0,0,77,0,149,36c0,0,71,37,110,107V822H284c0,0,138,-96,138,-208c0,0,0,-151,-228,-192c0,0,29,-104,89,-158c0,0,41,-16,91,-16ZM723,-49L633,8V200c0,0,-69,-56,-170,-56c0,0,-122,0,-240,94c0,0,-118,94,-179,237l20,55c0,0,133,17,187,44c0,0,55,28,55,84c0,0,0,45,-30,81c0,0,-30,36,-99,83H0l-45,76l14,31H897l46,-76L929,822H694l65,-58V-39L723,-49Z"
id="f6_c0"
transform="scale(0.001,-0.001)"/>

<path d="M95,0L67,98L422,497c0,0,130,154,130,259c0,0,0,63,-40,111c0,0,-40,48,-121,48c0,0,-75,0,-171,-29L193,695l-88,2c0,0,-13,82,-13,165l1,65c0,0,159,97,315,97c0,0,122,0,207,-78c0,0,85,-77,85,-193c0,0,0,-67,-34,-133c0,0,-33,-67,-165,-217L237,121l4,-14l373,21l49,136l83,-12C746,252,732,99,704,0Z"
id="f6_q"
transform="scale(0.001,-0.001)"/>

<path d="M228,-49L138,8V822H0l-45,76l14,31H134c0,0,-91,92,-91,191c0,0,0,105,85,170c0,0,84,65,219,65c0,0,128,0,293,-76c0,0,165,-77,362,-263L958,966c0,0,-177,143,-303,210c0,0,-125,68,-244,68c0,0,-107,0,-175,-50c0,0,-68,-50,-68,-131c0,0,0,-61,49,-134H402l46,-76L434,822H199l65,-58V-39L228,-49Z"
id="f6_cu"
transform="scale(0.001,-0.001)"/>

<path d="M688,-243c0,0,-256,53,-408,173c0,0,-152,119,-152,270c0,0,0,101,68,171c0,0,-101,84,-101,179c0,0,0,64,53,112c0,0,54,47,191,47H587V822H0l-45,76l14,31H830l45,-76L862,822H640l66,-58V585H362c0,0,-159,-1,-159,-92c0,0,0,-41,46,-80c0,0,76,47,183,47c0,0,135,0,230,-76c0,0,96,-75,96,-187C758,197,758,67,629,2L545,104c0,0,49,30,81,75c0,0,32,44,32,82c0,0,0,16,-4,26c0,0,-64,58,-167,58c0,0,-97,0,-166,-50v-2c0,0,-67,-52,-67,-131c0,0,0,-116,132,-199c0,0,132,-84,334,-132l-32,-74Z"
id="f6_cc"
transform="scale(0.001,-0.001)"/>

<path d="M548,-57c0,0,-122,0,-243,81c0,0,-122,81,-252,280l57,41C110,345,283,64,498,64c0,0,92,0,153,49c0,0,61,49,61,121c0,0,0,46,-28,84L440,237c0,0,-73,11,-139,55c0,0,-66,44,-105,105c0,0,-40,61,-40,119c0,0,0,72,62,125c0,0,62,53,184,53H625V822H0l-45,76l14,31H906l46,-76L938,822H678l66,-58V562H431c0,0,-164,0,-164,-99c0,0,0,-55,57,-102l261,82c0,0,104,-21,172,-98c0,0,68,-78,68,-171c0,0,0,-99,-76,-166c0,0,-77,-65,-201,-65Z"
id="f6_bm"
transform="scale(0.001,-0.001)"/>

<path d="M228,-49L138,8V822H0l-45,76l14,31H138c0,0,-109,342,-284,342c0,0,-62,0,-102,-40c0,0,-40,-39,-40,-93c0,0,0,-61,51,-134l-42,-32c0,0,-128,113,-128,226c0,0,0,79,60,136c0,0,61,56,154,56c0,0,137,0,249,-125c0,0,112,-125,169,-336H402l46,-76L434,822H199l65,-58V-39L228,-49Z"
id="f6_cv"
transform="scale(0.001,-0.001)"/>

<path d="M108,-222l-44,58c0,0,96,81,104,164L89,61c0,0,12,83,93,122c0,0,50,-15,79,-55c0,0,29,-39,29,-90c0,0,0,-69,-48,-142c0,0,-48,-72,-134,-118Z"
id="f6_k"
transform="scale(0.001,-0.001)"/>

<path d="M228,-49L138,8V822H0l-45,76l14,31H134c0,0,-91,93,-91,200c0,0,0,109,92,174c0,0,93,66,253,66c0,0,186,0,398,-89c0,0,212,-90,430,-264l-49,-47c0,0,-424,285,-727,285c0,0,-125,0,-201,-49c0,0,-76,-48,-76,-137c0,0,0,-67,52,-139H402l46,-76L434,822H199l65,-58V-39L228,-49Z"
id="f6_nu"
transform="scale(0.001,-0.001)"/>

<path d="M283,260c0,0,122,0,209,113V513c0,0,-90,51,-160,51c0,0,-80,0,-129,-50c0,0,-49,-50,-49,-118c0,0,0,-60,35,-110c0,0,45,-26,94,-26ZM582,-49L492,8V211c0,0,-63,-54,-141,-54c0,0,-113,0,-213,92c0,0,-100,92,-100,205c0,0,0,93,69,157c0,0,69,64,162,64c0,0,32,0,64,-9L492,590V822H0l-45,76l14,31H1108l45,-76l-13,-31H553l66,-58V524c0,0,91,89,192,89c0,0,98,0,171,-79c0,0,72,-79,72,-186c0,0,0,-178,-224,-330L736,124c0,0,219,153,219,269c0,0,0,44,-26,75c0,0,-26,32,-81,32c0,0,-109,0,-229,-155V-39L582,-49Z"
id="f6_b9"
transform="scale(0.001,-0.001)"/>

<path d="M388,325c0,0,58,0,112,31c0,0,53,31,84,86V822H165l69,-58V408c0,0,47,-83,154,-83ZM674,-49L584,8V257c0,0,-61,-51,-141,-51c0,0,-125,0,-232,109c0,0,-107,108,-107,243V822H0l-45,76l14,31H848l46,-76L880,822H645l65,-58V-39L674,-49Z"
id="f6_bv"
transform="scale(0.001,-0.001)"/>

<path d="M0,822l-45,76l14,31H93l46,-76L125,822Z"
id="f6_nn"
transform="scale(0.001,-0.001)"/>

<path d="M500,44c0,0,78,0,152,57c0,0,75,56,98,134V350c0,0,-130,0,-223,-64c0,0,-93,-63,-93,-148c0,0,0,-54,43,-92l23,-2ZM321,561c0,0,66,46,101,105c0,0,36,60,36,113c0,0,0,28,-9,48c0,0,-35,41,-87,41c0,0,-50,0,-89,-38c0,0,-39,-39,-39,-100c0,0,0,-94,87,-169ZM840,-111l-90,59V32c0,0,-69,-68,-156,-68c0,0,-97,0,-187,64c0,0,-89,64,-89,146c0,0,0,61,48,123c0,0,48,62,141,94c0,0,-69,20,-140,57L105,272L20,364L260,519c0,0,-144,118,-144,246c0,0,0,81,57,140c0,0,56,59,140,59c0,0,96,0,171,-79c0,0,75,-78,75,-168c0,0,0,-118,-133,-222c0,0,107,-44,232,-44l92,6V822H628l-46,76l14,31h418l46,-76l-13,-31H811l66,-58V-100l-37,-11Z"
id="f6_ke"
transform="scale(0.001,-0.001)"/>

<path d="M396,318c0,0,123,0,203,108V822H180l66,-58V408c0,0,49,-90,150,-90ZM176,-66L79,9L379,228c0,0,-106,23,-181,119c0,0,-76,96,-79,198V822H0l-45,76l14,31H863l46,-76L895,822H660l66,-58V-39L689,-49L599,8V269L176,-66Z"
id="f6_e6"
transform="scale(0.001,-0.001)"/>

<path d="M823,-49L733,8V339H445V191L371,160c0,0,-56,36,-120,105c0,0,-63,70,-89,131l41,59H313V735c0,0,0,99,-55,140c0,0,-3,1,-8,1c-16,0,-48,-3,-71,-23c0,0,-31,-26,-31,-66c0,0,0,-69,81,-113L189,620C189,620,31,720,31,828c0,0,0,61,45,99c0,0,46,37,109,37c0,0,96,0,173,-86c0,0,76,-87,79,-194V455H733V822H556l-46,76l14,31H998l45,-76l-13,-31H794l66,-58V-39L823,-49Z"
id="f6_by"
transform="scale(0.001,-0.001)"/>

<path d="M-234,-413c0,0,-210,0,-488,322l54,49c0,0,119,-128,209,-193c0,0,90,-65,177,-65c0,0,72,0,113,40c0,0,42,39,42,91c0,0,0,75,-78,106L-323,-181l-90,98c0,0,63,95,167,95c0,0,90,0,155,-69c0,0,66,-70,66,-164c0,0,0,-85,-60,-139c0,0,-61,-53,-149,-53Z"
id="f6_cw"
transform="scale(0.001,-0.001)"/>

<path d="M768,-49L678,8V202c0,0,-73,-58,-172,-58c0,0,-123,0,-240,94c0,0,-118,94,-179,237l20,55c0,0,134,12,215,70c0,0,81,57,81,141c0,0,0,90,-67,134l-26,3c0,0,-46,0,-74,-29c0,0,-28,-30,-28,-68c0,0,0,-55,82,-109L252,620C252,620,93,720,93,820c0,0,0,65,47,104c0,0,46,40,114,40c0,0,99,0,179,-83c0,0,80,-83,82,-197c0,0,0,-93,-79,-165c0,0,-78,-73,-199,-97c0,0,29,-104,88,-158c0,0,42,-16,92,-16c0,0,78,0,151,38c0,0,74,38,110,111V822H553l-46,76l14,31H943l45,-76L975,822H739l66,-58V-39L768,-49Z"
id="f6_bq"
transform="scale(0.001,-0.001)"/>

<path d="M799,475V822H350l66,-55V564c0,0,0,-43,-25,-89ZM527,-71L52,414l34,92H277c0,0,12,32,12,72V822H0l-45,76l14,31H1063l46,-76l-14,-31H860l66,-58V-39L889,-49L799,8V370H315L264,316L610,34L611,8L527,-71Z"
id="f6_cb"
transform="scale(0.001,-0.001)"/>

<path d="M108,-433L-59,-214c0,0,-99,119,-191,119c0,0,-59,0,-96,-35c0,0,-36,-34,-36,-81c0,0,0,-49,42,-83l152,95l64,-116c0,0,-71,-58,-148,-58c0,0,-80,0,-146,63c0,0,-65,64,-65,144c0,0,0,77,62,131c0,0,61,53,142,53c0,0,138,0,296,-205L165,-393l-57,-40Z"
id="f6_cx"
transform="scale(0.001,-0.001)"/>

<path d="M827,-49L736,8V205c0,0,-84,-84,-209,-84c0,0,-130,0,-237,91c0,0,-108,92,-108,196c0,0,0,79,61,137C243,545,66,672,66,791c0,0,0,75,52,124c0,0,53,49,134,49c0,0,164,0,260,-237L451,694c0,0,-55,114,-119,163l-31,5c0,0,-44,0,-77,-32c0,0,-33,-31,-33,-78c0,0,0,-86,113,-165c0,0,60,27,133,27l67,-4l75,-89L564,490l-51,7H493c0,0,-90,0,-142,-43c0,0,-52,-43,-52,-104c0,0,0,-60,51,-109c0,0,33,-16,84,-16c0,0,89,0,177,47c0,0,89,47,125,137V822H567l-46,76l14,31h466l46,-76l-14,-31H798l65,-58V-39L827,-49Z"
id="f6_bs"
transform="scale(0.001,-0.001)"/>

<path d="M825,-49L735,8V217c0,0,-86,-72,-197,-72c0,0,-130,0,-238,91c0,0,-107,91,-107,204c0,0,0,55,27,105H55L12,616l14,30H574l46,-76L607,539H396c0,0,-78,-49,-78,-162c0,0,0,-70,40,-111c0,0,39,-15,94,-15c0,0,84,0,163,41c0,0,79,41,120,121V822H0l-45,76l14,31H999l46,-76l-14,-31H796l66,-58V-39L825,-49Z"
id="f6_be"
transform="scale(0.001,-0.001)"/>

<path d="M434,225c0,0,84,0,169,42c0,0,85,43,126,126V822H267c0,0,-64,-49,-64,-115c0,0,0,-79,90,-126c0,0,60,35,144,35l67,-6l75,-89L564,490l-51,7H493c0,0,-90,0,-142,-43c0,0,-52,-43,-52,-104c0,0,0,-60,51,-109c0,0,33,-16,84,-16ZM819,-49L729,8V197c0,0,-83,-76,-202,-76c0,0,-130,0,-237,91c0,0,-108,92,-108,196c0,0,0,72,53,128c0,0,-75,42,-115,97c0,0,-41,56,-41,113c0,0,0,38,22,76H0l-45,76l14,31H993l46,-76l-14,-31H790l66,-58V-39L819,-49Z"
id="f6_bc"
transform="scale(0.001,-0.001)"/>

<path d="M342,324c0,0,45,0,75,34c0,0,31,33,31,100V822H165l66,-58V390c0,0,32,-66,111,-66ZM853,-49L762,8V822H509l65,-58V455c0,0,0,-134,-51,-185c0,0,-52,-52,-127,-52c0,0,-98,0,-195,99c0,0,-97,99,-97,209V822H0l-45,76l14,31H1027l46,-76l-14,-31H823l66,-58V-39L853,-49Z"
id="f6_bo"
transform="scale(0.001,-0.001)"/>

<path d="M634,-49L249,296c0,0,-1,0,-3,0c-11,0,-48,1,-90,15c0,0,-51,16,-67,36l49,165l50,12l84,-98c0,0,125,31,191,104c0,0,66,73,66,165c0,0,0,109,-95,170c0,0,-2,0,-6,0C397,865,262,858,121,738L46,848c0,0,52,47,127,82c0,0,75,34,152,34c0,0,130,0,226,-94c0,0,95,-94,95,-218c0,0,0,-107,-77,-199c0,0,-77,-92,-216,-134L697,26L698,0L634,-49Z"
id="f6_n8"
transform="scale(0.001,-0.001)"/>

<path d="M-214,860l-227,219c0,0,-73,70,-148,70c0,0,-67,0,-160,-58l-72,117c0,0,83,71,176,71c0,0,120,0,232,-124L-221,940l-102,294c0,0,-64,179,-189,179c0,0,-60,0,-133,-33l-60,125c0,0,84,47,164,47c0,0,200,0,281,-276L-150,901l-23,-15l-41,-26Z"
id="f6_d5"
transform="scale(0.001,-0.001)"/>

<path d="M487,-7c0,0,-88,0,-185,46c0,0,-97,47,-163,130c0,0,-66,83,-66,185c0,0,0,109,80,177c0,0,79,68,234,68H504V822H0l-45,76l14,31H827l45,-76L859,822H565l66,-58V474l-3,1l3,-3H396c0,0,-100,0,-152,-47c0,0,-53,-48,-53,-119c0,0,0,-104,93,-178c0,0,60,-20,118,-20c0,0,81,0,156,36c0,0,76,35,123,99l92,-99C773,144,723,70,645,31C645,31,567,-7,487,-7Z"
id="f6_bk"
transform="scale(0.001,-0.001)"/>

<path d="M567,822l-46,76l14,31H726l46,-76L758,822ZM518,122c0,0,-115,0,-225,93c0,0,-111,94,-111,193c0,0,0,79,61,137C243,545,66,672,66,791c0,0,0,75,52,124c0,0,53,49,134,49c0,0,164,0,260,-237L451,694c0,0,-55,114,-119,163l-31,5c0,0,-44,0,-77,-32c0,0,-33,-31,-33,-78c0,0,0,-86,113,-165c0,0,60,27,133,27l67,-4l75,-89L564,490l-51,7H493c0,0,-90,0,-142,-43c0,0,-52,-43,-52,-104c0,0,0,-60,51,-109c0,0,37,-13,82,-13c0,0,104,0,197,59c0,0,94,60,127,148l95,-87c0,0,-43,-94,-140,-160c0,0,-97,-66,-193,-66Z"
id="f6_lh"
transform="scale(0.001,-0.001)"/>

<path d="M959,-49L869,8V367c0,0,-32,-13,-64,-13c0,0,-50,0,-110,25c0,0,23,-52,23,-109c0,0,0,-103,-70,-170c0,0,-70,-66,-182,-66c0,0,-110,0,-222,82c0,0,-111,83,-213,293l68,42c0,0,72,-155,152,-231c0,0,81,-76,178,-76c0,0,83,0,131,49c0,0,48,48,48,117c0,0,0,54,-30,100c0,0,-31,47,-91,65L325,391L257,512c0,0,68,53,156,56c0,0,140,72,140,179c0,0,0,69,-52,99c0,0,-4,1,-11,1c-19,0,-66,-4,-123,-30c0,0,-78,-35,-142,-96L150,823c0,0,119,117,253,117c0,0,98,0,175,-71c0,0,77,-70,77,-159c0,0,0,-103,-94,-180c0,0,39,-23,73,-56c0,0,52,-22,109,-22c0,0,77,0,126,38V822H727l-46,76l14,31h840l46,-76l-13,-31H1332l66,-58V-39l-37,-10L1271,8V822H930l66,-58V-39L959,-49Z"
id="f6_am"
transform="scale(0.001,-0.001)"/>

<path d="M471,-26c0,0,-259,0,-448,396l70,43C93,413,240,98,442,98c0,0,79,0,132,46c0,0,54,45,54,120c0,0,0,61,-38,116c0,0,-38,54,-107,72L322,370L255,492c0,0,66,53,156,56c0,0,128,51,128,153c0,0,0,77,-65,121H0l-45,76l14,31H1123l46,-76l-14,-31H578c0,0,76,-66,76,-157c0,0,0,-95,-87,-156c0,0,52,-29,84,-64c0,0,131,134,243,134c0,0,93,0,158,-70c0,0,65,-71,65,-167c0,0,0,-142,-177,-272L851,170c0,0,173,129,173,230c0,0,0,34,-23,57c0,0,-23,23,-63,23c0,0,-104,0,-215,-141c0,0,23,-55,23,-111c0,0,0,-109,-78,-182c0,0,-78,-72,-197,-72Z"
id="f6_aq"
transform="scale(0.001,-0.001)"/>

<path d="M254,-26c0,0,-84,16,-116,92c0,0,13,84,97,127c0,0,100,-36,112,-110C347,83,324,6,254,-26Zm458,0c0,0,-84,16,-116,92c0,0,14,84,98,127c0,0,99,-37,111,-110C805,83,782,6,712,-26Zm458,0c0,0,-84,16,-116,92c0,0,14,84,98,127c0,0,99,-36,111,-110c0,0,-22,-77,-93,-109Z"
id="f6_8l"
transform="scale(0.001,-0.001)"/>

<path d="M283,260c0,0,122,0,209,113V513c0,0,-90,51,-160,51c0,0,-80,0,-129,-50c0,0,-49,-50,-49,-118c0,0,0,-60,35,-110c0,0,45,-26,94,-26ZM582,-49L492,8V211c0,0,-63,-54,-141,-54c0,0,-113,0,-214,92c0,0,-102,92,-102,206c0,0,0,93,69,157c0,0,69,63,163,63c0,0,34,0,66,-9L492,590V822H0l-45,76l14,31H909l46,-76L941,822H553l66,-58V521c0,0,93,104,192,104c0,0,63,0,120,-42c0,0,57,-42,82,-106L964,431l-5,9c0,0,-38,72,-110,72c0,0,-51,0,-105,-41c0,0,-53,-42,-125,-129V-39L582,-49Z"
id="f6_l1"
transform="scale(0.001,-0.001)"/>

<path d="M675,-274L602,21C602,21,550,3,498,3C498,3,347,3,210,118C210,118,73,232,73,373c0,0,0,113,84,184c0,0,84,71,222,72H524V822H0l-45,76l14,31H834l46,-76L866,822H585l66,-58V504l-3,2l3,-3H408c0,0,-95,0,-154,-53c0,0,-58,-53,-58,-132c0,0,0,-49,27,-100c0,0,28,-50,83,-84c0,0,44,-15,96,-15c0,0,91,0,160,46L535,303l101,48L773,188c0,0,-8,-28,-34,-66c0,0,-27,-38,-62,-64L813,-221L675,-274Z"
id="f6_br"
transform="scale(0.001,-0.001)"/>

<path d="M513,460c0,0,61,81,61,179c0,0,0,87,-45,143c0,0,-45,57,-116,57c0,0,-63,0,-102,-43c0,0,-39,-43,-39,-110c0,0,0,-90,68,-151c0,0,68,-61,173,-75ZM581,-83L278,167l-41,-4c0,0,-99,0,-130,37l47,168l51,12l78,-79c0,0,110,40,183,105c0,0,-141,23,-231,107c0,0,-90,84,-90,193c0,0,0,69,37,116H0l-45,76l14,31H1134l45,-76l-13,-31H930l66,-58V-39L959,-49L869,8V822H588c0,0,51,-44,75,-109c0,0,25,-64,25,-122c0,0,0,-105,-81,-213c0,0,-80,-108,-240,-176L658,18l2,-25L581,-83Z"
id="f6_c8"
transform="scale(0.001,-0.001)"/>

<path d="M725,307c0,0,-95,0,-218,78c0,0,-123,78,-188,78c0,0,-54,0,-95,-34c0,0,-41,-34,-73,-100L93,362c0,0,38,88,101,146c0,0,63,59,148,59c0,0,90,0,214,-78c0,0,124,-79,188,-79c0,0,63,0,106,34c0,0,42,33,85,104l60,-40c0,0,-32,-66,-101,-134c0,0,-70,-67,-169,-67Z"
id="f7_4r"
transform="scale(0.001,-0.001)"/>

<path d="M415,-18c0,0,-149,0,-244,83c0,0,-94,84,-107,222l140,11c0,0,16,-103,73,-154c0,0,56,-52,137,-52c0,0,98,0,165,73c0,0,66,73,66,194c0,0,0,115,-64,182c0,0,-64,66,-169,66c0,0,-65,0,-117,-29c0,0,-52,-30,-82,-77L87,517l106,562H736V951H300L241,657c0,0,99,69,207,69c0,0,143,0,242,-100c0,0,98,-99,98,-255c0,0,0,-149,-86,-257C702,114,597,-18,415,-18Z"
id="f8_p"
transform="scale(0.001,-0.001)"/>

<path d="M435,0V856c0,0,-48,-47,-127,-93c0,0,-79,-46,-142,-69V824c0,0,113,52,197,128c0,0,85,75,120,146h86V0Z"
id="f8_l"
transform="scale(0.001,-0.001)"/>


</defs>
</svg>