<?xml version="1.0" encoding="UTF-8" standalone="no"?>
<!DOCTYPE svg PUBLIC "-//W3C//DTD SVG 1.1//EN"
"http://www.w3.org/Graphics/SVG/1.1/DTD/svg11.dtd">
<svg viewBox="0 0 641 910" version="1.1" xmlns="http://www.w3.org/2000/svg" xmlns:xlink="http://www.w3.org/1999/xlink">
<defs>
<clipPath id="c0_58"><path d="M0,909.8V0H641.7V909.8Z"/></clipPath>
<clipPath id="c1_58"><path d="M0,908.6V0H641.7V908.6Z"/></clipPath>
<style type="text/css"><![CDATA[
.g0_58{
fill: #FFFFFF;
}
.g1_58{
}
]]></style>
</defs>
<path d="M0,0H641.7V909.8H0V0Z" class="g0_58"/>
<path d="M0,0H641.7V909.8H0V0Z" class="g0_58"/>
<g clip-path="url(#c0_58)">
<path d="M0,-46399.3H641.7V60046.3H0V-46399.3Z" class="g0_58"/>
</g>
<path d="M0,0H641.7V908.6H0V0Z" class="g0_58"/>
<path d="M19.5,60.7H602.7v1.2H19.5V60.7Z" class="g1_58"/>
<g clip-path="url(#c1_58)">
<path d="M0,61.9H641.7V909.8H0V61.9Z" class="g0_58"/>
<g fill="#000000" >
<use xlink:href="#f5_bt" transform="matrix(14,0,0,14,212.3,96.3)" />
<use xlink:href="#f5_ct" transform="matrix(14,0,0,14,225.3,96.3)" />
<use xlink:href="#f5_b9" transform="matrix(14,0,0,14,231.8,96.3)" />
<use xlink:href="#f5_d8" transform="matrix(14,0,0,14,249.2,96.3)" />
<use xlink:href="#f5_bm" transform="matrix(14,0,0,14,255.7,96.3)" />
<use xlink:href="#f5_ct" transform="matrix(14,0,0,14,269,96.3)" />
<use xlink:href="#f5_c7" transform="matrix(14,0,0,14,275.5,96.3)" />
<use xlink:href="#f5_ct" transform="matrix(14,0,0,14,289.1,96.3)" />
<use xlink:href="#f5_c3" transform="matrix(14,0,0,14,295.6,96.3)" />
<use xlink:href="#f5_d4" transform="matrix(14,0,0,14,311.9,96.3)" />
<use xlink:href="#f5_bv" transform="matrix(14,0,0,14,317.6,96.3)" />
<use xlink:href="#f5_ct" transform="matrix(14,0,0,14,330.7,96.3)" />
<use xlink:href="#f5_c1" transform="matrix(14,0,0,14,337.2,96.3)" />
<use xlink:href="#f5_cb" transform="matrix(14,0,0,14,347.4,96.3)" />
<use xlink:href="#f5_br" transform="matrix(14,0,0,14,369.7,96.3)" />
<use xlink:href="#f5_ct" transform="matrix(14,0,0,14,382.7,96.3)" />
<use xlink:href="#f5_br" transform="matrix(14,0,0,14,389.2,96.3)" />
<use xlink:href="#f5_ct" transform="matrix(14,0,0,14,402.2,96.3)" />
<use xlink:href="#f6_g" transform="matrix(14,0,0,14,196.2,129.5)" />
<use xlink:href="#f6_bp" transform="matrix(14,0,0,14,202.1,129.5)" />
<use xlink:href="#f6_bg" transform="matrix(14,0,0,14,214.4,129.5)" />
<use xlink:href="#f6_dr" transform="matrix(14,0,0,14,229.1,129.5)" />
<use xlink:href="#f6_y" transform="matrix(14,0,0,14,234.4,129.5)" />
<use xlink:href="#f6_nv" transform="matrix(14,0,0,14,247,129.5)" />
<use xlink:href="#f6_c8" transform="matrix(14,0,0,14,252.6,129.5)" />
<use xlink:href="#f6_c1" transform="matrix(14,0,0,14,268.5,129.5)" />
<use xlink:href="#f6_bm" transform="matrix(14,0,0,14,276.9,129.5)" />
<use xlink:href="#f6_cv" transform="matrix(14,0,0,14,289.6,129.5)" />
<use xlink:href="#f6_c7" transform="matrix(14,0,0,14,295.2,129.5)" />
<use xlink:href="#f6_ct" transform="matrix(14,0,0,14,307.3,129.5)" />
<use xlink:href="#f6_c3" transform="matrix(14,0,0,14,312.9,129.5)" />
<use xlink:href="#f6_d4" transform="matrix(14,0,0,14,327.7,129.5)" />
<use xlink:href="#f6_cb" transform="matrix(14,0,0,14,333.2,129.5)" />
<use xlink:href="#f6_ct" transform="matrix(14,0,0,14,348.1,129.5)" />
<use xlink:href="#f6_ao" transform="matrix(14,0,0,14,353.7,129.5)" />
<use xlink:href="#f6_bx" transform="matrix(14,0,0,14,365.2,129.5)" />
<use xlink:href="#f6_ct" transform="matrix(14,0,0,14,377.5,129.5)" />
<use xlink:href="#f6_bx" transform="matrix(14,0,0,14,383.2,129.5)" />
<use xlink:href="#f6_ct" transform="matrix(14,0,0,14,395.5,129.5)" />
<use xlink:href="#f6_pc" transform="matrix(14,0,0,14,401.1,129.5)" />
<use xlink:href="#f6_pc" transform="matrix(14,0,0,14,405.4,129.5)" />
<use xlink:href="#f6_pc" transform="matrix(14,0,0,14,409.6,129.5)" />
<use xlink:href="#f6_pc" transform="matrix(14,0,0,14,413.9,129.5)" />
<use xlink:href="#f6_h" transform="matrix(14,0,0,14,418.2,129.5)" />
<use xlink:href="#f6_8f" transform="matrix(14,0,0,14,161.9,187.9)" />
<use xlink:href="#f6_bg" transform="matrix(14,0,0,14,170,187.9)" />
<use xlink:href="#f6_bz" transform="matrix(14,0,0,14,184.3,187.9)" />
<use xlink:href="#f6_ct" transform="matrix(14,0,0,14,197.6,187.9)" />
<use xlink:href="#f6_bt" transform="matrix(14,0,0,14,203.3,187.9)" />
<use xlink:href="#f6_d4" transform="matrix(14,0,0,14,215.1,187.9)" />
<use xlink:href="#f6_bz" transform="matrix(14,0,0,14,220.6,187.9)" />
<use xlink:href="#f6_oz" transform="matrix(14,0,0,14,234.1,187.9)" />
<use xlink:href="#f6_b9" transform="matrix(14,0,0,14,239.6,187.9)" />
<use xlink:href="#f6_cc" transform="matrix(14,0,0,14,255.1,187.9)" />
<use xlink:href="#f6_ct" transform="matrix(14,0,0,14,266.7,187.9)" />
<use xlink:href="#f6_dj" transform="matrix(14,0,0,14,267,188.3)" />
<use xlink:href="#f6_bk" transform="matrix(14,0,0,14,278,187.9)" />
<use xlink:href="#f6_cx" transform="matrix(14,0,0,14,288.8,187.8)" />
<use xlink:href="#f6_bk" transform="matrix(14,0,0,14,289.6,187.9)" />
<use xlink:href="#f6_cv" transform="matrix(14,0,0,14,301.2,187.9)" />
<use xlink:href="#f6_n4" transform="matrix(14,0,0,14,312.4,187.9)" />
<use xlink:href="#f6_ao" transform="matrix(14,0,0,14,324.1,187.9)" />
<use xlink:href="#f6_bp" transform="matrix(14,0,0,14,341.2,187.9)" />
<use xlink:href="#f6_m1" transform="matrix(14,0,0,14,353.5,187.9)" />
<use xlink:href="#f6_c7" transform="matrix(14,0,0,14,362.3,187.9)" />
<use xlink:href="#f6_cv" transform="matrix(14,0,0,14,374.4,187.9)" />
<use xlink:href="#f6_c1" transform="matrix(14,0,0,14,380,187.9)" />
<use xlink:href="#f6_bx" transform="matrix(14,0,0,14,394.1,187.9)" />
<use xlink:href="#f6_bt" transform="matrix(14,0,0,14,406.4,187.9)" />
<use xlink:href="#f6_bp" transform="matrix(14,0,0,14,418.1,187.9)" />
<use xlink:href="#f6_cv" transform="matrix(14,0,0,14,430.4,187.9)" />
<use xlink:href="#f6_cc" transform="matrix(14,0,0,14,441.7,187.9)" />
<use xlink:href="#f6_d5" transform="matrix(14,0,0,14,453.6,187.9)" />
<use xlink:href="#f6_k" transform="matrix(14,0,0,14,453.3,187.9)" />
<use xlink:href="#f6_bp" transform="matrix(14,0,0,14,156.1,221.1)" />
<use xlink:href="#f6_d4" transform="matrix(14,0,0,14,168.6,221.1)" />
<use xlink:href="#f6_c1" transform="matrix(14,0,0,14,168.5,221.1)" />
<use xlink:href="#f6_d4" transform="matrix(14,0,0,14,176.4,221.1)" />
<use xlink:href="#f6_br" transform="matrix(14,0,0,14,182.5,221.1)" />
<use xlink:href="#f6_c1" transform="matrix(14,0,0,14,194.2,221.1)" />
<use xlink:href="#f6_bx" transform="matrix(14,0,0,14,202.5,221.1)" />
<use xlink:href="#f6_ct" transform="matrix(14,0,0,14,214.8,221.1)" />
<use xlink:href="#f6_c1" transform="matrix(14,0,0,14,220.5,221.1)" />
<use xlink:href="#f6_bz" transform="matrix(14,0,0,14,234.5,221.1)" />
<use xlink:href="#f6_oz" transform="matrix(14,0,0,14,248,221.1)" />
<use xlink:href="#f6_cu" transform="matrix(14,0,0,14,253.5,221.1)" />
<use xlink:href="#f6_bx" transform="matrix(14,0,0,14,259.1,221.1)" />
<use xlink:href="#f6_bb" transform="matrix(14,0,0,14,271.4,221.1)" />
<use xlink:href="#f6_ch" transform="matrix(14,0,0,14,284,221.1)" />
<use xlink:href="#f6_cv" transform="matrix(14,0,0,14,296.7,221.1)" />
<use xlink:href="#f6_n4" transform="matrix(14,0,0,14,308,221.1)" />
<use xlink:href="#f6_ao" transform="matrix(14,0,0,14,319.6,221.1)" />
<use xlink:href="#f6_bp" transform="matrix(14,0,0,14,336.8,221.1)" />
<use xlink:href="#f6_b9" transform="matrix(14,0,0,14,349.1,221.1)" />
<use xlink:href="#f6_br" transform="matrix(14,0,0,14,364.6,221.1)" />
<use xlink:href="#f6_ob" transform="matrix(14,0,0,14,376.3,221.1)" />
<use xlink:href="#f6_c1" transform="matrix(14,0,0,14,381.9,221.1)" />
<use xlink:href="#f6_bx" transform="matrix(14,0,0,14,395.9,221.1)" />
<use xlink:href="#f6_bt" transform="matrix(14,0,0,14,408.2,221.1)" />
<use xlink:href="#f6_bp" transform="matrix(14,0,0,14,419.9,221.1)" />
<use xlink:href="#f6_cv" transform="matrix(14,0,0,14,432.2,221.1)" />
<use xlink:href="#f6_cc" transform="matrix(14,0,0,14,443.5,221.1)" />
<use xlink:href="#f6_d5" transform="matrix(14,0,0,14,455.5,221.1)" />
<use xlink:href="#f6_ng" transform="matrix(14,0,0,14,455.1,221.1)" />
<use xlink:href="#f6_bp" transform="matrix(14,0,0,14,200.8,279.6)" />
<use xlink:href="#f6_ct" transform="matrix(14,0,0,14,213.1,279.6)" />
<use xlink:href="#f6_nr" transform="matrix(14,0,0,14,218.8,279.6)" />
<use xlink:href="#f6_c1" transform="matrix(14,0,0,14,224.4,279.6)" />
<use xlink:href="#f6_bw" transform="matrix(14,0,0,14,232.8,279.6)" />
<use xlink:href="#f6_bp" transform="matrix(14,0,0,14,254.5,279.6)" />
<use xlink:href="#f6_d4" transform="matrix(14,0,0,14,267,279.6)" />
<use xlink:href="#f6_c1" transform="matrix(14,0,0,14,266.8,279.6)" />
<use xlink:href="#f6_cv" transform="matrix(14,0,0,14,275.2,279.6)" />
<use xlink:href="#f6_cu" transform="matrix(14,0,0,14,286.5,279.6)" />
<use xlink:href="#f6_bt" transform="matrix(14,0,0,14,292.1,279.6)" />
<use xlink:href="#f6_b9" transform="matrix(14,0,0,14,303.8,279.6)" />
<use xlink:href="#f6_c3" transform="matrix(14,0,0,14,319.3,279.6)" />
<use xlink:href="#f6_cv" transform="matrix(14,0,0,14,334,279.6)" />
<use xlink:href="#f6_cc" transform="matrix(14,0,0,14,345.3,279.6)" />
<use xlink:href="#f6_d5" transform="matrix(14,0,0,14,357.3,279.6)" />
<use xlink:href="#f6_cu" transform="matrix(14,0,0,14,362.6,279.6)" />
<use xlink:href="#f6_br" transform="matrix(14,0,0,14,368.2,279.6)" />
<use xlink:href="#f6_c3" transform="matrix(14,0,0,14,379.9,279.6)" />
<use xlink:href="#f6_cb" transform="matrix(14,0,0,14,400.3,279.6)" />
<use xlink:href="#f6_d4" transform="matrix(14,0,0,14,415.3,279.6)" />
<use xlink:href="#f6_k" transform="matrix(14,0,0,14,415.2,279.6)" />
<use xlink:href="#f6_am" transform="matrix(14,0,0,14,200.8,312.8)" />
<use xlink:href="#f6_c0" transform="matrix(14,0,0,14,222.3,312.8)" />
<use xlink:href="#f6_d4" transform="matrix(14,0,0,14,235,312.8)" />
<use xlink:href="#f6_cc" transform="matrix(14,0,0,14,240.5,312.8)" />
<use xlink:href="#f6_d5" transform="matrix(14,0,0,14,252.5,312.8)" />
<use xlink:href="#f6_c3" transform="matrix(14,0,0,14,257.8,312.8)" />
<use xlink:href="#f6_bx" transform="matrix(14,0,0,14,272.5,312.8)" />
<use xlink:href="#f6_bv" transform="matrix(14,0,0,14,290.5,312.8)" />
<use xlink:href="#f6_d4" transform="matrix(14,0,0,14,302.5,312.8)" />
<use xlink:href="#f6_bx" transform="matrix(14,0,0,14,308,312.8)" />
<use xlink:href="#f6_bt" transform="matrix(14,0,0,14,320.3,312.8)" />
<use xlink:href="#f6_b9" transform="matrix(14,0,0,14,337.7,312.8)" />
<use xlink:href="#f6_d4" transform="matrix(14,0,0,14,348.8,312.8)" />
<use xlink:href="#f6_b9" transform="matrix(14,0,0,14,358.8,312.8)" />
<use xlink:href="#f6_lx" transform="matrix(14,0,0,14,374.3,312.8)" />
<use xlink:href="#f6_c7" transform="matrix(14,0,0,14,382,312.8)" />
<use xlink:href="#f6_ct" transform="matrix(14,0,0,14,394.1,312.8)" />
<use xlink:href="#f6_c3" transform="matrix(14,0,0,14,399.7,312.8)" />
<use xlink:href="#f6_cv" transform="matrix(14,0,0,14,414.4,312.8)" />
<use xlink:href="#f6_bt" transform="matrix(14,0,0,14,125.2,371.3)" />
<use xlink:href="#f6_ct" transform="matrix(14,0,0,14,136.9,371.3)" />
<use xlink:href="#f6_b9" transform="matrix(14,0,0,14,142.5,371.3)" />
<use xlink:href="#f6_d8" transform="matrix(14,0,0,14,158,371.3)" />
<use xlink:href="#f6_ch" transform="matrix(14,0,0,14,163.7,371.3)" />
<use xlink:href="#f6_ct" transform="matrix(14,0,0,14,176.3,371.3)" />
<use xlink:href="#f6_c7" transform="matrix(14,0,0,14,187.6,371.3)" />
<use xlink:href="#f6_ct" transform="matrix(14,0,0,14,199.7,371.3)" />
<use xlink:href="#f6_c3" transform="matrix(14,0,0,14,205.3,371.3)" />
<use xlink:href="#f6_d4" transform="matrix(14,0,0,14,220.2,371.3)" />
<use xlink:href="#f6_bv" transform="matrix(14,0,0,14,225.7,371.3)" />
<use xlink:href="#f6_ct" transform="matrix(14,0,0,14,237.6,371.3)" />
<use xlink:href="#f6_c1" transform="matrix(14,0,0,14,243.2,371.3)" />
<use xlink:href="#f6_cb" transform="matrix(14,0,0,14,251.6,371.3)" />
<use xlink:href="#f6_br" transform="matrix(14,0,0,14,272.1,371.3)" />
<use xlink:href="#f6_ct" transform="matrix(14,0,0,14,283.8,371.3)" />
<use xlink:href="#f6_br" transform="matrix(14,0,0,14,289.4,371.3)" />
<use xlink:href="#f6_ct" transform="matrix(14,0,0,14,301.1,371.3)" />
<use xlink:href="#f6_k" transform="matrix(14,0,0,14,306.7,371.3)" />
<use xlink:href="#f6_am" transform="matrix(14,0,0,14,317.6,371.3)" />
<use xlink:href="#f6_c0" transform="matrix(14,0,0,14,339.1,371.3)" />
<use xlink:href="#f6_d4" transform="matrix(14,0,0,14,351.7,371.3)" />
<use xlink:href="#f6_cc" transform="matrix(14,0,0,14,357.3,371.3)" />
<use xlink:href="#f6_p3" transform="matrix(14,0,0,14,369.2,371.3)" />
<use xlink:href="#f6_bp" transform="matrix(14,0,0,14,374.5,371.3)" />
<use xlink:href="#f6_d4" transform="matrix(14,0,0,14,387,371.3)" />
<use xlink:href="#f6_c1" transform="matrix(14,0,0,14,386.9,371.3)" />
<use xlink:href="#f6_d4" transform="matrix(14,0,0,14,394.8,371.3)" />
<use xlink:href="#f6_br" transform="matrix(14,0,0,14,400.9,371.3)" />
<use xlink:href="#f6_c1" transform="matrix(14,0,0,14,412.6,371.3)" />
<use xlink:href="#f6_bv" transform="matrix(14,0,0,14,426.6,371.3)" />
<use xlink:href="#f6_d4" transform="matrix(14,0,0,14,438.6,371.3)" />
<use xlink:href="#f6_bv" transform="matrix(14,0,0,14,444.1,371.3)" />
<use xlink:href="#f6_cw" transform="matrix(14,0,0,14,456.5,371.1)" />
<use xlink:href="#f6_bg" transform="matrix(14,0,0,14,456,371.3)" />
<use xlink:href="#f6_ct" transform="matrix(14,0,0,14,470.3,371.3)" />
<use xlink:href="#f6_c1" transform="matrix(14,0,0,14,475.9,371.3)" />
<use xlink:href="#f6_cv" transform="matrix(14,0,0,14,484.3,371.3)" />
<use xlink:href="#f6_k" transform="matrix(14,0,0,14,489.9,371.3)" />
<use xlink:href="#f6_bz" transform="matrix(14,0,0,14,86.2,404.5)" />
<use xlink:href="#f6_bt" transform="matrix(14,0,0,14,99.6,404.5)" />
<use xlink:href="#f6_bz" transform="matrix(14,0,0,14,117,404.5)" />
<use xlink:href="#f6_oz" transform="matrix(14,0,0,14,130.4,404.5)" />
<use xlink:href="#f6_am" transform="matrix(14,0,0,14,136,404.5)" />
<use xlink:href="#f6_c8" transform="matrix(14,0,0,14,157.4,404.5)" />
<use xlink:href="#f6_ct" transform="matrix(14,0,0,14,173.3,404.5)" />
<use xlink:href="#f6_nt" transform="matrix(14,0,0,14,184.6,404.5)" />
<use xlink:href="#f6_bz" transform="matrix(14,0,0,14,190.2,404.5)" />
<use xlink:href="#f6_c3" transform="matrix(14,0,0,14,203.6,404.5)" />
<use xlink:href="#f6_bp" transform="matrix(14,0,0,14,218.3,404.5)" />
<use xlink:href="#f6_cv" transform="matrix(14,0,0,14,230.6,404.5)" />
<use xlink:href="#f6_cu" transform="matrix(14,0,0,14,241.9,404.5)" />
<use xlink:href="#f6_bt" transform="matrix(14,0,0,14,247.5,404.5)" />
<use xlink:href="#f6_c1" transform="matrix(14,0,0,14,259.2,404.5)" />
<use xlink:href="#f6_ct" transform="matrix(14,0,0,14,267.6,404.5)" />
<use xlink:href="#f6_c8" transform="matrix(14,0,0,14,273.2,404.5)" />
<use xlink:href="#f6_ct" transform="matrix(14,0,0,14,289.1,404.5)" />
<use xlink:href="#f6_k" transform="matrix(14,0,0,14,294.7,404.5)" />
<use xlink:href="#f6_cu" transform="matrix(14,0,0,14,305.6,404.5)" />
<use xlink:href="#f6_br" transform="matrix(14,0,0,14,311.2,404.5)" />
<use xlink:href="#f6_c3" transform="matrix(14,0,0,14,322.9,404.5)" />
<use xlink:href="#f6_bz" transform="matrix(14,0,0,14,343.2,404.5)" />
<use xlink:href="#f6_oz" transform="matrix(14,0,0,14,356.7,404.5)" />
<use xlink:href="#f6_ap" transform="matrix(14,0,0,14,362.2,404.5)" />
<use xlink:href="#f6_lq" transform="matrix(14,0,0,14,373.6,404.5)" />
<use xlink:href="#f6_bz" transform="matrix(14,0,0,14,380.7,404.5)" />
<use xlink:href="#f6_cv" transform="matrix(14,0,0,14,394,404.5)" />
<use xlink:href="#f6_br" transform="matrix(14,0,0,14,399.7,404.5)" />
<use xlink:href="#f6_oz" transform="matrix(14,0,0,14,410.9,404.5)" />
<use xlink:href="#f6_bv" transform="matrix(14,0,0,14,417,404.5)" />
<use xlink:href="#f6_c1" transform="matrix(14,0,0,14,428.9,404.5)" />
<use xlink:href="#f6_bh" transform="matrix(14,0,0,14,442.9,404.5)" />
<use xlink:href="#f6_d8" transform="matrix(14,0,0,14,459.7,404.5)" />
<use xlink:href="#f6_c3" transform="matrix(14,0,0,14,465.3,404.5)" />
<use xlink:href="#f6_cv" transform="matrix(14,0,0,14,480,404.5)" />
<use xlink:href="#f6_ba" transform="matrix(14,0,0,14,491.3,404.5)" />
<use xlink:href="#f6_ct" transform="matrix(14,0,0,14,508,404.5)" />
<use xlink:href="#f6_c3" transform="matrix(14,0,0,14,513.7,404.5)" />
<use xlink:href="#f6_cv" transform="matrix(14,0,0,14,528.4,404.5)" />
<use xlink:href="#f6_bt" transform="matrix(14,0,0,14,197.4,437.7)" />
<use xlink:href="#f6_ct" transform="matrix(14,0,0,14,209.1,437.7)" />
<use xlink:href="#f6_b9" transform="matrix(14,0,0,14,214.7,437.7)" />
<use xlink:href="#f6_d8" transform="matrix(14,0,0,14,230.2,437.7)" />
<use xlink:href="#f6_ch" transform="matrix(14,0,0,14,235.8,437.7)" />
<use xlink:href="#f6_ct" transform="matrix(14,0,0,14,248.5,437.7)" />
<use xlink:href="#f6_c7" transform="matrix(14,0,0,14,259.8,437.7)" />
<use xlink:href="#f6_ct" transform="matrix(14,0,0,14,271.9,437.7)" />
<use xlink:href="#f6_c3" transform="matrix(14,0,0,14,277.5,437.7)" />
<use xlink:href="#f6_d4" transform="matrix(14,0,0,14,292.3,437.7)" />
<use xlink:href="#f6_8l" transform="matrix(14,0,0,14,292.2,437.7)" />
<use xlink:href="#f6_pc" transform="matrix(14,0,0,14,312,437.7)" />
<use xlink:href="#f6_bv" transform="matrix(14,0,0,14,322,437.7)" />
<use xlink:href="#f6_ct" transform="matrix(14,0,0,14,333.8,437.7)" />
<use xlink:href="#f6_c1" transform="matrix(14,0,0,14,339.5,437.7)" />
<use xlink:href="#f6_cb" transform="matrix(14,0,0,14,347.8,437.7)" />
<use xlink:href="#f6_br" transform="matrix(14,0,0,14,368.4,437.7)" />
<use xlink:href="#f6_ct" transform="matrix(14,0,0,14,380.1,437.7)" />
<use xlink:href="#f6_br" transform="matrix(14,0,0,14,385.7,437.7)" />
<use xlink:href="#f6_ct" transform="matrix(14,0,0,14,397.3,437.7)" />
<use xlink:href="#f6_pc" transform="matrix(14,0,0,14,403,437.7)" />
<use xlink:href="#f6_pc" transform="matrix(14,0,0,14,407.2,437.7)" />
<use xlink:href="#f6_pc" transform="matrix(14,0,0,14,411.5,437.7)" />
<use xlink:href="#f6_pc" transform="matrix(14,0,0,14,415.8,437.7)" />
<use xlink:href="#f6_pc" transform="matrix(14,0,0,14,420.1,437.7)" />
<use xlink:href="#f6_cb" transform="matrix(14,0,0,14,167.6,496.1)" />
<use xlink:href="#f6_cw" transform="matrix(14,0,0,14,183,496.1)" />
<use xlink:href="#f6_bt" transform="matrix(14,0,0,14,182.5,496.1)" />
<use xlink:href="#f6_d8" transform="matrix(14,0,0,14,194.2,496.1)" />
<use xlink:href="#f6_b1" transform="matrix(14,0,0,14,205.5,496.1)" />
<use xlink:href="#f6_bv" transform="matrix(14,0,0,14,232.6,496.1)" />
<use xlink:href="#f6_ct" transform="matrix(14,0,0,14,244.5,496.1)" />
<use xlink:href="#f6_c1" transform="matrix(14,0,0,14,250.1,496.1)" />
<use xlink:href="#f6_cb" transform="matrix(14,0,0,14,258.5,496.1)" />
<use xlink:href="#f6_br" transform="matrix(14,0,0,14,279,496.1)" />
<use xlink:href="#f6_d4" transform="matrix(14,0,0,14,290.3,496.1)" />
<use xlink:href="#f6_c7" transform="matrix(14,0,0,14,290.7,496.1)" />
<use xlink:href="#f6_ct" transform="matrix(14,0,0,14,302.8,496.1)" />
<use xlink:href="#f6_k" transform="matrix(14,0,0,14,308.4,496.1)" />
<use xlink:href="#f6_bp" transform="matrix(14,0,0,14,319.3,496.1)" />
<use xlink:href="#f6_d4" transform="matrix(14,0,0,14,331.7,496.1)" />
<use xlink:href="#f6_c1" transform="matrix(14,0,0,14,331.6,496.1)" />
<use xlink:href="#f6_d4" transform="matrix(14,0,0,14,339.6,496.1)" />
<use xlink:href="#f6_cb" transform="matrix(14,0,0,14,345.6,496.1)" />
<use xlink:href="#f6_bx" transform="matrix(14,0,0,14,360.5,496.1)" />
<use xlink:href="#f6_bt" transform="matrix(14,0,0,14,378.5,496.1)" />
<use xlink:href="#f6_ct" transform="matrix(14,0,0,14,390.2,496.1)" />
<use xlink:href="#f6_bz" transform="matrix(14,0,0,14,395.8,496.1)" />
<use xlink:href="#f6_c3" transform="matrix(14,0,0,14,414.8,496.1)" />
<use xlink:href="#f6_d4" transform="matrix(14,0,0,14,429.7,496.1)" />
<use xlink:href="#f6_c7" transform="matrix(14,0,0,14,429.5,496.1)" />
<use xlink:href="#f6_ct" transform="matrix(14,0,0,14,441.6,496.1)" />
<use xlink:href="#f6_k" transform="matrix(14,0,0,14,447.2,496.1)" />
<use xlink:href="#f6_bg" transform="matrix(14,0,0,14,171,529.4)" />
<use xlink:href="#f6_bz" transform="matrix(14,0,0,14,185.3,529.4)" />
<use xlink:href="#f6_ct" transform="matrix(14,0,0,14,198.6,529.4)" />
<use xlink:href="#f6_bt" transform="matrix(14,0,0,14,204.3,529.4)" />
<use xlink:href="#f6_d4" transform="matrix(14,0,0,14,216.1,529.4)" />
<use xlink:href="#f6_bz" transform="matrix(14,0,0,14,221.6,529.4)" />
<use xlink:href="#f6_oz" transform="matrix(14,0,0,14,235.1,529.4)" />
<use xlink:href="#f6_cc" transform="matrix(14,0,0,14,240.6,529.4)" />
<use xlink:href="#f6_d5" transform="matrix(14,0,0,14,252.6,529.4)" />
<use xlink:href="#f6_cb" transform="matrix(14,0,0,14,257.9,529.4)" />
<use xlink:href="#f6_ct" transform="matrix(14,0,0,14,272.8,529.4)" />
<use xlink:href="#f6_c1" transform="matrix(14,0,0,14,278.4,529.4)" />
<use xlink:href="#f6_d4" transform="matrix(14,0,0,14,286.4,529.4)" />
<use xlink:href="#f6_k" transform="matrix(14,0,0,14,286.8,529.4)" />
<use xlink:href="#f6_cb" transform="matrix(14,0,0,14,297.7,529.4)" />
<use xlink:href="#f6_by" transform="matrix(14,0,0,14,312.5,529.4)" />
<use xlink:href="#f6_cv" transform="matrix(14,0,0,14,326.5,529.4)" />
<use xlink:href="#f6_cc" transform="matrix(14,0,0,14,337.8,529.4)" />
<use xlink:href="#f6_d5" transform="matrix(14,0,0,14,349.7,529.4)" />
<use xlink:href="#f6_bp" transform="matrix(14,0,0,14,355.1,529.4)" />
<use xlink:href="#f6_cw" transform="matrix(14,0,0,14,367.9,529.3)" />
<use xlink:href="#f6_bh" transform="matrix(14,0,0,14,367.4,529.4)" />
<use xlink:href="#f6_b9" transform="matrix(14,0,0,14,384.2,529.4)" />
<use xlink:href="#f6_d8" transform="matrix(14,0,0,14,399.7,529.4)" />
<use xlink:href="#f6_ll" transform="matrix(14,0,0,14,410.9,529.4)" />
<use xlink:href="#f6_c0" transform="matrix(14,0,0,14,417.4,529.4)" />
<use xlink:href="#f6_ct" transform="matrix(14,0,0,14,429.9,529.4)" />
<use xlink:href="#f6_c1" transform="matrix(14,0,0,14,435.6,529.4)" />
<use xlink:href="#f6_d4" transform="matrix(14,0,0,14,443.5,529.4)" />
<use xlink:href="#f6_k" transform="matrix(14,0,0,14,443.9,529.4)" />
<use xlink:href="#f6_bp" transform="matrix(14,0,0,14,159.6,562.6)" />
<use xlink:href="#f6_cw" transform="matrix(14,0,0,14,172.4,562.5)" />
<use xlink:href="#f6_lq" transform="matrix(14,0,0,14,171.9,562.6)" />
<use xlink:href="#f6_cc" transform="matrix(14,0,0,14,178.6,562.6)" />
<use xlink:href="#f6_d4" transform="matrix(14,0,0,14,190.5,562.6)" />
<use xlink:href="#f6_bw" transform="matrix(14,0,0,14,195.8,562.6)" />
<use xlink:href="#f6_c1" transform="matrix(14,0,0,14,211.9,562.6)" />
<use xlink:href="#f6_cv" transform="matrix(14,0,0,14,220.3,562.6)" />
<use xlink:href="#f6_c0" transform="matrix(14,0,0,14,225.9,562.6)" />
<use xlink:href="#f6_ct" transform="matrix(14,0,0,14,238.5,562.6)" />
<use xlink:href="#f6_br" transform="matrix(14,0,0,14,244.1,562.6)" />
<use xlink:href="#f6_cb" transform="matrix(14,0,0,14,261.4,562.6)" />
<use xlink:href="#f6_bx" transform="matrix(14,0,0,14,276.3,562.6)" />
<use xlink:href="#f6_b9" transform="matrix(14,0,0,14,288.6,562.6)" />
<use xlink:href="#f6_oc" transform="matrix(14,0,0,14,304.1,562.6)" />
<use xlink:href="#f6_k" transform="matrix(14,0,0,14,309.7,562.6)" />
<use xlink:href="#f6_bp" transform="matrix(14,0,0,14,320.6,562.6)" />
<use xlink:href="#f6_cw" transform="matrix(14,0,0,14,333.5,562.5)" />
<use xlink:href="#f6_bh" transform="matrix(14,0,0,14,332.9,562.6)" />
<use xlink:href="#f6_d4" transform="matrix(14,0,0,14,349.8,562.6)" />
<use xlink:href="#f6_cc" transform="matrix(14,0,0,14,355.4,562.6)" />
<use xlink:href="#f6_d5" transform="matrix(14,0,0,14,367.3,562.6)" />
<use xlink:href="#f6_c0" transform="matrix(14,0,0,14,372.6,562.6)" />
<use xlink:href="#f6_ct" transform="matrix(14,0,0,14,385.2,562.6)" />
<use xlink:href="#f6_br" transform="matrix(14,0,0,14,390.8,562.6)" />
<use xlink:href="#f6_cb" transform="matrix(14,0,0,14,408.1,562.6)" />
<use xlink:href="#f6_bx" transform="matrix(14,0,0,14,423,562.6)" />
<use xlink:href="#f6_b9" transform="matrix(14,0,0,14,435.3,562.6)" />
<use xlink:href="#f6_oc" transform="matrix(14,0,0,14,450.8,562.6)" />
<use xlink:href="#f6_k" transform="matrix(14,0,0,14,456.4,562.6)" />
<use xlink:href="#f6_bx" transform="matrix(14,0,0,14,172.2,595.8)" />
<use xlink:href="#f6_ch" transform="matrix(14,0,0,14,184.5,595.8)" />
<use xlink:href="#f6_ct" transform="matrix(14,0,0,14,197.1,595.8)" />
<use xlink:href="#f6_c0" transform="matrix(14,0,0,14,208.4,595.8)" />
<use xlink:href="#f6_ct" transform="matrix(14,0,0,14,221,595.8)" />
<use xlink:href="#f6_b9" transform="matrix(14,0,0,14,232.3,595.8)" />
<use xlink:href="#f6_d8" transform="matrix(14,0,0,14,247.8,595.8)" />
<use xlink:href="#f6_ao" transform="matrix(14,0,0,14,253.4,595.8)" />
<use xlink:href="#f6_bf" transform="matrix(14,0,0,14,270.6,595.8)" />
<use xlink:href="#f6_d8" transform="matrix(14,0,0,14,286.3,595.8)" />
<use xlink:href="#f6_bk" transform="matrix(14,0,0,14,291.9,595.8)" />
<use xlink:href="#f6_ct" transform="matrix(14,0,0,14,303.5,595.8)" />
<use xlink:href="#f6_k" transform="matrix(14,0,0,14,309.1,595.8)" />
<use xlink:href="#f6_bt" transform="matrix(14,0,0,14,320,595.8)" />
<use xlink:href="#f6_cc" transform="matrix(14,0,0,14,331.7,595.8)" />
<use xlink:href="#f6_cv" transform="matrix(14,0,0,14,343.3,595.8)" />
<use xlink:href="#f6_dj" transform="matrix(14,0,0,14,347.9,596.7)" />
<use xlink:href="#f6_bz" transform="matrix(14,0,0,14,354.6,595.8)" />
<use xlink:href="#f6_ct" transform="matrix(14,0,0,14,367.9,595.8)" />
<use xlink:href="#f6_c0" transform="matrix(14,0,0,14,373.5,595.8)" />
<use xlink:href="#f6_cx" transform="matrix(14,0,0,14,386,595.7)" />
<use xlink:href="#f6_cb" transform="matrix(14,0,0,14,386.1,595.8)" />
<use xlink:href="#f6_c3" transform="matrix(14,0,0,14,406.6,595.8)" />
<use xlink:href="#f6_d9" transform="matrix(14,0,0,14,421.3,595.8)" />
<use xlink:href="#f6_bk" transform="matrix(14,0,0,14,426.9,595.8)" />
<use xlink:href="#f6_ct" transform="matrix(14,0,0,14,438.5,595.8)" />
<use xlink:href="#f6_k" transform="matrix(14,0,0,14,444.1,595.8)" />
<use xlink:href="#f6_al" transform="matrix(14,0,0,14,176.8,629.1)" />
<use xlink:href="#f6_nt" transform="matrix(14,0,0,14,192.6,629.1)" />
<use xlink:href="#f6_bz" transform="matrix(14,0,0,14,198.2,629.1)" />
<use xlink:href="#f6_c1" transform="matrix(14,0,0,14,211.6,629.1)" />
<use xlink:href="#f6_d8" transform="matrix(14,0,0,14,220,629.1)" />
<use xlink:href="#f6_dj" transform="matrix(14,0,0,14,224.3,629.9)" />
<use xlink:href="#f6_b9" transform="matrix(14,0,0,14,231.3,629.1)" />
<use xlink:href="#f6_ct" transform="matrix(14,0,0,14,246.8,629.1)" />
<use xlink:href="#f6_cb" transform="matrix(14,0,0,14,258,629.1)" />
<use xlink:href="#f6_cc" transform="matrix(14,0,0,14,272.9,629.1)" />
<use xlink:href="#f6_ct" transform="matrix(14,0,0,14,284.5,629.1)" />
<use xlink:href="#f6_c1" transform="matrix(14,0,0,14,290.1,629.1)" />
<use xlink:href="#f6_ct" transform="matrix(14,0,0,14,298.5,629.1)" />
<use xlink:href="#f6_k" transform="matrix(14,0,0,14,304.1,629.1)" />
<use xlink:href="#f6_bb" transform="matrix(14,0,0,14,315,629.1)" />
<use xlink:href="#f6_c1" transform="matrix(14,0,0,14,327.6,629.1)" />
<use xlink:href="#f6_cv" transform="matrix(14,0,0,14,336,629.1)" />
<use xlink:href="#f6_bx" transform="matrix(14,0,0,14,341.6,629.1)" />
<use xlink:href="#f6_d8" transform="matrix(14,0,0,14,353.9,629.1)" />
<use xlink:href="#f6_dj" transform="matrix(14,0,0,14,358.2,629.9)" />
<use xlink:href="#f6_b9" transform="matrix(14,0,0,14,365.2,629.1)" />
<use xlink:href="#f6_ct" transform="matrix(14,0,0,14,380.7,629.1)" />
<use xlink:href="#f6_cb" transform="matrix(14,0,0,14,392,629.1)" />
<use xlink:href="#f6_cc" transform="matrix(14,0,0,14,406.9,629.1)" />
<use xlink:href="#f6_ct" transform="matrix(14,0,0,14,418.5,629.1)" />
<use xlink:href="#f6_c1" transform="matrix(14,0,0,14,424.1,629.1)" />
<use xlink:href="#f6_ct" transform="matrix(14,0,0,14,432.5,629.1)" />
<use xlink:href="#f6_k" transform="matrix(14,0,0,14,438.1,629.1)" />
<use xlink:href="#f6_bp" transform="matrix(14,0,0,14,168.7,662.3)" />
<use xlink:href="#f6_d4" transform="matrix(14,0,0,14,181.2,662.3)" />
<use xlink:href="#f6_c1" transform="matrix(14,0,0,14,181.1,662.3)" />
<use xlink:href="#f6_cv" transform="matrix(14,0,0,14,189.4,662.3)" />
<use xlink:href="#f6_bz" transform="matrix(14,0,0,14,200.7,662.3)" />
<use xlink:href="#f6_cu" transform="matrix(14,0,0,14,214.1,662.3)" />
<use xlink:href="#f6_cc" transform="matrix(14,0,0,14,219.7,662.3)" />
<use xlink:href="#f6_bz" transform="matrix(14,0,0,14,231.3,662.3)" />
<use xlink:href="#f6_ct" transform="matrix(14,0,0,14,244.6,662.3)" />
<use xlink:href="#f6_b9" transform="matrix(14,0,0,14,255.9,662.3)" />
<use xlink:href="#f6_oc" transform="matrix(14,0,0,14,271.4,662.3)" />
<use xlink:href="#f6_bx" transform="matrix(14,0,0,14,282.7,662.3)" />
<use xlink:href="#f6_ct" transform="matrix(14,0,0,14,295,662.3)" />
<use xlink:href="#f6_bp" transform="matrix(14,0,0,14,300.6,662.3)" />
<use xlink:href="#f6_d4" transform="matrix(14,0,0,14,313.1,662.3)" />
<use xlink:href="#f6_k" transform="matrix(14,0,0,14,312.9,662.3)" />
<use xlink:href="#f6_cc" transform="matrix(14,0,0,14,323.8,662.3)" />
<use xlink:href="#f6_bz" transform="matrix(14,0,0,14,335.4,662.3)" />
<use xlink:href="#f6_cb" transform="matrix(14,0,0,14,354.4,662.3)" />
<use xlink:href="#f6_bx" transform="matrix(14,0,0,14,369.3,662.3)" />
<use xlink:href="#f6_b9" transform="matrix(14,0,0,14,387.3,662.3)" />
<use xlink:href="#f6_c1" transform="matrix(14,0,0,14,402.8,662.3)" />
<use xlink:href="#f6_d4" transform="matrix(14,0,0,14,410.7,662.3)" />
<use xlink:href="#f6_ik" transform="matrix(14,0,0,14,416.8,662.3)" />
<use xlink:href="#f6_ct" transform="matrix(14,0,0,14,441.8,662.3)" />
<use xlink:href="#f6_k" transform="matrix(14,0,0,14,447.5,662.3)" />
<use xlink:href="#f6_br" transform="matrix(14,0,0,14,175.6,695.5)" />
<use xlink:href="#f6_d8" transform="matrix(14,0,0,14,187.3,695.5)" />
<use xlink:href="#f6_cu" transform="matrix(14,0,0,14,198.6,695.5)" />
<use xlink:href="#f6_br" transform="matrix(14,0,0,14,204.2,695.5)" />
<use xlink:href="#f6_bt" transform="matrix(14,0,0,14,215.9,695.5)" />
<use xlink:href="#f6_b9" transform="matrix(14,0,0,14,233.2,695.5)" />
<use xlink:href="#f6_oc" transform="matrix(14,0,0,14,248.7,695.5)" />
<use xlink:href="#f6_mv" transform="matrix(14,0,0,14,260,695.5)" />
<use xlink:href="#f6_cu" transform="matrix(14,0,0,14,271.8,695.5)" />
<use xlink:href="#f6_bt" transform="matrix(14,0,0,14,277.4,695.5)" />
<use xlink:href="#f6_c0" transform="matrix(14,0,0,14,289.1,695.5)" />
<use xlink:href="#f6_ct" transform="matrix(14,0,0,14,301.7,695.5)" />
<use xlink:href="#f6_k" transform="matrix(14,0,0,14,307.3,695.5)" />
<use xlink:href="#f6_mv" transform="matrix(14,0,0,14,318.2,695.5)" />
<use xlink:href="#f6_cu" transform="matrix(14,0,0,14,330,695.5)" />
<use xlink:href="#f6_bt" transform="matrix(14,0,0,14,335.6,695.5)" />
<use xlink:href="#f6_c0" transform="matrix(14,0,0,14,347.3,695.5)" />
<use xlink:href="#f6_ct" transform="matrix(14,0,0,14,359.9,695.5)" />
<use xlink:href="#f6_cc" transform="matrix(14,0,0,14,371.2,695.5)" />
<use xlink:href="#f6_d5" transform="matrix(14,0,0,14,383.1,695.5)" />
<use xlink:href="#f6_cu" transform="matrix(14,0,0,14,388.4,695.5)" />
<use xlink:href="#f6_bt" transform="matrix(14,0,0,14,394,695.5)" />
<use xlink:href="#f6_c1" transform="matrix(14,0,0,14,405.8,695.5)" />
<use xlink:href="#f6_ct" transform="matrix(14,0,0,14,414.1,695.5)" />
<use xlink:href="#f6_c3" transform="matrix(14,0,0,14,419.8,695.5)" />
<use xlink:href="#f6_cv" transform="matrix(14,0,0,14,434.5,695.5)" />
<use xlink:href="#f6_k" transform="matrix(14,0,0,14,440.1,695.5)" />
<use xlink:href="#f6_cb" transform="matrix(14,0,0,14,179.2,728.8)" />
<use xlink:href="#f6_bx" transform="matrix(14,0,0,14,194.1,728.8)" />
<use xlink:href="#f6_bw" transform="matrix(14,0,0,14,212,728.8)" />
<use xlink:href="#f6_cx" transform="matrix(14,0,0,14,223,728.6)" />
<use xlink:href="#f6_c3" transform="matrix(14,0,0,14,228.1,728.8)" />
<use xlink:href="#f6_b9" transform="matrix(14,0,0,14,248.5,728.8)" />
<use xlink:href="#f6_ct" transform="matrix(14,0,0,14,264,728.8)" />
<use xlink:href="#f6_oi" transform="matrix(14,0,0,14,264.2,729.2)" />
<use xlink:href="#f6_bk" transform="matrix(14,0,0,14,269.6,728.8)" />
<use xlink:href="#f6_d4" transform="matrix(14,0,0,14,280.6,728.8)" />
<use xlink:href="#f6_k" transform="matrix(14,0,0,14,281.2,728.8)" />
<use xlink:href="#f6_bp" transform="matrix(14,0,0,14,292,728.8)" />
<use xlink:href="#f6_cx" transform="matrix(14,0,0,14,304.3,728.6)" />
<use xlink:href="#f6_cb" transform="matrix(14,0,0,14,310,728.8)" />
<use xlink:href="#f6_bx" transform="matrix(14,0,0,14,324.9,728.8)" />
<use xlink:href="#f6_b9" transform="matrix(14,0,0,14,337.2,728.8)" />
<use xlink:href="#f6_ct" transform="matrix(14,0,0,14,352.7,728.8)" />
<use xlink:href="#f6_bz" transform="matrix(14,0,0,14,364,728.8)" />
<use xlink:href="#f6_ct" transform="matrix(14,0,0,14,377.3,728.8)" />
<use xlink:href="#f6_c3" transform="matrix(14,0,0,14,382.9,728.8)" />
<use xlink:href="#f6_cv" transform="matrix(14,0,0,14,397.6,728.8)" />
<use xlink:href="#f6_bt" transform="matrix(14,0,0,14,200.8,762)" />
<use xlink:href="#f6_ct" transform="matrix(14,0,0,14,212.5,762)" />
<use xlink:href="#f6_b9" transform="matrix(14,0,0,14,218.2,762)" />
<use xlink:href="#f6_d8" transform="matrix(14,0,0,14,233.7,762)" />
<use xlink:href="#f6_ch" transform="matrix(14,0,0,14,239.3,762)" />
<use xlink:href="#f6_ct" transform="matrix(14,0,0,14,252,762)" />
<use xlink:href="#f6_c7" transform="matrix(14,0,0,14,263.2,762)" />
<use xlink:href="#f6_ct" transform="matrix(14,0,0,14,275.3,762)" />
<use xlink:href="#f6_c3" transform="matrix(14,0,0,14,280.9,762)" />
<use xlink:href="#f6_d4" transform="matrix(14,0,0,14,295.8,762)" />
<use xlink:href="#f6_pc" transform="matrix(14,0,0,14,295.7,762)" />
<use xlink:href="#f6_pc" transform="matrix(14,0,0,14,299.9,762)" />
<use xlink:href="#f6_pc" transform="matrix(14,0,0,14,304.2,762)" />
<use xlink:href="#f6_pc" transform="matrix(14,0,0,14,308.5,762)" />
<use xlink:href="#f6_bv" transform="matrix(14,0,0,14,318.4,762)" />
<use xlink:href="#f6_ct" transform="matrix(14,0,0,14,330.3,762)" />
<use xlink:href="#f6_c1" transform="matrix(14,0,0,14,335.9,762)" />
<use xlink:href="#f6_cb" transform="matrix(14,0,0,14,344.3,762)" />
<use xlink:href="#f6_br" transform="matrix(14,0,0,14,364.8,762)" />
<use xlink:href="#f6_ct" transform="matrix(14,0,0,14,376.5,762)" />
<use xlink:href="#f6_br" transform="matrix(14,0,0,14,382.1,762)" />
<use xlink:href="#f6_ct" transform="matrix(14,0,0,14,393.8,762)" />
<use xlink:href="#f6_pc" transform="matrix(14,0,0,14,399.4,762)" />
<use xlink:href="#f6_pc" transform="matrix(14,0,0,14,403.7,762)" />
<use xlink:href="#f6_pc" transform="matrix(14,0,0,14,408,762)" />
<use xlink:href="#f6_pc" transform="matrix(14,0,0,14,412.2,762)" />
<use xlink:href="#f6_pc" transform="matrix(14,0,0,14,416.5,762)" />
<use xlink:href="#f7_4r" transform="matrix(9,0,0,9,290.2,795.2)" />
<use xlink:href="#f8_p" transform="matrix(9,0,0,9,303,795.2)" />
<use xlink:href="#f8_m" transform="matrix(9,0,0,9,310.7,795.2)" />
<use xlink:href="#f7_4r" transform="matrix(9,0,0,9,321.3,795.2)" />
</g>
</g>
<image preserveAspectRatio="none" x="22" y="801" width="581" height="86" xlink:href="img/1.png"/>
<path d="M213.1,97.4h196v1.1h-196V97.4Z" class="g1_58"/>
<image preserveAspectRatio="none" x="202" y="14" width="217" height="26" xlink:href="img/2.png"/>
<defs>
<path d="M746,-65L571,29V419H376V260L275,212c0,0,-87,48,-160,148c0,0,-72,100,-91,193l57,84H571V822H0L-86,937l32,64H930l88,-115L985,822H713L816,749V-31L746,-65Z"
id="f5_bt"
transform="scale(0.001,-0.001)"/>

<path d="M277,-65L102,29V822H0L-86,937l32,64H463L548,886L516,822H244L347,749V-31L277,-65Z"
id="f5_ct"
transform="scale(0.001,-0.001)"/>

<path d="M300,310c13,0,56,2,103,25c0,0,58,27,100,81V523c0,0,-46,16,-83,16c0,0,-69,0,-111,-45c0,0,-42,-45,-42,-104c0,0,0,-45,28,-80c0,0,2,0,5,0ZM677,-65L503,29V144c0,0,-32,-11,-75,-11c0,0,-147,0,-272,98c0,0,-125,99,-125,233c0,0,0,110,75,185c0,0,76,74,195,74l67,-6L503,646V822H0L-86,937l32,64H1245l86,-115l-32,-64H645L747,749V622c0,0,81,58,165,58c0,0,122,0,213,-99c0,0,91,-98,91,-230c0,0,0,-204,-253,-371L791,157c0,0,110,83,164,139c0,0,53,55,53,106c0,0,0,55,-53,55c0,0,-83,0,-208,-145V-31L677,-65Z"
id="f5_b9"
transform="scale(0.001,-0.001)"/>

<path d="M277,-65L102,29V822H0L-86,937l32,64H86L18,1111c0,0,-67,122,-168,122c0,0,-81,0,-202,-80l-128,250c0,0,122,77,232,77c0,0,196,0,356,-250L252,1001H463L548,886L516,822H244L347,749V-31L277,-65Z"
id="f5_d8"
transform="scale(0.001,-0.001)"/>

<path d="M573,-101c0,0,-296,0,-555,382l104,86c0,0,167,-260,381,-260c0,0,87,0,151,46c0,0,64,46,63,113L489,194c0,0,-167,54,-273,152c0,0,-106,99,-106,206c0,0,0,87,72,142c0,0,72,55,211,55H588v73H0L-86,937l32,64H949l85,-115l-32,-64H706L808,749V545H445c0,0,-127,0,-127,-64c0,0,0,-35,38,-62l278,64c0,0,125,-43,193,-130c0,0,67,-87,67,-182c0,0,0,-116,-91,-194c0,0,-91,-78,-230,-78Z"
id="f5_bm"
transform="scale(0.001,-0.001)"/>

<path d="M371,296c0,0,71,0,139,34c0,0,69,34,109,92v90c0,0,-72,36,-148,36c0,0,-84,0,-131,-47c0,0,-47,-47,-47,-111c0,0,0,-49,28,-89l50,-5ZM793,-65L619,29V134c0,0,-55,-27,-122,-27c0,0,-98,0,-207,48c0,0,-108,48,-182,132c0,0,-73,84,-73,188c0,0,0,113,83,191c0,0,84,78,212,78c0,0,41,0,84,-9L619,643V822H0L-86,937l32,64H978l85,-115l-32,-64H761L863,749V-31L793,-65Z"
id="f5_c7"
transform="scale(0.001,-0.001)"/>

<path d="M472,-77C472,-77,28,171,28,448c0,0,0,116,77,191c0,0,77,74,188,74c0,0,51,0,95,-18L527,574c0,0,104,114,277,117V822H0L-86,937l32,64H1164l86,-115l-32,-64H946l102,-73V-31L978,-65L804,29V526c0,0,-130,-78,-133,-294L611,196L431,309c0,0,0,97,33,174c0,0,-22,10,-53,10c0,0,-52,0,-90,-36c0,0,-38,-37,-38,-99c0,0,0,-80,68,-150c0,0,69,-70,214,-161L472,-77Z"
id="f5_c3"
transform="scale(0.001,-0.001)"/>

<path d="M-289,908l-132,216c0,0,-70,120,-169,120c0,0,-83,0,-200,-80l-130,249c0,0,125,78,234,78c0,0,187,0,349,-241L-159,969L-289,908Z"
id="f5_d4"
transform="scale(0.001,-0.001)"/>

<path d="M394,379c0,0,57,0,107,30c0,0,51,29,77,86V822H214L318,749V403c0,0,29,-24,76,-24ZM752,-65L578,29V188c0,0,-43,-18,-89,-18c0,0,-138,0,-282,130C207,300,63,431,60,567V822H0L-86,937l32,64H937l87,-115L992,822H720L822,749V-31L752,-65Z"
id="f5_bv"
transform="scale(0.001,-0.001)"/>

<path d="M545,-97L35,405L87,542H295c0,0,1,5,1,280H0L-86,937l32,64H729L814,886L782,822H445L550,749V547c0,0,0,-75,-41,-127c0,0,-41,-52,-129,-111L709,110V41L545,-97Z"
id="f5_c1"
transform="scale(0.001,-0.001)"/>

<path d="M833,530V822H434L539,749V530ZM533,-97L23,405L75,542H284c0,0,2,5,2,280H-10L-97,937l32,64H1193l86,-115l-32,-64H975l102,-73V-31l-70,-34L833,29V333H405L370,309L697,110V41L533,-97Z"
id="f5_cb"
transform="scale(0.001,-0.001)"/>

<path d="M700,-327L637,-39c0,0,-43,-9,-85,-9c0,0,-109,0,-228,58c0,0,-119,59,-199,160c0,0,-79,102,-79,220c0,0,0,134,95,216c0,0,94,82,252,85H516V822H0L-86,937l32,64H929l85,-115L982,822H645L747,749V468l2,-4H478c0,0,-98,0,-148,-45c0,0,-50,-46,-50,-110c0,0,0,-68,53,-121c0,0,46,-20,99,-20c0,0,74,0,141,35L555,332l154,56L897,154C897,154,862,87,785,34L933,-233L700,-327Z"
id="f5_br"
transform="scale(0.001,-0.001)"/>

<path d="M290,-236c0,0,-253,348,-253,685c0,0,0,342,270,669l80,-39c0,0,-207,-311,-207,-622c0,0,0,-326,193,-652l-83,-41Z"
id="f6_g"
transform="scale(0.001,-0.001)"/>

<path d="M347,-57C347,-57,66,211,66,394c0,0,0,98,74,164c0,0,74,65,225,65H616V822H0l-45,76l14,31H880l46,-76L912,822H677l66,-58V-39L706,-49L616,8V500H428c0,0,-239,0,-239,-161c0,0,0,-136,214,-343L347,-57Z"
id="f6_bp"
transform="scale(0.001,-0.001)"/>

<path d="M845,-49L755,8V513H497c0,0,61,-45,93,-110c0,0,33,-64,33,-128c0,0,0,-90,-58,-144c0,0,-59,-53,-143,-53c0,0,-133,0,-234,139C188,217,87,356,20,596l76,24c0,0,60,-201,127,-306c0,0,67,-105,160,-105c0,0,57,0,91,36c0,0,33,36,33,91c0,0,0,84,-73,159L295,558v71H755V822H0l-45,76l14,31H1019l46,-76l-14,-31H816l66,-58V-39L845,-49Z"
id="f6_bg"
transform="scale(0.001,-0.001)"/>

<path d="M-239,897c0,0,-82,61,-132,137c0,0,-50,75,-50,150c0,0,0,78,52,133c0,0,52,55,141,55c0,0,98,0,176,-64l-23,-69c0,0,-52,32,-104,32c0,0,-57,0,-95,-36c0,0,-38,-36,-38,-95c0,0,0,-115,117,-217l-44,-26Z"
id="f6_dr"
transform="scale(0.001,-0.001)"/>

<path d="M254,-30c0,0,-84,17,-116,93c0,0,13,84,97,126c0,0,100,-35,112,-110C347,79,324,3,254,-30Zm0,468c0,0,-84,17,-116,94c0,0,13,84,97,126c0,0,100,-35,112,-110c0,0,-23,-76,-93,-110Z"
id="f6_y"
transform="scale(0.001,-0.001)"/>

<path d="M228,-49L138,8V822H0l-45,76l14,31H134c0,0,-90,95,-90,199c0,0,0,111,99,177c0,0,98,67,271,67c0,0,202,0,439,-91c0,0,238,-91,475,-263l-48,-49c0,0,-469,288,-812,288c0,0,-138,0,-220,-49c0,0,-83,-50,-83,-142c0,0,0,-64,50,-137H402l46,-76L434,822H199l65,-58V-39L228,-49Z"
id="f6_nv"
transform="scale(0.001,-0.001)"/>

<path d="M513,460c0,0,61,81,61,179c0,0,0,87,-45,143c0,0,-45,57,-116,57c0,0,-63,0,-102,-43c0,0,-39,-43,-39,-110c0,0,0,-90,68,-151c0,0,68,-61,173,-75ZM581,-83L278,167l-41,-4c0,0,-99,0,-130,37l47,168l51,12l78,-79c0,0,110,40,183,105c0,0,-141,23,-231,107c0,0,-90,84,-90,193c0,0,0,69,37,116H0l-45,76l14,31H1134l45,-76l-13,-31H930l66,-58V-39L959,-49L869,8V822H588c0,0,51,-44,75,-109c0,0,25,-64,25,-122c0,0,0,-105,-81,-213c0,0,-80,-108,-240,-176L658,18l2,-25L581,-83Z"
id="f6_c8"
transform="scale(0.001,-0.001)"/>

<path d="M527,-71L52,414l34,92H277c0,0,12,32,12,72V822H0l-45,76l14,31H599l46,-76L631,822H350l66,-55V564c0,0,0,-96,-152,-248L610,34L611,8L527,-71Z"
id="f6_c1"
transform="scale(0.001,-0.001)"/>

<path d="M548,-57c0,0,-122,0,-243,81c0,0,-122,81,-252,280l57,41C110,345,283,64,498,64c0,0,92,0,153,49c0,0,61,49,61,121c0,0,0,46,-28,84L440,237c0,0,-73,11,-139,55c0,0,-66,44,-105,105c0,0,-40,61,-40,119c0,0,0,72,62,125c0,0,62,53,184,53H625V822H0l-45,76l14,31H906l46,-76L938,822H678l66,-58V562H431c0,0,-164,0,-164,-99c0,0,0,-55,57,-102l261,82c0,0,104,-21,172,-98c0,0,68,-78,68,-171c0,0,0,-99,-76,-166c0,0,-77,-65,-201,-65Z"
id="f6_bm"
transform="scale(0.001,-0.001)"/>

<path d="M228,-49L138,8V822H0l-45,76l14,31H138c0,0,-109,342,-284,342c0,0,-62,0,-102,-40c0,0,-40,-39,-40,-93c0,0,0,-61,51,-134l-42,-32c0,0,-128,113,-128,226c0,0,0,79,60,136c0,0,61,56,154,56c0,0,137,0,249,-125c0,0,112,-125,169,-336H402l46,-76L434,822H199l65,-58V-39L228,-49Z"
id="f6_cv"
transform="scale(0.001,-0.001)"/>

<path d="M325,240c0,0,77,0,154,35c0,0,77,35,120,99V500c0,0,-118,73,-222,73c0,0,-97,0,-151,-54c0,0,-53,-53,-53,-128c0,0,0,-73,49,-125c0,0,38,-26,103,-26ZM689,-49L599,8V199c0,0,-73,-65,-179,-65c0,0,-134,0,-252,96c0,0,-118,95,-118,221c0,0,0,102,78,171c0,0,78,69,190,69c0,0,38,0,75,-10L599,582V822H0l-45,76l14,31H863l46,-76L895,822H660l66,-58V-39L689,-49Z"
id="f6_c7"
transform="scale(0.001,-0.001)"/>

<path d="M228,-49L138,8V822H0l-45,76l14,31H402l46,-76L434,822H199l65,-58V-39L228,-49Z"
id="f6_ct"
transform="scale(0.001,-0.001)"/>

<path d="M413,-59C413,-59,53,193,53,416c0,0,0,97,66,164c0,0,66,66,156,66c0,0,61,0,110,-30L487,507c0,0,92,126,257,126l35,-2V822H0l-45,76l14,31H1043l46,-76l-13,-31H840l66,-58V-39L869,-49L779,8V547c0,0,-101,-5,-165,-90c0,0,-64,-86,-70,-222L507,225l-90,73c0,0,5,79,35,151c0,0,-59,66,-128,66c0,0,-57,0,-100,-38c0,0,-44,-39,-44,-109c0,0,0,-165,284,-360L413,-59Z"
id="f6_c3"
transform="scale(0.001,-0.001)"/>

<path d="M-214,863l-199,281c0,0,-70,92,-157,92c0,0,-69,0,-159,-58l-72,118c0,0,89,73,180,73c0,0,141,0,258,-170L-155,901l-59,-38Z"
id="f6_d4"
transform="scale(0.001,-0.001)"/>

<path d="M799,475V822H350l66,-55V564c0,0,0,-43,-25,-89ZM527,-71L52,414l34,92H277c0,0,12,32,12,72V822H0l-45,76l14,31H1063l46,-76l-14,-31H860l66,-58V-39L889,-49L799,8V370H315L264,316L610,34L611,8L527,-71Z"
id="f6_cb"
transform="scale(0.001,-0.001)"/>

<path d="M483,-305L295,-10c0,0,-90,22,-156,74l41,170h66L351,63c0,0,126,4,207,62c0,0,82,58,82,139c0,0,0,37,-18,71L365,266c0,0,-110,15,-197,102c0,0,-87,87,-87,176c0,0,0,69,59,117c0,0,59,48,172,48H550V822H0l-45,76l14,31H550c0,0,-142,122,-142,255c0,0,0,78,52,133c0,0,52,55,140,55c0,0,98,0,176,-64l-23,-69c0,0,-53,32,-104,32c0,0,-56,0,-94,-36c0,0,-39,-36,-39,-95c0,0,0,-109,112,-211H822l46,-76L854,822H603l66,-58V585H373c0,0,-184,0,-184,-99c0,0,0,-48,63,-101l310,78c0,0,86,-34,141,-99c0,0,55,-65,55,-142c0,0,0,-109,-98,-179c0,0,-98,-69,-254,-69L599,-216L483,-305Z"
id="f6_ao"
transform="scale(0.001,-0.001)"/>

<path d="M348,229c0,0,57,0,106,17L263,559c0,0,-95,-50,-95,-162c0,0,0,-75,52,-136c0,0,49,-32,128,-32Zm170,48c0,0,61,38,96,91V504c0,0,-131,80,-244,80l-35,-2L518,277ZM704,-49L614,8V193c0,0,-84,-65,-192,-65c0,0,-139,0,-255,98c0,0,-115,98,-115,226c0,0,0,106,77,175c0,0,77,70,189,70c0,0,38,0,75,-9L614,578V822H0l-45,76l14,31H878l46,-76L911,822H675l66,-58V-39L704,-49Z"
id="f6_bx"
transform="scale(0.001,-0.001)"/>

<path d="M226,-49c0,0,-66,24,-102,78c0,0,32,69,82,101c0,0,55,-20,100,-80c0,0,-26,-66,-80,-99Z"
id="f6_pc"
transform="scale(0.001,-0.001)"/>

<path d="M130,-236l-83,41c0,0,193,326,193,652c0,0,0,311,-206,622l79,39c0,0,270,-327,270,-669c0,0,0,-337,-253,-685Z"
id="f6_h"
transform="scale(0.001,-0.001)"/>

<path d="M154,752c0,0,-108,44,-108,143c0,0,0,74,48,145c0,0,48,71,134,118l44,-58c0,0,-43,-31,-72,-76c0,0,-29,-46,-32,-89l80,-61c0,0,-4,-38,-30,-72c0,0,-25,-34,-64,-50Zm251,0c0,0,-109,44,-109,143c0,0,0,74,49,145c0,0,48,71,133,118l45,-58c0,0,-43,-31,-72,-76c0,0,-29,-46,-32,-89l79,-61c0,0,-3,-38,-29,-72c0,0,-26,-34,-64,-50Z"
id="f6_8f"
transform="scale(0.001,-0.001)"/>

<path d="M689,445V822H286l65,-58l8,-319ZM779,-49L689,8V328H370V180L296,150c0,0,-56,35,-120,104c0,0,-63,70,-89,131l41,60H238L223,822H0l-45,76l14,31H953l46,-76L985,822H750l66,-58V-39L779,-49Z"
id="f6_bz"
transform="scale(0.001,-0.001)"/>

<path d="M663,-49L573,8V445H299V280L226,251c0,0,-105,99,-162,238l63,72H573V822H0l-45,76l14,31H837l46,-76L869,822H634l66,-58V-39L663,-49Z"
id="f6_bt"
transform="scale(0.001,-0.001)"/>

<path d="M-91,1001c0,0,-27,10,-61,36c0,0,-33,26,-50,49c0,0,38,81,90,110c0,0,61,-23,107,-85c0,0,-28,-71,-86,-110ZM-214,863l-199,281c0,0,-70,92,-157,92c0,0,-69,0,-159,-58l-72,118c0,0,89,73,180,73c0,0,141,0,258,-170L-155,901l-59,-38Z"
id="f6_oz"
transform="scale(0.001,-0.001)"/>

<path d="M283,260c0,0,122,0,209,113V513c0,0,-90,51,-160,51c0,0,-80,0,-129,-50c0,0,-49,-50,-49,-118c0,0,0,-60,35,-110c0,0,45,-26,94,-26ZM582,-49L492,8V211c0,0,-63,-54,-141,-54c0,0,-113,0,-213,92c0,0,-100,92,-100,205c0,0,0,93,69,157c0,0,69,64,162,64c0,0,32,0,64,-9L492,590V822H0l-45,76l14,31H1108l45,-76l-13,-31H553l66,-58V524c0,0,91,89,192,89c0,0,98,0,171,-79c0,0,72,-79,72,-186c0,0,0,-178,-224,-330L736,124c0,0,219,153,219,269c0,0,0,44,-26,75c0,0,-26,32,-81,32c0,0,-109,0,-229,-155V-39L582,-49Z"
id="f6_b9"
transform="scale(0.001,-0.001)"/>

<path d="M688,-243c0,0,-256,53,-408,173c0,0,-152,119,-152,270c0,0,0,101,68,171c0,0,-101,84,-101,179c0,0,0,64,53,112c0,0,54,47,191,47H587V822H0l-45,76l14,31H830l45,-76L862,822H640l66,-58V585H362c0,0,-159,-1,-159,-92c0,0,0,-41,46,-80c0,0,76,47,183,47c0,0,135,0,230,-76c0,0,96,-75,96,-187C758,197,758,67,629,2L545,104c0,0,49,30,81,75c0,0,32,44,32,82c0,0,0,16,-4,26c0,0,-64,58,-167,58c0,0,-97,0,-166,-50v-2c0,0,-67,-52,-67,-131c0,0,0,-116,132,-199c0,0,132,-84,334,-132l-32,-74Z"
id="f6_cc"
transform="scale(0.001,-0.001)"/>

<path d="M0,1062c0,0,-26,11,-60,36c0,0,-34,26,-51,49c0,0,39,81,91,110c0,0,60,-23,106,-85c0,0,-28,-70,-86,-110Z"
id="f6_dj"
transform="scale(0.001,-0.001)"/>

<path d="M487,-7c0,0,-88,0,-185,46c0,0,-97,47,-163,130c0,0,-66,83,-66,185c0,0,0,109,80,177c0,0,79,68,234,68H504V822H0l-45,76l14,31H827l45,-76L859,822H565l66,-58V474l-3,1l3,-3H396c0,0,-100,0,-152,-47c0,0,-53,-48,-53,-119c0,0,0,-104,93,-178c0,0,60,-20,118,-20c0,0,81,0,156,36c0,0,76,35,123,99l92,-99C773,144,723,70,645,31C645,31,567,-7,487,-7Z"
id="f6_bk"
transform="scale(0.001,-0.001)"/>

<path d="M108,-433L-59,-214c0,0,-99,119,-191,119c0,0,-59,0,-96,-35c0,0,-36,-34,-36,-81c0,0,0,-49,42,-83l152,95l64,-116c0,0,-71,-58,-148,-58c0,0,-80,0,-146,63c0,0,-65,64,-65,144c0,0,0,77,62,131c0,0,61,53,142,53c0,0,138,0,296,-205L165,-393l-57,-40Z"
id="f6_cx"
transform="scale(0.001,-0.001)"/>

<path d="M558,-520c0,0,-210,0,-488,322l54,49c0,0,119,-128,209,-193c0,0,90,-65,177,-65c0,0,72,0,113,40c0,0,42,40,42,91c0,0,0,75,-78,106L469,-288l-90,98l27,37c0,0,-133,64,-213,155c0,0,-80,91,-80,201c0,0,0,101,69,170c0,0,-103,88,-103,179c0,0,0,64,57,110c0,0,57,47,196,47H571V822H0l-45,76l14,31H830l45,-76L862,822H625l66,-58V585H364c0,0,-176,0,-176,-96c0,0,0,-41,44,-76c0,0,81,47,185,47c0,0,135,0,230,-76c0,0,96,-75,96,-187C743,197,743,67,614,2L530,104c0,0,49,30,81,75c0,0,32,44,32,82c0,0,0,16,-4,26c0,0,-65,58,-167,58c0,0,-98,0,-166,-50v-2c0,0,-68,-52,-68,-131c0,0,0,-154,254,-263l53,7c0,0,91,0,156,-70c0,0,66,-70,66,-163c0,0,0,-86,-60,-139c0,0,-61,-54,-149,-54Z"
id="f6_n4"
transform="scale(0.001,-0.001)"/>

<path d="M527,-71L52,414l34,92H277c0,0,12,32,12,72V822H0l-45,76l14,31H654l46,-76L686,822H350l66,-55V564c0,0,0,-43,-25,-89H782L798,370H315L264,316L610,34L611,8L527,-71Z"
id="f6_m1"
transform="scale(0.001,-0.001)"/>

<path d="M-214,860l-227,219c0,0,-73,70,-148,70c0,0,-67,0,-160,-58l-72,117c0,0,83,71,176,71c0,0,120,0,232,-124L-221,940l-102,294c0,0,-64,179,-189,179c0,0,-60,0,-133,-33l-60,125c0,0,84,47,164,47c0,0,200,0,281,-276L-150,901l-23,-15l-41,-26Z"
id="f6_d5"
transform="scale(0.001,-0.001)"/>

<path d="M108,-222l-44,58c0,0,96,81,104,164L89,61c0,0,12,83,93,122c0,0,50,-15,79,-55c0,0,29,-39,29,-90c0,0,0,-69,-48,-142c0,0,-48,-72,-134,-118Z"
id="f6_k"
transform="scale(0.001,-0.001)"/>

<path d="M675,-274L602,21C602,21,550,3,498,3C498,3,347,3,210,118C210,118,73,232,73,373c0,0,0,113,84,184c0,0,84,71,222,72H524V822H0l-45,76l14,31H834l46,-76L866,822H585l66,-58V504l-3,2l3,-3H408c0,0,-95,0,-154,-53c0,0,-58,-53,-58,-132c0,0,0,-49,27,-100c0,0,28,-50,83,-84c0,0,44,-15,96,-15c0,0,91,0,160,46L535,303l101,48L773,188c0,0,-8,-28,-34,-66c0,0,-27,-38,-62,-64L813,-221L675,-274Z"
id="f6_br"
transform="scale(0.001,-0.001)"/>

<path d="M228,-49L138,8V822H0l-45,76l14,31H134c0,0,-91,92,-91,191c0,0,0,105,85,170c0,0,84,65,219,65c0,0,128,0,293,-76c0,0,165,-77,362,-263L958,966c0,0,-177,143,-303,210c0,0,-125,68,-244,68c0,0,-107,0,-175,-50c0,0,-68,-50,-68,-131c0,0,0,-61,49,-134H402l46,-76L434,822H199l65,-58V-39L228,-49Z"
id="f6_cu"
transform="scale(0.001,-0.001)"/>

<path d="M727,-49L637,8V822H278l66,-58V226L270,196c0,0,-64,36,-122,98c0,0,-58,62,-79,122l43,59H217V822H0l-45,76l14,31H901l46,-76L933,822H698l66,-58V-39L727,-49Z"
id="f6_bb"
transform="scale(0.001,-0.001)"/>

<path d="M547,-285c0,0,-66,25,-102,80c0,0,32,69,82,101c0,0,55,-20,99,-80c0,0,-26,-67,-79,-101Zm1,228c0,0,-122,0,-243,81c0,0,-122,81,-252,280l57,41C110,345,283,64,498,64c0,0,92,0,153,49c0,0,61,49,61,121c0,0,0,46,-28,84L440,237c0,0,-73,11,-139,55c0,0,-66,44,-105,105c0,0,-40,61,-40,119c0,0,0,72,62,125c0,0,62,53,184,53H625V822H0l-45,76l14,31H906l46,-76L938,822H678l66,-58V562H431c0,0,-164,0,-164,-99c0,0,0,-55,57,-102l261,82c0,0,104,-21,172,-98c0,0,68,-78,68,-171c0,0,0,-99,-76,-166c0,0,-77,-65,-201,-65Z"
id="f6_ch"
transform="scale(0.001,-0.001)"/>

<path d="M228,-49L138,8V822H0l-45,76l14,31H136c0,0,-173,353,-364,353c0,0,-75,0,-119,-44c0,0,-45,-45,-45,-106c0,0,0,-69,48,-128l-43,-32c0,0,-124,113,-124,224c0,0,0,87,67,146c0,0,68,59,167,59c0,0,150,0,283,-130c0,0,135,-130,219,-342H402l46,-76L434,822H199l65,-58V-39L228,-49Z"
id="f6_ob"
transform="scale(0.001,-0.001)"/>

<path d="M426,-68L339,5V953l37,11l87,-73V-57L426,-68Z"
id="f6_ng"
transform="scale(0.001,-0.001)"/>

<path d="M228,-49L138,8V822H0l-45,76l14,31H133c0,0,-93,95,-93,206c0,0,0,96,68,159c0,0,68,63,179,63c0,0,118,0,228,-81c0,0,110,-80,258,-262L720,970L588,1109c0,0,-133,133,-253,133c0,0,-78,0,-127,-46c0,0,-49,-46,-49,-119c0,0,0,-69,56,-148H402l46,-76L434,822H199l65,-58V-39L228,-49Z"
id="f6_nr"
transform="scale(0.001,-0.001)"/>

<path d="M368,344c0,0,90,0,155,73V822H150l67,-58V438c0,0,46,-94,151,-94ZM613,-49L523,8V251c0,0,-48,-28,-103,-28c0,0,-122,0,-227,112C193,335,89,448,89,590V822H0l-45,76l14,31H1150l46,-76l-13,-31H584l65,-58V533c0,0,101,95,211,95c0,0,98,0,170,-79c0,0,73,-78,73,-185c0,0,0,-179,-225,-330L785,139c0,0,219,153,219,269c0,0,0,43,-26,75c0,0,-26,32,-80,32c0,0,-120,0,-249,-159V-39L613,-49Z"
id="f6_bw"
transform="scale(0.001,-0.001)"/>

<path d="M959,-49L869,8V367c0,0,-32,-13,-64,-13c0,0,-50,0,-110,25c0,0,23,-52,23,-109c0,0,0,-103,-70,-170c0,0,-70,-66,-182,-66c0,0,-110,0,-222,82c0,0,-111,83,-213,293l68,42c0,0,72,-155,152,-231c0,0,81,-76,178,-76c0,0,83,0,131,49c0,0,48,48,48,117c0,0,0,54,-30,100c0,0,-31,47,-91,65L325,391L257,512c0,0,68,53,156,56c0,0,140,72,140,179c0,0,0,69,-52,99c0,0,-4,1,-11,1c-19,0,-66,-4,-123,-30c0,0,-78,-35,-142,-96L150,823c0,0,119,117,253,117c0,0,98,0,175,-71c0,0,77,-70,77,-159c0,0,0,-103,-94,-180c0,0,39,-23,73,-56c0,0,52,-22,109,-22c0,0,77,0,126,38V822H727l-46,76l14,31h840l46,-76l-13,-31H1332l66,-58V-39l-37,-10L1271,8V822H930l66,-58V-39L959,-49Z"
id="f6_am"
transform="scale(0.001,-0.001)"/>

<path d="M374,248c0,0,77,0,149,36c0,0,71,37,110,107V822H284c0,0,138,-96,138,-208c0,0,0,-151,-228,-192c0,0,29,-104,89,-158c0,0,41,-16,91,-16ZM723,-49L633,8V200c0,0,-69,-56,-170,-56c0,0,-122,0,-240,94c0,0,-118,94,-179,237l20,55c0,0,133,17,187,44c0,0,55,28,55,84c0,0,0,45,-30,81c0,0,-30,36,-99,83H0l-45,76l14,31H897l46,-76L929,822H694l65,-58V-39L723,-49Z"
id="f6_c0"
transform="scale(0.001,-0.001)"/>

<path d="M388,325c0,0,58,0,112,31c0,0,53,31,84,86V822H165l69,-58V408c0,0,47,-83,154,-83ZM674,-49L584,8V257c0,0,-61,-51,-141,-51c0,0,-125,0,-232,109c0,0,-107,108,-107,243V822H0l-45,76l14,31H848l46,-76L880,822H645l65,-58V-39L674,-49Z"
id="f6_bv"
transform="scale(0.001,-0.001)"/>

<path d="M373,218c0,0,98,0,172,61c0,0,75,60,75,140c0,0,0,29,-10,55c0,0,-69,59,-121,85c0,0,-52,26,-113,26c0,0,-95,0,-151,-56c0,0,-57,-55,-57,-133c0,0,0,-77,52,-135c0,0,60,-43,153,-43ZM431,116c0,0,-142,0,-261,99C170,215,52,315,52,446c0,0,0,107,80,179c0,0,80,72,195,72c0,0,43,0,81,-11L642,548c0,0,73,-91,73,-183c0,0,0,-104,-84,-176c0,0,-84,-73,-200,-73ZM0,822l-45,76l14,31H619l46,-76L651,822Z"
id="f6_lx"
transform="scale(0.001,-0.001)"/>

<path d="M228,-49L138,8V822H0l-45,76l14,31H119L-33,1144c0,0,-70,92,-157,92c0,0,-69,0,-159,-58l-72,118c0,0,89,73,181,73c0,0,140,0,257,-170L205,929H402l46,-76L434,822H199l65,-58V-39L228,-49Z"
id="f6_d8"
transform="scale(0.001,-0.001)"/>

<path d="M-40,1030c0,0,-28,10,-61,36c0,0,-34,26,-51,49c0,0,38,81,90,110c0,0,61,-23,106,-85c0,0,-27,-71,-84,-110ZM-214,860l-227,219c0,0,-73,70,-148,70c0,0,-67,0,-160,-58l-72,117c0,0,83,71,176,71c0,0,120,0,232,-124L-221,940l-102,294c0,0,-64,179,-189,179c0,0,-60,0,-133,-33l-60,125c0,0,84,47,164,47c0,0,200,0,281,-276L-150,901l-23,-15l-41,-26Z"
id="f6_p3"
transform="scale(0.001,-0.001)"/>

<path d="M-234,-413c0,0,-210,0,-488,322l54,49c0,0,119,-128,209,-193c0,0,90,-65,177,-65c0,0,72,0,113,40c0,0,42,39,42,91c0,0,0,75,-78,106L-323,-181l-90,98c0,0,63,95,167,95c0,0,90,0,155,-69c0,0,66,-70,66,-164c0,0,0,-85,-60,-139c0,0,-61,-53,-149,-53Z"
id="f6_cw"
transform="scale(0.001,-0.001)"/>

<path d="M228,-49L138,8V822H0l-45,76l14,31H134c0,0,-91,93,-91,202c0,0,0,105,85,170c0,0,86,65,236,65c0,0,340,0,742,-350l-50,-46c0,0,-182,135,-340,208c0,0,-158,73,-302,73c0,0,-113,0,-183,-48c0,0,-69,-48,-69,-132c0,0,0,-63,53,-142H402l46,-76L434,822H199l65,-58V-39L228,-49Z"
id="f6_nt"
transform="scale(0.001,-0.001)"/>

<path d="M471,-26c0,0,-259,0,-448,396l70,43C93,413,240,98,442,98c0,0,79,0,132,46c0,0,54,45,54,120c0,0,0,61,-38,116c0,0,-38,54,-107,72L322,370L255,492c0,0,66,53,156,56c0,0,128,51,128,153c0,0,0,77,-65,121H0l-45,76l14,31H813l46,-76L845,822H578c0,0,76,-66,76,-157c0,0,0,-95,-87,-156c0,0,84,-48,131,-123c0,0,48,-76,48,-158c0,0,0,-109,-78,-182c0,0,-78,-72,-197,-72Z"
id="f6_ap"
transform="scale(0.001,-0.001)"/>

<path d="M266,150c0,0,-57,35,-120,104c0,0,-63,70,-89,131l41,60H211L194,822H0l-45,76l14,31H587l46,-76L619,822H255l66,-58l7,-319H688L721,328H339V180L266,150Z"
id="f6_lq"
transform="scale(0.001,-0.001)"/>

<path d="M252,385l310,78l22,-9c0,0,107,-43,200,-43c0,0,91,0,151,41V822H603l66,-58V585H373c0,0,-184,0,-184,-99c0,0,0,-48,63,-101ZM483,-305L295,-10c0,0,-90,22,-156,74l41,170h66L351,63c0,0,126,4,207,62c0,0,82,58,82,139c0,0,0,37,-18,71L365,266c0,0,-110,15,-197,102c0,0,-87,87,-87,176c0,0,0,69,59,117c0,0,59,48,172,48H550V822H0l-45,76l14,31H1199l46,-76l-14,-31H996l66,-58V-39l-37,-10L935,8V318c0,0,-41,-15,-78,-15c0,0,-52,0,-131,30c0,0,32,-55,32,-111c0,0,0,-109,-98,-179c0,0,-98,-69,-254,-69L599,-216L483,-305Z"
id="f6_bh"
transform="scale(0.001,-0.001)"/>

<path d="M761,293c0,0,127,0,169,94V532c0,0,-68,46,-145,46c0,0,-76,0,-121,-46c0,0,-45,-45,-45,-107c0,0,0,-61,44,-110c0,0,47,-22,98,-22ZM657,67c0,0,166,0,273,107v55c0,0,-45,-36,-111,-36c0,0,-110,0,-207,90c0,0,-97,90,-97,194c0,0,0,85,66,148c0,0,65,63,155,63l48,-5L930,603V822H376l62,-55V579c0,0,0,-60,-23,-102c0,0,-24,-42,-148,-190c0,0,66,-104,175,-162c0,0,108,-58,215,-58ZM1021,-49L930,8V53c0,0,-105,-83,-264,-83c0,0,-177,0,-339,128C327,98,165,226,90,429l34,77H296c0,0,19,39,19,102l-2,214H0l-45,76l14,31H1195l46,-76l-14,-31H992l65,-58V-39l-36,-10Z"
id="f6_ba"
transform="scale(0.001,-0.001)"/>

<path d="M254,-26c0,0,-84,16,-116,92c0,0,13,84,97,127c0,0,100,-36,112,-110C347,83,324,6,254,-26Zm458,0c0,0,-84,16,-116,92c0,0,14,84,98,127c0,0,99,-37,111,-110C805,83,782,6,712,-26Zm458,0c0,0,-84,16,-116,92c0,0,14,84,98,127c0,0,99,-36,111,-110c0,0,-22,-77,-93,-109Z"
id="f6_8l"
transform="scale(0.001,-0.001)"/>

<path d="M959,-49L869,8V367c0,0,-32,-13,-64,-13c0,0,-50,0,-110,25c0,0,23,-52,23,-109c0,0,0,-103,-70,-170c0,0,-70,-66,-182,-66c0,0,-110,0,-222,82c0,0,-111,83,-213,293l68,42c0,0,72,-155,152,-231c0,0,81,-76,178,-76c0,0,83,0,131,49c0,0,48,48,48,117c0,0,0,54,-30,100c0,0,-31,47,-91,65L325,391L257,512c0,0,68,53,156,56c0,0,140,72,140,179c0,0,0,69,-52,99c0,0,-4,1,-11,1c-19,0,-66,-4,-123,-30c0,0,-78,-35,-142,-96L150,823c0,0,119,117,253,117c0,0,98,0,175,-71c0,0,77,-70,77,-159c0,0,0,-103,-94,-180c0,0,39,-23,73,-56c0,0,52,-22,109,-22c0,0,77,0,126,38V822H727l-46,76l14,31h558l-153,215c0,0,-70,92,-157,92c0,0,-69,0,-159,-58l-72,118c0,0,89,73,180,73c0,0,141,0,258,-170L1338,929h197l46,-76l-13,-31H1332l66,-58V-39l-37,-10L1271,8V822H930l66,-58V-39L959,-49Z"
id="f6_b1"
transform="scale(0.001,-0.001)"/>

<path d="M823,-49L733,8V339H445V191L371,160c0,0,-56,36,-120,105c0,0,-63,70,-89,131l41,59H313V735c0,0,0,99,-55,140c0,0,-3,1,-8,1c-16,0,-48,-3,-71,-23c0,0,-31,-26,-31,-66c0,0,0,-69,81,-113L189,620C189,620,31,720,31,828c0,0,0,61,45,99c0,0,46,37,109,37c0,0,96,0,173,-86c0,0,76,-87,79,-194V455H733V822H556l-46,76l14,31H998l45,-76l-13,-31H794l66,-58V-39L823,-49Z"
id="f6_by"
transform="scale(0.001,-0.001)"/>

<path d="M438,206c0,0,-119,0,-226,109c0,0,-108,108,-108,243V822H0l-45,76l14,31H542l46,-76L574,822H165l66,-58V408c0,0,46,-86,151,-86c0,0,61,0,119,32c0,0,58,33,95,91L669,338c0,0,-44,-66,-108,-99c0,0,-63,-33,-123,-33Z"
id="f6_ll"
transform="scale(0.001,-0.001)"/>

<path d="M228,-49L138,8V822H0l-45,76l14,31H134c0,0,-231,362,-445,362c0,0,-87,0,-135,-49c0,0,-48,-49,-48,-116c0,0,0,-73,43,-122l-45,-32c0,0,-119,108,-119,223c0,0,0,94,74,155c0,0,73,60,181,60c0,0,161,0,316,-134c0,0,154,-133,267,-347H402l46,-76L434,822H199l65,-58V-39L228,-49Z"
id="f6_oc"
transform="scale(0.001,-0.001)"/>

<path d="M900,298c0,0,32,73,32,159c0,0,0,110,-38,160c0,0,-40,31,-81,31c0,0,-48,0,-80,-35c0,0,-33,-35,-33,-89c0,0,0,-118,200,-226ZM588,-60c0,0,-154,0,-274,93c0,0,-120,94,-120,207c0,0,0,50,28,92C222,332,61,440,61,552c0,0,0,71,56,122c0,0,56,50,169,50H417l64,-98L463,600H333c0,0,-157,-1,-157,-99c0,0,0,-59,88,-124c0,0,68,52,164,52c0,0,38,0,79,-9l71,-88L558,299c0,0,-46,10,-81,10c0,0,-75,0,-116,-36c0,0,-40,-36,-40,-88c0,0,0,-78,73,-130c0,0,54,-17,109,-17c0,0,114,0,211,54c0,0,97,53,154,145c0,0,-156,96,-223,173c0,0,-67,77,-67,155c0,0,0,72,48,124c0,0,48,52,126,55v78H0l-45,76l14,31H1123l46,-76l-14,-31H805l66,-58V717c0,0,76,-40,124,-124c0,0,47,-84,47,-193c0,0,0,-188,-133,-324C909,76,776,-60,588,-60Z"
id="f6_bf"
transform="scale(0.001,-0.001)"/>

<path d="M228,-49L138,8V822H0l-45,76l14,31H70L-65,1033c0,0,-90,65,-157,65c0,0,-67,0,-151,-53l-72,118c0,0,78,65,163,65c0,0,116,0,246,-120L153,930L46,1201c0,0,-71,166,-187,166c0,0,-52,0,-128,-33l-60,125c0,0,78,46,159,46c0,0,193,0,283,-271L215,929H402l46,-76L434,822H199l65,-58V-39L228,-49Z"
id="f6_d9"
transform="scale(0.001,-0.001)"/>

<path d="M959,-49L869,8V367c0,0,-32,-13,-64,-13c0,0,-50,0,-110,25c0,0,23,-52,23,-109c0,0,0,-103,-70,-170c0,0,-70,-66,-182,-66c0,0,-110,0,-222,82c0,0,-111,83,-213,293l68,42c0,0,72,-155,152,-231c0,0,81,-76,178,-76c0,0,83,0,131,49c0,0,48,48,48,117c0,0,0,54,-30,100c0,0,-31,47,-91,65L325,391L257,512c0,0,68,53,156,56c0,0,140,72,140,179c0,0,0,69,-52,99c0,0,-4,1,-11,1c-19,0,-66,-4,-123,-30c0,0,-78,-35,-142,-96L150,823c0,0,119,117,253,117c0,0,98,0,175,-71c0,0,77,-70,77,-159c0,0,0,-103,-94,-180c0,0,39,-23,73,-56c0,0,52,-22,109,-22c0,0,77,0,126,38V822H727l-46,76l14,31h439l45,-76l-13,-31H930l66,-58V-39L959,-49Z"
id="f6_al"
transform="scale(0.001,-0.001)"/>

<path d="M283,260c0,0,122,0,209,113V513c0,0,-90,51,-160,51c0,0,-80,0,-129,-50c0,0,-49,-50,-49,-118c0,0,0,-60,35,-110c0,0,45,-26,94,-26ZM619,521c0,0,93,104,192,104c0,0,98,0,170,-92c0,0,117,17,167,45c0,0,50,27,50,80c0,0,0,45,-30,81c0,0,-30,36,-99,83H553l66,-58V521ZM1267,248c0,0,76,0,148,36c0,0,72,37,110,107V822H1176c0,0,138,-96,138,-208c0,0,0,-151,-228,-192c0,0,29,-104,89,-158c0,0,41,-16,92,-16ZM582,-49L492,8V211c0,0,-63,-54,-141,-54c0,0,-113,0,-214,92c0,0,-102,92,-102,206c0,0,0,93,69,157c0,0,69,63,163,63c0,0,34,0,66,-9L492,590V822H0l-45,76l14,31H1789l46,-76l-14,-31H1586l66,-58V-39l-37,-10L1525,8V200c0,0,-69,-56,-170,-56c0,0,-121,0,-238,92c0,0,-118,92,-179,235c0,0,-35,41,-89,41c0,0,-51,0,-105,-41c0,0,-53,-42,-125,-129V-39L582,-49Z"
id="f6_ik"
transform="scale(0.001,-0.001)"/>

<path d="M652,-518c0,0,-209,0,-487,322l53,49c0,0,120,-129,210,-193c0,0,90,-65,177,-65c0,0,72,0,113,39c0,0,41,40,41,92c0,0,0,75,-78,105L564,-286l-90,98c0,0,62,96,169,96L605,37C605,37,552,18,498,18c0,0,-151,0,-288,115C210,133,73,248,73,388c0,0,0,113,84,184c0,0,84,71,222,73H524V822H0l-45,76l14,31H842l46,-76L874,822H567l84,-73V519l-3,2l3,-3H408c0,0,-93,0,-153,-52c0,0,-59,-52,-59,-128c0,0,0,-121,110,-188c0,0,53,-17,105,-17c0,0,92,0,153,43L535,318l101,49L773,203c0,0,-20,-67,-87,-122l61,-204c0,0,52,-32,83,-87c0,0,32,-55,32,-116c0,0,0,-85,-61,-139c0,0,-60,-53,-149,-53Z"
id="f6_mv"
transform="scale(0.001,-0.001)"/>

<path d="M-121,1062c0,0,-28,11,-61,36c0,0,-34,26,-51,49c0,0,38,81,90,110c0,0,62,-23,107,-85c0,0,-27,-70,-85,-110Z"
id="f6_oi"
transform="scale(0.001,-0.001)"/>

<path d="M725,307c0,0,-95,0,-218,78c0,0,-123,78,-188,78c0,0,-54,0,-95,-34c0,0,-41,-34,-73,-100L93,362c0,0,38,88,101,146c0,0,63,59,148,59c0,0,90,0,214,-78c0,0,124,-79,188,-79c0,0,63,0,106,34c0,0,42,33,85,104l60,-40c0,0,-32,-66,-101,-134c0,0,-70,-67,-169,-67Z"
id="f7_4r"
transform="scale(0.001,-0.001)"/>

<path d="M415,-18c0,0,-149,0,-244,83c0,0,-94,84,-107,222l140,11c0,0,16,-103,73,-154c0,0,56,-52,137,-52c0,0,98,0,165,73c0,0,66,73,66,194c0,0,0,115,-64,182c0,0,-64,66,-169,66c0,0,-65,0,-117,-29c0,0,-52,-30,-82,-77L87,517l106,562H736V951H300L241,657c0,0,99,69,207,69c0,0,143,0,242,-100c0,0,98,-99,98,-255c0,0,0,-149,-86,-257C702,114,597,-18,415,-18Z"
id="f8_p"
transform="scale(0.001,-0.001)"/>

<path d="M46,0c0,0,-2,48,16,93c0,0,27,74,88,146c0,0,61,71,176,165c0,0,178,146,241,232c0,0,63,85,63,161c0,0,0,80,-57,135c0,0,-58,55,-149,55c0,0,-98,0,-156,-59c0,0,-58,-58,-59,-160L71,782c0,0,15,154,107,235c0,0,93,81,249,81c0,0,157,0,249,-87c0,0,92,-88,92,-217c0,0,0,-65,-27,-129c0,0,-27,-63,-89,-133c0,0,-62,-70,-207,-193C445,339,324,238,290,202c0,0,-35,-36,-57,-73H770V0Z"
id="f8_m"
transform="scale(0.001,-0.001)"/>


</defs>
</svg>