<?xml version="1.0" encoding="UTF-8" standalone="no"?>
<!DOCTYPE svg PUBLIC "-//W3C//DTD SVG 1.1//EN"
"http://www.w3.org/Graphics/SVG/1.1/DTD/svg11.dtd">
<svg viewBox="0 0 641 910" version="1.1" xmlns="http://www.w3.org/2000/svg" xmlns:xlink="http://www.w3.org/1999/xlink">
<defs>
<clipPath id="c0_10"><path d="M0,909.8V0H641.7V909.8Z"/></clipPath>
<clipPath id="c1_10"><path d="M0,908.6V0H641.7V908.6Z"/></clipPath>
<style type="text/css"><![CDATA[
.g0_10{
fill: #FFFFFF;
}
.g1_10{
}
]]></style>
</defs>
<path d="M0,0H641.7V909.8H0V0Z" class="g0_10"/>
<path d="M0,0H641.7V909.8H0V0Z" class="g0_10"/>
<g clip-path="url(#c0_10)">
<path d="M0,-2729.3H641.7V103716.3H0V-2729.3Z" class="g0_10"/>
</g>
<path d="M0,0H641.7V908.6H0V0Z" class="g0_10"/>
<path d="M19.5,60.7H602.7v1.2H19.5V60.7Z" class="g1_10"/>
<g clip-path="url(#c1_10)">
<path d="M0,61.9H641.7V909.8H0V61.9Z" class="g0_10"/>
</g>
<path d="M19.5,61.9H602.7V110H19.5V61.9Z" class="g0_10"/>
<path d="M19.5,108.9H602.7v26.3H19.5V108.9Z" class="g0_10"/>
<path d="M19.5,134.1H602.7v26.3H19.5V134.1Z" class="g0_10"/>
<path d="M19.5,159.3H602.7v26.3H19.5V159.3Z" class="g0_10"/>
<path d="M19.5,184.5H602.7v26.3H19.5V184.5Z" class="g0_10"/>
<path d="M19.5,209.7H602.7V236H19.5V209.7Z" class="g0_10"/>
<path d="M19.5,234.9H602.7v26.4H19.5V234.9Z" class="g0_10"/>
<path d="M19.5,260.1H602.7v26.4H19.5V260.1Z" class="g0_10"/>
<path d="M19.5,285.3H602.7v26.4H19.5V285.3Z" class="g0_10"/>
<path d="M19.5,310.5H602.7v26.4H19.5V310.5Z" class="g0_10"/>
<path d="M19.5,335.7H602.7v26.4H19.5V335.7Z" class="g0_10"/>
<path d="M19.5,360.9H602.7v26.4H19.5V360.9Z" class="g0_10"/>
<path d="M19.5,386.1H602.7v26.4H19.5V386.1Z" class="g0_10"/>
<path d="M19.5,411.4H602.7v26.3H19.5V411.4Z" class="g0_10"/>
<path d="M19.5,436.6H602.7v26.3H19.5V436.6Z" class="g0_10"/>
<path d="M19.5,461.8H602.7v26.3H19.5V461.8Z" class="g0_10"/>
<path d="M19.5,487H602.7v26.3H19.5V487Z" class="g0_10"/>
<path d="M19.5,512.2H602.7v26.3H19.5V512.2Z" class="g0_10"/>
<path d="M19.5,537.4H602.7v26.4H19.5V537.4Z" class="g0_10"/>
<path d="M19.5,562.6H602.7V589H19.5V562.6Z" class="g0_10"/>
<path d="M19.5,587.8H602.7v26.4H19.5V587.8Z" class="g0_10"/>
<path d="M19.5,613H602.7v26.4H19.5V613Z" class="g0_10"/>
<path d="M19.5,638.2H602.7v26.4H19.5V638.2Z" class="g0_10"/>
<path d="M19.5,663.4H602.7v26.4H19.5V663.4Z" class="g0_10"/>
<path d="M19.5,688.6H602.7V715H19.5V688.6Z" class="g0_10"/>
<path d="M19.5,713.9H602.7v26.3H19.5V713.9Z" class="g0_10"/>
<path d="M19.5,739.1H602.7v26.3H19.5V739.1Z" class="g0_10"/>
<g clip-path="url(#c1_10)">
<g fill="#000000" >
<use xlink:href="#f5_ef" transform="matrix(14,0,0,14,205.4,96.3)" />
<use xlink:href="#f5_cv" transform="matrix(14,0,0,14,221.3,96.3)" />
<use xlink:href="#f5_bt" transform="matrix(14,0,0,14,233.5,96.3)" />
<use xlink:href="#f5_ct" transform="matrix(14,0,0,14,246.5,96.3)" />
<use xlink:href="#f5_b9" transform="matrix(14,0,0,14,253,96.3)" />
<use xlink:href="#f5_d8" transform="matrix(14,0,0,14,270.4,96.3)" />
<use xlink:href="#f5_bm" transform="matrix(14,0,0,14,276.9,96.3)" />
<use xlink:href="#f5_ct" transform="matrix(14,0,0,14,290.2,96.3)" />
<use xlink:href="#f5_by" transform="matrix(14,0,0,14,302.3,96.3)" />
<use xlink:href="#f5_d5" transform="matrix(14,0,0,14,317.3,96.3)" />
<use xlink:href="#f5_c1" transform="matrix(14,0,0,14,317.3,96.3)" />
<use xlink:href="#f5_c7" transform="matrix(14,0,0,14,327.5,96.3)" />
<use xlink:href="#f5_be" transform="matrix(14,0,0,14,346.8,96.3)" />
<use xlink:href="#f5_ct" transform="matrix(14,0,0,14,362.2,96.3)" />
<use xlink:href="#f5_c3" transform="matrix(14,0,0,14,368.6,96.3)" />
<use xlink:href="#f5_cv" transform="matrix(14,0,0,14,385,96.3)" />
<use xlink:href="#f5_cb" transform="matrix(14,0,0,14,391.4,96.3)" />
<use xlink:href="#f5_ct" transform="matrix(14,0,0,14,408.1,96.3)" />
</g>
<g fill="#222222" >
<use xlink:href="#f6_ng" transform="matrix(14,0,0,14,274.2,129.5)" />
<use xlink:href="#f6_ng" transform="matrix(14,0,0,14,283.5,129.5)" />
<use xlink:href="#f6_br" transform="matrix(14,0,0,14,292.9,129.5)" />
<use xlink:href="#f6_d8" transform="matrix(14,0,0,14,304.6,129.5)" />
<use xlink:href="#f6_cc" transform="matrix(14,0,0,14,310.2,129.5)" />
<use xlink:href="#f6_ct" transform="matrix(14,0,0,14,321.8,129.5)" />
<use xlink:href="#f6_ng" transform="matrix(14,0,0,14,327.4,129.5)" />
<use xlink:href="#f6_ng" transform="matrix(14,0,0,14,336.8,129.5)" />
<use xlink:href="#f6_bv" transform="matrix(14,0,0,14,171,179.9)" />
<use xlink:href="#f6_ct" transform="matrix(14,0,0,14,182.9,179.9)" />
<use xlink:href="#f6_nn" transform="matrix(14,0,0,14,188.5,179.9)" />
<use xlink:href="#f6_ke" transform="matrix(14,0,0,14,188.5,179.9)" />
<use xlink:href="#f6_dr" transform="matrix(14,0,0,14,202.7,179.9)" />
<use xlink:href="#f6_bt" transform="matrix(14,0,0,14,202.7,179.9)" />
<use xlink:href="#f6_ct" transform="matrix(14,0,0,14,214.4,179.9)" />
<use xlink:href="#f6_no" transform="matrix(14,0,0,14,220.1,179.9)" />
<use xlink:href="#f6_bq" transform="matrix(14,0,0,14,220.1,179.9)" />
<use xlink:href="#f6_by" transform="matrix(14,0,0,14,238.9,179.9)" />
<use xlink:href="#f6_bb" transform="matrix(14,0,0,14,252.9,179.9)" />
<use xlink:href="#f6_c7" transform="matrix(14,0,0,14,265.5,179.9)" />
<use xlink:href="#f6_ct" transform="matrix(14,0,0,14,277.6,179.9)" />
<use xlink:href="#f6_bt" transform="matrix(14,0,0,14,283.2,179.9)" />
<use xlink:href="#f6_b9" transform="matrix(14,0,0,14,300.6,179.9)" />
<use xlink:href="#f6_oc" transform="matrix(14,0,0,14,316.1,179.9)" />
<use xlink:href="#f6_bz" transform="matrix(14,0,0,14,327.3,179.9)" />
<use xlink:href="#f6_cx" transform="matrix(14,0,0,14,340.6,179.8)" />
<use xlink:href="#f6_c1" transform="matrix(14,0,0,14,340.7,179.9)" />
<use xlink:href="#f6_bp" transform="matrix(14,0,0,14,349.1,179.9)" />
<use xlink:href="#f6_nt" transform="matrix(14,0,0,14,367,179.9)" />
<use xlink:href="#f6_be" transform="matrix(14,0,0,14,372.7,179.9)" />
<use xlink:href="#f6_bp" transform="matrix(14,0,0,14,386.6,179.9)" />
<use xlink:href="#f6_bx" transform="matrix(14,0,0,14,404.6,179.9)" />
<use xlink:href="#f6_cb" transform="matrix(14,0,0,14,416.9,179.9)" />
<use xlink:href="#f6_ct" transform="matrix(14,0,0,14,431.8,179.9)" />
<use xlink:href="#f6_c0" transform="matrix(14,0,0,14,437.4,179.9)" />
<use xlink:href="#f6_by" transform="matrix(14,0,0,14,175.6,205.1)" />
<use xlink:href="#f6_d5" transform="matrix(14,0,0,14,189.7,205.1)" />
<use xlink:href="#f6_c1" transform="matrix(14,0,0,14,189.6,205.1)" />
<use xlink:href="#f6_c7" transform="matrix(14,0,0,14,198,205.1)" />
<use xlink:href="#f6_be" transform="matrix(14,0,0,14,215.7,205.1)" />
<use xlink:href="#f6_ct" transform="matrix(14,0,0,14,229.7,205.1)" />
<use xlink:href="#f6_c3" transform="matrix(14,0,0,14,235.3,205.1)" />
<use xlink:href="#f6_cv" transform="matrix(14,0,0,14,250,205.1)" />
<use xlink:href="#f6_cb" transform="matrix(14,0,0,14,255.6,205.1)" />
<use xlink:href="#f6_ct" transform="matrix(14,0,0,14,270.5,205.1)" />
<use xlink:href="#f6_bv" transform="matrix(14,0,0,14,281.8,205.1)" />
<use xlink:href="#f6_ci" transform="matrix(14,0,0,14,293.7,205.1)" />
<use xlink:href="#f6_of" transform="matrix(14,0,0,14,305.1,209.4)" />
<use xlink:href="#f6_di" transform="matrix(14,0,0,14,305.5,205.5)" />
<use xlink:href="#f6_bb" transform="matrix(14,0,0,14,311.3,205.1)" />
<use xlink:href="#f6_ct" transform="matrix(14,0,0,14,323.9,205.1)" />
<use xlink:href="#f6_bp" transform="matrix(14,0,0,14,329.5,205.1)" />
<use xlink:href="#f6_ct" transform="matrix(14,0,0,14,341.8,205.1)" />
<use xlink:href="#f6_bz" transform="matrix(14,0,0,14,353.1,205.1)" />
<use xlink:href="#f6_bt" transform="matrix(14,0,0,14,366.4,205.1)" />
<use xlink:href="#f6_cc" transform="matrix(14,0,0,14,383.8,205.1)" />
<use xlink:href="#f6_ca" transform="matrix(14,0,0,14,395.4,205.1)" />
<use xlink:href="#f6_ct" transform="matrix(14,0,0,14,407.7,205.1)" />
<use xlink:href="#f6_dr" transform="matrix(14,0,0,14,413.9,205.1)" />
<use xlink:href="#f6_c0" transform="matrix(14,0,0,14,413.3,205.1)" />
<use xlink:href="#f6_ng" transform="matrix(14,0,0,14,425.9,205.1)" />
<use xlink:href="#f6_ng" transform="matrix(14,0,0,14,435.2,205.1)" />
<use xlink:href="#f6_bt" transform="matrix(14,0,0,14,110.3,255.5)" />
<use xlink:href="#f6_ct" transform="matrix(14,0,0,14,122,255.5)" />
<use xlink:href="#f6_b9" transform="matrix(14,0,0,14,127.6,255.5)" />
<use xlink:href="#f6_d8" transform="matrix(14,0,0,14,143.1,255.5)" />
<use xlink:href="#f6_bm" transform="matrix(14,0,0,14,148.8,255.5)" />
<use xlink:href="#f6_ct" transform="matrix(14,0,0,14,161.4,255.5)" />
<use xlink:href="#f6_by" transform="matrix(14,0,0,14,172.7,255.5)" />
<use xlink:href="#f6_d5" transform="matrix(14,0,0,14,186.8,255.5)" />
<use xlink:href="#f6_c1" transform="matrix(14,0,0,14,186.7,255.5)" />
<use xlink:href="#f6_c7" transform="matrix(14,0,0,14,195.1,255.5)" />
<use xlink:href="#f6_cb" transform="matrix(14,0,0,14,212.8,255.5)" />
<use xlink:href="#f6_cw" transform="matrix(14,0,0,14,228.2,255.4)" />
<use xlink:href="#f6_ba" transform="matrix(14,0,0,14,227.7,255.5)" />
<use xlink:href="#f6_b9" transform="matrix(14,0,0,14,244.4,255.5)" />
<use xlink:href="#f6_ct" transform="matrix(14,0,0,14,259.9,255.5)" />
<use xlink:href="#f6_c1" transform="matrix(14,0,0,14,265.5,255.5)" />
<use xlink:href="#f6_cv" transform="matrix(14,0,0,14,273.9,255.5)" />
<use xlink:href="#f6_k" transform="matrix(14,0,0,14,279.5,255.5)" />
<use xlink:href="#f6_bb" transform="matrix(14,0,0,14,290.4,255.5)" />
<use xlink:href="#f6_cw" transform="matrix(14,0,0,14,303.6,255.4)" />
<use xlink:href="#f6_bo" transform="matrix(14,0,0,14,303,255.5)" />
<use xlink:href="#f6_bb" transform="matrix(14,0,0,14,323,255.5)" />
<use xlink:href="#f6_ct" transform="matrix(14,0,0,14,335.7,255.5)" />
<use xlink:href="#f6_c0" transform="matrix(14,0,0,14,341.3,255.5)" />
<use xlink:href="#f6_d4" transform="matrix(14,0,0,14,354,255.5)" />
<use xlink:href="#f6_c0" transform="matrix(14,0,0,14,359.5,255.5)" />
<use xlink:href="#f6_d4" transform="matrix(14,0,0,14,372.2,255.5)" />
<use xlink:href="#f6_mv" transform="matrix(14,0,0,14,377.7,255.5)" />
<use xlink:href="#f6_cu" transform="matrix(14,0,0,14,389.5,255.5)" />
<use xlink:href="#f6_bt" transform="matrix(14,0,0,14,395.1,255.5)" />
<use xlink:href="#f6_c0" transform="matrix(14,0,0,14,406.8,255.5)" />
<use xlink:href="#f6_ct" transform="matrix(14,0,0,14,419.4,255.5)" />
<use xlink:href="#f6_cb" transform="matrix(14,0,0,14,430.7,255.5)" />
<use xlink:href="#f6_ct" transform="matrix(14,0,0,14,445.5,255.5)" />
<use xlink:href="#f6_c1" transform="matrix(14,0,0,14,451.2,255.5)" />
<use xlink:href="#f6_cv" transform="matrix(14,0,0,14,459.5,255.5)" />
<use xlink:href="#f6_nh" transform="matrix(14,0,0,14,470.8,255.5)" />
<use xlink:href="#f6_n7" transform="matrix(14,0,0,14,485.7,255.5)" />
<use xlink:href="#f6_nh" transform="matrix(14,0,0,14,495,255.5)" />
<use xlink:href="#f6_by" transform="matrix(14,0,0,14,93.1,280.7)" />
<use xlink:href="#f6_d5" transform="matrix(14,0,0,14,107.2,280.7)" />
<use xlink:href="#f6_c1" transform="matrix(14,0,0,14,107.1,280.7)" />
<use xlink:href="#f6_c7" transform="matrix(14,0,0,14,115.5,280.7)" />
<use xlink:href="#f6_b9" transform="matrix(14,0,0,14,133.2,280.7)" />
<use xlink:href="#f6_oc" transform="matrix(14,0,0,14,148.7,280.7)" />
<use xlink:href="#f6_bz" transform="matrix(14,0,0,14,160,280.7)" />
<use xlink:href="#f6_cu" transform="matrix(14,0,0,14,173.3,280.7)" />
<use xlink:href="#f6_cc" transform="matrix(14,0,0,14,178.9,280.7)" />
<use xlink:href="#f6_bz" transform="matrix(14,0,0,14,190.6,280.7)" />
<use xlink:href="#f6_ct" transform="matrix(14,0,0,14,203.9,280.7)" />
<use xlink:href="#f6_al" transform="matrix(14,0,0,14,215.2,280.7)" />
<use xlink:href="#f6_cu" transform="matrix(14,0,0,14,231,280.7)" />
<use xlink:href="#f6_bp" transform="matrix(14,0,0,14,236.7,280.7)" />
<use xlink:href="#f6_by" transform="matrix(14,0,0,14,254.6,280.7)" />
<use xlink:href="#f6_ct" transform="matrix(14,0,0,14,268.6,280.7)" />
<use xlink:href="#f6_c1" transform="matrix(14,0,0,14,274.2,280.7)" />
<use xlink:href="#f6_cv" transform="matrix(14,0,0,14,282.6,280.7)" />
<use xlink:href="#f6_k" transform="matrix(14,0,0,14,288.2,280.7)" />
<use xlink:href="#f6_by" transform="matrix(14,0,0,14,299.1,280.7)" />
<use xlink:href="#f6_d5" transform="matrix(14,0,0,14,313.2,280.7)" />
<use xlink:href="#f6_c1" transform="matrix(14,0,0,14,313.1,280.7)" />
<use xlink:href="#f6_c7" transform="matrix(14,0,0,14,321.4,280.7)" />
<use xlink:href="#f6_bt" transform="matrix(14,0,0,14,339.2,280.7)" />
<use xlink:href="#f6_ct" transform="matrix(14,0,0,14,350.9,280.7)" />
<use xlink:href="#f6_bz" transform="matrix(14,0,0,14,356.5,280.7)" />
<use xlink:href="#f6_bg" transform="matrix(14,0,0,14,375.5,280.7)" />
<use xlink:href="#f6_bv" transform="matrix(14,0,0,14,389.8,280.7)" />
<use xlink:href="#f6_d4" transform="matrix(14,0,0,14,401.8,280.7)" />
<use xlink:href="#f6_bt" transform="matrix(14,0,0,14,407.3,280.7)" />
<use xlink:href="#f6_c1" transform="matrix(14,0,0,14,419,280.7)" />
<use xlink:href="#f6_8a" transform="matrix(14,0,0,14,433.1,280.7)" />
<use xlink:href="#f6_bt" transform="matrix(14,0,0,14,450.5,280.7)" />
<use xlink:href="#f6_ct" transform="matrix(14,0,0,14,462.2,280.7)" />
<use xlink:href="#f6_c1" transform="matrix(14,0,0,14,467.9,280.7)" />
<use xlink:href="#f6_cv" transform="matrix(14,0,0,14,476.2,280.7)" />
<use xlink:href="#f6_nh" transform="matrix(14,0,0,14,487.5,280.7)" />
<use xlink:href="#f6_n8" transform="matrix(14,0,0,14,502.4,280.7)" />
<use xlink:href="#f6_nh" transform="matrix(14,0,0,14,512.9,280.7)" />
<use xlink:href="#f6_nu" transform="matrix(14,0,0,14,103.4,305.9)" />
<use xlink:href="#f6_bg" transform="matrix(14,0,0,14,109.1,305.9)" />
<use xlink:href="#f6_bt" transform="matrix(14,0,0,14,123.3,305.9)" />
<use xlink:href="#f6_c7" transform="matrix(14,0,0,14,135,305.9)" />
<use xlink:href="#f6_c1" transform="matrix(14,0,0,14,147.1,305.9)" />
<use xlink:href="#f6_b9" transform="matrix(14,0,0,14,161.1,305.9)" />
<use xlink:href="#f6_d4" transform="matrix(14,0,0,14,172.3,305.9)" />
<use xlink:href="#f6_cc" transform="matrix(14,0,0,14,182.3,305.9)" />
<use xlink:href="#f6_p3" transform="matrix(14,0,0,14,194.3,305.9)" />
<use xlink:href="#f6_am" transform="matrix(14,0,0,14,199.6,305.9)" />
<use xlink:href="#f6_er" transform="matrix(14,0,0,14,221.1,305.9)" />
<use xlink:href="#f6_ct" transform="matrix(14,0,0,14,235.5,305.9)" />
<use xlink:href="#f6_b9" transform="matrix(14,0,0,14,241.2,305.9)" />
<use xlink:href="#f6_ct" transform="matrix(14,0,0,14,256.7,305.9)" />
<use xlink:href="#f6_c1" transform="matrix(14,0,0,14,262.3,305.9)" />
<use xlink:href="#f6_cv" transform="matrix(14,0,0,14,270.7,305.9)" />
<use xlink:href="#f6_k" transform="matrix(14,0,0,14,276.3,305.9)" />
<use xlink:href="#f6_ef" transform="matrix(14,0,0,14,287.2,305.9)" />
<use xlink:href="#f6_ge" transform="matrix(14,0,0,14,301.4,305.9)" />
<use xlink:href="#f6_ct" transform="matrix(14,0,0,14,316.5,305.9)" />
<use xlink:href="#f6_c1" transform="matrix(14,0,0,14,327.8,305.9)" />
<use xlink:href="#f6_ba" transform="matrix(14,0,0,14,336.2,305.9)" />
<use xlink:href="#f6_bp" transform="matrix(14,0,0,14,352.9,305.9)" />
<use xlink:href="#f6_d4" transform="matrix(14,0,0,14,365.3,305.9)" />
<use xlink:href="#f6_cb" transform="matrix(14,0,0,14,370.9,305.9)" />
<use xlink:href="#f6_bz" transform="matrix(14,0,0,14,385.7,305.9)" />
<use xlink:href="#f6_cu" transform="matrix(14,0,0,14,399.1,305.9)" />
<use xlink:href="#f6_b9" transform="matrix(14,0,0,14,404.7,305.9)" />
<use xlink:href="#f6_bp" transform="matrix(14,0,0,14,420.2,305.9)" />
<use xlink:href="#f6_bs" transform="matrix(14,0,0,14,438.2,305.9)" />
<use xlink:href="#f6_ct" transform="matrix(14,0,0,14,452.2,305.9)" />
<use xlink:href="#f6_c1" transform="matrix(14,0,0,14,457.8,305.9)" />
<use xlink:href="#f6_cv" transform="matrix(14,0,0,14,466.2,305.9)" />
<use xlink:href="#f6_nh" transform="matrix(14,0,0,14,477.5,305.9)" />
<use xlink:href="#f6_n9" transform="matrix(14,0,0,14,492.4,305.9)" />
<use xlink:href="#f6_nh" transform="matrix(14,0,0,14,503.5,305.9)" />
<use xlink:href="#f6_e6" transform="matrix(14,0,0,14,86.2,331.1)" />
<use xlink:href="#f6_ct" transform="matrix(14,0,0,14,98.3,331.1)" />
<use xlink:href="#f6_bp" transform="matrix(14,0,0,14,103.9,331.1)" />
<use xlink:href="#f6_dk" transform="matrix(14,0,0,14,116.3,331.1)" />
<use xlink:href="#f6_ap" transform="matrix(14,0,0,14,126.5,331.1)" />
<use xlink:href="#f6_bl" transform="matrix(14,0,0,14,137.9,331.1)" />
<use xlink:href="#f6_bg" transform="matrix(14,0,0,14,155.9,331.1)" />
<use xlink:href="#f6_d8" transform="matrix(14,0,0,14,170.1,331.1)" />
<use xlink:href="#f6_by" transform="matrix(14,0,0,14,181.4,331.1)" />
<use xlink:href="#f6_d5" transform="matrix(14,0,0,14,195.5,331.1)" />
<use xlink:href="#f6_c1" transform="matrix(14,0,0,14,195.4,331.1)" />
<use xlink:href="#f6_c7" transform="matrix(14,0,0,14,203.8,331.1)" />
<use xlink:href="#f6_lh" transform="matrix(14,0,0,14,221.5,331.1)" />
<use xlink:href="#f6_c0" transform="matrix(14,0,0,14,230.7,331.1)" />
<use xlink:href="#f6_ct" transform="matrix(14,0,0,14,243.3,331.1)" />
<use xlink:href="#f6_bp" transform="matrix(14,0,0,14,248.9,331.1)" />
<use xlink:href="#f6_ct" transform="matrix(14,0,0,14,261.2,331.1)" />
<use xlink:href="#f6_k" transform="matrix(14,0,0,14,266.9,331.1)" />
<use xlink:href="#f6_ar" transform="matrix(14,0,0,14,277.7,331.1)" />
<use xlink:href="#f6_nu" transform="matrix(14,0,0,14,295,331.1)" />
<use xlink:href="#f6_ge" transform="matrix(14,0,0,14,300.7,331.1)" />
<use xlink:href="#f6_nu" transform="matrix(14,0,0,14,321.5,331.1)" />
<use xlink:href="#f6_cb" transform="matrix(14,0,0,14,327.1,331.1)" />
<use xlink:href="#f6_nu" transform="matrix(14,0,0,14,342,331.1)" />
<use xlink:href="#f6_ge" transform="matrix(14,0,0,14,347.6,331.1)" />
<use xlink:href="#f6_cb" transform="matrix(14,0,0,14,368.4,331.1)" />
<use xlink:href="#f6_bx" transform="matrix(14,0,0,14,383.3,331.1)" />
<use xlink:href="#f6_cb" transform="matrix(14,0,0,14,401.2,331.1)" />
<use xlink:href="#f6_dj" transform="matrix(14,0,0,14,409.8,331.6)" />
<use xlink:href="#f6_bv" transform="matrix(14,0,0,14,416.1,331.1)" />
<use xlink:href="#f6_nt" transform="matrix(14,0,0,14,428,331.1)" />
<use xlink:href="#f6_j5" transform="matrix(14,0,0,14,433.6,331.1)" />
<use xlink:href="#f6_bv" transform="matrix(14,0,0,14,452.7,331.1)" />
<use xlink:href="#f6_ct" transform="matrix(14,0,0,14,464.6,331.1)" />
<use xlink:href="#f6_bp" transform="matrix(14,0,0,14,470.2,331.1)" />
<use xlink:href="#f6_ct" transform="matrix(14,0,0,14,482.5,331.1)" />
<use xlink:href="#f6_nh" transform="matrix(14,0,0,14,493.8,331.1)" />
<use xlink:href="#f6_na" transform="matrix(14,0,0,14,508.7,331.1)" />
<use xlink:href="#f6_nh" transform="matrix(14,0,0,14,520,331.1)" />
<use xlink:href="#f6_by" transform="matrix(14,0,0,14,103.4,381.6)" />
<use xlink:href="#f6_d5" transform="matrix(14,0,0,14,117.5,381.6)" />
<use xlink:href="#f6_c1" transform="matrix(14,0,0,14,117.4,381.6)" />
<use xlink:href="#f6_c7" transform="matrix(14,0,0,14,125.8,381.6)" />
<use xlink:href="#f6_bt" transform="matrix(14,0,0,14,143.5,381.6)" />
<use xlink:href="#f6_ct" transform="matrix(14,0,0,14,155.2,381.6)" />
<use xlink:href="#f6_bz" transform="matrix(14,0,0,14,160.8,381.6)" />
<use xlink:href="#f6_bg" transform="matrix(14,0,0,14,179.9,381.6)" />
<use xlink:href="#f6_bv" transform="matrix(14,0,0,14,194.1,381.6)" />
<use xlink:href="#f6_d4" transform="matrix(14,0,0,14,206.1,381.6)" />
<use xlink:href="#f6_bg" transform="matrix(14,0,0,14,211.6,381.6)" />
<use xlink:href="#f6_d8" transform="matrix(14,0,0,14,225.9,381.6)" />
<use xlink:href="#f6_b9" transform="matrix(14,0,0,14,237.2,381.6)" />
<use xlink:href="#f6_d8" transform="matrix(14,0,0,14,252.7,381.6)" />
<use xlink:href="#f6_ao" transform="matrix(14,0,0,14,258.3,381.6)" />
<use xlink:href="#f6_k" transform="matrix(14,0,0,14,269.8,381.6)" />
<use xlink:href="#f6_ap" transform="matrix(14,0,0,14,280.7,381.6)" />
<use xlink:href="#f6_cb" transform="matrix(14,0,0,14,292.1,381.6)" />
<use xlink:href="#f6_bc" transform="matrix(14,0,0,14,312.6,381.6)" />
<use xlink:href="#f6_c1" transform="matrix(14,0,0,14,326.5,381.6)" />
<use xlink:href="#f6_bz" transform="matrix(14,0,0,14,340.5,381.6)" />
<use xlink:href="#f6_oz" transform="matrix(14,0,0,14,354,381.6)" />
<use xlink:href="#f6_cu" transform="matrix(14,0,0,14,359.5,381.6)" />
<use xlink:href="#f6_bt" transform="matrix(14,0,0,14,365.2,381.6)" />
<use xlink:href="#f6_bg" transform="matrix(14,0,0,14,376.9,381.6)" />
<use xlink:href="#f6_bz" transform="matrix(14,0,0,14,396.8,381.6)" />
<use xlink:href="#f6_dj" transform="matrix(14,0,0,14,404.3,382)" />
<use xlink:href="#f6_bb" transform="matrix(14,0,0,14,410.1,381.6)" />
<use xlink:href="#f6_c3" transform="matrix(14,0,0,14,422.8,381.6)" />
<use xlink:href="#f6_cc" transform="matrix(14,0,0,14,443.1,381.6)" />
<use xlink:href="#f6_d8" transform="matrix(14,0,0,14,454.7,381.6)" />
<use xlink:href="#f6_ao" transform="matrix(14,0,0,14,460.4,381.6)" />
<use xlink:href="#f6_nh" transform="matrix(14,0,0,14,477.5,381.6)" />
<use xlink:href="#f6_nb" transform="matrix(14,0,0,14,492.4,381.6)" />
<use xlink:href="#f6_nh" transform="matrix(14,0,0,14,503.6,381.6)" />
<use xlink:href="#f6_bt" transform="matrix(14,0,0,14,116,406.8)" />
<use xlink:href="#f6_ct" transform="matrix(14,0,0,14,127.7,406.8)" />
<use xlink:href="#f6_b9" transform="matrix(14,0,0,14,133.4,406.8)" />
<use xlink:href="#f6_d8" transform="matrix(14,0,0,14,148.9,406.8)" />
<use xlink:href="#f6_bm" transform="matrix(14,0,0,14,154.5,406.8)" />
<use xlink:href="#f6_ct" transform="matrix(14,0,0,14,167.2,406.8)" />
<use xlink:href="#f6_c3" transform="matrix(14,0,0,14,178.5,406.8)" />
<use xlink:href="#f6_ct" transform="matrix(14,0,0,14,193.2,406.8)" />
<use xlink:href="#f6_ba" transform="matrix(14,0,0,14,198.8,406.8)" />
<use xlink:href="#f6_d8" transform="matrix(14,0,0,14,215.5,406.8)" />
<use xlink:href="#f6_dj" transform="matrix(14,0,0,14,219.8,407.6)" />
<use xlink:href="#f6_bt" transform="matrix(14,0,0,14,226.8,406.8)" />
<use xlink:href="#f6_c1" transform="matrix(14,0,0,14,238.5,406.8)" />
<use xlink:href="#f6_am" transform="matrix(14,0,0,14,252.5,406.8)" />
<use xlink:href="#f6_c7" transform="matrix(14,0,0,14,274,406.8)" />
<use xlink:href="#f6_d4" transform="matrix(14,0,0,14,286.2,406.8)" />
<use xlink:href="#f6_k" transform="matrix(14,0,0,14,286.1,406.8)" />
<use xlink:href="#f6_ef" transform="matrix(14,0,0,14,297,406.8)" />
<use xlink:href="#f6_ge" transform="matrix(14,0,0,14,311.2,406.8)" />
<use xlink:href="#f6_ct" transform="matrix(14,0,0,14,326.3,406.8)" />
<use xlink:href="#f6_cb" transform="matrix(14,0,0,14,337.6,406.8)" />
<use xlink:href="#f6_d4" transform="matrix(14,0,0,14,352.6,406.8)" />
<use xlink:href="#f6_bv" transform="matrix(14,0,0,14,358.1,406.8)" />
<use xlink:href="#f6_c1" transform="matrix(14,0,0,14,370,406.8)" />
<use xlink:href="#f6_cb" transform="matrix(14,0,0,14,378.4,406.8)" />
<use xlink:href="#f6_ct" transform="matrix(14,0,0,14,393.3,406.8)" />
<use xlink:href="#f6_br" transform="matrix(14,0,0,14,398.9,406.8)" />
<use xlink:href="#f6_be" transform="matrix(14,0,0,14,416.2,406.8)" />
<use xlink:href="#f6_bn" transform="matrix(14,0,0,14,430.2,406.8)" />
<use xlink:href="#f6_ct" transform="matrix(14,0,0,14,442.1,406.8)" />
<use xlink:href="#f6_c7" transform="matrix(14,0,0,14,447.8,406.8)" />
<use xlink:href="#f6_d4" transform="matrix(14,0,0,14,460,406.8)" />
<use xlink:href="#f6_nh" transform="matrix(14,0,0,14,465.5,406.8)" />
<use xlink:href="#f6_nc" transform="matrix(14,0,0,14,480.4,406.8)" />
<use xlink:href="#f6_nh" transform="matrix(14,0,0,14,490.8,406.8)" />
<use xlink:href="#f6_by" transform="matrix(14,0,0,14,102.3,432)" />
<use xlink:href="#f6_d5" transform="matrix(14,0,0,14,116.4,432)" />
<use xlink:href="#f6_c1" transform="matrix(14,0,0,14,116.2,432)" />
<use xlink:href="#f6_c7" transform="matrix(14,0,0,14,124.6,432)" />
<use xlink:href="#f6_8a" transform="matrix(14,0,0,14,142.4,432)" />
<use xlink:href="#f6_by" transform="matrix(14,0,0,14,159.8,432)" />
<use xlink:href="#f6_d5" transform="matrix(14,0,0,14,173.9,432)" />
<use xlink:href="#f6_c1" transform="matrix(14,0,0,14,173.8,432)" />
<use xlink:href="#f6_c7" transform="matrix(14,0,0,14,182.1,432)" />
<use xlink:href="#f6_am" transform="matrix(14,0,0,14,199.9,432)" />
<use xlink:href="#f6_bt" transform="matrix(14,0,0,14,221.4,432)" />
<use xlink:href="#f6_bv" transform="matrix(14,0,0,14,238.8,432)" />
<use xlink:href="#f6_cw" transform="matrix(14,0,0,14,251.2,431.9)" />
<use xlink:href="#f6_b9" transform="matrix(14,0,0,14,250.6,432)" />
<use xlink:href="#f6_ct" transform="matrix(14,0,0,14,266.1,432)" />
<use xlink:href="#f6_c1" transform="matrix(14,0,0,14,271.7,432)" />
<use xlink:href="#f6_d4" transform="matrix(14,0,0,14,279.7,432)" />
<use xlink:href="#f6_k" transform="matrix(14,0,0,14,280.1,432)" />
<use xlink:href="#f6_by" transform="matrix(14,0,0,14,291,432)" />
<use xlink:href="#f6_l1" transform="matrix(14,0,0,14,305,432)" />
<use xlink:href="#f6_bp" transform="matrix(14,0,0,14,316.8,432)" />
<use xlink:href="#f6_d8" transform="matrix(14,0,0,14,329.1,432)" />
<use xlink:href="#f6_dj" transform="matrix(14,0,0,14,333.4,432.8)" />
<use xlink:href="#f6_b9" transform="matrix(14,0,0,14,340.4,432)" />
<use xlink:href="#f6_d4" transform="matrix(14,0,0,14,351.6,432)" />
<use xlink:href="#f6_cb" transform="matrix(14,0,0,14,361.6,432)" />
<use xlink:href="#f6_bx" transform="matrix(14,0,0,14,376.5,432)" />
<use xlink:href="#f6_b9" transform="matrix(14,0,0,14,394.4,432)" />
<use xlink:href="#f6_kf" transform="matrix(14,0,0,14,409.9,432)" />
<use xlink:href="#f6_cu" transform="matrix(14,0,0,14,427.6,432)" />
<use xlink:href="#f6_bt" transform="matrix(14,0,0,14,433.2,432)" />
<use xlink:href="#f6_c7" transform="matrix(14,0,0,14,445,432)" />
<use xlink:href="#f6_ct" transform="matrix(14,0,0,14,457,432)" />
<use xlink:href="#f6_c1" transform="matrix(14,0,0,14,462.7,432)" />
<use xlink:href="#f6_d4" transform="matrix(14,0,0,14,470.6,432)" />
<use xlink:href="#f6_nh" transform="matrix(14,0,0,14,476.7,432)" />
<use xlink:href="#f6_nd" transform="matrix(14,0,0,14,491.6,432)" />
<use xlink:href="#f6_nh" transform="matrix(14,0,0,14,504.2,432)" />
<use xlink:href="#f6_by" transform="matrix(14,0,0,14,94.3,457.2)" />
<use xlink:href="#f6_d5" transform="matrix(14,0,0,14,108.4,457.2)" />
<use xlink:href="#f6_c1" transform="matrix(14,0,0,14,108.2,457.2)" />
<use xlink:href="#f6_c7" transform="matrix(14,0,0,14,116.6,457.2)" />
<use xlink:href="#f6_br" transform="matrix(14,0,0,14,134.3,457.2)" />
<use xlink:href="#f6_c8" transform="matrix(14,0,0,14,146,457.2)" />
<use xlink:href="#f6_dr" transform="matrix(14,0,0,14,162.3,457.2)" />
<use xlink:href="#f6_bt" transform="matrix(14,0,0,14,161.9,457.2)" />
<use xlink:href="#f6_c8" transform="matrix(14,0,0,14,179.3,457.2)" />
<use xlink:href="#f6_o0" transform="matrix(14,0,0,14,195.1,457.2)" />
<use xlink:href="#f6_l1" transform="matrix(14,0,0,14,200.7,457.2)" />
<use xlink:href="#f6_bp" transform="matrix(14,0,0,14,212.6,457.2)" />
<use xlink:href="#f6_8a" transform="matrix(14,0,0,14,230.6,457.2)" />
<use xlink:href="#f6_c8" transform="matrix(14,0,0,14,248,457.2)" />
<use xlink:href="#f6_ct" transform="matrix(14,0,0,14,263.9,457.2)" />
<use xlink:href="#f6_c3" transform="matrix(14,0,0,14,269.5,457.2)" />
<use xlink:href="#f6_cv" transform="matrix(14,0,0,14,284.2,457.2)" />
<use xlink:href="#f6_k" transform="matrix(14,0,0,14,289.8,457.2)" />
<use xlink:href="#f6_br" transform="matrix(14,0,0,14,300.7,457.2)" />
<use xlink:href="#f6_c1" transform="matrix(14,0,0,14,312.4,457.2)" />
<use xlink:href="#f6_cb" transform="matrix(14,0,0,14,326.4,457.2)" />
<use xlink:href="#f6_d4" transform="matrix(14,0,0,14,341.4,457.2)" />
<use xlink:href="#f6_b9" transform="matrix(14,0,0,14,347,457.2)" />
<use xlink:href="#f6_d8" transform="matrix(14,0,0,14,362.5,457.2)" />
<use xlink:href="#f6_ao" transform="matrix(14,0,0,14,368.1,457.2)" />
<use xlink:href="#f6_bt" transform="matrix(14,0,0,14,385.3,457.2)" />
<use xlink:href="#f6_bg" transform="matrix(14,0,0,14,402.6,457.2)" />
<use xlink:href="#f6_ct" transform="matrix(14,0,0,14,416.9,457.2)" />
<use xlink:href="#f6_c7" transform="matrix(14,0,0,14,422.5,457.2)" />
<use xlink:href="#f6_d4" transform="matrix(14,0,0,14,434.7,457.2)" />
<use xlink:href="#f6_ba" transform="matrix(14,0,0,14,440.3,457.2)" />
<use xlink:href="#f6_ct" transform="matrix(14,0,0,14,457,457.2)" />
<use xlink:href="#f6_c3" transform="matrix(14,0,0,14,462.6,457.2)" />
<use xlink:href="#f6_cv" transform="matrix(14,0,0,14,477.3,457.2)" />
<use xlink:href="#f6_nh" transform="matrix(14,0,0,14,488.6,457.2)" />
<use xlink:href="#f6_ne" transform="matrix(14,0,0,14,503.5,457.2)" />
<use xlink:href="#f6_nh" transform="matrix(14,0,0,14,512.6,457.2)" />
<use xlink:href="#f6_bg" transform="matrix(14,0,0,14,92,507.6)" />
<use xlink:href="#f6_d8" transform="matrix(14,0,0,14,106.2,507.6)" />
<use xlink:href="#f6_bt" transform="matrix(14,0,0,14,117.5,507.6)" />
<use xlink:href="#f6_c1" transform="matrix(14,0,0,14,129.2,507.6)" />
<use xlink:href="#f6_cu" transform="matrix(14,0,0,14,143.3,507.6)" />
<use xlink:href="#f6_bt" transform="matrix(14,0,0,14,148.9,507.6)" />
<use xlink:href="#f6_bp" transform="matrix(14,0,0,14,160.6,507.6)" />
<use xlink:href="#f6_ap" transform="matrix(14,0,0,14,178.6,507.6)" />
<use xlink:href="#f6_bl" transform="matrix(14,0,0,14,190,507.6)" />
<use xlink:href="#f6_bp" transform="matrix(14,0,0,14,208,507.6)" />
<use xlink:href="#f6_cw" transform="matrix(14,0,0,14,220.8,507.5)" />
<use xlink:href="#f6_bz" transform="matrix(14,0,0,14,220.3,507.6)" />
<use xlink:href="#f6_b9" transform="matrix(14,0,0,14,233.6,507.6)" />
<use xlink:href="#f6_d8" transform="matrix(14,0,0,14,249.1,507.6)" />
<use xlink:href="#f6_lh" transform="matrix(14,0,0,14,260.4,507.6)" />
<use xlink:href="#f6_c0" transform="matrix(14,0,0,14,269.7,507.6)" />
<use xlink:href="#f6_ct" transform="matrix(14,0,0,14,282.2,507.6)" />
<use xlink:href="#f6_c7" transform="matrix(14,0,0,14,287.8,507.6)" />
<use xlink:href="#f6_d4" transform="matrix(14,0,0,14,300,507.6)" />
<use xlink:href="#f6_k" transform="matrix(14,0,0,14,299.9,507.6)" />
<use xlink:href="#f6_by" transform="matrix(14,0,0,14,310.8,507.6)" />
<use xlink:href="#f6_cx" transform="matrix(14,0,0,14,324.7,507.5)" />
<use xlink:href="#f6_bp" transform="matrix(14,0,0,14,324.7,507.6)" />
<use xlink:href="#f6_bv" transform="matrix(14,0,0,14,342.7,507.6)" />
<use xlink:href="#f6_ct" transform="matrix(14,0,0,14,354.6,507.6)" />
<use xlink:href="#f6_cb" transform="matrix(14,0,0,14,360.2,507.6)" />
<use xlink:href="#f6_am" transform="matrix(14,0,0,14,380.8,507.6)" />
<use xlink:href="#f6_bt" transform="matrix(14,0,0,14,402.2,507.6)" />
<use xlink:href="#f6_d4" transform="matrix(14,0,0,14,414.1,507.6)" />
<use xlink:href="#f6_bt" transform="matrix(14,0,0,14,419.6,507.6)" />
<use xlink:href="#f6_cc" transform="matrix(14,0,0,14,431.3,507.6)" />
<use xlink:href="#f6_cv" transform="matrix(14,0,0,14,442.9,507.6)" />
<use xlink:href="#f6_dj" transform="matrix(14,0,0,14,447.6,508.5)" />
<use xlink:href="#f6_bv" transform="matrix(14,0,0,14,454.2,507.6)" />
<use xlink:href="#f6_ct" transform="matrix(14,0,0,14,466.1,507.6)" />
<use xlink:href="#f6_c7" transform="matrix(14,0,0,14,471.7,507.6)" />
<use xlink:href="#f6_d4" transform="matrix(14,0,0,14,483.9,507.6)" />
<use xlink:href="#f6_nh" transform="matrix(14,0,0,14,489.5,507.6)" />
<use xlink:href="#f6_nf" transform="matrix(14,0,0,14,504.4,507.6)" />
<use xlink:href="#f6_nh" transform="matrix(14,0,0,14,514,507.6)" />
<use xlink:href="#f6_bm" transform="matrix(14,0,0,14,112.6,532.8)" />
<use xlink:href="#f6_ct" transform="matrix(14,0,0,14,125.3,532.8)" />
<use xlink:href="#f6_b9" transform="matrix(14,0,0,14,130.9,532.8)" />
<use xlink:href="#f6_bo" transform="matrix(14,0,0,14,146.4,532.8)" />
<use xlink:href="#f6_bf" transform="matrix(14,0,0,14,166.4,532.8)" />
<use xlink:href="#f6_cx" transform="matrix(14,0,0,14,178.4,533.5)" />
<use xlink:href="#f6_bz" transform="matrix(14,0,0,14,182.1,532.8)" />
<use xlink:href="#f6_dj" transform="matrix(14,0,0,14,189.6,533.2)" />
<use xlink:href="#f6_bp" transform="matrix(14,0,0,14,195.5,532.8)" />
<use xlink:href="#f6_c1" transform="matrix(14,0,0,14,207.8,532.8)" />
<use xlink:href="#f6_cc" transform="matrix(14,0,0,14,221.8,532.8)" />
<use xlink:href="#f6_d8" transform="matrix(14,0,0,14,233.4,532.8)" />
<use xlink:href="#f6_bg" transform="matrix(14,0,0,14,244.7,532.8)" />
<use xlink:href="#f6_ct" transform="matrix(14,0,0,14,259,532.8)" />
<use xlink:href="#f6_c7" transform="matrix(14,0,0,14,264.6,532.8)" />
<use xlink:href="#f6_d4" transform="matrix(14,0,0,14,276.8,532.8)" />
<use xlink:href="#f6_k" transform="matrix(14,0,0,14,276.7,532.8)" />
<use xlink:href="#f6_mv" transform="matrix(14,0,0,14,287.6,532.8)" />
<use xlink:href="#f6_kf" transform="matrix(14,0,0,14,299.3,532.8)" />
<use xlink:href="#f6_br" transform="matrix(14,0,0,14,317,532.8)" />
<use xlink:href="#f6_d4" transform="matrix(14,0,0,14,328.3,532.8)" />
<use xlink:href="#f6_c7" transform="matrix(14,0,0,14,328.7,532.8)" />
<use xlink:href="#f6_am" transform="matrix(14,0,0,14,346.5,532.8)" />
<use xlink:href="#f6_bm" transform="matrix(14,0,0,14,367.9,532.8)" />
<use xlink:href="#f6_d4" transform="matrix(14,0,0,14,380.5,532.8)" />
<use xlink:href="#f6_bt" transform="matrix(14,0,0,14,386.3,532.8)" />
<use xlink:href="#f6_cc" transform="matrix(14,0,0,14,398,532.8)" />
<use xlink:href="#f6_cv" transform="matrix(14,0,0,14,409.6,532.8)" />
<use xlink:href="#f6_dj" transform="matrix(14,0,0,14,414.3,533.7)" />
<use xlink:href="#f6_am" transform="matrix(14,0,0,14,420.9,532.8)" />
<use xlink:href="#f6_c7" transform="matrix(14,0,0,14,442.4,532.8)" />
<use xlink:href="#f6_d4" transform="matrix(14,0,0,14,454.6,532.8)" />
<use xlink:href="#f6_nh" transform="matrix(14,0,0,14,460.1,532.8)" />
<use xlink:href="#f6_n7" transform="matrix(14,0,0,14,475,532.8)" />
<use xlink:href="#f6_n6" transform="matrix(14,0,0,14,483.5,532.8)" />
<use xlink:href="#f6_nh" transform="matrix(14,0,0,14,493.3,532.8)" />
<use xlink:href="#f6_bz" transform="matrix(14,0,0,14,86.2,558)" />
<use xlink:href="#f6_ct" transform="matrix(14,0,0,14,99.6,558)" />
<use xlink:href="#f6_c1" transform="matrix(14,0,0,14,105.2,558)" />
<use xlink:href="#f6_c7" transform="matrix(14,0,0,14,113.6,558)" />
<use xlink:href="#f6_ct" transform="matrix(14,0,0,14,125.7,558)" />
<use xlink:href="#f6_bm" transform="matrix(14,0,0,14,131.3,558)" />
<use xlink:href="#f6_b9" transform="matrix(14,0,0,14,149.6,558)" />
<use xlink:href="#f6_oc" transform="matrix(14,0,0,14,165.1,558)" />
<use xlink:href="#f6_cu" transform="matrix(14,0,0,14,176.4,558)" />
<use xlink:href="#f6_br" transform="matrix(14,0,0,14,182,558)" />
<use xlink:href="#f6_lx" transform="matrix(14,0,0,14,193.7,558)" />
<use xlink:href="#f6_c0" transform="matrix(14,0,0,14,201.7,558)" />
<use xlink:href="#f6_bz" transform="matrix(14,0,0,14,219.9,558)" />
<use xlink:href="#f6_nu" transform="matrix(14,0,0,14,233.3,558)" />
<use xlink:href="#f6_bo" transform="matrix(14,0,0,14,238.9,558)" />
<use xlink:href="#f6_cc" transform="matrix(14,0,0,14,258.9,558)" />
<use xlink:href="#f6_p3" transform="matrix(14,0,0,14,270.9,558)" />
<use xlink:href="#f6_k" transform="matrix(14,0,0,14,270.5,558)" />
<use xlink:href="#f6_cc" transform="matrix(14,0,0,14,281.4,558)" />
<use xlink:href="#f6_bz" transform="matrix(14,0,0,14,293,558)" />
<use xlink:href="#f6_cb" transform="matrix(14,0,0,14,312,558)" />
<use xlink:href="#f6_bx" transform="matrix(14,0,0,14,326.9,558)" />
<use xlink:href="#f6_b9" transform="matrix(14,0,0,14,344.9,558)" />
<use xlink:href="#f6_d4" transform="matrix(14,0,0,14,356,558)" />
<use xlink:href="#f6_bp" transform="matrix(14,0,0,14,366,558)" />
<use xlink:href="#f6_d8" transform="matrix(14,0,0,14,378.3,558)" />
<use xlink:href="#f6_am" transform="matrix(14,0,0,14,389.6,558)" />
<use xlink:href="#f6_bv" transform="matrix(14,0,0,14,411.1,558)" />
<use xlink:href="#f6_bs" transform="matrix(14,0,0,14,428.6,558)" />
<use xlink:href="#f6_bo" transform="matrix(14,0,0,14,442.6,558)" />
<use xlink:href="#f6_cv" transform="matrix(14,0,0,14,457,558)" />
<use xlink:href="#f6_cc" transform="matrix(14,0,0,14,468.3,558)" />
<use xlink:href="#f6_p3" transform="matrix(14,0,0,14,480.2,558)" />
<use xlink:href="#f6_nh" transform="matrix(14,0,0,14,485.6,558)" />
<use xlink:href="#f6_n7" transform="matrix(14,0,0,14,500.5,558)" />
<use xlink:href="#f6_n7" transform="matrix(14,0,0,14,509.8,558)" />
<use xlink:href="#f6_nh" transform="matrix(14,0,0,14,519,558)" />
<use xlink:href="#f6_b9" transform="matrix(14,0,0,14,95.4,583.2)" />
<use xlink:href="#f6_ls" transform="matrix(14,0,0,14,110.9,583.2)" />
<use xlink:href="#f6_bv" transform="matrix(14,0,0,14,119.9,583.2)" />
<use xlink:href="#f6_bp" transform="matrix(14,0,0,14,131.8,583.2)" />
<use xlink:href="#f6_n0" transform="matrix(14,0,0,14,144.1,583.2)" />
<use xlink:href="#f6_cc" transform="matrix(14,0,0,14,162.9,583.2)" />
<use xlink:href="#f6_d5" transform="matrix(14,0,0,14,174.9,583.2)" />
<use xlink:href="#f6_bv" transform="matrix(14,0,0,14,180.2,583.2)" />
<use xlink:href="#f6_c1" transform="matrix(14,0,0,14,192.1,583.2)" />
<use xlink:href="#f6_cu" transform="matrix(14,0,0,14,200.5,583.2)" />
<use xlink:href="#f6_bp" transform="matrix(14,0,0,14,206.1,583.2)" />
<use xlink:href="#f6_ba" transform="matrix(14,0,0,14,218.4,583.2)" />
<use xlink:href="#f6_by" transform="matrix(14,0,0,14,240.8,583.2)" />
<use xlink:href="#f6_d5" transform="matrix(14,0,0,14,254.9,583.2)" />
<use xlink:href="#f6_c1" transform="matrix(14,0,0,14,254.7,583.2)" />
<use xlink:href="#f6_c7" transform="matrix(14,0,0,14,263.1,583.2)" />
<use xlink:href="#f6_k" transform="matrix(14,0,0,14,275.2,583.2)" />
<use xlink:href="#f6_an" transform="matrix(14,0,0,14,286.1,583.2)" />
<use xlink:href="#f6_o0" transform="matrix(14,0,0,14,297.6,583.2)" />
<use xlink:href="#f6_ir" transform="matrix(14,0,0,14,303.2,583.2)" />
<use xlink:href="#f6_bp" transform="matrix(14,0,0,14,328.2,583.2)" />
<use xlink:href="#f6_br" transform="matrix(14,0,0,14,346.1,583.2)" />
<use xlink:href="#f6_d4" transform="matrix(14,0,0,14,357.4,583.2)" />
<use xlink:href="#f6_bp" transform="matrix(14,0,0,14,357.8,583.2)" />
<use xlink:href="#f6_ct" transform="matrix(14,0,0,14,370.1,583.2)" />
<use xlink:href="#f6_cb" transform="matrix(14,0,0,14,381.4,583.2)" />
<use xlink:href="#f6_bx" transform="matrix(14,0,0,14,396.3,583.2)" />
<use xlink:href="#f6_b9" transform="matrix(14,0,0,14,408.6,583.2)" />
<use xlink:href="#f6_d8" transform="matrix(14,0,0,14,424.1,583.2)" />
<use xlink:href="#f6_by" transform="matrix(14,0,0,14,435.4,583.2)" />
<use xlink:href="#f6_d5" transform="matrix(14,0,0,14,449.5,583.2)" />
<use xlink:href="#f6_c1" transform="matrix(14,0,0,14,449.3,583.2)" />
<use xlink:href="#f6_c7" transform="matrix(14,0,0,14,457.7,583.2)" />
<use xlink:href="#f6_nh" transform="matrix(14,0,0,14,475.4,583.2)" />
<use xlink:href="#f6_n7" transform="matrix(14,0,0,14,490.4,583.2)" />
<use xlink:href="#f6_n8" transform="matrix(14,0,0,14,499.6,583.2)" />
<use xlink:href="#f6_nh" transform="matrix(14,0,0,14,510.1,583.2)" />
<use xlink:href="#f6_am" transform="matrix(14,0,0,14,79.4,633.6)" />
<use xlink:href="#f6_nt" transform="matrix(14,0,0,14,100.9,633.6)" />
<use xlink:href="#f6_nl" transform="matrix(14,0,0,14,106.5,633.6)" />
<use xlink:href="#f6_bs" transform="matrix(14,0,0,14,106.5,633.6)" />
<use xlink:href="#f6_lx" transform="matrix(14,0,0,14,126.1,633.6)" />
<use xlink:href="#f6_c0" transform="matrix(14,0,0,14,134.2,633.6)" />
<use xlink:href="#f6_ct" transform="matrix(14,0,0,14,146.7,633.6)" />
<use xlink:href="#f6_nt" transform="matrix(14,0,0,14,152.3,633.6)" />
<use xlink:href="#f6_nl" transform="matrix(14,0,0,14,157.9,633.6)" />
<use xlink:href="#f6_bs" transform="matrix(14,0,0,14,157.9,633.6)" />
<use xlink:href="#f6_cb" transform="matrix(14,0,0,14,177.6,633.6)" />
<use xlink:href="#f6_bx" transform="matrix(14,0,0,14,192.5,633.6)" />
<use xlink:href="#f6_br" transform="matrix(14,0,0,14,210.5,633.6)" />
<use xlink:href="#f6_d8" transform="matrix(14,0,0,14,222.1,633.6)" />
<use xlink:href="#f6_ca" transform="matrix(14,0,0,14,227.7,633.6)" />
<use xlink:href="#f6_nt" transform="matrix(14,0,0,14,245.7,633.6)" />
<use xlink:href="#f6_bz" transform="matrix(14,0,0,14,251.3,633.6)" />
<use xlink:href="#f6_bk" transform="matrix(14,0,0,14,264.7,633.6)" />
<use xlink:href="#f6_ct" transform="matrix(14,0,0,14,276.2,633.6)" />
<use xlink:href="#f6_c7" transform="matrix(14,0,0,14,281.8,633.6)" />
<use xlink:href="#f6_d4" transform="matrix(14,0,0,14,294.1,633.6)" />
<use xlink:href="#f6_k" transform="matrix(14,0,0,14,293.9,633.6)" />
<use xlink:href="#f6_cb" transform="matrix(14,0,0,14,304.8,633.6)" />
<use xlink:href="#f6_cw" transform="matrix(14,0,0,14,320.2,633.6)" />
<use xlink:href="#f6_nt" transform="matrix(14,0,0,14,319.7,633.6)" />
<use xlink:href="#f6_bz" transform="matrix(14,0,0,14,325.3,633.6)" />
<use xlink:href="#f6_c1" transform="matrix(14,0,0,14,338.6,633.6)" />
<use xlink:href="#f6_bp" transform="matrix(14,0,0,14,347,633.6)" />
<use xlink:href="#f6_by" transform="matrix(14,0,0,14,365,633.6)" />
<use xlink:href="#f6_d5" transform="matrix(14,0,0,14,379.1,633.6)" />
<use xlink:href="#f6_c1" transform="matrix(14,0,0,14,379,633.6)" />
<use xlink:href="#f6_c7" transform="matrix(14,0,0,14,387.3,633.6)" />
<use xlink:href="#f6_c8" transform="matrix(14,0,0,14,405.1,633.6)" />
<use xlink:href="#f6_ct" transform="matrix(14,0,0,14,420.9,633.6)" />
<use xlink:href="#f6_nw" transform="matrix(14,0,0,14,426.6,633.6)" />
<use xlink:href="#f6_li" transform="matrix(14,0,0,14,432.2,633.6)" />
<use xlink:href="#f6_bp" transform="matrix(14,0,0,14,438.4,633.6)" />
<use xlink:href="#f6_bv" transform="matrix(14,0,0,14,456.4,633.6)" />
<use xlink:href="#f6_ct" transform="matrix(14,0,0,14,468.2,633.6)" />
<use xlink:href="#f6_c7" transform="matrix(14,0,0,14,473.9,633.6)" />
<use xlink:href="#f6_d4" transform="matrix(14,0,0,14,486.1,633.6)" />
<use xlink:href="#f6_nh" transform="matrix(14,0,0,14,491.6,633.6)" />
<use xlink:href="#f6_n7" transform="matrix(14,0,0,14,506.5,633.6)" />
<use xlink:href="#f6_n9" transform="matrix(14,0,0,14,515.8,633.6)" />
<use xlink:href="#f6_nh" transform="matrix(14,0,0,14,527,633.6)" />
<use xlink:href="#f6_bx" transform="matrix(14,0,0,14,113.7,658.9)" />
<use xlink:href="#f6_ct" transform="matrix(14,0,0,14,126,658.9)" />
<use xlink:href="#f6_cc" transform="matrix(14,0,0,14,131.7,658.9)" />
<use xlink:href="#f6_c1" transform="matrix(14,0,0,14,143.3,658.9)" />
<use xlink:href="#f6_bv" transform="matrix(14,0,0,14,157.3,658.9)" />
<use xlink:href="#f6_c1" transform="matrix(14,0,0,14,169.2,658.9)" />
<use xlink:href="#f6_br" transform="matrix(14,0,0,14,177.6,658.9)" />
<use xlink:href="#f6_d4" transform="matrix(14,0,0,14,188.8,658.9)" />
<use xlink:href="#f6_c8" transform="matrix(14,0,0,14,189.2,658.9)" />
<use xlink:href="#f6_d4" transform="matrix(14,0,0,14,205.2,658.9)" />
<use xlink:href="#f6_bg" transform="matrix(14,0,0,14,210.8,658.9)" />
<use xlink:href="#f6_ct" transform="matrix(14,0,0,14,225,658.9)" />
<use xlink:href="#f6_c7" transform="matrix(14,0,0,14,230.6,658.9)" />
<use xlink:href="#f6_d4" transform="matrix(14,0,0,14,242.8,658.9)" />
<use xlink:href="#f6_bt" transform="matrix(14,0,0,14,248.4,658.9)" />
<use xlink:href="#f6_c1" transform="matrix(14,0,0,14,260.1,658.9)" />
<use xlink:href="#f6_k" transform="matrix(14,0,0,14,268.5,658.9)" />
<use xlink:href="#f6_bt" transform="matrix(14,0,0,14,279.3,658.9)" />
<use xlink:href="#f6_ct" transform="matrix(14,0,0,14,291.1,658.9)" />
<use xlink:href="#f6_bz" transform="matrix(14,0,0,14,296.7,658.9)" />
<use xlink:href="#f6_bz" transform="matrix(14,0,0,14,315.7,658.9)" />
<use xlink:href="#f6_dj" transform="matrix(14,0,0,14,323.2,659.3)" />
<use xlink:href="#f6_e1" transform="matrix(14,0,0,14,329,658.9)" />
<use xlink:href="#f6_by" transform="matrix(14,0,0,14,346.8,658.9)" />
<use xlink:href="#f6_d5" transform="matrix(14,0,0,14,360.8,658.9)" />
<use xlink:href="#f6_c1" transform="matrix(14,0,0,14,360.7,658.9)" />
<use xlink:href="#f6_c7" transform="matrix(14,0,0,14,369.1,658.9)" />
<use xlink:href="#f6_b9" transform="matrix(14,0,0,14,386.8,658.9)" />
<use xlink:href="#f6_ct" transform="matrix(14,0,0,14,402.3,658.9)" />
<use xlink:href="#f6_c3" transform="matrix(14,0,0,14,413.6,658.9)" />
<use xlink:href="#f6_d4" transform="matrix(14,0,0,14,428.5,658.9)" />
<use xlink:href="#f6_b9" transform="matrix(14,0,0,14,428.3,658.9)" />
<use xlink:href="#f6_c1" transform="matrix(14,0,0,14,443.8,658.9)" />
<use xlink:href="#f6_nh" transform="matrix(14,0,0,14,457.9,658.9)" />
<use xlink:href="#f6_n7" transform="matrix(14,0,0,14,472.8,658.9)" />
<use xlink:href="#f6_na" transform="matrix(14,0,0,14,481.9,658.9)" />
<use xlink:href="#f6_nh" transform="matrix(14,0,0,14,493.1,658.9)" />
<use xlink:href="#f6_be" transform="matrix(14,0,0,14,94.3,684.1)" />
<use xlink:href="#f6_d8" transform="matrix(14,0,0,14,108.2,684.1)" />
<use xlink:href="#f6_bc" transform="matrix(14,0,0,14,113.9,684.1)" />
<use xlink:href="#f6_cu" transform="matrix(14,0,0,14,127.8,684.1)" />
<use xlink:href="#f6_bm" transform="matrix(14,0,0,14,133.4,684.1)" />
<use xlink:href="#f6_c0" transform="matrix(14,0,0,14,146.1,684.1)" />
<use xlink:href="#f6_ct" transform="matrix(14,0,0,14,158.6,684.1)" />
<use xlink:href="#f6_mw" transform="matrix(14,0,0,14,169.9,684.1)" />
<use xlink:href="#f6_ca" transform="matrix(14,0,0,14,181.7,684.1)" />
<use xlink:href="#f6_bo" transform="matrix(14,0,0,14,194,684.1)" />
<use xlink:href="#f6_nt" transform="matrix(14,0,0,14,214,684.1)" />
<use xlink:href="#f6_bz" transform="matrix(14,0,0,14,219.6,684.1)" />
<use xlink:href="#f6_bk" transform="matrix(14,0,0,14,233,684.1)" />
<use xlink:href="#f6_bg" transform="matrix(14,0,0,14,250.2,684.1)" />
<use xlink:href="#f6_ct" transform="matrix(14,0,0,14,264.4,684.1)" />
<use xlink:href="#f6_c7" transform="matrix(14,0,0,14,270.1,684.1)" />
<use xlink:href="#f6_d4" transform="matrix(14,0,0,14,282.3,684.1)" />
<use xlink:href="#f6_k" transform="matrix(14,0,0,14,282.1,684.1)" />
<use xlink:href="#f6_b9" transform="matrix(14,0,0,14,293,684.1)" />
<use xlink:href="#f6_ct" transform="matrix(14,0,0,14,308.5,684.1)" />
<use xlink:href="#f6_c3" transform="matrix(14,0,0,14,314.1,684.1)" />
<use xlink:href="#f6_c1" transform="matrix(14,0,0,14,334.5,684.1)" />
<use xlink:href="#f6_ct" transform="matrix(14,0,0,14,342.9,684.1)" />
<use xlink:href="#f6_n4" transform="matrix(14,0,0,14,348.5,684.1)" />
<use xlink:href="#f6_cb" transform="matrix(14,0,0,14,365.8,684.1)" />
<use xlink:href="#f6_bx" transform="matrix(14,0,0,14,380.7,684.1)" />
<use xlink:href="#f6_bt" transform="matrix(14,0,0,14,398.6,684.1)" />
<use xlink:href="#f6_ct" transform="matrix(14,0,0,14,410.3,684.1)" />
<use xlink:href="#f6_bl" transform="matrix(14,0,0,14,416,684.1)" />
<use xlink:href="#f6_ct" transform="matrix(14,0,0,14,428.3,684.1)" />
<use xlink:href="#f6_bg" transform="matrix(14,0,0,14,439.6,684.1)" />
<use xlink:href="#f6_ct" transform="matrix(14,0,0,14,453.9,684.1)" />
<use xlink:href="#f6_c7" transform="matrix(14,0,0,14,459.5,684.1)" />
<use xlink:href="#f6_d4" transform="matrix(14,0,0,14,471.7,684.1)" />
<use xlink:href="#f6_nh" transform="matrix(14,0,0,14,477.2,684.1)" />
<use xlink:href="#f6_n7" transform="matrix(14,0,0,14,492.2,684.1)" />
<use xlink:href="#f6_nb" transform="matrix(14,0,0,14,501.4,684.1)" />
<use xlink:href="#f6_nh" transform="matrix(14,0,0,14,512.5,684.1)" />
<use xlink:href="#f6_bv" transform="matrix(14,0,0,14,110.3,709.3)" />
<use xlink:href="#f6_c1" transform="matrix(14,0,0,14,122.2,709.3)" />
<use xlink:href="#f6_br" transform="matrix(14,0,0,14,130.5,709.3)" />
<use xlink:href="#f6_d4" transform="matrix(14,0,0,14,141.8,709.3)" />
<use xlink:href="#f6_c8" transform="matrix(14,0,0,14,142.2,709.3)" />
<use xlink:href="#f6_ct" transform="matrix(14,0,0,14,158.1,709.3)" />
<use xlink:href="#f6_bz" transform="matrix(14,0,0,14,169.4,709.3)" />
<use xlink:href="#f6_oz" transform="matrix(14,0,0,14,182.8,709.3)" />
<use xlink:href="#f6_bt" transform="matrix(14,0,0,14,188.4,709.3)" />
<use xlink:href="#f6_ct" transform="matrix(14,0,0,14,200.1,709.3)" />
<use xlink:href="#f6_bz" transform="matrix(14,0,0,14,205.7,709.3)" />
<use xlink:href="#f6_b9" transform="matrix(14,0,0,14,224.7,709.3)" />
<use xlink:href="#f6_bz" transform="matrix(14,0,0,14,240.2,709.3)" />
<use xlink:href="#f6_ct" transform="matrix(14,0,0,14,253.6,709.3)" />
<use xlink:href="#f6_c7" transform="matrix(14,0,0,14,259.2,709.3)" />
<use xlink:href="#f6_d4" transform="matrix(14,0,0,14,271.4,709.3)" />
<use xlink:href="#f6_k" transform="matrix(14,0,0,14,271.3,709.3)" />
<use xlink:href="#f6_bs" transform="matrix(14,0,0,14,282.1,709.3)" />
<use xlink:href="#f6_bt" transform="matrix(14,0,0,14,296.1,709.3)" />
<use xlink:href="#f6_bx" transform="matrix(14,0,0,14,313.5,709.3)" />
<use xlink:href="#f6_d8" transform="matrix(14,0,0,14,325.8,709.3)" />
<use xlink:href="#f6_c1" transform="matrix(14,0,0,14,331.4,709.3)" />
<use xlink:href="#f6_ct" transform="matrix(14,0,0,14,339.8,709.3)" />
<use xlink:href="#f6_bz" transform="matrix(14,0,0,14,351.1,709.3)" />
<use xlink:href="#f6_oz" transform="matrix(14,0,0,14,364.6,709.3)" />
<use xlink:href="#f6_by" transform="matrix(14,0,0,14,370.1,709.3)" />
<use xlink:href="#f6_c1" transform="matrix(14,0,0,14,384.1,709.3)" />
<use xlink:href="#f6_b9" transform="matrix(14,0,0,14,392.4,709.3)" />
<use xlink:href="#f6_c1" transform="matrix(14,0,0,14,407.9,709.3)" />
<use xlink:href="#f6_c3" transform="matrix(14,0,0,14,422,709.3)" />
<use xlink:href="#f6_ct" transform="matrix(14,0,0,14,436.7,709.3)" />
<use xlink:href="#f6_c7" transform="matrix(14,0,0,14,442.3,709.3)" />
<use xlink:href="#f6_d4" transform="matrix(14,0,0,14,454.5,709.3)" />
<use xlink:href="#f6_nh" transform="matrix(14,0,0,14,460.1,709.3)" />
<use xlink:href="#f6_n7" transform="matrix(14,0,0,14,475,709.3)" />
<use xlink:href="#f6_nc" transform="matrix(14,0,0,14,484.5,709.3)" />
<use xlink:href="#f6_nh" transform="matrix(14,0,0,14,494.9,709.3)" />
</g>
<g fill="#000000" >
<use xlink:href="#f7_4r" transform="matrix(9,0,0,9,293.6,795.2)" />
<use xlink:href="#f8_o" transform="matrix(9,0,0,9,306.5,795.2)" />
<use xlink:href="#f7_4r" transform="matrix(9,0,0,9,317.1,795.2)" />
</g>
</g>
<image preserveAspectRatio="none" x="22" y="801" width="581" height="86" xlink:href="img/1.png"/>
<path d="M206.3,97.4H415.9v1.1H206.3V97.4Z" class="g1_10"/>
<image preserveAspectRatio="none" x="202" y="14" width="217" height="26" xlink:href="img/2.png"/>
<defs>
<path d="M368,629c0,0,125,88,125,182l-3,25c0,0,-26,21,-55,21c0,0,-41,0,-71,-37c0,0,-31,-36,-31,-90c0,0,0,-56,35,-101ZM964,-65L790,29V290L442,0L284,156L585,380c0,0,-72,19,-125,43l-3,-1L174,238L21,413L254,556c0,0,-138,124,-138,252c0,0,0,90,71,159c0,0,71,69,169,69c0,0,119,0,209,-95c0,0,90,-95,90,-215c0,0,0,-107,-79,-200l86,-7c0,0,61,0,128,14V822H759L674,937l32,64h444l86,-115l-32,-64H932l102,-73V-31L964,-65Z"
id="f5_ef"
transform="scale(0.001,-0.001)"/>

<path d="M277,-65L102,29V822H0L-86,937l32,64H110c0,0,-50,142,-110,226c0,0,-60,84,-149,84c0,0,-59,0,-97,-37c0,0,-39,-36,-39,-91c0,0,0,-57,42,-115l-95,-50c0,0,-145,116,-145,267c0,0,0,108,75,179c0,0,76,70,195,70c0,0,179,0,297,-150c0,0,119,-150,189,-383H463L548,886L516,822H244L347,749V-31L277,-65Z"
id="f5_cv"
transform="scale(0.001,-0.001)"/>

<path d="M746,-65L571,29V419H376V260L275,212c0,0,-87,48,-160,148c0,0,-72,100,-91,193l57,84H571V822H0L-86,937l32,64H930l88,-115L985,822H713L816,749V-31L746,-65Z"
id="f5_bt"
transform="scale(0.001,-0.001)"/>

<path d="M277,-65L102,29V822H0L-86,937l32,64H463L548,886L516,822H244L347,749V-31L277,-65Z"
id="f5_ct"
transform="scale(0.001,-0.001)"/>

<path d="M300,310c13,0,56,2,103,25c0,0,58,27,100,81V523c0,0,-46,16,-83,16c0,0,-69,0,-111,-45c0,0,-42,-45,-42,-104c0,0,0,-45,28,-80c0,0,2,0,5,0ZM677,-65L503,29V144c0,0,-32,-11,-75,-11c0,0,-147,0,-272,98c0,0,-125,99,-125,233c0,0,0,110,75,185c0,0,76,74,195,74l67,-6L503,646V822H0L-86,937l32,64H1245l86,-115l-32,-64H645L747,749V622c0,0,81,58,165,58c0,0,122,0,213,-99c0,0,91,-98,91,-230c0,0,0,-204,-253,-371L791,157c0,0,110,83,164,139c0,0,53,55,53,106c0,0,0,55,-53,55c0,0,-83,0,-208,-145V-31L677,-65Z"
id="f5_b9"
transform="scale(0.001,-0.001)"/>

<path d="M277,-65L102,29V822H0L-86,937l32,64H86L18,1111c0,0,-67,122,-168,122c0,0,-81,0,-202,-80l-128,250c0,0,122,77,232,77c0,0,196,0,356,-250L252,1001H463L548,886L516,822H244L347,749V-31L277,-65Z"
id="f5_d8"
transform="scale(0.001,-0.001)"/>

<path d="M573,-101c0,0,-296,0,-555,382l104,86c0,0,167,-260,381,-260c0,0,87,0,151,46c0,0,64,46,63,113L489,194c0,0,-167,54,-273,152c0,0,-106,99,-106,206c0,0,0,87,72,142c0,0,72,55,211,55H588v73H0L-86,937l32,64H949l85,-115l-32,-64H706L808,749V545H445c0,0,-127,0,-127,-64c0,0,0,-35,38,-62l278,64c0,0,125,-43,193,-130c0,0,67,-87,67,-182c0,0,0,-116,-91,-194c0,0,-91,-78,-230,-78Z"
id="f5_bm"
transform="scale(0.001,-0.001)"/>

<path d="M874,-65L700,29V309H513V173L422,122c0,0,-90,31,-191,129c0,0,-100,97,-127,184l52,81H277l-2,240c0,0,0,77,-26,109c0,0,-1,0,-2,0c-8,0,-44,-1,-70,-22c0,0,-29,-24,-29,-61c0,0,0,-53,64,-101L125,610c0,0,-174,117,-174,238c0,0,0,78,57,133c0,0,59,55,146,55c0,0,132,0,244,-112c0,0,112,-113,112,-246V516H700V822H655L570,937l32,64h458l86,-115l-32,-64H842L944,749V-31L874,-65Z"
id="f5_by"
transform="scale(0.001,-0.001)"/>

<path d="M-272,872l-211,214c0,0,-64,61,-138,61c0,0,-70,0,-195,-74l-115,204c0,0,121,86,223,86c0,0,133,0,266,-155l156,-190l-84,209c0,0,-49,119,-100,170c0,0,-50,51,-129,51c0,0,-66,0,-165,-36l-92,243c0,0,105,41,189,41c0,0,240,0,375,-344L-143,923L-272,872Z"
id="f5_d5"
transform="scale(0.001,-0.001)"/>

<path d="M545,-97L35,405L87,542H295c0,0,1,5,1,280H0L-86,937l32,64H729L814,886L782,822H445L550,749V547c0,0,0,-75,-41,-127c0,0,-41,-52,-129,-111L709,110V41L545,-97Z"
id="f5_c1"
transform="scale(0.001,-0.001)"/>

<path d="M371,296c0,0,71,0,139,34c0,0,69,34,109,92v90c0,0,-72,36,-148,36c0,0,-84,0,-131,-47c0,0,-47,-47,-47,-111c0,0,0,-49,28,-89l50,-5ZM793,-65L619,29V134c0,0,-55,-27,-122,-27c0,0,-98,0,-207,48c0,0,-108,48,-182,132c0,0,-73,84,-73,188c0,0,0,113,83,191c0,0,84,78,212,78c0,0,41,0,84,-9L619,643V822H0L-86,937l32,64H978l85,-115l-32,-64H761L863,749V-31L793,-65Z"
id="f5_c7"
transform="scale(0.001,-0.001)"/>

<path d="M911,-65L736,29V136c0,0,-59,-28,-134,-28c0,0,-159,0,-296,101c0,0,-136,101,-136,233c0,0,0,47,21,90H60L-22,648L9,712H578L671,574L639,510H492c0,0,-87,-58,-87,-157c0,0,0,-26,9,-52l50,-5c0,0,78,0,156,44c0,0,77,43,116,111V822H0L-86,937l32,64H1095l86,-115l-32,-64H878L981,749V-31L911,-65Z"
id="f5_be"
transform="scale(0.001,-0.001)"/>

<path d="M472,-77C472,-77,28,171,28,448c0,0,0,116,77,191c0,0,77,74,188,74c0,0,51,0,95,-18L527,574c0,0,104,114,277,117V822H0L-86,937l32,64H1164l86,-115l-32,-64H946l102,-73V-31L978,-65L804,29V526c0,0,-130,-78,-133,-294L611,196L431,309c0,0,0,97,33,174c0,0,-22,10,-53,10c0,0,-52,0,-90,-36c0,0,-38,-37,-38,-99c0,0,0,-80,68,-150c0,0,69,-70,214,-161L472,-77Z"
id="f5_c3"
transform="scale(0.001,-0.001)"/>

<path d="M833,530V822H434L539,749V530ZM533,-97L23,405L75,542H284c0,0,2,5,2,280H-10L-97,937l32,64H1193l86,-115l-32,-64H975l102,-73V-31l-70,-34L833,29V333H405L370,309L697,110V41L533,-97Z"
id="f5_cb"
transform="scale(0.001,-0.001)"/>

<path d="M426,-68L339,5V953l37,11l87,-73V-57L426,-68Z"
id="f6_ng"
transform="scale(0.001,-0.001)"/>

<path d="M675,-274L602,21C602,21,550,3,498,3C498,3,347,3,210,118C210,118,73,232,73,373c0,0,0,113,84,184c0,0,84,71,222,72H524V822H0l-45,76l14,31H834l46,-76L866,822H585l66,-58V504l-3,2l3,-3H408c0,0,-95,0,-154,-53c0,0,-58,-53,-58,-132c0,0,0,-49,27,-100c0,0,28,-50,83,-84c0,0,44,-15,96,-15c0,0,91,0,160,46L535,303l101,48L773,188c0,0,-8,-28,-34,-66c0,0,-27,-38,-62,-64L813,-221L675,-274Z"
id="f6_br"
transform="scale(0.001,-0.001)"/>

<path d="M228,-49L138,8V822H0l-45,76l14,31H119L-33,1144c0,0,-70,92,-157,92c0,0,-69,0,-159,-58l-72,118c0,0,89,73,181,73c0,0,140,0,257,-170L205,929H402l46,-76L434,822H199l65,-58V-39L228,-49Z"
id="f6_d8"
transform="scale(0.001,-0.001)"/>

<path d="M688,-243c0,0,-256,53,-408,173c0,0,-152,119,-152,270c0,0,0,101,68,171c0,0,-101,84,-101,179c0,0,0,64,53,112c0,0,54,47,191,47H587V822H0l-45,76l14,31H830l45,-76L862,822H640l66,-58V585H362c0,0,-159,-1,-159,-92c0,0,0,-41,46,-80c0,0,76,47,183,47c0,0,135,0,230,-76c0,0,96,-75,96,-187C758,197,758,67,629,2L545,104c0,0,49,30,81,75c0,0,32,44,32,82c0,0,0,16,-4,26c0,0,-64,58,-167,58c0,0,-97,0,-166,-50v-2c0,0,-67,-52,-67,-131c0,0,0,-116,132,-199c0,0,132,-84,334,-132l-32,-74Z"
id="f6_cc"
transform="scale(0.001,-0.001)"/>

<path d="M228,-49L138,8V822H0l-45,76l14,31H402l46,-76L434,822H199l65,-58V-39L228,-49Z"
id="f6_ct"
transform="scale(0.001,-0.001)"/>

<path d="M388,325c0,0,58,0,112,31c0,0,53,31,84,86V822H165l69,-58V408c0,0,47,-83,154,-83ZM674,-49L584,8V257c0,0,-61,-51,-141,-51c0,0,-125,0,-232,109c0,0,-107,108,-107,243V822H0l-45,76l14,31H848l46,-76L880,822H645l65,-58V-39L674,-49Z"
id="f6_bv"
transform="scale(0.001,-0.001)"/>

<path d="M0,822l-45,76l14,31H93l46,-76L125,822Z"
id="f6_nn"
transform="scale(0.001,-0.001)"/>

<path d="M500,44c0,0,78,0,152,57c0,0,75,56,98,134V350c0,0,-130,0,-223,-64c0,0,-93,-63,-93,-148c0,0,0,-54,43,-92l23,-2ZM321,561c0,0,66,46,101,105c0,0,36,60,36,113c0,0,0,28,-9,48c0,0,-35,41,-87,41c0,0,-50,0,-89,-38c0,0,-39,-39,-39,-100c0,0,0,-94,87,-169ZM840,-111l-90,59V32c0,0,-69,-68,-156,-68c0,0,-97,0,-187,64c0,0,-89,64,-89,146c0,0,0,61,48,123c0,0,48,62,141,94c0,0,-69,20,-140,57L105,272L20,364L260,519c0,0,-144,118,-144,246c0,0,0,81,57,140c0,0,56,59,140,59c0,0,96,0,171,-79c0,0,75,-78,75,-168c0,0,0,-118,-133,-222c0,0,107,-44,232,-44l92,6V822H628l-46,76l14,31h418l46,-76l-13,-31H811l66,-58V-100l-37,-11Z"
id="f6_ke"
transform="scale(0.001,-0.001)"/>

<path d="M-239,897c0,0,-82,61,-132,137c0,0,-50,75,-50,150c0,0,0,78,52,133c0,0,52,55,141,55c0,0,98,0,176,-64l-23,-69c0,0,-52,32,-104,32c0,0,-57,0,-95,-36c0,0,-38,-36,-38,-95c0,0,0,-115,117,-217l-44,-26Z"
id="f6_dr"
transform="scale(0.001,-0.001)"/>

<path d="M663,-49L573,8V445H299V280L226,251c0,0,-105,99,-162,238l63,72H573V822H0l-45,76l14,31H837l46,-76L869,822H634l66,-58V-39L663,-49Z"
id="f6_bt"
transform="scale(0.001,-0.001)"/>

<path d="M0,822l-45,76l14,31H61l46,-76L93,822Z"
id="f6_no"
transform="scale(0.001,-0.001)"/>

<path d="M768,-49L678,8V202c0,0,-73,-58,-172,-58c0,0,-123,0,-240,94c0,0,-118,94,-179,237l20,55c0,0,134,12,215,70c0,0,81,57,81,141c0,0,0,90,-67,134l-26,3c0,0,-46,0,-74,-29c0,0,-28,-30,-28,-68c0,0,0,-55,82,-109L252,620C252,620,93,720,93,820c0,0,0,65,47,104c0,0,46,40,114,40c0,0,99,0,179,-83c0,0,80,-83,82,-197c0,0,0,-93,-79,-165c0,0,-78,-73,-199,-97c0,0,29,-104,88,-158c0,0,42,-16,92,-16c0,0,78,0,151,38c0,0,74,38,110,111V822H553l-46,76l14,31H943l45,-76L975,822H739l66,-58V-39L768,-49Z"
id="f6_bq"
transform="scale(0.001,-0.001)"/>

<path d="M823,-49L733,8V339H445V191L371,160c0,0,-56,36,-120,105c0,0,-63,70,-89,131l41,59H313V735c0,0,0,99,-55,140c0,0,-3,1,-8,1c-16,0,-48,-3,-71,-23c0,0,-31,-26,-31,-66c0,0,0,-69,81,-113L189,620C189,620,31,720,31,828c0,0,0,61,45,99c0,0,46,37,109,37c0,0,96,0,173,-86c0,0,76,-87,79,-194V455H733V822H556l-46,76l14,31H998l45,-76l-13,-31H794l66,-58V-39L823,-49Z"
id="f6_by"
transform="scale(0.001,-0.001)"/>

<path d="M727,-49L637,8V822H278l66,-58V226L270,196c0,0,-64,36,-122,98c0,0,-58,62,-79,122l43,59H217V822H0l-45,76l14,31H901l46,-76L933,822H698l66,-58V-39L727,-49Z"
id="f6_bb"
transform="scale(0.001,-0.001)"/>

<path d="M325,240c0,0,77,0,154,35c0,0,77,35,120,99V500c0,0,-118,73,-222,73c0,0,-97,0,-151,-54c0,0,-53,-53,-53,-128c0,0,0,-73,49,-125c0,0,38,-26,103,-26ZM689,-49L599,8V199c0,0,-73,-65,-179,-65c0,0,-134,0,-252,96c0,0,-118,95,-118,221c0,0,0,102,78,171c0,0,78,69,190,69c0,0,38,0,75,-10L599,582V822H0l-45,76l14,31H863l46,-76L895,822H660l66,-58V-39L689,-49Z"
id="f6_c7"
transform="scale(0.001,-0.001)"/>

<path d="M283,260c0,0,122,0,209,113V513c0,0,-90,51,-160,51c0,0,-80,0,-129,-50c0,0,-49,-50,-49,-118c0,0,0,-60,35,-110c0,0,45,-26,94,-26ZM582,-49L492,8V211c0,0,-63,-54,-141,-54c0,0,-113,0,-213,92c0,0,-100,92,-100,205c0,0,0,93,69,157c0,0,69,64,162,64c0,0,32,0,64,-9L492,590V822H0l-45,76l14,31H1108l45,-76l-13,-31H553l66,-58V524c0,0,91,89,192,89c0,0,98,0,171,-79c0,0,72,-79,72,-186c0,0,0,-178,-224,-330L736,124c0,0,219,153,219,269c0,0,0,44,-26,75c0,0,-26,32,-81,32c0,0,-109,0,-229,-155V-39L582,-49Z"
id="f6_b9"
transform="scale(0.001,-0.001)"/>

<path d="M228,-49L138,8V822H0l-45,76l14,31H134c0,0,-231,362,-445,362c0,0,-87,0,-135,-49c0,0,-48,-49,-48,-116c0,0,0,-73,43,-122l-45,-32c0,0,-119,108,-119,223c0,0,0,94,74,155c0,0,73,60,181,60c0,0,161,0,316,-134c0,0,154,-133,267,-347H402l46,-76L434,822H199l65,-58V-39L228,-49Z"
id="f6_oc"
transform="scale(0.001,-0.001)"/>

<path d="M689,445V822H286l65,-58l8,-319ZM779,-49L689,8V328H370V180L296,150c0,0,-56,35,-120,104c0,0,-63,70,-89,131l41,60H238L223,822H0l-45,76l14,31H953l46,-76L985,822H750l66,-58V-39L779,-49Z"
id="f6_bz"
transform="scale(0.001,-0.001)"/>

<path d="M108,-433L-59,-214c0,0,-99,119,-191,119c0,0,-59,0,-96,-35c0,0,-36,-34,-36,-81c0,0,0,-49,42,-83l152,95l64,-116c0,0,-71,-58,-148,-58c0,0,-80,0,-146,63c0,0,-65,64,-65,144c0,0,0,77,62,131c0,0,61,53,142,53c0,0,138,0,296,-205L165,-393l-57,-40Z"
id="f6_cx"
transform="scale(0.001,-0.001)"/>

<path d="M527,-71L52,414l34,92H277c0,0,12,32,12,72V822H0l-45,76l14,31H599l46,-76L631,822H350l66,-55V564c0,0,0,-96,-152,-248L610,34L611,8L527,-71Z"
id="f6_c1"
transform="scale(0.001,-0.001)"/>

<path d="M347,-57C347,-57,66,211,66,394c0,0,0,98,74,164c0,0,74,65,225,65H616V822H0l-45,76l14,31H880l46,-76L912,822H677l66,-58V-39L706,-49L616,8V500H428c0,0,-239,0,-239,-161c0,0,0,-136,214,-343L347,-57Z"
id="f6_bp"
transform="scale(0.001,-0.001)"/>

<path d="M228,-49L138,8V822H0l-45,76l14,31H134c0,0,-91,93,-91,202c0,0,0,105,85,170c0,0,86,65,236,65c0,0,340,0,742,-350l-50,-46c0,0,-182,135,-340,208c0,0,-158,73,-302,73c0,0,-113,0,-183,-48c0,0,-69,-48,-69,-132c0,0,0,-63,53,-142H402l46,-76L434,822H199l65,-58V-39L228,-49Z"
id="f6_nt"
transform="scale(0.001,-0.001)"/>

<path d="M825,-49L735,8V217c0,0,-86,-72,-197,-72c0,0,-130,0,-238,91c0,0,-107,91,-107,204c0,0,0,55,27,105H55L12,616l14,30H574l46,-76L607,539H396c0,0,-78,-49,-78,-162c0,0,0,-70,40,-111c0,0,39,-15,94,-15c0,0,84,0,163,41c0,0,79,41,120,121V822H0l-45,76l14,31H999l46,-76l-14,-31H796l66,-58V-39L825,-49Z"
id="f6_be"
transform="scale(0.001,-0.001)"/>

<path d="M348,229c0,0,57,0,106,17L263,559c0,0,-95,-50,-95,-162c0,0,0,-75,52,-136c0,0,49,-32,128,-32Zm170,48c0,0,61,38,96,91V504c0,0,-131,80,-244,80l-35,-2L518,277ZM704,-49L614,8V193c0,0,-84,-65,-192,-65c0,0,-139,0,-255,98c0,0,-115,98,-115,226c0,0,0,106,77,175c0,0,77,70,189,70c0,0,38,0,75,-9L614,578V822H0l-45,76l14,31H878l46,-76L911,822H675l66,-58V-39L704,-49Z"
id="f6_bx"
transform="scale(0.001,-0.001)"/>

<path d="M799,475V822H350l66,-55V564c0,0,0,-43,-25,-89ZM527,-71L52,414l34,92H277c0,0,12,32,12,72V822H0l-45,76l14,31H1063l46,-76l-14,-31H860l66,-58V-39L889,-49L799,8V370H315L264,316L610,34L611,8L527,-71Z"
id="f6_cb"
transform="scale(0.001,-0.001)"/>

<path d="M374,248c0,0,77,0,149,36c0,0,71,37,110,107V822H284c0,0,138,-96,138,-208c0,0,0,-151,-228,-192c0,0,29,-104,89,-158c0,0,41,-16,91,-16ZM723,-49L633,8V200c0,0,-69,-56,-170,-56c0,0,-122,0,-240,94c0,0,-118,94,-179,237l20,55c0,0,133,17,187,44c0,0,55,28,55,84c0,0,0,45,-30,81c0,0,-30,36,-99,83H0l-45,76l14,31H897l46,-76L929,822H694l65,-58V-39L723,-49Z"
id="f6_c0"
transform="scale(0.001,-0.001)"/>

<path d="M-214,860l-227,219c0,0,-73,70,-148,70c0,0,-67,0,-160,-58l-72,117c0,0,83,71,176,71c0,0,120,0,232,-124L-221,940l-102,294c0,0,-64,179,-189,179c0,0,-60,0,-133,-33l-60,125c0,0,84,47,164,47c0,0,200,0,281,-276L-150,901l-23,-15l-41,-26Z"
id="f6_d5"
transform="scale(0.001,-0.001)"/>

<path d="M413,-59C413,-59,53,193,53,416c0,0,0,97,66,164c0,0,66,66,156,66c0,0,61,0,110,-30L487,507c0,0,92,126,257,126l35,-2V822H0l-45,76l14,31H1043l46,-76l-13,-31H840l66,-58V-39L869,-49L779,8V547c0,0,-101,-5,-165,-90c0,0,-64,-86,-70,-222L507,225l-90,73c0,0,5,79,35,151c0,0,-59,66,-128,66c0,0,-57,0,-100,-38c0,0,-44,-39,-44,-109c0,0,0,-165,284,-360L413,-59Z"
id="f6_c3"
transform="scale(0.001,-0.001)"/>

<path d="M228,-49L138,8V822H0l-45,76l14,31H138c0,0,-109,342,-284,342c0,0,-62,0,-102,-40c0,0,-40,-39,-40,-93c0,0,0,-61,51,-134l-42,-32c0,0,-128,113,-128,226c0,0,0,79,60,136c0,0,61,56,154,56c0,0,137,0,249,-125c0,0,112,-125,169,-336H402l46,-76L434,822H199l65,-58V-39L228,-49Z"
id="f6_cv"
transform="scale(0.001,-0.001)"/>

<path d="M526,-266c0,0,-66,24,-103,79c0,0,32,69,83,101c0,0,55,-20,99,-80c0,0,-26,-67,-79,-100ZM570,78c0,0,66,17,105,54c0,0,40,38,40,88c0,0,0,40,-23,66c0,0,-23,26,-58,26c0,0,-40,0,-71,-33c0,0,-31,-33,-31,-90c0,0,0,-55,38,-111ZM538,-45c0,0,-182,0,-322,128C216,83,76,211,76,368c0,0,0,122,91,201c0,0,90,79,238,79H564V822H0l-45,76l14,31H853l45,-76L885,822H617l66,-58V521H420c0,0,-99,0,-162,-57c0,0,-62,-58,-62,-146c0,0,0,-121,105,-208c0,0,118,-41,188,-41l29,1l-69,46c0,0,-36,55,-36,115c0,0,0,73,48,123c0,0,49,49,123,49c0,0,87,0,151,-74c0,0,64,-74,64,-162c0,0,0,-94,-71,-153c0,0,-71,-59,-190,-59Z"
id="f6_ci"
transform="scale(0.001,-0.001)"/>

<path d="M61,-393c0,0,-156,214,-210,261c0,0,-55,47,-110,47c0,0,-53,0,-85,-29c0,0,-32,-30,-32,-71c0,0,0,-48,38,-80l137,87l58,-107c0,0,-67,-52,-134,-52c0,0,-73,0,-134,60c0,0,-60,60,-60,133c0,0,0,67,56,117c0,0,55,50,130,50c0,0,78,0,160,-69c0,0,82,-71,246,-309L61,-393Z"
id="f6_of"
transform="scale(0.001,-0.001)"/>

<path d="M-233,1021c0,0,-84,0,-168,55c0,0,-84,56,-146,162l51,50c0,0,95,-162,219,-162c0,0,125,0,160,157L-7,1234c0,0,-21,-103,-81,-158c0,0,-61,-55,-145,-55Zm-41,201c0,0,-66,25,-102,80c0,0,32,68,82,101c0,0,55,-20,99,-80c0,0,-26,-67,-79,-101Z"
id="f6_di"
transform="scale(0.001,-0.001)"/>

<path d="M413,313c0,0,91,0,145,58L231,782V408c0,0,47,-95,182,-95ZM603,438l11,28V822H295L603,438ZM704,-49L614,8V254c0,0,-61,-57,-151,-57c0,0,-138,0,-248,110c0,0,-111,110,-111,252V822H0l-45,76l14,31H878l46,-76L911,822H675l66,-58V-39L704,-49Z"
id="f6_ca"
transform="scale(0.001,-0.001)"/>

<path d="M548,-57c0,0,-122,0,-243,81c0,0,-122,81,-252,280l57,41C110,345,283,64,498,64c0,0,92,0,153,49c0,0,61,49,61,121c0,0,0,46,-28,84L440,237c0,0,-73,11,-139,55c0,0,-66,44,-105,105c0,0,-40,61,-40,119c0,0,0,72,62,125c0,0,62,53,184,53H625V822H0l-45,76l14,31H906l46,-76L938,822H678l66,-58V562H431c0,0,-164,0,-164,-99c0,0,0,-55,57,-102l261,82c0,0,104,-21,172,-98c0,0,68,-78,68,-171c0,0,0,-99,-76,-166c0,0,-77,-65,-201,-65Z"
id="f6_bm"
transform="scale(0.001,-0.001)"/>

<path d="M-234,-413c0,0,-210,0,-488,322l54,49c0,0,119,-128,209,-193c0,0,90,-65,177,-65c0,0,72,0,113,40c0,0,42,39,42,91c0,0,0,75,-78,106L-323,-181l-90,98c0,0,63,95,167,95c0,0,90,0,155,-69c0,0,66,-70,66,-164c0,0,0,-85,-60,-139c0,0,-61,-53,-149,-53Z"
id="f6_cw"
transform="scale(0.001,-0.001)"/>

<path d="M761,293c0,0,127,0,169,94V532c0,0,-68,46,-145,46c0,0,-76,0,-121,-46c0,0,-45,-45,-45,-107c0,0,0,-61,44,-110c0,0,47,-22,98,-22ZM657,67c0,0,166,0,273,107v55c0,0,-45,-36,-111,-36c0,0,-110,0,-207,90c0,0,-97,90,-97,194c0,0,0,85,66,148c0,0,65,63,155,63l48,-5L930,603V822H376l62,-55V579c0,0,0,-60,-23,-102c0,0,-24,-42,-148,-190c0,0,66,-104,175,-162c0,0,108,-58,215,-58ZM1021,-49L930,8V53c0,0,-105,-83,-264,-83c0,0,-177,0,-339,128C327,98,165,226,90,429l34,77H296c0,0,19,39,19,102l-2,214H0l-45,76l14,31H1195l46,-76l-14,-31H992l65,-58V-39l-36,-10Z"
id="f6_ba"
transform="scale(0.001,-0.001)"/>

<path d="M108,-222l-44,58c0,0,96,81,104,164L89,61c0,0,12,83,93,122c0,0,50,-15,79,-55c0,0,29,-39,29,-90c0,0,0,-69,-48,-142c0,0,-48,-72,-134,-118Z"
id="f6_k"
transform="scale(0.001,-0.001)"/>

<path d="M342,324c0,0,45,0,75,34c0,0,31,33,31,100V822H165l66,-58V390c0,0,32,-66,111,-66ZM853,-49L762,8V822H509l65,-58V455c0,0,0,-134,-51,-185c0,0,-52,-52,-127,-52c0,0,-98,0,-195,99c0,0,-97,99,-97,209V822H0l-45,76l14,31H1027l46,-76l-14,-31H823l66,-58V-39L853,-49Z"
id="f6_bo"
transform="scale(0.001,-0.001)"/>

<path d="M-214,863l-199,281c0,0,-70,92,-157,92c0,0,-69,0,-159,-58l-72,118c0,0,89,73,180,73c0,0,141,0,258,-170L-155,901l-59,-38Z"
id="f6_d4"
transform="scale(0.001,-0.001)"/>

<path d="M652,-518c0,0,-209,0,-487,322l53,49c0,0,120,-129,210,-193c0,0,90,-65,177,-65c0,0,72,0,113,39c0,0,41,40,41,92c0,0,0,75,-78,105L564,-286l-90,98c0,0,62,96,169,96L605,37C605,37,552,18,498,18c0,0,-151,0,-288,115C210,133,73,248,73,388c0,0,0,113,84,184c0,0,84,71,222,73H524V822H0l-45,76l14,31H842l46,-76L874,822H567l84,-73V519l-3,2l3,-3H408c0,0,-93,0,-153,-52c0,0,-59,-52,-59,-128c0,0,0,-121,110,-188c0,0,53,-17,105,-17c0,0,92,0,153,43L535,318l101,49L773,203c0,0,-20,-67,-87,-122l61,-204c0,0,52,-32,83,-87c0,0,32,-55,32,-116c0,0,0,-85,-61,-139c0,0,-60,-53,-149,-53Z"
id="f6_mv"
transform="scale(0.001,-0.001)"/>

<path d="M228,-49L138,8V822H0l-45,76l14,31H134c0,0,-91,92,-91,191c0,0,0,105,85,170c0,0,84,65,219,65c0,0,128,0,293,-76c0,0,165,-77,362,-263L958,966c0,0,-177,143,-303,210c0,0,-125,68,-244,68c0,0,-107,0,-175,-50c0,0,-68,-50,-68,-131c0,0,0,-61,49,-134H402l46,-76L434,822H199l65,-58V-39L228,-49Z"
id="f6_cu"
transform="scale(0.001,-0.001)"/>

<path d="M426,-68L339,5V953l37,11l87,-73V-57L426,-68Zm397,0L736,5V953l37,11l87,-73V-57L823,-68Z"
id="f6_nh"
transform="scale(0.001,-0.001)"/>

<path d="M535,-54L419,5c0,0,23,27,23,58c0,0,0,32,-23,55c0,0,-22,23,-295,226v73L319,571c0,0,116,92,116,191c0,0,0,63,-50,107l-32,5c0,0,-54,0,-91,-42c0,0,-37,-42,-33,-93c0,0,5,-62,75,-99L267,596c0,0,-162,93,-162,194c0,0,0,70,52,122c0,0,51,52,127,52c0,0,99,0,177,-84c0,0,77,-84,77,-180c0,0,0,-116,-142,-236L254,350L417,225l54,-40c0,0,105,-80,105,-150c0,0,0,-45,-41,-89Z"
id="f6_n7"
transform="scale(0.001,-0.001)"/>

<path d="M959,-49L869,8V367c0,0,-32,-13,-64,-13c0,0,-50,0,-110,25c0,0,23,-52,23,-109c0,0,0,-103,-70,-170c0,0,-70,-66,-182,-66c0,0,-110,0,-222,82c0,0,-111,83,-213,293l68,42c0,0,72,-155,152,-231c0,0,81,-76,178,-76c0,0,83,0,131,49c0,0,48,48,48,117c0,0,0,54,-30,100c0,0,-31,47,-91,65L325,391L257,512c0,0,68,53,156,56c0,0,140,72,140,179c0,0,0,69,-52,99c0,0,-4,1,-11,1c-19,0,-66,-4,-123,-30c0,0,-78,-35,-142,-96L150,823c0,0,119,117,253,117c0,0,98,0,175,-71c0,0,77,-70,77,-159c0,0,0,-103,-94,-180c0,0,39,-23,73,-56c0,0,52,-22,109,-22c0,0,77,0,126,38V822H727l-46,76l14,31h439l45,-76l-13,-31H930l66,-58V-39L959,-49Z"
id="f6_al"
transform="scale(0.001,-0.001)"/>

<path d="M845,-49L755,8V513H497c0,0,61,-45,93,-110c0,0,33,-64,33,-128c0,0,0,-90,-58,-144c0,0,-59,-53,-143,-53c0,0,-133,0,-234,139C188,217,87,356,20,596l76,24c0,0,60,-201,127,-306c0,0,67,-105,160,-105c0,0,57,0,91,36c0,0,33,36,33,91c0,0,0,84,-73,159L295,558v71H755V822H0l-45,76l14,31H1019l46,-76l-14,-31H816l66,-58V-39L845,-49Z"
id="f6_bg"
transform="scale(0.001,-0.001)"/>

<path d="M72,335L61,408c0,0,89,44,180,44H775l6,-44L707,335Z"
id="f6_8a"
transform="scale(0.001,-0.001)"/>

<path d="M634,-49L249,296c0,0,-1,0,-3,0c-11,0,-48,1,-90,15c0,0,-51,16,-67,36l49,165l50,12l84,-98c0,0,125,31,191,104c0,0,66,73,66,165c0,0,0,109,-95,170c0,0,-2,0,-6,0C397,865,262,858,121,738L46,848c0,0,52,47,127,82c0,0,75,34,152,34c0,0,130,0,226,-94c0,0,95,-94,95,-218c0,0,0,-107,-77,-199c0,0,-77,-92,-216,-134L697,26L698,0L634,-49Z"
id="f6_n8"
transform="scale(0.001,-0.001)"/>

<path d="M228,-49L138,8V822H0l-45,76l14,31H134c0,0,-91,93,-91,200c0,0,0,109,92,174c0,0,93,66,253,66c0,0,186,0,398,-89c0,0,212,-90,430,-264l-49,-47c0,0,-424,285,-727,285c0,0,-125,0,-201,-49c0,0,-76,-48,-76,-137c0,0,0,-67,52,-139H402l46,-76L434,822H199l65,-58V-39L228,-49Z"
id="f6_nu"
transform="scale(0.001,-0.001)"/>

<path d="M-40,1030c0,0,-28,10,-61,36c0,0,-34,26,-51,49c0,0,38,81,90,110c0,0,61,-23,106,-85c0,0,-27,-71,-84,-110ZM-214,860l-227,219c0,0,-73,70,-148,70c0,0,-67,0,-160,-58l-72,117c0,0,83,71,176,71c0,0,120,0,232,-124L-221,940l-102,294c0,0,-64,179,-189,179c0,0,-60,0,-133,-33l-60,125c0,0,84,47,164,47c0,0,200,0,281,-276L-150,901l-23,-15l-41,-26Z"
id="f6_p3"
transform="scale(0.001,-0.001)"/>

<path d="M959,-49L869,8V367c0,0,-32,-13,-64,-13c0,0,-50,0,-110,25c0,0,23,-52,23,-109c0,0,0,-103,-70,-170c0,0,-70,-66,-182,-66c0,0,-110,0,-222,82c0,0,-111,83,-213,293l68,42c0,0,72,-155,152,-231c0,0,81,-76,178,-76c0,0,83,0,131,49c0,0,48,48,48,117c0,0,0,54,-30,100c0,0,-31,47,-91,65L325,391L257,512c0,0,68,53,156,56c0,0,140,72,140,179c0,0,0,69,-52,99c0,0,-4,1,-11,1c-19,0,-66,-4,-123,-30c0,0,-78,-35,-142,-96L150,823c0,0,119,117,253,117c0,0,98,0,175,-71c0,0,77,-70,77,-159c0,0,0,-103,-94,-180c0,0,39,-23,73,-56c0,0,52,-22,109,-22c0,0,77,0,126,38V822H727l-46,76l14,31h840l46,-76l-13,-31H1332l66,-58V-39l-37,-10L1271,8V822H930l66,-58V-39L959,-49Z"
id="f6_am"
transform="scale(0.001,-0.001)"/>

<path d="M555,-337L261,-69c0,0,-119,12,-165,47l45,170l50,12L283,55l70,-8c0,0,78,0,134,33c0,0,55,33,55,87c0,0,0,76,-116,111L194,348c0,0,-95,89,-95,188c0,0,0,156,249,156H770V822H0l-45,76l14,31H1034l46,-76l-14,-31H831l66,-58V-39L860,-49L770,8V568H350c0,0,-90,0,-132,-17c0,0,-41,-18,-38,-65L478,400c0,0,77,-64,124,-142c0,0,47,-78,47,-148c0,0,0,-87,-73,-139c0,0,-67,-48,-164,-48c-5,0,-9,0,-13,0L633,-234l1,-26l-79,-77Z"
id="f6_er"
transform="scale(0.001,-0.001)"/>

<path d="M319,561c0,0,66,46,103,105c0,0,36,60,36,113c0,0,0,28,-9,48c0,0,-35,41,-88,41c0,0,-51,0,-89,-39c0,0,-38,-39,-38,-103c0,0,0,-95,85,-165ZM840,-49L750,8V342L362,31l-89,85L608,370c0,0,-121,15,-241,78L105,272L20,364L260,519c0,0,-144,118,-144,246c0,0,0,81,57,140c0,0,56,59,140,59c0,0,96,0,171,-79c0,0,75,-78,75,-168c0,0,0,-117,-130,-219c0,0,110,-40,257,-40l64,2V822H628l-46,76l14,31h418l46,-76l-13,-31H811l66,-58V-39L840,-49Z"
id="f6_ef"
transform="scale(0.001,-0.001)"/>

<path d="M915,-274L842,21L784,6c0,0,-37,-120,-114,-190c0,0,-77,-70,-178,-70c0,0,-96,0,-175,51c0,0,-79,51,-80,122c0,0,-119,32,-179,89C58,8,-1,67,-1,138c0,0,0,64,44,104c0,0,44,41,104,41c0,0,91,0,207,-123L315,110c0,0,-78,69,-122,84c0,0,-75,-23,-75,-92c0,0,0,-39,36,-72c0,0,35,-32,100,-46c0,0,35,69,122,89L497,24l-4,-40c0,0,-59,-6,-95,-37c0,0,-36,-32,-36,-68c0,0,0,-41,46,-63c0,0,67,3,141,62c0,0,74,59,102,137c0,0,-136,32,-237,135c0,0,-101,104,-101,223c0,0,0,113,84,184c0,0,84,71,222,72H764V822H0l-45,76l14,31H1074l46,-76l-14,-31H825l66,-58V504l-3,2l3,-3H648c0,0,-95,0,-154,-53c0,0,-59,-53,-59,-132c0,0,0,-49,28,-100c0,0,27,-50,82,-84c0,0,45,-15,97,-15c0,0,91,0,160,46L775,303l100,48L1013,188c0,0,-8,-28,-34,-66c0,0,-27,-38,-62,-64l136,-279L915,-274Z"
id="f6_ge"
transform="scale(0.001,-0.001)"/>

<path d="M827,-49L736,8V205c0,0,-84,-84,-209,-84c0,0,-130,0,-237,91c0,0,-108,92,-108,196c0,0,0,79,61,137C243,545,66,672,66,791c0,0,0,75,52,124c0,0,53,49,134,49c0,0,164,0,260,-237L451,694c0,0,-55,114,-119,163l-31,5c0,0,-44,0,-77,-32c0,0,-33,-31,-33,-78c0,0,0,-86,113,-165c0,0,60,27,133,27l67,-4l75,-89L564,490l-51,7H493c0,0,-90,0,-142,-43c0,0,-52,-43,-52,-104c0,0,0,-60,51,-109c0,0,33,-16,84,-16c0,0,89,0,177,47c0,0,89,47,125,137V822H567l-46,76l14,31h466l46,-76l-14,-31H798l65,-58V-39L827,-49Z"
id="f6_bs"
transform="scale(0.001,-0.001)"/>

<path d="M516,-207L290,58c0,0,-44,5,-99,32c0,0,-55,28,-75,51l58,140l51,12L312,165l49,-3c0,0,100,0,168,47c0,0,67,48,67,118c0,0,0,53,-44,98c0,0,-43,44,-129,65L232,413L165,536c0,0,78,51,176,51c6,0,11,0,17,0c0,0,161,50,161,168c0,0,0,79,-65,114l-20,2c0,0,-69,0,-155,-37c0,0,-86,-36,-151,-93L53,848c0,0,51,49,130,82c0,0,80,34,159,34c0,0,118,0,203,-75c0,0,84,-75,84,-172c0,0,0,-110,-116,-181c0,0,97,-46,148,-112c0,0,51,-66,51,-137c0,0,0,-99,-88,-165c0,0,-88,-65,-237,-65L578,-132l1,-26l-63,-49Z"
id="f6_n9"
transform="scale(0.001,-0.001)"/>

<path d="M396,318c0,0,123,0,203,108V822H180l66,-58V408c0,0,49,-90,150,-90ZM176,-66L79,9L379,228c0,0,-106,23,-181,119c0,0,-76,96,-79,198V822H0l-45,76l14,31H863l46,-76L895,822H660l66,-58V-39L689,-49L599,8V269L176,-66Z"
id="f6_e6"
transform="scale(0.001,-0.001)"/>

<path d="M163,118c0,0,-65,24,-102,79c0,0,32,69,83,101c0,0,55,-20,99,-80c0,0,-26,-67,-80,-100Zm0,382c0,0,-65,24,-102,79c0,0,32,69,83,101c0,0,55,-20,99,-80c0,0,-26,-67,-80,-100Z"
id="f6_dk"
transform="scale(0.001,-0.001)"/>

<path d="M471,-26c0,0,-259,0,-448,396l70,43C93,413,240,98,442,98c0,0,79,0,132,46c0,0,54,45,54,120c0,0,0,61,-38,116c0,0,-38,54,-107,72L322,370L255,492c0,0,66,53,156,56c0,0,128,51,128,153c0,0,0,77,-65,121H0l-45,76l14,31H813l46,-76L845,822H578c0,0,76,-66,76,-157c0,0,0,-95,-87,-156c0,0,84,-48,131,-123c0,0,48,-76,48,-158c0,0,0,-109,-78,-182c0,0,-78,-72,-197,-72Z"
id="f6_ap"
transform="scale(0.001,-0.001)"/>

<path d="M449,79c0,0,103,0,168,61c0,0,66,60,66,149c0,0,0,93,-84,186H420c0,0,-107,0,-164,-50c0,0,-57,-51,-57,-126c0,0,0,-108,99,-184c0,0,81,-36,151,-36Zm67,-96c0,0,-168,0,-301,109C215,92,81,202,81,350c0,0,0,114,83,182c0,0,84,68,229,68H507V822H0l-45,76l14,31H883l46,-76L915,822H568l66,-58V532c0,0,87,-64,130,-144c0,0,43,-79,43,-157c0,0,0,-109,-81,-179c0,0,-81,-69,-210,-69Z"
id="f6_bl"
transform="scale(0.001,-0.001)"/>

<path d="M567,822l-46,76l14,31H726l46,-76L758,822ZM518,122c0,0,-115,0,-225,93c0,0,-111,94,-111,193c0,0,0,79,61,137C243,545,66,672,66,791c0,0,0,75,52,124c0,0,53,49,134,49c0,0,164,0,260,-237L451,694c0,0,-55,114,-119,163l-31,5c0,0,-44,0,-77,-32c0,0,-33,-31,-33,-78c0,0,0,-86,113,-165c0,0,60,27,133,27l67,-4l75,-89L564,490l-51,7H493c0,0,-90,0,-142,-43c0,0,-52,-43,-52,-104c0,0,0,-60,51,-109c0,0,37,-13,82,-13c0,0,104,0,197,59c0,0,94,60,127,148l95,-87c0,0,-43,-94,-140,-160c0,0,-97,-66,-193,-66Z"
id="f6_lh"
transform="scale(0.001,-0.001)"/>

<path d="M710,-49L620,8V335L270,81l-91,81L555,425l-81,76c0,0,-80,70,-133,70c0,0,-81,0,-194,-96L61,584c0,0,109,105,223,105c0,0,103,0,213,-107L620,457V822H23l-45,76l14,31H1236l46,-76l-14,-31H681l66,-58V414c0,0,55,-37,116,-37c0,0,90,0,135,65L901,559l29,52l143,-4c0,0,19,-36,19,-84c0,0,0,-37,-12,-71c0,0,112,-140,112,-234c0,0,0,-65,-48,-124c0,0,-47,-59,-136,-79L947,95l11,33c0,0,130,35,130,139c0,0,0,55,-41,113c0,0,-77,-93,-204,-93c0,0,-50,0,-96,19V-39L710,-49Z"
id="f6_ar"
transform="scale(0.001,-0.001)"/>

<path d="M0,1062c0,0,-26,11,-60,36c0,0,-34,26,-51,49c0,0,39,81,91,110c0,0,60,-23,106,-85c0,0,-28,-70,-86,-110Z"
id="f6_dj"
transform="scale(0.001,-0.001)"/>

<path d="M438,-57c0,0,-264,248,-264,428c0,0,0,74,43,130H57L11,578l13,30H700V822H0l-45,76l14,31H964l46,-76L996,822H761l66,-58V-39L790,-49L700,8V498H519c0,0,-229,0,-229,-159c0,0,0,-145,205,-343L438,-57Z"
id="f6_j5"
transform="scale(0.001,-0.001)"/>

<path d="M397,102c0,0,52,0,85,36c0,0,33,35,33,87c0,0,0,88,-110,221C405,446,296,307,296,217c0,0,0,-61,39,-101c0,0,35,-14,62,-14ZM451,3C451,3,351,3,268,88c0,0,-83,85,-83,182c0,0,0,107,131,274c0,0,-146,153,-346,324l61,69L81,891L373,610c0,0,87,99,318,330l82,-92C773,848,550,623,461,516c0,0,173,-188,173,-322c0,0,0,-87,-53,-139C581,55,527,3,451,3Z"
id="f6_na"
transform="scale(0.001,-0.001)"/>

<path d="M483,-305L295,-10c0,0,-90,22,-156,74l41,170h66L351,63c0,0,126,4,207,62c0,0,82,58,82,139c0,0,0,37,-18,71L365,266c0,0,-110,15,-197,102c0,0,-87,87,-87,176c0,0,0,69,59,117c0,0,59,48,172,48H550V822H0l-45,76l14,31H550c0,0,-142,122,-142,255c0,0,0,78,52,133c0,0,52,55,140,55c0,0,98,0,176,-64l-23,-69c0,0,-53,32,-104,32c0,0,-56,0,-94,-36c0,0,-39,-36,-39,-95c0,0,0,-109,112,-211H822l46,-76L854,822H603l66,-58V585H373c0,0,-184,0,-184,-99c0,0,0,-48,63,-101l310,78c0,0,86,-34,141,-99c0,0,55,-65,55,-142c0,0,0,-109,-98,-179c0,0,-98,-69,-254,-69L599,-216L483,-305Z"
id="f6_ao"
transform="scale(0.001,-0.001)"/>

<path d="M434,225c0,0,84,0,169,42c0,0,85,43,126,126V822H267c0,0,-64,-49,-64,-115c0,0,0,-79,90,-126c0,0,60,35,144,35l67,-6l75,-89L564,490l-51,7H493c0,0,-90,0,-142,-43c0,0,-52,-43,-52,-104c0,0,0,-60,51,-109c0,0,33,-16,84,-16ZM819,-49L729,8V197c0,0,-83,-76,-202,-76c0,0,-130,0,-237,91c0,0,-108,92,-108,196c0,0,0,72,53,128c0,0,-75,42,-115,97c0,0,-41,56,-41,113c0,0,0,38,22,76H0l-45,76l14,31H993l46,-76l-14,-31H790l66,-58V-39L819,-49Z"
id="f6_bc"
transform="scale(0.001,-0.001)"/>

<path d="M-91,1001c0,0,-27,10,-61,36c0,0,-33,26,-50,49c0,0,38,81,90,110c0,0,61,-23,107,-85c0,0,-28,-71,-86,-110ZM-214,863l-199,281c0,0,-70,92,-157,92c0,0,-69,0,-159,-58l-72,118c0,0,89,73,180,73c0,0,141,0,258,-170L-155,901l-59,-38Z"
id="f6_oz"
transform="scale(0.001,-0.001)"/>

<path d="M675,-45L556,338c0,0,-73,-107,-189,-107c0,0,-71,0,-146,47c0,0,-76,47,-118,128c0,0,-42,80,-42,173c0,0,0,165,107,371L287,903C287,903,177,663,177,516c0,0,0,-79,34,-137c0,0,38,-38,95,-38c0,0,59,0,113,42c0,0,55,42,76,104L445,636l32,41L636,637c0,0,4,-73,-29,-168L761,2L749,-22L675,-45Z"
id="f6_nb"
transform="scale(0.001,-0.001)"/>

<path d="M570,78c0,0,66,17,105,54c0,0,40,38,40,88c0,0,0,40,-23,66c0,0,-23,26,-58,26c0,0,-40,0,-71,-33c0,0,-31,-33,-31,-90c0,0,0,-55,38,-111ZM538,-45c0,0,-182,0,-322,128C216,83,76,211,76,368c0,0,0,122,91,201c0,0,90,79,238,79H564V822H0l-45,76l14,31H853l45,-76L885,822H617l66,-58V521H420c0,0,-99,0,-162,-57c0,0,-62,-58,-62,-146c0,0,0,-121,105,-208c0,0,118,-41,188,-41l29,1l-69,46c0,0,-36,55,-36,115c0,0,0,73,48,123c0,0,49,49,123,49c0,0,87,0,151,-74c0,0,64,-74,64,-162c0,0,0,-94,-71,-153c0,0,-71,-59,-190,-59Z"
id="f6_bn"
transform="scale(0.001,-0.001)"/>

<path d="M626,-175L564,73C564,73,510,53,454,53c0,0,-129,0,-240,92c0,0,-112,92,-112,209c0,0,0,115,98,185c0,0,-139,89,-139,211c0,0,0,90,77,150c0,0,76,59,197,59c0,0,136,0,236,-64V779c0,0,-110,63,-213,63c0,0,-83,0,-134,-35c0,0,-51,-34,-51,-94c0,0,0,-82,94,-140c0,0,69,23,147,23c0,0,83,0,160,-20l7,-121c0,0,-78,16,-138,16c0,0,-118,0,-174,-44c0,0,-57,-44,-57,-112c0,0,0,-86,74,-144c0,0,41,-12,82,-12c0,0,87,0,159,41L507,310l54,29L706,211c0,0,-11,-48,-77,-103l84,-241l-9,-26l-78,-16Z"
id="f6_nc"
transform="scale(0.001,-0.001)"/>

<path d="M283,260c0,0,122,0,209,113V513c0,0,-90,51,-160,51c0,0,-80,0,-129,-50c0,0,-49,-50,-49,-118c0,0,0,-60,35,-110c0,0,45,-26,94,-26ZM582,-49L492,8V211c0,0,-63,-54,-141,-54c0,0,-113,0,-214,92c0,0,-102,92,-102,206c0,0,0,93,69,157c0,0,69,63,163,63c0,0,34,0,66,-9L492,590V822H0l-45,76l14,31H909l46,-76L941,822H553l66,-58V521c0,0,93,104,192,104c0,0,63,0,120,-42c0,0,57,-42,82,-106L964,431l-5,9c0,0,-38,72,-110,72c0,0,-51,0,-105,-41c0,0,-53,-42,-125,-129V-39L582,-49Z"
id="f6_l1"
transform="scale(0.001,-0.001)"/>

<path d="M397,351c0,0,87,0,142,49L228,768V438c0,0,47,-87,169,-87ZM585,466c0,0,18,47,18,105V822H280L585,466ZM506,-188c0,0,-141,0,-257,88c0,0,-116,89,-116,202c0,0,0,126,122,202c0,0,-154,116,-154,293V822H-2l-46,76l14,31H860l46,-76L892,822H675l55,-49V603c0,0,0,-261,-221,-337L382,223C382,223,252,171,252,63c0,0,0,-77,55,-123c0,0,44,-21,107,-21c0,0,86,0,171,40c0,0,86,40,135,105l91,-98c0,0,-52,-72,-135,-113c0,0,-83,-41,-170,-41Z"
id="f6_kf"
transform="scale(0.001,-0.001)"/>

<path d="M558,468c0,0,91,0,151,50c0,0,-11,87,-48,139c0,0,-38,52,-94,52c0,0,-51,0,-81,-41c0,0,-31,-40,-31,-100c0,0,0,-39,16,-79c0,0,32,-21,87,-21ZM545,31c0,0,-220,0,-348,239C197,270,69,510,0,804l89,30c0,0,78,-348,178,-507c0,0,100,-159,237,-159c0,0,83,0,137,54c0,0,54,55,68,157c0,0,-44,-20,-92,-20c0,0,-96,0,-188,87c0,0,-91,87,-91,188c0,0,0,73,51,127c0,0,51,53,129,53c0,0,124,0,215,-131c0,0,90,-131,90,-306c0,0,0,-154,-75,-250c0,0,-76,-96,-203,-96Z"
id="f6_nd"
transform="scale(0.001,-0.001)"/>

<path d="M513,460c0,0,61,81,61,179c0,0,0,87,-45,143c0,0,-45,57,-116,57c0,0,-63,0,-102,-43c0,0,-39,-43,-39,-110c0,0,0,-90,68,-151c0,0,68,-61,173,-75ZM581,-83L278,167l-41,-4c0,0,-99,0,-130,37l47,168l51,12l78,-79c0,0,110,40,183,105c0,0,-141,23,-231,107c0,0,-90,84,-90,193c0,0,0,69,37,116H0l-45,76l14,31H1134l45,-76l-13,-31H930l66,-58V-39L959,-49L869,8V822H588c0,0,51,-44,75,-109c0,0,25,-64,25,-122c0,0,0,-105,-81,-213c0,0,-80,-108,-240,-176L658,18l2,-25L581,-83Z"
id="f6_c8"
transform="scale(0.001,-0.001)"/>

<path d="M228,-49L138,8V822H0l-45,76l14,31H134c0,0,-85,93,-85,192c0,0,0,124,129,195c0,0,129,71,364,71c0,0,285,0,647,-97c0,0,363,-97,692,-271l-42,-50c0,0,-313,137,-644,221c0,0,-332,84,-595,84c0,0,-198,0,-314,-55c0,0,-115,-55,-115,-163c0,0,0,-60,44,-127H402l46,-76L434,822H199l65,-58V-39L228,-49Z"
id="f6_o0"
transform="scale(0.001,-0.001)"/>

<path d="M358,20c0,0,-120,0,-216,96c0,0,-96,96,-96,206c0,0,0,104,99,231L429,914L501,805L222,448c0,0,-74,-100,-74,-168c0,0,0,-71,46,-110c0,0,46,-39,110,-39c0,0,127,0,219,147l90,-87C613,191,506,20,358,20Z"
id="f6_ne"
transform="scale(0.001,-0.001)"/>

<path d="M225,542c0,0,68,40,110,97c0,0,42,56,42,108c0,0,0,44,-28,79c0,0,-28,34,-79,34c0,0,-53,0,-91,-42c0,0,-38,-42,-38,-103c0,0,0,-76,84,-173ZM628,-54L510,5c0,0,29,33,29,67c0,0,0,44,-52,96L174,483c0,0,-73,73,-114,137c0,0,-42,63,-42,136c0,0,0,87,60,148c0,0,60,60,144,60c0,0,99,0,180,-89c0,0,81,-90,81,-187c0,0,0,-133,-167,-237L559,217c0,0,110,-105,110,-180c0,0,0,-41,-41,-91Z"
id="f6_nf"
transform="scale(0.001,-0.001)"/>

<path d="M900,298c0,0,32,73,32,159c0,0,0,110,-38,160c0,0,-40,31,-81,31c0,0,-48,0,-80,-35c0,0,-33,-35,-33,-89c0,0,0,-118,200,-226ZM588,-60c0,0,-154,0,-274,93c0,0,-120,94,-120,207c0,0,0,50,28,92C222,332,61,440,61,552c0,0,0,71,56,122c0,0,56,50,169,50H417l64,-98L463,600H333c0,0,-157,-1,-157,-99c0,0,0,-59,88,-124c0,0,68,52,164,52c0,0,38,0,79,-9l71,-88L558,299c0,0,-46,10,-81,10c0,0,-75,0,-116,-36c0,0,-40,-36,-40,-88c0,0,0,-78,73,-130c0,0,54,-17,109,-17c0,0,114,0,211,54c0,0,97,53,154,145c0,0,-156,96,-223,173c0,0,-67,77,-67,155c0,0,0,72,48,124c0,0,48,52,126,55v78H0l-45,76l14,31H1123l46,-76l-14,-31H805l66,-58V717c0,0,76,-40,124,-124c0,0,47,-84,47,-193c0,0,0,-188,-133,-324C909,76,776,-60,588,-60Z"
id="f6_bf"
transform="scale(0.001,-0.001)"/>

<path d="M335,269c0,0,85,0,138,59c0,0,53,60,53,143c0,0,0,87,-58,155c0,0,-54,26,-106,26c0,0,-79,0,-134,-60c0,0,-55,-60,-55,-147c0,0,0,-86,58,-155c0,0,53,-21,104,-21ZM396,163c0,0,-123,0,-229,105C167,268,61,373,61,506c0,0,0,107,74,179c0,0,74,73,174,73c0,0,122,0,223,-107c0,0,101,-107,101,-242c0,0,0,-105,-70,-175c0,0,-70,-71,-167,-71Z"
id="f6_n6"
transform="scale(0.001,-0.001)"/>

<path d="M373,218c0,0,98,0,172,61c0,0,75,60,75,140c0,0,0,29,-10,55c0,0,-69,59,-121,85c0,0,-52,26,-113,26c0,0,-95,0,-151,-56c0,0,-57,-55,-57,-133c0,0,0,-77,52,-135c0,0,60,-43,153,-43ZM431,116c0,0,-142,0,-261,99C170,215,52,315,52,446c0,0,0,107,80,179c0,0,80,72,195,72c0,0,43,0,81,-11L642,548c0,0,73,-91,73,-183c0,0,0,-104,-84,-176c0,0,-84,-73,-200,-73ZM0,822l-45,76l14,31H619l46,-76L651,822Z"
id="f6_lx"
transform="scale(0.001,-0.001)"/>

<path d="M413,-59C413,-59,53,193,53,416c0,0,0,97,66,164c0,0,66,66,156,66c0,0,61,0,110,-30l89,-93c0,0,74,108,204,108c0,0,112,0,181,-98L810,483c0,0,-54,56,-107,56c0,0,-75,0,-120,-78c0,0,-45,-78,-39,-226L507,225l-90,73c0,0,-1,95,28,171c0,0,-57,46,-123,46c0,0,-61,0,-99,-42c0,0,-38,-42,-38,-111c0,0,0,-93,71,-176c0,0,71,-84,208,-178L413,-59ZM0,822l-45,76l14,31H768l46,-76L801,822Z"
id="f6_ls"
transform="scale(0.001,-0.001)"/>

<path d="M527,-71L52,414l34,92H277c0,0,12,32,12,72V822H0l-45,76l14,31H940l45,-76L972,822H350l66,-55V570c0,0,146,98,247,98c0,0,95,0,167,-73c0,0,71,-72,71,-167c0,0,0,-77,-53,-142c0,0,-54,-64,-159,-136l-89,99c0,0,100,70,152,121c0,0,52,52,52,105c0,0,0,34,-23,60c0,0,-22,26,-72,26c0,0,-139,0,-434,-252L610,34L611,8L527,-71Z"
id="f6_n0"
transform="scale(0.001,-0.001)"/>

<path d="M483,-305L295,-10c0,0,-90,22,-156,74l41,170h66L351,63c0,0,126,4,207,62c0,0,82,58,82,139c0,0,0,37,-18,71L365,266c0,0,-110,15,-197,102c0,0,-87,87,-87,176c0,0,0,69,59,117c0,0,59,48,172,48H550V822H0l-45,76l14,31H822l46,-76L854,822H603l66,-58V585H373c0,0,-184,0,-184,-99c0,0,0,-48,63,-101l310,78c0,0,86,-34,141,-99c0,0,55,-65,55,-142c0,0,0,-109,-98,-179c0,0,-98,-69,-254,-69L599,-216L483,-305Z"
id="f6_an"
transform="scale(0.001,-0.001)"/>

<path d="M1561,298c0,0,32,73,32,159c0,0,0,110,-38,160c0,0,-39,31,-81,31c0,0,-47,0,-80,-35c0,0,-33,-35,-33,-89c0,0,0,-118,200,-226ZM1250,-60c0,0,-155,0,-275,93c0,0,-119,94,-119,207c0,0,0,50,27,92l-20,13c0,0,-59,-105,-145,-152c0,0,-85,-48,-176,-48c0,0,-136,0,-243,92c0,0,-106,91,-106,203c0,0,0,55,27,105H55L12,616l14,30H574l46,-76L607,539H396c0,0,-78,-49,-78,-162c0,0,0,-70,40,-111c0,0,50,-22,110,-22c0,0,87,0,169,46c0,0,83,46,135,138c0,0,-49,58,-49,124c0,0,0,71,55,122c0,0,56,50,169,50h132l64,-98l-19,-26H995c0,0,-158,-1,-158,-99c0,0,0,-59,89,-124c0,0,67,52,163,52c0,0,39,0,80,-9l70,-88l-20,-33c0,0,-46,10,-81,10c0,0,-75,0,-115,-36c0,0,-41,-36,-41,-88c0,0,0,-78,74,-130c0,0,53,-17,108,-17c0,0,115,0,212,54c0,0,97,53,153,145c0,0,-156,96,-223,173c0,0,-67,77,-67,155c0,0,0,72,48,124c0,0,48,52,126,55v78H0l-45,76l14,31H1784l46,-76l-13,-31H1467l65,-58V717c0,0,77,-40,124,-124c0,0,47,-84,47,-193c0,0,0,-188,-132,-324c0,0,-133,-136,-321,-136Z"
id="f6_ir"
transform="scale(0.001,-0.001)"/>

<path d="M0,822l-45,76l14,31H38L84,853L70,822Z"
id="f6_nl"
transform="scale(0.001,-0.001)"/>

<path d="M487,-7c0,0,-88,0,-185,46c0,0,-97,47,-163,130c0,0,-66,83,-66,185c0,0,0,109,80,177c0,0,79,68,234,68H504V822H0l-45,76l14,31H827l45,-76L859,822H565l66,-58V474l-3,1l3,-3H396c0,0,-100,0,-152,-47c0,0,-53,-48,-53,-119c0,0,0,-104,93,-178c0,0,60,-20,118,-20c0,0,81,0,156,36c0,0,76,35,123,99l92,-99C773,144,723,70,645,31C645,31,567,-7,487,-7Z"
id="f6_bk"
transform="scale(0.001,-0.001)"/>

<path d="M228,-49L138,8V822H0l-45,76l14,31H134c0,0,-88,93,-88,197c0,0,0,115,104,182c0,0,105,67,290,67c0,0,218,0,481,-92c0,0,263,-93,517,-265l-46,-49c0,0,-237,134,-470,213c0,0,-233,78,-427,78c0,0,-150,0,-239,-50c0,0,-89,-50,-89,-145c0,0,0,-64,48,-136H402l46,-76L434,822H199l65,-58V-39L228,-49Z"
id="f6_nw"
transform="scale(0.001,-0.001)"/>

<path d="M180,220c0,0,-105,99,-162,238l63,72H556l40,-85L574,414H254V249L180,220ZM0,822l-45,76l14,31H471l45,-76L503,822Z"
id="f6_li"
transform="scale(0.001,-0.001)"/>

<path d="M688,-49L597,8V335L248,81l-92,81L532,425l-81,76c0,0,-80,70,-133,70c0,0,-81,0,-194,-96L38,584c0,0,109,105,223,105c0,0,103,0,213,-107L597,457V822H0l-45,76l14,31H862l46,-76L894,822H658l66,-58V-39L688,-49Z"
id="f6_e1"
transform="scale(0.001,-0.001)"/>

<path d="M953,-525L785,-306c0,0,-99,119,-191,119c0,0,-59,0,-96,-34c0,0,-37,-35,-37,-82c0,0,0,-49,43,-83l151,95l65,-116c0,0,-71,-58,-149,-58c0,0,-79,0,-145,63c0,0,-65,64,-65,145c0,0,0,76,61,130c0,0,62,55,143,55c0,0,40,0,77,-14L605,37C605,37,552,18,498,18c0,0,-151,0,-288,115C210,133,73,248,73,388c0,0,0,113,84,184c0,0,84,71,222,73H524V822H0l-45,76l14,31H842l46,-76L874,822H567l84,-73V519l-3,2l3,-3H408c0,0,-93,0,-153,-52c0,0,-59,-52,-59,-128c0,0,0,-121,110,-188c0,0,53,-17,105,-17c0,0,92,0,153,43L535,318l101,49L773,203c0,0,-20,-67,-87,-122l75,-247c0,0,81,-76,249,-319l-57,-40Z"
id="f6_mw"
transform="scale(0.001,-0.001)"/>

<path d="M558,-520c0,0,-210,0,-488,322l54,49c0,0,119,-128,209,-193c0,0,90,-65,177,-65c0,0,72,0,113,40c0,0,42,40,42,91c0,0,0,75,-78,106L469,-288l-90,98l27,37c0,0,-133,64,-213,155c0,0,-80,91,-80,201c0,0,0,101,69,170c0,0,-103,88,-103,179c0,0,0,64,57,110c0,0,57,47,196,47H571V822H0l-45,76l14,31H830l45,-76L862,822H625l66,-58V585H364c0,0,-176,0,-176,-96c0,0,0,-41,44,-76c0,0,81,47,185,47c0,0,135,0,230,-76c0,0,96,-75,96,-187C743,197,743,67,614,2L530,104c0,0,49,30,81,75c0,0,32,44,32,82c0,0,0,16,-4,26c0,0,-65,58,-167,58c0,0,-98,0,-166,-50v-2c0,0,-68,-52,-68,-131c0,0,0,-154,254,-263l53,7c0,0,91,0,156,-70c0,0,66,-70,66,-163c0,0,0,-86,-60,-139c0,0,-61,-54,-149,-54Z"
id="f6_n4"
transform="scale(0.001,-0.001)"/>

<path d="M725,307c0,0,-95,0,-218,78c0,0,-123,78,-188,78c0,0,-54,0,-95,-34c0,0,-41,-34,-73,-100L93,362c0,0,38,88,101,146c0,0,63,59,148,59c0,0,90,0,214,-78c0,0,124,-79,188,-79c0,0,63,0,106,34c0,0,42,33,85,104l60,-40c0,0,-32,-66,-101,-134c0,0,-70,-67,-169,-67Z"
id="f7_4r"
transform="scale(0.001,-0.001)"/>

<path d="M494,385V878L152,385ZM494,0V262H20V385l498,708H628V385H775V262H628V0Z"
id="f8_o"
transform="scale(0.001,-0.001)"/>


</defs>
</svg>