<?xml version="1.0" encoding="UTF-8" standalone="no"?>
<!DOCTYPE svg PUBLIC "-//W3C//DTD SVG 1.1//EN"
"http://www.w3.org/Graphics/SVG/1.1/DTD/svg11.dtd">
<svg viewBox="0 0 641 910" version="1.1" xmlns="http://www.w3.org/2000/svg" xmlns:xlink="http://www.w3.org/1999/xlink">
<defs>
<clipPath id="c0_42"><path d="M0,909.8V0H641.7V909.8Z"/></clipPath>
<clipPath id="c1_42"><path d="M0,908.6V0H641.7V908.6Z"/></clipPath>
<style type="text/css"><![CDATA[
.g0_42{
fill: #FFFFFF;
}
.g1_42{
}
]]></style>
</defs>
<path d="M0,0H641.7V909.8H0V0Z" class="g0_42"/>
<path d="M0,0H641.7V909.8H0V0Z" class="g0_42"/>
<g clip-path="url(#c0_42)">
<path d="M0,-31842.6H641.7V74602.9H0V-31842.6Z" class="g0_42"/>
</g>
<path d="M0,0H641.7V908.6H0V0Z" class="g0_42"/>
<path d="M19.5,60.7H602.7v1.2H19.5V60.7Z" class="g1_42"/>
<g clip-path="url(#c1_42)">
<path d="M0,61.9H641.7V909.8H0V61.9Z" class="g0_42"/>
<g fill="#000000" >
<use xlink:href="#f5_bp" transform="matrix(14,0,0,14,200.8,96.3)" />
<use xlink:href="#f5_cx" transform="matrix(14,0,0,14,214.4,96.2)" />
<use xlink:href="#f5_bz" transform="matrix(14,0,0,14,225.6,96.3)" />
<use xlink:href="#f5_bt" transform="matrix(14,0,0,14,240.2,96.3)" />
<use xlink:href="#f5_d4" transform="matrix(14,0,0,14,253.2,96.3)" />
<use xlink:href="#f5_by" transform="matrix(14,0,0,14,258.9,96.3)" />
<use xlink:href="#f5_bb" transform="matrix(14,0,0,14,273.9,96.3)" />
<use xlink:href="#f5_c7" transform="matrix(14,0,0,14,288.1,96.3)" />
<use xlink:href="#f5_ct" transform="matrix(14,0,0,14,301.8,96.3)" />
<use xlink:href="#f5_bt" transform="matrix(14,0,0,14,308.3,96.3)" />
<use xlink:href="#f5_ax" transform="matrix(14,0,0,14,327,96.3)" />
<use xlink:href="#f5_b9" transform="matrix(14,0,0,14,339.9,96.3)" />
<use xlink:href="#f5_c7" transform="matrix(14,0,0,14,363,96.3)" />
<use xlink:href="#f5_c1" transform="matrix(14,0,0,14,376.7,96.3)" />
<use xlink:href="#f5_br" transform="matrix(14,0,0,14,386.8,96.3)" />
<use xlink:href="#f5_ct" transform="matrix(14,0,0,14,399.8,96.3)" />
<use xlink:href="#f5_bt" transform="matrix(14,0,0,14,406.3,96.3)" />
<use xlink:href="#f6_bp" transform="matrix(14,0,0,14,180.2,154.7)" />
<use xlink:href="#f6_cw" transform="matrix(14,0,0,14,193.1,154.6)" />
<use xlink:href="#f6_bz" transform="matrix(14,0,0,14,198.2,154.7)" />
<use xlink:href="#f6_bt" transform="matrix(14,0,0,14,211.5,154.7)" />
<use xlink:href="#f6_d4" transform="matrix(14,0,0,14,223.4,154.7)" />
<use xlink:href="#f6_by" transform="matrix(14,0,0,14,228.9,154.7)" />
<use xlink:href="#f6_bb" transform="matrix(14,0,0,14,242.9,154.7)" />
<use xlink:href="#f6_c7" transform="matrix(14,0,0,14,255.5,154.7)" />
<use xlink:href="#f6_ct" transform="matrix(14,0,0,14,267.5,154.7)" />
<use xlink:href="#f6_bt" transform="matrix(14,0,0,14,273.2,154.7)" />
<use xlink:href="#f6_ax" transform="matrix(14,0,0,14,290.5,154.7)" />
<use xlink:href="#f6_b9" transform="matrix(14,0,0,14,302.4,154.7)" />
<use xlink:href="#f6_c7" transform="matrix(14,0,0,14,323.6,154.7)" />
<use xlink:href="#f6_c1" transform="matrix(14,0,0,14,335.7,154.7)" />
<use xlink:href="#f6_br" transform="matrix(14,0,0,14,344,154.7)" />
<use xlink:href="#f6_ct" transform="matrix(14,0,0,14,355.7,154.7)" />
<use xlink:href="#f6_bt" transform="matrix(14,0,0,14,361.3,154.7)" />
<use xlink:href="#f6_am" transform="matrix(14,0,0,14,378.7,154.7)" />
<use xlink:href="#f6_bv" transform="matrix(14,0,0,14,400.2,154.7)" />
<use xlink:href="#f6_cv" transform="matrix(14,0,0,14,412.1,154.7)" />
<use xlink:href="#f6_br" transform="matrix(14,0,0,14,423.3,154.7)" />
<use xlink:href="#f6_d4" transform="matrix(14,0,0,14,434.6,154.7)" />
<use xlink:href="#f6_k" transform="matrix(14,0,0,14,435,154.7)" />
<use xlink:href="#f6_iz" transform="matrix(14,0,0,14,169.9,187.9)" />
<use xlink:href="#f6_ct" transform="matrix(14,0,0,14,192.1,187.9)" />
<use xlink:href="#f6_dj" transform="matrix(14,0,0,14,192.3,188.3)" />
<use xlink:href="#f6_c7" transform="matrix(14,0,0,14,203.4,187.9)" />
<use xlink:href="#f6_cb" transform="matrix(14,0,0,14,215.5,187.9)" />
<use xlink:href="#f6_d4" transform="matrix(14,0,0,14,230.5,187.9)" />
<use xlink:href="#f6_bf" transform="matrix(14,0,0,14,236,187.9)" />
<use xlink:href="#f6_d4" transform="matrix(14,0,0,14,250.4,187.9)" />
<use xlink:href="#f6_bp" transform="matrix(14,0,0,14,257.4,187.9)" />
<use xlink:href="#f6_cx" transform="matrix(14,0,0,14,269.7,187.8)" />
<use xlink:href="#f6_bz" transform="matrix(14,0,0,14,275.4,187.9)" />
<use xlink:href="#f6_bt" transform="matrix(14,0,0,14,288.7,187.9)" />
<use xlink:href="#f6_d4" transform="matrix(14,0,0,14,300.6,187.9)" />
<use xlink:href="#f6_j8" transform="matrix(14,0,0,14,306.1,187.9)" />
<use xlink:href="#f6_ct" transform="matrix(14,0,0,14,325.9,187.9)" />
<use xlink:href="#f6_dj" transform="matrix(14,0,0,14,326.1,188.3)" />
<use xlink:href="#f6_m1" transform="matrix(14,0,0,14,337.2,187.9)" />
<use xlink:href="#f6_bq" transform="matrix(14,0,0,14,346.1,187.9)" />
<use xlink:href="#f6_ct" transform="matrix(14,0,0,14,359.3,187.9)" />
<use xlink:href="#f6_bt" transform="matrix(14,0,0,14,364.9,187.9)" />
<use xlink:href="#f6_am" transform="matrix(14,0,0,14,382.3,187.9)" />
<use xlink:href="#f6_bv" transform="matrix(14,0,0,14,403.8,187.9)" />
<use xlink:href="#f6_cv" transform="matrix(14,0,0,14,415.6,187.9)" />
<use xlink:href="#f6_br" transform="matrix(14,0,0,14,426.9,187.9)" />
<use xlink:href="#f6_d4" transform="matrix(14,0,0,14,438.1,187.9)" />
<use xlink:href="#f6_pc" transform="matrix(14,0,0,14,438.6,187.9)" />
<use xlink:href="#f6_pc" transform="matrix(14,0,0,14,442.8,187.9)" />
<use xlink:href="#f6_pc" transform="matrix(14,0,0,14,447.1,187.9)" />
<use xlink:href="#f6_pc" transform="matrix(14,0,0,14,269.6,221.1)" />
<use xlink:href="#f6_pc" transform="matrix(14,0,0,14,273.9,221.1)" />
<use xlink:href="#f6_pc" transform="matrix(14,0,0,14,278.1,221.1)" />
<use xlink:href="#f6_al" transform="matrix(14,0,0,14,282.4,221.1)" />
<use xlink:href="#f6_li" transform="matrix(14,0,0,14,298.3,221.1)" />
<use xlink:href="#f6_bp" transform="matrix(14,0,0,14,304.5,221.1)" />
<use xlink:href="#f6_c1" transform="matrix(14,0,0,14,316.8,221.1)" />
<use xlink:href="#f6_ct" transform="matrix(14,0,0,14,325.2,221.1)" />
<use xlink:href="#f6_8l" transform="matrix(14,0,0,14,330.8,221.1)" />
<use xlink:href="#f6_cc" transform="matrix(14,0,0,14,166.4,279.6)" />
<use xlink:href="#f6_p3" transform="matrix(14,0,0,14,178.4,279.6)" />
<use xlink:href="#f6_bg" transform="matrix(14,0,0,14,183.7,279.6)" />
<use xlink:href="#f6_cv" transform="matrix(14,0,0,14,198,279.6)" />
<use xlink:href="#f6_c0" transform="matrix(14,0,0,14,203.6,279.6)" />
<use xlink:href="#f6_cw" transform="matrix(14,0,0,14,216.7,279.5)" />
<use xlink:href="#f6_bf" transform="matrix(14,0,0,14,221.8,279.6)" />
<use xlink:href="#f6_cx" transform="matrix(14,0,0,14,233.7,280.2)" />
<use xlink:href="#f6_ay" transform="matrix(14,0,0,14,243.2,279.6)" />
<use xlink:href="#f6_bg" transform="matrix(14,0,0,14,260.7,279.6)" />
<use xlink:href="#f6_bb" transform="matrix(14,0,0,14,275,279.6)" />
<use xlink:href="#f6_bp" transform="matrix(14,0,0,14,287.6,279.6)" />
<use xlink:href="#f6_bz" transform="matrix(14,0,0,14,305.6,279.6)" />
<use xlink:href="#f6_ct" transform="matrix(14,0,0,14,318.9,279.6)" />
<use xlink:href="#f6_dj" transform="matrix(14,0,0,14,319.1,280)" />
<use xlink:href="#f6_k" transform="matrix(14,0,0,14,324.5,279.6)" />
<use xlink:href="#f6_iz" transform="matrix(14,0,0,14,335.4,279.6)" />
<use xlink:href="#f6_ct" transform="matrix(14,0,0,14,357.6,279.6)" />
<use xlink:href="#f6_dj" transform="matrix(14,0,0,14,357.9,280)" />
<use xlink:href="#f6_bt" transform="matrix(14,0,0,14,368.9,279.6)" />
<use xlink:href="#f6_no" transform="matrix(14,0,0,14,380.6,279.6)" />
<use xlink:href="#f6_bq" transform="matrix(14,0,0,14,380.6,279.6)" />
<use xlink:href="#f6_cv" transform="matrix(14,0,0,14,393.8,279.6)" />
<use xlink:href="#f6_bg" transform="matrix(14,0,0,14,405.1,279.6)" />
<use xlink:href="#f6_cv" transform="matrix(14,0,0,14,419.4,279.6)" />
<use xlink:href="#f6_c7" transform="matrix(14,0,0,14,425,279.6)" />
<use xlink:href="#f6_bt" transform="matrix(14,0,0,14,437.1,279.6)" />
<use xlink:href="#f6_k" transform="matrix(14,0,0,14,448.8,279.6)" />
<use xlink:href="#f6_nu" transform="matrix(14,0,0,14,169.9,312.8)" />
<use xlink:href="#f6_bg" transform="matrix(14,0,0,14,175.5,312.8)" />
<use xlink:href="#f6_lj" transform="matrix(14,0,0,14,189.8,312.8)" />
<use xlink:href="#f6_br" transform="matrix(14,0,0,14,195.6,312.8)" />
<use xlink:href="#f6_bb" transform="matrix(14,0,0,14,207.2,312.8)" />
<use xlink:href="#f6_cv" transform="matrix(14,0,0,14,219.8,312.8)" />
<use xlink:href="#f6_bp" transform="matrix(14,0,0,14,231.1,312.8)" />
<use xlink:href="#f6_cw" transform="matrix(14,0,0,14,244,312.7)" />
<use xlink:href="#f6_dj" transform="matrix(14,0,0,14,240.6,313.2)" />
<use xlink:href="#f6_bt" transform="matrix(14,0,0,14,249.1,312.8)" />
<use xlink:href="#f6_ct" transform="matrix(14,0,0,14,260.8,312.8)" />
<use xlink:href="#f6_bz" transform="matrix(14,0,0,14,266.4,312.8)" />
<use xlink:href="#f6_bf" transform="matrix(14,0,0,14,285.5,312.8)" />
<use xlink:href="#f6_d4" transform="matrix(14,0,0,14,299.9,312.8)" />
<use xlink:href="#f6_k" transform="matrix(14,0,0,14,301.2,312.8)" />
<use xlink:href="#f6_bx" transform="matrix(14,0,0,14,312,312.8)" />
<use xlink:href="#f6_cb" transform="matrix(14,0,0,14,324.3,312.8)" />
<use xlink:href="#f6_bx" transform="matrix(14,0,0,14,344.9,312.8)" />
<use xlink:href="#f6_d8" transform="matrix(14,0,0,14,357.2,312.8)" />
<use xlink:href="#f6_bh" transform="matrix(14,0,0,14,362.8,312.8)" />
<use xlink:href="#f6_bt" transform="matrix(14,0,0,14,385.2,312.8)" />
<use xlink:href="#f6_d4" transform="matrix(14,0,0,14,397.1,312.8)" />
<use xlink:href="#f6_bx" transform="matrix(14,0,0,14,402.6,312.8)" />
<use xlink:href="#f6_ji" transform="matrix(14,0,0,14,414.9,312.8)" />
<use xlink:href="#f6_bt" transform="matrix(14,0,0,14,433.5,312.8)" />
<use xlink:href="#f6_k" transform="matrix(14,0,0,14,445.2,312.8)" />
<use xlink:href="#f6_am" transform="matrix(14,0,0,14,187.1,346)" />
<use xlink:href="#f6_ba" transform="matrix(14,0,0,14,208.6,346)" />
<use xlink:href="#f6_c1" transform="matrix(14,0,0,14,225.3,346)" />
<use xlink:href="#f6_cv" transform="matrix(14,0,0,14,233.7,346)" />
<use xlink:href="#f6_al" transform="matrix(14,0,0,14,244.9,346)" />
<use xlink:href="#f6_c7" transform="matrix(14,0,0,14,260.8,346)" />
<use xlink:href="#f6_bp" transform="matrix(14,0,0,14,272.9,346)" />
<use xlink:href="#f6_ct" transform="matrix(14,0,0,14,285.2,346)" />
<use xlink:href="#f6_c1" transform="matrix(14,0,0,14,290.8,346)" />
<use xlink:href="#f6_bt" transform="matrix(14,0,0,14,304.9,346)" />
<use xlink:href="#f6_cw" transform="matrix(14,0,0,14,317.1,345.9)" />
<use xlink:href="#f6_dj" transform="matrix(14,0,0,14,313.7,346.5)" />
<use xlink:href="#f6_bz" transform="matrix(14,0,0,14,322.2,346)" />
<use xlink:href="#f6_dj" transform="matrix(14,0,0,14,329.7,346.5)" />
<use xlink:href="#f6_bm" transform="matrix(14,0,0,14,335.6,346)" />
<use xlink:href="#f6_ct" transform="matrix(14,0,0,14,348.3,346)" />
<use xlink:href="#f6_bo" transform="matrix(14,0,0,14,353.9,346)" />
<use xlink:href="#f6_bz" transform="matrix(14,0,0,14,373.9,346)" />
<use xlink:href="#f6_ct" transform="matrix(14,0,0,14,387.2,346)" />
<use xlink:href="#f6_dj" transform="matrix(14,0,0,14,387.5,346.5)" />
<use xlink:href="#f6_bm" transform="matrix(14,0,0,14,392.9,346)" />
<use xlink:href="#f6_cv" transform="matrix(14,0,0,14,405.5,346)" />
<use xlink:href="#f6_br" transform="matrix(14,0,0,14,416.8,346)" />
<use xlink:href="#f6_d4" transform="matrix(14,0,0,14,428.1,346)" />
<use xlink:href="#f6_k" transform="matrix(14,0,0,14,428.5,346)" />
<use xlink:href="#f6_iz" transform="matrix(14,0,0,14,234.1,379.3)" />
<use xlink:href="#f6_ct" transform="matrix(14,0,0,14,256.3,379.3)" />
<use xlink:href="#f6_dj" transform="matrix(14,0,0,14,256.5,379.7)" />
<use xlink:href="#f6_c7" transform="matrix(14,0,0,14,267.6,379.3)" />
<use xlink:href="#f6_cb" transform="matrix(14,0,0,14,279.7,379.3)" />
<use xlink:href="#f6_d4" transform="matrix(14,0,0,14,294.7,379.3)" />
<use xlink:href="#f6_bf" transform="matrix(14,0,0,14,300.2,379.3)" />
<use xlink:href="#f6_d4" transform="matrix(14,0,0,14,314.6,379.3)" />
<use xlink:href="#f6_bp" transform="matrix(14,0,0,14,321.6,379.3)" />
<use xlink:href="#f6_cx" transform="matrix(14,0,0,14,333.8,379.2)" />
<use xlink:href="#f6_bz" transform="matrix(14,0,0,14,339.5,379.3)" />
<use xlink:href="#f6_bt" transform="matrix(14,0,0,14,352.9,379.3)" />
<use xlink:href="#f6_d4" transform="matrix(14,0,0,14,364.7,379.3)" />
<use xlink:href="#f6_pc" transform="matrix(14,0,0,14,364.6,379.3)" />
<use xlink:href="#f6_pc" transform="matrix(14,0,0,14,368.9,379.3)" />
<use xlink:href="#f6_pc" transform="matrix(14,0,0,14,373.2,379.3)" />
<use xlink:href="#f6_p" transform="matrix(14,0,0,14,377.4,379.3)" />
<use xlink:href="#f6_am" transform="matrix(14,0,0,14,168.7,437.7)" />
<use xlink:href="#f6_by" transform="matrix(14,0,0,14,195.9,437.7)" />
<use xlink:href="#f6_cx" transform="matrix(14,0,0,14,209.8,437.6)" />
<use xlink:href="#f6_bz" transform="matrix(14,0,0,14,209.8,437.7)" />
<use xlink:href="#f6_cv" transform="matrix(14,0,0,14,223.2,437.7)" />
<use xlink:href="#f6_bz" transform="matrix(14,0,0,14,234.5,437.7)" />
<use xlink:href="#f6_ct" transform="matrix(14,0,0,14,247.8,437.7)" />
<use xlink:href="#f6_dj" transform="matrix(14,0,0,14,248,438.1)" />
<use xlink:href="#f6_ba" transform="matrix(14,0,0,14,259.1,437.7)" />
<use xlink:href="#f6_cx" transform="matrix(14,0,0,14,275.8,438.6)" />
<use xlink:href="#f6_bx" transform="matrix(14,0,0,14,275.8,437.7)" />
<use xlink:href="#f6_bb" transform="matrix(14,0,0,14,293.8,437.7)" />
<use xlink:href="#f6_ct" transform="matrix(14,0,0,14,306.4,437.7)" />
<use xlink:href="#f6_bg" transform="matrix(14,0,0,14,312,437.7)" />
<use xlink:href="#f6_d4" transform="matrix(14,0,0,14,326.4,437.7)" />
<use xlink:href="#f6_k" transform="matrix(14,0,0,14,326.3,437.7)" />
<use xlink:href="#f6_bv" transform="matrix(14,0,0,14,337.1,437.7)" />
<use xlink:href="#f6_ct" transform="matrix(14,0,0,14,349,437.7)" />
<use xlink:href="#f6_bv" transform="matrix(14,0,0,14,354.6,437.7)" />
<use xlink:href="#f6_bt" transform="matrix(14,0,0,14,372.2,437.7)" />
<use xlink:href="#f6_ct" transform="matrix(14,0,0,14,383.9,437.7)" />
<use xlink:href="#f6_bv" transform="matrix(14,0,0,14,395.2,437.7)" />
<use xlink:href="#f6_bm" transform="matrix(14,0,0,14,407,437.7)" />
<use xlink:href="#f6_bc" transform="matrix(14,0,0,14,419.7,437.7)" />
<use xlink:href="#f6_bz" transform="matrix(14,0,0,14,433.6,437.7)" />
<use xlink:href="#f6_k" transform="matrix(14,0,0,14,446.9,437.7)" />
<use xlink:href="#f6_bx" transform="matrix(14,0,0,14,173.3,470.9)" />
<use xlink:href="#f6_d4" transform="matrix(14,0,0,14,185.7,470.9)" />
<use xlink:href="#f6_cb" transform="matrix(14,0,0,14,185.6,470.9)" />
<use xlink:href="#f6_cx" transform="matrix(14,0,0,14,200.5,470.9)" />
<use xlink:href="#f6_c1" transform="matrix(14,0,0,14,200.5,470.9)" />
<use xlink:href="#f6_cv" transform="matrix(14,0,0,14,208.9,470.9)" />
<use xlink:href="#f6_bq" transform="matrix(14,0,0,14,220.2,470.9)" />
<use xlink:href="#f6_ao" transform="matrix(14,0,0,14,233.4,470.9)" />
<use xlink:href="#f6_bg" transform="matrix(14,0,0,14,250.5,470.9)" />
<use xlink:href="#f6_ct" transform="matrix(14,0,0,14,264.8,470.9)" />
<use xlink:href="#f6_c0" transform="matrix(14,0,0,14,270.4,470.9)" />
<use xlink:href="#f6_bz" transform="matrix(14,0,0,14,288.6,470.9)" />
<use xlink:href="#f6_ct" transform="matrix(14,0,0,14,302,470.9)" />
<use xlink:href="#f6_c1" transform="matrix(14,0,0,14,307.6,470.9)" />
<use xlink:href="#f6_cv" transform="matrix(14,0,0,14,316,470.9)" />
<use xlink:href="#f6_k" transform="matrix(14,0,0,14,321.6,470.9)" />
<use xlink:href="#f6_bv" transform="matrix(14,0,0,14,332.5,470.9)" />
<use xlink:href="#f6_cw" transform="matrix(14,0,0,14,344.9,470.8)" />
<use xlink:href="#f6_lc" transform="matrix(14,0,0,14,344.3,470.9)" />
<use xlink:href="#f6_c0" transform="matrix(14,0,0,14,352.9,470.9)" />
<use xlink:href="#f6_bt" transform="matrix(14,0,0,14,371.1,470.9)" />
<use xlink:href="#f6_cv" transform="matrix(14,0,0,14,382.8,470.9)" />
<use xlink:href="#f6_cb" transform="matrix(14,0,0,14,394.1,470.9)" />
<use xlink:href="#f6_c1" transform="matrix(14,0,0,14,409,470.9)" />
<use xlink:href="#f6_bb" transform="matrix(14,0,0,14,417.4,470.9)" />
<use xlink:href="#f6_bz" transform="matrix(14,0,0,14,430,470.9)" />
<use xlink:href="#f6_k" transform="matrix(14,0,0,14,443.3,470.9)" />
<use xlink:href="#f6_cu" transform="matrix(14,0,0,14,183.6,504.2)" />
<use xlink:href="#f6_br" transform="matrix(14,0,0,14,189.3,504.2)" />
<use xlink:href="#f6_c3" transform="matrix(14,0,0,14,200.9,504.2)" />
<use xlink:href="#f6_n0" transform="matrix(14,0,0,14,215.6,504.2)" />
<use xlink:href="#f6_bx" transform="matrix(14,0,0,14,228.8,504.2)" />
<use xlink:href="#f6_ct" transform="matrix(14,0,0,14,241.1,504.2)" />
<use xlink:href="#f6_bt" transform="matrix(14,0,0,14,252.4,504.2)" />
<use xlink:href="#f6_ct" transform="matrix(14,0,0,14,264.1,504.2)" />
<use xlink:href="#f6_bp" transform="matrix(14,0,0,14,275.4,504.2)" />
<use xlink:href="#f6_ct" transform="matrix(14,0,0,14,287.7,504.2)" />
<use xlink:href="#f6_c1" transform="matrix(14,0,0,14,293.3,504.2)" />
<use xlink:href="#f6_bt" transform="matrix(14,0,0,14,307.3,504.2)" />
<use xlink:href="#f6_cw" transform="matrix(14,0,0,14,319.6,504.1)" />
<use xlink:href="#f6_dj" transform="matrix(14,0,0,14,316.2,504.6)" />
<use xlink:href="#f6_bx" transform="matrix(14,0,0,14,324.7,504.2)" />
<use xlink:href="#f6_dj" transform="matrix(14,0,0,14,334.1,504.6)" />
<use xlink:href="#f6_bs" transform="matrix(14,0,0,14,337,504.2)" />
<use xlink:href="#f6_ct" transform="matrix(14,0,0,14,351,504.2)" />
<use xlink:href="#f6_bt" transform="matrix(14,0,0,14,356.6,504.2)" />
<use xlink:href="#f6_cb" transform="matrix(14,0,0,14,374,504.2)" />
<use xlink:href="#f6_ct" transform="matrix(14,0,0,14,388.9,504.2)" />
<use xlink:href="#f6_dj" transform="matrix(14,0,0,14,389.1,504.6)" />
<use xlink:href="#f6_bs" transform="matrix(14,0,0,14,394.5,504.2)" />
<use xlink:href="#f6_cv" transform="matrix(14,0,0,14,408.5,504.2)" />
<use xlink:href="#f6_br" transform="matrix(14,0,0,14,419.8,504.2)" />
<use xlink:href="#f6_d4" transform="matrix(14,0,0,14,431,504.2)" />
<use xlink:href="#f6_k" transform="matrix(14,0,0,14,431.5,504.2)" />
<use xlink:href="#f6_iz" transform="matrix(14,0,0,14,232.9,537.4)" />
<use xlink:href="#f6_ct" transform="matrix(14,0,0,14,255.1,537.4)" />
<use xlink:href="#f6_dj" transform="matrix(14,0,0,14,255.4,537.8)" />
<use xlink:href="#f6_c7" transform="matrix(14,0,0,14,266.4,537.4)" />
<use xlink:href="#f6_cb" transform="matrix(14,0,0,14,278.5,537.4)" />
<use xlink:href="#f6_d4" transform="matrix(14,0,0,14,293.5,537.4)" />
<use xlink:href="#f6_bf" transform="matrix(14,0,0,14,299,537.4)" />
<use xlink:href="#f6_d4" transform="matrix(14,0,0,14,313.5,537.4)" />
<use xlink:href="#f6_bp" transform="matrix(14,0,0,14,320.4,537.4)" />
<use xlink:href="#f6_cx" transform="matrix(14,0,0,14,332.7,537.3)" />
<use xlink:href="#f6_bz" transform="matrix(14,0,0,14,338.4,537.4)" />
<use xlink:href="#f6_bt" transform="matrix(14,0,0,14,351.7,537.4)" />
<use xlink:href="#f6_d4" transform="matrix(14,0,0,14,363.6,537.4)" />
<use xlink:href="#f6_pc" transform="matrix(14,0,0,14,363.5,537.4)" />
<use xlink:href="#f6_pc" transform="matrix(14,0,0,14,367.7,537.4)" />
<use xlink:href="#f6_pc" transform="matrix(14,0,0,14,372,537.4)" />
<use xlink:href="#f6_q" transform="matrix(14,0,0,14,376.3,537.4)" />
<use xlink:href="#f6_bg" transform="matrix(14,0,0,14,157.3,595.8)" />
<use xlink:href="#f6_d8" transform="matrix(14,0,0,14,171.5,595.8)" />
<use xlink:href="#f6_bz" transform="matrix(14,0,0,14,177.2,595.8)" />
<use xlink:href="#f6_bp" transform="matrix(14,0,0,14,196.2,595.8)" />
<use xlink:href="#f6_bt" transform="matrix(14,0,0,14,208.5,595.8)" />
<use xlink:href="#f6_bz" transform="matrix(14,0,0,14,225.9,595.8)" />
<use xlink:href="#f6_ct" transform="matrix(14,0,0,14,239.2,595.8)" />
<use xlink:href="#f6_dj" transform="matrix(14,0,0,14,239.4,596.3)" />
<use xlink:href="#f6_iz" transform="matrix(14,0,0,14,250.5,595.8)" />
<use xlink:href="#f6_ct" transform="matrix(14,0,0,14,272.7,595.8)" />
<use xlink:href="#f6_dj" transform="matrix(14,0,0,14,272.9,596.3)" />
<use xlink:href="#f6_c3" transform="matrix(14,0,0,14,284,595.8)" />
<use xlink:href="#f6_bb" transform="matrix(14,0,0,14,298.7,595.8)" />
<use xlink:href="#f6_cv" transform="matrix(14,0,0,14,311.3,595.8)" />
<use xlink:href="#f6_bf" transform="matrix(14,0,0,14,322.6,595.8)" />
<use xlink:href="#f6_d4" transform="matrix(14,0,0,14,337,595.8)" />
<use xlink:href="#f6_k" transform="matrix(14,0,0,14,338.3,595.8)" />
<use xlink:href="#f6_cb" transform="matrix(14,0,0,14,349.2,595.8)" />
<use xlink:href="#f6_n4" transform="matrix(14,0,0,14,364.1,595.8)" />
<use xlink:href="#f6_b9" transform="matrix(14,0,0,14,381.4,595.8)" />
<use xlink:href="#f6_c1" transform="matrix(14,0,0,14,396.9,595.8)" />
<use xlink:href="#f6_d4" transform="matrix(14,0,0,14,404.8,595.8)" />
<use xlink:href="#f6_c8" transform="matrix(14,0,0,14,410.9,595.8)" />
<use xlink:href="#f6_d8" transform="matrix(14,0,0,14,426.8,595.8)" />
<use xlink:href="#f6_ca" transform="matrix(14,0,0,14,432.4,595.8)" />
<use xlink:href="#f6_bo" transform="matrix(14,0,0,14,444.7,595.8)" />
<use xlink:href="#f6_k" transform="matrix(14,0,0,14,459,595.8)" />
<use xlink:href="#f6_bg" transform="matrix(14,0,0,14,168.7,629.1)" />
<use xlink:href="#f6_d8" transform="matrix(14,0,0,14,183,629.1)" />
<use xlink:href="#f6_bz" transform="matrix(14,0,0,14,188.6,629.1)" />
<use xlink:href="#f6_bg" transform="matrix(14,0,0,14,207.6,629.1)" />
<use xlink:href="#f6_ct" transform="matrix(14,0,0,14,221.9,629.1)" />
<use xlink:href="#f6_bp" transform="matrix(14,0,0,14,227.5,629.1)" />
<use xlink:href="#f6_ct" transform="matrix(14,0,0,14,239.8,629.1)" />
<use xlink:href="#f6_b9" transform="matrix(14,0,0,14,251.1,629.1)" />
<use xlink:href="#f6_d8" transform="matrix(14,0,0,14,266.6,629.1)" />
<use xlink:href="#f6_ao" transform="matrix(14,0,0,14,272.2,629.1)" />
<use xlink:href="#f6_al" transform="matrix(14,0,0,14,289.4,629.1)" />
<use xlink:href="#f6_cu" transform="matrix(14,0,0,14,305.3,629.1)" />
<use xlink:href="#f6_ol" transform="matrix(14,0,0,14,319.3,628.7)" />
<use xlink:href="#f6_cc" transform="matrix(14,0,0,14,310.9,629.1)" />
<use xlink:href="#f6_c0" transform="matrix(14,0,0,14,322.5,629.1)" />
<use xlink:href="#f6_ct" transform="matrix(14,0,0,14,335,629.1)" />
<use xlink:href="#f6_k" transform="matrix(14,0,0,14,340.7,629.1)" />
<use xlink:href="#f6_bt" transform="matrix(14,0,0,14,351.5,629.1)" />
<use xlink:href="#f6_ct" transform="matrix(14,0,0,14,363.3,629.1)" />
<use xlink:href="#f6_b9" transform="matrix(14,0,0,14,374.5,629.1)" />
<use xlink:href="#f6_c1" transform="matrix(14,0,0,14,390,629.1)" />
<use xlink:href="#f6_d4" transform="matrix(14,0,0,14,398,629.1)" />
<use xlink:href="#f6_bv" transform="matrix(14,0,0,14,404.1,629.1)" />
<use xlink:href="#f6_d8" transform="matrix(14,0,0,14,415.9,629.1)" />
<use xlink:href="#f6_ca" transform="matrix(14,0,0,14,421.6,629.1)" />
<use xlink:href="#f6_bo" transform="matrix(14,0,0,14,433.9,629.1)" />
<use xlink:href="#f6_k" transform="matrix(14,0,0,14,448.2,629.1)" />
<use xlink:href="#f6_bz" transform="matrix(14,0,0,14,187.1,662.3)" />
<use xlink:href="#f6_bp" transform="matrix(14,0,0,14,200.4,662.3)" />
<use xlink:href="#f6_c3" transform="matrix(14,0,0,14,212.7,662.3)" />
<use xlink:href="#f6_bx" transform="matrix(14,0,0,14,227.4,662.3)" />
<use xlink:href="#f6_cv" transform="matrix(14,0,0,14,239.7,662.3)" />
<use xlink:href="#f6_cb" transform="matrix(14,0,0,14,251,662.3)" />
<use xlink:href="#f6_dj" transform="matrix(14,0,0,14,259.6,662.7)" />
<use xlink:href="#f6_cb" transform="matrix(14,0,0,14,265.9,662.3)" />
<use xlink:href="#f6_ct" transform="matrix(14,0,0,14,280.8,662.3)" />
<use xlink:href="#f6_c1" transform="matrix(14,0,0,14,286.4,662.3)" />
<use xlink:href="#f6_bt" transform="matrix(14,0,0,14,300.4,662.3)" />
<use xlink:href="#f6_cw" transform="matrix(14,0,0,14,312.7,662.2)" />
<use xlink:href="#f6_dj" transform="matrix(14,0,0,14,309.3,662.7)" />
<use xlink:href="#f6_bg" transform="matrix(14,0,0,14,317.8,662.3)" />
<use xlink:href="#f6_d8" transform="matrix(14,0,0,14,332.1,662.3)" />
<use xlink:href="#f6_ch" transform="matrix(14,0,0,14,337.7,662.3)" />
<use xlink:href="#f6_ct" transform="matrix(14,0,0,14,350.4,662.3)" />
<use xlink:href="#f6_bt" transform="matrix(14,0,0,14,356,662.3)" />
<use xlink:href="#f6_b9" transform="matrix(14,0,0,14,373.4,662.3)" />
<use xlink:href="#f6_ct" transform="matrix(14,0,0,14,388.9,662.3)" />
<use xlink:href="#f6_bv" transform="matrix(14,0,0,14,394.5,662.3)" />
<use xlink:href="#f6_cv" transform="matrix(14,0,0,14,406.4,662.3)" />
<use xlink:href="#f6_br" transform="matrix(14,0,0,14,417.6,662.3)" />
<use xlink:href="#f6_d4" transform="matrix(14,0,0,14,428.9,662.3)" />
<use xlink:href="#f6_k" transform="matrix(14,0,0,14,429.3,662.3)" />
<use xlink:href="#f6_iz" transform="matrix(14,0,0,14,232.9,695.5)" />
<use xlink:href="#f6_ct" transform="matrix(14,0,0,14,255.1,695.5)" />
<use xlink:href="#f6_c7" transform="matrix(14,0,0,14,266.4,695.5)" />
<use xlink:href="#f6_cb" transform="matrix(14,0,0,14,278.5,695.5)" />
<use xlink:href="#f6_d4" transform="matrix(14,0,0,14,293.5,695.5)" />
<use xlink:href="#f6_bf" transform="matrix(14,0,0,14,299,695.5)" />
<use xlink:href="#f6_d4" transform="matrix(14,0,0,14,313.5,695.5)" />
<use xlink:href="#f6_bp" transform="matrix(14,0,0,14,320.4,695.5)" />
<use xlink:href="#f6_cw" transform="matrix(14,0,0,14,333.3,695.4)" />
<use xlink:href="#f6_bz" transform="matrix(14,0,0,14,338.4,695.5)" />
<use xlink:href="#f6_bt" transform="matrix(14,0,0,14,351.7,695.5)" />
<use xlink:href="#f6_d4" transform="matrix(14,0,0,14,363.6,695.5)" />
<use xlink:href="#f6_pc" transform="matrix(14,0,0,14,363.5,695.5)" />
<use xlink:href="#f6_pc" transform="matrix(14,0,0,14,367.7,695.5)" />
<use xlink:href="#f6_pc" transform="matrix(14,0,0,14,372,695.5)" />
<use xlink:href="#f6_r" transform="matrix(14,0,0,14,376.3,695.5)" />
<use xlink:href="#f7_4r" transform="matrix(9,0,0,9,290.2,795.2)" />
<use xlink:href="#f8_n" transform="matrix(9,0,0,9,303,795.2)" />
<use xlink:href="#f8_q" transform="matrix(9,0,0,9,310.7,795.2)" />
<use xlink:href="#f7_4r" transform="matrix(9,0,0,9,321.3,795.2)" />
</g>
</g>
<image preserveAspectRatio="none" x="22" y="801" width="581" height="86" xlink:href="img/1.png"/>
<path d="M201.7,97.4H420.5v1.1H201.7V97.4Z" class="g1_42"/>
<image preserveAspectRatio="none" x="202" y="14" width="217" height="26" xlink:href="img/2.png"/>
<defs>
<path d="M342,-69c0,0,-146,139,-224,256c0,0,-78,117,-78,226c0,0,0,120,90,193c0,0,90,72,243,72H599V822H0L-86,937l32,64H959l86,-115l-32,-64H741L843,749V-31L773,-65L599,29V445H448c0,0,-81,0,-123,-34c0,0,-42,-34,-42,-90c0,0,0,-54,43,-118c0,0,44,-64,143,-163L342,-69Z"
id="f5_bp"
transform="scale(0.001,-0.001)"/>

<path d="M102,-509L-71,-274c0,0,-93,116,-185,116c0,0,-61,0,-102,-39c0,0,-41,-39,-41,-89c0,0,0,-32,20,-52l171,105L-85,-389c0,0,-88,-94,-195,-94c0,0,-113,0,-206,86c0,0,-94,86,-94,196c0,0,0,101,81,174c0,0,80,71,193,71c0,0,174,0,338,-206c0,0,60,-74,182,-254L102,-509Z"
id="f5_cx"
transform="scale(0.001,-0.001)"/>

<path d="M686,512V822H333L435,749l2,-237ZM860,-65L686,29V298H440V168L348,118c0,0,-90,30,-190,128c0,0,-100,98,-127,183l52,83H203L189,822H0L-86,937l32,64H1045l86,-115l-33,-64H828L930,749V-31L860,-65Z"
id="f5_bz"
transform="scale(0.001,-0.001)"/>

<path d="M746,-65L571,29V419H376V260L275,212c0,0,-87,48,-160,148c0,0,-72,100,-91,193l57,84H571V822H0L-86,937l32,64H930l88,-115L985,822H713L816,749V-31L746,-65Z"
id="f5_bt"
transform="scale(0.001,-0.001)"/>

<path d="M-289,908l-132,216c0,0,-70,120,-169,120c0,0,-83,0,-200,-80l-130,249c0,0,125,78,234,78c0,0,187,0,349,-241L-159,969L-289,908Z"
id="f5_d4"
transform="scale(0.001,-0.001)"/>

<path d="M874,-65L700,29V309H513V173L422,122c0,0,-90,31,-191,129c0,0,-100,97,-127,184l52,81H277l-2,240c0,0,0,77,-26,109c0,0,-1,0,-2,0c-8,0,-44,-1,-70,-22c0,0,-29,-24,-29,-61c0,0,0,-53,64,-101L125,610c0,0,-174,117,-174,238c0,0,0,78,57,133c0,0,59,55,146,55c0,0,132,0,244,-112c0,0,112,-113,112,-246V516H700V822H655L570,937l32,64h458l86,-115l-32,-64H842L944,749V-31L874,-65Z"
id="f5_by"
transform="scale(0.001,-0.001)"/>

<path d="M831,-65L657,29V822H332L434,749V200L341,150c0,0,-93,32,-190,121c0,0,-96,90,-125,175l52,83H196l-5,293H0L-86,937l32,64H1016l86,-115l-33,-64H799L901,749V-31L831,-65Z"
id="f5_bb"
transform="scale(0.001,-0.001)"/>

<path d="M371,296c0,0,71,0,139,34c0,0,69,34,109,92v90c0,0,-72,36,-148,36c0,0,-84,0,-131,-47c0,0,-47,-47,-47,-111c0,0,0,-49,28,-89l50,-5ZM793,-65L619,29V134c0,0,-55,-27,-122,-27c0,0,-98,0,-207,48c0,0,-108,48,-182,132c0,0,-73,84,-73,188c0,0,0,113,83,191c0,0,84,78,212,78c0,0,41,0,84,-9L619,643V822H0L-86,937l32,64H978l85,-115l-32,-64H761L863,749V-31L793,-65Z"
id="f5_c7"
transform="scale(0.001,-0.001)"/>

<path d="M277,-65L102,29V822H0L-86,937l32,64H463L548,886L516,822H244L347,749V-31L277,-65Z"
id="f5_ct"
transform="scale(0.001,-0.001)"/>

<path d="M888,-349l-222,99c0,0,46,62,46,101c0,0,0,51,-79,93L336,87C336,87,75,214,75,457V822H0L-86,937l32,64H923l85,-115L976,822H729L831,749V519c0,0,0,-132,-46,-208c0,0,-47,-76,-178,-132L489,341l98,75V822H220L322,749V272L680,99c0,0,157,-78,219,-138c0,0,62,-62,62,-139c0,0,0,-98,-73,-171Z"
id="f5_ax"
transform="scale(0.001,-0.001)"/>

<path d="M300,310c13,0,56,2,103,25c0,0,58,27,100,81V523c0,0,-46,16,-83,16c0,0,-69,0,-111,-45c0,0,-42,-45,-42,-104c0,0,0,-45,28,-80c0,0,2,0,5,0ZM677,-65L503,29V144c0,0,-32,-11,-75,-11c0,0,-147,0,-272,98c0,0,-125,99,-125,233c0,0,0,110,75,185c0,0,76,74,195,74l67,-6L503,646V822H0L-86,937l32,64H1245l86,-115l-32,-64H645L747,749V622c0,0,81,58,165,58c0,0,122,0,213,-99c0,0,91,-98,91,-230c0,0,0,-204,-253,-371L791,157c0,0,110,83,164,139c0,0,53,55,53,106c0,0,0,55,-53,55c0,0,-83,0,-208,-145V-31L677,-65Z"
id="f5_b9"
transform="scale(0.001,-0.001)"/>

<path d="M545,-97L35,405L87,542H295c0,0,1,5,1,280H0L-86,937l32,64H729L814,886L782,822H445L550,749V547c0,0,0,-75,-41,-127c0,0,-41,-52,-129,-111L709,110V41L545,-97Z"
id="f5_c1"
transform="scale(0.001,-0.001)"/>

<path d="M700,-327L637,-39c0,0,-43,-9,-85,-9c0,0,-109,0,-228,58c0,0,-119,59,-199,160c0,0,-79,102,-79,220c0,0,0,134,95,216c0,0,94,82,252,85H516V822H0L-86,937l32,64H929l85,-115L982,822H645L747,749V468l2,-4H478c0,0,-98,0,-148,-45c0,0,-50,-46,-50,-110c0,0,0,-68,53,-121c0,0,46,-20,99,-20c0,0,74,0,141,35L555,332l154,56L897,154C897,154,862,87,785,34L933,-233L700,-327Z"
id="f5_br"
transform="scale(0.001,-0.001)"/>

<path d="M347,-57C347,-57,66,211,66,394c0,0,0,98,74,164c0,0,74,65,225,65H616V822H0l-45,76l14,31H880l46,-76L912,822H677l66,-58V-39L706,-49L616,8V500H428c0,0,-239,0,-239,-161c0,0,0,-136,214,-343L347,-57Z"
id="f6_bp"
transform="scale(0.001,-0.001)"/>

<path d="M-234,-413c0,0,-210,0,-488,322l54,49c0,0,119,-128,209,-193c0,0,90,-65,177,-65c0,0,72,0,113,40c0,0,42,39,42,91c0,0,0,75,-78,106L-323,-181l-90,98c0,0,63,95,167,95c0,0,90,0,155,-69c0,0,66,-70,66,-164c0,0,0,-85,-60,-139c0,0,-61,-53,-149,-53Z"
id="f6_cw"
transform="scale(0.001,-0.001)"/>

<path d="M689,445V822H286l65,-58l8,-319ZM779,-49L689,8V328H370V180L296,150c0,0,-56,35,-120,104c0,0,-63,70,-89,131l41,60H238L223,822H0l-45,76l14,31H953l46,-76L985,822H750l66,-58V-39L779,-49Z"
id="f6_bz"
transform="scale(0.001,-0.001)"/>

<path d="M663,-49L573,8V445H299V280L226,251c0,0,-105,99,-162,238l63,72H573V822H0l-45,76l14,31H837l46,-76L869,822H634l66,-58V-39L663,-49Z"
id="f6_bt"
transform="scale(0.001,-0.001)"/>

<path d="M-214,863l-199,281c0,0,-70,92,-157,92c0,0,-69,0,-159,-58l-72,118c0,0,89,73,180,73c0,0,141,0,258,-170L-155,901l-59,-38Z"
id="f6_d4"
transform="scale(0.001,-0.001)"/>

<path d="M823,-49L733,8V339H445V191L371,160c0,0,-56,36,-120,105c0,0,-63,70,-89,131l41,59H313V735c0,0,0,99,-55,140c0,0,-3,1,-8,1c-16,0,-48,-3,-71,-23c0,0,-31,-26,-31,-66c0,0,0,-69,81,-113L189,620C189,620,31,720,31,828c0,0,0,61,45,99c0,0,46,37,109,37c0,0,96,0,173,-86c0,0,76,-87,79,-194V455H733V822H556l-46,76l14,31H998l45,-76l-13,-31H794l66,-58V-39L823,-49Z"
id="f6_by"
transform="scale(0.001,-0.001)"/>

<path d="M727,-49L637,8V822H278l66,-58V226L270,196c0,0,-64,36,-122,98c0,0,-58,62,-79,122l43,59H217V822H0l-45,76l14,31H901l46,-76L933,822H698l66,-58V-39L727,-49Z"
id="f6_bb"
transform="scale(0.001,-0.001)"/>

<path d="M325,240c0,0,77,0,154,35c0,0,77,35,120,99V500c0,0,-118,73,-222,73c0,0,-97,0,-151,-54c0,0,-53,-53,-53,-128c0,0,0,-73,49,-125c0,0,38,-26,103,-26ZM689,-49L599,8V199c0,0,-73,-65,-179,-65c0,0,-134,0,-252,96c0,0,-118,95,-118,221c0,0,0,102,78,171c0,0,78,69,190,69c0,0,38,0,75,-10L599,582V822H0l-45,76l14,31H863l46,-76L895,822H660l66,-58V-39L689,-49Z"
id="f6_c7"
transform="scale(0.001,-0.001)"/>

<path d="M228,-49L138,8V822H0l-45,76l14,31H402l46,-76L434,822H199l65,-58V-39L228,-49Z"
id="f6_ct"
transform="scale(0.001,-0.001)"/>

<path d="M830,-253l-123,66c0,0,31,47,31,78c0,0,0,44,-64,84L353,130c0,0,-234,113,-234,325V822H0l-45,76l14,31H848l46,-76L880,822H655l68,-58V561c0,0,0,-176,-41,-241c0,0,-40,-65,-161,-106l-49,82l124,69V822H180l66,-58V283L646,92c0,0,126,-60,176,-110c0,0,50,-51,50,-115c0,0,0,-62,-42,-120Z"
id="f6_ax"
transform="scale(0.001,-0.001)"/>

<path d="M283,260c0,0,122,0,209,113V513c0,0,-90,51,-160,51c0,0,-80,0,-129,-50c0,0,-49,-50,-49,-118c0,0,0,-60,35,-110c0,0,45,-26,94,-26ZM582,-49L492,8V211c0,0,-63,-54,-141,-54c0,0,-113,0,-213,92c0,0,-100,92,-100,205c0,0,0,93,69,157c0,0,69,64,162,64c0,0,32,0,64,-9L492,590V822H0l-45,76l14,31H1108l45,-76l-13,-31H553l66,-58V524c0,0,91,89,192,89c0,0,98,0,171,-79c0,0,72,-79,72,-186c0,0,0,-178,-224,-330L736,124c0,0,219,153,219,269c0,0,0,44,-26,75c0,0,-26,32,-81,32c0,0,-109,0,-229,-155V-39L582,-49Z"
id="f6_b9"
transform="scale(0.001,-0.001)"/>

<path d="M527,-71L52,414l34,92H277c0,0,12,32,12,72V822H0l-45,76l14,31H599l46,-76L631,822H350l66,-55V564c0,0,0,-96,-152,-248L610,34L611,8L527,-71Z"
id="f6_c1"
transform="scale(0.001,-0.001)"/>

<path d="M675,-274L602,21C602,21,550,3,498,3C498,3,347,3,210,118C210,118,73,232,73,373c0,0,0,113,84,184c0,0,84,71,222,72H524V822H0l-45,76l14,31H834l46,-76L866,822H585l66,-58V504l-3,2l3,-3H408c0,0,-95,0,-154,-53c0,0,-58,-53,-58,-132c0,0,0,-49,27,-100c0,0,28,-50,83,-84c0,0,44,-15,96,-15c0,0,91,0,160,46L535,303l101,48L773,188c0,0,-8,-28,-34,-66c0,0,-27,-38,-62,-64L813,-221L675,-274Z"
id="f6_br"
transform="scale(0.001,-0.001)"/>

<path d="M959,-49L869,8V367c0,0,-32,-13,-64,-13c0,0,-50,0,-110,25c0,0,23,-52,23,-109c0,0,0,-103,-70,-170c0,0,-70,-66,-182,-66c0,0,-110,0,-222,82c0,0,-111,83,-213,293l68,42c0,0,72,-155,152,-231c0,0,81,-76,178,-76c0,0,83,0,131,49c0,0,48,48,48,117c0,0,0,54,-30,100c0,0,-31,47,-91,65L325,391L257,512c0,0,68,53,156,56c0,0,140,72,140,179c0,0,0,69,-52,99c0,0,-4,1,-11,1c-19,0,-66,-4,-123,-30c0,0,-78,-35,-142,-96L150,823c0,0,119,117,253,117c0,0,98,0,175,-71c0,0,77,-70,77,-159c0,0,0,-103,-94,-180c0,0,39,-23,73,-56c0,0,52,-22,109,-22c0,0,77,0,126,38V822H727l-46,76l14,31h840l46,-76l-13,-31H1332l66,-58V-39l-37,-10L1271,8V822H930l66,-58V-39L959,-49Z"
id="f6_am"
transform="scale(0.001,-0.001)"/>

<path d="M388,325c0,0,58,0,112,31c0,0,53,31,84,86V822H165l69,-58V408c0,0,47,-83,154,-83ZM674,-49L584,8V257c0,0,-61,-51,-141,-51c0,0,-125,0,-232,109c0,0,-107,108,-107,243V822H0l-45,76l14,31H848l46,-76L880,822H645l65,-58V-39L674,-49Z"
id="f6_bv"
transform="scale(0.001,-0.001)"/>

<path d="M228,-49L138,8V822H0l-45,76l14,31H138c0,0,-109,342,-284,342c0,0,-62,0,-102,-40c0,0,-40,-39,-40,-93c0,0,0,-61,51,-134l-42,-32c0,0,-128,113,-128,226c0,0,0,79,60,136c0,0,61,56,154,56c0,0,137,0,249,-125c0,0,112,-125,169,-336H402l46,-76L434,822H199l65,-58V-39L228,-49Z"
id="f6_cv"
transform="scale(0.001,-0.001)"/>

<path d="M108,-222l-44,58c0,0,96,81,104,164L89,61c0,0,12,83,93,122c0,0,50,-15,79,-55c0,0,29,-39,29,-90c0,0,0,-69,-48,-142c0,0,-48,-72,-134,-118Z"
id="f6_k"
transform="scale(0.001,-0.001)"/>

<path d="M1066,248c0,0,77,0,149,36c0,0,71,37,110,107V822H976c0,0,138,-96,138,-208c0,0,0,-151,-228,-192c0,0,29,-104,89,-158c0,0,41,-16,91,-16ZM1415,-49L1325,8V200c0,0,-69,-56,-170,-56c0,0,-121,0,-238,91c0,0,-116,92,-178,233c0,0,-22,19,-51,25c0,0,-28,5,-191,5c0,0,61,-47,93,-111c0,0,33,-63,33,-126c0,0,0,-85,-58,-142c0,0,-59,-56,-148,-56c0,0,-130,0,-230,139C187,202,87,341,20,581l76,24c0,0,60,-202,127,-306c0,0,67,-105,160,-105c0,0,57,0,91,36c0,0,33,36,33,91c0,0,0,84,-73,159L295,542v72H542c0,0,112,0,168,-14c0,0,55,-15,97,-62c0,0,102,15,146,42c0,0,45,27,45,78c0,0,0,45,-30,81c0,0,-30,36,-99,83H0l-45,76l14,31H1589l46,-76l-14,-31H1386l65,-58V-39l-36,-10Z"
id="f6_iz"
transform="scale(0.001,-0.001)"/>

<path d="M0,1062c0,0,-26,11,-60,36c0,0,-34,26,-51,49c0,0,39,81,91,110c0,0,60,-23,106,-85c0,0,-28,-70,-86,-110Z"
id="f6_dj"
transform="scale(0.001,-0.001)"/>

<path d="M799,475V822H350l66,-55V564c0,0,0,-43,-25,-89ZM527,-71L52,414l34,92H277c0,0,12,32,12,72V822H0l-45,76l14,31H1063l46,-76l-14,-31H860l66,-58V-39L889,-49L799,8V370H315L264,316L610,34L611,8L527,-71Z"
id="f6_cb"
transform="scale(0.001,-0.001)"/>

<path d="M900,298c0,0,32,73,32,159c0,0,0,110,-38,160c0,0,-40,31,-81,31c0,0,-48,0,-80,-35c0,0,-33,-35,-33,-89c0,0,0,-118,200,-226ZM588,-60c0,0,-154,0,-274,93c0,0,-120,94,-120,207c0,0,0,50,28,92C222,332,61,440,61,552c0,0,0,71,56,122c0,0,56,50,169,50H417l64,-98L463,600H333c0,0,-157,-1,-157,-99c0,0,0,-59,88,-124c0,0,68,52,164,52c0,0,38,0,79,-9l71,-88L558,299c0,0,-46,10,-81,10c0,0,-75,0,-116,-36c0,0,-40,-36,-40,-88c0,0,0,-78,73,-130c0,0,54,-17,109,-17c0,0,114,0,211,54c0,0,97,53,154,145c0,0,-156,96,-223,173c0,0,-67,77,-67,155c0,0,0,72,48,124c0,0,48,52,126,55v78H0l-45,76l14,31H1123l46,-76l-14,-31H805l66,-58V717c0,0,76,-40,124,-124c0,0,47,-84,47,-193c0,0,0,-188,-133,-324C909,76,776,-60,588,-60Z"
id="f6_bf"
transform="scale(0.001,-0.001)"/>

<path d="M108,-433L-59,-214c0,0,-99,119,-191,119c0,0,-59,0,-96,-35c0,0,-36,-34,-36,-81c0,0,0,-49,42,-83l152,95l64,-116c0,0,-71,-58,-148,-58c0,0,-80,0,-146,63c0,0,-65,64,-65,144c0,0,0,77,62,131c0,0,61,53,142,53c0,0,138,0,296,-205L165,-393l-57,-40Z"
id="f6_cx"
transform="scale(0.001,-0.001)"/>

<path d="M892,248c0,0,77,0,148,36c0,0,72,37,110,107V822H802c0,0,138,-96,138,-208c0,0,0,-151,-228,-192c0,0,29,-104,89,-158c0,0,41,-16,91,-16ZM347,-57C347,-57,73,203,73,373c0,0,0,110,87,181c0,0,86,71,227,71c0,0,137,0,268,-84c0,0,91,17,130,43c0,0,38,26,38,74c0,0,0,45,-29,81c0,0,-30,36,-99,83H0l-45,76l14,31H1415l46,-76l-14,-31H1212l65,-58V-39l-36,-10L1150,8V200c0,0,-68,-56,-169,-56c0,0,-122,0,-235,90c0,0,-113,90,-176,223c0,0,-77,43,-161,43c0,0,-85,0,-148,-47c0,0,-62,-47,-62,-129c0,0,0,-127,204,-328L347,-57Z"
id="f6_j8"
transform="scale(0.001,-0.001)"/>

<path d="M527,-71L52,414l34,92H277c0,0,12,32,12,72V822H0l-45,76l14,31H654l46,-76L686,822H350l66,-55V564c0,0,0,-43,-25,-89H782L798,370H315L264,316L610,34L611,8L527,-71Z"
id="f6_m1"
transform="scale(0.001,-0.001)"/>

<path d="M768,-49L678,8V202c0,0,-73,-58,-172,-58c0,0,-123,0,-240,94c0,0,-118,94,-179,237l20,55c0,0,134,12,215,70c0,0,81,57,81,141c0,0,0,90,-67,134l-26,3c0,0,-46,0,-74,-29c0,0,-28,-30,-28,-68c0,0,0,-55,82,-109L252,620C252,620,93,720,93,820c0,0,0,65,47,104c0,0,46,40,114,40c0,0,99,0,179,-83c0,0,80,-83,82,-197c0,0,0,-93,-79,-165c0,0,-78,-73,-199,-97c0,0,29,-104,88,-158c0,0,42,-16,92,-16c0,0,78,0,151,38c0,0,74,38,110,111V822H553l-46,76l14,31H943l45,-76L975,822H739l66,-58V-39L768,-49Z"
id="f6_bq"
transform="scale(0.001,-0.001)"/>

<path d="M226,-49c0,0,-66,24,-102,78c0,0,32,69,82,101c0,0,55,-20,100,-80c0,0,-26,-66,-80,-99Z"
id="f6_pc"
transform="scale(0.001,-0.001)"/>

<path d="M959,-49L869,8V367c0,0,-32,-13,-64,-13c0,0,-50,0,-110,25c0,0,23,-52,23,-109c0,0,0,-103,-70,-170c0,0,-70,-66,-182,-66c0,0,-110,0,-222,82c0,0,-111,83,-213,293l68,42c0,0,72,-155,152,-231c0,0,81,-76,178,-76c0,0,83,0,131,49c0,0,48,48,48,117c0,0,0,54,-30,100c0,0,-31,47,-91,65L325,391L257,512c0,0,68,53,156,56c0,0,140,72,140,179c0,0,0,69,-52,99c0,0,-4,1,-11,1c-19,0,-66,-4,-123,-30c0,0,-78,-35,-142,-96L150,823c0,0,119,117,253,117c0,0,98,0,175,-71c0,0,77,-70,77,-159c0,0,0,-103,-94,-180c0,0,39,-23,73,-56c0,0,52,-22,109,-22c0,0,77,0,126,38V822H727l-46,76l14,31h439l45,-76l-13,-31H930l66,-58V-39L959,-49Z"
id="f6_al"
transform="scale(0.001,-0.001)"/>

<path d="M180,220c0,0,-105,99,-162,238l63,72H556l40,-85L574,414H254V249L180,220ZM0,822l-45,76l14,31H471l45,-76L503,822Z"
id="f6_li"
transform="scale(0.001,-0.001)"/>

<path d="M254,-26c0,0,-84,16,-116,92c0,0,13,84,97,127c0,0,100,-36,112,-110C347,83,324,6,254,-26Zm458,0c0,0,-84,16,-116,92c0,0,14,84,98,127c0,0,99,-37,111,-110C805,83,782,6,712,-26Zm458,0c0,0,-84,16,-116,92c0,0,14,84,98,127c0,0,99,-36,111,-110c0,0,-22,-77,-93,-109Z"
id="f6_8l"
transform="scale(0.001,-0.001)"/>

<path d="M688,-243c0,0,-256,53,-408,173c0,0,-152,119,-152,270c0,0,0,101,68,171c0,0,-101,84,-101,179c0,0,0,64,53,112c0,0,54,47,191,47H587V822H0l-45,76l14,31H830l45,-76L862,822H640l66,-58V585H362c0,0,-159,-1,-159,-92c0,0,0,-41,46,-80c0,0,76,47,183,47c0,0,135,0,230,-76c0,0,96,-75,96,-187C758,197,758,67,629,2L545,104c0,0,49,30,81,75c0,0,32,44,32,82c0,0,0,16,-4,26c0,0,-64,58,-167,58c0,0,-97,0,-166,-50v-2c0,0,-67,-52,-67,-131c0,0,0,-116,132,-199c0,0,132,-84,334,-132l-32,-74Z"
id="f6_cc"
transform="scale(0.001,-0.001)"/>

<path d="M-40,1030c0,0,-28,10,-61,36c0,0,-34,26,-51,49c0,0,38,81,90,110c0,0,61,-23,106,-85c0,0,-27,-71,-84,-110ZM-214,860l-227,219c0,0,-73,70,-148,70c0,0,-67,0,-160,-58l-72,117c0,0,83,71,176,71c0,0,120,0,232,-124L-221,940l-102,294c0,0,-64,179,-189,179c0,0,-60,0,-133,-33l-60,125c0,0,84,47,164,47c0,0,200,0,281,-276L-150,901l-23,-15l-41,-26Z"
id="f6_p3"
transform="scale(0.001,-0.001)"/>

<path d="M845,-49L755,8V513H497c0,0,61,-45,93,-110c0,0,33,-64,33,-128c0,0,0,-90,-58,-144c0,0,-59,-53,-143,-53c0,0,-133,0,-234,139C188,217,87,356,20,596l76,24c0,0,60,-201,127,-306c0,0,67,-105,160,-105c0,0,57,0,91,36c0,0,33,36,33,91c0,0,0,84,-73,159L295,558v71H755V822H0l-45,76l14,31H1019l46,-76l-14,-31H816l66,-58V-39L845,-49Z"
id="f6_bg"
transform="scale(0.001,-0.001)"/>

<path d="M374,248c0,0,77,0,149,36c0,0,71,37,110,107V822H284c0,0,138,-96,138,-208c0,0,0,-151,-228,-192c0,0,29,-104,89,-158c0,0,41,-16,91,-16ZM723,-49L633,8V200c0,0,-69,-56,-170,-56c0,0,-122,0,-240,94c0,0,-118,94,-179,237l20,55c0,0,133,17,187,44c0,0,55,28,55,84c0,0,0,45,-30,81c0,0,-30,36,-99,83H0l-45,76l14,31H897l46,-76L929,822H694l65,-58V-39L723,-49Z"
id="f6_c0"
transform="scale(0.001,-0.001)"/>

<path d="M830,-253l-123,66c0,0,31,47,31,78c0,0,0,44,-64,84L353,130c0,0,-234,113,-234,325V822H0l-45,76l14,31H600L448,1144c0,0,-71,92,-158,92c0,0,-68,0,-159,-58L60,1296c0,0,88,73,180,73c0,0,140,0,258,-170L686,929H848l46,-76L880,822H655l68,-58V561c0,0,0,-176,-41,-241c0,0,-40,-65,-161,-106l-49,82l124,69V822H180l66,-58V283L646,92c0,0,126,-60,176,-110c0,0,50,-51,50,-115c0,0,0,-62,-42,-120Z"
id="f6_ay"
transform="scale(0.001,-0.001)"/>

<path d="M0,822l-45,76l14,31H61l46,-76L93,822Z"
id="f6_no"
transform="scale(0.001,-0.001)"/>

<path d="M228,-49L138,8V822H0l-45,76l14,31H134c0,0,-91,93,-91,200c0,0,0,109,92,174c0,0,93,66,253,66c0,0,186,0,398,-89c0,0,212,-90,430,-264l-49,-47c0,0,-424,285,-727,285c0,0,-125,0,-201,-49c0,0,-76,-48,-76,-137c0,0,0,-67,52,-139H402l46,-76L434,822H199l65,-58V-39L228,-49Z"
id="f6_nu"
transform="scale(0.001,-0.001)"/>

<path d="M180,196c0,0,-105,99,-162,238l63,72H573l40,-86L591,390H254V225L180,196ZM0,822l-45,76l14,31H409l46,-76L442,822Z"
id="f6_lj"
transform="scale(0.001,-0.001)"/>

<path d="M348,229c0,0,57,0,106,17L263,559c0,0,-95,-50,-95,-162c0,0,0,-75,52,-136c0,0,49,-32,128,-32Zm170,48c0,0,61,38,96,91V504c0,0,-131,80,-244,80l-35,-2L518,277ZM704,-49L614,8V193c0,0,-84,-65,-192,-65c0,0,-139,0,-255,98c0,0,-115,98,-115,226c0,0,0,106,77,175c0,0,77,70,189,70c0,0,38,0,75,-9L614,578V822H0l-45,76l14,31H878l46,-76L911,822H675l66,-58V-39L704,-49Z"
id="f6_bx"
transform="scale(0.001,-0.001)"/>

<path d="M228,-49L138,8V822H0l-45,76l14,31H119L-33,1144c0,0,-70,92,-157,92c0,0,-69,0,-159,-58l-72,118c0,0,89,73,181,73c0,0,140,0,257,-170L205,929H402l46,-76L434,822H199l65,-58V-39L228,-49Z"
id="f6_d8"
transform="scale(0.001,-0.001)"/>

<path d="M252,385l310,78l22,-9c0,0,107,-43,200,-43c0,0,91,0,151,41V822H603l66,-58V585H373c0,0,-184,0,-184,-99c0,0,0,-48,63,-101ZM483,-305L295,-10c0,0,-90,22,-156,74l41,170h66L351,63c0,0,126,4,207,62c0,0,82,58,82,139c0,0,0,37,-18,71L365,266c0,0,-110,15,-197,102c0,0,-87,87,-87,176c0,0,0,69,59,117c0,0,59,48,172,48H550V822H0l-45,76l14,31H1199l46,-76l-14,-31H996l66,-58V-39l-37,-10L935,8V318c0,0,-41,-15,-78,-15c0,0,-52,0,-131,30c0,0,32,-55,32,-111c0,0,0,-109,-98,-179c0,0,-98,-69,-254,-69L599,-216L483,-305Z"
id="f6_bh"
transform="scale(0.001,-0.001)"/>

<path d="M1153,-49L1063,8V205c0,0,-84,-84,-209,-84c0,0,-128,0,-237,91c0,0,-108,91,-108,202H254V249L180,220c0,0,-105,99,-162,238l63,72H556l14,15c0,0,-177,127,-177,246l3,31H0l-45,76l14,31H367l39,-67c0,0,46,102,173,102c0,0,164,0,260,-237L778,694c0,0,-55,114,-120,163l-30,5c0,0,-44,0,-77,-32c0,0,-33,-31,-33,-78c0,0,0,-86,113,-165c0,0,60,27,133,27l67,-4l75,-89L891,490l-51,7H820c0,0,-90,0,-142,-43c0,0,-52,-43,-52,-104c0,0,0,-60,51,-109c0,0,33,-16,84,-16c0,0,88,0,177,47c0,0,89,47,125,137V822H894l-46,76l14,31h466l45,-76l-13,-31H1124l66,-58V-39l-37,-10Z"
id="f6_ji"
transform="scale(0.001,-0.001)"/>

<path d="M761,293c0,0,127,0,169,94V532c0,0,-68,46,-145,46c0,0,-76,0,-121,-46c0,0,-45,-45,-45,-107c0,0,0,-61,44,-110c0,0,47,-22,98,-22ZM657,67c0,0,166,0,273,107v55c0,0,-45,-36,-111,-36c0,0,-110,0,-207,90c0,0,-97,90,-97,194c0,0,0,85,66,148c0,0,65,63,155,63l48,-5L930,603V822H376l62,-55V579c0,0,0,-60,-23,-102c0,0,-24,-42,-148,-190c0,0,66,-104,175,-162c0,0,108,-58,215,-58ZM1021,-49L930,8V53c0,0,-105,-83,-264,-83c0,0,-177,0,-339,128C327,98,165,226,90,429l34,77H296c0,0,19,39,19,102l-2,214H0l-45,76l14,31H1195l46,-76l-14,-31H992l65,-58V-39l-36,-10Z"
id="f6_ba"
transform="scale(0.001,-0.001)"/>

<path d="M548,-57c0,0,-122,0,-243,81c0,0,-122,81,-252,280l57,41C110,345,283,64,498,64c0,0,92,0,153,49c0,0,61,49,61,121c0,0,0,46,-28,84L440,237c0,0,-73,11,-139,55c0,0,-66,44,-105,105c0,0,-40,61,-40,119c0,0,0,72,62,125c0,0,62,53,184,53H625V822H0l-45,76l14,31H906l46,-76L938,822H678l66,-58V562H431c0,0,-164,0,-164,-99c0,0,0,-55,57,-102l261,82c0,0,104,-21,172,-98c0,0,68,-78,68,-171c0,0,0,-99,-76,-166c0,0,-77,-65,-201,-65Z"
id="f6_bm"
transform="scale(0.001,-0.001)"/>

<path d="M342,324c0,0,45,0,75,34c0,0,31,33,31,100V822H165l66,-58V390c0,0,32,-66,111,-66ZM853,-49L762,8V822H509l65,-58V455c0,0,0,-134,-51,-185c0,0,-52,-52,-127,-52c0,0,-98,0,-195,99c0,0,-97,99,-97,209V822H0l-45,76l14,31H1027l46,-76l-14,-31H823l66,-58V-39L853,-49Z"
id="f6_bo"
transform="scale(0.001,-0.001)"/>

<path d="M67,0L58,52c0,0,105,40,209,64V851L81,762L38,831l294,193l71,-39V99L591,73L582,0Z"
id="f6_p"
transform="scale(0.001,-0.001)"/>

<path d="M434,225c0,0,84,0,169,42c0,0,85,43,126,126V822H267c0,0,-64,-49,-64,-115c0,0,0,-79,90,-126c0,0,60,35,144,35l67,-6l75,-89L564,490l-51,7H493c0,0,-90,0,-142,-43c0,0,-52,-43,-52,-104c0,0,0,-60,51,-109c0,0,33,-16,84,-16ZM819,-49L729,8V197c0,0,-83,-76,-202,-76c0,0,-130,0,-237,91c0,0,-108,92,-108,196c0,0,0,72,53,128c0,0,-75,42,-115,97c0,0,-41,56,-41,113c0,0,0,38,22,76H0l-45,76l14,31H993l46,-76l-14,-31H790l66,-58V-39L819,-49Z"
id="f6_bc"
transform="scale(0.001,-0.001)"/>

<path d="M483,-305L295,-10c0,0,-90,22,-156,74l41,170h66L351,63c0,0,126,4,207,62c0,0,82,58,82,139c0,0,0,37,-18,71L365,266c0,0,-110,15,-197,102c0,0,-87,87,-87,176c0,0,0,69,59,117c0,0,59,48,172,48H550V822H0l-45,76l14,31H550c0,0,-142,122,-142,255c0,0,0,78,52,133c0,0,52,55,140,55c0,0,98,0,176,-64l-23,-69c0,0,-53,32,-104,32c0,0,-56,0,-94,-36c0,0,-39,-36,-39,-95c0,0,0,-109,112,-211H822l46,-76L854,822H603l66,-58V585H373c0,0,-184,0,-184,-99c0,0,0,-48,63,-101l310,78c0,0,86,-34,141,-99c0,0,55,-65,55,-142c0,0,0,-109,-98,-179c0,0,-98,-69,-254,-69L599,-216L483,-305Z"
id="f6_ao"
transform="scale(0.001,-0.001)"/>

<path d="M336,319c0,0,112,0,112,152V822H165l66,-58V374c0,0,33,-55,105,-55ZM396,218c0,0,-93,0,-192,86c0,0,-99,86,-100,182V822H0l-45,76l14,31H645l46,-76L677,822H509l65,-58V455c0,0,0,-134,-51,-185c0,0,-52,-52,-127,-52Z"
id="f6_lc"
transform="scale(0.001,-0.001)"/>

<path d="M228,-49L138,8V822H0l-45,76l14,31H134c0,0,-91,92,-91,191c0,0,0,105,85,170c0,0,84,65,219,65c0,0,128,0,293,-76c0,0,165,-77,362,-263L958,966c0,0,-177,143,-303,210c0,0,-125,68,-244,68c0,0,-107,0,-175,-50c0,0,-68,-50,-68,-131c0,0,0,-61,49,-134H402l46,-76L434,822H199l65,-58V-39L228,-49Z"
id="f6_cu"
transform="scale(0.001,-0.001)"/>

<path d="M413,-59C413,-59,53,193,53,416c0,0,0,97,66,164c0,0,66,66,156,66c0,0,61,0,110,-30L487,507c0,0,92,126,257,126l35,-2V822H0l-45,76l14,31H1043l46,-76l-13,-31H840l66,-58V-39L869,-49L779,8V547c0,0,-101,-5,-165,-90c0,0,-64,-86,-70,-222L507,225l-90,73c0,0,5,79,35,151c0,0,-59,66,-128,66c0,0,-57,0,-100,-38c0,0,-44,-39,-44,-109c0,0,0,-165,284,-360L413,-59Z"
id="f6_c3"
transform="scale(0.001,-0.001)"/>

<path d="M527,-71L52,414l34,92H277c0,0,12,32,12,72V822H0l-45,76l14,31H940l45,-76L972,822H350l66,-55V570c0,0,146,98,247,98c0,0,95,0,167,-73c0,0,71,-72,71,-167c0,0,0,-77,-53,-142c0,0,-54,-64,-159,-136l-89,99c0,0,100,70,152,121c0,0,52,52,52,105c0,0,0,34,-23,60c0,0,-22,26,-72,26c0,0,-139,0,-434,-252L610,34L611,8L527,-71Z"
id="f6_n0"
transform="scale(0.001,-0.001)"/>

<path d="M827,-49L736,8V205c0,0,-84,-84,-209,-84c0,0,-130,0,-237,91c0,0,-108,92,-108,196c0,0,0,79,61,137C243,545,66,672,66,791c0,0,0,75,52,124c0,0,53,49,134,49c0,0,164,0,260,-237L451,694c0,0,-55,114,-119,163l-31,5c0,0,-44,0,-77,-32c0,0,-33,-31,-33,-78c0,0,0,-86,113,-165c0,0,60,27,133,27l67,-4l75,-89L564,490l-51,7H493c0,0,-90,0,-142,-43c0,0,-52,-43,-52,-104c0,0,0,-60,51,-109c0,0,33,-16,84,-16c0,0,89,0,177,47c0,0,89,47,125,137V822H567l-46,76l14,31h466l46,-76l-14,-31H798l65,-58V-39L827,-49Z"
id="f6_bs"
transform="scale(0.001,-0.001)"/>

<path d="M95,0L67,98L422,497c0,0,130,154,130,259c0,0,0,63,-40,111c0,0,-40,48,-121,48c0,0,-75,0,-171,-29L193,695l-88,2c0,0,-13,82,-13,165l1,65c0,0,159,97,315,97c0,0,122,0,207,-78c0,0,85,-77,85,-193c0,0,0,-67,-34,-133c0,0,-33,-67,-165,-217L237,121l4,-14l373,21l49,136l83,-12C746,252,732,99,704,0Z"
id="f6_q"
transform="scale(0.001,-0.001)"/>

<path d="M558,-520c0,0,-210,0,-488,322l54,49c0,0,119,-128,209,-193c0,0,90,-65,177,-65c0,0,72,0,113,40c0,0,42,40,42,91c0,0,0,75,-78,106L469,-288l-90,98l27,37c0,0,-133,64,-213,155c0,0,-80,91,-80,201c0,0,0,101,69,170c0,0,-103,88,-103,179c0,0,0,64,57,110c0,0,57,47,196,47H571V822H0l-45,76l14,31H830l45,-76L862,822H625l66,-58V585H364c0,0,-176,0,-176,-96c0,0,0,-41,44,-76c0,0,81,47,185,47c0,0,135,0,230,-76c0,0,96,-75,96,-187C743,197,743,67,614,2L530,104c0,0,49,30,81,75c0,0,32,44,32,82c0,0,0,16,-4,26c0,0,-65,58,-167,58c0,0,-98,0,-166,-50v-2c0,0,-68,-52,-68,-131c0,0,0,-154,254,-263l53,7c0,0,91,0,156,-70c0,0,66,-70,66,-163c0,0,0,-86,-60,-139c0,0,-61,-54,-149,-54Z"
id="f6_n4"
transform="scale(0.001,-0.001)"/>

<path d="M513,460c0,0,61,81,61,179c0,0,0,87,-45,143c0,0,-45,57,-116,57c0,0,-63,0,-102,-43c0,0,-39,-43,-39,-110c0,0,0,-90,68,-151c0,0,68,-61,173,-75ZM581,-83L278,167l-41,-4c0,0,-99,0,-130,37l47,168l51,12l78,-79c0,0,110,40,183,105c0,0,-141,23,-231,107c0,0,-90,84,-90,193c0,0,0,69,37,116H0l-45,76l14,31H1134l45,-76l-13,-31H930l66,-58V-39L959,-49L869,8V822H588c0,0,51,-44,75,-109c0,0,25,-64,25,-122c0,0,0,-105,-81,-213c0,0,-80,-108,-240,-176L658,18l2,-25L581,-83Z"
id="f6_c8"
transform="scale(0.001,-0.001)"/>

<path d="M413,313c0,0,91,0,145,58L231,782V408c0,0,47,-95,182,-95ZM603,438l11,28V822H295L603,438ZM704,-49L614,8V254c0,0,-61,-57,-151,-57c0,0,-138,0,-248,110c0,0,-111,110,-111,252V822H0l-45,76l14,31H878l46,-76L911,822H675l66,-58V-39L704,-49Z"
id="f6_ca"
transform="scale(0.001,-0.001)"/>

<path d="M46,1082c0,0,-69,29,-106,81c0,0,34,75,84,105c0,0,57,-23,103,-81c0,0,-31,-72,-81,-105Z"
id="f6_ol"
transform="scale(0.001,-0.001)"/>

<path d="M547,-285c0,0,-66,25,-102,80c0,0,32,69,82,101c0,0,55,-20,99,-80c0,0,-26,-67,-79,-101Zm1,228c0,0,-122,0,-243,81c0,0,-122,81,-252,280l57,41C110,345,283,64,498,64c0,0,92,0,153,49c0,0,61,49,61,121c0,0,0,46,-28,84L440,237c0,0,-73,11,-139,55c0,0,-66,44,-105,105c0,0,-40,61,-40,119c0,0,0,72,62,125c0,0,62,53,184,53H625V822H0l-45,76l14,31H906l46,-76L938,822H678l66,-58V562H431c0,0,-164,0,-164,-99c0,0,0,-55,57,-102l261,82c0,0,104,-21,172,-98c0,0,68,-78,68,-171c0,0,0,-99,-76,-166c0,0,-77,-65,-201,-65Z"
id="f6_ch"
transform="scale(0.001,-0.001)"/>

<path d="M387,-28c0,0,-158,0,-295,71l27,137c0,0,168,-84,329,-84c0,0,47,0,85,9c0,0,57,62,57,141c0,0,0,82,-66,140c0,0,-66,57,-188,57L228,438l-3,104h26c0,0,145,5,212,67c0,0,67,62,67,146c0,0,0,75,-51,123c0,0,-51,49,-143,49c0,0,-50,0,-105,-16L203,743l-88,1c0,0,-14,83,-14,139l1,58c0,0,120,83,280,83c0,0,128,0,211,-71c0,0,82,-71,82,-177c0,0,0,-73,-45,-137c0,0,-45,-65,-132,-98c0,0,96,-22,163,-103c0,0,66,-80,66,-178c0,0,0,-126,-94,-207c0,0,-95,-81,-246,-81Z"
id="f6_r"
transform="scale(0.001,-0.001)"/>

<path d="M725,307c0,0,-95,0,-218,78c0,0,-123,78,-188,78c0,0,-54,0,-95,-34c0,0,-41,-34,-73,-100L93,362c0,0,38,88,101,146c0,0,63,59,148,59c0,0,90,0,214,-78c0,0,124,-79,188,-79c0,0,63,0,106,34c0,0,42,33,85,104l60,-40c0,0,-32,-66,-101,-134c0,0,-70,-67,-169,-67Z"
id="f7_4r"
transform="scale(0.001,-0.001)"/>

<path d="M412,-18c0,0,-144,0,-239,85c0,0,-95,86,-108,222l133,18c0,0,24,-114,79,-164c0,0,55,-50,135,-50c0,0,96,0,161,65c0,0,65,66,65,163c0,0,0,92,-61,152c0,0,-60,60,-153,60c0,0,-38,0,-95,-15l15,119c0,0,13,-2,21,-2c0,0,86,0,155,45c0,0,69,44,69,137c0,0,0,74,-50,122c0,0,-50,49,-129,49c0,0,-79,0,-131,-50c0,0,-52,-49,-67,-147L78,815c0,0,25,135,112,209c0,0,87,74,217,74c0,0,89,0,164,-38c0,0,76,-39,116,-105c0,0,40,-66,40,-141c0,0,0,-70,-39,-129c0,0,-38,-58,-112,-92c0,0,97,-22,151,-93c0,0,53,-70,53,-176c0,0,0,-143,-104,-243c0,0,-105,-99,-264,-99Z"
id="f8_n"
transform="scale(0.001,-0.001)"/>

<path d="M435,92c0,0,85,0,146,69c0,0,60,68,60,186c0,0,0,114,-60,179c0,0,-60,66,-152,66c0,0,-90,0,-154,-66c0,0,-63,-65,-63,-171c0,0,0,-70,30,-133c0,0,29,-64,82,-97c0,0,52,-33,111,-33Zm2,-110c0,0,-168,0,-273,123C164,105,58,228,58,512c0,0,0,317,117,461c0,0,102,125,275,125c0,0,129,0,211,-72c0,0,82,-72,99,-200L626,815c0,0,-18,79,-51,115c0,0,-54,58,-134,58c0,0,-64,0,-112,-36c0,0,-63,-46,-99,-135c0,0,-37,-89,-38,-253c0,0,48,74,118,110c0,0,70,36,147,36c0,0,134,0,228,-99c0,0,94,-99,94,-256c0,0,0,-103,-44,-191C735,164,691,75,613,28c0,0,-77,-46,-176,-46Z"
id="f8_q"
transform="scale(0.001,-0.001)"/>


</defs>
</svg>