<?xml version="1.0" encoding="UTF-8" standalone="no"?>
<!DOCTYPE svg PUBLIC "-//W3C//DTD SVG 1.1//EN"
"http://www.w3.org/Graphics/SVG/1.1/DTD/svg11.dtd">
<svg viewBox="0 0 641 910" version="1.1" xmlns="http://www.w3.org/2000/svg" xmlns:xlink="http://www.w3.org/1999/xlink">
<defs>
<clipPath id="c0_31"><path d="M0,909.8V0H641.7V909.8Z"/></clipPath>
<clipPath id="c1_31"><path d="M0,908.6V0H641.7V908.6Z"/></clipPath>
<style type="text/css"><![CDATA[
.g0_31{
fill: #FFFFFF;
}
.g1_31{
}
]]></style>
</defs>
<path d="M0,0H641.7V909.8H0V0Z" class="g0_31"/>
<path d="M0,0H641.7V909.8H0V0Z" class="g0_31"/>
<g clip-path="url(#c0_31)">
<path d="M0,-21834.9H641.7V84610.6H0V-21834.9Z" class="g0_31"/>
</g>
<path d="M0,0H641.7V908.6H0V0Z" class="g0_31"/>
<path d="M19.5,60.7H602.7v1.2H19.5V60.7Z" class="g1_31"/>
<g clip-path="url(#c1_31)">
<path d="M0,61.9H641.7V909.8H0V61.9Z" class="g0_31"/>
<g fill="#000000" >
<use xlink:href="#f5_lq" transform="matrix(14,0,0,14,218,82.5)" />
<use xlink:href="#f5_cc" transform="matrix(14,0,0,14,226,82.5)" />
<use xlink:href="#f5_ct" transform="matrix(14,0,0,14,238.7,82.5)" />
<use xlink:href="#f5_c1" transform="matrix(14,0,0,14,245.2,82.5)" />
<use xlink:href="#f5_ct" transform="matrix(14,0,0,14,255.4,82.5)" />
<use xlink:href="#f5_ll" transform="matrix(14,0,0,14,267.5,82.5)" />
<use xlink:href="#f5_c0" transform="matrix(14,0,0,14,274.4,82.5)" />
<use xlink:href="#f5_ct" transform="matrix(14,0,0,14,288.4,82.5)" />
<use xlink:href="#f5_c1" transform="matrix(14,0,0,14,294.9,82.5)" />
<use xlink:href="#f5_ct" transform="matrix(14,0,0,14,305.1,82.5)" />
<use xlink:href="#f5_bv" transform="matrix(14,0,0,14,317.2,82.5)" />
<use xlink:href="#f5_ct" transform="matrix(14,0,0,14,330.4,82.5)" />
<use xlink:href="#f5_c1" transform="matrix(14,0,0,14,336.8,82.5)" />
<use xlink:href="#f5_cb" transform="matrix(14,0,0,14,347,82.5)" />
<use xlink:href="#f5_bt" transform="matrix(14,0,0,14,369.4,82.5)" />
<use xlink:href="#f5_ct" transform="matrix(14,0,0,14,382.4,82.5)" />
<use xlink:href="#f5_no" transform="matrix(14,0,0,14,388.9,82.5)" />
<use xlink:href="#f5_bq" transform="matrix(14,0,0,14,388.9,82.5)" />
<use xlink:href="#f6_bx" transform="matrix(14,0,0,14,135.5,144.4)" />
<use xlink:href="#f6_d5" transform="matrix(14,0,0,14,147.9,144.4)" />
<use xlink:href="#f6_bl" transform="matrix(14,0,0,14,147.8,144.4)" />
<use xlink:href="#f6_ct" transform="matrix(14,0,0,14,160.2,144.4)" />
<use xlink:href="#f6_bt" transform="matrix(14,0,0,14,171.4,144.4)" />
<use xlink:href="#f6_ct" transform="matrix(14,0,0,14,183.2,144.4)" />
<use xlink:href="#f6_b9" transform="matrix(14,0,0,14,188.8,144.4)" />
<use xlink:href="#f6_d8" transform="matrix(14,0,0,14,204.3,144.4)" />
<use xlink:href="#f6_ch" transform="matrix(14,0,0,14,209.9,144.4)" />
<use xlink:href="#f6_ct" transform="matrix(14,0,0,14,222.6,144.4)" />
<use xlink:href="#f6_bt" transform="matrix(14,0,0,14,233.9,144.4)" />
<use xlink:href="#f6_bb" transform="matrix(14,0,0,14,245.6,144.4)" />
<use xlink:href="#f6_c1" transform="matrix(14,0,0,14,258.2,144.4)" />
<use xlink:href="#f6_cv" transform="matrix(14,0,0,14,266.6,144.4)" />
<use xlink:href="#f6_bz" transform="matrix(14,0,0,14,277.9,144.4)" />
<use xlink:href="#f6_oz" transform="matrix(14,0,0,14,291.3,144.4)" />
<use xlink:href="#f6_lq" transform="matrix(14,0,0,14,296.9,144.4)" />
<use xlink:href="#f6_cc" transform="matrix(14,0,0,14,303.5,144.4)" />
<use xlink:href="#f6_ct" transform="matrix(14,0,0,14,315.1,144.4)" />
<use xlink:href="#f6_c1" transform="matrix(14,0,0,14,320.8,144.4)" />
<use xlink:href="#f6_ct" transform="matrix(14,0,0,14,329.1,144.4)" />
<use xlink:href="#f6_ll" transform="matrix(14,0,0,14,340.4,144.4)" />
<use xlink:href="#f6_c0" transform="matrix(14,0,0,14,346.9,144.4)" />
<use xlink:href="#f6_ct" transform="matrix(14,0,0,14,359.4,144.4)" />
<use xlink:href="#f6_c1" transform="matrix(14,0,0,14,365,144.4)" />
<use xlink:href="#f6_ct" transform="matrix(14,0,0,14,373.4,144.4)" />
<use xlink:href="#f6_bv" transform="matrix(14,0,0,14,384.7,144.4)" />
<use xlink:href="#f6_ct" transform="matrix(14,0,0,14,396.6,144.4)" />
<use xlink:href="#f6_c1" transform="matrix(14,0,0,14,402.2,144.4)" />
<use xlink:href="#f6_cb" transform="matrix(14,0,0,14,410.6,144.4)" />
<use xlink:href="#f6_bt" transform="matrix(14,0,0,14,431.1,144.4)" />
<use xlink:href="#f6_ct" transform="matrix(14,0,0,14,442.8,144.4)" />
<use xlink:href="#f6_no" transform="matrix(14,0,0,14,448.4,144.4)" />
<use xlink:href="#f6_bq" transform="matrix(14,0,0,14,448.4,144.4)" />
<use xlink:href="#f6_pd" transform="matrix(14,0,0,14,467.3,144.4)" />
<use xlink:href="#f6_q" transform="matrix(14,0,0,14,474.9,144.4)" />
<use xlink:href="#f6_bz" transform="matrix(14,0,0,14,126.3,178.8)" />
<use xlink:href="#f6_p3" transform="matrix(14,0,0,14,139.8,178.8)" />
<use xlink:href="#f6_bp" transform="matrix(14,0,0,14,145.4,178.8)" />
<use xlink:href="#f6_d8" transform="matrix(14,0,0,14,157.7,178.8)" />
<use xlink:href="#f6_al" transform="matrix(14,0,0,14,169,178.8)" />
<use xlink:href="#f6_bg" transform="matrix(14,0,0,14,184.8,178.8)" />
<use xlink:href="#f6_dr" transform="matrix(14,0,0,14,199.5,178.8)" />
<use xlink:href="#f6_b9" transform="matrix(14,0,0,14,204.7,178.8)" />
<use xlink:href="#f6_n1" transform="matrix(14,0,0,14,220.2,178.8)" />
<use xlink:href="#f6_cu" transform="matrix(14,0,0,14,239,178.8)" />
<use xlink:href="#f6_br" transform="matrix(14,0,0,14,244.7,178.8)" />
<use xlink:href="#f6_bt" transform="matrix(14,0,0,14,256.3,178.8)" />
<use xlink:href="#f6_c1" transform="matrix(14,0,0,14,273.7,178.8)" />
<use xlink:href="#f6_ct" transform="matrix(14,0,0,14,282.1,178.8)" />
<use xlink:href="#f6_bp" transform="matrix(14,0,0,14,287.7,178.8)" />
<use xlink:href="#f6_br" transform="matrix(14,0,0,14,305.7,178.8)" />
<use xlink:href="#f6_c8" transform="matrix(14,0,0,14,317.4,178.8)" />
<use xlink:href="#f6_dr" transform="matrix(14,0,0,14,333.7,178.8)" />
<use xlink:href="#f6_bt" transform="matrix(14,0,0,14,333.2,178.8)" />
<use xlink:href="#f6_br" transform="matrix(14,0,0,14,350.6,178.8)" />
<use xlink:href="#f6_ob" transform="matrix(14,0,0,14,362.3,178.8)" />
<use xlink:href="#f6_bg" transform="matrix(14,0,0,14,367.9,178.8)" />
<use xlink:href="#f6_d8" transform="matrix(14,0,0,14,382.2,178.8)" />
<use xlink:href="#f6_bv" transform="matrix(14,0,0,14,393.5,178.8)" />
<use xlink:href="#f6_ct" transform="matrix(14,0,0,14,405.3,178.8)" />
<use xlink:href="#f6_c1" transform="matrix(14,0,0,14,410.9,178.8)" />
<use xlink:href="#f6_cb" transform="matrix(14,0,0,14,419.3,178.8)" />
<use xlink:href="#f6_bt" transform="matrix(14,0,0,14,439.9,178.8)" />
<use xlink:href="#f6_ct" transform="matrix(14,0,0,14,451.6,178.8)" />
<use xlink:href="#f6_no" transform="matrix(14,0,0,14,457.2,178.8)" />
<use xlink:href="#f6_bq" transform="matrix(14,0,0,14,457.2,178.8)" />
<use xlink:href="#f6_pd" transform="matrix(14,0,0,14,476.1,178.8)" />
<use xlink:href="#f6_n8" transform="matrix(14,0,0,14,483.6,178.8)" />
<use xlink:href="#f6_bz" transform="matrix(14,0,0,14,141.2,247.5)" />
<use xlink:href="#f6_p3" transform="matrix(14,0,0,14,154.7,247.5)" />
<use xlink:href="#f6_bp" transform="matrix(14,0,0,14,160.2,247.5)" />
<use xlink:href="#f6_d8" transform="matrix(14,0,0,14,172.6,247.5)" />
<use xlink:href="#f6_b9" transform="matrix(14,0,0,14,183.8,247.5)" />
<use xlink:href="#f6_d4" transform="matrix(14,0,0,14,195,247.5)" />
<use xlink:href="#f6_c8" transform="matrix(14,0,0,14,199.3,247.5)" />
<use xlink:href="#f6_c1" transform="matrix(14,0,0,14,215.2,247.5)" />
<use xlink:href="#f6_be" transform="matrix(14,0,0,14,229.3,247.5)" />
<use xlink:href="#f6_lj" transform="matrix(14,0,0,14,243.2,247.5)" />
<use xlink:href="#f6_br" transform="matrix(14,0,0,14,249,247.5)" />
<use xlink:href="#f6_bt" transform="matrix(14,0,0,14,260.7,247.5)" />
<use xlink:href="#f6_c3" transform="matrix(14,0,0,14,278.1,247.5)" />
<use xlink:href="#f6_ct" transform="matrix(14,0,0,14,292.8,247.5)" />
<use xlink:href="#f6_aq" transform="matrix(14,0,0,14,298.4,247.5)" />
<use xlink:href="#f6_al" transform="matrix(14,0,0,14,319.8,247.5)" />
<use xlink:href="#f6_dj" transform="matrix(14,0,0,14,332.8,247.9)" />
<use xlink:href="#f6_nt" transform="matrix(14,0,0,14,335.6,247.5)" />
<use xlink:href="#f6_bb" transform="matrix(14,0,0,14,341.3,247.5)" />
<use xlink:href="#f6_c0" transform="matrix(14,0,0,14,353.9,247.5)" />
<use xlink:href="#f6_ct" transform="matrix(14,0,0,14,366.4,247.5)" />
<use xlink:href="#f6_bq" transform="matrix(14,0,0,14,377.7,247.5)" />
<use xlink:href="#f6_d8" transform="matrix(14,0,0,14,390.9,247.5)" />
<use xlink:href="#f6_c1" transform="matrix(14,0,0,14,396.5,247.5)" />
<use xlink:href="#f6_cv" transform="matrix(14,0,0,14,404.9,247.5)" />
<use xlink:href="#f6_bz" transform="matrix(14,0,0,14,416.2,247.5)" />
<use xlink:href="#f6_p3" transform="matrix(14,0,0,14,429.7,247.5)" />
<use xlink:href="#f6_c1" transform="matrix(14,0,0,14,435.2,247.5)" />
<use xlink:href="#f6_be" transform="matrix(14,0,0,14,443.6,247.5)" />
<use xlink:href="#f6_ct" transform="matrix(14,0,0,14,457.6,247.5)" />
<use xlink:href="#f6_aq" transform="matrix(14,0,0,14,463.2,247.5)" />
<use xlink:href="#f6_bq" transform="matrix(14,0,0,14,133.2,281.9)" />
<use xlink:href="#f6_d8" transform="matrix(14,0,0,14,146.4,281.9)" />
<use xlink:href="#f6_c1" transform="matrix(14,0,0,14,152,281.9)" />
<use xlink:href="#f6_cv" transform="matrix(14,0,0,14,160.4,281.9)" />
<use xlink:href="#f6_by" transform="matrix(14,0,0,14,171.7,281.9)" />
<use xlink:href="#f6_o0" transform="matrix(14,0,0,14,185.7,281.9)" />
<use xlink:href="#f6_l1" transform="matrix(14,0,0,14,191.3,281.9)" />
<use xlink:href="#f6_bp" transform="matrix(14,0,0,14,203.1,281.9)" />
<use xlink:href="#f6_b9" transform="matrix(14,0,0,14,221.1,281.9)" />
<use xlink:href="#f6_n1" transform="matrix(14,0,0,14,236.6,281.9)" />
<use xlink:href="#f6_cu" transform="matrix(14,0,0,14,255.4,281.9)" />
<use xlink:href="#f6_br" transform="matrix(14,0,0,14,261.1,281.9)" />
<use xlink:href="#f6_bt" transform="matrix(14,0,0,14,272.7,281.9)" />
<use xlink:href="#f6_c1" transform="matrix(14,0,0,14,290.1,281.9)" />
<use xlink:href="#f6_ct" transform="matrix(14,0,0,14,298.5,281.9)" />
<use xlink:href="#f6_bp" transform="matrix(14,0,0,14,304.1,281.9)" />
<use xlink:href="#f6_br" transform="matrix(14,0,0,14,322.1,281.9)" />
<use xlink:href="#f6_c8" transform="matrix(14,0,0,14,333.8,281.9)" />
<use xlink:href="#f6_dr" transform="matrix(14,0,0,14,350.1,281.9)" />
<use xlink:href="#f6_bt" transform="matrix(14,0,0,14,349.6,281.9)" />
<use xlink:href="#f6_br" transform="matrix(14,0,0,14,367,281.9)" />
<use xlink:href="#f6_ob" transform="matrix(14,0,0,14,378.7,281.9)" />
<use xlink:href="#f6_bg" transform="matrix(14,0,0,14,384.3,281.9)" />
<use xlink:href="#f6_d8" transform="matrix(14,0,0,14,398.6,281.9)" />
<use xlink:href="#f6_bv" transform="matrix(14,0,0,14,409.8,281.9)" />
<use xlink:href="#f6_ct" transform="matrix(14,0,0,14,421.7,281.9)" />
<use xlink:href="#f6_c1" transform="matrix(14,0,0,14,427.3,281.9)" />
<use xlink:href="#f6_cb" transform="matrix(14,0,0,14,435.7,281.9)" />
<use xlink:href="#f6_bt" transform="matrix(14,0,0,14,456.2,281.9)" />
<use xlink:href="#f6_ct" transform="matrix(14,0,0,14,468,281.9)" />
<use xlink:href="#f6_no" transform="matrix(14,0,0,14,473.6,281.9)" />
<use xlink:href="#f6_bq" transform="matrix(14,0,0,14,473.6,281.9)" />
<use xlink:href="#f6_bx" transform="matrix(14,0,0,14,216.9,316.3)" />
<use xlink:href="#f6_d5" transform="matrix(14,0,0,14,229.3,316.3)" />
<use xlink:href="#f6_bl" transform="matrix(14,0,0,14,229.2,316.3)" />
<use xlink:href="#f6_ct" transform="matrix(14,0,0,14,241.5,316.3)" />
<use xlink:href="#f6_bt" transform="matrix(14,0,0,14,252.8,316.3)" />
<use xlink:href="#f6_ct" transform="matrix(14,0,0,14,264.5,316.3)" />
<use xlink:href="#f6_b9" transform="matrix(14,0,0,14,270.1,316.3)" />
<use xlink:href="#f6_d8" transform="matrix(14,0,0,14,285.6,316.3)" />
<use xlink:href="#f6_ch" transform="matrix(14,0,0,14,291.3,316.3)" />
<use xlink:href="#f6_ct" transform="matrix(14,0,0,14,303.9,316.3)" />
<use xlink:href="#f6_bt" transform="matrix(14,0,0,14,315.2,316.3)" />
<use xlink:href="#f6_bb" transform="matrix(14,0,0,14,326.9,316.3)" />
<use xlink:href="#f6_c1" transform="matrix(14,0,0,14,339.5,316.3)" />
<use xlink:href="#f6_cv" transform="matrix(14,0,0,14,347.9,316.3)" />
<use xlink:href="#f6_bz" transform="matrix(14,0,0,14,359.2,316.3)" />
<use xlink:href="#f6_p3" transform="matrix(14,0,0,14,372.7,316.3)" />
<use xlink:href="#f6_pc" transform="matrix(14,0,0,14,378.2,316.3)" />
<use xlink:href="#f6_pc" transform="matrix(14,0,0,14,382.5,316.3)" />
<use xlink:href="#f6_pc" transform="matrix(14,0,0,14,386.8,316.3)" />
<use xlink:href="#f6_pc" transform="matrix(14,0,0,14,391,316.3)" />
<use xlink:href="#f6_pc" transform="matrix(14,0,0,14,395.3,316.3)" />
<use xlink:href="#f6_pc" transform="matrix(14,0,0,14,399.6,316.3)" />
<use xlink:href="#f6_bq" transform="matrix(14,0,0,14,141.2,385)" />
<use xlink:href="#f6_d8" transform="matrix(14,0,0,14,154.4,385)" />
<use xlink:href="#f6_c1" transform="matrix(14,0,0,14,160.1,385)" />
<use xlink:href="#f6_ct" transform="matrix(14,0,0,14,168.4,385)" />
<use xlink:href="#f6_by" transform="matrix(14,0,0,14,179.7,385)" />
<use xlink:href="#f6_l1" transform="matrix(14,0,0,14,193.7,385)" />
<use xlink:href="#f6_bp" transform="matrix(14,0,0,14,205.5,385)" />
<use xlink:href="#f6_bb" transform="matrix(14,0,0,14,223.5,385)" />
<use xlink:href="#f6_bo" transform="matrix(14,0,0,14,236.1,385)" />
<use xlink:href="#f6_d4" transform="matrix(14,0,0,14,250.6,385)" />
<use xlink:href="#f6_c1" transform="matrix(14,0,0,14,250.5,385)" />
<use xlink:href="#f6_ct" transform="matrix(14,0,0,14,258.9,385)" />
<use xlink:href="#f6_am" transform="matrix(14,0,0,14,270.2,385)" />
<use xlink:href="#f6_c0" transform="matrix(14,0,0,14,291.6,385)" />
<use xlink:href="#f6_ct" transform="matrix(14,0,0,14,304.2,385)" />
<use xlink:href="#f6_br" transform="matrix(14,0,0,14,315.5,385)" />
<use xlink:href="#f6_c8" transform="matrix(14,0,0,14,327.2,385)" />
<use xlink:href="#f6_dr" transform="matrix(14,0,0,14,343.5,385)" />
<use xlink:href="#f6_bt" transform="matrix(14,0,0,14,343,385)" />
<use xlink:href="#f6_br" transform="matrix(14,0,0,14,360.4,385)" />
<use xlink:href="#f6_ob" transform="matrix(14,0,0,14,372.1,385)" />
<use xlink:href="#f6_bg" transform="matrix(14,0,0,14,377.7,385)" />
<use xlink:href="#f6_d8" transform="matrix(14,0,0,14,392,385)" />
<use xlink:href="#f6_bv" transform="matrix(14,0,0,14,403.2,385)" />
<use xlink:href="#f6_ct" transform="matrix(14,0,0,14,415.1,385)" />
<use xlink:href="#f6_c1" transform="matrix(14,0,0,14,420.7,385)" />
<use xlink:href="#f6_cb" transform="matrix(14,0,0,14,429.1,385)" />
<use xlink:href="#f6_bt" transform="matrix(14,0,0,14,449.6,385)" />
<use xlink:href="#f6_ct" transform="matrix(14,0,0,14,461.4,385)" />
<use xlink:href="#f6_no" transform="matrix(14,0,0,14,467,385)" />
<use xlink:href="#f6_bq" transform="matrix(14,0,0,14,467,385)" />
<use xlink:href="#f6_bq" transform="matrix(14,0,0,14,135.5,419.4)" />
<use xlink:href="#f6_d4" transform="matrix(14,0,0,14,148.8,419.4)" />
<use xlink:href="#f6_bp" transform="matrix(14,0,0,14,154.4,419.4)" />
<use xlink:href="#f6_d8" transform="matrix(14,0,0,14,166.7,419.4)" />
<use xlink:href="#f6_by" transform="matrix(14,0,0,14,178,419.4)" />
<use xlink:href="#f6_l1" transform="matrix(14,0,0,14,191.9,419.4)" />
<use xlink:href="#f6_bp" transform="matrix(14,0,0,14,203.8,419.4)" />
<use xlink:href="#f6_d8" transform="matrix(14,0,0,14,216.1,419.4)" />
<use xlink:href="#f6_c1" transform="matrix(14,0,0,14,227.4,419.4)" />
<use xlink:href="#f6_ct" transform="matrix(14,0,0,14,235.8,419.4)" />
<use xlink:href="#f6_b1" transform="matrix(14,0,0,14,247.1,419.4)" />
<use xlink:href="#f6_bt" transform="matrix(14,0,0,14,274.2,419.4)" />
<use xlink:href="#f6_ct" transform="matrix(14,0,0,14,285.9,419.4)" />
<use xlink:href="#f6_no" transform="matrix(14,0,0,14,291.5,419.4)" />
<use xlink:href="#f6_bq" transform="matrix(14,0,0,14,291.5,419.4)" />
<use xlink:href="#f6_am" transform="matrix(14,0,0,14,310.4,419.4)" />
<use xlink:href="#f6_b1" transform="matrix(14,0,0,14,331.9,419.4)" />
<use xlink:href="#f6_am" transform="matrix(14,0,0,14,359,419.4)" />
<use xlink:href="#f6_b1" transform="matrix(14,0,0,14,380.5,419.4)" />
<use xlink:href="#f6_bv" transform="matrix(14,0,0,14,407.7,419.4)" />
<use xlink:href="#f6_ct" transform="matrix(14,0,0,14,419.5,419.4)" />
<use xlink:href="#f6_c1" transform="matrix(14,0,0,14,425.1,419.4)" />
<use xlink:href="#f6_cb" transform="matrix(14,0,0,14,433.5,419.4)" />
<use xlink:href="#f6_bt" transform="matrix(14,0,0,14,454.1,419.4)" />
<use xlink:href="#f6_ct" transform="matrix(14,0,0,14,465.8,419.4)" />
<use xlink:href="#f6_no" transform="matrix(14,0,0,14,471.4,419.4)" />
<use xlink:href="#f6_bq" transform="matrix(14,0,0,14,471.4,419.4)" />
<use xlink:href="#f6_bx" transform="matrix(14,0,0,14,216.9,453.8)" />
<use xlink:href="#f6_d5" transform="matrix(14,0,0,14,229.3,453.8)" />
<use xlink:href="#f6_bl" transform="matrix(14,0,0,14,229.2,453.8)" />
<use xlink:href="#f6_ct" transform="matrix(14,0,0,14,241.5,453.8)" />
<use xlink:href="#f6_bt" transform="matrix(14,0,0,14,252.8,453.8)" />
<use xlink:href="#f6_ct" transform="matrix(14,0,0,14,264.5,453.8)" />
<use xlink:href="#f6_b9" transform="matrix(14,0,0,14,270.1,453.8)" />
<use xlink:href="#f6_d8" transform="matrix(14,0,0,14,285.6,453.8)" />
<use xlink:href="#f6_ch" transform="matrix(14,0,0,14,291.3,453.8)" />
<use xlink:href="#f6_ct" transform="matrix(14,0,0,14,303.9,453.8)" />
<use xlink:href="#f6_bt" transform="matrix(14,0,0,14,315.2,453.8)" />
<use xlink:href="#f6_bb" transform="matrix(14,0,0,14,326.9,453.8)" />
<use xlink:href="#f6_c1" transform="matrix(14,0,0,14,339.5,453.8)" />
<use xlink:href="#f6_cv" transform="matrix(14,0,0,14,347.9,453.8)" />
<use xlink:href="#f6_bz" transform="matrix(14,0,0,14,359.2,453.8)" />
<use xlink:href="#f6_p3" transform="matrix(14,0,0,14,372.7,453.8)" />
<use xlink:href="#f6_pc" transform="matrix(14,0,0,14,378.2,453.8)" />
<use xlink:href="#f6_pc" transform="matrix(14,0,0,14,382.5,453.8)" />
<use xlink:href="#f6_pc" transform="matrix(14,0,0,14,386.8,453.8)" />
<use xlink:href="#f6_pc" transform="matrix(14,0,0,14,391,453.8)" />
<use xlink:href="#f6_pc" transform="matrix(14,0,0,14,395.3,453.8)" />
<use xlink:href="#f6_pc" transform="matrix(14,0,0,14,399.6,453.8)" />
<use xlink:href="#f6_8g" transform="matrix(14,0,0,14,119.5,522.5)" />
<use xlink:href="#f6_by" transform="matrix(14,0,0,14,127.6,522.5)" />
<use xlink:href="#f6_o0" transform="matrix(14,0,0,14,141.6,522.5)" />
<use xlink:href="#f6_l1" transform="matrix(14,0,0,14,147.2,522.5)" />
<use xlink:href="#f6_bp" transform="matrix(14,0,0,14,159.1,522.5)" />
<use xlink:href="#f6_bz" transform="matrix(14,0,0,14,177.1,522.5)" />
<use xlink:href="#f6_dj" transform="matrix(14,0,0,14,184.5,522.9)" />
<use xlink:href="#f6_bm" transform="matrix(14,0,0,14,190.4,522.5)" />
<use xlink:href="#f6_c3" transform="matrix(14,0,0,14,203.1,522.5)" />
<use xlink:href="#f6_8g" transform="matrix(14,0,0,14,217.8,522.5)" />
<use xlink:href="#f6_be" transform="matrix(14,0,0,14,231.6,522.5)" />
<use xlink:href="#f6_c1" transform="matrix(14,0,0,14,245.6,522.5)" />
<use xlink:href="#f6_bo" transform="matrix(14,0,0,14,254,522.5)" />
<use xlink:href="#f6_d8" transform="matrix(14,0,0,14,268.3,522.5)" />
<use xlink:href="#f6_dj" transform="matrix(14,0,0,14,272.6,523.4)" />
<use xlink:href="#f6_bz" transform="matrix(14,0,0,14,279.6,522.5)" />
<use xlink:href="#f6_oz" transform="matrix(14,0,0,14,293.1,522.5)" />
<use xlink:href="#f6_am" transform="matrix(14,0,0,14,298.6,522.5)" />
<use xlink:href="#f6_c7" transform="matrix(14,0,0,14,320.1,522.5)" />
<use xlink:href="#f6_d4" transform="matrix(14,0,0,14,332.3,522.5)" />
<use xlink:href="#f6_br" transform="matrix(14,0,0,14,337.9,522.5)" />
<use xlink:href="#f6_c8" transform="matrix(14,0,0,14,349.5,522.5)" />
<use xlink:href="#f6_dr" transform="matrix(14,0,0,14,365.8,522.5)" />
<use xlink:href="#f6_bt" transform="matrix(14,0,0,14,365.4,522.5)" />
<use xlink:href="#f6_br" transform="matrix(14,0,0,14,382.8,522.5)" />
<use xlink:href="#f6_ob" transform="matrix(14,0,0,14,394.4,522.5)" />
<use xlink:href="#f6_bg" transform="matrix(14,0,0,14,400.1,522.5)" />
<use xlink:href="#f6_d8" transform="matrix(14,0,0,14,414.3,522.5)" />
<use xlink:href="#f6_bv" transform="matrix(14,0,0,14,425.6,522.5)" />
<use xlink:href="#f6_ct" transform="matrix(14,0,0,14,437.5,522.5)" />
<use xlink:href="#f6_c1" transform="matrix(14,0,0,14,443.1,522.5)" />
<use xlink:href="#f6_cb" transform="matrix(14,0,0,14,451.5,522.5)" />
<use xlink:href="#f6_bt" transform="matrix(14,0,0,14,472,522.5)" />
<use xlink:href="#f6_ct" transform="matrix(14,0,0,14,483.7,522.5)" />
<use xlink:href="#f6_no" transform="matrix(14,0,0,14,489.4,522.5)" />
<use xlink:href="#f6_bq" transform="matrix(14,0,0,14,489.4,522.5)" />
<use xlink:href="#f6_bq" transform="matrix(14,0,0,14,132.1,556.9)" />
<use xlink:href="#f6_d4" transform="matrix(14,0,0,14,145.4,556.9)" />
<use xlink:href="#f6_bp" transform="matrix(14,0,0,14,150.9,556.9)" />
<use xlink:href="#f6_d8" transform="matrix(14,0,0,14,163.2,556.9)" />
<use xlink:href="#f6_cc" transform="matrix(14,0,0,14,174.5,556.9)" />
<use xlink:href="#f6_c1" transform="matrix(14,0,0,14,186.1,556.9)" />
<use xlink:href="#f6_br" transform="matrix(14,0,0,14,200.2,556.9)" />
<use xlink:href="#f6_bz" transform="matrix(14,0,0,14,211.9,556.9)" />
<use xlink:href="#f6_nr" transform="matrix(14,0,0,14,230.9,556.9)" />
<use xlink:href="#f6_c1" transform="matrix(14,0,0,14,236.5,556.9)" />
<use xlink:href="#f6_bg" transform="matrix(14,0,0,14,244.9,556.9)" />
<use xlink:href="#f6_d8" transform="matrix(14,0,0,14,259.1,556.9)" />
<use xlink:href="#f6_cb" transform="matrix(14,0,0,14,270.4,556.9)" />
<use xlink:href="#f6_ct" transform="matrix(14,0,0,14,285.3,556.9)" />
<use xlink:href="#f6_no" transform="matrix(14,0,0,14,290.9,556.9)" />
<use xlink:href="#f6_bq" transform="matrix(14,0,0,14,290.9,556.9)" />
<use xlink:href="#f6_am" transform="matrix(14,0,0,14,309.8,556.9)" />
<use xlink:href="#f6_b1" transform="matrix(14,0,0,14,331.2,556.9)" />
<use xlink:href="#f6_am" transform="matrix(14,0,0,14,358.4,556.9)" />
<use xlink:href="#f6_b1" transform="matrix(14,0,0,14,379.9,556.9)" />
<use xlink:href="#f6_bv" transform="matrix(14,0,0,14,412.7,556.9)" />
<use xlink:href="#f6_ct" transform="matrix(14,0,0,14,424.6,556.9)" />
<use xlink:href="#f6_c1" transform="matrix(14,0,0,14,430.2,556.9)" />
<use xlink:href="#f6_cb" transform="matrix(14,0,0,14,438.6,556.9)" />
<use xlink:href="#f6_bt" transform="matrix(14,0,0,14,459.1,556.9)" />
<use xlink:href="#f6_ct" transform="matrix(14,0,0,14,470.8,556.9)" />
<use xlink:href="#f6_no" transform="matrix(14,0,0,14,476.4,556.9)" />
<use xlink:href="#f6_bq" transform="matrix(14,0,0,14,476.4,556.9)" />
<use xlink:href="#f6_bx" transform="matrix(14,0,0,14,216.9,591.3)" />
<use xlink:href="#f6_d5" transform="matrix(14,0,0,14,229.3,591.3)" />
<use xlink:href="#f6_bl" transform="matrix(14,0,0,14,229.2,591.3)" />
<use xlink:href="#f6_ct" transform="matrix(14,0,0,14,241.5,591.3)" />
<use xlink:href="#f6_bt" transform="matrix(14,0,0,14,252.8,591.3)" />
<use xlink:href="#f6_ct" transform="matrix(14,0,0,14,264.5,591.3)" />
<use xlink:href="#f6_b9" transform="matrix(14,0,0,14,270.1,591.3)" />
<use xlink:href="#f6_d8" transform="matrix(14,0,0,14,285.6,591.3)" />
<use xlink:href="#f6_ch" transform="matrix(14,0,0,14,291.3,591.3)" />
<use xlink:href="#f6_ct" transform="matrix(14,0,0,14,303.9,591.3)" />
<use xlink:href="#f6_bt" transform="matrix(14,0,0,14,315.2,591.3)" />
<use xlink:href="#f6_bb" transform="matrix(14,0,0,14,326.9,591.3)" />
<use xlink:href="#f6_c1" transform="matrix(14,0,0,14,339.5,591.3)" />
<use xlink:href="#f6_cv" transform="matrix(14,0,0,14,347.9,591.3)" />
<use xlink:href="#f6_bz" transform="matrix(14,0,0,14,359.2,591.3)" />
<use xlink:href="#f6_p3" transform="matrix(14,0,0,14,372.7,591.3)" />
<use xlink:href="#f6_pc" transform="matrix(14,0,0,14,378.2,591.3)" />
<use xlink:href="#f6_pc" transform="matrix(14,0,0,14,382.5,591.3)" />
<use xlink:href="#f6_pc" transform="matrix(14,0,0,14,386.8,591.3)" />
<use xlink:href="#f6_pc" transform="matrix(14,0,0,14,391,591.3)" />
<use xlink:href="#f6_pc" transform="matrix(14,0,0,14,395.3,591.3)" />
<use xlink:href="#f6_pc" transform="matrix(14,0,0,14,399.6,591.3)" />
<use xlink:href="#f7_4r" transform="matrix(9,0,0,9,290.2,795.2)" />
<use xlink:href="#f8_m" transform="matrix(9,0,0,9,303,795.2)" />
<use xlink:href="#f8_p" transform="matrix(9,0,0,9,310.7,795.2)" />
<use xlink:href="#f7_4r" transform="matrix(9,0,0,9,321.3,795.2)" />
</g>
</g>
<image preserveAspectRatio="none" x="22" y="801" width="581" height="86" xlink:href="img/1.png"/>
<path d="M218.9,83.6H403.3v1.2H218.9V83.6Z" class="g1_31"/>
<image preserveAspectRatio="none" x="202" y="14" width="217" height="26" xlink:href="img/2.png"/>
<defs>
<path d="M341,121c0,0,-90,30,-191,128c0,0,-100,98,-127,183l52,81H197L183,822H0L-86,937l32,64H639L726,886L694,822H325L429,749l2,-236H767L823,306H432V170L341,121Z"
id="f5_lq"
transform="scale(0.001,-0.001)"/>

<path d="M756,-314c0,0,-304,57,-481,187C275,-127,98,2,98,170c0,0,0,117,82,197c0,0,-110,91,-110,195c0,0,0,74,64,127c0,0,63,54,188,54H567v79H0L-86,937l32,64H906L992,886L959,822H684L787,749V535H383c0,0,-110,0,-110,-67c0,0,0,-19,10,-36c0,0,78,32,174,32c0,0,162,0,277,-87c0,0,115,-87,115,-214c0,0,0,-143,-142,-228L518,76c0,0,125,94,145,173c0,0,-55,26,-113,26c0,0,-84,0,-144,-45c0,0,-59,-45,-59,-118c0,0,0,-107,121,-166c0,0,120,-60,336,-105L756,-314Z"
id="f5_cc"
transform="scale(0.001,-0.001)"/>

<path d="M277,-65L102,29V822H0L-86,937l32,64H463L548,886L516,822H244L347,749V-31L277,-65Z"
id="f5_ct"
transform="scale(0.001,-0.001)"/>

<path d="M545,-97L35,405L87,542H295c0,0,1,5,1,280H0L-86,937l32,64H729L814,886L782,822H445L550,749V547c0,0,0,-75,-41,-127c0,0,-41,-52,-129,-111L709,110V41L545,-97Z"
id="f5_c1"
transform="scale(0.001,-0.001)"/>

<path d="M503,170c0,0,-153,0,-298,130C205,300,60,431,60,578V822H0L-86,937l32,64H562L649,886L617,822H214L318,749V403c0,0,30,-29,81,-29c0,0,59,0,118,38c0,0,59,37,93,100L770,333C770,333,666,170,503,170Z"
id="f5_ll"
transform="scale(0.001,-0.001)"/>

<path d="M368,290c0,0,83,0,161,44c0,0,78,43,116,117V822H382c0,0,136,-107,136,-225c0,0,0,-74,-55,-131c0,0,-55,-57,-165,-83c0,0,15,-48,44,-91l26,-2ZM819,-65L645,29V139c0,0,-60,-31,-130,-31c0,0,-145,0,-279,109c0,0,-134,108,-208,287l29,78c0,0,128,15,181,43c0,0,54,27,54,73c0,0,0,61,-96,124H0L-86,937l32,64H1004l87,-115l-32,-64H787L889,749V-31L819,-65Z"
id="f5_c0"
transform="scale(0.001,-0.001)"/>

<path d="M394,379c0,0,57,0,107,30c0,0,51,29,77,86V822H214L318,749V403c0,0,29,-24,76,-24ZM752,-65L578,29V188c0,0,-43,-18,-89,-18c0,0,-138,0,-282,130C207,300,63,431,60,567V822H0L-86,937l32,64H937l87,-115L992,822H720L822,749V-31L752,-65Z"
id="f5_bv"
transform="scale(0.001,-0.001)"/>

<path d="M833,530V822H434L539,749V530ZM533,-97L23,405L75,542H284c0,0,2,5,2,280H-10L-97,937l32,64H1193l86,-115l-32,-64H975l102,-73V-31l-70,-34L833,29V333H405L370,309L697,110V41L533,-97Z"
id="f5_cb"
transform="scale(0.001,-0.001)"/>

<path d="M746,-65L571,29V419H376V260L275,212c0,0,-87,48,-160,148c0,0,-72,100,-91,193l57,84H571V822H0L-86,937l32,64H930l88,-115L985,822H713L816,749V-31L746,-65Z"
id="f5_bt"
transform="scale(0.001,-0.001)"/>

<path d="M0,822L-86,937l32,64H15L101,886L69,822Z"
id="f5_no"
transform="scale(0.001,-0.001)"/>

<path d="M842,-65L668,29V141c0,0,-66,-33,-142,-33c0,0,-146,0,-279,109c0,0,-134,108,-209,287l29,78c0,0,324,35,324,203c0,0,0,46,-27,80c0,0,-13,6,-29,6c0,0,-32,0,-57,-23c0,0,-24,-23,-24,-60c0,0,0,-49,45,-91L211,636C211,636,49,746,49,857c0,0,0,73,59,126c0,0,60,53,146,53c0,0,128,0,236,-109c0,0,107,-110,107,-239c0,0,0,-98,-74,-182c0,0,-75,-83,-222,-119c0,0,20,-51,52,-95c0,0,1,0,4,0c20,0,102,2,181,39c0,0,90,42,130,121V822H636L550,937l32,64h445l85,-115l-32,-64H810L912,749V-31L842,-65Z"
id="f5_bq"
transform="scale(0.001,-0.001)"/>

<path d="M348,229c0,0,57,0,106,17L263,559c0,0,-95,-50,-95,-162c0,0,0,-75,52,-136c0,0,49,-32,128,-32Zm170,48c0,0,61,38,96,91V504c0,0,-131,80,-244,80l-35,-2L518,277ZM704,-49L614,8V193c0,0,-84,-65,-192,-65c0,0,-139,0,-255,98c0,0,-115,98,-115,226c0,0,0,106,77,175c0,0,77,70,189,70c0,0,38,0,75,-9L614,578V822H0l-45,76l14,31H878l46,-76L911,822H675l66,-58V-39L704,-49Z"
id="f6_bx"
transform="scale(0.001,-0.001)"/>

<path d="M-214,860l-227,219c0,0,-73,70,-148,70c0,0,-67,0,-160,-58l-72,117c0,0,83,71,176,71c0,0,120,0,232,-124L-221,940l-102,294c0,0,-64,179,-189,179c0,0,-60,0,-133,-33l-60,125c0,0,84,47,164,47c0,0,200,0,281,-276L-150,901l-23,-15l-41,-26Z"
id="f6_d5"
transform="scale(0.001,-0.001)"/>

<path d="M449,79c0,0,103,0,168,61c0,0,66,60,66,149c0,0,0,93,-84,186H420c0,0,-107,0,-164,-50c0,0,-57,-51,-57,-126c0,0,0,-108,99,-184c0,0,81,-36,151,-36Zm67,-96c0,0,-168,0,-301,109C215,92,81,202,81,350c0,0,0,114,83,182c0,0,84,68,229,68H507V822H0l-45,76l14,31H883l46,-76L915,822H568l66,-58V532c0,0,87,-64,130,-144c0,0,43,-79,43,-157c0,0,0,-109,-81,-179c0,0,-81,-69,-210,-69Z"
id="f6_bl"
transform="scale(0.001,-0.001)"/>

<path d="M228,-49L138,8V822H0l-45,76l14,31H402l46,-76L434,822H199l65,-58V-39L228,-49Z"
id="f6_ct"
transform="scale(0.001,-0.001)"/>

<path d="M663,-49L573,8V445H299V280L226,251c0,0,-105,99,-162,238l63,72H573V822H0l-45,76l14,31H837l46,-76L869,822H634l66,-58V-39L663,-49Z"
id="f6_bt"
transform="scale(0.001,-0.001)"/>

<path d="M283,260c0,0,122,0,209,113V513c0,0,-90,51,-160,51c0,0,-80,0,-129,-50c0,0,-49,-50,-49,-118c0,0,0,-60,35,-110c0,0,45,-26,94,-26ZM582,-49L492,8V211c0,0,-63,-54,-141,-54c0,0,-113,0,-213,92c0,0,-100,92,-100,205c0,0,0,93,69,157c0,0,69,64,162,64c0,0,32,0,64,-9L492,590V822H0l-45,76l14,31H1108l45,-76l-13,-31H553l66,-58V524c0,0,91,89,192,89c0,0,98,0,171,-79c0,0,72,-79,72,-186c0,0,0,-178,-224,-330L736,124c0,0,219,153,219,269c0,0,0,44,-26,75c0,0,-26,32,-81,32c0,0,-109,0,-229,-155V-39L582,-49Z"
id="f6_b9"
transform="scale(0.001,-0.001)"/>

<path d="M228,-49L138,8V822H0l-45,76l14,31H119L-33,1144c0,0,-70,92,-157,92c0,0,-69,0,-159,-58l-72,118c0,0,89,73,181,73c0,0,140,0,257,-170L205,929H402l46,-76L434,822H199l65,-58V-39L228,-49Z"
id="f6_d8"
transform="scale(0.001,-0.001)"/>

<path d="M547,-285c0,0,-66,25,-102,80c0,0,32,69,82,101c0,0,55,-20,99,-80c0,0,-26,-67,-79,-101Zm1,228c0,0,-122,0,-243,81c0,0,-122,81,-252,280l57,41C110,345,283,64,498,64c0,0,92,0,153,49c0,0,61,49,61,121c0,0,0,46,-28,84L440,237c0,0,-73,11,-139,55c0,0,-66,44,-105,105c0,0,-40,61,-40,119c0,0,0,72,62,125c0,0,62,53,184,53H625V822H0l-45,76l14,31H906l46,-76L938,822H678l66,-58V562H431c0,0,-164,0,-164,-99c0,0,0,-55,57,-102l261,82c0,0,104,-21,172,-98c0,0,68,-78,68,-171c0,0,0,-99,-76,-166c0,0,-77,-65,-201,-65Z"
id="f6_ch"
transform="scale(0.001,-0.001)"/>

<path d="M727,-49L637,8V822H278l66,-58V226L270,196c0,0,-64,36,-122,98c0,0,-58,62,-79,122l43,59H217V822H0l-45,76l14,31H901l46,-76L933,822H698l66,-58V-39L727,-49Z"
id="f6_bb"
transform="scale(0.001,-0.001)"/>

<path d="M527,-71L52,414l34,92H277c0,0,12,32,12,72V822H0l-45,76l14,31H599l46,-76L631,822H350l66,-55V564c0,0,0,-96,-152,-248L610,34L611,8L527,-71Z"
id="f6_c1"
transform="scale(0.001,-0.001)"/>

<path d="M228,-49L138,8V822H0l-45,76l14,31H138c0,0,-109,342,-284,342c0,0,-62,0,-102,-40c0,0,-40,-39,-40,-93c0,0,0,-61,51,-134l-42,-32c0,0,-128,113,-128,226c0,0,0,79,60,136c0,0,61,56,154,56c0,0,137,0,249,-125c0,0,112,-125,169,-336H402l46,-76L434,822H199l65,-58V-39L228,-49Z"
id="f6_cv"
transform="scale(0.001,-0.001)"/>

<path d="M689,445V822H286l65,-58l8,-319ZM779,-49L689,8V328H370V180L296,150c0,0,-56,35,-120,104c0,0,-63,70,-89,131l41,60H238L223,822H0l-45,76l14,31H953l46,-76L985,822H750l66,-58V-39L779,-49Z"
id="f6_bz"
transform="scale(0.001,-0.001)"/>

<path d="M-91,1001c0,0,-27,10,-61,36c0,0,-33,26,-50,49c0,0,38,81,90,110c0,0,61,-23,107,-85c0,0,-28,-71,-86,-110ZM-214,863l-199,281c0,0,-70,92,-157,92c0,0,-69,0,-159,-58l-72,118c0,0,89,73,180,73c0,0,141,0,258,-170L-155,901l-59,-38Z"
id="f6_oz"
transform="scale(0.001,-0.001)"/>

<path d="M266,150c0,0,-57,35,-120,104c0,0,-63,70,-89,131l41,60H211L194,822H0l-45,76l14,31H587l46,-76L619,822H255l66,-58l7,-319H688L721,328H339V180L266,150Z"
id="f6_lq"
transform="scale(0.001,-0.001)"/>

<path d="M688,-243c0,0,-256,53,-408,173c0,0,-152,119,-152,270c0,0,0,101,68,171c0,0,-101,84,-101,179c0,0,0,64,53,112c0,0,54,47,191,47H587V822H0l-45,76l14,31H830l45,-76L862,822H640l66,-58V585H362c0,0,-159,-1,-159,-92c0,0,0,-41,46,-80c0,0,76,47,183,47c0,0,135,0,230,-76c0,0,96,-75,96,-187C758,197,758,67,629,2L545,104c0,0,49,30,81,75c0,0,32,44,32,82c0,0,0,16,-4,26c0,0,-64,58,-167,58c0,0,-97,0,-166,-50v-2c0,0,-67,-52,-67,-131c0,0,0,-116,132,-199c0,0,132,-84,334,-132l-32,-74Z"
id="f6_cc"
transform="scale(0.001,-0.001)"/>

<path d="M438,206c0,0,-119,0,-226,109c0,0,-108,108,-108,243V822H0l-45,76l14,31H542l46,-76L574,822H165l66,-58V408c0,0,46,-86,151,-86c0,0,61,0,119,32c0,0,58,33,95,91L669,338c0,0,-44,-66,-108,-99c0,0,-63,-33,-123,-33Z"
id="f6_ll"
transform="scale(0.001,-0.001)"/>

<path d="M374,248c0,0,77,0,149,36c0,0,71,37,110,107V822H284c0,0,138,-96,138,-208c0,0,0,-151,-228,-192c0,0,29,-104,89,-158c0,0,41,-16,91,-16ZM723,-49L633,8V200c0,0,-69,-56,-170,-56c0,0,-122,0,-240,94c0,0,-118,94,-179,237l20,55c0,0,133,17,187,44c0,0,55,28,55,84c0,0,0,45,-30,81c0,0,-30,36,-99,83H0l-45,76l14,31H897l46,-76L929,822H694l65,-58V-39L723,-49Z"
id="f6_c0"
transform="scale(0.001,-0.001)"/>

<path d="M388,325c0,0,58,0,112,31c0,0,53,31,84,86V822H165l69,-58V408c0,0,47,-83,154,-83ZM674,-49L584,8V257c0,0,-61,-51,-141,-51c0,0,-125,0,-232,109c0,0,-107,108,-107,243V822H0l-45,76l14,31H848l46,-76L880,822H645l65,-58V-39L674,-49Z"
id="f6_bv"
transform="scale(0.001,-0.001)"/>

<path d="M799,475V822H350l66,-55V564c0,0,0,-43,-25,-89ZM527,-71L52,414l34,92H277c0,0,12,32,12,72V822H0l-45,76l14,31H1063l46,-76l-14,-31H860l66,-58V-39L889,-49L799,8V370H315L264,316L610,34L611,8L527,-71Z"
id="f6_cb"
transform="scale(0.001,-0.001)"/>

<path d="M0,822l-45,76l14,31H61l46,-76L93,822Z"
id="f6_no"
transform="scale(0.001,-0.001)"/>

<path d="M768,-49L678,8V202c0,0,-73,-58,-172,-58c0,0,-123,0,-240,94c0,0,-118,94,-179,237l20,55c0,0,134,12,215,70c0,0,81,57,81,141c0,0,0,90,-67,134l-26,3c0,0,-46,0,-74,-29c0,0,-28,-30,-28,-68c0,0,0,-55,82,-109L252,620C252,620,93,720,93,820c0,0,0,65,47,104c0,0,46,40,114,40c0,0,99,0,179,-83c0,0,80,-83,82,-197c0,0,0,-93,-79,-165c0,0,-78,-73,-199,-97c0,0,29,-104,88,-158c0,0,42,-16,92,-16c0,0,78,0,151,38c0,0,74,38,110,111V822H553l-46,76l14,31H943l45,-76L975,822H739l66,-58V-39L768,-49Z"
id="f6_bq"
transform="scale(0.001,-0.001)"/>

<path d="M92,380L46,457l14,30H448l45,-76L480,380Z"
id="f6_pd"
transform="scale(0.001,-0.001)"/>

<path d="M95,0L67,98L422,497c0,0,130,154,130,259c0,0,0,63,-40,111c0,0,-40,48,-121,48c0,0,-75,0,-171,-29L193,695l-88,2c0,0,-13,82,-13,165l1,65c0,0,159,97,315,97c0,0,122,0,207,-78c0,0,85,-77,85,-193c0,0,0,-67,-34,-133c0,0,-33,-67,-165,-217L237,121l4,-14l373,21l49,136l83,-12C746,252,732,99,704,0Z"
id="f6_q"
transform="scale(0.001,-0.001)"/>

<path d="M-40,1030c0,0,-28,10,-61,36c0,0,-34,26,-51,49c0,0,38,81,90,110c0,0,61,-23,106,-85c0,0,-27,-71,-84,-110ZM-214,860l-227,219c0,0,-73,70,-148,70c0,0,-67,0,-160,-58l-72,117c0,0,83,71,176,71c0,0,120,0,232,-124L-221,940l-102,294c0,0,-64,179,-189,179c0,0,-60,0,-133,-33l-60,125c0,0,84,47,164,47c0,0,200,0,281,-276L-150,901l-23,-15l-41,-26Z"
id="f6_p3"
transform="scale(0.001,-0.001)"/>

<path d="M347,-57C347,-57,66,211,66,394c0,0,0,98,74,164c0,0,74,65,225,65H616V822H0l-45,76l14,31H880l46,-76L912,822H677l66,-58V-39L706,-49L616,8V500H428c0,0,-239,0,-239,-161c0,0,0,-136,214,-343L347,-57Z"
id="f6_bp"
transform="scale(0.001,-0.001)"/>

<path d="M959,-49L869,8V367c0,0,-32,-13,-64,-13c0,0,-50,0,-110,25c0,0,23,-52,23,-109c0,0,0,-103,-70,-170c0,0,-70,-66,-182,-66c0,0,-110,0,-222,82c0,0,-111,83,-213,293l68,42c0,0,72,-155,152,-231c0,0,81,-76,178,-76c0,0,83,0,131,49c0,0,48,48,48,117c0,0,0,54,-30,100c0,0,-31,47,-91,65L325,391L257,512c0,0,68,53,156,56c0,0,140,72,140,179c0,0,0,69,-52,99c0,0,-4,1,-11,1c-19,0,-66,-4,-123,-30c0,0,-78,-35,-142,-96L150,823c0,0,119,117,253,117c0,0,98,0,175,-71c0,0,77,-70,77,-159c0,0,0,-103,-94,-180c0,0,39,-23,73,-56c0,0,52,-22,109,-22c0,0,77,0,126,38V822H727l-46,76l14,31h439l45,-76l-13,-31H930l66,-58V-39L959,-49Z"
id="f6_al"
transform="scale(0.001,-0.001)"/>

<path d="M845,-49L755,8V513H497c0,0,61,-45,93,-110c0,0,33,-64,33,-128c0,0,0,-90,-58,-144c0,0,-59,-53,-143,-53c0,0,-133,0,-234,139C188,217,87,356,20,596l76,24c0,0,60,-201,127,-306c0,0,67,-105,160,-105c0,0,57,0,91,36c0,0,33,36,33,91c0,0,0,84,-73,159L295,558v71H755V822H0l-45,76l14,31H1019l46,-76l-14,-31H816l66,-58V-39L845,-49Z"
id="f6_bg"
transform="scale(0.001,-0.001)"/>

<path d="M-239,897c0,0,-82,61,-132,137c0,0,-50,75,-50,150c0,0,0,78,52,133c0,0,52,55,141,55c0,0,98,0,176,-64l-23,-69c0,0,-52,32,-104,32c0,0,-57,0,-95,-36c0,0,-38,-36,-38,-95c0,0,0,-115,117,-217l-44,-26Z"
id="f6_dr"
transform="scale(0.001,-0.001)"/>

<path d="M527,-71L52,414l34,92H277c0,0,12,32,12,72V822H0l-45,76l14,31H940l45,-76L972,822H350l66,-55V553c0,0,24,52,77,83c0,0,52,30,112,30c0,0,87,0,171,-76c0,0,84,-75,222,-304L938,244L828,411c0,0,-95,134,-195,134c0,0,-63,0,-100,-35c0,0,-36,-36,-36,-87c0,0,0,-50,42,-87l152,99L755,315c0,0,-71,-61,-148,-61c0,0,-80,0,-146,66c0,0,-65,67,-65,164c0,0,-34,-70,-132,-168L610,34L611,8L527,-71Z"
id="f6_n1"
transform="scale(0.001,-0.001)"/>

<path d="M228,-49L138,8V822H0l-45,76l14,31H134c0,0,-91,92,-91,191c0,0,0,105,85,170c0,0,84,65,219,65c0,0,128,0,293,-76c0,0,165,-77,362,-263L958,966c0,0,-177,143,-303,210c0,0,-125,68,-244,68c0,0,-107,0,-175,-50c0,0,-68,-50,-68,-131c0,0,0,-61,49,-134H402l46,-76L434,822H199l65,-58V-39L228,-49Z"
id="f6_cu"
transform="scale(0.001,-0.001)"/>

<path d="M675,-274L602,21C602,21,550,3,498,3C498,3,347,3,210,118C210,118,73,232,73,373c0,0,0,113,84,184c0,0,84,71,222,72H524V822H0l-45,76l14,31H834l46,-76L866,822H585l66,-58V504l-3,2l3,-3H408c0,0,-95,0,-154,-53c0,0,-58,-53,-58,-132c0,0,0,-49,27,-100c0,0,28,-50,83,-84c0,0,44,-15,96,-15c0,0,91,0,160,46L535,303l101,48L773,188c0,0,-8,-28,-34,-66c0,0,-27,-38,-62,-64L813,-221L675,-274Z"
id="f6_br"
transform="scale(0.001,-0.001)"/>

<path d="M513,460c0,0,61,81,61,179c0,0,0,87,-45,143c0,0,-45,57,-116,57c0,0,-63,0,-102,-43c0,0,-39,-43,-39,-110c0,0,0,-90,68,-151c0,0,68,-61,173,-75ZM581,-83L278,167l-41,-4c0,0,-99,0,-130,37l47,168l51,12l78,-79c0,0,110,40,183,105c0,0,-141,23,-231,107c0,0,-90,84,-90,193c0,0,0,69,37,116H0l-45,76l14,31H1134l45,-76l-13,-31H930l66,-58V-39L959,-49L869,8V822H588c0,0,51,-44,75,-109c0,0,25,-64,25,-122c0,0,0,-105,-81,-213c0,0,-80,-108,-240,-176L658,18l2,-25L581,-83Z"
id="f6_c8"
transform="scale(0.001,-0.001)"/>

<path d="M228,-49L138,8V822H0l-45,76l14,31H136c0,0,-173,353,-364,353c0,0,-75,0,-119,-44c0,0,-45,-45,-45,-106c0,0,0,-69,48,-128l-43,-32c0,0,-124,113,-124,224c0,0,0,87,67,146c0,0,68,59,167,59c0,0,150,0,283,-130c0,0,135,-130,219,-342H402l46,-76L434,822H199l65,-58V-39L228,-49Z"
id="f6_ob"
transform="scale(0.001,-0.001)"/>

<path d="M634,-49L249,296c0,0,-1,0,-3,0c-11,0,-48,1,-90,15c0,0,-51,16,-67,36l49,165l50,12l84,-98c0,0,125,31,191,104c0,0,66,73,66,165c0,0,0,109,-95,170c0,0,-2,0,-6,0C397,865,262,858,121,738L46,848c0,0,52,47,127,82c0,0,75,34,152,34c0,0,130,0,226,-94c0,0,95,-94,95,-218c0,0,0,-107,-77,-199c0,0,-77,-92,-216,-134L697,26L698,0L634,-49Z"
id="f6_n8"
transform="scale(0.001,-0.001)"/>

<path d="M-214,863l-199,281c0,0,-70,92,-157,92c0,0,-69,0,-159,-58l-72,118c0,0,89,73,180,73c0,0,141,0,258,-170L-155,901l-59,-38Z"
id="f6_d4"
transform="scale(0.001,-0.001)"/>

<path d="M825,-49L735,8V217c0,0,-86,-72,-197,-72c0,0,-130,0,-238,91c0,0,-107,91,-107,204c0,0,0,55,27,105H55L12,616l14,30H574l46,-76L607,539H396c0,0,-78,-49,-78,-162c0,0,0,-70,40,-111c0,0,39,-15,94,-15c0,0,84,0,163,41c0,0,79,41,120,121V822H0l-45,76l14,31H999l46,-76l-14,-31H796l66,-58V-39L825,-49Z"
id="f6_be"
transform="scale(0.001,-0.001)"/>

<path d="M180,196c0,0,-105,99,-162,238l63,72H573l40,-86L591,390H254V225L180,196ZM0,822l-45,76l14,31H409l46,-76L442,822Z"
id="f6_lj"
transform="scale(0.001,-0.001)"/>

<path d="M413,-59C413,-59,53,193,53,416c0,0,0,97,66,164c0,0,66,66,156,66c0,0,61,0,110,-30L487,507c0,0,92,126,257,126l35,-2V822H0l-45,76l14,31H1043l46,-76l-13,-31H840l66,-58V-39L869,-49L779,8V547c0,0,-101,-5,-165,-90c0,0,-64,-86,-70,-222L507,225l-90,73c0,0,5,79,35,151c0,0,-59,66,-128,66c0,0,-57,0,-100,-38c0,0,-44,-39,-44,-109c0,0,0,-165,284,-360L413,-59Z"
id="f6_c3"
transform="scale(0.001,-0.001)"/>

<path d="M471,-26c0,0,-259,0,-448,396l70,43C93,413,240,98,442,98c0,0,79,0,132,46c0,0,54,45,54,120c0,0,0,61,-38,116c0,0,-38,54,-107,72L322,370L255,492c0,0,66,53,156,56c0,0,128,51,128,153c0,0,0,77,-65,121H0l-45,76l14,31H1123l46,-76l-14,-31H578c0,0,76,-66,76,-157c0,0,0,-95,-87,-156c0,0,52,-29,84,-64c0,0,131,134,243,134c0,0,93,0,158,-70c0,0,65,-71,65,-167c0,0,0,-142,-177,-272L851,170c0,0,173,129,173,230c0,0,0,34,-23,57c0,0,-23,23,-63,23c0,0,-104,0,-215,-141c0,0,23,-55,23,-111c0,0,0,-109,-78,-182c0,0,-78,-72,-197,-72Z"
id="f6_aq"
transform="scale(0.001,-0.001)"/>

<path d="M0,1062c0,0,-26,11,-60,36c0,0,-34,26,-51,49c0,0,39,81,91,110c0,0,60,-23,106,-85c0,0,-28,-70,-86,-110Z"
id="f6_dj"
transform="scale(0.001,-0.001)"/>

<path d="M228,-49L138,8V822H0l-45,76l14,31H134c0,0,-91,93,-91,202c0,0,0,105,85,170c0,0,86,65,236,65c0,0,340,0,742,-350l-50,-46c0,0,-182,135,-340,208c0,0,-158,73,-302,73c0,0,-113,0,-183,-48c0,0,-69,-48,-69,-132c0,0,0,-63,53,-142H402l46,-76L434,822H199l65,-58V-39L228,-49Z"
id="f6_nt"
transform="scale(0.001,-0.001)"/>

<path d="M823,-49L733,8V339H445V191L371,160c0,0,-56,36,-120,105c0,0,-63,70,-89,131l41,59H313V735c0,0,0,99,-55,140c0,0,-3,1,-8,1c-16,0,-48,-3,-71,-23c0,0,-31,-26,-31,-66c0,0,0,-69,81,-113L189,620C189,620,31,720,31,828c0,0,0,61,45,99c0,0,46,37,109,37c0,0,96,0,173,-86c0,0,76,-87,79,-194V455H733V822H556l-46,76l14,31H998l45,-76l-13,-31H794l66,-58V-39L823,-49Z"
id="f6_by"
transform="scale(0.001,-0.001)"/>

<path d="M228,-49L138,8V822H0l-45,76l14,31H134c0,0,-85,93,-85,192c0,0,0,124,129,195c0,0,129,71,364,71c0,0,285,0,647,-97c0,0,363,-97,692,-271l-42,-50c0,0,-313,137,-644,221c0,0,-332,84,-595,84c0,0,-198,0,-314,-55c0,0,-115,-55,-115,-163c0,0,0,-60,44,-127H402l46,-76L434,822H199l65,-58V-39L228,-49Z"
id="f6_o0"
transform="scale(0.001,-0.001)"/>

<path d="M283,260c0,0,122,0,209,113V513c0,0,-90,51,-160,51c0,0,-80,0,-129,-50c0,0,-49,-50,-49,-118c0,0,0,-60,35,-110c0,0,45,-26,94,-26ZM582,-49L492,8V211c0,0,-63,-54,-141,-54c0,0,-113,0,-214,92c0,0,-102,92,-102,206c0,0,0,93,69,157c0,0,69,63,163,63c0,0,34,0,66,-9L492,590V822H0l-45,76l14,31H909l46,-76L941,822H553l66,-58V521c0,0,93,104,192,104c0,0,63,0,120,-42c0,0,57,-42,82,-106L964,431l-5,9c0,0,-38,72,-110,72c0,0,-51,0,-105,-41c0,0,-53,-42,-125,-129V-39L582,-49Z"
id="f6_l1"
transform="scale(0.001,-0.001)"/>

<path d="M226,-49c0,0,-66,24,-102,78c0,0,32,69,82,101c0,0,55,-20,100,-80c0,0,-26,-66,-80,-99Z"
id="f6_pc"
transform="scale(0.001,-0.001)"/>

<path d="M342,324c0,0,45,0,75,34c0,0,31,33,31,100V822H165l66,-58V390c0,0,32,-66,111,-66ZM853,-49L762,8V822H509l65,-58V455c0,0,0,-134,-51,-185c0,0,-52,-52,-127,-52c0,0,-98,0,-195,99c0,0,-97,99,-97,209V822H0l-45,76l14,31H1027l46,-76l-14,-31H823l66,-58V-39L853,-49Z"
id="f6_bo"
transform="scale(0.001,-0.001)"/>

<path d="M959,-49L869,8V367c0,0,-32,-13,-64,-13c0,0,-50,0,-110,25c0,0,23,-52,23,-109c0,0,0,-103,-70,-170c0,0,-70,-66,-182,-66c0,0,-110,0,-222,82c0,0,-111,83,-213,293l68,42c0,0,72,-155,152,-231c0,0,81,-76,178,-76c0,0,83,0,131,49c0,0,48,48,48,117c0,0,0,54,-30,100c0,0,-31,47,-91,65L325,391L257,512c0,0,68,53,156,56c0,0,140,72,140,179c0,0,0,69,-52,99c0,0,-4,1,-11,1c-19,0,-66,-4,-123,-30c0,0,-78,-35,-142,-96L150,823c0,0,119,117,253,117c0,0,98,0,175,-71c0,0,77,-70,77,-159c0,0,0,-103,-94,-180c0,0,39,-23,73,-56c0,0,52,-22,109,-22c0,0,77,0,126,38V822H727l-46,76l14,31h840l46,-76l-13,-31H1332l66,-58V-39l-37,-10L1271,8V822H930l66,-58V-39L959,-49Z"
id="f6_am"
transform="scale(0.001,-0.001)"/>

<path d="M959,-49L869,8V367c0,0,-32,-13,-64,-13c0,0,-50,0,-110,25c0,0,23,-52,23,-109c0,0,0,-103,-70,-170c0,0,-70,-66,-182,-66c0,0,-110,0,-222,82c0,0,-111,83,-213,293l68,42c0,0,72,-155,152,-231c0,0,81,-76,178,-76c0,0,83,0,131,49c0,0,48,48,48,117c0,0,0,54,-30,100c0,0,-31,47,-91,65L325,391L257,512c0,0,68,53,156,56c0,0,140,72,140,179c0,0,0,69,-52,99c0,0,-4,1,-11,1c-19,0,-66,-4,-123,-30c0,0,-78,-35,-142,-96L150,823c0,0,119,117,253,117c0,0,98,0,175,-71c0,0,77,-70,77,-159c0,0,0,-103,-94,-180c0,0,39,-23,73,-56c0,0,52,-22,109,-22c0,0,77,0,126,38V822H727l-46,76l14,31h558l-153,215c0,0,-70,92,-157,92c0,0,-69,0,-159,-58l-72,118c0,0,89,73,180,73c0,0,141,0,258,-170L1338,929h197l46,-76l-13,-31H1332l66,-58V-39l-37,-10L1271,8V822H930l66,-58V-39L959,-49Z"
id="f6_b1"
transform="scale(0.001,-0.001)"/>

<path d="M105,752L61,810c0,0,43,30,72,76c0,0,29,46,32,89l-79,61c0,0,3,38,29,72c0,0,26,33,64,50c0,0,110,-43,110,-148c0,0,0,-72,-50,-141c0,0,-50,-70,-134,-117Zm249,0l-44,58c0,0,43,30,72,76c0,0,29,46,32,89l-79,61c0,0,3,38,29,72c0,0,26,33,64,50c0,0,110,-43,110,-148c0,0,0,-72,-50,-141c0,0,-50,-70,-134,-117Z"
id="f6_8g"
transform="scale(0.001,-0.001)"/>

<path d="M548,-57c0,0,-122,0,-243,81c0,0,-122,81,-252,280l57,41C110,345,283,64,498,64c0,0,92,0,153,49c0,0,61,49,61,121c0,0,0,46,-28,84L440,237c0,0,-73,11,-139,55c0,0,-66,44,-105,105c0,0,-40,61,-40,119c0,0,0,72,62,125c0,0,62,53,184,53H625V822H0l-45,76l14,31H906l46,-76L938,822H678l66,-58V562H431c0,0,-164,0,-164,-99c0,0,0,-55,57,-102l261,82c0,0,104,-21,172,-98c0,0,68,-78,68,-171c0,0,0,-99,-76,-166c0,0,-77,-65,-201,-65Z"
id="f6_bm"
transform="scale(0.001,-0.001)"/>

<path d="M325,240c0,0,77,0,154,35c0,0,77,35,120,99V500c0,0,-118,73,-222,73c0,0,-97,0,-151,-54c0,0,-53,-53,-53,-128c0,0,0,-73,49,-125c0,0,38,-26,103,-26ZM689,-49L599,8V199c0,0,-73,-65,-179,-65c0,0,-134,0,-252,96c0,0,-118,95,-118,221c0,0,0,102,78,171c0,0,78,69,190,69c0,0,38,0,75,-10L599,582V822H0l-45,76l14,31H863l46,-76L895,822H660l66,-58V-39L689,-49Z"
id="f6_c7"
transform="scale(0.001,-0.001)"/>

<path d="M228,-49L138,8V822H0l-45,76l14,31H133c0,0,-93,95,-93,206c0,0,0,96,68,159c0,0,68,63,179,63c0,0,118,0,228,-81c0,0,110,-80,258,-262L720,970L588,1109c0,0,-133,133,-253,133c0,0,-78,0,-127,-46c0,0,-49,-46,-49,-119c0,0,0,-69,56,-148H402l46,-76L434,822H199l65,-58V-39L228,-49Z"
id="f6_nr"
transform="scale(0.001,-0.001)"/>

<path d="M725,307c0,0,-95,0,-218,78c0,0,-123,78,-188,78c0,0,-54,0,-95,-34c0,0,-41,-34,-73,-100L93,362c0,0,38,88,101,146c0,0,63,59,148,59c0,0,90,0,214,-78c0,0,124,-79,188,-79c0,0,63,0,106,34c0,0,42,33,85,104l60,-40c0,0,-32,-66,-101,-134c0,0,-70,-67,-169,-67Z"
id="f7_4r"
transform="scale(0.001,-0.001)"/>

<path d="M46,0c0,0,-2,48,16,93c0,0,27,74,88,146c0,0,61,71,176,165c0,0,178,146,241,232c0,0,63,85,63,161c0,0,0,80,-57,135c0,0,-58,55,-149,55c0,0,-98,0,-156,-59c0,0,-58,-58,-59,-160L71,782c0,0,15,154,107,235c0,0,93,81,249,81c0,0,157,0,249,-87c0,0,92,-88,92,-217c0,0,0,-65,-27,-129c0,0,-27,-63,-89,-133c0,0,-62,-70,-207,-193C445,339,324,238,290,202c0,0,-35,-36,-57,-73H770V0Z"
id="f8_m"
transform="scale(0.001,-0.001)"/>

<path d="M415,-18c0,0,-149,0,-244,83c0,0,-94,84,-107,222l140,11c0,0,16,-103,73,-154c0,0,56,-52,137,-52c0,0,98,0,165,73c0,0,66,73,66,194c0,0,0,115,-64,182c0,0,-64,66,-169,66c0,0,-65,0,-117,-29c0,0,-52,-30,-82,-77L87,517l106,562H736V951H300L241,657c0,0,99,69,207,69c0,0,143,0,242,-100c0,0,98,-99,98,-255c0,0,0,-149,-86,-257C702,114,597,-18,415,-18Z"
id="f8_p"
transform="scale(0.001,-0.001)"/>


</defs>
</svg>