<?xml version="1.0" encoding="UTF-8" standalone="no"?>
<!DOCTYPE svg PUBLIC "-//W3C//DTD SVG 1.1//EN"
"http://www.w3.org/Graphics/SVG/1.1/DTD/svg11.dtd">
<svg viewBox="0 0 641 910" version="1.1" xmlns="http://www.w3.org/2000/svg" xmlns:xlink="http://www.w3.org/1999/xlink">
<defs>
<clipPath id="c0_62"><path d="M0,909.8V0H641.7V909.8Z"/></clipPath>
<clipPath id="c1_62"><path d="M0,908.6V0H641.7V908.6Z"/></clipPath>
<style type="text/css"><![CDATA[
.g0_62{
fill: #FFFFFF;
}
.g1_62{
}
]]></style>
</defs>
<path d="M0,0H641.7V909.8H0V0Z" class="g0_62"/>
<path d="M0,0H641.7V909.8H0V0Z" class="g0_62"/>
<g clip-path="url(#c0_62)">
<path d="M0,-50038.4H641.7V56407.1H0V-50038.4Z" class="g0_62"/>
</g>
<path d="M0,0H641.7V908.6H0V0Z" class="g0_62"/>
<path d="M19.5,60.7H602.7v1.2H19.5V60.7Z" class="g1_62"/>
<g clip-path="url(#c1_62)">
<path d="M0,61.9H641.7V909.8H0V61.9Z" class="g0_62"/>
</g>
<path d="M182.2,134.1H440v25.2H182.2V134.1Z" class="g0_62"/>
<path d="M199.4,159.3H422.8v25.2H199.4V159.3Z" class="g0_62"/>
<path d="M239.5,184.5H382.7v25.2H239.5V184.5Z" class="g0_62"/>
<path d="M208.5,234.9H413.6v25.2H208.5V234.9Z" class="g0_62"/>
<path d="M221.1,260.1H401v25.2H221.1V260.1Z" class="g0_62"/>
<path d="M233.8,285.3H388.4v25.2H233.8V285.3Z" class="g0_62"/>
<path d="M198.2,335.7H424v25.2H198.2V335.7Z" class="g0_62"/>
<path d="M208.5,360.9H413.6v25.2H208.5V360.9Z" class="g0_62"/>
<path d="M233.8,386.1H388.4v25.3H233.8V386.1Z" class="g0_62"/>
<path d="M208.5,436.6H413.6v25.2H208.5V436.6Z" class="g0_62"/>
<path d="M202.8,461.8H419.4V487H202.8V461.8Z" class="g0_62"/>
<path d="M230.3,487H391.9v25.2H230.3V487Z" class="g0_62"/>
<path d="M185.6,537.4h251v25.2h-251V537.4Z" class="g0_62"/>
<path d="M213.1,562.6h196v25.2h-196V562.6Z" class="g0_62"/>
<path d="M230.3,587.8H391.9V613H230.3V587.8Z" class="g0_62"/>
<path d="M190.2,638.2H432v25.2H190.2V638.2Z" class="g0_62"/>
<path d="M202.8,663.4H419.4v25.2H202.8V663.4Z" class="g0_62"/>
<path d="M230.3,688.6H391.9v25.3H230.3V688.6Z" class="g0_62"/>
<g clip-path="url(#c1_62)">
<g fill="#000000" >
<use xlink:href="#f5_n1" transform="matrix(14,0,0,14,220.3,96.3)" />
<use xlink:href="#f5_bz" transform="matrix(14,0,0,14,237.3,96.3)" />
<use xlink:href="#f5_bh" transform="matrix(14,0,0,14,257.6,96.3)" />
<use xlink:href="#f5_of" transform="matrix(14,0,0,14,275.2,96.2)" />
<use xlink:href="#f5_bz" transform="matrix(14,0,0,14,276.1,96.3)" />
<use xlink:href="#f5_b9" transform="matrix(14,0,0,14,296.3,96.3)" />
<use xlink:href="#f5_c1" transform="matrix(14,0,0,14,313.8,96.3)" />
<use xlink:href="#f5_bp" transform="matrix(14,0,0,14,324,96.3)" />
<use xlink:href="#f5_ct" transform="matrix(14,0,0,14,337.4,96.3)" />
<use xlink:href="#f5_bv" transform="matrix(14,0,0,14,349.5,96.3)" />
<use xlink:href="#f5_nl" transform="matrix(14,0,0,14,362.7,96.3)" />
<use xlink:href="#f5_bs" transform="matrix(14,0,0,14,362.7,96.3)" />
<use xlink:href="#f5_ct" transform="matrix(14,0,0,14,377.8,96.3)" />
<use xlink:href="#f5_c1" transform="matrix(14,0,0,14,384.3,96.3)" />
<use xlink:href="#f5_d8" transform="matrix(14,0,0,14,394.5,96.3)" />
<use xlink:href="#f6_n1" transform="matrix(14,0,0,14,181.3,154.7)" />
<use xlink:href="#f6_bz" transform="matrix(14,0,0,14,194.5,154.7)" />
<use xlink:href="#f6_bh" transform="matrix(14,0,0,14,213.5,154.7)" />
<use xlink:href="#f6_of" transform="matrix(14,0,0,14,230.3,154.6)" />
<use xlink:href="#f6_bz" transform="matrix(14,0,0,14,230.3,154.7)" />
<use xlink:href="#f6_b9" transform="matrix(14,0,0,14,249.3,154.7)" />
<use xlink:href="#f6_c1" transform="matrix(14,0,0,14,264.8,154.7)" />
<use xlink:href="#f6_bp" transform="matrix(14,0,0,14,273.2,154.7)" />
<use xlink:href="#f6_ct" transform="matrix(14,0,0,14,285.5,154.7)" />
<use xlink:href="#f6_bv" transform="matrix(14,0,0,14,296.8,154.7)" />
<use xlink:href="#f6_nl" transform="matrix(14,0,0,14,308.6,154.7)" />
<use xlink:href="#f6_bs" transform="matrix(14,0,0,14,308.6,154.7)" />
<use xlink:href="#f6_ct" transform="matrix(14,0,0,14,322.6,154.7)" />
<use xlink:href="#f6_c1" transform="matrix(14,0,0,14,328.2,154.7)" />
<use xlink:href="#f6_d8" transform="matrix(14,0,0,14,336.6,154.7)" />
<use xlink:href="#f6_bz" transform="matrix(14,0,0,14,347.9,154.7)" />
<use xlink:href="#f6_ct" transform="matrix(14,0,0,14,361.3,154.7)" />
<use xlink:href="#f6_c1" transform="matrix(14,0,0,14,366.9,154.7)" />
<use xlink:href="#f6_ct" transform="matrix(14,0,0,14,375.3,154.7)" />
<use xlink:href="#f6_by" transform="matrix(14,0,0,14,386.5,154.7)" />
<use xlink:href="#f6_d4" transform="matrix(14,0,0,14,400.6,154.7)" />
<use xlink:href="#f6_n1" transform="matrix(14,0,0,14,400.5,154.7)" />
<use xlink:href="#f6_bg" transform="matrix(14,0,0,14,419.3,154.7)" />
<use xlink:href="#f6_cv" transform="matrix(14,0,0,14,433.6,154.7)" />
<use xlink:href="#f6_bq" transform="matrix(14,0,0,14,198.5,179.9)" />
<use xlink:href="#f6_d8" transform="matrix(14,0,0,14,211.7,179.9)" />
<use xlink:href="#f6_c1" transform="matrix(14,0,0,14,217.3,179.9)" />
<use xlink:href="#f6_ct" transform="matrix(14,0,0,14,225.7,179.9)" />
<use xlink:href="#f6_bx" transform="matrix(14,0,0,14,237,179.9)" />
<use xlink:href="#f6_ct" transform="matrix(14,0,0,14,249.3,179.9)" />
<use xlink:href="#f6_c3" transform="matrix(14,0,0,14,254.9,179.9)" />
<use xlink:href="#f6_cw" transform="matrix(14,0,0,14,270.2,179.8)" />
<use xlink:href="#f6_bm" transform="matrix(14,0,0,14,269.6,179.9)" />
<use xlink:href="#f6_ct" transform="matrix(14,0,0,14,282.3,179.9)" />
<use xlink:href="#f6_bg" transform="matrix(14,0,0,14,293.6,179.9)" />
<use xlink:href="#f6_d8" transform="matrix(14,0,0,14,307.9,179.9)" />
<use xlink:href="#f6_c7" transform="matrix(14,0,0,14,313.5,179.9)" />
<use xlink:href="#f6_d4" transform="matrix(14,0,0,14,325.7,179.9)" />
<use xlink:href="#f6_cc" transform="matrix(14,0,0,14,331.2,179.9)" />
<use xlink:href="#f6_d5" transform="matrix(14,0,0,14,343.2,179.9)" />
<use xlink:href="#f6_bq" transform="matrix(14,0,0,14,348.5,179.9)" />
<use xlink:href="#f6_d8" transform="matrix(14,0,0,14,361.7,179.9)" />
<use xlink:href="#f6_c1" transform="matrix(14,0,0,14,367.3,179.9)" />
<use xlink:href="#f6_cv" transform="matrix(14,0,0,14,375.7,179.9)" />
<use xlink:href="#f6_bx" transform="matrix(14,0,0,14,387,179.9)" />
<use xlink:href="#f6_ct" transform="matrix(14,0,0,14,399.3,179.9)" />
<use xlink:href="#f6_bk" transform="matrix(14,0,0,14,404.9,179.9)" />
<use xlink:href="#f6_k" transform="matrix(14,0,0,14,416.4,179.9)" />
<use xlink:href="#f6_bv" transform="matrix(14,0,0,14,239.8,205.1)" />
<use xlink:href="#f6_nl" transform="matrix(14,0,0,14,251.6,205.1)" />
<use xlink:href="#f6_bs" transform="matrix(14,0,0,14,251.6,205.1)" />
<use xlink:href="#f6_ct" transform="matrix(14,0,0,14,265.6,205.1)" />
<use xlink:href="#f6_c1" transform="matrix(14,0,0,14,271.3,205.1)" />
<use xlink:href="#f6_d8" transform="matrix(14,0,0,14,279.7,205.1)" />
<use xlink:href="#f6_bz" transform="matrix(14,0,0,14,290.9,205.1)" />
<use xlink:href="#f6_ct" transform="matrix(14,0,0,14,304.3,205.1)" />
<use xlink:href="#f6_c1" transform="matrix(14,0,0,14,309.9,205.1)" />
<use xlink:href="#f6_ct" transform="matrix(14,0,0,14,318.3,205.1)" />
<use xlink:href="#f6_by" transform="matrix(14,0,0,14,329.6,205.1)" />
<use xlink:href="#f6_d4" transform="matrix(14,0,0,14,343.7,205.1)" />
<use xlink:href="#f6_n1" transform="matrix(14,0,0,14,343.5,205.1)" />
<use xlink:href="#f6_bg" transform="matrix(14,0,0,14,362.3,205.1)" />
<use xlink:href="#f6_cv" transform="matrix(14,0,0,14,376.6,205.1)" />
<use xlink:href="#f6_bz" transform="matrix(14,0,0,14,207.7,255.5)" />
<use xlink:href="#f6_d4" transform="matrix(14,0,0,14,221.2,255.5)" />
<use xlink:href="#f6_c7" transform="matrix(14,0,0,14,221,255.5)" />
<use xlink:href="#f6_ct" transform="matrix(14,0,0,14,233.1,255.5)" />
<use xlink:href="#f6_bt" transform="matrix(14,0,0,14,238.7,255.5)" />
<use xlink:href="#f6_bb" transform="matrix(14,0,0,14,250.5,255.5)" />
<use xlink:href="#f6_c1" transform="matrix(14,0,0,14,263.1,255.5)" />
<use xlink:href="#f6_br" transform="matrix(14,0,0,14,277.1,255.5)" />
<use xlink:href="#f6_ct" transform="matrix(14,0,0,14,288.8,255.5)" />
<use xlink:href="#f6_br" transform="matrix(14,0,0,14,294.4,255.5)" />
<use xlink:href="#f6_ct" transform="matrix(14,0,0,14,306.1,255.5)" />
<use xlink:href="#f6_am" transform="matrix(14,0,0,14,317.4,255.5)" />
<use xlink:href="#f6_bv" transform="matrix(14,0,0,14,338.8,255.5)" />
<use xlink:href="#f6_cu" transform="matrix(14,0,0,14,356.4,255.5)" />
<use xlink:href="#f6_bx" transform="matrix(14,0,0,14,362,255.5)" />
<use xlink:href="#f6_c1" transform="matrix(14,0,0,14,374.3,255.5)" />
<use xlink:href="#f6_ct" transform="matrix(14,0,0,14,382.7,255.5)" />
<use xlink:href="#f6_bg" transform="matrix(14,0,0,14,388.3,255.5)" />
<use xlink:href="#f6_d8" transform="matrix(14,0,0,14,402.6,255.5)" />
<use xlink:href="#f6_k" transform="matrix(14,0,0,14,408.2,255.5)" />
<use xlink:href="#f6_bq" transform="matrix(14,0,0,14,220.3,280.7)" />
<use xlink:href="#f6_d8" transform="matrix(14,0,0,14,233.5,280.7)" />
<use xlink:href="#f6_c1" transform="matrix(14,0,0,14,239.1,280.7)" />
<use xlink:href="#f6_cv" transform="matrix(14,0,0,14,247.5,280.7)" />
<use xlink:href="#f6_bz" transform="matrix(14,0,0,14,258.8,280.7)" />
<use xlink:href="#f6_cu" transform="matrix(14,0,0,14,272.1,280.7)" />
<use xlink:href="#f6_cc" transform="matrix(14,0,0,14,277.7,280.7)" />
<use xlink:href="#f6_bz" transform="matrix(14,0,0,14,289.4,280.7)" />
<use xlink:href="#f6_ct" transform="matrix(14,0,0,14,302.7,280.7)" />
<use xlink:href="#f6_al" transform="matrix(14,0,0,14,314,280.7)" />
<use xlink:href="#f6_bv" transform="matrix(14,0,0,14,329.8,280.7)" />
<use xlink:href="#f6_c1" transform="matrix(14,0,0,14,341.7,280.7)" />
<use xlink:href="#f6_bz" transform="matrix(14,0,0,14,350.1,280.7)" />
<use xlink:href="#f6_bv" transform="matrix(14,0,0,14,369.1,280.7)" />
<use xlink:href="#f6_ct" transform="matrix(14,0,0,14,381,280.7)" />
<use xlink:href="#f6_c1" transform="matrix(14,0,0,14,386.6,280.7)" />
<use xlink:href="#f6_k" transform="matrix(14,0,0,14,395,280.7)" />
<use xlink:href="#f6_bv" transform="matrix(14,0,0,14,232.9,305.9)" />
<use xlink:href="#f6_nl" transform="matrix(14,0,0,14,244.8,305.9)" />
<use xlink:href="#f6_bs" transform="matrix(14,0,0,14,244.8,305.9)" />
<use xlink:href="#f6_ct" transform="matrix(14,0,0,14,258.8,305.9)" />
<use xlink:href="#f6_c1" transform="matrix(14,0,0,14,264.4,305.9)" />
<use xlink:href="#f6_d8" transform="matrix(14,0,0,14,272.8,305.9)" />
<use xlink:href="#f6_bz" transform="matrix(14,0,0,14,284.1,305.9)" />
<use xlink:href="#f6_ct" transform="matrix(14,0,0,14,297.4,305.9)" />
<use xlink:href="#f6_c1" transform="matrix(14,0,0,14,303,305.9)" />
<use xlink:href="#f6_ct" transform="matrix(14,0,0,14,311.4,305.9)" />
<use xlink:href="#f6_by" transform="matrix(14,0,0,14,322.7,305.9)" />
<use xlink:href="#f6_d4" transform="matrix(14,0,0,14,336.8,305.9)" />
<use xlink:href="#f6_n1" transform="matrix(14,0,0,14,336.7,305.9)" />
<use xlink:href="#f6_bg" transform="matrix(14,0,0,14,355.5,305.9)" />
<use xlink:href="#f6_cv" transform="matrix(14,0,0,14,369.7,305.9)" />
<use xlink:href="#f6_pc" transform="matrix(14,0,0,14,375.3,305.9)" />
<use xlink:href="#f6_pc" transform="matrix(14,0,0,14,379.6,305.9)" />
<use xlink:href="#f6_pc" transform="matrix(14,0,0,14,383.9,305.9)" />
<use xlink:href="#f6_cc" transform="matrix(14,0,0,14,197.4,356.4)" />
<use xlink:href="#f6_ct" transform="matrix(14,0,0,14,209,356.4)" />
<use xlink:href="#f6_no" transform="matrix(14,0,0,14,214.6,356.4)" />
<use xlink:href="#f6_bq" transform="matrix(14,0,0,14,214.6,356.4)" />
<use xlink:href="#f6_bz" transform="matrix(14,0,0,14,233.5,356.4)" />
<use xlink:href="#f6_oz" transform="matrix(14,0,0,14,246.9,356.4)" />
<use xlink:href="#f6_cu" transform="matrix(14,0,0,14,252.5,356.4)" />
<use xlink:href="#f6_e1" transform="matrix(14,0,0,14,258.1,356.4)" />
<use xlink:href="#f6_c8" transform="matrix(14,0,0,14,270.2,356.4)" />
<use xlink:href="#f6_cx" transform="matrix(14,0,0,14,286,357.7)" />
<use xlink:href="#f6_c3" transform="matrix(14,0,0,14,286,356.4)" />
<use xlink:href="#f6_bq" transform="matrix(14,0,0,14,306.4,356.4)" />
<use xlink:href="#f6_d8" transform="matrix(14,0,0,14,319.6,356.4)" />
<use xlink:href="#f6_c1" transform="matrix(14,0,0,14,325.2,356.4)" />
<use xlink:href="#f6_d4" transform="matrix(14,0,0,14,333.2,356.4)" />
<use xlink:href="#f6_ba" transform="matrix(14,0,0,14,339.2,356.4)" />
<use xlink:href="#f6_ll" transform="matrix(14,0,0,14,356,356.4)" />
<use xlink:href="#f6_bv" transform="matrix(14,0,0,14,362.2,356.4)" />
<use xlink:href="#f6_c1" transform="matrix(14,0,0,14,374,356.4)" />
<use xlink:href="#f6_c8" transform="matrix(14,0,0,14,388.1,356.4)" />
<use xlink:href="#f6_d8" transform="matrix(14,0,0,14,404,356.4)" />
<use xlink:href="#f6_by" transform="matrix(14,0,0,14,409.6,356.4)" />
<use xlink:href="#f6_d4" transform="matrix(14,0,0,14,423.7,356.4)" />
<use xlink:href="#f6_bq" transform="matrix(14,0,0,14,207.7,381.6)" />
<use xlink:href="#f6_d8" transform="matrix(14,0,0,14,220.9,381.6)" />
<use xlink:href="#f6_c1" transform="matrix(14,0,0,14,226.5,381.6)" />
<use xlink:href="#f6_ct" transform="matrix(14,0,0,14,234.9,381.6)" />
<use xlink:href="#f6_bm" transform="matrix(14,0,0,14,246.2,381.6)" />
<use xlink:href="#f6_bz" transform="matrix(14,0,0,14,258.9,381.6)" />
<use xlink:href="#f6_bm" transform="matrix(14,0,0,14,277.9,381.6)" />
<use xlink:href="#f6_bz" transform="matrix(14,0,0,14,290.5,381.6)" />
<use xlink:href="#f6_bm" transform="matrix(14,0,0,14,309.5,381.6)" />
<use xlink:href="#f6_bz" transform="matrix(14,0,0,14,322.2,381.6)" />
<use xlink:href="#f6_n1" transform="matrix(14,0,0,14,335.6,381.6)" />
<use xlink:href="#f6_am" transform="matrix(14,0,0,14,354.4,381.6)" />
<use xlink:href="#f6_c7" transform="matrix(14,0,0,14,375.9,381.6)" />
<use xlink:href="#f6_ct" transform="matrix(14,0,0,14,387.9,381.6)" />
<use xlink:href="#f6_bg" transform="matrix(14,0,0,14,393.6,381.6)" />
<use xlink:href="#f6_k" transform="matrix(14,0,0,14,407.8,381.6)" />
<use xlink:href="#f6_bv" transform="matrix(14,0,0,14,232.9,406.8)" />
<use xlink:href="#f6_nl" transform="matrix(14,0,0,14,244.8,406.8)" />
<use xlink:href="#f6_bs" transform="matrix(14,0,0,14,244.8,406.8)" />
<use xlink:href="#f6_ct" transform="matrix(14,0,0,14,258.8,406.8)" />
<use xlink:href="#f6_c1" transform="matrix(14,0,0,14,264.4,406.8)" />
<use xlink:href="#f6_d8" transform="matrix(14,0,0,14,272.8,406.8)" />
<use xlink:href="#f6_bz" transform="matrix(14,0,0,14,284.1,406.8)" />
<use xlink:href="#f6_ct" transform="matrix(14,0,0,14,297.4,406.8)" />
<use xlink:href="#f6_c1" transform="matrix(14,0,0,14,303,406.8)" />
<use xlink:href="#f6_ct" transform="matrix(14,0,0,14,311.4,406.8)" />
<use xlink:href="#f6_by" transform="matrix(14,0,0,14,322.7,406.8)" />
<use xlink:href="#f6_d4" transform="matrix(14,0,0,14,336.8,406.8)" />
<use xlink:href="#f6_n1" transform="matrix(14,0,0,14,336.7,406.8)" />
<use xlink:href="#f6_bg" transform="matrix(14,0,0,14,355.5,406.8)" />
<use xlink:href="#f6_cv" transform="matrix(14,0,0,14,369.7,406.8)" />
<use xlink:href="#f6_pc" transform="matrix(14,0,0,14,375.3,406.8)" />
<use xlink:href="#f6_pc" transform="matrix(14,0,0,14,379.6,406.8)" />
<use xlink:href="#f6_pc" transform="matrix(14,0,0,14,383.9,406.8)" />
<use xlink:href="#f6_bz" transform="matrix(14,0,0,14,207.7,457.2)" />
<use xlink:href="#f6_d4" transform="matrix(14,0,0,14,221.2,457.2)" />
<use xlink:href="#f6_c7" transform="matrix(14,0,0,14,221,457.2)" />
<use xlink:href="#f6_ct" transform="matrix(14,0,0,14,233.1,457.2)" />
<use xlink:href="#f6_nt" transform="matrix(14,0,0,14,244.4,457.2)" />
<use xlink:href="#f6_bz" transform="matrix(14,0,0,14,250,457.2)" />
<use xlink:href="#f6_bl" transform="matrix(14,0,0,14,263.4,457.2)" />
<use xlink:href="#f6_ct" transform="matrix(14,0,0,14,275.7,457.2)" />
<use xlink:href="#f6_ao" transform="matrix(14,0,0,14,281.3,457.2)" />
<use xlink:href="#f6_bq" transform="matrix(14,0,0,14,298.5,457.2)" />
<use xlink:href="#f6_d8" transform="matrix(14,0,0,14,311.7,457.2)" />
<use xlink:href="#f6_c1" transform="matrix(14,0,0,14,317.3,457.2)" />
<use xlink:href="#f6_d4" transform="matrix(14,0,0,14,325.3,457.2)" />
<use xlink:href="#f6_bp" transform="matrix(14,0,0,14,331.4,457.2)" />
<use xlink:href="#f6_d4" transform="matrix(14,0,0,14,343.8,457.2)" />
<use xlink:href="#f6_c3" transform="matrix(14,0,0,14,343.7,457.2)" />
<use xlink:href="#f6_be" transform="matrix(14,0,0,14,364.1,457.2)" />
<use xlink:href="#f6_ci" transform="matrix(14,0,0,14,378,457.2)" />
<use xlink:href="#f6_d4" transform="matrix(14,0,0,14,389.7,457.2)" />
<use xlink:href="#f6_cc" transform="matrix(14,0,0,14,395.6,457.2)" />
<use xlink:href="#f6_d5" transform="matrix(14,0,0,14,407.6,457.2)" />
<use xlink:href="#f6_k" transform="matrix(14,0,0,14,407.2,457.2)" />
<use xlink:href="#f6_bq" transform="matrix(14,0,0,14,202,482.4)" />
<use xlink:href="#f6_d4" transform="matrix(14,0,0,14,215.3,482.4)" />
<use xlink:href="#f6_bp" transform="matrix(14,0,0,14,220.8,482.4)" />
<use xlink:href="#f6_d8" transform="matrix(14,0,0,14,233.1,482.4)" />
<use xlink:href="#f6_by" transform="matrix(14,0,0,14,244.4,482.4)" />
<use xlink:href="#f6_l1" transform="matrix(14,0,0,14,258.4,482.4)" />
<use xlink:href="#f6_bp" transform="matrix(14,0,0,14,270.2,482.4)" />
<use xlink:href="#f6_d8" transform="matrix(14,0,0,14,282.6,482.4)" />
<use xlink:href="#f6_c1" transform="matrix(14,0,0,14,293.8,482.4)" />
<use xlink:href="#f6_cv" transform="matrix(14,0,0,14,302.2,482.4)" />
<use xlink:href="#f6_bv" transform="matrix(14,0,0,14,313.5,482.4)" />
<use xlink:href="#f6_cx" transform="matrix(14,0,0,14,325.3,482.3)" />
<use xlink:href="#f6_c1" transform="matrix(14,0,0,14,325.4,482.4)" />
<use xlink:href="#f6_d8" transform="matrix(14,0,0,14,333.8,482.4)" />
<use xlink:href="#f6_cb" transform="matrix(14,0,0,14,345,482.4)" />
<use xlink:href="#f6_bx" transform="matrix(14,0,0,14,359.9,482.4)" />
<use xlink:href="#f6_am" transform="matrix(14,0,0,14,377.9,482.4)" />
<use xlink:href="#f6_cb" transform="matrix(14,0,0,14,399.4,482.4)" />
<use xlink:href="#f6_k" transform="matrix(14,0,0,14,414.2,482.4)" />
<use xlink:href="#f6_bv" transform="matrix(14,0,0,14,229.5,507.6)" />
<use xlink:href="#f6_nl" transform="matrix(14,0,0,14,241.3,507.6)" />
<use xlink:href="#f6_bs" transform="matrix(14,0,0,14,241.3,507.6)" />
<use xlink:href="#f6_ct" transform="matrix(14,0,0,14,255.3,507.6)" />
<use xlink:href="#f6_c1" transform="matrix(14,0,0,14,261,507.6)" />
<use xlink:href="#f6_d8" transform="matrix(14,0,0,14,269.3,507.6)" />
<use xlink:href="#f6_bz" transform="matrix(14,0,0,14,280.6,507.6)" />
<use xlink:href="#f6_ct" transform="matrix(14,0,0,14,294,507.6)" />
<use xlink:href="#f6_c1" transform="matrix(14,0,0,14,299.6,507.6)" />
<use xlink:href="#f6_ct" transform="matrix(14,0,0,14,308,507.6)" />
<use xlink:href="#f6_by" transform="matrix(14,0,0,14,319.3,507.6)" />
<use xlink:href="#f6_d4" transform="matrix(14,0,0,14,333.3,507.6)" />
<use xlink:href="#f6_n1" transform="matrix(14,0,0,14,333.2,507.6)" />
<use xlink:href="#f6_bg" transform="matrix(14,0,0,14,352,507.6)" />
<use xlink:href="#f6_cv" transform="matrix(14,0,0,14,366.3,507.6)" />
<use xlink:href="#f6_8l" transform="matrix(14,0,0,14,371.9,507.6)" />
<use xlink:href="#f6_bz" transform="matrix(14,0,0,14,184.8,558)" />
<use xlink:href="#f6_ct" transform="matrix(14,0,0,14,198.1,558)" />
<use xlink:href="#f6_c1" transform="matrix(14,0,0,14,203.7,558)" />
<use xlink:href="#f6_c7" transform="matrix(14,0,0,14,212.1,558)" />
<use xlink:href="#f6_ct" transform="matrix(14,0,0,14,224.2,558)" />
<use xlink:href="#f6_ch" transform="matrix(14,0,0,14,229.8,558)" />
<use xlink:href="#f6_lh" transform="matrix(14,0,0,14,248.2,558)" />
<use xlink:href="#f6_c0" transform="matrix(14,0,0,14,257.4,558)" />
<use xlink:href="#f6_ct" transform="matrix(14,0,0,14,269.9,558)" />
<use xlink:href="#f6_c7" transform="matrix(14,0,0,14,275.6,558)" />
<use xlink:href="#f6_d4" transform="matrix(14,0,0,14,287.8,558)" />
<use xlink:href="#f6_bq" transform="matrix(14,0,0,14,293.3,558)" />
<use xlink:href="#f6_ct" transform="matrix(14,0,0,14,306.5,558)" />
<use xlink:href="#f6_bt" transform="matrix(14,0,0,14,312.1,558)" />
<use xlink:href="#f6_d4" transform="matrix(14,0,0,14,324,558)" />
<use xlink:href="#f6_bb" transform="matrix(14,0,0,14,329.5,558)" />
<use xlink:href="#f6_d8" transform="matrix(14,0,0,14,342.1,558)" />
<use xlink:href="#f6_bm" transform="matrix(14,0,0,14,347.7,558)" />
<use xlink:href="#f6_c7" transform="matrix(14,0,0,14,360.4,558)" />
<use xlink:href="#f6_ct" transform="matrix(14,0,0,14,372.5,558)" />
<use xlink:href="#f6_ch" transform="matrix(14,0,0,14,378.1,558)" />
<use xlink:href="#f6_lh" transform="matrix(14,0,0,14,396.5,558)" />
<use xlink:href="#f6_c0" transform="matrix(14,0,0,14,405.7,558)" />
<use xlink:href="#f6_ct" transform="matrix(14,0,0,14,418.2,558)" />
<use xlink:href="#f6_c7" transform="matrix(14,0,0,14,423.9,558)" />
<use xlink:href="#f6_d4" transform="matrix(14,0,0,14,436.1,558)" />
<use xlink:href="#f6_bq" transform="matrix(14,0,0,14,212.3,583.2)" />
<use xlink:href="#f6_ct" transform="matrix(14,0,0,14,225.5,583.2)" />
<use xlink:href="#f6_bt" transform="matrix(14,0,0,14,231.1,583.2)" />
<use xlink:href="#f6_d4" transform="matrix(14,0,0,14,242.9,583.2)" />
<use xlink:href="#f6_lh" transform="matrix(14,0,0,14,248.5,583.2)" />
<use xlink:href="#f6_c0" transform="matrix(14,0,0,14,257.7,583.2)" />
<use xlink:href="#f6_ct" transform="matrix(14,0,0,14,270.3,583.2)" />
<use xlink:href="#f6_c7" transform="matrix(14,0,0,14,275.9,583.2)" />
<use xlink:href="#f6_d4" transform="matrix(14,0,0,14,288.1,583.2)" />
<use xlink:href="#f6_cc" transform="matrix(14,0,0,14,293.6,583.2)" />
<use xlink:href="#f6_d5" transform="matrix(14,0,0,14,305.6,583.2)" />
<use xlink:href="#f6_am" transform="matrix(14,0,0,14,310.9,583.2)" />
<use xlink:href="#f6_ba" transform="matrix(14,0,0,14,332.4,583.2)" />
<use xlink:href="#f6_d8" transform="matrix(14,0,0,14,349.1,583.2)" />
<use xlink:href="#f6_bz" transform="matrix(14,0,0,14,360.4,583.2)" />
<use xlink:href="#f6_d4" transform="matrix(14,0,0,14,373.9,583.2)" />
<use xlink:href="#f6_c7" transform="matrix(14,0,0,14,373.7,583.2)" />
<use xlink:href="#f6_ct" transform="matrix(14,0,0,14,385.8,583.2)" />
<use xlink:href="#f6_ch" transform="matrix(14,0,0,14,391.4,583.2)" />
<use xlink:href="#f6_k" transform="matrix(14,0,0,14,404.1,583.2)" />
<use xlink:href="#f6_bv" transform="matrix(14,0,0,14,229.5,608.4)" />
<use xlink:href="#f6_nl" transform="matrix(14,0,0,14,241.3,608.4)" />
<use xlink:href="#f6_bs" transform="matrix(14,0,0,14,241.3,608.4)" />
<use xlink:href="#f6_ct" transform="matrix(14,0,0,14,255.3,608.4)" />
<use xlink:href="#f6_c1" transform="matrix(14,0,0,14,261,608.4)" />
<use xlink:href="#f6_d8" transform="matrix(14,0,0,14,269.3,608.4)" />
<use xlink:href="#f6_bz" transform="matrix(14,0,0,14,280.6,608.4)" />
<use xlink:href="#f6_ct" transform="matrix(14,0,0,14,294,608.4)" />
<use xlink:href="#f6_c1" transform="matrix(14,0,0,14,299.6,608.4)" />
<use xlink:href="#f6_ct" transform="matrix(14,0,0,14,308,608.4)" />
<use xlink:href="#f6_by" transform="matrix(14,0,0,14,319.3,608.4)" />
<use xlink:href="#f6_d4" transform="matrix(14,0,0,14,333.3,608.4)" />
<use xlink:href="#f6_n1" transform="matrix(14,0,0,14,333.2,608.4)" />
<use xlink:href="#f6_bg" transform="matrix(14,0,0,14,352,608.4)" />
<use xlink:href="#f6_cv" transform="matrix(14,0,0,14,366.3,608.4)" />
<use xlink:href="#f6_8l" transform="matrix(14,0,0,14,371.9,608.4)" />
<use xlink:href="#f6_bz" transform="matrix(14,0,0,14,190.5,658.9)" />
<use xlink:href="#f6_d8" transform="matrix(14,0,0,14,203.9,658.9)" />
<use xlink:href="#f6_cc" transform="matrix(14,0,0,14,209.5,658.9)" />
<use xlink:href="#f6_cv" transform="matrix(14,0,0,14,221.1,658.9)" />
<use xlink:href="#f6_bz" transform="matrix(14,0,0,14,232.4,658.9)" />
<use xlink:href="#f6_dj" transform="matrix(14,0,0,14,239.8,659.3)" />
<use xlink:href="#f6_bm" transform="matrix(14,0,0,14,245.7,658.9)" />
<use xlink:href="#f6_c3" transform="matrix(14,0,0,14,258.4,658.9)" />
<use xlink:href="#f6_br" transform="matrix(14,0,0,14,278.8,658.9)" />
<use xlink:href="#f6_ct" transform="matrix(14,0,0,14,290.4,658.9)" />
<use xlink:href="#f6_br" transform="matrix(14,0,0,14,296.1,658.9)" />
<use xlink:href="#f6_ct" transform="matrix(14,0,0,14,307.7,658.9)" />
<use xlink:href="#f6_bq" transform="matrix(14,0,0,14,319,658.9)" />
<use xlink:href="#f6_d8" transform="matrix(14,0,0,14,332.2,658.9)" />
<use xlink:href="#f6_c1" transform="matrix(14,0,0,14,337.8,658.9)" />
<use xlink:href="#f6_d4" transform="matrix(14,0,0,14,345.8,658.9)" />
<use xlink:href="#f6_be" transform="matrix(14,0,0,14,351.9,658.9)" />
<use xlink:href="#f6_c1" transform="matrix(14,0,0,14,365.8,658.9)" />
<use xlink:href="#f6_bt" transform="matrix(14,0,0,14,374.2,658.9)" />
<use xlink:href="#f6_d4" transform="matrix(14,0,0,14,386.1,658.9)" />
<use xlink:href="#f6_am" transform="matrix(14,0,0,14,391.6,658.9)" />
<use xlink:href="#f6_c0" transform="matrix(14,0,0,14,413.1,658.9)" />
<use xlink:href="#f6_d8" transform="matrix(14,0,0,14,425.6,658.9)" />
<use xlink:href="#f6_br" transform="matrix(14,0,0,14,202,684.1)" />
<use xlink:href="#f6_ct" transform="matrix(14,0,0,14,213.6,684.1)" />
<use xlink:href="#f6_br" transform="matrix(14,0,0,14,219.3,684.1)" />
<use xlink:href="#f6_ct" transform="matrix(14,0,0,14,230.9,684.1)" />
<use xlink:href="#f6_bz" transform="matrix(14,0,0,14,242.2,684.1)" />
<use xlink:href="#f6_ct" transform="matrix(14,0,0,14,255.6,684.1)" />
<use xlink:href="#f6_no" transform="matrix(14,0,0,14,261.2,684.1)" />
<use xlink:href="#f6_bq" transform="matrix(14,0,0,14,261.2,684.1)" />
<use xlink:href="#f6_ct" transform="matrix(14,0,0,14,274.4,684.1)" />
<use xlink:href="#f6_aq" transform="matrix(14,0,0,14,285.7,684.1)" />
<use xlink:href="#f6_bv" transform="matrix(14,0,0,14,301.4,684.1)" />
<use xlink:href="#f6_c1" transform="matrix(14,0,0,14,313.2,684.1)" />
<use xlink:href="#f6_c1" transform="matrix(14,0,0,14,327.3,684.1)" />
<use xlink:href="#f6_ct" transform="matrix(14,0,0,14,335.7,684.1)" />
<use xlink:href="#f6_ba" transform="matrix(14,0,0,14,341.3,684.1)" />
<use xlink:href="#f6_bg" transform="matrix(14,0,0,14,358,684.1)" />
<use xlink:href="#f6_d8" transform="matrix(14,0,0,14,372.3,684.1)" />
<use xlink:href="#f6_cc" transform="matrix(14,0,0,14,383.5,684.1)" />
<use xlink:href="#f6_ct" transform="matrix(14,0,0,14,395.2,684.1)" />
<use xlink:href="#f6_no" transform="matrix(14,0,0,14,400.8,684.1)" />
<use xlink:href="#f6_bq" transform="matrix(14,0,0,14,400.8,684.1)" />
<use xlink:href="#f6_k" transform="matrix(14,0,0,14,414,684.1)" />
<use xlink:href="#f6_bv" transform="matrix(14,0,0,14,229.5,709.3)" />
<use xlink:href="#f6_nl" transform="matrix(14,0,0,14,241.3,709.3)" />
<use xlink:href="#f6_bs" transform="matrix(14,0,0,14,241.3,709.3)" />
<use xlink:href="#f6_ct" transform="matrix(14,0,0,14,255.3,709.3)" />
<use xlink:href="#f6_c1" transform="matrix(14,0,0,14,261,709.3)" />
<use xlink:href="#f6_d8" transform="matrix(14,0,0,14,269.3,709.3)" />
<use xlink:href="#f6_bz" transform="matrix(14,0,0,14,280.6,709.3)" />
<use xlink:href="#f6_ct" transform="matrix(14,0,0,14,294,709.3)" />
<use xlink:href="#f6_c1" transform="matrix(14,0,0,14,299.6,709.3)" />
<use xlink:href="#f6_ct" transform="matrix(14,0,0,14,308,709.3)" />
<use xlink:href="#f6_by" transform="matrix(14,0,0,14,319.3,709.3)" />
<use xlink:href="#f6_d4" transform="matrix(14,0,0,14,333.3,709.3)" />
<use xlink:href="#f6_n1" transform="matrix(14,0,0,14,333.2,709.3)" />
<use xlink:href="#f6_bg" transform="matrix(14,0,0,14,352,709.3)" />
<use xlink:href="#f6_cv" transform="matrix(14,0,0,14,366.3,709.3)" />
<use xlink:href="#f6_8l" transform="matrix(14,0,0,14,371.9,709.3)" />
<use xlink:href="#f7_4r" transform="matrix(9,0,0,9,290.2,795.2)" />
<use xlink:href="#f8_p" transform="matrix(9,0,0,9,303,795.2)" />
<use xlink:href="#f8_q" transform="matrix(9,0,0,9,310.7,795.2)" />
<use xlink:href="#f7_4r" transform="matrix(9,0,0,9,321.3,795.2)" />
</g>
</g>
<image preserveAspectRatio="none" x="22" y="801" width="581" height="86" xlink:href="img/1.png"/>
<path d="M221.1,97.4H401v1.1H221.1V97.4Z" class="g1_62"/>
<image preserveAspectRatio="none" x="202" y="14" width="217" height="26" xlink:href="img/2.png"/>
<defs>
<path d="M545,-97L35,405L87,542H295c0,0,1,5,1,280H0L-86,937l32,64H1218l87,-115l-32,-64H445L550,749V600c0,0,37,57,100,92c0,0,63,35,138,35c0,0,135,0,243,-111c0,0,109,-112,229,-318L1143,215c0,0,-125,201,-185,258c0,0,-60,57,-124,57c0,0,-59,0,-99,-36c0,0,-40,-36,-40,-81c0,0,0,-33,23,-60L888,466L1004,295c0,0,-95,-89,-190,-89c0,0,-97,0,-185,69c0,0,-88,69,-108,163c0,0,-34,-58,-141,-129L709,110V41L545,-97Z"
id="f5_n1"
transform="scale(0.001,-0.001)"/>

<path d="M686,512V822H333L435,749l2,-237ZM860,-65L686,29V298H440V168L348,118c0,0,-90,30,-190,128c0,0,-100,98,-127,183l52,83H203L189,822H0L-86,937l32,64H1045l86,-115l-33,-64H828L930,749V-31L860,-65Z"
id="f5_bz"
transform="scale(0.001,-0.001)"/>

<path d="M284,413l313,62c0,0,109,-44,211,-44c0,0,96,0,150,43V822H646L749,749V539H380c0,0,-123,0,-123,-73c0,0,0,-26,27,-53ZM510,-393L316,-91c0,0,-96,26,-214,108l54,206l113,-1L362,84l31,-1c0,0,99,0,183,56c0,0,84,57,87,125L417,200c0,0,-162,48,-264,141c0,0,-103,94,-103,195c0,0,0,84,73,142c0,0,73,57,207,57H529v87H0L-86,937l32,64H1317l86,-115l-33,-64H1100l102,-73V-31l-70,-34L958,29V249l-44,-5c0,0,-32,0,-83,11c0,0,12,-41,12,-81c0,0,0,-127,-102,-193c0,0,-102,-67,-235,-82L694,-260L510,-393Z"
id="f5_bh"
transform="scale(0.001,-0.001)"/>

<path d="M67,-479c0,0,-156,220,-212,270c0,0,-56,50,-112,50c0,0,-55,0,-91,-37c0,0,-36,-37,-36,-80c0,0,0,-29,18,-47l156,96L-97,-370c0,0,-82,-84,-180,-84c0,0,-104,0,-188,78c0,0,-84,78,-84,178c0,0,0,92,73,159c0,0,74,65,176,65c0,0,167,0,326,-211L173,-395L67,-479Z"
id="f5_of"
transform="scale(0.001,-0.001)"/>

<path d="M300,310c13,0,56,2,103,25c0,0,58,27,100,81V523c0,0,-46,16,-83,16c0,0,-69,0,-111,-45c0,0,-42,-45,-42,-104c0,0,0,-45,28,-80c0,0,2,0,5,0ZM677,-65L503,29V144c0,0,-32,-11,-75,-11c0,0,-147,0,-272,98c0,0,-125,99,-125,233c0,0,0,110,75,185c0,0,76,74,195,74l67,-6L503,646V822H0L-86,937l32,64H1245l86,-115l-32,-64H645L747,749V622c0,0,81,58,165,58c0,0,122,0,213,-99c0,0,91,-98,91,-230c0,0,0,-204,-253,-371L791,157c0,0,110,83,164,139c0,0,53,55,53,106c0,0,0,55,-53,55c0,0,-83,0,-208,-145V-31L677,-65Z"
id="f5_b9"
transform="scale(0.001,-0.001)"/>

<path d="M545,-97L35,405L87,542H295c0,0,1,5,1,280H0L-86,937l32,64H729L814,886L782,822H445L550,749V547c0,0,0,-75,-41,-127c0,0,-41,-52,-129,-111L709,110V41L545,-97Z"
id="f5_c1"
transform="scale(0.001,-0.001)"/>

<path d="M342,-69c0,0,-146,139,-224,256c0,0,-78,117,-78,226c0,0,0,120,90,193c0,0,90,72,243,72H599V822H0L-86,937l32,64H959l86,-115l-32,-64H741L843,749V-31L773,-65L599,29V445H448c0,0,-81,0,-123,-34c0,0,-42,-34,-42,-90c0,0,0,-54,43,-118c0,0,44,-64,143,-163L342,-69Z"
id="f5_bp"
transform="scale(0.001,-0.001)"/>

<path d="M277,-65L102,29V822H0L-86,937l32,64H463L548,886L516,822H244L347,749V-31L277,-65Z"
id="f5_ct"
transform="scale(0.001,-0.001)"/>

<path d="M394,379c0,0,57,0,107,30c0,0,51,29,77,86V822H214L318,749V403c0,0,29,-24,76,-24ZM752,-65L578,29V188c0,0,-43,-18,-89,-18c0,0,-138,0,-282,130C207,300,63,431,60,567V822H0L-86,937l32,64H937l87,-115L992,822H720L822,749V-31L752,-65Z"
id="f5_bv"
transform="scale(0.001,-0.001)"/>

<path d="M0,822L-86,937l32,64H9L95,886L63,822Z"
id="f5_nl"
transform="scale(0.001,-0.001)"/>

<path d="M895,-65L721,29V134c0,0,-66,-32,-148,-32c0,0,-156,0,-289,105c0,0,-133,105,-133,231c0,0,0,72,48,136C199,574,28,695,28,836c0,0,0,88,65,149c0,0,66,60,167,60c0,0,99,0,172,-61c0,0,72,-61,139,-180L477,729c0,0,-55,87,-92,119l-26,3c0,0,-43,0,-73,-28c0,0,-29,-29,-29,-73c0,0,0,-50,41,-95c0,0,67,33,150,33c0,0,45,0,93,-10L642,519L610,457l-51,3c0,0,-82,0,-130,-35c0,0,-49,-35,-49,-83c0,0,0,-26,16,-47c0,0,18,-6,46,-6c0,0,77,0,161,46c0,0,83,47,118,119V822H678L593,937l32,64h455l87,-115l-32,-64H863L966,749V-31L895,-65Z"
id="f5_bs"
transform="scale(0.001,-0.001)"/>

<path d="M277,-65L102,29V822H0L-86,937l32,64H86L18,1111c0,0,-67,122,-168,122c0,0,-81,0,-202,-80l-128,250c0,0,122,77,232,77c0,0,196,0,356,-250L252,1001H463L548,886L516,822H244L347,749V-31L277,-65Z"
id="f5_d8"
transform="scale(0.001,-0.001)"/>

<path d="M527,-71L52,414l34,92H277c0,0,12,32,12,72V822H0l-45,76l14,31H940l45,-76L972,822H350l66,-55V553c0,0,24,52,77,83c0,0,52,30,112,30c0,0,87,0,171,-76c0,0,84,-75,222,-304L938,244L828,411c0,0,-95,134,-195,134c0,0,-63,0,-100,-35c0,0,-36,-36,-36,-87c0,0,0,-50,42,-87l152,99L755,315c0,0,-71,-61,-148,-61c0,0,-80,0,-146,66c0,0,-65,67,-65,164c0,0,-34,-70,-132,-168L610,34L611,8L527,-71Z"
id="f6_n1"
transform="scale(0.001,-0.001)"/>

<path d="M689,445V822H286l65,-58l8,-319ZM779,-49L689,8V328H370V180L296,150c0,0,-56,35,-120,104c0,0,-63,70,-89,131l41,60H238L223,822H0l-45,76l14,31H953l46,-76L985,822H750l66,-58V-39L779,-49Z"
id="f6_bz"
transform="scale(0.001,-0.001)"/>

<path d="M252,385l310,78l22,-9c0,0,107,-43,200,-43c0,0,91,0,151,41V822H603l66,-58V585H373c0,0,-184,0,-184,-99c0,0,0,-48,63,-101ZM483,-305L295,-10c0,0,-90,22,-156,74l41,170h66L351,63c0,0,126,4,207,62c0,0,82,58,82,139c0,0,0,37,-18,71L365,266c0,0,-110,15,-197,102c0,0,-87,87,-87,176c0,0,0,69,59,117c0,0,59,48,172,48H550V822H0l-45,76l14,31H1199l46,-76l-14,-31H996l66,-58V-39l-37,-10L935,8V318c0,0,-41,-15,-78,-15c0,0,-52,0,-131,30c0,0,32,-55,32,-111c0,0,0,-109,-98,-179c0,0,-98,-69,-254,-69L599,-216L483,-305Z"
id="f6_bh"
transform="scale(0.001,-0.001)"/>

<path d="M61,-393c0,0,-156,214,-210,261c0,0,-55,47,-110,47c0,0,-53,0,-85,-29c0,0,-32,-30,-32,-71c0,0,0,-48,38,-80l137,87l58,-107c0,0,-67,-52,-134,-52c0,0,-73,0,-134,60c0,0,-60,60,-60,133c0,0,0,67,56,117c0,0,55,50,130,50c0,0,78,0,160,-69c0,0,82,-71,246,-309L61,-393Z"
id="f6_of"
transform="scale(0.001,-0.001)"/>

<path d="M283,260c0,0,122,0,209,113V513c0,0,-90,51,-160,51c0,0,-80,0,-129,-50c0,0,-49,-50,-49,-118c0,0,0,-60,35,-110c0,0,45,-26,94,-26ZM582,-49L492,8V211c0,0,-63,-54,-141,-54c0,0,-113,0,-213,92c0,0,-100,92,-100,205c0,0,0,93,69,157c0,0,69,64,162,64c0,0,32,0,64,-9L492,590V822H0l-45,76l14,31H1108l45,-76l-13,-31H553l66,-58V524c0,0,91,89,192,89c0,0,98,0,171,-79c0,0,72,-79,72,-186c0,0,0,-178,-224,-330L736,124c0,0,219,153,219,269c0,0,0,44,-26,75c0,0,-26,32,-81,32c0,0,-109,0,-229,-155V-39L582,-49Z"
id="f6_b9"
transform="scale(0.001,-0.001)"/>

<path d="M527,-71L52,414l34,92H277c0,0,12,32,12,72V822H0l-45,76l14,31H599l46,-76L631,822H350l66,-55V564c0,0,0,-96,-152,-248L610,34L611,8L527,-71Z"
id="f6_c1"
transform="scale(0.001,-0.001)"/>

<path d="M347,-57C347,-57,66,211,66,394c0,0,0,98,74,164c0,0,74,65,225,65H616V822H0l-45,76l14,31H880l46,-76L912,822H677l66,-58V-39L706,-49L616,8V500H428c0,0,-239,0,-239,-161c0,0,0,-136,214,-343L347,-57Z"
id="f6_bp"
transform="scale(0.001,-0.001)"/>

<path d="M228,-49L138,8V822H0l-45,76l14,31H402l46,-76L434,822H199l65,-58V-39L228,-49Z"
id="f6_ct"
transform="scale(0.001,-0.001)"/>

<path d="M388,325c0,0,58,0,112,31c0,0,53,31,84,86V822H165l69,-58V408c0,0,47,-83,154,-83ZM674,-49L584,8V257c0,0,-61,-51,-141,-51c0,0,-125,0,-232,109c0,0,-107,108,-107,243V822H0l-45,76l14,31H848l46,-76L880,822H645l65,-58V-39L674,-49Z"
id="f6_bv"
transform="scale(0.001,-0.001)"/>

<path d="M0,822l-45,76l14,31H38L84,853L70,822Z"
id="f6_nl"
transform="scale(0.001,-0.001)"/>

<path d="M827,-49L736,8V205c0,0,-84,-84,-209,-84c0,0,-130,0,-237,91c0,0,-108,92,-108,196c0,0,0,79,61,137C243,545,66,672,66,791c0,0,0,75,52,124c0,0,53,49,134,49c0,0,164,0,260,-237L451,694c0,0,-55,114,-119,163l-31,5c0,0,-44,0,-77,-32c0,0,-33,-31,-33,-78c0,0,0,-86,113,-165c0,0,60,27,133,27l67,-4l75,-89L564,490l-51,7H493c0,0,-90,0,-142,-43c0,0,-52,-43,-52,-104c0,0,0,-60,51,-109c0,0,33,-16,84,-16c0,0,89,0,177,47c0,0,89,47,125,137V822H567l-46,76l14,31h466l46,-76l-14,-31H798l65,-58V-39L827,-49Z"
id="f6_bs"
transform="scale(0.001,-0.001)"/>

<path d="M228,-49L138,8V822H0l-45,76l14,31H119L-33,1144c0,0,-70,92,-157,92c0,0,-69,0,-159,-58l-72,118c0,0,89,73,181,73c0,0,140,0,257,-170L205,929H402l46,-76L434,822H199l65,-58V-39L228,-49Z"
id="f6_d8"
transform="scale(0.001,-0.001)"/>

<path d="M823,-49L733,8V339H445V191L371,160c0,0,-56,36,-120,105c0,0,-63,70,-89,131l41,59H313V735c0,0,0,99,-55,140c0,0,-3,1,-8,1c-16,0,-48,-3,-71,-23c0,0,-31,-26,-31,-66c0,0,0,-69,81,-113L189,620C189,620,31,720,31,828c0,0,0,61,45,99c0,0,46,37,109,37c0,0,96,0,173,-86c0,0,76,-87,79,-194V455H733V822H556l-46,76l14,31H998l45,-76l-13,-31H794l66,-58V-39L823,-49Z"
id="f6_by"
transform="scale(0.001,-0.001)"/>

<path d="M-214,863l-199,281c0,0,-70,92,-157,92c0,0,-69,0,-159,-58l-72,118c0,0,89,73,180,73c0,0,141,0,258,-170L-155,901l-59,-38Z"
id="f6_d4"
transform="scale(0.001,-0.001)"/>

<path d="M845,-49L755,8V513H497c0,0,61,-45,93,-110c0,0,33,-64,33,-128c0,0,0,-90,-58,-144c0,0,-59,-53,-143,-53c0,0,-133,0,-234,139C188,217,87,356,20,596l76,24c0,0,60,-201,127,-306c0,0,67,-105,160,-105c0,0,57,0,91,36c0,0,33,36,33,91c0,0,0,84,-73,159L295,558v71H755V822H0l-45,76l14,31H1019l46,-76l-14,-31H816l66,-58V-39L845,-49Z"
id="f6_bg"
transform="scale(0.001,-0.001)"/>

<path d="M228,-49L138,8V822H0l-45,76l14,31H138c0,0,-109,342,-284,342c0,0,-62,0,-102,-40c0,0,-40,-39,-40,-93c0,0,0,-61,51,-134l-42,-32c0,0,-128,113,-128,226c0,0,0,79,60,136c0,0,61,56,154,56c0,0,137,0,249,-125c0,0,112,-125,169,-336H402l46,-76L434,822H199l65,-58V-39L228,-49Z"
id="f6_cv"
transform="scale(0.001,-0.001)"/>

<path d="M768,-49L678,8V202c0,0,-73,-58,-172,-58c0,0,-123,0,-240,94c0,0,-118,94,-179,237l20,55c0,0,134,12,215,70c0,0,81,57,81,141c0,0,0,90,-67,134l-26,3c0,0,-46,0,-74,-29c0,0,-28,-30,-28,-68c0,0,0,-55,82,-109L252,620C252,620,93,720,93,820c0,0,0,65,47,104c0,0,46,40,114,40c0,0,99,0,179,-83c0,0,80,-83,82,-197c0,0,0,-93,-79,-165c0,0,-78,-73,-199,-97c0,0,29,-104,88,-158c0,0,42,-16,92,-16c0,0,78,0,151,38c0,0,74,38,110,111V822H553l-46,76l14,31H943l45,-76L975,822H739l66,-58V-39L768,-49Z"
id="f6_bq"
transform="scale(0.001,-0.001)"/>

<path d="M348,229c0,0,57,0,106,17L263,559c0,0,-95,-50,-95,-162c0,0,0,-75,52,-136c0,0,49,-32,128,-32Zm170,48c0,0,61,38,96,91V504c0,0,-131,80,-244,80l-35,-2L518,277ZM704,-49L614,8V193c0,0,-84,-65,-192,-65c0,0,-139,0,-255,98c0,0,-115,98,-115,226c0,0,0,106,77,175c0,0,77,70,189,70c0,0,38,0,75,-9L614,578V822H0l-45,76l14,31H878l46,-76L911,822H675l66,-58V-39L704,-49Z"
id="f6_bx"
transform="scale(0.001,-0.001)"/>

<path d="M413,-59C413,-59,53,193,53,416c0,0,0,97,66,164c0,0,66,66,156,66c0,0,61,0,110,-30L487,507c0,0,92,126,257,126l35,-2V822H0l-45,76l14,31H1043l46,-76l-13,-31H840l66,-58V-39L869,-49L779,8V547c0,0,-101,-5,-165,-90c0,0,-64,-86,-70,-222L507,225l-90,73c0,0,5,79,35,151c0,0,-59,66,-128,66c0,0,-57,0,-100,-38c0,0,-44,-39,-44,-109c0,0,0,-165,284,-360L413,-59Z"
id="f6_c3"
transform="scale(0.001,-0.001)"/>

<path d="M-234,-413c0,0,-210,0,-488,322l54,49c0,0,119,-128,209,-193c0,0,90,-65,177,-65c0,0,72,0,113,40c0,0,42,39,42,91c0,0,0,75,-78,106L-323,-181l-90,98c0,0,63,95,167,95c0,0,90,0,155,-69c0,0,66,-70,66,-164c0,0,0,-85,-60,-139c0,0,-61,-53,-149,-53Z"
id="f6_cw"
transform="scale(0.001,-0.001)"/>

<path d="M548,-57c0,0,-122,0,-243,81c0,0,-122,81,-252,280l57,41C110,345,283,64,498,64c0,0,92,0,153,49c0,0,61,49,61,121c0,0,0,46,-28,84L440,237c0,0,-73,11,-139,55c0,0,-66,44,-105,105c0,0,-40,61,-40,119c0,0,0,72,62,125c0,0,62,53,184,53H625V822H0l-45,76l14,31H906l46,-76L938,822H678l66,-58V562H431c0,0,-164,0,-164,-99c0,0,0,-55,57,-102l261,82c0,0,104,-21,172,-98c0,0,68,-78,68,-171c0,0,0,-99,-76,-166c0,0,-77,-65,-201,-65Z"
id="f6_bm"
transform="scale(0.001,-0.001)"/>

<path d="M325,240c0,0,77,0,154,35c0,0,77,35,120,99V500c0,0,-118,73,-222,73c0,0,-97,0,-151,-54c0,0,-53,-53,-53,-128c0,0,0,-73,49,-125c0,0,38,-26,103,-26ZM689,-49L599,8V199c0,0,-73,-65,-179,-65c0,0,-134,0,-252,96c0,0,-118,95,-118,221c0,0,0,102,78,171c0,0,78,69,190,69c0,0,38,0,75,-10L599,582V822H0l-45,76l14,31H863l46,-76L895,822H660l66,-58V-39L689,-49Z"
id="f6_c7"
transform="scale(0.001,-0.001)"/>

<path d="M688,-243c0,0,-256,53,-408,173c0,0,-152,119,-152,270c0,0,0,101,68,171c0,0,-101,84,-101,179c0,0,0,64,53,112c0,0,54,47,191,47H587V822H0l-45,76l14,31H830l45,-76L862,822H640l66,-58V585H362c0,0,-159,-1,-159,-92c0,0,0,-41,46,-80c0,0,76,47,183,47c0,0,135,0,230,-76c0,0,96,-75,96,-187C758,197,758,67,629,2L545,104c0,0,49,30,81,75c0,0,32,44,32,82c0,0,0,16,-4,26c0,0,-64,58,-167,58c0,0,-97,0,-166,-50v-2c0,0,-67,-52,-67,-131c0,0,0,-116,132,-199c0,0,132,-84,334,-132l-32,-74Z"
id="f6_cc"
transform="scale(0.001,-0.001)"/>

<path d="M-214,860l-227,219c0,0,-73,70,-148,70c0,0,-67,0,-160,-58l-72,117c0,0,83,71,176,71c0,0,120,0,232,-124L-221,940l-102,294c0,0,-64,179,-189,179c0,0,-60,0,-133,-33l-60,125c0,0,84,47,164,47c0,0,200,0,281,-276L-150,901l-23,-15l-41,-26Z"
id="f6_d5"
transform="scale(0.001,-0.001)"/>

<path d="M487,-7c0,0,-88,0,-185,46c0,0,-97,47,-163,130c0,0,-66,83,-66,185c0,0,0,109,80,177c0,0,79,68,234,68H504V822H0l-45,76l14,31H827l45,-76L859,822H565l66,-58V474l-3,1l3,-3H396c0,0,-100,0,-152,-47c0,0,-53,-48,-53,-119c0,0,0,-104,93,-178c0,0,60,-20,118,-20c0,0,81,0,156,36c0,0,76,35,123,99l92,-99C773,144,723,70,645,31C645,31,567,-7,487,-7Z"
id="f6_bk"
transform="scale(0.001,-0.001)"/>

<path d="M108,-222l-44,58c0,0,96,81,104,164L89,61c0,0,12,83,93,122c0,0,50,-15,79,-55c0,0,29,-39,29,-90c0,0,0,-69,-48,-142c0,0,-48,-72,-134,-118Z"
id="f6_k"
transform="scale(0.001,-0.001)"/>

<path d="M663,-49L573,8V445H299V280L226,251c0,0,-105,99,-162,238l63,72H573V822H0l-45,76l14,31H837l46,-76L869,822H634l66,-58V-39L663,-49Z"
id="f6_bt"
transform="scale(0.001,-0.001)"/>

<path d="M727,-49L637,8V822H278l66,-58V226L270,196c0,0,-64,36,-122,98c0,0,-58,62,-79,122l43,59H217V822H0l-45,76l14,31H901l46,-76L933,822H698l66,-58V-39L727,-49Z"
id="f6_bb"
transform="scale(0.001,-0.001)"/>

<path d="M675,-274L602,21C602,21,550,3,498,3C498,3,347,3,210,118C210,118,73,232,73,373c0,0,0,113,84,184c0,0,84,71,222,72H524V822H0l-45,76l14,31H834l46,-76L866,822H585l66,-58V504l-3,2l3,-3H408c0,0,-95,0,-154,-53c0,0,-58,-53,-58,-132c0,0,0,-49,27,-100c0,0,28,-50,83,-84c0,0,44,-15,96,-15c0,0,91,0,160,46L535,303l101,48L773,188c0,0,-8,-28,-34,-66c0,0,-27,-38,-62,-64L813,-221L675,-274Z"
id="f6_br"
transform="scale(0.001,-0.001)"/>

<path d="M959,-49L869,8V367c0,0,-32,-13,-64,-13c0,0,-50,0,-110,25c0,0,23,-52,23,-109c0,0,0,-103,-70,-170c0,0,-70,-66,-182,-66c0,0,-110,0,-222,82c0,0,-111,83,-213,293l68,42c0,0,72,-155,152,-231c0,0,81,-76,178,-76c0,0,83,0,131,49c0,0,48,48,48,117c0,0,0,54,-30,100c0,0,-31,47,-91,65L325,391L257,512c0,0,68,53,156,56c0,0,140,72,140,179c0,0,0,69,-52,99c0,0,-4,1,-11,1c-19,0,-66,-4,-123,-30c0,0,-78,-35,-142,-96L150,823c0,0,119,117,253,117c0,0,98,0,175,-71c0,0,77,-70,77,-159c0,0,0,-103,-94,-180c0,0,39,-23,73,-56c0,0,52,-22,109,-22c0,0,77,0,126,38V822H727l-46,76l14,31h840l46,-76l-13,-31H1332l66,-58V-39l-37,-10L1271,8V822H930l66,-58V-39L959,-49Z"
id="f6_am"
transform="scale(0.001,-0.001)"/>

<path d="M228,-49L138,8V822H0l-45,76l14,31H134c0,0,-91,92,-91,191c0,0,0,105,85,170c0,0,84,65,219,65c0,0,128,0,293,-76c0,0,165,-77,362,-263L958,966c0,0,-177,143,-303,210c0,0,-125,68,-244,68c0,0,-107,0,-175,-50c0,0,-68,-50,-68,-131c0,0,0,-61,49,-134H402l46,-76L434,822H199l65,-58V-39L228,-49Z"
id="f6_cu"
transform="scale(0.001,-0.001)"/>

<path d="M959,-49L869,8V367c0,0,-32,-13,-64,-13c0,0,-50,0,-110,25c0,0,23,-52,23,-109c0,0,0,-103,-70,-170c0,0,-70,-66,-182,-66c0,0,-110,0,-222,82c0,0,-111,83,-213,293l68,42c0,0,72,-155,152,-231c0,0,81,-76,178,-76c0,0,83,0,131,49c0,0,48,48,48,117c0,0,0,54,-30,100c0,0,-31,47,-91,65L325,391L257,512c0,0,68,53,156,56c0,0,140,72,140,179c0,0,0,69,-52,99c0,0,-4,1,-11,1c-19,0,-66,-4,-123,-30c0,0,-78,-35,-142,-96L150,823c0,0,119,117,253,117c0,0,98,0,175,-71c0,0,77,-70,77,-159c0,0,0,-103,-94,-180c0,0,39,-23,73,-56c0,0,52,-22,109,-22c0,0,77,0,126,38V822H727l-46,76l14,31h439l45,-76l-13,-31H930l66,-58V-39L959,-49Z"
id="f6_al"
transform="scale(0.001,-0.001)"/>

<path d="M226,-49c0,0,-66,24,-102,78c0,0,32,69,82,101c0,0,55,-20,100,-80c0,0,-26,-66,-80,-99Z"
id="f6_pc"
transform="scale(0.001,-0.001)"/>

<path d="M0,822l-45,76l14,31H61l46,-76L93,822Z"
id="f6_no"
transform="scale(0.001,-0.001)"/>

<path d="M-91,1001c0,0,-27,10,-61,36c0,0,-33,26,-50,49c0,0,38,81,90,110c0,0,61,-23,107,-85c0,0,-28,-71,-86,-110ZM-214,863l-199,281c0,0,-70,92,-157,92c0,0,-69,0,-159,-58l-72,118c0,0,89,73,180,73c0,0,141,0,258,-170L-155,901l-59,-38Z"
id="f6_oz"
transform="scale(0.001,-0.001)"/>

<path d="M688,-49L597,8V335L248,81l-92,81L532,425l-81,76c0,0,-80,70,-133,70c0,0,-81,0,-194,-96L38,584c0,0,109,105,223,105c0,0,103,0,213,-107L597,457V822H0l-45,76l14,31H862l46,-76L894,822H658l66,-58V-39L688,-49Z"
id="f6_e1"
transform="scale(0.001,-0.001)"/>

<path d="M513,460c0,0,61,81,61,179c0,0,0,87,-45,143c0,0,-45,57,-116,57c0,0,-63,0,-102,-43c0,0,-39,-43,-39,-110c0,0,0,-90,68,-151c0,0,68,-61,173,-75ZM581,-83L278,167l-41,-4c0,0,-99,0,-130,37l47,168l51,12l78,-79c0,0,110,40,183,105c0,0,-141,23,-231,107c0,0,-90,84,-90,193c0,0,0,69,37,116H0l-45,76l14,31H1134l45,-76l-13,-31H930l66,-58V-39L959,-49L869,8V822H588c0,0,51,-44,75,-109c0,0,25,-64,25,-122c0,0,0,-105,-81,-213c0,0,-80,-108,-240,-176L658,18l2,-25L581,-83Z"
id="f6_c8"
transform="scale(0.001,-0.001)"/>

<path d="M108,-433L-59,-214c0,0,-99,119,-191,119c0,0,-59,0,-96,-35c0,0,-36,-34,-36,-81c0,0,0,-49,42,-83l152,95l64,-116c0,0,-71,-58,-148,-58c0,0,-80,0,-146,63c0,0,-65,64,-65,144c0,0,0,77,62,131c0,0,61,53,142,53c0,0,138,0,296,-205L165,-393l-57,-40Z"
id="f6_cx"
transform="scale(0.001,-0.001)"/>

<path d="M761,293c0,0,127,0,169,94V532c0,0,-68,46,-145,46c0,0,-76,0,-121,-46c0,0,-45,-45,-45,-107c0,0,0,-61,44,-110c0,0,47,-22,98,-22ZM657,67c0,0,166,0,273,107v55c0,0,-45,-36,-111,-36c0,0,-110,0,-207,90c0,0,-97,90,-97,194c0,0,0,85,66,148c0,0,65,63,155,63l48,-5L930,603V822H376l62,-55V579c0,0,0,-60,-23,-102c0,0,-24,-42,-148,-190c0,0,66,-104,175,-162c0,0,108,-58,215,-58ZM1021,-49L930,8V53c0,0,-105,-83,-264,-83c0,0,-177,0,-339,128C327,98,165,226,90,429l34,77H296c0,0,19,39,19,102l-2,214H0l-45,76l14,31H1195l46,-76l-14,-31H992l65,-58V-39l-36,-10Z"
id="f6_ba"
transform="scale(0.001,-0.001)"/>

<path d="M438,206c0,0,-119,0,-226,109c0,0,-108,108,-108,243V822H0l-45,76l14,31H542l46,-76L574,822H165l66,-58V408c0,0,46,-86,151,-86c0,0,61,0,119,32c0,0,58,33,95,91L669,338c0,0,-44,-66,-108,-99c0,0,-63,-33,-123,-33Z"
id="f6_ll"
transform="scale(0.001,-0.001)"/>

<path d="M228,-49L138,8V822H0l-45,76l14,31H134c0,0,-91,93,-91,202c0,0,0,105,85,170c0,0,86,65,236,65c0,0,340,0,742,-350l-50,-46c0,0,-182,135,-340,208c0,0,-158,73,-302,73c0,0,-113,0,-183,-48c0,0,-69,-48,-69,-132c0,0,0,-63,53,-142H402l46,-76L434,822H199l65,-58V-39L228,-49Z"
id="f6_nt"
transform="scale(0.001,-0.001)"/>

<path d="M449,79c0,0,103,0,168,61c0,0,66,60,66,149c0,0,0,93,-84,186H420c0,0,-107,0,-164,-50c0,0,-57,-51,-57,-126c0,0,0,-108,99,-184c0,0,81,-36,151,-36Zm67,-96c0,0,-168,0,-301,109C215,92,81,202,81,350c0,0,0,114,83,182c0,0,84,68,229,68H507V822H0l-45,76l14,31H883l46,-76L915,822H568l66,-58V532c0,0,87,-64,130,-144c0,0,43,-79,43,-157c0,0,0,-109,-81,-179c0,0,-81,-69,-210,-69Z"
id="f6_bl"
transform="scale(0.001,-0.001)"/>

<path d="M483,-305L295,-10c0,0,-90,22,-156,74l41,170h66L351,63c0,0,126,4,207,62c0,0,82,58,82,139c0,0,0,37,-18,71L365,266c0,0,-110,15,-197,102c0,0,-87,87,-87,176c0,0,0,69,59,117c0,0,59,48,172,48H550V822H0l-45,76l14,31H550c0,0,-142,122,-142,255c0,0,0,78,52,133c0,0,52,55,140,55c0,0,98,0,176,-64l-23,-69c0,0,-53,32,-104,32c0,0,-56,0,-94,-36c0,0,-39,-36,-39,-95c0,0,0,-109,112,-211H822l46,-76L854,822H603l66,-58V585H373c0,0,-184,0,-184,-99c0,0,0,-48,63,-101l310,78c0,0,86,-34,141,-99c0,0,55,-65,55,-142c0,0,0,-109,-98,-179c0,0,-98,-69,-254,-69L599,-216L483,-305Z"
id="f6_ao"
transform="scale(0.001,-0.001)"/>

<path d="M825,-49L735,8V217c0,0,-86,-72,-197,-72c0,0,-130,0,-238,91c0,0,-107,91,-107,204c0,0,0,55,27,105H55L12,616l14,30H574l46,-76L607,539H396c0,0,-78,-49,-78,-162c0,0,0,-70,40,-111c0,0,39,-15,94,-15c0,0,84,0,163,41c0,0,79,41,120,121V822H0l-45,76l14,31H999l46,-76l-14,-31H796l66,-58V-39L825,-49Z"
id="f6_be"
transform="scale(0.001,-0.001)"/>

<path d="M526,-266c0,0,-66,24,-103,79c0,0,32,69,83,101c0,0,55,-20,99,-80c0,0,-26,-67,-79,-100ZM570,78c0,0,66,17,105,54c0,0,40,38,40,88c0,0,0,40,-23,66c0,0,-23,26,-58,26c0,0,-40,0,-71,-33c0,0,-31,-33,-31,-90c0,0,0,-55,38,-111ZM538,-45c0,0,-182,0,-322,128C216,83,76,211,76,368c0,0,0,122,91,201c0,0,90,79,238,79H564V822H0l-45,76l14,31H853l45,-76L885,822H617l66,-58V521H420c0,0,-99,0,-162,-57c0,0,-62,-58,-62,-146c0,0,0,-121,105,-208c0,0,118,-41,188,-41l29,1l-69,46c0,0,-36,55,-36,115c0,0,0,73,48,123c0,0,49,49,123,49c0,0,87,0,151,-74c0,0,64,-74,64,-162c0,0,0,-94,-71,-153c0,0,-71,-59,-190,-59Z"
id="f6_ci"
transform="scale(0.001,-0.001)"/>

<path d="M283,260c0,0,122,0,209,113V513c0,0,-90,51,-160,51c0,0,-80,0,-129,-50c0,0,-49,-50,-49,-118c0,0,0,-60,35,-110c0,0,45,-26,94,-26ZM582,-49L492,8V211c0,0,-63,-54,-141,-54c0,0,-113,0,-214,92c0,0,-102,92,-102,206c0,0,0,93,69,157c0,0,69,63,163,63c0,0,34,0,66,-9L492,590V822H0l-45,76l14,31H909l46,-76L941,822H553l66,-58V521c0,0,93,104,192,104c0,0,63,0,120,-42c0,0,57,-42,82,-106L964,431l-5,9c0,0,-38,72,-110,72c0,0,-51,0,-105,-41c0,0,-53,-42,-125,-129V-39L582,-49Z"
id="f6_l1"
transform="scale(0.001,-0.001)"/>

<path d="M799,475V822H350l66,-55V564c0,0,0,-43,-25,-89ZM527,-71L52,414l34,92H277c0,0,12,32,12,72V822H0l-45,76l14,31H1063l46,-76l-14,-31H860l66,-58V-39L889,-49L799,8V370H315L264,316L610,34L611,8L527,-71Z"
id="f6_cb"
transform="scale(0.001,-0.001)"/>

<path d="M254,-26c0,0,-84,16,-116,92c0,0,13,84,97,127c0,0,100,-36,112,-110C347,83,324,6,254,-26Zm458,0c0,0,-84,16,-116,92c0,0,14,84,98,127c0,0,99,-37,111,-110C805,83,782,6,712,-26Zm458,0c0,0,-84,16,-116,92c0,0,14,84,98,127c0,0,99,-36,111,-110c0,0,-22,-77,-93,-109Z"
id="f6_8l"
transform="scale(0.001,-0.001)"/>

<path d="M547,-285c0,0,-66,25,-102,80c0,0,32,69,82,101c0,0,55,-20,99,-80c0,0,-26,-67,-79,-101Zm1,228c0,0,-122,0,-243,81c0,0,-122,81,-252,280l57,41C110,345,283,64,498,64c0,0,92,0,153,49c0,0,61,49,61,121c0,0,0,46,-28,84L440,237c0,0,-73,11,-139,55c0,0,-66,44,-105,105c0,0,-40,61,-40,119c0,0,0,72,62,125c0,0,62,53,184,53H625V822H0l-45,76l14,31H906l46,-76L938,822H678l66,-58V562H431c0,0,-164,0,-164,-99c0,0,0,-55,57,-102l261,82c0,0,104,-21,172,-98c0,0,68,-78,68,-171c0,0,0,-99,-76,-166c0,0,-77,-65,-201,-65Z"
id="f6_ch"
transform="scale(0.001,-0.001)"/>

<path d="M567,822l-46,76l14,31H726l46,-76L758,822ZM518,122c0,0,-115,0,-225,93c0,0,-111,94,-111,193c0,0,0,79,61,137C243,545,66,672,66,791c0,0,0,75,52,124c0,0,53,49,134,49c0,0,164,0,260,-237L451,694c0,0,-55,114,-119,163l-31,5c0,0,-44,0,-77,-32c0,0,-33,-31,-33,-78c0,0,0,-86,113,-165c0,0,60,27,133,27l67,-4l75,-89L564,490l-51,7H493c0,0,-90,0,-142,-43c0,0,-52,-43,-52,-104c0,0,0,-60,51,-109c0,0,37,-13,82,-13c0,0,104,0,197,59c0,0,94,60,127,148l95,-87c0,0,-43,-94,-140,-160c0,0,-97,-66,-193,-66Z"
id="f6_lh"
transform="scale(0.001,-0.001)"/>

<path d="M374,248c0,0,77,0,149,36c0,0,71,37,110,107V822H284c0,0,138,-96,138,-208c0,0,0,-151,-228,-192c0,0,29,-104,89,-158c0,0,41,-16,91,-16ZM723,-49L633,8V200c0,0,-69,-56,-170,-56c0,0,-122,0,-240,94c0,0,-118,94,-179,237l20,55c0,0,133,17,187,44c0,0,55,28,55,84c0,0,0,45,-30,81c0,0,-30,36,-99,83H0l-45,76l14,31H897l46,-76L929,822H694l65,-58V-39L723,-49Z"
id="f6_c0"
transform="scale(0.001,-0.001)"/>

<path d="M0,1062c0,0,-26,11,-60,36c0,0,-34,26,-51,49c0,0,39,81,91,110c0,0,60,-23,106,-85c0,0,-28,-70,-86,-110Z"
id="f6_dj"
transform="scale(0.001,-0.001)"/>

<path d="M471,-26c0,0,-259,0,-448,396l70,43C93,413,240,98,442,98c0,0,79,0,132,46c0,0,54,45,54,120c0,0,0,61,-38,116c0,0,-38,54,-107,72L322,370L255,492c0,0,66,53,156,56c0,0,128,51,128,153c0,0,0,77,-65,121H0l-45,76l14,31H1123l46,-76l-14,-31H578c0,0,76,-66,76,-157c0,0,0,-95,-87,-156c0,0,52,-29,84,-64c0,0,131,134,243,134c0,0,93,0,158,-70c0,0,65,-71,65,-167c0,0,0,-142,-177,-272L851,170c0,0,173,129,173,230c0,0,0,34,-23,57c0,0,-23,23,-63,23c0,0,-104,0,-215,-141c0,0,23,-55,23,-111c0,0,0,-109,-78,-182c0,0,-78,-72,-197,-72Z"
id="f6_aq"
transform="scale(0.001,-0.001)"/>

<path d="M725,307c0,0,-95,0,-218,78c0,0,-123,78,-188,78c0,0,-54,0,-95,-34c0,0,-41,-34,-73,-100L93,362c0,0,38,88,101,146c0,0,63,59,148,59c0,0,90,0,214,-78c0,0,124,-79,188,-79c0,0,63,0,106,34c0,0,42,33,85,104l60,-40c0,0,-32,-66,-101,-134c0,0,-70,-67,-169,-67Z"
id="f7_4r"
transform="scale(0.001,-0.001)"/>

<path d="M415,-18c0,0,-149,0,-244,83c0,0,-94,84,-107,222l140,11c0,0,16,-103,73,-154c0,0,56,-52,137,-52c0,0,98,0,165,73c0,0,66,73,66,194c0,0,0,115,-64,182c0,0,-64,66,-169,66c0,0,-65,0,-117,-29c0,0,-52,-30,-82,-77L87,517l106,562H736V951H300L241,657c0,0,99,69,207,69c0,0,143,0,242,-100c0,0,98,-99,98,-255c0,0,0,-149,-86,-257C702,114,597,-18,415,-18Z"
id="f8_p"
transform="scale(0.001,-0.001)"/>

<path d="M435,92c0,0,85,0,146,69c0,0,60,68,60,186c0,0,0,114,-60,179c0,0,-60,66,-152,66c0,0,-90,0,-154,-66c0,0,-63,-65,-63,-171c0,0,0,-70,30,-133c0,0,29,-64,82,-97c0,0,52,-33,111,-33Zm2,-110c0,0,-168,0,-273,123C164,105,58,228,58,512c0,0,0,317,117,461c0,0,102,125,275,125c0,0,129,0,211,-72c0,0,82,-72,99,-200L626,815c0,0,-18,79,-51,115c0,0,-54,58,-134,58c0,0,-64,0,-112,-36c0,0,-63,-46,-99,-135c0,0,-37,-89,-38,-253c0,0,48,74,118,110c0,0,70,36,147,36c0,0,134,0,228,-99c0,0,94,-99,94,-256c0,0,0,-103,-44,-191C735,164,691,75,613,28c0,0,-77,-46,-176,-46Z"
id="f8_q"
transform="scale(0.001,-0.001)"/>


</defs>
</svg>