<?xml version="1.0" encoding="UTF-8" standalone="no"?>
<!DOCTYPE svg PUBLIC "-//W3C//DTD SVG 1.1//EN"
"http://www.w3.org/Graphics/SVG/1.1/DTD/svg11.dtd">
<svg viewBox="0 0 641 910" version="1.1" xmlns="http://www.w3.org/2000/svg" xmlns:xlink="http://www.w3.org/1999/xlink">
<defs>
<clipPath id="c0_111"><path d="M0,909.8V0H641.7V909.8Z"/></clipPath>
<clipPath id="c1_111"><path d="M0,908.6V0H641.7V908.6Z"/></clipPath>
<style type="text/css"><![CDATA[
.g0_111{
fill: #FFFFFF;
}
.g1_111{
}
]]></style>
</defs>
<path d="M0,0H641.7V909.8H0V0Z" class="g0_111"/>
<path d="M0,0H641.7V909.8H0V0Z" class="g0_111"/>
<g clip-path="url(#c0_111)">
<path d="M0,-94618.2H641.7V11827.3H0V-94618.2Z" class="g0_111"/>
</g>
<path d="M0,0H641.7V908.6H0V0Z" class="g0_111"/>
<path d="M19.5,60.7H602.7v1.2H19.5V60.7Z" class="g1_111"/>
<g clip-path="url(#c1_111)">
<path d="M0,61.9H641.7V909.8H0V61.9Z" class="g0_111"/>
<g fill="#000000" >
<use xlink:href="#f6_bs" transform="matrix(14,0,0,14,80.5,82.5)" />
<use xlink:href="#f6_bt" transform="matrix(14,0,0,14,94.5,82.5)" />
<use xlink:href="#f6_br" transform="matrix(14,0,0,14,111.9,82.5)" />
<use xlink:href="#f6_d9" transform="matrix(14,0,0,14,123.6,82.5)" />
<use xlink:href="#f6_c3" transform="matrix(14,0,0,14,129.2,82.5)" />
<use xlink:href="#f6_bp" transform="matrix(14,0,0,14,143.9,82.5)" />
<use xlink:href="#f6_c0" transform="matrix(14,0,0,14,161.9,82.5)" />
<use xlink:href="#f6_d4" transform="matrix(14,0,0,14,174.6,82.5)" />
<use xlink:href="#f6_cc" transform="matrix(14,0,0,14,180.1,82.5)" />
<use xlink:href="#f6_d5" transform="matrix(14,0,0,14,192,82.5)" />
<use xlink:href="#f6_ba" transform="matrix(14,0,0,14,197.4,82.5)" />
<use xlink:href="#f6_d4" transform="matrix(14,0,0,14,214.2,82.5)" />
<use xlink:href="#f6_c3" transform="matrix(14,0,0,14,214.1,82.5)" />
<use xlink:href="#f6_al" transform="matrix(14,0,0,14,234.4,82.5)" />
<use xlink:href="#f6_bl" transform="matrix(14,0,0,14,250.3,82.5)" />
<use xlink:href="#f6_d4" transform="matrix(14,0,0,14,261.3,82.5)" />
<use xlink:href="#f6_cr" transform="matrix(14,0,0,14,262.7,82.5)" />
<use xlink:href="#f6_cr" transform="matrix(14,0,0,14,275.5,82.5)" />
<use xlink:href="#f6_cr" transform="matrix(14,0,0,14,288.3,82.5)" />
<use xlink:href="#f6_g" transform="matrix(14,0,0,14,301.1,82.5)" />
<use xlink:href="#f6_q" transform="matrix(14,0,0,14,307,82.5)" />
<use xlink:href="#f6_h" transform="matrix(14,0,0,14,318.7,82.5)" />
<use xlink:href="#f6_k" transform="matrix(14,0,0,14,324.5,82.5)" />
<use xlink:href="#f6_m1" transform="matrix(14,0,0,14,335.4,82.5)" />
<use xlink:href="#f6_c7" transform="matrix(14,0,0,14,344.2,82.5)" />
<use xlink:href="#f6_ct" transform="matrix(14,0,0,14,356.3,82.5)" />
<use xlink:href="#f6_no" transform="matrix(14,0,0,14,361.9,82.5)" />
<use xlink:href="#f6_bq" transform="matrix(14,0,0,14,361.9,82.5)" />
<use xlink:href="#f6_dr" transform="matrix(14,0,0,14,375.1,82.5)" />
<use xlink:href="#f6_c1" transform="matrix(14,0,0,14,380.8,82.5)" />
<use xlink:href="#f6_cv" transform="matrix(14,0,0,14,389.1,82.5)" />
<use xlink:href="#f6_mv" transform="matrix(14,0,0,14,400.4,82.5)" />
<use xlink:href="#f6_cu" transform="matrix(14,0,0,14,412.2,82.5)" />
<use xlink:href="#f6_bt" transform="matrix(14,0,0,14,417.8,82.5)" />
<use xlink:href="#f6_c0" transform="matrix(14,0,0,14,429.5,82.5)" />
<use xlink:href="#f6_ct" transform="matrix(14,0,0,14,442.1,82.5)" />
<use xlink:href="#f6_br" transform="matrix(14,0,0,14,447.7,82.5)" />
<use xlink:href="#f6_ct" transform="matrix(14,0,0,14,459.4,82.5)" />
<use xlink:href="#f6_c1" transform="matrix(14,0,0,14,465,82.5)" />
<use xlink:href="#f6_cv" transform="matrix(14,0,0,14,473.4,82.5)" />
<use xlink:href="#f6_cc" transform="matrix(14,0,0,14,484.7,82.5)" />
<use xlink:href="#f6_d5" transform="matrix(14,0,0,14,496.6,82.5)" />
<use xlink:href="#f6_cr" transform="matrix(14,0,0,14,496.3,82.5)" />
<use xlink:href="#f6_cr" transform="matrix(14,0,0,14,509.1,82.5)" />
<use xlink:href="#f6_cr" transform="matrix(14,0,0,14,521.9,82.5)" />
<use xlink:href="#f6_k" transform="matrix(14,0,0,14,534.8,82.5)" />
<use xlink:href="#f6_by" transform="matrix(14,0,0,14,105.7,115.7)" />
<use xlink:href="#f6_ct" transform="matrix(14,0,0,14,119.7,115.7)" />
<use xlink:href="#f6_ao" transform="matrix(14,0,0,14,125.3,115.7)" />
<use xlink:href="#f6_bt" transform="matrix(14,0,0,14,142.5,115.7)" />
<use xlink:href="#f6_d4" transform="matrix(14,0,0,14,154.3,115.7)" />
<use xlink:href="#f6_by" transform="matrix(14,0,0,14,159.8,115.7)" />
<use xlink:href="#f6_ct" transform="matrix(14,0,0,14,173.8,115.7)" />
<use xlink:href="#f6_ao" transform="matrix(14,0,0,14,179.4,115.7)" />
<use xlink:href="#f6_bz" transform="matrix(14,0,0,14,196.6,115.7)" />
<use xlink:href="#f6_ct" transform="matrix(14,0,0,14,209.9,115.7)" />
<use xlink:href="#f6_c1" transform="matrix(14,0,0,14,215.6,115.7)" />
<use xlink:href="#f6_br" transform="matrix(14,0,0,14,229.6,115.7)" />
<use xlink:href="#f6_d4" transform="matrix(14,0,0,14,240.8,115.7)" />
<use xlink:href="#f6_c7" transform="matrix(14,0,0,14,241.3,115.7)" />
<use xlink:href="#f6_d4" transform="matrix(14,0,0,14,253.5,115.7)" />
<use xlink:href="#f6_cr" transform="matrix(14,0,0,14,253.4,115.7)" />
<use xlink:href="#f6_cr" transform="matrix(14,0,0,14,266.2,115.7)" />
<use xlink:href="#f6_cr" transform="matrix(14,0,0,14,279,115.7)" />
<use xlink:href="#f6_g" transform="matrix(14,0,0,14,291.8,115.7)" />
<use xlink:href="#f6_q" transform="matrix(14,0,0,14,297.7,115.7)" />
<use xlink:href="#f6_h" transform="matrix(14,0,0,14,309.4,115.7)" />
<use xlink:href="#f6_k" transform="matrix(14,0,0,14,315.2,115.7)" />
<use xlink:href="#f6_bz" transform="matrix(14,0,0,14,326.1,115.7)" />
<use xlink:href="#f6_bp" transform="matrix(14,0,0,14,339.4,115.7)" />
<use xlink:href="#f6_c3" transform="matrix(14,0,0,14,351.7,115.7)" />
<use xlink:href="#f6_bx" transform="matrix(14,0,0,14,366.5,115.7)" />
<use xlink:href="#f6_c1" transform="matrix(14,0,0,14,384.4,115.7)" />
<use xlink:href="#f6_cv" transform="matrix(14,0,0,14,392.8,115.7)" />
<use xlink:href="#f6_nr" transform="matrix(14,0,0,14,404.1,115.7)" />
<use xlink:href="#f6_c1" transform="matrix(14,0,0,14,409.7,115.7)" />
<use xlink:href="#f6_ly" transform="matrix(14,0,0,14,418.1,115.7)" />
<use xlink:href="#f6_bp" transform="matrix(14,0,0,14,428.8,115.7)" />
<use xlink:href="#f6_d4" transform="matrix(14,0,0,14,441.3,115.7)" />
<use xlink:href="#f6_br" transform="matrix(14,0,0,14,441.1,115.7)" />
<use xlink:href="#f6_ct" transform="matrix(14,0,0,14,452.8,115.7)" />
<use xlink:href="#f6_c1" transform="matrix(14,0,0,14,458.4,115.7)" />
<use xlink:href="#f6_cv" transform="matrix(14,0,0,14,466.8,115.7)" />
<use xlink:href="#f6_cr" transform="matrix(14,0,0,14,472.4,115.7)" />
<use xlink:href="#f6_cr" transform="matrix(14,0,0,14,485.2,115.7)" />
<use xlink:href="#f6_cr" transform="matrix(14,0,0,14,498.1,115.7)" />
<use xlink:href="#f6_k" transform="matrix(14,0,0,14,510.9,115.7)" />
<use xlink:href="#f6_cu" transform="matrix(14,0,0,14,31.2,149)" />
<use xlink:href="#f6_b9" transform="matrix(14,0,0,14,36.9,149)" />
<use xlink:href="#f6_cb" transform="matrix(14,0,0,14,52.4,149)" />
<use xlink:href="#f6_cu" transform="matrix(14,0,0,14,72.9,149)" />
<use xlink:href="#f6_b9" transform="matrix(14,0,0,14,78.5,149)" />
<use xlink:href="#f6_cb" transform="matrix(14,0,0,14,94,149)" />
<use xlink:href="#f6_b9" transform="matrix(14,0,0,14,108.9,149)" />
<use xlink:href="#f6_d8" transform="matrix(14,0,0,14,124.4,149)" />
<use xlink:href="#f6_br" transform="matrix(14,0,0,14,135.7,149)" />
<use xlink:href="#f6_d8" transform="matrix(14,0,0,14,147.4,149)" />
<use xlink:href="#f6_ca" transform="matrix(14,0,0,14,153,149)" />
<use xlink:href="#f6_bx" transform="matrix(14,0,0,14,170.9,149)" />
<use xlink:href="#f6_bp" transform="matrix(14,0,0,14,183.2,149)" />
<use xlink:href="#f6_ct" transform="matrix(14,0,0,14,195.5,149)" />
<use xlink:href="#f6_aq" transform="matrix(14,0,0,14,201.2,149)" />
<use xlink:href="#f6_di" transform="matrix(14,0,0,14,212.1,149.4)" />
<use xlink:href="#f6_bz" transform="matrix(14,0,0,14,222.5,149)" />
<use xlink:href="#f6_p3" transform="matrix(14,0,0,14,236,149)" />
<use xlink:href="#f6_pc" transform="matrix(14,0,0,14,235.9,149)" />
<use xlink:href="#f6_pc" transform="matrix(14,0,0,14,240.2,149)" />
<use xlink:href="#f6_bz" transform="matrix(14,0,0,14,244.4,149)" />
<use xlink:href="#f6_p3" transform="matrix(14,0,0,14,257.9,149)" />
<use xlink:href="#f6_g" transform="matrix(14,0,0,14,263.4,149)" />
<use xlink:href="#f6_q" transform="matrix(14,0,0,14,269.3,149)" />
<use xlink:href="#f6_h" transform="matrix(14,0,0,14,281,149)" />
<use xlink:href="#f6_ba" transform="matrix(14,0,0,14,292.5,149)" />
<use xlink:href="#f6_cw" transform="matrix(14,0,0,14,309.7,149.8)" />
<use xlink:href="#f6_br" transform="matrix(14,0,0,14,309.2,149)" />
<use xlink:href="#f6_bz" transform="matrix(14,0,0,14,326.5,149)" />
<use xlink:href="#f6_bt" transform="matrix(14,0,0,14,339.9,149)" />
<use xlink:href="#f6_b9" transform="matrix(14,0,0,14,357.3,149)" />
<use xlink:href="#f6_oc" transform="matrix(14,0,0,14,372.8,149)" />
<use xlink:href="#f6_bz" transform="matrix(14,0,0,14,384,149)" />
<use xlink:href="#f6_bp" transform="matrix(14,0,0,14,397.4,149)" />
<use xlink:href="#f6_cv" transform="matrix(14,0,0,14,409.7,149)" />
<use xlink:href="#f6_al" transform="matrix(14,0,0,14,421,149)" />
<use xlink:href="#f6_bx" transform="matrix(14,0,0,14,436.8,149)" />
<use xlink:href="#f6_bz" transform="matrix(14,0,0,14,454.8,149)" />
<use xlink:href="#f6_ct" transform="matrix(14,0,0,14,468.1,149)" />
<use xlink:href="#f6_c1" transform="matrix(14,0,0,14,473.8,149)" />
<use xlink:href="#f6_cv" transform="matrix(14,0,0,14,482.1,149)" />
<use xlink:href="#f6_cc" transform="matrix(14,0,0,14,493.4,149)" />
<use xlink:href="#f6_d5" transform="matrix(14,0,0,14,505.4,149)" />
<use xlink:href="#f6_k" transform="matrix(14,0,0,14,505,149)" />
<use xlink:href="#f6_bz" transform="matrix(14,0,0,14,515.9,149)" />
<use xlink:href="#f6_ct" transform="matrix(14,0,0,14,529.3,149)" />
<use xlink:href="#f6_di" transform="matrix(14,0,0,14,532.7,149.4)" />
<use xlink:href="#f6_pd" transform="matrix(14,0,0,14,534.9,149)" />
<use xlink:href="#f6_bx" transform="matrix(14,0,0,14,542.4,149)" />
<use xlink:href="#f6_ct" transform="matrix(14,0,0,14,554.7,149)" />
<use xlink:href="#f6_bv" transform="matrix(14,0,0,14,560.3,149)" />
<use xlink:href="#f6_bt" transform="matrix(14,0,0,14,577.9,149)" />
<use xlink:href="#f6_d4" transform="matrix(14,0,0,14,589.7,149)" />
<use xlink:href="#f6_cb" transform="matrix(14,0,0,14,121.8,174.2)" />
<use xlink:href="#f6_bz" transform="matrix(14,0,0,14,136.6,174.2)" />
<use xlink:href="#f6_bh" transform="matrix(14,0,0,14,150,174.2)" />
<use xlink:href="#f6_d4" transform="matrix(14,0,0,14,166.9,174.2)" />
<use xlink:href="#f6_b9" transform="matrix(14,0,0,14,172.4,174.2)" />
<use xlink:href="#f6_d8" transform="matrix(14,0,0,14,187.9,174.2)" />
<use xlink:href="#f6_bt" transform="matrix(14,0,0,14,193.5,174.2)" />
<use xlink:href="#f6_cv" transform="matrix(14,0,0,14,205.3,174.2)" />
<use xlink:href="#f6_al" transform="matrix(14,0,0,14,216.5,174.2)" />
<use xlink:href="#f6_bl" transform="matrix(14,0,0,14,232.4,174.2)" />
<use xlink:href="#f6_d4" transform="matrix(14,0,0,14,243.4,174.2)" />
<use xlink:href="#f6_b8" transform="matrix(14,0,0,14,250.4,174.2)" />
<use xlink:href="#f6_c1" transform="matrix(14,0,0,14,271.9,174.2)" />
<use xlink:href="#f6_bz" transform="matrix(14,0,0,14,286,174.2)" />
<use xlink:href="#f6_bz" transform="matrix(14,0,0,14,299.3,174.2)" />
<use xlink:href="#f6_bp" transform="matrix(14,0,0,14,312.6,174.2)" />
<use xlink:href="#f6_ct" transform="matrix(14,0,0,14,325,174.2)" />
<use xlink:href="#f6_bl" transform="matrix(14,0,0,14,336.2,174.2)" />
<use xlink:href="#f6_d8" transform="matrix(14,0,0,14,348.6,174.2)" />
<use xlink:href="#f6_b9" transform="matrix(14,0,0,14,354.2,174.2)" />
<use xlink:href="#f6_c1" transform="matrix(14,0,0,14,369.7,174.2)" />
<use xlink:href="#f6_ba" transform="matrix(14,0,0,14,383.8,174.2)" />
<use xlink:href="#f6_ct" transform="matrix(14,0,0,14,400.5,174.2)" />
<use xlink:href="#f6_c1" transform="matrix(14,0,0,14,411.8,174.2)" />
<use xlink:href="#f6_cc" transform="matrix(14,0,0,14,420.1,174.2)" />
<use xlink:href="#f6_cv" transform="matrix(14,0,0,14,431.7,174.2)" />
<use xlink:href="#f6_cc" transform="matrix(14,0,0,14,443,174.2)" />
<use xlink:href="#f6_d5" transform="matrix(14,0,0,14,455,174.2)" />
<use xlink:href="#f6_cr" transform="matrix(14,0,0,14,454.6,174.2)" />
<use xlink:href="#f6_cr" transform="matrix(14,0,0,14,467.5,174.2)" />
<use xlink:href="#f6_cr" transform="matrix(14,0,0,14,480.3,174.2)" />
<use xlink:href="#f6_k" transform="matrix(14,0,0,14,493.1,174.2)" />
<use xlink:href="#f6_c7" transform="matrix(14,0,0,14,88.5,207.4)" />
<use xlink:href="#f6_d8" transform="matrix(14,0,0,14,100.6,207.4)" />
<use xlink:href="#f6_b9" transform="matrix(14,0,0,14,111.9,207.4)" />
<use xlink:href="#f6_ct" transform="matrix(14,0,0,14,127.4,207.4)" />
<use xlink:href="#f6_oi" transform="matrix(14,0,0,14,127.6,207.8)" />
<use xlink:href="#f6_bs" transform="matrix(14,0,0,14,133,207.4)" />
<use xlink:href="#f6_d4" transform="matrix(14,0,0,14,147.2,207.4)" />
<use xlink:href="#f6_bp" transform="matrix(14,0,0,14,152.7,207.4)" />
<use xlink:href="#f6_cv" transform="matrix(14,0,0,14,165,207.4)" />
<use xlink:href="#f6_c1" transform="matrix(14,0,0,14,170.6,207.4)" />
<use xlink:href="#f6_no" transform="matrix(14,0,0,14,179,207.4)" />
<use xlink:href="#f6_bq" transform="matrix(14,0,0,14,179,207.4)" />
<use xlink:href="#f6_b9" transform="matrix(14,0,0,14,197.9,207.4)" />
<use xlink:href="#f6_c1" transform="matrix(14,0,0,14,213.4,207.4)" />
<use xlink:href="#f6_ct" transform="matrix(14,0,0,14,221.7,207.4)" />
<use xlink:href="#f6_c7" transform="matrix(14,0,0,14,227.4,207.4)" />
<use xlink:href="#f6_bt" transform="matrix(14,0,0,14,239.4,207.4)" />
<use xlink:href="#f6_cv" transform="matrix(14,0,0,14,251.1,207.4)" />
<use xlink:href="#f6_c0" transform="matrix(14,0,0,14,256.8,207.4)" />
<use xlink:href="#f6_d8" transform="matrix(14,0,0,14,269.3,207.4)" />
<use xlink:href="#f6_pc" transform="matrix(14,0,0,14,274.9,207.4)" />
<use xlink:href="#f6_pc" transform="matrix(14,0,0,14,279.2,207.4)" />
<use xlink:href="#f6_pc" transform="matrix(14,0,0,14,283.5,207.4)" />
<use xlink:href="#f6_c0" transform="matrix(14,0,0,14,287.8,207.4)" />
<use xlink:href="#f6_d8" transform="matrix(14,0,0,14,300.3,207.4)" />
<use xlink:href="#f6_g" transform="matrix(14,0,0,14,311.6,207.4)" />
<use xlink:href="#f6_q" transform="matrix(14,0,0,14,317.5,207.4)" />
<use xlink:href="#f6_h" transform="matrix(14,0,0,14,329.1,207.4)" />
<use xlink:href="#f6_c7" transform="matrix(14,0,0,14,340.7,207.4)" />
<use xlink:href="#f6_d8" transform="matrix(14,0,0,14,352.7,207.4)" />
<use xlink:href="#f6_ef" transform="matrix(14,0,0,14,364,207.4)" />
<use xlink:href="#f6_c7" transform="matrix(14,0,0,14,378.2,207.4)" />
<use xlink:href="#f6_bo" transform="matrix(14,0,0,14,390.3,207.4)" />
<use xlink:href="#f6_bg" transform="matrix(14,0,0,14,410.3,207.4)" />
<use xlink:href="#f6_d4" transform="matrix(14,0,0,14,424.7,207.4)" />
<use xlink:href="#f6_bm" transform="matrix(14,0,0,14,424.6,207.4)" />
<use xlink:href="#f6_cv" transform="matrix(14,0,0,14,437.3,207.4)" />
<use xlink:href="#f6_cb" transform="matrix(14,0,0,14,448.5,207.4)" />
<use xlink:href="#f6_dj" transform="matrix(14,0,0,14,457.1,207.8)" />
<use xlink:href="#f6_bp" transform="matrix(14,0,0,14,463.4,207.4)" />
<use xlink:href="#f6_ct" transform="matrix(14,0,0,14,475.7,207.4)" />
<use xlink:href="#f6_bt" transform="matrix(14,0,0,14,481.4,207.4)" />
<use xlink:href="#f6_b9" transform="matrix(14,0,0,14,498.7,207.4)" />
<use xlink:href="#f6_bl" transform="matrix(14,0,0,14,514.2,207.4)" />
<use xlink:href="#f6_d4" transform="matrix(14,0,0,14,525.2,207.4)" />
<use xlink:href="#f6_k" transform="matrix(14,0,0,14,526.6,207.4)" />
<use xlink:href="#f6_cu" transform="matrix(14,0,0,14,242.1,240.6)" />
<use xlink:href="#f6_e1" transform="matrix(14,0,0,14,247.7,240.6)" />
<use xlink:href="#f6_c8" transform="matrix(14,0,0,14,259.8,240.6)" />
<use xlink:href="#f6_c3" transform="matrix(14,0,0,14,275.6,240.6)" />
<use xlink:href="#f6_ct" transform="matrix(14,0,0,14,290.3,240.6)" />
<use xlink:href="#f6_bz" transform="matrix(14,0,0,14,301.6,240.6)" />
<use xlink:href="#f6_ct" transform="matrix(14,0,0,14,314.9,240.6)" />
<use xlink:href="#f6_di" transform="matrix(14,0,0,14,318.4,241.1)" />
<use xlink:href="#f6_bq" transform="matrix(14,0,0,14,326.2,240.6)" />
<use xlink:href="#f6_ct" transform="matrix(14,0,0,14,339.4,240.6)" />
<use xlink:href="#f6_c1" transform="matrix(14,0,0,14,345,240.6)" />
<use xlink:href="#f6_d8" transform="matrix(14,0,0,14,353.4,240.6)" />
<use xlink:href="#f6_8l" transform="matrix(14,0,0,14,359,240.6)" />
<use xlink:href="#f7_4r" transform="matrix(9,0,0,9,286.8,795.2)" />
<use xlink:href="#f8_l" transform="matrix(9,0,0,9,299.6,795.2)" />
<use xlink:href="#f8_k" transform="matrix(9,0,0,9,307.2,795.2)" />
<use xlink:href="#f8_p" transform="matrix(9,0,0,9,314.9,795.2)" />
<use xlink:href="#f7_4r" transform="matrix(9,0,0,9,325.6,795.2)" />
</g>
</g>
<image preserveAspectRatio="none" x="22" y="801" width="581" height="86" xlink:href="img/1.png"/>
<image preserveAspectRatio="none" x="202" y="14" width="217" height="26" xlink:href="img/2.png"/>
<defs>
<path d="M827,-49L736,8V205c0,0,-84,-84,-209,-84c0,0,-130,0,-237,91c0,0,-108,92,-108,196c0,0,0,79,61,137C243,545,66,672,66,791c0,0,0,75,52,124c0,0,53,49,134,49c0,0,164,0,260,-237L451,694c0,0,-55,114,-119,163l-31,5c0,0,-44,0,-77,-32c0,0,-33,-31,-33,-78c0,0,0,-86,113,-165c0,0,60,27,133,27l67,-4l75,-89L564,490l-51,7H493c0,0,-90,0,-142,-43c0,0,-52,-43,-52,-104c0,0,0,-60,51,-109c0,0,33,-16,84,-16c0,0,89,0,177,47c0,0,89,47,125,137V822H567l-46,76l14,31h466l46,-76l-14,-31H798l65,-58V-39L827,-49Z"
id="f6_bs"
transform="scale(0.001,-0.001)"/>

<path d="M663,-49L573,8V445H299V280L226,251c0,0,-105,99,-162,238l63,72H573V822H0l-45,76l14,31H837l46,-76L869,822H634l66,-58V-39L663,-49Z"
id="f6_bt"
transform="scale(0.001,-0.001)"/>

<path d="M675,-274L602,21C602,21,550,3,498,3C498,3,347,3,210,118C210,118,73,232,73,373c0,0,0,113,84,184c0,0,84,71,222,72H524V822H0l-45,76l14,31H834l46,-76L866,822H585l66,-58V504l-3,2l3,-3H408c0,0,-95,0,-154,-53c0,0,-58,-53,-58,-132c0,0,0,-49,27,-100c0,0,28,-50,83,-84c0,0,44,-15,96,-15c0,0,91,0,160,46L535,303l101,48L773,188c0,0,-8,-28,-34,-66c0,0,-27,-38,-62,-64L813,-221L675,-274Z"
id="f6_br"
transform="scale(0.001,-0.001)"/>

<path d="M228,-49L138,8V822H0l-45,76l14,31H70L-65,1033c0,0,-90,65,-157,65c0,0,-67,0,-151,-53l-72,118c0,0,78,65,163,65c0,0,116,0,246,-120L153,930L46,1201c0,0,-71,166,-187,166c0,0,-52,0,-128,-33l-60,125c0,0,78,46,159,46c0,0,193,0,283,-271L215,929H402l46,-76L434,822H199l65,-58V-39L228,-49Z"
id="f6_d9"
transform="scale(0.001,-0.001)"/>

<path d="M413,-59C413,-59,53,193,53,416c0,0,0,97,66,164c0,0,66,66,156,66c0,0,61,0,110,-30L487,507c0,0,92,126,257,126l35,-2V822H0l-45,76l14,31H1043l46,-76l-13,-31H840l66,-58V-39L869,-49L779,8V547c0,0,-101,-5,-165,-90c0,0,-64,-86,-70,-222L507,225l-90,73c0,0,5,79,35,151c0,0,-59,66,-128,66c0,0,-57,0,-100,-38c0,0,-44,-39,-44,-109c0,0,0,-165,284,-360L413,-59Z"
id="f6_c3"
transform="scale(0.001,-0.001)"/>

<path d="M347,-57C347,-57,66,211,66,394c0,0,0,98,74,164c0,0,74,65,225,65H616V822H0l-45,76l14,31H880l46,-76L912,822H677l66,-58V-39L706,-49L616,8V500H428c0,0,-239,0,-239,-161c0,0,0,-136,214,-343L347,-57Z"
id="f6_bp"
transform="scale(0.001,-0.001)"/>

<path d="M374,248c0,0,77,0,149,36c0,0,71,37,110,107V822H284c0,0,138,-96,138,-208c0,0,0,-151,-228,-192c0,0,29,-104,89,-158c0,0,41,-16,91,-16ZM723,-49L633,8V200c0,0,-69,-56,-170,-56c0,0,-122,0,-240,94c0,0,-118,94,-179,237l20,55c0,0,133,17,187,44c0,0,55,28,55,84c0,0,0,45,-30,81c0,0,-30,36,-99,83H0l-45,76l14,31H897l46,-76L929,822H694l65,-58V-39L723,-49Z"
id="f6_c0"
transform="scale(0.001,-0.001)"/>

<path d="M-214,863l-199,281c0,0,-70,92,-157,92c0,0,-69,0,-159,-58l-72,118c0,0,89,73,180,73c0,0,141,0,258,-170L-155,901l-59,-38Z"
id="f6_d4"
transform="scale(0.001,-0.001)"/>

<path d="M688,-243c0,0,-256,53,-408,173c0,0,-152,119,-152,270c0,0,0,101,68,171c0,0,-101,84,-101,179c0,0,0,64,53,112c0,0,54,47,191,47H587V822H0l-45,76l14,31H830l45,-76L862,822H640l66,-58V585H362c0,0,-159,-1,-159,-92c0,0,0,-41,46,-80c0,0,76,47,183,47c0,0,135,0,230,-76c0,0,96,-75,96,-187C758,197,758,67,629,2L545,104c0,0,49,30,81,75c0,0,32,44,32,82c0,0,0,16,-4,26c0,0,-64,58,-167,58c0,0,-97,0,-166,-50v-2c0,0,-67,-52,-67,-131c0,0,0,-116,132,-199c0,0,132,-84,334,-132l-32,-74Z"
id="f6_cc"
transform="scale(0.001,-0.001)"/>

<path d="M-214,860l-227,219c0,0,-73,70,-148,70c0,0,-67,0,-160,-58l-72,117c0,0,83,71,176,71c0,0,120,0,232,-124L-221,940l-102,294c0,0,-64,179,-189,179c0,0,-60,0,-133,-33l-60,125c0,0,84,47,164,47c0,0,200,0,281,-276L-150,901l-23,-15l-41,-26Z"
id="f6_d5"
transform="scale(0.001,-0.001)"/>

<path d="M761,293c0,0,127,0,169,94V532c0,0,-68,46,-145,46c0,0,-76,0,-121,-46c0,0,-45,-45,-45,-107c0,0,0,-61,44,-110c0,0,47,-22,98,-22ZM657,67c0,0,166,0,273,107v55c0,0,-45,-36,-111,-36c0,0,-110,0,-207,90c0,0,-97,90,-97,194c0,0,0,85,66,148c0,0,65,63,155,63l48,-5L930,603V822H376l62,-55V579c0,0,0,-60,-23,-102c0,0,-24,-42,-148,-190c0,0,66,-104,175,-162c0,0,108,-58,215,-58ZM1021,-49L930,8V53c0,0,-105,-83,-264,-83c0,0,-177,0,-339,128C327,98,165,226,90,429l34,77H296c0,0,19,39,19,102l-2,214H0l-45,76l14,31H1195l46,-76l-14,-31H992l65,-58V-39l-36,-10Z"
id="f6_ba"
transform="scale(0.001,-0.001)"/>

<path d="M959,-49L869,8V367c0,0,-32,-13,-64,-13c0,0,-50,0,-110,25c0,0,23,-52,23,-109c0,0,0,-103,-70,-170c0,0,-70,-66,-182,-66c0,0,-110,0,-222,82c0,0,-111,83,-213,293l68,42c0,0,72,-155,152,-231c0,0,81,-76,178,-76c0,0,83,0,131,49c0,0,48,48,48,117c0,0,0,54,-30,100c0,0,-31,47,-91,65L325,391L257,512c0,0,68,53,156,56c0,0,140,72,140,179c0,0,0,69,-52,99c0,0,-4,1,-11,1c-19,0,-66,-4,-123,-30c0,0,-78,-35,-142,-96L150,823c0,0,119,117,253,117c0,0,98,0,175,-71c0,0,77,-70,77,-159c0,0,0,-103,-94,-180c0,0,39,-23,73,-56c0,0,52,-22,109,-22c0,0,77,0,126,38V822H727l-46,76l14,31h439l45,-76l-13,-31H930l66,-58V-39L959,-49Z"
id="f6_al"
transform="scale(0.001,-0.001)"/>

<path d="M449,79c0,0,103,0,168,61c0,0,66,60,66,149c0,0,0,93,-84,186H420c0,0,-107,0,-164,-50c0,0,-57,-51,-57,-126c0,0,0,-108,99,-184c0,0,81,-36,151,-36Zm67,-96c0,0,-168,0,-301,109C215,92,81,202,81,350c0,0,0,114,83,182c0,0,84,68,229,68H507V822H0l-45,76l14,31H883l46,-76L915,822H568l66,-58V532c0,0,87,-64,130,-144c0,0,43,-79,43,-157c0,0,0,-109,-81,-179c0,0,-81,-69,-210,-69Z"
id="f6_bl"
transform="scale(0.001,-0.001)"/>

<path d="M498,2C498,2,377,2,283,89c0,0,-94,88,-142,218l77,55c0,0,95,-250,253,-250c0,0,65,0,109,37c0,0,43,37,43,97c0,0,0,86,-116,151L312,500c0,0,-138,81,-138,189c0,0,0,70,57,118c0,0,56,47,186,47H657l47,-84L684,739H413c0,0,-133,-3,-133,-67c0,0,0,-41,42,-71c0,0,42,-30,131,-70c0,0,89,-41,147,-76c0,0,58,-35,97,-90c0,0,39,-55,39,-133c0,0,0,-105,-68,-168C668,64,600,2,498,2Z"
id="f6_cr"
transform="scale(0.001,-0.001)"/>

<path d="M290,-236c0,0,-253,348,-253,685c0,0,0,342,270,669l80,-39c0,0,-207,-311,-207,-622c0,0,0,-326,193,-652l-83,-41Z"
id="f6_g"
transform="scale(0.001,-0.001)"/>

<path d="M95,0L67,98L422,497c0,0,130,154,130,259c0,0,0,63,-40,111c0,0,-40,48,-121,48c0,0,-75,0,-171,-29L193,695l-88,2c0,0,-13,82,-13,165l1,65c0,0,159,97,315,97c0,0,122,0,207,-78c0,0,85,-77,85,-193c0,0,0,-67,-34,-133c0,0,-33,-67,-165,-217L237,121l4,-14l373,21l49,136l83,-12C746,252,732,99,704,0Z"
id="f6_q"
transform="scale(0.001,-0.001)"/>

<path d="M130,-236l-83,41c0,0,193,326,193,652c0,0,0,311,-206,622l79,39c0,0,270,-327,270,-669c0,0,0,-337,-253,-685Z"
id="f6_h"
transform="scale(0.001,-0.001)"/>

<path d="M108,-222l-44,58c0,0,96,81,104,164L89,61c0,0,12,83,93,122c0,0,50,-15,79,-55c0,0,29,-39,29,-90c0,0,0,-69,-48,-142c0,0,-48,-72,-134,-118Z"
id="f6_k"
transform="scale(0.001,-0.001)"/>

<path d="M527,-71L52,414l34,92H277c0,0,12,32,12,72V822H0l-45,76l14,31H654l46,-76L686,822H350l66,-55V564c0,0,0,-43,-25,-89H782L798,370H315L264,316L610,34L611,8L527,-71Z"
id="f6_m1"
transform="scale(0.001,-0.001)"/>

<path d="M325,240c0,0,77,0,154,35c0,0,77,35,120,99V500c0,0,-118,73,-222,73c0,0,-97,0,-151,-54c0,0,-53,-53,-53,-128c0,0,0,-73,49,-125c0,0,38,-26,103,-26ZM689,-49L599,8V199c0,0,-73,-65,-179,-65c0,0,-134,0,-252,96c0,0,-118,95,-118,221c0,0,0,102,78,171c0,0,78,69,190,69c0,0,38,0,75,-10L599,582V822H0l-45,76l14,31H863l46,-76L895,822H660l66,-58V-39L689,-49Z"
id="f6_c7"
transform="scale(0.001,-0.001)"/>

<path d="M228,-49L138,8V822H0l-45,76l14,31H402l46,-76L434,822H199l65,-58V-39L228,-49Z"
id="f6_ct"
transform="scale(0.001,-0.001)"/>

<path d="M0,822l-45,76l14,31H61l46,-76L93,822Z"
id="f6_no"
transform="scale(0.001,-0.001)"/>

<path d="M768,-49L678,8V202c0,0,-73,-58,-172,-58c0,0,-123,0,-240,94c0,0,-118,94,-179,237l20,55c0,0,134,12,215,70c0,0,81,57,81,141c0,0,0,90,-67,134l-26,3c0,0,-46,0,-74,-29c0,0,-28,-30,-28,-68c0,0,0,-55,82,-109L252,620C252,620,93,720,93,820c0,0,0,65,47,104c0,0,46,40,114,40c0,0,99,0,179,-83c0,0,80,-83,82,-197c0,0,0,-93,-79,-165c0,0,-78,-73,-199,-97c0,0,29,-104,88,-158c0,0,42,-16,92,-16c0,0,78,0,151,38c0,0,74,38,110,111V822H553l-46,76l14,31H943l45,-76L975,822H739l66,-58V-39L768,-49Z"
id="f6_bq"
transform="scale(0.001,-0.001)"/>

<path d="M-239,897c0,0,-82,61,-132,137c0,0,-50,75,-50,150c0,0,0,78,52,133c0,0,52,55,141,55c0,0,98,0,176,-64l-23,-69c0,0,-52,32,-104,32c0,0,-57,0,-95,-36c0,0,-38,-36,-38,-95c0,0,0,-115,117,-217l-44,-26Z"
id="f6_dr"
transform="scale(0.001,-0.001)"/>

<path d="M527,-71L52,414l34,92H277c0,0,12,32,12,72V822H0l-45,76l14,31H599l46,-76L631,822H350l66,-55V564c0,0,0,-96,-152,-248L610,34L611,8L527,-71Z"
id="f6_c1"
transform="scale(0.001,-0.001)"/>

<path d="M228,-49L138,8V822H0l-45,76l14,31H138c0,0,-109,342,-284,342c0,0,-62,0,-102,-40c0,0,-40,-39,-40,-93c0,0,0,-61,51,-134l-42,-32c0,0,-128,113,-128,226c0,0,0,79,60,136c0,0,61,56,154,56c0,0,137,0,249,-125c0,0,112,-125,169,-336H402l46,-76L434,822H199l65,-58V-39L228,-49Z"
id="f6_cv"
transform="scale(0.001,-0.001)"/>

<path d="M652,-518c0,0,-209,0,-487,322l53,49c0,0,120,-129,210,-193c0,0,90,-65,177,-65c0,0,72,0,113,39c0,0,41,40,41,92c0,0,0,75,-78,105L564,-286l-90,98c0,0,62,96,169,96L605,37C605,37,552,18,498,18c0,0,-151,0,-288,115C210,133,73,248,73,388c0,0,0,113,84,184c0,0,84,71,222,73H524V822H0l-45,76l14,31H842l46,-76L874,822H567l84,-73V519l-3,2l3,-3H408c0,0,-93,0,-153,-52c0,0,-59,-52,-59,-128c0,0,0,-121,110,-188c0,0,53,-17,105,-17c0,0,92,0,153,43L535,318l101,49L773,203c0,0,-20,-67,-87,-122l61,-204c0,0,52,-32,83,-87c0,0,32,-55,32,-116c0,0,0,-85,-61,-139c0,0,-60,-53,-149,-53Z"
id="f6_mv"
transform="scale(0.001,-0.001)"/>

<path d="M228,-49L138,8V822H0l-45,76l14,31H134c0,0,-91,92,-91,191c0,0,0,105,85,170c0,0,84,65,219,65c0,0,128,0,293,-76c0,0,165,-77,362,-263L958,966c0,0,-177,143,-303,210c0,0,-125,68,-244,68c0,0,-107,0,-175,-50c0,0,-68,-50,-68,-131c0,0,0,-61,49,-134H402l46,-76L434,822H199l65,-58V-39L228,-49Z"
id="f6_cu"
transform="scale(0.001,-0.001)"/>

<path d="M823,-49L733,8V339H445V191L371,160c0,0,-56,36,-120,105c0,0,-63,70,-89,131l41,59H313V735c0,0,0,99,-55,140c0,0,-3,1,-8,1c-16,0,-48,-3,-71,-23c0,0,-31,-26,-31,-66c0,0,0,-69,81,-113L189,620C189,620,31,720,31,828c0,0,0,61,45,99c0,0,46,37,109,37c0,0,96,0,173,-86c0,0,76,-87,79,-194V455H733V822H556l-46,76l14,31H998l45,-76l-13,-31H794l66,-58V-39L823,-49Z"
id="f6_by"
transform="scale(0.001,-0.001)"/>

<path d="M483,-305L295,-10c0,0,-90,22,-156,74l41,170h66L351,63c0,0,126,4,207,62c0,0,82,58,82,139c0,0,0,37,-18,71L365,266c0,0,-110,15,-197,102c0,0,-87,87,-87,176c0,0,0,69,59,117c0,0,59,48,172,48H550V822H0l-45,76l14,31H550c0,0,-142,122,-142,255c0,0,0,78,52,133c0,0,52,55,140,55c0,0,98,0,176,-64l-23,-69c0,0,-53,32,-104,32c0,0,-56,0,-94,-36c0,0,-39,-36,-39,-95c0,0,0,-109,112,-211H822l46,-76L854,822H603l66,-58V585H373c0,0,-184,0,-184,-99c0,0,0,-48,63,-101l310,78c0,0,86,-34,141,-99c0,0,55,-65,55,-142c0,0,0,-109,-98,-179c0,0,-98,-69,-254,-69L599,-216L483,-305Z"
id="f6_ao"
transform="scale(0.001,-0.001)"/>

<path d="M689,445V822H286l65,-58l8,-319ZM779,-49L689,8V328H370V180L296,150c0,0,-56,35,-120,104c0,0,-63,70,-89,131l41,60H238L223,822H0l-45,76l14,31H953l46,-76L985,822H750l66,-58V-39L779,-49Z"
id="f6_bz"
transform="scale(0.001,-0.001)"/>

<path d="M348,229c0,0,57,0,106,17L263,559c0,0,-95,-50,-95,-162c0,0,0,-75,52,-136c0,0,49,-32,128,-32Zm170,48c0,0,61,38,96,91V504c0,0,-131,80,-244,80l-35,-2L518,277ZM704,-49L614,8V193c0,0,-84,-65,-192,-65c0,0,-139,0,-255,98c0,0,-115,98,-115,226c0,0,0,106,77,175c0,0,77,70,189,70c0,0,38,0,75,-9L614,578V822H0l-45,76l14,31H878l46,-76L911,822H675l66,-58V-39L704,-49Z"
id="f6_bx"
transform="scale(0.001,-0.001)"/>

<path d="M228,-49L138,8V822H0l-45,76l14,31H133c0,0,-93,95,-93,206c0,0,0,96,68,159c0,0,68,63,179,63c0,0,118,0,228,-81c0,0,110,-80,258,-262L720,970L588,1109c0,0,-133,133,-253,133c0,0,-78,0,-127,-46c0,0,-49,-46,-49,-119c0,0,0,-69,56,-148H402l46,-76L434,822H199l65,-58V-39L228,-49Z"
id="f6_nr"
transform="scale(0.001,-0.001)"/>

<path d="M513,460c0,0,61,81,61,179c0,0,0,87,-45,143c0,0,-45,57,-116,57c0,0,-63,0,-102,-43c0,0,-39,-43,-39,-110c0,0,0,-90,68,-151c0,0,68,-61,173,-75ZM581,-83L278,167l-41,-4c0,0,-99,0,-130,37l47,168l51,12l78,-79c0,0,110,40,183,105c0,0,-141,23,-231,107c0,0,-90,84,-90,193c0,0,0,69,37,116H0l-45,76l14,31H798l45,-76L830,822H588c0,0,51,-44,75,-109c0,0,25,-64,25,-122c0,0,0,-105,-81,-213c0,0,-80,-108,-240,-176L658,18l2,-25L581,-83Z"
id="f6_ly"
transform="scale(0.001,-0.001)"/>

<path d="M283,260c0,0,122,0,209,113V513c0,0,-90,51,-160,51c0,0,-80,0,-129,-50c0,0,-49,-50,-49,-118c0,0,0,-60,35,-110c0,0,45,-26,94,-26ZM582,-49L492,8V211c0,0,-63,-54,-141,-54c0,0,-113,0,-213,92c0,0,-100,92,-100,205c0,0,0,93,69,157c0,0,69,64,162,64c0,0,32,0,64,-9L492,590V822H0l-45,76l14,31H1108l45,-76l-13,-31H553l66,-58V524c0,0,91,89,192,89c0,0,98,0,171,-79c0,0,72,-79,72,-186c0,0,0,-178,-224,-330L736,124c0,0,219,153,219,269c0,0,0,44,-26,75c0,0,-26,32,-81,32c0,0,-109,0,-229,-155V-39L582,-49Z"
id="f6_b9"
transform="scale(0.001,-0.001)"/>

<path d="M799,475V822H350l66,-55V564c0,0,0,-43,-25,-89ZM527,-71L52,414l34,92H277c0,0,12,32,12,72V822H0l-45,76l14,31H1063l46,-76l-14,-31H860l66,-58V-39L889,-49L799,8V370H315L264,316L610,34L611,8L527,-71Z"
id="f6_cb"
transform="scale(0.001,-0.001)"/>

<path d="M228,-49L138,8V822H0l-45,76l14,31H119L-33,1144c0,0,-70,92,-157,92c0,0,-69,0,-159,-58l-72,118c0,0,89,73,181,73c0,0,140,0,257,-170L205,929H402l46,-76L434,822H199l65,-58V-39L228,-49Z"
id="f6_d8"
transform="scale(0.001,-0.001)"/>

<path d="M413,313c0,0,91,0,145,58L231,782V408c0,0,47,-95,182,-95ZM603,438l11,28V822H295L603,438ZM704,-49L614,8V254c0,0,-61,-57,-151,-57c0,0,-138,0,-248,110c0,0,-111,110,-111,252V822H0l-45,76l14,31H878l46,-76L911,822H675l66,-58V-39L704,-49Z"
id="f6_ca"
transform="scale(0.001,-0.001)"/>

<path d="M471,-26c0,0,-259,0,-448,396l70,43C93,413,240,98,442,98c0,0,79,0,132,46c0,0,54,45,54,120c0,0,0,61,-38,116c0,0,-38,54,-107,72L322,370L255,492c0,0,66,53,156,56c0,0,128,51,128,153c0,0,0,77,-65,121H0l-45,76l14,31H1123l46,-76l-14,-31H578c0,0,76,-66,76,-157c0,0,0,-95,-87,-156c0,0,52,-29,84,-64c0,0,131,134,243,134c0,0,93,0,158,-70c0,0,65,-71,65,-167c0,0,0,-142,-177,-272L851,170c0,0,173,129,173,230c0,0,0,34,-23,57c0,0,-23,23,-63,23c0,0,-104,0,-215,-141c0,0,23,-55,23,-111c0,0,0,-109,-78,-182c0,0,-78,-72,-197,-72Z"
id="f6_aq"
transform="scale(0.001,-0.001)"/>

<path d="M-233,1021c0,0,-84,0,-168,55c0,0,-84,56,-146,162l51,50c0,0,95,-162,219,-162c0,0,125,0,160,157L-7,1234c0,0,-21,-103,-81,-158c0,0,-61,-55,-145,-55Zm-41,201c0,0,-66,25,-102,80c0,0,32,68,82,101c0,0,55,-20,99,-80c0,0,-26,-67,-79,-101Z"
id="f6_di"
transform="scale(0.001,-0.001)"/>

<path d="M-40,1030c0,0,-28,10,-61,36c0,0,-34,26,-51,49c0,0,38,81,90,110c0,0,61,-23,106,-85c0,0,-27,-71,-84,-110ZM-214,860l-227,219c0,0,-73,70,-148,70c0,0,-67,0,-160,-58l-72,117c0,0,83,71,176,71c0,0,120,0,232,-124L-221,940l-102,294c0,0,-64,179,-189,179c0,0,-60,0,-133,-33l-60,125c0,0,84,47,164,47c0,0,200,0,281,-276L-150,901l-23,-15l-41,-26Z"
id="f6_p3"
transform="scale(0.001,-0.001)"/>

<path d="M226,-49c0,0,-66,24,-102,78c0,0,32,69,82,101c0,0,55,-20,100,-80c0,0,-26,-66,-80,-99Z"
id="f6_pc"
transform="scale(0.001,-0.001)"/>

<path d="M-234,-413c0,0,-210,0,-488,322l54,49c0,0,119,-128,209,-193c0,0,90,-65,177,-65c0,0,72,0,113,40c0,0,42,39,42,91c0,0,0,75,-78,106L-323,-181l-90,98c0,0,63,95,167,95c0,0,90,0,155,-69c0,0,66,-70,66,-164c0,0,0,-85,-60,-139c0,0,-61,-53,-149,-53Z"
id="f6_cw"
transform="scale(0.001,-0.001)"/>

<path d="M228,-49L138,8V822H0l-45,76l14,31H134c0,0,-231,362,-445,362c0,0,-87,0,-135,-49c0,0,-48,-49,-48,-116c0,0,0,-73,43,-122l-45,-32c0,0,-119,108,-119,223c0,0,0,94,74,155c0,0,73,60,181,60c0,0,161,0,316,-134c0,0,154,-133,267,-347H402l46,-76L434,822H199l65,-58V-39L228,-49Z"
id="f6_oc"
transform="scale(0.001,-0.001)"/>

<path d="M92,380L46,457l14,30H448l45,-76L480,380Z"
id="f6_pd"
transform="scale(0.001,-0.001)"/>

<path d="M388,325c0,0,58,0,112,31c0,0,53,31,84,86V822H165l69,-58V408c0,0,47,-83,154,-83ZM674,-49L584,8V257c0,0,-61,-51,-141,-51c0,0,-125,0,-232,109c0,0,-107,108,-107,243V822H0l-45,76l14,31H848l46,-76L880,822H645l65,-58V-39L674,-49Z"
id="f6_bv"
transform="scale(0.001,-0.001)"/>

<path d="M252,385l310,78l22,-9c0,0,107,-43,200,-43c0,0,91,0,151,41V822H603l66,-58V585H373c0,0,-184,0,-184,-99c0,0,0,-48,63,-101ZM483,-305L295,-10c0,0,-90,22,-156,74l41,170h66L351,63c0,0,126,4,207,62c0,0,82,58,82,139c0,0,0,37,-18,71L365,266c0,0,-110,15,-197,102c0,0,-87,87,-87,176c0,0,0,69,59,117c0,0,59,48,172,48H550V822H0l-45,76l14,31H1199l46,-76l-14,-31H996l66,-58V-39l-37,-10L935,8V318c0,0,-41,-15,-78,-15c0,0,-52,0,-131,30c0,0,32,-55,32,-111c0,0,0,-109,-98,-179c0,0,-98,-69,-254,-69L599,-216L483,-305Z"
id="f6_bh"
transform="scale(0.001,-0.001)"/>

<path d="M959,-49L869,8V367c0,0,-32,-13,-64,-13c0,0,-50,0,-110,25c0,0,23,-52,23,-109c0,0,0,-103,-70,-170c0,0,-70,-66,-182,-66c0,0,-110,0,-222,82c0,0,-111,83,-213,293l68,42c0,0,72,-155,152,-231c0,0,81,-76,178,-76c0,0,83,0,131,49c0,0,48,48,48,117c0,0,0,54,-30,100c0,0,-31,47,-91,65L325,391L257,512c0,0,68,53,156,56c0,0,140,72,140,179c0,0,0,69,-52,99c0,0,-4,1,-11,1c-19,0,-66,-4,-123,-30c0,0,-78,-35,-142,-96L150,823c0,0,119,117,253,117c0,0,98,0,175,-71c0,0,77,-70,77,-159c0,0,0,-103,-94,-180c0,0,39,-23,73,-56c0,0,52,-22,109,-22c0,0,77,0,126,38V822H727l-46,76l14,31h509l-136,104c0,0,-90,65,-157,65c0,0,-68,0,-152,-53l-71,118c0,0,77,65,163,65c0,0,116,0,246,-120L1286,930l-107,271c0,0,-71,166,-187,166c0,0,-52,0,-129,-33l-59,125c0,0,78,46,159,46c0,0,194,0,284,-271L1349,929h186l46,-76l-13,-31H1332l66,-58V-39l-37,-10L1271,8V822H930l66,-58V-39L959,-49Z"
id="f6_b8"
transform="scale(0.001,-0.001)"/>

<path d="M-121,1062c0,0,-28,11,-61,36c0,0,-34,26,-51,49c0,0,38,81,90,110c0,0,62,-23,107,-85c0,0,-27,-70,-85,-110Z"
id="f6_oi"
transform="scale(0.001,-0.001)"/>

<path d="M319,561c0,0,66,46,103,105c0,0,36,60,36,113c0,0,0,28,-9,48c0,0,-35,41,-88,41c0,0,-51,0,-89,-39c0,0,-38,-39,-38,-103c0,0,0,-95,85,-165ZM840,-49L750,8V342L362,31l-89,85L608,370c0,0,-121,15,-241,78L105,272L20,364L260,519c0,0,-144,118,-144,246c0,0,0,81,57,140c0,0,56,59,140,59c0,0,96,0,171,-79c0,0,75,-78,75,-168c0,0,0,-117,-130,-219c0,0,110,-40,257,-40l64,2V822H628l-46,76l14,31h418l46,-76l-13,-31H811l66,-58V-39L840,-49Z"
id="f6_ef"
transform="scale(0.001,-0.001)"/>

<path d="M342,324c0,0,45,0,75,34c0,0,31,33,31,100V822H165l66,-58V390c0,0,32,-66,111,-66ZM853,-49L762,8V822H509l65,-58V455c0,0,0,-134,-51,-185c0,0,-52,-52,-127,-52c0,0,-98,0,-195,99c0,0,-97,99,-97,209V822H0l-45,76l14,31H1027l46,-76l-14,-31H823l66,-58V-39L853,-49Z"
id="f6_bo"
transform="scale(0.001,-0.001)"/>

<path d="M845,-49L755,8V513H497c0,0,61,-45,93,-110c0,0,33,-64,33,-128c0,0,0,-90,-58,-144c0,0,-59,-53,-143,-53c0,0,-133,0,-234,139C188,217,87,356,20,596l76,24c0,0,60,-201,127,-306c0,0,67,-105,160,-105c0,0,57,0,91,36c0,0,33,36,33,91c0,0,0,84,-73,159L295,558v71H755V822H0l-45,76l14,31H1019l46,-76l-14,-31H816l66,-58V-39L845,-49Z"
id="f6_bg"
transform="scale(0.001,-0.001)"/>

<path d="M548,-57c0,0,-122,0,-243,81c0,0,-122,81,-252,280l57,41C110,345,283,64,498,64c0,0,92,0,153,49c0,0,61,49,61,121c0,0,0,46,-28,84L440,237c0,0,-73,11,-139,55c0,0,-66,44,-105,105c0,0,-40,61,-40,119c0,0,0,72,62,125c0,0,62,53,184,53H625V822H0l-45,76l14,31H906l46,-76L938,822H678l66,-58V562H431c0,0,-164,0,-164,-99c0,0,0,-55,57,-102l261,82c0,0,104,-21,172,-98c0,0,68,-78,68,-171c0,0,0,-99,-76,-166c0,0,-77,-65,-201,-65Z"
id="f6_bm"
transform="scale(0.001,-0.001)"/>

<path d="M0,1062c0,0,-26,11,-60,36c0,0,-34,26,-51,49c0,0,39,81,91,110c0,0,60,-23,106,-85c0,0,-28,-70,-86,-110Z"
id="f6_dj"
transform="scale(0.001,-0.001)"/>

<path d="M688,-49L597,8V335L248,81l-92,81L532,425l-81,76c0,0,-80,70,-133,70c0,0,-81,0,-194,-96L38,584c0,0,109,105,223,105c0,0,103,0,213,-107L597,457V822H0l-45,76l14,31H862l46,-76L894,822H658l66,-58V-39L688,-49Z"
id="f6_e1"
transform="scale(0.001,-0.001)"/>

<path d="M513,460c0,0,61,81,61,179c0,0,0,87,-45,143c0,0,-45,57,-116,57c0,0,-63,0,-102,-43c0,0,-39,-43,-39,-110c0,0,0,-90,68,-151c0,0,68,-61,173,-75ZM581,-83L278,167l-41,-4c0,0,-99,0,-130,37l47,168l51,12l78,-79c0,0,110,40,183,105c0,0,-141,23,-231,107c0,0,-90,84,-90,193c0,0,0,69,37,116H0l-45,76l14,31H1134l45,-76l-13,-31H930l66,-58V-39L959,-49L869,8V822H588c0,0,51,-44,75,-109c0,0,25,-64,25,-122c0,0,0,-105,-81,-213c0,0,-80,-108,-240,-176L658,18l2,-25L581,-83Z"
id="f6_c8"
transform="scale(0.001,-0.001)"/>

<path d="M254,-26c0,0,-84,16,-116,92c0,0,13,84,97,127c0,0,100,-36,112,-110C347,83,324,6,254,-26Zm458,0c0,0,-84,16,-116,92c0,0,14,84,98,127c0,0,99,-37,111,-110C805,83,782,6,712,-26Zm458,0c0,0,-84,16,-116,92c0,0,14,84,98,127c0,0,99,-36,111,-110c0,0,-22,-77,-93,-109Z"
id="f6_8l"
transform="scale(0.001,-0.001)"/>

<path d="M725,307c0,0,-95,0,-218,78c0,0,-123,78,-188,78c0,0,-54,0,-95,-34c0,0,-41,-34,-73,-100L93,362c0,0,38,88,101,146c0,0,63,59,148,59c0,0,90,0,214,-78c0,0,124,-79,188,-79c0,0,63,0,106,34c0,0,42,33,85,104l60,-40c0,0,-32,-66,-101,-134c0,0,-70,-67,-169,-67Z"
id="f7_4r"
transform="scale(0.001,-0.001)"/>

<path d="M435,0V856c0,0,-48,-47,-127,-93c0,0,-79,-46,-142,-69V824c0,0,113,52,197,128c0,0,85,75,120,146h86V0Z"
id="f8_l"
transform="scale(0.001,-0.001)"/>

<path d="M420,92c0,0,92,0,155,89c0,0,64,89,64,358c0,0,0,270,-63,359c0,0,-63,89,-158,89c0,0,-92,0,-147,-79c0,0,-70,-100,-70,-369c0,0,0,-269,63,-358c0,0,63,-89,156,-89Zm0,-110c0,0,-158,0,-248,112C172,94,64,231,64,539c0,0,0,194,39,313c0,0,40,118,119,182c0,0,79,64,198,64c0,0,88,0,155,-35c0,0,66,-36,109,-103c0,0,43,-66,68,-162c0,0,24,-96,24,-259c0,0,0,-192,-39,-311C737,228,697,110,619,46c0,0,-79,-64,-199,-64Z"
id="f8_k"
transform="scale(0.001,-0.001)"/>

<path d="M415,-18c0,0,-149,0,-244,83c0,0,-94,84,-107,222l140,11c0,0,16,-103,73,-154c0,0,56,-52,137,-52c0,0,98,0,165,73c0,0,66,73,66,194c0,0,0,115,-64,182c0,0,-64,66,-169,66c0,0,-65,0,-117,-29c0,0,-52,-30,-82,-77L87,517l106,562H736V951H300L241,657c0,0,99,69,207,69c0,0,143,0,242,-100c0,0,98,-99,98,-255c0,0,0,-149,-86,-257C702,114,597,-18,415,-18Z"
id="f8_p"
transform="scale(0.001,-0.001)"/>


</defs>
</svg>