<?xml version="1.0" encoding="UTF-8" standalone="no"?>
<!DOCTYPE svg PUBLIC "-//W3C//DTD SVG 1.1//EN"
"http://www.w3.org/Graphics/SVG/1.1/DTD/svg11.dtd">
<svg viewBox="0 0 641 910" version="1.1" xmlns="http://www.w3.org/2000/svg" xmlns:xlink="http://www.w3.org/1999/xlink">
<defs>
<clipPath id="c0_45"><path d="M0,909.8V0H641.7V909.8Z"/></clipPath>
<clipPath id="c1_45"><path d="M0,908.6V0H641.7V908.6Z"/></clipPath>
<style type="text/css"><![CDATA[
.g0_45{
fill: #FFFFFF;
}
.g1_45{
}
]]></style>
</defs>
<path d="M0,0H641.7V909.8H0V0Z" class="g0_45"/>
<path d="M0,0H641.7V909.8H0V0Z" class="g0_45"/>
<g clip-path="url(#c0_45)">
<path d="M0,-34572H641.7V71873.5H0V-34572Z" class="g0_45"/>
</g>
<path d="M0,0H641.7V908.6H0V0Z" class="g0_45"/>
<path d="M19.5,60.7H602.7v1.2H19.5V60.7Z" class="g1_45"/>
<g clip-path="url(#c1_45)">
<path d="M0,61.9H641.7V909.8H0V61.9Z" class="g0_45"/>
<g fill="#000000" >
<use xlink:href="#f5_am" transform="matrix(14,0,0,14,205.4,96.3)" />
<use xlink:href="#f5_c8" transform="matrix(14,0,0,14,230.2,96.3)" />
<use xlink:href="#f5_by" transform="matrix(14,0,0,14,253.6,96.3)" />
<use xlink:href="#f5_c1" transform="matrix(14,0,0,14,268.6,96.3)" />
<use xlink:href="#f5_cv" transform="matrix(14,0,0,14,278.8,96.3)" />
<use xlink:href="#f5_bt" transform="matrix(14,0,0,14,285.3,96.3)" />
<use xlink:href="#f5_d4" transform="matrix(14,0,0,14,298.3,96.3)" />
<use xlink:href="#f5_am" transform="matrix(14,0,0,14,304,96.3)" />
<use xlink:href="#f5_lx" transform="matrix(14,0,0,14,328.8,96.3)" />
<use xlink:href="#f5_c0" transform="matrix(14,0,0,14,337.8,96.3)" />
<use xlink:href="#f5_d8" transform="matrix(14,0,0,14,351.9,96.3)" />
<use xlink:href="#f5_m1" transform="matrix(14,0,0,14,364,96.3)" />
<use xlink:href="#f5_c7" transform="matrix(14,0,0,14,373.7,96.3)" />
<use xlink:href="#f5_ct" transform="matrix(14,0,0,14,387.4,96.3)" />
<use xlink:href="#f5_bz" transform="matrix(14,0,0,14,393.8,96.3)" />
<use xlink:href="#f5_cv" transform="matrix(14,0,0,14,408.5,96.3)" />
<use xlink:href="#f6_am" transform="matrix(14,0,0,14,172.2,129.5)" />
<use xlink:href="#f6_pc" transform="matrix(14,0,0,14,193.7,129.5)" />
<use xlink:href="#f6_pc" transform="matrix(14,0,0,14,197.9,129.5)" />
<use xlink:href="#f6_pc" transform="matrix(14,0,0,14,202.2,129.5)" />
<use xlink:href="#f6_am" transform="matrix(14,0,0,14,206.5,129.5)" />
<use xlink:href="#f6_pc" transform="matrix(14,0,0,14,228,129.5)" />
<use xlink:href="#f6_pc" transform="matrix(14,0,0,14,232.2,129.5)" />
<use xlink:href="#f6_pc" transform="matrix(14,0,0,14,236.5,129.5)" />
<use xlink:href="#f6_am" transform="matrix(14,0,0,14,240.8,129.5)" />
<use xlink:href="#f6_pc" transform="matrix(14,0,0,14,262.3,129.5)" />
<use xlink:href="#f6_pc" transform="matrix(14,0,0,14,266.6,129.5)" />
<use xlink:href="#f6_pc" transform="matrix(14,0,0,14,270.8,129.5)" />
<use xlink:href="#f6_am" transform="matrix(14,0,0,14,275.1,129.5)" />
<use xlink:href="#f6_pc" transform="matrix(14,0,0,14,296.6,129.5)" />
<use xlink:href="#f6_pc" transform="matrix(14,0,0,14,300.9,129.5)" />
<use xlink:href="#f6_pc" transform="matrix(14,0,0,14,305.1,129.5)" />
<use xlink:href="#f6_9" transform="matrix(14,0,0,14,309.4,129.5)" />
<use xlink:href="#f6_cc" transform="matrix(14,0,0,14,321.4,129.5)" />
<use xlink:href="#f6_d8" transform="matrix(14,0,0,14,333,129.5)" />
<use xlink:href="#f6_pc" transform="matrix(14,0,0,14,338.7,129.5)" />
<use xlink:href="#f6_pc" transform="matrix(14,0,0,14,342.9,129.5)" />
<use xlink:href="#f6_pc" transform="matrix(14,0,0,14,347.2,129.5)" />
<use xlink:href="#f6_cc" transform="matrix(14,0,0,14,351.5,129.5)" />
<use xlink:href="#f6_d8" transform="matrix(14,0,0,14,363.1,129.5)" />
<use xlink:href="#f6_pc" transform="matrix(14,0,0,14,368.7,129.5)" />
<use xlink:href="#f6_pc" transform="matrix(14,0,0,14,373,129.5)" />
<use xlink:href="#f6_pc" transform="matrix(14,0,0,14,377.3,129.5)" />
<use xlink:href="#f6_cc" transform="matrix(14,0,0,14,381.5,129.5)" />
<use xlink:href="#f6_d8" transform="matrix(14,0,0,14,393.2,129.5)" />
<use xlink:href="#f6_pc" transform="matrix(14,0,0,14,398.8,129.5)" />
<use xlink:href="#f6_pc" transform="matrix(14,0,0,14,403,129.5)" />
<use xlink:href="#f6_pc" transform="matrix(14,0,0,14,407.3,129.5)" />
<use xlink:href="#f6_cc" transform="matrix(14,0,0,14,411.6,129.5)" />
<use xlink:href="#f6_d8" transform="matrix(14,0,0,14,423.2,129.5)" />
<use xlink:href="#f6_pc" transform="matrix(14,0,0,14,428.8,129.5)" />
<use xlink:href="#f6_pc" transform="matrix(14,0,0,14,433.1,129.5)" />
<use xlink:href="#f6_pc" transform="matrix(14,0,0,14,437.4,129.5)" />
<use xlink:href="#f6_9" transform="matrix(14,0,0,14,441.7,129.5)" />
<use xlink:href="#f6_am" transform="matrix(14,0,0,14,116,162.7)" />
<use xlink:href="#f6_c8" transform="matrix(14,0,0,14,137.5,162.7)" />
<use xlink:href="#f6_by" transform="matrix(14,0,0,14,159,162.7)" />
<use xlink:href="#f6_c1" transform="matrix(14,0,0,14,173,162.7)" />
<use xlink:href="#f6_cv" transform="matrix(14,0,0,14,181.4,162.7)" />
<use xlink:href="#f6_bt" transform="matrix(14,0,0,14,187,162.7)" />
<use xlink:href="#f6_d4" transform="matrix(14,0,0,14,198.9,162.7)" />
<use xlink:href="#f6_am" transform="matrix(14,0,0,14,204.4,162.7)" />
<use xlink:href="#f6_lx" transform="matrix(14,0,0,14,225.9,162.7)" />
<use xlink:href="#f6_c0" transform="matrix(14,0,0,14,233.9,162.7)" />
<use xlink:href="#f6_d8" transform="matrix(14,0,0,14,246.4,162.7)" />
<use xlink:href="#f6_m1" transform="matrix(14,0,0,14,257.7,162.7)" />
<use xlink:href="#f6_c7" transform="matrix(14,0,0,14,266.5,162.7)" />
<use xlink:href="#f6_ct" transform="matrix(14,0,0,14,278.6,162.7)" />
<use xlink:href="#f6_bz" transform="matrix(14,0,0,14,284.2,162.7)" />
<use xlink:href="#f6_cv" transform="matrix(14,0,0,14,297.5,162.7)" />
<use xlink:href="#f6_k" transform="matrix(14,0,0,14,303.2,162.7)" />
<use xlink:href="#f6_by" transform="matrix(14,0,0,14,314,162.7)" />
<use xlink:href="#f6_o0" transform="matrix(14,0,0,14,328,162.7)" />
<use xlink:href="#f6_l1" transform="matrix(14,0,0,14,333.6,162.7)" />
<use xlink:href="#f6_bp" transform="matrix(14,0,0,14,345.5,162.7)" />
<use xlink:href="#f6_bz" transform="matrix(14,0,0,14,363.5,162.7)" />
<use xlink:href="#f6_ct" transform="matrix(14,0,0,14,376.8,162.7)" />
<use xlink:href="#f6_bt" transform="matrix(14,0,0,14,388.1,162.7)" />
<use xlink:href="#f6_cc" transform="matrix(14,0,0,14,399.8,162.7)" />
<use xlink:href="#f6_cv" transform="matrix(14,0,0,14,411.4,162.7)" />
<use xlink:href="#f6_c1" transform="matrix(14,0,0,14,422.7,162.7)" />
<use xlink:href="#f6_ct" transform="matrix(14,0,0,14,431.1,162.7)" />
<use xlink:href="#f6_ba" transform="matrix(14,0,0,14,436.7,162.7)" />
<use xlink:href="#f6_cx" transform="matrix(14,0,0,14,453.4,163.6)" />
<use xlink:href="#f6_ba" transform="matrix(14,0,0,14,459.1,162.7)" />
<use xlink:href="#f6_ct" transform="matrix(14,0,0,14,475.8,162.7)" />
<use xlink:href="#f6_bz" transform="matrix(14,0,0,14,481.4,162.7)" />
<use xlink:href="#f6_cv" transform="matrix(14,0,0,14,494.8,162.7)" />
<use xlink:href="#f6_k" transform="matrix(14,0,0,14,500.4,162.7)" />
<use xlink:href="#f6_bv" transform="matrix(14,0,0,14,189.4,195.9)" />
<use xlink:href="#f6_cw" transform="matrix(14,0,0,14,201.8,195.8)" />
<use xlink:href="#f6_c1" transform="matrix(14,0,0,14,201.2,195.9)" />
<use xlink:href="#f6_bg" transform="matrix(14,0,0,14,209.6,195.9)" />
<use xlink:href="#f6_d8" transform="matrix(14,0,0,14,223.9,195.9)" />
<use xlink:href="#f6_al" transform="matrix(14,0,0,14,235.2,195.9)" />
<use xlink:href="#f6_bz" transform="matrix(14,0,0,14,251,195.9)" />
<use xlink:href="#f6_ct" transform="matrix(14,0,0,14,264.4,195.9)" />
<use xlink:href="#f6_c1" transform="matrix(14,0,0,14,270,195.9)" />
<use xlink:href="#f6_cv" transform="matrix(14,0,0,14,278.4,195.9)" />
<use xlink:href="#f6_am" transform="matrix(14,0,0,14,289.6,195.9)" />
<use xlink:href="#f6_c8" transform="matrix(14,0,0,14,311.1,195.9)" />
<use xlink:href="#f6_k" transform="matrix(14,0,0,14,327,195.9)" />
<use xlink:href="#f6_b1" transform="matrix(14,0,0,14,337.9,195.9)" />
<use xlink:href="#f6_c8" transform="matrix(14,0,0,14,365,195.9)" />
<use xlink:href="#f6_dj" transform="matrix(14,0,0,14,375.2,196.4)" />
<use xlink:href="#f6_ba" transform="matrix(14,0,0,14,380.9,195.9)" />
<use xlink:href="#f6_d4" transform="matrix(14,0,0,14,397.7,195.9)" />
<use xlink:href="#f6_ke" transform="matrix(14,0,0,14,397.6,195.9)" />
<use xlink:href="#f6_c1" transform="matrix(14,0,0,14,411.8,195.9)" />
<use xlink:href="#f6_ct" transform="matrix(14,0,0,14,420.2,195.9)" />
<use xlink:href="#f6_k" transform="matrix(14,0,0,14,425.8,195.9)" />
<use xlink:href="#f6_c1" transform="matrix(14,0,0,14,180.2,229.2)" />
<use xlink:href="#f6_ct" transform="matrix(14,0,0,14,188.6,229.2)" />
<use xlink:href="#f6_ba" transform="matrix(14,0,0,14,194.2,229.2)" />
<use xlink:href="#f6_bg" transform="matrix(14,0,0,14,210.9,229.2)" />
<use xlink:href="#f6_d8" transform="matrix(14,0,0,14,225.2,229.2)" />
<use xlink:href="#f6_al" transform="matrix(14,0,0,14,236.5,229.2)" />
<use xlink:href="#f6_bz" transform="matrix(14,0,0,14,252.3,229.2)" />
<use xlink:href="#f6_ct" transform="matrix(14,0,0,14,265.7,229.2)" />
<use xlink:href="#f6_c1" transform="matrix(14,0,0,14,271.3,229.2)" />
<use xlink:href="#f6_cv" transform="matrix(14,0,0,14,279.7,229.2)" />
<use xlink:href="#f6_c3" transform="matrix(14,0,0,14,291,229.2)" />
<use xlink:href="#f6_ct" transform="matrix(14,0,0,14,305.7,229.2)" />
<use xlink:href="#f6_bg" transform="matrix(14,0,0,14,311.3,229.2)" />
<use xlink:href="#f6_k" transform="matrix(14,0,0,14,325.5,229.2)" />
<use xlink:href="#f6_b1" transform="matrix(14,0,0,14,336.4,229.2)" />
<use xlink:href="#f6_c8" transform="matrix(14,0,0,14,363.6,229.2)" />
<use xlink:href="#f6_dj" transform="matrix(14,0,0,14,373.8,229.6)" />
<use xlink:href="#f6_ba" transform="matrix(14,0,0,14,379.4,229.2)" />
<use xlink:href="#f6_d4" transform="matrix(14,0,0,14,396.3,229.2)" />
<use xlink:href="#f6_ke" transform="matrix(14,0,0,14,396.1,229.2)" />
<use xlink:href="#f6_c1" transform="matrix(14,0,0,14,410.3,229.2)" />
<use xlink:href="#f6_ct" transform="matrix(14,0,0,14,418.7,229.2)" />
<use xlink:href="#f6_pc" transform="matrix(14,0,0,14,424.3,229.2)" />
<use xlink:href="#f6_pc" transform="matrix(14,0,0,14,428.6,229.2)" />
<use xlink:href="#f6_pc" transform="matrix(14,0,0,14,432.9,229.2)" />
<use xlink:href="#f6_pc" transform="matrix(14,0,0,14,437.2,229.2)" />
<use xlink:href="#f6_bp" transform="matrix(14,0,0,14,132.1,287.6)" />
<use xlink:href="#f6_ct" transform="matrix(14,0,0,14,144.4,287.6)" />
<use xlink:href="#f6_c1" transform="matrix(14,0,0,14,150,287.6)" />
<use xlink:href="#f6_cc" transform="matrix(14,0,0,14,164.1,287.6)" />
<use xlink:href="#f6_d8" transform="matrix(14,0,0,14,175.7,287.6)" />
<use xlink:href="#f6_bp" transform="matrix(14,0,0,14,186.9,287.6)" />
<use xlink:href="#f6_ct" transform="matrix(14,0,0,14,199.3,287.6)" />
<use xlink:href="#f6_c1" transform="matrix(14,0,0,14,204.9,287.6)" />
<use xlink:href="#f6_b1" transform="matrix(14,0,0,14,218.9,287.6)" />
<use xlink:href="#f6_e6" transform="matrix(14,0,0,14,246.1,287.6)" />
<use xlink:href="#f6_by" transform="matrix(14,0,0,14,258.2,287.6)" />
<use xlink:href="#f6_cw" transform="matrix(14,0,0,14,272.7,287.5)" />
<use xlink:href="#f6_bg" transform="matrix(14,0,0,14,272.1,287.6)" />
<use xlink:href="#f6_cv" transform="matrix(14,0,0,14,286.4,287.6)" />
<use xlink:href="#f6_k" transform="matrix(14,0,0,14,292,287.6)" />
<use xlink:href="#f6_n4" transform="matrix(14,0,0,14,302.9,287.6)" />
<use xlink:href="#f6_dj" transform="matrix(14,0,0,14,311.8,288)" />
<use xlink:href="#f6_bp" transform="matrix(14,0,0,14,320.1,287.6)" />
<use xlink:href="#f6_d8" transform="matrix(14,0,0,14,332.5,287.6)" />
<use xlink:href="#f6_bg" transform="matrix(14,0,0,14,343.7,287.6)" />
<use xlink:href="#f6_d4" transform="matrix(14,0,0,14,358.1,287.6)" />
<use xlink:href="#f6_c7" transform="matrix(14,0,0,14,358,287.6)" />
<use xlink:href="#f6_d8" transform="matrix(14,0,0,14,370.1,287.6)" />
<use xlink:href="#f6_bf" transform="matrix(14,0,0,14,381.4,287.6)" />
<use xlink:href="#f6_cw" transform="matrix(14,0,0,14,393.9,288.2)" />
<use xlink:href="#f6_bp" transform="matrix(14,0,0,14,402.8,287.6)" />
<use xlink:href="#f6_d4" transform="matrix(14,0,0,14,415.2,287.6)" />
<use xlink:href="#f6_c7" transform="matrix(14,0,0,14,415.1,287.6)" />
<use xlink:href="#f6_d8" transform="matrix(14,0,0,14,427.1,287.6)" />
<use xlink:href="#f6_bp" transform="matrix(14,0,0,14,438.4,287.6)" />
<use xlink:href="#f6_bz" transform="matrix(14,0,0,14,450.7,287.6)" />
<use xlink:href="#f6_ct" transform="matrix(14,0,0,14,464.1,287.6)" />
<use xlink:href="#f6_c1" transform="matrix(14,0,0,14,469.7,287.6)" />
<use xlink:href="#f6_d8" transform="matrix(14,0,0,14,478.1,287.6)" />
<use xlink:href="#f6_k" transform="matrix(14,0,0,14,483.7,287.6)" />
<use xlink:href="#f6_b9" transform="matrix(14,0,0,14,137.8,320.8)" />
<use xlink:href="#f6_d8" transform="matrix(14,0,0,14,153.3,320.8)" />
<use xlink:href="#f6_ao" transform="matrix(14,0,0,14,158.9,320.8)" />
<use xlink:href="#f6_bt" transform="matrix(14,0,0,14,176.1,320.8)" />
<use xlink:href="#f6_no" transform="matrix(14,0,0,14,187.8,320.8)" />
<use xlink:href="#f6_bq" transform="matrix(14,0,0,14,187.8,320.8)" />
<use xlink:href="#f6_cv" transform="matrix(14,0,0,14,201,320.8)" />
<use xlink:href="#f6_al" transform="matrix(14,0,0,14,212.3,320.8)" />
<use xlink:href="#f6_cc" transform="matrix(14,0,0,14,228.1,320.8)" />
<use xlink:href="#f6_cv" transform="matrix(14,0,0,14,239.8,320.8)" />
<use xlink:href="#f6_bz" transform="matrix(14,0,0,14,251,320.8)" />
<use xlink:href="#f6_ct" transform="matrix(14,0,0,14,264.4,320.8)" />
<use xlink:href="#f6_n0" transform="matrix(14,0,0,14,270,320.8)" />
<use xlink:href="#f6_k" transform="matrix(14,0,0,14,283.1,320.8)" />
<use xlink:href="#f6_e6" transform="matrix(14,0,0,14,294,320.8)" />
<use xlink:href="#f6_by" transform="matrix(14,0,0,14,306.1,320.8)" />
<use xlink:href="#f6_cw" transform="matrix(14,0,0,14,320.6,320.7)" />
<use xlink:href="#f6_am" transform="matrix(14,0,0,14,325.7,320.8)" />
<use xlink:href="#f6_bv" transform="matrix(14,0,0,14,347.2,320.8)" />
<use xlink:href="#f6_cv" transform="matrix(14,0,0,14,359.1,320.8)" />
<use xlink:href="#f6_br" transform="matrix(14,0,0,14,370.4,320.8)" />
<use xlink:href="#f6_d4" transform="matrix(14,0,0,14,381.6,320.8)" />
<use xlink:href="#f6_bz" transform="matrix(14,0,0,14,387.7,320.8)" />
<use xlink:href="#f6_cw" transform="matrix(14,0,0,14,401.6,320.7)" />
<use xlink:href="#f6_bg" transform="matrix(14,0,0,14,401,320.8)" />
<use xlink:href="#f6_bt" transform="matrix(14,0,0,14,415.3,320.8)" />
<use xlink:href="#f6_d4" transform="matrix(14,0,0,14,427.1,320.8)" />
<use xlink:href="#f6_cb" transform="matrix(14,0,0,14,432.7,320.8)" />
<use xlink:href="#f6_cc" transform="matrix(14,0,0,14,447.6,320.8)" />
<use xlink:href="#f6_ct" transform="matrix(14,0,0,14,459.2,320.8)" />
<use xlink:href="#f6_c1" transform="matrix(14,0,0,14,464.8,320.8)" />
<use xlink:href="#f6_d8" transform="matrix(14,0,0,14,473.2,320.8)" />
<use xlink:href="#f6_k" transform="matrix(14,0,0,14,478.8,320.8)" />
<use xlink:href="#f6_bv" transform="matrix(14,0,0,14,144.7,354.1)" />
<use xlink:href="#f6_ct" transform="matrix(14,0,0,14,156.5,354.1)" />
<use xlink:href="#f6_c1" transform="matrix(14,0,0,14,162.2,354.1)" />
<use xlink:href="#f6_b9" transform="matrix(14,0,0,14,176.2,354.1)" />
<use xlink:href="#f6_c1" transform="matrix(14,0,0,14,191.7,354.1)" />
<use xlink:href="#f6_d8" transform="matrix(14,0,0,14,200.1,354.1)" />
<use xlink:href="#f6_k" transform="matrix(14,0,0,14,205.7,354.1)" />
<use xlink:href="#f6_ap" transform="matrix(14,0,0,14,216.6,354.1)" />
<use xlink:href="#f6_ge" transform="matrix(14,0,0,14,228,354.1)" />
<use xlink:href="#f6_ct" transform="matrix(14,0,0,14,243.1,354.1)" />
<use xlink:href="#f6_c1" transform="matrix(14,0,0,14,248.7,354.1)" />
<use xlink:href="#f6_b9" transform="matrix(14,0,0,14,262.8,354.1)" />
<use xlink:href="#f6_c1" transform="matrix(14,0,0,14,278.3,354.1)" />
<use xlink:href="#f6_d8" transform="matrix(14,0,0,14,286.6,354.1)" />
<use xlink:href="#f6_g" transform="matrix(14,0,0,14,297.9,354.1)" />
<use xlink:href="#f6_q" transform="matrix(14,0,0,14,303.8,354.1)" />
<use xlink:href="#f6_h" transform="matrix(14,0,0,14,315.5,354.1)" />
<use xlink:href="#f6_k" transform="matrix(14,0,0,14,321.3,354.1)" />
<use xlink:href="#f6_bz" transform="matrix(14,0,0,14,332.2,354.1)" />
<use xlink:href="#f6_cw" transform="matrix(14,0,0,14,346.1,354)" />
<use xlink:href="#f6_bh" transform="matrix(14,0,0,14,345.5,354.1)" />
<use xlink:href="#f6_bg" transform="matrix(14,0,0,14,368,354.1)" />
<use xlink:href="#f6_cv" transform="matrix(14,0,0,14,382.2,354.1)" />
<use xlink:href="#f6_c7" transform="matrix(14,0,0,14,387.9,354.1)" />
<use xlink:href="#f6_bt" transform="matrix(14,0,0,14,399.9,354.1)" />
<use xlink:href="#f6_bt" transform="matrix(14,0,0,14,417.3,354.1)" />
<use xlink:href="#f6_d5" transform="matrix(14,0,0,14,429.2,354.1)" />
<use xlink:href="#f6_lr" transform="matrix(14,0,0,14,429,354.1)" />
<use xlink:href="#f6_c0" transform="matrix(14,0,0,14,435.8,354.1)" />
<use xlink:href="#f6_ct" transform="matrix(14,0,0,14,448.4,354.1)" />
<use xlink:href="#f6_bt" transform="matrix(14,0,0,14,459.6,354.1)" />
<use xlink:href="#f6_d4" transform="matrix(14,0,0,14,471.5,354.1)" />
<use xlink:href="#f6_k" transform="matrix(14,0,0,14,471.4,354.1)" />
<use xlink:href="#f6_b1" transform="matrix(14,0,0,14,128.6,387.3)" />
<use xlink:href="#f6_c8" transform="matrix(14,0,0,14,155.8,387.3)" />
<use xlink:href="#f6_dj" transform="matrix(14,0,0,14,166,387.7)" />
<use xlink:href="#f6_ba" transform="matrix(14,0,0,14,171.6,387.3)" />
<use xlink:href="#f6_d4" transform="matrix(14,0,0,14,188.5,387.3)" />
<use xlink:href="#f6_ke" transform="matrix(14,0,0,14,188.4,387.3)" />
<use xlink:href="#f6_c1" transform="matrix(14,0,0,14,202.6,387.3)" />
<use xlink:href="#f6_ct" transform="matrix(14,0,0,14,210.9,387.3)" />
<use xlink:href="#f6_k" transform="matrix(14,0,0,14,216.6,387.3)" />
<use xlink:href="#f6_c1" transform="matrix(14,0,0,14,227.4,387.3)" />
<use xlink:href="#f6_ct" transform="matrix(14,0,0,14,235.8,387.3)" />
<use xlink:href="#f6_ba" transform="matrix(14,0,0,14,241.4,387.3)" />
<use xlink:href="#f6_bg" transform="matrix(14,0,0,14,258.2,387.3)" />
<use xlink:href="#f6_d8" transform="matrix(14,0,0,14,272.4,387.3)" />
<use xlink:href="#f6_al" transform="matrix(14,0,0,14,283.7,387.3)" />
<use xlink:href="#f6_bz" transform="matrix(14,0,0,14,299.6,387.3)" />
<use xlink:href="#f6_ct" transform="matrix(14,0,0,14,312.9,387.3)" />
<use xlink:href="#f6_c1" transform="matrix(14,0,0,14,318.5,387.3)" />
<use xlink:href="#f6_cv" transform="matrix(14,0,0,14,326.9,387.3)" />
<use xlink:href="#f6_c3" transform="matrix(14,0,0,14,338.2,387.3)" />
<use xlink:href="#f6_ct" transform="matrix(14,0,0,14,352.9,387.3)" />
<use xlink:href="#f6_bg" transform="matrix(14,0,0,14,358.5,387.3)" />
<use xlink:href="#f6_k" transform="matrix(14,0,0,14,372.8,387.3)" />
<use xlink:href="#f6_b1" transform="matrix(14,0,0,14,383.7,387.3)" />
<use xlink:href="#f6_c8" transform="matrix(14,0,0,14,410.8,387.3)" />
<use xlink:href="#f6_dj" transform="matrix(14,0,0,14,421,387.7)" />
<use xlink:href="#f6_ba" transform="matrix(14,0,0,14,426.7,387.3)" />
<use xlink:href="#f6_d4" transform="matrix(14,0,0,14,443.5,387.3)" />
<use xlink:href="#f6_ke" transform="matrix(14,0,0,14,443.4,387.3)" />
<use xlink:href="#f6_c1" transform="matrix(14,0,0,14,457.6,387.3)" />
<use xlink:href="#f6_ct" transform="matrix(14,0,0,14,466,387.3)" />
<use xlink:href="#f6_8l" transform="matrix(14,0,0,14,471.6,387.3)" />
<use xlink:href="#f6_by" transform="matrix(14,0,0,14,148.1,445.7)" />
<use xlink:href="#f6_ct" transform="matrix(14,0,0,14,162.1,445.7)" />
<use xlink:href="#f6_bt" transform="matrix(14,0,0,14,167.7,445.7)" />
<use xlink:href="#f6_by" transform="matrix(14,0,0,14,185.1,445.7)" />
<use xlink:href="#f6_cw" transform="matrix(14,0,0,14,199.6,445.6)" />
<use xlink:href="#f6_c3" transform="matrix(14,0,0,14,199,445.7)" />
<use xlink:href="#f6_cv" transform="matrix(14,0,0,14,213.7,445.7)" />
<use xlink:href="#f6_bb" transform="matrix(14,0,0,14,225,445.7)" />
<use xlink:href="#f6_c0" transform="matrix(14,0,0,14,237.6,445.7)" />
<use xlink:href="#f6_d8" transform="matrix(14,0,0,14,250.2,445.7)" />
<use xlink:href="#f6_bf" transform="matrix(14,0,0,14,261.5,445.7)" />
<use xlink:href="#f6_cw" transform="matrix(14,0,0,14,274,446.4)" />
<use xlink:href="#f6_k" transform="matrix(14,0,0,14,277.2,445.7)" />
<use xlink:href="#f6_e6" transform="matrix(14,0,0,14,288.1,445.7)" />
<use xlink:href="#f6_by" transform="matrix(14,0,0,14,300.1,445.7)" />
<use xlink:href="#f6_cw" transform="matrix(14,0,0,14,314.6,445.6)" />
<use xlink:href="#f6_cb" transform="matrix(14,0,0,14,319.8,445.7)" />
<use xlink:href="#f6_jl" transform="matrix(14,0,0,14,334.7,445.7)" />
<use xlink:href="#f6_bp" transform="matrix(14,0,0,14,354.8,445.7)" />
<use xlink:href="#f6_cv" transform="matrix(14,0,0,14,367.1,445.7)" />
<use xlink:href="#f6_bp" transform="matrix(14,0,0,14,378.4,445.7)" />
<use xlink:href="#f6_cw" transform="matrix(14,0,0,14,391.3,445.6)" />
<use xlink:href="#f6_bz" transform="matrix(14,0,0,14,396.4,445.7)" />
<use xlink:href="#f6_cw" transform="matrix(14,0,0,14,410.3,445.6)" />
<use xlink:href="#f6_bg" transform="matrix(14,0,0,14,409.7,445.7)" />
<use xlink:href="#f6_bt" transform="matrix(14,0,0,14,424,445.7)" />
<use xlink:href="#f6_d4" transform="matrix(14,0,0,14,435.9,445.7)" />
<use xlink:href="#f6_br" transform="matrix(14,0,0,14,441.4,445.7)" />
<use xlink:href="#f6_d4" transform="matrix(14,0,0,14,452.6,445.7)" />
<use xlink:href="#f6_bg" transform="matrix(14,0,0,14,453.1,445.7)" />
<use xlink:href="#f6_d4" transform="matrix(14,0,0,14,467.4,445.7)" />
<use xlink:href="#f6_k" transform="matrix(14,0,0,14,467.3,445.7)" />
<use xlink:href="#f6_c1" transform="matrix(14,0,0,14,155,479)" />
<use xlink:href="#f6_ct" transform="matrix(14,0,0,14,163.4,479)" />
<use xlink:href="#f6_cc" transform="matrix(14,0,0,14,169,479)" />
<use xlink:href="#f6_by" transform="matrix(14,0,0,14,186.3,479)" />
<use xlink:href="#f6_cw" transform="matrix(14,0,0,14,200.8,478.9)" />
<use xlink:href="#f6_c3" transform="matrix(14,0,0,14,200.2,479)" />
<use xlink:href="#f6_cv" transform="matrix(14,0,0,14,214.9,479)" />
<use xlink:href="#f6_bv" transform="matrix(14,0,0,14,226.2,479)" />
<use xlink:href="#f6_g6" transform="matrix(14,0,0,14,238.1,479)" />
<use xlink:href="#f6_d8" transform="matrix(14,0,0,14,262.9,479)" />
<use xlink:href="#f6_bf" transform="matrix(14,0,0,14,274.2,479)" />
<use xlink:href="#f6_cw" transform="matrix(14,0,0,14,286.7,479.6)" />
<use xlink:href="#f6_k" transform="matrix(14,0,0,14,289.9,479)" />
<use xlink:href="#f6_e6" transform="matrix(14,0,0,14,300.8,479)" />
<use xlink:href="#f6_by" transform="matrix(14,0,0,14,312.9,479)" />
<use xlink:href="#f6_cw" transform="matrix(14,0,0,14,327.4,478.9)" />
<use xlink:href="#f6_c1" transform="matrix(14,0,0,14,332.5,479)" />
<use xlink:href="#f6_ct" transform="matrix(14,0,0,14,340.9,479)" />
<use xlink:href="#f6_cc" transform="matrix(14,0,0,14,346.5,479)" />
<use xlink:href="#f6_bx" transform="matrix(14,0,0,14,363.8,479)" />
<use xlink:href="#f6_bp" transform="matrix(14,0,0,14,376.1,479)" />
<use xlink:href="#f6_ct" transform="matrix(14,0,0,14,388.4,479)" />
<use xlink:href="#f6_c7" transform="matrix(14,0,0,14,394,479)" />
<use xlink:href="#f6_cv" transform="matrix(14,0,0,14,406.1,479)" />
<use xlink:href="#f6_bp" transform="matrix(14,0,0,14,417.4,479)" />
<use xlink:href="#f6_cw" transform="matrix(14,0,0,14,430.2,478.9)" />
<use xlink:href="#f6_br" transform="matrix(14,0,0,14,435.4,479)" />
<use xlink:href="#f6_d4" transform="matrix(14,0,0,14,446.6,479)" />
<use xlink:href="#f6_bg" transform="matrix(14,0,0,14,447,479)" />
<use xlink:href="#f6_d4" transform="matrix(14,0,0,14,461.4,479)" />
<use xlink:href="#f6_k" transform="matrix(14,0,0,14,461.3,479)" />
<use xlink:href="#f6_mv" transform="matrix(14,0,0,14,144.7,512.2)" />
<use xlink:href="#f6_cu" transform="matrix(14,0,0,14,156.5,512.2)" />
<use xlink:href="#f6_bt" transform="matrix(14,0,0,14,162.1,512.2)" />
<use xlink:href="#f6_c0" transform="matrix(14,0,0,14,173.8,512.2)" />
<use xlink:href="#f6_ct" transform="matrix(14,0,0,14,186.3,512.2)" />
<use xlink:href="#f6_bt" transform="matrix(14,0,0,14,192,512.2)" />
<use xlink:href="#f6_cv" transform="matrix(14,0,0,14,203.7,512.2)" />
<use xlink:href="#f6_bz" transform="matrix(14,0,0,14,215,512.2)" />
<use xlink:href="#f6_ct" transform="matrix(14,0,0,14,228.3,512.2)" />
<use xlink:href="#f6_c0" transform="matrix(14,0,0,14,233.9,512.2)" />
<use xlink:href="#f6_ct" transform="matrix(14,0,0,14,246.5,512.2)" />
<use xlink:href="#f6_bz" transform="matrix(14,0,0,14,257.8,512.2)" />
<use xlink:href="#f6_ct" transform="matrix(14,0,0,14,271.1,512.2)" />
<use xlink:href="#f6_dj" transform="matrix(14,0,0,14,271.3,512.6)" />
<use xlink:href="#f6_g" transform="matrix(14,0,0,14,282.4,512.2)" />
<use xlink:href="#f6_q" transform="matrix(14,0,0,14,288.3,512.2)" />
<use xlink:href="#f6_h" transform="matrix(14,0,0,14,299.9,512.2)" />
<use xlink:href="#f6_k" transform="matrix(14,0,0,14,305.8,512.2)" />
<use xlink:href="#f6_c1" transform="matrix(14,0,0,14,316.7,512.2)" />
<use xlink:href="#f6_ba" transform="matrix(14,0,0,14,325,512.2)" />
<use xlink:href="#f6_ch" transform="matrix(14,0,0,14,341.8,512.2)" />
<use xlink:href="#f6_cv" transform="matrix(14,0,0,14,354.4,512.2)" />
<use xlink:href="#f6_bv" transform="matrix(14,0,0,14,365.7,512.2)" />
<use xlink:href="#f6_g6" transform="matrix(14,0,0,14,377.6,512.2)" />
<use xlink:href="#f6_d8" transform="matrix(14,0,0,14,402.4,512.2)" />
<use xlink:href="#f6_bf" transform="matrix(14,0,0,14,413.7,512.2)" />
<use xlink:href="#f6_cw" transform="matrix(14,0,0,14,426.2,512.8)" />
<use xlink:href="#f6_am" transform="matrix(14,0,0,14,435.1,512.2)" />
<use xlink:href="#f6_bg" transform="matrix(14,0,0,14,456.6,512.2)" />
<use xlink:href="#f6_k" transform="matrix(14,0,0,14,470.8,512.2)" />
<use xlink:href="#f6_b1" transform="matrix(14,0,0,14,128.6,545.4)" />
<use xlink:href="#f6_c8" transform="matrix(14,0,0,14,155.8,545.4)" />
<use xlink:href="#f6_dj" transform="matrix(14,0,0,14,166,545.8)" />
<use xlink:href="#f6_ba" transform="matrix(14,0,0,14,171.6,545.4)" />
<use xlink:href="#f6_d4" transform="matrix(14,0,0,14,188.5,545.4)" />
<use xlink:href="#f6_ke" transform="matrix(14,0,0,14,188.4,545.4)" />
<use xlink:href="#f6_c1" transform="matrix(14,0,0,14,202.6,545.4)" />
<use xlink:href="#f6_ct" transform="matrix(14,0,0,14,210.9,545.4)" />
<use xlink:href="#f6_k" transform="matrix(14,0,0,14,216.6,545.4)" />
<use xlink:href="#f6_c1" transform="matrix(14,0,0,14,227.4,545.4)" />
<use xlink:href="#f6_ct" transform="matrix(14,0,0,14,235.8,545.4)" />
<use xlink:href="#f6_ba" transform="matrix(14,0,0,14,241.4,545.4)" />
<use xlink:href="#f6_bg" transform="matrix(14,0,0,14,258.2,545.4)" />
<use xlink:href="#f6_d8" transform="matrix(14,0,0,14,272.4,545.4)" />
<use xlink:href="#f6_al" transform="matrix(14,0,0,14,283.7,545.4)" />
<use xlink:href="#f6_bz" transform="matrix(14,0,0,14,299.6,545.4)" />
<use xlink:href="#f6_ct" transform="matrix(14,0,0,14,312.9,545.4)" />
<use xlink:href="#f6_c1" transform="matrix(14,0,0,14,318.5,545.4)" />
<use xlink:href="#f6_cv" transform="matrix(14,0,0,14,326.9,545.4)" />
<use xlink:href="#f6_c3" transform="matrix(14,0,0,14,338.2,545.4)" />
<use xlink:href="#f6_ct" transform="matrix(14,0,0,14,352.9,545.4)" />
<use xlink:href="#f6_bg" transform="matrix(14,0,0,14,358.5,545.4)" />
<use xlink:href="#f6_k" transform="matrix(14,0,0,14,372.8,545.4)" />
<use xlink:href="#f6_b1" transform="matrix(14,0,0,14,383.7,545.4)" />
<use xlink:href="#f6_c8" transform="matrix(14,0,0,14,410.8,545.4)" />
<use xlink:href="#f6_dj" transform="matrix(14,0,0,14,421,545.8)" />
<use xlink:href="#f6_ba" transform="matrix(14,0,0,14,426.7,545.4)" />
<use xlink:href="#f6_d4" transform="matrix(14,0,0,14,443.5,545.4)" />
<use xlink:href="#f6_ke" transform="matrix(14,0,0,14,443.4,545.4)" />
<use xlink:href="#f6_c1" transform="matrix(14,0,0,14,457.6,545.4)" />
<use xlink:href="#f6_ct" transform="matrix(14,0,0,14,466,545.4)" />
<use xlink:href="#f6_8l" transform="matrix(14,0,0,14,471.6,545.4)" />
<use xlink:href="#f6_am" transform="matrix(14,0,0,14,127.5,611.9)" />
<use xlink:href="#f6_bg" transform="matrix(14,0,0,14,154.6,611.9)" />
<use xlink:href="#f6_bb" transform="matrix(14,0,0,14,168.9,611.9)" />
<use xlink:href="#f6_bp" transform="matrix(14,0,0,14,181.5,611.9)" />
<use xlink:href="#f6_bz" transform="matrix(14,0,0,14,199.5,611.9)" />
<use xlink:href="#f6_ct" transform="matrix(14,0,0,14,212.8,611.9)" />
<use xlink:href="#f6_dj" transform="matrix(14,0,0,14,213,612.3)" />
<use xlink:href="#f6_m1" transform="matrix(14,0,0,14,224.1,611.9)" />
<use xlink:href="#f6_c7" transform="matrix(14,0,0,14,232.9,611.9)" />
<use xlink:href="#f6_ct" transform="matrix(14,0,0,14,245,611.9)" />
<use xlink:href="#f6_bz" transform="matrix(14,0,0,14,250.6,611.9)" />
<use xlink:href="#f6_cv" transform="matrix(14,0,0,14,263.9,611.9)" />
<use xlink:href="#f6_ik" transform="matrix(14,0,0,14,275.2,611.9)" />
<use xlink:href="#f6_ct" transform="matrix(14,0,0,14,300.3,611.9)" />
<use xlink:href="#f6_c1" transform="matrix(14,0,0,14,311.5,611.9)" />
<use xlink:href="#f6_d4" transform="matrix(14,0,0,14,319.5,611.9)" />
<use xlink:href="#f6_c8" transform="matrix(14,0,0,14,325.6,611.9)" />
<use xlink:href="#f6_ct" transform="matrix(14,0,0,14,341.5,611.9)" />
<use xlink:href="#f6_dj" transform="matrix(14,0,0,14,341.7,612.3)" />
<use xlink:href="#f6_bp" transform="matrix(14,0,0,14,347.1,611.9)" />
<use xlink:href="#f6_cv" transform="matrix(14,0,0,14,359.4,611.9)" />
<use xlink:href="#f6_bz" transform="matrix(14,0,0,14,370.7,611.9)" />
<use xlink:href="#f6_c3" transform="matrix(14,0,0,14,384,611.9)" />
<use xlink:href="#f6_cv" transform="matrix(14,0,0,14,398.7,611.9)" />
<use xlink:href="#f6_bt" transform="matrix(14,0,0,14,410,611.9)" />
<use xlink:href="#f6_no" transform="matrix(14,0,0,14,421.7,611.9)" />
<use xlink:href="#f6_bq" transform="matrix(14,0,0,14,421.7,611.9)" />
<use xlink:href="#f6_cv" transform="matrix(14,0,0,14,434.9,611.9)" />
<use xlink:href="#f6_bz" transform="matrix(14,0,0,14,446.2,611.9)" />
<use xlink:href="#f6_cw" transform="matrix(14,0,0,14,460.1,611.8)" />
<use xlink:href="#f6_bh" transform="matrix(14,0,0,14,459.5,611.9)" />
<use xlink:href="#f6_bt" transform="matrix(14,0,0,14,476.3,611.9)" />
<use xlink:href="#f6_d4" transform="matrix(14,0,0,14,488.2,611.9)" />
<use xlink:href="#f6_k" transform="matrix(14,0,0,14,488,611.9)" />
<use xlink:href="#f6_cc" transform="matrix(14,0,0,14,150.4,645.1)" />
<use xlink:href="#f6_d4" transform="matrix(14,0,0,14,162.4,645.1)" />
<use xlink:href="#f6_br" transform="matrix(14,0,0,14,167.7,645.1)" />
<use xlink:href="#f6_c0" transform="matrix(14,0,0,14,179.4,645.1)" />
<use xlink:href="#f6_ct" transform="matrix(14,0,0,14,191.9,645.1)" />
<use xlink:href="#f6_c3" transform="matrix(14,0,0,14,197.5,645.1)" />
<use xlink:href="#f6_cw" transform="matrix(14,0,0,14,212.8,645)" />
<use xlink:href="#f6_e6" transform="matrix(14,0,0,14,217.9,645.1)" />
<use xlink:href="#f6_by" transform="matrix(14,0,0,14,230,645.1)" />
<use xlink:href="#f6_cw" transform="matrix(14,0,0,14,244.5,645)" />
<use xlink:href="#f6_bg" transform="matrix(14,0,0,14,243.9,645.1)" />
<use xlink:href="#f6_cv" transform="matrix(14,0,0,14,258.2,645.1)" />
<use xlink:href="#f6_k" transform="matrix(14,0,0,14,263.8,645.1)" />
<use xlink:href="#f6_cc" transform="matrix(14,0,0,14,274.7,645.1)" />
<use xlink:href="#f6_c7" transform="matrix(14,0,0,14,286.3,645.1)" />
<use xlink:href="#f6_oz" transform="matrix(14,0,0,14,298.5,645.1)" />
<use xlink:href="#f6_am" transform="matrix(14,0,0,14,304,645.1)" />
<use xlink:href="#f6_c7" transform="matrix(14,0,0,14,325.5,645.1)" />
<use xlink:href="#f6_cv" transform="matrix(14,0,0,14,337.6,645.1)" />
<use xlink:href="#f6_bx" transform="matrix(14,0,0,14,348.9,645.1)" />
<use xlink:href="#f6_be" transform="matrix(14,0,0,14,361.2,645.1)" />
<use xlink:href="#f6_ct" transform="matrix(14,0,0,14,375.2,645.1)" />
<use xlink:href="#f6_c7" transform="matrix(14,0,0,14,380.8,645.1)" />
<use xlink:href="#f6_cv" transform="matrix(14,0,0,14,392.9,645.1)" />
<use xlink:href="#f6_c3" transform="matrix(14,0,0,14,404.2,645.1)" />
<use xlink:href="#f6_d4" transform="matrix(14,0,0,14,419,645.1)" />
<use xlink:href="#f6_bz" transform="matrix(14,0,0,14,424.5,645.1)" />
<use xlink:href="#f6_cw" transform="matrix(14,0,0,14,438.4,645)" />
<use xlink:href="#f6_bh" transform="matrix(14,0,0,14,437.9,645.1)" />
<use xlink:href="#f6_bt" transform="matrix(14,0,0,14,454.6,645.1)" />
<use xlink:href="#f6_d4" transform="matrix(14,0,0,14,466.5,645.1)" />
<use xlink:href="#f6_k" transform="matrix(14,0,0,14,466.4,645.1)" />
<use xlink:href="#f6_bp" transform="matrix(14,0,0,14,163,678.3)" />
<use xlink:href="#f6_ct" transform="matrix(14,0,0,14,175.3,678.3)" />
<use xlink:href="#f6_c1" transform="matrix(14,0,0,14,180.9,678.3)" />
<use xlink:href="#f6_d8" transform="matrix(14,0,0,14,189.3,678.3)" />
<use xlink:href="#f6_bf" transform="matrix(14,0,0,14,200.6,678.3)" />
<use xlink:href="#f6_d4" transform="matrix(14,0,0,14,215,678.3)" />
<use xlink:href="#f6_am" transform="matrix(14,0,0,14,222,678.3)" />
<use xlink:href="#f6_nl" transform="matrix(14,0,0,14,243.5,678.3)" />
<use xlink:href="#f6_bs" transform="matrix(14,0,0,14,243.5,678.3)" />
<use xlink:href="#f6_ct" transform="matrix(14,0,0,14,257.5,678.3)" />
<use xlink:href="#f6_c1" transform="matrix(14,0,0,14,263.1,678.3)" />
<use xlink:href="#f6_bz" transform="matrix(14,0,0,14,277.1,678.3)" />
<use xlink:href="#f6_bt" transform="matrix(14,0,0,14,290.5,678.3)" />
<use xlink:href="#f6_d4" transform="matrix(14,0,0,14,302.3,678.3)" />
<use xlink:href="#f6_g" transform="matrix(14,0,0,14,307.9,678.3)" />
<use xlink:href="#f6_q" transform="matrix(14,0,0,14,313.7,678.3)" />
<use xlink:href="#f6_h" transform="matrix(14,0,0,14,325.4,678.3)" />
<use xlink:href="#f6_k" transform="matrix(14,0,0,14,331.2,678.3)" />
<use xlink:href="#f6_bp" transform="matrix(14,0,0,14,342.1,678.3)" />
<use xlink:href="#f6_cw" transform="matrix(14,0,0,14,355,678.2)" />
<use xlink:href="#f6_bg" transform="matrix(14,0,0,14,360.1,678.3)" />
<use xlink:href="#f6_bb" transform="matrix(14,0,0,14,374.4,678.3)" />
<use xlink:href="#f6_bp" transform="matrix(14,0,0,14,387,678.3)" />
<use xlink:href="#f6_ct" transform="matrix(14,0,0,14,399.3,678.3)" />
<use xlink:href="#f6_c1" transform="matrix(14,0,0,14,404.9,678.3)" />
<use xlink:href="#f6_bo" transform="matrix(14,0,0,14,413.3,678.3)" />
<use xlink:href="#f6_cc" transform="matrix(14,0,0,14,427.7,678.3)" />
<use xlink:href="#f6_ct" transform="matrix(14,0,0,14,439.3,678.3)" />
<use xlink:href="#f6_c1" transform="matrix(14,0,0,14,444.9,678.3)" />
<use xlink:href="#f6_k" transform="matrix(14,0,0,14,453.3,678.3)" />
<use xlink:href="#f6_b1" transform="matrix(14,0,0,14,128.6,711.6)" />
<use xlink:href="#f6_c8" transform="matrix(14,0,0,14,155.8,711.6)" />
<use xlink:href="#f6_dj" transform="matrix(14,0,0,14,166,712)" />
<use xlink:href="#f6_ba" transform="matrix(14,0,0,14,171.6,711.6)" />
<use xlink:href="#f6_d4" transform="matrix(14,0,0,14,188.5,711.6)" />
<use xlink:href="#f6_ke" transform="matrix(14,0,0,14,188.4,711.6)" />
<use xlink:href="#f6_c1" transform="matrix(14,0,0,14,202.6,711.6)" />
<use xlink:href="#f6_ct" transform="matrix(14,0,0,14,210.9,711.6)" />
<use xlink:href="#f6_k" transform="matrix(14,0,0,14,216.6,711.6)" />
<use xlink:href="#f6_c1" transform="matrix(14,0,0,14,227.4,711.6)" />
<use xlink:href="#f6_ct" transform="matrix(14,0,0,14,235.8,711.6)" />
<use xlink:href="#f6_ba" transform="matrix(14,0,0,14,241.4,711.6)" />
<use xlink:href="#f6_bg" transform="matrix(14,0,0,14,258.2,711.6)" />
<use xlink:href="#f6_d8" transform="matrix(14,0,0,14,272.4,711.6)" />
<use xlink:href="#f6_al" transform="matrix(14,0,0,14,283.7,711.6)" />
<use xlink:href="#f6_bz" transform="matrix(14,0,0,14,299.6,711.6)" />
<use xlink:href="#f6_ct" transform="matrix(14,0,0,14,312.9,711.6)" />
<use xlink:href="#f6_c1" transform="matrix(14,0,0,14,318.5,711.6)" />
<use xlink:href="#f6_cv" transform="matrix(14,0,0,14,326.9,711.6)" />
<use xlink:href="#f6_c3" transform="matrix(14,0,0,14,338.2,711.6)" />
<use xlink:href="#f6_ct" transform="matrix(14,0,0,14,352.9,711.6)" />
<use xlink:href="#f6_bg" transform="matrix(14,0,0,14,358.5,711.6)" />
<use xlink:href="#f6_k" transform="matrix(14,0,0,14,372.8,711.6)" />
<use xlink:href="#f6_b1" transform="matrix(14,0,0,14,383.7,711.6)" />
<use xlink:href="#f6_c8" transform="matrix(14,0,0,14,410.8,711.6)" />
<use xlink:href="#f6_dj" transform="matrix(14,0,0,14,421,712)" />
<use xlink:href="#f6_ba" transform="matrix(14,0,0,14,426.7,711.6)" />
<use xlink:href="#f6_d4" transform="matrix(14,0,0,14,443.5,711.6)" />
<use xlink:href="#f6_ke" transform="matrix(14,0,0,14,443.4,711.6)" />
<use xlink:href="#f6_c1" transform="matrix(14,0,0,14,457.6,711.6)" />
<use xlink:href="#f6_ct" transform="matrix(14,0,0,14,466,711.6)" />
<use xlink:href="#f6_8l" transform="matrix(14,0,0,14,471.6,711.6)" />
<use xlink:href="#f7_4r" transform="matrix(9,0,0,9,290.2,795.2)" />
<use xlink:href="#f8_n" transform="matrix(9,0,0,9,303,795.2)" />
<use xlink:href="#f8_t" transform="matrix(9,0,0,9,310.7,795.2)" />
<use xlink:href="#f7_4r" transform="matrix(9,0,0,9,321.3,795.2)" />
</g>
</g>
<image preserveAspectRatio="none" x="22" y="801" width="581" height="86" xlink:href="img/1.png"/>
<path d="M206.3,97.4H415.9v1.1H206.3V97.4Z" class="g1_45"/>
<image preserveAspectRatio="none" x="202" y="14" width="217" height="26" xlink:href="img/2.png"/>
<defs>
<path d="M1128,-65L953,29V322c0,0,-23,-9,-52,-9c0,0,-47,0,-102,25c0,0,11,-42,11,-83c0,0,0,-116,-78,-192c0,0,-78,-76,-203,-76c0,0,-129,0,-261,94c0,0,-132,95,-244,339l123,78c0,0,70,-150,146,-225c0,0,75,-76,168,-76c0,0,72,0,113,40c0,0,42,40,42,90c0,0,0,84,-77,115L387,350L249,556c0,0,86,77,199,83c0,0,119,73,119,163c0,0,0,25,-15,40c0,0,-4,0,-10,0c-19,0,-67,-3,-124,-33c0,0,-76,-39,-146,-106L142,872c0,0,61,65,140,107c0,0,79,42,158,42c0,0,121,0,216,-91c0,0,96,-91,96,-197c0,0,0,-96,-84,-186c0,0,62,-46,142,-46c0,0,88,0,143,52V822H834L749,937l32,64h994l86,-115l-32,-64H1557l102,-73V-31l-70,-34L1415,29V822H1095l103,-73V-31l-70,-34Z"
id="f5_am"
transform="scale(0.001,-0.001)"/>

<path d="M524,523c0,0,46,71,46,155c0,0,0,75,-33,112c0,0,-33,37,-80,37c0,0,-44,0,-73,-33c0,0,-28,-33,-28,-82c0,0,0,-63,44,-115c0,0,43,-53,124,-74Zm78,-644L284,133c0,0,-133,3,-206,67l66,214l73,15l81,-75c0,0,76,28,134,71c0,0,-142,36,-230,119c0,0,-89,82,-89,183c0,0,0,48,20,95H0L-86,937l32,64H1265l86,-115l-33,-64H1048l102,-73V-31l-70,-34L906,29V822H692c0,0,90,-105,90,-237c0,0,0,-113,-82,-220c0,0,-81,-107,-228,-168L741,99L752,29L602,-121Z"
id="f5_c8"
transform="scale(0.001,-0.001)"/>

<path d="M874,-65L700,29V309H513V173L422,122c0,0,-90,31,-191,129c0,0,-100,97,-127,184l52,81H277l-2,240c0,0,0,77,-26,109c0,0,-1,0,-2,0c-8,0,-44,-1,-70,-22c0,0,-29,-24,-29,-61c0,0,0,-53,64,-101L125,610c0,0,-174,117,-174,238c0,0,0,78,57,133c0,0,59,55,146,55c0,0,132,0,244,-112c0,0,112,-113,112,-246V516H700V822H655L570,937l32,64h458l86,-115l-32,-64H842L944,749V-31L874,-65Z"
id="f5_by"
transform="scale(0.001,-0.001)"/>

<path d="M545,-97L35,405L87,542H295c0,0,1,5,1,280H0L-86,937l32,64H729L814,886L782,822H445L550,749V547c0,0,0,-75,-41,-127c0,0,-41,-52,-129,-111L709,110V41L545,-97Z"
id="f5_c1"
transform="scale(0.001,-0.001)"/>

<path d="M277,-65L102,29V822H0L-86,937l32,64H110c0,0,-50,142,-110,226c0,0,-60,84,-149,84c0,0,-59,0,-97,-37c0,0,-39,-36,-39,-91c0,0,0,-57,42,-115l-95,-50c0,0,-145,116,-145,267c0,0,0,108,75,179c0,0,76,70,195,70c0,0,179,0,297,-150c0,0,119,-150,189,-383H463L548,886L516,822H244L347,749V-31L277,-65Z"
id="f5_cv"
transform="scale(0.001,-0.001)"/>

<path d="M746,-65L571,29V419H376V260L275,212c0,0,-87,48,-160,148c0,0,-72,100,-91,193l57,84H571V822H0L-86,937l32,64H930l88,-115L985,822H713L816,749V-31L746,-65Z"
id="f5_bt"
transform="scale(0.001,-0.001)"/>

<path d="M-289,908l-132,216c0,0,-70,120,-169,120c0,0,-83,0,-200,-80l-130,249c0,0,125,78,234,78c0,0,187,0,349,-241L-159,969L-289,908Z"
id="f5_d4"
transform="scale(0.001,-0.001)"/>

<path d="M400,260c0,0,86,0,148,55c0,0,62,55,62,134c0,0,0,26,-7,49c0,0,-71,47,-145,47c0,0,-84,0,-134,-49c0,0,-51,-50,-51,-117c0,0,0,-54,34,-96c0,0,38,-23,93,-23ZM507,84c0,0,-175,0,-326,116C181,200,31,316,31,463c0,0,0,115,87,195c0,0,88,81,221,81c0,0,41,0,87,-9L756,561c0,0,57,-93,57,-190c0,0,0,-125,-86,-206c0,0,-85,-81,-220,-81ZM0,822L-86,937l32,64H845L932,886L900,822Z"
id="f5_lx"
transform="scale(0.001,-0.001)"/>

<path d="M368,290c0,0,83,0,161,44c0,0,78,43,116,117V822H382c0,0,136,-107,136,-225c0,0,0,-74,-55,-131c0,0,-55,-57,-165,-83c0,0,15,-48,44,-91l26,-2ZM819,-65L645,29V139c0,0,-60,-31,-130,-31c0,0,-145,0,-279,109c0,0,-134,108,-208,287l29,78c0,0,128,15,181,43c0,0,54,27,54,73c0,0,0,61,-96,124H0L-86,937l32,64H1004l87,-115l-32,-64H787L889,749V-31L819,-65Z"
id="f5_c0"
transform="scale(0.001,-0.001)"/>

<path d="M277,-65L102,29V822H0L-86,937l32,64H86L18,1111c0,0,-67,122,-168,122c0,0,-81,0,-202,-80l-128,250c0,0,122,77,232,77c0,0,196,0,356,-250L252,1001H463L548,886L516,822H244L347,749V-31L277,-65Z"
id="f5_d8"
transform="scale(0.001,-0.001)"/>

<path d="M533,-97L23,405L75,542H283c0,0,1,5,1,280H-11L-98,937l32,64H717L802,886L770,822H432L538,749V530H886L901,333H403L368,309L697,110V41L533,-97Z"
id="f5_m1"
transform="scale(0.001,-0.001)"/>

<path d="M371,296c0,0,71,0,139,34c0,0,69,34,109,92v90c0,0,-72,36,-148,36c0,0,-84,0,-131,-47c0,0,-47,-47,-47,-111c0,0,0,-49,28,-89l50,-5ZM793,-65L619,29V134c0,0,-55,-27,-122,-27c0,0,-98,0,-207,48c0,0,-108,48,-182,132c0,0,-73,84,-73,188c0,0,0,113,83,191c0,0,84,78,212,78c0,0,41,0,84,-9L619,643V822H0L-86,937l32,64H978l85,-115l-32,-64H761L863,749V-31L793,-65Z"
id="f5_c7"
transform="scale(0.001,-0.001)"/>

<path d="M277,-65L102,29V822H0L-86,937l32,64H463L548,886L516,822H244L347,749V-31L277,-65Z"
id="f5_ct"
transform="scale(0.001,-0.001)"/>

<path d="M686,512V822H333L435,749l2,-237ZM860,-65L686,29V298H440V168L348,118c0,0,-90,30,-190,128c0,0,-100,98,-127,183l52,83H203L189,822H0L-86,937l32,64H1045l86,-115l-33,-64H828L930,749V-31L860,-65Z"
id="f5_bz"
transform="scale(0.001,-0.001)"/>

<path d="M959,-49L869,8V367c0,0,-32,-13,-64,-13c0,0,-50,0,-110,25c0,0,23,-52,23,-109c0,0,0,-103,-70,-170c0,0,-70,-66,-182,-66c0,0,-110,0,-222,82c0,0,-111,83,-213,293l68,42c0,0,72,-155,152,-231c0,0,81,-76,178,-76c0,0,83,0,131,49c0,0,48,48,48,117c0,0,0,54,-30,100c0,0,-31,47,-91,65L325,391L257,512c0,0,68,53,156,56c0,0,140,72,140,179c0,0,0,69,-52,99c0,0,-4,1,-11,1c-19,0,-66,-4,-123,-30c0,0,-78,-35,-142,-96L150,823c0,0,119,117,253,117c0,0,98,0,175,-71c0,0,77,-70,77,-159c0,0,0,-103,-94,-180c0,0,39,-23,73,-56c0,0,52,-22,109,-22c0,0,77,0,126,38V822H727l-46,76l14,31h840l46,-76l-13,-31H1332l66,-58V-39l-37,-10L1271,8V822H930l66,-58V-39L959,-49Z"
id="f6_am"
transform="scale(0.001,-0.001)"/>

<path d="M226,-49c0,0,-66,24,-102,78c0,0,32,69,82,101c0,0,55,-20,100,-80c0,0,-26,-66,-80,-99Z"
id="f6_pc"
transform="scale(0.001,-0.001)"/>

<path d="M238,-30c0,0,-84,17,-116,93c0,0,14,84,98,126c0,0,99,-36,112,-110C332,79,309,3,238,-30ZM183,321L134,972c0,0,31,30,98,30c0,0,72,0,90,-33L270,321Z"
id="f6_9"
transform="scale(0.001,-0.001)"/>

<path d="M688,-243c0,0,-256,53,-408,173c0,0,-152,119,-152,270c0,0,0,101,68,171c0,0,-101,84,-101,179c0,0,0,64,53,112c0,0,54,47,191,47H587V822H0l-45,76l14,31H830l45,-76L862,822H640l66,-58V585H362c0,0,-159,-1,-159,-92c0,0,0,-41,46,-80c0,0,76,47,183,47c0,0,135,0,230,-76c0,0,96,-75,96,-187C758,197,758,67,629,2L545,104c0,0,49,30,81,75c0,0,32,44,32,82c0,0,0,16,-4,26c0,0,-64,58,-167,58c0,0,-97,0,-166,-50v-2c0,0,-67,-52,-67,-131c0,0,0,-116,132,-199c0,0,132,-84,334,-132l-32,-74Z"
id="f6_cc"
transform="scale(0.001,-0.001)"/>

<path d="M228,-49L138,8V822H0l-45,76l14,31H119L-33,1144c0,0,-70,92,-157,92c0,0,-69,0,-159,-58l-72,118c0,0,89,73,181,73c0,0,140,0,257,-170L205,929H402l46,-76L434,822H199l65,-58V-39L228,-49Z"
id="f6_d8"
transform="scale(0.001,-0.001)"/>

<path d="M513,460c0,0,61,81,61,179c0,0,0,87,-45,143c0,0,-45,57,-116,57c0,0,-63,0,-102,-43c0,0,-39,-43,-39,-110c0,0,0,-90,68,-151c0,0,68,-61,173,-75ZM581,-83L278,167l-41,-4c0,0,-99,0,-130,37l47,168l51,12l78,-79c0,0,110,40,183,105c0,0,-141,23,-231,107c0,0,-90,84,-90,193c0,0,0,69,37,116H0l-45,76l14,31H1134l45,-76l-13,-31H930l66,-58V-39L959,-49L869,8V822H588c0,0,51,-44,75,-109c0,0,25,-64,25,-122c0,0,0,-105,-81,-213c0,0,-80,-108,-240,-176L658,18l2,-25L581,-83Z"
id="f6_c8"
transform="scale(0.001,-0.001)"/>

<path d="M823,-49L733,8V339H445V191L371,160c0,0,-56,36,-120,105c0,0,-63,70,-89,131l41,59H313V735c0,0,0,99,-55,140c0,0,-3,1,-8,1c-16,0,-48,-3,-71,-23c0,0,-31,-26,-31,-66c0,0,0,-69,81,-113L189,620C189,620,31,720,31,828c0,0,0,61,45,99c0,0,46,37,109,37c0,0,96,0,173,-86c0,0,76,-87,79,-194V455H733V822H556l-46,76l14,31H998l45,-76l-13,-31H794l66,-58V-39L823,-49Z"
id="f6_by"
transform="scale(0.001,-0.001)"/>

<path d="M527,-71L52,414l34,92H277c0,0,12,32,12,72V822H0l-45,76l14,31H599l46,-76L631,822H350l66,-55V564c0,0,0,-96,-152,-248L610,34L611,8L527,-71Z"
id="f6_c1"
transform="scale(0.001,-0.001)"/>

<path d="M228,-49L138,8V822H0l-45,76l14,31H138c0,0,-109,342,-284,342c0,0,-62,0,-102,-40c0,0,-40,-39,-40,-93c0,0,0,-61,51,-134l-42,-32c0,0,-128,113,-128,226c0,0,0,79,60,136c0,0,61,56,154,56c0,0,137,0,249,-125c0,0,112,-125,169,-336H402l46,-76L434,822H199l65,-58V-39L228,-49Z"
id="f6_cv"
transform="scale(0.001,-0.001)"/>

<path d="M663,-49L573,8V445H299V280L226,251c0,0,-105,99,-162,238l63,72H573V822H0l-45,76l14,31H837l46,-76L869,822H634l66,-58V-39L663,-49Z"
id="f6_bt"
transform="scale(0.001,-0.001)"/>

<path d="M-214,863l-199,281c0,0,-70,92,-157,92c0,0,-69,0,-159,-58l-72,118c0,0,89,73,180,73c0,0,141,0,258,-170L-155,901l-59,-38Z"
id="f6_d4"
transform="scale(0.001,-0.001)"/>

<path d="M373,218c0,0,98,0,172,61c0,0,75,60,75,140c0,0,0,29,-10,55c0,0,-69,59,-121,85c0,0,-52,26,-113,26c0,0,-95,0,-151,-56c0,0,-57,-55,-57,-133c0,0,0,-77,52,-135c0,0,60,-43,153,-43ZM431,116c0,0,-142,0,-261,99C170,215,52,315,52,446c0,0,0,107,80,179c0,0,80,72,195,72c0,0,43,0,81,-11L642,548c0,0,73,-91,73,-183c0,0,0,-104,-84,-176c0,0,-84,-73,-200,-73ZM0,822l-45,76l14,31H619l46,-76L651,822Z"
id="f6_lx"
transform="scale(0.001,-0.001)"/>

<path d="M374,248c0,0,77,0,149,36c0,0,71,37,110,107V822H284c0,0,138,-96,138,-208c0,0,0,-151,-228,-192c0,0,29,-104,89,-158c0,0,41,-16,91,-16ZM723,-49L633,8V200c0,0,-69,-56,-170,-56c0,0,-122,0,-240,94c0,0,-118,94,-179,237l20,55c0,0,133,17,187,44c0,0,55,28,55,84c0,0,0,45,-30,81c0,0,-30,36,-99,83H0l-45,76l14,31H897l46,-76L929,822H694l65,-58V-39L723,-49Z"
id="f6_c0"
transform="scale(0.001,-0.001)"/>

<path d="M527,-71L52,414l34,92H277c0,0,12,32,12,72V822H0l-45,76l14,31H654l46,-76L686,822H350l66,-55V564c0,0,0,-43,-25,-89H782L798,370H315L264,316L610,34L611,8L527,-71Z"
id="f6_m1"
transform="scale(0.001,-0.001)"/>

<path d="M325,240c0,0,77,0,154,35c0,0,77,35,120,99V500c0,0,-118,73,-222,73c0,0,-97,0,-151,-54c0,0,-53,-53,-53,-128c0,0,0,-73,49,-125c0,0,38,-26,103,-26ZM689,-49L599,8V199c0,0,-73,-65,-179,-65c0,0,-134,0,-252,96c0,0,-118,95,-118,221c0,0,0,102,78,171c0,0,78,69,190,69c0,0,38,0,75,-10L599,582V822H0l-45,76l14,31H863l46,-76L895,822H660l66,-58V-39L689,-49Z"
id="f6_c7"
transform="scale(0.001,-0.001)"/>

<path d="M228,-49L138,8V822H0l-45,76l14,31H402l46,-76L434,822H199l65,-58V-39L228,-49Z"
id="f6_ct"
transform="scale(0.001,-0.001)"/>

<path d="M689,445V822H286l65,-58l8,-319ZM779,-49L689,8V328H370V180L296,150c0,0,-56,35,-120,104c0,0,-63,70,-89,131l41,60H238L223,822H0l-45,76l14,31H953l46,-76L985,822H750l66,-58V-39L779,-49Z"
id="f6_bz"
transform="scale(0.001,-0.001)"/>

<path d="M108,-222l-44,58c0,0,96,81,104,164L89,61c0,0,12,83,93,122c0,0,50,-15,79,-55c0,0,29,-39,29,-90c0,0,0,-69,-48,-142c0,0,-48,-72,-134,-118Z"
id="f6_k"
transform="scale(0.001,-0.001)"/>

<path d="M228,-49L138,8V822H0l-45,76l14,31H134c0,0,-85,93,-85,192c0,0,0,124,129,195c0,0,129,71,364,71c0,0,285,0,647,-97c0,0,363,-97,692,-271l-42,-50c0,0,-313,137,-644,221c0,0,-332,84,-595,84c0,0,-198,0,-314,-55c0,0,-115,-55,-115,-163c0,0,0,-60,44,-127H402l46,-76L434,822H199l65,-58V-39L228,-49Z"
id="f6_o0"
transform="scale(0.001,-0.001)"/>

<path d="M283,260c0,0,122,0,209,113V513c0,0,-90,51,-160,51c0,0,-80,0,-129,-50c0,0,-49,-50,-49,-118c0,0,0,-60,35,-110c0,0,45,-26,94,-26ZM582,-49L492,8V211c0,0,-63,-54,-141,-54c0,0,-113,0,-214,92c0,0,-102,92,-102,206c0,0,0,93,69,157c0,0,69,63,163,63c0,0,34,0,66,-9L492,590V822H0l-45,76l14,31H909l46,-76L941,822H553l66,-58V521c0,0,93,104,192,104c0,0,63,0,120,-42c0,0,57,-42,82,-106L964,431l-5,9c0,0,-38,72,-110,72c0,0,-51,0,-105,-41c0,0,-53,-42,-125,-129V-39L582,-49Z"
id="f6_l1"
transform="scale(0.001,-0.001)"/>

<path d="M347,-57C347,-57,66,211,66,394c0,0,0,98,74,164c0,0,74,65,225,65H616V822H0l-45,76l14,31H880l46,-76L912,822H677l66,-58V-39L706,-49L616,8V500H428c0,0,-239,0,-239,-161c0,0,0,-136,214,-343L347,-57Z"
id="f6_bp"
transform="scale(0.001,-0.001)"/>

<path d="M761,293c0,0,127,0,169,94V532c0,0,-68,46,-145,46c0,0,-76,0,-121,-46c0,0,-45,-45,-45,-107c0,0,0,-61,44,-110c0,0,47,-22,98,-22ZM657,67c0,0,166,0,273,107v55c0,0,-45,-36,-111,-36c0,0,-110,0,-207,90c0,0,-97,90,-97,194c0,0,0,85,66,148c0,0,65,63,155,63l48,-5L930,603V822H376l62,-55V579c0,0,0,-60,-23,-102c0,0,-24,-42,-148,-190c0,0,66,-104,175,-162c0,0,108,-58,215,-58ZM1021,-49L930,8V53c0,0,-105,-83,-264,-83c0,0,-177,0,-339,128C327,98,165,226,90,429l34,77H296c0,0,19,39,19,102l-2,214H0l-45,76l14,31H1195l46,-76l-14,-31H992l65,-58V-39l-36,-10Z"
id="f6_ba"
transform="scale(0.001,-0.001)"/>

<path d="M108,-433L-59,-214c0,0,-99,119,-191,119c0,0,-59,0,-96,-35c0,0,-36,-34,-36,-81c0,0,0,-49,42,-83l152,95l64,-116c0,0,-71,-58,-148,-58c0,0,-80,0,-146,63c0,0,-65,64,-65,144c0,0,0,77,62,131c0,0,61,53,142,53c0,0,138,0,296,-205L165,-393l-57,-40Z"
id="f6_cx"
transform="scale(0.001,-0.001)"/>

<path d="M388,325c0,0,58,0,112,31c0,0,53,31,84,86V822H165l69,-58V408c0,0,47,-83,154,-83ZM674,-49L584,8V257c0,0,-61,-51,-141,-51c0,0,-125,0,-232,109c0,0,-107,108,-107,243V822H0l-45,76l14,31H848l46,-76L880,822H645l65,-58V-39L674,-49Z"
id="f6_bv"
transform="scale(0.001,-0.001)"/>

<path d="M-234,-413c0,0,-210,0,-488,322l54,49c0,0,119,-128,209,-193c0,0,90,-65,177,-65c0,0,72,0,113,40c0,0,42,39,42,91c0,0,0,75,-78,106L-323,-181l-90,98c0,0,63,95,167,95c0,0,90,0,155,-69c0,0,66,-70,66,-164c0,0,0,-85,-60,-139c0,0,-61,-53,-149,-53Z"
id="f6_cw"
transform="scale(0.001,-0.001)"/>

<path d="M845,-49L755,8V513H497c0,0,61,-45,93,-110c0,0,33,-64,33,-128c0,0,0,-90,-58,-144c0,0,-59,-53,-143,-53c0,0,-133,0,-234,139C188,217,87,356,20,596l76,24c0,0,60,-201,127,-306c0,0,67,-105,160,-105c0,0,57,0,91,36c0,0,33,36,33,91c0,0,0,84,-73,159L295,558v71H755V822H0l-45,76l14,31H1019l46,-76l-14,-31H816l66,-58V-39L845,-49Z"
id="f6_bg"
transform="scale(0.001,-0.001)"/>

<path d="M959,-49L869,8V367c0,0,-32,-13,-64,-13c0,0,-50,0,-110,25c0,0,23,-52,23,-109c0,0,0,-103,-70,-170c0,0,-70,-66,-182,-66c0,0,-110,0,-222,82c0,0,-111,83,-213,293l68,42c0,0,72,-155,152,-231c0,0,81,-76,178,-76c0,0,83,0,131,49c0,0,48,48,48,117c0,0,0,54,-30,100c0,0,-31,47,-91,65L325,391L257,512c0,0,68,53,156,56c0,0,140,72,140,179c0,0,0,69,-52,99c0,0,-4,1,-11,1c-19,0,-66,-4,-123,-30c0,0,-78,-35,-142,-96L150,823c0,0,119,117,253,117c0,0,98,0,175,-71c0,0,77,-70,77,-159c0,0,0,-103,-94,-180c0,0,39,-23,73,-56c0,0,52,-22,109,-22c0,0,77,0,126,38V822H727l-46,76l14,31h439l45,-76l-13,-31H930l66,-58V-39L959,-49Z"
id="f6_al"
transform="scale(0.001,-0.001)"/>

<path d="M959,-49L869,8V367c0,0,-32,-13,-64,-13c0,0,-50,0,-110,25c0,0,23,-52,23,-109c0,0,0,-103,-70,-170c0,0,-70,-66,-182,-66c0,0,-110,0,-222,82c0,0,-111,83,-213,293l68,42c0,0,72,-155,152,-231c0,0,81,-76,178,-76c0,0,83,0,131,49c0,0,48,48,48,117c0,0,0,54,-30,100c0,0,-31,47,-91,65L325,391L257,512c0,0,68,53,156,56c0,0,140,72,140,179c0,0,0,69,-52,99c0,0,-4,1,-11,1c-19,0,-66,-4,-123,-30c0,0,-78,-35,-142,-96L150,823c0,0,119,117,253,117c0,0,98,0,175,-71c0,0,77,-70,77,-159c0,0,0,-103,-94,-180c0,0,39,-23,73,-56c0,0,52,-22,109,-22c0,0,77,0,126,38V822H727l-46,76l14,31h558l-153,215c0,0,-70,92,-157,92c0,0,-69,0,-159,-58l-72,118c0,0,89,73,180,73c0,0,141,0,258,-170L1338,929h197l46,-76l-13,-31H1332l66,-58V-39l-37,-10L1271,8V822H930l66,-58V-39L959,-49Z"
id="f6_b1"
transform="scale(0.001,-0.001)"/>

<path d="M0,1062c0,0,-26,11,-60,36c0,0,-34,26,-51,49c0,0,39,81,91,110c0,0,60,-23,106,-85c0,0,-28,-70,-86,-110Z"
id="f6_dj"
transform="scale(0.001,-0.001)"/>

<path d="M500,44c0,0,78,0,152,57c0,0,75,56,98,134V350c0,0,-130,0,-223,-64c0,0,-93,-63,-93,-148c0,0,0,-54,43,-92l23,-2ZM321,561c0,0,66,46,101,105c0,0,36,60,36,113c0,0,0,28,-9,48c0,0,-35,41,-87,41c0,0,-50,0,-89,-38c0,0,-39,-39,-39,-100c0,0,0,-94,87,-169ZM840,-111l-90,59V32c0,0,-69,-68,-156,-68c0,0,-97,0,-187,64c0,0,-89,64,-89,146c0,0,0,61,48,123c0,0,48,62,141,94c0,0,-69,20,-140,57L105,272L20,364L260,519c0,0,-144,118,-144,246c0,0,0,81,57,140c0,0,56,59,140,59c0,0,96,0,171,-79c0,0,75,-78,75,-168c0,0,0,-118,-133,-222c0,0,107,-44,232,-44l92,6V822H628l-46,76l14,31h418l46,-76l-13,-31H811l66,-58V-100l-37,-11Z"
id="f6_ke"
transform="scale(0.001,-0.001)"/>

<path d="M413,-59C413,-59,53,193,53,416c0,0,0,97,66,164c0,0,66,66,156,66c0,0,61,0,110,-30L487,507c0,0,92,126,257,126l35,-2V822H0l-45,76l14,31H1043l46,-76l-13,-31H840l66,-58V-39L869,-49L779,8V547c0,0,-101,-5,-165,-90c0,0,-64,-86,-70,-222L507,225l-90,73c0,0,5,79,35,151c0,0,-59,66,-128,66c0,0,-57,0,-100,-38c0,0,-44,-39,-44,-109c0,0,0,-165,284,-360L413,-59Z"
id="f6_c3"
transform="scale(0.001,-0.001)"/>

<path d="M396,318c0,0,123,0,203,108V822H180l66,-58V408c0,0,49,-90,150,-90ZM176,-66L79,9L379,228c0,0,-106,23,-181,119c0,0,-76,96,-79,198V822H0l-45,76l14,31H863l46,-76L895,822H660l66,-58V-39L689,-49L599,8V269L176,-66Z"
id="f6_e6"
transform="scale(0.001,-0.001)"/>

<path d="M558,-520c0,0,-210,0,-488,322l54,49c0,0,119,-128,209,-193c0,0,90,-65,177,-65c0,0,72,0,113,40c0,0,42,40,42,91c0,0,0,75,-78,106L469,-288l-90,98l27,37c0,0,-133,64,-213,155c0,0,-80,91,-80,201c0,0,0,101,69,170c0,0,-103,88,-103,179c0,0,0,64,57,110c0,0,57,47,196,47H571V822H0l-45,76l14,31H830l45,-76L862,822H625l66,-58V585H364c0,0,-176,0,-176,-96c0,0,0,-41,44,-76c0,0,81,47,185,47c0,0,135,0,230,-76c0,0,96,-75,96,-187C743,197,743,67,614,2L530,104c0,0,49,30,81,75c0,0,32,44,32,82c0,0,0,16,-4,26c0,0,-65,58,-167,58c0,0,-98,0,-166,-50v-2c0,0,-68,-52,-68,-131c0,0,0,-154,254,-263l53,7c0,0,91,0,156,-70c0,0,66,-70,66,-163c0,0,0,-86,-60,-139c0,0,-61,-54,-149,-54Z"
id="f6_n4"
transform="scale(0.001,-0.001)"/>

<path d="M900,298c0,0,32,73,32,159c0,0,0,110,-38,160c0,0,-40,31,-81,31c0,0,-48,0,-80,-35c0,0,-33,-35,-33,-89c0,0,0,-118,200,-226ZM588,-60c0,0,-154,0,-274,93c0,0,-120,94,-120,207c0,0,0,50,28,92C222,332,61,440,61,552c0,0,0,71,56,122c0,0,56,50,169,50H417l64,-98L463,600H333c0,0,-157,-1,-157,-99c0,0,0,-59,88,-124c0,0,68,52,164,52c0,0,38,0,79,-9l71,-88L558,299c0,0,-46,10,-81,10c0,0,-75,0,-116,-36c0,0,-40,-36,-40,-88c0,0,0,-78,73,-130c0,0,54,-17,109,-17c0,0,114,0,211,54c0,0,97,53,154,145c0,0,-156,96,-223,173c0,0,-67,77,-67,155c0,0,0,72,48,124c0,0,48,52,126,55v78H0l-45,76l14,31H1123l46,-76l-14,-31H805l66,-58V717c0,0,76,-40,124,-124c0,0,47,-84,47,-193c0,0,0,-188,-133,-324C909,76,776,-60,588,-60Z"
id="f6_bf"
transform="scale(0.001,-0.001)"/>

<path d="M283,260c0,0,122,0,209,113V513c0,0,-90,51,-160,51c0,0,-80,0,-129,-50c0,0,-49,-50,-49,-118c0,0,0,-60,35,-110c0,0,45,-26,94,-26ZM582,-49L492,8V211c0,0,-63,-54,-141,-54c0,0,-113,0,-213,92c0,0,-100,92,-100,205c0,0,0,93,69,157c0,0,69,64,162,64c0,0,32,0,64,-9L492,590V822H0l-45,76l14,31H1108l45,-76l-13,-31H553l66,-58V524c0,0,91,89,192,89c0,0,98,0,171,-79c0,0,72,-79,72,-186c0,0,0,-178,-224,-330L736,124c0,0,219,153,219,269c0,0,0,44,-26,75c0,0,-26,32,-81,32c0,0,-109,0,-229,-155V-39L582,-49Z"
id="f6_b9"
transform="scale(0.001,-0.001)"/>

<path d="M483,-305L295,-10c0,0,-90,22,-156,74l41,170h66L351,63c0,0,126,4,207,62c0,0,82,58,82,139c0,0,0,37,-18,71L365,266c0,0,-110,15,-197,102c0,0,-87,87,-87,176c0,0,0,69,59,117c0,0,59,48,172,48H550V822H0l-45,76l14,31H550c0,0,-142,122,-142,255c0,0,0,78,52,133c0,0,52,55,140,55c0,0,98,0,176,-64l-23,-69c0,0,-53,32,-104,32c0,0,-56,0,-94,-36c0,0,-39,-36,-39,-95c0,0,0,-109,112,-211H822l46,-76L854,822H603l66,-58V585H373c0,0,-184,0,-184,-99c0,0,0,-48,63,-101l310,78c0,0,86,-34,141,-99c0,0,55,-65,55,-142c0,0,0,-109,-98,-179c0,0,-98,-69,-254,-69L599,-216L483,-305Z"
id="f6_ao"
transform="scale(0.001,-0.001)"/>

<path d="M0,822l-45,76l14,31H61l46,-76L93,822Z"
id="f6_no"
transform="scale(0.001,-0.001)"/>

<path d="M768,-49L678,8V202c0,0,-73,-58,-172,-58c0,0,-123,0,-240,94c0,0,-118,94,-179,237l20,55c0,0,134,12,215,70c0,0,81,57,81,141c0,0,0,90,-67,134l-26,3c0,0,-46,0,-74,-29c0,0,-28,-30,-28,-68c0,0,0,-55,82,-109L252,620C252,620,93,720,93,820c0,0,0,65,47,104c0,0,46,40,114,40c0,0,99,0,179,-83c0,0,80,-83,82,-197c0,0,0,-93,-79,-165c0,0,-78,-73,-199,-97c0,0,29,-104,88,-158c0,0,42,-16,92,-16c0,0,78,0,151,38c0,0,74,38,110,111V822H553l-46,76l14,31H943l45,-76L975,822H739l66,-58V-39L768,-49Z"
id="f6_bq"
transform="scale(0.001,-0.001)"/>

<path d="M527,-71L52,414l34,92H277c0,0,12,32,12,72V822H0l-45,76l14,31H940l45,-76L972,822H350l66,-55V570c0,0,146,98,247,98c0,0,95,0,167,-73c0,0,71,-72,71,-167c0,0,0,-77,-53,-142c0,0,-54,-64,-159,-136l-89,99c0,0,100,70,152,121c0,0,52,52,52,105c0,0,0,34,-23,60c0,0,-22,26,-72,26c0,0,-139,0,-434,-252L610,34L611,8L527,-71Z"
id="f6_n0"
transform="scale(0.001,-0.001)"/>

<path d="M675,-274L602,21C602,21,550,3,498,3C498,3,347,3,210,118C210,118,73,232,73,373c0,0,0,113,84,184c0,0,84,71,222,72H524V822H0l-45,76l14,31H834l46,-76L866,822H585l66,-58V504l-3,2l3,-3H408c0,0,-95,0,-154,-53c0,0,-58,-53,-58,-132c0,0,0,-49,27,-100c0,0,28,-50,83,-84c0,0,44,-15,96,-15c0,0,91,0,160,46L535,303l101,48L773,188c0,0,-8,-28,-34,-66c0,0,-27,-38,-62,-64L813,-221L675,-274Z"
id="f6_br"
transform="scale(0.001,-0.001)"/>

<path d="M799,475V822H350l66,-55V564c0,0,0,-43,-25,-89ZM527,-71L52,414l34,92H277c0,0,12,32,12,72V822H0l-45,76l14,31H1063l46,-76l-14,-31H860l66,-58V-39L889,-49L799,8V370H315L264,316L610,34L611,8L527,-71Z"
id="f6_cb"
transform="scale(0.001,-0.001)"/>

<path d="M471,-26c0,0,-259,0,-448,396l70,43C93,413,240,98,442,98c0,0,79,0,132,46c0,0,54,45,54,120c0,0,0,61,-38,116c0,0,-38,54,-107,72L322,370L255,492c0,0,66,53,156,56c0,0,128,51,128,153c0,0,0,77,-65,121H0l-45,76l14,31H813l46,-76L845,822H578c0,0,76,-66,76,-157c0,0,0,-95,-87,-156c0,0,84,-48,131,-123c0,0,48,-76,48,-158c0,0,0,-109,-78,-182c0,0,-78,-72,-197,-72Z"
id="f6_ap"
transform="scale(0.001,-0.001)"/>

<path d="M915,-274L842,21L784,6c0,0,-37,-120,-114,-190c0,0,-77,-70,-178,-70c0,0,-96,0,-175,51c0,0,-79,51,-80,122c0,0,-119,32,-179,89C58,8,-1,67,-1,138c0,0,0,64,44,104c0,0,44,41,104,41c0,0,91,0,207,-123L315,110c0,0,-78,69,-122,84c0,0,-75,-23,-75,-92c0,0,0,-39,36,-72c0,0,35,-32,100,-46c0,0,35,69,122,89L497,24l-4,-40c0,0,-59,-6,-95,-37c0,0,-36,-32,-36,-68c0,0,0,-41,46,-63c0,0,67,3,141,62c0,0,74,59,102,137c0,0,-136,32,-237,135c0,0,-101,104,-101,223c0,0,0,113,84,184c0,0,84,71,222,72H764V822H0l-45,76l14,31H1074l46,-76l-14,-31H825l66,-58V504l-3,2l3,-3H648c0,0,-95,0,-154,-53c0,0,-59,-53,-59,-132c0,0,0,-49,28,-100c0,0,27,-50,82,-84c0,0,45,-15,97,-15c0,0,91,0,160,46L775,303l100,48L1013,188c0,0,-8,-28,-34,-66c0,0,-27,-38,-62,-64l136,-279L915,-274Z"
id="f6_ge"
transform="scale(0.001,-0.001)"/>

<path d="M290,-236c0,0,-253,348,-253,685c0,0,0,342,270,669l80,-39c0,0,-207,-311,-207,-622c0,0,0,-326,193,-652l-83,-41Z"
id="f6_g"
transform="scale(0.001,-0.001)"/>

<path d="M95,0L67,98L422,497c0,0,130,154,130,259c0,0,0,63,-40,111c0,0,-40,48,-121,48c0,0,-75,0,-171,-29L193,695l-88,2c0,0,-13,82,-13,165l1,65c0,0,159,97,315,97c0,0,122,0,207,-78c0,0,85,-77,85,-193c0,0,0,-67,-34,-133c0,0,-33,-67,-165,-217L237,121l4,-14l373,21l49,136l83,-12C746,252,732,99,704,0Z"
id="f6_q"
transform="scale(0.001,-0.001)"/>

<path d="M130,-236l-83,41c0,0,193,326,193,652c0,0,0,311,-206,622l79,39c0,0,270,-327,270,-669c0,0,0,-337,-253,-685Z"
id="f6_h"
transform="scale(0.001,-0.001)"/>

<path d="M252,385l310,78l22,-9c0,0,107,-43,200,-43c0,0,91,0,151,41V822H603l66,-58V585H373c0,0,-184,0,-184,-99c0,0,0,-48,63,-101ZM483,-305L295,-10c0,0,-90,22,-156,74l41,170h66L351,63c0,0,126,4,207,62c0,0,82,58,82,139c0,0,0,37,-18,71L365,266c0,0,-110,15,-197,102c0,0,-87,87,-87,176c0,0,0,69,59,117c0,0,59,48,172,48H550V822H0l-45,76l14,31H1199l46,-76l-14,-31H996l66,-58V-39l-37,-10L935,8V318c0,0,-41,-15,-78,-15c0,0,-52,0,-131,30c0,0,32,-55,32,-111c0,0,0,-109,-98,-179c0,0,-98,-69,-254,-69L599,-216L483,-305Z"
id="f6_bh"
transform="scale(0.001,-0.001)"/>

<path d="M-214,860l-227,219c0,0,-73,70,-148,70c0,0,-67,0,-160,-58l-72,117c0,0,83,71,176,71c0,0,120,0,232,-124L-221,940l-102,294c0,0,-64,179,-189,179c0,0,-60,0,-133,-33l-60,125c0,0,84,47,164,47c0,0,200,0,281,-276L-150,901l-23,-15l-41,-26Z"
id="f6_d5"
transform="scale(0.001,-0.001)"/>

<path d="M461,144c0,0,-120,0,-237,94c0,0,-117,94,-180,237l20,55c0,0,133,17,187,44c0,0,55,28,55,84c0,0,0,45,-30,81c0,0,-30,36,-99,83H0l-45,76l14,31H561l46,-76L593,822H284c0,0,138,-96,138,-208c0,0,0,-151,-228,-192c0,0,29,-104,89,-158c0,0,38,-16,90,-16c0,0,78,0,152,37c0,0,74,37,112,109L717,289c0,0,-39,-72,-110,-109c0,0,-71,-36,-146,-36Z"
id="f6_lr"
transform="scale(0.001,-0.001)"/>

<path d="M254,-26c0,0,-84,16,-116,92c0,0,13,84,97,127c0,0,100,-36,112,-110C347,83,324,6,254,-26Zm458,0c0,0,-84,16,-116,92c0,0,14,84,98,127c0,0,99,-37,111,-110C805,83,782,6,712,-26Zm458,0c0,0,-84,16,-116,92c0,0,14,84,98,127c0,0,99,-36,111,-110c0,0,-22,-77,-93,-109Z"
id="f6_8l"
transform="scale(0.001,-0.001)"/>

<path d="M727,-49L637,8V822H278l66,-58V226L270,196c0,0,-64,36,-122,98c0,0,-58,62,-79,122l43,59H217V822H0l-45,76l14,31H901l46,-76L933,822H698l66,-58V-39L727,-49Z"
id="f6_bb"
transform="scale(0.001,-0.001)"/>

<path d="M1178,445V822H775l65,-58l8,-319Zm90,-494L1178,8V328H859V180L785,150c0,0,-53,33,-115,100c0,0,-62,66,-89,126c0,0,-39,37,-120,38H254V249L180,220c0,0,-105,99,-162,238l63,72H374c0,0,116,0,173,-16c0,0,56,-16,99,-69h81L712,822H0l-45,76l14,31H1442l46,-76l-14,-31H1239l66,-58V-39l-37,-10Z"
id="f6_jl"
transform="scale(0.001,-0.001)"/>

<path d="M1260,193c0,0,77,0,149,36c0,0,71,37,110,107V822H678l66,-58V692h330c0,0,99,-3,189,-78c0,0,91,-75,91,-153c0,0,0,-58,-61,-100c0,0,-60,-43,-169,-54c0,0,16,-59,45,-98c0,0,41,-16,91,-16ZM1609,-80l-90,58V145c0,0,-69,-56,-173,-56c0,0,-115,0,-210,74c0,0,-96,74,-160,205l20,55c0,0,243,8,243,89c0,0,0,36,-53,47c0,0,-54,11,-181,11H428c0,0,-72,0,-118,-27c0,0,-46,-27,-46,-74c0,0,0,-50,60,-93l261,82c0,0,104,-23,170,-99c0,0,67,-76,67,-166c0,0,0,-101,-79,-167c0,0,-80,-65,-198,-65c0,0,-258,0,-492,358l57,42C110,361,283,79,497,79c0,0,91,0,152,51c0,0,61,50,61,122c0,0,0,46,-26,81L440,252c0,0,-110,15,-197,102c0,0,-87,86,-87,175c0,0,0,68,59,116c0,0,58,49,172,49H625V822H0l-45,76l14,31H1783l46,-76l-14,-31H1580l65,-58V-69l-36,-11Z"
id="f6_g6"
transform="scale(0.001,-0.001)"/>

<path d="M348,229c0,0,57,0,106,17L263,559c0,0,-95,-50,-95,-162c0,0,0,-75,52,-136c0,0,49,-32,128,-32Zm170,48c0,0,61,38,96,91V504c0,0,-131,80,-244,80l-35,-2L518,277ZM704,-49L614,8V193c0,0,-84,-65,-192,-65c0,0,-139,0,-255,98c0,0,-115,98,-115,226c0,0,0,106,77,175c0,0,77,70,189,70c0,0,38,0,75,-9L614,578V822H0l-45,76l14,31H878l46,-76L911,822H675l66,-58V-39L704,-49Z"
id="f6_bx"
transform="scale(0.001,-0.001)"/>

<path d="M652,-518c0,0,-209,0,-487,322l53,49c0,0,120,-129,210,-193c0,0,90,-65,177,-65c0,0,72,0,113,39c0,0,41,40,41,92c0,0,0,75,-78,105L564,-286l-90,98c0,0,62,96,169,96L605,37C605,37,552,18,498,18c0,0,-151,0,-288,115C210,133,73,248,73,388c0,0,0,113,84,184c0,0,84,71,222,73H524V822H0l-45,76l14,31H842l46,-76L874,822H567l84,-73V519l-3,2l3,-3H408c0,0,-93,0,-153,-52c0,0,-59,-52,-59,-128c0,0,0,-121,110,-188c0,0,53,-17,105,-17c0,0,92,0,153,43L535,318l101,49L773,203c0,0,-20,-67,-87,-122l61,-204c0,0,52,-32,83,-87c0,0,32,-55,32,-116c0,0,0,-85,-61,-139c0,0,-60,-53,-149,-53Z"
id="f6_mv"
transform="scale(0.001,-0.001)"/>

<path d="M228,-49L138,8V822H0l-45,76l14,31H134c0,0,-91,92,-91,191c0,0,0,105,85,170c0,0,84,65,219,65c0,0,128,0,293,-76c0,0,165,-77,362,-263L958,966c0,0,-177,143,-303,210c0,0,-125,68,-244,68c0,0,-107,0,-175,-50c0,0,-68,-50,-68,-131c0,0,0,-61,49,-134H402l46,-76L434,822H199l65,-58V-39L228,-49Z"
id="f6_cu"
transform="scale(0.001,-0.001)"/>

<path d="M547,-285c0,0,-66,25,-102,80c0,0,32,69,82,101c0,0,55,-20,99,-80c0,0,-26,-67,-79,-101Zm1,228c0,0,-122,0,-243,81c0,0,-122,81,-252,280l57,41C110,345,283,64,498,64c0,0,92,0,153,49c0,0,61,49,61,121c0,0,0,46,-28,84L440,237c0,0,-73,11,-139,55c0,0,-66,44,-105,105c0,0,-40,61,-40,119c0,0,0,72,62,125c0,0,62,53,184,53H625V822H0l-45,76l14,31H906l46,-76L938,822H678l66,-58V562H431c0,0,-164,0,-164,-99c0,0,0,-55,57,-102l261,82c0,0,104,-21,172,-98c0,0,68,-78,68,-171c0,0,0,-99,-76,-166c0,0,-77,-65,-201,-65Z"
id="f6_ch"
transform="scale(0.001,-0.001)"/>

<path d="M283,260c0,0,122,0,209,113V513c0,0,-90,51,-160,51c0,0,-80,0,-129,-50c0,0,-49,-50,-49,-118c0,0,0,-60,35,-110c0,0,45,-26,94,-26ZM619,521c0,0,93,104,192,104c0,0,98,0,170,-92c0,0,117,17,167,45c0,0,50,27,50,80c0,0,0,45,-30,81c0,0,-30,36,-99,83H553l66,-58V521ZM1267,248c0,0,76,0,148,36c0,0,72,37,110,107V822H1176c0,0,138,-96,138,-208c0,0,0,-151,-228,-192c0,0,29,-104,89,-158c0,0,41,-16,92,-16ZM582,-49L492,8V211c0,0,-63,-54,-141,-54c0,0,-113,0,-214,92c0,0,-102,92,-102,206c0,0,0,93,69,157c0,0,69,63,163,63c0,0,34,0,66,-9L492,590V822H0l-45,76l14,31H1789l46,-76l-14,-31H1586l66,-58V-39l-37,-10L1525,8V200c0,0,-69,-56,-170,-56c0,0,-121,0,-238,92c0,0,-118,92,-179,235c0,0,-35,41,-89,41c0,0,-51,0,-105,-41c0,0,-53,-42,-125,-129V-39L582,-49Z"
id="f6_ik"
transform="scale(0.001,-0.001)"/>

<path d="M-91,1001c0,0,-27,10,-61,36c0,0,-33,26,-50,49c0,0,38,81,90,110c0,0,61,-23,107,-85c0,0,-28,-71,-86,-110ZM-214,863l-199,281c0,0,-70,92,-157,92c0,0,-69,0,-159,-58l-72,118c0,0,89,73,180,73c0,0,141,0,258,-170L-155,901l-59,-38Z"
id="f6_oz"
transform="scale(0.001,-0.001)"/>

<path d="M825,-49L735,8V217c0,0,-86,-72,-197,-72c0,0,-130,0,-238,91c0,0,-107,91,-107,204c0,0,0,55,27,105H55L12,616l14,30H574l46,-76L607,539H396c0,0,-78,-49,-78,-162c0,0,0,-70,40,-111c0,0,39,-15,94,-15c0,0,84,0,163,41c0,0,79,41,120,121V822H0l-45,76l14,31H999l46,-76l-14,-31H796l66,-58V-39L825,-49Z"
id="f6_be"
transform="scale(0.001,-0.001)"/>

<path d="M0,822l-45,76l14,31H38L84,853L70,822Z"
id="f6_nl"
transform="scale(0.001,-0.001)"/>

<path d="M827,-49L736,8V205c0,0,-84,-84,-209,-84c0,0,-130,0,-237,91c0,0,-108,92,-108,196c0,0,0,79,61,137C243,545,66,672,66,791c0,0,0,75,52,124c0,0,53,49,134,49c0,0,164,0,260,-237L451,694c0,0,-55,114,-119,163l-31,5c0,0,-44,0,-77,-32c0,0,-33,-31,-33,-78c0,0,0,-86,113,-165c0,0,60,27,133,27l67,-4l75,-89L564,490l-51,7H493c0,0,-90,0,-142,-43c0,0,-52,-43,-52,-104c0,0,0,-60,51,-109c0,0,33,-16,84,-16c0,0,89,0,177,47c0,0,89,47,125,137V822H567l-46,76l14,31h466l46,-76l-14,-31H798l65,-58V-39L827,-49Z"
id="f6_bs"
transform="scale(0.001,-0.001)"/>

<path d="M342,324c0,0,45,0,75,34c0,0,31,33,31,100V822H165l66,-58V390c0,0,32,-66,111,-66ZM853,-49L762,8V822H509l65,-58V455c0,0,0,-134,-51,-185c0,0,-52,-52,-127,-52c0,0,-98,0,-195,99c0,0,-97,99,-97,209V822H0l-45,76l14,31H1027l46,-76l-14,-31H823l66,-58V-39L853,-49Z"
id="f6_bo"
transform="scale(0.001,-0.001)"/>

<path d="M725,307c0,0,-95,0,-218,78c0,0,-123,78,-188,78c0,0,-54,0,-95,-34c0,0,-41,-34,-73,-100L93,362c0,0,38,88,101,146c0,0,63,59,148,59c0,0,90,0,214,-78c0,0,124,-79,188,-79c0,0,63,0,106,34c0,0,42,33,85,104l60,-40c0,0,-32,-66,-101,-134c0,0,-70,-67,-169,-67Z"
id="f7_4r"
transform="scale(0.001,-0.001)"/>

<path d="M412,-18c0,0,-144,0,-239,85c0,0,-95,86,-108,222l133,18c0,0,24,-114,79,-164c0,0,55,-50,135,-50c0,0,96,0,161,65c0,0,65,66,65,163c0,0,0,92,-61,152c0,0,-60,60,-153,60c0,0,-38,0,-95,-15l15,119c0,0,13,-2,21,-2c0,0,86,0,155,45c0,0,69,44,69,137c0,0,0,74,-50,122c0,0,-50,49,-129,49c0,0,-79,0,-131,-50c0,0,-52,-49,-67,-147L78,815c0,0,25,135,112,209c0,0,87,74,217,74c0,0,89,0,164,-38c0,0,76,-39,116,-105c0,0,40,-66,40,-141c0,0,0,-70,-39,-129c0,0,-38,-58,-112,-92c0,0,97,-22,151,-93c0,0,53,-70,53,-176c0,0,0,-143,-104,-243c0,0,-105,-99,-264,-99Z"
id="f8_n"
transform="scale(0.001,-0.001)"/>

<path d="M420,489c0,0,93,0,153,65c0,0,60,65,60,181c0,0,0,116,-62,184c0,0,-61,68,-148,68c0,0,-90,0,-156,-74c0,0,-66,-73,-66,-189c0,0,0,-105,63,-170c0,0,63,-65,156,-65ZM391,-18c0,0,-128,0,-209,71c0,0,-82,71,-98,200l129,12c0,0,17,-91,63,-132c0,0,46,-41,118,-41c0,0,62,0,109,28c0,0,47,29,76,76c0,0,30,47,50,128c0,0,20,80,20,164c0,0,0,9,-1,27c0,0,-40,-65,-110,-105c0,0,-69,-39,-151,-39c0,0,-135,0,-229,98c0,0,-94,99,-94,260c0,0,0,166,98,268c0,0,98,101,245,101c0,0,107,0,195,-57c0,0,89,-58,134,-164c0,0,46,-106,46,-308c0,0,0,-209,-45,-334C737,235,691,111,602,46c0,0,-90,-64,-211,-64Z"
id="f8_t"
transform="scale(0.001,-0.001)"/>


</defs>
</svg>