<?xml version="1.0" encoding="UTF-8" standalone="no"?>
<!DOCTYPE svg PUBLIC "-//W3C//DTD SVG 1.1//EN"
"http://www.w3.org/Graphics/SVG/1.1/DTD/svg11.dtd">
<svg viewBox="0 0 641 910" version="1.1" xmlns="http://www.w3.org/2000/svg" xmlns:xlink="http://www.w3.org/1999/xlink">
<defs>
<clipPath id="c0_15"><path d="M0,909.8V0H641.7V909.8Z"/></clipPath>
<clipPath id="c1_15"><path d="M0,908.6V0H641.7V908.6Z"/></clipPath>
<style type="text/css"><![CDATA[
.g0_15{
fill: #FFFFFF;
}
.g1_15{
}
]]></style>
</defs>
<path d="M0,0H641.7V909.8H0V0Z" class="g0_15"/>
<path d="M0,0H641.7V909.8H0V0Z" class="g0_15"/>
<g clip-path="url(#c0_15)">
<path d="M0,-7278.2H641.7V99167.3H0V-7278.2Z" class="g0_15"/>
</g>
<path d="M0,0H641.7V908.6H0V0Z" class="g0_15"/>
<path d="M19.5,60.7H602.7v1.2H19.5V60.7Z" class="g1_15"/>
<g clip-path="url(#c1_15)">
<path d="M0,61.9H641.7V909.8H0V61.9Z" class="g0_15"/>
<g fill="#000000" >
<use xlink:href="#f5_ef" transform="matrix(14,0,0,14,224.9,96.3)" />
<use xlink:href="#f5_cv" transform="matrix(14,0,0,14,240.8,96.3)" />
<use xlink:href="#f5_by" transform="matrix(14,0,0,14,253,96.3)" />
<use xlink:href="#f5_d5" transform="matrix(14,0,0,14,267.9,96.3)" />
<use xlink:href="#f5_n0" transform="matrix(14,0,0,14,267.9,96.3)" />
<use xlink:href="#f5_bg" transform="matrix(14,0,0,14,283.8,96.3)" />
<use xlink:href="#f5_cv" transform="matrix(14,0,0,14,299.7,96.3)" />
<use xlink:href="#f5_b9" transform="matrix(14,0,0,14,311.9,96.3)" />
<use xlink:href="#f5_oc" transform="matrix(14,0,0,14,329.3,96.3)" />
<use xlink:href="#f5_am" transform="matrix(14,0,0,14,341.4,96.3)" />
<use xlink:href="#f5_c1" transform="matrix(14,0,0,14,366.3,96.3)" />
<use xlink:href="#f5_bp" transform="matrix(14,0,0,14,376.5,96.3)" />
<use xlink:href="#f5_cv" transform="matrix(14,0,0,14,389.9,96.3)" />
<use xlink:href="#f6_nq" transform="matrix(14,0,0,14,151.6,154.7)" />
<use xlink:href="#f6_bg" transform="matrix(14,0,0,14,178.3,154.7)" />
<use xlink:href="#f6_c0" transform="matrix(14,0,0,14,192.5,154.7)" />
<use xlink:href="#f6_bg" transform="matrix(14,0,0,14,210.7,154.7)" />
<use xlink:href="#f6_c0" transform="matrix(14,0,0,14,225,154.7)" />
<use xlink:href="#f6_bg" transform="matrix(14,0,0,14,243.2,154.7)" />
<use xlink:href="#f6_c0" transform="matrix(14,0,0,14,257.5,154.7)" />
<use xlink:href="#f6_b9" transform="matrix(14,0,0,14,270,154.7)" />
<use xlink:href="#f6_ct" transform="matrix(14,0,0,14,285.5,154.7)" />
<use xlink:href="#f6_c1" transform="matrix(14,0,0,14,291.1,154.7)" />
<use xlink:href="#f6_ct" transform="matrix(14,0,0,14,299.5,154.7)" />
<use xlink:href="#f6_c7" transform="matrix(14,0,0,14,310.8,154.7)" />
<use xlink:href="#f6_ct" transform="matrix(14,0,0,14,322.9,154.7)" />
<use xlink:href="#f6_nr" transform="matrix(14,0,0,14,328.5,154.7)" />
<use xlink:href="#f6_c1" transform="matrix(14,0,0,14,334.1,154.7)" />
<use xlink:href="#f6_bg" transform="matrix(14,0,0,14,348.2,154.7)" />
<use xlink:href="#f6_c0" transform="matrix(14,0,0,14,362.4,154.7)" />
<use xlink:href="#f6_bg" transform="matrix(14,0,0,14,380.6,154.7)" />
<use xlink:href="#f6_c0" transform="matrix(14,0,0,14,394.9,154.7)" />
<use xlink:href="#f6_bh" transform="matrix(14,0,0,14,413.1,154.7)" />
<use xlink:href="#f6_dj" transform="matrix(14,0,0,14,424,155.1)" />
<use xlink:href="#f6_b9" transform="matrix(14,0,0,14,429.9,154.7)" />
<use xlink:href="#f6_ct" transform="matrix(14,0,0,14,445.4,154.7)" />
<use xlink:href="#f6_c1" transform="matrix(14,0,0,14,451,154.7)" />
<use xlink:href="#f6_ct" transform="matrix(14,0,0,14,459.4,154.7)" />
<use xlink:href="#f6_k" transform="matrix(14,0,0,14,465,154.7)" />
<use xlink:href="#f6_am" transform="matrix(14,0,0,14,139,187.9)" />
<use xlink:href="#f6_c1" transform="matrix(14,0,0,14,160.4,187.9)" />
<use xlink:href="#f6_bp" transform="matrix(14,0,0,14,168.8,187.9)" />
<use xlink:href="#f6_cv" transform="matrix(14,0,0,14,181.1,187.9)" />
<use xlink:href="#f6_ap" transform="matrix(14,0,0,14,192.4,187.9)" />
<use xlink:href="#f6_bp" transform="matrix(14,0,0,14,203.8,187.9)" />
<use xlink:href="#f6_ct" transform="matrix(14,0,0,14,216.1,187.9)" />
<use xlink:href="#f6_c1" transform="matrix(14,0,0,14,221.7,187.9)" />
<use xlink:href="#f6_d8" transform="matrix(14,0,0,14,230.1,187.9)" />
<use xlink:href="#f6_by" transform="matrix(14,0,0,14,241.4,187.9)" />
<use xlink:href="#f6_cu" transform="matrix(14,0,0,14,255.3,187.9)" />
<use xlink:href="#f6_c7" transform="matrix(14,0,0,14,261,187.9)" />
<use xlink:href="#f6_bg" transform="matrix(14,0,0,14,273,187.9)" />
<use xlink:href="#f6_bt" transform="matrix(14,0,0,14,287.3,187.9)" />
<use xlink:href="#f6_nt" transform="matrix(14,0,0,14,304.7,187.9)" />
<use xlink:href="#f6_bz" transform="matrix(14,0,0,14,310.3,187.9)" />
<use xlink:href="#f6_c3" transform="matrix(14,0,0,14,323.6,187.9)" />
<use xlink:href="#f6_b9" transform="matrix(14,0,0,14,344,187.9)" />
<use xlink:href="#f6_c1" transform="matrix(14,0,0,14,359.5,187.9)" />
<use xlink:href="#f6_by" transform="matrix(14,0,0,14,373.6,187.9)" />
<use xlink:href="#f6_d5" transform="matrix(14,0,0,14,387.7,187.9)" />
<use xlink:href="#f6_c1" transform="matrix(14,0,0,14,387.5,187.9)" />
<use xlink:href="#f6_c7" transform="matrix(14,0,0,14,395.9,187.9)" />
<use xlink:href="#f6_c1" transform="matrix(14,0,0,14,413.6,187.9)" />
<use xlink:href="#f6_ba" transform="matrix(14,0,0,14,422,187.9)" />
<use xlink:href="#f6_c7" transform="matrix(14,0,0,14,438.7,187.9)" />
<use xlink:href="#f6_ct" transform="matrix(14,0,0,14,450.8,187.9)" />
<use xlink:href="#f6_c3" transform="matrix(14,0,0,14,456.4,187.9)" />
<use xlink:href="#f6_ct" transform="matrix(14,0,0,14,471.1,187.9)" />
<use xlink:href="#f6_k" transform="matrix(14,0,0,14,476.8,187.9)" />
<use xlink:href="#f6_c7" transform="matrix(14,0,0,14,140.1,221.1)" />
<use xlink:href="#f6_ct" transform="matrix(14,0,0,14,152.2,221.1)" />
<use xlink:href="#f6_nr" transform="matrix(14,0,0,14,157.8,221.1)" />
<use xlink:href="#f6_c1" transform="matrix(14,0,0,14,163.4,221.1)" />
<use xlink:href="#f6_bg" transform="matrix(14,0,0,14,177.5,221.1)" />
<use xlink:href="#f6_cv" transform="matrix(14,0,0,14,191.7,221.1)" />
<use xlink:href="#f6_c7" transform="matrix(14,0,0,14,197.3,221.1)" />
<use xlink:href="#f6_bt" transform="matrix(14,0,0,14,209.4,221.1)" />
<use xlink:href="#f6_c1" transform="matrix(14,0,0,14,226.8,221.1)" />
<use xlink:href="#f6_ba" transform="matrix(14,0,0,14,235.2,221.1)" />
<use xlink:href="#f6_c7" transform="matrix(14,0,0,14,251.9,221.1)" />
<use xlink:href="#f6_ct" transform="matrix(14,0,0,14,264,221.1)" />
<use xlink:href="#f6_c3" transform="matrix(14,0,0,14,269.6,221.1)" />
<use xlink:href="#f6_ct" transform="matrix(14,0,0,14,284.3,221.1)" />
<use xlink:href="#f6_ng" transform="matrix(14,0,0,14,295.6,221.1)" />
<use xlink:href="#f6_nq" transform="matrix(14,0,0,14,310.6,221.1)" />
<use xlink:href="#f6_bg" transform="matrix(14,0,0,14,343,221.1)" />
<use xlink:href="#f6_c0" transform="matrix(14,0,0,14,357.2,221.1)" />
<use xlink:href="#f6_bg" transform="matrix(14,0,0,14,375.5,221.1)" />
<use xlink:href="#f6_c0" transform="matrix(14,0,0,14,389.7,221.1)" />
<use xlink:href="#f6_bg" transform="matrix(14,0,0,14,407.9,221.1)" />
<use xlink:href="#f6_c0" transform="matrix(14,0,0,14,422.2,221.1)" />
<use xlink:href="#f6_b9" transform="matrix(14,0,0,14,434.7,221.1)" />
<use xlink:href="#f6_ct" transform="matrix(14,0,0,14,450.2,221.1)" />
<use xlink:href="#f6_c1" transform="matrix(14,0,0,14,455.9,221.1)" />
<use xlink:href="#f6_ct" transform="matrix(14,0,0,14,464.2,221.1)" />
<use xlink:href="#f6_2s" transform="matrix(14,0,0,14,475.5,221.1)" />
<use xlink:href="#f6_bp" transform="matrix(14,0,0,14,112.6,279.6)" />
<use xlink:href="#f6_cx" transform="matrix(14,0,0,14,124.9,279.5)" />
<use xlink:href="#f6_dj" transform="matrix(14,0,0,14,122,280)" />
<use xlink:href="#f6_cb" transform="matrix(14,0,0,14,130.6,279.6)" />
<use xlink:href="#f6_bz" transform="matrix(14,0,0,14,145.5,279.6)" />
<use xlink:href="#f6_cu" transform="matrix(14,0,0,14,158.8,279.6)" />
<use xlink:href="#f6_b9" transform="matrix(14,0,0,14,164.4,279.6)" />
<use xlink:href="#f6_bp" transform="matrix(14,0,0,14,179.9,279.6)" />
<use xlink:href="#f6_cv" transform="matrix(14,0,0,14,192.2,279.6)" />
<use xlink:href="#f6_cb" transform="matrix(14,0,0,14,203.5,279.6)" />
<use xlink:href="#f6_cw" transform="matrix(14,0,0,14,218.9,279.5)" />
<use xlink:href="#f6_c1" transform="matrix(14,0,0,14,218.4,279.6)" />
<use xlink:href="#f6_bt" transform="matrix(14,0,0,14,226.8,279.6)" />
<use xlink:href="#f6_c1" transform="matrix(14,0,0,14,238.5,279.6)" />
<use xlink:href="#f6_bz" transform="matrix(14,0,0,14,252.5,279.6)" />
<use xlink:href="#f6_bt" transform="matrix(14,0,0,14,265.9,279.6)" />
<use xlink:href="#f6_bz" transform="matrix(14,0,0,14,283.2,279.6)" />
<use xlink:href="#f6_d8" transform="matrix(14,0,0,14,296.6,279.6)" />
<use xlink:href="#f6_cc" transform="matrix(14,0,0,14,302.2,279.6)" />
<use xlink:href="#f6_b9" transform="matrix(14,0,0,14,313.8,279.6)" />
<use xlink:href="#f6_k" transform="matrix(14,0,0,14,329.3,279.6)" />
<use xlink:href="#f6_bz" transform="matrix(14,0,0,14,340.2,279.6)" />
<use xlink:href="#f6_dj" transform="matrix(14,0,0,14,347.7,280)" />
<use xlink:href="#f6_bb" transform="matrix(14,0,0,14,353.5,279.6)" />
<use xlink:href="#f6_c3" transform="matrix(14,0,0,14,366.1,279.6)" />
<use xlink:href="#f6_cu" transform="matrix(14,0,0,14,386.5,279.6)" />
<use xlink:href="#f6_bt" transform="matrix(14,0,0,14,392.1,279.6)" />
<use xlink:href="#f6_bp" transform="matrix(14,0,0,14,403.9,279.6)" />
<use xlink:href="#f6_b9" transform="matrix(14,0,0,14,416.2,279.6)" />
<use xlink:href="#f6_ct" transform="matrix(14,0,0,14,431.7,279.6)" />
<use xlink:href="#f6_c1" transform="matrix(14,0,0,14,437.3,279.6)" />
<use xlink:href="#f6_ct" transform="matrix(14,0,0,14,445.7,279.6)" />
<use xlink:href="#f6_g" transform="matrix(14,0,0,14,457,279.6)" />
<use xlink:href="#f6_c7" transform="matrix(14,0,0,14,462.8,279.6)" />
<use xlink:href="#f6_ct" transform="matrix(14,0,0,14,474.9,279.6)" />
<use xlink:href="#f6_pc" transform="matrix(14,0,0,14,480.5,279.6)" />
<use xlink:href="#f6_bz" transform="matrix(14,0,0,14,484.8,279.6)" />
<use xlink:href="#f6_pc" transform="matrix(14,0,0,14,498.2,279.6)" />
<use xlink:href="#f6_h" transform="matrix(14,0,0,14,502.4,279.6)" />
<use xlink:href="#f6_ef" transform="matrix(14,0,0,14,111.5,312.8)" />
<use xlink:href="#f6_cv" transform="matrix(14,0,0,14,125.6,312.8)" />
<use xlink:href="#f6_bt" transform="matrix(14,0,0,14,136.9,312.8)" />
<use xlink:href="#f6_ct" transform="matrix(14,0,0,14,148.6,312.8)" />
<use xlink:href="#f6_b9" transform="matrix(14,0,0,14,154.3,312.8)" />
<use xlink:href="#f6_d8" transform="matrix(14,0,0,14,169.8,312.8)" />
<use xlink:href="#f6_ch" transform="matrix(14,0,0,14,175.4,312.8)" />
<use xlink:href="#f6_ct" transform="matrix(14,0,0,14,188.1,312.8)" />
<use xlink:href="#f6_by" transform="matrix(14,0,0,14,199.4,312.8)" />
<use xlink:href="#f6_d5" transform="matrix(14,0,0,14,213.4,312.8)" />
<use xlink:href="#f6_c1" transform="matrix(14,0,0,14,213.3,312.8)" />
<use xlink:href="#f6_c7" transform="matrix(14,0,0,14,221.7,312.8)" />
<use xlink:href="#f6_cb" transform="matrix(14,0,0,14,239.4,312.8)" />
<use xlink:href="#f6_cw" transform="matrix(14,0,0,14,254.9,312.7)" />
<use xlink:href="#f6_lj" transform="matrix(14,0,0,14,254.3,312.8)" />
<use xlink:href="#f6_br" transform="matrix(14,0,0,14,260.1,312.8)" />
<use xlink:href="#f6_c1" transform="matrix(14,0,0,14,271.8,312.8)" />
<use xlink:href="#f6_k" transform="matrix(14,0,0,14,280.2,312.8)" />
<use xlink:href="#f6_bg" transform="matrix(14,0,0,14,291,312.8)" />
<use xlink:href="#f6_bt" transform="matrix(14,0,0,14,305.3,312.8)" />
<use xlink:href="#f6_bz" transform="matrix(14,0,0,14,317,312.8)" />
<use xlink:href="#f6_bt" transform="matrix(14,0,0,14,330.4,312.8)" />
<use xlink:href="#f6_cc" transform="matrix(14,0,0,14,347.7,312.8)" />
<use xlink:href="#f6_c1" transform="matrix(14,0,0,14,359.3,312.8)" />
<use xlink:href="#f6_bt" transform="matrix(14,0,0,14,367.7,312.8)" />
<use xlink:href="#f6_ct" transform="matrix(14,0,0,14,379.4,312.8)" />
<use xlink:href="#f6_c1" transform="matrix(14,0,0,14,385.1,312.8)" />
<use xlink:href="#f6_ct" transform="matrix(14,0,0,14,393.4,312.8)" />
<use xlink:href="#f6_g" transform="matrix(14,0,0,14,404.7,312.8)" />
<use xlink:href="#f6_c7" transform="matrix(14,0,0,14,410.6,312.8)" />
<use xlink:href="#f6_ct" transform="matrix(14,0,0,14,422.7,312.8)" />
<use xlink:href="#f6_pc" transform="matrix(14,0,0,14,428.3,312.8)" />
<use xlink:href="#f6_bg" transform="matrix(14,0,0,14,432.6,312.8)" />
<use xlink:href="#f6_pc" transform="matrix(14,0,0,14,446.8,312.8)" />
<use xlink:href="#f6_h" transform="matrix(14,0,0,14,451.1,312.8)" />
<use xlink:href="#f6_ng" transform="matrix(14,0,0,14,462.6,312.8)" />
<use xlink:href="#f6_ng" transform="matrix(14,0,0,14,472,312.8)" />
<use xlink:href="#f6_n7" transform="matrix(14,0,0,14,481.4,312.8)" />
<use xlink:href="#f6_ng" transform="matrix(14,0,0,14,490.6,312.8)" />
<use xlink:href="#f6_ng" transform="matrix(14,0,0,14,500,312.8)" />
<use xlink:href="#f6_ba" transform="matrix(14,0,0,14,120.6,371.3)" />
<use xlink:href="#f6_bm" transform="matrix(14,0,0,14,137.3,371.3)" />
<use xlink:href="#f6_bb" transform="matrix(14,0,0,14,150,371.3)" />
<use xlink:href="#f6_cu" transform="matrix(14,0,0,14,168.3,371.3)" />
<use xlink:href="#f6_e1" transform="matrix(14,0,0,14,173.9,371.3)" />
<use xlink:href="#f6_c8" transform="matrix(14,0,0,14,186,371.3)" />
<use xlink:href="#f6_cw" transform="matrix(14,0,0,14,202.4,372.6)" />
<use xlink:href="#f6_c3" transform="matrix(14,0,0,14,201.8,371.3)" />
<use xlink:href="#f6_nl" transform="matrix(14,0,0,14,216.5,371.3)" />
<use xlink:href="#f6_bs" transform="matrix(14,0,0,14,216.5,371.3)" />
<use xlink:href="#f6_c1" transform="matrix(14,0,0,14,230.5,371.3)" />
<use xlink:href="#f6_ba" transform="matrix(14,0,0,14,244.6,371.3)" />
<use xlink:href="#f6_ll" transform="matrix(14,0,0,14,261.3,371.3)" />
<use xlink:href="#f6_bv" transform="matrix(14,0,0,14,267.5,371.3)" />
<use xlink:href="#f6_c1" transform="matrix(14,0,0,14,279.4,371.3)" />
<use xlink:href="#f6_cb" transform="matrix(14,0,0,14,293.4,371.3)" />
<use xlink:href="#f6_d8" transform="matrix(14,0,0,14,308.3,371.3)" />
<use xlink:href="#f6_cc" transform="matrix(14,0,0,14,313.9,371.3)" />
<use xlink:href="#f6_d4" transform="matrix(14,0,0,14,325.9,371.3)" />
<use xlink:href="#f6_k" transform="matrix(14,0,0,14,325.5,371.3)" />
<use xlink:href="#f6_bm" transform="matrix(14,0,0,14,336.4,371.3)" />
<use xlink:href="#f6_bz" transform="matrix(14,0,0,14,349.1,371.3)" />
<use xlink:href="#f6_n0" transform="matrix(14,0,0,14,362.4,371.3)" />
<use xlink:href="#f6_b9" transform="matrix(14,0,0,14,381.2,371.3)" />
<use xlink:href="#f6_c1" transform="matrix(14,0,0,14,396.7,371.3)" />
<use xlink:href="#f6_bs" transform="matrix(14,0,0,14,410.8,371.3)" />
<use xlink:href="#f6_ct" transform="matrix(14,0,0,14,424.8,371.3)" />
<use xlink:href="#f6_c1" transform="matrix(14,0,0,14,430.4,371.3)" />
<use xlink:href="#f6_ct" transform="matrix(14,0,0,14,438.8,371.3)" />
<use xlink:href="#f6_g" transform="matrix(14,0,0,14,450.1,371.3)" />
<use xlink:href="#f6_c7" transform="matrix(14,0,0,14,456,371.3)" />
<use xlink:href="#f6_ct" transform="matrix(14,0,0,14,468,371.3)" />
<use xlink:href="#f6_pc" transform="matrix(14,0,0,14,473.7,371.3)" />
<use xlink:href="#f6_bm" transform="matrix(14,0,0,14,477.9,371.3)" />
<use xlink:href="#f6_pc" transform="matrix(14,0,0,14,490.6,371.3)" />
<use xlink:href="#f6_h" transform="matrix(14,0,0,14,494.9,371.3)" />
<use xlink:href="#f6_al" transform="matrix(14,0,0,14,85.1,404.5)" />
<use xlink:href="#f6_br" transform="matrix(14,0,0,14,101,404.5)" />
<use xlink:href="#f6_by" transform="matrix(14,0,0,14,112.6,404.5)" />
<use xlink:href="#f6_cx" transform="matrix(14,0,0,14,126.5,404.4)" />
<use xlink:href="#f6_bp" transform="matrix(14,0,0,14,126.6,404.5)" />
<use xlink:href="#f6_n0" transform="matrix(14,0,0,14,144.6,404.5)" />
<use xlink:href="#f6_bv" transform="matrix(14,0,0,14,157.7,404.5)" />
<use xlink:href="#f6_al" transform="matrix(14,0,0,14,175.2,404.5)" />
<use xlink:href="#f6_bt" transform="matrix(14,0,0,14,191.1,404.5)" />
<use xlink:href="#f6_d8" transform="matrix(14,0,0,14,202.8,404.5)" />
<use xlink:href="#f6_ba" transform="matrix(14,0,0,14,208.4,404.5)" />
<use xlink:href="#f6_cv" transform="matrix(14,0,0,14,225.2,404.5)" />
<use xlink:href="#f6_c1" transform="matrix(14,0,0,14,236.4,404.5)" />
<use xlink:href="#f6_be" transform="matrix(14,0,0,14,244.8,404.5)" />
<use xlink:href="#f6_bt" transform="matrix(14,0,0,14,258.8,404.5)" />
<use xlink:href="#f6_ct" transform="matrix(14,0,0,14,270.5,404.5)" />
<use xlink:href="#f6_k" transform="matrix(14,0,0,14,276.1,404.5)" />
<use xlink:href="#f6_bz" transform="matrix(14,0,0,14,287,404.5)" />
<use xlink:href="#f6_cw" transform="matrix(14,0,0,14,300.9,404.4)" />
<use xlink:href="#f6_b9" transform="matrix(14,0,0,14,300.4,404.5)" />
<use xlink:href="#f6_cw" transform="matrix(14,0,0,14,311.5,404.4)" />
<use xlink:href="#f6_bk" transform="matrix(14,0,0,14,315.9,404.5)" />
<use xlink:href="#f6_b9" transform="matrix(14,0,0,14,333.1,404.5)" />
<use xlink:href="#f6_cw" transform="matrix(14,0,0,14,344.2,404.4)" />
<use xlink:href="#f6_lc" transform="matrix(14,0,0,14,348.6,404.5)" />
<use xlink:href="#f6_bm" transform="matrix(14,0,0,14,357,404.5)" />
<use xlink:href="#f6_c3" transform="matrix(14,0,0,14,369.6,404.5)" />
<use xlink:href="#f6_cb" transform="matrix(14,0,0,14,390,404.5)" />
<use xlink:href="#f6_ct" transform="matrix(14,0,0,14,404.9,404.5)" />
<use xlink:href="#f6_c1" transform="matrix(14,0,0,14,410.5,404.5)" />
<use xlink:href="#f6_ct" transform="matrix(14,0,0,14,418.9,404.5)" />
<use xlink:href="#f6_g" transform="matrix(14,0,0,14,430.2,404.5)" />
<use xlink:href="#f6_c7" transform="matrix(14,0,0,14,436.1,404.5)" />
<use xlink:href="#f6_ct" transform="matrix(14,0,0,14,448.1,404.5)" />
<use xlink:href="#f6_pc" transform="matrix(14,0,0,14,453.8,404.5)" />
<use xlink:href="#f6_bg" transform="matrix(14,0,0,14,458,404.5)" />
<use xlink:href="#f6_pc" transform="matrix(14,0,0,14,472.3,404.5)" />
<use xlink:href="#f6_h" transform="matrix(14,0,0,14,476.6,404.5)" />
<use xlink:href="#f6_ng" transform="matrix(14,0,0,14,488.1,404.5)" />
<use xlink:href="#f6_ng" transform="matrix(14,0,0,14,497.5,404.5)" />
<use xlink:href="#f6_n8" transform="matrix(14,0,0,14,506.8,404.5)" />
<use xlink:href="#f6_ng" transform="matrix(14,0,0,14,517.2,404.5)" />
<use xlink:href="#f6_ng" transform="matrix(14,0,0,14,526.6,404.5)" />
<use xlink:href="#f6_nq" transform="matrix(14,0,0,14,127.5,462.9)" />
<use xlink:href="#f6_ei" transform="matrix(14,0,0,14,154.2,462.9)" />
<use xlink:href="#f6_cv" transform="matrix(14,0,0,14,166,462.9)" />
<use xlink:href="#f6_dj" transform="matrix(14,0,0,14,170.7,463.8)" />
<use xlink:href="#f6_eq" transform="matrix(14,0,0,14,177.3,462.9)" />
<use xlink:href="#f6_ct" transform="matrix(14,0,0,14,192.3,462.9)" />
<use xlink:href="#f6_dj" transform="matrix(14,0,0,14,192.5,463.3)" />
<use xlink:href="#f6_eq" transform="matrix(14,0,0,14,203.6,462.9)" />
<use xlink:href="#f6_dk" transform="matrix(14,0,0,14,218.5,462.9)" />
<use xlink:href="#f6_bz" transform="matrix(14,0,0,14,228.8,462.9)" />
<use xlink:href="#f6_dj" transform="matrix(14,0,0,14,236.2,463.3)" />
<use xlink:href="#f6_e1" transform="matrix(14,0,0,14,242.1,462.9)" />
<use xlink:href="#f6_bx" transform="matrix(14,0,0,14,259.8,462.9)" />
<use xlink:href="#f6_cv" transform="matrix(14,0,0,14,272.1,462.9)" />
<use xlink:href="#f6_bg" transform="matrix(14,0,0,14,277.7,462.9)" />
<use xlink:href="#f6_c0" transform="matrix(14,0,0,14,297.7,462.9)" />
<use xlink:href="#f6_cw" transform="matrix(14,0,0,14,310.7,462.8)" />
<use xlink:href="#f6_bp" transform="matrix(14,0,0,14,310.2,462.9)" />
<use xlink:href="#f6_k" transform="matrix(14,0,0,14,322.5,462.9)" />
<use xlink:href="#f6_bt" transform="matrix(14,0,0,14,333.4,462.9)" />
<use xlink:href="#f6_ct" transform="matrix(14,0,0,14,345.1,462.9)" />
<use xlink:href="#f6_bz" transform="matrix(14,0,0,14,350.7,462.9)" />
<use xlink:href="#f6_bg" transform="matrix(14,0,0,14,369.7,462.9)" />
<use xlink:href="#f6_bv" transform="matrix(14,0,0,14,384,462.9)" />
<use xlink:href="#f6_d4" transform="matrix(14,0,0,14,396,462.9)" />
<use xlink:href="#f6_bp" transform="matrix(14,0,0,14,401.5,462.9)" />
<use xlink:href="#f6_ct" transform="matrix(14,0,0,14,413.8,462.9)" />
<use xlink:href="#f6_c1" transform="matrix(14,0,0,14,419.5,462.9)" />
<use xlink:href="#f6_ct" transform="matrix(14,0,0,14,427.8,462.9)" />
<use xlink:href="#f6_g" transform="matrix(14,0,0,14,439.1,462.9)" />
<use xlink:href="#f6_c7" transform="matrix(14,0,0,14,445,462.9)" />
<use xlink:href="#f6_ct" transform="matrix(14,0,0,14,457.1,462.9)" />
<use xlink:href="#f6_pc" transform="matrix(14,0,0,14,462.7,462.9)" />
<use xlink:href="#f6_bt" transform="matrix(14,0,0,14,467,462.9)" />
<use xlink:href="#f6_ct" transform="matrix(14,0,0,14,478.7,462.9)" />
<use xlink:href="#f6_pc" transform="matrix(14,0,0,14,484.3,462.9)" />
<use xlink:href="#f6_h" transform="matrix(14,0,0,14,488.6,462.9)" />
<use xlink:href="#f6_ar" transform="matrix(14,0,0,14,77.1,496.1)" />
<use xlink:href="#f6_nu" transform="matrix(14,0,0,14,94.4,496.1)" />
<use xlink:href="#f6_ge" transform="matrix(14,0,0,14,100,496.1)" />
<use xlink:href="#f6_nu" transform="matrix(14,0,0,14,120.8,496.1)" />
<use xlink:href="#f6_cb" transform="matrix(14,0,0,14,126.4,496.1)" />
<use xlink:href="#f6_nu" transform="matrix(14,0,0,14,141.3,496.1)" />
<use xlink:href="#f6_ge" transform="matrix(14,0,0,14,146.9,496.1)" />
<use xlink:href="#f6_al" transform="matrix(14,0,0,14,167.7,496.1)" />
<use xlink:href="#f6_n0" transform="matrix(14,0,0,14,183.6,496.1)" />
<use xlink:href="#f6_cb" transform="matrix(14,0,0,14,202.4,496.1)" />
<use xlink:href="#f6_lq" transform="matrix(14,0,0,14,217.3,496.1)" />
<use xlink:href="#f6_bv" transform="matrix(14,0,0,14,224.1,496.1)" />
<use xlink:href="#f6_br" transform="matrix(14,0,0,14,236,496.1)" />
<use xlink:href="#f6_bz" transform="matrix(14,0,0,14,253.3,496.1)" />
<use xlink:href="#f6_bt" transform="matrix(14,0,0,14,266.7,496.1)" />
<use xlink:href="#f6_d8" transform="matrix(14,0,0,14,278.4,496.1)" />
<use xlink:href="#f6_cc" transform="matrix(14,0,0,14,284,496.1)" />
<use xlink:href="#f6_c1" transform="matrix(14,0,0,14,295.6,496.1)" />
<use xlink:href="#f6_k" transform="matrix(14,0,0,14,304,496.1)" />
<use xlink:href="#f6_bg" transform="matrix(14,0,0,14,314.9,496.1)" />
<use xlink:href="#f6_cv" transform="matrix(14,0,0,14,329.2,496.1)" />
<use xlink:href="#f6_c7" transform="matrix(14,0,0,14,334.8,496.1)" />
<use xlink:href="#f6_bt" transform="matrix(14,0,0,14,346.9,496.1)" />
<use xlink:href="#f6_cb" transform="matrix(14,0,0,14,364.2,496.1)" />
<use xlink:href="#f6_cw" transform="matrix(14,0,0,14,379.6,496.1)" />
<use xlink:href="#f6_ba" transform="matrix(14,0,0,14,379.1,496.1)" />
<use xlink:href="#f6_b9" transform="matrix(14,0,0,14,395.8,496.1)" />
<use xlink:href="#f6_ct" transform="matrix(14,0,0,14,411.3,496.1)" />
<use xlink:href="#f6_c1" transform="matrix(14,0,0,14,416.9,496.1)" />
<use xlink:href="#f6_ct" transform="matrix(14,0,0,14,425.3,496.1)" />
<use xlink:href="#f6_g" transform="matrix(14,0,0,14,436.6,496.1)" />
<use xlink:href="#f6_c7" transform="matrix(14,0,0,14,442.5,496.1)" />
<use xlink:href="#f6_ct" transform="matrix(14,0,0,14,454.6,496.1)" />
<use xlink:href="#f6_pc" transform="matrix(14,0,0,14,460.2,496.1)" />
<use xlink:href="#f6_bg" transform="matrix(14,0,0,14,464.5,496.1)" />
<use xlink:href="#f6_dj" transform="matrix(14,0,0,14,475.8,496.6)" />
<use xlink:href="#f6_pc" transform="matrix(14,0,0,14,478.7,496.1)" />
<use xlink:href="#f6_h" transform="matrix(14,0,0,14,483,496.1)" />
<use xlink:href="#f6_ng" transform="matrix(14,0,0,14,494.5,496.1)" />
<use xlink:href="#f6_ng" transform="matrix(14,0,0,14,503.9,496.1)" />
<use xlink:href="#f6_n9" transform="matrix(14,0,0,14,513.3,496.1)" />
<use xlink:href="#f6_ng" transform="matrix(14,0,0,14,524.4,496.1)" />
<use xlink:href="#f6_ng" transform="matrix(14,0,0,14,533.8,496.1)" />
<use xlink:href="#f6_b9" transform="matrix(14,0,0,14,108,554.6)" />
<use xlink:href="#f6_cw" transform="matrix(14,0,0,14,119.1,554.5)" />
<use xlink:href="#f6_c8" transform="matrix(14,0,0,14,123.5,554.6)" />
<use xlink:href="#f6_c3" transform="matrix(14,0,0,14,139.4,554.6)" />
<use xlink:href="#f6_b9" transform="matrix(14,0,0,14,159.7,554.6)" />
<use xlink:href="#f6_c1" transform="matrix(14,0,0,14,175.2,554.6)" />
<use xlink:href="#f6_d4" transform="matrix(14,0,0,14,183.2,554.6)" />
<use xlink:href="#f6_bp" transform="matrix(14,0,0,14,189.3,554.6)" />
<use xlink:href="#f6_d4" transform="matrix(14,0,0,14,201.7,554.6)" />
<use xlink:href="#f6_c1" transform="matrix(14,0,0,14,201.6,554.6)" />
<use xlink:href="#f6_ct" transform="matrix(14,0,0,14,210,554.6)" />
<use xlink:href="#f6_bt" transform="matrix(14,0,0,14,221.3,554.6)" />
<use xlink:href="#f6_ct" transform="matrix(14,0,0,14,233,554.6)" />
<use xlink:href="#f6_bz" transform="matrix(14,0,0,14,238.6,554.6)" />
<use xlink:href="#f6_nu" transform="matrix(14,0,0,14,257.6,554.6)" />
<use xlink:href="#f6_c3" transform="matrix(14,0,0,14,263.2,554.6)" />
<use xlink:href="#f6_c0" transform="matrix(14,0,0,14,277.9,554.6)" />
<use xlink:href="#f6_ct" transform="matrix(14,0,0,14,290.5,554.6)" />
<use xlink:href="#f6_cu" transform="matrix(14,0,0,14,301.8,554.6)" />
<use xlink:href="#f6_bt" transform="matrix(14,0,0,14,307.4,554.6)" />
<use xlink:href="#f6_bp" transform="matrix(14,0,0,14,319.1,554.6)" />
<use xlink:href="#f6_k" transform="matrix(14,0,0,14,331.4,554.6)" />
<use xlink:href="#f6_am" transform="matrix(14,0,0,14,342.3,554.6)" />
<use xlink:href="#f6_bt" transform="matrix(14,0,0,14,363.8,554.6)" />
<use xlink:href="#f6_dj" transform="matrix(14,0,0,14,372.6,555)" />
<use xlink:href="#f6_br" transform="matrix(14,0,0,14,375.5,554.6)" />
<use xlink:href="#f6_b9" transform="matrix(14,0,0,14,392.8,554.6)" />
<use xlink:href="#f6_c1" transform="matrix(14,0,0,14,408.3,554.6)" />
<use xlink:href="#f6_bt" transform="matrix(14,0,0,14,416.7,554.6)" />
<use xlink:href="#f6_ct" transform="matrix(14,0,0,14,428.4,554.6)" />
<use xlink:href="#f6_c1" transform="matrix(14,0,0,14,434.1,554.6)" />
<use xlink:href="#f6_ct" transform="matrix(14,0,0,14,442.4,554.6)" />
<use xlink:href="#f6_g" transform="matrix(14,0,0,14,453.7,554.6)" />
<use xlink:href="#f6_c7" transform="matrix(14,0,0,14,459.6,554.6)" />
<use xlink:href="#f6_ct" transform="matrix(14,0,0,14,471.7,554.6)" />
<use xlink:href="#f6_pc" transform="matrix(14,0,0,14,477.3,554.6)" />
<use xlink:href="#f6_am" transform="matrix(14,0,0,14,481.6,554.6)" />
<use xlink:href="#f6_pc" transform="matrix(14,0,0,14,503.1,554.6)" />
<use xlink:href="#f6_h" transform="matrix(14,0,0,14,507.3,554.6)" />
<use xlink:href="#f6_c1" transform="matrix(14,0,0,14,88.5,587.8)" />
<use xlink:href="#f6_d8" transform="matrix(14,0,0,14,96.9,587.8)" />
<use xlink:href="#f6_bb" transform="matrix(14,0,0,14,102.5,587.8)" />
<use xlink:href="#f6_c8" transform="matrix(14,0,0,14,120.8,587.8)" />
<use xlink:href="#f6_d8" transform="matrix(14,0,0,14,136.7,587.8)" />
<use xlink:href="#f6_b9" transform="matrix(14,0,0,14,142.3,587.8)" />
<use xlink:href="#f6_mv" transform="matrix(14,0,0,14,163.5,587.8)" />
<use xlink:href="#f6_y" transform="matrix(14,0,0,14,175.2,587.8)" />
<use xlink:href="#f6_ba" transform="matrix(14,0,0,14,182.2,587.8)" />
<use xlink:href="#f6_br" transform="matrix(14,0,0,14,204.6,587.8)" />
<use xlink:href="#f6_ct" transform="matrix(14,0,0,14,216.3,587.8)" />
<use xlink:href="#f6_nr" transform="matrix(14,0,0,14,221.9,587.8)" />
<use xlink:href="#f6_c1" transform="matrix(14,0,0,14,227.5,587.8)" />
<use xlink:href="#f6_e3" transform="matrix(14,0,0,14,235.9,587.8)" />
<use xlink:href="#f6_cc" transform="matrix(14,0,0,14,253.6,587.8)" />
<use xlink:href="#f6_c1" transform="matrix(14,0,0,14,265.3,587.8)" />
<use xlink:href="#f6_bp" transform="matrix(14,0,0,14,273.6,587.8)" />
<use xlink:href="#f6_ct" transform="matrix(14,0,0,14,285.9,587.8)" />
<use xlink:href="#f6_k" transform="matrix(14,0,0,14,291.6,587.8)" />
<use xlink:href="#f6_c7" transform="matrix(14,0,0,14,302.5,587.8)" />
<use xlink:href="#f6_ct" transform="matrix(14,0,0,14,314.5,587.8)" />
<use xlink:href="#f6_dj" transform="matrix(14,0,0,14,314.7,588.2)" />
<use xlink:href="#f6_nu" transform="matrix(14,0,0,14,320.2,587.8)" />
<use xlink:href="#f6_bf" transform="matrix(14,0,0,14,325.8,587.8)" />
<use xlink:href="#f6_bp" transform="matrix(14,0,0,14,341.5,587.8)" />
<use xlink:href="#f6_br" transform="matrix(14,0,0,14,359.5,587.8)" />
<use xlink:href="#f6_ct" transform="matrix(14,0,0,14,371.1,587.8)" />
<use xlink:href="#f6_bp" transform="matrix(14,0,0,14,376.8,587.8)" />
<use xlink:href="#f6_ct" transform="matrix(14,0,0,14,389.1,587.8)" />
<use xlink:href="#f6_c1" transform="matrix(14,0,0,14,394.7,587.8)" />
<use xlink:href="#f6_ct" transform="matrix(14,0,0,14,403.1,587.8)" />
<use xlink:href="#f6_g" transform="matrix(14,0,0,14,414.4,587.8)" />
<use xlink:href="#f6_c7" transform="matrix(14,0,0,14,420.2,587.8)" />
<use xlink:href="#f6_ct" transform="matrix(14,0,0,14,432.3,587.8)" />
<use xlink:href="#f6_bg" transform="matrix(14,0,0,14,443.6,587.8)" />
<use xlink:href="#f6_dj" transform="matrix(14,0,0,14,455,588.2)" />
<use xlink:href="#f6_pc" transform="matrix(14,0,0,14,457.9,587.8)" />
<use xlink:href="#f6_h" transform="matrix(14,0,0,14,462.1,587.8)" />
<use xlink:href="#f6_ng" transform="matrix(14,0,0,14,473.7,587.8)" />
<use xlink:href="#f6_ng" transform="matrix(14,0,0,14,483,587.8)" />
<use xlink:href="#f6_na" transform="matrix(14,0,0,14,492.4,587.8)" />
<use xlink:href="#f6_ng" transform="matrix(14,0,0,14,503.6,587.8)" />
<use xlink:href="#f6_ng" transform="matrix(14,0,0,14,513,587.8)" />
<use xlink:href="#f6_ng" transform="matrix(14,0,0,14,522.4,587.8)" />
<use xlink:href="#f6_ef" transform="matrix(14,0,0,14,105.7,646.3)" />
<use xlink:href="#f6_cv" transform="matrix(14,0,0,14,119.9,646.3)" />
<use xlink:href="#f6_bw" transform="matrix(14,0,0,14,125.5,646.3)" />
<use xlink:href="#f6_c3" transform="matrix(14,0,0,14,141.6,646.3)" />
<use xlink:href="#f6_k" transform="matrix(14,0,0,14,156.3,646.3)" />
<use xlink:href="#f6_c3" transform="matrix(14,0,0,14,167.2,646.3)" />
<use xlink:href="#f6_ct" transform="matrix(14,0,0,14,181.9,646.3)" />
<use xlink:href="#f6_bv" transform="matrix(14,0,0,14,187.6,646.3)" />
<use xlink:href="#f6_cb" transform="matrix(14,0,0,14,199.4,646.3)" />
<use xlink:href="#f6_cv" transform="matrix(14,0,0,14,214.3,646.3)" />
<use xlink:href="#f6_k" transform="matrix(14,0,0,14,219.9,646.3)" />
<use xlink:href="#f6_bz" transform="matrix(14,0,0,14,230.8,646.3)" />
<use xlink:href="#f6_ct" transform="matrix(14,0,0,14,244.1,646.3)" />
<use xlink:href="#f6_bp" transform="matrix(14,0,0,14,249.8,646.3)" />
<use xlink:href="#f6_c1" transform="matrix(14,0,0,14,262.1,646.3)" />
<use xlink:href="#f6_k" transform="matrix(14,0,0,14,270.5,646.3)" />
<use xlink:href="#f6_cb" transform="matrix(14,0,0,14,281.3,646.3)" />
<use xlink:href="#f6_cw" transform="matrix(14,0,0,14,296.7,646.2)" />
<use xlink:href="#f6_ba" transform="matrix(14,0,0,14,296.2,646.3)" />
<use xlink:href="#f6_bm" transform="matrix(14,0,0,14,312.9,646.3)" />
<use xlink:href="#f6_cv" transform="matrix(14,0,0,14,325.6,646.3)" />
<use xlink:href="#f6_k" transform="matrix(14,0,0,14,331.2,646.3)" />
<use xlink:href="#f6_c3" transform="matrix(14,0,0,14,342.1,646.3)" />
<use xlink:href="#f6_g4" transform="matrix(14,0,0,14,356.8,646.3)" />
<use xlink:href="#f6_oe" transform="matrix(14,0,0,14,368.5,653.3)" />
<use xlink:href="#f6_k" transform="matrix(14,0,0,14,369.5,646.3)" />
<use xlink:href="#f6_bp" transform="matrix(14,0,0,14,380.4,646.3)" />
<use xlink:href="#f6_d4" transform="matrix(14,0,0,14,392.8,646.3)" />
<use xlink:href="#f6_c3" transform="matrix(14,0,0,14,392.7,646.3)" />
<use xlink:href="#f6_bs" transform="matrix(14,0,0,14,413.1,646.3)" />
<use xlink:href="#f6_ct" transform="matrix(14,0,0,14,427.1,646.3)" />
<use xlink:href="#f6_c1" transform="matrix(14,0,0,14,432.7,646.3)" />
<use xlink:href="#f6_ct" transform="matrix(14,0,0,14,441.1,646.3)" />
<use xlink:href="#f6_g" transform="matrix(14,0,0,14,452.3,646.3)" />
<use xlink:href="#f6_c7" transform="matrix(14,0,0,14,458.2,646.3)" />
<use xlink:href="#f6_ct" transform="matrix(14,0,0,14,470.3,646.3)" />
<use xlink:href="#f6_pc" transform="matrix(14,0,0,14,475.9,646.3)" />
<use xlink:href="#f6_c3" transform="matrix(14,0,0,14,480.2,646.3)" />
<use xlink:href="#f6_pc" transform="matrix(14,0,0,14,494.9,646.3)" />
<use xlink:href="#f6_h" transform="matrix(14,0,0,14,499.2,646.3)" />
<use xlink:href="#f6_ng" transform="matrix(14,0,0,14,505,646.3)" />
<use xlink:href="#f6_bs" transform="matrix(14,0,0,14,78.2,679.5)" />
<use xlink:href="#f6_cx" transform="matrix(14,0,0,14,92.2,679.4)" />
<use xlink:href="#f6_bv" transform="matrix(14,0,0,14,92.2,679.5)" />
<use xlink:href="#f6_k" transform="matrix(14,0,0,14,104.1,679.5)" />
<use xlink:href="#f6_br" transform="matrix(14,0,0,14,115,679.5)" />
<use xlink:href="#f6_ob" transform="matrix(14,0,0,14,126.6,679.5)" />
<use xlink:href="#f6_bv" transform="matrix(14,0,0,14,132.3,679.5)" />
<use xlink:href="#f6_k" transform="matrix(14,0,0,14,144.1,679.5)" />
<use xlink:href="#f6_bw" transform="matrix(14,0,0,14,155,679.5)" />
<use xlink:href="#f6_cx" transform="matrix(14,0,0,14,166,679.4)" />
<use xlink:href="#f6_c3" transform="matrix(14,0,0,14,171.1,679.5)" />
<use xlink:href="#f6_k" transform="matrix(14,0,0,14,185.8,679.5)" />
<use xlink:href="#f6_bz" transform="matrix(14,0,0,14,196.7,679.5)" />
<use xlink:href="#f6_ct" transform="matrix(14,0,0,14,210,679.5)" />
<use xlink:href="#f6_c3" transform="matrix(14,0,0,14,215.7,679.5)" />
<use xlink:href="#f6_k" transform="matrix(14,0,0,14,230.4,679.5)" />
<use xlink:href="#f6_am" transform="matrix(14,0,0,14,241.2,679.5)" />
<use xlink:href="#f6_c1" transform="matrix(14,0,0,14,262.7,679.5)" />
<use xlink:href="#f6_bp" transform="matrix(14,0,0,14,271.1,679.5)" />
<use xlink:href="#f6_cv" transform="matrix(14,0,0,14,283.4,679.5)" />
<use xlink:href="#f6_k" transform="matrix(14,0,0,14,289,679.5)" />
<use xlink:href="#f6_cu" transform="matrix(14,0,0,14,299.9,679.5)" />
<use xlink:href="#f6_bt" transform="matrix(14,0,0,14,305.5,679.5)" />
<use xlink:href="#f6_bp" transform="matrix(14,0,0,14,317.3,679.5)" />
<use xlink:href="#f6_bt" transform="matrix(14,0,0,14,335.2,679.5)" />
<use xlink:href="#f6_c0" transform="matrix(14,0,0,14,347,679.5)" />
<use xlink:href="#f6_d4" transform="matrix(14,0,0,14,359.6,679.5)" />
<use xlink:href="#f6_c1" transform="matrix(14,0,0,14,365.2,679.5)" />
<use xlink:href="#f6_cu" transform="matrix(14,0,0,14,373.5,679.5)" />
<use xlink:href="#f6_c7" transform="matrix(14,0,0,14,379.2,679.5)" />
<use xlink:href="#f6_c7" transform="matrix(14,0,0,14,391.2,679.5)" />
<use xlink:href="#f6_ct" transform="matrix(14,0,0,14,403.3,679.5)" />
<use xlink:href="#f6_c1" transform="matrix(14,0,0,14,408.9,679.5)" />
<use xlink:href="#f6_g" transform="matrix(14,0,0,14,423,679.5)" />
<use xlink:href="#f6_c7" transform="matrix(14,0,0,14,428.9,679.5)" />
<use xlink:href="#f6_ct" transform="matrix(14,0,0,14,440.9,679.5)" />
<use xlink:href="#f6_pc" transform="matrix(14,0,0,14,446.6,679.5)" />
<use xlink:href="#f6_cu" transform="matrix(14,0,0,14,450.8,679.5)" />
<use xlink:href="#f6_bt" transform="matrix(14,0,0,14,456.5,679.5)" />
<use xlink:href="#f6_pc" transform="matrix(14,0,0,14,468.2,679.5)" />
<use xlink:href="#f6_h" transform="matrix(14,0,0,14,472.5,679.5)" />
<use xlink:href="#f6_ng" transform="matrix(14,0,0,14,484,679.5)" />
<use xlink:href="#f6_ng" transform="matrix(14,0,0,14,493.3,679.5)" />
<use xlink:href="#f6_nb" transform="matrix(14,0,0,14,508.4,679.5)" />
<use xlink:href="#f6_ng" transform="matrix(14,0,0,14,525.1,679.5)" />
<use xlink:href="#f6_ng" transform="matrix(14,0,0,14,534.5,679.5)" />
<use xlink:href="#f7_4r" transform="matrix(9,0,0,9,293.6,795.2)" />
<use xlink:href="#f8_t" transform="matrix(9,0,0,9,306.5,795.2)" />
<use xlink:href="#f7_4r" transform="matrix(9,0,0,9,317.1,795.2)" />
</g>
</g>
<image preserveAspectRatio="none" x="22" y="801" width="581" height="86" xlink:href="img/1.png"/>
<path d="M225.7,97.4H396.5v1.1H225.7V97.4Z" class="g1_15"/>
<image preserveAspectRatio="none" x="202" y="14" width="217" height="26" xlink:href="img/2.png"/>
<defs>
<path d="M368,629c0,0,125,88,125,182l-3,25c0,0,-26,21,-55,21c0,0,-41,0,-71,-37c0,0,-31,-36,-31,-90c0,0,0,-56,35,-101ZM964,-65L790,29V290L442,0L284,156L585,380c0,0,-72,19,-125,43l-3,-1L174,238L21,413L254,556c0,0,-138,124,-138,252c0,0,0,90,71,159c0,0,71,69,169,69c0,0,119,0,209,-95c0,0,90,-95,90,-215c0,0,0,-107,-79,-200l86,-7c0,0,61,0,128,14V822H759L674,937l32,64h444l86,-115l-32,-64H932l102,-73V-31L964,-65Z"
id="f5_ef"
transform="scale(0.001,-0.001)"/>

<path d="M277,-65L102,29V822H0L-86,937l32,64H110c0,0,-50,142,-110,226c0,0,-60,84,-149,84c0,0,-59,0,-97,-37c0,0,-39,-36,-39,-91c0,0,0,-57,42,-115l-95,-50c0,0,-145,116,-145,267c0,0,0,108,75,179c0,0,76,70,195,70c0,0,179,0,297,-150c0,0,119,-150,189,-383H463L548,886L516,822H244L347,749V-31L277,-65Z"
id="f5_cv"
transform="scale(0.001,-0.001)"/>

<path d="M874,-65L700,29V309H513V173L422,122c0,0,-90,31,-191,129c0,0,-100,97,-127,184l52,81H277l-2,240c0,0,0,77,-26,109c0,0,-1,0,-2,0c-8,0,-44,-1,-70,-22c0,0,-29,-24,-29,-61c0,0,0,-53,64,-101L125,610c0,0,-174,117,-174,238c0,0,0,78,57,133c0,0,59,55,146,55c0,0,132,0,244,-112c0,0,112,-113,112,-246V516H700V822H655L570,937l32,64h458l86,-115l-32,-64H842L944,749V-31L874,-65Z"
id="f5_by"
transform="scale(0.001,-0.001)"/>

<path d="M-272,872l-211,214c0,0,-64,61,-138,61c0,0,-70,0,-195,-74l-115,204c0,0,121,86,223,86c0,0,133,0,266,-155l156,-190l-84,209c0,0,-49,119,-100,170c0,0,-50,51,-129,51c0,0,-66,0,-165,-36l-92,243c0,0,105,41,189,41c0,0,240,0,375,-344L-143,923L-272,872Z"
id="f5_d5"
transform="scale(0.001,-0.001)"/>

<path d="M545,-97L35,405L87,542H295c0,0,1,5,1,280H0L-86,937l32,64H1135l86,-115l-32,-64H445L550,749V654c0,0,124,72,228,72c0,0,134,0,230,-98c0,0,95,-98,95,-228c0,0,0,-99,-62,-177c0,0,-62,-78,-178,-151L700,252c0,0,195,133,195,212c0,0,0,63,-67,63c0,0,-116,0,-411,-240L709,110V41L545,-97Z"
id="f5_n0"
transform="scale(0.001,-0.001)"/>

<path d="M952,-65L778,29V474H600c0,0,94,-91,94,-202c0,0,0,-98,-66,-163c0,0,-66,-65,-171,-65c0,0,-165,0,-280,155C177,199,63,354,-7,616l152,50c0,0,67,-223,120,-299c0,0,53,-77,122,-77c0,0,47,0,73,29c0,0,26,28,26,71c0,0,0,79,-73,128L298,559V681H778V822H0L-86,937l32,64H1137l85,-115l-32,-64H920l102,-73V-31L952,-65Z"
id="f5_bg"
transform="scale(0.001,-0.001)"/>

<path d="M300,310c13,0,56,2,103,25c0,0,58,27,100,81V523c0,0,-46,16,-83,16c0,0,-69,0,-111,-45c0,0,-42,-45,-42,-104c0,0,0,-45,28,-80c0,0,2,0,5,0ZM677,-65L503,29V144c0,0,-32,-11,-75,-11c0,0,-147,0,-272,98c0,0,-125,99,-125,233c0,0,0,110,75,185c0,0,76,74,195,74l67,-6L503,646V822H0L-86,937l32,64H1245l86,-115l-32,-64H645L747,749V622c0,0,81,58,165,58c0,0,122,0,213,-99c0,0,91,-98,91,-230c0,0,0,-204,-253,-371L791,157c0,0,110,83,164,139c0,0,53,55,53,106c0,0,0,55,-53,55c0,0,-83,0,-208,-145V-31L677,-65Z"
id="f5_b9"
transform="scale(0.001,-0.001)"/>

<path d="M277,-65L102,29V822H0L-86,937l32,64H92c0,0,-225,348,-438,348c0,0,-88,0,-146,-54c0,0,-59,-54,-59,-129c0,0,0,-51,26,-98l-96,-50c0,0,-140,116,-140,268c0,0,0,126,95,207c0,0,96,81,242,81c0,0,199,0,375,-155c0,0,174,-156,321,-418H463L548,886L516,822H244L347,749V-31L277,-65Z"
id="f5_oc"
transform="scale(0.001,-0.001)"/>

<path d="M1128,-65L953,29V322c0,0,-23,-9,-52,-9c0,0,-47,0,-102,25c0,0,11,-42,11,-83c0,0,0,-116,-78,-192c0,0,-78,-76,-203,-76c0,0,-129,0,-261,94c0,0,-132,95,-244,339l123,78c0,0,70,-150,146,-225c0,0,75,-76,168,-76c0,0,72,0,113,40c0,0,42,40,42,90c0,0,0,84,-77,115L387,350L249,556c0,0,86,77,199,83c0,0,119,73,119,163c0,0,0,25,-15,40c0,0,-4,0,-10,0c-19,0,-67,-3,-124,-33c0,0,-76,-39,-146,-106L142,872c0,0,61,65,140,107c0,0,79,42,158,42c0,0,121,0,216,-91c0,0,96,-91,96,-197c0,0,0,-96,-84,-186c0,0,62,-46,142,-46c0,0,88,0,143,52V822H834L749,937l32,64h994l86,-115l-32,-64H1557l102,-73V-31l-70,-34L1415,29V822H1095l103,-73V-31l-70,-34Z"
id="f5_am"
transform="scale(0.001,-0.001)"/>

<path d="M545,-97L35,405L87,542H295c0,0,1,5,1,280H0L-86,937l32,64H729L814,886L782,822H445L550,749V547c0,0,0,-75,-41,-127c0,0,-41,-52,-129,-111L709,110V41L545,-97Z"
id="f5_c1"
transform="scale(0.001,-0.001)"/>

<path d="M342,-69c0,0,-146,139,-224,256c0,0,-78,117,-78,226c0,0,0,120,90,193c0,0,90,72,243,72H599V822H0L-86,937l32,64H959l86,-115l-32,-64H741L843,749V-31L773,-65L599,29V445H448c0,0,-81,0,-123,-34c0,0,-42,-34,-42,-90c0,0,0,-54,43,-118c0,0,44,-64,143,-163L342,-69Z"
id="f5_bp"
transform="scale(0.001,-0.001)"/>

<path d="M463,18c0,0,-118,0,-227,90c0,0,-109,91,-213,309l69,41c0,0,75,-160,152,-245c0,0,78,-85,184,-85c0,0,84,0,137,53c0,0,52,53,52,128c0,0,0,55,-33,101c0,0,-34,47,-97,65L325,391L257,512c0,0,68,53,156,56c0,0,140,72,140,179c0,0,0,69,-52,99c0,0,-4,1,-11,1c-19,0,-66,-4,-123,-30c0,0,-78,-35,-142,-96L150,823c0,0,119,117,253,117c0,0,98,0,175,-71c0,0,77,-70,77,-159c0,0,0,-102,-93,-180c0,0,95,-55,139,-148c0,0,34,-24,64,-24c0,0,40,0,71,35c0,0,32,36,104,183c0,0,71,147,136,199c0,0,65,52,148,52c0,0,108,0,184,-81c0,0,75,-81,75,-191c0,0,0,-113,-93,-230c0,0,-93,-116,-230,-180l-86,95c0,0,121,52,216,164c0,0,96,112,96,206c0,0,0,55,-35,93c0,0,-36,38,-92,38c0,0,-92,0,-157,-113L998,429c0,0,-86,-148,-210,-148c0,0,-35,0,-62,11l1,-25c0,0,0,-104,-75,-176C652,91,578,18,463,18ZM869,897c0,0,-81,0,-165,56c0,0,-85,57,-146,161l52,50c0,0,94,-162,218,-162c0,0,125,0,160,158l110,-49c0,0,-19,-100,-84,-157c0,0,-64,-57,-145,-57Zm-38,201c0,0,-66,25,-102,80c0,0,32,69,82,101c0,0,55,-20,100,-80c0,0,-26,-67,-80,-101Z"
id="f6_nq"
transform="scale(0.001,-0.001)"/>

<path d="M845,-49L755,8V513H497c0,0,61,-45,93,-110c0,0,33,-64,33,-128c0,0,0,-90,-58,-144c0,0,-59,-53,-143,-53c0,0,-133,0,-234,139C188,217,87,356,20,596l76,24c0,0,60,-201,127,-306c0,0,67,-105,160,-105c0,0,57,0,91,36c0,0,33,36,33,91c0,0,0,84,-73,159L295,558v71H755V822H0l-45,76l14,31H1019l46,-76l-14,-31H816l66,-58V-39L845,-49Z"
id="f6_bg"
transform="scale(0.001,-0.001)"/>

<path d="M374,248c0,0,77,0,149,36c0,0,71,37,110,107V822H284c0,0,138,-96,138,-208c0,0,0,-151,-228,-192c0,0,29,-104,89,-158c0,0,41,-16,91,-16ZM723,-49L633,8V200c0,0,-69,-56,-170,-56c0,0,-122,0,-240,94c0,0,-118,94,-179,237l20,55c0,0,133,17,187,44c0,0,55,28,55,84c0,0,0,45,-30,81c0,0,-30,36,-99,83H0l-45,76l14,31H897l46,-76L929,822H694l65,-58V-39L723,-49Z"
id="f6_c0"
transform="scale(0.001,-0.001)"/>

<path d="M283,260c0,0,122,0,209,113V513c0,0,-90,51,-160,51c0,0,-80,0,-129,-50c0,0,-49,-50,-49,-118c0,0,0,-60,35,-110c0,0,45,-26,94,-26ZM582,-49L492,8V211c0,0,-63,-54,-141,-54c0,0,-113,0,-213,92c0,0,-100,92,-100,205c0,0,0,93,69,157c0,0,69,64,162,64c0,0,32,0,64,-9L492,590V822H0l-45,76l14,31H1108l45,-76l-13,-31H553l66,-58V524c0,0,91,89,192,89c0,0,98,0,171,-79c0,0,72,-79,72,-186c0,0,0,-178,-224,-330L736,124c0,0,219,153,219,269c0,0,0,44,-26,75c0,0,-26,32,-81,32c0,0,-109,0,-229,-155V-39L582,-49Z"
id="f6_b9"
transform="scale(0.001,-0.001)"/>

<path d="M228,-49L138,8V822H0l-45,76l14,31H402l46,-76L434,822H199l65,-58V-39L228,-49Z"
id="f6_ct"
transform="scale(0.001,-0.001)"/>

<path d="M527,-71L52,414l34,92H277c0,0,12,32,12,72V822H0l-45,76l14,31H599l46,-76L631,822H350l66,-55V564c0,0,0,-96,-152,-248L610,34L611,8L527,-71Z"
id="f6_c1"
transform="scale(0.001,-0.001)"/>

<path d="M325,240c0,0,77,0,154,35c0,0,77,35,120,99V500c0,0,-118,73,-222,73c0,0,-97,0,-151,-54c0,0,-53,-53,-53,-128c0,0,0,-73,49,-125c0,0,38,-26,103,-26ZM689,-49L599,8V199c0,0,-73,-65,-179,-65c0,0,-134,0,-252,96c0,0,-118,95,-118,221c0,0,0,102,78,171c0,0,78,69,190,69c0,0,38,0,75,-10L599,582V822H0l-45,76l14,31H863l46,-76L895,822H660l66,-58V-39L689,-49Z"
id="f6_c7"
transform="scale(0.001,-0.001)"/>

<path d="M228,-49L138,8V822H0l-45,76l14,31H133c0,0,-93,95,-93,206c0,0,0,96,68,159c0,0,68,63,179,63c0,0,118,0,228,-81c0,0,110,-80,258,-262L720,970L588,1109c0,0,-133,133,-253,133c0,0,-78,0,-127,-46c0,0,-49,-46,-49,-119c0,0,0,-69,56,-148H402l46,-76L434,822H199l65,-58V-39L228,-49Z"
id="f6_nr"
transform="scale(0.001,-0.001)"/>

<path d="M252,385l310,78l22,-9c0,0,107,-43,200,-43c0,0,91,0,151,41V822H603l66,-58V585H373c0,0,-184,0,-184,-99c0,0,0,-48,63,-101ZM483,-305L295,-10c0,0,-90,22,-156,74l41,170h66L351,63c0,0,126,4,207,62c0,0,82,58,82,139c0,0,0,37,-18,71L365,266c0,0,-110,15,-197,102c0,0,-87,87,-87,176c0,0,0,69,59,117c0,0,59,48,172,48H550V822H0l-45,76l14,31H1199l46,-76l-14,-31H996l66,-58V-39l-37,-10L935,8V318c0,0,-41,-15,-78,-15c0,0,-52,0,-131,30c0,0,32,-55,32,-111c0,0,0,-109,-98,-179c0,0,-98,-69,-254,-69L599,-216L483,-305Z"
id="f6_bh"
transform="scale(0.001,-0.001)"/>

<path d="M0,1062c0,0,-26,11,-60,36c0,0,-34,26,-51,49c0,0,39,81,91,110c0,0,60,-23,106,-85c0,0,-28,-70,-86,-110Z"
id="f6_dj"
transform="scale(0.001,-0.001)"/>

<path d="M108,-222l-44,58c0,0,96,81,104,164L89,61c0,0,12,83,93,122c0,0,50,-15,79,-55c0,0,29,-39,29,-90c0,0,0,-69,-48,-142c0,0,-48,-72,-134,-118Z"
id="f6_k"
transform="scale(0.001,-0.001)"/>

<path d="M959,-49L869,8V367c0,0,-32,-13,-64,-13c0,0,-50,0,-110,25c0,0,23,-52,23,-109c0,0,0,-103,-70,-170c0,0,-70,-66,-182,-66c0,0,-110,0,-222,82c0,0,-111,83,-213,293l68,42c0,0,72,-155,152,-231c0,0,81,-76,178,-76c0,0,83,0,131,49c0,0,48,48,48,117c0,0,0,54,-30,100c0,0,-31,47,-91,65L325,391L257,512c0,0,68,53,156,56c0,0,140,72,140,179c0,0,0,69,-52,99c0,0,-4,1,-11,1c-19,0,-66,-4,-123,-30c0,0,-78,-35,-142,-96L150,823c0,0,119,117,253,117c0,0,98,0,175,-71c0,0,77,-70,77,-159c0,0,0,-103,-94,-180c0,0,39,-23,73,-56c0,0,52,-22,109,-22c0,0,77,0,126,38V822H727l-46,76l14,31h840l46,-76l-13,-31H1332l66,-58V-39l-37,-10L1271,8V822H930l66,-58V-39L959,-49Z"
id="f6_am"
transform="scale(0.001,-0.001)"/>

<path d="M347,-57C347,-57,66,211,66,394c0,0,0,98,74,164c0,0,74,65,225,65H616V822H0l-45,76l14,31H880l46,-76L912,822H677l66,-58V-39L706,-49L616,8V500H428c0,0,-239,0,-239,-161c0,0,0,-136,214,-343L347,-57Z"
id="f6_bp"
transform="scale(0.001,-0.001)"/>

<path d="M228,-49L138,8V822H0l-45,76l14,31H138c0,0,-109,342,-284,342c0,0,-62,0,-102,-40c0,0,-40,-39,-40,-93c0,0,0,-61,51,-134l-42,-32c0,0,-128,113,-128,226c0,0,0,79,60,136c0,0,61,56,154,56c0,0,137,0,249,-125c0,0,112,-125,169,-336H402l46,-76L434,822H199l65,-58V-39L228,-49Z"
id="f6_cv"
transform="scale(0.001,-0.001)"/>

<path d="M471,-26c0,0,-259,0,-448,396l70,43C93,413,240,98,442,98c0,0,79,0,132,46c0,0,54,45,54,120c0,0,0,61,-38,116c0,0,-38,54,-107,72L322,370L255,492c0,0,66,53,156,56c0,0,128,51,128,153c0,0,0,77,-65,121H0l-45,76l14,31H813l46,-76L845,822H578c0,0,76,-66,76,-157c0,0,0,-95,-87,-156c0,0,84,-48,131,-123c0,0,48,-76,48,-158c0,0,0,-109,-78,-182c0,0,-78,-72,-197,-72Z"
id="f6_ap"
transform="scale(0.001,-0.001)"/>

<path d="M228,-49L138,8V822H0l-45,76l14,31H119L-33,1144c0,0,-70,92,-157,92c0,0,-69,0,-159,-58l-72,118c0,0,89,73,181,73c0,0,140,0,257,-170L205,929H402l46,-76L434,822H199l65,-58V-39L228,-49Z"
id="f6_d8"
transform="scale(0.001,-0.001)"/>

<path d="M823,-49L733,8V339H445V191L371,160c0,0,-56,36,-120,105c0,0,-63,70,-89,131l41,59H313V735c0,0,0,99,-55,140c0,0,-3,1,-8,1c-16,0,-48,-3,-71,-23c0,0,-31,-26,-31,-66c0,0,0,-69,81,-113L189,620C189,620,31,720,31,828c0,0,0,61,45,99c0,0,46,37,109,37c0,0,96,0,173,-86c0,0,76,-87,79,-194V455H733V822H556l-46,76l14,31H998l45,-76l-13,-31H794l66,-58V-39L823,-49Z"
id="f6_by"
transform="scale(0.001,-0.001)"/>

<path d="M228,-49L138,8V822H0l-45,76l14,31H134c0,0,-91,92,-91,191c0,0,0,105,85,170c0,0,84,65,219,65c0,0,128,0,293,-76c0,0,165,-77,362,-263L958,966c0,0,-177,143,-303,210c0,0,-125,68,-244,68c0,0,-107,0,-175,-50c0,0,-68,-50,-68,-131c0,0,0,-61,49,-134H402l46,-76L434,822H199l65,-58V-39L228,-49Z"
id="f6_cu"
transform="scale(0.001,-0.001)"/>

<path d="M663,-49L573,8V445H299V280L226,251c0,0,-105,99,-162,238l63,72H573V822H0l-45,76l14,31H837l46,-76L869,822H634l66,-58V-39L663,-49Z"
id="f6_bt"
transform="scale(0.001,-0.001)"/>

<path d="M228,-49L138,8V822H0l-45,76l14,31H134c0,0,-91,93,-91,202c0,0,0,105,85,170c0,0,86,65,236,65c0,0,340,0,742,-350l-50,-46c0,0,-182,135,-340,208c0,0,-158,73,-302,73c0,0,-113,0,-183,-48c0,0,-69,-48,-69,-132c0,0,0,-63,53,-142H402l46,-76L434,822H199l65,-58V-39L228,-49Z"
id="f6_nt"
transform="scale(0.001,-0.001)"/>

<path d="M689,445V822H286l65,-58l8,-319ZM779,-49L689,8V328H370V180L296,150c0,0,-56,35,-120,104c0,0,-63,70,-89,131l41,60H238L223,822H0l-45,76l14,31H953l46,-76L985,822H750l66,-58V-39L779,-49Z"
id="f6_bz"
transform="scale(0.001,-0.001)"/>

<path d="M413,-59C413,-59,53,193,53,416c0,0,0,97,66,164c0,0,66,66,156,66c0,0,61,0,110,-30L487,507c0,0,92,126,257,126l35,-2V822H0l-45,76l14,31H1043l46,-76l-13,-31H840l66,-58V-39L869,-49L779,8V547c0,0,-101,-5,-165,-90c0,0,-64,-86,-70,-222L507,225l-90,73c0,0,5,79,35,151c0,0,-59,66,-128,66c0,0,-57,0,-100,-38c0,0,-44,-39,-44,-109c0,0,0,-165,284,-360L413,-59Z"
id="f6_c3"
transform="scale(0.001,-0.001)"/>

<path d="M-214,860l-227,219c0,0,-73,70,-148,70c0,0,-67,0,-160,-58l-72,117c0,0,83,71,176,71c0,0,120,0,232,-124L-221,940l-102,294c0,0,-64,179,-189,179c0,0,-60,0,-133,-33l-60,125c0,0,84,47,164,47c0,0,200,0,281,-276L-150,901l-23,-15l-41,-26Z"
id="f6_d5"
transform="scale(0.001,-0.001)"/>

<path d="M761,293c0,0,127,0,169,94V532c0,0,-68,46,-145,46c0,0,-76,0,-121,-46c0,0,-45,-45,-45,-107c0,0,0,-61,44,-110c0,0,47,-22,98,-22ZM657,67c0,0,166,0,273,107v55c0,0,-45,-36,-111,-36c0,0,-110,0,-207,90c0,0,-97,90,-97,194c0,0,0,85,66,148c0,0,65,63,155,63l48,-5L930,603V822H376l62,-55V579c0,0,0,-60,-23,-102c0,0,-24,-42,-148,-190c0,0,66,-104,175,-162c0,0,108,-58,215,-58ZM1021,-49L930,8V53c0,0,-105,-83,-264,-83c0,0,-177,0,-339,128C327,98,165,226,90,429l34,77H296c0,0,19,39,19,102l-2,214H0l-45,76l14,31H1195l46,-76l-14,-31H992l65,-58V-39l-36,-10Z"
id="f6_ba"
transform="scale(0.001,-0.001)"/>

<path d="M426,-68L339,5V953l37,11l87,-73V-57L426,-68Z"
id="f6_ng"
transform="scale(0.001,-0.001)"/>

<path d="M163,-343V1123H281V-343Z"
id="f6_2s"
transform="scale(0.001,-0.001)"/>

<path d="M108,-433L-59,-214c0,0,-99,119,-191,119c0,0,-59,0,-96,-35c0,0,-36,-34,-36,-81c0,0,0,-49,42,-83l152,95l64,-116c0,0,-71,-58,-148,-58c0,0,-80,0,-146,63c0,0,-65,64,-65,144c0,0,0,77,62,131c0,0,61,53,142,53c0,0,138,0,296,-205L165,-393l-57,-40Z"
id="f6_cx"
transform="scale(0.001,-0.001)"/>

<path d="M799,475V822H350l66,-55V564c0,0,0,-43,-25,-89ZM527,-71L52,414l34,92H277c0,0,12,32,12,72V822H0l-45,76l14,31H1063l46,-76l-14,-31H860l66,-58V-39L889,-49L799,8V370H315L264,316L610,34L611,8L527,-71Z"
id="f6_cb"
transform="scale(0.001,-0.001)"/>

<path d="M-234,-413c0,0,-210,0,-488,322l54,49c0,0,119,-128,209,-193c0,0,90,-65,177,-65c0,0,72,0,113,40c0,0,42,39,42,91c0,0,0,75,-78,106L-323,-181l-90,98c0,0,63,95,167,95c0,0,90,0,155,-69c0,0,66,-70,66,-164c0,0,0,-85,-60,-139c0,0,-61,-53,-149,-53Z"
id="f6_cw"
transform="scale(0.001,-0.001)"/>

<path d="M688,-243c0,0,-256,53,-408,173c0,0,-152,119,-152,270c0,0,0,101,68,171c0,0,-101,84,-101,179c0,0,0,64,53,112c0,0,54,47,191,47H587V822H0l-45,76l14,31H830l45,-76L862,822H640l66,-58V585H362c0,0,-159,-1,-159,-92c0,0,0,-41,46,-80c0,0,76,47,183,47c0,0,135,0,230,-76c0,0,96,-75,96,-187C758,197,758,67,629,2L545,104c0,0,49,30,81,75c0,0,32,44,32,82c0,0,0,16,-4,26c0,0,-64,58,-167,58c0,0,-97,0,-166,-50v-2c0,0,-67,-52,-67,-131c0,0,0,-116,132,-199c0,0,132,-84,334,-132l-32,-74Z"
id="f6_cc"
transform="scale(0.001,-0.001)"/>

<path d="M727,-49L637,8V822H278l66,-58V226L270,196c0,0,-64,36,-122,98c0,0,-58,62,-79,122l43,59H217V822H0l-45,76l14,31H901l46,-76L933,822H698l66,-58V-39L727,-49Z"
id="f6_bb"
transform="scale(0.001,-0.001)"/>

<path d="M290,-236c0,0,-253,348,-253,685c0,0,0,342,270,669l80,-39c0,0,-207,-311,-207,-622c0,0,0,-326,193,-652l-83,-41Z"
id="f6_g"
transform="scale(0.001,-0.001)"/>

<path d="M226,-49c0,0,-66,24,-102,78c0,0,32,69,82,101c0,0,55,-20,100,-80c0,0,-26,-66,-80,-99Z"
id="f6_pc"
transform="scale(0.001,-0.001)"/>

<path d="M130,-236l-83,41c0,0,193,326,193,652c0,0,0,311,-206,622l79,39c0,0,270,-327,270,-669c0,0,0,-337,-253,-685Z"
id="f6_h"
transform="scale(0.001,-0.001)"/>

<path d="M319,561c0,0,66,46,103,105c0,0,36,60,36,113c0,0,0,28,-9,48c0,0,-35,41,-88,41c0,0,-51,0,-89,-39c0,0,-38,-39,-38,-103c0,0,0,-95,85,-165ZM840,-49L750,8V342L362,31l-89,85L608,370c0,0,-121,15,-241,78L105,272L20,364L260,519c0,0,-144,118,-144,246c0,0,0,81,57,140c0,0,56,59,140,59c0,0,96,0,171,-79c0,0,75,-78,75,-168c0,0,0,-117,-130,-219c0,0,110,-40,257,-40l64,2V822H628l-46,76l14,31h418l46,-76l-13,-31H811l66,-58V-39L840,-49Z"
id="f6_ef"
transform="scale(0.001,-0.001)"/>

<path d="M547,-285c0,0,-66,25,-102,80c0,0,32,69,82,101c0,0,55,-20,99,-80c0,0,-26,-67,-79,-101Zm1,228c0,0,-122,0,-243,81c0,0,-122,81,-252,280l57,41C110,345,283,64,498,64c0,0,92,0,153,49c0,0,61,49,61,121c0,0,0,46,-28,84L440,237c0,0,-73,11,-139,55c0,0,-66,44,-105,105c0,0,-40,61,-40,119c0,0,0,72,62,125c0,0,62,53,184,53H625V822H0l-45,76l14,31H906l46,-76L938,822H678l66,-58V562H431c0,0,-164,0,-164,-99c0,0,0,-55,57,-102l261,82c0,0,104,-21,172,-98c0,0,68,-78,68,-171c0,0,0,-99,-76,-166c0,0,-77,-65,-201,-65Z"
id="f6_ch"
transform="scale(0.001,-0.001)"/>

<path d="M180,196c0,0,-105,99,-162,238l63,72H573l40,-86L591,390H254V225L180,196ZM0,822l-45,76l14,31H409l46,-76L442,822Z"
id="f6_lj"
transform="scale(0.001,-0.001)"/>

<path d="M675,-274L602,21C602,21,550,3,498,3C498,3,347,3,210,118C210,118,73,232,73,373c0,0,0,113,84,184c0,0,84,71,222,72H524V822H0l-45,76l14,31H834l46,-76L866,822H585l66,-58V504l-3,2l3,-3H408c0,0,-95,0,-154,-53c0,0,-58,-53,-58,-132c0,0,0,-49,27,-100c0,0,28,-50,83,-84c0,0,44,-15,96,-15c0,0,91,0,160,46L535,303l101,48L773,188c0,0,-8,-28,-34,-66c0,0,-27,-38,-62,-64L813,-221L675,-274Z"
id="f6_br"
transform="scale(0.001,-0.001)"/>

<path d="M535,-54L419,5c0,0,23,27,23,58c0,0,0,32,-23,55c0,0,-22,23,-295,226v73L319,571c0,0,116,92,116,191c0,0,0,63,-50,107l-32,5c0,0,-54,0,-91,-42c0,0,-37,-42,-33,-93c0,0,5,-62,75,-99L267,596c0,0,-162,93,-162,194c0,0,0,70,52,122c0,0,51,52,127,52c0,0,99,0,177,-84c0,0,77,-84,77,-180c0,0,0,-116,-142,-236L254,350L417,225l54,-40c0,0,105,-80,105,-150c0,0,0,-45,-41,-89Z"
id="f6_n7"
transform="scale(0.001,-0.001)"/>

<path d="M548,-57c0,0,-122,0,-243,81c0,0,-122,81,-252,280l57,41C110,345,283,64,498,64c0,0,92,0,153,49c0,0,61,49,61,121c0,0,0,46,-28,84L440,237c0,0,-73,11,-139,55c0,0,-66,44,-105,105c0,0,-40,61,-40,119c0,0,0,72,62,125c0,0,62,53,184,53H625V822H0l-45,76l14,31H906l46,-76L938,822H678l66,-58V562H431c0,0,-164,0,-164,-99c0,0,0,-55,57,-102l261,82c0,0,104,-21,172,-98c0,0,68,-78,68,-171c0,0,0,-99,-76,-166c0,0,-77,-65,-201,-65Z"
id="f6_bm"
transform="scale(0.001,-0.001)"/>

<path d="M688,-49L597,8V335L248,81l-92,81L532,425l-81,76c0,0,-80,70,-133,70c0,0,-81,0,-194,-96L38,584c0,0,109,105,223,105c0,0,103,0,213,-107L597,457V822H0l-45,76l14,31H862l46,-76L894,822H658l66,-58V-39L688,-49Z"
id="f6_e1"
transform="scale(0.001,-0.001)"/>

<path d="M513,460c0,0,61,81,61,179c0,0,0,87,-45,143c0,0,-45,57,-116,57c0,0,-63,0,-102,-43c0,0,-39,-43,-39,-110c0,0,0,-90,68,-151c0,0,68,-61,173,-75ZM581,-83L278,167l-41,-4c0,0,-99,0,-130,37l47,168l51,12l78,-79c0,0,110,40,183,105c0,0,-141,23,-231,107c0,0,-90,84,-90,193c0,0,0,69,37,116H0l-45,76l14,31H1134l45,-76l-13,-31H930l66,-58V-39L959,-49L869,8V822H588c0,0,51,-44,75,-109c0,0,25,-64,25,-122c0,0,0,-105,-81,-213c0,0,-80,-108,-240,-176L658,18l2,-25L581,-83Z"
id="f6_c8"
transform="scale(0.001,-0.001)"/>

<path d="M0,822l-45,76l14,31H38L84,853L70,822Z"
id="f6_nl"
transform="scale(0.001,-0.001)"/>

<path d="M827,-49L736,8V205c0,0,-84,-84,-209,-84c0,0,-130,0,-237,91c0,0,-108,92,-108,196c0,0,0,79,61,137C243,545,66,672,66,791c0,0,0,75,52,124c0,0,53,49,134,49c0,0,164,0,260,-237L451,694c0,0,-55,114,-119,163l-31,5c0,0,-44,0,-77,-32c0,0,-33,-31,-33,-78c0,0,0,-86,113,-165c0,0,60,27,133,27l67,-4l75,-89L564,490l-51,7H493c0,0,-90,0,-142,-43c0,0,-52,-43,-52,-104c0,0,0,-60,51,-109c0,0,33,-16,84,-16c0,0,89,0,177,47c0,0,89,47,125,137V822H567l-46,76l14,31h466l46,-76l-14,-31H798l65,-58V-39L827,-49Z"
id="f6_bs"
transform="scale(0.001,-0.001)"/>

<path d="M438,206c0,0,-119,0,-226,109c0,0,-108,108,-108,243V822H0l-45,76l14,31H542l46,-76L574,822H165l66,-58V408c0,0,46,-86,151,-86c0,0,61,0,119,32c0,0,58,33,95,91L669,338c0,0,-44,-66,-108,-99c0,0,-63,-33,-123,-33Z"
id="f6_ll"
transform="scale(0.001,-0.001)"/>

<path d="M388,325c0,0,58,0,112,31c0,0,53,31,84,86V822H165l69,-58V408c0,0,47,-83,154,-83ZM674,-49L584,8V257c0,0,-61,-51,-141,-51c0,0,-125,0,-232,109c0,0,-107,108,-107,243V822H0l-45,76l14,31H848l46,-76L880,822H645l65,-58V-39L674,-49Z"
id="f6_bv"
transform="scale(0.001,-0.001)"/>

<path d="M-214,863l-199,281c0,0,-70,92,-157,92c0,0,-69,0,-159,-58l-72,118c0,0,89,73,180,73c0,0,141,0,258,-170L-155,901l-59,-38Z"
id="f6_d4"
transform="scale(0.001,-0.001)"/>

<path d="M527,-71L52,414l34,92H277c0,0,12,32,12,72V822H0l-45,76l14,31H940l45,-76L972,822H350l66,-55V570c0,0,146,98,247,98c0,0,95,0,167,-73c0,0,71,-72,71,-167c0,0,0,-77,-53,-142c0,0,-54,-64,-159,-136l-89,99c0,0,100,70,152,121c0,0,52,52,52,105c0,0,0,34,-23,60c0,0,-22,26,-72,26c0,0,-139,0,-434,-252L610,34L611,8L527,-71Z"
id="f6_n0"
transform="scale(0.001,-0.001)"/>

<path d="M959,-49L869,8V367c0,0,-32,-13,-64,-13c0,0,-50,0,-110,25c0,0,23,-52,23,-109c0,0,0,-103,-70,-170c0,0,-70,-66,-182,-66c0,0,-110,0,-222,82c0,0,-111,83,-213,293l68,42c0,0,72,-155,152,-231c0,0,81,-76,178,-76c0,0,83,0,131,49c0,0,48,48,48,117c0,0,0,54,-30,100c0,0,-31,47,-91,65L325,391L257,512c0,0,68,53,156,56c0,0,140,72,140,179c0,0,0,69,-52,99c0,0,-4,1,-11,1c-19,0,-66,-4,-123,-30c0,0,-78,-35,-142,-96L150,823c0,0,119,117,253,117c0,0,98,0,175,-71c0,0,77,-70,77,-159c0,0,0,-103,-94,-180c0,0,39,-23,73,-56c0,0,52,-22,109,-22c0,0,77,0,126,38V822H727l-46,76l14,31h439l45,-76l-13,-31H930l66,-58V-39L959,-49Z"
id="f6_al"
transform="scale(0.001,-0.001)"/>

<path d="M825,-49L735,8V217c0,0,-86,-72,-197,-72c0,0,-130,0,-238,91c0,0,-107,91,-107,204c0,0,0,55,27,105H55L12,616l14,30H574l46,-76L607,539H396c0,0,-78,-49,-78,-162c0,0,0,-70,40,-111c0,0,39,-15,94,-15c0,0,84,0,163,41c0,0,79,41,120,121V822H0l-45,76l14,31H999l46,-76l-14,-31H796l66,-58V-39L825,-49Z"
id="f6_be"
transform="scale(0.001,-0.001)"/>

<path d="M487,-7c0,0,-88,0,-185,46c0,0,-97,47,-163,130c0,0,-66,83,-66,185c0,0,0,109,80,177c0,0,79,68,234,68H504V822H0l-45,76l14,31H827l45,-76L859,822H565l66,-58V474l-3,1l3,-3H396c0,0,-100,0,-152,-47c0,0,-53,-48,-53,-119c0,0,0,-104,93,-178c0,0,60,-20,118,-20c0,0,81,0,156,36c0,0,76,35,123,99l92,-99C773,144,723,70,645,31C645,31,567,-7,487,-7Z"
id="f6_bk"
transform="scale(0.001,-0.001)"/>

<path d="M336,319c0,0,112,0,112,152V822H165l66,-58V374c0,0,33,-55,105,-55ZM396,218c0,0,-93,0,-192,86c0,0,-99,86,-100,182V822H0l-45,76l14,31H645l46,-76L677,822H509l65,-58V455c0,0,0,-134,-51,-185c0,0,-52,-52,-127,-52Z"
id="f6_lc"
transform="scale(0.001,-0.001)"/>

<path d="M634,-49L249,296c0,0,-1,0,-3,0c-11,0,-48,1,-90,15c0,0,-51,16,-67,36l49,165l50,12l84,-98c0,0,125,31,191,104c0,0,66,73,66,165c0,0,0,109,-95,170c0,0,-2,0,-6,0C397,865,262,858,121,738L46,848c0,0,52,47,127,82c0,0,75,34,152,34c0,0,130,0,226,-94c0,0,95,-94,95,-218c0,0,0,-107,-77,-199c0,0,-77,-92,-216,-134L697,26L698,0L634,-49Z"
id="f6_n8"
transform="scale(0.001,-0.001)"/>

<path d="M688,-243c0,0,-253,48,-421,158C267,-85,98,24,98,189c0,0,0,110,81,187c0,0,-100,85,-100,176c0,0,0,64,57,110c0,0,57,47,196,47H602V822H0l-45,76l14,31H845l46,-76L877,822H655l66,-58V585H364c0,0,-176,0,-176,-96c0,0,0,-40,43,-76c0,0,82,47,201,47c0,0,164,0,258,-94c0,0,94,-94,94,-250c0,0,0,-61,-17,-116L651,15l43,257l-10,8L437,11L335,93L588,333c0,0,-44,12,-98,12c0,0,-105,0,-178,-44l-6,-8l-3,2c0,0,-80,-55,-80,-147c0,0,0,-116,134,-191c0,0,133,-77,363,-126l-32,-74Z"
id="f6_ei"
transform="scale(0.001,-0.001)"/>

<path d="M332,567c0,0,149,88,149,206c0,0,0,35,-15,69c0,0,-41,27,-83,27c0,0,-55,0,-95,-41c0,0,-40,-41,-40,-105c0,0,0,-94,84,-156ZM610,-324L533,-17c0,0,-50,-17,-101,-17c0,0,-136,0,-254,101C178,67,60,170,60,283c0,0,0,67,51,126c0,0,51,59,159,126c0,0,-137,114,-137,233c0,0,0,83,57,140c0,0,58,56,143,56c0,0,99,0,173,-78c0,0,75,-78,75,-174c0,0,0,-113,-126,-205c0,0,89,-24,200,-24l150,9V822H652l-45,76l13,31h449l46,-76l-13,-31H866l66,-58V-39L895,-49L805,8V370l-62,-3c0,0,-182,0,-353,90c0,0,-117,-64,-168,-119c0,0,-51,-55,-51,-121c0,0,0,-49,37,-102c0,0,52,-34,130,-34c0,0,76,0,143,32L460,220l101,49L692,130c0,0,-14,-47,-87,-110L747,-271L610,-324Z"
id="f6_eq"
transform="scale(0.001,-0.001)"/>

<path d="M163,118c0,0,-65,24,-102,79c0,0,32,69,83,101c0,0,55,-20,99,-80c0,0,-26,-67,-80,-100Zm0,382c0,0,-65,24,-102,79c0,0,32,69,83,101c0,0,55,-20,99,-80c0,0,-26,-67,-80,-100Z"
id="f6_dk"
transform="scale(0.001,-0.001)"/>

<path d="M348,229c0,0,57,0,106,17L263,559c0,0,-95,-50,-95,-162c0,0,0,-75,52,-136c0,0,49,-32,128,-32Zm170,48c0,0,61,38,96,91V504c0,0,-131,80,-244,80l-35,-2L518,277ZM704,-49L614,8V193c0,0,-84,-65,-192,-65c0,0,-139,0,-255,98c0,0,-115,98,-115,226c0,0,0,106,77,175c0,0,77,70,189,70c0,0,38,0,75,-9L614,578V822H0l-45,76l14,31H878l46,-76L911,822H675l66,-58V-39L704,-49Z"
id="f6_bx"
transform="scale(0.001,-0.001)"/>

<path d="M710,-49L620,8V335L270,81l-91,81L555,425l-81,76c0,0,-80,70,-133,70c0,0,-81,0,-194,-96L61,584c0,0,109,105,223,105c0,0,103,0,213,-107L620,457V822H23l-45,76l14,31H1236l46,-76l-14,-31H681l66,-58V414c0,0,55,-37,116,-37c0,0,90,0,135,65L901,559l29,52l143,-4c0,0,19,-36,19,-84c0,0,0,-37,-12,-71c0,0,112,-140,112,-234c0,0,0,-65,-48,-124c0,0,-47,-59,-136,-79L947,95l11,33c0,0,130,35,130,139c0,0,0,55,-41,113c0,0,-77,-93,-204,-93c0,0,-50,0,-96,19V-39L710,-49Z"
id="f6_ar"
transform="scale(0.001,-0.001)"/>

<path d="M228,-49L138,8V822H0l-45,76l14,31H134c0,0,-91,93,-91,200c0,0,0,109,92,174c0,0,93,66,253,66c0,0,186,0,398,-89c0,0,212,-90,430,-264l-49,-47c0,0,-424,285,-727,285c0,0,-125,0,-201,-49c0,0,-76,-48,-76,-137c0,0,0,-67,52,-139H402l46,-76L434,822H199l65,-58V-39L228,-49Z"
id="f6_nu"
transform="scale(0.001,-0.001)"/>

<path d="M915,-274L842,21L784,6c0,0,-37,-120,-114,-190c0,0,-77,-70,-178,-70c0,0,-96,0,-175,51c0,0,-79,51,-80,122c0,0,-119,32,-179,89C58,8,-1,67,-1,138c0,0,0,64,44,104c0,0,44,41,104,41c0,0,91,0,207,-123L315,110c0,0,-78,69,-122,84c0,0,-75,-23,-75,-92c0,0,0,-39,36,-72c0,0,35,-32,100,-46c0,0,35,69,122,89L497,24l-4,-40c0,0,-59,-6,-95,-37c0,0,-36,-32,-36,-68c0,0,0,-41,46,-63c0,0,67,3,141,62c0,0,74,59,102,137c0,0,-136,32,-237,135c0,0,-101,104,-101,223c0,0,0,113,84,184c0,0,84,71,222,72H764V822H0l-45,76l14,31H1074l46,-76l-14,-31H825l66,-58V504l-3,2l3,-3H648c0,0,-95,0,-154,-53c0,0,-59,-53,-59,-132c0,0,0,-49,28,-100c0,0,27,-50,82,-84c0,0,45,-15,97,-15c0,0,91,0,160,46L775,303l100,48L1013,188c0,0,-8,-28,-34,-66c0,0,-27,-38,-62,-64l136,-279L915,-274Z"
id="f6_ge"
transform="scale(0.001,-0.001)"/>

<path d="M266,150c0,0,-57,35,-120,104c0,0,-63,70,-89,131l41,60H211L194,822H0l-45,76l14,31H587l46,-76L619,822H255l66,-58l7,-319H688L721,328H339V180L266,150Z"
id="f6_lq"
transform="scale(0.001,-0.001)"/>

<path d="M516,-207L290,58c0,0,-44,5,-99,32c0,0,-55,28,-75,51l58,140l51,12L312,165l49,-3c0,0,100,0,168,47c0,0,67,48,67,118c0,0,0,53,-44,98c0,0,-43,44,-129,65L232,413L165,536c0,0,78,51,176,51c6,0,11,0,17,0c0,0,161,50,161,168c0,0,0,79,-65,114l-20,2c0,0,-69,0,-155,-37c0,0,-86,-36,-151,-93L53,848c0,0,51,49,130,82c0,0,80,34,159,34c0,0,118,0,203,-75c0,0,84,-75,84,-172c0,0,0,-110,-116,-181c0,0,97,-46,148,-112c0,0,51,-66,51,-137c0,0,0,-99,-88,-165c0,0,-88,-65,-237,-65L578,-132l1,-26l-63,-49Z"
id="f6_n9"
transform="scale(0.001,-0.001)"/>

<path d="M652,-518c0,0,-209,0,-487,322l53,49c0,0,120,-129,210,-193c0,0,90,-65,177,-65c0,0,72,0,113,39c0,0,41,40,41,92c0,0,0,75,-78,105L564,-286l-90,98c0,0,62,96,169,96L605,37C605,37,552,18,498,18c0,0,-151,0,-288,115C210,133,73,248,73,388c0,0,0,113,84,184c0,0,84,71,222,73H524V822H0l-45,76l14,31H842l46,-76L874,822H567l84,-73V519l-3,2l3,-3H408c0,0,-93,0,-153,-52c0,0,-59,-52,-59,-128c0,0,0,-121,110,-188c0,0,53,-17,105,-17c0,0,92,0,153,43L535,318l101,49L773,203c0,0,-20,-67,-87,-122l61,-204c0,0,52,-32,83,-87c0,0,32,-55,32,-116c0,0,0,-85,-61,-139c0,0,-60,-53,-149,-53Z"
id="f6_mv"
transform="scale(0.001,-0.001)"/>

<path d="M254,-30c0,0,-84,17,-116,93c0,0,13,84,97,126c0,0,100,-35,112,-110C347,79,324,3,254,-30Zm0,468c0,0,-84,17,-116,94c0,0,13,84,97,126c0,0,100,-35,112,-110c0,0,-23,-76,-93,-110Z"
id="f6_y"
transform="scale(0.001,-0.001)"/>

<path d="M717,-303L633,35L234,-230l-84,77L437,24c0,0,-144,23,-243,128c0,0,-99,105,-99,222c0,0,0,112,84,183c0,0,84,71,221,72H545V822H21l-44,76l13,31H863l46,-76L895,822H607l65,-58V504l-3,2l3,-3H429c0,0,-94,0,-153,-53c0,0,-59,-53,-59,-132c0,0,0,-49,27,-100c0,0,28,-50,83,-84c0,0,44,-15,95,-15c0,0,90,0,162,46L556,303l101,48L794,188c0,0,-13,-49,-96,-118L854,-250L717,-303Z"
id="f6_e3"
transform="scale(0.001,-0.001)"/>

<path d="M900,298c0,0,32,73,32,159c0,0,0,110,-38,160c0,0,-40,31,-81,31c0,0,-48,0,-80,-35c0,0,-33,-35,-33,-89c0,0,0,-118,200,-226ZM588,-60c0,0,-154,0,-274,93c0,0,-120,94,-120,207c0,0,0,50,28,92C222,332,61,440,61,552c0,0,0,71,56,122c0,0,56,50,169,50H417l64,-98L463,600H333c0,0,-157,-1,-157,-99c0,0,0,-59,88,-124c0,0,68,52,164,52c0,0,38,0,79,-9l71,-88L558,299c0,0,-46,10,-81,10c0,0,-75,0,-116,-36c0,0,-40,-36,-40,-88c0,0,0,-78,73,-130c0,0,54,-17,109,-17c0,0,114,0,211,54c0,0,97,53,154,145c0,0,-156,96,-223,173c0,0,-67,77,-67,155c0,0,0,72,48,124c0,0,48,52,126,55v78H0l-45,76l14,31H1123l46,-76l-14,-31H805l66,-58V717c0,0,76,-40,124,-124c0,0,47,-84,47,-193c0,0,0,-188,-133,-324C909,76,776,-60,588,-60Z"
id="f6_bf"
transform="scale(0.001,-0.001)"/>

<path d="M397,102c0,0,52,0,85,36c0,0,33,35,33,87c0,0,0,88,-110,221C405,446,296,307,296,217c0,0,0,-61,39,-101c0,0,35,-14,62,-14ZM451,3C451,3,351,3,268,88c0,0,-83,85,-83,182c0,0,0,107,131,274c0,0,-146,153,-346,324l61,69L81,891L373,610c0,0,87,99,318,330l82,-92C773,848,550,623,461,516c0,0,173,-188,173,-322c0,0,0,-87,-53,-139C581,55,527,3,451,3Z"
id="f6_na"
transform="scale(0.001,-0.001)"/>

<path d="M368,344c0,0,90,0,155,73V822H150l67,-58V438c0,0,46,-94,151,-94ZM613,-49L523,8V251c0,0,-48,-28,-103,-28c0,0,-122,0,-227,112C193,335,89,448,89,590V822H0l-45,76l14,31H1150l46,-76l-13,-31H584l65,-58V533c0,0,101,95,211,95c0,0,98,0,170,-79c0,0,73,-78,73,-185c0,0,0,-179,-225,-330L785,139c0,0,219,153,219,269c0,0,0,43,-26,75c0,0,-26,32,-80,32c0,0,-120,0,-249,-159V-39L613,-49Z"
id="f6_bw"
transform="scale(0.001,-0.001)"/>

<path d="M548,-505c0,0,-236,0,-430,301l49,42c0,0,151,-234,336,-234c0,0,82,0,139,40c0,0,58,39,58,99c0,0,0,30,-19,66L455,-263c0,0,-97,15,-173,90c0,0,-76,75,-76,153c0,0,0,73,69,118c0,0,-112,84,-222,252l57,41c0,0,162,-267,385,-267c0,0,96,0,154,48c0,0,58,48,58,114c0,0,0,41,-23,78L440,283c0,0,-108,15,-196,98c0,0,-88,83,-88,167c0,0,0,68,60,114c0,0,61,45,161,47H625V822H0l-45,76l14,31H906l46,-76L938,822H678l66,-58V585H428c0,0,-72,0,-118,-27c0,0,-46,-26,-46,-68c0,0,0,-41,60,-84l261,83c0,0,101,-21,167,-94c0,0,67,-73,67,-161c0,0,0,-96,-83,-162C736,72,652,6,530,6c0,0,-67,0,-134,25c0,0,-40,-13,-64,-40c0,0,-23,-28,-23,-60c0,0,0,-45,44,-78l244,73c0,0,95,-20,149,-88c0,0,55,-68,55,-143c0,0,0,-85,-71,-142c0,0,-72,-58,-182,-58Z"
id="f6_g4"
transform="scale(0.001,-0.001)"/>

<path d="M-253,-363c0,0,-194,0,-440,288l48,52c0,0,108,-118,192,-176c0,0,83,-58,159,-58c0,0,64,0,101,36c0,0,37,37,37,85c0,0,0,68,-65,91L-327,-152l-83,89c0,0,54,86,153,86c0,0,81,0,140,-61c0,0,58,-62,58,-146c0,0,0,-78,-55,-128c0,0,-55,-51,-139,-51Z"
id="f6_oe"
transform="scale(0.001,-0.001)"/>

<path d="M228,-49L138,8V822H0l-45,76l14,31H136c0,0,-173,353,-364,353c0,0,-75,0,-119,-44c0,0,-45,-45,-45,-106c0,0,0,-69,48,-128l-43,-32c0,0,-124,113,-124,224c0,0,0,87,67,146c0,0,68,59,167,59c0,0,150,0,283,-130c0,0,135,-130,219,-342H402l46,-76L434,822H199l65,-58V-39L228,-49Z"
id="f6_ob"
transform="scale(0.001,-0.001)"/>

<path d="M675,-45L556,338c0,0,-73,-107,-189,-107c0,0,-71,0,-146,47c0,0,-76,47,-118,128c0,0,-42,80,-42,173c0,0,0,165,107,371L287,903C287,903,177,663,177,516c0,0,0,-79,34,-137c0,0,38,-38,95,-38c0,0,59,0,113,42c0,0,55,42,76,104L445,636l32,41L636,637c0,0,4,-73,-29,-168L761,2L749,-22L675,-45Z"
id="f6_nb"
transform="scale(0.001,-0.001)"/>

<path d="M725,307c0,0,-95,0,-218,78c0,0,-123,78,-188,78c0,0,-54,0,-95,-34c0,0,-41,-34,-73,-100L93,362c0,0,38,88,101,146c0,0,63,59,148,59c0,0,90,0,214,-78c0,0,124,-79,188,-79c0,0,63,0,106,34c0,0,42,33,85,104l60,-40c0,0,-32,-66,-101,-134c0,0,-70,-67,-169,-67Z"
id="f7_4r"
transform="scale(0.001,-0.001)"/>

<path d="M420,489c0,0,93,0,153,65c0,0,60,65,60,181c0,0,0,116,-62,184c0,0,-61,68,-148,68c0,0,-90,0,-156,-74c0,0,-66,-73,-66,-189c0,0,0,-105,63,-170c0,0,63,-65,156,-65ZM391,-18c0,0,-128,0,-209,71c0,0,-82,71,-98,200l129,12c0,0,17,-91,63,-132c0,0,46,-41,118,-41c0,0,62,0,109,28c0,0,47,29,76,76c0,0,30,47,50,128c0,0,20,80,20,164c0,0,0,9,-1,27c0,0,-40,-65,-110,-105c0,0,-69,-39,-151,-39c0,0,-135,0,-229,98c0,0,-94,99,-94,260c0,0,0,166,98,268c0,0,98,101,245,101c0,0,107,0,195,-57c0,0,89,-58,134,-164c0,0,46,-106,46,-308c0,0,0,-209,-45,-334C737,235,691,111,602,46c0,0,-90,-64,-211,-64Z"
id="f8_t"
transform="scale(0.001,-0.001)"/>


</defs>
</svg>