<?xml version="1.0" encoding="UTF-8" standalone="no"?>
<!DOCTYPE svg PUBLIC "-//W3C//DTD SVG 1.1//EN"
"http://www.w3.org/Graphics/SVG/1.1/DTD/svg11.dtd">
<svg viewBox="0 0 641 910" version="1.1" xmlns="http://www.w3.org/2000/svg" xmlns:xlink="http://www.w3.org/1999/xlink">
<defs>
<clipPath id="c0_76"><path d="M0,909.8V0H641.7V909.8Z"/></clipPath>
<clipPath id="c1_76"><path d="M0,908.6V0H641.7V908.6Z"/></clipPath>
<style type="text/css"><![CDATA[
.g0_76{
fill: #FFFFFF;
}
.g1_76{
}
]]></style>
</defs>
<path d="M0,0H641.7V909.8H0V0Z" class="g0_76"/>
<path d="M0,0H641.7V909.8H0V0Z" class="g0_76"/>
<g clip-path="url(#c0_76)">
<path d="M0,-62775.5H641.7V43670H0V-62775.5Z" class="g0_76"/>
</g>
<path d="M0,0H641.7V908.6H0V0Z" class="g0_76"/>
<path d="M19.5,60.7H602.7v1.2H19.5V60.7Z" class="g1_76"/>
<g clip-path="url(#c1_76)">
<path d="M0,61.9H641.7V909.8H0V61.9Z" class="g0_76"/>
<g fill="#000000" >
<use xlink:href="#f5_c7" transform="matrix(14,0,0,14,260.4,82.5)" />
<use xlink:href="#f5_d4" transform="matrix(14,0,0,14,274,82.5)" />
<use xlink:href="#f5_bb" transform="matrix(14,0,0,14,274.1,82.5)" />
<use xlink:href="#f5_ct" transform="matrix(14,0,0,14,288.3,82.5)" />
<use xlink:href="#f5_be" transform="matrix(14,0,0,14,300.4,82.5)" />
<use xlink:href="#f5_ct" transform="matrix(14,0,0,14,315.8,82.5)" />
<use xlink:href="#f5_c3" transform="matrix(14,0,0,14,322.3,82.5)" />
<use xlink:href="#f5_d8" transform="matrix(14,0,0,14,338.6,82.5)" />
<use xlink:href="#f5_c1" transform="matrix(14,0,0,14,350.7,82.5)" />
<use xlink:href="#f5_d4" transform="matrix(14,0,0,14,360.6,82.5)" />
<use xlink:href="#f6_b9" transform="matrix(14,0,0,14,142.4,116.9)" />
<use xlink:href="#f6_d4" transform="matrix(14,0,0,14,153.5,116.9)" />
<use xlink:href="#f6_c7" transform="matrix(14,0,0,14,163.6,116.9)" />
<use xlink:href="#f6_d4" transform="matrix(14,0,0,14,175.8,116.9)" />
<use xlink:href="#f6_bb" transform="matrix(14,0,0,14,175.6,116.9)" />
<use xlink:href="#f6_ct" transform="matrix(14,0,0,14,188.2,116.9)" />
<use xlink:href="#f6_be" transform="matrix(14,0,0,14,199.5,116.9)" />
<use xlink:href="#f6_ct" transform="matrix(14,0,0,14,213.5,116.9)" />
<use xlink:href="#f6_c3" transform="matrix(14,0,0,14,219.1,116.9)" />
<use xlink:href="#f6_d8" transform="matrix(14,0,0,14,233.8,116.9)" />
<use xlink:href="#f6_c1" transform="matrix(14,0,0,14,245.1,116.9)" />
<use xlink:href="#f6_d4" transform="matrix(14,0,0,14,253.1,116.9)" />
<use xlink:href="#f6_ef" transform="matrix(14,0,0,14,259.2,116.9)" />
<use xlink:href="#f6_cv" transform="matrix(14,0,0,14,273.4,116.9)" />
<use xlink:href="#f6_bv" transform="matrix(14,0,0,14,284.7,116.9)" />
<use xlink:href="#f6_ct" transform="matrix(14,0,0,14,296.5,116.9)" />
<use xlink:href="#f6_nn" transform="matrix(14,0,0,14,302.1,116.9)" />
<use xlink:href="#f6_ke" transform="matrix(14,0,0,14,302.1,116.9)" />
<use xlink:href="#f6_dr" transform="matrix(14,0,0,14,316.3,116.9)" />
<use xlink:href="#f6_by" transform="matrix(14,0,0,14,322,116.9)" />
<use xlink:href="#f6_d5" transform="matrix(14,0,0,14,336.1,116.9)" />
<use xlink:href="#f6_c1" transform="matrix(14,0,0,14,336,116.9)" />
<use xlink:href="#f6_c7" transform="matrix(14,0,0,14,344.3,116.9)" />
<use xlink:href="#f6_br" transform="matrix(14,0,0,14,362.1,116.9)" />
<use xlink:href="#f6_c1" transform="matrix(14,0,0,14,373.8,116.9)" />
<use xlink:href="#f6_bx" transform="matrix(14,0,0,14,382.1,116.9)" />
<use xlink:href="#f6_ct" transform="matrix(14,0,0,14,394.4,116.9)" />
<use xlink:href="#f6_c1" transform="matrix(14,0,0,14,400,116.9)" />
<use xlink:href="#f6_c3" transform="matrix(14,0,0,14,414.1,116.9)" />
<use xlink:href="#f6_bb" transform="matrix(14,0,0,14,428.8,116.9)" />
<use xlink:href="#f6_ct" transform="matrix(14,0,0,14,441.4,116.9)" />
<use xlink:href="#f6_c0" transform="matrix(14,0,0,14,447,116.9)" />
<use xlink:href="#f6_d8" transform="matrix(14,0,0,14,459.6,116.9)" />
<use xlink:href="#f6_c1" transform="matrix(14,0,0,14,470.9,116.9)" />
<use xlink:href="#f6_d4" transform="matrix(14,0,0,14,478.8,116.9)" />
<use xlink:href="#f6_c7" transform="matrix(14,0,0,14,252.4,151.3)" />
<use xlink:href="#f6_d4" transform="matrix(14,0,0,14,264.6,151.3)" />
<use xlink:href="#f6_bb" transform="matrix(14,0,0,14,264.5,151.3)" />
<use xlink:href="#f6_ct" transform="matrix(14,0,0,14,277.1,151.3)" />
<use xlink:href="#f6_be" transform="matrix(14,0,0,14,288.4,151.3)" />
<use xlink:href="#f6_ct" transform="matrix(14,0,0,14,302.3,151.3)" />
<use xlink:href="#f6_c3" transform="matrix(14,0,0,14,308,151.3)" />
<use xlink:href="#f6_d8" transform="matrix(14,0,0,14,322.7,151.3)" />
<use xlink:href="#f6_c1" transform="matrix(14,0,0,14,334,151.3)" />
<use xlink:href="#f6_d4" transform="matrix(14,0,0,14,341.9,151.3)" />
<use xlink:href="#f6_pc" transform="matrix(14,0,0,14,342.3,151.3)" />
<use xlink:href="#f6_pc" transform="matrix(14,0,0,14,346.6,151.3)" />
<use xlink:href="#f6_pc" transform="matrix(14,0,0,14,350.9,151.3)" />
<use xlink:href="#f6_pc" transform="matrix(14,0,0,14,355.2,151.3)" />
<use xlink:href="#f6_pc" transform="matrix(14,0,0,14,359.4,151.3)" />
<use xlink:href="#f6_pc" transform="matrix(14,0,0,14,363.7,151.3)" />
<use xlink:href="#f6_bt" transform="matrix(14,0,0,14,139,185.6)" />
<use xlink:href="#f6_ct" transform="matrix(14,0,0,14,150.7,185.6)" />
<use xlink:href="#f6_b9" transform="matrix(14,0,0,14,156.3,185.6)" />
<use xlink:href="#f6_d8" transform="matrix(14,0,0,14,171.8,185.6)" />
<use xlink:href="#f6_ch" transform="matrix(14,0,0,14,177.4,185.6)" />
<use xlink:href="#f6_ct" transform="matrix(14,0,0,14,190.1,185.6)" />
<use xlink:href="#f6_cb" transform="matrix(14,0,0,14,201.4,185.6)" />
<use xlink:href="#f6_cw" transform="matrix(14,0,0,14,216.8,185.5)" />
<use xlink:href="#f6_bv" transform="matrix(14,0,0,14,227.6,185.6)" />
<use xlink:href="#f6_ct" transform="matrix(14,0,0,14,239.4,185.6)" />
<use xlink:href="#f6_nn" transform="matrix(14,0,0,14,245.1,185.6)" />
<use xlink:href="#f6_ke" transform="matrix(14,0,0,14,245.1,185.6)" />
<use xlink:href="#f6_dr" transform="matrix(14,0,0,14,259.3,185.6)" />
<use xlink:href="#f6_e6" transform="matrix(14,0,0,14,264.9,185.6)" />
<use xlink:href="#f6_by" transform="matrix(14,0,0,14,277,185.6)" />
<use xlink:href="#f6_cw" transform="matrix(14,0,0,14,291.5,185.5)" />
<use xlink:href="#f6_c1" transform="matrix(14,0,0,14,296.6,185.6)" />
<use xlink:href="#f6_d8" transform="matrix(14,0,0,14,305,185.6)" />
<use xlink:href="#f6_k" transform="matrix(14,0,0,14,316.3,185.6)" />
<use xlink:href="#f6_bt" transform="matrix(14,0,0,14,327.2,185.6)" />
<use xlink:href="#f6_ct" transform="matrix(14,0,0,14,338.9,185.6)" />
<use xlink:href="#f6_b9" transform="matrix(14,0,0,14,344.5,185.6)" />
<use xlink:href="#f6_d8" transform="matrix(14,0,0,14,360,185.6)" />
<use xlink:href="#f6_ch" transform="matrix(14,0,0,14,365.6,185.6)" />
<use xlink:href="#f6_ct" transform="matrix(14,0,0,14,378.3,185.6)" />
<use xlink:href="#f6_cb" transform="matrix(14,0,0,14,389.6,185.6)" />
<use xlink:href="#f6_cw" transform="matrix(14,0,0,14,405,185.5)" />
<use xlink:href="#f6_by" transform="matrix(14,0,0,14,410.1,185.6)" />
<use xlink:href="#f6_d4" transform="matrix(14,0,0,14,424.2,185.6)" />
<use xlink:href="#f6_n1" transform="matrix(14,0,0,14,424.1,185.6)" />
<use xlink:href="#f6_bg" transform="matrix(14,0,0,14,442.9,185.6)" />
<use xlink:href="#f6_cv" transform="matrix(14,0,0,14,457.2,185.6)" />
<use xlink:href="#f6_c1" transform="matrix(14,0,0,14,468.5,185.6)" />
<use xlink:href="#f6_d8" transform="matrix(14,0,0,14,476.8,185.6)" />
<use xlink:href="#f6_cc" transform="matrix(14,0,0,14,198.5,220)" />
<use xlink:href="#f6_d4" transform="matrix(14,0,0,14,210.5,220)" />
<use xlink:href="#f6_c3" transform="matrix(14,0,0,14,210.1,220)" />
<use xlink:href="#f6_d8" transform="matrix(14,0,0,14,224.8,220)" />
<use xlink:href="#f6_am" transform="matrix(14,0,0,14,236.1,220)" />
<use xlink:href="#f6_c0" transform="matrix(14,0,0,14,257.6,220)" />
<use xlink:href="#f6_d8" transform="matrix(14,0,0,14,270.2,220)" />
<use xlink:href="#f6_c1" transform="matrix(14,0,0,14,281.5,220)" />
<use xlink:href="#f6_d4" transform="matrix(14,0,0,14,289.4,220)" />
<use xlink:href="#f6_pc" transform="matrix(14,0,0,14,295.5,220)" />
<use xlink:href="#f6_pc" transform="matrix(14,0,0,14,299.8,220)" />
<use xlink:href="#f6_pc" transform="matrix(14,0,0,14,304,220)" />
<use xlink:href="#f6_pc" transform="matrix(14,0,0,14,308.3,220)" />
<use xlink:href="#f6_c7" transform="matrix(14,0,0,14,318.3,220)" />
<use xlink:href="#f6_d4" transform="matrix(14,0,0,14,330.5,220)" />
<use xlink:href="#f6_bb" transform="matrix(14,0,0,14,330.3,220)" />
<use xlink:href="#f6_ct" transform="matrix(14,0,0,14,343,220)" />
<use xlink:href="#f6_be" transform="matrix(14,0,0,14,354.2,220)" />
<use xlink:href="#f6_ct" transform="matrix(14,0,0,14,368.2,220)" />
<use xlink:href="#f6_c3" transform="matrix(14,0,0,14,373.8,220)" />
<use xlink:href="#f6_d8" transform="matrix(14,0,0,14,388.6,220)" />
<use xlink:href="#f6_c1" transform="matrix(14,0,0,14,399.8,220)" />
<use xlink:href="#f6_d4" transform="matrix(14,0,0,14,407.8,220)" />
<use xlink:href="#f6_pc" transform="matrix(14,0,0,14,413.9,220)" />
<use xlink:href="#f6_pc" transform="matrix(14,0,0,14,418.2,220)" />
<use xlink:href="#f6_bt" transform="matrix(14,0,0,14,153.8,288.8)" />
<use xlink:href="#f6_ct" transform="matrix(14,0,0,14,165.6,288.8)" />
<use xlink:href="#f6_b9" transform="matrix(14,0,0,14,171.2,288.8)" />
<use xlink:href="#f6_d8" transform="matrix(14,0,0,14,186.7,288.8)" />
<use xlink:href="#f6_ch" transform="matrix(14,0,0,14,192.3,288.8)" />
<use xlink:href="#f6_ct" transform="matrix(14,0,0,14,205,288.8)" />
<use xlink:href="#f6_bz" transform="matrix(14,0,0,14,216.3,288.8)" />
<use xlink:href="#f6_oz" transform="matrix(14,0,0,14,229.7,288.8)" />
<use xlink:href="#f6_bv" transform="matrix(14,0,0,14,235.3,288.8)" />
<use xlink:href="#f6_ct" transform="matrix(14,0,0,14,247.1,288.8)" />
<use xlink:href="#f6_nn" transform="matrix(14,0,0,14,252.8,288.8)" />
<use xlink:href="#f6_ke" transform="matrix(14,0,0,14,252.8,288.8)" />
<use xlink:href="#f6_dr" transform="matrix(14,0,0,14,267,288.8)" />
<use xlink:href="#f6_e6" transform="matrix(14,0,0,14,272.6,288.8)" />
<use xlink:href="#f6_by" transform="matrix(14,0,0,14,284.7,288.8)" />
<use xlink:href="#f6_cw" transform="matrix(14,0,0,14,299.2,288.6)" />
<use xlink:href="#f6_bt" transform="matrix(14,0,0,14,304.3,288.8)" />
<use xlink:href="#f6_d4" transform="matrix(14,0,0,14,316.2,288.8)" />
<use xlink:href="#f6_bl" transform="matrix(14,0,0,14,321.7,288.8)" />
<use xlink:href="#f6_ct" transform="matrix(14,0,0,14,334.1,288.8)" />
<use xlink:href="#f6_bl" transform="matrix(14,0,0,14,339.7,288.8)" />
<use xlink:href="#f6_c3" transform="matrix(14,0,0,14,357.7,288.8)" />
<use xlink:href="#f6_bb" transform="matrix(14,0,0,14,372.4,288.8)" />
<use xlink:href="#f6_ct" transform="matrix(14,0,0,14,385,288.8)" />
<use xlink:href="#f6_c0" transform="matrix(14,0,0,14,390.6,288.8)" />
<use xlink:href="#f6_d8" transform="matrix(14,0,0,14,403.2,288.8)" />
<use xlink:href="#f6_bg" transform="matrix(14,0,0,14,414.5,288.8)" />
<use xlink:href="#f6_d8" transform="matrix(14,0,0,14,428.7,288.8)" />
<use xlink:href="#f6_c1" transform="matrix(14,0,0,14,434.4,288.8)" />
<use xlink:href="#f6_ct" transform="matrix(14,0,0,14,442.7,288.8)" />
<use xlink:href="#f6_c1" transform="matrix(14,0,0,14,454,288.8)" />
<use xlink:href="#f6_d8" transform="matrix(14,0,0,14,462.4,288.8)" />
<use xlink:href="#f6_bt" transform="matrix(14,0,0,14,158.4,323.1)" />
<use xlink:href="#f6_ct" transform="matrix(14,0,0,14,170.1,323.1)" />
<use xlink:href="#f6_b9" transform="matrix(14,0,0,14,175.8,323.1)" />
<use xlink:href="#f6_d8" transform="matrix(14,0,0,14,191.3,323.1)" />
<use xlink:href="#f6_ch" transform="matrix(14,0,0,14,196.9,323.1)" />
<use xlink:href="#f6_ct" transform="matrix(14,0,0,14,209.6,323.1)" />
<use xlink:href="#f6_bz" transform="matrix(14,0,0,14,220.8,323.1)" />
<use xlink:href="#f6_oz" transform="matrix(14,0,0,14,234.3,323.1)" />
<use xlink:href="#f6_by" transform="matrix(14,0,0,14,239.9,323.1)" />
<use xlink:href="#f6_d4" transform="matrix(14,0,0,14,253.9,323.1)" />
<use xlink:href="#f6_n1" transform="matrix(14,0,0,14,253.8,323.1)" />
<use xlink:href="#f6_bg" transform="matrix(14,0,0,14,272.6,323.1)" />
<use xlink:href="#f6_cv" transform="matrix(14,0,0,14,286.9,323.1)" />
<use xlink:href="#f6_bt" transform="matrix(14,0,0,14,298.2,323.1)" />
<use xlink:href="#f6_d4" transform="matrix(14,0,0,14,310,323.1)" />
<use xlink:href="#f6_bl" transform="matrix(14,0,0,14,315.5,323.1)" />
<use xlink:href="#f6_ct" transform="matrix(14,0,0,14,327.9,323.1)" />
<use xlink:href="#f6_bl" transform="matrix(14,0,0,14,333.5,323.1)" />
<use xlink:href="#f6_c3" transform="matrix(14,0,0,14,351.5,323.1)" />
<use xlink:href="#f6_bb" transform="matrix(14,0,0,14,366.3,323.1)" />
<use xlink:href="#f6_ct" transform="matrix(14,0,0,14,378.9,323.1)" />
<use xlink:href="#f6_c0" transform="matrix(14,0,0,14,384.5,323.1)" />
<use xlink:href="#f6_d8" transform="matrix(14,0,0,14,397,323.1)" />
<use xlink:href="#f6_bg" transform="matrix(14,0,0,14,408.3,323.1)" />
<use xlink:href="#f6_d8" transform="matrix(14,0,0,14,422.6,323.1)" />
<use xlink:href="#f6_c1" transform="matrix(14,0,0,14,428.2,323.1)" />
<use xlink:href="#f6_ct" transform="matrix(14,0,0,14,436.6,323.1)" />
<use xlink:href="#f6_c1" transform="matrix(14,0,0,14,447.9,323.1)" />
<use xlink:href="#f6_d8" transform="matrix(14,0,0,14,456.3,323.1)" />
<use xlink:href="#f6_bg" transform="matrix(14,0,0,14,145.8,357.5)" />
<use xlink:href="#f6_c0" transform="matrix(14,0,0,14,160.1,357.5)" />
<use xlink:href="#f6_br" transform="matrix(14,0,0,14,178.3,357.5)" />
<use xlink:href="#f6_ct" transform="matrix(14,0,0,14,190,357.5)" />
<use xlink:href="#f6_br" transform="matrix(14,0,0,14,195.6,357.5)" />
<use xlink:href="#f6_ct" transform="matrix(14,0,0,14,207.3,357.5)" />
<use xlink:href="#f6_b9" transform="matrix(14,0,0,14,218.5,357.5)" />
<use xlink:href="#f6_oc" transform="matrix(14,0,0,14,234,357.5)" />
<use xlink:href="#f6_bg" transform="matrix(14,0,0,14,245.3,357.5)" />
<use xlink:href="#f6_c0" transform="matrix(14,0,0,14,259.6,357.5)" />
<use xlink:href="#f6_br" transform="matrix(14,0,0,14,277.8,357.5)" />
<use xlink:href="#f6_ct" transform="matrix(14,0,0,14,289.5,357.5)" />
<use xlink:href="#f6_br" transform="matrix(14,0,0,14,295.1,357.5)" />
<use xlink:href="#f6_ct" transform="matrix(14,0,0,14,306.8,357.5)" />
<use xlink:href="#f6_b9" transform="matrix(14,0,0,14,318.1,357.5)" />
<use xlink:href="#f6_oc" transform="matrix(14,0,0,14,333.6,357.5)" />
<use xlink:href="#f6_pd" transform="matrix(14,0,0,14,344.8,357.5)" />
<use xlink:href="#f6_n8" transform="matrix(14,0,0,14,352.4,357.5)" />
<use xlink:href="#f6_b9" transform="matrix(14,0,0,14,368.5,357.5)" />
<use xlink:href="#f6_c1" transform="matrix(14,0,0,14,384,357.5)" />
<use xlink:href="#f6_bp" transform="matrix(14,0,0,14,392.3,357.5)" />
<use xlink:href="#f6_ct" transform="matrix(14,0,0,14,404.7,357.5)" />
<use xlink:href="#f6_be" transform="matrix(14,0,0,14,421.6,357.5)" />
<use xlink:href="#f6_ct" transform="matrix(14,0,0,14,435.6,357.5)" />
<use xlink:href="#f6_c3" transform="matrix(14,0,0,14,441.2,357.5)" />
<use xlink:href="#f6_d8" transform="matrix(14,0,0,14,455.9,357.5)" />
<use xlink:href="#f6_c1" transform="matrix(14,0,0,14,467.2,357.5)" />
<use xlink:href="#f6_d4" transform="matrix(14,0,0,14,475.2,357.5)" />
<use xlink:href="#f6_cu" transform="matrix(14,0,0,14,166.4,391.9)" />
<use xlink:href="#f6_cc" transform="matrix(14,0,0,14,172.1,391.9)" />
<use xlink:href="#f6_c3" transform="matrix(14,0,0,14,183.7,391.9)" />
<use xlink:href="#f6_nt" transform="matrix(14,0,0,14,204.1,391.9)" />
<use xlink:href="#f6_bz" transform="matrix(14,0,0,14,209.7,391.9)" />
<use xlink:href="#f6_c3" transform="matrix(14,0,0,14,223,391.9)" />
<use xlink:href="#f6_be" transform="matrix(14,0,0,14,243.4,391.9)" />
<use xlink:href="#f6_ct" transform="matrix(14,0,0,14,257.4,391.9)" />
<use xlink:href="#f6_c3" transform="matrix(14,0,0,14,263,391.9)" />
<use xlink:href="#f6_d8" transform="matrix(14,0,0,14,277.7,391.9)" />
<use xlink:href="#f6_c1" transform="matrix(14,0,0,14,289,391.9)" />
<use xlink:href="#f6_d4" transform="matrix(14,0,0,14,297,391.9)" />
<use xlink:href="#f6_pc" transform="matrix(14,0,0,14,303,391.9)" />
<use xlink:href="#f6_pc" transform="matrix(14,0,0,14,307.3,391.9)" />
<use xlink:href="#f6_pc" transform="matrix(14,0,0,14,311.6,391.9)" />
<use xlink:href="#f6_pc" transform="matrix(14,0,0,14,315.9,391.9)" />
<use xlink:href="#f6_b9" transform="matrix(14,0,0,14,325.8,391.9)" />
<use xlink:href="#f6_d4" transform="matrix(14,0,0,14,336.9,391.9)" />
<use xlink:href="#f6_c7" transform="matrix(14,0,0,14,347,391.9)" />
<use xlink:href="#f6_d4" transform="matrix(14,0,0,14,359.2,391.9)" />
<use xlink:href="#f6_bb" transform="matrix(14,0,0,14,359,391.9)" />
<use xlink:href="#f6_ct" transform="matrix(14,0,0,14,371.6,391.9)" />
<use xlink:href="#f6_be" transform="matrix(14,0,0,14,382.9,391.9)" />
<use xlink:href="#f6_ct" transform="matrix(14,0,0,14,396.9,391.9)" />
<use xlink:href="#f6_c3" transform="matrix(14,0,0,14,402.5,391.9)" />
<use xlink:href="#f6_d8" transform="matrix(14,0,0,14,417.2,391.9)" />
<use xlink:href="#f6_c1" transform="matrix(14,0,0,14,428.5,391.9)" />
<use xlink:href="#f6_d4" transform="matrix(14,0,0,14,436.5,391.9)" />
<use xlink:href="#f6_pc" transform="matrix(14,0,0,14,442.6,391.9)" />
<use xlink:href="#f6_pc" transform="matrix(14,0,0,14,446.9,391.9)" />
<use xlink:href="#f6_pc" transform="matrix(14,0,0,14,451.1,391.9)" />
<use xlink:href="#f6_ba" transform="matrix(14,0,0,14,144.7,460.6)" />
<use xlink:href="#f6_cx" transform="matrix(14,0,0,14,161.4,461.5)" />
<use xlink:href="#f6_bx" transform="matrix(14,0,0,14,161.4,460.6)" />
<use xlink:href="#f6_cb" transform="matrix(14,0,0,14,179.4,460.6)" />
<use xlink:href="#f6_iz" transform="matrix(14,0,0,14,194.2,460.6)" />
<use xlink:href="#f6_d8" transform="matrix(14,0,0,14,216.5,460.6)" />
<use xlink:href="#f6_br" transform="matrix(14,0,0,14,227.8,460.6)" />
<use xlink:href="#f6_c1" transform="matrix(14,0,0,14,239.4,460.6)" />
<use xlink:href="#f6_bx" transform="matrix(14,0,0,14,247.8,460.6)" />
<use xlink:href="#f6_ct" transform="matrix(14,0,0,14,260.1,460.6)" />
<use xlink:href="#f6_c1" transform="matrix(14,0,0,14,265.7,460.6)" />
<use xlink:href="#f6_bg" transform="matrix(14,0,0,14,279.8,460.6)" />
<use xlink:href="#f6_d8" transform="matrix(14,0,0,14,294,460.6)" />
<use xlink:href="#f6_br" transform="matrix(14,0,0,14,305.3,460.6)" />
<use xlink:href="#f6_d4" transform="matrix(14,0,0,14,316.5,460.6)" />
<use xlink:href="#f6_ba" transform="matrix(14,0,0,14,317,460.6)" />
<use xlink:href="#f6_d4" transform="matrix(14,0,0,14,333.8,460.6)" />
<use xlink:href="#f6_k" transform="matrix(14,0,0,14,333.7,460.6)" />
<use xlink:href="#f6_br" transform="matrix(14,0,0,14,344.6,460.6)" />
<use xlink:href="#f6_d4" transform="matrix(14,0,0,14,355.8,460.6)" />
<use xlink:href="#f6_ba" transform="matrix(14,0,0,14,356.2,460.6)" />
<use xlink:href="#f6_bp" transform="matrix(14,0,0,14,373,460.6)" />
<use xlink:href="#f6_d8" transform="matrix(14,0,0,14,385.3,460.6)" />
<use xlink:href="#f6_cc" transform="matrix(14,0,0,14,396.6,460.6)" />
<use xlink:href="#f6_cv" transform="matrix(14,0,0,14,408.2,460.6)" />
<use xlink:href="#f6_c1" transform="matrix(14,0,0,14,419.5,460.6)" />
<use xlink:href="#f6_cc" transform="matrix(14,0,0,14,427.8,460.6)" />
<use xlink:href="#f6_bg" transform="matrix(14,0,0,14,445.1,460.6)" />
<use xlink:href="#f6_ct" transform="matrix(14,0,0,14,459.4,460.6)" />
<use xlink:href="#f6_c7" transform="matrix(14,0,0,14,465,460.6)" />
<use xlink:href="#f6_d4" transform="matrix(14,0,0,14,477.2,460.6)" />
<use xlink:href="#f6_ba" transform="matrix(14,0,0,14,144.7,495)" />
<use xlink:href="#f6_cx" transform="matrix(14,0,0,14,161.4,495.9)" />
<use xlink:href="#f6_bx" transform="matrix(14,0,0,14,161.4,495)" />
<use xlink:href="#f6_cb" transform="matrix(14,0,0,14,179.4,495)" />
<use xlink:href="#f6_iz" transform="matrix(14,0,0,14,194.2,495)" />
<use xlink:href="#f6_d8" transform="matrix(14,0,0,14,216.5,495)" />
<use xlink:href="#f6_br" transform="matrix(14,0,0,14,227.8,495)" />
<use xlink:href="#f6_c1" transform="matrix(14,0,0,14,239.4,495)" />
<use xlink:href="#f6_bx" transform="matrix(14,0,0,14,247.8,495)" />
<use xlink:href="#f6_ct" transform="matrix(14,0,0,14,260.1,495)" />
<use xlink:href="#f6_c1" transform="matrix(14,0,0,14,265.7,495)" />
<use xlink:href="#f6_bg" transform="matrix(14,0,0,14,279.8,495)" />
<use xlink:href="#f6_d8" transform="matrix(14,0,0,14,294,495)" />
<use xlink:href="#f6_br" transform="matrix(14,0,0,14,305.3,495)" />
<use xlink:href="#f6_d4" transform="matrix(14,0,0,14,316.5,495)" />
<use xlink:href="#f6_ba" transform="matrix(14,0,0,14,317,495)" />
<use xlink:href="#f6_d4" transform="matrix(14,0,0,14,333.8,495)" />
<use xlink:href="#f6_k" transform="matrix(14,0,0,14,333.7,495)" />
<use xlink:href="#f6_br" transform="matrix(14,0,0,14,344.6,495)" />
<use xlink:href="#f6_d4" transform="matrix(14,0,0,14,355.8,495)" />
<use xlink:href="#f6_ba" transform="matrix(14,0,0,14,356.2,495)" />
<use xlink:href="#f6_bp" transform="matrix(14,0,0,14,373,495)" />
<use xlink:href="#f6_d8" transform="matrix(14,0,0,14,385.3,495)" />
<use xlink:href="#f6_cc" transform="matrix(14,0,0,14,396.6,495)" />
<use xlink:href="#f6_cv" transform="matrix(14,0,0,14,408.2,495)" />
<use xlink:href="#f6_c1" transform="matrix(14,0,0,14,419.5,495)" />
<use xlink:href="#f6_cc" transform="matrix(14,0,0,14,427.8,495)" />
<use xlink:href="#f6_bg" transform="matrix(14,0,0,14,445.1,495)" />
<use xlink:href="#f6_ct" transform="matrix(14,0,0,14,459.4,495)" />
<use xlink:href="#f6_c7" transform="matrix(14,0,0,14,465,495)" />
<use xlink:href="#f6_d4" transform="matrix(14,0,0,14,477.2,495)" />
<use xlink:href="#f6_n0" transform="matrix(14,0,0,14,161.9,529.4)" />
<use xlink:href="#f6_b9" transform="matrix(14,0,0,14,175,529.4)" />
<use xlink:href="#f6_bt" transform="matrix(14,0,0,14,190.5,529.4)" />
<use xlink:href="#f6_ct" transform="matrix(14,0,0,14,202.2,529.4)" />
<use xlink:href="#f6_bv" transform="matrix(14,0,0,14,213.5,529.4)" />
<use xlink:href="#f6_ct" transform="matrix(14,0,0,14,225.4,529.4)" />
<use xlink:href="#f6_c7" transform="matrix(14,0,0,14,231,529.4)" />
<use xlink:href="#f6_d4" transform="matrix(14,0,0,14,243.2,529.4)" />
<use xlink:href="#f6_bt" transform="matrix(14,0,0,14,248.7,529.4)" />
<use xlink:href="#f6_ct" transform="matrix(14,0,0,14,260.5,529.4)" />
<use xlink:href="#f6_be" transform="matrix(14,0,0,14,266.1,529.4)" />
<use xlink:href="#f6_bo" transform="matrix(14,0,0,14,280.1,529.4)" />
<use xlink:href="#f6_c3" transform="matrix(14,0,0,14,300.1,529.4)" />
<use xlink:href="#f6_ct" transform="matrix(14,0,0,14,314.8,529.4)" />
<use xlink:href="#f6_bb" transform="matrix(14,0,0,14,320.4,529.4)" />
<use xlink:href="#f6_d4" transform="matrix(14,0,0,14,333.2,529.4)" />
<use xlink:href="#f6_pd" transform="matrix(14,0,0,14,338.7,529.4)" />
<use xlink:href="#f6_n8" transform="matrix(14,0,0,14,346.2,529.4)" />
<use xlink:href="#f6_by" transform="matrix(14,0,0,14,362.3,529.4)" />
<use xlink:href="#f6_l1" transform="matrix(14,0,0,14,376.3,529.4)" />
<use xlink:href="#f6_bp" transform="matrix(14,0,0,14,388.1,529.4)" />
<use xlink:href="#f6_d8" transform="matrix(14,0,0,14,400.5,529.4)" />
<use xlink:href="#f6_cb" transform="matrix(14,0,0,14,411.7,529.4)" />
<use xlink:href="#f6_ct" transform="matrix(14,0,0,14,426.6,529.4)" />
<use xlink:href="#f6_bb" transform="matrix(14,0,0,14,432.2,529.4)" />
<use xlink:href="#f6_d5" transform="matrix(14,0,0,14,445,529.4)" />
<use xlink:href="#f6_c1" transform="matrix(14,0,0,14,450.5,529.4)" />
<use xlink:href="#f6_d4" transform="matrix(14,0,0,14,458.5,529.4)" />
<use xlink:href="#f6_cu" transform="matrix(14,0,0,14,168.7,563.8)" />
<use xlink:href="#f6_cc" transform="matrix(14,0,0,14,174.4,563.8)" />
<use xlink:href="#f6_c3" transform="matrix(14,0,0,14,186,563.8)" />
<use xlink:href="#f6_nt" transform="matrix(14,0,0,14,206.3,563.8)" />
<use xlink:href="#f6_bz" transform="matrix(14,0,0,14,212,563.8)" />
<use xlink:href="#f6_c3" transform="matrix(14,0,0,14,225.3,563.8)" />
<use xlink:href="#f6_be" transform="matrix(14,0,0,14,245.7,563.8)" />
<use xlink:href="#f6_ct" transform="matrix(14,0,0,14,259.7,563.8)" />
<use xlink:href="#f6_c3" transform="matrix(14,0,0,14,265.3,563.8)" />
<use xlink:href="#f6_d8" transform="matrix(14,0,0,14,280,563.8)" />
<use xlink:href="#f6_c1" transform="matrix(14,0,0,14,291.3,563.8)" />
<use xlink:href="#f6_d4" transform="matrix(14,0,0,14,299.2,563.8)" />
<use xlink:href="#f6_pc" transform="matrix(14,0,0,14,305.3,563.8)" />
<use xlink:href="#f6_pc" transform="matrix(14,0,0,14,309.6,563.8)" />
<use xlink:href="#f6_pc" transform="matrix(14,0,0,14,313.9,563.8)" />
<use xlink:href="#f6_b9" transform="matrix(14,0,0,14,323.8,563.8)" />
<use xlink:href="#f6_d4" transform="matrix(14,0,0,14,334.9,563.8)" />
<use xlink:href="#f6_c7" transform="matrix(14,0,0,14,345,563.8)" />
<use xlink:href="#f6_d4" transform="matrix(14,0,0,14,357.2,563.8)" />
<use xlink:href="#f6_bb" transform="matrix(14,0,0,14,357.1,563.8)" />
<use xlink:href="#f6_ct" transform="matrix(14,0,0,14,369.7,563.8)" />
<use xlink:href="#f6_be" transform="matrix(14,0,0,14,381,563.8)" />
<use xlink:href="#f6_ct" transform="matrix(14,0,0,14,394.9,563.8)" />
<use xlink:href="#f6_c3" transform="matrix(14,0,0,14,400.6,563.8)" />
<use xlink:href="#f6_d8" transform="matrix(14,0,0,14,415.3,563.8)" />
<use xlink:href="#f6_c1" transform="matrix(14,0,0,14,426.5,563.8)" />
<use xlink:href="#f6_d4" transform="matrix(14,0,0,14,434.5,563.8)" />
<use xlink:href="#f6_pc" transform="matrix(14,0,0,14,440.6,563.8)" />
<use xlink:href="#f6_pc" transform="matrix(14,0,0,14,444.9,563.8)" />
<use xlink:href="#f6_pc" transform="matrix(14,0,0,14,449.1,563.8)" />
<use xlink:href="#f6_bv" transform="matrix(14,0,0,14,161.9,632.5)" />
<use xlink:href="#f6_ct" transform="matrix(14,0,0,14,173.7,632.5)" />
<use xlink:href="#f6_nn" transform="matrix(14,0,0,14,179.4,632.5)" />
<use xlink:href="#f6_ke" transform="matrix(14,0,0,14,179.4,632.5)" />
<use xlink:href="#f6_dr" transform="matrix(14,0,0,14,193.5,632.5)" />
<use xlink:href="#f6_e6" transform="matrix(14,0,0,14,199.2,632.5)" />
<use xlink:href="#f6_by" transform="matrix(14,0,0,14,211.3,632.5)" />
<use xlink:href="#f6_cw" transform="matrix(14,0,0,14,225.8,632.4)" />
<use xlink:href="#f6_bx" transform="matrix(14,0,0,14,230.9,632.5)" />
<use xlink:href="#f6_d5" transform="matrix(14,0,0,14,243.3,632.5)" />
<use xlink:href="#f6_bl" transform="matrix(14,0,0,14,243.2,632.5)" />
<use xlink:href="#f6_ct" transform="matrix(14,0,0,14,255.6,632.5)" />
<use xlink:href="#f6_bz" transform="matrix(14,0,0,14,266.8,632.5)" />
<use xlink:href="#f6_cw" transform="matrix(14,0,0,14,280.7,632.4)" />
<use xlink:href="#f6_m1" transform="matrix(14,0,0,14,280.2,632.5)" />
<use xlink:href="#f6_b9" transform="matrix(14,0,0,14,289.3,632.5)" />
<use xlink:href="#f6_ct" transform="matrix(14,0,0,14,304.8,632.5)" />
<use xlink:href="#f6_c7" transform="matrix(14,0,0,14,310.4,632.5)" />
<use xlink:href="#f6_d4" transform="matrix(14,0,0,14,322.6,632.5)" />
<use xlink:href="#f6_bz" transform="matrix(14,0,0,14,328.2,632.5)" />
<use xlink:href="#f6_dj" transform="matrix(14,0,0,14,335.6,632.9)" />
<use xlink:href="#f6_br" transform="matrix(14,0,0,14,341.5,632.5)" />
<use xlink:href="#f6_bz" transform="matrix(14,0,0,14,358.8,632.5)" />
<use xlink:href="#f6_dj" transform="matrix(14,0,0,14,366.3,632.9)" />
<use xlink:href="#f6_br" transform="matrix(14,0,0,14,372.2,632.5)" />
<use xlink:href="#f6_cc" transform="matrix(14,0,0,14,389.5,632.5)" />
<use xlink:href="#f6_d9" transform="matrix(14,0,0,14,401.1,632.5)" />
<use xlink:href="#f6_c3" transform="matrix(14,0,0,14,406.7,632.5)" />
<use xlink:href="#f6_d4" transform="matrix(14,0,0,14,421.6,632.5)" />
<use xlink:href="#f6_cc" transform="matrix(14,0,0,14,427.1,632.5)" />
<use xlink:href="#f6_d9" transform="matrix(14,0,0,14,438.7,632.5)" />
<use xlink:href="#f6_c3" transform="matrix(14,0,0,14,444.3,632.5)" />
<use xlink:href="#f6_d4" transform="matrix(14,0,0,14,459.2,632.5)" />
<use xlink:href="#f6_by" transform="matrix(14,0,0,14,167.6,666.9)" />
<use xlink:href="#f6_d4" transform="matrix(14,0,0,14,181.7,666.9)" />
<use xlink:href="#f6_n1" transform="matrix(14,0,0,14,181.6,666.9)" />
<use xlink:href="#f6_bg" transform="matrix(14,0,0,14,200.4,666.9)" />
<use xlink:href="#f6_cv" transform="matrix(14,0,0,14,214.6,666.9)" />
<use xlink:href="#f6_bx" transform="matrix(14,0,0,14,225.9,666.9)" />
<use xlink:href="#f6_d5" transform="matrix(14,0,0,14,238.3,666.9)" />
<use xlink:href="#f6_bl" transform="matrix(14,0,0,14,238.2,666.9)" />
<use xlink:href="#f6_ct" transform="matrix(14,0,0,14,250.6,666.9)" />
<use xlink:href="#f6_bz" transform="matrix(14,0,0,14,261.8,666.9)" />
<use xlink:href="#f6_cw" transform="matrix(14,0,0,14,275.7,666.8)" />
<use xlink:href="#f6_m1" transform="matrix(14,0,0,14,275.2,666.9)" />
<use xlink:href="#f6_b9" transform="matrix(14,0,0,14,284.3,666.9)" />
<use xlink:href="#f6_ct" transform="matrix(14,0,0,14,299.8,666.9)" />
<use xlink:href="#f6_c7" transform="matrix(14,0,0,14,305.4,666.9)" />
<use xlink:href="#f6_d4" transform="matrix(14,0,0,14,317.6,666.9)" />
<use xlink:href="#f6_bz" transform="matrix(14,0,0,14,323.2,666.9)" />
<use xlink:href="#f6_dj" transform="matrix(14,0,0,14,330.6,667.3)" />
<use xlink:href="#f6_br" transform="matrix(14,0,0,14,336.5,666.9)" />
<use xlink:href="#f6_bz" transform="matrix(14,0,0,14,353.8,666.9)" />
<use xlink:href="#f6_dj" transform="matrix(14,0,0,14,361.3,667.3)" />
<use xlink:href="#f6_br" transform="matrix(14,0,0,14,367.2,666.9)" />
<use xlink:href="#f6_cc" transform="matrix(14,0,0,14,384.5,666.9)" />
<use xlink:href="#f6_d9" transform="matrix(14,0,0,14,396.1,666.9)" />
<use xlink:href="#f6_c3" transform="matrix(14,0,0,14,401.7,666.9)" />
<use xlink:href="#f6_d4" transform="matrix(14,0,0,14,416.6,666.9)" />
<use xlink:href="#f6_cc" transform="matrix(14,0,0,14,422.1,666.9)" />
<use xlink:href="#f6_d9" transform="matrix(14,0,0,14,433.7,666.9)" />
<use xlink:href="#f6_c3" transform="matrix(14,0,0,14,439.3,666.9)" />
<use xlink:href="#f6_d4" transform="matrix(14,0,0,14,454.2,666.9)" />
<use xlink:href="#f6_lh" transform="matrix(14,0,0,14,81.7,701.3)" />
<use xlink:href="#f6_c0" transform="matrix(14,0,0,14,90.9,701.3)" />
<use xlink:href="#f6_ct" transform="matrix(14,0,0,14,103.4,701.3)" />
<use xlink:href="#f6_bt" transform="matrix(14,0,0,14,109.1,701.3)" />
<use xlink:href="#f6_cb" transform="matrix(14,0,0,14,126.4,701.3)" />
<use xlink:href="#f6_d4" transform="matrix(14,0,0,14,141.5,701.3)" />
<use xlink:href="#f6_br" transform="matrix(14,0,0,14,147,701.3)" />
<use xlink:href="#f6_d4" transform="matrix(14,0,0,14,158.2,701.3)" />
<use xlink:href="#f6_ba" transform="matrix(14,0,0,14,158.7,701.3)" />
<use xlink:href="#f6_d8" transform="matrix(14,0,0,14,175.4,701.3)" />
<use xlink:href="#f6_bv" transform="matrix(14,0,0,14,186.7,701.3)" />
<use xlink:href="#f6_ct" transform="matrix(14,0,0,14,198.5,701.3)" />
<use xlink:href="#f6_nn" transform="matrix(14,0,0,14,204.1,701.3)" />
<use xlink:href="#f6_ke" transform="matrix(14,0,0,14,204.1,701.3)" />
<use xlink:href="#f6_dr" transform="matrix(14,0,0,14,218.3,701.3)" />
<use xlink:href="#f6_e6" transform="matrix(14,0,0,14,224,701.3)" />
<use xlink:href="#f6_by" transform="matrix(14,0,0,14,236.1,701.3)" />
<use xlink:href="#f6_cw" transform="matrix(14,0,0,14,250.6,701.1)" />
<use xlink:href="#f6_c1" transform="matrix(14,0,0,14,255.7,701.3)" />
<use xlink:href="#f6_cv" transform="matrix(14,0,0,14,264.1,701.3)" />
<use xlink:href="#f6_k" transform="matrix(14,0,0,14,269.7,701.3)" />
<use xlink:href="#f6_lh" transform="matrix(14,0,0,14,274.9,701.3)" />
<use xlink:href="#f6_c0" transform="matrix(14,0,0,14,284.2,701.3)" />
<use xlink:href="#f6_ct" transform="matrix(14,0,0,14,296.7,701.3)" />
<use xlink:href="#f6_bt" transform="matrix(14,0,0,14,302.3,701.3)" />
<use xlink:href="#f6_cb" transform="matrix(14,0,0,14,319.7,701.3)" />
<use xlink:href="#f6_d4" transform="matrix(14,0,0,14,334.7,701.3)" />
<use xlink:href="#f6_br" transform="matrix(14,0,0,14,340.3,701.3)" />
<use xlink:href="#f6_d4" transform="matrix(14,0,0,14,351.5,701.3)" />
<use xlink:href="#f6_ba" transform="matrix(14,0,0,14,351.9,701.3)" />
<use xlink:href="#f6_d8" transform="matrix(14,0,0,14,368.6,701.3)" />
<use xlink:href="#f6_by" transform="matrix(14,0,0,14,379.9,701.3)" />
<use xlink:href="#f6_d4" transform="matrix(14,0,0,14,394,701.3)" />
<use xlink:href="#f6_n1" transform="matrix(14,0,0,14,393.9,701.3)" />
<use xlink:href="#f6_bg" transform="matrix(14,0,0,14,407,701.3)" />
<use xlink:href="#f6_cv" transform="matrix(14,0,0,14,421.3,701.3)" />
<use xlink:href="#f6_c1" transform="matrix(14,0,0,14,432.6,701.3)" />
<use xlink:href="#f6_cv" transform="matrix(14,0,0,14,441,701.3)" />
<use xlink:href="#f6_bb" transform="matrix(14,0,0,14,452.2,701.3)" />
<use xlink:href="#f6_br" transform="matrix(14,0,0,14,464.9,701.3)" />
<use xlink:href="#f6_dr" transform="matrix(14,0,0,14,476.4,701.3)" />
<use xlink:href="#f6_bt" transform="matrix(14,0,0,14,476.5,701.3)" />
<use xlink:href="#f6_cc" transform="matrix(14,0,0,14,493.9,701.3)" />
<use xlink:href="#f6_ct" transform="matrix(14,0,0,14,505.5,701.3)" />
<use xlink:href="#f6_c3" transform="matrix(14,0,0,14,511.1,701.3)" />
<use xlink:href="#f6_c1" transform="matrix(14,0,0,14,531.5,701.3)" />
<use xlink:href="#f6_d4" transform="matrix(14,0,0,14,539.5,701.3)" />
<use xlink:href="#f6_b9" transform="matrix(14,0,0,14,175.6,735.6)" />
<use xlink:href="#f6_d4" transform="matrix(14,0,0,14,186.8,735.6)" />
<use xlink:href="#f6_cb" transform="matrix(14,0,0,14,196.8,735.6)" />
<use xlink:href="#f6_bb" transform="matrix(14,0,0,14,211.7,735.6)" />
<use xlink:href="#f6_c5" transform="matrix(14,0,0,14,224.3,735.6)" />
<use xlink:href="#f6_ct" transform="matrix(14,0,0,14,239.6,735.6)" />
<use xlink:href="#f6_be" transform="matrix(14,0,0,14,250.9,735.6)" />
<use xlink:href="#f6_ct" transform="matrix(14,0,0,14,264.9,735.6)" />
<use xlink:href="#f6_c3" transform="matrix(14,0,0,14,270.5,735.6)" />
<use xlink:href="#f6_d8" transform="matrix(14,0,0,14,285.2,735.6)" />
<use xlink:href="#f6_c1" transform="matrix(14,0,0,14,296.5,735.6)" />
<use xlink:href="#f6_d4" transform="matrix(14,0,0,14,304.5,735.6)" />
<use xlink:href="#f6_pc" transform="matrix(14,0,0,14,310.5,735.6)" />
<use xlink:href="#f6_pc" transform="matrix(14,0,0,14,314.8,735.6)" />
<use xlink:href="#f6_pc" transform="matrix(14,0,0,14,319.1,735.6)" />
<use xlink:href="#f6_pc" transform="matrix(14,0,0,14,323.4,735.6)" />
<use xlink:href="#f6_b9" transform="matrix(14,0,0,14,333.3,735.6)" />
<use xlink:href="#f6_d4" transform="matrix(14,0,0,14,344.5,735.6)" />
<use xlink:href="#f6_c7" transform="matrix(14,0,0,14,354.5,735.6)" />
<use xlink:href="#f6_d4" transform="matrix(14,0,0,14,366.7,735.6)" />
<use xlink:href="#f6_bb" transform="matrix(14,0,0,14,366.6,735.6)" />
<use xlink:href="#f6_ct" transform="matrix(14,0,0,14,379.2,735.6)" />
<use xlink:href="#f6_be" transform="matrix(14,0,0,14,390.5,735.6)" />
<use xlink:href="#f6_ct" transform="matrix(14,0,0,14,404.4,735.6)" />
<use xlink:href="#f6_c3" transform="matrix(14,0,0,14,410.1,735.6)" />
<use xlink:href="#f6_d8" transform="matrix(14,0,0,14,424.8,735.6)" />
<use xlink:href="#f6_c1" transform="matrix(14,0,0,14,436.1,735.6)" />
<use xlink:href="#f6_d4" transform="matrix(14,0,0,14,444,735.6)" />
<use xlink:href="#f7_4r" transform="matrix(9,0,0,9,290.2,795.2)" />
<use xlink:href="#f8_r" transform="matrix(9,0,0,9,303,795.2)" />
<use xlink:href="#f8_k" transform="matrix(9,0,0,9,310.7,795.2)" />
<use xlink:href="#f7_4r" transform="matrix(9,0,0,9,321.3,795.2)" />
</g>
</g>
<image preserveAspectRatio="none" x="22" y="801" width="581" height="86" xlink:href="img/1.png"/>
<path d="M261.3,83.6h99.6v1.2H261.3V83.6Z" class="g1_76"/>
<image preserveAspectRatio="none" x="202" y="14" width="217" height="26" xlink:href="img/2.png"/>
<defs>
<path d="M371,296c0,0,71,0,139,34c0,0,69,34,109,92v90c0,0,-72,36,-148,36c0,0,-84,0,-131,-47c0,0,-47,-47,-47,-111c0,0,0,-49,28,-89l50,-5ZM793,-65L619,29V134c0,0,-55,-27,-122,-27c0,0,-98,0,-207,48c0,0,-108,48,-182,132c0,0,-73,84,-73,188c0,0,0,113,83,191c0,0,84,78,212,78c0,0,41,0,84,-9L619,643V822H0L-86,937l32,64H978l85,-115l-32,-64H761L863,749V-31L793,-65Z"
id="f5_c7"
transform="scale(0.001,-0.001)"/>

<path d="M-289,908l-132,216c0,0,-70,120,-169,120c0,0,-83,0,-200,-80l-130,249c0,0,125,78,234,78c0,0,187,0,349,-241L-159,969L-289,908Z"
id="f5_d4"
transform="scale(0.001,-0.001)"/>

<path d="M831,-65L657,29V822H332L434,749V200L341,150c0,0,-93,32,-190,121c0,0,-96,90,-125,175l52,83H196l-5,293H0L-86,937l32,64H1016l86,-115l-33,-64H799L901,749V-31L831,-65Z"
id="f5_bb"
transform="scale(0.001,-0.001)"/>

<path d="M277,-65L102,29V822H0L-86,937l32,64H463L548,886L516,822H244L347,749V-31L277,-65Z"
id="f5_ct"
transform="scale(0.001,-0.001)"/>

<path d="M911,-65L736,29V136c0,0,-59,-28,-134,-28c0,0,-159,0,-296,101c0,0,-136,101,-136,233c0,0,0,47,21,90H60L-22,648L9,712H578L671,574L639,510H492c0,0,-87,-58,-87,-157c0,0,0,-26,9,-52l50,-5c0,0,78,0,156,44c0,0,77,43,116,111V822H0L-86,937l32,64H1095l86,-115l-32,-64H878L981,749V-31L911,-65Z"
id="f5_be"
transform="scale(0.001,-0.001)"/>

<path d="M472,-77C472,-77,28,171,28,448c0,0,0,116,77,191c0,0,77,74,188,74c0,0,51,0,95,-18L527,574c0,0,104,114,277,117V822H0L-86,937l32,64H1164l86,-115l-32,-64H946l102,-73V-31L978,-65L804,29V526c0,0,-130,-78,-133,-294L611,196L431,309c0,0,0,97,33,174c0,0,-22,10,-53,10c0,0,-52,0,-90,-36c0,0,-38,-37,-38,-99c0,0,0,-80,68,-150c0,0,69,-70,214,-161L472,-77Z"
id="f5_c3"
transform="scale(0.001,-0.001)"/>

<path d="M277,-65L102,29V822H0L-86,937l32,64H86L18,1111c0,0,-67,122,-168,122c0,0,-81,0,-202,-80l-128,250c0,0,122,77,232,77c0,0,196,0,356,-250L252,1001H463L548,886L516,822H244L347,749V-31L277,-65Z"
id="f5_d8"
transform="scale(0.001,-0.001)"/>

<path d="M545,-97L35,405L87,542H295c0,0,1,5,1,280H0L-86,937l32,64H729L814,886L782,822H445L550,749V547c0,0,0,-75,-41,-127c0,0,-41,-52,-129,-111L709,110V41L545,-97Z"
id="f5_c1"
transform="scale(0.001,-0.001)"/>

<path d="M283,260c0,0,122,0,209,113V513c0,0,-90,51,-160,51c0,0,-80,0,-129,-50c0,0,-49,-50,-49,-118c0,0,0,-60,35,-110c0,0,45,-26,94,-26ZM582,-49L492,8V211c0,0,-63,-54,-141,-54c0,0,-113,0,-213,92c0,0,-100,92,-100,205c0,0,0,93,69,157c0,0,69,64,162,64c0,0,32,0,64,-9L492,590V822H0l-45,76l14,31H1108l45,-76l-13,-31H553l66,-58V524c0,0,91,89,192,89c0,0,98,0,171,-79c0,0,72,-79,72,-186c0,0,0,-178,-224,-330L736,124c0,0,219,153,219,269c0,0,0,44,-26,75c0,0,-26,32,-81,32c0,0,-109,0,-229,-155V-39L582,-49Z"
id="f6_b9"
transform="scale(0.001,-0.001)"/>

<path d="M-214,863l-199,281c0,0,-70,92,-157,92c0,0,-69,0,-159,-58l-72,118c0,0,89,73,180,73c0,0,141,0,258,-170L-155,901l-59,-38Z"
id="f6_d4"
transform="scale(0.001,-0.001)"/>

<path d="M325,240c0,0,77,0,154,35c0,0,77,35,120,99V500c0,0,-118,73,-222,73c0,0,-97,0,-151,-54c0,0,-53,-53,-53,-128c0,0,0,-73,49,-125c0,0,38,-26,103,-26ZM689,-49L599,8V199c0,0,-73,-65,-179,-65c0,0,-134,0,-252,96c0,0,-118,95,-118,221c0,0,0,102,78,171c0,0,78,69,190,69c0,0,38,0,75,-10L599,582V822H0l-45,76l14,31H863l46,-76L895,822H660l66,-58V-39L689,-49Z"
id="f6_c7"
transform="scale(0.001,-0.001)"/>

<path d="M727,-49L637,8V822H278l66,-58V226L270,196c0,0,-64,36,-122,98c0,0,-58,62,-79,122l43,59H217V822H0l-45,76l14,31H901l46,-76L933,822H698l66,-58V-39L727,-49Z"
id="f6_bb"
transform="scale(0.001,-0.001)"/>

<path d="M228,-49L138,8V822H0l-45,76l14,31H402l46,-76L434,822H199l65,-58V-39L228,-49Z"
id="f6_ct"
transform="scale(0.001,-0.001)"/>

<path d="M825,-49L735,8V217c0,0,-86,-72,-197,-72c0,0,-130,0,-238,91c0,0,-107,91,-107,204c0,0,0,55,27,105H55L12,616l14,30H574l46,-76L607,539H396c0,0,-78,-49,-78,-162c0,0,0,-70,40,-111c0,0,39,-15,94,-15c0,0,84,0,163,41c0,0,79,41,120,121V822H0l-45,76l14,31H999l46,-76l-14,-31H796l66,-58V-39L825,-49Z"
id="f6_be"
transform="scale(0.001,-0.001)"/>

<path d="M413,-59C413,-59,53,193,53,416c0,0,0,97,66,164c0,0,66,66,156,66c0,0,61,0,110,-30L487,507c0,0,92,126,257,126l35,-2V822H0l-45,76l14,31H1043l46,-76l-13,-31H840l66,-58V-39L869,-49L779,8V547c0,0,-101,-5,-165,-90c0,0,-64,-86,-70,-222L507,225l-90,73c0,0,5,79,35,151c0,0,-59,66,-128,66c0,0,-57,0,-100,-38c0,0,-44,-39,-44,-109c0,0,0,-165,284,-360L413,-59Z"
id="f6_c3"
transform="scale(0.001,-0.001)"/>

<path d="M228,-49L138,8V822H0l-45,76l14,31H119L-33,1144c0,0,-70,92,-157,92c0,0,-69,0,-159,-58l-72,118c0,0,89,73,181,73c0,0,140,0,257,-170L205,929H402l46,-76L434,822H199l65,-58V-39L228,-49Z"
id="f6_d8"
transform="scale(0.001,-0.001)"/>

<path d="M527,-71L52,414l34,92H277c0,0,12,32,12,72V822H0l-45,76l14,31H599l46,-76L631,822H350l66,-55V564c0,0,0,-96,-152,-248L610,34L611,8L527,-71Z"
id="f6_c1"
transform="scale(0.001,-0.001)"/>

<path d="M319,561c0,0,66,46,103,105c0,0,36,60,36,113c0,0,0,28,-9,48c0,0,-35,41,-88,41c0,0,-51,0,-89,-39c0,0,-38,-39,-38,-103c0,0,0,-95,85,-165ZM840,-49L750,8V342L362,31l-89,85L608,370c0,0,-121,15,-241,78L105,272L20,364L260,519c0,0,-144,118,-144,246c0,0,0,81,57,140c0,0,56,59,140,59c0,0,96,0,171,-79c0,0,75,-78,75,-168c0,0,0,-117,-130,-219c0,0,110,-40,257,-40l64,2V822H628l-46,76l14,31h418l46,-76l-13,-31H811l66,-58V-39L840,-49Z"
id="f6_ef"
transform="scale(0.001,-0.001)"/>

<path d="M228,-49L138,8V822H0l-45,76l14,31H138c0,0,-109,342,-284,342c0,0,-62,0,-102,-40c0,0,-40,-39,-40,-93c0,0,0,-61,51,-134l-42,-32c0,0,-128,113,-128,226c0,0,0,79,60,136c0,0,61,56,154,56c0,0,137,0,249,-125c0,0,112,-125,169,-336H402l46,-76L434,822H199l65,-58V-39L228,-49Z"
id="f6_cv"
transform="scale(0.001,-0.001)"/>

<path d="M388,325c0,0,58,0,112,31c0,0,53,31,84,86V822H165l69,-58V408c0,0,47,-83,154,-83ZM674,-49L584,8V257c0,0,-61,-51,-141,-51c0,0,-125,0,-232,109c0,0,-107,108,-107,243V822H0l-45,76l14,31H848l46,-76L880,822H645l65,-58V-39L674,-49Z"
id="f6_bv"
transform="scale(0.001,-0.001)"/>

<path d="M0,822l-45,76l14,31H93l46,-76L125,822Z"
id="f6_nn"
transform="scale(0.001,-0.001)"/>

<path d="M500,44c0,0,78,0,152,57c0,0,75,56,98,134V350c0,0,-130,0,-223,-64c0,0,-93,-63,-93,-148c0,0,0,-54,43,-92l23,-2ZM321,561c0,0,66,46,101,105c0,0,36,60,36,113c0,0,0,28,-9,48c0,0,-35,41,-87,41c0,0,-50,0,-89,-38c0,0,-39,-39,-39,-100c0,0,0,-94,87,-169ZM840,-111l-90,59V32c0,0,-69,-68,-156,-68c0,0,-97,0,-187,64c0,0,-89,64,-89,146c0,0,0,61,48,123c0,0,48,62,141,94c0,0,-69,20,-140,57L105,272L20,364L260,519c0,0,-144,118,-144,246c0,0,0,81,57,140c0,0,56,59,140,59c0,0,96,0,171,-79c0,0,75,-78,75,-168c0,0,0,-118,-133,-222c0,0,107,-44,232,-44l92,6V822H628l-46,76l14,31h418l46,-76l-13,-31H811l66,-58V-100l-37,-11Z"
id="f6_ke"
transform="scale(0.001,-0.001)"/>

<path d="M-239,897c0,0,-82,61,-132,137c0,0,-50,75,-50,150c0,0,0,78,52,133c0,0,52,55,141,55c0,0,98,0,176,-64l-23,-69c0,0,-52,32,-104,32c0,0,-57,0,-95,-36c0,0,-38,-36,-38,-95c0,0,0,-115,117,-217l-44,-26Z"
id="f6_dr"
transform="scale(0.001,-0.001)"/>

<path d="M823,-49L733,8V339H445V191L371,160c0,0,-56,36,-120,105c0,0,-63,70,-89,131l41,59H313V735c0,0,0,99,-55,140c0,0,-3,1,-8,1c-16,0,-48,-3,-71,-23c0,0,-31,-26,-31,-66c0,0,0,-69,81,-113L189,620C189,620,31,720,31,828c0,0,0,61,45,99c0,0,46,37,109,37c0,0,96,0,173,-86c0,0,76,-87,79,-194V455H733V822H556l-46,76l14,31H998l45,-76l-13,-31H794l66,-58V-39L823,-49Z"
id="f6_by"
transform="scale(0.001,-0.001)"/>

<path d="M-214,860l-227,219c0,0,-73,70,-148,70c0,0,-67,0,-160,-58l-72,117c0,0,83,71,176,71c0,0,120,0,232,-124L-221,940l-102,294c0,0,-64,179,-189,179c0,0,-60,0,-133,-33l-60,125c0,0,84,47,164,47c0,0,200,0,281,-276L-150,901l-23,-15l-41,-26Z"
id="f6_d5"
transform="scale(0.001,-0.001)"/>

<path d="M675,-274L602,21C602,21,550,3,498,3C498,3,347,3,210,118C210,118,73,232,73,373c0,0,0,113,84,184c0,0,84,71,222,72H524V822H0l-45,76l14,31H834l46,-76L866,822H585l66,-58V504l-3,2l3,-3H408c0,0,-95,0,-154,-53c0,0,-58,-53,-58,-132c0,0,0,-49,27,-100c0,0,28,-50,83,-84c0,0,44,-15,96,-15c0,0,91,0,160,46L535,303l101,48L773,188c0,0,-8,-28,-34,-66c0,0,-27,-38,-62,-64L813,-221L675,-274Z"
id="f6_br"
transform="scale(0.001,-0.001)"/>

<path d="M348,229c0,0,57,0,106,17L263,559c0,0,-95,-50,-95,-162c0,0,0,-75,52,-136c0,0,49,-32,128,-32Zm170,48c0,0,61,38,96,91V504c0,0,-131,80,-244,80l-35,-2L518,277ZM704,-49L614,8V193c0,0,-84,-65,-192,-65c0,0,-139,0,-255,98c0,0,-115,98,-115,226c0,0,0,106,77,175c0,0,77,70,189,70c0,0,38,0,75,-9L614,578V822H0l-45,76l14,31H878l46,-76L911,822H675l66,-58V-39L704,-49Z"
id="f6_bx"
transform="scale(0.001,-0.001)"/>

<path d="M374,248c0,0,77,0,149,36c0,0,71,37,110,107V822H284c0,0,138,-96,138,-208c0,0,0,-151,-228,-192c0,0,29,-104,89,-158c0,0,41,-16,91,-16ZM723,-49L633,8V200c0,0,-69,-56,-170,-56c0,0,-122,0,-240,94c0,0,-118,94,-179,237l20,55c0,0,133,17,187,44c0,0,55,28,55,84c0,0,0,45,-30,81c0,0,-30,36,-99,83H0l-45,76l14,31H897l46,-76L929,822H694l65,-58V-39L723,-49Z"
id="f6_c0"
transform="scale(0.001,-0.001)"/>

<path d="M226,-49c0,0,-66,24,-102,78c0,0,32,69,82,101c0,0,55,-20,100,-80c0,0,-26,-66,-80,-99Z"
id="f6_pc"
transform="scale(0.001,-0.001)"/>

<path d="M663,-49L573,8V445H299V280L226,251c0,0,-105,99,-162,238l63,72H573V822H0l-45,76l14,31H837l46,-76L869,822H634l66,-58V-39L663,-49Z"
id="f6_bt"
transform="scale(0.001,-0.001)"/>

<path d="M547,-285c0,0,-66,25,-102,80c0,0,32,69,82,101c0,0,55,-20,99,-80c0,0,-26,-67,-79,-101Zm1,228c0,0,-122,0,-243,81c0,0,-122,81,-252,280l57,41C110,345,283,64,498,64c0,0,92,0,153,49c0,0,61,49,61,121c0,0,0,46,-28,84L440,237c0,0,-73,11,-139,55c0,0,-66,44,-105,105c0,0,-40,61,-40,119c0,0,0,72,62,125c0,0,62,53,184,53H625V822H0l-45,76l14,31H906l46,-76L938,822H678l66,-58V562H431c0,0,-164,0,-164,-99c0,0,0,-55,57,-102l261,82c0,0,104,-21,172,-98c0,0,68,-78,68,-171c0,0,0,-99,-76,-166c0,0,-77,-65,-201,-65Z"
id="f6_ch"
transform="scale(0.001,-0.001)"/>

<path d="M799,475V822H350l66,-55V564c0,0,0,-43,-25,-89ZM527,-71L52,414l34,92H277c0,0,12,32,12,72V822H0l-45,76l14,31H1063l46,-76l-14,-31H860l66,-58V-39L889,-49L799,8V370H315L264,316L610,34L611,8L527,-71Z"
id="f6_cb"
transform="scale(0.001,-0.001)"/>

<path d="M-234,-413c0,0,-210,0,-488,322l54,49c0,0,119,-128,209,-193c0,0,90,-65,177,-65c0,0,72,0,113,40c0,0,42,39,42,91c0,0,0,75,-78,106L-323,-181l-90,98c0,0,63,95,167,95c0,0,90,0,155,-69c0,0,66,-70,66,-164c0,0,0,-85,-60,-139c0,0,-61,-53,-149,-53Z"
id="f6_cw"
transform="scale(0.001,-0.001)"/>

<path d="M396,318c0,0,123,0,203,108V822H180l66,-58V408c0,0,49,-90,150,-90ZM176,-66L79,9L379,228c0,0,-106,23,-181,119c0,0,-76,96,-79,198V822H0l-45,76l14,31H863l46,-76L895,822H660l66,-58V-39L689,-49L599,8V269L176,-66Z"
id="f6_e6"
transform="scale(0.001,-0.001)"/>

<path d="M108,-222l-44,58c0,0,96,81,104,164L89,61c0,0,12,83,93,122c0,0,50,-15,79,-55c0,0,29,-39,29,-90c0,0,0,-69,-48,-142c0,0,-48,-72,-134,-118Z"
id="f6_k"
transform="scale(0.001,-0.001)"/>

<path d="M527,-71L52,414l34,92H277c0,0,12,32,12,72V822H0l-45,76l14,31H940l45,-76L972,822H350l66,-55V553c0,0,24,52,77,83c0,0,52,30,112,30c0,0,87,0,171,-76c0,0,84,-75,222,-304L938,244L828,411c0,0,-95,134,-195,134c0,0,-63,0,-100,-35c0,0,-36,-36,-36,-87c0,0,0,-50,42,-87l152,99L755,315c0,0,-71,-61,-148,-61c0,0,-80,0,-146,66c0,0,-65,67,-65,164c0,0,-34,-70,-132,-168L610,34L611,8L527,-71Z"
id="f6_n1"
transform="scale(0.001,-0.001)"/>

<path d="M845,-49L755,8V513H497c0,0,61,-45,93,-110c0,0,33,-64,33,-128c0,0,0,-90,-58,-144c0,0,-59,-53,-143,-53c0,0,-133,0,-234,139C188,217,87,356,20,596l76,24c0,0,60,-201,127,-306c0,0,67,-105,160,-105c0,0,57,0,91,36c0,0,33,36,33,91c0,0,0,84,-73,159L295,558v71H755V822H0l-45,76l14,31H1019l46,-76l-14,-31H816l66,-58V-39L845,-49Z"
id="f6_bg"
transform="scale(0.001,-0.001)"/>

<path d="M688,-243c0,0,-256,53,-408,173c0,0,-152,119,-152,270c0,0,0,101,68,171c0,0,-101,84,-101,179c0,0,0,64,53,112c0,0,54,47,191,47H587V822H0l-45,76l14,31H830l45,-76L862,822H640l66,-58V585H362c0,0,-159,-1,-159,-92c0,0,0,-41,46,-80c0,0,76,47,183,47c0,0,135,0,230,-76c0,0,96,-75,96,-187C758,197,758,67,629,2L545,104c0,0,49,30,81,75c0,0,32,44,32,82c0,0,0,16,-4,26c0,0,-64,58,-167,58c0,0,-97,0,-166,-50v-2c0,0,-67,-52,-67,-131c0,0,0,-116,132,-199c0,0,132,-84,334,-132l-32,-74Z"
id="f6_cc"
transform="scale(0.001,-0.001)"/>

<path d="M959,-49L869,8V367c0,0,-32,-13,-64,-13c0,0,-50,0,-110,25c0,0,23,-52,23,-109c0,0,0,-103,-70,-170c0,0,-70,-66,-182,-66c0,0,-110,0,-222,82c0,0,-111,83,-213,293l68,42c0,0,72,-155,152,-231c0,0,81,-76,178,-76c0,0,83,0,131,49c0,0,48,48,48,117c0,0,0,54,-30,100c0,0,-31,47,-91,65L325,391L257,512c0,0,68,53,156,56c0,0,140,72,140,179c0,0,0,69,-52,99c0,0,-4,1,-11,1c-19,0,-66,-4,-123,-30c0,0,-78,-35,-142,-96L150,823c0,0,119,117,253,117c0,0,98,0,175,-71c0,0,77,-70,77,-159c0,0,0,-103,-94,-180c0,0,39,-23,73,-56c0,0,52,-22,109,-22c0,0,77,0,126,38V822H727l-46,76l14,31h840l46,-76l-13,-31H1332l66,-58V-39l-37,-10L1271,8V822H930l66,-58V-39L959,-49Z"
id="f6_am"
transform="scale(0.001,-0.001)"/>

<path d="M689,445V822H286l65,-58l8,-319ZM779,-49L689,8V328H370V180L296,150c0,0,-56,35,-120,104c0,0,-63,70,-89,131l41,60H238L223,822H0l-45,76l14,31H953l46,-76L985,822H750l66,-58V-39L779,-49Z"
id="f6_bz"
transform="scale(0.001,-0.001)"/>

<path d="M-91,1001c0,0,-27,10,-61,36c0,0,-33,26,-50,49c0,0,38,81,90,110c0,0,61,-23,107,-85c0,0,-28,-71,-86,-110ZM-214,863l-199,281c0,0,-70,92,-157,92c0,0,-69,0,-159,-58l-72,118c0,0,89,73,180,73c0,0,141,0,258,-170L-155,901l-59,-38Z"
id="f6_oz"
transform="scale(0.001,-0.001)"/>

<path d="M449,79c0,0,103,0,168,61c0,0,66,60,66,149c0,0,0,93,-84,186H420c0,0,-107,0,-164,-50c0,0,-57,-51,-57,-126c0,0,0,-108,99,-184c0,0,81,-36,151,-36Zm67,-96c0,0,-168,0,-301,109C215,92,81,202,81,350c0,0,0,114,83,182c0,0,84,68,229,68H507V822H0l-45,76l14,31H883l46,-76L915,822H568l66,-58V532c0,0,87,-64,130,-144c0,0,43,-79,43,-157c0,0,0,-109,-81,-179c0,0,-81,-69,-210,-69Z"
id="f6_bl"
transform="scale(0.001,-0.001)"/>

<path d="M228,-49L138,8V822H0l-45,76l14,31H134c0,0,-231,362,-445,362c0,0,-87,0,-135,-49c0,0,-48,-49,-48,-116c0,0,0,-73,43,-122l-45,-32c0,0,-119,108,-119,223c0,0,0,94,74,155c0,0,73,60,181,60c0,0,161,0,316,-134c0,0,154,-133,267,-347H402l46,-76L434,822H199l65,-58V-39L228,-49Z"
id="f6_oc"
transform="scale(0.001,-0.001)"/>

<path d="M92,380L46,457l14,30H448l45,-76L480,380Z"
id="f6_pd"
transform="scale(0.001,-0.001)"/>

<path d="M634,-49L249,296c0,0,-1,0,-3,0c-11,0,-48,1,-90,15c0,0,-51,16,-67,36l49,165l50,12l84,-98c0,0,125,31,191,104c0,0,66,73,66,165c0,0,0,109,-95,170c0,0,-2,0,-6,0C397,865,262,858,121,738L46,848c0,0,52,47,127,82c0,0,75,34,152,34c0,0,130,0,226,-94c0,0,95,-94,95,-218c0,0,0,-107,-77,-199c0,0,-77,-92,-216,-134L697,26L698,0L634,-49Z"
id="f6_n8"
transform="scale(0.001,-0.001)"/>

<path d="M347,-57C347,-57,66,211,66,394c0,0,0,98,74,164c0,0,74,65,225,65H616V822H0l-45,76l14,31H880l46,-76L912,822H677l66,-58V-39L706,-49L616,8V500H428c0,0,-239,0,-239,-161c0,0,0,-136,214,-343L347,-57Z"
id="f6_bp"
transform="scale(0.001,-0.001)"/>

<path d="M228,-49L138,8V822H0l-45,76l14,31H134c0,0,-91,92,-91,191c0,0,0,105,85,170c0,0,84,65,219,65c0,0,128,0,293,-76c0,0,165,-77,362,-263L958,966c0,0,-177,143,-303,210c0,0,-125,68,-244,68c0,0,-107,0,-175,-50c0,0,-68,-50,-68,-131c0,0,0,-61,49,-134H402l46,-76L434,822H199l65,-58V-39L228,-49Z"
id="f6_cu"
transform="scale(0.001,-0.001)"/>

<path d="M228,-49L138,8V822H0l-45,76l14,31H134c0,0,-91,93,-91,202c0,0,0,105,85,170c0,0,86,65,236,65c0,0,340,0,742,-350l-50,-46c0,0,-182,135,-340,208c0,0,-158,73,-302,73c0,0,-113,0,-183,-48c0,0,-69,-48,-69,-132c0,0,0,-63,53,-142H402l46,-76L434,822H199l65,-58V-39L228,-49Z"
id="f6_nt"
transform="scale(0.001,-0.001)"/>

<path d="M761,293c0,0,127,0,169,94V532c0,0,-68,46,-145,46c0,0,-76,0,-121,-46c0,0,-45,-45,-45,-107c0,0,0,-61,44,-110c0,0,47,-22,98,-22ZM657,67c0,0,166,0,273,107v55c0,0,-45,-36,-111,-36c0,0,-110,0,-207,90c0,0,-97,90,-97,194c0,0,0,85,66,148c0,0,65,63,155,63l48,-5L930,603V822H376l62,-55V579c0,0,0,-60,-23,-102c0,0,-24,-42,-148,-190c0,0,66,-104,175,-162c0,0,108,-58,215,-58ZM1021,-49L930,8V53c0,0,-105,-83,-264,-83c0,0,-177,0,-339,128C327,98,165,226,90,429l34,77H296c0,0,19,39,19,102l-2,214H0l-45,76l14,31H1195l46,-76l-14,-31H992l65,-58V-39l-36,-10Z"
id="f6_ba"
transform="scale(0.001,-0.001)"/>

<path d="M108,-433L-59,-214c0,0,-99,119,-191,119c0,0,-59,0,-96,-35c0,0,-36,-34,-36,-81c0,0,0,-49,42,-83l152,95l64,-116c0,0,-71,-58,-148,-58c0,0,-80,0,-146,63c0,0,-65,64,-65,144c0,0,0,77,62,131c0,0,61,53,142,53c0,0,138,0,296,-205L165,-393l-57,-40Z"
id="f6_cx"
transform="scale(0.001,-0.001)"/>

<path d="M1066,248c0,0,77,0,149,36c0,0,71,37,110,107V822H976c0,0,138,-96,138,-208c0,0,0,-151,-228,-192c0,0,29,-104,89,-158c0,0,41,-16,91,-16ZM1415,-49L1325,8V200c0,0,-69,-56,-170,-56c0,0,-121,0,-238,91c0,0,-116,92,-178,233c0,0,-22,19,-51,25c0,0,-28,5,-191,5c0,0,61,-47,93,-111c0,0,33,-63,33,-126c0,0,0,-85,-58,-142c0,0,-59,-56,-148,-56c0,0,-130,0,-230,139C187,202,87,341,20,581l76,24c0,0,60,-202,127,-306c0,0,67,-105,160,-105c0,0,57,0,91,36c0,0,33,36,33,91c0,0,0,84,-73,159L295,542v72H542c0,0,112,0,168,-14c0,0,55,-15,97,-62c0,0,102,15,146,42c0,0,45,27,45,78c0,0,0,45,-30,81c0,0,-30,36,-99,83H0l-45,76l14,31H1589l46,-76l-14,-31H1386l65,-58V-39l-36,-10Z"
id="f6_iz"
transform="scale(0.001,-0.001)"/>

<path d="M527,-71L52,414l34,92H277c0,0,12,32,12,72V822H0l-45,76l14,31H940l45,-76L972,822H350l66,-55V570c0,0,146,98,247,98c0,0,95,0,167,-73c0,0,71,-72,71,-167c0,0,0,-77,-53,-142c0,0,-54,-64,-159,-136l-89,99c0,0,100,70,152,121c0,0,52,52,52,105c0,0,0,34,-23,60c0,0,-22,26,-72,26c0,0,-139,0,-434,-252L610,34L611,8L527,-71Z"
id="f6_n0"
transform="scale(0.001,-0.001)"/>

<path d="M342,324c0,0,45,0,75,34c0,0,31,33,31,100V822H165l66,-58V390c0,0,32,-66,111,-66ZM853,-49L762,8V822H509l65,-58V455c0,0,0,-134,-51,-185c0,0,-52,-52,-127,-52c0,0,-98,0,-195,99c0,0,-97,99,-97,209V822H0l-45,76l14,31H1027l46,-76l-14,-31H823l66,-58V-39L853,-49Z"
id="f6_bo"
transform="scale(0.001,-0.001)"/>

<path d="M283,260c0,0,122,0,209,113V513c0,0,-90,51,-160,51c0,0,-80,0,-129,-50c0,0,-49,-50,-49,-118c0,0,0,-60,35,-110c0,0,45,-26,94,-26ZM582,-49L492,8V211c0,0,-63,-54,-141,-54c0,0,-113,0,-214,92c0,0,-102,92,-102,206c0,0,0,93,69,157c0,0,69,63,163,63c0,0,34,0,66,-9L492,590V822H0l-45,76l14,31H909l46,-76L941,822H553l66,-58V521c0,0,93,104,192,104c0,0,63,0,120,-42c0,0,57,-42,82,-106L964,431l-5,9c0,0,-38,72,-110,72c0,0,-51,0,-105,-41c0,0,-53,-42,-125,-129V-39L582,-49Z"
id="f6_l1"
transform="scale(0.001,-0.001)"/>

<path d="M527,-71L52,414l34,92H277c0,0,12,32,12,72V822H0l-45,76l14,31H654l46,-76L686,822H350l66,-55V564c0,0,0,-43,-25,-89H782L798,370H315L264,316L610,34L611,8L527,-71Z"
id="f6_m1"
transform="scale(0.001,-0.001)"/>

<path d="M0,1062c0,0,-26,11,-60,36c0,0,-34,26,-51,49c0,0,39,81,91,110c0,0,60,-23,106,-85c0,0,-28,-70,-86,-110Z"
id="f6_dj"
transform="scale(0.001,-0.001)"/>

<path d="M228,-49L138,8V822H0l-45,76l14,31H70L-65,1033c0,0,-90,65,-157,65c0,0,-67,0,-151,-53l-72,118c0,0,78,65,163,65c0,0,116,0,246,-120L153,930L46,1201c0,0,-71,166,-187,166c0,0,-52,0,-128,-33l-60,125c0,0,78,46,159,46c0,0,193,0,283,-271L215,929H402l46,-76L434,822H199l65,-58V-39L228,-49Z"
id="f6_d9"
transform="scale(0.001,-0.001)"/>

<path d="M567,822l-46,76l14,31H726l46,-76L758,822ZM518,122c0,0,-115,0,-225,93c0,0,-111,94,-111,193c0,0,0,79,61,137C243,545,66,672,66,791c0,0,0,75,52,124c0,0,53,49,134,49c0,0,164,0,260,-237L451,694c0,0,-55,114,-119,163l-31,5c0,0,-44,0,-77,-32c0,0,-33,-31,-33,-78c0,0,0,-86,113,-165c0,0,60,27,133,27l67,-4l75,-89L564,490l-51,7H493c0,0,-90,0,-142,-43c0,0,-52,-43,-52,-104c0,0,0,-60,51,-109c0,0,37,-13,82,-13c0,0,104,0,197,59c0,0,94,60,127,148l95,-87c0,0,-43,-94,-140,-160c0,0,-97,-66,-193,-66Z"
id="f6_lh"
transform="scale(0.001,-0.001)"/>

<path d="M306,75c0,0,82,0,155,150l74,163c0,0,-109,142,-199,142c0,0,-69,0,-116,-66c0,0,-47,-67,-47,-160c0,0,0,-82,38,-145c0,0,38,-63,95,-84Zm452,32c0,0,87,0,134,66c0,0,48,67,48,154c0,0,0,82,-43,155c0,0,-43,73,-113,88c0,0,-40,-25,-84,-116L588,214c0,0,80,-107,170,-107ZM787,-7c0,0,-55,0,-113,30L555,153C555,153,460,-5,339,-5c0,0,-110,0,-195,109c0,0,-86,110,-86,250c0,0,0,126,71,209c0,0,71,83,172,83c0,0,67,0,113,-29L567,455c0,0,73,153,148,185V822H0l-45,76l14,31H1097l46,-76l-14,-31H776l66,-58V631c0,0,81,-40,142,-134c0,0,61,-94,61,-211c0,0,0,-126,-74,-210C971,76,897,-7,787,-7Z"
id="f6_c5"
transform="scale(0.001,-0.001)"/>

<path d="M725,307c0,0,-95,0,-218,78c0,0,-123,78,-188,78c0,0,-54,0,-95,-34c0,0,-41,-34,-73,-100L93,362c0,0,38,88,101,146c0,0,63,59,148,59c0,0,90,0,214,-78c0,0,124,-79,188,-79c0,0,63,0,106,34c0,0,42,33,85,104l60,-40c0,0,-32,-66,-101,-134c0,0,-70,-67,-169,-67Z"
id="f7_4r"
transform="scale(0.001,-0.001)"/>

<path d="M225,0c0,0,2,129,51,312c0,0,48,183,139,352c0,0,91,170,193,286H72v129H780V975C780,975,676,864,573,680C573,680,470,495,414,301C414,301,374,163,363,0Z"
id="f8_r"
transform="scale(0.001,-0.001)"/>

<path d="M420,92c0,0,92,0,155,89c0,0,64,89,64,358c0,0,0,270,-63,359c0,0,-63,89,-158,89c0,0,-92,0,-147,-79c0,0,-70,-100,-70,-369c0,0,0,-269,63,-358c0,0,63,-89,156,-89Zm0,-110c0,0,-158,0,-248,112C172,94,64,231,64,539c0,0,0,194,39,313c0,0,40,118,119,182c0,0,79,64,198,64c0,0,88,0,155,-35c0,0,66,-36,109,-103c0,0,43,-66,68,-162c0,0,24,-96,24,-259c0,0,0,-192,-39,-311C737,228,697,110,619,46c0,0,-79,-64,-199,-64Z"
id="f8_k"
transform="scale(0.001,-0.001)"/>


</defs>
</svg>