<?xml version="1.0" encoding="UTF-8" standalone="no"?>
<!DOCTYPE svg PUBLIC "-//W3C//DTD SVG 1.1//EN"
"http://www.w3.org/Graphics/SVG/1.1/DTD/svg11.dtd">
<svg viewBox="0 0 641 910" version="1.1" xmlns="http://www.w3.org/2000/svg" xmlns:xlink="http://www.w3.org/1999/xlink">
<defs>
<clipPath id="c0_96"><path d="M0,909.8V0H641.7V909.8Z"/></clipPath>
<clipPath id="c1_96"><path d="M0,908.6V0H641.7V908.6Z"/></clipPath>
<style type="text/css"><![CDATA[
.g0_96{
fill: #FFFFFF;
}
.g1_96{
}
]]></style>
</defs>
<path d="M0,0H641.7V909.8H0V0Z" class="g0_96"/>
<path d="M0,0H641.7V909.8H0V0Z" class="g0_96"/>
<g clip-path="url(#c0_96)">
<path d="M0,-80971.4H641.7V25474.2H0V-80971.4Z" class="g0_96"/>
</g>
<path d="M0,0H641.7V908.6H0V0Z" class="g0_96"/>
<path d="M19.5,60.7H602.7v1.2H19.5V60.7Z" class="g1_96"/>
<g clip-path="url(#c1_96)">
<path d="M0,61.9H641.7V909.8H0V61.9Z" class="g0_96"/>
<g fill="#000000" >
<use xlink:href="#f5_bz" transform="matrix(14,0,0,14,226,96.3)" />
<use xlink:href="#f5_bt" transform="matrix(14,0,0,14,240.7,96.3)" />
<use xlink:href="#f5_d4" transform="matrix(14,0,0,14,253.7,96.3)" />
<use xlink:href="#f5_bt" transform="matrix(14,0,0,14,259.4,96.3)" />
<use xlink:href="#f5_ct" transform="matrix(14,0,0,14,272.4,96.3)" />
<use xlink:href="#f5_b9" transform="matrix(14,0,0,14,278.9,96.3)" />
<use xlink:href="#f5_d8" transform="matrix(14,0,0,14,296.3,96.3)" />
<use xlink:href="#f5_bm" transform="matrix(14,0,0,14,302.8,96.3)" />
<use xlink:href="#f5_ct" transform="matrix(14,0,0,14,316.1,96.3)" />
<use xlink:href="#f5_c3" transform="matrix(14,0,0,14,328.2,96.3)" />
<use xlink:href="#f5_d4" transform="matrix(14,0,0,14,344.5,96.3)" />
<use xlink:href="#f5_be" transform="matrix(14,0,0,14,350.2,96.3)" />
<use xlink:href="#f5_ct" transform="matrix(14,0,0,14,365.5,96.3)" />
<use xlink:href="#f5_c3" transform="matrix(14,0,0,14,372,96.3)" />
<use xlink:href="#f5_d8" transform="matrix(14,0,0,14,388.3,96.3)" />
<use xlink:href="#f6_bq" transform="matrix(14,0,0,14,191.7,154.7)" />
<use xlink:href="#f6_d8" transform="matrix(14,0,0,14,204.8,154.7)" />
<use xlink:href="#f6_bt" transform="matrix(14,0,0,14,210.5,154.7)" />
<use xlink:href="#f6_d4" transform="matrix(14,0,0,14,222.3,154.7)" />
<use xlink:href="#f6_cc" transform="matrix(14,0,0,14,227.8,154.7)" />
<use xlink:href="#f6_ct" transform="matrix(14,0,0,14,239.5,154.7)" />
<use xlink:href="#f6_no" transform="matrix(14,0,0,14,245.1,154.7)" />
<use xlink:href="#f6_bq" transform="matrix(14,0,0,14,245.1,154.7)" />
<use xlink:href="#f6_bg" transform="matrix(14,0,0,14,263.9,154.7)" />
<use xlink:href="#f6_d8" transform="matrix(14,0,0,14,278.2,154.7)" />
<use xlink:href="#f6_bm" transform="matrix(14,0,0,14,283.8,154.7)" />
<use xlink:href="#f6_cx" transform="matrix(14,0,0,14,295,155.5)" />
<use xlink:href="#f6_ap" transform="matrix(14,0,0,14,302.2,154.7)" />
<use xlink:href="#f6_by" transform="matrix(14,0,0,14,313.5,154.7)" />
<use xlink:href="#f6_cv" transform="matrix(14,0,0,14,327.5,154.7)" />
<use xlink:href="#f6_ap" transform="matrix(14,0,0,14,338.8,154.7)" />
<use xlink:href="#f6_by" transform="matrix(14,0,0,14,350.1,154.7)" />
<use xlink:href="#f6_cv" transform="matrix(14,0,0,14,364.1,154.7)" />
<use xlink:href="#f6_b9" transform="matrix(14,0,0,14,375.4,154.7)" />
<use xlink:href="#f6_br" transform="matrix(14,0,0,14,390.9,154.7)" />
<use xlink:href="#f6_b9" transform="matrix(14,0,0,14,408.2,154.7)" />
<use xlink:href="#f6_oc" transform="matrix(14,0,0,14,423.7,154.7)" />
<use xlink:href="#f6_bz" transform="matrix(14,0,0,14,188.2,187.9)" />
<use xlink:href="#f6_bt" transform="matrix(14,0,0,14,201.6,187.9)" />
<use xlink:href="#f6_d4" transform="matrix(14,0,0,14,213.4,187.9)" />
<use xlink:href="#f6_bt" transform="matrix(14,0,0,14,218.9,187.9)" />
<use xlink:href="#f6_ct" transform="matrix(14,0,0,14,230.7,187.9)" />
<use xlink:href="#f6_b9" transform="matrix(14,0,0,14,236.3,187.9)" />
<use xlink:href="#f6_d8" transform="matrix(14,0,0,14,251.8,187.9)" />
<use xlink:href="#f6_bm" transform="matrix(14,0,0,14,257.4,187.9)" />
<use xlink:href="#f6_ct" transform="matrix(14,0,0,14,270.1,187.9)" />
<use xlink:href="#f6_c3" transform="matrix(14,0,0,14,281.4,187.9)" />
<use xlink:href="#f6_d4" transform="matrix(14,0,0,14,296.2,187.9)" />
<use xlink:href="#f6_be" transform="matrix(14,0,0,14,301.7,187.9)" />
<use xlink:href="#f6_ct" transform="matrix(14,0,0,14,315.7,187.9)" />
<use xlink:href="#f6_c3" transform="matrix(14,0,0,14,321.3,187.9)" />
<use xlink:href="#f6_d8" transform="matrix(14,0,0,14,336,187.9)" />
<use xlink:href="#f6_lq" transform="matrix(14,0,0,14,347.3,187.9)" />
<use xlink:href="#f6_cc" transform="matrix(14,0,0,14,354,187.9)" />
<use xlink:href="#f6_ct" transform="matrix(14,0,0,14,365.6,187.9)" />
<use xlink:href="#f6_c1" transform="matrix(14,0,0,14,371.2,187.9)" />
<use xlink:href="#f6_d4" transform="matrix(14,0,0,14,379.2,187.9)" />
<use xlink:href="#f6_bg" transform="matrix(14,0,0,14,385.3,187.9)" />
<use xlink:href="#f6_be" transform="matrix(14,0,0,14,399.5,187.9)" />
<use xlink:href="#f6_bb" transform="matrix(14,0,0,14,413.5,187.9)" />
<use xlink:href="#f6_cv" transform="matrix(14,0,0,14,426.1,187.9)" />
<use xlink:href="#f6_cb" transform="matrix(14,0,0,14,200.8,221.1)" />
<use xlink:href="#f6_ct" transform="matrix(14,0,0,14,215.7,221.1)" />
<use xlink:href="#f6_be" transform="matrix(14,0,0,14,221.3,221.1)" />
<use xlink:href="#f6_cv" transform="matrix(14,0,0,14,235.3,221.1)" />
<use xlink:href="#f6_bx" transform="matrix(14,0,0,14,246.6,221.1)" />
<use xlink:href="#f6_ct" transform="matrix(14,0,0,14,258.9,221.1)" />
<use xlink:href="#f6_bp" transform="matrix(14,0,0,14,264.5,221.1)" />
<use xlink:href="#f6_bx" transform="matrix(14,0,0,14,282.5,221.1)" />
<use xlink:href="#f6_bp" transform="matrix(14,0,0,14,294.8,221.1)" />
<use xlink:href="#f6_ct" transform="matrix(14,0,0,14,307.1,221.1)" />
<use xlink:href="#f6_br" transform="matrix(14,0,0,14,318.4,221.1)" />
<use xlink:href="#f6_d4" transform="matrix(14,0,0,14,329.6,221.1)" />
<use xlink:href="#f6_bq" transform="matrix(14,0,0,14,335.7,221.1)" />
<use xlink:href="#f6_ct" transform="matrix(14,0,0,14,348.9,221.1)" />
<use xlink:href="#f6_c1" transform="matrix(14,0,0,14,354.5,221.1)" />
<use xlink:href="#f6_d4" transform="matrix(14,0,0,14,362.5,221.1)" />
<use xlink:href="#f6_bz" transform="matrix(14,0,0,14,368.6,221.1)" />
<use xlink:href="#f6_bt" transform="matrix(14,0,0,14,381.9,221.1)" />
<use xlink:href="#f6_b9" transform="matrix(14,0,0,14,399.3,221.1)" />
<use xlink:href="#f6_oc" transform="matrix(14,0,0,14,414.8,221.1)" />
<use xlink:href="#f6_al" transform="matrix(14,0,0,14,173.3,254.4)" />
<use xlink:href="#f6_bx" transform="matrix(14,0,0,14,189.2,254.4)" />
<use xlink:href="#f6_b9" transform="matrix(14,0,0,14,207.1,254.4)" />
<use xlink:href="#f6_d4" transform="matrix(14,0,0,14,218.3,254.4)" />
<use xlink:href="#f6_bt" transform="matrix(14,0,0,14,228.3,254.4)" />
<use xlink:href="#f6_ct" transform="matrix(14,0,0,14,240,254.4)" />
<use xlink:href="#f6_b9" transform="matrix(14,0,0,14,245.6,254.4)" />
<use xlink:href="#f6_d8" transform="matrix(14,0,0,14,261.1,254.4)" />
<use xlink:href="#f6_bm" transform="matrix(14,0,0,14,266.8,254.4)" />
<use xlink:href="#f6_ct" transform="matrix(14,0,0,14,279.4,254.4)" />
<use xlink:href="#f6_bg" transform="matrix(14,0,0,14,290.7,254.4)" />
<use xlink:href="#f6_ct" transform="matrix(14,0,0,14,305,254.4)" />
<use xlink:href="#f6_c7" transform="matrix(14,0,0,14,310.6,254.4)" />
<use xlink:href="#f6_bo" transform="matrix(14,0,0,14,322.7,254.4)" />
<use xlink:href="#f6_c1" transform="matrix(14,0,0,14,337.1,254.4)" />
<use xlink:href="#f6_cv" transform="matrix(14,0,0,14,345.4,254.4)" />
<use xlink:href="#f6_cu" transform="matrix(14,0,0,14,356.7,254.4)" />
<use xlink:href="#f6_b9" transform="matrix(14,0,0,14,362.3,254.4)" />
<use xlink:href="#f6_c0" transform="matrix(14,0,0,14,377.8,254.4)" />
<use xlink:href="#f6_ct" transform="matrix(14,0,0,14,390.4,254.4)" />
<use xlink:href="#f6_bg" transform="matrix(14,0,0,14,401.7,254.4)" />
<use xlink:href="#f6_be" transform="matrix(14,0,0,14,415.9,254.4)" />
<use xlink:href="#f6_bb" transform="matrix(14,0,0,14,429.9,254.4)" />
<use xlink:href="#f6_cv" transform="matrix(14,0,0,14,442.5,254.4)" />
<use xlink:href="#f6_bz" transform="matrix(14,0,0,14,150.4,312.8)" />
<use xlink:href="#f6_d4" transform="matrix(14,0,0,14,163.9,312.8)" />
<use xlink:href="#f6_c7" transform="matrix(14,0,0,14,163.7,312.8)" />
<use xlink:href="#f6_ct" transform="matrix(14,0,0,14,175.8,312.8)" />
<use xlink:href="#f6_bt" transform="matrix(14,0,0,14,187.1,312.8)" />
<use xlink:href="#f6_bb" transform="matrix(14,0,0,14,198.8,312.8)" />
<use xlink:href="#f6_c1" transform="matrix(14,0,0,14,211.4,312.8)" />
<use xlink:href="#f6_c1" transform="matrix(14,0,0,14,225.5,312.8)" />
<use xlink:href="#f6_cv" transform="matrix(14,0,0,14,233.9,312.8)" />
<use xlink:href="#f6_bv" transform="matrix(14,0,0,14,245.2,312.8)" />
<use xlink:href="#f6_cc" transform="matrix(14,0,0,14,257,312.8)" />
<use xlink:href="#f6_ct" transform="matrix(14,0,0,14,268.6,312.8)" />
<use xlink:href="#f6_bm" transform="matrix(14,0,0,14,274.2,312.8)" />
<use xlink:href="#f6_cv" transform="matrix(14,0,0,14,286.9,312.8)" />
<use xlink:href="#f6_c0" transform="matrix(14,0,0,14,292.5,312.8)" />
<use xlink:href="#f6_d8" transform="matrix(14,0,0,14,305.1,312.8)" />
<use xlink:href="#f6_bz" transform="matrix(14,0,0,14,316.4,312.8)" />
<use xlink:href="#f6_oz" transform="matrix(14,0,0,14,329.8,312.8)" />
<use xlink:href="#f6_bz" transform="matrix(14,0,0,14,335.4,312.8)" />
<use xlink:href="#f6_dj" transform="matrix(14,0,0,14,342.8,313.2)" />
<use xlink:href="#f6_cu" transform="matrix(14,0,0,14,348.7,312.8)" />
<use xlink:href="#f6_br" transform="matrix(14,0,0,14,354.3,312.8)" />
<use xlink:href="#f6_c1" transform="matrix(14,0,0,14,366,312.8)" />
<use xlink:href="#f6_c7" transform="matrix(14,0,0,14,380.1,312.8)" />
<use xlink:href="#f6_bo" transform="matrix(14,0,0,14,392.1,312.8)" />
<use xlink:href="#f6_cv" transform="matrix(14,0,0,14,406.5,312.8)" />
<use xlink:href="#f6_c0" transform="matrix(14,0,0,14,412.1,312.8)" />
<use xlink:href="#f6_d8" transform="matrix(14,0,0,14,424.7,312.8)" />
<use xlink:href="#f6_by" transform="matrix(14,0,0,14,436,312.8)" />
<use xlink:href="#f6_ct" transform="matrix(14,0,0,14,449.9,312.8)" />
<use xlink:href="#f6_c1" transform="matrix(14,0,0,14,455.5,312.8)" />
<use xlink:href="#f6_cv" transform="matrix(14,0,0,14,463.9,312.8)" />
<use xlink:href="#f6_bv" transform="matrix(14,0,0,14,164.2,346)" />
<use xlink:href="#f6_d8" transform="matrix(14,0,0,14,176,346)" />
<use xlink:href="#f6_ca" transform="matrix(14,0,0,14,181.6,346)" />
<use xlink:href="#f6_br" transform="matrix(14,0,0,14,199.6,346)" />
<use xlink:href="#f6_c8" transform="matrix(14,0,0,14,211.3,346)" />
<use xlink:href="#f6_bz" transform="matrix(14,0,0,14,227.1,346)" />
<use xlink:href="#f6_c1" transform="matrix(14,0,0,14,246.1,346)" />
<use xlink:href="#f6_ct" transform="matrix(14,0,0,14,254.5,346)" />
<use xlink:href="#f6_bz" transform="matrix(14,0,0,14,265.8,346)" />
<use xlink:href="#f6_d4" transform="matrix(14,0,0,14,279.3,346)" />
<use xlink:href="#f6_c3" transform="matrix(14,0,0,14,279.1,346)" />
<use xlink:href="#f6_ct" transform="matrix(14,0,0,14,293.9,346)" />
<use xlink:href="#f6_ap" transform="matrix(14,0,0,14,305.1,346)" />
<use xlink:href="#f6_bv" transform="matrix(14,0,0,14,316.5,346)" />
<use xlink:href="#f6_c1" transform="matrix(14,0,0,14,328.4,346)" />
<use xlink:href="#f6_am" transform="matrix(14,0,0,14,342.4,346)" />
<use xlink:href="#f6_c7" transform="matrix(14,0,0,14,363.9,346)" />
<use xlink:href="#f6_d4" transform="matrix(14,0,0,14,376.1,346)" />
<use xlink:href="#f6_bt" transform="matrix(14,0,0,14,381.6,346)" />
<use xlink:href="#f6_c1" transform="matrix(14,0,0,14,393.4,346)" />
<use xlink:href="#f6_bt" transform="matrix(14,0,0,14,407.4,346)" />
<use xlink:href="#f6_d4" transform="matrix(14,0,0,14,419.3,346)" />
<use xlink:href="#f6_bt" transform="matrix(14,0,0,14,424.8,346)" />
<use xlink:href="#f6_ct" transform="matrix(14,0,0,14,436.5,346)" />
<use xlink:href="#f6_c1" transform="matrix(14,0,0,14,442.1,346)" />
<use xlink:href="#f6_cv" transform="matrix(14,0,0,14,450.5,346)" />
<use xlink:href="#f6_bz" transform="matrix(14,0,0,14,192.8,379.3)" />
<use xlink:href="#f6_ct" transform="matrix(14,0,0,14,206.1,379.3)" />
<use xlink:href="#f6_c1" transform="matrix(14,0,0,14,211.8,379.3)" />
<use xlink:href="#f6_cv" transform="matrix(14,0,0,14,220.1,379.3)" />
<use xlink:href="#f6_am" transform="matrix(14,0,0,14,231.4,379.3)" />
<use xlink:href="#f6_c8" transform="matrix(14,0,0,14,252.9,379.3)" />
<use xlink:href="#f6_ct" transform="matrix(14,0,0,14,268.8,379.3)" />
<use xlink:href="#f6_bp" transform="matrix(14,0,0,14,280.1,379.3)" />
<use xlink:href="#f6_d8" transform="matrix(14,0,0,14,292.4,379.3)" />
<use xlink:href="#f6_bv" transform="matrix(14,0,0,14,303.7,379.3)" />
<use xlink:href="#f6_cw" transform="matrix(14,0,0,14,316.1,379.2)" />
<use xlink:href="#f6_c1" transform="matrix(14,0,0,14,315.5,379.3)" />
<use xlink:href="#f6_d4" transform="matrix(14,0,0,14,323.5,379.3)" />
<use xlink:href="#f6_c3" transform="matrix(14,0,0,14,323.9,379.3)" />
<use xlink:href="#f6_ct" transform="matrix(14,0,0,14,338.6,379.3)" />
<use xlink:href="#f6_by" transform="matrix(14,0,0,14,349.9,379.3)" />
<use xlink:href="#f6_d4" transform="matrix(14,0,0,14,364,379.3)" />
<use xlink:href="#f6_n1" transform="matrix(14,0,0,14,363.9,379.3)" />
<use xlink:href="#f6_bz" transform="matrix(14,0,0,14,382.7,379.3)" />
<use xlink:href="#f6_bt" transform="matrix(14,0,0,14,396,379.3)" />
<use xlink:href="#f6_b9" transform="matrix(14,0,0,14,407.7,379.3)" />
<use xlink:href="#f6_oc" transform="matrix(14,0,0,14,423.2,379.3)" />
<use xlink:href="#f6_bz" transform="matrix(14,0,0,14,188.2,412.5)" />
<use xlink:href="#f6_bt" transform="matrix(14,0,0,14,201.6,412.5)" />
<use xlink:href="#f6_d4" transform="matrix(14,0,0,14,213.4,412.5)" />
<use xlink:href="#f6_bt" transform="matrix(14,0,0,14,218.9,412.5)" />
<use xlink:href="#f6_ct" transform="matrix(14,0,0,14,230.7,412.5)" />
<use xlink:href="#f6_b9" transform="matrix(14,0,0,14,236.3,412.5)" />
<use xlink:href="#f6_d8" transform="matrix(14,0,0,14,251.8,412.5)" />
<use xlink:href="#f6_ch" transform="matrix(14,0,0,14,257.4,412.5)" />
<use xlink:href="#f6_ct" transform="matrix(14,0,0,14,270.1,412.5)" />
<use xlink:href="#f6_c3" transform="matrix(14,0,0,14,281.4,412.5)" />
<use xlink:href="#f6_d4" transform="matrix(14,0,0,14,296.2,412.5)" />
<use xlink:href="#f6_be" transform="matrix(14,0,0,14,301.7,412.5)" />
<use xlink:href="#f6_ct" transform="matrix(14,0,0,14,315.7,412.5)" />
<use xlink:href="#f6_c3" transform="matrix(14,0,0,14,321.3,412.5)" />
<use xlink:href="#f6_d8" transform="matrix(14,0,0,14,336,412.5)" />
<use xlink:href="#f6_lq" transform="matrix(14,0,0,14,347.3,412.5)" />
<use xlink:href="#f6_cc" transform="matrix(14,0,0,14,354,412.5)" />
<use xlink:href="#f6_ct" transform="matrix(14,0,0,14,365.6,412.5)" />
<use xlink:href="#f6_c1" transform="matrix(14,0,0,14,371.2,412.5)" />
<use xlink:href="#f6_d4" transform="matrix(14,0,0,14,379.2,412.5)" />
<use xlink:href="#f6_bg" transform="matrix(14,0,0,14,385.3,412.5)" />
<use xlink:href="#f6_be" transform="matrix(14,0,0,14,399.5,412.5)" />
<use xlink:href="#f6_bb" transform="matrix(14,0,0,14,413.5,412.5)" />
<use xlink:href="#f6_cv" transform="matrix(14,0,0,14,426.1,412.5)" />
<use xlink:href="#f6_cb" transform="matrix(14,0,0,14,142.4,470.9)" />
<use xlink:href="#f6_d8" transform="matrix(14,0,0,14,157.3,470.9)" />
<use xlink:href="#f6_be" transform="matrix(14,0,0,14,162.9,470.9)" />
<use xlink:href="#f6_cb" transform="matrix(14,0,0,14,182.5,470.9)" />
<use xlink:href="#f6_bz" transform="matrix(14,0,0,14,197.4,470.9)" />
<use xlink:href="#f6_bh" transform="matrix(14,0,0,14,210.8,470.9)" />
<use xlink:href="#f6_bt" transform="matrix(14,0,0,14,233.2,470.9)" />
<use xlink:href="#f6_d4" transform="matrix(14,0,0,14,245,470.9)" />
<use xlink:href="#f6_bx" transform="matrix(14,0,0,14,250.6,470.9)" />
<use xlink:href="#f6_d8" transform="matrix(14,0,0,14,262.9,470.9)" />
<use xlink:href="#f6_c3" transform="matrix(14,0,0,14,268.5,470.9)" />
<use xlink:href="#f6_bx" transform="matrix(14,0,0,14,288.9,470.9)" />
<use xlink:href="#f6_ct" transform="matrix(14,0,0,14,301.2,470.9)" />
<use xlink:href="#f6_c7" transform="matrix(14,0,0,14,306.8,470.9)" />
<use xlink:href="#f6_c1" transform="matrix(14,0,0,14,318.9,470.9)" />
<use xlink:href="#f6_cv" transform="matrix(14,0,0,14,327.2,470.9)" />
<use xlink:href="#f6_am" transform="matrix(14,0,0,14,338.5,470.9)" />
<use xlink:href="#f6_b9" transform="matrix(14,0,0,14,365.7,470.9)" />
<use xlink:href="#f6_ct" transform="matrix(14,0,0,14,381.2,470.9)" />
<use xlink:href="#f6_ao" transform="matrix(14,0,0,14,386.8,470.9)" />
<use xlink:href="#f6_cb" transform="matrix(14,0,0,14,404,470.9)" />
<use xlink:href="#f6_cw" transform="matrix(14,0,0,14,419.4,470.9)" />
<use xlink:href="#f6_bh" transform="matrix(14,0,0,14,418.8,470.9)" />
<use xlink:href="#f6_cv" transform="matrix(14,0,0,14,435.6,470.9)" />
<use xlink:href="#f6_ap" transform="matrix(14,0,0,14,446.9,470.9)" />
<use xlink:href="#f6_di" transform="matrix(14,0,0,14,457.1,471.4)" />
<use xlink:href="#f6_bs" transform="matrix(14,0,0,14,458.3,470.9)" />
<use xlink:href="#f6_cv" transform="matrix(14,0,0,14,472.3,470.9)" />
<use xlink:href="#f6_bp" transform="matrix(14,0,0,14,164.2,504.2)" />
<use xlink:href="#f6_cx" transform="matrix(14,0,0,14,176.4,504.1)" />
<use xlink:href="#f6_b9" transform="matrix(14,0,0,14,182.1,504.2)" />
<use xlink:href="#f6_d4" transform="matrix(14,0,0,14,193.3,504.2)" />
<use xlink:href="#f6_c7" transform="matrix(14,0,0,14,197.6,504.2)" />
<use xlink:href="#f6_d4" transform="matrix(14,0,0,14,209.8,504.2)" />
<use xlink:href="#f6_bp" transform="matrix(14,0,0,14,215.4,504.2)" />
<use xlink:href="#f6_d8" transform="matrix(14,0,0,14,227.7,504.2)" />
<use xlink:href="#f6_c8" transform="matrix(14,0,0,14,239,504.2)" />
<use xlink:href="#f6_e1" transform="matrix(14,0,0,14,254.8,504.2)" />
<use xlink:href="#f6_cw" transform="matrix(14,0,0,14,267.4,504.1)" />
<use xlink:href="#f6_bg" transform="matrix(14,0,0,14,266.9,504.2)" />
<use xlink:href="#f6_c0" transform="matrix(14,0,0,14,281.2,504.2)" />
<use xlink:href="#f6_bt" transform="matrix(14,0,0,14,293.7,504.2)" />
<use xlink:href="#f6_d4" transform="matrix(14,0,0,14,305.5,504.2)" />
<use xlink:href="#f6_c3" transform="matrix(14,0,0,14,311.1,504.2)" />
<use xlink:href="#f6_d4" transform="matrix(14,0,0,14,325.9,504.2)" />
<use xlink:href="#f6_bg" transform="matrix(14,0,0,14,331.5,504.2)" />
<use xlink:href="#f6_ct" transform="matrix(14,0,0,14,345.7,504.2)" />
<use xlink:href="#f6_aq" transform="matrix(14,0,0,14,351.3,504.2)" />
<use xlink:href="#f6_c1" transform="matrix(14,0,0,14,372.7,504.2)" />
<use xlink:href="#f6_ct" transform="matrix(14,0,0,14,381.1,504.2)" />
<use xlink:href="#f6_bo" transform="matrix(14,0,0,14,386.7,504.2)" />
<use xlink:href="#f6_b9" transform="matrix(14,0,0,14,401.1,504.2)" />
<use xlink:href="#f6_bv" transform="matrix(14,0,0,14,416.6,504.2)" />
<use xlink:href="#f6_cw" transform="matrix(14,0,0,14,429,504.1)" />
<use xlink:href="#f6_c1" transform="matrix(14,0,0,14,428.4,504.2)" />
<use xlink:href="#f6_bg" transform="matrix(14,0,0,14,436.8,504.2)" />
<use xlink:href="#f6_cv" transform="matrix(14,0,0,14,451.1,504.2)" />
<use xlink:href="#f6_am" transform="matrix(14,0,0,14,196.2,537.4)" />
<use xlink:href="#f6_bp" transform="matrix(14,0,0,14,223.4,537.4)" />
<use xlink:href="#f6_d8" transform="matrix(14,0,0,14,235.7,537.4)" />
<use xlink:href="#f6_bx" transform="matrix(14,0,0,14,247,537.4)" />
<use xlink:href="#f6_ct" transform="matrix(14,0,0,14,259.3,537.4)" />
<use xlink:href="#f6_bp" transform="matrix(14,0,0,14,264.9,537.4)" />
<use xlink:href="#f6_cc" transform="matrix(14,0,0,14,282.9,537.4)" />
<use xlink:href="#f6_d5" transform="matrix(14,0,0,14,294.8,537.4)" />
<use xlink:href="#f6_k" transform="matrix(14,0,0,14,294.5,537.4)" />
<use xlink:href="#f6_bb" transform="matrix(14,0,0,14,305.4,537.4)" />
<use xlink:href="#f6_d8" transform="matrix(14,0,0,14,318,537.4)" />
<use xlink:href="#f6_c1" transform="matrix(14,0,0,14,323.6,537.4)" />
<use xlink:href="#f6_cv" transform="matrix(14,0,0,14,332,537.4)" />
<use xlink:href="#f6_bz" transform="matrix(14,0,0,14,343.3,537.4)" />
<use xlink:href="#f6_ct" transform="matrix(14,0,0,14,356.6,537.4)" />
<use xlink:href="#f6_c1" transform="matrix(14,0,0,14,362.2,537.4)" />
<use xlink:href="#f6_d4" transform="matrix(14,0,0,14,370.2,537.4)" />
<use xlink:href="#f6_bx" transform="matrix(14,0,0,14,376.3,537.4)" />
<use xlink:href="#f6_cb" transform="matrix(14,0,0,14,388.6,537.4)" />
<use xlink:href="#f6_b9" transform="matrix(14,0,0,14,403.4,537.4)" />
<use xlink:href="#f6_oc" transform="matrix(14,0,0,14,418.9,537.4)" />
<use xlink:href="#f6_bq" transform="matrix(14,0,0,14,184.8,570.6)" />
<use xlink:href="#f6_bt" transform="matrix(14,0,0,14,198,570.6)" />
<use xlink:href="#f6_d4" transform="matrix(14,0,0,14,209.8,570.6)" />
<use xlink:href="#f6_bt" transform="matrix(14,0,0,14,215.4,570.6)" />
<use xlink:href="#f6_ct" transform="matrix(14,0,0,14,227.1,570.6)" />
<use xlink:href="#f6_b9" transform="matrix(14,0,0,14,232.7,570.6)" />
<use xlink:href="#f6_d8" transform="matrix(14,0,0,14,248.2,570.6)" />
<use xlink:href="#f6_bm" transform="matrix(14,0,0,14,253.8,570.6)" />
<use xlink:href="#f6_ct" transform="matrix(14,0,0,14,266.5,570.6)" />
<use xlink:href="#f6_bg" transform="matrix(14,0,0,14,277.8,570.6)" />
<use xlink:href="#f6_ct" transform="matrix(14,0,0,14,292,570.6)" />
<use xlink:href="#f6_c7" transform="matrix(14,0,0,14,297.7,570.6)" />
<use xlink:href="#f6_bo" transform="matrix(14,0,0,14,309.7,570.6)" />
<use xlink:href="#f6_c1" transform="matrix(14,0,0,14,324.1,570.6)" />
<use xlink:href="#f6_cv" transform="matrix(14,0,0,14,332.5,570.6)" />
<use xlink:href="#f6_cu" transform="matrix(14,0,0,14,343.8,570.6)" />
<use xlink:href="#f6_b9" transform="matrix(14,0,0,14,349.4,570.6)" />
<use xlink:href="#f6_c0" transform="matrix(14,0,0,14,364.9,570.6)" />
<use xlink:href="#f6_ct" transform="matrix(14,0,0,14,377.4,570.6)" />
<use xlink:href="#f6_bg" transform="matrix(14,0,0,14,388.7,570.6)" />
<use xlink:href="#f6_be" transform="matrix(14,0,0,14,403,570.6)" />
<use xlink:href="#f6_bb" transform="matrix(14,0,0,14,417,570.6)" />
<use xlink:href="#f6_cv" transform="matrix(14,0,0,14,429.6,570.6)" />
<use xlink:href="#f6_br" transform="matrix(14,0,0,14,156.1,629.1)" />
<use xlink:href="#f6_ct" transform="matrix(14,0,0,14,167.8,629.1)" />
<use xlink:href="#f6_br" transform="matrix(14,0,0,14,173.4,629.1)" />
<use xlink:href="#f6_ct" transform="matrix(14,0,0,14,185.1,629.1)" />
<use xlink:href="#f6_c1" transform="matrix(14,0,0,14,190.7,629.1)" />
<use xlink:href="#f6_ct" transform="matrix(14,0,0,14,199.1,629.1)" />
<use xlink:href="#f6_br" transform="matrix(14,0,0,14,210.4,629.1)" />
<use xlink:href="#f6_c8" transform="matrix(14,0,0,14,222.1,629.1)" />
<use xlink:href="#f6_dr" transform="matrix(14,0,0,14,238.4,629.1)" />
<use xlink:href="#f6_bt" transform="matrix(14,0,0,14,237.9,629.1)" />
<use xlink:href="#f6_c1" transform="matrix(14,0,0,14,249.6,629.1)" />
<use xlink:href="#f6_cv" transform="matrix(14,0,0,14,258,629.1)" />
<use xlink:href="#f6_bx" transform="matrix(14,0,0,14,269.3,629.1)" />
<use xlink:href="#f6_ct" transform="matrix(14,0,0,14,281.6,629.1)" />
<use xlink:href="#f6_c3" transform="matrix(14,0,0,14,287.2,629.1)" />
<use xlink:href="#f6_bz" transform="matrix(14,0,0,14,301.9,629.1)" />
<use xlink:href="#f6_bc" transform="matrix(14,0,0,14,320.9,629.1)" />
<use xlink:href="#f6_bo" transform="matrix(14,0,0,14,334.8,629.1)" />
<use xlink:href="#f6_ct" transform="matrix(14,0,0,14,349.2,629.1)" />
<use xlink:href="#f6_cu" transform="matrix(14,0,0,14,360.5,629.1)" />
<use xlink:href="#f6_br" transform="matrix(14,0,0,14,366.1,629.1)" />
<use xlink:href="#f6_bt" transform="matrix(14,0,0,14,377.8,629.1)" />
<use xlink:href="#f6_d8" transform="matrix(14,0,0,14,389.5,629.1)" />
<use xlink:href="#f6_dj" transform="matrix(14,0,0,14,393.8,629.9)" />
<use xlink:href="#f6_cb" transform="matrix(14,0,0,14,400.8,629.1)" />
<use xlink:href="#f6_cx" transform="matrix(14,0,0,14,415.6,629)" />
<use xlink:href="#f6_dj" transform="matrix(14,0,0,14,409.3,629.5)" />
<use xlink:href="#f6_bz" transform="matrix(14,0,0,14,421.3,629.1)" />
<use xlink:href="#f6_bt" transform="matrix(14,0,0,14,434.7,629.1)" />
<use xlink:href="#f6_bz" transform="matrix(14,0,0,14,452,629.1)" />
<use xlink:href="#f6_oz" transform="matrix(14,0,0,14,465.5,629.1)" />
<use xlink:href="#f6_bt" transform="matrix(14,0,0,14,158.4,662.3)" />
<use xlink:href="#f6_ct" transform="matrix(14,0,0,14,170.1,662.3)" />
<use xlink:href="#f6_b9" transform="matrix(14,0,0,14,175.8,662.3)" />
<use xlink:href="#f6_d8" transform="matrix(14,0,0,14,191.3,662.3)" />
<use xlink:href="#f6_bm" transform="matrix(14,0,0,14,196.9,662.3)" />
<use xlink:href="#f6_ct" transform="matrix(14,0,0,14,209.6,662.3)" />
<use xlink:href="#f6_c1" transform="matrix(14,0,0,14,215.2,662.3)" />
<use xlink:href="#f6_ct" transform="matrix(14,0,0,14,223.6,662.3)" />
<use xlink:href="#f6_br" transform="matrix(14,0,0,14,234.9,662.3)" />
<use xlink:href="#f6_c8" transform="matrix(14,0,0,14,246.5,662.3)" />
<use xlink:href="#f6_dr" transform="matrix(14,0,0,14,262.8,662.3)" />
<use xlink:href="#f6_bt" transform="matrix(14,0,0,14,262.4,662.3)" />
<use xlink:href="#f6_b9" transform="matrix(14,0,0,14,279.8,662.3)" />
<use xlink:href="#f6_c1" transform="matrix(14,0,0,14,295.3,662.3)" />
<use xlink:href="#f6_ct" transform="matrix(14,0,0,14,303.6,662.3)" />
<use xlink:href="#f6_ao" transform="matrix(14,0,0,14,309.3,662.3)" />
<use xlink:href="#f6_br" transform="matrix(14,0,0,14,326.4,662.3)" />
<use xlink:href="#f6_d4" transform="matrix(14,0,0,14,337.7,662.3)" />
<use xlink:href="#f6_c0" transform="matrix(14,0,0,14,343.8,662.3)" />
<use xlink:href="#f6_ct" transform="matrix(14,0,0,14,356.3,662.3)" />
<use xlink:href="#f6_br" transform="matrix(14,0,0,14,361.9,662.3)" />
<use xlink:href="#f6_b9" transform="matrix(14,0,0,14,379.3,662.3)" />
<use xlink:href="#f6_n1" transform="matrix(14,0,0,14,394.8,662.3)" />
<use xlink:href="#f6_di" transform="matrix(14,0,0,14,403.1,662.7)" />
<use xlink:href="#f6_bb" transform="matrix(14,0,0,14,407.9,662.3)" />
<use xlink:href="#f6_cv" transform="matrix(14,0,0,14,420.5,662.3)" />
<use xlink:href="#f6_bq" transform="matrix(14,0,0,14,431.8,662.3)" />
<use xlink:href="#f6_d8" transform="matrix(14,0,0,14,445,662.3)" />
<use xlink:href="#f6_bt" transform="matrix(14,0,0,14,450.6,662.3)" />
<use xlink:href="#f6_d4" transform="matrix(14,0,0,14,462.5,662.3)" />
<use xlink:href="#f6_bz" transform="matrix(14,0,0,14,191.7,695.5)" />
<use xlink:href="#f6_ct" transform="matrix(14,0,0,14,205,695.5)" />
<use xlink:href="#f6_c1" transform="matrix(14,0,0,14,210.6,695.5)" />
<use xlink:href="#f6_d4" transform="matrix(14,0,0,14,218.6,695.5)" />
<use xlink:href="#f6_bx" transform="matrix(14,0,0,14,224.7,695.5)" />
<use xlink:href="#f6_d8" transform="matrix(14,0,0,14,237,695.5)" />
<use xlink:href="#f6_c3" transform="matrix(14,0,0,14,242.6,695.5)" />
<use xlink:href="#f6_bz" transform="matrix(14,0,0,14,257.3,695.5)" />
<use xlink:href="#f6_ct" transform="matrix(14,0,0,14,270.6,695.5)" />
<use xlink:href="#f6_k" transform="matrix(14,0,0,14,276.2,695.5)" />
<use xlink:href="#f6_cu" transform="matrix(14,0,0,14,287.1,695.5)" />
<use xlink:href="#f6_b9" transform="matrix(14,0,0,14,292.7,695.5)" />
<use xlink:href="#f6_br" transform="matrix(14,0,0,14,308.2,695.5)" />
<use xlink:href="#f6_d8" transform="matrix(14,0,0,14,319.9,695.5)" />
<use xlink:href="#f6_c1" transform="matrix(14,0,0,14,325.5,695.5)" />
<use xlink:href="#f6_cv" transform="matrix(14,0,0,14,333.9,695.5)" />
<use xlink:href="#f6_by" transform="matrix(14,0,0,14,345.2,695.5)" />
<use xlink:href="#f6_d5" transform="matrix(14,0,0,14,359.3,695.5)" />
<use xlink:href="#f6_n1" transform="matrix(14,0,0,14,359.2,695.5)" />
<use xlink:href="#f6_bz" transform="matrix(14,0,0,14,378,695.5)" />
<use xlink:href="#f6_bt" transform="matrix(14,0,0,14,391.3,695.5)" />
<use xlink:href="#f6_b9" transform="matrix(14,0,0,14,408.7,695.5)" />
<use xlink:href="#f6_oc" transform="matrix(14,0,0,14,424.2,695.5)" />
<use xlink:href="#f6_bz" transform="matrix(14,0,0,14,188.2,728.8)" />
<use xlink:href="#f6_bt" transform="matrix(14,0,0,14,201.6,728.8)" />
<use xlink:href="#f6_d4" transform="matrix(14,0,0,14,213.4,728.8)" />
<use xlink:href="#f6_bt" transform="matrix(14,0,0,14,218.9,728.8)" />
<use xlink:href="#f6_ct" transform="matrix(14,0,0,14,230.7,728.8)" />
<use xlink:href="#f6_b9" transform="matrix(14,0,0,14,236.3,728.8)" />
<use xlink:href="#f6_d8" transform="matrix(14,0,0,14,251.8,728.8)" />
<use xlink:href="#f6_bm" transform="matrix(14,0,0,14,257.4,728.8)" />
<use xlink:href="#f6_ct" transform="matrix(14,0,0,14,270.1,728.8)" />
<use xlink:href="#f6_c3" transform="matrix(14,0,0,14,281.4,728.8)" />
<use xlink:href="#f6_d4" transform="matrix(14,0,0,14,296.2,728.8)" />
<use xlink:href="#f6_be" transform="matrix(14,0,0,14,301.7,728.8)" />
<use xlink:href="#f6_ct" transform="matrix(14,0,0,14,315.7,728.8)" />
<use xlink:href="#f6_c3" transform="matrix(14,0,0,14,321.3,728.8)" />
<use xlink:href="#f6_d8" transform="matrix(14,0,0,14,336,728.8)" />
<use xlink:href="#f6_lq" transform="matrix(14,0,0,14,347.3,728.8)" />
<use xlink:href="#f6_cc" transform="matrix(14,0,0,14,354,728.8)" />
<use xlink:href="#f6_ct" transform="matrix(14,0,0,14,365.6,728.8)" />
<use xlink:href="#f6_c1" transform="matrix(14,0,0,14,371.2,728.8)" />
<use xlink:href="#f6_d4" transform="matrix(14,0,0,14,379.2,728.8)" />
<use xlink:href="#f6_bg" transform="matrix(14,0,0,14,385.3,728.8)" />
<use xlink:href="#f6_be" transform="matrix(14,0,0,14,399.5,728.8)" />
<use xlink:href="#f6_bb" transform="matrix(14,0,0,14,413.5,728.8)" />
<use xlink:href="#f6_cv" transform="matrix(14,0,0,14,426.1,728.8)" />
<use xlink:href="#f7_4r" transform="matrix(9,0,0,9,290.2,795.2)" />
<use xlink:href="#f8_t" transform="matrix(9,0,0,9,303,795.2)" />
<use xlink:href="#f8_k" transform="matrix(9,0,0,9,310.7,795.2)" />
<use xlink:href="#f7_4r" transform="matrix(9,0,0,9,321.3,795.2)" />
</g>
</g>
<image preserveAspectRatio="none" x="22" y="801" width="581" height="86" xlink:href="img/1.png"/>
<path d="M226.9,97.4H395.3v1.1H226.9V97.4Z" class="g1_96"/>
<image preserveAspectRatio="none" x="202" y="14" width="217" height="26" xlink:href="img/2.png"/>
<defs>
<path d="M686,512V822H333L435,749l2,-237ZM860,-65L686,29V298H440V168L348,118c0,0,-90,30,-190,128c0,0,-100,98,-127,183l52,83H203L189,822H0L-86,937l32,64H1045l86,-115l-33,-64H828L930,749V-31L860,-65Z"
id="f5_bz"
transform="scale(0.001,-0.001)"/>

<path d="M746,-65L571,29V419H376V260L275,212c0,0,-87,48,-160,148c0,0,-72,100,-91,193l57,84H571V822H0L-86,937l32,64H930l88,-115L985,822H713L816,749V-31L746,-65Z"
id="f5_bt"
transform="scale(0.001,-0.001)"/>

<path d="M-289,908l-132,216c0,0,-70,120,-169,120c0,0,-83,0,-200,-80l-130,249c0,0,125,78,234,78c0,0,187,0,349,-241L-159,969L-289,908Z"
id="f5_d4"
transform="scale(0.001,-0.001)"/>

<path d="M277,-65L102,29V822H0L-86,937l32,64H463L548,886L516,822H244L347,749V-31L277,-65Z"
id="f5_ct"
transform="scale(0.001,-0.001)"/>

<path d="M300,310c13,0,56,2,103,25c0,0,58,27,100,81V523c0,0,-46,16,-83,16c0,0,-69,0,-111,-45c0,0,-42,-45,-42,-104c0,0,0,-45,28,-80c0,0,2,0,5,0ZM677,-65L503,29V144c0,0,-32,-11,-75,-11c0,0,-147,0,-272,98c0,0,-125,99,-125,233c0,0,0,110,75,185c0,0,76,74,195,74l67,-6L503,646V822H0L-86,937l32,64H1245l86,-115l-32,-64H645L747,749V622c0,0,81,58,165,58c0,0,122,0,213,-99c0,0,91,-98,91,-230c0,0,0,-204,-253,-371L791,157c0,0,110,83,164,139c0,0,53,55,53,106c0,0,0,55,-53,55c0,0,-83,0,-208,-145V-31L677,-65Z"
id="f5_b9"
transform="scale(0.001,-0.001)"/>

<path d="M277,-65L102,29V822H0L-86,937l32,64H86L18,1111c0,0,-67,122,-168,122c0,0,-81,0,-202,-80l-128,250c0,0,122,77,232,77c0,0,196,0,356,-250L252,1001H463L548,886L516,822H244L347,749V-31L277,-65Z"
id="f5_d8"
transform="scale(0.001,-0.001)"/>

<path d="M573,-101c0,0,-296,0,-555,382l104,86c0,0,167,-260,381,-260c0,0,87,0,151,46c0,0,64,46,63,113L489,194c0,0,-167,54,-273,152c0,0,-106,99,-106,206c0,0,0,87,72,142c0,0,72,55,211,55H588v73H0L-86,937l32,64H949l85,-115l-32,-64H706L808,749V545H445c0,0,-127,0,-127,-64c0,0,0,-35,38,-62l278,64c0,0,125,-43,193,-130c0,0,67,-87,67,-182c0,0,0,-116,-91,-194c0,0,-91,-78,-230,-78Z"
id="f5_bm"
transform="scale(0.001,-0.001)"/>

<path d="M472,-77C472,-77,28,171,28,448c0,0,0,116,77,191c0,0,77,74,188,74c0,0,51,0,95,-18L527,574c0,0,104,114,277,117V822H0L-86,937l32,64H1164l86,-115l-32,-64H946l102,-73V-31L978,-65L804,29V526c0,0,-130,-78,-133,-294L611,196L431,309c0,0,0,97,33,174c0,0,-22,10,-53,10c0,0,-52,0,-90,-36c0,0,-38,-37,-38,-99c0,0,0,-80,68,-150c0,0,69,-70,214,-161L472,-77Z"
id="f5_c3"
transform="scale(0.001,-0.001)"/>

<path d="M911,-65L736,29V136c0,0,-59,-28,-134,-28c0,0,-159,0,-296,101c0,0,-136,101,-136,233c0,0,0,47,21,90H60L-22,648L9,712H578L671,574L639,510H492c0,0,-87,-58,-87,-157c0,0,0,-26,9,-52l50,-5c0,0,78,0,156,44c0,0,77,43,116,111V822H0L-86,937l32,64H1095l86,-115l-32,-64H878L981,749V-31L911,-65Z"
id="f5_be"
transform="scale(0.001,-0.001)"/>

<path d="M768,-49L678,8V202c0,0,-73,-58,-172,-58c0,0,-123,0,-240,94c0,0,-118,94,-179,237l20,55c0,0,134,12,215,70c0,0,81,57,81,141c0,0,0,90,-67,134l-26,3c0,0,-46,0,-74,-29c0,0,-28,-30,-28,-68c0,0,0,-55,82,-109L252,620C252,620,93,720,93,820c0,0,0,65,47,104c0,0,46,40,114,40c0,0,99,0,179,-83c0,0,80,-83,82,-197c0,0,0,-93,-79,-165c0,0,-78,-73,-199,-97c0,0,29,-104,88,-158c0,0,42,-16,92,-16c0,0,78,0,151,38c0,0,74,38,110,111V822H553l-46,76l14,31H943l45,-76L975,822H739l66,-58V-39L768,-49Z"
id="f6_bq"
transform="scale(0.001,-0.001)"/>

<path d="M228,-49L138,8V822H0l-45,76l14,31H119L-33,1144c0,0,-70,92,-157,92c0,0,-69,0,-159,-58l-72,118c0,0,89,73,181,73c0,0,140,0,257,-170L205,929H402l46,-76L434,822H199l65,-58V-39L228,-49Z"
id="f6_d8"
transform="scale(0.001,-0.001)"/>

<path d="M663,-49L573,8V445H299V280L226,251c0,0,-105,99,-162,238l63,72H573V822H0l-45,76l14,31H837l46,-76L869,822H634l66,-58V-39L663,-49Z"
id="f6_bt"
transform="scale(0.001,-0.001)"/>

<path d="M-214,863l-199,281c0,0,-70,92,-157,92c0,0,-69,0,-159,-58l-72,118c0,0,89,73,180,73c0,0,141,0,258,-170L-155,901l-59,-38Z"
id="f6_d4"
transform="scale(0.001,-0.001)"/>

<path d="M688,-243c0,0,-256,53,-408,173c0,0,-152,119,-152,270c0,0,0,101,68,171c0,0,-101,84,-101,179c0,0,0,64,53,112c0,0,54,47,191,47H587V822H0l-45,76l14,31H830l45,-76L862,822H640l66,-58V585H362c0,0,-159,-1,-159,-92c0,0,0,-41,46,-80c0,0,76,47,183,47c0,0,135,0,230,-76c0,0,96,-75,96,-187C758,197,758,67,629,2L545,104c0,0,49,30,81,75c0,0,32,44,32,82c0,0,0,16,-4,26c0,0,-64,58,-167,58c0,0,-97,0,-166,-50v-2c0,0,-67,-52,-67,-131c0,0,0,-116,132,-199c0,0,132,-84,334,-132l-32,-74Z"
id="f6_cc"
transform="scale(0.001,-0.001)"/>

<path d="M228,-49L138,8V822H0l-45,76l14,31H402l46,-76L434,822H199l65,-58V-39L228,-49Z"
id="f6_ct"
transform="scale(0.001,-0.001)"/>

<path d="M0,822l-45,76l14,31H61l46,-76L93,822Z"
id="f6_no"
transform="scale(0.001,-0.001)"/>

<path d="M845,-49L755,8V513H497c0,0,61,-45,93,-110c0,0,33,-64,33,-128c0,0,0,-90,-58,-144c0,0,-59,-53,-143,-53c0,0,-133,0,-234,139C188,217,87,356,20,596l76,24c0,0,60,-201,127,-306c0,0,67,-105,160,-105c0,0,57,0,91,36c0,0,33,36,33,91c0,0,0,84,-73,159L295,558v71H755V822H0l-45,76l14,31H1019l46,-76l-14,-31H816l66,-58V-39L845,-49Z"
id="f6_bg"
transform="scale(0.001,-0.001)"/>

<path d="M548,-57c0,0,-122,0,-243,81c0,0,-122,81,-252,280l57,41C110,345,283,64,498,64c0,0,92,0,153,49c0,0,61,49,61,121c0,0,0,46,-28,84L440,237c0,0,-73,11,-139,55c0,0,-66,44,-105,105c0,0,-40,61,-40,119c0,0,0,72,62,125c0,0,62,53,184,53H625V822H0l-45,76l14,31H906l46,-76L938,822H678l66,-58V562H431c0,0,-164,0,-164,-99c0,0,0,-55,57,-102l261,82c0,0,104,-21,172,-98c0,0,68,-78,68,-171c0,0,0,-99,-76,-166c0,0,-77,-65,-201,-65Z"
id="f6_bm"
transform="scale(0.001,-0.001)"/>

<path d="M108,-433L-59,-214c0,0,-99,119,-191,119c0,0,-59,0,-96,-35c0,0,-36,-34,-36,-81c0,0,0,-49,42,-83l152,95l64,-116c0,0,-71,-58,-148,-58c0,0,-80,0,-146,63c0,0,-65,64,-65,144c0,0,0,77,62,131c0,0,61,53,142,53c0,0,138,0,296,-205L165,-393l-57,-40Z"
id="f6_cx"
transform="scale(0.001,-0.001)"/>

<path d="M471,-26c0,0,-259,0,-448,396l70,43C93,413,240,98,442,98c0,0,79,0,132,46c0,0,54,45,54,120c0,0,0,61,-38,116c0,0,-38,54,-107,72L322,370L255,492c0,0,66,53,156,56c0,0,128,51,128,153c0,0,0,77,-65,121H0l-45,76l14,31H813l46,-76L845,822H578c0,0,76,-66,76,-157c0,0,0,-95,-87,-156c0,0,84,-48,131,-123c0,0,48,-76,48,-158c0,0,0,-109,-78,-182c0,0,-78,-72,-197,-72Z"
id="f6_ap"
transform="scale(0.001,-0.001)"/>

<path d="M823,-49L733,8V339H445V191L371,160c0,0,-56,36,-120,105c0,0,-63,70,-89,131l41,59H313V735c0,0,0,99,-55,140c0,0,-3,1,-8,1c-16,0,-48,-3,-71,-23c0,0,-31,-26,-31,-66c0,0,0,-69,81,-113L189,620C189,620,31,720,31,828c0,0,0,61,45,99c0,0,46,37,109,37c0,0,96,0,173,-86c0,0,76,-87,79,-194V455H733V822H556l-46,76l14,31H998l45,-76l-13,-31H794l66,-58V-39L823,-49Z"
id="f6_by"
transform="scale(0.001,-0.001)"/>

<path d="M228,-49L138,8V822H0l-45,76l14,31H138c0,0,-109,342,-284,342c0,0,-62,0,-102,-40c0,0,-40,-39,-40,-93c0,0,0,-61,51,-134l-42,-32c0,0,-128,113,-128,226c0,0,0,79,60,136c0,0,61,56,154,56c0,0,137,0,249,-125c0,0,112,-125,169,-336H402l46,-76L434,822H199l65,-58V-39L228,-49Z"
id="f6_cv"
transform="scale(0.001,-0.001)"/>

<path d="M283,260c0,0,122,0,209,113V513c0,0,-90,51,-160,51c0,0,-80,0,-129,-50c0,0,-49,-50,-49,-118c0,0,0,-60,35,-110c0,0,45,-26,94,-26ZM582,-49L492,8V211c0,0,-63,-54,-141,-54c0,0,-113,0,-213,92c0,0,-100,92,-100,205c0,0,0,93,69,157c0,0,69,64,162,64c0,0,32,0,64,-9L492,590V822H0l-45,76l14,31H1108l45,-76l-13,-31H553l66,-58V524c0,0,91,89,192,89c0,0,98,0,171,-79c0,0,72,-79,72,-186c0,0,0,-178,-224,-330L736,124c0,0,219,153,219,269c0,0,0,44,-26,75c0,0,-26,32,-81,32c0,0,-109,0,-229,-155V-39L582,-49Z"
id="f6_b9"
transform="scale(0.001,-0.001)"/>

<path d="M675,-274L602,21C602,21,550,3,498,3C498,3,347,3,210,118C210,118,73,232,73,373c0,0,0,113,84,184c0,0,84,71,222,72H524V822H0l-45,76l14,31H834l46,-76L866,822H585l66,-58V504l-3,2l3,-3H408c0,0,-95,0,-154,-53c0,0,-58,-53,-58,-132c0,0,0,-49,27,-100c0,0,28,-50,83,-84c0,0,44,-15,96,-15c0,0,91,0,160,46L535,303l101,48L773,188c0,0,-8,-28,-34,-66c0,0,-27,-38,-62,-64L813,-221L675,-274Z"
id="f6_br"
transform="scale(0.001,-0.001)"/>

<path d="M228,-49L138,8V822H0l-45,76l14,31H134c0,0,-231,362,-445,362c0,0,-87,0,-135,-49c0,0,-48,-49,-48,-116c0,0,0,-73,43,-122l-45,-32c0,0,-119,108,-119,223c0,0,0,94,74,155c0,0,73,60,181,60c0,0,161,0,316,-134c0,0,154,-133,267,-347H402l46,-76L434,822H199l65,-58V-39L228,-49Z"
id="f6_oc"
transform="scale(0.001,-0.001)"/>

<path d="M689,445V822H286l65,-58l8,-319ZM779,-49L689,8V328H370V180L296,150c0,0,-56,35,-120,104c0,0,-63,70,-89,131l41,60H238L223,822H0l-45,76l14,31H953l46,-76L985,822H750l66,-58V-39L779,-49Z"
id="f6_bz"
transform="scale(0.001,-0.001)"/>

<path d="M413,-59C413,-59,53,193,53,416c0,0,0,97,66,164c0,0,66,66,156,66c0,0,61,0,110,-30L487,507c0,0,92,126,257,126l35,-2V822H0l-45,76l14,31H1043l46,-76l-13,-31H840l66,-58V-39L869,-49L779,8V547c0,0,-101,-5,-165,-90c0,0,-64,-86,-70,-222L507,225l-90,73c0,0,5,79,35,151c0,0,-59,66,-128,66c0,0,-57,0,-100,-38c0,0,-44,-39,-44,-109c0,0,0,-165,284,-360L413,-59Z"
id="f6_c3"
transform="scale(0.001,-0.001)"/>

<path d="M825,-49L735,8V217c0,0,-86,-72,-197,-72c0,0,-130,0,-238,91c0,0,-107,91,-107,204c0,0,0,55,27,105H55L12,616l14,30H574l46,-76L607,539H396c0,0,-78,-49,-78,-162c0,0,0,-70,40,-111c0,0,39,-15,94,-15c0,0,84,0,163,41c0,0,79,41,120,121V822H0l-45,76l14,31H999l46,-76l-14,-31H796l66,-58V-39L825,-49Z"
id="f6_be"
transform="scale(0.001,-0.001)"/>

<path d="M266,150c0,0,-57,35,-120,104c0,0,-63,70,-89,131l41,60H211L194,822H0l-45,76l14,31H587l46,-76L619,822H255l66,-58l7,-319H688L721,328H339V180L266,150Z"
id="f6_lq"
transform="scale(0.001,-0.001)"/>

<path d="M527,-71L52,414l34,92H277c0,0,12,32,12,72V822H0l-45,76l14,31H599l46,-76L631,822H350l66,-55V564c0,0,0,-96,-152,-248L610,34L611,8L527,-71Z"
id="f6_c1"
transform="scale(0.001,-0.001)"/>

<path d="M727,-49L637,8V822H278l66,-58V226L270,196c0,0,-64,36,-122,98c0,0,-58,62,-79,122l43,59H217V822H0l-45,76l14,31H901l46,-76L933,822H698l66,-58V-39L727,-49Z"
id="f6_bb"
transform="scale(0.001,-0.001)"/>

<path d="M799,475V822H350l66,-55V564c0,0,0,-43,-25,-89ZM527,-71L52,414l34,92H277c0,0,12,32,12,72V822H0l-45,76l14,31H1063l46,-76l-14,-31H860l66,-58V-39L889,-49L799,8V370H315L264,316L610,34L611,8L527,-71Z"
id="f6_cb"
transform="scale(0.001,-0.001)"/>

<path d="M348,229c0,0,57,0,106,17L263,559c0,0,-95,-50,-95,-162c0,0,0,-75,52,-136c0,0,49,-32,128,-32Zm170,48c0,0,61,38,96,91V504c0,0,-131,80,-244,80l-35,-2L518,277ZM704,-49L614,8V193c0,0,-84,-65,-192,-65c0,0,-139,0,-255,98c0,0,-115,98,-115,226c0,0,0,106,77,175c0,0,77,70,189,70c0,0,38,0,75,-9L614,578V822H0l-45,76l14,31H878l46,-76L911,822H675l66,-58V-39L704,-49Z"
id="f6_bx"
transform="scale(0.001,-0.001)"/>

<path d="M347,-57C347,-57,66,211,66,394c0,0,0,98,74,164c0,0,74,65,225,65H616V822H0l-45,76l14,31H880l46,-76L912,822H677l66,-58V-39L706,-49L616,8V500H428c0,0,-239,0,-239,-161c0,0,0,-136,214,-343L347,-57Z"
id="f6_bp"
transform="scale(0.001,-0.001)"/>

<path d="M959,-49L869,8V367c0,0,-32,-13,-64,-13c0,0,-50,0,-110,25c0,0,23,-52,23,-109c0,0,0,-103,-70,-170c0,0,-70,-66,-182,-66c0,0,-110,0,-222,82c0,0,-111,83,-213,293l68,42c0,0,72,-155,152,-231c0,0,81,-76,178,-76c0,0,83,0,131,49c0,0,48,48,48,117c0,0,0,54,-30,100c0,0,-31,47,-91,65L325,391L257,512c0,0,68,53,156,56c0,0,140,72,140,179c0,0,0,69,-52,99c0,0,-4,1,-11,1c-19,0,-66,-4,-123,-30c0,0,-78,-35,-142,-96L150,823c0,0,119,117,253,117c0,0,98,0,175,-71c0,0,77,-70,77,-159c0,0,0,-103,-94,-180c0,0,39,-23,73,-56c0,0,52,-22,109,-22c0,0,77,0,126,38V822H727l-46,76l14,31h439l45,-76l-13,-31H930l66,-58V-39L959,-49Z"
id="f6_al"
transform="scale(0.001,-0.001)"/>

<path d="M325,240c0,0,77,0,154,35c0,0,77,35,120,99V500c0,0,-118,73,-222,73c0,0,-97,0,-151,-54c0,0,-53,-53,-53,-128c0,0,0,-73,49,-125c0,0,38,-26,103,-26ZM689,-49L599,8V199c0,0,-73,-65,-179,-65c0,0,-134,0,-252,96c0,0,-118,95,-118,221c0,0,0,102,78,171c0,0,78,69,190,69c0,0,38,0,75,-10L599,582V822H0l-45,76l14,31H863l46,-76L895,822H660l66,-58V-39L689,-49Z"
id="f6_c7"
transform="scale(0.001,-0.001)"/>

<path d="M342,324c0,0,45,0,75,34c0,0,31,33,31,100V822H165l66,-58V390c0,0,32,-66,111,-66ZM853,-49L762,8V822H509l65,-58V455c0,0,0,-134,-51,-185c0,0,-52,-52,-127,-52c0,0,-98,0,-195,99c0,0,-97,99,-97,209V822H0l-45,76l14,31H1027l46,-76l-14,-31H823l66,-58V-39L853,-49Z"
id="f6_bo"
transform="scale(0.001,-0.001)"/>

<path d="M228,-49L138,8V822H0l-45,76l14,31H134c0,0,-91,92,-91,191c0,0,0,105,85,170c0,0,84,65,219,65c0,0,128,0,293,-76c0,0,165,-77,362,-263L958,966c0,0,-177,143,-303,210c0,0,-125,68,-244,68c0,0,-107,0,-175,-50c0,0,-68,-50,-68,-131c0,0,0,-61,49,-134H402l46,-76L434,822H199l65,-58V-39L228,-49Z"
id="f6_cu"
transform="scale(0.001,-0.001)"/>

<path d="M374,248c0,0,77,0,149,36c0,0,71,37,110,107V822H284c0,0,138,-96,138,-208c0,0,0,-151,-228,-192c0,0,29,-104,89,-158c0,0,41,-16,91,-16ZM723,-49L633,8V200c0,0,-69,-56,-170,-56c0,0,-122,0,-240,94c0,0,-118,94,-179,237l20,55c0,0,133,17,187,44c0,0,55,28,55,84c0,0,0,45,-30,81c0,0,-30,36,-99,83H0l-45,76l14,31H897l46,-76L929,822H694l65,-58V-39L723,-49Z"
id="f6_c0"
transform="scale(0.001,-0.001)"/>

<path d="M388,325c0,0,58,0,112,31c0,0,53,31,84,86V822H165l69,-58V408c0,0,47,-83,154,-83ZM674,-49L584,8V257c0,0,-61,-51,-141,-51c0,0,-125,0,-232,109c0,0,-107,108,-107,243V822H0l-45,76l14,31H848l46,-76L880,822H645l65,-58V-39L674,-49Z"
id="f6_bv"
transform="scale(0.001,-0.001)"/>

<path d="M-91,1001c0,0,-27,10,-61,36c0,0,-33,26,-50,49c0,0,38,81,90,110c0,0,61,-23,107,-85c0,0,-28,-71,-86,-110ZM-214,863l-199,281c0,0,-70,92,-157,92c0,0,-69,0,-159,-58l-72,118c0,0,89,73,180,73c0,0,141,0,258,-170L-155,901l-59,-38Z"
id="f6_oz"
transform="scale(0.001,-0.001)"/>

<path d="M0,1062c0,0,-26,11,-60,36c0,0,-34,26,-51,49c0,0,39,81,91,110c0,0,60,-23,106,-85c0,0,-28,-70,-86,-110Z"
id="f6_dj"
transform="scale(0.001,-0.001)"/>

<path d="M413,313c0,0,91,0,145,58L231,782V408c0,0,47,-95,182,-95ZM603,438l11,28V822H295L603,438ZM704,-49L614,8V254c0,0,-61,-57,-151,-57c0,0,-138,0,-248,110c0,0,-111,110,-111,252V822H0l-45,76l14,31H878l46,-76L911,822H675l66,-58V-39L704,-49Z"
id="f6_ca"
transform="scale(0.001,-0.001)"/>

<path d="M513,460c0,0,61,81,61,179c0,0,0,87,-45,143c0,0,-45,57,-116,57c0,0,-63,0,-102,-43c0,0,-39,-43,-39,-110c0,0,0,-90,68,-151c0,0,68,-61,173,-75ZM581,-83L278,167l-41,-4c0,0,-99,0,-130,37l47,168l51,12l78,-79c0,0,110,40,183,105c0,0,-141,23,-231,107c0,0,-90,84,-90,193c0,0,0,69,37,116H0l-45,76l14,31H1134l45,-76l-13,-31H930l66,-58V-39L959,-49L869,8V822H588c0,0,51,-44,75,-109c0,0,25,-64,25,-122c0,0,0,-105,-81,-213c0,0,-80,-108,-240,-176L658,18l2,-25L581,-83Z"
id="f6_c8"
transform="scale(0.001,-0.001)"/>

<path d="M959,-49L869,8V367c0,0,-32,-13,-64,-13c0,0,-50,0,-110,25c0,0,23,-52,23,-109c0,0,0,-103,-70,-170c0,0,-70,-66,-182,-66c0,0,-110,0,-222,82c0,0,-111,83,-213,293l68,42c0,0,72,-155,152,-231c0,0,81,-76,178,-76c0,0,83,0,131,49c0,0,48,48,48,117c0,0,0,54,-30,100c0,0,-31,47,-91,65L325,391L257,512c0,0,68,53,156,56c0,0,140,72,140,179c0,0,0,69,-52,99c0,0,-4,1,-11,1c-19,0,-66,-4,-123,-30c0,0,-78,-35,-142,-96L150,823c0,0,119,117,253,117c0,0,98,0,175,-71c0,0,77,-70,77,-159c0,0,0,-103,-94,-180c0,0,39,-23,73,-56c0,0,52,-22,109,-22c0,0,77,0,126,38V822H727l-46,76l14,31h840l46,-76l-13,-31H1332l66,-58V-39l-37,-10L1271,8V822H930l66,-58V-39L959,-49Z"
id="f6_am"
transform="scale(0.001,-0.001)"/>

<path d="M-234,-413c0,0,-210,0,-488,322l54,49c0,0,119,-128,209,-193c0,0,90,-65,177,-65c0,0,72,0,113,40c0,0,42,39,42,91c0,0,0,75,-78,106L-323,-181l-90,98c0,0,63,95,167,95c0,0,90,0,155,-69c0,0,66,-70,66,-164c0,0,0,-85,-60,-139c0,0,-61,-53,-149,-53Z"
id="f6_cw"
transform="scale(0.001,-0.001)"/>

<path d="M527,-71L52,414l34,92H277c0,0,12,32,12,72V822H0l-45,76l14,31H940l45,-76L972,822H350l66,-55V553c0,0,24,52,77,83c0,0,52,30,112,30c0,0,87,0,171,-76c0,0,84,-75,222,-304L938,244L828,411c0,0,-95,134,-195,134c0,0,-63,0,-100,-35c0,0,-36,-36,-36,-87c0,0,0,-50,42,-87l152,99L755,315c0,0,-71,-61,-148,-61c0,0,-80,0,-146,66c0,0,-65,67,-65,164c0,0,-34,-70,-132,-168L610,34L611,8L527,-71Z"
id="f6_n1"
transform="scale(0.001,-0.001)"/>

<path d="M547,-285c0,0,-66,25,-102,80c0,0,32,69,82,101c0,0,55,-20,99,-80c0,0,-26,-67,-79,-101Zm1,228c0,0,-122,0,-243,81c0,0,-122,81,-252,280l57,41C110,345,283,64,498,64c0,0,92,0,153,49c0,0,61,49,61,121c0,0,0,46,-28,84L440,237c0,0,-73,11,-139,55c0,0,-66,44,-105,105c0,0,-40,61,-40,119c0,0,0,72,62,125c0,0,62,53,184,53H625V822H0l-45,76l14,31H906l46,-76L938,822H678l66,-58V562H431c0,0,-164,0,-164,-99c0,0,0,-55,57,-102l261,82c0,0,104,-21,172,-98c0,0,68,-78,68,-171c0,0,0,-99,-76,-166c0,0,-77,-65,-201,-65Z"
id="f6_ch"
transform="scale(0.001,-0.001)"/>

<path d="M252,385l310,78l22,-9c0,0,107,-43,200,-43c0,0,91,0,151,41V822H603l66,-58V585H373c0,0,-184,0,-184,-99c0,0,0,-48,63,-101ZM483,-305L295,-10c0,0,-90,22,-156,74l41,170h66L351,63c0,0,126,4,207,62c0,0,82,58,82,139c0,0,0,37,-18,71L365,266c0,0,-110,15,-197,102c0,0,-87,87,-87,176c0,0,0,69,59,117c0,0,59,48,172,48H550V822H0l-45,76l14,31H1199l46,-76l-14,-31H996l66,-58V-39l-37,-10L935,8V318c0,0,-41,-15,-78,-15c0,0,-52,0,-131,30c0,0,32,-55,32,-111c0,0,0,-109,-98,-179c0,0,-98,-69,-254,-69L599,-216L483,-305Z"
id="f6_bh"
transform="scale(0.001,-0.001)"/>

<path d="M483,-305L295,-10c0,0,-90,22,-156,74l41,170h66L351,63c0,0,126,4,207,62c0,0,82,58,82,139c0,0,0,37,-18,71L365,266c0,0,-110,15,-197,102c0,0,-87,87,-87,176c0,0,0,69,59,117c0,0,59,48,172,48H550V822H0l-45,76l14,31H550c0,0,-142,122,-142,255c0,0,0,78,52,133c0,0,52,55,140,55c0,0,98,0,176,-64l-23,-69c0,0,-53,32,-104,32c0,0,-56,0,-94,-36c0,0,-39,-36,-39,-95c0,0,0,-109,112,-211H822l46,-76L854,822H603l66,-58V585H373c0,0,-184,0,-184,-99c0,0,0,-48,63,-101l310,78c0,0,86,-34,141,-99c0,0,55,-65,55,-142c0,0,0,-109,-98,-179c0,0,-98,-69,-254,-69L599,-216L483,-305Z"
id="f6_ao"
transform="scale(0.001,-0.001)"/>

<path d="M-233,1021c0,0,-84,0,-168,55c0,0,-84,56,-146,162l51,50c0,0,95,-162,219,-162c0,0,125,0,160,157L-7,1234c0,0,-21,-103,-81,-158c0,0,-61,-55,-145,-55Zm-41,201c0,0,-66,25,-102,80c0,0,32,68,82,101c0,0,55,-20,99,-80c0,0,-26,-67,-79,-101Z"
id="f6_di"
transform="scale(0.001,-0.001)"/>

<path d="M827,-49L736,8V205c0,0,-84,-84,-209,-84c0,0,-130,0,-237,91c0,0,-108,92,-108,196c0,0,0,79,61,137C243,545,66,672,66,791c0,0,0,75,52,124c0,0,53,49,134,49c0,0,164,0,260,-237L451,694c0,0,-55,114,-119,163l-31,5c0,0,-44,0,-77,-32c0,0,-33,-31,-33,-78c0,0,0,-86,113,-165c0,0,60,27,133,27l67,-4l75,-89L564,490l-51,7H493c0,0,-90,0,-142,-43c0,0,-52,-43,-52,-104c0,0,0,-60,51,-109c0,0,33,-16,84,-16c0,0,89,0,177,47c0,0,89,47,125,137V822H567l-46,76l14,31h466l46,-76l-14,-31H798l65,-58V-39L827,-49Z"
id="f6_bs"
transform="scale(0.001,-0.001)"/>

<path d="M688,-49L597,8V335L248,81l-92,81L532,425l-81,76c0,0,-80,70,-133,70c0,0,-81,0,-194,-96L38,584c0,0,109,105,223,105c0,0,103,0,213,-107L597,457V822H0l-45,76l14,31H862l46,-76L894,822H658l66,-58V-39L688,-49Z"
id="f6_e1"
transform="scale(0.001,-0.001)"/>

<path d="M471,-26c0,0,-259,0,-448,396l70,43C93,413,240,98,442,98c0,0,79,0,132,46c0,0,54,45,54,120c0,0,0,61,-38,116c0,0,-38,54,-107,72L322,370L255,492c0,0,66,53,156,56c0,0,128,51,128,153c0,0,0,77,-65,121H0l-45,76l14,31H1123l46,-76l-14,-31H578c0,0,76,-66,76,-157c0,0,0,-95,-87,-156c0,0,52,-29,84,-64c0,0,131,134,243,134c0,0,93,0,158,-70c0,0,65,-71,65,-167c0,0,0,-142,-177,-272L851,170c0,0,173,129,173,230c0,0,0,34,-23,57c0,0,-23,23,-63,23c0,0,-104,0,-215,-141c0,0,23,-55,23,-111c0,0,0,-109,-78,-182c0,0,-78,-72,-197,-72Z"
id="f6_aq"
transform="scale(0.001,-0.001)"/>

<path d="M-214,860l-227,219c0,0,-73,70,-148,70c0,0,-67,0,-160,-58l-72,117c0,0,83,71,176,71c0,0,120,0,232,-124L-221,940l-102,294c0,0,-64,179,-189,179c0,0,-60,0,-133,-33l-60,125c0,0,84,47,164,47c0,0,200,0,281,-276L-150,901l-23,-15l-41,-26Z"
id="f6_d5"
transform="scale(0.001,-0.001)"/>

<path d="M108,-222l-44,58c0,0,96,81,104,164L89,61c0,0,12,83,93,122c0,0,50,-15,79,-55c0,0,29,-39,29,-90c0,0,0,-69,-48,-142c0,0,-48,-72,-134,-118Z"
id="f6_k"
transform="scale(0.001,-0.001)"/>

<path d="M-239,897c0,0,-82,61,-132,137c0,0,-50,75,-50,150c0,0,0,78,52,133c0,0,52,55,141,55c0,0,98,0,176,-64l-23,-69c0,0,-52,32,-104,32c0,0,-57,0,-95,-36c0,0,-38,-36,-38,-95c0,0,0,-115,117,-217l-44,-26Z"
id="f6_dr"
transform="scale(0.001,-0.001)"/>

<path d="M434,225c0,0,84,0,169,42c0,0,85,43,126,126V822H267c0,0,-64,-49,-64,-115c0,0,0,-79,90,-126c0,0,60,35,144,35l67,-6l75,-89L564,490l-51,7H493c0,0,-90,0,-142,-43c0,0,-52,-43,-52,-104c0,0,0,-60,51,-109c0,0,33,-16,84,-16ZM819,-49L729,8V197c0,0,-83,-76,-202,-76c0,0,-130,0,-237,91c0,0,-108,92,-108,196c0,0,0,72,53,128c0,0,-75,42,-115,97c0,0,-41,56,-41,113c0,0,0,38,22,76H0l-45,76l14,31H993l46,-76l-14,-31H790l66,-58V-39L819,-49Z"
id="f6_bc"
transform="scale(0.001,-0.001)"/>

<path d="M725,307c0,0,-95,0,-218,78c0,0,-123,78,-188,78c0,0,-54,0,-95,-34c0,0,-41,-34,-73,-100L93,362c0,0,38,88,101,146c0,0,63,59,148,59c0,0,90,0,214,-78c0,0,124,-79,188,-79c0,0,63,0,106,34c0,0,42,33,85,104l60,-40c0,0,-32,-66,-101,-134c0,0,-70,-67,-169,-67Z"
id="f7_4r"
transform="scale(0.001,-0.001)"/>

<path d="M420,489c0,0,93,0,153,65c0,0,60,65,60,181c0,0,0,116,-62,184c0,0,-61,68,-148,68c0,0,-90,0,-156,-74c0,0,-66,-73,-66,-189c0,0,0,-105,63,-170c0,0,63,-65,156,-65ZM391,-18c0,0,-128,0,-209,71c0,0,-82,71,-98,200l129,12c0,0,17,-91,63,-132c0,0,46,-41,118,-41c0,0,62,0,109,28c0,0,47,29,76,76c0,0,30,47,50,128c0,0,20,80,20,164c0,0,0,9,-1,27c0,0,-40,-65,-110,-105c0,0,-69,-39,-151,-39c0,0,-135,0,-229,98c0,0,-94,99,-94,260c0,0,0,166,98,268c0,0,98,101,245,101c0,0,107,0,195,-57c0,0,89,-58,134,-164c0,0,46,-106,46,-308c0,0,0,-209,-45,-334C737,235,691,111,602,46c0,0,-90,-64,-211,-64Z"
id="f8_t"
transform="scale(0.001,-0.001)"/>

<path d="M420,92c0,0,92,0,155,89c0,0,64,89,64,358c0,0,0,270,-63,359c0,0,-63,89,-158,89c0,0,-92,0,-147,-79c0,0,-70,-100,-70,-369c0,0,0,-269,63,-358c0,0,63,-89,156,-89Zm0,-110c0,0,-158,0,-248,112C172,94,64,231,64,539c0,0,0,194,39,313c0,0,40,118,119,182c0,0,79,64,198,64c0,0,88,0,155,-35c0,0,66,-36,109,-103c0,0,43,-66,68,-162c0,0,24,-96,24,-259c0,0,0,-192,-39,-311C737,228,697,110,619,46c0,0,-79,-64,-199,-64Z"
id="f8_k"
transform="scale(0.001,-0.001)"/>


</defs>
</svg>