<?xml version="1.0" encoding="UTF-8" standalone="no"?>
<!DOCTYPE svg PUBLIC "-//W3C//DTD SVG 1.1//EN"
"http://www.w3.org/Graphics/SVG/1.1/DTD/svg11.dtd">
<svg viewBox="0 0 641 910" version="1.1" xmlns="http://www.w3.org/2000/svg" xmlns:xlink="http://www.w3.org/1999/xlink">
<defs>
<clipPath id="c0_8"><path d="M0,909.8V0H641.7V909.8Z"/></clipPath>
<clipPath id="c1_8"><path d="M0,908.6V0H641.7V908.6Z"/></clipPath>
<style type="text/css"><![CDATA[
.g0_8{
fill: #FFFFFF;
}
.g1_8{
}
]]></style>
</defs>
<path d="M0,0H641.7V909.8H0V0Z" class="g0_8"/>
<path d="M0,0H641.7V909.8H0V0Z" class="g0_8"/>
<g clip-path="url(#c0_8)">
<path d="M0,-909.7H641.7V105535.8H0V-909.7Z" class="g0_8"/>
</g>
<path d="M0,0H641.7V908.6H0V0Z" class="g0_8"/>
<path d="M19.5,60.7H602.7v1.2H19.5V60.7Z" class="g1_8"/>
<g clip-path="url(#c1_8)">
<path d="M0,61.9H641.7V909.8H0V61.9Z" class="g0_8"/>
<g fill="#000000" >
<use xlink:href="#f5_bz" transform="matrix(14,0,0,14,172.2,82.5)" />
<use xlink:href="#f5_dj" transform="matrix(14,0,0,14,180,82.6)" />
<use xlink:href="#f5_e1" transform="matrix(14,0,0,14,186.8,82.5)" />
<use xlink:href="#f5_bo" transform="matrix(14,0,0,14,206.1,82.5)" />
<use xlink:href="#f5_bz" transform="matrix(14,0,0,14,222.3,82.5)" />
<use xlink:href="#f5_d8" transform="matrix(14,0,0,14,236.9,82.5)" />
<use xlink:href="#f5_b9" transform="matrix(14,0,0,14,243.4,82.5)" />
<use xlink:href="#f5_ct" transform="matrix(14,0,0,14,260.8,82.5)" />
<use xlink:href="#f5_c1" transform="matrix(14,0,0,14,267.3,82.5)" />
<use xlink:href="#f5_cc" transform="matrix(14,0,0,14,283.1,82.5)" />
<use xlink:href="#f5_bz" transform="matrix(14,0,0,14,295.8,82.5)" />
<use xlink:href="#f5_oz" transform="matrix(14,0,0,14,310.4,82.5)" />
<use xlink:href="#f5_e6" transform="matrix(14,0,0,14,316.1,82.5)" />
<use xlink:href="#f5_ct" transform="matrix(14,0,0,14,329.9,82.5)" />
<use xlink:href="#f5_bo" transform="matrix(14,0,0,14,336.4,82.5)" />
<use xlink:href="#f5_d8" transform="matrix(14,0,0,14,352.5,82.5)" />
<use xlink:href="#f5_cb" transform="matrix(14,0,0,14,364.7,82.5)" />
<use xlink:href="#f5_d4" transform="matrix(14,0,0,14,381.3,82.5)" />
<use xlink:href="#f5_ll" transform="matrix(14,0,0,14,387,82.5)" />
<use xlink:href="#f5_c0" transform="matrix(14,0,0,14,393.9,82.5)" />
<use xlink:href="#f5_ct" transform="matrix(14,0,0,14,408,82.5)" />
<use xlink:href="#f5_c1" transform="matrix(14,0,0,14,414.4,82.5)" />
<use xlink:href="#f5_ct" transform="matrix(14,0,0,14,424.6,82.5)" />
<use xlink:href="#f5_pc" transform="matrix(14,0,0,14,431.1,82.5)" />
<use xlink:href="#f5_pc" transform="matrix(14,0,0,14,437.3,82.5)" />
<use xlink:href="#f5_pc" transform="matrix(14,0,0,14,443.5,82.5)" />
<use xlink:href="#f6_bz" transform="matrix(14,0,0,14,193.9,142.1)" />
<use xlink:href="#f6_dj" transform="matrix(14,0,0,14,201.4,142.5)" />
<use xlink:href="#f6_e1" transform="matrix(14,0,0,14,207.3,142.1)" />
<use xlink:href="#f6_bo" transform="matrix(14,0,0,14,225,142.1)" />
<use xlink:href="#f6_bz" transform="matrix(14,0,0,14,239.4,142.1)" />
<use xlink:href="#f6_d8" transform="matrix(14,0,0,14,252.7,142.1)" />
<use xlink:href="#f6_b9" transform="matrix(14,0,0,14,258.3,142.1)" />
<use xlink:href="#f6_ct" transform="matrix(14,0,0,14,273.8,142.1)" />
<use xlink:href="#f6_c1" transform="matrix(14,0,0,14,279.5,142.1)" />
<use xlink:href="#f6_cc" transform="matrix(14,0,0,14,293.5,142.1)" />
<use xlink:href="#f6_bz" transform="matrix(14,0,0,14,305.1,142.1)" />
<use xlink:href="#f6_oz" transform="matrix(14,0,0,14,318.6,142.1)" />
<use xlink:href="#f6_e6" transform="matrix(14,0,0,14,324.1,142.1)" />
<use xlink:href="#f6_ct" transform="matrix(14,0,0,14,336.2,142.1)" />
<use xlink:href="#f6_bo" transform="matrix(14,0,0,14,341.8,142.1)" />
<use xlink:href="#f6_d8" transform="matrix(14,0,0,14,356.2,142.1)" />
<use xlink:href="#f6_cb" transform="matrix(14,0,0,14,367.5,142.1)" />
<use xlink:href="#f6_d4" transform="matrix(14,0,0,14,382.5,142.1)" />
<use xlink:href="#f6_ll" transform="matrix(14,0,0,14,388,142.1)" />
<use xlink:href="#f6_c0" transform="matrix(14,0,0,14,394.4,142.1)" />
<use xlink:href="#f6_ct" transform="matrix(14,0,0,14,407,142.1)" />
<use xlink:href="#f6_c1" transform="matrix(14,0,0,14,412.6,142.1)" />
<use xlink:href="#f6_ct" transform="matrix(14,0,0,14,421,142.1)" />
<use xlink:href="#f6_c0" transform="matrix(14,0,0,14,175.6,167.3)" />
<use xlink:href="#f6_cc" transform="matrix(14,0,0,14,188.2,167.3)" />
<use xlink:href="#f6_c7" transform="matrix(14,0,0,14,211.1,167.3)" />
<use xlink:href="#f6_d8" transform="matrix(14,0,0,14,223.2,167.3)" />
<use xlink:href="#f6_bg" transform="matrix(14,0,0,14,234.5,167.3)" />
<use xlink:href="#f6_cc" transform="matrix(14,0,0,14,248.7,167.3)" />
<use xlink:href="#f6_ct" transform="matrix(14,0,0,14,260.3,167.3)" />
<use xlink:href="#f6_bg" transform="matrix(14,0,0,14,266,167.3)" />
<use xlink:href="#f6_nu" transform="matrix(14,0,0,14,285.9,167.3)" />
<use xlink:href="#f6_bg" transform="matrix(14,0,0,14,291.5,167.3)" />
<use xlink:href="#f6_cb" transform="matrix(14,0,0,14,305.8,167.3)" />
<use xlink:href="#f6_bt" transform="matrix(14,0,0,14,320.6,167.3)" />
<use xlink:href="#f6_d4" transform="matrix(14,0,0,14,332.5,167.3)" />
<use xlink:href="#f6_c3" transform="matrix(14,0,0,14,338,167.3)" />
<use xlink:href="#f6_ct" transform="matrix(14,0,0,14,352.7,167.3)" />
<use xlink:href="#f6_ba" transform="matrix(14,0,0,14,358.3,167.3)" />
<use xlink:href="#f6_d8" transform="matrix(14,0,0,14,375.1,167.3)" />
<use xlink:href="#f6_dj" transform="matrix(14,0,0,14,379.4,168.1)" />
<use xlink:href="#f6_b9" transform="matrix(14,0,0,14,386.4,167.3)" />
<use xlink:href="#f6_d8" transform="matrix(14,0,0,14,401.8,167.3)" />
<use xlink:href="#f6_bp" transform="matrix(14,0,0,14,413.1,167.3)" />
<use xlink:href="#f6_ct" transform="matrix(14,0,0,14,425.4,167.3)" />
<use xlink:href="#f6_c1" transform="matrix(14,0,0,14,431.1,167.3)" />
<use xlink:href="#f6_ct" transform="matrix(14,0,0,14,439.5,167.3)" />
<use xlink:href="#f6_bo" transform="matrix(14,0,0,14,254.7,217.7)" />
<use xlink:href="#f6_bz" transform="matrix(14,0,0,14,269,217.7)" />
<use xlink:href="#f6_d8" transform="matrix(14,0,0,14,282.4,217.7)" />
<use xlink:href="#f6_al" transform="matrix(14,0,0,14,293.7,217.7)" />
<use xlink:href="#f6_nr" transform="matrix(14,0,0,14,309.5,217.7)" />
<use xlink:href="#f6_c1" transform="matrix(14,0,0,14,315.2,217.7)" />
<use xlink:href="#f6_cc" transform="matrix(14,0,0,14,323.5,217.7)" />
<use xlink:href="#f6_dj" transform="matrix(14,0,0,14,332.4,218.1)" />
<use xlink:href="#f6_bp" transform="matrix(14,0,0,14,335.1,217.7)" />
<use xlink:href="#f6_ct" transform="matrix(14,0,0,14,347.5,217.7)" />
<use xlink:href="#f6_bo" transform="matrix(14,0,0,14,353.1,217.7)" />
<use xlink:href="#f6_dj" transform="matrix(14,0,0,14,364.6,218.1)" />
<use xlink:href="#f6_bo" transform="matrix(14,0,0,14,262.7,242.9)" />
<use xlink:href="#f6_bz" transform="matrix(14,0,0,14,277.1,242.9)" />
<use xlink:href="#f6_d8" transform="matrix(14,0,0,14,290.4,242.9)" />
<use xlink:href="#f6_nu" transform="matrix(14,0,0,14,301.7,242.9)" />
<use xlink:href="#f6_cb" transform="matrix(14,0,0,14,307.3,242.9)" />
<use xlink:href="#f6_ge" transform="matrix(14,0,0,14,322.2,242.9)" />
<use xlink:href="#f6_ct" transform="matrix(14,0,0,14,337.3,242.9)" />
<use xlink:href="#f6_bo" transform="matrix(14,0,0,14,342.9,242.9)" />
<use xlink:href="#f6_dj" transform="matrix(14,0,0,14,354.4,243.3)" />
<use xlink:href="#f6_bo" transform="matrix(14,0,0,14,251.2,268.1)" />
<use xlink:href="#f6_bz" transform="matrix(14,0,0,14,265.6,268.1)" />
<use xlink:href="#f6_d8" transform="matrix(14,0,0,14,278.9,268.1)" />
<use xlink:href="#f6_am" transform="matrix(14,0,0,14,290.2,268.1)" />
<use xlink:href="#f6_c0" transform="matrix(14,0,0,14,311.7,268.1)" />
<use xlink:href="#f6_nr" transform="matrix(14,0,0,14,324.3,268.1)" />
<use xlink:href="#f6_c1" transform="matrix(14,0,0,14,329.9,268.1)" />
<use xlink:href="#f6_c0" transform="matrix(14,0,0,14,338.3,268.1)" />
<use xlink:href="#f6_ct" transform="matrix(14,0,0,14,350.8,268.1)" />
<use xlink:href="#f6_bo" transform="matrix(14,0,0,14,356.4,268.1)" />
<use xlink:href="#f6_dj" transform="matrix(14,0,0,14,367.9,268.6)" />
<use xlink:href="#f6_bo" transform="matrix(14,0,0,14,247.8,293.3)" />
<use xlink:href="#f6_bz" transform="matrix(14,0,0,14,262.2,293.3)" />
<use xlink:href="#f6_d8" transform="matrix(14,0,0,14,275.5,293.3)" />
<use xlink:href="#f6_ap" transform="matrix(14,0,0,14,286.8,293.3)" />
<use xlink:href="#f6_c7" transform="matrix(14,0,0,14,298.2,293.3)" />
<use xlink:href="#f6_l7" transform="matrix(14,0,0,14,310.2,293.3)" />
<use xlink:href="#f6_bh" transform="matrix(14,0,0,14,319.1,293.3)" />
<use xlink:href="#f6_ct" transform="matrix(14,0,0,14,335.9,293.3)" />
<use xlink:href="#f6_c0" transform="matrix(14,0,0,14,341.5,293.3)" />
<use xlink:href="#f6_ct" transform="matrix(14,0,0,14,354,293.3)" />
<use xlink:href="#f6_bo" transform="matrix(14,0,0,14,359.6,293.3)" />
<use xlink:href="#f6_dj" transform="matrix(14,0,0,14,371.1,293.8)" />
<use xlink:href="#f6_bo" transform="matrix(14,0,0,14,228.3,318.5)" />
<use xlink:href="#f6_bz" transform="matrix(14,0,0,14,242.7,318.5)" />
<use xlink:href="#f6_d8" transform="matrix(14,0,0,14,256,318.5)" />
<use xlink:href="#f6_c3" transform="matrix(14,0,0,14,267.3,318.5)" />
<use xlink:href="#f6_d8" transform="matrix(14,0,0,14,282,318.5)" />
<use xlink:href="#f6_ax" transform="matrix(14,0,0,14,287.6,318.5)" />
<use xlink:href="#f6_cb" transform="matrix(14,0,0,14,305.2,318.5)" />
<use xlink:href="#f6_lx" transform="matrix(14,0,0,14,320.1,318.5)" />
<use xlink:href="#f6_c7" transform="matrix(14,0,0,14,327.7,318.5)" />
<use xlink:href="#f6_cb" transform="matrix(14,0,0,14,345.4,318.5)" />
<use xlink:href="#f6_ct" transform="matrix(14,0,0,14,360.3,318.5)" />
<use xlink:href="#f6_n5" transform="matrix(14,0,0,14,365.9,318.5)" />
<use xlink:href="#f6_bo" transform="matrix(14,0,0,14,377.6,318.5)" />
<use xlink:href="#f6_dj" transform="matrix(14,0,0,14,389,319)" />
<use xlink:href="#f6_al" transform="matrix(14,0,0,14,122.9,369)" />
<use xlink:href="#f6_nr" transform="matrix(14,0,0,14,138.8,369)" />
<use xlink:href="#f6_c1" transform="matrix(14,0,0,14,144.4,369)" />
<use xlink:href="#f6_cc" transform="matrix(14,0,0,14,152.8,369)" />
<use xlink:href="#f6_dj" transform="matrix(14,0,0,14,161.6,369.4)" />
<use xlink:href="#f6_bp" transform="matrix(14,0,0,14,164.4,369)" />
<use xlink:href="#f6_d8" transform="matrix(14,0,0,14,176.7,369)" />
<use xlink:href="#f6_dj" transform="matrix(14,0,0,14,181,369.8)" />
<use xlink:href="#f6_b9" transform="matrix(14,0,0,14,188,369)" />
<use xlink:href="#f6_d8" transform="matrix(14,0,0,14,203.5,369)" />
<use xlink:href="#f6_bt" transform="matrix(14,0,0,14,214.8,369)" />
<use xlink:href="#f6_bz" transform="matrix(14,0,0,14,226.5,369)" />
<use xlink:href="#f6_bt" transform="matrix(14,0,0,14,239.8,369)" />
<use xlink:href="#f6_cc" transform="matrix(14,0,0,14,257.2,369)" />
<use xlink:href="#f6_bz" transform="matrix(14,0,0,14,268.8,369)" />
<use xlink:href="#f6_ct" transform="matrix(14,0,0,14,282.1,369)" />
<use xlink:href="#f6_c1" transform="matrix(14,0,0,14,287.8,369)" />
<use xlink:href="#f6_ct" transform="matrix(14,0,0,14,296.1,369)" />
<use xlink:href="#f6_k" transform="matrix(14,0,0,14,301.8,369)" />
<use xlink:href="#f6_al" transform="matrix(14,0,0,14,312.7,369)" />
<use xlink:href="#f6_c8" transform="matrix(14,0,0,14,328.5,369)" />
<use xlink:href="#f6_cw" transform="matrix(14,0,0,14,344.9,370.3)" />
<use xlink:href="#f6_by" transform="matrix(14,0,0,14,344.4,369)" />
<use xlink:href="#f6_b9" transform="matrix(14,0,0,14,364,369)" />
<use xlink:href="#f6_bz" transform="matrix(14,0,0,14,379.5,369)" />
<use xlink:href="#f6_dr" transform="matrix(14,0,0,14,393.3,369)" />
<use xlink:href="#f6_al" transform="matrix(14,0,0,14,398.5,369)" />
<use xlink:href="#f6_nr" transform="matrix(14,0,0,14,414.4,369)" />
<use xlink:href="#f6_c1" transform="matrix(14,0,0,14,420,369)" />
<use xlink:href="#f6_cc" transform="matrix(14,0,0,14,434,369)" />
<use xlink:href="#f6_bt" transform="matrix(14,0,0,14,445.6,369)" />
<use xlink:href="#f6_bt" transform="matrix(14,0,0,14,457.4,369)" />
<use xlink:href="#f6_b9" transform="matrix(14,0,0,14,474.7,369)" />
<use xlink:href="#f6_c1" transform="matrix(14,0,0,14,490.2,369)" />
<use xlink:href="#f6_oz" transform="matrix(14,0,0,14,498.2,369)" />
<use xlink:href="#f6_nu" transform="matrix(14,0,0,14,126.3,394.2)" />
<use xlink:href="#f6_cb" transform="matrix(14,0,0,14,132,394.2)" />
<use xlink:href="#f6_ge" transform="matrix(14,0,0,14,146.8,394.2)" />
<use xlink:href="#f6_d8" transform="matrix(14,0,0,14,162,394.2)" />
<use xlink:href="#f6_dj" transform="matrix(14,0,0,14,166.3,395)" />
<use xlink:href="#f6_b9" transform="matrix(14,0,0,14,173.3,394.2)" />
<use xlink:href="#f6_d4" transform="matrix(14,0,0,14,184.4,394.2)" />
<use xlink:href="#f6_cb" transform="matrix(14,0,0,14,194.4,394.2)" />
<use xlink:href="#f6_cw" transform="matrix(14,0,0,14,209.8,394.1)" />
<use xlink:href="#f6_nt" transform="matrix(14,0,0,14,209.3,394.2)" />
<use xlink:href="#f6_bz" transform="matrix(14,0,0,14,214.9,394.2)" />
<use xlink:href="#f6_c1" transform="matrix(14,0,0,14,228.3,394.2)" />
<use xlink:href="#f6_bt" transform="matrix(14,0,0,14,236.7,394.2)" />
<use xlink:href="#f6_cb" transform="matrix(14,0,0,14,254,394.2)" />
<use xlink:href="#f6_d4" transform="matrix(14,0,0,14,269,394.2)" />
<use xlink:href="#f6_am" transform="matrix(14,0,0,14,274.6,394.2)" />
<use xlink:href="#f6_lf" transform="matrix(14,0,0,14,296.1,394.2)" />
<use xlink:href="#f6_bz" transform="matrix(14,0,0,14,303.2,394.2)" />
<use xlink:href="#f6_ct" transform="matrix(14,0,0,14,316.5,394.2)" />
<use xlink:href="#f6_nu" transform="matrix(14,0,0,14,327.8,394.2)" />
<use xlink:href="#f6_cb" transform="matrix(14,0,0,14,333.4,394.2)" />
<use xlink:href="#f6_ge" transform="matrix(14,0,0,14,348.3,394.2)" />
<use xlink:href="#f6_eq" transform="matrix(14,0,0,14,369.1,394.2)" />
<use xlink:href="#f6_d4" transform="matrix(14,0,0,14,384.2,394.2)" />
<use xlink:href="#f6_e1" transform="matrix(14,0,0,14,384.1,394.2)" />
<use xlink:href="#f6_b9" transform="matrix(14,0,0,14,401.8,394.2)" />
<use xlink:href="#f6_d8" transform="matrix(14,0,0,14,417.3,394.2)" />
<use xlink:href="#f6_bb" transform="matrix(14,0,0,14,428.6,394.2)" />
<use xlink:href="#f6_bz" transform="matrix(14,0,0,14,441.2,394.2)" />
<use xlink:href="#f6_bt" transform="matrix(14,0,0,14,454.5,394.2)" />
<use xlink:href="#f6_b9" transform="matrix(14,0,0,14,471.9,394.2)" />
<use xlink:href="#f6_c1" transform="matrix(14,0,0,14,487.4,394.2)" />
<use xlink:href="#f6_d4" transform="matrix(14,0,0,14,495.4,394.2)" />
<use xlink:href="#f6_by" transform="matrix(14,0,0,14,184.8,419.4)" />
<use xlink:href="#f6_c7" transform="matrix(14,0,0,14,198.7,419.4)" />
<use xlink:href="#f6_by" transform="matrix(14,0,0,14,216.5,419.4)" />
<use xlink:href="#f6_c7" transform="matrix(14,0,0,14,230.4,419.4)" />
<use xlink:href="#f6_pd" transform="matrix(14,0,0,14,242.5,419.4)" />
<use xlink:href="#f6_n8" transform="matrix(14,0,0,14,250.1,419.4)" />
<use xlink:href="#f6_bz" transform="matrix(14,0,0,14,271.8,419.4)" />
<use xlink:href="#f6_oz" transform="matrix(14,0,0,14,285.3,419.4)" />
<use xlink:href="#f6_bt" transform="matrix(14,0,0,14,290.8,419.4)" />
<use xlink:href="#f6_ct" transform="matrix(14,0,0,14,302.5,419.4)" />
<use xlink:href="#f6_cc" transform="matrix(14,0,0,14,313.8,419.4)" />
<use xlink:href="#f6_d8" transform="matrix(14,0,0,14,325.4,419.4)" />
<use xlink:href="#f6_bg" transform="matrix(14,0,0,14,336.7,419.4)" />
<use xlink:href="#f6_bt" transform="matrix(14,0,0,14,351,419.4)" />
<use xlink:href="#f6_bz" transform="matrix(14,0,0,14,362.7,419.4)" />
<use xlink:href="#f6_br" transform="matrix(14,0,0,14,381.7,419.4)" />
<use xlink:href="#f6_d8" transform="matrix(14,0,0,14,393.4,419.4)" />
<use xlink:href="#f6_bx" transform="matrix(14,0,0,14,399,419.4)" />
<use xlink:href="#f6_ct" transform="matrix(14,0,0,14,411.3,419.4)" />
<use xlink:href="#f6_c1" transform="matrix(14,0,0,14,416.9,419.4)" />
<use xlink:href="#f6_ct" transform="matrix(14,0,0,14,425.3,419.4)" />
<use xlink:href="#f6_k" transform="matrix(14,0,0,14,430.9,419.4)" />
<use xlink:href="#f6_bz" transform="matrix(14,0,0,14,188.2,444.6)" />
<use xlink:href="#f6_dj" transform="matrix(14,0,0,14,195.7,445)" />
<use xlink:href="#f6_e1" transform="matrix(14,0,0,14,201.6,444.6)" />
<use xlink:href="#f6_bo" transform="matrix(14,0,0,14,219.3,444.6)" />
<use xlink:href="#f6_bz" transform="matrix(14,0,0,14,233.6,444.6)" />
<use xlink:href="#f6_d8" transform="matrix(14,0,0,14,247,444.6)" />
<use xlink:href="#f6_b9" transform="matrix(14,0,0,14,252.6,444.6)" />
<use xlink:href="#f6_ct" transform="matrix(14,0,0,14,268.1,444.6)" />
<use xlink:href="#f6_c1" transform="matrix(14,0,0,14,273.7,444.6)" />
<use xlink:href="#f6_cc" transform="matrix(14,0,0,14,287.8,444.6)" />
<use xlink:href="#f6_bz" transform="matrix(14,0,0,14,299.4,444.6)" />
<use xlink:href="#f6_oz" transform="matrix(14,0,0,14,312.9,444.6)" />
<use xlink:href="#f6_e6" transform="matrix(14,0,0,14,318.4,444.6)" />
<use xlink:href="#f6_ct" transform="matrix(14,0,0,14,330.5,444.6)" />
<use xlink:href="#f6_bo" transform="matrix(14,0,0,14,336.1,444.6)" />
<use xlink:href="#f6_d8" transform="matrix(14,0,0,14,350.5,444.6)" />
<use xlink:href="#f6_cb" transform="matrix(14,0,0,14,361.7,444.6)" />
<use xlink:href="#f6_d4" transform="matrix(14,0,0,14,376.7,444.6)" />
<use xlink:href="#f6_ll" transform="matrix(14,0,0,14,382.3,444.6)" />
<use xlink:href="#f6_c0" transform="matrix(14,0,0,14,388.7,444.6)" />
<use xlink:href="#f6_ct" transform="matrix(14,0,0,14,401.3,444.6)" />
<use xlink:href="#f6_c1" transform="matrix(14,0,0,14,406.9,444.6)" />
<use xlink:href="#f6_ct" transform="matrix(14,0,0,14,415.3,444.6)" />
<use xlink:href="#f6_pc" transform="matrix(14,0,0,14,420.9,444.6)" />
<use xlink:href="#f6_pc" transform="matrix(14,0,0,14,425.2,444.6)" />
<use xlink:href="#f6_pc" transform="matrix(14,0,0,14,429.4,444.6)" />
<use xlink:href="#f6_am" transform="matrix(14,0,0,14,143.5,495)" />
<use xlink:href="#f6_be" transform="matrix(14,0,0,14,165,495)" />
<use xlink:href="#f6_ct" transform="matrix(14,0,0,14,179,495)" />
<use xlink:href="#f6_c0" transform="matrix(14,0,0,14,184.6,495)" />
<use xlink:href="#f6_p8" transform="matrix(14,0,0,14,197.2,495)" />
<use xlink:href="#f6_b9" transform="matrix(14,0,0,14,208.5,495)" />
<use xlink:href="#f6_d4" transform="matrix(14,0,0,14,219.6,495)" />
<use xlink:href="#f6_am" transform="matrix(14,0,0,14,229.6,495)" />
<use xlink:href="#f6_be" transform="matrix(14,0,0,14,251.1,495)" />
<use xlink:href="#f6_ct" transform="matrix(14,0,0,14,265.1,495)" />
<use xlink:href="#f6_c1" transform="matrix(14,0,0,14,270.7,495)" />
<use xlink:href="#f6_d8" transform="matrix(14,0,0,14,279.1,495)" />
<use xlink:href="#f6_dj" transform="matrix(14,0,0,14,283.4,495.9)" />
<use xlink:href="#f6_cb" transform="matrix(14,0,0,14,290.4,495)" />
<use xlink:href="#f6_d4" transform="matrix(14,0,0,14,305.4,495)" />
<use xlink:href="#f6_cu" transform="matrix(14,0,0,14,310.9,495)" />
<use xlink:href="#f6_bt" transform="matrix(14,0,0,14,316.5,495)" />
<use xlink:href="#f6_bz" transform="matrix(14,0,0,14,328.3,495)" />
<use xlink:href="#f6_dr" transform="matrix(14,0,0,14,342,495)" />
<use xlink:href="#f6_c3" transform="matrix(14,0,0,14,341.6,495)" />
<use xlink:href="#f6_cu" transform="matrix(14,0,0,14,362,495)" />
<use xlink:href="#f6_bt" transform="matrix(14,0,0,14,367.6,495)" />
<use xlink:href="#f6_bg" transform="matrix(14,0,0,14,379.3,495)" />
<use xlink:href="#f6_am" transform="matrix(14,0,0,14,399.2,495)" />
<use xlink:href="#f6_be" transform="matrix(14,0,0,14,420.7,495)" />
<use xlink:href="#f6_ct" transform="matrix(14,0,0,14,434.7,495)" />
<use xlink:href="#f6_c1" transform="matrix(14,0,0,14,440.3,495)" />
<use xlink:href="#f6_b9" transform="matrix(14,0,0,14,454.4,495)" />
<use xlink:href="#f6_c1" transform="matrix(14,0,0,14,469.9,495)" />
<use xlink:href="#f6_oz" transform="matrix(14,0,0,14,477.8,495)" />
<use xlink:href="#f6_ap" transform="matrix(14,0,0,14,135.5,520.2)" />
<use xlink:href="#f6_bv" transform="matrix(14,0,0,14,146.9,520.2)" />
<use xlink:href="#f6_ct" transform="matrix(14,0,0,14,158.7,520.2)" />
<use xlink:href="#f6_nl" transform="matrix(14,0,0,14,164.4,520.2)" />
<use xlink:href="#f6_lh" transform="matrix(14,0,0,14,164.4,520.2)" />
<use xlink:href="#f6_c0" transform="matrix(14,0,0,14,173.6,520.2)" />
<use xlink:href="#f6_ct" transform="matrix(14,0,0,14,186.2,520.2)" />
<use xlink:href="#f6_c0" transform="matrix(14,0,0,14,191.8,520.2)" />
<use xlink:href="#f6_b9" transform="matrix(14,0,0,14,210,520.2)" />
<use xlink:href="#f6_ct" transform="matrix(14,0,0,14,225.5,520.2)" />
<use xlink:href="#f6_lh" transform="matrix(14,0,0,14,236.8,520.2)" />
<use xlink:href="#f6_c0" transform="matrix(14,0,0,14,246,520.2)" />
<use xlink:href="#f6_ct" transform="matrix(14,0,0,14,258.6,520.2)" />
<use xlink:href="#f6_bt" transform="matrix(14,0,0,14,264.2,520.2)" />
<use xlink:href="#f6_bs" transform="matrix(14,0,0,14,281.6,520.2)" />
<use xlink:href="#f6_c1" transform="matrix(14,0,0,14,295.6,520.2)" />
<use xlink:href="#f6_oz" transform="matrix(14,0,0,14,303.5,520.2)" />
<use xlink:href="#f6_cc" transform="matrix(14,0,0,14,309.6,520.2)" />
<use xlink:href="#f6_bz" transform="matrix(14,0,0,14,321.2,520.2)" />
<use xlink:href="#f6_cb" transform="matrix(14,0,0,14,340.2,520.2)" />
<use xlink:href="#f6_dj" transform="matrix(14,0,0,14,348.8,520.6)" />
<use xlink:href="#f6_c7" transform="matrix(14,0,0,14,355.1,520.2)" />
<use xlink:href="#f6_ct" transform="matrix(14,0,0,14,367.2,520.2)" />
<use xlink:href="#f6_c1" transform="matrix(14,0,0,14,372.8,520.2)" />
<use xlink:href="#f6_bp" transform="matrix(14,0,0,14,381.2,520.2)" />
<use xlink:href="#f6_ct" transform="matrix(14,0,0,14,393.5,520.2)" />
<use xlink:href="#f6_cb" transform="matrix(14,0,0,14,404.8,520.2)" />
<use xlink:href="#f6_ld" transform="matrix(14,0,0,14,419.7,520.2)" />
<use xlink:href="#f6_b9" transform="matrix(14,0,0,14,426.7,520.2)" />
<use xlink:href="#f6_ct" transform="matrix(14,0,0,14,442.2,520.2)" />
<use xlink:href="#f6_c1" transform="matrix(14,0,0,14,447.9,520.2)" />
<use xlink:href="#f6_b9" transform="matrix(14,0,0,14,461.9,520.2)" />
<use xlink:href="#f6_c1" transform="matrix(14,0,0,14,477.4,520.2)" />
<use xlink:href="#f6_oz" transform="matrix(14,0,0,14,485.4,520.2)" />
<use xlink:href="#f6_cb" transform="matrix(14,0,0,14,193.9,545.4)" />
<use xlink:href="#f6_c7" transform="matrix(14,0,0,14,208.8,545.4)" />
<use xlink:href="#f6_dr" transform="matrix(14,0,0,14,221.4,545.4)" />
<use xlink:href="#f6_cb" transform="matrix(14,0,0,14,226.6,545.4)" />
<use xlink:href="#f6_ct" transform="matrix(14,0,0,14,241.4,545.4)" />
<use xlink:href="#f6_nl" transform="matrix(14,0,0,14,247.1,545.4)" />
<use xlink:href="#f6_bs" transform="matrix(14,0,0,14,247.1,545.4)" />
<use xlink:href="#f6_cx" transform="matrix(14,0,0,14,261.1,545.4)" />
<use xlink:href="#f6_b9" transform="matrix(14,0,0,14,272.4,545.4)" />
<use xlink:href="#f6_d8" transform="matrix(14,0,0,14,287.9,545.4)" />
<use xlink:href="#f6_pc" transform="matrix(14,0,0,14,293.5,545.4)" />
<use xlink:href="#f6_pc" transform="matrix(14,0,0,14,297.8,545.4)" />
<use xlink:href="#f6_pc" transform="matrix(14,0,0,14,302.1,545.4)" />
<use xlink:href="#f6_g" transform="matrix(14,0,0,14,312,545.4)" />
<use xlink:href="#f6_n8" transform="matrix(14,0,0,14,317.9,545.4)" />
<use xlink:href="#f6_h" transform="matrix(14,0,0,14,328.3,545.4)" />
<use xlink:href="#f6_bt" transform="matrix(14,0,0,14,334.2,545.4)" />
<use xlink:href="#f6_bz" transform="matrix(14,0,0,14,345.9,545.4)" />
<use xlink:href="#f6_bt" transform="matrix(14,0,0,14,359.2,545.4)" />
<use xlink:href="#f6_cc" transform="matrix(14,0,0,14,376.6,545.4)" />
<use xlink:href="#f6_bz" transform="matrix(14,0,0,14,388.2,545.4)" />
<use xlink:href="#f6_ct" transform="matrix(14,0,0,14,401.5,545.4)" />
<use xlink:href="#f6_c1" transform="matrix(14,0,0,14,407.2,545.4)" />
<use xlink:href="#f6_ct" transform="matrix(14,0,0,14,415.5,545.4)" />
<use xlink:href="#f6_k" transform="matrix(14,0,0,14,421.2,545.4)" />
<use xlink:href="#f6_bz" transform="matrix(14,0,0,14,188.2,570.6)" />
<use xlink:href="#f6_dj" transform="matrix(14,0,0,14,195.7,571.1)" />
<use xlink:href="#f6_e1" transform="matrix(14,0,0,14,201.6,570.6)" />
<use xlink:href="#f6_bo" transform="matrix(14,0,0,14,219.3,570.6)" />
<use xlink:href="#f6_bz" transform="matrix(14,0,0,14,233.6,570.6)" />
<use xlink:href="#f6_d8" transform="matrix(14,0,0,14,247,570.6)" />
<use xlink:href="#f6_b9" transform="matrix(14,0,0,14,252.6,570.6)" />
<use xlink:href="#f6_ct" transform="matrix(14,0,0,14,268.1,570.6)" />
<use xlink:href="#f6_c1" transform="matrix(14,0,0,14,273.7,570.6)" />
<use xlink:href="#f6_cc" transform="matrix(14,0,0,14,287.8,570.6)" />
<use xlink:href="#f6_bz" transform="matrix(14,0,0,14,299.4,570.6)" />
<use xlink:href="#f6_oz" transform="matrix(14,0,0,14,312.9,570.6)" />
<use xlink:href="#f6_e6" transform="matrix(14,0,0,14,318.4,570.6)" />
<use xlink:href="#f6_ct" transform="matrix(14,0,0,14,330.5,570.6)" />
<use xlink:href="#f6_bo" transform="matrix(14,0,0,14,336.1,570.6)" />
<use xlink:href="#f6_d8" transform="matrix(14,0,0,14,350.5,570.6)" />
<use xlink:href="#f6_cb" transform="matrix(14,0,0,14,361.7,570.6)" />
<use xlink:href="#f6_d4" transform="matrix(14,0,0,14,376.7,570.6)" />
<use xlink:href="#f6_ll" transform="matrix(14,0,0,14,382.3,570.6)" />
<use xlink:href="#f6_c0" transform="matrix(14,0,0,14,388.7,570.6)" />
<use xlink:href="#f6_ct" transform="matrix(14,0,0,14,401.3,570.6)" />
<use xlink:href="#f6_c1" transform="matrix(14,0,0,14,406.9,570.6)" />
<use xlink:href="#f6_ct" transform="matrix(14,0,0,14,415.3,570.6)" />
<use xlink:href="#f6_pc" transform="matrix(14,0,0,14,420.9,570.6)" />
<use xlink:href="#f6_pc" transform="matrix(14,0,0,14,425.2,570.6)" />
<use xlink:href="#f6_pc" transform="matrix(14,0,0,14,429.4,570.6)" />
<use xlink:href="#f6_cb" transform="matrix(14,0,0,14,142.4,621)" />
<use xlink:href="#f6_d8" transform="matrix(14,0,0,14,157.3,621)" />
<use xlink:href="#f6_bp" transform="matrix(14,0,0,14,162.9,621)" />
<use xlink:href="#f6_d4" transform="matrix(14,0,0,14,175.3,621)" />
<use xlink:href="#f6_ap" transform="matrix(14,0,0,14,180.9,621)" />
<use xlink:href="#f6_bl" transform="matrix(14,0,0,14,192.2,621)" />
<use xlink:href="#f6_bp" transform="matrix(14,0,0,14,204.6,621)" />
<use xlink:href="#f6_d4" transform="matrix(14,0,0,14,217,621)" />
<use xlink:href="#f6_k" transform="matrix(14,0,0,14,216.9,621)" />
<use xlink:href="#f6_be" transform="matrix(14,0,0,14,227.8,621)" />
<use xlink:href="#f6_c3" transform="matrix(14,0,0,14,241.8,621)" />
<use xlink:href="#f6_bp" transform="matrix(14,0,0,14,256.5,621)" />
<use xlink:href="#f6_d4" transform="matrix(14,0,0,14,268.9,621)" />
<use xlink:href="#f6_cu" transform="matrix(14,0,0,14,274.5,621)" />
<use xlink:href="#f6_bw" transform="matrix(14,0,0,14,280.1,621)" />
<use xlink:href="#f6_c1" transform="matrix(14,0,0,14,296.2,621)" />
<use xlink:href="#f6_bp" transform="matrix(14,0,0,14,304.6,621)" />
<use xlink:href="#f6_d4" transform="matrix(14,0,0,14,317,621)" />
<use xlink:href="#f6_an" transform="matrix(14,0,0,14,322.5,621)" />
<use xlink:href="#f6_cb" transform="matrix(14,0,0,14,334,621)" />
<use xlink:href="#f6_cv" transform="matrix(14,0,0,14,348.9,621)" />
<use xlink:href="#f6_bz" transform="matrix(14,0,0,14,360.2,621)" />
<use xlink:href="#f6_dj" transform="matrix(14,0,0,14,367.7,621.5)" />
<use xlink:href="#f6_e1" transform="matrix(14,0,0,14,373.5,621)" />
<use xlink:href="#f6_b9" transform="matrix(14,0,0,14,391.3,621)" />
<use xlink:href="#f6_ct" transform="matrix(14,0,0,14,406.8,621)" />
<use xlink:href="#f6_bg" transform="matrix(14,0,0,14,418,621)" />
<use xlink:href="#f6_ct" transform="matrix(14,0,0,14,432.3,621)" />
<use xlink:href="#f6_bv" transform="matrix(14,0,0,14,437.9,621)" />
<use xlink:href="#f6_b9" transform="matrix(14,0,0,14,455.5,621)" />
<use xlink:href="#f6_c1" transform="matrix(14,0,0,14,471,621)" />
<use xlink:href="#f6_d4" transform="matrix(14,0,0,14,478.9,621)" />
<use xlink:href="#f6_bp" transform="matrix(14,0,0,14,150.4,646.3)" />
<use xlink:href="#f6_ct" transform="matrix(14,0,0,14,162.7,646.3)" />
<use xlink:href="#f6_bv" transform="matrix(14,0,0,14,168.3,646.3)" />
<use xlink:href="#f6_cc" transform="matrix(14,0,0,14,185.9,646.3)" />
<use xlink:href="#f6_bz" transform="matrix(14,0,0,14,197.5,646.3)" />
<use xlink:href="#f6_ct" transform="matrix(14,0,0,14,210.8,646.3)" />
<use xlink:href="#f6_c1" transform="matrix(14,0,0,14,216.4,646.3)" />
<use xlink:href="#f6_d4" transform="matrix(14,0,0,14,224.4,646.3)" />
<use xlink:href="#f6_bp" transform="matrix(14,0,0,14,230.5,646.3)" />
<use xlink:href="#f6_d8" transform="matrix(14,0,0,14,242.8,646.3)" />
<use xlink:href="#f6_ap" transform="matrix(14,0,0,14,254.1,646.3)" />
<use xlink:href="#f6_bt" transform="matrix(14,0,0,14,265.5,646.3)" />
<use xlink:href="#f6_b9" transform="matrix(14,0,0,14,277.2,646.3)" />
<use xlink:href="#f6_ct" transform="matrix(14,0,0,14,292.7,646.3)" />
<use xlink:href="#f6_by" transform="matrix(14,0,0,14,304,646.3)" />
<use xlink:href="#f6_cv" transform="matrix(14,0,0,14,317.9,646.3)" />
<use xlink:href="#f6_bf" transform="matrix(14,0,0,14,329.2,646.3)" />
<use xlink:href="#f6_d4" transform="matrix(14,0,0,14,343.6,646.3)" />
<use xlink:href="#f6_br" transform="matrix(14,0,0,14,344.9,646.3)" />
<use xlink:href="#f6_al" transform="matrix(14,0,0,14,362.3,646.3)" />
<use xlink:href="#f6_bv" transform="matrix(14,0,0,14,378.1,646.3)" />
<use xlink:href="#f6_bt" transform="matrix(14,0,0,14,390,646.3)" />
<use xlink:href="#f6_d4" transform="matrix(14,0,0,14,401.8,646.3)" />
<use xlink:href="#f6_am" transform="matrix(14,0,0,14,407.4,646.3)" />
<use xlink:href="#f6_bv" transform="matrix(14,0,0,14,428.8,646.3)" />
<use xlink:href="#f6_b9" transform="matrix(14,0,0,14,446.4,646.3)" />
<use xlink:href="#f6_c1" transform="matrix(14,0,0,14,461.9,646.3)" />
<use xlink:href="#f6_oz" transform="matrix(14,0,0,14,469.8,646.3)" />
<use xlink:href="#f6_an" transform="matrix(14,0,0,14,216.9,671.5)" />
<use xlink:href="#f6_cb" transform="matrix(14,0,0,14,228.4,671.5)" />
<use xlink:href="#f6_cv" transform="matrix(14,0,0,14,243.2,671.5)" />
<use xlink:href="#f6_bz" transform="matrix(14,0,0,14,254.5,671.5)" />
<use xlink:href="#f6_dj" transform="matrix(14,0,0,14,262,671.9)" />
<use xlink:href="#f6_e1" transform="matrix(14,0,0,14,267.9,671.5)" />
<use xlink:href="#f6_b9" transform="matrix(14,0,0,14,285.6,671.5)" />
<use xlink:href="#f6_ct" transform="matrix(14,0,0,14,301.1,671.5)" />
<use xlink:href="#f6_c3" transform="matrix(14,0,0,14,312.4,671.5)" />
<use xlink:href="#f6_d4" transform="matrix(14,0,0,14,327.2,671.5)" />
<use xlink:href="#f6_c3" transform="matrix(14,0,0,14,327.1,671.5)" />
<use xlink:href="#f6_d8" transform="matrix(14,0,0,14,341.8,671.5)" />
<use xlink:href="#f6_cb" transform="matrix(14,0,0,14,353.1,671.5)" />
<use xlink:href="#f6_cc" transform="matrix(14,0,0,14,368,671.5)" />
<use xlink:href="#f6_ct" transform="matrix(14,0,0,14,379.6,671.5)" />
<use xlink:href="#f6_c1" transform="matrix(14,0,0,14,385.2,671.5)" />
<use xlink:href="#f6_ct" transform="matrix(14,0,0,14,393.6,671.5)" />
<use xlink:href="#f6_k" transform="matrix(14,0,0,14,399.2,671.5)" />
<use xlink:href="#f6_bz" transform="matrix(14,0,0,14,188.2,696.7)" />
<use xlink:href="#f6_dj" transform="matrix(14,0,0,14,195.7,697.1)" />
<use xlink:href="#f6_e1" transform="matrix(14,0,0,14,201.6,696.7)" />
<use xlink:href="#f6_bo" transform="matrix(14,0,0,14,219.3,696.7)" />
<use xlink:href="#f6_bz" transform="matrix(14,0,0,14,233.6,696.7)" />
<use xlink:href="#f6_d8" transform="matrix(14,0,0,14,247,696.7)" />
<use xlink:href="#f6_b9" transform="matrix(14,0,0,14,252.6,696.7)" />
<use xlink:href="#f6_ct" transform="matrix(14,0,0,14,268.1,696.7)" />
<use xlink:href="#f6_c1" transform="matrix(14,0,0,14,273.7,696.7)" />
<use xlink:href="#f6_cc" transform="matrix(14,0,0,14,287.8,696.7)" />
<use xlink:href="#f6_bz" transform="matrix(14,0,0,14,299.4,696.7)" />
<use xlink:href="#f6_oz" transform="matrix(14,0,0,14,312.9,696.7)" />
<use xlink:href="#f6_e6" transform="matrix(14,0,0,14,318.4,696.7)" />
<use xlink:href="#f6_ct" transform="matrix(14,0,0,14,330.5,696.7)" />
<use xlink:href="#f6_bo" transform="matrix(14,0,0,14,336.1,696.7)" />
<use xlink:href="#f6_d8" transform="matrix(14,0,0,14,350.5,696.7)" />
<use xlink:href="#f6_cb" transform="matrix(14,0,0,14,361.7,696.7)" />
<use xlink:href="#f6_d4" transform="matrix(14,0,0,14,376.7,696.7)" />
<use xlink:href="#f6_ll" transform="matrix(14,0,0,14,382.3,696.7)" />
<use xlink:href="#f6_c0" transform="matrix(14,0,0,14,388.7,696.7)" />
<use xlink:href="#f6_ct" transform="matrix(14,0,0,14,401.3,696.7)" />
<use xlink:href="#f6_c1" transform="matrix(14,0,0,14,406.9,696.7)" />
<use xlink:href="#f6_ct" transform="matrix(14,0,0,14,415.3,696.7)" />
<use xlink:href="#f6_pc" transform="matrix(14,0,0,14,420.9,696.7)" />
<use xlink:href="#f6_pc" transform="matrix(14,0,0,14,425.2,696.7)" />
<use xlink:href="#f6_pc" transform="matrix(14,0,0,14,429.4,696.7)" />
<use xlink:href="#f7_4r" transform="matrix(9,0,0,9,293.6,795.2)" />
<use xlink:href="#f8_m" transform="matrix(9,0,0,9,306.5,795.2)" />
<use xlink:href="#f7_4r" transform="matrix(9,0,0,9,317.1,795.2)" />
</g>
</g>
<image preserveAspectRatio="none" x="22" y="801" width="581" height="86" xlink:href="img/1.png"/>
<path d="M171.9,83.6H450.3v1.2H171.9V83.6Z" class="g1_8"/>
<image preserveAspectRatio="none" x="202" y="14" width="217" height="26" xlink:href="img/2.png"/>
<defs>
<path d="M686,512V822H333L435,749l2,-237ZM860,-65L686,29V298H440V168L348,118c0,0,-90,30,-190,128c0,0,-100,98,-127,183l52,83H203L189,822H0L-86,937l32,64H1045l86,-115l-33,-64H828L930,749V-31L860,-65Z"
id="f5_bz"
transform="scale(0.001,-0.001)"/>

<path d="M0,1102c0,0,-40,16,-91,55c0,0,-52,39,-79,76c0,0,59,119,137,165c0,0,42,-15,89,-54c0,0,46,-39,74,-76c0,0,-17,-44,-54,-92c0,0,-38,-48,-76,-74Z"
id="f5_dj"
transform="scale(0.001,-0.001)"/>

<path d="M791,-65L617,29V263L313,29L144,222L513,468c0,0,-65,65,-119,65c0,0,-38,0,-87,-28c0,0,-49,-28,-150,-100L6,629c0,0,159,126,272,126c0,0,113,0,234,-118L617,535V822H0L-86,937l32,64H978l85,-115l-32,-64H759L862,749V-31L791,-65Z"
id="f5_e1"
transform="scale(0.001,-0.001)"/>

<path d="M356,367c0,0,79,0,79,99V822H199l96,-73V393c0,0,23,-26,61,-26ZM969,-65L794,29V822H568L672,749V460c0,0,0,-142,-61,-209c0,0,-61,-66,-159,-66c0,0,-136,0,-261,116C191,301,66,417,61,550V822H-22l-87,115l32,64H1153l86,-115l-32,-64H937l102,-73V-31L969,-65Z"
id="f5_bo"
transform="scale(0.001,-0.001)"/>

<path d="M277,-65L102,29V822H0L-86,937l32,64H86L18,1111c0,0,-67,122,-168,122c0,0,-81,0,-202,-80l-128,250c0,0,122,77,232,77c0,0,196,0,356,-250L252,1001H463L548,886L516,822H244L347,749V-31L277,-65Z"
id="f5_d8"
transform="scale(0.001,-0.001)"/>

<path d="M300,310c13,0,56,2,103,25c0,0,58,27,100,81V523c0,0,-46,16,-83,16c0,0,-69,0,-111,-45c0,0,-42,-45,-42,-104c0,0,0,-45,28,-80c0,0,2,0,5,0ZM677,-65L503,29V144c0,0,-32,-11,-75,-11c0,0,-147,0,-272,98c0,0,-125,99,-125,233c0,0,0,110,75,185c0,0,76,74,195,74l67,-6L503,646V822H0L-86,937l32,64H1245l86,-115l-32,-64H645L747,749V622c0,0,81,58,165,58c0,0,122,0,213,-99c0,0,91,-98,91,-230c0,0,0,-204,-253,-371L791,157c0,0,110,83,164,139c0,0,53,55,53,106c0,0,0,55,-53,55c0,0,-83,0,-208,-145V-31L677,-65Z"
id="f5_b9"
transform="scale(0.001,-0.001)"/>

<path d="M277,-65L102,29V822H0L-86,937l32,64H463L548,886L516,822H244L347,749V-31L277,-65Z"
id="f5_ct"
transform="scale(0.001,-0.001)"/>

<path d="M545,-97L35,405L87,542H295c0,0,1,5,1,280H0L-86,937l32,64H729L814,886L782,822H445L550,749V547c0,0,0,-75,-41,-127c0,0,-41,-52,-129,-111L709,110V41L545,-97Z"
id="f5_c1"
transform="scale(0.001,-0.001)"/>

<path d="M756,-314c0,0,-304,57,-481,187C275,-127,98,2,98,170c0,0,0,117,82,197c0,0,-110,91,-110,195c0,0,0,74,64,127c0,0,63,54,188,54H567v79H0L-86,937l32,64H906L992,886L959,822H684L787,749V535H383c0,0,-110,0,-110,-67c0,0,0,-19,10,-36c0,0,78,32,174,32c0,0,162,0,277,-87c0,0,115,-87,115,-214c0,0,0,-143,-142,-228L518,76c0,0,125,94,145,173c0,0,-55,26,-113,26c0,0,-84,0,-144,-45c0,0,-59,-45,-59,-118c0,0,0,-107,121,-166c0,0,120,-60,336,-105L756,-314Z"
id="f5_cc"
transform="scale(0.001,-0.001)"/>

<path d="M-88,1086c0,0,-41,17,-92,56c0,0,-51,39,-79,76c0,0,60,119,138,165c0,0,43,-16,89,-55c0,0,46,-39,73,-75c0,0,-17,-45,-53,-93c0,0,-37,-48,-76,-74ZM-289,908l-132,216c0,0,-70,120,-169,120c0,0,-83,0,-200,-80l-130,249c0,0,125,78,234,78c0,0,187,0,349,-241L-159,969L-289,908Z"
id="f5_oz"
transform="scale(0.001,-0.001)"/>

<path d="M442,376c0,0,123,0,186,113V822H264L368,749V403c0,0,28,-27,74,-27ZM238,-86L67,53L339,241c0,0,-95,55,-161,148c0,0,-66,92,-68,178V822H0L-86,937l32,64H987l86,-115l-33,-64H770L872,749V-31L802,-65L628,29V206L238,-86Z"
id="f5_e6"
transform="scale(0.001,-0.001)"/>

<path d="M833,530V822H434L539,749V530ZM533,-97L23,405L75,542H284c0,0,2,5,2,280H-10L-97,937l32,64H1193l86,-115l-32,-64H975l102,-73V-31l-70,-34L833,29V333H405L370,309L697,110V41L533,-97Z"
id="f5_cb"
transform="scale(0.001,-0.001)"/>

<path d="M-289,908l-132,216c0,0,-70,120,-169,120c0,0,-83,0,-200,-80l-130,249c0,0,125,78,234,78c0,0,187,0,349,-241L-159,969L-289,908Z"
id="f5_d4"
transform="scale(0.001,-0.001)"/>

<path d="M503,170c0,0,-153,0,-298,130C205,300,60,431,60,578V822H0L-86,937l32,64H562L649,886L617,822H214L318,749V403c0,0,30,-29,81,-29c0,0,59,0,118,38c0,0,59,37,93,100L770,333C770,333,666,170,503,170Z"
id="f5_ll"
transform="scale(0.001,-0.001)"/>

<path d="M368,290c0,0,83,0,161,44c0,0,78,43,116,117V822H382c0,0,136,-107,136,-225c0,0,0,-74,-55,-131c0,0,-55,-57,-165,-83c0,0,15,-48,44,-91l26,-2ZM819,-65L645,29V139c0,0,-60,-31,-130,-31c0,0,-145,0,-279,109c0,0,-134,108,-208,287l29,78c0,0,128,15,181,43c0,0,54,27,54,73c0,0,0,61,-96,124H0L-86,937l32,64H1004l87,-115l-32,-64H787L889,749V-31L819,-65Z"
id="f5_c0"
transform="scale(0.001,-0.001)"/>

<path d="M315,-63c0,0,-42,17,-92,55c0,0,-50,37,-76,74c0,0,61,120,136,165c0,0,91,-38,160,-130C443,101,405,-2,315,-63Z"
id="f5_pc"
transform="scale(0.001,-0.001)"/>

<path d="M689,445V822H286l65,-58l8,-319ZM779,-49L689,8V328H370V180L296,150c0,0,-56,35,-120,104c0,0,-63,70,-89,131l41,60H238L223,822H0l-45,76l14,31H953l46,-76L985,822H750l66,-58V-39L779,-49Z"
id="f6_bz"
transform="scale(0.001,-0.001)"/>

<path d="M0,1062c0,0,-26,11,-60,36c0,0,-34,26,-51,49c0,0,39,81,91,110c0,0,60,-23,106,-85c0,0,-28,-70,-86,-110Z"
id="f6_dj"
transform="scale(0.001,-0.001)"/>

<path d="M688,-49L597,8V335L248,81l-92,81L532,425l-81,76c0,0,-80,70,-133,70c0,0,-81,0,-194,-96L38,584c0,0,109,105,223,105c0,0,103,0,213,-107L597,457V822H0l-45,76l14,31H862l46,-76L894,822H658l66,-58V-39L688,-49Z"
id="f6_e1"
transform="scale(0.001,-0.001)"/>

<path d="M342,324c0,0,45,0,75,34c0,0,31,33,31,100V822H165l66,-58V390c0,0,32,-66,111,-66ZM853,-49L762,8V822H509l65,-58V455c0,0,0,-134,-51,-185c0,0,-52,-52,-127,-52c0,0,-98,0,-195,99c0,0,-97,99,-97,209V822H0l-45,76l14,31H1027l46,-76l-14,-31H823l66,-58V-39L853,-49Z"
id="f6_bo"
transform="scale(0.001,-0.001)"/>

<path d="M228,-49L138,8V822H0l-45,76l14,31H119L-33,1144c0,0,-70,92,-157,92c0,0,-69,0,-159,-58l-72,118c0,0,89,73,181,73c0,0,140,0,257,-170L205,929H402l46,-76L434,822H199l65,-58V-39L228,-49Z"
id="f6_d8"
transform="scale(0.001,-0.001)"/>

<path d="M283,260c0,0,122,0,209,113V513c0,0,-90,51,-160,51c0,0,-80,0,-129,-50c0,0,-49,-50,-49,-118c0,0,0,-60,35,-110c0,0,45,-26,94,-26ZM582,-49L492,8V211c0,0,-63,-54,-141,-54c0,0,-113,0,-213,92c0,0,-100,92,-100,205c0,0,0,93,69,157c0,0,69,64,162,64c0,0,32,0,64,-9L492,590V822H0l-45,76l14,31H1108l45,-76l-13,-31H553l66,-58V524c0,0,91,89,192,89c0,0,98,0,171,-79c0,0,72,-79,72,-186c0,0,0,-178,-224,-330L736,124c0,0,219,153,219,269c0,0,0,44,-26,75c0,0,-26,32,-81,32c0,0,-109,0,-229,-155V-39L582,-49Z"
id="f6_b9"
transform="scale(0.001,-0.001)"/>

<path d="M228,-49L138,8V822H0l-45,76l14,31H402l46,-76L434,822H199l65,-58V-39L228,-49Z"
id="f6_ct"
transform="scale(0.001,-0.001)"/>

<path d="M527,-71L52,414l34,92H277c0,0,12,32,12,72V822H0l-45,76l14,31H599l46,-76L631,822H350l66,-55V564c0,0,0,-96,-152,-248L610,34L611,8L527,-71Z"
id="f6_c1"
transform="scale(0.001,-0.001)"/>

<path d="M688,-243c0,0,-256,53,-408,173c0,0,-152,119,-152,270c0,0,0,101,68,171c0,0,-101,84,-101,179c0,0,0,64,53,112c0,0,54,47,191,47H587V822H0l-45,76l14,31H830l45,-76L862,822H640l66,-58V585H362c0,0,-159,-1,-159,-92c0,0,0,-41,46,-80c0,0,76,47,183,47c0,0,135,0,230,-76c0,0,96,-75,96,-187C758,197,758,67,629,2L545,104c0,0,49,30,81,75c0,0,32,44,32,82c0,0,0,16,-4,26c0,0,-64,58,-167,58c0,0,-97,0,-166,-50v-2c0,0,-67,-52,-67,-131c0,0,0,-116,132,-199c0,0,132,-84,334,-132l-32,-74Z"
id="f6_cc"
transform="scale(0.001,-0.001)"/>

<path d="M-91,1001c0,0,-27,10,-61,36c0,0,-33,26,-50,49c0,0,38,81,90,110c0,0,61,-23,107,-85c0,0,-28,-71,-86,-110ZM-214,863l-199,281c0,0,-70,92,-157,92c0,0,-69,0,-159,-58l-72,118c0,0,89,73,180,73c0,0,141,0,258,-170L-155,901l-59,-38Z"
id="f6_oz"
transform="scale(0.001,-0.001)"/>

<path d="M396,318c0,0,123,0,203,108V822H180l66,-58V408c0,0,49,-90,150,-90ZM176,-66L79,9L379,228c0,0,-106,23,-181,119c0,0,-76,96,-79,198V822H0l-45,76l14,31H863l46,-76L895,822H660l66,-58V-39L689,-49L599,8V269L176,-66Z"
id="f6_e6"
transform="scale(0.001,-0.001)"/>

<path d="M799,475V822H350l66,-55V564c0,0,0,-43,-25,-89ZM527,-71L52,414l34,92H277c0,0,12,32,12,72V822H0l-45,76l14,31H1063l46,-76l-14,-31H860l66,-58V-39L889,-49L799,8V370H315L264,316L610,34L611,8L527,-71Z"
id="f6_cb"
transform="scale(0.001,-0.001)"/>

<path d="M-214,863l-199,281c0,0,-70,92,-157,92c0,0,-69,0,-159,-58l-72,118c0,0,89,73,180,73c0,0,141,0,258,-170L-155,901l-59,-38Z"
id="f6_d4"
transform="scale(0.001,-0.001)"/>

<path d="M438,206c0,0,-119,0,-226,109c0,0,-108,108,-108,243V822H0l-45,76l14,31H542l46,-76L574,822H165l66,-58V408c0,0,46,-86,151,-86c0,0,61,0,119,32c0,0,58,33,95,91L669,338c0,0,-44,-66,-108,-99c0,0,-63,-33,-123,-33Z"
id="f6_ll"
transform="scale(0.001,-0.001)"/>

<path d="M374,248c0,0,77,0,149,36c0,0,71,37,110,107V822H284c0,0,138,-96,138,-208c0,0,0,-151,-228,-192c0,0,29,-104,89,-158c0,0,41,-16,91,-16ZM723,-49L633,8V200c0,0,-69,-56,-170,-56c0,0,-122,0,-240,94c0,0,-118,94,-179,237l20,55c0,0,133,17,187,44c0,0,55,28,55,84c0,0,0,45,-30,81c0,0,-30,36,-99,83H0l-45,76l14,31H897l46,-76L929,822H694l65,-58V-39L723,-49Z"
id="f6_c0"
transform="scale(0.001,-0.001)"/>

<path d="M325,240c0,0,77,0,154,35c0,0,77,35,120,99V500c0,0,-118,73,-222,73c0,0,-97,0,-151,-54c0,0,-53,-53,-53,-128c0,0,0,-73,49,-125c0,0,38,-26,103,-26ZM689,-49L599,8V199c0,0,-73,-65,-179,-65c0,0,-134,0,-252,96c0,0,-118,95,-118,221c0,0,0,102,78,171c0,0,78,69,190,69c0,0,38,0,75,-10L599,582V822H0l-45,76l14,31H863l46,-76L895,822H660l66,-58V-39L689,-49Z"
id="f6_c7"
transform="scale(0.001,-0.001)"/>

<path d="M845,-49L755,8V513H497c0,0,61,-45,93,-110c0,0,33,-64,33,-128c0,0,0,-90,-58,-144c0,0,-59,-53,-143,-53c0,0,-133,0,-234,139C188,217,87,356,20,596l76,24c0,0,60,-201,127,-306c0,0,67,-105,160,-105c0,0,57,0,91,36c0,0,33,36,33,91c0,0,0,84,-73,159L295,558v71H755V822H0l-45,76l14,31H1019l46,-76l-14,-31H816l66,-58V-39L845,-49Z"
id="f6_bg"
transform="scale(0.001,-0.001)"/>

<path d="M228,-49L138,8V822H0l-45,76l14,31H134c0,0,-91,93,-91,200c0,0,0,109,92,174c0,0,93,66,253,66c0,0,186,0,398,-89c0,0,212,-90,430,-264l-49,-47c0,0,-424,285,-727,285c0,0,-125,0,-201,-49c0,0,-76,-48,-76,-137c0,0,0,-67,52,-139H402l46,-76L434,822H199l65,-58V-39L228,-49Z"
id="f6_nu"
transform="scale(0.001,-0.001)"/>

<path d="M663,-49L573,8V445H299V280L226,251c0,0,-105,99,-162,238l63,72H573V822H0l-45,76l14,31H837l46,-76L869,822H634l66,-58V-39L663,-49Z"
id="f6_bt"
transform="scale(0.001,-0.001)"/>

<path d="M413,-59C413,-59,53,193,53,416c0,0,0,97,66,164c0,0,66,66,156,66c0,0,61,0,110,-30L487,507c0,0,92,126,257,126l35,-2V822H0l-45,76l14,31H1043l46,-76l-13,-31H840l66,-58V-39L869,-49L779,8V547c0,0,-101,-5,-165,-90c0,0,-64,-86,-70,-222L507,225l-90,73c0,0,5,79,35,151c0,0,-59,66,-128,66c0,0,-57,0,-100,-38c0,0,-44,-39,-44,-109c0,0,0,-165,284,-360L413,-59Z"
id="f6_c3"
transform="scale(0.001,-0.001)"/>

<path d="M761,293c0,0,127,0,169,94V532c0,0,-68,46,-145,46c0,0,-76,0,-121,-46c0,0,-45,-45,-45,-107c0,0,0,-61,44,-110c0,0,47,-22,98,-22ZM657,67c0,0,166,0,273,107v55c0,0,-45,-36,-111,-36c0,0,-110,0,-207,90c0,0,-97,90,-97,194c0,0,0,85,66,148c0,0,65,63,155,63l48,-5L930,603V822H376l62,-55V579c0,0,0,-60,-23,-102c0,0,-24,-42,-148,-190c0,0,66,-104,175,-162c0,0,108,-58,215,-58ZM1021,-49L930,8V53c0,0,-105,-83,-264,-83c0,0,-177,0,-339,128C327,98,165,226,90,429l34,77H296c0,0,19,39,19,102l-2,214H0l-45,76l14,31H1195l46,-76l-14,-31H992l65,-58V-39l-36,-10Z"
id="f6_ba"
transform="scale(0.001,-0.001)"/>

<path d="M347,-57C347,-57,66,211,66,394c0,0,0,98,74,164c0,0,74,65,225,65H616V822H0l-45,76l14,31H880l46,-76L912,822H677l66,-58V-39L706,-49L616,8V500H428c0,0,-239,0,-239,-161c0,0,0,-136,214,-343L347,-57Z"
id="f6_bp"
transform="scale(0.001,-0.001)"/>

<path d="M959,-49L869,8V367c0,0,-32,-13,-64,-13c0,0,-50,0,-110,25c0,0,23,-52,23,-109c0,0,0,-103,-70,-170c0,0,-70,-66,-182,-66c0,0,-110,0,-222,82c0,0,-111,83,-213,293l68,42c0,0,72,-155,152,-231c0,0,81,-76,178,-76c0,0,83,0,131,49c0,0,48,48,48,117c0,0,0,54,-30,100c0,0,-31,47,-91,65L325,391L257,512c0,0,68,53,156,56c0,0,140,72,140,179c0,0,0,69,-52,99c0,0,-4,1,-11,1c-19,0,-66,-4,-123,-30c0,0,-78,-35,-142,-96L150,823c0,0,119,117,253,117c0,0,98,0,175,-71c0,0,77,-70,77,-159c0,0,0,-103,-94,-180c0,0,39,-23,73,-56c0,0,52,-22,109,-22c0,0,77,0,126,38V822H727l-46,76l14,31h439l45,-76l-13,-31H930l66,-58V-39L959,-49Z"
id="f6_al"
transform="scale(0.001,-0.001)"/>

<path d="M228,-49L138,8V822H0l-45,76l14,31H133c0,0,-93,95,-93,206c0,0,0,96,68,159c0,0,68,63,179,63c0,0,118,0,228,-81c0,0,110,-80,258,-262L720,970L588,1109c0,0,-133,133,-253,133c0,0,-78,0,-127,-46c0,0,-49,-46,-49,-119c0,0,0,-69,56,-148H402l46,-76L434,822H199l65,-58V-39L228,-49Z"
id="f6_nr"
transform="scale(0.001,-0.001)"/>

<path d="M915,-274L842,21L784,6c0,0,-37,-120,-114,-190c0,0,-77,-70,-178,-70c0,0,-96,0,-175,51c0,0,-79,51,-80,122c0,0,-119,32,-179,89C58,8,-1,67,-1,138c0,0,0,64,44,104c0,0,44,41,104,41c0,0,91,0,207,-123L315,110c0,0,-78,69,-122,84c0,0,-75,-23,-75,-92c0,0,0,-39,36,-72c0,0,35,-32,100,-46c0,0,35,69,122,89L497,24l-4,-40c0,0,-59,-6,-95,-37c0,0,-36,-32,-36,-68c0,0,0,-41,46,-63c0,0,67,3,141,62c0,0,74,59,102,137c0,0,-136,32,-237,135c0,0,-101,104,-101,223c0,0,0,113,84,184c0,0,84,71,222,72H764V822H0l-45,76l14,31H1074l46,-76l-14,-31H825l66,-58V504l-3,2l3,-3H648c0,0,-95,0,-154,-53c0,0,-59,-53,-59,-132c0,0,0,-49,28,-100c0,0,27,-50,82,-84c0,0,45,-15,97,-15c0,0,91,0,160,46L775,303l100,48L1013,188c0,0,-8,-28,-34,-66c0,0,-27,-38,-62,-64l136,-279L915,-274Z"
id="f6_ge"
transform="scale(0.001,-0.001)"/>

<path d="M959,-49L869,8V367c0,0,-32,-13,-64,-13c0,0,-50,0,-110,25c0,0,23,-52,23,-109c0,0,0,-103,-70,-170c0,0,-70,-66,-182,-66c0,0,-110,0,-222,82c0,0,-111,83,-213,293l68,42c0,0,72,-155,152,-231c0,0,81,-76,178,-76c0,0,83,0,131,49c0,0,48,48,48,117c0,0,0,54,-30,100c0,0,-31,47,-91,65L325,391L257,512c0,0,68,53,156,56c0,0,140,72,140,179c0,0,0,69,-52,99c0,0,-4,1,-11,1c-19,0,-66,-4,-123,-30c0,0,-78,-35,-142,-96L150,823c0,0,119,117,253,117c0,0,98,0,175,-71c0,0,77,-70,77,-159c0,0,0,-103,-94,-180c0,0,39,-23,73,-56c0,0,52,-22,109,-22c0,0,77,0,126,38V822H727l-46,76l14,31h840l46,-76l-13,-31H1332l66,-58V-39l-37,-10L1271,8V822H930l66,-58V-39L959,-49Z"
id="f6_am"
transform="scale(0.001,-0.001)"/>

<path d="M471,-26c0,0,-259,0,-448,396l70,43C93,413,240,98,442,98c0,0,79,0,132,46c0,0,54,45,54,120c0,0,0,61,-38,116c0,0,-38,54,-107,72L322,370L255,492c0,0,66,53,156,56c0,0,128,51,128,153c0,0,0,77,-65,121H0l-45,76l14,31H813l46,-76L845,822H578c0,0,76,-66,76,-157c0,0,0,-95,-87,-156c0,0,84,-48,131,-123c0,0,48,-76,48,-158c0,0,0,-109,-78,-182c0,0,-78,-72,-197,-72Z"
id="f6_ap"
transform="scale(0.001,-0.001)"/>

<path d="M417,63c0,0,-130,0,-230,139C187,202,87,341,20,581l76,24c0,0,60,-202,127,-306c0,0,67,-105,160,-105c0,0,57,0,91,36c0,0,33,36,33,91c0,0,0,84,-73,159L295,542v72H819l43,-85L843,498H497c0,0,61,-47,93,-111c0,0,33,-63,33,-126c0,0,0,-85,-58,-142c0,0,-59,-56,-148,-56ZM0,822l-45,76l14,31H775l45,-76L807,822Z"
id="f6_l7"
transform="scale(0.001,-0.001)"/>

<path d="M252,385l310,78l22,-9c0,0,107,-43,200,-43c0,0,91,0,151,41V822H603l66,-58V585H373c0,0,-184,0,-184,-99c0,0,0,-48,63,-101ZM483,-305L295,-10c0,0,-90,22,-156,74l41,170h66L351,63c0,0,126,4,207,62c0,0,82,58,82,139c0,0,0,37,-18,71L365,266c0,0,-110,15,-197,102c0,0,-87,87,-87,176c0,0,0,69,59,117c0,0,59,48,172,48H550V822H0l-45,76l14,31H1199l46,-76l-14,-31H996l66,-58V-39l-37,-10L935,8V318c0,0,-41,-15,-78,-15c0,0,-52,0,-131,30c0,0,32,-55,32,-111c0,0,0,-109,-98,-179c0,0,-98,-69,-254,-69L599,-216L483,-305Z"
id="f6_bh"
transform="scale(0.001,-0.001)"/>

<path d="M830,-253l-123,66c0,0,31,47,31,78c0,0,0,44,-64,84L353,130c0,0,-234,113,-234,325V822H0l-45,76l14,31H848l46,-76L880,822H655l68,-58V561c0,0,0,-176,-41,-241c0,0,-40,-65,-161,-106l-49,82l124,69V822H180l66,-58V283L646,92c0,0,126,-60,176,-110c0,0,50,-51,50,-115c0,0,0,-62,-42,-120Z"
id="f6_ax"
transform="scale(0.001,-0.001)"/>

<path d="M373,218c0,0,98,0,172,61c0,0,75,60,75,140c0,0,0,29,-10,55c0,0,-69,59,-121,85c0,0,-52,26,-113,26c0,0,-95,0,-151,-56c0,0,-57,-55,-57,-133c0,0,0,-77,52,-135c0,0,60,-43,153,-43ZM431,116c0,0,-142,0,-261,99C170,215,52,315,52,446c0,0,0,107,80,179c0,0,80,72,195,72c0,0,43,0,81,-11L642,548c0,0,73,-91,73,-183c0,0,0,-104,-84,-176c0,0,-84,-73,-200,-73ZM0,822l-45,76l14,31H619l46,-76L651,822Z"
id="f6_lx"
transform="scale(0.001,-0.001)"/>

<path d="M819,-521L651,-303c0,0,-99,119,-191,119c0,0,-60,0,-96,-34c0,0,-37,-35,-37,-82c0,0,0,-49,43,-82l151,94l64,-116c0,0,-70,-58,-148,-58c0,0,-79,0,-145,64c0,0,-66,63,-66,144c0,0,0,98,90,151c0,0,-203,131,-203,306c0,0,0,101,69,170c0,0,-103,88,-103,179c0,0,0,64,57,110c0,0,57,47,196,47H571V822H0l-45,76l14,31H830l45,-76L862,822H625l66,-58V585H364c0,0,-176,0,-176,-96c0,0,0,-41,44,-76c0,0,81,47,185,47c0,0,135,0,230,-76c0,0,96,-75,96,-187C743,197,743,67,614,2L530,104c0,0,49,30,81,75c0,0,32,44,32,82c0,0,0,16,-4,26c0,0,-65,58,-167,58c0,0,-98,0,-166,-50v-2c0,0,-68,-52,-68,-131c0,0,0,-134,188,-231c0,0,84,0,164,-62c0,0,79,-62,195,-222l90,-129l-56,-39Z"
id="f6_n5"
transform="scale(0.001,-0.001)"/>

<path d="M108,-222l-44,58c0,0,96,81,104,164L89,61c0,0,12,83,93,122c0,0,50,-15,79,-55c0,0,29,-39,29,-90c0,0,0,-69,-48,-142c0,0,-48,-72,-134,-118Z"
id="f6_k"
transform="scale(0.001,-0.001)"/>

<path d="M513,460c0,0,61,81,61,179c0,0,0,87,-45,143c0,0,-45,57,-116,57c0,0,-63,0,-102,-43c0,0,-39,-43,-39,-110c0,0,0,-90,68,-151c0,0,68,-61,173,-75ZM581,-83L278,167l-41,-4c0,0,-99,0,-130,37l47,168l51,12l78,-79c0,0,110,40,183,105c0,0,-141,23,-231,107c0,0,-90,84,-90,193c0,0,0,69,37,116H0l-45,76l14,31H1134l45,-76l-13,-31H930l66,-58V-39L959,-49L869,8V822H588c0,0,51,-44,75,-109c0,0,25,-64,25,-122c0,0,0,-105,-81,-213c0,0,-80,-108,-240,-176L658,18l2,-25L581,-83Z"
id="f6_c8"
transform="scale(0.001,-0.001)"/>

<path d="M-234,-413c0,0,-210,0,-488,322l54,49c0,0,119,-128,209,-193c0,0,90,-65,177,-65c0,0,72,0,113,40c0,0,42,39,42,91c0,0,0,75,-78,106L-323,-181l-90,98c0,0,63,95,167,95c0,0,90,0,155,-69c0,0,66,-70,66,-164c0,0,0,-85,-60,-139c0,0,-61,-53,-149,-53Z"
id="f6_cw"
transform="scale(0.001,-0.001)"/>

<path d="M823,-49L733,8V339H445V191L371,160c0,0,-56,36,-120,105c0,0,-63,70,-89,131l41,59H313V735c0,0,0,99,-55,140c0,0,-3,1,-8,1c-16,0,-48,-3,-71,-23c0,0,-31,-26,-31,-66c0,0,0,-69,81,-113L189,620C189,620,31,720,31,828c0,0,0,61,45,99c0,0,46,37,109,37c0,0,96,0,173,-86c0,0,76,-87,79,-194V455H733V822H556l-46,76l14,31H998l45,-76l-13,-31H794l66,-58V-39L823,-49Z"
id="f6_by"
transform="scale(0.001,-0.001)"/>

<path d="M-239,897c0,0,-82,61,-132,137c0,0,-50,75,-50,150c0,0,0,78,52,133c0,0,52,55,141,55c0,0,98,0,176,-64l-23,-69c0,0,-52,32,-104,32c0,0,-57,0,-95,-36c0,0,-38,-36,-38,-95c0,0,0,-115,117,-217l-44,-26Z"
id="f6_dr"
transform="scale(0.001,-0.001)"/>

<path d="M228,-49L138,8V822H0l-45,76l14,31H134c0,0,-91,93,-91,202c0,0,0,105,85,170c0,0,86,65,236,65c0,0,340,0,742,-350l-50,-46c0,0,-182,135,-340,208c0,0,-158,73,-302,73c0,0,-113,0,-183,-48c0,0,-69,-48,-69,-132c0,0,0,-63,53,-142H402l46,-76L434,822H199l65,-58V-39L228,-49Z"
id="f6_nt"
transform="scale(0.001,-0.001)"/>

<path d="M347,-75c0,0,-132,124,-193,215c0,0,-61,91,-61,184c0,0,0,114,83,185c0,0,82,70,214,70c0,0,198,0,348,-166L665,328c0,0,-60,60,-117,92c0,0,-58,32,-134,32c0,0,-93,0,-148,-48c0,0,-55,-48,-55,-126c0,0,0,-56,40,-124c0,0,41,-68,152,-176L347,-75ZM0,822l-45,76l14,31H643l46,-76L675,822Z"
id="f6_lf"
transform="scale(0.001,-0.001)"/>

<path d="M332,567c0,0,149,88,149,206c0,0,0,35,-15,69c0,0,-41,27,-83,27c0,0,-55,0,-95,-41c0,0,-40,-41,-40,-105c0,0,0,-94,84,-156ZM610,-324L533,-17c0,0,-50,-17,-101,-17c0,0,-136,0,-254,101C178,67,60,170,60,283c0,0,0,67,51,126c0,0,51,59,159,126c0,0,-137,114,-137,233c0,0,0,83,57,140c0,0,58,56,143,56c0,0,99,0,173,-78c0,0,75,-78,75,-174c0,0,0,-113,-126,-205c0,0,89,-24,200,-24l150,9V822H652l-45,76l13,31h449l46,-76l-13,-31H866l66,-58V-39L895,-49L805,8V370l-62,-3c0,0,-182,0,-353,90c0,0,-117,-64,-168,-119c0,0,-51,-55,-51,-121c0,0,0,-49,37,-102c0,0,52,-34,130,-34c0,0,76,0,143,32L460,220l101,49L692,130c0,0,-14,-47,-87,-110L747,-271L610,-324Z"
id="f6_eq"
transform="scale(0.001,-0.001)"/>

<path d="M727,-49L637,8V822H278l66,-58V226L270,196c0,0,-64,36,-122,98c0,0,-58,62,-79,122l43,59H217V822H0l-45,76l14,31H901l46,-76L933,822H698l66,-58V-39L727,-49Z"
id="f6_bb"
transform="scale(0.001,-0.001)"/>

<path d="M92,380L46,457l14,30H448l45,-76L480,380Z"
id="f6_pd"
transform="scale(0.001,-0.001)"/>

<path d="M634,-49L249,296c0,0,-1,0,-3,0c-11,0,-48,1,-90,15c0,0,-51,16,-67,36l49,165l50,12l84,-98c0,0,125,31,191,104c0,0,66,73,66,165c0,0,0,109,-95,170c0,0,-2,0,-6,0C397,865,262,858,121,738L46,848c0,0,52,47,127,82c0,0,75,34,152,34c0,0,130,0,226,-94c0,0,95,-94,95,-218c0,0,0,-107,-77,-199c0,0,-77,-92,-216,-134L697,26L698,0L634,-49Z"
id="f6_n8"
transform="scale(0.001,-0.001)"/>

<path d="M675,-274L602,21C602,21,550,3,498,3C498,3,347,3,210,118C210,118,73,232,73,373c0,0,0,113,84,184c0,0,84,71,222,72H524V822H0l-45,76l14,31H834l46,-76L866,822H585l66,-58V504l-3,2l3,-3H408c0,0,-95,0,-154,-53c0,0,-58,-53,-58,-132c0,0,0,-49,27,-100c0,0,28,-50,83,-84c0,0,44,-15,96,-15c0,0,91,0,160,46L535,303l101,48L773,188c0,0,-8,-28,-34,-66c0,0,-27,-38,-62,-64L813,-221L675,-274Z"
id="f6_br"
transform="scale(0.001,-0.001)"/>

<path d="M348,229c0,0,57,0,106,17L263,559c0,0,-95,-50,-95,-162c0,0,0,-75,52,-136c0,0,49,-32,128,-32Zm170,48c0,0,61,38,96,91V504c0,0,-131,80,-244,80l-35,-2L518,277ZM704,-49L614,8V193c0,0,-84,-65,-192,-65c0,0,-139,0,-255,98c0,0,-115,98,-115,226c0,0,0,106,77,175c0,0,77,70,189,70c0,0,38,0,75,-9L614,578V822H0l-45,76l14,31H878l46,-76L911,822H675l66,-58V-39L704,-49Z"
id="f6_bx"
transform="scale(0.001,-0.001)"/>

<path d="M226,-49c0,0,-66,24,-102,78c0,0,32,69,82,101c0,0,55,-20,100,-80c0,0,-26,-66,-80,-99Z"
id="f6_pc"
transform="scale(0.001,-0.001)"/>

<path d="M825,-49L735,8V217c0,0,-86,-72,-197,-72c0,0,-130,0,-238,91c0,0,-107,91,-107,204c0,0,0,55,27,105H55L12,616l14,30H574l46,-76L607,539H396c0,0,-78,-49,-78,-162c0,0,0,-70,40,-111c0,0,39,-15,94,-15c0,0,84,0,163,41c0,0,79,41,120,121V822H0l-45,76l14,31H999l46,-76l-14,-31H796l66,-58V-39L825,-49Z"
id="f6_be"
transform="scale(0.001,-0.001)"/>

<path d="M332,992c0,0,-62,22,-101,77c0,0,32,69,81,100c0,0,50,-19,97,-78c0,0,-24,-64,-77,-99ZM228,-49L138,8V822H0l-45,76l14,31H159L6,1144c0,0,-69,92,-156,92c0,0,-69,0,-159,-58l-72,118c0,0,89,73,180,73c0,0,136,0,250,-159l59,-84l-3,34c0,0,0,76,53,127c0,0,53,51,129,51c0,0,93,0,164,-91l-26,-52c0,0,-52,33,-103,33c0,0,-62,0,-101,-38c0,0,-39,-38,-39,-102c0,0,0,-72,66,-159H402l46,-76L434,822H199l65,-58V-39L228,-49Z"
id="f6_p8"
transform="scale(0.001,-0.001)"/>

<path d="M228,-49L138,8V822H0l-45,76l14,31H134c0,0,-91,92,-91,191c0,0,0,105,85,170c0,0,84,65,219,65c0,0,128,0,293,-76c0,0,165,-77,362,-263L958,966c0,0,-177,143,-303,210c0,0,-125,68,-244,68c0,0,-107,0,-175,-50c0,0,-68,-50,-68,-131c0,0,0,-61,49,-134H402l46,-76L434,822H199l65,-58V-39L228,-49Z"
id="f6_cu"
transform="scale(0.001,-0.001)"/>

<path d="M388,325c0,0,58,0,112,31c0,0,53,31,84,86V822H165l69,-58V408c0,0,47,-83,154,-83ZM674,-49L584,8V257c0,0,-61,-51,-141,-51c0,0,-125,0,-232,109c0,0,-107,108,-107,243V822H0l-45,76l14,31H848l46,-76L880,822H645l65,-58V-39L674,-49Z"
id="f6_bv"
transform="scale(0.001,-0.001)"/>

<path d="M0,822l-45,76l14,31H38L84,853L70,822Z"
id="f6_nl"
transform="scale(0.001,-0.001)"/>

<path d="M567,822l-46,76l14,31H726l46,-76L758,822ZM518,122c0,0,-115,0,-225,93c0,0,-111,94,-111,193c0,0,0,79,61,137C243,545,66,672,66,791c0,0,0,75,52,124c0,0,53,49,134,49c0,0,164,0,260,-237L451,694c0,0,-55,114,-119,163l-31,5c0,0,-44,0,-77,-32c0,0,-33,-31,-33,-78c0,0,0,-86,113,-165c0,0,60,27,133,27l67,-4l75,-89L564,490l-51,7H493c0,0,-90,0,-142,-43c0,0,-52,-43,-52,-104c0,0,0,-60,51,-109c0,0,37,-13,82,-13c0,0,104,0,197,59c0,0,94,60,127,148l95,-87c0,0,-43,-94,-140,-160c0,0,-97,-66,-193,-66Z"
id="f6_lh"
transform="scale(0.001,-0.001)"/>

<path d="M827,-49L736,8V205c0,0,-84,-84,-209,-84c0,0,-130,0,-237,91c0,0,-108,92,-108,196c0,0,0,79,61,137C243,545,66,672,66,791c0,0,0,75,52,124c0,0,53,49,134,49c0,0,164,0,260,-237L451,694c0,0,-55,114,-119,163l-31,5c0,0,-44,0,-77,-32c0,0,-33,-31,-33,-78c0,0,0,-86,113,-165c0,0,60,27,133,27l67,-4l75,-89L564,490l-51,7H493c0,0,-90,0,-142,-43c0,0,-52,-43,-52,-104c0,0,0,-60,51,-109c0,0,33,-16,84,-16c0,0,89,0,177,47c0,0,89,47,125,137V822H567l-46,76l14,31h466l46,-76l-14,-31H798l65,-58V-39L827,-49Z"
id="f6_bs"
transform="scale(0.001,-0.001)"/>

<path d="M347,-57C347,-57,73,203,73,373c0,0,0,110,87,181c0,0,86,71,227,71c0,0,143,0,285,-95L626,420c0,0,-103,80,-217,80c0,0,-85,0,-148,-47c0,0,-62,-47,-62,-129c0,0,0,-127,204,-328L347,-57ZM0,822l-45,76l14,31H536l46,-76L568,822Z"
id="f6_ld"
transform="scale(0.001,-0.001)"/>

<path d="M108,-433L-59,-214c0,0,-99,119,-191,119c0,0,-59,0,-96,-35c0,0,-36,-34,-36,-81c0,0,0,-49,42,-83l152,95l64,-116c0,0,-71,-58,-148,-58c0,0,-80,0,-146,63c0,0,-65,64,-65,144c0,0,0,77,62,131c0,0,61,53,142,53c0,0,138,0,296,-205L165,-393l-57,-40Z"
id="f6_cx"
transform="scale(0.001,-0.001)"/>

<path d="M290,-236c0,0,-253,348,-253,685c0,0,0,342,270,669l80,-39c0,0,-207,-311,-207,-622c0,0,0,-326,193,-652l-83,-41Z"
id="f6_g"
transform="scale(0.001,-0.001)"/>

<path d="M130,-236l-83,41c0,0,193,326,193,652c0,0,0,311,-206,622l79,39c0,0,270,-327,270,-669c0,0,0,-337,-253,-685Z"
id="f6_h"
transform="scale(0.001,-0.001)"/>

<path d="M449,79c0,0,103,0,168,61c0,0,66,60,66,149c0,0,0,93,-84,186H420c0,0,-107,0,-164,-50c0,0,-57,-51,-57,-126c0,0,0,-108,99,-184c0,0,81,-36,151,-36Zm67,-96c0,0,-168,0,-301,109C215,92,81,202,81,350c0,0,0,114,83,182c0,0,84,68,229,68H507V822H0l-45,76l14,31H883l46,-76L915,822H568l66,-58V532c0,0,87,-64,130,-144c0,0,43,-79,43,-157c0,0,0,-109,-81,-179c0,0,-81,-69,-210,-69Z"
id="f6_bl"
transform="scale(0.001,-0.001)"/>

<path d="M368,344c0,0,90,0,155,73V822H150l67,-58V438c0,0,46,-94,151,-94ZM613,-49L523,8V251c0,0,-48,-28,-103,-28c0,0,-122,0,-227,112C193,335,89,448,89,590V822H0l-45,76l14,31H1150l46,-76l-13,-31H584l65,-58V533c0,0,101,95,211,95c0,0,98,0,170,-79c0,0,73,-78,73,-185c0,0,0,-179,-225,-330L785,139c0,0,219,153,219,269c0,0,0,43,-26,75c0,0,-26,32,-80,32c0,0,-120,0,-249,-159V-39L613,-49Z"
id="f6_bw"
transform="scale(0.001,-0.001)"/>

<path d="M483,-305L295,-10c0,0,-90,22,-156,74l41,170h66L351,63c0,0,126,4,207,62c0,0,82,58,82,139c0,0,0,37,-18,71L365,266c0,0,-110,15,-197,102c0,0,-87,87,-87,176c0,0,0,69,59,117c0,0,59,48,172,48H550V822H0l-45,76l14,31H822l46,-76L854,822H603l66,-58V585H373c0,0,-184,0,-184,-99c0,0,0,-48,63,-101l310,78c0,0,86,-34,141,-99c0,0,55,-65,55,-142c0,0,0,-109,-98,-179c0,0,-98,-69,-254,-69L599,-216L483,-305Z"
id="f6_an"
transform="scale(0.001,-0.001)"/>

<path d="M228,-49L138,8V822H0l-45,76l14,31H138c0,0,-109,342,-284,342c0,0,-62,0,-102,-40c0,0,-40,-39,-40,-93c0,0,0,-61,51,-134l-42,-32c0,0,-128,113,-128,226c0,0,0,79,60,136c0,0,61,56,154,56c0,0,137,0,249,-125c0,0,112,-125,169,-336H402l46,-76L434,822H199l65,-58V-39L228,-49Z"
id="f6_cv"
transform="scale(0.001,-0.001)"/>

<path d="M900,298c0,0,32,73,32,159c0,0,0,110,-38,160c0,0,-40,31,-81,31c0,0,-48,0,-80,-35c0,0,-33,-35,-33,-89c0,0,0,-118,200,-226ZM588,-60c0,0,-154,0,-274,93c0,0,-120,94,-120,207c0,0,0,50,28,92C222,332,61,440,61,552c0,0,0,71,56,122c0,0,56,50,169,50H417l64,-98L463,600H333c0,0,-157,-1,-157,-99c0,0,0,-59,88,-124c0,0,68,52,164,52c0,0,38,0,79,-9l71,-88L558,299c0,0,-46,10,-81,10c0,0,-75,0,-116,-36c0,0,-40,-36,-40,-88c0,0,0,-78,73,-130c0,0,54,-17,109,-17c0,0,114,0,211,54c0,0,97,53,154,145c0,0,-156,96,-223,173c0,0,-67,77,-67,155c0,0,0,72,48,124c0,0,48,52,126,55v78H0l-45,76l14,31H1123l46,-76l-14,-31H805l66,-58V717c0,0,76,-40,124,-124c0,0,47,-84,47,-193c0,0,0,-188,-133,-324C909,76,776,-60,588,-60Z"
id="f6_bf"
transform="scale(0.001,-0.001)"/>

<path d="M725,307c0,0,-95,0,-218,78c0,0,-123,78,-188,78c0,0,-54,0,-95,-34c0,0,-41,-34,-73,-100L93,362c0,0,38,88,101,146c0,0,63,59,148,59c0,0,90,0,214,-78c0,0,124,-79,188,-79c0,0,63,0,106,34c0,0,42,33,85,104l60,-40c0,0,-32,-66,-101,-134c0,0,-70,-67,-169,-67Z"
id="f7_4r"
transform="scale(0.001,-0.001)"/>

<path d="M46,0c0,0,-2,48,16,93c0,0,27,74,88,146c0,0,61,71,176,165c0,0,178,146,241,232c0,0,63,85,63,161c0,0,0,80,-57,135c0,0,-58,55,-149,55c0,0,-98,0,-156,-59c0,0,-58,-58,-59,-160L71,782c0,0,15,154,107,235c0,0,93,81,249,81c0,0,157,0,249,-87c0,0,92,-88,92,-217c0,0,0,-65,-27,-129c0,0,-27,-63,-89,-133c0,0,-62,-70,-207,-193C445,339,324,238,290,202c0,0,-35,-36,-57,-73H770V0Z"
id="f8_m"
transform="scale(0.001,-0.001)"/>


</defs>
</svg>