<?xml version="1.0" encoding="UTF-8" standalone="no"?>
<!DOCTYPE svg PUBLIC "-//W3C//DTD SVG 1.1//EN"
"http://www.w3.org/Graphics/SVG/1.1/DTD/svg11.dtd">
<svg viewBox="0 0 641 910" version="1.1" xmlns="http://www.w3.org/2000/svg" xmlns:xlink="http://www.w3.org/1999/xlink">
<defs>
<clipPath id="c0_99"><path d="M0,909.8V0H641.7V909.8Z"/></clipPath>
<clipPath id="c1_99"><path d="M0,908.6V0H641.7V908.6Z"/></clipPath>
<style type="text/css"><![CDATA[
.g0_99{
fill: #FFFFFF;
}
.g1_99{
}
]]></style>
</defs>
<path d="M0,0H641.7V909.8H0V0Z" class="g0_99"/>
<path d="M0,0H641.7V909.8H0V0Z" class="g0_99"/>
<g clip-path="url(#c0_99)">
<path d="M0,-83700.7H641.7V22744.8H0V-83700.7Z" class="g0_99"/>
</g>
<path d="M0,0H641.7V908.6H0V0Z" class="g0_99"/>
<path d="M19.5,60.7H602.7v1.2H19.5V60.7Z" class="g1_99"/>
<g clip-path="url(#c1_99)">
<path d="M0,61.9H641.7V909.8H0V61.9Z" class="g0_99"/>
<g fill="#000000" >
<use xlink:href="#f5_by" transform="matrix(14,0,0,14,228.3,96.3)" />
<use xlink:href="#f5_d5" transform="matrix(14,0,0,14,243.3,96.3)" />
<use xlink:href="#f5_n0" transform="matrix(14,0,0,14,243.3,96.3)" />
<use xlink:href="#f5_am" transform="matrix(14,0,0,14,264.9,96.3)" />
<use xlink:href="#f5_c7" transform="matrix(14,0,0,14,289.7,96.3)" />
<use xlink:href="#f5_am" transform="matrix(14,0,0,14,309,96.3)" />
<use xlink:href="#f5_c7" transform="matrix(14,0,0,14,333.9,96.3)" />
<use xlink:href="#f5_am" transform="matrix(14,0,0,14,353.2,96.3)" />
<use xlink:href="#f5_c7" transform="matrix(14,0,0,14,378.1,96.3)" />
<use xlink:href="#f6_by" transform="matrix(14,0,0,14,148.1,129.5)" />
<use xlink:href="#f6_d5" transform="matrix(14,0,0,14,162.2,129.5)" />
<use xlink:href="#f6_n0" transform="matrix(14,0,0,14,162.1,129.5)" />
<use xlink:href="#f6_am" transform="matrix(14,0,0,14,180.9,129.5)" />
<use xlink:href="#f6_c7" transform="matrix(14,0,0,14,202.4,129.5)" />
<use xlink:href="#f6_am" transform="matrix(14,0,0,14,220.1,129.5)" />
<use xlink:href="#f6_c7" transform="matrix(14,0,0,14,241.6,129.5)" />
<use xlink:href="#f6_am" transform="matrix(14,0,0,14,259.3,129.5)" />
<use xlink:href="#f6_c7" transform="matrix(14,0,0,14,280.8,129.5)" />
<use xlink:href="#f6_bp" transform="matrix(14,0,0,14,298.6,129.5)" />
<use xlink:href="#f6_cw" transform="matrix(14,0,0,14,311.4,129.4)" />
<use xlink:href="#f6_bp" transform="matrix(14,0,0,14,316.5,129.5)" />
<use xlink:href="#f6_d8" transform="matrix(14,0,0,14,328.9,129.5)" />
<use xlink:href="#f6_br" transform="matrix(14,0,0,14,340.1,129.5)" />
<use xlink:href="#f6_d4" transform="matrix(14,0,0,14,351.4,129.5)" />
<use xlink:href="#f6_bz" transform="matrix(14,0,0,14,357.5,129.5)" />
<use xlink:href="#f6_cw" transform="matrix(14,0,0,14,371.4,129.4)" />
<use xlink:href="#f6_bf" transform="matrix(14,0,0,14,370.8,129.5)" />
<use xlink:href="#f6_ct" transform="matrix(14,0,0,14,386.5,129.5)" />
<use xlink:href="#f6_bt" transform="matrix(14,0,0,14,397.8,129.5)" />
<use xlink:href="#f6_d4" transform="matrix(14,0,0,14,409.7,129.5)" />
<use xlink:href="#f6_bp" transform="matrix(14,0,0,14,415.2,129.5)" />
<use xlink:href="#f6_ct" transform="matrix(14,0,0,14,427.5,129.5)" />
<use xlink:href="#f6_c7" transform="matrix(14,0,0,14,433.1,129.5)" />
<use xlink:href="#f6_g" transform="matrix(14,0,0,14,450.9,129.5)" />
<use xlink:href="#f6_n8" transform="matrix(14,0,0,14,456.8,129.5)" />
<use xlink:href="#f6_h" transform="matrix(14,0,0,14,467.2,129.5)" />
<use xlink:href="#f6_br" transform="matrix(14,0,0,14,141.2,162.7)" />
<use xlink:href="#f6_d4" transform="matrix(14,0,0,14,152.5,162.7)" />
<use xlink:href="#f6_bz" transform="matrix(14,0,0,14,158.6,162.7)" />
<use xlink:href="#f6_cw" transform="matrix(14,0,0,14,172.5,162.6)" />
<use xlink:href="#f6_bf" transform="matrix(14,0,0,14,171.9,162.7)" />
<use xlink:href="#f6_ct" transform="matrix(14,0,0,14,187.6,162.7)" />
<use xlink:href="#f6_bt" transform="matrix(14,0,0,14,198.9,162.7)" />
<use xlink:href="#f6_d4" transform="matrix(14,0,0,14,210.8,162.7)" />
<use xlink:href="#f6_bp" transform="matrix(14,0,0,14,216.3,162.7)" />
<use xlink:href="#f6_ct" transform="matrix(14,0,0,14,228.6,162.7)" />
<use xlink:href="#f6_c7" transform="matrix(14,0,0,14,234.2,162.7)" />
<use xlink:href="#f6_k" transform="matrix(14,0,0,14,246.3,162.7)" />
<use xlink:href="#f6_be" transform="matrix(14,0,0,14,257.2,162.7)" />
<use xlink:href="#f6_d9" transform="matrix(14,0,0,14,271.2,162.7)" />
<use xlink:href="#f6_cb" transform="matrix(14,0,0,14,276.8,162.7)" />
<use xlink:href="#f6_bl" transform="matrix(14,0,0,14,291.7,162.7)" />
<use xlink:href="#f6_bg" transform="matrix(14,0,0,14,309.7,162.7)" />
<use xlink:href="#f6_d8" transform="matrix(14,0,0,14,324,162.7)" />
<use xlink:href="#f6_bb" transform="matrix(14,0,0,14,329.6,162.7)" />
<use xlink:href="#f6_nu" transform="matrix(14,0,0,14,342.2,162.7)" />
<use xlink:href="#f6_bo" transform="matrix(14,0,0,14,347.8,162.7)" />
<use xlink:href="#f6_c0" transform="matrix(14,0,0,14,362.2,162.7)" />
<use xlink:href="#f6_ct" transform="matrix(14,0,0,14,374.7,162.7)" />
<use xlink:href="#f6_cb" transform="matrix(14,0,0,14,386,162.7)" />
<use xlink:href="#f6_dj" transform="matrix(14,0,0,14,394.6,163.1)" />
<use xlink:href="#f6_bb" transform="matrix(14,0,0,14,400.9,162.7)" />
<use xlink:href="#f6_c3" transform="matrix(14,0,0,14,419.2,162.7)" />
<use xlink:href="#f6_ct" transform="matrix(14,0,0,14,433.9,162.7)" />
<use xlink:href="#f6_c7" transform="matrix(14,0,0,14,439.5,162.7)" />
<use xlink:href="#f6_g" transform="matrix(14,0,0,14,457.2,162.7)" />
<use xlink:href="#f6_n8" transform="matrix(14,0,0,14,463.1,162.7)" />
<use xlink:href="#f6_h" transform="matrix(14,0,0,14,473.5,162.7)" />
<use xlink:href="#f6_by" transform="matrix(14,0,0,14,218,195.9)" />
<use xlink:href="#f6_d5" transform="matrix(14,0,0,14,232.1,195.9)" />
<use xlink:href="#f6_n0" transform="matrix(14,0,0,14,232,195.9)" />
<use xlink:href="#f6_am" transform="matrix(14,0,0,14,250.8,195.9)" />
<use xlink:href="#f6_c7" transform="matrix(14,0,0,14,272.3,195.9)" />
<use xlink:href="#f6_am" transform="matrix(14,0,0,14,290,195.9)" />
<use xlink:href="#f6_c7" transform="matrix(14,0,0,14,311.5,195.9)" />
<use xlink:href="#f6_am" transform="matrix(14,0,0,14,329.2,195.9)" />
<use xlink:href="#f6_c7" transform="matrix(14,0,0,14,350.7,195.9)" />
<use xlink:href="#f6_pc" transform="matrix(14,0,0,14,362.8,195.9)" />
<use xlink:href="#f6_pc" transform="matrix(14,0,0,14,367.1,195.9)" />
<use xlink:href="#f6_pc" transform="matrix(14,0,0,14,371.3,195.9)" />
<use xlink:href="#f6_pc" transform="matrix(14,0,0,14,375.6,195.9)" />
<use xlink:href="#f6_g" transform="matrix(14,0,0,14,379.9,195.9)" />
<use xlink:href="#f6_q" transform="matrix(14,0,0,14,385.8,195.9)" />
<use xlink:href="#f6_h" transform="matrix(14,0,0,14,397.4,195.9)" />
<use xlink:href="#f6_al" transform="matrix(14,0,0,14,93.1,254.4)" />
<use xlink:href="#f6_c1" transform="matrix(14,0,0,14,109,254.4)" />
<use xlink:href="#f6_d4" transform="matrix(14,0,0,14,117,254.4)" />
<use xlink:href="#f6_bb" transform="matrix(14,0,0,14,123,254.4)" />
<use xlink:href="#f6_d5" transform="matrix(14,0,0,14,135.8,254.4)" />
<use xlink:href="#f6_c3" transform="matrix(14,0,0,14,135.6,254.4)" />
<use xlink:href="#f6_ct" transform="matrix(14,0,0,14,150.3,254.4)" />
<use xlink:href="#f6_bz" transform="matrix(14,0,0,14,161.6,254.4)" />
<use xlink:href="#f6_d4" transform="matrix(14,0,0,14,175.1,254.4)" />
<use xlink:href="#f6_ax" transform="matrix(14,0,0,14,180.6,254.4)" />
<use xlink:href="#f6_b9" transform="matrix(14,0,0,14,192.5,254.4)" />
<use xlink:href="#f6_bz" transform="matrix(14,0,0,14,213.7,254.4)" />
<use xlink:href="#f6_ct" transform="matrix(14,0,0,14,227,254.4)" />
<use xlink:href="#f6_c3" transform="matrix(14,0,0,14,232.6,254.4)" />
<use xlink:href="#f6_bo" transform="matrix(14,0,0,14,247.3,254.4)" />
<use xlink:href="#f6_bz" transform="matrix(14,0,0,14,267.4,254.4)" />
<use xlink:href="#f6_c3" transform="matrix(14,0,0,14,280.7,254.4)" />
<use xlink:href="#f6_bb" transform="matrix(14,0,0,14,295.4,254.4)" />
<use xlink:href="#f6_cv" transform="matrix(14,0,0,14,308,254.4)" />
<use xlink:href="#f6_g" transform="matrix(14,0,0,14,319.3,254.4)" />
<use xlink:href="#f6_q" transform="matrix(14,0,0,14,325.2,254.4)" />
<use xlink:href="#f6_h" transform="matrix(14,0,0,14,336.8,254.4)" />
<use xlink:href="#f6_cc" transform="matrix(14,0,0,14,348.4,254.4)" />
<use xlink:href="#f6_d5" transform="matrix(14,0,0,14,360.3,254.4)" />
<use xlink:href="#f6_bw" transform="matrix(14,0,0,14,365.6,254.4)" />
<use xlink:href="#f6_cw" transform="matrix(14,0,0,14,377.2,254.3)" />
<use xlink:href="#f6_c3" transform="matrix(14,0,0,14,381.7,254.4)" />
<use xlink:href="#f6_bm" transform="matrix(14,0,0,14,396.4,254.4)" />
<use xlink:href="#f6_ct" transform="matrix(14,0,0,14,409.1,254.4)" />
<use xlink:href="#f6_c3" transform="matrix(14,0,0,14,420.4,254.4)" />
<use xlink:href="#f6_ct" transform="matrix(14,0,0,14,435.1,254.4)" />
<use xlink:href="#f6_c7" transform="matrix(14,0,0,14,440.7,254.4)" />
<use xlink:href="#f6_c3" transform="matrix(14,0,0,14,458.5,254.4)" />
<use xlink:href="#f6_ct" transform="matrix(14,0,0,14,473.2,254.4)" />
<use xlink:href="#f6_c7" transform="matrix(14,0,0,14,478.8,254.4)" />
<use xlink:href="#f6_c3" transform="matrix(14,0,0,14,496.5,254.4)" />
<use xlink:href="#f6_ct" transform="matrix(14,0,0,14,511.3,254.4)" />
<use xlink:href="#f6_c7" transform="matrix(14,0,0,14,516.9,254.4)" />
<use xlink:href="#f6_by" transform="matrix(14,0,0,14,221.4,287.6)" />
<use xlink:href="#f6_d5" transform="matrix(14,0,0,14,235.5,287.6)" />
<use xlink:href="#f6_n0" transform="matrix(14,0,0,14,235.4,287.6)" />
<use xlink:href="#f6_br" transform="matrix(14,0,0,14,254.2,287.6)" />
<use xlink:href="#f6_d4" transform="matrix(14,0,0,14,265.4,287.6)" />
<use xlink:href="#f6_bz" transform="matrix(14,0,0,14,271.6,287.6)" />
<use xlink:href="#f6_cw" transform="matrix(14,0,0,14,285.4,287.5)" />
<use xlink:href="#f6_bf" transform="matrix(14,0,0,14,284.9,287.6)" />
<use xlink:href="#f6_ct" transform="matrix(14,0,0,14,300.6,287.6)" />
<use xlink:href="#f6_bt" transform="matrix(14,0,0,14,311.9,287.6)" />
<use xlink:href="#f6_d4" transform="matrix(14,0,0,14,323.7,287.6)" />
<use xlink:href="#f6_bp" transform="matrix(14,0,0,14,329.3,287.6)" />
<use xlink:href="#f6_ct" transform="matrix(14,0,0,14,341.6,287.6)" />
<use xlink:href="#f6_c7" transform="matrix(14,0,0,14,347.2,287.6)" />
<use xlink:href="#f6_pc" transform="matrix(14,0,0,14,359.3,287.6)" />
<use xlink:href="#f6_pc" transform="matrix(14,0,0,14,363.6,287.6)" />
<use xlink:href="#f6_pc" transform="matrix(14,0,0,14,367.8,287.6)" />
<use xlink:href="#f6_pc" transform="matrix(14,0,0,14,372.1,287.6)" />
<use xlink:href="#f6_g" transform="matrix(14,0,0,14,376.4,287.6)" />
<use xlink:href="#f6_n8" transform="matrix(14,0,0,14,382.3,287.6)" />
<use xlink:href="#f6_h" transform="matrix(14,0,0,14,392.7,287.6)" />
<use xlink:href="#f6_al" transform="matrix(14,0,0,14,105.7,346)" />
<use xlink:href="#f6_c1" transform="matrix(14,0,0,14,121.6,346)" />
<use xlink:href="#f6_d4" transform="matrix(14,0,0,14,129.6,346)" />
<use xlink:href="#f6_bb" transform="matrix(14,0,0,14,135.6,346)" />
<use xlink:href="#f6_d4" transform="matrix(14,0,0,14,148.4,346)" />
<use xlink:href="#f6_c3" transform="matrix(14,0,0,14,148.2,346)" />
<use xlink:href="#f6_ct" transform="matrix(14,0,0,14,162.9,346)" />
<use xlink:href="#f6_bz" transform="matrix(14,0,0,14,174.2,346)" />
<use xlink:href="#f6_d4" transform="matrix(14,0,0,14,187.7,346)" />
<use xlink:href="#f6_b9" transform="matrix(14,0,0,14,193.2,346)" />
<use xlink:href="#f6_cw" transform="matrix(14,0,0,14,204.4,345.9)" />
<use xlink:href="#f6_lq" transform="matrix(14,0,0,14,208.7,346)" />
<use xlink:href="#f6_cc" transform="matrix(14,0,0,14,215.4,346)" />
<use xlink:href="#f6_ct" transform="matrix(14,0,0,14,227,346)" />
<use xlink:href="#f6_c1" transform="matrix(14,0,0,14,232.6,346)" />
<use xlink:href="#f6_bo" transform="matrix(14,0,0,14,241,346)" />
<use xlink:href="#f6_bz" transform="matrix(14,0,0,14,261,346)" />
<use xlink:href="#f6_c3" transform="matrix(14,0,0,14,274.4,346)" />
<use xlink:href="#f6_bb" transform="matrix(14,0,0,14,289.1,346)" />
<use xlink:href="#f6_cv" transform="matrix(14,0,0,14,301.7,346)" />
<use xlink:href="#f6_g" transform="matrix(14,0,0,14,313,346)" />
<use xlink:href="#f6_q" transform="matrix(14,0,0,14,318.9,346)" />
<use xlink:href="#f6_h" transform="matrix(14,0,0,14,330.5,346)" />
<use xlink:href="#f6_b9" transform="matrix(14,0,0,14,342,346)" />
<use xlink:href="#f6_c3" transform="matrix(14,0,0,14,357.5,346)" />
<use xlink:href="#f6_ly" transform="matrix(14,0,0,14,372.2,346)" />
<use xlink:href="#f6_c0" transform="matrix(14,0,0,14,383.2,346)" />
<use xlink:href="#f6_d8" transform="matrix(14,0,0,14,395.7,346)" />
<use xlink:href="#f6_c3" transform="matrix(14,0,0,14,407,346)" />
<use xlink:href="#f6_ct" transform="matrix(14,0,0,14,421.7,346)" />
<use xlink:href="#f6_c7" transform="matrix(14,0,0,14,427.4,346)" />
<use xlink:href="#f6_c3" transform="matrix(14,0,0,14,445.1,346)" />
<use xlink:href="#f6_ct" transform="matrix(14,0,0,14,459.8,346)" />
<use xlink:href="#f6_c7" transform="matrix(14,0,0,14,465.4,346)" />
<use xlink:href="#f6_c3" transform="matrix(14,0,0,14,483.2,346)" />
<use xlink:href="#f6_ct" transform="matrix(14,0,0,14,497.9,346)" />
<use xlink:href="#f6_c7" transform="matrix(14,0,0,14,503.5,346)" />
<use xlink:href="#f6_by" transform="matrix(14,0,0,14,215.7,379.3)" />
<use xlink:href="#f6_d4" transform="matrix(14,0,0,14,229.8,379.3)" />
<use xlink:href="#f6_n0" transform="matrix(14,0,0,14,229.7,379.3)" />
<use xlink:href="#f6_br" transform="matrix(14,0,0,14,248.5,379.3)" />
<use xlink:href="#f6_d4" transform="matrix(14,0,0,14,259.7,379.3)" />
<use xlink:href="#f6_bz" transform="matrix(14,0,0,14,265.8,379.3)" />
<use xlink:href="#f6_cw" transform="matrix(14,0,0,14,279.7,379.2)" />
<use xlink:href="#f6_bf" transform="matrix(14,0,0,14,279.2,379.3)" />
<use xlink:href="#f6_ct" transform="matrix(14,0,0,14,294.9,379.3)" />
<use xlink:href="#f6_bt" transform="matrix(14,0,0,14,306.2,379.3)" />
<use xlink:href="#f6_d4" transform="matrix(14,0,0,14,318,379.3)" />
<use xlink:href="#f6_bp" transform="matrix(14,0,0,14,323.5,379.3)" />
<use xlink:href="#f6_ct" transform="matrix(14,0,0,14,335.9,379.3)" />
<use xlink:href="#f6_c7" transform="matrix(14,0,0,14,341.5,379.3)" />
<use xlink:href="#f6_8l" transform="matrix(14,0,0,14,353.6,379.3)" />
<use xlink:href="#f6_pc" transform="matrix(14,0,0,14,373.4,379.3)" />
<use xlink:href="#f6_g" transform="matrix(14,0,0,14,383.3,379.3)" />
<use xlink:href="#f6_n8" transform="matrix(14,0,0,14,389.2,379.3)" />
<use xlink:href="#f6_h" transform="matrix(14,0,0,14,399.6,379.3)" />
<use xlink:href="#f6_al" transform="matrix(14,0,0,14,135.5,445.7)" />
<use xlink:href="#f6_c1" transform="matrix(14,0,0,14,151.4,445.7)" />
<use xlink:href="#f6_d4" transform="matrix(14,0,0,14,159.3,445.7)" />
<use xlink:href="#f6_bb" transform="matrix(14,0,0,14,165.4,445.7)" />
<use xlink:href="#f6_d4" transform="matrix(14,0,0,14,178.2,445.7)" />
<use xlink:href="#f6_c3" transform="matrix(14,0,0,14,178,445.7)" />
<use xlink:href="#f6_ct" transform="matrix(14,0,0,14,192.7,445.7)" />
<use xlink:href="#f6_bz" transform="matrix(14,0,0,14,204,445.7)" />
<use xlink:href="#f6_d4" transform="matrix(14,0,0,14,217.5,445.7)" />
<use xlink:href="#f6_bp" transform="matrix(14,0,0,14,223,445.7)" />
<use xlink:href="#f6_d5" transform="matrix(14,0,0,14,235.5,445.7)" />
<use xlink:href="#f6_c3" transform="matrix(14,0,0,14,235.3,445.7)" />
<use xlink:href="#f6_bo" transform="matrix(14,0,0,14,250.1,445.7)" />
<use xlink:href="#f6_bz" transform="matrix(14,0,0,14,270.1,445.7)" />
<use xlink:href="#f6_c3" transform="matrix(14,0,0,14,283.4,445.7)" />
<use xlink:href="#f6_bb" transform="matrix(14,0,0,14,298.1,445.7)" />
<use xlink:href="#f6_cv" transform="matrix(14,0,0,14,310.7,445.7)" />
<use xlink:href="#f6_g" transform="matrix(14,0,0,14,322,445.7)" />
<use xlink:href="#f6_q" transform="matrix(14,0,0,14,327.9,445.7)" />
<use xlink:href="#f6_h" transform="matrix(14,0,0,14,339.6,445.7)" />
<use xlink:href="#f6_bp" transform="matrix(14,0,0,14,345.4,445.7)" />
<use xlink:href="#f6_d4" transform="matrix(14,0,0,14,357.9,445.7)" />
<use xlink:href="#f6_c3" transform="matrix(14,0,0,14,357.7,445.7)" />
<use xlink:href="#f6_c3" transform="matrix(14,0,0,14,378.1,445.7)" />
<use xlink:href="#f6_ct" transform="matrix(14,0,0,14,392.8,445.7)" />
<use xlink:href="#f6_c7" transform="matrix(14,0,0,14,398.4,445.7)" />
<use xlink:href="#f6_c3" transform="matrix(14,0,0,14,416.2,445.7)" />
<use xlink:href="#f6_ct" transform="matrix(14,0,0,14,430.9,445.7)" />
<use xlink:href="#f6_c7" transform="matrix(14,0,0,14,436.5,445.7)" />
<use xlink:href="#f6_c3" transform="matrix(14,0,0,14,454.2,445.7)" />
<use xlink:href="#f6_ct" transform="matrix(14,0,0,14,469,445.7)" />
<use xlink:href="#f6_c7" transform="matrix(14,0,0,14,474.6,445.7)" />
<use xlink:href="#f6_by" transform="matrix(14,0,0,14,215.7,479)" />
<use xlink:href="#f6_d4" transform="matrix(14,0,0,14,229.8,479)" />
<use xlink:href="#f6_n0" transform="matrix(14,0,0,14,229.7,479)" />
<use xlink:href="#f6_br" transform="matrix(14,0,0,14,248.5,479)" />
<use xlink:href="#f6_d4" transform="matrix(14,0,0,14,259.7,479)" />
<use xlink:href="#f6_bz" transform="matrix(14,0,0,14,265.8,479)" />
<use xlink:href="#f6_cw" transform="matrix(14,0,0,14,279.7,478.9)" />
<use xlink:href="#f6_bf" transform="matrix(14,0,0,14,279.2,479)" />
<use xlink:href="#f6_ct" transform="matrix(14,0,0,14,294.9,479)" />
<use xlink:href="#f6_bt" transform="matrix(14,0,0,14,306.2,479)" />
<use xlink:href="#f6_d4" transform="matrix(14,0,0,14,318,479)" />
<use xlink:href="#f6_bp" transform="matrix(14,0,0,14,323.5,479)" />
<use xlink:href="#f6_ct" transform="matrix(14,0,0,14,335.9,479)" />
<use xlink:href="#f6_c7" transform="matrix(14,0,0,14,341.5,479)" />
<use xlink:href="#f6_8l" transform="matrix(14,0,0,14,353.6,479)" />
<use xlink:href="#f6_pc" transform="matrix(14,0,0,14,373.4,479)" />
<use xlink:href="#f6_g" transform="matrix(14,0,0,14,383.3,479)" />
<use xlink:href="#f6_n8" transform="matrix(14,0,0,14,389.2,479)" />
<use xlink:href="#f6_h" transform="matrix(14,0,0,14,399.6,479)" />
<use xlink:href="#f6_al" transform="matrix(14,0,0,14,127.5,545.4)" />
<use xlink:href="#f6_c1" transform="matrix(14,0,0,14,143.4,545.4)" />
<use xlink:href="#f6_d4" transform="matrix(14,0,0,14,151.3,545.4)" />
<use xlink:href="#f6_bb" transform="matrix(14,0,0,14,157.4,545.4)" />
<use xlink:href="#f6_d4" transform="matrix(14,0,0,14,170.1,545.4)" />
<use xlink:href="#f6_c3" transform="matrix(14,0,0,14,170,545.4)" />
<use xlink:href="#f6_ct" transform="matrix(14,0,0,14,184.7,545.4)" />
<use xlink:href="#f6_bz" transform="matrix(14,0,0,14,196,545.4)" />
<use xlink:href="#f6_d4" transform="matrix(14,0,0,14,209.5,545.4)" />
<use xlink:href="#f6_cb" transform="matrix(14,0,0,14,215,545.4)" />
<use xlink:href="#f6_d8" transform="matrix(14,0,0,14,229.9,545.4)" />
<use xlink:href="#f6_bt" transform="matrix(14,0,0,14,235.5,545.4)" />
<use xlink:href="#f6_bo" transform="matrix(14,0,0,14,247.2,545.4)" />
<use xlink:href="#f6_bz" transform="matrix(14,0,0,14,267.3,545.4)" />
<use xlink:href="#f6_c3" transform="matrix(14,0,0,14,280.6,545.4)" />
<use xlink:href="#f6_bb" transform="matrix(14,0,0,14,295.3,545.4)" />
<use xlink:href="#f6_cv" transform="matrix(14,0,0,14,307.9,545.4)" />
<use xlink:href="#f6_g" transform="matrix(14,0,0,14,319.2,545.4)" />
<use xlink:href="#f6_q" transform="matrix(14,0,0,14,325.1,545.4)" />
<use xlink:href="#f6_h" transform="matrix(14,0,0,14,336.7,545.4)" />
<use xlink:href="#f6_bf" transform="matrix(14,0,0,14,342.6,545.4)" />
<use xlink:href="#f6_j5" transform="matrix(14,0,0,14,358.3,545.4)" />
<use xlink:href="#f6_c1" transform="matrix(14,0,0,14,371.8,545.4)" />
<use xlink:href="#f6_c3" transform="matrix(14,0,0,14,385.8,545.4)" />
<use xlink:href="#f6_ct" transform="matrix(14,0,0,14,400.5,545.4)" />
<use xlink:href="#f6_c7" transform="matrix(14,0,0,14,406.2,545.4)" />
<use xlink:href="#f6_c3" transform="matrix(14,0,0,14,423.9,545.4)" />
<use xlink:href="#f6_ct" transform="matrix(14,0,0,14,438.6,545.4)" />
<use xlink:href="#f6_c7" transform="matrix(14,0,0,14,444.2,545.4)" />
<use xlink:href="#f6_c3" transform="matrix(14,0,0,14,462,545.4)" />
<use xlink:href="#f6_ct" transform="matrix(14,0,0,14,476.7,545.4)" />
<use xlink:href="#f6_c7" transform="matrix(14,0,0,14,482.3,545.4)" />
<use xlink:href="#f6_by" transform="matrix(14,0,0,14,215.7,578.6)" />
<use xlink:href="#f6_d4" transform="matrix(14,0,0,14,229.8,578.6)" />
<use xlink:href="#f6_n0" transform="matrix(14,0,0,14,229.7,578.6)" />
<use xlink:href="#f6_br" transform="matrix(14,0,0,14,248.5,578.6)" />
<use xlink:href="#f6_d4" transform="matrix(14,0,0,14,259.7,578.6)" />
<use xlink:href="#f6_bz" transform="matrix(14,0,0,14,265.8,578.6)" />
<use xlink:href="#f6_cw" transform="matrix(14,0,0,14,279.7,578.5)" />
<use xlink:href="#f6_bf" transform="matrix(14,0,0,14,279.2,578.6)" />
<use xlink:href="#f6_ct" transform="matrix(14,0,0,14,294.9,578.6)" />
<use xlink:href="#f6_bt" transform="matrix(14,0,0,14,306.2,578.6)" />
<use xlink:href="#f6_d4" transform="matrix(14,0,0,14,318,578.6)" />
<use xlink:href="#f6_bp" transform="matrix(14,0,0,14,323.5,578.6)" />
<use xlink:href="#f6_ct" transform="matrix(14,0,0,14,335.9,578.6)" />
<use xlink:href="#f6_c7" transform="matrix(14,0,0,14,341.5,578.6)" />
<use xlink:href="#f6_8l" transform="matrix(14,0,0,14,353.6,578.6)" />
<use xlink:href="#f6_pc" transform="matrix(14,0,0,14,373.4,578.6)" />
<use xlink:href="#f6_g" transform="matrix(14,0,0,14,383.3,578.6)" />
<use xlink:href="#f6_n8" transform="matrix(14,0,0,14,389.2,578.6)" />
<use xlink:href="#f6_h" transform="matrix(14,0,0,14,399.6,578.6)" />
<use xlink:href="#f6_al" transform="matrix(14,0,0,14,128.6,645.1)" />
<use xlink:href="#f6_c1" transform="matrix(14,0,0,14,144.5,645.1)" />
<use xlink:href="#f6_d4" transform="matrix(14,0,0,14,152.5,645.1)" />
<use xlink:href="#f6_bb" transform="matrix(14,0,0,14,158.5,645.1)" />
<use xlink:href="#f6_d4" transform="matrix(14,0,0,14,171.3,645.1)" />
<use xlink:href="#f6_c3" transform="matrix(14,0,0,14,171.2,645.1)" />
<use xlink:href="#f6_ct" transform="matrix(14,0,0,14,185.9,645.1)" />
<use xlink:href="#f6_bz" transform="matrix(14,0,0,14,197.2,645.1)" />
<use xlink:href="#f6_d4" transform="matrix(14,0,0,14,210.6,645.1)" />
<use xlink:href="#f6_cb" transform="matrix(14,0,0,14,216.2,645.1)" />
<use xlink:href="#f6_d4" transform="matrix(14,0,0,14,231.2,645.1)" />
<use xlink:href="#f6_bl" transform="matrix(14,0,0,14,231,645.1)" />
<use xlink:href="#f6_ct" transform="matrix(14,0,0,14,243.4,645.1)" />
<use xlink:href="#f6_bo" transform="matrix(14,0,0,14,249,645.1)" />
<use xlink:href="#f6_cv" transform="matrix(14,0,0,14,263.4,645.1)" />
<use xlink:href="#f6_bz" transform="matrix(14,0,0,14,274.7,645.1)" />
<use xlink:href="#f6_c3" transform="matrix(14,0,0,14,288,645.1)" />
<use xlink:href="#f6_bb" transform="matrix(14,0,0,14,302.7,645.1)" />
<use xlink:href="#f6_cv" transform="matrix(14,0,0,14,315.3,645.1)" />
<use xlink:href="#f6_g" transform="matrix(14,0,0,14,326.6,645.1)" />
<use xlink:href="#f6_q" transform="matrix(14,0,0,14,332.5,645.1)" />
<use xlink:href="#f6_h" transform="matrix(14,0,0,14,344.1,645.1)" />
<use xlink:href="#f6_bt" transform="matrix(14,0,0,14,350,645.1)" />
<use xlink:href="#f6_d8" transform="matrix(14,0,0,14,361.7,645.1)" />
<use xlink:href="#f6_bk" transform="matrix(14,0,0,14,367.3,645.1)" />
<use xlink:href="#f6_c3" transform="matrix(14,0,0,14,384.6,645.1)" />
<use xlink:href="#f6_ct" transform="matrix(14,0,0,14,399.3,645.1)" />
<use xlink:href="#f6_c7" transform="matrix(14,0,0,14,404.9,645.1)" />
<use xlink:href="#f6_c3" transform="matrix(14,0,0,14,422.6,645.1)" />
<use xlink:href="#f6_ct" transform="matrix(14,0,0,14,437.3,645.1)" />
<use xlink:href="#f6_c7" transform="matrix(14,0,0,14,443,645.1)" />
<use xlink:href="#f6_c3" transform="matrix(14,0,0,14,460.7,645.1)" />
<use xlink:href="#f6_ct" transform="matrix(14,0,0,14,475.4,645.1)" />
<use xlink:href="#f6_c7" transform="matrix(14,0,0,14,481,645.1)" />
<use xlink:href="#f6_by" transform="matrix(14,0,0,14,215.7,678.3)" />
<use xlink:href="#f6_d4" transform="matrix(14,0,0,14,229.8,678.3)" />
<use xlink:href="#f6_n0" transform="matrix(14,0,0,14,229.7,678.3)" />
<use xlink:href="#f6_br" transform="matrix(14,0,0,14,248.5,678.3)" />
<use xlink:href="#f6_d4" transform="matrix(14,0,0,14,259.7,678.3)" />
<use xlink:href="#f6_bz" transform="matrix(14,0,0,14,265.8,678.3)" />
<use xlink:href="#f6_cw" transform="matrix(14,0,0,14,279.7,678.2)" />
<use xlink:href="#f6_bf" transform="matrix(14,0,0,14,279.2,678.3)" />
<use xlink:href="#f6_ct" transform="matrix(14,0,0,14,294.9,678.3)" />
<use xlink:href="#f6_bt" transform="matrix(14,0,0,14,306.2,678.3)" />
<use xlink:href="#f6_d4" transform="matrix(14,0,0,14,318,678.3)" />
<use xlink:href="#f6_bp" transform="matrix(14,0,0,14,323.5,678.3)" />
<use xlink:href="#f6_ct" transform="matrix(14,0,0,14,335.9,678.3)" />
<use xlink:href="#f6_c7" transform="matrix(14,0,0,14,341.5,678.3)" />
<use xlink:href="#f6_8l" transform="matrix(14,0,0,14,353.6,678.3)" />
<use xlink:href="#f6_pc" transform="matrix(14,0,0,14,373.4,678.3)" />
<use xlink:href="#f6_g" transform="matrix(14,0,0,14,383.3,678.3)" />
<use xlink:href="#f6_n8" transform="matrix(14,0,0,14,389.2,678.3)" />
<use xlink:href="#f6_h" transform="matrix(14,0,0,14,399.6,678.3)" />
<use xlink:href="#f7_4r" transform="matrix(9,0,0,9,290.2,795.2)" />
<use xlink:href="#f8_t" transform="matrix(9,0,0,9,303,795.2)" />
<use xlink:href="#f8_n" transform="matrix(9,0,0,9,310.7,795.2)" />
<use xlink:href="#f7_4r" transform="matrix(9,0,0,9,321.3,795.2)" />
</g>
</g>
<image preserveAspectRatio="none" x="22" y="801" width="581" height="86" xlink:href="img/1.png"/>
<path d="M229.2,97.4H393v1.1H229.2V97.4Z" class="g1_99"/>
<image preserveAspectRatio="none" x="202" y="14" width="217" height="26" xlink:href="img/2.png"/>
<defs>
<path d="M874,-65L700,29V309H513V173L422,122c0,0,-90,31,-191,129c0,0,-100,97,-127,184l52,81H277l-2,240c0,0,0,77,-26,109c0,0,-1,0,-2,0c-8,0,-44,-1,-70,-22c0,0,-29,-24,-29,-61c0,0,0,-53,64,-101L125,610c0,0,-174,117,-174,238c0,0,0,78,57,133c0,0,59,55,146,55c0,0,132,0,244,-112c0,0,112,-113,112,-246V516H700V822H655L570,937l32,64h458l86,-115l-32,-64H842L944,749V-31L874,-65Z"
id="f5_by"
transform="scale(0.001,-0.001)"/>

<path d="M-272,872l-211,214c0,0,-64,61,-138,61c0,0,-70,0,-195,-74l-115,204c0,0,121,86,223,86c0,0,133,0,266,-155l156,-190l-84,209c0,0,-49,119,-100,170c0,0,-50,51,-129,51c0,0,-66,0,-165,-36l-92,243c0,0,105,41,189,41c0,0,240,0,375,-344L-143,923L-272,872Z"
id="f5_d5"
transform="scale(0.001,-0.001)"/>

<path d="M545,-97L35,405L87,542H295c0,0,1,5,1,280H0L-86,937l32,64H1135l86,-115l-32,-64H445L550,749V654c0,0,124,72,228,72c0,0,134,0,230,-98c0,0,95,-98,95,-228c0,0,0,-99,-62,-177c0,0,-62,-78,-178,-151L700,252c0,0,195,133,195,212c0,0,0,63,-67,63c0,0,-116,0,-411,-240L709,110V41L545,-97Z"
id="f5_n0"
transform="scale(0.001,-0.001)"/>

<path d="M1128,-65L953,29V322c0,0,-23,-9,-52,-9c0,0,-47,0,-102,25c0,0,11,-42,11,-83c0,0,0,-116,-78,-192c0,0,-78,-76,-203,-76c0,0,-129,0,-261,94c0,0,-132,95,-244,339l123,78c0,0,70,-150,146,-225c0,0,75,-76,168,-76c0,0,72,0,113,40c0,0,42,40,42,90c0,0,0,84,-77,115L387,350L249,556c0,0,86,77,199,83c0,0,119,73,119,163c0,0,0,25,-15,40c0,0,-4,0,-10,0c-19,0,-67,-3,-124,-33c0,0,-76,-39,-146,-106L142,872c0,0,61,65,140,107c0,0,79,42,158,42c0,0,121,0,216,-91c0,0,96,-91,96,-197c0,0,0,-96,-84,-186c0,0,62,-46,142,-46c0,0,88,0,143,52V822H834L749,937l32,64h994l86,-115l-32,-64H1557l102,-73V-31l-70,-34L1415,29V822H1095l103,-73V-31l-70,-34Z"
id="f5_am"
transform="scale(0.001,-0.001)"/>

<path d="M371,296c0,0,71,0,139,34c0,0,69,34,109,92v90c0,0,-72,36,-148,36c0,0,-84,0,-131,-47c0,0,-47,-47,-47,-111c0,0,0,-49,28,-89l50,-5ZM793,-65L619,29V134c0,0,-55,-27,-122,-27c0,0,-98,0,-207,48c0,0,-108,48,-182,132c0,0,-73,84,-73,188c0,0,0,113,83,191c0,0,84,78,212,78c0,0,41,0,84,-9L619,643V822H0L-86,937l32,64H978l85,-115l-32,-64H761L863,749V-31L793,-65Z"
id="f5_c7"
transform="scale(0.001,-0.001)"/>

<path d="M823,-49L733,8V339H445V191L371,160c0,0,-56,36,-120,105c0,0,-63,70,-89,131l41,59H313V735c0,0,0,99,-55,140c0,0,-3,1,-8,1c-16,0,-48,-3,-71,-23c0,0,-31,-26,-31,-66c0,0,0,-69,81,-113L189,620C189,620,31,720,31,828c0,0,0,61,45,99c0,0,46,37,109,37c0,0,96,0,173,-86c0,0,76,-87,79,-194V455H733V822H556l-46,76l14,31H998l45,-76l-13,-31H794l66,-58V-39L823,-49Z"
id="f6_by"
transform="scale(0.001,-0.001)"/>

<path d="M-214,860l-227,219c0,0,-73,70,-148,70c0,0,-67,0,-160,-58l-72,117c0,0,83,71,176,71c0,0,120,0,232,-124L-221,940l-102,294c0,0,-64,179,-189,179c0,0,-60,0,-133,-33l-60,125c0,0,84,47,164,47c0,0,200,0,281,-276L-150,901l-23,-15l-41,-26Z"
id="f6_d5"
transform="scale(0.001,-0.001)"/>

<path d="M527,-71L52,414l34,92H277c0,0,12,32,12,72V822H0l-45,76l14,31H940l45,-76L972,822H350l66,-55V570c0,0,146,98,247,98c0,0,95,0,167,-73c0,0,71,-72,71,-167c0,0,0,-77,-53,-142c0,0,-54,-64,-159,-136l-89,99c0,0,100,70,152,121c0,0,52,52,52,105c0,0,0,34,-23,60c0,0,-22,26,-72,26c0,0,-139,0,-434,-252L610,34L611,8L527,-71Z"
id="f6_n0"
transform="scale(0.001,-0.001)"/>

<path d="M959,-49L869,8V367c0,0,-32,-13,-64,-13c0,0,-50,0,-110,25c0,0,23,-52,23,-109c0,0,0,-103,-70,-170c0,0,-70,-66,-182,-66c0,0,-110,0,-222,82c0,0,-111,83,-213,293l68,42c0,0,72,-155,152,-231c0,0,81,-76,178,-76c0,0,83,0,131,49c0,0,48,48,48,117c0,0,0,54,-30,100c0,0,-31,47,-91,65L325,391L257,512c0,0,68,53,156,56c0,0,140,72,140,179c0,0,0,69,-52,99c0,0,-4,1,-11,1c-19,0,-66,-4,-123,-30c0,0,-78,-35,-142,-96L150,823c0,0,119,117,253,117c0,0,98,0,175,-71c0,0,77,-70,77,-159c0,0,0,-103,-94,-180c0,0,39,-23,73,-56c0,0,52,-22,109,-22c0,0,77,0,126,38V822H727l-46,76l14,31h840l46,-76l-13,-31H1332l66,-58V-39l-37,-10L1271,8V822H930l66,-58V-39L959,-49Z"
id="f6_am"
transform="scale(0.001,-0.001)"/>

<path d="M325,240c0,0,77,0,154,35c0,0,77,35,120,99V500c0,0,-118,73,-222,73c0,0,-97,0,-151,-54c0,0,-53,-53,-53,-128c0,0,0,-73,49,-125c0,0,38,-26,103,-26ZM689,-49L599,8V199c0,0,-73,-65,-179,-65c0,0,-134,0,-252,96c0,0,-118,95,-118,221c0,0,0,102,78,171c0,0,78,69,190,69c0,0,38,0,75,-10L599,582V822H0l-45,76l14,31H863l46,-76L895,822H660l66,-58V-39L689,-49Z"
id="f6_c7"
transform="scale(0.001,-0.001)"/>

<path d="M347,-57C347,-57,66,211,66,394c0,0,0,98,74,164c0,0,74,65,225,65H616V822H0l-45,76l14,31H880l46,-76L912,822H677l66,-58V-39L706,-49L616,8V500H428c0,0,-239,0,-239,-161c0,0,0,-136,214,-343L347,-57Z"
id="f6_bp"
transform="scale(0.001,-0.001)"/>

<path d="M-234,-413c0,0,-210,0,-488,322l54,49c0,0,119,-128,209,-193c0,0,90,-65,177,-65c0,0,72,0,113,40c0,0,42,39,42,91c0,0,0,75,-78,106L-323,-181l-90,98c0,0,63,95,167,95c0,0,90,0,155,-69c0,0,66,-70,66,-164c0,0,0,-85,-60,-139c0,0,-61,-53,-149,-53Z"
id="f6_cw"
transform="scale(0.001,-0.001)"/>

<path d="M228,-49L138,8V822H0l-45,76l14,31H119L-33,1144c0,0,-70,92,-157,92c0,0,-69,0,-159,-58l-72,118c0,0,89,73,181,73c0,0,140,0,257,-170L205,929H402l46,-76L434,822H199l65,-58V-39L228,-49Z"
id="f6_d8"
transform="scale(0.001,-0.001)"/>

<path d="M675,-274L602,21C602,21,550,3,498,3C498,3,347,3,210,118C210,118,73,232,73,373c0,0,0,113,84,184c0,0,84,71,222,72H524V822H0l-45,76l14,31H834l46,-76L866,822H585l66,-58V504l-3,2l3,-3H408c0,0,-95,0,-154,-53c0,0,-58,-53,-58,-132c0,0,0,-49,27,-100c0,0,28,-50,83,-84c0,0,44,-15,96,-15c0,0,91,0,160,46L535,303l101,48L773,188c0,0,-8,-28,-34,-66c0,0,-27,-38,-62,-64L813,-221L675,-274Z"
id="f6_br"
transform="scale(0.001,-0.001)"/>

<path d="M-214,863l-199,281c0,0,-70,92,-157,92c0,0,-69,0,-159,-58l-72,118c0,0,89,73,180,73c0,0,141,0,258,-170L-155,901l-59,-38Z"
id="f6_d4"
transform="scale(0.001,-0.001)"/>

<path d="M689,445V822H286l65,-58l8,-319ZM779,-49L689,8V328H370V180L296,150c0,0,-56,35,-120,104c0,0,-63,70,-89,131l41,60H238L223,822H0l-45,76l14,31H953l46,-76L985,822H750l66,-58V-39L779,-49Z"
id="f6_bz"
transform="scale(0.001,-0.001)"/>

<path d="M900,298c0,0,32,73,32,159c0,0,0,110,-38,160c0,0,-40,31,-81,31c0,0,-48,0,-80,-35c0,0,-33,-35,-33,-89c0,0,0,-118,200,-226ZM588,-60c0,0,-154,0,-274,93c0,0,-120,94,-120,207c0,0,0,50,28,92C222,332,61,440,61,552c0,0,0,71,56,122c0,0,56,50,169,50H417l64,-98L463,600H333c0,0,-157,-1,-157,-99c0,0,0,-59,88,-124c0,0,68,52,164,52c0,0,38,0,79,-9l71,-88L558,299c0,0,-46,10,-81,10c0,0,-75,0,-116,-36c0,0,-40,-36,-40,-88c0,0,0,-78,73,-130c0,0,54,-17,109,-17c0,0,114,0,211,54c0,0,97,53,154,145c0,0,-156,96,-223,173c0,0,-67,77,-67,155c0,0,0,72,48,124c0,0,48,52,126,55v78H0l-45,76l14,31H1123l46,-76l-14,-31H805l66,-58V717c0,0,76,-40,124,-124c0,0,47,-84,47,-193c0,0,0,-188,-133,-324C909,76,776,-60,588,-60Z"
id="f6_bf"
transform="scale(0.001,-0.001)"/>

<path d="M228,-49L138,8V822H0l-45,76l14,31H402l46,-76L434,822H199l65,-58V-39L228,-49Z"
id="f6_ct"
transform="scale(0.001,-0.001)"/>

<path d="M663,-49L573,8V445H299V280L226,251c0,0,-105,99,-162,238l63,72H573V822H0l-45,76l14,31H837l46,-76L869,822H634l66,-58V-39L663,-49Z"
id="f6_bt"
transform="scale(0.001,-0.001)"/>

<path d="M290,-236c0,0,-253,348,-253,685c0,0,0,342,270,669l80,-39c0,0,-207,-311,-207,-622c0,0,0,-326,193,-652l-83,-41Z"
id="f6_g"
transform="scale(0.001,-0.001)"/>

<path d="M634,-49L249,296c0,0,-1,0,-3,0c-11,0,-48,1,-90,15c0,0,-51,16,-67,36l49,165l50,12l84,-98c0,0,125,31,191,104c0,0,66,73,66,165c0,0,0,109,-95,170c0,0,-2,0,-6,0C397,865,262,858,121,738L46,848c0,0,52,47,127,82c0,0,75,34,152,34c0,0,130,0,226,-94c0,0,95,-94,95,-218c0,0,0,-107,-77,-199c0,0,-77,-92,-216,-134L697,26L698,0L634,-49Z"
id="f6_n8"
transform="scale(0.001,-0.001)"/>

<path d="M130,-236l-83,41c0,0,193,326,193,652c0,0,0,311,-206,622l79,39c0,0,270,-327,270,-669c0,0,0,-337,-253,-685Z"
id="f6_h"
transform="scale(0.001,-0.001)"/>

<path d="M108,-222l-44,58c0,0,96,81,104,164L89,61c0,0,12,83,93,122c0,0,50,-15,79,-55c0,0,29,-39,29,-90c0,0,0,-69,-48,-142c0,0,-48,-72,-134,-118Z"
id="f6_k"
transform="scale(0.001,-0.001)"/>

<path d="M825,-49L735,8V217c0,0,-86,-72,-197,-72c0,0,-130,0,-238,91c0,0,-107,91,-107,204c0,0,0,55,27,105H55L12,616l14,30H574l46,-76L607,539H396c0,0,-78,-49,-78,-162c0,0,0,-70,40,-111c0,0,39,-15,94,-15c0,0,84,0,163,41c0,0,79,41,120,121V822H0l-45,76l14,31H999l46,-76l-14,-31H796l66,-58V-39L825,-49Z"
id="f6_be"
transform="scale(0.001,-0.001)"/>

<path d="M228,-49L138,8V822H0l-45,76l14,31H70L-65,1033c0,0,-90,65,-157,65c0,0,-67,0,-151,-53l-72,118c0,0,78,65,163,65c0,0,116,0,246,-120L153,930L46,1201c0,0,-71,166,-187,166c0,0,-52,0,-128,-33l-60,125c0,0,78,46,159,46c0,0,193,0,283,-271L215,929H402l46,-76L434,822H199l65,-58V-39L228,-49Z"
id="f6_d9"
transform="scale(0.001,-0.001)"/>

<path d="M799,475V822H350l66,-55V564c0,0,0,-43,-25,-89ZM527,-71L52,414l34,92H277c0,0,12,32,12,72V822H0l-45,76l14,31H1063l46,-76l-14,-31H860l66,-58V-39L889,-49L799,8V370H315L264,316L610,34L611,8L527,-71Z"
id="f6_cb"
transform="scale(0.001,-0.001)"/>

<path d="M449,79c0,0,103,0,168,61c0,0,66,60,66,149c0,0,0,93,-84,186H420c0,0,-107,0,-164,-50c0,0,-57,-51,-57,-126c0,0,0,-108,99,-184c0,0,81,-36,151,-36Zm67,-96c0,0,-168,0,-301,109C215,92,81,202,81,350c0,0,0,114,83,182c0,0,84,68,229,68H507V822H0l-45,76l14,31H883l46,-76L915,822H568l66,-58V532c0,0,87,-64,130,-144c0,0,43,-79,43,-157c0,0,0,-109,-81,-179c0,0,-81,-69,-210,-69Z"
id="f6_bl"
transform="scale(0.001,-0.001)"/>

<path d="M845,-49L755,8V513H497c0,0,61,-45,93,-110c0,0,33,-64,33,-128c0,0,0,-90,-58,-144c0,0,-59,-53,-143,-53c0,0,-133,0,-234,139C188,217,87,356,20,596l76,24c0,0,60,-201,127,-306c0,0,67,-105,160,-105c0,0,57,0,91,36c0,0,33,36,33,91c0,0,0,84,-73,159L295,558v71H755V822H0l-45,76l14,31H1019l46,-76l-14,-31H816l66,-58V-39L845,-49Z"
id="f6_bg"
transform="scale(0.001,-0.001)"/>

<path d="M727,-49L637,8V822H278l66,-58V226L270,196c0,0,-64,36,-122,98c0,0,-58,62,-79,122l43,59H217V822H0l-45,76l14,31H901l46,-76L933,822H698l66,-58V-39L727,-49Z"
id="f6_bb"
transform="scale(0.001,-0.001)"/>

<path d="M228,-49L138,8V822H0l-45,76l14,31H134c0,0,-91,93,-91,200c0,0,0,109,92,174c0,0,93,66,253,66c0,0,186,0,398,-89c0,0,212,-90,430,-264l-49,-47c0,0,-424,285,-727,285c0,0,-125,0,-201,-49c0,0,-76,-48,-76,-137c0,0,0,-67,52,-139H402l46,-76L434,822H199l65,-58V-39L228,-49Z"
id="f6_nu"
transform="scale(0.001,-0.001)"/>

<path d="M342,324c0,0,45,0,75,34c0,0,31,33,31,100V822H165l66,-58V390c0,0,32,-66,111,-66ZM853,-49L762,8V822H509l65,-58V455c0,0,0,-134,-51,-185c0,0,-52,-52,-127,-52c0,0,-98,0,-195,99c0,0,-97,99,-97,209V822H0l-45,76l14,31H1027l46,-76l-14,-31H823l66,-58V-39L853,-49Z"
id="f6_bo"
transform="scale(0.001,-0.001)"/>

<path d="M374,248c0,0,77,0,149,36c0,0,71,37,110,107V822H284c0,0,138,-96,138,-208c0,0,0,-151,-228,-192c0,0,29,-104,89,-158c0,0,41,-16,91,-16ZM723,-49L633,8V200c0,0,-69,-56,-170,-56c0,0,-122,0,-240,94c0,0,-118,94,-179,237l20,55c0,0,133,17,187,44c0,0,55,28,55,84c0,0,0,45,-30,81c0,0,-30,36,-99,83H0l-45,76l14,31H897l46,-76L929,822H694l65,-58V-39L723,-49Z"
id="f6_c0"
transform="scale(0.001,-0.001)"/>

<path d="M0,1062c0,0,-26,11,-60,36c0,0,-34,26,-51,49c0,0,39,81,91,110c0,0,60,-23,106,-85c0,0,-28,-70,-86,-110Z"
id="f6_dj"
transform="scale(0.001,-0.001)"/>

<path d="M413,-59C413,-59,53,193,53,416c0,0,0,97,66,164c0,0,66,66,156,66c0,0,61,0,110,-30L487,507c0,0,92,126,257,126l35,-2V822H0l-45,76l14,31H1043l46,-76l-13,-31H840l66,-58V-39L869,-49L779,8V547c0,0,-101,-5,-165,-90c0,0,-64,-86,-70,-222L507,225l-90,73c0,0,5,79,35,151c0,0,-59,66,-128,66c0,0,-57,0,-100,-38c0,0,-44,-39,-44,-109c0,0,0,-165,284,-360L413,-59Z"
id="f6_c3"
transform="scale(0.001,-0.001)"/>

<path d="M226,-49c0,0,-66,24,-102,78c0,0,32,69,82,101c0,0,55,-20,100,-80c0,0,-26,-66,-80,-99Z"
id="f6_pc"
transform="scale(0.001,-0.001)"/>

<path d="M95,0L67,98L422,497c0,0,130,154,130,259c0,0,0,63,-40,111c0,0,-40,48,-121,48c0,0,-75,0,-171,-29L193,695l-88,2c0,0,-13,82,-13,165l1,65c0,0,159,97,315,97c0,0,122,0,207,-78c0,0,85,-77,85,-193c0,0,0,-67,-34,-133c0,0,-33,-67,-165,-217L237,121l4,-14l373,21l49,136l83,-12C746,252,732,99,704,0Z"
id="f6_q"
transform="scale(0.001,-0.001)"/>

<path d="M959,-49L869,8V367c0,0,-32,-13,-64,-13c0,0,-50,0,-110,25c0,0,23,-52,23,-109c0,0,0,-103,-70,-170c0,0,-70,-66,-182,-66c0,0,-110,0,-222,82c0,0,-111,83,-213,293l68,42c0,0,72,-155,152,-231c0,0,81,-76,178,-76c0,0,83,0,131,49c0,0,48,48,48,117c0,0,0,54,-30,100c0,0,-31,47,-91,65L325,391L257,512c0,0,68,53,156,56c0,0,140,72,140,179c0,0,0,69,-52,99c0,0,-4,1,-11,1c-19,0,-66,-4,-123,-30c0,0,-78,-35,-142,-96L150,823c0,0,119,117,253,117c0,0,98,0,175,-71c0,0,77,-70,77,-159c0,0,0,-103,-94,-180c0,0,39,-23,73,-56c0,0,52,-22,109,-22c0,0,77,0,126,38V822H727l-46,76l14,31h439l45,-76l-13,-31H930l66,-58V-39L959,-49Z"
id="f6_al"
transform="scale(0.001,-0.001)"/>

<path d="M527,-71L52,414l34,92H277c0,0,12,32,12,72V822H0l-45,76l14,31H599l46,-76L631,822H350l66,-55V564c0,0,0,-96,-152,-248L610,34L611,8L527,-71Z"
id="f6_c1"
transform="scale(0.001,-0.001)"/>

<path d="M830,-253l-123,66c0,0,31,47,31,78c0,0,0,44,-64,84L353,130c0,0,-234,113,-234,325V822H0l-45,76l14,31H848l46,-76L880,822H655l68,-58V561c0,0,0,-176,-41,-241c0,0,-40,-65,-161,-106l-49,82l124,69V822H180l66,-58V283L646,92c0,0,126,-60,176,-110c0,0,50,-51,50,-115c0,0,0,-62,-42,-120Z"
id="f6_ax"
transform="scale(0.001,-0.001)"/>

<path d="M283,260c0,0,122,0,209,113V513c0,0,-90,51,-160,51c0,0,-80,0,-129,-50c0,0,-49,-50,-49,-118c0,0,0,-60,35,-110c0,0,45,-26,94,-26ZM582,-49L492,8V211c0,0,-63,-54,-141,-54c0,0,-113,0,-213,92c0,0,-100,92,-100,205c0,0,0,93,69,157c0,0,69,64,162,64c0,0,32,0,64,-9L492,590V822H0l-45,76l14,31H1108l45,-76l-13,-31H553l66,-58V524c0,0,91,89,192,89c0,0,98,0,171,-79c0,0,72,-79,72,-186c0,0,0,-178,-224,-330L736,124c0,0,219,153,219,269c0,0,0,44,-26,75c0,0,-26,32,-81,32c0,0,-109,0,-229,-155V-39L582,-49Z"
id="f6_b9"
transform="scale(0.001,-0.001)"/>

<path d="M228,-49L138,8V822H0l-45,76l14,31H138c0,0,-109,342,-284,342c0,0,-62,0,-102,-40c0,0,-40,-39,-40,-93c0,0,0,-61,51,-134l-42,-32c0,0,-128,113,-128,226c0,0,0,79,60,136c0,0,61,56,154,56c0,0,137,0,249,-125c0,0,112,-125,169,-336H402l46,-76L434,822H199l65,-58V-39L228,-49Z"
id="f6_cv"
transform="scale(0.001,-0.001)"/>

<path d="M688,-243c0,0,-256,53,-408,173c0,0,-152,119,-152,270c0,0,0,101,68,171c0,0,-101,84,-101,179c0,0,0,64,53,112c0,0,54,47,191,47H587V822H0l-45,76l14,31H830l45,-76L862,822H640l66,-58V585H362c0,0,-159,-1,-159,-92c0,0,0,-41,46,-80c0,0,76,47,183,47c0,0,135,0,230,-76c0,0,96,-75,96,-187C758,197,758,67,629,2L545,104c0,0,49,30,81,75c0,0,32,44,32,82c0,0,0,16,-4,26c0,0,-64,58,-167,58c0,0,-97,0,-166,-50v-2c0,0,-67,-52,-67,-131c0,0,0,-116,132,-199c0,0,132,-84,334,-132l-32,-74Z"
id="f6_cc"
transform="scale(0.001,-0.001)"/>

<path d="M368,344c0,0,90,0,155,73V822H150l67,-58V438c0,0,46,-94,151,-94ZM613,-49L523,8V251c0,0,-48,-28,-103,-28c0,0,-122,0,-227,112C193,335,89,448,89,590V822H0l-45,76l14,31H1150l46,-76l-13,-31H584l65,-58V533c0,0,101,95,211,95c0,0,98,0,170,-79c0,0,73,-78,73,-185c0,0,0,-179,-225,-330L785,139c0,0,219,153,219,269c0,0,0,43,-26,75c0,0,-26,32,-80,32c0,0,-120,0,-249,-159V-39L613,-49Z"
id="f6_bw"
transform="scale(0.001,-0.001)"/>

<path d="M548,-57c0,0,-122,0,-243,81c0,0,-122,81,-252,280l57,41C110,345,283,64,498,64c0,0,92,0,153,49c0,0,61,49,61,121c0,0,0,46,-28,84L440,237c0,0,-73,11,-139,55c0,0,-66,44,-105,105c0,0,-40,61,-40,119c0,0,0,72,62,125c0,0,62,53,184,53H625V822H0l-45,76l14,31H906l46,-76L938,822H678l66,-58V562H431c0,0,-164,0,-164,-99c0,0,0,-55,57,-102l261,82c0,0,104,-21,172,-98c0,0,68,-78,68,-171c0,0,0,-99,-76,-166c0,0,-77,-65,-201,-65Z"
id="f6_bm"
transform="scale(0.001,-0.001)"/>

<path d="M266,150c0,0,-57,35,-120,104c0,0,-63,70,-89,131l41,60H211L194,822H0l-45,76l14,31H587l46,-76L619,822H255l66,-58l7,-319H688L721,328H339V180L266,150Z"
id="f6_lq"
transform="scale(0.001,-0.001)"/>

<path d="M513,460c0,0,61,81,61,179c0,0,0,87,-45,143c0,0,-45,57,-116,57c0,0,-63,0,-102,-43c0,0,-39,-43,-39,-110c0,0,0,-90,68,-151c0,0,68,-61,173,-75ZM581,-83L278,167l-41,-4c0,0,-99,0,-130,37l47,168l51,12l78,-79c0,0,110,40,183,105c0,0,-141,23,-231,107c0,0,-90,84,-90,193c0,0,0,69,37,116H0l-45,76l14,31H798l45,-76L830,822H588c0,0,51,-44,75,-109c0,0,25,-64,25,-122c0,0,0,-105,-81,-213c0,0,-80,-108,-240,-176L658,18l2,-25L581,-83Z"
id="f6_ly"
transform="scale(0.001,-0.001)"/>

<path d="M254,-26c0,0,-84,16,-116,92c0,0,13,84,97,127c0,0,100,-36,112,-110C347,83,324,6,254,-26Zm458,0c0,0,-84,16,-116,92c0,0,14,84,98,127c0,0,99,-37,111,-110C805,83,782,6,712,-26Zm458,0c0,0,-84,16,-116,92c0,0,14,84,98,127c0,0,99,-36,111,-110c0,0,-22,-77,-93,-109Z"
id="f6_8l"
transform="scale(0.001,-0.001)"/>

<path d="M438,-57c0,0,-264,248,-264,428c0,0,0,74,43,130H57L11,578l13,30H700V822H0l-45,76l14,31H964l46,-76L996,822H761l66,-58V-39L790,-49L700,8V498H519c0,0,-229,0,-229,-159c0,0,0,-145,205,-343L438,-57Z"
id="f6_j5"
transform="scale(0.001,-0.001)"/>

<path d="M487,-7c0,0,-88,0,-185,46c0,0,-97,47,-163,130c0,0,-66,83,-66,185c0,0,0,109,80,177c0,0,79,68,234,68H504V822H0l-45,76l14,31H827l45,-76L859,822H565l66,-58V474l-3,1l3,-3H396c0,0,-100,0,-152,-47c0,0,-53,-48,-53,-119c0,0,0,-104,93,-178c0,0,60,-20,118,-20c0,0,81,0,156,36c0,0,76,35,123,99l92,-99C773,144,723,70,645,31C645,31,567,-7,487,-7Z"
id="f6_bk"
transform="scale(0.001,-0.001)"/>

<path d="M725,307c0,0,-95,0,-218,78c0,0,-123,78,-188,78c0,0,-54,0,-95,-34c0,0,-41,-34,-73,-100L93,362c0,0,38,88,101,146c0,0,63,59,148,59c0,0,90,0,214,-78c0,0,124,-79,188,-79c0,0,63,0,106,34c0,0,42,33,85,104l60,-40c0,0,-32,-66,-101,-134c0,0,-70,-67,-169,-67Z"
id="f7_4r"
transform="scale(0.001,-0.001)"/>

<path d="M420,489c0,0,93,0,153,65c0,0,60,65,60,181c0,0,0,116,-62,184c0,0,-61,68,-148,68c0,0,-90,0,-156,-74c0,0,-66,-73,-66,-189c0,0,0,-105,63,-170c0,0,63,-65,156,-65ZM391,-18c0,0,-128,0,-209,71c0,0,-82,71,-98,200l129,12c0,0,17,-91,63,-132c0,0,46,-41,118,-41c0,0,62,0,109,28c0,0,47,29,76,76c0,0,30,47,50,128c0,0,20,80,20,164c0,0,0,9,-1,27c0,0,-40,-65,-110,-105c0,0,-69,-39,-151,-39c0,0,-135,0,-229,98c0,0,-94,99,-94,260c0,0,0,166,98,268c0,0,98,101,245,101c0,0,107,0,195,-57c0,0,89,-58,134,-164c0,0,46,-106,46,-308c0,0,0,-209,-45,-334C737,235,691,111,602,46c0,0,-90,-64,-211,-64Z"
id="f8_t"
transform="scale(0.001,-0.001)"/>

<path d="M412,-18c0,0,-144,0,-239,85c0,0,-95,86,-108,222l133,18c0,0,24,-114,79,-164c0,0,55,-50,135,-50c0,0,96,0,161,65c0,0,65,66,65,163c0,0,0,92,-61,152c0,0,-60,60,-153,60c0,0,-38,0,-95,-15l15,119c0,0,13,-2,21,-2c0,0,86,0,155,45c0,0,69,44,69,137c0,0,0,74,-50,122c0,0,-50,49,-129,49c0,0,-79,0,-131,-50c0,0,-52,-49,-67,-147L78,815c0,0,25,135,112,209c0,0,87,74,217,74c0,0,89,0,164,-38c0,0,76,-39,116,-105c0,0,40,-66,40,-141c0,0,0,-70,-39,-129c0,0,-38,-58,-112,-92c0,0,97,-22,151,-93c0,0,53,-70,53,-176c0,0,0,-143,-104,-243c0,0,-105,-99,-264,-99Z"
id="f8_n"
transform="scale(0.001,-0.001)"/>


</defs>
</svg>