<?xml version="1.0" encoding="UTF-8" standalone="no"?>
<!DOCTYPE svg PUBLIC "-//W3C//DTD SVG 1.1//EN"
"http://www.w3.org/Graphics/SVG/1.1/DTD/svg11.dtd">
<svg viewBox="0 0 641 910" version="1.1" xmlns="http://www.w3.org/2000/svg" xmlns:xlink="http://www.w3.org/1999/xlink">
<defs>
<clipPath id="c0_14"><path d="M0,909.8V0H641.7V909.8Z"/></clipPath>
<clipPath id="c1_14"><path d="M0,908.6V0H641.7V908.6Z"/></clipPath>
<style type="text/css"><![CDATA[
.g0_14{
fill: #FFFFFF;
}
.g1_14{
}
]]></style>
</defs>
<path d="M0,0H641.7V909.8H0V0Z" class="g0_14"/>
<path d="M0,0H641.7V909.8H0V0Z" class="g0_14"/>
<g clip-path="url(#c0_14)">
<path d="M0,-6368.4H641.7V100077.1H0V-6368.4Z" class="g0_14"/>
</g>
<path d="M0,0H641.7V908.6H0V0Z" class="g0_14"/>
<path d="M19.5,60.7H602.7v1.2H19.5V60.7Z" class="g1_14"/>
<g clip-path="url(#c1_14)">
<path d="M0,61.9H641.7V909.8H0V61.9Z" class="g0_14"/>
<g fill="#000000" >
<use xlink:href="#f5_bz" transform="matrix(14,0,0,14,265,96.3)" />
<use xlink:href="#f5_dj" transform="matrix(14,0,0,14,272.9,96.4)" />
<use xlink:href="#f5_bb" transform="matrix(14,0,0,14,279.6,96.3)" />
<use xlink:href="#f5_c3" transform="matrix(14,0,0,14,293.8,96.3)" />
<use xlink:href="#f5_br" transform="matrix(14,0,0,14,315.8,96.3)" />
<use xlink:href="#f5_ob" transform="matrix(14,0,0,14,328.8,96.3)" />
<use xlink:href="#f5_c7" transform="matrix(14,0,0,14,335.3,96.3)" />
<use xlink:href="#f5_d8" transform="matrix(14,0,0,14,349,96.3)" />
<use xlink:href="#f6_br" transform="matrix(14,0,0,14,190.5,129.5)" />
<use xlink:href="#f6_ob" transform="matrix(14,0,0,14,202.2,129.5)" />
<use xlink:href="#f6_c7" transform="matrix(14,0,0,14,207.8,129.5)" />
<use xlink:href="#f6_d8" transform="matrix(14,0,0,14,219.9,129.5)" />
<use xlink:href="#f6_c1" transform="matrix(14,0,0,14,231.2,129.5)" />
<use xlink:href="#f6_d4" transform="matrix(14,0,0,14,239.1,129.5)" />
<use xlink:href="#f6_br" transform="matrix(14,0,0,14,245.2,129.5)" />
<use xlink:href="#f6_ob" transform="matrix(14,0,0,14,256.9,129.5)" />
<use xlink:href="#f6_c7" transform="matrix(14,0,0,14,262.5,129.5)" />
<use xlink:href="#f6_d8" transform="matrix(14,0,0,14,274.6,129.5)" />
<use xlink:href="#f6_e6" transform="matrix(14,0,0,14,285.9,129.5)" />
<use xlink:href="#f6_by" transform="matrix(14,0,0,14,298,129.5)" />
<use xlink:href="#f6_cw" transform="matrix(14,0,0,14,312.4,129.4)" />
<use xlink:href="#f6_bz" transform="matrix(14,0,0,14,317.6,129.5)" />
<use xlink:href="#f6_ct" transform="matrix(14,0,0,14,330.9,129.5)" />
<use xlink:href="#f6_dj" transform="matrix(14,0,0,14,331.1,129.9)" />
<use xlink:href="#f6_bb" transform="matrix(14,0,0,14,336.5,129.5)" />
<use xlink:href="#f6_nu" transform="matrix(14,0,0,14,349.2,129.5)" />
<use xlink:href="#f6_c3" transform="matrix(14,0,0,14,354.8,129.5)" />
<use xlink:href="#f6_b9" transform="matrix(14,0,0,14,369.5,129.5)" />
<use xlink:href="#f6_br" transform="matrix(14,0,0,14,390.6,129.5)" />
<use xlink:href="#f6_ob" transform="matrix(14,0,0,14,402.3,129.5)" />
<use xlink:href="#f6_c7" transform="matrix(14,0,0,14,407.9,129.5)" />
<use xlink:href="#f6_d8" transform="matrix(14,0,0,14,420,129.5)" />
<use xlink:href="#f6_k" transform="matrix(14,0,0,14,425.6,129.5)" />
<use xlink:href="#f6_am" transform="matrix(14,0,0,14,148.1,162.7)" />
<use xlink:href="#f6_c1" transform="matrix(14,0,0,14,169.6,162.7)" />
<use xlink:href="#f6_bp" transform="matrix(14,0,0,14,178,162.7)" />
<use xlink:href="#f6_cv" transform="matrix(14,0,0,14,190.3,162.7)" />
<use xlink:href="#f6_ap" transform="matrix(14,0,0,14,201.6,162.7)" />
<use xlink:href="#f6_bp" transform="matrix(14,0,0,14,213,162.7)" />
<use xlink:href="#f6_ct" transform="matrix(14,0,0,14,225.3,162.7)" />
<use xlink:href="#f6_c1" transform="matrix(14,0,0,14,230.9,162.7)" />
<use xlink:href="#f6_cv" transform="matrix(14,0,0,14,239.3,162.7)" />
<use xlink:href="#f6_bt" transform="matrix(14,0,0,14,244.9,162.7)" />
<use xlink:href="#f6_d4" transform="matrix(14,0,0,14,256.7,162.7)" />
<use xlink:href="#f6_bx" transform="matrix(14,0,0,14,262.3,162.7)" />
<use xlink:href="#f6_n4" transform="matrix(14,0,0,14,274.6,162.7)" />
<use xlink:href="#f6_nt" transform="matrix(14,0,0,14,291.8,162.7)" />
<use xlink:href="#f6_be" transform="matrix(14,0,0,14,297.5,162.7)" />
<use xlink:href="#f6_c1" transform="matrix(14,0,0,14,311.4,162.7)" />
<use xlink:href="#f6_dj" transform="matrix(14,0,0,14,316.3,163.1)" />
<use xlink:href="#f6_bg" transform="matrix(14,0,0,14,319.8,162.7)" />
<use xlink:href="#f6_cv" transform="matrix(14,0,0,14,334.1,162.7)" />
<use xlink:href="#f6_c7" transform="matrix(14,0,0,14,339.7,162.7)" />
<use xlink:href="#f6_d8" transform="matrix(14,0,0,14,351.8,162.7)" />
<use xlink:href="#f6_k" transform="matrix(14,0,0,14,357.4,162.7)" />
<use xlink:href="#f6_br" transform="matrix(14,0,0,14,368.3,162.7)" />
<use xlink:href="#f6_ob" transform="matrix(14,0,0,14,379.9,162.7)" />
<use xlink:href="#f6_c7" transform="matrix(14,0,0,14,385.6,162.7)" />
<use xlink:href="#f6_d8" transform="matrix(14,0,0,14,397.6,162.7)" />
<use xlink:href="#f6_pc" transform="matrix(14,0,0,14,403.3,162.7)" />
<use xlink:href="#f6_pc" transform="matrix(14,0,0,14,407.5,162.7)" />
<use xlink:href="#f6_pc" transform="matrix(14,0,0,14,411.8,162.7)" />
<use xlink:href="#f6_pc" transform="matrix(14,0,0,14,416.1,162.7)" />
<use xlink:href="#f6_pc" transform="matrix(14,0,0,14,420.4,162.7)" />
<use xlink:href="#f6_nh" transform="matrix(14,0,0,14,430.3,162.7)" />
<use xlink:href="#f6_n7" transform="matrix(14,0,0,14,445.2,162.7)" />
<use xlink:href="#f6_ng" transform="matrix(14,0,0,14,454.5,162.7)" />
<use xlink:href="#f6_ng" transform="matrix(14,0,0,14,463.9,162.7)" />
<use xlink:href="#f6_cb" transform="matrix(14,0,0,14,215.7,221.1)" />
<use xlink:href="#f6_d8" transform="matrix(14,0,0,14,230.6,221.1)" />
<use xlink:href="#f6_cc" transform="matrix(14,0,0,14,236.2,221.1)" />
<use xlink:href="#f6_ct" transform="matrix(14,0,0,14,247.8,221.1)" />
<use xlink:href="#f6_bz" transform="matrix(14,0,0,14,253.5,221.1)" />
<use xlink:href="#f6_bo" transform="matrix(14,0,0,14,266.8,221.1)" />
<use xlink:href="#f6_cw" transform="matrix(14,0,0,14,281.7,221)" />
<use xlink:href="#f6_bc" transform="matrix(14,0,0,14,286.8,221.1)" />
<use xlink:href="#f6_d4" transform="matrix(14,0,0,14,300.8,221.1)" />
<use xlink:href="#f6_c1" transform="matrix(14,0,0,14,300.7,221.1)" />
<use xlink:href="#f6_bv" transform="matrix(14,0,0,14,314.8,221.1)" />
<use xlink:href="#f6_c7" transform="matrix(14,0,0,14,326.6,221.1)" />
<use xlink:href="#f6_dr" transform="matrix(14,0,0,14,339.2,221.1)" />
<use xlink:href="#f6_cu" transform="matrix(14,0,0,14,344.4,221.1)" />
<use xlink:href="#f6_br" transform="matrix(14,0,0,14,350,221.1)" />
<use xlink:href="#f6_c7" transform="matrix(14,0,0,14,361.7,221.1)" />
<use xlink:href="#f6_ct" transform="matrix(14,0,0,14,373.7,221.1)" />
<use xlink:href="#f6_c3" transform="matrix(14,0,0,14,379.4,221.1)" />
<use xlink:href="#f6_cv" transform="matrix(14,0,0,14,394.1,221.1)" />
<use xlink:href="#f6_k" transform="matrix(14,0,0,14,399.7,221.1)" />
<use xlink:href="#f6_al" transform="matrix(14,0,0,14,174.5,254.4)" />
<use xlink:href="#f6_lq" transform="matrix(14,0,0,14,190.3,254.4)" />
<use xlink:href="#f6_bx" transform="matrix(14,0,0,14,198.5,254.4)" />
<use xlink:href="#f6_c1" transform="matrix(14,0,0,14,210.8,254.4)" />
<use xlink:href="#f6_ba" transform="matrix(14,0,0,14,224.8,254.4)" />
<use xlink:href="#f6_d4" transform="matrix(14,0,0,14,241.7,254.4)" />
<use xlink:href="#f6_c3" transform="matrix(14,0,0,14,241.6,254.4)" />
<use xlink:href="#f6_d4" transform="matrix(14,0,0,14,256.4,254.4)" />
<use xlink:href="#f6_al" transform="matrix(14,0,0,14,261.9,254.4)" />
<use xlink:href="#f6_bz" transform="matrix(14,0,0,14,277.8,254.4)" />
<use xlink:href="#f6_c1" transform="matrix(14,0,0,14,291.1,254.4)" />
<use xlink:href="#f6_ct" transform="matrix(14,0,0,14,299.5,254.4)" />
<use xlink:href="#f6_bx" transform="matrix(14,0,0,14,305.1,254.4)" />
<use xlink:href="#f6_ct" transform="matrix(14,0,0,14,317.4,254.4)" />
<use xlink:href="#f6_c3" transform="matrix(14,0,0,14,323,254.4)" />
<use xlink:href="#f6_cv" transform="matrix(14,0,0,14,337.7,254.4)" />
<use xlink:href="#f6_k" transform="matrix(14,0,0,14,343.4,254.4)" />
<use xlink:href="#f6_br" transform="matrix(14,0,0,14,348.6,254.4)" />
<use xlink:href="#f6_ob" transform="matrix(14,0,0,14,360.3,254.4)" />
<use xlink:href="#f6_c7" transform="matrix(14,0,0,14,365.9,254.4)" />
<use xlink:href="#f6_d8" transform="matrix(14,0,0,14,378,254.4)" />
<use xlink:href="#f6_pc" transform="matrix(14,0,0,14,383.6,254.4)" />
<use xlink:href="#f6_pc" transform="matrix(14,0,0,14,387.9,254.4)" />
<use xlink:href="#f6_pc" transform="matrix(14,0,0,14,392.1,254.4)" />
<use xlink:href="#f6_pc" transform="matrix(14,0,0,14,396.4,254.4)" />
<use xlink:href="#f6_pc" transform="matrix(14,0,0,14,400.7,254.4)" />
<use xlink:href="#f6_2s" transform="matrix(14,0,0,14,410.6,254.4)" />
<use xlink:href="#f6_2s" transform="matrix(14,0,0,14,416.9,254.4)" />
<use xlink:href="#f6_n8" transform="matrix(14,0,0,14,423.1,254.4)" />
<use xlink:href="#f6_2s" transform="matrix(14,0,0,14,433.6,254.4)" />
<use xlink:href="#f6_2s" transform="matrix(14,0,0,14,439.8,254.4)" />
<use xlink:href="#f6_br" transform="matrix(14,0,0,14,191.7,312.8)" />
<use xlink:href="#f6_ob" transform="matrix(14,0,0,14,203.3,312.8)" />
<use xlink:href="#f6_bv" transform="matrix(14,0,0,14,209,312.8)" />
<use xlink:href="#f6_ct" transform="matrix(14,0,0,14,220.8,312.8)" />
<use xlink:href="#f6_c3" transform="matrix(14,0,0,14,226.4,312.8)" />
<use xlink:href="#f6_by" transform="matrix(14,0,0,14,246.8,312.8)" />
<use xlink:href="#f6_bo" transform="matrix(14,0,0,14,260.8,312.8)" />
<use xlink:href="#f6_d4" transform="matrix(14,0,0,14,275.3,312.8)" />
<use xlink:href="#f6_al" transform="matrix(14,0,0,14,280.8,312.8)" />
<use xlink:href="#f6_d4" transform="matrix(14,0,0,14,283.8,322.8)" />
<use xlink:href="#f6_bt" transform="matrix(14,0,0,14,296.7,312.8)" />
<use xlink:href="#f6_d4" transform="matrix(14,0,0,14,308.5,312.8)" />
<use xlink:href="#f6_b9" transform="matrix(14,0,0,14,319.7,312.8)" />
<use xlink:href="#f6_cw" transform="matrix(14,0,0,14,330.8,312.7)" />
<use xlink:href="#f6_c3" transform="matrix(14,0,0,14,335.2,312.8)" />
<use xlink:href="#f6_al" transform="matrix(14,0,0,14,355.6,312.8)" />
<use xlink:href="#f6_bg" transform="matrix(14,0,0,14,371.4,312.8)" />
<use xlink:href="#f6_c7" transform="matrix(14,0,0,14,385.7,312.8)" />
<use xlink:href="#f6_ct" transform="matrix(14,0,0,14,397.8,312.8)" />
<use xlink:href="#f6_c3" transform="matrix(14,0,0,14,403.4,312.8)" />
<use xlink:href="#f6_cv" transform="matrix(14,0,0,14,418.1,312.8)" />
<use xlink:href="#f6_k" transform="matrix(14,0,0,14,423.7,312.8)" />
<use xlink:href="#f6_by" transform="matrix(14,0,0,14,163,346)" />
<use xlink:href="#f6_ct" transform="matrix(14,0,0,14,177,346)" />
<use xlink:href="#f6_c7" transform="matrix(14,0,0,14,182.6,346)" />
<use xlink:href="#f6_d4" transform="matrix(14,0,0,14,194.8,346)" />
<use xlink:href="#f6_by" transform="matrix(14,0,0,14,200.3,346)" />
<use xlink:href="#f6_bb" transform="matrix(14,0,0,14,214.3,346)" />
<use xlink:href="#f6_bp" transform="matrix(14,0,0,14,226.9,346)" />
<use xlink:href="#f6_d4" transform="matrix(14,0,0,14,239.4,346)" />
<use xlink:href="#f6_cu" transform="matrix(14,0,0,14,244.9,346)" />
<use xlink:href="#f6_c7" transform="matrix(14,0,0,14,250.5,346)" />
<use xlink:href="#f6_bc" transform="matrix(14,0,0,14,262.6,346)" />
<use xlink:href="#f6_bt" transform="matrix(14,0,0,14,276.5,346)" />
<use xlink:href="#f6_cu" transform="matrix(14,0,0,14,293.9,346)" />
<use xlink:href="#f6_bt" transform="matrix(14,0,0,14,299.5,346)" />
<use xlink:href="#f6_c7" transform="matrix(14,0,0,14,311.2,346)" />
<use xlink:href="#f6_ct" transform="matrix(14,0,0,14,323.3,346)" />
<use xlink:href="#f6_c1" transform="matrix(14,0,0,14,328.9,346)" />
<use xlink:href="#f6_cv" transform="matrix(14,0,0,14,337.3,346)" />
<use xlink:href="#f6_k" transform="matrix(14,0,0,14,342.9,346)" />
<use xlink:href="#f6_br" transform="matrix(14,0,0,14,348.1,346)" />
<use xlink:href="#f6_ob" transform="matrix(14,0,0,14,359.8,346)" />
<use xlink:href="#f6_c7" transform="matrix(14,0,0,14,365.4,346)" />
<use xlink:href="#f6_d8" transform="matrix(14,0,0,14,377.5,346)" />
<use xlink:href="#f6_pc" transform="matrix(14,0,0,14,383.1,346)" />
<use xlink:href="#f6_pc" transform="matrix(14,0,0,14,387.4,346)" />
<use xlink:href="#f6_pc" transform="matrix(14,0,0,14,391.7,346)" />
<use xlink:href="#f6_pc" transform="matrix(14,0,0,14,395.9,346)" />
<use xlink:href="#f6_pc" transform="matrix(14,0,0,14,400.2,346)" />
<use xlink:href="#f6_ng" transform="matrix(14,0,0,14,410.2,346)" />
<use xlink:href="#f6_ng" transform="matrix(14,0,0,14,419.5,346)" />
<use xlink:href="#f6_n9" transform="matrix(14,0,0,14,428.9,346)" />
<use xlink:href="#f6_ng" transform="matrix(14,0,0,14,440,346)" />
<use xlink:href="#f6_ng" transform="matrix(14,0,0,14,449.4,346)" />
<use xlink:href="#f6_br" transform="matrix(14,0,0,14,211.1,404.5)" />
<use xlink:href="#f6_ob" transform="matrix(14,0,0,14,222.8,404.5)" />
<use xlink:href="#f6_bv" transform="matrix(14,0,0,14,228.4,404.5)" />
<use xlink:href="#f6_ct" transform="matrix(14,0,0,14,240.3,404.5)" />
<use xlink:href="#f6_c3" transform="matrix(14,0,0,14,245.9,404.5)" />
<use xlink:href="#f6_by" transform="matrix(14,0,0,14,266.3,404.5)" />
<use xlink:href="#f6_bo" transform="matrix(14,0,0,14,280.2,404.5)" />
<use xlink:href="#f6_d4" transform="matrix(14,0,0,14,294.7,404.5)" />
<use xlink:href="#f6_c0" transform="matrix(14,0,0,14,300.3,404.5)" />
<use xlink:href="#f6_d4" transform="matrix(14,0,0,14,313,404.5)" />
<use xlink:href="#f6_bo" transform="matrix(14,0,0,14,312.8,404.5)" />
<use xlink:href="#f6_d4" transform="matrix(14,0,0,14,327.3,404.5)" />
<use xlink:href="#f6_b9" transform="matrix(14,0,0,14,332.9,404.5)" />
<use xlink:href="#f6_nu" transform="matrix(14,0,0,14,348.4,404.5)" />
<use xlink:href="#f6_c3" transform="matrix(14,0,0,14,354,404.5)" />
<use xlink:href="#f6_b9" transform="matrix(14,0,0,14,368.7,404.5)" />
<use xlink:href="#f6_ct" transform="matrix(14,0,0,14,384.2,404.5)" />
<use xlink:href="#f6_c3" transform="matrix(14,0,0,14,389.8,404.5)" />
<use xlink:href="#f6_d4" transform="matrix(14,0,0,14,404.6,404.5)" />
<use xlink:href="#f6_k" transform="matrix(14,0,0,14,404.5,404.5)" />
<use xlink:href="#f6_am" transform="matrix(14,0,0,14,150.4,437.7)" />
<use xlink:href="#f6_c1" transform="matrix(14,0,0,14,171.9,437.7)" />
<use xlink:href="#f6_bp" transform="matrix(14,0,0,14,180.3,437.7)" />
<use xlink:href="#f6_cv" transform="matrix(14,0,0,14,192.6,437.7)" />
<use xlink:href="#f6_ap" transform="matrix(14,0,0,14,203.9,437.7)" />
<use xlink:href="#f6_bp" transform="matrix(14,0,0,14,215.2,437.7)" />
<use xlink:href="#f6_ct" transform="matrix(14,0,0,14,227.6,437.7)" />
<use xlink:href="#f6_c1" transform="matrix(14,0,0,14,233.2,437.7)" />
<use xlink:href="#f6_cv" transform="matrix(14,0,0,14,241.6,437.7)" />
<use xlink:href="#f6_c1" transform="matrix(14,0,0,14,252.8,437.7)" />
<use xlink:href="#f6_ct" transform="matrix(14,0,0,14,261.2,437.7)" />
<use xlink:href="#f6_bg" transform="matrix(14,0,0,14,266.8,437.7)" />
<use xlink:href="#f6_ct" transform="matrix(14,0,0,14,281.1,437.7)" />
<use xlink:href="#f6_b9" transform="matrix(14,0,0,14,292.4,437.7)" />
<use xlink:href="#f6_cw" transform="matrix(14,0,0,14,303.5,437.6)" />
<use xlink:href="#f6_bz" transform="matrix(14,0,0,14,307.9,437.7)" />
<use xlink:href="#f6_ct" transform="matrix(14,0,0,14,321.2,437.7)" />
<use xlink:href="#f6_c1" transform="matrix(14,0,0,14,326.9,437.7)" />
<use xlink:href="#f6_bv" transform="matrix(14,0,0,14,335.2,437.7)" />
<use xlink:href="#f6_ct" transform="matrix(14,0,0,14,347.1,437.7)" />
<use xlink:href="#f6_c3" transform="matrix(14,0,0,14,352.7,437.7)" />
<use xlink:href="#f6_d4" transform="matrix(14,0,0,14,367.6,437.7)" />
<use xlink:href="#f6_k" transform="matrix(14,0,0,14,367.4,437.7)" />
<use xlink:href="#f6_br" transform="matrix(14,0,0,14,372.6,437.7)" />
<use xlink:href="#f6_ob" transform="matrix(14,0,0,14,384.3,437.7)" />
<use xlink:href="#f6_c7" transform="matrix(14,0,0,14,389.9,437.7)" />
<use xlink:href="#f6_d8" transform="matrix(14,0,0,14,402,437.7)" />
<use xlink:href="#f6_pc" transform="matrix(14,0,0,14,407.6,437.7)" />
<use xlink:href="#f6_pc" transform="matrix(14,0,0,14,411.9,437.7)" />
<use xlink:href="#f6_pc" transform="matrix(14,0,0,14,416.2,437.7)" />
<use xlink:href="#f6_pc" transform="matrix(14,0,0,14,420.5,437.7)" />
<use xlink:href="#f6_pc" transform="matrix(14,0,0,14,424.7,437.7)" />
<use xlink:href="#f6_2s" transform="matrix(14,0,0,14,434.7,437.7)" />
<use xlink:href="#f6_2s" transform="matrix(14,0,0,14,440.9,437.7)" />
<use xlink:href="#f6_na" transform="matrix(14,0,0,14,447.2,437.7)" />
<use xlink:href="#f6_2s" transform="matrix(14,0,0,14,458.5,437.7)" />
<use xlink:href="#f6_2s" transform="matrix(14,0,0,14,464.7,437.7)" />
<use xlink:href="#f6_al" transform="matrix(14,0,0,14,180.2,496.1)" />
<use xlink:href="#f6_bz" transform="matrix(14,0,0,14,196.1,496.1)" />
<use xlink:href="#f6_bc" transform="matrix(14,0,0,14,215.1,496.1)" />
<use xlink:href="#f6_d4" transform="matrix(14,0,0,14,229.1,496.1)" />
<use xlink:href="#f6_c1" transform="matrix(14,0,0,14,229,496.1)" />
<use xlink:href="#f6_bz" transform="matrix(14,0,0,14,243,496.1)" />
<use xlink:href="#f6_dj" transform="matrix(14,0,0,14,250.5,496.6)" />
<use xlink:href="#f6_bb" transform="matrix(14,0,0,14,256.3,496.1)" />
<use xlink:href="#f6_nu" transform="matrix(14,0,0,14,269,496.1)" />
<use xlink:href="#f6_c3" transform="matrix(14,0,0,14,274.6,496.1)" />
<use xlink:href="#f6_b9" transform="matrix(14,0,0,14,289.3,496.1)" />
<use xlink:href="#f6_k" transform="matrix(14,0,0,14,304.8,496.1)" />
<use xlink:href="#f6_bp" transform="matrix(14,0,0,14,315.7,496.1)" />
<use xlink:href="#f6_cw" transform="matrix(14,0,0,14,328.5,496)" />
<use xlink:href="#f6_bz" transform="matrix(14,0,0,14,328,496.1)" />
<use xlink:href="#f6_bc" transform="matrix(14,0,0,14,347,496.1)" />
<use xlink:href="#f6_d4" transform="matrix(14,0,0,14,361,496.1)" />
<use xlink:href="#f6_c1" transform="matrix(14,0,0,14,360.9,496.1)" />
<use xlink:href="#f6_bz" transform="matrix(14,0,0,14,374.9,496.1)" />
<use xlink:href="#f6_dj" transform="matrix(14,0,0,14,382.4,496.6)" />
<use xlink:href="#f6_bb" transform="matrix(14,0,0,14,388.3,496.1)" />
<use xlink:href="#f6_nu" transform="matrix(14,0,0,14,400.9,496.1)" />
<use xlink:href="#f6_c3" transform="matrix(14,0,0,14,406.5,496.1)" />
<use xlink:href="#f6_b9" transform="matrix(14,0,0,14,421.2,496.1)" />
<use xlink:href="#f6_k" transform="matrix(14,0,0,14,436.7,496.1)" />
<use xlink:href="#f6_bz" transform="matrix(14,0,0,14,149.3,529.4)" />
<use xlink:href="#f6_dj" transform="matrix(14,0,0,14,156.7,529.8)" />
<use xlink:href="#f6_bb" transform="matrix(14,0,0,14,162.6,529.4)" />
<use xlink:href="#f6_nu" transform="matrix(14,0,0,14,175.2,529.4)" />
<use xlink:href="#f6_c3" transform="matrix(14,0,0,14,180.8,529.4)" />
<use xlink:href="#f6_b9" transform="matrix(14,0,0,14,195.5,529.4)" />
<use xlink:href="#f6_be" transform="matrix(14,0,0,14,216.7,529.4)" />
<use xlink:href="#f6_bp" transform="matrix(14,0,0,14,230.7,529.4)" />
<use xlink:href="#f6_cw" transform="matrix(14,0,0,14,243.5,529.3)" />
<use xlink:href="#f6_cu" transform="matrix(14,0,0,14,243,529.4)" />
<use xlink:href="#f6_on" transform="matrix(14,0,0,14,257,529.4)" />
<use xlink:href="#f6_c7" transform="matrix(14,0,0,14,248.6,529.4)" />
<use xlink:href="#f6_bs" transform="matrix(14,0,0,14,260.7,529.4)" />
<use xlink:href="#f6_cb" transform="matrix(14,0,0,14,280.4,529.4)" />
<use xlink:href="#f6_dj" transform="matrix(14,0,0,14,288.9,529.8)" />
<use xlink:href="#f6_bc" transform="matrix(14,0,0,14,295.2,529.4)" />
<use xlink:href="#f6_bt" transform="matrix(14,0,0,14,314.8,529.4)" />
<use xlink:href="#f6_d4" transform="matrix(14,0,0,14,326.7,529.4)" />
<use xlink:href="#f6_cc" transform="matrix(14,0,0,14,332.2,529.4)" />
<use xlink:href="#f6_d8" transform="matrix(14,0,0,14,343.8,529.4)" />
<use xlink:href="#f6_bg" transform="matrix(14,0,0,14,349.4,529.4)" />
<use xlink:href="#f6_d8" transform="matrix(14,0,0,14,363.7,529.4)" />
<use xlink:href="#f6_k" transform="matrix(14,0,0,14,369.3,529.4)" />
<use xlink:href="#f6_br" transform="matrix(14,0,0,14,374.5,529.4)" />
<use xlink:href="#f6_ob" transform="matrix(14,0,0,14,386.2,529.4)" />
<use xlink:href="#f6_c7" transform="matrix(14,0,0,14,391.8,529.4)" />
<use xlink:href="#f6_d8" transform="matrix(14,0,0,14,403.9,529.4)" />
<use xlink:href="#f6_pc" transform="matrix(14,0,0,14,409.5,529.4)" />
<use xlink:href="#f6_pc" transform="matrix(14,0,0,14,413.8,529.4)" />
<use xlink:href="#f6_pc" transform="matrix(14,0,0,14,418.1,529.4)" />
<use xlink:href="#f6_pc" transform="matrix(14,0,0,14,422.3,529.4)" />
<use xlink:href="#f6_pc" transform="matrix(14,0,0,14,426.6,529.4)" />
<use xlink:href="#f6_2s" transform="matrix(14,0,0,14,436.5,529.4)" />
<use xlink:href="#f6_2s" transform="matrix(14,0,0,14,442.8,529.4)" />
<use xlink:href="#f6_nb" transform="matrix(14,0,0,14,449.1,529.4)" />
<use xlink:href="#f6_2s" transform="matrix(14,0,0,14,460.2,529.4)" />
<use xlink:href="#f6_2s" transform="matrix(14,0,0,14,466.5,529.4)" />
<use xlink:href="#f7_4r" transform="matrix(9,0,0,9,293.6,795.2)" />
<use xlink:href="#f8_s" transform="matrix(9,0,0,9,306.5,795.2)" />
<use xlink:href="#f7_4r" transform="matrix(9,0,0,9,317.1,795.2)" />
</g>
</g>
<image preserveAspectRatio="none" x="22" y="801" width="581" height="86" xlink:href="img/1.png"/>
<path d="M265.8,97.4h90.6v1.1H265.8V97.4Z" class="g1_14"/>
<image preserveAspectRatio="none" x="202" y="14" width="217" height="26" xlink:href="img/2.png"/>
<defs>
<path d="M686,512V822H333L435,749l2,-237ZM860,-65L686,29V298H440V168L348,118c0,0,-90,30,-190,128c0,0,-100,98,-127,183l52,83H203L189,822H0L-86,937l32,64H1045l86,-115l-33,-64H828L930,749V-31L860,-65Z"
id="f5_bz"
transform="scale(0.001,-0.001)"/>

<path d="M0,1102c0,0,-40,16,-91,55c0,0,-52,39,-79,76c0,0,59,119,137,165c0,0,42,-15,89,-54c0,0,46,-39,74,-76c0,0,-17,-44,-54,-92c0,0,-38,-48,-76,-74Z"
id="f5_dj"
transform="scale(0.001,-0.001)"/>

<path d="M831,-65L657,29V822H332L434,749V200L341,150c0,0,-93,32,-190,121c0,0,-96,90,-125,175l52,83H196l-5,293H0L-86,937l32,64H1016l86,-115l-33,-64H799L901,749V-31L831,-65Z"
id="f5_bb"
transform="scale(0.001,-0.001)"/>

<path d="M472,-77C472,-77,28,171,28,448c0,0,0,116,77,191c0,0,77,74,188,74c0,0,51,0,95,-18L527,574c0,0,104,114,277,117V822H0L-86,937l32,64H1164l86,-115l-32,-64H946l102,-73V-31L978,-65L804,29V526c0,0,-130,-78,-133,-294L611,196L431,309c0,0,0,97,33,174c0,0,-22,10,-53,10c0,0,-52,0,-90,-36c0,0,-38,-37,-38,-99c0,0,0,-80,68,-150c0,0,69,-70,214,-161L472,-77Z"
id="f5_c3"
transform="scale(0.001,-0.001)"/>

<path d="M700,-327L637,-39c0,0,-43,-9,-85,-9c0,0,-109,0,-228,58c0,0,-119,59,-199,160c0,0,-79,102,-79,220c0,0,0,134,95,216c0,0,94,82,252,85H516V822H0L-86,937l32,64H929l85,-115L982,822H645L747,749V468l2,-4H478c0,0,-98,0,-148,-45c0,0,-50,-46,-50,-110c0,0,0,-68,53,-121c0,0,46,-20,99,-20c0,0,74,0,141,35L555,332l154,56L897,154C897,154,862,87,785,34L933,-233L700,-327Z"
id="f5_br"
transform="scale(0.001,-0.001)"/>

<path d="M277,-65L102,29V822H0L-86,937l32,64H101c0,0,-90,165,-173,246c0,0,-83,82,-174,82c0,0,-77,0,-124,-46c0,0,-48,-47,-48,-110c0,0,0,-52,36,-105l-97,-50c0,0,-143,114,-143,268c0,0,0,113,85,191c0,0,86,77,219,77c0,0,188,0,333,-152c0,0,147,-152,258,-401H463L548,886L516,822H244L347,749V-31L277,-65Z"
id="f5_ob"
transform="scale(0.001,-0.001)"/>

<path d="M371,296c0,0,71,0,139,34c0,0,69,34,109,92v90c0,0,-72,36,-148,36c0,0,-84,0,-131,-47c0,0,-47,-47,-47,-111c0,0,0,-49,28,-89l50,-5ZM793,-65L619,29V134c0,0,-55,-27,-122,-27c0,0,-98,0,-207,48c0,0,-108,48,-182,132c0,0,-73,84,-73,188c0,0,0,113,83,191c0,0,84,78,212,78c0,0,41,0,84,-9L619,643V822H0L-86,937l32,64H978l85,-115l-32,-64H761L863,749V-31L793,-65Z"
id="f5_c7"
transform="scale(0.001,-0.001)"/>

<path d="M277,-65L102,29V822H0L-86,937l32,64H86L18,1111c0,0,-67,122,-168,122c0,0,-81,0,-202,-80l-128,250c0,0,122,77,232,77c0,0,196,0,356,-250L252,1001H463L548,886L516,822H244L347,749V-31L277,-65Z"
id="f5_d8"
transform="scale(0.001,-0.001)"/>

<path d="M675,-274L602,21C602,21,550,3,498,3C498,3,347,3,210,118C210,118,73,232,73,373c0,0,0,113,84,184c0,0,84,71,222,72H524V822H0l-45,76l14,31H834l46,-76L866,822H585l66,-58V504l-3,2l3,-3H408c0,0,-95,0,-154,-53c0,0,-58,-53,-58,-132c0,0,0,-49,27,-100c0,0,28,-50,83,-84c0,0,44,-15,96,-15c0,0,91,0,160,46L535,303l101,48L773,188c0,0,-8,-28,-34,-66c0,0,-27,-38,-62,-64L813,-221L675,-274Z"
id="f6_br"
transform="scale(0.001,-0.001)"/>

<path d="M228,-49L138,8V822H0l-45,76l14,31H136c0,0,-173,353,-364,353c0,0,-75,0,-119,-44c0,0,-45,-45,-45,-106c0,0,0,-69,48,-128l-43,-32c0,0,-124,113,-124,224c0,0,0,87,67,146c0,0,68,59,167,59c0,0,150,0,283,-130c0,0,135,-130,219,-342H402l46,-76L434,822H199l65,-58V-39L228,-49Z"
id="f6_ob"
transform="scale(0.001,-0.001)"/>

<path d="M325,240c0,0,77,0,154,35c0,0,77,35,120,99V500c0,0,-118,73,-222,73c0,0,-97,0,-151,-54c0,0,-53,-53,-53,-128c0,0,0,-73,49,-125c0,0,38,-26,103,-26ZM689,-49L599,8V199c0,0,-73,-65,-179,-65c0,0,-134,0,-252,96c0,0,-118,95,-118,221c0,0,0,102,78,171c0,0,78,69,190,69c0,0,38,0,75,-10L599,582V822H0l-45,76l14,31H863l46,-76L895,822H660l66,-58V-39L689,-49Z"
id="f6_c7"
transform="scale(0.001,-0.001)"/>

<path d="M228,-49L138,8V822H0l-45,76l14,31H119L-33,1144c0,0,-70,92,-157,92c0,0,-69,0,-159,-58l-72,118c0,0,89,73,181,73c0,0,140,0,257,-170L205,929H402l46,-76L434,822H199l65,-58V-39L228,-49Z"
id="f6_d8"
transform="scale(0.001,-0.001)"/>

<path d="M527,-71L52,414l34,92H277c0,0,12,32,12,72V822H0l-45,76l14,31H599l46,-76L631,822H350l66,-55V564c0,0,0,-96,-152,-248L610,34L611,8L527,-71Z"
id="f6_c1"
transform="scale(0.001,-0.001)"/>

<path d="M-214,863l-199,281c0,0,-70,92,-157,92c0,0,-69,0,-159,-58l-72,118c0,0,89,73,180,73c0,0,141,0,258,-170L-155,901l-59,-38Z"
id="f6_d4"
transform="scale(0.001,-0.001)"/>

<path d="M396,318c0,0,123,0,203,108V822H180l66,-58V408c0,0,49,-90,150,-90ZM176,-66L79,9L379,228c0,0,-106,23,-181,119c0,0,-76,96,-79,198V822H0l-45,76l14,31H863l46,-76L895,822H660l66,-58V-39L689,-49L599,8V269L176,-66Z"
id="f6_e6"
transform="scale(0.001,-0.001)"/>

<path d="M823,-49L733,8V339H445V191L371,160c0,0,-56,36,-120,105c0,0,-63,70,-89,131l41,59H313V735c0,0,0,99,-55,140c0,0,-3,1,-8,1c-16,0,-48,-3,-71,-23c0,0,-31,-26,-31,-66c0,0,0,-69,81,-113L189,620C189,620,31,720,31,828c0,0,0,61,45,99c0,0,46,37,109,37c0,0,96,0,173,-86c0,0,76,-87,79,-194V455H733V822H556l-46,76l14,31H998l45,-76l-13,-31H794l66,-58V-39L823,-49Z"
id="f6_by"
transform="scale(0.001,-0.001)"/>

<path d="M-234,-413c0,0,-210,0,-488,322l54,49c0,0,119,-128,209,-193c0,0,90,-65,177,-65c0,0,72,0,113,40c0,0,42,39,42,91c0,0,0,75,-78,106L-323,-181l-90,98c0,0,63,95,167,95c0,0,90,0,155,-69c0,0,66,-70,66,-164c0,0,0,-85,-60,-139c0,0,-61,-53,-149,-53Z"
id="f6_cw"
transform="scale(0.001,-0.001)"/>

<path d="M689,445V822H286l65,-58l8,-319ZM779,-49L689,8V328H370V180L296,150c0,0,-56,35,-120,104c0,0,-63,70,-89,131l41,60H238L223,822H0l-45,76l14,31H953l46,-76L985,822H750l66,-58V-39L779,-49Z"
id="f6_bz"
transform="scale(0.001,-0.001)"/>

<path d="M228,-49L138,8V822H0l-45,76l14,31H402l46,-76L434,822H199l65,-58V-39L228,-49Z"
id="f6_ct"
transform="scale(0.001,-0.001)"/>

<path d="M0,1062c0,0,-26,11,-60,36c0,0,-34,26,-51,49c0,0,39,81,91,110c0,0,60,-23,106,-85c0,0,-28,-70,-86,-110Z"
id="f6_dj"
transform="scale(0.001,-0.001)"/>

<path d="M727,-49L637,8V822H278l66,-58V226L270,196c0,0,-64,36,-122,98c0,0,-58,62,-79,122l43,59H217V822H0l-45,76l14,31H901l46,-76L933,822H698l66,-58V-39L727,-49Z"
id="f6_bb"
transform="scale(0.001,-0.001)"/>

<path d="M228,-49L138,8V822H0l-45,76l14,31H134c0,0,-91,93,-91,200c0,0,0,109,92,174c0,0,93,66,253,66c0,0,186,0,398,-89c0,0,212,-90,430,-264l-49,-47c0,0,-424,285,-727,285c0,0,-125,0,-201,-49c0,0,-76,-48,-76,-137c0,0,0,-67,52,-139H402l46,-76L434,822H199l65,-58V-39L228,-49Z"
id="f6_nu"
transform="scale(0.001,-0.001)"/>

<path d="M413,-59C413,-59,53,193,53,416c0,0,0,97,66,164c0,0,66,66,156,66c0,0,61,0,110,-30L487,507c0,0,92,126,257,126l35,-2V822H0l-45,76l14,31H1043l46,-76l-13,-31H840l66,-58V-39L869,-49L779,8V547c0,0,-101,-5,-165,-90c0,0,-64,-86,-70,-222L507,225l-90,73c0,0,5,79,35,151c0,0,-59,66,-128,66c0,0,-57,0,-100,-38c0,0,-44,-39,-44,-109c0,0,0,-165,284,-360L413,-59Z"
id="f6_c3"
transform="scale(0.001,-0.001)"/>

<path d="M283,260c0,0,122,0,209,113V513c0,0,-90,51,-160,51c0,0,-80,0,-129,-50c0,0,-49,-50,-49,-118c0,0,0,-60,35,-110c0,0,45,-26,94,-26ZM582,-49L492,8V211c0,0,-63,-54,-141,-54c0,0,-113,0,-213,92c0,0,-100,92,-100,205c0,0,0,93,69,157c0,0,69,64,162,64c0,0,32,0,64,-9L492,590V822H0l-45,76l14,31H1108l45,-76l-13,-31H553l66,-58V524c0,0,91,89,192,89c0,0,98,0,171,-79c0,0,72,-79,72,-186c0,0,0,-178,-224,-330L736,124c0,0,219,153,219,269c0,0,0,44,-26,75c0,0,-26,32,-81,32c0,0,-109,0,-229,-155V-39L582,-49Z"
id="f6_b9"
transform="scale(0.001,-0.001)"/>

<path d="M108,-222l-44,58c0,0,96,81,104,164L89,61c0,0,12,83,93,122c0,0,50,-15,79,-55c0,0,29,-39,29,-90c0,0,0,-69,-48,-142c0,0,-48,-72,-134,-118Z"
id="f6_k"
transform="scale(0.001,-0.001)"/>

<path d="M959,-49L869,8V367c0,0,-32,-13,-64,-13c0,0,-50,0,-110,25c0,0,23,-52,23,-109c0,0,0,-103,-70,-170c0,0,-70,-66,-182,-66c0,0,-110,0,-222,82c0,0,-111,83,-213,293l68,42c0,0,72,-155,152,-231c0,0,81,-76,178,-76c0,0,83,0,131,49c0,0,48,48,48,117c0,0,0,54,-30,100c0,0,-31,47,-91,65L325,391L257,512c0,0,68,53,156,56c0,0,140,72,140,179c0,0,0,69,-52,99c0,0,-4,1,-11,1c-19,0,-66,-4,-123,-30c0,0,-78,-35,-142,-96L150,823c0,0,119,117,253,117c0,0,98,0,175,-71c0,0,77,-70,77,-159c0,0,0,-103,-94,-180c0,0,39,-23,73,-56c0,0,52,-22,109,-22c0,0,77,0,126,38V822H727l-46,76l14,31h840l46,-76l-13,-31H1332l66,-58V-39l-37,-10L1271,8V822H930l66,-58V-39L959,-49Z"
id="f6_am"
transform="scale(0.001,-0.001)"/>

<path d="M347,-57C347,-57,66,211,66,394c0,0,0,98,74,164c0,0,74,65,225,65H616V822H0l-45,76l14,31H880l46,-76L912,822H677l66,-58V-39L706,-49L616,8V500H428c0,0,-239,0,-239,-161c0,0,0,-136,214,-343L347,-57Z"
id="f6_bp"
transform="scale(0.001,-0.001)"/>

<path d="M228,-49L138,8V822H0l-45,76l14,31H138c0,0,-109,342,-284,342c0,0,-62,0,-102,-40c0,0,-40,-39,-40,-93c0,0,0,-61,51,-134l-42,-32c0,0,-128,113,-128,226c0,0,0,79,60,136c0,0,61,56,154,56c0,0,137,0,249,-125c0,0,112,-125,169,-336H402l46,-76L434,822H199l65,-58V-39L228,-49Z"
id="f6_cv"
transform="scale(0.001,-0.001)"/>

<path d="M471,-26c0,0,-259,0,-448,396l70,43C93,413,240,98,442,98c0,0,79,0,132,46c0,0,54,45,54,120c0,0,0,61,-38,116c0,0,-38,54,-107,72L322,370L255,492c0,0,66,53,156,56c0,0,128,51,128,153c0,0,0,77,-65,121H0l-45,76l14,31H813l46,-76L845,822H578c0,0,76,-66,76,-157c0,0,0,-95,-87,-156c0,0,84,-48,131,-123c0,0,48,-76,48,-158c0,0,0,-109,-78,-182c0,0,-78,-72,-197,-72Z"
id="f6_ap"
transform="scale(0.001,-0.001)"/>

<path d="M663,-49L573,8V445H299V280L226,251c0,0,-105,99,-162,238l63,72H573V822H0l-45,76l14,31H837l46,-76L869,822H634l66,-58V-39L663,-49Z"
id="f6_bt"
transform="scale(0.001,-0.001)"/>

<path d="M348,229c0,0,57,0,106,17L263,559c0,0,-95,-50,-95,-162c0,0,0,-75,52,-136c0,0,49,-32,128,-32Zm170,48c0,0,61,38,96,91V504c0,0,-131,80,-244,80l-35,-2L518,277ZM704,-49L614,8V193c0,0,-84,-65,-192,-65c0,0,-139,0,-255,98c0,0,-115,98,-115,226c0,0,0,106,77,175c0,0,77,70,189,70c0,0,38,0,75,-9L614,578V822H0l-45,76l14,31H878l46,-76L911,822H675l66,-58V-39L704,-49Z"
id="f6_bx"
transform="scale(0.001,-0.001)"/>

<path d="M558,-520c0,0,-210,0,-488,322l54,49c0,0,119,-128,209,-193c0,0,90,-65,177,-65c0,0,72,0,113,40c0,0,42,40,42,91c0,0,0,75,-78,106L469,-288l-90,98l27,37c0,0,-133,64,-213,155c0,0,-80,91,-80,201c0,0,0,101,69,170c0,0,-103,88,-103,179c0,0,0,64,57,110c0,0,57,47,196,47H571V822H0l-45,76l14,31H830l45,-76L862,822H625l66,-58V585H364c0,0,-176,0,-176,-96c0,0,0,-41,44,-76c0,0,81,47,185,47c0,0,135,0,230,-76c0,0,96,-75,96,-187C743,197,743,67,614,2L530,104c0,0,49,30,81,75c0,0,32,44,32,82c0,0,0,16,-4,26c0,0,-65,58,-167,58c0,0,-98,0,-166,-50v-2c0,0,-68,-52,-68,-131c0,0,0,-154,254,-263l53,7c0,0,91,0,156,-70c0,0,66,-70,66,-163c0,0,0,-86,-60,-139c0,0,-61,-54,-149,-54Z"
id="f6_n4"
transform="scale(0.001,-0.001)"/>

<path d="M228,-49L138,8V822H0l-45,76l14,31H134c0,0,-91,93,-91,202c0,0,0,105,85,170c0,0,86,65,236,65c0,0,340,0,742,-350l-50,-46c0,0,-182,135,-340,208c0,0,-158,73,-302,73c0,0,-113,0,-183,-48c0,0,-69,-48,-69,-132c0,0,0,-63,53,-142H402l46,-76L434,822H199l65,-58V-39L228,-49Z"
id="f6_nt"
transform="scale(0.001,-0.001)"/>

<path d="M825,-49L735,8V217c0,0,-86,-72,-197,-72c0,0,-130,0,-238,91c0,0,-107,91,-107,204c0,0,0,55,27,105H55L12,616l14,30H574l46,-76L607,539H396c0,0,-78,-49,-78,-162c0,0,0,-70,40,-111c0,0,39,-15,94,-15c0,0,84,0,163,41c0,0,79,41,120,121V822H0l-45,76l14,31H999l46,-76l-14,-31H796l66,-58V-39L825,-49Z"
id="f6_be"
transform="scale(0.001,-0.001)"/>

<path d="M845,-49L755,8V513H497c0,0,61,-45,93,-110c0,0,33,-64,33,-128c0,0,0,-90,-58,-144c0,0,-59,-53,-143,-53c0,0,-133,0,-234,139C188,217,87,356,20,596l76,24c0,0,60,-201,127,-306c0,0,67,-105,160,-105c0,0,57,0,91,36c0,0,33,36,33,91c0,0,0,84,-73,159L295,558v71H755V822H0l-45,76l14,31H1019l46,-76l-14,-31H816l66,-58V-39L845,-49Z"
id="f6_bg"
transform="scale(0.001,-0.001)"/>

<path d="M226,-49c0,0,-66,24,-102,78c0,0,32,69,82,101c0,0,55,-20,100,-80c0,0,-26,-66,-80,-99Z"
id="f6_pc"
transform="scale(0.001,-0.001)"/>

<path d="M426,-68L339,5V953l37,11l87,-73V-57L426,-68Zm397,0L736,5V953l37,11l87,-73V-57L823,-68Z"
id="f6_nh"
transform="scale(0.001,-0.001)"/>

<path d="M535,-54L419,5c0,0,23,27,23,58c0,0,0,32,-23,55c0,0,-22,23,-295,226v73L319,571c0,0,116,92,116,191c0,0,0,63,-50,107l-32,5c0,0,-54,0,-91,-42c0,0,-37,-42,-33,-93c0,0,5,-62,75,-99L267,596c0,0,-162,93,-162,194c0,0,0,70,52,122c0,0,51,52,127,52c0,0,99,0,177,-84c0,0,77,-84,77,-180c0,0,0,-116,-142,-236L254,350L417,225l54,-40c0,0,105,-80,105,-150c0,0,0,-45,-41,-89Z"
id="f6_n7"
transform="scale(0.001,-0.001)"/>

<path d="M426,-68L339,5V953l37,11l87,-73V-57L426,-68Z"
id="f6_ng"
transform="scale(0.001,-0.001)"/>

<path d="M799,475V822H350l66,-55V564c0,0,0,-43,-25,-89ZM527,-71L52,414l34,92H277c0,0,12,32,12,72V822H0l-45,76l14,31H1063l46,-76l-14,-31H860l66,-58V-39L889,-49L799,8V370H315L264,316L610,34L611,8L527,-71Z"
id="f6_cb"
transform="scale(0.001,-0.001)"/>

<path d="M688,-243c0,0,-256,53,-408,173c0,0,-152,119,-152,270c0,0,0,101,68,171c0,0,-101,84,-101,179c0,0,0,64,53,112c0,0,54,47,191,47H587V822H0l-45,76l14,31H830l45,-76L862,822H640l66,-58V585H362c0,0,-159,-1,-159,-92c0,0,0,-41,46,-80c0,0,76,47,183,47c0,0,135,0,230,-76c0,0,96,-75,96,-187C758,197,758,67,629,2L545,104c0,0,49,30,81,75c0,0,32,44,32,82c0,0,0,16,-4,26c0,0,-64,58,-167,58c0,0,-97,0,-166,-50v-2c0,0,-67,-52,-67,-131c0,0,0,-116,132,-199c0,0,132,-84,334,-132l-32,-74Z"
id="f6_cc"
transform="scale(0.001,-0.001)"/>

<path d="M342,324c0,0,45,0,75,34c0,0,31,33,31,100V822H165l66,-58V390c0,0,32,-66,111,-66ZM853,-49L762,8V822H509l65,-58V455c0,0,0,-134,-51,-185c0,0,-52,-52,-127,-52c0,0,-98,0,-195,99c0,0,-97,99,-97,209V822H0l-45,76l14,31H1027l46,-76l-14,-31H823l66,-58V-39L853,-49Z"
id="f6_bo"
transform="scale(0.001,-0.001)"/>

<path d="M434,225c0,0,84,0,169,42c0,0,85,43,126,126V822H267c0,0,-64,-49,-64,-115c0,0,0,-79,90,-126c0,0,60,35,144,35l67,-6l75,-89L564,490l-51,7H493c0,0,-90,0,-142,-43c0,0,-52,-43,-52,-104c0,0,0,-60,51,-109c0,0,33,-16,84,-16ZM819,-49L729,8V197c0,0,-83,-76,-202,-76c0,0,-130,0,-237,91c0,0,-108,92,-108,196c0,0,0,72,53,128c0,0,-75,42,-115,97c0,0,-41,56,-41,113c0,0,0,38,22,76H0l-45,76l14,31H993l46,-76l-14,-31H790l66,-58V-39L819,-49Z"
id="f6_bc"
transform="scale(0.001,-0.001)"/>

<path d="M388,325c0,0,58,0,112,31c0,0,53,31,84,86V822H165l69,-58V408c0,0,47,-83,154,-83ZM674,-49L584,8V257c0,0,-61,-51,-141,-51c0,0,-125,0,-232,109c0,0,-107,108,-107,243V822H0l-45,76l14,31H848l46,-76L880,822H645l65,-58V-39L674,-49Z"
id="f6_bv"
transform="scale(0.001,-0.001)"/>

<path d="M-239,897c0,0,-82,61,-132,137c0,0,-50,75,-50,150c0,0,0,78,52,133c0,0,52,55,141,55c0,0,98,0,176,-64l-23,-69c0,0,-52,32,-104,32c0,0,-57,0,-95,-36c0,0,-38,-36,-38,-95c0,0,0,-115,117,-217l-44,-26Z"
id="f6_dr"
transform="scale(0.001,-0.001)"/>

<path d="M228,-49L138,8V822H0l-45,76l14,31H134c0,0,-91,92,-91,191c0,0,0,105,85,170c0,0,84,65,219,65c0,0,128,0,293,-76c0,0,165,-77,362,-263L958,966c0,0,-177,143,-303,210c0,0,-125,68,-244,68c0,0,-107,0,-175,-50c0,0,-68,-50,-68,-131c0,0,0,-61,49,-134H402l46,-76L434,822H199l65,-58V-39L228,-49Z"
id="f6_cu"
transform="scale(0.001,-0.001)"/>

<path d="M959,-49L869,8V367c0,0,-32,-13,-64,-13c0,0,-50,0,-110,25c0,0,23,-52,23,-109c0,0,0,-103,-70,-170c0,0,-70,-66,-182,-66c0,0,-110,0,-222,82c0,0,-111,83,-213,293l68,42c0,0,72,-155,152,-231c0,0,81,-76,178,-76c0,0,83,0,131,49c0,0,48,48,48,117c0,0,0,54,-30,100c0,0,-31,47,-91,65L325,391L257,512c0,0,68,53,156,56c0,0,140,72,140,179c0,0,0,69,-52,99c0,0,-4,1,-11,1c-19,0,-66,-4,-123,-30c0,0,-78,-35,-142,-96L150,823c0,0,119,117,253,117c0,0,98,0,175,-71c0,0,77,-70,77,-159c0,0,0,-103,-94,-180c0,0,39,-23,73,-56c0,0,52,-22,109,-22c0,0,77,0,126,38V822H727l-46,76l14,31h439l45,-76l-13,-31H930l66,-58V-39L959,-49Z"
id="f6_al"
transform="scale(0.001,-0.001)"/>

<path d="M266,150c0,0,-57,35,-120,104c0,0,-63,70,-89,131l41,60H211L194,822H0l-45,76l14,31H587l46,-76L619,822H255l66,-58l7,-319H688L721,328H339V180L266,150Z"
id="f6_lq"
transform="scale(0.001,-0.001)"/>

<path d="M761,293c0,0,127,0,169,94V532c0,0,-68,46,-145,46c0,0,-76,0,-121,-46c0,0,-45,-45,-45,-107c0,0,0,-61,44,-110c0,0,47,-22,98,-22ZM657,67c0,0,166,0,273,107v55c0,0,-45,-36,-111,-36c0,0,-110,0,-207,90c0,0,-97,90,-97,194c0,0,0,85,66,148c0,0,65,63,155,63l48,-5L930,603V822H376l62,-55V579c0,0,0,-60,-23,-102c0,0,-24,-42,-148,-190c0,0,66,-104,175,-162c0,0,108,-58,215,-58ZM1021,-49L930,8V53c0,0,-105,-83,-264,-83c0,0,-177,0,-339,128C327,98,165,226,90,429l34,77H296c0,0,19,39,19,102l-2,214H0l-45,76l14,31H1195l46,-76l-14,-31H992l65,-58V-39l-36,-10Z"
id="f6_ba"
transform="scale(0.001,-0.001)"/>

<path d="M163,-343V1123H281V-343Z"
id="f6_2s"
transform="scale(0.001,-0.001)"/>

<path d="M634,-49L249,296c0,0,-1,0,-3,0c-11,0,-48,1,-90,15c0,0,-51,16,-67,36l49,165l50,12l84,-98c0,0,125,31,191,104c0,0,66,73,66,165c0,0,0,109,-95,170c0,0,-2,0,-6,0C397,865,262,858,121,738L46,848c0,0,52,47,127,82c0,0,75,34,152,34c0,0,130,0,226,-94c0,0,95,-94,95,-218c0,0,0,-107,-77,-199c0,0,-77,-92,-216,-134L697,26L698,0L634,-49Z"
id="f6_n8"
transform="scale(0.001,-0.001)"/>

<path d="M516,-207L290,58c0,0,-44,5,-99,32c0,0,-55,28,-75,51l58,140l51,12L312,165l49,-3c0,0,100,0,168,47c0,0,67,48,67,118c0,0,0,53,-44,98c0,0,-43,44,-129,65L232,413L165,536c0,0,78,51,176,51c6,0,11,0,17,0c0,0,161,50,161,168c0,0,0,79,-65,114l-20,2c0,0,-69,0,-155,-37c0,0,-86,-36,-151,-93L53,848c0,0,51,49,130,82c0,0,80,34,159,34c0,0,118,0,203,-75c0,0,84,-75,84,-172c0,0,0,-110,-116,-181c0,0,97,-46,148,-112c0,0,51,-66,51,-137c0,0,0,-99,-88,-165c0,0,-88,-65,-237,-65L578,-132l1,-26l-63,-49Z"
id="f6_n9"
transform="scale(0.001,-0.001)"/>

<path d="M374,248c0,0,77,0,149,36c0,0,71,37,110,107V822H284c0,0,138,-96,138,-208c0,0,0,-151,-228,-192c0,0,29,-104,89,-158c0,0,41,-16,91,-16ZM723,-49L633,8V200c0,0,-69,-56,-170,-56c0,0,-122,0,-240,94c0,0,-118,94,-179,237l20,55c0,0,133,17,187,44c0,0,55,28,55,84c0,0,0,45,-30,81c0,0,-30,36,-99,83H0l-45,76l14,31H897l46,-76L929,822H694l65,-58V-39L723,-49Z"
id="f6_c0"
transform="scale(0.001,-0.001)"/>

<path d="M397,102c0,0,52,0,85,36c0,0,33,35,33,87c0,0,0,88,-110,221C405,446,296,307,296,217c0,0,0,-61,39,-101c0,0,35,-14,62,-14ZM451,3C451,3,351,3,268,88c0,0,-83,85,-83,182c0,0,0,107,131,274c0,0,-146,153,-346,324l61,69L81,891L373,610c0,0,87,99,318,330l82,-92C773,848,550,623,461,516c0,0,173,-188,173,-322c0,0,0,-87,-53,-139C581,55,527,3,451,3Z"
id="f6_na"
transform="scale(0.001,-0.001)"/>

<path d="M-10,1013c0,0,-122,70,-122,189c0,0,0,74,53,125c0,0,53,51,137,51c0,0,87,0,164,-73l-23,-61c0,0,-49,36,-109,36c0,0,-61,0,-98,-39c0,0,-38,-39,-38,-97c0,0,0,-55,46,-128l-10,-3Z"
id="f6_on"
transform="scale(0.001,-0.001)"/>

<path d="M827,-49L736,8V205c0,0,-84,-84,-209,-84c0,0,-130,0,-237,91c0,0,-108,92,-108,196c0,0,0,79,61,137C243,545,66,672,66,791c0,0,0,75,52,124c0,0,53,49,134,49c0,0,164,0,260,-237L451,694c0,0,-55,114,-119,163l-31,5c0,0,-44,0,-77,-32c0,0,-33,-31,-33,-78c0,0,0,-86,113,-165c0,0,60,27,133,27l67,-4l75,-89L564,490l-51,7H493c0,0,-90,0,-142,-43c0,0,-52,-43,-52,-104c0,0,0,-60,51,-109c0,0,33,-16,84,-16c0,0,89,0,177,47c0,0,89,47,125,137V822H567l-46,76l14,31h466l46,-76l-14,-31H798l65,-58V-39L827,-49Z"
id="f6_bs"
transform="scale(0.001,-0.001)"/>

<path d="M675,-45L556,338c0,0,-73,-107,-189,-107c0,0,-71,0,-146,47c0,0,-76,47,-118,128c0,0,-42,80,-42,173c0,0,0,165,107,371L287,903C287,903,177,663,177,516c0,0,0,-79,34,-137c0,0,38,-38,95,-38c0,0,59,0,113,42c0,0,55,42,76,104L445,636l32,41L636,637c0,0,4,-73,-29,-168L761,2L749,-22L675,-45Z"
id="f6_nb"
transform="scale(0.001,-0.001)"/>

<path d="M725,307c0,0,-95,0,-218,78c0,0,-123,78,-188,78c0,0,-54,0,-95,-34c0,0,-41,-34,-73,-100L93,362c0,0,38,88,101,146c0,0,63,59,148,59c0,0,90,0,214,-78c0,0,124,-79,188,-79c0,0,63,0,106,34c0,0,42,33,85,104l60,-40c0,0,-32,-66,-101,-134c0,0,-70,-67,-169,-67Z"
id="f7_4r"
transform="scale(0.001,-0.001)"/>

<path d="M423,92c0,0,97,0,159,62c0,0,62,62,62,157c0,0,0,97,-64,160c0,0,-64,64,-161,64c0,0,-96,0,-158,-63c0,0,-62,-62,-62,-156c0,0,0,-58,27,-111c0,0,27,-54,81,-84c0,0,54,-29,116,-29Zm0,552c0,0,78,0,127,49c0,0,49,49,49,120c0,0,0,74,-50,124c0,0,-51,51,-128,51c0,0,-77,0,-127,-50c0,0,-51,-49,-51,-118c0,0,0,-77,50,-126c0,0,50,-50,130,-50ZM422,-18c0,0,-162,0,-261,95c0,0,-99,96,-99,239c0,0,0,107,54,179c0,0,54,72,154,98c0,0,-84,31,-124,87c0,0,-40,57,-40,136c0,0,0,119,85,201c0,0,86,81,229,81c0,0,143,0,230,-83c0,0,87,-83,87,-203c0,0,0,-76,-40,-132c0,0,-39,-56,-121,-87c0,0,101,-33,154,-106c0,0,52,-73,52,-174c0,0,0,-141,-99,-236c0,0,-99,-95,-261,-95Z"
id="f8_s"
transform="scale(0.001,-0.001)"/>


</defs>
</svg>