<?xml version="1.0" encoding="UTF-8" standalone="no"?>
<!DOCTYPE svg PUBLIC "-//W3C//DTD SVG 1.1//EN"
"http://www.w3.org/Graphics/SVG/1.1/DTD/svg11.dtd">
<svg viewBox="0 0 641 909" version="1.1" xmlns="http://www.w3.org/2000/svg" xmlns:xlink="http://www.w3.org/1999/xlink">
<defs>
<clipPath id="c0_2"><path d="M0,869.7V39.3H641.7V869.7Z"/></clipPath>
<clipPath id="c1_2"><path d="M0,868.9V39.3H641.7V868.9Z"/></clipPath>
<clipPath id="c2_2"><path d="M134.5,179.3v-48H481.2v48Z"/></clipPath>
<clipPath id="c3_2"><path d="M76.3,236.7V180.1h57.4v56.6Z"/></clipPath>
<clipPath id="c4_2"><path d="M134.5,236.7V206H481.2v30.7Z"/></clipPath>
<clipPath id="c5_2"><path d="M482,236.7V180.1h84.2v56.6Z"/></clipPath>
<clipPath id="c6_2"><path d="M76.3,268.2V237.5h57.4v30.7Z"/></clipPath>
<clipPath id="c7_2"><path d="M134.5,268.2V237.5H481.2v30.7Z"/></clipPath>
<clipPath id="c8_2"><path d="M482,268.2V237.5h84.2v30.7Z"/></clipPath>
<clipPath id="c9_2"><path d="M76.3,299.6V268.9h57.4v30.7Z"/></clipPath>
<clipPath id="ca_2"><path d="M134.5,299.6V268.9H481.2v30.7Z"/></clipPath>
<clipPath id="cb_2"><path d="M482,299.6V268.9h84.2v30.7Z"/></clipPath>
<clipPath id="cc_2"><path d="M76.3,331.1V300.4h57.4v30.7Z"/></clipPath>
<clipPath id="cd_2"><path d="M134.5,331.1V300.4H481.2v30.7Z"/></clipPath>
<clipPath id="ce_2"><path d="M482,331.1V300.4h84.2v30.7Z"/></clipPath>
<clipPath id="cf_2"><path d="M76.3,362.5V331.8h57.4v30.7Z"/></clipPath>
<clipPath id="cg_2"><path d="M134.5,362.5V331.8H481.2v30.7Z"/></clipPath>
<clipPath id="ch_2"><path d="M482,362.5V331.8h84.2v30.7Z"/></clipPath>
<clipPath id="ci_2"><path d="M76.3,394V363.3h57.4V394Z"/></clipPath>
<clipPath id="cj_2"><path d="M134.5,394V363.3H481.2V394Z"/></clipPath>
<clipPath id="ck_2"><path d="M482,394V363.3h84.2V394Z"/></clipPath>
<clipPath id="cl_2"><path d="M76.3,425.4V394.8h57.4v30.6Z"/></clipPath>
<clipPath id="cm_2"><path d="M134.5,425.4V394.8H481.2v30.6Z"/></clipPath>
<clipPath id="cn_2"><path d="M482,425.4V394.8h84.2v30.6Z"/></clipPath>
<clipPath id="co_2"><path d="M76.3,456.9V426.2h57.4v30.7Z"/></clipPath>
<clipPath id="cp_2"><path d="M134.5,456.9V426.2H481.2v30.7Z"/></clipPath>
<clipPath id="cq_2"><path d="M482,456.9V426.2h84.2v30.7Z"/></clipPath>
<clipPath id="cr_2"><path d="M76.3,488.3V457.7h57.4v30.6Z"/></clipPath>
<clipPath id="cs_2"><path d="M134.5,488.3V457.7H481.2v30.6Z"/></clipPath>
<clipPath id="ct_2"><path d="M482,488.3V457.7h84.2v30.6Z"/></clipPath>
<clipPath id="cu_2"><path d="M76.3,519.8V489.1h57.4v30.7Z"/></clipPath>
<clipPath id="cv_2"><path d="M134.5,519.8V489.1H481.2v30.7Z"/></clipPath>
<clipPath id="cw_2"><path d="M482,519.8V489.1h84.2v30.7Z"/></clipPath>
<clipPath id="cx_2"><path d="M76.3,551.2V520.6h57.4v30.6Z"/></clipPath>
<clipPath id="cy_2"><path d="M134.5,551.2V520.6H481.2v30.6Z"/></clipPath>
<clipPath id="cz_2"><path d="M482,551.2V520.6h84.2v30.6Z"/></clipPath>
<clipPath id="c10_2"><path d="M76.3,582.7V552h57.4v30.7Z"/></clipPath>
<clipPath id="c11_2"><path d="M134.5,582.7V552H481.2v30.7Z"/></clipPath>
<clipPath id="c12_2"><path d="M482,582.7V552h84.2v30.7Z"/></clipPath>
<clipPath id="c13_2"><path d="M76.3,614.1V583.5h57.4v30.6Z"/></clipPath>
<clipPath id="c14_2"><path d="M134.5,614.1V583.5H481.2v30.6Z"/></clipPath>
<clipPath id="c15_2"><path d="M482,614.1V583.5h84.2v30.6Z"/></clipPath>
<clipPath id="c16_2"><path d="M76.3,645.6V614.9h57.4v30.7Z"/></clipPath>
<clipPath id="c17_2"><path d="M134.5,645.6V614.9H481.2v30.7Z"/></clipPath>
<clipPath id="c18_2"><path d="M482,645.6V614.9h84.2v30.7Z"/></clipPath>
<clipPath id="c19_2"><path d="M76.3,677.1V646.4h57.4v30.7Z"/></clipPath>
<clipPath id="c1a_2"><path d="M134.5,677.1V646.4H481.2v30.7Z"/></clipPath>
<clipPath id="c1b_2"><path d="M482,677.1V646.4h84.2v30.7Z"/></clipPath>
<clipPath id="c1c_2"><path d="M76.3,708.5V677.8h57.4v30.7Z"/></clipPath>
<clipPath id="c1d_2"><path d="M134.5,708.5V677.8H481.2v30.7Z"/></clipPath>
<clipPath id="c1e_2"><path d="M482,708.5V677.8h84.2v30.7Z"/></clipPath>
<clipPath id="c1f_2"><path d="M76.3,740V709.3h57.4V740Z"/></clipPath>
<clipPath id="c1g_2"><path d="M134.5,740V709.3H481.2V740Z"/></clipPath>
<clipPath id="c1h_2"><path d="M482,740V709.3h84.2V740Z"/></clipPath>
<clipPath id="c1i_2"><path d="M76.3,771.4V740.7h57.4v30.7Z"/></clipPath>
<clipPath id="c1j_2"><path d="M134.5,771.4V740.7H481.2v30.7Z"/></clipPath>
<clipPath id="c1k_2"><path d="M482,771.4V740.7h84.2v30.7Z"/></clipPath>
<style type="text/css"><![CDATA[
.g0_2{
fill: #FFFFFF;
}
.g1_2{
fill: #4DD0E1;
}
.g2_2{
fill: #E0F7FA;
}
.g3_2{
fill: #CCCCCC;
}
]]></style>
</defs>
<g clip-path="url(#c0_2)">
<path d="M0,39.3H641.7v4152H0V39.3Z" class="g0_2"/>
<path d="M0,39.3H641.7v4152H0V39.3Z" class="g0_2"/>
</g>
<path d="M0,39.3H641.7V868.9H0V39.3Z" class="g0_2"/>
<g clip-path="url(#c1_2)">
<path d="M0,114.8H641.7V869.7H0V114.8Z" class="g0_2"/>
</g>
<path d="M133.7,130.5H481.2v48.8H133.7V130.5Z" class="g1_2"/>
<path d="M133.7,179.3H481.2v57.4H133.7V179.3Z" class="g0_2"/>
<path d="M133.7,236.7H481.2v31.5H133.7V236.7Z" class="g2_2"/>
<path d="M133.7,268.2H481.2v31.4H133.7V268.2Z" class="g0_2"/>
<path d="M133.7,299.6H481.2v31.5H133.7V299.6Z" class="g2_2"/>
<path d="M133.7,331.1H481.2v31.4H133.7V331.1Z" class="g0_2"/>
<path d="M133.7,362.5H481.2V394H133.7V362.5Z" class="g2_2"/>
<path d="M133.7,394H481.2v31.4H133.7V394Z" class="g0_2"/>
<path d="M133.7,425.4H481.2v31.5H133.7V425.4Z" class="g2_2"/>
<path d="M133.7,456.9H481.2v31.4H133.7V456.9Z" class="g0_2"/>
<path d="M133.7,488.3H481.2v31.5H133.7V488.3Z" class="g2_2"/>
<path d="M133.7,519.8H481.2v31.4H133.7V519.8Z" class="g0_2"/>
<path d="M133.7,551.2H481.2v31.5H133.7V551.2Z" class="g2_2"/>
<path d="M133.7,582.7H481.2v31.4H133.7V582.7Z" class="g0_2"/>
<path d="M133.7,614.1H481.2v31.5H133.7V614.1Z" class="g2_2"/>
<path d="M133.7,645.6H481.2v31.5H133.7V645.6Z" class="g0_2"/>
<path d="M133.7,677.1H481.2v31.4H133.7V677.1Z" class="g2_2"/>
<path d="M133.7,708.5H481.2V740H133.7V708.5Z" class="g0_2"/>
<path d="M133.7,740H481.2v31.4H133.7V740Z" class="g2_2"/>
<path d="M481.2,771.4H567v.8H481.2v-.8Z" class="g3_2"/>
<path d="M566.2,740h.8v32.2h-.8V740Z" class="g3_2"/>
<path d="M133.7,771.4H482v.8H133.7v-.8Z" class="g3_2"/>
<path d="M481.2,740h.8v32.2h-.8V740Z" class="g3_2"/>
<path d="M75.5,771.4h59v.8h-59v-.8Z" class="g3_2"/>
<path d="M75.5,740h.8v32.2h-.8V740Z" class="g3_2"/>
<path d="M133.7,740h.8v32.2h-.8V740Z" class="g3_2"/>
<path d="M481.2,740H567v.7H481.2V740Z" class="g3_2"/>
<path d="M566.2,708.5h.8v32.2h-.8V708.5Z" class="g3_2"/>
<path d="M133.7,740H482v.7H133.7V740Z" class="g3_2"/>
<path d="M481.2,708.5h.8v32.2h-.8V708.5Z" class="g3_2"/>
<path d="M75.5,740h59v.7h-59V740Z" class="g3_2"/>
<path d="M75.5,708.5h.8v32.2h-.8V708.5Z" class="g3_2"/>
<path d="M133.7,708.5h.8v32.2h-.8V708.5Z" class="g3_2"/>
<path d="M481.2,708.5H567v.8H481.2v-.8Z" class="g3_2"/>
<path d="M566.2,677.1h.8v32.2h-.8V677.1Z" class="g3_2"/>
<path d="M133.7,708.5H482v.8H133.7v-.8Z" class="g3_2"/>
<path d="M481.2,677.1h.8v32.2h-.8V677.1Z" class="g3_2"/>
<path d="M75.5,708.5h59v.8h-59v-.8Z" class="g3_2"/>
<path d="M75.5,677.1h.8v32.2h-.8V677.1Z" class="g3_2"/>
<path d="M133.7,677.1h.8v32.2h-.8V677.1Z" class="g3_2"/>
<path d="M481.2,677.1H567v.7H481.2v-.7Z" class="g3_2"/>
<path d="M566.2,645.6h.8v32.2h-.8V645.6Z" class="g3_2"/>
<path d="M133.7,677.1H482v.7H133.7v-.7Z" class="g3_2"/>
<path d="M481.2,645.6h.8v32.2h-.8V645.6Z" class="g3_2"/>
<path d="M75.5,677.1h59v.7h-59v-.7Z" class="g3_2"/>
<path d="M75.5,645.6h.8v32.2h-.8V645.6Z" class="g3_2"/>
<path d="M133.7,645.6h.8v32.2h-.8V645.6Z" class="g3_2"/>
<path d="M481.2,645.6H567v.8H481.2v-.8Z" class="g3_2"/>
<path d="M566.2,614.1h.8v32.3h-.8V614.1Z" class="g3_2"/>
<path d="M133.7,645.6H482v.8H133.7v-.8Z" class="g3_2"/>
<path d="M481.2,614.1h.8v32.3h-.8V614.1Z" class="g3_2"/>
<path d="M75.5,645.6h59v.8h-59v-.8Z" class="g3_2"/>
<path d="M75.5,614.1h.8v32.3h-.8V614.1Z" class="g3_2"/>
<path d="M133.7,614.1h.8v32.3h-.8V614.1Z" class="g3_2"/>
<path d="M481.2,614.1H567v.8H481.2v-.8Z" class="g3_2"/>
<path d="M566.2,582.7h.8v32.2h-.8V582.7Z" class="g3_2"/>
<path d="M133.7,614.1H482v.8H133.7v-.8Z" class="g3_2"/>
<path d="M481.2,582.7h.8v32.2h-.8V582.7Z" class="g3_2"/>
<path d="M75.5,614.1h59v.8h-59v-.8Z" class="g3_2"/>
<path d="M75.5,582.7h.8v32.2h-.8V582.7Z" class="g3_2"/>
<path d="M133.7,582.7h.8v32.2h-.8V582.7Z" class="g3_2"/>
<path d="M481.2,582.7H567v.8H481.2v-.8Z" class="g3_2"/>
<path d="M566.2,551.2h.8v32.3h-.8V551.2Z" class="g3_2"/>
<path d="M133.7,582.7H482v.8H133.7v-.8Z" class="g3_2"/>
<path d="M481.2,551.2h.8v32.3h-.8V551.2Z" class="g3_2"/>
<path d="M75.5,582.7h59v.8h-59v-.8Z" class="g3_2"/>
<path d="M75.5,551.2h.8v32.3h-.8V551.2Z" class="g3_2"/>
<path d="M133.7,551.2h.8v32.3h-.8V551.2Z" class="g3_2"/>
<path d="M481.2,551.2H567v.8H481.2v-.8Z" class="g3_2"/>
<path d="M566.2,519.8h.8V552h-.8V519.8Z" class="g3_2"/>
<path d="M133.7,551.2H482v.8H133.7v-.8Z" class="g3_2"/>
<path d="M481.2,519.8h.8V552h-.8V519.8Z" class="g3_2"/>
<path d="M75.5,551.2h59v.8h-59v-.8Z" class="g3_2"/>
<path d="M75.5,519.8h.8V552h-.8V519.8Z" class="g3_2"/>
<path d="M133.7,519.8h.8V552h-.8V519.8Z" class="g3_2"/>
<path d="M481.2,519.8H567v.8H481.2v-.8Z" class="g3_2"/>
<path d="M566.2,488.3h.8v32.3h-.8V488.3Z" class="g3_2"/>
<path d="M133.7,519.8H482v.8H133.7v-.8Z" class="g3_2"/>
<path d="M481.2,488.3h.8v32.3h-.8V488.3Z" class="g3_2"/>
<path d="M75.5,519.8h59v.8h-59v-.8Z" class="g3_2"/>
<path d="M75.5,488.3h.8v32.3h-.8V488.3Z" class="g3_2"/>
<path d="M133.7,488.3h.8v32.3h-.8V488.3Z" class="g3_2"/>
<path d="M481.2,488.3H567v.8H481.2v-.8Z" class="g3_2"/>
<path d="M566.2,456.9h.8v32.2h-.8V456.9Z" class="g3_2"/>
<path d="M133.7,488.3H482v.8H133.7v-.8Z" class="g3_2"/>
<path d="M481.2,456.9h.8v32.2h-.8V456.9Z" class="g3_2"/>
<path d="M75.5,488.3h59v.8h-59v-.8Z" class="g3_2"/>
<path d="M75.5,456.9h.8v32.2h-.8V456.9Z" class="g3_2"/>
<path d="M133.7,456.9h.8v32.2h-.8V456.9Z" class="g3_2"/>
<path d="M481.2,456.9H567v.8H481.2v-.8Z" class="g3_2"/>
<path d="M566.2,425.4h.8v32.3h-.8V425.4Z" class="g3_2"/>
<path d="M133.7,456.9H482v.8H133.7v-.8Z" class="g3_2"/>
<path d="M481.2,425.4h.8v32.3h-.8V425.4Z" class="g3_2"/>
<path d="M75.5,456.9h59v.8h-59v-.8Z" class="g3_2"/>
<path d="M75.5,425.4h.8v32.3h-.8V425.4Z" class="g3_2"/>
<path d="M133.7,425.4h.8v32.3h-.8V425.4Z" class="g3_2"/>
<path d="M481.2,425.4H567v.8H481.2v-.8Z" class="g3_2"/>
<path d="M566.2,394h.8v32.2h-.8V394Z" class="g3_2"/>
<path d="M133.7,425.4H482v.8H133.7v-.8Z" class="g3_2"/>
<path d="M481.2,394h.8v32.2h-.8V394Z" class="g3_2"/>
<path d="M75.5,425.4h59v.8h-59v-.8Z" class="g3_2"/>
<path d="M75.5,394h.8v32.2h-.8V394Z" class="g3_2"/>
<path d="M133.7,394h.8v32.2h-.8V394Z" class="g3_2"/>
<path d="M481.2,394H567v.8H481.2V394Z" class="g3_2"/>
<path d="M566.2,362.5h.8v32.3h-.8V362.5Z" class="g3_2"/>
<path d="M133.7,394H482v.8H133.7V394Z" class="g3_2"/>
<path d="M481.2,362.5h.8v32.3h-.8V362.5Z" class="g3_2"/>
<path d="M75.5,394h59v.8h-59V394Z" class="g3_2"/>
<path d="M75.5,362.5h.8v32.3h-.8V362.5Z" class="g3_2"/>
<path d="M133.7,362.5h.8v32.3h-.8V362.5Z" class="g3_2"/>
<path d="M481.2,362.5H567v.8H481.2v-.8Z" class="g3_2"/>
<path d="M566.2,331.1h.8v32.2h-.8V331.1Z" class="g3_2"/>
<path d="M133.7,362.5H482v.8H133.7v-.8Z" class="g3_2"/>
<path d="M481.2,331.1h.8v32.2h-.8V331.1Z" class="g3_2"/>
<path d="M75.5,362.5h59v.8h-59v-.8Z" class="g3_2"/>
<path d="M75.5,331.1h.8v32.2h-.8V331.1Z" class="g3_2"/>
<path d="M133.7,331.1h.8v32.2h-.8V331.1Z" class="g3_2"/>
<path d="M481.2,331.1H567v.7H481.2v-.7Z" class="g3_2"/>
<path d="M566.2,299.6h.8v32.2h-.8V299.6Z" class="g3_2"/>
<path d="M133.7,331.1H482v.7H133.7v-.7Z" class="g3_2"/>
<path d="M481.2,299.6h.8v32.2h-.8V299.6Z" class="g3_2"/>
<path d="M75.5,331.1h59v.7h-59v-.7Z" class="g3_2"/>
<path d="M75.5,299.6h.8v32.2h-.8V299.6Z" class="g3_2"/>
<path d="M133.7,299.6h.8v32.2h-.8V299.6Z" class="g3_2"/>
<path d="M481.2,299.6H567v.8H481.2v-.8Z" class="g3_2"/>
<path d="M566.2,268.2h.8v32.2h-.8V268.2Z" class="g3_2"/>
<path d="M133.7,299.6H482v.8H133.7v-.8Z" class="g3_2"/>
<path d="M481.2,268.2h.8v32.2h-.8V268.2Z" class="g3_2"/>
<path d="M75.5,299.6h59v.8h-59v-.8Z" class="g3_2"/>
<path d="M75.5,268.2h.8v32.2h-.8V268.2Z" class="g3_2"/>
<path d="M133.7,268.2h.8v32.2h-.8V268.2Z" class="g3_2"/>
<path d="M481.2,268.2H567v.7H481.2v-.7Z" class="g3_2"/>
<path d="M566.2,236.7h.8v32.2h-.8V236.7Z" class="g3_2"/>
<path d="M133.7,268.2H482v.7H133.7v-.7Z" class="g3_2"/>
<path d="M481.2,236.7h.8v32.2h-.8V236.7Z" class="g3_2"/>
<path d="M75.5,268.2h59v.7h-59v-.7Z" class="g3_2"/>
<path d="M75.5,236.7h.8v32.2h-.8V236.7Z" class="g3_2"/>
<path d="M133.7,236.7h.8v32.2h-.8V236.7Z" class="g3_2"/>
<path d="M481.2,236.7H567v.8H481.2v-.8Z" class="g3_2"/>
<path d="M566.2,179.3h.8v58.2h-.8V179.3Z" class="g3_2"/>
<path d="M133.7,236.7H482v.8H133.7v-.8Z" class="g3_2"/>
<path d="M481.2,179.3h.8v58.2h-.8V179.3Z" class="g3_2"/>
<path d="M75.5,236.7h59v.8h-59v-.8Z" class="g3_2"/>
<path d="M75.5,179.3h.8v58.2h-.8V179.3Z" class="g3_2"/>
<path d="M133.7,179.3h.8v58.2h-.8V179.3Z" class="g3_2"/>
<path d="M481.2,130.5H567v.8H481.2v-.8Z" class="g3_2"/>
<path d="M481.2,179.3H567v.8H481.2v-.8Z" class="g3_2"/>
<path d="M566.2,130.5h.8v49.6h-.8V130.5Z" class="g3_2"/>
<path d="M133.7,130.5H482v.8H133.7v-.8Z" class="g3_2"/>
<path d="M133.7,179.3H482v.8H133.7v-.8Z" class="g3_2"/>
<path d="M481.2,130.5h.8v49.6h-.8V130.5Z" class="g3_2"/>
<path d="M75.5,130.5h59v.8h-59v-.8Z" class="g3_2"/>
<path d="M75.5,179.3h59v.8h-59v-.8Z" class="g3_2"/>
<path d="M75.5,130.5h.8v49.6h-.8V130.5Z" class="g3_2"/>
<path d="M133.7,130.5h.8v49.6h-.8V130.5Z" class="g3_2"/>
<g clip-path="url(#c2_2)">
<g fill="#000000" >
<use xlink:href="#f0_al" transform="matrix(20.6,0,0,20.6,231.2,163.6)" />
<use xlink:href="#f0_bt" transform="matrix(20.6,0,0,20.6,254.5,163.6)" />
<use xlink:href="#f0_cw" transform="matrix(20.6,0,0,20.6,272.5,163.4)" />
<use xlink:href="#f0_du" transform="matrix(20.6,0,0,20.6,271.8,163.6)" />
<use xlink:href="#f0_bz" transform="matrix(20.6,0,0,20.6,295.2,163.6)" />
<use xlink:href="#f0_ct" transform="matrix(20.6,0,0,20.6,314.8,163.6)" />
<use xlink:href="#f0_nu" transform="matrix(20.6,0,0,20.6,323.1,163.6)" />
<use xlink:href="#f0_bo" transform="matrix(20.6,0,0,20.6,331.4,163.6)" />
<use xlink:href="#f0_b9" transform="matrix(20.6,0,0,20.6,352.5,163.6)" />
<use xlink:href="#f0_ct" transform="matrix(20.6,0,0,20.6,375.3,163.6)" />
</g>
</g>
<g clip-path="url(#c3_2)">
<g fill="#000000" >
<use xlink:href="#f0_1n" transform="matrix(12.4,0,0,12.4,77.8,200.5)" />
<use xlink:href="#f0_1m" transform="matrix(12.4,0,0,12.4,87.9,200.5)" />
<use xlink:href="#f0_m" transform="matrix(12.4,0,0,12.4,99.9,200.5)" />
<use xlink:href="#f0_1i" transform="matrix(12.4,0,0,12.4,77.8,226.5)" />
<use xlink:href="#f0_1j" transform="matrix(12.4,0,0,12.4,91.7,226.5)" />
</g>
</g>
<g clip-path="url(#c4_2)">
<g fill="#000000" >
<use xlink:href="#f0_1i" transform="matrix(12.4,0,0,12.4,136,226.5)" />
<use xlink:href="#f0_15" transform="matrix(12.4,0,0,12.4,149.5,226.5)" />
<use xlink:href="#f0_1h" transform="matrix(12.4,0,0,12.4,162.1,226.5)" />
<use xlink:href="#f0_19" transform="matrix(12.4,0,0,12.4,178.7,226.5)" />
</g>
</g>
<g clip-path="url(#c5_2)">
<g fill="#000000" >
<use xlink:href="#f0_1k" transform="matrix(12.4,0,0,12.4,483.6,200.5)" />
<use xlink:href="#f0_15" transform="matrix(12.4,0,0,12.4,493.2,200.5)" />
<use xlink:href="#f0_1b" transform="matrix(12.4,0,0,12.4,506.2,200.5)" />
<use xlink:href="#f0_19" transform="matrix(12.4,0,0,12.4,518.3,200.5)" />
<use xlink:href="#f0_m" transform="matrix(12.4,0,0,12.4,528.9,200.5)" />
<use xlink:href="#f0_1i" transform="matrix(12.4,0,0,12.4,483.6,226.5)" />
<use xlink:href="#f0_1j" transform="matrix(12.4,0,0,12.4,497.5,226.5)" />
<use xlink:href="#f0_m" transform="matrix(12.4,0,0,12.4,509.8,226.5)" />
</g>
</g>
<g clip-path="url(#c6_2)">
<g fill="#000000" >
<use xlink:href="#f0_p" transform="matrix(12.4,0,0,12.4,123.5,257.9)" />
</g>
</g>
<g clip-path="url(#c7_2)">
<g fill="#000000" >
<use xlink:href="#f0_c8" transform="matrix(12.4,0,0,12.4,136,257.9)" />
<use xlink:href="#f0_ct" transform="matrix(12.4,0,0,12.4,150,257.9)" />
<use xlink:href="#f0_nn" transform="matrix(12.4,0,0,12.4,155,257.9)" />
<use xlink:href="#f0_ke" transform="matrix(12.4,0,0,12.4,155,257.9)" />
<use xlink:href="#f0_bp" transform="matrix(12.4,0,0,12.4,167.5,257.9)" />
<use xlink:href="#f0_bf" transform="matrix(12.4,0,0,12.4,183.4,257.9)" />
<use xlink:href="#f0_d4" transform="matrix(12.4,0,0,12.4,196.1,257.9)" />
<use xlink:href="#f0_bt" transform="matrix(12.4,0,0,12.4,202.3,257.9)" />
<use xlink:href="#f0_c7" transform="matrix(12.4,0,0,12.4,212.6,257.9)" />
<use xlink:href="#f0_b9" transform="matrix(12.4,0,0,12.4,223.3,257.9)" />
<use xlink:href="#f0_ct" transform="matrix(12.4,0,0,12.4,237,257.9)" />
<use xlink:href="#f0_c1" transform="matrix(12.4,0,0,12.4,241.9,257.9)" />
</g>
</g>
<g clip-path="url(#c8_2)">
<g fill="#000000" >
<use xlink:href="#f0_p" transform="matrix(12.4,0,0,12.4,483.6,257.9)" />
</g>
</g>
<g clip-path="url(#c9_2)">
<g fill="#000000" >
<use xlink:href="#f0_q" transform="matrix(12.4,0,0,12.4,120.3,289.4)" />
</g>
</g>
<g clip-path="url(#ca_2)">
<g fill="#000000" >
<use xlink:href="#f0_bz" transform="matrix(12.4,0,0,12.4,136,289.4)" />
<use xlink:href="#f0_dj" transform="matrix(12.4,0,0,12.4,142.6,289.8)" />
<use xlink:href="#f0_e1" transform="matrix(12.4,0,0,12.4,147.8,289.4)" />
<use xlink:href="#f0_bo" transform="matrix(12.4,0,0,12.4,163.5,289.4)" />
<use xlink:href="#f0_bz" transform="matrix(12.4,0,0,12.4,176.1,289.4)" />
<use xlink:href="#f0_d8" transform="matrix(12.4,0,0,12.4,187.9,289.4)" />
<use xlink:href="#f0_b9" transform="matrix(12.4,0,0,12.4,192.9,289.4)" />
<use xlink:href="#f0_ct" transform="matrix(12.4,0,0,12.4,206.6,289.4)" />
<use xlink:href="#f0_c1" transform="matrix(12.4,0,0,12.4,211.5,289.4)" />
<use xlink:href="#f0_cc" transform="matrix(12.4,0,0,12.4,223.9,289.4)" />
<use xlink:href="#f0_bz" transform="matrix(12.4,0,0,12.4,234.2,289.4)" />
<use xlink:href="#f0_d4" transform="matrix(12.4,0,0,12.4,246.1,289.4)" />
<use xlink:href="#f0_dj" transform="matrix(12.4,0,0,12.4,244.9,290.1)" />
<use xlink:href="#f0_e6" transform="matrix(12.4,0,0,12.4,251,289.4)" />
<use xlink:href="#f0_ct" transform="matrix(12.4,0,0,12.4,261.6,289.4)" />
<use xlink:href="#f0_bo" transform="matrix(12.4,0,0,12.4,266.6,289.4)" />
<use xlink:href="#f0_d8" transform="matrix(12.4,0,0,12.4,279.3,289.4)" />
<use xlink:href="#f0_cb" transform="matrix(12.4,0,0,12.4,289.2,289.4)" />
<use xlink:href="#f0_d4" transform="matrix(12.4,0,0,12.4,302.5,289.4)" />
<use xlink:href="#f0_ll" transform="matrix(12.4,0,0,12.4,307.4,289.4)" />
<use xlink:href="#f0_c0" transform="matrix(12.4,0,0,12.4,313,289.4)" />
<use xlink:href="#f0_ct" transform="matrix(12.4,0,0,12.4,324.1,289.4)" />
<use xlink:href="#f0_c1" transform="matrix(12.4,0,0,12.4,329.1,289.4)" />
<use xlink:href="#f0_ct" transform="matrix(12.4,0,0,12.4,336.5,289.4)" />
<use xlink:href="#f0_8l" transform="matrix(12.4,0,0,12.4,341.4,289.4)" />
</g>
</g>
<g clip-path="url(#cb_2)">
<g fill="#000000" >
<use xlink:href="#f0_q" transform="matrix(12.4,0,0,12.4,483.6,289.4)" />
</g>
</g>
<g clip-path="url(#cc_2)">
<g fill="#000000" >
<use xlink:href="#f0_r" transform="matrix(12.4,0,0,12.4,121.1,320.8)" />
</g>
</g>
<g clip-path="url(#cd_2)">
<g fill="#000000" >
<use xlink:href="#f0_bt" transform="matrix(12.4,0,0,12.4,136,320.8)" />
<use xlink:href="#f0_c7" transform="matrix(12.4,0,0,12.4,146.4,320.8)" />
<use xlink:href="#f0_b9" transform="matrix(12.4,0,0,12.4,157,320.8)" />
<use xlink:href="#f0_ct" transform="matrix(12.4,0,0,12.4,170.7,320.8)" />
<use xlink:href="#f0_c1" transform="matrix(12.4,0,0,12.4,175.7,320.8)" />
<use xlink:href="#f0_bg" transform="matrix(12.4,0,0,12.4,188.1,320.8)" />
<use xlink:href="#f0_bv" transform="matrix(12.4,0,0,12.4,200.7,320.8)" />
<use xlink:href="#f0_bt" transform="matrix(12.4,0,0,12.4,211.2,320.8)" />
<use xlink:href="#f0_d4" transform="matrix(12.4,0,0,12.4,221.6,320.8)" />
<use xlink:href="#f0_cb" transform="matrix(12.4,0,0,12.4,226.5,320.8)" />
<use xlink:href="#f0_d4" transform="matrix(12.4,0,0,12.4,239.7,320.8)" />
<use xlink:href="#f0_cb" transform="matrix(12.4,0,0,12.4,244.6,320.8)" />
<use xlink:href="#f0_ct" transform="matrix(12.4,0,0,12.4,257.8,320.8)" />
<use xlink:href="#f0_c1" transform="matrix(12.4,0,0,12.4,262.7,320.8)" />
<use xlink:href="#f0_d4" transform="matrix(12.4,0,0,12.4,269.8,320.8)" />
<use xlink:href="#f0_cb" transform="matrix(12.4,0,0,12.4,275.1,320.8)" />
<use xlink:href="#f0_cw" transform="matrix(12.4,0,0,12.4,288.7,320.8)" />
<use xlink:href="#f0_ba" transform="matrix(12.4,0,0,12.4,288.3,320.8)" />
<use xlink:href="#f0_nt" transform="matrix(12.4,0,0,12.4,308,320.8)" />
<use xlink:href="#f0_bz" transform="matrix(12.4,0,0,12.4,313,320.8)" />
<use xlink:href="#f0_c3" transform="matrix(12.4,0,0,12.4,324.8,320.8)" />
<use xlink:href="#f0_bp" transform="matrix(12.4,0,0,12.4,337.7,320.8)" />
<use xlink:href="#f0_d4" transform="matrix(12.4,0,0,12.4,348.7,320.8)" />
<use xlink:href="#f0_cc" transform="matrix(12.4,0,0,12.4,353.6,320.8)" />
<use xlink:href="#f0_d5" transform="matrix(12.4,0,0,12.4,364.2,320.8)" />
</g>
</g>
<g clip-path="url(#ce_2)">
<g fill="#000000" >
<use xlink:href="#f0_r" transform="matrix(12.4,0,0,12.4,483.6,320.8)" />
</g>
</g>
<g clip-path="url(#cf_2)">
<g fill="#000000" >
<use xlink:href="#f0_s" transform="matrix(12.4,0,0,12.4,120.3,352.3)" />
</g>
</g>
<g clip-path="url(#cg_2)">
<g fill="#000000" >
<use xlink:href="#f0_ef" transform="matrix(12.4,0,0,12.4,136,352.3)" />
<use xlink:href="#f0_cv" transform="matrix(12.4,0,0,12.4,148.6,352.3)" />
<use xlink:href="#f0_bt" transform="matrix(12.4,0,0,12.4,158.5,352.3)" />
<use xlink:href="#f0_ct" transform="matrix(12.4,0,0,12.4,168.9,352.3)" />
<use xlink:href="#f0_b9" transform="matrix(12.4,0,0,12.4,173.8,352.3)" />
<use xlink:href="#f0_d8" transform="matrix(12.4,0,0,12.4,187.5,352.3)" />
<use xlink:href="#f0_ch" transform="matrix(12.4,0,0,12.4,192.5,352.3)" />
<use xlink:href="#f0_ct" transform="matrix(12.4,0,0,12.4,203.7,352.3)" />
<use xlink:href="#f0_by" transform="matrix(12.4,0,0,12.4,213.6,352.3)" />
<use xlink:href="#f0_d5" transform="matrix(12.4,0,0,12.4,226.1,352.3)" />
<use xlink:href="#f0_c1" transform="matrix(12.4,0,0,12.4,226,352.3)" />
<use xlink:href="#f0_c7" transform="matrix(12.4,0,0,12.4,233.4,352.3)" />
<use xlink:href="#f0_be" transform="matrix(12.4,0,0,12.4,249,352.3)" />
<use xlink:href="#f0_ct" transform="matrix(12.4,0,0,12.4,261.4,352.3)" />
<use xlink:href="#f0_c3" transform="matrix(12.4,0,0,12.4,266.3,352.3)" />
<use xlink:href="#f0_cv" transform="matrix(12.4,0,0,12.4,279.3,352.3)" />
<use xlink:href="#f0_cb" transform="matrix(12.4,0,0,12.4,284.3,352.3)" />
<use xlink:href="#f0_ct" transform="matrix(12.4,0,0,12.4,297.4,352.3)" />
</g>
</g>
<g clip-path="url(#ch_2)">
<g fill="#000000" >
<use xlink:href="#f0_s" transform="matrix(12.4,0,0,12.4,483.6,352.3)" />
<use xlink:href="#f0_l" transform="matrix(12.4,0,0,12.4,494.3,352.3)" />
<use xlink:href="#f0_u" transform="matrix(12.4,0,0,12.4,500.9,352.3)" />
</g>
</g>
<g clip-path="url(#ci_2)">
<g fill="#000000" >
<use xlink:href="#f0_t" transform="matrix(12.4,0,0,12.4,120.3,383.7)" />
</g>
</g>
<g clip-path="url(#cj_2)">
<g fill="#000000" >
<use xlink:href="#f0_am" transform="matrix(12.4,0,0,12.4,136,383.7)" />
<use xlink:href="#f0_c1" transform="matrix(12.4,0,0,12.4,155,383.7)" />
<use xlink:href="#f0_bp" transform="matrix(12.4,0,0,12.4,162.4,383.7)" />
<use xlink:href="#f0_cv" transform="matrix(12.4,0,0,12.4,173.3,383.7)" />
</g>
</g>
<g clip-path="url(#ck_2)">
<g fill="#000000" >
<use xlink:href="#f0_v" transform="matrix(12.4,0,0,12.4,483.6,383.7)" />
</g>
</g>
<g clip-path="url(#cl_2)">
<g fill="#000000" >
<use xlink:href="#f0_u" transform="matrix(12.4,0,0,12.4,121.1,415.2)" />
</g>
</g>
<g clip-path="url(#cm_2)">
<g fill="#000000" >
<use xlink:href="#f0_bz" transform="matrix(12.4,0,0,12.4,136,415.2)" />
<use xlink:href="#f0_dj" transform="matrix(12.4,0,0,12.4,142.6,415.6)" />
<use xlink:href="#f0_bb" transform="matrix(12.4,0,0,12.4,147.8,415.2)" />
<use xlink:href="#f0_c3" transform="matrix(12.4,0,0,12.4,158.9,415.2)" />
<use xlink:href="#f0_cu" transform="matrix(12.4,0,0,12.4,176.9,415.2)" />
<use xlink:href="#f0_br" transform="matrix(12.4,0,0,12.4,181.9,415.2)" />
<use xlink:href="#f0_c7" transform="matrix(12.4,0,0,12.4,192.2,415.2)" />
<use xlink:href="#f0_d8" transform="matrix(12.4,0,0,12.4,202.9,415.2)" />
</g>
</g>
<g clip-path="url(#cn_2)">
<g fill="#000000" >
<use xlink:href="#f0_w" transform="matrix(12.4,0,0,12.4,483.6,415.2)" />
</g>
</g>
<g clip-path="url(#co_2)">
<g fill="#000000" >
<use xlink:href="#f0_v" transform="matrix(12.4,0,0,12.4,121.9,446.7)" />
</g>
</g>
<g clip-path="url(#cp_2)">
<g fill="#000000" >
<use xlink:href="#f0_ef" transform="matrix(12.4,0,0,12.4,136,446.7)" />
<use xlink:href="#f0_cv" transform="matrix(12.4,0,0,12.4,148.6,446.7)" />
<use xlink:href="#f0_by" transform="matrix(12.4,0,0,12.4,158.5,446.7)" />
<use xlink:href="#f0_d5" transform="matrix(12.4,0,0,12.4,171,446.7)" />
<use xlink:href="#f0_n0" transform="matrix(12.4,0,0,12.4,170.9,446.7)" />
<use xlink:href="#f0_bg" transform="matrix(12.4,0,0,12.4,182.5,446.7)" />
<use xlink:href="#f0_cv" transform="matrix(12.4,0,0,12.4,195.1,446.7)" />
<use xlink:href="#f0_b9" transform="matrix(12.4,0,0,12.4,205,446.7)" />
<use xlink:href="#f0_oc" transform="matrix(12.4,0,0,12.4,218.7,446.7)" />
<use xlink:href="#f0_am" transform="matrix(12.4,0,0,12.4,228.7,446.7)" />
<use xlink:href="#f0_c1" transform="matrix(12.4,0,0,12.4,247.6,446.7)" />
<use xlink:href="#f0_bp" transform="matrix(12.4,0,0,12.4,255,446.7)" />
<use xlink:href="#f0_cv" transform="matrix(12.4,0,0,12.4,265.9,446.7)" />
</g>
</g>
<g clip-path="url(#cq_2)">
<g fill="#000000" >
<use xlink:href="#f0_x" transform="matrix(12.4,0,0,12.4,483.6,446.7)" />
<use xlink:href="#f0_l" transform="matrix(12.4,0,0,12.4,493.1,446.7)" />
<use xlink:href="#f0_p" transform="matrix(12.4,0,0,12.4,499.7,446.7)" />
<use xlink:href="#f0_o" transform="matrix(12.4,0,0,12.4,506.7,446.7)" />
</g>
</g>
<g clip-path="url(#cr_2)">
<g fill="#000000" >
<use xlink:href="#f0_w" transform="matrix(12.4,0,0,12.4,121.1,478.1)" />
</g>
</g>
<g clip-path="url(#cs_2)">
<g fill="#000000" >
<use xlink:href="#f0_e6" transform="matrix(12.4,0,0,12.4,136,478.1)" />
<use xlink:href="#f0_ct" transform="matrix(12.4,0,0,12.4,146.7,478.1)" />
<use xlink:href="#f0_no" transform="matrix(12.4,0,0,12.4,151.7,478.1)" />
<use xlink:href="#f0_bq" transform="matrix(12.4,0,0,12.4,151.7,478.1)" />
<use xlink:href="#f0_dr" transform="matrix(12.4,0,0,12.4,163.3,478.1)" />
<use xlink:href="#f0_bt" transform="matrix(12.4,0,0,12.4,163.3,478.1)" />
<use xlink:href="#f0_ct" transform="matrix(12.4,0,0,12.4,173.7,478.1)" />
</g>
</g>
<g clip-path="url(#ct_2)">
<g fill="#000000" >
<use xlink:href="#f0_p" transform="matrix(12.4,0,0,12.4,483.6,478.1)" />
<use xlink:href="#f0_p" transform="matrix(12.4,0,0,12.4,491.3,478.1)" />
</g>
</g>
<g clip-path="url(#cu_2)">
<g fill="#000000" >
<use xlink:href="#f0_x" transform="matrix(12.4,0,0,12.4,121.1,509.6)" />
</g>
</g>
<g clip-path="url(#cv_2)">
<g fill="#000000" >
<use xlink:href="#f0_ef" transform="matrix(12.4,0,0,12.4,136,509.6)" />
<use xlink:href="#f0_cv" transform="matrix(12.4,0,0,12.4,148.6,509.6)" />
<use xlink:href="#f0_by" transform="matrix(12.4,0,0,12.4,158.5,509.6)" />
<use xlink:href="#f0_d5" transform="matrix(12.4,0,0,12.4,171,509.6)" />
<use xlink:href="#f0_c1" transform="matrix(12.4,0,0,12.4,170.9,509.6)" />
<use xlink:href="#f0_c7" transform="matrix(12.4,0,0,12.4,178.3,509.6)" />
<use xlink:href="#f0_e6" transform="matrix(12.4,0,0,12.4,193.9,509.6)" />
<use xlink:href="#f0_ct" transform="matrix(12.4,0,0,12.4,204.6,509.6)" />
<use xlink:href="#f0_no" transform="matrix(12.4,0,0,12.4,209.5,509.6)" />
<use xlink:href="#f0_bq" transform="matrix(12.4,0,0,12.4,209.5,509.6)" />
<use xlink:href="#f0_dr" transform="matrix(12.4,0,0,12.4,221.2,509.6)" />
<use xlink:href="#f0_bt" transform="matrix(12.4,0,0,12.4,221.2,509.6)" />
<use xlink:href="#f0_ct" transform="matrix(12.4,0,0,12.4,231.5,509.6)" />
</g>
</g>
<g clip-path="url(#cw_2)">
<g fill="#000000" >
<use xlink:href="#f0_p" transform="matrix(12.4,0,0,12.4,483.6,509.6)" />
<use xlink:href="#f0_q" transform="matrix(12.4,0,0,12.4,491.3,509.6)" />
</g>
</g>
<g clip-path="url(#cx_2)">
<g fill="#000000" >
<use xlink:href="#f0_p" transform="matrix(12.4,0,0,12.4,113.2,541)" />
<use xlink:href="#f0_o" transform="matrix(12.4,0,0,12.4,120.2,541)" />
</g>
</g>
<g clip-path="url(#cy_2)">
<g fill="#000000" >
<use xlink:href="#f0_bv" transform="matrix(12.4,0,0,12.4,136,541)" />
<use xlink:href="#f0_ct" transform="matrix(12.4,0,0,12.4,146.5,541)" />
<use xlink:href="#f0_c1" transform="matrix(12.4,0,0,12.4,151.5,541)" />
<use xlink:href="#f0_cb" transform="matrix(12.4,0,0,12.4,158.9,541)" />
<use xlink:href="#f0_ll" transform="matrix(12.4,0,0,12.4,177,541)" />
<use xlink:href="#f0_c0" transform="matrix(12.4,0,0,12.4,182.7,541)" />
<use xlink:href="#f0_ct" transform="matrix(12.4,0,0,12.4,193.8,541)" />
<use xlink:href="#f0_c1" transform="matrix(12.4,0,0,12.4,198.7,541)" />
<use xlink:href="#f0_d8" transform="matrix(12.4,0,0,12.4,206.1,541)" />
<use xlink:href="#f0_c3" transform="matrix(12.4,0,0,12.4,216.1,541)" />
<use xlink:href="#f0_ct" transform="matrix(12.4,0,0,12.4,229.1,541)" />
<use xlink:href="#f0_bb" transform="matrix(12.4,0,0,12.4,234,541)" />
<use xlink:href="#f0_d4" transform="matrix(12.4,0,0,12.4,245.3,541)" />
</g>
</g>
<g clip-path="url(#cz_2)">
<g fill="#000000" >
<use xlink:href="#f0_p" transform="matrix(12.4,0,0,12.4,483.6,541)" />
<use xlink:href="#f0_r" transform="matrix(12.4,0,0,12.4,491.3,541)" />
</g>
</g>
<g clip-path="url(#c10_2)">
<g fill="#000000" >
<use xlink:href="#f0_p" transform="matrix(12.4,0,0,12.4,115.6,572.5)" />
<use xlink:href="#f0_p" transform="matrix(12.4,0,0,12.4,123.3,572.5)" />
</g>
</g>
<g clip-path="url(#c11_2)">
<g fill="#000000" >
<use xlink:href="#f0_c0" transform="matrix(12.4,0,0,12.4,136,572.5)" />
<use xlink:href="#f0_cc" transform="matrix(12.4,0,0,12.4,147.1,572.5)" />
<use xlink:href="#f0_cc" transform="matrix(12.4,0,0,12.4,162.4,572.5)" />
<use xlink:href="#f0_d5" transform="matrix(12.4,0,0,12.4,172.9,572.5)" />
<use xlink:href="#f0_bv" transform="matrix(12.4,0,0,12.4,177.6,572.5)" />
<use xlink:href="#f0_ct" transform="matrix(12.4,0,0,12.4,188.1,572.5)" />
<use xlink:href="#f0_c7" transform="matrix(12.4,0,0,12.4,193.1,572.5)" />
<use xlink:href="#f0_bt" transform="matrix(12.4,0,0,12.4,203.7,572.5)" />
<use xlink:href="#f0_by" transform="matrix(12.4,0,0,12.4,219.1,572.5)" />
<use xlink:href="#f0_cx" transform="matrix(12.4,0,0,12.4,231.3,572.4)" />
<use xlink:href="#f0_nt" transform="matrix(12.4,0,0,12.4,231.4,572.5)" />
<use xlink:href="#f0_bz" transform="matrix(12.4,0,0,12.4,236.3,572.5)" />
</g>
</g>
<g clip-path="url(#c12_2)">
<g fill="#000000" >
<use xlink:href="#f0_p" transform="matrix(12.4,0,0,12.4,483.6,572.5)" />
<use xlink:href="#f0_s" transform="matrix(12.4,0,0,12.4,491.1,572.5)" />
</g>
</g>
<g clip-path="url(#c13_2)">
<g fill="#000000" >
<use xlink:href="#f0_p" transform="matrix(12.4,0,0,12.4,113.2,603.9)" />
<use xlink:href="#f0_q" transform="matrix(12.4,0,0,12.4,120.9,603.9)" />
</g>
</g>
<g clip-path="url(#c14_2)">
<g fill="#000000" >
<use xlink:href="#f0_am" transform="matrix(12.4,0,0,12.4,136,603.9)" />
<use xlink:href="#f0_bg" transform="matrix(12.4,0,0,12.4,155,603.9)" />
<use xlink:href="#f0_c1" transform="matrix(12.4,0,0,12.4,172.6,603.9)" />
<use xlink:href="#f0_cu" transform="matrix(12.4,0,0,12.4,180,603.9)" />
<use xlink:href="#f0_c7" transform="matrix(12.4,0,0,12.4,185,603.9)" />
<use xlink:href="#f0_c7" transform="matrix(12.4,0,0,12.4,195.6,603.9)" />
<use xlink:href="#f0_ct" transform="matrix(12.4,0,0,12.4,206.3,603.9)" />
<use xlink:href="#f0_c1" transform="matrix(12.4,0,0,12.4,211.2,603.9)" />
<use xlink:href="#f0_cc" transform="matrix(12.4,0,0,12.4,223.6,603.9)" />
<use xlink:href="#f0_d5" transform="matrix(12.4,0,0,12.4,234.2,603.9)" />
</g>
</g>
<g clip-path="url(#c15_2)">
<g fill="#000000" >
<use xlink:href="#f0_p" transform="matrix(12.4,0,0,12.4,483.6,603.9)" />
<use xlink:href="#f0_t" transform="matrix(12.4,0,0,12.4,491.3,603.9)" />
</g>
</g>
<g clip-path="url(#c16_2)">
<g fill="#000000" >
<use xlink:href="#f0_p" transform="matrix(12.4,0,0,12.4,113.2,635.4)" />
<use xlink:href="#f0_r" transform="matrix(12.4,0,0,12.4,120.9,635.4)" />
</g>
</g>
<g clip-path="url(#c17_2)">
<g fill="#000000" >
<use xlink:href="#f0_bz" transform="matrix(12.4,0,0,12.4,136,635.4)" />
<use xlink:href="#f0_d4" transform="matrix(12.4,0,0,12.4,147.9,635.4)" />
<use xlink:href="#f0_c1" transform="matrix(12.4,0,0,12.4,147.8,635.4)" />
<use xlink:href="#f0_d4" transform="matrix(12.4,0,0,12.4,154.9,635.4)" />
<use xlink:href="#f0_bz" transform="matrix(12.4,0,0,12.4,160.2,635.4)" />
<use xlink:href="#f0_bt" transform="matrix(12.4,0,0,12.4,172,635.4)" />
<use xlink:href="#f0_bz" transform="matrix(12.4,0,0,12.4,187.3,635.4)" />
<use xlink:href="#f0_d4" transform="matrix(12.4,0,0,12.4,199.2,635.4)" />
<use xlink:href="#f0_dj" transform="matrix(12.4,0,0,12.4,198.1,636.1)" />
<use xlink:href="#f0_bv" transform="matrix(12.4,0,0,12.4,204.1,635.4)" />
<use xlink:href="#f0_ct" transform="matrix(12.4,0,0,12.4,214.6,635.4)" />
<use xlink:href="#f0_c1" transform="matrix(12.4,0,0,12.4,219.5,635.4)" />
<use xlink:href="#f0_cb" transform="matrix(12.4,0,0,12.4,226.9,635.4)" />
<use xlink:href="#f0_bt" transform="matrix(12.4,0,0,12.4,240.1,635.4)" />
<use xlink:href="#f0_ct" transform="matrix(12.4,0,0,12.4,250.4,635.4)" />
<use xlink:href="#f0_no" transform="matrix(12.4,0,0,12.4,255.4,635.4)" />
<use xlink:href="#f0_bq" transform="matrix(12.4,0,0,12.4,255.4,635.4)" />
</g>
</g>
<g clip-path="url(#c18_2)">
<g fill="#000000" >
<use xlink:href="#f0_p" transform="matrix(12.4,0,0,12.4,483.6,635.4)" />
<use xlink:href="#f0_u" transform="matrix(12.4,0,0,12.4,491.3,635.4)" />
</g>
</g>
<g clip-path="url(#c19_2)">
<g fill="#000000" >
<use xlink:href="#f0_p" transform="matrix(12.4,0,0,12.4,112.4,666.8)" />
<use xlink:href="#f0_s" transform="matrix(12.4,0,0,12.4,119.9,666.8)" />
</g>
</g>
<g clip-path="url(#c1a_2)">
<g fill="#000000" >
<use xlink:href="#f0_bg" transform="matrix(12.4,0,0,12.4,136,666.8)" />
<use xlink:href="#f0_c0" transform="matrix(12.4,0,0,12.4,148.6,666.8)" />
<use xlink:href="#f0_bx" transform="matrix(12.4,0,0,12.4,164.7,666.8)" />
<use xlink:href="#f0_d8" transform="matrix(12.4,0,0,12.4,175.6,666.8)" />
<use xlink:href="#f0_c3" transform="matrix(12.4,0,0,12.4,180.5,666.8)" />
<use xlink:href="#f0_d8" transform="matrix(12.4,0,0,12.4,193.5,666.8)" />
<use xlink:href="#f0_bz" transform="matrix(12.4,0,0,12.4,203.5,666.8)" />
<use xlink:href="#f0_cc" transform="matrix(12.4,0,0,12.4,215.2,666.8)" />
<use xlink:href="#f0_ct" transform="matrix(12.4,0,0,12.4,225.5,666.8)" />
<use xlink:href="#f0_c7" transform="matrix(12.4,0,0,12.4,230.5,666.8)" />
<use xlink:href="#f0_cv" transform="matrix(12.4,0,0,12.4,241.1,666.8)" />
<use xlink:href="#f0_c1" transform="matrix(12.4,0,0,12.4,246.1,666.8)" />
<use xlink:href="#f0_m1" transform="matrix(12.4,0,0,12.4,258.5,666.8)" />
<use xlink:href="#f0_c7" transform="matrix(12.4,0,0,12.4,266.2,666.8)" />
<use xlink:href="#f0_ct" transform="matrix(12.4,0,0,12.4,276.9,666.8)" />
<use xlink:href="#f0_bz" transform="matrix(12.4,0,0,12.4,281.9,666.8)" />
<use xlink:href="#f0_cv" transform="matrix(12.4,0,0,12.4,293.6,666.8)" />
<use xlink:href="#f0_b9" transform="matrix(12.4,0,0,12.4,303.6,666.8)" />
<use xlink:href="#f0_oc" transform="matrix(12.4,0,0,12.4,317.3,666.8)" />
</g>
</g>
<g clip-path="url(#c1b_2)">
<g fill="#000000" >
<use xlink:href="#f0_p" transform="matrix(12.4,0,0,12.4,483.6,666.8)" />
<use xlink:href="#f0_v" transform="matrix(12.4,0,0,12.4,491.1,666.8)" />
</g>
</g>
<g clip-path="url(#c1c_2)">
<g fill="#000000" >
<use xlink:href="#f0_p" transform="matrix(12.4,0,0,12.4,113.2,698.3)" />
<use xlink:href="#f0_t" transform="matrix(12.4,0,0,12.4,120.9,698.3)" />
</g>
</g>
<g clip-path="url(#c1d_2)">
<g fill="#000000" >
<use xlink:href="#f0_am" transform="matrix(12.4,0,0,12.4,136,698.3)" />
<use xlink:href="#f0_ba" transform="matrix(12.4,0,0,12.4,155,698.3)" />
<use xlink:href="#f0_ch" transform="matrix(12.4,0,0,12.4,169.8,698.3)" />
<use xlink:href="#f0_cv" transform="matrix(12.4,0,0,12.4,181,698.3)" />
<use xlink:href="#f0_bz" transform="matrix(12.4,0,0,12.4,190.9,698.3)" />
<use xlink:href="#f0_ct" transform="matrix(12.4,0,0,12.4,202.7,698.3)" />
<use xlink:href="#f0_c1" transform="matrix(12.4,0,0,12.4,207.7,698.3)" />
<use xlink:href="#f0_cv" transform="matrix(12.4,0,0,12.4,215.1,698.3)" />
<use xlink:href="#f0_e6" transform="matrix(12.4,0,0,12.4,225,698.3)" />
<use xlink:href="#f0_by" transform="matrix(12.4,0,0,12.4,235.7,698.3)" />
<use xlink:href="#f0_cw" transform="matrix(12.4,0,0,12.4,248.5,698.2)" />
<use xlink:href="#f0_cc" transform="matrix(12.4,0,0,12.4,253,698.3)" />
<use xlink:href="#f0_c1" transform="matrix(12.4,0,0,12.4,263.3,698.3)" />
<use xlink:href="#f0_ba" transform="matrix(12.4,0,0,12.4,270.7,698.3)" />
<use xlink:href="#f0_ct" transform="matrix(12.4,0,0,12.4,285.4,698.3)" />
<use xlink:href="#f0_c0" transform="matrix(12.4,0,0,12.4,290.4,698.3)" />
<use xlink:href="#f0_bf" transform="matrix(12.4,0,0,12.4,306.5,698.3)" />
<use xlink:href="#f0_d4" transform="matrix(12.4,0,0,12.4,319.2,698.3)" />
</g>
</g>
<g clip-path="url(#c1e_2)">
<g fill="#000000" >
<use xlink:href="#f0_p" transform="matrix(12.4,0,0,12.4,483.6,698.3)" />
<use xlink:href="#f0_w" transform="matrix(12.4,0,0,12.4,491.3,698.3)" />
</g>
</g>
<g clip-path="url(#c1f_2)">
<g fill="#000000" >
<use xlink:href="#f0_p" transform="matrix(12.4,0,0,12.4,113.2,729.7)" />
<use xlink:href="#f0_u" transform="matrix(12.4,0,0,12.4,120.9,729.7)" />
</g>
</g>
<g clip-path="url(#c1g_2)">
<g fill="#000000" >
<use xlink:href="#f0_bg" transform="matrix(12.4,0,0,12.4,136,729.7)" />
<use xlink:href="#f0_bb" transform="matrix(12.4,0,0,12.4,148.6,729.7)" />
<use xlink:href="#f0_bz" transform="matrix(12.4,0,0,12.4,159.8,729.7)" />
<use xlink:href="#f0_bb" transform="matrix(12.4,0,0,12.4,171.5,729.7)" />
<use xlink:href="#f0_bp" transform="matrix(12.4,0,0,12.4,182.7,729.7)" />
<use xlink:href="#f0_ct" transform="matrix(12.4,0,0,12.4,193.5,729.7)" />
<use xlink:href="#f0_bp" transform="matrix(12.4,0,0,12.4,203.5,729.7)" />
<use xlink:href="#f0_ct" transform="matrix(12.4,0,0,12.4,214.4,729.7)" />
<use xlink:href="#f0_c1" transform="matrix(12.4,0,0,12.4,219.3,729.7)" />
<use xlink:href="#f0_c3" transform="matrix(12.4,0,0,12.4,226.7,729.7)" />
<use xlink:href="#f0_ct" transform="matrix(12.4,0,0,12.4,239.7,729.7)" />
<use xlink:href="#f0_bt" transform="matrix(12.4,0,0,12.4,249.7,729.7)" />
<use xlink:href="#f0_cx" transform="matrix(12.4,0,0,12.4,260,729.6)" />
</g>
</g>
<g clip-path="url(#c1h_2)">
<g fill="#000000" >
<use xlink:href="#f0_p" transform="matrix(12.4,0,0,12.4,483.6,729.7)" />
<use xlink:href="#f0_x" transform="matrix(12.4,0,0,12.4,491.3,729.7)" />
<use xlink:href="#f0_l" transform="matrix(12.4,0,0,12.4,500.8,729.7)" />
<use xlink:href="#f0_q" transform="matrix(12.4,0,0,12.4,507.4,729.7)" />
<use xlink:href="#f0_o" transform="matrix(12.4,0,0,12.4,517,729.7)" />
</g>
</g>
<g clip-path="url(#c1i_2)">
<g fill="#000000" >
<use xlink:href="#f0_p" transform="matrix(12.4,0,0,12.4,114.8,761.2)" />
<use xlink:href="#f0_v" transform="matrix(12.4,0,0,12.4,122.3,761.2)" />
</g>
</g>
<g clip-path="url(#c1j_2)">
<g fill="#000000" >
<use xlink:href="#f0_aq" transform="matrix(12.4,0,0,12.4,136,761.2)" />
<use xlink:href="#f0_di" transform="matrix(12.4,0,0,12.4,145.7,761.6)" />
<use xlink:href="#f0_be" transform="matrix(12.4,0,0,12.4,149.9,761.2)" />
<use xlink:href="#f0_ct" transform="matrix(12.4,0,0,12.4,162.3,761.2)" />
<use xlink:href="#f0_al" transform="matrix(12.4,0,0,12.4,172.2,761.2)" />
<use xlink:href="#f0_lq" transform="matrix(12.4,0,0,12.4,186.2,761.2)" />
<use xlink:href="#f0_bx" transform="matrix(12.4,0,0,12.4,193.4,761.2)" />
<use xlink:href="#f0_c1" transform="matrix(12.4,0,0,12.4,204.3,761.2)" />
<use xlink:href="#f0_bq" transform="matrix(12.4,0,0,12.4,216.7,761.2)" />
<use xlink:href="#f0_cv" transform="matrix(12.4,0,0,12.4,228.3,761.2)" />
</g>
</g>
<g clip-path="url(#c1k_2)">
<g fill="#000000" >
<use xlink:href="#f0_q" transform="matrix(12.4,0,0,12.4,483.6,761.2)" />
<use xlink:href="#f0_p" transform="matrix(12.4,0,0,12.4,493.9,761.2)" />
<use xlink:href="#f0_l" transform="matrix(12.4,0,0,12.4,501.6,761.2)" />
<use xlink:href="#f0_q" transform="matrix(12.4,0,0,12.4,508.2,761.2)" />
<use xlink:href="#f0_q" transform="matrix(12.4,0,0,12.4,518.5,761.2)" />
</g>
</g>
<defs>
<path d="M959,-49L869,8V367c0,0,-32,-13,-64,-13c0,0,-50,0,-110,25c0,0,23,-52,23,-109c0,0,0,-103,-70,-170c0,0,-70,-66,-182,-66c0,0,-110,0,-222,82c0,0,-111,83,-213,293l68,42c0,0,72,-155,152,-231c0,0,81,-76,178,-76c0,0,83,0,131,49c0,0,48,48,48,117c0,0,0,54,-30,100c0,0,-31,47,-91,65L325,391L257,512c0,0,68,53,156,56c0,0,140,72,140,179c0,0,0,69,-52,99c0,0,-4,1,-11,1c-19,0,-66,-4,-123,-30c0,0,-78,-35,-142,-96L150,823c0,0,119,117,253,117c0,0,98,0,175,-71c0,0,77,-70,77,-159c0,0,0,-103,-94,-180c0,0,39,-23,73,-56c0,0,52,-22,109,-22c0,0,77,0,126,38V822H727l-46,76l14,31h439l45,-76l-13,-31H930l66,-58V-39L959,-49Z"
id="f0_al"
transform="scale(0.001,-0.001)"/>

<path d="M663,-49L573,8V445H299V280L226,251c0,0,-105,99,-162,238l63,72H573V822H0l-45,76l14,31H837l46,-76L869,822H634l66,-58V-39L663,-49Z"
id="f0_bt"
transform="scale(0.001,-0.001)"/>

<path d="M-234,-413c0,0,-210,0,-488,322l54,49c0,0,119,-128,209,-193c0,0,90,-65,177,-65c0,0,72,0,113,40c0,0,42,39,42,91c0,0,0,75,-78,106L-323,-181l-90,98c0,0,63,95,167,95c0,0,90,0,155,-69c0,0,66,-70,66,-164c0,0,0,-85,-60,-139c0,0,-61,-53,-149,-53Z"
id="f0_cw"
transform="scale(0.001,-0.001)"/>

<path d="M313,260c0,0,122,0,210,113V513c0,0,-91,51,-161,51c0,0,-79,0,-128,-50c0,0,-49,-50,-49,-118c0,0,0,-60,35,-110c0,0,44,-26,93,-26ZM150,-75L53,0L292,174c0,0,-90,32,-157,109c0,0,-66,78,-66,171c0,0,0,93,69,157c0,0,68,64,161,64c0,0,33,0,65,-9L523,590V822H0l-45,76l14,31H1138l46,-76l-14,-31H584l65,-58V524c0,0,92,89,193,89c0,0,98,0,170,-79c0,0,73,-79,73,-186c0,0,0,-178,-225,-330L767,124c0,0,218,153,218,269c0,0,0,44,-26,75c0,0,-26,32,-81,32c0,0,-108,0,-229,-155V-39L613,-49L523,8V220L150,-75Z"
id="f0_du"
transform="scale(0.001,-0.001)"/>

<path d="M689,445V822H286l65,-58l8,-319ZM779,-49L689,8V328H370V180L296,150c0,0,-56,35,-120,104c0,0,-63,70,-89,131l41,60H238L223,822H0l-45,76l14,31H953l46,-76L985,822H750l66,-58V-39L779,-49Z"
id="f0_bz"
transform="scale(0.001,-0.001)"/>

<path d="M228,-49L138,8V822H0l-45,76l14,31H402l46,-76L434,822H199l65,-58V-39L228,-49Z"
id="f0_ct"
transform="scale(0.001,-0.001)"/>

<path d="M228,-49L138,8V822H0l-45,76l14,31H134c0,0,-91,93,-91,200c0,0,0,109,92,174c0,0,93,66,253,66c0,0,186,0,398,-89c0,0,212,-90,430,-264l-49,-47c0,0,-424,285,-727,285c0,0,-125,0,-201,-49c0,0,-76,-48,-76,-137c0,0,0,-67,52,-139H402l46,-76L434,822H199l65,-58V-39L228,-49Z"
id="f0_nu"
transform="scale(0.001,-0.001)"/>

<path d="M342,324c0,0,45,0,75,34c0,0,31,33,31,100V822H165l66,-58V390c0,0,32,-66,111,-66ZM853,-49L762,8V822H509l65,-58V455c0,0,0,-134,-51,-185c0,0,-52,-52,-127,-52c0,0,-98,0,-195,99c0,0,-97,99,-97,209V822H0l-45,76l14,31H1027l46,-76l-14,-31H823l66,-58V-39L853,-49Z"
id="f0_bo"
transform="scale(0.001,-0.001)"/>

<path d="M283,260c0,0,122,0,209,113V513c0,0,-90,51,-160,51c0,0,-80,0,-129,-50c0,0,-49,-50,-49,-118c0,0,0,-60,35,-110c0,0,45,-26,94,-26ZM582,-49L492,8V211c0,0,-63,-54,-141,-54c0,0,-113,0,-213,92c0,0,-100,92,-100,205c0,0,0,93,69,157c0,0,69,64,162,64c0,0,32,0,64,-9L492,590V822H0l-45,76l14,31H1108l45,-76l-13,-31H553l66,-58V524c0,0,91,89,192,89c0,0,98,0,171,-79c0,0,72,-79,72,-186c0,0,0,-178,-224,-330L736,124c0,0,219,153,219,269c0,0,0,44,-26,75c0,0,-26,32,-81,32c0,0,-109,0,-229,-155V-39L582,-49Z"
id="f0_b9"
transform="scale(0.001,-0.001)"/>

<path d="M408,-30c0,0,-83,0,-179,29c0,0,-96,27,-143,76l-2,53c0,0,0,113,17,205h82L205,150c0,0,105,-80,255,-80l52,3c0,0,88,48,88,156c0,0,0,93,-107,154L246,512c0,0,-154,91,-154,235c0,0,0,122,101,199c0,0,100,78,255,78c0,0,107,0,252,-48l1,-53c0,0,0,-112,-17,-205H602L587,857c0,0,-87,67,-210,67l-70,-6c0,0,-73,-44,-73,-139c0,0,0,-87,105,-145L584,510c0,0,162,-93,162,-247c0,0,0,-129,-97,-211c0,0,-96,-82,-241,-82Z"
id="f0_1n"
transform="scale(0.001,-0.001)"/>

<path d="M448,486c0,0,140,0,197,66c0,0,56,67,56,158c0,0,0,147,-119,205L318,892V497c0,0,69,-11,130,-11ZM55,0L46,49L176,96V914L67,920l2,73l426,12c0,0,162,0,262,-83c0,0,100,-83,100,-212c0,0,0,-91,-56,-173c0,0,-57,-82,-161,-118L848,81L952,72L950,0H718L500,397L318,396V90L481,72L480,0Z"
id="f0_1m"
transform="scale(0.001,-0.001)"/>

<path d="M226,-49c0,0,-66,24,-102,78c0,0,32,69,82,101c0,0,55,-20,100,-80c0,0,-26,-66,-80,-99Z"
id="f0_m"
transform="scale(0.001,-0.001)"/>

<path d="M805,-16L263,851L290,639V87L426,72L425,0H55L46,49L176,96V909L76,921l2,72H350L875,147L846,354V904L698,921l2,72h383l9,-49L963,897V0L805,-16Z"
id="f0_1i"
transform="scale(0.001,-0.001)"/>

<path d="M530,78c0,0,57,0,118,15c0,0,72,46,116,150c0,0,44,104,44,234c0,0,0,195,-92,318c0,0,-93,123,-244,123c0,0,-70,0,-147,-26c0,0,-62,-47,-100,-153c0,0,-39,-106,-39,-227c0,0,0,-196,94,-315c0,0,93,-119,250,-119ZM503,-30c0,0,-207,0,-340,145C163,115,31,260,31,490c0,0,0,236,129,385c0,0,130,149,330,149c0,0,208,0,342,-152c0,0,134,-151,134,-388c0,0,0,-230,-130,-372C836,112,706,-30,503,-30Z"
id="f0_1j"
transform="scale(0.001,-0.001)"/>

<path d="M675,400L504,831L336,400ZM-20,0L-30,49c0,0,38,18,126,46L454,961l-11,27l121,42L952,84L1063,72L1062,0H652l-9,49c0,0,49,23,150,53L712,307H299L214,90L374,72L373,0Z"
id="f0_15"
transform="scale(0.001,-0.001)"/>

<path d="M608,-10L286,882L315,642L301,87L429,72L428,0H55L46,49c0,0,44,21,136,49l29,810L90,921l2,72H399L697,165L990,993h280l9,-49c0,0,-38,-18,-113,-41L1179,89L1331,72L1329,0H920l-9,49l131,47l-9,546l21,252L741,24L608,-10Z"
id="f0_1h"
transform="scale(0.001,-0.001)"/>

<path d="M55,0L46,49L176,96V914L67,920l2,73H767l1,-52c0,0,0,-107,-16,-200H669L651,882L318,904V541l350,26V434L318,449V99l347,16l39,165l81,-7c0,0,5,-151,-18,-273Z"
id="f0_19"
transform="scale(0.001,-0.001)"/>

<path d="M474,463c0,0,114,0,171,67c0,0,56,67,56,164c0,0,0,73,-30,133c0,0,-31,61,-89,88L318,892V477c0,0,91,-14,156,-14ZM55,0L46,49L176,96V914L67,920l2,73l426,12c0,0,160,0,261,-89c0,0,101,-89,101,-227c0,0,0,-131,-92,-221c0,0,-93,-89,-239,-94H318V93L497,72L495,0Z"
id="f0_1k"
transform="scale(0.001,-0.001)"/>

<path d="M526,-31c0,0,-227,0,-365,141C161,110,23,252,23,475c0,0,0,144,59,269c0,0,59,125,178,202c0,0,119,78,288,78c0,0,184,0,306,-94l2,-36c0,0,0,-87,-28,-185H738L726,845c0,0,-132,72,-280,72l-72,-5c0,0,-99,-55,-147,-169c0,0,-48,-115,-48,-256c0,0,0,-175,95,-290c0,0,96,-114,249,-114c0,0,88,0,197,33V347c0,0,-106,30,-168,59l9,54H976l2,-75L862,371V108L564,-30l-38,-1Z"
id="f0_1b"
transform="scale(0.001,-0.001)"/>

<path d="M67,0L58,52c0,0,105,40,209,64V851L81,762L38,831l294,193l71,-39V99L591,73L582,0Z"
id="f0_p"
transform="scale(0.001,-0.001)"/>

<path d="M513,460c0,0,61,81,61,179c0,0,0,87,-45,143c0,0,-45,57,-116,57c0,0,-63,0,-102,-43c0,0,-39,-43,-39,-110c0,0,0,-90,68,-151c0,0,68,-61,173,-75ZM581,-83L278,167l-41,-4c0,0,-99,0,-130,37l47,168l51,12l78,-79c0,0,110,40,183,105c0,0,-141,23,-231,107c0,0,-90,84,-90,193c0,0,0,69,37,116H0l-45,76l14,31H1134l45,-76l-13,-31H930l66,-58V-39L959,-49L869,8V822H588c0,0,51,-44,75,-109c0,0,25,-64,25,-122c0,0,0,-105,-81,-213c0,0,-80,-108,-240,-176L658,18l2,-25L581,-83Z"
id="f0_c8"
transform="scale(0.001,-0.001)"/>

<path d="M0,822l-45,76l14,31H93l46,-76L125,822Z"
id="f0_nn"
transform="scale(0.001,-0.001)"/>

<path d="M500,44c0,0,78,0,152,57c0,0,75,56,98,134V350c0,0,-130,0,-223,-64c0,0,-93,-63,-93,-148c0,0,0,-54,43,-92l23,-2ZM321,561c0,0,66,46,101,105c0,0,36,60,36,113c0,0,0,28,-9,48c0,0,-35,41,-87,41c0,0,-50,0,-89,-38c0,0,-39,-39,-39,-100c0,0,0,-94,87,-169ZM840,-111l-90,59V32c0,0,-69,-68,-156,-68c0,0,-97,0,-187,64c0,0,-89,64,-89,146c0,0,0,61,48,123c0,0,48,62,141,94c0,0,-69,20,-140,57L105,272L20,364L260,519c0,0,-144,118,-144,246c0,0,0,81,57,140c0,0,56,59,140,59c0,0,96,0,171,-79c0,0,75,-78,75,-168c0,0,0,-118,-133,-222c0,0,107,-44,232,-44l92,6V822H628l-46,76l14,31h418l46,-76l-13,-31H811l66,-58V-100l-37,-11Z"
id="f0_ke"
transform="scale(0.001,-0.001)"/>

<path d="M347,-57C347,-57,66,211,66,394c0,0,0,98,74,164c0,0,74,65,225,65H616V822H0l-45,76l14,31H880l46,-76L912,822H677l66,-58V-39L706,-49L616,8V500H428c0,0,-239,0,-239,-161c0,0,0,-136,214,-343L347,-57Z"
id="f0_bp"
transform="scale(0.001,-0.001)"/>

<path d="M900,298c0,0,32,73,32,159c0,0,0,110,-38,160c0,0,-40,31,-81,31c0,0,-48,0,-80,-35c0,0,-33,-35,-33,-89c0,0,0,-118,200,-226ZM588,-60c0,0,-154,0,-274,93c0,0,-120,94,-120,207c0,0,0,50,28,92C222,332,61,440,61,552c0,0,0,71,56,122c0,0,56,50,169,50H417l64,-98L463,600H333c0,0,-157,-1,-157,-99c0,0,0,-59,88,-124c0,0,68,52,164,52c0,0,38,0,79,-9l71,-88L558,299c0,0,-46,10,-81,10c0,0,-75,0,-116,-36c0,0,-40,-36,-40,-88c0,0,0,-78,73,-130c0,0,54,-17,109,-17c0,0,114,0,211,54c0,0,97,53,154,145c0,0,-156,96,-223,173c0,0,-67,77,-67,155c0,0,0,72,48,124c0,0,48,52,126,55v78H0l-45,76l14,31H1123l46,-76l-14,-31H805l66,-58V717c0,0,76,-40,124,-124c0,0,47,-84,47,-193c0,0,0,-188,-133,-324C909,76,776,-60,588,-60Z"
id="f0_bf"
transform="scale(0.001,-0.001)"/>

<path d="M-214,863l-199,281c0,0,-70,92,-157,92c0,0,-69,0,-159,-58l-72,118c0,0,89,73,180,73c0,0,141,0,258,-170L-155,901l-59,-38Z"
id="f0_d4"
transform="scale(0.001,-0.001)"/>

<path d="M325,240c0,0,77,0,154,35c0,0,77,35,120,99V500c0,0,-118,73,-222,73c0,0,-97,0,-151,-54c0,0,-53,-53,-53,-128c0,0,0,-73,49,-125c0,0,38,-26,103,-26ZM689,-49L599,8V199c0,0,-73,-65,-179,-65c0,0,-134,0,-252,96c0,0,-118,95,-118,221c0,0,0,102,78,171c0,0,78,69,190,69c0,0,38,0,75,-10L599,582V822H0l-45,76l14,31H863l46,-76L895,822H660l66,-58V-39L689,-49Z"
id="f0_c7"
transform="scale(0.001,-0.001)"/>

<path d="M527,-71L52,414l34,92H277c0,0,12,32,12,72V822H0l-45,76l14,31H599l46,-76L631,822H350l66,-55V564c0,0,0,-96,-152,-248L610,34L611,8L527,-71Z"
id="f0_c1"
transform="scale(0.001,-0.001)"/>

<path d="M95,0L67,98L422,497c0,0,130,154,130,259c0,0,0,63,-40,111c0,0,-40,48,-121,48c0,0,-75,0,-171,-29L193,695l-88,2c0,0,-13,82,-13,165l1,65c0,0,159,97,315,97c0,0,122,0,207,-78c0,0,85,-77,85,-193c0,0,0,-67,-34,-133c0,0,-33,-67,-165,-217L237,121l4,-14l373,21l49,136l83,-12C746,252,732,99,704,0Z"
id="f0_q"
transform="scale(0.001,-0.001)"/>

<path d="M0,1062c0,0,-26,11,-60,36c0,0,-34,26,-51,49c0,0,39,81,91,110c0,0,60,-23,106,-85c0,0,-28,-70,-86,-110Z"
id="f0_dj"
transform="scale(0.001,-0.001)"/>

<path d="M688,-49L597,8V335L248,81l-92,81L532,425l-81,76c0,0,-80,70,-133,70c0,0,-81,0,-194,-96L38,584c0,0,109,105,223,105c0,0,103,0,213,-107L597,457V822H0l-45,76l14,31H862l46,-76L894,822H658l66,-58V-39L688,-49Z"
id="f0_e1"
transform="scale(0.001,-0.001)"/>

<path d="M228,-49L138,8V822H0l-45,76l14,31H119L-33,1144c0,0,-70,92,-157,92c0,0,-69,0,-159,-58l-72,118c0,0,89,73,181,73c0,0,140,0,257,-170L205,929H402l46,-76L434,822H199l65,-58V-39L228,-49Z"
id="f0_d8"
transform="scale(0.001,-0.001)"/>

<path d="M688,-243c0,0,-256,53,-408,173c0,0,-152,119,-152,270c0,0,0,101,68,171c0,0,-101,84,-101,179c0,0,0,64,53,112c0,0,54,47,191,47H587V822H0l-45,76l14,31H830l45,-76L862,822H640l66,-58V585H362c0,0,-159,-1,-159,-92c0,0,0,-41,46,-80c0,0,76,47,183,47c0,0,135,0,230,-76c0,0,96,-75,96,-187C758,197,758,67,629,2L545,104c0,0,49,30,81,75c0,0,32,44,32,82c0,0,0,16,-4,26c0,0,-64,58,-167,58c0,0,-97,0,-166,-50v-2c0,0,-67,-52,-67,-131c0,0,0,-116,132,-199c0,0,132,-84,334,-132l-32,-74Z"
id="f0_cc"
transform="scale(0.001,-0.001)"/>

<path d="M396,318c0,0,123,0,203,108V822H180l66,-58V408c0,0,49,-90,150,-90ZM176,-66L79,9L379,228c0,0,-106,23,-181,119c0,0,-76,96,-79,198V822H0l-45,76l14,31H863l46,-76L895,822H660l66,-58V-39L689,-49L599,8V269L176,-66Z"
id="f0_e6"
transform="scale(0.001,-0.001)"/>

<path d="M799,475V822H350l66,-55V564c0,0,0,-43,-25,-89ZM527,-71L52,414l34,92H277c0,0,12,32,12,72V822H0l-45,76l14,31H1063l46,-76l-14,-31H860l66,-58V-39L889,-49L799,8V370H315L264,316L610,34L611,8L527,-71Z"
id="f0_cb"
transform="scale(0.001,-0.001)"/>

<path d="M438,206c0,0,-119,0,-226,109c0,0,-108,108,-108,243V822H0l-45,76l14,31H542l46,-76L574,822H165l66,-58V408c0,0,46,-86,151,-86c0,0,61,0,119,32c0,0,58,33,95,91L669,338c0,0,-44,-66,-108,-99c0,0,-63,-33,-123,-33Z"
id="f0_ll"
transform="scale(0.001,-0.001)"/>

<path d="M374,248c0,0,77,0,149,36c0,0,71,37,110,107V822H284c0,0,138,-96,138,-208c0,0,0,-151,-228,-192c0,0,29,-104,89,-158c0,0,41,-16,91,-16ZM723,-49L633,8V200c0,0,-69,-56,-170,-56c0,0,-122,0,-240,94c0,0,-118,94,-179,237l20,55c0,0,133,17,187,44c0,0,55,28,55,84c0,0,0,45,-30,81c0,0,-30,36,-99,83H0l-45,76l14,31H897l46,-76L929,822H694l65,-58V-39L723,-49Z"
id="f0_c0"
transform="scale(0.001,-0.001)"/>

<path d="M254,-26c0,0,-84,16,-116,92c0,0,13,84,97,127c0,0,100,-36,112,-110C347,83,324,6,254,-26Zm458,0c0,0,-84,16,-116,92c0,0,14,84,98,127c0,0,99,-37,111,-110C805,83,782,6,712,-26Zm458,0c0,0,-84,16,-116,92c0,0,14,84,98,127c0,0,99,-36,111,-110c0,0,-22,-77,-93,-109Z"
id="f0_8l"
transform="scale(0.001,-0.001)"/>

<path d="M387,-28c0,0,-158,0,-295,71l27,137c0,0,168,-84,329,-84c0,0,47,0,85,9c0,0,57,62,57,141c0,0,0,82,-66,140c0,0,-66,57,-188,57L228,438l-3,104h26c0,0,145,5,212,67c0,0,67,62,67,146c0,0,0,75,-51,123c0,0,-51,49,-143,49c0,0,-50,0,-105,-16L203,743l-88,1c0,0,-14,83,-14,139l1,58c0,0,120,83,280,83c0,0,128,0,211,-71c0,0,82,-71,82,-177c0,0,0,-73,-45,-137c0,0,-45,-65,-132,-98c0,0,96,-22,163,-103c0,0,66,-80,66,-178c0,0,0,-126,-94,-207c0,0,-95,-81,-246,-81Z"
id="f0_r"
transform="scale(0.001,-0.001)"/>

<path d="M845,-49L755,8V513H497c0,0,61,-45,93,-110c0,0,33,-64,33,-128c0,0,0,-90,-58,-144c0,0,-59,-53,-143,-53c0,0,-133,0,-234,139C188,217,87,356,20,596l76,24c0,0,60,-201,127,-306c0,0,67,-105,160,-105c0,0,57,0,91,36c0,0,33,36,33,91c0,0,0,84,-73,159L295,558v71H755V822H0l-45,76l14,31H1019l46,-76l-14,-31H816l66,-58V-39L845,-49Z"
id="f0_bg"
transform="scale(0.001,-0.001)"/>

<path d="M388,325c0,0,58,0,112,31c0,0,53,31,84,86V822H165l69,-58V408c0,0,47,-83,154,-83ZM674,-49L584,8V257c0,0,-61,-51,-141,-51c0,0,-125,0,-232,109c0,0,-107,108,-107,243V822H0l-45,76l14,31H848l46,-76L880,822H645l65,-58V-39L674,-49Z"
id="f0_bv"
transform="scale(0.001,-0.001)"/>

<path d="M761,293c0,0,127,0,169,94V532c0,0,-68,46,-145,46c0,0,-76,0,-121,-46c0,0,-45,-45,-45,-107c0,0,0,-61,44,-110c0,0,47,-22,98,-22ZM657,67c0,0,166,0,273,107v55c0,0,-45,-36,-111,-36c0,0,-110,0,-207,90c0,0,-97,90,-97,194c0,0,0,85,66,148c0,0,65,63,155,63l48,-5L930,603V822H376l62,-55V579c0,0,0,-60,-23,-102c0,0,-24,-42,-148,-190c0,0,66,-104,175,-162c0,0,108,-58,215,-58ZM1021,-49L930,8V53c0,0,-105,-83,-264,-83c0,0,-177,0,-339,128C327,98,165,226,90,429l34,77H296c0,0,19,39,19,102l-2,214H0l-45,76l14,31H1195l46,-76l-14,-31H992l65,-58V-39l-36,-10Z"
id="f0_ba"
transform="scale(0.001,-0.001)"/>

<path d="M228,-49L138,8V822H0l-45,76l14,31H134c0,0,-91,93,-91,202c0,0,0,105,85,170c0,0,86,65,236,65c0,0,340,0,742,-350l-50,-46c0,0,-182,135,-340,208c0,0,-158,73,-302,73c0,0,-113,0,-183,-48c0,0,-69,-48,-69,-132c0,0,0,-63,53,-142H402l46,-76L434,822H199l65,-58V-39L228,-49Z"
id="f0_nt"
transform="scale(0.001,-0.001)"/>

<path d="M413,-59C413,-59,53,193,53,416c0,0,0,97,66,164c0,0,66,66,156,66c0,0,61,0,110,-30L487,507c0,0,92,126,257,126l35,-2V822H0l-45,76l14,31H1043l46,-76l-13,-31H840l66,-58V-39L869,-49L779,8V547c0,0,-101,-5,-165,-90c0,0,-64,-86,-70,-222L507,225l-90,73c0,0,5,79,35,151c0,0,-59,66,-128,66c0,0,-57,0,-100,-38c0,0,-44,-39,-44,-109c0,0,0,-165,284,-360L413,-59Z"
id="f0_c3"
transform="scale(0.001,-0.001)"/>

<path d="M-214,860l-227,219c0,0,-73,70,-148,70c0,0,-67,0,-160,-58l-72,117c0,0,83,71,176,71c0,0,120,0,232,-124L-221,940l-102,294c0,0,-64,179,-189,179c0,0,-60,0,-133,-33l-60,125c0,0,84,47,164,47c0,0,200,0,281,-276L-150,901l-23,-15l-41,-26Z"
id="f0_d5"
transform="scale(0.001,-0.001)"/>

<path d="M188,365l310,9V738l18,139L188,365ZM338,0L328,52l170,55V267H73L38,354l478,670l118,-16V377l176,5l1,-76L768,267H634V90L761,73L752,0Z"
id="f0_s"
transform="scale(0.001,-0.001)"/>

<path d="M319,561c0,0,66,46,103,105c0,0,36,60,36,113c0,0,0,28,-9,48c0,0,-35,41,-88,41c0,0,-51,0,-89,-39c0,0,-38,-39,-38,-103c0,0,0,-95,85,-165ZM840,-49L750,8V342L362,31l-89,85L608,370c0,0,-121,15,-241,78L105,272L20,364L260,519c0,0,-144,118,-144,246c0,0,0,81,57,140c0,0,56,59,140,59c0,0,96,0,171,-79c0,0,75,-78,75,-168c0,0,0,-117,-130,-219c0,0,110,-40,257,-40l64,2V822H628l-46,76l14,31h418l46,-76l-13,-31H811l66,-58V-39L840,-49Z"
id="f0_ef"
transform="scale(0.001,-0.001)"/>

<path d="M228,-49L138,8V822H0l-45,76l14,31H138c0,0,-109,342,-284,342c0,0,-62,0,-102,-40c0,0,-40,-39,-40,-93c0,0,0,-61,51,-134l-42,-32c0,0,-128,113,-128,226c0,0,0,79,60,136c0,0,61,56,154,56c0,0,137,0,249,-125c0,0,112,-125,169,-336H402l46,-76L434,822H199l65,-58V-39L228,-49Z"
id="f0_cv"
transform="scale(0.001,-0.001)"/>

<path d="M547,-285c0,0,-66,25,-102,80c0,0,32,69,82,101c0,0,55,-20,99,-80c0,0,-26,-67,-79,-101Zm1,228c0,0,-122,0,-243,81c0,0,-122,81,-252,280l57,41C110,345,283,64,498,64c0,0,92,0,153,49c0,0,61,49,61,121c0,0,0,46,-28,84L440,237c0,0,-73,11,-139,55c0,0,-66,44,-105,105c0,0,-40,61,-40,119c0,0,0,72,62,125c0,0,62,53,184,53H625V822H0l-45,76l14,31H906l46,-76L938,822H678l66,-58V562H431c0,0,-164,0,-164,-99c0,0,0,-55,57,-102l261,82c0,0,104,-21,172,-98c0,0,68,-78,68,-171c0,0,0,-99,-76,-166c0,0,-77,-65,-201,-65Z"
id="f0_ch"
transform="scale(0.001,-0.001)"/>

<path d="M823,-49L733,8V339H445V191L371,160c0,0,-56,36,-120,105c0,0,-63,70,-89,131l41,59H313V735c0,0,0,99,-55,140c0,0,-3,1,-8,1c-16,0,-48,-3,-71,-23c0,0,-31,-26,-31,-66c0,0,0,-69,81,-113L189,620C189,620,31,720,31,828c0,0,0,61,45,99c0,0,46,37,109,37c0,0,96,0,173,-86c0,0,76,-87,79,-194V455H733V822H556l-46,76l14,31H998l45,-76l-13,-31H794l66,-58V-39L823,-49Z"
id="f0_by"
transform="scale(0.001,-0.001)"/>

<path d="M825,-49L735,8V217c0,0,-86,-72,-197,-72c0,0,-130,0,-238,91c0,0,-107,91,-107,204c0,0,0,55,27,105H55L12,616l14,30H574l46,-76L607,539H396c0,0,-78,-49,-78,-162c0,0,0,-70,40,-111c0,0,39,-15,94,-15c0,0,84,0,163,41c0,0,79,41,120,121V822H0l-45,76l14,31H999l46,-76l-14,-31H796l66,-58V-39L825,-49Z"
id="f0_be"
transform="scale(0.001,-0.001)"/>

<path d="M92,380L46,457l14,30H448l45,-76L480,380Z"
id="f0_l"
transform="scale(0.001,-0.001)"/>

<path d="M431,-30c0,0,-162,0,-266,120C165,90,61,211,61,399c0,0,0,140,63,278c0,0,62,137,198,233c0,0,136,95,343,104l1,-154H440c0,0,-110,-50,-172,-178c0,0,-62,-127,-62,-273c0,0,0,-148,67,-243c0,0,68,-96,195,-96l25,2c0,0,117,59,117,205c0,0,0,88,-43,152c0,0,-43,64,-116,64c0,0,-72,0,-155,-59l-35,63c0,0,121,103,246,103c0,0,106,0,177,-87c0,0,71,-88,71,-214c0,0,0,-139,-92,-234c0,0,-92,-95,-232,-95Z"
id="f0_u"
transform="scale(0.001,-0.001)"/>

<path d="M416,-30c0,0,-83,0,-175,30C241,0,148,29,75,78l59,125C134,203,296,93,463,93l82,8c0,0,75,67,75,157c0,0,0,104,-70,158c0,0,-70,53,-171,53c0,0,-86,0,-177,-35l-75,66l53,493H700l1,-69c0,0,0,-96,-13,-178l-88,-2L584,872L278,886L248,570c0,0,55,27,149,27c0,0,155,0,255,-84c0,0,100,-85,100,-224c0,0,0,-139,-95,-229c0,0,-95,-90,-241,-90Z"
id="f0_t"
transform="scale(0.001,-0.001)"/>

<path d="M959,-49L869,8V367c0,0,-32,-13,-64,-13c0,0,-50,0,-110,25c0,0,23,-52,23,-109c0,0,0,-103,-70,-170c0,0,-70,-66,-182,-66c0,0,-110,0,-222,82c0,0,-111,83,-213,293l68,42c0,0,72,-155,152,-231c0,0,81,-76,178,-76c0,0,83,0,131,49c0,0,48,48,48,117c0,0,0,54,-30,100c0,0,-31,47,-91,65L325,391L257,512c0,0,68,53,156,56c0,0,140,72,140,179c0,0,0,69,-52,99c0,0,-4,1,-11,1c-19,0,-66,-4,-123,-30c0,0,-78,-35,-142,-96L150,823c0,0,119,117,253,117c0,0,98,0,175,-71c0,0,77,-70,77,-159c0,0,0,-103,-94,-180c0,0,39,-23,73,-56c0,0,52,-22,109,-22c0,0,77,0,126,38V822H727l-46,76l14,31h840l46,-76l-13,-31H1332l66,-58V-39l-37,-10L1271,8V822H930l66,-58V-39L959,-49Z"
id="f0_am"
transform="scale(0.001,-0.001)"/>

<path d="M280,-16L139,23c0,0,170,472,422,845l-11,14L156,865L139,736l-87,2c0,0,-14,82,-14,185l2,70H633L688,878C688,878,449,501,280,-16Z"
id="f0_v"
transform="scale(0.001,-0.001)"/>

<path d="M727,-49L637,8V822H278l66,-58V226L270,196c0,0,-64,36,-122,98c0,0,-58,62,-79,122l43,59H217V822H0l-45,76l14,31H901l46,-76L933,822H698l66,-58V-39L727,-49Z"
id="f0_bb"
transform="scale(0.001,-0.001)"/>

<path d="M228,-49L138,8V822H0l-45,76l14,31H134c0,0,-91,92,-91,191c0,0,0,105,85,170c0,0,84,65,219,65c0,0,128,0,293,-76c0,0,165,-77,362,-263L958,966c0,0,-177,143,-303,210c0,0,-125,68,-244,68c0,0,-107,0,-175,-50c0,0,-68,-50,-68,-131c0,0,0,-61,49,-134H402l46,-76L434,822H199l65,-58V-39L228,-49Z"
id="f0_cu"
transform="scale(0.001,-0.001)"/>

<path d="M675,-274L602,21C602,21,550,3,498,3C498,3,347,3,210,118C210,118,73,232,73,373c0,0,0,113,84,184c0,0,84,71,222,72H524V822H0l-45,76l14,31H834l46,-76L866,822H585l66,-58V504l-3,2l3,-3H408c0,0,-95,0,-154,-53c0,0,-58,-53,-58,-132c0,0,0,-49,27,-100c0,0,28,-50,83,-84c0,0,44,-15,96,-15c0,0,91,0,160,46L535,303l101,48L773,188c0,0,-8,-28,-34,-66c0,0,-27,-38,-62,-64L813,-221L675,-274Z"
id="f0_br"
transform="scale(0.001,-0.001)"/>

<path d="M400,63c0,0,55,0,124,23c0,0,47,81,47,140c0,0,0,132,-223,242c0,0,-65,-36,-100,-95c0,0,-36,-60,-36,-125c0,0,0,-78,50,-132c0,0,50,-53,138,-53Zm20,507c0,0,133,90,133,200c0,0,0,70,-48,118c0,0,-48,49,-125,49c0,0,-48,0,-107,-23c0,0,-53,-66,-53,-132c0,0,0,-69,51,-115c0,0,51,-47,149,-97ZM377,-30c0,0,-140,0,-228,72c0,0,-88,73,-88,187c0,0,0,168,214,275C275,504,84,607,84,767c0,0,0,110,85,182c0,0,85,72,222,72c0,0,128,0,209,-65c0,0,80,-64,80,-165c0,0,0,-148,-193,-258c0,0,106,-58,165,-123c0,0,58,-65,58,-159c0,0,0,-123,-92,-202c0,0,-92,-79,-241,-79Z"
id="f0_w"
transform="scale(0.001,-0.001)"/>

<path d="M527,-71L52,414l34,92H277c0,0,12,32,12,72V822H0l-45,76l14,31H940l45,-76L972,822H350l66,-55V570c0,0,146,98,247,98c0,0,95,0,167,-73c0,0,71,-72,71,-167c0,0,0,-77,-53,-142c0,0,-54,-64,-159,-136l-89,99c0,0,100,70,152,121c0,0,52,52,52,105c0,0,0,34,-23,60c0,0,-22,26,-72,26c0,0,-139,0,-434,-252L610,34L611,8L527,-71Z"
id="f0_n0"
transform="scale(0.001,-0.001)"/>

<path d="M228,-49L138,8V822H0l-45,76l14,31H134c0,0,-231,362,-445,362c0,0,-87,0,-135,-49c0,0,-48,-49,-48,-116c0,0,0,-73,43,-122l-45,-32c0,0,-119,108,-119,223c0,0,0,94,74,155c0,0,73,60,181,60c0,0,161,0,316,-134c0,0,154,-133,267,-347H402l46,-76L434,822H199l65,-58V-39L228,-49Z"
id="f0_oc"
transform="scale(0.001,-0.001)"/>

<path d="M160,-11L136,154L377,141c0,0,201,125,201,430c0,0,0,153,-54,256c0,0,-53,102,-160,102c0,0,-31,0,-68,-9c0,0,-50,-29,-78,-89c0,0,-27,-59,-27,-127c0,0,0,-102,63,-169c0,0,62,-67,162,-67c0,0,35,0,81,12l16,-81c0,0,-78,-26,-151,-26c0,0,-140,0,-228,93c0,0,-88,93,-88,235c0,0,0,141,93,232c0,0,93,91,235,91c0,0,156,0,252,-122c0,0,95,-121,95,-320c0,0,0,-252,-160,-422C561,160,400,-8,160,-11Z"
id="f0_x"
transform="scale(0.001,-0.001)"/>

<path d="M455,84c0,0,32,0,64,11c0,0,66,59,96,174c0,0,30,114,30,231c0,0,0,172,-61,291c0,0,-61,118,-178,118c0,0,-33,0,-70,-11c0,0,-63,-56,-94,-173c0,0,-31,-117,-31,-221c0,0,0,-176,68,-298c0,0,68,-122,176,-122ZM423,-14c0,0,-157,0,-255,137c0,0,-98,138,-98,360c0,0,0,230,105,379c0,0,105,148,273,148c0,0,166,0,252,-138c0,0,87,-137,87,-351c0,0,0,-243,-99,-390C688,131,588,-14,423,-14Z"
id="f0_o"
transform="scale(0.001,-0.001)"/>

<path d="M0,822l-45,76l14,31H61l46,-76L93,822Z"
id="f0_no"
transform="scale(0.001,-0.001)"/>

<path d="M768,-49L678,8V202c0,0,-73,-58,-172,-58c0,0,-123,0,-240,94c0,0,-118,94,-179,237l20,55c0,0,134,12,215,70c0,0,81,57,81,141c0,0,0,90,-67,134l-26,3c0,0,-46,0,-74,-29c0,0,-28,-30,-28,-68c0,0,0,-55,82,-109L252,620C252,620,93,720,93,820c0,0,0,65,47,104c0,0,46,40,114,40c0,0,99,0,179,-83c0,0,80,-83,82,-197c0,0,0,-93,-79,-165c0,0,-78,-73,-199,-97c0,0,29,-104,88,-158c0,0,42,-16,92,-16c0,0,78,0,151,38c0,0,74,38,110,111V822H553l-46,76l14,31H943l45,-76L975,822H739l66,-58V-39L768,-49Z"
id="f0_bq"
transform="scale(0.001,-0.001)"/>

<path d="M-239,897c0,0,-82,61,-132,137c0,0,-50,75,-50,150c0,0,0,78,52,133c0,0,52,55,141,55c0,0,98,0,176,-64l-23,-69c0,0,-52,32,-104,32c0,0,-57,0,-95,-36c0,0,-38,-36,-38,-95c0,0,0,-115,117,-217l-44,-26Z"
id="f0_dr"
transform="scale(0.001,-0.001)"/>

<path d="M108,-433L-59,-214c0,0,-99,119,-191,119c0,0,-59,0,-96,-35c0,0,-36,-34,-36,-81c0,0,0,-49,42,-83l152,95l64,-116c0,0,-71,-58,-148,-58c0,0,-80,0,-146,63c0,0,-65,64,-65,144c0,0,0,77,62,131c0,0,61,53,142,53c0,0,138,0,296,-205L165,-393l-57,-40Z"
id="f0_cx"
transform="scale(0.001,-0.001)"/>

<path d="M348,229c0,0,57,0,106,17L263,559c0,0,-95,-50,-95,-162c0,0,0,-75,52,-136c0,0,49,-32,128,-32Zm170,48c0,0,61,38,96,91V504c0,0,-131,80,-244,80l-35,-2L518,277ZM704,-49L614,8V193c0,0,-84,-65,-192,-65c0,0,-139,0,-255,98c0,0,-115,98,-115,226c0,0,0,106,77,175c0,0,77,70,189,70c0,0,38,0,75,-9L614,578V822H0l-45,76l14,31H878l46,-76L911,822H675l66,-58V-39L704,-49Z"
id="f0_bx"
transform="scale(0.001,-0.001)"/>

<path d="M527,-71L52,414l34,92H277c0,0,12,32,12,72V822H0l-45,76l14,31H654l46,-76L686,822H350l66,-55V564c0,0,0,-43,-25,-89H782L798,370H315L264,316L610,34L611,8L527,-71Z"
id="f0_m1"
transform="scale(0.001,-0.001)"/>

<path d="M471,-26c0,0,-259,0,-448,396l70,43C93,413,240,98,442,98c0,0,79,0,132,46c0,0,54,45,54,120c0,0,0,61,-38,116c0,0,-38,54,-107,72L322,370L255,492c0,0,66,53,156,56c0,0,128,51,128,153c0,0,0,77,-65,121H0l-45,76l14,31H1123l46,-76l-14,-31H578c0,0,76,-66,76,-157c0,0,0,-95,-87,-156c0,0,52,-29,84,-64c0,0,131,134,243,134c0,0,93,0,158,-70c0,0,65,-71,65,-167c0,0,0,-142,-177,-272L851,170c0,0,173,129,173,230c0,0,0,34,-23,57c0,0,-23,23,-63,23c0,0,-104,0,-215,-141c0,0,23,-55,23,-111c0,0,0,-109,-78,-182c0,0,-78,-72,-197,-72Z"
id="f0_aq"
transform="scale(0.001,-0.001)"/>

<path d="M-233,1021c0,0,-84,0,-168,55c0,0,-84,56,-146,162l51,50c0,0,95,-162,219,-162c0,0,125,0,160,157L-7,1234c0,0,-21,-103,-81,-158c0,0,-61,-55,-145,-55Zm-41,201c0,0,-66,25,-102,80c0,0,32,68,82,101c0,0,55,-20,99,-80c0,0,-26,-67,-79,-101Z"
id="f0_di"
transform="scale(0.001,-0.001)"/>

<path d="M266,150c0,0,-57,35,-120,104c0,0,-63,70,-89,131l41,60H211L194,822H0l-45,76l14,31H587l46,-76L619,822H255l66,-58l7,-319H688L721,328H339V180L266,150Z"
id="f0_lq"
transform="scale(0.001,-0.001)"/>


</defs>
</svg>