<?xml version="1.0" encoding="UTF-8" standalone="no"?>
<!DOCTYPE svg PUBLIC "-//W3C//DTD SVG 1.1//EN"
"http://www.w3.org/Graphics/SVG/1.1/DTD/svg11.dtd">
<svg viewBox="0 0 641 910" version="1.1" xmlns="http://www.w3.org/2000/svg" xmlns:xlink="http://www.w3.org/1999/xlink">
<defs>
<clipPath id="c0_84"><path d="M0,909.8V0H641.7V909.8Z"/></clipPath>
<clipPath id="c1_84"><path d="M0,908.6V0H641.7V908.6Z"/></clipPath>
<style type="text/css"><![CDATA[
.g0_84{
fill: #FFFFFF;
}
.g1_84{
}
]]></style>
</defs>
<path d="M0,0H641.7V909.8H0V0Z" class="g0_84"/>
<path d="M0,0H641.7V909.8H0V0Z" class="g0_84"/>
<g clip-path="url(#c0_84)">
<path d="M0,-70053.9H641.7V36391.7H0V-70053.9Z" class="g0_84"/>
</g>
<path d="M0,0H641.7V908.6H0V0Z" class="g0_84"/>
<path d="M19.5,60.7H602.7v1.2H19.5V60.7Z" class="g1_84"/>
<g clip-path="url(#c1_84)">
<path d="M0,61.9H641.7V909.8H0V61.9Z" class="g0_84"/>
<g fill="#000000" >
<use xlink:href="#f6_al" transform="matrix(14,0,0,14,116,82.5)" />
<use xlink:href="#f6_c1" transform="matrix(14,0,0,14,131.9,82.5)" />
<use xlink:href="#f6_d4" transform="matrix(14,0,0,14,139.9,82.5)" />
<use xlink:href="#f6_c7" transform="matrix(14,0,0,14,145.9,82.5)" />
<use xlink:href="#f6_ct" transform="matrix(14,0,0,14,158,82.5)" />
<use xlink:href="#f6_c1" transform="matrix(14,0,0,14,163.6,82.5)" />
<use xlink:href="#f6_cv" transform="matrix(14,0,0,14,172,82.5)" />
<use xlink:href="#f6_c7" transform="matrix(14,0,0,14,183.3,82.5)" />
<use xlink:href="#f6_ct" transform="matrix(14,0,0,14,195.4,82.5)" />
<use xlink:href="#f6_c1" transform="matrix(14,0,0,14,201,82.5)" />
<use xlink:href="#f6_cv" transform="matrix(14,0,0,14,209.4,82.5)" />
<use xlink:href="#f6_bt" transform="matrix(14,0,0,14,220.7,82.5)" />
<use xlink:href="#f6_ct" transform="matrix(14,0,0,14,232.4,82.5)" />
<use xlink:href="#f6_b9" transform="matrix(14,0,0,14,238,82.5)" />
<use xlink:href="#f6_d8" transform="matrix(14,0,0,14,253.5,82.5)" />
<use xlink:href="#f6_ch" transform="matrix(14,0,0,14,259.1,82.5)" />
<use xlink:href="#f6_ct" transform="matrix(14,0,0,14,271.8,82.5)" />
<use xlink:href="#f6_c1" transform="matrix(14,0,0,14,283.1,82.5)" />
<use xlink:href="#f6_ct" transform="matrix(14,0,0,14,291.5,82.5)" />
<use xlink:href="#f6_c1" transform="matrix(14,0,0,14,302.8,82.5)" />
<use xlink:href="#f6_ct" transform="matrix(14,0,0,14,311.1,82.5)" />
<use xlink:href="#f6_bg" transform="matrix(14,0,0,14,316.8,82.5)" />
<use xlink:href="#f6_ct" transform="matrix(14,0,0,14,331,82.5)" />
<use xlink:href="#f6_k" transform="matrix(14,0,0,14,336.6,82.5)" />
<use xlink:href="#f6_bq" transform="matrix(14,0,0,14,347.5,82.5)" />
<use xlink:href="#f6_ct" transform="matrix(14,0,0,14,360.7,82.5)" />
<use xlink:href="#f6_bt" transform="matrix(14,0,0,14,366.3,82.5)" />
<use xlink:href="#f6_d4" transform="matrix(14,0,0,14,378.2,82.5)" />
<use xlink:href="#f6_bz" transform="matrix(14,0,0,14,383.7,82.5)" />
<use xlink:href="#f6_bt" transform="matrix(14,0,0,14,397.1,82.5)" />
<use xlink:href="#f6_ct" transform="matrix(14,0,0,14,408.8,82.5)" />
<use xlink:href="#f6_c7" transform="matrix(14,0,0,14,414.4,82.5)" />
<use xlink:href="#f6_bo" transform="matrix(14,0,0,14,426.5,82.5)" />
<use xlink:href="#f6_am" transform="matrix(14,0,0,14,446.5,82.5)" />
<use xlink:href="#f6_c0" transform="matrix(14,0,0,14,468,82.5)" />
<use xlink:href="#f6_ct" transform="matrix(14,0,0,14,480.5,82.5)" />
<use xlink:href="#f6_c1" transform="matrix(14,0,0,14,491.8,82.5)" />
<use xlink:href="#f6_d4" transform="matrix(14,0,0,14,499.8,82.5)" />
<use xlink:href="#f6_k" transform="matrix(14,0,0,14,500.2,82.5)" />
<use xlink:href="#f6_bn" transform="matrix(14,0,0,14,137.8,115.7)" />
<use xlink:href="#f6_d8" transform="matrix(14,0,0,14,149.7,115.7)" />
<use xlink:href="#f6_c3" transform="matrix(14,0,0,14,155.4,115.7)" />
<use xlink:href="#f6_bt" transform="matrix(14,0,0,14,175.7,115.7)" />
<use xlink:href="#f6_bb" transform="matrix(14,0,0,14,187.4,115.7)" />
<use xlink:href="#f6_ct" transform="matrix(14,0,0,14,200.1,115.7)" />
<use xlink:href="#f6_ch" transform="matrix(14,0,0,14,205.7,115.7)" />
<use xlink:href="#f6_ct" transform="matrix(14,0,0,14,218.4,115.7)" />
<use xlink:href="#f6_bt" transform="matrix(14,0,0,14,229.6,115.7)" />
<use xlink:href="#f6_d8" transform="matrix(14,0,0,14,241.4,115.7)" />
<use xlink:href="#f6_bx" transform="matrix(14,0,0,14,247,115.7)" />
<use xlink:href="#f6_bp" transform="matrix(14,0,0,14,259.3,115.7)" />
<use xlink:href="#f6_bx" transform="matrix(14,0,0,14,277.2,115.7)" />
<use xlink:href="#f6_ct" transform="matrix(14,0,0,14,289.5,115.7)" />
<use xlink:href="#f6_bg" transform="matrix(14,0,0,14,295.2,115.7)" />
<use xlink:href="#f6_d4" transform="matrix(14,0,0,14,309.5,115.7)" />
<use xlink:href="#f6_k" transform="matrix(14,0,0,14,309.4,115.7)" />
<use xlink:href="#f6_bh" transform="matrix(14,0,0,14,320.3,115.7)" />
<use xlink:href="#f6_ct" transform="matrix(14,0,0,14,337.1,115.7)" />
<use xlink:href="#f6_c3" transform="matrix(14,0,0,14,342.7,115.7)" />
<use xlink:href="#f6_c1" transform="matrix(14,0,0,14,357.4,115.7)" />
<use xlink:href="#f6_c1" transform="matrix(14,0,0,14,371.5,115.7)" />
<use xlink:href="#f6_ct" transform="matrix(14,0,0,14,379.8,115.7)" />
<use xlink:href="#f6_bh" transform="matrix(14,0,0,14,391.1,115.7)" />
<use xlink:href="#f6_bo" transform="matrix(14,0,0,14,407.9,115.7)" />
<use xlink:href="#f6_b9" transform="matrix(14,0,0,14,422.3,115.7)" />
<use xlink:href="#f6_ct" transform="matrix(14,0,0,14,437.8,115.7)" />
<use xlink:href="#f6_c1" transform="matrix(14,0,0,14,443.4,115.7)" />
<use xlink:href="#f6_d4" transform="matrix(14,0,0,14,451.4,115.7)" />
<use xlink:href="#f6_bg" transform="matrix(14,0,0,14,457.4,115.7)" />
<use xlink:href="#f6_cv" transform="matrix(14,0,0,14,471.7,115.7)" />
<use xlink:href="#f6_k" transform="matrix(14,0,0,14,477.3,115.7)" />
<use xlink:href="#f6_c7" transform="matrix(14,0,0,14,180.2,149)" />
<use xlink:href="#f6_ct" transform="matrix(14,0,0,14,192.3,149)" />
<use xlink:href="#f6_c1" transform="matrix(14,0,0,14,197.9,149)" />
<use xlink:href="#f6_cv" transform="matrix(14,0,0,14,206.3,149)" />
<use xlink:href="#f6_c7" transform="matrix(14,0,0,14,217.6,149)" />
<use xlink:href="#f6_ct" transform="matrix(14,0,0,14,229.6,149)" />
<use xlink:href="#f6_c1" transform="matrix(14,0,0,14,235.3,149)" />
<use xlink:href="#f6_cv" transform="matrix(14,0,0,14,243.6,149)" />
<use xlink:href="#f6_bt" transform="matrix(14,0,0,14,254.9,149)" />
<use xlink:href="#f6_ct" transform="matrix(14,0,0,14,266.6,149)" />
<use xlink:href="#f6_b9" transform="matrix(14,0,0,14,272.3,149)" />
<use xlink:href="#f6_d8" transform="matrix(14,0,0,14,287.8,149)" />
<use xlink:href="#f6_ch" transform="matrix(14,0,0,14,293.4,149)" />
<use xlink:href="#f6_ct" transform="matrix(14,0,0,14,306.1,149)" />
<use xlink:href="#f6_c1" transform="matrix(14,0,0,14,317.4,149)" />
<use xlink:href="#f6_ct" transform="matrix(14,0,0,14,325.7,149)" />
<use xlink:href="#f6_c1" transform="matrix(14,0,0,14,337,149)" />
<use xlink:href="#f6_ct" transform="matrix(14,0,0,14,345.4,149)" />
<use xlink:href="#f6_bg" transform="matrix(14,0,0,14,351,149)" />
<use xlink:href="#f6_ct" transform="matrix(14,0,0,14,365.3,149)" />
<use xlink:href="#f6_k" transform="matrix(14,0,0,14,370.9,149)" />
<use xlink:href="#f6_bq" transform="matrix(14,0,0,14,381.8,149)" />
<use xlink:href="#f6_d8" transform="matrix(14,0,0,14,395,149)" />
<use xlink:href="#f6_bt" transform="matrix(14,0,0,14,400.6,149)" />
<use xlink:href="#f6_d4" transform="matrix(14,0,0,14,412.4,149)" />
<use xlink:href="#f6_pc" transform="matrix(14,0,0,14,412.3,149)" />
<use xlink:href="#f6_pc" transform="matrix(14,0,0,14,416.6,149)" />
<use xlink:href="#f6_pc" transform="matrix(14,0,0,14,420.9,149)" />
<use xlink:href="#f6_pc" transform="matrix(14,0,0,14,425.1,149)" />
<use xlink:href="#f6_t" transform="matrix(14,0,0,14,429.4,149)" />
<use xlink:href="#f6_al" transform="matrix(14,0,0,14,141.2,207.4)" />
<use xlink:href="#f6_c1" transform="matrix(14,0,0,14,157.1,207.4)" />
<use xlink:href="#f6_d4" transform="matrix(14,0,0,14,165.1,207.4)" />
<use xlink:href="#f6_by" transform="matrix(14,0,0,14,171.1,207.4)" />
<use xlink:href="#f6_d5" transform="matrix(14,0,0,14,185.2,207.4)" />
<use xlink:href="#f6_c1" transform="matrix(14,0,0,14,185.1,207.4)" />
<use xlink:href="#f6_c7" transform="matrix(14,0,0,14,193.5,207.4)" />
<use xlink:href="#f6_bz" transform="matrix(14,0,0,14,211.2,207.4)" />
<use xlink:href="#f6_dj" transform="matrix(14,0,0,14,218.7,207.8)" />
<use xlink:href="#f6_bm" transform="matrix(14,0,0,14,224.6,207.4)" />
<use xlink:href="#f6_c3" transform="matrix(14,0,0,14,237.2,207.4)" />
<use xlink:href="#f6_b9" transform="matrix(14,0,0,14,257.6,207.4)" />
<use xlink:href="#f6_c1" transform="matrix(14,0,0,14,273.1,207.4)" />
<use xlink:href="#f6_d4" transform="matrix(14,0,0,14,281.1,207.4)" />
<use xlink:href="#f6_cu" transform="matrix(14,0,0,14,287.2,207.4)" />
<use xlink:href="#f6_c7" transform="matrix(14,0,0,14,292.8,207.4)" />
<use xlink:href="#f6_bt" transform="matrix(14,0,0,14,304.9,207.4)" />
<use xlink:href="#f6_dj" transform="matrix(14,0,0,14,313.7,207.8)" />
<use xlink:href="#f6_bp" transform="matrix(14,0,0,14,316.6,207.4)" />
<use xlink:href="#f6_cv" transform="matrix(14,0,0,14,328.9,207.4)" />
<use xlink:href="#f6_bz" transform="matrix(14,0,0,14,340.2,207.4)" />
<use xlink:href="#f6_d8" transform="matrix(14,0,0,14,353.5,207.4)" />
<use xlink:href="#f6_cc" transform="matrix(14,0,0,14,359.1,207.4)" />
<use xlink:href="#f6_cv" transform="matrix(14,0,0,14,370.7,207.4)" />
<use xlink:href="#f6_bt" transform="matrix(14,0,0,14,382,207.4)" />
<use xlink:href="#f6_bb" transform="matrix(14,0,0,14,393.7,207.4)" />
<use xlink:href="#f6_c1" transform="matrix(14,0,0,14,406.4,207.4)" />
<use xlink:href="#f6_bz" transform="matrix(14,0,0,14,420.4,207.4)" />
<use xlink:href="#f6_ct" transform="matrix(14,0,0,14,433.7,207.4)" />
<use xlink:href="#f6_c0" transform="matrix(14,0,0,14,439.4,207.4)" />
<use xlink:href="#f6_cc" transform="matrix(14,0,0,14,457.6,207.4)" />
<use xlink:href="#f6_d8" transform="matrix(14,0,0,14,469.2,207.4)" />
<use xlink:href="#f6_k" transform="matrix(14,0,0,14,474.8,207.4)" />
<use xlink:href="#f6_al" transform="matrix(14,0,0,14,129.8,240.6)" />
<use xlink:href="#f6_c1" transform="matrix(14,0,0,14,145.6,240.6)" />
<use xlink:href="#f6_d4" transform="matrix(14,0,0,14,153.6,240.6)" />
<use xlink:href="#f6_bz" transform="matrix(14,0,0,14,159.7,240.6)" />
<use xlink:href="#f6_dj" transform="matrix(14,0,0,14,167.2,241.1)" />
<use xlink:href="#f6_bm" transform="matrix(14,0,0,14,173,240.6)" />
<use xlink:href="#f6_c3" transform="matrix(14,0,0,14,185.7,240.6)" />
<use xlink:href="#f6_c7" transform="matrix(14,0,0,14,206.1,240.6)" />
<use xlink:href="#f6_ct" transform="matrix(14,0,0,14,218.2,240.6)" />
<use xlink:href="#f6_c3" transform="matrix(14,0,0,14,223.8,240.6)" />
<use xlink:href="#f6_d8" transform="matrix(14,0,0,14,238.5,240.6)" />
<use xlink:href="#f6_c1" transform="matrix(14,0,0,14,249.8,240.6)" />
<use xlink:href="#f6_d4" transform="matrix(14,0,0,14,257.7,240.6)" />
<use xlink:href="#f6_cu" transform="matrix(14,0,0,14,263.8,240.6)" />
<use xlink:href="#f6_c7" transform="matrix(14,0,0,14,269.4,240.6)" />
<use xlink:href="#f6_bt" transform="matrix(14,0,0,14,281.5,240.6)" />
<use xlink:href="#f6_dj" transform="matrix(14,0,0,14,290.3,241.1)" />
<use xlink:href="#f6_bp" transform="matrix(14,0,0,14,293.2,240.6)" />
<use xlink:href="#f6_cv" transform="matrix(14,0,0,14,305.5,240.6)" />
<use xlink:href="#f6_k" transform="matrix(14,0,0,14,311.2,240.6)" />
<use xlink:href="#f6_by" transform="matrix(14,0,0,14,322,240.6)" />
<use xlink:href="#f6_o0" transform="matrix(14,0,0,14,336,240.6)" />
<use xlink:href="#f6_l1" transform="matrix(14,0,0,14,341.6,240.6)" />
<use xlink:href="#f6_bp" transform="matrix(14,0,0,14,353.5,240.6)" />
<use xlink:href="#f6_bz" transform="matrix(14,0,0,14,371.5,240.6)" />
<use xlink:href="#f6_oz" transform="matrix(14,0,0,14,384.9,240.6)" />
<use xlink:href="#f6_c7" transform="matrix(14,0,0,14,390.5,240.6)" />
<use xlink:href="#f6_d4" transform="matrix(14,0,0,14,402.7,240.6)" />
<use xlink:href="#f6_bb" transform="matrix(14,0,0,14,402.6,240.6)" />
<use xlink:href="#f6_ct" transform="matrix(14,0,0,14,415.2,240.6)" />
<use xlink:href="#f6_am" transform="matrix(14,0,0,14,426.5,240.6)" />
<use xlink:href="#f6_c7" transform="matrix(14,0,0,14,447.9,240.6)" />
<use xlink:href="#f6_d8" transform="matrix(14,0,0,14,460,240.6)" />
<use xlink:href="#f6_bg" transform="matrix(14,0,0,14,465.6,240.6)" />
<use xlink:href="#f6_cv" transform="matrix(14,0,0,14,479.9,240.6)" />
<use xlink:href="#f6_k" transform="matrix(14,0,0,14,485.5,240.6)" />
<use xlink:href="#f6_c7" transform="matrix(14,0,0,14,182.5,273.9)" />
<use xlink:href="#f6_ct" transform="matrix(14,0,0,14,194.6,273.9)" />
<use xlink:href="#f6_c1" transform="matrix(14,0,0,14,200.2,273.9)" />
<use xlink:href="#f6_cv" transform="matrix(14,0,0,14,208.6,273.9)" />
<use xlink:href="#f6_c7" transform="matrix(14,0,0,14,219.9,273.9)" />
<use xlink:href="#f6_ct" transform="matrix(14,0,0,14,231.9,273.9)" />
<use xlink:href="#f6_c1" transform="matrix(14,0,0,14,237.6,273.9)" />
<use xlink:href="#f6_cv" transform="matrix(14,0,0,14,245.9,273.9)" />
<use xlink:href="#f6_bt" transform="matrix(14,0,0,14,257.2,273.9)" />
<use xlink:href="#f6_ct" transform="matrix(14,0,0,14,268.9,273.9)" />
<use xlink:href="#f6_b9" transform="matrix(14,0,0,14,274.6,273.9)" />
<use xlink:href="#f6_d8" transform="matrix(14,0,0,14,290.1,273.9)" />
<use xlink:href="#f6_ch" transform="matrix(14,0,0,14,295.7,273.9)" />
<use xlink:href="#f6_ct" transform="matrix(14,0,0,14,308.4,273.9)" />
<use xlink:href="#f6_c1" transform="matrix(14,0,0,14,319.6,273.9)" />
<use xlink:href="#f6_ct" transform="matrix(14,0,0,14,328,273.9)" />
<use xlink:href="#f6_c1" transform="matrix(14,0,0,14,339.3,273.9)" />
<use xlink:href="#f6_ct" transform="matrix(14,0,0,14,347.7,273.9)" />
<use xlink:href="#f6_bg" transform="matrix(14,0,0,14,353.3,273.9)" />
<use xlink:href="#f6_ct" transform="matrix(14,0,0,14,367.6,273.9)" />
<use xlink:href="#f6_k" transform="matrix(14,0,0,14,373.2,273.9)" />
<use xlink:href="#f6_bq" transform="matrix(14,0,0,14,384.1,273.9)" />
<use xlink:href="#f6_d8" transform="matrix(14,0,0,14,397.3,273.9)" />
<use xlink:href="#f6_bt" transform="matrix(14,0,0,14,402.9,273.9)" />
<use xlink:href="#f6_d4" transform="matrix(14,0,0,14,414.7,273.9)" />
<use xlink:href="#f6_pc" transform="matrix(14,0,0,14,414.6,273.9)" />
<use xlink:href="#f6_pc" transform="matrix(14,0,0,14,418.9,273.9)" />
<use xlink:href="#f6_pc" transform="matrix(14,0,0,14,423.2,273.9)" />
<use xlink:href="#f6_u" transform="matrix(14,0,0,14,427.4,273.9)" />
<use xlink:href="#f7_4r" transform="matrix(9,0,0,9,290.2,795.2)" />
<use xlink:href="#f8_r" transform="matrix(9,0,0,9,303,795.2)" />
<use xlink:href="#f8_s" transform="matrix(9,0,0,9,310.7,795.2)" />
<use xlink:href="#f7_4r" transform="matrix(9,0,0,9,321.3,795.2)" />
</g>
</g>
<image preserveAspectRatio="none" x="22" y="801" width="581" height="86" xlink:href="img/1.png"/>
<image preserveAspectRatio="none" x="202" y="14" width="217" height="26" xlink:href="img/2.png"/>
<defs>
<path d="M959,-49L869,8V367c0,0,-32,-13,-64,-13c0,0,-50,0,-110,25c0,0,23,-52,23,-109c0,0,0,-103,-70,-170c0,0,-70,-66,-182,-66c0,0,-110,0,-222,82c0,0,-111,83,-213,293l68,42c0,0,72,-155,152,-231c0,0,81,-76,178,-76c0,0,83,0,131,49c0,0,48,48,48,117c0,0,0,54,-30,100c0,0,-31,47,-91,65L325,391L257,512c0,0,68,53,156,56c0,0,140,72,140,179c0,0,0,69,-52,99c0,0,-4,1,-11,1c-19,0,-66,-4,-123,-30c0,0,-78,-35,-142,-96L150,823c0,0,119,117,253,117c0,0,98,0,175,-71c0,0,77,-70,77,-159c0,0,0,-103,-94,-180c0,0,39,-23,73,-56c0,0,52,-22,109,-22c0,0,77,0,126,38V822H727l-46,76l14,31h439l45,-76l-13,-31H930l66,-58V-39L959,-49Z"
id="f6_al"
transform="scale(0.001,-0.001)"/>

<path d="M527,-71L52,414l34,92H277c0,0,12,32,12,72V822H0l-45,76l14,31H599l46,-76L631,822H350l66,-55V564c0,0,0,-96,-152,-248L610,34L611,8L527,-71Z"
id="f6_c1"
transform="scale(0.001,-0.001)"/>

<path d="M-214,863l-199,281c0,0,-70,92,-157,92c0,0,-69,0,-159,-58l-72,118c0,0,89,73,180,73c0,0,141,0,258,-170L-155,901l-59,-38Z"
id="f6_d4"
transform="scale(0.001,-0.001)"/>

<path d="M325,240c0,0,77,0,154,35c0,0,77,35,120,99V500c0,0,-118,73,-222,73c0,0,-97,0,-151,-54c0,0,-53,-53,-53,-128c0,0,0,-73,49,-125c0,0,38,-26,103,-26ZM689,-49L599,8V199c0,0,-73,-65,-179,-65c0,0,-134,0,-252,96c0,0,-118,95,-118,221c0,0,0,102,78,171c0,0,78,69,190,69c0,0,38,0,75,-10L599,582V822H0l-45,76l14,31H863l46,-76L895,822H660l66,-58V-39L689,-49Z"
id="f6_c7"
transform="scale(0.001,-0.001)"/>

<path d="M228,-49L138,8V822H0l-45,76l14,31H402l46,-76L434,822H199l65,-58V-39L228,-49Z"
id="f6_ct"
transform="scale(0.001,-0.001)"/>

<path d="M228,-49L138,8V822H0l-45,76l14,31H138c0,0,-109,342,-284,342c0,0,-62,0,-102,-40c0,0,-40,-39,-40,-93c0,0,0,-61,51,-134l-42,-32c0,0,-128,113,-128,226c0,0,0,79,60,136c0,0,61,56,154,56c0,0,137,0,249,-125c0,0,112,-125,169,-336H402l46,-76L434,822H199l65,-58V-39L228,-49Z"
id="f6_cv"
transform="scale(0.001,-0.001)"/>

<path d="M663,-49L573,8V445H299V280L226,251c0,0,-105,99,-162,238l63,72H573V822H0l-45,76l14,31H837l46,-76L869,822H634l66,-58V-39L663,-49Z"
id="f6_bt"
transform="scale(0.001,-0.001)"/>

<path d="M283,260c0,0,122,0,209,113V513c0,0,-90,51,-160,51c0,0,-80,0,-129,-50c0,0,-49,-50,-49,-118c0,0,0,-60,35,-110c0,0,45,-26,94,-26ZM582,-49L492,8V211c0,0,-63,-54,-141,-54c0,0,-113,0,-213,92c0,0,-100,92,-100,205c0,0,0,93,69,157c0,0,69,64,162,64c0,0,32,0,64,-9L492,590V822H0l-45,76l14,31H1108l45,-76l-13,-31H553l66,-58V524c0,0,91,89,192,89c0,0,98,0,171,-79c0,0,72,-79,72,-186c0,0,0,-178,-224,-330L736,124c0,0,219,153,219,269c0,0,0,44,-26,75c0,0,-26,32,-81,32c0,0,-109,0,-229,-155V-39L582,-49Z"
id="f6_b9"
transform="scale(0.001,-0.001)"/>

<path d="M228,-49L138,8V822H0l-45,76l14,31H119L-33,1144c0,0,-70,92,-157,92c0,0,-69,0,-159,-58l-72,118c0,0,89,73,181,73c0,0,140,0,257,-170L205,929H402l46,-76L434,822H199l65,-58V-39L228,-49Z"
id="f6_d8"
transform="scale(0.001,-0.001)"/>

<path d="M547,-285c0,0,-66,25,-102,80c0,0,32,69,82,101c0,0,55,-20,99,-80c0,0,-26,-67,-79,-101Zm1,228c0,0,-122,0,-243,81c0,0,-122,81,-252,280l57,41C110,345,283,64,498,64c0,0,92,0,153,49c0,0,61,49,61,121c0,0,0,46,-28,84L440,237c0,0,-73,11,-139,55c0,0,-66,44,-105,105c0,0,-40,61,-40,119c0,0,0,72,62,125c0,0,62,53,184,53H625V822H0l-45,76l14,31H906l46,-76L938,822H678l66,-58V562H431c0,0,-164,0,-164,-99c0,0,0,-55,57,-102l261,82c0,0,104,-21,172,-98c0,0,68,-78,68,-171c0,0,0,-99,-76,-166c0,0,-77,-65,-201,-65Z"
id="f6_ch"
transform="scale(0.001,-0.001)"/>

<path d="M845,-49L755,8V513H497c0,0,61,-45,93,-110c0,0,33,-64,33,-128c0,0,0,-90,-58,-144c0,0,-59,-53,-143,-53c0,0,-133,0,-234,139C188,217,87,356,20,596l76,24c0,0,60,-201,127,-306c0,0,67,-105,160,-105c0,0,57,0,91,36c0,0,33,36,33,91c0,0,0,84,-73,159L295,558v71H755V822H0l-45,76l14,31H1019l46,-76l-14,-31H816l66,-58V-39L845,-49Z"
id="f6_bg"
transform="scale(0.001,-0.001)"/>

<path d="M108,-222l-44,58c0,0,96,81,104,164L89,61c0,0,12,83,93,122c0,0,50,-15,79,-55c0,0,29,-39,29,-90c0,0,0,-69,-48,-142c0,0,-48,-72,-134,-118Z"
id="f6_k"
transform="scale(0.001,-0.001)"/>

<path d="M768,-49L678,8V202c0,0,-73,-58,-172,-58c0,0,-123,0,-240,94c0,0,-118,94,-179,237l20,55c0,0,134,12,215,70c0,0,81,57,81,141c0,0,0,90,-67,134l-26,3c0,0,-46,0,-74,-29c0,0,-28,-30,-28,-68c0,0,0,-55,82,-109L252,620C252,620,93,720,93,820c0,0,0,65,47,104c0,0,46,40,114,40c0,0,99,0,179,-83c0,0,80,-83,82,-197c0,0,0,-93,-79,-165c0,0,-78,-73,-199,-97c0,0,29,-104,88,-158c0,0,42,-16,92,-16c0,0,78,0,151,38c0,0,74,38,110,111V822H553l-46,76l14,31H943l45,-76L975,822H739l66,-58V-39L768,-49Z"
id="f6_bq"
transform="scale(0.001,-0.001)"/>

<path d="M689,445V822H286l65,-58l8,-319ZM779,-49L689,8V328H370V180L296,150c0,0,-56,35,-120,104c0,0,-63,70,-89,131l41,60H238L223,822H0l-45,76l14,31H953l46,-76L985,822H750l66,-58V-39L779,-49Z"
id="f6_bz"
transform="scale(0.001,-0.001)"/>

<path d="M342,324c0,0,45,0,75,34c0,0,31,33,31,100V822H165l66,-58V390c0,0,32,-66,111,-66ZM853,-49L762,8V822H509l65,-58V455c0,0,0,-134,-51,-185c0,0,-52,-52,-127,-52c0,0,-98,0,-195,99c0,0,-97,99,-97,209V822H0l-45,76l14,31H1027l46,-76l-14,-31H823l66,-58V-39L853,-49Z"
id="f6_bo"
transform="scale(0.001,-0.001)"/>

<path d="M959,-49L869,8V367c0,0,-32,-13,-64,-13c0,0,-50,0,-110,25c0,0,23,-52,23,-109c0,0,0,-103,-70,-170c0,0,-70,-66,-182,-66c0,0,-110,0,-222,82c0,0,-111,83,-213,293l68,42c0,0,72,-155,152,-231c0,0,81,-76,178,-76c0,0,83,0,131,49c0,0,48,48,48,117c0,0,0,54,-30,100c0,0,-31,47,-91,65L325,391L257,512c0,0,68,53,156,56c0,0,140,72,140,179c0,0,0,69,-52,99c0,0,-4,1,-11,1c-19,0,-66,-4,-123,-30c0,0,-78,-35,-142,-96L150,823c0,0,119,117,253,117c0,0,98,0,175,-71c0,0,77,-70,77,-159c0,0,0,-103,-94,-180c0,0,39,-23,73,-56c0,0,52,-22,109,-22c0,0,77,0,126,38V822H727l-46,76l14,31h840l46,-76l-13,-31H1332l66,-58V-39l-37,-10L1271,8V822H930l66,-58V-39L959,-49Z"
id="f6_am"
transform="scale(0.001,-0.001)"/>

<path d="M374,248c0,0,77,0,149,36c0,0,71,37,110,107V822H284c0,0,138,-96,138,-208c0,0,0,-151,-228,-192c0,0,29,-104,89,-158c0,0,41,-16,91,-16ZM723,-49L633,8V200c0,0,-69,-56,-170,-56c0,0,-122,0,-240,94c0,0,-118,94,-179,237l20,55c0,0,133,17,187,44c0,0,55,28,55,84c0,0,0,45,-30,81c0,0,-30,36,-99,83H0l-45,76l14,31H897l46,-76L929,822H694l65,-58V-39L723,-49Z"
id="f6_c0"
transform="scale(0.001,-0.001)"/>

<path d="M570,78c0,0,66,17,105,54c0,0,40,38,40,88c0,0,0,40,-23,66c0,0,-23,26,-58,26c0,0,-40,0,-71,-33c0,0,-31,-33,-31,-90c0,0,0,-55,38,-111ZM538,-45c0,0,-182,0,-322,128C216,83,76,211,76,368c0,0,0,122,91,201c0,0,90,79,238,79H564V822H0l-45,76l14,31H853l45,-76L885,822H617l66,-58V521H420c0,0,-99,0,-162,-57c0,0,-62,-58,-62,-146c0,0,0,-121,105,-208c0,0,118,-41,188,-41l29,1l-69,46c0,0,-36,55,-36,115c0,0,0,73,48,123c0,0,49,49,123,49c0,0,87,0,151,-74c0,0,64,-74,64,-162c0,0,0,-94,-71,-153c0,0,-71,-59,-190,-59Z"
id="f6_bn"
transform="scale(0.001,-0.001)"/>

<path d="M413,-59C413,-59,53,193,53,416c0,0,0,97,66,164c0,0,66,66,156,66c0,0,61,0,110,-30L487,507c0,0,92,126,257,126l35,-2V822H0l-45,76l14,31H1043l46,-76l-13,-31H840l66,-58V-39L869,-49L779,8V547c0,0,-101,-5,-165,-90c0,0,-64,-86,-70,-222L507,225l-90,73c0,0,5,79,35,151c0,0,-59,66,-128,66c0,0,-57,0,-100,-38c0,0,-44,-39,-44,-109c0,0,0,-165,284,-360L413,-59Z"
id="f6_c3"
transform="scale(0.001,-0.001)"/>

<path d="M727,-49L637,8V822H278l66,-58V226L270,196c0,0,-64,36,-122,98c0,0,-58,62,-79,122l43,59H217V822H0l-45,76l14,31H901l46,-76L933,822H698l66,-58V-39L727,-49Z"
id="f6_bb"
transform="scale(0.001,-0.001)"/>

<path d="M348,229c0,0,57,0,106,17L263,559c0,0,-95,-50,-95,-162c0,0,0,-75,52,-136c0,0,49,-32,128,-32Zm170,48c0,0,61,38,96,91V504c0,0,-131,80,-244,80l-35,-2L518,277ZM704,-49L614,8V193c0,0,-84,-65,-192,-65c0,0,-139,0,-255,98c0,0,-115,98,-115,226c0,0,0,106,77,175c0,0,77,70,189,70c0,0,38,0,75,-9L614,578V822H0l-45,76l14,31H878l46,-76L911,822H675l66,-58V-39L704,-49Z"
id="f6_bx"
transform="scale(0.001,-0.001)"/>

<path d="M347,-57C347,-57,66,211,66,394c0,0,0,98,74,164c0,0,74,65,225,65H616V822H0l-45,76l14,31H880l46,-76L912,822H677l66,-58V-39L706,-49L616,8V500H428c0,0,-239,0,-239,-161c0,0,0,-136,214,-343L347,-57Z"
id="f6_bp"
transform="scale(0.001,-0.001)"/>

<path d="M252,385l310,78l22,-9c0,0,107,-43,200,-43c0,0,91,0,151,41V822H603l66,-58V585H373c0,0,-184,0,-184,-99c0,0,0,-48,63,-101ZM483,-305L295,-10c0,0,-90,22,-156,74l41,170h66L351,63c0,0,126,4,207,62c0,0,82,58,82,139c0,0,0,37,-18,71L365,266c0,0,-110,15,-197,102c0,0,-87,87,-87,176c0,0,0,69,59,117c0,0,59,48,172,48H550V822H0l-45,76l14,31H1199l46,-76l-14,-31H996l66,-58V-39l-37,-10L935,8V318c0,0,-41,-15,-78,-15c0,0,-52,0,-131,30c0,0,32,-55,32,-111c0,0,0,-109,-98,-179c0,0,-98,-69,-254,-69L599,-216L483,-305Z"
id="f6_bh"
transform="scale(0.001,-0.001)"/>

<path d="M226,-49c0,0,-66,24,-102,78c0,0,32,69,82,101c0,0,55,-20,100,-80c0,0,-26,-66,-80,-99Z"
id="f6_pc"
transform="scale(0.001,-0.001)"/>

<path d="M416,-30c0,0,-83,0,-175,30C241,0,148,29,75,78l59,125C134,203,296,93,463,93l82,8c0,0,75,67,75,157c0,0,0,104,-70,158c0,0,-70,53,-171,53c0,0,-86,0,-177,-35l-75,66l53,493H700l1,-69c0,0,0,-96,-13,-178l-88,-2L584,872L278,886L248,570c0,0,55,27,149,27c0,0,155,0,255,-84c0,0,100,-85,100,-224c0,0,0,-139,-95,-229c0,0,-95,-90,-241,-90Z"
id="f6_t"
transform="scale(0.001,-0.001)"/>

<path d="M823,-49L733,8V339H445V191L371,160c0,0,-56,36,-120,105c0,0,-63,70,-89,131l41,59H313V735c0,0,0,99,-55,140c0,0,-3,1,-8,1c-16,0,-48,-3,-71,-23c0,0,-31,-26,-31,-66c0,0,0,-69,81,-113L189,620C189,620,31,720,31,828c0,0,0,61,45,99c0,0,46,37,109,37c0,0,96,0,173,-86c0,0,76,-87,79,-194V455H733V822H556l-46,76l14,31H998l45,-76l-13,-31H794l66,-58V-39L823,-49Z"
id="f6_by"
transform="scale(0.001,-0.001)"/>

<path d="M-214,860l-227,219c0,0,-73,70,-148,70c0,0,-67,0,-160,-58l-72,117c0,0,83,71,176,71c0,0,120,0,232,-124L-221,940l-102,294c0,0,-64,179,-189,179c0,0,-60,0,-133,-33l-60,125c0,0,84,47,164,47c0,0,200,0,281,-276L-150,901l-23,-15l-41,-26Z"
id="f6_d5"
transform="scale(0.001,-0.001)"/>

<path d="M0,1062c0,0,-26,11,-60,36c0,0,-34,26,-51,49c0,0,39,81,91,110c0,0,60,-23,106,-85c0,0,-28,-70,-86,-110Z"
id="f6_dj"
transform="scale(0.001,-0.001)"/>

<path d="M548,-57c0,0,-122,0,-243,81c0,0,-122,81,-252,280l57,41C110,345,283,64,498,64c0,0,92,0,153,49c0,0,61,49,61,121c0,0,0,46,-28,84L440,237c0,0,-73,11,-139,55c0,0,-66,44,-105,105c0,0,-40,61,-40,119c0,0,0,72,62,125c0,0,62,53,184,53H625V822H0l-45,76l14,31H906l46,-76L938,822H678l66,-58V562H431c0,0,-164,0,-164,-99c0,0,0,-55,57,-102l261,82c0,0,104,-21,172,-98c0,0,68,-78,68,-171c0,0,0,-99,-76,-166c0,0,-77,-65,-201,-65Z"
id="f6_bm"
transform="scale(0.001,-0.001)"/>

<path d="M228,-49L138,8V822H0l-45,76l14,31H134c0,0,-91,92,-91,191c0,0,0,105,85,170c0,0,84,65,219,65c0,0,128,0,293,-76c0,0,165,-77,362,-263L958,966c0,0,-177,143,-303,210c0,0,-125,68,-244,68c0,0,-107,0,-175,-50c0,0,-68,-50,-68,-131c0,0,0,-61,49,-134H402l46,-76L434,822H199l65,-58V-39L228,-49Z"
id="f6_cu"
transform="scale(0.001,-0.001)"/>

<path d="M688,-243c0,0,-256,53,-408,173c0,0,-152,119,-152,270c0,0,0,101,68,171c0,0,-101,84,-101,179c0,0,0,64,53,112c0,0,54,47,191,47H587V822H0l-45,76l14,31H830l45,-76L862,822H640l66,-58V585H362c0,0,-159,-1,-159,-92c0,0,0,-41,46,-80c0,0,76,47,183,47c0,0,135,0,230,-76c0,0,96,-75,96,-187C758,197,758,67,629,2L545,104c0,0,49,30,81,75c0,0,32,44,32,82c0,0,0,16,-4,26c0,0,-64,58,-167,58c0,0,-97,0,-166,-50v-2c0,0,-67,-52,-67,-131c0,0,0,-116,132,-199c0,0,132,-84,334,-132l-32,-74Z"
id="f6_cc"
transform="scale(0.001,-0.001)"/>

<path d="M228,-49L138,8V822H0l-45,76l14,31H134c0,0,-85,93,-85,192c0,0,0,124,129,195c0,0,129,71,364,71c0,0,285,0,647,-97c0,0,363,-97,692,-271l-42,-50c0,0,-313,137,-644,221c0,0,-332,84,-595,84c0,0,-198,0,-314,-55c0,0,-115,-55,-115,-163c0,0,0,-60,44,-127H402l46,-76L434,822H199l65,-58V-39L228,-49Z"
id="f6_o0"
transform="scale(0.001,-0.001)"/>

<path d="M283,260c0,0,122,0,209,113V513c0,0,-90,51,-160,51c0,0,-80,0,-129,-50c0,0,-49,-50,-49,-118c0,0,0,-60,35,-110c0,0,45,-26,94,-26ZM582,-49L492,8V211c0,0,-63,-54,-141,-54c0,0,-113,0,-214,92c0,0,-102,92,-102,206c0,0,0,93,69,157c0,0,69,63,163,63c0,0,34,0,66,-9L492,590V822H0l-45,76l14,31H909l46,-76L941,822H553l66,-58V521c0,0,93,104,192,104c0,0,63,0,120,-42c0,0,57,-42,82,-106L964,431l-5,9c0,0,-38,72,-110,72c0,0,-51,0,-105,-41c0,0,-53,-42,-125,-129V-39L582,-49Z"
id="f6_l1"
transform="scale(0.001,-0.001)"/>

<path d="M-91,1001c0,0,-27,10,-61,36c0,0,-33,26,-50,49c0,0,38,81,90,110c0,0,61,-23,107,-85c0,0,-28,-71,-86,-110ZM-214,863l-199,281c0,0,-70,92,-157,92c0,0,-69,0,-159,-58l-72,118c0,0,89,73,180,73c0,0,141,0,258,-170L-155,901l-59,-38Z"
id="f6_oz"
transform="scale(0.001,-0.001)"/>

<path d="M431,-30c0,0,-162,0,-266,120C165,90,61,211,61,399c0,0,0,140,63,278c0,0,62,137,198,233c0,0,136,95,343,104l1,-154H440c0,0,-110,-50,-172,-178c0,0,-62,-127,-62,-273c0,0,0,-148,67,-243c0,0,68,-96,195,-96l25,2c0,0,117,59,117,205c0,0,0,88,-43,152c0,0,-43,64,-116,64c0,0,-72,0,-155,-59l-35,63c0,0,121,103,246,103c0,0,106,0,177,-87c0,0,71,-88,71,-214c0,0,0,-139,-92,-234c0,0,-92,-95,-232,-95Z"
id="f6_u"
transform="scale(0.001,-0.001)"/>

<path d="M725,307c0,0,-95,0,-218,78c0,0,-123,78,-188,78c0,0,-54,0,-95,-34c0,0,-41,-34,-73,-100L93,362c0,0,38,88,101,146c0,0,63,59,148,59c0,0,90,0,214,-78c0,0,124,-79,188,-79c0,0,63,0,106,34c0,0,42,33,85,104l60,-40c0,0,-32,-66,-101,-134c0,0,-70,-67,-169,-67Z"
id="f7_4r"
transform="scale(0.001,-0.001)"/>

<path d="M225,0c0,0,2,129,51,312c0,0,48,183,139,352c0,0,91,170,193,286H72v129H780V975C780,975,676,864,573,680C573,680,470,495,414,301C414,301,374,163,363,0Z"
id="f8_r"
transform="scale(0.001,-0.001)"/>

<path d="M423,92c0,0,97,0,159,62c0,0,62,62,62,157c0,0,0,97,-64,160c0,0,-64,64,-161,64c0,0,-96,0,-158,-63c0,0,-62,-62,-62,-156c0,0,0,-58,27,-111c0,0,27,-54,81,-84c0,0,54,-29,116,-29Zm0,552c0,0,78,0,127,49c0,0,49,49,49,120c0,0,0,74,-50,124c0,0,-51,51,-128,51c0,0,-77,0,-127,-50c0,0,-51,-49,-51,-118c0,0,0,-77,50,-126c0,0,50,-50,130,-50ZM422,-18c0,0,-162,0,-261,95c0,0,-99,96,-99,239c0,0,0,107,54,179c0,0,54,72,154,98c0,0,-84,31,-124,87c0,0,-40,57,-40,136c0,0,0,119,85,201c0,0,86,81,229,81c0,0,143,0,230,-83c0,0,87,-83,87,-203c0,0,0,-76,-40,-132c0,0,-39,-56,-121,-87c0,0,101,-33,154,-106c0,0,52,-73,52,-174c0,0,0,-141,-99,-236c0,0,-99,-95,-261,-95Z"
id="f8_s"
transform="scale(0.001,-0.001)"/>


</defs>
</svg>